<svg xmlns="http://www.w3.org/2000/svg" style="fill-opacity:1; color-rendering:auto; color-interpolation:auto; text-rendering:auto; stroke:black; stroke-linecap:square; stroke-miterlimit:10; shape-rendering:auto; stroke-opacity:1; fill:black; stroke-dasharray:none; font-weight:normal; stroke-width:1; font-family:'Dialog'; font-style:normal; stroke-linejoin:miter; font-size:12px; stroke-dashoffset:0; image-rendering:auto;"><defs id="genericDefs" /><g><defs id="defs1"><clipPath clipPathUnits="userSpaceOnUse" id="clipPath1"><path d="M394 56 L416 56 L416 78 L394 78 L394 56 Z" /></clipPath><clipPath clipPathUnits="userSpaceOnUse" id="clipPath2"><path d="M342 56 L364 56 L364 78 L342 78 L342 56 Z" /></clipPath><clipPath clipPathUnits="userSpaceOnUse" id="clipPath3"><path d="M312 67 C312 73.0751 307.0751 78 301 78 C294.9249 78 290 73.0751 290 67 C290 60.9249 294.9249 56 301 56 C307.0751 56 312 60.9249 312 67 Z" /></clipPath><clipPath clipPathUnits="userSpaceOnUse" id="clipPath4"><path d="M260 93 C260 99.0751 255.0751 104 249 104 C242.9249 104 238 99.0751 238 93 C238 86.9249 242.9249 82 249 82 C255.0751 82 260 86.9249 260 93 Z" /></clipPath><clipPath clipPathUnits="userSpaceOnUse" id="clipPath5"><path d="M186 82 L208 82 L208 104 L186 104 L186 82 Z" /></clipPath><clipPath clipPathUnits="userSpaceOnUse" id="clipPath6"><path d="M197 134 L208 156 L186 156 Z" style="fill-rule:evenodd;" /></clipPath><clipPath clipPathUnits="userSpaceOnUse" id="clipPath7"><path d="M156 93 C156 99.0751 151.0751 104 145 104 C138.9249 104 134 99.0751 134 93 C134 86.9249 138.9249 82 145 82 C151.0751 82 156 86.9249 156 93 Z" /></clipPath><clipPath clipPathUnits="userSpaceOnUse" id="clipPath8"><path d="M82 82 L104 82 L104 104 L82 104 L82 82 Z" /></clipPath><clipPath clipPathUnits="userSpaceOnUse" id="clipPath9"><path d="M93 134 L104 156 L82 156 Z" style="fill-rule:evenodd;" /></clipPath><clipPath clipPathUnits="userSpaceOnUse" id="clipPath10"><path d="M52 93 C52 99.0751 47.0751 104 41 104 C34.9249 104 30 99.0751 30 93 C30 86.9249 34.9249 82 41 82 C47.0751 82 52 86.9249 52 93 Z" /></clipPath><clipPath clipPathUnits="userSpaceOnUse" id="clipPath11"><path d="M260 41 C260 47.0751 255.0751 52 249 52 C242.9249 52 238 47.0751 238 41 C238 34.9249 242.9249 30 249 30 C255.0751 30 260 34.9249 260 41 Z" /></clipPath><clipPath clipPathUnits="userSpaceOnUse" id="clipPath12"><path d="M186 30 L208 30 L208 52 L186 52 L186 30 Z" /></clipPath><clipPath clipPathUnits="userSpaceOnUse" id="clipPath13"><path d="M156 41 C156 47.0751 151.0751 52 145 52 C138.9249 52 134 47.0751 134 41 C134 34.9249 138.9249 30 145 30 C151.0751 30 156 34.9249 156 41 Z" /></clipPath><clipPath clipPathUnits="userSpaceOnUse" id="clipPath14"><path d="M93 30 L104 41 L93 52 L82 41 Z" style="fill-rule:evenodd;" /></clipPath></defs><g style="fill:white; text-rendering:optimizeSpeed; stroke:white;"><rect height="186" style="stroke:none;" width="446" x="0" y="0" /></g><g ID="l-1:1,2" style="text-rendering:optimizeSpeed;"><polygon points=" 405 67 353 67" style="fill:none;" /></g><g ID="r-1:1" style="fill:white; text-rendering:optimizeSpeed; stroke:white;" wurcs_mono_id="1"><rect height="22" style="clip-path:url(#clipPath1); stroke:none;" width="22" x="394" y="56" /><rect height="22" style="clip-path:url(#clipPath1); fill:rgb(0,144,188); stroke:none;" width="22" x="394" y="56" /><rect height="22" style="clip-path:url(#clipPath1); fill:none; stroke:black;" width="22" x="394" y="56" /><rect height="22" style="fill:none; stroke:black;" width="22" x="394" y="56" /></g><g style="font-style:italic; text-rendering:optimizeSpeed; font-size:10px; font-family:'SansSerif';"><path d="M406.0938 64.1562 Q405.375 64.1562 404.8359 64.7188 Q404.2969 65.2812 404.0781 66.2656 Q403.875 67.25 404.1719 67.8125 Q404.4688 68.375 405.2031 68.375 Q405.9219 68.375 406.4609 67.8125 Q407 67.25 407.2031 66.2656 Q407.4062 65.2969 407.1094 64.7266 Q406.8125 64.1562 406.0938 64.1562 ZM406.25 63.4062 Q407.4219 63.4062 407.9297 64.1641 Q408.4375 64.9219 408.1562 66.2656 Q407.875 67.6094 407.0391 68.375 Q406.2031 69.1406 405.0312 69.1406 Q403.8594 69.1406 403.3516 68.375 Q402.8438 67.6094 403.125 66.2656 Q403.4062 64.9219 404.2422 64.1641 Q405.0781 63.4062 406.25 63.4062 Z" style="stroke:none;" /></g><g ID="l-1:2,3" style="text-rendering:optimizeSpeed;"><polygon points=" 353 67 301 67" style="fill:none;" /></g><g ID="r-1:2" style="fill:white; text-rendering:optimizeSpeed; stroke:white;" wurcs_mono_id="2"><rect height="22" style="clip-path:url(#clipPath2); stroke:none;" width="22" x="342" y="56" /><rect height="22" style="clip-path:url(#clipPath2); fill:rgb(0,144,188); stroke:none;" width="22" x="342" y="56" /><rect height="22" style="clip-path:url(#clipPath2); fill:none; stroke:black;" width="22" x="342" y="56" /><rect height="22" style="fill:none; stroke:black;" width="22" x="342" y="56" /></g><g ID="l-1:3,4" style="text-rendering:optimizeSpeed;"><polygon points=" 301 67 249 93" style="fill:none;" /></g><g ID="l-1:3,5" style="text-rendering:optimizeSpeed;"><polygon points=" 301 67 249 41" style="fill:none;" /></g><g ID="r-1:3" style="fill:white; text-rendering:optimizeSpeed; stroke:white;" wurcs_mono_id="3"><circle cx="301" cy="67" r="11" style="clip-path:url(#clipPath3); stroke:none;" /><rect height="22" style="clip-path:url(#clipPath3); fill:rgb(0,166,81); stroke:none;" width="22" x="290" y="56" /><rect height="22" style="clip-path:url(#clipPath3); fill:none; stroke:black;" width="22" x="290" y="56" /><circle cx="301" cy="67" r="11" style="fill:none; stroke:black;" /></g><g ID="l-1:4,6" style="text-rendering:optimizeSpeed;"><polygon points=" 249 93 197 93" style="fill:none;" /></g><g ID="r-1:4" style="fill:white; text-rendering:optimizeSpeed; stroke:white;" wurcs_mono_id="4"><circle cx="249" cy="93" r="11" style="clip-path:url(#clipPath4); stroke:none;" /><rect height="22" style="clip-path:url(#clipPath4); fill:rgb(0,166,81); stroke:none;" width="22" x="238" y="82" /><rect height="22" style="clip-path:url(#clipPath4); fill:none; stroke:black;" width="22" x="238" y="82" /><circle cx="249" cy="93" r="11" style="fill:none; stroke:black;" /></g><g ID="l-1:6,7" style="text-rendering:optimizeSpeed;"><polygon points=" 197 93 197 145" style="fill:none;" /></g><g ID="l-1:6,8" style="text-rendering:optimizeSpeed;"><polygon points=" 197 93 145 93" style="fill:none;" /></g><g ID="r-1:6" style="fill:white; text-rendering:optimizeSpeed; stroke:white;" wurcs_mono_id="5"><rect height="22" style="clip-path:url(#clipPath5); stroke:none;" width="22" x="186" y="82" /><rect height="22" style="clip-path:url(#clipPath5); fill:rgb(0,144,188); stroke:none;" width="22" x="186" y="82" /><rect height="22" style="clip-path:url(#clipPath5); fill:none; stroke:black;" width="22" x="186" y="82" /><rect height="22" style="fill:none; stroke:black;" width="22" x="186" y="82" /></g><g ID="r-1:7" style="fill:white; text-rendering:optimizeSpeed; stroke:white;" wurcs_mono_id="6"><polygon points=" 197 134 208 156 186 156" style="stroke:none; clip-path:url(#clipPath6);" /><rect height="22" style="clip-path:url(#clipPath6); fill:rgb(237,28,36); stroke:none;" width="22" x="186" y="134" /><rect height="22" style="clip-path:url(#clipPath6); fill:none; stroke:black;" width="22" x="186" y="134" /><polygon points=" 197 134 208 156 186 156" style="fill:none; stroke:black;" /></g><g ID="l-1:8,9" style="text-rendering:optimizeSpeed;"><polygon points=" 145 93 93 93" style="fill:none;" /></g><g ID="r-1:8" style="fill:white; text-rendering:optimizeSpeed; stroke:white;" wurcs_mono_id="7"><circle cx="145" cy="93" r="11" style="clip-path:url(#clipPath7); stroke:none;" /><rect height="22" style="clip-path:url(#clipPath7); fill:rgb(255,212,0); stroke:none;" width="22" x="134" y="82" /><rect height="22" style="clip-path:url(#clipPath7); fill:none; stroke:black;" width="22" x="134" y="82" /><circle cx="145" cy="93" r="11" style="fill:none; stroke:black;" /></g><g ID="l-1:9,10" style="text-rendering:optimizeSpeed;"><polygon points=" 93 93 93 145" style="fill:none;" /></g><g ID="l-1:9,11" style="text-rendering:optimizeSpeed;"><polygon points=" 93 93 41 93" style="fill:none;" /></g><g ID="r-1:9" style="fill:white; text-rendering:optimizeSpeed; stroke:white;" wurcs_mono_id="8"><rect height="22" style="clip-path:url(#clipPath8); stroke:none;" width="22" x="82" y="82" /><rect height="22" style="clip-path:url(#clipPath8); fill:rgb(0,144,188); stroke:none;" width="22" x="82" y="82" /><rect height="22" style="clip-path:url(#clipPath8); fill:none; stroke:black;" width="22" x="82" y="82" /><rect height="22" style="fill:none; stroke:black;" width="22" x="82" y="82" /></g><g ID="r-1:10" style="fill:white; text-rendering:optimizeSpeed; stroke:white;" wurcs_mono_id="9"><polygon points=" 93 134 104 156 82 156" style="stroke:none; clip-path:url(#clipPath9);" /><rect height="22" style="clip-path:url(#clipPath9); fill:rgb(237,28,36); stroke:none;" width="22" x="82" y="134" /><rect height="22" style="clip-path:url(#clipPath9); fill:none; stroke:black;" width="22" x="82" y="134" /><polygon points=" 93 134 104 156 82 156" style="fill:none; stroke:black;" /></g><g ID="r-1:11" style="fill:white; text-rendering:optimizeSpeed; stroke:white;" wurcs_mono_id="10"><circle cx="41" cy="93" r="11" style="clip-path:url(#clipPath10); stroke:none;" /><rect height="22" style="clip-path:url(#clipPath10); fill:rgb(255,212,0); stroke:none;" width="22" x="30" y="82" /><rect height="22" style="clip-path:url(#clipPath10); fill:none; stroke:black;" width="22" x="30" y="82" /><circle cx="41" cy="93" r="11" style="fill:none; stroke:black;" /></g><g ID="li-1:9,10" style="fill:white; text-rendering:optimizeSpeed; font-family:'Serif'; stroke:white;"><rect height="10" style="stroke:none;" width="7" x="97" y="107" /><path d="M98.1719 108.625 Q98.8594 108.3594 99.4844 108.2266 Q100.1094 108.0938 100.6562 108.0938 Q101.9531 108.0938 102.6719 108.6484 Q103.3906 109.2031 103.3906 110.1875 Q103.3906 110.9688 102.8906 111.5 Q102.3906 112.0312 101.4844 112.2188 Q102.5625 112.375 103.1562 113.0078 Q103.75 113.6406 103.75 114.6406 Q103.75 115.8594 102.9219 116.5156 Q102.0938 117.1719 100.5469 117.1719 Q99.8594 117.1719 99.2109 117.0234 Q98.5625 116.875 97.9219 116.5781 L97.9219 114.875 L98.5781 114.875 Q98.625 115.7188 99.1406 116.1562 Q99.6562 116.5938 100.5781 116.5938 Q101.4688 116.5938 101.9922 116.0703 Q102.5156 115.5469 102.5156 114.6562 Q102.5156 113.625 101.9766 113.0938 Q101.4375 112.5625 100.4062 112.5625 L99.8594 112.5625 L99.8594 111.9531 L100.1406 111.9531 Q101.1719 111.9531 101.6875 111.5312 Q102.2031 111.1094 102.2031 110.25 Q102.2031 109.4844 101.7812 109.0781 Q101.3594 108.6719 100.5625 108.6719 Q99.7656 108.6719 99.3359 109.0469 Q98.9062 109.4219 98.8281 110.1562 L98.1719 110.1562 L98.1719 108.625 Z" style="fill:black; stroke:none;" /><rect height="8" style="stroke:none;" width="8" x="97" y="122" /><path d="M102.1875 128.4688 L101.9531 129.1094 Q101.7656 129.625 101.2031 129.9375 Q100.8438 130.1562 100.2031 130.1406 Q99.0469 130.1406 98.3281 129.2344 Q97.5938 128.3281 97.5938 126.8594 Q97.5938 125.4219 98.3281 124.4844 Q99.0156 123.5938 100.4531 123.6094 Q101.4531 123.6094 101.9531 124 Q102.4062 124.3438 102.5781 125.0938 L102.625 125.3125 L102.8438 124.6719 Q103.0625 124.0469 103.6562 123.75 L104.25 123.75 L104.25 124.0938 Q103.6875 124.2656 103.5 124.8125 L102.8906 126.4844 L103.2969 128.2812 Q103.5 129.2031 103.7344 129.2969 Q104.0469 129.4375 104.7812 129 L104.7812 129.7188 Q103.5938 130.4062 102.75 129.6875 Q102.375 129.3594 102.2656 128.875 L102.1875 128.4688 ZM101.9219 127.3125 L101.5625 125.5938 Q101.2656 124.2188 100.4688 124.2188 Q99.7969 124.2031 99.2812 124.9375 Q98.8594 125.5156 98.8594 126.875 Q98.8594 128.1719 99.2812 128.8281 Q99.75 129.5469 100.5312 129.5 Q101.2031 129.4375 101.6875 128 L101.9219 127.3125 Z" style="fill:black; stroke:none;" /></g><g ID="li-1:9,11" style="fill:white; text-rendering:optimizeSpeed; font-family:'Serif'; stroke:white;"><rect height="9" style="stroke:none;" width="8" x="70" y="96" /><path d="M74.1875 102.0312 L74.1875 97.375 L71.2031 102.0312 L74.1875 102.0312 ZM76.7656 105 L72.7812 105 L72.7812 104.375 L74.1875 104.375 L74.1875 102.6562 L70.375 102.6562 L70.375 102.0156 L74.2031 96.0938 L75.3594 96.0938 L75.3594 102.0312 L77.0312 102.0312 L77.0312 102.6562 L75.3594 102.6562 L75.3594 104.375 L76.7656 104.375 L76.7656 105 Z" style="fill:black; stroke:none;" /><rect height="13" style="stroke:none;" width="7" x="56" y="94" /><path d="M57.8281 106.25 Q58.2969 106.5938 59.1719 106.5938 Q60.0625 106.5938 60.5781 106.0703 Q61.0938 105.5469 61.0938 104.6562 Q61.0938 103.4219 60.5625 102.8906 Q60.0156 102.3594 59 102.3594 L58.4375 102.3594 L58.4375 101.7188 L58.7344 101.7188 Q59.4844 101.7188 60 101.2969 Q60.4219 100.9531 60.4219 100.0156 Q60.4219 99.6094 60.1406 99.1406 Q59.6875 98.375 59.1562 98.3906 Q57.8281 98.4375 57.8281 100.7812 L57.8281 106.25 ZM56.75 109.5 L56.75 100.7812 Q56.75 98.3281 58.0781 98 Q58.7656 97.8125 59.25 97.8125 Q60.3438 97.8125 61.0469 98.6719 Q61.6094 99.3594 61.6094 99.9375 Q61.6094 100.7812 61.2031 101.2656 Q60.7969 101.75 60.0625 101.9844 Q61.1406 102.1406 61.75 102.7812 Q62.3281 103.4062 62.3281 104.6328 Q62.3281 105.8594 61.5078 106.5156 Q60.6875 107.1719 59.1406 107.1719 Q58.1875 107.1719 57.8281 107.0312 L57.8281 109.5 L56.75 109.5 Z" style="fill:black; stroke:none;" /></g><g ID="li-1:8,9" style="fill:white; text-rendering:optimizeSpeed; font-family:'Serif'; stroke:white;"><rect height="10" style="stroke:none;" width="7" x="122" y="96" /><path d="M123.1719 97.625 Q123.8594 97.3594 124.4844 97.2266 Q125.1094 97.0938 125.6562 97.0938 Q126.9531 97.0938 127.6719 97.6484 Q128.3906 98.2031 128.3906 99.1875 Q128.3906 99.9688 127.8906 100.5 Q127.3906 101.0312 126.4844 101.2188 Q127.5625 101.375 128.1562 102.0078 Q128.75 102.6406 128.75 103.6406 Q128.75 104.8594 127.9219 105.5156 Q127.0938 106.1719 125.5469 106.1719 Q124.8594 106.1719 124.2109 106.0234 Q123.5625 105.875 122.9219 105.5781 L122.9219 103.875 L123.5781 103.875 Q123.625 104.7188 124.1406 105.1562 Q124.6562 105.5938 125.5781 105.5938 Q126.4688 105.5938 126.9922 105.0703 Q127.5156 104.5469 127.5156 103.6562 Q127.5156 102.625 126.9766 102.0938 Q126.4375 101.5625 125.4062 101.5625 L124.8594 101.5625 L124.8594 100.9531 L125.1406 100.9531 Q126.1719 100.9531 126.6875 100.5312 Q127.2031 100.1094 127.2031 99.25 Q127.2031 98.4844 126.7812 98.0781 Q126.3594 97.6719 125.5625 97.6719 Q124.7656 97.6719 124.3359 98.0469 Q123.9062 98.4219 123.8281 99.1562 L123.1719 99.1562 L123.1719 97.625 Z" style="fill:black; stroke:none;" /><rect height="13" style="stroke:none;" width="7" x="108" y="94" /><path d="M109.8281 106.25 Q110.2969 106.5938 111.1719 106.5938 Q112.0625 106.5938 112.5781 106.0703 Q113.0938 105.5469 113.0938 104.6562 Q113.0938 103.4219 112.5625 102.8906 Q112.0156 102.3594 111 102.3594 L110.4375 102.3594 L110.4375 101.7188 L110.7344 101.7188 Q111.4844 101.7188 112 101.2969 Q112.4219 100.9531 112.4219 100.0156 Q112.4219 99.6094 112.1406 99.1406 Q111.6875 98.375 111.1562 98.3906 Q109.8281 98.4375 109.8281 100.7812 L109.8281 106.25 ZM108.75 109.5 L108.75 100.7812 Q108.75 98.3281 110.0781 98 Q110.7656 97.8125 111.25 97.8125 Q112.3438 97.8125 113.0469 98.6719 Q113.6094 99.3594 113.6094 99.9375 Q113.6094 100.7812 113.2031 101.2656 Q112.7969 101.75 112.0625 101.9844 Q113.1406 102.1406 113.75 102.7812 Q114.3281 103.4062 114.3281 104.6328 Q114.3281 105.8594 113.5078 106.5156 Q112.6875 107.1719 111.1406 107.1719 Q110.1875 107.1719 109.8281 107.0312 L109.8281 109.5 L108.75 109.5 Z" style="fill:black; stroke:none;" /></g><g ID="li-1:6,7" style="fill:white; text-rendering:optimizeSpeed; font-family:'Serif'; stroke:white;"><rect height="10" style="stroke:none;" width="7" x="201" y="107" /><path d="M202.1719 108.625 Q202.8594 108.3594 203.4844 108.2266 Q204.1094 108.0938 204.6562 108.0938 Q205.9531 108.0938 206.6719 108.6484 Q207.3906 109.2031 207.3906 110.1875 Q207.3906 110.9688 206.8906 111.5 Q206.3906 112.0312 205.4844 112.2188 Q206.5625 112.375 207.1562 113.0078 Q207.75 113.6406 207.75 114.6406 Q207.75 115.8594 206.9219 116.5156 Q206.0938 117.1719 204.5469 117.1719 Q203.8594 117.1719 203.2109 117.0234 Q202.5625 116.875 201.9219 116.5781 L201.9219 114.875 L202.5781 114.875 Q202.625 115.7188 203.1406 116.1562 Q203.6562 116.5938 204.5781 116.5938 Q205.4688 116.5938 205.9922 116.0703 Q206.5156 115.5469 206.5156 114.6562 Q206.5156 113.625 205.9766 113.0938 Q205.4375 112.5625 204.4062 112.5625 L203.8594 112.5625 L203.8594 111.9531 L204.1406 111.9531 Q205.1719 111.9531 205.6875 111.5312 Q206.2031 111.1094 206.2031 110.25 Q206.2031 109.4844 205.7812 109.0781 Q205.3594 108.6719 204.5625 108.6719 Q203.7656 108.6719 203.3359 109.0469 Q202.9062 109.4219 202.8281 110.1562 L202.1719 110.1562 L202.1719 108.625 Z" style="fill:black; stroke:none;" /><rect height="8" style="stroke:none;" width="8" x="201" y="122" /><path d="M206.1875 128.4688 L205.9531 129.1094 Q205.7656 129.625 205.2031 129.9375 Q204.8438 130.1562 204.2031 130.1406 Q203.0469 130.1406 202.3281 129.2344 Q201.5938 128.3281 201.5938 126.8594 Q201.5938 125.4219 202.3281 124.4844 Q203.0156 123.5938 204.4531 123.6094 Q205.4531 123.6094 205.9531 124 Q206.4062 124.3438 206.5781 125.0938 L206.625 125.3125 L206.8438 124.6719 Q207.0625 124.0469 207.6562 123.75 L208.25 123.75 L208.25 124.0938 Q207.6875 124.2656 207.5 124.8125 L206.8906 126.4844 L207.2969 128.2812 Q207.5 129.2031 207.7344 129.2969 Q208.0469 129.4375 208.7812 129 L208.7812 129.7188 Q207.5938 130.4062 206.75 129.6875 Q206.375 129.3594 206.2656 128.875 L206.1875 128.4688 ZM205.9219 127.3125 L205.5625 125.5938 Q205.2656 124.2188 204.4688 124.2188 Q203.7969 124.2031 203.2812 124.9375 Q202.8594 125.5156 202.8594 126.875 Q202.8594 128.1719 203.2812 128.8281 Q203.75 129.5469 204.5312 129.5 Q205.2031 129.4375 205.6875 128 L205.9219 127.3125 Z" style="fill:black; stroke:none;" /></g><g ID="li-1:6,8" style="fill:white; text-rendering:optimizeSpeed; font-family:'Serif'; stroke:white;"><rect height="9" style="stroke:none;" width="8" x="174" y="96" /><path d="M178.1875 102.0312 L178.1875 97.375 L175.2031 102.0312 L178.1875 102.0312 ZM180.7656 105 L176.7812 105 L176.7812 104.375 L178.1875 104.375 L178.1875 102.6562 L174.375 102.6562 L174.375 102.0156 L178.2031 96.0938 L179.3594 96.0938 L179.3594 102.0312 L181.0312 102.0312 L181.0312 102.6562 L179.3594 102.6562 L179.3594 104.375 L180.7656 104.375 L180.7656 105 Z" style="fill:black; stroke:none;" /><rect height="13" style="stroke:none;" width="7" x="160" y="94" /><path d="M161.8281 106.25 Q162.2969 106.5938 163.1719 106.5938 Q164.0625 106.5938 164.5781 106.0703 Q165.0938 105.5469 165.0938 104.6562 Q165.0938 103.4219 164.5625 102.8906 Q164.0156 102.3594 163 102.3594 L162.4375 102.3594 L162.4375 101.7188 L162.7344 101.7188 Q163.4844 101.7188 164 101.2969 Q164.4219 100.9531 164.4219 100.0156 Q164.4219 99.6094 164.1406 99.1406 Q163.6875 98.375 163.1562 98.3906 Q161.8281 98.4375 161.8281 100.7812 L161.8281 106.25 ZM160.75 109.5 L160.75 100.7812 Q160.75 98.3281 162.0781 98 Q162.7656 97.8125 163.25 97.8125 Q164.3438 97.8125 165.0469 98.6719 Q165.6094 99.3594 165.6094 99.9375 Q165.6094 100.7812 165.2031 101.2656 Q164.7969 101.75 164.0625 101.9844 Q165.1406 102.1406 165.75 102.7812 Q166.3281 103.4062 166.3281 104.6328 Q166.3281 105.8594 165.5078 106.5156 Q164.6875 107.1719 163.1406 107.1719 Q162.1875 107.1719 161.8281 107.0312 L161.8281 109.5 L160.75 109.5 Z" style="fill:black; stroke:none;" /></g><g ID="li-1:4,6" style="fill:white; text-rendering:optimizeSpeed; font-family:'Serif'; stroke:white;"><rect height="9" style="stroke:none;" width="7" x="226" y="96" /><path d="M227.5312 98.3438 L226.875 98.3438 L226.875 96.7812 Q227.5 96.4375 228.1406 96.2656 Q228.7812 96.0938 229.3906 96.0938 Q230.75 96.0938 231.5391 96.7578 Q232.3281 97.4219 232.3281 98.5469 Q232.3281 99.8438 230.5469 101.625 Q230.4062 101.7656 230.3281 101.8281 L228.125 104.0312 L231.7656 104.0312 L231.7656 102.9531 L232.4531 102.9531 L232.4531 105 L226.8125 105 L226.8125 104.3594 L229.4688 101.7188 Q230.3438 100.8281 230.7188 100.0938 Q231.0938 99.3594 231.0938 98.5469 Q231.0938 97.6719 230.6328 97.1719 Q230.1719 96.6719 229.375 96.6719 Q228.5312 96.6719 228.0781 97.0859 Q227.625 97.5 227.5312 98.3438 Z" style="fill:black; stroke:none;" /><rect height="13" style="stroke:none;" width="7" x="212" y="94" /><path d="M213.8281 106.25 Q214.2969 106.5938 215.1719 106.5938 Q216.0625 106.5938 216.5781 106.0703 Q217.0938 105.5469 217.0938 104.6562 Q217.0938 103.4219 216.5625 102.8906 Q216.0156 102.3594 215 102.3594 L214.4375 102.3594 L214.4375 101.7188 L214.7344 101.7188 Q215.4844 101.7188 216 101.2969 Q216.4219 100.9531 216.4219 100.0156 Q216.4219 99.6094 216.1406 99.1406 Q215.6875 98.375 215.1562 98.3906 Q213.8281 98.4375 213.8281 100.7812 L213.8281 106.25 ZM212.75 109.5 L212.75 100.7812 Q212.75 98.3281 214.0781 98 Q214.7656 97.8125 215.25 97.8125 Q216.3438 97.8125 217.0469 98.6719 Q217.6094 99.3594 217.6094 99.9375 Q217.6094 100.7812 217.2031 101.2656 Q216.7969 101.75 216.0625 101.9844 Q217.1406 102.1406 217.75 102.7812 Q218.3281 103.4062 218.3281 104.6328 Q218.3281 105.8594 217.5078 106.5156 Q216.6875 107.1719 215.1406 107.1719 Q214.1875 107.1719 213.8281 107.0312 L213.8281 109.5 L212.75 109.5 Z" style="fill:black; stroke:none;" /></g><g ID="l-1:5,12" style="text-rendering:optimizeSpeed;"><polygon points=" 249 41 197 41" style="fill:none;" /></g><g ID="r-1:5" style="fill:white; text-rendering:optimizeSpeed; stroke:white;" wurcs_mono_id="11"><circle cx="249" cy="41" r="11" style="clip-path:url(#clipPath11); stroke:none;" /><rect height="22" style="clip-path:url(#clipPath11); fill:rgb(0,166,81); stroke:none;" width="22" x="238" y="30" /><rect height="22" style="clip-path:url(#clipPath11); fill:none; stroke:black;" width="22" x="238" y="30" /><circle cx="249" cy="41" r="11" style="fill:none; stroke:black;" /></g><g ID="l-1:12,13" style="text-rendering:optimizeSpeed;"><polygon points=" 197 41 145 41" style="fill:none;" /></g><g ID="r-1:12" style="fill:white; text-rendering:optimizeSpeed; stroke:white;" wurcs_mono_id="12"><rect height="22" style="clip-path:url(#clipPath12); stroke:none;" width="22" x="186" y="30" /><rect height="22" style="clip-path:url(#clipPath12); fill:rgb(0,144,188); stroke:none;" width="22" x="186" y="30" /><rect height="22" style="clip-path:url(#clipPath12); fill:none; stroke:black;" width="22" x="186" y="30" /><rect height="22" style="fill:none; stroke:black;" width="22" x="186" y="30" /></g><g ID="l-1:13,14" style="text-rendering:optimizeSpeed;"><polygon points=" 145 41 93 41" style="fill:none;" /></g><g ID="r-1:13" style="fill:white; text-rendering:optimizeSpeed; stroke:white;" wurcs_mono_id="13"><circle cx="145" cy="41" r="11" style="clip-path:url(#clipPath13); stroke:none;" /><rect height="22" style="clip-path:url(#clipPath13); fill:rgb(255,212,0); stroke:none;" width="22" x="134" y="30" /><rect height="22" style="clip-path:url(#clipPath13); fill:none; stroke:black;" width="22" x="134" y="30" /><circle cx="145" cy="41" r="11" style="fill:none; stroke:black;" /></g><g ID="r-1:14" style="fill:white; text-rendering:optimizeSpeed; stroke:white;" wurcs_mono_id="14"><polygon points=" 93 30 104 41 93 52 82 41" style="stroke:none; clip-path:url(#clipPath14);" /><rect height="22" style="clip-path:url(#clipPath14); fill:rgb(165,67,153); stroke:none;" width="22" x="82" y="30" /><rect height="22" style="clip-path:url(#clipPath14); fill:none; stroke:black;" width="22" x="82" y="30" /><polygon points=" 93 30 104 41 93 52 82 41" style="fill:none; stroke:black;" /></g><g ID="li-1:13,14" style="fill:white; text-rendering:optimizeSpeed; font-family:'Serif'; stroke:white;"><rect height="10" style="stroke:none;" width="7" x="122" y="44" /><path d="M125.9219 53.5938 Q126.75 53.5938 127.1953 52.9844 Q127.6406 52.375 127.6406 51.2344 Q127.6406 50.1094 127.1953 49.5 Q126.75 48.8906 125.9219 48.8906 Q125.0938 48.8906 124.6484 49.4766 Q124.2031 50.0625 124.2031 51.1719 Q124.2031 52.3281 124.6484 52.9609 Q125.0938 53.5938 125.9219 53.5938 ZM124.0156 49.1875 Q124.4219 48.75 124.9219 48.5312 Q125.4219 48.3125 126.0625 48.3125 Q127.3594 48.3125 128.1172 49.0938 Q128.875 49.875 128.875 51.2344 Q128.875 52.5625 128.0625 53.3672 Q127.25 54.1719 125.875 54.1719 Q124.3906 54.1719 123.5938 53.0625 Q122.7969 51.9531 122.7969 49.9062 Q122.7969 47.6094 123.7422 46.3516 Q124.6875 45.0938 126.4062 45.0938 Q126.875 45.0938 127.3828 45.1797 Q127.8906 45.2656 128.4219 45.4375 L128.4219 46.8906 L127.7656 46.8906 Q127.6875 46.2969 127.3047 45.9844 Q126.9219 45.6719 126.2812 45.6719 Q125.1406 45.6719 124.5859 46.5312 Q124.0312 47.3906 124.0156 49.1875 Z" style="fill:black; stroke:none;" /><rect height="8" style="stroke:none;" width="8" x="108" y="45" /><path d="M113.1875 51.4688 L112.9531 52.1094 Q112.7656 52.625 112.2031 52.9375 Q111.8438 53.1562 111.2031 53.1406 Q110.0469 53.1406 109.3281 52.2344 Q108.5938 51.3281 108.5938 49.8594 Q108.5938 48.4219 109.3281 47.4844 Q110.0156 46.5938 111.4531 46.6094 Q112.4531 46.6094 112.9531 47 Q113.4062 47.3438 113.5781 48.0938 L113.625 48.3125 L113.8438 47.6719 Q114.0625 47.0469 114.6562 46.75 L115.25 46.75 L115.25 47.0938 Q114.6875 47.2656 114.5 47.8125 L113.8906 49.4844 L114.2969 51.2812 Q114.5 52.2031 114.7344 52.2969 Q115.0469 52.4375 115.7812 52 L115.7812 52.7188 Q114.5938 53.4062 113.75 52.6875 Q113.375 52.3594 113.2656 51.875 L113.1875 51.4688 ZM112.9219 50.3125 L112.5625 48.5938 Q112.2656 47.2188 111.4688 47.2188 Q110.7969 47.2031 110.2812 47.9375 Q109.8594 48.5156 109.8594 49.875 Q109.8594 51.1719 110.2812 51.8281 Q110.75 52.5469 111.5312 52.5 Q112.2031 52.4375 112.6875 51 L112.9219 50.3125 Z" style="fill:black; stroke:none;" /></g><g ID="li-1:12,13" style="fill:white; text-rendering:optimizeSpeed; font-family:'Serif'; stroke:white;"><rect height="9" style="stroke:none;" width="8" x="174" y="44" /><path d="M178.1875 50.0312 L178.1875 45.375 L175.2031 50.0312 L178.1875 50.0312 ZM180.7656 53 L176.7812 53 L176.7812 52.375 L178.1875 52.375 L178.1875 50.6562 L174.375 50.6562 L174.375 50.0156 L178.2031 44.0938 L179.3594 44.0938 L179.3594 50.0312 L181.0312 50.0312 L181.0312 50.6562 L179.3594 50.6562 L179.3594 52.375 L180.7656 52.375 L180.7656 53 Z" style="fill:black; stroke:none;" /><rect height="13" style="stroke:none;" width="7" x="160" y="42" /><path d="M161.8281 54.25 Q162.2969 54.5938 163.1719 54.5938 Q164.0625 54.5938 164.5781 54.0703 Q165.0938 53.5469 165.0938 52.6562 Q165.0938 51.4219 164.5625 50.8906 Q164.0156 50.3594 163 50.3594 L162.4375 50.3594 L162.4375 49.7188 L162.7344 49.7188 Q163.4844 49.7188 164 49.2969 Q164.4219 48.9531 164.4219 48.0156 Q164.4219 47.6094 164.1406 47.1406 Q163.6875 46.375 163.1562 46.3906 Q161.8281 46.4375 161.8281 48.7812 L161.8281 54.25 ZM160.75 57.5 L160.75 48.7812 Q160.75 46.3281 162.0781 46 Q162.7656 45.8125 163.25 45.8125 Q164.3438 45.8125 165.0469 46.6719 Q165.6094 47.3594 165.6094 47.9375 Q165.6094 48.7812 165.2031 49.2656 Q164.7969 49.75 164.0625 49.9844 Q165.1406 50.1406 165.75 50.7812 Q166.3281 51.4062 166.3281 52.6328 Q166.3281 53.8594 165.5078 54.5156 Q164.6875 55.1719 163.1406 55.1719 Q162.1875 55.1719 161.8281 55.0312 L161.8281 57.5 L160.75 57.5 Z" style="fill:black; stroke:none;" /></g><g ID="li-1:5,12" style="fill:white; text-rendering:optimizeSpeed; font-family:'Serif'; stroke:white;"><rect height="9" style="stroke:none;" width="7" x="226" y="44" /><path d="M227.5312 46.3438 L226.875 46.3438 L226.875 44.7812 Q227.5 44.4375 228.1406 44.2656 Q228.7812 44.0938 229.3906 44.0938 Q230.75 44.0938 231.5391 44.7578 Q232.3281 45.4219 232.3281 46.5469 Q232.3281 47.8438 230.5469 49.625 Q230.4062 49.7656 230.3281 49.8281 L228.125 52.0312 L231.7656 52.0312 L231.7656 50.9531 L232.4531 50.9531 L232.4531 53 L226.8125 53 L226.8125 52.3594 L229.4688 49.7188 Q230.3438 48.8281 230.7188 48.0938 Q231.0938 47.3594 231.0938 46.5469 Q231.0938 45.6719 230.6328 45.1719 Q230.1719 44.6719 229.375 44.6719 Q228.5312 44.6719 228.0781 45.0859 Q227.625 45.5 227.5312 46.3438 Z" style="fill:black; stroke:none;" /><rect height="13" style="stroke:none;" width="7" x="212" y="42" /><path d="M213.8281 54.25 Q214.2969 54.5938 215.1719 54.5938 Q216.0625 54.5938 216.5781 54.0703 Q217.0938 53.5469 217.0938 52.6562 Q217.0938 51.4219 216.5625 50.8906 Q216.0156 50.3594 215 50.3594 L214.4375 50.3594 L214.4375 49.7188 L214.7344 49.7188 Q215.4844 49.7188 216 49.2969 Q216.4219 48.9531 216.4219 48.0156 Q216.4219 47.6094 216.1406 47.1406 Q215.6875 46.375 215.1562 46.3906 Q213.8281 46.4375 213.8281 48.7812 L213.8281 54.25 ZM212.75 57.5 L212.75 48.7812 Q212.75 46.3281 214.0781 46 Q214.7656 45.8125 215.25 45.8125 Q216.3438 45.8125 217.0469 46.6719 Q217.6094 47.3594 217.6094 47.9375 Q217.6094 48.7812 217.2031 49.2656 Q216.7969 49.75 216.0625 49.9844 Q217.1406 50.1406 217.75 50.7812 Q218.3281 51.4062 218.3281 52.6328 Q218.3281 53.8594 217.5078 54.5156 Q216.6875 55.1719 215.1406 55.1719 Q214.1875 55.1719 213.8281 55.0312 L213.8281 57.5 L212.75 57.5 Z" style="fill:black; stroke:none;" /></g><g ID="li-1:3,4" style="fill:white; text-rendering:optimizeSpeed; font-family:'Serif'; stroke:white;"><rect height="11" style="stroke:none;" width="19" x="276" y="77" /><path d="M277.1719 79.625 Q277.8594 79.3594 278.4844 79.2266 Q279.1094 79.0938 279.6562 79.0938 Q280.9531 79.0938 281.6719 79.6484 Q282.3906 80.2031 282.3906 81.1875 Q282.3906 81.9688 281.8906 82.5 Q281.3906 83.0312 280.4844 83.2188 Q281.5625 83.375 282.1562 84.0078 Q282.75 84.6406 282.75 85.6406 Q282.75 86.8594 281.9219 87.5156 Q281.0938 88.1719 279.5469 88.1719 Q278.8594 88.1719 278.2109 88.0234 Q277.5625 87.875 276.9219 87.5781 L276.9219 85.875 L277.5781 85.875 Q277.625 86.7188 278.1406 87.1562 Q278.6562 87.5938 279.5781 87.5938 Q280.4688 87.5938 280.9922 87.0703 Q281.5156 86.5469 281.5156 85.6562 Q281.5156 84.625 280.9766 84.0938 Q280.4375 83.5625 279.4062 83.5625 L278.8594 83.5625 L278.8594 82.9531 L279.1406 82.9531 Q280.1719 82.9531 280.6875 82.5312 Q281.2031 82.1094 281.2031 81.25 Q281.2031 80.4844 280.7812 80.0781 Q280.3594 79.6719 279.5625 79.6719 Q278.7656 79.6719 278.3359 80.0469 Q277.9062 80.4219 277.8281 81.1562 L277.1719 81.1562 L277.1719 79.625 ZM286.7441 79.25 L287.6816 79.25 L284.5723 89.1094 L283.6348 89.1094 L286.7441 79.25 ZM291.5996 87.5938 Q292.4277 87.5938 292.873 86.9844 Q293.3184 86.375 293.3184 85.2344 Q293.3184 84.1094 292.873 83.5 Q292.4277 82.8906 291.5996 82.8906 Q290.7715 82.8906 290.3262 83.4766 Q289.8809 84.0625 289.8809 85.1719 Q289.8809 86.3281 290.3262 86.9609 Q290.7715 87.5938 291.5996 87.5938 ZM289.6934 83.1875 Q290.0996 82.75 290.5996 82.5312 Q291.0996 82.3125 291.7402 82.3125 Q293.0371 82.3125 293.7949 83.0938 Q294.5527 83.875 294.5527 85.2344 Q294.5527 86.5625 293.7402 87.3672 Q292.9277 88.1719 291.5527 88.1719 Q290.0684 88.1719 289.2715 87.0625 Q288.4746 85.9531 288.4746 83.9062 Q288.4746 81.6094 289.4199 80.3516 Q290.3652 79.0938 292.084 79.0938 Q292.5527 79.0938 293.0605 79.1797 Q293.5684 79.2656 294.0996 79.4375 L294.0996 80.8906 L293.4434 80.8906 Q293.3652 80.2969 292.9824 79.9844 Q292.5996 79.6719 291.959 79.6719 Q290.8184 79.6719 290.2637 80.5312 Q289.709 81.3906 289.6934 83.1875 Z" style="fill:black; stroke:none;" /><rect height="8" style="stroke:none;" width="8" x="266" y="87" /><path d="M271.1875 93.4688 L270.9531 94.1094 Q270.7656 94.625 270.2031 94.9375 Q269.8438 95.1562 269.2031 95.1406 Q268.0469 95.1406 267.3281 94.2344 Q266.5938 93.3281 266.5938 91.8594 Q266.5938 90.4219 267.3281 89.4844 Q268.0156 88.5938 269.4531 88.6094 Q270.4531 88.6094 270.9531 89 Q271.4062 89.3438 271.5781 90.0938 L271.625 90.3125 L271.8438 89.6719 Q272.0625 89.0469 272.6562 88.75 L273.25 88.75 L273.25 89.0938 Q272.6875 89.2656 272.5 89.8125 L271.8906 91.4844 L272.2969 93.2812 Q272.5 94.2031 272.7344 94.2969 Q273.0469 94.4375 273.7812 94 L273.7812 94.7188 Q272.5938 95.4062 271.75 94.6875 Q271.375 94.3594 271.2656 93.875 L271.1875 93.4688 ZM270.9219 92.3125 L270.5625 90.5938 Q270.2656 89.2188 269.4688 89.2188 Q268.7969 89.2031 268.2812 89.9375 Q267.8594 90.5156 267.8594 91.875 Q267.8594 93.1719 268.2812 93.8281 Q268.75 94.5469 269.5312 94.5 Q270.2031 94.4375 270.6875 93 L270.9219 92.3125 Z" style="fill:black; stroke:none;" /></g><g ID="li-1:3,5" style="fill:white; text-rendering:optimizeSpeed; font-family:'Serif'; stroke:white;"><rect height="11" style="stroke:none;" width="19" x="269" y="59" /><path d="M270.1719 61.625 Q270.8594 61.3594 271.4844 61.2266 Q272.1094 61.0938 272.6562 61.0938 Q273.9531 61.0938 274.6719 61.6484 Q275.3906 62.2031 275.3906 63.1875 Q275.3906 63.9688 274.8906 64.5 Q274.3906 65.0312 273.4844 65.2188 Q274.5625 65.375 275.1562 66.0078 Q275.75 66.6406 275.75 67.6406 Q275.75 68.8594 274.9219 69.5156 Q274.0938 70.1719 272.5469 70.1719 Q271.8594 70.1719 271.2109 70.0234 Q270.5625 69.875 269.9219 69.5781 L269.9219 67.875 L270.5781 67.875 Q270.625 68.7188 271.1406 69.1562 Q271.6562 69.5938 272.5781 69.5938 Q273.4688 69.5938 273.9922 69.0703 Q274.5156 68.5469 274.5156 67.6562 Q274.5156 66.625 273.9766 66.0938 Q273.4375 65.5625 272.4062 65.5625 L271.8594 65.5625 L271.8594 64.9531 L272.1406 64.9531 Q273.1719 64.9531 273.6875 64.5312 Q274.2031 64.1094 274.2031 63.25 Q274.2031 62.4844 273.7812 62.0781 Q273.3594 61.6719 272.5625 61.6719 Q271.7656 61.6719 271.3359 62.0469 Q270.9062 62.4219 270.8281 63.1562 L270.1719 63.1562 L270.1719 61.625 ZM279.7441 61.25 L280.6816 61.25 L277.5723 71.1094 L276.6348 71.1094 L279.7441 61.25 ZM284.5996 69.5938 Q285.4277 69.5938 285.873 68.9844 Q286.3184 68.375 286.3184 67.2344 Q286.3184 66.1094 285.873 65.5 Q285.4277 64.8906 284.5996 64.8906 Q283.7715 64.8906 283.3262 65.4766 Q282.8809 66.0625 282.8809 67.1719 Q282.8809 68.3281 283.3262 68.9609 Q283.7715 69.5938 284.5996 69.5938 ZM282.6934 65.1875 Q283.0996 64.75 283.5996 64.5312 Q284.0996 64.3125 284.7402 64.3125 Q286.0371 64.3125 286.7949 65.0938 Q287.5527 65.875 287.5527 67.2344 Q287.5527 68.5625 286.7402 69.3672 Q285.9277 70.1719 284.5527 70.1719 Q283.0684 70.1719 282.2715 69.0625 Q281.4746 67.9531 281.4746 65.9062 Q281.4746 63.6094 282.4199 62.3516 Q283.3652 61.0938 285.084 61.0938 Q285.5527 61.0938 286.0605 61.1797 Q286.5684 61.2656 287.0996 61.4375 L287.0996 62.8906 L286.4434 62.8906 Q286.3652 62.2969 285.9824 61.9844 Q285.5996 61.6719 284.959 61.6719 Q283.8184 61.6719 283.2637 62.5312 Q282.709 63.3906 282.6934 65.1875 Z" style="fill:black; stroke:none;" /><rect height="8" style="stroke:none;" width="8" x="259" y="53" /><path d="M264.1875 59.4688 L263.9531 60.1094 Q263.7656 60.625 263.2031 60.9375 Q262.8438 61.1562 262.2031 61.1406 Q261.0469 61.1406 260.3281 60.2344 Q259.5938 59.3281 259.5938 57.8594 Q259.5938 56.4219 260.3281 55.4844 Q261.0156 54.5938 262.4531 54.6094 Q263.4531 54.6094 263.9531 55 Q264.4062 55.3438 264.5781 56.0938 L264.625 56.3125 L264.8438 55.6719 Q265.0625 55.0469 265.6562 54.75 L266.25 54.75 L266.25 55.0938 Q265.6875 55.2656 265.5 55.8125 L264.8906 57.4844 L265.2969 59.2812 Q265.5 60.2031 265.7344 60.2969 Q266.0469 60.4375 266.7812 60 L266.7812 60.7188 Q265.5938 61.4062 264.75 60.6875 Q264.375 60.3594 264.2656 59.875 L264.1875 59.4688 ZM263.9219 58.3125 L263.5625 56.5938 Q263.2656 55.2188 262.4688 55.2188 Q261.7969 55.2031 261.2812 55.9375 Q260.8594 56.5156 260.8594 57.875 Q260.8594 59.1719 261.2812 59.8281 Q261.75 60.5469 262.5312 60.5 Q263.2031 60.4375 263.6875 59 L263.9219 58.3125 Z" style="fill:black; stroke:none;" /></g><g ID="li-1:2,3" style="fill:white; text-rendering:optimizeSpeed; font-family:'Serif'; stroke:white;"><rect height="9" style="stroke:none;" width="8" x="330" y="70" /><path d="M334.1875 76.0312 L334.1875 71.375 L331.2031 76.0312 L334.1875 76.0312 ZM336.7656 79 L332.7812 79 L332.7812 78.375 L334.1875 78.375 L334.1875 76.6562 L330.375 76.6562 L330.375 76.0156 L334.2031 70.0938 L335.3594 70.0938 L335.3594 76.0312 L337.0312 76.0312 L337.0312 76.6562 L335.3594 76.6562 L335.3594 78.375 L336.7656 78.375 L336.7656 79 Z" style="fill:black; stroke:none;" /><rect height="13" style="stroke:none;" width="7" x="316" y="68" /><path d="M317.8281 80.25 Q318.2969 80.5938 319.1719 80.5938 Q320.0625 80.5938 320.5781 80.0703 Q321.0938 79.5469 321.0938 78.6562 Q321.0938 77.4219 320.5625 76.8906 Q320.0156 76.3594 319 76.3594 L318.4375 76.3594 L318.4375 75.7188 L318.7344 75.7188 Q319.4844 75.7188 320 75.2969 Q320.4219 74.9531 320.4219 74.0156 Q320.4219 73.6094 320.1406 73.1406 Q319.6875 72.375 319.1562 72.3906 Q317.8281 72.4375 317.8281 74.7812 L317.8281 80.25 ZM316.75 83.5 L316.75 74.7812 Q316.75 72.3281 318.0781 72 Q318.7656 71.8125 319.25 71.8125 Q320.3438 71.8125 321.0469 72.6719 Q321.6094 73.3594 321.6094 73.9375 Q321.6094 74.7812 321.2031 75.2656 Q320.7969 75.75 320.0625 75.9844 Q321.1406 76.1406 321.75 76.7812 Q322.3281 77.4062 322.3281 78.6328 Q322.3281 79.8594 321.5078 80.5156 Q320.6875 81.1719 319.1406 81.1719 Q318.1875 81.1719 317.8281 81.0312 L317.8281 83.5 L316.75 83.5 Z" style="fill:black; stroke:none;" /></g><g ID="li-1:1,2" style="fill:white; text-rendering:optimizeSpeed; font-family:'Serif'; stroke:white;"><rect height="9" style="stroke:none;" width="8" x="382" y="70" /><path d="M386.1875 76.0312 L386.1875 71.375 L383.2031 76.0312 L386.1875 76.0312 ZM388.7656 79 L384.7812 79 L384.7812 78.375 L386.1875 78.375 L386.1875 76.6562 L382.375 76.6562 L382.375 76.0156 L386.2031 70.0938 L387.3594 70.0938 L387.3594 76.0312 L389.0312 76.0312 L389.0312 76.6562 L387.3594 76.6562 L387.3594 78.375 L388.7656 78.375 L388.7656 79 Z" style="fill:black; stroke:none;" /><rect height="13" style="stroke:none;" width="7" x="368" y="68" /><path d="M369.8281 80.25 Q370.2969 80.5938 371.1719 80.5938 Q372.0625 80.5938 372.5781 80.0703 Q373.0938 79.5469 373.0938 78.6562 Q373.0938 77.4219 372.5625 76.8906 Q372.0156 76.3594 371 76.3594 L370.4375 76.3594 L370.4375 75.7188 L370.7344 75.7188 Q371.4844 75.7188 372 75.2969 Q372.4219 74.9531 372.4219 74.0156 Q372.4219 73.6094 372.1406 73.1406 Q371.6875 72.375 371.1562 72.3906 Q369.8281 72.4375 369.8281 74.7812 L369.8281 80.25 ZM368.75 83.5 L368.75 74.7812 Q368.75 72.3281 370.0781 72 Q370.7656 71.8125 371.25 71.8125 Q372.3438 71.8125 373.0469 72.6719 Q373.6094 73.3594 373.6094 73.9375 Q373.6094 74.7812 373.2031 75.2656 Q372.7969 75.75 372.0625 75.9844 Q373.1406 76.1406 373.75 76.7812 Q374.3281 77.4062 374.3281 78.6328 Q374.3281 79.8594 373.5078 80.5156 Q372.6875 81.1719 371.1406 81.1719 Q370.1875 81.1719 369.8281 81.0312 L369.8281 83.5 L368.75 83.5 Z" style="fill:black; stroke:none;" /></g></g></svg>