<svg xmlns="http://www.w3.org/2000/svg" style="fill-opacity:1; color-rendering:auto; color-interpolation:auto; text-rendering:auto; stroke:black; stroke-linecap:square; stroke-miterlimit:10; shape-rendering:auto; stroke-opacity:1; fill:black; stroke-dasharray:none; font-weight:normal; stroke-width:1; font-family:'Dialog'; font-style:normal; stroke-linejoin:miter; font-size:12px; stroke-dashoffset:0; image-rendering:auto;"><defs id="genericDefs" /><g><defs id="defs1"><clipPath clipPathUnits="userSpaceOnUse" id="clipPath1"><path d="M342 134 L364 134 L364 156 L342 156 L342 134 Z" /></clipPath><clipPath clipPathUnits="userSpaceOnUse" id="clipPath2"><path d="M290 134 L312 134 L312 156 L290 156 L290 134 Z" /></clipPath><clipPath clipPathUnits="userSpaceOnUse" id="clipPath3"><path d="M260 145 C260 151.0751 255.0751 156 249 156 C242.9249 156 238 151.0751 238 145 C238 138.9249 242.9249 134 249 134 C255.0751 134 260 138.9249 260 145 Z" /></clipPath><clipPath clipPathUnits="userSpaceOnUse" id="clipPath4"><path d="M208 197 C208 203.0751 203.0751 208 197 208 C190.9249 208 186 203.0751 186 197 C186 190.9249 190.9249 186 197 186 C203.0751 186 208 190.9249 208 197 Z" /></clipPath><clipPath clipPathUnits="userSpaceOnUse" id="clipPath5"><path d="M134 186 L156 186 L156 208 L134 208 L134 186 Z" /></clipPath><clipPath clipPathUnits="userSpaceOnUse" id="clipPath6"><path d="M104 197 C104 203.0751 99.0751 208 93 208 C86.9249 208 82 203.0751 82 197 C82 190.9249 86.9249 186 93 186 C99.0751 186 104 190.9249 104 197 Z" /></clipPath><clipPath clipPathUnits="userSpaceOnUse" id="clipPath7"><path d="M41 186 L52 197 L41 208 L30 197 Z" style="fill-rule:evenodd;" /></clipPath><clipPath clipPathUnits="userSpaceOnUse" id="clipPath8"><path d="M186 134 L208 134 L208 156 L186 156 L186 134 Z" /></clipPath><clipPath clipPathUnits="userSpaceOnUse" id="clipPath9"><path d="M208 93 C208 99.0751 203.0751 104 197 104 C190.9249 104 186 99.0751 186 93 C186 86.9249 190.9249 82 197 82 C203.0751 82 208 86.9249 208 93 Z" /></clipPath><clipPath clipPathUnits="userSpaceOnUse" id="clipPath10"><path d="M134 134 L156 134 L156 156 L134 156 L134 134 Z" /></clipPath><clipPath clipPathUnits="userSpaceOnUse" id="clipPath11"><path d="M134 30 L156 30 L156 52 L134 52 L134 30 Z" /></clipPath><clipPath clipPathUnits="userSpaceOnUse" id="clipPath12"><path d="M145 82 L156 104 L134 104 Z" style="fill-rule:evenodd;" /></clipPath><clipPath clipPathUnits="userSpaceOnUse" id="clipPath13"><path d="M104 41 C104 47.0751 99.0751 52 93 52 C86.9249 52 82 47.0751 82 41 C82 34.9249 86.9249 30 93 30 C99.0751 30 104 34.9249 104 41 Z" /></clipPath><clipPath clipPathUnits="userSpaceOnUse" id="clipPath14"><path d="M353 104 L342 82 L364 82 Z" style="fill-rule:evenodd;" /></clipPath></defs><g style="fill:white; text-rendering:optimizeSpeed; stroke:white;"><rect height="238" style="stroke:none;" width="394" x="0" y="0" /></g><g ID="l-1:1,2" style="text-rendering:optimizeSpeed;"><polygon points=" 353 145 301 145" style="fill:none;" /></g><g ID="l-1:1,3" style="text-rendering:optimizeSpeed;"><polygon points=" 353 145 353 93" style="fill:none;" /></g><g ID="r-1:1" style="fill:white; text-rendering:optimizeSpeed; stroke:white;" wurcs_mono_id="1"><rect height="22" style="clip-path:url(#clipPath1); stroke:none;" width="22" x="342" y="134" /><rect height="22" style="clip-path:url(#clipPath1); fill:rgb(0,144,188); stroke:none;" width="22" x="342" y="134" /><rect height="22" style="clip-path:url(#clipPath1); fill:none; stroke:black;" width="22" x="342" y="134" /><rect height="22" style="fill:none; stroke:black;" width="22" x="342" y="134" /></g><g ID="l-1:2,4" style="text-rendering:optimizeSpeed;"><polygon points=" 301 145 249 145" style="fill:none;" /></g><g ID="r-1:2" style="fill:white; text-rendering:optimizeSpeed; stroke:white;" wurcs_mono_id="2"><rect height="22" style="clip-path:url(#clipPath2); stroke:none;" width="22" x="290" y="134" /><rect height="22" style="clip-path:url(#clipPath2); fill:rgb(0,144,188); stroke:none;" width="22" x="290" y="134" /><rect height="22" style="clip-path:url(#clipPath2); fill:none; stroke:black;" width="22" x="290" y="134" /><rect height="22" style="fill:none; stroke:black;" width="22" x="290" y="134" /></g><g ID="l-1:4,5" style="text-rendering:optimizeSpeed;"><polygon points=" 249 145 197 197" style="fill:none;" /></g><g ID="l-1:4,6" style="text-rendering:optimizeSpeed;"><polygon points=" 249 145 197 145" style="fill:none;" /></g><g ID="l-1:4,7" style="text-rendering:optimizeSpeed;"><polygon points=" 249 145 197 93" style="fill:none;" /></g><g ID="r-1:4" style="fill:white; text-rendering:optimizeSpeed; stroke:white;" wurcs_mono_id="3"><circle cx="249" cy="145" r="11" style="clip-path:url(#clipPath3); stroke:none;" /><rect height="22" style="clip-path:url(#clipPath3); fill:rgb(0,166,81); stroke:none;" width="22" x="238" y="134" /><rect height="22" style="clip-path:url(#clipPath3); fill:none; stroke:black;" width="22" x="238" y="134" /><circle cx="249" cy="145" r="11" style="fill:none; stroke:black;" /></g><g ID="l-1:5,8" style="text-rendering:optimizeSpeed;"><polygon points=" 197 197 145 197" style="fill:none;" /></g><g ID="r-1:5" style="fill:white; text-rendering:optimizeSpeed; stroke:white;" wurcs_mono_id="4"><circle cx="197" cy="197" r="11" style="clip-path:url(#clipPath4); stroke:none;" /><rect height="22" style="clip-path:url(#clipPath4); fill:rgb(0,166,81); stroke:none;" width="22" x="186" y="186" /><rect height="22" style="clip-path:url(#clipPath4); fill:none; stroke:black;" width="22" x="186" y="186" /><circle cx="197" cy="197" r="11" style="fill:none; stroke:black;" /></g><g ID="l-1:8,9" style="text-rendering:optimizeSpeed;"><polygon points=" 145 197 93 197" style="fill:none;" /></g><g ID="r-1:8" style="fill:white; text-rendering:optimizeSpeed; stroke:white;" wurcs_mono_id="5"><rect height="22" style="clip-path:url(#clipPath5); stroke:none;" width="22" x="134" y="186" /><rect height="22" style="clip-path:url(#clipPath5); fill:rgb(0,144,188); stroke:none;" width="22" x="134" y="186" /><rect height="22" style="clip-path:url(#clipPath5); fill:none; stroke:black;" width="22" x="134" y="186" /><rect height="22" style="fill:none; stroke:black;" width="22" x="134" y="186" /></g><g ID="l-1:9,10" style="text-rendering:optimizeSpeed;"><polygon points=" 93 197 41 197" style="fill:none;" /></g><g ID="r-1:9" style="fill:white; text-rendering:optimizeSpeed; stroke:white;" wurcs_mono_id="6"><circle cx="93" cy="197" r="11" style="clip-path:url(#clipPath6); stroke:none;" /><rect height="22" style="clip-path:url(#clipPath6); fill:rgb(255,212,0); stroke:none;" width="22" x="82" y="186" /><rect height="22" style="clip-path:url(#clipPath6); fill:none; stroke:black;" width="22" x="82" y="186" /><circle cx="93" cy="197" r="11" style="fill:none; stroke:black;" /></g><g ID="r-1:10" style="fill:white; text-rendering:optimizeSpeed; stroke:white;" wurcs_mono_id="7"><polygon points=" 41 186 52 197 41 208 30 197" style="stroke:none; clip-path:url(#clipPath7);" /><rect height="22" style="clip-path:url(#clipPath7); fill:rgb(165,67,153); stroke:none;" width="22" x="30" y="186" /><rect height="22" style="clip-path:url(#clipPath7); fill:none; stroke:black;" width="22" x="30" y="186" /><polygon points=" 41 186 52 197 41 208 30 197" style="fill:none; stroke:black;" /></g><g ID="li-1:9,10" style="fill:white; text-rendering:optimizeSpeed; font-family:'Serif'; stroke:white;"><rect height="11" style="stroke:none;" width="19" x="64" y="199" /><path d="M65.1719 201.625 Q65.8594 201.3594 66.4844 201.2266 Q67.1094 201.0938 67.6562 201.0938 Q68.9531 201.0938 69.6719 201.6484 Q70.3906 202.2031 70.3906 203.1875 Q70.3906 203.9688 69.8906 204.5 Q69.3906 205.0312 68.4844 205.2188 Q69.5625 205.375 70.1562 206.0078 Q70.75 206.6406 70.75 207.6406 Q70.75 208.8594 69.9219 209.5156 Q69.0938 210.1719 67.5469 210.1719 Q66.8594 210.1719 66.2109 210.0234 Q65.5625 209.875 64.9219 209.5781 L64.9219 207.875 L65.5781 207.875 Q65.625 208.7188 66.1406 209.1562 Q66.6562 209.5938 67.5781 209.5938 Q68.4688 209.5938 68.9922 209.0703 Q69.5156 208.5469 69.5156 207.6562 Q69.5156 206.625 68.9766 206.0938 Q68.4375 205.5625 67.4062 205.5625 L66.8594 205.5625 L66.8594 204.9531 L67.1406 204.9531 Q68.1719 204.9531 68.6875 204.5312 Q69.2031 204.1094 69.2031 203.25 Q69.2031 202.4844 68.7812 202.0781 Q68.3594 201.6719 67.5625 201.6719 Q66.7656 201.6719 66.3359 202.0469 Q65.9062 202.4219 65.8281 203.1562 L65.1719 203.1562 L65.1719 201.625 ZM74.7441 201.25 L75.6816 201.25 L72.5723 211.1094 L71.6348 211.1094 L74.7441 201.25 ZM79.5996 209.5938 Q80.4277 209.5938 80.873 208.9844 Q81.3184 208.375 81.3184 207.2344 Q81.3184 206.1094 80.873 205.5 Q80.4277 204.8906 79.5996 204.8906 Q78.7715 204.8906 78.3262 205.4766 Q77.8809 206.0625 77.8809 207.1719 Q77.8809 208.3281 78.3262 208.9609 Q78.7715 209.5938 79.5996 209.5938 ZM77.6934 205.1875 Q78.0996 204.75 78.5996 204.5312 Q79.0996 204.3125 79.7402 204.3125 Q81.0371 204.3125 81.7949 205.0938 Q82.5527 205.875 82.5527 207.2344 Q82.5527 208.5625 81.7402 209.3672 Q80.9277 210.1719 79.5527 210.1719 Q78.0684 210.1719 77.2715 209.0625 Q76.4746 207.9531 76.4746 205.9062 Q76.4746 203.6094 77.4199 202.3516 Q78.3652 201.0938 80.084 201.0938 Q80.5527 201.0938 81.0605 201.1797 Q81.5684 201.2656 82.0996 201.4375 L82.0996 202.8906 L81.4434 202.8906 Q81.3652 202.2969 80.9824 201.9844 Q80.5996 201.6719 79.959 201.6719 Q78.8184 201.6719 78.2637 202.5312 Q77.709 203.3906 77.6934 205.1875 Z" style="fill:black; stroke:none;" /><rect height="8" style="stroke:none;" width="8" x="56" y="201" /><path d="M61.1875 207.4688 L60.9531 208.1094 Q60.7656 208.625 60.2031 208.9375 Q59.8438 209.1562 59.2031 209.1406 Q58.0469 209.1406 57.3281 208.2344 Q56.5938 207.3281 56.5938 205.8594 Q56.5938 204.4219 57.3281 203.4844 Q58.0156 202.5938 59.4531 202.6094 Q60.4531 202.6094 60.9531 203 Q61.4062 203.3438 61.5781 204.0938 L61.625 204.3125 L61.8438 203.6719 Q62.0625 203.0469 62.6562 202.75 L63.25 202.75 L63.25 203.0938 Q62.6875 203.2656 62.5 203.8125 L61.8906 205.4844 L62.2969 207.2812 Q62.5 208.2031 62.7344 208.2969 Q63.0469 208.4375 63.7812 208 L63.7812 208.7188 Q62.5938 209.4062 61.75 208.6875 Q61.375 208.3594 61.2656 207.875 L61.1875 207.4688 ZM60.9219 206.3125 L60.5625 204.5938 Q60.2656 203.2188 59.4688 203.2188 Q58.7969 203.2031 58.2812 203.9375 Q57.8594 204.5156 57.8594 205.875 Q57.8594 207.1719 58.2812 207.8281 Q58.75 208.5469 59.5312 208.5 Q60.2031 208.4375 60.6875 207 L60.9219 206.3125 Z" style="fill:black; stroke:none;" /></g><g ID="li-1:8,9" style="fill:white; text-rendering:optimizeSpeed; font-family:'Serif'; stroke:white;"><rect height="9" style="stroke:none;" width="8" x="122" y="200" /><path d="M126.1875 206.0312 L126.1875 201.375 L123.2031 206.0312 L126.1875 206.0312 ZM128.7656 209 L124.7812 209 L124.7812 208.375 L126.1875 208.375 L126.1875 206.6562 L122.375 206.6562 L122.375 206.0156 L126.2031 200.0938 L127.3594 200.0938 L127.3594 206.0312 L129.0312 206.0312 L129.0312 206.6562 L127.3594 206.6562 L127.3594 208.375 L128.7656 208.375 L128.7656 209 Z" style="fill:black; stroke:none;" /><rect height="13" style="stroke:none;" width="7" x="108" y="198" /><path d="M109.8281 210.25 Q110.2969 210.5938 111.1719 210.5938 Q112.0625 210.5938 112.5781 210.0703 Q113.0938 209.5469 113.0938 208.6562 Q113.0938 207.4219 112.5625 206.8906 Q112.0156 206.3594 111 206.3594 L110.4375 206.3594 L110.4375 205.7188 L110.7344 205.7188 Q111.4844 205.7188 112 205.2969 Q112.4219 204.9531 112.4219 204.0156 Q112.4219 203.6094 112.1406 203.1406 Q111.6875 202.375 111.1562 202.3906 Q109.8281 202.4375 109.8281 204.7812 L109.8281 210.25 ZM108.75 213.5 L108.75 204.7812 Q108.75 202.3281 110.0781 202 Q110.7656 201.8125 111.25 201.8125 Q112.3438 201.8125 113.0469 202.6719 Q113.6094 203.3594 113.6094 203.9375 Q113.6094 204.7812 113.2031 205.2656 Q112.7969 205.75 112.0625 205.9844 Q113.1406 206.1406 113.75 206.7812 Q114.3281 207.4062 114.3281 208.6328 Q114.3281 209.8594 113.5078 210.5156 Q112.6875 211.1719 111.1406 211.1719 Q110.1875 211.1719 109.8281 211.0312 L109.8281 213.5 L108.75 213.5 Z" style="fill:black; stroke:none;" /></g><g ID="li-1:5,8" style="fill:white; text-rendering:optimizeSpeed; font-family:'Serif'; stroke:white;"><rect height="9" style="stroke:none;" width="7" x="174" y="200" /><path d="M175.5312 202.3438 L174.875 202.3438 L174.875 200.7812 Q175.5 200.4375 176.1406 200.2656 Q176.7812 200.0938 177.3906 200.0938 Q178.75 200.0938 179.5391 200.7578 Q180.3281 201.4219 180.3281 202.5469 Q180.3281 203.8438 178.5469 205.625 Q178.4062 205.7656 178.3281 205.8281 L176.125 208.0312 L179.7656 208.0312 L179.7656 206.9531 L180.4531 206.9531 L180.4531 209 L174.8125 209 L174.8125 208.3594 L177.4688 205.7188 Q178.3438 204.8281 178.7188 204.0938 Q179.0938 203.3594 179.0938 202.5469 Q179.0938 201.6719 178.6328 201.1719 Q178.1719 200.6719 177.375 200.6719 Q176.5312 200.6719 176.0781 201.0859 Q175.625 201.5 175.5312 202.3438 Z" style="fill:black; stroke:none;" /><rect height="13" style="stroke:none;" width="7" x="160" y="198" /><path d="M161.8281 210.25 Q162.2969 210.5938 163.1719 210.5938 Q164.0625 210.5938 164.5781 210.0703 Q165.0938 209.5469 165.0938 208.6562 Q165.0938 207.4219 164.5625 206.8906 Q164.0156 206.3594 163 206.3594 L162.4375 206.3594 L162.4375 205.7188 L162.7344 205.7188 Q163.4844 205.7188 164 205.2969 Q164.4219 204.9531 164.4219 204.0156 Q164.4219 203.6094 164.1406 203.1406 Q163.6875 202.375 163.1562 202.3906 Q161.8281 202.4375 161.8281 204.7812 L161.8281 210.25 ZM160.75 213.5 L160.75 204.7812 Q160.75 202.3281 162.0781 202 Q162.7656 201.8125 163.25 201.8125 Q164.3438 201.8125 165.0469 202.6719 Q165.6094 203.3594 165.6094 203.9375 Q165.6094 204.7812 165.2031 205.2656 Q164.7969 205.75 164.0625 205.9844 Q165.1406 206.1406 165.75 206.7812 Q166.3281 207.4062 166.3281 208.6328 Q166.3281 209.8594 165.5078 210.5156 Q164.6875 211.1719 163.1406 211.1719 Q162.1875 211.1719 161.8281 211.0312 L161.8281 213.5 L160.75 213.5 Z" style="fill:black; stroke:none;" /></g><g ID="r-1:6" style="fill:white; text-rendering:optimizeSpeed; stroke:white;" wurcs_mono_id="8"><rect height="22" style="clip-path:url(#clipPath8); stroke:none;" width="22" x="186" y="134" /><rect height="22" style="clip-path:url(#clipPath8); fill:rgb(0,144,188); stroke:none;" width="22" x="186" y="134" /><rect height="22" style="clip-path:url(#clipPath8); fill:none; stroke:black;" width="22" x="186" y="134" /><rect height="22" style="fill:none; stroke:black;" width="22" x="186" y="134" /></g><g ID="l-1:7,11" style="text-rendering:optimizeSpeed;"><polygon points=" 197 93 145 145" style="fill:none;" /></g><g ID="l-1:7,12" style="text-rendering:optimizeSpeed;"><polygon points=" 197 93 145 41" style="fill:none;" /></g><g ID="r-1:7" style="fill:white; text-rendering:optimizeSpeed; stroke:white;" wurcs_mono_id="9"><circle cx="197" cy="93" r="11" style="clip-path:url(#clipPath9); stroke:none;" /><rect height="22" style="clip-path:url(#clipPath9); fill:rgb(0,166,81); stroke:none;" width="22" x="186" y="82" /><rect height="22" style="clip-path:url(#clipPath9); fill:none; stroke:black;" width="22" x="186" y="82" /><circle cx="197" cy="93" r="11" style="fill:none; stroke:black;" /></g><g ID="r-1:11" style="fill:white; text-rendering:optimizeSpeed; stroke:white;" wurcs_mono_id="10"><rect height="22" style="clip-path:url(#clipPath10); stroke:none;" width="22" x="134" y="134" /><rect height="22" style="clip-path:url(#clipPath10); fill:rgb(0,144,188); stroke:none;" width="22" x="134" y="134" /><rect height="22" style="clip-path:url(#clipPath10); fill:none; stroke:black;" width="22" x="134" y="134" /><rect height="22" style="fill:none; stroke:black;" width="22" x="134" y="134" /></g><g ID="l-1:12,13" style="text-rendering:optimizeSpeed;"><polygon points=" 145 41 145 93" style="fill:none;" /></g><g ID="l-1:12,14" style="text-rendering:optimizeSpeed;"><polygon points=" 145 41 93 41" style="fill:none;" /></g><g ID="r-1:12" style="fill:white; text-rendering:optimizeSpeed; stroke:white;" wurcs_mono_id="11"><rect height="22" style="clip-path:url(#clipPath11); stroke:none;" width="22" x="134" y="30" /><rect height="22" style="clip-path:url(#clipPath11); fill:rgb(0,144,188); stroke:none;" width="22" x="134" y="30" /><rect height="22" style="clip-path:url(#clipPath11); fill:none; stroke:black;" width="22" x="134" y="30" /><rect height="22" style="fill:none; stroke:black;" width="22" x="134" y="30" /></g><g ID="r-1:13" style="fill:white; text-rendering:optimizeSpeed; stroke:white;" wurcs_mono_id="12"><polygon points=" 145 82 156 104 134 104" style="stroke:none; clip-path:url(#clipPath12);" /><rect height="22" style="clip-path:url(#clipPath12); fill:rgb(237,28,36); stroke:none;" width="22" x="134" y="82" /><rect height="22" style="clip-path:url(#clipPath12); fill:none; stroke:black;" width="22" x="134" y="82" /><polygon points=" 145 82 156 104 134 104" style="fill:none; stroke:black;" /></g><g ID="r-1:14" style="fill:white; text-rendering:optimizeSpeed; stroke:white;" wurcs_mono_id="13"><circle cx="93" cy="41" r="11" style="clip-path:url(#clipPath13); stroke:none;" /><rect height="22" style="clip-path:url(#clipPath13); fill:rgb(255,212,0); stroke:none;" width="22" x="82" y="30" /><rect height="22" style="clip-path:url(#clipPath13); fill:none; stroke:black;" width="22" x="82" y="30" /><circle cx="93" cy="41" r="11" style="fill:none; stroke:black;" /></g><g ID="li-1:12,13" style="fill:white; text-rendering:optimizeSpeed; font-family:'Serif'; stroke:white;"><rect height="10" style="stroke:none;" width="7" x="149" y="55" /><path d="M150.1719 56.625 Q150.8594 56.3594 151.4844 56.2266 Q152.1094 56.0938 152.6562 56.0938 Q153.9531 56.0938 154.6719 56.6484 Q155.3906 57.2031 155.3906 58.1875 Q155.3906 58.9688 154.8906 59.5 Q154.3906 60.0312 153.4844 60.2188 Q154.5625 60.375 155.1562 61.0078 Q155.75 61.6406 155.75 62.6406 Q155.75 63.8594 154.9219 64.5156 Q154.0938 65.1719 152.5469 65.1719 Q151.8594 65.1719 151.2109 65.0234 Q150.5625 64.875 149.9219 64.5781 L149.9219 62.875 L150.5781 62.875 Q150.625 63.7188 151.1406 64.1562 Q151.6562 64.5938 152.5781 64.5938 Q153.4688 64.5938 153.9922 64.0703 Q154.5156 63.5469 154.5156 62.6562 Q154.5156 61.625 153.9766 61.0938 Q153.4375 60.5625 152.4062 60.5625 L151.8594 60.5625 L151.8594 59.9531 L152.1406 59.9531 Q153.1719 59.9531 153.6875 59.5312 Q154.2031 59.1094 154.2031 58.25 Q154.2031 57.4844 153.7812 57.0781 Q153.3594 56.6719 152.5625 56.6719 Q151.7656 56.6719 151.3359 57.0469 Q150.9062 57.4219 150.8281 58.1562 L150.1719 58.1562 L150.1719 56.625 Z" style="fill:black; stroke:none;" /><rect height="8" style="stroke:none;" width="8" x="149" y="70" /><path d="M154.1875 76.4688 L153.9531 77.1094 Q153.7656 77.625 153.2031 77.9375 Q152.8438 78.1562 152.2031 78.1406 Q151.0469 78.1406 150.3281 77.2344 Q149.5938 76.3281 149.5938 74.8594 Q149.5938 73.4219 150.3281 72.4844 Q151.0156 71.5938 152.4531 71.6094 Q153.4531 71.6094 153.9531 72 Q154.4062 72.3438 154.5781 73.0938 L154.625 73.3125 L154.8438 72.6719 Q155.0625 72.0469 155.6562 71.75 L156.25 71.75 L156.25 72.0938 Q155.6875 72.2656 155.5 72.8125 L154.8906 74.4844 L155.2969 76.2812 Q155.5 77.2031 155.7344 77.2969 Q156.0469 77.4375 156.7812 77 L156.7812 77.7188 Q155.5938 78.4062 154.75 77.6875 Q154.375 77.3594 154.2656 76.875 L154.1875 76.4688 ZM153.9219 75.3125 L153.5625 73.5938 Q153.2656 72.2188 152.4688 72.2188 Q151.7969 72.2031 151.2812 72.9375 Q150.8594 73.5156 150.8594 74.875 Q150.8594 76.1719 151.2812 76.8281 Q151.75 77.5469 152.5312 77.5 Q153.2031 77.4375 153.6875 76 L153.9219 75.3125 Z" style="fill:black; stroke:none;" /></g><g ID="li-1:12,14" style="fill:white; text-rendering:optimizeSpeed; font-family:'Serif'; stroke:white;"><rect height="9" style="stroke:none;" width="8" x="122" y="44" /><path d="M126.1875 50.0312 L126.1875 45.375 L123.2031 50.0312 L126.1875 50.0312 ZM128.7656 53 L124.7812 53 L124.7812 52.375 L126.1875 52.375 L126.1875 50.6562 L122.375 50.6562 L122.375 50.0156 L126.2031 44.0938 L127.3594 44.0938 L127.3594 50.0312 L129.0312 50.0312 L129.0312 50.6562 L127.3594 50.6562 L127.3594 52.375 L128.7656 52.375 L128.7656 53 Z" style="fill:black; stroke:none;" /><rect height="13" style="stroke:none;" width="7" x="108" y="42" /><path d="M109.8281 54.25 Q110.2969 54.5938 111.1719 54.5938 Q112.0625 54.5938 112.5781 54.0703 Q113.0938 53.5469 113.0938 52.6562 Q113.0938 51.4219 112.5625 50.8906 Q112.0156 50.3594 111 50.3594 L110.4375 50.3594 L110.4375 49.7188 L110.7344 49.7188 Q111.4844 49.7188 112 49.2969 Q112.4219 48.9531 112.4219 48.0156 Q112.4219 47.6094 112.1406 47.1406 Q111.6875 46.375 111.1562 46.3906 Q109.8281 46.4375 109.8281 48.7812 L109.8281 54.25 ZM108.75 57.5 L108.75 48.7812 Q108.75 46.3281 110.0781 46 Q110.7656 45.8125 111.25 45.8125 Q112.3438 45.8125 113.0469 46.6719 Q113.6094 47.3594 113.6094 47.9375 Q113.6094 48.7812 113.2031 49.2656 Q112.7969 49.75 112.0625 49.9844 Q113.1406 50.1406 113.75 50.7812 Q114.3281 51.4062 114.3281 52.6328 Q114.3281 53.8594 113.5078 54.5156 Q112.6875 55.1719 111.1406 55.1719 Q110.1875 55.1719 109.8281 55.0312 L109.8281 57.5 L108.75 57.5 Z" style="fill:black; stroke:none;" /></g><g ID="li-1:7,11" style="fill:white; text-rendering:optimizeSpeed; font-family:'Serif'; stroke:white;"><rect height="9" style="stroke:none;" width="7" x="182" y="110" /><path d="M183.5312 112.3438 L182.875 112.3438 L182.875 110.7812 Q183.5 110.4375 184.1406 110.2656 Q184.7812 110.0938 185.3906 110.0938 Q186.75 110.0938 187.5391 110.7578 Q188.3281 111.4219 188.3281 112.5469 Q188.3281 113.8438 186.5469 115.625 Q186.4062 115.7656 186.3281 115.8281 L184.125 118.0312 L187.7656 118.0312 L187.7656 116.9531 L188.4531 116.9531 L188.4531 119 L182.8125 119 L182.8125 118.3594 L185.4688 115.7188 Q186.3438 114.8281 186.7188 114.0938 Q187.0938 113.3594 187.0938 112.5469 Q187.0938 111.6719 186.6328 111.1719 Q186.1719 110.6719 185.375 110.6719 Q184.5312 110.6719 184.0781 111.0859 Q183.625 111.5 183.5312 112.3438 Z" style="fill:black; stroke:none;" /><rect height="13" style="stroke:none;" width="7" x="163" y="127" /><path d="M164.8281 139.25 Q165.2969 139.5938 166.1719 139.5938 Q167.0625 139.5938 167.5781 139.0703 Q168.0938 138.5469 168.0938 137.6562 Q168.0938 136.4219 167.5625 135.8906 Q167.0156 135.3594 166 135.3594 L165.4375 135.3594 L165.4375 134.7188 L165.7344 134.7188 Q166.4844 134.7188 167 134.2969 Q167.4219 133.9531 167.4219 133.0156 Q167.4219 132.6094 167.1406 132.1406 Q166.6875 131.375 166.1562 131.3906 Q164.8281 131.4375 164.8281 133.7812 L164.8281 139.25 ZM163.75 142.5 L163.75 133.7812 Q163.75 131.3281 165.0781 131 Q165.7656 130.8125 166.25 130.8125 Q167.3438 130.8125 168.0469 131.6719 Q168.6094 132.3594 168.6094 132.9375 Q168.6094 133.7812 168.2031 134.2656 Q167.7969 134.75 167.0625 134.9844 Q168.1406 135.1406 168.75 135.7812 Q169.3281 136.4062 169.3281 137.6328 Q169.3281 138.8594 168.5078 139.5156 Q167.6875 140.1719 166.1406 140.1719 Q165.1875 140.1719 164.8281 140.0312 L164.8281 142.5 L163.75 142.5 Z" style="fill:black; stroke:none;" /></g><g ID="li-1:7,12" style="fill:white; text-rendering:optimizeSpeed; font-family:'Serif'; stroke:white;"><rect height="10" style="stroke:none;" width="7" x="171" y="77" /><path d="M174.9219 86.5938 Q175.75 86.5938 176.1953 85.9844 Q176.6406 85.375 176.6406 84.2344 Q176.6406 83.1094 176.1953 82.5 Q175.75 81.8906 174.9219 81.8906 Q174.0938 81.8906 173.6484 82.4766 Q173.2031 83.0625 173.2031 84.1719 Q173.2031 85.3281 173.6484 85.9609 Q174.0938 86.5938 174.9219 86.5938 ZM173.0156 82.1875 Q173.4219 81.75 173.9219 81.5312 Q174.4219 81.3125 175.0625 81.3125 Q176.3594 81.3125 177.1172 82.0938 Q177.875 82.875 177.875 84.2344 Q177.875 85.5625 177.0625 86.3672 Q176.25 87.1719 174.875 87.1719 Q173.3906 87.1719 172.5938 86.0625 Q171.7969 84.9531 171.7969 82.9062 Q171.7969 80.6094 172.7422 79.3516 Q173.6875 78.0938 175.4062 78.0938 Q175.875 78.0938 176.3828 78.1797 Q176.8906 78.2656 177.4219 78.4375 L177.4219 79.8906 L176.7656 79.8906 Q176.6875 79.2969 176.3047 78.9844 Q175.9219 78.6719 175.2812 78.6719 Q174.1406 78.6719 173.5859 79.5312 Q173.0312 80.3906 173.0156 82.1875 Z" style="fill:black; stroke:none;" /><rect height="13" style="stroke:none;" width="7" x="152" y="56" /><path d="M153.8281 68.25 Q154.2969 68.5938 155.1719 68.5938 Q156.0625 68.5938 156.5781 68.0703 Q157.0938 67.5469 157.0938 66.6562 Q157.0938 65.4219 156.5625 64.8906 Q156.0156 64.3594 155 64.3594 L154.4375 64.3594 L154.4375 63.7188 L154.7344 63.7188 Q155.4844 63.7188 156 63.2969 Q156.4219 62.9531 156.4219 62.0156 Q156.4219 61.6094 156.1406 61.1406 Q155.6875 60.375 155.1562 60.3906 Q153.8281 60.4375 153.8281 62.7812 L153.8281 68.25 ZM152.75 71.5 L152.75 62.7812 Q152.75 60.3281 154.0781 60 Q154.7656 59.8125 155.25 59.8125 Q156.3438 59.8125 157.0469 60.6719 Q157.6094 61.3594 157.6094 61.9375 Q157.6094 62.7812 157.2031 63.2656 Q156.7969 63.75 156.0625 63.9844 Q157.1406 64.1406 157.75 64.7812 Q158.3281 65.4062 158.3281 66.6328 Q158.3281 67.8594 157.5078 68.5156 Q156.6875 69.1719 155.1406 69.1719 Q154.1875 69.1719 153.8281 69.0312 L153.8281 71.5 L152.75 71.5 Z" style="fill:black; stroke:none;" /></g><g ID="li-1:4,5" style="fill:white; text-rendering:optimizeSpeed; font-family:'Serif'; stroke:white;"><rect height="10" style="stroke:none;" width="7" x="234" y="162" /><path d="M235.1719 163.625 Q235.8594 163.3594 236.4844 163.2266 Q237.1094 163.0938 237.6562 163.0938 Q238.9531 163.0938 239.6719 163.6484 Q240.3906 164.2031 240.3906 165.1875 Q240.3906 165.9688 239.8906 166.5 Q239.3906 167.0312 238.4844 167.2188 Q239.5625 167.375 240.1562 168.0078 Q240.75 168.6406 240.75 169.6406 Q240.75 170.8594 239.9219 171.5156 Q239.0938 172.1719 237.5469 172.1719 Q236.8594 172.1719 236.2109 172.0234 Q235.5625 171.875 234.9219 171.5781 L234.9219 169.875 L235.5781 169.875 Q235.625 170.7188 236.1406 171.1562 Q236.6562 171.5938 237.5781 171.5938 Q238.4688 171.5938 238.9922 171.0703 Q239.5156 170.5469 239.5156 169.6562 Q239.5156 168.625 238.9766 168.0938 Q238.4375 167.5625 237.4062 167.5625 L236.8594 167.5625 L236.8594 166.9531 L237.1406 166.9531 Q238.1719 166.9531 238.6875 166.5312 Q239.2031 166.1094 239.2031 165.25 Q239.2031 164.4844 238.7812 164.0781 Q238.3594 163.6719 237.5625 163.6719 Q236.7656 163.6719 236.3359 164.0469 Q235.9062 164.4219 235.8281 165.1562 L235.1719 165.1562 L235.1719 163.625 Z" style="fill:black; stroke:none;" /><rect height="8" style="stroke:none;" width="8" x="215" y="182" /><path d="M220.1875 188.4688 L219.9531 189.1094 Q219.7656 189.625 219.2031 189.9375 Q218.8438 190.1562 218.2031 190.1406 Q217.0469 190.1406 216.3281 189.2344 Q215.5938 188.3281 215.5938 186.8594 Q215.5938 185.4219 216.3281 184.4844 Q217.0156 183.5938 218.4531 183.6094 Q219.4531 183.6094 219.9531 184 Q220.4062 184.3438 220.5781 185.0938 L220.625 185.3125 L220.8438 184.6719 Q221.0625 184.0469 221.6562 183.75 L222.25 183.75 L222.25 184.0938 Q221.6875 184.2656 221.5 184.8125 L220.8906 186.4844 L221.2969 188.2812 Q221.5 189.2031 221.7344 189.2969 Q222.0469 189.4375 222.7812 189 L222.7812 189.7188 Q221.5938 190.4062 220.75 189.6875 Q220.375 189.3594 220.2656 188.875 L220.1875 188.4688 ZM219.9219 187.3125 L219.5625 185.5938 Q219.2656 184.2188 218.4688 184.2188 Q217.7969 184.2031 217.2812 184.9375 Q216.8594 185.5156 216.8594 186.875 Q216.8594 188.1719 217.2812 188.8281 Q217.75 189.5469 218.5312 189.5 Q219.2031 189.4375 219.6875 188 L219.9219 187.3125 Z" style="fill:black; stroke:none;" /></g><g ID="li-1:4,6" style="fill:white; text-rendering:optimizeSpeed; font-family:'Serif'; stroke:white;"><rect height="9" style="stroke:none;" width="8" x="226" y="148" /><path d="M230.1875 154.0312 L230.1875 149.375 L227.2031 154.0312 L230.1875 154.0312 ZM232.7656 157 L228.7812 157 L228.7812 156.375 L230.1875 156.375 L230.1875 154.6562 L226.375 154.6562 L226.375 154.0156 L230.2031 148.0938 L231.3594 148.0938 L231.3594 154.0312 L233.0312 154.0312 L233.0312 154.6562 L231.3594 154.6562 L231.3594 156.375 L232.7656 156.375 L232.7656 157 Z" style="fill:black; stroke:none;" /><rect height="13" style="stroke:none;" width="7" x="212" y="146" /><path d="M213.8281 158.25 Q214.2969 158.5938 215.1719 158.5938 Q216.0625 158.5938 216.5781 158.0703 Q217.0938 157.5469 217.0938 156.6562 Q217.0938 155.4219 216.5625 154.8906 Q216.0156 154.3594 215 154.3594 L214.4375 154.3594 L214.4375 153.7188 L214.7344 153.7188 Q215.4844 153.7188 216 153.2969 Q216.4219 152.9531 216.4219 152.0156 Q216.4219 151.6094 216.1406 151.1406 Q215.6875 150.375 215.1562 150.3906 Q213.8281 150.4375 213.8281 152.7812 L213.8281 158.25 ZM212.75 161.5 L212.75 152.7812 Q212.75 150.3281 214.0781 150 Q214.7656 149.8125 215.25 149.8125 Q216.3438 149.8125 217.0469 150.6719 Q217.6094 151.3594 217.6094 151.9375 Q217.6094 152.7812 217.2031 153.2656 Q216.7969 153.75 216.0625 153.9844 Q217.1406 154.1406 217.75 154.7812 Q218.3281 155.4062 218.3281 156.6328 Q218.3281 157.8594 217.5078 158.5156 Q216.6875 159.1719 215.1406 159.1719 Q214.1875 159.1719 213.8281 159.0312 L213.8281 161.5 L212.75 161.5 Z" style="fill:black; stroke:none;" /></g><g ID="li-1:4,7" style="fill:white; text-rendering:optimizeSpeed; font-family:'Serif'; stroke:white;"><rect height="10" style="stroke:none;" width="7" x="223" y="129" /><path d="M226.9219 138.5938 Q227.75 138.5938 228.1953 137.9844 Q228.6406 137.375 228.6406 136.2344 Q228.6406 135.1094 228.1953 134.5 Q227.75 133.8906 226.9219 133.8906 Q226.0938 133.8906 225.6484 134.4766 Q225.2031 135.0625 225.2031 136.1719 Q225.2031 137.3281 225.6484 137.9609 Q226.0938 138.5938 226.9219 138.5938 ZM225.0156 134.1875 Q225.4219 133.75 225.9219 133.5312 Q226.4219 133.3125 227.0625 133.3125 Q228.3594 133.3125 229.1172 134.0938 Q229.875 134.875 229.875 136.2344 Q229.875 137.5625 229.0625 138.3672 Q228.25 139.1719 226.875 139.1719 Q225.3906 139.1719 224.5938 138.0625 Q223.7969 136.9531 223.7969 134.9062 Q223.7969 132.6094 224.7422 131.3516 Q225.6875 130.0938 227.4062 130.0938 Q227.875 130.0938 228.3828 130.1797 Q228.8906 130.2656 229.4219 130.4375 L229.4219 131.8906 L228.7656 131.8906 Q228.6875 131.2969 228.3047 130.9844 Q227.9219 130.6719 227.2812 130.6719 Q226.1406 130.6719 225.5859 131.5312 Q225.0312 132.3906 225.0156 134.1875 Z" style="fill:black; stroke:none;" /><rect height="8" style="stroke:none;" width="8" x="204" y="111" /><path d="M209.1875 117.4688 L208.9531 118.1094 Q208.7656 118.625 208.2031 118.9375 Q207.8438 119.1562 207.2031 119.1406 Q206.0469 119.1406 205.3281 118.2344 Q204.5938 117.3281 204.5938 115.8594 Q204.5938 114.4219 205.3281 113.4844 Q206.0156 112.5938 207.4531 112.6094 Q208.4531 112.6094 208.9531 113 Q209.4062 113.3438 209.5781 114.0938 L209.625 114.3125 L209.8438 113.6719 Q210.0625 113.0469 210.6562 112.75 L211.25 112.75 L211.25 113.0938 Q210.6875 113.2656 210.5 113.8125 L209.8906 115.4844 L210.2969 117.2812 Q210.5 118.2031 210.7344 118.2969 Q211.0469 118.4375 211.7812 118 L211.7812 118.7188 Q210.5938 119.4062 209.75 118.6875 Q209.375 118.3594 209.2656 117.875 L209.1875 117.4688 ZM208.9219 116.3125 L208.5625 114.5938 Q208.2656 113.2188 207.4688 113.2188 Q206.7969 113.2031 206.2812 113.9375 Q205.8594 114.5156 205.8594 115.875 Q205.8594 117.1719 206.2812 117.8281 Q206.75 118.5469 207.5312 118.5 Q208.2031 118.4375 208.6875 117 L208.9219 116.3125 Z" style="fill:black; stroke:none;" /></g><g ID="li-1:2,4" style="fill:white; text-rendering:optimizeSpeed; font-family:'Serif'; stroke:white;"><rect height="9" style="stroke:none;" width="8" x="278" y="148" /><path d="M282.1875 154.0312 L282.1875 149.375 L279.2031 154.0312 L282.1875 154.0312 ZM284.7656 157 L280.7812 157 L280.7812 156.375 L282.1875 156.375 L282.1875 154.6562 L278.375 154.6562 L278.375 154.0156 L282.2031 148.0938 L283.3594 148.0938 L283.3594 154.0312 L285.0312 154.0312 L285.0312 154.6562 L283.3594 154.6562 L283.3594 156.375 L284.7656 156.375 L284.7656 157 Z" style="fill:black; stroke:none;" /><rect height="13" style="stroke:none;" width="7" x="264" y="146" /><path d="M265.8281 158.25 Q266.2969 158.5938 267.1719 158.5938 Q268.0625 158.5938 268.5781 158.0703 Q269.0938 157.5469 269.0938 156.6562 Q269.0938 155.4219 268.5625 154.8906 Q268.0156 154.3594 267 154.3594 L266.4375 154.3594 L266.4375 153.7188 L266.7344 153.7188 Q267.4844 153.7188 268 153.2969 Q268.4219 152.9531 268.4219 152.0156 Q268.4219 151.6094 268.1406 151.1406 Q267.6875 150.375 267.1562 150.3906 Q265.8281 150.4375 265.8281 152.7812 L265.8281 158.25 ZM264.75 161.5 L264.75 152.7812 Q264.75 150.3281 266.0781 150 Q266.7656 149.8125 267.25 149.8125 Q268.3438 149.8125 269.0469 150.6719 Q269.6094 151.3594 269.6094 151.9375 Q269.6094 152.7812 269.2031 153.2656 Q268.7969 153.75 268.0625 153.9844 Q269.1406 154.1406 269.75 154.7812 Q270.3281 155.4062 270.3281 156.6328 Q270.3281 157.8594 269.5078 158.5156 Q268.6875 159.1719 267.1406 159.1719 Q266.1875 159.1719 265.8281 159.0312 L265.8281 161.5 L264.75 161.5 Z" style="fill:black; stroke:none;" /></g><g ID="r-1:3" style="fill:white; text-rendering:optimizeSpeed; stroke:white;" wurcs_mono_id="14"><polygon points=" 353 104 342 82 364 82" style="stroke:none; clip-path:url(#clipPath14);" /><rect height="22" style="clip-path:url(#clipPath14); fill:rgb(237,28,36); stroke:none;" width="22" x="342" y="82" /><rect height="22" style="clip-path:url(#clipPath14); fill:none; stroke:black;" width="22" x="342" y="82" /><polygon points=" 353 104 342 82 364 82" style="fill:none; stroke:black;" /></g><g ID="li-1:1,2" style="fill:white; text-rendering:optimizeSpeed; font-family:'Serif'; stroke:white;"><rect height="9" style="stroke:none;" width="8" x="330" y="148" /><path d="M334.1875 154.0312 L334.1875 149.375 L331.2031 154.0312 L334.1875 154.0312 ZM336.7656 157 L332.7812 157 L332.7812 156.375 L334.1875 156.375 L334.1875 154.6562 L330.375 154.6562 L330.375 154.0156 L334.2031 148.0938 L335.3594 148.0938 L335.3594 154.0312 L337.0312 154.0312 L337.0312 154.6562 L335.3594 154.6562 L335.3594 156.375 L336.7656 156.375 L336.7656 157 Z" style="fill:black; stroke:none;" /><rect height="13" style="stroke:none;" width="7" x="316" y="146" /><path d="M317.8281 158.25 Q318.2969 158.5938 319.1719 158.5938 Q320.0625 158.5938 320.5781 158.0703 Q321.0938 157.5469 321.0938 156.6562 Q321.0938 155.4219 320.5625 154.8906 Q320.0156 154.3594 319 154.3594 L318.4375 154.3594 L318.4375 153.7188 L318.7344 153.7188 Q319.4844 153.7188 320 153.2969 Q320.4219 152.9531 320.4219 152.0156 Q320.4219 151.6094 320.1406 151.1406 Q319.6875 150.375 319.1562 150.3906 Q317.8281 150.4375 317.8281 152.7812 L317.8281 158.25 ZM316.75 161.5 L316.75 152.7812 Q316.75 150.3281 318.0781 150 Q318.7656 149.8125 319.25 149.8125 Q320.3438 149.8125 321.0469 150.6719 Q321.6094 151.3594 321.6094 151.9375 Q321.6094 152.7812 321.2031 153.2656 Q320.7969 153.75 320.0625 153.9844 Q321.1406 154.1406 321.75 154.7812 Q322.3281 155.4062 322.3281 156.6328 Q322.3281 157.8594 321.5078 158.5156 Q320.6875 159.1719 319.1406 159.1719 Q318.1875 159.1719 317.8281 159.0312 L317.8281 161.5 L316.75 161.5 Z" style="fill:black; stroke:none;" /></g><g ID="li-1:1,3" style="fill:white; text-rendering:optimizeSpeed; font-family:'Serif'; stroke:white;"><rect height="10" style="stroke:none;" width="7" x="341" y="121" /><path d="M344.9219 130.5938 Q345.75 130.5938 346.1953 129.9844 Q346.6406 129.375 346.6406 128.2344 Q346.6406 127.1094 346.1953 126.5 Q345.75 125.8906 344.9219 125.8906 Q344.0938 125.8906 343.6484 126.4766 Q343.2031 127.0625 343.2031 128.1719 Q343.2031 129.3281 343.6484 129.9609 Q344.0938 130.5938 344.9219 130.5938 ZM343.0156 126.1875 Q343.4219 125.75 343.9219 125.5312 Q344.4219 125.3125 345.0625 125.3125 Q346.3594 125.3125 347.1172 126.0938 Q347.875 126.875 347.875 128.2344 Q347.875 129.5625 347.0625 130.3672 Q346.25 131.1719 344.875 131.1719 Q343.3906 131.1719 342.5938 130.0625 Q341.7969 128.9531 341.7969 126.9062 Q341.7969 124.6094 342.7422 123.3516 Q343.6875 122.0938 345.4062 122.0938 Q345.875 122.0938 346.3828 122.1797 Q346.8906 122.2656 347.4219 122.4375 L347.4219 123.8906 L346.7656 123.8906 Q346.6875 123.2969 346.3047 122.9844 Q345.9219 122.6719 345.2812 122.6719 Q344.1406 122.6719 343.5859 123.5312 Q343.0312 124.3906 343.0156 126.1875 Z" style="fill:black; stroke:none;" /><rect height="8" style="stroke:none;" width="8" x="341" y="108" /><path d="M346.1875 114.4688 L345.9531 115.1094 Q345.7656 115.625 345.2031 115.9375 Q344.8438 116.1562 344.2031 116.1406 Q343.0469 116.1406 342.3281 115.2344 Q341.5938 114.3281 341.5938 112.8594 Q341.5938 111.4219 342.3281 110.4844 Q343.0156 109.5938 344.4531 109.6094 Q345.4531 109.6094 345.9531 110 Q346.4062 110.3438 346.5781 111.0938 L346.625 111.3125 L346.8438 110.6719 Q347.0625 110.0469 347.6562 109.75 L348.25 109.75 L348.25 110.0938 Q347.6875 110.2656 347.5 110.8125 L346.8906 112.4844 L347.2969 114.2812 Q347.5 115.2031 347.7344 115.2969 Q348.0469 115.4375 348.7812 115 L348.7812 115.7188 Q347.5938 116.4062 346.75 115.6875 Q346.375 115.3594 346.2656 114.875 L346.1875 114.4688 ZM345.9219 113.3125 L345.5625 111.5938 Q345.2656 110.2188 344.4688 110.2188 Q343.7969 110.2031 343.2812 110.9375 Q342.8594 111.5156 342.8594 112.875 Q342.8594 114.1719 343.2812 114.8281 Q343.75 115.5469 344.5312 115.5 Q345.2031 115.4375 345.6875 114 L345.9219 113.3125 Z" style="fill:black; stroke:none;" /></g></g></svg>