<svg xmlns="http://www.w3.org/2000/svg" style="fill-opacity:1; color-rendering:auto; color-interpolation:auto; text-rendering:auto; stroke:black; stroke-linecap:square; stroke-miterlimit:10; shape-rendering:auto; stroke-opacity:1; fill:black; stroke-dasharray:none; font-weight:normal; stroke-width:1; font-family:'Dialog'; font-style:normal; stroke-linejoin:miter; font-size:12px; stroke-dashoffset:0; image-rendering:auto;"><defs id="genericDefs" /><g><defs id="defs1"><clipPath clipPathUnits="userSpaceOnUse" id="clipPath1"><path d="M290 56 L312 56 L312 78 L290 78 L290 56 Z" /></clipPath><clipPath clipPathUnits="userSpaceOnUse" id="clipPath2"><path d="M260 93 C260 99.0751 255.0751 104 249 104 C242.9249 104 238 99.0751 238 93 C238 86.9249 242.9249 82 249 82 C255.0751 82 260 86.9249 260 93 Z" /></clipPath><clipPath clipPathUnits="userSpaceOnUse" id="clipPath3"><path d="M197 82 L208 93 L197 104 L186 93 Z" style="fill-rule:evenodd;" /></clipPath><clipPath clipPathUnits="userSpaceOnUse" id="clipPath4"><path d="M238 30 L260 30 L260 52 L238 52 L238 30 Z" /></clipPath><clipPath clipPathUnits="userSpaceOnUse" id="clipPath5"><path d="M208 41 C208 47.0751 203.0751 52 197 52 C190.9249 52 186 47.0751 186 41 C186 34.9249 190.9249 30 197 30 C203.0751 30 208 34.9249 208 41 Z" /></clipPath><clipPath clipPathUnits="userSpaceOnUse" id="clipPath6"><path d="M134 30 L156 30 L156 52 L134 52 L134 30 Z" /></clipPath><clipPath clipPathUnits="userSpaceOnUse" id="clipPath7"><path d="M104 41 C104 47.0751 99.0751 52 93 52 C86.9249 52 82 47.0751 82 41 C82 34.9249 86.9249 30 93 30 C99.0751 30 104 34.9249 104 41 Z" /></clipPath><clipPath clipPathUnits="userSpaceOnUse" id="clipPath8"><path d="M41 30 L52 41 L41 52 L30 41 Z" style="fill-rule:evenodd;" /></clipPath></defs><g style="fill:white; text-rendering:optimizeSpeed; stroke:white;"><rect height="134" style="stroke:none;" width="342" x="0" y="0" /></g><g ID="l-1:1,2" style="text-rendering:optimizeSpeed;"><polygon points=" 301 67 249 93" style="fill:none;" /></g><g ID="l-1:1,3" style="text-rendering:optimizeSpeed;"><polygon points=" 301 67 249 41" style="fill:none;" /></g><g ID="r-1:1" style="fill:white; text-rendering:optimizeSpeed; stroke:white;" wurcs_mono_id="1"><rect height="22" style="clip-path:url(#clipPath1); stroke:none;" width="22" x="290" y="56" /><rect height="22" style="clip-path:url(#clipPath1); fill:rgb(255,212,0); stroke:none;" width="22" x="290" y="56" /><rect height="22" style="clip-path:url(#clipPath1); fill:none; stroke:black;" width="22" x="290" y="56" /><rect height="22" style="fill:none; stroke:black;" width="22" x="290" y="56" /></g><g ID="l-1:2,4" style="text-rendering:optimizeSpeed;"><polygon points=" 249 93 197 93" style="fill:none;" /></g><g ID="r-1:2" style="fill:white; text-rendering:optimizeSpeed; stroke:white;" wurcs_mono_id="2"><circle cx="249" cy="93" r="11" style="clip-path:url(#clipPath2); stroke:none;" /><rect height="22" style="clip-path:url(#clipPath2); fill:rgb(255,212,0); stroke:none;" width="22" x="238" y="82" /><rect height="22" style="clip-path:url(#clipPath2); fill:none; stroke:black;" width="22" x="238" y="82" /><circle cx="249" cy="93" r="11" style="fill:none; stroke:black;" /></g><g ID="r-1:4" style="fill:white; text-rendering:optimizeSpeed; stroke:white;" wurcs_mono_id="3"><polygon points=" 197 82 208 93 197 104 186 93" style="stroke:none; clip-path:url(#clipPath3);" /><rect height="22" style="clip-path:url(#clipPath3); fill:rgb(165,67,153); stroke:none;" width="22" x="186" y="82" /><rect height="22" style="clip-path:url(#clipPath3); fill:none; stroke:black;" width="22" x="186" y="82" /><polygon points=" 197 82 208 93 197 104 186 93" style="fill:none; stroke:black;" /></g><g ID="li-1:2,4" style="fill:white; text-rendering:optimizeSpeed; font-family:'Serif'; stroke:white;"><rect height="10" style="stroke:none;" width="7" x="226" y="96" /><path d="M227.1719 97.625 Q227.8594 97.3594 228.4844 97.2266 Q229.1094 97.0938 229.6562 97.0938 Q230.9531 97.0938 231.6719 97.6484 Q232.3906 98.2031 232.3906 99.1875 Q232.3906 99.9688 231.8906 100.5 Q231.3906 101.0312 230.4844 101.2188 Q231.5625 101.375 232.1562 102.0078 Q232.75 102.6406 232.75 103.6406 Q232.75 104.8594 231.9219 105.5156 Q231.0938 106.1719 229.5469 106.1719 Q228.8594 106.1719 228.2109 106.0234 Q227.5625 105.875 226.9219 105.5781 L226.9219 103.875 L227.5781 103.875 Q227.625 104.7188 228.1406 105.1562 Q228.6562 105.5938 229.5781 105.5938 Q230.4688 105.5938 230.9922 105.0703 Q231.5156 104.5469 231.5156 103.6562 Q231.5156 102.625 230.9766 102.0938 Q230.4375 101.5625 229.4062 101.5625 L228.8594 101.5625 L228.8594 100.9531 L229.1406 100.9531 Q230.1719 100.9531 230.6875 100.5312 Q231.2031 100.1094 231.2031 99.25 Q231.2031 98.4844 230.7812 98.0781 Q230.3594 97.6719 229.5625 97.6719 Q228.7656 97.6719 228.3359 98.0469 Q227.9062 98.4219 227.8281 99.1562 L227.1719 99.1562 L227.1719 97.625 Z" style="fill:black; stroke:none;" /><rect height="8" style="stroke:none;" width="8" x="212" y="97" /><path d="M217.1875 103.4688 L216.9531 104.1094 Q216.7656 104.625 216.2031 104.9375 Q215.8438 105.1562 215.2031 105.1406 Q214.0469 105.1406 213.3281 104.2344 Q212.5938 103.3281 212.5938 101.8594 Q212.5938 100.4219 213.3281 99.4844 Q214.0156 98.5938 215.4531 98.6094 Q216.4531 98.6094 216.9531 99 Q217.4062 99.3438 217.5781 100.0938 L217.625 100.3125 L217.8438 99.6719 Q218.0625 99.0469 218.6562 98.75 L219.25 98.75 L219.25 99.0938 Q218.6875 99.2656 218.5 99.8125 L217.8906 101.4844 L218.2969 103.2812 Q218.5 104.2031 218.7344 104.2969 Q219.0469 104.4375 219.7812 104 L219.7812 104.7188 Q218.5938 105.4062 217.75 104.6875 Q217.375 104.3594 217.2656 103.875 L217.1875 103.4688 ZM216.9219 102.3125 L216.5625 100.5938 Q216.2656 99.2188 215.4688 99.2188 Q214.7969 99.2031 214.2812 99.9375 Q213.8594 100.5156 213.8594 101.875 Q213.8594 103.1719 214.2812 103.8281 Q214.75 104.5469 215.5312 104.5 Q216.2031 104.4375 216.6875 103 L216.9219 102.3125 Z" style="fill:black; stroke:none;" /></g><g ID="l-1:3,5" style="text-rendering:optimizeSpeed;"><polygon points=" 249 41 197 41" style="fill:none;" /></g><g ID="r-1:3" style="fill:white; text-rendering:optimizeSpeed; stroke:white;" wurcs_mono_id="4"><rect height="22" style="clip-path:url(#clipPath4); stroke:none;" width="22" x="238" y="30" /><rect height="22" style="clip-path:url(#clipPath4); fill:rgb(0,144,188); stroke:none;" width="22" x="238" y="30" /><rect height="22" style="clip-path:url(#clipPath4); fill:none; stroke:black;" width="22" x="238" y="30" /><rect height="22" style="fill:none; stroke:black;" width="22" x="238" y="30" /></g><g ID="l-1:5,6" style="text-rendering:optimizeSpeed;"><polygon points=" 197 41 145 41" style="fill:none;" /></g><g ID="r-1:5" style="fill:white; text-rendering:optimizeSpeed; stroke:white;" wurcs_mono_id="5"><circle cx="197" cy="41" r="11" style="clip-path:url(#clipPath5); stroke:none;" /><rect height="22" style="clip-path:url(#clipPath5); fill:rgb(255,212,0); stroke:none;" width="22" x="186" y="30" /><rect height="22" style="clip-path:url(#clipPath5); fill:none; stroke:black;" width="22" x="186" y="30" /><circle cx="197" cy="41" r="11" style="fill:none; stroke:black;" /></g><g ID="l-1:6,7" style="text-rendering:optimizeSpeed;"><polygon points=" 145 41 93 41" style="fill:none;" /></g><g ID="r-1:6" style="fill:white; text-rendering:optimizeSpeed; stroke:white;" wurcs_mono_id="6"><rect height="22" style="clip-path:url(#clipPath6); stroke:none;" width="22" x="134" y="30" /><rect height="22" style="clip-path:url(#clipPath6); fill:rgb(0,144,188); stroke:none;" width="22" x="134" y="30" /><rect height="22" style="clip-path:url(#clipPath6); fill:none; stroke:black;" width="22" x="134" y="30" /><rect height="22" style="fill:none; stroke:black;" width="22" x="134" y="30" /></g><g ID="l-1:7,8" style="text-rendering:optimizeSpeed;"><polygon points=" 93 41 41 41" style="fill:none;" /></g><g ID="r-1:7" style="fill:white; text-rendering:optimizeSpeed; stroke:white;" wurcs_mono_id="7"><circle cx="93" cy="41" r="11" style="clip-path:url(#clipPath7); stroke:none;" /><rect height="22" style="clip-path:url(#clipPath7); fill:rgb(255,212,0); stroke:none;" width="22" x="82" y="30" /><rect height="22" style="clip-path:url(#clipPath7); fill:none; stroke:black;" width="22" x="82" y="30" /><circle cx="93" cy="41" r="11" style="fill:none; stroke:black;" /></g><g ID="r-1:8" style="fill:white; text-rendering:optimizeSpeed; stroke:white;" wurcs_mono_id="8"><polygon points=" 41 30 52 41 41 52 30 41" style="stroke:none; clip-path:url(#clipPath8);" /><rect height="22" style="clip-path:url(#clipPath8); fill:rgb(165,67,153); stroke:none;" width="22" x="30" y="30" /><rect height="22" style="clip-path:url(#clipPath8); fill:none; stroke:black;" width="22" x="30" y="30" /><polygon points=" 41 30 52 41 41 52 30 41" style="fill:none; stroke:black;" /></g><g ID="li-1:7,8" style="fill:white; text-rendering:optimizeSpeed; font-family:'Serif'; stroke:white;"><rect height="10" style="stroke:none;" width="7" x="70" y="44" /><path d="M73.9219 53.5938 Q74.75 53.5938 75.1953 52.9844 Q75.6406 52.375 75.6406 51.2344 Q75.6406 50.1094 75.1953 49.5 Q74.75 48.8906 73.9219 48.8906 Q73.0938 48.8906 72.6484 49.4766 Q72.2031 50.0625 72.2031 51.1719 Q72.2031 52.3281 72.6484 52.9609 Q73.0938 53.5938 73.9219 53.5938 ZM72.0156 49.1875 Q72.4219 48.75 72.9219 48.5312 Q73.4219 48.3125 74.0625 48.3125 Q75.3594 48.3125 76.1172 49.0938 Q76.875 49.875 76.875 51.2344 Q76.875 52.5625 76.0625 53.3672 Q75.25 54.1719 73.875 54.1719 Q72.3906 54.1719 71.5938 53.0625 Q70.7969 51.9531 70.7969 49.9062 Q70.7969 47.6094 71.7422 46.3516 Q72.6875 45.0938 74.4062 45.0938 Q74.875 45.0938 75.3828 45.1797 Q75.8906 45.2656 76.4219 45.4375 L76.4219 46.8906 L75.7656 46.8906 Q75.6875 46.2969 75.3047 45.9844 Q74.9219 45.6719 74.2812 45.6719 Q73.1406 45.6719 72.5859 46.5312 Q72.0312 47.3906 72.0156 49.1875 Z" style="fill:black; stroke:none;" /><rect height="8" style="stroke:none;" width="8" x="56" y="45" /><path d="M61.1875 51.4688 L60.9531 52.1094 Q60.7656 52.625 60.2031 52.9375 Q59.8438 53.1562 59.2031 53.1406 Q58.0469 53.1406 57.3281 52.2344 Q56.5938 51.3281 56.5938 49.8594 Q56.5938 48.4219 57.3281 47.4844 Q58.0156 46.5938 59.4531 46.6094 Q60.4531 46.6094 60.9531 47 Q61.4062 47.3438 61.5781 48.0938 L61.625 48.3125 L61.8438 47.6719 Q62.0625 47.0469 62.6562 46.75 L63.25 46.75 L63.25 47.0938 Q62.6875 47.2656 62.5 47.8125 L61.8906 49.4844 L62.2969 51.2812 Q62.5 52.2031 62.7344 52.2969 Q63.0469 52.4375 63.7812 52 L63.7812 52.7188 Q62.5938 53.4062 61.75 52.6875 Q61.375 52.3594 61.2656 51.875 L61.1875 51.4688 ZM60.9219 50.3125 L60.5625 48.5938 Q60.2656 47.2188 59.4688 47.2188 Q58.7969 47.2031 58.2812 47.9375 Q57.8594 48.5156 57.8594 49.875 Q57.8594 51.1719 58.2812 51.8281 Q58.75 52.5469 59.5312 52.5 Q60.2031 52.4375 60.6875 51 L60.9219 50.3125 Z" style="fill:black; stroke:none;" /></g><g ID="li-1:6,7" style="fill:white; text-rendering:optimizeSpeed; font-family:'Serif'; stroke:white;"><rect height="9" style="stroke:none;" width="8" x="122" y="44" /><path d="M126.1875 50.0312 L126.1875 45.375 L123.2031 50.0312 L126.1875 50.0312 ZM128.7656 53 L124.7812 53 L124.7812 52.375 L126.1875 52.375 L126.1875 50.6562 L122.375 50.6562 L122.375 50.0156 L126.2031 44.0938 L127.3594 44.0938 L127.3594 50.0312 L129.0312 50.0312 L129.0312 50.6562 L127.3594 50.6562 L127.3594 52.375 L128.7656 52.375 L128.7656 53 Z" style="fill:black; stroke:none;" /><rect height="13" style="stroke:none;" width="7" x="108" y="42" /><path d="M109.8281 54.25 Q110.2969 54.5938 111.1719 54.5938 Q112.0625 54.5938 112.5781 54.0703 Q113.0938 53.5469 113.0938 52.6562 Q113.0938 51.4219 112.5625 50.8906 Q112.0156 50.3594 111 50.3594 L110.4375 50.3594 L110.4375 49.7188 L110.7344 49.7188 Q111.4844 49.7188 112 49.2969 Q112.4219 48.9531 112.4219 48.0156 Q112.4219 47.6094 112.1406 47.1406 Q111.6875 46.375 111.1562 46.3906 Q109.8281 46.4375 109.8281 48.7812 L109.8281 54.25 ZM108.75 57.5 L108.75 48.7812 Q108.75 46.3281 110.0781 46 Q110.7656 45.8125 111.25 45.8125 Q112.3438 45.8125 113.0469 46.6719 Q113.6094 47.3594 113.6094 47.9375 Q113.6094 48.7812 113.2031 49.2656 Q112.7969 49.75 112.0625 49.9844 Q113.1406 50.1406 113.75 50.7812 Q114.3281 51.4062 114.3281 52.6328 Q114.3281 53.8594 113.5078 54.5156 Q112.6875 55.1719 111.1406 55.1719 Q110.1875 55.1719 109.8281 55.0312 L109.8281 57.5 L108.75 57.5 Z" style="fill:black; stroke:none;" /></g><g ID="li-1:5,6" style="fill:white; text-rendering:optimizeSpeed; font-family:'Serif'; stroke:white;"><rect height="10" style="stroke:none;" width="6" x="175" y="44" /><path d="M177.1094 53.3906 Q177.1094 53.0625 177.3359 52.8359 Q177.5625 52.6094 177.8906 52.6094 Q178.2188 52.6094 178.4453 52.8359 Q178.6719 53.0625 178.6719 53.3906 Q178.6719 53.7188 178.4453 53.9453 Q178.2188 54.1719 177.8906 54.1719 Q177.5625 54.1719 177.3359 53.9453 Q177.1094 53.7188 177.1094 53.3906 ZM175.8125 45.6406 Q176.4375 45.3594 177 45.2266 Q177.5625 45.0938 178.0469 45.0938 Q179.3438 45.0938 180.1016 45.7188 Q180.8594 46.3438 180.8594 47.4062 Q180.8594 48.5 180.2109 49.1953 Q179.5625 49.8906 178.25 50.1875 L178.25 51.6719 L177.5312 51.6719 L177.5312 49.75 Q178.5625 49.5 179.0938 48.9062 Q179.625 48.3125 179.625 47.4062 Q179.625 46.5938 179.1953 46.1328 Q178.7656 45.6719 178.0312 45.6719 Q177.3594 45.6719 176.9297 46.0547 Q176.5 46.4375 176.3906 47.1562 L175.8125 47.1562 L175.8125 45.6406 Z" style="fill:black; stroke:none;" /><rect height="13" style="stroke:none;" width="7" x="160" y="42" /><path d="M161.8281 54.25 Q162.2969 54.5938 163.1719 54.5938 Q164.0625 54.5938 164.5781 54.0703 Q165.0938 53.5469 165.0938 52.6562 Q165.0938 51.4219 164.5625 50.8906 Q164.0156 50.3594 163 50.3594 L162.4375 50.3594 L162.4375 49.7188 L162.7344 49.7188 Q163.4844 49.7188 164 49.2969 Q164.4219 48.9531 164.4219 48.0156 Q164.4219 47.6094 164.1406 47.1406 Q163.6875 46.375 163.1562 46.3906 Q161.8281 46.4375 161.8281 48.7812 L161.8281 54.25 ZM160.75 57.5 L160.75 48.7812 Q160.75 46.3281 162.0781 46 Q162.7656 45.8125 163.25 45.8125 Q164.3438 45.8125 165.0469 46.6719 Q165.6094 47.3594 165.6094 47.9375 Q165.6094 48.7812 165.2031 49.2656 Q164.7969 49.75 164.0625 49.9844 Q165.1406 50.1406 165.75 50.7812 Q166.3281 51.4062 166.3281 52.6328 Q166.3281 53.8594 165.5078 54.5156 Q164.6875 55.1719 163.1406 55.1719 Q162.1875 55.1719 161.8281 55.0312 L161.8281 57.5 L160.75 57.5 Z" style="fill:black; stroke:none;" /></g><g ID="li-1:3,5" style="fill:white; text-rendering:optimizeSpeed; font-family:'Serif'; stroke:white;"><rect height="9" style="stroke:none;" width="8" x="226" y="44" /><path d="M230.1875 50.0312 L230.1875 45.375 L227.2031 50.0312 L230.1875 50.0312 ZM232.7656 53 L228.7812 53 L228.7812 52.375 L230.1875 52.375 L230.1875 50.6562 L226.375 50.6562 L226.375 50.0156 L230.2031 44.0938 L231.3594 44.0938 L231.3594 50.0312 L233.0312 50.0312 L233.0312 50.6562 L231.3594 50.6562 L231.3594 52.375 L232.7656 52.375 L232.7656 53 Z" style="fill:black; stroke:none;" /><rect height="13" style="stroke:none;" width="7" x="212" y="42" /><path d="M213.8281 54.25 Q214.2969 54.5938 215.1719 54.5938 Q216.0625 54.5938 216.5781 54.0703 Q217.0938 53.5469 217.0938 52.6562 Q217.0938 51.4219 216.5625 50.8906 Q216.0156 50.3594 215 50.3594 L214.4375 50.3594 L214.4375 49.7188 L214.7344 49.7188 Q215.4844 49.7188 216 49.2969 Q216.4219 48.9531 216.4219 48.0156 Q216.4219 47.6094 216.1406 47.1406 Q215.6875 46.375 215.1562 46.3906 Q213.8281 46.4375 213.8281 48.7812 L213.8281 54.25 ZM212.75 57.5 L212.75 48.7812 Q212.75 46.3281 214.0781 46 Q214.7656 45.8125 215.25 45.8125 Q216.3438 45.8125 217.0469 46.6719 Q217.6094 47.3594 217.6094 47.9375 Q217.6094 48.7812 217.2031 49.2656 Q216.7969 49.75 216.0625 49.9844 Q217.1406 50.1406 217.75 50.7812 Q218.3281 51.4062 218.3281 52.6328 Q218.3281 53.8594 217.5078 54.5156 Q216.6875 55.1719 215.1406 55.1719 Q214.1875 55.1719 213.8281 55.0312 L213.8281 57.5 L212.75 57.5 Z" style="fill:black; stroke:none;" /></g><g ID="li-1:1,2" style="fill:white; text-rendering:optimizeSpeed; font-family:'Serif'; stroke:white;"><rect height="10" style="stroke:none;" width="7" x="282" y="78" /><path d="M283.1719 79.625 Q283.8594 79.3594 284.4844 79.2266 Q285.1094 79.0938 285.6562 79.0938 Q286.9531 79.0938 287.6719 79.6484 Q288.3906 80.2031 288.3906 81.1875 Q288.3906 81.9688 287.8906 82.5 Q287.3906 83.0312 286.4844 83.2188 Q287.5625 83.375 288.1562 84.0078 Q288.75 84.6406 288.75 85.6406 Q288.75 86.8594 287.9219 87.5156 Q287.0938 88.1719 285.5469 88.1719 Q284.8594 88.1719 284.2109 88.0234 Q283.5625 87.875 282.9219 87.5781 L282.9219 85.875 L283.5781 85.875 Q283.625 86.7188 284.1406 87.1562 Q284.6562 87.5938 285.5781 87.5938 Q286.4688 87.5938 286.9922 87.0703 Q287.5156 86.5469 287.5156 85.6562 Q287.5156 84.625 286.9766 84.0938 Q286.4375 83.5625 285.4062 83.5625 L284.8594 83.5625 L284.8594 82.9531 L285.1406 82.9531 Q286.1719 82.9531 286.6875 82.5312 Q287.2031 82.1094 287.2031 81.25 Q287.2031 80.4844 286.7812 80.0781 Q286.3594 79.6719 285.5625 79.6719 Q284.7656 79.6719 284.3359 80.0469 Q283.9062 80.4219 283.8281 81.1562 L283.1719 81.1562 L283.1719 79.625 Z" style="fill:black; stroke:none;" /><rect height="13" style="stroke:none;" width="7" x="267" y="84" /><path d="M268.8281 96.25 Q269.2969 96.5938 270.1719 96.5938 Q271.0625 96.5938 271.5781 96.0703 Q272.0938 95.5469 272.0938 94.6562 Q272.0938 93.4219 271.5625 92.8906 Q271.0156 92.3594 270 92.3594 L269.4375 92.3594 L269.4375 91.7188 L269.7344 91.7188 Q270.4844 91.7188 271 91.2969 Q271.4219 90.9531 271.4219 90.0156 Q271.4219 89.6094 271.1406 89.1406 Q270.6875 88.375 270.1562 88.3906 Q268.8281 88.4375 268.8281 90.7812 L268.8281 96.25 ZM267.75 99.5 L267.75 90.7812 Q267.75 88.3281 269.0781 88 Q269.7656 87.8125 270.25 87.8125 Q271.3438 87.8125 272.0469 88.6719 Q272.6094 89.3594 272.6094 89.9375 Q272.6094 90.7812 272.2031 91.2656 Q271.7969 91.75 271.0625 91.9844 Q272.1406 92.1406 272.75 92.7812 Q273.3281 93.4062 273.3281 94.6328 Q273.3281 95.8594 272.5078 96.5156 Q271.6875 97.1719 270.1406 97.1719 Q269.1875 97.1719 268.8281 97.0312 L268.8281 99.5 L267.75 99.5 Z" style="fill:black; stroke:none;" /></g><g ID="li-1:1,3" style="fill:white; text-rendering:optimizeSpeed; font-family:'Serif'; stroke:white;"><rect height="10" style="stroke:none;" width="7" x="275" y="60" /><path d="M278.9219 69.5938 Q279.75 69.5938 280.1953 68.9844 Q280.6406 68.375 280.6406 67.2344 Q280.6406 66.1094 280.1953 65.5 Q279.75 64.8906 278.9219 64.8906 Q278.0938 64.8906 277.6484 65.4766 Q277.2031 66.0625 277.2031 67.1719 Q277.2031 68.3281 277.6484 68.9609 Q278.0938 69.5938 278.9219 69.5938 ZM277.0156 65.1875 Q277.4219 64.75 277.9219 64.5312 Q278.4219 64.3125 279.0625 64.3125 Q280.3594 64.3125 281.1172 65.0938 Q281.875 65.875 281.875 67.2344 Q281.875 68.5625 281.0625 69.3672 Q280.25 70.1719 278.875 70.1719 Q277.3906 70.1719 276.5938 69.0625 Q275.7969 67.9531 275.7969 65.9062 Q275.7969 63.6094 276.7422 62.3516 Q277.6875 61.0938 279.4062 61.0938 Q279.875 61.0938 280.3828 61.1797 Q280.8906 61.2656 281.4219 61.4375 L281.4219 62.8906 L280.7656 62.8906 Q280.6875 62.2969 280.3047 61.9844 Q279.9219 61.6719 279.2812 61.6719 Q278.1406 61.6719 277.5859 62.5312 Q277.0312 63.3906 277.0156 65.1875 Z" style="fill:black; stroke:none;" /><rect height="13" style="stroke:none;" width="7" x="260" y="50" /><path d="M261.8281 62.25 Q262.2969 62.5938 263.1719 62.5938 Q264.0625 62.5938 264.5781 62.0703 Q265.0938 61.5469 265.0938 60.6562 Q265.0938 59.4219 264.5625 58.8906 Q264.0156 58.3594 263 58.3594 L262.4375 58.3594 L262.4375 57.7188 L262.7344 57.7188 Q263.4844 57.7188 264 57.2969 Q264.4219 56.9531 264.4219 56.0156 Q264.4219 55.6094 264.1406 55.1406 Q263.6875 54.375 263.1562 54.3906 Q261.8281 54.4375 261.8281 56.7812 L261.8281 62.25 ZM260.75 65.5 L260.75 56.7812 Q260.75 54.3281 262.0781 54 Q262.7656 53.8125 263.25 53.8125 Q264.3438 53.8125 265.0469 54.6719 Q265.6094 55.3594 265.6094 55.9375 Q265.6094 56.7812 265.2031 57.2656 Q264.7969 57.75 264.0625 57.9844 Q265.1406 58.1406 265.75 58.7812 Q266.3281 59.4062 266.3281 60.6328 Q266.3281 61.8594 265.5078 62.5156 Q264.6875 63.1719 263.1406 63.1719 Q262.1875 63.1719 261.8281 63.0312 L261.8281 65.5 L260.75 65.5 Z" style="fill:black; stroke:none;" /></g></g></svg>