<svg xmlns="http://www.w3.org/2000/svg" style="fill-opacity:1; color-rendering:auto; color-interpolation:auto; text-rendering:auto; stroke:black; stroke-linecap:square; stroke-miterlimit:10; shape-rendering:auto; stroke-opacity:1; fill:black; stroke-dasharray:none; font-weight:normal; stroke-width:1; font-family:'Dialog'; font-style:normal; stroke-linejoin:miter; font-size:12px; stroke-dashoffset:0; image-rendering:auto;"><defs id="genericDefs" /><g><defs id="defs1"><clipPath clipPathUnits="userSpaceOnUse" id="clipPath1"><path d="M238 56 L260 56 L260 78 L238 78 L238 56 Z" /></clipPath><clipPath clipPathUnits="userSpaceOnUse" id="clipPath2"><path d="M186 56 L208 56 L208 78 L186 78 L186 56 Z" /></clipPath><clipPath clipPathUnits="userSpaceOnUse" id="clipPath3"><path d="M156 67 C156 73.0751 151.0751 78 145 78 C138.9249 78 134 73.0751 134 67 C134 60.9249 138.9249 56 145 56 C151.0751 56 156 60.9249 156 67 Z" /></clipPath><clipPath clipPathUnits="userSpaceOnUse" id="clipPath4"><path d="M104 93 C104 99.0751 99.0751 104 93 104 C86.9249 104 82 99.0751 82 93 C82 86.9249 86.9249 82 93 82 C99.0751 82 104 86.9249 104 93 Z" /></clipPath><clipPath clipPathUnits="userSpaceOnUse" id="clipPath5"><path d="M30 82 L52 82 L52 104 L30 104 L30 82 Z" /></clipPath><clipPath clipPathUnits="userSpaceOnUse" id="clipPath6"><path d="M104 41 C104 47.0751 99.0751 52 93 52 C86.9249 52 82 47.0751 82 41 C82 34.9249 86.9249 30 93 30 C99.0751 30 104 34.9249 104 41 Z" /></clipPath><clipPath clipPathUnits="userSpaceOnUse" id="clipPath7"><path d="M30 30 L52 30 L52 52 L30 52 L30 30 Z" /></clipPath></defs><g style="fill:white; text-rendering:optimizeSpeed; stroke:white;"><rect height="134" style="stroke:none;" width="290" x="0" y="0" /></g><g ID="l-1:1,2" style="text-rendering:optimizeSpeed;"><polygon points=" 249 67 197 67" style="fill:none;" /></g><g ID="r-1:1" style="fill:white; text-rendering:optimizeSpeed; stroke:white;" wurcs_mono_id="1"><rect height="22" style="clip-path:url(#clipPath1); stroke:none;" width="22" x="238" y="56" /><rect height="22" style="clip-path:url(#clipPath1); fill:rgb(0,144,188); stroke:none;" width="22" x="238" y="56" /><rect height="22" style="clip-path:url(#clipPath1); fill:none; stroke:black;" width="22" x="238" y="56" /><rect height="22" style="fill:none; stroke:black;" width="22" x="238" y="56" /></g><g ID="l-1:2,3" style="text-rendering:optimizeSpeed;"><polygon points=" 197 67 145 67" style="fill:none;" /></g><g ID="r-1:2" style="fill:white; text-rendering:optimizeSpeed; stroke:white;" wurcs_mono_id="2"><rect height="22" style="clip-path:url(#clipPath2); stroke:none;" width="22" x="186" y="56" /><rect height="22" style="clip-path:url(#clipPath2); fill:rgb(0,144,188); stroke:none;" width="22" x="186" y="56" /><rect height="22" style="clip-path:url(#clipPath2); fill:none; stroke:black;" width="22" x="186" y="56" /><rect height="22" style="fill:none; stroke:black;" width="22" x="186" y="56" /></g><g ID="l-1:3,4" style="text-rendering:optimizeSpeed;"><polygon points=" 145 67 93 93" style="fill:none;" /></g><g ID="l-1:3,5" style="text-rendering:optimizeSpeed;"><polygon points=" 145 67 93 41" style="fill:none;" /></g><g ID="r-1:3" style="fill:white; text-rendering:optimizeSpeed; stroke:white;" wurcs_mono_id="3"><circle cx="145" cy="67" r="11" style="clip-path:url(#clipPath3); stroke:none;" /><rect height="22" style="clip-path:url(#clipPath3); fill:rgb(0,166,81); stroke:none;" width="22" x="134" y="56" /><rect height="22" style="clip-path:url(#clipPath3); fill:none; stroke:black;" width="22" x="134" y="56" /><circle cx="145" cy="67" r="11" style="fill:none; stroke:black;" /></g><g ID="l-1:4,6" style="text-rendering:optimizeSpeed;"><polygon points=" 93 93 41 93" style="fill:none;" /></g><g ID="r-1:4" style="fill:white; text-rendering:optimizeSpeed; stroke:white;" wurcs_mono_id="4"><circle cx="93" cy="93" r="11" style="clip-path:url(#clipPath4); stroke:none;" /><rect height="22" style="clip-path:url(#clipPath4); fill:rgb(0,166,81); stroke:none;" width="22" x="82" y="82" /><rect height="22" style="clip-path:url(#clipPath4); fill:none; stroke:black;" width="22" x="82" y="82" /><circle cx="93" cy="93" r="11" style="fill:none; stroke:black;" /></g><g ID="r-1:6" style="fill:white; text-rendering:optimizeSpeed; stroke:white;" wurcs_mono_id="5"><rect height="22" style="clip-path:url(#clipPath5); stroke:none;" width="22" x="30" y="82" /><rect height="22" style="clip-path:url(#clipPath5); fill:rgb(0,144,188); stroke:none;" width="22" x="30" y="82" /><rect height="22" style="clip-path:url(#clipPath5); fill:none; stroke:black;" width="22" x="30" y="82" /><rect height="22" style="fill:none; stroke:black;" width="22" x="30" y="82" /></g><g ID="li-1:4,6" style="fill:white; text-rendering:optimizeSpeed; font-family:'Serif'; stroke:white;"><rect height="11" style="stroke:none;" width="20" x="64" y="95" /><path d="M65.5312 99.3438 L64.875 99.3438 L64.875 97.7812 Q65.5 97.4375 66.1406 97.2656 Q66.7812 97.0938 67.3906 97.0938 Q68.75 97.0938 69.5391 97.7578 Q70.3281 98.4219 70.3281 99.5469 Q70.3281 100.8438 68.5469 102.625 Q68.4062 102.7656 68.3281 102.8281 L66.125 105.0312 L69.7656 105.0312 L69.7656 103.9531 L70.4531 103.9531 L70.4531 106 L64.8125 106 L64.8125 105.3594 L67.4688 102.7188 Q68.3438 101.8281 68.7188 101.0938 Q69.0938 100.3594 69.0938 99.5469 Q69.0938 98.6719 68.6328 98.1719 Q68.1719 97.6719 67.375 97.6719 Q66.5312 97.6719 66.0781 98.0859 Q65.625 98.5 65.5312 99.3438 ZM74.7441 97.25 L75.6816 97.25 L72.5723 107.1094 L71.6348 107.1094 L74.7441 97.25 ZM79.8652 103.0312 L79.8652 98.375 L76.8809 103.0312 L79.8652 103.0312 ZM82.4434 106 L78.459 106 L78.459 105.375 L79.8652 105.375 L79.8652 103.6562 L76.0527 103.6562 L76.0527 103.0156 L79.8809 97.0938 L81.0371 97.0938 L81.0371 103.0312 L82.709 103.0312 L82.709 103.6562 L81.0371 103.6562 L81.0371 105.375 L82.4434 105.375 L82.4434 106 Z" style="fill:black; stroke:none;" /><rect height="13" style="stroke:none;" width="7" x="56" y="94" /><path d="M57.8281 106.25 Q58.2969 106.5938 59.1719 106.5938 Q60.0625 106.5938 60.5781 106.0703 Q61.0938 105.5469 61.0938 104.6562 Q61.0938 103.4219 60.5625 102.8906 Q60.0156 102.3594 59 102.3594 L58.4375 102.3594 L58.4375 101.7188 L58.7344 101.7188 Q59.4844 101.7188 60 101.2969 Q60.4219 100.9531 60.4219 100.0156 Q60.4219 99.6094 60.1406 99.1406 Q59.6875 98.375 59.1562 98.3906 Q57.8281 98.4375 57.8281 100.7812 L57.8281 106.25 ZM56.75 109.5 L56.75 100.7812 Q56.75 98.3281 58.0781 98 Q58.7656 97.8125 59.25 97.8125 Q60.3438 97.8125 61.0469 98.6719 Q61.6094 99.3594 61.6094 99.9375 Q61.6094 100.7812 61.2031 101.2656 Q60.7969 101.75 60.0625 101.9844 Q61.1406 102.1406 61.75 102.7812 Q62.3281 103.4062 62.3281 104.6328 Q62.3281 105.8594 61.5078 106.5156 Q60.6875 107.1719 59.1406 107.1719 Q58.1875 107.1719 57.8281 107.0312 L57.8281 109.5 L56.75 109.5 Z" style="fill:black; stroke:none;" /></g><g ID="l-1:5,7" style="text-rendering:optimizeSpeed;"><polygon points=" 93 41 41 41" style="fill:none;" /></g><g ID="r-1:5" style="fill:white; text-rendering:optimizeSpeed; stroke:white;" wurcs_mono_id="6"><circle cx="93" cy="41" r="11" style="clip-path:url(#clipPath6); stroke:none;" /><rect height="22" style="clip-path:url(#clipPath6); fill:rgb(0,166,81); stroke:none;" width="22" x="82" y="30" /><rect height="22" style="clip-path:url(#clipPath6); fill:none; stroke:black;" width="22" x="82" y="30" /><circle cx="93" cy="41" r="11" style="fill:none; stroke:black;" /></g><g ID="r-1:7" style="fill:white; text-rendering:optimizeSpeed; stroke:white;" wurcs_mono_id="7"><rect height="22" style="clip-path:url(#clipPath7); stroke:none;" width="22" x="30" y="30" /><rect height="22" style="clip-path:url(#clipPath7); fill:rgb(0,144,188); stroke:none;" width="22" x="30" y="30" /><rect height="22" style="clip-path:url(#clipPath7); fill:none; stroke:black;" width="22" x="30" y="30" /><rect height="22" style="fill:none; stroke:black;" width="22" x="30" y="30" /></g><g ID="li-1:5,7" style="fill:white; text-rendering:optimizeSpeed; font-family:'Serif'; stroke:white;"><rect height="10" style="stroke:none;" width="7" x="70" y="44" /><path d="M73.9219 53.5938 Q74.75 53.5938 75.1953 52.9844 Q75.6406 52.375 75.6406 51.2344 Q75.6406 50.1094 75.1953 49.5 Q74.75 48.8906 73.9219 48.8906 Q73.0938 48.8906 72.6484 49.4766 Q72.2031 50.0625 72.2031 51.1719 Q72.2031 52.3281 72.6484 52.9609 Q73.0938 53.5938 73.9219 53.5938 ZM72.0156 49.1875 Q72.4219 48.75 72.9219 48.5312 Q73.4219 48.3125 74.0625 48.3125 Q75.3594 48.3125 76.1172 49.0938 Q76.875 49.875 76.875 51.2344 Q76.875 52.5625 76.0625 53.3672 Q75.25 54.1719 73.875 54.1719 Q72.3906 54.1719 71.5938 53.0625 Q70.7969 51.9531 70.7969 49.9062 Q70.7969 47.6094 71.7422 46.3516 Q72.6875 45.0938 74.4062 45.0938 Q74.875 45.0938 75.3828 45.1797 Q75.8906 45.2656 76.4219 45.4375 L76.4219 46.8906 L75.7656 46.8906 Q75.6875 46.2969 75.3047 45.9844 Q74.9219 45.6719 74.2812 45.6719 Q73.1406 45.6719 72.5859 46.5312 Q72.0312 47.3906 72.0156 49.1875 Z" style="fill:black; stroke:none;" /><rect height="13" style="stroke:none;" width="7" x="56" y="42" /><path d="M57.8281 54.25 Q58.2969 54.5938 59.1719 54.5938 Q60.0625 54.5938 60.5781 54.0703 Q61.0938 53.5469 61.0938 52.6562 Q61.0938 51.4219 60.5625 50.8906 Q60.0156 50.3594 59 50.3594 L58.4375 50.3594 L58.4375 49.7188 L58.7344 49.7188 Q59.4844 49.7188 60 49.2969 Q60.4219 48.9531 60.4219 48.0156 Q60.4219 47.6094 60.1406 47.1406 Q59.6875 46.375 59.1562 46.3906 Q57.8281 46.4375 57.8281 48.7812 L57.8281 54.25 ZM56.75 57.5 L56.75 48.7812 Q56.75 46.3281 58.0781 46 Q58.7656 45.8125 59.25 45.8125 Q60.3438 45.8125 61.0469 46.6719 Q61.6094 47.3594 61.6094 47.9375 Q61.6094 48.7812 61.2031 49.2656 Q60.7969 49.75 60.0625 49.9844 Q61.1406 50.1406 61.75 50.7812 Q62.3281 51.4062 62.3281 52.6328 Q62.3281 53.8594 61.5078 54.5156 Q60.6875 55.1719 59.1406 55.1719 Q58.1875 55.1719 57.8281 55.0312 L57.8281 57.5 L56.75 57.5 Z" style="fill:black; stroke:none;" /></g><g ID="li-1:3,4" style="fill:white; text-rendering:optimizeSpeed; font-family:'Serif'; stroke:white;"><rect height="10" style="stroke:none;" width="7" x="126" y="78" /><path d="M127.1719 79.625 Q127.8594 79.3594 128.4844 79.2266 Q129.1094 79.0938 129.6562 79.0938 Q130.9531 79.0938 131.6719 79.6484 Q132.3906 80.2031 132.3906 81.1875 Q132.3906 81.9688 131.8906 82.5 Q131.3906 83.0312 130.4844 83.2188 Q131.5625 83.375 132.1562 84.0078 Q132.75 84.6406 132.75 85.6406 Q132.75 86.8594 131.9219 87.5156 Q131.0938 88.1719 129.5469 88.1719 Q128.8594 88.1719 128.2109 88.0234 Q127.5625 87.875 126.9219 87.5781 L126.9219 85.875 L127.5781 85.875 Q127.625 86.7188 128.1406 87.1562 Q128.6562 87.5938 129.5781 87.5938 Q130.4688 87.5938 130.9922 87.0703 Q131.5156 86.5469 131.5156 85.6562 Q131.5156 84.625 130.9766 84.0938 Q130.4375 83.5625 129.4062 83.5625 L128.8594 83.5625 L128.8594 82.9531 L129.1406 82.9531 Q130.1719 82.9531 130.6875 82.5312 Q131.2031 82.1094 131.2031 81.25 Q131.2031 80.4844 130.7812 80.0781 Q130.3594 79.6719 129.5625 79.6719 Q128.7656 79.6719 128.3359 80.0469 Q127.9062 80.4219 127.8281 81.1562 L127.1719 81.1562 L127.1719 79.625 Z" style="fill:black; stroke:none;" /><rect height="8" style="stroke:none;" width="8" x="110" y="87" /><path d="M115.1875 93.4688 L114.9531 94.1094 Q114.7656 94.625 114.2031 94.9375 Q113.8438 95.1562 113.2031 95.1406 Q112.0469 95.1406 111.3281 94.2344 Q110.5938 93.3281 110.5938 91.8594 Q110.5938 90.4219 111.3281 89.4844 Q112.0156 88.5938 113.4531 88.6094 Q114.4531 88.6094 114.9531 89 Q115.4062 89.3438 115.5781 90.0938 L115.625 90.3125 L115.8438 89.6719 Q116.0625 89.0469 116.6562 88.75 L117.25 88.75 L117.25 89.0938 Q116.6875 89.2656 116.5 89.8125 L115.8906 91.4844 L116.2969 93.2812 Q116.5 94.2031 116.7344 94.2969 Q117.0469 94.4375 117.7812 94 L117.7812 94.7188 Q116.5938 95.4062 115.75 94.6875 Q115.375 94.3594 115.2656 93.875 L115.1875 93.4688 ZM114.9219 92.3125 L114.5625 90.5938 Q114.2656 89.2188 113.4688 89.2188 Q112.7969 89.2031 112.2812 89.9375 Q111.8594 90.5156 111.8594 91.875 Q111.8594 93.1719 112.2812 93.8281 Q112.75 94.5469 113.5312 94.5 Q114.2031 94.4375 114.6875 93 L114.9219 92.3125 Z" style="fill:black; stroke:none;" /></g><g ID="li-1:3,5" style="fill:white; text-rendering:optimizeSpeed; font-family:'Serif'; stroke:white;"><rect height="10" style="stroke:none;" width="7" x="119" y="60" /><path d="M122.9219 69.5938 Q123.75 69.5938 124.1953 68.9844 Q124.6406 68.375 124.6406 67.2344 Q124.6406 66.1094 124.1953 65.5 Q123.75 64.8906 122.9219 64.8906 Q122.0938 64.8906 121.6484 65.4766 Q121.2031 66.0625 121.2031 67.1719 Q121.2031 68.3281 121.6484 68.9609 Q122.0938 69.5938 122.9219 69.5938 ZM121.0156 65.1875 Q121.4219 64.75 121.9219 64.5312 Q122.4219 64.3125 123.0625 64.3125 Q124.3594 64.3125 125.1172 65.0938 Q125.875 65.875 125.875 67.2344 Q125.875 68.5625 125.0625 69.3672 Q124.25 70.1719 122.875 70.1719 Q121.3906 70.1719 120.5938 69.0625 Q119.7969 67.9531 119.7969 65.9062 Q119.7969 63.6094 120.7422 62.3516 Q121.6875 61.0938 123.4062 61.0938 Q123.875 61.0938 124.3828 61.1797 Q124.8906 61.2656 125.4219 61.4375 L125.4219 62.8906 L124.7656 62.8906 Q124.6875 62.2969 124.3047 61.9844 Q123.9219 61.6719 123.2812 61.6719 Q122.1406 61.6719 121.5859 62.5312 Q121.0312 63.3906 121.0156 65.1875 Z" style="fill:black; stroke:none;" /><rect height="8" style="stroke:none;" width="8" x="103" y="53" /><path d="M108.1875 59.4688 L107.9531 60.1094 Q107.7656 60.625 107.2031 60.9375 Q106.8438 61.1562 106.2031 61.1406 Q105.0469 61.1406 104.3281 60.2344 Q103.5938 59.3281 103.5938 57.8594 Q103.5938 56.4219 104.3281 55.4844 Q105.0156 54.5938 106.4531 54.6094 Q107.4531 54.6094 107.9531 55 Q108.4062 55.3438 108.5781 56.0938 L108.625 56.3125 L108.8438 55.6719 Q109.0625 55.0469 109.6562 54.75 L110.25 54.75 L110.25 55.0938 Q109.6875 55.2656 109.5 55.8125 L108.8906 57.4844 L109.2969 59.2812 Q109.5 60.2031 109.7344 60.2969 Q110.0469 60.4375 110.7812 60 L110.7812 60.7188 Q109.5938 61.4062 108.75 60.6875 Q108.375 60.3594 108.2656 59.875 L108.1875 59.4688 ZM107.9219 58.3125 L107.5625 56.5938 Q107.2656 55.2188 106.4688 55.2188 Q105.7969 55.2031 105.2812 55.9375 Q104.8594 56.5156 104.8594 57.875 Q104.8594 59.1719 105.2812 59.8281 Q105.75 60.5469 106.5312 60.5 Q107.2031 60.4375 107.6875 59 L107.9219 58.3125 Z" style="fill:black; stroke:none;" /></g><g ID="li-1:2,3" style="fill:white; text-rendering:optimizeSpeed; font-family:'Serif'; stroke:white;"><rect height="9" style="stroke:none;" width="8" x="174" y="70" /><path d="M178.1875 76.0312 L178.1875 71.375 L175.2031 76.0312 L178.1875 76.0312 ZM180.7656 79 L176.7812 79 L176.7812 78.375 L178.1875 78.375 L178.1875 76.6562 L174.375 76.6562 L174.375 76.0156 L178.2031 70.0938 L179.3594 70.0938 L179.3594 76.0312 L181.0312 76.0312 L181.0312 76.6562 L179.3594 76.6562 L179.3594 78.375 L180.7656 78.375 L180.7656 79 Z" style="fill:black; stroke:none;" /><rect height="13" style="stroke:none;" width="7" x="160" y="68" /><path d="M161.8281 80.25 Q162.2969 80.5938 163.1719 80.5938 Q164.0625 80.5938 164.5781 80.0703 Q165.0938 79.5469 165.0938 78.6562 Q165.0938 77.4219 164.5625 76.8906 Q164.0156 76.3594 163 76.3594 L162.4375 76.3594 L162.4375 75.7188 L162.7344 75.7188 Q163.4844 75.7188 164 75.2969 Q164.4219 74.9531 164.4219 74.0156 Q164.4219 73.6094 164.1406 73.1406 Q163.6875 72.375 163.1562 72.3906 Q161.8281 72.4375 161.8281 74.7812 L161.8281 80.25 ZM160.75 83.5 L160.75 74.7812 Q160.75 72.3281 162.0781 72 Q162.7656 71.8125 163.25 71.8125 Q164.3438 71.8125 165.0469 72.6719 Q165.6094 73.3594 165.6094 73.9375 Q165.6094 74.7812 165.2031 75.2656 Q164.7969 75.75 164.0625 75.9844 Q165.1406 76.1406 165.75 76.7812 Q166.3281 77.4062 166.3281 78.6328 Q166.3281 79.8594 165.5078 80.5156 Q164.6875 81.1719 163.1406 81.1719 Q162.1875 81.1719 161.8281 81.0312 L161.8281 83.5 L160.75 83.5 Z" style="fill:black; stroke:none;" /></g><g ID="li-1:1,2" style="fill:white; text-rendering:optimizeSpeed; font-family:'Serif'; stroke:white;"><rect height="9" style="stroke:none;" width="8" x="226" y="70" /><path d="M230.1875 76.0312 L230.1875 71.375 L227.2031 76.0312 L230.1875 76.0312 ZM232.7656 79 L228.7812 79 L228.7812 78.375 L230.1875 78.375 L230.1875 76.6562 L226.375 76.6562 L226.375 76.0156 L230.2031 70.0938 L231.3594 70.0938 L231.3594 76.0312 L233.0312 76.0312 L233.0312 76.6562 L231.3594 76.6562 L231.3594 78.375 L232.7656 78.375 L232.7656 79 Z" style="fill:black; stroke:none;" /><rect height="13" style="stroke:none;" width="7" x="212" y="68" /><path d="M213.8281 80.25 Q214.2969 80.5938 215.1719 80.5938 Q216.0625 80.5938 216.5781 80.0703 Q217.0938 79.5469 217.0938 78.6562 Q217.0938 77.4219 216.5625 76.8906 Q216.0156 76.3594 215 76.3594 L214.4375 76.3594 L214.4375 75.7188 L214.7344 75.7188 Q215.4844 75.7188 216 75.2969 Q216.4219 74.9531 216.4219 74.0156 Q216.4219 73.6094 216.1406 73.1406 Q215.6875 72.375 215.1562 72.3906 Q213.8281 72.4375 213.8281 74.7812 L213.8281 80.25 ZM212.75 83.5 L212.75 74.7812 Q212.75 72.3281 214.0781 72 Q214.7656 71.8125 215.25 71.8125 Q216.3438 71.8125 217.0469 72.6719 Q217.6094 73.3594 217.6094 73.9375 Q217.6094 74.7812 217.2031 75.2656 Q216.7969 75.75 216.0625 75.9844 Q217.1406 76.1406 217.75 76.7812 Q218.3281 77.4062 218.3281 78.6328 Q218.3281 79.8594 217.5078 80.5156 Q216.6875 81.1719 215.1406 81.1719 Q214.1875 81.1719 213.8281 81.0312 L213.8281 83.5 L212.75 83.5 Z" style="fill:black; stroke:none;" /></g></g></svg>