<svg xmlns="http://www.w3.org/2000/svg" style="fill-opacity:1; color-rendering:auto; color-interpolation:auto; text-rendering:auto; stroke:black; stroke-linecap:square; stroke-miterlimit:10; shape-rendering:auto; stroke-opacity:1; fill:black; stroke-dasharray:none; font-weight:normal; stroke-width:1; font-family:'Dialog'; font-style:normal; stroke-linejoin:miter; font-size:12px; stroke-dashoffset:0; image-rendering:auto;"><defs id="genericDefs" /><g><defs id="defs1"><clipPath clipPathUnits="userSpaceOnUse" id="clipPath1"><path d="M342 225 L364 225 L364 247 L342 247 L342 225 Z" /></clipPath><clipPath clipPathUnits="userSpaceOnUse" id="clipPath2"><path d="M290 225 L312 225 L312 247 L290 247 L290 225 Z" /></clipPath><clipPath clipPathUnits="userSpaceOnUse" id="clipPath3"><path d="M260 236 C260 242.0751 255.0751 247 249 247 C242.9249 247 238 242.0751 238 236 C238 229.9249 242.9249 225 249 225 C255.0751 225 260 229.9249 260 236 Z" /></clipPath><clipPath clipPathUnits="userSpaceOnUse" id="clipPath4"><path d="M208 327 C208 333.0751 203.0751 338 197 338 C190.9249 338 186 333.0751 186 327 C186 320.9249 190.9249 316 197 316 C203.0751 316 208 320.9249 208 327 Z" /></clipPath><clipPath clipPathUnits="userSpaceOnUse" id="clipPath5"><path d="M134 342 L156 342 L156 364 L134 364 L134 342 Z" /></clipPath><clipPath clipPathUnits="userSpaceOnUse" id="clipPath6"><path d="M104 353 C104 359.0751 99.0751 364 93 364 C86.9249 364 82 359.0751 82 353 C82 346.9249 86.9249 342 93 342 C99.0751 342 104 346.9249 104 353 Z" /></clipPath><clipPath clipPathUnits="userSpaceOnUse" id="clipPath7"><path d="M41 342 L52 353 L41 364 L30 353 Z" style="fill-rule:evenodd;" /></clipPath><clipPath clipPathUnits="userSpaceOnUse" id="clipPath8"><path d="M134 290 L156 290 L156 312 L134 312 L134 290 Z" /></clipPath><clipPath clipPathUnits="userSpaceOnUse" id="clipPath9"><path d="M145 260 L134 238 L156 238 Z" style="fill-rule:evenodd;" /></clipPath><clipPath clipPathUnits="userSpaceOnUse" id="clipPath10"><path d="M104 301 C104 307.0751 99.0751 312 93 312 C86.9249 312 82 307.0751 82 301 C82 294.9249 86.9249 290 93 290 C99.0751 290 104 294.9249 104 301 Z" /></clipPath><clipPath clipPathUnits="userSpaceOnUse" id="clipPath11"><path d="M208 145 C208 151.0751 203.0751 156 197 156 C190.9249 156 186 151.0751 186 145 C186 138.9249 190.9249 134 197 134 C203.0751 134 208 138.9249 208 145 Z" /></clipPath><clipPath clipPathUnits="userSpaceOnUse" id="clipPath12"><path d="M134 186 L156 186 L156 208 L134 208 L134 186 Z" /></clipPath><clipPath clipPathUnits="userSpaceOnUse" id="clipPath13"><path d="M145 156 L134 134 L156 134 Z" style="fill-rule:evenodd;" /></clipPath><clipPath clipPathUnits="userSpaceOnUse" id="clipPath14"><path d="M104 197 C104 203.0751 99.0751 208 93 208 C86.9249 208 82 203.0751 82 197 C82 190.9249 86.9249 186 93 186 C99.0751 186 104 190.9249 104 197 Z" /></clipPath><clipPath clipPathUnits="userSpaceOnUse" id="clipPath15"><path d="M134 82 L156 82 L156 104 L134 104 L134 82 Z" /></clipPath><clipPath clipPathUnits="userSpaceOnUse" id="clipPath16"><path d="M145 52 L134 30 L156 30 Z" style="fill-rule:evenodd;" /></clipPath><clipPath clipPathUnits="userSpaceOnUse" id="clipPath17"><path d="M104 93 C104 99.0751 99.0751 104 93 104 C86.9249 104 82 99.0751 82 93 C82 86.9249 86.9249 82 93 82 C99.0751 82 104 86.9249 104 93 Z" /></clipPath><clipPath clipPathUnits="userSpaceOnUse" id="clipPath18"><path d="M353 195 L342 173 L364 173 Z" style="fill-rule:evenodd;" /></clipPath></defs><g style="fill:white; text-rendering:optimizeSpeed; stroke:white;"><rect height="394" style="stroke:none;" width="394" x="0" y="0" /></g><g ID="l-1:1,2" style="text-rendering:optimizeSpeed;"><polygon points=" 353 236 301 236" style="fill:none;" /></g><g ID="l-1:1,3" style="text-rendering:optimizeSpeed;"><polygon points=" 353 236 353 184" style="fill:none;" /></g><g ID="r-1:1" style="fill:white; text-rendering:optimizeSpeed; stroke:white;" wurcs_mono_id="1"><rect height="22" style="clip-path:url(#clipPath1); stroke:none;" width="22" x="342" y="225" /><rect height="22" style="clip-path:url(#clipPath1); fill:rgb(0,144,188); stroke:none;" width="22" x="342" y="225" /><rect height="22" style="clip-path:url(#clipPath1); fill:none; stroke:black;" width="22" x="342" y="225" /><rect height="22" style="fill:none; stroke:black;" width="22" x="342" y="225" /></g><g style="font-style:italic; text-rendering:optimizeSpeed; font-size:10px; font-family:'SansSerif';"><path d="M354.0938 233.1562 Q353.375 233.1562 352.8359 233.7188 Q352.2969 234.2812 352.0781 235.2656 Q351.875 236.25 352.1719 236.8125 Q352.4688 237.375 353.2031 237.375 Q353.9219 237.375 354.4609 236.8125 Q355 236.25 355.2031 235.2656 Q355.4062 234.2969 355.1094 233.7266 Q354.8125 233.1562 354.0938 233.1562 ZM354.25 232.4062 Q355.4219 232.4062 355.9297 233.1641 Q356.4375 233.9219 356.1562 235.2656 Q355.875 236.6094 355.0391 237.375 Q354.2031 238.1406 353.0312 238.1406 Q351.8594 238.1406 351.3516 237.375 Q350.8438 236.6094 351.125 235.2656 Q351.4062 233.9219 352.2422 233.1641 Q353.0781 232.4062 354.25 232.4062 Z" style="stroke:none;" /></g><g ID="l-1:2,4" style="text-rendering:optimizeSpeed;"><polygon points=" 301 236 249 236" style="fill:none;" /></g><g ID="r-1:2" style="fill:white; text-rendering:optimizeSpeed; stroke:white;" wurcs_mono_id="2"><rect height="22" style="clip-path:url(#clipPath2); stroke:none;" width="22" x="290" y="225" /><rect height="22" style="clip-path:url(#clipPath2); fill:rgb(0,144,188); stroke:none;" width="22" x="290" y="225" /><rect height="22" style="clip-path:url(#clipPath2); fill:none; stroke:black;" width="22" x="290" y="225" /><rect height="22" style="fill:none; stroke:black;" width="22" x="290" y="225" /></g><g ID="l-1:4,5" style="text-rendering:optimizeSpeed;"><polygon points=" 249 236 197 327" style="fill:none;" /></g><g ID="l-1:4,6" style="text-rendering:optimizeSpeed;"><polygon points=" 249 236 197 145" style="fill:none;" /></g><g ID="r-1:4" style="fill:white; text-rendering:optimizeSpeed; stroke:white;" wurcs_mono_id="3"><circle cx="249" cy="236" r="11" style="clip-path:url(#clipPath3); stroke:none;" /><rect height="22" style="clip-path:url(#clipPath3); fill:rgb(0,166,81); stroke:none;" width="22" x="238" y="225" /><rect height="22" style="clip-path:url(#clipPath3); fill:none; stroke:black;" width="22" x="238" y="225" /><circle cx="249" cy="236" r="11" style="fill:none; stroke:black;" /></g><g ID="l-1:5,7" style="text-rendering:optimizeSpeed;"><polygon points=" 197 327 145 353" style="fill:none;" /></g><g ID="l-1:5,8" style="text-rendering:optimizeSpeed;"><polygon points=" 197 327 145 301" style="fill:none;" /></g><g ID="r-1:5" style="fill:white; text-rendering:optimizeSpeed; stroke:white;" wurcs_mono_id="4"><circle cx="197" cy="327" r="11" style="clip-path:url(#clipPath4); stroke:none;" /><rect height="22" style="clip-path:url(#clipPath4); fill:rgb(0,166,81); stroke:none;" width="22" x="186" y="316" /><rect height="22" style="clip-path:url(#clipPath4); fill:none; stroke:black;" width="22" x="186" y="316" /><circle cx="197" cy="327" r="11" style="fill:none; stroke:black;" /></g><g ID="l-1:7,9" style="text-rendering:optimizeSpeed;"><polygon points=" 145 353 93 353" style="fill:none;" /></g><g ID="r-1:7" style="fill:white; text-rendering:optimizeSpeed; stroke:white;" wurcs_mono_id="5"><rect height="22" style="clip-path:url(#clipPath5); stroke:none;" width="22" x="134" y="342" /><rect height="22" style="clip-path:url(#clipPath5); fill:rgb(0,144,188); stroke:none;" width="22" x="134" y="342" /><rect height="22" style="clip-path:url(#clipPath5); fill:none; stroke:black;" width="22" x="134" y="342" /><rect height="22" style="fill:none; stroke:black;" width="22" x="134" y="342" /></g><g ID="l-1:9,10" style="text-rendering:optimizeSpeed;"><polygon points=" 93 353 41 353" style="fill:none;" /></g><g ID="r-1:9" style="fill:white; text-rendering:optimizeSpeed; stroke:white;" wurcs_mono_id="6"><circle cx="93" cy="353" r="11" style="clip-path:url(#clipPath6); stroke:none;" /><rect height="22" style="clip-path:url(#clipPath6); fill:rgb(255,212,0); stroke:none;" width="22" x="82" y="342" /><rect height="22" style="clip-path:url(#clipPath6); fill:none; stroke:black;" width="22" x="82" y="342" /><circle cx="93" cy="353" r="11" style="fill:none; stroke:black;" /></g><g ID="r-1:10" style="fill:white; text-rendering:optimizeSpeed; stroke:white;" wurcs_mono_id="7"><polygon points=" 41 342 52 353 41 364 30 353" style="stroke:none; clip-path:url(#clipPath7);" /><rect height="22" style="clip-path:url(#clipPath7); fill:rgb(165,67,153); stroke:none;" width="22" x="30" y="342" /><rect height="22" style="clip-path:url(#clipPath7); fill:none; stroke:black;" width="22" x="30" y="342" /><polygon points=" 41 342 52 353 41 364 30 353" style="fill:none; stroke:black;" /></g><g ID="li-1:9,10" style="fill:white; text-rendering:optimizeSpeed; font-family:'Serif'; stroke:white;"><rect height="10" style="stroke:none;" width="6" x="71" y="356" /><path d="M73.1094 365.3906 Q73.1094 365.0625 73.3359 364.8359 Q73.5625 364.6094 73.8906 364.6094 Q74.2188 364.6094 74.4453 364.8359 Q74.6719 365.0625 74.6719 365.3906 Q74.6719 365.7188 74.4453 365.9453 Q74.2188 366.1719 73.8906 366.1719 Q73.5625 366.1719 73.3359 365.9453 Q73.1094 365.7188 73.1094 365.3906 ZM71.8125 357.6406 Q72.4375 357.3594 73 357.2266 Q73.5625 357.0938 74.0469 357.0938 Q75.3438 357.0938 76.1016 357.7188 Q76.8594 358.3438 76.8594 359.4062 Q76.8594 360.5 76.2109 361.1953 Q75.5625 361.8906 74.25 362.1875 L74.25 363.6719 L73.5312 363.6719 L73.5312 361.75 Q74.5625 361.5 75.0938 360.9062 Q75.625 360.3125 75.625 359.4062 Q75.625 358.5938 75.1953 358.1328 Q74.7656 357.6719 74.0312 357.6719 Q73.3594 357.6719 72.9297 358.0547 Q72.5 358.4375 72.3906 359.1562 L71.8125 359.1562 L71.8125 357.6406 Z" style="fill:black; stroke:none;" /><rect height="10" style="stroke:none;" width="6" x="57" y="356" /><path d="M59.1094 365.3906 Q59.1094 365.0625 59.3359 364.8359 Q59.5625 364.6094 59.8906 364.6094 Q60.2188 364.6094 60.4453 364.8359 Q60.6719 365.0625 60.6719 365.3906 Q60.6719 365.7188 60.4453 365.9453 Q60.2188 366.1719 59.8906 366.1719 Q59.5625 366.1719 59.3359 365.9453 Q59.1094 365.7188 59.1094 365.3906 ZM57.8125 357.6406 Q58.4375 357.3594 59 357.2266 Q59.5625 357.0938 60.0469 357.0938 Q61.3438 357.0938 62.1016 357.7188 Q62.8594 358.3438 62.8594 359.4062 Q62.8594 360.5 62.2109 361.1953 Q61.5625 361.8906 60.25 362.1875 L60.25 363.6719 L59.5312 363.6719 L59.5312 361.75 Q60.5625 361.5 61.0938 360.9062 Q61.625 360.3125 61.625 359.4062 Q61.625 358.5938 61.1953 358.1328 Q60.7656 357.6719 60.0312 357.6719 Q59.3594 357.6719 58.9297 358.0547 Q58.5 358.4375 58.3906 359.1562 L57.8125 359.1562 L57.8125 357.6406 Z" style="fill:black; stroke:none;" /></g><g ID="li-1:7,9" style="fill:white; text-rendering:optimizeSpeed; font-family:'Serif'; stroke:white;"><rect height="10" style="stroke:none;" width="6" x="123" y="356" /><path d="M125.1094 365.3906 Q125.1094 365.0625 125.3359 364.8359 Q125.5625 364.6094 125.8906 364.6094 Q126.2188 364.6094 126.4453 364.8359 Q126.6719 365.0625 126.6719 365.3906 Q126.6719 365.7188 126.4453 365.9453 Q126.2188 366.1719 125.8906 366.1719 Q125.5625 366.1719 125.3359 365.9453 Q125.1094 365.7188 125.1094 365.3906 ZM123.8125 357.6406 Q124.4375 357.3594 125 357.2266 Q125.5625 357.0938 126.0469 357.0938 Q127.3438 357.0938 128.1016 357.7188 Q128.8594 358.3438 128.8594 359.4062 Q128.8594 360.5 128.2109 361.1953 Q127.5625 361.8906 126.25 362.1875 L126.25 363.6719 L125.5312 363.6719 L125.5312 361.75 Q126.5625 361.5 127.0938 360.9062 Q127.625 360.3125 127.625 359.4062 Q127.625 358.5938 127.1953 358.1328 Q126.7656 357.6719 126.0312 357.6719 Q125.3594 357.6719 124.9297 358.0547 Q124.5 358.4375 124.3906 359.1562 L123.8125 359.1562 L123.8125 357.6406 Z" style="fill:black; stroke:none;" /><rect height="10" style="stroke:none;" width="6" x="109" y="356" /><path d="M111.1094 365.3906 Q111.1094 365.0625 111.3359 364.8359 Q111.5625 364.6094 111.8906 364.6094 Q112.2188 364.6094 112.4453 364.8359 Q112.6719 365.0625 112.6719 365.3906 Q112.6719 365.7188 112.4453 365.9453 Q112.2188 366.1719 111.8906 366.1719 Q111.5625 366.1719 111.3359 365.9453 Q111.1094 365.7188 111.1094 365.3906 ZM109.8125 357.6406 Q110.4375 357.3594 111 357.2266 Q111.5625 357.0938 112.0469 357.0938 Q113.3438 357.0938 114.1016 357.7188 Q114.8594 358.3438 114.8594 359.4062 Q114.8594 360.5 114.2109 361.1953 Q113.5625 361.8906 112.25 362.1875 L112.25 363.6719 L111.5312 363.6719 L111.5312 361.75 Q112.5625 361.5 113.0938 360.9062 Q113.625 360.3125 113.625 359.4062 Q113.625 358.5938 113.1953 358.1328 Q112.7656 357.6719 112.0312 357.6719 Q111.3594 357.6719 110.9297 358.0547 Q110.5 358.4375 110.3906 359.1562 L109.8125 359.1562 L109.8125 357.6406 Z" style="fill:black; stroke:none;" /></g><g ID="l-1:8,11" style="text-rendering:optimizeSpeed;"><polygon points=" 145 301 145 249" style="fill:none;" /></g><g ID="l-1:8,12" style="text-rendering:optimizeSpeed;"><polygon points=" 145 301 93 301" style="fill:none;" /></g><g ID="r-1:8" style="fill:white; text-rendering:optimizeSpeed; stroke:white;" wurcs_mono_id="8"><rect height="22" style="clip-path:url(#clipPath8); stroke:none;" width="22" x="134" y="290" /><rect height="22" style="clip-path:url(#clipPath8); fill:rgb(0,144,188); stroke:none;" width="22" x="134" y="290" /><rect height="22" style="clip-path:url(#clipPath8); fill:none; stroke:black;" width="22" x="134" y="290" /><rect height="22" style="fill:none; stroke:black;" width="22" x="134" y="290" /></g><g ID="r-1:11" style="fill:white; text-rendering:optimizeSpeed; stroke:white;" wurcs_mono_id="9"><polygon points=" 145 260 134 238 156 238" style="stroke:none; clip-path:url(#clipPath9);" /><rect height="22" style="clip-path:url(#clipPath9); fill:rgb(237,28,36); stroke:none;" width="22" x="134" y="238" /><rect height="22" style="clip-path:url(#clipPath9); fill:none; stroke:black;" width="22" x="134" y="238" /><polygon points=" 145 260 134 238 156 238" style="fill:none; stroke:black;" /></g><g ID="r-1:12" style="fill:white; text-rendering:optimizeSpeed; stroke:white;" wurcs_mono_id="10"><circle cx="93" cy="301" r="11" style="clip-path:url(#clipPath10); stroke:none;" /><rect height="22" style="clip-path:url(#clipPath10); fill:rgb(255,212,0); stroke:none;" width="22" x="82" y="290" /><rect height="22" style="clip-path:url(#clipPath10); fill:none; stroke:black;" width="22" x="82" y="290" /><circle cx="93" cy="301" r="11" style="fill:none; stroke:black;" /></g><g ID="li-1:8,11" style="fill:white; text-rendering:optimizeSpeed; font-family:'Serif'; stroke:white;"><rect height="10" style="stroke:none;" width="6" x="134" y="277" /><path d="M136.1094 286.3906 Q136.1094 286.0625 136.3359 285.8359 Q136.5625 285.6094 136.8906 285.6094 Q137.2188 285.6094 137.4453 285.8359 Q137.6719 286.0625 137.6719 286.3906 Q137.6719 286.7188 137.4453 286.9453 Q137.2188 287.1719 136.8906 287.1719 Q136.5625 287.1719 136.3359 286.9453 Q136.1094 286.7188 136.1094 286.3906 ZM134.8125 278.6406 Q135.4375 278.3594 136 278.2266 Q136.5625 278.0938 137.0469 278.0938 Q138.3438 278.0938 139.1016 278.7188 Q139.8594 279.3438 139.8594 280.4062 Q139.8594 281.5 139.2109 282.1953 Q138.5625 282.8906 137.25 283.1875 L137.25 284.6719 L136.5312 284.6719 L136.5312 282.75 Q137.5625 282.5 138.0938 281.9062 Q138.625 281.3125 138.625 280.4062 Q138.625 279.5938 138.1953 279.1328 Q137.7656 278.6719 137.0312 278.6719 Q136.3594 278.6719 135.9297 279.0547 Q135.5 279.4375 135.3906 280.1562 L134.8125 280.1562 L134.8125 278.6406 Z" style="fill:black; stroke:none;" /><rect height="10" style="stroke:none;" width="6" x="134" y="263" /><path d="M136.1094 272.3906 Q136.1094 272.0625 136.3359 271.8359 Q136.5625 271.6094 136.8906 271.6094 Q137.2188 271.6094 137.4453 271.8359 Q137.6719 272.0625 137.6719 272.3906 Q137.6719 272.7188 137.4453 272.9453 Q137.2188 273.1719 136.8906 273.1719 Q136.5625 273.1719 136.3359 272.9453 Q136.1094 272.7188 136.1094 272.3906 ZM134.8125 264.6406 Q135.4375 264.3594 136 264.2266 Q136.5625 264.0938 137.0469 264.0938 Q138.3438 264.0938 139.1016 264.7188 Q139.8594 265.3438 139.8594 266.4062 Q139.8594 267.5 139.2109 268.1953 Q138.5625 268.8906 137.25 269.1875 L137.25 270.6719 L136.5312 270.6719 L136.5312 268.75 Q137.5625 268.5 138.0938 267.9062 Q138.625 267.3125 138.625 266.4062 Q138.625 265.5938 138.1953 265.1328 Q137.7656 264.6719 137.0312 264.6719 Q136.3594 264.6719 135.9297 265.0547 Q135.5 265.4375 135.3906 266.1562 L134.8125 266.1562 L134.8125 264.6406 Z" style="fill:black; stroke:none;" /></g><g ID="li-1:8,12" style="fill:white; text-rendering:optimizeSpeed; font-family:'Serif'; stroke:white;"><rect height="10" style="stroke:none;" width="6" x="123" y="304" /><path d="M125.1094 313.3906 Q125.1094 313.0625 125.3359 312.8359 Q125.5625 312.6094 125.8906 312.6094 Q126.2188 312.6094 126.4453 312.8359 Q126.6719 313.0625 126.6719 313.3906 Q126.6719 313.7188 126.4453 313.9453 Q126.2188 314.1719 125.8906 314.1719 Q125.5625 314.1719 125.3359 313.9453 Q125.1094 313.7188 125.1094 313.3906 ZM123.8125 305.6406 Q124.4375 305.3594 125 305.2266 Q125.5625 305.0938 126.0469 305.0938 Q127.3438 305.0938 128.1016 305.7188 Q128.8594 306.3438 128.8594 307.4062 Q128.8594 308.5 128.2109 309.1953 Q127.5625 309.8906 126.25 310.1875 L126.25 311.6719 L125.5312 311.6719 L125.5312 309.75 Q126.5625 309.5 127.0938 308.9062 Q127.625 308.3125 127.625 307.4062 Q127.625 306.5938 127.1953 306.1328 Q126.7656 305.6719 126.0312 305.6719 Q125.3594 305.6719 124.9297 306.0547 Q124.5 306.4375 124.3906 307.1562 L123.8125 307.1562 L123.8125 305.6406 Z" style="fill:black; stroke:none;" /><rect height="10" style="stroke:none;" width="6" x="109" y="304" /><path d="M111.1094 313.3906 Q111.1094 313.0625 111.3359 312.8359 Q111.5625 312.6094 111.8906 312.6094 Q112.2188 312.6094 112.4453 312.8359 Q112.6719 313.0625 112.6719 313.3906 Q112.6719 313.7188 112.4453 313.9453 Q112.2188 314.1719 111.8906 314.1719 Q111.5625 314.1719 111.3359 313.9453 Q111.1094 313.7188 111.1094 313.3906 ZM109.8125 305.6406 Q110.4375 305.3594 111 305.2266 Q111.5625 305.0938 112.0469 305.0938 Q113.3438 305.0938 114.1016 305.7188 Q114.8594 306.3438 114.8594 307.4062 Q114.8594 308.5 114.2109 309.1953 Q113.5625 309.8906 112.25 310.1875 L112.25 311.6719 L111.5312 311.6719 L111.5312 309.75 Q112.5625 309.5 113.0938 308.9062 Q113.625 308.3125 113.625 307.4062 Q113.625 306.5938 113.1953 306.1328 Q112.7656 305.6719 112.0312 305.6719 Q111.3594 305.6719 110.9297 306.0547 Q110.5 306.4375 110.3906 307.1562 L109.8125 307.1562 L109.8125 305.6406 Z" style="fill:black; stroke:none;" /></g><g ID="li-1:5,7" style="fill:white; text-rendering:optimizeSpeed; font-family:'Serif'; stroke:white;"><rect height="10" style="stroke:none;" width="6" x="179" y="338" /><path d="M181.1094 347.3906 Q181.1094 347.0625 181.3359 346.8359 Q181.5625 346.6094 181.8906 346.6094 Q182.2188 346.6094 182.4453 346.8359 Q182.6719 347.0625 182.6719 347.3906 Q182.6719 347.7188 182.4453 347.9453 Q182.2188 348.1719 181.8906 348.1719 Q181.5625 348.1719 181.3359 347.9453 Q181.1094 347.7188 181.1094 347.3906 ZM179.8125 339.6406 Q180.4375 339.3594 181 339.2266 Q181.5625 339.0938 182.0469 339.0938 Q183.3438 339.0938 184.1016 339.7188 Q184.8594 340.3438 184.8594 341.4062 Q184.8594 342.5 184.2109 343.1953 Q183.5625 343.8906 182.25 344.1875 L182.25 345.6719 L181.5312 345.6719 L181.5312 343.75 Q182.5625 343.5 183.0938 342.9062 Q183.625 342.3125 183.625 341.4062 Q183.625 340.5938 183.1953 340.1328 Q182.7656 339.6719 182.0312 339.6719 Q181.3594 339.6719 180.9297 340.0547 Q180.5 340.4375 180.3906 341.1562 L179.8125 341.1562 L179.8125 339.6406 Z" style="fill:black; stroke:none;" /><rect height="10" style="stroke:none;" width="6" x="163" y="346" /><path d="M165.1094 355.3906 Q165.1094 355.0625 165.3359 354.8359 Q165.5625 354.6094 165.8906 354.6094 Q166.2188 354.6094 166.4453 354.8359 Q166.6719 355.0625 166.6719 355.3906 Q166.6719 355.7188 166.4453 355.9453 Q166.2188 356.1719 165.8906 356.1719 Q165.5625 356.1719 165.3359 355.9453 Q165.1094 355.7188 165.1094 355.3906 ZM163.8125 347.6406 Q164.4375 347.3594 165 347.2266 Q165.5625 347.0938 166.0469 347.0938 Q167.3438 347.0938 168.1016 347.7188 Q168.8594 348.3438 168.8594 349.4062 Q168.8594 350.5 168.2109 351.1953 Q167.5625 351.8906 166.25 352.1875 L166.25 353.6719 L165.5312 353.6719 L165.5312 351.75 Q166.5625 351.5 167.0938 350.9062 Q167.625 350.3125 167.625 349.4062 Q167.625 348.5938 167.1953 348.1328 Q166.7656 347.6719 166.0312 347.6719 Q165.3594 347.6719 164.9297 348.0547 Q164.5 348.4375 164.3906 349.1562 L163.8125 349.1562 L163.8125 347.6406 Z" style="fill:black; stroke:none;" /></g><g ID="li-1:5,8" style="fill:white; text-rendering:optimizeSpeed; font-family:'Serif'; stroke:white;"><rect height="10" style="stroke:none;" width="6" x="172" y="320" /><path d="M174.1094 329.3906 Q174.1094 329.0625 174.3359 328.8359 Q174.5625 328.6094 174.8906 328.6094 Q175.2188 328.6094 175.4453 328.8359 Q175.6719 329.0625 175.6719 329.3906 Q175.6719 329.7188 175.4453 329.9453 Q175.2188 330.1719 174.8906 330.1719 Q174.5625 330.1719 174.3359 329.9453 Q174.1094 329.7188 174.1094 329.3906 ZM172.8125 321.6406 Q173.4375 321.3594 174 321.2266 Q174.5625 321.0938 175.0469 321.0938 Q176.3438 321.0938 177.1016 321.7188 Q177.8594 322.3438 177.8594 323.4062 Q177.8594 324.5 177.2109 325.1953 Q176.5625 325.8906 175.25 326.1875 L175.25 327.6719 L174.5312 327.6719 L174.5312 325.75 Q175.5625 325.5 176.0938 324.9062 Q176.625 324.3125 176.625 323.4062 Q176.625 322.5938 176.1953 322.1328 Q175.7656 321.6719 175.0312 321.6719 Q174.3594 321.6719 173.9297 322.0547 Q173.5 322.4375 173.3906 323.1562 L172.8125 323.1562 L172.8125 321.6406 Z" style="fill:black; stroke:none;" /><rect height="10" style="stroke:none;" width="6" x="156" y="312" /><path d="M158.1094 321.3906 Q158.1094 321.0625 158.3359 320.8359 Q158.5625 320.6094 158.8906 320.6094 Q159.2188 320.6094 159.4453 320.8359 Q159.6719 321.0625 159.6719 321.3906 Q159.6719 321.7188 159.4453 321.9453 Q159.2188 322.1719 158.8906 322.1719 Q158.5625 322.1719 158.3359 321.9453 Q158.1094 321.7188 158.1094 321.3906 ZM156.8125 313.6406 Q157.4375 313.3594 158 313.2266 Q158.5625 313.0938 159.0469 313.0938 Q160.3438 313.0938 161.1016 313.7188 Q161.8594 314.3438 161.8594 315.4062 Q161.8594 316.5 161.2109 317.1953 Q160.5625 317.8906 159.25 318.1875 L159.25 319.6719 L158.5312 319.6719 L158.5312 317.75 Q159.5625 317.5 160.0938 316.9062 Q160.625 316.3125 160.625 315.4062 Q160.625 314.5938 160.1953 314.1328 Q159.7656 313.6719 159.0312 313.6719 Q158.3594 313.6719 157.9297 314.0547 Q157.5 314.4375 157.3906 315.1562 L156.8125 315.1562 L156.8125 313.6406 Z" style="fill:black; stroke:none;" /></g><g ID="l-1:6,13" style="text-rendering:optimizeSpeed;"><polygon points=" 197 145 145 197" style="fill:none;" /></g><g ID="l-1:6,14" style="text-rendering:optimizeSpeed;"><polygon points=" 197 145 145 93" style="fill:none;" /></g><g ID="r-1:6" style="fill:white; text-rendering:optimizeSpeed; stroke:white;" wurcs_mono_id="11"><circle cx="197" cy="145" r="11" style="clip-path:url(#clipPath11); stroke:none;" /><rect height="22" style="clip-path:url(#clipPath11); fill:rgb(0,166,81); stroke:none;" width="22" x="186" y="134" /><rect height="22" style="clip-path:url(#clipPath11); fill:none; stroke:black;" width="22" x="186" y="134" /><circle cx="197" cy="145" r="11" style="fill:none; stroke:black;" /></g><g ID="l-1:13,15" style="text-rendering:optimizeSpeed;"><polygon points=" 145 197 145 145" style="fill:none;" /></g><g ID="l-1:13,16" style="text-rendering:optimizeSpeed;"><polygon points=" 145 197 93 197" style="fill:none;" /></g><g ID="r-1:13" style="fill:white; text-rendering:optimizeSpeed; stroke:white;" wurcs_mono_id="15"><rect height="22" style="clip-path:url(#clipPath12); stroke:none;" width="22" x="134" y="186" /><rect height="22" style="clip-path:url(#clipPath12); fill:rgb(0,144,188); stroke:none;" width="22" x="134" y="186" /><rect height="22" style="clip-path:url(#clipPath12); fill:none; stroke:black;" width="22" x="134" y="186" /><rect height="22" style="fill:none; stroke:black;" width="22" x="134" y="186" /></g><g ID="r-1:15" style="fill:white; text-rendering:optimizeSpeed; stroke:white;" wurcs_mono_id="16"><polygon points=" 145 156 134 134 156 134" style="stroke:none; clip-path:url(#clipPath13);" /><rect height="22" style="clip-path:url(#clipPath13); fill:rgb(237,28,36); stroke:none;" width="22" x="134" y="134" /><rect height="22" style="clip-path:url(#clipPath13); fill:none; stroke:black;" width="22" x="134" y="134" /><polygon points=" 145 156 134 134 156 134" style="fill:none; stroke:black;" /></g><g ID="r-1:16" style="fill:white; text-rendering:optimizeSpeed; stroke:white;" wurcs_mono_id="17"><circle cx="93" cy="197" r="11" style="clip-path:url(#clipPath14); stroke:none;" /><rect height="22" style="clip-path:url(#clipPath14); fill:rgb(255,212,0); stroke:none;" width="22" x="82" y="186" /><rect height="22" style="clip-path:url(#clipPath14); fill:none; stroke:black;" width="22" x="82" y="186" /><circle cx="93" cy="197" r="11" style="fill:none; stroke:black;" /></g><g ID="li-1:13,15" style="fill:white; text-rendering:optimizeSpeed; font-family:'Serif'; stroke:white;"><rect height="10" style="stroke:none;" width="6" x="134" y="173" /><path d="M136.1094 182.3906 Q136.1094 182.0625 136.3359 181.8359 Q136.5625 181.6094 136.8906 181.6094 Q137.2188 181.6094 137.4453 181.8359 Q137.6719 182.0625 137.6719 182.3906 Q137.6719 182.7188 137.4453 182.9453 Q137.2188 183.1719 136.8906 183.1719 Q136.5625 183.1719 136.3359 182.9453 Q136.1094 182.7188 136.1094 182.3906 ZM134.8125 174.6406 Q135.4375 174.3594 136 174.2266 Q136.5625 174.0938 137.0469 174.0938 Q138.3438 174.0938 139.1016 174.7188 Q139.8594 175.3438 139.8594 176.4062 Q139.8594 177.5 139.2109 178.1953 Q138.5625 178.8906 137.25 179.1875 L137.25 180.6719 L136.5312 180.6719 L136.5312 178.75 Q137.5625 178.5 138.0938 177.9062 Q138.625 177.3125 138.625 176.4062 Q138.625 175.5938 138.1953 175.1328 Q137.7656 174.6719 137.0312 174.6719 Q136.3594 174.6719 135.9297 175.0547 Q135.5 175.4375 135.3906 176.1562 L134.8125 176.1562 L134.8125 174.6406 Z" style="fill:black; stroke:none;" /><rect height="10" style="stroke:none;" width="6" x="134" y="159" /><path d="M136.1094 168.3906 Q136.1094 168.0625 136.3359 167.8359 Q136.5625 167.6094 136.8906 167.6094 Q137.2188 167.6094 137.4453 167.8359 Q137.6719 168.0625 137.6719 168.3906 Q137.6719 168.7188 137.4453 168.9453 Q137.2188 169.1719 136.8906 169.1719 Q136.5625 169.1719 136.3359 168.9453 Q136.1094 168.7188 136.1094 168.3906 ZM134.8125 160.6406 Q135.4375 160.3594 136 160.2266 Q136.5625 160.0938 137.0469 160.0938 Q138.3438 160.0938 139.1016 160.7188 Q139.8594 161.3438 139.8594 162.4062 Q139.8594 163.5 139.2109 164.1953 Q138.5625 164.8906 137.25 165.1875 L137.25 166.6719 L136.5312 166.6719 L136.5312 164.75 Q137.5625 164.5 138.0938 163.9062 Q138.625 163.3125 138.625 162.4062 Q138.625 161.5938 138.1953 161.1328 Q137.7656 160.6719 137.0312 160.6719 Q136.3594 160.6719 135.9297 161.0547 Q135.5 161.4375 135.3906 162.1562 L134.8125 162.1562 L134.8125 160.6406 Z" style="fill:black; stroke:none;" /></g><g ID="li-1:13,16" style="fill:white; text-rendering:optimizeSpeed; font-family:'Serif'; stroke:white;"><rect height="10" style="stroke:none;" width="6" x="123" y="200" /><path d="M125.1094 209.3906 Q125.1094 209.0625 125.3359 208.8359 Q125.5625 208.6094 125.8906 208.6094 Q126.2188 208.6094 126.4453 208.8359 Q126.6719 209.0625 126.6719 209.3906 Q126.6719 209.7188 126.4453 209.9453 Q126.2188 210.1719 125.8906 210.1719 Q125.5625 210.1719 125.3359 209.9453 Q125.1094 209.7188 125.1094 209.3906 ZM123.8125 201.6406 Q124.4375 201.3594 125 201.2266 Q125.5625 201.0938 126.0469 201.0938 Q127.3438 201.0938 128.1016 201.7188 Q128.8594 202.3438 128.8594 203.4062 Q128.8594 204.5 128.2109 205.1953 Q127.5625 205.8906 126.25 206.1875 L126.25 207.6719 L125.5312 207.6719 L125.5312 205.75 Q126.5625 205.5 127.0938 204.9062 Q127.625 204.3125 127.625 203.4062 Q127.625 202.5938 127.1953 202.1328 Q126.7656 201.6719 126.0312 201.6719 Q125.3594 201.6719 124.9297 202.0547 Q124.5 202.4375 124.3906 203.1562 L123.8125 203.1562 L123.8125 201.6406 Z" style="fill:black; stroke:none;" /><rect height="10" style="stroke:none;" width="6" x="109" y="200" /><path d="M111.1094 209.3906 Q111.1094 209.0625 111.3359 208.8359 Q111.5625 208.6094 111.8906 208.6094 Q112.2188 208.6094 112.4453 208.8359 Q112.6719 209.0625 112.6719 209.3906 Q112.6719 209.7188 112.4453 209.9453 Q112.2188 210.1719 111.8906 210.1719 Q111.5625 210.1719 111.3359 209.9453 Q111.1094 209.7188 111.1094 209.3906 ZM109.8125 201.6406 Q110.4375 201.3594 111 201.2266 Q111.5625 201.0938 112.0469 201.0938 Q113.3438 201.0938 114.1016 201.7188 Q114.8594 202.3438 114.8594 203.4062 Q114.8594 204.5 114.2109 205.1953 Q113.5625 205.8906 112.25 206.1875 L112.25 207.6719 L111.5312 207.6719 L111.5312 205.75 Q112.5625 205.5 113.0938 204.9062 Q113.625 204.3125 113.625 203.4062 Q113.625 202.5938 113.1953 202.1328 Q112.7656 201.6719 112.0312 201.6719 Q111.3594 201.6719 110.9297 202.0547 Q110.5 202.4375 110.3906 203.1562 L109.8125 203.1562 L109.8125 201.6406 Z" style="fill:black; stroke:none;" /></g><g ID="l-1:14,17" style="text-rendering:optimizeSpeed;"><polygon points=" 145 93 145 41" style="fill:none;" /></g><g ID="l-1:14,18" style="text-rendering:optimizeSpeed;"><polygon points=" 145 93 93 93" style="fill:none;" /></g><g ID="r-1:14" style="fill:white; text-rendering:optimizeSpeed; stroke:white;" wurcs_mono_id="12"><rect height="22" style="clip-path:url(#clipPath15); stroke:none;" width="22" x="134" y="82" /><rect height="22" style="clip-path:url(#clipPath15); fill:rgb(0,144,188); stroke:none;" width="22" x="134" y="82" /><rect height="22" style="clip-path:url(#clipPath15); fill:none; stroke:black;" width="22" x="134" y="82" /><rect height="22" style="fill:none; stroke:black;" width="22" x="134" y="82" /></g><g ID="r-1:17" style="fill:white; text-rendering:optimizeSpeed; stroke:white;" wurcs_mono_id="13"><polygon points=" 145 52 134 30 156 30" style="stroke:none; clip-path:url(#clipPath16);" /><rect height="22" style="clip-path:url(#clipPath16); fill:rgb(237,28,36); stroke:none;" width="22" x="134" y="30" /><rect height="22" style="clip-path:url(#clipPath16); fill:none; stroke:black;" width="22" x="134" y="30" /><polygon points=" 145 52 134 30 156 30" style="fill:none; stroke:black;" /></g><g ID="r-1:18" style="fill:white; text-rendering:optimizeSpeed; stroke:white;" wurcs_mono_id="14"><circle cx="93" cy="93" r="11" style="clip-path:url(#clipPath17); stroke:none;" /><rect height="22" style="clip-path:url(#clipPath17); fill:rgb(255,212,0); stroke:none;" width="22" x="82" y="82" /><rect height="22" style="clip-path:url(#clipPath17); fill:none; stroke:black;" width="22" x="82" y="82" /><circle cx="93" cy="93" r="11" style="fill:none; stroke:black;" /></g><g ID="li-1:14,17" style="fill:white; text-rendering:optimizeSpeed; font-family:'Serif'; stroke:white;"><rect height="10" style="stroke:none;" width="6" x="134" y="69" /><path d="M136.1094 78.3906 Q136.1094 78.0625 136.3359 77.8359 Q136.5625 77.6094 136.8906 77.6094 Q137.2188 77.6094 137.4453 77.8359 Q137.6719 78.0625 137.6719 78.3906 Q137.6719 78.7188 137.4453 78.9453 Q137.2188 79.1719 136.8906 79.1719 Q136.5625 79.1719 136.3359 78.9453 Q136.1094 78.7188 136.1094 78.3906 ZM134.8125 70.6406 Q135.4375 70.3594 136 70.2266 Q136.5625 70.0938 137.0469 70.0938 Q138.3438 70.0938 139.1016 70.7188 Q139.8594 71.3438 139.8594 72.4062 Q139.8594 73.5 139.2109 74.1953 Q138.5625 74.8906 137.25 75.1875 L137.25 76.6719 L136.5312 76.6719 L136.5312 74.75 Q137.5625 74.5 138.0938 73.9062 Q138.625 73.3125 138.625 72.4062 Q138.625 71.5938 138.1953 71.1328 Q137.7656 70.6719 137.0312 70.6719 Q136.3594 70.6719 135.9297 71.0547 Q135.5 71.4375 135.3906 72.1562 L134.8125 72.1562 L134.8125 70.6406 Z" style="fill:black; stroke:none;" /><rect height="10" style="stroke:none;" width="6" x="134" y="55" /><path d="M136.1094 64.3906 Q136.1094 64.0625 136.3359 63.8359 Q136.5625 63.6094 136.8906 63.6094 Q137.2188 63.6094 137.4453 63.8359 Q137.6719 64.0625 137.6719 64.3906 Q137.6719 64.7188 137.4453 64.9453 Q137.2188 65.1719 136.8906 65.1719 Q136.5625 65.1719 136.3359 64.9453 Q136.1094 64.7188 136.1094 64.3906 ZM134.8125 56.6406 Q135.4375 56.3594 136 56.2266 Q136.5625 56.0938 137.0469 56.0938 Q138.3438 56.0938 139.1016 56.7188 Q139.8594 57.3438 139.8594 58.4062 Q139.8594 59.5 139.2109 60.1953 Q138.5625 60.8906 137.25 61.1875 L137.25 62.6719 L136.5312 62.6719 L136.5312 60.75 Q137.5625 60.5 138.0938 59.9062 Q138.625 59.3125 138.625 58.4062 Q138.625 57.5938 138.1953 57.1328 Q137.7656 56.6719 137.0312 56.6719 Q136.3594 56.6719 135.9297 57.0547 Q135.5 57.4375 135.3906 58.1562 L134.8125 58.1562 L134.8125 56.6406 Z" style="fill:black; stroke:none;" /></g><g ID="li-1:14,18" style="fill:white; text-rendering:optimizeSpeed; font-family:'Serif'; stroke:white;"><rect height="10" style="stroke:none;" width="6" x="123" y="96" /><path d="M125.1094 105.3906 Q125.1094 105.0625 125.3359 104.8359 Q125.5625 104.6094 125.8906 104.6094 Q126.2188 104.6094 126.4453 104.8359 Q126.6719 105.0625 126.6719 105.3906 Q126.6719 105.7188 126.4453 105.9453 Q126.2188 106.1719 125.8906 106.1719 Q125.5625 106.1719 125.3359 105.9453 Q125.1094 105.7188 125.1094 105.3906 ZM123.8125 97.6406 Q124.4375 97.3594 125 97.2266 Q125.5625 97.0938 126.0469 97.0938 Q127.3438 97.0938 128.1016 97.7188 Q128.8594 98.3438 128.8594 99.4062 Q128.8594 100.5 128.2109 101.1953 Q127.5625 101.8906 126.25 102.1875 L126.25 103.6719 L125.5312 103.6719 L125.5312 101.75 Q126.5625 101.5 127.0938 100.9062 Q127.625 100.3125 127.625 99.4062 Q127.625 98.5938 127.1953 98.1328 Q126.7656 97.6719 126.0312 97.6719 Q125.3594 97.6719 124.9297 98.0547 Q124.5 98.4375 124.3906 99.1562 L123.8125 99.1562 L123.8125 97.6406 Z" style="fill:black; stroke:none;" /><rect height="10" style="stroke:none;" width="6" x="109" y="96" /><path d="M111.1094 105.3906 Q111.1094 105.0625 111.3359 104.8359 Q111.5625 104.6094 111.8906 104.6094 Q112.2188 104.6094 112.4453 104.8359 Q112.6719 105.0625 112.6719 105.3906 Q112.6719 105.7188 112.4453 105.9453 Q112.2188 106.1719 111.8906 106.1719 Q111.5625 106.1719 111.3359 105.9453 Q111.1094 105.7188 111.1094 105.3906 ZM109.8125 97.6406 Q110.4375 97.3594 111 97.2266 Q111.5625 97.0938 112.0469 97.0938 Q113.3438 97.0938 114.1016 97.7188 Q114.8594 98.3438 114.8594 99.4062 Q114.8594 100.5 114.2109 101.1953 Q113.5625 101.8906 112.25 102.1875 L112.25 103.6719 L111.5312 103.6719 L111.5312 101.75 Q112.5625 101.5 113.0938 100.9062 Q113.625 100.3125 113.625 99.4062 Q113.625 98.5938 113.1953 98.1328 Q112.7656 97.6719 112.0312 97.6719 Q111.3594 97.6719 110.9297 98.0547 Q110.5 98.4375 110.3906 99.1562 L109.8125 99.1562 L109.8125 97.6406 Z" style="fill:black; stroke:none;" /></g><g ID="li-1:6,13" style="fill:white; text-rendering:optimizeSpeed; font-family:'Serif'; stroke:white;"><rect height="10" style="stroke:none;" width="6" x="183" y="162" /><path d="M185.1094 171.3906 Q185.1094 171.0625 185.3359 170.8359 Q185.5625 170.6094 185.8906 170.6094 Q186.2188 170.6094 186.4453 170.8359 Q186.6719 171.0625 186.6719 171.3906 Q186.6719 171.7188 186.4453 171.9453 Q186.2188 172.1719 185.8906 172.1719 Q185.5625 172.1719 185.3359 171.9453 Q185.1094 171.7188 185.1094 171.3906 ZM183.8125 163.6406 Q184.4375 163.3594 185 163.2266 Q185.5625 163.0938 186.0469 163.0938 Q187.3438 163.0938 188.1016 163.7188 Q188.8594 164.3438 188.8594 165.4062 Q188.8594 166.5 188.2109 167.1953 Q187.5625 167.8906 186.25 168.1875 L186.25 169.6719 L185.5312 169.6719 L185.5312 167.75 Q186.5625 167.5 187.0938 166.9062 Q187.625 166.3125 187.625 165.4062 Q187.625 164.5938 187.1953 164.1328 Q186.7656 163.6719 186.0312 163.6719 Q185.3594 163.6719 184.9297 164.0547 Q184.5 164.4375 184.3906 165.1562 L183.8125 165.1562 L183.8125 163.6406 Z" style="fill:black; stroke:none;" /><rect height="10" style="stroke:none;" width="6" x="164" y="181" /><path d="M166.1094 190.3906 Q166.1094 190.0625 166.3359 189.8359 Q166.5625 189.6094 166.8906 189.6094 Q167.2188 189.6094 167.4453 189.8359 Q167.6719 190.0625 167.6719 190.3906 Q167.6719 190.7188 167.4453 190.9453 Q167.2188 191.1719 166.8906 191.1719 Q166.5625 191.1719 166.3359 190.9453 Q166.1094 190.7188 166.1094 190.3906 ZM164.8125 182.6406 Q165.4375 182.3594 166 182.2266 Q166.5625 182.0938 167.0469 182.0938 Q168.3438 182.0938 169.1016 182.7188 Q169.8594 183.3438 169.8594 184.4062 Q169.8594 185.5 169.2109 186.1953 Q168.5625 186.8906 167.25 187.1875 L167.25 188.6719 L166.5312 188.6719 L166.5312 186.75 Q167.5625 186.5 168.0938 185.9062 Q168.625 185.3125 168.625 184.4062 Q168.625 183.5938 168.1953 183.1328 Q167.7656 182.6719 167.0312 182.6719 Q166.3594 182.6719 165.9297 183.0547 Q165.5 183.4375 165.3906 184.1562 L164.8125 184.1562 L164.8125 182.6406 Z" style="fill:black; stroke:none;" /></g><g ID="li-1:6,14" style="fill:white; text-rendering:optimizeSpeed; font-family:'Serif'; stroke:white;"><rect height="10" style="stroke:none;" width="6" x="171" y="129" /><path d="M173.1094 138.3906 Q173.1094 138.0625 173.3359 137.8359 Q173.5625 137.6094 173.8906 137.6094 Q174.2188 137.6094 174.4453 137.8359 Q174.6719 138.0625 174.6719 138.3906 Q174.6719 138.7188 174.4453 138.9453 Q174.2188 139.1719 173.8906 139.1719 Q173.5625 139.1719 173.3359 138.9453 Q173.1094 138.7188 173.1094 138.3906 ZM171.8125 130.6406 Q172.4375 130.3594 173 130.2266 Q173.5625 130.0938 174.0469 130.0938 Q175.3438 130.0938 176.1016 130.7188 Q176.8594 131.3438 176.8594 132.4062 Q176.8594 133.5 176.2109 134.1953 Q175.5625 134.8906 174.25 135.1875 L174.25 136.6719 L173.5312 136.6719 L173.5312 134.75 Q174.5625 134.5 175.0938 133.9062 Q175.625 133.3125 175.625 132.4062 Q175.625 131.5938 175.1953 131.1328 Q174.7656 130.6719 174.0312 130.6719 Q173.3594 130.6719 172.9297 131.0547 Q172.5 131.4375 172.3906 132.1562 L171.8125 132.1562 L171.8125 130.6406 Z" style="fill:black; stroke:none;" /><rect height="10" style="stroke:none;" width="6" x="153" y="110" /><path d="M155.1094 119.3906 Q155.1094 119.0625 155.3359 118.8359 Q155.5625 118.6094 155.8906 118.6094 Q156.2188 118.6094 156.4453 118.8359 Q156.6719 119.0625 156.6719 119.3906 Q156.6719 119.7188 156.4453 119.9453 Q156.2188 120.1719 155.8906 120.1719 Q155.5625 120.1719 155.3359 119.9453 Q155.1094 119.7188 155.1094 119.3906 ZM153.8125 111.6406 Q154.4375 111.3594 155 111.2266 Q155.5625 111.0938 156.0469 111.0938 Q157.3438 111.0938 158.1016 111.7188 Q158.8594 112.3438 158.8594 113.4062 Q158.8594 114.5 158.2109 115.1953 Q157.5625 115.8906 156.25 116.1875 L156.25 117.6719 L155.5312 117.6719 L155.5312 115.75 Q156.5625 115.5 157.0938 114.9062 Q157.625 114.3125 157.625 113.4062 Q157.625 112.5938 157.1953 112.1328 Q156.7656 111.6719 156.0312 111.6719 Q155.3594 111.6719 154.9297 112.0547 Q154.5 112.4375 154.3906 113.1562 L153.8125 113.1562 L153.8125 111.6406 Z" style="fill:black; stroke:none;" /></g><g ID="li-1:4,5" style="fill:white; text-rendering:optimizeSpeed; font-family:'Serif'; stroke:white;"><rect height="10" style="stroke:none;" width="6" x="242" y="252" /><path d="M244.1094 261.3906 Q244.1094 261.0625 244.3359 260.8359 Q244.5625 260.6094 244.8906 260.6094 Q245.2188 260.6094 245.4453 260.8359 Q245.6719 261.0625 245.6719 261.3906 Q245.6719 261.7188 245.4453 261.9453 Q245.2188 262.1719 244.8906 262.1719 Q244.5625 262.1719 244.3359 261.9453 Q244.1094 261.7188 244.1094 261.3906 ZM242.8125 253.6406 Q243.4375 253.3594 244 253.2266 Q244.5625 253.0938 245.0469 253.0938 Q246.3438 253.0938 247.1016 253.7188 Q247.8594 254.3438 247.8594 255.4062 Q247.8594 256.5 247.2109 257.1953 Q246.5625 257.8906 245.25 258.1875 L245.25 259.6719 L244.5312 259.6719 L244.5312 257.75 Q245.5625 257.5 246.0938 256.9062 Q246.625 256.3125 246.625 255.4062 Q246.625 254.5938 246.1953 254.1328 Q245.7656 253.6719 245.0312 253.6719 Q244.3594 253.6719 243.9297 254.0547 Q243.5 254.4375 243.3906 255.1562 L242.8125 255.1562 L242.8125 253.6406 Z" style="fill:black; stroke:none;" /><rect height="10" style="stroke:none;" width="6" x="211" y="308" /><path d="M213.1094 317.3906 Q213.1094 317.0625 213.3359 316.8359 Q213.5625 316.6094 213.8906 316.6094 Q214.2188 316.6094 214.4453 316.8359 Q214.6719 317.0625 214.6719 317.3906 Q214.6719 317.7188 214.4453 317.9453 Q214.2188 318.1719 213.8906 318.1719 Q213.5625 318.1719 213.3359 317.9453 Q213.1094 317.7188 213.1094 317.3906 ZM211.8125 309.6406 Q212.4375 309.3594 213 309.2266 Q213.5625 309.0938 214.0469 309.0938 Q215.3438 309.0938 216.1016 309.7188 Q216.8594 310.3438 216.8594 311.4062 Q216.8594 312.5 216.2109 313.1953 Q215.5625 313.8906 214.25 314.1875 L214.25 315.6719 L213.5312 315.6719 L213.5312 313.75 Q214.5625 313.5 215.0938 312.9062 Q215.625 312.3125 215.625 311.4062 Q215.625 310.5938 215.1953 310.1328 Q214.7656 309.6719 214.0312 309.6719 Q213.3594 309.6719 212.9297 310.0547 Q212.5 310.4375 212.3906 311.1562 L211.8125 311.1562 L211.8125 309.6406 Z" style="fill:black; stroke:none;" /></g><g ID="li-1:4,6" style="fill:white; text-rendering:optimizeSpeed; font-family:'Serif'; stroke:white;"><rect height="10" style="stroke:none;" width="6" x="228" y="217" /><path d="M230.1094 226.3906 Q230.1094 226.0625 230.3359 225.8359 Q230.5625 225.6094 230.8906 225.6094 Q231.2188 225.6094 231.4453 225.8359 Q231.6719 226.0625 231.6719 226.3906 Q231.6719 226.7188 231.4453 226.9453 Q231.2188 227.1719 230.8906 227.1719 Q230.5625 227.1719 230.3359 226.9453 Q230.1094 226.7188 230.1094 226.3906 ZM228.8125 218.6406 Q229.4375 218.3594 230 218.2266 Q230.5625 218.0938 231.0469 218.0938 Q232.3438 218.0938 233.1016 218.7188 Q233.8594 219.3438 233.8594 220.4062 Q233.8594 221.5 233.2109 222.1953 Q232.5625 222.8906 231.25 223.1875 L231.25 224.6719 L230.5312 224.6719 L230.5312 222.75 Q231.5625 222.5 232.0938 221.9062 Q232.625 221.3125 232.625 220.4062 Q232.625 219.5938 232.1953 219.1328 Q231.7656 218.6719 231.0312 218.6719 Q230.3594 218.6719 229.9297 219.0547 Q229.5 219.4375 229.3906 220.1562 L228.8125 220.1562 L228.8125 218.6406 Z" style="fill:black; stroke:none;" /><rect height="10" style="stroke:none;" width="6" x="197" y="161" /><path d="M199.1094 170.3906 Q199.1094 170.0625 199.3359 169.8359 Q199.5625 169.6094 199.8906 169.6094 Q200.2188 169.6094 200.4453 169.8359 Q200.6719 170.0625 200.6719 170.3906 Q200.6719 170.7188 200.4453 170.9453 Q200.2188 171.1719 199.8906 171.1719 Q199.5625 171.1719 199.3359 170.9453 Q199.1094 170.7188 199.1094 170.3906 ZM197.8125 162.6406 Q198.4375 162.3594 199 162.2266 Q199.5625 162.0938 200.0469 162.0938 Q201.3438 162.0938 202.1016 162.7188 Q202.8594 163.3438 202.8594 164.4062 Q202.8594 165.5 202.2109 166.1953 Q201.5625 166.8906 200.25 167.1875 L200.25 168.6719 L199.5312 168.6719 L199.5312 166.75 Q200.5625 166.5 201.0938 165.9062 Q201.625 165.3125 201.625 164.4062 Q201.625 163.5938 201.1953 163.1328 Q200.7656 162.6719 200.0312 162.6719 Q199.3594 162.6719 198.9297 163.0547 Q198.5 163.4375 198.3906 164.1562 L197.8125 164.1562 L197.8125 162.6406 Z" style="fill:black; stroke:none;" /></g><g ID="li-1:2,4" style="fill:white; text-rendering:optimizeSpeed; font-family:'Serif'; stroke:white;"><rect height="10" style="stroke:none;" width="6" x="279" y="239" /><path d="M281.1094 248.3906 Q281.1094 248.0625 281.3359 247.8359 Q281.5625 247.6094 281.8906 247.6094 Q282.2188 247.6094 282.4453 247.8359 Q282.6719 248.0625 282.6719 248.3906 Q282.6719 248.7188 282.4453 248.9453 Q282.2188 249.1719 281.8906 249.1719 Q281.5625 249.1719 281.3359 248.9453 Q281.1094 248.7188 281.1094 248.3906 ZM279.8125 240.6406 Q280.4375 240.3594 281 240.2266 Q281.5625 240.0938 282.0469 240.0938 Q283.3438 240.0938 284.1016 240.7188 Q284.8594 241.3438 284.8594 242.4062 Q284.8594 243.5 284.2109 244.1953 Q283.5625 244.8906 282.25 245.1875 L282.25 246.6719 L281.5312 246.6719 L281.5312 244.75 Q282.5625 244.5 283.0938 243.9062 Q283.625 243.3125 283.625 242.4062 Q283.625 241.5938 283.1953 241.1328 Q282.7656 240.6719 282.0312 240.6719 Q281.3594 240.6719 280.9297 241.0547 Q280.5 241.4375 280.3906 242.1562 L279.8125 242.1562 L279.8125 240.6406 Z" style="fill:black; stroke:none;" /><rect height="10" style="stroke:none;" width="6" x="265" y="239" /><path d="M267.1094 248.3906 Q267.1094 248.0625 267.3359 247.8359 Q267.5625 247.6094 267.8906 247.6094 Q268.2188 247.6094 268.4453 247.8359 Q268.6719 248.0625 268.6719 248.3906 Q268.6719 248.7188 268.4453 248.9453 Q268.2188 249.1719 267.8906 249.1719 Q267.5625 249.1719 267.3359 248.9453 Q267.1094 248.7188 267.1094 248.3906 ZM265.8125 240.6406 Q266.4375 240.3594 267 240.2266 Q267.5625 240.0938 268.0469 240.0938 Q269.3438 240.0938 270.1016 240.7188 Q270.8594 241.3438 270.8594 242.4062 Q270.8594 243.5 270.2109 244.1953 Q269.5625 244.8906 268.25 245.1875 L268.25 246.6719 L267.5312 246.6719 L267.5312 244.75 Q268.5625 244.5 269.0938 243.9062 Q269.625 243.3125 269.625 242.4062 Q269.625 241.5938 269.1953 241.1328 Q268.7656 240.6719 268.0312 240.6719 Q267.3594 240.6719 266.9297 241.0547 Q266.5 241.4375 266.3906 242.1562 L265.8125 242.1562 L265.8125 240.6406 Z" style="fill:black; stroke:none;" /></g><g ID="r-1:3" style="fill:white; text-rendering:optimizeSpeed; stroke:white;" wurcs_mono_id="18"><polygon points=" 353 195 342 173 364 173" style="stroke:none; clip-path:url(#clipPath18);" /><rect height="22" style="clip-path:url(#clipPath18); fill:rgb(237,28,36); stroke:none;" width="22" x="342" y="173" /><rect height="22" style="clip-path:url(#clipPath18); fill:none; stroke:black;" width="22" x="342" y="173" /><polygon points=" 353 195 342 173 364 173" style="fill:none; stroke:black;" /></g><g ID="li-1:1,2" style="fill:white; text-rendering:optimizeSpeed; font-family:'Serif'; stroke:white;"><rect height="10" style="stroke:none;" width="6" x="331" y="239" /><path d="M333.1094 248.3906 Q333.1094 248.0625 333.3359 247.8359 Q333.5625 247.6094 333.8906 247.6094 Q334.2188 247.6094 334.4453 247.8359 Q334.6719 248.0625 334.6719 248.3906 Q334.6719 248.7188 334.4453 248.9453 Q334.2188 249.1719 333.8906 249.1719 Q333.5625 249.1719 333.3359 248.9453 Q333.1094 248.7188 333.1094 248.3906 ZM331.8125 240.6406 Q332.4375 240.3594 333 240.2266 Q333.5625 240.0938 334.0469 240.0938 Q335.3438 240.0938 336.1016 240.7188 Q336.8594 241.3438 336.8594 242.4062 Q336.8594 243.5 336.2109 244.1953 Q335.5625 244.8906 334.25 245.1875 L334.25 246.6719 L333.5312 246.6719 L333.5312 244.75 Q334.5625 244.5 335.0938 243.9062 Q335.625 243.3125 335.625 242.4062 Q335.625 241.5938 335.1953 241.1328 Q334.7656 240.6719 334.0312 240.6719 Q333.3594 240.6719 332.9297 241.0547 Q332.5 241.4375 332.3906 242.1562 L331.8125 242.1562 L331.8125 240.6406 Z" style="fill:black; stroke:none;" /><rect height="10" style="stroke:none;" width="6" x="317" y="239" /><path d="M319.1094 248.3906 Q319.1094 248.0625 319.3359 247.8359 Q319.5625 247.6094 319.8906 247.6094 Q320.2188 247.6094 320.4453 247.8359 Q320.6719 248.0625 320.6719 248.3906 Q320.6719 248.7188 320.4453 248.9453 Q320.2188 249.1719 319.8906 249.1719 Q319.5625 249.1719 319.3359 248.9453 Q319.1094 248.7188 319.1094 248.3906 ZM317.8125 240.6406 Q318.4375 240.3594 319 240.2266 Q319.5625 240.0938 320.0469 240.0938 Q321.3438 240.0938 322.1016 240.7188 Q322.8594 241.3438 322.8594 242.4062 Q322.8594 243.5 322.2109 244.1953 Q321.5625 244.8906 320.25 245.1875 L320.25 246.6719 L319.5312 246.6719 L319.5312 244.75 Q320.5625 244.5 321.0938 243.9062 Q321.625 243.3125 321.625 242.4062 Q321.625 241.5938 321.1953 241.1328 Q320.7656 240.6719 320.0312 240.6719 Q319.3594 240.6719 318.9297 241.0547 Q318.5 241.4375 318.3906 242.1562 L317.8125 242.1562 L317.8125 240.6406 Z" style="fill:black; stroke:none;" /></g><g ID="li-1:1,3" style="fill:white; text-rendering:optimizeSpeed; font-family:'Serif'; stroke:white;"><rect height="10" style="stroke:none;" width="6" x="342" y="212" /><path d="M344.1094 221.3906 Q344.1094 221.0625 344.3359 220.8359 Q344.5625 220.6094 344.8906 220.6094 Q345.2188 220.6094 345.4453 220.8359 Q345.6719 221.0625 345.6719 221.3906 Q345.6719 221.7188 345.4453 221.9453 Q345.2188 222.1719 344.8906 222.1719 Q344.5625 222.1719 344.3359 221.9453 Q344.1094 221.7188 344.1094 221.3906 ZM342.8125 213.6406 Q343.4375 213.3594 344 213.2266 Q344.5625 213.0938 345.0469 213.0938 Q346.3438 213.0938 347.1016 213.7188 Q347.8594 214.3438 347.8594 215.4062 Q347.8594 216.5 347.2109 217.1953 Q346.5625 217.8906 345.25 218.1875 L345.25 219.6719 L344.5312 219.6719 L344.5312 217.75 Q345.5625 217.5 346.0938 216.9062 Q346.625 216.3125 346.625 215.4062 Q346.625 214.5938 346.1953 214.1328 Q345.7656 213.6719 345.0312 213.6719 Q344.3594 213.6719 343.9297 214.0547 Q343.5 214.4375 343.3906 215.1562 L342.8125 215.1562 L342.8125 213.6406 Z" style="fill:black; stroke:none;" /><rect height="10" style="stroke:none;" width="6" x="342" y="198" /><path d="M344.1094 207.3906 Q344.1094 207.0625 344.3359 206.8359 Q344.5625 206.6094 344.8906 206.6094 Q345.2188 206.6094 345.4453 206.8359 Q345.6719 207.0625 345.6719 207.3906 Q345.6719 207.7188 345.4453 207.9453 Q345.2188 208.1719 344.8906 208.1719 Q344.5625 208.1719 344.3359 207.9453 Q344.1094 207.7188 344.1094 207.3906 ZM342.8125 199.6406 Q343.4375 199.3594 344 199.2266 Q344.5625 199.0938 345.0469 199.0938 Q346.3438 199.0938 347.1016 199.7188 Q347.8594 200.3438 347.8594 201.4062 Q347.8594 202.5 347.2109 203.1953 Q346.5625 203.8906 345.25 204.1875 L345.25 205.6719 L344.5312 205.6719 L344.5312 203.75 Q345.5625 203.5 346.0938 202.9062 Q346.625 202.3125 346.625 201.4062 Q346.625 200.5938 346.1953 200.1328 Q345.7656 199.6719 345.0312 199.6719 Q344.3594 199.6719 343.9297 200.0547 Q343.5 200.4375 343.3906 201.1562 L342.8125 201.1562 L342.8125 199.6406 Z" style="fill:black; stroke:none;" /></g></g></svg>