<svg xmlns="http://www.w3.org/2000/svg" style="fill-opacity:1; color-rendering:auto; color-interpolation:auto; text-rendering:auto; stroke:black; stroke-linecap:square; stroke-miterlimit:10; shape-rendering:auto; stroke-opacity:1; fill:black; stroke-dasharray:none; font-weight:normal; stroke-width:1; font-family:'Dialog'; font-style:normal; stroke-linejoin:miter; font-size:12px; stroke-dashoffset:0; image-rendering:auto;"><defs id="genericDefs" /><g><defs id="defs1"><clipPath clipPathUnits="userSpaceOnUse" id="clipPath1"><path d="M342 82 L364 82 L364 104 L342 104 L342 82 Z" /></clipPath><clipPath clipPathUnits="userSpaceOnUse" id="clipPath2"><path d="M290 82 L312 82 L312 104 L290 104 L290 82 Z" /></clipPath><clipPath clipPathUnits="userSpaceOnUse" id="clipPath3"><path d="M260 93 C260 99.0751 255.0751 104 249 104 C242.9249 104 238 99.0751 238 93 C238 86.9249 242.9249 82 249 82 C255.0751 82 260 86.9249 260 93 Z" /></clipPath><clipPath clipPathUnits="userSpaceOnUse" id="clipPath4"><path d="M208 119 C208 125.0751 203.0751 130 197 130 C190.9249 130 186 125.0751 186 119 C186 112.9249 190.9249 108 197 108 C203.0751 108 208 112.9249 208 119 Z" /></clipPath><clipPath clipPathUnits="userSpaceOnUse" id="clipPath5"><path d="M134 108 L156 108 L156 130 L134 130 L134 108 Z" /></clipPath><clipPath clipPathUnits="userSpaceOnUse" id="clipPath6"><path d="M104 119 C104 125.0751 99.0751 130 93 130 C86.9249 130 82 125.0751 82 119 C82 112.9249 86.9249 108 93 108 C99.0751 108 104 112.9249 104 119 Z" /></clipPath><clipPath clipPathUnits="userSpaceOnUse" id="clipPath7"><path d="M41 108 L52 119 L41 130 L30 119 Z" style="fill-rule:evenodd;" /></clipPath><clipPath clipPathUnits="userSpaceOnUse" id="clipPath8"><path d="M208 67 C208 73.0751 203.0751 78 197 78 C190.9249 78 186 73.0751 186 67 C186 60.9249 190.9249 56 197 56 C203.0751 56 208 60.9249 208 67 Z" /></clipPath><clipPath clipPathUnits="userSpaceOnUse" id="clipPath9"><path d="M134 56 L156 56 L156 78 L134 78 L134 56 Z" /></clipPath><clipPath clipPathUnits="userSpaceOnUse" id="clipPath10"><path d="M104 67 C104 73.0751 99.0751 78 93 78 C86.9249 78 82 73.0751 82 67 C82 60.9249 86.9249 56 93 56 C99.0751 56 104 60.9249 104 67 Z" /></clipPath><clipPath clipPathUnits="userSpaceOnUse" id="clipPath11"><path d="M353 52 L342 30 L364 30 Z" style="fill-rule:evenodd;" /></clipPath></defs><g style="fill:white; text-rendering:optimizeSpeed; stroke:white;"><rect height="160" style="stroke:none;" width="394" x="0" y="0" /></g><g ID="l-1:1,2" style="text-rendering:optimizeSpeed;"><polygon points=" 353 93 301 93" style="fill:none;" /></g><g ID="l-1:1,3" style="text-rendering:optimizeSpeed;"><polygon points=" 353 93 353 41" style="fill:none;" /></g><g ID="r-1:1" style="fill:white; text-rendering:optimizeSpeed; stroke:white;" wurcs_mono_id="1"><rect height="22" style="clip-path:url(#clipPath1); stroke:none;" width="22" x="342" y="82" /><rect height="22" style="clip-path:url(#clipPath1); fill:rgb(0,144,188); stroke:none;" width="22" x="342" y="82" /><rect height="22" style="clip-path:url(#clipPath1); fill:none; stroke:black;" width="22" x="342" y="82" /><rect height="22" style="fill:none; stroke:black;" width="22" x="342" y="82" /></g><g ID="l-1:2,4" style="text-rendering:optimizeSpeed;"><polygon points=" 301 93 249 93" style="fill:none;" /></g><g ID="r-1:2" style="fill:white; text-rendering:optimizeSpeed; stroke:white;" wurcs_mono_id="2"><rect height="22" style="clip-path:url(#clipPath2); stroke:none;" width="22" x="290" y="82" /><rect height="22" style="clip-path:url(#clipPath2); fill:rgb(0,144,188); stroke:none;" width="22" x="290" y="82" /><rect height="22" style="clip-path:url(#clipPath2); fill:none; stroke:black;" width="22" x="290" y="82" /><rect height="22" style="fill:none; stroke:black;" width="22" x="290" y="82" /></g><g ID="l-1:4,5" style="text-rendering:optimizeSpeed;"><polygon points=" 249 93 197 119" style="fill:none;" /></g><g ID="l-1:4,6" style="text-rendering:optimizeSpeed;"><polygon points=" 249 93 197 67" style="fill:none;" /></g><g ID="r-1:4" style="fill:white; text-rendering:optimizeSpeed; stroke:white;" wurcs_mono_id="3"><circle cx="249" cy="93" r="11" style="clip-path:url(#clipPath3); stroke:none;" /><rect height="22" style="clip-path:url(#clipPath3); fill:rgb(0,166,81); stroke:none;" width="22" x="238" y="82" /><rect height="22" style="clip-path:url(#clipPath3); fill:none; stroke:black;" width="22" x="238" y="82" /><circle cx="249" cy="93" r="11" style="fill:none; stroke:black;" /></g><g ID="l-1:5,7" style="text-rendering:optimizeSpeed;"><polygon points=" 197 119 145 119" style="fill:none;" /></g><g ID="r-1:5" style="fill:white; text-rendering:optimizeSpeed; stroke:white;" wurcs_mono_id="4"><circle cx="197" cy="119" r="11" style="clip-path:url(#clipPath4); stroke:none;" /><rect height="22" style="clip-path:url(#clipPath4); fill:rgb(0,166,81); stroke:none;" width="22" x="186" y="108" /><rect height="22" style="clip-path:url(#clipPath4); fill:none; stroke:black;" width="22" x="186" y="108" /><circle cx="197" cy="119" r="11" style="fill:none; stroke:black;" /></g><g ID="l-1:7,8" style="text-rendering:optimizeSpeed;"><polygon points=" 145 119 93 119" style="fill:none;" /></g><g ID="r-1:7" style="fill:white; text-rendering:optimizeSpeed; stroke:white;" wurcs_mono_id="5"><rect height="22" style="clip-path:url(#clipPath5); stroke:none;" width="22" x="134" y="108" /><rect height="22" style="clip-path:url(#clipPath5); fill:rgb(0,144,188); stroke:none;" width="22" x="134" y="108" /><rect height="22" style="clip-path:url(#clipPath5); fill:none; stroke:black;" width="22" x="134" y="108" /><rect height="22" style="fill:none; stroke:black;" width="22" x="134" y="108" /></g><g ID="l-1:8,9" style="text-rendering:optimizeSpeed;"><polygon points=" 93 119 41 119" style="fill:none;" /></g><g ID="r-1:8" style="fill:white; text-rendering:optimizeSpeed; stroke:white;" wurcs_mono_id="6"><circle cx="93" cy="119" r="11" style="clip-path:url(#clipPath6); stroke:none;" /><rect height="22" style="clip-path:url(#clipPath6); fill:rgb(255,212,0); stroke:none;" width="22" x="82" y="108" /><rect height="22" style="clip-path:url(#clipPath6); fill:none; stroke:black;" width="22" x="82" y="108" /><circle cx="93" cy="119" r="11" style="fill:none; stroke:black;" /></g><g ID="r-1:9" style="fill:white; text-rendering:optimizeSpeed; stroke:white;" wurcs_mono_id="7"><polygon points=" 41 108 52 119 41 130 30 119" style="stroke:none; clip-path:url(#clipPath7);" /><rect height="22" style="clip-path:url(#clipPath7); fill:rgb(165,67,153); stroke:none;" width="22" x="30" y="108" /><rect height="22" style="clip-path:url(#clipPath7); fill:none; stroke:black;" width="22" x="30" y="108" /><polygon points=" 41 108 52 119 41 130 30 119" style="fill:none; stroke:black;" /></g><g ID="li-1:8,9" style="fill:white; text-rendering:optimizeSpeed; font-family:'Serif'; stroke:white;"><rect height="10" style="stroke:none;" width="7" x="70" y="122" /><path d="M71.1719 123.625 Q71.8594 123.3594 72.4844 123.2266 Q73.1094 123.0938 73.6562 123.0938 Q74.9531 123.0938 75.6719 123.6484 Q76.3906 124.2031 76.3906 125.1875 Q76.3906 125.9688 75.8906 126.5 Q75.3906 127.0312 74.4844 127.2188 Q75.5625 127.375 76.1562 128.0078 Q76.75 128.6406 76.75 129.6406 Q76.75 130.8594 75.9219 131.5156 Q75.0938 132.1719 73.5469 132.1719 Q72.8594 132.1719 72.2109 132.0234 Q71.5625 131.875 70.9219 131.5781 L70.9219 129.875 L71.5781 129.875 Q71.625 130.7188 72.1406 131.1562 Q72.6562 131.5938 73.5781 131.5938 Q74.4688 131.5938 74.9922 131.0703 Q75.5156 130.5469 75.5156 129.6562 Q75.5156 128.625 74.9766 128.0938 Q74.4375 127.5625 73.4062 127.5625 L72.8594 127.5625 L72.8594 126.9531 L73.1406 126.9531 Q74.1719 126.9531 74.6875 126.5312 Q75.2031 126.1094 75.2031 125.25 Q75.2031 124.4844 74.7812 124.0781 Q74.3594 123.6719 73.5625 123.6719 Q72.7656 123.6719 72.3359 124.0469 Q71.9062 124.4219 71.8281 125.1562 L71.1719 125.1562 L71.1719 123.625 Z" style="fill:black; stroke:none;" /><rect height="10" style="stroke:none;" width="6" x="57" y="122" /><path d="M59.1094 131.3906 Q59.1094 131.0625 59.3359 130.8359 Q59.5625 130.6094 59.8906 130.6094 Q60.2188 130.6094 60.4453 130.8359 Q60.6719 131.0625 60.6719 131.3906 Q60.6719 131.7188 60.4453 131.9453 Q60.2188 132.1719 59.8906 132.1719 Q59.5625 132.1719 59.3359 131.9453 Q59.1094 131.7188 59.1094 131.3906 ZM57.8125 123.6406 Q58.4375 123.3594 59 123.2266 Q59.5625 123.0938 60.0469 123.0938 Q61.3438 123.0938 62.1016 123.7188 Q62.8594 124.3438 62.8594 125.4062 Q62.8594 126.5 62.2109 127.1953 Q61.5625 127.8906 60.25 128.1875 L60.25 129.6719 L59.5312 129.6719 L59.5312 127.75 Q60.5625 127.5 61.0938 126.9062 Q61.625 126.3125 61.625 125.4062 Q61.625 124.5938 61.1953 124.1328 Q60.7656 123.6719 60.0312 123.6719 Q59.3594 123.6719 58.9297 124.0547 Q58.5 124.4375 58.3906 125.1562 L57.8125 125.1562 L57.8125 123.6406 Z" style="fill:black; stroke:none;" /></g><g ID="li-1:7,8" style="fill:white; text-rendering:optimizeSpeed; font-family:'Serif'; stroke:white;"><rect height="9" style="stroke:none;" width="8" x="122" y="122" /><path d="M126.1875 128.0312 L126.1875 123.375 L123.2031 128.0312 L126.1875 128.0312 ZM128.7656 131 L124.7812 131 L124.7812 130.375 L126.1875 130.375 L126.1875 128.6562 L122.375 128.6562 L122.375 128.0156 L126.2031 122.0938 L127.3594 122.0938 L127.3594 128.0312 L129.0312 128.0312 L129.0312 128.6562 L127.3594 128.6562 L127.3594 130.375 L128.7656 130.375 L128.7656 131 Z" style="fill:black; stroke:none;" /><rect height="10" style="stroke:none;" width="6" x="109" y="122" /><path d="M111.1094 131.3906 Q111.1094 131.0625 111.3359 130.8359 Q111.5625 130.6094 111.8906 130.6094 Q112.2188 130.6094 112.4453 130.8359 Q112.6719 131.0625 112.6719 131.3906 Q112.6719 131.7188 112.4453 131.9453 Q112.2188 132.1719 111.8906 132.1719 Q111.5625 132.1719 111.3359 131.9453 Q111.1094 131.7188 111.1094 131.3906 ZM109.8125 123.6406 Q110.4375 123.3594 111 123.2266 Q111.5625 123.0938 112.0469 123.0938 Q113.3438 123.0938 114.1016 123.7188 Q114.8594 124.3438 114.8594 125.4062 Q114.8594 126.5 114.2109 127.1953 Q113.5625 127.8906 112.25 128.1875 L112.25 129.6719 L111.5312 129.6719 L111.5312 127.75 Q112.5625 127.5 113.0938 126.9062 Q113.625 126.3125 113.625 125.4062 Q113.625 124.5938 113.1953 124.1328 Q112.7656 123.6719 112.0312 123.6719 Q111.3594 123.6719 110.9297 124.0547 Q110.5 124.4375 110.3906 125.1562 L109.8125 125.1562 L109.8125 123.6406 Z" style="fill:black; stroke:none;" /></g><g ID="li-1:5,7" style="fill:white; text-rendering:optimizeSpeed; font-family:'Serif'; stroke:white;"><rect height="9" style="stroke:none;" width="7" x="174" y="122" /><path d="M175.5312 124.3438 L174.875 124.3438 L174.875 122.7812 Q175.5 122.4375 176.1406 122.2656 Q176.7812 122.0938 177.3906 122.0938 Q178.75 122.0938 179.5391 122.7578 Q180.3281 123.4219 180.3281 124.5469 Q180.3281 125.8438 178.5469 127.625 Q178.4062 127.7656 178.3281 127.8281 L176.125 130.0312 L179.7656 130.0312 L179.7656 128.9531 L180.4531 128.9531 L180.4531 131 L174.8125 131 L174.8125 130.3594 L177.4688 127.7188 Q178.3438 126.8281 178.7188 126.0938 Q179.0938 125.3594 179.0938 124.5469 Q179.0938 123.6719 178.6328 123.1719 Q178.1719 122.6719 177.375 122.6719 Q176.5312 122.6719 176.0781 123.0859 Q175.625 123.5 175.5312 124.3438 Z" style="fill:black; stroke:none;" /><rect height="10" style="stroke:none;" width="6" x="161" y="122" /><path d="M163.1094 131.3906 Q163.1094 131.0625 163.3359 130.8359 Q163.5625 130.6094 163.8906 130.6094 Q164.2188 130.6094 164.4453 130.8359 Q164.6719 131.0625 164.6719 131.3906 Q164.6719 131.7188 164.4453 131.9453 Q164.2188 132.1719 163.8906 132.1719 Q163.5625 132.1719 163.3359 131.9453 Q163.1094 131.7188 163.1094 131.3906 ZM161.8125 123.6406 Q162.4375 123.3594 163 123.2266 Q163.5625 123.0938 164.0469 123.0938 Q165.3438 123.0938 166.1016 123.7188 Q166.8594 124.3438 166.8594 125.4062 Q166.8594 126.5 166.2109 127.1953 Q165.5625 127.8906 164.25 128.1875 L164.25 129.6719 L163.5312 129.6719 L163.5312 127.75 Q164.5625 127.5 165.0938 126.9062 Q165.625 126.3125 165.625 125.4062 Q165.625 124.5938 165.1953 124.1328 Q164.7656 123.6719 164.0312 123.6719 Q163.3594 123.6719 162.9297 124.0547 Q162.5 124.4375 162.3906 125.1562 L161.8125 125.1562 L161.8125 123.6406 Z" style="fill:black; stroke:none;" /></g><g ID="l-1:6,10" style="text-rendering:optimizeSpeed;"><polygon points=" 197 67 145 67" style="fill:none;" /></g><g ID="r-1:6" style="fill:white; text-rendering:optimizeSpeed; stroke:white;" wurcs_mono_id="8"><circle cx="197" cy="67" r="11" style="clip-path:url(#clipPath8); stroke:none;" /><rect height="22" style="clip-path:url(#clipPath8); fill:rgb(0,166,81); stroke:none;" width="22" x="186" y="56" /><rect height="22" style="clip-path:url(#clipPath8); fill:none; stroke:black;" width="22" x="186" y="56" /><circle cx="197" cy="67" r="11" style="fill:none; stroke:black;" /></g><g ID="l-1:10,11" style="text-rendering:optimizeSpeed;"><polygon points=" 145 67 93 67" style="fill:none;" /></g><g ID="r-1:10" style="fill:white; text-rendering:optimizeSpeed; stroke:white;" wurcs_mono_id="9"><rect height="22" style="clip-path:url(#clipPath9); stroke:none;" width="22" x="134" y="56" /><rect height="22" style="clip-path:url(#clipPath9); fill:rgb(0,144,188); stroke:none;" width="22" x="134" y="56" /><rect height="22" style="clip-path:url(#clipPath9); fill:none; stroke:black;" width="22" x="134" y="56" /><rect height="22" style="fill:none; stroke:black;" width="22" x="134" y="56" /></g><g ID="r-1:11" style="fill:white; text-rendering:optimizeSpeed; stroke:white;" wurcs_mono_id="10"><circle cx="93" cy="67" r="11" style="clip-path:url(#clipPath10); stroke:none;" /><rect height="22" style="clip-path:url(#clipPath10); fill:rgb(255,212,0); stroke:none;" width="22" x="82" y="56" /><rect height="22" style="clip-path:url(#clipPath10); fill:none; stroke:black;" width="22" x="82" y="56" /><circle cx="93" cy="67" r="11" style="fill:none; stroke:black;" /></g><g ID="li-1:10,11" style="fill:white; text-rendering:optimizeSpeed; font-family:'Serif'; stroke:white;"><rect height="9" style="stroke:none;" width="8" x="122" y="70" /><path d="M126.1875 76.0312 L126.1875 71.375 L123.2031 76.0312 L126.1875 76.0312 ZM128.7656 79 L124.7812 79 L124.7812 78.375 L126.1875 78.375 L126.1875 76.6562 L122.375 76.6562 L122.375 76.0156 L126.2031 70.0938 L127.3594 70.0938 L127.3594 76.0312 L129.0312 76.0312 L129.0312 76.6562 L127.3594 76.6562 L127.3594 78.375 L128.7656 78.375 L128.7656 79 Z" style="fill:black; stroke:none;" /><rect height="10" style="stroke:none;" width="6" x="109" y="70" /><path d="M111.1094 79.3906 Q111.1094 79.0625 111.3359 78.8359 Q111.5625 78.6094 111.8906 78.6094 Q112.2188 78.6094 112.4453 78.8359 Q112.6719 79.0625 112.6719 79.3906 Q112.6719 79.7188 112.4453 79.9453 Q112.2188 80.1719 111.8906 80.1719 Q111.5625 80.1719 111.3359 79.9453 Q111.1094 79.7188 111.1094 79.3906 ZM109.8125 71.6406 Q110.4375 71.3594 111 71.2266 Q111.5625 71.0938 112.0469 71.0938 Q113.3438 71.0938 114.1016 71.7188 Q114.8594 72.3438 114.8594 73.4062 Q114.8594 74.5 114.2109 75.1953 Q113.5625 75.8906 112.25 76.1875 L112.25 77.6719 L111.5312 77.6719 L111.5312 75.75 Q112.5625 75.5 113.0938 74.9062 Q113.625 74.3125 113.625 73.4062 Q113.625 72.5938 113.1953 72.1328 Q112.7656 71.6719 112.0312 71.6719 Q111.3594 71.6719 110.9297 72.0547 Q110.5 72.4375 110.3906 73.1562 L109.8125 73.1562 L109.8125 71.6406 Z" style="fill:black; stroke:none;" /></g><g ID="li-1:6,10" style="fill:white; text-rendering:optimizeSpeed; font-family:'Serif'; stroke:white;"><rect height="9" style="stroke:none;" width="7" x="174" y="70" /><path d="M175.5312 72.3438 L174.875 72.3438 L174.875 70.7812 Q175.5 70.4375 176.1406 70.2656 Q176.7812 70.0938 177.3906 70.0938 Q178.75 70.0938 179.5391 70.7578 Q180.3281 71.4219 180.3281 72.5469 Q180.3281 73.8438 178.5469 75.625 Q178.4062 75.7656 178.3281 75.8281 L176.125 78.0312 L179.7656 78.0312 L179.7656 76.9531 L180.4531 76.9531 L180.4531 79 L174.8125 79 L174.8125 78.3594 L177.4688 75.7188 Q178.3438 74.8281 178.7188 74.0938 Q179.0938 73.3594 179.0938 72.5469 Q179.0938 71.6719 178.6328 71.1719 Q178.1719 70.6719 177.375 70.6719 Q176.5312 70.6719 176.0781 71.0859 Q175.625 71.5 175.5312 72.3438 Z" style="fill:black; stroke:none;" /><rect height="10" style="stroke:none;" width="6" x="161" y="70" /><path d="M163.1094 79.3906 Q163.1094 79.0625 163.3359 78.8359 Q163.5625 78.6094 163.8906 78.6094 Q164.2188 78.6094 164.4453 78.8359 Q164.6719 79.0625 164.6719 79.3906 Q164.6719 79.7188 164.4453 79.9453 Q164.2188 80.1719 163.8906 80.1719 Q163.5625 80.1719 163.3359 79.9453 Q163.1094 79.7188 163.1094 79.3906 ZM161.8125 71.6406 Q162.4375 71.3594 163 71.2266 Q163.5625 71.0938 164.0469 71.0938 Q165.3438 71.0938 166.1016 71.7188 Q166.8594 72.3438 166.8594 73.4062 Q166.8594 74.5 166.2109 75.1953 Q165.5625 75.8906 164.25 76.1875 L164.25 77.6719 L163.5312 77.6719 L163.5312 75.75 Q164.5625 75.5 165.0938 74.9062 Q165.625 74.3125 165.625 73.4062 Q165.625 72.5938 165.1953 72.1328 Q164.7656 71.6719 164.0312 71.6719 Q163.3594 71.6719 162.9297 72.0547 Q162.5 72.4375 162.3906 73.1562 L161.8125 73.1562 L161.8125 71.6406 Z" style="fill:black; stroke:none;" /></g><g ID="li-1:4,5" style="fill:white; text-rendering:optimizeSpeed; font-family:'Serif'; stroke:white;"><rect height="10" style="stroke:none;" width="6" x="231" y="104" /><path d="M233.1094 113.3906 Q233.1094 113.0625 233.3359 112.8359 Q233.5625 112.6094 233.8906 112.6094 Q234.2188 112.6094 234.4453 112.8359 Q234.6719 113.0625 234.6719 113.3906 Q234.6719 113.7188 234.4453 113.9453 Q234.2188 114.1719 233.8906 114.1719 Q233.5625 114.1719 233.3359 113.9453 Q233.1094 113.7188 233.1094 113.3906 ZM231.8125 105.6406 Q232.4375 105.3594 233 105.2266 Q233.5625 105.0938 234.0469 105.0938 Q235.3438 105.0938 236.1016 105.7188 Q236.8594 106.3438 236.8594 107.4062 Q236.8594 108.5 236.2109 109.1953 Q235.5625 109.8906 234.25 110.1875 L234.25 111.6719 L233.5312 111.6719 L233.5312 109.75 Q234.5625 109.5 235.0938 108.9062 Q235.625 108.3125 235.625 107.4062 Q235.625 106.5938 235.1953 106.1328 Q234.7656 105.6719 234.0312 105.6719 Q233.3594 105.6719 232.9297 106.0547 Q232.5 106.4375 232.3906 107.1562 L231.8125 107.1562 L231.8125 105.6406 Z" style="fill:black; stroke:none;" /><rect height="8" style="stroke:none;" width="8" x="214" y="113" /><path d="M219.1875 119.4688 L218.9531 120.1094 Q218.7656 120.625 218.2031 120.9375 Q217.8438 121.1562 217.2031 121.1406 Q216.0469 121.1406 215.3281 120.2344 Q214.5938 119.3281 214.5938 117.8594 Q214.5938 116.4219 215.3281 115.4844 Q216.0156 114.5938 217.4531 114.6094 Q218.4531 114.6094 218.9531 115 Q219.4062 115.3438 219.5781 116.0938 L219.625 116.3125 L219.8438 115.6719 Q220.0625 115.0469 220.6562 114.75 L221.25 114.75 L221.25 115.0938 Q220.6875 115.2656 220.5 115.8125 L219.8906 117.4844 L220.2969 119.2812 Q220.5 120.2031 220.7344 120.2969 Q221.0469 120.4375 221.7812 120 L221.7812 120.7188 Q220.5938 121.4062 219.75 120.6875 Q219.375 120.3594 219.2656 119.875 L219.1875 119.4688 ZM218.9219 118.3125 L218.5625 116.5938 Q218.2656 115.2188 217.4688 115.2188 Q216.7969 115.2031 216.2812 115.9375 Q215.8594 116.5156 215.8594 117.875 Q215.8594 119.1719 216.2812 119.8281 Q216.75 120.5469 217.5312 120.5 Q218.2031 120.4375 218.6875 119 L218.9219 118.3125 Z" style="fill:black; stroke:none;" /></g><g ID="li-1:4,6" style="fill:white; text-rendering:optimizeSpeed; font-family:'Serif'; stroke:white;"><rect height="10" style="stroke:none;" width="6" x="224" y="86" /><path d="M226.1094 95.3906 Q226.1094 95.0625 226.3359 94.8359 Q226.5625 94.6094 226.8906 94.6094 Q227.2188 94.6094 227.4453 94.8359 Q227.6719 95.0625 227.6719 95.3906 Q227.6719 95.7188 227.4453 95.9453 Q227.2188 96.1719 226.8906 96.1719 Q226.5625 96.1719 226.3359 95.9453 Q226.1094 95.7188 226.1094 95.3906 ZM224.8125 87.6406 Q225.4375 87.3594 226 87.2266 Q226.5625 87.0938 227.0469 87.0938 Q228.3438 87.0938 229.1016 87.7188 Q229.8594 88.3438 229.8594 89.4062 Q229.8594 90.5 229.2109 91.1953 Q228.5625 91.8906 227.25 92.1875 L227.25 93.6719 L226.5312 93.6719 L226.5312 91.75 Q227.5625 91.5 228.0938 90.9062 Q228.625 90.3125 228.625 89.4062 Q228.625 88.5938 228.1953 88.1328 Q227.7656 87.6719 227.0312 87.6719 Q226.3594 87.6719 225.9297 88.0547 Q225.5 88.4375 225.3906 89.1562 L224.8125 89.1562 L224.8125 87.6406 Z" style="fill:black; stroke:none;" /><rect height="8" style="stroke:none;" width="8" x="207" y="79" /><path d="M212.1875 85.4688 L211.9531 86.1094 Q211.7656 86.625 211.2031 86.9375 Q210.8438 87.1562 210.2031 87.1406 Q209.0469 87.1406 208.3281 86.2344 Q207.5938 85.3281 207.5938 83.8594 Q207.5938 82.4219 208.3281 81.4844 Q209.0156 80.5938 210.4531 80.6094 Q211.4531 80.6094 211.9531 81 Q212.4062 81.3438 212.5781 82.0938 L212.625 82.3125 L212.8438 81.6719 Q213.0625 81.0469 213.6562 80.75 L214.25 80.75 L214.25 81.0938 Q213.6875 81.2656 213.5 81.8125 L212.8906 83.4844 L213.2969 85.2812 Q213.5 86.2031 213.7344 86.2969 Q214.0469 86.4375 214.7812 86 L214.7812 86.7188 Q213.5938 87.4062 212.75 86.6875 Q212.375 86.3594 212.2656 85.875 L212.1875 85.4688 ZM211.9219 84.3125 L211.5625 82.5938 Q211.2656 81.2188 210.4688 81.2188 Q209.7969 81.2031 209.2812 81.9375 Q208.8594 82.5156 208.8594 83.875 Q208.8594 85.1719 209.2812 85.8281 Q209.75 86.5469 210.5312 86.5 Q211.2031 86.4375 211.6875 85 L211.9219 84.3125 Z" style="fill:black; stroke:none;" /></g><g ID="li-1:2,4" style="fill:white; text-rendering:optimizeSpeed; font-family:'Serif'; stroke:white;"><rect height="9" style="stroke:none;" width="8" x="278" y="96" /><path d="M282.1875 102.0312 L282.1875 97.375 L279.2031 102.0312 L282.1875 102.0312 ZM284.7656 105 L280.7812 105 L280.7812 104.375 L282.1875 104.375 L282.1875 102.6562 L278.375 102.6562 L278.375 102.0156 L282.2031 96.0938 L283.3594 96.0938 L283.3594 102.0312 L285.0312 102.0312 L285.0312 102.6562 L283.3594 102.6562 L283.3594 104.375 L284.7656 104.375 L284.7656 105 Z" style="fill:black; stroke:none;" /><rect height="13" style="stroke:none;" width="7" x="264" y="94" /><path d="M265.8281 106.25 Q266.2969 106.5938 267.1719 106.5938 Q268.0625 106.5938 268.5781 106.0703 Q269.0938 105.5469 269.0938 104.6562 Q269.0938 103.4219 268.5625 102.8906 Q268.0156 102.3594 267 102.3594 L266.4375 102.3594 L266.4375 101.7188 L266.7344 101.7188 Q267.4844 101.7188 268 101.2969 Q268.4219 100.9531 268.4219 100.0156 Q268.4219 99.6094 268.1406 99.1406 Q267.6875 98.375 267.1562 98.3906 Q265.8281 98.4375 265.8281 100.7812 L265.8281 106.25 ZM264.75 109.5 L264.75 100.7812 Q264.75 98.3281 266.0781 98 Q266.7656 97.8125 267.25 97.8125 Q268.3438 97.8125 269.0469 98.6719 Q269.6094 99.3594 269.6094 99.9375 Q269.6094 100.7812 269.2031 101.2656 Q268.7969 101.75 268.0625 101.9844 Q269.1406 102.1406 269.75 102.7812 Q270.3281 103.4062 270.3281 104.6328 Q270.3281 105.8594 269.5078 106.5156 Q268.6875 107.1719 267.1406 107.1719 Q266.1875 107.1719 265.8281 107.0312 L265.8281 109.5 L264.75 109.5 Z" style="fill:black; stroke:none;" /></g><g ID="r-1:3" style="fill:white; text-rendering:optimizeSpeed; stroke:white;" wurcs_mono_id="11"><polygon points=" 353 52 342 30 364 30" style="stroke:none; clip-path:url(#clipPath11);" /><rect height="22" style="clip-path:url(#clipPath11); fill:rgb(237,28,36); stroke:none;" width="22" x="342" y="30" /><rect height="22" style="clip-path:url(#clipPath11); fill:none; stroke:black;" width="22" x="342" y="30" /><polygon points=" 353 52 342 30 364 30" style="fill:none; stroke:black;" /></g><g ID="li-1:1,2" style="fill:white; text-rendering:optimizeSpeed; font-family:'Serif'; stroke:white;"><rect height="9" style="stroke:none;" width="8" x="330" y="96" /><path d="M334.1875 102.0312 L334.1875 97.375 L331.2031 102.0312 L334.1875 102.0312 ZM336.7656 105 L332.7812 105 L332.7812 104.375 L334.1875 104.375 L334.1875 102.6562 L330.375 102.6562 L330.375 102.0156 L334.2031 96.0938 L335.3594 96.0938 L335.3594 102.0312 L337.0312 102.0312 L337.0312 102.6562 L335.3594 102.6562 L335.3594 104.375 L336.7656 104.375 L336.7656 105 Z" style="fill:black; stroke:none;" /><rect height="13" style="stroke:none;" width="7" x="316" y="94" /><path d="M317.8281 106.25 Q318.2969 106.5938 319.1719 106.5938 Q320.0625 106.5938 320.5781 106.0703 Q321.0938 105.5469 321.0938 104.6562 Q321.0938 103.4219 320.5625 102.8906 Q320.0156 102.3594 319 102.3594 L318.4375 102.3594 L318.4375 101.7188 L318.7344 101.7188 Q319.4844 101.7188 320 101.2969 Q320.4219 100.9531 320.4219 100.0156 Q320.4219 99.6094 320.1406 99.1406 Q319.6875 98.375 319.1562 98.3906 Q317.8281 98.4375 317.8281 100.7812 L317.8281 106.25 ZM316.75 109.5 L316.75 100.7812 Q316.75 98.3281 318.0781 98 Q318.7656 97.8125 319.25 97.8125 Q320.3438 97.8125 321.0469 98.6719 Q321.6094 99.3594 321.6094 99.9375 Q321.6094 100.7812 321.2031 101.2656 Q320.7969 101.75 320.0625 101.9844 Q321.1406 102.1406 321.75 102.7812 Q322.3281 103.4062 322.3281 104.6328 Q322.3281 105.8594 321.5078 106.5156 Q320.6875 107.1719 319.1406 107.1719 Q318.1875 107.1719 317.8281 107.0312 L317.8281 109.5 L316.75 109.5 Z" style="fill:black; stroke:none;" /></g><g ID="li-1:1,3" style="fill:white; text-rendering:optimizeSpeed; font-family:'Serif'; stroke:white;"><rect height="10" style="stroke:none;" width="7" x="341" y="69" /><path d="M344.9219 78.5938 Q345.75 78.5938 346.1953 77.9844 Q346.6406 77.375 346.6406 76.2344 Q346.6406 75.1094 346.1953 74.5 Q345.75 73.8906 344.9219 73.8906 Q344.0938 73.8906 343.6484 74.4766 Q343.2031 75.0625 343.2031 76.1719 Q343.2031 77.3281 343.6484 77.9609 Q344.0938 78.5938 344.9219 78.5938 ZM343.0156 74.1875 Q343.4219 73.75 343.9219 73.5312 Q344.4219 73.3125 345.0625 73.3125 Q346.3594 73.3125 347.1172 74.0938 Q347.875 74.875 347.875 76.2344 Q347.875 77.5625 347.0625 78.3672 Q346.25 79.1719 344.875 79.1719 Q343.3906 79.1719 342.5938 78.0625 Q341.7969 76.9531 341.7969 74.9062 Q341.7969 72.6094 342.7422 71.3516 Q343.6875 70.0938 345.4062 70.0938 Q345.875 70.0938 346.3828 70.1797 Q346.8906 70.2656 347.4219 70.4375 L347.4219 71.8906 L346.7656 71.8906 Q346.6875 71.2969 346.3047 70.9844 Q345.9219 70.6719 345.2812 70.6719 Q344.1406 70.6719 343.5859 71.5312 Q343.0312 72.3906 343.0156 74.1875 Z" style="fill:black; stroke:none;" /><rect height="10" style="stroke:none;" width="6" x="342" y="55" /><path d="M344.1094 64.3906 Q344.1094 64.0625 344.3359 63.8359 Q344.5625 63.6094 344.8906 63.6094 Q345.2188 63.6094 345.4453 63.8359 Q345.6719 64.0625 345.6719 64.3906 Q345.6719 64.7188 345.4453 64.9453 Q345.2188 65.1719 344.8906 65.1719 Q344.5625 65.1719 344.3359 64.9453 Q344.1094 64.7188 344.1094 64.3906 ZM342.8125 56.6406 Q343.4375 56.3594 344 56.2266 Q344.5625 56.0938 345.0469 56.0938 Q346.3438 56.0938 347.1016 56.7188 Q347.8594 57.3438 347.8594 58.4062 Q347.8594 59.5 347.2109 60.1953 Q346.5625 60.8906 345.25 61.1875 L345.25 62.6719 L344.5312 62.6719 L344.5312 60.75 Q345.5625 60.5 346.0938 59.9062 Q346.625 59.3125 346.625 58.4062 Q346.625 57.5938 346.1953 57.1328 Q345.7656 56.6719 345.0312 56.6719 Q344.3594 56.6719 343.9297 57.0547 Q343.5 57.4375 343.3906 58.1562 L342.8125 58.1562 L342.8125 56.6406 Z" style="fill:black; stroke:none;" /></g></g></svg>