<svg xmlns="http://www.w3.org/2000/svg" style="fill-opacity:1; color-rendering:auto; color-interpolation:auto; text-rendering:auto; stroke:black; stroke-linecap:square; stroke-miterlimit:10; shape-rendering:auto; stroke-opacity:1; fill:black; stroke-dasharray:none; font-weight:normal; stroke-width:1; font-family:'Dialog'; font-style:normal; stroke-linejoin:miter; font-size:12px; stroke-dashoffset:0; image-rendering:auto;"><defs id="genericDefs" /><g><defs id="defs1"><clipPath clipPathUnits="userSpaceOnUse" id="clipPath1"><path d="M290 108 L312 108 L312 130 L290 130 L290 108 Z" /></clipPath><clipPath clipPathUnits="userSpaceOnUse" id="clipPath2"><path d="M238 108 L260 108 L260 130 L238 130 L238 108 Z" /></clipPath><clipPath clipPathUnits="userSpaceOnUse" id="clipPath3"><path d="M208 119 C208 125.0751 203.0751 130 197 130 C190.9249 130 186 125.0751 186 119 C186 112.9249 190.9249 108 197 108 C203.0751 108 208 112.9249 208 119 Z" /></clipPath><clipPath clipPathUnits="userSpaceOnUse" id="clipPath4"><path d="M156 197 C156 203.0751 151.0751 208 145 208 C138.9249 208 134 203.0751 134 197 C134 190.9249 138.9249 186 145 186 C151.0751 186 156 190.9249 156 197 Z" /></clipPath><clipPath clipPathUnits="userSpaceOnUse" id="clipPath5"><path d="M82 238 L104 238 L104 260 L82 260 L82 238 Z" /></clipPath><clipPath clipPathUnits="userSpaceOnUse" id="clipPath6"><path d="M52 249 C52 255.0751 47.0751 260 41 260 C34.9249 260 30 255.0751 30 249 C30 242.9249 34.9249 238 41 238 C47.0751 238 52 242.9249 52 249 Z" /></clipPath><clipPath clipPathUnits="userSpaceOnUse" id="clipPath7"><path d="M93 290 L104 312 L82 312 Z" style="fill-rule:evenodd;" /></clipPath><clipPath clipPathUnits="userSpaceOnUse" id="clipPath8"><path d="M82 134 L104 134 L104 156 L82 156 L82 134 Z" /></clipPath><clipPath clipPathUnits="userSpaceOnUse" id="clipPath9"><path d="M52 145 C52 151.0751 47.0751 156 41 156 C34.9249 156 30 151.0751 30 145 C30 138.9249 34.9249 134 41 134 C47.0751 134 52 138.9249 52 145 Z" /></clipPath><clipPath clipPathUnits="userSpaceOnUse" id="clipPath10"><path d="M93 186 L104 208 L82 208 Z" style="fill-rule:evenodd;" /></clipPath><clipPath clipPathUnits="userSpaceOnUse" id="clipPath11"><path d="M156 41 C156 47.0751 151.0751 52 145 52 C138.9249 52 134 47.0751 134 41 C134 34.9249 138.9249 30 145 30 C151.0751 30 156 34.9249 156 41 Z" /></clipPath><clipPath clipPathUnits="userSpaceOnUse" id="clipPath12"><path d="M82 30 L104 30 L104 52 L82 52 L82 30 Z" /></clipPath><clipPath clipPathUnits="userSpaceOnUse" id="clipPath13"><path d="M52 41 C52 47.0751 47.0751 52 41 52 C34.9249 52 30 47.0751 30 41 C30 34.9249 34.9249 30 41 30 C47.0751 30 52 34.9249 52 41 Z" /></clipPath><clipPath clipPathUnits="userSpaceOnUse" id="clipPath14"><path d="M93 82 L104 104 L82 104 Z" style="fill-rule:evenodd;" /></clipPath><clipPath clipPathUnits="userSpaceOnUse" id="clipPath15"><path d="M301 78 L290 56 L312 56 Z" style="fill-rule:evenodd;" /></clipPath></defs><g style="fill:white; text-rendering:optimizeSpeed; stroke:white;"><rect height="342" style="stroke:none;" width="342" x="0" y="0" /></g><g ID="l-1:1,2" style="text-rendering:optimizeSpeed;"><polygon points=" 301 119 249 119" style="fill:none;" /></g><g ID="l-1:1,3" style="text-rendering:optimizeSpeed;"><polygon points=" 301 119 301 67" style="fill:none;" /></g><g ID="r-1:1" style="fill:white; text-rendering:optimizeSpeed; stroke:white;" wurcs_mono_id="1"><rect height="22" style="clip-path:url(#clipPath1); stroke:none;" width="22" x="290" y="108" /><rect height="22" style="clip-path:url(#clipPath1); fill:rgb(0,144,188); stroke:none;" width="22" x="290" y="108" /><rect height="22" style="clip-path:url(#clipPath1); fill:none; stroke:black;" width="22" x="290" y="108" /><rect height="22" style="fill:none; stroke:black;" width="22" x="290" y="108" /></g><g ID="l-1:2,4" style="text-rendering:optimizeSpeed;"><polygon points=" 249 119 197 119" style="fill:none;" /></g><g ID="r-1:2" style="fill:white; text-rendering:optimizeSpeed; stroke:white;" wurcs_mono_id="2"><rect height="22" style="clip-path:url(#clipPath2); stroke:none;" width="22" x="238" y="108" /><rect height="22" style="clip-path:url(#clipPath2); fill:rgb(0,144,188); stroke:none;" width="22" x="238" y="108" /><rect height="22" style="clip-path:url(#clipPath2); fill:none; stroke:black;" width="22" x="238" y="108" /><rect height="22" style="fill:none; stroke:black;" width="22" x="238" y="108" /></g><g ID="l-1:4,5" style="text-rendering:optimizeSpeed;"><polygon points=" 197 119 145 197" style="fill:none;" /></g><g ID="l-1:4,6" style="text-rendering:optimizeSpeed;"><polygon points=" 197 119 145 41" style="fill:none;" /></g><g ID="r-1:4" style="fill:white; text-rendering:optimizeSpeed; stroke:white;" wurcs_mono_id="3"><circle cx="197" cy="119" r="11" style="clip-path:url(#clipPath3); stroke:none;" /><rect height="22" style="clip-path:url(#clipPath3); fill:rgb(0,166,81); stroke:none;" width="22" x="186" y="108" /><rect height="22" style="clip-path:url(#clipPath3); fill:none; stroke:black;" width="22" x="186" y="108" /><circle cx="197" cy="119" r="11" style="fill:none; stroke:black;" /></g><g ID="l-1:5,7" style="text-rendering:optimizeSpeed;"><polygon points=" 145 197 93 249" style="fill:none;" /></g><g ID="l-1:5,8" style="text-rendering:optimizeSpeed;"><polygon points=" 145 197 93 145" style="fill:none;" /></g><g ID="r-1:5" style="fill:white; text-rendering:optimizeSpeed; stroke:white;" wurcs_mono_id="4"><circle cx="145" cy="197" r="11" style="clip-path:url(#clipPath4); stroke:none;" /><rect height="22" style="clip-path:url(#clipPath4); fill:rgb(0,166,81); stroke:none;" width="22" x="134" y="186" /><rect height="22" style="clip-path:url(#clipPath4); fill:none; stroke:black;" width="22" x="134" y="186" /><circle cx="145" cy="197" r="11" style="fill:none; stroke:black;" /></g><g ID="l-1:7,9" style="text-rendering:optimizeSpeed;"><polygon points=" 93 249 41 249" style="fill:none;" /></g><g ID="l-1:7,10" style="text-rendering:optimizeSpeed;"><polygon points=" 93 249 93 301" style="fill:none;" /></g><g ID="r-1:7" style="fill:white; text-rendering:optimizeSpeed; stroke:white;" wurcs_mono_id="8"><rect height="22" style="clip-path:url(#clipPath5); stroke:none;" width="22" x="82" y="238" /><rect height="22" style="clip-path:url(#clipPath5); fill:rgb(0,144,188); stroke:none;" width="22" x="82" y="238" /><rect height="22" style="clip-path:url(#clipPath5); fill:none; stroke:black;" width="22" x="82" y="238" /><rect height="22" style="fill:none; stroke:black;" width="22" x="82" y="238" /></g><g ID="r-1:9" style="fill:white; text-rendering:optimizeSpeed; stroke:white;" wurcs_mono_id="9"><circle cx="41" cy="249" r="11" style="clip-path:url(#clipPath6); stroke:none;" /><rect height="22" style="clip-path:url(#clipPath6); fill:rgb(255,212,0); stroke:none;" width="22" x="30" y="238" /><rect height="22" style="clip-path:url(#clipPath6); fill:none; stroke:black;" width="22" x="30" y="238" /><circle cx="41" cy="249" r="11" style="fill:none; stroke:black;" /></g><g ID="r-1:10" style="fill:white; text-rendering:optimizeSpeed; stroke:white;" wurcs_mono_id="10"><polygon points=" 93 290 104 312 82 312" style="stroke:none; clip-path:url(#clipPath7);" /><rect height="22" style="clip-path:url(#clipPath7); fill:rgb(237,28,36); stroke:none;" width="22" x="82" y="290" /><rect height="22" style="clip-path:url(#clipPath7); fill:none; stroke:black;" width="22" x="82" y="290" /><polygon points=" 93 290 104 312 82 312" style="fill:none; stroke:black;" /></g><g ID="li-1:7,9" style="fill:white; text-rendering:optimizeSpeed; font-family:'Serif'; stroke:white;"><rect height="10" style="stroke:none;" width="6" x="71" y="252" /><path d="M73.1094 261.3906 Q73.1094 261.0625 73.3359 260.8359 Q73.5625 260.6094 73.8906 260.6094 Q74.2188 260.6094 74.4453 260.8359 Q74.6719 261.0625 74.6719 261.3906 Q74.6719 261.7188 74.4453 261.9453 Q74.2188 262.1719 73.8906 262.1719 Q73.5625 262.1719 73.3359 261.9453 Q73.1094 261.7188 73.1094 261.3906 ZM71.8125 253.6406 Q72.4375 253.3594 73 253.2266 Q73.5625 253.0938 74.0469 253.0938 Q75.3438 253.0938 76.1016 253.7188 Q76.8594 254.3438 76.8594 255.4062 Q76.8594 256.5 76.2109 257.1953 Q75.5625 257.8906 74.25 258.1875 L74.25 259.6719 L73.5312 259.6719 L73.5312 257.75 Q74.5625 257.5 75.0938 256.9062 Q75.625 256.3125 75.625 255.4062 Q75.625 254.5938 75.1953 254.1328 Q74.7656 253.6719 74.0312 253.6719 Q73.3594 253.6719 72.9297 254.0547 Q72.5 254.4375 72.3906 255.1562 L71.8125 255.1562 L71.8125 253.6406 Z" style="fill:black; stroke:none;" /><rect height="10" style="stroke:none;" width="6" x="57" y="252" /><path d="M59.1094 261.3906 Q59.1094 261.0625 59.3359 260.8359 Q59.5625 260.6094 59.8906 260.6094 Q60.2188 260.6094 60.4453 260.8359 Q60.6719 261.0625 60.6719 261.3906 Q60.6719 261.7188 60.4453 261.9453 Q60.2188 262.1719 59.8906 262.1719 Q59.5625 262.1719 59.3359 261.9453 Q59.1094 261.7188 59.1094 261.3906 ZM57.8125 253.6406 Q58.4375 253.3594 59 253.2266 Q59.5625 253.0938 60.0469 253.0938 Q61.3438 253.0938 62.1016 253.7188 Q62.8594 254.3438 62.8594 255.4062 Q62.8594 256.5 62.2109 257.1953 Q61.5625 257.8906 60.25 258.1875 L60.25 259.6719 L59.5312 259.6719 L59.5312 257.75 Q60.5625 257.5 61.0938 256.9062 Q61.625 256.3125 61.625 255.4062 Q61.625 254.5938 61.1953 254.1328 Q60.7656 253.6719 60.0312 253.6719 Q59.3594 253.6719 58.9297 254.0547 Q58.5 254.4375 58.3906 255.1562 L57.8125 255.1562 L57.8125 253.6406 Z" style="fill:black; stroke:none;" /></g><g ID="li-1:7,10" style="fill:white; text-rendering:optimizeSpeed; font-family:'Serif'; stroke:white;"><rect height="10" style="stroke:none;" width="7" x="97" y="263" /><path d="M98.1719 264.625 Q98.8594 264.3594 99.4844 264.2266 Q100.1094 264.0938 100.6562 264.0938 Q101.9531 264.0938 102.6719 264.6484 Q103.3906 265.2031 103.3906 266.1875 Q103.3906 266.9688 102.8906 267.5 Q102.3906 268.0312 101.4844 268.2188 Q102.5625 268.375 103.1562 269.0078 Q103.75 269.6406 103.75 270.6406 Q103.75 271.8594 102.9219 272.5156 Q102.0938 273.1719 100.5469 273.1719 Q99.8594 273.1719 99.2109 273.0234 Q98.5625 272.875 97.9219 272.5781 L97.9219 270.875 L98.5781 270.875 Q98.625 271.7188 99.1406 272.1562 Q99.6562 272.5938 100.5781 272.5938 Q101.4688 272.5938 101.9922 272.0703 Q102.5156 271.5469 102.5156 270.6562 Q102.5156 269.625 101.9766 269.0938 Q101.4375 268.5625 100.4062 268.5625 L99.8594 268.5625 L99.8594 267.9531 L100.1406 267.9531 Q101.1719 267.9531 101.6875 267.5312 Q102.2031 267.1094 102.2031 266.25 Q102.2031 265.4844 101.7812 265.0781 Q101.3594 264.6719 100.5625 264.6719 Q99.7656 264.6719 99.3359 265.0469 Q98.9062 265.4219 98.8281 266.1562 L98.1719 266.1562 L98.1719 264.625 Z" style="fill:black; stroke:none;" /><rect height="8" style="stroke:none;" width="8" x="97" y="278" /><path d="M102.1875 284.4688 L101.9531 285.1094 Q101.7656 285.625 101.2031 285.9375 Q100.8438 286.1562 100.2031 286.1406 Q99.0469 286.1406 98.3281 285.2344 Q97.5938 284.3281 97.5938 282.8594 Q97.5938 281.4219 98.3281 280.4844 Q99.0156 279.5938 100.4531 279.6094 Q101.4531 279.6094 101.9531 280 Q102.4062 280.3438 102.5781 281.0938 L102.625 281.3125 L102.8438 280.6719 Q103.0625 280.0469 103.6562 279.75 L104.25 279.75 L104.25 280.0938 Q103.6875 280.2656 103.5 280.8125 L102.8906 282.4844 L103.2969 284.2812 Q103.5 285.2031 103.7344 285.2969 Q104.0469 285.4375 104.7812 285 L104.7812 285.7188 Q103.5938 286.4062 102.75 285.6875 Q102.375 285.3594 102.2656 284.875 L102.1875 284.4688 ZM101.9219 283.3125 L101.5625 281.5938 Q101.2656 280.2188 100.4688 280.2188 Q99.7969 280.2031 99.2812 280.9375 Q98.8594 281.5156 98.8594 282.875 Q98.8594 284.1719 99.2812 284.8281 Q99.75 285.5469 100.5312 285.5 Q101.2031 285.4375 101.6875 284 L101.9219 283.3125 Z" style="fill:black; stroke:none;" /></g><g ID="l-1:8,11" style="text-rendering:optimizeSpeed;"><polygon points=" 93 145 41 145" style="fill:none;" /></g><g ID="l-1:8,12" style="text-rendering:optimizeSpeed;"><polygon points=" 93 145 93 197" style="fill:none;" /></g><g ID="r-1:8" style="fill:white; text-rendering:optimizeSpeed; stroke:white;" wurcs_mono_id="5"><rect height="22" style="clip-path:url(#clipPath8); stroke:none;" width="22" x="82" y="134" /><rect height="22" style="clip-path:url(#clipPath8); fill:rgb(0,144,188); stroke:none;" width="22" x="82" y="134" /><rect height="22" style="clip-path:url(#clipPath8); fill:none; stroke:black;" width="22" x="82" y="134" /><rect height="22" style="fill:none; stroke:black;" width="22" x="82" y="134" /></g><g ID="r-1:11" style="fill:white; text-rendering:optimizeSpeed; stroke:white;" wurcs_mono_id="6"><circle cx="41" cy="145" r="11" style="clip-path:url(#clipPath9); stroke:none;" /><rect height="22" style="clip-path:url(#clipPath9); fill:rgb(255,212,0); stroke:none;" width="22" x="30" y="134" /><rect height="22" style="clip-path:url(#clipPath9); fill:none; stroke:black;" width="22" x="30" y="134" /><circle cx="41" cy="145" r="11" style="fill:none; stroke:black;" /></g><g ID="r-1:12" style="fill:white; text-rendering:optimizeSpeed; stroke:white;" wurcs_mono_id="7"><polygon points=" 93 186 104 208 82 208" style="stroke:none; clip-path:url(#clipPath10);" /><rect height="22" style="clip-path:url(#clipPath10); fill:rgb(237,28,36); stroke:none;" width="22" x="82" y="186" /><rect height="22" style="clip-path:url(#clipPath10); fill:none; stroke:black;" width="22" x="82" y="186" /><polygon points=" 93 186 104 208 82 208" style="fill:none; stroke:black;" /></g><g ID="li-1:8,11" style="fill:white; text-rendering:optimizeSpeed; font-family:'Serif'; stroke:white;"><rect height="10" style="stroke:none;" width="6" x="71" y="148" /><path d="M73.1094 157.3906 Q73.1094 157.0625 73.3359 156.8359 Q73.5625 156.6094 73.8906 156.6094 Q74.2188 156.6094 74.4453 156.8359 Q74.6719 157.0625 74.6719 157.3906 Q74.6719 157.7188 74.4453 157.9453 Q74.2188 158.1719 73.8906 158.1719 Q73.5625 158.1719 73.3359 157.9453 Q73.1094 157.7188 73.1094 157.3906 ZM71.8125 149.6406 Q72.4375 149.3594 73 149.2266 Q73.5625 149.0938 74.0469 149.0938 Q75.3438 149.0938 76.1016 149.7188 Q76.8594 150.3438 76.8594 151.4062 Q76.8594 152.5 76.2109 153.1953 Q75.5625 153.8906 74.25 154.1875 L74.25 155.6719 L73.5312 155.6719 L73.5312 153.75 Q74.5625 153.5 75.0938 152.9062 Q75.625 152.3125 75.625 151.4062 Q75.625 150.5938 75.1953 150.1328 Q74.7656 149.6719 74.0312 149.6719 Q73.3594 149.6719 72.9297 150.0547 Q72.5 150.4375 72.3906 151.1562 L71.8125 151.1562 L71.8125 149.6406 Z" style="fill:black; stroke:none;" /><rect height="10" style="stroke:none;" width="6" x="57" y="148" /><path d="M59.1094 157.3906 Q59.1094 157.0625 59.3359 156.8359 Q59.5625 156.6094 59.8906 156.6094 Q60.2188 156.6094 60.4453 156.8359 Q60.6719 157.0625 60.6719 157.3906 Q60.6719 157.7188 60.4453 157.9453 Q60.2188 158.1719 59.8906 158.1719 Q59.5625 158.1719 59.3359 157.9453 Q59.1094 157.7188 59.1094 157.3906 ZM57.8125 149.6406 Q58.4375 149.3594 59 149.2266 Q59.5625 149.0938 60.0469 149.0938 Q61.3438 149.0938 62.1016 149.7188 Q62.8594 150.3438 62.8594 151.4062 Q62.8594 152.5 62.2109 153.1953 Q61.5625 153.8906 60.25 154.1875 L60.25 155.6719 L59.5312 155.6719 L59.5312 153.75 Q60.5625 153.5 61.0938 152.9062 Q61.625 152.3125 61.625 151.4062 Q61.625 150.5938 61.1953 150.1328 Q60.7656 149.6719 60.0312 149.6719 Q59.3594 149.6719 58.9297 150.0547 Q58.5 150.4375 58.3906 151.1562 L57.8125 151.1562 L57.8125 149.6406 Z" style="fill:black; stroke:none;" /></g><g ID="li-1:8,12" style="fill:white; text-rendering:optimizeSpeed; font-family:'Serif'; stroke:white;"><rect height="10" style="stroke:none;" width="7" x="97" y="159" /><path d="M98.1719 160.625 Q98.8594 160.3594 99.4844 160.2266 Q100.1094 160.0938 100.6562 160.0938 Q101.9531 160.0938 102.6719 160.6484 Q103.3906 161.2031 103.3906 162.1875 Q103.3906 162.9688 102.8906 163.5 Q102.3906 164.0312 101.4844 164.2188 Q102.5625 164.375 103.1562 165.0078 Q103.75 165.6406 103.75 166.6406 Q103.75 167.8594 102.9219 168.5156 Q102.0938 169.1719 100.5469 169.1719 Q99.8594 169.1719 99.2109 169.0234 Q98.5625 168.875 97.9219 168.5781 L97.9219 166.875 L98.5781 166.875 Q98.625 167.7188 99.1406 168.1562 Q99.6562 168.5938 100.5781 168.5938 Q101.4688 168.5938 101.9922 168.0703 Q102.5156 167.5469 102.5156 166.6562 Q102.5156 165.625 101.9766 165.0938 Q101.4375 164.5625 100.4062 164.5625 L99.8594 164.5625 L99.8594 163.9531 L100.1406 163.9531 Q101.1719 163.9531 101.6875 163.5312 Q102.2031 163.1094 102.2031 162.25 Q102.2031 161.4844 101.7812 161.0781 Q101.3594 160.6719 100.5625 160.6719 Q99.7656 160.6719 99.3359 161.0469 Q98.9062 161.4219 98.8281 162.1562 L98.1719 162.1562 L98.1719 160.625 Z" style="fill:black; stroke:none;" /><rect height="8" style="stroke:none;" width="8" x="97" y="174" /><path d="M102.1875 180.4688 L101.9531 181.1094 Q101.7656 181.625 101.2031 181.9375 Q100.8438 182.1562 100.2031 182.1406 Q99.0469 182.1406 98.3281 181.2344 Q97.5938 180.3281 97.5938 178.8594 Q97.5938 177.4219 98.3281 176.4844 Q99.0156 175.5938 100.4531 175.6094 Q101.4531 175.6094 101.9531 176 Q102.4062 176.3438 102.5781 177.0938 L102.625 177.3125 L102.8438 176.6719 Q103.0625 176.0469 103.6562 175.75 L104.25 175.75 L104.25 176.0938 Q103.6875 176.2656 103.5 176.8125 L102.8906 178.4844 L103.2969 180.2812 Q103.5 181.2031 103.7344 181.2969 Q104.0469 181.4375 104.7812 181 L104.7812 181.7188 Q103.5938 182.4062 102.75 181.6875 Q102.375 181.3594 102.2656 180.875 L102.1875 180.4688 ZM101.9219 179.3125 L101.5625 177.5938 Q101.2656 176.2188 100.4688 176.2188 Q99.7969 176.2031 99.2812 176.9375 Q98.8594 177.5156 98.8594 178.875 Q98.8594 180.1719 99.2812 180.8281 Q99.75 181.5469 100.5312 181.5 Q101.2031 181.4375 101.6875 180 L101.9219 179.3125 Z" style="fill:black; stroke:none;" /></g><g ID="li-1:5,7" style="fill:white; text-rendering:optimizeSpeed; font-family:'Serif'; stroke:white;"><rect height="10" style="stroke:none;" width="6" x="131" y="214" /><path d="M133.1094 223.3906 Q133.1094 223.0625 133.3359 222.8359 Q133.5625 222.6094 133.8906 222.6094 Q134.2188 222.6094 134.4453 222.8359 Q134.6719 223.0625 134.6719 223.3906 Q134.6719 223.7188 134.4453 223.9453 Q134.2188 224.1719 133.8906 224.1719 Q133.5625 224.1719 133.3359 223.9453 Q133.1094 223.7188 133.1094 223.3906 ZM131.8125 215.6406 Q132.4375 215.3594 133 215.2266 Q133.5625 215.0938 134.0469 215.0938 Q135.3438 215.0938 136.1016 215.7188 Q136.8594 216.3438 136.8594 217.4062 Q136.8594 218.5 136.2109 219.1953 Q135.5625 219.8906 134.25 220.1875 L134.25 221.6719 L133.5312 221.6719 L133.5312 219.75 Q134.5625 219.5 135.0938 218.9062 Q135.625 218.3125 135.625 217.4062 Q135.625 216.5938 135.1953 216.1328 Q134.7656 215.6719 134.0312 215.6719 Q133.3594 215.6719 132.9297 216.0547 Q132.5 216.4375 132.3906 217.1562 L131.8125 217.1562 L131.8125 215.6406 Z" style="fill:black; stroke:none;" /><rect height="10" style="stroke:none;" width="6" x="112" y="233" /><path d="M114.1094 242.3906 Q114.1094 242.0625 114.3359 241.8359 Q114.5625 241.6094 114.8906 241.6094 Q115.2188 241.6094 115.4453 241.8359 Q115.6719 242.0625 115.6719 242.3906 Q115.6719 242.7188 115.4453 242.9453 Q115.2188 243.1719 114.8906 243.1719 Q114.5625 243.1719 114.3359 242.9453 Q114.1094 242.7188 114.1094 242.3906 ZM112.8125 234.6406 Q113.4375 234.3594 114 234.2266 Q114.5625 234.0938 115.0469 234.0938 Q116.3438 234.0938 117.1016 234.7188 Q117.8594 235.3438 117.8594 236.4062 Q117.8594 237.5 117.2109 238.1953 Q116.5625 238.8906 115.25 239.1875 L115.25 240.6719 L114.5312 240.6719 L114.5312 238.75 Q115.5625 238.5 116.0938 237.9062 Q116.625 237.3125 116.625 236.4062 Q116.625 235.5938 116.1953 235.1328 Q115.7656 234.6719 115.0312 234.6719 Q114.3594 234.6719 113.9297 235.0547 Q113.5 235.4375 113.3906 236.1562 L112.8125 236.1562 L112.8125 234.6406 Z" style="fill:black; stroke:none;" /></g><g ID="li-1:5,8" style="fill:white; text-rendering:optimizeSpeed; font-family:'Serif'; stroke:white;"><rect height="10" style="stroke:none;" width="6" x="119" y="181" /><path d="M121.1094 190.3906 Q121.1094 190.0625 121.3359 189.8359 Q121.5625 189.6094 121.8906 189.6094 Q122.2188 189.6094 122.4453 189.8359 Q122.6719 190.0625 122.6719 190.3906 Q122.6719 190.7188 122.4453 190.9453 Q122.2188 191.1719 121.8906 191.1719 Q121.5625 191.1719 121.3359 190.9453 Q121.1094 190.7188 121.1094 190.3906 ZM119.8125 182.6406 Q120.4375 182.3594 121 182.2266 Q121.5625 182.0938 122.0469 182.0938 Q123.3438 182.0938 124.1016 182.7188 Q124.8594 183.3438 124.8594 184.4062 Q124.8594 185.5 124.2109 186.1953 Q123.5625 186.8906 122.25 187.1875 L122.25 188.6719 L121.5312 188.6719 L121.5312 186.75 Q122.5625 186.5 123.0938 185.9062 Q123.625 185.3125 123.625 184.4062 Q123.625 183.5938 123.1953 183.1328 Q122.7656 182.6719 122.0312 182.6719 Q121.3594 182.6719 120.9297 183.0547 Q120.5 183.4375 120.3906 184.1562 L119.8125 184.1562 L119.8125 182.6406 Z" style="fill:black; stroke:none;" /><rect height="10" style="stroke:none;" width="6" x="101" y="162" /><path d="M103.1094 171.3906 Q103.1094 171.0625 103.3359 170.8359 Q103.5625 170.6094 103.8906 170.6094 Q104.2188 170.6094 104.4453 170.8359 Q104.6719 171.0625 104.6719 171.3906 Q104.6719 171.7188 104.4453 171.9453 Q104.2188 172.1719 103.8906 172.1719 Q103.5625 172.1719 103.3359 171.9453 Q103.1094 171.7188 103.1094 171.3906 ZM101.8125 163.6406 Q102.4375 163.3594 103 163.2266 Q103.5625 163.0938 104.0469 163.0938 Q105.3438 163.0938 106.1016 163.7188 Q106.8594 164.3438 106.8594 165.4062 Q106.8594 166.5 106.2109 167.1953 Q105.5625 167.8906 104.25 168.1875 L104.25 169.6719 L103.5312 169.6719 L103.5312 167.75 Q104.5625 167.5 105.0938 166.9062 Q105.625 166.3125 105.625 165.4062 Q105.625 164.5938 105.1953 164.1328 Q104.7656 163.6719 104.0312 163.6719 Q103.3594 163.6719 102.9297 164.0547 Q102.5 164.4375 102.3906 165.1562 L101.8125 165.1562 L101.8125 163.6406 Z" style="fill:black; stroke:none;" /></g><g ID="l-1:6,13" style="text-rendering:optimizeSpeed;"><polygon points=" 145 41 93 41" style="fill:none;" /></g><g ID="r-1:6" style="fill:white; text-rendering:optimizeSpeed; stroke:white;" wurcs_mono_id="11"><circle cx="145" cy="41" r="11" style="clip-path:url(#clipPath11); stroke:none;" /><rect height="22" style="clip-path:url(#clipPath11); fill:rgb(0,166,81); stroke:none;" width="22" x="134" y="30" /><rect height="22" style="clip-path:url(#clipPath11); fill:none; stroke:black;" width="22" x="134" y="30" /><circle cx="145" cy="41" r="11" style="fill:none; stroke:black;" /></g><g ID="l-1:13,14" style="text-rendering:optimizeSpeed;"><polygon points=" 93 41 41 41" style="fill:none;" /></g><g ID="l-1:13,15" style="text-rendering:optimizeSpeed;"><polygon points=" 93 41 93 93" style="fill:none;" /></g><g ID="r-1:13" style="fill:white; text-rendering:optimizeSpeed; stroke:white;" wurcs_mono_id="12"><rect height="22" style="clip-path:url(#clipPath12); stroke:none;" width="22" x="82" y="30" /><rect height="22" style="clip-path:url(#clipPath12); fill:rgb(0,144,188); stroke:none;" width="22" x="82" y="30" /><rect height="22" style="clip-path:url(#clipPath12); fill:none; stroke:black;" width="22" x="82" y="30" /><rect height="22" style="fill:none; stroke:black;" width="22" x="82" y="30" /></g><g ID="r-1:14" style="fill:white; text-rendering:optimizeSpeed; stroke:white;" wurcs_mono_id="13"><circle cx="41" cy="41" r="11" style="clip-path:url(#clipPath13); stroke:none;" /><rect height="22" style="clip-path:url(#clipPath13); fill:rgb(255,212,0); stroke:none;" width="22" x="30" y="30" /><rect height="22" style="clip-path:url(#clipPath13); fill:none; stroke:black;" width="22" x="30" y="30" /><circle cx="41" cy="41" r="11" style="fill:none; stroke:black;" /></g><g ID="r-1:15" style="fill:white; text-rendering:optimizeSpeed; stroke:white;" wurcs_mono_id="14"><polygon points=" 93 82 104 104 82 104" style="stroke:none; clip-path:url(#clipPath14);" /><rect height="22" style="clip-path:url(#clipPath14); fill:rgb(237,28,36); stroke:none;" width="22" x="82" y="82" /><rect height="22" style="clip-path:url(#clipPath14); fill:none; stroke:black;" width="22" x="82" y="82" /><polygon points=" 93 82 104 104 82 104" style="fill:none; stroke:black;" /></g><g ID="li-1:13,14" style="fill:white; text-rendering:optimizeSpeed; font-family:'Serif'; stroke:white;"><rect height="10" style="stroke:none;" width="6" x="71" y="44" /><path d="M73.1094 53.3906 Q73.1094 53.0625 73.3359 52.8359 Q73.5625 52.6094 73.8906 52.6094 Q74.2188 52.6094 74.4453 52.8359 Q74.6719 53.0625 74.6719 53.3906 Q74.6719 53.7188 74.4453 53.9453 Q74.2188 54.1719 73.8906 54.1719 Q73.5625 54.1719 73.3359 53.9453 Q73.1094 53.7188 73.1094 53.3906 ZM71.8125 45.6406 Q72.4375 45.3594 73 45.2266 Q73.5625 45.0938 74.0469 45.0938 Q75.3438 45.0938 76.1016 45.7188 Q76.8594 46.3438 76.8594 47.4062 Q76.8594 48.5 76.2109 49.1953 Q75.5625 49.8906 74.25 50.1875 L74.25 51.6719 L73.5312 51.6719 L73.5312 49.75 Q74.5625 49.5 75.0938 48.9062 Q75.625 48.3125 75.625 47.4062 Q75.625 46.5938 75.1953 46.1328 Q74.7656 45.6719 74.0312 45.6719 Q73.3594 45.6719 72.9297 46.0547 Q72.5 46.4375 72.3906 47.1562 L71.8125 47.1562 L71.8125 45.6406 Z" style="fill:black; stroke:none;" /><rect height="10" style="stroke:none;" width="6" x="57" y="44" /><path d="M59.1094 53.3906 Q59.1094 53.0625 59.3359 52.8359 Q59.5625 52.6094 59.8906 52.6094 Q60.2188 52.6094 60.4453 52.8359 Q60.6719 53.0625 60.6719 53.3906 Q60.6719 53.7188 60.4453 53.9453 Q60.2188 54.1719 59.8906 54.1719 Q59.5625 54.1719 59.3359 53.9453 Q59.1094 53.7188 59.1094 53.3906 ZM57.8125 45.6406 Q58.4375 45.3594 59 45.2266 Q59.5625 45.0938 60.0469 45.0938 Q61.3438 45.0938 62.1016 45.7188 Q62.8594 46.3438 62.8594 47.4062 Q62.8594 48.5 62.2109 49.1953 Q61.5625 49.8906 60.25 50.1875 L60.25 51.6719 L59.5312 51.6719 L59.5312 49.75 Q60.5625 49.5 61.0938 48.9062 Q61.625 48.3125 61.625 47.4062 Q61.625 46.5938 61.1953 46.1328 Q60.7656 45.6719 60.0312 45.6719 Q59.3594 45.6719 58.9297 46.0547 Q58.5 46.4375 58.3906 47.1562 L57.8125 47.1562 L57.8125 45.6406 Z" style="fill:black; stroke:none;" /></g><g ID="li-1:13,15" style="fill:white; text-rendering:optimizeSpeed; font-family:'Serif'; stroke:white;"><rect height="10" style="stroke:none;" width="7" x="97" y="55" /><path d="M98.1719 56.625 Q98.8594 56.3594 99.4844 56.2266 Q100.1094 56.0938 100.6562 56.0938 Q101.9531 56.0938 102.6719 56.6484 Q103.3906 57.2031 103.3906 58.1875 Q103.3906 58.9688 102.8906 59.5 Q102.3906 60.0312 101.4844 60.2188 Q102.5625 60.375 103.1562 61.0078 Q103.75 61.6406 103.75 62.6406 Q103.75 63.8594 102.9219 64.5156 Q102.0938 65.1719 100.5469 65.1719 Q99.8594 65.1719 99.2109 65.0234 Q98.5625 64.875 97.9219 64.5781 L97.9219 62.875 L98.5781 62.875 Q98.625 63.7188 99.1406 64.1562 Q99.6562 64.5938 100.5781 64.5938 Q101.4688 64.5938 101.9922 64.0703 Q102.5156 63.5469 102.5156 62.6562 Q102.5156 61.625 101.9766 61.0938 Q101.4375 60.5625 100.4062 60.5625 L99.8594 60.5625 L99.8594 59.9531 L100.1406 59.9531 Q101.1719 59.9531 101.6875 59.5312 Q102.2031 59.1094 102.2031 58.25 Q102.2031 57.4844 101.7812 57.0781 Q101.3594 56.6719 100.5625 56.6719 Q99.7656 56.6719 99.3359 57.0469 Q98.9062 57.4219 98.8281 58.1562 L98.1719 58.1562 L98.1719 56.625 Z" style="fill:black; stroke:none;" /><rect height="8" style="stroke:none;" width="8" x="97" y="70" /><path d="M102.1875 76.4688 L101.9531 77.1094 Q101.7656 77.625 101.2031 77.9375 Q100.8438 78.1562 100.2031 78.1406 Q99.0469 78.1406 98.3281 77.2344 Q97.5938 76.3281 97.5938 74.8594 Q97.5938 73.4219 98.3281 72.4844 Q99.0156 71.5938 100.4531 71.6094 Q101.4531 71.6094 101.9531 72 Q102.4062 72.3438 102.5781 73.0938 L102.625 73.3125 L102.8438 72.6719 Q103.0625 72.0469 103.6562 71.75 L104.25 71.75 L104.25 72.0938 Q103.6875 72.2656 103.5 72.8125 L102.8906 74.4844 L103.2969 76.2812 Q103.5 77.2031 103.7344 77.2969 Q104.0469 77.4375 104.7812 77 L104.7812 77.7188 Q103.5938 78.4062 102.75 77.6875 Q102.375 77.3594 102.2656 76.875 L102.1875 76.4688 ZM101.9219 75.3125 L101.5625 73.5938 Q101.2656 72.2188 100.4688 72.2188 Q99.7969 72.2031 99.2812 72.9375 Q98.8594 73.5156 98.8594 74.875 Q98.8594 76.1719 99.2812 76.8281 Q99.75 77.5469 100.5312 77.5 Q101.2031 77.4375 101.6875 76 L101.9219 75.3125 Z" style="fill:black; stroke:none;" /></g><g ID="li-1:6,13" style="fill:white; text-rendering:optimizeSpeed; font-family:'Serif'; stroke:white;"><rect height="10" style="stroke:none;" width="6" x="123" y="44" /><path d="M125.1094 53.3906 Q125.1094 53.0625 125.3359 52.8359 Q125.5625 52.6094 125.8906 52.6094 Q126.2188 52.6094 126.4453 52.8359 Q126.6719 53.0625 126.6719 53.3906 Q126.6719 53.7188 126.4453 53.9453 Q126.2188 54.1719 125.8906 54.1719 Q125.5625 54.1719 125.3359 53.9453 Q125.1094 53.7188 125.1094 53.3906 ZM123.8125 45.6406 Q124.4375 45.3594 125 45.2266 Q125.5625 45.0938 126.0469 45.0938 Q127.3438 45.0938 128.1016 45.7188 Q128.8594 46.3438 128.8594 47.4062 Q128.8594 48.5 128.2109 49.1953 Q127.5625 49.8906 126.25 50.1875 L126.25 51.6719 L125.5312 51.6719 L125.5312 49.75 Q126.5625 49.5 127.0938 48.9062 Q127.625 48.3125 127.625 47.4062 Q127.625 46.5938 127.1953 46.1328 Q126.7656 45.6719 126.0312 45.6719 Q125.3594 45.6719 124.9297 46.0547 Q124.5 46.4375 124.3906 47.1562 L123.8125 47.1562 L123.8125 45.6406 Z" style="fill:black; stroke:none;" /><rect height="10" style="stroke:none;" width="6" x="109" y="44" /><path d="M111.1094 53.3906 Q111.1094 53.0625 111.3359 52.8359 Q111.5625 52.6094 111.8906 52.6094 Q112.2188 52.6094 112.4453 52.8359 Q112.6719 53.0625 112.6719 53.3906 Q112.6719 53.7188 112.4453 53.9453 Q112.2188 54.1719 111.8906 54.1719 Q111.5625 54.1719 111.3359 53.9453 Q111.1094 53.7188 111.1094 53.3906 ZM109.8125 45.6406 Q110.4375 45.3594 111 45.2266 Q111.5625 45.0938 112.0469 45.0938 Q113.3438 45.0938 114.1016 45.7188 Q114.8594 46.3438 114.8594 47.4062 Q114.8594 48.5 114.2109 49.1953 Q113.5625 49.8906 112.25 50.1875 L112.25 51.6719 L111.5312 51.6719 L111.5312 49.75 Q112.5625 49.5 113.0938 48.9062 Q113.625 48.3125 113.625 47.4062 Q113.625 46.5938 113.1953 46.1328 Q112.7656 45.6719 112.0312 45.6719 Q111.3594 45.6719 110.9297 46.0547 Q110.5 46.4375 110.3906 47.1562 L109.8125 47.1562 L109.8125 45.6406 Z" style="fill:black; stroke:none;" /></g><g ID="li-1:4,5" style="fill:white; text-rendering:optimizeSpeed; font-family:'Serif'; stroke:white;"><rect height="10" style="stroke:none;" width="7" x="188" y="136" /><path d="M189.1719 137.625 Q189.8594 137.3594 190.4844 137.2266 Q191.1094 137.0938 191.6562 137.0938 Q192.9531 137.0938 193.6719 137.6484 Q194.3906 138.2031 194.3906 139.1875 Q194.3906 139.9688 193.8906 140.5 Q193.3906 141.0312 192.4844 141.2188 Q193.5625 141.375 194.1562 142.0078 Q194.75 142.6406 194.75 143.6406 Q194.75 144.8594 193.9219 145.5156 Q193.0938 146.1719 191.5469 146.1719 Q190.8594 146.1719 190.2109 146.0234 Q189.5625 145.875 188.9219 145.5781 L188.9219 143.875 L189.5781 143.875 Q189.625 144.7188 190.1406 145.1562 Q190.6562 145.5938 191.5781 145.5938 Q192.4688 145.5938 192.9922 145.0703 Q193.5156 144.5469 193.5156 143.6562 Q193.5156 142.625 192.9766 142.0938 Q192.4375 141.5625 191.4062 141.5625 L190.8594 141.5625 L190.8594 140.9531 L191.1406 140.9531 Q192.1719 140.9531 192.6875 140.5312 Q193.2031 140.1094 193.2031 139.25 Q193.2031 138.4844 192.7812 138.0781 Q192.3594 137.6719 191.5625 137.6719 Q190.7656 137.6719 190.3359 138.0469 Q189.9062 138.4219 189.8281 139.1562 L189.1719 139.1562 L189.1719 137.625 Z" style="fill:black; stroke:none;" /><rect height="8" style="stroke:none;" width="8" x="159" y="179" /><path d="M164.1875 185.4688 L163.9531 186.1094 Q163.7656 186.625 163.2031 186.9375 Q162.8438 187.1562 162.2031 187.1406 Q161.0469 187.1406 160.3281 186.2344 Q159.5938 185.3281 159.5938 183.8594 Q159.5938 182.4219 160.3281 181.4844 Q161.0156 180.5938 162.4531 180.6094 Q163.4531 180.6094 163.9531 181 Q164.4062 181.3438 164.5781 182.0938 L164.625 182.3125 L164.8438 181.6719 Q165.0625 181.0469 165.6562 180.75 L166.25 180.75 L166.25 181.0938 Q165.6875 181.2656 165.5 181.8125 L164.8906 183.4844 L165.2969 185.2812 Q165.5 186.2031 165.7344 186.2969 Q166.0469 186.4375 166.7812 186 L166.7812 186.7188 Q165.5938 187.4062 164.75 186.6875 Q164.375 186.3594 164.2656 185.875 L164.1875 185.4688 ZM163.9219 184.3125 L163.5625 182.5938 Q163.2656 181.2188 162.4688 181.2188 Q161.7969 181.2031 161.2812 181.9375 Q160.8594 182.5156 160.8594 183.875 Q160.8594 185.1719 161.2812 185.8281 Q161.75 186.5469 162.5312 186.5 Q163.2031 186.4375 163.6875 185 L163.9219 184.3125 Z" style="fill:black; stroke:none;" /></g><g ID="li-1:4,6" style="fill:white; text-rendering:optimizeSpeed; font-family:'Serif'; stroke:white;"><rect height="10" style="stroke:none;" width="7" x="175" y="100" /><path d="M178.9219 109.5938 Q179.75 109.5938 180.1953 108.9844 Q180.6406 108.375 180.6406 107.2344 Q180.6406 106.1094 180.1953 105.5 Q179.75 104.8906 178.9219 104.8906 Q178.0938 104.8906 177.6484 105.4766 Q177.2031 106.0625 177.2031 107.1719 Q177.2031 108.3281 177.6484 108.9609 Q178.0938 109.5938 178.9219 109.5938 ZM177.0156 105.1875 Q177.4219 104.75 177.9219 104.5312 Q178.4219 104.3125 179.0625 104.3125 Q180.3594 104.3125 181.1172 105.0938 Q181.875 105.875 181.875 107.2344 Q181.875 108.5625 181.0625 109.3672 Q180.25 110.1719 178.875 110.1719 Q177.3906 110.1719 176.5938 109.0625 Q175.7969 107.9531 175.7969 105.9062 Q175.7969 103.6094 176.7422 102.3516 Q177.6875 101.0938 179.4062 101.0938 Q179.875 101.0938 180.3828 101.1797 Q180.8906 101.2656 181.4219 101.4375 L181.4219 102.8906 L180.7656 102.8906 Q180.6875 102.2969 180.3047 101.9844 Q179.9219 101.6719 179.2812 101.6719 Q178.1406 101.6719 177.5859 102.5312 Q177.0312 103.3906 177.0156 105.1875 Z" style="fill:black; stroke:none;" /><rect height="8" style="stroke:none;" width="8" x="146" y="59" /><path d="M151.1875 65.4688 L150.9531 66.1094 Q150.7656 66.625 150.2031 66.9375 Q149.8438 67.1562 149.2031 67.1406 Q148.0469 67.1406 147.3281 66.2344 Q146.5938 65.3281 146.5938 63.8594 Q146.5938 62.4219 147.3281 61.4844 Q148.0156 60.5938 149.4531 60.6094 Q150.4531 60.6094 150.9531 61 Q151.4062 61.3438 151.5781 62.0938 L151.625 62.3125 L151.8438 61.6719 Q152.0625 61.0469 152.6562 60.75 L153.25 60.75 L153.25 61.0938 Q152.6875 61.2656 152.5 61.8125 L151.8906 63.4844 L152.2969 65.2812 Q152.5 66.2031 152.7344 66.2969 Q153.0469 66.4375 153.7812 66 L153.7812 66.7188 Q152.5938 67.4062 151.75 66.6875 Q151.375 66.3594 151.2656 65.875 L151.1875 65.4688 ZM150.9219 64.3125 L150.5625 62.5938 Q150.2656 61.2188 149.4688 61.2188 Q148.7969 61.2031 148.2812 61.9375 Q147.8594 62.5156 147.8594 63.875 Q147.8594 65.1719 148.2812 65.8281 Q148.75 66.5469 149.5312 66.5 Q150.2031 66.4375 150.6875 65 L150.9219 64.3125 Z" style="fill:black; stroke:none;" /></g><g ID="li-1:2,4" style="fill:white; text-rendering:optimizeSpeed; font-family:'Serif'; stroke:white;"><rect height="9" style="stroke:none;" width="8" x="226" y="122" /><path d="M230.1875 128.0312 L230.1875 123.375 L227.2031 128.0312 L230.1875 128.0312 ZM232.7656 131 L228.7812 131 L228.7812 130.375 L230.1875 130.375 L230.1875 128.6562 L226.375 128.6562 L226.375 128.0156 L230.2031 122.0938 L231.3594 122.0938 L231.3594 128.0312 L233.0312 128.0312 L233.0312 128.6562 L231.3594 128.6562 L231.3594 130.375 L232.7656 130.375 L232.7656 131 Z" style="fill:black; stroke:none;" /><rect height="13" style="stroke:none;" width="7" x="212" y="120" /><path d="M213.8281 132.25 Q214.2969 132.5938 215.1719 132.5938 Q216.0625 132.5938 216.5781 132.0703 Q217.0938 131.5469 217.0938 130.6562 Q217.0938 129.4219 216.5625 128.8906 Q216.0156 128.3594 215 128.3594 L214.4375 128.3594 L214.4375 127.7188 L214.7344 127.7188 Q215.4844 127.7188 216 127.2969 Q216.4219 126.9531 216.4219 126.0156 Q216.4219 125.6094 216.1406 125.1406 Q215.6875 124.375 215.1562 124.3906 Q213.8281 124.4375 213.8281 126.7812 L213.8281 132.25 ZM212.75 135.5 L212.75 126.7812 Q212.75 124.3281 214.0781 124 Q214.7656 123.8125 215.25 123.8125 Q216.3438 123.8125 217.0469 124.6719 Q217.6094 125.3594 217.6094 125.9375 Q217.6094 126.7812 217.2031 127.2656 Q216.7969 127.75 216.0625 127.9844 Q217.1406 128.1406 217.75 128.7812 Q218.3281 129.4062 218.3281 130.6328 Q218.3281 131.8594 217.5078 132.5156 Q216.6875 133.1719 215.1406 133.1719 Q214.1875 133.1719 213.8281 133.0312 L213.8281 135.5 L212.75 135.5 Z" style="fill:black; stroke:none;" /></g><g ID="r-1:3" style="fill:white; text-rendering:optimizeSpeed; stroke:white;" wurcs_mono_id="15"><polygon points=" 301 78 290 56 312 56" style="stroke:none; clip-path:url(#clipPath15);" /><rect height="22" style="clip-path:url(#clipPath15); fill:rgb(237,28,36); stroke:none;" width="22" x="290" y="56" /><rect height="22" style="clip-path:url(#clipPath15); fill:none; stroke:black;" width="22" x="290" y="56" /><polygon points=" 301 78 290 56 312 56" style="fill:none; stroke:black;" /></g><g ID="li-1:1,2" style="fill:white; text-rendering:optimizeSpeed; font-family:'Serif'; stroke:white;"><rect height="9" style="stroke:none;" width="8" x="278" y="122" /><path d="M282.1875 128.0312 L282.1875 123.375 L279.2031 128.0312 L282.1875 128.0312 ZM284.7656 131 L280.7812 131 L280.7812 130.375 L282.1875 130.375 L282.1875 128.6562 L278.375 128.6562 L278.375 128.0156 L282.2031 122.0938 L283.3594 122.0938 L283.3594 128.0312 L285.0312 128.0312 L285.0312 128.6562 L283.3594 128.6562 L283.3594 130.375 L284.7656 130.375 L284.7656 131 Z" style="fill:black; stroke:none;" /><rect height="13" style="stroke:none;" width="7" x="264" y="120" /><path d="M265.8281 132.25 Q266.2969 132.5938 267.1719 132.5938 Q268.0625 132.5938 268.5781 132.0703 Q269.0938 131.5469 269.0938 130.6562 Q269.0938 129.4219 268.5625 128.8906 Q268.0156 128.3594 267 128.3594 L266.4375 128.3594 L266.4375 127.7188 L266.7344 127.7188 Q267.4844 127.7188 268 127.2969 Q268.4219 126.9531 268.4219 126.0156 Q268.4219 125.6094 268.1406 125.1406 Q267.6875 124.375 267.1562 124.3906 Q265.8281 124.4375 265.8281 126.7812 L265.8281 132.25 ZM264.75 135.5 L264.75 126.7812 Q264.75 124.3281 266.0781 124 Q266.7656 123.8125 267.25 123.8125 Q268.3438 123.8125 269.0469 124.6719 Q269.6094 125.3594 269.6094 125.9375 Q269.6094 126.7812 269.2031 127.2656 Q268.7969 127.75 268.0625 127.9844 Q269.1406 128.1406 269.75 128.7812 Q270.3281 129.4062 270.3281 130.6328 Q270.3281 131.8594 269.5078 132.5156 Q268.6875 133.1719 267.1406 133.1719 Q266.1875 133.1719 265.8281 133.0312 L265.8281 135.5 L264.75 135.5 Z" style="fill:black; stroke:none;" /></g><g ID="li-1:1,3" style="fill:white; text-rendering:optimizeSpeed; font-family:'Serif'; stroke:white;"><rect height="10" style="stroke:none;" width="7" x="289" y="95" /><path d="M292.9219 104.5938 Q293.75 104.5938 294.1953 103.9844 Q294.6406 103.375 294.6406 102.2344 Q294.6406 101.1094 294.1953 100.5 Q293.75 99.8906 292.9219 99.8906 Q292.0938 99.8906 291.6484 100.4766 Q291.2031 101.0625 291.2031 102.1719 Q291.2031 103.3281 291.6484 103.9609 Q292.0938 104.5938 292.9219 104.5938 ZM291.0156 100.1875 Q291.4219 99.75 291.9219 99.5312 Q292.4219 99.3125 293.0625 99.3125 Q294.3594 99.3125 295.1172 100.0938 Q295.875 100.875 295.875 102.2344 Q295.875 103.5625 295.0625 104.3672 Q294.25 105.1719 292.875 105.1719 Q291.3906 105.1719 290.5938 104.0625 Q289.7969 102.9531 289.7969 100.9062 Q289.7969 98.6094 290.7422 97.3516 Q291.6875 96.0938 293.4062 96.0938 Q293.875 96.0938 294.3828 96.1797 Q294.8906 96.2656 295.4219 96.4375 L295.4219 97.8906 L294.7656 97.8906 Q294.6875 97.2969 294.3047 96.9844 Q293.9219 96.6719 293.2812 96.6719 Q292.1406 96.6719 291.5859 97.5312 Q291.0312 98.3906 291.0156 100.1875 Z" style="fill:black; stroke:none;" /><rect height="8" style="stroke:none;" width="8" x="289" y="82" /><path d="M294.1875 88.4688 L293.9531 89.1094 Q293.7656 89.625 293.2031 89.9375 Q292.8438 90.1562 292.2031 90.1406 Q291.0469 90.1406 290.3281 89.2344 Q289.5938 88.3281 289.5938 86.8594 Q289.5938 85.4219 290.3281 84.4844 Q291.0156 83.5938 292.4531 83.6094 Q293.4531 83.6094 293.9531 84 Q294.4062 84.3438 294.5781 85.0938 L294.625 85.3125 L294.8438 84.6719 Q295.0625 84.0469 295.6562 83.75 L296.25 83.75 L296.25 84.0938 Q295.6875 84.2656 295.5 84.8125 L294.8906 86.4844 L295.2969 88.2812 Q295.5 89.2031 295.7344 89.2969 Q296.0469 89.4375 296.7812 89 L296.7812 89.7188 Q295.5938 90.4062 294.75 89.6875 Q294.375 89.3594 294.2656 88.875 L294.1875 88.4688 ZM293.9219 87.3125 L293.5625 85.5938 Q293.2656 84.2188 292.4688 84.2188 Q291.7969 84.2031 291.2812 84.9375 Q290.8594 85.5156 290.8594 86.875 Q290.8594 88.1719 291.2812 88.8281 Q291.75 89.5469 292.5312 89.5 Q293.2031 89.4375 293.6875 88 L293.9219 87.3125 Z" style="fill:black; stroke:none;" /></g></g></svg>