<svg xmlns="http://www.w3.org/2000/svg" style="fill-opacity:1; color-rendering:auto; color-interpolation:auto; text-rendering:auto; stroke:black; stroke-linecap:square; stroke-miterlimit:10; shape-rendering:auto; stroke-opacity:1; fill:black; stroke-dasharray:none; font-weight:normal; stroke-width:1; font-family:'Dialog'; font-style:normal; stroke-linejoin:miter; font-size:12px; stroke-dashoffset:0; image-rendering:auto;"><defs id="genericDefs" /><g><defs id="defs1"><clipPath clipPathUnits="userSpaceOnUse" id="clipPath1"><path d="M342 108 L364 108 L364 130 L342 130 L342 108 Z" /></clipPath><clipPath clipPathUnits="userSpaceOnUse" id="clipPath2"><path d="M290 108 L312 108 L312 130 L290 130 L290 108 Z" /></clipPath><clipPath clipPathUnits="userSpaceOnUse" id="clipPath3"><path d="M260 119 C260 125.0751 255.0751 130 249 130 C242.9249 130 238 125.0751 238 119 C238 112.9249 242.9249 108 249 108 C255.0751 108 260 112.9249 260 119 Z" /></clipPath><clipPath clipPathUnits="userSpaceOnUse" id="clipPath4"><path d="M208 145 C208 151.0751 203.0751 156 197 156 C190.9249 156 186 151.0751 186 145 C186 138.9249 190.9249 134 197 134 C203.0751 134 208 138.9249 208 145 Z" /></clipPath><clipPath clipPathUnits="userSpaceOnUse" id="clipPath5"><path d="M134 134 L156 134 L156 156 L134 156 L134 134 Z" /></clipPath><clipPath clipPathUnits="userSpaceOnUse" id="clipPath6"><path d="M104 145 C104 151.0751 99.0751 156 93 156 C86.9249 156 82 151.0751 82 145 C82 138.9249 86.9249 134 93 134 C99.0751 134 104 138.9249 104 145 Z" /></clipPath><clipPath clipPathUnits="userSpaceOnUse" id="clipPath7"><path d="M41 134 L52 145 L41 156 L30 145 Z" style="fill-rule:evenodd;" /></clipPath><clipPath clipPathUnits="userSpaceOnUse" id="clipPath8"><path d="M208 93 C208 99.0751 203.0751 104 197 104 C190.9249 104 186 99.0751 186 93 C186 86.9249 190.9249 82 197 82 C203.0751 82 208 86.9249 208 93 Z" /></clipPath><clipPath clipPathUnits="userSpaceOnUse" id="clipPath9"><path d="M134 82 L156 82 L156 104 L134 104 L134 82 Z" /></clipPath><clipPath clipPathUnits="userSpaceOnUse" id="clipPath10"><path d="M145 52 L134 30 L156 30 Z" style="fill-rule:evenodd;" /></clipPath><clipPath clipPathUnits="userSpaceOnUse" id="clipPath11"><path d="M104 93 C104 99.0751 99.0751 104 93 104 C86.9249 104 82 99.0751 82 93 C82 86.9249 86.9249 82 93 82 C99.0751 82 104 86.9249 104 93 Z" /></clipPath><clipPath clipPathUnits="userSpaceOnUse" id="clipPath12"><path d="M353 78 L342 56 L364 56 Z" style="fill-rule:evenodd;" /></clipPath></defs><g style="fill:white; text-rendering:optimizeSpeed; stroke:white;"><rect height="186" style="stroke:none;" width="394" x="0" y="0" /></g><g ID="l-1:1,2" style="text-rendering:optimizeSpeed;"><polygon points=" 353 119 301 119" style="fill:none;" /></g><g ID="l-1:1,3" style="text-rendering:optimizeSpeed;"><polygon points=" 353 119 353 67" style="fill:none;" /></g><g ID="r-1:1" style="fill:white; text-rendering:optimizeSpeed; stroke:white;" wurcs_mono_id="1"><rect height="22" style="clip-path:url(#clipPath1); stroke:none;" width="22" x="342" y="108" /><rect height="22" style="clip-path:url(#clipPath1); fill:rgb(0,144,188); stroke:none;" width="22" x="342" y="108" /><rect height="22" style="clip-path:url(#clipPath1); fill:none; stroke:black;" width="22" x="342" y="108" /><rect height="22" style="fill:none; stroke:black;" width="22" x="342" y="108" /></g><g ID="l-1:2,4" style="text-rendering:optimizeSpeed;"><polygon points=" 301 119 249 119" style="fill:none;" /></g><g ID="r-1:2" style="fill:white; text-rendering:optimizeSpeed; stroke:white;" wurcs_mono_id="2"><rect height="22" style="clip-path:url(#clipPath2); stroke:none;" width="22" x="290" y="108" /><rect height="22" style="clip-path:url(#clipPath2); fill:rgb(0,144,188); stroke:none;" width="22" x="290" y="108" /><rect height="22" style="clip-path:url(#clipPath2); fill:none; stroke:black;" width="22" x="290" y="108" /><rect height="22" style="fill:none; stroke:black;" width="22" x="290" y="108" /></g><g ID="l-1:4,5" style="text-rendering:optimizeSpeed;"><polygon points=" 249 119 197 145" style="fill:none;" /></g><g ID="l-1:4,6" style="text-rendering:optimizeSpeed;"><polygon points=" 249 119 197 93" style="fill:none;" /></g><g ID="r-1:4" style="fill:white; text-rendering:optimizeSpeed; stroke:white;" wurcs_mono_id="3"><circle cx="249" cy="119" r="11" style="clip-path:url(#clipPath3); stroke:none;" /><rect height="22" style="clip-path:url(#clipPath3); fill:rgb(0,166,81); stroke:none;" width="22" x="238" y="108" /><rect height="22" style="clip-path:url(#clipPath3); fill:none; stroke:black;" width="22" x="238" y="108" /><circle cx="249" cy="119" r="11" style="fill:none; stroke:black;" /></g><g ID="l-1:5,7" style="text-rendering:optimizeSpeed;"><polygon points=" 197 145 145 145" style="fill:none;" /></g><g ID="r-1:5" style="fill:white; text-rendering:optimizeSpeed; stroke:white;" wurcs_mono_id="4"><circle cx="197" cy="145" r="11" style="clip-path:url(#clipPath4); stroke:none;" /><rect height="22" style="clip-path:url(#clipPath4); fill:rgb(0,166,81); stroke:none;" width="22" x="186" y="134" /><rect height="22" style="clip-path:url(#clipPath4); fill:none; stroke:black;" width="22" x="186" y="134" /><circle cx="197" cy="145" r="11" style="fill:none; stroke:black;" /></g><g ID="l-1:7,8" style="text-rendering:optimizeSpeed;"><polygon points=" 145 145 93 145" style="fill:none;" /></g><g ID="r-1:7" style="fill:white; text-rendering:optimizeSpeed; stroke:white;" wurcs_mono_id="5"><rect height="22" style="clip-path:url(#clipPath5); stroke:none;" width="22" x="134" y="134" /><rect height="22" style="clip-path:url(#clipPath5); fill:rgb(0,144,188); stroke:none;" width="22" x="134" y="134" /><rect height="22" style="clip-path:url(#clipPath5); fill:none; stroke:black;" width="22" x="134" y="134" /><rect height="22" style="fill:none; stroke:black;" width="22" x="134" y="134" /></g><g ID="l-1:8,9" style="text-rendering:optimizeSpeed;"><polygon points=" 93 145 41 145" style="fill:none;" /></g><g ID="r-1:8" style="fill:white; text-rendering:optimizeSpeed; stroke:white;" wurcs_mono_id="6"><circle cx="93" cy="145" r="11" style="clip-path:url(#clipPath6); stroke:none;" /><rect height="22" style="clip-path:url(#clipPath6); fill:rgb(255,212,0); stroke:none;" width="22" x="82" y="134" /><rect height="22" style="clip-path:url(#clipPath6); fill:none; stroke:black;" width="22" x="82" y="134" /><circle cx="93" cy="145" r="11" style="fill:none; stroke:black;" /></g><g ID="r-1:9" style="fill:white; text-rendering:optimizeSpeed; stroke:white;" wurcs_mono_id="7"><polygon points=" 41 134 52 145 41 156 30 145" style="stroke:none; clip-path:url(#clipPath7);" /><rect height="22" style="clip-path:url(#clipPath7); fill:rgb(165,67,153); stroke:none;" width="22" x="30" y="134" /><rect height="22" style="clip-path:url(#clipPath7); fill:none; stroke:black;" width="22" x="30" y="134" /><polygon points=" 41 134 52 145 41 156 30 145" style="fill:none; stroke:black;" /></g><g ID="li-1:8,9" style="fill:white; text-rendering:optimizeSpeed; font-family:'Serif'; stroke:white;"><rect height="10" style="stroke:none;" width="6" x="71" y="148" /><path d="M73.1094 157.3906 Q73.1094 157.0625 73.3359 156.8359 Q73.5625 156.6094 73.8906 156.6094 Q74.2188 156.6094 74.4453 156.8359 Q74.6719 157.0625 74.6719 157.3906 Q74.6719 157.7188 74.4453 157.9453 Q74.2188 158.1719 73.8906 158.1719 Q73.5625 158.1719 73.3359 157.9453 Q73.1094 157.7188 73.1094 157.3906 ZM71.8125 149.6406 Q72.4375 149.3594 73 149.2266 Q73.5625 149.0938 74.0469 149.0938 Q75.3438 149.0938 76.1016 149.7188 Q76.8594 150.3438 76.8594 151.4062 Q76.8594 152.5 76.2109 153.1953 Q75.5625 153.8906 74.25 154.1875 L74.25 155.6719 L73.5312 155.6719 L73.5312 153.75 Q74.5625 153.5 75.0938 152.9062 Q75.625 152.3125 75.625 151.4062 Q75.625 150.5938 75.1953 150.1328 Q74.7656 149.6719 74.0312 149.6719 Q73.3594 149.6719 72.9297 150.0547 Q72.5 150.4375 72.3906 151.1562 L71.8125 151.1562 L71.8125 149.6406 Z" style="fill:black; stroke:none;" /><rect height="10" style="stroke:none;" width="6" x="57" y="148" /><path d="M59.1094 157.3906 Q59.1094 157.0625 59.3359 156.8359 Q59.5625 156.6094 59.8906 156.6094 Q60.2188 156.6094 60.4453 156.8359 Q60.6719 157.0625 60.6719 157.3906 Q60.6719 157.7188 60.4453 157.9453 Q60.2188 158.1719 59.8906 158.1719 Q59.5625 158.1719 59.3359 157.9453 Q59.1094 157.7188 59.1094 157.3906 ZM57.8125 149.6406 Q58.4375 149.3594 59 149.2266 Q59.5625 149.0938 60.0469 149.0938 Q61.3438 149.0938 62.1016 149.7188 Q62.8594 150.3438 62.8594 151.4062 Q62.8594 152.5 62.2109 153.1953 Q61.5625 153.8906 60.25 154.1875 L60.25 155.6719 L59.5312 155.6719 L59.5312 153.75 Q60.5625 153.5 61.0938 152.9062 Q61.625 152.3125 61.625 151.4062 Q61.625 150.5938 61.1953 150.1328 Q60.7656 149.6719 60.0312 149.6719 Q59.3594 149.6719 58.9297 150.0547 Q58.5 150.4375 58.3906 151.1562 L57.8125 151.1562 L57.8125 149.6406 Z" style="fill:black; stroke:none;" /></g><g ID="li-1:7,8" style="fill:white; text-rendering:optimizeSpeed; font-family:'Serif'; stroke:white;"><rect height="10" style="stroke:none;" width="6" x="123" y="148" /><path d="M125.1094 157.3906 Q125.1094 157.0625 125.3359 156.8359 Q125.5625 156.6094 125.8906 156.6094 Q126.2188 156.6094 126.4453 156.8359 Q126.6719 157.0625 126.6719 157.3906 Q126.6719 157.7188 126.4453 157.9453 Q126.2188 158.1719 125.8906 158.1719 Q125.5625 158.1719 125.3359 157.9453 Q125.1094 157.7188 125.1094 157.3906 ZM123.8125 149.6406 Q124.4375 149.3594 125 149.2266 Q125.5625 149.0938 126.0469 149.0938 Q127.3438 149.0938 128.1016 149.7188 Q128.8594 150.3438 128.8594 151.4062 Q128.8594 152.5 128.2109 153.1953 Q127.5625 153.8906 126.25 154.1875 L126.25 155.6719 L125.5312 155.6719 L125.5312 153.75 Q126.5625 153.5 127.0938 152.9062 Q127.625 152.3125 127.625 151.4062 Q127.625 150.5938 127.1953 150.1328 Q126.7656 149.6719 126.0312 149.6719 Q125.3594 149.6719 124.9297 150.0547 Q124.5 150.4375 124.3906 151.1562 L123.8125 151.1562 L123.8125 149.6406 Z" style="fill:black; stroke:none;" /><rect height="10" style="stroke:none;" width="6" x="109" y="148" /><path d="M111.1094 157.3906 Q111.1094 157.0625 111.3359 156.8359 Q111.5625 156.6094 111.8906 156.6094 Q112.2188 156.6094 112.4453 156.8359 Q112.6719 157.0625 112.6719 157.3906 Q112.6719 157.7188 112.4453 157.9453 Q112.2188 158.1719 111.8906 158.1719 Q111.5625 158.1719 111.3359 157.9453 Q111.1094 157.7188 111.1094 157.3906 ZM109.8125 149.6406 Q110.4375 149.3594 111 149.2266 Q111.5625 149.0938 112.0469 149.0938 Q113.3438 149.0938 114.1016 149.7188 Q114.8594 150.3438 114.8594 151.4062 Q114.8594 152.5 114.2109 153.1953 Q113.5625 153.8906 112.25 154.1875 L112.25 155.6719 L111.5312 155.6719 L111.5312 153.75 Q112.5625 153.5 113.0938 152.9062 Q113.625 152.3125 113.625 151.4062 Q113.625 150.5938 113.1953 150.1328 Q112.7656 149.6719 112.0312 149.6719 Q111.3594 149.6719 110.9297 150.0547 Q110.5 150.4375 110.3906 151.1562 L109.8125 151.1562 L109.8125 149.6406 Z" style="fill:black; stroke:none;" /></g><g ID="li-1:5,7" style="fill:white; text-rendering:optimizeSpeed; font-family:'Serif'; stroke:white;"><rect height="10" style="stroke:none;" width="6" x="175" y="148" /><path d="M177.1094 157.3906 Q177.1094 157.0625 177.3359 156.8359 Q177.5625 156.6094 177.8906 156.6094 Q178.2188 156.6094 178.4453 156.8359 Q178.6719 157.0625 178.6719 157.3906 Q178.6719 157.7188 178.4453 157.9453 Q178.2188 158.1719 177.8906 158.1719 Q177.5625 158.1719 177.3359 157.9453 Q177.1094 157.7188 177.1094 157.3906 ZM175.8125 149.6406 Q176.4375 149.3594 177 149.2266 Q177.5625 149.0938 178.0469 149.0938 Q179.3438 149.0938 180.1016 149.7188 Q180.8594 150.3438 180.8594 151.4062 Q180.8594 152.5 180.2109 153.1953 Q179.5625 153.8906 178.25 154.1875 L178.25 155.6719 L177.5312 155.6719 L177.5312 153.75 Q178.5625 153.5 179.0938 152.9062 Q179.625 152.3125 179.625 151.4062 Q179.625 150.5938 179.1953 150.1328 Q178.7656 149.6719 178.0312 149.6719 Q177.3594 149.6719 176.9297 150.0547 Q176.5 150.4375 176.3906 151.1562 L175.8125 151.1562 L175.8125 149.6406 Z" style="fill:black; stroke:none;" /><rect height="10" style="stroke:none;" width="6" x="161" y="148" /><path d="M163.1094 157.3906 Q163.1094 157.0625 163.3359 156.8359 Q163.5625 156.6094 163.8906 156.6094 Q164.2188 156.6094 164.4453 156.8359 Q164.6719 157.0625 164.6719 157.3906 Q164.6719 157.7188 164.4453 157.9453 Q164.2188 158.1719 163.8906 158.1719 Q163.5625 158.1719 163.3359 157.9453 Q163.1094 157.7188 163.1094 157.3906 ZM161.8125 149.6406 Q162.4375 149.3594 163 149.2266 Q163.5625 149.0938 164.0469 149.0938 Q165.3438 149.0938 166.1016 149.7188 Q166.8594 150.3438 166.8594 151.4062 Q166.8594 152.5 166.2109 153.1953 Q165.5625 153.8906 164.25 154.1875 L164.25 155.6719 L163.5312 155.6719 L163.5312 153.75 Q164.5625 153.5 165.0938 152.9062 Q165.625 152.3125 165.625 151.4062 Q165.625 150.5938 165.1953 150.1328 Q164.7656 149.6719 164.0312 149.6719 Q163.3594 149.6719 162.9297 150.0547 Q162.5 150.4375 162.3906 151.1562 L161.8125 151.1562 L161.8125 149.6406 Z" style="fill:black; stroke:none;" /></g><g ID="l-1:6,10" style="text-rendering:optimizeSpeed;"><polygon points=" 197 93 145 93" style="fill:none;" /></g><g ID="r-1:6" style="fill:white; text-rendering:optimizeSpeed; stroke:white;" wurcs_mono_id="8"><circle cx="197" cy="93" r="11" style="clip-path:url(#clipPath8); stroke:none;" /><rect height="22" style="clip-path:url(#clipPath8); fill:rgb(0,166,81); stroke:none;" width="22" x="186" y="82" /><rect height="22" style="clip-path:url(#clipPath8); fill:none; stroke:black;" width="22" x="186" y="82" /><circle cx="197" cy="93" r="11" style="fill:none; stroke:black;" /></g><g ID="l-1:10,11" style="text-rendering:optimizeSpeed;"><polygon points=" 145 93 145 41" style="fill:none;" /></g><g ID="l-1:10,12" style="text-rendering:optimizeSpeed;"><polygon points=" 145 93 93 93" style="fill:none;" /></g><g ID="r-1:10" style="fill:white; text-rendering:optimizeSpeed; stroke:white;" wurcs_mono_id="9"><rect height="22" style="clip-path:url(#clipPath9); stroke:none;" width="22" x="134" y="82" /><rect height="22" style="clip-path:url(#clipPath9); fill:rgb(0,144,188); stroke:none;" width="22" x="134" y="82" /><rect height="22" style="clip-path:url(#clipPath9); fill:none; stroke:black;" width="22" x="134" y="82" /><rect height="22" style="fill:none; stroke:black;" width="22" x="134" y="82" /></g><g ID="r-1:11" style="fill:white; text-rendering:optimizeSpeed; stroke:white;" wurcs_mono_id="10"><polygon points=" 145 52 134 30 156 30" style="stroke:none; clip-path:url(#clipPath10);" /><rect height="22" style="clip-path:url(#clipPath10); fill:rgb(237,28,36); stroke:none;" width="22" x="134" y="30" /><rect height="22" style="clip-path:url(#clipPath10); fill:none; stroke:black;" width="22" x="134" y="30" /><polygon points=" 145 52 134 30 156 30" style="fill:none; stroke:black;" /></g><g ID="r-1:12" style="fill:white; text-rendering:optimizeSpeed; stroke:white;" wurcs_mono_id="11"><circle cx="93" cy="93" r="11" style="clip-path:url(#clipPath11); stroke:none;" /><rect height="22" style="clip-path:url(#clipPath11); fill:rgb(255,212,0); stroke:none;" width="22" x="82" y="82" /><rect height="22" style="clip-path:url(#clipPath11); fill:none; stroke:black;" width="22" x="82" y="82" /><circle cx="93" cy="93" r="11" style="fill:none; stroke:black;" /></g><g ID="li-1:10,11" style="fill:white; text-rendering:optimizeSpeed; font-family:'Serif'; stroke:white;"><rect height="10" style="stroke:none;" width="6" x="134" y="69" /><path d="M136.1094 78.3906 Q136.1094 78.0625 136.3359 77.8359 Q136.5625 77.6094 136.8906 77.6094 Q137.2188 77.6094 137.4453 77.8359 Q137.6719 78.0625 137.6719 78.3906 Q137.6719 78.7188 137.4453 78.9453 Q137.2188 79.1719 136.8906 79.1719 Q136.5625 79.1719 136.3359 78.9453 Q136.1094 78.7188 136.1094 78.3906 ZM134.8125 70.6406 Q135.4375 70.3594 136 70.2266 Q136.5625 70.0938 137.0469 70.0938 Q138.3438 70.0938 139.1016 70.7188 Q139.8594 71.3438 139.8594 72.4062 Q139.8594 73.5 139.2109 74.1953 Q138.5625 74.8906 137.25 75.1875 L137.25 76.6719 L136.5312 76.6719 L136.5312 74.75 Q137.5625 74.5 138.0938 73.9062 Q138.625 73.3125 138.625 72.4062 Q138.625 71.5938 138.1953 71.1328 Q137.7656 70.6719 137.0312 70.6719 Q136.3594 70.6719 135.9297 71.0547 Q135.5 71.4375 135.3906 72.1562 L134.8125 72.1562 L134.8125 70.6406 Z" style="fill:black; stroke:none;" /><rect height="10" style="stroke:none;" width="6" x="134" y="55" /><path d="M136.1094 64.3906 Q136.1094 64.0625 136.3359 63.8359 Q136.5625 63.6094 136.8906 63.6094 Q137.2188 63.6094 137.4453 63.8359 Q137.6719 64.0625 137.6719 64.3906 Q137.6719 64.7188 137.4453 64.9453 Q137.2188 65.1719 136.8906 65.1719 Q136.5625 65.1719 136.3359 64.9453 Q136.1094 64.7188 136.1094 64.3906 ZM134.8125 56.6406 Q135.4375 56.3594 136 56.2266 Q136.5625 56.0938 137.0469 56.0938 Q138.3438 56.0938 139.1016 56.7188 Q139.8594 57.3438 139.8594 58.4062 Q139.8594 59.5 139.2109 60.1953 Q138.5625 60.8906 137.25 61.1875 L137.25 62.6719 L136.5312 62.6719 L136.5312 60.75 Q137.5625 60.5 138.0938 59.9062 Q138.625 59.3125 138.625 58.4062 Q138.625 57.5938 138.1953 57.1328 Q137.7656 56.6719 137.0312 56.6719 Q136.3594 56.6719 135.9297 57.0547 Q135.5 57.4375 135.3906 58.1562 L134.8125 58.1562 L134.8125 56.6406 Z" style="fill:black; stroke:none;" /></g><g ID="li-1:10,12" style="fill:white; text-rendering:optimizeSpeed; font-family:'Serif'; stroke:white;"><rect height="10" style="stroke:none;" width="6" x="123" y="96" /><path d="M125.1094 105.3906 Q125.1094 105.0625 125.3359 104.8359 Q125.5625 104.6094 125.8906 104.6094 Q126.2188 104.6094 126.4453 104.8359 Q126.6719 105.0625 126.6719 105.3906 Q126.6719 105.7188 126.4453 105.9453 Q126.2188 106.1719 125.8906 106.1719 Q125.5625 106.1719 125.3359 105.9453 Q125.1094 105.7188 125.1094 105.3906 ZM123.8125 97.6406 Q124.4375 97.3594 125 97.2266 Q125.5625 97.0938 126.0469 97.0938 Q127.3438 97.0938 128.1016 97.7188 Q128.8594 98.3438 128.8594 99.4062 Q128.8594 100.5 128.2109 101.1953 Q127.5625 101.8906 126.25 102.1875 L126.25 103.6719 L125.5312 103.6719 L125.5312 101.75 Q126.5625 101.5 127.0938 100.9062 Q127.625 100.3125 127.625 99.4062 Q127.625 98.5938 127.1953 98.1328 Q126.7656 97.6719 126.0312 97.6719 Q125.3594 97.6719 124.9297 98.0547 Q124.5 98.4375 124.3906 99.1562 L123.8125 99.1562 L123.8125 97.6406 Z" style="fill:black; stroke:none;" /><rect height="10" style="stroke:none;" width="6" x="109" y="96" /><path d="M111.1094 105.3906 Q111.1094 105.0625 111.3359 104.8359 Q111.5625 104.6094 111.8906 104.6094 Q112.2188 104.6094 112.4453 104.8359 Q112.6719 105.0625 112.6719 105.3906 Q112.6719 105.7188 112.4453 105.9453 Q112.2188 106.1719 111.8906 106.1719 Q111.5625 106.1719 111.3359 105.9453 Q111.1094 105.7188 111.1094 105.3906 ZM109.8125 97.6406 Q110.4375 97.3594 111 97.2266 Q111.5625 97.0938 112.0469 97.0938 Q113.3438 97.0938 114.1016 97.7188 Q114.8594 98.3438 114.8594 99.4062 Q114.8594 100.5 114.2109 101.1953 Q113.5625 101.8906 112.25 102.1875 L112.25 103.6719 L111.5312 103.6719 L111.5312 101.75 Q112.5625 101.5 113.0938 100.9062 Q113.625 100.3125 113.625 99.4062 Q113.625 98.5938 113.1953 98.1328 Q112.7656 97.6719 112.0312 97.6719 Q111.3594 97.6719 110.9297 98.0547 Q110.5 98.4375 110.3906 99.1562 L109.8125 99.1562 L109.8125 97.6406 Z" style="fill:black; stroke:none;" /></g><g ID="li-1:6,10" style="fill:white; text-rendering:optimizeSpeed; font-family:'Serif'; stroke:white;"><rect height="10" style="stroke:none;" width="6" x="175" y="96" /><path d="M177.1094 105.3906 Q177.1094 105.0625 177.3359 104.8359 Q177.5625 104.6094 177.8906 104.6094 Q178.2188 104.6094 178.4453 104.8359 Q178.6719 105.0625 178.6719 105.3906 Q178.6719 105.7188 178.4453 105.9453 Q178.2188 106.1719 177.8906 106.1719 Q177.5625 106.1719 177.3359 105.9453 Q177.1094 105.7188 177.1094 105.3906 ZM175.8125 97.6406 Q176.4375 97.3594 177 97.2266 Q177.5625 97.0938 178.0469 97.0938 Q179.3438 97.0938 180.1016 97.7188 Q180.8594 98.3438 180.8594 99.4062 Q180.8594 100.5 180.2109 101.1953 Q179.5625 101.8906 178.25 102.1875 L178.25 103.6719 L177.5312 103.6719 L177.5312 101.75 Q178.5625 101.5 179.0938 100.9062 Q179.625 100.3125 179.625 99.4062 Q179.625 98.5938 179.1953 98.1328 Q178.7656 97.6719 178.0312 97.6719 Q177.3594 97.6719 176.9297 98.0547 Q176.5 98.4375 176.3906 99.1562 L175.8125 99.1562 L175.8125 97.6406 Z" style="fill:black; stroke:none;" /><rect height="10" style="stroke:none;" width="6" x="161" y="96" /><path d="M163.1094 105.3906 Q163.1094 105.0625 163.3359 104.8359 Q163.5625 104.6094 163.8906 104.6094 Q164.2188 104.6094 164.4453 104.8359 Q164.6719 105.0625 164.6719 105.3906 Q164.6719 105.7188 164.4453 105.9453 Q164.2188 106.1719 163.8906 106.1719 Q163.5625 106.1719 163.3359 105.9453 Q163.1094 105.7188 163.1094 105.3906 ZM161.8125 97.6406 Q162.4375 97.3594 163 97.2266 Q163.5625 97.0938 164.0469 97.0938 Q165.3438 97.0938 166.1016 97.7188 Q166.8594 98.3438 166.8594 99.4062 Q166.8594 100.5 166.2109 101.1953 Q165.5625 101.8906 164.25 102.1875 L164.25 103.6719 L163.5312 103.6719 L163.5312 101.75 Q164.5625 101.5 165.0938 100.9062 Q165.625 100.3125 165.625 99.4062 Q165.625 98.5938 165.1953 98.1328 Q164.7656 97.6719 164.0312 97.6719 Q163.3594 97.6719 162.9297 98.0547 Q162.5 98.4375 162.3906 99.1562 L161.8125 99.1562 L161.8125 97.6406 Z" style="fill:black; stroke:none;" /></g><g ID="li-1:4,5" style="fill:white; text-rendering:optimizeSpeed; font-family:'Serif'; stroke:white;"><rect height="11" style="stroke:none;" width="19" x="224" y="129" /><path d="M225.1719 131.625 Q225.8594 131.3594 226.4844 131.2266 Q227.1094 131.0938 227.6562 131.0938 Q228.9531 131.0938 229.6719 131.6484 Q230.3906 132.2031 230.3906 133.1875 Q230.3906 133.9688 229.8906 134.5 Q229.3906 135.0312 228.4844 135.2188 Q229.5625 135.375 230.1562 136.0078 Q230.75 136.6406 230.75 137.6406 Q230.75 138.8594 229.9219 139.5156 Q229.0938 140.1719 227.5469 140.1719 Q226.8594 140.1719 226.2109 140.0234 Q225.5625 139.875 224.9219 139.5781 L224.9219 137.875 L225.5781 137.875 Q225.625 138.7188 226.1406 139.1562 Q226.6562 139.5938 227.5781 139.5938 Q228.4688 139.5938 228.9922 139.0703 Q229.5156 138.5469 229.5156 137.6562 Q229.5156 136.625 228.9766 136.0938 Q228.4375 135.5625 227.4062 135.5625 L226.8594 135.5625 L226.8594 134.9531 L227.1406 134.9531 Q228.1719 134.9531 228.6875 134.5312 Q229.2031 134.1094 229.2031 133.25 Q229.2031 132.4844 228.7812 132.0781 Q228.3594 131.6719 227.5625 131.6719 Q226.7656 131.6719 226.3359 132.0469 Q225.9062 132.4219 225.8281 133.1562 L225.1719 133.1562 L225.1719 131.625 ZM234.7441 131.25 L235.6816 131.25 L232.5723 141.1094 L231.6348 141.1094 L234.7441 131.25 ZM239.5996 139.5938 Q240.4277 139.5938 240.873 138.9844 Q241.3184 138.375 241.3184 137.2344 Q241.3184 136.1094 240.873 135.5 Q240.4277 134.8906 239.5996 134.8906 Q238.7715 134.8906 238.3262 135.4766 Q237.8809 136.0625 237.8809 137.1719 Q237.8809 138.3281 238.3262 138.9609 Q238.7715 139.5938 239.5996 139.5938 ZM237.6934 135.1875 Q238.0996 134.75 238.5996 134.5312 Q239.0996 134.3125 239.7402 134.3125 Q241.0371 134.3125 241.7949 135.0938 Q242.5527 135.875 242.5527 137.2344 Q242.5527 138.5625 241.7402 139.3672 Q240.9277 140.1719 239.5527 140.1719 Q238.0684 140.1719 237.2715 139.0625 Q236.4746 137.9531 236.4746 135.9062 Q236.4746 133.6094 237.4199 132.3516 Q238.3652 131.0938 240.084 131.0938 Q240.5527 131.0938 241.0605 131.1797 Q241.5684 131.2656 242.0996 131.4375 L242.0996 132.8906 L241.4434 132.8906 Q241.3652 132.2969 240.9824 131.9844 Q240.5996 131.6719 239.959 131.6719 Q238.8184 131.6719 238.2637 132.5312 Q237.709 133.3906 237.6934 135.1875 Z" style="fill:black; stroke:none;" /><rect height="8" style="stroke:none;" width="8" x="214" y="139" /><path d="M219.1875 145.4688 L218.9531 146.1094 Q218.7656 146.625 218.2031 146.9375 Q217.8438 147.1562 217.2031 147.1406 Q216.0469 147.1406 215.3281 146.2344 Q214.5938 145.3281 214.5938 143.8594 Q214.5938 142.4219 215.3281 141.4844 Q216.0156 140.5938 217.4531 140.6094 Q218.4531 140.6094 218.9531 141 Q219.4062 141.3438 219.5781 142.0938 L219.625 142.3125 L219.8438 141.6719 Q220.0625 141.0469 220.6562 140.75 L221.25 140.75 L221.25 141.0938 Q220.6875 141.2656 220.5 141.8125 L219.8906 143.4844 L220.2969 145.2812 Q220.5 146.2031 220.7344 146.2969 Q221.0469 146.4375 221.7812 146 L221.7812 146.7188 Q220.5938 147.4062 219.75 146.6875 Q219.375 146.3594 219.2656 145.875 L219.1875 145.4688 ZM218.9219 144.3125 L218.5625 142.5938 Q218.2656 141.2188 217.4688 141.2188 Q216.7969 141.2031 216.2812 141.9375 Q215.8594 142.5156 215.8594 143.875 Q215.8594 145.1719 216.2812 145.8281 Q216.75 146.5469 217.5312 146.5 Q218.2031 146.4375 218.6875 145 L218.9219 144.3125 Z" style="fill:black; stroke:none;" /></g><g ID="li-1:4,6" style="fill:white; text-rendering:optimizeSpeed; font-family:'Serif'; stroke:white;"><rect height="11" style="stroke:none;" width="19" x="217" y="111" /><path d="M218.1719 113.625 Q218.8594 113.3594 219.4844 113.2266 Q220.1094 113.0938 220.6562 113.0938 Q221.9531 113.0938 222.6719 113.6484 Q223.3906 114.2031 223.3906 115.1875 Q223.3906 115.9688 222.8906 116.5 Q222.3906 117.0312 221.4844 117.2188 Q222.5625 117.375 223.1562 118.0078 Q223.75 118.6406 223.75 119.6406 Q223.75 120.8594 222.9219 121.5156 Q222.0938 122.1719 220.5469 122.1719 Q219.8594 122.1719 219.2109 122.0234 Q218.5625 121.875 217.9219 121.5781 L217.9219 119.875 L218.5781 119.875 Q218.625 120.7188 219.1406 121.1562 Q219.6562 121.5938 220.5781 121.5938 Q221.4688 121.5938 221.9922 121.0703 Q222.5156 120.5469 222.5156 119.6562 Q222.5156 118.625 221.9766 118.0938 Q221.4375 117.5625 220.4062 117.5625 L219.8594 117.5625 L219.8594 116.9531 L220.1406 116.9531 Q221.1719 116.9531 221.6875 116.5312 Q222.2031 116.1094 222.2031 115.25 Q222.2031 114.4844 221.7812 114.0781 Q221.3594 113.6719 220.5625 113.6719 Q219.7656 113.6719 219.3359 114.0469 Q218.9062 114.4219 218.8281 115.1562 L218.1719 115.1562 L218.1719 113.625 ZM227.7441 113.25 L228.6816 113.25 L225.5723 123.1094 L224.6348 123.1094 L227.7441 113.25 ZM232.5996 121.5938 Q233.4277 121.5938 233.873 120.9844 Q234.3184 120.375 234.3184 119.2344 Q234.3184 118.1094 233.873 117.5 Q233.4277 116.8906 232.5996 116.8906 Q231.7715 116.8906 231.3262 117.4766 Q230.8809 118.0625 230.8809 119.1719 Q230.8809 120.3281 231.3262 120.9609 Q231.7715 121.5938 232.5996 121.5938 ZM230.6934 117.1875 Q231.0996 116.75 231.5996 116.5312 Q232.0996 116.3125 232.7402 116.3125 Q234.0371 116.3125 234.7949 117.0938 Q235.5527 117.875 235.5527 119.2344 Q235.5527 120.5625 234.7402 121.3672 Q233.9277 122.1719 232.5527 122.1719 Q231.0684 122.1719 230.2715 121.0625 Q229.4746 119.9531 229.4746 117.9062 Q229.4746 115.6094 230.4199 114.3516 Q231.3652 113.0938 233.084 113.0938 Q233.5527 113.0938 234.0605 113.1797 Q234.5684 113.2656 235.0996 113.4375 L235.0996 114.8906 L234.4434 114.8906 Q234.3652 114.2969 233.9824 113.9844 Q233.5996 113.6719 232.959 113.6719 Q231.8184 113.6719 231.2637 114.5312 Q230.709 115.3906 230.6934 117.1875 Z" style="fill:black; stroke:none;" /><rect height="8" style="stroke:none;" width="8" x="207" y="105" /><path d="M212.1875 111.4688 L211.9531 112.1094 Q211.7656 112.625 211.2031 112.9375 Q210.8438 113.1562 210.2031 113.1406 Q209.0469 113.1406 208.3281 112.2344 Q207.5938 111.3281 207.5938 109.8594 Q207.5938 108.4219 208.3281 107.4844 Q209.0156 106.5938 210.4531 106.6094 Q211.4531 106.6094 211.9531 107 Q212.4062 107.3438 212.5781 108.0938 L212.625 108.3125 L212.8438 107.6719 Q213.0625 107.0469 213.6562 106.75 L214.25 106.75 L214.25 107.0938 Q213.6875 107.2656 213.5 107.8125 L212.8906 109.4844 L213.2969 111.2812 Q213.5 112.2031 213.7344 112.2969 Q214.0469 112.4375 214.7812 112 L214.7812 112.7188 Q213.5938 113.4062 212.75 112.6875 Q212.375 112.3594 212.2656 111.875 L212.1875 111.4688 ZM211.9219 110.3125 L211.5625 108.5938 Q211.2656 107.2188 210.4688 107.2188 Q209.7969 107.2031 209.2812 107.9375 Q208.8594 108.5156 208.8594 109.875 Q208.8594 111.1719 209.2812 111.8281 Q209.75 112.5469 210.5312 112.5 Q211.2031 112.4375 211.6875 111 L211.9219 110.3125 Z" style="fill:black; stroke:none;" /></g><g ID="li-1:2,4" style="fill:white; text-rendering:optimizeSpeed; font-family:'Serif'; stroke:white;"><rect height="9" style="stroke:none;" width="8" x="278" y="122" /><path d="M282.1875 128.0312 L282.1875 123.375 L279.2031 128.0312 L282.1875 128.0312 ZM284.7656 131 L280.7812 131 L280.7812 130.375 L282.1875 130.375 L282.1875 128.6562 L278.375 128.6562 L278.375 128.0156 L282.2031 122.0938 L283.3594 122.0938 L283.3594 128.0312 L285.0312 128.0312 L285.0312 128.6562 L283.3594 128.6562 L283.3594 130.375 L284.7656 130.375 L284.7656 131 Z" style="fill:black; stroke:none;" /><rect height="13" style="stroke:none;" width="7" x="264" y="120" /><path d="M265.8281 132.25 Q266.2969 132.5938 267.1719 132.5938 Q268.0625 132.5938 268.5781 132.0703 Q269.0938 131.5469 269.0938 130.6562 Q269.0938 129.4219 268.5625 128.8906 Q268.0156 128.3594 267 128.3594 L266.4375 128.3594 L266.4375 127.7188 L266.7344 127.7188 Q267.4844 127.7188 268 127.2969 Q268.4219 126.9531 268.4219 126.0156 Q268.4219 125.6094 268.1406 125.1406 Q267.6875 124.375 267.1562 124.3906 Q265.8281 124.4375 265.8281 126.7812 L265.8281 132.25 ZM264.75 135.5 L264.75 126.7812 Q264.75 124.3281 266.0781 124 Q266.7656 123.8125 267.25 123.8125 Q268.3438 123.8125 269.0469 124.6719 Q269.6094 125.3594 269.6094 125.9375 Q269.6094 126.7812 269.2031 127.2656 Q268.7969 127.75 268.0625 127.9844 Q269.1406 128.1406 269.75 128.7812 Q270.3281 129.4062 270.3281 130.6328 Q270.3281 131.8594 269.5078 132.5156 Q268.6875 133.1719 267.1406 133.1719 Q266.1875 133.1719 265.8281 133.0312 L265.8281 135.5 L264.75 135.5 Z" style="fill:black; stroke:none;" /></g><g ID="r-1:3" style="fill:white; text-rendering:optimizeSpeed; stroke:white;" wurcs_mono_id="12"><polygon points=" 353 78 342 56 364 56" style="stroke:none; clip-path:url(#clipPath12);" /><rect height="22" style="clip-path:url(#clipPath12); fill:rgb(237,28,36); stroke:none;" width="22" x="342" y="56" /><rect height="22" style="clip-path:url(#clipPath12); fill:none; stroke:black;" width="22" x="342" y="56" /><polygon points=" 353 78 342 56 364 56" style="fill:none; stroke:black;" /></g><g ID="li-1:1,2" style="fill:white; text-rendering:optimizeSpeed; font-family:'Serif'; stroke:white;"><rect height="9" style="stroke:none;" width="8" x="330" y="122" /><path d="M334.1875 128.0312 L334.1875 123.375 L331.2031 128.0312 L334.1875 128.0312 ZM336.7656 131 L332.7812 131 L332.7812 130.375 L334.1875 130.375 L334.1875 128.6562 L330.375 128.6562 L330.375 128.0156 L334.2031 122.0938 L335.3594 122.0938 L335.3594 128.0312 L337.0312 128.0312 L337.0312 128.6562 L335.3594 128.6562 L335.3594 130.375 L336.7656 130.375 L336.7656 131 Z" style="fill:black; stroke:none;" /><rect height="13" style="stroke:none;" width="7" x="316" y="120" /><path d="M317.8281 132.25 Q318.2969 132.5938 319.1719 132.5938 Q320.0625 132.5938 320.5781 132.0703 Q321.0938 131.5469 321.0938 130.6562 Q321.0938 129.4219 320.5625 128.8906 Q320.0156 128.3594 319 128.3594 L318.4375 128.3594 L318.4375 127.7188 L318.7344 127.7188 Q319.4844 127.7188 320 127.2969 Q320.4219 126.9531 320.4219 126.0156 Q320.4219 125.6094 320.1406 125.1406 Q319.6875 124.375 319.1562 124.3906 Q317.8281 124.4375 317.8281 126.7812 L317.8281 132.25 ZM316.75 135.5 L316.75 126.7812 Q316.75 124.3281 318.0781 124 Q318.7656 123.8125 319.25 123.8125 Q320.3438 123.8125 321.0469 124.6719 Q321.6094 125.3594 321.6094 125.9375 Q321.6094 126.7812 321.2031 127.2656 Q320.7969 127.75 320.0625 127.9844 Q321.1406 128.1406 321.75 128.7812 Q322.3281 129.4062 322.3281 130.6328 Q322.3281 131.8594 321.5078 132.5156 Q320.6875 133.1719 319.1406 133.1719 Q318.1875 133.1719 317.8281 133.0312 L317.8281 135.5 L316.75 135.5 Z" style="fill:black; stroke:none;" /></g><g ID="li-1:1,3" style="fill:white; text-rendering:optimizeSpeed; font-family:'Serif'; stroke:white;"><rect height="10" style="stroke:none;" width="7" x="341" y="95" /><path d="M344.9219 104.5938 Q345.75 104.5938 346.1953 103.9844 Q346.6406 103.375 346.6406 102.2344 Q346.6406 101.1094 346.1953 100.5 Q345.75 99.8906 344.9219 99.8906 Q344.0938 99.8906 343.6484 100.4766 Q343.2031 101.0625 343.2031 102.1719 Q343.2031 103.3281 343.6484 103.9609 Q344.0938 104.5938 344.9219 104.5938 ZM343.0156 100.1875 Q343.4219 99.75 343.9219 99.5312 Q344.4219 99.3125 345.0625 99.3125 Q346.3594 99.3125 347.1172 100.0938 Q347.875 100.875 347.875 102.2344 Q347.875 103.5625 347.0625 104.3672 Q346.25 105.1719 344.875 105.1719 Q343.3906 105.1719 342.5938 104.0625 Q341.7969 102.9531 341.7969 100.9062 Q341.7969 98.6094 342.7422 97.3516 Q343.6875 96.0938 345.4062 96.0938 Q345.875 96.0938 346.3828 96.1797 Q346.8906 96.2656 347.4219 96.4375 L347.4219 97.8906 L346.7656 97.8906 Q346.6875 97.2969 346.3047 96.9844 Q345.9219 96.6719 345.2812 96.6719 Q344.1406 96.6719 343.5859 97.5312 Q343.0312 98.3906 343.0156 100.1875 Z" style="fill:black; stroke:none;" /><rect height="8" style="stroke:none;" width="8" x="341" y="82" /><path d="M346.1875 88.4688 L345.9531 89.1094 Q345.7656 89.625 345.2031 89.9375 Q344.8438 90.1562 344.2031 90.1406 Q343.0469 90.1406 342.3281 89.2344 Q341.5938 88.3281 341.5938 86.8594 Q341.5938 85.4219 342.3281 84.4844 Q343.0156 83.5938 344.4531 83.6094 Q345.4531 83.6094 345.9531 84 Q346.4062 84.3438 346.5781 85.0938 L346.625 85.3125 L346.8438 84.6719 Q347.0625 84.0469 347.6562 83.75 L348.25 83.75 L348.25 84.0938 Q347.6875 84.2656 347.5 84.8125 L346.8906 86.4844 L347.2969 88.2812 Q347.5 89.2031 347.7344 89.2969 Q348.0469 89.4375 348.7812 89 L348.7812 89.7188 Q347.5938 90.4062 346.75 89.6875 Q346.375 89.3594 346.2656 88.875 L346.1875 88.4688 ZM345.9219 87.3125 L345.5625 85.5938 Q345.2656 84.2188 344.4688 84.2188 Q343.7969 84.2031 343.2812 84.9375 Q342.8594 85.5156 342.8594 86.875 Q342.8594 88.1719 343.2812 88.8281 Q343.75 89.5469 344.5312 89.5 Q345.2031 89.4375 345.6875 88 L345.9219 87.3125 Z" style="fill:black; stroke:none;" /></g></g></svg>