<svg xmlns="http://www.w3.org/2000/svg" style="fill-opacity:1; color-rendering:auto; color-interpolation:auto; text-rendering:auto; stroke:black; stroke-linecap:square; stroke-miterlimit:10; shape-rendering:auto; stroke-opacity:1; fill:black; stroke-dasharray:none; font-weight:normal; stroke-width:1; font-family:'Dialog'; font-style:normal; stroke-linejoin:miter; font-size:12px; stroke-dashoffset:0; image-rendering:auto;"><defs id="genericDefs" /><g><defs id="defs1"><clipPath clipPathUnits="userSpaceOnUse" id="clipPath1"><path d="M290 82 L312 82 L312 104 L290 104 L290 82 Z" /></clipPath><clipPath clipPathUnits="userSpaceOnUse" id="clipPath2"><path d="M238 82 L260 82 L260 104 L238 104 L238 82 Z" /></clipPath><clipPath clipPathUnits="userSpaceOnUse" id="clipPath3"><path d="M208 93 C208 99.0751 203.0751 104 197 104 C190.9249 104 186 99.0751 186 93 C186 86.9249 190.9249 82 197 82 C203.0751 82 208 86.9249 208 93 Z" /></clipPath><clipPath clipPathUnits="userSpaceOnUse" id="clipPath4"><path d="M156 119 C156 125.0751 151.0751 130 145 130 C138.9249 130 134 125.0751 134 119 C134 112.9249 138.9249 108 145 108 C151.0751 108 156 112.9249 156 119 Z" /></clipPath><clipPath clipPathUnits="userSpaceOnUse" id="clipPath5"><path d="M156 67 C156 73.0751 151.0751 78 145 78 C138.9249 78 134 73.0751 134 67 C134 60.9249 138.9249 56 145 56 C151.0751 56 156 60.9249 156 67 Z" /></clipPath><clipPath clipPathUnits="userSpaceOnUse" id="clipPath6"><path d="M104 93 C104 99.0751 99.0751 104 93 104 C86.9249 104 82 99.0751 82 93 C82 86.9249 86.9249 82 93 82 C99.0751 82 104 86.9249 104 93 Z" /></clipPath><clipPath clipPathUnits="userSpaceOnUse" id="clipPath7"><path d="M52 93 C52 99.0751 47.0751 104 41 104 C34.9249 104 30 99.0751 30 93 C30 86.9249 34.9249 82 41 82 C47.0751 82 52 86.9249 52 93 Z" /></clipPath><clipPath clipPathUnits="userSpaceOnUse" id="clipPath8"><path d="M104 41 C104 47.0751 99.0751 52 93 52 C86.9249 52 82 47.0751 82 41 C82 34.9249 86.9249 30 93 30 C99.0751 30 104 34.9249 104 41 Z" /></clipPath><clipPath clipPathUnits="userSpaceOnUse" id="clipPath9"><path d="M52 41 C52 47.0751 47.0751 52 41 52 C34.9249 52 30 47.0751 30 41 C30 34.9249 34.9249 30 41 30 C47.0751 30 52 34.9249 52 41 Z" /></clipPath></defs><g style="fill:white; text-rendering:optimizeSpeed; stroke:white;"><rect height="160" style="stroke:none;" width="342" x="0" y="0" /></g><g ID="l-1:1,2" style="text-rendering:optimizeSpeed;"><polygon points=" 301 93 249 93" style="fill:none;" /></g><g ID="r-1:1" style="fill:white; text-rendering:optimizeSpeed; stroke:white;" wurcs_mono_id="1"><rect height="22" style="clip-path:url(#clipPath1); stroke:none;" width="22" x="290" y="82" /><rect height="22" style="clip-path:url(#clipPath1); fill:rgb(0,144,188); stroke:none;" width="22" x="290" y="82" /><rect height="22" style="clip-path:url(#clipPath1); fill:none; stroke:black;" width="22" x="290" y="82" /><rect height="22" style="fill:none; stroke:black;" width="22" x="290" y="82" /></g><g style="font-style:italic; text-rendering:optimizeSpeed; font-size:10px; font-family:'SansSerif';"><path d="M302.0938 90.1562 Q301.375 90.1562 300.8359 90.7188 Q300.2969 91.2812 300.0781 92.2656 Q299.875 93.25 300.1719 93.8125 Q300.4688 94.375 301.2031 94.375 Q301.9219 94.375 302.4609 93.8125 Q303 93.25 303.2031 92.2656 Q303.4062 91.2969 303.1094 90.7266 Q302.8125 90.1562 302.0938 90.1562 ZM302.25 89.4062 Q303.4219 89.4062 303.9297 90.1641 Q304.4375 90.9219 304.1562 92.2656 Q303.875 93.6094 303.0391 94.375 Q302.2031 95.1406 301.0312 95.1406 Q299.8594 95.1406 299.3516 94.375 Q298.8438 93.6094 299.125 92.2656 Q299.4062 90.9219 300.2422 90.1641 Q301.0781 89.4062 302.25 89.4062 Z" style="stroke:none;" /></g><g ID="l-1:2,3" style="text-rendering:optimizeSpeed;"><polygon points=" 249 93 197 93" style="fill:none;" /></g><g ID="r-1:2" style="fill:white; text-rendering:optimizeSpeed; stroke:white;" wurcs_mono_id="2"><rect height="22" style="clip-path:url(#clipPath2); stroke:none;" width="22" x="238" y="82" /><rect height="22" style="clip-path:url(#clipPath2); fill:rgb(0,144,188); stroke:none;" width="22" x="238" y="82" /><rect height="22" style="clip-path:url(#clipPath2); fill:none; stroke:black;" width="22" x="238" y="82" /><rect height="22" style="fill:none; stroke:black;" width="22" x="238" y="82" /></g><g ID="l-1:3,4" style="text-rendering:optimizeSpeed;"><polygon points=" 197 93 145 119" style="fill:none;" /></g><g ID="l-1:3,5" style="text-rendering:optimizeSpeed;"><polygon points=" 197 93 145 67" style="fill:none;" /></g><g ID="r-1:3" style="fill:white; text-rendering:optimizeSpeed; stroke:white;" wurcs_mono_id="3"><circle cx="197" cy="93" r="11" style="clip-path:url(#clipPath3); stroke:none;" /><rect height="22" style="clip-path:url(#clipPath3); fill:rgb(0,166,81); stroke:none;" width="22" x="186" y="82" /><rect height="22" style="clip-path:url(#clipPath3); fill:none; stroke:black;" width="22" x="186" y="82" /><circle cx="197" cy="93" r="11" style="fill:none; stroke:black;" /></g><g ID="r-1:4" style="fill:white; text-rendering:optimizeSpeed; stroke:white;" wurcs_mono_id="4"><circle cx="145" cy="119" r="11" style="clip-path:url(#clipPath4); stroke:none;" /><rect height="22" style="clip-path:url(#clipPath4); fill:rgb(0,166,81); stroke:none;" width="22" x="134" y="108" /><rect height="22" style="clip-path:url(#clipPath4); fill:none; stroke:black;" width="22" x="134" y="108" /><circle cx="145" cy="119" r="11" style="fill:none; stroke:black;" /></g><g ID="l-1:5,6" style="text-rendering:optimizeSpeed;"><polygon points=" 145 67 93 93" style="fill:none;" /></g><g ID="l-1:5,7" style="text-rendering:optimizeSpeed;"><polygon points=" 145 67 93 41" style="fill:none;" /></g><g ID="r-1:5" style="fill:white; text-rendering:optimizeSpeed; stroke:white;" wurcs_mono_id="5"><circle cx="145" cy="67" r="11" style="clip-path:url(#clipPath5); stroke:none;" /><rect height="22" style="clip-path:url(#clipPath5); fill:rgb(0,166,81); stroke:none;" width="22" x="134" y="56" /><rect height="22" style="clip-path:url(#clipPath5); fill:none; stroke:black;" width="22" x="134" y="56" /><circle cx="145" cy="67" r="11" style="fill:none; stroke:black;" /></g><g ID="l-1:6,8" style="text-rendering:optimizeSpeed;"><polygon points=" 93 93 41 93" style="fill:none;" /></g><g ID="r-1:6" style="fill:white; text-rendering:optimizeSpeed; stroke:white;" wurcs_mono_id="6"><circle cx="93" cy="93" r="11" style="clip-path:url(#clipPath6); stroke:none;" /><rect height="22" style="clip-path:url(#clipPath6); fill:rgb(0,166,81); stroke:none;" width="22" x="82" y="82" /><rect height="22" style="clip-path:url(#clipPath6); fill:none; stroke:black;" width="22" x="82" y="82" /><circle cx="93" cy="93" r="11" style="fill:none; stroke:black;" /></g><g ID="r-1:8" style="fill:white; text-rendering:optimizeSpeed; stroke:white;" wurcs_mono_id="7"><circle cx="41" cy="93" r="11" style="clip-path:url(#clipPath7); stroke:none;" /><rect height="22" style="clip-path:url(#clipPath7); fill:rgb(0,166,81); stroke:none;" width="22" x="30" y="82" /><rect height="22" style="clip-path:url(#clipPath7); fill:none; stroke:black;" width="22" x="30" y="82" /><circle cx="41" cy="93" r="11" style="fill:none; stroke:black;" /></g><g ID="li-1:6,8" style="fill:white; text-rendering:optimizeSpeed; font-family:'Serif'; stroke:white;"><rect height="9" style="stroke:none;" width="7" x="70" y="96" /><path d="M71.5312 98.3438 L70.875 98.3438 L70.875 96.7812 Q71.5 96.4375 72.1406 96.2656 Q72.7812 96.0938 73.3906 96.0938 Q74.75 96.0938 75.5391 96.7578 Q76.3281 97.4219 76.3281 98.5469 Q76.3281 99.8438 74.5469 101.625 Q74.4062 101.7656 74.3281 101.8281 L72.125 104.0312 L75.7656 104.0312 L75.7656 102.9531 L76.4531 102.9531 L76.4531 105 L70.8125 105 L70.8125 104.3594 L73.4688 101.7188 Q74.3438 100.8281 74.7188 100.0938 Q75.0938 99.3594 75.0938 98.5469 Q75.0938 97.6719 74.6328 97.1719 Q74.1719 96.6719 73.375 96.6719 Q72.5312 96.6719 72.0781 97.0859 Q71.625 97.5 71.5312 98.3438 Z" style="fill:black; stroke:none;" /><rect height="8" style="stroke:none;" width="8" x="56" y="97" /><path d="M61.1875 103.4688 L60.9531 104.1094 Q60.7656 104.625 60.2031 104.9375 Q59.8438 105.1562 59.2031 105.1406 Q58.0469 105.1406 57.3281 104.2344 Q56.5938 103.3281 56.5938 101.8594 Q56.5938 100.4219 57.3281 99.4844 Q58.0156 98.5938 59.4531 98.6094 Q60.4531 98.6094 60.9531 99 Q61.4062 99.3438 61.5781 100.0938 L61.625 100.3125 L61.8438 99.6719 Q62.0625 99.0469 62.6562 98.75 L63.25 98.75 L63.25 99.0938 Q62.6875 99.2656 62.5 99.8125 L61.8906 101.4844 L62.2969 103.2812 Q62.5 104.2031 62.7344 104.2969 Q63.0469 104.4375 63.7812 104 L63.7812 104.7188 Q62.5938 105.4062 61.75 104.6875 Q61.375 104.3594 61.2656 103.875 L61.1875 103.4688 ZM60.9219 102.3125 L60.5625 100.5938 Q60.2656 99.2188 59.4688 99.2188 Q58.7969 99.2031 58.2812 99.9375 Q57.8594 100.5156 57.8594 101.875 Q57.8594 103.1719 58.2812 103.8281 Q58.75 104.5469 59.5312 104.5 Q60.2031 104.4375 60.6875 103 L60.9219 102.3125 Z" style="fill:black; stroke:none;" /></g><g ID="l-1:7,9" style="text-rendering:optimizeSpeed;"><polygon points=" 93 41 41 41" style="fill:none;" /></g><g ID="r-1:7" style="fill:white; text-rendering:optimizeSpeed; stroke:white;" wurcs_mono_id="8"><circle cx="93" cy="41" r="11" style="clip-path:url(#clipPath8); stroke:none;" /><rect height="22" style="clip-path:url(#clipPath8); fill:rgb(0,166,81); stroke:none;" width="22" x="82" y="30" /><rect height="22" style="clip-path:url(#clipPath8); fill:none; stroke:black;" width="22" x="82" y="30" /><circle cx="93" cy="41" r="11" style="fill:none; stroke:black;" /></g><g ID="r-1:9" style="fill:white; text-rendering:optimizeSpeed; stroke:white;" wurcs_mono_id="9"><circle cx="41" cy="41" r="11" style="clip-path:url(#clipPath9); stroke:none;" /><rect height="22" style="clip-path:url(#clipPath9); fill:rgb(0,166,81); stroke:none;" width="22" x="30" y="30" /><rect height="22" style="clip-path:url(#clipPath9); fill:none; stroke:black;" width="22" x="30" y="30" /><circle cx="41" cy="41" r="11" style="fill:none; stroke:black;" /></g><g ID="li-1:7,9" style="fill:white; text-rendering:optimizeSpeed; font-family:'Serif'; stroke:white;"><rect height="9" style="stroke:none;" width="7" x="70" y="44" /><path d="M71.5312 46.3438 L70.875 46.3438 L70.875 44.7812 Q71.5 44.4375 72.1406 44.2656 Q72.7812 44.0938 73.3906 44.0938 Q74.75 44.0938 75.5391 44.7578 Q76.3281 45.4219 76.3281 46.5469 Q76.3281 47.8438 74.5469 49.625 Q74.4062 49.7656 74.3281 49.8281 L72.125 52.0312 L75.7656 52.0312 L75.7656 50.9531 L76.4531 50.9531 L76.4531 53 L70.8125 53 L70.8125 52.3594 L73.4688 49.7188 Q74.3438 48.8281 74.7188 48.0938 Q75.0938 47.3594 75.0938 46.5469 Q75.0938 45.6719 74.6328 45.1719 Q74.1719 44.6719 73.375 44.6719 Q72.5312 44.6719 72.0781 45.0859 Q71.625 45.5 71.5312 46.3438 Z" style="fill:black; stroke:none;" /><rect height="8" style="stroke:none;" width="8" x="56" y="45" /><path d="M61.1875 51.4688 L60.9531 52.1094 Q60.7656 52.625 60.2031 52.9375 Q59.8438 53.1562 59.2031 53.1406 Q58.0469 53.1406 57.3281 52.2344 Q56.5938 51.3281 56.5938 49.8594 Q56.5938 48.4219 57.3281 47.4844 Q58.0156 46.5938 59.4531 46.6094 Q60.4531 46.6094 60.9531 47 Q61.4062 47.3438 61.5781 48.0938 L61.625 48.3125 L61.8438 47.6719 Q62.0625 47.0469 62.6562 46.75 L63.25 46.75 L63.25 47.0938 Q62.6875 47.2656 62.5 47.8125 L61.8906 49.4844 L62.2969 51.2812 Q62.5 52.2031 62.7344 52.2969 Q63.0469 52.4375 63.7812 52 L63.7812 52.7188 Q62.5938 53.4062 61.75 52.6875 Q61.375 52.3594 61.2656 51.875 L61.1875 51.4688 ZM60.9219 50.3125 L60.5625 48.5938 Q60.2656 47.2188 59.4688 47.2188 Q58.7969 47.2031 58.2812 47.9375 Q57.8594 48.5156 57.8594 49.875 Q57.8594 51.1719 58.2812 51.8281 Q58.75 52.5469 59.5312 52.5 Q60.2031 52.4375 60.6875 51 L60.9219 50.3125 Z" style="fill:black; stroke:none;" /></g><g ID="li-1:5,6" style="fill:white; text-rendering:optimizeSpeed; font-family:'Serif'; stroke:white;"><rect height="10" style="stroke:none;" width="7" x="126" y="78" /><path d="M127.1719 79.625 Q127.8594 79.3594 128.4844 79.2266 Q129.1094 79.0938 129.6562 79.0938 Q130.9531 79.0938 131.6719 79.6484 Q132.3906 80.2031 132.3906 81.1875 Q132.3906 81.9688 131.8906 82.5 Q131.3906 83.0312 130.4844 83.2188 Q131.5625 83.375 132.1562 84.0078 Q132.75 84.6406 132.75 85.6406 Q132.75 86.8594 131.9219 87.5156 Q131.0938 88.1719 129.5469 88.1719 Q128.8594 88.1719 128.2109 88.0234 Q127.5625 87.875 126.9219 87.5781 L126.9219 85.875 L127.5781 85.875 Q127.625 86.7188 128.1406 87.1562 Q128.6562 87.5938 129.5781 87.5938 Q130.4688 87.5938 130.9922 87.0703 Q131.5156 86.5469 131.5156 85.6562 Q131.5156 84.625 130.9766 84.0938 Q130.4375 83.5625 129.4062 83.5625 L128.8594 83.5625 L128.8594 82.9531 L129.1406 82.9531 Q130.1719 82.9531 130.6875 82.5312 Q131.2031 82.1094 131.2031 81.25 Q131.2031 80.4844 130.7812 80.0781 Q130.3594 79.6719 129.5625 79.6719 Q128.7656 79.6719 128.3359 80.0469 Q127.9062 80.4219 127.8281 81.1562 L127.1719 81.1562 L127.1719 79.625 Z" style="fill:black; stroke:none;" /><rect height="8" style="stroke:none;" width="8" x="110" y="87" /><path d="M115.1875 93.4688 L114.9531 94.1094 Q114.7656 94.625 114.2031 94.9375 Q113.8438 95.1562 113.2031 95.1406 Q112.0469 95.1406 111.3281 94.2344 Q110.5938 93.3281 110.5938 91.8594 Q110.5938 90.4219 111.3281 89.4844 Q112.0156 88.5938 113.4531 88.6094 Q114.4531 88.6094 114.9531 89 Q115.4062 89.3438 115.5781 90.0938 L115.625 90.3125 L115.8438 89.6719 Q116.0625 89.0469 116.6562 88.75 L117.25 88.75 L117.25 89.0938 Q116.6875 89.2656 116.5 89.8125 L115.8906 91.4844 L116.2969 93.2812 Q116.5 94.2031 116.7344 94.2969 Q117.0469 94.4375 117.7812 94 L117.7812 94.7188 Q116.5938 95.4062 115.75 94.6875 Q115.375 94.3594 115.2656 93.875 L115.1875 93.4688 ZM114.9219 92.3125 L114.5625 90.5938 Q114.2656 89.2188 113.4688 89.2188 Q112.7969 89.2031 112.2812 89.9375 Q111.8594 90.5156 111.8594 91.875 Q111.8594 93.1719 112.2812 93.8281 Q112.75 94.5469 113.5312 94.5 Q114.2031 94.4375 114.6875 93 L114.9219 92.3125 Z" style="fill:black; stroke:none;" /></g><g ID="li-1:5,7" style="fill:white; text-rendering:optimizeSpeed; font-family:'Serif'; stroke:white;"><rect height="10" style="stroke:none;" width="7" x="119" y="60" /><path d="M122.9219 69.5938 Q123.75 69.5938 124.1953 68.9844 Q124.6406 68.375 124.6406 67.2344 Q124.6406 66.1094 124.1953 65.5 Q123.75 64.8906 122.9219 64.8906 Q122.0938 64.8906 121.6484 65.4766 Q121.2031 66.0625 121.2031 67.1719 Q121.2031 68.3281 121.6484 68.9609 Q122.0938 69.5938 122.9219 69.5938 ZM121.0156 65.1875 Q121.4219 64.75 121.9219 64.5312 Q122.4219 64.3125 123.0625 64.3125 Q124.3594 64.3125 125.1172 65.0938 Q125.875 65.875 125.875 67.2344 Q125.875 68.5625 125.0625 69.3672 Q124.25 70.1719 122.875 70.1719 Q121.3906 70.1719 120.5938 69.0625 Q119.7969 67.9531 119.7969 65.9062 Q119.7969 63.6094 120.7422 62.3516 Q121.6875 61.0938 123.4062 61.0938 Q123.875 61.0938 124.3828 61.1797 Q124.8906 61.2656 125.4219 61.4375 L125.4219 62.8906 L124.7656 62.8906 Q124.6875 62.2969 124.3047 61.9844 Q123.9219 61.6719 123.2812 61.6719 Q122.1406 61.6719 121.5859 62.5312 Q121.0312 63.3906 121.0156 65.1875 Z" style="fill:black; stroke:none;" /><rect height="8" style="stroke:none;" width="8" x="103" y="53" /><path d="M108.1875 59.4688 L107.9531 60.1094 Q107.7656 60.625 107.2031 60.9375 Q106.8438 61.1562 106.2031 61.1406 Q105.0469 61.1406 104.3281 60.2344 Q103.5938 59.3281 103.5938 57.8594 Q103.5938 56.4219 104.3281 55.4844 Q105.0156 54.5938 106.4531 54.6094 Q107.4531 54.6094 107.9531 55 Q108.4062 55.3438 108.5781 56.0938 L108.625 56.3125 L108.8438 55.6719 Q109.0625 55.0469 109.6562 54.75 L110.25 54.75 L110.25 55.0938 Q109.6875 55.2656 109.5 55.8125 L108.8906 57.4844 L109.2969 59.2812 Q109.5 60.2031 109.7344 60.2969 Q110.0469 60.4375 110.7812 60 L110.7812 60.7188 Q109.5938 61.4062 108.75 60.6875 Q108.375 60.3594 108.2656 59.875 L108.1875 59.4688 ZM107.9219 58.3125 L107.5625 56.5938 Q107.2656 55.2188 106.4688 55.2188 Q105.7969 55.2031 105.2812 55.9375 Q104.8594 56.5156 104.8594 57.875 Q104.8594 59.1719 105.2812 59.8281 Q105.75 60.5469 106.5312 60.5 Q107.2031 60.4375 107.6875 59 L107.9219 58.3125 Z" style="fill:black; stroke:none;" /></g><g ID="li-1:3,4" style="fill:white; text-rendering:optimizeSpeed; font-family:'Serif'; stroke:white;"><rect height="10" style="stroke:none;" width="7" x="178" y="104" /><path d="M179.1719 105.625 Q179.8594 105.3594 180.4844 105.2266 Q181.1094 105.0938 181.6562 105.0938 Q182.9531 105.0938 183.6719 105.6484 Q184.3906 106.2031 184.3906 107.1875 Q184.3906 107.9688 183.8906 108.5 Q183.3906 109.0312 182.4844 109.2188 Q183.5625 109.375 184.1562 110.0078 Q184.75 110.6406 184.75 111.6406 Q184.75 112.8594 183.9219 113.5156 Q183.0938 114.1719 181.5469 114.1719 Q180.8594 114.1719 180.2109 114.0234 Q179.5625 113.875 178.9219 113.5781 L178.9219 111.875 L179.5781 111.875 Q179.625 112.7188 180.1406 113.1562 Q180.6562 113.5938 181.5781 113.5938 Q182.4688 113.5938 182.9922 113.0703 Q183.5156 112.5469 183.5156 111.6562 Q183.5156 110.625 182.9766 110.0938 Q182.4375 109.5625 181.4062 109.5625 L180.8594 109.5625 L180.8594 108.9531 L181.1406 108.9531 Q182.1719 108.9531 182.6875 108.5312 Q183.2031 108.1094 183.2031 107.25 Q183.2031 106.4844 182.7812 106.0781 Q182.3594 105.6719 181.5625 105.6719 Q180.7656 105.6719 180.3359 106.0469 Q179.9062 106.4219 179.8281 107.1562 L179.1719 107.1562 L179.1719 105.625 Z" style="fill:black; stroke:none;" /><rect height="8" style="stroke:none;" width="8" x="162" y="113" /><path d="M167.1875 119.4688 L166.9531 120.1094 Q166.7656 120.625 166.2031 120.9375 Q165.8438 121.1562 165.2031 121.1406 Q164.0469 121.1406 163.3281 120.2344 Q162.5938 119.3281 162.5938 117.8594 Q162.5938 116.4219 163.3281 115.4844 Q164.0156 114.5938 165.4531 114.6094 Q166.4531 114.6094 166.9531 115 Q167.4062 115.3438 167.5781 116.0938 L167.625 116.3125 L167.8438 115.6719 Q168.0625 115.0469 168.6562 114.75 L169.25 114.75 L169.25 115.0938 Q168.6875 115.2656 168.5 115.8125 L167.8906 117.4844 L168.2969 119.2812 Q168.5 120.2031 168.7344 120.2969 Q169.0469 120.4375 169.7812 120 L169.7812 120.7188 Q168.5938 121.4062 167.75 120.6875 Q167.375 120.3594 167.2656 119.875 L167.1875 119.4688 ZM166.9219 118.3125 L166.5625 116.5938 Q166.2656 115.2188 165.4688 115.2188 Q164.7969 115.2031 164.2812 115.9375 Q163.8594 116.5156 163.8594 117.875 Q163.8594 119.1719 164.2812 119.8281 Q164.75 120.5469 165.5312 120.5 Q166.2031 120.4375 166.6875 119 L166.9219 118.3125 Z" style="fill:black; stroke:none;" /></g><g ID="li-1:3,5" style="fill:white; text-rendering:optimizeSpeed; font-family:'Serif'; stroke:white;"><rect height="10" style="stroke:none;" width="7" x="171" y="86" /><path d="M174.9219 95.5938 Q175.75 95.5938 176.1953 94.9844 Q176.6406 94.375 176.6406 93.2344 Q176.6406 92.1094 176.1953 91.5 Q175.75 90.8906 174.9219 90.8906 Q174.0938 90.8906 173.6484 91.4766 Q173.2031 92.0625 173.2031 93.1719 Q173.2031 94.3281 173.6484 94.9609 Q174.0938 95.5938 174.9219 95.5938 ZM173.0156 91.1875 Q173.4219 90.75 173.9219 90.5312 Q174.4219 90.3125 175.0625 90.3125 Q176.3594 90.3125 177.1172 91.0938 Q177.875 91.875 177.875 93.2344 Q177.875 94.5625 177.0625 95.3672 Q176.25 96.1719 174.875 96.1719 Q173.3906 96.1719 172.5938 95.0625 Q171.7969 93.9531 171.7969 91.9062 Q171.7969 89.6094 172.7422 88.3516 Q173.6875 87.0938 175.4062 87.0938 Q175.875 87.0938 176.3828 87.1797 Q176.8906 87.2656 177.4219 87.4375 L177.4219 88.8906 L176.7656 88.8906 Q176.6875 88.2969 176.3047 87.9844 Q175.9219 87.6719 175.2812 87.6719 Q174.1406 87.6719 173.5859 88.5312 Q173.0312 89.3906 173.0156 91.1875 Z" style="fill:black; stroke:none;" /><rect height="8" style="stroke:none;" width="8" x="155" y="79" /><path d="M160.1875 85.4688 L159.9531 86.1094 Q159.7656 86.625 159.2031 86.9375 Q158.8438 87.1562 158.2031 87.1406 Q157.0469 87.1406 156.3281 86.2344 Q155.5938 85.3281 155.5938 83.8594 Q155.5938 82.4219 156.3281 81.4844 Q157.0156 80.5938 158.4531 80.6094 Q159.4531 80.6094 159.9531 81 Q160.4062 81.3438 160.5781 82.0938 L160.625 82.3125 L160.8438 81.6719 Q161.0625 81.0469 161.6562 80.75 L162.25 80.75 L162.25 81.0938 Q161.6875 81.2656 161.5 81.8125 L160.8906 83.4844 L161.2969 85.2812 Q161.5 86.2031 161.7344 86.2969 Q162.0469 86.4375 162.7812 86 L162.7812 86.7188 Q161.5938 87.4062 160.75 86.6875 Q160.375 86.3594 160.2656 85.875 L160.1875 85.4688 ZM159.9219 84.3125 L159.5625 82.5938 Q159.2656 81.2188 158.4688 81.2188 Q157.7969 81.2031 157.2812 81.9375 Q156.8594 82.5156 156.8594 83.875 Q156.8594 85.1719 157.2812 85.8281 Q157.75 86.5469 158.5312 86.5 Q159.2031 86.4375 159.6875 85 L159.9219 84.3125 Z" style="fill:black; stroke:none;" /></g><g ID="li-1:2,3" style="fill:white; text-rendering:optimizeSpeed; font-family:'Serif'; stroke:white;"><rect height="9" style="stroke:none;" width="8" x="226" y="96" /><path d="M230.1875 102.0312 L230.1875 97.375 L227.2031 102.0312 L230.1875 102.0312 ZM232.7656 105 L228.7812 105 L228.7812 104.375 L230.1875 104.375 L230.1875 102.6562 L226.375 102.6562 L226.375 102.0156 L230.2031 96.0938 L231.3594 96.0938 L231.3594 102.0312 L233.0312 102.0312 L233.0312 102.6562 L231.3594 102.6562 L231.3594 104.375 L232.7656 104.375 L232.7656 105 Z" style="fill:black; stroke:none;" /><rect height="13" style="stroke:none;" width="7" x="212" y="94" /><path d="M213.8281 106.25 Q214.2969 106.5938 215.1719 106.5938 Q216.0625 106.5938 216.5781 106.0703 Q217.0938 105.5469 217.0938 104.6562 Q217.0938 103.4219 216.5625 102.8906 Q216.0156 102.3594 215 102.3594 L214.4375 102.3594 L214.4375 101.7188 L214.7344 101.7188 Q215.4844 101.7188 216 101.2969 Q216.4219 100.9531 216.4219 100.0156 Q216.4219 99.6094 216.1406 99.1406 Q215.6875 98.375 215.1562 98.3906 Q213.8281 98.4375 213.8281 100.7812 L213.8281 106.25 ZM212.75 109.5 L212.75 100.7812 Q212.75 98.3281 214.0781 98 Q214.7656 97.8125 215.25 97.8125 Q216.3438 97.8125 217.0469 98.6719 Q217.6094 99.3594 217.6094 99.9375 Q217.6094 100.7812 217.2031 101.2656 Q216.7969 101.75 216.0625 101.9844 Q217.1406 102.1406 217.75 102.7812 Q218.3281 103.4062 218.3281 104.6328 Q218.3281 105.8594 217.5078 106.5156 Q216.6875 107.1719 215.1406 107.1719 Q214.1875 107.1719 213.8281 107.0312 L213.8281 109.5 L212.75 109.5 Z" style="fill:black; stroke:none;" /></g><g ID="li-1:1,2" style="fill:white; text-rendering:optimizeSpeed; font-family:'Serif'; stroke:white;"><rect height="9" style="stroke:none;" width="8" x="278" y="96" /><path d="M282.1875 102.0312 L282.1875 97.375 L279.2031 102.0312 L282.1875 102.0312 ZM284.7656 105 L280.7812 105 L280.7812 104.375 L282.1875 104.375 L282.1875 102.6562 L278.375 102.6562 L278.375 102.0156 L282.2031 96.0938 L283.3594 96.0938 L283.3594 102.0312 L285.0312 102.0312 L285.0312 102.6562 L283.3594 102.6562 L283.3594 104.375 L284.7656 104.375 L284.7656 105 Z" style="fill:black; stroke:none;" /><rect height="13" style="stroke:none;" width="7" x="264" y="94" /><path d="M265.8281 106.25 Q266.2969 106.5938 267.1719 106.5938 Q268.0625 106.5938 268.5781 106.0703 Q269.0938 105.5469 269.0938 104.6562 Q269.0938 103.4219 268.5625 102.8906 Q268.0156 102.3594 267 102.3594 L266.4375 102.3594 L266.4375 101.7188 L266.7344 101.7188 Q267.4844 101.7188 268 101.2969 Q268.4219 100.9531 268.4219 100.0156 Q268.4219 99.6094 268.1406 99.1406 Q267.6875 98.375 267.1562 98.3906 Q265.8281 98.4375 265.8281 100.7812 L265.8281 106.25 ZM264.75 109.5 L264.75 100.7812 Q264.75 98.3281 266.0781 98 Q266.7656 97.8125 267.25 97.8125 Q268.3438 97.8125 269.0469 98.6719 Q269.6094 99.3594 269.6094 99.9375 Q269.6094 100.7812 269.2031 101.2656 Q268.7969 101.75 268.0625 101.9844 Q269.1406 102.1406 269.75 102.7812 Q270.3281 103.4062 270.3281 104.6328 Q270.3281 105.8594 269.5078 106.5156 Q268.6875 107.1719 267.1406 107.1719 Q266.1875 107.1719 265.8281 107.0312 L265.8281 109.5 L264.75 109.5 Z" style="fill:black; stroke:none;" /></g></g></svg>