<svg xmlns="http://www.w3.org/2000/svg" style="fill-opacity:1; color-rendering:auto; color-interpolation:auto; text-rendering:auto; stroke:black; stroke-linecap:square; stroke-miterlimit:10; shape-rendering:auto; stroke-opacity:1; fill:black; stroke-dasharray:none; font-weight:normal; stroke-width:1; font-family:'Dialog'; font-style:normal; stroke-linejoin:miter; font-size:12px; stroke-dashoffset:0; image-rendering:auto;"><defs id="genericDefs" /><g><defs id="defs1"><clipPath clipPathUnits="userSpaceOnUse" id="clipPath1"><path d="M238 108 L260 108 L260 130 L238 130 L238 108 Z" /></clipPath><clipPath clipPathUnits="userSpaceOnUse" id="clipPath2"><path d="M186 108 L208 108 L208 130 L186 130 L186 108 Z" /></clipPath><clipPath clipPathUnits="userSpaceOnUse" id="clipPath3"><path d="M156 119 C156 125.0751 151.0751 130 145 130 C138.9249 130 134 125.0751 134 119 C134 112.9249 138.9249 108 145 108 C151.0751 108 156 112.9249 156 119 Z" /></clipPath><clipPath clipPathUnits="userSpaceOnUse" id="clipPath4"><path d="M104 171 C104 177.0751 99.0751 182 93 182 C86.9249 182 82 177.0751 82 171 C82 164.9249 86.9249 160 93 160 C99.0751 160 104 164.9249 104 171 Z" /></clipPath><clipPath clipPathUnits="userSpaceOnUse" id="clipPath5"><path d="M52 171 C52 177.0751 47.0751 182 41 182 C34.9249 182 30 177.0751 30 171 C30 164.9249 34.9249 160 41 160 C47.0751 160 52 164.9249 52 171 Z" /></clipPath><clipPath clipPathUnits="userSpaceOnUse" id="clipPath6"><path d="M82 108 L104 108 L104 130 L82 130 L82 108 Z" /></clipPath><clipPath clipPathUnits="userSpaceOnUse" id="clipPath7"><path d="M104 67 C104 73.0751 99.0751 78 93 78 C86.9249 78 82 73.0751 82 67 C82 60.9249 86.9249 56 93 56 C99.0751 56 104 60.9249 104 67 Z" /></clipPath><clipPath clipPathUnits="userSpaceOnUse" id="clipPath8"><path d="M52 93 C52 99.0751 47.0751 104 41 104 C34.9249 104 30 99.0751 30 93 C30 86.9249 34.9249 82 41 82 C47.0751 82 52 86.9249 52 93 Z" /></clipPath><clipPath clipPathUnits="userSpaceOnUse" id="clipPath9"><path d="M52 41 C52 47.0751 47.0751 52 41 52 C34.9249 52 30 47.0751 30 41 C30 34.9249 34.9249 30 41 30 C47.0751 30 52 34.9249 52 41 Z" /></clipPath></defs><g style="fill:white; text-rendering:optimizeSpeed; stroke:white;"><rect height="212" style="stroke:none;" width="290" x="0" y="0" /></g><g ID="l-1:1,2" style="text-rendering:optimizeSpeed;"><polygon points=" 249 119 197 119" style="fill:none;" /></g><g ID="r-1:1" style="fill:white; text-rendering:optimizeSpeed; stroke:white;" wurcs_mono_id="1"><rect height="22" style="clip-path:url(#clipPath1); stroke:none;" width="22" x="238" y="108" /><rect height="22" style="clip-path:url(#clipPath1); fill:rgb(0,144,188); stroke:none;" width="22" x="238" y="108" /><rect height="22" style="clip-path:url(#clipPath1); fill:none; stroke:black;" width="22" x="238" y="108" /><rect height="22" style="fill:none; stroke:black;" width="22" x="238" y="108" /></g><g ID="l-1:2,3" style="text-rendering:optimizeSpeed;"><polygon points=" 197 119 145 119" style="fill:none;" /></g><g ID="r-1:2" style="fill:white; text-rendering:optimizeSpeed; stroke:white;" wurcs_mono_id="2"><rect height="22" style="clip-path:url(#clipPath2); stroke:none;" width="22" x="186" y="108" /><rect height="22" style="clip-path:url(#clipPath2); fill:rgb(0,144,188); stroke:none;" width="22" x="186" y="108" /><rect height="22" style="clip-path:url(#clipPath2); fill:none; stroke:black;" width="22" x="186" y="108" /><rect height="22" style="fill:none; stroke:black;" width="22" x="186" y="108" /></g><g ID="l-1:3,4" style="text-rendering:optimizeSpeed;"><polygon points=" 145 119 93 171" style="fill:none;" /></g><g ID="l-1:3,5" style="text-rendering:optimizeSpeed;"><polygon points=" 145 119 93 119" style="fill:none;" /></g><g ID="l-1:3,6" style="text-rendering:optimizeSpeed;"><polygon points=" 145 119 93 67" style="fill:none;" /></g><g ID="r-1:3" style="fill:white; text-rendering:optimizeSpeed; stroke:white;" wurcs_mono_id="3"><circle cx="145" cy="119" r="11" style="clip-path:url(#clipPath3); stroke:none;" /><rect height="22" style="clip-path:url(#clipPath3); fill:rgb(0,166,81); stroke:none;" width="22" x="134" y="108" /><rect height="22" style="clip-path:url(#clipPath3); fill:none; stroke:black;" width="22" x="134" y="108" /><circle cx="145" cy="119" r="11" style="fill:none; stroke:black;" /></g><g ID="l-1:4,7" style="text-rendering:optimizeSpeed;"><polygon points=" 93 171 41 171" style="fill:none;" /></g><g ID="r-1:4" style="fill:white; text-rendering:optimizeSpeed; stroke:white;" wurcs_mono_id="4"><circle cx="93" cy="171" r="11" style="clip-path:url(#clipPath4); stroke:none;" /><rect height="22" style="clip-path:url(#clipPath4); fill:rgb(0,166,81); stroke:none;" width="22" x="82" y="160" /><rect height="22" style="clip-path:url(#clipPath4); fill:none; stroke:black;" width="22" x="82" y="160" /><circle cx="93" cy="171" r="11" style="fill:none; stroke:black;" /></g><g ID="r-1:7" style="fill:white; text-rendering:optimizeSpeed; stroke:white;" wurcs_mono_id="5"><circle cx="41" cy="171" r="11" style="clip-path:url(#clipPath5); stroke:none;" /><rect height="22" style="clip-path:url(#clipPath5); fill:rgb(0,166,81); stroke:none;" width="22" x="30" y="160" /><rect height="22" style="clip-path:url(#clipPath5); fill:none; stroke:black;" width="22" x="30" y="160" /><circle cx="41" cy="171" r="11" style="fill:none; stroke:black;" /></g><g ID="li-1:4,7" style="fill:white; text-rendering:optimizeSpeed; font-family:'Serif'; stroke:white;"><rect height="9" style="stroke:none;" width="7" x="70" y="174" /><path d="M71.5312 176.3438 L70.875 176.3438 L70.875 174.7812 Q71.5 174.4375 72.1406 174.2656 Q72.7812 174.0938 73.3906 174.0938 Q74.75 174.0938 75.5391 174.7578 Q76.3281 175.4219 76.3281 176.5469 Q76.3281 177.8438 74.5469 179.625 Q74.4062 179.7656 74.3281 179.8281 L72.125 182.0312 L75.7656 182.0312 L75.7656 180.9531 L76.4531 180.9531 L76.4531 183 L70.8125 183 L70.8125 182.3594 L73.4688 179.7188 Q74.3438 178.8281 74.7188 178.0938 Q75.0938 177.3594 75.0938 176.5469 Q75.0938 175.6719 74.6328 175.1719 Q74.1719 174.6719 73.375 174.6719 Q72.5312 174.6719 72.0781 175.0859 Q71.625 175.5 71.5312 176.3438 Z" style="fill:black; stroke:none;" /><rect height="8" style="stroke:none;" width="8" x="56" y="175" /><path d="M61.1875 181.4688 L60.9531 182.1094 Q60.7656 182.625 60.2031 182.9375 Q59.8438 183.1562 59.2031 183.1406 Q58.0469 183.1406 57.3281 182.2344 Q56.5938 181.3281 56.5938 179.8594 Q56.5938 178.4219 57.3281 177.4844 Q58.0156 176.5938 59.4531 176.6094 Q60.4531 176.6094 60.9531 177 Q61.4062 177.3438 61.5781 178.0938 L61.625 178.3125 L61.8438 177.6719 Q62.0625 177.0469 62.6562 176.75 L63.25 176.75 L63.25 177.0938 Q62.6875 177.2656 62.5 177.8125 L61.8906 179.4844 L62.2969 181.2812 Q62.5 182.2031 62.7344 182.2969 Q63.0469 182.4375 63.7812 182 L63.7812 182.7188 Q62.5938 183.4062 61.75 182.6875 Q61.375 182.3594 61.2656 181.875 L61.1875 181.4688 ZM60.9219 180.3125 L60.5625 178.5938 Q60.2656 177.2188 59.4688 177.2188 Q58.7969 177.2031 58.2812 177.9375 Q57.8594 178.5156 57.8594 179.875 Q57.8594 181.1719 58.2812 181.8281 Q58.75 182.5469 59.5312 182.5 Q60.2031 182.4375 60.6875 181 L60.9219 180.3125 Z" style="fill:black; stroke:none;" /></g><g ID="r-1:5" style="fill:white; text-rendering:optimizeSpeed; stroke:white;" wurcs_mono_id="6"><rect height="22" style="clip-path:url(#clipPath6); stroke:none;" width="22" x="82" y="108" /><rect height="22" style="clip-path:url(#clipPath6); fill:rgb(0,144,188); stroke:none;" width="22" x="82" y="108" /><rect height="22" style="clip-path:url(#clipPath6); fill:none; stroke:black;" width="22" x="82" y="108" /><rect height="22" style="fill:none; stroke:black;" width="22" x="82" y="108" /></g><g ID="l-1:6,8" style="text-rendering:optimizeSpeed;"><polygon points=" 93 67 41 93" style="fill:none;" /></g><g ID="l-1:6,9" style="text-rendering:optimizeSpeed;"><polygon points=" 93 67 41 41" style="fill:none;" /></g><g ID="r-1:6" style="fill:white; text-rendering:optimizeSpeed; stroke:white;" wurcs_mono_id="7"><circle cx="93" cy="67" r="11" style="clip-path:url(#clipPath7); stroke:none;" /><rect height="22" style="clip-path:url(#clipPath7); fill:rgb(0,166,81); stroke:none;" width="22" x="82" y="56" /><rect height="22" style="clip-path:url(#clipPath7); fill:none; stroke:black;" width="22" x="82" y="56" /><circle cx="93" cy="67" r="11" style="fill:none; stroke:black;" /></g><g ID="r-1:8" style="fill:white; text-rendering:optimizeSpeed; stroke:white;" wurcs_mono_id="8"><circle cx="41" cy="93" r="11" style="clip-path:url(#clipPath8); stroke:none;" /><rect height="22" style="clip-path:url(#clipPath8); fill:rgb(0,166,81); stroke:none;" width="22" x="30" y="82" /><rect height="22" style="clip-path:url(#clipPath8); fill:none; stroke:black;" width="22" x="30" y="82" /><circle cx="41" cy="93" r="11" style="fill:none; stroke:black;" /></g><g ID="r-1:9" style="fill:white; text-rendering:optimizeSpeed; stroke:white;" wurcs_mono_id="9"><circle cx="41" cy="41" r="11" style="clip-path:url(#clipPath9); stroke:none;" /><rect height="22" style="clip-path:url(#clipPath9); fill:rgb(0,166,81); stroke:none;" width="22" x="30" y="30" /><rect height="22" style="clip-path:url(#clipPath9); fill:none; stroke:black;" width="22" x="30" y="30" /><circle cx="41" cy="41" r="11" style="fill:none; stroke:black;" /></g><g ID="li-1:6,8" style="fill:white; text-rendering:optimizeSpeed; font-family:'Serif'; stroke:white;"><rect height="10" style="stroke:none;" width="7" x="74" y="78" /><path d="M75.1719 79.625 Q75.8594 79.3594 76.4844 79.2266 Q77.1094 79.0938 77.6562 79.0938 Q78.9531 79.0938 79.6719 79.6484 Q80.3906 80.2031 80.3906 81.1875 Q80.3906 81.9688 79.8906 82.5 Q79.3906 83.0312 78.4844 83.2188 Q79.5625 83.375 80.1562 84.0078 Q80.75 84.6406 80.75 85.6406 Q80.75 86.8594 79.9219 87.5156 Q79.0938 88.1719 77.5469 88.1719 Q76.8594 88.1719 76.2109 88.0234 Q75.5625 87.875 74.9219 87.5781 L74.9219 85.875 L75.5781 85.875 Q75.625 86.7188 76.1406 87.1562 Q76.6562 87.5938 77.5781 87.5938 Q78.4688 87.5938 78.9922 87.0703 Q79.5156 86.5469 79.5156 85.6562 Q79.5156 84.625 78.9766 84.0938 Q78.4375 83.5625 77.4062 83.5625 L76.8594 83.5625 L76.8594 82.9531 L77.1406 82.9531 Q78.1719 82.9531 78.6875 82.5312 Q79.2031 82.1094 79.2031 81.25 Q79.2031 80.4844 78.7812 80.0781 Q78.3594 79.6719 77.5625 79.6719 Q76.7656 79.6719 76.3359 80.0469 Q75.9062 80.4219 75.8281 81.1562 L75.1719 81.1562 L75.1719 79.625 Z" style="fill:black; stroke:none;" /><rect height="8" style="stroke:none;" width="8" x="58" y="87" /><path d="M63.1875 93.4688 L62.9531 94.1094 Q62.7656 94.625 62.2031 94.9375 Q61.8438 95.1562 61.2031 95.1406 Q60.0469 95.1406 59.3281 94.2344 Q58.5938 93.3281 58.5938 91.8594 Q58.5938 90.4219 59.3281 89.4844 Q60.0156 88.5938 61.4531 88.6094 Q62.4531 88.6094 62.9531 89 Q63.4062 89.3438 63.5781 90.0938 L63.625 90.3125 L63.8438 89.6719 Q64.0625 89.0469 64.6562 88.75 L65.25 88.75 L65.25 89.0938 Q64.6875 89.2656 64.5 89.8125 L63.8906 91.4844 L64.2969 93.2812 Q64.5 94.2031 64.7344 94.2969 Q65.0469 94.4375 65.7812 94 L65.7812 94.7188 Q64.5938 95.4062 63.75 94.6875 Q63.375 94.3594 63.2656 93.875 L63.1875 93.4688 ZM62.9219 92.3125 L62.5625 90.5938 Q62.2656 89.2188 61.4688 89.2188 Q60.7969 89.2031 60.2812 89.9375 Q59.8594 90.5156 59.8594 91.875 Q59.8594 93.1719 60.2812 93.8281 Q60.75 94.5469 61.5312 94.5 Q62.2031 94.4375 62.6875 93 L62.9219 92.3125 Z" style="fill:black; stroke:none;" /></g><g ID="li-1:6,9" style="fill:white; text-rendering:optimizeSpeed; font-family:'Serif'; stroke:white;"><rect height="10" style="stroke:none;" width="7" x="67" y="60" /><path d="M70.9219 69.5938 Q71.75 69.5938 72.1953 68.9844 Q72.6406 68.375 72.6406 67.2344 Q72.6406 66.1094 72.1953 65.5 Q71.75 64.8906 70.9219 64.8906 Q70.0938 64.8906 69.6484 65.4766 Q69.2031 66.0625 69.2031 67.1719 Q69.2031 68.3281 69.6484 68.9609 Q70.0938 69.5938 70.9219 69.5938 ZM69.0156 65.1875 Q69.4219 64.75 69.9219 64.5312 Q70.4219 64.3125 71.0625 64.3125 Q72.3594 64.3125 73.1172 65.0938 Q73.875 65.875 73.875 67.2344 Q73.875 68.5625 73.0625 69.3672 Q72.25 70.1719 70.875 70.1719 Q69.3906 70.1719 68.5938 69.0625 Q67.7969 67.9531 67.7969 65.9062 Q67.7969 63.6094 68.7422 62.3516 Q69.6875 61.0938 71.4062 61.0938 Q71.875 61.0938 72.3828 61.1797 Q72.8906 61.2656 73.4219 61.4375 L73.4219 62.8906 L72.7656 62.8906 Q72.6875 62.2969 72.3047 61.9844 Q71.9219 61.6719 71.2812 61.6719 Q70.1406 61.6719 69.5859 62.5312 Q69.0312 63.3906 69.0156 65.1875 Z" style="fill:black; stroke:none;" /><rect height="8" style="stroke:none;" width="8" x="51" y="53" /><path d="M56.1875 59.4688 L55.9531 60.1094 Q55.7656 60.625 55.2031 60.9375 Q54.8438 61.1562 54.2031 61.1406 Q53.0469 61.1406 52.3281 60.2344 Q51.5938 59.3281 51.5938 57.8594 Q51.5938 56.4219 52.3281 55.4844 Q53.0156 54.5938 54.4531 54.6094 Q55.4531 54.6094 55.9531 55 Q56.4062 55.3438 56.5781 56.0938 L56.625 56.3125 L56.8438 55.6719 Q57.0625 55.0469 57.6562 54.75 L58.25 54.75 L58.25 55.0938 Q57.6875 55.2656 57.5 55.8125 L56.8906 57.4844 L57.2969 59.2812 Q57.5 60.2031 57.7344 60.2969 Q58.0469 60.4375 58.7812 60 L58.7812 60.7188 Q57.5938 61.4062 56.75 60.6875 Q56.375 60.3594 56.2656 59.875 L56.1875 59.4688 ZM55.9219 58.3125 L55.5625 56.5938 Q55.2656 55.2188 54.4688 55.2188 Q53.7969 55.2031 53.2812 55.9375 Q52.8594 56.5156 52.8594 57.875 Q52.8594 59.1719 53.2812 59.8281 Q53.75 60.5469 54.5312 60.5 Q55.2031 60.4375 55.6875 59 L55.9219 58.3125 Z" style="fill:black; stroke:none;" /></g><g ID="li-1:3,4" style="fill:white; text-rendering:optimizeSpeed; font-family:'Serif'; stroke:white;"><rect height="10" style="stroke:none;" width="7" x="130" y="136" /><path d="M131.1719 137.625 Q131.8594 137.3594 132.4844 137.2266 Q133.1094 137.0938 133.6562 137.0938 Q134.9531 137.0938 135.6719 137.6484 Q136.3906 138.2031 136.3906 139.1875 Q136.3906 139.9688 135.8906 140.5 Q135.3906 141.0312 134.4844 141.2188 Q135.5625 141.375 136.1562 142.0078 Q136.75 142.6406 136.75 143.6406 Q136.75 144.8594 135.9219 145.5156 Q135.0938 146.1719 133.5469 146.1719 Q132.8594 146.1719 132.2109 146.0234 Q131.5625 145.875 130.9219 145.5781 L130.9219 143.875 L131.5781 143.875 Q131.625 144.7188 132.1406 145.1562 Q132.6562 145.5938 133.5781 145.5938 Q134.4688 145.5938 134.9922 145.0703 Q135.5156 144.5469 135.5156 143.6562 Q135.5156 142.625 134.9766 142.0938 Q134.4375 141.5625 133.4062 141.5625 L132.8594 141.5625 L132.8594 140.9531 L133.1406 140.9531 Q134.1719 140.9531 134.6875 140.5312 Q135.2031 140.1094 135.2031 139.25 Q135.2031 138.4844 134.7812 138.0781 Q134.3594 137.6719 133.5625 137.6719 Q132.7656 137.6719 132.3359 138.0469 Q131.9062 138.4219 131.8281 139.1562 L131.1719 139.1562 L131.1719 137.625 Z" style="fill:black; stroke:none;" /><rect height="8" style="stroke:none;" width="8" x="111" y="156" /><path d="M116.1875 162.4688 L115.9531 163.1094 Q115.7656 163.625 115.2031 163.9375 Q114.8438 164.1562 114.2031 164.1406 Q113.0469 164.1406 112.3281 163.2344 Q111.5938 162.3281 111.5938 160.8594 Q111.5938 159.4219 112.3281 158.4844 Q113.0156 157.5938 114.4531 157.6094 Q115.4531 157.6094 115.9531 158 Q116.4062 158.3438 116.5781 159.0938 L116.625 159.3125 L116.8438 158.6719 Q117.0625 158.0469 117.6562 157.75 L118.25 157.75 L118.25 158.0938 Q117.6875 158.2656 117.5 158.8125 L116.8906 160.4844 L117.2969 162.2812 Q117.5 163.2031 117.7344 163.2969 Q118.0469 163.4375 118.7812 163 L118.7812 163.7188 Q117.5938 164.4062 116.75 163.6875 Q116.375 163.3594 116.2656 162.875 L116.1875 162.4688 ZM115.9219 161.3125 L115.5625 159.5938 Q115.2656 158.2188 114.4688 158.2188 Q113.7969 158.2031 113.2812 158.9375 Q112.8594 159.5156 112.8594 160.875 Q112.8594 162.1719 113.2812 162.8281 Q113.75 163.5469 114.5312 163.5 Q115.2031 163.4375 115.6875 162 L115.9219 161.3125 Z" style="fill:black; stroke:none;" /></g><g ID="li-1:3,5" style="fill:white; text-rendering:optimizeSpeed; font-family:'Serif'; stroke:white;"><rect height="9" style="stroke:none;" width="8" x="122" y="122" /><path d="M126.1875 128.0312 L126.1875 123.375 L123.2031 128.0312 L126.1875 128.0312 ZM128.7656 131 L124.7812 131 L124.7812 130.375 L126.1875 130.375 L126.1875 128.6562 L122.375 128.6562 L122.375 128.0156 L126.2031 122.0938 L127.3594 122.0938 L127.3594 128.0312 L129.0312 128.0312 L129.0312 128.6562 L127.3594 128.6562 L127.3594 130.375 L128.7656 130.375 L128.7656 131 Z" style="fill:black; stroke:none;" /><rect height="13" style="stroke:none;" width="7" x="108" y="120" /><path d="M109.8281 132.25 Q110.2969 132.5938 111.1719 132.5938 Q112.0625 132.5938 112.5781 132.0703 Q113.0938 131.5469 113.0938 130.6562 Q113.0938 129.4219 112.5625 128.8906 Q112.0156 128.3594 111 128.3594 L110.4375 128.3594 L110.4375 127.7188 L110.7344 127.7188 Q111.4844 127.7188 112 127.2969 Q112.4219 126.9531 112.4219 126.0156 Q112.4219 125.6094 112.1406 125.1406 Q111.6875 124.375 111.1562 124.3906 Q109.8281 124.4375 109.8281 126.7812 L109.8281 132.25 ZM108.75 135.5 L108.75 126.7812 Q108.75 124.3281 110.0781 124 Q110.7656 123.8125 111.25 123.8125 Q112.3438 123.8125 113.0469 124.6719 Q113.6094 125.3594 113.6094 125.9375 Q113.6094 126.7812 113.2031 127.2656 Q112.7969 127.75 112.0625 127.9844 Q113.1406 128.1406 113.75 128.7812 Q114.3281 129.4062 114.3281 130.6328 Q114.3281 131.8594 113.5078 132.5156 Q112.6875 133.1719 111.1406 133.1719 Q110.1875 133.1719 109.8281 133.0312 L109.8281 135.5 L108.75 135.5 Z" style="fill:black; stroke:none;" /></g><g ID="li-1:3,6" style="fill:white; text-rendering:optimizeSpeed; font-family:'Serif'; stroke:white;"><rect height="10" style="stroke:none;" width="7" x="119" y="103" /><path d="M122.9219 112.5938 Q123.75 112.5938 124.1953 111.9844 Q124.6406 111.375 124.6406 110.2344 Q124.6406 109.1094 124.1953 108.5 Q123.75 107.8906 122.9219 107.8906 Q122.0938 107.8906 121.6484 108.4766 Q121.2031 109.0625 121.2031 110.1719 Q121.2031 111.3281 121.6484 111.9609 Q122.0938 112.5938 122.9219 112.5938 ZM121.0156 108.1875 Q121.4219 107.75 121.9219 107.5312 Q122.4219 107.3125 123.0625 107.3125 Q124.3594 107.3125 125.1172 108.0938 Q125.875 108.875 125.875 110.2344 Q125.875 111.5625 125.0625 112.3672 Q124.25 113.1719 122.875 113.1719 Q121.3906 113.1719 120.5938 112.0625 Q119.7969 110.9531 119.7969 108.9062 Q119.7969 106.6094 120.7422 105.3516 Q121.6875 104.0938 123.4062 104.0938 Q123.875 104.0938 124.3828 104.1797 Q124.8906 104.2656 125.4219 104.4375 L125.4219 105.8906 L124.7656 105.8906 Q124.6875 105.2969 124.3047 104.9844 Q123.9219 104.6719 123.2812 104.6719 Q122.1406 104.6719 121.5859 105.5312 Q121.0312 106.3906 121.0156 108.1875 Z" style="fill:black; stroke:none;" /><rect height="8" style="stroke:none;" width="8" x="100" y="85" /><path d="M105.1875 91.4688 L104.9531 92.1094 Q104.7656 92.625 104.2031 92.9375 Q103.8438 93.1562 103.2031 93.1406 Q102.0469 93.1406 101.3281 92.2344 Q100.5938 91.3281 100.5938 89.8594 Q100.5938 88.4219 101.3281 87.4844 Q102.0156 86.5938 103.4531 86.6094 Q104.4531 86.6094 104.9531 87 Q105.4062 87.3438 105.5781 88.0938 L105.625 88.3125 L105.8438 87.6719 Q106.0625 87.0469 106.6562 86.75 L107.25 86.75 L107.25 87.0938 Q106.6875 87.2656 106.5 87.8125 L105.8906 89.4844 L106.2969 91.2812 Q106.5 92.2031 106.7344 92.2969 Q107.0469 92.4375 107.7812 92 L107.7812 92.7188 Q106.5938 93.4062 105.75 92.6875 Q105.375 92.3594 105.2656 91.875 L105.1875 91.4688 ZM104.9219 90.3125 L104.5625 88.5938 Q104.2656 87.2188 103.4688 87.2188 Q102.7969 87.2031 102.2812 87.9375 Q101.8594 88.5156 101.8594 89.875 Q101.8594 91.1719 102.2812 91.8281 Q102.75 92.5469 103.5312 92.5 Q104.2031 92.4375 104.6875 91 L104.9219 90.3125 Z" style="fill:black; stroke:none;" /></g><g ID="li-1:2,3" style="fill:white; text-rendering:optimizeSpeed; font-family:'Serif'; stroke:white;"><rect height="9" style="stroke:none;" width="8" x="174" y="122" /><path d="M178.1875 128.0312 L178.1875 123.375 L175.2031 128.0312 L178.1875 128.0312 ZM180.7656 131 L176.7812 131 L176.7812 130.375 L178.1875 130.375 L178.1875 128.6562 L174.375 128.6562 L174.375 128.0156 L178.2031 122.0938 L179.3594 122.0938 L179.3594 128.0312 L181.0312 128.0312 L181.0312 128.6562 L179.3594 128.6562 L179.3594 130.375 L180.7656 130.375 L180.7656 131 Z" style="fill:black; stroke:none;" /><rect height="13" style="stroke:none;" width="7" x="160" y="120" /><path d="M161.8281 132.25 Q162.2969 132.5938 163.1719 132.5938 Q164.0625 132.5938 164.5781 132.0703 Q165.0938 131.5469 165.0938 130.6562 Q165.0938 129.4219 164.5625 128.8906 Q164.0156 128.3594 163 128.3594 L162.4375 128.3594 L162.4375 127.7188 L162.7344 127.7188 Q163.4844 127.7188 164 127.2969 Q164.4219 126.9531 164.4219 126.0156 Q164.4219 125.6094 164.1406 125.1406 Q163.6875 124.375 163.1562 124.3906 Q161.8281 124.4375 161.8281 126.7812 L161.8281 132.25 ZM160.75 135.5 L160.75 126.7812 Q160.75 124.3281 162.0781 124 Q162.7656 123.8125 163.25 123.8125 Q164.3438 123.8125 165.0469 124.6719 Q165.6094 125.3594 165.6094 125.9375 Q165.6094 126.7812 165.2031 127.2656 Q164.7969 127.75 164.0625 127.9844 Q165.1406 128.1406 165.75 128.7812 Q166.3281 129.4062 166.3281 130.6328 Q166.3281 131.8594 165.5078 132.5156 Q164.6875 133.1719 163.1406 133.1719 Q162.1875 133.1719 161.8281 133.0312 L161.8281 135.5 L160.75 135.5 Z" style="fill:black; stroke:none;" /></g><g ID="li-1:1,2" style="fill:white; text-rendering:optimizeSpeed; font-family:'Serif'; stroke:white;"><rect height="9" style="stroke:none;" width="8" x="226" y="122" /><path d="M230.1875 128.0312 L230.1875 123.375 L227.2031 128.0312 L230.1875 128.0312 ZM232.7656 131 L228.7812 131 L228.7812 130.375 L230.1875 130.375 L230.1875 128.6562 L226.375 128.6562 L226.375 128.0156 L230.2031 122.0938 L231.3594 122.0938 L231.3594 128.0312 L233.0312 128.0312 L233.0312 128.6562 L231.3594 128.6562 L231.3594 130.375 L232.7656 130.375 L232.7656 131 Z" style="fill:black; stroke:none;" /><rect height="13" style="stroke:none;" width="7" x="212" y="120" /><path d="M213.8281 132.25 Q214.2969 132.5938 215.1719 132.5938 Q216.0625 132.5938 216.5781 132.0703 Q217.0938 131.5469 217.0938 130.6562 Q217.0938 129.4219 216.5625 128.8906 Q216.0156 128.3594 215 128.3594 L214.4375 128.3594 L214.4375 127.7188 L214.7344 127.7188 Q215.4844 127.7188 216 127.2969 Q216.4219 126.9531 216.4219 126.0156 Q216.4219 125.6094 216.1406 125.1406 Q215.6875 124.375 215.1562 124.3906 Q213.8281 124.4375 213.8281 126.7812 L213.8281 132.25 ZM212.75 135.5 L212.75 126.7812 Q212.75 124.3281 214.0781 124 Q214.7656 123.8125 215.25 123.8125 Q216.3438 123.8125 217.0469 124.6719 Q217.6094 125.3594 217.6094 125.9375 Q217.6094 126.7812 217.2031 127.2656 Q216.7969 127.75 216.0625 127.9844 Q217.1406 128.1406 217.75 128.7812 Q218.3281 129.4062 218.3281 130.6328 Q218.3281 131.8594 217.5078 132.5156 Q216.6875 133.1719 215.1406 133.1719 Q214.1875 133.1719 213.8281 133.0312 L213.8281 135.5 L212.75 135.5 Z" style="fill:black; stroke:none;" /></g></g></svg>