<svg xmlns="http://www.w3.org/2000/svg" style="fill-opacity:1; color-rendering:auto; color-interpolation:auto; text-rendering:auto; stroke:black; stroke-linecap:square; stroke-miterlimit:10; shape-rendering:auto; stroke-opacity:1; fill:black; stroke-dasharray:none; font-weight:normal; stroke-width:1; font-family:'Dialog'; font-style:normal; stroke-linejoin:miter; font-size:12px; stroke-dashoffset:0; image-rendering:auto;"><defs id="genericDefs" /><g><defs id="defs1"><clipPath clipPathUnits="userSpaceOnUse" id="clipPath1"><path d="M394 108 L416 108 L416 130 L394 130 L394 108 Z" /></clipPath><clipPath clipPathUnits="userSpaceOnUse" id="clipPath2"><path d="M342 108 L364 108 L364 130 L342 130 L342 108 Z" /></clipPath><clipPath clipPathUnits="userSpaceOnUse" id="clipPath3"><path d="M312 119 C312 125.0751 307.0751 130 301 130 C294.9249 130 290 125.0751 290 119 C290 112.9249 294.9249 108 301 108 C307.0751 108 312 112.9249 312 119 Z" /></clipPath><clipPath clipPathUnits="userSpaceOnUse" id="clipPath4"><path d="M260 197 C260 203.0751 255.0751 208 249 208 C242.9249 208 238 203.0751 238 197 C238 190.9249 242.9249 186 249 186 C255.0751 186 260 190.9249 260 197 Z" /></clipPath><clipPath clipPathUnits="userSpaceOnUse" id="clipPath5"><path d="M186 238 L208 238 L208 260 L186 260 L186 238 Z" /></clipPath><clipPath clipPathUnits="userSpaceOnUse" id="clipPath6"><path d="M197 290 L208 312 L186 312 Z" style="fill-rule:evenodd;" /></clipPath><clipPath clipPathUnits="userSpaceOnUse" id="clipPath7"><path d="M156 249 C156 255.0751 151.0751 260 145 260 C138.9249 260 134 255.0751 134 249 C134 242.9249 138.9249 238 145 238 C151.0751 238 156 242.9249 156 249 Z" /></clipPath><clipPath clipPathUnits="userSpaceOnUse" id="clipPath8"><path d="M186 134 L208 134 L208 156 L186 156 L186 134 Z" /></clipPath><clipPath clipPathUnits="userSpaceOnUse" id="clipPath9"><path d="M197 186 L208 208 L186 208 Z" style="fill-rule:evenodd;" /></clipPath><clipPath clipPathUnits="userSpaceOnUse" id="clipPath10"><path d="M156 145 C156 151.0751 151.0751 156 145 156 C138.9249 156 134 151.0751 134 145 C134 138.9249 138.9249 134 145 134 C151.0751 134 156 138.9249 156 145 Z" /></clipPath><clipPath clipPathUnits="userSpaceOnUse" id="clipPath11"><path d="M82 134 L104 134 L104 156 L82 156 L82 134 Z" /></clipPath><clipPath clipPathUnits="userSpaceOnUse" id="clipPath12"><path d="M93 186 L104 208 L82 208 Z" style="fill-rule:evenodd;" /></clipPath><clipPath clipPathUnits="userSpaceOnUse" id="clipPath13"><path d="M52 145 C52 151.0751 47.0751 156 41 156 C34.9249 156 30 151.0751 30 145 C30 138.9249 34.9249 134 41 134 C47.0751 134 52 138.9249 52 145 Z" /></clipPath><clipPath clipPathUnits="userSpaceOnUse" id="clipPath14"><path d="M260 41 C260 47.0751 255.0751 52 249 52 C242.9249 52 238 47.0751 238 41 C238 34.9249 242.9249 30 249 30 C255.0751 30 260 34.9249 260 41 Z" /></clipPath><clipPath clipPathUnits="userSpaceOnUse" id="clipPath15"><path d="M186 30 L208 30 L208 52 L186 52 L186 30 Z" /></clipPath><clipPath clipPathUnits="userSpaceOnUse" id="clipPath16"><path d="M197 82 L208 104 L186 104 Z" style="fill-rule:evenodd;" /></clipPath><clipPath clipPathUnits="userSpaceOnUse" id="clipPath17"><path d="M156 41 C156 47.0751 151.0751 52 145 52 C138.9249 52 134 47.0751 134 41 C134 34.9249 138.9249 30 145 30 C151.0751 30 156 34.9249 156 41 Z" /></clipPath><clipPath clipPathUnits="userSpaceOnUse" id="clipPath18"><path d="M405 78 L394 56 L416 56 Z" style="fill-rule:evenodd;" /></clipPath></defs><g style="fill:white; text-rendering:optimizeSpeed; stroke:white;"><rect height="342" style="stroke:none;" width="446" x="0" y="0" /></g><g ID="l-1:1,2" style="text-rendering:optimizeSpeed;"><polygon points=" 405 119 353 119" style="fill:none;" /></g><g ID="l-1:1,3" style="text-rendering:optimizeSpeed;"><polygon points=" 405 119 405 67" style="fill:none;" /></g><g ID="r-1:1" style="fill:white; text-rendering:optimizeSpeed; stroke:white;" wurcs_mono_id="1"><rect height="22" style="clip-path:url(#clipPath1); stroke:none;" width="22" x="394" y="108" /><rect height="22" style="clip-path:url(#clipPath1); fill:rgb(0,144,188); stroke:none;" width="22" x="394" y="108" /><rect height="22" style="clip-path:url(#clipPath1); fill:none; stroke:black;" width="22" x="394" y="108" /><rect height="22" style="fill:none; stroke:black;" width="22" x="394" y="108" /></g><g style="font-style:italic; text-rendering:optimizeSpeed; font-size:10px; font-family:'SansSerif';"><path d="M406.0938 116.1562 Q405.375 116.1562 404.8359 116.7188 Q404.2969 117.2812 404.0781 118.2656 Q403.875 119.25 404.1719 119.8125 Q404.4688 120.375 405.2031 120.375 Q405.9219 120.375 406.4609 119.8125 Q407 119.25 407.2031 118.2656 Q407.4062 117.2969 407.1094 116.7266 Q406.8125 116.1562 406.0938 116.1562 ZM406.25 115.4062 Q407.4219 115.4062 407.9297 116.1641 Q408.4375 116.9219 408.1562 118.2656 Q407.875 119.6094 407.0391 120.375 Q406.2031 121.1406 405.0312 121.1406 Q403.8594 121.1406 403.3516 120.375 Q402.8438 119.6094 403.125 118.2656 Q403.4062 116.9219 404.2422 116.1641 Q405.0781 115.4062 406.25 115.4062 Z" style="stroke:none;" /></g><g ID="l-1:2,4" style="text-rendering:optimizeSpeed;"><polygon points=" 353 119 301 119" style="fill:none;" /></g><g ID="r-1:2" style="fill:white; text-rendering:optimizeSpeed; stroke:white;" wurcs_mono_id="2"><rect height="22" style="clip-path:url(#clipPath2); stroke:none;" width="22" x="342" y="108" /><rect height="22" style="clip-path:url(#clipPath2); fill:rgb(0,144,188); stroke:none;" width="22" x="342" y="108" /><rect height="22" style="clip-path:url(#clipPath2); fill:none; stroke:black;" width="22" x="342" y="108" /><rect height="22" style="fill:none; stroke:black;" width="22" x="342" y="108" /></g><g ID="l-1:4,5" style="text-rendering:optimizeSpeed;"><polygon points=" 301 119 249 197" style="fill:none;" /></g><g ID="l-1:4,6" style="text-rendering:optimizeSpeed;"><polygon points=" 301 119 249 41" style="fill:none;" /></g><g ID="r-1:4" style="fill:white; text-rendering:optimizeSpeed; stroke:white;" wurcs_mono_id="3"><circle cx="301" cy="119" r="11" style="clip-path:url(#clipPath3); stroke:none;" /><rect height="22" style="clip-path:url(#clipPath3); fill:rgb(0,166,81); stroke:none;" width="22" x="290" y="108" /><rect height="22" style="clip-path:url(#clipPath3); fill:none; stroke:black;" width="22" x="290" y="108" /><circle cx="301" cy="119" r="11" style="fill:none; stroke:black;" /></g><g ID="l-1:5,7" style="text-rendering:optimizeSpeed;"><polygon points=" 249 197 197 249" style="fill:none;" /></g><g ID="l-1:5,8" style="text-rendering:optimizeSpeed;"><polygon points=" 249 197 197 145" style="fill:none;" /></g><g ID="r-1:5" style="fill:white; text-rendering:optimizeSpeed; stroke:white;" wurcs_mono_id="4"><circle cx="249" cy="197" r="11" style="clip-path:url(#clipPath4); stroke:none;" /><rect height="22" style="clip-path:url(#clipPath4); fill:rgb(0,166,81); stroke:none;" width="22" x="238" y="186" /><rect height="22" style="clip-path:url(#clipPath4); fill:none; stroke:black;" width="22" x="238" y="186" /><circle cx="249" cy="197" r="11" style="fill:none; stroke:black;" /></g><g ID="l-1:7,9" style="text-rendering:optimizeSpeed;"><polygon points=" 197 249 197 301" style="fill:none;" /></g><g ID="l-1:7,10" style="text-rendering:optimizeSpeed;"><polygon points=" 197 249 145 249" style="fill:none;" /></g><g ID="r-1:7" style="fill:white; text-rendering:optimizeSpeed; stroke:white;" wurcs_mono_id="5"><rect height="22" style="clip-path:url(#clipPath5); stroke:none;" width="22" x="186" y="238" /><rect height="22" style="clip-path:url(#clipPath5); fill:rgb(0,144,188); stroke:none;" width="22" x="186" y="238" /><rect height="22" style="clip-path:url(#clipPath5); fill:none; stroke:black;" width="22" x="186" y="238" /><rect height="22" style="fill:none; stroke:black;" width="22" x="186" y="238" /></g><g ID="r-1:9" style="fill:white; text-rendering:optimizeSpeed; stroke:white;" wurcs_mono_id="6"><polygon points=" 197 290 208 312 186 312" style="stroke:none; clip-path:url(#clipPath6);" /><rect height="22" style="clip-path:url(#clipPath6); fill:rgb(237,28,36); stroke:none;" width="22" x="186" y="290" /><rect height="22" style="clip-path:url(#clipPath6); fill:none; stroke:black;" width="22" x="186" y="290" /><polygon points=" 197 290 208 312 186 312" style="fill:none; stroke:black;" /></g><g ID="r-1:10" style="fill:white; text-rendering:optimizeSpeed; stroke:white;" wurcs_mono_id="7"><circle cx="145" cy="249" r="11" style="clip-path:url(#clipPath7); stroke:none;" /><rect height="22" style="clip-path:url(#clipPath7); fill:rgb(255,212,0); stroke:none;" width="22" x="134" y="238" /><rect height="22" style="clip-path:url(#clipPath7); fill:none; stroke:black;" width="22" x="134" y="238" /><circle cx="145" cy="249" r="11" style="fill:none; stroke:black;" /></g><g ID="li-1:7,9" style="fill:white; text-rendering:optimizeSpeed; font-family:'Serif'; stroke:white;"><rect height="10" style="stroke:none;" width="7" x="201" y="263" /><path d="M202.1719 264.625 Q202.8594 264.3594 203.4844 264.2266 Q204.1094 264.0938 204.6562 264.0938 Q205.9531 264.0938 206.6719 264.6484 Q207.3906 265.2031 207.3906 266.1875 Q207.3906 266.9688 206.8906 267.5 Q206.3906 268.0312 205.4844 268.2188 Q206.5625 268.375 207.1562 269.0078 Q207.75 269.6406 207.75 270.6406 Q207.75 271.8594 206.9219 272.5156 Q206.0938 273.1719 204.5469 273.1719 Q203.8594 273.1719 203.2109 273.0234 Q202.5625 272.875 201.9219 272.5781 L201.9219 270.875 L202.5781 270.875 Q202.625 271.7188 203.1406 272.1562 Q203.6562 272.5938 204.5781 272.5938 Q205.4688 272.5938 205.9922 272.0703 Q206.5156 271.5469 206.5156 270.6562 Q206.5156 269.625 205.9766 269.0938 Q205.4375 268.5625 204.4062 268.5625 L203.8594 268.5625 L203.8594 267.9531 L204.1406 267.9531 Q205.1719 267.9531 205.6875 267.5312 Q206.2031 267.1094 206.2031 266.25 Q206.2031 265.4844 205.7812 265.0781 Q205.3594 264.6719 204.5625 264.6719 Q203.7656 264.6719 203.3359 265.0469 Q202.9062 265.4219 202.8281 266.1562 L202.1719 266.1562 L202.1719 264.625 Z" style="fill:black; stroke:none;" /><rect height="8" style="stroke:none;" width="8" x="201" y="278" /><path d="M206.1875 284.4688 L205.9531 285.1094 Q205.7656 285.625 205.2031 285.9375 Q204.8438 286.1562 204.2031 286.1406 Q203.0469 286.1406 202.3281 285.2344 Q201.5938 284.3281 201.5938 282.8594 Q201.5938 281.4219 202.3281 280.4844 Q203.0156 279.5938 204.4531 279.6094 Q205.4531 279.6094 205.9531 280 Q206.4062 280.3438 206.5781 281.0938 L206.625 281.3125 L206.8438 280.6719 Q207.0625 280.0469 207.6562 279.75 L208.25 279.75 L208.25 280.0938 Q207.6875 280.2656 207.5 280.8125 L206.8906 282.4844 L207.2969 284.2812 Q207.5 285.2031 207.7344 285.2969 Q208.0469 285.4375 208.7812 285 L208.7812 285.7188 Q207.5938 286.4062 206.75 285.6875 Q206.375 285.3594 206.2656 284.875 L206.1875 284.4688 ZM205.9219 283.3125 L205.5625 281.5938 Q205.2656 280.2188 204.4688 280.2188 Q203.7969 280.2031 203.2812 280.9375 Q202.8594 281.5156 202.8594 282.875 Q202.8594 284.1719 203.2812 284.8281 Q203.75 285.5469 204.5312 285.5 Q205.2031 285.4375 205.6875 284 L205.9219 283.3125 Z" style="fill:black; stroke:none;" /></g><g ID="li-1:7,10" style="fill:white; text-rendering:optimizeSpeed; font-family:'Serif'; stroke:white;"><rect height="9" style="stroke:none;" width="8" x="174" y="252" /><path d="M178.1875 258.0312 L178.1875 253.375 L175.2031 258.0312 L178.1875 258.0312 ZM180.7656 261 L176.7812 261 L176.7812 260.375 L178.1875 260.375 L178.1875 258.6562 L174.375 258.6562 L174.375 258.0156 L178.2031 252.0938 L179.3594 252.0938 L179.3594 258.0312 L181.0312 258.0312 L181.0312 258.6562 L179.3594 258.6562 L179.3594 260.375 L180.7656 260.375 L180.7656 261 Z" style="fill:black; stroke:none;" /><rect height="13" style="stroke:none;" width="7" x="160" y="250" /><path d="M161.8281 262.25 Q162.2969 262.5938 163.1719 262.5938 Q164.0625 262.5938 164.5781 262.0703 Q165.0938 261.5469 165.0938 260.6562 Q165.0938 259.4219 164.5625 258.8906 Q164.0156 258.3594 163 258.3594 L162.4375 258.3594 L162.4375 257.7188 L162.7344 257.7188 Q163.4844 257.7188 164 257.2969 Q164.4219 256.9531 164.4219 256.0156 Q164.4219 255.6094 164.1406 255.1406 Q163.6875 254.375 163.1562 254.3906 Q161.8281 254.4375 161.8281 256.7812 L161.8281 262.25 ZM160.75 265.5 L160.75 256.7812 Q160.75 254.3281 162.0781 254 Q162.7656 253.8125 163.25 253.8125 Q164.3438 253.8125 165.0469 254.6719 Q165.6094 255.3594 165.6094 255.9375 Q165.6094 256.7812 165.2031 257.2656 Q164.7969 257.75 164.0625 257.9844 Q165.1406 258.1406 165.75 258.7812 Q166.3281 259.4062 166.3281 260.6328 Q166.3281 261.8594 165.5078 262.5156 Q164.6875 263.1719 163.1406 263.1719 Q162.1875 263.1719 161.8281 263.0312 L161.8281 265.5 L160.75 265.5 Z" style="fill:black; stroke:none;" /></g><g ID="l-1:8,11" style="text-rendering:optimizeSpeed;"><polygon points=" 197 145 197 197" style="fill:none;" /></g><g ID="l-1:8,12" style="text-rendering:optimizeSpeed;"><polygon points=" 197 145 145 145" style="fill:none;" /></g><g ID="r-1:8" style="fill:white; text-rendering:optimizeSpeed; stroke:white;" wurcs_mono_id="8"><rect height="22" style="clip-path:url(#clipPath8); stroke:none;" width="22" x="186" y="134" /><rect height="22" style="clip-path:url(#clipPath8); fill:rgb(0,144,188); stroke:none;" width="22" x="186" y="134" /><rect height="22" style="clip-path:url(#clipPath8); fill:none; stroke:black;" width="22" x="186" y="134" /><rect height="22" style="fill:none; stroke:black;" width="22" x="186" y="134" /></g><g ID="r-1:11" style="fill:white; text-rendering:optimizeSpeed; stroke:white;" wurcs_mono_id="9"><polygon points=" 197 186 208 208 186 208" style="stroke:none; clip-path:url(#clipPath9);" /><rect height="22" style="clip-path:url(#clipPath9); fill:rgb(237,28,36); stroke:none;" width="22" x="186" y="186" /><rect height="22" style="clip-path:url(#clipPath9); fill:none; stroke:black;" width="22" x="186" y="186" /><polygon points=" 197 186 208 208 186 208" style="fill:none; stroke:black;" /></g><g ID="l-1:12,13" style="text-rendering:optimizeSpeed;"><polygon points=" 145 145 93 145" style="fill:none;" /></g><g ID="r-1:12" style="fill:white; text-rendering:optimizeSpeed; stroke:white;" wurcs_mono_id="10"><circle cx="145" cy="145" r="11" style="clip-path:url(#clipPath10); stroke:none;" /><rect height="22" style="clip-path:url(#clipPath10); fill:rgb(255,212,0); stroke:none;" width="22" x="134" y="134" /><rect height="22" style="clip-path:url(#clipPath10); fill:none; stroke:black;" width="22" x="134" y="134" /><circle cx="145" cy="145" r="11" style="fill:none; stroke:black;" /></g><g ID="l-1:13,14" style="text-rendering:optimizeSpeed;"><polygon points=" 93 145 93 197" style="fill:none;" /></g><g ID="l-1:13,15" style="text-rendering:optimizeSpeed;"><polygon points=" 93 145 41 145" style="fill:none;" /></g><g ID="r-1:13" style="fill:white; text-rendering:optimizeSpeed; stroke:white;" wurcs_mono_id="11"><rect height="22" style="clip-path:url(#clipPath11); stroke:none;" width="22" x="82" y="134" /><rect height="22" style="clip-path:url(#clipPath11); fill:rgb(0,144,188); stroke:none;" width="22" x="82" y="134" /><rect height="22" style="clip-path:url(#clipPath11); fill:none; stroke:black;" width="22" x="82" y="134" /><rect height="22" style="fill:none; stroke:black;" width="22" x="82" y="134" /></g><g ID="r-1:14" style="fill:white; text-rendering:optimizeSpeed; stroke:white;" wurcs_mono_id="12"><polygon points=" 93 186 104 208 82 208" style="stroke:none; clip-path:url(#clipPath12);" /><rect height="22" style="clip-path:url(#clipPath12); fill:rgb(237,28,36); stroke:none;" width="22" x="82" y="186" /><rect height="22" style="clip-path:url(#clipPath12); fill:none; stroke:black;" width="22" x="82" y="186" /><polygon points=" 93 186 104 208 82 208" style="fill:none; stroke:black;" /></g><g ID="r-1:15" style="fill:white; text-rendering:optimizeSpeed; stroke:white;" wurcs_mono_id="13"><circle cx="41" cy="145" r="11" style="clip-path:url(#clipPath13); stroke:none;" /><rect height="22" style="clip-path:url(#clipPath13); fill:rgb(255,212,0); stroke:none;" width="22" x="30" y="134" /><rect height="22" style="clip-path:url(#clipPath13); fill:none; stroke:black;" width="22" x="30" y="134" /><circle cx="41" cy="145" r="11" style="fill:none; stroke:black;" /></g><g ID="li-1:13,14" style="fill:white; text-rendering:optimizeSpeed; font-family:'Serif'; stroke:white;"><rect height="10" style="stroke:none;" width="7" x="97" y="159" /><path d="M98.1719 160.625 Q98.8594 160.3594 99.4844 160.2266 Q100.1094 160.0938 100.6562 160.0938 Q101.9531 160.0938 102.6719 160.6484 Q103.3906 161.2031 103.3906 162.1875 Q103.3906 162.9688 102.8906 163.5 Q102.3906 164.0312 101.4844 164.2188 Q102.5625 164.375 103.1562 165.0078 Q103.75 165.6406 103.75 166.6406 Q103.75 167.8594 102.9219 168.5156 Q102.0938 169.1719 100.5469 169.1719 Q99.8594 169.1719 99.2109 169.0234 Q98.5625 168.875 97.9219 168.5781 L97.9219 166.875 L98.5781 166.875 Q98.625 167.7188 99.1406 168.1562 Q99.6562 168.5938 100.5781 168.5938 Q101.4688 168.5938 101.9922 168.0703 Q102.5156 167.5469 102.5156 166.6562 Q102.5156 165.625 101.9766 165.0938 Q101.4375 164.5625 100.4062 164.5625 L99.8594 164.5625 L99.8594 163.9531 L100.1406 163.9531 Q101.1719 163.9531 101.6875 163.5312 Q102.2031 163.1094 102.2031 162.25 Q102.2031 161.4844 101.7812 161.0781 Q101.3594 160.6719 100.5625 160.6719 Q99.7656 160.6719 99.3359 161.0469 Q98.9062 161.4219 98.8281 162.1562 L98.1719 162.1562 L98.1719 160.625 Z" style="fill:black; stroke:none;" /><rect height="8" style="stroke:none;" width="8" x="97" y="174" /><path d="M102.1875 180.4688 L101.9531 181.1094 Q101.7656 181.625 101.2031 181.9375 Q100.8438 182.1562 100.2031 182.1406 Q99.0469 182.1406 98.3281 181.2344 Q97.5938 180.3281 97.5938 178.8594 Q97.5938 177.4219 98.3281 176.4844 Q99.0156 175.5938 100.4531 175.6094 Q101.4531 175.6094 101.9531 176 Q102.4062 176.3438 102.5781 177.0938 L102.625 177.3125 L102.8438 176.6719 Q103.0625 176.0469 103.6562 175.75 L104.25 175.75 L104.25 176.0938 Q103.6875 176.2656 103.5 176.8125 L102.8906 178.4844 L103.2969 180.2812 Q103.5 181.2031 103.7344 181.2969 Q104.0469 181.4375 104.7812 181 L104.7812 181.7188 Q103.5938 182.4062 102.75 181.6875 Q102.375 181.3594 102.2656 180.875 L102.1875 180.4688 ZM101.9219 179.3125 L101.5625 177.5938 Q101.2656 176.2188 100.4688 176.2188 Q99.7969 176.2031 99.2812 176.9375 Q98.8594 177.5156 98.8594 178.875 Q98.8594 180.1719 99.2812 180.8281 Q99.75 181.5469 100.5312 181.5 Q101.2031 181.4375 101.6875 180 L101.9219 179.3125 Z" style="fill:black; stroke:none;" /></g><g ID="li-1:13,15" style="fill:white; text-rendering:optimizeSpeed; font-family:'Serif'; stroke:white;"><rect height="9" style="stroke:none;" width="8" x="70" y="148" /><path d="M74.1875 154.0312 L74.1875 149.375 L71.2031 154.0312 L74.1875 154.0312 ZM76.7656 157 L72.7812 157 L72.7812 156.375 L74.1875 156.375 L74.1875 154.6562 L70.375 154.6562 L70.375 154.0156 L74.2031 148.0938 L75.3594 148.0938 L75.3594 154.0312 L77.0312 154.0312 L77.0312 154.6562 L75.3594 154.6562 L75.3594 156.375 L76.7656 156.375 L76.7656 157 Z" style="fill:black; stroke:none;" /><rect height="13" style="stroke:none;" width="7" x="56" y="146" /><path d="M57.8281 158.25 Q58.2969 158.5938 59.1719 158.5938 Q60.0625 158.5938 60.5781 158.0703 Q61.0938 157.5469 61.0938 156.6562 Q61.0938 155.4219 60.5625 154.8906 Q60.0156 154.3594 59 154.3594 L58.4375 154.3594 L58.4375 153.7188 L58.7344 153.7188 Q59.4844 153.7188 60 153.2969 Q60.4219 152.9531 60.4219 152.0156 Q60.4219 151.6094 60.1406 151.1406 Q59.6875 150.375 59.1562 150.3906 Q57.8281 150.4375 57.8281 152.7812 L57.8281 158.25 ZM56.75 161.5 L56.75 152.7812 Q56.75 150.3281 58.0781 150 Q58.7656 149.8125 59.25 149.8125 Q60.3438 149.8125 61.0469 150.6719 Q61.6094 151.3594 61.6094 151.9375 Q61.6094 152.7812 61.2031 153.2656 Q60.7969 153.75 60.0625 153.9844 Q61.1406 154.1406 61.75 154.7812 Q62.3281 155.4062 62.3281 156.6328 Q62.3281 157.8594 61.5078 158.5156 Q60.6875 159.1719 59.1406 159.1719 Q58.1875 159.1719 57.8281 159.0312 L57.8281 161.5 L56.75 161.5 Z" style="fill:black; stroke:none;" /></g><g ID="li-1:12,13" style="fill:white; text-rendering:optimizeSpeed; font-family:'Serif'; stroke:white;"><rect height="10" style="stroke:none;" width="7" x="122" y="148" /><path d="M123.1719 149.625 Q123.8594 149.3594 124.4844 149.2266 Q125.1094 149.0938 125.6562 149.0938 Q126.9531 149.0938 127.6719 149.6484 Q128.3906 150.2031 128.3906 151.1875 Q128.3906 151.9688 127.8906 152.5 Q127.3906 153.0312 126.4844 153.2188 Q127.5625 153.375 128.1562 154.0078 Q128.75 154.6406 128.75 155.6406 Q128.75 156.8594 127.9219 157.5156 Q127.0938 158.1719 125.5469 158.1719 Q124.8594 158.1719 124.2109 158.0234 Q123.5625 157.875 122.9219 157.5781 L122.9219 155.875 L123.5781 155.875 Q123.625 156.7188 124.1406 157.1562 Q124.6562 157.5938 125.5781 157.5938 Q126.4688 157.5938 126.9922 157.0703 Q127.5156 156.5469 127.5156 155.6562 Q127.5156 154.625 126.9766 154.0938 Q126.4375 153.5625 125.4062 153.5625 L124.8594 153.5625 L124.8594 152.9531 L125.1406 152.9531 Q126.1719 152.9531 126.6875 152.5312 Q127.2031 152.1094 127.2031 151.25 Q127.2031 150.4844 126.7812 150.0781 Q126.3594 149.6719 125.5625 149.6719 Q124.7656 149.6719 124.3359 150.0469 Q123.9062 150.4219 123.8281 151.1562 L123.1719 151.1562 L123.1719 149.625 Z" style="fill:black; stroke:none;" /><rect height="13" style="stroke:none;" width="7" x="108" y="146" /><path d="M109.8281 158.25 Q110.2969 158.5938 111.1719 158.5938 Q112.0625 158.5938 112.5781 158.0703 Q113.0938 157.5469 113.0938 156.6562 Q113.0938 155.4219 112.5625 154.8906 Q112.0156 154.3594 111 154.3594 L110.4375 154.3594 L110.4375 153.7188 L110.7344 153.7188 Q111.4844 153.7188 112 153.2969 Q112.4219 152.9531 112.4219 152.0156 Q112.4219 151.6094 112.1406 151.1406 Q111.6875 150.375 111.1562 150.3906 Q109.8281 150.4375 109.8281 152.7812 L109.8281 158.25 ZM108.75 161.5 L108.75 152.7812 Q108.75 150.3281 110.0781 150 Q110.7656 149.8125 111.25 149.8125 Q112.3438 149.8125 113.0469 150.6719 Q113.6094 151.3594 113.6094 151.9375 Q113.6094 152.7812 113.2031 153.2656 Q112.7969 153.75 112.0625 153.9844 Q113.1406 154.1406 113.75 154.7812 Q114.3281 155.4062 114.3281 156.6328 Q114.3281 157.8594 113.5078 158.5156 Q112.6875 159.1719 111.1406 159.1719 Q110.1875 159.1719 109.8281 159.0312 L109.8281 161.5 L108.75 161.5 Z" style="fill:black; stroke:none;" /></g><g ID="li-1:8,11" style="fill:white; text-rendering:optimizeSpeed; font-family:'Serif'; stroke:white;"><rect height="10" style="stroke:none;" width="7" x="201" y="159" /><path d="M202.1719 160.625 Q202.8594 160.3594 203.4844 160.2266 Q204.1094 160.0938 204.6562 160.0938 Q205.9531 160.0938 206.6719 160.6484 Q207.3906 161.2031 207.3906 162.1875 Q207.3906 162.9688 206.8906 163.5 Q206.3906 164.0312 205.4844 164.2188 Q206.5625 164.375 207.1562 165.0078 Q207.75 165.6406 207.75 166.6406 Q207.75 167.8594 206.9219 168.5156 Q206.0938 169.1719 204.5469 169.1719 Q203.8594 169.1719 203.2109 169.0234 Q202.5625 168.875 201.9219 168.5781 L201.9219 166.875 L202.5781 166.875 Q202.625 167.7188 203.1406 168.1562 Q203.6562 168.5938 204.5781 168.5938 Q205.4688 168.5938 205.9922 168.0703 Q206.5156 167.5469 206.5156 166.6562 Q206.5156 165.625 205.9766 165.0938 Q205.4375 164.5625 204.4062 164.5625 L203.8594 164.5625 L203.8594 163.9531 L204.1406 163.9531 Q205.1719 163.9531 205.6875 163.5312 Q206.2031 163.1094 206.2031 162.25 Q206.2031 161.4844 205.7812 161.0781 Q205.3594 160.6719 204.5625 160.6719 Q203.7656 160.6719 203.3359 161.0469 Q202.9062 161.4219 202.8281 162.1562 L202.1719 162.1562 L202.1719 160.625 Z" style="fill:black; stroke:none;" /><rect height="8" style="stroke:none;" width="8" x="201" y="174" /><path d="M206.1875 180.4688 L205.9531 181.1094 Q205.7656 181.625 205.2031 181.9375 Q204.8438 182.1562 204.2031 182.1406 Q203.0469 182.1406 202.3281 181.2344 Q201.5938 180.3281 201.5938 178.8594 Q201.5938 177.4219 202.3281 176.4844 Q203.0156 175.5938 204.4531 175.6094 Q205.4531 175.6094 205.9531 176 Q206.4062 176.3438 206.5781 177.0938 L206.625 177.3125 L206.8438 176.6719 Q207.0625 176.0469 207.6562 175.75 L208.25 175.75 L208.25 176.0938 Q207.6875 176.2656 207.5 176.8125 L206.8906 178.4844 L207.2969 180.2812 Q207.5 181.2031 207.7344 181.2969 Q208.0469 181.4375 208.7812 181 L208.7812 181.7188 Q207.5938 182.4062 206.75 181.6875 Q206.375 181.3594 206.2656 180.875 L206.1875 180.4688 ZM205.9219 179.3125 L205.5625 177.5938 Q205.2656 176.2188 204.4688 176.2188 Q203.7969 176.2031 203.2812 176.9375 Q202.8594 177.5156 202.8594 178.875 Q202.8594 180.1719 203.2812 180.8281 Q203.75 181.5469 204.5312 181.5 Q205.2031 181.4375 205.6875 180 L205.9219 179.3125 Z" style="fill:black; stroke:none;" /></g><g ID="li-1:8,12" style="fill:white; text-rendering:optimizeSpeed; font-family:'Serif'; stroke:white;"><rect height="9" style="stroke:none;" width="8" x="174" y="148" /><path d="M178.1875 154.0312 L178.1875 149.375 L175.2031 154.0312 L178.1875 154.0312 ZM180.7656 157 L176.7812 157 L176.7812 156.375 L178.1875 156.375 L178.1875 154.6562 L174.375 154.6562 L174.375 154.0156 L178.2031 148.0938 L179.3594 148.0938 L179.3594 154.0312 L181.0312 154.0312 L181.0312 154.6562 L179.3594 154.6562 L179.3594 156.375 L180.7656 156.375 L180.7656 157 Z" style="fill:black; stroke:none;" /><rect height="13" style="stroke:none;" width="7" x="160" y="146" /><path d="M161.8281 158.25 Q162.2969 158.5938 163.1719 158.5938 Q164.0625 158.5938 164.5781 158.0703 Q165.0938 157.5469 165.0938 156.6562 Q165.0938 155.4219 164.5625 154.8906 Q164.0156 154.3594 163 154.3594 L162.4375 154.3594 L162.4375 153.7188 L162.7344 153.7188 Q163.4844 153.7188 164 153.2969 Q164.4219 152.9531 164.4219 152.0156 Q164.4219 151.6094 164.1406 151.1406 Q163.6875 150.375 163.1562 150.3906 Q161.8281 150.4375 161.8281 152.7812 L161.8281 158.25 ZM160.75 161.5 L160.75 152.7812 Q160.75 150.3281 162.0781 150 Q162.7656 149.8125 163.25 149.8125 Q164.3438 149.8125 165.0469 150.6719 Q165.6094 151.3594 165.6094 151.9375 Q165.6094 152.7812 165.2031 153.2656 Q164.7969 153.75 164.0625 153.9844 Q165.1406 154.1406 165.75 154.7812 Q166.3281 155.4062 166.3281 156.6328 Q166.3281 157.8594 165.5078 158.5156 Q164.6875 159.1719 163.1406 159.1719 Q162.1875 159.1719 161.8281 159.0312 L161.8281 161.5 L160.75 161.5 Z" style="fill:black; stroke:none;" /></g><g ID="li-1:5,7" style="fill:white; text-rendering:optimizeSpeed; font-family:'Serif'; stroke:white;"><rect height="9" style="stroke:none;" width="7" x="234" y="214" /><path d="M235.5312 216.3438 L234.875 216.3438 L234.875 214.7812 Q235.5 214.4375 236.1406 214.2656 Q236.7812 214.0938 237.3906 214.0938 Q238.75 214.0938 239.5391 214.7578 Q240.3281 215.4219 240.3281 216.5469 Q240.3281 217.8438 238.5469 219.625 Q238.4062 219.7656 238.3281 219.8281 L236.125 222.0312 L239.7656 222.0312 L239.7656 220.9531 L240.4531 220.9531 L240.4531 223 L234.8125 223 L234.8125 222.3594 L237.4688 219.7188 Q238.3438 218.8281 238.7188 218.0938 Q239.0938 217.3594 239.0938 216.5469 Q239.0938 215.6719 238.6328 215.1719 Q238.1719 214.6719 237.375 214.6719 Q236.5312 214.6719 236.0781 215.0859 Q235.625 215.5 235.5312 216.3438 Z" style="fill:black; stroke:none;" /><rect height="13" style="stroke:none;" width="7" x="215" y="231" /><path d="M216.8281 243.25 Q217.2969 243.5938 218.1719 243.5938 Q219.0625 243.5938 219.5781 243.0703 Q220.0938 242.5469 220.0938 241.6562 Q220.0938 240.4219 219.5625 239.8906 Q219.0156 239.3594 218 239.3594 L217.4375 239.3594 L217.4375 238.7188 L217.7344 238.7188 Q218.4844 238.7188 219 238.2969 Q219.4219 237.9531 219.4219 237.0156 Q219.4219 236.6094 219.1406 236.1406 Q218.6875 235.375 218.1562 235.3906 Q216.8281 235.4375 216.8281 237.7812 L216.8281 243.25 ZM215.75 246.5 L215.75 237.7812 Q215.75 235.3281 217.0781 235 Q217.7656 234.8125 218.25 234.8125 Q219.3438 234.8125 220.0469 235.6719 Q220.6094 236.3594 220.6094 236.9375 Q220.6094 237.7812 220.2031 238.2656 Q219.7969 238.75 219.0625 238.9844 Q220.1406 239.1406 220.75 239.7812 Q221.3281 240.4062 221.3281 241.6328 Q221.3281 242.8594 220.5078 243.5156 Q219.6875 244.1719 218.1406 244.1719 Q217.1875 244.1719 216.8281 244.0312 L216.8281 246.5 L215.75 246.5 Z" style="fill:black; stroke:none;" /></g><g ID="li-1:5,8" style="fill:white; text-rendering:optimizeSpeed; font-family:'Serif'; stroke:white;"><rect height="9" style="stroke:none;" width="8" x="222" y="181" /><path d="M226.1875 187.0312 L226.1875 182.375 L223.2031 187.0312 L226.1875 187.0312 ZM228.7656 190 L224.7812 190 L224.7812 189.375 L226.1875 189.375 L226.1875 187.6562 L222.375 187.6562 L222.375 187.0156 L226.2031 181.0938 L227.3594 181.0938 L227.3594 187.0312 L229.0312 187.0312 L229.0312 187.6562 L227.3594 187.6562 L227.3594 189.375 L228.7656 189.375 L228.7656 190 Z" style="fill:black; stroke:none;" /><rect height="13" style="stroke:none;" width="7" x="204" y="160" /><path d="M205.8281 172.25 Q206.2969 172.5938 207.1719 172.5938 Q208.0625 172.5938 208.5781 172.0703 Q209.0938 171.5469 209.0938 170.6562 Q209.0938 169.4219 208.5625 168.8906 Q208.0156 168.3594 207 168.3594 L206.4375 168.3594 L206.4375 167.7188 L206.7344 167.7188 Q207.4844 167.7188 208 167.2969 Q208.4219 166.9531 208.4219 166.0156 Q208.4219 165.6094 208.1406 165.1406 Q207.6875 164.375 207.1562 164.3906 Q205.8281 164.4375 205.8281 166.7812 L205.8281 172.25 ZM204.75 175.5 L204.75 166.7812 Q204.75 164.3281 206.0781 164 Q206.7656 163.8125 207.25 163.8125 Q208.3438 163.8125 209.0469 164.6719 Q209.6094 165.3594 209.6094 165.9375 Q209.6094 166.7812 209.2031 167.2656 Q208.7969 167.75 208.0625 167.9844 Q209.1406 168.1406 209.75 168.7812 Q210.3281 169.4062 210.3281 170.6328 Q210.3281 171.8594 209.5078 172.5156 Q208.6875 173.1719 207.1406 173.1719 Q206.1875 173.1719 205.8281 173.0312 L205.8281 175.5 L204.75 175.5 Z" style="fill:black; stroke:none;" /></g><g ID="l-1:6,16" style="text-rendering:optimizeSpeed;"><polygon points=" 249 41 197 41" style="fill:none;" /></g><g ID="r-1:6" style="fill:white; text-rendering:optimizeSpeed; stroke:white;" wurcs_mono_id="14"><circle cx="249" cy="41" r="11" style="clip-path:url(#clipPath14); stroke:none;" /><rect height="22" style="clip-path:url(#clipPath14); fill:rgb(0,166,81); stroke:none;" width="22" x="238" y="30" /><rect height="22" style="clip-path:url(#clipPath14); fill:none; stroke:black;" width="22" x="238" y="30" /><circle cx="249" cy="41" r="11" style="fill:none; stroke:black;" /></g><g ID="l-1:16,17" style="text-rendering:optimizeSpeed;"><polygon points=" 197 41 197 93" style="fill:none;" /></g><g ID="l-1:16,18" style="text-rendering:optimizeSpeed;"><polygon points=" 197 41 145 41" style="fill:none;" /></g><g ID="r-1:16" style="fill:white; text-rendering:optimizeSpeed; stroke:white;" wurcs_mono_id="15"><rect height="22" style="clip-path:url(#clipPath15); stroke:none;" width="22" x="186" y="30" /><rect height="22" style="clip-path:url(#clipPath15); fill:rgb(0,144,188); stroke:none;" width="22" x="186" y="30" /><rect height="22" style="clip-path:url(#clipPath15); fill:none; stroke:black;" width="22" x="186" y="30" /><rect height="22" style="fill:none; stroke:black;" width="22" x="186" y="30" /></g><g ID="r-1:17" style="fill:white; text-rendering:optimizeSpeed; stroke:white;" wurcs_mono_id="16"><polygon points=" 197 82 208 104 186 104" style="stroke:none; clip-path:url(#clipPath16);" /><rect height="22" style="clip-path:url(#clipPath16); fill:rgb(237,28,36); stroke:none;" width="22" x="186" y="82" /><rect height="22" style="clip-path:url(#clipPath16); fill:none; stroke:black;" width="22" x="186" y="82" /><polygon points=" 197 82 208 104 186 104" style="fill:none; stroke:black;" /></g><g ID="r-1:18" style="fill:white; text-rendering:optimizeSpeed; stroke:white;" wurcs_mono_id="17"><circle cx="145" cy="41" r="11" style="clip-path:url(#clipPath17); stroke:none;" /><rect height="22" style="clip-path:url(#clipPath17); fill:rgb(255,212,0); stroke:none;" width="22" x="134" y="30" /><rect height="22" style="clip-path:url(#clipPath17); fill:none; stroke:black;" width="22" x="134" y="30" /><circle cx="145" cy="41" r="11" style="fill:none; stroke:black;" /></g><g ID="li-1:16,17" style="fill:white; text-rendering:optimizeSpeed; font-family:'Serif'; stroke:white;"><rect height="10" style="stroke:none;" width="7" x="201" y="55" /><path d="M202.1719 56.625 Q202.8594 56.3594 203.4844 56.2266 Q204.1094 56.0938 204.6562 56.0938 Q205.9531 56.0938 206.6719 56.6484 Q207.3906 57.2031 207.3906 58.1875 Q207.3906 58.9688 206.8906 59.5 Q206.3906 60.0312 205.4844 60.2188 Q206.5625 60.375 207.1562 61.0078 Q207.75 61.6406 207.75 62.6406 Q207.75 63.8594 206.9219 64.5156 Q206.0938 65.1719 204.5469 65.1719 Q203.8594 65.1719 203.2109 65.0234 Q202.5625 64.875 201.9219 64.5781 L201.9219 62.875 L202.5781 62.875 Q202.625 63.7188 203.1406 64.1562 Q203.6562 64.5938 204.5781 64.5938 Q205.4688 64.5938 205.9922 64.0703 Q206.5156 63.5469 206.5156 62.6562 Q206.5156 61.625 205.9766 61.0938 Q205.4375 60.5625 204.4062 60.5625 L203.8594 60.5625 L203.8594 59.9531 L204.1406 59.9531 Q205.1719 59.9531 205.6875 59.5312 Q206.2031 59.1094 206.2031 58.25 Q206.2031 57.4844 205.7812 57.0781 Q205.3594 56.6719 204.5625 56.6719 Q203.7656 56.6719 203.3359 57.0469 Q202.9062 57.4219 202.8281 58.1562 L202.1719 58.1562 L202.1719 56.625 Z" style="fill:black; stroke:none;" /><rect height="8" style="stroke:none;" width="8" x="201" y="70" /><path d="M206.1875 76.4688 L205.9531 77.1094 Q205.7656 77.625 205.2031 77.9375 Q204.8438 78.1562 204.2031 78.1406 Q203.0469 78.1406 202.3281 77.2344 Q201.5938 76.3281 201.5938 74.8594 Q201.5938 73.4219 202.3281 72.4844 Q203.0156 71.5938 204.4531 71.6094 Q205.4531 71.6094 205.9531 72 Q206.4062 72.3438 206.5781 73.0938 L206.625 73.3125 L206.8438 72.6719 Q207.0625 72.0469 207.6562 71.75 L208.25 71.75 L208.25 72.0938 Q207.6875 72.2656 207.5 72.8125 L206.8906 74.4844 L207.2969 76.2812 Q207.5 77.2031 207.7344 77.2969 Q208.0469 77.4375 208.7812 77 L208.7812 77.7188 Q207.5938 78.4062 206.75 77.6875 Q206.375 77.3594 206.2656 76.875 L206.1875 76.4688 ZM205.9219 75.3125 L205.5625 73.5938 Q205.2656 72.2188 204.4688 72.2188 Q203.7969 72.2031 203.2812 72.9375 Q202.8594 73.5156 202.8594 74.875 Q202.8594 76.1719 203.2812 76.8281 Q203.75 77.5469 204.5312 77.5 Q205.2031 77.4375 205.6875 76 L205.9219 75.3125 Z" style="fill:black; stroke:none;" /></g><g ID="li-1:16,18" style="fill:white; text-rendering:optimizeSpeed; font-family:'Serif'; stroke:white;"><rect height="9" style="stroke:none;" width="8" x="174" y="44" /><path d="M178.1875 50.0312 L178.1875 45.375 L175.2031 50.0312 L178.1875 50.0312 ZM180.7656 53 L176.7812 53 L176.7812 52.375 L178.1875 52.375 L178.1875 50.6562 L174.375 50.6562 L174.375 50.0156 L178.2031 44.0938 L179.3594 44.0938 L179.3594 50.0312 L181.0312 50.0312 L181.0312 50.6562 L179.3594 50.6562 L179.3594 52.375 L180.7656 52.375 L180.7656 53 Z" style="fill:black; stroke:none;" /><rect height="13" style="stroke:none;" width="7" x="160" y="42" /><path d="M161.8281 54.25 Q162.2969 54.5938 163.1719 54.5938 Q164.0625 54.5938 164.5781 54.0703 Q165.0938 53.5469 165.0938 52.6562 Q165.0938 51.4219 164.5625 50.8906 Q164.0156 50.3594 163 50.3594 L162.4375 50.3594 L162.4375 49.7188 L162.7344 49.7188 Q163.4844 49.7188 164 49.2969 Q164.4219 48.9531 164.4219 48.0156 Q164.4219 47.6094 164.1406 47.1406 Q163.6875 46.375 163.1562 46.3906 Q161.8281 46.4375 161.8281 48.7812 L161.8281 54.25 ZM160.75 57.5 L160.75 48.7812 Q160.75 46.3281 162.0781 46 Q162.7656 45.8125 163.25 45.8125 Q164.3438 45.8125 165.0469 46.6719 Q165.6094 47.3594 165.6094 47.9375 Q165.6094 48.7812 165.2031 49.2656 Q164.7969 49.75 164.0625 49.9844 Q165.1406 50.1406 165.75 50.7812 Q166.3281 51.4062 166.3281 52.6328 Q166.3281 53.8594 165.5078 54.5156 Q164.6875 55.1719 163.1406 55.1719 Q162.1875 55.1719 161.8281 55.0312 L161.8281 57.5 L160.75 57.5 Z" style="fill:black; stroke:none;" /></g><g ID="li-1:6,16" style="fill:white; text-rendering:optimizeSpeed; font-family:'Serif'; stroke:white;"><rect height="9" style="stroke:none;" width="7" x="226" y="44" /><path d="M227.5312 46.3438 L226.875 46.3438 L226.875 44.7812 Q227.5 44.4375 228.1406 44.2656 Q228.7812 44.0938 229.3906 44.0938 Q230.75 44.0938 231.5391 44.7578 Q232.3281 45.4219 232.3281 46.5469 Q232.3281 47.8438 230.5469 49.625 Q230.4062 49.7656 230.3281 49.8281 L228.125 52.0312 L231.7656 52.0312 L231.7656 50.9531 L232.4531 50.9531 L232.4531 53 L226.8125 53 L226.8125 52.3594 L229.4688 49.7188 Q230.3438 48.8281 230.7188 48.0938 Q231.0938 47.3594 231.0938 46.5469 Q231.0938 45.6719 230.6328 45.1719 Q230.1719 44.6719 229.375 44.6719 Q228.5312 44.6719 228.0781 45.0859 Q227.625 45.5 227.5312 46.3438 Z" style="fill:black; stroke:none;" /><rect height="13" style="stroke:none;" width="7" x="212" y="42" /><path d="M213.8281 54.25 Q214.2969 54.5938 215.1719 54.5938 Q216.0625 54.5938 216.5781 54.0703 Q217.0938 53.5469 217.0938 52.6562 Q217.0938 51.4219 216.5625 50.8906 Q216.0156 50.3594 215 50.3594 L214.4375 50.3594 L214.4375 49.7188 L214.7344 49.7188 Q215.4844 49.7188 216 49.2969 Q216.4219 48.9531 216.4219 48.0156 Q216.4219 47.6094 216.1406 47.1406 Q215.6875 46.375 215.1562 46.3906 Q213.8281 46.4375 213.8281 48.7812 L213.8281 54.25 ZM212.75 57.5 L212.75 48.7812 Q212.75 46.3281 214.0781 46 Q214.7656 45.8125 215.25 45.8125 Q216.3438 45.8125 217.0469 46.6719 Q217.6094 47.3594 217.6094 47.9375 Q217.6094 48.7812 217.2031 49.2656 Q216.7969 49.75 216.0625 49.9844 Q217.1406 50.1406 217.75 50.7812 Q218.3281 51.4062 218.3281 52.6328 Q218.3281 53.8594 217.5078 54.5156 Q216.6875 55.1719 215.1406 55.1719 Q214.1875 55.1719 213.8281 55.0312 L213.8281 57.5 L212.75 57.5 Z" style="fill:black; stroke:none;" /></g><g ID="li-1:4,5" style="fill:white; text-rendering:optimizeSpeed; font-family:'Serif'; stroke:white;"><rect height="10" style="stroke:none;" width="7" x="292" y="136" /><path d="M293.1719 137.625 Q293.8594 137.3594 294.4844 137.2266 Q295.1094 137.0938 295.6562 137.0938 Q296.9531 137.0938 297.6719 137.6484 Q298.3906 138.2031 298.3906 139.1875 Q298.3906 139.9688 297.8906 140.5 Q297.3906 141.0312 296.4844 141.2188 Q297.5625 141.375 298.1562 142.0078 Q298.75 142.6406 298.75 143.6406 Q298.75 144.8594 297.9219 145.5156 Q297.0938 146.1719 295.5469 146.1719 Q294.8594 146.1719 294.2109 146.0234 Q293.5625 145.875 292.9219 145.5781 L292.9219 143.875 L293.5781 143.875 Q293.625 144.7188 294.1406 145.1562 Q294.6562 145.5938 295.5781 145.5938 Q296.4688 145.5938 296.9922 145.0703 Q297.5156 144.5469 297.5156 143.6562 Q297.5156 142.625 296.9766 142.0938 Q296.4375 141.5625 295.4062 141.5625 L294.8594 141.5625 L294.8594 140.9531 L295.1406 140.9531 Q296.1719 140.9531 296.6875 140.5312 Q297.2031 140.1094 297.2031 139.25 Q297.2031 138.4844 296.7812 138.0781 Q296.3594 137.6719 295.5625 137.6719 Q294.7656 137.6719 294.3359 138.0469 Q293.9062 138.4219 293.8281 139.1562 L293.1719 139.1562 L293.1719 137.625 Z" style="fill:black; stroke:none;" /><rect height="8" style="stroke:none;" width="8" x="263" y="179" /><path d="M268.1875 185.4688 L267.9531 186.1094 Q267.7656 186.625 267.2031 186.9375 Q266.8438 187.1562 266.2031 187.1406 Q265.0469 187.1406 264.3281 186.2344 Q263.5938 185.3281 263.5938 183.8594 Q263.5938 182.4219 264.3281 181.4844 Q265.0156 180.5938 266.4531 180.6094 Q267.4531 180.6094 267.9531 181 Q268.4062 181.3438 268.5781 182.0938 L268.625 182.3125 L268.8438 181.6719 Q269.0625 181.0469 269.6562 180.75 L270.25 180.75 L270.25 181.0938 Q269.6875 181.2656 269.5 181.8125 L268.8906 183.4844 L269.2969 185.2812 Q269.5 186.2031 269.7344 186.2969 Q270.0469 186.4375 270.7812 186 L270.7812 186.7188 Q269.5938 187.4062 268.75 186.6875 Q268.375 186.3594 268.2656 185.875 L268.1875 185.4688 ZM267.9219 184.3125 L267.5625 182.5938 Q267.2656 181.2188 266.4688 181.2188 Q265.7969 181.2031 265.2812 181.9375 Q264.8594 182.5156 264.8594 183.875 Q264.8594 185.1719 265.2812 185.8281 Q265.75 186.5469 266.5312 186.5 Q267.2031 186.4375 267.6875 185 L267.9219 184.3125 Z" style="fill:black; stroke:none;" /></g><g ID="li-1:4,6" style="fill:white; text-rendering:optimizeSpeed; font-family:'Serif'; stroke:white;"><rect height="10" style="stroke:none;" width="7" x="279" y="100" /><path d="M282.9219 109.5938 Q283.75 109.5938 284.1953 108.9844 Q284.6406 108.375 284.6406 107.2344 Q284.6406 106.1094 284.1953 105.5 Q283.75 104.8906 282.9219 104.8906 Q282.0938 104.8906 281.6484 105.4766 Q281.2031 106.0625 281.2031 107.1719 Q281.2031 108.3281 281.6484 108.9609 Q282.0938 109.5938 282.9219 109.5938 ZM281.0156 105.1875 Q281.4219 104.75 281.9219 104.5312 Q282.4219 104.3125 283.0625 104.3125 Q284.3594 104.3125 285.1172 105.0938 Q285.875 105.875 285.875 107.2344 Q285.875 108.5625 285.0625 109.3672 Q284.25 110.1719 282.875 110.1719 Q281.3906 110.1719 280.5938 109.0625 Q279.7969 107.9531 279.7969 105.9062 Q279.7969 103.6094 280.7422 102.3516 Q281.6875 101.0938 283.4062 101.0938 Q283.875 101.0938 284.3828 101.1797 Q284.8906 101.2656 285.4219 101.4375 L285.4219 102.8906 L284.7656 102.8906 Q284.6875 102.2969 284.3047 101.9844 Q283.9219 101.6719 283.2812 101.6719 Q282.1406 101.6719 281.5859 102.5312 Q281.0312 103.3906 281.0156 105.1875 Z" style="fill:black; stroke:none;" /><rect height="8" style="stroke:none;" width="8" x="250" y="59" /><path d="M255.1875 65.4688 L254.9531 66.1094 Q254.7656 66.625 254.2031 66.9375 Q253.8438 67.1562 253.2031 67.1406 Q252.0469 67.1406 251.3281 66.2344 Q250.5938 65.3281 250.5938 63.8594 Q250.5938 62.4219 251.3281 61.4844 Q252.0156 60.5938 253.4531 60.6094 Q254.4531 60.6094 254.9531 61 Q255.4062 61.3438 255.5781 62.0938 L255.625 62.3125 L255.8438 61.6719 Q256.0625 61.0469 256.6562 60.75 L257.25 60.75 L257.25 61.0938 Q256.6875 61.2656 256.5 61.8125 L255.8906 63.4844 L256.2969 65.2812 Q256.5 66.2031 256.7344 66.2969 Q257.0469 66.4375 257.7812 66 L257.7812 66.7188 Q256.5938 67.4062 255.75 66.6875 Q255.375 66.3594 255.2656 65.875 L255.1875 65.4688 ZM254.9219 64.3125 L254.5625 62.5938 Q254.2656 61.2188 253.4688 61.2188 Q252.7969 61.2031 252.2812 61.9375 Q251.8594 62.5156 251.8594 63.875 Q251.8594 65.1719 252.2812 65.8281 Q252.75 66.5469 253.5312 66.5 Q254.2031 66.4375 254.6875 65 L254.9219 64.3125 Z" style="fill:black; stroke:none;" /></g><g ID="li-1:2,4" style="fill:white; text-rendering:optimizeSpeed; font-family:'Serif'; stroke:white;"><rect height="9" style="stroke:none;" width="8" x="330" y="122" /><path d="M334.1875 128.0312 L334.1875 123.375 L331.2031 128.0312 L334.1875 128.0312 ZM336.7656 131 L332.7812 131 L332.7812 130.375 L334.1875 130.375 L334.1875 128.6562 L330.375 128.6562 L330.375 128.0156 L334.2031 122.0938 L335.3594 122.0938 L335.3594 128.0312 L337.0312 128.0312 L337.0312 128.6562 L335.3594 128.6562 L335.3594 130.375 L336.7656 130.375 L336.7656 131 Z" style="fill:black; stroke:none;" /><rect height="13" style="stroke:none;" width="7" x="316" y="120" /><path d="M317.8281 132.25 Q318.2969 132.5938 319.1719 132.5938 Q320.0625 132.5938 320.5781 132.0703 Q321.0938 131.5469 321.0938 130.6562 Q321.0938 129.4219 320.5625 128.8906 Q320.0156 128.3594 319 128.3594 L318.4375 128.3594 L318.4375 127.7188 L318.7344 127.7188 Q319.4844 127.7188 320 127.2969 Q320.4219 126.9531 320.4219 126.0156 Q320.4219 125.6094 320.1406 125.1406 Q319.6875 124.375 319.1562 124.3906 Q317.8281 124.4375 317.8281 126.7812 L317.8281 132.25 ZM316.75 135.5 L316.75 126.7812 Q316.75 124.3281 318.0781 124 Q318.7656 123.8125 319.25 123.8125 Q320.3438 123.8125 321.0469 124.6719 Q321.6094 125.3594 321.6094 125.9375 Q321.6094 126.7812 321.2031 127.2656 Q320.7969 127.75 320.0625 127.9844 Q321.1406 128.1406 321.75 128.7812 Q322.3281 129.4062 322.3281 130.6328 Q322.3281 131.8594 321.5078 132.5156 Q320.6875 133.1719 319.1406 133.1719 Q318.1875 133.1719 317.8281 133.0312 L317.8281 135.5 L316.75 135.5 Z" style="fill:black; stroke:none;" /></g><g ID="r-1:3" style="fill:white; text-rendering:optimizeSpeed; stroke:white;" wurcs_mono_id="18"><polygon points=" 405 78 394 56 416 56" style="stroke:none; clip-path:url(#clipPath18);" /><rect height="22" style="clip-path:url(#clipPath18); fill:rgb(237,28,36); stroke:none;" width="22" x="394" y="56" /><rect height="22" style="clip-path:url(#clipPath18); fill:none; stroke:black;" width="22" x="394" y="56" /><polygon points=" 405 78 394 56 416 56" style="fill:none; stroke:black;" /></g><g ID="li-1:1,2" style="fill:white; text-rendering:optimizeSpeed; font-family:'Serif'; stroke:white;"><rect height="9" style="stroke:none;" width="8" x="382" y="122" /><path d="M386.1875 128.0312 L386.1875 123.375 L383.2031 128.0312 L386.1875 128.0312 ZM388.7656 131 L384.7812 131 L384.7812 130.375 L386.1875 130.375 L386.1875 128.6562 L382.375 128.6562 L382.375 128.0156 L386.2031 122.0938 L387.3594 122.0938 L387.3594 128.0312 L389.0312 128.0312 L389.0312 128.6562 L387.3594 128.6562 L387.3594 130.375 L388.7656 130.375 L388.7656 131 Z" style="fill:black; stroke:none;" /><rect height="13" style="stroke:none;" width="7" x="368" y="120" /><path d="M369.8281 132.25 Q370.2969 132.5938 371.1719 132.5938 Q372.0625 132.5938 372.5781 132.0703 Q373.0938 131.5469 373.0938 130.6562 Q373.0938 129.4219 372.5625 128.8906 Q372.0156 128.3594 371 128.3594 L370.4375 128.3594 L370.4375 127.7188 L370.7344 127.7188 Q371.4844 127.7188 372 127.2969 Q372.4219 126.9531 372.4219 126.0156 Q372.4219 125.6094 372.1406 125.1406 Q371.6875 124.375 371.1562 124.3906 Q369.8281 124.4375 369.8281 126.7812 L369.8281 132.25 ZM368.75 135.5 L368.75 126.7812 Q368.75 124.3281 370.0781 124 Q370.7656 123.8125 371.25 123.8125 Q372.3438 123.8125 373.0469 124.6719 Q373.6094 125.3594 373.6094 125.9375 Q373.6094 126.7812 373.2031 127.2656 Q372.7969 127.75 372.0625 127.9844 Q373.1406 128.1406 373.75 128.7812 Q374.3281 129.4062 374.3281 130.6328 Q374.3281 131.8594 373.5078 132.5156 Q372.6875 133.1719 371.1406 133.1719 Q370.1875 133.1719 369.8281 133.0312 L369.8281 135.5 L368.75 135.5 Z" style="fill:black; stroke:none;" /></g><g ID="li-1:1,3" style="fill:white; text-rendering:optimizeSpeed; font-family:'Serif'; stroke:white;"><rect height="10" style="stroke:none;" width="7" x="393" y="95" /><path d="M396.9219 104.5938 Q397.75 104.5938 398.1953 103.9844 Q398.6406 103.375 398.6406 102.2344 Q398.6406 101.1094 398.1953 100.5 Q397.75 99.8906 396.9219 99.8906 Q396.0938 99.8906 395.6484 100.4766 Q395.2031 101.0625 395.2031 102.1719 Q395.2031 103.3281 395.6484 103.9609 Q396.0938 104.5938 396.9219 104.5938 ZM395.0156 100.1875 Q395.4219 99.75 395.9219 99.5312 Q396.4219 99.3125 397.0625 99.3125 Q398.3594 99.3125 399.1172 100.0938 Q399.875 100.875 399.875 102.2344 Q399.875 103.5625 399.0625 104.3672 Q398.25 105.1719 396.875 105.1719 Q395.3906 105.1719 394.5938 104.0625 Q393.7969 102.9531 393.7969 100.9062 Q393.7969 98.6094 394.7422 97.3516 Q395.6875 96.0938 397.4062 96.0938 Q397.875 96.0938 398.3828 96.1797 Q398.8906 96.2656 399.4219 96.4375 L399.4219 97.8906 L398.7656 97.8906 Q398.6875 97.2969 398.3047 96.9844 Q397.9219 96.6719 397.2812 96.6719 Q396.1406 96.6719 395.5859 97.5312 Q395.0312 98.3906 395.0156 100.1875 Z" style="fill:black; stroke:none;" /><rect height="8" style="stroke:none;" width="8" x="393" y="82" /><path d="M398.1875 88.4688 L397.9531 89.1094 Q397.7656 89.625 397.2031 89.9375 Q396.8438 90.1562 396.2031 90.1406 Q395.0469 90.1406 394.3281 89.2344 Q393.5938 88.3281 393.5938 86.8594 Q393.5938 85.4219 394.3281 84.4844 Q395.0156 83.5938 396.4531 83.6094 Q397.4531 83.6094 397.9531 84 Q398.4062 84.3438 398.5781 85.0938 L398.625 85.3125 L398.8438 84.6719 Q399.0625 84.0469 399.6562 83.75 L400.25 83.75 L400.25 84.0938 Q399.6875 84.2656 399.5 84.8125 L398.8906 86.4844 L399.2969 88.2812 Q399.5 89.2031 399.7344 89.2969 Q400.0469 89.4375 400.7812 89 L400.7812 89.7188 Q399.5938 90.4062 398.75 89.6875 Q398.375 89.3594 398.2656 88.875 L398.1875 88.4688 ZM397.9219 87.3125 L397.5625 85.5938 Q397.2656 84.2188 396.4688 84.2188 Q395.7969 84.2031 395.2812 84.9375 Q394.8594 85.5156 394.8594 86.875 Q394.8594 88.1719 395.2812 88.8281 Q395.75 89.5469 396.5312 89.5 Q397.2031 89.4375 397.6875 88 L397.9219 87.3125 Z" style="fill:black; stroke:none;" /></g></g></svg>