<svg xmlns="http://www.w3.org/2000/svg" style="fill-opacity:1; color-rendering:auto; color-interpolation:auto; text-rendering:auto; stroke:black; stroke-linecap:square; stroke-miterlimit:10; shape-rendering:auto; stroke-opacity:1; fill:black; stroke-dasharray:none; font-weight:normal; stroke-width:1; font-family:'Dialog'; font-style:normal; stroke-linejoin:miter; font-size:12px; stroke-dashoffset:0; image-rendering:auto;"><defs id="genericDefs" /><g><defs id="defs1"><clipPath clipPathUnits="userSpaceOnUse" id="clipPath1"><path d="M52 145 C52 151.0751 47.0751 156 41 156 C34.9249 156 30 151.0751 30 145 C30 138.9249 34.9249 134 41 134 C47.0751 134 52 138.9249 52 145 Z" /></clipPath><clipPath clipPathUnits="userSpaceOnUse" id="clipPath2"><path d="M41 82 L43 89 L51 89 L44 94 L47 101 L41 97 L34 101 L37 94 L30 89 L38 89 L41 82 Z" style="fill-rule:evenodd;" /></clipPath><clipPath clipPathUnits="userSpaceOnUse" id="clipPath3"><path d="M41 30 L43 37 L51 37 L44 42 L47 49 L41 45 L34 49 L37 42 L30 37 L38 37 L41 30 Z" style="fill-rule:evenodd;" /></clipPath></defs><g style="fill:white; text-rendering:optimizeSpeed; stroke:white;"><rect height="186" style="stroke:none;" width="82" x="0" y="0" /></g><g ID="l-1:1,2" style="text-rendering:optimizeSpeed;"><polygon points=" 41 145 41 93" style="fill:none;" /></g><g ID="r-1:1" style="fill:white; text-rendering:optimizeSpeed; stroke:white;" wurcs_mono_id="1"><circle cx="41" cy="145" r="11" style="clip-path:url(#clipPath1); stroke:none;" /><rect height="22" style="clip-path:url(#clipPath1); fill:rgb(0,144,188); stroke:none;" width="22" x="30" y="134" /><rect height="22" style="clip-path:url(#clipPath1); fill:none; stroke:black;" width="22" x="30" y="134" /><circle cx="41" cy="145" r="11" style="fill:none; stroke:black;" /></g><g ID="l-1:2,3" style="text-rendering:optimizeSpeed;"><polygon points=" 41 93 41 41" style="fill:none;" /></g><g ID="r-1:2" style="fill:white; text-rendering:optimizeSpeed; stroke:white;" wurcs_mono_id="2"><polygon points=" 41 82 43 89 51 89 44 94 47 101 41 97 34 101 37 94 30 89 38 89 41 82" style="stroke:none; clip-path:url(#clipPath2);" /><rect height="22" style="clip-path:url(#clipPath2); fill:rgb(244,121,32); stroke:none;" width="22" x="30" y="82" /><rect height="22" style="clip-path:url(#clipPath2); fill:none; stroke:black;" width="22" x="30" y="82" /><polygon points=" 41 82 43 89 51 89 44 94 47 101 41 97 34 101 37 94 30 89 38 89 41 82" style="fill:none; stroke:black;" /></g><g ID="r-1:3" style="fill:white; text-rendering:optimizeSpeed; stroke:white;" wurcs_mono_id="3"><polygon points=" 41 30 43 37 51 37 44 42 47 49 41 45 34 49 37 42 30 37 38 37 41 30" style="stroke:none; clip-path:url(#clipPath3);" /><rect height="22" style="clip-path:url(#clipPath3); fill:rgb(244,121,32); stroke:none;" width="22" x="30" y="30" /><rect height="22" style="clip-path:url(#clipPath3); fill:none; stroke:black;" width="22" x="30" y="30" /><polygon points=" 41 30 43 37 51 37 44 42 47 49 41 45 34 49 37 42 30 37 38 37 41 30" style="fill:none; stroke:black;" /></g><g ID="li-1:2,3" style="fill:white; text-rendering:optimizeSpeed; font-family:'Serif'; stroke:white;"><rect height="9" style="stroke:none;" width="8" x="29" y="69" /><path d="M33.1875 75.0312 L33.1875 70.375 L30.2031 75.0312 L33.1875 75.0312 ZM35.7656 78 L31.7812 78 L31.7812 77.375 L33.1875 77.375 L33.1875 75.6562 L29.375 75.6562 L29.375 75.0156 L33.2031 69.0938 L34.3594 69.0938 L34.3594 75.0312 L36.0312 75.0312 L36.0312 75.6562 L34.3594 75.6562 L34.3594 77.375 L35.7656 77.375 L35.7656 78 Z" style="fill:black; stroke:none;" /><rect height="8" style="stroke:none;" width="8" x="29" y="56" /><path d="M34.1875 62.4688 L33.9531 63.1094 Q33.7656 63.625 33.2031 63.9375 Q32.8438 64.1562 32.2031 64.1406 Q31.0469 64.1406 30.3281 63.2344 Q29.5938 62.3281 29.5938 60.8594 Q29.5938 59.4219 30.3281 58.4844 Q31.0156 57.5938 32.4531 57.6094 Q33.4531 57.6094 33.9531 58 Q34.4062 58.3438 34.5781 59.0938 L34.625 59.3125 L34.8438 58.6719 Q35.0625 58.0469 35.6562 57.75 L36.25 57.75 L36.25 58.0938 Q35.6875 58.2656 35.5 58.8125 L34.8906 60.4844 L35.2969 62.2812 Q35.5 63.2031 35.7344 63.2969 Q36.0469 63.4375 36.7812 63 L36.7812 63.7188 Q35.5938 64.4062 34.75 63.6875 Q34.375 63.3594 34.2656 62.875 L34.1875 62.4688 ZM33.9219 61.3125 L33.5625 59.5938 Q33.2656 58.2188 32.4688 58.2188 Q31.7969 58.2031 31.2812 58.9375 Q30.8594 59.5156 30.8594 60.875 Q30.8594 62.1719 31.2812 62.8281 Q31.75 63.5469 32.5312 63.5 Q33.2031 63.4375 33.6875 62 L33.9219 61.3125 Z" style="fill:black; stroke:none;" /></g><g ID="li-1:1,2" style="fill:white; text-rendering:optimizeSpeed; font-family:'Serif'; stroke:white;"><rect height="10" style="stroke:none;" width="7" x="29" y="121" /><path d="M32.9219 130.5938 Q33.75 130.5938 34.1953 129.9844 Q34.6406 129.375 34.6406 128.2344 Q34.6406 127.1094 34.1953 126.5 Q33.75 125.8906 32.9219 125.8906 Q32.0938 125.8906 31.6484 126.4766 Q31.2031 127.0625 31.2031 128.1719 Q31.2031 129.3281 31.6484 129.9609 Q32.0938 130.5938 32.9219 130.5938 ZM31.0156 126.1875 Q31.4219 125.75 31.9219 125.5312 Q32.4219 125.3125 33.0625 125.3125 Q34.3594 125.3125 35.1172 126.0938 Q35.875 126.875 35.875 128.2344 Q35.875 129.5625 35.0625 130.3672 Q34.25 131.1719 32.875 131.1719 Q31.3906 131.1719 30.5938 130.0625 Q29.7969 128.9531 29.7969 126.9062 Q29.7969 124.6094 30.7422 123.3516 Q31.6875 122.0938 33.4062 122.0938 Q33.875 122.0938 34.3828 122.1797 Q34.8906 122.2656 35.4219 122.4375 L35.4219 123.8906 L34.7656 123.8906 Q34.6875 123.2969 34.3047 122.9844 Q33.9219 122.6719 33.2812 122.6719 Q32.1406 122.6719 31.5859 123.5312 Q31.0312 124.3906 31.0156 126.1875 Z" style="fill:black; stroke:none;" /><rect height="8" style="stroke:none;" width="8" x="29" y="108" /><path d="M34.1875 114.4688 L33.9531 115.1094 Q33.7656 115.625 33.2031 115.9375 Q32.8438 116.1562 32.2031 116.1406 Q31.0469 116.1406 30.3281 115.2344 Q29.5938 114.3281 29.5938 112.8594 Q29.5938 111.4219 30.3281 110.4844 Q31.0156 109.5938 32.4531 109.6094 Q33.4531 109.6094 33.9531 110 Q34.4062 110.3438 34.5781 111.0938 L34.625 111.3125 L34.8438 110.6719 Q35.0625 110.0469 35.6562 109.75 L36.25 109.75 L36.25 110.0938 Q35.6875 110.2656 35.5 110.8125 L34.8906 112.4844 L35.2969 114.2812 Q35.5 115.2031 35.7344 115.2969 Q36.0469 115.4375 36.7812 115 L36.7812 115.7188 Q35.5938 116.4062 34.75 115.6875 Q34.375 115.3594 34.2656 114.875 L34.1875 114.4688 ZM33.9219 113.3125 L33.5625 111.5938 Q33.2656 110.2188 32.4688 110.2188 Q31.7969 110.2031 31.2812 110.9375 Q30.8594 111.5156 30.8594 112.875 Q30.8594 114.1719 31.2812 114.8281 Q31.75 115.5469 32.5312 115.5 Q33.2031 115.4375 33.6875 114 L33.9219 113.3125 Z" style="fill:black; stroke:none;" /></g></g></svg>