<svg xmlns="http://www.w3.org/2000/svg" style="fill-opacity:1; color-rendering:auto; color-interpolation:auto; text-rendering:auto; stroke:black; stroke-linecap:square; stroke-miterlimit:10; shape-rendering:auto; stroke-opacity:1; fill:black; stroke-dasharray:none; font-weight:normal; stroke-width:1; font-family:'Dialog'; font-style:normal; stroke-linejoin:miter; font-size:12px; stroke-dashoffset:0; image-rendering:auto;"><defs id="genericDefs" /><g><defs id="defs1"><clipPath clipPathUnits="userSpaceOnUse" id="clipPath1"><path d="M290 121 L312 121 L312 143 L290 143 L290 121 Z" /></clipPath><clipPath clipPathUnits="userSpaceOnUse" id="clipPath2"><path d="M238 121 L260 121 L260 143 L238 143 L238 121 Z" /></clipPath><clipPath clipPathUnits="userSpaceOnUse" id="clipPath3"><path d="M208 132 C208 138.0751 203.0751 143 197 143 C190.9249 143 186 138.0751 186 132 C186 125.9249 190.9249 121 197 121 C203.0751 121 208 125.9249 208 132 Z" /></clipPath><clipPath clipPathUnits="userSpaceOnUse" id="clipPath4"><path d="M156 197 C156 203.0751 151.0751 208 145 208 C138.9249 208 134 203.0751 134 197 C134 190.9249 138.9249 186 145 186 C151.0751 186 156 190.9249 156 197 Z" /></clipPath><clipPath clipPathUnits="userSpaceOnUse" id="clipPath5"><path d="M82 238 L104 238 L104 260 L82 260 L82 238 Z" /></clipPath><clipPath clipPathUnits="userSpaceOnUse" id="clipPath6"><path d="M93 208 L82 186 L104 186 Z" style="fill-rule:evenodd;" /></clipPath><clipPath clipPathUnits="userSpaceOnUse" id="clipPath7"><path d="M52 249 C52 255.0751 47.0751 260 41 260 C34.9249 260 30 255.0751 30 249 C30 242.9249 34.9249 238 41 238 C47.0751 238 52 242.9249 52 249 Z" /></clipPath><clipPath clipPathUnits="userSpaceOnUse" id="clipPath8"><path d="M82 134 L104 134 L104 156 L82 156 L82 134 Z" /></clipPath><clipPath clipPathUnits="userSpaceOnUse" id="clipPath9"><path d="M156 67 C156 73.0751 151.0751 78 145 78 C138.9249 78 134 73.0751 134 67 C134 60.9249 138.9249 56 145 56 C151.0751 56 156 60.9249 156 67 Z" /></clipPath><clipPath clipPathUnits="userSpaceOnUse" id="clipPath10"><path d="M82 82 L104 82 L104 104 L82 104 L82 82 Z" /></clipPath><clipPath clipPathUnits="userSpaceOnUse" id="clipPath11"><path d="M82 30 L104 30 L104 52 L82 52 L82 30 Z" /></clipPath><clipPath clipPathUnits="userSpaceOnUse" id="clipPath12"><path d="M301 91 L290 69 L312 69 Z" style="fill-rule:evenodd;" /></clipPath></defs><g style="fill:white; text-rendering:optimizeSpeed; stroke:white;"><rect height="290" style="stroke:none;" width="342" x="0" y="0" /></g><g ID="l-1:1,2" style="text-rendering:optimizeSpeed;"><polygon points=" 301 132 249 132" style="fill:none;" /></g><g ID="l-1:1,3" style="text-rendering:optimizeSpeed;"><polygon points=" 301 132 301 80" style="fill:none;" /></g><g ID="r-1:1" style="fill:white; text-rendering:optimizeSpeed; stroke:white;" wurcs_mono_id="1"><rect height="22" style="clip-path:url(#clipPath1); stroke:none;" width="22" x="290" y="121" /><rect height="22" style="clip-path:url(#clipPath1); fill:rgb(0,144,188); stroke:none;" width="22" x="290" y="121" /><rect height="22" style="clip-path:url(#clipPath1); fill:none; stroke:black;" width="22" x="290" y="121" /><rect height="22" style="fill:none; stroke:black;" width="22" x="290" y="121" /></g><g ID="l-1:2,4" style="text-rendering:optimizeSpeed;"><polygon points=" 249 132 197 132" style="fill:none;" /></g><g ID="r-1:2" style="fill:white; text-rendering:optimizeSpeed; stroke:white;" wurcs_mono_id="2"><rect height="22" style="clip-path:url(#clipPath2); stroke:none;" width="22" x="238" y="121" /><rect height="22" style="clip-path:url(#clipPath2); fill:rgb(0,144,188); stroke:none;" width="22" x="238" y="121" /><rect height="22" style="clip-path:url(#clipPath2); fill:none; stroke:black;" width="22" x="238" y="121" /><rect height="22" style="fill:none; stroke:black;" width="22" x="238" y="121" /></g><g ID="l-1:4,5" style="text-rendering:optimizeSpeed;"><polygon points=" 197 132 145 197" style="fill:none;" /></g><g ID="l-1:4,6" style="text-rendering:optimizeSpeed;"><polygon points=" 197 132 145 67" style="fill:none;" /></g><g ID="r-1:4" style="fill:white; text-rendering:optimizeSpeed; stroke:white;" wurcs_mono_id="3"><circle cx="197" cy="132" r="11" style="clip-path:url(#clipPath3); stroke:none;" /><rect height="22" style="clip-path:url(#clipPath3); fill:rgb(0,166,81); stroke:none;" width="22" x="186" y="121" /><rect height="22" style="clip-path:url(#clipPath3); fill:none; stroke:black;" width="22" x="186" y="121" /><circle cx="197" cy="132" r="11" style="fill:none; stroke:black;" /></g><g ID="l-1:5,7" style="text-rendering:optimizeSpeed;"><polygon points=" 145 197 93 249" style="fill:none;" /></g><g ID="l-1:5,8" style="text-rendering:optimizeSpeed;"><polygon points=" 145 197 93 145" style="fill:none;" /></g><g ID="r-1:5" style="fill:white; text-rendering:optimizeSpeed; stroke:white;" wurcs_mono_id="4"><circle cx="145" cy="197" r="11" style="clip-path:url(#clipPath4); stroke:none;" /><rect height="22" style="clip-path:url(#clipPath4); fill:rgb(0,166,81); stroke:none;" width="22" x="134" y="186" /><rect height="22" style="clip-path:url(#clipPath4); fill:none; stroke:black;" width="22" x="134" y="186" /><circle cx="145" cy="197" r="11" style="fill:none; stroke:black;" /></g><g ID="l-1:7,9" style="text-rendering:optimizeSpeed;"><polygon points=" 93 249 93 197" style="fill:none;" /></g><g ID="l-1:7,10" style="text-rendering:optimizeSpeed;"><polygon points=" 93 249 41 249" style="fill:none;" /></g><g ID="r-1:7" style="fill:white; text-rendering:optimizeSpeed; stroke:white;" wurcs_mono_id="5"><rect height="22" style="clip-path:url(#clipPath5); stroke:none;" width="22" x="82" y="238" /><rect height="22" style="clip-path:url(#clipPath5); fill:rgb(0,144,188); stroke:none;" width="22" x="82" y="238" /><rect height="22" style="clip-path:url(#clipPath5); fill:none; stroke:black;" width="22" x="82" y="238" /><rect height="22" style="fill:none; stroke:black;" width="22" x="82" y="238" /></g><g ID="r-1:9" style="fill:white; text-rendering:optimizeSpeed; stroke:white;" wurcs_mono_id="6"><polygon points=" 93 208 82 186 104 186" style="stroke:none; clip-path:url(#clipPath6);" /><rect height="22" style="clip-path:url(#clipPath6); fill:rgb(237,28,36); stroke:none;" width="22" x="82" y="186" /><rect height="22" style="clip-path:url(#clipPath6); fill:none; stroke:black;" width="22" x="82" y="186" /><polygon points=" 93 208 82 186 104 186" style="fill:none; stroke:black;" /></g><g ID="r-1:10" style="fill:white; text-rendering:optimizeSpeed; stroke:white;" wurcs_mono_id="7"><circle cx="41" cy="249" r="11" style="clip-path:url(#clipPath7); stroke:none;" /><rect height="22" style="clip-path:url(#clipPath7); fill:rgb(255,212,0); stroke:none;" width="22" x="30" y="238" /><rect height="22" style="clip-path:url(#clipPath7); fill:none; stroke:black;" width="22" x="30" y="238" /><circle cx="41" cy="249" r="11" style="fill:none; stroke:black;" /></g><g ID="li-1:7,9" style="fill:white; text-rendering:optimizeSpeed; font-family:'Serif'; stroke:white;"><rect height="10" style="stroke:none;" width="6" x="82" y="225" /><path d="M84.1094 234.3906 Q84.1094 234.0625 84.3359 233.8359 Q84.5625 233.6094 84.8906 233.6094 Q85.2188 233.6094 85.4453 233.8359 Q85.6719 234.0625 85.6719 234.3906 Q85.6719 234.7188 85.4453 234.9453 Q85.2188 235.1719 84.8906 235.1719 Q84.5625 235.1719 84.3359 234.9453 Q84.1094 234.7188 84.1094 234.3906 ZM82.8125 226.6406 Q83.4375 226.3594 84 226.2266 Q84.5625 226.0938 85.0469 226.0938 Q86.3438 226.0938 87.1016 226.7188 Q87.8594 227.3438 87.8594 228.4062 Q87.8594 229.5 87.2109 230.1953 Q86.5625 230.8906 85.25 231.1875 L85.25 232.6719 L84.5312 232.6719 L84.5312 230.75 Q85.5625 230.5 86.0938 229.9062 Q86.625 229.3125 86.625 228.4062 Q86.625 227.5938 86.1953 227.1328 Q85.7656 226.6719 85.0312 226.6719 Q84.3594 226.6719 83.9297 227.0547 Q83.5 227.4375 83.3906 228.1562 L82.8125 228.1562 L82.8125 226.6406 Z" style="fill:black; stroke:none;" /><rect height="10" style="stroke:none;" width="6" x="82" y="211" /><path d="M84.1094 220.3906 Q84.1094 220.0625 84.3359 219.8359 Q84.5625 219.6094 84.8906 219.6094 Q85.2188 219.6094 85.4453 219.8359 Q85.6719 220.0625 85.6719 220.3906 Q85.6719 220.7188 85.4453 220.9453 Q85.2188 221.1719 84.8906 221.1719 Q84.5625 221.1719 84.3359 220.9453 Q84.1094 220.7188 84.1094 220.3906 ZM82.8125 212.6406 Q83.4375 212.3594 84 212.2266 Q84.5625 212.0938 85.0469 212.0938 Q86.3438 212.0938 87.1016 212.7188 Q87.8594 213.3438 87.8594 214.4062 Q87.8594 215.5 87.2109 216.1953 Q86.5625 216.8906 85.25 217.1875 L85.25 218.6719 L84.5312 218.6719 L84.5312 216.75 Q85.5625 216.5 86.0938 215.9062 Q86.625 215.3125 86.625 214.4062 Q86.625 213.5938 86.1953 213.1328 Q85.7656 212.6719 85.0312 212.6719 Q84.3594 212.6719 83.9297 213.0547 Q83.5 213.4375 83.3906 214.1562 L82.8125 214.1562 L82.8125 212.6406 Z" style="fill:black; stroke:none;" /></g><g ID="li-1:7,10" style="fill:white; text-rendering:optimizeSpeed; font-family:'Serif'; stroke:white;"><rect height="10" style="stroke:none;" width="6" x="71" y="252" /><path d="M73.1094 261.3906 Q73.1094 261.0625 73.3359 260.8359 Q73.5625 260.6094 73.8906 260.6094 Q74.2188 260.6094 74.4453 260.8359 Q74.6719 261.0625 74.6719 261.3906 Q74.6719 261.7188 74.4453 261.9453 Q74.2188 262.1719 73.8906 262.1719 Q73.5625 262.1719 73.3359 261.9453 Q73.1094 261.7188 73.1094 261.3906 ZM71.8125 253.6406 Q72.4375 253.3594 73 253.2266 Q73.5625 253.0938 74.0469 253.0938 Q75.3438 253.0938 76.1016 253.7188 Q76.8594 254.3438 76.8594 255.4062 Q76.8594 256.5 76.2109 257.1953 Q75.5625 257.8906 74.25 258.1875 L74.25 259.6719 L73.5312 259.6719 L73.5312 257.75 Q74.5625 257.5 75.0938 256.9062 Q75.625 256.3125 75.625 255.4062 Q75.625 254.5938 75.1953 254.1328 Q74.7656 253.6719 74.0312 253.6719 Q73.3594 253.6719 72.9297 254.0547 Q72.5 254.4375 72.3906 255.1562 L71.8125 255.1562 L71.8125 253.6406 Z" style="fill:black; stroke:none;" /><rect height="10" style="stroke:none;" width="6" x="57" y="252" /><path d="M59.1094 261.3906 Q59.1094 261.0625 59.3359 260.8359 Q59.5625 260.6094 59.8906 260.6094 Q60.2188 260.6094 60.4453 260.8359 Q60.6719 261.0625 60.6719 261.3906 Q60.6719 261.7188 60.4453 261.9453 Q60.2188 262.1719 59.8906 262.1719 Q59.5625 262.1719 59.3359 261.9453 Q59.1094 261.7188 59.1094 261.3906 ZM57.8125 253.6406 Q58.4375 253.3594 59 253.2266 Q59.5625 253.0938 60.0469 253.0938 Q61.3438 253.0938 62.1016 253.7188 Q62.8594 254.3438 62.8594 255.4062 Q62.8594 256.5 62.2109 257.1953 Q61.5625 257.8906 60.25 258.1875 L60.25 259.6719 L59.5312 259.6719 L59.5312 257.75 Q60.5625 257.5 61.0938 256.9062 Q61.625 256.3125 61.625 255.4062 Q61.625 254.5938 61.1953 254.1328 Q60.7656 253.6719 60.0312 253.6719 Q59.3594 253.6719 58.9297 254.0547 Q58.5 254.4375 58.3906 255.1562 L57.8125 255.1562 L57.8125 253.6406 Z" style="fill:black; stroke:none;" /></g><g ID="r-1:8" style="fill:white; text-rendering:optimizeSpeed; stroke:white;" wurcs_mono_id="8"><rect height="22" style="clip-path:url(#clipPath8); stroke:none;" width="22" x="82" y="134" /><rect height="22" style="clip-path:url(#clipPath8); fill:rgb(0,144,188); stroke:none;" width="22" x="82" y="134" /><rect height="22" style="clip-path:url(#clipPath8); fill:none; stroke:black;" width="22" x="82" y="134" /><rect height="22" style="fill:none; stroke:black;" width="22" x="82" y="134" /></g><g ID="li-1:5,7" style="fill:white; text-rendering:optimizeSpeed; font-family:'Serif'; stroke:white;"><rect height="10" style="stroke:none;" width="6" x="131" y="214" /><path d="M133.1094 223.3906 Q133.1094 223.0625 133.3359 222.8359 Q133.5625 222.6094 133.8906 222.6094 Q134.2188 222.6094 134.4453 222.8359 Q134.6719 223.0625 134.6719 223.3906 Q134.6719 223.7188 134.4453 223.9453 Q134.2188 224.1719 133.8906 224.1719 Q133.5625 224.1719 133.3359 223.9453 Q133.1094 223.7188 133.1094 223.3906 ZM131.8125 215.6406 Q132.4375 215.3594 133 215.2266 Q133.5625 215.0938 134.0469 215.0938 Q135.3438 215.0938 136.1016 215.7188 Q136.8594 216.3438 136.8594 217.4062 Q136.8594 218.5 136.2109 219.1953 Q135.5625 219.8906 134.25 220.1875 L134.25 221.6719 L133.5312 221.6719 L133.5312 219.75 Q134.5625 219.5 135.0938 218.9062 Q135.625 218.3125 135.625 217.4062 Q135.625 216.5938 135.1953 216.1328 Q134.7656 215.6719 134.0312 215.6719 Q133.3594 215.6719 132.9297 216.0547 Q132.5 216.4375 132.3906 217.1562 L131.8125 217.1562 L131.8125 215.6406 Z" style="fill:black; stroke:none;" /><rect height="10" style="stroke:none;" width="6" x="112" y="233" /><path d="M114.1094 242.3906 Q114.1094 242.0625 114.3359 241.8359 Q114.5625 241.6094 114.8906 241.6094 Q115.2188 241.6094 115.4453 241.8359 Q115.6719 242.0625 115.6719 242.3906 Q115.6719 242.7188 115.4453 242.9453 Q115.2188 243.1719 114.8906 243.1719 Q114.5625 243.1719 114.3359 242.9453 Q114.1094 242.7188 114.1094 242.3906 ZM112.8125 234.6406 Q113.4375 234.3594 114 234.2266 Q114.5625 234.0938 115.0469 234.0938 Q116.3438 234.0938 117.1016 234.7188 Q117.8594 235.3438 117.8594 236.4062 Q117.8594 237.5 117.2109 238.1953 Q116.5625 238.8906 115.25 239.1875 L115.25 240.6719 L114.5312 240.6719 L114.5312 238.75 Q115.5625 238.5 116.0938 237.9062 Q116.625 237.3125 116.625 236.4062 Q116.625 235.5938 116.1953 235.1328 Q115.7656 234.6719 115.0312 234.6719 Q114.3594 234.6719 113.9297 235.0547 Q113.5 235.4375 113.3906 236.1562 L112.8125 236.1562 L112.8125 234.6406 Z" style="fill:black; stroke:none;" /></g><g ID="li-1:5,8" style="fill:white; text-rendering:optimizeSpeed; font-family:'Serif'; stroke:white;"><rect height="10" style="stroke:none;" width="6" x="119" y="181" /><path d="M121.1094 190.3906 Q121.1094 190.0625 121.3359 189.8359 Q121.5625 189.6094 121.8906 189.6094 Q122.2188 189.6094 122.4453 189.8359 Q122.6719 190.0625 122.6719 190.3906 Q122.6719 190.7188 122.4453 190.9453 Q122.2188 191.1719 121.8906 191.1719 Q121.5625 191.1719 121.3359 190.9453 Q121.1094 190.7188 121.1094 190.3906 ZM119.8125 182.6406 Q120.4375 182.3594 121 182.2266 Q121.5625 182.0938 122.0469 182.0938 Q123.3438 182.0938 124.1016 182.7188 Q124.8594 183.3438 124.8594 184.4062 Q124.8594 185.5 124.2109 186.1953 Q123.5625 186.8906 122.25 187.1875 L122.25 188.6719 L121.5312 188.6719 L121.5312 186.75 Q122.5625 186.5 123.0938 185.9062 Q123.625 185.3125 123.625 184.4062 Q123.625 183.5938 123.1953 183.1328 Q122.7656 182.6719 122.0312 182.6719 Q121.3594 182.6719 120.9297 183.0547 Q120.5 183.4375 120.3906 184.1562 L119.8125 184.1562 L119.8125 182.6406 Z" style="fill:black; stroke:none;" /><rect height="10" style="stroke:none;" width="6" x="101" y="162" /><path d="M103.1094 171.3906 Q103.1094 171.0625 103.3359 170.8359 Q103.5625 170.6094 103.8906 170.6094 Q104.2188 170.6094 104.4453 170.8359 Q104.6719 171.0625 104.6719 171.3906 Q104.6719 171.7188 104.4453 171.9453 Q104.2188 172.1719 103.8906 172.1719 Q103.5625 172.1719 103.3359 171.9453 Q103.1094 171.7188 103.1094 171.3906 ZM101.8125 163.6406 Q102.4375 163.3594 103 163.2266 Q103.5625 163.0938 104.0469 163.0938 Q105.3438 163.0938 106.1016 163.7188 Q106.8594 164.3438 106.8594 165.4062 Q106.8594 166.5 106.2109 167.1953 Q105.5625 167.8906 104.25 168.1875 L104.25 169.6719 L103.5312 169.6719 L103.5312 167.75 Q104.5625 167.5 105.0938 166.9062 Q105.625 166.3125 105.625 165.4062 Q105.625 164.5938 105.1953 164.1328 Q104.7656 163.6719 104.0312 163.6719 Q103.3594 163.6719 102.9297 164.0547 Q102.5 164.4375 102.3906 165.1562 L101.8125 165.1562 L101.8125 163.6406 Z" style="fill:black; stroke:none;" /></g><g ID="l-1:6,11" style="text-rendering:optimizeSpeed;"><polygon points=" 145 67 93 93" style="fill:none;" /></g><g ID="l-1:6,12" style="text-rendering:optimizeSpeed;"><polygon points=" 145 67 93 41" style="fill:none;" /></g><g ID="r-1:6" style="fill:white; text-rendering:optimizeSpeed; stroke:white;" wurcs_mono_id="9"><circle cx="145" cy="67" r="11" style="clip-path:url(#clipPath9); stroke:none;" /><rect height="22" style="clip-path:url(#clipPath9); fill:rgb(0,166,81); stroke:none;" width="22" x="134" y="56" /><rect height="22" style="clip-path:url(#clipPath9); fill:none; stroke:black;" width="22" x="134" y="56" /><circle cx="145" cy="67" r="11" style="fill:none; stroke:black;" /></g><g ID="r-1:11" style="fill:white; text-rendering:optimizeSpeed; stroke:white;" wurcs_mono_id="11"><rect height="22" style="clip-path:url(#clipPath10); stroke:none;" width="22" x="82" y="82" /><rect height="22" style="clip-path:url(#clipPath10); fill:rgb(0,144,188); stroke:none;" width="22" x="82" y="82" /><rect height="22" style="clip-path:url(#clipPath10); fill:none; stroke:black;" width="22" x="82" y="82" /><rect height="22" style="fill:none; stroke:black;" width="22" x="82" y="82" /></g><g ID="r-1:12" style="fill:white; text-rendering:optimizeSpeed; stroke:white;" wurcs_mono_id="10"><rect height="22" style="clip-path:url(#clipPath11); stroke:none;" width="22" x="82" y="30" /><rect height="22" style="clip-path:url(#clipPath11); fill:rgb(0,144,188); stroke:none;" width="22" x="82" y="30" /><rect height="22" style="clip-path:url(#clipPath11); fill:none; stroke:black;" width="22" x="82" y="30" /><rect height="22" style="fill:none; stroke:black;" width="22" x="82" y="30" /></g><g ID="li-1:6,11" style="fill:white; text-rendering:optimizeSpeed; font-family:'Serif'; stroke:white;"><rect height="10" style="stroke:none;" width="6" x="127" y="78" /><path d="M129.1094 87.3906 Q129.1094 87.0625 129.3359 86.8359 Q129.5625 86.6094 129.8906 86.6094 Q130.2188 86.6094 130.4453 86.8359 Q130.6719 87.0625 130.6719 87.3906 Q130.6719 87.7188 130.4453 87.9453 Q130.2188 88.1719 129.8906 88.1719 Q129.5625 88.1719 129.3359 87.9453 Q129.1094 87.7188 129.1094 87.3906 ZM127.8125 79.6406 Q128.4375 79.3594 129 79.2266 Q129.5625 79.0938 130.0469 79.0938 Q131.3438 79.0938 132.1016 79.7188 Q132.8594 80.3438 132.8594 81.4062 Q132.8594 82.5 132.2109 83.1953 Q131.5625 83.8906 130.25 84.1875 L130.25 85.6719 L129.5312 85.6719 L129.5312 83.75 Q130.5625 83.5 131.0938 82.9062 Q131.625 82.3125 131.625 81.4062 Q131.625 80.5938 131.1953 80.1328 Q130.7656 79.6719 130.0312 79.6719 Q129.3594 79.6719 128.9297 80.0547 Q128.5 80.4375 128.3906 81.1562 L127.8125 81.1562 L127.8125 79.6406 Z" style="fill:black; stroke:none;" /><rect height="10" style="stroke:none;" width="6" x="111" y="86" /><path d="M113.1094 95.3906 Q113.1094 95.0625 113.3359 94.8359 Q113.5625 94.6094 113.8906 94.6094 Q114.2188 94.6094 114.4453 94.8359 Q114.6719 95.0625 114.6719 95.3906 Q114.6719 95.7188 114.4453 95.9453 Q114.2188 96.1719 113.8906 96.1719 Q113.5625 96.1719 113.3359 95.9453 Q113.1094 95.7188 113.1094 95.3906 ZM111.8125 87.6406 Q112.4375 87.3594 113 87.2266 Q113.5625 87.0938 114.0469 87.0938 Q115.3438 87.0938 116.1016 87.7188 Q116.8594 88.3438 116.8594 89.4062 Q116.8594 90.5 116.2109 91.1953 Q115.5625 91.8906 114.25 92.1875 L114.25 93.6719 L113.5312 93.6719 L113.5312 91.75 Q114.5625 91.5 115.0938 90.9062 Q115.625 90.3125 115.625 89.4062 Q115.625 88.5938 115.1953 88.1328 Q114.7656 87.6719 114.0312 87.6719 Q113.3594 87.6719 112.9297 88.0547 Q112.5 88.4375 112.3906 89.1562 L111.8125 89.1562 L111.8125 87.6406 Z" style="fill:black; stroke:none;" /></g><g ID="li-1:6,12" style="fill:white; text-rendering:optimizeSpeed; font-family:'Serif'; stroke:white;"><rect height="10" style="stroke:none;" width="6" x="120" y="60" /><path d="M122.1094 69.3906 Q122.1094 69.0625 122.3359 68.8359 Q122.5625 68.6094 122.8906 68.6094 Q123.2188 68.6094 123.4453 68.8359 Q123.6719 69.0625 123.6719 69.3906 Q123.6719 69.7188 123.4453 69.9453 Q123.2188 70.1719 122.8906 70.1719 Q122.5625 70.1719 122.3359 69.9453 Q122.1094 69.7188 122.1094 69.3906 ZM120.8125 61.6406 Q121.4375 61.3594 122 61.2266 Q122.5625 61.0938 123.0469 61.0938 Q124.3438 61.0938 125.1016 61.7188 Q125.8594 62.3438 125.8594 63.4062 Q125.8594 64.5 125.2109 65.1953 Q124.5625 65.8906 123.25 66.1875 L123.25 67.6719 L122.5312 67.6719 L122.5312 65.75 Q123.5625 65.5 124.0938 64.9062 Q124.625 64.3125 124.625 63.4062 Q124.625 62.5938 124.1953 62.1328 Q123.7656 61.6719 123.0312 61.6719 Q122.3594 61.6719 121.9297 62.0547 Q121.5 62.4375 121.3906 63.1562 L120.8125 63.1562 L120.8125 61.6406 Z" style="fill:black; stroke:none;" /><rect height="10" style="stroke:none;" width="6" x="104" y="52" /><path d="M106.1094 61.3906 Q106.1094 61.0625 106.3359 60.8359 Q106.5625 60.6094 106.8906 60.6094 Q107.2188 60.6094 107.4453 60.8359 Q107.6719 61.0625 107.6719 61.3906 Q107.6719 61.7188 107.4453 61.9453 Q107.2188 62.1719 106.8906 62.1719 Q106.5625 62.1719 106.3359 61.9453 Q106.1094 61.7188 106.1094 61.3906 ZM104.8125 53.6406 Q105.4375 53.3594 106 53.2266 Q106.5625 53.0938 107.0469 53.0938 Q108.3438 53.0938 109.1016 53.7188 Q109.8594 54.3438 109.8594 55.4062 Q109.8594 56.5 109.2109 57.1953 Q108.5625 57.8906 107.25 58.1875 L107.25 59.6719 L106.5312 59.6719 L106.5312 57.75 Q107.5625 57.5 108.0938 56.9062 Q108.625 56.3125 108.625 55.4062 Q108.625 54.5938 108.1953 54.1328 Q107.7656 53.6719 107.0312 53.6719 Q106.3594 53.6719 105.9297 54.0547 Q105.5 54.4375 105.3906 55.1562 L104.8125 55.1562 L104.8125 53.6406 Z" style="fill:black; stroke:none;" /></g><g ID="li-1:4,5" style="fill:white; text-rendering:optimizeSpeed; font-family:'Serif'; stroke:white;"><rect height="10" style="stroke:none;" width="6" x="186" y="149" /><path d="M188.1094 158.3906 Q188.1094 158.0625 188.3359 157.8359 Q188.5625 157.6094 188.8906 157.6094 Q189.2188 157.6094 189.4453 157.8359 Q189.6719 158.0625 189.6719 158.3906 Q189.6719 158.7188 189.4453 158.9453 Q189.2188 159.1719 188.8906 159.1719 Q188.5625 159.1719 188.3359 158.9453 Q188.1094 158.7188 188.1094 158.3906 ZM186.8125 150.6406 Q187.4375 150.3594 188 150.2266 Q188.5625 150.0938 189.0469 150.0938 Q190.3438 150.0938 191.1016 150.7188 Q191.8594 151.3438 191.8594 152.4062 Q191.8594 153.5 191.2109 154.1953 Q190.5625 154.8906 189.25 155.1875 L189.25 156.6719 L188.5312 156.6719 L188.5312 154.75 Q189.5625 154.5 190.0938 153.9062 Q190.625 153.3125 190.625 152.4062 Q190.625 151.5938 190.1953 151.1328 Q189.7656 150.6719 189.0312 150.6719 Q188.3594 150.6719 187.9297 151.0547 Q187.5 151.4375 187.3906 152.1562 L186.8125 152.1562 L186.8125 150.6406 Z" style="fill:black; stroke:none;" /><rect height="10" style="stroke:none;" width="6" x="162" y="179" /><path d="M164.1094 188.3906 Q164.1094 188.0625 164.3359 187.8359 Q164.5625 187.6094 164.8906 187.6094 Q165.2188 187.6094 165.4453 187.8359 Q165.6719 188.0625 165.6719 188.3906 Q165.6719 188.7188 165.4453 188.9453 Q165.2188 189.1719 164.8906 189.1719 Q164.5625 189.1719 164.3359 188.9453 Q164.1094 188.7188 164.1094 188.3906 ZM162.8125 180.6406 Q163.4375 180.3594 164 180.2266 Q164.5625 180.0938 165.0469 180.0938 Q166.3438 180.0938 167.1016 180.7188 Q167.8594 181.3438 167.8594 182.4062 Q167.8594 183.5 167.2109 184.1953 Q166.5625 184.8906 165.25 185.1875 L165.25 186.6719 L164.5312 186.6719 L164.5312 184.75 Q165.5625 184.5 166.0938 183.9062 Q166.625 183.3125 166.625 182.4062 Q166.625 181.5938 166.1953 181.1328 Q165.7656 180.6719 165.0312 180.6719 Q164.3594 180.6719 163.9297 181.0547 Q163.5 181.4375 163.3906 182.1562 L162.8125 182.1562 L162.8125 180.6406 Z" style="fill:black; stroke:none;" /></g><g ID="li-1:4,6" style="fill:white; text-rendering:optimizeSpeed; font-family:'Serif'; stroke:white;"><rect height="10" style="stroke:none;" width="6" x="173" y="114" /><path d="M175.1094 123.3906 Q175.1094 123.0625 175.3359 122.8359 Q175.5625 122.6094 175.8906 122.6094 Q176.2188 122.6094 176.4453 122.8359 Q176.6719 123.0625 176.6719 123.3906 Q176.6719 123.7188 176.4453 123.9453 Q176.2188 124.1719 175.8906 124.1719 Q175.5625 124.1719 175.3359 123.9453 Q175.1094 123.7188 175.1094 123.3906 ZM173.8125 115.6406 Q174.4375 115.3594 175 115.2266 Q175.5625 115.0938 176.0469 115.0938 Q177.3438 115.0938 178.1016 115.7188 Q178.8594 116.3438 178.8594 117.4062 Q178.8594 118.5 178.2109 119.1953 Q177.5625 119.8906 176.25 120.1875 L176.25 121.6719 L175.5312 121.6719 L175.5312 119.75 Q176.5625 119.5 177.0938 118.9062 Q177.625 118.3125 177.625 117.4062 Q177.625 116.5938 177.1953 116.1328 Q176.7656 115.6719 176.0312 115.6719 Q175.3594 115.6719 174.9297 116.0547 Q174.5 116.4375 174.3906 117.1562 L173.8125 117.1562 L173.8125 115.6406 Z" style="fill:black; stroke:none;" /><rect height="10" style="stroke:none;" width="6" x="149" y="84" /><path d="M151.1094 93.3906 Q151.1094 93.0625 151.3359 92.8359 Q151.5625 92.6094 151.8906 92.6094 Q152.2188 92.6094 152.4453 92.8359 Q152.6719 93.0625 152.6719 93.3906 Q152.6719 93.7188 152.4453 93.9453 Q152.2188 94.1719 151.8906 94.1719 Q151.5625 94.1719 151.3359 93.9453 Q151.1094 93.7188 151.1094 93.3906 ZM149.8125 85.6406 Q150.4375 85.3594 151 85.2266 Q151.5625 85.0938 152.0469 85.0938 Q153.3438 85.0938 154.1016 85.7188 Q154.8594 86.3438 154.8594 87.4062 Q154.8594 88.5 154.2109 89.1953 Q153.5625 89.8906 152.25 90.1875 L152.25 91.6719 L151.5312 91.6719 L151.5312 89.75 Q152.5625 89.5 153.0938 88.9062 Q153.625 88.3125 153.625 87.4062 Q153.625 86.5938 153.1953 86.1328 Q152.7656 85.6719 152.0312 85.6719 Q151.3594 85.6719 150.9297 86.0547 Q150.5 86.4375 150.3906 87.1562 L149.8125 87.1562 L149.8125 85.6406 Z" style="fill:black; stroke:none;" /></g><g ID="li-1:2,4" style="fill:white; text-rendering:optimizeSpeed; font-family:'Serif'; stroke:white;"><rect height="10" style="stroke:none;" width="6" x="227" y="135" /><path d="M229.1094 144.3906 Q229.1094 144.0625 229.3359 143.8359 Q229.5625 143.6094 229.8906 143.6094 Q230.2188 143.6094 230.4453 143.8359 Q230.6719 144.0625 230.6719 144.3906 Q230.6719 144.7188 230.4453 144.9453 Q230.2188 145.1719 229.8906 145.1719 Q229.5625 145.1719 229.3359 144.9453 Q229.1094 144.7188 229.1094 144.3906 ZM227.8125 136.6406 Q228.4375 136.3594 229 136.2266 Q229.5625 136.0938 230.0469 136.0938 Q231.3438 136.0938 232.1016 136.7188 Q232.8594 137.3438 232.8594 138.4062 Q232.8594 139.5 232.2109 140.1953 Q231.5625 140.8906 230.25 141.1875 L230.25 142.6719 L229.5312 142.6719 L229.5312 140.75 Q230.5625 140.5 231.0938 139.9062 Q231.625 139.3125 231.625 138.4062 Q231.625 137.5938 231.1953 137.1328 Q230.7656 136.6719 230.0312 136.6719 Q229.3594 136.6719 228.9297 137.0547 Q228.5 137.4375 228.3906 138.1562 L227.8125 138.1562 L227.8125 136.6406 Z" style="fill:black; stroke:none;" /><rect height="10" style="stroke:none;" width="6" x="213" y="135" /><path d="M215.1094 144.3906 Q215.1094 144.0625 215.3359 143.8359 Q215.5625 143.6094 215.8906 143.6094 Q216.2188 143.6094 216.4453 143.8359 Q216.6719 144.0625 216.6719 144.3906 Q216.6719 144.7188 216.4453 144.9453 Q216.2188 145.1719 215.8906 145.1719 Q215.5625 145.1719 215.3359 144.9453 Q215.1094 144.7188 215.1094 144.3906 ZM213.8125 136.6406 Q214.4375 136.3594 215 136.2266 Q215.5625 136.0938 216.0469 136.0938 Q217.3438 136.0938 218.1016 136.7188 Q218.8594 137.3438 218.8594 138.4062 Q218.8594 139.5 218.2109 140.1953 Q217.5625 140.8906 216.25 141.1875 L216.25 142.6719 L215.5312 142.6719 L215.5312 140.75 Q216.5625 140.5 217.0938 139.9062 Q217.625 139.3125 217.625 138.4062 Q217.625 137.5938 217.1953 137.1328 Q216.7656 136.6719 216.0312 136.6719 Q215.3594 136.6719 214.9297 137.0547 Q214.5 137.4375 214.3906 138.1562 L213.8125 138.1562 L213.8125 136.6406 Z" style="fill:black; stroke:none;" /></g><g ID="r-1:3" style="fill:white; text-rendering:optimizeSpeed; stroke:white;" wurcs_mono_id="12"><polygon points=" 301 91 290 69 312 69" style="stroke:none; clip-path:url(#clipPath12);" /><rect height="22" style="clip-path:url(#clipPath12); fill:rgb(237,28,36); stroke:none;" width="22" x="290" y="69" /><rect height="22" style="clip-path:url(#clipPath12); fill:none; stroke:black;" width="22" x="290" y="69" /><polygon points=" 301 91 290 69 312 69" style="fill:none; stroke:black;" /></g><g ID="li-1:1,2" style="fill:white; text-rendering:optimizeSpeed; font-family:'Serif'; stroke:white;"><rect height="10" style="stroke:none;" width="6" x="279" y="135" /><path d="M281.1094 144.3906 Q281.1094 144.0625 281.3359 143.8359 Q281.5625 143.6094 281.8906 143.6094 Q282.2188 143.6094 282.4453 143.8359 Q282.6719 144.0625 282.6719 144.3906 Q282.6719 144.7188 282.4453 144.9453 Q282.2188 145.1719 281.8906 145.1719 Q281.5625 145.1719 281.3359 144.9453 Q281.1094 144.7188 281.1094 144.3906 ZM279.8125 136.6406 Q280.4375 136.3594 281 136.2266 Q281.5625 136.0938 282.0469 136.0938 Q283.3438 136.0938 284.1016 136.7188 Q284.8594 137.3438 284.8594 138.4062 Q284.8594 139.5 284.2109 140.1953 Q283.5625 140.8906 282.25 141.1875 L282.25 142.6719 L281.5312 142.6719 L281.5312 140.75 Q282.5625 140.5 283.0938 139.9062 Q283.625 139.3125 283.625 138.4062 Q283.625 137.5938 283.1953 137.1328 Q282.7656 136.6719 282.0312 136.6719 Q281.3594 136.6719 280.9297 137.0547 Q280.5 137.4375 280.3906 138.1562 L279.8125 138.1562 L279.8125 136.6406 Z" style="fill:black; stroke:none;" /><rect height="10" style="stroke:none;" width="6" x="265" y="135" /><path d="M267.1094 144.3906 Q267.1094 144.0625 267.3359 143.8359 Q267.5625 143.6094 267.8906 143.6094 Q268.2188 143.6094 268.4453 143.8359 Q268.6719 144.0625 268.6719 144.3906 Q268.6719 144.7188 268.4453 144.9453 Q268.2188 145.1719 267.8906 145.1719 Q267.5625 145.1719 267.3359 144.9453 Q267.1094 144.7188 267.1094 144.3906 ZM265.8125 136.6406 Q266.4375 136.3594 267 136.2266 Q267.5625 136.0938 268.0469 136.0938 Q269.3438 136.0938 270.1016 136.7188 Q270.8594 137.3438 270.8594 138.4062 Q270.8594 139.5 270.2109 140.1953 Q269.5625 140.8906 268.25 141.1875 L268.25 142.6719 L267.5312 142.6719 L267.5312 140.75 Q268.5625 140.5 269.0938 139.9062 Q269.625 139.3125 269.625 138.4062 Q269.625 137.5938 269.1953 137.1328 Q268.7656 136.6719 268.0312 136.6719 Q267.3594 136.6719 266.9297 137.0547 Q266.5 137.4375 266.3906 138.1562 L265.8125 138.1562 L265.8125 136.6406 Z" style="fill:black; stroke:none;" /></g><g ID="li-1:1,3" style="fill:white; text-rendering:optimizeSpeed; font-family:'Serif'; stroke:white;"><rect height="10" style="stroke:none;" width="6" x="290" y="108" /><path d="M292.1094 117.3906 Q292.1094 117.0625 292.3359 116.8359 Q292.5625 116.6094 292.8906 116.6094 Q293.2188 116.6094 293.4453 116.8359 Q293.6719 117.0625 293.6719 117.3906 Q293.6719 117.7188 293.4453 117.9453 Q293.2188 118.1719 292.8906 118.1719 Q292.5625 118.1719 292.3359 117.9453 Q292.1094 117.7188 292.1094 117.3906 ZM290.8125 109.6406 Q291.4375 109.3594 292 109.2266 Q292.5625 109.0938 293.0469 109.0938 Q294.3438 109.0938 295.1016 109.7188 Q295.8594 110.3438 295.8594 111.4062 Q295.8594 112.5 295.2109 113.1953 Q294.5625 113.8906 293.25 114.1875 L293.25 115.6719 L292.5312 115.6719 L292.5312 113.75 Q293.5625 113.5 294.0938 112.9062 Q294.625 112.3125 294.625 111.4062 Q294.625 110.5938 294.1953 110.1328 Q293.7656 109.6719 293.0312 109.6719 Q292.3594 109.6719 291.9297 110.0547 Q291.5 110.4375 291.3906 111.1562 L290.8125 111.1562 L290.8125 109.6406 Z" style="fill:black; stroke:none;" /><rect height="10" style="stroke:none;" width="6" x="290" y="94" /><path d="M292.1094 103.3906 Q292.1094 103.0625 292.3359 102.8359 Q292.5625 102.6094 292.8906 102.6094 Q293.2188 102.6094 293.4453 102.8359 Q293.6719 103.0625 293.6719 103.3906 Q293.6719 103.7188 293.4453 103.9453 Q293.2188 104.1719 292.8906 104.1719 Q292.5625 104.1719 292.3359 103.9453 Q292.1094 103.7188 292.1094 103.3906 ZM290.8125 95.6406 Q291.4375 95.3594 292 95.2266 Q292.5625 95.0938 293.0469 95.0938 Q294.3438 95.0938 295.1016 95.7188 Q295.8594 96.3438 295.8594 97.4062 Q295.8594 98.5 295.2109 99.1953 Q294.5625 99.8906 293.25 100.1875 L293.25 101.6719 L292.5312 101.6719 L292.5312 99.75 Q293.5625 99.5 294.0938 98.9062 Q294.625 98.3125 294.625 97.4062 Q294.625 96.5938 294.1953 96.1328 Q293.7656 95.6719 293.0312 95.6719 Q292.3594 95.6719 291.9297 96.0547 Q291.5 96.4375 291.3906 97.1562 L290.8125 97.1562 L290.8125 95.6406 Z" style="fill:black; stroke:none;" /></g></g></svg>