<svg xmlns="http://www.w3.org/2000/svg" style="fill-opacity:1; color-rendering:auto; color-interpolation:auto; text-rendering:auto; stroke:black; stroke-linecap:square; stroke-miterlimit:10; shape-rendering:auto; stroke-opacity:1; fill:black; stroke-dasharray:none; font-weight:normal; stroke-width:1; font-family:'Dialog'; font-style:normal; stroke-linejoin:miter; font-size:12px; stroke-dashoffset:0; image-rendering:auto;"><defs id="genericDefs" /><g><defs id="defs1"><clipPath clipPathUnits="userSpaceOnUse" id="clipPath1"><path d="M186 82 L208 82 L208 104 L186 104 L186 82 Z" /></clipPath><clipPath clipPathUnits="userSpaceOnUse" id="clipPath2"><path d="M156 145 C156 151.0751 151.0751 156 145 156 C138.9249 156 134 151.0751 134 145 C134 138.9249 138.9249 134 145 134 C151.0751 134 156 138.9249 156 145 Z" /></clipPath><clipPath clipPathUnits="userSpaceOnUse" id="clipPath3"><path d="M82 160 L104 160 L104 182 L82 182 L82 160 Z" /></clipPath><clipPath clipPathUnits="userSpaceOnUse" id="clipPath4"><path d="M52 171 C52 177.0751 47.0751 182 41 182 C34.9249 182 30 177.0751 30 171 C30 164.9249 34.9249 160 41 160 C47.0751 160 52 164.9249 52 171 Z" /></clipPath><clipPath clipPathUnits="userSpaceOnUse" id="clipPath5"><path d="M82 108 L104 108 L104 130 L82 130 L82 108 Z" /></clipPath><clipPath clipPathUnits="userSpaceOnUse" id="clipPath6"><path d="M52 119 C52 125.0751 47.0751 130 41 130 C34.9249 130 30 125.0751 30 119 C30 112.9249 34.9249 108 41 108 C47.0751 108 52 112.9249 52 119 Z" /></clipPath><clipPath clipPathUnits="userSpaceOnUse" id="clipPath7"><path d="M134 30 L156 30 L156 52 L134 52 L134 30 Z" /></clipPath><clipPath clipPathUnits="userSpaceOnUse" id="clipPath8"><path d="M145 82 L156 104 L134 104 Z" style="fill-rule:evenodd;" /></clipPath><clipPath clipPathUnits="userSpaceOnUse" id="clipPath9"><path d="M104 41 C104 47.0751 99.0751 52 93 52 C86.9249 52 82 47.0751 82 41 C82 34.9249 86.9249 30 93 30 C99.0751 30 104 34.9249 104 41 Z" /></clipPath></defs><g style="fill:white; text-rendering:optimizeSpeed; stroke:white;"><rect height="212" style="stroke:none;" width="238" x="0" y="0" /></g><g ID="l-1:1,2" style="text-rendering:optimizeSpeed;"><polygon points=" 197 93 145 145" style="fill:none;" /></g><g ID="l-1:1,3" style="text-rendering:optimizeSpeed;"><polygon points=" 197 93 145 41" style="fill:none;" /></g><g ID="r-1:1" style="fill:white; text-rendering:optimizeSpeed; stroke:white;" wurcs_mono_id="1"><rect height="22" style="clip-path:url(#clipPath1); stroke:none;" width="22" x="186" y="82" /><rect height="22" style="clip-path:url(#clipPath1); fill:rgb(255,212,0); stroke:none;" width="22" x="186" y="82" /><rect height="22" style="clip-path:url(#clipPath1); fill:none; stroke:black;" width="22" x="186" y="82" /><rect height="22" style="fill:none; stroke:black;" width="22" x="186" y="82" /></g><g style="font-style:italic; text-rendering:optimizeSpeed; font-size:10px; font-family:'SansSerif';"><path d="M198.0938 90.1562 Q197.375 90.1562 196.8359 90.7188 Q196.2969 91.2812 196.0781 92.2656 Q195.875 93.25 196.1719 93.8125 Q196.4688 94.375 197.2031 94.375 Q197.9219 94.375 198.4609 93.8125 Q199 93.25 199.2031 92.2656 Q199.4062 91.2969 199.1094 90.7266 Q198.8125 90.1562 198.0938 90.1562 ZM198.25 89.4062 Q199.4219 89.4062 199.9297 90.1641 Q200.4375 90.9219 200.1562 92.2656 Q199.875 93.6094 199.0391 94.375 Q198.2031 95.1406 197.0312 95.1406 Q195.8594 95.1406 195.3516 94.375 Q194.8438 93.6094 195.125 92.2656 Q195.4062 90.9219 196.2422 90.1641 Q197.0781 89.4062 198.25 89.4062 Z" style="stroke:none;" /></g><g ID="l-1:2,4" style="text-rendering:optimizeSpeed;"><polygon points=" 145 145 93 171" style="fill:none;" /></g><g ID="l-1:2,5" style="text-rendering:optimizeSpeed;"><polygon points=" 145 145 93 119" style="fill:none;" /></g><g ID="r-1:2" style="fill:white; text-rendering:optimizeSpeed; stroke:white;" wurcs_mono_id="2"><circle cx="145" cy="145" r="11" style="clip-path:url(#clipPath2); stroke:none;" /><rect height="22" style="clip-path:url(#clipPath2); fill:rgb(255,212,0); stroke:none;" width="22" x="134" y="134" /><rect height="22" style="clip-path:url(#clipPath2); fill:none; stroke:black;" width="22" x="134" y="134" /><circle cx="145" cy="145" r="11" style="fill:none; stroke:black;" /></g><g ID="l-1:4,6" style="text-rendering:optimizeSpeed;"><polygon points=" 93 171 41 171" style="fill:none;" /></g><g ID="r-1:4" style="fill:white; text-rendering:optimizeSpeed; stroke:white;" wurcs_mono_id="3"><rect height="22" style="clip-path:url(#clipPath3); stroke:none;" width="22" x="82" y="160" /><rect height="22" style="clip-path:url(#clipPath3); fill:rgb(0,144,188); stroke:none;" width="22" x="82" y="160" /><rect height="22" style="clip-path:url(#clipPath3); fill:none; stroke:black;" width="22" x="82" y="160" /><rect height="22" style="fill:none; stroke:black;" width="22" x="82" y="160" /></g><g ID="r-1:6" style="fill:white; text-rendering:optimizeSpeed; stroke:white;" wurcs_mono_id="4"><circle cx="41" cy="171" r="11" style="clip-path:url(#clipPath4); stroke:none;" /><rect height="22" style="clip-path:url(#clipPath4); fill:rgb(255,212,0); stroke:none;" width="22" x="30" y="160" /><rect height="22" style="clip-path:url(#clipPath4); fill:none; stroke:black;" width="22" x="30" y="160" /><circle cx="41" cy="171" r="11" style="fill:none; stroke:black;" /></g><g ID="li-1:4,6" style="fill:white; text-rendering:optimizeSpeed; font-family:'Serif'; stroke:white;"><rect height="9" style="stroke:none;" width="8" x="70" y="174" /><path d="M74.1875 180.0312 L74.1875 175.375 L71.2031 180.0312 L74.1875 180.0312 ZM76.7656 183 L72.7812 183 L72.7812 182.375 L74.1875 182.375 L74.1875 180.6562 L70.375 180.6562 L70.375 180.0156 L74.2031 174.0938 L75.3594 174.0938 L75.3594 180.0312 L77.0312 180.0312 L77.0312 180.6562 L75.3594 180.6562 L75.3594 182.375 L76.7656 182.375 L76.7656 183 Z" style="fill:black; stroke:none;" /><rect height="13" style="stroke:none;" width="7" x="56" y="172" /><path d="M57.8281 184.25 Q58.2969 184.5938 59.1719 184.5938 Q60.0625 184.5938 60.5781 184.0703 Q61.0938 183.5469 61.0938 182.6562 Q61.0938 181.4219 60.5625 180.8906 Q60.0156 180.3594 59 180.3594 L58.4375 180.3594 L58.4375 179.7188 L58.7344 179.7188 Q59.4844 179.7188 60 179.2969 Q60.4219 178.9531 60.4219 178.0156 Q60.4219 177.6094 60.1406 177.1406 Q59.6875 176.375 59.1562 176.3906 Q57.8281 176.4375 57.8281 178.7812 L57.8281 184.25 ZM56.75 187.5 L56.75 178.7812 Q56.75 176.3281 58.0781 176 Q58.7656 175.8125 59.25 175.8125 Q60.3438 175.8125 61.0469 176.6719 Q61.6094 177.3594 61.6094 177.9375 Q61.6094 178.7812 61.2031 179.2656 Q60.7969 179.75 60.0625 179.9844 Q61.1406 180.1406 61.75 180.7812 Q62.3281 181.4062 62.3281 182.6328 Q62.3281 183.8594 61.5078 184.5156 Q60.6875 185.1719 59.1406 185.1719 Q58.1875 185.1719 57.8281 185.0312 L57.8281 187.5 L56.75 187.5 Z" style="fill:black; stroke:none;" /></g><g ID="l-1:5,7" style="text-rendering:optimizeSpeed;"><polygon points=" 93 119 41 119" style="fill:none;" /></g><g ID="r-1:5" style="fill:white; text-rendering:optimizeSpeed; stroke:white;" wurcs_mono_id="5"><rect height="22" style="clip-path:url(#clipPath5); stroke:none;" width="22" x="82" y="108" /><rect height="22" style="clip-path:url(#clipPath5); fill:rgb(0,144,188); stroke:none;" width="22" x="82" y="108" /><rect height="22" style="clip-path:url(#clipPath5); fill:none; stroke:black;" width="22" x="82" y="108" /><rect height="22" style="fill:none; stroke:black;" width="22" x="82" y="108" /></g><g ID="r-1:7" style="fill:white; text-rendering:optimizeSpeed; stroke:white;" wurcs_mono_id="6"><circle cx="41" cy="119" r="11" style="clip-path:url(#clipPath6); stroke:none;" /><rect height="22" style="clip-path:url(#clipPath6); fill:rgb(255,212,0); stroke:none;" width="22" x="30" y="108" /><rect height="22" style="clip-path:url(#clipPath6); fill:none; stroke:black;" width="22" x="30" y="108" /><circle cx="41" cy="119" r="11" style="fill:none; stroke:black;" /></g><g ID="li-1:5,7" style="fill:white; text-rendering:optimizeSpeed; font-family:'Serif'; stroke:white;"><rect height="9" style="stroke:none;" width="8" x="70" y="122" /><path d="M74.1875 128.0312 L74.1875 123.375 L71.2031 128.0312 L74.1875 128.0312 ZM76.7656 131 L72.7812 131 L72.7812 130.375 L74.1875 130.375 L74.1875 128.6562 L70.375 128.6562 L70.375 128.0156 L74.2031 122.0938 L75.3594 122.0938 L75.3594 128.0312 L77.0312 128.0312 L77.0312 128.6562 L75.3594 128.6562 L75.3594 130.375 L76.7656 130.375 L76.7656 131 Z" style="fill:black; stroke:none;" /><rect height="13" style="stroke:none;" width="7" x="56" y="120" /><path d="M57.8281 132.25 Q58.2969 132.5938 59.1719 132.5938 Q60.0625 132.5938 60.5781 132.0703 Q61.0938 131.5469 61.0938 130.6562 Q61.0938 129.4219 60.5625 128.8906 Q60.0156 128.3594 59 128.3594 L58.4375 128.3594 L58.4375 127.7188 L58.7344 127.7188 Q59.4844 127.7188 60 127.2969 Q60.4219 126.9531 60.4219 126.0156 Q60.4219 125.6094 60.1406 125.1406 Q59.6875 124.375 59.1562 124.3906 Q57.8281 124.4375 57.8281 126.7812 L57.8281 132.25 ZM56.75 135.5 L56.75 126.7812 Q56.75 124.3281 58.0781 124 Q58.7656 123.8125 59.25 123.8125 Q60.3438 123.8125 61.0469 124.6719 Q61.6094 125.3594 61.6094 125.9375 Q61.6094 126.7812 61.2031 127.2656 Q60.7969 127.75 60.0625 127.9844 Q61.1406 128.1406 61.75 128.7812 Q62.3281 129.4062 62.3281 130.6328 Q62.3281 131.8594 61.5078 132.5156 Q60.6875 133.1719 59.1406 133.1719 Q58.1875 133.1719 57.8281 133.0312 L57.8281 135.5 L56.75 135.5 Z" style="fill:black; stroke:none;" /></g><g ID="li-1:2,4" style="fill:white; text-rendering:optimizeSpeed; font-family:'Serif'; stroke:white;"><rect height="10" style="stroke:none;" width="7" x="126" y="156" /><path d="M127.1719 157.625 Q127.8594 157.3594 128.4844 157.2266 Q129.1094 157.0938 129.6562 157.0938 Q130.9531 157.0938 131.6719 157.6484 Q132.3906 158.2031 132.3906 159.1875 Q132.3906 159.9688 131.8906 160.5 Q131.3906 161.0312 130.4844 161.2188 Q131.5625 161.375 132.1562 162.0078 Q132.75 162.6406 132.75 163.6406 Q132.75 164.8594 131.9219 165.5156 Q131.0938 166.1719 129.5469 166.1719 Q128.8594 166.1719 128.2109 166.0234 Q127.5625 165.875 126.9219 165.5781 L126.9219 163.875 L127.5781 163.875 Q127.625 164.7188 128.1406 165.1562 Q128.6562 165.5938 129.5781 165.5938 Q130.4688 165.5938 130.9922 165.0703 Q131.5156 164.5469 131.5156 163.6562 Q131.5156 162.625 130.9766 162.0938 Q130.4375 161.5625 129.4062 161.5625 L128.8594 161.5625 L128.8594 160.9531 L129.1406 160.9531 Q130.1719 160.9531 130.6875 160.5312 Q131.2031 160.1094 131.2031 159.25 Q131.2031 158.4844 130.7812 158.0781 Q130.3594 157.6719 129.5625 157.6719 Q128.7656 157.6719 128.3359 158.0469 Q127.9062 158.4219 127.8281 159.1562 L127.1719 159.1562 L127.1719 157.625 Z" style="fill:black; stroke:none;" /><rect height="13" style="stroke:none;" width="7" x="111" y="162" /><path d="M112.8281 174.25 Q113.2969 174.5938 114.1719 174.5938 Q115.0625 174.5938 115.5781 174.0703 Q116.0938 173.5469 116.0938 172.6562 Q116.0938 171.4219 115.5625 170.8906 Q115.0156 170.3594 114 170.3594 L113.4375 170.3594 L113.4375 169.7188 L113.7344 169.7188 Q114.4844 169.7188 115 169.2969 Q115.4219 168.9531 115.4219 168.0156 Q115.4219 167.6094 115.1406 167.1406 Q114.6875 166.375 114.1562 166.3906 Q112.8281 166.4375 112.8281 168.7812 L112.8281 174.25 ZM111.75 177.5 L111.75 168.7812 Q111.75 166.3281 113.0781 166 Q113.7656 165.8125 114.25 165.8125 Q115.3438 165.8125 116.0469 166.6719 Q116.6094 167.3594 116.6094 167.9375 Q116.6094 168.7812 116.2031 169.2656 Q115.7969 169.75 115.0625 169.9844 Q116.1406 170.1406 116.75 170.7812 Q117.3281 171.4062 117.3281 172.6328 Q117.3281 173.8594 116.5078 174.5156 Q115.6875 175.1719 114.1406 175.1719 Q113.1875 175.1719 112.8281 175.0312 L112.8281 177.5 L111.75 177.5 Z" style="fill:black; stroke:none;" /></g><g ID="li-1:2,5" style="fill:white; text-rendering:optimizeSpeed; font-family:'Serif'; stroke:white;"><rect height="10" style="stroke:none;" width="7" x="119" y="138" /><path d="M122.9219 147.5938 Q123.75 147.5938 124.1953 146.9844 Q124.6406 146.375 124.6406 145.2344 Q124.6406 144.1094 124.1953 143.5 Q123.75 142.8906 122.9219 142.8906 Q122.0938 142.8906 121.6484 143.4766 Q121.2031 144.0625 121.2031 145.1719 Q121.2031 146.3281 121.6484 146.9609 Q122.0938 147.5938 122.9219 147.5938 ZM121.0156 143.1875 Q121.4219 142.75 121.9219 142.5312 Q122.4219 142.3125 123.0625 142.3125 Q124.3594 142.3125 125.1172 143.0938 Q125.875 143.875 125.875 145.2344 Q125.875 146.5625 125.0625 147.3672 Q124.25 148.1719 122.875 148.1719 Q121.3906 148.1719 120.5938 147.0625 Q119.7969 145.9531 119.7969 143.9062 Q119.7969 141.6094 120.7422 140.3516 Q121.6875 139.0938 123.4062 139.0938 Q123.875 139.0938 124.3828 139.1797 Q124.8906 139.2656 125.4219 139.4375 L125.4219 140.8906 L124.7656 140.8906 Q124.6875 140.2969 124.3047 139.9844 Q123.9219 139.6719 123.2812 139.6719 Q122.1406 139.6719 121.5859 140.5312 Q121.0312 141.3906 121.0156 143.1875 Z" style="fill:black; stroke:none;" /><rect height="13" style="stroke:none;" width="7" x="104" y="128" /><path d="M105.8281 140.25 Q106.2969 140.5938 107.1719 140.5938 Q108.0625 140.5938 108.5781 140.0703 Q109.0938 139.5469 109.0938 138.6562 Q109.0938 137.4219 108.5625 136.8906 Q108.0156 136.3594 107 136.3594 L106.4375 136.3594 L106.4375 135.7188 L106.7344 135.7188 Q107.4844 135.7188 108 135.2969 Q108.4219 134.9531 108.4219 134.0156 Q108.4219 133.6094 108.1406 133.1406 Q107.6875 132.375 107.1562 132.3906 Q105.8281 132.4375 105.8281 134.7812 L105.8281 140.25 ZM104.75 143.5 L104.75 134.7812 Q104.75 132.3281 106.0781 132 Q106.7656 131.8125 107.25 131.8125 Q108.3438 131.8125 109.0469 132.6719 Q109.6094 133.3594 109.6094 133.9375 Q109.6094 134.7812 109.2031 135.2656 Q108.7969 135.75 108.0625 135.9844 Q109.1406 136.1406 109.75 136.7812 Q110.3281 137.4062 110.3281 138.6328 Q110.3281 139.8594 109.5078 140.5156 Q108.6875 141.1719 107.1406 141.1719 Q106.1875 141.1719 105.8281 141.0312 L105.8281 143.5 L104.75 143.5 Z" style="fill:black; stroke:none;" /></g><g ID="l-1:3,8" style="text-rendering:optimizeSpeed;"><polygon points=" 145 41 145 93" style="fill:none;" /></g><g ID="l-1:3,9" style="text-rendering:optimizeSpeed;"><polygon points=" 145 41 93 41" style="fill:none;" /></g><g ID="r-1:3" style="fill:white; text-rendering:optimizeSpeed; stroke:white;" wurcs_mono_id="7"><rect height="22" style="clip-path:url(#clipPath7); stroke:none;" width="22" x="134" y="30" /><rect height="22" style="clip-path:url(#clipPath7); fill:rgb(0,144,188); stroke:none;" width="22" x="134" y="30" /><rect height="22" style="clip-path:url(#clipPath7); fill:none; stroke:black;" width="22" x="134" y="30" /><rect height="22" style="fill:none; stroke:black;" width="22" x="134" y="30" /></g><g ID="r-1:8" style="fill:white; text-rendering:optimizeSpeed; stroke:white;" wurcs_mono_id="8"><polygon points=" 145 82 156 104 134 104" style="stroke:none; clip-path:url(#clipPath8);" /><rect height="22" style="clip-path:url(#clipPath8); fill:rgb(237,28,36); stroke:none;" width="22" x="134" y="82" /><rect height="22" style="clip-path:url(#clipPath8); fill:none; stroke:black;" width="22" x="134" y="82" /><polygon points=" 145 82 156 104 134 104" style="fill:none; stroke:black;" /></g><g ID="r-1:9" style="fill:white; text-rendering:optimizeSpeed; stroke:white;" wurcs_mono_id="9"><circle cx="93" cy="41" r="11" style="clip-path:url(#clipPath9); stroke:none;" /><rect height="22" style="clip-path:url(#clipPath9); fill:rgb(255,212,0); stroke:none;" width="22" x="82" y="30" /><rect height="22" style="clip-path:url(#clipPath9); fill:none; stroke:black;" width="22" x="82" y="30" /><circle cx="93" cy="41" r="11" style="fill:none; stroke:black;" /></g><g ID="li-1:3,8" style="fill:white; text-rendering:optimizeSpeed; font-family:'Serif'; stroke:white;"><rect height="10" style="stroke:none;" width="7" x="149" y="55" /><path d="M150.1719 56.625 Q150.8594 56.3594 151.4844 56.2266 Q152.1094 56.0938 152.6562 56.0938 Q153.9531 56.0938 154.6719 56.6484 Q155.3906 57.2031 155.3906 58.1875 Q155.3906 58.9688 154.8906 59.5 Q154.3906 60.0312 153.4844 60.2188 Q154.5625 60.375 155.1562 61.0078 Q155.75 61.6406 155.75 62.6406 Q155.75 63.8594 154.9219 64.5156 Q154.0938 65.1719 152.5469 65.1719 Q151.8594 65.1719 151.2109 65.0234 Q150.5625 64.875 149.9219 64.5781 L149.9219 62.875 L150.5781 62.875 Q150.625 63.7188 151.1406 64.1562 Q151.6562 64.5938 152.5781 64.5938 Q153.4688 64.5938 153.9922 64.0703 Q154.5156 63.5469 154.5156 62.6562 Q154.5156 61.625 153.9766 61.0938 Q153.4375 60.5625 152.4062 60.5625 L151.8594 60.5625 L151.8594 59.9531 L152.1406 59.9531 Q153.1719 59.9531 153.6875 59.5312 Q154.2031 59.1094 154.2031 58.25 Q154.2031 57.4844 153.7812 57.0781 Q153.3594 56.6719 152.5625 56.6719 Q151.7656 56.6719 151.3359 57.0469 Q150.9062 57.4219 150.8281 58.1562 L150.1719 58.1562 L150.1719 56.625 Z" style="fill:black; stroke:none;" /><rect height="8" style="stroke:none;" width="8" x="149" y="70" /><path d="M154.1875 76.4688 L153.9531 77.1094 Q153.7656 77.625 153.2031 77.9375 Q152.8438 78.1562 152.2031 78.1406 Q151.0469 78.1406 150.3281 77.2344 Q149.5938 76.3281 149.5938 74.8594 Q149.5938 73.4219 150.3281 72.4844 Q151.0156 71.5938 152.4531 71.6094 Q153.4531 71.6094 153.9531 72 Q154.4062 72.3438 154.5781 73.0938 L154.625 73.3125 L154.8438 72.6719 Q155.0625 72.0469 155.6562 71.75 L156.25 71.75 L156.25 72.0938 Q155.6875 72.2656 155.5 72.8125 L154.8906 74.4844 L155.2969 76.2812 Q155.5 77.2031 155.7344 77.2969 Q156.0469 77.4375 156.7812 77 L156.7812 77.7188 Q155.5938 78.4062 154.75 77.6875 Q154.375 77.3594 154.2656 76.875 L154.1875 76.4688 ZM153.9219 75.3125 L153.5625 73.5938 Q153.2656 72.2188 152.4688 72.2188 Q151.7969 72.2031 151.2812 72.9375 Q150.8594 73.5156 150.8594 74.875 Q150.8594 76.1719 151.2812 76.8281 Q151.75 77.5469 152.5312 77.5 Q153.2031 77.4375 153.6875 76 L153.9219 75.3125 Z" style="fill:black; stroke:none;" /></g><g ID="li-1:3,9" style="fill:white; text-rendering:optimizeSpeed; font-family:'Serif'; stroke:white;"><rect height="9" style="stroke:none;" width="8" x="122" y="44" /><path d="M126.1875 50.0312 L126.1875 45.375 L123.2031 50.0312 L126.1875 50.0312 ZM128.7656 53 L124.7812 53 L124.7812 52.375 L126.1875 52.375 L126.1875 50.6562 L122.375 50.6562 L122.375 50.0156 L126.2031 44.0938 L127.3594 44.0938 L127.3594 50.0312 L129.0312 50.0312 L129.0312 50.6562 L127.3594 50.6562 L127.3594 52.375 L128.7656 52.375 L128.7656 53 Z" style="fill:black; stroke:none;" /><rect height="13" style="stroke:none;" width="7" x="108" y="42" /><path d="M109.8281 54.25 Q110.2969 54.5938 111.1719 54.5938 Q112.0625 54.5938 112.5781 54.0703 Q113.0938 53.5469 113.0938 52.6562 Q113.0938 51.4219 112.5625 50.8906 Q112.0156 50.3594 111 50.3594 L110.4375 50.3594 L110.4375 49.7188 L110.7344 49.7188 Q111.4844 49.7188 112 49.2969 Q112.4219 48.9531 112.4219 48.0156 Q112.4219 47.6094 112.1406 47.1406 Q111.6875 46.375 111.1562 46.3906 Q109.8281 46.4375 109.8281 48.7812 L109.8281 54.25 ZM108.75 57.5 L108.75 48.7812 Q108.75 46.3281 110.0781 46 Q110.7656 45.8125 111.25 45.8125 Q112.3438 45.8125 113.0469 46.6719 Q113.6094 47.3594 113.6094 47.9375 Q113.6094 48.7812 113.2031 49.2656 Q112.7969 49.75 112.0625 49.9844 Q113.1406 50.1406 113.75 50.7812 Q114.3281 51.4062 114.3281 52.6328 Q114.3281 53.8594 113.5078 54.5156 Q112.6875 55.1719 111.1406 55.1719 Q110.1875 55.1719 109.8281 55.0312 L109.8281 57.5 L108.75 57.5 Z" style="fill:black; stroke:none;" /></g><g ID="li-1:1,2" style="fill:white; text-rendering:optimizeSpeed; font-family:'Serif'; stroke:white;"><rect height="10" style="stroke:none;" width="7" x="182" y="110" /><path d="M183.1719 111.625 Q183.8594 111.3594 184.4844 111.2266 Q185.1094 111.0938 185.6562 111.0938 Q186.9531 111.0938 187.6719 111.6484 Q188.3906 112.2031 188.3906 113.1875 Q188.3906 113.9688 187.8906 114.5 Q187.3906 115.0312 186.4844 115.2188 Q187.5625 115.375 188.1562 116.0078 Q188.75 116.6406 188.75 117.6406 Q188.75 118.8594 187.9219 119.5156 Q187.0938 120.1719 185.5469 120.1719 Q184.8594 120.1719 184.2109 120.0234 Q183.5625 119.875 182.9219 119.5781 L182.9219 117.875 L183.5781 117.875 Q183.625 118.7188 184.1406 119.1562 Q184.6562 119.5938 185.5781 119.5938 Q186.4688 119.5938 186.9922 119.0703 Q187.5156 118.5469 187.5156 117.6562 Q187.5156 116.625 186.9766 116.0938 Q186.4375 115.5625 185.4062 115.5625 L184.8594 115.5625 L184.8594 114.9531 L185.1406 114.9531 Q186.1719 114.9531 186.6875 114.5312 Q187.2031 114.1094 187.2031 113.25 Q187.2031 112.4844 186.7812 112.0781 Q186.3594 111.6719 185.5625 111.6719 Q184.7656 111.6719 184.3359 112.0469 Q183.9062 112.4219 183.8281 113.1562 L183.1719 113.1562 L183.1719 111.625 Z" style="fill:black; stroke:none;" /><rect height="13" style="stroke:none;" width="7" x="163" y="127" /><path d="M164.8281 139.25 Q165.2969 139.5938 166.1719 139.5938 Q167.0625 139.5938 167.5781 139.0703 Q168.0938 138.5469 168.0938 137.6562 Q168.0938 136.4219 167.5625 135.8906 Q167.0156 135.3594 166 135.3594 L165.4375 135.3594 L165.4375 134.7188 L165.7344 134.7188 Q166.4844 134.7188 167 134.2969 Q167.4219 133.9531 167.4219 133.0156 Q167.4219 132.6094 167.1406 132.1406 Q166.6875 131.375 166.1562 131.3906 Q164.8281 131.4375 164.8281 133.7812 L164.8281 139.25 ZM163.75 142.5 L163.75 133.7812 Q163.75 131.3281 165.0781 131 Q165.7656 130.8125 166.25 130.8125 Q167.3438 130.8125 168.0469 131.6719 Q168.6094 132.3594 168.6094 132.9375 Q168.6094 133.7812 168.2031 134.2656 Q167.7969 134.75 167.0625 134.9844 Q168.1406 135.1406 168.75 135.7812 Q169.3281 136.4062 169.3281 137.6328 Q169.3281 138.8594 168.5078 139.5156 Q167.6875 140.1719 166.1406 140.1719 Q165.1875 140.1719 164.8281 140.0312 L164.8281 142.5 L163.75 142.5 Z" style="fill:black; stroke:none;" /></g><g ID="li-1:1,3" style="fill:white; text-rendering:optimizeSpeed; font-family:'Serif'; stroke:white;"><rect height="10" style="stroke:none;" width="7" x="171" y="77" /><path d="M174.9219 86.5938 Q175.75 86.5938 176.1953 85.9844 Q176.6406 85.375 176.6406 84.2344 Q176.6406 83.1094 176.1953 82.5 Q175.75 81.8906 174.9219 81.8906 Q174.0938 81.8906 173.6484 82.4766 Q173.2031 83.0625 173.2031 84.1719 Q173.2031 85.3281 173.6484 85.9609 Q174.0938 86.5938 174.9219 86.5938 ZM173.0156 82.1875 Q173.4219 81.75 173.9219 81.5312 Q174.4219 81.3125 175.0625 81.3125 Q176.3594 81.3125 177.1172 82.0938 Q177.875 82.875 177.875 84.2344 Q177.875 85.5625 177.0625 86.3672 Q176.25 87.1719 174.875 87.1719 Q173.3906 87.1719 172.5938 86.0625 Q171.7969 84.9531 171.7969 82.9062 Q171.7969 80.6094 172.7422 79.3516 Q173.6875 78.0938 175.4062 78.0938 Q175.875 78.0938 176.3828 78.1797 Q176.8906 78.2656 177.4219 78.4375 L177.4219 79.8906 L176.7656 79.8906 Q176.6875 79.2969 176.3047 78.9844 Q175.9219 78.6719 175.2812 78.6719 Q174.1406 78.6719 173.5859 79.5312 Q173.0312 80.3906 173.0156 82.1875 Z" style="fill:black; stroke:none;" /><rect height="13" style="stroke:none;" width="7" x="152" y="56" /><path d="M153.8281 68.25 Q154.2969 68.5938 155.1719 68.5938 Q156.0625 68.5938 156.5781 68.0703 Q157.0938 67.5469 157.0938 66.6562 Q157.0938 65.4219 156.5625 64.8906 Q156.0156 64.3594 155 64.3594 L154.4375 64.3594 L154.4375 63.7188 L154.7344 63.7188 Q155.4844 63.7188 156 63.2969 Q156.4219 62.9531 156.4219 62.0156 Q156.4219 61.6094 156.1406 61.1406 Q155.6875 60.375 155.1562 60.3906 Q153.8281 60.4375 153.8281 62.7812 L153.8281 68.25 ZM152.75 71.5 L152.75 62.7812 Q152.75 60.3281 154.0781 60 Q154.7656 59.8125 155.25 59.8125 Q156.3438 59.8125 157.0469 60.6719 Q157.6094 61.3594 157.6094 61.9375 Q157.6094 62.7812 157.2031 63.2656 Q156.7969 63.75 156.0625 63.9844 Q157.1406 64.1406 157.75 64.7812 Q158.3281 65.4062 158.3281 66.6328 Q158.3281 67.8594 157.5078 68.5156 Q156.6875 69.1719 155.1406 69.1719 Q154.1875 69.1719 153.8281 69.0312 L153.8281 71.5 L152.75 71.5 Z" style="fill:black; stroke:none;" /></g></g></svg>