<svg xmlns="http://www.w3.org/2000/svg" style="fill-opacity:1; color-rendering:auto; color-interpolation:auto; text-rendering:auto; stroke:black; stroke-linecap:square; stroke-miterlimit:10; shape-rendering:auto; stroke-opacity:1; fill:black; stroke-dasharray:none; font-weight:normal; stroke-width:1; font-family:'Dialog'; font-style:normal; stroke-linejoin:miter; font-size:12px; stroke-dashoffset:0; image-rendering:auto;"><defs id="genericDefs" /><g><defs id="defs1"><clipPath clipPathUnits="userSpaceOnUse" id="clipPath1"><path d="M156 67 C156 73.0751 151.0751 78 145 78 C138.9249 78 134 73.0751 134 67 C134 60.9249 138.9249 56 145 56 C151.0751 56 156 60.9249 156 67 Z" /></clipPath><clipPath clipPathUnits="userSpaceOnUse" id="clipPath2"><path d="M104 93 C104 99.0751 99.0751 104 93 104 C86.9249 104 82 99.0751 82 93 C82 86.9249 86.9249 82 93 82 C99.0751 82 104 86.9249 104 93 Z" /></clipPath><clipPath clipPathUnits="userSpaceOnUse" id="clipPath3"><path d="M52 93 C52 99.0751 47.0751 104 41 104 C34.9249 104 30 99.0751 30 93 C30 86.9249 34.9249 82 41 82 C47.0751 82 52 86.9249 52 93 Z" /></clipPath><clipPath clipPathUnits="userSpaceOnUse" id="clipPath4"><path d="M104 41 C104 47.0751 99.0751 52 93 52 C86.9249 52 82 47.0751 82 41 C82 34.9249 86.9249 30 93 30 C99.0751 30 104 34.9249 104 41 Z" /></clipPath></defs><g style="fill:white; text-rendering:optimizeSpeed; stroke:white;"><rect height="134" style="stroke:none;" width="186" x="0" y="0" /></g><g ID="l-1:1,2" style="text-rendering:optimizeSpeed;"><polygon points=" 145 67 93 93" style="fill:none;" /></g><g ID="l-1:1,3" style="text-rendering:optimizeSpeed;"><polygon points=" 145 67 93 41" style="fill:none;" /></g><g ID="r-1:1" style="fill:white; text-rendering:optimizeSpeed; stroke:white;" wurcs_mono_id="1"><circle cx="145" cy="67" r="11" style="clip-path:url(#clipPath1); stroke:none;" /><rect height="22" style="clip-path:url(#clipPath1); fill:rgb(0,144,188); stroke:none;" width="22" x="134" y="56" /><rect height="22" style="clip-path:url(#clipPath1); fill:none; stroke:black;" width="22" x="134" y="56" /><circle cx="145" cy="67" r="11" style="fill:none; stroke:black;" /></g><g ID="l-1:2,4" style="text-rendering:optimizeSpeed;"><polygon points=" 93 93 41 93" style="fill:none;" /></g><g ID="r-1:2" style="fill:white; text-rendering:optimizeSpeed; stroke:white;" wurcs_mono_id="2"><circle cx="93" cy="93" r="11" style="clip-path:url(#clipPath2); stroke:none;" /><rect height="22" style="clip-path:url(#clipPath2); fill:rgb(0,144,188); stroke:none;" width="22" x="82" y="82" /><rect height="22" style="clip-path:url(#clipPath2); fill:none; stroke:black;" width="22" x="82" y="82" /><circle cx="93" cy="93" r="11" style="fill:none; stroke:black;" /></g><g ID="r-1:4" style="fill:white; text-rendering:optimizeSpeed; stroke:white;" wurcs_mono_id="3"><circle cx="41" cy="93" r="11" style="clip-path:url(#clipPath3); stroke:none;" /><rect height="22" style="clip-path:url(#clipPath3); fill:rgb(0,144,188); stroke:none;" width="22" x="30" y="82" /><rect height="22" style="clip-path:url(#clipPath3); fill:none; stroke:black;" width="22" x="30" y="82" /><circle cx="41" cy="93" r="11" style="fill:none; stroke:black;" /></g><g ID="li-1:2,4" style="fill:white; text-rendering:optimizeSpeed; font-family:'Serif'; stroke:white;"><rect height="10" style="stroke:none;" width="7" x="70" y="96" /><path d="M73.9219 105.5938 Q74.75 105.5938 75.1953 104.9844 Q75.6406 104.375 75.6406 103.2344 Q75.6406 102.1094 75.1953 101.5 Q74.75 100.8906 73.9219 100.8906 Q73.0938 100.8906 72.6484 101.4766 Q72.2031 102.0625 72.2031 103.1719 Q72.2031 104.3281 72.6484 104.9609 Q73.0938 105.5938 73.9219 105.5938 ZM72.0156 101.1875 Q72.4219 100.75 72.9219 100.5312 Q73.4219 100.3125 74.0625 100.3125 Q75.3594 100.3125 76.1172 101.0938 Q76.875 101.875 76.875 103.2344 Q76.875 104.5625 76.0625 105.3672 Q75.25 106.1719 73.875 106.1719 Q72.3906 106.1719 71.5938 105.0625 Q70.7969 103.9531 70.7969 101.9062 Q70.7969 99.6094 71.7422 98.3516 Q72.6875 97.0938 74.4062 97.0938 Q74.875 97.0938 75.3828 97.1797 Q75.8906 97.2656 76.4219 97.4375 L76.4219 98.8906 L75.7656 98.8906 Q75.6875 98.2969 75.3047 97.9844 Q74.9219 97.6719 74.2812 97.6719 Q73.1406 97.6719 72.5859 98.5312 Q72.0312 99.3906 72.0156 101.1875 Z" style="fill:black; stroke:none;" /><rect height="13" style="stroke:none;" width="7" x="56" y="94" /><path d="M57.8281 106.25 Q58.2969 106.5938 59.1719 106.5938 Q60.0625 106.5938 60.5781 106.0703 Q61.0938 105.5469 61.0938 104.6562 Q61.0938 103.4219 60.5625 102.8906 Q60.0156 102.3594 59 102.3594 L58.4375 102.3594 L58.4375 101.7188 L58.7344 101.7188 Q59.4844 101.7188 60 101.2969 Q60.4219 100.9531 60.4219 100.0156 Q60.4219 99.6094 60.1406 99.1406 Q59.6875 98.375 59.1562 98.3906 Q57.8281 98.4375 57.8281 100.7812 L57.8281 106.25 ZM56.75 109.5 L56.75 100.7812 Q56.75 98.3281 58.0781 98 Q58.7656 97.8125 59.25 97.8125 Q60.3438 97.8125 61.0469 98.6719 Q61.6094 99.3594 61.6094 99.9375 Q61.6094 100.7812 61.2031 101.2656 Q60.7969 101.75 60.0625 101.9844 Q61.1406 102.1406 61.75 102.7812 Q62.3281 103.4062 62.3281 104.6328 Q62.3281 105.8594 61.5078 106.5156 Q60.6875 107.1719 59.1406 107.1719 Q58.1875 107.1719 57.8281 107.0312 L57.8281 109.5 L56.75 109.5 Z" style="fill:black; stroke:none;" /></g><g ID="r-1:3" style="fill:white; text-rendering:optimizeSpeed; stroke:white;" wurcs_mono_id="4"><circle cx="93" cy="41" r="11" style="clip-path:url(#clipPath4); stroke:none;" /><rect height="22" style="clip-path:url(#clipPath4); fill:rgb(0,144,188); stroke:none;" width="22" x="82" y="30" /><rect height="22" style="clip-path:url(#clipPath4); fill:none; stroke:black;" width="22" x="82" y="30" /><circle cx="93" cy="41" r="11" style="fill:none; stroke:black;" /></g><g ID="li-1:1,2" style="fill:white; text-rendering:optimizeSpeed; font-family:'Serif'; stroke:white;"><rect height="9" style="stroke:none;" width="8" x="126" y="78" /><path d="M130.1875 84.0312 L130.1875 79.375 L127.2031 84.0312 L130.1875 84.0312 ZM132.7656 87 L128.7812 87 L128.7812 86.375 L130.1875 86.375 L130.1875 84.6562 L126.375 84.6562 L126.375 84.0156 L130.2031 78.0938 L131.3594 78.0938 L131.3594 84.0312 L133.0312 84.0312 L133.0312 84.6562 L131.3594 84.6562 L131.3594 86.375 L132.7656 86.375 L132.7656 87 Z" style="fill:black; stroke:none;" /><rect height="8" style="stroke:none;" width="8" x="110" y="87" /><path d="M115.1875 93.4688 L114.9531 94.1094 Q114.7656 94.625 114.2031 94.9375 Q113.8438 95.1562 113.2031 95.1406 Q112.0469 95.1406 111.3281 94.2344 Q110.5938 93.3281 110.5938 91.8594 Q110.5938 90.4219 111.3281 89.4844 Q112.0156 88.5938 113.4531 88.6094 Q114.4531 88.6094 114.9531 89 Q115.4062 89.3438 115.5781 90.0938 L115.625 90.3125 L115.8438 89.6719 Q116.0625 89.0469 116.6562 88.75 L117.25 88.75 L117.25 89.0938 Q116.6875 89.2656 116.5 89.8125 L115.8906 91.4844 L116.2969 93.2812 Q116.5 94.2031 116.7344 94.2969 Q117.0469 94.4375 117.7812 94 L117.7812 94.7188 Q116.5938 95.4062 115.75 94.6875 Q115.375 94.3594 115.2656 93.875 L115.1875 93.4688 ZM114.9219 92.3125 L114.5625 90.5938 Q114.2656 89.2188 113.4688 89.2188 Q112.7969 89.2031 112.2812 89.9375 Q111.8594 90.5156 111.8594 91.875 Q111.8594 93.1719 112.2812 93.8281 Q112.75 94.5469 113.5312 94.5 Q114.2031 94.4375 114.6875 93 L114.9219 92.3125 Z" style="fill:black; stroke:none;" /></g><g ID="li-1:1,3" style="fill:white; text-rendering:optimizeSpeed; font-family:'Serif'; stroke:white;"><rect height="10" style="stroke:none;" width="7" x="119" y="60" /><path d="M122.9219 69.5938 Q123.75 69.5938 124.1953 68.9844 Q124.6406 68.375 124.6406 67.2344 Q124.6406 66.1094 124.1953 65.5 Q123.75 64.8906 122.9219 64.8906 Q122.0938 64.8906 121.6484 65.4766 Q121.2031 66.0625 121.2031 67.1719 Q121.2031 68.3281 121.6484 68.9609 Q122.0938 69.5938 122.9219 69.5938 ZM121.0156 65.1875 Q121.4219 64.75 121.9219 64.5312 Q122.4219 64.3125 123.0625 64.3125 Q124.3594 64.3125 125.1172 65.0938 Q125.875 65.875 125.875 67.2344 Q125.875 68.5625 125.0625 69.3672 Q124.25 70.1719 122.875 70.1719 Q121.3906 70.1719 120.5938 69.0625 Q119.7969 67.9531 119.7969 65.9062 Q119.7969 63.6094 120.7422 62.3516 Q121.6875 61.0938 123.4062 61.0938 Q123.875 61.0938 124.3828 61.1797 Q124.8906 61.2656 125.4219 61.4375 L125.4219 62.8906 L124.7656 62.8906 Q124.6875 62.2969 124.3047 61.9844 Q123.9219 61.6719 123.2812 61.6719 Q122.1406 61.6719 121.5859 62.5312 Q121.0312 63.3906 121.0156 65.1875 Z" style="fill:black; stroke:none;" /><rect height="13" style="stroke:none;" width="7" x="104" y="50" /><path d="M105.8281 62.25 Q106.2969 62.5938 107.1719 62.5938 Q108.0625 62.5938 108.5781 62.0703 Q109.0938 61.5469 109.0938 60.6562 Q109.0938 59.4219 108.5625 58.8906 Q108.0156 58.3594 107 58.3594 L106.4375 58.3594 L106.4375 57.7188 L106.7344 57.7188 Q107.4844 57.7188 108 57.2969 Q108.4219 56.9531 108.4219 56.0156 Q108.4219 55.6094 108.1406 55.1406 Q107.6875 54.375 107.1562 54.3906 Q105.8281 54.4375 105.8281 56.7812 L105.8281 62.25 ZM104.75 65.5 L104.75 56.7812 Q104.75 54.3281 106.0781 54 Q106.7656 53.8125 107.25 53.8125 Q108.3438 53.8125 109.0469 54.6719 Q109.6094 55.3594 109.6094 55.9375 Q109.6094 56.7812 109.2031 57.2656 Q108.7969 57.75 108.0625 57.9844 Q109.1406 58.1406 109.75 58.7812 Q110.3281 59.4062 110.3281 60.6328 Q110.3281 61.8594 109.5078 62.5156 Q108.6875 63.1719 107.1406 63.1719 Q106.1875 63.1719 105.8281 63.0312 L105.8281 65.5 L104.75 65.5 Z" style="fill:black; stroke:none;" /></g></g></svg>