<svg xmlns="http://www.w3.org/2000/svg" style="fill-opacity:1; color-rendering:auto; color-interpolation:auto; text-rendering:auto; stroke:black; stroke-linecap:square; stroke-miterlimit:10; shape-rendering:auto; stroke-opacity:1; fill:black; stroke-dasharray:none; font-weight:normal; stroke-width:1; font-family:'Dialog'; font-style:normal; stroke-linejoin:miter; font-size:12px; stroke-dashoffset:0; image-rendering:auto;"><defs id="genericDefs" /><g><defs id="defs1"><clipPath clipPathUnits="userSpaceOnUse" id="clipPath1"><path d="M290 56 L312 56 L312 78 L290 78 L290 56 Z" /></clipPath><clipPath clipPathUnits="userSpaceOnUse" id="clipPath2"><path d="M238 56 L260 56 L260 78 L238 78 L238 56 Z" /></clipPath><clipPath clipPathUnits="userSpaceOnUse" id="clipPath3"><path d="M208 67 C208 73.0751 203.0751 78 197 78 C190.9249 78 186 73.0751 186 67 C186 60.9249 190.9249 56 197 56 C203.0751 56 208 60.9249 208 67 Z" /></clipPath><clipPath clipPathUnits="userSpaceOnUse" id="clipPath4"><path d="M156 93 C156 99.0751 151.0751 104 145 104 C138.9249 104 134 99.0751 134 93 C134 86.9249 138.9249 82 145 82 C151.0751 82 156 86.9249 156 93 Z" /></clipPath><clipPath clipPathUnits="userSpaceOnUse" id="clipPath5"><path d="M104 119 C104 125.0751 99.0751 130 93 130 C86.9249 130 82 125.0751 82 119 C82 112.9249 86.9249 108 93 108 C99.0751 108 104 112.9249 104 119 Z" /></clipPath><clipPath clipPathUnits="userSpaceOnUse" id="clipPath6"><path d="M52 119 C52 125.0751 47.0751 130 41 130 C34.9249 130 30 125.0751 30 119 C30 112.9249 34.9249 108 41 108 C47.0751 108 52 112.9249 52 119 Z" /></clipPath><clipPath clipPathUnits="userSpaceOnUse" id="clipPath7"><path d="M104 67 C104 73.0751 99.0751 78 93 78 C86.9249 78 82 73.0751 82 67 C82 60.9249 86.9249 56 93 56 C99.0751 56 104 60.9249 104 67 Z" /></clipPath><clipPath clipPathUnits="userSpaceOnUse" id="clipPath8"><path d="M52 67 C52 73.0751 47.0751 78 41 78 C34.9249 78 30 73.0751 30 67 C30 60.9249 34.9249 56 41 56 C47.0751 56 52 60.9249 52 67 Z" /></clipPath><clipPath clipPathUnits="userSpaceOnUse" id="clipPath9"><path d="M156 41 C156 47.0751 151.0751 52 145 52 C138.9249 52 134 47.0751 134 41 C134 34.9249 138.9249 30 145 30 C151.0751 30 156 34.9249 156 41 Z" /></clipPath></defs><g style="fill:white; text-rendering:optimizeSpeed; stroke:white;"><rect height="160" style="stroke:none;" width="342" x="0" y="0" /></g><g ID="l-1:1,2" style="text-rendering:optimizeSpeed;"><polygon points=" 301 67 249 67" style="fill:none;" /></g><g ID="r-1:1" style="fill:white; text-rendering:optimizeSpeed; stroke:white;" wurcs_mono_id="1"><rect height="22" style="clip-path:url(#clipPath1); stroke:none;" width="22" x="290" y="56" /><rect height="22" style="clip-path:url(#clipPath1); fill:rgb(0,144,188); stroke:none;" width="22" x="290" y="56" /><rect height="22" style="clip-path:url(#clipPath1); fill:none; stroke:black;" width="22" x="290" y="56" /><rect height="22" style="fill:none; stroke:black;" width="22" x="290" y="56" /></g><g ID="l-1:2,3" style="text-rendering:optimizeSpeed;"><polygon points=" 249 67 197 67" style="fill:none;" /></g><g ID="r-1:2" style="fill:white; text-rendering:optimizeSpeed; stroke:white;" wurcs_mono_id="2"><rect height="22" style="clip-path:url(#clipPath2); stroke:none;" width="22" x="238" y="56" /><rect height="22" style="clip-path:url(#clipPath2); fill:rgb(0,144,188); stroke:none;" width="22" x="238" y="56" /><rect height="22" style="clip-path:url(#clipPath2); fill:none; stroke:black;" width="22" x="238" y="56" /><rect height="22" style="fill:none; stroke:black;" width="22" x="238" y="56" /></g><g ID="l-1:3,4" style="text-rendering:optimizeSpeed;"><polygon points=" 197 67 145 93" style="fill:none;" /></g><g ID="l-1:3,5" style="text-rendering:optimizeSpeed;"><polygon points=" 197 67 145 41" style="fill:none;" /></g><g ID="r-1:3" style="fill:white; text-rendering:optimizeSpeed; stroke:white;" wurcs_mono_id="3"><circle cx="197" cy="67" r="11" style="clip-path:url(#clipPath3); stroke:none;" /><rect height="22" style="clip-path:url(#clipPath3); fill:rgb(0,166,81); stroke:none;" width="22" x="186" y="56" /><rect height="22" style="clip-path:url(#clipPath3); fill:none; stroke:black;" width="22" x="186" y="56" /><circle cx="197" cy="67" r="11" style="fill:none; stroke:black;" /></g><g ID="l-1:4,6" style="text-rendering:optimizeSpeed;"><polygon points=" 145 93 93 119" style="fill:none;" /></g><g ID="l-1:4,7" style="text-rendering:optimizeSpeed;"><polygon points=" 145 93 93 67" style="fill:none;" /></g><g ID="r-1:4" style="fill:white; text-rendering:optimizeSpeed; stroke:white;" wurcs_mono_id="4"><circle cx="145" cy="93" r="11" style="clip-path:url(#clipPath4); stroke:none;" /><rect height="22" style="clip-path:url(#clipPath4); fill:rgb(0,166,81); stroke:none;" width="22" x="134" y="82" /><rect height="22" style="clip-path:url(#clipPath4); fill:none; stroke:black;" width="22" x="134" y="82" /><circle cx="145" cy="93" r="11" style="fill:none; stroke:black;" /></g><g ID="l-1:6,8" style="text-rendering:optimizeSpeed;"><polygon points=" 93 119 41 119" style="fill:none;" /></g><g ID="r-1:6" style="fill:white; text-rendering:optimizeSpeed; stroke:white;" wurcs_mono_id="5"><circle cx="93" cy="119" r="11" style="clip-path:url(#clipPath5); stroke:none;" /><rect height="22" style="clip-path:url(#clipPath5); fill:rgb(0,166,81); stroke:none;" width="22" x="82" y="108" /><rect height="22" style="clip-path:url(#clipPath5); fill:none; stroke:black;" width="22" x="82" y="108" /><circle cx="93" cy="119" r="11" style="fill:none; stroke:black;" /></g><g ID="r-1:8" style="fill:white; text-rendering:optimizeSpeed; stroke:white;" wurcs_mono_id="6"><circle cx="41" cy="119" r="11" style="clip-path:url(#clipPath6); stroke:none;" /><rect height="22" style="clip-path:url(#clipPath6); fill:rgb(0,166,81); stroke:none;" width="22" x="30" y="108" /><rect height="22" style="clip-path:url(#clipPath6); fill:none; stroke:black;" width="22" x="30" y="108" /><circle cx="41" cy="119" r="11" style="fill:none; stroke:black;" /></g><g ID="li-1:6,8" style="fill:white; text-rendering:optimizeSpeed; font-family:'Serif'; stroke:white;"><rect height="9" style="stroke:none;" width="7" x="70" y="122" /><path d="M71.5312 124.3438 L70.875 124.3438 L70.875 122.7812 Q71.5 122.4375 72.1406 122.2656 Q72.7812 122.0938 73.3906 122.0938 Q74.75 122.0938 75.5391 122.7578 Q76.3281 123.4219 76.3281 124.5469 Q76.3281 125.8438 74.5469 127.625 Q74.4062 127.7656 74.3281 127.8281 L72.125 130.0312 L75.7656 130.0312 L75.7656 128.9531 L76.4531 128.9531 L76.4531 131 L70.8125 131 L70.8125 130.3594 L73.4688 127.7188 Q74.3438 126.8281 74.7188 126.0938 Q75.0938 125.3594 75.0938 124.5469 Q75.0938 123.6719 74.6328 123.1719 Q74.1719 122.6719 73.375 122.6719 Q72.5312 122.6719 72.0781 123.0859 Q71.625 123.5 71.5312 124.3438 Z" style="fill:black; stroke:none;" /><rect height="13" style="stroke:none;" width="7" x="56" y="120" /><path d="M57.8281 132.25 Q58.2969 132.5938 59.1719 132.5938 Q60.0625 132.5938 60.5781 132.0703 Q61.0938 131.5469 61.0938 130.6562 Q61.0938 129.4219 60.5625 128.8906 Q60.0156 128.3594 59 128.3594 L58.4375 128.3594 L58.4375 127.7188 L58.7344 127.7188 Q59.4844 127.7188 60 127.2969 Q60.4219 126.9531 60.4219 126.0156 Q60.4219 125.6094 60.1406 125.1406 Q59.6875 124.375 59.1562 124.3906 Q57.8281 124.4375 57.8281 126.7812 L57.8281 132.25 ZM56.75 135.5 L56.75 126.7812 Q56.75 124.3281 58.0781 124 Q58.7656 123.8125 59.25 123.8125 Q60.3438 123.8125 61.0469 124.6719 Q61.6094 125.3594 61.6094 125.9375 Q61.6094 126.7812 61.2031 127.2656 Q60.7969 127.75 60.0625 127.9844 Q61.1406 128.1406 61.75 128.7812 Q62.3281 129.4062 62.3281 130.6328 Q62.3281 131.8594 61.5078 132.5156 Q60.6875 133.1719 59.1406 133.1719 Q58.1875 133.1719 57.8281 133.0312 L57.8281 135.5 L56.75 135.5 Z" style="fill:black; stroke:none;" /></g><g ID="l-1:7,9" style="text-rendering:optimizeSpeed;"><polygon points=" 93 67 41 67" style="fill:none;" /></g><g ID="r-1:7" style="fill:white; text-rendering:optimizeSpeed; stroke:white;" wurcs_mono_id="7"><circle cx="93" cy="67" r="11" style="clip-path:url(#clipPath7); stroke:none;" /><rect height="22" style="clip-path:url(#clipPath7); fill:rgb(0,166,81); stroke:none;" width="22" x="82" y="56" /><rect height="22" style="clip-path:url(#clipPath7); fill:none; stroke:black;" width="22" x="82" y="56" /><circle cx="93" cy="67" r="11" style="fill:none; stroke:black;" /></g><g ID="r-1:9" style="fill:white; text-rendering:optimizeSpeed; stroke:white;" wurcs_mono_id="8"><circle cx="41" cy="67" r="11" style="clip-path:url(#clipPath8); stroke:none;" /><rect height="22" style="clip-path:url(#clipPath8); fill:rgb(0,166,81); stroke:none;" width="22" x="30" y="56" /><rect height="22" style="clip-path:url(#clipPath8); fill:none; stroke:black;" width="22" x="30" y="56" /><circle cx="41" cy="67" r="11" style="fill:none; stroke:black;" /></g><g ID="li-1:7,9" style="fill:white; text-rendering:optimizeSpeed; font-family:'Serif'; stroke:white;"><rect height="9" style="stroke:none;" width="7" x="70" y="70" /><path d="M71.5312 72.3438 L70.875 72.3438 L70.875 70.7812 Q71.5 70.4375 72.1406 70.2656 Q72.7812 70.0938 73.3906 70.0938 Q74.75 70.0938 75.5391 70.7578 Q76.3281 71.4219 76.3281 72.5469 Q76.3281 73.8438 74.5469 75.625 Q74.4062 75.7656 74.3281 75.8281 L72.125 78.0312 L75.7656 78.0312 L75.7656 76.9531 L76.4531 76.9531 L76.4531 79 L70.8125 79 L70.8125 78.3594 L73.4688 75.7188 Q74.3438 74.8281 74.7188 74.0938 Q75.0938 73.3594 75.0938 72.5469 Q75.0938 71.6719 74.6328 71.1719 Q74.1719 70.6719 73.375 70.6719 Q72.5312 70.6719 72.0781 71.0859 Q71.625 71.5 71.5312 72.3438 Z" style="fill:black; stroke:none;" /><rect height="8" style="stroke:none;" width="8" x="56" y="71" /><path d="M61.1875 77.4688 L60.9531 78.1094 Q60.7656 78.625 60.2031 78.9375 Q59.8438 79.1562 59.2031 79.1406 Q58.0469 79.1406 57.3281 78.2344 Q56.5938 77.3281 56.5938 75.8594 Q56.5938 74.4219 57.3281 73.4844 Q58.0156 72.5938 59.4531 72.6094 Q60.4531 72.6094 60.9531 73 Q61.4062 73.3438 61.5781 74.0938 L61.625 74.3125 L61.8438 73.6719 Q62.0625 73.0469 62.6562 72.75 L63.25 72.75 L63.25 73.0938 Q62.6875 73.2656 62.5 73.8125 L61.8906 75.4844 L62.2969 77.2812 Q62.5 78.2031 62.7344 78.2969 Q63.0469 78.4375 63.7812 78 L63.7812 78.7188 Q62.5938 79.4062 61.75 78.6875 Q61.375 78.3594 61.2656 77.875 L61.1875 77.4688 ZM60.9219 76.3125 L60.5625 74.5938 Q60.2656 73.2188 59.4688 73.2188 Q58.7969 73.2031 58.2812 73.9375 Q57.8594 74.5156 57.8594 75.875 Q57.8594 77.1719 58.2812 77.8281 Q58.75 78.5469 59.5312 78.5 Q60.2031 78.4375 60.6875 77 L60.9219 76.3125 Z" style="fill:black; stroke:none;" /></g><g ID="li-1:4,6" style="fill:white; text-rendering:optimizeSpeed; font-family:'Serif'; stroke:white;"><rect height="9" style="stroke:none;" width="7" x="126" y="104" /><path d="M127.5312 106.3438 L126.875 106.3438 L126.875 104.7812 Q127.5 104.4375 128.1406 104.2656 Q128.7812 104.0938 129.3906 104.0938 Q130.75 104.0938 131.5391 104.7578 Q132.3281 105.4219 132.3281 106.5469 Q132.3281 107.8438 130.5469 109.625 Q130.4062 109.7656 130.3281 109.8281 L128.125 112.0312 L131.7656 112.0312 L131.7656 110.9531 L132.4531 110.9531 L132.4531 113 L126.8125 113 L126.8125 112.3594 L129.4688 109.7188 Q130.3438 108.8281 130.7188 108.0938 Q131.0938 107.3594 131.0938 106.5469 Q131.0938 105.6719 130.6328 105.1719 Q130.1719 104.6719 129.375 104.6719 Q128.5312 104.6719 128.0781 105.0859 Q127.625 105.5 127.5312 106.3438 Z" style="fill:black; stroke:none;" /><rect height="8" style="stroke:none;" width="8" x="110" y="113" /><path d="M115.1875 119.4688 L114.9531 120.1094 Q114.7656 120.625 114.2031 120.9375 Q113.8438 121.1562 113.2031 121.1406 Q112.0469 121.1406 111.3281 120.2344 Q110.5938 119.3281 110.5938 117.8594 Q110.5938 116.4219 111.3281 115.4844 Q112.0156 114.5938 113.4531 114.6094 Q114.4531 114.6094 114.9531 115 Q115.4062 115.3438 115.5781 116.0938 L115.625 116.3125 L115.8438 115.6719 Q116.0625 115.0469 116.6562 114.75 L117.25 114.75 L117.25 115.0938 Q116.6875 115.2656 116.5 115.8125 L115.8906 117.4844 L116.2969 119.2812 Q116.5 120.2031 116.7344 120.2969 Q117.0469 120.4375 117.7812 120 L117.7812 120.7188 Q116.5938 121.4062 115.75 120.6875 Q115.375 120.3594 115.2656 119.875 L115.1875 119.4688 ZM114.9219 118.3125 L114.5625 116.5938 Q114.2656 115.2188 113.4688 115.2188 Q112.7969 115.2031 112.2812 115.9375 Q111.8594 116.5156 111.8594 117.875 Q111.8594 119.1719 112.2812 119.8281 Q112.75 120.5469 113.5312 120.5 Q114.2031 120.4375 114.6875 119 L114.9219 118.3125 Z" style="fill:black; stroke:none;" /></g><g ID="li-1:4,7" style="fill:white; text-rendering:optimizeSpeed; font-family:'Serif'; stroke:white;"><rect height="10" style="stroke:none;" width="7" x="119" y="86" /><path d="M122.9219 95.5938 Q123.75 95.5938 124.1953 94.9844 Q124.6406 94.375 124.6406 93.2344 Q124.6406 92.1094 124.1953 91.5 Q123.75 90.8906 122.9219 90.8906 Q122.0938 90.8906 121.6484 91.4766 Q121.2031 92.0625 121.2031 93.1719 Q121.2031 94.3281 121.6484 94.9609 Q122.0938 95.5938 122.9219 95.5938 ZM121.0156 91.1875 Q121.4219 90.75 121.9219 90.5312 Q122.4219 90.3125 123.0625 90.3125 Q124.3594 90.3125 125.1172 91.0938 Q125.875 91.875 125.875 93.2344 Q125.875 94.5625 125.0625 95.3672 Q124.25 96.1719 122.875 96.1719 Q121.3906 96.1719 120.5938 95.0625 Q119.7969 93.9531 119.7969 91.9062 Q119.7969 89.6094 120.7422 88.3516 Q121.6875 87.0938 123.4062 87.0938 Q123.875 87.0938 124.3828 87.1797 Q124.8906 87.2656 125.4219 87.4375 L125.4219 88.8906 L124.7656 88.8906 Q124.6875 88.2969 124.3047 87.9844 Q123.9219 87.6719 123.2812 87.6719 Q122.1406 87.6719 121.5859 88.5312 Q121.0312 89.3906 121.0156 91.1875 Z" style="fill:black; stroke:none;" /><rect height="8" style="stroke:none;" width="8" x="103" y="79" /><path d="M108.1875 85.4688 L107.9531 86.1094 Q107.7656 86.625 107.2031 86.9375 Q106.8438 87.1562 106.2031 87.1406 Q105.0469 87.1406 104.3281 86.2344 Q103.5938 85.3281 103.5938 83.8594 Q103.5938 82.4219 104.3281 81.4844 Q105.0156 80.5938 106.4531 80.6094 Q107.4531 80.6094 107.9531 81 Q108.4062 81.3438 108.5781 82.0938 L108.625 82.3125 L108.8438 81.6719 Q109.0625 81.0469 109.6562 80.75 L110.25 80.75 L110.25 81.0938 Q109.6875 81.2656 109.5 81.8125 L108.8906 83.4844 L109.2969 85.2812 Q109.5 86.2031 109.7344 86.2969 Q110.0469 86.4375 110.7812 86 L110.7812 86.7188 Q109.5938 87.4062 108.75 86.6875 Q108.375 86.3594 108.2656 85.875 L108.1875 85.4688 ZM107.9219 84.3125 L107.5625 82.5938 Q107.2656 81.2188 106.4688 81.2188 Q105.7969 81.2031 105.2812 81.9375 Q104.8594 82.5156 104.8594 83.875 Q104.8594 85.1719 105.2812 85.8281 Q105.75 86.5469 106.5312 86.5 Q107.2031 86.4375 107.6875 85 L107.9219 84.3125 Z" style="fill:black; stroke:none;" /></g><g ID="r-1:5" style="fill:white; text-rendering:optimizeSpeed; stroke:white;" wurcs_mono_id="9"><circle cx="145" cy="41" r="11" style="clip-path:url(#clipPath9); stroke:none;" /><rect height="22" style="clip-path:url(#clipPath9); fill:rgb(0,166,81); stroke:none;" width="22" x="134" y="30" /><rect height="22" style="clip-path:url(#clipPath9); fill:none; stroke:black;" width="22" x="134" y="30" /><circle cx="145" cy="41" r="11" style="fill:none; stroke:black;" /></g><g ID="li-1:3,4" style="fill:white; text-rendering:optimizeSpeed; font-family:'Serif'; stroke:white;"><rect height="10" style="stroke:none;" width="7" x="178" y="78" /><path d="M179.1719 79.625 Q179.8594 79.3594 180.4844 79.2266 Q181.1094 79.0938 181.6562 79.0938 Q182.9531 79.0938 183.6719 79.6484 Q184.3906 80.2031 184.3906 81.1875 Q184.3906 81.9688 183.8906 82.5 Q183.3906 83.0312 182.4844 83.2188 Q183.5625 83.375 184.1562 84.0078 Q184.75 84.6406 184.75 85.6406 Q184.75 86.8594 183.9219 87.5156 Q183.0938 88.1719 181.5469 88.1719 Q180.8594 88.1719 180.2109 88.0234 Q179.5625 87.875 178.9219 87.5781 L178.9219 85.875 L179.5781 85.875 Q179.625 86.7188 180.1406 87.1562 Q180.6562 87.5938 181.5781 87.5938 Q182.4688 87.5938 182.9922 87.0703 Q183.5156 86.5469 183.5156 85.6562 Q183.5156 84.625 182.9766 84.0938 Q182.4375 83.5625 181.4062 83.5625 L180.8594 83.5625 L180.8594 82.9531 L181.1406 82.9531 Q182.1719 82.9531 182.6875 82.5312 Q183.2031 82.1094 183.2031 81.25 Q183.2031 80.4844 182.7812 80.0781 Q182.3594 79.6719 181.5625 79.6719 Q180.7656 79.6719 180.3359 80.0469 Q179.9062 80.4219 179.8281 81.1562 L179.1719 81.1562 L179.1719 79.625 Z" style="fill:black; stroke:none;" /><rect height="8" style="stroke:none;" width="8" x="162" y="87" /><path d="M167.1875 93.4688 L166.9531 94.1094 Q166.7656 94.625 166.2031 94.9375 Q165.8438 95.1562 165.2031 95.1406 Q164.0469 95.1406 163.3281 94.2344 Q162.5938 93.3281 162.5938 91.8594 Q162.5938 90.4219 163.3281 89.4844 Q164.0156 88.5938 165.4531 88.6094 Q166.4531 88.6094 166.9531 89 Q167.4062 89.3438 167.5781 90.0938 L167.625 90.3125 L167.8438 89.6719 Q168.0625 89.0469 168.6562 88.75 L169.25 88.75 L169.25 89.0938 Q168.6875 89.2656 168.5 89.8125 L167.8906 91.4844 L168.2969 93.2812 Q168.5 94.2031 168.7344 94.2969 Q169.0469 94.4375 169.7812 94 L169.7812 94.7188 Q168.5938 95.4062 167.75 94.6875 Q167.375 94.3594 167.2656 93.875 L167.1875 93.4688 ZM166.9219 92.3125 L166.5625 90.5938 Q166.2656 89.2188 165.4688 89.2188 Q164.7969 89.2031 164.2812 89.9375 Q163.8594 90.5156 163.8594 91.875 Q163.8594 93.1719 164.2812 93.8281 Q164.75 94.5469 165.5312 94.5 Q166.2031 94.4375 166.6875 93 L166.9219 92.3125 Z" style="fill:black; stroke:none;" /></g><g ID="li-1:3,5" style="fill:white; text-rendering:optimizeSpeed; font-family:'Serif'; stroke:white;"><rect height="10" style="stroke:none;" width="7" x="171" y="60" /><path d="M174.9219 69.5938 Q175.75 69.5938 176.1953 68.9844 Q176.6406 68.375 176.6406 67.2344 Q176.6406 66.1094 176.1953 65.5 Q175.75 64.8906 174.9219 64.8906 Q174.0938 64.8906 173.6484 65.4766 Q173.2031 66.0625 173.2031 67.1719 Q173.2031 68.3281 173.6484 68.9609 Q174.0938 69.5938 174.9219 69.5938 ZM173.0156 65.1875 Q173.4219 64.75 173.9219 64.5312 Q174.4219 64.3125 175.0625 64.3125 Q176.3594 64.3125 177.1172 65.0938 Q177.875 65.875 177.875 67.2344 Q177.875 68.5625 177.0625 69.3672 Q176.25 70.1719 174.875 70.1719 Q173.3906 70.1719 172.5938 69.0625 Q171.7969 67.9531 171.7969 65.9062 Q171.7969 63.6094 172.7422 62.3516 Q173.6875 61.0938 175.4062 61.0938 Q175.875 61.0938 176.3828 61.1797 Q176.8906 61.2656 177.4219 61.4375 L177.4219 62.8906 L176.7656 62.8906 Q176.6875 62.2969 176.3047 61.9844 Q175.9219 61.6719 175.2812 61.6719 Q174.1406 61.6719 173.5859 62.5312 Q173.0312 63.3906 173.0156 65.1875 Z" style="fill:black; stroke:none;" /><rect height="8" style="stroke:none;" width="8" x="155" y="53" /><path d="M160.1875 59.4688 L159.9531 60.1094 Q159.7656 60.625 159.2031 60.9375 Q158.8438 61.1562 158.2031 61.1406 Q157.0469 61.1406 156.3281 60.2344 Q155.5938 59.3281 155.5938 57.8594 Q155.5938 56.4219 156.3281 55.4844 Q157.0156 54.5938 158.4531 54.6094 Q159.4531 54.6094 159.9531 55 Q160.4062 55.3438 160.5781 56.0938 L160.625 56.3125 L160.8438 55.6719 Q161.0625 55.0469 161.6562 54.75 L162.25 54.75 L162.25 55.0938 Q161.6875 55.2656 161.5 55.8125 L160.8906 57.4844 L161.2969 59.2812 Q161.5 60.2031 161.7344 60.2969 Q162.0469 60.4375 162.7812 60 L162.7812 60.7188 Q161.5938 61.4062 160.75 60.6875 Q160.375 60.3594 160.2656 59.875 L160.1875 59.4688 ZM159.9219 58.3125 L159.5625 56.5938 Q159.2656 55.2188 158.4688 55.2188 Q157.7969 55.2031 157.2812 55.9375 Q156.8594 56.5156 156.8594 57.875 Q156.8594 59.1719 157.2812 59.8281 Q157.75 60.5469 158.5312 60.5 Q159.2031 60.4375 159.6875 59 L159.9219 58.3125 Z" style="fill:black; stroke:none;" /></g><g ID="li-1:2,3" style="fill:white; text-rendering:optimizeSpeed; font-family:'Serif'; stroke:white;"><rect height="9" style="stroke:none;" width="8" x="226" y="70" /><path d="M230.1875 76.0312 L230.1875 71.375 L227.2031 76.0312 L230.1875 76.0312 ZM232.7656 79 L228.7812 79 L228.7812 78.375 L230.1875 78.375 L230.1875 76.6562 L226.375 76.6562 L226.375 76.0156 L230.2031 70.0938 L231.3594 70.0938 L231.3594 76.0312 L233.0312 76.0312 L233.0312 76.6562 L231.3594 76.6562 L231.3594 78.375 L232.7656 78.375 L232.7656 79 Z" style="fill:black; stroke:none;" /><rect height="13" style="stroke:none;" width="7" x="212" y="68" /><path d="M213.8281 80.25 Q214.2969 80.5938 215.1719 80.5938 Q216.0625 80.5938 216.5781 80.0703 Q217.0938 79.5469 217.0938 78.6562 Q217.0938 77.4219 216.5625 76.8906 Q216.0156 76.3594 215 76.3594 L214.4375 76.3594 L214.4375 75.7188 L214.7344 75.7188 Q215.4844 75.7188 216 75.2969 Q216.4219 74.9531 216.4219 74.0156 Q216.4219 73.6094 216.1406 73.1406 Q215.6875 72.375 215.1562 72.3906 Q213.8281 72.4375 213.8281 74.7812 L213.8281 80.25 ZM212.75 83.5 L212.75 74.7812 Q212.75 72.3281 214.0781 72 Q214.7656 71.8125 215.25 71.8125 Q216.3438 71.8125 217.0469 72.6719 Q217.6094 73.3594 217.6094 73.9375 Q217.6094 74.7812 217.2031 75.2656 Q216.7969 75.75 216.0625 75.9844 Q217.1406 76.1406 217.75 76.7812 Q218.3281 77.4062 218.3281 78.6328 Q218.3281 79.8594 217.5078 80.5156 Q216.6875 81.1719 215.1406 81.1719 Q214.1875 81.1719 213.8281 81.0312 L213.8281 83.5 L212.75 83.5 Z" style="fill:black; stroke:none;" /></g><g ID="li-1:1,2" style="fill:white; text-rendering:optimizeSpeed; font-family:'Serif'; stroke:white;"><rect height="9" style="stroke:none;" width="8" x="278" y="70" /><path d="M282.1875 76.0312 L282.1875 71.375 L279.2031 76.0312 L282.1875 76.0312 ZM284.7656 79 L280.7812 79 L280.7812 78.375 L282.1875 78.375 L282.1875 76.6562 L278.375 76.6562 L278.375 76.0156 L282.2031 70.0938 L283.3594 70.0938 L283.3594 76.0312 L285.0312 76.0312 L285.0312 76.6562 L283.3594 76.6562 L283.3594 78.375 L284.7656 78.375 L284.7656 79 Z" style="fill:black; stroke:none;" /><rect height="13" style="stroke:none;" width="7" x="264" y="68" /><path d="M265.8281 80.25 Q266.2969 80.5938 267.1719 80.5938 Q268.0625 80.5938 268.5781 80.0703 Q269.0938 79.5469 269.0938 78.6562 Q269.0938 77.4219 268.5625 76.8906 Q268.0156 76.3594 267 76.3594 L266.4375 76.3594 L266.4375 75.7188 L266.7344 75.7188 Q267.4844 75.7188 268 75.2969 Q268.4219 74.9531 268.4219 74.0156 Q268.4219 73.6094 268.1406 73.1406 Q267.6875 72.375 267.1562 72.3906 Q265.8281 72.4375 265.8281 74.7812 L265.8281 80.25 ZM264.75 83.5 L264.75 74.7812 Q264.75 72.3281 266.0781 72 Q266.7656 71.8125 267.25 71.8125 Q268.3438 71.8125 269.0469 72.6719 Q269.6094 73.3594 269.6094 73.9375 Q269.6094 74.7812 269.2031 75.2656 Q268.7969 75.75 268.0625 75.9844 Q269.1406 76.1406 269.75 76.7812 Q270.3281 77.4062 270.3281 78.6328 Q270.3281 79.8594 269.5078 80.5156 Q268.6875 81.1719 267.1406 81.1719 Q266.1875 81.1719 265.8281 81.0312 L265.8281 83.5 L264.75 83.5 Z" style="fill:black; stroke:none;" /></g></g></svg>