<svg xmlns="http://www.w3.org/2000/svg" style="fill-opacity:1; color-rendering:auto; color-interpolation:auto; text-rendering:auto; stroke:black; stroke-linecap:square; stroke-miterlimit:10; shape-rendering:auto; stroke-opacity:1; fill:black; stroke-dasharray:none; font-weight:normal; stroke-width:1; font-family:'Dialog'; font-style:normal; stroke-linejoin:miter; font-size:12px; stroke-dashoffset:0; image-rendering:auto;"><defs id="genericDefs" /><g><defs id="defs1"><clipPath clipPathUnits="userSpaceOnUse" id="clipPath1"><path d="M238 82 L260 82 L260 104 L238 104 L238 82 Z" /></clipPath><clipPath clipPathUnits="userSpaceOnUse" id="clipPath2"><path d="M208 145 C208 151.0751 203.0751 156 197 156 C190.9249 156 186 151.0751 186 145 C186 138.9249 190.9249 134 197 134 C203.0751 134 208 138.9249 208 145 Z" /></clipPath><clipPath clipPathUnits="userSpaceOnUse" id="clipPath3"><path d="M134 186 L156 186 L156 208 L134 208 L134 186 Z" /></clipPath><clipPath clipPathUnits="userSpaceOnUse" id="clipPath4"><path d="M104 197 C104 203.0751 99.0751 208 93 208 C86.9249 208 82 203.0751 82 197 C82 190.9249 86.9249 186 93 186 C99.0751 186 104 190.9249 104 197 Z" /></clipPath><clipPath clipPathUnits="userSpaceOnUse" id="clipPath5"><path d="M93 238 L104 260 L82 260 Z" style="fill-rule:evenodd;" /></clipPath><clipPath clipPathUnits="userSpaceOnUse" id="clipPath6"><path d="M52 197 C52 203.0751 47.0751 208 41 208 C34.9249 208 30 203.0751 30 197 C30 190.9249 34.9249 186 41 186 C47.0751 186 52 190.9249 52 197 Z" /></clipPath><clipPath clipPathUnits="userSpaceOnUse" id="clipPath7"><path d="M134 82 L156 82 L156 104 L134 104 L134 82 Z" /></clipPath><clipPath clipPathUnits="userSpaceOnUse" id="clipPath8"><path d="M104 93 C104 99.0751 99.0751 104 93 104 C86.9249 104 82 99.0751 82 93 C82 86.9249 86.9249 82 93 82 C99.0751 82 104 86.9249 104 93 Z" /></clipPath><clipPath clipPathUnits="userSpaceOnUse" id="clipPath9"><path d="M93 134 L104 156 L82 156 Z" style="fill-rule:evenodd;" /></clipPath><clipPath clipPathUnits="userSpaceOnUse" id="clipPath10"><path d="M186 30 L208 30 L208 52 L186 52 L186 30 Z" /></clipPath><clipPath clipPathUnits="userSpaceOnUse" id="clipPath11"><path d="M156 41 C156 47.0751 151.0751 52 145 52 C138.9249 52 134 47.0751 134 41 C134 34.9249 138.9249 30 145 30 C151.0751 30 156 34.9249 156 41 Z" /></clipPath><clipPath clipPathUnits="userSpaceOnUse" id="clipPath12"><path d="M93 30 L104 41 L93 52 L82 41 Z" style="fill-rule:evenodd;" /></clipPath></defs><g style="fill:white; text-rendering:optimizeSpeed; stroke:white;"><rect height="290" style="stroke:none;" width="290" x="0" y="0" /></g><g ID="l-1:1,2" style="text-rendering:optimizeSpeed;"><polygon points=" 249 93 197 145" style="fill:none;" /></g><g ID="l-1:1,3" style="text-rendering:optimizeSpeed;"><polygon points=" 249 93 197 41" style="fill:none;" /></g><g ID="r-1:1" style="fill:white; text-rendering:optimizeSpeed; stroke:white;" wurcs_mono_id="1"><rect height="22" style="clip-path:url(#clipPath1); stroke:none;" width="22" x="238" y="82" /><rect height="22" style="clip-path:url(#clipPath1); fill:rgb(255,212,0); stroke:none;" width="22" x="238" y="82" /><rect height="22" style="clip-path:url(#clipPath1); fill:none; stroke:black;" width="22" x="238" y="82" /><rect height="22" style="fill:none; stroke:black;" width="22" x="238" y="82" /></g><g style="font-style:italic; text-rendering:optimizeSpeed; font-size:10px; font-family:'SansSerif';"><path d="M250.0938 90.1562 Q249.375 90.1562 248.8359 90.7188 Q248.2969 91.2812 248.0781 92.2656 Q247.875 93.25 248.1719 93.8125 Q248.4688 94.375 249.2031 94.375 Q249.9219 94.375 250.4609 93.8125 Q251 93.25 251.2031 92.2656 Q251.4062 91.2969 251.1094 90.7266 Q250.8125 90.1562 250.0938 90.1562 ZM250.25 89.4062 Q251.4219 89.4062 251.9297 90.1641 Q252.4375 90.9219 252.1562 92.2656 Q251.875 93.6094 251.0391 94.375 Q250.2031 95.1406 249.0312 95.1406 Q247.8594 95.1406 247.3516 94.375 Q246.8438 93.6094 247.125 92.2656 Q247.4062 90.9219 248.2422 90.1641 Q249.0781 89.4062 250.25 89.4062 Z" style="stroke:none;" /></g><g ID="l-1:2,4" style="text-rendering:optimizeSpeed;"><polygon points=" 197 145 145 197" style="fill:none;" /></g><g ID="l-1:2,5" style="text-rendering:optimizeSpeed;"><polygon points=" 197 145 145 93" style="fill:none;" /></g><g ID="r-1:2" style="fill:white; text-rendering:optimizeSpeed; stroke:white;" wurcs_mono_id="2"><circle cx="197" cy="145" r="11" style="clip-path:url(#clipPath2); stroke:none;" /><rect height="22" style="clip-path:url(#clipPath2); fill:rgb(255,212,0); stroke:none;" width="22" x="186" y="134" /><rect height="22" style="clip-path:url(#clipPath2); fill:none; stroke:black;" width="22" x="186" y="134" /><circle cx="197" cy="145" r="11" style="fill:none; stroke:black;" /></g><g ID="l-1:4,6" style="text-rendering:optimizeSpeed;"><polygon points=" 145 197 93 197" style="fill:none;" /></g><g ID="r-1:4" style="fill:white; text-rendering:optimizeSpeed; stroke:white;" wurcs_mono_id="3"><rect height="22" style="clip-path:url(#clipPath3); stroke:none;" width="22" x="134" y="186" /><rect height="22" style="clip-path:url(#clipPath3); fill:rgb(0,144,188); stroke:none;" width="22" x="134" y="186" /><rect height="22" style="clip-path:url(#clipPath3); fill:none; stroke:black;" width="22" x="134" y="186" /><rect height="22" style="fill:none; stroke:black;" width="22" x="134" y="186" /></g><g ID="l-1:6,7" style="text-rendering:optimizeSpeed;"><polygon points=" 93 197 93 249" style="fill:none;" /></g><g ID="l-1:6,8" style="text-rendering:optimizeSpeed;"><polygon points=" 93 197 41 197" style="fill:none;" /></g><g ID="r-1:6" style="fill:white; text-rendering:optimizeSpeed; stroke:white;" wurcs_mono_id="4"><circle cx="93" cy="197" r="11" style="clip-path:url(#clipPath4); stroke:none;" /><rect height="22" style="clip-path:url(#clipPath4); fill:rgb(255,212,0); stroke:none;" width="22" x="82" y="186" /><rect height="22" style="clip-path:url(#clipPath4); fill:none; stroke:black;" width="22" x="82" y="186" /><circle cx="93" cy="197" r="11" style="fill:none; stroke:black;" /></g><g ID="r-1:7" style="fill:white; text-rendering:optimizeSpeed; stroke:white;" wurcs_mono_id="5"><polygon points=" 93 238 104 260 82 260" style="stroke:none; clip-path:url(#clipPath5);" /><rect height="22" style="clip-path:url(#clipPath5); fill:rgb(237,28,36); stroke:none;" width="22" x="82" y="238" /><rect height="22" style="clip-path:url(#clipPath5); fill:none; stroke:black;" width="22" x="82" y="238" /><polygon points=" 93 238 104 260 82 260" style="fill:none; stroke:black;" /></g><g ID="r-1:8" style="fill:white; text-rendering:optimizeSpeed; stroke:white;" wurcs_mono_id="6"><circle cx="41" cy="197" r="11" style="clip-path:url(#clipPath6); stroke:none;" /><rect height="22" style="clip-path:url(#clipPath6); fill:rgb(255,212,0); stroke:none;" width="22" x="30" y="186" /><rect height="22" style="clip-path:url(#clipPath6); fill:none; stroke:black;" width="22" x="30" y="186" /><circle cx="41" cy="197" r="11" style="fill:none; stroke:black;" /></g><g ID="li-1:6,7" style="fill:white; text-rendering:optimizeSpeed; font-family:'Serif'; stroke:white;"><rect height="9" style="stroke:none;" width="7" x="97" y="211" /><path d="M98.5312 213.3438 L97.875 213.3438 L97.875 211.7812 Q98.5 211.4375 99.1406 211.2656 Q99.7812 211.0938 100.3906 211.0938 Q101.75 211.0938 102.5391 211.7578 Q103.3281 212.4219 103.3281 213.5469 Q103.3281 214.8438 101.5469 216.625 Q101.4062 216.7656 101.3281 216.8281 L99.125 219.0312 L102.7656 219.0312 L102.7656 217.9531 L103.4531 217.9531 L103.4531 220 L97.8125 220 L97.8125 219.3594 L100.4688 216.7188 Q101.3438 215.8281 101.7188 215.0938 Q102.0938 214.3594 102.0938 213.5469 Q102.0938 212.6719 101.6328 212.1719 Q101.1719 211.6719 100.375 211.6719 Q99.5312 211.6719 99.0781 212.0859 Q98.625 212.5 98.5312 213.3438 Z" style="fill:black; stroke:none;" /><rect height="8" style="stroke:none;" width="8" x="97" y="226" /><path d="M102.1875 232.4688 L101.9531 233.1094 Q101.7656 233.625 101.2031 233.9375 Q100.8438 234.1562 100.2031 234.1406 Q99.0469 234.1406 98.3281 233.2344 Q97.5938 232.3281 97.5938 230.8594 Q97.5938 229.4219 98.3281 228.4844 Q99.0156 227.5938 100.4531 227.6094 Q101.4531 227.6094 101.9531 228 Q102.4062 228.3438 102.5781 229.0938 L102.625 229.3125 L102.8438 228.6719 Q103.0625 228.0469 103.6562 227.75 L104.25 227.75 L104.25 228.0938 Q103.6875 228.2656 103.5 228.8125 L102.8906 230.4844 L103.2969 232.2812 Q103.5 233.2031 103.7344 233.2969 Q104.0469 233.4375 104.7812 233 L104.7812 233.7188 Q103.5938 234.4062 102.75 233.6875 Q102.375 233.3594 102.2656 232.875 L102.1875 232.4688 ZM101.9219 231.3125 L101.5625 229.5938 Q101.2656 228.2188 100.4688 228.2188 Q99.7969 228.2031 99.2812 228.9375 Q98.8594 229.5156 98.8594 230.875 Q98.8594 232.1719 99.2812 232.8281 Q99.75 233.5469 100.5312 233.5 Q101.2031 233.4375 101.6875 232 L101.9219 231.3125 Z" style="fill:black; stroke:none;" /></g><g ID="li-1:6,8" style="fill:white; text-rendering:optimizeSpeed; font-family:'Serif'; stroke:white;"><rect height="10" style="stroke:none;" width="7" x="70" y="200" /><path d="M71.1719 201.625 Q71.8594 201.3594 72.4844 201.2266 Q73.1094 201.0938 73.6562 201.0938 Q74.9531 201.0938 75.6719 201.6484 Q76.3906 202.2031 76.3906 203.1875 Q76.3906 203.9688 75.8906 204.5 Q75.3906 205.0312 74.4844 205.2188 Q75.5625 205.375 76.1562 206.0078 Q76.75 206.6406 76.75 207.6406 Q76.75 208.8594 75.9219 209.5156 Q75.0938 210.1719 73.5469 210.1719 Q72.8594 210.1719 72.2109 210.0234 Q71.5625 209.875 70.9219 209.5781 L70.9219 207.875 L71.5781 207.875 Q71.625 208.7188 72.1406 209.1562 Q72.6562 209.5938 73.5781 209.5938 Q74.4688 209.5938 74.9922 209.0703 Q75.5156 208.5469 75.5156 207.6562 Q75.5156 206.625 74.9766 206.0938 Q74.4375 205.5625 73.4062 205.5625 L72.8594 205.5625 L72.8594 204.9531 L73.1406 204.9531 Q74.1719 204.9531 74.6875 204.5312 Q75.2031 204.1094 75.2031 203.25 Q75.2031 202.4844 74.7812 202.0781 Q74.3594 201.6719 73.5625 201.6719 Q72.7656 201.6719 72.3359 202.0469 Q71.9062 202.4219 71.8281 203.1562 L71.1719 203.1562 L71.1719 201.625 Z" style="fill:black; stroke:none;" /><rect height="8" style="stroke:none;" width="8" x="56" y="201" /><path d="M61.1875 207.4688 L60.9531 208.1094 Q60.7656 208.625 60.2031 208.9375 Q59.8438 209.1562 59.2031 209.1406 Q58.0469 209.1406 57.3281 208.2344 Q56.5938 207.3281 56.5938 205.8594 Q56.5938 204.4219 57.3281 203.4844 Q58.0156 202.5938 59.4531 202.6094 Q60.4531 202.6094 60.9531 203 Q61.4062 203.3438 61.5781 204.0938 L61.625 204.3125 L61.8438 203.6719 Q62.0625 203.0469 62.6562 202.75 L63.25 202.75 L63.25 203.0938 Q62.6875 203.2656 62.5 203.8125 L61.8906 205.4844 L62.2969 207.2812 Q62.5 208.2031 62.7344 208.2969 Q63.0469 208.4375 63.7812 208 L63.7812 208.7188 Q62.5938 209.4062 61.75 208.6875 Q61.375 208.3594 61.2656 207.875 L61.1875 207.4688 ZM60.9219 206.3125 L60.5625 204.5938 Q60.2656 203.2188 59.4688 203.2188 Q58.7969 203.2031 58.2812 203.9375 Q57.8594 204.5156 57.8594 205.875 Q57.8594 207.1719 58.2812 207.8281 Q58.75 208.5469 59.5312 208.5 Q60.2031 208.4375 60.6875 207 L60.9219 206.3125 Z" style="fill:black; stroke:none;" /></g><g ID="li-1:4,6" style="fill:white; text-rendering:optimizeSpeed; font-family:'Serif'; stroke:white;"><rect height="11" style="stroke:none;" width="20" x="116" y="199" /><path d="M117.1719 201.625 Q117.8594 201.3594 118.4844 201.2266 Q119.1094 201.0938 119.6562 201.0938 Q120.9531 201.0938 121.6719 201.6484 Q122.3906 202.2031 122.3906 203.1875 Q122.3906 203.9688 121.8906 204.5 Q121.3906 205.0312 120.4844 205.2188 Q121.5625 205.375 122.1562 206.0078 Q122.75 206.6406 122.75 207.6406 Q122.75 208.8594 121.9219 209.5156 Q121.0938 210.1719 119.5469 210.1719 Q118.8594 210.1719 118.2109 210.0234 Q117.5625 209.875 116.9219 209.5781 L116.9219 207.875 L117.5781 207.875 Q117.625 208.7188 118.1406 209.1562 Q118.6562 209.5938 119.5781 209.5938 Q120.4688 209.5938 120.9922 209.0703 Q121.5156 208.5469 121.5156 207.6562 Q121.5156 206.625 120.9766 206.0938 Q120.4375 205.5625 119.4062 205.5625 L118.8594 205.5625 L118.8594 204.9531 L119.1406 204.9531 Q120.1719 204.9531 120.6875 204.5312 Q121.2031 204.1094 121.2031 203.25 Q121.2031 202.4844 120.7812 202.0781 Q120.3594 201.6719 119.5625 201.6719 Q118.7656 201.6719 118.3359 202.0469 Q117.9062 202.4219 117.8281 203.1562 L117.1719 203.1562 L117.1719 201.625 ZM126.7441 201.25 L127.6816 201.25 L124.5723 211.1094 L123.6348 211.1094 L126.7441 201.25 ZM131.8652 207.0312 L131.8652 202.375 L128.8809 207.0312 L131.8652 207.0312 ZM134.4434 210 L130.459 210 L130.459 209.375 L131.8652 209.375 L131.8652 207.6562 L128.0527 207.6562 L128.0527 207.0156 L131.8809 201.0938 L133.0371 201.0938 L133.0371 207.0312 L134.709 207.0312 L134.709 207.6562 L133.0371 207.6562 L133.0371 209.375 L134.4434 209.375 L134.4434 210 Z" style="fill:black; stroke:none;" /><rect height="13" style="stroke:none;" width="7" x="108" y="198" /><path d="M109.8281 210.25 Q110.2969 210.5938 111.1719 210.5938 Q112.0625 210.5938 112.5781 210.0703 Q113.0938 209.5469 113.0938 208.6562 Q113.0938 207.4219 112.5625 206.8906 Q112.0156 206.3594 111 206.3594 L110.4375 206.3594 L110.4375 205.7188 L110.7344 205.7188 Q111.4844 205.7188 112 205.2969 Q112.4219 204.9531 112.4219 204.0156 Q112.4219 203.6094 112.1406 203.1406 Q111.6875 202.375 111.1562 202.3906 Q109.8281 202.4375 109.8281 204.7812 L109.8281 210.25 ZM108.75 213.5 L108.75 204.7812 Q108.75 202.3281 110.0781 202 Q110.7656 201.8125 111.25 201.8125 Q112.3438 201.8125 113.0469 202.6719 Q113.6094 203.3594 113.6094 203.9375 Q113.6094 204.7812 113.2031 205.2656 Q112.7969 205.75 112.0625 205.9844 Q113.1406 206.1406 113.75 206.7812 Q114.3281 207.4062 114.3281 208.6328 Q114.3281 209.8594 113.5078 210.5156 Q112.6875 211.1719 111.1406 211.1719 Q110.1875 211.1719 109.8281 211.0312 L109.8281 213.5 L108.75 213.5 Z" style="fill:black; stroke:none;" /></g><g ID="l-1:5,9" style="text-rendering:optimizeSpeed;"><polygon points=" 145 93 93 93" style="fill:none;" /></g><g ID="r-1:5" style="fill:white; text-rendering:optimizeSpeed; stroke:white;" wurcs_mono_id="7"><rect height="22" style="clip-path:url(#clipPath7); stroke:none;" width="22" x="134" y="82" /><rect height="22" style="clip-path:url(#clipPath7); fill:rgb(0,144,188); stroke:none;" width="22" x="134" y="82" /><rect height="22" style="clip-path:url(#clipPath7); fill:none; stroke:black;" width="22" x="134" y="82" /><rect height="22" style="fill:none; stroke:black;" width="22" x="134" y="82" /></g><g ID="l-1:9,10" style="text-rendering:optimizeSpeed;"><polygon points=" 93 93 93 145" style="fill:none;" /></g><g ID="r-1:9" style="fill:white; text-rendering:optimizeSpeed; stroke:white;" wurcs_mono_id="8"><circle cx="93" cy="93" r="11" style="clip-path:url(#clipPath8); stroke:none;" /><rect height="22" style="clip-path:url(#clipPath8); fill:rgb(255,212,0); stroke:none;" width="22" x="82" y="82" /><rect height="22" style="clip-path:url(#clipPath8); fill:none; stroke:black;" width="22" x="82" y="82" /><circle cx="93" cy="93" r="11" style="fill:none; stroke:black;" /></g><g ID="r-1:10" style="fill:white; text-rendering:optimizeSpeed; stroke:white;" wurcs_mono_id="9"><polygon points=" 93 134 104 156 82 156" style="stroke:none; clip-path:url(#clipPath9);" /><rect height="22" style="clip-path:url(#clipPath9); fill:rgb(237,28,36); stroke:none;" width="22" x="82" y="134" /><rect height="22" style="clip-path:url(#clipPath9); fill:none; stroke:black;" width="22" x="82" y="134" /><polygon points=" 93 134 104 156 82 156" style="fill:none; stroke:black;" /></g><g ID="li-1:9,10" style="fill:white; text-rendering:optimizeSpeed; font-family:'Serif'; stroke:white;"><rect height="9" style="stroke:none;" width="7" x="97" y="107" /><path d="M98.5312 109.3438 L97.875 109.3438 L97.875 107.7812 Q98.5 107.4375 99.1406 107.2656 Q99.7812 107.0938 100.3906 107.0938 Q101.75 107.0938 102.5391 107.7578 Q103.3281 108.4219 103.3281 109.5469 Q103.3281 110.8438 101.5469 112.625 Q101.4062 112.7656 101.3281 112.8281 L99.125 115.0312 L102.7656 115.0312 L102.7656 113.9531 L103.4531 113.9531 L103.4531 116 L97.8125 116 L97.8125 115.3594 L100.4688 112.7188 Q101.3438 111.8281 101.7188 111.0938 Q102.0938 110.3594 102.0938 109.5469 Q102.0938 108.6719 101.6328 108.1719 Q101.1719 107.6719 100.375 107.6719 Q99.5312 107.6719 99.0781 108.0859 Q98.625 108.5 98.5312 109.3438 Z" style="fill:black; stroke:none;" /><rect height="8" style="stroke:none;" width="8" x="97" y="122" /><path d="M102.1875 128.4688 L101.9531 129.1094 Q101.7656 129.625 101.2031 129.9375 Q100.8438 130.1562 100.2031 130.1406 Q99.0469 130.1406 98.3281 129.2344 Q97.5938 128.3281 97.5938 126.8594 Q97.5938 125.4219 98.3281 124.4844 Q99.0156 123.5938 100.4531 123.6094 Q101.4531 123.6094 101.9531 124 Q102.4062 124.3438 102.5781 125.0938 L102.625 125.3125 L102.8438 124.6719 Q103.0625 124.0469 103.6562 123.75 L104.25 123.75 L104.25 124.0938 Q103.6875 124.2656 103.5 124.8125 L102.8906 126.4844 L103.2969 128.2812 Q103.5 129.2031 103.7344 129.2969 Q104.0469 129.4375 104.7812 129 L104.7812 129.7188 Q103.5938 130.4062 102.75 129.6875 Q102.375 129.3594 102.2656 128.875 L102.1875 128.4688 ZM101.9219 127.3125 L101.5625 125.5938 Q101.2656 124.2188 100.4688 124.2188 Q99.7969 124.2031 99.2812 124.9375 Q98.8594 125.5156 98.8594 126.875 Q98.8594 128.1719 99.2812 128.8281 Q99.75 129.5469 100.5312 129.5 Q101.2031 129.4375 101.6875 128 L101.9219 127.3125 Z" style="fill:black; stroke:none;" /></g><g ID="li-1:5,9" style="fill:white; text-rendering:optimizeSpeed; font-family:'Serif'; stroke:white;"><rect height="11" style="stroke:none;" width="20" x="116" y="95" /><path d="M117.1719 97.625 Q117.8594 97.3594 118.4844 97.2266 Q119.1094 97.0938 119.6562 97.0938 Q120.9531 97.0938 121.6719 97.6484 Q122.3906 98.2031 122.3906 99.1875 Q122.3906 99.9688 121.8906 100.5 Q121.3906 101.0312 120.4844 101.2188 Q121.5625 101.375 122.1562 102.0078 Q122.75 102.6406 122.75 103.6406 Q122.75 104.8594 121.9219 105.5156 Q121.0938 106.1719 119.5469 106.1719 Q118.8594 106.1719 118.2109 106.0234 Q117.5625 105.875 116.9219 105.5781 L116.9219 103.875 L117.5781 103.875 Q117.625 104.7188 118.1406 105.1562 Q118.6562 105.5938 119.5781 105.5938 Q120.4688 105.5938 120.9922 105.0703 Q121.5156 104.5469 121.5156 103.6562 Q121.5156 102.625 120.9766 102.0938 Q120.4375 101.5625 119.4062 101.5625 L118.8594 101.5625 L118.8594 100.9531 L119.1406 100.9531 Q120.1719 100.9531 120.6875 100.5312 Q121.2031 100.1094 121.2031 99.25 Q121.2031 98.4844 120.7812 98.0781 Q120.3594 97.6719 119.5625 97.6719 Q118.7656 97.6719 118.3359 98.0469 Q117.9062 98.4219 117.8281 99.1562 L117.1719 99.1562 L117.1719 97.625 ZM126.7441 97.25 L127.6816 97.25 L124.5723 107.1094 L123.6348 107.1094 L126.7441 97.25 ZM131.8652 103.0312 L131.8652 98.375 L128.8809 103.0312 L131.8652 103.0312 ZM134.4434 106 L130.459 106 L130.459 105.375 L131.8652 105.375 L131.8652 103.6562 L128.0527 103.6562 L128.0527 103.0156 L131.8809 97.0938 L133.0371 97.0938 L133.0371 103.0312 L134.709 103.0312 L134.709 103.6562 L133.0371 103.6562 L133.0371 105.375 L134.4434 105.375 L134.4434 106 Z" style="fill:black; stroke:none;" /><rect height="13" style="stroke:none;" width="7" x="108" y="94" /><path d="M109.8281 106.25 Q110.2969 106.5938 111.1719 106.5938 Q112.0625 106.5938 112.5781 106.0703 Q113.0938 105.5469 113.0938 104.6562 Q113.0938 103.4219 112.5625 102.8906 Q112.0156 102.3594 111 102.3594 L110.4375 102.3594 L110.4375 101.7188 L110.7344 101.7188 Q111.4844 101.7188 112 101.2969 Q112.4219 100.9531 112.4219 100.0156 Q112.4219 99.6094 112.1406 99.1406 Q111.6875 98.375 111.1562 98.3906 Q109.8281 98.4375 109.8281 100.7812 L109.8281 106.25 ZM108.75 109.5 L108.75 100.7812 Q108.75 98.3281 110.0781 98 Q110.7656 97.8125 111.25 97.8125 Q112.3438 97.8125 113.0469 98.6719 Q113.6094 99.3594 113.6094 99.9375 Q113.6094 100.7812 113.2031 101.2656 Q112.7969 101.75 112.0625 101.9844 Q113.1406 102.1406 113.75 102.7812 Q114.3281 103.4062 114.3281 104.6328 Q114.3281 105.8594 113.5078 106.5156 Q112.6875 107.1719 111.1406 107.1719 Q110.1875 107.1719 109.8281 107.0312 L109.8281 109.5 L108.75 109.5 Z" style="fill:black; stroke:none;" /></g><g ID="li-1:2,4" style="fill:white; text-rendering:optimizeSpeed; font-family:'Serif'; stroke:white;"><rect height="11" style="stroke:none;" width="19" x="176" y="161" /><path d="M177.1719 163.625 Q177.8594 163.3594 178.4844 163.2266 Q179.1094 163.0938 179.6562 163.0938 Q180.9531 163.0938 181.6719 163.6484 Q182.3906 164.2031 182.3906 165.1875 Q182.3906 165.9688 181.8906 166.5 Q181.3906 167.0312 180.4844 167.2188 Q181.5625 167.375 182.1562 168.0078 Q182.75 168.6406 182.75 169.6406 Q182.75 170.8594 181.9219 171.5156 Q181.0938 172.1719 179.5469 172.1719 Q178.8594 172.1719 178.2109 172.0234 Q177.5625 171.875 176.9219 171.5781 L176.9219 169.875 L177.5781 169.875 Q177.625 170.7188 178.1406 171.1562 Q178.6562 171.5938 179.5781 171.5938 Q180.4688 171.5938 180.9922 171.0703 Q181.5156 170.5469 181.5156 169.6562 Q181.5156 168.625 180.9766 168.0938 Q180.4375 167.5625 179.4062 167.5625 L178.8594 167.5625 L178.8594 166.9531 L179.1406 166.9531 Q180.1719 166.9531 180.6875 166.5312 Q181.2031 166.1094 181.2031 165.25 Q181.2031 164.4844 180.7812 164.0781 Q180.3594 163.6719 179.5625 163.6719 Q178.7656 163.6719 178.3359 164.0469 Q177.9062 164.4219 177.8281 165.1562 L177.1719 165.1562 L177.1719 163.625 ZM186.7441 163.25 L187.6816 163.25 L184.5723 173.1094 L183.6348 173.1094 L186.7441 163.25 ZM191.5996 171.5938 Q192.4277 171.5938 192.873 170.9844 Q193.3184 170.375 193.3184 169.2344 Q193.3184 168.1094 192.873 167.5 Q192.4277 166.8906 191.5996 166.8906 Q190.7715 166.8906 190.3262 167.4766 Q189.8809 168.0625 189.8809 169.1719 Q189.8809 170.3281 190.3262 170.9609 Q190.7715 171.5938 191.5996 171.5938 ZM189.6934 167.1875 Q190.0996 166.75 190.5996 166.5312 Q191.0996 166.3125 191.7402 166.3125 Q193.0371 166.3125 193.7949 167.0938 Q194.5527 167.875 194.5527 169.2344 Q194.5527 170.5625 193.7402 171.3672 Q192.9277 172.1719 191.5527 172.1719 Q190.0684 172.1719 189.2715 171.0625 Q188.4746 169.9531 188.4746 167.9062 Q188.4746 165.6094 189.4199 164.3516 Q190.3652 163.0938 192.084 163.0938 Q192.5527 163.0938 193.0605 163.1797 Q193.5684 163.2656 194.0996 163.4375 L194.0996 164.8906 L193.4434 164.8906 Q193.3652 164.2969 192.9824 163.9844 Q192.5996 163.6719 191.959 163.6719 Q190.8184 163.6719 190.2637 164.5312 Q189.709 165.3906 189.6934 167.1875 Z" style="fill:black; stroke:none;" /><rect height="13" style="stroke:none;" width="7" x="163" y="179" /><path d="M164.8281 191.25 Q165.2969 191.5938 166.1719 191.5938 Q167.0625 191.5938 167.5781 191.0703 Q168.0938 190.5469 168.0938 189.6562 Q168.0938 188.4219 167.5625 187.8906 Q167.0156 187.3594 166 187.3594 L165.4375 187.3594 L165.4375 186.7188 L165.7344 186.7188 Q166.4844 186.7188 167 186.2969 Q167.4219 185.9531 167.4219 185.0156 Q167.4219 184.6094 167.1406 184.1406 Q166.6875 183.375 166.1562 183.3906 Q164.8281 183.4375 164.8281 185.7812 L164.8281 191.25 ZM163.75 194.5 L163.75 185.7812 Q163.75 183.3281 165.0781 183 Q165.7656 182.8125 166.25 182.8125 Q167.3438 182.8125 168.0469 183.6719 Q168.6094 184.3594 168.6094 184.9375 Q168.6094 185.7812 168.2031 186.2656 Q167.7969 186.75 167.0625 186.9844 Q168.1406 187.1406 168.75 187.7812 Q169.3281 188.4062 169.3281 189.6328 Q169.3281 190.8594 168.5078 191.5156 Q167.6875 192.1719 166.1406 192.1719 Q165.1875 192.1719 164.8281 192.0312 L164.8281 194.5 L163.75 194.5 Z" style="fill:black; stroke:none;" /></g><g ID="li-1:2,5" style="fill:white; text-rendering:optimizeSpeed; font-family:'Serif'; stroke:white;"><rect height="11" style="stroke:none;" width="19" x="165" y="128" /><path d="M166.1719 130.625 Q166.8594 130.3594 167.4844 130.2266 Q168.1094 130.0938 168.6562 130.0938 Q169.9531 130.0938 170.6719 130.6484 Q171.3906 131.2031 171.3906 132.1875 Q171.3906 132.9688 170.8906 133.5 Q170.3906 134.0312 169.4844 134.2188 Q170.5625 134.375 171.1562 135.0078 Q171.75 135.6406 171.75 136.6406 Q171.75 137.8594 170.9219 138.5156 Q170.0938 139.1719 168.5469 139.1719 Q167.8594 139.1719 167.2109 139.0234 Q166.5625 138.875 165.9219 138.5781 L165.9219 136.875 L166.5781 136.875 Q166.625 137.7188 167.1406 138.1562 Q167.6562 138.5938 168.5781 138.5938 Q169.4688 138.5938 169.9922 138.0703 Q170.5156 137.5469 170.5156 136.6562 Q170.5156 135.625 169.9766 135.0938 Q169.4375 134.5625 168.4062 134.5625 L167.8594 134.5625 L167.8594 133.9531 L168.1406 133.9531 Q169.1719 133.9531 169.6875 133.5312 Q170.2031 133.1094 170.2031 132.25 Q170.2031 131.4844 169.7812 131.0781 Q169.3594 130.6719 168.5625 130.6719 Q167.7656 130.6719 167.3359 131.0469 Q166.9062 131.4219 166.8281 132.1562 L166.1719 132.1562 L166.1719 130.625 ZM175.7441 130.25 L176.6816 130.25 L173.5723 140.1094 L172.6348 140.1094 L175.7441 130.25 ZM180.5996 138.5938 Q181.4277 138.5938 181.873 137.9844 Q182.3184 137.375 182.3184 136.2344 Q182.3184 135.1094 181.873 134.5 Q181.4277 133.8906 180.5996 133.8906 Q179.7715 133.8906 179.3262 134.4766 Q178.8809 135.0625 178.8809 136.1719 Q178.8809 137.3281 179.3262 137.9609 Q179.7715 138.5938 180.5996 138.5938 ZM178.6934 134.1875 Q179.0996 133.75 179.5996 133.5312 Q180.0996 133.3125 180.7402 133.3125 Q182.0371 133.3125 182.7949 134.0938 Q183.5527 134.875 183.5527 136.2344 Q183.5527 137.5625 182.7402 138.3672 Q181.9277 139.1719 180.5527 139.1719 Q179.0684 139.1719 178.2715 138.0625 Q177.4746 136.9531 177.4746 134.9062 Q177.4746 132.6094 178.4199 131.3516 Q179.3652 130.0938 181.084 130.0938 Q181.5527 130.0938 182.0605 130.1797 Q182.5684 130.2656 183.0996 130.4375 L183.0996 131.8906 L182.4434 131.8906 Q182.3652 131.2969 181.9824 130.9844 Q181.5996 130.6719 180.959 130.6719 Q179.8184 130.6719 179.2637 131.5312 Q178.709 132.3906 178.6934 134.1875 Z" style="fill:black; stroke:none;" /><rect height="13" style="stroke:none;" width="7" x="152" y="108" /><path d="M153.8281 120.25 Q154.2969 120.5938 155.1719 120.5938 Q156.0625 120.5938 156.5781 120.0703 Q157.0938 119.5469 157.0938 118.6562 Q157.0938 117.4219 156.5625 116.8906 Q156.0156 116.3594 155 116.3594 L154.4375 116.3594 L154.4375 115.7188 L154.7344 115.7188 Q155.4844 115.7188 156 115.2969 Q156.4219 114.9531 156.4219 114.0156 Q156.4219 113.6094 156.1406 113.1406 Q155.6875 112.375 155.1562 112.3906 Q153.8281 112.4375 153.8281 114.7812 L153.8281 120.25 ZM152.75 123.5 L152.75 114.7812 Q152.75 112.3281 154.0781 112 Q154.7656 111.8125 155.25 111.8125 Q156.3438 111.8125 157.0469 112.6719 Q157.6094 113.3594 157.6094 113.9375 Q157.6094 114.7812 157.2031 115.2656 Q156.7969 115.75 156.0625 115.9844 Q157.1406 116.1406 157.75 116.7812 Q158.3281 117.4062 158.3281 118.6328 Q158.3281 119.8594 157.5078 120.5156 Q156.6875 121.1719 155.1406 121.1719 Q154.1875 121.1719 153.8281 121.0312 L153.8281 123.5 L152.75 123.5 Z" style="fill:black; stroke:none;" /></g><g ID="l-1:3,11" style="text-rendering:optimizeSpeed;"><polygon points=" 197 41 145 41" style="fill:none;" /></g><g ID="r-1:3" style="fill:white; text-rendering:optimizeSpeed; stroke:white;" wurcs_mono_id="10"><rect height="22" style="clip-path:url(#clipPath10); stroke:none;" width="22" x="186" y="30" /><rect height="22" style="clip-path:url(#clipPath10); fill:rgb(0,144,188); stroke:none;" width="22" x="186" y="30" /><rect height="22" style="clip-path:url(#clipPath10); fill:none; stroke:black;" width="22" x="186" y="30" /><rect height="22" style="fill:none; stroke:black;" width="22" x="186" y="30" /></g><g ID="l-1:11,12" style="text-rendering:optimizeSpeed;"><polygon points=" 145 41 93 41" style="fill:none;" /></g><g ID="r-1:11" style="fill:white; text-rendering:optimizeSpeed; stroke:white;" wurcs_mono_id="11"><circle cx="145" cy="41" r="11" style="clip-path:url(#clipPath11); stroke:none;" /><rect height="22" style="clip-path:url(#clipPath11); fill:rgb(255,212,0); stroke:none;" width="22" x="134" y="30" /><rect height="22" style="clip-path:url(#clipPath11); fill:none; stroke:black;" width="22" x="134" y="30" /><circle cx="145" cy="41" r="11" style="fill:none; stroke:black;" /></g><g ID="r-1:12" style="fill:white; text-rendering:optimizeSpeed; stroke:white;" wurcs_mono_id="12"><polygon points=" 93 30 104 41 93 52 82 41" style="stroke:none; clip-path:url(#clipPath12);" /><rect height="22" style="clip-path:url(#clipPath12); fill:rgb(165,67,153); stroke:none;" width="22" x="82" y="30" /><rect height="22" style="clip-path:url(#clipPath12); fill:none; stroke:black;" width="22" x="82" y="30" /><polygon points=" 93 30 104 41 93 52 82 41" style="fill:none; stroke:black;" /></g><g ID="li-1:11,12" style="fill:white; text-rendering:optimizeSpeed; font-family:'Serif'; stroke:white;"><rect height="10" style="stroke:none;" width="7" x="122" y="44" /><path d="M123.1719 45.625 Q123.8594 45.3594 124.4844 45.2266 Q125.1094 45.0938 125.6562 45.0938 Q126.9531 45.0938 127.6719 45.6484 Q128.3906 46.2031 128.3906 47.1875 Q128.3906 47.9688 127.8906 48.5 Q127.3906 49.0312 126.4844 49.2188 Q127.5625 49.375 128.1562 50.0078 Q128.75 50.6406 128.75 51.6406 Q128.75 52.8594 127.9219 53.5156 Q127.0938 54.1719 125.5469 54.1719 Q124.8594 54.1719 124.2109 54.0234 Q123.5625 53.875 122.9219 53.5781 L122.9219 51.875 L123.5781 51.875 Q123.625 52.7188 124.1406 53.1562 Q124.6562 53.5938 125.5781 53.5938 Q126.4688 53.5938 126.9922 53.0703 Q127.5156 52.5469 127.5156 51.6562 Q127.5156 50.625 126.9766 50.0938 Q126.4375 49.5625 125.4062 49.5625 L124.8594 49.5625 L124.8594 48.9531 L125.1406 48.9531 Q126.1719 48.9531 126.6875 48.5312 Q127.2031 48.1094 127.2031 47.25 Q127.2031 46.4844 126.7812 46.0781 Q126.3594 45.6719 125.5625 45.6719 Q124.7656 45.6719 124.3359 46.0469 Q123.9062 46.4219 123.8281 47.1562 L123.1719 47.1562 L123.1719 45.625 Z" style="fill:black; stroke:none;" /><rect height="8" style="stroke:none;" width="8" x="108" y="45" /><path d="M113.1875 51.4688 L112.9531 52.1094 Q112.7656 52.625 112.2031 52.9375 Q111.8438 53.1562 111.2031 53.1406 Q110.0469 53.1406 109.3281 52.2344 Q108.5938 51.3281 108.5938 49.8594 Q108.5938 48.4219 109.3281 47.4844 Q110.0156 46.5938 111.4531 46.6094 Q112.4531 46.6094 112.9531 47 Q113.4062 47.3438 113.5781 48.0938 L113.625 48.3125 L113.8438 47.6719 Q114.0625 47.0469 114.6562 46.75 L115.25 46.75 L115.25 47.0938 Q114.6875 47.2656 114.5 47.8125 L113.8906 49.4844 L114.2969 51.2812 Q114.5 52.2031 114.7344 52.2969 Q115.0469 52.4375 115.7812 52 L115.7812 52.7188 Q114.5938 53.4062 113.75 52.6875 Q113.375 52.3594 113.2656 51.875 L113.1875 51.4688 ZM112.9219 50.3125 L112.5625 48.5938 Q112.2656 47.2188 111.4688 47.2188 Q110.7969 47.2031 110.2812 47.9375 Q109.8594 48.5156 109.8594 49.875 Q109.8594 51.1719 110.2812 51.8281 Q110.75 52.5469 111.5312 52.5 Q112.2031 52.4375 112.6875 51 L112.9219 50.3125 Z" style="fill:black; stroke:none;" /></g><g ID="li-1:3,11" style="fill:white; text-rendering:optimizeSpeed; font-family:'Serif'; stroke:white;"><rect height="9" style="stroke:none;" width="8" x="174" y="44" /><path d="M178.1875 50.0312 L178.1875 45.375 L175.2031 50.0312 L178.1875 50.0312 ZM180.7656 53 L176.7812 53 L176.7812 52.375 L178.1875 52.375 L178.1875 50.6562 L174.375 50.6562 L174.375 50.0156 L178.2031 44.0938 L179.3594 44.0938 L179.3594 50.0312 L181.0312 50.0312 L181.0312 50.6562 L179.3594 50.6562 L179.3594 52.375 L180.7656 52.375 L180.7656 53 Z" style="fill:black; stroke:none;" /><rect height="13" style="stroke:none;" width="7" x="160" y="42" /><path d="M161.8281 54.25 Q162.2969 54.5938 163.1719 54.5938 Q164.0625 54.5938 164.5781 54.0703 Q165.0938 53.5469 165.0938 52.6562 Q165.0938 51.4219 164.5625 50.8906 Q164.0156 50.3594 163 50.3594 L162.4375 50.3594 L162.4375 49.7188 L162.7344 49.7188 Q163.4844 49.7188 164 49.2969 Q164.4219 48.9531 164.4219 48.0156 Q164.4219 47.6094 164.1406 47.1406 Q163.6875 46.375 163.1562 46.3906 Q161.8281 46.4375 161.8281 48.7812 L161.8281 54.25 ZM160.75 57.5 L160.75 48.7812 Q160.75 46.3281 162.0781 46 Q162.7656 45.8125 163.25 45.8125 Q164.3438 45.8125 165.0469 46.6719 Q165.6094 47.3594 165.6094 47.9375 Q165.6094 48.7812 165.2031 49.2656 Q164.7969 49.75 164.0625 49.9844 Q165.1406 50.1406 165.75 50.7812 Q166.3281 51.4062 166.3281 52.6328 Q166.3281 53.8594 165.5078 54.5156 Q164.6875 55.1719 163.1406 55.1719 Q162.1875 55.1719 161.8281 55.0312 L161.8281 57.5 L160.75 57.5 Z" style="fill:black; stroke:none;" /></g><g ID="li-1:1,2" style="fill:white; text-rendering:optimizeSpeed; font-family:'Serif'; stroke:white;"><rect height="10" style="stroke:none;" width="7" x="234" y="110" /><path d="M235.1719 111.625 Q235.8594 111.3594 236.4844 111.2266 Q237.1094 111.0938 237.6562 111.0938 Q238.9531 111.0938 239.6719 111.6484 Q240.3906 112.2031 240.3906 113.1875 Q240.3906 113.9688 239.8906 114.5 Q239.3906 115.0312 238.4844 115.2188 Q239.5625 115.375 240.1562 116.0078 Q240.75 116.6406 240.75 117.6406 Q240.75 118.8594 239.9219 119.5156 Q239.0938 120.1719 237.5469 120.1719 Q236.8594 120.1719 236.2109 120.0234 Q235.5625 119.875 234.9219 119.5781 L234.9219 117.875 L235.5781 117.875 Q235.625 118.7188 236.1406 119.1562 Q236.6562 119.5938 237.5781 119.5938 Q238.4688 119.5938 238.9922 119.0703 Q239.5156 118.5469 239.5156 117.6562 Q239.5156 116.625 238.9766 116.0938 Q238.4375 115.5625 237.4062 115.5625 L236.8594 115.5625 L236.8594 114.9531 L237.1406 114.9531 Q238.1719 114.9531 238.6875 114.5312 Q239.2031 114.1094 239.2031 113.25 Q239.2031 112.4844 238.7812 112.0781 Q238.3594 111.6719 237.5625 111.6719 Q236.7656 111.6719 236.3359 112.0469 Q235.9062 112.4219 235.8281 113.1562 L235.1719 113.1562 L235.1719 111.625 Z" style="fill:black; stroke:none;" /><rect height="13" style="stroke:none;" width="7" x="215" y="127" /><path d="M216.8281 139.25 Q217.2969 139.5938 218.1719 139.5938 Q219.0625 139.5938 219.5781 139.0703 Q220.0938 138.5469 220.0938 137.6562 Q220.0938 136.4219 219.5625 135.8906 Q219.0156 135.3594 218 135.3594 L217.4375 135.3594 L217.4375 134.7188 L217.7344 134.7188 Q218.4844 134.7188 219 134.2969 Q219.4219 133.9531 219.4219 133.0156 Q219.4219 132.6094 219.1406 132.1406 Q218.6875 131.375 218.1562 131.3906 Q216.8281 131.4375 216.8281 133.7812 L216.8281 139.25 ZM215.75 142.5 L215.75 133.7812 Q215.75 131.3281 217.0781 131 Q217.7656 130.8125 218.25 130.8125 Q219.3438 130.8125 220.0469 131.6719 Q220.6094 132.3594 220.6094 132.9375 Q220.6094 133.7812 220.2031 134.2656 Q219.7969 134.75 219.0625 134.9844 Q220.1406 135.1406 220.75 135.7812 Q221.3281 136.4062 221.3281 137.6328 Q221.3281 138.8594 220.5078 139.5156 Q219.6875 140.1719 218.1406 140.1719 Q217.1875 140.1719 216.8281 140.0312 L216.8281 142.5 L215.75 142.5 Z" style="fill:black; stroke:none;" /></g><g ID="li-1:1,3" style="fill:white; text-rendering:optimizeSpeed; font-family:'Serif'; stroke:white;"><rect height="10" style="stroke:none;" width="7" x="223" y="77" /><path d="M226.9219 86.5938 Q227.75 86.5938 228.1953 85.9844 Q228.6406 85.375 228.6406 84.2344 Q228.6406 83.1094 228.1953 82.5 Q227.75 81.8906 226.9219 81.8906 Q226.0938 81.8906 225.6484 82.4766 Q225.2031 83.0625 225.2031 84.1719 Q225.2031 85.3281 225.6484 85.9609 Q226.0938 86.5938 226.9219 86.5938 ZM225.0156 82.1875 Q225.4219 81.75 225.9219 81.5312 Q226.4219 81.3125 227.0625 81.3125 Q228.3594 81.3125 229.1172 82.0938 Q229.875 82.875 229.875 84.2344 Q229.875 85.5625 229.0625 86.3672 Q228.25 87.1719 226.875 87.1719 Q225.3906 87.1719 224.5938 86.0625 Q223.7969 84.9531 223.7969 82.9062 Q223.7969 80.6094 224.7422 79.3516 Q225.6875 78.0938 227.4062 78.0938 Q227.875 78.0938 228.3828 78.1797 Q228.8906 78.2656 229.4219 78.4375 L229.4219 79.8906 L228.7656 79.8906 Q228.6875 79.2969 228.3047 78.9844 Q227.9219 78.6719 227.2812 78.6719 Q226.1406 78.6719 225.5859 79.5312 Q225.0312 80.3906 225.0156 82.1875 Z" style="fill:black; stroke:none;" /><rect height="13" style="stroke:none;" width="7" x="204" y="56" /><path d="M205.8281 68.25 Q206.2969 68.5938 207.1719 68.5938 Q208.0625 68.5938 208.5781 68.0703 Q209.0938 67.5469 209.0938 66.6562 Q209.0938 65.4219 208.5625 64.8906 Q208.0156 64.3594 207 64.3594 L206.4375 64.3594 L206.4375 63.7188 L206.7344 63.7188 Q207.4844 63.7188 208 63.2969 Q208.4219 62.9531 208.4219 62.0156 Q208.4219 61.6094 208.1406 61.1406 Q207.6875 60.375 207.1562 60.3906 Q205.8281 60.4375 205.8281 62.7812 L205.8281 68.25 ZM204.75 71.5 L204.75 62.7812 Q204.75 60.3281 206.0781 60 Q206.7656 59.8125 207.25 59.8125 Q208.3438 59.8125 209.0469 60.6719 Q209.6094 61.3594 209.6094 61.9375 Q209.6094 62.7812 209.2031 63.2656 Q208.7969 63.75 208.0625 63.9844 Q209.1406 64.1406 209.75 64.7812 Q210.3281 65.4062 210.3281 66.6328 Q210.3281 67.8594 209.5078 68.5156 Q208.6875 69.1719 207.1406 69.1719 Q206.1875 69.1719 205.8281 69.0312 L205.8281 71.5 L204.75 71.5 Z" style="fill:black; stroke:none;" /></g></g></svg>