<svg xmlns="http://www.w3.org/2000/svg" style="fill-opacity:1; color-rendering:auto; color-interpolation:auto; text-rendering:auto; stroke:black; stroke-linecap:square; stroke-miterlimit:10; shape-rendering:auto; stroke-opacity:1; fill:black; stroke-dasharray:none; font-weight:normal; stroke-width:1; font-family:'Dialog'; font-style:normal; stroke-linejoin:miter; font-size:12px; stroke-dashoffset:0; image-rendering:auto;"><defs id="genericDefs" /><g><defs id="defs1"><clipPath clipPathUnits="userSpaceOnUse" id="clipPath1"><path d="M238 30 L260 30 L260 52 L238 52 L238 30 Z" /></clipPath><clipPath clipPathUnits="userSpaceOnUse" id="clipPath2"><path d="M208 41 C208 47.0751 203.0751 52 197 52 C190.9249 52 186 47.0751 186 41 C186 34.9249 190.9249 30 197 30 C203.0751 30 208 34.9249 208 41 Z" /></clipPath><clipPath clipPathUnits="userSpaceOnUse" id="clipPath3"><path d="M134 30 L156 30 L156 52 L134 52 L134 30 Z" /></clipPath><clipPath clipPathUnits="userSpaceOnUse" id="clipPath4"><path d="M104 41 C104 47.0751 99.0751 52 93 52 C86.9249 52 82 47.0751 82 41 C82 34.9249 86.9249 30 93 30 C99.0751 30 104 34.9249 104 41 Z" /></clipPath><clipPath clipPathUnits="userSpaceOnUse" id="clipPath5"><path d="M41 30 L52 41 L41 52 L30 41 Z" style="fill-rule:evenodd;" /></clipPath></defs><g style="fill:white; text-rendering:optimizeSpeed; stroke:white;"><rect height="82" style="stroke:none;" width="290" x="0" y="0" /></g><g ID="l-1:1,2" style="text-rendering:optimizeSpeed;"><polygon points=" 249 41 197 41" style="fill:none;" /></g><g ID="r-1:1" style="fill:white; text-rendering:optimizeSpeed; stroke:white;" wurcs_mono_id="1"><rect height="22" style="clip-path:url(#clipPath1); stroke:none;" width="22" x="238" y="30" /><rect height="22" style="clip-path:url(#clipPath1); fill:rgb(255,212,0); stroke:none;" width="22" x="238" y="30" /><rect height="22" style="clip-path:url(#clipPath1); fill:none; stroke:black;" width="22" x="238" y="30" /><rect height="22" style="fill:none; stroke:black;" width="22" x="238" y="30" /></g><g ID="l-1:2,3" style="text-rendering:optimizeSpeed;"><polygon points=" 197 41 145 41" style="fill:none;" /></g><g ID="r-1:2" style="fill:white; text-rendering:optimizeSpeed; stroke:white;" wurcs_mono_id="2"><circle cx="197" cy="41" r="11" style="clip-path:url(#clipPath2); stroke:none;" /><rect height="22" style="clip-path:url(#clipPath2); fill:rgb(255,212,0); stroke:none;" width="22" x="186" y="30" /><rect height="22" style="clip-path:url(#clipPath2); fill:none; stroke:black;" width="22" x="186" y="30" /><circle cx="197" cy="41" r="11" style="fill:none; stroke:black;" /></g><g ID="l-1:3,4" style="text-rendering:optimizeSpeed;"><polygon points=" 145 41 93 41" style="fill:none;" /></g><g ID="r-1:3" style="fill:white; text-rendering:optimizeSpeed; stroke:white;" wurcs_mono_id="3"><rect height="22" style="clip-path:url(#clipPath3); stroke:none;" width="22" x="134" y="30" /><rect height="22" style="clip-path:url(#clipPath3); fill:rgb(0,144,188); stroke:none;" width="22" x="134" y="30" /><rect height="22" style="clip-path:url(#clipPath3); fill:none; stroke:black;" width="22" x="134" y="30" /><rect height="22" style="fill:none; stroke:black;" width="22" x="134" y="30" /></g><g ID="l-1:4,5" style="text-rendering:optimizeSpeed;"><polygon points=" 93 41 41 41" style="fill:none;" /></g><g ID="r-1:4" style="fill:white; text-rendering:optimizeSpeed; stroke:white;" wurcs_mono_id="4"><circle cx="93" cy="41" r="11" style="clip-path:url(#clipPath4); stroke:none;" /><rect height="22" style="clip-path:url(#clipPath4); fill:rgb(255,212,0); stroke:none;" width="22" x="82" y="30" /><rect height="22" style="clip-path:url(#clipPath4); fill:none; stroke:black;" width="22" x="82" y="30" /><circle cx="93" cy="41" r="11" style="fill:none; stroke:black;" /></g><g ID="r-1:5" style="fill:white; text-rendering:optimizeSpeed; stroke:white;" wurcs_mono_id="5"><polygon points=" 41 30 52 41 41 52 30 41" style="stroke:none; clip-path:url(#clipPath5);" /><rect height="22" style="clip-path:url(#clipPath5); fill:rgb(165,67,153); stroke:none;" width="22" x="30" y="30" /><rect height="22" style="clip-path:url(#clipPath5); fill:none; stroke:black;" width="22" x="30" y="30" /><polygon points=" 41 30 52 41 41 52 30 41" style="fill:none; stroke:black;" /></g><g ID="li-1:4,5" style="fill:white; text-rendering:optimizeSpeed; font-family:'Serif'; stroke:white;"><rect height="10" style="stroke:none;" width="6" x="71" y="44" /><path d="M73.1094 53.3906 Q73.1094 53.0625 73.3359 52.8359 Q73.5625 52.6094 73.8906 52.6094 Q74.2188 52.6094 74.4453 52.8359 Q74.6719 53.0625 74.6719 53.3906 Q74.6719 53.7188 74.4453 53.9453 Q74.2188 54.1719 73.8906 54.1719 Q73.5625 54.1719 73.3359 53.9453 Q73.1094 53.7188 73.1094 53.3906 ZM71.8125 45.6406 Q72.4375 45.3594 73 45.2266 Q73.5625 45.0938 74.0469 45.0938 Q75.3438 45.0938 76.1016 45.7188 Q76.8594 46.3438 76.8594 47.4062 Q76.8594 48.5 76.2109 49.1953 Q75.5625 49.8906 74.25 50.1875 L74.25 51.6719 L73.5312 51.6719 L73.5312 49.75 Q74.5625 49.5 75.0938 48.9062 Q75.625 48.3125 75.625 47.4062 Q75.625 46.5938 75.1953 46.1328 Q74.7656 45.6719 74.0312 45.6719 Q73.3594 45.6719 72.9297 46.0547 Q72.5 46.4375 72.3906 47.1562 L71.8125 47.1562 L71.8125 45.6406 Z" style="fill:black; stroke:none;" /><rect height="8" style="stroke:none;" width="8" x="56" y="45" /><path d="M61.1875 51.4688 L60.9531 52.1094 Q60.7656 52.625 60.2031 52.9375 Q59.8438 53.1562 59.2031 53.1406 Q58.0469 53.1406 57.3281 52.2344 Q56.5938 51.3281 56.5938 49.8594 Q56.5938 48.4219 57.3281 47.4844 Q58.0156 46.5938 59.4531 46.6094 Q60.4531 46.6094 60.9531 47 Q61.4062 47.3438 61.5781 48.0938 L61.625 48.3125 L61.8438 47.6719 Q62.0625 47.0469 62.6562 46.75 L63.25 46.75 L63.25 47.0938 Q62.6875 47.2656 62.5 47.8125 L61.8906 49.4844 L62.2969 51.2812 Q62.5 52.2031 62.7344 52.2969 Q63.0469 52.4375 63.7812 52 L63.7812 52.7188 Q62.5938 53.4062 61.75 52.6875 Q61.375 52.3594 61.2656 51.875 L61.1875 51.4688 ZM60.9219 50.3125 L60.5625 48.5938 Q60.2656 47.2188 59.4688 47.2188 Q58.7969 47.2031 58.2812 47.9375 Q57.8594 48.5156 57.8594 49.875 Q57.8594 51.1719 58.2812 51.8281 Q58.75 52.5469 59.5312 52.5 Q60.2031 52.4375 60.6875 51 L60.9219 50.3125 Z" style="fill:black; stroke:none;" /></g><g ID="li-1:3,4" style="fill:white; text-rendering:optimizeSpeed; font-family:'Serif'; stroke:white;"><rect height="10" style="stroke:none;" width="6" x="123" y="44" /><path d="M125.1094 53.3906 Q125.1094 53.0625 125.3359 52.8359 Q125.5625 52.6094 125.8906 52.6094 Q126.2188 52.6094 126.4453 52.8359 Q126.6719 53.0625 126.6719 53.3906 Q126.6719 53.7188 126.4453 53.9453 Q126.2188 54.1719 125.8906 54.1719 Q125.5625 54.1719 125.3359 53.9453 Q125.1094 53.7188 125.1094 53.3906 ZM123.8125 45.6406 Q124.4375 45.3594 125 45.2266 Q125.5625 45.0938 126.0469 45.0938 Q127.3438 45.0938 128.1016 45.7188 Q128.8594 46.3438 128.8594 47.4062 Q128.8594 48.5 128.2109 49.1953 Q127.5625 49.8906 126.25 50.1875 L126.25 51.6719 L125.5312 51.6719 L125.5312 49.75 Q126.5625 49.5 127.0938 48.9062 Q127.625 48.3125 127.625 47.4062 Q127.625 46.5938 127.1953 46.1328 Q126.7656 45.6719 126.0312 45.6719 Q125.3594 45.6719 124.9297 46.0547 Q124.5 46.4375 124.3906 47.1562 L123.8125 47.1562 L123.8125 45.6406 Z" style="fill:black; stroke:none;" /><rect height="13" style="stroke:none;" width="7" x="108" y="42" /><path d="M109.8281 54.25 Q110.2969 54.5938 111.1719 54.5938 Q112.0625 54.5938 112.5781 54.0703 Q113.0938 53.5469 113.0938 52.6562 Q113.0938 51.4219 112.5625 50.8906 Q112.0156 50.3594 111 50.3594 L110.4375 50.3594 L110.4375 49.7188 L110.7344 49.7188 Q111.4844 49.7188 112 49.2969 Q112.4219 48.9531 112.4219 48.0156 Q112.4219 47.6094 112.1406 47.1406 Q111.6875 46.375 111.1562 46.3906 Q109.8281 46.4375 109.8281 48.7812 L109.8281 54.25 ZM108.75 57.5 L108.75 48.7812 Q108.75 46.3281 110.0781 46 Q110.7656 45.8125 111.25 45.8125 Q112.3438 45.8125 113.0469 46.6719 Q113.6094 47.3594 113.6094 47.9375 Q113.6094 48.7812 113.2031 49.2656 Q112.7969 49.75 112.0625 49.9844 Q113.1406 50.1406 113.75 50.7812 Q114.3281 51.4062 114.3281 52.6328 Q114.3281 53.8594 113.5078 54.5156 Q112.6875 55.1719 111.1406 55.1719 Q110.1875 55.1719 109.8281 55.0312 L109.8281 57.5 L108.75 57.5 Z" style="fill:black; stroke:none;" /></g><g ID="li-1:2,3" style="fill:white; text-rendering:optimizeSpeed; font-family:'Serif'; stroke:white;"><rect height="10" style="stroke:none;" width="6" x="175" y="44" /><path d="M177.1094 53.3906 Q177.1094 53.0625 177.3359 52.8359 Q177.5625 52.6094 177.8906 52.6094 Q178.2188 52.6094 178.4453 52.8359 Q178.6719 53.0625 178.6719 53.3906 Q178.6719 53.7188 178.4453 53.9453 Q178.2188 54.1719 177.8906 54.1719 Q177.5625 54.1719 177.3359 53.9453 Q177.1094 53.7188 177.1094 53.3906 ZM175.8125 45.6406 Q176.4375 45.3594 177 45.2266 Q177.5625 45.0938 178.0469 45.0938 Q179.3438 45.0938 180.1016 45.7188 Q180.8594 46.3438 180.8594 47.4062 Q180.8594 48.5 180.2109 49.1953 Q179.5625 49.8906 178.25 50.1875 L178.25 51.6719 L177.5312 51.6719 L177.5312 49.75 Q178.5625 49.5 179.0938 48.9062 Q179.625 48.3125 179.625 47.4062 Q179.625 46.5938 179.1953 46.1328 Q178.7656 45.6719 178.0312 45.6719 Q177.3594 45.6719 176.9297 46.0547 Q176.5 46.4375 176.3906 47.1562 L175.8125 47.1562 L175.8125 45.6406 Z" style="fill:black; stroke:none;" /><rect height="13" style="stroke:none;" width="7" x="160" y="42" /><path d="M161.8281 54.25 Q162.2969 54.5938 163.1719 54.5938 Q164.0625 54.5938 164.5781 54.0703 Q165.0938 53.5469 165.0938 52.6562 Q165.0938 51.4219 164.5625 50.8906 Q164.0156 50.3594 163 50.3594 L162.4375 50.3594 L162.4375 49.7188 L162.7344 49.7188 Q163.4844 49.7188 164 49.2969 Q164.4219 48.9531 164.4219 48.0156 Q164.4219 47.6094 164.1406 47.1406 Q163.6875 46.375 163.1562 46.3906 Q161.8281 46.4375 161.8281 48.7812 L161.8281 54.25 ZM160.75 57.5 L160.75 48.7812 Q160.75 46.3281 162.0781 46 Q162.7656 45.8125 163.25 45.8125 Q164.3438 45.8125 165.0469 46.6719 Q165.6094 47.3594 165.6094 47.9375 Q165.6094 48.7812 165.2031 49.2656 Q164.7969 49.75 164.0625 49.9844 Q165.1406 50.1406 165.75 50.7812 Q166.3281 51.4062 166.3281 52.6328 Q166.3281 53.8594 165.5078 54.5156 Q164.6875 55.1719 163.1406 55.1719 Q162.1875 55.1719 161.8281 55.0312 L161.8281 57.5 L160.75 57.5 Z" style="fill:black; stroke:none;" /></g><g ID="li-1:1,2" style="fill:white; text-rendering:optimizeSpeed; font-family:'Serif'; stroke:white;"><rect height="10" style="stroke:none;" width="6" x="227" y="44" /><path d="M229.1094 53.3906 Q229.1094 53.0625 229.3359 52.8359 Q229.5625 52.6094 229.8906 52.6094 Q230.2188 52.6094 230.4453 52.8359 Q230.6719 53.0625 230.6719 53.3906 Q230.6719 53.7188 230.4453 53.9453 Q230.2188 54.1719 229.8906 54.1719 Q229.5625 54.1719 229.3359 53.9453 Q229.1094 53.7188 229.1094 53.3906 ZM227.8125 45.6406 Q228.4375 45.3594 229 45.2266 Q229.5625 45.0938 230.0469 45.0938 Q231.3438 45.0938 232.1016 45.7188 Q232.8594 46.3438 232.8594 47.4062 Q232.8594 48.5 232.2109 49.1953 Q231.5625 49.8906 230.25 50.1875 L230.25 51.6719 L229.5312 51.6719 L229.5312 49.75 Q230.5625 49.5 231.0938 48.9062 Q231.625 48.3125 231.625 47.4062 Q231.625 46.5938 231.1953 46.1328 Q230.7656 45.6719 230.0312 45.6719 Q229.3594 45.6719 228.9297 46.0547 Q228.5 46.4375 228.3906 47.1562 L227.8125 47.1562 L227.8125 45.6406 Z" style="fill:black; stroke:none;" /><rect height="10" style="stroke:none;" width="6" x="213" y="44" /><path d="M215.1094 53.3906 Q215.1094 53.0625 215.3359 52.8359 Q215.5625 52.6094 215.8906 52.6094 Q216.2188 52.6094 216.4453 52.8359 Q216.6719 53.0625 216.6719 53.3906 Q216.6719 53.7188 216.4453 53.9453 Q216.2188 54.1719 215.8906 54.1719 Q215.5625 54.1719 215.3359 53.9453 Q215.1094 53.7188 215.1094 53.3906 ZM213.8125 45.6406 Q214.4375 45.3594 215 45.2266 Q215.5625 45.0938 216.0469 45.0938 Q217.3438 45.0938 218.1016 45.7188 Q218.8594 46.3438 218.8594 47.4062 Q218.8594 48.5 218.2109 49.1953 Q217.5625 49.8906 216.25 50.1875 L216.25 51.6719 L215.5312 51.6719 L215.5312 49.75 Q216.5625 49.5 217.0938 48.9062 Q217.625 48.3125 217.625 47.4062 Q217.625 46.5938 217.1953 46.1328 Q216.7656 45.6719 216.0312 45.6719 Q215.3594 45.6719 214.9297 46.0547 Q214.5 46.4375 214.3906 47.1562 L213.8125 47.1562 L213.8125 45.6406 Z" style="fill:black; stroke:none;" /></g></g></svg>