<svg xmlns="http://www.w3.org/2000/svg" style="fill-opacity:1; color-rendering:auto; color-interpolation:auto; text-rendering:auto; stroke:black; stroke-linecap:square; stroke-miterlimit:10; shape-rendering:auto; stroke-opacity:1; fill:black; stroke-dasharray:none; font-weight:normal; stroke-width:1; font-family:'Dialog'; font-style:normal; stroke-linejoin:miter; font-size:12px; stroke-dashoffset:0; image-rendering:auto;"><defs id="genericDefs" /><g><defs id="defs1"><clipPath clipPathUnits="userSpaceOnUse" id="clipPath1"><path d="M342 69 L364 69 L364 91 L342 91 L342 69 Z" /></clipPath><clipPath clipPathUnits="userSpaceOnUse" id="clipPath2"><path d="M290 69 L312 69 L312 91 L290 91 L290 69 Z" /></clipPath><clipPath clipPathUnits="userSpaceOnUse" id="clipPath3"><path d="M260 80 C260 86.0751 255.0751 91 249 91 C242.9249 91 238 86.0751 238 80 C238 73.9249 242.9249 69 249 69 C255.0751 69 260 73.9249 260 80 Z" /></clipPath><clipPath clipPathUnits="userSpaceOnUse" id="clipPath4"><path d="M208 119 C208 125.0751 203.0751 130 197 130 C190.9249 130 186 125.0751 186 119 C186 112.9249 190.9249 108 197 108 C203.0751 108 208 112.9249 208 119 Z" /></clipPath><clipPath clipPathUnits="userSpaceOnUse" id="clipPath5"><path d="M156 145 C156 151.0751 151.0751 156 145 156 C138.9249 156 134 151.0751 134 145 C134 138.9249 138.9249 134 145 134 C151.0751 134 156 138.9249 156 145 Z" /></clipPath><clipPath clipPathUnits="userSpaceOnUse" id="clipPath6"><path d="M104 171 C104 177.0751 99.0751 182 93 182 C86.9249 182 82 177.0751 82 171 C82 164.9249 86.9249 160 93 160 C99.0751 160 104 164.9249 104 171 Z" /></clipPath><clipPath clipPathUnits="userSpaceOnUse" id="clipPath7"><path d="M52 171 C52 177.0751 47.0751 182 41 182 C34.9249 182 30 177.0751 30 171 C30 164.9249 34.9249 160 41 160 C47.0751 160 52 164.9249 52 171 Z" /></clipPath><clipPath clipPathUnits="userSpaceOnUse" id="clipPath8"><path d="M104 119 C104 125.0751 99.0751 130 93 130 C86.9249 130 82 125.0751 82 119 C82 112.9249 86.9249 108 93 108 C99.0751 108 104 112.9249 104 119 Z" /></clipPath><clipPath clipPathUnits="userSpaceOnUse" id="clipPath9"><path d="M156 93 C156 99.0751 151.0751 104 145 104 C138.9249 104 134 99.0751 134 93 C134 86.9249 138.9249 82 145 82 C151.0751 82 156 86.9249 156 93 Z" /></clipPath><clipPath clipPathUnits="userSpaceOnUse" id="clipPath10"><path d="M208 41 C208 47.0751 203.0751 52 197 52 C190.9249 52 186 47.0751 186 41 C186 34.9249 190.9249 30 197 30 C203.0751 30 208 34.9249 208 41 Z" /></clipPath><clipPath clipPathUnits="userSpaceOnUse" id="clipPath11"><path d="M156 41 C156 47.0751 151.0751 52 145 52 C138.9249 52 134 47.0751 134 41 C134 34.9249 138.9249 30 145 30 C151.0751 30 156 34.9249 156 41 Z" /></clipPath><clipPath clipPathUnits="userSpaceOnUse" id="clipPath12"><path d="M104 41 C104 47.0751 99.0751 52 93 52 C86.9249 52 82 47.0751 82 41 C82 34.9249 86.9249 30 93 30 C99.0751 30 104 34.9249 104 41 Z" /></clipPath><clipPath clipPathUnits="userSpaceOnUse" id="clipPath13"><path d="M52 41 C52 47.0751 47.0751 52 41 52 C34.9249 52 30 47.0751 30 41 C30 34.9249 34.9249 30 41 30 C47.0751 30 52 34.9249 52 41 Z" /></clipPath></defs><g style="fill:white; text-rendering:optimizeSpeed; stroke:white;"><rect height="212" style="stroke:none;" width="394" x="0" y="0" /></g><g ID="l-1:1,2" style="text-rendering:optimizeSpeed;"><polygon points=" 353 80 301 80" style="fill:none;" /></g><g ID="r-1:1" style="fill:white; text-rendering:optimizeSpeed; stroke:white;" wurcs_mono_id="1"><rect height="22" style="clip-path:url(#clipPath1); stroke:none;" width="22" x="342" y="69" /><rect height="22" style="clip-path:url(#clipPath1); fill:rgb(0,144,188); stroke:none;" width="22" x="342" y="69" /><rect height="22" style="clip-path:url(#clipPath1); fill:none; stroke:black;" width="22" x="342" y="69" /><rect height="22" style="fill:none; stroke:black;" width="22" x="342" y="69" /></g><g ID="l-1:2,3" style="text-rendering:optimizeSpeed;"><polygon points=" 301 80 249 80" style="fill:none;" /></g><g ID="r-1:2" style="fill:white; text-rendering:optimizeSpeed; stroke:white;" wurcs_mono_id="2"><rect height="22" style="clip-path:url(#clipPath2); stroke:none;" width="22" x="290" y="69" /><rect height="22" style="clip-path:url(#clipPath2); fill:rgb(0,144,188); stroke:none;" width="22" x="290" y="69" /><rect height="22" style="clip-path:url(#clipPath2); fill:none; stroke:black;" width="22" x="290" y="69" /><rect height="22" style="fill:none; stroke:black;" width="22" x="290" y="69" /></g><g ID="l-1:3,4" style="text-rendering:optimizeSpeed;"><polygon points=" 249 80 197 119" style="fill:none;" /></g><g ID="l-1:3,5" style="text-rendering:optimizeSpeed;"><polygon points=" 249 80 197 41" style="fill:none;" /></g><g ID="r-1:3" style="fill:white; text-rendering:optimizeSpeed; stroke:white;" wurcs_mono_id="3"><circle cx="249" cy="80" r="11" style="clip-path:url(#clipPath3); stroke:none;" /><rect height="22" style="clip-path:url(#clipPath3); fill:rgb(0,166,81); stroke:none;" width="22" x="238" y="69" /><rect height="22" style="clip-path:url(#clipPath3); fill:none; stroke:black;" width="22" x="238" y="69" /><circle cx="249" cy="80" r="11" style="fill:none; stroke:black;" /></g><g ID="l-1:4,6" style="text-rendering:optimizeSpeed;"><polygon points=" 197 119 145 145" style="fill:none;" /></g><g ID="l-1:4,7" style="text-rendering:optimizeSpeed;"><polygon points=" 197 119 145 93" style="fill:none;" /></g><g ID="r-1:4" style="fill:white; text-rendering:optimizeSpeed; stroke:white;" wurcs_mono_id="4"><circle cx="197" cy="119" r="11" style="clip-path:url(#clipPath4); stroke:none;" /><rect height="22" style="clip-path:url(#clipPath4); fill:rgb(0,166,81); stroke:none;" width="22" x="186" y="108" /><rect height="22" style="clip-path:url(#clipPath4); fill:none; stroke:black;" width="22" x="186" y="108" /><circle cx="197" cy="119" r="11" style="fill:none; stroke:black;" /></g><g ID="l-1:6,8" style="text-rendering:optimizeSpeed;"><polygon points=" 145 145 93 171" style="fill:none;" /></g><g ID="l-1:6,9" style="text-rendering:optimizeSpeed;"><polygon points=" 145 145 93 119" style="fill:none;" /></g><g ID="r-1:6" style="fill:white; text-rendering:optimizeSpeed; stroke:white;" wurcs_mono_id="5"><circle cx="145" cy="145" r="11" style="clip-path:url(#clipPath5); stroke:none;" /><rect height="22" style="clip-path:url(#clipPath5); fill:rgb(0,166,81); stroke:none;" width="22" x="134" y="134" /><rect height="22" style="clip-path:url(#clipPath5); fill:none; stroke:black;" width="22" x="134" y="134" /><circle cx="145" cy="145" r="11" style="fill:none; stroke:black;" /></g><g ID="l-1:8,10" style="text-rendering:optimizeSpeed;"><polygon points=" 93 171 41 171" style="fill:none;" /></g><g ID="r-1:8" style="fill:white; text-rendering:optimizeSpeed; stroke:white;" wurcs_mono_id="6"><circle cx="93" cy="171" r="11" style="clip-path:url(#clipPath6); stroke:none;" /><rect height="22" style="clip-path:url(#clipPath6); fill:rgb(0,166,81); stroke:none;" width="22" x="82" y="160" /><rect height="22" style="clip-path:url(#clipPath6); fill:none; stroke:black;" width="22" x="82" y="160" /><circle cx="93" cy="171" r="11" style="fill:none; stroke:black;" /></g><g ID="r-1:10" style="fill:white; text-rendering:optimizeSpeed; stroke:white;" wurcs_mono_id="7"><circle cx="41" cy="171" r="11" style="clip-path:url(#clipPath7); stroke:none;" /><rect height="22" style="clip-path:url(#clipPath7); fill:rgb(0,166,81); stroke:none;" width="22" x="30" y="160" /><rect height="22" style="clip-path:url(#clipPath7); fill:none; stroke:black;" width="22" x="30" y="160" /><circle cx="41" cy="171" r="11" style="fill:none; stroke:black;" /></g><g ID="li-1:8,10" style="fill:white; text-rendering:optimizeSpeed; font-family:'Serif'; stroke:white;"><rect height="10" style="stroke:none;" width="6" x="71" y="174" /><path d="M73.1094 183.3906 Q73.1094 183.0625 73.3359 182.8359 Q73.5625 182.6094 73.8906 182.6094 Q74.2188 182.6094 74.4453 182.8359 Q74.6719 183.0625 74.6719 183.3906 Q74.6719 183.7188 74.4453 183.9453 Q74.2188 184.1719 73.8906 184.1719 Q73.5625 184.1719 73.3359 183.9453 Q73.1094 183.7188 73.1094 183.3906 ZM71.8125 175.6406 Q72.4375 175.3594 73 175.2266 Q73.5625 175.0938 74.0469 175.0938 Q75.3438 175.0938 76.1016 175.7188 Q76.8594 176.3438 76.8594 177.4062 Q76.8594 178.5 76.2109 179.1953 Q75.5625 179.8906 74.25 180.1875 L74.25 181.6719 L73.5312 181.6719 L73.5312 179.75 Q74.5625 179.5 75.0938 178.9062 Q75.625 178.3125 75.625 177.4062 Q75.625 176.5938 75.1953 176.1328 Q74.7656 175.6719 74.0312 175.6719 Q73.3594 175.6719 72.9297 176.0547 Q72.5 176.4375 72.3906 177.1562 L71.8125 177.1562 L71.8125 175.6406 Z" style="fill:black; stroke:none;" /><rect height="10" style="stroke:none;" width="6" x="57" y="174" /><path d="M59.1094 183.3906 Q59.1094 183.0625 59.3359 182.8359 Q59.5625 182.6094 59.8906 182.6094 Q60.2188 182.6094 60.4453 182.8359 Q60.6719 183.0625 60.6719 183.3906 Q60.6719 183.7188 60.4453 183.9453 Q60.2188 184.1719 59.8906 184.1719 Q59.5625 184.1719 59.3359 183.9453 Q59.1094 183.7188 59.1094 183.3906 ZM57.8125 175.6406 Q58.4375 175.3594 59 175.2266 Q59.5625 175.0938 60.0469 175.0938 Q61.3438 175.0938 62.1016 175.7188 Q62.8594 176.3438 62.8594 177.4062 Q62.8594 178.5 62.2109 179.1953 Q61.5625 179.8906 60.25 180.1875 L60.25 181.6719 L59.5312 181.6719 L59.5312 179.75 Q60.5625 179.5 61.0938 178.9062 Q61.625 178.3125 61.625 177.4062 Q61.625 176.5938 61.1953 176.1328 Q60.7656 175.6719 60.0312 175.6719 Q59.3594 175.6719 58.9297 176.0547 Q58.5 176.4375 58.3906 177.1562 L57.8125 177.1562 L57.8125 175.6406 Z" style="fill:black; stroke:none;" /></g><g ID="r-1:9" style="fill:white; text-rendering:optimizeSpeed; stroke:white;" wurcs_mono_id="8"><circle cx="93" cy="119" r="11" style="clip-path:url(#clipPath8); stroke:none;" /><rect height="22" style="clip-path:url(#clipPath8); fill:rgb(0,166,81); stroke:none;" width="22" x="82" y="108" /><rect height="22" style="clip-path:url(#clipPath8); fill:none; stroke:black;" width="22" x="82" y="108" /><circle cx="93" cy="119" r="11" style="fill:none; stroke:black;" /></g><g ID="li-1:6,8" style="fill:white; text-rendering:optimizeSpeed; font-family:'Serif'; stroke:white;"><rect height="10" style="stroke:none;" width="6" x="127" y="156" /><path d="M129.1094 165.3906 Q129.1094 165.0625 129.3359 164.8359 Q129.5625 164.6094 129.8906 164.6094 Q130.2188 164.6094 130.4453 164.8359 Q130.6719 165.0625 130.6719 165.3906 Q130.6719 165.7188 130.4453 165.9453 Q130.2188 166.1719 129.8906 166.1719 Q129.5625 166.1719 129.3359 165.9453 Q129.1094 165.7188 129.1094 165.3906 ZM127.8125 157.6406 Q128.4375 157.3594 129 157.2266 Q129.5625 157.0938 130.0469 157.0938 Q131.3438 157.0938 132.1016 157.7188 Q132.8594 158.3438 132.8594 159.4062 Q132.8594 160.5 132.2109 161.1953 Q131.5625 161.8906 130.25 162.1875 L130.25 163.6719 L129.5312 163.6719 L129.5312 161.75 Q130.5625 161.5 131.0938 160.9062 Q131.625 160.3125 131.625 159.4062 Q131.625 158.5938 131.1953 158.1328 Q130.7656 157.6719 130.0312 157.6719 Q129.3594 157.6719 128.9297 158.0547 Q128.5 158.4375 128.3906 159.1562 L127.8125 159.1562 L127.8125 157.6406 Z" style="fill:black; stroke:none;" /><rect height="10" style="stroke:none;" width="6" x="111" y="164" /><path d="M113.1094 173.3906 Q113.1094 173.0625 113.3359 172.8359 Q113.5625 172.6094 113.8906 172.6094 Q114.2188 172.6094 114.4453 172.8359 Q114.6719 173.0625 114.6719 173.3906 Q114.6719 173.7188 114.4453 173.9453 Q114.2188 174.1719 113.8906 174.1719 Q113.5625 174.1719 113.3359 173.9453 Q113.1094 173.7188 113.1094 173.3906 ZM111.8125 165.6406 Q112.4375 165.3594 113 165.2266 Q113.5625 165.0938 114.0469 165.0938 Q115.3438 165.0938 116.1016 165.7188 Q116.8594 166.3438 116.8594 167.4062 Q116.8594 168.5 116.2109 169.1953 Q115.5625 169.8906 114.25 170.1875 L114.25 171.6719 L113.5312 171.6719 L113.5312 169.75 Q114.5625 169.5 115.0938 168.9062 Q115.625 168.3125 115.625 167.4062 Q115.625 166.5938 115.1953 166.1328 Q114.7656 165.6719 114.0312 165.6719 Q113.3594 165.6719 112.9297 166.0547 Q112.5 166.4375 112.3906 167.1562 L111.8125 167.1562 L111.8125 165.6406 Z" style="fill:black; stroke:none;" /></g><g ID="li-1:6,9" style="fill:white; text-rendering:optimizeSpeed; font-family:'Serif'; stroke:white;"><rect height="10" style="stroke:none;" width="6" x="120" y="138" /><path d="M122.1094 147.3906 Q122.1094 147.0625 122.3359 146.8359 Q122.5625 146.6094 122.8906 146.6094 Q123.2188 146.6094 123.4453 146.8359 Q123.6719 147.0625 123.6719 147.3906 Q123.6719 147.7188 123.4453 147.9453 Q123.2188 148.1719 122.8906 148.1719 Q122.5625 148.1719 122.3359 147.9453 Q122.1094 147.7188 122.1094 147.3906 ZM120.8125 139.6406 Q121.4375 139.3594 122 139.2266 Q122.5625 139.0938 123.0469 139.0938 Q124.3438 139.0938 125.1016 139.7188 Q125.8594 140.3438 125.8594 141.4062 Q125.8594 142.5 125.2109 143.1953 Q124.5625 143.8906 123.25 144.1875 L123.25 145.6719 L122.5312 145.6719 L122.5312 143.75 Q123.5625 143.5 124.0938 142.9062 Q124.625 142.3125 124.625 141.4062 Q124.625 140.5938 124.1953 140.1328 Q123.7656 139.6719 123.0312 139.6719 Q122.3594 139.6719 121.9297 140.0547 Q121.5 140.4375 121.3906 141.1562 L120.8125 141.1562 L120.8125 139.6406 Z" style="fill:black; stroke:none;" /><rect height="10" style="stroke:none;" width="6" x="104" y="130" /><path d="M106.1094 139.3906 Q106.1094 139.0625 106.3359 138.8359 Q106.5625 138.6094 106.8906 138.6094 Q107.2188 138.6094 107.4453 138.8359 Q107.6719 139.0625 107.6719 139.3906 Q107.6719 139.7188 107.4453 139.9453 Q107.2188 140.1719 106.8906 140.1719 Q106.5625 140.1719 106.3359 139.9453 Q106.1094 139.7188 106.1094 139.3906 ZM104.8125 131.6406 Q105.4375 131.3594 106 131.2266 Q106.5625 131.0938 107.0469 131.0938 Q108.3438 131.0938 109.1016 131.7188 Q109.8594 132.3438 109.8594 133.4062 Q109.8594 134.5 109.2109 135.1953 Q108.5625 135.8906 107.25 136.1875 L107.25 137.6719 L106.5312 137.6719 L106.5312 135.75 Q107.5625 135.5 108.0938 134.9062 Q108.625 134.3125 108.625 133.4062 Q108.625 132.5938 108.1953 132.1328 Q107.7656 131.6719 107.0312 131.6719 Q106.3594 131.6719 105.9297 132.0547 Q105.5 132.4375 105.3906 133.1562 L104.8125 133.1562 L104.8125 131.6406 Z" style="fill:black; stroke:none;" /></g><g ID="r-1:7" style="fill:white; text-rendering:optimizeSpeed; stroke:white;" wurcs_mono_id="9"><circle cx="145" cy="93" r="11" style="clip-path:url(#clipPath9); stroke:none;" /><rect height="22" style="clip-path:url(#clipPath9); fill:rgb(0,166,81); stroke:none;" width="22" x="134" y="82" /><rect height="22" style="clip-path:url(#clipPath9); fill:none; stroke:black;" width="22" x="134" y="82" /><circle cx="145" cy="93" r="11" style="fill:none; stroke:black;" /></g><g ID="li-1:4,6" style="fill:white; text-rendering:optimizeSpeed; font-family:'Serif'; stroke:white;"><rect height="10" style="stroke:none;" width="6" x="179" y="130" /><path d="M181.1094 139.3906 Q181.1094 139.0625 181.3359 138.8359 Q181.5625 138.6094 181.8906 138.6094 Q182.2188 138.6094 182.4453 138.8359 Q182.6719 139.0625 182.6719 139.3906 Q182.6719 139.7188 182.4453 139.9453 Q182.2188 140.1719 181.8906 140.1719 Q181.5625 140.1719 181.3359 139.9453 Q181.1094 139.7188 181.1094 139.3906 ZM179.8125 131.6406 Q180.4375 131.3594 181 131.2266 Q181.5625 131.0938 182.0469 131.0938 Q183.3438 131.0938 184.1016 131.7188 Q184.8594 132.3438 184.8594 133.4062 Q184.8594 134.5 184.2109 135.1953 Q183.5625 135.8906 182.25 136.1875 L182.25 137.6719 L181.5312 137.6719 L181.5312 135.75 Q182.5625 135.5 183.0938 134.9062 Q183.625 134.3125 183.625 133.4062 Q183.625 132.5938 183.1953 132.1328 Q182.7656 131.6719 182.0312 131.6719 Q181.3594 131.6719 180.9297 132.0547 Q180.5 132.4375 180.3906 133.1562 L179.8125 133.1562 L179.8125 131.6406 Z" style="fill:black; stroke:none;" /><rect height="10" style="stroke:none;" width="6" x="163" y="138" /><path d="M165.1094 147.3906 Q165.1094 147.0625 165.3359 146.8359 Q165.5625 146.6094 165.8906 146.6094 Q166.2188 146.6094 166.4453 146.8359 Q166.6719 147.0625 166.6719 147.3906 Q166.6719 147.7188 166.4453 147.9453 Q166.2188 148.1719 165.8906 148.1719 Q165.5625 148.1719 165.3359 147.9453 Q165.1094 147.7188 165.1094 147.3906 ZM163.8125 139.6406 Q164.4375 139.3594 165 139.2266 Q165.5625 139.0938 166.0469 139.0938 Q167.3438 139.0938 168.1016 139.7188 Q168.8594 140.3438 168.8594 141.4062 Q168.8594 142.5 168.2109 143.1953 Q167.5625 143.8906 166.25 144.1875 L166.25 145.6719 L165.5312 145.6719 L165.5312 143.75 Q166.5625 143.5 167.0938 142.9062 Q167.625 142.3125 167.625 141.4062 Q167.625 140.5938 167.1953 140.1328 Q166.7656 139.6719 166.0312 139.6719 Q165.3594 139.6719 164.9297 140.0547 Q164.5 140.4375 164.3906 141.1562 L163.8125 141.1562 L163.8125 139.6406 Z" style="fill:black; stroke:none;" /></g><g ID="li-1:4,7" style="fill:white; text-rendering:optimizeSpeed; font-family:'Serif'; stroke:white;"><rect height="10" style="stroke:none;" width="6" x="172" y="112" /><path d="M174.1094 121.3906 Q174.1094 121.0625 174.3359 120.8359 Q174.5625 120.6094 174.8906 120.6094 Q175.2188 120.6094 175.4453 120.8359 Q175.6719 121.0625 175.6719 121.3906 Q175.6719 121.7188 175.4453 121.9453 Q175.2188 122.1719 174.8906 122.1719 Q174.5625 122.1719 174.3359 121.9453 Q174.1094 121.7188 174.1094 121.3906 ZM172.8125 113.6406 Q173.4375 113.3594 174 113.2266 Q174.5625 113.0938 175.0469 113.0938 Q176.3438 113.0938 177.1016 113.7188 Q177.8594 114.3438 177.8594 115.4062 Q177.8594 116.5 177.2109 117.1953 Q176.5625 117.8906 175.25 118.1875 L175.25 119.6719 L174.5312 119.6719 L174.5312 117.75 Q175.5625 117.5 176.0938 116.9062 Q176.625 116.3125 176.625 115.4062 Q176.625 114.5938 176.1953 114.1328 Q175.7656 113.6719 175.0312 113.6719 Q174.3594 113.6719 173.9297 114.0547 Q173.5 114.4375 173.3906 115.1562 L172.8125 115.1562 L172.8125 113.6406 Z" style="fill:black; stroke:none;" /><rect height="10" style="stroke:none;" width="6" x="156" y="104" /><path d="M158.1094 113.3906 Q158.1094 113.0625 158.3359 112.8359 Q158.5625 112.6094 158.8906 112.6094 Q159.2188 112.6094 159.4453 112.8359 Q159.6719 113.0625 159.6719 113.3906 Q159.6719 113.7188 159.4453 113.9453 Q159.2188 114.1719 158.8906 114.1719 Q158.5625 114.1719 158.3359 113.9453 Q158.1094 113.7188 158.1094 113.3906 ZM156.8125 105.6406 Q157.4375 105.3594 158 105.2266 Q158.5625 105.0938 159.0469 105.0938 Q160.3438 105.0938 161.1016 105.7188 Q161.8594 106.3438 161.8594 107.4062 Q161.8594 108.5 161.2109 109.1953 Q160.5625 109.8906 159.25 110.1875 L159.25 111.6719 L158.5312 111.6719 L158.5312 109.75 Q159.5625 109.5 160.0938 108.9062 Q160.625 108.3125 160.625 107.4062 Q160.625 106.5938 160.1953 106.1328 Q159.7656 105.6719 159.0312 105.6719 Q158.3594 105.6719 157.9297 106.0547 Q157.5 106.4375 157.3906 107.1562 L156.8125 107.1562 L156.8125 105.6406 Z" style="fill:black; stroke:none;" /></g><g ID="l-1:5,11" style="text-rendering:optimizeSpeed;"><polygon points=" 197 41 145 41" style="fill:none;" /></g><g ID="r-1:5" style="fill:white; text-rendering:optimizeSpeed; stroke:white;" wurcs_mono_id="10"><circle cx="197" cy="41" r="11" style="clip-path:url(#clipPath10); stroke:none;" /><rect height="22" style="clip-path:url(#clipPath10); fill:rgb(0,166,81); stroke:none;" width="22" x="186" y="30" /><rect height="22" style="clip-path:url(#clipPath10); fill:none; stroke:black;" width="22" x="186" y="30" /><circle cx="197" cy="41" r="11" style="fill:none; stroke:black;" /></g><g ID="l-1:11,12" style="text-rendering:optimizeSpeed;"><polygon points=" 145 41 93 41" style="fill:none;" /></g><g ID="r-1:11" style="fill:white; text-rendering:optimizeSpeed; stroke:white;" wurcs_mono_id="11"><circle cx="145" cy="41" r="11" style="clip-path:url(#clipPath11); stroke:none;" /><rect height="22" style="clip-path:url(#clipPath11); fill:rgb(0,166,81); stroke:none;" width="22" x="134" y="30" /><rect height="22" style="clip-path:url(#clipPath11); fill:none; stroke:black;" width="22" x="134" y="30" /><circle cx="145" cy="41" r="11" style="fill:none; stroke:black;" /></g><g ID="l-1:12,13" style="text-rendering:optimizeSpeed;"><polygon points=" 93 41 41 41" style="fill:none;" /></g><g ID="r-1:12" style="fill:white; text-rendering:optimizeSpeed; stroke:white;" wurcs_mono_id="12"><circle cx="93" cy="41" r="11" style="clip-path:url(#clipPath12); stroke:none;" /><rect height="22" style="clip-path:url(#clipPath12); fill:rgb(0,166,81); stroke:none;" width="22" x="82" y="30" /><rect height="22" style="clip-path:url(#clipPath12); fill:none; stroke:black;" width="22" x="82" y="30" /><circle cx="93" cy="41" r="11" style="fill:none; stroke:black;" /></g><g ID="r-1:13" style="fill:white; text-rendering:optimizeSpeed; stroke:white;" wurcs_mono_id="13"><circle cx="41" cy="41" r="11" style="clip-path:url(#clipPath13); stroke:none;" /><rect height="22" style="clip-path:url(#clipPath13); fill:rgb(0,166,81); stroke:none;" width="22" x="30" y="30" /><rect height="22" style="clip-path:url(#clipPath13); fill:none; stroke:black;" width="22" x="30" y="30" /><circle cx="41" cy="41" r="11" style="fill:none; stroke:black;" /></g><g ID="li-1:12,13" style="fill:white; text-rendering:optimizeSpeed; font-family:'Serif'; stroke:white;"><rect height="10" style="stroke:none;" width="6" x="71" y="44" /><path d="M73.1094 53.3906 Q73.1094 53.0625 73.3359 52.8359 Q73.5625 52.6094 73.8906 52.6094 Q74.2188 52.6094 74.4453 52.8359 Q74.6719 53.0625 74.6719 53.3906 Q74.6719 53.7188 74.4453 53.9453 Q74.2188 54.1719 73.8906 54.1719 Q73.5625 54.1719 73.3359 53.9453 Q73.1094 53.7188 73.1094 53.3906 ZM71.8125 45.6406 Q72.4375 45.3594 73 45.2266 Q73.5625 45.0938 74.0469 45.0938 Q75.3438 45.0938 76.1016 45.7188 Q76.8594 46.3438 76.8594 47.4062 Q76.8594 48.5 76.2109 49.1953 Q75.5625 49.8906 74.25 50.1875 L74.25 51.6719 L73.5312 51.6719 L73.5312 49.75 Q74.5625 49.5 75.0938 48.9062 Q75.625 48.3125 75.625 47.4062 Q75.625 46.5938 75.1953 46.1328 Q74.7656 45.6719 74.0312 45.6719 Q73.3594 45.6719 72.9297 46.0547 Q72.5 46.4375 72.3906 47.1562 L71.8125 47.1562 L71.8125 45.6406 Z" style="fill:black; stroke:none;" /><rect height="10" style="stroke:none;" width="6" x="57" y="44" /><path d="M59.1094 53.3906 Q59.1094 53.0625 59.3359 52.8359 Q59.5625 52.6094 59.8906 52.6094 Q60.2188 52.6094 60.4453 52.8359 Q60.6719 53.0625 60.6719 53.3906 Q60.6719 53.7188 60.4453 53.9453 Q60.2188 54.1719 59.8906 54.1719 Q59.5625 54.1719 59.3359 53.9453 Q59.1094 53.7188 59.1094 53.3906 ZM57.8125 45.6406 Q58.4375 45.3594 59 45.2266 Q59.5625 45.0938 60.0469 45.0938 Q61.3438 45.0938 62.1016 45.7188 Q62.8594 46.3438 62.8594 47.4062 Q62.8594 48.5 62.2109 49.1953 Q61.5625 49.8906 60.25 50.1875 L60.25 51.6719 L59.5312 51.6719 L59.5312 49.75 Q60.5625 49.5 61.0938 48.9062 Q61.625 48.3125 61.625 47.4062 Q61.625 46.5938 61.1953 46.1328 Q60.7656 45.6719 60.0312 45.6719 Q59.3594 45.6719 58.9297 46.0547 Q58.5 46.4375 58.3906 47.1562 L57.8125 47.1562 L57.8125 45.6406 Z" style="fill:black; stroke:none;" /></g><g ID="li-1:11,12" style="fill:white; text-rendering:optimizeSpeed; font-family:'Serif'; stroke:white;"><rect height="10" style="stroke:none;" width="6" x="123" y="44" /><path d="M125.1094 53.3906 Q125.1094 53.0625 125.3359 52.8359 Q125.5625 52.6094 125.8906 52.6094 Q126.2188 52.6094 126.4453 52.8359 Q126.6719 53.0625 126.6719 53.3906 Q126.6719 53.7188 126.4453 53.9453 Q126.2188 54.1719 125.8906 54.1719 Q125.5625 54.1719 125.3359 53.9453 Q125.1094 53.7188 125.1094 53.3906 ZM123.8125 45.6406 Q124.4375 45.3594 125 45.2266 Q125.5625 45.0938 126.0469 45.0938 Q127.3438 45.0938 128.1016 45.7188 Q128.8594 46.3438 128.8594 47.4062 Q128.8594 48.5 128.2109 49.1953 Q127.5625 49.8906 126.25 50.1875 L126.25 51.6719 L125.5312 51.6719 L125.5312 49.75 Q126.5625 49.5 127.0938 48.9062 Q127.625 48.3125 127.625 47.4062 Q127.625 46.5938 127.1953 46.1328 Q126.7656 45.6719 126.0312 45.6719 Q125.3594 45.6719 124.9297 46.0547 Q124.5 46.4375 124.3906 47.1562 L123.8125 47.1562 L123.8125 45.6406 Z" style="fill:black; stroke:none;" /><rect height="10" style="stroke:none;" width="6" x="109" y="44" /><path d="M111.1094 53.3906 Q111.1094 53.0625 111.3359 52.8359 Q111.5625 52.6094 111.8906 52.6094 Q112.2188 52.6094 112.4453 52.8359 Q112.6719 53.0625 112.6719 53.3906 Q112.6719 53.7188 112.4453 53.9453 Q112.2188 54.1719 111.8906 54.1719 Q111.5625 54.1719 111.3359 53.9453 Q111.1094 53.7188 111.1094 53.3906 ZM109.8125 45.6406 Q110.4375 45.3594 111 45.2266 Q111.5625 45.0938 112.0469 45.0938 Q113.3438 45.0938 114.1016 45.7188 Q114.8594 46.3438 114.8594 47.4062 Q114.8594 48.5 114.2109 49.1953 Q113.5625 49.8906 112.25 50.1875 L112.25 51.6719 L111.5312 51.6719 L111.5312 49.75 Q112.5625 49.5 113.0938 48.9062 Q113.625 48.3125 113.625 47.4062 Q113.625 46.5938 113.1953 46.1328 Q112.7656 45.6719 112.0312 45.6719 Q111.3594 45.6719 110.9297 46.0547 Q110.5 46.4375 110.3906 47.1562 L109.8125 47.1562 L109.8125 45.6406 Z" style="fill:black; stroke:none;" /></g><g ID="li-1:5,11" style="fill:white; text-rendering:optimizeSpeed; font-family:'Serif'; stroke:white;"><rect height="10" style="stroke:none;" width="6" x="175" y="44" /><path d="M177.1094 53.3906 Q177.1094 53.0625 177.3359 52.8359 Q177.5625 52.6094 177.8906 52.6094 Q178.2188 52.6094 178.4453 52.8359 Q178.6719 53.0625 178.6719 53.3906 Q178.6719 53.7188 178.4453 53.9453 Q178.2188 54.1719 177.8906 54.1719 Q177.5625 54.1719 177.3359 53.9453 Q177.1094 53.7188 177.1094 53.3906 ZM175.8125 45.6406 Q176.4375 45.3594 177 45.2266 Q177.5625 45.0938 178.0469 45.0938 Q179.3438 45.0938 180.1016 45.7188 Q180.8594 46.3438 180.8594 47.4062 Q180.8594 48.5 180.2109 49.1953 Q179.5625 49.8906 178.25 50.1875 L178.25 51.6719 L177.5312 51.6719 L177.5312 49.75 Q178.5625 49.5 179.0938 48.9062 Q179.625 48.3125 179.625 47.4062 Q179.625 46.5938 179.1953 46.1328 Q178.7656 45.6719 178.0312 45.6719 Q177.3594 45.6719 176.9297 46.0547 Q176.5 46.4375 176.3906 47.1562 L175.8125 47.1562 L175.8125 45.6406 Z" style="fill:black; stroke:none;" /><rect height="10" style="stroke:none;" width="6" x="161" y="44" /><path d="M163.1094 53.3906 Q163.1094 53.0625 163.3359 52.8359 Q163.5625 52.6094 163.8906 52.6094 Q164.2188 52.6094 164.4453 52.8359 Q164.6719 53.0625 164.6719 53.3906 Q164.6719 53.7188 164.4453 53.9453 Q164.2188 54.1719 163.8906 54.1719 Q163.5625 54.1719 163.3359 53.9453 Q163.1094 53.7188 163.1094 53.3906 ZM161.8125 45.6406 Q162.4375 45.3594 163 45.2266 Q163.5625 45.0938 164.0469 45.0938 Q165.3438 45.0938 166.1016 45.7188 Q166.8594 46.3438 166.8594 47.4062 Q166.8594 48.5 166.2109 49.1953 Q165.5625 49.8906 164.25 50.1875 L164.25 51.6719 L163.5312 51.6719 L163.5312 49.75 Q164.5625 49.5 165.0938 48.9062 Q165.625 48.3125 165.625 47.4062 Q165.625 46.5938 165.1953 46.1328 Q164.7656 45.6719 164.0312 45.6719 Q163.3594 45.6719 162.9297 46.0547 Q162.5 46.4375 162.3906 47.1562 L161.8125 47.1562 L161.8125 45.6406 Z" style="fill:black; stroke:none;" /></g><g ID="li-1:3,4" style="fill:white; text-rendering:optimizeSpeed; font-family:'Serif'; stroke:white;"><rect height="10" style="stroke:none;" width="6" x="233" y="94" /><path d="M235.1094 103.3906 Q235.1094 103.0625 235.3359 102.8359 Q235.5625 102.6094 235.8906 102.6094 Q236.2188 102.6094 236.4453 102.8359 Q236.6719 103.0625 236.6719 103.3906 Q236.6719 103.7188 236.4453 103.9453 Q236.2188 104.1719 235.8906 104.1719 Q235.5625 104.1719 235.3359 103.9453 Q235.1094 103.7188 235.1094 103.3906 ZM233.8125 95.6406 Q234.4375 95.3594 235 95.2266 Q235.5625 95.0938 236.0469 95.0938 Q237.3438 95.0938 238.1016 95.7188 Q238.8594 96.3438 238.8594 97.4062 Q238.8594 98.5 238.2109 99.1953 Q237.5625 99.8906 236.25 100.1875 L236.25 101.6719 L235.5312 101.6719 L235.5312 99.75 Q236.5625 99.5 237.0938 98.9062 Q237.625 98.3125 237.625 97.4062 Q237.625 96.5938 237.1953 96.1328 Q236.7656 95.6719 236.0312 95.6719 Q235.3594 95.6719 234.9297 96.0547 Q234.5 96.4375 234.3906 97.1562 L233.8125 97.1562 L233.8125 95.6406 Z" style="fill:black; stroke:none;" /><rect height="10" style="stroke:none;" width="6" x="216" y="107" /><path d="M218.1094 116.3906 Q218.1094 116.0625 218.3359 115.8359 Q218.5625 115.6094 218.8906 115.6094 Q219.2188 115.6094 219.4453 115.8359 Q219.6719 116.0625 219.6719 116.3906 Q219.6719 116.7188 219.4453 116.9453 Q219.2188 117.1719 218.8906 117.1719 Q218.5625 117.1719 218.3359 116.9453 Q218.1094 116.7188 218.1094 116.3906 ZM216.8125 108.6406 Q217.4375 108.3594 218 108.2266 Q218.5625 108.0938 219.0469 108.0938 Q220.3438 108.0938 221.1016 108.7188 Q221.8594 109.3438 221.8594 110.4062 Q221.8594 111.5 221.2109 112.1953 Q220.5625 112.8906 219.25 113.1875 L219.25 114.6719 L218.5312 114.6719 L218.5312 112.75 Q219.5625 112.5 220.0938 111.9062 Q220.625 111.3125 220.625 110.4062 Q220.625 109.5938 220.1953 109.1328 Q219.7656 108.6719 219.0312 108.6719 Q218.3594 108.6719 217.9297 109.0547 Q217.5 109.4375 217.3906 110.1562 L216.8125 110.1562 L216.8125 108.6406 Z" style="fill:black; stroke:none;" /></g><g ID="li-1:3,5" style="fill:white; text-rendering:optimizeSpeed; font-family:'Serif'; stroke:white;"><rect height="10" style="stroke:none;" width="6" x="223" y="68" /><path d="M225.1094 77.3906 Q225.1094 77.0625 225.3359 76.8359 Q225.5625 76.6094 225.8906 76.6094 Q226.2188 76.6094 226.4453 76.8359 Q226.6719 77.0625 226.6719 77.3906 Q226.6719 77.7188 226.4453 77.9453 Q226.2188 78.1719 225.8906 78.1719 Q225.5625 78.1719 225.3359 77.9453 Q225.1094 77.7188 225.1094 77.3906 ZM223.8125 69.6406 Q224.4375 69.3594 225 69.2266 Q225.5625 69.0938 226.0469 69.0938 Q227.3438 69.0938 228.1016 69.7188 Q228.8594 70.3438 228.8594 71.4062 Q228.8594 72.5 228.2109 73.1953 Q227.5625 73.8906 226.25 74.1875 L226.25 75.6719 L225.5312 75.6719 L225.5312 73.75 Q226.5625 73.5 227.0938 72.9062 Q227.625 72.3125 227.625 71.4062 Q227.625 70.5938 227.1953 70.1328 Q226.7656 69.6719 226.0312 69.6719 Q225.3594 69.6719 224.9297 70.0547 Q224.5 70.4375 224.3906 71.1562 L223.8125 71.1562 L223.8125 69.6406 Z" style="fill:black; stroke:none;" /><rect height="10" style="stroke:none;" width="6" x="206" y="55" /><path d="M208.1094 64.3906 Q208.1094 64.0625 208.3359 63.8359 Q208.5625 63.6094 208.8906 63.6094 Q209.2188 63.6094 209.4453 63.8359 Q209.6719 64.0625 209.6719 64.3906 Q209.6719 64.7188 209.4453 64.9453 Q209.2188 65.1719 208.8906 65.1719 Q208.5625 65.1719 208.3359 64.9453 Q208.1094 64.7188 208.1094 64.3906 ZM206.8125 56.6406 Q207.4375 56.3594 208 56.2266 Q208.5625 56.0938 209.0469 56.0938 Q210.3438 56.0938 211.1016 56.7188 Q211.8594 57.3438 211.8594 58.4062 Q211.8594 59.5 211.2109 60.1953 Q210.5625 60.8906 209.25 61.1875 L209.25 62.6719 L208.5312 62.6719 L208.5312 60.75 Q209.5625 60.5 210.0938 59.9062 Q210.625 59.3125 210.625 58.4062 Q210.625 57.5938 210.1953 57.1328 Q209.7656 56.6719 209.0312 56.6719 Q208.3594 56.6719 207.9297 57.0547 Q207.5 57.4375 207.3906 58.1562 L206.8125 58.1562 L206.8125 56.6406 Z" style="fill:black; stroke:none;" /></g><g ID="li-1:2,3" style="fill:white; text-rendering:optimizeSpeed; font-family:'Serif'; stroke:white;"><rect height="10" style="stroke:none;" width="6" x="279" y="83" /><path d="M281.1094 92.3906 Q281.1094 92.0625 281.3359 91.8359 Q281.5625 91.6094 281.8906 91.6094 Q282.2188 91.6094 282.4453 91.8359 Q282.6719 92.0625 282.6719 92.3906 Q282.6719 92.7188 282.4453 92.9453 Q282.2188 93.1719 281.8906 93.1719 Q281.5625 93.1719 281.3359 92.9453 Q281.1094 92.7188 281.1094 92.3906 ZM279.8125 84.6406 Q280.4375 84.3594 281 84.2266 Q281.5625 84.0938 282.0469 84.0938 Q283.3438 84.0938 284.1016 84.7188 Q284.8594 85.3438 284.8594 86.4062 Q284.8594 87.5 284.2109 88.1953 Q283.5625 88.8906 282.25 89.1875 L282.25 90.6719 L281.5312 90.6719 L281.5312 88.75 Q282.5625 88.5 283.0938 87.9062 Q283.625 87.3125 283.625 86.4062 Q283.625 85.5938 283.1953 85.1328 Q282.7656 84.6719 282.0312 84.6719 Q281.3594 84.6719 280.9297 85.0547 Q280.5 85.4375 280.3906 86.1562 L279.8125 86.1562 L279.8125 84.6406 Z" style="fill:black; stroke:none;" /><rect height="10" style="stroke:none;" width="6" x="265" y="83" /><path d="M267.1094 92.3906 Q267.1094 92.0625 267.3359 91.8359 Q267.5625 91.6094 267.8906 91.6094 Q268.2188 91.6094 268.4453 91.8359 Q268.6719 92.0625 268.6719 92.3906 Q268.6719 92.7188 268.4453 92.9453 Q268.2188 93.1719 267.8906 93.1719 Q267.5625 93.1719 267.3359 92.9453 Q267.1094 92.7188 267.1094 92.3906 ZM265.8125 84.6406 Q266.4375 84.3594 267 84.2266 Q267.5625 84.0938 268.0469 84.0938 Q269.3438 84.0938 270.1016 84.7188 Q270.8594 85.3438 270.8594 86.4062 Q270.8594 87.5 270.2109 88.1953 Q269.5625 88.8906 268.25 89.1875 L268.25 90.6719 L267.5312 90.6719 L267.5312 88.75 Q268.5625 88.5 269.0938 87.9062 Q269.625 87.3125 269.625 86.4062 Q269.625 85.5938 269.1953 85.1328 Q268.7656 84.6719 268.0312 84.6719 Q267.3594 84.6719 266.9297 85.0547 Q266.5 85.4375 266.3906 86.1562 L265.8125 86.1562 L265.8125 84.6406 Z" style="fill:black; stroke:none;" /></g><g ID="li-1:1,2" style="fill:white; text-rendering:optimizeSpeed; font-family:'Serif'; stroke:white;"><rect height="10" style="stroke:none;" width="6" x="331" y="83" /><path d="M333.1094 92.3906 Q333.1094 92.0625 333.3359 91.8359 Q333.5625 91.6094 333.8906 91.6094 Q334.2188 91.6094 334.4453 91.8359 Q334.6719 92.0625 334.6719 92.3906 Q334.6719 92.7188 334.4453 92.9453 Q334.2188 93.1719 333.8906 93.1719 Q333.5625 93.1719 333.3359 92.9453 Q333.1094 92.7188 333.1094 92.3906 ZM331.8125 84.6406 Q332.4375 84.3594 333 84.2266 Q333.5625 84.0938 334.0469 84.0938 Q335.3438 84.0938 336.1016 84.7188 Q336.8594 85.3438 336.8594 86.4062 Q336.8594 87.5 336.2109 88.1953 Q335.5625 88.8906 334.25 89.1875 L334.25 90.6719 L333.5312 90.6719 L333.5312 88.75 Q334.5625 88.5 335.0938 87.9062 Q335.625 87.3125 335.625 86.4062 Q335.625 85.5938 335.1953 85.1328 Q334.7656 84.6719 334.0312 84.6719 Q333.3594 84.6719 332.9297 85.0547 Q332.5 85.4375 332.3906 86.1562 L331.8125 86.1562 L331.8125 84.6406 Z" style="fill:black; stroke:none;" /><rect height="10" style="stroke:none;" width="6" x="317" y="83" /><path d="M319.1094 92.3906 Q319.1094 92.0625 319.3359 91.8359 Q319.5625 91.6094 319.8906 91.6094 Q320.2188 91.6094 320.4453 91.8359 Q320.6719 92.0625 320.6719 92.3906 Q320.6719 92.7188 320.4453 92.9453 Q320.2188 93.1719 319.8906 93.1719 Q319.5625 93.1719 319.3359 92.9453 Q319.1094 92.7188 319.1094 92.3906 ZM317.8125 84.6406 Q318.4375 84.3594 319 84.2266 Q319.5625 84.0938 320.0469 84.0938 Q321.3438 84.0938 322.1016 84.7188 Q322.8594 85.3438 322.8594 86.4062 Q322.8594 87.5 322.2109 88.1953 Q321.5625 88.8906 320.25 89.1875 L320.25 90.6719 L319.5312 90.6719 L319.5312 88.75 Q320.5625 88.5 321.0938 87.9062 Q321.625 87.3125 321.625 86.4062 Q321.625 85.5938 321.1953 85.1328 Q320.7656 84.6719 320.0312 84.6719 Q319.3594 84.6719 318.9297 85.0547 Q318.5 85.4375 318.3906 86.1562 L317.8125 86.1562 L317.8125 84.6406 Z" style="fill:black; stroke:none;" /></g></g></svg>