<svg xmlns="http://www.w3.org/2000/svg" style="fill-opacity:1; color-rendering:auto; color-interpolation:auto; text-rendering:auto; stroke:black; stroke-linecap:square; stroke-miterlimit:10; shape-rendering:auto; stroke-opacity:1; fill:black; stroke-dasharray:none; font-weight:normal; stroke-width:1; font-family:'Dialog'; font-style:normal; stroke-linejoin:miter; font-size:12px; stroke-dashoffset:0; image-rendering:auto;"><defs id="genericDefs" /><g><defs id="defs1"><clipPath clipPathUnits="userSpaceOnUse" id="clipPath1"><path d="M290 82 L312 82 L312 104 L290 104 L290 82 Z" /></clipPath><clipPath clipPathUnits="userSpaceOnUse" id="clipPath2"><path d="M238 108 L260 108 L260 130 L238 130 L238 108 Z" /></clipPath><clipPath clipPathUnits="userSpaceOnUse" id="clipPath3"><path d="M208 119 C208 125.0751 203.0751 130 197 130 C190.9249 130 186 125.0751 186 119 C186 112.9249 190.9249 108 197 108 C203.0751 108 208 112.9249 208 119 Z" /></clipPath><clipPath clipPathUnits="userSpaceOnUse" id="clipPath4"><path d="M134 160 L156 160 L156 182 L134 182 L134 160 Z" /></clipPath><clipPath clipPathUnits="userSpaceOnUse" id="clipPath5"><path d="M104 171 C104 177.0751 99.0751 182 93 182 C86.9249 182 82 177.0751 82 171 C82 164.9249 86.9249 160 93 160 C99.0751 160 104 164.9249 104 171 Z" /></clipPath><clipPath clipPathUnits="userSpaceOnUse" id="clipPath6"><path d="M93 130 L82 108 L104 108 Z" style="fill-rule:evenodd;" /></clipPath><clipPath clipPathUnits="userSpaceOnUse" id="clipPath7"><path d="M30 160 L52 160 L52 182 L30 182 L30 160 Z" /></clipPath><clipPath clipPathUnits="userSpaceOnUse" id="clipPath8"><path d="M134 56 L156 56 L156 78 L134 78 L134 56 Z" /></clipPath><clipPath clipPathUnits="userSpaceOnUse" id="clipPath9"><path d="M104 67 C104 73.0751 99.0751 78 93 78 C86.9249 78 82 73.0751 82 67 C82 60.9249 86.9249 56 93 56 C99.0751 56 104 60.9249 104 67 Z" /></clipPath><clipPath clipPathUnits="userSpaceOnUse" id="clipPath10"><path d="M30 82 L52 82 L52 104 L30 104 L30 82 Z" /></clipPath><clipPath clipPathUnits="userSpaceOnUse" id="clipPath11"><path d="M41 30 L52 41 L41 52 L30 41 Z" style="fill-rule:evenodd;" /></clipPath><clipPath clipPathUnits="userSpaceOnUse" id="clipPath12"><path d="M249 56 L260 67 L249 78 L238 67 Z" style="fill-rule:evenodd;" /></clipPath></defs><g style="fill:white; text-rendering:optimizeSpeed; stroke:white;"><rect height="212" style="stroke:none;" width="342" x="0" y="0" /></g><g ID="l-1:1,2" style="text-rendering:optimizeSpeed;"><polygon points=" 301 93 249 119" style="fill:none;" /></g><g ID="l-1:1,3" style="text-rendering:optimizeSpeed;"><polygon points=" 301 93 249 67" style="fill:none;" /></g><g ID="r-1:1" style="fill:white; text-rendering:optimizeSpeed; stroke:white;" wurcs_mono_id="1"><rect height="22" style="clip-path:url(#clipPath1); stroke:none;" width="22" x="290" y="82" /><rect height="22" style="clip-path:url(#clipPath1); fill:rgb(255,212,0); stroke:none;" width="22" x="290" y="82" /><rect height="22" style="clip-path:url(#clipPath1); fill:none; stroke:black;" width="22" x="290" y="82" /><rect height="22" style="fill:none; stroke:black;" width="22" x="290" y="82" /></g><g style="font-style:italic; text-rendering:optimizeSpeed; font-size:10px; font-family:'SansSerif';"><path d="M302.0938 90.1562 Q301.375 90.1562 300.8359 90.7188 Q300.2969 91.2812 300.0781 92.2656 Q299.875 93.25 300.1719 93.8125 Q300.4688 94.375 301.2031 94.375 Q301.9219 94.375 302.4609 93.8125 Q303 93.25 303.2031 92.2656 Q303.4062 91.2969 303.1094 90.7266 Q302.8125 90.1562 302.0938 90.1562 ZM302.25 89.4062 Q303.4219 89.4062 303.9297 90.1641 Q304.4375 90.9219 304.1562 92.2656 Q303.875 93.6094 303.0391 94.375 Q302.2031 95.1406 301.0312 95.1406 Q299.8594 95.1406 299.3516 94.375 Q298.8438 93.6094 299.125 92.2656 Q299.4062 90.9219 300.2422 90.1641 Q301.0781 89.4062 302.25 89.4062 Z" style="stroke:none;" /></g><g ID="l-1:2,4" style="text-rendering:optimizeSpeed;"><polygon points=" 249 119 197 119" style="fill:none;" /></g><g ID="r-1:2" style="fill:white; text-rendering:optimizeSpeed; stroke:white;" wurcs_mono_id="2"><rect height="22" style="clip-path:url(#clipPath2); stroke:none;" width="22" x="238" y="108" /><rect height="22" style="clip-path:url(#clipPath2); fill:rgb(0,144,188); stroke:none;" width="22" x="238" y="108" /><rect height="22" style="clip-path:url(#clipPath2); fill:none; stroke:black;" width="22" x="238" y="108" /><rect height="22" style="fill:none; stroke:black;" width="22" x="238" y="108" /></g><g ID="l-1:4,5" style="text-rendering:optimizeSpeed;"><polygon points=" 197 119 145 171" style="fill:none;" /></g><g ID="l-1:4,6" style="text-rendering:optimizeSpeed;"><polygon points=" 197 119 145 67" style="fill:none;" /></g><g ID="r-1:4" style="fill:white; text-rendering:optimizeSpeed; stroke:white;" wurcs_mono_id="3"><circle cx="197" cy="119" r="11" style="clip-path:url(#clipPath3); stroke:none;" /><rect height="22" style="clip-path:url(#clipPath3); fill:rgb(255,212,0); stroke:none;" width="22" x="186" y="108" /><rect height="22" style="clip-path:url(#clipPath3); fill:none; stroke:black;" width="22" x="186" y="108" /><circle cx="197" cy="119" r="11" style="fill:none; stroke:black;" /></g><g ID="l-1:5,7" style="text-rendering:optimizeSpeed;"><polygon points=" 145 171 93 171" style="fill:none;" /></g><g ID="r-1:5" style="fill:white; text-rendering:optimizeSpeed; stroke:white;" wurcs_mono_id="4"><rect height="22" style="clip-path:url(#clipPath4); stroke:none;" width="22" x="134" y="160" /><rect height="22" style="clip-path:url(#clipPath4); fill:rgb(0,144,188); stroke:none;" width="22" x="134" y="160" /><rect height="22" style="clip-path:url(#clipPath4); fill:none; stroke:black;" width="22" x="134" y="160" /><rect height="22" style="fill:none; stroke:black;" width="22" x="134" y="160" /></g><g ID="l-1:7,8" style="text-rendering:optimizeSpeed;"><polygon points=" 93 171 93 119" style="fill:none;" /></g><g ID="l-1:7,9" style="text-rendering:optimizeSpeed;"><polygon points=" 93 171 41 171" style="fill:none;" /></g><g ID="r-1:7" style="fill:white; text-rendering:optimizeSpeed; stroke:white;" wurcs_mono_id="5"><circle cx="93" cy="171" r="11" style="clip-path:url(#clipPath5); stroke:none;" /><rect height="22" style="clip-path:url(#clipPath5); fill:rgb(255,212,0); stroke:none;" width="22" x="82" y="160" /><rect height="22" style="clip-path:url(#clipPath5); fill:none; stroke:black;" width="22" x="82" y="160" /><circle cx="93" cy="171" r="11" style="fill:none; stroke:black;" /></g><g ID="r-1:8" style="fill:white; text-rendering:optimizeSpeed; stroke:white;" wurcs_mono_id="6"><polygon points=" 93 130 82 108 104 108" style="stroke:none; clip-path:url(#clipPath6);" /><rect height="22" style="clip-path:url(#clipPath6); fill:rgb(237,28,36); stroke:none;" width="22" x="82" y="108" /><rect height="22" style="clip-path:url(#clipPath6); fill:none; stroke:black;" width="22" x="82" y="108" /><polygon points=" 93 130 82 108 104 108" style="fill:none; stroke:black;" /></g><g ID="r-1:9" style="fill:white; text-rendering:optimizeSpeed; stroke:white;" wurcs_mono_id="7"><rect height="22" style="clip-path:url(#clipPath7); stroke:none;" width="22" x="30" y="160" /><rect height="22" style="clip-path:url(#clipPath7); fill:rgb(255,212,0); stroke:none;" width="22" x="30" y="160" /><rect height="22" style="clip-path:url(#clipPath7); fill:none; stroke:black;" width="22" x="30" y="160" /><rect height="22" style="fill:none; stroke:black;" width="22" x="30" y="160" /></g><g ID="li-1:7,8" style="fill:white; text-rendering:optimizeSpeed; font-family:'Serif'; stroke:white;"><rect height="10" style="stroke:none;" width="6" x="82" y="147" /><path d="M84.1094 156.3906 Q84.1094 156.0625 84.3359 155.8359 Q84.5625 155.6094 84.8906 155.6094 Q85.2188 155.6094 85.4453 155.8359 Q85.6719 156.0625 85.6719 156.3906 Q85.6719 156.7188 85.4453 156.9453 Q85.2188 157.1719 84.8906 157.1719 Q84.5625 157.1719 84.3359 156.9453 Q84.1094 156.7188 84.1094 156.3906 ZM82.8125 148.6406 Q83.4375 148.3594 84 148.2266 Q84.5625 148.0938 85.0469 148.0938 Q86.3438 148.0938 87.1016 148.7188 Q87.8594 149.3438 87.8594 150.4062 Q87.8594 151.5 87.2109 152.1953 Q86.5625 152.8906 85.25 153.1875 L85.25 154.6719 L84.5312 154.6719 L84.5312 152.75 Q85.5625 152.5 86.0938 151.9062 Q86.625 151.3125 86.625 150.4062 Q86.625 149.5938 86.1953 149.1328 Q85.7656 148.6719 85.0312 148.6719 Q84.3594 148.6719 83.9297 149.0547 Q83.5 149.4375 83.3906 150.1562 L82.8125 150.1562 L82.8125 148.6406 Z" style="fill:black; stroke:none;" /><rect height="10" style="stroke:none;" width="6" x="82" y="133" /><path d="M84.1094 142.3906 Q84.1094 142.0625 84.3359 141.8359 Q84.5625 141.6094 84.8906 141.6094 Q85.2188 141.6094 85.4453 141.8359 Q85.6719 142.0625 85.6719 142.3906 Q85.6719 142.7188 85.4453 142.9453 Q85.2188 143.1719 84.8906 143.1719 Q84.5625 143.1719 84.3359 142.9453 Q84.1094 142.7188 84.1094 142.3906 ZM82.8125 134.6406 Q83.4375 134.3594 84 134.2266 Q84.5625 134.0938 85.0469 134.0938 Q86.3438 134.0938 87.1016 134.7188 Q87.8594 135.3438 87.8594 136.4062 Q87.8594 137.5 87.2109 138.1953 Q86.5625 138.8906 85.25 139.1875 L85.25 140.6719 L84.5312 140.6719 L84.5312 138.75 Q85.5625 138.5 86.0938 137.9062 Q86.625 137.3125 86.625 136.4062 Q86.625 135.5938 86.1953 135.1328 Q85.7656 134.6719 85.0312 134.6719 Q84.3594 134.6719 83.9297 135.0547 Q83.5 135.4375 83.3906 136.1562 L82.8125 136.1562 L82.8125 134.6406 Z" style="fill:black; stroke:none;" /></g><g ID="li-1:7,9" style="fill:white; text-rendering:optimizeSpeed; font-family:'Serif'; stroke:white;"><rect height="10" style="stroke:none;" width="6" x="71" y="174" /><path d="M73.1094 183.3906 Q73.1094 183.0625 73.3359 182.8359 Q73.5625 182.6094 73.8906 182.6094 Q74.2188 182.6094 74.4453 182.8359 Q74.6719 183.0625 74.6719 183.3906 Q74.6719 183.7188 74.4453 183.9453 Q74.2188 184.1719 73.8906 184.1719 Q73.5625 184.1719 73.3359 183.9453 Q73.1094 183.7188 73.1094 183.3906 ZM71.8125 175.6406 Q72.4375 175.3594 73 175.2266 Q73.5625 175.0938 74.0469 175.0938 Q75.3438 175.0938 76.1016 175.7188 Q76.8594 176.3438 76.8594 177.4062 Q76.8594 178.5 76.2109 179.1953 Q75.5625 179.8906 74.25 180.1875 L74.25 181.6719 L73.5312 181.6719 L73.5312 179.75 Q74.5625 179.5 75.0938 178.9062 Q75.625 178.3125 75.625 177.4062 Q75.625 176.5938 75.1953 176.1328 Q74.7656 175.6719 74.0312 175.6719 Q73.3594 175.6719 72.9297 176.0547 Q72.5 176.4375 72.3906 177.1562 L71.8125 177.1562 L71.8125 175.6406 Z" style="fill:black; stroke:none;" /><rect height="10" style="stroke:none;" width="6" x="57" y="174" /><path d="M59.1094 183.3906 Q59.1094 183.0625 59.3359 182.8359 Q59.5625 182.6094 59.8906 182.6094 Q60.2188 182.6094 60.4453 182.8359 Q60.6719 183.0625 60.6719 183.3906 Q60.6719 183.7188 60.4453 183.9453 Q60.2188 184.1719 59.8906 184.1719 Q59.5625 184.1719 59.3359 183.9453 Q59.1094 183.7188 59.1094 183.3906 ZM57.8125 175.6406 Q58.4375 175.3594 59 175.2266 Q59.5625 175.0938 60.0469 175.0938 Q61.3438 175.0938 62.1016 175.7188 Q62.8594 176.3438 62.8594 177.4062 Q62.8594 178.5 62.2109 179.1953 Q61.5625 179.8906 60.25 180.1875 L60.25 181.6719 L59.5312 181.6719 L59.5312 179.75 Q60.5625 179.5 61.0938 178.9062 Q61.625 178.3125 61.625 177.4062 Q61.625 176.5938 61.1953 176.1328 Q60.7656 175.6719 60.0312 175.6719 Q59.3594 175.6719 58.9297 176.0547 Q58.5 176.4375 58.3906 177.1562 L57.8125 177.1562 L57.8125 175.6406 Z" style="fill:black; stroke:none;" /></g><g ID="li-1:5,7" style="fill:white; text-rendering:optimizeSpeed; font-family:'Serif'; stroke:white;"><rect height="10" style="stroke:none;" width="6" x="123" y="174" /><path d="M125.1094 183.3906 Q125.1094 183.0625 125.3359 182.8359 Q125.5625 182.6094 125.8906 182.6094 Q126.2188 182.6094 126.4453 182.8359 Q126.6719 183.0625 126.6719 183.3906 Q126.6719 183.7188 126.4453 183.9453 Q126.2188 184.1719 125.8906 184.1719 Q125.5625 184.1719 125.3359 183.9453 Q125.1094 183.7188 125.1094 183.3906 ZM123.8125 175.6406 Q124.4375 175.3594 125 175.2266 Q125.5625 175.0938 126.0469 175.0938 Q127.3438 175.0938 128.1016 175.7188 Q128.8594 176.3438 128.8594 177.4062 Q128.8594 178.5 128.2109 179.1953 Q127.5625 179.8906 126.25 180.1875 L126.25 181.6719 L125.5312 181.6719 L125.5312 179.75 Q126.5625 179.5 127.0938 178.9062 Q127.625 178.3125 127.625 177.4062 Q127.625 176.5938 127.1953 176.1328 Q126.7656 175.6719 126.0312 175.6719 Q125.3594 175.6719 124.9297 176.0547 Q124.5 176.4375 124.3906 177.1562 L123.8125 177.1562 L123.8125 175.6406 Z" style="fill:black; stroke:none;" /><rect height="10" style="stroke:none;" width="6" x="109" y="174" /><path d="M111.1094 183.3906 Q111.1094 183.0625 111.3359 182.8359 Q111.5625 182.6094 111.8906 182.6094 Q112.2188 182.6094 112.4453 182.8359 Q112.6719 183.0625 112.6719 183.3906 Q112.6719 183.7188 112.4453 183.9453 Q112.2188 184.1719 111.8906 184.1719 Q111.5625 184.1719 111.3359 183.9453 Q111.1094 183.7188 111.1094 183.3906 ZM109.8125 175.6406 Q110.4375 175.3594 111 175.2266 Q111.5625 175.0938 112.0469 175.0938 Q113.3438 175.0938 114.1016 175.7188 Q114.8594 176.3438 114.8594 177.4062 Q114.8594 178.5 114.2109 179.1953 Q113.5625 179.8906 112.25 180.1875 L112.25 181.6719 L111.5312 181.6719 L111.5312 179.75 Q112.5625 179.5 113.0938 178.9062 Q113.625 178.3125 113.625 177.4062 Q113.625 176.5938 113.1953 176.1328 Q112.7656 175.6719 112.0312 175.6719 Q111.3594 175.6719 110.9297 176.0547 Q110.5 176.4375 110.3906 177.1562 L109.8125 177.1562 L109.8125 175.6406 Z" style="fill:black; stroke:none;" /></g><g ID="l-1:6,10" style="text-rendering:optimizeSpeed;"><polygon points=" 145 67 93 67" style="fill:none;" /></g><g ID="r-1:6" style="fill:white; text-rendering:optimizeSpeed; stroke:white;" wurcs_mono_id="8"><rect height="22" style="clip-path:url(#clipPath8); stroke:none;" width="22" x="134" y="56" /><rect height="22" style="clip-path:url(#clipPath8); fill:rgb(0,144,188); stroke:none;" width="22" x="134" y="56" /><rect height="22" style="clip-path:url(#clipPath8); fill:none; stroke:black;" width="22" x="134" y="56" /><rect height="22" style="fill:none; stroke:black;" width="22" x="134" y="56" /></g><g ID="l-1:10,11" style="text-rendering:optimizeSpeed;"><polygon points=" 93 67 41 93" style="fill:none;" /></g><g ID="l-1:10,12" style="text-rendering:optimizeSpeed;"><polygon points=" 93 67 41 41" style="fill:none;" /></g><g ID="r-1:10" style="fill:white; text-rendering:optimizeSpeed; stroke:white;" wurcs_mono_id="9"><circle cx="93" cy="67" r="11" style="clip-path:url(#clipPath9); stroke:none;" /><rect height="22" style="clip-path:url(#clipPath9); fill:rgb(255,212,0); stroke:none;" width="22" x="82" y="56" /><rect height="22" style="clip-path:url(#clipPath9); fill:none; stroke:black;" width="22" x="82" y="56" /><circle cx="93" cy="67" r="11" style="fill:none; stroke:black;" /></g><g ID="r-1:11" style="fill:white; text-rendering:optimizeSpeed; stroke:white;" wurcs_mono_id="10"><rect height="22" style="clip-path:url(#clipPath10); stroke:none;" width="22" x="30" y="82" /><rect height="22" style="clip-path:url(#clipPath10); fill:rgb(255,212,0); stroke:none;" width="22" x="30" y="82" /><rect height="22" style="clip-path:url(#clipPath10); fill:none; stroke:black;" width="22" x="30" y="82" /><rect height="22" style="fill:none; stroke:black;" width="22" x="30" y="82" /></g><g ID="r-1:12" style="fill:white; text-rendering:optimizeSpeed; stroke:white;" wurcs_mono_id="11"><polygon points=" 41 30 52 41 41 52 30 41" style="stroke:none; clip-path:url(#clipPath11);" /><rect height="22" style="clip-path:url(#clipPath11); fill:rgb(165,67,153); stroke:none;" width="22" x="30" y="30" /><rect height="22" style="clip-path:url(#clipPath11); fill:none; stroke:black;" width="22" x="30" y="30" /><polygon points=" 41 30 52 41 41 52 30 41" style="fill:none; stroke:black;" /></g><g ID="li-1:10,11" style="fill:white; text-rendering:optimizeSpeed; font-family:'Serif'; stroke:white;"><rect height="10" style="stroke:none;" width="6" x="75" y="78" /><path d="M77.1094 87.3906 Q77.1094 87.0625 77.3359 86.8359 Q77.5625 86.6094 77.8906 86.6094 Q78.2188 86.6094 78.4453 86.8359 Q78.6719 87.0625 78.6719 87.3906 Q78.6719 87.7188 78.4453 87.9453 Q78.2188 88.1719 77.8906 88.1719 Q77.5625 88.1719 77.3359 87.9453 Q77.1094 87.7188 77.1094 87.3906 ZM75.8125 79.6406 Q76.4375 79.3594 77 79.2266 Q77.5625 79.0938 78.0469 79.0938 Q79.3438 79.0938 80.1016 79.7188 Q80.8594 80.3438 80.8594 81.4062 Q80.8594 82.5 80.2109 83.1953 Q79.5625 83.8906 78.25 84.1875 L78.25 85.6719 L77.5312 85.6719 L77.5312 83.75 Q78.5625 83.5 79.0938 82.9062 Q79.625 82.3125 79.625 81.4062 Q79.625 80.5938 79.1953 80.1328 Q78.7656 79.6719 78.0312 79.6719 Q77.3594 79.6719 76.9297 80.0547 Q76.5 80.4375 76.3906 81.1562 L75.8125 81.1562 L75.8125 79.6406 Z" style="fill:black; stroke:none;" /><rect height="10" style="stroke:none;" width="6" x="59" y="86" /><path d="M61.1094 95.3906 Q61.1094 95.0625 61.3359 94.8359 Q61.5625 94.6094 61.8906 94.6094 Q62.2188 94.6094 62.4453 94.8359 Q62.6719 95.0625 62.6719 95.3906 Q62.6719 95.7188 62.4453 95.9453 Q62.2188 96.1719 61.8906 96.1719 Q61.5625 96.1719 61.3359 95.9453 Q61.1094 95.7188 61.1094 95.3906 ZM59.8125 87.6406 Q60.4375 87.3594 61 87.2266 Q61.5625 87.0938 62.0469 87.0938 Q63.3438 87.0938 64.1016 87.7188 Q64.8594 88.3438 64.8594 89.4062 Q64.8594 90.5 64.2109 91.1953 Q63.5625 91.8906 62.25 92.1875 L62.25 93.6719 L61.5312 93.6719 L61.5312 91.75 Q62.5625 91.5 63.0938 90.9062 Q63.625 90.3125 63.625 89.4062 Q63.625 88.5938 63.1953 88.1328 Q62.7656 87.6719 62.0312 87.6719 Q61.3594 87.6719 60.9297 88.0547 Q60.5 88.4375 60.3906 89.1562 L59.8125 89.1562 L59.8125 87.6406 Z" style="fill:black; stroke:none;" /></g><g ID="li-1:10,12" style="fill:white; text-rendering:optimizeSpeed; font-family:'Serif'; stroke:white;"><rect height="10" style="stroke:none;" width="6" x="68" y="60" /><path d="M70.1094 69.3906 Q70.1094 69.0625 70.3359 68.8359 Q70.5625 68.6094 70.8906 68.6094 Q71.2188 68.6094 71.4453 68.8359 Q71.6719 69.0625 71.6719 69.3906 Q71.6719 69.7188 71.4453 69.9453 Q71.2188 70.1719 70.8906 70.1719 Q70.5625 70.1719 70.3359 69.9453 Q70.1094 69.7188 70.1094 69.3906 ZM68.8125 61.6406 Q69.4375 61.3594 70 61.2266 Q70.5625 61.0938 71.0469 61.0938 Q72.3438 61.0938 73.1016 61.7188 Q73.8594 62.3438 73.8594 63.4062 Q73.8594 64.5 73.2109 65.1953 Q72.5625 65.8906 71.25 66.1875 L71.25 67.6719 L70.5312 67.6719 L70.5312 65.75 Q71.5625 65.5 72.0938 64.9062 Q72.625 64.3125 72.625 63.4062 Q72.625 62.5938 72.1953 62.1328 Q71.7656 61.6719 71.0312 61.6719 Q70.3594 61.6719 69.9297 62.0547 Q69.5 62.4375 69.3906 63.1562 L68.8125 63.1562 L68.8125 61.6406 Z" style="fill:black; stroke:none;" /><rect height="10" style="stroke:none;" width="6" x="52" y="52" /><path d="M54.1094 61.3906 Q54.1094 61.0625 54.3359 60.8359 Q54.5625 60.6094 54.8906 60.6094 Q55.2188 60.6094 55.4453 60.8359 Q55.6719 61.0625 55.6719 61.3906 Q55.6719 61.7188 55.4453 61.9453 Q55.2188 62.1719 54.8906 62.1719 Q54.5625 62.1719 54.3359 61.9453 Q54.1094 61.7188 54.1094 61.3906 ZM52.8125 53.6406 Q53.4375 53.3594 54 53.2266 Q54.5625 53.0938 55.0469 53.0938 Q56.3438 53.0938 57.1016 53.7188 Q57.8594 54.3438 57.8594 55.4062 Q57.8594 56.5 57.2109 57.1953 Q56.5625 57.8906 55.25 58.1875 L55.25 59.6719 L54.5312 59.6719 L54.5312 57.75 Q55.5625 57.5 56.0938 56.9062 Q56.625 56.3125 56.625 55.4062 Q56.625 54.5938 56.1953 54.1328 Q55.7656 53.6719 55.0312 53.6719 Q54.3594 53.6719 53.9297 54.0547 Q53.5 54.4375 53.3906 55.1562 L52.8125 55.1562 L52.8125 53.6406 Z" style="fill:black; stroke:none;" /></g><g ID="li-1:6,10" style="fill:white; text-rendering:optimizeSpeed; font-family:'Serif'; stroke:white;"><rect height="10" style="stroke:none;" width="6" x="123" y="70" /><path d="M125.1094 79.3906 Q125.1094 79.0625 125.3359 78.8359 Q125.5625 78.6094 125.8906 78.6094 Q126.2188 78.6094 126.4453 78.8359 Q126.6719 79.0625 126.6719 79.3906 Q126.6719 79.7188 126.4453 79.9453 Q126.2188 80.1719 125.8906 80.1719 Q125.5625 80.1719 125.3359 79.9453 Q125.1094 79.7188 125.1094 79.3906 ZM123.8125 71.6406 Q124.4375 71.3594 125 71.2266 Q125.5625 71.0938 126.0469 71.0938 Q127.3438 71.0938 128.1016 71.7188 Q128.8594 72.3438 128.8594 73.4062 Q128.8594 74.5 128.2109 75.1953 Q127.5625 75.8906 126.25 76.1875 L126.25 77.6719 L125.5312 77.6719 L125.5312 75.75 Q126.5625 75.5 127.0938 74.9062 Q127.625 74.3125 127.625 73.4062 Q127.625 72.5938 127.1953 72.1328 Q126.7656 71.6719 126.0312 71.6719 Q125.3594 71.6719 124.9297 72.0547 Q124.5 72.4375 124.3906 73.1562 L123.8125 73.1562 L123.8125 71.6406 Z" style="fill:black; stroke:none;" /><rect height="10" style="stroke:none;" width="6" x="109" y="70" /><path d="M111.1094 79.3906 Q111.1094 79.0625 111.3359 78.8359 Q111.5625 78.6094 111.8906 78.6094 Q112.2188 78.6094 112.4453 78.8359 Q112.6719 79.0625 112.6719 79.3906 Q112.6719 79.7188 112.4453 79.9453 Q112.2188 80.1719 111.8906 80.1719 Q111.5625 80.1719 111.3359 79.9453 Q111.1094 79.7188 111.1094 79.3906 ZM109.8125 71.6406 Q110.4375 71.3594 111 71.2266 Q111.5625 71.0938 112.0469 71.0938 Q113.3438 71.0938 114.1016 71.7188 Q114.8594 72.3438 114.8594 73.4062 Q114.8594 74.5 114.2109 75.1953 Q113.5625 75.8906 112.25 76.1875 L112.25 77.6719 L111.5312 77.6719 L111.5312 75.75 Q112.5625 75.5 113.0938 74.9062 Q113.625 74.3125 113.625 73.4062 Q113.625 72.5938 113.1953 72.1328 Q112.7656 71.6719 112.0312 71.6719 Q111.3594 71.6719 110.9297 72.0547 Q110.5 72.4375 110.3906 73.1562 L109.8125 73.1562 L109.8125 71.6406 Z" style="fill:black; stroke:none;" /></g><g ID="li-1:4,5" style="fill:white; text-rendering:optimizeSpeed; font-family:'Serif'; stroke:white;"><rect height="10" style="stroke:none;" width="6" x="183" y="136" /><path d="M185.1094 145.3906 Q185.1094 145.0625 185.3359 144.8359 Q185.5625 144.6094 185.8906 144.6094 Q186.2188 144.6094 186.4453 144.8359 Q186.6719 145.0625 186.6719 145.3906 Q186.6719 145.7188 186.4453 145.9453 Q186.2188 146.1719 185.8906 146.1719 Q185.5625 146.1719 185.3359 145.9453 Q185.1094 145.7188 185.1094 145.3906 ZM183.8125 137.6406 Q184.4375 137.3594 185 137.2266 Q185.5625 137.0938 186.0469 137.0938 Q187.3438 137.0938 188.1016 137.7188 Q188.8594 138.3438 188.8594 139.4062 Q188.8594 140.5 188.2109 141.1953 Q187.5625 141.8906 186.25 142.1875 L186.25 143.6719 L185.5312 143.6719 L185.5312 141.75 Q186.5625 141.5 187.0938 140.9062 Q187.625 140.3125 187.625 139.4062 Q187.625 138.5938 187.1953 138.1328 Q186.7656 137.6719 186.0312 137.6719 Q185.3594 137.6719 184.9297 138.0547 Q184.5 138.4375 184.3906 139.1562 L183.8125 139.1562 L183.8125 137.6406 Z" style="fill:black; stroke:none;" /><rect height="10" style="stroke:none;" width="6" x="164" y="155" /><path d="M166.1094 164.3906 Q166.1094 164.0625 166.3359 163.8359 Q166.5625 163.6094 166.8906 163.6094 Q167.2188 163.6094 167.4453 163.8359 Q167.6719 164.0625 167.6719 164.3906 Q167.6719 164.7188 167.4453 164.9453 Q167.2188 165.1719 166.8906 165.1719 Q166.5625 165.1719 166.3359 164.9453 Q166.1094 164.7188 166.1094 164.3906 ZM164.8125 156.6406 Q165.4375 156.3594 166 156.2266 Q166.5625 156.0938 167.0469 156.0938 Q168.3438 156.0938 169.1016 156.7188 Q169.8594 157.3438 169.8594 158.4062 Q169.8594 159.5 169.2109 160.1953 Q168.5625 160.8906 167.25 161.1875 L167.25 162.6719 L166.5312 162.6719 L166.5312 160.75 Q167.5625 160.5 168.0938 159.9062 Q168.625 159.3125 168.625 158.4062 Q168.625 157.5938 168.1953 157.1328 Q167.7656 156.6719 167.0312 156.6719 Q166.3594 156.6719 165.9297 157.0547 Q165.5 157.4375 165.3906 158.1562 L164.8125 158.1562 L164.8125 156.6406 Z" style="fill:black; stroke:none;" /></g><g ID="li-1:4,6" style="fill:white; text-rendering:optimizeSpeed; font-family:'Serif'; stroke:white;"><rect height="10" style="stroke:none;" width="6" x="171" y="103" /><path d="M173.1094 112.3906 Q173.1094 112.0625 173.3359 111.8359 Q173.5625 111.6094 173.8906 111.6094 Q174.2188 111.6094 174.4453 111.8359 Q174.6719 112.0625 174.6719 112.3906 Q174.6719 112.7188 174.4453 112.9453 Q174.2188 113.1719 173.8906 113.1719 Q173.5625 113.1719 173.3359 112.9453 Q173.1094 112.7188 173.1094 112.3906 ZM171.8125 104.6406 Q172.4375 104.3594 173 104.2266 Q173.5625 104.0938 174.0469 104.0938 Q175.3438 104.0938 176.1016 104.7188 Q176.8594 105.3438 176.8594 106.4062 Q176.8594 107.5 176.2109 108.1953 Q175.5625 108.8906 174.25 109.1875 L174.25 110.6719 L173.5312 110.6719 L173.5312 108.75 Q174.5625 108.5 175.0938 107.9062 Q175.625 107.3125 175.625 106.4062 Q175.625 105.5938 175.1953 105.1328 Q174.7656 104.6719 174.0312 104.6719 Q173.3594 104.6719 172.9297 105.0547 Q172.5 105.4375 172.3906 106.1562 L171.8125 106.1562 L171.8125 104.6406 Z" style="fill:black; stroke:none;" /><rect height="10" style="stroke:none;" width="6" x="153" y="84" /><path d="M155.1094 93.3906 Q155.1094 93.0625 155.3359 92.8359 Q155.5625 92.6094 155.8906 92.6094 Q156.2188 92.6094 156.4453 92.8359 Q156.6719 93.0625 156.6719 93.3906 Q156.6719 93.7188 156.4453 93.9453 Q156.2188 94.1719 155.8906 94.1719 Q155.5625 94.1719 155.3359 93.9453 Q155.1094 93.7188 155.1094 93.3906 ZM153.8125 85.6406 Q154.4375 85.3594 155 85.2266 Q155.5625 85.0938 156.0469 85.0938 Q157.3438 85.0938 158.1016 85.7188 Q158.8594 86.3438 158.8594 87.4062 Q158.8594 88.5 158.2109 89.1953 Q157.5625 89.8906 156.25 90.1875 L156.25 91.6719 L155.5312 91.6719 L155.5312 89.75 Q156.5625 89.5 157.0938 88.9062 Q157.625 88.3125 157.625 87.4062 Q157.625 86.5938 157.1953 86.1328 Q156.7656 85.6719 156.0312 85.6719 Q155.3594 85.6719 154.9297 86.0547 Q154.5 86.4375 154.3906 87.1562 L153.8125 87.1562 L153.8125 85.6406 Z" style="fill:black; stroke:none;" /></g><g ID="li-1:2,4" style="fill:white; text-rendering:optimizeSpeed; font-family:'Serif'; stroke:white;"><rect height="10" style="stroke:none;" width="6" x="227" y="122" /><path d="M229.1094 131.3906 Q229.1094 131.0625 229.3359 130.8359 Q229.5625 130.6094 229.8906 130.6094 Q230.2188 130.6094 230.4453 130.8359 Q230.6719 131.0625 230.6719 131.3906 Q230.6719 131.7188 230.4453 131.9453 Q230.2188 132.1719 229.8906 132.1719 Q229.5625 132.1719 229.3359 131.9453 Q229.1094 131.7188 229.1094 131.3906 ZM227.8125 123.6406 Q228.4375 123.3594 229 123.2266 Q229.5625 123.0938 230.0469 123.0938 Q231.3438 123.0938 232.1016 123.7188 Q232.8594 124.3438 232.8594 125.4062 Q232.8594 126.5 232.2109 127.1953 Q231.5625 127.8906 230.25 128.1875 L230.25 129.6719 L229.5312 129.6719 L229.5312 127.75 Q230.5625 127.5 231.0938 126.9062 Q231.625 126.3125 231.625 125.4062 Q231.625 124.5938 231.1953 124.1328 Q230.7656 123.6719 230.0312 123.6719 Q229.3594 123.6719 228.9297 124.0547 Q228.5 124.4375 228.3906 125.1562 L227.8125 125.1562 L227.8125 123.6406 Z" style="fill:black; stroke:none;" /><rect height="10" style="stroke:none;" width="6" x="213" y="122" /><path d="M215.1094 131.3906 Q215.1094 131.0625 215.3359 130.8359 Q215.5625 130.6094 215.8906 130.6094 Q216.2188 130.6094 216.4453 130.8359 Q216.6719 131.0625 216.6719 131.3906 Q216.6719 131.7188 216.4453 131.9453 Q216.2188 132.1719 215.8906 132.1719 Q215.5625 132.1719 215.3359 131.9453 Q215.1094 131.7188 215.1094 131.3906 ZM213.8125 123.6406 Q214.4375 123.3594 215 123.2266 Q215.5625 123.0938 216.0469 123.0938 Q217.3438 123.0938 218.1016 123.7188 Q218.8594 124.3438 218.8594 125.4062 Q218.8594 126.5 218.2109 127.1953 Q217.5625 127.8906 216.25 128.1875 L216.25 129.6719 L215.5312 129.6719 L215.5312 127.75 Q216.5625 127.5 217.0938 126.9062 Q217.625 126.3125 217.625 125.4062 Q217.625 124.5938 217.1953 124.1328 Q216.7656 123.6719 216.0312 123.6719 Q215.3594 123.6719 214.9297 124.0547 Q214.5 124.4375 214.3906 125.1562 L213.8125 125.1562 L213.8125 123.6406 Z" style="fill:black; stroke:none;" /></g><g ID="r-1:3" style="fill:white; text-rendering:optimizeSpeed; stroke:white;" wurcs_mono_id="12"><polygon points=" 249 56 260 67 249 78 238 67" style="stroke:none; clip-path:url(#clipPath12);" /><rect height="22" style="clip-path:url(#clipPath12); fill:rgb(165,67,153); stroke:none;" width="22" x="238" y="56" /><rect height="22" style="clip-path:url(#clipPath12); fill:none; stroke:black;" width="22" x="238" y="56" /><polygon points=" 249 56 260 67 249 78 238 67" style="fill:none; stroke:black;" /></g><g ID="li-1:1,2" style="fill:white; text-rendering:optimizeSpeed; font-family:'Serif'; stroke:white;"><rect height="10" style="stroke:none;" width="6" x="283" y="104" /><path d="M285.1094 113.3906 Q285.1094 113.0625 285.3359 112.8359 Q285.5625 112.6094 285.8906 112.6094 Q286.2188 112.6094 286.4453 112.8359 Q286.6719 113.0625 286.6719 113.3906 Q286.6719 113.7188 286.4453 113.9453 Q286.2188 114.1719 285.8906 114.1719 Q285.5625 114.1719 285.3359 113.9453 Q285.1094 113.7188 285.1094 113.3906 ZM283.8125 105.6406 Q284.4375 105.3594 285 105.2266 Q285.5625 105.0938 286.0469 105.0938 Q287.3438 105.0938 288.1016 105.7188 Q288.8594 106.3438 288.8594 107.4062 Q288.8594 108.5 288.2109 109.1953 Q287.5625 109.8906 286.25 110.1875 L286.25 111.6719 L285.5312 111.6719 L285.5312 109.75 Q286.5625 109.5 287.0938 108.9062 Q287.625 108.3125 287.625 107.4062 Q287.625 106.5938 287.1953 106.1328 Q286.7656 105.6719 286.0312 105.6719 Q285.3594 105.6719 284.9297 106.0547 Q284.5 106.4375 284.3906 107.1562 L283.8125 107.1562 L283.8125 105.6406 Z" style="fill:black; stroke:none;" /><rect height="10" style="stroke:none;" width="6" x="267" y="112" /><path d="M269.1094 121.3906 Q269.1094 121.0625 269.3359 120.8359 Q269.5625 120.6094 269.8906 120.6094 Q270.2188 120.6094 270.4453 120.8359 Q270.6719 121.0625 270.6719 121.3906 Q270.6719 121.7188 270.4453 121.9453 Q270.2188 122.1719 269.8906 122.1719 Q269.5625 122.1719 269.3359 121.9453 Q269.1094 121.7188 269.1094 121.3906 ZM267.8125 113.6406 Q268.4375 113.3594 269 113.2266 Q269.5625 113.0938 270.0469 113.0938 Q271.3438 113.0938 272.1016 113.7188 Q272.8594 114.3438 272.8594 115.4062 Q272.8594 116.5 272.2109 117.1953 Q271.5625 117.8906 270.25 118.1875 L270.25 119.6719 L269.5312 119.6719 L269.5312 117.75 Q270.5625 117.5 271.0938 116.9062 Q271.625 116.3125 271.625 115.4062 Q271.625 114.5938 271.1953 114.1328 Q270.7656 113.6719 270.0312 113.6719 Q269.3594 113.6719 268.9297 114.0547 Q268.5 114.4375 268.3906 115.1562 L267.8125 115.1562 L267.8125 113.6406 Z" style="fill:black; stroke:none;" /></g><g ID="li-1:1,3" style="fill:white; text-rendering:optimizeSpeed; font-family:'Serif'; stroke:white;"><rect height="10" style="stroke:none;" width="6" x="276" y="86" /><path d="M278.1094 95.3906 Q278.1094 95.0625 278.3359 94.8359 Q278.5625 94.6094 278.8906 94.6094 Q279.2188 94.6094 279.4453 94.8359 Q279.6719 95.0625 279.6719 95.3906 Q279.6719 95.7188 279.4453 95.9453 Q279.2188 96.1719 278.8906 96.1719 Q278.5625 96.1719 278.3359 95.9453 Q278.1094 95.7188 278.1094 95.3906 ZM276.8125 87.6406 Q277.4375 87.3594 278 87.2266 Q278.5625 87.0938 279.0469 87.0938 Q280.3438 87.0938 281.1016 87.7188 Q281.8594 88.3438 281.8594 89.4062 Q281.8594 90.5 281.2109 91.1953 Q280.5625 91.8906 279.25 92.1875 L279.25 93.6719 L278.5312 93.6719 L278.5312 91.75 Q279.5625 91.5 280.0938 90.9062 Q280.625 90.3125 280.625 89.4062 Q280.625 88.5938 280.1953 88.1328 Q279.7656 87.6719 279.0312 87.6719 Q278.3594 87.6719 277.9297 88.0547 Q277.5 88.4375 277.3906 89.1562 L276.8125 89.1562 L276.8125 87.6406 Z" style="fill:black; stroke:none;" /><rect height="10" style="stroke:none;" width="6" x="260" y="78" /><path d="M262.1094 87.3906 Q262.1094 87.0625 262.3359 86.8359 Q262.5625 86.6094 262.8906 86.6094 Q263.2188 86.6094 263.4453 86.8359 Q263.6719 87.0625 263.6719 87.3906 Q263.6719 87.7188 263.4453 87.9453 Q263.2188 88.1719 262.8906 88.1719 Q262.5625 88.1719 262.3359 87.9453 Q262.1094 87.7188 262.1094 87.3906 ZM260.8125 79.6406 Q261.4375 79.3594 262 79.2266 Q262.5625 79.0938 263.0469 79.0938 Q264.3438 79.0938 265.1016 79.7188 Q265.8594 80.3438 265.8594 81.4062 Q265.8594 82.5 265.2109 83.1953 Q264.5625 83.8906 263.25 84.1875 L263.25 85.6719 L262.5312 85.6719 L262.5312 83.75 Q263.5625 83.5 264.0938 82.9062 Q264.625 82.3125 264.625 81.4062 Q264.625 80.5938 264.1953 80.1328 Q263.7656 79.6719 263.0312 79.6719 Q262.3594 79.6719 261.9297 80.0547 Q261.5 80.4375 261.3906 81.1562 L260.8125 81.1562 L260.8125 79.6406 Z" style="fill:black; stroke:none;" /></g></g></svg>