<svg xmlns="http://www.w3.org/2000/svg" style="fill-opacity:1; color-rendering:auto; color-interpolation:auto; text-rendering:auto; stroke:black; stroke-linecap:square; stroke-miterlimit:10; shape-rendering:auto; stroke-opacity:1; fill:black; stroke-dasharray:none; font-weight:normal; stroke-width:1; font-family:'Dialog'; font-style:normal; stroke-linejoin:miter; font-size:12px; stroke-dashoffset:0; image-rendering:auto;"><defs id="genericDefs" /><g><defs id="defs1"><clipPath clipPathUnits="userSpaceOnUse" id="clipPath1"><path d="M342 69 L364 69 L364 91 L342 91 L342 69 Z" /></clipPath><clipPath clipPathUnits="userSpaceOnUse" id="clipPath2"><path d="M290 69 L312 69 L312 91 L290 91 L290 69 Z" /></clipPath><clipPath clipPathUnits="userSpaceOnUse" id="clipPath3"><path d="M260 80 C260 86.0751 255.0751 91 249 91 C242.9249 91 238 86.0751 238 80 C238 73.9249 242.9249 69 249 69 C255.0751 69 260 73.9249 260 80 Z" /></clipPath><clipPath clipPathUnits="userSpaceOnUse" id="clipPath4"><path d="M208 119 C208 125.0751 203.0751 130 197 130 C190.9249 130 186 125.0751 186 119 C186 112.9249 190.9249 108 197 108 C203.0751 108 208 112.9249 208 119 Z" /></clipPath><clipPath clipPathUnits="userSpaceOnUse" id="clipPath5"><path d="M134 134 L156 134 L156 156 L134 156 L134 134 Z" /></clipPath><clipPath clipPathUnits="userSpaceOnUse" id="clipPath6"><path d="M104 145 C104 151.0751 99.0751 156 93 156 C86.9249 156 82 151.0751 82 145 C82 138.9249 86.9249 134 93 134 C99.0751 134 104 138.9249 104 145 Z" /></clipPath><clipPath clipPathUnits="userSpaceOnUse" id="clipPath7"><path d="M41 134 L52 145 L41 156 L30 145 Z" style="fill-rule:evenodd;" /></clipPath><clipPath clipPathUnits="userSpaceOnUse" id="clipPath8"><path d="M134 82 L156 82 L156 104 L134 104 L134 82 Z" /></clipPath><clipPath clipPathUnits="userSpaceOnUse" id="clipPath9"><path d="M104 93 C104 99.0751 99.0751 104 93 104 C86.9249 104 82 99.0751 82 93 C82 86.9249 86.9249 82 93 82 C99.0751 82 104 86.9249 104 93 Z" /></clipPath><clipPath clipPathUnits="userSpaceOnUse" id="clipPath10"><path d="M41 82 L52 93 L41 104 L30 93 Z" style="fill-rule:evenodd;" /></clipPath><clipPath clipPathUnits="userSpaceOnUse" id="clipPath11"><path d="M208 41 C208 47.0751 203.0751 52 197 52 C190.9249 52 186 47.0751 186 41 C186 34.9249 190.9249 30 197 30 C203.0751 30 208 34.9249 208 41 Z" /></clipPath><clipPath clipPathUnits="userSpaceOnUse" id="clipPath12"><path d="M134 30 L156 30 L156 52 L134 52 L134 30 Z" /></clipPath><clipPath clipPathUnits="userSpaceOnUse" id="clipPath13"><path d="M104 41 C104 47.0751 99.0751 52 93 52 C86.9249 52 82 47.0751 82 41 C82 34.9249 86.9249 30 93 30 C99.0751 30 104 34.9249 104 41 Z" /></clipPath><clipPath clipPathUnits="userSpaceOnUse" id="clipPath14"><path d="M41 30 L52 41 L41 52 L30 41 Z" style="fill-rule:evenodd;" /></clipPath></defs><g style="fill:white; text-rendering:optimizeSpeed; stroke:white;"><rect height="186" style="stroke:none;" width="394" x="0" y="0" /></g><g ID="l-1:1,2" style="text-rendering:optimizeSpeed;"><polygon points=" 353 80 301 80" style="fill:none;" /></g><g ID="r-1:1" style="fill:white; text-rendering:optimizeSpeed; stroke:white;" wurcs_mono_id="1"><rect height="22" style="clip-path:url(#clipPath1); stroke:none;" width="22" x="342" y="69" /><rect height="22" style="clip-path:url(#clipPath1); fill:rgb(0,144,188); stroke:none;" width="22" x="342" y="69" /><rect height="22" style="clip-path:url(#clipPath1); fill:none; stroke:black;" width="22" x="342" y="69" /><rect height="22" style="fill:none; stroke:black;" width="22" x="342" y="69" /></g><g ID="l-1:2,3" style="text-rendering:optimizeSpeed;"><polygon points=" 301 80 249 80" style="fill:none;" /></g><g ID="r-1:2" style="fill:white; text-rendering:optimizeSpeed; stroke:white;" wurcs_mono_id="2"><rect height="22" style="clip-path:url(#clipPath2); stroke:none;" width="22" x="290" y="69" /><rect height="22" style="clip-path:url(#clipPath2); fill:rgb(0,144,188); stroke:none;" width="22" x="290" y="69" /><rect height="22" style="clip-path:url(#clipPath2); fill:none; stroke:black;" width="22" x="290" y="69" /><rect height="22" style="fill:none; stroke:black;" width="22" x="290" y="69" /></g><g ID="l-1:3,4" style="text-rendering:optimizeSpeed;"><polygon points=" 249 80 197 119" style="fill:none;" /></g><g ID="l-1:3,5" style="text-rendering:optimizeSpeed;"><polygon points=" 249 80 197 41" style="fill:none;" /></g><g ID="r-1:3" style="fill:white; text-rendering:optimizeSpeed; stroke:white;" wurcs_mono_id="3"><circle cx="249" cy="80" r="11" style="clip-path:url(#clipPath3); stroke:none;" /><rect height="22" style="clip-path:url(#clipPath3); fill:rgb(0,166,81); stroke:none;" width="22" x="238" y="69" /><rect height="22" style="clip-path:url(#clipPath3); fill:none; stroke:black;" width="22" x="238" y="69" /><circle cx="249" cy="80" r="11" style="fill:none; stroke:black;" /></g><g ID="l-1:4,6" style="text-rendering:optimizeSpeed;"><polygon points=" 197 119 145 145" style="fill:none;" /></g><g ID="l-1:4,7" style="text-rendering:optimizeSpeed;"><polygon points=" 197 119 145 93" style="fill:none;" /></g><g ID="r-1:4" style="fill:white; text-rendering:optimizeSpeed; stroke:white;" wurcs_mono_id="4"><circle cx="197" cy="119" r="11" style="clip-path:url(#clipPath4); stroke:none;" /><rect height="22" style="clip-path:url(#clipPath4); fill:rgb(0,166,81); stroke:none;" width="22" x="186" y="108" /><rect height="22" style="clip-path:url(#clipPath4); fill:none; stroke:black;" width="22" x="186" y="108" /><circle cx="197" cy="119" r="11" style="fill:none; stroke:black;" /></g><g ID="l-1:6,8" style="text-rendering:optimizeSpeed;"><polygon points=" 145 145 93 145" style="fill:none;" /></g><g ID="r-1:6" style="fill:white; text-rendering:optimizeSpeed; stroke:white;" wurcs_mono_id="5"><rect height="22" style="clip-path:url(#clipPath5); stroke:none;" width="22" x="134" y="134" /><rect height="22" style="clip-path:url(#clipPath5); fill:rgb(0,144,188); stroke:none;" width="22" x="134" y="134" /><rect height="22" style="clip-path:url(#clipPath5); fill:none; stroke:black;" width="22" x="134" y="134" /><rect height="22" style="fill:none; stroke:black;" width="22" x="134" y="134" /></g><g ID="l-1:8,9" style="text-rendering:optimizeSpeed;"><polygon points=" 93 145 41 145" style="fill:none;" /></g><g ID="r-1:8" style="fill:white; text-rendering:optimizeSpeed; stroke:white;" wurcs_mono_id="6"><circle cx="93" cy="145" r="11" style="clip-path:url(#clipPath6); stroke:none;" /><rect height="22" style="clip-path:url(#clipPath6); fill:rgb(255,212,0); stroke:none;" width="22" x="82" y="134" /><rect height="22" style="clip-path:url(#clipPath6); fill:none; stroke:black;" width="22" x="82" y="134" /><circle cx="93" cy="145" r="11" style="fill:none; stroke:black;" /></g><g ID="r-1:9" style="fill:white; text-rendering:optimizeSpeed; stroke:white;" wurcs_mono_id="7"><polygon points=" 41 134 52 145 41 156 30 145" style="stroke:none; clip-path:url(#clipPath7);" /><rect height="22" style="clip-path:url(#clipPath7); fill:rgb(165,67,153); stroke:none;" width="22" x="30" y="134" /><rect height="22" style="clip-path:url(#clipPath7); fill:none; stroke:black;" width="22" x="30" y="134" /><polygon points=" 41 134 52 145 41 156 30 145" style="fill:none; stroke:black;" /></g><g ID="li-1:8,9" style="fill:white; text-rendering:optimizeSpeed; font-family:'Serif'; stroke:white;"><rect height="10" style="stroke:none;" width="7" x="70" y="148" /><path d="M71.1719 149.625 Q71.8594 149.3594 72.4844 149.2266 Q73.1094 149.0938 73.6562 149.0938 Q74.9531 149.0938 75.6719 149.6484 Q76.3906 150.2031 76.3906 151.1875 Q76.3906 151.9688 75.8906 152.5 Q75.3906 153.0312 74.4844 153.2188 Q75.5625 153.375 76.1562 154.0078 Q76.75 154.6406 76.75 155.6406 Q76.75 156.8594 75.9219 157.5156 Q75.0938 158.1719 73.5469 158.1719 Q72.8594 158.1719 72.2109 158.0234 Q71.5625 157.875 70.9219 157.5781 L70.9219 155.875 L71.5781 155.875 Q71.625 156.7188 72.1406 157.1562 Q72.6562 157.5938 73.5781 157.5938 Q74.4688 157.5938 74.9922 157.0703 Q75.5156 156.5469 75.5156 155.6562 Q75.5156 154.625 74.9766 154.0938 Q74.4375 153.5625 73.4062 153.5625 L72.8594 153.5625 L72.8594 152.9531 L73.1406 152.9531 Q74.1719 152.9531 74.6875 152.5312 Q75.2031 152.1094 75.2031 151.25 Q75.2031 150.4844 74.7812 150.0781 Q74.3594 149.6719 73.5625 149.6719 Q72.7656 149.6719 72.3359 150.0469 Q71.9062 150.4219 71.8281 151.1562 L71.1719 151.1562 L71.1719 149.625 Z" style="fill:black; stroke:none;" /><rect height="10" style="stroke:none;" width="6" x="57" y="148" /><path d="M59.1094 157.3906 Q59.1094 157.0625 59.3359 156.8359 Q59.5625 156.6094 59.8906 156.6094 Q60.2188 156.6094 60.4453 156.8359 Q60.6719 157.0625 60.6719 157.3906 Q60.6719 157.7188 60.4453 157.9453 Q60.2188 158.1719 59.8906 158.1719 Q59.5625 158.1719 59.3359 157.9453 Q59.1094 157.7188 59.1094 157.3906 ZM57.8125 149.6406 Q58.4375 149.3594 59 149.2266 Q59.5625 149.0938 60.0469 149.0938 Q61.3438 149.0938 62.1016 149.7188 Q62.8594 150.3438 62.8594 151.4062 Q62.8594 152.5 62.2109 153.1953 Q61.5625 153.8906 60.25 154.1875 L60.25 155.6719 L59.5312 155.6719 L59.5312 153.75 Q60.5625 153.5 61.0938 152.9062 Q61.625 152.3125 61.625 151.4062 Q61.625 150.5938 61.1953 150.1328 Q60.7656 149.6719 60.0312 149.6719 Q59.3594 149.6719 58.9297 150.0547 Q58.5 150.4375 58.3906 151.1562 L57.8125 151.1562 L57.8125 149.6406 Z" style="fill:black; stroke:none;" /></g><g ID="li-1:6,8" style="fill:white; text-rendering:optimizeSpeed; font-family:'Serif'; stroke:white;"><rect height="9" style="stroke:none;" width="8" x="122" y="148" /><path d="M126.1875 154.0312 L126.1875 149.375 L123.2031 154.0312 L126.1875 154.0312 ZM128.7656 157 L124.7812 157 L124.7812 156.375 L126.1875 156.375 L126.1875 154.6562 L122.375 154.6562 L122.375 154.0156 L126.2031 148.0938 L127.3594 148.0938 L127.3594 154.0312 L129.0312 154.0312 L129.0312 154.6562 L127.3594 154.6562 L127.3594 156.375 L128.7656 156.375 L128.7656 157 Z" style="fill:black; stroke:none;" /><rect height="10" style="stroke:none;" width="6" x="109" y="148" /><path d="M111.1094 157.3906 Q111.1094 157.0625 111.3359 156.8359 Q111.5625 156.6094 111.8906 156.6094 Q112.2188 156.6094 112.4453 156.8359 Q112.6719 157.0625 112.6719 157.3906 Q112.6719 157.7188 112.4453 157.9453 Q112.2188 158.1719 111.8906 158.1719 Q111.5625 158.1719 111.3359 157.9453 Q111.1094 157.7188 111.1094 157.3906 ZM109.8125 149.6406 Q110.4375 149.3594 111 149.2266 Q111.5625 149.0938 112.0469 149.0938 Q113.3438 149.0938 114.1016 149.7188 Q114.8594 150.3438 114.8594 151.4062 Q114.8594 152.5 114.2109 153.1953 Q113.5625 153.8906 112.25 154.1875 L112.25 155.6719 L111.5312 155.6719 L111.5312 153.75 Q112.5625 153.5 113.0938 152.9062 Q113.625 152.3125 113.625 151.4062 Q113.625 150.5938 113.1953 150.1328 Q112.7656 149.6719 112.0312 149.6719 Q111.3594 149.6719 110.9297 150.0547 Q110.5 150.4375 110.3906 151.1562 L109.8125 151.1562 L109.8125 149.6406 Z" style="fill:black; stroke:none;" /></g><g ID="l-1:7,10" style="text-rendering:optimizeSpeed;"><polygon points=" 145 93 93 93" style="fill:none;" /></g><g ID="r-1:7" style="fill:white; text-rendering:optimizeSpeed; stroke:white;" wurcs_mono_id="8"><rect height="22" style="clip-path:url(#clipPath8); stroke:none;" width="22" x="134" y="82" /><rect height="22" style="clip-path:url(#clipPath8); fill:rgb(0,144,188); stroke:none;" width="22" x="134" y="82" /><rect height="22" style="clip-path:url(#clipPath8); fill:none; stroke:black;" width="22" x="134" y="82" /><rect height="22" style="fill:none; stroke:black;" width="22" x="134" y="82" /></g><g ID="l-1:10,11" style="text-rendering:optimizeSpeed;"><polygon points=" 93 93 41 93" style="fill:none;" /></g><g ID="r-1:10" style="fill:white; text-rendering:optimizeSpeed; stroke:white;" wurcs_mono_id="9"><circle cx="93" cy="93" r="11" style="clip-path:url(#clipPath9); stroke:none;" /><rect height="22" style="clip-path:url(#clipPath9); fill:rgb(255,212,0); stroke:none;" width="22" x="82" y="82" /><rect height="22" style="clip-path:url(#clipPath9); fill:none; stroke:black;" width="22" x="82" y="82" /><circle cx="93" cy="93" r="11" style="fill:none; stroke:black;" /></g><g ID="r-1:11" style="fill:white; text-rendering:optimizeSpeed; stroke:white;" wurcs_mono_id="10"><polygon points=" 41 82 52 93 41 104 30 93" style="stroke:none; clip-path:url(#clipPath10);" /><rect height="22" style="clip-path:url(#clipPath10); fill:rgb(165,67,153); stroke:none;" width="22" x="30" y="82" /><rect height="22" style="clip-path:url(#clipPath10); fill:none; stroke:black;" width="22" x="30" y="82" /><polygon points=" 41 82 52 93 41 104 30 93" style="fill:none; stroke:black;" /></g><g ID="li-1:10,11" style="fill:white; text-rendering:optimizeSpeed; font-family:'Serif'; stroke:white;"><rect height="10" style="stroke:none;" width="7" x="70" y="96" /><path d="M71.1719 97.625 Q71.8594 97.3594 72.4844 97.2266 Q73.1094 97.0938 73.6562 97.0938 Q74.9531 97.0938 75.6719 97.6484 Q76.3906 98.2031 76.3906 99.1875 Q76.3906 99.9688 75.8906 100.5 Q75.3906 101.0312 74.4844 101.2188 Q75.5625 101.375 76.1562 102.0078 Q76.75 102.6406 76.75 103.6406 Q76.75 104.8594 75.9219 105.5156 Q75.0938 106.1719 73.5469 106.1719 Q72.8594 106.1719 72.2109 106.0234 Q71.5625 105.875 70.9219 105.5781 L70.9219 103.875 L71.5781 103.875 Q71.625 104.7188 72.1406 105.1562 Q72.6562 105.5938 73.5781 105.5938 Q74.4688 105.5938 74.9922 105.0703 Q75.5156 104.5469 75.5156 103.6562 Q75.5156 102.625 74.9766 102.0938 Q74.4375 101.5625 73.4062 101.5625 L72.8594 101.5625 L72.8594 100.9531 L73.1406 100.9531 Q74.1719 100.9531 74.6875 100.5312 Q75.2031 100.1094 75.2031 99.25 Q75.2031 98.4844 74.7812 98.0781 Q74.3594 97.6719 73.5625 97.6719 Q72.7656 97.6719 72.3359 98.0469 Q71.9062 98.4219 71.8281 99.1562 L71.1719 99.1562 L71.1719 97.625 Z" style="fill:black; stroke:none;" /><rect height="10" style="stroke:none;" width="6" x="57" y="96" /><path d="M59.1094 105.3906 Q59.1094 105.0625 59.3359 104.8359 Q59.5625 104.6094 59.8906 104.6094 Q60.2188 104.6094 60.4453 104.8359 Q60.6719 105.0625 60.6719 105.3906 Q60.6719 105.7188 60.4453 105.9453 Q60.2188 106.1719 59.8906 106.1719 Q59.5625 106.1719 59.3359 105.9453 Q59.1094 105.7188 59.1094 105.3906 ZM57.8125 97.6406 Q58.4375 97.3594 59 97.2266 Q59.5625 97.0938 60.0469 97.0938 Q61.3438 97.0938 62.1016 97.7188 Q62.8594 98.3438 62.8594 99.4062 Q62.8594 100.5 62.2109 101.1953 Q61.5625 101.8906 60.25 102.1875 L60.25 103.6719 L59.5312 103.6719 L59.5312 101.75 Q60.5625 101.5 61.0938 100.9062 Q61.625 100.3125 61.625 99.4062 Q61.625 98.5938 61.1953 98.1328 Q60.7656 97.6719 60.0312 97.6719 Q59.3594 97.6719 58.9297 98.0547 Q58.5 98.4375 58.3906 99.1562 L57.8125 99.1562 L57.8125 97.6406 Z" style="fill:black; stroke:none;" /></g><g ID="li-1:7,10" style="fill:white; text-rendering:optimizeSpeed; font-family:'Serif'; stroke:white;"><rect height="9" style="stroke:none;" width="8" x="122" y="96" /><path d="M126.1875 102.0312 L126.1875 97.375 L123.2031 102.0312 L126.1875 102.0312 ZM128.7656 105 L124.7812 105 L124.7812 104.375 L126.1875 104.375 L126.1875 102.6562 L122.375 102.6562 L122.375 102.0156 L126.2031 96.0938 L127.3594 96.0938 L127.3594 102.0312 L129.0312 102.0312 L129.0312 102.6562 L127.3594 102.6562 L127.3594 104.375 L128.7656 104.375 L128.7656 105 Z" style="fill:black; stroke:none;" /><rect height="10" style="stroke:none;" width="6" x="109" y="96" /><path d="M111.1094 105.3906 Q111.1094 105.0625 111.3359 104.8359 Q111.5625 104.6094 111.8906 104.6094 Q112.2188 104.6094 112.4453 104.8359 Q112.6719 105.0625 112.6719 105.3906 Q112.6719 105.7188 112.4453 105.9453 Q112.2188 106.1719 111.8906 106.1719 Q111.5625 106.1719 111.3359 105.9453 Q111.1094 105.7188 111.1094 105.3906 ZM109.8125 97.6406 Q110.4375 97.3594 111 97.2266 Q111.5625 97.0938 112.0469 97.0938 Q113.3438 97.0938 114.1016 97.7188 Q114.8594 98.3438 114.8594 99.4062 Q114.8594 100.5 114.2109 101.1953 Q113.5625 101.8906 112.25 102.1875 L112.25 103.6719 L111.5312 103.6719 L111.5312 101.75 Q112.5625 101.5 113.0938 100.9062 Q113.625 100.3125 113.625 99.4062 Q113.625 98.5938 113.1953 98.1328 Q112.7656 97.6719 112.0312 97.6719 Q111.3594 97.6719 110.9297 98.0547 Q110.5 98.4375 110.3906 99.1562 L109.8125 99.1562 L109.8125 97.6406 Z" style="fill:black; stroke:none;" /></g><g ID="li-1:4,6" style="fill:white; text-rendering:optimizeSpeed; font-family:'Serif'; stroke:white;"><rect height="9" style="stroke:none;" width="7" x="178" y="130" /><path d="M179.5312 132.3438 L178.875 132.3438 L178.875 130.7812 Q179.5 130.4375 180.1406 130.2656 Q180.7812 130.0938 181.3906 130.0938 Q182.75 130.0938 183.5391 130.7578 Q184.3281 131.4219 184.3281 132.5469 Q184.3281 133.8438 182.5469 135.625 Q182.4062 135.7656 182.3281 135.8281 L180.125 138.0312 L183.7656 138.0312 L183.7656 136.9531 L184.4531 136.9531 L184.4531 139 L178.8125 139 L178.8125 138.3594 L181.4688 135.7188 Q182.3438 134.8281 182.7188 134.0938 Q183.0938 133.3594 183.0938 132.5469 Q183.0938 131.6719 182.6328 131.1719 Q182.1719 130.6719 181.375 130.6719 Q180.5312 130.6719 180.0781 131.0859 Q179.625 131.5 179.5312 132.3438 Z" style="fill:black; stroke:none;" /><rect height="10" style="stroke:none;" width="6" x="163" y="138" /><path d="M165.1094 147.3906 Q165.1094 147.0625 165.3359 146.8359 Q165.5625 146.6094 165.8906 146.6094 Q166.2188 146.6094 166.4453 146.8359 Q166.6719 147.0625 166.6719 147.3906 Q166.6719 147.7188 166.4453 147.9453 Q166.2188 148.1719 165.8906 148.1719 Q165.5625 148.1719 165.3359 147.9453 Q165.1094 147.7188 165.1094 147.3906 ZM163.8125 139.6406 Q164.4375 139.3594 165 139.2266 Q165.5625 139.0938 166.0469 139.0938 Q167.3438 139.0938 168.1016 139.7188 Q168.8594 140.3438 168.8594 141.4062 Q168.8594 142.5 168.2109 143.1953 Q167.5625 143.8906 166.25 144.1875 L166.25 145.6719 L165.5312 145.6719 L165.5312 143.75 Q166.5625 143.5 167.0938 142.9062 Q167.625 142.3125 167.625 141.4062 Q167.625 140.5938 167.1953 140.1328 Q166.7656 139.6719 166.0312 139.6719 Q165.3594 139.6719 164.9297 140.0547 Q164.5 140.4375 164.3906 141.1562 L163.8125 141.1562 L163.8125 139.6406 Z" style="fill:black; stroke:none;" /></g><g ID="li-1:4,7" style="fill:white; text-rendering:optimizeSpeed; font-family:'Serif'; stroke:white;"><rect height="9" style="stroke:none;" width="8" x="171" y="112" /><path d="M175.1875 118.0312 L175.1875 113.375 L172.2031 118.0312 L175.1875 118.0312 ZM177.7656 121 L173.7812 121 L173.7812 120.375 L175.1875 120.375 L175.1875 118.6562 L171.375 118.6562 L171.375 118.0156 L175.2031 112.0938 L176.3594 112.0938 L176.3594 118.0312 L178.0312 118.0312 L178.0312 118.6562 L176.3594 118.6562 L176.3594 120.375 L177.7656 120.375 L177.7656 121 Z" style="fill:black; stroke:none;" /><rect height="10" style="stroke:none;" width="6" x="156" y="104" /><path d="M158.1094 113.3906 Q158.1094 113.0625 158.3359 112.8359 Q158.5625 112.6094 158.8906 112.6094 Q159.2188 112.6094 159.4453 112.8359 Q159.6719 113.0625 159.6719 113.3906 Q159.6719 113.7188 159.4453 113.9453 Q159.2188 114.1719 158.8906 114.1719 Q158.5625 114.1719 158.3359 113.9453 Q158.1094 113.7188 158.1094 113.3906 ZM156.8125 105.6406 Q157.4375 105.3594 158 105.2266 Q158.5625 105.0938 159.0469 105.0938 Q160.3438 105.0938 161.1016 105.7188 Q161.8594 106.3438 161.8594 107.4062 Q161.8594 108.5 161.2109 109.1953 Q160.5625 109.8906 159.25 110.1875 L159.25 111.6719 L158.5312 111.6719 L158.5312 109.75 Q159.5625 109.5 160.0938 108.9062 Q160.625 108.3125 160.625 107.4062 Q160.625 106.5938 160.1953 106.1328 Q159.7656 105.6719 159.0312 105.6719 Q158.3594 105.6719 157.9297 106.0547 Q157.5 106.4375 157.3906 107.1562 L156.8125 107.1562 L156.8125 105.6406 Z" style="fill:black; stroke:none;" /></g><g ID="l-1:5,12" style="text-rendering:optimizeSpeed;"><polygon points=" 197 41 145 41" style="fill:none;" /></g><g ID="r-1:5" style="fill:white; text-rendering:optimizeSpeed; stroke:white;" wurcs_mono_id="11"><circle cx="197" cy="41" r="11" style="clip-path:url(#clipPath11); stroke:none;" /><rect height="22" style="clip-path:url(#clipPath11); fill:rgb(0,166,81); stroke:none;" width="22" x="186" y="30" /><rect height="22" style="clip-path:url(#clipPath11); fill:none; stroke:black;" width="22" x="186" y="30" /><circle cx="197" cy="41" r="11" style="fill:none; stroke:black;" /></g><g ID="l-1:12,13" style="text-rendering:optimizeSpeed;"><polygon points=" 145 41 93 41" style="fill:none;" /></g><g ID="r-1:12" style="fill:white; text-rendering:optimizeSpeed; stroke:white;" wurcs_mono_id="12"><rect height="22" style="clip-path:url(#clipPath12); stroke:none;" width="22" x="134" y="30" /><rect height="22" style="clip-path:url(#clipPath12); fill:rgb(0,144,188); stroke:none;" width="22" x="134" y="30" /><rect height="22" style="clip-path:url(#clipPath12); fill:none; stroke:black;" width="22" x="134" y="30" /><rect height="22" style="fill:none; stroke:black;" width="22" x="134" y="30" /></g><g ID="l-1:13,14" style="text-rendering:optimizeSpeed;"><polygon points=" 93 41 41 41" style="fill:none;" /></g><g ID="r-1:13" style="fill:white; text-rendering:optimizeSpeed; stroke:white;" wurcs_mono_id="13"><circle cx="93" cy="41" r="11" style="clip-path:url(#clipPath13); stroke:none;" /><rect height="22" style="clip-path:url(#clipPath13); fill:rgb(255,212,0); stroke:none;" width="22" x="82" y="30" /><rect height="22" style="clip-path:url(#clipPath13); fill:none; stroke:black;" width="22" x="82" y="30" /><circle cx="93" cy="41" r="11" style="fill:none; stroke:black;" /></g><g ID="r-1:14" style="fill:white; text-rendering:optimizeSpeed; stroke:white;" wurcs_mono_id="14"><polygon points=" 41 30 52 41 41 52 30 41" style="stroke:none; clip-path:url(#clipPath14);" /><rect height="22" style="clip-path:url(#clipPath14); fill:rgb(165,67,153); stroke:none;" width="22" x="30" y="30" /><rect height="22" style="clip-path:url(#clipPath14); fill:none; stroke:black;" width="22" x="30" y="30" /><polygon points=" 41 30 52 41 41 52 30 41" style="fill:none; stroke:black;" /></g><g ID="li-1:13,14" style="fill:white; text-rendering:optimizeSpeed; font-family:'Serif'; stroke:white;"><rect height="10" style="stroke:none;" width="7" x="70" y="44" /><path d="M71.1719 45.625 Q71.8594 45.3594 72.4844 45.2266 Q73.1094 45.0938 73.6562 45.0938 Q74.9531 45.0938 75.6719 45.6484 Q76.3906 46.2031 76.3906 47.1875 Q76.3906 47.9688 75.8906 48.5 Q75.3906 49.0312 74.4844 49.2188 Q75.5625 49.375 76.1562 50.0078 Q76.75 50.6406 76.75 51.6406 Q76.75 52.8594 75.9219 53.5156 Q75.0938 54.1719 73.5469 54.1719 Q72.8594 54.1719 72.2109 54.0234 Q71.5625 53.875 70.9219 53.5781 L70.9219 51.875 L71.5781 51.875 Q71.625 52.7188 72.1406 53.1562 Q72.6562 53.5938 73.5781 53.5938 Q74.4688 53.5938 74.9922 53.0703 Q75.5156 52.5469 75.5156 51.6562 Q75.5156 50.625 74.9766 50.0938 Q74.4375 49.5625 73.4062 49.5625 L72.8594 49.5625 L72.8594 48.9531 L73.1406 48.9531 Q74.1719 48.9531 74.6875 48.5312 Q75.2031 48.1094 75.2031 47.25 Q75.2031 46.4844 74.7812 46.0781 Q74.3594 45.6719 73.5625 45.6719 Q72.7656 45.6719 72.3359 46.0469 Q71.9062 46.4219 71.8281 47.1562 L71.1719 47.1562 L71.1719 45.625 Z" style="fill:black; stroke:none;" /><rect height="10" style="stroke:none;" width="6" x="57" y="44" /><path d="M59.1094 53.3906 Q59.1094 53.0625 59.3359 52.8359 Q59.5625 52.6094 59.8906 52.6094 Q60.2188 52.6094 60.4453 52.8359 Q60.6719 53.0625 60.6719 53.3906 Q60.6719 53.7188 60.4453 53.9453 Q60.2188 54.1719 59.8906 54.1719 Q59.5625 54.1719 59.3359 53.9453 Q59.1094 53.7188 59.1094 53.3906 ZM57.8125 45.6406 Q58.4375 45.3594 59 45.2266 Q59.5625 45.0938 60.0469 45.0938 Q61.3438 45.0938 62.1016 45.7188 Q62.8594 46.3438 62.8594 47.4062 Q62.8594 48.5 62.2109 49.1953 Q61.5625 49.8906 60.25 50.1875 L60.25 51.6719 L59.5312 51.6719 L59.5312 49.75 Q60.5625 49.5 61.0938 48.9062 Q61.625 48.3125 61.625 47.4062 Q61.625 46.5938 61.1953 46.1328 Q60.7656 45.6719 60.0312 45.6719 Q59.3594 45.6719 58.9297 46.0547 Q58.5 46.4375 58.3906 47.1562 L57.8125 47.1562 L57.8125 45.6406 Z" style="fill:black; stroke:none;" /></g><g ID="li-1:12,13" style="fill:white; text-rendering:optimizeSpeed; font-family:'Serif'; stroke:white;"><rect height="9" style="stroke:none;" width="8" x="122" y="44" /><path d="M126.1875 50.0312 L126.1875 45.375 L123.2031 50.0312 L126.1875 50.0312 ZM128.7656 53 L124.7812 53 L124.7812 52.375 L126.1875 52.375 L126.1875 50.6562 L122.375 50.6562 L122.375 50.0156 L126.2031 44.0938 L127.3594 44.0938 L127.3594 50.0312 L129.0312 50.0312 L129.0312 50.6562 L127.3594 50.6562 L127.3594 52.375 L128.7656 52.375 L128.7656 53 Z" style="fill:black; stroke:none;" /><rect height="10" style="stroke:none;" width="6" x="109" y="44" /><path d="M111.1094 53.3906 Q111.1094 53.0625 111.3359 52.8359 Q111.5625 52.6094 111.8906 52.6094 Q112.2188 52.6094 112.4453 52.8359 Q112.6719 53.0625 112.6719 53.3906 Q112.6719 53.7188 112.4453 53.9453 Q112.2188 54.1719 111.8906 54.1719 Q111.5625 54.1719 111.3359 53.9453 Q111.1094 53.7188 111.1094 53.3906 ZM109.8125 45.6406 Q110.4375 45.3594 111 45.2266 Q111.5625 45.0938 112.0469 45.0938 Q113.3438 45.0938 114.1016 45.7188 Q114.8594 46.3438 114.8594 47.4062 Q114.8594 48.5 114.2109 49.1953 Q113.5625 49.8906 112.25 50.1875 L112.25 51.6719 L111.5312 51.6719 L111.5312 49.75 Q112.5625 49.5 113.0938 48.9062 Q113.625 48.3125 113.625 47.4062 Q113.625 46.5938 113.1953 46.1328 Q112.7656 45.6719 112.0312 45.6719 Q111.3594 45.6719 110.9297 46.0547 Q110.5 46.4375 110.3906 47.1562 L109.8125 47.1562 L109.8125 45.6406 Z" style="fill:black; stroke:none;" /></g><g ID="li-1:5,12" style="fill:white; text-rendering:optimizeSpeed; font-family:'Serif'; stroke:white;"><rect height="9" style="stroke:none;" width="7" x="174" y="44" /><path d="M175.5312 46.3438 L174.875 46.3438 L174.875 44.7812 Q175.5 44.4375 176.1406 44.2656 Q176.7812 44.0938 177.3906 44.0938 Q178.75 44.0938 179.5391 44.7578 Q180.3281 45.4219 180.3281 46.5469 Q180.3281 47.8438 178.5469 49.625 Q178.4062 49.7656 178.3281 49.8281 L176.125 52.0312 L179.7656 52.0312 L179.7656 50.9531 L180.4531 50.9531 L180.4531 53 L174.8125 53 L174.8125 52.3594 L177.4688 49.7188 Q178.3438 48.8281 178.7188 48.0938 Q179.0938 47.3594 179.0938 46.5469 Q179.0938 45.6719 178.6328 45.1719 Q178.1719 44.6719 177.375 44.6719 Q176.5312 44.6719 176.0781 45.0859 Q175.625 45.5 175.5312 46.3438 Z" style="fill:black; stroke:none;" /><rect height="10" style="stroke:none;" width="6" x="161" y="44" /><path d="M163.1094 53.3906 Q163.1094 53.0625 163.3359 52.8359 Q163.5625 52.6094 163.8906 52.6094 Q164.2188 52.6094 164.4453 52.8359 Q164.6719 53.0625 164.6719 53.3906 Q164.6719 53.7188 164.4453 53.9453 Q164.2188 54.1719 163.8906 54.1719 Q163.5625 54.1719 163.3359 53.9453 Q163.1094 53.7188 163.1094 53.3906 ZM161.8125 45.6406 Q162.4375 45.3594 163 45.2266 Q163.5625 45.0938 164.0469 45.0938 Q165.3438 45.0938 166.1016 45.7188 Q166.8594 46.3438 166.8594 47.4062 Q166.8594 48.5 166.2109 49.1953 Q165.5625 49.8906 164.25 50.1875 L164.25 51.6719 L163.5312 51.6719 L163.5312 49.75 Q164.5625 49.5 165.0938 48.9062 Q165.625 48.3125 165.625 47.4062 Q165.625 46.5938 165.1953 46.1328 Q164.7656 45.6719 164.0312 45.6719 Q163.3594 45.6719 162.9297 46.0547 Q162.5 46.4375 162.3906 47.1562 L161.8125 47.1562 L161.8125 45.6406 Z" style="fill:black; stroke:none;" /></g><g ID="li-1:3,4" style="fill:white; text-rendering:optimizeSpeed; font-family:'Serif'; stroke:white;"><rect height="10" style="stroke:none;" width="6" x="233" y="94" /><path d="M235.1094 103.3906 Q235.1094 103.0625 235.3359 102.8359 Q235.5625 102.6094 235.8906 102.6094 Q236.2188 102.6094 236.4453 102.8359 Q236.6719 103.0625 236.6719 103.3906 Q236.6719 103.7188 236.4453 103.9453 Q236.2188 104.1719 235.8906 104.1719 Q235.5625 104.1719 235.3359 103.9453 Q235.1094 103.7188 235.1094 103.3906 ZM233.8125 95.6406 Q234.4375 95.3594 235 95.2266 Q235.5625 95.0938 236.0469 95.0938 Q237.3438 95.0938 238.1016 95.7188 Q238.8594 96.3438 238.8594 97.4062 Q238.8594 98.5 238.2109 99.1953 Q237.5625 99.8906 236.25 100.1875 L236.25 101.6719 L235.5312 101.6719 L235.5312 99.75 Q236.5625 99.5 237.0938 98.9062 Q237.625 98.3125 237.625 97.4062 Q237.625 96.5938 237.1953 96.1328 Q236.7656 95.6719 236.0312 95.6719 Q235.3594 95.6719 234.9297 96.0547 Q234.5 96.4375 234.3906 97.1562 L233.8125 97.1562 L233.8125 95.6406 Z" style="fill:black; stroke:none;" /><rect height="8" style="stroke:none;" width="8" x="215" y="108" /><path d="M220.1875 114.4688 L219.9531 115.1094 Q219.7656 115.625 219.2031 115.9375 Q218.8438 116.1562 218.2031 116.1406 Q217.0469 116.1406 216.3281 115.2344 Q215.5938 114.3281 215.5938 112.8594 Q215.5938 111.4219 216.3281 110.4844 Q217.0156 109.5938 218.4531 109.6094 Q219.4531 109.6094 219.9531 110 Q220.4062 110.3438 220.5781 111.0938 L220.625 111.3125 L220.8438 110.6719 Q221.0625 110.0469 221.6562 109.75 L222.25 109.75 L222.25 110.0938 Q221.6875 110.2656 221.5 110.8125 L220.8906 112.4844 L221.2969 114.2812 Q221.5 115.2031 221.7344 115.2969 Q222.0469 115.4375 222.7812 115 L222.7812 115.7188 Q221.5938 116.4062 220.75 115.6875 Q220.375 115.3594 220.2656 114.875 L220.1875 114.4688 ZM219.9219 113.3125 L219.5625 111.5938 Q219.2656 110.2188 218.4688 110.2188 Q217.7969 110.2031 217.2812 110.9375 Q216.8594 111.5156 216.8594 112.875 Q216.8594 114.1719 217.2812 114.8281 Q217.75 115.5469 218.5312 115.5 Q219.2031 115.4375 219.6875 114 L219.9219 113.3125 Z" style="fill:black; stroke:none;" /></g><g ID="li-1:3,5" style="fill:white; text-rendering:optimizeSpeed; font-family:'Serif'; stroke:white;"><rect height="10" style="stroke:none;" width="6" x="223" y="68" /><path d="M225.1094 77.3906 Q225.1094 77.0625 225.3359 76.8359 Q225.5625 76.6094 225.8906 76.6094 Q226.2188 76.6094 226.4453 76.8359 Q226.6719 77.0625 226.6719 77.3906 Q226.6719 77.7188 226.4453 77.9453 Q226.2188 78.1719 225.8906 78.1719 Q225.5625 78.1719 225.3359 77.9453 Q225.1094 77.7188 225.1094 77.3906 ZM223.8125 69.6406 Q224.4375 69.3594 225 69.2266 Q225.5625 69.0938 226.0469 69.0938 Q227.3438 69.0938 228.1016 69.7188 Q228.8594 70.3438 228.8594 71.4062 Q228.8594 72.5 228.2109 73.1953 Q227.5625 73.8906 226.25 74.1875 L226.25 75.6719 L225.5312 75.6719 L225.5312 73.75 Q226.5625 73.5 227.0938 72.9062 Q227.625 72.3125 227.625 71.4062 Q227.625 70.5938 227.1953 70.1328 Q226.7656 69.6719 226.0312 69.6719 Q225.3594 69.6719 224.9297 70.0547 Q224.5 70.4375 224.3906 71.1562 L223.8125 71.1562 L223.8125 69.6406 Z" style="fill:black; stroke:none;" /><rect height="8" style="stroke:none;" width="8" x="205" y="56" /><path d="M210.1875 62.4688 L209.9531 63.1094 Q209.7656 63.625 209.2031 63.9375 Q208.8438 64.1562 208.2031 64.1406 Q207.0469 64.1406 206.3281 63.2344 Q205.5938 62.3281 205.5938 60.8594 Q205.5938 59.4219 206.3281 58.4844 Q207.0156 57.5938 208.4531 57.6094 Q209.4531 57.6094 209.9531 58 Q210.4062 58.3438 210.5781 59.0938 L210.625 59.3125 L210.8438 58.6719 Q211.0625 58.0469 211.6562 57.75 L212.25 57.75 L212.25 58.0938 Q211.6875 58.2656 211.5 58.8125 L210.8906 60.4844 L211.2969 62.2812 Q211.5 63.2031 211.7344 63.2969 Q212.0469 63.4375 212.7812 63 L212.7812 63.7188 Q211.5938 64.4062 210.75 63.6875 Q210.375 63.3594 210.2656 62.875 L210.1875 62.4688 ZM209.9219 61.3125 L209.5625 59.5938 Q209.2656 58.2188 208.4688 58.2188 Q207.7969 58.2031 207.2812 58.9375 Q206.8594 59.5156 206.8594 60.875 Q206.8594 62.1719 207.2812 62.8281 Q207.75 63.5469 208.5312 63.5 Q209.2031 63.4375 209.6875 62 L209.9219 61.3125 Z" style="fill:black; stroke:none;" /></g><g ID="li-1:2,3" style="fill:white; text-rendering:optimizeSpeed; font-family:'Serif'; stroke:white;"><rect height="9" style="stroke:none;" width="8" x="278" y="83" /><path d="M282.1875 89.0312 L282.1875 84.375 L279.2031 89.0312 L282.1875 89.0312 ZM284.7656 92 L280.7812 92 L280.7812 91.375 L282.1875 91.375 L282.1875 89.6562 L278.375 89.6562 L278.375 89.0156 L282.2031 83.0938 L283.3594 83.0938 L283.3594 89.0312 L285.0312 89.0312 L285.0312 89.6562 L283.3594 89.6562 L283.3594 91.375 L284.7656 91.375 L284.7656 92 Z" style="fill:black; stroke:none;" /><rect height="13" style="stroke:none;" width="7" x="264" y="81" /><path d="M265.8281 93.25 Q266.2969 93.5938 267.1719 93.5938 Q268.0625 93.5938 268.5781 93.0703 Q269.0938 92.5469 269.0938 91.6562 Q269.0938 90.4219 268.5625 89.8906 Q268.0156 89.3594 267 89.3594 L266.4375 89.3594 L266.4375 88.7188 L266.7344 88.7188 Q267.4844 88.7188 268 88.2969 Q268.4219 87.9531 268.4219 87.0156 Q268.4219 86.6094 268.1406 86.1406 Q267.6875 85.375 267.1562 85.3906 Q265.8281 85.4375 265.8281 87.7812 L265.8281 93.25 ZM264.75 96.5 L264.75 87.7812 Q264.75 85.3281 266.0781 85 Q266.7656 84.8125 267.25 84.8125 Q268.3438 84.8125 269.0469 85.6719 Q269.6094 86.3594 269.6094 86.9375 Q269.6094 87.7812 269.2031 88.2656 Q268.7969 88.75 268.0625 88.9844 Q269.1406 89.1406 269.75 89.7812 Q270.3281 90.4062 270.3281 91.6328 Q270.3281 92.8594 269.5078 93.5156 Q268.6875 94.1719 267.1406 94.1719 Q266.1875 94.1719 265.8281 94.0312 L265.8281 96.5 L264.75 96.5 Z" style="fill:black; stroke:none;" /></g><g ID="li-1:1,2" style="fill:white; text-rendering:optimizeSpeed; font-family:'Serif'; stroke:white;"><rect height="9" style="stroke:none;" width="8" x="330" y="83" /><path d="M334.1875 89.0312 L334.1875 84.375 L331.2031 89.0312 L334.1875 89.0312 ZM336.7656 92 L332.7812 92 L332.7812 91.375 L334.1875 91.375 L334.1875 89.6562 L330.375 89.6562 L330.375 89.0156 L334.2031 83.0938 L335.3594 83.0938 L335.3594 89.0312 L337.0312 89.0312 L337.0312 89.6562 L335.3594 89.6562 L335.3594 91.375 L336.7656 91.375 L336.7656 92 Z" style="fill:black; stroke:none;" /><rect height="13" style="stroke:none;" width="7" x="316" y="81" /><path d="M317.8281 93.25 Q318.2969 93.5938 319.1719 93.5938 Q320.0625 93.5938 320.5781 93.0703 Q321.0938 92.5469 321.0938 91.6562 Q321.0938 90.4219 320.5625 89.8906 Q320.0156 89.3594 319 89.3594 L318.4375 89.3594 L318.4375 88.7188 L318.7344 88.7188 Q319.4844 88.7188 320 88.2969 Q320.4219 87.9531 320.4219 87.0156 Q320.4219 86.6094 320.1406 86.1406 Q319.6875 85.375 319.1562 85.3906 Q317.8281 85.4375 317.8281 87.7812 L317.8281 93.25 ZM316.75 96.5 L316.75 87.7812 Q316.75 85.3281 318.0781 85 Q318.7656 84.8125 319.25 84.8125 Q320.3438 84.8125 321.0469 85.6719 Q321.6094 86.3594 321.6094 86.9375 Q321.6094 87.7812 321.2031 88.2656 Q320.7969 88.75 320.0625 88.9844 Q321.1406 89.1406 321.75 89.7812 Q322.3281 90.4062 322.3281 91.6328 Q322.3281 92.8594 321.5078 93.5156 Q320.6875 94.1719 319.1406 94.1719 Q318.1875 94.1719 317.8281 94.0312 L317.8281 96.5 L316.75 96.5 Z" style="fill:black; stroke:none;" /></g></g></svg>