<svg xmlns="http://www.w3.org/2000/svg" style="fill-opacity:1; color-rendering:auto; color-interpolation:auto; text-rendering:auto; stroke:black; stroke-linecap:square; stroke-miterlimit:10; shape-rendering:auto; stroke-opacity:1; fill:black; stroke-dasharray:none; font-weight:normal; stroke-width:1; font-family:'Dialog'; font-style:normal; stroke-linejoin:miter; font-size:12px; stroke-dashoffset:0; image-rendering:auto;"><defs id="genericDefs" /><g><defs id="defs1"><clipPath clipPathUnits="userSpaceOnUse" id="clipPath1"><path d="M394 147 L416 147 L416 169 L394 169 L394 147 Z" /></clipPath><clipPath clipPathUnits="userSpaceOnUse" id="clipPath2"><path d="M342 147 L364 147 L364 169 L342 169 L342 147 Z" /></clipPath><clipPath clipPathUnits="userSpaceOnUse" id="clipPath3"><path d="M312 158 C312 164.0751 307.0751 169 301 169 C294.9249 169 290 164.0751 290 158 C290 151.9249 294.9249 147 301 147 C307.0751 147 312 151.9249 312 158 Z" /></clipPath><clipPath clipPathUnits="userSpaceOnUse" id="clipPath4"><path d="M260 249 C260 255.0751 255.0751 260 249 260 C242.9249 260 238 255.0751 238 249 C238 242.9249 242.9249 238 249 238 C255.0751 238 260 242.9249 260 249 Z" /></clipPath><clipPath clipPathUnits="userSpaceOnUse" id="clipPath5"><path d="M186 290 L208 290 L208 312 L186 312 L186 290 Z" /></clipPath><clipPath clipPathUnits="userSpaceOnUse" id="clipPath6"><path d="M156 301 C156 307.0751 151.0751 312 145 312 C138.9249 312 134 307.0751 134 301 C134 294.9249 138.9249 290 145 290 C151.0751 290 156 294.9249 156 301 Z" /></clipPath><clipPath clipPathUnits="userSpaceOnUse" id="clipPath7"><path d="M93 290 L104 301 L93 312 L82 301 Z" style="fill-rule:evenodd;" /></clipPath><clipPath clipPathUnits="userSpaceOnUse" id="clipPath8"><path d="M186 186 L208 186 L208 208 L186 208 L186 186 Z" /></clipPath><clipPath clipPathUnits="userSpaceOnUse" id="clipPath9"><path d="M197 238 L208 260 L186 260 Z" style="fill-rule:evenodd;" /></clipPath><clipPath clipPathUnits="userSpaceOnUse" id="clipPath10"><path d="M156 197 C156 203.0751 151.0751 208 145 208 C138.9249 208 134 203.0751 134 197 C134 190.9249 138.9249 186 145 186 C151.0751 186 156 190.9249 156 197 Z" /></clipPath><clipPath clipPathUnits="userSpaceOnUse" id="clipPath11"><path d="M260 67 C260 73.0751 255.0751 78 249 78 C242.9249 78 238 73.0751 238 67 C238 60.9249 242.9249 56 249 56 C255.0751 56 260 60.9249 260 67 Z" /></clipPath><clipPath clipPathUnits="userSpaceOnUse" id="clipPath12"><path d="M186 82 L208 82 L208 104 L186 104 L186 82 Z" /></clipPath><clipPath clipPathUnits="userSpaceOnUse" id="clipPath13"><path d="M197 134 L208 156 L186 156 Z" style="fill-rule:evenodd;" /></clipPath><clipPath clipPathUnits="userSpaceOnUse" id="clipPath14"><path d="M156 93 C156 99.0751 151.0751 104 145 104 C138.9249 104 134 99.0751 134 93 C134 86.9249 138.9249 82 145 82 C151.0751 82 156 86.9249 156 93 Z" /></clipPath><clipPath clipPathUnits="userSpaceOnUse" id="clipPath15"><path d="M93 82 L104 93 L93 104 L82 93 Z" style="fill-rule:evenodd;" /></clipPath><clipPath clipPathUnits="userSpaceOnUse" id="clipPath16"><path d="M186 30 L208 30 L208 52 L186 52 L186 30 Z" /></clipPath><clipPath clipPathUnits="userSpaceOnUse" id="clipPath17"><path d="M156 41 C156 47.0751 151.0751 52 145 52 C138.9249 52 134 47.0751 134 41 C134 34.9249 138.9249 30 145 30 C151.0751 30 156 34.9249 156 41 Z" /></clipPath><clipPath clipPathUnits="userSpaceOnUse" id="clipPath18"><path d="M82 30 L104 30 L104 52 L82 52 L82 30 Z" /></clipPath><clipPath clipPathUnits="userSpaceOnUse" id="clipPath19"><path d="M52 41 C52 47.0751 47.0751 52 41 52 C34.9249 52 30 47.0751 30 41 C30 34.9249 34.9249 30 41 30 C47.0751 30 52 34.9249 52 41 Z" /></clipPath><clipPath clipPathUnits="userSpaceOnUse" id="clipPath20"><path d="M405 117 L394 95 L416 95 Z" style="fill-rule:evenodd;" /></clipPath></defs><g style="fill:white; text-rendering:optimizeSpeed; stroke:white;"><rect height="342" style="stroke:none;" width="446" x="0" y="0" /></g><g ID="l-1:1,2" style="text-rendering:optimizeSpeed;"><polygon points=" 405 158 353 158" style="fill:none;" /></g><g ID="l-1:1,3" style="text-rendering:optimizeSpeed;"><polygon points=" 405 158 405 106" style="fill:none;" /></g><g ID="r-1:1" style="fill:white; text-rendering:optimizeSpeed; stroke:white;" wurcs_mono_id="1"><rect height="22" style="clip-path:url(#clipPath1); stroke:none;" width="22" x="394" y="147" /><rect height="22" style="clip-path:url(#clipPath1); fill:rgb(0,144,188); stroke:none;" width="22" x="394" y="147" /><rect height="22" style="clip-path:url(#clipPath1); fill:none; stroke:black;" width="22" x="394" y="147" /><rect height="22" style="fill:none; stroke:black;" width="22" x="394" y="147" /></g><g ID="l-1:2,4" style="text-rendering:optimizeSpeed;"><polygon points=" 353 158 301 158" style="fill:none;" /></g><g ID="r-1:2" style="fill:white; text-rendering:optimizeSpeed; stroke:white;" wurcs_mono_id="2"><rect height="22" style="clip-path:url(#clipPath2); stroke:none;" width="22" x="342" y="147" /><rect height="22" style="clip-path:url(#clipPath2); fill:rgb(0,144,188); stroke:none;" width="22" x="342" y="147" /><rect height="22" style="clip-path:url(#clipPath2); fill:none; stroke:black;" width="22" x="342" y="147" /><rect height="22" style="fill:none; stroke:black;" width="22" x="342" y="147" /></g><g ID="l-1:4,5" style="text-rendering:optimizeSpeed;"><polygon points=" 301 158 249 249" style="fill:none;" /></g><g ID="l-1:4,6" style="text-rendering:optimizeSpeed;"><polygon points=" 301 158 249 67" style="fill:none;" /></g><g ID="r-1:4" style="fill:white; text-rendering:optimizeSpeed; stroke:white;" wurcs_mono_id="3"><circle cx="301" cy="158" r="11" style="clip-path:url(#clipPath3); stroke:none;" /><rect height="22" style="clip-path:url(#clipPath3); fill:rgb(0,166,81); stroke:none;" width="22" x="290" y="147" /><rect height="22" style="clip-path:url(#clipPath3); fill:none; stroke:black;" width="22" x="290" y="147" /><circle cx="301" cy="158" r="11" style="fill:none; stroke:black;" /></g><g ID="l-1:5,7" style="text-rendering:optimizeSpeed;"><polygon points=" 249 249 197 301" style="fill:none;" /></g><g ID="l-1:5,8" style="text-rendering:optimizeSpeed;"><polygon points=" 249 249 197 197" style="fill:none;" /></g><g ID="r-1:5" style="fill:white; text-rendering:optimizeSpeed; stroke:white;" wurcs_mono_id="4"><circle cx="249" cy="249" r="11" style="clip-path:url(#clipPath4); stroke:none;" /><rect height="22" style="clip-path:url(#clipPath4); fill:rgb(0,166,81); stroke:none;" width="22" x="238" y="238" /><rect height="22" style="clip-path:url(#clipPath4); fill:none; stroke:black;" width="22" x="238" y="238" /><circle cx="249" cy="249" r="11" style="fill:none; stroke:black;" /></g><g ID="l-1:7,9" style="text-rendering:optimizeSpeed;"><polygon points=" 197 301 145 301" style="fill:none;" /></g><g ID="r-1:7" style="fill:white; text-rendering:optimizeSpeed; stroke:white;" wurcs_mono_id="5"><rect height="22" style="clip-path:url(#clipPath5); stroke:none;" width="22" x="186" y="290" /><rect height="22" style="clip-path:url(#clipPath5); fill:rgb(0,144,188); stroke:none;" width="22" x="186" y="290" /><rect height="22" style="clip-path:url(#clipPath5); fill:none; stroke:black;" width="22" x="186" y="290" /><rect height="22" style="fill:none; stroke:black;" width="22" x="186" y="290" /></g><g ID="l-1:9,10" style="text-rendering:optimizeSpeed;"><polygon points=" 145 301 93 301" style="fill:none;" /></g><g ID="r-1:9" style="fill:white; text-rendering:optimizeSpeed; stroke:white;" wurcs_mono_id="6"><circle cx="145" cy="301" r="11" style="clip-path:url(#clipPath6); stroke:none;" /><rect height="22" style="clip-path:url(#clipPath6); fill:rgb(255,212,0); stroke:none;" width="22" x="134" y="290" /><rect height="22" style="clip-path:url(#clipPath6); fill:none; stroke:black;" width="22" x="134" y="290" /><circle cx="145" cy="301" r="11" style="fill:none; stroke:black;" /></g><g ID="r-1:10" style="fill:white; text-rendering:optimizeSpeed; stroke:white;" wurcs_mono_id="7"><polygon points=" 93 290 104 301 93 312 82 301" style="stroke:none; clip-path:url(#clipPath7);" /><rect height="22" style="clip-path:url(#clipPath7); fill:rgb(165,67,153); stroke:none;" width="22" x="82" y="290" /><rect height="22" style="clip-path:url(#clipPath7); fill:none; stroke:black;" width="22" x="82" y="290" /><polygon points=" 93 290 104 301 93 312 82 301" style="fill:none; stroke:black;" /></g><g ID="li-1:9,10" style="fill:white; text-rendering:optimizeSpeed; font-family:'Serif'; stroke:white;"><rect height="10" style="stroke:none;" width="7" x="122" y="304" /><path d="M125.9219 313.5938 Q126.75 313.5938 127.1953 312.9844 Q127.6406 312.375 127.6406 311.2344 Q127.6406 310.1094 127.1953 309.5 Q126.75 308.8906 125.9219 308.8906 Q125.0938 308.8906 124.6484 309.4766 Q124.2031 310.0625 124.2031 311.1719 Q124.2031 312.3281 124.6484 312.9609 Q125.0938 313.5938 125.9219 313.5938 ZM124.0156 309.1875 Q124.4219 308.75 124.9219 308.5312 Q125.4219 308.3125 126.0625 308.3125 Q127.3594 308.3125 128.1172 309.0938 Q128.875 309.875 128.875 311.2344 Q128.875 312.5625 128.0625 313.3672 Q127.25 314.1719 125.875 314.1719 Q124.3906 314.1719 123.5938 313.0625 Q122.7969 311.9531 122.7969 309.9062 Q122.7969 307.6094 123.7422 306.3516 Q124.6875 305.0938 126.4062 305.0938 Q126.875 305.0938 127.3828 305.1797 Q127.8906 305.2656 128.4219 305.4375 L128.4219 306.8906 L127.7656 306.8906 Q127.6875 306.2969 127.3047 305.9844 Q126.9219 305.6719 126.2812 305.6719 Q125.1406 305.6719 124.5859 306.5312 Q124.0312 307.3906 124.0156 309.1875 Z" style="fill:black; stroke:none;" /><rect height="8" style="stroke:none;" width="8" x="108" y="305" /><path d="M113.1875 311.4688 L112.9531 312.1094 Q112.7656 312.625 112.2031 312.9375 Q111.8438 313.1562 111.2031 313.1406 Q110.0469 313.1406 109.3281 312.2344 Q108.5938 311.3281 108.5938 309.8594 Q108.5938 308.4219 109.3281 307.4844 Q110.0156 306.5938 111.4531 306.6094 Q112.4531 306.6094 112.9531 307 Q113.4062 307.3438 113.5781 308.0938 L113.625 308.3125 L113.8438 307.6719 Q114.0625 307.0469 114.6562 306.75 L115.25 306.75 L115.25 307.0938 Q114.6875 307.2656 114.5 307.8125 L113.8906 309.4844 L114.2969 311.2812 Q114.5 312.2031 114.7344 312.2969 Q115.0469 312.4375 115.7812 312 L115.7812 312.7188 Q114.5938 313.4062 113.75 312.6875 Q113.375 312.3594 113.2656 311.875 L113.1875 311.4688 ZM112.9219 310.3125 L112.5625 308.5938 Q112.2656 307.2188 111.4688 307.2188 Q110.7969 307.2031 110.2812 307.9375 Q109.8594 308.5156 109.8594 309.875 Q109.8594 311.1719 110.2812 311.8281 Q110.75 312.5469 111.5312 312.5 Q112.2031 312.4375 112.6875 311 L112.9219 310.3125 Z" style="fill:black; stroke:none;" /></g><g ID="li-1:7,9" style="fill:white; text-rendering:optimizeSpeed; font-family:'Serif'; stroke:white;"><rect height="9" style="stroke:none;" width="8" x="174" y="304" /><path d="M178.1875 310.0312 L178.1875 305.375 L175.2031 310.0312 L178.1875 310.0312 ZM180.7656 313 L176.7812 313 L176.7812 312.375 L178.1875 312.375 L178.1875 310.6562 L174.375 310.6562 L174.375 310.0156 L178.2031 304.0938 L179.3594 304.0938 L179.3594 310.0312 L181.0312 310.0312 L181.0312 310.6562 L179.3594 310.6562 L179.3594 312.375 L180.7656 312.375 L180.7656 313 Z" style="fill:black; stroke:none;" /><rect height="13" style="stroke:none;" width="7" x="160" y="302" /><path d="M161.8281 314.25 Q162.2969 314.5938 163.1719 314.5938 Q164.0625 314.5938 164.5781 314.0703 Q165.0938 313.5469 165.0938 312.6562 Q165.0938 311.4219 164.5625 310.8906 Q164.0156 310.3594 163 310.3594 L162.4375 310.3594 L162.4375 309.7188 L162.7344 309.7188 Q163.4844 309.7188 164 309.2969 Q164.4219 308.9531 164.4219 308.0156 Q164.4219 307.6094 164.1406 307.1406 Q163.6875 306.375 163.1562 306.3906 Q161.8281 306.4375 161.8281 308.7812 L161.8281 314.25 ZM160.75 317.5 L160.75 308.7812 Q160.75 306.3281 162.0781 306 Q162.7656 305.8125 163.25 305.8125 Q164.3438 305.8125 165.0469 306.6719 Q165.6094 307.3594 165.6094 307.9375 Q165.6094 308.7812 165.2031 309.2656 Q164.7969 309.75 164.0625 309.9844 Q165.1406 310.1406 165.75 310.7812 Q166.3281 311.4062 166.3281 312.6328 Q166.3281 313.8594 165.5078 314.5156 Q164.6875 315.1719 163.1406 315.1719 Q162.1875 315.1719 161.8281 315.0312 L161.8281 317.5 L160.75 317.5 Z" style="fill:black; stroke:none;" /></g><g ID="l-1:8,11" style="text-rendering:optimizeSpeed;"><polygon points=" 197 197 197 249" style="fill:none;" /></g><g ID="l-1:8,12" style="text-rendering:optimizeSpeed;"><polygon points=" 197 197 145 197" style="fill:none;" /></g><g ID="r-1:8" style="fill:white; text-rendering:optimizeSpeed; stroke:white;" wurcs_mono_id="8"><rect height="22" style="clip-path:url(#clipPath8); stroke:none;" width="22" x="186" y="186" /><rect height="22" style="clip-path:url(#clipPath8); fill:rgb(0,144,188); stroke:none;" width="22" x="186" y="186" /><rect height="22" style="clip-path:url(#clipPath8); fill:none; stroke:black;" width="22" x="186" y="186" /><rect height="22" style="fill:none; stroke:black;" width="22" x="186" y="186" /></g><g ID="r-1:11" style="fill:white; text-rendering:optimizeSpeed; stroke:white;" wurcs_mono_id="9"><polygon points=" 197 238 208 260 186 260" style="stroke:none; clip-path:url(#clipPath9);" /><rect height="22" style="clip-path:url(#clipPath9); fill:rgb(237,28,36); stroke:none;" width="22" x="186" y="238" /><rect height="22" style="clip-path:url(#clipPath9); fill:none; stroke:black;" width="22" x="186" y="238" /><polygon points=" 197 238 208 260 186 260" style="fill:none; stroke:black;" /></g><g ID="r-1:12" style="fill:white; text-rendering:optimizeSpeed; stroke:white;" wurcs_mono_id="10"><circle cx="145" cy="197" r="11" style="clip-path:url(#clipPath10); stroke:none;" /><rect height="22" style="clip-path:url(#clipPath10); fill:rgb(255,212,0); stroke:none;" width="22" x="134" y="186" /><rect height="22" style="clip-path:url(#clipPath10); fill:none; stroke:black;" width="22" x="134" y="186" /><circle cx="145" cy="197" r="11" style="fill:none; stroke:black;" /></g><g ID="li-1:8,11" style="fill:white; text-rendering:optimizeSpeed; font-family:'Serif'; stroke:white;"><rect height="10" style="stroke:none;" width="7" x="201" y="211" /><path d="M202.1719 212.625 Q202.8594 212.3594 203.4844 212.2266 Q204.1094 212.0938 204.6562 212.0938 Q205.9531 212.0938 206.6719 212.6484 Q207.3906 213.2031 207.3906 214.1875 Q207.3906 214.9688 206.8906 215.5 Q206.3906 216.0312 205.4844 216.2188 Q206.5625 216.375 207.1562 217.0078 Q207.75 217.6406 207.75 218.6406 Q207.75 219.8594 206.9219 220.5156 Q206.0938 221.1719 204.5469 221.1719 Q203.8594 221.1719 203.2109 221.0234 Q202.5625 220.875 201.9219 220.5781 L201.9219 218.875 L202.5781 218.875 Q202.625 219.7188 203.1406 220.1562 Q203.6562 220.5938 204.5781 220.5938 Q205.4688 220.5938 205.9922 220.0703 Q206.5156 219.5469 206.5156 218.6562 Q206.5156 217.625 205.9766 217.0938 Q205.4375 216.5625 204.4062 216.5625 L203.8594 216.5625 L203.8594 215.9531 L204.1406 215.9531 Q205.1719 215.9531 205.6875 215.5312 Q206.2031 215.1094 206.2031 214.25 Q206.2031 213.4844 205.7812 213.0781 Q205.3594 212.6719 204.5625 212.6719 Q203.7656 212.6719 203.3359 213.0469 Q202.9062 213.4219 202.8281 214.1562 L202.1719 214.1562 L202.1719 212.625 Z" style="fill:black; stroke:none;" /><rect height="8" style="stroke:none;" width="8" x="201" y="226" /><path d="M206.1875 232.4688 L205.9531 233.1094 Q205.7656 233.625 205.2031 233.9375 Q204.8438 234.1562 204.2031 234.1406 Q203.0469 234.1406 202.3281 233.2344 Q201.5938 232.3281 201.5938 230.8594 Q201.5938 229.4219 202.3281 228.4844 Q203.0156 227.5938 204.4531 227.6094 Q205.4531 227.6094 205.9531 228 Q206.4062 228.3438 206.5781 229.0938 L206.625 229.3125 L206.8438 228.6719 Q207.0625 228.0469 207.6562 227.75 L208.25 227.75 L208.25 228.0938 Q207.6875 228.2656 207.5 228.8125 L206.8906 230.4844 L207.2969 232.2812 Q207.5 233.2031 207.7344 233.2969 Q208.0469 233.4375 208.7812 233 L208.7812 233.7188 Q207.5938 234.4062 206.75 233.6875 Q206.375 233.3594 206.2656 232.875 L206.1875 232.4688 ZM205.9219 231.3125 L205.5625 229.5938 Q205.2656 228.2188 204.4688 228.2188 Q203.7969 228.2031 203.2812 228.9375 Q202.8594 229.5156 202.8594 230.875 Q202.8594 232.1719 203.2812 232.8281 Q203.75 233.5469 204.5312 233.5 Q205.2031 233.4375 205.6875 232 L205.9219 231.3125 Z" style="fill:black; stroke:none;" /></g><g ID="li-1:8,12" style="fill:white; text-rendering:optimizeSpeed; font-family:'Serif'; stroke:white;"><rect height="9" style="stroke:none;" width="8" x="174" y="200" /><path d="M178.1875 206.0312 L178.1875 201.375 L175.2031 206.0312 L178.1875 206.0312 ZM180.7656 209 L176.7812 209 L176.7812 208.375 L178.1875 208.375 L178.1875 206.6562 L174.375 206.6562 L174.375 206.0156 L178.2031 200.0938 L179.3594 200.0938 L179.3594 206.0312 L181.0312 206.0312 L181.0312 206.6562 L179.3594 206.6562 L179.3594 208.375 L180.7656 208.375 L180.7656 209 Z" style="fill:black; stroke:none;" /><rect height="13" style="stroke:none;" width="7" x="160" y="198" /><path d="M161.8281 210.25 Q162.2969 210.5938 163.1719 210.5938 Q164.0625 210.5938 164.5781 210.0703 Q165.0938 209.5469 165.0938 208.6562 Q165.0938 207.4219 164.5625 206.8906 Q164.0156 206.3594 163 206.3594 L162.4375 206.3594 L162.4375 205.7188 L162.7344 205.7188 Q163.4844 205.7188 164 205.2969 Q164.4219 204.9531 164.4219 204.0156 Q164.4219 203.6094 164.1406 203.1406 Q163.6875 202.375 163.1562 202.3906 Q161.8281 202.4375 161.8281 204.7812 L161.8281 210.25 ZM160.75 213.5 L160.75 204.7812 Q160.75 202.3281 162.0781 202 Q162.7656 201.8125 163.25 201.8125 Q164.3438 201.8125 165.0469 202.6719 Q165.6094 203.3594 165.6094 203.9375 Q165.6094 204.7812 165.2031 205.2656 Q164.7969 205.75 164.0625 205.9844 Q165.1406 206.1406 165.75 206.7812 Q166.3281 207.4062 166.3281 208.6328 Q166.3281 209.8594 165.5078 210.5156 Q164.6875 211.1719 163.1406 211.1719 Q162.1875 211.1719 161.8281 211.0312 L161.8281 213.5 L160.75 213.5 Z" style="fill:black; stroke:none;" /></g><g ID="li-1:5,7" style="fill:white; text-rendering:optimizeSpeed; font-family:'Serif'; stroke:white;"><rect height="9" style="stroke:none;" width="7" x="234" y="266" /><path d="M235.5312 268.3438 L234.875 268.3438 L234.875 266.7812 Q235.5 266.4375 236.1406 266.2656 Q236.7812 266.0938 237.3906 266.0938 Q238.75 266.0938 239.5391 266.7578 Q240.3281 267.4219 240.3281 268.5469 Q240.3281 269.8438 238.5469 271.625 Q238.4062 271.7656 238.3281 271.8281 L236.125 274.0312 L239.7656 274.0312 L239.7656 272.9531 L240.4531 272.9531 L240.4531 275 L234.8125 275 L234.8125 274.3594 L237.4688 271.7188 Q238.3438 270.8281 238.7188 270.0938 Q239.0938 269.3594 239.0938 268.5469 Q239.0938 267.6719 238.6328 267.1719 Q238.1719 266.6719 237.375 266.6719 Q236.5312 266.6719 236.0781 267.0859 Q235.625 267.5 235.5312 268.3438 Z" style="fill:black; stroke:none;" /><rect height="13" style="stroke:none;" width="7" x="215" y="283" /><path d="M216.8281 295.25 Q217.2969 295.5938 218.1719 295.5938 Q219.0625 295.5938 219.5781 295.0703 Q220.0938 294.5469 220.0938 293.6562 Q220.0938 292.4219 219.5625 291.8906 Q219.0156 291.3594 218 291.3594 L217.4375 291.3594 L217.4375 290.7188 L217.7344 290.7188 Q218.4844 290.7188 219 290.2969 Q219.4219 289.9531 219.4219 289.0156 Q219.4219 288.6094 219.1406 288.1406 Q218.6875 287.375 218.1562 287.3906 Q216.8281 287.4375 216.8281 289.7812 L216.8281 295.25 ZM215.75 298.5 L215.75 289.7812 Q215.75 287.3281 217.0781 287 Q217.7656 286.8125 218.25 286.8125 Q219.3438 286.8125 220.0469 287.6719 Q220.6094 288.3594 220.6094 288.9375 Q220.6094 289.7812 220.2031 290.2656 Q219.7969 290.75 219.0625 290.9844 Q220.1406 291.1406 220.75 291.7812 Q221.3281 292.4062 221.3281 293.6328 Q221.3281 294.8594 220.5078 295.5156 Q219.6875 296.1719 218.1406 296.1719 Q217.1875 296.1719 216.8281 296.0312 L216.8281 298.5 L215.75 298.5 Z" style="fill:black; stroke:none;" /></g><g ID="li-1:5,8" style="fill:white; text-rendering:optimizeSpeed; font-family:'Serif'; stroke:white;"><rect height="9" style="stroke:none;" width="8" x="222" y="233" /><path d="M226.1875 239.0312 L226.1875 234.375 L223.2031 239.0312 L226.1875 239.0312 ZM228.7656 242 L224.7812 242 L224.7812 241.375 L226.1875 241.375 L226.1875 239.6562 L222.375 239.6562 L222.375 239.0156 L226.2031 233.0938 L227.3594 233.0938 L227.3594 239.0312 L229.0312 239.0312 L229.0312 239.6562 L227.3594 239.6562 L227.3594 241.375 L228.7656 241.375 L228.7656 242 Z" style="fill:black; stroke:none;" /><rect height="13" style="stroke:none;" width="7" x="204" y="212" /><path d="M205.8281 224.25 Q206.2969 224.5938 207.1719 224.5938 Q208.0625 224.5938 208.5781 224.0703 Q209.0938 223.5469 209.0938 222.6562 Q209.0938 221.4219 208.5625 220.8906 Q208.0156 220.3594 207 220.3594 L206.4375 220.3594 L206.4375 219.7188 L206.7344 219.7188 Q207.4844 219.7188 208 219.2969 Q208.4219 218.9531 208.4219 218.0156 Q208.4219 217.6094 208.1406 217.1406 Q207.6875 216.375 207.1562 216.3906 Q205.8281 216.4375 205.8281 218.7812 L205.8281 224.25 ZM204.75 227.5 L204.75 218.7812 Q204.75 216.3281 206.0781 216 Q206.7656 215.8125 207.25 215.8125 Q208.3438 215.8125 209.0469 216.6719 Q209.6094 217.3594 209.6094 217.9375 Q209.6094 218.7812 209.2031 219.2656 Q208.7969 219.75 208.0625 219.9844 Q209.1406 220.1406 209.75 220.7812 Q210.3281 221.4062 210.3281 222.6328 Q210.3281 223.8594 209.5078 224.5156 Q208.6875 225.1719 207.1406 225.1719 Q206.1875 225.1719 205.8281 225.0312 L205.8281 227.5 L204.75 227.5 Z" style="fill:black; stroke:none;" /></g><g ID="l-1:6,13" style="text-rendering:optimizeSpeed;"><polygon points=" 249 67 197 93" style="fill:none;" /></g><g ID="l-1:6,14" style="text-rendering:optimizeSpeed;"><polygon points=" 249 67 197 41" style="fill:none;" /></g><g ID="r-1:6" style="fill:white; text-rendering:optimizeSpeed; stroke:white;" wurcs_mono_id="11"><circle cx="249" cy="67" r="11" style="clip-path:url(#clipPath11); stroke:none;" /><rect height="22" style="clip-path:url(#clipPath11); fill:rgb(0,166,81); stroke:none;" width="22" x="238" y="56" /><rect height="22" style="clip-path:url(#clipPath11); fill:none; stroke:black;" width="22" x="238" y="56" /><circle cx="249" cy="67" r="11" style="fill:none; stroke:black;" /></g><g ID="l-1:13,15" style="text-rendering:optimizeSpeed;"><polygon points=" 197 93 197 145" style="fill:none;" /></g><g ID="l-1:13,16" style="text-rendering:optimizeSpeed;"><polygon points=" 197 93 145 93" style="fill:none;" /></g><g ID="r-1:13" style="fill:white; text-rendering:optimizeSpeed; stroke:white;" wurcs_mono_id="12"><rect height="22" style="clip-path:url(#clipPath12); stroke:none;" width="22" x="186" y="82" /><rect height="22" style="clip-path:url(#clipPath12); fill:rgb(0,144,188); stroke:none;" width="22" x="186" y="82" /><rect height="22" style="clip-path:url(#clipPath12); fill:none; stroke:black;" width="22" x="186" y="82" /><rect height="22" style="fill:none; stroke:black;" width="22" x="186" y="82" /></g><g ID="r-1:15" style="fill:white; text-rendering:optimizeSpeed; stroke:white;" wurcs_mono_id="13"><polygon points=" 197 134 208 156 186 156" style="stroke:none; clip-path:url(#clipPath13);" /><rect height="22" style="clip-path:url(#clipPath13); fill:rgb(237,28,36); stroke:none;" width="22" x="186" y="134" /><rect height="22" style="clip-path:url(#clipPath13); fill:none; stroke:black;" width="22" x="186" y="134" /><polygon points=" 197 134 208 156 186 156" style="fill:none; stroke:black;" /></g><g ID="l-1:16,17" style="text-rendering:optimizeSpeed;"><polygon points=" 145 93 93 93" style="fill:none;" /></g><g ID="r-1:16" style="fill:white; text-rendering:optimizeSpeed; stroke:white;" wurcs_mono_id="14"><circle cx="145" cy="93" r="11" style="clip-path:url(#clipPath14); stroke:none;" /><rect height="22" style="clip-path:url(#clipPath14); fill:rgb(255,212,0); stroke:none;" width="22" x="134" y="82" /><rect height="22" style="clip-path:url(#clipPath14); fill:none; stroke:black;" width="22" x="134" y="82" /><circle cx="145" cy="93" r="11" style="fill:none; stroke:black;" /></g><g ID="r-1:17" style="fill:white; text-rendering:optimizeSpeed; stroke:white;" wurcs_mono_id="15"><polygon points=" 93 82 104 93 93 104 82 93" style="stroke:none; clip-path:url(#clipPath15);" /><rect height="22" style="clip-path:url(#clipPath15); fill:rgb(165,67,153); stroke:none;" width="22" x="82" y="82" /><rect height="22" style="clip-path:url(#clipPath15); fill:none; stroke:black;" width="22" x="82" y="82" /><polygon points=" 93 82 104 93 93 104 82 93" style="fill:none; stroke:black;" /></g><g ID="li-1:16,17" style="fill:white; text-rendering:optimizeSpeed; font-family:'Serif'; stroke:white;"><rect height="10" style="stroke:none;" width="7" x="122" y="96" /><path d="M123.1719 97.625 Q123.8594 97.3594 124.4844 97.2266 Q125.1094 97.0938 125.6562 97.0938 Q126.9531 97.0938 127.6719 97.6484 Q128.3906 98.2031 128.3906 99.1875 Q128.3906 99.9688 127.8906 100.5 Q127.3906 101.0312 126.4844 101.2188 Q127.5625 101.375 128.1562 102.0078 Q128.75 102.6406 128.75 103.6406 Q128.75 104.8594 127.9219 105.5156 Q127.0938 106.1719 125.5469 106.1719 Q124.8594 106.1719 124.2109 106.0234 Q123.5625 105.875 122.9219 105.5781 L122.9219 103.875 L123.5781 103.875 Q123.625 104.7188 124.1406 105.1562 Q124.6562 105.5938 125.5781 105.5938 Q126.4688 105.5938 126.9922 105.0703 Q127.5156 104.5469 127.5156 103.6562 Q127.5156 102.625 126.9766 102.0938 Q126.4375 101.5625 125.4062 101.5625 L124.8594 101.5625 L124.8594 100.9531 L125.1406 100.9531 Q126.1719 100.9531 126.6875 100.5312 Q127.2031 100.1094 127.2031 99.25 Q127.2031 98.4844 126.7812 98.0781 Q126.3594 97.6719 125.5625 97.6719 Q124.7656 97.6719 124.3359 98.0469 Q123.9062 98.4219 123.8281 99.1562 L123.1719 99.1562 L123.1719 97.625 Z" style="fill:black; stroke:none;" /><rect height="8" style="stroke:none;" width="8" x="108" y="97" /><path d="M113.1875 103.4688 L112.9531 104.1094 Q112.7656 104.625 112.2031 104.9375 Q111.8438 105.1562 111.2031 105.1406 Q110.0469 105.1406 109.3281 104.2344 Q108.5938 103.3281 108.5938 101.8594 Q108.5938 100.4219 109.3281 99.4844 Q110.0156 98.5938 111.4531 98.6094 Q112.4531 98.6094 112.9531 99 Q113.4062 99.3438 113.5781 100.0938 L113.625 100.3125 L113.8438 99.6719 Q114.0625 99.0469 114.6562 98.75 L115.25 98.75 L115.25 99.0938 Q114.6875 99.2656 114.5 99.8125 L113.8906 101.4844 L114.2969 103.2812 Q114.5 104.2031 114.7344 104.2969 Q115.0469 104.4375 115.7812 104 L115.7812 104.7188 Q114.5938 105.4062 113.75 104.6875 Q113.375 104.3594 113.2656 103.875 L113.1875 103.4688 ZM112.9219 102.3125 L112.5625 100.5938 Q112.2656 99.2188 111.4688 99.2188 Q110.7969 99.2031 110.2812 99.9375 Q109.8594 100.5156 109.8594 101.875 Q109.8594 103.1719 110.2812 103.8281 Q110.75 104.5469 111.5312 104.5 Q112.2031 104.4375 112.6875 103 L112.9219 102.3125 Z" style="fill:black; stroke:none;" /></g><g ID="li-1:13,15" style="fill:white; text-rendering:optimizeSpeed; font-family:'Serif'; stroke:white;"><rect height="10" style="stroke:none;" width="7" x="201" y="107" /><path d="M202.1719 108.625 Q202.8594 108.3594 203.4844 108.2266 Q204.1094 108.0938 204.6562 108.0938 Q205.9531 108.0938 206.6719 108.6484 Q207.3906 109.2031 207.3906 110.1875 Q207.3906 110.9688 206.8906 111.5 Q206.3906 112.0312 205.4844 112.2188 Q206.5625 112.375 207.1562 113.0078 Q207.75 113.6406 207.75 114.6406 Q207.75 115.8594 206.9219 116.5156 Q206.0938 117.1719 204.5469 117.1719 Q203.8594 117.1719 203.2109 117.0234 Q202.5625 116.875 201.9219 116.5781 L201.9219 114.875 L202.5781 114.875 Q202.625 115.7188 203.1406 116.1562 Q203.6562 116.5938 204.5781 116.5938 Q205.4688 116.5938 205.9922 116.0703 Q206.5156 115.5469 206.5156 114.6562 Q206.5156 113.625 205.9766 113.0938 Q205.4375 112.5625 204.4062 112.5625 L203.8594 112.5625 L203.8594 111.9531 L204.1406 111.9531 Q205.1719 111.9531 205.6875 111.5312 Q206.2031 111.1094 206.2031 110.25 Q206.2031 109.4844 205.7812 109.0781 Q205.3594 108.6719 204.5625 108.6719 Q203.7656 108.6719 203.3359 109.0469 Q202.9062 109.4219 202.8281 110.1562 L202.1719 110.1562 L202.1719 108.625 Z" style="fill:black; stroke:none;" /><rect height="8" style="stroke:none;" width="8" x="201" y="122" /><path d="M206.1875 128.4688 L205.9531 129.1094 Q205.7656 129.625 205.2031 129.9375 Q204.8438 130.1562 204.2031 130.1406 Q203.0469 130.1406 202.3281 129.2344 Q201.5938 128.3281 201.5938 126.8594 Q201.5938 125.4219 202.3281 124.4844 Q203.0156 123.5938 204.4531 123.6094 Q205.4531 123.6094 205.9531 124 Q206.4062 124.3438 206.5781 125.0938 L206.625 125.3125 L206.8438 124.6719 Q207.0625 124.0469 207.6562 123.75 L208.25 123.75 L208.25 124.0938 Q207.6875 124.2656 207.5 124.8125 L206.8906 126.4844 L207.2969 128.2812 Q207.5 129.2031 207.7344 129.2969 Q208.0469 129.4375 208.7812 129 L208.7812 129.7188 Q207.5938 130.4062 206.75 129.6875 Q206.375 129.3594 206.2656 128.875 L206.1875 128.4688 ZM205.9219 127.3125 L205.5625 125.5938 Q205.2656 124.2188 204.4688 124.2188 Q203.7969 124.2031 203.2812 124.9375 Q202.8594 125.5156 202.8594 126.875 Q202.8594 128.1719 203.2812 128.8281 Q203.75 129.5469 204.5312 129.5 Q205.2031 129.4375 205.6875 128 L205.9219 127.3125 Z" style="fill:black; stroke:none;" /></g><g ID="li-1:13,16" style="fill:white; text-rendering:optimizeSpeed; font-family:'Serif'; stroke:white;"><rect height="9" style="stroke:none;" width="8" x="174" y="96" /><path d="M178.1875 102.0312 L178.1875 97.375 L175.2031 102.0312 L178.1875 102.0312 ZM180.7656 105 L176.7812 105 L176.7812 104.375 L178.1875 104.375 L178.1875 102.6562 L174.375 102.6562 L174.375 102.0156 L178.2031 96.0938 L179.3594 96.0938 L179.3594 102.0312 L181.0312 102.0312 L181.0312 102.6562 L179.3594 102.6562 L179.3594 104.375 L180.7656 104.375 L180.7656 105 Z" style="fill:black; stroke:none;" /><rect height="13" style="stroke:none;" width="7" x="160" y="94" /><path d="M161.8281 106.25 Q162.2969 106.5938 163.1719 106.5938 Q164.0625 106.5938 164.5781 106.0703 Q165.0938 105.5469 165.0938 104.6562 Q165.0938 103.4219 164.5625 102.8906 Q164.0156 102.3594 163 102.3594 L162.4375 102.3594 L162.4375 101.7188 L162.7344 101.7188 Q163.4844 101.7188 164 101.2969 Q164.4219 100.9531 164.4219 100.0156 Q164.4219 99.6094 164.1406 99.1406 Q163.6875 98.375 163.1562 98.3906 Q161.8281 98.4375 161.8281 100.7812 L161.8281 106.25 ZM160.75 109.5 L160.75 100.7812 Q160.75 98.3281 162.0781 98 Q162.7656 97.8125 163.25 97.8125 Q164.3438 97.8125 165.0469 98.6719 Q165.6094 99.3594 165.6094 99.9375 Q165.6094 100.7812 165.2031 101.2656 Q164.7969 101.75 164.0625 101.9844 Q165.1406 102.1406 165.75 102.7812 Q166.3281 103.4062 166.3281 104.6328 Q166.3281 105.8594 165.5078 106.5156 Q164.6875 107.1719 163.1406 107.1719 Q162.1875 107.1719 161.8281 107.0312 L161.8281 109.5 L160.75 109.5 Z" style="fill:black; stroke:none;" /></g><g ID="l-1:14,18" style="text-rendering:optimizeSpeed;"><polygon points=" 197 41 145 41" style="fill:none;" /></g><g ID="r-1:14" style="fill:white; text-rendering:optimizeSpeed; stroke:white;" wurcs_mono_id="16"><rect height="22" style="clip-path:url(#clipPath16); stroke:none;" width="22" x="186" y="30" /><rect height="22" style="clip-path:url(#clipPath16); fill:rgb(0,144,188); stroke:none;" width="22" x="186" y="30" /><rect height="22" style="clip-path:url(#clipPath16); fill:none; stroke:black;" width="22" x="186" y="30" /><rect height="22" style="fill:none; stroke:black;" width="22" x="186" y="30" /></g><g ID="l-1:18,19" style="text-rendering:optimizeSpeed;"><polygon points=" 145 41 93 41" style="fill:none;" /></g><g ID="r-1:18" style="fill:white; text-rendering:optimizeSpeed; stroke:white;" wurcs_mono_id="17"><circle cx="145" cy="41" r="11" style="clip-path:url(#clipPath17); stroke:none;" /><rect height="22" style="clip-path:url(#clipPath17); fill:rgb(255,212,0); stroke:none;" width="22" x="134" y="30" /><rect height="22" style="clip-path:url(#clipPath17); fill:none; stroke:black;" width="22" x="134" y="30" /><circle cx="145" cy="41" r="11" style="fill:none; stroke:black;" /></g><g ID="l-1:19,20" style="text-rendering:optimizeSpeed;"><polygon points=" 93 41 41 41" style="fill:none;" /></g><g ID="r-1:19" style="fill:white; text-rendering:optimizeSpeed; stroke:white;" wurcs_mono_id="18"><rect height="22" style="clip-path:url(#clipPath18); stroke:none;" width="22" x="82" y="30" /><rect height="22" style="clip-path:url(#clipPath18); fill:rgb(0,144,188); stroke:none;" width="22" x="82" y="30" /><rect height="22" style="clip-path:url(#clipPath18); fill:none; stroke:black;" width="22" x="82" y="30" /><rect height="22" style="fill:none; stroke:black;" width="22" x="82" y="30" /></g><g ID="r-1:20" style="fill:white; text-rendering:optimizeSpeed; stroke:white;" wurcs_mono_id="19"><circle cx="41" cy="41" r="11" style="clip-path:url(#clipPath19); stroke:none;" /><rect height="22" style="clip-path:url(#clipPath19); fill:rgb(255,212,0); stroke:none;" width="22" x="30" y="30" /><rect height="22" style="clip-path:url(#clipPath19); fill:none; stroke:black;" width="22" x="30" y="30" /><circle cx="41" cy="41" r="11" style="fill:none; stroke:black;" /></g><g ID="li-1:19,20" style="fill:white; text-rendering:optimizeSpeed; font-family:'Serif'; stroke:white;"><rect height="9" style="stroke:none;" width="8" x="70" y="44" /><path d="M74.1875 50.0312 L74.1875 45.375 L71.2031 50.0312 L74.1875 50.0312 ZM76.7656 53 L72.7812 53 L72.7812 52.375 L74.1875 52.375 L74.1875 50.6562 L70.375 50.6562 L70.375 50.0156 L74.2031 44.0938 L75.3594 44.0938 L75.3594 50.0312 L77.0312 50.0312 L77.0312 50.6562 L75.3594 50.6562 L75.3594 52.375 L76.7656 52.375 L76.7656 53 Z" style="fill:black; stroke:none;" /><rect height="13" style="stroke:none;" width="7" x="56" y="42" /><path d="M57.8281 54.25 Q58.2969 54.5938 59.1719 54.5938 Q60.0625 54.5938 60.5781 54.0703 Q61.0938 53.5469 61.0938 52.6562 Q61.0938 51.4219 60.5625 50.8906 Q60.0156 50.3594 59 50.3594 L58.4375 50.3594 L58.4375 49.7188 L58.7344 49.7188 Q59.4844 49.7188 60 49.2969 Q60.4219 48.9531 60.4219 48.0156 Q60.4219 47.6094 60.1406 47.1406 Q59.6875 46.375 59.1562 46.3906 Q57.8281 46.4375 57.8281 48.7812 L57.8281 54.25 ZM56.75 57.5 L56.75 48.7812 Q56.75 46.3281 58.0781 46 Q58.7656 45.8125 59.25 45.8125 Q60.3438 45.8125 61.0469 46.6719 Q61.6094 47.3594 61.6094 47.9375 Q61.6094 48.7812 61.2031 49.2656 Q60.7969 49.75 60.0625 49.9844 Q61.1406 50.1406 61.75 50.7812 Q62.3281 51.4062 62.3281 52.6328 Q62.3281 53.8594 61.5078 54.5156 Q60.6875 55.1719 59.1406 55.1719 Q58.1875 55.1719 57.8281 55.0312 L57.8281 57.5 L56.75 57.5 Z" style="fill:black; stroke:none;" /></g><g ID="li-1:18,19" style="fill:white; text-rendering:optimizeSpeed; font-family:'Serif'; stroke:white;"><rect height="10" style="stroke:none;" width="7" x="122" y="44" /><path d="M123.1719 45.625 Q123.8594 45.3594 124.4844 45.2266 Q125.1094 45.0938 125.6562 45.0938 Q126.9531 45.0938 127.6719 45.6484 Q128.3906 46.2031 128.3906 47.1875 Q128.3906 47.9688 127.8906 48.5 Q127.3906 49.0312 126.4844 49.2188 Q127.5625 49.375 128.1562 50.0078 Q128.75 50.6406 128.75 51.6406 Q128.75 52.8594 127.9219 53.5156 Q127.0938 54.1719 125.5469 54.1719 Q124.8594 54.1719 124.2109 54.0234 Q123.5625 53.875 122.9219 53.5781 L122.9219 51.875 L123.5781 51.875 Q123.625 52.7188 124.1406 53.1562 Q124.6562 53.5938 125.5781 53.5938 Q126.4688 53.5938 126.9922 53.0703 Q127.5156 52.5469 127.5156 51.6562 Q127.5156 50.625 126.9766 50.0938 Q126.4375 49.5625 125.4062 49.5625 L124.8594 49.5625 L124.8594 48.9531 L125.1406 48.9531 Q126.1719 48.9531 126.6875 48.5312 Q127.2031 48.1094 127.2031 47.25 Q127.2031 46.4844 126.7812 46.0781 Q126.3594 45.6719 125.5625 45.6719 Q124.7656 45.6719 124.3359 46.0469 Q123.9062 46.4219 123.8281 47.1562 L123.1719 47.1562 L123.1719 45.625 Z" style="fill:black; stroke:none;" /><rect height="13" style="stroke:none;" width="7" x="108" y="42" /><path d="M109.8281 54.25 Q110.2969 54.5938 111.1719 54.5938 Q112.0625 54.5938 112.5781 54.0703 Q113.0938 53.5469 113.0938 52.6562 Q113.0938 51.4219 112.5625 50.8906 Q112.0156 50.3594 111 50.3594 L110.4375 50.3594 L110.4375 49.7188 L110.7344 49.7188 Q111.4844 49.7188 112 49.2969 Q112.4219 48.9531 112.4219 48.0156 Q112.4219 47.6094 112.1406 47.1406 Q111.6875 46.375 111.1562 46.3906 Q109.8281 46.4375 109.8281 48.7812 L109.8281 54.25 ZM108.75 57.5 L108.75 48.7812 Q108.75 46.3281 110.0781 46 Q110.7656 45.8125 111.25 45.8125 Q112.3438 45.8125 113.0469 46.6719 Q113.6094 47.3594 113.6094 47.9375 Q113.6094 48.7812 113.2031 49.2656 Q112.7969 49.75 112.0625 49.9844 Q113.1406 50.1406 113.75 50.7812 Q114.3281 51.4062 114.3281 52.6328 Q114.3281 53.8594 113.5078 54.5156 Q112.6875 55.1719 111.1406 55.1719 Q110.1875 55.1719 109.8281 55.0312 L109.8281 57.5 L108.75 57.5 Z" style="fill:black; stroke:none;" /></g><g ID="li-1:14,18" style="fill:white; text-rendering:optimizeSpeed; font-family:'Serif'; stroke:white;"><rect height="9" style="stroke:none;" width="8" x="174" y="44" /><path d="M178.1875 50.0312 L178.1875 45.375 L175.2031 50.0312 L178.1875 50.0312 ZM180.7656 53 L176.7812 53 L176.7812 52.375 L178.1875 52.375 L178.1875 50.6562 L174.375 50.6562 L174.375 50.0156 L178.2031 44.0938 L179.3594 44.0938 L179.3594 50.0312 L181.0312 50.0312 L181.0312 50.6562 L179.3594 50.6562 L179.3594 52.375 L180.7656 52.375 L180.7656 53 Z" style="fill:black; stroke:none;" /><rect height="13" style="stroke:none;" width="7" x="160" y="42" /><path d="M161.8281 54.25 Q162.2969 54.5938 163.1719 54.5938 Q164.0625 54.5938 164.5781 54.0703 Q165.0938 53.5469 165.0938 52.6562 Q165.0938 51.4219 164.5625 50.8906 Q164.0156 50.3594 163 50.3594 L162.4375 50.3594 L162.4375 49.7188 L162.7344 49.7188 Q163.4844 49.7188 164 49.2969 Q164.4219 48.9531 164.4219 48.0156 Q164.4219 47.6094 164.1406 47.1406 Q163.6875 46.375 163.1562 46.3906 Q161.8281 46.4375 161.8281 48.7812 L161.8281 54.25 ZM160.75 57.5 L160.75 48.7812 Q160.75 46.3281 162.0781 46 Q162.7656 45.8125 163.25 45.8125 Q164.3438 45.8125 165.0469 46.6719 Q165.6094 47.3594 165.6094 47.9375 Q165.6094 48.7812 165.2031 49.2656 Q164.7969 49.75 164.0625 49.9844 Q165.1406 50.1406 165.75 50.7812 Q166.3281 51.4062 166.3281 52.6328 Q166.3281 53.8594 165.5078 54.5156 Q164.6875 55.1719 163.1406 55.1719 Q162.1875 55.1719 161.8281 55.0312 L161.8281 57.5 L160.75 57.5 Z" style="fill:black; stroke:none;" /></g><g ID="li-1:6,13" style="fill:white; text-rendering:optimizeSpeed; font-family:'Serif'; stroke:white;"><rect height="9" style="stroke:none;" width="7" x="230" y="78" /><path d="M231.5312 80.3438 L230.875 80.3438 L230.875 78.7812 Q231.5 78.4375 232.1406 78.2656 Q232.7812 78.0938 233.3906 78.0938 Q234.75 78.0938 235.5391 78.7578 Q236.3281 79.4219 236.3281 80.5469 Q236.3281 81.8438 234.5469 83.625 Q234.4062 83.7656 234.3281 83.8281 L232.125 86.0312 L235.7656 86.0312 L235.7656 84.9531 L236.4531 84.9531 L236.4531 87 L230.8125 87 L230.8125 86.3594 L233.4688 83.7188 Q234.3438 82.8281 234.7188 82.0938 Q235.0938 81.3594 235.0938 80.5469 Q235.0938 79.6719 234.6328 79.1719 Q234.1719 78.6719 233.375 78.6719 Q232.5312 78.6719 232.0781 79.0859 Q231.625 79.5 231.5312 80.3438 Z" style="fill:black; stroke:none;" /><rect height="13" style="stroke:none;" width="7" x="215" y="84" /><path d="M216.8281 96.25 Q217.2969 96.5938 218.1719 96.5938 Q219.0625 96.5938 219.5781 96.0703 Q220.0938 95.5469 220.0938 94.6562 Q220.0938 93.4219 219.5625 92.8906 Q219.0156 92.3594 218 92.3594 L217.4375 92.3594 L217.4375 91.7188 L217.7344 91.7188 Q218.4844 91.7188 219 91.2969 Q219.4219 90.9531 219.4219 90.0156 Q219.4219 89.6094 219.1406 89.1406 Q218.6875 88.375 218.1562 88.3906 Q216.8281 88.4375 216.8281 90.7812 L216.8281 96.25 ZM215.75 99.5 L215.75 90.7812 Q215.75 88.3281 217.0781 88 Q217.7656 87.8125 218.25 87.8125 Q219.3438 87.8125 220.0469 88.6719 Q220.6094 89.3594 220.6094 89.9375 Q220.6094 90.7812 220.2031 91.2656 Q219.7969 91.75 219.0625 91.9844 Q220.1406 92.1406 220.75 92.7812 Q221.3281 93.4062 221.3281 94.6328 Q221.3281 95.8594 220.5078 96.5156 Q219.6875 97.1719 218.1406 97.1719 Q217.1875 97.1719 216.8281 97.0312 L216.8281 99.5 L215.75 99.5 Z" style="fill:black; stroke:none;" /></g><g ID="li-1:6,14" style="fill:white; text-rendering:optimizeSpeed; font-family:'Serif'; stroke:white;"><rect height="10" style="stroke:none;" width="7" x="223" y="60" /><path d="M226.9219 69.5938 Q227.75 69.5938 228.1953 68.9844 Q228.6406 68.375 228.6406 67.2344 Q228.6406 66.1094 228.1953 65.5 Q227.75 64.8906 226.9219 64.8906 Q226.0938 64.8906 225.6484 65.4766 Q225.2031 66.0625 225.2031 67.1719 Q225.2031 68.3281 225.6484 68.9609 Q226.0938 69.5938 226.9219 69.5938 ZM225.0156 65.1875 Q225.4219 64.75 225.9219 64.5312 Q226.4219 64.3125 227.0625 64.3125 Q228.3594 64.3125 229.1172 65.0938 Q229.875 65.875 229.875 67.2344 Q229.875 68.5625 229.0625 69.3672 Q228.25 70.1719 226.875 70.1719 Q225.3906 70.1719 224.5938 69.0625 Q223.7969 67.9531 223.7969 65.9062 Q223.7969 63.6094 224.7422 62.3516 Q225.6875 61.0938 227.4062 61.0938 Q227.875 61.0938 228.3828 61.1797 Q228.8906 61.2656 229.4219 61.4375 L229.4219 62.8906 L228.7656 62.8906 Q228.6875 62.2969 228.3047 61.9844 Q227.9219 61.6719 227.2812 61.6719 Q226.1406 61.6719 225.5859 62.5312 Q225.0312 63.3906 225.0156 65.1875 Z" style="fill:black; stroke:none;" /><rect height="13" style="stroke:none;" width="7" x="208" y="50" /><path d="M209.8281 62.25 Q210.2969 62.5938 211.1719 62.5938 Q212.0625 62.5938 212.5781 62.0703 Q213.0938 61.5469 213.0938 60.6562 Q213.0938 59.4219 212.5625 58.8906 Q212.0156 58.3594 211 58.3594 L210.4375 58.3594 L210.4375 57.7188 L210.7344 57.7188 Q211.4844 57.7188 212 57.2969 Q212.4219 56.9531 212.4219 56.0156 Q212.4219 55.6094 212.1406 55.1406 Q211.6875 54.375 211.1562 54.3906 Q209.8281 54.4375 209.8281 56.7812 L209.8281 62.25 ZM208.75 65.5 L208.75 56.7812 Q208.75 54.3281 210.0781 54 Q210.7656 53.8125 211.25 53.8125 Q212.3438 53.8125 213.0469 54.6719 Q213.6094 55.3594 213.6094 55.9375 Q213.6094 56.7812 213.2031 57.2656 Q212.7969 57.75 212.0625 57.9844 Q213.1406 58.1406 213.75 58.7812 Q214.3281 59.4062 214.3281 60.6328 Q214.3281 61.8594 213.5078 62.5156 Q212.6875 63.1719 211.1406 63.1719 Q210.1875 63.1719 209.8281 63.0312 L209.8281 65.5 L208.75 65.5 Z" style="fill:black; stroke:none;" /></g><g ID="li-1:4,5" style="fill:white; text-rendering:optimizeSpeed; font-family:'Serif'; stroke:white;"><rect height="10" style="stroke:none;" width="7" x="294" y="174" /><path d="M295.1719 175.625 Q295.8594 175.3594 296.4844 175.2266 Q297.1094 175.0938 297.6562 175.0938 Q298.9531 175.0938 299.6719 175.6484 Q300.3906 176.2031 300.3906 177.1875 Q300.3906 177.9688 299.8906 178.5 Q299.3906 179.0312 298.4844 179.2188 Q299.5625 179.375 300.1562 180.0078 Q300.75 180.6406 300.75 181.6406 Q300.75 182.8594 299.9219 183.5156 Q299.0938 184.1719 297.5469 184.1719 Q296.8594 184.1719 296.2109 184.0234 Q295.5625 183.875 294.9219 183.5781 L294.9219 181.875 L295.5781 181.875 Q295.625 182.7188 296.1406 183.1562 Q296.6562 183.5938 297.5781 183.5938 Q298.4688 183.5938 298.9922 183.0703 Q299.5156 182.5469 299.5156 181.6562 Q299.5156 180.625 298.9766 180.0938 Q298.4375 179.5625 297.4062 179.5625 L296.8594 179.5625 L296.8594 178.9531 L297.1406 178.9531 Q298.1719 178.9531 298.6875 178.5312 Q299.2031 178.1094 299.2031 177.25 Q299.2031 176.4844 298.7812 176.0781 Q298.3594 175.6719 297.5625 175.6719 Q296.7656 175.6719 296.3359 176.0469 Q295.9062 176.4219 295.8281 177.1562 L295.1719 177.1562 L295.1719 175.625 Z" style="fill:black; stroke:none;" /><rect height="8" style="stroke:none;" width="8" x="262" y="231" /><path d="M267.1875 237.4688 L266.9531 238.1094 Q266.7656 238.625 266.2031 238.9375 Q265.8438 239.1562 265.2031 239.1406 Q264.0469 239.1406 263.3281 238.2344 Q262.5938 237.3281 262.5938 235.8594 Q262.5938 234.4219 263.3281 233.4844 Q264.0156 232.5938 265.4531 232.6094 Q266.4531 232.6094 266.9531 233 Q267.4062 233.3438 267.5781 234.0938 L267.625 234.3125 L267.8438 233.6719 Q268.0625 233.0469 268.6562 232.75 L269.25 232.75 L269.25 233.0938 Q268.6875 233.2656 268.5 233.8125 L267.8906 235.4844 L268.2969 237.2812 Q268.5 238.2031 268.7344 238.2969 Q269.0469 238.4375 269.7812 238 L269.7812 238.7188 Q268.5938 239.4062 267.75 238.6875 Q267.375 238.3594 267.2656 237.875 L267.1875 237.4688 ZM266.9219 236.3125 L266.5625 234.5938 Q266.2656 233.2188 265.4688 233.2188 Q264.7969 233.2031 264.2812 233.9375 Q263.8594 234.5156 263.8594 235.875 Q263.8594 237.1719 264.2812 237.8281 Q264.75 238.5469 265.5312 238.5 Q266.2031 238.4375 266.6875 237 L266.9219 236.3125 Z" style="fill:black; stroke:none;" /></g><g ID="li-1:4,6" style="fill:white; text-rendering:optimizeSpeed; font-family:'Serif'; stroke:white;"><rect height="10" style="stroke:none;" width="7" x="280" y="139" /><path d="M283.9219 148.5938 Q284.75 148.5938 285.1953 147.9844 Q285.6406 147.375 285.6406 146.2344 Q285.6406 145.1094 285.1953 144.5 Q284.75 143.8906 283.9219 143.8906 Q283.0938 143.8906 282.6484 144.4766 Q282.2031 145.0625 282.2031 146.1719 Q282.2031 147.3281 282.6484 147.9609 Q283.0938 148.5938 283.9219 148.5938 ZM282.0156 144.1875 Q282.4219 143.75 282.9219 143.5312 Q283.4219 143.3125 284.0625 143.3125 Q285.3594 143.3125 286.1172 144.0938 Q286.875 144.875 286.875 146.2344 Q286.875 147.5625 286.0625 148.3672 Q285.25 149.1719 283.875 149.1719 Q282.3906 149.1719 281.5938 148.0625 Q280.7969 146.9531 280.7969 144.9062 Q280.7969 142.6094 281.7422 141.3516 Q282.6875 140.0938 284.4062 140.0938 Q284.875 140.0938 285.3828 140.1797 Q285.8906 140.2656 286.4219 140.4375 L286.4219 141.8906 L285.7656 141.8906 Q285.6875 141.2969 285.3047 140.9844 Q284.9219 140.6719 284.2812 140.6719 Q283.1406 140.6719 282.5859 141.5312 Q282.0312 142.3906 282.0156 144.1875 Z" style="fill:black; stroke:none;" /><rect height="8" style="stroke:none;" width="8" x="248" y="84" /><path d="M253.1875 90.4688 L252.9531 91.1094 Q252.7656 91.625 252.2031 91.9375 Q251.8438 92.1562 251.2031 92.1406 Q250.0469 92.1406 249.3281 91.2344 Q248.5938 90.3281 248.5938 88.8594 Q248.5938 87.4219 249.3281 86.4844 Q250.0156 85.5938 251.4531 85.6094 Q252.4531 85.6094 252.9531 86 Q253.4062 86.3438 253.5781 87.0938 L253.625 87.3125 L253.8438 86.6719 Q254.0625 86.0469 254.6562 85.75 L255.25 85.75 L255.25 86.0938 Q254.6875 86.2656 254.5 86.8125 L253.8906 88.4844 L254.2969 90.2812 Q254.5 91.2031 254.7344 91.2969 Q255.0469 91.4375 255.7812 91 L255.7812 91.7188 Q254.5938 92.4062 253.75 91.6875 Q253.375 91.3594 253.2656 90.875 L253.1875 90.4688 ZM252.9219 89.3125 L252.5625 87.5938 Q252.2656 86.2188 251.4688 86.2188 Q250.7969 86.2031 250.2812 86.9375 Q249.8594 87.5156 249.8594 88.875 Q249.8594 90.1719 250.2812 90.8281 Q250.75 91.5469 251.5312 91.5 Q252.2031 91.4375 252.6875 90 L252.9219 89.3125 Z" style="fill:black; stroke:none;" /></g><g ID="li-1:2,4" style="fill:white; text-rendering:optimizeSpeed; font-family:'Serif'; stroke:white;"><rect height="9" style="stroke:none;" width="8" x="330" y="161" /><path d="M334.1875 167.0312 L334.1875 162.375 L331.2031 167.0312 L334.1875 167.0312 ZM336.7656 170 L332.7812 170 L332.7812 169.375 L334.1875 169.375 L334.1875 167.6562 L330.375 167.6562 L330.375 167.0156 L334.2031 161.0938 L335.3594 161.0938 L335.3594 167.0312 L337.0312 167.0312 L337.0312 167.6562 L335.3594 167.6562 L335.3594 169.375 L336.7656 169.375 L336.7656 170 Z" style="fill:black; stroke:none;" /><rect height="13" style="stroke:none;" width="7" x="316" y="159" /><path d="M317.8281 171.25 Q318.2969 171.5938 319.1719 171.5938 Q320.0625 171.5938 320.5781 171.0703 Q321.0938 170.5469 321.0938 169.6562 Q321.0938 168.4219 320.5625 167.8906 Q320.0156 167.3594 319 167.3594 L318.4375 167.3594 L318.4375 166.7188 L318.7344 166.7188 Q319.4844 166.7188 320 166.2969 Q320.4219 165.9531 320.4219 165.0156 Q320.4219 164.6094 320.1406 164.1406 Q319.6875 163.375 319.1562 163.3906 Q317.8281 163.4375 317.8281 165.7812 L317.8281 171.25 ZM316.75 174.5 L316.75 165.7812 Q316.75 163.3281 318.0781 163 Q318.7656 162.8125 319.25 162.8125 Q320.3438 162.8125 321.0469 163.6719 Q321.6094 164.3594 321.6094 164.9375 Q321.6094 165.7812 321.2031 166.2656 Q320.7969 166.75 320.0625 166.9844 Q321.1406 167.1406 321.75 167.7812 Q322.3281 168.4062 322.3281 169.6328 Q322.3281 170.8594 321.5078 171.5156 Q320.6875 172.1719 319.1406 172.1719 Q318.1875 172.1719 317.8281 172.0312 L317.8281 174.5 L316.75 174.5 Z" style="fill:black; stroke:none;" /></g><g ID="r-1:3" style="fill:white; text-rendering:optimizeSpeed; stroke:white;" wurcs_mono_id="20"><polygon points=" 405 117 394 95 416 95" style="stroke:none; clip-path:url(#clipPath20);" /><rect height="22" style="clip-path:url(#clipPath20); fill:rgb(237,28,36); stroke:none;" width="22" x="394" y="95" /><rect height="22" style="clip-path:url(#clipPath20); fill:none; stroke:black;" width="22" x="394" y="95" /><polygon points=" 405 117 394 95 416 95" style="fill:none; stroke:black;" /></g><g ID="li-1:1,2" style="fill:white; text-rendering:optimizeSpeed; font-family:'Serif'; stroke:white;"><rect height="9" style="stroke:none;" width="8" x="382" y="161" /><path d="M386.1875 167.0312 L386.1875 162.375 L383.2031 167.0312 L386.1875 167.0312 ZM388.7656 170 L384.7812 170 L384.7812 169.375 L386.1875 169.375 L386.1875 167.6562 L382.375 167.6562 L382.375 167.0156 L386.2031 161.0938 L387.3594 161.0938 L387.3594 167.0312 L389.0312 167.0312 L389.0312 167.6562 L387.3594 167.6562 L387.3594 169.375 L388.7656 169.375 L388.7656 170 Z" style="fill:black; stroke:none;" /><rect height="13" style="stroke:none;" width="7" x="368" y="159" /><path d="M369.8281 171.25 Q370.2969 171.5938 371.1719 171.5938 Q372.0625 171.5938 372.5781 171.0703 Q373.0938 170.5469 373.0938 169.6562 Q373.0938 168.4219 372.5625 167.8906 Q372.0156 167.3594 371 167.3594 L370.4375 167.3594 L370.4375 166.7188 L370.7344 166.7188 Q371.4844 166.7188 372 166.2969 Q372.4219 165.9531 372.4219 165.0156 Q372.4219 164.6094 372.1406 164.1406 Q371.6875 163.375 371.1562 163.3906 Q369.8281 163.4375 369.8281 165.7812 L369.8281 171.25 ZM368.75 174.5 L368.75 165.7812 Q368.75 163.3281 370.0781 163 Q370.7656 162.8125 371.25 162.8125 Q372.3438 162.8125 373.0469 163.6719 Q373.6094 164.3594 373.6094 164.9375 Q373.6094 165.7812 373.2031 166.2656 Q372.7969 166.75 372.0625 166.9844 Q373.1406 167.1406 373.75 167.7812 Q374.3281 168.4062 374.3281 169.6328 Q374.3281 170.8594 373.5078 171.5156 Q372.6875 172.1719 371.1406 172.1719 Q370.1875 172.1719 369.8281 172.0312 L369.8281 174.5 L368.75 174.5 Z" style="fill:black; stroke:none;" /></g><g ID="li-1:1,3" style="fill:white; text-rendering:optimizeSpeed; font-family:'Serif'; stroke:white;"><rect height="10" style="stroke:none;" width="7" x="393" y="134" /><path d="M396.9219 143.5938 Q397.75 143.5938 398.1953 142.9844 Q398.6406 142.375 398.6406 141.2344 Q398.6406 140.1094 398.1953 139.5 Q397.75 138.8906 396.9219 138.8906 Q396.0938 138.8906 395.6484 139.4766 Q395.2031 140.0625 395.2031 141.1719 Q395.2031 142.3281 395.6484 142.9609 Q396.0938 143.5938 396.9219 143.5938 ZM395.0156 139.1875 Q395.4219 138.75 395.9219 138.5312 Q396.4219 138.3125 397.0625 138.3125 Q398.3594 138.3125 399.1172 139.0938 Q399.875 139.875 399.875 141.2344 Q399.875 142.5625 399.0625 143.3672 Q398.25 144.1719 396.875 144.1719 Q395.3906 144.1719 394.5938 143.0625 Q393.7969 141.9531 393.7969 139.9062 Q393.7969 137.6094 394.7422 136.3516 Q395.6875 135.0938 397.4062 135.0938 Q397.875 135.0938 398.3828 135.1797 Q398.8906 135.2656 399.4219 135.4375 L399.4219 136.8906 L398.7656 136.8906 Q398.6875 136.2969 398.3047 135.9844 Q397.9219 135.6719 397.2812 135.6719 Q396.1406 135.6719 395.5859 136.5312 Q395.0312 137.3906 395.0156 139.1875 Z" style="fill:black; stroke:none;" /><rect height="8" style="stroke:none;" width="8" x="393" y="121" /><path d="M398.1875 127.4688 L397.9531 128.1094 Q397.7656 128.625 397.2031 128.9375 Q396.8438 129.1562 396.2031 129.1406 Q395.0469 129.1406 394.3281 128.2344 Q393.5938 127.3281 393.5938 125.8594 Q393.5938 124.4219 394.3281 123.4844 Q395.0156 122.5938 396.4531 122.6094 Q397.4531 122.6094 397.9531 123 Q398.4062 123.3438 398.5781 124.0938 L398.625 124.3125 L398.8438 123.6719 Q399.0625 123.0469 399.6562 122.75 L400.25 122.75 L400.25 123.0938 Q399.6875 123.2656 399.5 123.8125 L398.8906 125.4844 L399.2969 127.2812 Q399.5 128.2031 399.7344 128.2969 Q400.0469 128.4375 400.7812 128 L400.7812 128.7188 Q399.5938 129.4062 398.75 128.6875 Q398.375 128.3594 398.2656 127.875 L398.1875 127.4688 ZM397.9219 126.3125 L397.5625 124.5938 Q397.2656 123.2188 396.4688 123.2188 Q395.7969 123.2031 395.2812 123.9375 Q394.8594 124.5156 394.8594 125.875 Q394.8594 127.1719 395.2812 127.8281 Q395.75 128.5469 396.5312 128.5 Q397.2031 128.4375 397.6875 127 L397.9219 126.3125 Z" style="fill:black; stroke:none;" /></g></g></svg>