<svg xmlns="http://www.w3.org/2000/svg" style="fill-opacity:1; color-rendering:auto; color-interpolation:auto; text-rendering:auto; stroke:black; stroke-linecap:square; stroke-miterlimit:10; shape-rendering:auto; stroke-opacity:1; fill:black; stroke-dasharray:none; font-weight:normal; stroke-width:1; font-family:'Dialog'; font-style:normal; stroke-linejoin:miter; font-size:12px; stroke-dashoffset:0; image-rendering:auto;"><defs id="genericDefs" /><g><defs id="defs1"><clipPath clipPathUnits="userSpaceOnUse" id="clipPath1"><path d="M394 82 L416 82 L416 104 L394 104 L394 82 Z" /></clipPath><clipPath clipPathUnits="userSpaceOnUse" id="clipPath2"><path d="M342 82 L364 82 L364 104 L342 104 L342 82 Z" /></clipPath><clipPath clipPathUnits="userSpaceOnUse" id="clipPath3"><path d="M312 93 C312 99.0751 307.0751 104 301 104 C294.9249 104 290 99.0751 290 93 C290 86.9249 294.9249 82 301 82 C307.0751 82 312 86.9249 312 93 Z" /></clipPath><clipPath clipPathUnits="userSpaceOnUse" id="clipPath4"><path d="M260 119 C260 125.0751 255.0751 130 249 130 C242.9249 130 238 125.0751 238 119 C238 112.9249 242.9249 108 249 108 C255.0751 108 260 112.9249 260 119 Z" /></clipPath><clipPath clipPathUnits="userSpaceOnUse" id="clipPath5"><path d="M186 108 L208 108 L208 130 L186 130 L186 108 Z" /></clipPath><clipPath clipPathUnits="userSpaceOnUse" id="clipPath6"><path d="M197 160 L208 182 L186 182 Z" style="fill-rule:evenodd;" /></clipPath><clipPath clipPathUnits="userSpaceOnUse" id="clipPath7"><path d="M156 119 C156 125.0751 151.0751 130 145 130 C138.9249 130 134 125.0751 134 119 C134 112.9249 138.9249 108 145 108 C151.0751 108 156 112.9249 156 119 Z" /></clipPath><clipPath clipPathUnits="userSpaceOnUse" id="clipPath8"><path d="M82 108 L104 108 L104 130 L82 130 L82 108 Z" /></clipPath><clipPath clipPathUnits="userSpaceOnUse" id="clipPath9"><path d="M93 160 L104 182 L82 182 Z" style="fill-rule:evenodd;" /></clipPath><clipPath clipPathUnits="userSpaceOnUse" id="clipPath10"><path d="M52 119 C52 125.0751 47.0751 130 41 130 C34.9249 130 30 125.0751 30 119 C30 112.9249 34.9249 108 41 108 C47.0751 108 52 112.9249 52 119 Z" /></clipPath><clipPath clipPathUnits="userSpaceOnUse" id="clipPath11"><path d="M260 67 C260 73.0751 255.0751 78 249 78 C242.9249 78 238 73.0751 238 67 C238 60.9249 242.9249 56 249 56 C255.0751 56 260 60.9249 260 67 Z" /></clipPath><clipPath clipPathUnits="userSpaceOnUse" id="clipPath12"><path d="M186 56 L208 56 L208 78 L186 78 L186 56 Z" /></clipPath><clipPath clipPathUnits="userSpaceOnUse" id="clipPath13"><path d="M156 67 C156 73.0751 151.0751 78 145 78 C138.9249 78 134 73.0751 134 67 C134 60.9249 138.9249 56 145 56 C151.0751 56 156 60.9249 156 67 Z" /></clipPath><clipPath clipPathUnits="userSpaceOnUse" id="clipPath14"><path d="M93 56 L104 67 L93 78 L82 67 Z" style="fill-rule:evenodd;" /></clipPath><clipPath clipPathUnits="userSpaceOnUse" id="clipPath15"><path d="M405 52 L394 30 L416 30 Z" style="fill-rule:evenodd;" /></clipPath></defs><g style="fill:white; text-rendering:optimizeSpeed; stroke:white;"><rect height="212" style="stroke:none;" width="446" x="0" y="0" /></g><g ID="l-1:1,2" style="text-rendering:optimizeSpeed;"><polygon points=" 405 93 353 93" style="fill:none;" /></g><g ID="l-1:1,3" style="text-rendering:optimizeSpeed;"><polygon points=" 405 93 405 41" style="fill:none;" /></g><g ID="r-1:1" style="fill:white; text-rendering:optimizeSpeed; stroke:white;" wurcs_mono_id="1"><rect height="22" style="clip-path:url(#clipPath1); stroke:none;" width="22" x="394" y="82" /><rect height="22" style="clip-path:url(#clipPath1); fill:rgb(0,144,188); stroke:none;" width="22" x="394" y="82" /><rect height="22" style="clip-path:url(#clipPath1); fill:none; stroke:black;" width="22" x="394" y="82" /><rect height="22" style="fill:none; stroke:black;" width="22" x="394" y="82" /></g><g style="font-style:italic; text-rendering:optimizeSpeed; font-size:10px; font-family:'SansSerif';"><path d="M406.0938 90.1562 Q405.375 90.1562 404.8359 90.7188 Q404.2969 91.2812 404.0781 92.2656 Q403.875 93.25 404.1719 93.8125 Q404.4688 94.375 405.2031 94.375 Q405.9219 94.375 406.4609 93.8125 Q407 93.25 407.2031 92.2656 Q407.4062 91.2969 407.1094 90.7266 Q406.8125 90.1562 406.0938 90.1562 ZM406.25 89.4062 Q407.4219 89.4062 407.9297 90.1641 Q408.4375 90.9219 408.1562 92.2656 Q407.875 93.6094 407.0391 94.375 Q406.2031 95.1406 405.0312 95.1406 Q403.8594 95.1406 403.3516 94.375 Q402.8438 93.6094 403.125 92.2656 Q403.4062 90.9219 404.2422 90.1641 Q405.0781 89.4062 406.25 89.4062 Z" style="stroke:none;" /></g><g ID="l-1:2,4" style="text-rendering:optimizeSpeed;"><polygon points=" 353 93 301 93" style="fill:none;" /></g><g ID="r-1:2" style="fill:white; text-rendering:optimizeSpeed; stroke:white;" wurcs_mono_id="2"><rect height="22" style="clip-path:url(#clipPath2); stroke:none;" width="22" x="342" y="82" /><rect height="22" style="clip-path:url(#clipPath2); fill:rgb(0,144,188); stroke:none;" width="22" x="342" y="82" /><rect height="22" style="clip-path:url(#clipPath2); fill:none; stroke:black;" width="22" x="342" y="82" /><rect height="22" style="fill:none; stroke:black;" width="22" x="342" y="82" /></g><g ID="l-1:4,5" style="text-rendering:optimizeSpeed;"><polygon points=" 301 93 249 119" style="fill:none;" /></g><g ID="l-1:4,6" style="text-rendering:optimizeSpeed;"><polygon points=" 301 93 249 67" style="fill:none;" /></g><g ID="r-1:4" style="fill:white; text-rendering:optimizeSpeed; stroke:white;" wurcs_mono_id="3"><circle cx="301" cy="93" r="11" style="clip-path:url(#clipPath3); stroke:none;" /><rect height="22" style="clip-path:url(#clipPath3); fill:rgb(0,166,81); stroke:none;" width="22" x="290" y="82" /><rect height="22" style="clip-path:url(#clipPath3); fill:none; stroke:black;" width="22" x="290" y="82" /><circle cx="301" cy="93" r="11" style="fill:none; stroke:black;" /></g><g ID="l-1:5,7" style="text-rendering:optimizeSpeed;"><polygon points=" 249 119 197 119" style="fill:none;" /></g><g ID="r-1:5" style="fill:white; text-rendering:optimizeSpeed; stroke:white;" wurcs_mono_id="4"><circle cx="249" cy="119" r="11" style="clip-path:url(#clipPath4); stroke:none;" /><rect height="22" style="clip-path:url(#clipPath4); fill:rgb(0,166,81); stroke:none;" width="22" x="238" y="108" /><rect height="22" style="clip-path:url(#clipPath4); fill:none; stroke:black;" width="22" x="238" y="108" /><circle cx="249" cy="119" r="11" style="fill:none; stroke:black;" /></g><g ID="l-1:7,8" style="text-rendering:optimizeSpeed;"><polygon points=" 197 119 197 171" style="fill:none;" /></g><g ID="l-1:7,9" style="text-rendering:optimizeSpeed;"><polygon points=" 197 119 145 119" style="fill:none;" /></g><g ID="r-1:7" style="fill:white; text-rendering:optimizeSpeed; stroke:white;" wurcs_mono_id="5"><rect height="22" style="clip-path:url(#clipPath5); stroke:none;" width="22" x="186" y="108" /><rect height="22" style="clip-path:url(#clipPath5); fill:rgb(0,144,188); stroke:none;" width="22" x="186" y="108" /><rect height="22" style="clip-path:url(#clipPath5); fill:none; stroke:black;" width="22" x="186" y="108" /><rect height="22" style="fill:none; stroke:black;" width="22" x="186" y="108" /></g><g ID="r-1:8" style="fill:white; text-rendering:optimizeSpeed; stroke:white;" wurcs_mono_id="6"><polygon points=" 197 160 208 182 186 182" style="stroke:none; clip-path:url(#clipPath6);" /><rect height="22" style="clip-path:url(#clipPath6); fill:rgb(237,28,36); stroke:none;" width="22" x="186" y="160" /><rect height="22" style="clip-path:url(#clipPath6); fill:none; stroke:black;" width="22" x="186" y="160" /><polygon points=" 197 160 208 182 186 182" style="fill:none; stroke:black;" /></g><g ID="l-1:9,10" style="text-rendering:optimizeSpeed;"><polygon points=" 145 119 93 119" style="fill:none;" /></g><g ID="r-1:9" style="fill:white; text-rendering:optimizeSpeed; stroke:white;" wurcs_mono_id="7"><circle cx="145" cy="119" r="11" style="clip-path:url(#clipPath7); stroke:none;" /><rect height="22" style="clip-path:url(#clipPath7); fill:rgb(255,212,0); stroke:none;" width="22" x="134" y="108" /><rect height="22" style="clip-path:url(#clipPath7); fill:none; stroke:black;" width="22" x="134" y="108" /><circle cx="145" cy="119" r="11" style="fill:none; stroke:black;" /></g><g ID="l-1:10,11" style="text-rendering:optimizeSpeed;"><polygon points=" 93 119 93 171" style="fill:none;" /></g><g ID="l-1:10,12" style="text-rendering:optimizeSpeed;"><polygon points=" 93 119 41 119" style="fill:none;" /></g><g ID="r-1:10" style="fill:white; text-rendering:optimizeSpeed; stroke:white;" wurcs_mono_id="8"><rect height="22" style="clip-path:url(#clipPath8); stroke:none;" width="22" x="82" y="108" /><rect height="22" style="clip-path:url(#clipPath8); fill:rgb(0,144,188); stroke:none;" width="22" x="82" y="108" /><rect height="22" style="clip-path:url(#clipPath8); fill:none; stroke:black;" width="22" x="82" y="108" /><rect height="22" style="fill:none; stroke:black;" width="22" x="82" y="108" /></g><g ID="r-1:11" style="fill:white; text-rendering:optimizeSpeed; stroke:white;" wurcs_mono_id="9"><polygon points=" 93 160 104 182 82 182" style="stroke:none; clip-path:url(#clipPath9);" /><rect height="22" style="clip-path:url(#clipPath9); fill:rgb(237,28,36); stroke:none;" width="22" x="82" y="160" /><rect height="22" style="clip-path:url(#clipPath9); fill:none; stroke:black;" width="22" x="82" y="160" /><polygon points=" 93 160 104 182 82 182" style="fill:none; stroke:black;" /></g><g ID="r-1:12" style="fill:white; text-rendering:optimizeSpeed; stroke:white;" wurcs_mono_id="10"><circle cx="41" cy="119" r="11" style="clip-path:url(#clipPath10); stroke:none;" /><rect height="22" style="clip-path:url(#clipPath10); fill:rgb(255,212,0); stroke:none;" width="22" x="30" y="108" /><rect height="22" style="clip-path:url(#clipPath10); fill:none; stroke:black;" width="22" x="30" y="108" /><circle cx="41" cy="119" r="11" style="fill:none; stroke:black;" /></g><g ID="li-1:10,11" style="fill:white; text-rendering:optimizeSpeed; font-family:'Serif'; stroke:white;"><rect height="10" style="stroke:none;" width="7" x="97" y="133" /><path d="M98.1719 134.625 Q98.8594 134.3594 99.4844 134.2266 Q100.1094 134.0938 100.6562 134.0938 Q101.9531 134.0938 102.6719 134.6484 Q103.3906 135.2031 103.3906 136.1875 Q103.3906 136.9688 102.8906 137.5 Q102.3906 138.0312 101.4844 138.2188 Q102.5625 138.375 103.1562 139.0078 Q103.75 139.6406 103.75 140.6406 Q103.75 141.8594 102.9219 142.5156 Q102.0938 143.1719 100.5469 143.1719 Q99.8594 143.1719 99.2109 143.0234 Q98.5625 142.875 97.9219 142.5781 L97.9219 140.875 L98.5781 140.875 Q98.625 141.7188 99.1406 142.1562 Q99.6562 142.5938 100.5781 142.5938 Q101.4688 142.5938 101.9922 142.0703 Q102.5156 141.5469 102.5156 140.6562 Q102.5156 139.625 101.9766 139.0938 Q101.4375 138.5625 100.4062 138.5625 L99.8594 138.5625 L99.8594 137.9531 L100.1406 137.9531 Q101.1719 137.9531 101.6875 137.5312 Q102.2031 137.1094 102.2031 136.25 Q102.2031 135.4844 101.7812 135.0781 Q101.3594 134.6719 100.5625 134.6719 Q99.7656 134.6719 99.3359 135.0469 Q98.9062 135.4219 98.8281 136.1562 L98.1719 136.1562 L98.1719 134.625 Z" style="fill:black; stroke:none;" /><rect height="8" style="stroke:none;" width="8" x="97" y="148" /><path d="M102.1875 154.4688 L101.9531 155.1094 Q101.7656 155.625 101.2031 155.9375 Q100.8438 156.1562 100.2031 156.1406 Q99.0469 156.1406 98.3281 155.2344 Q97.5938 154.3281 97.5938 152.8594 Q97.5938 151.4219 98.3281 150.4844 Q99.0156 149.5938 100.4531 149.6094 Q101.4531 149.6094 101.9531 150 Q102.4062 150.3438 102.5781 151.0938 L102.625 151.3125 L102.8438 150.6719 Q103.0625 150.0469 103.6562 149.75 L104.25 149.75 L104.25 150.0938 Q103.6875 150.2656 103.5 150.8125 L102.8906 152.4844 L103.2969 154.2812 Q103.5 155.2031 103.7344 155.2969 Q104.0469 155.4375 104.7812 155 L104.7812 155.7188 Q103.5938 156.4062 102.75 155.6875 Q102.375 155.3594 102.2656 154.875 L102.1875 154.4688 ZM101.9219 153.3125 L101.5625 151.5938 Q101.2656 150.2188 100.4688 150.2188 Q99.7969 150.2031 99.2812 150.9375 Q98.8594 151.5156 98.8594 152.875 Q98.8594 154.1719 99.2812 154.8281 Q99.75 155.5469 100.5312 155.5 Q101.2031 155.4375 101.6875 154 L101.9219 153.3125 Z" style="fill:black; stroke:none;" /></g><g ID="li-1:10,12" style="fill:white; text-rendering:optimizeSpeed; font-family:'Serif'; stroke:white;"><rect height="9" style="stroke:none;" width="8" x="70" y="122" /><path d="M74.1875 128.0312 L74.1875 123.375 L71.2031 128.0312 L74.1875 128.0312 ZM76.7656 131 L72.7812 131 L72.7812 130.375 L74.1875 130.375 L74.1875 128.6562 L70.375 128.6562 L70.375 128.0156 L74.2031 122.0938 L75.3594 122.0938 L75.3594 128.0312 L77.0312 128.0312 L77.0312 128.6562 L75.3594 128.6562 L75.3594 130.375 L76.7656 130.375 L76.7656 131 Z" style="fill:black; stroke:none;" /><rect height="13" style="stroke:none;" width="7" x="56" y="120" /><path d="M57.8281 132.25 Q58.2969 132.5938 59.1719 132.5938 Q60.0625 132.5938 60.5781 132.0703 Q61.0938 131.5469 61.0938 130.6562 Q61.0938 129.4219 60.5625 128.8906 Q60.0156 128.3594 59 128.3594 L58.4375 128.3594 L58.4375 127.7188 L58.7344 127.7188 Q59.4844 127.7188 60 127.2969 Q60.4219 126.9531 60.4219 126.0156 Q60.4219 125.6094 60.1406 125.1406 Q59.6875 124.375 59.1562 124.3906 Q57.8281 124.4375 57.8281 126.7812 L57.8281 132.25 ZM56.75 135.5 L56.75 126.7812 Q56.75 124.3281 58.0781 124 Q58.7656 123.8125 59.25 123.8125 Q60.3438 123.8125 61.0469 124.6719 Q61.6094 125.3594 61.6094 125.9375 Q61.6094 126.7812 61.2031 127.2656 Q60.7969 127.75 60.0625 127.9844 Q61.1406 128.1406 61.75 128.7812 Q62.3281 129.4062 62.3281 130.6328 Q62.3281 131.8594 61.5078 132.5156 Q60.6875 133.1719 59.1406 133.1719 Q58.1875 133.1719 57.8281 133.0312 L57.8281 135.5 L56.75 135.5 Z" style="fill:black; stroke:none;" /></g><g ID="li-1:9,10" style="fill:white; text-rendering:optimizeSpeed; font-family:'Serif'; stroke:white;"><rect height="10" style="stroke:none;" width="7" x="122" y="122" /><path d="M123.1719 123.625 Q123.8594 123.3594 124.4844 123.2266 Q125.1094 123.0938 125.6562 123.0938 Q126.9531 123.0938 127.6719 123.6484 Q128.3906 124.2031 128.3906 125.1875 Q128.3906 125.9688 127.8906 126.5 Q127.3906 127.0312 126.4844 127.2188 Q127.5625 127.375 128.1562 128.0078 Q128.75 128.6406 128.75 129.6406 Q128.75 130.8594 127.9219 131.5156 Q127.0938 132.1719 125.5469 132.1719 Q124.8594 132.1719 124.2109 132.0234 Q123.5625 131.875 122.9219 131.5781 L122.9219 129.875 L123.5781 129.875 Q123.625 130.7188 124.1406 131.1562 Q124.6562 131.5938 125.5781 131.5938 Q126.4688 131.5938 126.9922 131.0703 Q127.5156 130.5469 127.5156 129.6562 Q127.5156 128.625 126.9766 128.0938 Q126.4375 127.5625 125.4062 127.5625 L124.8594 127.5625 L124.8594 126.9531 L125.1406 126.9531 Q126.1719 126.9531 126.6875 126.5312 Q127.2031 126.1094 127.2031 125.25 Q127.2031 124.4844 126.7812 124.0781 Q126.3594 123.6719 125.5625 123.6719 Q124.7656 123.6719 124.3359 124.0469 Q123.9062 124.4219 123.8281 125.1562 L123.1719 125.1562 L123.1719 123.625 Z" style="fill:black; stroke:none;" /><rect height="13" style="stroke:none;" width="7" x="108" y="120" /><path d="M109.8281 132.25 Q110.2969 132.5938 111.1719 132.5938 Q112.0625 132.5938 112.5781 132.0703 Q113.0938 131.5469 113.0938 130.6562 Q113.0938 129.4219 112.5625 128.8906 Q112.0156 128.3594 111 128.3594 L110.4375 128.3594 L110.4375 127.7188 L110.7344 127.7188 Q111.4844 127.7188 112 127.2969 Q112.4219 126.9531 112.4219 126.0156 Q112.4219 125.6094 112.1406 125.1406 Q111.6875 124.375 111.1562 124.3906 Q109.8281 124.4375 109.8281 126.7812 L109.8281 132.25 ZM108.75 135.5 L108.75 126.7812 Q108.75 124.3281 110.0781 124 Q110.7656 123.8125 111.25 123.8125 Q112.3438 123.8125 113.0469 124.6719 Q113.6094 125.3594 113.6094 125.9375 Q113.6094 126.7812 113.2031 127.2656 Q112.7969 127.75 112.0625 127.9844 Q113.1406 128.1406 113.75 128.7812 Q114.3281 129.4062 114.3281 130.6328 Q114.3281 131.8594 113.5078 132.5156 Q112.6875 133.1719 111.1406 133.1719 Q110.1875 133.1719 109.8281 133.0312 L109.8281 135.5 L108.75 135.5 Z" style="fill:black; stroke:none;" /></g><g ID="li-1:7,8" style="fill:white; text-rendering:optimizeSpeed; font-family:'Serif'; stroke:white;"><rect height="10" style="stroke:none;" width="7" x="201" y="133" /><path d="M202.1719 134.625 Q202.8594 134.3594 203.4844 134.2266 Q204.1094 134.0938 204.6562 134.0938 Q205.9531 134.0938 206.6719 134.6484 Q207.3906 135.2031 207.3906 136.1875 Q207.3906 136.9688 206.8906 137.5 Q206.3906 138.0312 205.4844 138.2188 Q206.5625 138.375 207.1562 139.0078 Q207.75 139.6406 207.75 140.6406 Q207.75 141.8594 206.9219 142.5156 Q206.0938 143.1719 204.5469 143.1719 Q203.8594 143.1719 203.2109 143.0234 Q202.5625 142.875 201.9219 142.5781 L201.9219 140.875 L202.5781 140.875 Q202.625 141.7188 203.1406 142.1562 Q203.6562 142.5938 204.5781 142.5938 Q205.4688 142.5938 205.9922 142.0703 Q206.5156 141.5469 206.5156 140.6562 Q206.5156 139.625 205.9766 139.0938 Q205.4375 138.5625 204.4062 138.5625 L203.8594 138.5625 L203.8594 137.9531 L204.1406 137.9531 Q205.1719 137.9531 205.6875 137.5312 Q206.2031 137.1094 206.2031 136.25 Q206.2031 135.4844 205.7812 135.0781 Q205.3594 134.6719 204.5625 134.6719 Q203.7656 134.6719 203.3359 135.0469 Q202.9062 135.4219 202.8281 136.1562 L202.1719 136.1562 L202.1719 134.625 Z" style="fill:black; stroke:none;" /><rect height="8" style="stroke:none;" width="8" x="201" y="148" /><path d="M206.1875 154.4688 L205.9531 155.1094 Q205.7656 155.625 205.2031 155.9375 Q204.8438 156.1562 204.2031 156.1406 Q203.0469 156.1406 202.3281 155.2344 Q201.5938 154.3281 201.5938 152.8594 Q201.5938 151.4219 202.3281 150.4844 Q203.0156 149.5938 204.4531 149.6094 Q205.4531 149.6094 205.9531 150 Q206.4062 150.3438 206.5781 151.0938 L206.625 151.3125 L206.8438 150.6719 Q207.0625 150.0469 207.6562 149.75 L208.25 149.75 L208.25 150.0938 Q207.6875 150.2656 207.5 150.8125 L206.8906 152.4844 L207.2969 154.2812 Q207.5 155.2031 207.7344 155.2969 Q208.0469 155.4375 208.7812 155 L208.7812 155.7188 Q207.5938 156.4062 206.75 155.6875 Q206.375 155.3594 206.2656 154.875 L206.1875 154.4688 ZM205.9219 153.3125 L205.5625 151.5938 Q205.2656 150.2188 204.4688 150.2188 Q203.7969 150.2031 203.2812 150.9375 Q202.8594 151.5156 202.8594 152.875 Q202.8594 154.1719 203.2812 154.8281 Q203.75 155.5469 204.5312 155.5 Q205.2031 155.4375 205.6875 154 L205.9219 153.3125 Z" style="fill:black; stroke:none;" /></g><g ID="li-1:7,9" style="fill:white; text-rendering:optimizeSpeed; font-family:'Serif'; stroke:white;"><rect height="9" style="stroke:none;" width="8" x="174" y="122" /><path d="M178.1875 128.0312 L178.1875 123.375 L175.2031 128.0312 L178.1875 128.0312 ZM180.7656 131 L176.7812 131 L176.7812 130.375 L178.1875 130.375 L178.1875 128.6562 L174.375 128.6562 L174.375 128.0156 L178.2031 122.0938 L179.3594 122.0938 L179.3594 128.0312 L181.0312 128.0312 L181.0312 128.6562 L179.3594 128.6562 L179.3594 130.375 L180.7656 130.375 L180.7656 131 Z" style="fill:black; stroke:none;" /><rect height="13" style="stroke:none;" width="7" x="160" y="120" /><path d="M161.8281 132.25 Q162.2969 132.5938 163.1719 132.5938 Q164.0625 132.5938 164.5781 132.0703 Q165.0938 131.5469 165.0938 130.6562 Q165.0938 129.4219 164.5625 128.8906 Q164.0156 128.3594 163 128.3594 L162.4375 128.3594 L162.4375 127.7188 L162.7344 127.7188 Q163.4844 127.7188 164 127.2969 Q164.4219 126.9531 164.4219 126.0156 Q164.4219 125.6094 164.1406 125.1406 Q163.6875 124.375 163.1562 124.3906 Q161.8281 124.4375 161.8281 126.7812 L161.8281 132.25 ZM160.75 135.5 L160.75 126.7812 Q160.75 124.3281 162.0781 124 Q162.7656 123.8125 163.25 123.8125 Q164.3438 123.8125 165.0469 124.6719 Q165.6094 125.3594 165.6094 125.9375 Q165.6094 126.7812 165.2031 127.2656 Q164.7969 127.75 164.0625 127.9844 Q165.1406 128.1406 165.75 128.7812 Q166.3281 129.4062 166.3281 130.6328 Q166.3281 131.8594 165.5078 132.5156 Q164.6875 133.1719 163.1406 133.1719 Q162.1875 133.1719 161.8281 133.0312 L161.8281 135.5 L160.75 135.5 Z" style="fill:black; stroke:none;" /></g><g ID="li-1:5,7" style="fill:white; text-rendering:optimizeSpeed; font-family:'Serif'; stroke:white;"><rect height="9" style="stroke:none;" width="7" x="226" y="122" /><path d="M227.5312 124.3438 L226.875 124.3438 L226.875 122.7812 Q227.5 122.4375 228.1406 122.2656 Q228.7812 122.0938 229.3906 122.0938 Q230.75 122.0938 231.5391 122.7578 Q232.3281 123.4219 232.3281 124.5469 Q232.3281 125.8438 230.5469 127.625 Q230.4062 127.7656 230.3281 127.8281 L228.125 130.0312 L231.7656 130.0312 L231.7656 128.9531 L232.4531 128.9531 L232.4531 131 L226.8125 131 L226.8125 130.3594 L229.4688 127.7188 Q230.3438 126.8281 230.7188 126.0938 Q231.0938 125.3594 231.0938 124.5469 Q231.0938 123.6719 230.6328 123.1719 Q230.1719 122.6719 229.375 122.6719 Q228.5312 122.6719 228.0781 123.0859 Q227.625 123.5 227.5312 124.3438 Z" style="fill:black; stroke:none;" /><rect height="13" style="stroke:none;" width="7" x="212" y="120" /><path d="M213.8281 132.25 Q214.2969 132.5938 215.1719 132.5938 Q216.0625 132.5938 216.5781 132.0703 Q217.0938 131.5469 217.0938 130.6562 Q217.0938 129.4219 216.5625 128.8906 Q216.0156 128.3594 215 128.3594 L214.4375 128.3594 L214.4375 127.7188 L214.7344 127.7188 Q215.4844 127.7188 216 127.2969 Q216.4219 126.9531 216.4219 126.0156 Q216.4219 125.6094 216.1406 125.1406 Q215.6875 124.375 215.1562 124.3906 Q213.8281 124.4375 213.8281 126.7812 L213.8281 132.25 ZM212.75 135.5 L212.75 126.7812 Q212.75 124.3281 214.0781 124 Q214.7656 123.8125 215.25 123.8125 Q216.3438 123.8125 217.0469 124.6719 Q217.6094 125.3594 217.6094 125.9375 Q217.6094 126.7812 217.2031 127.2656 Q216.7969 127.75 216.0625 127.9844 Q217.1406 128.1406 217.75 128.7812 Q218.3281 129.4062 218.3281 130.6328 Q218.3281 131.8594 217.5078 132.5156 Q216.6875 133.1719 215.1406 133.1719 Q214.1875 133.1719 213.8281 133.0312 L213.8281 135.5 L212.75 135.5 Z" style="fill:black; stroke:none;" /></g><g ID="l-1:6,13" style="text-rendering:optimizeSpeed;"><polygon points=" 249 67 197 67" style="fill:none;" /></g><g ID="r-1:6" style="fill:white; text-rendering:optimizeSpeed; stroke:white;" wurcs_mono_id="11"><circle cx="249" cy="67" r="11" style="clip-path:url(#clipPath11); stroke:none;" /><rect height="22" style="clip-path:url(#clipPath11); fill:rgb(0,166,81); stroke:none;" width="22" x="238" y="56" /><rect height="22" style="clip-path:url(#clipPath11); fill:none; stroke:black;" width="22" x="238" y="56" /><circle cx="249" cy="67" r="11" style="fill:none; stroke:black;" /></g><g ID="l-1:13,14" style="text-rendering:optimizeSpeed;"><polygon points=" 197 67 145 67" style="fill:none;" /></g><g ID="r-1:13" style="fill:white; text-rendering:optimizeSpeed; stroke:white;" wurcs_mono_id="12"><rect height="22" style="clip-path:url(#clipPath12); stroke:none;" width="22" x="186" y="56" /><rect height="22" style="clip-path:url(#clipPath12); fill:rgb(0,144,188); stroke:none;" width="22" x="186" y="56" /><rect height="22" style="clip-path:url(#clipPath12); fill:none; stroke:black;" width="22" x="186" y="56" /><rect height="22" style="fill:none; stroke:black;" width="22" x="186" y="56" /></g><g ID="l-1:14,15" style="text-rendering:optimizeSpeed;"><polygon points=" 145 67 93 67" style="fill:none;" /></g><g ID="r-1:14" style="fill:white; text-rendering:optimizeSpeed; stroke:white;" wurcs_mono_id="13"><circle cx="145" cy="67" r="11" style="clip-path:url(#clipPath13); stroke:none;" /><rect height="22" style="clip-path:url(#clipPath13); fill:rgb(255,212,0); stroke:none;" width="22" x="134" y="56" /><rect height="22" style="clip-path:url(#clipPath13); fill:none; stroke:black;" width="22" x="134" y="56" /><circle cx="145" cy="67" r="11" style="fill:none; stroke:black;" /></g><g ID="r-1:15" style="fill:white; text-rendering:optimizeSpeed; stroke:white;" wurcs_mono_id="14"><polygon points=" 93 56 104 67 93 78 82 67" style="stroke:none; clip-path:url(#clipPath14);" /><rect height="22" style="clip-path:url(#clipPath14); fill:rgb(165,67,153); stroke:none;" width="22" x="82" y="56" /><rect height="22" style="clip-path:url(#clipPath14); fill:none; stroke:black;" width="22" x="82" y="56" /><polygon points=" 93 56 104 67 93 78 82 67" style="fill:none; stroke:black;" /></g><g ID="li-1:14,15" style="fill:white; text-rendering:optimizeSpeed; font-family:'Serif'; stroke:white;"><rect height="10" style="stroke:none;" width="7" x="122" y="70" /><path d="M125.9219 79.5938 Q126.75 79.5938 127.1953 78.9844 Q127.6406 78.375 127.6406 77.2344 Q127.6406 76.1094 127.1953 75.5 Q126.75 74.8906 125.9219 74.8906 Q125.0938 74.8906 124.6484 75.4766 Q124.2031 76.0625 124.2031 77.1719 Q124.2031 78.3281 124.6484 78.9609 Q125.0938 79.5938 125.9219 79.5938 ZM124.0156 75.1875 Q124.4219 74.75 124.9219 74.5312 Q125.4219 74.3125 126.0625 74.3125 Q127.3594 74.3125 128.1172 75.0938 Q128.875 75.875 128.875 77.2344 Q128.875 78.5625 128.0625 79.3672 Q127.25 80.1719 125.875 80.1719 Q124.3906 80.1719 123.5938 79.0625 Q122.7969 77.9531 122.7969 75.9062 Q122.7969 73.6094 123.7422 72.3516 Q124.6875 71.0938 126.4062 71.0938 Q126.875 71.0938 127.3828 71.1797 Q127.8906 71.2656 128.4219 71.4375 L128.4219 72.8906 L127.7656 72.8906 Q127.6875 72.2969 127.3047 71.9844 Q126.9219 71.6719 126.2812 71.6719 Q125.1406 71.6719 124.5859 72.5312 Q124.0312 73.3906 124.0156 75.1875 Z" style="fill:black; stroke:none;" /><rect height="8" style="stroke:none;" width="8" x="108" y="71" /><path d="M113.1875 77.4688 L112.9531 78.1094 Q112.7656 78.625 112.2031 78.9375 Q111.8438 79.1562 111.2031 79.1406 Q110.0469 79.1406 109.3281 78.2344 Q108.5938 77.3281 108.5938 75.8594 Q108.5938 74.4219 109.3281 73.4844 Q110.0156 72.5938 111.4531 72.6094 Q112.4531 72.6094 112.9531 73 Q113.4062 73.3438 113.5781 74.0938 L113.625 74.3125 L113.8438 73.6719 Q114.0625 73.0469 114.6562 72.75 L115.25 72.75 L115.25 73.0938 Q114.6875 73.2656 114.5 73.8125 L113.8906 75.4844 L114.2969 77.2812 Q114.5 78.2031 114.7344 78.2969 Q115.0469 78.4375 115.7812 78 L115.7812 78.7188 Q114.5938 79.4062 113.75 78.6875 Q113.375 78.3594 113.2656 77.875 L113.1875 77.4688 ZM112.9219 76.3125 L112.5625 74.5938 Q112.2656 73.2188 111.4688 73.2188 Q110.7969 73.2031 110.2812 73.9375 Q109.8594 74.5156 109.8594 75.875 Q109.8594 77.1719 110.2812 77.8281 Q110.75 78.5469 111.5312 78.5 Q112.2031 78.4375 112.6875 77 L112.9219 76.3125 Z" style="fill:black; stroke:none;" /></g><g ID="li-1:13,14" style="fill:white; text-rendering:optimizeSpeed; font-family:'Serif'; stroke:white;"><rect height="9" style="stroke:none;" width="8" x="174" y="70" /><path d="M178.1875 76.0312 L178.1875 71.375 L175.2031 76.0312 L178.1875 76.0312 ZM180.7656 79 L176.7812 79 L176.7812 78.375 L178.1875 78.375 L178.1875 76.6562 L174.375 76.6562 L174.375 76.0156 L178.2031 70.0938 L179.3594 70.0938 L179.3594 76.0312 L181.0312 76.0312 L181.0312 76.6562 L179.3594 76.6562 L179.3594 78.375 L180.7656 78.375 L180.7656 79 Z" style="fill:black; stroke:none;" /><rect height="13" style="stroke:none;" width="7" x="160" y="68" /><path d="M161.8281 80.25 Q162.2969 80.5938 163.1719 80.5938 Q164.0625 80.5938 164.5781 80.0703 Q165.0938 79.5469 165.0938 78.6562 Q165.0938 77.4219 164.5625 76.8906 Q164.0156 76.3594 163 76.3594 L162.4375 76.3594 L162.4375 75.7188 L162.7344 75.7188 Q163.4844 75.7188 164 75.2969 Q164.4219 74.9531 164.4219 74.0156 Q164.4219 73.6094 164.1406 73.1406 Q163.6875 72.375 163.1562 72.3906 Q161.8281 72.4375 161.8281 74.7812 L161.8281 80.25 ZM160.75 83.5 L160.75 74.7812 Q160.75 72.3281 162.0781 72 Q162.7656 71.8125 163.25 71.8125 Q164.3438 71.8125 165.0469 72.6719 Q165.6094 73.3594 165.6094 73.9375 Q165.6094 74.7812 165.2031 75.2656 Q164.7969 75.75 164.0625 75.9844 Q165.1406 76.1406 165.75 76.7812 Q166.3281 77.4062 166.3281 78.6328 Q166.3281 79.8594 165.5078 80.5156 Q164.6875 81.1719 163.1406 81.1719 Q162.1875 81.1719 161.8281 81.0312 L161.8281 83.5 L160.75 83.5 Z" style="fill:black; stroke:none;" /></g><g ID="li-1:6,13" style="fill:white; text-rendering:optimizeSpeed; font-family:'Serif'; stroke:white;"><rect height="9" style="stroke:none;" width="7" x="226" y="70" /><path d="M227.5312 72.3438 L226.875 72.3438 L226.875 70.7812 Q227.5 70.4375 228.1406 70.2656 Q228.7812 70.0938 229.3906 70.0938 Q230.75 70.0938 231.5391 70.7578 Q232.3281 71.4219 232.3281 72.5469 Q232.3281 73.8438 230.5469 75.625 Q230.4062 75.7656 230.3281 75.8281 L228.125 78.0312 L231.7656 78.0312 L231.7656 76.9531 L232.4531 76.9531 L232.4531 79 L226.8125 79 L226.8125 78.3594 L229.4688 75.7188 Q230.3438 74.8281 230.7188 74.0938 Q231.0938 73.3594 231.0938 72.5469 Q231.0938 71.6719 230.6328 71.1719 Q230.1719 70.6719 229.375 70.6719 Q228.5312 70.6719 228.0781 71.0859 Q227.625 71.5 227.5312 72.3438 Z" style="fill:black; stroke:none;" /><rect height="13" style="stroke:none;" width="7" x="212" y="68" /><path d="M213.8281 80.25 Q214.2969 80.5938 215.1719 80.5938 Q216.0625 80.5938 216.5781 80.0703 Q217.0938 79.5469 217.0938 78.6562 Q217.0938 77.4219 216.5625 76.8906 Q216.0156 76.3594 215 76.3594 L214.4375 76.3594 L214.4375 75.7188 L214.7344 75.7188 Q215.4844 75.7188 216 75.2969 Q216.4219 74.9531 216.4219 74.0156 Q216.4219 73.6094 216.1406 73.1406 Q215.6875 72.375 215.1562 72.3906 Q213.8281 72.4375 213.8281 74.7812 L213.8281 80.25 ZM212.75 83.5 L212.75 74.7812 Q212.75 72.3281 214.0781 72 Q214.7656 71.8125 215.25 71.8125 Q216.3438 71.8125 217.0469 72.6719 Q217.6094 73.3594 217.6094 73.9375 Q217.6094 74.7812 217.2031 75.2656 Q216.7969 75.75 216.0625 75.9844 Q217.1406 76.1406 217.75 76.7812 Q218.3281 77.4062 218.3281 78.6328 Q218.3281 79.8594 217.5078 80.5156 Q216.6875 81.1719 215.1406 81.1719 Q214.1875 81.1719 213.8281 81.0312 L213.8281 83.5 L212.75 83.5 Z" style="fill:black; stroke:none;" /></g><g ID="li-1:4,5" style="fill:white; text-rendering:optimizeSpeed; font-family:'Serif'; stroke:white;"><rect height="11" style="stroke:none;" width="19" x="276" y="103" /><path d="M277.1719 105.625 Q277.8594 105.3594 278.4844 105.2266 Q279.1094 105.0938 279.6562 105.0938 Q280.9531 105.0938 281.6719 105.6484 Q282.3906 106.2031 282.3906 107.1875 Q282.3906 107.9688 281.8906 108.5 Q281.3906 109.0312 280.4844 109.2188 Q281.5625 109.375 282.1562 110.0078 Q282.75 110.6406 282.75 111.6406 Q282.75 112.8594 281.9219 113.5156 Q281.0938 114.1719 279.5469 114.1719 Q278.8594 114.1719 278.2109 114.0234 Q277.5625 113.875 276.9219 113.5781 L276.9219 111.875 L277.5781 111.875 Q277.625 112.7188 278.1406 113.1562 Q278.6562 113.5938 279.5781 113.5938 Q280.4688 113.5938 280.9922 113.0703 Q281.5156 112.5469 281.5156 111.6562 Q281.5156 110.625 280.9766 110.0938 Q280.4375 109.5625 279.4062 109.5625 L278.8594 109.5625 L278.8594 108.9531 L279.1406 108.9531 Q280.1719 108.9531 280.6875 108.5312 Q281.2031 108.1094 281.2031 107.25 Q281.2031 106.4844 280.7812 106.0781 Q280.3594 105.6719 279.5625 105.6719 Q278.7656 105.6719 278.3359 106.0469 Q277.9062 106.4219 277.8281 107.1562 L277.1719 107.1562 L277.1719 105.625 ZM286.7441 105.25 L287.6816 105.25 L284.5723 115.1094 L283.6348 115.1094 L286.7441 105.25 ZM291.5996 113.5938 Q292.4277 113.5938 292.873 112.9844 Q293.3184 112.375 293.3184 111.2344 Q293.3184 110.1094 292.873 109.5 Q292.4277 108.8906 291.5996 108.8906 Q290.7715 108.8906 290.3262 109.4766 Q289.8809 110.0625 289.8809 111.1719 Q289.8809 112.3281 290.3262 112.9609 Q290.7715 113.5938 291.5996 113.5938 ZM289.6934 109.1875 Q290.0996 108.75 290.5996 108.5312 Q291.0996 108.3125 291.7402 108.3125 Q293.0371 108.3125 293.7949 109.0938 Q294.5527 109.875 294.5527 111.2344 Q294.5527 112.5625 293.7402 113.3672 Q292.9277 114.1719 291.5527 114.1719 Q290.0684 114.1719 289.2715 113.0625 Q288.4746 111.9531 288.4746 109.9062 Q288.4746 107.6094 289.4199 106.3516 Q290.3652 105.0938 292.084 105.0938 Q292.5527 105.0938 293.0605 105.1797 Q293.5684 105.2656 294.0996 105.4375 L294.0996 106.8906 L293.4434 106.8906 Q293.3652 106.2969 292.9824 105.9844 Q292.5996 105.6719 291.959 105.6719 Q290.8184 105.6719 290.2637 106.5312 Q289.709 107.3906 289.6934 109.1875 Z" style="fill:black; stroke:none;" /><rect height="8" style="stroke:none;" width="8" x="266" y="113" /><path d="M271.1875 119.4688 L270.9531 120.1094 Q270.7656 120.625 270.2031 120.9375 Q269.8438 121.1562 269.2031 121.1406 Q268.0469 121.1406 267.3281 120.2344 Q266.5938 119.3281 266.5938 117.8594 Q266.5938 116.4219 267.3281 115.4844 Q268.0156 114.5938 269.4531 114.6094 Q270.4531 114.6094 270.9531 115 Q271.4062 115.3438 271.5781 116.0938 L271.625 116.3125 L271.8438 115.6719 Q272.0625 115.0469 272.6562 114.75 L273.25 114.75 L273.25 115.0938 Q272.6875 115.2656 272.5 115.8125 L271.8906 117.4844 L272.2969 119.2812 Q272.5 120.2031 272.7344 120.2969 Q273.0469 120.4375 273.7812 120 L273.7812 120.7188 Q272.5938 121.4062 271.75 120.6875 Q271.375 120.3594 271.2656 119.875 L271.1875 119.4688 ZM270.9219 118.3125 L270.5625 116.5938 Q270.2656 115.2188 269.4688 115.2188 Q268.7969 115.2031 268.2812 115.9375 Q267.8594 116.5156 267.8594 117.875 Q267.8594 119.1719 268.2812 119.8281 Q268.75 120.5469 269.5312 120.5 Q270.2031 120.4375 270.6875 119 L270.9219 118.3125 Z" style="fill:black; stroke:none;" /></g><g ID="li-1:4,6" style="fill:white; text-rendering:optimizeSpeed; font-family:'Serif'; stroke:white;"><rect height="11" style="stroke:none;" width="19" x="269" y="85" /><path d="M270.1719 87.625 Q270.8594 87.3594 271.4844 87.2266 Q272.1094 87.0938 272.6562 87.0938 Q273.9531 87.0938 274.6719 87.6484 Q275.3906 88.2031 275.3906 89.1875 Q275.3906 89.9688 274.8906 90.5 Q274.3906 91.0312 273.4844 91.2188 Q274.5625 91.375 275.1562 92.0078 Q275.75 92.6406 275.75 93.6406 Q275.75 94.8594 274.9219 95.5156 Q274.0938 96.1719 272.5469 96.1719 Q271.8594 96.1719 271.2109 96.0234 Q270.5625 95.875 269.9219 95.5781 L269.9219 93.875 L270.5781 93.875 Q270.625 94.7188 271.1406 95.1562 Q271.6562 95.5938 272.5781 95.5938 Q273.4688 95.5938 273.9922 95.0703 Q274.5156 94.5469 274.5156 93.6562 Q274.5156 92.625 273.9766 92.0938 Q273.4375 91.5625 272.4062 91.5625 L271.8594 91.5625 L271.8594 90.9531 L272.1406 90.9531 Q273.1719 90.9531 273.6875 90.5312 Q274.2031 90.1094 274.2031 89.25 Q274.2031 88.4844 273.7812 88.0781 Q273.3594 87.6719 272.5625 87.6719 Q271.7656 87.6719 271.3359 88.0469 Q270.9062 88.4219 270.8281 89.1562 L270.1719 89.1562 L270.1719 87.625 ZM279.7441 87.25 L280.6816 87.25 L277.5723 97.1094 L276.6348 97.1094 L279.7441 87.25 ZM284.5996 95.5938 Q285.4277 95.5938 285.873 94.9844 Q286.3184 94.375 286.3184 93.2344 Q286.3184 92.1094 285.873 91.5 Q285.4277 90.8906 284.5996 90.8906 Q283.7715 90.8906 283.3262 91.4766 Q282.8809 92.0625 282.8809 93.1719 Q282.8809 94.3281 283.3262 94.9609 Q283.7715 95.5938 284.5996 95.5938 ZM282.6934 91.1875 Q283.0996 90.75 283.5996 90.5312 Q284.0996 90.3125 284.7402 90.3125 Q286.0371 90.3125 286.7949 91.0938 Q287.5527 91.875 287.5527 93.2344 Q287.5527 94.5625 286.7402 95.3672 Q285.9277 96.1719 284.5527 96.1719 Q283.0684 96.1719 282.2715 95.0625 Q281.4746 93.9531 281.4746 91.9062 Q281.4746 89.6094 282.4199 88.3516 Q283.3652 87.0938 285.084 87.0938 Q285.5527 87.0938 286.0605 87.1797 Q286.5684 87.2656 287.0996 87.4375 L287.0996 88.8906 L286.4434 88.8906 Q286.3652 88.2969 285.9824 87.9844 Q285.5996 87.6719 284.959 87.6719 Q283.8184 87.6719 283.2637 88.5312 Q282.709 89.3906 282.6934 91.1875 Z" style="fill:black; stroke:none;" /><rect height="8" style="stroke:none;" width="8" x="259" y="79" /><path d="M264.1875 85.4688 L263.9531 86.1094 Q263.7656 86.625 263.2031 86.9375 Q262.8438 87.1562 262.2031 87.1406 Q261.0469 87.1406 260.3281 86.2344 Q259.5938 85.3281 259.5938 83.8594 Q259.5938 82.4219 260.3281 81.4844 Q261.0156 80.5938 262.4531 80.6094 Q263.4531 80.6094 263.9531 81 Q264.4062 81.3438 264.5781 82.0938 L264.625 82.3125 L264.8438 81.6719 Q265.0625 81.0469 265.6562 80.75 L266.25 80.75 L266.25 81.0938 Q265.6875 81.2656 265.5 81.8125 L264.8906 83.4844 L265.2969 85.2812 Q265.5 86.2031 265.7344 86.2969 Q266.0469 86.4375 266.7812 86 L266.7812 86.7188 Q265.5938 87.4062 264.75 86.6875 Q264.375 86.3594 264.2656 85.875 L264.1875 85.4688 ZM263.9219 84.3125 L263.5625 82.5938 Q263.2656 81.2188 262.4688 81.2188 Q261.7969 81.2031 261.2812 81.9375 Q260.8594 82.5156 260.8594 83.875 Q260.8594 85.1719 261.2812 85.8281 Q261.75 86.5469 262.5312 86.5 Q263.2031 86.4375 263.6875 85 L263.9219 84.3125 Z" style="fill:black; stroke:none;" /></g><g ID="li-1:2,4" style="fill:white; text-rendering:optimizeSpeed; font-family:'Serif'; stroke:white;"><rect height="9" style="stroke:none;" width="8" x="330" y="96" /><path d="M334.1875 102.0312 L334.1875 97.375 L331.2031 102.0312 L334.1875 102.0312 ZM336.7656 105 L332.7812 105 L332.7812 104.375 L334.1875 104.375 L334.1875 102.6562 L330.375 102.6562 L330.375 102.0156 L334.2031 96.0938 L335.3594 96.0938 L335.3594 102.0312 L337.0312 102.0312 L337.0312 102.6562 L335.3594 102.6562 L335.3594 104.375 L336.7656 104.375 L336.7656 105 Z" style="fill:black; stroke:none;" /><rect height="13" style="stroke:none;" width="7" x="316" y="94" /><path d="M317.8281 106.25 Q318.2969 106.5938 319.1719 106.5938 Q320.0625 106.5938 320.5781 106.0703 Q321.0938 105.5469 321.0938 104.6562 Q321.0938 103.4219 320.5625 102.8906 Q320.0156 102.3594 319 102.3594 L318.4375 102.3594 L318.4375 101.7188 L318.7344 101.7188 Q319.4844 101.7188 320 101.2969 Q320.4219 100.9531 320.4219 100.0156 Q320.4219 99.6094 320.1406 99.1406 Q319.6875 98.375 319.1562 98.3906 Q317.8281 98.4375 317.8281 100.7812 L317.8281 106.25 ZM316.75 109.5 L316.75 100.7812 Q316.75 98.3281 318.0781 98 Q318.7656 97.8125 319.25 97.8125 Q320.3438 97.8125 321.0469 98.6719 Q321.6094 99.3594 321.6094 99.9375 Q321.6094 100.7812 321.2031 101.2656 Q320.7969 101.75 320.0625 101.9844 Q321.1406 102.1406 321.75 102.7812 Q322.3281 103.4062 322.3281 104.6328 Q322.3281 105.8594 321.5078 106.5156 Q320.6875 107.1719 319.1406 107.1719 Q318.1875 107.1719 317.8281 107.0312 L317.8281 109.5 L316.75 109.5 Z" style="fill:black; stroke:none;" /></g><g ID="r-1:3" style="fill:white; text-rendering:optimizeSpeed; stroke:white;" wurcs_mono_id="15"><polygon points=" 405 52 394 30 416 30" style="stroke:none; clip-path:url(#clipPath15);" /><rect height="22" style="clip-path:url(#clipPath15); fill:rgb(237,28,36); stroke:none;" width="22" x="394" y="30" /><rect height="22" style="clip-path:url(#clipPath15); fill:none; stroke:black;" width="22" x="394" y="30" /><polygon points=" 405 52 394 30 416 30" style="fill:none; stroke:black;" /></g><g ID="li-1:1,2" style="fill:white; text-rendering:optimizeSpeed; font-family:'Serif'; stroke:white;"><rect height="9" style="stroke:none;" width="8" x="382" y="96" /><path d="M386.1875 102.0312 L386.1875 97.375 L383.2031 102.0312 L386.1875 102.0312 ZM388.7656 105 L384.7812 105 L384.7812 104.375 L386.1875 104.375 L386.1875 102.6562 L382.375 102.6562 L382.375 102.0156 L386.2031 96.0938 L387.3594 96.0938 L387.3594 102.0312 L389.0312 102.0312 L389.0312 102.6562 L387.3594 102.6562 L387.3594 104.375 L388.7656 104.375 L388.7656 105 Z" style="fill:black; stroke:none;" /><rect height="13" style="stroke:none;" width="7" x="368" y="94" /><path d="M369.8281 106.25 Q370.2969 106.5938 371.1719 106.5938 Q372.0625 106.5938 372.5781 106.0703 Q373.0938 105.5469 373.0938 104.6562 Q373.0938 103.4219 372.5625 102.8906 Q372.0156 102.3594 371 102.3594 L370.4375 102.3594 L370.4375 101.7188 L370.7344 101.7188 Q371.4844 101.7188 372 101.2969 Q372.4219 100.9531 372.4219 100.0156 Q372.4219 99.6094 372.1406 99.1406 Q371.6875 98.375 371.1562 98.3906 Q369.8281 98.4375 369.8281 100.7812 L369.8281 106.25 ZM368.75 109.5 L368.75 100.7812 Q368.75 98.3281 370.0781 98 Q370.7656 97.8125 371.25 97.8125 Q372.3438 97.8125 373.0469 98.6719 Q373.6094 99.3594 373.6094 99.9375 Q373.6094 100.7812 373.2031 101.2656 Q372.7969 101.75 372.0625 101.9844 Q373.1406 102.1406 373.75 102.7812 Q374.3281 103.4062 374.3281 104.6328 Q374.3281 105.8594 373.5078 106.5156 Q372.6875 107.1719 371.1406 107.1719 Q370.1875 107.1719 369.8281 107.0312 L369.8281 109.5 L368.75 109.5 Z" style="fill:black; stroke:none;" /></g><g ID="li-1:1,3" style="fill:white; text-rendering:optimizeSpeed; font-family:'Serif'; stroke:white;"><rect height="10" style="stroke:none;" width="7" x="393" y="69" /><path d="M396.9219 78.5938 Q397.75 78.5938 398.1953 77.9844 Q398.6406 77.375 398.6406 76.2344 Q398.6406 75.1094 398.1953 74.5 Q397.75 73.8906 396.9219 73.8906 Q396.0938 73.8906 395.6484 74.4766 Q395.2031 75.0625 395.2031 76.1719 Q395.2031 77.3281 395.6484 77.9609 Q396.0938 78.5938 396.9219 78.5938 ZM395.0156 74.1875 Q395.4219 73.75 395.9219 73.5312 Q396.4219 73.3125 397.0625 73.3125 Q398.3594 73.3125 399.1172 74.0938 Q399.875 74.875 399.875 76.2344 Q399.875 77.5625 399.0625 78.3672 Q398.25 79.1719 396.875 79.1719 Q395.3906 79.1719 394.5938 78.0625 Q393.7969 76.9531 393.7969 74.9062 Q393.7969 72.6094 394.7422 71.3516 Q395.6875 70.0938 397.4062 70.0938 Q397.875 70.0938 398.3828 70.1797 Q398.8906 70.2656 399.4219 70.4375 L399.4219 71.8906 L398.7656 71.8906 Q398.6875 71.2969 398.3047 70.9844 Q397.9219 70.6719 397.2812 70.6719 Q396.1406 70.6719 395.5859 71.5312 Q395.0312 72.3906 395.0156 74.1875 Z" style="fill:black; stroke:none;" /><rect height="8" style="stroke:none;" width="8" x="393" y="56" /><path d="M398.1875 62.4688 L397.9531 63.1094 Q397.7656 63.625 397.2031 63.9375 Q396.8438 64.1562 396.2031 64.1406 Q395.0469 64.1406 394.3281 63.2344 Q393.5938 62.3281 393.5938 60.8594 Q393.5938 59.4219 394.3281 58.4844 Q395.0156 57.5938 396.4531 57.6094 Q397.4531 57.6094 397.9531 58 Q398.4062 58.3438 398.5781 59.0938 L398.625 59.3125 L398.8438 58.6719 Q399.0625 58.0469 399.6562 57.75 L400.25 57.75 L400.25 58.0938 Q399.6875 58.2656 399.5 58.8125 L398.8906 60.4844 L399.2969 62.2812 Q399.5 63.2031 399.7344 63.2969 Q400.0469 63.4375 400.7812 63 L400.7812 63.7188 Q399.5938 64.4062 398.75 63.6875 Q398.375 63.3594 398.2656 62.875 L398.1875 62.4688 ZM397.9219 61.3125 L397.5625 59.5938 Q397.2656 58.2188 396.4688 58.2188 Q395.7969 58.2031 395.2812 58.9375 Q394.8594 59.5156 394.8594 60.875 Q394.8594 62.1719 395.2812 62.8281 Q395.75 63.5469 396.5312 63.5 Q397.2031 63.4375 397.6875 62 L397.9219 61.3125 Z" style="fill:black; stroke:none;" /></g></g></svg>