<svg xmlns="http://www.w3.org/2000/svg" style="fill-opacity:1; color-rendering:auto; color-interpolation:auto; text-rendering:auto; stroke:black; stroke-linecap:square; stroke-miterlimit:10; shape-rendering:auto; stroke-opacity:1; fill:black; stroke-dasharray:none; font-weight:normal; stroke-width:1; font-family:'Dialog'; font-style:normal; stroke-linejoin:miter; font-size:12px; stroke-dashoffset:0; image-rendering:auto;"><defs id="genericDefs" /><g><defs id="defs1"><clipPath clipPathUnits="userSpaceOnUse" id="clipPath1"><path d="M260 67 C260 73.0751 255.0751 78 249 78 C242.9249 78 238 73.0751 238 67 C238 60.9249 242.9249 56 249 56 C255.0751 56 260 60.9249 260 67 Z" /></clipPath><clipPath clipPathUnits="userSpaceOnUse" id="clipPath2"><path d="M208 67 C208 73.0751 203.0751 78 197 78 C190.9249 78 186 73.0751 186 67 C186 60.9249 190.9249 56 197 56 C203.0751 56 208 60.9249 208 67 Z" /></clipPath><clipPath clipPathUnits="userSpaceOnUse" id="clipPath3"><path d="M134 82 L156 82 L156 104 L134 104 L134 82 Z" /></clipPath><clipPath clipPathUnits="userSpaceOnUse" id="clipPath4"><path d="M145 134 L156 156 L134 156 Z" style="fill-rule:evenodd;" /></clipPath><clipPath clipPathUnits="userSpaceOnUse" id="clipPath5"><path d="M104 93 C104 99.0751 99.0751 104 93 104 C86.9249 104 82 99.0751 82 93 C82 86.9249 86.9249 82 93 82 C99.0751 82 104 86.9249 104 93 Z" /></clipPath><clipPath clipPathUnits="userSpaceOnUse" id="clipPath6"><path d="M41 82 L52 93 L41 104 L30 93 Z" style="fill-rule:evenodd;" /></clipPath><clipPath clipPathUnits="userSpaceOnUse" id="clipPath7"><path d="M134 30 L156 30 L156 52 L134 52 L134 30 Z" /></clipPath><clipPath clipPathUnits="userSpaceOnUse" id="clipPath8"><path d="M104 41 C104 47.0751 99.0751 52 93 52 C86.9249 52 82 47.0751 82 41 C82 34.9249 86.9249 30 93 30 C99.0751 30 104 34.9249 104 41 Z" /></clipPath><clipPath clipPathUnits="userSpaceOnUse" id="clipPath9"><path d="M41 30 L52 41 L41 52 L30 41 Z" style="fill-rule:evenodd;" /></clipPath></defs><g style="fill:white; text-rendering:optimizeSpeed; stroke:white;"><rect height="186" style="stroke:none;" width="290" x="0" y="0" /></g><g ID="l-1:1,2" style="text-rendering:optimizeSpeed;"><polygon points=" 249 67 197 67" style="fill:none;" /></g><g ID="r-1:1" style="fill:white; text-rendering:optimizeSpeed; stroke:white;" wurcs_mono_id="1"><circle cx="249" cy="67" r="11" style="clip-path:url(#clipPath1); stroke:none;" /><rect height="22" style="clip-path:url(#clipPath1); fill:rgb(0,144,188); stroke:none;" width="22" x="238" y="56" /><rect height="22" style="clip-path:url(#clipPath1); fill:none; stroke:black;" width="22" x="238" y="56" /><circle cx="249" cy="67" r="11" style="fill:none; stroke:black;" /></g><g ID="l-1:2,3" style="text-rendering:optimizeSpeed;"><polygon points=" 197 67 145 93" style="fill:none;" /></g><g ID="l-1:2,4" style="text-rendering:optimizeSpeed;"><polygon points=" 197 67 145 41" style="fill:none;" /></g><g ID="r-1:2" style="fill:white; text-rendering:optimizeSpeed; stroke:white;" wurcs_mono_id="2"><circle cx="197" cy="67" r="11" style="clip-path:url(#clipPath2); stroke:none;" /><rect height="22" style="clip-path:url(#clipPath2); fill:rgb(255,212,0); stroke:none;" width="22" x="186" y="56" /><rect height="22" style="clip-path:url(#clipPath2); fill:none; stroke:black;" width="22" x="186" y="56" /><circle cx="197" cy="67" r="11" style="fill:none; stroke:black;" /></g><g ID="l-1:3,5" style="text-rendering:optimizeSpeed;"><polygon points=" 145 93 145 145" style="fill:none;" /></g><g ID="l-1:3,6" style="text-rendering:optimizeSpeed;"><polygon points=" 145 93 93 93" style="fill:none;" /></g><g ID="r-1:3" style="fill:white; text-rendering:optimizeSpeed; stroke:white;" wurcs_mono_id="3"><rect height="22" style="clip-path:url(#clipPath3); stroke:none;" width="22" x="134" y="82" /><rect height="22" style="clip-path:url(#clipPath3); fill:rgb(0,144,188); stroke:none;" width="22" x="134" y="82" /><rect height="22" style="clip-path:url(#clipPath3); fill:none; stroke:black;" width="22" x="134" y="82" /><rect height="22" style="fill:none; stroke:black;" width="22" x="134" y="82" /></g><g ID="r-1:5" style="fill:white; text-rendering:optimizeSpeed; stroke:white;" wurcs_mono_id="4"><polygon points=" 145 134 156 156 134 156" style="stroke:none; clip-path:url(#clipPath4);" /><rect height="22" style="clip-path:url(#clipPath4); fill:rgb(237,28,36); stroke:none;" width="22" x="134" y="134" /><rect height="22" style="clip-path:url(#clipPath4); fill:none; stroke:black;" width="22" x="134" y="134" /><polygon points=" 145 134 156 156 134 156" style="fill:none; stroke:black;" /></g><g ID="l-1:6,7" style="text-rendering:optimizeSpeed;"><polygon points=" 93 93 41 93" style="fill:none;" /></g><g ID="r-1:6" style="fill:white; text-rendering:optimizeSpeed; stroke:white;" wurcs_mono_id="5"><circle cx="93" cy="93" r="11" style="clip-path:url(#clipPath5); stroke:none;" /><rect height="22" style="clip-path:url(#clipPath5); fill:rgb(255,212,0); stroke:none;" width="22" x="82" y="82" /><rect height="22" style="clip-path:url(#clipPath5); fill:none; stroke:black;" width="22" x="82" y="82" /><circle cx="93" cy="93" r="11" style="fill:none; stroke:black;" /></g><g ID="r-1:7" style="fill:white; text-rendering:optimizeSpeed; stroke:white;" wurcs_mono_id="6"><polygon points=" 41 82 52 93 41 104 30 93" style="stroke:none; clip-path:url(#clipPath6);" /><rect height="22" style="clip-path:url(#clipPath6); fill:rgb(165,67,153); stroke:none;" width="22" x="30" y="82" /><rect height="22" style="clip-path:url(#clipPath6); fill:none; stroke:black;" width="22" x="30" y="82" /><polygon points=" 41 82 52 93 41 104 30 93" style="fill:none; stroke:black;" /></g><g ID="li-1:6,7" style="fill:white; text-rendering:optimizeSpeed; font-family:'Serif'; stroke:white;"><rect height="11" style="stroke:none;" width="19" x="64" y="95" /><path d="M65.1719 97.625 Q65.8594 97.3594 66.4844 97.2266 Q67.1094 97.0938 67.6562 97.0938 Q68.9531 97.0938 69.6719 97.6484 Q70.3906 98.2031 70.3906 99.1875 Q70.3906 99.9688 69.8906 100.5 Q69.3906 101.0312 68.4844 101.2188 Q69.5625 101.375 70.1562 102.0078 Q70.75 102.6406 70.75 103.6406 Q70.75 104.8594 69.9219 105.5156 Q69.0938 106.1719 67.5469 106.1719 Q66.8594 106.1719 66.2109 106.0234 Q65.5625 105.875 64.9219 105.5781 L64.9219 103.875 L65.5781 103.875 Q65.625 104.7188 66.1406 105.1562 Q66.6562 105.5938 67.5781 105.5938 Q68.4688 105.5938 68.9922 105.0703 Q69.5156 104.5469 69.5156 103.6562 Q69.5156 102.625 68.9766 102.0938 Q68.4375 101.5625 67.4062 101.5625 L66.8594 101.5625 L66.8594 100.9531 L67.1406 100.9531 Q68.1719 100.9531 68.6875 100.5312 Q69.2031 100.1094 69.2031 99.25 Q69.2031 98.4844 68.7812 98.0781 Q68.3594 97.6719 67.5625 97.6719 Q66.7656 97.6719 66.3359 98.0469 Q65.9062 98.4219 65.8281 99.1562 L65.1719 99.1562 L65.1719 97.625 ZM74.7441 97.25 L75.6816 97.25 L72.5723 107.1094 L71.6348 107.1094 L74.7441 97.25 ZM79.5996 105.5938 Q80.4277 105.5938 80.873 104.9844 Q81.3184 104.375 81.3184 103.2344 Q81.3184 102.1094 80.873 101.5 Q80.4277 100.8906 79.5996 100.8906 Q78.7715 100.8906 78.3262 101.4766 Q77.8809 102.0625 77.8809 103.1719 Q77.8809 104.3281 78.3262 104.9609 Q78.7715 105.5938 79.5996 105.5938 ZM77.6934 101.1875 Q78.0996 100.75 78.5996 100.5312 Q79.0996 100.3125 79.7402 100.3125 Q81.0371 100.3125 81.7949 101.0938 Q82.5527 101.875 82.5527 103.2344 Q82.5527 104.5625 81.7402 105.3672 Q80.9277 106.1719 79.5527 106.1719 Q78.0684 106.1719 77.2715 105.0625 Q76.4746 103.9531 76.4746 101.9062 Q76.4746 99.6094 77.4199 98.3516 Q78.3652 97.0938 80.084 97.0938 Q80.5527 97.0938 81.0605 97.1797 Q81.5684 97.2656 82.0996 97.4375 L82.0996 98.8906 L81.4434 98.8906 Q81.3652 98.2969 80.9824 97.9844 Q80.5996 97.6719 79.959 97.6719 Q78.8184 97.6719 78.2637 98.5312 Q77.709 99.3906 77.6934 101.1875 Z" style="fill:black; stroke:none;" /><rect height="8" style="stroke:none;" width="8" x="56" y="97" /><path d="M61.1875 103.4688 L60.9531 104.1094 Q60.7656 104.625 60.2031 104.9375 Q59.8438 105.1562 59.2031 105.1406 Q58.0469 105.1406 57.3281 104.2344 Q56.5938 103.3281 56.5938 101.8594 Q56.5938 100.4219 57.3281 99.4844 Q58.0156 98.5938 59.4531 98.6094 Q60.4531 98.6094 60.9531 99 Q61.4062 99.3438 61.5781 100.0938 L61.625 100.3125 L61.8438 99.6719 Q62.0625 99.0469 62.6562 98.75 L63.25 98.75 L63.25 99.0938 Q62.6875 99.2656 62.5 99.8125 L61.8906 101.4844 L62.2969 103.2812 Q62.5 104.2031 62.7344 104.2969 Q63.0469 104.4375 63.7812 104 L63.7812 104.7188 Q62.5938 105.4062 61.75 104.6875 Q61.375 104.3594 61.2656 103.875 L61.1875 103.4688 ZM60.9219 102.3125 L60.5625 100.5938 Q60.2656 99.2188 59.4688 99.2188 Q58.7969 99.2031 58.2812 99.9375 Q57.8594 100.5156 57.8594 101.875 Q57.8594 103.1719 58.2812 103.8281 Q58.75 104.5469 59.5312 104.5 Q60.2031 104.4375 60.6875 103 L60.9219 102.3125 Z" style="fill:black; stroke:none;" /></g><g ID="li-1:3,5" style="fill:white; text-rendering:optimizeSpeed; font-family:'Serif'; stroke:white;"><rect height="10" style="stroke:none;" width="7" x="149" y="107" /><path d="M150.1719 108.625 Q150.8594 108.3594 151.4844 108.2266 Q152.1094 108.0938 152.6562 108.0938 Q153.9531 108.0938 154.6719 108.6484 Q155.3906 109.2031 155.3906 110.1875 Q155.3906 110.9688 154.8906 111.5 Q154.3906 112.0312 153.4844 112.2188 Q154.5625 112.375 155.1562 113.0078 Q155.75 113.6406 155.75 114.6406 Q155.75 115.8594 154.9219 116.5156 Q154.0938 117.1719 152.5469 117.1719 Q151.8594 117.1719 151.2109 117.0234 Q150.5625 116.875 149.9219 116.5781 L149.9219 114.875 L150.5781 114.875 Q150.625 115.7188 151.1406 116.1562 Q151.6562 116.5938 152.5781 116.5938 Q153.4688 116.5938 153.9922 116.0703 Q154.5156 115.5469 154.5156 114.6562 Q154.5156 113.625 153.9766 113.0938 Q153.4375 112.5625 152.4062 112.5625 L151.8594 112.5625 L151.8594 111.9531 L152.1406 111.9531 Q153.1719 111.9531 153.6875 111.5312 Q154.2031 111.1094 154.2031 110.25 Q154.2031 109.4844 153.7812 109.0781 Q153.3594 108.6719 152.5625 108.6719 Q151.7656 108.6719 151.3359 109.0469 Q150.9062 109.4219 150.8281 110.1562 L150.1719 110.1562 L150.1719 108.625 Z" style="fill:black; stroke:none;" /><rect height="8" style="stroke:none;" width="8" x="149" y="122" /><path d="M154.1875 128.4688 L153.9531 129.1094 Q153.7656 129.625 153.2031 129.9375 Q152.8438 130.1562 152.2031 130.1406 Q151.0469 130.1406 150.3281 129.2344 Q149.5938 128.3281 149.5938 126.8594 Q149.5938 125.4219 150.3281 124.4844 Q151.0156 123.5938 152.4531 123.6094 Q153.4531 123.6094 153.9531 124 Q154.4062 124.3438 154.5781 125.0938 L154.625 125.3125 L154.8438 124.6719 Q155.0625 124.0469 155.6562 123.75 L156.25 123.75 L156.25 124.0938 Q155.6875 124.2656 155.5 124.8125 L154.8906 126.4844 L155.2969 128.2812 Q155.5 129.2031 155.7344 129.2969 Q156.0469 129.4375 156.7812 129 L156.7812 129.7188 Q155.5938 130.4062 154.75 129.6875 Q154.375 129.3594 154.2656 128.875 L154.1875 128.4688 ZM153.9219 127.3125 L153.5625 125.5938 Q153.2656 124.2188 152.4688 124.2188 Q151.7969 124.2031 151.2812 124.9375 Q150.8594 125.5156 150.8594 126.875 Q150.8594 128.1719 151.2812 128.8281 Q151.75 129.5469 152.5312 129.5 Q153.2031 129.4375 153.6875 128 L153.9219 127.3125 Z" style="fill:black; stroke:none;" /></g><g ID="li-1:3,6" style="fill:white; text-rendering:optimizeSpeed; font-family:'Serif'; stroke:white;"><rect height="9" style="stroke:none;" width="8" x="122" y="96" /><path d="M126.1875 102.0312 L126.1875 97.375 L123.2031 102.0312 L126.1875 102.0312 ZM128.7656 105 L124.7812 105 L124.7812 104.375 L126.1875 104.375 L126.1875 102.6562 L122.375 102.6562 L122.375 102.0156 L126.2031 96.0938 L127.3594 96.0938 L127.3594 102.0312 L129.0312 102.0312 L129.0312 102.6562 L127.3594 102.6562 L127.3594 104.375 L128.7656 104.375 L128.7656 105 Z" style="fill:black; stroke:none;" /><rect height="13" style="stroke:none;" width="7" x="108" y="94" /><path d="M109.8281 106.25 Q110.2969 106.5938 111.1719 106.5938 Q112.0625 106.5938 112.5781 106.0703 Q113.0938 105.5469 113.0938 104.6562 Q113.0938 103.4219 112.5625 102.8906 Q112.0156 102.3594 111 102.3594 L110.4375 102.3594 L110.4375 101.7188 L110.7344 101.7188 Q111.4844 101.7188 112 101.2969 Q112.4219 100.9531 112.4219 100.0156 Q112.4219 99.6094 112.1406 99.1406 Q111.6875 98.375 111.1562 98.3906 Q109.8281 98.4375 109.8281 100.7812 L109.8281 106.25 ZM108.75 109.5 L108.75 100.7812 Q108.75 98.3281 110.0781 98 Q110.7656 97.8125 111.25 97.8125 Q112.3438 97.8125 113.0469 98.6719 Q113.6094 99.3594 113.6094 99.9375 Q113.6094 100.7812 113.2031 101.2656 Q112.7969 101.75 112.0625 101.9844 Q113.1406 102.1406 113.75 102.7812 Q114.3281 103.4062 114.3281 104.6328 Q114.3281 105.8594 113.5078 106.5156 Q112.6875 107.1719 111.1406 107.1719 Q110.1875 107.1719 109.8281 107.0312 L109.8281 109.5 L108.75 109.5 Z" style="fill:black; stroke:none;" /></g><g ID="l-1:4,8" style="text-rendering:optimizeSpeed;"><polygon points=" 145 41 93 41" style="fill:none;" /></g><g ID="r-1:4" style="fill:white; text-rendering:optimizeSpeed; stroke:white;" wurcs_mono_id="7"><rect height="22" style="clip-path:url(#clipPath7); stroke:none;" width="22" x="134" y="30" /><rect height="22" style="clip-path:url(#clipPath7); fill:rgb(0,144,188); stroke:none;" width="22" x="134" y="30" /><rect height="22" style="clip-path:url(#clipPath7); fill:none; stroke:black;" width="22" x="134" y="30" /><rect height="22" style="fill:none; stroke:black;" width="22" x="134" y="30" /></g><g ID="l-1:8,9" style="text-rendering:optimizeSpeed;"><polygon points=" 93 41 41 41" style="fill:none;" /></g><g ID="r-1:8" style="fill:white; text-rendering:optimizeSpeed; stroke:white;" wurcs_mono_id="8"><circle cx="93" cy="41" r="11" style="clip-path:url(#clipPath8); stroke:none;" /><rect height="22" style="clip-path:url(#clipPath8); fill:rgb(255,212,0); stroke:none;" width="22" x="82" y="30" /><rect height="22" style="clip-path:url(#clipPath8); fill:none; stroke:black;" width="22" x="82" y="30" /><circle cx="93" cy="41" r="11" style="fill:none; stroke:black;" /></g><g ID="r-1:9" style="fill:white; text-rendering:optimizeSpeed; stroke:white;" wurcs_mono_id="9"><polygon points=" 41 30 52 41 41 52 30 41" style="stroke:none; clip-path:url(#clipPath9);" /><rect height="22" style="clip-path:url(#clipPath9); fill:rgb(165,67,153); stroke:none;" width="22" x="30" y="30" /><rect height="22" style="clip-path:url(#clipPath9); fill:none; stroke:black;" width="22" x="30" y="30" /><polygon points=" 41 30 52 41 41 52 30 41" style="fill:none; stroke:black;" /></g><g ID="li-1:8,9" style="fill:white; text-rendering:optimizeSpeed; font-family:'Serif'; stroke:white;"><rect height="11" style="stroke:none;" width="19" x="64" y="43" /><path d="M65.1719 45.625 Q65.8594 45.3594 66.4844 45.2266 Q67.1094 45.0938 67.6562 45.0938 Q68.9531 45.0938 69.6719 45.6484 Q70.3906 46.2031 70.3906 47.1875 Q70.3906 47.9688 69.8906 48.5 Q69.3906 49.0312 68.4844 49.2188 Q69.5625 49.375 70.1562 50.0078 Q70.75 50.6406 70.75 51.6406 Q70.75 52.8594 69.9219 53.5156 Q69.0938 54.1719 67.5469 54.1719 Q66.8594 54.1719 66.2109 54.0234 Q65.5625 53.875 64.9219 53.5781 L64.9219 51.875 L65.5781 51.875 Q65.625 52.7188 66.1406 53.1562 Q66.6562 53.5938 67.5781 53.5938 Q68.4688 53.5938 68.9922 53.0703 Q69.5156 52.5469 69.5156 51.6562 Q69.5156 50.625 68.9766 50.0938 Q68.4375 49.5625 67.4062 49.5625 L66.8594 49.5625 L66.8594 48.9531 L67.1406 48.9531 Q68.1719 48.9531 68.6875 48.5312 Q69.2031 48.1094 69.2031 47.25 Q69.2031 46.4844 68.7812 46.0781 Q68.3594 45.6719 67.5625 45.6719 Q66.7656 45.6719 66.3359 46.0469 Q65.9062 46.4219 65.8281 47.1562 L65.1719 47.1562 L65.1719 45.625 ZM74.7441 45.25 L75.6816 45.25 L72.5723 55.1094 L71.6348 55.1094 L74.7441 45.25 ZM79.5996 53.5938 Q80.4277 53.5938 80.873 52.9844 Q81.3184 52.375 81.3184 51.2344 Q81.3184 50.1094 80.873 49.5 Q80.4277 48.8906 79.5996 48.8906 Q78.7715 48.8906 78.3262 49.4766 Q77.8809 50.0625 77.8809 51.1719 Q77.8809 52.3281 78.3262 52.9609 Q78.7715 53.5938 79.5996 53.5938 ZM77.6934 49.1875 Q78.0996 48.75 78.5996 48.5312 Q79.0996 48.3125 79.7402 48.3125 Q81.0371 48.3125 81.7949 49.0938 Q82.5527 49.875 82.5527 51.2344 Q82.5527 52.5625 81.7402 53.3672 Q80.9277 54.1719 79.5527 54.1719 Q78.0684 54.1719 77.2715 53.0625 Q76.4746 51.9531 76.4746 49.9062 Q76.4746 47.6094 77.4199 46.3516 Q78.3652 45.0938 80.084 45.0938 Q80.5527 45.0938 81.0605 45.1797 Q81.5684 45.2656 82.0996 45.4375 L82.0996 46.8906 L81.4434 46.8906 Q81.3652 46.2969 80.9824 45.9844 Q80.5996 45.6719 79.959 45.6719 Q78.8184 45.6719 78.2637 46.5312 Q77.709 47.3906 77.6934 49.1875 Z" style="fill:black; stroke:none;" /><rect height="8" style="stroke:none;" width="8" x="56" y="45" /><path d="M61.1875 51.4688 L60.9531 52.1094 Q60.7656 52.625 60.2031 52.9375 Q59.8438 53.1562 59.2031 53.1406 Q58.0469 53.1406 57.3281 52.2344 Q56.5938 51.3281 56.5938 49.8594 Q56.5938 48.4219 57.3281 47.4844 Q58.0156 46.5938 59.4531 46.6094 Q60.4531 46.6094 60.9531 47 Q61.4062 47.3438 61.5781 48.0938 L61.625 48.3125 L61.8438 47.6719 Q62.0625 47.0469 62.6562 46.75 L63.25 46.75 L63.25 47.0938 Q62.6875 47.2656 62.5 47.8125 L61.8906 49.4844 L62.2969 51.2812 Q62.5 52.2031 62.7344 52.2969 Q63.0469 52.4375 63.7812 52 L63.7812 52.7188 Q62.5938 53.4062 61.75 52.6875 Q61.375 52.3594 61.2656 51.875 L61.1875 51.4688 ZM60.9219 50.3125 L60.5625 48.5938 Q60.2656 47.2188 59.4688 47.2188 Q58.7969 47.2031 58.2812 47.9375 Q57.8594 48.5156 57.8594 49.875 Q57.8594 51.1719 58.2812 51.8281 Q58.75 52.5469 59.5312 52.5 Q60.2031 52.4375 60.6875 51 L60.9219 50.3125 Z" style="fill:black; stroke:none;" /></g><g ID="li-1:4,8" style="fill:white; text-rendering:optimizeSpeed; font-family:'Serif'; stroke:white;"><rect height="9" style="stroke:none;" width="8" x="122" y="44" /><path d="M126.1875 50.0312 L126.1875 45.375 L123.2031 50.0312 L126.1875 50.0312 ZM128.7656 53 L124.7812 53 L124.7812 52.375 L126.1875 52.375 L126.1875 50.6562 L122.375 50.6562 L122.375 50.0156 L126.2031 44.0938 L127.3594 44.0938 L127.3594 50.0312 L129.0312 50.0312 L129.0312 50.6562 L127.3594 50.6562 L127.3594 52.375 L128.7656 52.375 L128.7656 53 Z" style="fill:black; stroke:none;" /><rect height="13" style="stroke:none;" width="7" x="108" y="42" /><path d="M109.8281 54.25 Q110.2969 54.5938 111.1719 54.5938 Q112.0625 54.5938 112.5781 54.0703 Q113.0938 53.5469 113.0938 52.6562 Q113.0938 51.4219 112.5625 50.8906 Q112.0156 50.3594 111 50.3594 L110.4375 50.3594 L110.4375 49.7188 L110.7344 49.7188 Q111.4844 49.7188 112 49.2969 Q112.4219 48.9531 112.4219 48.0156 Q112.4219 47.6094 112.1406 47.1406 Q111.6875 46.375 111.1562 46.3906 Q109.8281 46.4375 109.8281 48.7812 L109.8281 54.25 ZM108.75 57.5 L108.75 48.7812 Q108.75 46.3281 110.0781 46 Q110.7656 45.8125 111.25 45.8125 Q112.3438 45.8125 113.0469 46.6719 Q113.6094 47.3594 113.6094 47.9375 Q113.6094 48.7812 113.2031 49.2656 Q112.7969 49.75 112.0625 49.9844 Q113.1406 50.1406 113.75 50.7812 Q114.3281 51.4062 114.3281 52.6328 Q114.3281 53.8594 113.5078 54.5156 Q112.6875 55.1719 111.1406 55.1719 Q110.1875 55.1719 109.8281 55.0312 L109.8281 57.5 L108.75 57.5 Z" style="fill:black; stroke:none;" /></g><g ID="li-1:2,3" style="fill:white; text-rendering:optimizeSpeed; font-family:'Serif'; stroke:white;"><rect height="10" style="stroke:none;" width="7" x="178" y="78" /><path d="M179.1719 79.625 Q179.8594 79.3594 180.4844 79.2266 Q181.1094 79.0938 181.6562 79.0938 Q182.9531 79.0938 183.6719 79.6484 Q184.3906 80.2031 184.3906 81.1875 Q184.3906 81.9688 183.8906 82.5 Q183.3906 83.0312 182.4844 83.2188 Q183.5625 83.375 184.1562 84.0078 Q184.75 84.6406 184.75 85.6406 Q184.75 86.8594 183.9219 87.5156 Q183.0938 88.1719 181.5469 88.1719 Q180.8594 88.1719 180.2109 88.0234 Q179.5625 87.875 178.9219 87.5781 L178.9219 85.875 L179.5781 85.875 Q179.625 86.7188 180.1406 87.1562 Q180.6562 87.5938 181.5781 87.5938 Q182.4688 87.5938 182.9922 87.0703 Q183.5156 86.5469 183.5156 85.6562 Q183.5156 84.625 182.9766 84.0938 Q182.4375 83.5625 181.4062 83.5625 L180.8594 83.5625 L180.8594 82.9531 L181.1406 82.9531 Q182.1719 82.9531 182.6875 82.5312 Q183.2031 82.1094 183.2031 81.25 Q183.2031 80.4844 182.7812 80.0781 Q182.3594 79.6719 181.5625 79.6719 Q180.7656 79.6719 180.3359 80.0469 Q179.9062 80.4219 179.8281 81.1562 L179.1719 81.1562 L179.1719 79.625 Z" style="fill:black; stroke:none;" /><rect height="13" style="stroke:none;" width="7" x="163" y="84" /><path d="M164.8281 96.25 Q165.2969 96.5938 166.1719 96.5938 Q167.0625 96.5938 167.5781 96.0703 Q168.0938 95.5469 168.0938 94.6562 Q168.0938 93.4219 167.5625 92.8906 Q167.0156 92.3594 166 92.3594 L165.4375 92.3594 L165.4375 91.7188 L165.7344 91.7188 Q166.4844 91.7188 167 91.2969 Q167.4219 90.9531 167.4219 90.0156 Q167.4219 89.6094 167.1406 89.1406 Q166.6875 88.375 166.1562 88.3906 Q164.8281 88.4375 164.8281 90.7812 L164.8281 96.25 ZM163.75 99.5 L163.75 90.7812 Q163.75 88.3281 165.0781 88 Q165.7656 87.8125 166.25 87.8125 Q167.3438 87.8125 168.0469 88.6719 Q168.6094 89.3594 168.6094 89.9375 Q168.6094 90.7812 168.2031 91.2656 Q167.7969 91.75 167.0625 91.9844 Q168.1406 92.1406 168.75 92.7812 Q169.3281 93.4062 169.3281 94.6328 Q169.3281 95.8594 168.5078 96.5156 Q167.6875 97.1719 166.1406 97.1719 Q165.1875 97.1719 164.8281 97.0312 L164.8281 99.5 L163.75 99.5 Z" style="fill:black; stroke:none;" /></g><g ID="li-1:2,4" style="fill:white; text-rendering:optimizeSpeed; font-family:'Serif'; stroke:white;"><rect height="10" style="stroke:none;" width="7" x="171" y="60" /><path d="M174.9219 69.5938 Q175.75 69.5938 176.1953 68.9844 Q176.6406 68.375 176.6406 67.2344 Q176.6406 66.1094 176.1953 65.5 Q175.75 64.8906 174.9219 64.8906 Q174.0938 64.8906 173.6484 65.4766 Q173.2031 66.0625 173.2031 67.1719 Q173.2031 68.3281 173.6484 68.9609 Q174.0938 69.5938 174.9219 69.5938 ZM173.0156 65.1875 Q173.4219 64.75 173.9219 64.5312 Q174.4219 64.3125 175.0625 64.3125 Q176.3594 64.3125 177.1172 65.0938 Q177.875 65.875 177.875 67.2344 Q177.875 68.5625 177.0625 69.3672 Q176.25 70.1719 174.875 70.1719 Q173.3906 70.1719 172.5938 69.0625 Q171.7969 67.9531 171.7969 65.9062 Q171.7969 63.6094 172.7422 62.3516 Q173.6875 61.0938 175.4062 61.0938 Q175.875 61.0938 176.3828 61.1797 Q176.8906 61.2656 177.4219 61.4375 L177.4219 62.8906 L176.7656 62.8906 Q176.6875 62.2969 176.3047 61.9844 Q175.9219 61.6719 175.2812 61.6719 Q174.1406 61.6719 173.5859 62.5312 Q173.0312 63.3906 173.0156 65.1875 Z" style="fill:black; stroke:none;" /><rect height="13" style="stroke:none;" width="7" x="156" y="50" /><path d="M157.8281 62.25 Q158.2969 62.5938 159.1719 62.5938 Q160.0625 62.5938 160.5781 62.0703 Q161.0938 61.5469 161.0938 60.6562 Q161.0938 59.4219 160.5625 58.8906 Q160.0156 58.3594 159 58.3594 L158.4375 58.3594 L158.4375 57.7188 L158.7344 57.7188 Q159.4844 57.7188 160 57.2969 Q160.4219 56.9531 160.4219 56.0156 Q160.4219 55.6094 160.1406 55.1406 Q159.6875 54.375 159.1562 54.3906 Q157.8281 54.4375 157.8281 56.7812 L157.8281 62.25 ZM156.75 65.5 L156.75 56.7812 Q156.75 54.3281 158.0781 54 Q158.7656 53.8125 159.25 53.8125 Q160.3438 53.8125 161.0469 54.6719 Q161.6094 55.3594 161.6094 55.9375 Q161.6094 56.7812 161.2031 57.2656 Q160.7969 57.75 160.0625 57.9844 Q161.1406 58.1406 161.75 58.7812 Q162.3281 59.4062 162.3281 60.6328 Q162.3281 61.8594 161.5078 62.5156 Q160.6875 63.1719 159.1406 63.1719 Q158.1875 63.1719 157.8281 63.0312 L157.8281 65.5 L156.75 65.5 Z" style="fill:black; stroke:none;" /></g><g ID="li-1:1,2" style="fill:white; text-rendering:optimizeSpeed; font-family:'Serif'; stroke:white;"><rect height="9" style="stroke:none;" width="8" x="226" y="70" /><path d="M230.1875 76.0312 L230.1875 71.375 L227.2031 76.0312 L230.1875 76.0312 ZM232.7656 79 L228.7812 79 L228.7812 78.375 L230.1875 78.375 L230.1875 76.6562 L226.375 76.6562 L226.375 76.0156 L230.2031 70.0938 L231.3594 70.0938 L231.3594 76.0312 L233.0312 76.0312 L233.0312 76.6562 L231.3594 76.6562 L231.3594 78.375 L232.7656 78.375 L232.7656 79 Z" style="fill:black; stroke:none;" /><rect height="13" style="stroke:none;" width="7" x="212" y="68" /><path d="M213.8281 80.25 Q214.2969 80.5938 215.1719 80.5938 Q216.0625 80.5938 216.5781 80.0703 Q217.0938 79.5469 217.0938 78.6562 Q217.0938 77.4219 216.5625 76.8906 Q216.0156 76.3594 215 76.3594 L214.4375 76.3594 L214.4375 75.7188 L214.7344 75.7188 Q215.4844 75.7188 216 75.2969 Q216.4219 74.9531 216.4219 74.0156 Q216.4219 73.6094 216.1406 73.1406 Q215.6875 72.375 215.1562 72.3906 Q213.8281 72.4375 213.8281 74.7812 L213.8281 80.25 ZM212.75 83.5 L212.75 74.7812 Q212.75 72.3281 214.0781 72 Q214.7656 71.8125 215.25 71.8125 Q216.3438 71.8125 217.0469 72.6719 Q217.6094 73.3594 217.6094 73.9375 Q217.6094 74.7812 217.2031 75.2656 Q216.7969 75.75 216.0625 75.9844 Q217.1406 76.1406 217.75 76.7812 Q218.3281 77.4062 218.3281 78.6328 Q218.3281 79.8594 217.5078 80.5156 Q216.6875 81.1719 215.1406 81.1719 Q214.1875 81.1719 213.8281 81.0312 L213.8281 83.5 L212.75 83.5 Z" style="fill:black; stroke:none;" /></g></g></svg>