<svg xmlns="http://www.w3.org/2000/svg" style="fill-opacity:1; color-rendering:auto; color-interpolation:auto; text-rendering:auto; stroke:black; stroke-linecap:square; stroke-miterlimit:10; shape-rendering:auto; stroke-opacity:1; fill:black; stroke-dasharray:none; font-weight:normal; stroke-width:1; font-family:'Dialog'; font-style:normal; stroke-linejoin:miter; font-size:12px; stroke-dashoffset:0; image-rendering:auto;"><defs id="genericDefs" /><g><defs id="defs1"><clipPath clipPathUnits="userSpaceOnUse" id="clipPath1"><path d="M290 69 L312 69 L312 91 L290 91 L290 69 Z" /></clipPath><clipPath clipPathUnits="userSpaceOnUse" id="clipPath2"><path d="M238 69 L260 69 L260 91 L238 91 L238 69 Z" /></clipPath><clipPath clipPathUnits="userSpaceOnUse" id="clipPath3"><path d="M208 80 C208 86.0751 203.0751 91 197 91 C190.9249 91 186 86.0751 186 80 C186 73.9249 190.9249 69 197 69 C203.0751 69 208 73.9249 208 80 Z" /></clipPath><clipPath clipPathUnits="userSpaceOnUse" id="clipPath4"><path d="M156 119 C156 125.0751 151.0751 130 145 130 C138.9249 130 134 125.0751 134 119 C134 112.9249 138.9249 108 145 108 C151.0751 108 156 112.9249 156 119 Z" /></clipPath><clipPath clipPathUnits="userSpaceOnUse" id="clipPath5"><path d="M82 134 L104 134 L104 156 L82 156 L82 134 Z" /></clipPath><clipPath clipPathUnits="userSpaceOnUse" id="clipPath6"><path d="M52 145 C52 151.0751 47.0751 156 41 156 C34.9249 156 30 151.0751 30 145 C30 138.9249 34.9249 134 41 134 C47.0751 134 52 138.9249 52 145 Z" /></clipPath><clipPath clipPathUnits="userSpaceOnUse" id="clipPath7"><path d="M82 82 L104 82 L104 104 L82 104 L82 82 Z" /></clipPath><clipPath clipPathUnits="userSpaceOnUse" id="clipPath8"><path d="M52 93 C52 99.0751 47.0751 104 41 104 C34.9249 104 30 99.0751 30 93 C30 86.9249 34.9249 82 41 82 C47.0751 82 52 86.9249 52 93 Z" /></clipPath><clipPath clipPathUnits="userSpaceOnUse" id="clipPath9"><path d="M156 41 C156 47.0751 151.0751 52 145 52 C138.9249 52 134 47.0751 134 41 C134 34.9249 138.9249 30 145 30 C151.0751 30 156 34.9249 156 41 Z" /></clipPath><clipPath clipPathUnits="userSpaceOnUse" id="clipPath10"><path d="M82 30 L104 30 L104 52 L82 52 L82 30 Z" /></clipPath><clipPath clipPathUnits="userSpaceOnUse" id="clipPath11"><path d="M52 41 C52 47.0751 47.0751 52 41 52 C34.9249 52 30 47.0751 30 41 C30 34.9249 34.9249 30 41 30 C47.0751 30 52 34.9249 52 41 Z" /></clipPath></defs><g style="fill:white; text-rendering:optimizeSpeed; stroke:white;"><rect height="186" style="stroke:none;" width="342" x="0" y="0" /></g><g ID="l-1:1,2" style="text-rendering:optimizeSpeed;"><polygon points=" 301 80 249 80" style="fill:none;" /></g><g ID="r-1:1" style="fill:white; text-rendering:optimizeSpeed; stroke:white;" wurcs_mono_id="1"><rect height="22" style="clip-path:url(#clipPath1); stroke:none;" width="22" x="290" y="69" /><rect height="22" style="clip-path:url(#clipPath1); fill:rgb(0,144,188); stroke:none;" width="22" x="290" y="69" /><rect height="22" style="clip-path:url(#clipPath1); fill:none; stroke:black;" width="22" x="290" y="69" /><rect height="22" style="fill:none; stroke:black;" width="22" x="290" y="69" /></g><g ID="l-1:2,3" style="text-rendering:optimizeSpeed;"><polygon points=" 249 80 197 80" style="fill:none;" /></g><g ID="r-1:2" style="fill:white; text-rendering:optimizeSpeed; stroke:white;" wurcs_mono_id="2"><rect height="22" style="clip-path:url(#clipPath2); stroke:none;" width="22" x="238" y="69" /><rect height="22" style="clip-path:url(#clipPath2); fill:rgb(0,144,188); stroke:none;" width="22" x="238" y="69" /><rect height="22" style="clip-path:url(#clipPath2); fill:none; stroke:black;" width="22" x="238" y="69" /><rect height="22" style="fill:none; stroke:black;" width="22" x="238" y="69" /></g><g ID="l-1:3,4" style="text-rendering:optimizeSpeed;"><polygon points=" 197 80 145 119" style="fill:none;" /></g><g ID="l-1:3,5" style="text-rendering:optimizeSpeed;"><polygon points=" 197 80 145 41" style="fill:none;" /></g><g ID="r-1:3" style="fill:white; text-rendering:optimizeSpeed; stroke:white;" wurcs_mono_id="3"><circle cx="197" cy="80" r="11" style="clip-path:url(#clipPath3); stroke:none;" /><rect height="22" style="clip-path:url(#clipPath3); fill:rgb(0,166,81); stroke:none;" width="22" x="186" y="69" /><rect height="22" style="clip-path:url(#clipPath3); fill:none; stroke:black;" width="22" x="186" y="69" /><circle cx="197" cy="80" r="11" style="fill:none; stroke:black;" /></g><g ID="l-1:4,6" style="text-rendering:optimizeSpeed;"><polygon points=" 145 119 93 145" style="fill:none;" /></g><g ID="l-1:4,7" style="text-rendering:optimizeSpeed;"><polygon points=" 145 119 93 93" style="fill:none;" /></g><g ID="r-1:4" style="fill:white; text-rendering:optimizeSpeed; stroke:white;" wurcs_mono_id="4"><circle cx="145" cy="119" r="11" style="clip-path:url(#clipPath4); stroke:none;" /><rect height="22" style="clip-path:url(#clipPath4); fill:rgb(0,166,81); stroke:none;" width="22" x="134" y="108" /><rect height="22" style="clip-path:url(#clipPath4); fill:none; stroke:black;" width="22" x="134" y="108" /><circle cx="145" cy="119" r="11" style="fill:none; stroke:black;" /></g><g ID="l-1:6,8" style="text-rendering:optimizeSpeed;"><polygon points=" 93 145 41 145" style="fill:none;" /></g><g ID="r-1:6" style="fill:white; text-rendering:optimizeSpeed; stroke:white;" wurcs_mono_id="7"><rect height="22" style="clip-path:url(#clipPath5); stroke:none;" width="22" x="82" y="134" /><rect height="22" style="clip-path:url(#clipPath5); fill:rgb(0,144,188); stroke:none;" width="22" x="82" y="134" /><rect height="22" style="clip-path:url(#clipPath5); fill:none; stroke:black;" width="22" x="82" y="134" /><rect height="22" style="fill:none; stroke:black;" width="22" x="82" y="134" /></g><g ID="r-1:8" style="fill:white; text-rendering:optimizeSpeed; stroke:white;" wurcs_mono_id="8"><circle cx="41" cy="145" r="11" style="clip-path:url(#clipPath6); stroke:none;" /><rect height="22" style="clip-path:url(#clipPath6); fill:rgb(255,212,0); stroke:none;" width="22" x="30" y="134" /><rect height="22" style="clip-path:url(#clipPath6); fill:none; stroke:black;" width="22" x="30" y="134" /><circle cx="41" cy="145" r="11" style="fill:none; stroke:black;" /></g><g ID="li-1:6,8" style="fill:white; text-rendering:optimizeSpeed; font-family:'Serif'; stroke:white;"><rect height="9" style="stroke:none;" width="8" x="70" y="148" /><path d="M74.1875 154.0312 L74.1875 149.375 L71.2031 154.0312 L74.1875 154.0312 ZM76.7656 157 L72.7812 157 L72.7812 156.375 L74.1875 156.375 L74.1875 154.6562 L70.375 154.6562 L70.375 154.0156 L74.2031 148.0938 L75.3594 148.0938 L75.3594 154.0312 L77.0312 154.0312 L77.0312 154.6562 L75.3594 154.6562 L75.3594 156.375 L76.7656 156.375 L76.7656 157 Z" style="fill:black; stroke:none;" /><rect height="13" style="stroke:none;" width="7" x="56" y="146" /><path d="M57.8281 158.25 Q58.2969 158.5938 59.1719 158.5938 Q60.0625 158.5938 60.5781 158.0703 Q61.0938 157.5469 61.0938 156.6562 Q61.0938 155.4219 60.5625 154.8906 Q60.0156 154.3594 59 154.3594 L58.4375 154.3594 L58.4375 153.7188 L58.7344 153.7188 Q59.4844 153.7188 60 153.2969 Q60.4219 152.9531 60.4219 152.0156 Q60.4219 151.6094 60.1406 151.1406 Q59.6875 150.375 59.1562 150.3906 Q57.8281 150.4375 57.8281 152.7812 L57.8281 158.25 ZM56.75 161.5 L56.75 152.7812 Q56.75 150.3281 58.0781 150 Q58.7656 149.8125 59.25 149.8125 Q60.3438 149.8125 61.0469 150.6719 Q61.6094 151.3594 61.6094 151.9375 Q61.6094 152.7812 61.2031 153.2656 Q60.7969 153.75 60.0625 153.9844 Q61.1406 154.1406 61.75 154.7812 Q62.3281 155.4062 62.3281 156.6328 Q62.3281 157.8594 61.5078 158.5156 Q60.6875 159.1719 59.1406 159.1719 Q58.1875 159.1719 57.8281 159.0312 L57.8281 161.5 L56.75 161.5 Z" style="fill:black; stroke:none;" /></g><g ID="l-1:7,9" style="text-rendering:optimizeSpeed;"><polygon points=" 93 93 41 93" style="fill:none;" /></g><g ID="r-1:7" style="fill:white; text-rendering:optimizeSpeed; stroke:white;" wurcs_mono_id="5"><rect height="22" style="clip-path:url(#clipPath7); stroke:none;" width="22" x="82" y="82" /><rect height="22" style="clip-path:url(#clipPath7); fill:rgb(0,144,188); stroke:none;" width="22" x="82" y="82" /><rect height="22" style="clip-path:url(#clipPath7); fill:none; stroke:black;" width="22" x="82" y="82" /><rect height="22" style="fill:none; stroke:black;" width="22" x="82" y="82" /></g><g ID="r-1:9" style="fill:white; text-rendering:optimizeSpeed; stroke:white;" wurcs_mono_id="6"><circle cx="41" cy="93" r="11" style="clip-path:url(#clipPath8); stroke:none;" /><rect height="22" style="clip-path:url(#clipPath8); fill:rgb(255,212,0); stroke:none;" width="22" x="30" y="82" /><rect height="22" style="clip-path:url(#clipPath8); fill:none; stroke:black;" width="22" x="30" y="82" /><circle cx="41" cy="93" r="11" style="fill:none; stroke:black;" /></g><g ID="li-1:7,9" style="fill:white; text-rendering:optimizeSpeed; font-family:'Serif'; stroke:white;"><rect height="9" style="stroke:none;" width="8" x="70" y="96" /><path d="M74.1875 102.0312 L74.1875 97.375 L71.2031 102.0312 L74.1875 102.0312 ZM76.7656 105 L72.7812 105 L72.7812 104.375 L74.1875 104.375 L74.1875 102.6562 L70.375 102.6562 L70.375 102.0156 L74.2031 96.0938 L75.3594 96.0938 L75.3594 102.0312 L77.0312 102.0312 L77.0312 102.6562 L75.3594 102.6562 L75.3594 104.375 L76.7656 104.375 L76.7656 105 Z" style="fill:black; stroke:none;" /><rect height="13" style="stroke:none;" width="7" x="56" y="94" /><path d="M57.8281 106.25 Q58.2969 106.5938 59.1719 106.5938 Q60.0625 106.5938 60.5781 106.0703 Q61.0938 105.5469 61.0938 104.6562 Q61.0938 103.4219 60.5625 102.8906 Q60.0156 102.3594 59 102.3594 L58.4375 102.3594 L58.4375 101.7188 L58.7344 101.7188 Q59.4844 101.7188 60 101.2969 Q60.4219 100.9531 60.4219 100.0156 Q60.4219 99.6094 60.1406 99.1406 Q59.6875 98.375 59.1562 98.3906 Q57.8281 98.4375 57.8281 100.7812 L57.8281 106.25 ZM56.75 109.5 L56.75 100.7812 Q56.75 98.3281 58.0781 98 Q58.7656 97.8125 59.25 97.8125 Q60.3438 97.8125 61.0469 98.6719 Q61.6094 99.3594 61.6094 99.9375 Q61.6094 100.7812 61.2031 101.2656 Q60.7969 101.75 60.0625 101.9844 Q61.1406 102.1406 61.75 102.7812 Q62.3281 103.4062 62.3281 104.6328 Q62.3281 105.8594 61.5078 106.5156 Q60.6875 107.1719 59.1406 107.1719 Q58.1875 107.1719 57.8281 107.0312 L57.8281 109.5 L56.75 109.5 Z" style="fill:black; stroke:none;" /></g><g ID="li-1:4,6" style="fill:white; text-rendering:optimizeSpeed; font-family:'Serif'; stroke:white;"><rect height="10" style="stroke:none;" width="6" x="127" y="130" /><path d="M129.1094 139.3906 Q129.1094 139.0625 129.3359 138.8359 Q129.5625 138.6094 129.8906 138.6094 Q130.2188 138.6094 130.4453 138.8359 Q130.6719 139.0625 130.6719 139.3906 Q130.6719 139.7188 130.4453 139.9453 Q130.2188 140.1719 129.8906 140.1719 Q129.5625 140.1719 129.3359 139.9453 Q129.1094 139.7188 129.1094 139.3906 ZM127.8125 131.6406 Q128.4375 131.3594 129 131.2266 Q129.5625 131.0938 130.0469 131.0938 Q131.3438 131.0938 132.1016 131.7188 Q132.8594 132.3438 132.8594 133.4062 Q132.8594 134.5 132.2109 135.1953 Q131.5625 135.8906 130.25 136.1875 L130.25 137.6719 L129.5312 137.6719 L129.5312 135.75 Q130.5625 135.5 131.0938 134.9062 Q131.625 134.3125 131.625 133.4062 Q131.625 132.5938 131.1953 132.1328 Q130.7656 131.6719 130.0312 131.6719 Q129.3594 131.6719 128.9297 132.0547 Q128.5 132.4375 128.3906 133.1562 L127.8125 133.1562 L127.8125 131.6406 Z" style="fill:black; stroke:none;" /><rect height="10" style="stroke:none;" width="6" x="111" y="138" /><path d="M113.1094 147.3906 Q113.1094 147.0625 113.3359 146.8359 Q113.5625 146.6094 113.8906 146.6094 Q114.2188 146.6094 114.4453 146.8359 Q114.6719 147.0625 114.6719 147.3906 Q114.6719 147.7188 114.4453 147.9453 Q114.2188 148.1719 113.8906 148.1719 Q113.5625 148.1719 113.3359 147.9453 Q113.1094 147.7188 113.1094 147.3906 ZM111.8125 139.6406 Q112.4375 139.3594 113 139.2266 Q113.5625 139.0938 114.0469 139.0938 Q115.3438 139.0938 116.1016 139.7188 Q116.8594 140.3438 116.8594 141.4062 Q116.8594 142.5 116.2109 143.1953 Q115.5625 143.8906 114.25 144.1875 L114.25 145.6719 L113.5312 145.6719 L113.5312 143.75 Q114.5625 143.5 115.0938 142.9062 Q115.625 142.3125 115.625 141.4062 Q115.625 140.5938 115.1953 140.1328 Q114.7656 139.6719 114.0312 139.6719 Q113.3594 139.6719 112.9297 140.0547 Q112.5 140.4375 112.3906 141.1562 L111.8125 141.1562 L111.8125 139.6406 Z" style="fill:black; stroke:none;" /></g><g ID="li-1:4,7" style="fill:white; text-rendering:optimizeSpeed; font-family:'Serif'; stroke:white;"><rect height="10" style="stroke:none;" width="6" x="120" y="112" /><path d="M122.1094 121.3906 Q122.1094 121.0625 122.3359 120.8359 Q122.5625 120.6094 122.8906 120.6094 Q123.2188 120.6094 123.4453 120.8359 Q123.6719 121.0625 123.6719 121.3906 Q123.6719 121.7188 123.4453 121.9453 Q123.2188 122.1719 122.8906 122.1719 Q122.5625 122.1719 122.3359 121.9453 Q122.1094 121.7188 122.1094 121.3906 ZM120.8125 113.6406 Q121.4375 113.3594 122 113.2266 Q122.5625 113.0938 123.0469 113.0938 Q124.3438 113.0938 125.1016 113.7188 Q125.8594 114.3438 125.8594 115.4062 Q125.8594 116.5 125.2109 117.1953 Q124.5625 117.8906 123.25 118.1875 L123.25 119.6719 L122.5312 119.6719 L122.5312 117.75 Q123.5625 117.5 124.0938 116.9062 Q124.625 116.3125 124.625 115.4062 Q124.625 114.5938 124.1953 114.1328 Q123.7656 113.6719 123.0312 113.6719 Q122.3594 113.6719 121.9297 114.0547 Q121.5 114.4375 121.3906 115.1562 L120.8125 115.1562 L120.8125 113.6406 Z" style="fill:black; stroke:none;" /><rect height="10" style="stroke:none;" width="6" x="104" y="104" /><path d="M106.1094 113.3906 Q106.1094 113.0625 106.3359 112.8359 Q106.5625 112.6094 106.8906 112.6094 Q107.2188 112.6094 107.4453 112.8359 Q107.6719 113.0625 107.6719 113.3906 Q107.6719 113.7188 107.4453 113.9453 Q107.2188 114.1719 106.8906 114.1719 Q106.5625 114.1719 106.3359 113.9453 Q106.1094 113.7188 106.1094 113.3906 ZM104.8125 105.6406 Q105.4375 105.3594 106 105.2266 Q106.5625 105.0938 107.0469 105.0938 Q108.3438 105.0938 109.1016 105.7188 Q109.8594 106.3438 109.8594 107.4062 Q109.8594 108.5 109.2109 109.1953 Q108.5625 109.8906 107.25 110.1875 L107.25 111.6719 L106.5312 111.6719 L106.5312 109.75 Q107.5625 109.5 108.0938 108.9062 Q108.625 108.3125 108.625 107.4062 Q108.625 106.5938 108.1953 106.1328 Q107.7656 105.6719 107.0312 105.6719 Q106.3594 105.6719 105.9297 106.0547 Q105.5 106.4375 105.3906 107.1562 L104.8125 107.1562 L104.8125 105.6406 Z" style="fill:black; stroke:none;" /></g><g ID="l-1:5,10" style="text-rendering:optimizeSpeed;"><polygon points=" 145 41 93 41" style="fill:none;" /></g><g ID="r-1:5" style="fill:white; text-rendering:optimizeSpeed; stroke:white;" wurcs_mono_id="9"><circle cx="145" cy="41" r="11" style="clip-path:url(#clipPath9); stroke:none;" /><rect height="22" style="clip-path:url(#clipPath9); fill:rgb(0,166,81); stroke:none;" width="22" x="134" y="30" /><rect height="22" style="clip-path:url(#clipPath9); fill:none; stroke:black;" width="22" x="134" y="30" /><circle cx="145" cy="41" r="11" style="fill:none; stroke:black;" /></g><g ID="l-1:10,11" style="text-rendering:optimizeSpeed;"><polygon points=" 93 41 41 41" style="fill:none;" /></g><g ID="r-1:10" style="fill:white; text-rendering:optimizeSpeed; stroke:white;" wurcs_mono_id="10"><rect height="22" style="clip-path:url(#clipPath10); stroke:none;" width="22" x="82" y="30" /><rect height="22" style="clip-path:url(#clipPath10); fill:rgb(0,144,188); stroke:none;" width="22" x="82" y="30" /><rect height="22" style="clip-path:url(#clipPath10); fill:none; stroke:black;" width="22" x="82" y="30" /><rect height="22" style="fill:none; stroke:black;" width="22" x="82" y="30" /></g><g ID="r-1:11" style="fill:white; text-rendering:optimizeSpeed; stroke:white;" wurcs_mono_id="11"><circle cx="41" cy="41" r="11" style="clip-path:url(#clipPath11); stroke:none;" /><rect height="22" style="clip-path:url(#clipPath11); fill:rgb(255,212,0); stroke:none;" width="22" x="30" y="30" /><rect height="22" style="clip-path:url(#clipPath11); fill:none; stroke:black;" width="22" x="30" y="30" /><circle cx="41" cy="41" r="11" style="fill:none; stroke:black;" /></g><g ID="li-1:10,11" style="fill:white; text-rendering:optimizeSpeed; font-family:'Serif'; stroke:white;"><rect height="9" style="stroke:none;" width="8" x="70" y="44" /><path d="M74.1875 50.0312 L74.1875 45.375 L71.2031 50.0312 L74.1875 50.0312 ZM76.7656 53 L72.7812 53 L72.7812 52.375 L74.1875 52.375 L74.1875 50.6562 L70.375 50.6562 L70.375 50.0156 L74.2031 44.0938 L75.3594 44.0938 L75.3594 50.0312 L77.0312 50.0312 L77.0312 50.6562 L75.3594 50.6562 L75.3594 52.375 L76.7656 52.375 L76.7656 53 Z" style="fill:black; stroke:none;" /><rect height="13" style="stroke:none;" width="7" x="56" y="42" /><path d="M57.8281 54.25 Q58.2969 54.5938 59.1719 54.5938 Q60.0625 54.5938 60.5781 54.0703 Q61.0938 53.5469 61.0938 52.6562 Q61.0938 51.4219 60.5625 50.8906 Q60.0156 50.3594 59 50.3594 L58.4375 50.3594 L58.4375 49.7188 L58.7344 49.7188 Q59.4844 49.7188 60 49.2969 Q60.4219 48.9531 60.4219 48.0156 Q60.4219 47.6094 60.1406 47.1406 Q59.6875 46.375 59.1562 46.3906 Q57.8281 46.4375 57.8281 48.7812 L57.8281 54.25 ZM56.75 57.5 L56.75 48.7812 Q56.75 46.3281 58.0781 46 Q58.7656 45.8125 59.25 45.8125 Q60.3438 45.8125 61.0469 46.6719 Q61.6094 47.3594 61.6094 47.9375 Q61.6094 48.7812 61.2031 49.2656 Q60.7969 49.75 60.0625 49.9844 Q61.1406 50.1406 61.75 50.7812 Q62.3281 51.4062 62.3281 52.6328 Q62.3281 53.8594 61.5078 54.5156 Q60.6875 55.1719 59.1406 55.1719 Q58.1875 55.1719 57.8281 55.0312 L57.8281 57.5 L56.75 57.5 Z" style="fill:black; stroke:none;" /></g><g ID="li-1:5,10" style="fill:white; text-rendering:optimizeSpeed; font-family:'Serif'; stroke:white;"><rect height="10" style="stroke:none;" width="6" x="123" y="44" /><path d="M125.1094 53.3906 Q125.1094 53.0625 125.3359 52.8359 Q125.5625 52.6094 125.8906 52.6094 Q126.2188 52.6094 126.4453 52.8359 Q126.6719 53.0625 126.6719 53.3906 Q126.6719 53.7188 126.4453 53.9453 Q126.2188 54.1719 125.8906 54.1719 Q125.5625 54.1719 125.3359 53.9453 Q125.1094 53.7188 125.1094 53.3906 ZM123.8125 45.6406 Q124.4375 45.3594 125 45.2266 Q125.5625 45.0938 126.0469 45.0938 Q127.3438 45.0938 128.1016 45.7188 Q128.8594 46.3438 128.8594 47.4062 Q128.8594 48.5 128.2109 49.1953 Q127.5625 49.8906 126.25 50.1875 L126.25 51.6719 L125.5312 51.6719 L125.5312 49.75 Q126.5625 49.5 127.0938 48.9062 Q127.625 48.3125 127.625 47.4062 Q127.625 46.5938 127.1953 46.1328 Q126.7656 45.6719 126.0312 45.6719 Q125.3594 45.6719 124.9297 46.0547 Q124.5 46.4375 124.3906 47.1562 L123.8125 47.1562 L123.8125 45.6406 Z" style="fill:black; stroke:none;" /><rect height="10" style="stroke:none;" width="6" x="109" y="44" /><path d="M111.1094 53.3906 Q111.1094 53.0625 111.3359 52.8359 Q111.5625 52.6094 111.8906 52.6094 Q112.2188 52.6094 112.4453 52.8359 Q112.6719 53.0625 112.6719 53.3906 Q112.6719 53.7188 112.4453 53.9453 Q112.2188 54.1719 111.8906 54.1719 Q111.5625 54.1719 111.3359 53.9453 Q111.1094 53.7188 111.1094 53.3906 ZM109.8125 45.6406 Q110.4375 45.3594 111 45.2266 Q111.5625 45.0938 112.0469 45.0938 Q113.3438 45.0938 114.1016 45.7188 Q114.8594 46.3438 114.8594 47.4062 Q114.8594 48.5 114.2109 49.1953 Q113.5625 49.8906 112.25 50.1875 L112.25 51.6719 L111.5312 51.6719 L111.5312 49.75 Q112.5625 49.5 113.0938 48.9062 Q113.625 48.3125 113.625 47.4062 Q113.625 46.5938 113.1953 46.1328 Q112.7656 45.6719 112.0312 45.6719 Q111.3594 45.6719 110.9297 46.0547 Q110.5 46.4375 110.3906 47.1562 L109.8125 47.1562 L109.8125 45.6406 Z" style="fill:black; stroke:none;" /></g><g ID="li-1:3,4" style="fill:white; text-rendering:optimizeSpeed; font-family:'Serif'; stroke:white;"><rect height="10" style="stroke:none;" width="6" x="181" y="94" /><path d="M183.1094 103.3906 Q183.1094 103.0625 183.3359 102.8359 Q183.5625 102.6094 183.8906 102.6094 Q184.2188 102.6094 184.4453 102.8359 Q184.6719 103.0625 184.6719 103.3906 Q184.6719 103.7188 184.4453 103.9453 Q184.2188 104.1719 183.8906 104.1719 Q183.5625 104.1719 183.3359 103.9453 Q183.1094 103.7188 183.1094 103.3906 ZM181.8125 95.6406 Q182.4375 95.3594 183 95.2266 Q183.5625 95.0938 184.0469 95.0938 Q185.3438 95.0938 186.1016 95.7188 Q186.8594 96.3438 186.8594 97.4062 Q186.8594 98.5 186.2109 99.1953 Q185.5625 99.8906 184.25 100.1875 L184.25 101.6719 L183.5312 101.6719 L183.5312 99.75 Q184.5625 99.5 185.0938 98.9062 Q185.625 98.3125 185.625 97.4062 Q185.625 96.5938 185.1953 96.1328 Q184.7656 95.6719 184.0312 95.6719 Q183.3594 95.6719 182.9297 96.0547 Q182.5 96.4375 182.3906 97.1562 L181.8125 97.1562 L181.8125 95.6406 Z" style="fill:black; stroke:none;" /><rect height="8" style="stroke:none;" width="8" x="163" y="108" /><path d="M168.1875 114.4688 L167.9531 115.1094 Q167.7656 115.625 167.2031 115.9375 Q166.8438 116.1562 166.2031 116.1406 Q165.0469 116.1406 164.3281 115.2344 Q163.5938 114.3281 163.5938 112.8594 Q163.5938 111.4219 164.3281 110.4844 Q165.0156 109.5938 166.4531 109.6094 Q167.4531 109.6094 167.9531 110 Q168.4062 110.3438 168.5781 111.0938 L168.625 111.3125 L168.8438 110.6719 Q169.0625 110.0469 169.6562 109.75 L170.25 109.75 L170.25 110.0938 Q169.6875 110.2656 169.5 110.8125 L168.8906 112.4844 L169.2969 114.2812 Q169.5 115.2031 169.7344 115.2969 Q170.0469 115.4375 170.7812 115 L170.7812 115.7188 Q169.5938 116.4062 168.75 115.6875 Q168.375 115.3594 168.2656 114.875 L168.1875 114.4688 ZM167.9219 113.3125 L167.5625 111.5938 Q167.2656 110.2188 166.4688 110.2188 Q165.7969 110.2031 165.2812 110.9375 Q164.8594 111.5156 164.8594 112.875 Q164.8594 114.1719 165.2812 114.8281 Q165.75 115.5469 166.5312 115.5 Q167.2031 115.4375 167.6875 114 L167.9219 113.3125 Z" style="fill:black; stroke:none;" /></g><g ID="li-1:3,5" style="fill:white; text-rendering:optimizeSpeed; font-family:'Serif'; stroke:white;"><rect height="10" style="stroke:none;" width="6" x="171" y="68" /><path d="M173.1094 77.3906 Q173.1094 77.0625 173.3359 76.8359 Q173.5625 76.6094 173.8906 76.6094 Q174.2188 76.6094 174.4453 76.8359 Q174.6719 77.0625 174.6719 77.3906 Q174.6719 77.7188 174.4453 77.9453 Q174.2188 78.1719 173.8906 78.1719 Q173.5625 78.1719 173.3359 77.9453 Q173.1094 77.7188 173.1094 77.3906 ZM171.8125 69.6406 Q172.4375 69.3594 173 69.2266 Q173.5625 69.0938 174.0469 69.0938 Q175.3438 69.0938 176.1016 69.7188 Q176.8594 70.3438 176.8594 71.4062 Q176.8594 72.5 176.2109 73.1953 Q175.5625 73.8906 174.25 74.1875 L174.25 75.6719 L173.5312 75.6719 L173.5312 73.75 Q174.5625 73.5 175.0938 72.9062 Q175.625 72.3125 175.625 71.4062 Q175.625 70.5938 175.1953 70.1328 Q174.7656 69.6719 174.0312 69.6719 Q173.3594 69.6719 172.9297 70.0547 Q172.5 70.4375 172.3906 71.1562 L171.8125 71.1562 L171.8125 69.6406 Z" style="fill:black; stroke:none;" /><rect height="8" style="stroke:none;" width="8" x="153" y="56" /><path d="M158.1875 62.4688 L157.9531 63.1094 Q157.7656 63.625 157.2031 63.9375 Q156.8438 64.1562 156.2031 64.1406 Q155.0469 64.1406 154.3281 63.2344 Q153.5938 62.3281 153.5938 60.8594 Q153.5938 59.4219 154.3281 58.4844 Q155.0156 57.5938 156.4531 57.6094 Q157.4531 57.6094 157.9531 58 Q158.4062 58.3438 158.5781 59.0938 L158.625 59.3125 L158.8438 58.6719 Q159.0625 58.0469 159.6562 57.75 L160.25 57.75 L160.25 58.0938 Q159.6875 58.2656 159.5 58.8125 L158.8906 60.4844 L159.2969 62.2812 Q159.5 63.2031 159.7344 63.2969 Q160.0469 63.4375 160.7812 63 L160.7812 63.7188 Q159.5938 64.4062 158.75 63.6875 Q158.375 63.3594 158.2656 62.875 L158.1875 62.4688 ZM157.9219 61.3125 L157.5625 59.5938 Q157.2656 58.2188 156.4688 58.2188 Q155.7969 58.2031 155.2812 58.9375 Q154.8594 59.5156 154.8594 60.875 Q154.8594 62.1719 155.2812 62.8281 Q155.75 63.5469 156.5312 63.5 Q157.2031 63.4375 157.6875 62 L157.9219 61.3125 Z" style="fill:black; stroke:none;" /></g><g ID="li-1:2,3" style="fill:white; text-rendering:optimizeSpeed; font-family:'Serif'; stroke:white;"><rect height="9" style="stroke:none;" width="8" x="226" y="83" /><path d="M230.1875 89.0312 L230.1875 84.375 L227.2031 89.0312 L230.1875 89.0312 ZM232.7656 92 L228.7812 92 L228.7812 91.375 L230.1875 91.375 L230.1875 89.6562 L226.375 89.6562 L226.375 89.0156 L230.2031 83.0938 L231.3594 83.0938 L231.3594 89.0312 L233.0312 89.0312 L233.0312 89.6562 L231.3594 89.6562 L231.3594 91.375 L232.7656 91.375 L232.7656 92 Z" style="fill:black; stroke:none;" /><rect height="13" style="stroke:none;" width="7" x="212" y="81" /><path d="M213.8281 93.25 Q214.2969 93.5938 215.1719 93.5938 Q216.0625 93.5938 216.5781 93.0703 Q217.0938 92.5469 217.0938 91.6562 Q217.0938 90.4219 216.5625 89.8906 Q216.0156 89.3594 215 89.3594 L214.4375 89.3594 L214.4375 88.7188 L214.7344 88.7188 Q215.4844 88.7188 216 88.2969 Q216.4219 87.9531 216.4219 87.0156 Q216.4219 86.6094 216.1406 86.1406 Q215.6875 85.375 215.1562 85.3906 Q213.8281 85.4375 213.8281 87.7812 L213.8281 93.25 ZM212.75 96.5 L212.75 87.7812 Q212.75 85.3281 214.0781 85 Q214.7656 84.8125 215.25 84.8125 Q216.3438 84.8125 217.0469 85.6719 Q217.6094 86.3594 217.6094 86.9375 Q217.6094 87.7812 217.2031 88.2656 Q216.7969 88.75 216.0625 88.9844 Q217.1406 89.1406 217.75 89.7812 Q218.3281 90.4062 218.3281 91.6328 Q218.3281 92.8594 217.5078 93.5156 Q216.6875 94.1719 215.1406 94.1719 Q214.1875 94.1719 213.8281 94.0312 L213.8281 96.5 L212.75 96.5 Z" style="fill:black; stroke:none;" /></g><g ID="li-1:1,2" style="fill:white; text-rendering:optimizeSpeed; font-family:'Serif'; stroke:white;"><rect height="9" style="stroke:none;" width="8" x="278" y="83" /><path d="M282.1875 89.0312 L282.1875 84.375 L279.2031 89.0312 L282.1875 89.0312 ZM284.7656 92 L280.7812 92 L280.7812 91.375 L282.1875 91.375 L282.1875 89.6562 L278.375 89.6562 L278.375 89.0156 L282.2031 83.0938 L283.3594 83.0938 L283.3594 89.0312 L285.0312 89.0312 L285.0312 89.6562 L283.3594 89.6562 L283.3594 91.375 L284.7656 91.375 L284.7656 92 Z" style="fill:black; stroke:none;" /><rect height="13" style="stroke:none;" width="7" x="264" y="81" /><path d="M265.8281 93.25 Q266.2969 93.5938 267.1719 93.5938 Q268.0625 93.5938 268.5781 93.0703 Q269.0938 92.5469 269.0938 91.6562 Q269.0938 90.4219 268.5625 89.8906 Q268.0156 89.3594 267 89.3594 L266.4375 89.3594 L266.4375 88.7188 L266.7344 88.7188 Q267.4844 88.7188 268 88.2969 Q268.4219 87.9531 268.4219 87.0156 Q268.4219 86.6094 268.1406 86.1406 Q267.6875 85.375 267.1562 85.3906 Q265.8281 85.4375 265.8281 87.7812 L265.8281 93.25 ZM264.75 96.5 L264.75 87.7812 Q264.75 85.3281 266.0781 85 Q266.7656 84.8125 267.25 84.8125 Q268.3438 84.8125 269.0469 85.6719 Q269.6094 86.3594 269.6094 86.9375 Q269.6094 87.7812 269.2031 88.2656 Q268.7969 88.75 268.0625 88.9844 Q269.1406 89.1406 269.75 89.7812 Q270.3281 90.4062 270.3281 91.6328 Q270.3281 92.8594 269.5078 93.5156 Q268.6875 94.1719 267.1406 94.1719 Q266.1875 94.1719 265.8281 94.0312 L265.8281 96.5 L264.75 96.5 Z" style="fill:black; stroke:none;" /></g></g></svg>