<svg xmlns="http://www.w3.org/2000/svg" style="fill-opacity:1; color-rendering:auto; color-interpolation:auto; text-rendering:auto; stroke:black; stroke-linecap:square; stroke-miterlimit:10; shape-rendering:auto; stroke-opacity:1; fill:black; stroke-dasharray:none; font-weight:normal; stroke-width:1; font-family:'Dialog'; font-style:normal; stroke-linejoin:miter; font-size:12px; stroke-dashoffset:0; image-rendering:auto;"><defs id="genericDefs" /><g><defs id="defs1"><clipPath clipPathUnits="userSpaceOnUse" id="clipPath1"><path d="M186 56 L208 56 L208 78 L186 78 L186 56 Z" /></clipPath><clipPath clipPathUnits="userSpaceOnUse" id="clipPath2"><path d="M134 82 L156 82 L156 104 L134 104 L134 82 Z" /></clipPath><clipPath clipPathUnits="userSpaceOnUse" id="clipPath3"><path d="M104 93 C104 99.0751 99.0751 104 93 104 C86.9249 104 82 99.0751 82 93 C82 86.9249 86.9249 82 93 82 C99.0751 82 104 86.9249 104 93 Z" /></clipPath><clipPath clipPathUnits="userSpaceOnUse" id="clipPath4"><path d="M93 134 L104 156 L82 156 Z" style="fill-rule:evenodd;" /></clipPath><clipPath clipPathUnits="userSpaceOnUse" id="clipPath5"><path d="M30 82 L52 82 L52 104 L30 104 L30 82 Z" /></clipPath><clipPath clipPathUnits="userSpaceOnUse" id="clipPath6"><path d="M156 41 C156 47.0751 151.0751 52 145 52 C138.9249 52 134 47.0751 134 41 C134 34.9249 138.9249 30 145 30 C151.0751 30 156 34.9249 156 41 Z" /></clipPath><clipPath clipPathUnits="userSpaceOnUse" id="clipPath7"><path d="M82 30 L104 30 L104 52 L82 52 L82 30 Z" /></clipPath></defs><g style="fill:white; text-rendering:optimizeSpeed; stroke:white;"><rect height="186" style="stroke:none;" width="238" x="0" y="0" /></g><g ID="l-1:1,2" style="text-rendering:optimizeSpeed;"><polygon points=" 197 67 145 93" style="fill:none;" /></g><g ID="l-1:1,3" style="text-rendering:optimizeSpeed;"><polygon points=" 197 67 145 41" style="fill:none;" /></g><g ID="r-1:1" style="fill:white; text-rendering:optimizeSpeed; stroke:white;" wurcs_mono_id="1"><rect height="22" style="clip-path:url(#clipPath1); stroke:none;" width="22" x="186" y="56" /><rect height="22" style="clip-path:url(#clipPath1); fill:rgb(255,212,0); stroke:none;" width="22" x="186" y="56" /><rect height="22" style="clip-path:url(#clipPath1); fill:none; stroke:black;" width="22" x="186" y="56" /><rect height="22" style="fill:none; stroke:black;" width="22" x="186" y="56" /></g><g ID="l-1:2,4" style="text-rendering:optimizeSpeed;"><polygon points=" 145 93 93 93" style="fill:none;" /></g><g ID="r-1:2" style="fill:white; text-rendering:optimizeSpeed; stroke:white;" wurcs_mono_id="2"><rect height="22" style="clip-path:url(#clipPath2); stroke:none;" width="22" x="134" y="82" /><rect height="22" style="clip-path:url(#clipPath2); fill:rgb(0,144,188); stroke:none;" width="22" x="134" y="82" /><rect height="22" style="clip-path:url(#clipPath2); fill:none; stroke:black;" width="22" x="134" y="82" /><rect height="22" style="fill:none; stroke:black;" width="22" x="134" y="82" /></g><g ID="l-1:4,5" style="text-rendering:optimizeSpeed;"><polygon points=" 93 93 93 145" style="fill:none;" /></g><g ID="l-1:4,6" style="text-rendering:optimizeSpeed;"><polygon points=" 93 93 41 93" style="fill:none;" /></g><g ID="r-1:4" style="fill:white; text-rendering:optimizeSpeed; stroke:white;" wurcs_mono_id="3"><circle cx="93" cy="93" r="11" style="clip-path:url(#clipPath3); stroke:none;" /><rect height="22" style="clip-path:url(#clipPath3); fill:rgb(255,212,0); stroke:none;" width="22" x="82" y="82" /><rect height="22" style="clip-path:url(#clipPath3); fill:none; stroke:black;" width="22" x="82" y="82" /><circle cx="93" cy="93" r="11" style="fill:none; stroke:black;" /></g><g ID="r-1:5" style="fill:white; text-rendering:optimizeSpeed; stroke:white;" wurcs_mono_id="4"><polygon points=" 93 134 104 156 82 156" style="stroke:none; clip-path:url(#clipPath4);" /><rect height="22" style="clip-path:url(#clipPath4); fill:rgb(237,28,36); stroke:none;" width="22" x="82" y="134" /><rect height="22" style="clip-path:url(#clipPath4); fill:none; stroke:black;" width="22" x="82" y="134" /><polygon points=" 93 134 104 156 82 156" style="fill:none; stroke:black;" /></g><g ID="r-1:6" style="fill:white; text-rendering:optimizeSpeed; stroke:white;" wurcs_mono_id="5"><rect height="22" style="clip-path:url(#clipPath5); stroke:none;" width="22" x="30" y="82" /><rect height="22" style="clip-path:url(#clipPath5); fill:rgb(255,212,0); stroke:none;" width="22" x="30" y="82" /><rect height="22" style="clip-path:url(#clipPath5); fill:none; stroke:black;" width="22" x="30" y="82" /><rect height="22" style="fill:none; stroke:black;" width="22" x="30" y="82" /></g><g ID="li-1:4,5" style="fill:white; text-rendering:optimizeSpeed; font-family:'Serif'; stroke:white;"><rect height="9" style="stroke:none;" width="7" x="97" y="107" /><path d="M98.5312 109.3438 L97.875 109.3438 L97.875 107.7812 Q98.5 107.4375 99.1406 107.2656 Q99.7812 107.0938 100.3906 107.0938 Q101.75 107.0938 102.5391 107.7578 Q103.3281 108.4219 103.3281 109.5469 Q103.3281 110.8438 101.5469 112.625 Q101.4062 112.7656 101.3281 112.8281 L99.125 115.0312 L102.7656 115.0312 L102.7656 113.9531 L103.4531 113.9531 L103.4531 116 L97.8125 116 L97.8125 115.3594 L100.4688 112.7188 Q101.3438 111.8281 101.7188 111.0938 Q102.0938 110.3594 102.0938 109.5469 Q102.0938 108.6719 101.6328 108.1719 Q101.1719 107.6719 100.375 107.6719 Q99.5312 107.6719 99.0781 108.0859 Q98.625 108.5 98.5312 109.3438 Z" style="fill:black; stroke:none;" /><rect height="8" style="stroke:none;" width="8" x="97" y="122" /><path d="M102.1875 128.4688 L101.9531 129.1094 Q101.7656 129.625 101.2031 129.9375 Q100.8438 130.1562 100.2031 130.1406 Q99.0469 130.1406 98.3281 129.2344 Q97.5938 128.3281 97.5938 126.8594 Q97.5938 125.4219 98.3281 124.4844 Q99.0156 123.5938 100.4531 123.6094 Q101.4531 123.6094 101.9531 124 Q102.4062 124.3438 102.5781 125.0938 L102.625 125.3125 L102.8438 124.6719 Q103.0625 124.0469 103.6562 123.75 L104.25 123.75 L104.25 124.0938 Q103.6875 124.2656 103.5 124.8125 L102.8906 126.4844 L103.2969 128.2812 Q103.5 129.2031 103.7344 129.2969 Q104.0469 129.4375 104.7812 129 L104.7812 129.7188 Q103.5938 130.4062 102.75 129.6875 Q102.375 129.3594 102.2656 128.875 L102.1875 128.4688 ZM101.9219 127.3125 L101.5625 125.5938 Q101.2656 124.2188 100.4688 124.2188 Q99.7969 124.2031 99.2812 124.9375 Q98.8594 125.5156 98.8594 126.875 Q98.8594 128.1719 99.2812 128.8281 Q99.75 129.5469 100.5312 129.5 Q101.2031 129.4375 101.6875 128 L101.9219 127.3125 Z" style="fill:black; stroke:none;" /></g><g ID="li-1:4,6" style="fill:white; text-rendering:optimizeSpeed; font-family:'Serif'; stroke:white;"><rect height="10" style="stroke:none;" width="7" x="70" y="96" /><path d="M71.1719 97.625 Q71.8594 97.3594 72.4844 97.2266 Q73.1094 97.0938 73.6562 97.0938 Q74.9531 97.0938 75.6719 97.6484 Q76.3906 98.2031 76.3906 99.1875 Q76.3906 99.9688 75.8906 100.5 Q75.3906 101.0312 74.4844 101.2188 Q75.5625 101.375 76.1562 102.0078 Q76.75 102.6406 76.75 103.6406 Q76.75 104.8594 75.9219 105.5156 Q75.0938 106.1719 73.5469 106.1719 Q72.8594 106.1719 72.2109 106.0234 Q71.5625 105.875 70.9219 105.5781 L70.9219 103.875 L71.5781 103.875 Q71.625 104.7188 72.1406 105.1562 Q72.6562 105.5938 73.5781 105.5938 Q74.4688 105.5938 74.9922 105.0703 Q75.5156 104.5469 75.5156 103.6562 Q75.5156 102.625 74.9766 102.0938 Q74.4375 101.5625 73.4062 101.5625 L72.8594 101.5625 L72.8594 100.9531 L73.1406 100.9531 Q74.1719 100.9531 74.6875 100.5312 Q75.2031 100.1094 75.2031 99.25 Q75.2031 98.4844 74.7812 98.0781 Q74.3594 97.6719 73.5625 97.6719 Q72.7656 97.6719 72.3359 98.0469 Q71.9062 98.4219 71.8281 99.1562 L71.1719 99.1562 L71.1719 97.625 Z" style="fill:black; stroke:none;" /><rect height="8" style="stroke:none;" width="8" x="56" y="97" /><path d="M61.1875 103.4688 L60.9531 104.1094 Q60.7656 104.625 60.2031 104.9375 Q59.8438 105.1562 59.2031 105.1406 Q58.0469 105.1406 57.3281 104.2344 Q56.5938 103.3281 56.5938 101.8594 Q56.5938 100.4219 57.3281 99.4844 Q58.0156 98.5938 59.4531 98.6094 Q60.4531 98.6094 60.9531 99 Q61.4062 99.3438 61.5781 100.0938 L61.625 100.3125 L61.8438 99.6719 Q62.0625 99.0469 62.6562 98.75 L63.25 98.75 L63.25 99.0938 Q62.6875 99.2656 62.5 99.8125 L61.8906 101.4844 L62.2969 103.2812 Q62.5 104.2031 62.7344 104.2969 Q63.0469 104.4375 63.7812 104 L63.7812 104.7188 Q62.5938 105.4062 61.75 104.6875 Q61.375 104.3594 61.2656 103.875 L61.1875 103.4688 ZM60.9219 102.3125 L60.5625 100.5938 Q60.2656 99.2188 59.4688 99.2188 Q58.7969 99.2031 58.2812 99.9375 Q57.8594 100.5156 57.8594 101.875 Q57.8594 103.1719 58.2812 103.8281 Q58.75 104.5469 59.5312 104.5 Q60.2031 104.4375 60.6875 103 L60.9219 102.3125 Z" style="fill:black; stroke:none;" /></g><g ID="li-1:2,4" style="fill:white; text-rendering:optimizeSpeed; font-family:'Serif'; stroke:white;"><rect height="9" style="stroke:none;" width="8" x="122" y="96" /><path d="M126.1875 102.0312 L126.1875 97.375 L123.2031 102.0312 L126.1875 102.0312 ZM128.7656 105 L124.7812 105 L124.7812 104.375 L126.1875 104.375 L126.1875 102.6562 L122.375 102.6562 L122.375 102.0156 L126.2031 96.0938 L127.3594 96.0938 L127.3594 102.0312 L129.0312 102.0312 L129.0312 102.6562 L127.3594 102.6562 L127.3594 104.375 L128.7656 104.375 L128.7656 105 Z" style="fill:black; stroke:none;" /><rect height="13" style="stroke:none;" width="7" x="108" y="94" /><path d="M109.8281 106.25 Q110.2969 106.5938 111.1719 106.5938 Q112.0625 106.5938 112.5781 106.0703 Q113.0938 105.5469 113.0938 104.6562 Q113.0938 103.4219 112.5625 102.8906 Q112.0156 102.3594 111 102.3594 L110.4375 102.3594 L110.4375 101.7188 L110.7344 101.7188 Q111.4844 101.7188 112 101.2969 Q112.4219 100.9531 112.4219 100.0156 Q112.4219 99.6094 112.1406 99.1406 Q111.6875 98.375 111.1562 98.3906 Q109.8281 98.4375 109.8281 100.7812 L109.8281 106.25 ZM108.75 109.5 L108.75 100.7812 Q108.75 98.3281 110.0781 98 Q110.7656 97.8125 111.25 97.8125 Q112.3438 97.8125 113.0469 98.6719 Q113.6094 99.3594 113.6094 99.9375 Q113.6094 100.7812 113.2031 101.2656 Q112.7969 101.75 112.0625 101.9844 Q113.1406 102.1406 113.75 102.7812 Q114.3281 103.4062 114.3281 104.6328 Q114.3281 105.8594 113.5078 106.5156 Q112.6875 107.1719 111.1406 107.1719 Q110.1875 107.1719 109.8281 107.0312 L109.8281 109.5 L108.75 109.5 Z" style="fill:black; stroke:none;" /></g><g ID="l-1:3,7" style="text-rendering:optimizeSpeed;"><polygon points=" 145 41 93 41" style="fill:none;" /></g><g ID="r-1:3" style="fill:white; text-rendering:optimizeSpeed; stroke:white;" wurcs_mono_id="6"><circle cx="145" cy="41" r="11" style="clip-path:url(#clipPath6); stroke:none;" /><rect height="22" style="clip-path:url(#clipPath6); fill:rgb(255,212,0); stroke:none;" width="22" x="134" y="30" /><rect height="22" style="clip-path:url(#clipPath6); fill:none; stroke:black;" width="22" x="134" y="30" /><circle cx="145" cy="41" r="11" style="fill:none; stroke:black;" /></g><g ID="r-1:7" style="fill:white; text-rendering:optimizeSpeed; stroke:white;" wurcs_mono_id="7"><rect height="22" style="clip-path:url(#clipPath7); stroke:none;" width="22" x="82" y="30" /><rect height="22" style="clip-path:url(#clipPath7); fill:rgb(0,144,188); stroke:none;" width="22" x="82" y="30" /><rect height="22" style="clip-path:url(#clipPath7); fill:none; stroke:black;" width="22" x="82" y="30" /><rect height="22" style="fill:none; stroke:black;" width="22" x="82" y="30" /></g><g ID="li-1:3,7" style="fill:white; text-rendering:optimizeSpeed; font-family:'Serif'; stroke:white;"><rect height="10" style="stroke:none;" width="7" x="122" y="44" /><path d="M123.1719 45.625 Q123.8594 45.3594 124.4844 45.2266 Q125.1094 45.0938 125.6562 45.0938 Q126.9531 45.0938 127.6719 45.6484 Q128.3906 46.2031 128.3906 47.1875 Q128.3906 47.9688 127.8906 48.5 Q127.3906 49.0312 126.4844 49.2188 Q127.5625 49.375 128.1562 50.0078 Q128.75 50.6406 128.75 51.6406 Q128.75 52.8594 127.9219 53.5156 Q127.0938 54.1719 125.5469 54.1719 Q124.8594 54.1719 124.2109 54.0234 Q123.5625 53.875 122.9219 53.5781 L122.9219 51.875 L123.5781 51.875 Q123.625 52.7188 124.1406 53.1562 Q124.6562 53.5938 125.5781 53.5938 Q126.4688 53.5938 126.9922 53.0703 Q127.5156 52.5469 127.5156 51.6562 Q127.5156 50.625 126.9766 50.0938 Q126.4375 49.5625 125.4062 49.5625 L124.8594 49.5625 L124.8594 48.9531 L125.1406 48.9531 Q126.1719 48.9531 126.6875 48.5312 Q127.2031 48.1094 127.2031 47.25 Q127.2031 46.4844 126.7812 46.0781 Q126.3594 45.6719 125.5625 45.6719 Q124.7656 45.6719 124.3359 46.0469 Q123.9062 46.4219 123.8281 47.1562 L123.1719 47.1562 L123.1719 45.625 Z" style="fill:black; stroke:none;" /><rect height="13" style="stroke:none;" width="7" x="108" y="42" /><path d="M109.8281 54.25 Q110.2969 54.5938 111.1719 54.5938 Q112.0625 54.5938 112.5781 54.0703 Q113.0938 53.5469 113.0938 52.6562 Q113.0938 51.4219 112.5625 50.8906 Q112.0156 50.3594 111 50.3594 L110.4375 50.3594 L110.4375 49.7188 L110.7344 49.7188 Q111.4844 49.7188 112 49.2969 Q112.4219 48.9531 112.4219 48.0156 Q112.4219 47.6094 112.1406 47.1406 Q111.6875 46.375 111.1562 46.3906 Q109.8281 46.4375 109.8281 48.7812 L109.8281 54.25 ZM108.75 57.5 L108.75 48.7812 Q108.75 46.3281 110.0781 46 Q110.7656 45.8125 111.25 45.8125 Q112.3438 45.8125 113.0469 46.6719 Q113.6094 47.3594 113.6094 47.9375 Q113.6094 48.7812 113.2031 49.2656 Q112.7969 49.75 112.0625 49.9844 Q113.1406 50.1406 113.75 50.7812 Q114.3281 51.4062 114.3281 52.6328 Q114.3281 53.8594 113.5078 54.5156 Q112.6875 55.1719 111.1406 55.1719 Q110.1875 55.1719 109.8281 55.0312 L109.8281 57.5 L108.75 57.5 Z" style="fill:black; stroke:none;" /></g><g ID="li-1:1,2" style="fill:white; text-rendering:optimizeSpeed; font-family:'Serif'; stroke:white;"><rect height="11" style="stroke:none;" width="19" x="172" y="77" /><path d="M173.1719 79.625 Q173.8594 79.3594 174.4844 79.2266 Q175.1094 79.0938 175.6562 79.0938 Q176.9531 79.0938 177.6719 79.6484 Q178.3906 80.2031 178.3906 81.1875 Q178.3906 81.9688 177.8906 82.5 Q177.3906 83.0312 176.4844 83.2188 Q177.5625 83.375 178.1562 84.0078 Q178.75 84.6406 178.75 85.6406 Q178.75 86.8594 177.9219 87.5156 Q177.0938 88.1719 175.5469 88.1719 Q174.8594 88.1719 174.2109 88.0234 Q173.5625 87.875 172.9219 87.5781 L172.9219 85.875 L173.5781 85.875 Q173.625 86.7188 174.1406 87.1562 Q174.6562 87.5938 175.5781 87.5938 Q176.4688 87.5938 176.9922 87.0703 Q177.5156 86.5469 177.5156 85.6562 Q177.5156 84.625 176.9766 84.0938 Q176.4375 83.5625 175.4062 83.5625 L174.8594 83.5625 L174.8594 82.9531 L175.1406 82.9531 Q176.1719 82.9531 176.6875 82.5312 Q177.2031 82.1094 177.2031 81.25 Q177.2031 80.4844 176.7812 80.0781 Q176.3594 79.6719 175.5625 79.6719 Q174.7656 79.6719 174.3359 80.0469 Q173.9062 80.4219 173.8281 81.1562 L173.1719 81.1562 L173.1719 79.625 ZM182.7441 79.25 L183.6816 79.25 L180.5723 89.1094 L179.6348 89.1094 L182.7441 79.25 ZM187.5996 87.5938 Q188.4277 87.5938 188.873 86.9844 Q189.3184 86.375 189.3184 85.2344 Q189.3184 84.1094 188.873 83.5 Q188.4277 82.8906 187.5996 82.8906 Q186.7715 82.8906 186.3262 83.4766 Q185.8809 84.0625 185.8809 85.1719 Q185.8809 86.3281 186.3262 86.9609 Q186.7715 87.5938 187.5996 87.5938 ZM185.6934 83.1875 Q186.0996 82.75 186.5996 82.5312 Q187.0996 82.3125 187.7402 82.3125 Q189.0371 82.3125 189.7949 83.0938 Q190.5527 83.875 190.5527 85.2344 Q190.5527 86.5625 189.7402 87.3672 Q188.9277 88.1719 187.5527 88.1719 Q186.0684 88.1719 185.2715 87.0625 Q184.4746 85.9531 184.4746 83.9062 Q184.4746 81.6094 185.4199 80.3516 Q186.3652 79.0938 188.084 79.0938 Q188.5527 79.0938 189.0605 79.1797 Q189.5684 79.2656 190.0996 79.4375 L190.0996 80.8906 L189.4434 80.8906 Q189.3652 80.2969 188.9824 79.9844 Q188.5996 79.6719 187.959 79.6719 Q186.8184 79.6719 186.2637 80.5312 Q185.709 81.3906 185.6934 83.1875 Z" style="fill:black; stroke:none;" /><rect height="13" style="stroke:none;" width="7" x="163" y="84" /><path d="M164.8281 96.25 Q165.2969 96.5938 166.1719 96.5938 Q167.0625 96.5938 167.5781 96.0703 Q168.0938 95.5469 168.0938 94.6562 Q168.0938 93.4219 167.5625 92.8906 Q167.0156 92.3594 166 92.3594 L165.4375 92.3594 L165.4375 91.7188 L165.7344 91.7188 Q166.4844 91.7188 167 91.2969 Q167.4219 90.9531 167.4219 90.0156 Q167.4219 89.6094 167.1406 89.1406 Q166.6875 88.375 166.1562 88.3906 Q164.8281 88.4375 164.8281 90.7812 L164.8281 96.25 ZM163.75 99.5 L163.75 90.7812 Q163.75 88.3281 165.0781 88 Q165.7656 87.8125 166.25 87.8125 Q167.3438 87.8125 168.0469 88.6719 Q168.6094 89.3594 168.6094 89.9375 Q168.6094 90.7812 168.2031 91.2656 Q167.7969 91.75 167.0625 91.9844 Q168.1406 92.1406 168.75 92.7812 Q169.3281 93.4062 169.3281 94.6328 Q169.3281 95.8594 168.5078 96.5156 Q167.6875 97.1719 166.1406 97.1719 Q165.1875 97.1719 164.8281 97.0312 L164.8281 99.5 L163.75 99.5 Z" style="fill:black; stroke:none;" /></g><g ID="li-1:1,3" style="fill:white; text-rendering:optimizeSpeed; font-family:'Serif'; stroke:white;"><rect height="11" style="stroke:none;" width="19" x="165" y="59" /><path d="M166.1719 61.625 Q166.8594 61.3594 167.4844 61.2266 Q168.1094 61.0938 168.6562 61.0938 Q169.9531 61.0938 170.6719 61.6484 Q171.3906 62.2031 171.3906 63.1875 Q171.3906 63.9688 170.8906 64.5 Q170.3906 65.0312 169.4844 65.2188 Q170.5625 65.375 171.1562 66.0078 Q171.75 66.6406 171.75 67.6406 Q171.75 68.8594 170.9219 69.5156 Q170.0938 70.1719 168.5469 70.1719 Q167.8594 70.1719 167.2109 70.0234 Q166.5625 69.875 165.9219 69.5781 L165.9219 67.875 L166.5781 67.875 Q166.625 68.7188 167.1406 69.1562 Q167.6562 69.5938 168.5781 69.5938 Q169.4688 69.5938 169.9922 69.0703 Q170.5156 68.5469 170.5156 67.6562 Q170.5156 66.625 169.9766 66.0938 Q169.4375 65.5625 168.4062 65.5625 L167.8594 65.5625 L167.8594 64.9531 L168.1406 64.9531 Q169.1719 64.9531 169.6875 64.5312 Q170.2031 64.1094 170.2031 63.25 Q170.2031 62.4844 169.7812 62.0781 Q169.3594 61.6719 168.5625 61.6719 Q167.7656 61.6719 167.3359 62.0469 Q166.9062 62.4219 166.8281 63.1562 L166.1719 63.1562 L166.1719 61.625 ZM175.7441 61.25 L176.6816 61.25 L173.5723 71.1094 L172.6348 71.1094 L175.7441 61.25 ZM180.5996 69.5938 Q181.4277 69.5938 181.873 68.9844 Q182.3184 68.375 182.3184 67.2344 Q182.3184 66.1094 181.873 65.5 Q181.4277 64.8906 180.5996 64.8906 Q179.7715 64.8906 179.3262 65.4766 Q178.8809 66.0625 178.8809 67.1719 Q178.8809 68.3281 179.3262 68.9609 Q179.7715 69.5938 180.5996 69.5938 ZM178.6934 65.1875 Q179.0996 64.75 179.5996 64.5312 Q180.0996 64.3125 180.7402 64.3125 Q182.0371 64.3125 182.7949 65.0938 Q183.5527 65.875 183.5527 67.2344 Q183.5527 68.5625 182.7402 69.3672 Q181.9277 70.1719 180.5527 70.1719 Q179.0684 70.1719 178.2715 69.0625 Q177.4746 67.9531 177.4746 65.9062 Q177.4746 63.6094 178.4199 62.3516 Q179.3652 61.0938 181.084 61.0938 Q181.5527 61.0938 182.0605 61.1797 Q182.5684 61.2656 183.0996 61.4375 L183.0996 62.8906 L182.4434 62.8906 Q182.3652 62.2969 181.9824 61.9844 Q181.5996 61.6719 180.959 61.6719 Q179.8184 61.6719 179.2637 62.5312 Q178.709 63.3906 178.6934 65.1875 Z" style="fill:black; stroke:none;" /><rect height="13" style="stroke:none;" width="7" x="156" y="50" /><path d="M157.8281 62.25 Q158.2969 62.5938 159.1719 62.5938 Q160.0625 62.5938 160.5781 62.0703 Q161.0938 61.5469 161.0938 60.6562 Q161.0938 59.4219 160.5625 58.8906 Q160.0156 58.3594 159 58.3594 L158.4375 58.3594 L158.4375 57.7188 L158.7344 57.7188 Q159.4844 57.7188 160 57.2969 Q160.4219 56.9531 160.4219 56.0156 Q160.4219 55.6094 160.1406 55.1406 Q159.6875 54.375 159.1562 54.3906 Q157.8281 54.4375 157.8281 56.7812 L157.8281 62.25 ZM156.75 65.5 L156.75 56.7812 Q156.75 54.3281 158.0781 54 Q158.7656 53.8125 159.25 53.8125 Q160.3438 53.8125 161.0469 54.6719 Q161.6094 55.3594 161.6094 55.9375 Q161.6094 56.7812 161.2031 57.2656 Q160.7969 57.75 160.0625 57.9844 Q161.1406 58.1406 161.75 58.7812 Q162.3281 59.4062 162.3281 60.6328 Q162.3281 61.8594 161.5078 62.5156 Q160.6875 63.1719 159.1406 63.1719 Q158.1875 63.1719 157.8281 63.0312 L157.8281 65.5 L156.75 65.5 Z" style="fill:black; stroke:none;" /></g></g></svg>