<svg xmlns="http://www.w3.org/2000/svg" style="fill-opacity:1; color-rendering:auto; color-interpolation:auto; text-rendering:auto; stroke:black; stroke-linecap:square; stroke-miterlimit:10; shape-rendering:auto; stroke-opacity:1; fill:black; stroke-dasharray:none; font-weight:normal; stroke-width:1; font-family:'Dialog'; font-style:normal; stroke-linejoin:miter; font-size:12px; stroke-dashoffset:0; image-rendering:auto;"><defs id="genericDefs" /><g><defs id="defs1"><clipPath clipPathUnits="userSpaceOnUse" id="clipPath1"><path d="M394 82 L416 82 L416 104 L394 104 L394 82 Z" /></clipPath><clipPath clipPathUnits="userSpaceOnUse" id="clipPath2"><path d="M342 82 L364 82 L364 104 L342 104 L342 82 Z" /></clipPath><clipPath clipPathUnits="userSpaceOnUse" id="clipPath3"><path d="M312 93 C312 99.0751 307.0751 104 301 104 C294.9249 104 290 99.0751 290 93 C290 86.9249 294.9249 82 301 82 C307.0751 82 312 86.9249 312 93 Z" /></clipPath><clipPath clipPathUnits="userSpaceOnUse" id="clipPath4"><path d="M260 119 C260 125.0751 255.0751 130 249 130 C242.9249 130 238 125.0751 238 119 C238 112.9249 242.9249 108 249 108 C255.0751 108 260 112.9249 260 119 Z" /></clipPath><clipPath clipPathUnits="userSpaceOnUse" id="clipPath5"><path d="M260 67 C260 73.0751 255.0751 78 249 78 C242.9249 78 238 73.0751 238 67 C238 60.9249 242.9249 56 249 56 C255.0751 56 260 60.9249 260 67 Z" /></clipPath><clipPath clipPathUnits="userSpaceOnUse" id="clipPath6"><path d="M208 93 C208 99.0751 203.0751 104 197 104 C190.9249 104 186 99.0751 186 93 C186 86.9249 190.9249 82 197 82 C203.0751 82 208 86.9249 208 93 Z" /></clipPath><clipPath clipPathUnits="userSpaceOnUse" id="clipPath7"><path d="M156 93 C156 99.0751 151.0751 104 145 104 C138.9249 104 134 99.0751 134 93 C134 86.9249 138.9249 82 145 82 C151.0751 82 156 86.9249 156 93 Z" /></clipPath><clipPath clipPathUnits="userSpaceOnUse" id="clipPath8"><path d="M104 93 C104 99.0751 99.0751 104 93 104 C86.9249 104 82 99.0751 82 93 C82 86.9249 86.9249 82 93 82 C99.0751 82 104 86.9249 104 93 Z" /></clipPath><clipPath clipPathUnits="userSpaceOnUse" id="clipPath9"><path d="M52 93 C52 99.0751 47.0751 104 41 104 C34.9249 104 30 99.0751 30 93 C30 86.9249 34.9249 82 41 82 C47.0751 82 52 86.9249 52 93 Z" /></clipPath><clipPath clipPathUnits="userSpaceOnUse" id="clipPath10"><path d="M208 41 C208 47.0751 203.0751 52 197 52 C190.9249 52 186 47.0751 186 41 C186 34.9249 190.9249 30 197 30 C203.0751 30 208 34.9249 208 41 Z" /></clipPath></defs><g style="fill:white; text-rendering:optimizeSpeed; stroke:white;"><rect height="160" style="stroke:none;" width="446" x="0" y="0" /></g><g ID="l-1:1,2" style="text-rendering:optimizeSpeed;"><polygon points=" 405 93 353 93" style="fill:none;" /></g><g ID="r-1:1" style="fill:white; text-rendering:optimizeSpeed; stroke:white;" wurcs_mono_id="1"><rect height="22" style="clip-path:url(#clipPath1); stroke:none;" width="22" x="394" y="82" /><rect height="22" style="clip-path:url(#clipPath1); fill:rgb(0,144,188); stroke:none;" width="22" x="394" y="82" /><rect height="22" style="clip-path:url(#clipPath1); fill:none; stroke:black;" width="22" x="394" y="82" /><rect height="22" style="fill:none; stroke:black;" width="22" x="394" y="82" /></g><g ID="l-1:2,3" style="text-rendering:optimizeSpeed;"><polygon points=" 353 93 301 93" style="fill:none;" /></g><g ID="r-1:2" style="fill:white; text-rendering:optimizeSpeed; stroke:white;" wurcs_mono_id="2"><rect height="22" style="clip-path:url(#clipPath2); stroke:none;" width="22" x="342" y="82" /><rect height="22" style="clip-path:url(#clipPath2); fill:rgb(0,144,188); stroke:none;" width="22" x="342" y="82" /><rect height="22" style="clip-path:url(#clipPath2); fill:none; stroke:black;" width="22" x="342" y="82" /><rect height="22" style="fill:none; stroke:black;" width="22" x="342" y="82" /></g><g ID="l-1:3,4" style="text-rendering:optimizeSpeed;"><polygon points=" 301 93 249 119" style="fill:none;" /></g><g ID="l-1:3,5" style="text-rendering:optimizeSpeed;"><polygon points=" 301 93 249 67" style="fill:none;" /></g><g ID="r-1:3" style="fill:white; text-rendering:optimizeSpeed; stroke:white;" wurcs_mono_id="3"><circle cx="301" cy="93" r="11" style="clip-path:url(#clipPath3); stroke:none;" /><rect height="22" style="clip-path:url(#clipPath3); fill:rgb(0,166,81); stroke:none;" width="22" x="290" y="82" /><rect height="22" style="clip-path:url(#clipPath3); fill:none; stroke:black;" width="22" x="290" y="82" /><circle cx="301" cy="93" r="11" style="fill:none; stroke:black;" /></g><g ID="r-1:4" style="fill:white; text-rendering:optimizeSpeed; stroke:white;" wurcs_mono_id="4"><circle cx="249" cy="119" r="11" style="clip-path:url(#clipPath4); stroke:none;" /><rect height="22" style="clip-path:url(#clipPath4); fill:rgb(0,166,81); stroke:none;" width="22" x="238" y="108" /><rect height="22" style="clip-path:url(#clipPath4); fill:none; stroke:black;" width="22" x="238" y="108" /><circle cx="249" cy="119" r="11" style="fill:none; stroke:black;" /></g><g ID="l-1:5,6" style="text-rendering:optimizeSpeed;"><polygon points=" 249 67 197 93" style="fill:none;" /></g><g ID="l-1:5,7" style="text-rendering:optimizeSpeed;"><polygon points=" 249 67 197 41" style="fill:none;" /></g><g ID="r-1:5" style="fill:white; text-rendering:optimizeSpeed; stroke:white;" wurcs_mono_id="5"><circle cx="249" cy="67" r="11" style="clip-path:url(#clipPath5); stroke:none;" /><rect height="22" style="clip-path:url(#clipPath5); fill:rgb(0,166,81); stroke:none;" width="22" x="238" y="56" /><rect height="22" style="clip-path:url(#clipPath5); fill:none; stroke:black;" width="22" x="238" y="56" /><circle cx="249" cy="67" r="11" style="fill:none; stroke:black;" /></g><g ID="l-1:6,8" style="text-rendering:optimizeSpeed;"><polygon points=" 197 93 145 93" style="fill:none;" /></g><g ID="r-1:6" style="fill:white; text-rendering:optimizeSpeed; stroke:white;" wurcs_mono_id="6"><circle cx="197" cy="93" r="11" style="clip-path:url(#clipPath6); stroke:none;" /><rect height="22" style="clip-path:url(#clipPath6); fill:rgb(0,166,81); stroke:none;" width="22" x="186" y="82" /><rect height="22" style="clip-path:url(#clipPath6); fill:none; stroke:black;" width="22" x="186" y="82" /><circle cx="197" cy="93" r="11" style="fill:none; stroke:black;" /></g><g ID="l-1:8,9" style="text-rendering:optimizeSpeed;"><polygon points=" 145 93 93 93" style="fill:none;" /></g><g ID="r-1:8" style="fill:white; text-rendering:optimizeSpeed; stroke:white;" wurcs_mono_id="7"><circle cx="145" cy="93" r="11" style="clip-path:url(#clipPath7); stroke:none;" /><rect height="22" style="clip-path:url(#clipPath7); fill:rgb(0,166,81); stroke:none;" width="22" x="134" y="82" /><rect height="22" style="clip-path:url(#clipPath7); fill:none; stroke:black;" width="22" x="134" y="82" /><circle cx="145" cy="93" r="11" style="fill:none; stroke:black;" /></g><g ID="l-1:9,10" style="text-rendering:optimizeSpeed;"><polygon points=" 93 93 41 93" style="fill:none;" /></g><g ID="r-1:9" style="fill:white; text-rendering:optimizeSpeed; stroke:white;" wurcs_mono_id="8"><circle cx="93" cy="93" r="11" style="clip-path:url(#clipPath8); stroke:none;" /><rect height="22" style="clip-path:url(#clipPath8); fill:rgb(0,166,81); stroke:none;" width="22" x="82" y="82" /><rect height="22" style="clip-path:url(#clipPath8); fill:none; stroke:black;" width="22" x="82" y="82" /><circle cx="93" cy="93" r="11" style="fill:none; stroke:black;" /></g><g ID="r-1:10" style="fill:white; text-rendering:optimizeSpeed; stroke:white;" wurcs_mono_id="9"><circle cx="41" cy="93" r="11" style="clip-path:url(#clipPath9); stroke:none;" /><rect height="22" style="clip-path:url(#clipPath9); fill:rgb(0,166,81); stroke:none;" width="22" x="30" y="82" /><rect height="22" style="clip-path:url(#clipPath9); fill:none; stroke:black;" width="22" x="30" y="82" /><circle cx="41" cy="93" r="11" style="fill:none; stroke:black;" /></g><g ID="li-1:9,10" style="fill:white; text-rendering:optimizeSpeed; font-family:'Serif'; stroke:white;"><rect height="9" style="stroke:none;" width="7" x="70" y="96" /><path d="M71.5312 98.3438 L70.875 98.3438 L70.875 96.7812 Q71.5 96.4375 72.1406 96.2656 Q72.7812 96.0938 73.3906 96.0938 Q74.75 96.0938 75.5391 96.7578 Q76.3281 97.4219 76.3281 98.5469 Q76.3281 99.8438 74.5469 101.625 Q74.4062 101.7656 74.3281 101.8281 L72.125 104.0312 L75.7656 104.0312 L75.7656 102.9531 L76.4531 102.9531 L76.4531 105 L70.8125 105 L70.8125 104.3594 L73.4688 101.7188 Q74.3438 100.8281 74.7188 100.0938 Q75.0938 99.3594 75.0938 98.5469 Q75.0938 97.6719 74.6328 97.1719 Q74.1719 96.6719 73.375 96.6719 Q72.5312 96.6719 72.0781 97.0859 Q71.625 97.5 71.5312 98.3438 Z" style="fill:black; stroke:none;" /><rect height="8" style="stroke:none;" width="8" x="56" y="97" /><path d="M61.1875 103.4688 L60.9531 104.1094 Q60.7656 104.625 60.2031 104.9375 Q59.8438 105.1562 59.2031 105.1406 Q58.0469 105.1406 57.3281 104.2344 Q56.5938 103.3281 56.5938 101.8594 Q56.5938 100.4219 57.3281 99.4844 Q58.0156 98.5938 59.4531 98.6094 Q60.4531 98.6094 60.9531 99 Q61.4062 99.3438 61.5781 100.0938 L61.625 100.3125 L61.8438 99.6719 Q62.0625 99.0469 62.6562 98.75 L63.25 98.75 L63.25 99.0938 Q62.6875 99.2656 62.5 99.8125 L61.8906 101.4844 L62.2969 103.2812 Q62.5 104.2031 62.7344 104.2969 Q63.0469 104.4375 63.7812 104 L63.7812 104.7188 Q62.5938 105.4062 61.75 104.6875 Q61.375 104.3594 61.2656 103.875 L61.1875 103.4688 ZM60.9219 102.3125 L60.5625 100.5938 Q60.2656 99.2188 59.4688 99.2188 Q58.7969 99.2031 58.2812 99.9375 Q57.8594 100.5156 57.8594 101.875 Q57.8594 103.1719 58.2812 103.8281 Q58.75 104.5469 59.5312 104.5 Q60.2031 104.4375 60.6875 103 L60.9219 102.3125 Z" style="fill:black; stroke:none;" /></g><g ID="li-1:8,9" style="fill:white; text-rendering:optimizeSpeed; font-family:'Serif'; stroke:white;"><rect height="9" style="stroke:none;" width="7" x="122" y="96" /><path d="M123.5312 98.3438 L122.875 98.3438 L122.875 96.7812 Q123.5 96.4375 124.1406 96.2656 Q124.7812 96.0938 125.3906 96.0938 Q126.75 96.0938 127.5391 96.7578 Q128.3281 97.4219 128.3281 98.5469 Q128.3281 99.8438 126.5469 101.625 Q126.4062 101.7656 126.3281 101.8281 L124.125 104.0312 L127.7656 104.0312 L127.7656 102.9531 L128.4531 102.9531 L128.4531 105 L122.8125 105 L122.8125 104.3594 L125.4688 101.7188 Q126.3438 100.8281 126.7188 100.0938 Q127.0938 99.3594 127.0938 98.5469 Q127.0938 97.6719 126.6328 97.1719 Q126.1719 96.6719 125.375 96.6719 Q124.5312 96.6719 124.0781 97.0859 Q123.625 97.5 123.5312 98.3438 Z" style="fill:black; stroke:none;" /><rect height="8" style="stroke:none;" width="8" x="108" y="97" /><path d="M113.1875 103.4688 L112.9531 104.1094 Q112.7656 104.625 112.2031 104.9375 Q111.8438 105.1562 111.2031 105.1406 Q110.0469 105.1406 109.3281 104.2344 Q108.5938 103.3281 108.5938 101.8594 Q108.5938 100.4219 109.3281 99.4844 Q110.0156 98.5938 111.4531 98.6094 Q112.4531 98.6094 112.9531 99 Q113.4062 99.3438 113.5781 100.0938 L113.625 100.3125 L113.8438 99.6719 Q114.0625 99.0469 114.6562 98.75 L115.25 98.75 L115.25 99.0938 Q114.6875 99.2656 114.5 99.8125 L113.8906 101.4844 L114.2969 103.2812 Q114.5 104.2031 114.7344 104.2969 Q115.0469 104.4375 115.7812 104 L115.7812 104.7188 Q114.5938 105.4062 113.75 104.6875 Q113.375 104.3594 113.2656 103.875 L113.1875 103.4688 ZM112.9219 102.3125 L112.5625 100.5938 Q112.2656 99.2188 111.4688 99.2188 Q110.7969 99.2031 110.2812 99.9375 Q109.8594 100.5156 109.8594 101.875 Q109.8594 103.1719 110.2812 103.8281 Q110.75 104.5469 111.5312 104.5 Q112.2031 104.4375 112.6875 103 L112.9219 102.3125 Z" style="fill:black; stroke:none;" /></g><g ID="li-1:6,8" style="fill:white; text-rendering:optimizeSpeed; font-family:'Serif'; stroke:white;"><rect height="9" style="stroke:none;" width="7" x="174" y="96" /><path d="M175.5312 98.3438 L174.875 98.3438 L174.875 96.7812 Q175.5 96.4375 176.1406 96.2656 Q176.7812 96.0938 177.3906 96.0938 Q178.75 96.0938 179.5391 96.7578 Q180.3281 97.4219 180.3281 98.5469 Q180.3281 99.8438 178.5469 101.625 Q178.4062 101.7656 178.3281 101.8281 L176.125 104.0312 L179.7656 104.0312 L179.7656 102.9531 L180.4531 102.9531 L180.4531 105 L174.8125 105 L174.8125 104.3594 L177.4688 101.7188 Q178.3438 100.8281 178.7188 100.0938 Q179.0938 99.3594 179.0938 98.5469 Q179.0938 97.6719 178.6328 97.1719 Q178.1719 96.6719 177.375 96.6719 Q176.5312 96.6719 176.0781 97.0859 Q175.625 97.5 175.5312 98.3438 Z" style="fill:black; stroke:none;" /><rect height="8" style="stroke:none;" width="8" x="160" y="97" /><path d="M165.1875 103.4688 L164.9531 104.1094 Q164.7656 104.625 164.2031 104.9375 Q163.8438 105.1562 163.2031 105.1406 Q162.0469 105.1406 161.3281 104.2344 Q160.5938 103.3281 160.5938 101.8594 Q160.5938 100.4219 161.3281 99.4844 Q162.0156 98.5938 163.4531 98.6094 Q164.4531 98.6094 164.9531 99 Q165.4062 99.3438 165.5781 100.0938 L165.625 100.3125 L165.8438 99.6719 Q166.0625 99.0469 166.6562 98.75 L167.25 98.75 L167.25 99.0938 Q166.6875 99.2656 166.5 99.8125 L165.8906 101.4844 L166.2969 103.2812 Q166.5 104.2031 166.7344 104.2969 Q167.0469 104.4375 167.7812 104 L167.7812 104.7188 Q166.5938 105.4062 165.75 104.6875 Q165.375 104.3594 165.2656 103.875 L165.1875 103.4688 ZM164.9219 102.3125 L164.5625 100.5938 Q164.2656 99.2188 163.4688 99.2188 Q162.7969 99.2031 162.2812 99.9375 Q161.8594 100.5156 161.8594 101.875 Q161.8594 103.1719 162.2812 103.8281 Q162.75 104.5469 163.5312 104.5 Q164.2031 104.4375 164.6875 103 L164.9219 102.3125 Z" style="fill:black; stroke:none;" /></g><g ID="r-1:7" style="fill:white; text-rendering:optimizeSpeed; stroke:white;" wurcs_mono_id="10"><circle cx="197" cy="41" r="11" style="clip-path:url(#clipPath10); stroke:none;" /><rect height="22" style="clip-path:url(#clipPath10); fill:rgb(0,166,81); stroke:none;" width="22" x="186" y="30" /><rect height="22" style="clip-path:url(#clipPath10); fill:none; stroke:black;" width="22" x="186" y="30" /><circle cx="197" cy="41" r="11" style="fill:none; stroke:black;" /></g><g ID="li-1:5,6" style="fill:white; text-rendering:optimizeSpeed; font-family:'Serif'; stroke:white;"><rect height="10" style="stroke:none;" width="7" x="230" y="78" /><path d="M231.1719 79.625 Q231.8594 79.3594 232.4844 79.2266 Q233.1094 79.0938 233.6562 79.0938 Q234.9531 79.0938 235.6719 79.6484 Q236.3906 80.2031 236.3906 81.1875 Q236.3906 81.9688 235.8906 82.5 Q235.3906 83.0312 234.4844 83.2188 Q235.5625 83.375 236.1562 84.0078 Q236.75 84.6406 236.75 85.6406 Q236.75 86.8594 235.9219 87.5156 Q235.0938 88.1719 233.5469 88.1719 Q232.8594 88.1719 232.2109 88.0234 Q231.5625 87.875 230.9219 87.5781 L230.9219 85.875 L231.5781 85.875 Q231.625 86.7188 232.1406 87.1562 Q232.6562 87.5938 233.5781 87.5938 Q234.4688 87.5938 234.9922 87.0703 Q235.5156 86.5469 235.5156 85.6562 Q235.5156 84.625 234.9766 84.0938 Q234.4375 83.5625 233.4062 83.5625 L232.8594 83.5625 L232.8594 82.9531 L233.1406 82.9531 Q234.1719 82.9531 234.6875 82.5312 Q235.2031 82.1094 235.2031 81.25 Q235.2031 80.4844 234.7812 80.0781 Q234.3594 79.6719 233.5625 79.6719 Q232.7656 79.6719 232.3359 80.0469 Q231.9062 80.4219 231.8281 81.1562 L231.1719 81.1562 L231.1719 79.625 Z" style="fill:black; stroke:none;" /><rect height="8" style="stroke:none;" width="8" x="214" y="87" /><path d="M219.1875 93.4688 L218.9531 94.1094 Q218.7656 94.625 218.2031 94.9375 Q217.8438 95.1562 217.2031 95.1406 Q216.0469 95.1406 215.3281 94.2344 Q214.5938 93.3281 214.5938 91.8594 Q214.5938 90.4219 215.3281 89.4844 Q216.0156 88.5938 217.4531 88.6094 Q218.4531 88.6094 218.9531 89 Q219.4062 89.3438 219.5781 90.0938 L219.625 90.3125 L219.8438 89.6719 Q220.0625 89.0469 220.6562 88.75 L221.25 88.75 L221.25 89.0938 Q220.6875 89.2656 220.5 89.8125 L219.8906 91.4844 L220.2969 93.2812 Q220.5 94.2031 220.7344 94.2969 Q221.0469 94.4375 221.7812 94 L221.7812 94.7188 Q220.5938 95.4062 219.75 94.6875 Q219.375 94.3594 219.2656 93.875 L219.1875 93.4688 ZM218.9219 92.3125 L218.5625 90.5938 Q218.2656 89.2188 217.4688 89.2188 Q216.7969 89.2031 216.2812 89.9375 Q215.8594 90.5156 215.8594 91.875 Q215.8594 93.1719 216.2812 93.8281 Q216.75 94.5469 217.5312 94.5 Q218.2031 94.4375 218.6875 93 L218.9219 92.3125 Z" style="fill:black; stroke:none;" /></g><g ID="li-1:5,7" style="fill:white; text-rendering:optimizeSpeed; font-family:'Serif'; stroke:white;"><rect height="10" style="stroke:none;" width="7" x="223" y="60" /><path d="M226.9219 69.5938 Q227.75 69.5938 228.1953 68.9844 Q228.6406 68.375 228.6406 67.2344 Q228.6406 66.1094 228.1953 65.5 Q227.75 64.8906 226.9219 64.8906 Q226.0938 64.8906 225.6484 65.4766 Q225.2031 66.0625 225.2031 67.1719 Q225.2031 68.3281 225.6484 68.9609 Q226.0938 69.5938 226.9219 69.5938 ZM225.0156 65.1875 Q225.4219 64.75 225.9219 64.5312 Q226.4219 64.3125 227.0625 64.3125 Q228.3594 64.3125 229.1172 65.0938 Q229.875 65.875 229.875 67.2344 Q229.875 68.5625 229.0625 69.3672 Q228.25 70.1719 226.875 70.1719 Q225.3906 70.1719 224.5938 69.0625 Q223.7969 67.9531 223.7969 65.9062 Q223.7969 63.6094 224.7422 62.3516 Q225.6875 61.0938 227.4062 61.0938 Q227.875 61.0938 228.3828 61.1797 Q228.8906 61.2656 229.4219 61.4375 L229.4219 62.8906 L228.7656 62.8906 Q228.6875 62.2969 228.3047 61.9844 Q227.9219 61.6719 227.2812 61.6719 Q226.1406 61.6719 225.5859 62.5312 Q225.0312 63.3906 225.0156 65.1875 Z" style="fill:black; stroke:none;" /><rect height="8" style="stroke:none;" width="8" x="207" y="53" /><path d="M212.1875 59.4688 L211.9531 60.1094 Q211.7656 60.625 211.2031 60.9375 Q210.8438 61.1562 210.2031 61.1406 Q209.0469 61.1406 208.3281 60.2344 Q207.5938 59.3281 207.5938 57.8594 Q207.5938 56.4219 208.3281 55.4844 Q209.0156 54.5938 210.4531 54.6094 Q211.4531 54.6094 211.9531 55 Q212.4062 55.3438 212.5781 56.0938 L212.625 56.3125 L212.8438 55.6719 Q213.0625 55.0469 213.6562 54.75 L214.25 54.75 L214.25 55.0938 Q213.6875 55.2656 213.5 55.8125 L212.8906 57.4844 L213.2969 59.2812 Q213.5 60.2031 213.7344 60.2969 Q214.0469 60.4375 214.7812 60 L214.7812 60.7188 Q213.5938 61.4062 212.75 60.6875 Q212.375 60.3594 212.2656 59.875 L212.1875 59.4688 ZM211.9219 58.3125 L211.5625 56.5938 Q211.2656 55.2188 210.4688 55.2188 Q209.7969 55.2031 209.2812 55.9375 Q208.8594 56.5156 208.8594 57.875 Q208.8594 59.1719 209.2812 59.8281 Q209.75 60.5469 210.5312 60.5 Q211.2031 60.4375 211.6875 59 L211.9219 58.3125 Z" style="fill:black; stroke:none;" /></g><g ID="li-1:3,4" style="fill:white; text-rendering:optimizeSpeed; font-family:'Serif'; stroke:white;"><rect height="10" style="stroke:none;" width="7" x="282" y="104" /><path d="M283.1719 105.625 Q283.8594 105.3594 284.4844 105.2266 Q285.1094 105.0938 285.6562 105.0938 Q286.9531 105.0938 287.6719 105.6484 Q288.3906 106.2031 288.3906 107.1875 Q288.3906 107.9688 287.8906 108.5 Q287.3906 109.0312 286.4844 109.2188 Q287.5625 109.375 288.1562 110.0078 Q288.75 110.6406 288.75 111.6406 Q288.75 112.8594 287.9219 113.5156 Q287.0938 114.1719 285.5469 114.1719 Q284.8594 114.1719 284.2109 114.0234 Q283.5625 113.875 282.9219 113.5781 L282.9219 111.875 L283.5781 111.875 Q283.625 112.7188 284.1406 113.1562 Q284.6562 113.5938 285.5781 113.5938 Q286.4688 113.5938 286.9922 113.0703 Q287.5156 112.5469 287.5156 111.6562 Q287.5156 110.625 286.9766 110.0938 Q286.4375 109.5625 285.4062 109.5625 L284.8594 109.5625 L284.8594 108.9531 L285.1406 108.9531 Q286.1719 108.9531 286.6875 108.5312 Q287.2031 108.1094 287.2031 107.25 Q287.2031 106.4844 286.7812 106.0781 Q286.3594 105.6719 285.5625 105.6719 Q284.7656 105.6719 284.3359 106.0469 Q283.9062 106.4219 283.8281 107.1562 L283.1719 107.1562 L283.1719 105.625 Z" style="fill:black; stroke:none;" /><rect height="8" style="stroke:none;" width="8" x="266" y="113" /><path d="M271.1875 119.4688 L270.9531 120.1094 Q270.7656 120.625 270.2031 120.9375 Q269.8438 121.1562 269.2031 121.1406 Q268.0469 121.1406 267.3281 120.2344 Q266.5938 119.3281 266.5938 117.8594 Q266.5938 116.4219 267.3281 115.4844 Q268.0156 114.5938 269.4531 114.6094 Q270.4531 114.6094 270.9531 115 Q271.4062 115.3438 271.5781 116.0938 L271.625 116.3125 L271.8438 115.6719 Q272.0625 115.0469 272.6562 114.75 L273.25 114.75 L273.25 115.0938 Q272.6875 115.2656 272.5 115.8125 L271.8906 117.4844 L272.2969 119.2812 Q272.5 120.2031 272.7344 120.2969 Q273.0469 120.4375 273.7812 120 L273.7812 120.7188 Q272.5938 121.4062 271.75 120.6875 Q271.375 120.3594 271.2656 119.875 L271.1875 119.4688 ZM270.9219 118.3125 L270.5625 116.5938 Q270.2656 115.2188 269.4688 115.2188 Q268.7969 115.2031 268.2812 115.9375 Q267.8594 116.5156 267.8594 117.875 Q267.8594 119.1719 268.2812 119.8281 Q268.75 120.5469 269.5312 120.5 Q270.2031 120.4375 270.6875 119 L270.9219 118.3125 Z" style="fill:black; stroke:none;" /></g><g ID="li-1:3,5" style="fill:white; text-rendering:optimizeSpeed; font-family:'Serif'; stroke:white;"><rect height="10" style="stroke:none;" width="7" x="275" y="86" /><path d="M278.9219 95.5938 Q279.75 95.5938 280.1953 94.9844 Q280.6406 94.375 280.6406 93.2344 Q280.6406 92.1094 280.1953 91.5 Q279.75 90.8906 278.9219 90.8906 Q278.0938 90.8906 277.6484 91.4766 Q277.2031 92.0625 277.2031 93.1719 Q277.2031 94.3281 277.6484 94.9609 Q278.0938 95.5938 278.9219 95.5938 ZM277.0156 91.1875 Q277.4219 90.75 277.9219 90.5312 Q278.4219 90.3125 279.0625 90.3125 Q280.3594 90.3125 281.1172 91.0938 Q281.875 91.875 281.875 93.2344 Q281.875 94.5625 281.0625 95.3672 Q280.25 96.1719 278.875 96.1719 Q277.3906 96.1719 276.5938 95.0625 Q275.7969 93.9531 275.7969 91.9062 Q275.7969 89.6094 276.7422 88.3516 Q277.6875 87.0938 279.4062 87.0938 Q279.875 87.0938 280.3828 87.1797 Q280.8906 87.2656 281.4219 87.4375 L281.4219 88.8906 L280.7656 88.8906 Q280.6875 88.2969 280.3047 87.9844 Q279.9219 87.6719 279.2812 87.6719 Q278.1406 87.6719 277.5859 88.5312 Q277.0312 89.3906 277.0156 91.1875 Z" style="fill:black; stroke:none;" /><rect height="8" style="stroke:none;" width="8" x="259" y="79" /><path d="M264.1875 85.4688 L263.9531 86.1094 Q263.7656 86.625 263.2031 86.9375 Q262.8438 87.1562 262.2031 87.1406 Q261.0469 87.1406 260.3281 86.2344 Q259.5938 85.3281 259.5938 83.8594 Q259.5938 82.4219 260.3281 81.4844 Q261.0156 80.5938 262.4531 80.6094 Q263.4531 80.6094 263.9531 81 Q264.4062 81.3438 264.5781 82.0938 L264.625 82.3125 L264.8438 81.6719 Q265.0625 81.0469 265.6562 80.75 L266.25 80.75 L266.25 81.0938 Q265.6875 81.2656 265.5 81.8125 L264.8906 83.4844 L265.2969 85.2812 Q265.5 86.2031 265.7344 86.2969 Q266.0469 86.4375 266.7812 86 L266.7812 86.7188 Q265.5938 87.4062 264.75 86.6875 Q264.375 86.3594 264.2656 85.875 L264.1875 85.4688 ZM263.9219 84.3125 L263.5625 82.5938 Q263.2656 81.2188 262.4688 81.2188 Q261.7969 81.2031 261.2812 81.9375 Q260.8594 82.5156 260.8594 83.875 Q260.8594 85.1719 261.2812 85.8281 Q261.75 86.5469 262.5312 86.5 Q263.2031 86.4375 263.6875 85 L263.9219 84.3125 Z" style="fill:black; stroke:none;" /></g><g ID="li-1:2,3" style="fill:white; text-rendering:optimizeSpeed; font-family:'Serif'; stroke:white;"><rect height="9" style="stroke:none;" width="8" x="330" y="96" /><path d="M334.1875 102.0312 L334.1875 97.375 L331.2031 102.0312 L334.1875 102.0312 ZM336.7656 105 L332.7812 105 L332.7812 104.375 L334.1875 104.375 L334.1875 102.6562 L330.375 102.6562 L330.375 102.0156 L334.2031 96.0938 L335.3594 96.0938 L335.3594 102.0312 L337.0312 102.0312 L337.0312 102.6562 L335.3594 102.6562 L335.3594 104.375 L336.7656 104.375 L336.7656 105 Z" style="fill:black; stroke:none;" /><rect height="13" style="stroke:none;" width="7" x="316" y="94" /><path d="M317.8281 106.25 Q318.2969 106.5938 319.1719 106.5938 Q320.0625 106.5938 320.5781 106.0703 Q321.0938 105.5469 321.0938 104.6562 Q321.0938 103.4219 320.5625 102.8906 Q320.0156 102.3594 319 102.3594 L318.4375 102.3594 L318.4375 101.7188 L318.7344 101.7188 Q319.4844 101.7188 320 101.2969 Q320.4219 100.9531 320.4219 100.0156 Q320.4219 99.6094 320.1406 99.1406 Q319.6875 98.375 319.1562 98.3906 Q317.8281 98.4375 317.8281 100.7812 L317.8281 106.25 ZM316.75 109.5 L316.75 100.7812 Q316.75 98.3281 318.0781 98 Q318.7656 97.8125 319.25 97.8125 Q320.3438 97.8125 321.0469 98.6719 Q321.6094 99.3594 321.6094 99.9375 Q321.6094 100.7812 321.2031 101.2656 Q320.7969 101.75 320.0625 101.9844 Q321.1406 102.1406 321.75 102.7812 Q322.3281 103.4062 322.3281 104.6328 Q322.3281 105.8594 321.5078 106.5156 Q320.6875 107.1719 319.1406 107.1719 Q318.1875 107.1719 317.8281 107.0312 L317.8281 109.5 L316.75 109.5 Z" style="fill:black; stroke:none;" /></g><g ID="li-1:1,2" style="fill:white; text-rendering:optimizeSpeed; font-family:'Serif'; stroke:white;"><rect height="9" style="stroke:none;" width="8" x="382" y="96" /><path d="M386.1875 102.0312 L386.1875 97.375 L383.2031 102.0312 L386.1875 102.0312 ZM388.7656 105 L384.7812 105 L384.7812 104.375 L386.1875 104.375 L386.1875 102.6562 L382.375 102.6562 L382.375 102.0156 L386.2031 96.0938 L387.3594 96.0938 L387.3594 102.0312 L389.0312 102.0312 L389.0312 102.6562 L387.3594 102.6562 L387.3594 104.375 L388.7656 104.375 L388.7656 105 Z" style="fill:black; stroke:none;" /><rect height="13" style="stroke:none;" width="7" x="368" y="94" /><path d="M369.8281 106.25 Q370.2969 106.5938 371.1719 106.5938 Q372.0625 106.5938 372.5781 106.0703 Q373.0938 105.5469 373.0938 104.6562 Q373.0938 103.4219 372.5625 102.8906 Q372.0156 102.3594 371 102.3594 L370.4375 102.3594 L370.4375 101.7188 L370.7344 101.7188 Q371.4844 101.7188 372 101.2969 Q372.4219 100.9531 372.4219 100.0156 Q372.4219 99.6094 372.1406 99.1406 Q371.6875 98.375 371.1562 98.3906 Q369.8281 98.4375 369.8281 100.7812 L369.8281 106.25 ZM368.75 109.5 L368.75 100.7812 Q368.75 98.3281 370.0781 98 Q370.7656 97.8125 371.25 97.8125 Q372.3438 97.8125 373.0469 98.6719 Q373.6094 99.3594 373.6094 99.9375 Q373.6094 100.7812 373.2031 101.2656 Q372.7969 101.75 372.0625 101.9844 Q373.1406 102.1406 373.75 102.7812 Q374.3281 103.4062 374.3281 104.6328 Q374.3281 105.8594 373.5078 106.5156 Q372.6875 107.1719 371.1406 107.1719 Q370.1875 107.1719 369.8281 107.0312 L369.8281 109.5 L368.75 109.5 Z" style="fill:black; stroke:none;" /></g></g></svg>