<svg xmlns="http://www.w3.org/2000/svg" style="fill-opacity:1; color-rendering:auto; color-interpolation:auto; text-rendering:auto; stroke:black; stroke-linecap:square; stroke-miterlimit:10; shape-rendering:auto; stroke-opacity:1; fill:black; stroke-dasharray:none; font-weight:normal; stroke-width:1; font-family:'Dialog'; font-style:normal; stroke-linejoin:miter; font-size:12px; stroke-dashoffset:0; image-rendering:auto;"><defs id="genericDefs" /><g><defs id="defs1"><clipPath clipPathUnits="userSpaceOnUse" id="clipPath1"><path d="M290 69 L312 69 L312 91 L290 91 L290 69 Z" /></clipPath><clipPath clipPathUnits="userSpaceOnUse" id="clipPath2"><path d="M238 95 L260 95 L260 117 L238 117 L238 95 Z" /></clipPath><clipPath clipPathUnits="userSpaceOnUse" id="clipPath3"><path d="M208 106 C208 112.0751 203.0751 117 197 117 C190.9249 117 186 112.0751 186 106 C186 99.9249 190.9249 95 197 95 C203.0751 95 208 99.9249 208 106 Z" /></clipPath><clipPath clipPathUnits="userSpaceOnUse" id="clipPath4"><path d="M134 134 L156 134 L156 156 L134 156 L134 134 Z" /></clipPath><clipPath clipPathUnits="userSpaceOnUse" id="clipPath5"><path d="M104 145 C104 151.0751 99.0751 156 93 156 C86.9249 156 82 151.0751 82 145 C82 138.9249 86.9249 134 93 134 C99.0751 134 104 138.9249 104 145 Z" /></clipPath><clipPath clipPathUnits="userSpaceOnUse" id="clipPath6"><path d="M93 186 L104 208 L82 208 Z" style="fill-rule:evenodd;" /></clipPath><clipPath clipPathUnits="userSpaceOnUse" id="clipPath7"><path d="M30 134 L52 134 L52 156 L30 156 L30 134 Z" /></clipPath><clipPath clipPathUnits="userSpaceOnUse" id="clipPath8"><path d="M134 56 L156 56 L156 78 L134 78 L134 56 Z" /></clipPath><clipPath clipPathUnits="userSpaceOnUse" id="clipPath9"><path d="M104 67 C104 73.0751 99.0751 78 93 78 C86.9249 78 82 73.0751 82 67 C82 60.9249 86.9249 56 93 56 C99.0751 56 104 60.9249 104 67 Z" /></clipPath><clipPath clipPathUnits="userSpaceOnUse" id="clipPath10"><path d="M30 82 L52 82 L52 104 L30 104 L30 82 Z" /></clipPath><clipPath clipPathUnits="userSpaceOnUse" id="clipPath11"><path d="M41 30 L52 41 L41 52 L30 41 Z" style="fill-rule:evenodd;" /></clipPath><clipPath clipPathUnits="userSpaceOnUse" id="clipPath12"><path d="M249 43 L260 54 L249 65 L238 54 Z" style="fill-rule:evenodd;" /></clipPath></defs><g style="fill:white; text-rendering:optimizeSpeed; stroke:white;"><rect height="238" style="stroke:none;" width="342" x="0" y="0" /></g><g ID="l-1:1,2" style="text-rendering:optimizeSpeed;"><polygon points=" 301 80 249 106" style="fill:none;" /></g><g ID="l-1:1,3" style="text-rendering:optimizeSpeed;"><polygon points=" 301 80 249 54" style="fill:none;" /></g><g ID="r-1:1" style="fill:white; text-rendering:optimizeSpeed; stroke:white;" wurcs_mono_id="1"><rect height="22" style="clip-path:url(#clipPath1); stroke:none;" width="22" x="290" y="69" /><rect height="22" style="clip-path:url(#clipPath1); fill:rgb(255,212,0); stroke:none;" width="22" x="290" y="69" /><rect height="22" style="clip-path:url(#clipPath1); fill:none; stroke:black;" width="22" x="290" y="69" /><rect height="22" style="fill:none; stroke:black;" width="22" x="290" y="69" /></g><g style="font-style:italic; text-rendering:optimizeSpeed; font-size:10px; font-family:'SansSerif';"><path d="M302.0938 77.1562 Q301.375 77.1562 300.8359 77.7188 Q300.2969 78.2812 300.0781 79.2656 Q299.875 80.25 300.1719 80.8125 Q300.4688 81.375 301.2031 81.375 Q301.9219 81.375 302.4609 80.8125 Q303 80.25 303.2031 79.2656 Q303.4062 78.2969 303.1094 77.7266 Q302.8125 77.1562 302.0938 77.1562 ZM302.25 76.4062 Q303.4219 76.4062 303.9297 77.1641 Q304.4375 77.9219 304.1562 79.2656 Q303.875 80.6094 303.0391 81.375 Q302.2031 82.1406 301.0312 82.1406 Q299.8594 82.1406 299.3516 81.375 Q298.8438 80.6094 299.125 79.2656 Q299.4062 77.9219 300.2422 77.1641 Q301.0781 76.4062 302.25 76.4062 Z" style="stroke:none;" /></g><g ID="l-1:2,4" style="text-rendering:optimizeSpeed;"><polygon points=" 249 106 197 106" style="fill:none;" /></g><g ID="r-1:2" style="fill:white; text-rendering:optimizeSpeed; stroke:white;" wurcs_mono_id="2"><rect height="22" style="clip-path:url(#clipPath2); stroke:none;" width="22" x="238" y="95" /><rect height="22" style="clip-path:url(#clipPath2); fill:rgb(0,144,188); stroke:none;" width="22" x="238" y="95" /><rect height="22" style="clip-path:url(#clipPath2); fill:none; stroke:black;" width="22" x="238" y="95" /><rect height="22" style="fill:none; stroke:black;" width="22" x="238" y="95" /></g><g ID="l-1:4,5" style="text-rendering:optimizeSpeed;"><polygon points=" 197 106 145 145" style="fill:none;" /></g><g ID="l-1:4,6" style="text-rendering:optimizeSpeed;"><polygon points=" 197 106 145 67" style="fill:none;" /></g><g ID="r-1:4" style="fill:white; text-rendering:optimizeSpeed; stroke:white;" wurcs_mono_id="3"><circle cx="197" cy="106" r="11" style="clip-path:url(#clipPath3); stroke:none;" /><rect height="22" style="clip-path:url(#clipPath3); fill:rgb(255,212,0); stroke:none;" width="22" x="186" y="95" /><rect height="22" style="clip-path:url(#clipPath3); fill:none; stroke:black;" width="22" x="186" y="95" /><circle cx="197" cy="106" r="11" style="fill:none; stroke:black;" /></g><g ID="l-1:5,7" style="text-rendering:optimizeSpeed;"><polygon points=" 145 145 93 145" style="fill:none;" /></g><g ID="r-1:5" style="fill:white; text-rendering:optimizeSpeed; stroke:white;" wurcs_mono_id="4"><rect height="22" style="clip-path:url(#clipPath4); stroke:none;" width="22" x="134" y="134" /><rect height="22" style="clip-path:url(#clipPath4); fill:rgb(0,144,188); stroke:none;" width="22" x="134" y="134" /><rect height="22" style="clip-path:url(#clipPath4); fill:none; stroke:black;" width="22" x="134" y="134" /><rect height="22" style="fill:none; stroke:black;" width="22" x="134" y="134" /></g><g ID="l-1:7,8" style="text-rendering:optimizeSpeed;"><polygon points=" 93 145 93 197" style="fill:none;" /></g><g ID="l-1:7,9" style="text-rendering:optimizeSpeed;"><polygon points=" 93 145 41 145" style="fill:none;" /></g><g ID="r-1:7" style="fill:white; text-rendering:optimizeSpeed; stroke:white;" wurcs_mono_id="5"><circle cx="93" cy="145" r="11" style="clip-path:url(#clipPath5); stroke:none;" /><rect height="22" style="clip-path:url(#clipPath5); fill:rgb(255,212,0); stroke:none;" width="22" x="82" y="134" /><rect height="22" style="clip-path:url(#clipPath5); fill:none; stroke:black;" width="22" x="82" y="134" /><circle cx="93" cy="145" r="11" style="fill:none; stroke:black;" /></g><g ID="r-1:8" style="fill:white; text-rendering:optimizeSpeed; stroke:white;" wurcs_mono_id="6"><polygon points=" 93 186 104 208 82 208" style="stroke:none; clip-path:url(#clipPath6);" /><rect height="22" style="clip-path:url(#clipPath6); fill:rgb(237,28,36); stroke:none;" width="22" x="82" y="186" /><rect height="22" style="clip-path:url(#clipPath6); fill:none; stroke:black;" width="22" x="82" y="186" /><polygon points=" 93 186 104 208 82 208" style="fill:none; stroke:black;" /></g><g ID="r-1:9" style="fill:white; text-rendering:optimizeSpeed; stroke:white;" wurcs_mono_id="7"><rect height="22" style="clip-path:url(#clipPath7); stroke:none;" width="22" x="30" y="134" /><rect height="22" style="clip-path:url(#clipPath7); fill:rgb(255,212,0); stroke:none;" width="22" x="30" y="134" /><rect height="22" style="clip-path:url(#clipPath7); fill:none; stroke:black;" width="22" x="30" y="134" /><rect height="22" style="fill:none; stroke:black;" width="22" x="30" y="134" /></g><g ID="li-1:7,8" style="fill:white; text-rendering:optimizeSpeed; font-family:'Serif'; stroke:white;"><rect height="9" style="stroke:none;" width="7" x="97" y="159" /><path d="M98.5312 161.3438 L97.875 161.3438 L97.875 159.7812 Q98.5 159.4375 99.1406 159.2656 Q99.7812 159.0938 100.3906 159.0938 Q101.75 159.0938 102.5391 159.7578 Q103.3281 160.4219 103.3281 161.5469 Q103.3281 162.8438 101.5469 164.625 Q101.4062 164.7656 101.3281 164.8281 L99.125 167.0312 L102.7656 167.0312 L102.7656 165.9531 L103.4531 165.9531 L103.4531 168 L97.8125 168 L97.8125 167.3594 L100.4688 164.7188 Q101.3438 163.8281 101.7188 163.0938 Q102.0938 162.3594 102.0938 161.5469 Q102.0938 160.6719 101.6328 160.1719 Q101.1719 159.6719 100.375 159.6719 Q99.5312 159.6719 99.0781 160.0859 Q98.625 160.5 98.5312 161.3438 Z" style="fill:black; stroke:none;" /><rect height="8" style="stroke:none;" width="8" x="97" y="174" /><path d="M102.1875 180.4688 L101.9531 181.1094 Q101.7656 181.625 101.2031 181.9375 Q100.8438 182.1562 100.2031 182.1406 Q99.0469 182.1406 98.3281 181.2344 Q97.5938 180.3281 97.5938 178.8594 Q97.5938 177.4219 98.3281 176.4844 Q99.0156 175.5938 100.4531 175.6094 Q101.4531 175.6094 101.9531 176 Q102.4062 176.3438 102.5781 177.0938 L102.625 177.3125 L102.8438 176.6719 Q103.0625 176.0469 103.6562 175.75 L104.25 175.75 L104.25 176.0938 Q103.6875 176.2656 103.5 176.8125 L102.8906 178.4844 L103.2969 180.2812 Q103.5 181.2031 103.7344 181.2969 Q104.0469 181.4375 104.7812 181 L104.7812 181.7188 Q103.5938 182.4062 102.75 181.6875 Q102.375 181.3594 102.2656 180.875 L102.1875 180.4688 ZM101.9219 179.3125 L101.5625 177.5938 Q101.2656 176.2188 100.4688 176.2188 Q99.7969 176.2031 99.2812 176.9375 Q98.8594 177.5156 98.8594 178.875 Q98.8594 180.1719 99.2812 180.8281 Q99.75 181.5469 100.5312 181.5 Q101.2031 181.4375 101.6875 180 L101.9219 179.3125 Z" style="fill:black; stroke:none;" /></g><g ID="li-1:7,9" style="fill:white; text-rendering:optimizeSpeed; font-family:'Serif'; stroke:white;"><rect height="10" style="stroke:none;" width="7" x="70" y="148" /><path d="M71.1719 149.625 Q71.8594 149.3594 72.4844 149.2266 Q73.1094 149.0938 73.6562 149.0938 Q74.9531 149.0938 75.6719 149.6484 Q76.3906 150.2031 76.3906 151.1875 Q76.3906 151.9688 75.8906 152.5 Q75.3906 153.0312 74.4844 153.2188 Q75.5625 153.375 76.1562 154.0078 Q76.75 154.6406 76.75 155.6406 Q76.75 156.8594 75.9219 157.5156 Q75.0938 158.1719 73.5469 158.1719 Q72.8594 158.1719 72.2109 158.0234 Q71.5625 157.875 70.9219 157.5781 L70.9219 155.875 L71.5781 155.875 Q71.625 156.7188 72.1406 157.1562 Q72.6562 157.5938 73.5781 157.5938 Q74.4688 157.5938 74.9922 157.0703 Q75.5156 156.5469 75.5156 155.6562 Q75.5156 154.625 74.9766 154.0938 Q74.4375 153.5625 73.4062 153.5625 L72.8594 153.5625 L72.8594 152.9531 L73.1406 152.9531 Q74.1719 152.9531 74.6875 152.5312 Q75.2031 152.1094 75.2031 151.25 Q75.2031 150.4844 74.7812 150.0781 Q74.3594 149.6719 73.5625 149.6719 Q72.7656 149.6719 72.3359 150.0469 Q71.9062 150.4219 71.8281 151.1562 L71.1719 151.1562 L71.1719 149.625 Z" style="fill:black; stroke:none;" /><rect height="8" style="stroke:none;" width="8" x="56" y="149" /><path d="M61.1875 155.4688 L60.9531 156.1094 Q60.7656 156.625 60.2031 156.9375 Q59.8438 157.1562 59.2031 157.1406 Q58.0469 157.1406 57.3281 156.2344 Q56.5938 155.3281 56.5938 153.8594 Q56.5938 152.4219 57.3281 151.4844 Q58.0156 150.5938 59.4531 150.6094 Q60.4531 150.6094 60.9531 151 Q61.4062 151.3438 61.5781 152.0938 L61.625 152.3125 L61.8438 151.6719 Q62.0625 151.0469 62.6562 150.75 L63.25 150.75 L63.25 151.0938 Q62.6875 151.2656 62.5 151.8125 L61.8906 153.4844 L62.2969 155.2812 Q62.5 156.2031 62.7344 156.2969 Q63.0469 156.4375 63.7812 156 L63.7812 156.7188 Q62.5938 157.4062 61.75 156.6875 Q61.375 156.3594 61.2656 155.875 L61.1875 155.4688 ZM60.9219 154.3125 L60.5625 152.5938 Q60.2656 151.2188 59.4688 151.2188 Q58.7969 151.2031 58.2812 151.9375 Q57.8594 152.5156 57.8594 153.875 Q57.8594 155.1719 58.2812 155.8281 Q58.75 156.5469 59.5312 156.5 Q60.2031 156.4375 60.6875 155 L60.9219 154.3125 Z" style="fill:black; stroke:none;" /></g><g ID="li-1:5,7" style="fill:white; text-rendering:optimizeSpeed; font-family:'Serif'; stroke:white;"><rect height="10" style="stroke:none;" width="7" x="122" y="148" /><path d="M123.1719 149.625 Q123.8594 149.3594 124.4844 149.2266 Q125.1094 149.0938 125.6562 149.0938 Q126.9531 149.0938 127.6719 149.6484 Q128.3906 150.2031 128.3906 151.1875 Q128.3906 151.9688 127.8906 152.5 Q127.3906 153.0312 126.4844 153.2188 Q127.5625 153.375 128.1562 154.0078 Q128.75 154.6406 128.75 155.6406 Q128.75 156.8594 127.9219 157.5156 Q127.0938 158.1719 125.5469 158.1719 Q124.8594 158.1719 124.2109 158.0234 Q123.5625 157.875 122.9219 157.5781 L122.9219 155.875 L123.5781 155.875 Q123.625 156.7188 124.1406 157.1562 Q124.6562 157.5938 125.5781 157.5938 Q126.4688 157.5938 126.9922 157.0703 Q127.5156 156.5469 127.5156 155.6562 Q127.5156 154.625 126.9766 154.0938 Q126.4375 153.5625 125.4062 153.5625 L124.8594 153.5625 L124.8594 152.9531 L125.1406 152.9531 Q126.1719 152.9531 126.6875 152.5312 Q127.2031 152.1094 127.2031 151.25 Q127.2031 150.4844 126.7812 150.0781 Q126.3594 149.6719 125.5625 149.6719 Q124.7656 149.6719 124.3359 150.0469 Q123.9062 150.4219 123.8281 151.1562 L123.1719 151.1562 L123.1719 149.625 Z" style="fill:black; stroke:none;" /><rect height="13" style="stroke:none;" width="7" x="108" y="146" /><path d="M109.8281 158.25 Q110.2969 158.5938 111.1719 158.5938 Q112.0625 158.5938 112.5781 158.0703 Q113.0938 157.5469 113.0938 156.6562 Q113.0938 155.4219 112.5625 154.8906 Q112.0156 154.3594 111 154.3594 L110.4375 154.3594 L110.4375 153.7188 L110.7344 153.7188 Q111.4844 153.7188 112 153.2969 Q112.4219 152.9531 112.4219 152.0156 Q112.4219 151.6094 112.1406 151.1406 Q111.6875 150.375 111.1562 150.3906 Q109.8281 150.4375 109.8281 152.7812 L109.8281 158.25 ZM108.75 161.5 L108.75 152.7812 Q108.75 150.3281 110.0781 150 Q110.7656 149.8125 111.25 149.8125 Q112.3438 149.8125 113.0469 150.6719 Q113.6094 151.3594 113.6094 151.9375 Q113.6094 152.7812 113.2031 153.2656 Q112.7969 153.75 112.0625 153.9844 Q113.1406 154.1406 113.75 154.7812 Q114.3281 155.4062 114.3281 156.6328 Q114.3281 157.8594 113.5078 158.5156 Q112.6875 159.1719 111.1406 159.1719 Q110.1875 159.1719 109.8281 159.0312 L109.8281 161.5 L108.75 161.5 Z" style="fill:black; stroke:none;" /></g><g ID="l-1:6,10" style="text-rendering:optimizeSpeed;"><polygon points=" 145 67 93 67" style="fill:none;" /></g><g ID="r-1:6" style="fill:white; text-rendering:optimizeSpeed; stroke:white;" wurcs_mono_id="8"><rect height="22" style="clip-path:url(#clipPath8); stroke:none;" width="22" x="134" y="56" /><rect height="22" style="clip-path:url(#clipPath8); fill:rgb(0,144,188); stroke:none;" width="22" x="134" y="56" /><rect height="22" style="clip-path:url(#clipPath8); fill:none; stroke:black;" width="22" x="134" y="56" /><rect height="22" style="fill:none; stroke:black;" width="22" x="134" y="56" /></g><g ID="l-1:10,11" style="text-rendering:optimizeSpeed;"><polygon points=" 93 67 41 93" style="fill:none;" /></g><g ID="l-1:10,12" style="text-rendering:optimizeSpeed;"><polygon points=" 93 67 41 41" style="fill:none;" /></g><g ID="r-1:10" style="fill:white; text-rendering:optimizeSpeed; stroke:white;" wurcs_mono_id="9"><circle cx="93" cy="67" r="11" style="clip-path:url(#clipPath9); stroke:none;" /><rect height="22" style="clip-path:url(#clipPath9); fill:rgb(255,212,0); stroke:none;" width="22" x="82" y="56" /><rect height="22" style="clip-path:url(#clipPath9); fill:none; stroke:black;" width="22" x="82" y="56" /><circle cx="93" cy="67" r="11" style="fill:none; stroke:black;" /></g><g ID="r-1:11" style="fill:white; text-rendering:optimizeSpeed; stroke:white;" wurcs_mono_id="10"><rect height="22" style="clip-path:url(#clipPath10); stroke:none;" width="22" x="30" y="82" /><rect height="22" style="clip-path:url(#clipPath10); fill:rgb(255,212,0); stroke:none;" width="22" x="30" y="82" /><rect height="22" style="clip-path:url(#clipPath10); fill:none; stroke:black;" width="22" x="30" y="82" /><rect height="22" style="fill:none; stroke:black;" width="22" x="30" y="82" /></g><g ID="r-1:12" style="fill:white; text-rendering:optimizeSpeed; stroke:white;" wurcs_mono_id="11"><polygon points=" 41 30 52 41 41 52 30 41" style="stroke:none; clip-path:url(#clipPath11);" /><rect height="22" style="clip-path:url(#clipPath11); fill:rgb(165,67,153); stroke:none;" width="22" x="30" y="30" /><rect height="22" style="clip-path:url(#clipPath11); fill:none; stroke:black;" width="22" x="30" y="30" /><polygon points=" 41 30 52 41 41 52 30 41" style="fill:none; stroke:black;" /></g><g ID="li-1:10,11" style="fill:white; text-rendering:optimizeSpeed; font-family:'Serif'; stroke:white;"><rect height="10" style="stroke:none;" width="7" x="74" y="78" /><path d="M75.1719 79.625 Q75.8594 79.3594 76.4844 79.2266 Q77.1094 79.0938 77.6562 79.0938 Q78.9531 79.0938 79.6719 79.6484 Q80.3906 80.2031 80.3906 81.1875 Q80.3906 81.9688 79.8906 82.5 Q79.3906 83.0312 78.4844 83.2188 Q79.5625 83.375 80.1562 84.0078 Q80.75 84.6406 80.75 85.6406 Q80.75 86.8594 79.9219 87.5156 Q79.0938 88.1719 77.5469 88.1719 Q76.8594 88.1719 76.2109 88.0234 Q75.5625 87.875 74.9219 87.5781 L74.9219 85.875 L75.5781 85.875 Q75.625 86.7188 76.1406 87.1562 Q76.6562 87.5938 77.5781 87.5938 Q78.4688 87.5938 78.9922 87.0703 Q79.5156 86.5469 79.5156 85.6562 Q79.5156 84.625 78.9766 84.0938 Q78.4375 83.5625 77.4062 83.5625 L76.8594 83.5625 L76.8594 82.9531 L77.1406 82.9531 Q78.1719 82.9531 78.6875 82.5312 Q79.2031 82.1094 79.2031 81.25 Q79.2031 80.4844 78.7812 80.0781 Q78.3594 79.6719 77.5625 79.6719 Q76.7656 79.6719 76.3359 80.0469 Q75.9062 80.4219 75.8281 81.1562 L75.1719 81.1562 L75.1719 79.625 Z" style="fill:black; stroke:none;" /><rect height="8" style="stroke:none;" width="8" x="58" y="87" /><path d="M63.1875 93.4688 L62.9531 94.1094 Q62.7656 94.625 62.2031 94.9375 Q61.8438 95.1562 61.2031 95.1406 Q60.0469 95.1406 59.3281 94.2344 Q58.5938 93.3281 58.5938 91.8594 Q58.5938 90.4219 59.3281 89.4844 Q60.0156 88.5938 61.4531 88.6094 Q62.4531 88.6094 62.9531 89 Q63.4062 89.3438 63.5781 90.0938 L63.625 90.3125 L63.8438 89.6719 Q64.0625 89.0469 64.6562 88.75 L65.25 88.75 L65.25 89.0938 Q64.6875 89.2656 64.5 89.8125 L63.8906 91.4844 L64.2969 93.2812 Q64.5 94.2031 64.7344 94.2969 Q65.0469 94.4375 65.7812 94 L65.7812 94.7188 Q64.5938 95.4062 63.75 94.6875 Q63.375 94.3594 63.2656 93.875 L63.1875 93.4688 ZM62.9219 92.3125 L62.5625 90.5938 Q62.2656 89.2188 61.4688 89.2188 Q60.7969 89.2031 60.2812 89.9375 Q59.8594 90.5156 59.8594 91.875 Q59.8594 93.1719 60.2812 93.8281 Q60.75 94.5469 61.5312 94.5 Q62.2031 94.4375 62.6875 93 L62.9219 92.3125 Z" style="fill:black; stroke:none;" /></g><g ID="li-1:10,12" style="fill:white; text-rendering:optimizeSpeed; font-family:'Serif'; stroke:white;"><rect height="10" style="stroke:none;" width="7" x="67" y="60" /><path d="M70.9219 69.5938 Q71.75 69.5938 72.1953 68.9844 Q72.6406 68.375 72.6406 67.2344 Q72.6406 66.1094 72.1953 65.5 Q71.75 64.8906 70.9219 64.8906 Q70.0938 64.8906 69.6484 65.4766 Q69.2031 66.0625 69.2031 67.1719 Q69.2031 68.3281 69.6484 68.9609 Q70.0938 69.5938 70.9219 69.5938 ZM69.0156 65.1875 Q69.4219 64.75 69.9219 64.5312 Q70.4219 64.3125 71.0625 64.3125 Q72.3594 64.3125 73.1172 65.0938 Q73.875 65.875 73.875 67.2344 Q73.875 68.5625 73.0625 69.3672 Q72.25 70.1719 70.875 70.1719 Q69.3906 70.1719 68.5938 69.0625 Q67.7969 67.9531 67.7969 65.9062 Q67.7969 63.6094 68.7422 62.3516 Q69.6875 61.0938 71.4062 61.0938 Q71.875 61.0938 72.3828 61.1797 Q72.8906 61.2656 73.4219 61.4375 L73.4219 62.8906 L72.7656 62.8906 Q72.6875 62.2969 72.3047 61.9844 Q71.9219 61.6719 71.2812 61.6719 Q70.1406 61.6719 69.5859 62.5312 Q69.0312 63.3906 69.0156 65.1875 Z" style="fill:black; stroke:none;" /><rect height="8" style="stroke:none;" width="8" x="51" y="53" /><path d="M56.1875 59.4688 L55.9531 60.1094 Q55.7656 60.625 55.2031 60.9375 Q54.8438 61.1562 54.2031 61.1406 Q53.0469 61.1406 52.3281 60.2344 Q51.5938 59.3281 51.5938 57.8594 Q51.5938 56.4219 52.3281 55.4844 Q53.0156 54.5938 54.4531 54.6094 Q55.4531 54.6094 55.9531 55 Q56.4062 55.3438 56.5781 56.0938 L56.625 56.3125 L56.8438 55.6719 Q57.0625 55.0469 57.6562 54.75 L58.25 54.75 L58.25 55.0938 Q57.6875 55.2656 57.5 55.8125 L56.8906 57.4844 L57.2969 59.2812 Q57.5 60.2031 57.7344 60.2969 Q58.0469 60.4375 58.7812 60 L58.7812 60.7188 Q57.5938 61.4062 56.75 60.6875 Q56.375 60.3594 56.2656 59.875 L56.1875 59.4688 ZM55.9219 58.3125 L55.5625 56.5938 Q55.2656 55.2188 54.4688 55.2188 Q53.7969 55.2031 53.2812 55.9375 Q52.8594 56.5156 52.8594 57.875 Q52.8594 59.1719 53.2812 59.8281 Q53.75 60.5469 54.5312 60.5 Q55.2031 60.4375 55.6875 59 L55.9219 58.3125 Z" style="fill:black; stroke:none;" /></g><g ID="li-1:6,10" style="fill:white; text-rendering:optimizeSpeed; font-family:'Serif'; stroke:white;"><rect height="10" style="stroke:none;" width="7" x="122" y="70" /><path d="M123.1719 71.625 Q123.8594 71.3594 124.4844 71.2266 Q125.1094 71.0938 125.6562 71.0938 Q126.9531 71.0938 127.6719 71.6484 Q128.3906 72.2031 128.3906 73.1875 Q128.3906 73.9688 127.8906 74.5 Q127.3906 75.0312 126.4844 75.2188 Q127.5625 75.375 128.1562 76.0078 Q128.75 76.6406 128.75 77.6406 Q128.75 78.8594 127.9219 79.5156 Q127.0938 80.1719 125.5469 80.1719 Q124.8594 80.1719 124.2109 80.0234 Q123.5625 79.875 122.9219 79.5781 L122.9219 77.875 L123.5781 77.875 Q123.625 78.7188 124.1406 79.1562 Q124.6562 79.5938 125.5781 79.5938 Q126.4688 79.5938 126.9922 79.0703 Q127.5156 78.5469 127.5156 77.6562 Q127.5156 76.625 126.9766 76.0938 Q126.4375 75.5625 125.4062 75.5625 L124.8594 75.5625 L124.8594 74.9531 L125.1406 74.9531 Q126.1719 74.9531 126.6875 74.5312 Q127.2031 74.1094 127.2031 73.25 Q127.2031 72.4844 126.7812 72.0781 Q126.3594 71.6719 125.5625 71.6719 Q124.7656 71.6719 124.3359 72.0469 Q123.9062 72.4219 123.8281 73.1562 L123.1719 73.1562 L123.1719 71.625 Z" style="fill:black; stroke:none;" /><rect height="13" style="stroke:none;" width="7" x="108" y="68" /><path d="M109.8281 80.25 Q110.2969 80.5938 111.1719 80.5938 Q112.0625 80.5938 112.5781 80.0703 Q113.0938 79.5469 113.0938 78.6562 Q113.0938 77.4219 112.5625 76.8906 Q112.0156 76.3594 111 76.3594 L110.4375 76.3594 L110.4375 75.7188 L110.7344 75.7188 Q111.4844 75.7188 112 75.2969 Q112.4219 74.9531 112.4219 74.0156 Q112.4219 73.6094 112.1406 73.1406 Q111.6875 72.375 111.1562 72.3906 Q109.8281 72.4375 109.8281 74.7812 L109.8281 80.25 ZM108.75 83.5 L108.75 74.7812 Q108.75 72.3281 110.0781 72 Q110.7656 71.8125 111.25 71.8125 Q112.3438 71.8125 113.0469 72.6719 Q113.6094 73.3594 113.6094 73.9375 Q113.6094 74.7812 113.2031 75.2656 Q112.7969 75.75 112.0625 75.9844 Q113.1406 76.1406 113.75 76.7812 Q114.3281 77.4062 114.3281 78.6328 Q114.3281 79.8594 113.5078 80.5156 Q112.6875 81.1719 111.1406 81.1719 Q110.1875 81.1719 109.8281 81.0312 L109.8281 83.5 L108.75 83.5 Z" style="fill:black; stroke:none;" /></g><g ID="li-1:4,5" style="fill:white; text-rendering:optimizeSpeed; font-family:'Serif'; stroke:white;"><rect height="10" style="stroke:none;" width="7" x="180" y="120" /><path d="M181.1719 121.625 Q181.8594 121.3594 182.4844 121.2266 Q183.1094 121.0938 183.6562 121.0938 Q184.9531 121.0938 185.6719 121.6484 Q186.3906 122.2031 186.3906 123.1875 Q186.3906 123.9688 185.8906 124.5 Q185.3906 125.0312 184.4844 125.2188 Q185.5625 125.375 186.1562 126.0078 Q186.75 126.6406 186.75 127.6406 Q186.75 128.8594 185.9219 129.5156 Q185.0938 130.1719 183.5469 130.1719 Q182.8594 130.1719 182.2109 130.0234 Q181.5625 129.875 180.9219 129.5781 L180.9219 127.875 L181.5781 127.875 Q181.625 128.7188 182.1406 129.1562 Q182.6562 129.5938 183.5781 129.5938 Q184.4688 129.5938 184.9922 129.0703 Q185.5156 128.5469 185.5156 127.6562 Q185.5156 126.625 184.9766 126.0938 Q184.4375 125.5625 183.4062 125.5625 L182.8594 125.5625 L182.8594 124.9531 L183.1406 124.9531 Q184.1719 124.9531 184.6875 124.5312 Q185.2031 124.1094 185.2031 123.25 Q185.2031 122.4844 184.7812 122.0781 Q184.3594 121.6719 183.5625 121.6719 Q182.7656 121.6719 182.3359 122.0469 Q181.9062 122.4219 181.8281 123.1562 L181.1719 123.1562 L181.1719 121.625 Z" style="fill:black; stroke:none;" /><rect height="13" style="stroke:none;" width="7" x="163" y="131" /><path d="M164.8281 143.25 Q165.2969 143.5938 166.1719 143.5938 Q167.0625 143.5938 167.5781 143.0703 Q168.0938 142.5469 168.0938 141.6562 Q168.0938 140.4219 167.5625 139.8906 Q167.0156 139.3594 166 139.3594 L165.4375 139.3594 L165.4375 138.7188 L165.7344 138.7188 Q166.4844 138.7188 167 138.2969 Q167.4219 137.9531 167.4219 137.0156 Q167.4219 136.6094 167.1406 136.1406 Q166.6875 135.375 166.1562 135.3906 Q164.8281 135.4375 164.8281 137.7812 L164.8281 143.25 ZM163.75 146.5 L163.75 137.7812 Q163.75 135.3281 165.0781 135 Q165.7656 134.8125 166.25 134.8125 Q167.3438 134.8125 168.0469 135.6719 Q168.6094 136.3594 168.6094 136.9375 Q168.6094 137.7812 168.2031 138.2656 Q167.7969 138.75 167.0625 138.9844 Q168.1406 139.1406 168.75 139.7812 Q169.3281 140.4062 169.3281 141.6328 Q169.3281 142.8594 168.5078 143.5156 Q167.6875 144.1719 166.1406 144.1719 Q165.1875 144.1719 164.8281 144.0312 L164.8281 146.5 L163.75 146.5 Z" style="fill:black; stroke:none;" /></g><g ID="li-1:4,6" style="fill:white; text-rendering:optimizeSpeed; font-family:'Serif'; stroke:white;"><rect height="10" style="stroke:none;" width="7" x="171" y="94" /><path d="M174.9219 103.5938 Q175.75 103.5938 176.1953 102.9844 Q176.6406 102.375 176.6406 101.2344 Q176.6406 100.1094 176.1953 99.5 Q175.75 98.8906 174.9219 98.8906 Q174.0938 98.8906 173.6484 99.4766 Q173.2031 100.0625 173.2031 101.1719 Q173.2031 102.3281 173.6484 102.9609 Q174.0938 103.5938 174.9219 103.5938 ZM173.0156 99.1875 Q173.4219 98.75 173.9219 98.5312 Q174.4219 98.3125 175.0625 98.3125 Q176.3594 98.3125 177.1172 99.0938 Q177.875 99.875 177.875 101.2344 Q177.875 102.5625 177.0625 103.3672 Q176.25 104.1719 174.875 104.1719 Q173.3906 104.1719 172.5938 103.0625 Q171.7969 101.9531 171.7969 99.9062 Q171.7969 97.6094 172.7422 96.3516 Q173.6875 95.0938 175.4062 95.0938 Q175.875 95.0938 176.3828 95.1797 Q176.8906 95.2656 177.4219 95.4375 L177.4219 96.8906 L176.7656 96.8906 Q176.6875 96.2969 176.3047 95.9844 Q175.9219 95.6719 175.2812 95.6719 Q174.1406 95.6719 173.5859 96.5312 Q173.0312 97.3906 173.0156 99.1875 Z" style="fill:black; stroke:none;" /><rect height="13" style="stroke:none;" width="7" x="154" y="79" /><path d="M155.8281 91.25 Q156.2969 91.5938 157.1719 91.5938 Q158.0625 91.5938 158.5781 91.0703 Q159.0938 90.5469 159.0938 89.6562 Q159.0938 88.4219 158.5625 87.8906 Q158.0156 87.3594 157 87.3594 L156.4375 87.3594 L156.4375 86.7188 L156.7344 86.7188 Q157.4844 86.7188 158 86.2969 Q158.4219 85.9531 158.4219 85.0156 Q158.4219 84.6094 158.1406 84.1406 Q157.6875 83.375 157.1562 83.3906 Q155.8281 83.4375 155.8281 85.7812 L155.8281 91.25 ZM154.75 94.5 L154.75 85.7812 Q154.75 83.3281 156.0781 83 Q156.7656 82.8125 157.25 82.8125 Q158.3438 82.8125 159.0469 83.6719 Q159.6094 84.3594 159.6094 84.9375 Q159.6094 85.7812 159.2031 86.2656 Q158.7969 86.75 158.0625 86.9844 Q159.1406 87.1406 159.75 87.7812 Q160.3281 88.4062 160.3281 89.6328 Q160.3281 90.8594 159.5078 91.5156 Q158.6875 92.1719 157.1406 92.1719 Q156.1875 92.1719 155.8281 92.0312 L155.8281 94.5 L154.75 94.5 Z" style="fill:black; stroke:none;" /></g><g ID="li-1:2,4" style="fill:white; text-rendering:optimizeSpeed; font-family:'Serif'; stroke:white;"><rect height="9" style="stroke:none;" width="8" x="226" y="109" /><path d="M230.1875 115.0312 L230.1875 110.375 L227.2031 115.0312 L230.1875 115.0312 ZM232.7656 118 L228.7812 118 L228.7812 117.375 L230.1875 117.375 L230.1875 115.6562 L226.375 115.6562 L226.375 115.0156 L230.2031 109.0938 L231.3594 109.0938 L231.3594 115.0312 L233.0312 115.0312 L233.0312 115.6562 L231.3594 115.6562 L231.3594 117.375 L232.7656 117.375 L232.7656 118 Z" style="fill:black; stroke:none;" /><rect height="13" style="stroke:none;" width="7" x="212" y="107" /><path d="M213.8281 119.25 Q214.2969 119.5938 215.1719 119.5938 Q216.0625 119.5938 216.5781 119.0703 Q217.0938 118.5469 217.0938 117.6562 Q217.0938 116.4219 216.5625 115.8906 Q216.0156 115.3594 215 115.3594 L214.4375 115.3594 L214.4375 114.7188 L214.7344 114.7188 Q215.4844 114.7188 216 114.2969 Q216.4219 113.9531 216.4219 113.0156 Q216.4219 112.6094 216.1406 112.1406 Q215.6875 111.375 215.1562 111.3906 Q213.8281 111.4375 213.8281 113.7812 L213.8281 119.25 ZM212.75 122.5 L212.75 113.7812 Q212.75 111.3281 214.0781 111 Q214.7656 110.8125 215.25 110.8125 Q216.3438 110.8125 217.0469 111.6719 Q217.6094 112.3594 217.6094 112.9375 Q217.6094 113.7812 217.2031 114.2656 Q216.7969 114.75 216.0625 114.9844 Q217.1406 115.1406 217.75 115.7812 Q218.3281 116.4062 218.3281 117.6328 Q218.3281 118.8594 217.5078 119.5156 Q216.6875 120.1719 215.1406 120.1719 Q214.1875 120.1719 213.8281 120.0312 L213.8281 122.5 L212.75 122.5 Z" style="fill:black; stroke:none;" /></g><g ID="r-1:3" style="fill:white; text-rendering:optimizeSpeed; stroke:white;" wurcs_mono_id="12"><polygon points=" 249 43 260 54 249 65 238 54" style="stroke:none; clip-path:url(#clipPath12);" /><rect height="22" style="clip-path:url(#clipPath12); fill:rgb(165,67,153); stroke:none;" width="22" x="238" y="43" /><rect height="22" style="clip-path:url(#clipPath12); fill:none; stroke:black;" width="22" x="238" y="43" /><polygon points=" 249 43 260 54 249 65 238 54" style="fill:none; stroke:black;" /></g><g ID="li-1:1,2" style="fill:white; text-rendering:optimizeSpeed; font-family:'Serif'; stroke:white;"><rect height="10" style="stroke:none;" width="7" x="282" y="91" /><path d="M283.1719 92.625 Q283.8594 92.3594 284.4844 92.2266 Q285.1094 92.0938 285.6562 92.0938 Q286.9531 92.0938 287.6719 92.6484 Q288.3906 93.2031 288.3906 94.1875 Q288.3906 94.9688 287.8906 95.5 Q287.3906 96.0312 286.4844 96.2188 Q287.5625 96.375 288.1562 97.0078 Q288.75 97.6406 288.75 98.6406 Q288.75 99.8594 287.9219 100.5156 Q287.0938 101.1719 285.5469 101.1719 Q284.8594 101.1719 284.2109 101.0234 Q283.5625 100.875 282.9219 100.5781 L282.9219 98.875 L283.5781 98.875 Q283.625 99.7188 284.1406 100.1562 Q284.6562 100.5938 285.5781 100.5938 Q286.4688 100.5938 286.9922 100.0703 Q287.5156 99.5469 287.5156 98.6562 Q287.5156 97.625 286.9766 97.0938 Q286.4375 96.5625 285.4062 96.5625 L284.8594 96.5625 L284.8594 95.9531 L285.1406 95.9531 Q286.1719 95.9531 286.6875 95.5312 Q287.2031 95.1094 287.2031 94.25 Q287.2031 93.4844 286.7812 93.0781 Q286.3594 92.6719 285.5625 92.6719 Q284.7656 92.6719 284.3359 93.0469 Q283.9062 93.4219 283.8281 94.1562 L283.1719 94.1562 L283.1719 92.625 Z" style="fill:black; stroke:none;" /><rect height="13" style="stroke:none;" width="7" x="267" y="97" /><path d="M268.8281 109.25 Q269.2969 109.5938 270.1719 109.5938 Q271.0625 109.5938 271.5781 109.0703 Q272.0938 108.5469 272.0938 107.6562 Q272.0938 106.4219 271.5625 105.8906 Q271.0156 105.3594 270 105.3594 L269.4375 105.3594 L269.4375 104.7188 L269.7344 104.7188 Q270.4844 104.7188 271 104.2969 Q271.4219 103.9531 271.4219 103.0156 Q271.4219 102.6094 271.1406 102.1406 Q270.6875 101.375 270.1562 101.3906 Q268.8281 101.4375 268.8281 103.7812 L268.8281 109.25 ZM267.75 112.5 L267.75 103.7812 Q267.75 101.3281 269.0781 101 Q269.7656 100.8125 270.25 100.8125 Q271.3438 100.8125 272.0469 101.6719 Q272.6094 102.3594 272.6094 102.9375 Q272.6094 103.7812 272.2031 104.2656 Q271.7969 104.75 271.0625 104.9844 Q272.1406 105.1406 272.75 105.7812 Q273.3281 106.4062 273.3281 107.6328 Q273.3281 108.8594 272.5078 109.5156 Q271.6875 110.1719 270.1406 110.1719 Q269.1875 110.1719 268.8281 110.0312 L268.8281 112.5 L267.75 112.5 Z" style="fill:black; stroke:none;" /></g><g ID="li-1:1,3" style="fill:white; text-rendering:optimizeSpeed; font-family:'Serif'; stroke:white;"><rect height="10" style="stroke:none;" width="7" x="275" y="73" /><path d="M278.9219 82.5938 Q279.75 82.5938 280.1953 81.9844 Q280.6406 81.375 280.6406 80.2344 Q280.6406 79.1094 280.1953 78.5 Q279.75 77.8906 278.9219 77.8906 Q278.0938 77.8906 277.6484 78.4766 Q277.2031 79.0625 277.2031 80.1719 Q277.2031 81.3281 277.6484 81.9609 Q278.0938 82.5938 278.9219 82.5938 ZM277.0156 78.1875 Q277.4219 77.75 277.9219 77.5312 Q278.4219 77.3125 279.0625 77.3125 Q280.3594 77.3125 281.1172 78.0938 Q281.875 78.875 281.875 80.2344 Q281.875 81.5625 281.0625 82.3672 Q280.25 83.1719 278.875 83.1719 Q277.3906 83.1719 276.5938 82.0625 Q275.7969 80.9531 275.7969 78.9062 Q275.7969 76.6094 276.7422 75.3516 Q277.6875 74.0938 279.4062 74.0938 Q279.875 74.0938 280.3828 74.1797 Q280.8906 74.2656 281.4219 74.4375 L281.4219 75.8906 L280.7656 75.8906 Q280.6875 75.2969 280.3047 74.9844 Q279.9219 74.6719 279.2812 74.6719 Q278.1406 74.6719 277.5859 75.5312 Q277.0312 76.3906 277.0156 78.1875 Z" style="fill:black; stroke:none;" /><rect height="8" style="stroke:none;" width="8" x="259" y="66" /><path d="M264.1875 72.4688 L263.9531 73.1094 Q263.7656 73.625 263.2031 73.9375 Q262.8438 74.1562 262.2031 74.1406 Q261.0469 74.1406 260.3281 73.2344 Q259.5938 72.3281 259.5938 70.8594 Q259.5938 69.4219 260.3281 68.4844 Q261.0156 67.5938 262.4531 67.6094 Q263.4531 67.6094 263.9531 68 Q264.4062 68.3438 264.5781 69.0938 L264.625 69.3125 L264.8438 68.6719 Q265.0625 68.0469 265.6562 67.75 L266.25 67.75 L266.25 68.0938 Q265.6875 68.2656 265.5 68.8125 L264.8906 70.4844 L265.2969 72.2812 Q265.5 73.2031 265.7344 73.2969 Q266.0469 73.4375 266.7812 73 L266.7812 73.7188 Q265.5938 74.4062 264.75 73.6875 Q264.375 73.3594 264.2656 72.875 L264.1875 72.4688 ZM263.9219 71.3125 L263.5625 69.5938 Q263.2656 68.2188 262.4688 68.2188 Q261.7969 68.2031 261.2812 68.9375 Q260.8594 69.5156 260.8594 70.875 Q260.8594 72.1719 261.2812 72.8281 Q261.75 73.5469 262.5312 73.5 Q263.2031 73.4375 263.6875 72 L263.9219 71.3125 Z" style="fill:black; stroke:none;" /></g></g></svg>