<svg xmlns="http://www.w3.org/2000/svg" style="fill-opacity:1; color-rendering:auto; color-interpolation:auto; text-rendering:auto; stroke:black; stroke-linecap:square; stroke-miterlimit:10; shape-rendering:auto; stroke-opacity:1; fill:black; stroke-dasharray:none; font-weight:normal; stroke-width:1; font-family:'Dialog'; font-style:normal; stroke-linejoin:miter; font-size:12px; stroke-dashoffset:0; image-rendering:auto;"><defs id="genericDefs" /><g><defs id="defs1"><clipPath clipPathUnits="userSpaceOnUse" id="clipPath1"><path d="M238 69 L260 69 L260 91 L238 91 L238 69 Z" /></clipPath><clipPath clipPathUnits="userSpaceOnUse" id="clipPath2"><path d="M186 69 L208 69 L208 91 L186 91 L186 69 Z" /></clipPath><clipPath clipPathUnits="userSpaceOnUse" id="clipPath3"><path d="M156 80 C156 86.0751 151.0751 91 145 91 C138.9249 91 134 86.0751 134 80 C134 73.9249 138.9249 69 145 69 C151.0751 69 156 73.9249 156 80 Z" /></clipPath><clipPath clipPathUnits="userSpaceOnUse" id="clipPath4"><path d="M104 119 C104 125.0751 99.0751 130 93 130 C86.9249 130 82 125.0751 82 119 C82 112.9249 86.9249 108 93 108 C99.0751 108 104 112.9249 104 119 Z" /></clipPath><clipPath clipPathUnits="userSpaceOnUse" id="clipPath5"><path d="M52 145 C52 151.0751 47.0751 156 41 156 C34.9249 156 30 151.0751 30 145 C30 138.9249 34.9249 134 41 134 C47.0751 134 52 138.9249 52 145 Z" /></clipPath><clipPath clipPathUnits="userSpaceOnUse" id="clipPath6"><path d="M52 93 C52 99.0751 47.0751 104 41 104 C34.9249 104 30 99.0751 30 93 C30 86.9249 34.9249 82 41 82 C47.0751 82 52 86.9249 52 93 Z" /></clipPath><clipPath clipPathUnits="userSpaceOnUse" id="clipPath7"><path d="M104 41 C104 47.0751 99.0751 52 93 52 C86.9249 52 82 47.0751 82 41 C82 34.9249 86.9249 30 93 30 C99.0751 30 104 34.9249 104 41 Z" /></clipPath><clipPath clipPathUnits="userSpaceOnUse" id="clipPath8"><path d="M52 41 C52 47.0751 47.0751 52 41 52 C34.9249 52 30 47.0751 30 41 C30 34.9249 34.9249 30 41 30 C47.0751 30 52 34.9249 52 41 Z" /></clipPath></defs><g style="fill:white; text-rendering:optimizeSpeed; stroke:white;"><rect height="186" style="stroke:none;" width="290" x="0" y="0" /></g><g ID="l-1:1,2" style="text-rendering:optimizeSpeed;"><polygon points=" 249 80 197 80" style="fill:none;" /></g><g ID="r-1:1" style="fill:white; text-rendering:optimizeSpeed; stroke:white;" wurcs_mono_id="1"><rect height="22" style="clip-path:url(#clipPath1); stroke:none;" width="22" x="238" y="69" /><rect height="22" style="clip-path:url(#clipPath1); fill:rgb(0,144,188); stroke:none;" width="22" x="238" y="69" /><rect height="22" style="clip-path:url(#clipPath1); fill:none; stroke:black;" width="22" x="238" y="69" /><rect height="22" style="fill:none; stroke:black;" width="22" x="238" y="69" /></g><g ID="l-1:2,3" style="text-rendering:optimizeSpeed;"><polygon points=" 197 80 145 80" style="fill:none;" /></g><g ID="r-1:2" style="fill:white; text-rendering:optimizeSpeed; stroke:white;" wurcs_mono_id="2"><rect height="22" style="clip-path:url(#clipPath2); stroke:none;" width="22" x="186" y="69" /><rect height="22" style="clip-path:url(#clipPath2); fill:rgb(0,144,188); stroke:none;" width="22" x="186" y="69" /><rect height="22" style="clip-path:url(#clipPath2); fill:none; stroke:black;" width="22" x="186" y="69" /><rect height="22" style="fill:none; stroke:black;" width="22" x="186" y="69" /></g><g ID="l-1:3,4" style="text-rendering:optimizeSpeed;"><polygon points=" 145 80 93 119" style="fill:none;" /></g><g ID="l-1:3,5" style="text-rendering:optimizeSpeed;"><polygon points=" 145 80 93 41" style="fill:none;" /></g><g ID="r-1:3" style="fill:white; text-rendering:optimizeSpeed; stroke:white;" wurcs_mono_id="3"><circle cx="145" cy="80" r="11" style="clip-path:url(#clipPath3); stroke:none;" /><rect height="22" style="clip-path:url(#clipPath3); fill:rgb(0,166,81); stroke:none;" width="22" x="134" y="69" /><rect height="22" style="clip-path:url(#clipPath3); fill:none; stroke:black;" width="22" x="134" y="69" /><circle cx="145" cy="80" r="11" style="fill:none; stroke:black;" /></g><g ID="l-1:4,6" style="text-rendering:optimizeSpeed;"><polygon points=" 93 119 41 145" style="fill:none;" /></g><g ID="l-1:4,7" style="text-rendering:optimizeSpeed;"><polygon points=" 93 119 41 93" style="fill:none;" /></g><g ID="r-1:4" style="fill:white; text-rendering:optimizeSpeed; stroke:white;" wurcs_mono_id="4"><circle cx="93" cy="119" r="11" style="clip-path:url(#clipPath4); stroke:none;" /><rect height="22" style="clip-path:url(#clipPath4); fill:rgb(0,166,81); stroke:none;" width="22" x="82" y="108" /><rect height="22" style="clip-path:url(#clipPath4); fill:none; stroke:black;" width="22" x="82" y="108" /><circle cx="93" cy="119" r="11" style="fill:none; stroke:black;" /></g><g ID="r-1:6" style="fill:white; text-rendering:optimizeSpeed; stroke:white;" wurcs_mono_id="5"><circle cx="41" cy="145" r="11" style="clip-path:url(#clipPath5); stroke:none;" /><rect height="22" style="clip-path:url(#clipPath5); fill:rgb(0,166,81); stroke:none;" width="22" x="30" y="134" /><rect height="22" style="clip-path:url(#clipPath5); fill:none; stroke:black;" width="22" x="30" y="134" /><circle cx="41" cy="145" r="11" style="fill:none; stroke:black;" /></g><g ID="r-1:7" style="fill:white; text-rendering:optimizeSpeed; stroke:white;" wurcs_mono_id="6"><circle cx="41" cy="93" r="11" style="clip-path:url(#clipPath6); stroke:none;" /><rect height="22" style="clip-path:url(#clipPath6); fill:rgb(0,166,81); stroke:none;" width="22" x="30" y="82" /><rect height="22" style="clip-path:url(#clipPath6); fill:none; stroke:black;" width="22" x="30" y="82" /><circle cx="41" cy="93" r="11" style="fill:none; stroke:black;" /></g><g ID="li-1:4,6" style="fill:white; text-rendering:optimizeSpeed; font-family:'Serif'; stroke:white;"><rect height="10" style="stroke:none;" width="7" x="74" y="130" /><path d="M75.1719 131.625 Q75.8594 131.3594 76.4844 131.2266 Q77.1094 131.0938 77.6562 131.0938 Q78.9531 131.0938 79.6719 131.6484 Q80.3906 132.2031 80.3906 133.1875 Q80.3906 133.9688 79.8906 134.5 Q79.3906 135.0312 78.4844 135.2188 Q79.5625 135.375 80.1562 136.0078 Q80.75 136.6406 80.75 137.6406 Q80.75 138.8594 79.9219 139.5156 Q79.0938 140.1719 77.5469 140.1719 Q76.8594 140.1719 76.2109 140.0234 Q75.5625 139.875 74.9219 139.5781 L74.9219 137.875 L75.5781 137.875 Q75.625 138.7188 76.1406 139.1562 Q76.6562 139.5938 77.5781 139.5938 Q78.4688 139.5938 78.9922 139.0703 Q79.5156 138.5469 79.5156 137.6562 Q79.5156 136.625 78.9766 136.0938 Q78.4375 135.5625 77.4062 135.5625 L76.8594 135.5625 L76.8594 134.9531 L77.1406 134.9531 Q78.1719 134.9531 78.6875 134.5312 Q79.2031 134.1094 79.2031 133.25 Q79.2031 132.4844 78.7812 132.0781 Q78.3594 131.6719 77.5625 131.6719 Q76.7656 131.6719 76.3359 132.0469 Q75.9062 132.4219 75.8281 133.1562 L75.1719 133.1562 L75.1719 131.625 Z" style="fill:black; stroke:none;" /><rect height="8" style="stroke:none;" width="8" x="58" y="139" /><path d="M63.1875 145.4688 L62.9531 146.1094 Q62.7656 146.625 62.2031 146.9375 Q61.8438 147.1562 61.2031 147.1406 Q60.0469 147.1406 59.3281 146.2344 Q58.5938 145.3281 58.5938 143.8594 Q58.5938 142.4219 59.3281 141.4844 Q60.0156 140.5938 61.4531 140.6094 Q62.4531 140.6094 62.9531 141 Q63.4062 141.3438 63.5781 142.0938 L63.625 142.3125 L63.8438 141.6719 Q64.0625 141.0469 64.6562 140.75 L65.25 140.75 L65.25 141.0938 Q64.6875 141.2656 64.5 141.8125 L63.8906 143.4844 L64.2969 145.2812 Q64.5 146.2031 64.7344 146.2969 Q65.0469 146.4375 65.7812 146 L65.7812 146.7188 Q64.5938 147.4062 63.75 146.6875 Q63.375 146.3594 63.2656 145.875 L63.1875 145.4688 ZM62.9219 144.3125 L62.5625 142.5938 Q62.2656 141.2188 61.4688 141.2188 Q60.7969 141.2031 60.2812 141.9375 Q59.8594 142.5156 59.8594 143.875 Q59.8594 145.1719 60.2812 145.8281 Q60.75 146.5469 61.5312 146.5 Q62.2031 146.4375 62.6875 145 L62.9219 144.3125 Z" style="fill:black; stroke:none;" /></g><g ID="li-1:4,7" style="fill:white; text-rendering:optimizeSpeed; font-family:'Serif'; stroke:white;"><rect height="10" style="stroke:none;" width="7" x="67" y="112" /><path d="M70.9219 121.5938 Q71.75 121.5938 72.1953 120.9844 Q72.6406 120.375 72.6406 119.2344 Q72.6406 118.1094 72.1953 117.5 Q71.75 116.8906 70.9219 116.8906 Q70.0938 116.8906 69.6484 117.4766 Q69.2031 118.0625 69.2031 119.1719 Q69.2031 120.3281 69.6484 120.9609 Q70.0938 121.5938 70.9219 121.5938 ZM69.0156 117.1875 Q69.4219 116.75 69.9219 116.5312 Q70.4219 116.3125 71.0625 116.3125 Q72.3594 116.3125 73.1172 117.0938 Q73.875 117.875 73.875 119.2344 Q73.875 120.5625 73.0625 121.3672 Q72.25 122.1719 70.875 122.1719 Q69.3906 122.1719 68.5938 121.0625 Q67.7969 119.9531 67.7969 117.9062 Q67.7969 115.6094 68.7422 114.3516 Q69.6875 113.0938 71.4062 113.0938 Q71.875 113.0938 72.3828 113.1797 Q72.8906 113.2656 73.4219 113.4375 L73.4219 114.8906 L72.7656 114.8906 Q72.6875 114.2969 72.3047 113.9844 Q71.9219 113.6719 71.2812 113.6719 Q70.1406 113.6719 69.5859 114.5312 Q69.0312 115.3906 69.0156 117.1875 Z" style="fill:black; stroke:none;" /><rect height="8" style="stroke:none;" width="8" x="51" y="105" /><path d="M56.1875 111.4688 L55.9531 112.1094 Q55.7656 112.625 55.2031 112.9375 Q54.8438 113.1562 54.2031 113.1406 Q53.0469 113.1406 52.3281 112.2344 Q51.5938 111.3281 51.5938 109.8594 Q51.5938 108.4219 52.3281 107.4844 Q53.0156 106.5938 54.4531 106.6094 Q55.4531 106.6094 55.9531 107 Q56.4062 107.3438 56.5781 108.0938 L56.625 108.3125 L56.8438 107.6719 Q57.0625 107.0469 57.6562 106.75 L58.25 106.75 L58.25 107.0938 Q57.6875 107.2656 57.5 107.8125 L56.8906 109.4844 L57.2969 111.2812 Q57.5 112.2031 57.7344 112.2969 Q58.0469 112.4375 58.7812 112 L58.7812 112.7188 Q57.5938 113.4062 56.75 112.6875 Q56.375 112.3594 56.2656 111.875 L56.1875 111.4688 ZM55.9219 110.3125 L55.5625 108.5938 Q55.2656 107.2188 54.4688 107.2188 Q53.7969 107.2031 53.2812 107.9375 Q52.8594 108.5156 52.8594 109.875 Q52.8594 111.1719 53.2812 111.8281 Q53.75 112.5469 54.5312 112.5 Q55.2031 112.4375 55.6875 111 L55.9219 110.3125 Z" style="fill:black; stroke:none;" /></g><g ID="l-1:5,8" style="text-rendering:optimizeSpeed;"><polygon points=" 93 41 41 41" style="fill:none;" /></g><g ID="r-1:5" style="fill:white; text-rendering:optimizeSpeed; stroke:white;" wurcs_mono_id="7"><circle cx="93" cy="41" r="11" style="clip-path:url(#clipPath7); stroke:none;" /><rect height="22" style="clip-path:url(#clipPath7); fill:rgb(0,166,81); stroke:none;" width="22" x="82" y="30" /><rect height="22" style="clip-path:url(#clipPath7); fill:none; stroke:black;" width="22" x="82" y="30" /><circle cx="93" cy="41" r="11" style="fill:none; stroke:black;" /></g><g ID="r-1:8" style="fill:white; text-rendering:optimizeSpeed; stroke:white;" wurcs_mono_id="8"><circle cx="41" cy="41" r="11" style="clip-path:url(#clipPath8); stroke:none;" /><rect height="22" style="clip-path:url(#clipPath8); fill:rgb(0,166,81); stroke:none;" width="22" x="30" y="30" /><rect height="22" style="clip-path:url(#clipPath8); fill:none; stroke:black;" width="22" x="30" y="30" /><circle cx="41" cy="41" r="11" style="fill:none; stroke:black;" /></g><g ID="li-1:5,8" style="fill:white; text-rendering:optimizeSpeed; font-family:'Serif'; stroke:white;"><rect height="9" style="stroke:none;" width="7" x="70" y="44" /><path d="M71.5312 46.3438 L70.875 46.3438 L70.875 44.7812 Q71.5 44.4375 72.1406 44.2656 Q72.7812 44.0938 73.3906 44.0938 Q74.75 44.0938 75.5391 44.7578 Q76.3281 45.4219 76.3281 46.5469 Q76.3281 47.8438 74.5469 49.625 Q74.4062 49.7656 74.3281 49.8281 L72.125 52.0312 L75.7656 52.0312 L75.7656 50.9531 L76.4531 50.9531 L76.4531 53 L70.8125 53 L70.8125 52.3594 L73.4688 49.7188 Q74.3438 48.8281 74.7188 48.0938 Q75.0938 47.3594 75.0938 46.5469 Q75.0938 45.6719 74.6328 45.1719 Q74.1719 44.6719 73.375 44.6719 Q72.5312 44.6719 72.0781 45.0859 Q71.625 45.5 71.5312 46.3438 Z" style="fill:black; stroke:none;" /><rect height="8" style="stroke:none;" width="8" x="56" y="45" /><path d="M61.1875 51.4688 L60.9531 52.1094 Q60.7656 52.625 60.2031 52.9375 Q59.8438 53.1562 59.2031 53.1406 Q58.0469 53.1406 57.3281 52.2344 Q56.5938 51.3281 56.5938 49.8594 Q56.5938 48.4219 57.3281 47.4844 Q58.0156 46.5938 59.4531 46.6094 Q60.4531 46.6094 60.9531 47 Q61.4062 47.3438 61.5781 48.0938 L61.625 48.3125 L61.8438 47.6719 Q62.0625 47.0469 62.6562 46.75 L63.25 46.75 L63.25 47.0938 Q62.6875 47.2656 62.5 47.8125 L61.8906 49.4844 L62.2969 51.2812 Q62.5 52.2031 62.7344 52.2969 Q63.0469 52.4375 63.7812 52 L63.7812 52.7188 Q62.5938 53.4062 61.75 52.6875 Q61.375 52.3594 61.2656 51.875 L61.1875 51.4688 ZM60.9219 50.3125 L60.5625 48.5938 Q60.2656 47.2188 59.4688 47.2188 Q58.7969 47.2031 58.2812 47.9375 Q57.8594 48.5156 57.8594 49.875 Q57.8594 51.1719 58.2812 51.8281 Q58.75 52.5469 59.5312 52.5 Q60.2031 52.4375 60.6875 51 L60.9219 50.3125 Z" style="fill:black; stroke:none;" /></g><g ID="li-1:3,4" style="fill:white; text-rendering:optimizeSpeed; font-family:'Serif'; stroke:white;"><rect height="10" style="stroke:none;" width="6" x="129" y="94" /><path d="M131.1094 103.3906 Q131.1094 103.0625 131.3359 102.8359 Q131.5625 102.6094 131.8906 102.6094 Q132.2188 102.6094 132.4453 102.8359 Q132.6719 103.0625 132.6719 103.3906 Q132.6719 103.7188 132.4453 103.9453 Q132.2188 104.1719 131.8906 104.1719 Q131.5625 104.1719 131.3359 103.9453 Q131.1094 103.7188 131.1094 103.3906 ZM129.8125 95.6406 Q130.4375 95.3594 131 95.2266 Q131.5625 95.0938 132.0469 95.0938 Q133.3438 95.0938 134.1016 95.7188 Q134.8594 96.3438 134.8594 97.4062 Q134.8594 98.5 134.2109 99.1953 Q133.5625 99.8906 132.25 100.1875 L132.25 101.6719 L131.5312 101.6719 L131.5312 99.75 Q132.5625 99.5 133.0938 98.9062 Q133.625 98.3125 133.625 97.4062 Q133.625 96.5938 133.1953 96.1328 Q132.7656 95.6719 132.0312 95.6719 Q131.3594 95.6719 130.9297 96.0547 Q130.5 96.4375 130.3906 97.1562 L129.8125 97.1562 L129.8125 95.6406 Z" style="fill:black; stroke:none;" /><rect height="8" style="stroke:none;" width="8" x="111" y="108" /><path d="M116.1875 114.4688 L115.9531 115.1094 Q115.7656 115.625 115.2031 115.9375 Q114.8438 116.1562 114.2031 116.1406 Q113.0469 116.1406 112.3281 115.2344 Q111.5938 114.3281 111.5938 112.8594 Q111.5938 111.4219 112.3281 110.4844 Q113.0156 109.5938 114.4531 109.6094 Q115.4531 109.6094 115.9531 110 Q116.4062 110.3438 116.5781 111.0938 L116.625 111.3125 L116.8438 110.6719 Q117.0625 110.0469 117.6562 109.75 L118.25 109.75 L118.25 110.0938 Q117.6875 110.2656 117.5 110.8125 L116.8906 112.4844 L117.2969 114.2812 Q117.5 115.2031 117.7344 115.2969 Q118.0469 115.4375 118.7812 115 L118.7812 115.7188 Q117.5938 116.4062 116.75 115.6875 Q116.375 115.3594 116.2656 114.875 L116.1875 114.4688 ZM115.9219 113.3125 L115.5625 111.5938 Q115.2656 110.2188 114.4688 110.2188 Q113.7969 110.2031 113.2812 110.9375 Q112.8594 111.5156 112.8594 112.875 Q112.8594 114.1719 113.2812 114.8281 Q113.75 115.5469 114.5312 115.5 Q115.2031 115.4375 115.6875 114 L115.9219 113.3125 Z" style="fill:black; stroke:none;" /></g><g ID="li-1:3,5" style="fill:white; text-rendering:optimizeSpeed; font-family:'Serif'; stroke:white;"><rect height="10" style="stroke:none;" width="6" x="119" y="68" /><path d="M121.1094 77.3906 Q121.1094 77.0625 121.3359 76.8359 Q121.5625 76.6094 121.8906 76.6094 Q122.2188 76.6094 122.4453 76.8359 Q122.6719 77.0625 122.6719 77.3906 Q122.6719 77.7188 122.4453 77.9453 Q122.2188 78.1719 121.8906 78.1719 Q121.5625 78.1719 121.3359 77.9453 Q121.1094 77.7188 121.1094 77.3906 ZM119.8125 69.6406 Q120.4375 69.3594 121 69.2266 Q121.5625 69.0938 122.0469 69.0938 Q123.3438 69.0938 124.1016 69.7188 Q124.8594 70.3438 124.8594 71.4062 Q124.8594 72.5 124.2109 73.1953 Q123.5625 73.8906 122.25 74.1875 L122.25 75.6719 L121.5312 75.6719 L121.5312 73.75 Q122.5625 73.5 123.0938 72.9062 Q123.625 72.3125 123.625 71.4062 Q123.625 70.5938 123.1953 70.1328 Q122.7656 69.6719 122.0312 69.6719 Q121.3594 69.6719 120.9297 70.0547 Q120.5 70.4375 120.3906 71.1562 L119.8125 71.1562 L119.8125 69.6406 Z" style="fill:black; stroke:none;" /><rect height="8" style="stroke:none;" width="8" x="101" y="56" /><path d="M106.1875 62.4688 L105.9531 63.1094 Q105.7656 63.625 105.2031 63.9375 Q104.8438 64.1562 104.2031 64.1406 Q103.0469 64.1406 102.3281 63.2344 Q101.5938 62.3281 101.5938 60.8594 Q101.5938 59.4219 102.3281 58.4844 Q103.0156 57.5938 104.4531 57.6094 Q105.4531 57.6094 105.9531 58 Q106.4062 58.3438 106.5781 59.0938 L106.625 59.3125 L106.8438 58.6719 Q107.0625 58.0469 107.6562 57.75 L108.25 57.75 L108.25 58.0938 Q107.6875 58.2656 107.5 58.8125 L106.8906 60.4844 L107.2969 62.2812 Q107.5 63.2031 107.7344 63.2969 Q108.0469 63.4375 108.7812 63 L108.7812 63.7188 Q107.5938 64.4062 106.75 63.6875 Q106.375 63.3594 106.2656 62.875 L106.1875 62.4688 ZM105.9219 61.3125 L105.5625 59.5938 Q105.2656 58.2188 104.4688 58.2188 Q103.7969 58.2031 103.2812 58.9375 Q102.8594 59.5156 102.8594 60.875 Q102.8594 62.1719 103.2812 62.8281 Q103.75 63.5469 104.5312 63.5 Q105.2031 63.4375 105.6875 62 L105.9219 61.3125 Z" style="fill:black; stroke:none;" /></g><g ID="li-1:2,3" style="fill:white; text-rendering:optimizeSpeed; font-family:'Serif'; stroke:white;"><rect height="9" style="stroke:none;" width="8" x="174" y="83" /><path d="M178.1875 89.0312 L178.1875 84.375 L175.2031 89.0312 L178.1875 89.0312 ZM180.7656 92 L176.7812 92 L176.7812 91.375 L178.1875 91.375 L178.1875 89.6562 L174.375 89.6562 L174.375 89.0156 L178.2031 83.0938 L179.3594 83.0938 L179.3594 89.0312 L181.0312 89.0312 L181.0312 89.6562 L179.3594 89.6562 L179.3594 91.375 L180.7656 91.375 L180.7656 92 Z" style="fill:black; stroke:none;" /><rect height="13" style="stroke:none;" width="7" x="160" y="81" /><path d="M161.8281 93.25 Q162.2969 93.5938 163.1719 93.5938 Q164.0625 93.5938 164.5781 93.0703 Q165.0938 92.5469 165.0938 91.6562 Q165.0938 90.4219 164.5625 89.8906 Q164.0156 89.3594 163 89.3594 L162.4375 89.3594 L162.4375 88.7188 L162.7344 88.7188 Q163.4844 88.7188 164 88.2969 Q164.4219 87.9531 164.4219 87.0156 Q164.4219 86.6094 164.1406 86.1406 Q163.6875 85.375 163.1562 85.3906 Q161.8281 85.4375 161.8281 87.7812 L161.8281 93.25 ZM160.75 96.5 L160.75 87.7812 Q160.75 85.3281 162.0781 85 Q162.7656 84.8125 163.25 84.8125 Q164.3438 84.8125 165.0469 85.6719 Q165.6094 86.3594 165.6094 86.9375 Q165.6094 87.7812 165.2031 88.2656 Q164.7969 88.75 164.0625 88.9844 Q165.1406 89.1406 165.75 89.7812 Q166.3281 90.4062 166.3281 91.6328 Q166.3281 92.8594 165.5078 93.5156 Q164.6875 94.1719 163.1406 94.1719 Q162.1875 94.1719 161.8281 94.0312 L161.8281 96.5 L160.75 96.5 Z" style="fill:black; stroke:none;" /></g><g ID="li-1:1,2" style="fill:white; text-rendering:optimizeSpeed; font-family:'Serif'; stroke:white;"><rect height="9" style="stroke:none;" width="8" x="226" y="83" /><path d="M230.1875 89.0312 L230.1875 84.375 L227.2031 89.0312 L230.1875 89.0312 ZM232.7656 92 L228.7812 92 L228.7812 91.375 L230.1875 91.375 L230.1875 89.6562 L226.375 89.6562 L226.375 89.0156 L230.2031 83.0938 L231.3594 83.0938 L231.3594 89.0312 L233.0312 89.0312 L233.0312 89.6562 L231.3594 89.6562 L231.3594 91.375 L232.7656 91.375 L232.7656 92 Z" style="fill:black; stroke:none;" /><rect height="13" style="stroke:none;" width="7" x="212" y="81" /><path d="M213.8281 93.25 Q214.2969 93.5938 215.1719 93.5938 Q216.0625 93.5938 216.5781 93.0703 Q217.0938 92.5469 217.0938 91.6562 Q217.0938 90.4219 216.5625 89.8906 Q216.0156 89.3594 215 89.3594 L214.4375 89.3594 L214.4375 88.7188 L214.7344 88.7188 Q215.4844 88.7188 216 88.2969 Q216.4219 87.9531 216.4219 87.0156 Q216.4219 86.6094 216.1406 86.1406 Q215.6875 85.375 215.1562 85.3906 Q213.8281 85.4375 213.8281 87.7812 L213.8281 93.25 ZM212.75 96.5 L212.75 87.7812 Q212.75 85.3281 214.0781 85 Q214.7656 84.8125 215.25 84.8125 Q216.3438 84.8125 217.0469 85.6719 Q217.6094 86.3594 217.6094 86.9375 Q217.6094 87.7812 217.2031 88.2656 Q216.7969 88.75 216.0625 88.9844 Q217.1406 89.1406 217.75 89.7812 Q218.3281 90.4062 218.3281 91.6328 Q218.3281 92.8594 217.5078 93.5156 Q216.6875 94.1719 215.1406 94.1719 Q214.1875 94.1719 213.8281 94.0312 L213.8281 96.5 L212.75 96.5 Z" style="fill:black; stroke:none;" /></g></g></svg>