<svg xmlns="http://www.w3.org/2000/svg" style="fill-opacity:1; color-rendering:auto; color-interpolation:auto; text-rendering:auto; stroke:black; stroke-linecap:square; stroke-miterlimit:10; shape-rendering:auto; stroke-opacity:1; fill:black; stroke-dasharray:none; font-weight:normal; stroke-width:1; font-family:'Dialog'; font-style:normal; stroke-linejoin:miter; font-size:12px; stroke-dashoffset:0; image-rendering:auto;"><defs id="genericDefs" /><g><defs id="defs1"><clipPath clipPathUnits="userSpaceOnUse" id="clipPath1"><path d="M238 134 L260 134 L260 156 L238 156 L238 134 Z" /></clipPath><clipPath clipPathUnits="userSpaceOnUse" id="clipPath2"><path d="M208 197 C208 203.0751 203.0751 208 197 208 C190.9249 208 186 203.0751 186 197 C186 190.9249 190.9249 186 197 186 C203.0751 186 208 190.9249 208 197 Z" /></clipPath><clipPath clipPathUnits="userSpaceOnUse" id="clipPath3"><path d="M145 186 L156 197 L145 208 L134 197 Z" style="fill-rule:evenodd;" /></clipPath><clipPath clipPathUnits="userSpaceOnUse" id="clipPath4"><path d="M186 82 L208 82 L208 104 L186 104 L186 82 Z" /></clipPath><clipPath clipPathUnits="userSpaceOnUse" id="clipPath5"><path d="M197 134 L208 156 L186 156 Z" style="fill-rule:evenodd;" /></clipPath><clipPath clipPathUnits="userSpaceOnUse" id="clipPath6"><path d="M156 93 C156 99.0751 151.0751 104 145 104 C138.9249 104 134 99.0751 134 93 C134 86.9249 138.9249 82 145 82 C151.0751 82 156 86.9249 156 93 Z" /></clipPath><clipPath clipPathUnits="userSpaceOnUse" id="clipPath7"><path d="M82 134 L104 134 L104 156 L82 156 L82 134 Z" /></clipPath><clipPath clipPathUnits="userSpaceOnUse" id="clipPath8"><path d="M52 145 C52 151.0751 47.0751 156 41 156 C34.9249 156 30 151.0751 30 145 C30 138.9249 34.9249 134 41 134 C47.0751 134 52 138.9249 52 145 Z" /></clipPath><clipPath clipPathUnits="userSpaceOnUse" id="clipPath9"><path d="M41 186 L52 208 L30 208 Z" style="fill-rule:evenodd;" /></clipPath><clipPath clipPathUnits="userSpaceOnUse" id="clipPath10"><path d="M93 104 L82 82 L104 82 Z" style="fill-rule:evenodd;" /></clipPath><clipPath clipPathUnits="userSpaceOnUse" id="clipPath11"><path d="M82 30 L104 30 L104 52 L82 52 L82 30 Z" /></clipPath><clipPath clipPathUnits="userSpaceOnUse" id="clipPath12"><path d="M52 41 C52 47.0751 47.0751 52 41 52 C34.9249 52 30 47.0751 30 41 C30 34.9249 34.9249 30 41 30 C47.0751 30 52 34.9249 52 41 Z" /></clipPath></defs><g style="fill:white; text-rendering:optimizeSpeed; stroke:white;"><rect height="238" style="stroke:none;" width="290" x="0" y="0" /></g><g ID="l-1:1,2" style="text-rendering:optimizeSpeed;"><polygon points=" 249 145 197 197" style="fill:none;" /></g><g ID="l-1:1,3" style="text-rendering:optimizeSpeed;"><polygon points=" 249 145 197 93" style="fill:none;" /></g><g ID="r-1:1" style="fill:white; text-rendering:optimizeSpeed; stroke:white;" wurcs_mono_id="1"><rect height="22" style="clip-path:url(#clipPath1); stroke:none;" width="22" x="238" y="134" /><rect height="22" style="clip-path:url(#clipPath1); fill:rgb(255,212,0); stroke:none;" width="22" x="238" y="134" /><rect height="22" style="clip-path:url(#clipPath1); fill:none; stroke:black;" width="22" x="238" y="134" /><rect height="22" style="fill:none; stroke:black;" width="22" x="238" y="134" /></g><g ID="l-1:2,4" style="text-rendering:optimizeSpeed;"><polygon points=" 197 197 145 197" style="fill:none;" /></g><g ID="r-1:2" style="fill:white; text-rendering:optimizeSpeed; stroke:white;" wurcs_mono_id="2"><circle cx="197" cy="197" r="11" style="clip-path:url(#clipPath2); stroke:none;" /><rect height="22" style="clip-path:url(#clipPath2); fill:rgb(255,212,0); stroke:none;" width="22" x="186" y="186" /><rect height="22" style="clip-path:url(#clipPath2); fill:none; stroke:black;" width="22" x="186" y="186" /><circle cx="197" cy="197" r="11" style="fill:none; stroke:black;" /></g><g ID="r-1:4" style="fill:white; text-rendering:optimizeSpeed; stroke:white;" wurcs_mono_id="3"><polygon points=" 145 186 156 197 145 208 134 197" style="stroke:none; clip-path:url(#clipPath3);" /><rect height="22" style="clip-path:url(#clipPath3); fill:rgb(165,67,153); stroke:none;" width="22" x="134" y="186" /><rect height="22" style="clip-path:url(#clipPath3); fill:none; stroke:black;" width="22" x="134" y="186" /><polygon points=" 145 186 156 197 145 208 134 197" style="fill:none; stroke:black;" /></g><g ID="li-1:2,4" style="fill:white; text-rendering:optimizeSpeed; font-family:'Serif'; stroke:white;"><rect height="10" style="stroke:none;" width="7" x="174" y="200" /><path d="M175.1719 201.625 Q175.8594 201.3594 176.4844 201.2266 Q177.1094 201.0938 177.6562 201.0938 Q178.9531 201.0938 179.6719 201.6484 Q180.3906 202.2031 180.3906 203.1875 Q180.3906 203.9688 179.8906 204.5 Q179.3906 205.0312 178.4844 205.2188 Q179.5625 205.375 180.1562 206.0078 Q180.75 206.6406 180.75 207.6406 Q180.75 208.8594 179.9219 209.5156 Q179.0938 210.1719 177.5469 210.1719 Q176.8594 210.1719 176.2109 210.0234 Q175.5625 209.875 174.9219 209.5781 L174.9219 207.875 L175.5781 207.875 Q175.625 208.7188 176.1406 209.1562 Q176.6562 209.5938 177.5781 209.5938 Q178.4688 209.5938 178.9922 209.0703 Q179.5156 208.5469 179.5156 207.6562 Q179.5156 206.625 178.9766 206.0938 Q178.4375 205.5625 177.4062 205.5625 L176.8594 205.5625 L176.8594 204.9531 L177.1406 204.9531 Q178.1719 204.9531 178.6875 204.5312 Q179.2031 204.1094 179.2031 203.25 Q179.2031 202.4844 178.7812 202.0781 Q178.3594 201.6719 177.5625 201.6719 Q176.7656 201.6719 176.3359 202.0469 Q175.9062 202.4219 175.8281 203.1562 L175.1719 203.1562 L175.1719 201.625 Z" style="fill:black; stroke:none;" /><rect height="8" style="stroke:none;" width="8" x="160" y="201" /><path d="M165.1875 207.4688 L164.9531 208.1094 Q164.7656 208.625 164.2031 208.9375 Q163.8438 209.1562 163.2031 209.1406 Q162.0469 209.1406 161.3281 208.2344 Q160.5938 207.3281 160.5938 205.8594 Q160.5938 204.4219 161.3281 203.4844 Q162.0156 202.5938 163.4531 202.6094 Q164.4531 202.6094 164.9531 203 Q165.4062 203.3438 165.5781 204.0938 L165.625 204.3125 L165.8438 203.6719 Q166.0625 203.0469 166.6562 202.75 L167.25 202.75 L167.25 203.0938 Q166.6875 203.2656 166.5 203.8125 L165.8906 205.4844 L166.2969 207.2812 Q166.5 208.2031 166.7344 208.2969 Q167.0469 208.4375 167.7812 208 L167.7812 208.7188 Q166.5938 209.4062 165.75 208.6875 Q165.375 208.3594 165.2656 207.875 L165.1875 207.4688 ZM164.9219 206.3125 L164.5625 204.5938 Q164.2656 203.2188 163.4688 203.2188 Q162.7969 203.2031 162.2812 203.9375 Q161.8594 204.5156 161.8594 205.875 Q161.8594 207.1719 162.2812 207.8281 Q162.75 208.5469 163.5312 208.5 Q164.2031 208.4375 164.6875 207 L164.9219 206.3125 Z" style="fill:black; stroke:none;" /></g><g ID="l-1:3,5" style="text-rendering:optimizeSpeed;"><polygon points=" 197 93 197 145" style="fill:none;" /></g><g ID="l-1:3,6" style="text-rendering:optimizeSpeed;"><polygon points=" 197 93 145 93" style="fill:none;" /></g><g ID="r-1:3" style="fill:white; text-rendering:optimizeSpeed; stroke:white;" wurcs_mono_id="4"><rect height="22" style="clip-path:url(#clipPath4); stroke:none;" width="22" x="186" y="82" /><rect height="22" style="clip-path:url(#clipPath4); fill:rgb(0,144,188); stroke:none;" width="22" x="186" y="82" /><rect height="22" style="clip-path:url(#clipPath4); fill:none; stroke:black;" width="22" x="186" y="82" /><rect height="22" style="fill:none; stroke:black;" width="22" x="186" y="82" /></g><g ID="r-1:5" style="fill:white; text-rendering:optimizeSpeed; stroke:white;" wurcs_mono_id="5"><polygon points=" 197 134 208 156 186 156" style="stroke:none; clip-path:url(#clipPath5);" /><rect height="22" style="clip-path:url(#clipPath5); fill:rgb(237,28,36); stroke:none;" width="22" x="186" y="134" /><rect height="22" style="clip-path:url(#clipPath5); fill:none; stroke:black;" width="22" x="186" y="134" /><polygon points=" 197 134 208 156 186 156" style="fill:none; stroke:black;" /></g><g ID="l-1:6,7" style="text-rendering:optimizeSpeed;"><polygon points=" 145 93 93 145" style="fill:none;" /></g><g ID="l-1:6,8" style="text-rendering:optimizeSpeed;"><polygon points=" 145 93 93 41" style="fill:none;" /></g><g ID="r-1:6" style="fill:white; text-rendering:optimizeSpeed; stroke:white;" wurcs_mono_id="6"><circle cx="145" cy="93" r="11" style="clip-path:url(#clipPath6); stroke:none;" /><rect height="22" style="clip-path:url(#clipPath6); fill:rgb(255,212,0); stroke:none;" width="22" x="134" y="82" /><rect height="22" style="clip-path:url(#clipPath6); fill:none; stroke:black;" width="22" x="134" y="82" /><circle cx="145" cy="93" r="11" style="fill:none; stroke:black;" /></g><g ID="l-1:7,9" style="text-rendering:optimizeSpeed;"><polygon points=" 93 145 41 145" style="fill:none;" /></g><g ID="l-1:7,10" style="text-rendering:optimizeSpeed;"><polygon points=" 93 145 93 93" style="fill:none;" /></g><g ID="r-1:7" style="fill:white; text-rendering:optimizeSpeed; stroke:white;" wurcs_mono_id="7"><rect height="22" style="clip-path:url(#clipPath7); stroke:none;" width="22" x="82" y="134" /><rect height="22" style="clip-path:url(#clipPath7); fill:rgb(0,144,188); stroke:none;" width="22" x="82" y="134" /><rect height="22" style="clip-path:url(#clipPath7); fill:none; stroke:black;" width="22" x="82" y="134" /><rect height="22" style="fill:none; stroke:black;" width="22" x="82" y="134" /></g><g ID="l-1:9,11" style="text-rendering:optimizeSpeed;"><polygon points=" 41 145 41 197" style="fill:none;" /></g><g ID="r-1:9" style="fill:white; text-rendering:optimizeSpeed; stroke:white;" wurcs_mono_id="8"><circle cx="41" cy="145" r="11" style="clip-path:url(#clipPath8); stroke:none;" /><rect height="22" style="clip-path:url(#clipPath8); fill:rgb(255,212,0); stroke:none;" width="22" x="30" y="134" /><rect height="22" style="clip-path:url(#clipPath8); fill:none; stroke:black;" width="22" x="30" y="134" /><circle cx="41" cy="145" r="11" style="fill:none; stroke:black;" /></g><g ID="r-1:11" style="fill:white; text-rendering:optimizeSpeed; stroke:white;" wurcs_mono_id="9"><polygon points=" 41 186 52 208 30 208" style="stroke:none; clip-path:url(#clipPath9);" /><rect height="22" style="clip-path:url(#clipPath9); fill:rgb(237,28,36); stroke:none;" width="22" x="30" y="186" /><rect height="22" style="clip-path:url(#clipPath9); fill:none; stroke:black;" width="22" x="30" y="186" /><polygon points=" 41 186 52 208 30 208" style="fill:none; stroke:black;" /></g><g ID="li-1:9,11" style="fill:white; text-rendering:optimizeSpeed; font-family:'Serif'; stroke:white;"><rect height="9" style="stroke:none;" width="7" x="45" y="159" /><path d="M46.5312 161.3438 L45.875 161.3438 L45.875 159.7812 Q46.5 159.4375 47.1406 159.2656 Q47.7812 159.0938 48.3906 159.0938 Q49.75 159.0938 50.5391 159.7578 Q51.3281 160.4219 51.3281 161.5469 Q51.3281 162.8438 49.5469 164.625 Q49.4062 164.7656 49.3281 164.8281 L47.125 167.0312 L50.7656 167.0312 L50.7656 165.9531 L51.4531 165.9531 L51.4531 168 L45.8125 168 L45.8125 167.3594 L48.4688 164.7188 Q49.3438 163.8281 49.7188 163.0938 Q50.0938 162.3594 50.0938 161.5469 Q50.0938 160.6719 49.6328 160.1719 Q49.1719 159.6719 48.375 159.6719 Q47.5312 159.6719 47.0781 160.0859 Q46.625 160.5 46.5312 161.3438 Z" style="fill:black; stroke:none;" /><rect height="8" style="stroke:none;" width="8" x="45" y="174" /><path d="M50.1875 180.4688 L49.9531 181.1094 Q49.7656 181.625 49.2031 181.9375 Q48.8438 182.1562 48.2031 182.1406 Q47.0469 182.1406 46.3281 181.2344 Q45.5938 180.3281 45.5938 178.8594 Q45.5938 177.4219 46.3281 176.4844 Q47.0156 175.5938 48.4531 175.6094 Q49.4531 175.6094 49.9531 176 Q50.4062 176.3438 50.5781 177.0938 L50.625 177.3125 L50.8438 176.6719 Q51.0625 176.0469 51.6562 175.75 L52.25 175.75 L52.25 176.0938 Q51.6875 176.2656 51.5 176.8125 L50.8906 178.4844 L51.2969 180.2812 Q51.5 181.2031 51.7344 181.2969 Q52.0469 181.4375 52.7812 181 L52.7812 181.7188 Q51.5938 182.4062 50.75 181.6875 Q50.375 181.3594 50.2656 180.875 L50.1875 180.4688 ZM49.9219 179.3125 L49.5625 177.5938 Q49.2656 176.2188 48.4688 176.2188 Q47.7969 176.2031 47.2812 176.9375 Q46.8594 177.5156 46.8594 178.875 Q46.8594 180.1719 47.2812 180.8281 Q47.75 181.5469 48.5312 181.5 Q49.2031 181.4375 49.6875 180 L49.9219 179.3125 Z" style="fill:black; stroke:none;" /></g><g ID="r-1:10" style="fill:white; text-rendering:optimizeSpeed; stroke:white;" wurcs_mono_id="10"><polygon points=" 93 104 82 82 104 82" style="stroke:none; clip-path:url(#clipPath10);" /><rect height="22" style="clip-path:url(#clipPath10); fill:rgb(237,28,36); stroke:none;" width="22" x="82" y="82" /><rect height="22" style="clip-path:url(#clipPath10); fill:none; stroke:black;" width="22" x="82" y="82" /><polygon points=" 93 104 82 82 104 82" style="fill:none; stroke:black;" /></g><g ID="li-1:7,9" style="fill:white; text-rendering:optimizeSpeed; font-family:'Serif'; stroke:white;"><rect height="10" style="stroke:none;" width="7" x="70" y="148" /><path d="M71.1719 149.625 Q71.8594 149.3594 72.4844 149.2266 Q73.1094 149.0938 73.6562 149.0938 Q74.9531 149.0938 75.6719 149.6484 Q76.3906 150.2031 76.3906 151.1875 Q76.3906 151.9688 75.8906 152.5 Q75.3906 153.0312 74.4844 153.2188 Q75.5625 153.375 76.1562 154.0078 Q76.75 154.6406 76.75 155.6406 Q76.75 156.8594 75.9219 157.5156 Q75.0938 158.1719 73.5469 158.1719 Q72.8594 158.1719 72.2109 158.0234 Q71.5625 157.875 70.9219 157.5781 L70.9219 155.875 L71.5781 155.875 Q71.625 156.7188 72.1406 157.1562 Q72.6562 157.5938 73.5781 157.5938 Q74.4688 157.5938 74.9922 157.0703 Q75.5156 156.5469 75.5156 155.6562 Q75.5156 154.625 74.9766 154.0938 Q74.4375 153.5625 73.4062 153.5625 L72.8594 153.5625 L72.8594 152.9531 L73.1406 152.9531 Q74.1719 152.9531 74.6875 152.5312 Q75.2031 152.1094 75.2031 151.25 Q75.2031 150.4844 74.7812 150.0781 Q74.3594 149.6719 73.5625 149.6719 Q72.7656 149.6719 72.3359 150.0469 Q71.9062 150.4219 71.8281 151.1562 L71.1719 151.1562 L71.1719 149.625 Z" style="fill:black; stroke:none;" /><rect height="13" style="stroke:none;" width="7" x="56" y="146" /><path d="M57.8281 158.25 Q58.2969 158.5938 59.1719 158.5938 Q60.0625 158.5938 60.5781 158.0703 Q61.0938 157.5469 61.0938 156.6562 Q61.0938 155.4219 60.5625 154.8906 Q60.0156 154.3594 59 154.3594 L58.4375 154.3594 L58.4375 153.7188 L58.7344 153.7188 Q59.4844 153.7188 60 153.2969 Q60.4219 152.9531 60.4219 152.0156 Q60.4219 151.6094 60.1406 151.1406 Q59.6875 150.375 59.1562 150.3906 Q57.8281 150.4375 57.8281 152.7812 L57.8281 158.25 ZM56.75 161.5 L56.75 152.7812 Q56.75 150.3281 58.0781 150 Q58.7656 149.8125 59.25 149.8125 Q60.3438 149.8125 61.0469 150.6719 Q61.6094 151.3594 61.6094 151.9375 Q61.6094 152.7812 61.2031 153.2656 Q60.7969 153.75 60.0625 153.9844 Q61.1406 154.1406 61.75 154.7812 Q62.3281 155.4062 62.3281 156.6328 Q62.3281 157.8594 61.5078 158.5156 Q60.6875 159.1719 59.1406 159.1719 Q58.1875 159.1719 57.8281 159.0312 L57.8281 161.5 L56.75 161.5 Z" style="fill:black; stroke:none;" /></g><g ID="li-1:7,10" style="fill:white; text-rendering:optimizeSpeed; font-family:'Serif'; stroke:white;"><rect height="9" style="stroke:none;" width="8" x="81" y="121" /><path d="M85.1875 127.0312 L85.1875 122.375 L82.2031 127.0312 L85.1875 127.0312 ZM87.7656 130 L83.7812 130 L83.7812 129.375 L85.1875 129.375 L85.1875 127.6562 L81.375 127.6562 L81.375 127.0156 L85.2031 121.0938 L86.3594 121.0938 L86.3594 127.0312 L88.0312 127.0312 L88.0312 127.6562 L86.3594 127.6562 L86.3594 129.375 L87.7656 129.375 L87.7656 130 Z" style="fill:black; stroke:none;" /><rect height="8" style="stroke:none;" width="8" x="81" y="108" /><path d="M86.1875 114.4688 L85.9531 115.1094 Q85.7656 115.625 85.2031 115.9375 Q84.8438 116.1562 84.2031 116.1406 Q83.0469 116.1406 82.3281 115.2344 Q81.5938 114.3281 81.5938 112.8594 Q81.5938 111.4219 82.3281 110.4844 Q83.0156 109.5938 84.4531 109.6094 Q85.4531 109.6094 85.9531 110 Q86.4062 110.3438 86.5781 111.0938 L86.625 111.3125 L86.8438 110.6719 Q87.0625 110.0469 87.6562 109.75 L88.25 109.75 L88.25 110.0938 Q87.6875 110.2656 87.5 110.8125 L86.8906 112.4844 L87.2969 114.2812 Q87.5 115.2031 87.7344 115.2969 Q88.0469 115.4375 88.7812 115 L88.7812 115.7188 Q87.5938 116.4062 86.75 115.6875 Q86.375 115.3594 86.2656 114.875 L86.1875 114.4688 ZM85.9219 113.3125 L85.5625 111.5938 Q85.2656 110.2188 84.4688 110.2188 Q83.7969 110.2031 83.2812 110.9375 Q82.8594 111.5156 82.8594 112.875 Q82.8594 114.1719 83.2812 114.8281 Q83.75 115.5469 84.5312 115.5 Q85.2031 115.4375 85.6875 114 L85.9219 113.3125 Z" style="fill:black; stroke:none;" /></g><g ID="l-1:8,12" style="text-rendering:optimizeSpeed;"><polygon points=" 93 41 41 41" style="fill:none;" /></g><g ID="r-1:8" style="fill:white; text-rendering:optimizeSpeed; stroke:white;" wurcs_mono_id="11"><rect height="22" style="clip-path:url(#clipPath11); stroke:none;" width="22" x="82" y="30" /><rect height="22" style="clip-path:url(#clipPath11); fill:rgb(0,144,188); stroke:none;" width="22" x="82" y="30" /><rect height="22" style="clip-path:url(#clipPath11); fill:none; stroke:black;" width="22" x="82" y="30" /><rect height="22" style="fill:none; stroke:black;" width="22" x="82" y="30" /></g><g ID="r-1:12" style="fill:white; text-rendering:optimizeSpeed; stroke:white;" wurcs_mono_id="12"><circle cx="41" cy="41" r="11" style="clip-path:url(#clipPath12); stroke:none;" /><rect height="22" style="clip-path:url(#clipPath12); fill:rgb(255,212,0); stroke:none;" width="22" x="30" y="30" /><rect height="22" style="clip-path:url(#clipPath12); fill:none; stroke:black;" width="22" x="30" y="30" /><circle cx="41" cy="41" r="11" style="fill:none; stroke:black;" /></g><g ID="li-1:8,12" style="fill:white; text-rendering:optimizeSpeed; font-family:'Serif'; stroke:white;"><rect height="9" style="stroke:none;" width="8" x="70" y="44" /><path d="M74.1875 50.0312 L74.1875 45.375 L71.2031 50.0312 L74.1875 50.0312 ZM76.7656 53 L72.7812 53 L72.7812 52.375 L74.1875 52.375 L74.1875 50.6562 L70.375 50.6562 L70.375 50.0156 L74.2031 44.0938 L75.3594 44.0938 L75.3594 50.0312 L77.0312 50.0312 L77.0312 50.6562 L75.3594 50.6562 L75.3594 52.375 L76.7656 52.375 L76.7656 53 Z" style="fill:black; stroke:none;" /><rect height="13" style="stroke:none;" width="7" x="56" y="42" /><path d="M57.8281 54.25 Q58.2969 54.5938 59.1719 54.5938 Q60.0625 54.5938 60.5781 54.0703 Q61.0938 53.5469 61.0938 52.6562 Q61.0938 51.4219 60.5625 50.8906 Q60.0156 50.3594 59 50.3594 L58.4375 50.3594 L58.4375 49.7188 L58.7344 49.7188 Q59.4844 49.7188 60 49.2969 Q60.4219 48.9531 60.4219 48.0156 Q60.4219 47.6094 60.1406 47.1406 Q59.6875 46.375 59.1562 46.3906 Q57.8281 46.4375 57.8281 48.7812 L57.8281 54.25 ZM56.75 57.5 L56.75 48.7812 Q56.75 46.3281 58.0781 46 Q58.7656 45.8125 59.25 45.8125 Q60.3438 45.8125 61.0469 46.6719 Q61.6094 47.3594 61.6094 47.9375 Q61.6094 48.7812 61.2031 49.2656 Q60.7969 49.75 60.0625 49.9844 Q61.1406 50.1406 61.75 50.7812 Q62.3281 51.4062 62.3281 52.6328 Q62.3281 53.8594 61.5078 54.5156 Q60.6875 55.1719 59.1406 55.1719 Q58.1875 55.1719 57.8281 55.0312 L57.8281 57.5 L56.75 57.5 Z" style="fill:black; stroke:none;" /></g><g ID="li-1:6,7" style="fill:white; text-rendering:optimizeSpeed; font-family:'Serif'; stroke:white;"><rect height="10" style="stroke:none;" width="7" x="130" y="110" /><path d="M131.1719 111.625 Q131.8594 111.3594 132.4844 111.2266 Q133.1094 111.0938 133.6562 111.0938 Q134.9531 111.0938 135.6719 111.6484 Q136.3906 112.2031 136.3906 113.1875 Q136.3906 113.9688 135.8906 114.5 Q135.3906 115.0312 134.4844 115.2188 Q135.5625 115.375 136.1562 116.0078 Q136.75 116.6406 136.75 117.6406 Q136.75 118.8594 135.9219 119.5156 Q135.0938 120.1719 133.5469 120.1719 Q132.8594 120.1719 132.2109 120.0234 Q131.5625 119.875 130.9219 119.5781 L130.9219 117.875 L131.5781 117.875 Q131.625 118.7188 132.1406 119.1562 Q132.6562 119.5938 133.5781 119.5938 Q134.4688 119.5938 134.9922 119.0703 Q135.5156 118.5469 135.5156 117.6562 Q135.5156 116.625 134.9766 116.0938 Q134.4375 115.5625 133.4062 115.5625 L132.8594 115.5625 L132.8594 114.9531 L133.1406 114.9531 Q134.1719 114.9531 134.6875 114.5312 Q135.2031 114.1094 135.2031 113.25 Q135.2031 112.4844 134.7812 112.0781 Q134.3594 111.6719 133.5625 111.6719 Q132.7656 111.6719 132.3359 112.0469 Q131.9062 112.4219 131.8281 113.1562 L131.1719 113.1562 L131.1719 111.625 Z" style="fill:black; stroke:none;" /><rect height="13" style="stroke:none;" width="7" x="111" y="127" /><path d="M112.8281 139.25 Q113.2969 139.5938 114.1719 139.5938 Q115.0625 139.5938 115.5781 139.0703 Q116.0938 138.5469 116.0938 137.6562 Q116.0938 136.4219 115.5625 135.8906 Q115.0156 135.3594 114 135.3594 L113.4375 135.3594 L113.4375 134.7188 L113.7344 134.7188 Q114.4844 134.7188 115 134.2969 Q115.4219 133.9531 115.4219 133.0156 Q115.4219 132.6094 115.1406 132.1406 Q114.6875 131.375 114.1562 131.3906 Q112.8281 131.4375 112.8281 133.7812 L112.8281 139.25 ZM111.75 142.5 L111.75 133.7812 Q111.75 131.3281 113.0781 131 Q113.7656 130.8125 114.25 130.8125 Q115.3438 130.8125 116.0469 131.6719 Q116.6094 132.3594 116.6094 132.9375 Q116.6094 133.7812 116.2031 134.2656 Q115.7969 134.75 115.0625 134.9844 Q116.1406 135.1406 116.75 135.7812 Q117.3281 136.4062 117.3281 137.6328 Q117.3281 138.8594 116.5078 139.5156 Q115.6875 140.1719 114.1406 140.1719 Q113.1875 140.1719 112.8281 140.0312 L112.8281 142.5 L111.75 142.5 Z" style="fill:black; stroke:none;" /></g><g ID="li-1:6,8" style="fill:white; text-rendering:optimizeSpeed; font-family:'Serif'; stroke:white;"><rect height="10" style="stroke:none;" width="7" x="119" y="77" /><path d="M122.9219 86.5938 Q123.75 86.5938 124.1953 85.9844 Q124.6406 85.375 124.6406 84.2344 Q124.6406 83.1094 124.1953 82.5 Q123.75 81.8906 122.9219 81.8906 Q122.0938 81.8906 121.6484 82.4766 Q121.2031 83.0625 121.2031 84.1719 Q121.2031 85.3281 121.6484 85.9609 Q122.0938 86.5938 122.9219 86.5938 ZM121.0156 82.1875 Q121.4219 81.75 121.9219 81.5312 Q122.4219 81.3125 123.0625 81.3125 Q124.3594 81.3125 125.1172 82.0938 Q125.875 82.875 125.875 84.2344 Q125.875 85.5625 125.0625 86.3672 Q124.25 87.1719 122.875 87.1719 Q121.3906 87.1719 120.5938 86.0625 Q119.7969 84.9531 119.7969 82.9062 Q119.7969 80.6094 120.7422 79.3516 Q121.6875 78.0938 123.4062 78.0938 Q123.875 78.0938 124.3828 78.1797 Q124.8906 78.2656 125.4219 78.4375 L125.4219 79.8906 L124.7656 79.8906 Q124.6875 79.2969 124.3047 78.9844 Q123.9219 78.6719 123.2812 78.6719 Q122.1406 78.6719 121.5859 79.5312 Q121.0312 80.3906 121.0156 82.1875 Z" style="fill:black; stroke:none;" /><rect height="13" style="stroke:none;" width="7" x="100" y="56" /><path d="M101.8281 68.25 Q102.2969 68.5938 103.1719 68.5938 Q104.0625 68.5938 104.5781 68.0703 Q105.0938 67.5469 105.0938 66.6562 Q105.0938 65.4219 104.5625 64.8906 Q104.0156 64.3594 103 64.3594 L102.4375 64.3594 L102.4375 63.7188 L102.7344 63.7188 Q103.4844 63.7188 104 63.2969 Q104.4219 62.9531 104.4219 62.0156 Q104.4219 61.6094 104.1406 61.1406 Q103.6875 60.375 103.1562 60.3906 Q101.8281 60.4375 101.8281 62.7812 L101.8281 68.25 ZM100.75 71.5 L100.75 62.7812 Q100.75 60.3281 102.0781 60 Q102.7656 59.8125 103.25 59.8125 Q104.3438 59.8125 105.0469 60.6719 Q105.6094 61.3594 105.6094 61.9375 Q105.6094 62.7812 105.2031 63.2656 Q104.7969 63.75 104.0625 63.9844 Q105.1406 64.1406 105.75 64.7812 Q106.3281 65.4062 106.3281 66.6328 Q106.3281 67.8594 105.5078 68.5156 Q104.6875 69.1719 103.1406 69.1719 Q102.1875 69.1719 101.8281 69.0312 L101.8281 71.5 L100.75 71.5 Z" style="fill:black; stroke:none;" /></g><g ID="li-1:3,5" style="fill:white; text-rendering:optimizeSpeed; font-family:'Serif'; stroke:white;"><rect height="10" style="stroke:none;" width="7" x="201" y="107" /><path d="M202.1719 108.625 Q202.8594 108.3594 203.4844 108.2266 Q204.1094 108.0938 204.6562 108.0938 Q205.9531 108.0938 206.6719 108.6484 Q207.3906 109.2031 207.3906 110.1875 Q207.3906 110.9688 206.8906 111.5 Q206.3906 112.0312 205.4844 112.2188 Q206.5625 112.375 207.1562 113.0078 Q207.75 113.6406 207.75 114.6406 Q207.75 115.8594 206.9219 116.5156 Q206.0938 117.1719 204.5469 117.1719 Q203.8594 117.1719 203.2109 117.0234 Q202.5625 116.875 201.9219 116.5781 L201.9219 114.875 L202.5781 114.875 Q202.625 115.7188 203.1406 116.1562 Q203.6562 116.5938 204.5781 116.5938 Q205.4688 116.5938 205.9922 116.0703 Q206.5156 115.5469 206.5156 114.6562 Q206.5156 113.625 205.9766 113.0938 Q205.4375 112.5625 204.4062 112.5625 L203.8594 112.5625 L203.8594 111.9531 L204.1406 111.9531 Q205.1719 111.9531 205.6875 111.5312 Q206.2031 111.1094 206.2031 110.25 Q206.2031 109.4844 205.7812 109.0781 Q205.3594 108.6719 204.5625 108.6719 Q203.7656 108.6719 203.3359 109.0469 Q202.9062 109.4219 202.8281 110.1562 L202.1719 110.1562 L202.1719 108.625 Z" style="fill:black; stroke:none;" /><rect height="8" style="stroke:none;" width="8" x="201" y="122" /><path d="M206.1875 128.4688 L205.9531 129.1094 Q205.7656 129.625 205.2031 129.9375 Q204.8438 130.1562 204.2031 130.1406 Q203.0469 130.1406 202.3281 129.2344 Q201.5938 128.3281 201.5938 126.8594 Q201.5938 125.4219 202.3281 124.4844 Q203.0156 123.5938 204.4531 123.6094 Q205.4531 123.6094 205.9531 124 Q206.4062 124.3438 206.5781 125.0938 L206.625 125.3125 L206.8438 124.6719 Q207.0625 124.0469 207.6562 123.75 L208.25 123.75 L208.25 124.0938 Q207.6875 124.2656 207.5 124.8125 L206.8906 126.4844 L207.2969 128.2812 Q207.5 129.2031 207.7344 129.2969 Q208.0469 129.4375 208.7812 129 L208.7812 129.7188 Q207.5938 130.4062 206.75 129.6875 Q206.375 129.3594 206.2656 128.875 L206.1875 128.4688 ZM205.9219 127.3125 L205.5625 125.5938 Q205.2656 124.2188 204.4688 124.2188 Q203.7969 124.2031 203.2812 124.9375 Q202.8594 125.5156 202.8594 126.875 Q202.8594 128.1719 203.2812 128.8281 Q203.75 129.5469 204.5312 129.5 Q205.2031 129.4375 205.6875 128 L205.9219 127.3125 Z" style="fill:black; stroke:none;" /></g><g ID="li-1:3,6" style="fill:white; text-rendering:optimizeSpeed; font-family:'Serif'; stroke:white;"><rect height="9" style="stroke:none;" width="8" x="174" y="96" /><path d="M178.1875 102.0312 L178.1875 97.375 L175.2031 102.0312 L178.1875 102.0312 ZM180.7656 105 L176.7812 105 L176.7812 104.375 L178.1875 104.375 L178.1875 102.6562 L174.375 102.6562 L174.375 102.0156 L178.2031 96.0938 L179.3594 96.0938 L179.3594 102.0312 L181.0312 102.0312 L181.0312 102.6562 L179.3594 102.6562 L179.3594 104.375 L180.7656 104.375 L180.7656 105 Z" style="fill:black; stroke:none;" /><rect height="13" style="stroke:none;" width="7" x="160" y="94" /><path d="M161.8281 106.25 Q162.2969 106.5938 163.1719 106.5938 Q164.0625 106.5938 164.5781 106.0703 Q165.0938 105.5469 165.0938 104.6562 Q165.0938 103.4219 164.5625 102.8906 Q164.0156 102.3594 163 102.3594 L162.4375 102.3594 L162.4375 101.7188 L162.7344 101.7188 Q163.4844 101.7188 164 101.2969 Q164.4219 100.9531 164.4219 100.0156 Q164.4219 99.6094 164.1406 99.1406 Q163.6875 98.375 163.1562 98.3906 Q161.8281 98.4375 161.8281 100.7812 L161.8281 106.25 ZM160.75 109.5 L160.75 100.7812 Q160.75 98.3281 162.0781 98 Q162.7656 97.8125 163.25 97.8125 Q164.3438 97.8125 165.0469 98.6719 Q165.6094 99.3594 165.6094 99.9375 Q165.6094 100.7812 165.2031 101.2656 Q164.7969 101.75 164.0625 101.9844 Q165.1406 102.1406 165.75 102.7812 Q166.3281 103.4062 166.3281 104.6328 Q166.3281 105.8594 165.5078 106.5156 Q164.6875 107.1719 163.1406 107.1719 Q162.1875 107.1719 161.8281 107.0312 L161.8281 109.5 L160.75 109.5 Z" style="fill:black; stroke:none;" /></g><g ID="li-1:1,2" style="fill:white; text-rendering:optimizeSpeed; font-family:'Serif'; stroke:white;"><rect height="10" style="stroke:none;" width="7" x="234" y="162" /><path d="M235.1719 163.625 Q235.8594 163.3594 236.4844 163.2266 Q237.1094 163.0938 237.6562 163.0938 Q238.9531 163.0938 239.6719 163.6484 Q240.3906 164.2031 240.3906 165.1875 Q240.3906 165.9688 239.8906 166.5 Q239.3906 167.0312 238.4844 167.2188 Q239.5625 167.375 240.1562 168.0078 Q240.75 168.6406 240.75 169.6406 Q240.75 170.8594 239.9219 171.5156 Q239.0938 172.1719 237.5469 172.1719 Q236.8594 172.1719 236.2109 172.0234 Q235.5625 171.875 234.9219 171.5781 L234.9219 169.875 L235.5781 169.875 Q235.625 170.7188 236.1406 171.1562 Q236.6562 171.5938 237.5781 171.5938 Q238.4688 171.5938 238.9922 171.0703 Q239.5156 170.5469 239.5156 169.6562 Q239.5156 168.625 238.9766 168.0938 Q238.4375 167.5625 237.4062 167.5625 L236.8594 167.5625 L236.8594 166.9531 L237.1406 166.9531 Q238.1719 166.9531 238.6875 166.5312 Q239.2031 166.1094 239.2031 165.25 Q239.2031 164.4844 238.7812 164.0781 Q238.3594 163.6719 237.5625 163.6719 Q236.7656 163.6719 236.3359 164.0469 Q235.9062 164.4219 235.8281 165.1562 L235.1719 165.1562 L235.1719 163.625 Z" style="fill:black; stroke:none;" /><rect height="13" style="stroke:none;" width="7" x="215" y="179" /><path d="M216.8281 191.25 Q217.2969 191.5938 218.1719 191.5938 Q219.0625 191.5938 219.5781 191.0703 Q220.0938 190.5469 220.0938 189.6562 Q220.0938 188.4219 219.5625 187.8906 Q219.0156 187.3594 218 187.3594 L217.4375 187.3594 L217.4375 186.7188 L217.7344 186.7188 Q218.4844 186.7188 219 186.2969 Q219.4219 185.9531 219.4219 185.0156 Q219.4219 184.6094 219.1406 184.1406 Q218.6875 183.375 218.1562 183.3906 Q216.8281 183.4375 216.8281 185.7812 L216.8281 191.25 ZM215.75 194.5 L215.75 185.7812 Q215.75 183.3281 217.0781 183 Q217.7656 182.8125 218.25 182.8125 Q219.3438 182.8125 220.0469 183.6719 Q220.6094 184.3594 220.6094 184.9375 Q220.6094 185.7812 220.2031 186.2656 Q219.7969 186.75 219.0625 186.9844 Q220.1406 187.1406 220.75 187.7812 Q221.3281 188.4062 221.3281 189.6328 Q221.3281 190.8594 220.5078 191.5156 Q219.6875 192.1719 218.1406 192.1719 Q217.1875 192.1719 216.8281 192.0312 L216.8281 194.5 L215.75 194.5 Z" style="fill:black; stroke:none;" /></g><g ID="li-1:1,3" style="fill:white; text-rendering:optimizeSpeed; font-family:'Serif'; stroke:white;"><rect height="10" style="stroke:none;" width="7" x="223" y="129" /><path d="M226.9219 138.5938 Q227.75 138.5938 228.1953 137.9844 Q228.6406 137.375 228.6406 136.2344 Q228.6406 135.1094 228.1953 134.5 Q227.75 133.8906 226.9219 133.8906 Q226.0938 133.8906 225.6484 134.4766 Q225.2031 135.0625 225.2031 136.1719 Q225.2031 137.3281 225.6484 137.9609 Q226.0938 138.5938 226.9219 138.5938 ZM225.0156 134.1875 Q225.4219 133.75 225.9219 133.5312 Q226.4219 133.3125 227.0625 133.3125 Q228.3594 133.3125 229.1172 134.0938 Q229.875 134.875 229.875 136.2344 Q229.875 137.5625 229.0625 138.3672 Q228.25 139.1719 226.875 139.1719 Q225.3906 139.1719 224.5938 138.0625 Q223.7969 136.9531 223.7969 134.9062 Q223.7969 132.6094 224.7422 131.3516 Q225.6875 130.0938 227.4062 130.0938 Q227.875 130.0938 228.3828 130.1797 Q228.8906 130.2656 229.4219 130.4375 L229.4219 131.8906 L228.7656 131.8906 Q228.6875 131.2969 228.3047 130.9844 Q227.9219 130.6719 227.2812 130.6719 Q226.1406 130.6719 225.5859 131.5312 Q225.0312 132.3906 225.0156 134.1875 Z" style="fill:black; stroke:none;" /><rect height="13" style="stroke:none;" width="7" x="204" y="108" /><path d="M205.8281 120.25 Q206.2969 120.5938 207.1719 120.5938 Q208.0625 120.5938 208.5781 120.0703 Q209.0938 119.5469 209.0938 118.6562 Q209.0938 117.4219 208.5625 116.8906 Q208.0156 116.3594 207 116.3594 L206.4375 116.3594 L206.4375 115.7188 L206.7344 115.7188 Q207.4844 115.7188 208 115.2969 Q208.4219 114.9531 208.4219 114.0156 Q208.4219 113.6094 208.1406 113.1406 Q207.6875 112.375 207.1562 112.3906 Q205.8281 112.4375 205.8281 114.7812 L205.8281 120.25 ZM204.75 123.5 L204.75 114.7812 Q204.75 112.3281 206.0781 112 Q206.7656 111.8125 207.25 111.8125 Q208.3438 111.8125 209.0469 112.6719 Q209.6094 113.3594 209.6094 113.9375 Q209.6094 114.7812 209.2031 115.2656 Q208.7969 115.75 208.0625 115.9844 Q209.1406 116.1406 209.75 116.7812 Q210.3281 117.4062 210.3281 118.6328 Q210.3281 119.8594 209.5078 120.5156 Q208.6875 121.1719 207.1406 121.1719 Q206.1875 121.1719 205.8281 121.0312 L205.8281 123.5 L204.75 123.5 Z" style="fill:black; stroke:none;" /></g></g></svg>