<svg xmlns="http://www.w3.org/2000/svg" style="fill-opacity:1; color-rendering:auto; color-interpolation:auto; text-rendering:auto; stroke:black; stroke-linecap:square; stroke-miterlimit:10; shape-rendering:auto; stroke-opacity:1; fill:black; stroke-dasharray:none; font-weight:normal; stroke-width:1; font-family:'Dialog'; font-style:normal; stroke-linejoin:miter; font-size:12px; stroke-dashoffset:0; image-rendering:auto;"><defs id="genericDefs" /><g><defs id="defs1"><clipPath clipPathUnits="userSpaceOnUse" id="clipPath1"><path d="M186 134 L208 134 L208 156 L186 156 L186 134 Z" /></clipPath><clipPath clipPathUnits="userSpaceOnUse" id="clipPath2"><path d="M156 145 C156 151.0751 151.0751 156 145 156 C138.9249 156 134 151.0751 134 145 C134 138.9249 138.9249 134 145 134 C151.0751 134 156 138.9249 156 145 Z" /></clipPath><clipPath clipPathUnits="userSpaceOnUse" id="clipPath3"><path d="M82 186 L104 186 L104 208 L82 208 L82 186 Z" /></clipPath><clipPath clipPathUnits="userSpaceOnUse" id="clipPath4"><path d="M93 156 L82 134 L104 134 Z" style="fill-rule:evenodd;" /></clipPath><clipPath clipPathUnits="userSpaceOnUse" id="clipPath5"><path d="M52 197 C52 203.0751 47.0751 208 41 208 C34.9249 208 30 203.0751 30 197 C30 190.9249 34.9249 186 41 186 C47.0751 186 52 190.9249 52 197 Z" /></clipPath><clipPath clipPathUnits="userSpaceOnUse" id="clipPath6"><path d="M82 82 L104 82 L104 104 L82 104 L82 82 Z" /></clipPath><clipPath clipPathUnits="userSpaceOnUse" id="clipPath7"><path d="M93 52 L82 30 L104 30 Z" style="fill-rule:evenodd;" /></clipPath><clipPath clipPathUnits="userSpaceOnUse" id="clipPath8"><path d="M52 93 C52 99.0751 47.0751 104 41 104 C34.9249 104 30 99.0751 30 93 C30 86.9249 34.9249 82 41 82 C47.0751 82 52 86.9249 52 93 Z" /></clipPath></defs><g style="fill:white; text-rendering:optimizeSpeed; stroke:white;"><rect height="238" style="stroke:none;" width="238" x="0" y="0" /></g><g ID="l-1:1,2" style="text-rendering:optimizeSpeed;"><polygon points=" 197 145 145 145" style="fill:none;" /></g><g ID="r-1:1" style="fill:white; text-rendering:optimizeSpeed; stroke:white;" wurcs_mono_id="1"><rect height="22" style="clip-path:url(#clipPath1); stroke:none;" width="22" x="186" y="134" /><rect height="22" style="clip-path:url(#clipPath1); fill:rgb(255,212,0); stroke:none;" width="22" x="186" y="134" /><rect height="22" style="clip-path:url(#clipPath1); fill:none; stroke:black;" width="22" x="186" y="134" /><rect height="22" style="fill:none; stroke:black;" width="22" x="186" y="134" /></g><g style="font-style:italic; text-rendering:optimizeSpeed; font-size:10px; font-family:'SansSerif';"><path d="M198.0938 142.1562 Q197.375 142.1562 196.8359 142.7188 Q196.2969 143.2812 196.0781 144.2656 Q195.875 145.25 196.1719 145.8125 Q196.4688 146.375 197.2031 146.375 Q197.9219 146.375 198.4609 145.8125 Q199 145.25 199.2031 144.2656 Q199.4062 143.2969 199.1094 142.7266 Q198.8125 142.1562 198.0938 142.1562 ZM198.25 141.4062 Q199.4219 141.4062 199.9297 142.1641 Q200.4375 142.9219 200.1562 144.2656 Q199.875 145.6094 199.0391 146.375 Q198.2031 147.1406 197.0312 147.1406 Q195.8594 147.1406 195.3516 146.375 Q194.8438 145.6094 195.125 144.2656 Q195.4062 142.9219 196.2422 142.1641 Q197.0781 141.4062 198.25 141.4062 Z" style="stroke:none;" /></g><g ID="l-1:2,3" style="text-rendering:optimizeSpeed;"><polygon points=" 145 145 93 197" style="fill:none;" /></g><g ID="l-1:2,4" style="text-rendering:optimizeSpeed;"><polygon points=" 145 145 93 93" style="fill:none;" /></g><g ID="r-1:2" style="fill:white; text-rendering:optimizeSpeed; stroke:white;" wurcs_mono_id="2"><circle cx="145" cy="145" r="11" style="clip-path:url(#clipPath2); stroke:none;" /><rect height="22" style="clip-path:url(#clipPath2); fill:rgb(255,212,0); stroke:none;" width="22" x="134" y="134" /><rect height="22" style="clip-path:url(#clipPath2); fill:none; stroke:black;" width="22" x="134" y="134" /><circle cx="145" cy="145" r="11" style="fill:none; stroke:black;" /></g><g ID="l-1:3,5" style="text-rendering:optimizeSpeed;"><polygon points=" 93 197 93 145" style="fill:none;" /></g><g ID="l-1:3,6" style="text-rendering:optimizeSpeed;"><polygon points=" 93 197 41 197" style="fill:none;" /></g><g ID="r-1:3" style="fill:white; text-rendering:optimizeSpeed; stroke:white;" wurcs_mono_id="3"><rect height="22" style="clip-path:url(#clipPath3); stroke:none;" width="22" x="82" y="186" /><rect height="22" style="clip-path:url(#clipPath3); fill:rgb(0,144,188); stroke:none;" width="22" x="82" y="186" /><rect height="22" style="clip-path:url(#clipPath3); fill:none; stroke:black;" width="22" x="82" y="186" /><rect height="22" style="fill:none; stroke:black;" width="22" x="82" y="186" /></g><g ID="r-1:5" style="fill:white; text-rendering:optimizeSpeed; stroke:white;" wurcs_mono_id="4"><polygon points=" 93 156 82 134 104 134" style="stroke:none; clip-path:url(#clipPath4);" /><rect height="22" style="clip-path:url(#clipPath4); fill:rgb(237,28,36); stroke:none;" width="22" x="82" y="134" /><rect height="22" style="clip-path:url(#clipPath4); fill:none; stroke:black;" width="22" x="82" y="134" /><polygon points=" 93 156 82 134 104 134" style="fill:none; stroke:black;" /></g><g ID="r-1:6" style="fill:white; text-rendering:optimizeSpeed; stroke:white;" wurcs_mono_id="5"><circle cx="41" cy="197" r="11" style="clip-path:url(#clipPath5); stroke:none;" /><rect height="22" style="clip-path:url(#clipPath5); fill:rgb(255,212,0); stroke:none;" width="22" x="30" y="186" /><rect height="22" style="clip-path:url(#clipPath5); fill:none; stroke:black;" width="22" x="30" y="186" /><circle cx="41" cy="197" r="11" style="fill:none; stroke:black;" /></g><g ID="li-1:3,5" style="fill:white; text-rendering:optimizeSpeed; font-family:'Serif'; stroke:white;"><rect height="10" style="stroke:none;" width="6" x="82" y="173" /><path d="M84.1094 182.3906 Q84.1094 182.0625 84.3359 181.8359 Q84.5625 181.6094 84.8906 181.6094 Q85.2188 181.6094 85.4453 181.8359 Q85.6719 182.0625 85.6719 182.3906 Q85.6719 182.7188 85.4453 182.9453 Q85.2188 183.1719 84.8906 183.1719 Q84.5625 183.1719 84.3359 182.9453 Q84.1094 182.7188 84.1094 182.3906 ZM82.8125 174.6406 Q83.4375 174.3594 84 174.2266 Q84.5625 174.0938 85.0469 174.0938 Q86.3438 174.0938 87.1016 174.7188 Q87.8594 175.3438 87.8594 176.4062 Q87.8594 177.5 87.2109 178.1953 Q86.5625 178.8906 85.25 179.1875 L85.25 180.6719 L84.5312 180.6719 L84.5312 178.75 Q85.5625 178.5 86.0938 177.9062 Q86.625 177.3125 86.625 176.4062 Q86.625 175.5938 86.1953 175.1328 Q85.7656 174.6719 85.0312 174.6719 Q84.3594 174.6719 83.9297 175.0547 Q83.5 175.4375 83.3906 176.1562 L82.8125 176.1562 L82.8125 174.6406 Z" style="fill:black; stroke:none;" /><rect height="8" style="stroke:none;" width="8" x="81" y="160" /><path d="M86.1875 166.4688 L85.9531 167.1094 Q85.7656 167.625 85.2031 167.9375 Q84.8438 168.1562 84.2031 168.1406 Q83.0469 168.1406 82.3281 167.2344 Q81.5938 166.3281 81.5938 164.8594 Q81.5938 163.4219 82.3281 162.4844 Q83.0156 161.5938 84.4531 161.6094 Q85.4531 161.6094 85.9531 162 Q86.4062 162.3438 86.5781 163.0938 L86.625 163.3125 L86.8438 162.6719 Q87.0625 162.0469 87.6562 161.75 L88.25 161.75 L88.25 162.0938 Q87.6875 162.2656 87.5 162.8125 L86.8906 164.4844 L87.2969 166.2812 Q87.5 167.2031 87.7344 167.2969 Q88.0469 167.4375 88.7812 167 L88.7812 167.7188 Q87.5938 168.4062 86.75 167.6875 Q86.375 167.3594 86.2656 166.875 L86.1875 166.4688 ZM85.9219 165.3125 L85.5625 163.5938 Q85.2656 162.2188 84.4688 162.2188 Q83.7969 162.2031 83.2812 162.9375 Q82.8594 163.5156 82.8594 164.875 Q82.8594 166.1719 83.2812 166.8281 Q83.75 167.5469 84.5312 167.5 Q85.2031 167.4375 85.6875 166 L85.9219 165.3125 Z" style="fill:black; stroke:none;" /></g><g ID="li-1:3,6" style="fill:white; text-rendering:optimizeSpeed; font-family:'Serif'; stroke:white;"><rect height="10" style="stroke:none;" width="6" x="71" y="200" /><path d="M73.1094 209.3906 Q73.1094 209.0625 73.3359 208.8359 Q73.5625 208.6094 73.8906 208.6094 Q74.2188 208.6094 74.4453 208.8359 Q74.6719 209.0625 74.6719 209.3906 Q74.6719 209.7188 74.4453 209.9453 Q74.2188 210.1719 73.8906 210.1719 Q73.5625 210.1719 73.3359 209.9453 Q73.1094 209.7188 73.1094 209.3906 ZM71.8125 201.6406 Q72.4375 201.3594 73 201.2266 Q73.5625 201.0938 74.0469 201.0938 Q75.3438 201.0938 76.1016 201.7188 Q76.8594 202.3438 76.8594 203.4062 Q76.8594 204.5 76.2109 205.1953 Q75.5625 205.8906 74.25 206.1875 L74.25 207.6719 L73.5312 207.6719 L73.5312 205.75 Q74.5625 205.5 75.0938 204.9062 Q75.625 204.3125 75.625 203.4062 Q75.625 202.5938 75.1953 202.1328 Q74.7656 201.6719 74.0312 201.6719 Q73.3594 201.6719 72.9297 202.0547 Q72.5 202.4375 72.3906 203.1562 L71.8125 203.1562 L71.8125 201.6406 Z" style="fill:black; stroke:none;" /><rect height="13" style="stroke:none;" width="7" x="56" y="198" /><path d="M57.8281 210.25 Q58.2969 210.5938 59.1719 210.5938 Q60.0625 210.5938 60.5781 210.0703 Q61.0938 209.5469 61.0938 208.6562 Q61.0938 207.4219 60.5625 206.8906 Q60.0156 206.3594 59 206.3594 L58.4375 206.3594 L58.4375 205.7188 L58.7344 205.7188 Q59.4844 205.7188 60 205.2969 Q60.4219 204.9531 60.4219 204.0156 Q60.4219 203.6094 60.1406 203.1406 Q59.6875 202.375 59.1562 202.3906 Q57.8281 202.4375 57.8281 204.7812 L57.8281 210.25 ZM56.75 213.5 L56.75 204.7812 Q56.75 202.3281 58.0781 202 Q58.7656 201.8125 59.25 201.8125 Q60.3438 201.8125 61.0469 202.6719 Q61.6094 203.3594 61.6094 203.9375 Q61.6094 204.7812 61.2031 205.2656 Q60.7969 205.75 60.0625 205.9844 Q61.1406 206.1406 61.75 206.7812 Q62.3281 207.4062 62.3281 208.6328 Q62.3281 209.8594 61.5078 210.5156 Q60.6875 211.1719 59.1406 211.1719 Q58.1875 211.1719 57.8281 211.0312 L57.8281 213.5 L56.75 213.5 Z" style="fill:black; stroke:none;" /></g><g ID="l-1:4,7" style="text-rendering:optimizeSpeed;"><polygon points=" 93 93 93 41" style="fill:none;" /></g><g ID="l-1:4,8" style="text-rendering:optimizeSpeed;"><polygon points=" 93 93 41 93" style="fill:none;" /></g><g ID="r-1:4" style="fill:white; text-rendering:optimizeSpeed; stroke:white;" wurcs_mono_id="6"><rect height="22" style="clip-path:url(#clipPath6); stroke:none;" width="22" x="82" y="82" /><rect height="22" style="clip-path:url(#clipPath6); fill:rgb(0,144,188); stroke:none;" width="22" x="82" y="82" /><rect height="22" style="clip-path:url(#clipPath6); fill:none; stroke:black;" width="22" x="82" y="82" /><rect height="22" style="fill:none; stroke:black;" width="22" x="82" y="82" /></g><g ID="r-1:7" style="fill:white; text-rendering:optimizeSpeed; stroke:white;" wurcs_mono_id="7"><polygon points=" 93 52 82 30 104 30" style="stroke:none; clip-path:url(#clipPath7);" /><rect height="22" style="clip-path:url(#clipPath7); fill:rgb(237,28,36); stroke:none;" width="22" x="82" y="30" /><rect height="22" style="clip-path:url(#clipPath7); fill:none; stroke:black;" width="22" x="82" y="30" /><polygon points=" 93 52 82 30 104 30" style="fill:none; stroke:black;" /></g><g ID="r-1:8" style="fill:white; text-rendering:optimizeSpeed; stroke:white;" wurcs_mono_id="8"><circle cx="41" cy="93" r="11" style="clip-path:url(#clipPath8); stroke:none;" /><rect height="22" style="clip-path:url(#clipPath8); fill:rgb(255,212,0); stroke:none;" width="22" x="30" y="82" /><rect height="22" style="clip-path:url(#clipPath8); fill:none; stroke:black;" width="22" x="30" y="82" /><circle cx="41" cy="93" r="11" style="fill:none; stroke:black;" /></g><g ID="li-1:4,7" style="fill:white; text-rendering:optimizeSpeed; font-family:'Serif'; stroke:white;"><rect height="10" style="stroke:none;" width="6" x="82" y="69" /><path d="M84.1094 78.3906 Q84.1094 78.0625 84.3359 77.8359 Q84.5625 77.6094 84.8906 77.6094 Q85.2188 77.6094 85.4453 77.8359 Q85.6719 78.0625 85.6719 78.3906 Q85.6719 78.7188 85.4453 78.9453 Q85.2188 79.1719 84.8906 79.1719 Q84.5625 79.1719 84.3359 78.9453 Q84.1094 78.7188 84.1094 78.3906 ZM82.8125 70.6406 Q83.4375 70.3594 84 70.2266 Q84.5625 70.0938 85.0469 70.0938 Q86.3438 70.0938 87.1016 70.7188 Q87.8594 71.3438 87.8594 72.4062 Q87.8594 73.5 87.2109 74.1953 Q86.5625 74.8906 85.25 75.1875 L85.25 76.6719 L84.5312 76.6719 L84.5312 74.75 Q85.5625 74.5 86.0938 73.9062 Q86.625 73.3125 86.625 72.4062 Q86.625 71.5938 86.1953 71.1328 Q85.7656 70.6719 85.0312 70.6719 Q84.3594 70.6719 83.9297 71.0547 Q83.5 71.4375 83.3906 72.1562 L82.8125 72.1562 L82.8125 70.6406 Z" style="fill:black; stroke:none;" /><rect height="8" style="stroke:none;" width="8" x="81" y="56" /><path d="M86.1875 62.4688 L85.9531 63.1094 Q85.7656 63.625 85.2031 63.9375 Q84.8438 64.1562 84.2031 64.1406 Q83.0469 64.1406 82.3281 63.2344 Q81.5938 62.3281 81.5938 60.8594 Q81.5938 59.4219 82.3281 58.4844 Q83.0156 57.5938 84.4531 57.6094 Q85.4531 57.6094 85.9531 58 Q86.4062 58.3438 86.5781 59.0938 L86.625 59.3125 L86.8438 58.6719 Q87.0625 58.0469 87.6562 57.75 L88.25 57.75 L88.25 58.0938 Q87.6875 58.2656 87.5 58.8125 L86.8906 60.4844 L87.2969 62.2812 Q87.5 63.2031 87.7344 63.2969 Q88.0469 63.4375 88.7812 63 L88.7812 63.7188 Q87.5938 64.4062 86.75 63.6875 Q86.375 63.3594 86.2656 62.875 L86.1875 62.4688 ZM85.9219 61.3125 L85.5625 59.5938 Q85.2656 58.2188 84.4688 58.2188 Q83.7969 58.2031 83.2812 58.9375 Q82.8594 59.5156 82.8594 60.875 Q82.8594 62.1719 83.2812 62.8281 Q83.75 63.5469 84.5312 63.5 Q85.2031 63.4375 85.6875 62 L85.9219 61.3125 Z" style="fill:black; stroke:none;" /></g><g ID="li-1:4,8" style="fill:white; text-rendering:optimizeSpeed; font-family:'Serif'; stroke:white;"><rect height="10" style="stroke:none;" width="6" x="71" y="96" /><path d="M73.1094 105.3906 Q73.1094 105.0625 73.3359 104.8359 Q73.5625 104.6094 73.8906 104.6094 Q74.2188 104.6094 74.4453 104.8359 Q74.6719 105.0625 74.6719 105.3906 Q74.6719 105.7188 74.4453 105.9453 Q74.2188 106.1719 73.8906 106.1719 Q73.5625 106.1719 73.3359 105.9453 Q73.1094 105.7188 73.1094 105.3906 ZM71.8125 97.6406 Q72.4375 97.3594 73 97.2266 Q73.5625 97.0938 74.0469 97.0938 Q75.3438 97.0938 76.1016 97.7188 Q76.8594 98.3438 76.8594 99.4062 Q76.8594 100.5 76.2109 101.1953 Q75.5625 101.8906 74.25 102.1875 L74.25 103.6719 L73.5312 103.6719 L73.5312 101.75 Q74.5625 101.5 75.0938 100.9062 Q75.625 100.3125 75.625 99.4062 Q75.625 98.5938 75.1953 98.1328 Q74.7656 97.6719 74.0312 97.6719 Q73.3594 97.6719 72.9297 98.0547 Q72.5 98.4375 72.3906 99.1562 L71.8125 99.1562 L71.8125 97.6406 Z" style="fill:black; stroke:none;" /><rect height="13" style="stroke:none;" width="7" x="56" y="94" /><path d="M57.8281 106.25 Q58.2969 106.5938 59.1719 106.5938 Q60.0625 106.5938 60.5781 106.0703 Q61.0938 105.5469 61.0938 104.6562 Q61.0938 103.4219 60.5625 102.8906 Q60.0156 102.3594 59 102.3594 L58.4375 102.3594 L58.4375 101.7188 L58.7344 101.7188 Q59.4844 101.7188 60 101.2969 Q60.4219 100.9531 60.4219 100.0156 Q60.4219 99.6094 60.1406 99.1406 Q59.6875 98.375 59.1562 98.3906 Q57.8281 98.4375 57.8281 100.7812 L57.8281 106.25 ZM56.75 109.5 L56.75 100.7812 Q56.75 98.3281 58.0781 98 Q58.7656 97.8125 59.25 97.8125 Q60.3438 97.8125 61.0469 98.6719 Q61.6094 99.3594 61.6094 99.9375 Q61.6094 100.7812 61.2031 101.2656 Q60.7969 101.75 60.0625 101.9844 Q61.1406 102.1406 61.75 102.7812 Q62.3281 103.4062 62.3281 104.6328 Q62.3281 105.8594 61.5078 106.5156 Q60.6875 107.1719 59.1406 107.1719 Q58.1875 107.1719 57.8281 107.0312 L57.8281 109.5 L56.75 109.5 Z" style="fill:black; stroke:none;" /></g><g ID="li-1:2,3" style="fill:white; text-rendering:optimizeSpeed; font-family:'Serif'; stroke:white;"><rect height="10" style="stroke:none;" width="6" x="131" y="162" /><path d="M133.1094 171.3906 Q133.1094 171.0625 133.3359 170.8359 Q133.5625 170.6094 133.8906 170.6094 Q134.2188 170.6094 134.4453 170.8359 Q134.6719 171.0625 134.6719 171.3906 Q134.6719 171.7188 134.4453 171.9453 Q134.2188 172.1719 133.8906 172.1719 Q133.5625 172.1719 133.3359 171.9453 Q133.1094 171.7188 133.1094 171.3906 ZM131.8125 163.6406 Q132.4375 163.3594 133 163.2266 Q133.5625 163.0938 134.0469 163.0938 Q135.3438 163.0938 136.1016 163.7188 Q136.8594 164.3438 136.8594 165.4062 Q136.8594 166.5 136.2109 167.1953 Q135.5625 167.8906 134.25 168.1875 L134.25 169.6719 L133.5312 169.6719 L133.5312 167.75 Q134.5625 167.5 135.0938 166.9062 Q135.625 166.3125 135.625 165.4062 Q135.625 164.5938 135.1953 164.1328 Q134.7656 163.6719 134.0312 163.6719 Q133.3594 163.6719 132.9297 164.0547 Q132.5 164.4375 132.3906 165.1562 L131.8125 165.1562 L131.8125 163.6406 Z" style="fill:black; stroke:none;" /><rect height="13" style="stroke:none;" width="7" x="111" y="179" /><path d="M112.8281 191.25 Q113.2969 191.5938 114.1719 191.5938 Q115.0625 191.5938 115.5781 191.0703 Q116.0938 190.5469 116.0938 189.6562 Q116.0938 188.4219 115.5625 187.8906 Q115.0156 187.3594 114 187.3594 L113.4375 187.3594 L113.4375 186.7188 L113.7344 186.7188 Q114.4844 186.7188 115 186.2969 Q115.4219 185.9531 115.4219 185.0156 Q115.4219 184.6094 115.1406 184.1406 Q114.6875 183.375 114.1562 183.3906 Q112.8281 183.4375 112.8281 185.7812 L112.8281 191.25 ZM111.75 194.5 L111.75 185.7812 Q111.75 183.3281 113.0781 183 Q113.7656 182.8125 114.25 182.8125 Q115.3438 182.8125 116.0469 183.6719 Q116.6094 184.3594 116.6094 184.9375 Q116.6094 185.7812 116.2031 186.2656 Q115.7969 186.75 115.0625 186.9844 Q116.1406 187.1406 116.75 187.7812 Q117.3281 188.4062 117.3281 189.6328 Q117.3281 190.8594 116.5078 191.5156 Q115.6875 192.1719 114.1406 192.1719 Q113.1875 192.1719 112.8281 192.0312 L112.8281 194.5 L111.75 194.5 Z" style="fill:black; stroke:none;" /></g><g ID="li-1:2,4" style="fill:white; text-rendering:optimizeSpeed; font-family:'Serif'; stroke:white;"><rect height="10" style="stroke:none;" width="6" x="119" y="129" /><path d="M121.1094 138.3906 Q121.1094 138.0625 121.3359 137.8359 Q121.5625 137.6094 121.8906 137.6094 Q122.2188 137.6094 122.4453 137.8359 Q122.6719 138.0625 122.6719 138.3906 Q122.6719 138.7188 122.4453 138.9453 Q122.2188 139.1719 121.8906 139.1719 Q121.5625 139.1719 121.3359 138.9453 Q121.1094 138.7188 121.1094 138.3906 ZM119.8125 130.6406 Q120.4375 130.3594 121 130.2266 Q121.5625 130.0938 122.0469 130.0938 Q123.3438 130.0938 124.1016 130.7188 Q124.8594 131.3438 124.8594 132.4062 Q124.8594 133.5 124.2109 134.1953 Q123.5625 134.8906 122.25 135.1875 L122.25 136.6719 L121.5312 136.6719 L121.5312 134.75 Q122.5625 134.5 123.0938 133.9062 Q123.625 133.3125 123.625 132.4062 Q123.625 131.5938 123.1953 131.1328 Q122.7656 130.6719 122.0312 130.6719 Q121.3594 130.6719 120.9297 131.0547 Q120.5 131.4375 120.3906 132.1562 L119.8125 132.1562 L119.8125 130.6406 Z" style="fill:black; stroke:none;" /><rect height="13" style="stroke:none;" width="7" x="100" y="108" /><path d="M101.8281 120.25 Q102.2969 120.5938 103.1719 120.5938 Q104.0625 120.5938 104.5781 120.0703 Q105.0938 119.5469 105.0938 118.6562 Q105.0938 117.4219 104.5625 116.8906 Q104.0156 116.3594 103 116.3594 L102.4375 116.3594 L102.4375 115.7188 L102.7344 115.7188 Q103.4844 115.7188 104 115.2969 Q104.4219 114.9531 104.4219 114.0156 Q104.4219 113.6094 104.1406 113.1406 Q103.6875 112.375 103.1562 112.3906 Q101.8281 112.4375 101.8281 114.7812 L101.8281 120.25 ZM100.75 123.5 L100.75 114.7812 Q100.75 112.3281 102.0781 112 Q102.7656 111.8125 103.25 111.8125 Q104.3438 111.8125 105.0469 112.6719 Q105.6094 113.3594 105.6094 113.9375 Q105.6094 114.7812 105.2031 115.2656 Q104.7969 115.75 104.0625 115.9844 Q105.1406 116.1406 105.75 116.7812 Q106.3281 117.4062 106.3281 118.6328 Q106.3281 119.8594 105.5078 120.5156 Q104.6875 121.1719 103.1406 121.1719 Q102.1875 121.1719 101.8281 121.0312 L101.8281 123.5 L100.75 123.5 Z" style="fill:black; stroke:none;" /></g><g ID="li-1:1,2" style="fill:white; text-rendering:optimizeSpeed; font-family:'Serif'; stroke:white;"><rect height="10" style="stroke:none;" width="7" x="174" y="148" /><path d="M175.1719 149.625 Q175.8594 149.3594 176.4844 149.2266 Q177.1094 149.0938 177.6562 149.0938 Q178.9531 149.0938 179.6719 149.6484 Q180.3906 150.2031 180.3906 151.1875 Q180.3906 151.9688 179.8906 152.5 Q179.3906 153.0312 178.4844 153.2188 Q179.5625 153.375 180.1562 154.0078 Q180.75 154.6406 180.75 155.6406 Q180.75 156.8594 179.9219 157.5156 Q179.0938 158.1719 177.5469 158.1719 Q176.8594 158.1719 176.2109 158.0234 Q175.5625 157.875 174.9219 157.5781 L174.9219 155.875 L175.5781 155.875 Q175.625 156.7188 176.1406 157.1562 Q176.6562 157.5938 177.5781 157.5938 Q178.4688 157.5938 178.9922 157.0703 Q179.5156 156.5469 179.5156 155.6562 Q179.5156 154.625 178.9766 154.0938 Q178.4375 153.5625 177.4062 153.5625 L176.8594 153.5625 L176.8594 152.9531 L177.1406 152.9531 Q178.1719 152.9531 178.6875 152.5312 Q179.2031 152.1094 179.2031 151.25 Q179.2031 150.4844 178.7812 150.0781 Q178.3594 149.6719 177.5625 149.6719 Q176.7656 149.6719 176.3359 150.0469 Q175.9062 150.4219 175.8281 151.1562 L175.1719 151.1562 L175.1719 149.625 Z" style="fill:black; stroke:none;" /><rect height="13" style="stroke:none;" width="7" x="160" y="146" /><path d="M161.8281 158.25 Q162.2969 158.5938 163.1719 158.5938 Q164.0625 158.5938 164.5781 158.0703 Q165.0938 157.5469 165.0938 156.6562 Q165.0938 155.4219 164.5625 154.8906 Q164.0156 154.3594 163 154.3594 L162.4375 154.3594 L162.4375 153.7188 L162.7344 153.7188 Q163.4844 153.7188 164 153.2969 Q164.4219 152.9531 164.4219 152.0156 Q164.4219 151.6094 164.1406 151.1406 Q163.6875 150.375 163.1562 150.3906 Q161.8281 150.4375 161.8281 152.7812 L161.8281 158.25 ZM160.75 161.5 L160.75 152.7812 Q160.75 150.3281 162.0781 150 Q162.7656 149.8125 163.25 149.8125 Q164.3438 149.8125 165.0469 150.6719 Q165.6094 151.3594 165.6094 151.9375 Q165.6094 152.7812 165.2031 153.2656 Q164.7969 153.75 164.0625 153.9844 Q165.1406 154.1406 165.75 154.7812 Q166.3281 155.4062 166.3281 156.6328 Q166.3281 157.8594 165.5078 158.5156 Q164.6875 159.1719 163.1406 159.1719 Q162.1875 159.1719 161.8281 159.0312 L161.8281 161.5 L160.75 161.5 Z" style="fill:black; stroke:none;" /></g></g></svg>