<svg xmlns="http://www.w3.org/2000/svg" style="fill-opacity:1; color-rendering:auto; color-interpolation:auto; text-rendering:auto; stroke:black; stroke-linecap:square; stroke-miterlimit:10; shape-rendering:auto; stroke-opacity:1; fill:black; stroke-dasharray:none; font-weight:normal; stroke-width:1; font-family:'Dialog'; font-style:normal; stroke-linejoin:miter; font-size:12px; stroke-dashoffset:0; image-rendering:auto;"><defs id="genericDefs" /><g><defs id="defs1"><clipPath clipPathUnits="userSpaceOnUse" id="clipPath1"><path d="M104 119 C104 125.0751 99.0751 130 93 130 C86.9249 130 82 125.0751 82 119 C82 112.9249 86.9249 108 93 108 C99.0751 108 104 112.9249 104 119 Z" /></clipPath><clipPath clipPathUnits="userSpaceOnUse" id="clipPath2"><path d="M52 197 C52 203.0751 47.0751 208 41 208 C34.9249 208 30 203.0751 30 197 C30 190.9249 34.9249 186 41 186 C47.0751 186 52 190.9249 52 197 Z" /></clipPath><clipPath clipPathUnits="userSpaceOnUse" id="clipPath3"><path d="M52 145 C52 151.0751 47.0751 156 41 156 C34.9249 156 30 151.0751 30 145 C30 138.9249 34.9249 134 41 134 C47.0751 134 52 138.9249 52 145 Z" /></clipPath><clipPath clipPathUnits="userSpaceOnUse" id="clipPath4"><path d="M52 93 C52 99.0751 47.0751 104 41 104 C34.9249 104 30 99.0751 30 93 C30 86.9249 34.9249 82 41 82 C47.0751 82 52 86.9249 52 93 Z" /></clipPath><clipPath clipPathUnits="userSpaceOnUse" id="clipPath5"><path d="M52 41 C52 47.0751 47.0751 52 41 52 C34.9249 52 30 47.0751 30 41 C30 34.9249 34.9249 30 41 30 C47.0751 30 52 34.9249 52 41 Z" /></clipPath></defs><g style="fill:white; text-rendering:optimizeSpeed; stroke:white;"><rect height="238" style="stroke:none;" width="134" x="0" y="0" /></g><g ID="l-1:1,2" style="text-rendering:optimizeSpeed;"><polygon points=" 93 119 41 197" style="fill:none;" /></g><g ID="l-1:1,3" style="text-rendering:optimizeSpeed;"><polygon points=" 93 119 41 145" style="fill:none;" /></g><g ID="l-1:1,4" style="text-rendering:optimizeSpeed;"><polygon points=" 93 119 41 93" style="fill:none;" /></g><g ID="l-1:1,5" style="text-rendering:optimizeSpeed;"><polygon points=" 93 119 41 41" style="fill:none;" /></g><g ID="r-1:1" style="fill:white; text-rendering:optimizeSpeed; stroke:white;" wurcs_mono_id="1"><circle cx="93" cy="119" r="11" style="clip-path:url(#clipPath1); stroke:none;" /><rect height="22" style="clip-path:url(#clipPath1); fill:rgb(0,144,188); stroke:none;" width="22" x="82" y="108" /><rect height="22" style="clip-path:url(#clipPath1); fill:none; stroke:black;" width="22" x="82" y="108" /><circle cx="93" cy="119" r="11" style="fill:none; stroke:black;" /></g><g ID="r-1:2" style="fill:white; text-rendering:optimizeSpeed; stroke:white;" wurcs_mono_id="2"><circle cx="41" cy="197" r="11" style="clip-path:url(#clipPath2); stroke:none;" /><rect height="22" style="clip-path:url(#clipPath2); fill:rgb(255,212,0); stroke:none;" width="22" x="30" y="186" /><rect height="22" style="clip-path:url(#clipPath2); fill:none; stroke:black;" width="22" x="30" y="186" /><circle cx="41" cy="197" r="11" style="fill:none; stroke:black;" /></g><g ID="r-1:3" style="fill:white; text-rendering:optimizeSpeed; stroke:white;" wurcs_mono_id="4"><circle cx="41" cy="145" r="11" style="clip-path:url(#clipPath3); stroke:none;" /><rect height="22" style="clip-path:url(#clipPath3); fill:rgb(255,212,0); stroke:none;" width="22" x="30" y="134" /><rect height="22" style="clip-path:url(#clipPath3); fill:none; stroke:black;" width="22" x="30" y="134" /><circle cx="41" cy="145" r="11" style="fill:none; stroke:black;" /></g><g ID="r-1:4" style="fill:white; text-rendering:optimizeSpeed; stroke:white;" wurcs_mono_id="3"><circle cx="41" cy="93" r="11" style="clip-path:url(#clipPath4); stroke:none;" /><rect height="22" style="clip-path:url(#clipPath4); fill:rgb(255,212,0); stroke:none;" width="22" x="30" y="82" /><rect height="22" style="clip-path:url(#clipPath4); fill:none; stroke:black;" width="22" x="30" y="82" /><circle cx="41" cy="93" r="11" style="fill:none; stroke:black;" /></g><g ID="r-1:5" style="fill:white; text-rendering:optimizeSpeed; stroke:white;" wurcs_mono_id="5"><circle cx="41" cy="41" r="11" style="clip-path:url(#clipPath5); stroke:none;" /><rect height="22" style="clip-path:url(#clipPath5); fill:rgb(255,212,0); stroke:none;" width="22" x="30" y="30" /><rect height="22" style="clip-path:url(#clipPath5); fill:none; stroke:black;" width="22" x="30" y="30" /><circle cx="41" cy="41" r="11" style="fill:none; stroke:black;" /></g><g ID="li-1:1,2" style="fill:white; text-rendering:optimizeSpeed; font-family:'Serif'; stroke:white;"><rect height="10" style="stroke:none;" width="6" x="84" y="136" /><path d="M86.1094 145.3906 Q86.1094 145.0625 86.3359 144.8359 Q86.5625 144.6094 86.8906 144.6094 Q87.2188 144.6094 87.4453 144.8359 Q87.6719 145.0625 87.6719 145.3906 Q87.6719 145.7188 87.4453 145.9453 Q87.2188 146.1719 86.8906 146.1719 Q86.5625 146.1719 86.3359 145.9453 Q86.1094 145.7188 86.1094 145.3906 ZM84.8125 137.6406 Q85.4375 137.3594 86 137.2266 Q86.5625 137.0938 87.0469 137.0938 Q88.3438 137.0938 89.1016 137.7188 Q89.8594 138.3438 89.8594 139.4062 Q89.8594 140.5 89.2109 141.1953 Q88.5625 141.8906 87.25 142.1875 L87.25 143.6719 L86.5312 143.6719 L86.5312 141.75 Q87.5625 141.5 88.0938 140.9062 Q88.625 140.3125 88.625 139.4062 Q88.625 138.5938 88.1953 138.1328 Q87.7656 137.6719 87.0312 137.6719 Q86.3594 137.6719 85.9297 138.0547 Q85.5 138.4375 85.3906 139.1562 L84.8125 139.1562 L84.8125 137.6406 Z" style="fill:black; stroke:none;" /><rect height="10" style="stroke:none;" width="6" x="56" y="178" /><path d="M58.1094 187.3906 Q58.1094 187.0625 58.3359 186.8359 Q58.5625 186.6094 58.8906 186.6094 Q59.2188 186.6094 59.4453 186.8359 Q59.6719 187.0625 59.6719 187.3906 Q59.6719 187.7188 59.4453 187.9453 Q59.2188 188.1719 58.8906 188.1719 Q58.5625 188.1719 58.3359 187.9453 Q58.1094 187.7188 58.1094 187.3906 ZM56.8125 179.6406 Q57.4375 179.3594 58 179.2266 Q58.5625 179.0938 59.0469 179.0938 Q60.3438 179.0938 61.1016 179.7188 Q61.8594 180.3438 61.8594 181.4062 Q61.8594 182.5 61.2109 183.1953 Q60.5625 183.8906 59.25 184.1875 L59.25 185.6719 L58.5312 185.6719 L58.5312 183.75 Q59.5625 183.5 60.0938 182.9062 Q60.625 182.3125 60.625 181.4062 Q60.625 180.5938 60.1953 180.1328 Q59.7656 179.6719 59.0312 179.6719 Q58.3594 179.6719 57.9297 180.0547 Q57.5 180.4375 57.3906 181.1562 L56.8125 181.1562 L56.8125 179.6406 Z" style="fill:black; stroke:none;" /></g><g ID="li-1:1,3" style="fill:white; text-rendering:optimizeSpeed; font-family:'Serif'; stroke:white;"><rect height="10" style="stroke:none;" width="6" x="75" y="130" /><path d="M77.1094 139.3906 Q77.1094 139.0625 77.3359 138.8359 Q77.5625 138.6094 77.8906 138.6094 Q78.2188 138.6094 78.4453 138.8359 Q78.6719 139.0625 78.6719 139.3906 Q78.6719 139.7188 78.4453 139.9453 Q78.2188 140.1719 77.8906 140.1719 Q77.5625 140.1719 77.3359 139.9453 Q77.1094 139.7188 77.1094 139.3906 ZM75.8125 131.6406 Q76.4375 131.3594 77 131.2266 Q77.5625 131.0938 78.0469 131.0938 Q79.3438 131.0938 80.1016 131.7188 Q80.8594 132.3438 80.8594 133.4062 Q80.8594 134.5 80.2109 135.1953 Q79.5625 135.8906 78.25 136.1875 L78.25 137.6719 L77.5312 137.6719 L77.5312 135.75 Q78.5625 135.5 79.0938 134.9062 Q79.625 134.3125 79.625 133.4062 Q79.625 132.5938 79.1953 132.1328 Q78.7656 131.6719 78.0312 131.6719 Q77.3594 131.6719 76.9297 132.0547 Q76.5 132.4375 76.3906 133.1562 L75.8125 133.1562 L75.8125 131.6406 Z" style="fill:black; stroke:none;" /><rect height="10" style="stroke:none;" width="6" x="59" y="138" /><path d="M61.1094 147.3906 Q61.1094 147.0625 61.3359 146.8359 Q61.5625 146.6094 61.8906 146.6094 Q62.2188 146.6094 62.4453 146.8359 Q62.6719 147.0625 62.6719 147.3906 Q62.6719 147.7188 62.4453 147.9453 Q62.2188 148.1719 61.8906 148.1719 Q61.5625 148.1719 61.3359 147.9453 Q61.1094 147.7188 61.1094 147.3906 ZM59.8125 139.6406 Q60.4375 139.3594 61 139.2266 Q61.5625 139.0938 62.0469 139.0938 Q63.3438 139.0938 64.1016 139.7188 Q64.8594 140.3438 64.8594 141.4062 Q64.8594 142.5 64.2109 143.1953 Q63.5625 143.8906 62.25 144.1875 L62.25 145.6719 L61.5312 145.6719 L61.5312 143.75 Q62.5625 143.5 63.0938 142.9062 Q63.625 142.3125 63.625 141.4062 Q63.625 140.5938 63.1953 140.1328 Q62.7656 139.6719 62.0312 139.6719 Q61.3594 139.6719 60.9297 140.0547 Q60.5 140.4375 60.3906 141.1562 L59.8125 141.1562 L59.8125 139.6406 Z" style="fill:black; stroke:none;" /></g><g ID="li-1:1,4" style="fill:white; text-rendering:optimizeSpeed; font-family:'Serif'; stroke:white;"><rect height="10" style="stroke:none;" width="6" x="68" y="112" /><path d="M70.1094 121.3906 Q70.1094 121.0625 70.3359 120.8359 Q70.5625 120.6094 70.8906 120.6094 Q71.2188 120.6094 71.4453 120.8359 Q71.6719 121.0625 71.6719 121.3906 Q71.6719 121.7188 71.4453 121.9453 Q71.2188 122.1719 70.8906 122.1719 Q70.5625 122.1719 70.3359 121.9453 Q70.1094 121.7188 70.1094 121.3906 ZM68.8125 113.6406 Q69.4375 113.3594 70 113.2266 Q70.5625 113.0938 71.0469 113.0938 Q72.3438 113.0938 73.1016 113.7188 Q73.8594 114.3438 73.8594 115.4062 Q73.8594 116.5 73.2109 117.1953 Q72.5625 117.8906 71.25 118.1875 L71.25 119.6719 L70.5312 119.6719 L70.5312 117.75 Q71.5625 117.5 72.0938 116.9062 Q72.625 116.3125 72.625 115.4062 Q72.625 114.5938 72.1953 114.1328 Q71.7656 113.6719 71.0312 113.6719 Q70.3594 113.6719 69.9297 114.0547 Q69.5 114.4375 69.3906 115.1562 L68.8125 115.1562 L68.8125 113.6406 Z" style="fill:black; stroke:none;" /><rect height="10" style="stroke:none;" width="6" x="52" y="104" /><path d="M54.1094 113.3906 Q54.1094 113.0625 54.3359 112.8359 Q54.5625 112.6094 54.8906 112.6094 Q55.2188 112.6094 55.4453 112.8359 Q55.6719 113.0625 55.6719 113.3906 Q55.6719 113.7188 55.4453 113.9453 Q55.2188 114.1719 54.8906 114.1719 Q54.5625 114.1719 54.3359 113.9453 Q54.1094 113.7188 54.1094 113.3906 ZM52.8125 105.6406 Q53.4375 105.3594 54 105.2266 Q54.5625 105.0938 55.0469 105.0938 Q56.3438 105.0938 57.1016 105.7188 Q57.8594 106.3438 57.8594 107.4062 Q57.8594 108.5 57.2109 109.1953 Q56.5625 109.8906 55.25 110.1875 L55.25 111.6719 L54.5312 111.6719 L54.5312 109.75 Q55.5625 109.5 56.0938 108.9062 Q56.625 108.3125 56.625 107.4062 Q56.625 106.5938 56.1953 106.1328 Q55.7656 105.6719 55.0312 105.6719 Q54.3594 105.6719 53.9297 106.0547 Q53.5 106.4375 53.3906 107.1562 L52.8125 107.1562 L52.8125 105.6406 Z" style="fill:black; stroke:none;" /></g><g ID="li-1:1,5" style="fill:white; text-rendering:optimizeSpeed; font-family:'Serif'; stroke:white;"><rect height="10" style="stroke:none;" width="6" x="71" y="100" /><path d="M73.1094 109.3906 Q73.1094 109.0625 73.3359 108.8359 Q73.5625 108.6094 73.8906 108.6094 Q74.2188 108.6094 74.4453 108.8359 Q74.6719 109.0625 74.6719 109.3906 Q74.6719 109.7188 74.4453 109.9453 Q74.2188 110.1719 73.8906 110.1719 Q73.5625 110.1719 73.3359 109.9453 Q73.1094 109.7188 73.1094 109.3906 ZM71.8125 101.6406 Q72.4375 101.3594 73 101.2266 Q73.5625 101.0938 74.0469 101.0938 Q75.3438 101.0938 76.1016 101.7188 Q76.8594 102.3438 76.8594 103.4062 Q76.8594 104.5 76.2109 105.1953 Q75.5625 105.8906 74.25 106.1875 L74.25 107.6719 L73.5312 107.6719 L73.5312 105.75 Q74.5625 105.5 75.0938 104.9062 Q75.625 104.3125 75.625 103.4062 Q75.625 102.5938 75.1953 102.1328 Q74.7656 101.6719 74.0312 101.6719 Q73.3594 101.6719 72.9297 102.0547 Q72.5 102.4375 72.3906 103.1562 L71.8125 103.1562 L71.8125 101.6406 Z" style="fill:black; stroke:none;" /><rect height="10" style="stroke:none;" width="6" x="43" y="58" /><path d="M45.1094 67.3906 Q45.1094 67.0625 45.3359 66.8359 Q45.5625 66.6094 45.8906 66.6094 Q46.2188 66.6094 46.4453 66.8359 Q46.6719 67.0625 46.6719 67.3906 Q46.6719 67.7188 46.4453 67.9453 Q46.2188 68.1719 45.8906 68.1719 Q45.5625 68.1719 45.3359 67.9453 Q45.1094 67.7188 45.1094 67.3906 ZM43.8125 59.6406 Q44.4375 59.3594 45 59.2266 Q45.5625 59.0938 46.0469 59.0938 Q47.3438 59.0938 48.1016 59.7188 Q48.8594 60.3438 48.8594 61.4062 Q48.8594 62.5 48.2109 63.1953 Q47.5625 63.8906 46.25 64.1875 L46.25 65.6719 L45.5312 65.6719 L45.5312 63.75 Q46.5625 63.5 47.0938 62.9062 Q47.625 62.3125 47.625 61.4062 Q47.625 60.5938 47.1953 60.1328 Q46.7656 59.6719 46.0312 59.6719 Q45.3594 59.6719 44.9297 60.0547 Q44.5 60.4375 44.3906 61.1562 L43.8125 61.1562 L43.8125 59.6406 Z" style="fill:black; stroke:none;" /></g></g></svg>