<svg xmlns="http://www.w3.org/2000/svg" style="fill-opacity:1; color-rendering:auto; color-interpolation:auto; text-rendering:auto; stroke:black; stroke-linecap:square; stroke-miterlimit:10; shape-rendering:auto; stroke-opacity:1; fill:black; stroke-dasharray:none; font-weight:normal; stroke-width:1; font-family:'Dialog'; font-style:normal; stroke-linejoin:miter; font-size:12px; stroke-dashoffset:0; image-rendering:auto;"><defs id="genericDefs" /><g><defs id="defs1"><clipPath clipPathUnits="userSpaceOnUse" id="clipPath1"><path d="M394 160 L416 160 L416 182 L394 182 L394 160 Z" /></clipPath><clipPath clipPathUnits="userSpaceOnUse" id="clipPath2"><path d="M342 160 L364 160 L364 182 L342 182 L342 160 Z" /></clipPath><clipPath clipPathUnits="userSpaceOnUse" id="clipPath3"><path d="M312 171 C312 177.0751 307.0751 182 301 182 C294.9249 182 290 177.0751 290 171 C290 164.9249 294.9249 160 301 160 C307.0751 160 312 164.9249 312 171 Z" /></clipPath><clipPath clipPathUnits="userSpaceOnUse" id="clipPath4"><path d="M260 249 C260 255.0751 255.0751 260 249 260 C242.9249 260 238 255.0751 238 249 C238 242.9249 242.9249 238 249 238 C255.0751 238 260 242.9249 260 249 Z" /></clipPath><clipPath clipPathUnits="userSpaceOnUse" id="clipPath5"><path d="M186 290 L208 290 L208 312 L186 312 L186 290 Z" /></clipPath><clipPath clipPathUnits="userSpaceOnUse" id="clipPath6"><path d="M156 301 C156 307.0751 151.0751 312 145 312 C138.9249 312 134 307.0751 134 301 C134 294.9249 138.9249 290 145 290 C151.0751 290 156 294.9249 156 301 Z" /></clipPath><clipPath clipPathUnits="userSpaceOnUse" id="clipPath7"><path d="M82 290 L104 290 L104 312 L82 312 L82 290 Z" /></clipPath><clipPath clipPathUnits="userSpaceOnUse" id="clipPath8"><path d="M93 260 L82 238 L104 238 Z" style="fill-rule:evenodd;" /></clipPath><clipPath clipPathUnits="userSpaceOnUse" id="clipPath9"><path d="M52 301 C52 307.0751 47.0751 312 41 312 C34.9249 312 30 307.0751 30 301 C30 294.9249 34.9249 290 41 290 C47.0751 290 52 294.9249 52 301 Z" /></clipPath><clipPath clipPathUnits="userSpaceOnUse" id="clipPath10"><path d="M197 260 L186 238 L208 238 Z" style="fill-rule:evenodd;" /></clipPath><clipPath clipPathUnits="userSpaceOnUse" id="clipPath11"><path d="M186 186 L208 186 L208 208 L186 208 L186 186 Z" /></clipPath><clipPath clipPathUnits="userSpaceOnUse" id="clipPath12"><path d="M197 156 L186 134 L208 134 Z" style="fill-rule:evenodd;" /></clipPath><clipPath clipPathUnits="userSpaceOnUse" id="clipPath13"><path d="M156 197 C156 203.0751 151.0751 208 145 208 C138.9249 208 134 203.0751 134 197 C134 190.9249 138.9249 186 145 186 C151.0751 186 156 190.9249 156 197 Z" /></clipPath><clipPath clipPathUnits="userSpaceOnUse" id="clipPath14"><path d="M260 93 C260 99.0751 255.0751 104 249 104 C242.9249 104 238 99.0751 238 93 C238 86.9249 242.9249 82 249 82 C255.0751 82 260 86.9249 260 93 Z" /></clipPath><clipPath clipPathUnits="userSpaceOnUse" id="clipPath15"><path d="M186 82 L208 82 L208 104 L186 104 L186 82 Z" /></clipPath><clipPath clipPathUnits="userSpaceOnUse" id="clipPath16"><path d="M197 52 L186 30 L208 30 Z" style="fill-rule:evenodd;" /></clipPath><clipPath clipPathUnits="userSpaceOnUse" id="clipPath17"><path d="M156 93 C156 99.0751 151.0751 104 145 104 C138.9249 104 134 99.0751 134 93 C134 86.9249 138.9249 82 145 82 C151.0751 82 156 86.9249 156 93 Z" /></clipPath><clipPath clipPathUnits="userSpaceOnUse" id="clipPath18"><path d="M405 130 L394 108 L416 108 Z" style="fill-rule:evenodd;" /></clipPath></defs><g style="fill:white; text-rendering:optimizeSpeed; stroke:white;"><rect height="342" style="stroke:none;" width="446" x="0" y="0" /></g><g ID="l-1:1,2" style="text-rendering:optimizeSpeed;"><polygon points=" 405 171 353 171" style="fill:none;" /></g><g ID="l-1:1,3" style="text-rendering:optimizeSpeed;"><polygon points=" 405 171 405 119" style="fill:none;" /></g><g ID="r-1:1" style="fill:white; text-rendering:optimizeSpeed; stroke:white;" wurcs_mono_id="1"><rect height="22" style="clip-path:url(#clipPath1); stroke:none;" width="22" x="394" y="160" /><rect height="22" style="clip-path:url(#clipPath1); fill:rgb(0,144,188); stroke:none;" width="22" x="394" y="160" /><rect height="22" style="clip-path:url(#clipPath1); fill:none; stroke:black;" width="22" x="394" y="160" /><rect height="22" style="fill:none; stroke:black;" width="22" x="394" y="160" /></g><g ID="l-1:2,4" style="text-rendering:optimizeSpeed;"><polygon points=" 353 171 301 171" style="fill:none;" /></g><g ID="r-1:2" style="fill:white; text-rendering:optimizeSpeed; stroke:white;" wurcs_mono_id="2"><rect height="22" style="clip-path:url(#clipPath2); stroke:none;" width="22" x="342" y="160" /><rect height="22" style="clip-path:url(#clipPath2); fill:rgb(0,144,188); stroke:none;" width="22" x="342" y="160" /><rect height="22" style="clip-path:url(#clipPath2); fill:none; stroke:black;" width="22" x="342" y="160" /><rect height="22" style="fill:none; stroke:black;" width="22" x="342" y="160" /></g><g ID="l-1:4,5" style="text-rendering:optimizeSpeed;"><polygon points=" 301 171 249 249" style="fill:none;" /></g><g ID="l-1:4,6" style="text-rendering:optimizeSpeed;"><polygon points=" 301 171 249 93" style="fill:none;" /></g><g ID="r-1:4" style="fill:white; text-rendering:optimizeSpeed; stroke:white;" wurcs_mono_id="3"><circle cx="301" cy="171" r="11" style="clip-path:url(#clipPath3); stroke:none;" /><rect height="22" style="clip-path:url(#clipPath3); fill:rgb(0,166,81); stroke:none;" width="22" x="290" y="160" /><rect height="22" style="clip-path:url(#clipPath3); fill:none; stroke:black;" width="22" x="290" y="160" /><circle cx="301" cy="171" r="11" style="fill:none; stroke:black;" /></g><g ID="l-1:5,7" style="text-rendering:optimizeSpeed;"><polygon points=" 249 249 197 301" style="fill:none;" /></g><g ID="l-1:5,8" style="text-rendering:optimizeSpeed;"><polygon points=" 249 249 197 197" style="fill:none;" /></g><g ID="r-1:5" style="fill:white; text-rendering:optimizeSpeed; stroke:white;" wurcs_mono_id="4"><circle cx="249" cy="249" r="11" style="clip-path:url(#clipPath4); stroke:none;" /><rect height="22" style="clip-path:url(#clipPath4); fill:rgb(0,166,81); stroke:none;" width="22" x="238" y="238" /><rect height="22" style="clip-path:url(#clipPath4); fill:none; stroke:black;" width="22" x="238" y="238" /><circle cx="249" cy="249" r="11" style="fill:none; stroke:black;" /></g><g ID="l-1:7,9" style="text-rendering:optimizeSpeed;"><polygon points=" 197 301 145 301" style="fill:none;" /></g><g ID="l-1:7,10" style="text-rendering:optimizeSpeed;"><polygon points=" 197 301 197 249" style="fill:none;" /></g><g ID="r-1:7" style="fill:white; text-rendering:optimizeSpeed; stroke:white;" wurcs_mono_id="5"><rect height="22" style="clip-path:url(#clipPath5); stroke:none;" width="22" x="186" y="290" /><rect height="22" style="clip-path:url(#clipPath5); fill:rgb(0,144,188); stroke:none;" width="22" x="186" y="290" /><rect height="22" style="clip-path:url(#clipPath5); fill:none; stroke:black;" width="22" x="186" y="290" /><rect height="22" style="fill:none; stroke:black;" width="22" x="186" y="290" /></g><g ID="l-1:9,11" style="text-rendering:optimizeSpeed;"><polygon points=" 145 301 93 301" style="fill:none;" /></g><g ID="r-1:9" style="fill:white; text-rendering:optimizeSpeed; stroke:white;" wurcs_mono_id="6"><circle cx="145" cy="301" r="11" style="clip-path:url(#clipPath6); stroke:none;" /><rect height="22" style="clip-path:url(#clipPath6); fill:rgb(255,212,0); stroke:none;" width="22" x="134" y="290" /><rect height="22" style="clip-path:url(#clipPath6); fill:none; stroke:black;" width="22" x="134" y="290" /><circle cx="145" cy="301" r="11" style="fill:none; stroke:black;" /></g><g ID="l-1:11,12" style="text-rendering:optimizeSpeed;"><polygon points=" 93 301 93 249" style="fill:none;" /></g><g ID="l-1:11,13" style="text-rendering:optimizeSpeed;"><polygon points=" 93 301 41 301" style="fill:none;" /></g><g ID="r-1:11" style="fill:white; text-rendering:optimizeSpeed; stroke:white;" wurcs_mono_id="7"><rect height="22" style="clip-path:url(#clipPath7); stroke:none;" width="22" x="82" y="290" /><rect height="22" style="clip-path:url(#clipPath7); fill:rgb(0,144,188); stroke:none;" width="22" x="82" y="290" /><rect height="22" style="clip-path:url(#clipPath7); fill:none; stroke:black;" width="22" x="82" y="290" /><rect height="22" style="fill:none; stroke:black;" width="22" x="82" y="290" /></g><g ID="r-1:12" style="fill:white; text-rendering:optimizeSpeed; stroke:white;" wurcs_mono_id="8"><polygon points=" 93 260 82 238 104 238" style="stroke:none; clip-path:url(#clipPath8);" /><rect height="22" style="clip-path:url(#clipPath8); fill:rgb(237,28,36); stroke:none;" width="22" x="82" y="238" /><rect height="22" style="clip-path:url(#clipPath8); fill:none; stroke:black;" width="22" x="82" y="238" /><polygon points=" 93 260 82 238 104 238" style="fill:none; stroke:black;" /></g><g ID="r-1:13" style="fill:white; text-rendering:optimizeSpeed; stroke:white;" wurcs_mono_id="9"><circle cx="41" cy="301" r="11" style="clip-path:url(#clipPath9); stroke:none;" /><rect height="22" style="clip-path:url(#clipPath9); fill:rgb(255,212,0); stroke:none;" width="22" x="30" y="290" /><rect height="22" style="clip-path:url(#clipPath9); fill:none; stroke:black;" width="22" x="30" y="290" /><circle cx="41" cy="301" r="11" style="fill:none; stroke:black;" /></g><g ID="li-1:11,12" style="fill:white; text-rendering:optimizeSpeed; font-family:'Serif'; stroke:white;"><rect height="10" style="stroke:none;" width="6" x="82" y="277" /><path d="M84.1094 286.3906 Q84.1094 286.0625 84.3359 285.8359 Q84.5625 285.6094 84.8906 285.6094 Q85.2188 285.6094 85.4453 285.8359 Q85.6719 286.0625 85.6719 286.3906 Q85.6719 286.7188 85.4453 286.9453 Q85.2188 287.1719 84.8906 287.1719 Q84.5625 287.1719 84.3359 286.9453 Q84.1094 286.7188 84.1094 286.3906 ZM82.8125 278.6406 Q83.4375 278.3594 84 278.2266 Q84.5625 278.0938 85.0469 278.0938 Q86.3438 278.0938 87.1016 278.7188 Q87.8594 279.3438 87.8594 280.4062 Q87.8594 281.5 87.2109 282.1953 Q86.5625 282.8906 85.25 283.1875 L85.25 284.6719 L84.5312 284.6719 L84.5312 282.75 Q85.5625 282.5 86.0938 281.9062 Q86.625 281.3125 86.625 280.4062 Q86.625 279.5938 86.1953 279.1328 Q85.7656 278.6719 85.0312 278.6719 Q84.3594 278.6719 83.9297 279.0547 Q83.5 279.4375 83.3906 280.1562 L82.8125 280.1562 L82.8125 278.6406 Z" style="fill:black; stroke:none;" /><rect height="10" style="stroke:none;" width="6" x="82" y="263" /><path d="M84.1094 272.3906 Q84.1094 272.0625 84.3359 271.8359 Q84.5625 271.6094 84.8906 271.6094 Q85.2188 271.6094 85.4453 271.8359 Q85.6719 272.0625 85.6719 272.3906 Q85.6719 272.7188 85.4453 272.9453 Q85.2188 273.1719 84.8906 273.1719 Q84.5625 273.1719 84.3359 272.9453 Q84.1094 272.7188 84.1094 272.3906 ZM82.8125 264.6406 Q83.4375 264.3594 84 264.2266 Q84.5625 264.0938 85.0469 264.0938 Q86.3438 264.0938 87.1016 264.7188 Q87.8594 265.3438 87.8594 266.4062 Q87.8594 267.5 87.2109 268.1953 Q86.5625 268.8906 85.25 269.1875 L85.25 270.6719 L84.5312 270.6719 L84.5312 268.75 Q85.5625 268.5 86.0938 267.9062 Q86.625 267.3125 86.625 266.4062 Q86.625 265.5938 86.1953 265.1328 Q85.7656 264.6719 85.0312 264.6719 Q84.3594 264.6719 83.9297 265.0547 Q83.5 265.4375 83.3906 266.1562 L82.8125 266.1562 L82.8125 264.6406 Z" style="fill:black; stroke:none;" /></g><g ID="li-1:11,13" style="fill:white; text-rendering:optimizeSpeed; font-family:'Serif'; stroke:white;"><rect height="10" style="stroke:none;" width="6" x="71" y="304" /><path d="M73.1094 313.3906 Q73.1094 313.0625 73.3359 312.8359 Q73.5625 312.6094 73.8906 312.6094 Q74.2188 312.6094 74.4453 312.8359 Q74.6719 313.0625 74.6719 313.3906 Q74.6719 313.7188 74.4453 313.9453 Q74.2188 314.1719 73.8906 314.1719 Q73.5625 314.1719 73.3359 313.9453 Q73.1094 313.7188 73.1094 313.3906 ZM71.8125 305.6406 Q72.4375 305.3594 73 305.2266 Q73.5625 305.0938 74.0469 305.0938 Q75.3438 305.0938 76.1016 305.7188 Q76.8594 306.3438 76.8594 307.4062 Q76.8594 308.5 76.2109 309.1953 Q75.5625 309.8906 74.25 310.1875 L74.25 311.6719 L73.5312 311.6719 L73.5312 309.75 Q74.5625 309.5 75.0938 308.9062 Q75.625 308.3125 75.625 307.4062 Q75.625 306.5938 75.1953 306.1328 Q74.7656 305.6719 74.0312 305.6719 Q73.3594 305.6719 72.9297 306.0547 Q72.5 306.4375 72.3906 307.1562 L71.8125 307.1562 L71.8125 305.6406 Z" style="fill:black; stroke:none;" /><rect height="10" style="stroke:none;" width="6" x="57" y="304" /><path d="M59.1094 313.3906 Q59.1094 313.0625 59.3359 312.8359 Q59.5625 312.6094 59.8906 312.6094 Q60.2188 312.6094 60.4453 312.8359 Q60.6719 313.0625 60.6719 313.3906 Q60.6719 313.7188 60.4453 313.9453 Q60.2188 314.1719 59.8906 314.1719 Q59.5625 314.1719 59.3359 313.9453 Q59.1094 313.7188 59.1094 313.3906 ZM57.8125 305.6406 Q58.4375 305.3594 59 305.2266 Q59.5625 305.0938 60.0469 305.0938 Q61.3438 305.0938 62.1016 305.7188 Q62.8594 306.3438 62.8594 307.4062 Q62.8594 308.5 62.2109 309.1953 Q61.5625 309.8906 60.25 310.1875 L60.25 311.6719 L59.5312 311.6719 L59.5312 309.75 Q60.5625 309.5 61.0938 308.9062 Q61.625 308.3125 61.625 307.4062 Q61.625 306.5938 61.1953 306.1328 Q60.7656 305.6719 60.0312 305.6719 Q59.3594 305.6719 58.9297 306.0547 Q58.5 306.4375 58.3906 307.1562 L57.8125 307.1562 L57.8125 305.6406 Z" style="fill:black; stroke:none;" /></g><g ID="li-1:9,11" style="fill:white; text-rendering:optimizeSpeed; font-family:'Serif'; stroke:white;"><rect height="10" style="stroke:none;" width="6" x="123" y="304" /><path d="M125.1094 313.3906 Q125.1094 313.0625 125.3359 312.8359 Q125.5625 312.6094 125.8906 312.6094 Q126.2188 312.6094 126.4453 312.8359 Q126.6719 313.0625 126.6719 313.3906 Q126.6719 313.7188 126.4453 313.9453 Q126.2188 314.1719 125.8906 314.1719 Q125.5625 314.1719 125.3359 313.9453 Q125.1094 313.7188 125.1094 313.3906 ZM123.8125 305.6406 Q124.4375 305.3594 125 305.2266 Q125.5625 305.0938 126.0469 305.0938 Q127.3438 305.0938 128.1016 305.7188 Q128.8594 306.3438 128.8594 307.4062 Q128.8594 308.5 128.2109 309.1953 Q127.5625 309.8906 126.25 310.1875 L126.25 311.6719 L125.5312 311.6719 L125.5312 309.75 Q126.5625 309.5 127.0938 308.9062 Q127.625 308.3125 127.625 307.4062 Q127.625 306.5938 127.1953 306.1328 Q126.7656 305.6719 126.0312 305.6719 Q125.3594 305.6719 124.9297 306.0547 Q124.5 306.4375 124.3906 307.1562 L123.8125 307.1562 L123.8125 305.6406 Z" style="fill:black; stroke:none;" /><rect height="10" style="stroke:none;" width="6" x="109" y="304" /><path d="M111.1094 313.3906 Q111.1094 313.0625 111.3359 312.8359 Q111.5625 312.6094 111.8906 312.6094 Q112.2188 312.6094 112.4453 312.8359 Q112.6719 313.0625 112.6719 313.3906 Q112.6719 313.7188 112.4453 313.9453 Q112.2188 314.1719 111.8906 314.1719 Q111.5625 314.1719 111.3359 313.9453 Q111.1094 313.7188 111.1094 313.3906 ZM109.8125 305.6406 Q110.4375 305.3594 111 305.2266 Q111.5625 305.0938 112.0469 305.0938 Q113.3438 305.0938 114.1016 305.7188 Q114.8594 306.3438 114.8594 307.4062 Q114.8594 308.5 114.2109 309.1953 Q113.5625 309.8906 112.25 310.1875 L112.25 311.6719 L111.5312 311.6719 L111.5312 309.75 Q112.5625 309.5 113.0938 308.9062 Q113.625 308.3125 113.625 307.4062 Q113.625 306.5938 113.1953 306.1328 Q112.7656 305.6719 112.0312 305.6719 Q111.3594 305.6719 110.9297 306.0547 Q110.5 306.4375 110.3906 307.1562 L109.8125 307.1562 L109.8125 305.6406 Z" style="fill:black; stroke:none;" /></g><g ID="r-1:10" style="fill:white; text-rendering:optimizeSpeed; stroke:white;" wurcs_mono_id="10"><polygon points=" 197 260 186 238 208 238" style="stroke:none; clip-path:url(#clipPath10);" /><rect height="22" style="clip-path:url(#clipPath10); fill:rgb(237,28,36); stroke:none;" width="22" x="186" y="238" /><rect height="22" style="clip-path:url(#clipPath10); fill:none; stroke:black;" width="22" x="186" y="238" /><polygon points=" 197 260 186 238 208 238" style="fill:none; stroke:black;" /></g><g ID="li-1:7,9" style="fill:white; text-rendering:optimizeSpeed; font-family:'Serif'; stroke:white;"><rect height="10" style="stroke:none;" width="6" x="175" y="304" /><path d="M177.1094 313.3906 Q177.1094 313.0625 177.3359 312.8359 Q177.5625 312.6094 177.8906 312.6094 Q178.2188 312.6094 178.4453 312.8359 Q178.6719 313.0625 178.6719 313.3906 Q178.6719 313.7188 178.4453 313.9453 Q178.2188 314.1719 177.8906 314.1719 Q177.5625 314.1719 177.3359 313.9453 Q177.1094 313.7188 177.1094 313.3906 ZM175.8125 305.6406 Q176.4375 305.3594 177 305.2266 Q177.5625 305.0938 178.0469 305.0938 Q179.3438 305.0938 180.1016 305.7188 Q180.8594 306.3438 180.8594 307.4062 Q180.8594 308.5 180.2109 309.1953 Q179.5625 309.8906 178.25 310.1875 L178.25 311.6719 L177.5312 311.6719 L177.5312 309.75 Q178.5625 309.5 179.0938 308.9062 Q179.625 308.3125 179.625 307.4062 Q179.625 306.5938 179.1953 306.1328 Q178.7656 305.6719 178.0312 305.6719 Q177.3594 305.6719 176.9297 306.0547 Q176.5 306.4375 176.3906 307.1562 L175.8125 307.1562 L175.8125 305.6406 Z" style="fill:black; stroke:none;" /><rect height="10" style="stroke:none;" width="6" x="161" y="304" /><path d="M163.1094 313.3906 Q163.1094 313.0625 163.3359 312.8359 Q163.5625 312.6094 163.8906 312.6094 Q164.2188 312.6094 164.4453 312.8359 Q164.6719 313.0625 164.6719 313.3906 Q164.6719 313.7188 164.4453 313.9453 Q164.2188 314.1719 163.8906 314.1719 Q163.5625 314.1719 163.3359 313.9453 Q163.1094 313.7188 163.1094 313.3906 ZM161.8125 305.6406 Q162.4375 305.3594 163 305.2266 Q163.5625 305.0938 164.0469 305.0938 Q165.3438 305.0938 166.1016 305.7188 Q166.8594 306.3438 166.8594 307.4062 Q166.8594 308.5 166.2109 309.1953 Q165.5625 309.8906 164.25 310.1875 L164.25 311.6719 L163.5312 311.6719 L163.5312 309.75 Q164.5625 309.5 165.0938 308.9062 Q165.625 308.3125 165.625 307.4062 Q165.625 306.5938 165.1953 306.1328 Q164.7656 305.6719 164.0312 305.6719 Q163.3594 305.6719 162.9297 306.0547 Q162.5 306.4375 162.3906 307.1562 L161.8125 307.1562 L161.8125 305.6406 Z" style="fill:black; stroke:none;" /></g><g ID="li-1:7,10" style="fill:white; text-rendering:optimizeSpeed; font-family:'Serif'; stroke:white;"><rect height="10" style="stroke:none;" width="6" x="186" y="277" /><path d="M188.1094 286.3906 Q188.1094 286.0625 188.3359 285.8359 Q188.5625 285.6094 188.8906 285.6094 Q189.2188 285.6094 189.4453 285.8359 Q189.6719 286.0625 189.6719 286.3906 Q189.6719 286.7188 189.4453 286.9453 Q189.2188 287.1719 188.8906 287.1719 Q188.5625 287.1719 188.3359 286.9453 Q188.1094 286.7188 188.1094 286.3906 ZM186.8125 278.6406 Q187.4375 278.3594 188 278.2266 Q188.5625 278.0938 189.0469 278.0938 Q190.3438 278.0938 191.1016 278.7188 Q191.8594 279.3438 191.8594 280.4062 Q191.8594 281.5 191.2109 282.1953 Q190.5625 282.8906 189.25 283.1875 L189.25 284.6719 L188.5312 284.6719 L188.5312 282.75 Q189.5625 282.5 190.0938 281.9062 Q190.625 281.3125 190.625 280.4062 Q190.625 279.5938 190.1953 279.1328 Q189.7656 278.6719 189.0312 278.6719 Q188.3594 278.6719 187.9297 279.0547 Q187.5 279.4375 187.3906 280.1562 L186.8125 280.1562 L186.8125 278.6406 Z" style="fill:black; stroke:none;" /><rect height="10" style="stroke:none;" width="6" x="186" y="263" /><path d="M188.1094 272.3906 Q188.1094 272.0625 188.3359 271.8359 Q188.5625 271.6094 188.8906 271.6094 Q189.2188 271.6094 189.4453 271.8359 Q189.6719 272.0625 189.6719 272.3906 Q189.6719 272.7188 189.4453 272.9453 Q189.2188 273.1719 188.8906 273.1719 Q188.5625 273.1719 188.3359 272.9453 Q188.1094 272.7188 188.1094 272.3906 ZM186.8125 264.6406 Q187.4375 264.3594 188 264.2266 Q188.5625 264.0938 189.0469 264.0938 Q190.3438 264.0938 191.1016 264.7188 Q191.8594 265.3438 191.8594 266.4062 Q191.8594 267.5 191.2109 268.1953 Q190.5625 268.8906 189.25 269.1875 L189.25 270.6719 L188.5312 270.6719 L188.5312 268.75 Q189.5625 268.5 190.0938 267.9062 Q190.625 267.3125 190.625 266.4062 Q190.625 265.5938 190.1953 265.1328 Q189.7656 264.6719 189.0312 264.6719 Q188.3594 264.6719 187.9297 265.0547 Q187.5 265.4375 187.3906 266.1562 L186.8125 266.1562 L186.8125 264.6406 Z" style="fill:black; stroke:none;" /></g><g ID="l-1:8,14" style="text-rendering:optimizeSpeed;"><polygon points=" 197 197 197 145" style="fill:none;" /></g><g ID="l-1:8,15" style="text-rendering:optimizeSpeed;"><polygon points=" 197 197 145 197" style="fill:none;" /></g><g ID="r-1:8" style="fill:white; text-rendering:optimizeSpeed; stroke:white;" wurcs_mono_id="11"><rect height="22" style="clip-path:url(#clipPath11); stroke:none;" width="22" x="186" y="186" /><rect height="22" style="clip-path:url(#clipPath11); fill:rgb(0,144,188); stroke:none;" width="22" x="186" y="186" /><rect height="22" style="clip-path:url(#clipPath11); fill:none; stroke:black;" width="22" x="186" y="186" /><rect height="22" style="fill:none; stroke:black;" width="22" x="186" y="186" /></g><g ID="r-1:14" style="fill:white; text-rendering:optimizeSpeed; stroke:white;" wurcs_mono_id="12"><polygon points=" 197 156 186 134 208 134" style="stroke:none; clip-path:url(#clipPath12);" /><rect height="22" style="clip-path:url(#clipPath12); fill:rgb(237,28,36); stroke:none;" width="22" x="186" y="134" /><rect height="22" style="clip-path:url(#clipPath12); fill:none; stroke:black;" width="22" x="186" y="134" /><polygon points=" 197 156 186 134 208 134" style="fill:none; stroke:black;" /></g><g ID="r-1:15" style="fill:white; text-rendering:optimizeSpeed; stroke:white;" wurcs_mono_id="13"><circle cx="145" cy="197" r="11" style="clip-path:url(#clipPath13); stroke:none;" /><rect height="22" style="clip-path:url(#clipPath13); fill:rgb(255,212,0); stroke:none;" width="22" x="134" y="186" /><rect height="22" style="clip-path:url(#clipPath13); fill:none; stroke:black;" width="22" x="134" y="186" /><circle cx="145" cy="197" r="11" style="fill:none; stroke:black;" /></g><g ID="li-1:8,14" style="fill:white; text-rendering:optimizeSpeed; font-family:'Serif'; stroke:white;"><rect height="10" style="stroke:none;" width="6" x="186" y="173" /><path d="M188.1094 182.3906 Q188.1094 182.0625 188.3359 181.8359 Q188.5625 181.6094 188.8906 181.6094 Q189.2188 181.6094 189.4453 181.8359 Q189.6719 182.0625 189.6719 182.3906 Q189.6719 182.7188 189.4453 182.9453 Q189.2188 183.1719 188.8906 183.1719 Q188.5625 183.1719 188.3359 182.9453 Q188.1094 182.7188 188.1094 182.3906 ZM186.8125 174.6406 Q187.4375 174.3594 188 174.2266 Q188.5625 174.0938 189.0469 174.0938 Q190.3438 174.0938 191.1016 174.7188 Q191.8594 175.3438 191.8594 176.4062 Q191.8594 177.5 191.2109 178.1953 Q190.5625 178.8906 189.25 179.1875 L189.25 180.6719 L188.5312 180.6719 L188.5312 178.75 Q189.5625 178.5 190.0938 177.9062 Q190.625 177.3125 190.625 176.4062 Q190.625 175.5938 190.1953 175.1328 Q189.7656 174.6719 189.0312 174.6719 Q188.3594 174.6719 187.9297 175.0547 Q187.5 175.4375 187.3906 176.1562 L186.8125 176.1562 L186.8125 174.6406 Z" style="fill:black; stroke:none;" /><rect height="10" style="stroke:none;" width="6" x="186" y="159" /><path d="M188.1094 168.3906 Q188.1094 168.0625 188.3359 167.8359 Q188.5625 167.6094 188.8906 167.6094 Q189.2188 167.6094 189.4453 167.8359 Q189.6719 168.0625 189.6719 168.3906 Q189.6719 168.7188 189.4453 168.9453 Q189.2188 169.1719 188.8906 169.1719 Q188.5625 169.1719 188.3359 168.9453 Q188.1094 168.7188 188.1094 168.3906 ZM186.8125 160.6406 Q187.4375 160.3594 188 160.2266 Q188.5625 160.0938 189.0469 160.0938 Q190.3438 160.0938 191.1016 160.7188 Q191.8594 161.3438 191.8594 162.4062 Q191.8594 163.5 191.2109 164.1953 Q190.5625 164.8906 189.25 165.1875 L189.25 166.6719 L188.5312 166.6719 L188.5312 164.75 Q189.5625 164.5 190.0938 163.9062 Q190.625 163.3125 190.625 162.4062 Q190.625 161.5938 190.1953 161.1328 Q189.7656 160.6719 189.0312 160.6719 Q188.3594 160.6719 187.9297 161.0547 Q187.5 161.4375 187.3906 162.1562 L186.8125 162.1562 L186.8125 160.6406 Z" style="fill:black; stroke:none;" /></g><g ID="li-1:8,15" style="fill:white; text-rendering:optimizeSpeed; font-family:'Serif'; stroke:white;"><rect height="10" style="stroke:none;" width="6" x="175" y="200" /><path d="M177.1094 209.3906 Q177.1094 209.0625 177.3359 208.8359 Q177.5625 208.6094 177.8906 208.6094 Q178.2188 208.6094 178.4453 208.8359 Q178.6719 209.0625 178.6719 209.3906 Q178.6719 209.7188 178.4453 209.9453 Q178.2188 210.1719 177.8906 210.1719 Q177.5625 210.1719 177.3359 209.9453 Q177.1094 209.7188 177.1094 209.3906 ZM175.8125 201.6406 Q176.4375 201.3594 177 201.2266 Q177.5625 201.0938 178.0469 201.0938 Q179.3438 201.0938 180.1016 201.7188 Q180.8594 202.3438 180.8594 203.4062 Q180.8594 204.5 180.2109 205.1953 Q179.5625 205.8906 178.25 206.1875 L178.25 207.6719 L177.5312 207.6719 L177.5312 205.75 Q178.5625 205.5 179.0938 204.9062 Q179.625 204.3125 179.625 203.4062 Q179.625 202.5938 179.1953 202.1328 Q178.7656 201.6719 178.0312 201.6719 Q177.3594 201.6719 176.9297 202.0547 Q176.5 202.4375 176.3906 203.1562 L175.8125 203.1562 L175.8125 201.6406 Z" style="fill:black; stroke:none;" /><rect height="10" style="stroke:none;" width="6" x="161" y="200" /><path d="M163.1094 209.3906 Q163.1094 209.0625 163.3359 208.8359 Q163.5625 208.6094 163.8906 208.6094 Q164.2188 208.6094 164.4453 208.8359 Q164.6719 209.0625 164.6719 209.3906 Q164.6719 209.7188 164.4453 209.9453 Q164.2188 210.1719 163.8906 210.1719 Q163.5625 210.1719 163.3359 209.9453 Q163.1094 209.7188 163.1094 209.3906 ZM161.8125 201.6406 Q162.4375 201.3594 163 201.2266 Q163.5625 201.0938 164.0469 201.0938 Q165.3438 201.0938 166.1016 201.7188 Q166.8594 202.3438 166.8594 203.4062 Q166.8594 204.5 166.2109 205.1953 Q165.5625 205.8906 164.25 206.1875 L164.25 207.6719 L163.5312 207.6719 L163.5312 205.75 Q164.5625 205.5 165.0938 204.9062 Q165.625 204.3125 165.625 203.4062 Q165.625 202.5938 165.1953 202.1328 Q164.7656 201.6719 164.0312 201.6719 Q163.3594 201.6719 162.9297 202.0547 Q162.5 202.4375 162.3906 203.1562 L161.8125 203.1562 L161.8125 201.6406 Z" style="fill:black; stroke:none;" /></g><g ID="li-1:5,7" style="fill:white; text-rendering:optimizeSpeed; font-family:'Serif'; stroke:white;"><rect height="10" style="stroke:none;" width="6" x="235" y="266" /><path d="M237.1094 275.3906 Q237.1094 275.0625 237.3359 274.8359 Q237.5625 274.6094 237.8906 274.6094 Q238.2188 274.6094 238.4453 274.8359 Q238.6719 275.0625 238.6719 275.3906 Q238.6719 275.7188 238.4453 275.9453 Q238.2188 276.1719 237.8906 276.1719 Q237.5625 276.1719 237.3359 275.9453 Q237.1094 275.7188 237.1094 275.3906 ZM235.8125 267.6406 Q236.4375 267.3594 237 267.2266 Q237.5625 267.0938 238.0469 267.0938 Q239.3438 267.0938 240.1016 267.7188 Q240.8594 268.3438 240.8594 269.4062 Q240.8594 270.5 240.2109 271.1953 Q239.5625 271.8906 238.25 272.1875 L238.25 273.6719 L237.5312 273.6719 L237.5312 271.75 Q238.5625 271.5 239.0938 270.9062 Q239.625 270.3125 239.625 269.4062 Q239.625 268.5938 239.1953 268.1328 Q238.7656 267.6719 238.0312 267.6719 Q237.3594 267.6719 236.9297 268.0547 Q236.5 268.4375 236.3906 269.1562 L235.8125 269.1562 L235.8125 267.6406 Z" style="fill:black; stroke:none;" /><rect height="10" style="stroke:none;" width="6" x="216" y="285" /><path d="M218.1094 294.3906 Q218.1094 294.0625 218.3359 293.8359 Q218.5625 293.6094 218.8906 293.6094 Q219.2188 293.6094 219.4453 293.8359 Q219.6719 294.0625 219.6719 294.3906 Q219.6719 294.7188 219.4453 294.9453 Q219.2188 295.1719 218.8906 295.1719 Q218.5625 295.1719 218.3359 294.9453 Q218.1094 294.7188 218.1094 294.3906 ZM216.8125 286.6406 Q217.4375 286.3594 218 286.2266 Q218.5625 286.0938 219.0469 286.0938 Q220.3438 286.0938 221.1016 286.7188 Q221.8594 287.3438 221.8594 288.4062 Q221.8594 289.5 221.2109 290.1953 Q220.5625 290.8906 219.25 291.1875 L219.25 292.6719 L218.5312 292.6719 L218.5312 290.75 Q219.5625 290.5 220.0938 289.9062 Q220.625 289.3125 220.625 288.4062 Q220.625 287.5938 220.1953 287.1328 Q219.7656 286.6719 219.0312 286.6719 Q218.3594 286.6719 217.9297 287.0547 Q217.5 287.4375 217.3906 288.1562 L216.8125 288.1562 L216.8125 286.6406 Z" style="fill:black; stroke:none;" /></g><g ID="li-1:5,8" style="fill:white; text-rendering:optimizeSpeed; font-family:'Serif'; stroke:white;"><rect height="10" style="stroke:none;" width="6" x="223" y="233" /><path d="M225.1094 242.3906 Q225.1094 242.0625 225.3359 241.8359 Q225.5625 241.6094 225.8906 241.6094 Q226.2188 241.6094 226.4453 241.8359 Q226.6719 242.0625 226.6719 242.3906 Q226.6719 242.7188 226.4453 242.9453 Q226.2188 243.1719 225.8906 243.1719 Q225.5625 243.1719 225.3359 242.9453 Q225.1094 242.7188 225.1094 242.3906 ZM223.8125 234.6406 Q224.4375 234.3594 225 234.2266 Q225.5625 234.0938 226.0469 234.0938 Q227.3438 234.0938 228.1016 234.7188 Q228.8594 235.3438 228.8594 236.4062 Q228.8594 237.5 228.2109 238.1953 Q227.5625 238.8906 226.25 239.1875 L226.25 240.6719 L225.5312 240.6719 L225.5312 238.75 Q226.5625 238.5 227.0938 237.9062 Q227.625 237.3125 227.625 236.4062 Q227.625 235.5938 227.1953 235.1328 Q226.7656 234.6719 226.0312 234.6719 Q225.3594 234.6719 224.9297 235.0547 Q224.5 235.4375 224.3906 236.1562 L223.8125 236.1562 L223.8125 234.6406 Z" style="fill:black; stroke:none;" /><rect height="10" style="stroke:none;" width="6" x="205" y="214" /><path d="M207.1094 223.3906 Q207.1094 223.0625 207.3359 222.8359 Q207.5625 222.6094 207.8906 222.6094 Q208.2188 222.6094 208.4453 222.8359 Q208.6719 223.0625 208.6719 223.3906 Q208.6719 223.7188 208.4453 223.9453 Q208.2188 224.1719 207.8906 224.1719 Q207.5625 224.1719 207.3359 223.9453 Q207.1094 223.7188 207.1094 223.3906 ZM205.8125 215.6406 Q206.4375 215.3594 207 215.2266 Q207.5625 215.0938 208.0469 215.0938 Q209.3438 215.0938 210.1016 215.7188 Q210.8594 216.3438 210.8594 217.4062 Q210.8594 218.5 210.2109 219.1953 Q209.5625 219.8906 208.25 220.1875 L208.25 221.6719 L207.5312 221.6719 L207.5312 219.75 Q208.5625 219.5 209.0938 218.9062 Q209.625 218.3125 209.625 217.4062 Q209.625 216.5938 209.1953 216.1328 Q208.7656 215.6719 208.0312 215.6719 Q207.3594 215.6719 206.9297 216.0547 Q206.5 216.4375 206.3906 217.1562 L205.8125 217.1562 L205.8125 215.6406 Z" style="fill:black; stroke:none;" /></g><g ID="l-1:6,16" style="text-rendering:optimizeSpeed;"><polygon points=" 249 93 197 93" style="fill:none;" /></g><g ID="r-1:6" style="fill:white; text-rendering:optimizeSpeed; stroke:white;" wurcs_mono_id="14"><circle cx="249" cy="93" r="11" style="clip-path:url(#clipPath14); stroke:none;" /><rect height="22" style="clip-path:url(#clipPath14); fill:rgb(0,166,81); stroke:none;" width="22" x="238" y="82" /><rect height="22" style="clip-path:url(#clipPath14); fill:none; stroke:black;" width="22" x="238" y="82" /><circle cx="249" cy="93" r="11" style="fill:none; stroke:black;" /></g><g ID="l-1:16,17" style="text-rendering:optimizeSpeed;"><polygon points=" 197 93 197 41" style="fill:none;" /></g><g ID="l-1:16,18" style="text-rendering:optimizeSpeed;"><polygon points=" 197 93 145 93" style="fill:none;" /></g><g ID="r-1:16" style="fill:white; text-rendering:optimizeSpeed; stroke:white;" wurcs_mono_id="15"><rect height="22" style="clip-path:url(#clipPath15); stroke:none;" width="22" x="186" y="82" /><rect height="22" style="clip-path:url(#clipPath15); fill:rgb(0,144,188); stroke:none;" width="22" x="186" y="82" /><rect height="22" style="clip-path:url(#clipPath15); fill:none; stroke:black;" width="22" x="186" y="82" /><rect height="22" style="fill:none; stroke:black;" width="22" x="186" y="82" /></g><g ID="r-1:17" style="fill:white; text-rendering:optimizeSpeed; stroke:white;" wurcs_mono_id="16"><polygon points=" 197 52 186 30 208 30" style="stroke:none; clip-path:url(#clipPath16);" /><rect height="22" style="clip-path:url(#clipPath16); fill:rgb(237,28,36); stroke:none;" width="22" x="186" y="30" /><rect height="22" style="clip-path:url(#clipPath16); fill:none; stroke:black;" width="22" x="186" y="30" /><polygon points=" 197 52 186 30 208 30" style="fill:none; stroke:black;" /></g><g ID="r-1:18" style="fill:white; text-rendering:optimizeSpeed; stroke:white;" wurcs_mono_id="17"><circle cx="145" cy="93" r="11" style="clip-path:url(#clipPath17); stroke:none;" /><rect height="22" style="clip-path:url(#clipPath17); fill:rgb(255,212,0); stroke:none;" width="22" x="134" y="82" /><rect height="22" style="clip-path:url(#clipPath17); fill:none; stroke:black;" width="22" x="134" y="82" /><circle cx="145" cy="93" r="11" style="fill:none; stroke:black;" /></g><g ID="li-1:16,17" style="fill:white; text-rendering:optimizeSpeed; font-family:'Serif'; stroke:white;"><rect height="10" style="stroke:none;" width="6" x="186" y="69" /><path d="M188.1094 78.3906 Q188.1094 78.0625 188.3359 77.8359 Q188.5625 77.6094 188.8906 77.6094 Q189.2188 77.6094 189.4453 77.8359 Q189.6719 78.0625 189.6719 78.3906 Q189.6719 78.7188 189.4453 78.9453 Q189.2188 79.1719 188.8906 79.1719 Q188.5625 79.1719 188.3359 78.9453 Q188.1094 78.7188 188.1094 78.3906 ZM186.8125 70.6406 Q187.4375 70.3594 188 70.2266 Q188.5625 70.0938 189.0469 70.0938 Q190.3438 70.0938 191.1016 70.7188 Q191.8594 71.3438 191.8594 72.4062 Q191.8594 73.5 191.2109 74.1953 Q190.5625 74.8906 189.25 75.1875 L189.25 76.6719 L188.5312 76.6719 L188.5312 74.75 Q189.5625 74.5 190.0938 73.9062 Q190.625 73.3125 190.625 72.4062 Q190.625 71.5938 190.1953 71.1328 Q189.7656 70.6719 189.0312 70.6719 Q188.3594 70.6719 187.9297 71.0547 Q187.5 71.4375 187.3906 72.1562 L186.8125 72.1562 L186.8125 70.6406 Z" style="fill:black; stroke:none;" /><rect height="10" style="stroke:none;" width="6" x="186" y="55" /><path d="M188.1094 64.3906 Q188.1094 64.0625 188.3359 63.8359 Q188.5625 63.6094 188.8906 63.6094 Q189.2188 63.6094 189.4453 63.8359 Q189.6719 64.0625 189.6719 64.3906 Q189.6719 64.7188 189.4453 64.9453 Q189.2188 65.1719 188.8906 65.1719 Q188.5625 65.1719 188.3359 64.9453 Q188.1094 64.7188 188.1094 64.3906 ZM186.8125 56.6406 Q187.4375 56.3594 188 56.2266 Q188.5625 56.0938 189.0469 56.0938 Q190.3438 56.0938 191.1016 56.7188 Q191.8594 57.3438 191.8594 58.4062 Q191.8594 59.5 191.2109 60.1953 Q190.5625 60.8906 189.25 61.1875 L189.25 62.6719 L188.5312 62.6719 L188.5312 60.75 Q189.5625 60.5 190.0938 59.9062 Q190.625 59.3125 190.625 58.4062 Q190.625 57.5938 190.1953 57.1328 Q189.7656 56.6719 189.0312 56.6719 Q188.3594 56.6719 187.9297 57.0547 Q187.5 57.4375 187.3906 58.1562 L186.8125 58.1562 L186.8125 56.6406 Z" style="fill:black; stroke:none;" /></g><g ID="li-1:16,18" style="fill:white; text-rendering:optimizeSpeed; font-family:'Serif'; stroke:white;"><rect height="10" style="stroke:none;" width="6" x="175" y="96" /><path d="M177.1094 105.3906 Q177.1094 105.0625 177.3359 104.8359 Q177.5625 104.6094 177.8906 104.6094 Q178.2188 104.6094 178.4453 104.8359 Q178.6719 105.0625 178.6719 105.3906 Q178.6719 105.7188 178.4453 105.9453 Q178.2188 106.1719 177.8906 106.1719 Q177.5625 106.1719 177.3359 105.9453 Q177.1094 105.7188 177.1094 105.3906 ZM175.8125 97.6406 Q176.4375 97.3594 177 97.2266 Q177.5625 97.0938 178.0469 97.0938 Q179.3438 97.0938 180.1016 97.7188 Q180.8594 98.3438 180.8594 99.4062 Q180.8594 100.5 180.2109 101.1953 Q179.5625 101.8906 178.25 102.1875 L178.25 103.6719 L177.5312 103.6719 L177.5312 101.75 Q178.5625 101.5 179.0938 100.9062 Q179.625 100.3125 179.625 99.4062 Q179.625 98.5938 179.1953 98.1328 Q178.7656 97.6719 178.0312 97.6719 Q177.3594 97.6719 176.9297 98.0547 Q176.5 98.4375 176.3906 99.1562 L175.8125 99.1562 L175.8125 97.6406 Z" style="fill:black; stroke:none;" /><rect height="10" style="stroke:none;" width="6" x="161" y="96" /><path d="M163.1094 105.3906 Q163.1094 105.0625 163.3359 104.8359 Q163.5625 104.6094 163.8906 104.6094 Q164.2188 104.6094 164.4453 104.8359 Q164.6719 105.0625 164.6719 105.3906 Q164.6719 105.7188 164.4453 105.9453 Q164.2188 106.1719 163.8906 106.1719 Q163.5625 106.1719 163.3359 105.9453 Q163.1094 105.7188 163.1094 105.3906 ZM161.8125 97.6406 Q162.4375 97.3594 163 97.2266 Q163.5625 97.0938 164.0469 97.0938 Q165.3438 97.0938 166.1016 97.7188 Q166.8594 98.3438 166.8594 99.4062 Q166.8594 100.5 166.2109 101.1953 Q165.5625 101.8906 164.25 102.1875 L164.25 103.6719 L163.5312 103.6719 L163.5312 101.75 Q164.5625 101.5 165.0938 100.9062 Q165.625 100.3125 165.625 99.4062 Q165.625 98.5938 165.1953 98.1328 Q164.7656 97.6719 164.0312 97.6719 Q163.3594 97.6719 162.9297 98.0547 Q162.5 98.4375 162.3906 99.1562 L161.8125 99.1562 L161.8125 97.6406 Z" style="fill:black; stroke:none;" /></g><g ID="li-1:6,16" style="fill:white; text-rendering:optimizeSpeed; font-family:'Serif'; stroke:white;"><rect height="10" style="stroke:none;" width="6" x="227" y="96" /><path d="M229.1094 105.3906 Q229.1094 105.0625 229.3359 104.8359 Q229.5625 104.6094 229.8906 104.6094 Q230.2188 104.6094 230.4453 104.8359 Q230.6719 105.0625 230.6719 105.3906 Q230.6719 105.7188 230.4453 105.9453 Q230.2188 106.1719 229.8906 106.1719 Q229.5625 106.1719 229.3359 105.9453 Q229.1094 105.7188 229.1094 105.3906 ZM227.8125 97.6406 Q228.4375 97.3594 229 97.2266 Q229.5625 97.0938 230.0469 97.0938 Q231.3438 97.0938 232.1016 97.7188 Q232.8594 98.3438 232.8594 99.4062 Q232.8594 100.5 232.2109 101.1953 Q231.5625 101.8906 230.25 102.1875 L230.25 103.6719 L229.5312 103.6719 L229.5312 101.75 Q230.5625 101.5 231.0938 100.9062 Q231.625 100.3125 231.625 99.4062 Q231.625 98.5938 231.1953 98.1328 Q230.7656 97.6719 230.0312 97.6719 Q229.3594 97.6719 228.9297 98.0547 Q228.5 98.4375 228.3906 99.1562 L227.8125 99.1562 L227.8125 97.6406 Z" style="fill:black; stroke:none;" /><rect height="10" style="stroke:none;" width="6" x="213" y="96" /><path d="M215.1094 105.3906 Q215.1094 105.0625 215.3359 104.8359 Q215.5625 104.6094 215.8906 104.6094 Q216.2188 104.6094 216.4453 104.8359 Q216.6719 105.0625 216.6719 105.3906 Q216.6719 105.7188 216.4453 105.9453 Q216.2188 106.1719 215.8906 106.1719 Q215.5625 106.1719 215.3359 105.9453 Q215.1094 105.7188 215.1094 105.3906 ZM213.8125 97.6406 Q214.4375 97.3594 215 97.2266 Q215.5625 97.0938 216.0469 97.0938 Q217.3438 97.0938 218.1016 97.7188 Q218.8594 98.3438 218.8594 99.4062 Q218.8594 100.5 218.2109 101.1953 Q217.5625 101.8906 216.25 102.1875 L216.25 103.6719 L215.5312 103.6719 L215.5312 101.75 Q216.5625 101.5 217.0938 100.9062 Q217.625 100.3125 217.625 99.4062 Q217.625 98.5938 217.1953 98.1328 Q216.7656 97.6719 216.0312 97.6719 Q215.3594 97.6719 214.9297 98.0547 Q214.5 98.4375 214.3906 99.1562 L213.8125 99.1562 L213.8125 97.6406 Z" style="fill:black; stroke:none;" /></g><g ID="li-1:4,5" style="fill:white; text-rendering:optimizeSpeed; font-family:'Serif'; stroke:white;"><rect height="10" style="stroke:none;" width="6" x="292" y="188" /><path d="M294.1094 197.3906 Q294.1094 197.0625 294.3359 196.8359 Q294.5625 196.6094 294.8906 196.6094 Q295.2188 196.6094 295.4453 196.8359 Q295.6719 197.0625 295.6719 197.3906 Q295.6719 197.7188 295.4453 197.9453 Q295.2188 198.1719 294.8906 198.1719 Q294.5625 198.1719 294.3359 197.9453 Q294.1094 197.7188 294.1094 197.3906 ZM292.8125 189.6406 Q293.4375 189.3594 294 189.2266 Q294.5625 189.0938 295.0469 189.0938 Q296.3438 189.0938 297.1016 189.7188 Q297.8594 190.3438 297.8594 191.4062 Q297.8594 192.5 297.2109 193.1953 Q296.5625 193.8906 295.25 194.1875 L295.25 195.6719 L294.5312 195.6719 L294.5312 193.75 Q295.5625 193.5 296.0938 192.9062 Q296.625 192.3125 296.625 191.4062 Q296.625 190.5938 296.1953 190.1328 Q295.7656 189.6719 295.0312 189.6719 Q294.3594 189.6719 293.9297 190.0547 Q293.5 190.4375 293.3906 191.1562 L292.8125 191.1562 L292.8125 189.6406 Z" style="fill:black; stroke:none;" /><rect height="10" style="stroke:none;" width="6" x="264" y="230" /><path d="M266.1094 239.3906 Q266.1094 239.0625 266.3359 238.8359 Q266.5625 238.6094 266.8906 238.6094 Q267.2188 238.6094 267.4453 238.8359 Q267.6719 239.0625 267.6719 239.3906 Q267.6719 239.7188 267.4453 239.9453 Q267.2188 240.1719 266.8906 240.1719 Q266.5625 240.1719 266.3359 239.9453 Q266.1094 239.7188 266.1094 239.3906 ZM264.8125 231.6406 Q265.4375 231.3594 266 231.2266 Q266.5625 231.0938 267.0469 231.0938 Q268.3438 231.0938 269.1016 231.7188 Q269.8594 232.3438 269.8594 233.4062 Q269.8594 234.5 269.2109 235.1953 Q268.5625 235.8906 267.25 236.1875 L267.25 237.6719 L266.5312 237.6719 L266.5312 235.75 Q267.5625 235.5 268.0938 234.9062 Q268.625 234.3125 268.625 233.4062 Q268.625 232.5938 268.1953 232.1328 Q267.7656 231.6719 267.0312 231.6719 Q266.3594 231.6719 265.9297 232.0547 Q265.5 232.4375 265.3906 233.1562 L264.8125 233.1562 L264.8125 231.6406 Z" style="fill:black; stroke:none;" /></g><g ID="li-1:4,6" style="fill:white; text-rendering:optimizeSpeed; font-family:'Serif'; stroke:white;"><rect height="10" style="stroke:none;" width="6" x="279" y="152" /><path d="M281.1094 161.3906 Q281.1094 161.0625 281.3359 160.8359 Q281.5625 160.6094 281.8906 160.6094 Q282.2188 160.6094 282.4453 160.8359 Q282.6719 161.0625 282.6719 161.3906 Q282.6719 161.7188 282.4453 161.9453 Q282.2188 162.1719 281.8906 162.1719 Q281.5625 162.1719 281.3359 161.9453 Q281.1094 161.7188 281.1094 161.3906 ZM279.8125 153.6406 Q280.4375 153.3594 281 153.2266 Q281.5625 153.0938 282.0469 153.0938 Q283.3438 153.0938 284.1016 153.7188 Q284.8594 154.3438 284.8594 155.4062 Q284.8594 156.5 284.2109 157.1953 Q283.5625 157.8906 282.25 158.1875 L282.25 159.6719 L281.5312 159.6719 L281.5312 157.75 Q282.5625 157.5 283.0938 156.9062 Q283.625 156.3125 283.625 155.4062 Q283.625 154.5938 283.1953 154.1328 Q282.7656 153.6719 282.0312 153.6719 Q281.3594 153.6719 280.9297 154.0547 Q280.5 154.4375 280.3906 155.1562 L279.8125 155.1562 L279.8125 153.6406 Z" style="fill:black; stroke:none;" /><rect height="10" style="stroke:none;" width="6" x="251" y="110" /><path d="M253.1094 119.3906 Q253.1094 119.0625 253.3359 118.8359 Q253.5625 118.6094 253.8906 118.6094 Q254.2188 118.6094 254.4453 118.8359 Q254.6719 119.0625 254.6719 119.3906 Q254.6719 119.7188 254.4453 119.9453 Q254.2188 120.1719 253.8906 120.1719 Q253.5625 120.1719 253.3359 119.9453 Q253.1094 119.7188 253.1094 119.3906 ZM251.8125 111.6406 Q252.4375 111.3594 253 111.2266 Q253.5625 111.0938 254.0469 111.0938 Q255.3438 111.0938 256.1016 111.7188 Q256.8594 112.3438 256.8594 113.4062 Q256.8594 114.5 256.2109 115.1953 Q255.5625 115.8906 254.25 116.1875 L254.25 117.6719 L253.5312 117.6719 L253.5312 115.75 Q254.5625 115.5 255.0938 114.9062 Q255.625 114.3125 255.625 113.4062 Q255.625 112.5938 255.1953 112.1328 Q254.7656 111.6719 254.0312 111.6719 Q253.3594 111.6719 252.9297 112.0547 Q252.5 112.4375 252.3906 113.1562 L251.8125 113.1562 L251.8125 111.6406 Z" style="fill:black; stroke:none;" /></g><g ID="li-1:2,4" style="fill:white; text-rendering:optimizeSpeed; font-family:'Serif'; stroke:white;"><rect height="10" style="stroke:none;" width="6" x="331" y="174" /><path d="M333.1094 183.3906 Q333.1094 183.0625 333.3359 182.8359 Q333.5625 182.6094 333.8906 182.6094 Q334.2188 182.6094 334.4453 182.8359 Q334.6719 183.0625 334.6719 183.3906 Q334.6719 183.7188 334.4453 183.9453 Q334.2188 184.1719 333.8906 184.1719 Q333.5625 184.1719 333.3359 183.9453 Q333.1094 183.7188 333.1094 183.3906 ZM331.8125 175.6406 Q332.4375 175.3594 333 175.2266 Q333.5625 175.0938 334.0469 175.0938 Q335.3438 175.0938 336.1016 175.7188 Q336.8594 176.3438 336.8594 177.4062 Q336.8594 178.5 336.2109 179.1953 Q335.5625 179.8906 334.25 180.1875 L334.25 181.6719 L333.5312 181.6719 L333.5312 179.75 Q334.5625 179.5 335.0938 178.9062 Q335.625 178.3125 335.625 177.4062 Q335.625 176.5938 335.1953 176.1328 Q334.7656 175.6719 334.0312 175.6719 Q333.3594 175.6719 332.9297 176.0547 Q332.5 176.4375 332.3906 177.1562 L331.8125 177.1562 L331.8125 175.6406 Z" style="fill:black; stroke:none;" /><rect height="10" style="stroke:none;" width="6" x="317" y="174" /><path d="M319.1094 183.3906 Q319.1094 183.0625 319.3359 182.8359 Q319.5625 182.6094 319.8906 182.6094 Q320.2188 182.6094 320.4453 182.8359 Q320.6719 183.0625 320.6719 183.3906 Q320.6719 183.7188 320.4453 183.9453 Q320.2188 184.1719 319.8906 184.1719 Q319.5625 184.1719 319.3359 183.9453 Q319.1094 183.7188 319.1094 183.3906 ZM317.8125 175.6406 Q318.4375 175.3594 319 175.2266 Q319.5625 175.0938 320.0469 175.0938 Q321.3438 175.0938 322.1016 175.7188 Q322.8594 176.3438 322.8594 177.4062 Q322.8594 178.5 322.2109 179.1953 Q321.5625 179.8906 320.25 180.1875 L320.25 181.6719 L319.5312 181.6719 L319.5312 179.75 Q320.5625 179.5 321.0938 178.9062 Q321.625 178.3125 321.625 177.4062 Q321.625 176.5938 321.1953 176.1328 Q320.7656 175.6719 320.0312 175.6719 Q319.3594 175.6719 318.9297 176.0547 Q318.5 176.4375 318.3906 177.1562 L317.8125 177.1562 L317.8125 175.6406 Z" style="fill:black; stroke:none;" /></g><g ID="r-1:3" style="fill:white; text-rendering:optimizeSpeed; stroke:white;" wurcs_mono_id="18"><polygon points=" 405 130 394 108 416 108" style="stroke:none; clip-path:url(#clipPath18);" /><rect height="22" style="clip-path:url(#clipPath18); fill:rgb(237,28,36); stroke:none;" width="22" x="394" y="108" /><rect height="22" style="clip-path:url(#clipPath18); fill:none; stroke:black;" width="22" x="394" y="108" /><polygon points=" 405 130 394 108 416 108" style="fill:none; stroke:black;" /></g><g ID="li-1:1,2" style="fill:white; text-rendering:optimizeSpeed; font-family:'Serif'; stroke:white;"><rect height="10" style="stroke:none;" width="6" x="383" y="174" /><path d="M385.1094 183.3906 Q385.1094 183.0625 385.3359 182.8359 Q385.5625 182.6094 385.8906 182.6094 Q386.2188 182.6094 386.4453 182.8359 Q386.6719 183.0625 386.6719 183.3906 Q386.6719 183.7188 386.4453 183.9453 Q386.2188 184.1719 385.8906 184.1719 Q385.5625 184.1719 385.3359 183.9453 Q385.1094 183.7188 385.1094 183.3906 ZM383.8125 175.6406 Q384.4375 175.3594 385 175.2266 Q385.5625 175.0938 386.0469 175.0938 Q387.3438 175.0938 388.1016 175.7188 Q388.8594 176.3438 388.8594 177.4062 Q388.8594 178.5 388.2109 179.1953 Q387.5625 179.8906 386.25 180.1875 L386.25 181.6719 L385.5312 181.6719 L385.5312 179.75 Q386.5625 179.5 387.0938 178.9062 Q387.625 178.3125 387.625 177.4062 Q387.625 176.5938 387.1953 176.1328 Q386.7656 175.6719 386.0312 175.6719 Q385.3594 175.6719 384.9297 176.0547 Q384.5 176.4375 384.3906 177.1562 L383.8125 177.1562 L383.8125 175.6406 Z" style="fill:black; stroke:none;" /><rect height="10" style="stroke:none;" width="6" x="369" y="174" /><path d="M371.1094 183.3906 Q371.1094 183.0625 371.3359 182.8359 Q371.5625 182.6094 371.8906 182.6094 Q372.2188 182.6094 372.4453 182.8359 Q372.6719 183.0625 372.6719 183.3906 Q372.6719 183.7188 372.4453 183.9453 Q372.2188 184.1719 371.8906 184.1719 Q371.5625 184.1719 371.3359 183.9453 Q371.1094 183.7188 371.1094 183.3906 ZM369.8125 175.6406 Q370.4375 175.3594 371 175.2266 Q371.5625 175.0938 372.0469 175.0938 Q373.3438 175.0938 374.1016 175.7188 Q374.8594 176.3438 374.8594 177.4062 Q374.8594 178.5 374.2109 179.1953 Q373.5625 179.8906 372.25 180.1875 L372.25 181.6719 L371.5312 181.6719 L371.5312 179.75 Q372.5625 179.5 373.0938 178.9062 Q373.625 178.3125 373.625 177.4062 Q373.625 176.5938 373.1953 176.1328 Q372.7656 175.6719 372.0312 175.6719 Q371.3594 175.6719 370.9297 176.0547 Q370.5 176.4375 370.3906 177.1562 L369.8125 177.1562 L369.8125 175.6406 Z" style="fill:black; stroke:none;" /></g><g ID="li-1:1,3" style="fill:white; text-rendering:optimizeSpeed; font-family:'Serif'; stroke:white;"><rect height="10" style="stroke:none;" width="6" x="394" y="147" /><path d="M396.1094 156.3906 Q396.1094 156.0625 396.3359 155.8359 Q396.5625 155.6094 396.8906 155.6094 Q397.2188 155.6094 397.4453 155.8359 Q397.6719 156.0625 397.6719 156.3906 Q397.6719 156.7188 397.4453 156.9453 Q397.2188 157.1719 396.8906 157.1719 Q396.5625 157.1719 396.3359 156.9453 Q396.1094 156.7188 396.1094 156.3906 ZM394.8125 148.6406 Q395.4375 148.3594 396 148.2266 Q396.5625 148.0938 397.0469 148.0938 Q398.3438 148.0938 399.1016 148.7188 Q399.8594 149.3438 399.8594 150.4062 Q399.8594 151.5 399.2109 152.1953 Q398.5625 152.8906 397.25 153.1875 L397.25 154.6719 L396.5312 154.6719 L396.5312 152.75 Q397.5625 152.5 398.0938 151.9062 Q398.625 151.3125 398.625 150.4062 Q398.625 149.5938 398.1953 149.1328 Q397.7656 148.6719 397.0312 148.6719 Q396.3594 148.6719 395.9297 149.0547 Q395.5 149.4375 395.3906 150.1562 L394.8125 150.1562 L394.8125 148.6406 Z" style="fill:black; stroke:none;" /><rect height="10" style="stroke:none;" width="6" x="394" y="133" /><path d="M396.1094 142.3906 Q396.1094 142.0625 396.3359 141.8359 Q396.5625 141.6094 396.8906 141.6094 Q397.2188 141.6094 397.4453 141.8359 Q397.6719 142.0625 397.6719 142.3906 Q397.6719 142.7188 397.4453 142.9453 Q397.2188 143.1719 396.8906 143.1719 Q396.5625 143.1719 396.3359 142.9453 Q396.1094 142.7188 396.1094 142.3906 ZM394.8125 134.6406 Q395.4375 134.3594 396 134.2266 Q396.5625 134.0938 397.0469 134.0938 Q398.3438 134.0938 399.1016 134.7188 Q399.8594 135.3438 399.8594 136.4062 Q399.8594 137.5 399.2109 138.1953 Q398.5625 138.8906 397.25 139.1875 L397.25 140.6719 L396.5312 140.6719 L396.5312 138.75 Q397.5625 138.5 398.0938 137.9062 Q398.625 137.3125 398.625 136.4062 Q398.625 135.5938 398.1953 135.1328 Q397.7656 134.6719 397.0312 134.6719 Q396.3594 134.6719 395.9297 135.0547 Q395.5 135.4375 395.3906 136.1562 L394.8125 136.1562 L394.8125 134.6406 Z" style="fill:black; stroke:none;" /></g></g></svg>