<svg xmlns="http://www.w3.org/2000/svg" style="fill-opacity:1; color-rendering:auto; color-interpolation:auto; text-rendering:auto; stroke:black; stroke-linecap:square; stroke-miterlimit:10; shape-rendering:auto; stroke-opacity:1; fill:black; stroke-dasharray:none; font-weight:normal; stroke-width:1; font-family:'Dialog'; font-style:normal; stroke-linejoin:miter; font-size:12px; stroke-dashoffset:0; image-rendering:auto;"><defs id="genericDefs" /><g><defs id="defs1"><clipPath clipPathUnits="userSpaceOnUse" id="clipPath1"><path d="M104 67 C104 73.0751 99.0751 78 93 78 C86.9249 78 82 73.0751 82 67 C82 60.9249 86.9249 56 93 56 C99.0751 56 104 60.9249 104 67 Z" /></clipPath><clipPath clipPathUnits="userSpaceOnUse" id="clipPath2"><path d="M52 93 C52 99.0751 47.0751 104 41 104 C34.9249 104 30 99.0751 30 93 C30 86.9249 34.9249 82 41 82 C47.0751 82 52 86.9249 52 93 Z" /></clipPath><clipPath clipPathUnits="userSpaceOnUse" id="clipPath3"><path d="M52 41 C52 47.0751 47.0751 52 41 52 C34.9249 52 30 47.0751 30 41 C30 34.9249 34.9249 30 41 30 C47.0751 30 52 34.9249 52 41 Z" /></clipPath></defs><g style="fill:white; text-rendering:optimizeSpeed; stroke:white;"><rect height="134" style="stroke:none;" width="134" x="0" y="0" /></g><g ID="l-1:1,2" style="text-rendering:optimizeSpeed;"><polygon points=" 93 67 41 93" style="fill:none;" /></g><g ID="l-1:1,3" style="text-rendering:optimizeSpeed;"><polygon points=" 93 67 41 41" style="fill:none;" /></g><g ID="r-1:1" style="fill:white; text-rendering:optimizeSpeed; stroke:white;" wurcs_mono_id="1"><circle cx="93" cy="67" r="11" style="clip-path:url(#clipPath1); stroke:none;" /><rect height="22" style="clip-path:url(#clipPath1); fill:rgb(0,166,81); stroke:none;" width="22" x="82" y="56" /><rect height="22" style="clip-path:url(#clipPath1); fill:none; stroke:black;" width="22" x="82" y="56" /><circle cx="93" cy="67" r="11" style="fill:none; stroke:black;" /></g><g ID="r-1:2" style="fill:white; text-rendering:optimizeSpeed; stroke:white;" wurcs_mono_id="2"><circle cx="41" cy="93" r="11" style="clip-path:url(#clipPath2); stroke:none;" /><rect height="22" style="clip-path:url(#clipPath2); fill:rgb(0,166,81); stroke:none;" width="22" x="30" y="82" /><rect height="22" style="clip-path:url(#clipPath2); fill:none; stroke:black;" width="22" x="30" y="82" /><circle cx="41" cy="93" r="11" style="fill:none; stroke:black;" /></g><g ID="r-1:3" style="fill:white; text-rendering:optimizeSpeed; stroke:white;" wurcs_mono_id="3"><circle cx="41" cy="41" r="11" style="clip-path:url(#clipPath3); stroke:none;" /><rect height="22" style="clip-path:url(#clipPath3); fill:rgb(0,166,81); stroke:none;" width="22" x="30" y="30" /><rect height="22" style="clip-path:url(#clipPath3); fill:none; stroke:black;" width="22" x="30" y="30" /><circle cx="41" cy="41" r="11" style="fill:none; stroke:black;" /></g><g ID="li-1:1,2" style="fill:white; text-rendering:optimizeSpeed; font-family:'Serif'; stroke:white;"><rect height="9" style="stroke:none;" width="7" x="74" y="78" /><path d="M75.5312 80.3438 L74.875 80.3438 L74.875 78.7812 Q75.5 78.4375 76.1406 78.2656 Q76.7812 78.0938 77.3906 78.0938 Q78.75 78.0938 79.5391 78.7578 Q80.3281 79.4219 80.3281 80.5469 Q80.3281 81.8438 78.5469 83.625 Q78.4062 83.7656 78.3281 83.8281 L76.125 86.0312 L79.7656 86.0312 L79.7656 84.9531 L80.4531 84.9531 L80.4531 87 L74.8125 87 L74.8125 86.3594 L77.4688 83.7188 Q78.3438 82.8281 78.7188 82.0938 Q79.0938 81.3594 79.0938 80.5469 Q79.0938 79.6719 78.6328 79.1719 Q78.1719 78.6719 77.375 78.6719 Q76.5312 78.6719 76.0781 79.0859 Q75.625 79.5 75.5312 80.3438 Z" style="fill:black; stroke:none;" /><rect height="8" style="stroke:none;" width="8" x="58" y="87" /><path d="M63.1875 93.4688 L62.9531 94.1094 Q62.7656 94.625 62.2031 94.9375 Q61.8438 95.1562 61.2031 95.1406 Q60.0469 95.1406 59.3281 94.2344 Q58.5938 93.3281 58.5938 91.8594 Q58.5938 90.4219 59.3281 89.4844 Q60.0156 88.5938 61.4531 88.6094 Q62.4531 88.6094 62.9531 89 Q63.4062 89.3438 63.5781 90.0938 L63.625 90.3125 L63.8438 89.6719 Q64.0625 89.0469 64.6562 88.75 L65.25 88.75 L65.25 89.0938 Q64.6875 89.2656 64.5 89.8125 L63.8906 91.4844 L64.2969 93.2812 Q64.5 94.2031 64.7344 94.2969 Q65.0469 94.4375 65.7812 94 L65.7812 94.7188 Q64.5938 95.4062 63.75 94.6875 Q63.375 94.3594 63.2656 93.875 L63.1875 93.4688 ZM62.9219 92.3125 L62.5625 90.5938 Q62.2656 89.2188 61.4688 89.2188 Q60.7969 89.2031 60.2812 89.9375 Q59.8594 90.5156 59.8594 91.875 Q59.8594 93.1719 60.2812 93.8281 Q60.75 94.5469 61.5312 94.5 Q62.2031 94.4375 62.6875 93 L62.9219 92.3125 Z" style="fill:black; stroke:none;" /></g><g ID="li-1:1,3" style="fill:white; text-rendering:optimizeSpeed; font-family:'Serif'; stroke:white;"><rect height="9" style="stroke:none;" width="8" x="67" y="60" /><path d="M71.1875 66.0312 L71.1875 61.375 L68.2031 66.0312 L71.1875 66.0312 ZM73.7656 69 L69.7812 69 L69.7812 68.375 L71.1875 68.375 L71.1875 66.6562 L67.375 66.6562 L67.375 66.0156 L71.2031 60.0938 L72.3594 60.0938 L72.3594 66.0312 L74.0312 66.0312 L74.0312 66.6562 L72.3594 66.6562 L72.3594 68.375 L73.7656 68.375 L73.7656 69 Z" style="fill:black; stroke:none;" /><rect height="8" style="stroke:none;" width="8" x="51" y="53" /><path d="M56.1875 59.4688 L55.9531 60.1094 Q55.7656 60.625 55.2031 60.9375 Q54.8438 61.1562 54.2031 61.1406 Q53.0469 61.1406 52.3281 60.2344 Q51.5938 59.3281 51.5938 57.8594 Q51.5938 56.4219 52.3281 55.4844 Q53.0156 54.5938 54.4531 54.6094 Q55.4531 54.6094 55.9531 55 Q56.4062 55.3438 56.5781 56.0938 L56.625 56.3125 L56.8438 55.6719 Q57.0625 55.0469 57.6562 54.75 L58.25 54.75 L58.25 55.0938 Q57.6875 55.2656 57.5 55.8125 L56.8906 57.4844 L57.2969 59.2812 Q57.5 60.2031 57.7344 60.2969 Q58.0469 60.4375 58.7812 60 L58.7812 60.7188 Q57.5938 61.4062 56.75 60.6875 Q56.375 60.3594 56.2656 59.875 L56.1875 59.4688 ZM55.9219 58.3125 L55.5625 56.5938 Q55.2656 55.2188 54.4688 55.2188 Q53.7969 55.2031 53.2812 55.9375 Q52.8594 56.5156 52.8594 57.875 Q52.8594 59.1719 53.2812 59.8281 Q53.75 60.5469 54.5312 60.5 Q55.2031 60.4375 55.6875 59 L55.9219 58.3125 Z" style="fill:black; stroke:none;" /></g></g></svg>