<svg xmlns="http://www.w3.org/2000/svg" style="fill-opacity:1; color-rendering:auto; color-interpolation:auto; text-rendering:auto; stroke:black; stroke-linecap:square; stroke-miterlimit:10; shape-rendering:auto; stroke-opacity:1; fill:black; stroke-dasharray:none; font-weight:normal; stroke-width:1; font-family:'Dialog'; font-style:normal; stroke-linejoin:miter; font-size:12px; stroke-dashoffset:0; image-rendering:auto;"><defs id="genericDefs" /><g><defs id="defs1"><clipPath clipPathUnits="userSpaceOnUse" id="clipPath1"><path d="M238 134 L260 134 L260 156 L238 156 L238 134 Z" /></clipPath><clipPath clipPathUnits="userSpaceOnUse" id="clipPath2"><path d="M186 134 L208 134 L208 156 L186 156 L186 134 Z" /></clipPath><clipPath clipPathUnits="userSpaceOnUse" id="clipPath3"><path d="M156 145 C156 151.0751 151.0751 156 145 156 C138.9249 156 134 151.0751 134 145 C134 138.9249 138.9249 134 145 134 C151.0751 134 156 138.9249 156 145 Z" /></clipPath><clipPath clipPathUnits="userSpaceOnUse" id="clipPath4"><path d="M104 171 C104 177.0751 99.0751 182 93 182 C86.9249 182 82 177.0751 82 171 C82 164.9249 86.9249 160 93 160 C99.0751 160 104 164.9249 104 171 Z" /></clipPath><clipPath clipPathUnits="userSpaceOnUse" id="clipPath5"><path d="M30 160 L52 160 L52 182 L30 182 L30 160 Z" /></clipPath><clipPath clipPathUnits="userSpaceOnUse" id="clipPath6"><path d="M104 119 C104 125.0751 99.0751 130 93 130 C86.9249 130 82 125.0751 82 119 C82 112.9249 86.9249 108 93 108 C99.0751 108 104 112.9249 104 119 Z" /></clipPath><clipPath clipPathUnits="userSpaceOnUse" id="clipPath7"><path d="M249 104 L238 82 L260 82 Z" style="fill-rule:evenodd;" /></clipPath><clipPath clipPathUnits="userSpaceOnUse" id="clipPath8"><path d="M260 41 C260 47.0751 255.0751 52 249 52 C242.9249 52 238 47.0751 238 41 C238 34.9249 242.9249 30 249 30 C255.0751 30 260 34.9249 260 41 Z" /></clipPath></defs><g style="fill:white; text-rendering:optimizeSpeed; stroke:white;"><rect height="212" style="stroke:none;" width="290" x="0" y="0" /></g><g ID="l-1:1,2" style="text-rendering:optimizeSpeed;"><polygon points=" 249 145 197 145" style="fill:none;" /></g><g ID="l-1:1,3" style="text-rendering:optimizeSpeed;"><polygon points=" 249 145 249 93" style="fill:none;" /></g><g ID="r-1:1" style="fill:white; text-rendering:optimizeSpeed; stroke:white;" wurcs_mono_id="1"><rect height="22" style="clip-path:url(#clipPath1); stroke:none;" width="22" x="238" y="134" /><rect height="22" style="clip-path:url(#clipPath1); fill:rgb(0,144,188); stroke:none;" width="22" x="238" y="134" /><rect height="22" style="clip-path:url(#clipPath1); fill:none; stroke:black;" width="22" x="238" y="134" /><rect height="22" style="fill:none; stroke:black;" width="22" x="238" y="134" /></g><g ID="l-1:2,4" style="text-rendering:optimizeSpeed;"><polygon points=" 197 145 145 145" style="fill:none;" /></g><g ID="r-1:2" style="fill:white; text-rendering:optimizeSpeed; stroke:white;" wurcs_mono_id="2"><rect height="22" style="clip-path:url(#clipPath2); stroke:none;" width="22" x="186" y="134" /><rect height="22" style="clip-path:url(#clipPath2); fill:rgb(0,144,188); stroke:none;" width="22" x="186" y="134" /><rect height="22" style="clip-path:url(#clipPath2); fill:none; stroke:black;" width="22" x="186" y="134" /><rect height="22" style="fill:none; stroke:black;" width="22" x="186" y="134" /></g><g ID="l-1:4,5" style="text-rendering:optimizeSpeed;"><polygon points=" 145 145 93 171" style="fill:none;" /></g><g ID="l-1:4,6" style="text-rendering:optimizeSpeed;"><polygon points=" 145 145 93 119" style="fill:none;" /></g><g ID="r-1:4" style="fill:white; text-rendering:optimizeSpeed; stroke:white;" wurcs_mono_id="3"><circle cx="145" cy="145" r="11" style="clip-path:url(#clipPath3); stroke:none;" /><rect height="22" style="clip-path:url(#clipPath3); fill:rgb(0,166,81); stroke:none;" width="22" x="134" y="134" /><rect height="22" style="clip-path:url(#clipPath3); fill:none; stroke:black;" width="22" x="134" y="134" /><circle cx="145" cy="145" r="11" style="fill:none; stroke:black;" /></g><g ID="l-1:5,7" style="text-rendering:optimizeSpeed;"><polygon points=" 93 171 41 171" style="fill:none;" /></g><g ID="r-1:5" style="fill:white; text-rendering:optimizeSpeed; stroke:white;" wurcs_mono_id="4"><circle cx="93" cy="171" r="11" style="clip-path:url(#clipPath4); stroke:none;" /><rect height="22" style="clip-path:url(#clipPath4); fill:rgb(0,166,81); stroke:none;" width="22" x="82" y="160" /><rect height="22" style="clip-path:url(#clipPath4); fill:none; stroke:black;" width="22" x="82" y="160" /><circle cx="93" cy="171" r="11" style="fill:none; stroke:black;" /></g><g ID="r-1:7" style="fill:white; text-rendering:optimizeSpeed; stroke:white;" wurcs_mono_id="5"><rect height="22" style="clip-path:url(#clipPath5); stroke:none;" width="22" x="30" y="160" /><rect height="22" style="clip-path:url(#clipPath5); fill:rgb(0,144,188); stroke:none;" width="22" x="30" y="160" /><rect height="22" style="clip-path:url(#clipPath5); fill:none; stroke:black;" width="22" x="30" y="160" /><rect height="22" style="fill:none; stroke:black;" width="22" x="30" y="160" /></g><g ID="li-1:5,7" style="fill:white; text-rendering:optimizeSpeed; font-family:'Serif'; stroke:white;"><rect height="9" style="stroke:none;" width="7" x="70" y="174" /><path d="M71.5312 176.3438 L70.875 176.3438 L70.875 174.7812 Q71.5 174.4375 72.1406 174.2656 Q72.7812 174.0938 73.3906 174.0938 Q74.75 174.0938 75.5391 174.7578 Q76.3281 175.4219 76.3281 176.5469 Q76.3281 177.8438 74.5469 179.625 Q74.4062 179.7656 74.3281 179.8281 L72.125 182.0312 L75.7656 182.0312 L75.7656 180.9531 L76.4531 180.9531 L76.4531 183 L70.8125 183 L70.8125 182.3594 L73.4688 179.7188 Q74.3438 178.8281 74.7188 178.0938 Q75.0938 177.3594 75.0938 176.5469 Q75.0938 175.6719 74.6328 175.1719 Q74.1719 174.6719 73.375 174.6719 Q72.5312 174.6719 72.0781 175.0859 Q71.625 175.5 71.5312 176.3438 Z" style="fill:black; stroke:none;" /><rect height="13" style="stroke:none;" width="7" x="56" y="172" /><path d="M57.8281 184.25 Q58.2969 184.5938 59.1719 184.5938 Q60.0625 184.5938 60.5781 184.0703 Q61.0938 183.5469 61.0938 182.6562 Q61.0938 181.4219 60.5625 180.8906 Q60.0156 180.3594 59 180.3594 L58.4375 180.3594 L58.4375 179.7188 L58.7344 179.7188 Q59.4844 179.7188 60 179.2969 Q60.4219 178.9531 60.4219 178.0156 Q60.4219 177.6094 60.1406 177.1406 Q59.6875 176.375 59.1562 176.3906 Q57.8281 176.4375 57.8281 178.7812 L57.8281 184.25 ZM56.75 187.5 L56.75 178.7812 Q56.75 176.3281 58.0781 176 Q58.7656 175.8125 59.25 175.8125 Q60.3438 175.8125 61.0469 176.6719 Q61.6094 177.3594 61.6094 177.9375 Q61.6094 178.7812 61.2031 179.2656 Q60.7969 179.75 60.0625 179.9844 Q61.1406 180.1406 61.75 180.7812 Q62.3281 181.4062 62.3281 182.6328 Q62.3281 183.8594 61.5078 184.5156 Q60.6875 185.1719 59.1406 185.1719 Q58.1875 185.1719 57.8281 185.0312 L57.8281 187.5 L56.75 187.5 Z" style="fill:black; stroke:none;" /></g><g ID="r-1:6" style="fill:white; text-rendering:optimizeSpeed; stroke:white;" wurcs_mono_id="6"><circle cx="93" cy="119" r="11" style="clip-path:url(#clipPath6); stroke:none;" /><rect height="22" style="clip-path:url(#clipPath6); fill:rgb(0,166,81); stroke:none;" width="22" x="82" y="108" /><rect height="22" style="clip-path:url(#clipPath6); fill:none; stroke:black;" width="22" x="82" y="108" /><circle cx="93" cy="119" r="11" style="fill:none; stroke:black;" /></g><g ID="li-1:4,5" style="fill:white; text-rendering:optimizeSpeed; font-family:'Serif'; stroke:white;"><rect height="10" style="stroke:none;" width="7" x="126" y="156" /><path d="M127.1719 157.625 Q127.8594 157.3594 128.4844 157.2266 Q129.1094 157.0938 129.6562 157.0938 Q130.9531 157.0938 131.6719 157.6484 Q132.3906 158.2031 132.3906 159.1875 Q132.3906 159.9688 131.8906 160.5 Q131.3906 161.0312 130.4844 161.2188 Q131.5625 161.375 132.1562 162.0078 Q132.75 162.6406 132.75 163.6406 Q132.75 164.8594 131.9219 165.5156 Q131.0938 166.1719 129.5469 166.1719 Q128.8594 166.1719 128.2109 166.0234 Q127.5625 165.875 126.9219 165.5781 L126.9219 163.875 L127.5781 163.875 Q127.625 164.7188 128.1406 165.1562 Q128.6562 165.5938 129.5781 165.5938 Q130.4688 165.5938 130.9922 165.0703 Q131.5156 164.5469 131.5156 163.6562 Q131.5156 162.625 130.9766 162.0938 Q130.4375 161.5625 129.4062 161.5625 L128.8594 161.5625 L128.8594 160.9531 L129.1406 160.9531 Q130.1719 160.9531 130.6875 160.5312 Q131.2031 160.1094 131.2031 159.25 Q131.2031 158.4844 130.7812 158.0781 Q130.3594 157.6719 129.5625 157.6719 Q128.7656 157.6719 128.3359 158.0469 Q127.9062 158.4219 127.8281 159.1562 L127.1719 159.1562 L127.1719 157.625 Z" style="fill:black; stroke:none;" /><rect height="8" style="stroke:none;" width="8" x="110" y="165" /><path d="M115.1875 171.4688 L114.9531 172.1094 Q114.7656 172.625 114.2031 172.9375 Q113.8438 173.1562 113.2031 173.1406 Q112.0469 173.1406 111.3281 172.2344 Q110.5938 171.3281 110.5938 169.8594 Q110.5938 168.4219 111.3281 167.4844 Q112.0156 166.5938 113.4531 166.6094 Q114.4531 166.6094 114.9531 167 Q115.4062 167.3438 115.5781 168.0938 L115.625 168.3125 L115.8438 167.6719 Q116.0625 167.0469 116.6562 166.75 L117.25 166.75 L117.25 167.0938 Q116.6875 167.2656 116.5 167.8125 L115.8906 169.4844 L116.2969 171.2812 Q116.5 172.2031 116.7344 172.2969 Q117.0469 172.4375 117.7812 172 L117.7812 172.7188 Q116.5938 173.4062 115.75 172.6875 Q115.375 172.3594 115.2656 171.875 L115.1875 171.4688 ZM114.9219 170.3125 L114.5625 168.5938 Q114.2656 167.2188 113.4688 167.2188 Q112.7969 167.2031 112.2812 167.9375 Q111.8594 168.5156 111.8594 169.875 Q111.8594 171.1719 112.2812 171.8281 Q112.75 172.5469 113.5312 172.5 Q114.2031 172.4375 114.6875 171 L114.9219 170.3125 Z" style="fill:black; stroke:none;" /></g><g ID="li-1:4,6" style="fill:white; text-rendering:optimizeSpeed; font-family:'Serif'; stroke:white;"><rect height="10" style="stroke:none;" width="7" x="119" y="138" /><path d="M122.9219 147.5938 Q123.75 147.5938 124.1953 146.9844 Q124.6406 146.375 124.6406 145.2344 Q124.6406 144.1094 124.1953 143.5 Q123.75 142.8906 122.9219 142.8906 Q122.0938 142.8906 121.6484 143.4766 Q121.2031 144.0625 121.2031 145.1719 Q121.2031 146.3281 121.6484 146.9609 Q122.0938 147.5938 122.9219 147.5938 ZM121.0156 143.1875 Q121.4219 142.75 121.9219 142.5312 Q122.4219 142.3125 123.0625 142.3125 Q124.3594 142.3125 125.1172 143.0938 Q125.875 143.875 125.875 145.2344 Q125.875 146.5625 125.0625 147.3672 Q124.25 148.1719 122.875 148.1719 Q121.3906 148.1719 120.5938 147.0625 Q119.7969 145.9531 119.7969 143.9062 Q119.7969 141.6094 120.7422 140.3516 Q121.6875 139.0938 123.4062 139.0938 Q123.875 139.0938 124.3828 139.1797 Q124.8906 139.2656 125.4219 139.4375 L125.4219 140.8906 L124.7656 140.8906 Q124.6875 140.2969 124.3047 139.9844 Q123.9219 139.6719 123.2812 139.6719 Q122.1406 139.6719 121.5859 140.5312 Q121.0312 141.3906 121.0156 143.1875 Z" style="fill:black; stroke:none;" /><rect height="8" style="stroke:none;" width="8" x="103" y="131" /><path d="M108.1875 137.4688 L107.9531 138.1094 Q107.7656 138.625 107.2031 138.9375 Q106.8438 139.1562 106.2031 139.1406 Q105.0469 139.1406 104.3281 138.2344 Q103.5938 137.3281 103.5938 135.8594 Q103.5938 134.4219 104.3281 133.4844 Q105.0156 132.5938 106.4531 132.6094 Q107.4531 132.6094 107.9531 133 Q108.4062 133.3438 108.5781 134.0938 L108.625 134.3125 L108.8438 133.6719 Q109.0625 133.0469 109.6562 132.75 L110.25 132.75 L110.25 133.0938 Q109.6875 133.2656 109.5 133.8125 L108.8906 135.4844 L109.2969 137.2812 Q109.5 138.2031 109.7344 138.2969 Q110.0469 138.4375 110.7812 138 L110.7812 138.7188 Q109.5938 139.4062 108.75 138.6875 Q108.375 138.3594 108.2656 137.875 L108.1875 137.4688 ZM107.9219 136.3125 L107.5625 134.5938 Q107.2656 133.2188 106.4688 133.2188 Q105.7969 133.2031 105.2812 133.9375 Q104.8594 134.5156 104.8594 135.875 Q104.8594 137.1719 105.2812 137.8281 Q105.75 138.5469 106.5312 138.5 Q107.2031 138.4375 107.6875 137 L107.9219 136.3125 Z" style="fill:black; stroke:none;" /></g><g ID="li-1:2,4" style="fill:white; text-rendering:optimizeSpeed; font-family:'Serif'; stroke:white;"><rect height="9" style="stroke:none;" width="8" x="174" y="148" /><path d="M178.1875 154.0312 L178.1875 149.375 L175.2031 154.0312 L178.1875 154.0312 ZM180.7656 157 L176.7812 157 L176.7812 156.375 L178.1875 156.375 L178.1875 154.6562 L174.375 154.6562 L174.375 154.0156 L178.2031 148.0938 L179.3594 148.0938 L179.3594 154.0312 L181.0312 154.0312 L181.0312 154.6562 L179.3594 154.6562 L179.3594 156.375 L180.7656 156.375 L180.7656 157 Z" style="fill:black; stroke:none;" /><rect height="13" style="stroke:none;" width="7" x="160" y="146" /><path d="M161.8281 158.25 Q162.2969 158.5938 163.1719 158.5938 Q164.0625 158.5938 164.5781 158.0703 Q165.0938 157.5469 165.0938 156.6562 Q165.0938 155.4219 164.5625 154.8906 Q164.0156 154.3594 163 154.3594 L162.4375 154.3594 L162.4375 153.7188 L162.7344 153.7188 Q163.4844 153.7188 164 153.2969 Q164.4219 152.9531 164.4219 152.0156 Q164.4219 151.6094 164.1406 151.1406 Q163.6875 150.375 163.1562 150.3906 Q161.8281 150.4375 161.8281 152.7812 L161.8281 158.25 ZM160.75 161.5 L160.75 152.7812 Q160.75 150.3281 162.0781 150 Q162.7656 149.8125 163.25 149.8125 Q164.3438 149.8125 165.0469 150.6719 Q165.6094 151.3594 165.6094 151.9375 Q165.6094 152.7812 165.2031 153.2656 Q164.7969 153.75 164.0625 153.9844 Q165.1406 154.1406 165.75 154.7812 Q166.3281 155.4062 166.3281 156.6328 Q166.3281 157.8594 165.5078 158.5156 Q164.6875 159.1719 163.1406 159.1719 Q162.1875 159.1719 161.8281 159.0312 L161.8281 161.5 L160.75 161.5 Z" style="fill:black; stroke:none;" /></g><g ID="l-1:3,8" style="text-rendering:optimizeSpeed;"><polygon points=" 249 93 249 41" style="fill:none;" /></g><g ID="r-1:3" style="fill:white; text-rendering:optimizeSpeed; stroke:white;" wurcs_mono_id="7"><polygon points=" 249 104 238 82 260 82" style="stroke:none; clip-path:url(#clipPath7);" /><rect height="22" style="clip-path:url(#clipPath7); fill:rgb(237,28,36); stroke:none;" width="22" x="238" y="82" /><rect height="22" style="clip-path:url(#clipPath7); fill:none; stroke:black;" width="22" x="238" y="82" /><polygon points=" 249 104 238 82 260 82" style="fill:none; stroke:black;" /></g><g ID="r-1:8" style="fill:white; text-rendering:optimizeSpeed; stroke:white;" wurcs_mono_id="8"><circle cx="249" cy="41" r="11" style="clip-path:url(#clipPath8); stroke:none;" /><rect height="22" style="clip-path:url(#clipPath8); fill:rgb(255,212,0); stroke:none;" width="22" x="238" y="30" /><rect height="22" style="clip-path:url(#clipPath8); fill:none; stroke:black;" width="22" x="238" y="30" /><circle cx="249" cy="41" r="11" style="fill:none; stroke:black;" /></g><g ID="li-1:3,8" style="fill:white; text-rendering:optimizeSpeed; font-family:'Serif'; stroke:white;"><rect height="9" style="stroke:none;" width="8" x="237" y="69" /><path d="M241.1875 75.0312 L241.1875 70.375 L238.2031 75.0312 L241.1875 75.0312 ZM243.7656 78 L239.7812 78 L239.7812 77.375 L241.1875 77.375 L241.1875 75.6562 L237.375 75.6562 L237.375 75.0156 L241.2031 69.0938 L242.3594 69.0938 L242.3594 75.0312 L244.0312 75.0312 L244.0312 75.6562 L242.3594 75.6562 L242.3594 77.375 L243.7656 77.375 L243.7656 78 Z" style="fill:black; stroke:none;" /><rect height="13" style="stroke:none;" width="7" x="237" y="53" /><path d="M238.8281 65.25 Q239.2969 65.5938 240.1719 65.5938 Q241.0625 65.5938 241.5781 65.0703 Q242.0938 64.5469 242.0938 63.6562 Q242.0938 62.4219 241.5625 61.8906 Q241.0156 61.3594 240 61.3594 L239.4375 61.3594 L239.4375 60.7188 L239.7344 60.7188 Q240.4844 60.7188 241 60.2969 Q241.4219 59.9531 241.4219 59.0156 Q241.4219 58.6094 241.1406 58.1406 Q240.6875 57.375 240.1562 57.3906 Q238.8281 57.4375 238.8281 59.7812 L238.8281 65.25 ZM237.75 68.5 L237.75 59.7812 Q237.75 57.3281 239.0781 57 Q239.7656 56.8125 240.25 56.8125 Q241.3438 56.8125 242.0469 57.6719 Q242.6094 58.3594 242.6094 58.9375 Q242.6094 59.7812 242.2031 60.2656 Q241.7969 60.75 241.0625 60.9844 Q242.1406 61.1406 242.75 61.7812 Q243.3281 62.4062 243.3281 63.6328 Q243.3281 64.8594 242.5078 65.5156 Q241.6875 66.1719 240.1406 66.1719 Q239.1875 66.1719 238.8281 66.0312 L238.8281 68.5 L237.75 68.5 Z" style="fill:black; stroke:none;" /></g><g ID="li-1:1,2" style="fill:white; text-rendering:optimizeSpeed; font-family:'Serif'; stroke:white;"><rect height="9" style="stroke:none;" width="8" x="226" y="148" /><path d="M230.1875 154.0312 L230.1875 149.375 L227.2031 154.0312 L230.1875 154.0312 ZM232.7656 157 L228.7812 157 L228.7812 156.375 L230.1875 156.375 L230.1875 154.6562 L226.375 154.6562 L226.375 154.0156 L230.2031 148.0938 L231.3594 148.0938 L231.3594 154.0312 L233.0312 154.0312 L233.0312 154.6562 L231.3594 154.6562 L231.3594 156.375 L232.7656 156.375 L232.7656 157 Z" style="fill:black; stroke:none;" /><rect height="13" style="stroke:none;" width="7" x="212" y="146" /><path d="M213.8281 158.25 Q214.2969 158.5938 215.1719 158.5938 Q216.0625 158.5938 216.5781 158.0703 Q217.0938 157.5469 217.0938 156.6562 Q217.0938 155.4219 216.5625 154.8906 Q216.0156 154.3594 215 154.3594 L214.4375 154.3594 L214.4375 153.7188 L214.7344 153.7188 Q215.4844 153.7188 216 153.2969 Q216.4219 152.9531 216.4219 152.0156 Q216.4219 151.6094 216.1406 151.1406 Q215.6875 150.375 215.1562 150.3906 Q213.8281 150.4375 213.8281 152.7812 L213.8281 158.25 ZM212.75 161.5 L212.75 152.7812 Q212.75 150.3281 214.0781 150 Q214.7656 149.8125 215.25 149.8125 Q216.3438 149.8125 217.0469 150.6719 Q217.6094 151.3594 217.6094 151.9375 Q217.6094 152.7812 217.2031 153.2656 Q216.7969 153.75 216.0625 153.9844 Q217.1406 154.1406 217.75 154.7812 Q218.3281 155.4062 218.3281 156.6328 Q218.3281 157.8594 217.5078 158.5156 Q216.6875 159.1719 215.1406 159.1719 Q214.1875 159.1719 213.8281 159.0312 L213.8281 161.5 L212.75 161.5 Z" style="fill:black; stroke:none;" /></g><g ID="li-1:1,3" style="fill:white; text-rendering:optimizeSpeed; font-family:'Serif'; stroke:white;"><rect height="10" style="stroke:none;" width="7" x="237" y="121" /><path d="M240.9219 130.5938 Q241.75 130.5938 242.1953 129.9844 Q242.6406 129.375 242.6406 128.2344 Q242.6406 127.1094 242.1953 126.5 Q241.75 125.8906 240.9219 125.8906 Q240.0938 125.8906 239.6484 126.4766 Q239.2031 127.0625 239.2031 128.1719 Q239.2031 129.3281 239.6484 129.9609 Q240.0938 130.5938 240.9219 130.5938 ZM239.0156 126.1875 Q239.4219 125.75 239.9219 125.5312 Q240.4219 125.3125 241.0625 125.3125 Q242.3594 125.3125 243.1172 126.0938 Q243.875 126.875 243.875 128.2344 Q243.875 129.5625 243.0625 130.3672 Q242.25 131.1719 240.875 131.1719 Q239.3906 131.1719 238.5938 130.0625 Q237.7969 128.9531 237.7969 126.9062 Q237.7969 124.6094 238.7422 123.3516 Q239.6875 122.0938 241.4062 122.0938 Q241.875 122.0938 242.3828 122.1797 Q242.8906 122.2656 243.4219 122.4375 L243.4219 123.8906 L242.7656 123.8906 Q242.6875 123.2969 242.3047 122.9844 Q241.9219 122.6719 241.2812 122.6719 Q240.1406 122.6719 239.5859 123.5312 Q239.0312 124.3906 239.0156 126.1875 Z" style="fill:black; stroke:none;" /><rect height="8" style="stroke:none;" width="8" x="237" y="108" /><path d="M242.1875 114.4688 L241.9531 115.1094 Q241.7656 115.625 241.2031 115.9375 Q240.8438 116.1562 240.2031 116.1406 Q239.0469 116.1406 238.3281 115.2344 Q237.5938 114.3281 237.5938 112.8594 Q237.5938 111.4219 238.3281 110.4844 Q239.0156 109.5938 240.4531 109.6094 Q241.4531 109.6094 241.9531 110 Q242.4062 110.3438 242.5781 111.0938 L242.625 111.3125 L242.8438 110.6719 Q243.0625 110.0469 243.6562 109.75 L244.25 109.75 L244.25 110.0938 Q243.6875 110.2656 243.5 110.8125 L242.8906 112.4844 L243.2969 114.2812 Q243.5 115.2031 243.7344 115.2969 Q244.0469 115.4375 244.7812 115 L244.7812 115.7188 Q243.5938 116.4062 242.75 115.6875 Q242.375 115.3594 242.2656 114.875 L242.1875 114.4688 ZM241.9219 113.3125 L241.5625 111.5938 Q241.2656 110.2188 240.4688 110.2188 Q239.7969 110.2031 239.2812 110.9375 Q238.8594 111.5156 238.8594 112.875 Q238.8594 114.1719 239.2812 114.8281 Q239.75 115.5469 240.5312 115.5 Q241.2031 115.4375 241.6875 114 L241.9219 113.3125 Z" style="fill:black; stroke:none;" /></g></g></svg>