<svg xmlns="http://www.w3.org/2000/svg" style="fill-opacity:1; color-rendering:auto; color-interpolation:auto; text-rendering:auto; stroke:black; stroke-linecap:square; stroke-miterlimit:10; shape-rendering:auto; stroke-opacity:1; fill:black; stroke-dasharray:none; font-weight:normal; stroke-width:1; font-family:'Dialog'; font-style:normal; stroke-linejoin:miter; font-size:12px; stroke-dashoffset:0; image-rendering:auto;"><defs id="genericDefs" /><g><defs id="defs1"><clipPath clipPathUnits="userSpaceOnUse" id="clipPath1"><path d="M342 147 L364 147 L364 169 L342 169 L342 147 Z" /></clipPath><clipPath clipPathUnits="userSpaceOnUse" id="clipPath2"><path d="M290 147 L312 147 L312 169 L290 169 L290 147 Z" /></clipPath><clipPath clipPathUnits="userSpaceOnUse" id="clipPath3"><path d="M260 158 C260 164.0751 255.0751 169 249 169 C242.9249 169 238 164.0751 238 158 C238 151.9249 242.9249 147 249 147 C255.0751 147 260 151.9249 260 158 Z" /></clipPath><clipPath clipPathUnits="userSpaceOnUse" id="clipPath4"><path d="M208 223 C208 229.0751 203.0751 234 197 234 C190.9249 234 186 229.0751 186 223 C186 216.9249 190.9249 212 197 212 C203.0751 212 208 216.9249 208 223 Z" /></clipPath><clipPath clipPathUnits="userSpaceOnUse" id="clipPath5"><path d="M134 238 L156 238 L156 260 L134 260 L134 238 Z" /></clipPath><clipPath clipPathUnits="userSpaceOnUse" id="clipPath6"><path d="M104 249 C104 255.0751 99.0751 260 93 260 C86.9249 260 82 255.0751 82 249 C82 242.9249 86.9249 238 93 238 C99.0751 238 104 242.9249 104 249 Z" /></clipPath><clipPath clipPathUnits="userSpaceOnUse" id="clipPath7"><path d="M41 238 L52 249 L41 260 L30 249 Z" style="fill-rule:evenodd;" /></clipPath><clipPath clipPathUnits="userSpaceOnUse" id="clipPath8"><path d="M134 186 L156 186 L156 208 L134 208 L134 186 Z" /></clipPath><clipPath clipPathUnits="userSpaceOnUse" id="clipPath9"><path d="M145 156 L134 134 L156 134 Z" style="fill-rule:evenodd;" /></clipPath><clipPath clipPathUnits="userSpaceOnUse" id="clipPath10"><path d="M104 197 C104 203.0751 99.0751 208 93 208 C86.9249 208 82 203.0751 82 197 C82 190.9249 86.9249 186 93 186 C99.0751 186 104 190.9249 104 197 Z" /></clipPath><clipPath clipPathUnits="userSpaceOnUse" id="clipPath11"><path d="M208 93 C208 99.0751 203.0751 104 197 104 C190.9249 104 186 99.0751 186 93 C186 86.9249 190.9249 82 197 82 C203.0751 82 208 86.9249 208 93 Z" /></clipPath><clipPath clipPathUnits="userSpaceOnUse" id="clipPath12"><path d="M134 82 L156 82 L156 104 L134 104 L134 82 Z" /></clipPath><clipPath clipPathUnits="userSpaceOnUse" id="clipPath13"><path d="M145 52 L134 30 L156 30 Z" style="fill-rule:evenodd;" /></clipPath><clipPath clipPathUnits="userSpaceOnUse" id="clipPath14"><path d="M104 93 C104 99.0751 99.0751 104 93 104 C86.9249 104 82 99.0751 82 93 C82 86.9249 86.9249 82 93 82 C99.0751 82 104 86.9249 104 93 Z" /></clipPath><clipPath clipPathUnits="userSpaceOnUse" id="clipPath15"><path d="M353 117 L342 95 L364 95 Z" style="fill-rule:evenodd;" /></clipPath></defs><g style="fill:white; text-rendering:optimizeSpeed; stroke:white;"><rect height="290" style="stroke:none;" width="394" x="0" y="0" /></g><g ID="l-1:1,2" style="text-rendering:optimizeSpeed;"><polygon points=" 353 158 301 158" style="fill:none;" /></g><g ID="l-1:1,3" style="text-rendering:optimizeSpeed;"><polygon points=" 353 158 353 106" style="fill:none;" /></g><g ID="r-1:1" style="fill:white; text-rendering:optimizeSpeed; stroke:white;" wurcs_mono_id="1"><rect height="22" style="clip-path:url(#clipPath1); stroke:none;" width="22" x="342" y="147" /><rect height="22" style="clip-path:url(#clipPath1); fill:rgb(0,144,188); stroke:none;" width="22" x="342" y="147" /><rect height="22" style="clip-path:url(#clipPath1); fill:none; stroke:black;" width="22" x="342" y="147" /><rect height="22" style="fill:none; stroke:black;" width="22" x="342" y="147" /></g><g ID="l-1:2,4" style="text-rendering:optimizeSpeed;"><polygon points=" 301 158 249 158" style="fill:none;" /></g><g ID="r-1:2" style="fill:white; text-rendering:optimizeSpeed; stroke:white;" wurcs_mono_id="2"><rect height="22" style="clip-path:url(#clipPath2); stroke:none;" width="22" x="290" y="147" /><rect height="22" style="clip-path:url(#clipPath2); fill:rgb(0,144,188); stroke:none;" width="22" x="290" y="147" /><rect height="22" style="clip-path:url(#clipPath2); fill:none; stroke:black;" width="22" x="290" y="147" /><rect height="22" style="fill:none; stroke:black;" width="22" x="290" y="147" /></g><g ID="l-1:4,5" style="text-rendering:optimizeSpeed;"><polygon points=" 249 158 197 223" style="fill:none;" /></g><g ID="l-1:4,6" style="text-rendering:optimizeSpeed;"><polygon points=" 249 158 197 93" style="fill:none;" /></g><g ID="r-1:4" style="fill:white; text-rendering:optimizeSpeed; stroke:white;" wurcs_mono_id="3"><circle cx="249" cy="158" r="11" style="clip-path:url(#clipPath3); stroke:none;" /><rect height="22" style="clip-path:url(#clipPath3); fill:rgb(0,166,81); stroke:none;" width="22" x="238" y="147" /><rect height="22" style="clip-path:url(#clipPath3); fill:none; stroke:black;" width="22" x="238" y="147" /><circle cx="249" cy="158" r="11" style="fill:none; stroke:black;" /></g><g ID="l-1:5,7" style="text-rendering:optimizeSpeed;"><polygon points=" 197 223 145 249" style="fill:none;" /></g><g ID="l-1:5,8" style="text-rendering:optimizeSpeed;"><polygon points=" 197 223 145 197" style="fill:none;" /></g><g ID="r-1:5" style="fill:white; text-rendering:optimizeSpeed; stroke:white;" wurcs_mono_id="4"><circle cx="197" cy="223" r="11" style="clip-path:url(#clipPath4); stroke:none;" /><rect height="22" style="clip-path:url(#clipPath4); fill:rgb(0,166,81); stroke:none;" width="22" x="186" y="212" /><rect height="22" style="clip-path:url(#clipPath4); fill:none; stroke:black;" width="22" x="186" y="212" /><circle cx="197" cy="223" r="11" style="fill:none; stroke:black;" /></g><g ID="l-1:7,9" style="text-rendering:optimizeSpeed;"><polygon points=" 145 249 93 249" style="fill:none;" /></g><g ID="r-1:7" style="fill:white; text-rendering:optimizeSpeed; stroke:white;" wurcs_mono_id="5"><rect height="22" style="clip-path:url(#clipPath5); stroke:none;" width="22" x="134" y="238" /><rect height="22" style="clip-path:url(#clipPath5); fill:rgb(0,144,188); stroke:none;" width="22" x="134" y="238" /><rect height="22" style="clip-path:url(#clipPath5); fill:none; stroke:black;" width="22" x="134" y="238" /><rect height="22" style="fill:none; stroke:black;" width="22" x="134" y="238" /></g><g ID="l-1:9,10" style="text-rendering:optimizeSpeed;"><polygon points=" 93 249 41 249" style="fill:none;" /></g><g ID="r-1:9" style="fill:white; text-rendering:optimizeSpeed; stroke:white;" wurcs_mono_id="6"><circle cx="93" cy="249" r="11" style="clip-path:url(#clipPath6); stroke:none;" /><rect height="22" style="clip-path:url(#clipPath6); fill:rgb(255,212,0); stroke:none;" width="22" x="82" y="238" /><rect height="22" style="clip-path:url(#clipPath6); fill:none; stroke:black;" width="22" x="82" y="238" /><circle cx="93" cy="249" r="11" style="fill:none; stroke:black;" /></g><g ID="r-1:10" style="fill:white; text-rendering:optimizeSpeed; stroke:white;" wurcs_mono_id="7"><polygon points=" 41 238 52 249 41 260 30 249" style="stroke:none; clip-path:url(#clipPath7);" /><rect height="22" style="clip-path:url(#clipPath7); fill:rgb(165,67,153); stroke:none;" width="22" x="30" y="238" /><rect height="22" style="clip-path:url(#clipPath7); fill:none; stroke:black;" width="22" x="30" y="238" /><polygon points=" 41 238 52 249 41 260 30 249" style="fill:none; stroke:black;" /></g><g ID="li-1:9,10" style="fill:white; text-rendering:optimizeSpeed; font-family:'Serif'; stroke:white;"><rect height="10" style="stroke:none;" width="6" x="71" y="252" /><path d="M73.1094 261.3906 Q73.1094 261.0625 73.3359 260.8359 Q73.5625 260.6094 73.8906 260.6094 Q74.2188 260.6094 74.4453 260.8359 Q74.6719 261.0625 74.6719 261.3906 Q74.6719 261.7188 74.4453 261.9453 Q74.2188 262.1719 73.8906 262.1719 Q73.5625 262.1719 73.3359 261.9453 Q73.1094 261.7188 73.1094 261.3906 ZM71.8125 253.6406 Q72.4375 253.3594 73 253.2266 Q73.5625 253.0938 74.0469 253.0938 Q75.3438 253.0938 76.1016 253.7188 Q76.8594 254.3438 76.8594 255.4062 Q76.8594 256.5 76.2109 257.1953 Q75.5625 257.8906 74.25 258.1875 L74.25 259.6719 L73.5312 259.6719 L73.5312 257.75 Q74.5625 257.5 75.0938 256.9062 Q75.625 256.3125 75.625 255.4062 Q75.625 254.5938 75.1953 254.1328 Q74.7656 253.6719 74.0312 253.6719 Q73.3594 253.6719 72.9297 254.0547 Q72.5 254.4375 72.3906 255.1562 L71.8125 255.1562 L71.8125 253.6406 Z" style="fill:black; stroke:none;" /><rect height="10" style="stroke:none;" width="6" x="57" y="252" /><path d="M59.1094 261.3906 Q59.1094 261.0625 59.3359 260.8359 Q59.5625 260.6094 59.8906 260.6094 Q60.2188 260.6094 60.4453 260.8359 Q60.6719 261.0625 60.6719 261.3906 Q60.6719 261.7188 60.4453 261.9453 Q60.2188 262.1719 59.8906 262.1719 Q59.5625 262.1719 59.3359 261.9453 Q59.1094 261.7188 59.1094 261.3906 ZM57.8125 253.6406 Q58.4375 253.3594 59 253.2266 Q59.5625 253.0938 60.0469 253.0938 Q61.3438 253.0938 62.1016 253.7188 Q62.8594 254.3438 62.8594 255.4062 Q62.8594 256.5 62.2109 257.1953 Q61.5625 257.8906 60.25 258.1875 L60.25 259.6719 L59.5312 259.6719 L59.5312 257.75 Q60.5625 257.5 61.0938 256.9062 Q61.625 256.3125 61.625 255.4062 Q61.625 254.5938 61.1953 254.1328 Q60.7656 253.6719 60.0312 253.6719 Q59.3594 253.6719 58.9297 254.0547 Q58.5 254.4375 58.3906 255.1562 L57.8125 255.1562 L57.8125 253.6406 Z" style="fill:black; stroke:none;" /></g><g ID="li-1:7,9" style="fill:white; text-rendering:optimizeSpeed; font-family:'Serif'; stroke:white;"><rect height="10" style="stroke:none;" width="6" x="123" y="252" /><path d="M125.1094 261.3906 Q125.1094 261.0625 125.3359 260.8359 Q125.5625 260.6094 125.8906 260.6094 Q126.2188 260.6094 126.4453 260.8359 Q126.6719 261.0625 126.6719 261.3906 Q126.6719 261.7188 126.4453 261.9453 Q126.2188 262.1719 125.8906 262.1719 Q125.5625 262.1719 125.3359 261.9453 Q125.1094 261.7188 125.1094 261.3906 ZM123.8125 253.6406 Q124.4375 253.3594 125 253.2266 Q125.5625 253.0938 126.0469 253.0938 Q127.3438 253.0938 128.1016 253.7188 Q128.8594 254.3438 128.8594 255.4062 Q128.8594 256.5 128.2109 257.1953 Q127.5625 257.8906 126.25 258.1875 L126.25 259.6719 L125.5312 259.6719 L125.5312 257.75 Q126.5625 257.5 127.0938 256.9062 Q127.625 256.3125 127.625 255.4062 Q127.625 254.5938 127.1953 254.1328 Q126.7656 253.6719 126.0312 253.6719 Q125.3594 253.6719 124.9297 254.0547 Q124.5 254.4375 124.3906 255.1562 L123.8125 255.1562 L123.8125 253.6406 Z" style="fill:black; stroke:none;" /><rect height="10" style="stroke:none;" width="6" x="109" y="252" /><path d="M111.1094 261.3906 Q111.1094 261.0625 111.3359 260.8359 Q111.5625 260.6094 111.8906 260.6094 Q112.2188 260.6094 112.4453 260.8359 Q112.6719 261.0625 112.6719 261.3906 Q112.6719 261.7188 112.4453 261.9453 Q112.2188 262.1719 111.8906 262.1719 Q111.5625 262.1719 111.3359 261.9453 Q111.1094 261.7188 111.1094 261.3906 ZM109.8125 253.6406 Q110.4375 253.3594 111 253.2266 Q111.5625 253.0938 112.0469 253.0938 Q113.3438 253.0938 114.1016 253.7188 Q114.8594 254.3438 114.8594 255.4062 Q114.8594 256.5 114.2109 257.1953 Q113.5625 257.8906 112.25 258.1875 L112.25 259.6719 L111.5312 259.6719 L111.5312 257.75 Q112.5625 257.5 113.0938 256.9062 Q113.625 256.3125 113.625 255.4062 Q113.625 254.5938 113.1953 254.1328 Q112.7656 253.6719 112.0312 253.6719 Q111.3594 253.6719 110.9297 254.0547 Q110.5 254.4375 110.3906 255.1562 L109.8125 255.1562 L109.8125 253.6406 Z" style="fill:black; stroke:none;" /></g><g ID="l-1:8,11" style="text-rendering:optimizeSpeed;"><polygon points=" 145 197 145 145" style="fill:none;" /></g><g ID="l-1:8,12" style="text-rendering:optimizeSpeed;"><polygon points=" 145 197 93 197" style="fill:none;" /></g><g ID="r-1:8" style="fill:white; text-rendering:optimizeSpeed; stroke:white;" wurcs_mono_id="8"><rect height="22" style="clip-path:url(#clipPath8); stroke:none;" width="22" x="134" y="186" /><rect height="22" style="clip-path:url(#clipPath8); fill:rgb(0,144,188); stroke:none;" width="22" x="134" y="186" /><rect height="22" style="clip-path:url(#clipPath8); fill:none; stroke:black;" width="22" x="134" y="186" /><rect height="22" style="fill:none; stroke:black;" width="22" x="134" y="186" /></g><g ID="r-1:11" style="fill:white; text-rendering:optimizeSpeed; stroke:white;" wurcs_mono_id="9"><polygon points=" 145 156 134 134 156 134" style="stroke:none; clip-path:url(#clipPath9);" /><rect height="22" style="clip-path:url(#clipPath9); fill:rgb(237,28,36); stroke:none;" width="22" x="134" y="134" /><rect height="22" style="clip-path:url(#clipPath9); fill:none; stroke:black;" width="22" x="134" y="134" /><polygon points=" 145 156 134 134 156 134" style="fill:none; stroke:black;" /></g><g ID="r-1:12" style="fill:white; text-rendering:optimizeSpeed; stroke:white;" wurcs_mono_id="10"><circle cx="93" cy="197" r="11" style="clip-path:url(#clipPath10); stroke:none;" /><rect height="22" style="clip-path:url(#clipPath10); fill:rgb(255,212,0); stroke:none;" width="22" x="82" y="186" /><rect height="22" style="clip-path:url(#clipPath10); fill:none; stroke:black;" width="22" x="82" y="186" /><circle cx="93" cy="197" r="11" style="fill:none; stroke:black;" /></g><g ID="li-1:8,11" style="fill:white; text-rendering:optimizeSpeed; font-family:'Serif'; stroke:white;"><rect height="10" style="stroke:none;" width="6" x="134" y="173" /><path d="M136.1094 182.3906 Q136.1094 182.0625 136.3359 181.8359 Q136.5625 181.6094 136.8906 181.6094 Q137.2188 181.6094 137.4453 181.8359 Q137.6719 182.0625 137.6719 182.3906 Q137.6719 182.7188 137.4453 182.9453 Q137.2188 183.1719 136.8906 183.1719 Q136.5625 183.1719 136.3359 182.9453 Q136.1094 182.7188 136.1094 182.3906 ZM134.8125 174.6406 Q135.4375 174.3594 136 174.2266 Q136.5625 174.0938 137.0469 174.0938 Q138.3438 174.0938 139.1016 174.7188 Q139.8594 175.3438 139.8594 176.4062 Q139.8594 177.5 139.2109 178.1953 Q138.5625 178.8906 137.25 179.1875 L137.25 180.6719 L136.5312 180.6719 L136.5312 178.75 Q137.5625 178.5 138.0938 177.9062 Q138.625 177.3125 138.625 176.4062 Q138.625 175.5938 138.1953 175.1328 Q137.7656 174.6719 137.0312 174.6719 Q136.3594 174.6719 135.9297 175.0547 Q135.5 175.4375 135.3906 176.1562 L134.8125 176.1562 L134.8125 174.6406 Z" style="fill:black; stroke:none;" /><rect height="10" style="stroke:none;" width="6" x="134" y="159" /><path d="M136.1094 168.3906 Q136.1094 168.0625 136.3359 167.8359 Q136.5625 167.6094 136.8906 167.6094 Q137.2188 167.6094 137.4453 167.8359 Q137.6719 168.0625 137.6719 168.3906 Q137.6719 168.7188 137.4453 168.9453 Q137.2188 169.1719 136.8906 169.1719 Q136.5625 169.1719 136.3359 168.9453 Q136.1094 168.7188 136.1094 168.3906 ZM134.8125 160.6406 Q135.4375 160.3594 136 160.2266 Q136.5625 160.0938 137.0469 160.0938 Q138.3438 160.0938 139.1016 160.7188 Q139.8594 161.3438 139.8594 162.4062 Q139.8594 163.5 139.2109 164.1953 Q138.5625 164.8906 137.25 165.1875 L137.25 166.6719 L136.5312 166.6719 L136.5312 164.75 Q137.5625 164.5 138.0938 163.9062 Q138.625 163.3125 138.625 162.4062 Q138.625 161.5938 138.1953 161.1328 Q137.7656 160.6719 137.0312 160.6719 Q136.3594 160.6719 135.9297 161.0547 Q135.5 161.4375 135.3906 162.1562 L134.8125 162.1562 L134.8125 160.6406 Z" style="fill:black; stroke:none;" /></g><g ID="li-1:8,12" style="fill:white; text-rendering:optimizeSpeed; font-family:'Serif'; stroke:white;"><rect height="10" style="stroke:none;" width="6" x="123" y="200" /><path d="M125.1094 209.3906 Q125.1094 209.0625 125.3359 208.8359 Q125.5625 208.6094 125.8906 208.6094 Q126.2188 208.6094 126.4453 208.8359 Q126.6719 209.0625 126.6719 209.3906 Q126.6719 209.7188 126.4453 209.9453 Q126.2188 210.1719 125.8906 210.1719 Q125.5625 210.1719 125.3359 209.9453 Q125.1094 209.7188 125.1094 209.3906 ZM123.8125 201.6406 Q124.4375 201.3594 125 201.2266 Q125.5625 201.0938 126.0469 201.0938 Q127.3438 201.0938 128.1016 201.7188 Q128.8594 202.3438 128.8594 203.4062 Q128.8594 204.5 128.2109 205.1953 Q127.5625 205.8906 126.25 206.1875 L126.25 207.6719 L125.5312 207.6719 L125.5312 205.75 Q126.5625 205.5 127.0938 204.9062 Q127.625 204.3125 127.625 203.4062 Q127.625 202.5938 127.1953 202.1328 Q126.7656 201.6719 126.0312 201.6719 Q125.3594 201.6719 124.9297 202.0547 Q124.5 202.4375 124.3906 203.1562 L123.8125 203.1562 L123.8125 201.6406 Z" style="fill:black; stroke:none;" /><rect height="10" style="stroke:none;" width="6" x="109" y="200" /><path d="M111.1094 209.3906 Q111.1094 209.0625 111.3359 208.8359 Q111.5625 208.6094 111.8906 208.6094 Q112.2188 208.6094 112.4453 208.8359 Q112.6719 209.0625 112.6719 209.3906 Q112.6719 209.7188 112.4453 209.9453 Q112.2188 210.1719 111.8906 210.1719 Q111.5625 210.1719 111.3359 209.9453 Q111.1094 209.7188 111.1094 209.3906 ZM109.8125 201.6406 Q110.4375 201.3594 111 201.2266 Q111.5625 201.0938 112.0469 201.0938 Q113.3438 201.0938 114.1016 201.7188 Q114.8594 202.3438 114.8594 203.4062 Q114.8594 204.5 114.2109 205.1953 Q113.5625 205.8906 112.25 206.1875 L112.25 207.6719 L111.5312 207.6719 L111.5312 205.75 Q112.5625 205.5 113.0938 204.9062 Q113.625 204.3125 113.625 203.4062 Q113.625 202.5938 113.1953 202.1328 Q112.7656 201.6719 112.0312 201.6719 Q111.3594 201.6719 110.9297 202.0547 Q110.5 202.4375 110.3906 203.1562 L109.8125 203.1562 L109.8125 201.6406 Z" style="fill:black; stroke:none;" /></g><g ID="li-1:5,7" style="fill:white; text-rendering:optimizeSpeed; font-family:'Serif'; stroke:white;"><rect height="10" style="stroke:none;" width="6" x="179" y="234" /><path d="M181.1094 243.3906 Q181.1094 243.0625 181.3359 242.8359 Q181.5625 242.6094 181.8906 242.6094 Q182.2188 242.6094 182.4453 242.8359 Q182.6719 243.0625 182.6719 243.3906 Q182.6719 243.7188 182.4453 243.9453 Q182.2188 244.1719 181.8906 244.1719 Q181.5625 244.1719 181.3359 243.9453 Q181.1094 243.7188 181.1094 243.3906 ZM179.8125 235.6406 Q180.4375 235.3594 181 235.2266 Q181.5625 235.0938 182.0469 235.0938 Q183.3438 235.0938 184.1016 235.7188 Q184.8594 236.3438 184.8594 237.4062 Q184.8594 238.5 184.2109 239.1953 Q183.5625 239.8906 182.25 240.1875 L182.25 241.6719 L181.5312 241.6719 L181.5312 239.75 Q182.5625 239.5 183.0938 238.9062 Q183.625 238.3125 183.625 237.4062 Q183.625 236.5938 183.1953 236.1328 Q182.7656 235.6719 182.0312 235.6719 Q181.3594 235.6719 180.9297 236.0547 Q180.5 236.4375 180.3906 237.1562 L179.8125 237.1562 L179.8125 235.6406 Z" style="fill:black; stroke:none;" /><rect height="10" style="stroke:none;" width="6" x="163" y="242" /><path d="M165.1094 251.3906 Q165.1094 251.0625 165.3359 250.8359 Q165.5625 250.6094 165.8906 250.6094 Q166.2188 250.6094 166.4453 250.8359 Q166.6719 251.0625 166.6719 251.3906 Q166.6719 251.7188 166.4453 251.9453 Q166.2188 252.1719 165.8906 252.1719 Q165.5625 252.1719 165.3359 251.9453 Q165.1094 251.7188 165.1094 251.3906 ZM163.8125 243.6406 Q164.4375 243.3594 165 243.2266 Q165.5625 243.0938 166.0469 243.0938 Q167.3438 243.0938 168.1016 243.7188 Q168.8594 244.3438 168.8594 245.4062 Q168.8594 246.5 168.2109 247.1953 Q167.5625 247.8906 166.25 248.1875 L166.25 249.6719 L165.5312 249.6719 L165.5312 247.75 Q166.5625 247.5 167.0938 246.9062 Q167.625 246.3125 167.625 245.4062 Q167.625 244.5938 167.1953 244.1328 Q166.7656 243.6719 166.0312 243.6719 Q165.3594 243.6719 164.9297 244.0547 Q164.5 244.4375 164.3906 245.1562 L163.8125 245.1562 L163.8125 243.6406 Z" style="fill:black; stroke:none;" /></g><g ID="li-1:5,8" style="fill:white; text-rendering:optimizeSpeed; font-family:'Serif'; stroke:white;"><rect height="10" style="stroke:none;" width="6" x="172" y="216" /><path d="M174.1094 225.3906 Q174.1094 225.0625 174.3359 224.8359 Q174.5625 224.6094 174.8906 224.6094 Q175.2188 224.6094 175.4453 224.8359 Q175.6719 225.0625 175.6719 225.3906 Q175.6719 225.7188 175.4453 225.9453 Q175.2188 226.1719 174.8906 226.1719 Q174.5625 226.1719 174.3359 225.9453 Q174.1094 225.7188 174.1094 225.3906 ZM172.8125 217.6406 Q173.4375 217.3594 174 217.2266 Q174.5625 217.0938 175.0469 217.0938 Q176.3438 217.0938 177.1016 217.7188 Q177.8594 218.3438 177.8594 219.4062 Q177.8594 220.5 177.2109 221.1953 Q176.5625 221.8906 175.25 222.1875 L175.25 223.6719 L174.5312 223.6719 L174.5312 221.75 Q175.5625 221.5 176.0938 220.9062 Q176.625 220.3125 176.625 219.4062 Q176.625 218.5938 176.1953 218.1328 Q175.7656 217.6719 175.0312 217.6719 Q174.3594 217.6719 173.9297 218.0547 Q173.5 218.4375 173.3906 219.1562 L172.8125 219.1562 L172.8125 217.6406 Z" style="fill:black; stroke:none;" /><rect height="10" style="stroke:none;" width="6" x="156" y="208" /><path d="M158.1094 217.3906 Q158.1094 217.0625 158.3359 216.8359 Q158.5625 216.6094 158.8906 216.6094 Q159.2188 216.6094 159.4453 216.8359 Q159.6719 217.0625 159.6719 217.3906 Q159.6719 217.7188 159.4453 217.9453 Q159.2188 218.1719 158.8906 218.1719 Q158.5625 218.1719 158.3359 217.9453 Q158.1094 217.7188 158.1094 217.3906 ZM156.8125 209.6406 Q157.4375 209.3594 158 209.2266 Q158.5625 209.0938 159.0469 209.0938 Q160.3438 209.0938 161.1016 209.7188 Q161.8594 210.3438 161.8594 211.4062 Q161.8594 212.5 161.2109 213.1953 Q160.5625 213.8906 159.25 214.1875 L159.25 215.6719 L158.5312 215.6719 L158.5312 213.75 Q159.5625 213.5 160.0938 212.9062 Q160.625 212.3125 160.625 211.4062 Q160.625 210.5938 160.1953 210.1328 Q159.7656 209.6719 159.0312 209.6719 Q158.3594 209.6719 157.9297 210.0547 Q157.5 210.4375 157.3906 211.1562 L156.8125 211.1562 L156.8125 209.6406 Z" style="fill:black; stroke:none;" /></g><g ID="l-1:6,13" style="text-rendering:optimizeSpeed;"><polygon points=" 197 93 145 93" style="fill:none;" /></g><g ID="r-1:6" style="fill:white; text-rendering:optimizeSpeed; stroke:white;" wurcs_mono_id="11"><circle cx="197" cy="93" r="11" style="clip-path:url(#clipPath11); stroke:none;" /><rect height="22" style="clip-path:url(#clipPath11); fill:rgb(0,166,81); stroke:none;" width="22" x="186" y="82" /><rect height="22" style="clip-path:url(#clipPath11); fill:none; stroke:black;" width="22" x="186" y="82" /><circle cx="197" cy="93" r="11" style="fill:none; stroke:black;" /></g><g ID="l-1:13,14" style="text-rendering:optimizeSpeed;"><polygon points=" 145 93 145 41" style="fill:none;" /></g><g ID="l-1:13,15" style="text-rendering:optimizeSpeed;"><polygon points=" 145 93 93 93" style="fill:none;" /></g><g ID="r-1:13" style="fill:white; text-rendering:optimizeSpeed; stroke:white;" wurcs_mono_id="12"><rect height="22" style="clip-path:url(#clipPath12); stroke:none;" width="22" x="134" y="82" /><rect height="22" style="clip-path:url(#clipPath12); fill:rgb(0,144,188); stroke:none;" width="22" x="134" y="82" /><rect height="22" style="clip-path:url(#clipPath12); fill:none; stroke:black;" width="22" x="134" y="82" /><rect height="22" style="fill:none; stroke:black;" width="22" x="134" y="82" /></g><g ID="r-1:14" style="fill:white; text-rendering:optimizeSpeed; stroke:white;" wurcs_mono_id="13"><polygon points=" 145 52 134 30 156 30" style="stroke:none; clip-path:url(#clipPath13);" /><rect height="22" style="clip-path:url(#clipPath13); fill:rgb(237,28,36); stroke:none;" width="22" x="134" y="30" /><rect height="22" style="clip-path:url(#clipPath13); fill:none; stroke:black;" width="22" x="134" y="30" /><polygon points=" 145 52 134 30 156 30" style="fill:none; stroke:black;" /></g><g ID="r-1:15" style="fill:white; text-rendering:optimizeSpeed; stroke:white;" wurcs_mono_id="14"><circle cx="93" cy="93" r="11" style="clip-path:url(#clipPath14); stroke:none;" /><rect height="22" style="clip-path:url(#clipPath14); fill:rgb(255,212,0); stroke:none;" width="22" x="82" y="82" /><rect height="22" style="clip-path:url(#clipPath14); fill:none; stroke:black;" width="22" x="82" y="82" /><circle cx="93" cy="93" r="11" style="fill:none; stroke:black;" /></g><g ID="li-1:13,14" style="fill:white; text-rendering:optimizeSpeed; font-family:'Serif'; stroke:white;"><rect height="10" style="stroke:none;" width="6" x="134" y="69" /><path d="M136.1094 78.3906 Q136.1094 78.0625 136.3359 77.8359 Q136.5625 77.6094 136.8906 77.6094 Q137.2188 77.6094 137.4453 77.8359 Q137.6719 78.0625 137.6719 78.3906 Q137.6719 78.7188 137.4453 78.9453 Q137.2188 79.1719 136.8906 79.1719 Q136.5625 79.1719 136.3359 78.9453 Q136.1094 78.7188 136.1094 78.3906 ZM134.8125 70.6406 Q135.4375 70.3594 136 70.2266 Q136.5625 70.0938 137.0469 70.0938 Q138.3438 70.0938 139.1016 70.7188 Q139.8594 71.3438 139.8594 72.4062 Q139.8594 73.5 139.2109 74.1953 Q138.5625 74.8906 137.25 75.1875 L137.25 76.6719 L136.5312 76.6719 L136.5312 74.75 Q137.5625 74.5 138.0938 73.9062 Q138.625 73.3125 138.625 72.4062 Q138.625 71.5938 138.1953 71.1328 Q137.7656 70.6719 137.0312 70.6719 Q136.3594 70.6719 135.9297 71.0547 Q135.5 71.4375 135.3906 72.1562 L134.8125 72.1562 L134.8125 70.6406 Z" style="fill:black; stroke:none;" /><rect height="10" style="stroke:none;" width="6" x="134" y="55" /><path d="M136.1094 64.3906 Q136.1094 64.0625 136.3359 63.8359 Q136.5625 63.6094 136.8906 63.6094 Q137.2188 63.6094 137.4453 63.8359 Q137.6719 64.0625 137.6719 64.3906 Q137.6719 64.7188 137.4453 64.9453 Q137.2188 65.1719 136.8906 65.1719 Q136.5625 65.1719 136.3359 64.9453 Q136.1094 64.7188 136.1094 64.3906 ZM134.8125 56.6406 Q135.4375 56.3594 136 56.2266 Q136.5625 56.0938 137.0469 56.0938 Q138.3438 56.0938 139.1016 56.7188 Q139.8594 57.3438 139.8594 58.4062 Q139.8594 59.5 139.2109 60.1953 Q138.5625 60.8906 137.25 61.1875 L137.25 62.6719 L136.5312 62.6719 L136.5312 60.75 Q137.5625 60.5 138.0938 59.9062 Q138.625 59.3125 138.625 58.4062 Q138.625 57.5938 138.1953 57.1328 Q137.7656 56.6719 137.0312 56.6719 Q136.3594 56.6719 135.9297 57.0547 Q135.5 57.4375 135.3906 58.1562 L134.8125 58.1562 L134.8125 56.6406 Z" style="fill:black; stroke:none;" /></g><g ID="li-1:13,15" style="fill:white; text-rendering:optimizeSpeed; font-family:'Serif'; stroke:white;"><rect height="10" style="stroke:none;" width="6" x="123" y="96" /><path d="M125.1094 105.3906 Q125.1094 105.0625 125.3359 104.8359 Q125.5625 104.6094 125.8906 104.6094 Q126.2188 104.6094 126.4453 104.8359 Q126.6719 105.0625 126.6719 105.3906 Q126.6719 105.7188 126.4453 105.9453 Q126.2188 106.1719 125.8906 106.1719 Q125.5625 106.1719 125.3359 105.9453 Q125.1094 105.7188 125.1094 105.3906 ZM123.8125 97.6406 Q124.4375 97.3594 125 97.2266 Q125.5625 97.0938 126.0469 97.0938 Q127.3438 97.0938 128.1016 97.7188 Q128.8594 98.3438 128.8594 99.4062 Q128.8594 100.5 128.2109 101.1953 Q127.5625 101.8906 126.25 102.1875 L126.25 103.6719 L125.5312 103.6719 L125.5312 101.75 Q126.5625 101.5 127.0938 100.9062 Q127.625 100.3125 127.625 99.4062 Q127.625 98.5938 127.1953 98.1328 Q126.7656 97.6719 126.0312 97.6719 Q125.3594 97.6719 124.9297 98.0547 Q124.5 98.4375 124.3906 99.1562 L123.8125 99.1562 L123.8125 97.6406 Z" style="fill:black; stroke:none;" /><rect height="10" style="stroke:none;" width="6" x="109" y="96" /><path d="M111.1094 105.3906 Q111.1094 105.0625 111.3359 104.8359 Q111.5625 104.6094 111.8906 104.6094 Q112.2188 104.6094 112.4453 104.8359 Q112.6719 105.0625 112.6719 105.3906 Q112.6719 105.7188 112.4453 105.9453 Q112.2188 106.1719 111.8906 106.1719 Q111.5625 106.1719 111.3359 105.9453 Q111.1094 105.7188 111.1094 105.3906 ZM109.8125 97.6406 Q110.4375 97.3594 111 97.2266 Q111.5625 97.0938 112.0469 97.0938 Q113.3438 97.0938 114.1016 97.7188 Q114.8594 98.3438 114.8594 99.4062 Q114.8594 100.5 114.2109 101.1953 Q113.5625 101.8906 112.25 102.1875 L112.25 103.6719 L111.5312 103.6719 L111.5312 101.75 Q112.5625 101.5 113.0938 100.9062 Q113.625 100.3125 113.625 99.4062 Q113.625 98.5938 113.1953 98.1328 Q112.7656 97.6719 112.0312 97.6719 Q111.3594 97.6719 110.9297 98.0547 Q110.5 98.4375 110.3906 99.1562 L109.8125 99.1562 L109.8125 97.6406 Z" style="fill:black; stroke:none;" /></g><g ID="li-1:6,13" style="fill:white; text-rendering:optimizeSpeed; font-family:'Serif'; stroke:white;"><rect height="10" style="stroke:none;" width="6" x="175" y="96" /><path d="M177.1094 105.3906 Q177.1094 105.0625 177.3359 104.8359 Q177.5625 104.6094 177.8906 104.6094 Q178.2188 104.6094 178.4453 104.8359 Q178.6719 105.0625 178.6719 105.3906 Q178.6719 105.7188 178.4453 105.9453 Q178.2188 106.1719 177.8906 106.1719 Q177.5625 106.1719 177.3359 105.9453 Q177.1094 105.7188 177.1094 105.3906 ZM175.8125 97.6406 Q176.4375 97.3594 177 97.2266 Q177.5625 97.0938 178.0469 97.0938 Q179.3438 97.0938 180.1016 97.7188 Q180.8594 98.3438 180.8594 99.4062 Q180.8594 100.5 180.2109 101.1953 Q179.5625 101.8906 178.25 102.1875 L178.25 103.6719 L177.5312 103.6719 L177.5312 101.75 Q178.5625 101.5 179.0938 100.9062 Q179.625 100.3125 179.625 99.4062 Q179.625 98.5938 179.1953 98.1328 Q178.7656 97.6719 178.0312 97.6719 Q177.3594 97.6719 176.9297 98.0547 Q176.5 98.4375 176.3906 99.1562 L175.8125 99.1562 L175.8125 97.6406 Z" style="fill:black; stroke:none;" /><rect height="10" style="stroke:none;" width="6" x="161" y="96" /><path d="M163.1094 105.3906 Q163.1094 105.0625 163.3359 104.8359 Q163.5625 104.6094 163.8906 104.6094 Q164.2188 104.6094 164.4453 104.8359 Q164.6719 105.0625 164.6719 105.3906 Q164.6719 105.7188 164.4453 105.9453 Q164.2188 106.1719 163.8906 106.1719 Q163.5625 106.1719 163.3359 105.9453 Q163.1094 105.7188 163.1094 105.3906 ZM161.8125 97.6406 Q162.4375 97.3594 163 97.2266 Q163.5625 97.0938 164.0469 97.0938 Q165.3438 97.0938 166.1016 97.7188 Q166.8594 98.3438 166.8594 99.4062 Q166.8594 100.5 166.2109 101.1953 Q165.5625 101.8906 164.25 102.1875 L164.25 103.6719 L163.5312 103.6719 L163.5312 101.75 Q164.5625 101.5 165.0938 100.9062 Q165.625 100.3125 165.625 99.4062 Q165.625 98.5938 165.1953 98.1328 Q164.7656 97.6719 164.0312 97.6719 Q163.3594 97.6719 162.9297 98.0547 Q162.5 98.4375 162.3906 99.1562 L161.8125 99.1562 L161.8125 97.6406 Z" style="fill:black; stroke:none;" /></g><g ID="li-1:4,5" style="fill:white; text-rendering:optimizeSpeed; font-family:'Serif'; stroke:white;"><rect height="10" style="stroke:none;" width="6" x="238" y="175" /><path d="M240.1094 184.3906 Q240.1094 184.0625 240.3359 183.8359 Q240.5625 183.6094 240.8906 183.6094 Q241.2188 183.6094 241.4453 183.8359 Q241.6719 184.0625 241.6719 184.3906 Q241.6719 184.7188 241.4453 184.9453 Q241.2188 185.1719 240.8906 185.1719 Q240.5625 185.1719 240.3359 184.9453 Q240.1094 184.7188 240.1094 184.3906 ZM238.8125 176.6406 Q239.4375 176.3594 240 176.2266 Q240.5625 176.0938 241.0469 176.0938 Q242.3438 176.0938 243.1016 176.7188 Q243.8594 177.3438 243.8594 178.4062 Q243.8594 179.5 243.2109 180.1953 Q242.5625 180.8906 241.25 181.1875 L241.25 182.6719 L240.5312 182.6719 L240.5312 180.75 Q241.5625 180.5 242.0938 179.9062 Q242.625 179.3125 242.625 178.4062 Q242.625 177.5938 242.1953 177.1328 Q241.7656 176.6719 241.0312 176.6719 Q240.3594 176.6719 239.9297 177.0547 Q239.5 177.4375 239.3906 178.1562 L238.8125 178.1562 L238.8125 176.6406 Z" style="fill:black; stroke:none;" /><rect height="10" style="stroke:none;" width="6" x="214" y="205" /><path d="M216.1094 214.3906 Q216.1094 214.0625 216.3359 213.8359 Q216.5625 213.6094 216.8906 213.6094 Q217.2188 213.6094 217.4453 213.8359 Q217.6719 214.0625 217.6719 214.3906 Q217.6719 214.7188 217.4453 214.9453 Q217.2188 215.1719 216.8906 215.1719 Q216.5625 215.1719 216.3359 214.9453 Q216.1094 214.7188 216.1094 214.3906 ZM214.8125 206.6406 Q215.4375 206.3594 216 206.2266 Q216.5625 206.0938 217.0469 206.0938 Q218.3438 206.0938 219.1016 206.7188 Q219.8594 207.3438 219.8594 208.4062 Q219.8594 209.5 219.2109 210.1953 Q218.5625 210.8906 217.25 211.1875 L217.25 212.6719 L216.5312 212.6719 L216.5312 210.75 Q217.5625 210.5 218.0938 209.9062 Q218.625 209.3125 218.625 208.4062 Q218.625 207.5938 218.1953 207.1328 Q217.7656 206.6719 217.0312 206.6719 Q216.3594 206.6719 215.9297 207.0547 Q215.5 207.4375 215.3906 208.1562 L214.8125 208.1562 L214.8125 206.6406 Z" style="fill:black; stroke:none;" /></g><g ID="li-1:4,6" style="fill:white; text-rendering:optimizeSpeed; font-family:'Serif'; stroke:white;"><rect height="10" style="stroke:none;" width="6" x="225" y="140" /><path d="M227.1094 149.3906 Q227.1094 149.0625 227.3359 148.8359 Q227.5625 148.6094 227.8906 148.6094 Q228.2188 148.6094 228.4453 148.8359 Q228.6719 149.0625 228.6719 149.3906 Q228.6719 149.7188 228.4453 149.9453 Q228.2188 150.1719 227.8906 150.1719 Q227.5625 150.1719 227.3359 149.9453 Q227.1094 149.7188 227.1094 149.3906 ZM225.8125 141.6406 Q226.4375 141.3594 227 141.2266 Q227.5625 141.0938 228.0469 141.0938 Q229.3438 141.0938 230.1016 141.7188 Q230.8594 142.3438 230.8594 143.4062 Q230.8594 144.5 230.2109 145.1953 Q229.5625 145.8906 228.25 146.1875 L228.25 147.6719 L227.5312 147.6719 L227.5312 145.75 Q228.5625 145.5 229.0938 144.9062 Q229.625 144.3125 229.625 143.4062 Q229.625 142.5938 229.1953 142.1328 Q228.7656 141.6719 228.0312 141.6719 Q227.3594 141.6719 226.9297 142.0547 Q226.5 142.4375 226.3906 143.1562 L225.8125 143.1562 L225.8125 141.6406 Z" style="fill:black; stroke:none;" /><rect height="10" style="stroke:none;" width="6" x="201" y="110" /><path d="M203.1094 119.3906 Q203.1094 119.0625 203.3359 118.8359 Q203.5625 118.6094 203.8906 118.6094 Q204.2188 118.6094 204.4453 118.8359 Q204.6719 119.0625 204.6719 119.3906 Q204.6719 119.7188 204.4453 119.9453 Q204.2188 120.1719 203.8906 120.1719 Q203.5625 120.1719 203.3359 119.9453 Q203.1094 119.7188 203.1094 119.3906 ZM201.8125 111.6406 Q202.4375 111.3594 203 111.2266 Q203.5625 111.0938 204.0469 111.0938 Q205.3438 111.0938 206.1016 111.7188 Q206.8594 112.3438 206.8594 113.4062 Q206.8594 114.5 206.2109 115.1953 Q205.5625 115.8906 204.25 116.1875 L204.25 117.6719 L203.5312 117.6719 L203.5312 115.75 Q204.5625 115.5 205.0938 114.9062 Q205.625 114.3125 205.625 113.4062 Q205.625 112.5938 205.1953 112.1328 Q204.7656 111.6719 204.0312 111.6719 Q203.3594 111.6719 202.9297 112.0547 Q202.5 112.4375 202.3906 113.1562 L201.8125 113.1562 L201.8125 111.6406 Z" style="fill:black; stroke:none;" /></g><g ID="li-1:2,4" style="fill:white; text-rendering:optimizeSpeed; font-family:'Serif'; stroke:white;"><rect height="10" style="stroke:none;" width="6" x="279" y="161" /><path d="M281.1094 170.3906 Q281.1094 170.0625 281.3359 169.8359 Q281.5625 169.6094 281.8906 169.6094 Q282.2188 169.6094 282.4453 169.8359 Q282.6719 170.0625 282.6719 170.3906 Q282.6719 170.7188 282.4453 170.9453 Q282.2188 171.1719 281.8906 171.1719 Q281.5625 171.1719 281.3359 170.9453 Q281.1094 170.7188 281.1094 170.3906 ZM279.8125 162.6406 Q280.4375 162.3594 281 162.2266 Q281.5625 162.0938 282.0469 162.0938 Q283.3438 162.0938 284.1016 162.7188 Q284.8594 163.3438 284.8594 164.4062 Q284.8594 165.5 284.2109 166.1953 Q283.5625 166.8906 282.25 167.1875 L282.25 168.6719 L281.5312 168.6719 L281.5312 166.75 Q282.5625 166.5 283.0938 165.9062 Q283.625 165.3125 283.625 164.4062 Q283.625 163.5938 283.1953 163.1328 Q282.7656 162.6719 282.0312 162.6719 Q281.3594 162.6719 280.9297 163.0547 Q280.5 163.4375 280.3906 164.1562 L279.8125 164.1562 L279.8125 162.6406 Z" style="fill:black; stroke:none;" /><rect height="10" style="stroke:none;" width="6" x="265" y="161" /><path d="M267.1094 170.3906 Q267.1094 170.0625 267.3359 169.8359 Q267.5625 169.6094 267.8906 169.6094 Q268.2188 169.6094 268.4453 169.8359 Q268.6719 170.0625 268.6719 170.3906 Q268.6719 170.7188 268.4453 170.9453 Q268.2188 171.1719 267.8906 171.1719 Q267.5625 171.1719 267.3359 170.9453 Q267.1094 170.7188 267.1094 170.3906 ZM265.8125 162.6406 Q266.4375 162.3594 267 162.2266 Q267.5625 162.0938 268.0469 162.0938 Q269.3438 162.0938 270.1016 162.7188 Q270.8594 163.3438 270.8594 164.4062 Q270.8594 165.5 270.2109 166.1953 Q269.5625 166.8906 268.25 167.1875 L268.25 168.6719 L267.5312 168.6719 L267.5312 166.75 Q268.5625 166.5 269.0938 165.9062 Q269.625 165.3125 269.625 164.4062 Q269.625 163.5938 269.1953 163.1328 Q268.7656 162.6719 268.0312 162.6719 Q267.3594 162.6719 266.9297 163.0547 Q266.5 163.4375 266.3906 164.1562 L265.8125 164.1562 L265.8125 162.6406 Z" style="fill:black; stroke:none;" /></g><g ID="r-1:3" style="fill:white; text-rendering:optimizeSpeed; stroke:white;" wurcs_mono_id="15"><polygon points=" 353 117 342 95 364 95" style="stroke:none; clip-path:url(#clipPath15);" /><rect height="22" style="clip-path:url(#clipPath15); fill:rgb(237,28,36); stroke:none;" width="22" x="342" y="95" /><rect height="22" style="clip-path:url(#clipPath15); fill:none; stroke:black;" width="22" x="342" y="95" /><polygon points=" 353 117 342 95 364 95" style="fill:none; stroke:black;" /></g><g ID="li-1:1,2" style="fill:white; text-rendering:optimizeSpeed; font-family:'Serif'; stroke:white;"><rect height="10" style="stroke:none;" width="6" x="331" y="161" /><path d="M333.1094 170.3906 Q333.1094 170.0625 333.3359 169.8359 Q333.5625 169.6094 333.8906 169.6094 Q334.2188 169.6094 334.4453 169.8359 Q334.6719 170.0625 334.6719 170.3906 Q334.6719 170.7188 334.4453 170.9453 Q334.2188 171.1719 333.8906 171.1719 Q333.5625 171.1719 333.3359 170.9453 Q333.1094 170.7188 333.1094 170.3906 ZM331.8125 162.6406 Q332.4375 162.3594 333 162.2266 Q333.5625 162.0938 334.0469 162.0938 Q335.3438 162.0938 336.1016 162.7188 Q336.8594 163.3438 336.8594 164.4062 Q336.8594 165.5 336.2109 166.1953 Q335.5625 166.8906 334.25 167.1875 L334.25 168.6719 L333.5312 168.6719 L333.5312 166.75 Q334.5625 166.5 335.0938 165.9062 Q335.625 165.3125 335.625 164.4062 Q335.625 163.5938 335.1953 163.1328 Q334.7656 162.6719 334.0312 162.6719 Q333.3594 162.6719 332.9297 163.0547 Q332.5 163.4375 332.3906 164.1562 L331.8125 164.1562 L331.8125 162.6406 Z" style="fill:black; stroke:none;" /><rect height="10" style="stroke:none;" width="6" x="317" y="161" /><path d="M319.1094 170.3906 Q319.1094 170.0625 319.3359 169.8359 Q319.5625 169.6094 319.8906 169.6094 Q320.2188 169.6094 320.4453 169.8359 Q320.6719 170.0625 320.6719 170.3906 Q320.6719 170.7188 320.4453 170.9453 Q320.2188 171.1719 319.8906 171.1719 Q319.5625 171.1719 319.3359 170.9453 Q319.1094 170.7188 319.1094 170.3906 ZM317.8125 162.6406 Q318.4375 162.3594 319 162.2266 Q319.5625 162.0938 320.0469 162.0938 Q321.3438 162.0938 322.1016 162.7188 Q322.8594 163.3438 322.8594 164.4062 Q322.8594 165.5 322.2109 166.1953 Q321.5625 166.8906 320.25 167.1875 L320.25 168.6719 L319.5312 168.6719 L319.5312 166.75 Q320.5625 166.5 321.0938 165.9062 Q321.625 165.3125 321.625 164.4062 Q321.625 163.5938 321.1953 163.1328 Q320.7656 162.6719 320.0312 162.6719 Q319.3594 162.6719 318.9297 163.0547 Q318.5 163.4375 318.3906 164.1562 L317.8125 164.1562 L317.8125 162.6406 Z" style="fill:black; stroke:none;" /></g><g ID="li-1:1,3" style="fill:white; text-rendering:optimizeSpeed; font-family:'Serif'; stroke:white;"><rect height="10" style="stroke:none;" width="6" x="342" y="134" /><path d="M344.1094 143.3906 Q344.1094 143.0625 344.3359 142.8359 Q344.5625 142.6094 344.8906 142.6094 Q345.2188 142.6094 345.4453 142.8359 Q345.6719 143.0625 345.6719 143.3906 Q345.6719 143.7188 345.4453 143.9453 Q345.2188 144.1719 344.8906 144.1719 Q344.5625 144.1719 344.3359 143.9453 Q344.1094 143.7188 344.1094 143.3906 ZM342.8125 135.6406 Q343.4375 135.3594 344 135.2266 Q344.5625 135.0938 345.0469 135.0938 Q346.3438 135.0938 347.1016 135.7188 Q347.8594 136.3438 347.8594 137.4062 Q347.8594 138.5 347.2109 139.1953 Q346.5625 139.8906 345.25 140.1875 L345.25 141.6719 L344.5312 141.6719 L344.5312 139.75 Q345.5625 139.5 346.0938 138.9062 Q346.625 138.3125 346.625 137.4062 Q346.625 136.5938 346.1953 136.1328 Q345.7656 135.6719 345.0312 135.6719 Q344.3594 135.6719 343.9297 136.0547 Q343.5 136.4375 343.3906 137.1562 L342.8125 137.1562 L342.8125 135.6406 Z" style="fill:black; stroke:none;" /><rect height="10" style="stroke:none;" width="6" x="342" y="120" /><path d="M344.1094 129.3906 Q344.1094 129.0625 344.3359 128.8359 Q344.5625 128.6094 344.8906 128.6094 Q345.2188 128.6094 345.4453 128.8359 Q345.6719 129.0625 345.6719 129.3906 Q345.6719 129.7188 345.4453 129.9453 Q345.2188 130.1719 344.8906 130.1719 Q344.5625 130.1719 344.3359 129.9453 Q344.1094 129.7188 344.1094 129.3906 ZM342.8125 121.6406 Q343.4375 121.3594 344 121.2266 Q344.5625 121.0938 345.0469 121.0938 Q346.3438 121.0938 347.1016 121.7188 Q347.8594 122.3438 347.8594 123.4062 Q347.8594 124.5 347.2109 125.1953 Q346.5625 125.8906 345.25 126.1875 L345.25 127.6719 L344.5312 127.6719 L344.5312 125.75 Q345.5625 125.5 346.0938 124.9062 Q346.625 124.3125 346.625 123.4062 Q346.625 122.5938 346.1953 122.1328 Q345.7656 121.6719 345.0312 121.6719 Q344.3594 121.6719 343.9297 122.0547 Q343.5 122.4375 343.3906 123.1562 L342.8125 123.1562 L342.8125 121.6406 Z" style="fill:black; stroke:none;" /></g></g></svg>