<svg xmlns="http://www.w3.org/2000/svg" style="fill-opacity:1; color-rendering:auto; color-interpolation:auto; text-rendering:auto; stroke:black; stroke-linecap:square; stroke-miterlimit:10; shape-rendering:auto; stroke-opacity:1; fill:black; stroke-dasharray:none; font-weight:normal; stroke-width:1; font-family:'Dialog'; font-style:normal; stroke-linejoin:miter; font-size:12px; stroke-dashoffset:0; image-rendering:auto;"><defs id="genericDefs" /><g><defs id="defs1"><clipPath clipPathUnits="userSpaceOnUse" id="clipPath1"><path d="M290 108 L312 108 L312 130 L290 130 L290 108 Z" /></clipPath><clipPath clipPathUnits="userSpaceOnUse" id="clipPath2"><path d="M260 145 C260 151.0751 255.0751 156 249 156 C242.9249 156 238 151.0751 238 145 C238 138.9249 242.9249 134 249 134 C255.0751 134 260 138.9249 260 145 Z" /></clipPath><clipPath clipPathUnits="userSpaceOnUse" id="clipPath3"><path d="M186 134 L208 134 L208 156 L186 156 L186 134 Z" /></clipPath><clipPath clipPathUnits="userSpaceOnUse" id="clipPath4"><path d="M156 145 C156 151.0751 151.0751 156 145 156 C138.9249 156 134 151.0751 134 145 C134 138.9249 138.9249 134 145 134 C151.0751 134 156 138.9249 156 145 Z" /></clipPath><clipPath clipPathUnits="userSpaceOnUse" id="clipPath5"><path d="M82 186 L104 186 L104 208 L82 208 L82 186 Z" /></clipPath><clipPath clipPathUnits="userSpaceOnUse" id="clipPath6"><path d="M52 197 C52 203.0751 47.0751 208 41 208 C34.9249 208 30 203.0751 30 197 C30 190.9249 34.9249 186 41 186 C47.0751 186 52 190.9249 52 197 Z" /></clipPath><clipPath clipPathUnits="userSpaceOnUse" id="clipPath7"><path d="M41 156 L30 134 L52 134 Z" style="fill-rule:evenodd;" /></clipPath><clipPath clipPathUnits="userSpaceOnUse" id="clipPath8"><path d="M82 82 L104 82 L104 104 L82 104 L82 82 Z" /></clipPath><clipPath clipPathUnits="userSpaceOnUse" id="clipPath9"><path d="M52 93 C52 99.0751 47.0751 104 41 104 C34.9249 104 30 99.0751 30 93 C30 86.9249 34.9249 82 41 82 C47.0751 82 52 86.9249 52 93 Z" /></clipPath><clipPath clipPathUnits="userSpaceOnUse" id="clipPath10"><path d="M41 52 L30 30 L52 30 Z" style="fill-rule:evenodd;" /></clipPath><clipPath clipPathUnits="userSpaceOnUse" id="clipPath11"><path d="M238 82 L260 82 L260 104 L238 104 L238 82 Z" /></clipPath><clipPath clipPathUnits="userSpaceOnUse" id="clipPath12"><path d="M208 93 C208 99.0751 203.0751 104 197 104 C190.9249 104 186 99.0751 186 93 C186 86.9249 190.9249 82 197 82 C203.0751 82 208 86.9249 208 93 Z" /></clipPath><clipPath clipPathUnits="userSpaceOnUse" id="clipPath13"><path d="M197 52 L186 30 L208 30 Z" style="fill-rule:evenodd;" /></clipPath></defs><g style="fill:white; text-rendering:optimizeSpeed; stroke:white;"><rect height="238" style="stroke:none;" width="342" x="0" y="0" /></g><g ID="l-1:1,2" style="text-rendering:optimizeSpeed;"><polygon points=" 301 119 249 145" style="fill:none;" /></g><g ID="l-1:1,3" style="text-rendering:optimizeSpeed;"><polygon points=" 301 119 249 93" style="fill:none;" /></g><g ID="r-1:1" style="fill:white; text-rendering:optimizeSpeed; stroke:white;" wurcs_mono_id="1"><rect height="22" style="clip-path:url(#clipPath1); stroke:none;" width="22" x="290" y="108" /><rect height="22" style="clip-path:url(#clipPath1); fill:rgb(255,212,0); stroke:none;" width="22" x="290" y="108" /><rect height="22" style="clip-path:url(#clipPath1); fill:none; stroke:black;" width="22" x="290" y="108" /><rect height="22" style="fill:none; stroke:black;" width="22" x="290" y="108" /></g><g style="font-style:italic; text-rendering:optimizeSpeed; font-size:10px; font-family:'SansSerif';"><path d="M302.0938 116.1562 Q301.375 116.1562 300.8359 116.7188 Q300.2969 117.2812 300.0781 118.2656 Q299.875 119.25 300.1719 119.8125 Q300.4688 120.375 301.2031 120.375 Q301.9219 120.375 302.4609 119.8125 Q303 119.25 303.2031 118.2656 Q303.4062 117.2969 303.1094 116.7266 Q302.8125 116.1562 302.0938 116.1562 ZM302.25 115.4062 Q303.4219 115.4062 303.9297 116.1641 Q304.4375 116.9219 304.1562 118.2656 Q303.875 119.6094 303.0391 120.375 Q302.2031 121.1406 301.0312 121.1406 Q299.8594 121.1406 299.3516 120.375 Q298.8438 119.6094 299.125 118.2656 Q299.4062 116.9219 300.2422 116.1641 Q301.0781 115.4062 302.25 115.4062 Z" style="stroke:none;" /></g><g ID="l-1:2,4" style="text-rendering:optimizeSpeed;"><polygon points=" 249 145 197 145" style="fill:none;" /></g><g ID="r-1:2" style="fill:white; text-rendering:optimizeSpeed; stroke:white;" wurcs_mono_id="2"><circle cx="249" cy="145" r="11" style="clip-path:url(#clipPath2); stroke:none;" /><rect height="22" style="clip-path:url(#clipPath2); fill:rgb(255,212,0); stroke:none;" width="22" x="238" y="134" /><rect height="22" style="clip-path:url(#clipPath2); fill:none; stroke:black;" width="22" x="238" y="134" /><circle cx="249" cy="145" r="11" style="fill:none; stroke:black;" /></g><g ID="l-1:4,5" style="text-rendering:optimizeSpeed;"><polygon points=" 197 145 145 145" style="fill:none;" /></g><g ID="r-1:4" style="fill:white; text-rendering:optimizeSpeed; stroke:white;" wurcs_mono_id="3"><rect height="22" style="clip-path:url(#clipPath3); stroke:none;" width="22" x="186" y="134" /><rect height="22" style="clip-path:url(#clipPath3); fill:rgb(0,144,188); stroke:none;" width="22" x="186" y="134" /><rect height="22" style="clip-path:url(#clipPath3); fill:none; stroke:black;" width="22" x="186" y="134" /><rect height="22" style="fill:none; stroke:black;" width="22" x="186" y="134" /></g><g ID="l-1:5,6" style="text-rendering:optimizeSpeed;"><polygon points=" 145 145 93 197" style="fill:none;" /></g><g ID="l-1:5,7" style="text-rendering:optimizeSpeed;"><polygon points=" 145 145 93 93" style="fill:none;" /></g><g ID="r-1:5" style="fill:white; text-rendering:optimizeSpeed; stroke:white;" wurcs_mono_id="4"><circle cx="145" cy="145" r="11" style="clip-path:url(#clipPath4); stroke:none;" /><rect height="22" style="clip-path:url(#clipPath4); fill:rgb(255,212,0); stroke:none;" width="22" x="134" y="134" /><rect height="22" style="clip-path:url(#clipPath4); fill:none; stroke:black;" width="22" x="134" y="134" /><circle cx="145" cy="145" r="11" style="fill:none; stroke:black;" /></g><g ID="l-1:6,8" style="text-rendering:optimizeSpeed;"><polygon points=" 93 197 41 197" style="fill:none;" /></g><g ID="r-1:6" style="fill:white; text-rendering:optimizeSpeed; stroke:white;" wurcs_mono_id="8"><rect height="22" style="clip-path:url(#clipPath5); stroke:none;" width="22" x="82" y="186" /><rect height="22" style="clip-path:url(#clipPath5); fill:rgb(0,144,188); stroke:none;" width="22" x="82" y="186" /><rect height="22" style="clip-path:url(#clipPath5); fill:none; stroke:black;" width="22" x="82" y="186" /><rect height="22" style="fill:none; stroke:black;" width="22" x="82" y="186" /></g><g ID="l-1:8,9" style="text-rendering:optimizeSpeed;"><polygon points=" 41 197 41 145" style="fill:none;" /></g><g ID="r-1:8" style="fill:white; text-rendering:optimizeSpeed; stroke:white;" wurcs_mono_id="9"><circle cx="41" cy="197" r="11" style="clip-path:url(#clipPath6); stroke:none;" /><rect height="22" style="clip-path:url(#clipPath6); fill:rgb(255,212,0); stroke:none;" width="22" x="30" y="186" /><rect height="22" style="clip-path:url(#clipPath6); fill:none; stroke:black;" width="22" x="30" y="186" /><circle cx="41" cy="197" r="11" style="fill:none; stroke:black;" /></g><g ID="r-1:9" style="fill:white; text-rendering:optimizeSpeed; stroke:white;" wurcs_mono_id="10"><polygon points=" 41 156 30 134 52 134" style="stroke:none; clip-path:url(#clipPath7);" /><rect height="22" style="clip-path:url(#clipPath7); fill:rgb(237,28,36); stroke:none;" width="22" x="30" y="134" /><rect height="22" style="clip-path:url(#clipPath7); fill:none; stroke:black;" width="22" x="30" y="134" /><polygon points=" 41 156 30 134 52 134" style="fill:none; stroke:black;" /></g><g ID="li-1:8,9" style="fill:white; text-rendering:optimizeSpeed; font-family:'Serif'; stroke:white;"><rect height="10" style="stroke:none;" width="6" x="30" y="173" /><path d="M32.1094 182.3906 Q32.1094 182.0625 32.3359 181.8359 Q32.5625 181.6094 32.8906 181.6094 Q33.2188 181.6094 33.4453 181.8359 Q33.6719 182.0625 33.6719 182.3906 Q33.6719 182.7188 33.4453 182.9453 Q33.2188 183.1719 32.8906 183.1719 Q32.5625 183.1719 32.3359 182.9453 Q32.1094 182.7188 32.1094 182.3906 ZM30.8125 174.6406 Q31.4375 174.3594 32 174.2266 Q32.5625 174.0938 33.0469 174.0938 Q34.3438 174.0938 35.1016 174.7188 Q35.8594 175.3438 35.8594 176.4062 Q35.8594 177.5 35.2109 178.1953 Q34.5625 178.8906 33.25 179.1875 L33.25 180.6719 L32.5312 180.6719 L32.5312 178.75 Q33.5625 178.5 34.0938 177.9062 Q34.625 177.3125 34.625 176.4062 Q34.625 175.5938 34.1953 175.1328 Q33.7656 174.6719 33.0312 174.6719 Q32.3594 174.6719 31.9297 175.0547 Q31.5 175.4375 31.3906 176.1562 L30.8125 176.1562 L30.8125 174.6406 Z" style="fill:black; stroke:none;" /><rect height="10" style="stroke:none;" width="6" x="30" y="159" /><path d="M32.1094 168.3906 Q32.1094 168.0625 32.3359 167.8359 Q32.5625 167.6094 32.8906 167.6094 Q33.2188 167.6094 33.4453 167.8359 Q33.6719 168.0625 33.6719 168.3906 Q33.6719 168.7188 33.4453 168.9453 Q33.2188 169.1719 32.8906 169.1719 Q32.5625 169.1719 32.3359 168.9453 Q32.1094 168.7188 32.1094 168.3906 ZM30.8125 160.6406 Q31.4375 160.3594 32 160.2266 Q32.5625 160.0938 33.0469 160.0938 Q34.3438 160.0938 35.1016 160.7188 Q35.8594 161.3438 35.8594 162.4062 Q35.8594 163.5 35.2109 164.1953 Q34.5625 164.8906 33.25 165.1875 L33.25 166.6719 L32.5312 166.6719 L32.5312 164.75 Q33.5625 164.5 34.0938 163.9062 Q34.625 163.3125 34.625 162.4062 Q34.625 161.5938 34.1953 161.1328 Q33.7656 160.6719 33.0312 160.6719 Q32.3594 160.6719 31.9297 161.0547 Q31.5 161.4375 31.3906 162.1562 L30.8125 162.1562 L30.8125 160.6406 Z" style="fill:black; stroke:none;" /></g><g ID="li-1:6,8" style="fill:white; text-rendering:optimizeSpeed; font-family:'Serif'; stroke:white;"><rect height="10" style="stroke:none;" width="6" x="71" y="200" /><path d="M73.1094 209.3906 Q73.1094 209.0625 73.3359 208.8359 Q73.5625 208.6094 73.8906 208.6094 Q74.2188 208.6094 74.4453 208.8359 Q74.6719 209.0625 74.6719 209.3906 Q74.6719 209.7188 74.4453 209.9453 Q74.2188 210.1719 73.8906 210.1719 Q73.5625 210.1719 73.3359 209.9453 Q73.1094 209.7188 73.1094 209.3906 ZM71.8125 201.6406 Q72.4375 201.3594 73 201.2266 Q73.5625 201.0938 74.0469 201.0938 Q75.3438 201.0938 76.1016 201.7188 Q76.8594 202.3438 76.8594 203.4062 Q76.8594 204.5 76.2109 205.1953 Q75.5625 205.8906 74.25 206.1875 L74.25 207.6719 L73.5312 207.6719 L73.5312 205.75 Q74.5625 205.5 75.0938 204.9062 Q75.625 204.3125 75.625 203.4062 Q75.625 202.5938 75.1953 202.1328 Q74.7656 201.6719 74.0312 201.6719 Q73.3594 201.6719 72.9297 202.0547 Q72.5 202.4375 72.3906 203.1562 L71.8125 203.1562 L71.8125 201.6406 Z" style="fill:black; stroke:none;" /><rect height="10" style="stroke:none;" width="6" x="57" y="200" /><path d="M59.1094 209.3906 Q59.1094 209.0625 59.3359 208.8359 Q59.5625 208.6094 59.8906 208.6094 Q60.2188 208.6094 60.4453 208.8359 Q60.6719 209.0625 60.6719 209.3906 Q60.6719 209.7188 60.4453 209.9453 Q60.2188 210.1719 59.8906 210.1719 Q59.5625 210.1719 59.3359 209.9453 Q59.1094 209.7188 59.1094 209.3906 ZM57.8125 201.6406 Q58.4375 201.3594 59 201.2266 Q59.5625 201.0938 60.0469 201.0938 Q61.3438 201.0938 62.1016 201.7188 Q62.8594 202.3438 62.8594 203.4062 Q62.8594 204.5 62.2109 205.1953 Q61.5625 205.8906 60.25 206.1875 L60.25 207.6719 L59.5312 207.6719 L59.5312 205.75 Q60.5625 205.5 61.0938 204.9062 Q61.625 204.3125 61.625 203.4062 Q61.625 202.5938 61.1953 202.1328 Q60.7656 201.6719 60.0312 201.6719 Q59.3594 201.6719 58.9297 202.0547 Q58.5 202.4375 58.3906 203.1562 L57.8125 203.1562 L57.8125 201.6406 Z" style="fill:black; stroke:none;" /></g><g ID="l-1:7,10" style="text-rendering:optimizeSpeed;"><polygon points=" 93 93 41 93" style="fill:none;" /></g><g ID="r-1:7" style="fill:white; text-rendering:optimizeSpeed; stroke:white;" wurcs_mono_id="5"><rect height="22" style="clip-path:url(#clipPath8); stroke:none;" width="22" x="82" y="82" /><rect height="22" style="clip-path:url(#clipPath8); fill:rgb(0,144,188); stroke:none;" width="22" x="82" y="82" /><rect height="22" style="clip-path:url(#clipPath8); fill:none; stroke:black;" width="22" x="82" y="82" /><rect height="22" style="fill:none; stroke:black;" width="22" x="82" y="82" /></g><g ID="l-1:10,11" style="text-rendering:optimizeSpeed;"><polygon points=" 41 93 41 41" style="fill:none;" /></g><g ID="r-1:10" style="fill:white; text-rendering:optimizeSpeed; stroke:white;" wurcs_mono_id="6"><circle cx="41" cy="93" r="11" style="clip-path:url(#clipPath9); stroke:none;" /><rect height="22" style="clip-path:url(#clipPath9); fill:rgb(255,212,0); stroke:none;" width="22" x="30" y="82" /><rect height="22" style="clip-path:url(#clipPath9); fill:none; stroke:black;" width="22" x="30" y="82" /><circle cx="41" cy="93" r="11" style="fill:none; stroke:black;" /></g><g ID="r-1:11" style="fill:white; text-rendering:optimizeSpeed; stroke:white;" wurcs_mono_id="7"><polygon points=" 41 52 30 30 52 30" style="stroke:none; clip-path:url(#clipPath10);" /><rect height="22" style="clip-path:url(#clipPath10); fill:rgb(237,28,36); stroke:none;" width="22" x="30" y="30" /><rect height="22" style="clip-path:url(#clipPath10); fill:none; stroke:black;" width="22" x="30" y="30" /><polygon points=" 41 52 30 30 52 30" style="fill:none; stroke:black;" /></g><g ID="li-1:10,11" style="fill:white; text-rendering:optimizeSpeed; font-family:'Serif'; stroke:white;"><rect height="10" style="stroke:none;" width="6" x="30" y="69" /><path d="M32.1094 78.3906 Q32.1094 78.0625 32.3359 77.8359 Q32.5625 77.6094 32.8906 77.6094 Q33.2188 77.6094 33.4453 77.8359 Q33.6719 78.0625 33.6719 78.3906 Q33.6719 78.7188 33.4453 78.9453 Q33.2188 79.1719 32.8906 79.1719 Q32.5625 79.1719 32.3359 78.9453 Q32.1094 78.7188 32.1094 78.3906 ZM30.8125 70.6406 Q31.4375 70.3594 32 70.2266 Q32.5625 70.0938 33.0469 70.0938 Q34.3438 70.0938 35.1016 70.7188 Q35.8594 71.3438 35.8594 72.4062 Q35.8594 73.5 35.2109 74.1953 Q34.5625 74.8906 33.25 75.1875 L33.25 76.6719 L32.5312 76.6719 L32.5312 74.75 Q33.5625 74.5 34.0938 73.9062 Q34.625 73.3125 34.625 72.4062 Q34.625 71.5938 34.1953 71.1328 Q33.7656 70.6719 33.0312 70.6719 Q32.3594 70.6719 31.9297 71.0547 Q31.5 71.4375 31.3906 72.1562 L30.8125 72.1562 L30.8125 70.6406 Z" style="fill:black; stroke:none;" /><rect height="10" style="stroke:none;" width="6" x="30" y="55" /><path d="M32.1094 64.3906 Q32.1094 64.0625 32.3359 63.8359 Q32.5625 63.6094 32.8906 63.6094 Q33.2188 63.6094 33.4453 63.8359 Q33.6719 64.0625 33.6719 64.3906 Q33.6719 64.7188 33.4453 64.9453 Q33.2188 65.1719 32.8906 65.1719 Q32.5625 65.1719 32.3359 64.9453 Q32.1094 64.7188 32.1094 64.3906 ZM30.8125 56.6406 Q31.4375 56.3594 32 56.2266 Q32.5625 56.0938 33.0469 56.0938 Q34.3438 56.0938 35.1016 56.7188 Q35.8594 57.3438 35.8594 58.4062 Q35.8594 59.5 35.2109 60.1953 Q34.5625 60.8906 33.25 61.1875 L33.25 62.6719 L32.5312 62.6719 L32.5312 60.75 Q33.5625 60.5 34.0938 59.9062 Q34.625 59.3125 34.625 58.4062 Q34.625 57.5938 34.1953 57.1328 Q33.7656 56.6719 33.0312 56.6719 Q32.3594 56.6719 31.9297 57.0547 Q31.5 57.4375 31.3906 58.1562 L30.8125 58.1562 L30.8125 56.6406 Z" style="fill:black; stroke:none;" /></g><g ID="li-1:7,10" style="fill:white; text-rendering:optimizeSpeed; font-family:'Serif'; stroke:white;"><rect height="10" style="stroke:none;" width="6" x="71" y="96" /><path d="M73.1094 105.3906 Q73.1094 105.0625 73.3359 104.8359 Q73.5625 104.6094 73.8906 104.6094 Q74.2188 104.6094 74.4453 104.8359 Q74.6719 105.0625 74.6719 105.3906 Q74.6719 105.7188 74.4453 105.9453 Q74.2188 106.1719 73.8906 106.1719 Q73.5625 106.1719 73.3359 105.9453 Q73.1094 105.7188 73.1094 105.3906 ZM71.8125 97.6406 Q72.4375 97.3594 73 97.2266 Q73.5625 97.0938 74.0469 97.0938 Q75.3438 97.0938 76.1016 97.7188 Q76.8594 98.3438 76.8594 99.4062 Q76.8594 100.5 76.2109 101.1953 Q75.5625 101.8906 74.25 102.1875 L74.25 103.6719 L73.5312 103.6719 L73.5312 101.75 Q74.5625 101.5 75.0938 100.9062 Q75.625 100.3125 75.625 99.4062 Q75.625 98.5938 75.1953 98.1328 Q74.7656 97.6719 74.0312 97.6719 Q73.3594 97.6719 72.9297 98.0547 Q72.5 98.4375 72.3906 99.1562 L71.8125 99.1562 L71.8125 97.6406 Z" style="fill:black; stroke:none;" /><rect height="10" style="stroke:none;" width="6" x="57" y="96" /><path d="M59.1094 105.3906 Q59.1094 105.0625 59.3359 104.8359 Q59.5625 104.6094 59.8906 104.6094 Q60.2188 104.6094 60.4453 104.8359 Q60.6719 105.0625 60.6719 105.3906 Q60.6719 105.7188 60.4453 105.9453 Q60.2188 106.1719 59.8906 106.1719 Q59.5625 106.1719 59.3359 105.9453 Q59.1094 105.7188 59.1094 105.3906 ZM57.8125 97.6406 Q58.4375 97.3594 59 97.2266 Q59.5625 97.0938 60.0469 97.0938 Q61.3438 97.0938 62.1016 97.7188 Q62.8594 98.3438 62.8594 99.4062 Q62.8594 100.5 62.2109 101.1953 Q61.5625 101.8906 60.25 102.1875 L60.25 103.6719 L59.5312 103.6719 L59.5312 101.75 Q60.5625 101.5 61.0938 100.9062 Q61.625 100.3125 61.625 99.4062 Q61.625 98.5938 61.1953 98.1328 Q60.7656 97.6719 60.0312 97.6719 Q59.3594 97.6719 58.9297 98.0547 Q58.5 98.4375 58.3906 99.1562 L57.8125 99.1562 L57.8125 97.6406 Z" style="fill:black; stroke:none;" /></g><g ID="li-1:5,6" style="fill:white; text-rendering:optimizeSpeed; font-family:'Serif'; stroke:white;"><rect height="10" style="stroke:none;" width="6" x="131" y="162" /><path d="M133.1094 171.3906 Q133.1094 171.0625 133.3359 170.8359 Q133.5625 170.6094 133.8906 170.6094 Q134.2188 170.6094 134.4453 170.8359 Q134.6719 171.0625 134.6719 171.3906 Q134.6719 171.7188 134.4453 171.9453 Q134.2188 172.1719 133.8906 172.1719 Q133.5625 172.1719 133.3359 171.9453 Q133.1094 171.7188 133.1094 171.3906 ZM131.8125 163.6406 Q132.4375 163.3594 133 163.2266 Q133.5625 163.0938 134.0469 163.0938 Q135.3438 163.0938 136.1016 163.7188 Q136.8594 164.3438 136.8594 165.4062 Q136.8594 166.5 136.2109 167.1953 Q135.5625 167.8906 134.25 168.1875 L134.25 169.6719 L133.5312 169.6719 L133.5312 167.75 Q134.5625 167.5 135.0938 166.9062 Q135.625 166.3125 135.625 165.4062 Q135.625 164.5938 135.1953 164.1328 Q134.7656 163.6719 134.0312 163.6719 Q133.3594 163.6719 132.9297 164.0547 Q132.5 164.4375 132.3906 165.1562 L131.8125 165.1562 L131.8125 163.6406 Z" style="fill:black; stroke:none;" /><rect height="10" style="stroke:none;" width="6" x="112" y="181" /><path d="M114.1094 190.3906 Q114.1094 190.0625 114.3359 189.8359 Q114.5625 189.6094 114.8906 189.6094 Q115.2188 189.6094 115.4453 189.8359 Q115.6719 190.0625 115.6719 190.3906 Q115.6719 190.7188 115.4453 190.9453 Q115.2188 191.1719 114.8906 191.1719 Q114.5625 191.1719 114.3359 190.9453 Q114.1094 190.7188 114.1094 190.3906 ZM112.8125 182.6406 Q113.4375 182.3594 114 182.2266 Q114.5625 182.0938 115.0469 182.0938 Q116.3438 182.0938 117.1016 182.7188 Q117.8594 183.3438 117.8594 184.4062 Q117.8594 185.5 117.2109 186.1953 Q116.5625 186.8906 115.25 187.1875 L115.25 188.6719 L114.5312 188.6719 L114.5312 186.75 Q115.5625 186.5 116.0938 185.9062 Q116.625 185.3125 116.625 184.4062 Q116.625 183.5938 116.1953 183.1328 Q115.7656 182.6719 115.0312 182.6719 Q114.3594 182.6719 113.9297 183.0547 Q113.5 183.4375 113.3906 184.1562 L112.8125 184.1562 L112.8125 182.6406 Z" style="fill:black; stroke:none;" /></g><g ID="li-1:5,7" style="fill:white; text-rendering:optimizeSpeed; font-family:'Serif'; stroke:white;"><rect height="10" style="stroke:none;" width="6" x="119" y="129" /><path d="M121.1094 138.3906 Q121.1094 138.0625 121.3359 137.8359 Q121.5625 137.6094 121.8906 137.6094 Q122.2188 137.6094 122.4453 137.8359 Q122.6719 138.0625 122.6719 138.3906 Q122.6719 138.7188 122.4453 138.9453 Q122.2188 139.1719 121.8906 139.1719 Q121.5625 139.1719 121.3359 138.9453 Q121.1094 138.7188 121.1094 138.3906 ZM119.8125 130.6406 Q120.4375 130.3594 121 130.2266 Q121.5625 130.0938 122.0469 130.0938 Q123.3438 130.0938 124.1016 130.7188 Q124.8594 131.3438 124.8594 132.4062 Q124.8594 133.5 124.2109 134.1953 Q123.5625 134.8906 122.25 135.1875 L122.25 136.6719 L121.5312 136.6719 L121.5312 134.75 Q122.5625 134.5 123.0938 133.9062 Q123.625 133.3125 123.625 132.4062 Q123.625 131.5938 123.1953 131.1328 Q122.7656 130.6719 122.0312 130.6719 Q121.3594 130.6719 120.9297 131.0547 Q120.5 131.4375 120.3906 132.1562 L119.8125 132.1562 L119.8125 130.6406 Z" style="fill:black; stroke:none;" /><rect height="10" style="stroke:none;" width="6" x="101" y="110" /><path d="M103.1094 119.3906 Q103.1094 119.0625 103.3359 118.8359 Q103.5625 118.6094 103.8906 118.6094 Q104.2188 118.6094 104.4453 118.8359 Q104.6719 119.0625 104.6719 119.3906 Q104.6719 119.7188 104.4453 119.9453 Q104.2188 120.1719 103.8906 120.1719 Q103.5625 120.1719 103.3359 119.9453 Q103.1094 119.7188 103.1094 119.3906 ZM101.8125 111.6406 Q102.4375 111.3594 103 111.2266 Q103.5625 111.0938 104.0469 111.0938 Q105.3438 111.0938 106.1016 111.7188 Q106.8594 112.3438 106.8594 113.4062 Q106.8594 114.5 106.2109 115.1953 Q105.5625 115.8906 104.25 116.1875 L104.25 117.6719 L103.5312 117.6719 L103.5312 115.75 Q104.5625 115.5 105.0938 114.9062 Q105.625 114.3125 105.625 113.4062 Q105.625 112.5938 105.1953 112.1328 Q104.7656 111.6719 104.0312 111.6719 Q103.3594 111.6719 102.9297 112.0547 Q102.5 112.4375 102.3906 113.1562 L101.8125 113.1562 L101.8125 111.6406 Z" style="fill:black; stroke:none;" /></g><g ID="li-1:4,5" style="fill:white; text-rendering:optimizeSpeed; font-family:'Serif'; stroke:white;"><rect height="10" style="stroke:none;" width="6" x="175" y="148" /><path d="M177.1094 157.3906 Q177.1094 157.0625 177.3359 156.8359 Q177.5625 156.6094 177.8906 156.6094 Q178.2188 156.6094 178.4453 156.8359 Q178.6719 157.0625 178.6719 157.3906 Q178.6719 157.7188 178.4453 157.9453 Q178.2188 158.1719 177.8906 158.1719 Q177.5625 158.1719 177.3359 157.9453 Q177.1094 157.7188 177.1094 157.3906 ZM175.8125 149.6406 Q176.4375 149.3594 177 149.2266 Q177.5625 149.0938 178.0469 149.0938 Q179.3438 149.0938 180.1016 149.7188 Q180.8594 150.3438 180.8594 151.4062 Q180.8594 152.5 180.2109 153.1953 Q179.5625 153.8906 178.25 154.1875 L178.25 155.6719 L177.5312 155.6719 L177.5312 153.75 Q178.5625 153.5 179.0938 152.9062 Q179.625 152.3125 179.625 151.4062 Q179.625 150.5938 179.1953 150.1328 Q178.7656 149.6719 178.0312 149.6719 Q177.3594 149.6719 176.9297 150.0547 Q176.5 150.4375 176.3906 151.1562 L175.8125 151.1562 L175.8125 149.6406 Z" style="fill:black; stroke:none;" /><rect height="10" style="stroke:none;" width="6" x="161" y="148" /><path d="M163.1094 157.3906 Q163.1094 157.0625 163.3359 156.8359 Q163.5625 156.6094 163.8906 156.6094 Q164.2188 156.6094 164.4453 156.8359 Q164.6719 157.0625 164.6719 157.3906 Q164.6719 157.7188 164.4453 157.9453 Q164.2188 158.1719 163.8906 158.1719 Q163.5625 158.1719 163.3359 157.9453 Q163.1094 157.7188 163.1094 157.3906 ZM161.8125 149.6406 Q162.4375 149.3594 163 149.2266 Q163.5625 149.0938 164.0469 149.0938 Q165.3438 149.0938 166.1016 149.7188 Q166.8594 150.3438 166.8594 151.4062 Q166.8594 152.5 166.2109 153.1953 Q165.5625 153.8906 164.25 154.1875 L164.25 155.6719 L163.5312 155.6719 L163.5312 153.75 Q164.5625 153.5 165.0938 152.9062 Q165.625 152.3125 165.625 151.4062 Q165.625 150.5938 165.1953 150.1328 Q164.7656 149.6719 164.0312 149.6719 Q163.3594 149.6719 162.9297 150.0547 Q162.5 150.4375 162.3906 151.1562 L161.8125 151.1562 L161.8125 149.6406 Z" style="fill:black; stroke:none;" /></g><g ID="li-1:2,4" style="fill:white; text-rendering:optimizeSpeed; font-family:'Serif'; stroke:white;"><rect height="10" style="stroke:none;" width="6" x="227" y="148" /><path d="M229.1094 157.3906 Q229.1094 157.0625 229.3359 156.8359 Q229.5625 156.6094 229.8906 156.6094 Q230.2188 156.6094 230.4453 156.8359 Q230.6719 157.0625 230.6719 157.3906 Q230.6719 157.7188 230.4453 157.9453 Q230.2188 158.1719 229.8906 158.1719 Q229.5625 158.1719 229.3359 157.9453 Q229.1094 157.7188 229.1094 157.3906 ZM227.8125 149.6406 Q228.4375 149.3594 229 149.2266 Q229.5625 149.0938 230.0469 149.0938 Q231.3438 149.0938 232.1016 149.7188 Q232.8594 150.3438 232.8594 151.4062 Q232.8594 152.5 232.2109 153.1953 Q231.5625 153.8906 230.25 154.1875 L230.25 155.6719 L229.5312 155.6719 L229.5312 153.75 Q230.5625 153.5 231.0938 152.9062 Q231.625 152.3125 231.625 151.4062 Q231.625 150.5938 231.1953 150.1328 Q230.7656 149.6719 230.0312 149.6719 Q229.3594 149.6719 228.9297 150.0547 Q228.5 150.4375 228.3906 151.1562 L227.8125 151.1562 L227.8125 149.6406 Z" style="fill:black; stroke:none;" /><rect height="10" style="stroke:none;" width="6" x="213" y="148" /><path d="M215.1094 157.3906 Q215.1094 157.0625 215.3359 156.8359 Q215.5625 156.6094 215.8906 156.6094 Q216.2188 156.6094 216.4453 156.8359 Q216.6719 157.0625 216.6719 157.3906 Q216.6719 157.7188 216.4453 157.9453 Q216.2188 158.1719 215.8906 158.1719 Q215.5625 158.1719 215.3359 157.9453 Q215.1094 157.7188 215.1094 157.3906 ZM213.8125 149.6406 Q214.4375 149.3594 215 149.2266 Q215.5625 149.0938 216.0469 149.0938 Q217.3438 149.0938 218.1016 149.7188 Q218.8594 150.3438 218.8594 151.4062 Q218.8594 152.5 218.2109 153.1953 Q217.5625 153.8906 216.25 154.1875 L216.25 155.6719 L215.5312 155.6719 L215.5312 153.75 Q216.5625 153.5 217.0938 152.9062 Q217.625 152.3125 217.625 151.4062 Q217.625 150.5938 217.1953 150.1328 Q216.7656 149.6719 216.0312 149.6719 Q215.3594 149.6719 214.9297 150.0547 Q214.5 150.4375 214.3906 151.1562 L213.8125 151.1562 L213.8125 149.6406 Z" style="fill:black; stroke:none;" /></g><g ID="l-1:3,12" style="text-rendering:optimizeSpeed;"><polygon points=" 249 93 197 93" style="fill:none;" /></g><g ID="r-1:3" style="fill:white; text-rendering:optimizeSpeed; stroke:white;" wurcs_mono_id="11"><rect height="22" style="clip-path:url(#clipPath11); stroke:none;" width="22" x="238" y="82" /><rect height="22" style="clip-path:url(#clipPath11); fill:rgb(0,144,188); stroke:none;" width="22" x="238" y="82" /><rect height="22" style="clip-path:url(#clipPath11); fill:none; stroke:black;" width="22" x="238" y="82" /><rect height="22" style="fill:none; stroke:black;" width="22" x="238" y="82" /></g><g ID="l-1:12,13" style="text-rendering:optimizeSpeed;"><polygon points=" 197 93 197 41" style="fill:none;" /></g><g ID="r-1:12" style="fill:white; text-rendering:optimizeSpeed; stroke:white;" wurcs_mono_id="12"><circle cx="197" cy="93" r="11" style="clip-path:url(#clipPath12); stroke:none;" /><rect height="22" style="clip-path:url(#clipPath12); fill:rgb(255,212,0); stroke:none;" width="22" x="186" y="82" /><rect height="22" style="clip-path:url(#clipPath12); fill:none; stroke:black;" width="22" x="186" y="82" /><circle cx="197" cy="93" r="11" style="fill:none; stroke:black;" /></g><g ID="r-1:13" style="fill:white; text-rendering:optimizeSpeed; stroke:white;" wurcs_mono_id="13"><polygon points=" 197 52 186 30 208 30" style="stroke:none; clip-path:url(#clipPath13);" /><rect height="22" style="clip-path:url(#clipPath13); fill:rgb(237,28,36); stroke:none;" width="22" x="186" y="30" /><rect height="22" style="clip-path:url(#clipPath13); fill:none; stroke:black;" width="22" x="186" y="30" /><polygon points=" 197 52 186 30 208 30" style="fill:none; stroke:black;" /></g><g ID="li-1:12,13" style="fill:white; text-rendering:optimizeSpeed; font-family:'Serif'; stroke:white;"><rect height="10" style="stroke:none;" width="6" x="186" y="69" /><path d="M188.1094 78.3906 Q188.1094 78.0625 188.3359 77.8359 Q188.5625 77.6094 188.8906 77.6094 Q189.2188 77.6094 189.4453 77.8359 Q189.6719 78.0625 189.6719 78.3906 Q189.6719 78.7188 189.4453 78.9453 Q189.2188 79.1719 188.8906 79.1719 Q188.5625 79.1719 188.3359 78.9453 Q188.1094 78.7188 188.1094 78.3906 ZM186.8125 70.6406 Q187.4375 70.3594 188 70.2266 Q188.5625 70.0938 189.0469 70.0938 Q190.3438 70.0938 191.1016 70.7188 Q191.8594 71.3438 191.8594 72.4062 Q191.8594 73.5 191.2109 74.1953 Q190.5625 74.8906 189.25 75.1875 L189.25 76.6719 L188.5312 76.6719 L188.5312 74.75 Q189.5625 74.5 190.0938 73.9062 Q190.625 73.3125 190.625 72.4062 Q190.625 71.5938 190.1953 71.1328 Q189.7656 70.6719 189.0312 70.6719 Q188.3594 70.6719 187.9297 71.0547 Q187.5 71.4375 187.3906 72.1562 L186.8125 72.1562 L186.8125 70.6406 Z" style="fill:black; stroke:none;" /><rect height="10" style="stroke:none;" width="6" x="186" y="55" /><path d="M188.1094 64.3906 Q188.1094 64.0625 188.3359 63.8359 Q188.5625 63.6094 188.8906 63.6094 Q189.2188 63.6094 189.4453 63.8359 Q189.6719 64.0625 189.6719 64.3906 Q189.6719 64.7188 189.4453 64.9453 Q189.2188 65.1719 188.8906 65.1719 Q188.5625 65.1719 188.3359 64.9453 Q188.1094 64.7188 188.1094 64.3906 ZM186.8125 56.6406 Q187.4375 56.3594 188 56.2266 Q188.5625 56.0938 189.0469 56.0938 Q190.3438 56.0938 191.1016 56.7188 Q191.8594 57.3438 191.8594 58.4062 Q191.8594 59.5 191.2109 60.1953 Q190.5625 60.8906 189.25 61.1875 L189.25 62.6719 L188.5312 62.6719 L188.5312 60.75 Q189.5625 60.5 190.0938 59.9062 Q190.625 59.3125 190.625 58.4062 Q190.625 57.5938 190.1953 57.1328 Q189.7656 56.6719 189.0312 56.6719 Q188.3594 56.6719 187.9297 57.0547 Q187.5 57.4375 187.3906 58.1562 L186.8125 58.1562 L186.8125 56.6406 Z" style="fill:black; stroke:none;" /></g><g ID="li-1:3,12" style="fill:white; text-rendering:optimizeSpeed; font-family:'Serif'; stroke:white;"><rect height="10" style="stroke:none;" width="6" x="227" y="96" /><path d="M229.1094 105.3906 Q229.1094 105.0625 229.3359 104.8359 Q229.5625 104.6094 229.8906 104.6094 Q230.2188 104.6094 230.4453 104.8359 Q230.6719 105.0625 230.6719 105.3906 Q230.6719 105.7188 230.4453 105.9453 Q230.2188 106.1719 229.8906 106.1719 Q229.5625 106.1719 229.3359 105.9453 Q229.1094 105.7188 229.1094 105.3906 ZM227.8125 97.6406 Q228.4375 97.3594 229 97.2266 Q229.5625 97.0938 230.0469 97.0938 Q231.3438 97.0938 232.1016 97.7188 Q232.8594 98.3438 232.8594 99.4062 Q232.8594 100.5 232.2109 101.1953 Q231.5625 101.8906 230.25 102.1875 L230.25 103.6719 L229.5312 103.6719 L229.5312 101.75 Q230.5625 101.5 231.0938 100.9062 Q231.625 100.3125 231.625 99.4062 Q231.625 98.5938 231.1953 98.1328 Q230.7656 97.6719 230.0312 97.6719 Q229.3594 97.6719 228.9297 98.0547 Q228.5 98.4375 228.3906 99.1562 L227.8125 99.1562 L227.8125 97.6406 Z" style="fill:black; stroke:none;" /><rect height="10" style="stroke:none;" width="6" x="213" y="96" /><path d="M215.1094 105.3906 Q215.1094 105.0625 215.3359 104.8359 Q215.5625 104.6094 215.8906 104.6094 Q216.2188 104.6094 216.4453 104.8359 Q216.6719 105.0625 216.6719 105.3906 Q216.6719 105.7188 216.4453 105.9453 Q216.2188 106.1719 215.8906 106.1719 Q215.5625 106.1719 215.3359 105.9453 Q215.1094 105.7188 215.1094 105.3906 ZM213.8125 97.6406 Q214.4375 97.3594 215 97.2266 Q215.5625 97.0938 216.0469 97.0938 Q217.3438 97.0938 218.1016 97.7188 Q218.8594 98.3438 218.8594 99.4062 Q218.8594 100.5 218.2109 101.1953 Q217.5625 101.8906 216.25 102.1875 L216.25 103.6719 L215.5312 103.6719 L215.5312 101.75 Q216.5625 101.5 217.0938 100.9062 Q217.625 100.3125 217.625 99.4062 Q217.625 98.5938 217.1953 98.1328 Q216.7656 97.6719 216.0312 97.6719 Q215.3594 97.6719 214.9297 98.0547 Q214.5 98.4375 214.3906 99.1562 L213.8125 99.1562 L213.8125 97.6406 Z" style="fill:black; stroke:none;" /></g><g ID="li-1:1,2" style="fill:white; text-rendering:optimizeSpeed; font-family:'Serif'; stroke:white;"><rect height="10" style="stroke:none;" width="6" x="283" y="130" /><path d="M285.1094 139.3906 Q285.1094 139.0625 285.3359 138.8359 Q285.5625 138.6094 285.8906 138.6094 Q286.2188 138.6094 286.4453 138.8359 Q286.6719 139.0625 286.6719 139.3906 Q286.6719 139.7188 286.4453 139.9453 Q286.2188 140.1719 285.8906 140.1719 Q285.5625 140.1719 285.3359 139.9453 Q285.1094 139.7188 285.1094 139.3906 ZM283.8125 131.6406 Q284.4375 131.3594 285 131.2266 Q285.5625 131.0938 286.0469 131.0938 Q287.3438 131.0938 288.1016 131.7188 Q288.8594 132.3438 288.8594 133.4062 Q288.8594 134.5 288.2109 135.1953 Q287.5625 135.8906 286.25 136.1875 L286.25 137.6719 L285.5312 137.6719 L285.5312 135.75 Q286.5625 135.5 287.0938 134.9062 Q287.625 134.3125 287.625 133.4062 Q287.625 132.5938 287.1953 132.1328 Q286.7656 131.6719 286.0312 131.6719 Q285.3594 131.6719 284.9297 132.0547 Q284.5 132.4375 284.3906 133.1562 L283.8125 133.1562 L283.8125 131.6406 Z" style="fill:black; stroke:none;" /><rect height="10" style="stroke:none;" width="6" x="267" y="138" /><path d="M269.1094 147.3906 Q269.1094 147.0625 269.3359 146.8359 Q269.5625 146.6094 269.8906 146.6094 Q270.2188 146.6094 270.4453 146.8359 Q270.6719 147.0625 270.6719 147.3906 Q270.6719 147.7188 270.4453 147.9453 Q270.2188 148.1719 269.8906 148.1719 Q269.5625 148.1719 269.3359 147.9453 Q269.1094 147.7188 269.1094 147.3906 ZM267.8125 139.6406 Q268.4375 139.3594 269 139.2266 Q269.5625 139.0938 270.0469 139.0938 Q271.3438 139.0938 272.1016 139.7188 Q272.8594 140.3438 272.8594 141.4062 Q272.8594 142.5 272.2109 143.1953 Q271.5625 143.8906 270.25 144.1875 L270.25 145.6719 L269.5312 145.6719 L269.5312 143.75 Q270.5625 143.5 271.0938 142.9062 Q271.625 142.3125 271.625 141.4062 Q271.625 140.5938 271.1953 140.1328 Q270.7656 139.6719 270.0312 139.6719 Q269.3594 139.6719 268.9297 140.0547 Q268.5 140.4375 268.3906 141.1562 L267.8125 141.1562 L267.8125 139.6406 Z" style="fill:black; stroke:none;" /></g><g ID="li-1:1,3" style="fill:white; text-rendering:optimizeSpeed; font-family:'Serif'; stroke:white;"><rect height="10" style="stroke:none;" width="6" x="276" y="112" /><path d="M278.1094 121.3906 Q278.1094 121.0625 278.3359 120.8359 Q278.5625 120.6094 278.8906 120.6094 Q279.2188 120.6094 279.4453 120.8359 Q279.6719 121.0625 279.6719 121.3906 Q279.6719 121.7188 279.4453 121.9453 Q279.2188 122.1719 278.8906 122.1719 Q278.5625 122.1719 278.3359 121.9453 Q278.1094 121.7188 278.1094 121.3906 ZM276.8125 113.6406 Q277.4375 113.3594 278 113.2266 Q278.5625 113.0938 279.0469 113.0938 Q280.3438 113.0938 281.1016 113.7188 Q281.8594 114.3438 281.8594 115.4062 Q281.8594 116.5 281.2109 117.1953 Q280.5625 117.8906 279.25 118.1875 L279.25 119.6719 L278.5312 119.6719 L278.5312 117.75 Q279.5625 117.5 280.0938 116.9062 Q280.625 116.3125 280.625 115.4062 Q280.625 114.5938 280.1953 114.1328 Q279.7656 113.6719 279.0312 113.6719 Q278.3594 113.6719 277.9297 114.0547 Q277.5 114.4375 277.3906 115.1562 L276.8125 115.1562 L276.8125 113.6406 Z" style="fill:black; stroke:none;" /><rect height="10" style="stroke:none;" width="6" x="260" y="104" /><path d="M262.1094 113.3906 Q262.1094 113.0625 262.3359 112.8359 Q262.5625 112.6094 262.8906 112.6094 Q263.2188 112.6094 263.4453 112.8359 Q263.6719 113.0625 263.6719 113.3906 Q263.6719 113.7188 263.4453 113.9453 Q263.2188 114.1719 262.8906 114.1719 Q262.5625 114.1719 262.3359 113.9453 Q262.1094 113.7188 262.1094 113.3906 ZM260.8125 105.6406 Q261.4375 105.3594 262 105.2266 Q262.5625 105.0938 263.0469 105.0938 Q264.3438 105.0938 265.1016 105.7188 Q265.8594 106.3438 265.8594 107.4062 Q265.8594 108.5 265.2109 109.1953 Q264.5625 109.8906 263.25 110.1875 L263.25 111.6719 L262.5312 111.6719 L262.5312 109.75 Q263.5625 109.5 264.0938 108.9062 Q264.625 108.3125 264.625 107.4062 Q264.625 106.5938 264.1953 106.1328 Q263.7656 105.6719 263.0312 105.6719 Q262.3594 105.6719 261.9297 106.0547 Q261.5 106.4375 261.3906 107.1562 L260.8125 107.1562 L260.8125 105.6406 Z" style="fill:black; stroke:none;" /></g></g></svg>