<svg xmlns="http://www.w3.org/2000/svg" style="fill-opacity:1; color-rendering:auto; color-interpolation:auto; text-rendering:auto; stroke:black; stroke-linecap:square; stroke-miterlimit:10; shape-rendering:auto; stroke-opacity:1; fill:black; stroke-dasharray:none; font-weight:normal; stroke-width:1; font-family:'Dialog'; font-style:normal; stroke-linejoin:miter; font-size:12px; stroke-dashoffset:0; image-rendering:auto;"><defs id="genericDefs" /><g><defs id="defs1"><clipPath clipPathUnits="userSpaceOnUse" id="clipPath1"><path d="M446 82 L468 82 L468 104 L446 104 L446 82 Z" /></clipPath><clipPath clipPathUnits="userSpaceOnUse" id="clipPath2"><path d="M394 82 L416 82 L416 104 L394 104 L394 82 Z" /></clipPath><clipPath clipPathUnits="userSpaceOnUse" id="clipPath3"><path d="M364 93 C364 99.0751 359.0751 104 353 104 C346.9249 104 342 99.0751 342 93 C342 86.9249 346.9249 82 353 82 C359.0751 82 364 86.9249 364 93 Z" /></clipPath><clipPath clipPathUnits="userSpaceOnUse" id="clipPath4"><path d="M312 132 C312 138.0751 307.0751 143 301 143 C294.9249 143 290 138.0751 290 132 C290 125.9249 294.9249 121 301 121 C307.0751 121 312 125.9249 312 132 Z" /></clipPath><clipPath clipPathUnits="userSpaceOnUse" id="clipPath5"><path d="M238 121 L260 121 L260 143 L238 143 L238 121 Z" /></clipPath><clipPath clipPathUnits="userSpaceOnUse" id="clipPath6"><path d="M208 132 C208 138.0751 203.0751 143 197 143 C190.9249 143 186 138.0751 186 132 C186 125.9249 190.9249 121 197 121 C203.0751 121 208 125.9249 208 132 Z" /></clipPath><clipPath clipPathUnits="userSpaceOnUse" id="clipPath7"><path d="M134 147 L156 147 L156 169 L134 169 L134 147 Z" /></clipPath><clipPath clipPathUnits="userSpaceOnUse" id="clipPath8"><path d="M82 147 L104 147 L104 169 L82 169 L82 147 Z" /></clipPath><clipPath clipPathUnits="userSpaceOnUse" id="clipPath9"><path d="M134 95 L156 95 L156 117 L134 117 L134 95 Z" /></clipPath><clipPath clipPathUnits="userSpaceOnUse" id="clipPath10"><path d="M104 106 C104 112.0751 99.0751 117 93 117 C86.9249 117 82 112.0751 82 106 C82 99.9249 86.9249 95 93 95 C99.0751 95 104 99.9249 104 106 Z" /></clipPath><clipPath clipPathUnits="userSpaceOnUse" id="clipPath11"><path d="M52 106 C52 112.0751 47.0751 117 41 117 C34.9249 117 30 112.0751 30 106 C30 99.9249 34.9249 95 41 95 C47.0751 95 52 99.9249 52 106 Z" /></clipPath><clipPath clipPathUnits="userSpaceOnUse" id="clipPath12"><path d="M312 54 C312 60.0751 307.0751 65 301 65 C294.9249 65 290 60.0751 290 54 C290 47.9249 294.9249 43 301 43 C307.0751 43 312 47.9249 312 54 Z" /></clipPath><clipPath clipPathUnits="userSpaceOnUse" id="clipPath13"><path d="M238 43 L260 43 L260 65 L238 65 L238 43 Z" /></clipPath><clipPath clipPathUnits="userSpaceOnUse" id="clipPath14"><path d="M208 54 C208 60.0751 203.0751 65 197 65 C190.9249 65 186 60.0751 186 54 C186 47.9249 190.9249 43 197 43 C203.0751 43 208 47.9249 208 54 Z" /></clipPath><clipPath clipPathUnits="userSpaceOnUse" id="clipPath15"><path d="M156 54 C156 60.0751 151.0751 65 145 65 C138.9249 65 134 60.0751 134 54 C134 47.9249 138.9249 43 145 43 C151.0751 43 156 47.9249 156 54 Z" /></clipPath><clipPath clipPathUnits="userSpaceOnUse" id="clipPath16"><path d="M457 52 L446 30 L468 30 Z" style="fill-rule:evenodd;" /></clipPath></defs><g style="fill:white; text-rendering:optimizeSpeed; stroke:white;"><rect height="199" style="stroke:none;" width="498" x="0" y="0" /></g><g ID="l-1:1,2" style="text-rendering:optimizeSpeed;"><polygon points=" 457 93 405 93" style="fill:none;" /></g><g ID="l-1:1,3" style="text-rendering:optimizeSpeed;"><polygon points=" 457 93 457 41" style="fill:none;" /></g><g ID="r-1:1" style="fill:white; text-rendering:optimizeSpeed; stroke:white;" wurcs_mono_id="1"><rect height="22" style="clip-path:url(#clipPath1); stroke:none;" width="22" x="446" y="82" /><rect height="22" style="clip-path:url(#clipPath1); fill:rgb(0,144,188); stroke:none;" width="22" x="446" y="82" /><rect height="22" style="clip-path:url(#clipPath1); fill:none; stroke:black;" width="22" x="446" y="82" /><rect height="22" style="fill:none; stroke:black;" width="22" x="446" y="82" /></g><g ID="l-1:2,4" style="text-rendering:optimizeSpeed;"><polygon points=" 405 93 353 93" style="fill:none;" /></g><g ID="r-1:2" style="fill:white; text-rendering:optimizeSpeed; stroke:white;" wurcs_mono_id="2"><rect height="22" style="clip-path:url(#clipPath2); stroke:none;" width="22" x="394" y="82" /><rect height="22" style="clip-path:url(#clipPath2); fill:rgb(0,144,188); stroke:none;" width="22" x="394" y="82" /><rect height="22" style="clip-path:url(#clipPath2); fill:none; stroke:black;" width="22" x="394" y="82" /><rect height="22" style="fill:none; stroke:black;" width="22" x="394" y="82" /></g><g ID="l-1:4,5" style="text-rendering:optimizeSpeed;"><polygon points=" 353 93 301 132" style="fill:none;" /></g><g ID="l-1:4,6" style="text-rendering:optimizeSpeed;"><polygon points=" 353 93 301 54" style="fill:none;" /></g><g ID="r-1:4" style="fill:white; text-rendering:optimizeSpeed; stroke:white;" wurcs_mono_id="3"><circle cx="353" cy="93" r="11" style="clip-path:url(#clipPath3); stroke:none;" /><rect height="22" style="clip-path:url(#clipPath3); fill:rgb(0,166,81); stroke:none;" width="22" x="342" y="82" /><rect height="22" style="clip-path:url(#clipPath3); fill:none; stroke:black;" width="22" x="342" y="82" /><circle cx="353" cy="93" r="11" style="fill:none; stroke:black;" /></g><g ID="l-1:5,7" style="text-rendering:optimizeSpeed;"><polygon points=" 301 132 249 132" style="fill:none;" /></g><g ID="r-1:5" style="fill:white; text-rendering:optimizeSpeed; stroke:white;" wurcs_mono_id="4"><circle cx="301" cy="132" r="11" style="clip-path:url(#clipPath4); stroke:none;" /><rect height="22" style="clip-path:url(#clipPath4); fill:rgb(0,166,81); stroke:none;" width="22" x="290" y="121" /><rect height="22" style="clip-path:url(#clipPath4); fill:none; stroke:black;" width="22" x="290" y="121" /><circle cx="301" cy="132" r="11" style="fill:none; stroke:black;" /></g><g ID="l-1:7,8" style="text-rendering:optimizeSpeed;"><polygon points=" 249 132 197 132" style="fill:none;" /></g><g ID="r-1:7" style="fill:white; text-rendering:optimizeSpeed; stroke:white;" wurcs_mono_id="5"><rect height="22" style="clip-path:url(#clipPath5); stroke:none;" width="22" x="238" y="121" /><rect height="22" style="clip-path:url(#clipPath5); fill:rgb(0,144,188); stroke:none;" width="22" x="238" y="121" /><rect height="22" style="clip-path:url(#clipPath5); fill:none; stroke:black;" width="22" x="238" y="121" /><rect height="22" style="fill:none; stroke:black;" width="22" x="238" y="121" /></g><g ID="l-1:8,9" style="text-rendering:optimizeSpeed;"><polygon points=" 197 132 145 158" style="fill:none;" /></g><g ID="l-1:8,10" style="text-rendering:optimizeSpeed;"><polygon points=" 197 132 145 106" style="fill:none;" /></g><g ID="r-1:8" style="fill:white; text-rendering:optimizeSpeed; stroke:white;" wurcs_mono_id="6"><circle cx="197" cy="132" r="11" style="clip-path:url(#clipPath6); stroke:none;" /><rect height="22" style="clip-path:url(#clipPath6); fill:rgb(255,212,0); stroke:none;" width="22" x="186" y="121" /><rect height="22" style="clip-path:url(#clipPath6); fill:none; stroke:black;" width="22" x="186" y="121" /><circle cx="197" cy="132" r="11" style="fill:none; stroke:black;" /></g><g ID="l-1:9,11" style="text-rendering:optimizeSpeed;"><polygon points=" 145 158 93 158" style="fill:none;" /></g><g ID="r-1:9" style="fill:white; text-rendering:optimizeSpeed; stroke:white;" wurcs_mono_id="7"><rect height="22" style="clip-path:url(#clipPath7); stroke:none;" width="22" x="134" y="147" /><rect height="22" style="clip-path:url(#clipPath7); fill:rgb(0,144,188); stroke:none;" width="22" x="134" y="147" /><rect height="22" style="clip-path:url(#clipPath7); fill:none; stroke:black;" width="22" x="134" y="147" /><rect height="22" style="fill:none; stroke:black;" width="22" x="134" y="147" /></g><g ID="r-1:11" style="fill:white; text-rendering:optimizeSpeed; stroke:white;" wurcs_mono_id="8"><rect height="22" style="clip-path:url(#clipPath8); stroke:none;" width="22" x="82" y="147" /><rect height="22" style="clip-path:url(#clipPath8); fill:rgb(0,144,188); stroke:none;" width="22" x="82" y="147" /><rect height="22" style="clip-path:url(#clipPath8); fill:none; stroke:black;" width="22" x="82" y="147" /><rect height="22" style="fill:none; stroke:black;" width="22" x="82" y="147" /></g><g ID="li-1:9,11" style="fill:white; text-rendering:optimizeSpeed; font-family:'Serif'; stroke:white;"><rect height="9" style="stroke:none;" width="8" x="122" y="161" /><path d="M126.1875 167.0312 L126.1875 162.375 L123.2031 167.0312 L126.1875 167.0312 ZM128.7656 170 L124.7812 170 L124.7812 169.375 L126.1875 169.375 L126.1875 167.6562 L122.375 167.6562 L122.375 167.0156 L126.2031 161.0938 L127.3594 161.0938 L127.3594 167.0312 L129.0312 167.0312 L129.0312 167.6562 L127.3594 167.6562 L127.3594 169.375 L128.7656 169.375 L128.7656 170 Z" style="fill:black; stroke:none;" /><rect height="13" style="stroke:none;" width="7" x="108" y="159" /><path d="M109.8281 171.25 Q110.2969 171.5938 111.1719 171.5938 Q112.0625 171.5938 112.5781 171.0703 Q113.0938 170.5469 113.0938 169.6562 Q113.0938 168.4219 112.5625 167.8906 Q112.0156 167.3594 111 167.3594 L110.4375 167.3594 L110.4375 166.7188 L110.7344 166.7188 Q111.4844 166.7188 112 166.2969 Q112.4219 165.9531 112.4219 165.0156 Q112.4219 164.6094 112.1406 164.1406 Q111.6875 163.375 111.1562 163.3906 Q109.8281 163.4375 109.8281 165.7812 L109.8281 171.25 ZM108.75 174.5 L108.75 165.7812 Q108.75 163.3281 110.0781 163 Q110.7656 162.8125 111.25 162.8125 Q112.3438 162.8125 113.0469 163.6719 Q113.6094 164.3594 113.6094 164.9375 Q113.6094 165.7812 113.2031 166.2656 Q112.7969 166.75 112.0625 166.9844 Q113.1406 167.1406 113.75 167.7812 Q114.3281 168.4062 114.3281 169.6328 Q114.3281 170.8594 113.5078 171.5156 Q112.6875 172.1719 111.1406 172.1719 Q110.1875 172.1719 109.8281 172.0312 L109.8281 174.5 L108.75 174.5 Z" style="fill:black; stroke:none;" /></g><g ID="l-1:10,12" style="text-rendering:optimizeSpeed;"><polygon points=" 145 106 93 106" style="fill:none;" /></g><g ID="r-1:10" style="fill:white; text-rendering:optimizeSpeed; stroke:white;" wurcs_mono_id="9"><rect height="22" style="clip-path:url(#clipPath9); stroke:none;" width="22" x="134" y="95" /><rect height="22" style="clip-path:url(#clipPath9); fill:rgb(0,144,188); stroke:none;" width="22" x="134" y="95" /><rect height="22" style="clip-path:url(#clipPath9); fill:none; stroke:black;" width="22" x="134" y="95" /><rect height="22" style="fill:none; stroke:black;" width="22" x="134" y="95" /></g><g ID="l-1:12,13" style="text-rendering:optimizeSpeed;"><polygon points=" 93 106 41 106" style="fill:none;" /></g><g ID="r-1:12" style="fill:white; text-rendering:optimizeSpeed; stroke:white;" wurcs_mono_id="10"><circle cx="93" cy="106" r="11" style="clip-path:url(#clipPath10); stroke:none;" /><rect height="22" style="clip-path:url(#clipPath10); fill:rgb(255,212,0); stroke:none;" width="22" x="82" y="95" /><rect height="22" style="clip-path:url(#clipPath10); fill:none; stroke:black;" width="22" x="82" y="95" /><circle cx="93" cy="106" r="11" style="fill:none; stroke:black;" /></g><g ID="r-1:13" style="fill:white; text-rendering:optimizeSpeed; stroke:white;" wurcs_mono_id="11"><circle cx="41" cy="106" r="11" style="clip-path:url(#clipPath11); stroke:none;" /><rect height="22" style="clip-path:url(#clipPath11); fill:rgb(255,212,0); stroke:none;" width="22" x="30" y="95" /><rect height="22" style="clip-path:url(#clipPath11); fill:none; stroke:black;" width="22" x="30" y="95" /><circle cx="41" cy="106" r="11" style="fill:none; stroke:black;" /></g><g ID="li-1:12,13" style="fill:white; text-rendering:optimizeSpeed; font-family:'Serif'; stroke:white;"><rect height="10" style="stroke:none;" width="7" x="70" y="109" /><path d="M71.1719 110.625 Q71.8594 110.3594 72.4844 110.2266 Q73.1094 110.0938 73.6562 110.0938 Q74.9531 110.0938 75.6719 110.6484 Q76.3906 111.2031 76.3906 112.1875 Q76.3906 112.9688 75.8906 113.5 Q75.3906 114.0312 74.4844 114.2188 Q75.5625 114.375 76.1562 115.0078 Q76.75 115.6406 76.75 116.6406 Q76.75 117.8594 75.9219 118.5156 Q75.0938 119.1719 73.5469 119.1719 Q72.8594 119.1719 72.2109 119.0234 Q71.5625 118.875 70.9219 118.5781 L70.9219 116.875 L71.5781 116.875 Q71.625 117.7188 72.1406 118.1562 Q72.6562 118.5938 73.5781 118.5938 Q74.4688 118.5938 74.9922 118.0703 Q75.5156 117.5469 75.5156 116.6562 Q75.5156 115.625 74.9766 115.0938 Q74.4375 114.5625 73.4062 114.5625 L72.8594 114.5625 L72.8594 113.9531 L73.1406 113.9531 Q74.1719 113.9531 74.6875 113.5312 Q75.2031 113.1094 75.2031 112.25 Q75.2031 111.4844 74.7812 111.0781 Q74.3594 110.6719 73.5625 110.6719 Q72.7656 110.6719 72.3359 111.0469 Q71.9062 111.4219 71.8281 112.1562 L71.1719 112.1562 L71.1719 110.625 Z" style="fill:black; stroke:none;" /><rect height="8" style="stroke:none;" width="8" x="56" y="110" /><path d="M61.1875 116.4688 L60.9531 117.1094 Q60.7656 117.625 60.2031 117.9375 Q59.8438 118.1562 59.2031 118.1406 Q58.0469 118.1406 57.3281 117.2344 Q56.5938 116.3281 56.5938 114.8594 Q56.5938 113.4219 57.3281 112.4844 Q58.0156 111.5938 59.4531 111.6094 Q60.4531 111.6094 60.9531 112 Q61.4062 112.3438 61.5781 113.0938 L61.625 113.3125 L61.8438 112.6719 Q62.0625 112.0469 62.6562 111.75 L63.25 111.75 L63.25 112.0938 Q62.6875 112.2656 62.5 112.8125 L61.8906 114.4844 L62.2969 116.2812 Q62.5 117.2031 62.7344 117.2969 Q63.0469 117.4375 63.7812 117 L63.7812 117.7188 Q62.5938 118.4062 61.75 117.6875 Q61.375 117.3594 61.2656 116.875 L61.1875 116.4688 ZM60.9219 115.3125 L60.5625 113.5938 Q60.2656 112.2188 59.4688 112.2188 Q58.7969 112.2031 58.2812 112.9375 Q57.8594 113.5156 57.8594 114.875 Q57.8594 116.1719 58.2812 116.8281 Q58.75 117.5469 59.5312 117.5 Q60.2031 117.4375 60.6875 116 L60.9219 115.3125 Z" style="fill:black; stroke:none;" /></g><g ID="li-1:10,12" style="fill:white; text-rendering:optimizeSpeed; font-family:'Serif'; stroke:white;"><rect height="9" style="stroke:none;" width="8" x="122" y="109" /><path d="M126.1875 115.0312 L126.1875 110.375 L123.2031 115.0312 L126.1875 115.0312 ZM128.7656 118 L124.7812 118 L124.7812 117.375 L126.1875 117.375 L126.1875 115.6562 L122.375 115.6562 L122.375 115.0156 L126.2031 109.0938 L127.3594 109.0938 L127.3594 115.0312 L129.0312 115.0312 L129.0312 115.6562 L127.3594 115.6562 L127.3594 117.375 L128.7656 117.375 L128.7656 118 Z" style="fill:black; stroke:none;" /><rect height="13" style="stroke:none;" width="7" x="108" y="107" /><path d="M109.8281 119.25 Q110.2969 119.5938 111.1719 119.5938 Q112.0625 119.5938 112.5781 119.0703 Q113.0938 118.5469 113.0938 117.6562 Q113.0938 116.4219 112.5625 115.8906 Q112.0156 115.3594 111 115.3594 L110.4375 115.3594 L110.4375 114.7188 L110.7344 114.7188 Q111.4844 114.7188 112 114.2969 Q112.4219 113.9531 112.4219 113.0156 Q112.4219 112.6094 112.1406 112.1406 Q111.6875 111.375 111.1562 111.3906 Q109.8281 111.4375 109.8281 113.7812 L109.8281 119.25 ZM108.75 122.5 L108.75 113.7812 Q108.75 111.3281 110.0781 111 Q110.7656 110.8125 111.25 110.8125 Q112.3438 110.8125 113.0469 111.6719 Q113.6094 112.3594 113.6094 112.9375 Q113.6094 113.7812 113.2031 114.2656 Q112.7969 114.75 112.0625 114.9844 Q113.1406 115.1406 113.75 115.7812 Q114.3281 116.4062 114.3281 117.6328 Q114.3281 118.8594 113.5078 119.5156 Q112.6875 120.1719 111.1406 120.1719 Q110.1875 120.1719 109.8281 120.0312 L109.8281 122.5 L108.75 122.5 Z" style="fill:black; stroke:none;" /></g><g ID="li-1:8,9" style="fill:white; text-rendering:optimizeSpeed; font-family:'Serif'; stroke:white;"><rect height="10" style="stroke:none;" width="7" x="178" y="143" /><path d="M179.1719 144.625 Q179.8594 144.3594 180.4844 144.2266 Q181.1094 144.0938 181.6562 144.0938 Q182.9531 144.0938 183.6719 144.6484 Q184.3906 145.2031 184.3906 146.1875 Q184.3906 146.9688 183.8906 147.5 Q183.3906 148.0312 182.4844 148.2188 Q183.5625 148.375 184.1562 149.0078 Q184.75 149.6406 184.75 150.6406 Q184.75 151.8594 183.9219 152.5156 Q183.0938 153.1719 181.5469 153.1719 Q180.8594 153.1719 180.2109 153.0234 Q179.5625 152.875 178.9219 152.5781 L178.9219 150.875 L179.5781 150.875 Q179.625 151.7188 180.1406 152.1562 Q180.6562 152.5938 181.5781 152.5938 Q182.4688 152.5938 182.9922 152.0703 Q183.5156 151.5469 183.5156 150.6562 Q183.5156 149.625 182.9766 149.0938 Q182.4375 148.5625 181.4062 148.5625 L180.8594 148.5625 L180.8594 147.9531 L181.1406 147.9531 Q182.1719 147.9531 182.6875 147.5312 Q183.2031 147.1094 183.2031 146.25 Q183.2031 145.4844 182.7812 145.0781 Q182.3594 144.6719 181.5625 144.6719 Q180.7656 144.6719 180.3359 145.0469 Q179.9062 145.4219 179.8281 146.1562 L179.1719 146.1562 L179.1719 144.625 Z" style="fill:black; stroke:none;" /><rect height="13" style="stroke:none;" width="7" x="163" y="149" /><path d="M164.8281 161.25 Q165.2969 161.5938 166.1719 161.5938 Q167.0625 161.5938 167.5781 161.0703 Q168.0938 160.5469 168.0938 159.6562 Q168.0938 158.4219 167.5625 157.8906 Q167.0156 157.3594 166 157.3594 L165.4375 157.3594 L165.4375 156.7188 L165.7344 156.7188 Q166.4844 156.7188 167 156.2969 Q167.4219 155.9531 167.4219 155.0156 Q167.4219 154.6094 167.1406 154.1406 Q166.6875 153.375 166.1562 153.3906 Q164.8281 153.4375 164.8281 155.7812 L164.8281 161.25 ZM163.75 164.5 L163.75 155.7812 Q163.75 153.3281 165.0781 153 Q165.7656 152.8125 166.25 152.8125 Q167.3438 152.8125 168.0469 153.6719 Q168.6094 154.3594 168.6094 154.9375 Q168.6094 155.7812 168.2031 156.2656 Q167.7969 156.75 167.0625 156.9844 Q168.1406 157.1406 168.75 157.7812 Q169.3281 158.4062 169.3281 159.6328 Q169.3281 160.8594 168.5078 161.5156 Q167.6875 162.1719 166.1406 162.1719 Q165.1875 162.1719 164.8281 162.0312 L164.8281 164.5 L163.75 164.5 Z" style="fill:black; stroke:none;" /></g><g ID="li-1:8,10" style="fill:white; text-rendering:optimizeSpeed; font-family:'Serif'; stroke:white;"><rect height="10" style="stroke:none;" width="7" x="171" y="125" /><path d="M174.9219 134.5938 Q175.75 134.5938 176.1953 133.9844 Q176.6406 133.375 176.6406 132.2344 Q176.6406 131.1094 176.1953 130.5 Q175.75 129.8906 174.9219 129.8906 Q174.0938 129.8906 173.6484 130.4766 Q173.2031 131.0625 173.2031 132.1719 Q173.2031 133.3281 173.6484 133.9609 Q174.0938 134.5938 174.9219 134.5938 ZM173.0156 130.1875 Q173.4219 129.75 173.9219 129.5312 Q174.4219 129.3125 175.0625 129.3125 Q176.3594 129.3125 177.1172 130.0938 Q177.875 130.875 177.875 132.2344 Q177.875 133.5625 177.0625 134.3672 Q176.25 135.1719 174.875 135.1719 Q173.3906 135.1719 172.5938 134.0625 Q171.7969 132.9531 171.7969 130.9062 Q171.7969 128.6094 172.7422 127.3516 Q173.6875 126.0938 175.4062 126.0938 Q175.875 126.0938 176.3828 126.1797 Q176.8906 126.2656 177.4219 126.4375 L177.4219 127.8906 L176.7656 127.8906 Q176.6875 127.2969 176.3047 126.9844 Q175.9219 126.6719 175.2812 126.6719 Q174.1406 126.6719 173.5859 127.5312 Q173.0312 128.3906 173.0156 130.1875 Z" style="fill:black; stroke:none;" /><rect height="13" style="stroke:none;" width="7" x="156" y="115" /><path d="M157.8281 127.25 Q158.2969 127.5938 159.1719 127.5938 Q160.0625 127.5938 160.5781 127.0703 Q161.0938 126.5469 161.0938 125.6562 Q161.0938 124.4219 160.5625 123.8906 Q160.0156 123.3594 159 123.3594 L158.4375 123.3594 L158.4375 122.7188 L158.7344 122.7188 Q159.4844 122.7188 160 122.2969 Q160.4219 121.9531 160.4219 121.0156 Q160.4219 120.6094 160.1406 120.1406 Q159.6875 119.375 159.1562 119.3906 Q157.8281 119.4375 157.8281 121.7812 L157.8281 127.25 ZM156.75 130.5 L156.75 121.7812 Q156.75 119.3281 158.0781 119 Q158.7656 118.8125 159.25 118.8125 Q160.3438 118.8125 161.0469 119.6719 Q161.6094 120.3594 161.6094 120.9375 Q161.6094 121.7812 161.2031 122.2656 Q160.7969 122.75 160.0625 122.9844 Q161.1406 123.1406 161.75 123.7812 Q162.3281 124.4062 162.3281 125.6328 Q162.3281 126.8594 161.5078 127.5156 Q160.6875 128.1719 159.1406 128.1719 Q158.1875 128.1719 157.8281 128.0312 L157.8281 130.5 L156.75 130.5 Z" style="fill:black; stroke:none;" /></g><g ID="li-1:7,8" style="fill:white; text-rendering:optimizeSpeed; font-family:'Serif'; stroke:white;"><rect height="9" style="stroke:none;" width="8" x="226" y="135" /><path d="M230.1875 141.0312 L230.1875 136.375 L227.2031 141.0312 L230.1875 141.0312 ZM232.7656 144 L228.7812 144 L228.7812 143.375 L230.1875 143.375 L230.1875 141.6562 L226.375 141.6562 L226.375 141.0156 L230.2031 135.0938 L231.3594 135.0938 L231.3594 141.0312 L233.0312 141.0312 L233.0312 141.6562 L231.3594 141.6562 L231.3594 143.375 L232.7656 143.375 L232.7656 144 Z" style="fill:black; stroke:none;" /><rect height="13" style="stroke:none;" width="7" x="212" y="133" /><path d="M213.8281 145.25 Q214.2969 145.5938 215.1719 145.5938 Q216.0625 145.5938 216.5781 145.0703 Q217.0938 144.5469 217.0938 143.6562 Q217.0938 142.4219 216.5625 141.8906 Q216.0156 141.3594 215 141.3594 L214.4375 141.3594 L214.4375 140.7188 L214.7344 140.7188 Q215.4844 140.7188 216 140.2969 Q216.4219 139.9531 216.4219 139.0156 Q216.4219 138.6094 216.1406 138.1406 Q215.6875 137.375 215.1562 137.3906 Q213.8281 137.4375 213.8281 139.7812 L213.8281 145.25 ZM212.75 148.5 L212.75 139.7812 Q212.75 137.3281 214.0781 137 Q214.7656 136.8125 215.25 136.8125 Q216.3438 136.8125 217.0469 137.6719 Q217.6094 138.3594 217.6094 138.9375 Q217.6094 139.7812 217.2031 140.2656 Q216.7969 140.75 216.0625 140.9844 Q217.1406 141.1406 217.75 141.7812 Q218.3281 142.4062 218.3281 143.6328 Q218.3281 144.8594 217.5078 145.5156 Q216.6875 146.1719 215.1406 146.1719 Q214.1875 146.1719 213.8281 146.0312 L213.8281 148.5 L212.75 148.5 Z" style="fill:black; stroke:none;" /></g><g ID="li-1:5,7" style="fill:white; text-rendering:optimizeSpeed; font-family:'Serif'; stroke:white;"><rect height="9" style="stroke:none;" width="7" x="278" y="135" /><path d="M279.5312 137.3438 L278.875 137.3438 L278.875 135.7812 Q279.5 135.4375 280.1406 135.2656 Q280.7812 135.0938 281.3906 135.0938 Q282.75 135.0938 283.5391 135.7578 Q284.3281 136.4219 284.3281 137.5469 Q284.3281 138.8438 282.5469 140.625 Q282.4062 140.7656 282.3281 140.8281 L280.125 143.0312 L283.7656 143.0312 L283.7656 141.9531 L284.4531 141.9531 L284.4531 144 L278.8125 144 L278.8125 143.3594 L281.4688 140.7188 Q282.3438 139.8281 282.7188 139.0938 Q283.0938 138.3594 283.0938 137.5469 Q283.0938 136.6719 282.6328 136.1719 Q282.1719 135.6719 281.375 135.6719 Q280.5312 135.6719 280.0781 136.0859 Q279.625 136.5 279.5312 137.3438 Z" style="fill:black; stroke:none;" /><rect height="13" style="stroke:none;" width="7" x="264" y="133" /><path d="M265.8281 145.25 Q266.2969 145.5938 267.1719 145.5938 Q268.0625 145.5938 268.5781 145.0703 Q269.0938 144.5469 269.0938 143.6562 Q269.0938 142.4219 268.5625 141.8906 Q268.0156 141.3594 267 141.3594 L266.4375 141.3594 L266.4375 140.7188 L266.7344 140.7188 Q267.4844 140.7188 268 140.2969 Q268.4219 139.9531 268.4219 139.0156 Q268.4219 138.6094 268.1406 138.1406 Q267.6875 137.375 267.1562 137.3906 Q265.8281 137.4375 265.8281 139.7812 L265.8281 145.25 ZM264.75 148.5 L264.75 139.7812 Q264.75 137.3281 266.0781 137 Q266.7656 136.8125 267.25 136.8125 Q268.3438 136.8125 269.0469 137.6719 Q269.6094 138.3594 269.6094 138.9375 Q269.6094 139.7812 269.2031 140.2656 Q268.7969 140.75 268.0625 140.9844 Q269.1406 141.1406 269.75 141.7812 Q270.3281 142.4062 270.3281 143.6328 Q270.3281 144.8594 269.5078 145.5156 Q268.6875 146.1719 267.1406 146.1719 Q266.1875 146.1719 265.8281 146.0312 L265.8281 148.5 L264.75 148.5 Z" style="fill:black; stroke:none;" /></g><g ID="l-1:6,14" style="text-rendering:optimizeSpeed;"><polygon points=" 301 54 249 54" style="fill:none;" /></g><g ID="r-1:6" style="fill:white; text-rendering:optimizeSpeed; stroke:white;" wurcs_mono_id="12"><circle cx="301" cy="54" r="11" style="clip-path:url(#clipPath12); stroke:none;" /><rect height="22" style="clip-path:url(#clipPath12); fill:rgb(0,166,81); stroke:none;" width="22" x="290" y="43" /><rect height="22" style="clip-path:url(#clipPath12); fill:none; stroke:black;" width="22" x="290" y="43" /><circle cx="301" cy="54" r="11" style="fill:none; stroke:black;" /></g><g ID="l-1:14,15" style="text-rendering:optimizeSpeed;"><polygon points=" 249 54 197 54" style="fill:none;" /></g><g ID="r-1:14" style="fill:white; text-rendering:optimizeSpeed; stroke:white;" wurcs_mono_id="13"><rect height="22" style="clip-path:url(#clipPath13); stroke:none;" width="22" x="238" y="43" /><rect height="22" style="clip-path:url(#clipPath13); fill:rgb(0,144,188); stroke:none;" width="22" x="238" y="43" /><rect height="22" style="clip-path:url(#clipPath13); fill:none; stroke:black;" width="22" x="238" y="43" /><rect height="22" style="fill:none; stroke:black;" width="22" x="238" y="43" /></g><g ID="l-1:15,16" style="text-rendering:optimizeSpeed;"><polygon points=" 197 54 145 54" style="fill:none;" /></g><g ID="r-1:15" style="fill:white; text-rendering:optimizeSpeed; stroke:white;" wurcs_mono_id="14"><circle cx="197" cy="54" r="11" style="clip-path:url(#clipPath14); stroke:none;" /><rect height="22" style="clip-path:url(#clipPath14); fill:rgb(255,212,0); stroke:none;" width="22" x="186" y="43" /><rect height="22" style="clip-path:url(#clipPath14); fill:none; stroke:black;" width="22" x="186" y="43" /><circle cx="197" cy="54" r="11" style="fill:none; stroke:black;" /></g><g ID="r-1:16" style="fill:white; text-rendering:optimizeSpeed; stroke:white;" wurcs_mono_id="15"><circle cx="145" cy="54" r="11" style="clip-path:url(#clipPath15); stroke:none;" /><rect height="22" style="clip-path:url(#clipPath15); fill:rgb(255,212,0); stroke:none;" width="22" x="134" y="43" /><rect height="22" style="clip-path:url(#clipPath15); fill:none; stroke:black;" width="22" x="134" y="43" /><circle cx="145" cy="54" r="11" style="fill:none; stroke:black;" /></g><g ID="li-1:15,16" style="fill:white; text-rendering:optimizeSpeed; font-family:'Serif'; stroke:white;"><rect height="10" style="stroke:none;" width="7" x="174" y="57" /><path d="M175.1719 58.625 Q175.8594 58.3594 176.4844 58.2266 Q177.1094 58.0938 177.6562 58.0938 Q178.9531 58.0938 179.6719 58.6484 Q180.3906 59.2031 180.3906 60.1875 Q180.3906 60.9688 179.8906 61.5 Q179.3906 62.0312 178.4844 62.2188 Q179.5625 62.375 180.1562 63.0078 Q180.75 63.6406 180.75 64.6406 Q180.75 65.8594 179.9219 66.5156 Q179.0938 67.1719 177.5469 67.1719 Q176.8594 67.1719 176.2109 67.0234 Q175.5625 66.875 174.9219 66.5781 L174.9219 64.875 L175.5781 64.875 Q175.625 65.7188 176.1406 66.1562 Q176.6562 66.5938 177.5781 66.5938 Q178.4688 66.5938 178.9922 66.0703 Q179.5156 65.5469 179.5156 64.6562 Q179.5156 63.625 178.9766 63.0938 Q178.4375 62.5625 177.4062 62.5625 L176.8594 62.5625 L176.8594 61.9531 L177.1406 61.9531 Q178.1719 61.9531 178.6875 61.5312 Q179.2031 61.1094 179.2031 60.25 Q179.2031 59.4844 178.7812 59.0781 Q178.3594 58.6719 177.5625 58.6719 Q176.7656 58.6719 176.3359 59.0469 Q175.9062 59.4219 175.8281 60.1562 L175.1719 60.1562 L175.1719 58.625 Z" style="fill:black; stroke:none;" /><rect height="8" style="stroke:none;" width="8" x="160" y="58" /><path d="M165.1875 64.4688 L164.9531 65.1094 Q164.7656 65.625 164.2031 65.9375 Q163.8438 66.1562 163.2031 66.1406 Q162.0469 66.1406 161.3281 65.2344 Q160.5938 64.3281 160.5938 62.8594 Q160.5938 61.4219 161.3281 60.4844 Q162.0156 59.5938 163.4531 59.6094 Q164.4531 59.6094 164.9531 60 Q165.4062 60.3438 165.5781 61.0938 L165.625 61.3125 L165.8438 60.6719 Q166.0625 60.0469 166.6562 59.75 L167.25 59.75 L167.25 60.0938 Q166.6875 60.2656 166.5 60.8125 L165.8906 62.4844 L166.2969 64.2812 Q166.5 65.2031 166.7344 65.2969 Q167.0469 65.4375 167.7812 65 L167.7812 65.7188 Q166.5938 66.4062 165.75 65.6875 Q165.375 65.3594 165.2656 64.875 L165.1875 64.4688 ZM164.9219 63.3125 L164.5625 61.5938 Q164.2656 60.2188 163.4688 60.2188 Q162.7969 60.2031 162.2812 60.9375 Q161.8594 61.5156 161.8594 62.875 Q161.8594 64.1719 162.2812 64.8281 Q162.75 65.5469 163.5312 65.5 Q164.2031 65.4375 164.6875 64 L164.9219 63.3125 Z" style="fill:black; stroke:none;" /></g><g ID="li-1:14,15" style="fill:white; text-rendering:optimizeSpeed; font-family:'Serif'; stroke:white;"><rect height="9" style="stroke:none;" width="8" x="226" y="57" /><path d="M230.1875 63.0312 L230.1875 58.375 L227.2031 63.0312 L230.1875 63.0312 ZM232.7656 66 L228.7812 66 L228.7812 65.375 L230.1875 65.375 L230.1875 63.6562 L226.375 63.6562 L226.375 63.0156 L230.2031 57.0938 L231.3594 57.0938 L231.3594 63.0312 L233.0312 63.0312 L233.0312 63.6562 L231.3594 63.6562 L231.3594 65.375 L232.7656 65.375 L232.7656 66 Z" style="fill:black; stroke:none;" /><rect height="13" style="stroke:none;" width="7" x="212" y="55" /><path d="M213.8281 67.25 Q214.2969 67.5938 215.1719 67.5938 Q216.0625 67.5938 216.5781 67.0703 Q217.0938 66.5469 217.0938 65.6562 Q217.0938 64.4219 216.5625 63.8906 Q216.0156 63.3594 215 63.3594 L214.4375 63.3594 L214.4375 62.7188 L214.7344 62.7188 Q215.4844 62.7188 216 62.2969 Q216.4219 61.9531 216.4219 61.0156 Q216.4219 60.6094 216.1406 60.1406 Q215.6875 59.375 215.1562 59.3906 Q213.8281 59.4375 213.8281 61.7812 L213.8281 67.25 ZM212.75 70.5 L212.75 61.7812 Q212.75 59.3281 214.0781 59 Q214.7656 58.8125 215.25 58.8125 Q216.3438 58.8125 217.0469 59.6719 Q217.6094 60.3594 217.6094 60.9375 Q217.6094 61.7812 217.2031 62.2656 Q216.7969 62.75 216.0625 62.9844 Q217.1406 63.1406 217.75 63.7812 Q218.3281 64.4062 218.3281 65.6328 Q218.3281 66.8594 217.5078 67.5156 Q216.6875 68.1719 215.1406 68.1719 Q214.1875 68.1719 213.8281 68.0312 L213.8281 70.5 L212.75 70.5 Z" style="fill:black; stroke:none;" /></g><g ID="li-1:6,14" style="fill:white; text-rendering:optimizeSpeed; font-family:'Serif'; stroke:white;"><rect height="9" style="stroke:none;" width="7" x="278" y="57" /><path d="M279.5312 59.3438 L278.875 59.3438 L278.875 57.7812 Q279.5 57.4375 280.1406 57.2656 Q280.7812 57.0938 281.3906 57.0938 Q282.75 57.0938 283.5391 57.7578 Q284.3281 58.4219 284.3281 59.5469 Q284.3281 60.8438 282.5469 62.625 Q282.4062 62.7656 282.3281 62.8281 L280.125 65.0312 L283.7656 65.0312 L283.7656 63.9531 L284.4531 63.9531 L284.4531 66 L278.8125 66 L278.8125 65.3594 L281.4688 62.7188 Q282.3438 61.8281 282.7188 61.0938 Q283.0938 60.3594 283.0938 59.5469 Q283.0938 58.6719 282.6328 58.1719 Q282.1719 57.6719 281.375 57.6719 Q280.5312 57.6719 280.0781 58.0859 Q279.625 58.5 279.5312 59.3438 Z" style="fill:black; stroke:none;" /><rect height="13" style="stroke:none;" width="7" x="264" y="55" /><path d="M265.8281 67.25 Q266.2969 67.5938 267.1719 67.5938 Q268.0625 67.5938 268.5781 67.0703 Q269.0938 66.5469 269.0938 65.6562 Q269.0938 64.4219 268.5625 63.8906 Q268.0156 63.3594 267 63.3594 L266.4375 63.3594 L266.4375 62.7188 L266.7344 62.7188 Q267.4844 62.7188 268 62.2969 Q268.4219 61.9531 268.4219 61.0156 Q268.4219 60.6094 268.1406 60.1406 Q267.6875 59.375 267.1562 59.3906 Q265.8281 59.4375 265.8281 61.7812 L265.8281 67.25 ZM264.75 70.5 L264.75 61.7812 Q264.75 59.3281 266.0781 59 Q266.7656 58.8125 267.25 58.8125 Q268.3438 58.8125 269.0469 59.6719 Q269.6094 60.3594 269.6094 60.9375 Q269.6094 61.7812 269.2031 62.2656 Q268.7969 62.75 268.0625 62.9844 Q269.1406 63.1406 269.75 63.7812 Q270.3281 64.4062 270.3281 65.6328 Q270.3281 66.8594 269.5078 67.5156 Q268.6875 68.1719 267.1406 68.1719 Q266.1875 68.1719 265.8281 68.0312 L265.8281 70.5 L264.75 70.5 Z" style="fill:black; stroke:none;" /></g><g ID="li-1:4,5" style="fill:white; text-rendering:optimizeSpeed; font-family:'Serif'; stroke:white;"><rect height="10" style="stroke:none;" width="7" x="336" y="107" /><path d="M337.1719 108.625 Q337.8594 108.3594 338.4844 108.2266 Q339.1094 108.0938 339.6562 108.0938 Q340.9531 108.0938 341.6719 108.6484 Q342.3906 109.2031 342.3906 110.1875 Q342.3906 110.9688 341.8906 111.5 Q341.3906 112.0312 340.4844 112.2188 Q341.5625 112.375 342.1562 113.0078 Q342.75 113.6406 342.75 114.6406 Q342.75 115.8594 341.9219 116.5156 Q341.0938 117.1719 339.5469 117.1719 Q338.8594 117.1719 338.2109 117.0234 Q337.5625 116.875 336.9219 116.5781 L336.9219 114.875 L337.5781 114.875 Q337.625 115.7188 338.1406 116.1562 Q338.6562 116.5938 339.5781 116.5938 Q340.4688 116.5938 340.9922 116.0703 Q341.5156 115.5469 341.5156 114.6562 Q341.5156 113.625 340.9766 113.0938 Q340.4375 112.5625 339.4062 112.5625 L338.8594 112.5625 L338.8594 111.9531 L339.1406 111.9531 Q340.1719 111.9531 340.6875 111.5312 Q341.2031 111.1094 341.2031 110.25 Q341.2031 109.4844 340.7812 109.0781 Q340.3594 108.6719 339.5625 108.6719 Q338.7656 108.6719 338.3359 109.0469 Q337.9062 109.4219 337.8281 110.1562 L337.1719 110.1562 L337.1719 108.625 Z" style="fill:black; stroke:none;" /><rect height="8" style="stroke:none;" width="8" x="319" y="121" /><path d="M324.1875 127.4688 L323.9531 128.1094 Q323.7656 128.625 323.2031 128.9375 Q322.8438 129.1562 322.2031 129.1406 Q321.0469 129.1406 320.3281 128.2344 Q319.5938 127.3281 319.5938 125.8594 Q319.5938 124.4219 320.3281 123.4844 Q321.0156 122.5938 322.4531 122.6094 Q323.4531 122.6094 323.9531 123 Q324.4062 123.3438 324.5781 124.0938 L324.625 124.3125 L324.8438 123.6719 Q325.0625 123.0469 325.6562 122.75 L326.25 122.75 L326.25 123.0938 Q325.6875 123.2656 325.5 123.8125 L324.8906 125.4844 L325.2969 127.2812 Q325.5 128.2031 325.7344 128.2969 Q326.0469 128.4375 326.7812 128 L326.7812 128.7188 Q325.5938 129.4062 324.75 128.6875 Q324.375 128.3594 324.2656 127.875 L324.1875 127.4688 ZM323.9219 126.3125 L323.5625 124.5938 Q323.2656 123.2188 322.4688 123.2188 Q321.7969 123.2031 321.2812 123.9375 Q320.8594 124.5156 320.8594 125.875 Q320.8594 127.1719 321.2812 127.8281 Q321.75 128.5469 322.5312 128.5 Q323.2031 128.4375 323.6875 127 L323.9219 126.3125 Z" style="fill:black; stroke:none;" /></g><g ID="li-1:4,6" style="fill:white; text-rendering:optimizeSpeed; font-family:'Serif'; stroke:white;"><rect height="10" style="stroke:none;" width="7" x="327" y="81" /><path d="M330.9219 90.5938 Q331.75 90.5938 332.1953 89.9844 Q332.6406 89.375 332.6406 88.2344 Q332.6406 87.1094 332.1953 86.5 Q331.75 85.8906 330.9219 85.8906 Q330.0938 85.8906 329.6484 86.4766 Q329.2031 87.0625 329.2031 88.1719 Q329.2031 89.3281 329.6484 89.9609 Q330.0938 90.5938 330.9219 90.5938 ZM329.0156 86.1875 Q329.4219 85.75 329.9219 85.5312 Q330.4219 85.3125 331.0625 85.3125 Q332.3594 85.3125 333.1172 86.0938 Q333.875 86.875 333.875 88.2344 Q333.875 89.5625 333.0625 90.3672 Q332.25 91.1719 330.875 91.1719 Q329.3906 91.1719 328.5938 90.0625 Q327.7969 88.9531 327.7969 86.9062 Q327.7969 84.6094 328.7422 83.3516 Q329.6875 82.0938 331.4062 82.0938 Q331.875 82.0938 332.3828 82.1797 Q332.8906 82.2656 333.4219 82.4375 L333.4219 83.8906 L332.7656 83.8906 Q332.6875 83.2969 332.3047 82.9844 Q331.9219 82.6719 331.2812 82.6719 Q330.1406 82.6719 329.5859 83.5312 Q329.0312 84.3906 329.0156 86.1875 Z" style="fill:black; stroke:none;" /><rect height="8" style="stroke:none;" width="8" x="309" y="69" /><path d="M314.1875 75.4688 L313.9531 76.1094 Q313.7656 76.625 313.2031 76.9375 Q312.8438 77.1562 312.2031 77.1406 Q311.0469 77.1406 310.3281 76.2344 Q309.5938 75.3281 309.5938 73.8594 Q309.5938 72.4219 310.3281 71.4844 Q311.0156 70.5938 312.4531 70.6094 Q313.4531 70.6094 313.9531 71 Q314.4062 71.3438 314.5781 72.0938 L314.625 72.3125 L314.8438 71.6719 Q315.0625 71.0469 315.6562 70.75 L316.25 70.75 L316.25 71.0938 Q315.6875 71.2656 315.5 71.8125 L314.8906 73.4844 L315.2969 75.2812 Q315.5 76.2031 315.7344 76.2969 Q316.0469 76.4375 316.7812 76 L316.7812 76.7188 Q315.5938 77.4062 314.75 76.6875 Q314.375 76.3594 314.2656 75.875 L314.1875 75.4688 ZM313.9219 74.3125 L313.5625 72.5938 Q313.2656 71.2188 312.4688 71.2188 Q311.7969 71.2031 311.2812 71.9375 Q310.8594 72.5156 310.8594 73.875 Q310.8594 75.1719 311.2812 75.8281 Q311.75 76.5469 312.5312 76.5 Q313.2031 76.4375 313.6875 75 L313.9219 74.3125 Z" style="fill:black; stroke:none;" /></g><g ID="li-1:2,4" style="fill:white; text-rendering:optimizeSpeed; font-family:'Serif'; stroke:white;"><rect height="9" style="stroke:none;" width="8" x="382" y="96" /><path d="M386.1875 102.0312 L386.1875 97.375 L383.2031 102.0312 L386.1875 102.0312 ZM388.7656 105 L384.7812 105 L384.7812 104.375 L386.1875 104.375 L386.1875 102.6562 L382.375 102.6562 L382.375 102.0156 L386.2031 96.0938 L387.3594 96.0938 L387.3594 102.0312 L389.0312 102.0312 L389.0312 102.6562 L387.3594 102.6562 L387.3594 104.375 L388.7656 104.375 L388.7656 105 Z" style="fill:black; stroke:none;" /><rect height="13" style="stroke:none;" width="7" x="368" y="94" /><path d="M369.8281 106.25 Q370.2969 106.5938 371.1719 106.5938 Q372.0625 106.5938 372.5781 106.0703 Q373.0938 105.5469 373.0938 104.6562 Q373.0938 103.4219 372.5625 102.8906 Q372.0156 102.3594 371 102.3594 L370.4375 102.3594 L370.4375 101.7188 L370.7344 101.7188 Q371.4844 101.7188 372 101.2969 Q372.4219 100.9531 372.4219 100.0156 Q372.4219 99.6094 372.1406 99.1406 Q371.6875 98.375 371.1562 98.3906 Q369.8281 98.4375 369.8281 100.7812 L369.8281 106.25 ZM368.75 109.5 L368.75 100.7812 Q368.75 98.3281 370.0781 98 Q370.7656 97.8125 371.25 97.8125 Q372.3438 97.8125 373.0469 98.6719 Q373.6094 99.3594 373.6094 99.9375 Q373.6094 100.7812 373.2031 101.2656 Q372.7969 101.75 372.0625 101.9844 Q373.1406 102.1406 373.75 102.7812 Q374.3281 103.4062 374.3281 104.6328 Q374.3281 105.8594 373.5078 106.5156 Q372.6875 107.1719 371.1406 107.1719 Q370.1875 107.1719 369.8281 107.0312 L369.8281 109.5 L368.75 109.5 Z" style="fill:black; stroke:none;" /></g><g ID="r-1:3" style="fill:white; text-rendering:optimizeSpeed; stroke:white;" wurcs_mono_id="16"><polygon points=" 457 52 446 30 468 30" style="stroke:none; clip-path:url(#clipPath16);" /><rect height="22" style="clip-path:url(#clipPath16); fill:rgb(237,28,36); stroke:none;" width="22" x="446" y="30" /><rect height="22" style="clip-path:url(#clipPath16); fill:none; stroke:black;" width="22" x="446" y="30" /><polygon points=" 457 52 446 30 468 30" style="fill:none; stroke:black;" /></g><g ID="li-1:1,2" style="fill:white; text-rendering:optimizeSpeed; font-family:'Serif'; stroke:white;"><rect height="9" style="stroke:none;" width="8" x="434" y="96" /><path d="M438.1875 102.0312 L438.1875 97.375 L435.2031 102.0312 L438.1875 102.0312 ZM440.7656 105 L436.7812 105 L436.7812 104.375 L438.1875 104.375 L438.1875 102.6562 L434.375 102.6562 L434.375 102.0156 L438.2031 96.0938 L439.3594 96.0938 L439.3594 102.0312 L441.0312 102.0312 L441.0312 102.6562 L439.3594 102.6562 L439.3594 104.375 L440.7656 104.375 L440.7656 105 Z" style="fill:black; stroke:none;" /><rect height="13" style="stroke:none;" width="7" x="420" y="94" /><path d="M421.8281 106.25 Q422.2969 106.5938 423.1719 106.5938 Q424.0625 106.5938 424.5781 106.0703 Q425.0938 105.5469 425.0938 104.6562 Q425.0938 103.4219 424.5625 102.8906 Q424.0156 102.3594 423 102.3594 L422.4375 102.3594 L422.4375 101.7188 L422.7344 101.7188 Q423.4844 101.7188 424 101.2969 Q424.4219 100.9531 424.4219 100.0156 Q424.4219 99.6094 424.1406 99.1406 Q423.6875 98.375 423.1562 98.3906 Q421.8281 98.4375 421.8281 100.7812 L421.8281 106.25 ZM420.75 109.5 L420.75 100.7812 Q420.75 98.3281 422.0781 98 Q422.7656 97.8125 423.25 97.8125 Q424.3438 97.8125 425.0469 98.6719 Q425.6094 99.3594 425.6094 99.9375 Q425.6094 100.7812 425.2031 101.2656 Q424.7969 101.75 424.0625 101.9844 Q425.1406 102.1406 425.75 102.7812 Q426.3281 103.4062 426.3281 104.6328 Q426.3281 105.8594 425.5078 106.5156 Q424.6875 107.1719 423.1406 107.1719 Q422.1875 107.1719 421.8281 107.0312 L421.8281 109.5 L420.75 109.5 Z" style="fill:black; stroke:none;" /></g><g ID="li-1:1,3" style="fill:white; text-rendering:optimizeSpeed; font-family:'Serif'; stroke:white;"><rect height="10" style="stroke:none;" width="7" x="445" y="69" /><path d="M448.9219 78.5938 Q449.75 78.5938 450.1953 77.9844 Q450.6406 77.375 450.6406 76.2344 Q450.6406 75.1094 450.1953 74.5 Q449.75 73.8906 448.9219 73.8906 Q448.0938 73.8906 447.6484 74.4766 Q447.2031 75.0625 447.2031 76.1719 Q447.2031 77.3281 447.6484 77.9609 Q448.0938 78.5938 448.9219 78.5938 ZM447.0156 74.1875 Q447.4219 73.75 447.9219 73.5312 Q448.4219 73.3125 449.0625 73.3125 Q450.3594 73.3125 451.1172 74.0938 Q451.875 74.875 451.875 76.2344 Q451.875 77.5625 451.0625 78.3672 Q450.25 79.1719 448.875 79.1719 Q447.3906 79.1719 446.5938 78.0625 Q445.7969 76.9531 445.7969 74.9062 Q445.7969 72.6094 446.7422 71.3516 Q447.6875 70.0938 449.4062 70.0938 Q449.875 70.0938 450.3828 70.1797 Q450.8906 70.2656 451.4219 70.4375 L451.4219 71.8906 L450.7656 71.8906 Q450.6875 71.2969 450.3047 70.9844 Q449.9219 70.6719 449.2812 70.6719 Q448.1406 70.6719 447.5859 71.5312 Q447.0312 72.3906 447.0156 74.1875 Z" style="fill:black; stroke:none;" /><rect height="8" style="stroke:none;" width="8" x="445" y="56" /><path d="M450.1875 62.4688 L449.9531 63.1094 Q449.7656 63.625 449.2031 63.9375 Q448.8438 64.1562 448.2031 64.1406 Q447.0469 64.1406 446.3281 63.2344 Q445.5938 62.3281 445.5938 60.8594 Q445.5938 59.4219 446.3281 58.4844 Q447.0156 57.5938 448.4531 57.6094 Q449.4531 57.6094 449.9531 58 Q450.4062 58.3438 450.5781 59.0938 L450.625 59.3125 L450.8438 58.6719 Q451.0625 58.0469 451.6562 57.75 L452.25 57.75 L452.25 58.0938 Q451.6875 58.2656 451.5 58.8125 L450.8906 60.4844 L451.2969 62.2812 Q451.5 63.2031 451.7344 63.2969 Q452.0469 63.4375 452.7812 63 L452.7812 63.7188 Q451.5938 64.4062 450.75 63.6875 Q450.375 63.3594 450.2656 62.875 L450.1875 62.4688 ZM449.9219 61.3125 L449.5625 59.5938 Q449.2656 58.2188 448.4688 58.2188 Q447.7969 58.2031 447.2812 58.9375 Q446.8594 59.5156 446.8594 60.875 Q446.8594 62.1719 447.2812 62.8281 Q447.75 63.5469 448.5312 63.5 Q449.2031 63.4375 449.6875 62 L449.9219 61.3125 Z" style="fill:black; stroke:none;" /></g></g></svg>