<svg xmlns="http://www.w3.org/2000/svg" style="fill-opacity:1; color-rendering:auto; color-interpolation:auto; text-rendering:auto; stroke:black; stroke-linecap:square; stroke-miterlimit:10; shape-rendering:auto; stroke-opacity:1; fill:black; stroke-dasharray:none; font-weight:normal; stroke-width:1; font-family:'Dialog'; font-style:normal; stroke-linejoin:miter; font-size:12px; stroke-dashoffset:0; image-rendering:auto;"><defs id="genericDefs" /><g><defs id="defs1"><clipPath clipPathUnits="userSpaceOnUse" id="clipPath1"><path d="M290 56 L312 56 L312 78 L290 78 L290 56 Z" /></clipPath><clipPath clipPathUnits="userSpaceOnUse" id="clipPath2"><path d="M238 56 L260 56 L260 78 L238 78 L238 56 Z" /></clipPath><clipPath clipPathUnits="userSpaceOnUse" id="clipPath3"><path d="M208 67 C208 73.0751 203.0751 78 197 78 C190.9249 78 186 73.0751 186 67 C186 60.9249 190.9249 56 197 56 C203.0751 56 208 60.9249 208 67 Z" /></clipPath><clipPath clipPathUnits="userSpaceOnUse" id="clipPath4"><path d="M156 93 C156 99.0751 151.0751 104 145 104 C138.9249 104 134 99.0751 134 93 C134 86.9249 138.9249 82 145 82 C151.0751 82 156 86.9249 156 93 Z" /></clipPath><clipPath clipPathUnits="userSpaceOnUse" id="clipPath5"><path d="M104 119 C104 125.0751 99.0751 130 93 130 C86.9249 130 82 125.0751 82 119 C82 112.9249 86.9249 108 93 108 C99.0751 108 104 112.9249 104 119 Z" /></clipPath><clipPath clipPathUnits="userSpaceOnUse" id="clipPath6"><path d="M52 119 C52 125.0751 47.0751 130 41 130 C34.9249 130 30 125.0751 30 119 C30 112.9249 34.9249 108 41 108 C47.0751 108 52 112.9249 52 119 Z" /></clipPath><clipPath clipPathUnits="userSpaceOnUse" id="clipPath7"><path d="M104 67 C104 73.0751 99.0751 78 93 78 C86.9249 78 82 73.0751 82 67 C82 60.9249 86.9249 56 93 56 C99.0751 56 104 60.9249 104 67 Z" /></clipPath><clipPath clipPathUnits="userSpaceOnUse" id="clipPath8"><path d="M156 41 C156 47.0751 151.0751 52 145 52 C138.9249 52 134 47.0751 134 41 C134 34.9249 138.9249 30 145 30 C151.0751 30 156 34.9249 156 41 Z" /></clipPath></defs><g style="fill:white; text-rendering:optimizeSpeed; stroke:white;"><rect height="160" style="stroke:none;" width="342" x="0" y="0" /></g><g ID="l-1:1,2" style="text-rendering:optimizeSpeed;"><polygon points=" 301 67 249 67" style="fill:none;" /></g><g ID="r-1:1" style="fill:white; text-rendering:optimizeSpeed; stroke:white;" wurcs_mono_id="1"><rect height="22" style="clip-path:url(#clipPath1); stroke:none;" width="22" x="290" y="56" /><rect height="22" style="clip-path:url(#clipPath1); fill:rgb(0,144,188); stroke:none;" width="22" x="290" y="56" /><rect height="22" style="clip-path:url(#clipPath1); fill:none; stroke:black;" width="22" x="290" y="56" /><rect height="22" style="fill:none; stroke:black;" width="22" x="290" y="56" /></g><g ID="l-1:2,3" style="text-rendering:optimizeSpeed;"><polygon points=" 249 67 197 67" style="fill:none;" /></g><g ID="r-1:2" style="fill:white; text-rendering:optimizeSpeed; stroke:white;" wurcs_mono_id="2"><rect height="22" style="clip-path:url(#clipPath2); stroke:none;" width="22" x="238" y="56" /><rect height="22" style="clip-path:url(#clipPath2); fill:rgb(0,144,188); stroke:none;" width="22" x="238" y="56" /><rect height="22" style="clip-path:url(#clipPath2); fill:none; stroke:black;" width="22" x="238" y="56" /><rect height="22" style="fill:none; stroke:black;" width="22" x="238" y="56" /></g><g ID="l-1:3,4" style="text-rendering:optimizeSpeed;"><polygon points=" 197 67 145 93" style="fill:none;" /></g><g ID="l-1:3,5" style="text-rendering:optimizeSpeed;"><polygon points=" 197 67 145 41" style="fill:none;" /></g><g ID="r-1:3" style="fill:white; text-rendering:optimizeSpeed; stroke:white;" wurcs_mono_id="3"><circle cx="197" cy="67" r="11" style="clip-path:url(#clipPath3); stroke:none;" /><rect height="22" style="clip-path:url(#clipPath3); fill:rgb(0,166,81); stroke:none;" width="22" x="186" y="56" /><rect height="22" style="clip-path:url(#clipPath3); fill:none; stroke:black;" width="22" x="186" y="56" /><circle cx="197" cy="67" r="11" style="fill:none; stroke:black;" /></g><g ID="l-1:4,6" style="text-rendering:optimizeSpeed;"><polygon points=" 145 93 93 119" style="fill:none;" /></g><g ID="l-1:4,7" style="text-rendering:optimizeSpeed;"><polygon points=" 145 93 93 67" style="fill:none;" /></g><g ID="r-1:4" style="fill:white; text-rendering:optimizeSpeed; stroke:white;" wurcs_mono_id="4"><circle cx="145" cy="93" r="11" style="clip-path:url(#clipPath4); stroke:none;" /><rect height="22" style="clip-path:url(#clipPath4); fill:rgb(0,166,81); stroke:none;" width="22" x="134" y="82" /><rect height="22" style="clip-path:url(#clipPath4); fill:none; stroke:black;" width="22" x="134" y="82" /><circle cx="145" cy="93" r="11" style="fill:none; stroke:black;" /></g><g ID="l-1:6,8" style="text-rendering:optimizeSpeed;"><polygon points=" 93 119 41 119" style="fill:none;" /></g><g ID="r-1:6" style="fill:white; text-rendering:optimizeSpeed; stroke:white;" wurcs_mono_id="5"><circle cx="93" cy="119" r="11" style="clip-path:url(#clipPath5); stroke:none;" /><rect height="22" style="clip-path:url(#clipPath5); fill:rgb(0,166,81); stroke:none;" width="22" x="82" y="108" /><rect height="22" style="clip-path:url(#clipPath5); fill:none; stroke:black;" width="22" x="82" y="108" /><circle cx="93" cy="119" r="11" style="fill:none; stroke:black;" /></g><g ID="r-1:8" style="fill:white; text-rendering:optimizeSpeed; stroke:white;" wurcs_mono_id="6"><circle cx="41" cy="119" r="11" style="clip-path:url(#clipPath6); stroke:none;" /><rect height="22" style="clip-path:url(#clipPath6); fill:rgb(0,166,81); stroke:none;" width="22" x="30" y="108" /><rect height="22" style="clip-path:url(#clipPath6); fill:none; stroke:black;" width="22" x="30" y="108" /><circle cx="41" cy="119" r="11" style="fill:none; stroke:black;" /></g><g ID="li-1:6,8" style="fill:white; text-rendering:optimizeSpeed; font-family:'Serif'; stroke:white;"><rect height="10" style="stroke:none;" width="6" x="71" y="122" /><path d="M73.1094 131.3906 Q73.1094 131.0625 73.3359 130.8359 Q73.5625 130.6094 73.8906 130.6094 Q74.2188 130.6094 74.4453 130.8359 Q74.6719 131.0625 74.6719 131.3906 Q74.6719 131.7188 74.4453 131.9453 Q74.2188 132.1719 73.8906 132.1719 Q73.5625 132.1719 73.3359 131.9453 Q73.1094 131.7188 73.1094 131.3906 ZM71.8125 123.6406 Q72.4375 123.3594 73 123.2266 Q73.5625 123.0938 74.0469 123.0938 Q75.3438 123.0938 76.1016 123.7188 Q76.8594 124.3438 76.8594 125.4062 Q76.8594 126.5 76.2109 127.1953 Q75.5625 127.8906 74.25 128.1875 L74.25 129.6719 L73.5312 129.6719 L73.5312 127.75 Q74.5625 127.5 75.0938 126.9062 Q75.625 126.3125 75.625 125.4062 Q75.625 124.5938 75.1953 124.1328 Q74.7656 123.6719 74.0312 123.6719 Q73.3594 123.6719 72.9297 124.0547 Q72.5 124.4375 72.3906 125.1562 L71.8125 125.1562 L71.8125 123.6406 Z" style="fill:black; stroke:none;" /><rect height="10" style="stroke:none;" width="6" x="57" y="122" /><path d="M59.1094 131.3906 Q59.1094 131.0625 59.3359 130.8359 Q59.5625 130.6094 59.8906 130.6094 Q60.2188 130.6094 60.4453 130.8359 Q60.6719 131.0625 60.6719 131.3906 Q60.6719 131.7188 60.4453 131.9453 Q60.2188 132.1719 59.8906 132.1719 Q59.5625 132.1719 59.3359 131.9453 Q59.1094 131.7188 59.1094 131.3906 ZM57.8125 123.6406 Q58.4375 123.3594 59 123.2266 Q59.5625 123.0938 60.0469 123.0938 Q61.3438 123.0938 62.1016 123.7188 Q62.8594 124.3438 62.8594 125.4062 Q62.8594 126.5 62.2109 127.1953 Q61.5625 127.8906 60.25 128.1875 L60.25 129.6719 L59.5312 129.6719 L59.5312 127.75 Q60.5625 127.5 61.0938 126.9062 Q61.625 126.3125 61.625 125.4062 Q61.625 124.5938 61.1953 124.1328 Q60.7656 123.6719 60.0312 123.6719 Q59.3594 123.6719 58.9297 124.0547 Q58.5 124.4375 58.3906 125.1562 L57.8125 125.1562 L57.8125 123.6406 Z" style="fill:black; stroke:none;" /></g><g ID="r-1:7" style="fill:white; text-rendering:optimizeSpeed; stroke:white;" wurcs_mono_id="7"><circle cx="93" cy="67" r="11" style="clip-path:url(#clipPath7); stroke:none;" /><rect height="22" style="clip-path:url(#clipPath7); fill:rgb(0,166,81); stroke:none;" width="22" x="82" y="56" /><rect height="22" style="clip-path:url(#clipPath7); fill:none; stroke:black;" width="22" x="82" y="56" /><circle cx="93" cy="67" r="11" style="fill:none; stroke:black;" /></g><g ID="li-1:4,6" style="fill:white; text-rendering:optimizeSpeed; font-family:'Serif'; stroke:white;"><rect height="10" style="stroke:none;" width="6" x="127" y="104" /><path d="M129.1094 113.3906 Q129.1094 113.0625 129.3359 112.8359 Q129.5625 112.6094 129.8906 112.6094 Q130.2188 112.6094 130.4453 112.8359 Q130.6719 113.0625 130.6719 113.3906 Q130.6719 113.7188 130.4453 113.9453 Q130.2188 114.1719 129.8906 114.1719 Q129.5625 114.1719 129.3359 113.9453 Q129.1094 113.7188 129.1094 113.3906 ZM127.8125 105.6406 Q128.4375 105.3594 129 105.2266 Q129.5625 105.0938 130.0469 105.0938 Q131.3438 105.0938 132.1016 105.7188 Q132.8594 106.3438 132.8594 107.4062 Q132.8594 108.5 132.2109 109.1953 Q131.5625 109.8906 130.25 110.1875 L130.25 111.6719 L129.5312 111.6719 L129.5312 109.75 Q130.5625 109.5 131.0938 108.9062 Q131.625 108.3125 131.625 107.4062 Q131.625 106.5938 131.1953 106.1328 Q130.7656 105.6719 130.0312 105.6719 Q129.3594 105.6719 128.9297 106.0547 Q128.5 106.4375 128.3906 107.1562 L127.8125 107.1562 L127.8125 105.6406 Z" style="fill:black; stroke:none;" /><rect height="10" style="stroke:none;" width="6" x="111" y="112" /><path d="M113.1094 121.3906 Q113.1094 121.0625 113.3359 120.8359 Q113.5625 120.6094 113.8906 120.6094 Q114.2188 120.6094 114.4453 120.8359 Q114.6719 121.0625 114.6719 121.3906 Q114.6719 121.7188 114.4453 121.9453 Q114.2188 122.1719 113.8906 122.1719 Q113.5625 122.1719 113.3359 121.9453 Q113.1094 121.7188 113.1094 121.3906 ZM111.8125 113.6406 Q112.4375 113.3594 113 113.2266 Q113.5625 113.0938 114.0469 113.0938 Q115.3438 113.0938 116.1016 113.7188 Q116.8594 114.3438 116.8594 115.4062 Q116.8594 116.5 116.2109 117.1953 Q115.5625 117.8906 114.25 118.1875 L114.25 119.6719 L113.5312 119.6719 L113.5312 117.75 Q114.5625 117.5 115.0938 116.9062 Q115.625 116.3125 115.625 115.4062 Q115.625 114.5938 115.1953 114.1328 Q114.7656 113.6719 114.0312 113.6719 Q113.3594 113.6719 112.9297 114.0547 Q112.5 114.4375 112.3906 115.1562 L111.8125 115.1562 L111.8125 113.6406 Z" style="fill:black; stroke:none;" /></g><g ID="li-1:4,7" style="fill:white; text-rendering:optimizeSpeed; font-family:'Serif'; stroke:white;"><rect height="10" style="stroke:none;" width="6" x="120" y="86" /><path d="M122.1094 95.3906 Q122.1094 95.0625 122.3359 94.8359 Q122.5625 94.6094 122.8906 94.6094 Q123.2188 94.6094 123.4453 94.8359 Q123.6719 95.0625 123.6719 95.3906 Q123.6719 95.7188 123.4453 95.9453 Q123.2188 96.1719 122.8906 96.1719 Q122.5625 96.1719 122.3359 95.9453 Q122.1094 95.7188 122.1094 95.3906 ZM120.8125 87.6406 Q121.4375 87.3594 122 87.2266 Q122.5625 87.0938 123.0469 87.0938 Q124.3438 87.0938 125.1016 87.7188 Q125.8594 88.3438 125.8594 89.4062 Q125.8594 90.5 125.2109 91.1953 Q124.5625 91.8906 123.25 92.1875 L123.25 93.6719 L122.5312 93.6719 L122.5312 91.75 Q123.5625 91.5 124.0938 90.9062 Q124.625 90.3125 124.625 89.4062 Q124.625 88.5938 124.1953 88.1328 Q123.7656 87.6719 123.0312 87.6719 Q122.3594 87.6719 121.9297 88.0547 Q121.5 88.4375 121.3906 89.1562 L120.8125 89.1562 L120.8125 87.6406 Z" style="fill:black; stroke:none;" /><rect height="10" style="stroke:none;" width="6" x="104" y="78" /><path d="M106.1094 87.3906 Q106.1094 87.0625 106.3359 86.8359 Q106.5625 86.6094 106.8906 86.6094 Q107.2188 86.6094 107.4453 86.8359 Q107.6719 87.0625 107.6719 87.3906 Q107.6719 87.7188 107.4453 87.9453 Q107.2188 88.1719 106.8906 88.1719 Q106.5625 88.1719 106.3359 87.9453 Q106.1094 87.7188 106.1094 87.3906 ZM104.8125 79.6406 Q105.4375 79.3594 106 79.2266 Q106.5625 79.0938 107.0469 79.0938 Q108.3438 79.0938 109.1016 79.7188 Q109.8594 80.3438 109.8594 81.4062 Q109.8594 82.5 109.2109 83.1953 Q108.5625 83.8906 107.25 84.1875 L107.25 85.6719 L106.5312 85.6719 L106.5312 83.75 Q107.5625 83.5 108.0938 82.9062 Q108.625 82.3125 108.625 81.4062 Q108.625 80.5938 108.1953 80.1328 Q107.7656 79.6719 107.0312 79.6719 Q106.3594 79.6719 105.9297 80.0547 Q105.5 80.4375 105.3906 81.1562 L104.8125 81.1562 L104.8125 79.6406 Z" style="fill:black; stroke:none;" /></g><g ID="r-1:5" style="fill:white; text-rendering:optimizeSpeed; stroke:white;" wurcs_mono_id="8"><circle cx="145" cy="41" r="11" style="clip-path:url(#clipPath8); stroke:none;" /><rect height="22" style="clip-path:url(#clipPath8); fill:rgb(0,166,81); stroke:none;" width="22" x="134" y="30" /><rect height="22" style="clip-path:url(#clipPath8); fill:none; stroke:black;" width="22" x="134" y="30" /><circle cx="145" cy="41" r="11" style="fill:none; stroke:black;" /></g><g ID="li-1:3,4" style="fill:white; text-rendering:optimizeSpeed; font-family:'Serif'; stroke:white;"><rect height="11" style="stroke:none;" width="19" x="172" y="77" /><path d="M173.1719 79.625 Q173.8594 79.3594 174.4844 79.2266 Q175.1094 79.0938 175.6562 79.0938 Q176.9531 79.0938 177.6719 79.6484 Q178.3906 80.2031 178.3906 81.1875 Q178.3906 81.9688 177.8906 82.5 Q177.3906 83.0312 176.4844 83.2188 Q177.5625 83.375 178.1562 84.0078 Q178.75 84.6406 178.75 85.6406 Q178.75 86.8594 177.9219 87.5156 Q177.0938 88.1719 175.5469 88.1719 Q174.8594 88.1719 174.2109 88.0234 Q173.5625 87.875 172.9219 87.5781 L172.9219 85.875 L173.5781 85.875 Q173.625 86.7188 174.1406 87.1562 Q174.6562 87.5938 175.5781 87.5938 Q176.4688 87.5938 176.9922 87.0703 Q177.5156 86.5469 177.5156 85.6562 Q177.5156 84.625 176.9766 84.0938 Q176.4375 83.5625 175.4062 83.5625 L174.8594 83.5625 L174.8594 82.9531 L175.1406 82.9531 Q176.1719 82.9531 176.6875 82.5312 Q177.2031 82.1094 177.2031 81.25 Q177.2031 80.4844 176.7812 80.0781 Q176.3594 79.6719 175.5625 79.6719 Q174.7656 79.6719 174.3359 80.0469 Q173.9062 80.4219 173.8281 81.1562 L173.1719 81.1562 L173.1719 79.625 ZM182.7441 79.25 L183.6816 79.25 L180.5723 89.1094 L179.6348 89.1094 L182.7441 79.25 ZM187.5996 87.5938 Q188.4277 87.5938 188.873 86.9844 Q189.3184 86.375 189.3184 85.2344 Q189.3184 84.1094 188.873 83.5 Q188.4277 82.8906 187.5996 82.8906 Q186.7715 82.8906 186.3262 83.4766 Q185.8809 84.0625 185.8809 85.1719 Q185.8809 86.3281 186.3262 86.9609 Q186.7715 87.5938 187.5996 87.5938 ZM185.6934 83.1875 Q186.0996 82.75 186.5996 82.5312 Q187.0996 82.3125 187.7402 82.3125 Q189.0371 82.3125 189.7949 83.0938 Q190.5527 83.875 190.5527 85.2344 Q190.5527 86.5625 189.7402 87.3672 Q188.9277 88.1719 187.5527 88.1719 Q186.0684 88.1719 185.2715 87.0625 Q184.4746 85.9531 184.4746 83.9062 Q184.4746 81.6094 185.4199 80.3516 Q186.3652 79.0938 188.084 79.0938 Q188.5527 79.0938 189.0605 79.1797 Q189.5684 79.2656 190.0996 79.4375 L190.0996 80.8906 L189.4434 80.8906 Q189.3652 80.2969 188.9824 79.9844 Q188.5996 79.6719 187.959 79.6719 Q186.8184 79.6719 186.2637 80.5312 Q185.709 81.3906 185.6934 83.1875 Z" style="fill:black; stroke:none;" /><rect height="8" style="stroke:none;" width="8" x="162" y="87" /><path d="M167.1875 93.4688 L166.9531 94.1094 Q166.7656 94.625 166.2031 94.9375 Q165.8438 95.1562 165.2031 95.1406 Q164.0469 95.1406 163.3281 94.2344 Q162.5938 93.3281 162.5938 91.8594 Q162.5938 90.4219 163.3281 89.4844 Q164.0156 88.5938 165.4531 88.6094 Q166.4531 88.6094 166.9531 89 Q167.4062 89.3438 167.5781 90.0938 L167.625 90.3125 L167.8438 89.6719 Q168.0625 89.0469 168.6562 88.75 L169.25 88.75 L169.25 89.0938 Q168.6875 89.2656 168.5 89.8125 L167.8906 91.4844 L168.2969 93.2812 Q168.5 94.2031 168.7344 94.2969 Q169.0469 94.4375 169.7812 94 L169.7812 94.7188 Q168.5938 95.4062 167.75 94.6875 Q167.375 94.3594 167.2656 93.875 L167.1875 93.4688 ZM166.9219 92.3125 L166.5625 90.5938 Q166.2656 89.2188 165.4688 89.2188 Q164.7969 89.2031 164.2812 89.9375 Q163.8594 90.5156 163.8594 91.875 Q163.8594 93.1719 164.2812 93.8281 Q164.75 94.5469 165.5312 94.5 Q166.2031 94.4375 166.6875 93 L166.9219 92.3125 Z" style="fill:black; stroke:none;" /></g><g ID="li-1:3,5" style="fill:white; text-rendering:optimizeSpeed; font-family:'Serif'; stroke:white;"><rect height="11" style="stroke:none;" width="19" x="165" y="59" /><path d="M166.1719 61.625 Q166.8594 61.3594 167.4844 61.2266 Q168.1094 61.0938 168.6562 61.0938 Q169.9531 61.0938 170.6719 61.6484 Q171.3906 62.2031 171.3906 63.1875 Q171.3906 63.9688 170.8906 64.5 Q170.3906 65.0312 169.4844 65.2188 Q170.5625 65.375 171.1562 66.0078 Q171.75 66.6406 171.75 67.6406 Q171.75 68.8594 170.9219 69.5156 Q170.0938 70.1719 168.5469 70.1719 Q167.8594 70.1719 167.2109 70.0234 Q166.5625 69.875 165.9219 69.5781 L165.9219 67.875 L166.5781 67.875 Q166.625 68.7188 167.1406 69.1562 Q167.6562 69.5938 168.5781 69.5938 Q169.4688 69.5938 169.9922 69.0703 Q170.5156 68.5469 170.5156 67.6562 Q170.5156 66.625 169.9766 66.0938 Q169.4375 65.5625 168.4062 65.5625 L167.8594 65.5625 L167.8594 64.9531 L168.1406 64.9531 Q169.1719 64.9531 169.6875 64.5312 Q170.2031 64.1094 170.2031 63.25 Q170.2031 62.4844 169.7812 62.0781 Q169.3594 61.6719 168.5625 61.6719 Q167.7656 61.6719 167.3359 62.0469 Q166.9062 62.4219 166.8281 63.1562 L166.1719 63.1562 L166.1719 61.625 ZM175.7441 61.25 L176.6816 61.25 L173.5723 71.1094 L172.6348 71.1094 L175.7441 61.25 ZM180.5996 69.5938 Q181.4277 69.5938 181.873 68.9844 Q182.3184 68.375 182.3184 67.2344 Q182.3184 66.1094 181.873 65.5 Q181.4277 64.8906 180.5996 64.8906 Q179.7715 64.8906 179.3262 65.4766 Q178.8809 66.0625 178.8809 67.1719 Q178.8809 68.3281 179.3262 68.9609 Q179.7715 69.5938 180.5996 69.5938 ZM178.6934 65.1875 Q179.0996 64.75 179.5996 64.5312 Q180.0996 64.3125 180.7402 64.3125 Q182.0371 64.3125 182.7949 65.0938 Q183.5527 65.875 183.5527 67.2344 Q183.5527 68.5625 182.7402 69.3672 Q181.9277 70.1719 180.5527 70.1719 Q179.0684 70.1719 178.2715 69.0625 Q177.4746 67.9531 177.4746 65.9062 Q177.4746 63.6094 178.4199 62.3516 Q179.3652 61.0938 181.084 61.0938 Q181.5527 61.0938 182.0605 61.1797 Q182.5684 61.2656 183.0996 61.4375 L183.0996 62.8906 L182.4434 62.8906 Q182.3652 62.2969 181.9824 61.9844 Q181.5996 61.6719 180.959 61.6719 Q179.8184 61.6719 179.2637 62.5312 Q178.709 63.3906 178.6934 65.1875 Z" style="fill:black; stroke:none;" /><rect height="8" style="stroke:none;" width="8" x="155" y="53" /><path d="M160.1875 59.4688 L159.9531 60.1094 Q159.7656 60.625 159.2031 60.9375 Q158.8438 61.1562 158.2031 61.1406 Q157.0469 61.1406 156.3281 60.2344 Q155.5938 59.3281 155.5938 57.8594 Q155.5938 56.4219 156.3281 55.4844 Q157.0156 54.5938 158.4531 54.6094 Q159.4531 54.6094 159.9531 55 Q160.4062 55.3438 160.5781 56.0938 L160.625 56.3125 L160.8438 55.6719 Q161.0625 55.0469 161.6562 54.75 L162.25 54.75 L162.25 55.0938 Q161.6875 55.2656 161.5 55.8125 L160.8906 57.4844 L161.2969 59.2812 Q161.5 60.2031 161.7344 60.2969 Q162.0469 60.4375 162.7812 60 L162.7812 60.7188 Q161.5938 61.4062 160.75 60.6875 Q160.375 60.3594 160.2656 59.875 L160.1875 59.4688 ZM159.9219 58.3125 L159.5625 56.5938 Q159.2656 55.2188 158.4688 55.2188 Q157.7969 55.2031 157.2812 55.9375 Q156.8594 56.5156 156.8594 57.875 Q156.8594 59.1719 157.2812 59.8281 Q157.75 60.5469 158.5312 60.5 Q159.2031 60.4375 159.6875 59 L159.9219 58.3125 Z" style="fill:black; stroke:none;" /></g><g ID="li-1:2,3" style="fill:white; text-rendering:optimizeSpeed; font-family:'Serif'; stroke:white;"><rect height="9" style="stroke:none;" width="8" x="226" y="70" /><path d="M230.1875 76.0312 L230.1875 71.375 L227.2031 76.0312 L230.1875 76.0312 ZM232.7656 79 L228.7812 79 L228.7812 78.375 L230.1875 78.375 L230.1875 76.6562 L226.375 76.6562 L226.375 76.0156 L230.2031 70.0938 L231.3594 70.0938 L231.3594 76.0312 L233.0312 76.0312 L233.0312 76.6562 L231.3594 76.6562 L231.3594 78.375 L232.7656 78.375 L232.7656 79 Z" style="fill:black; stroke:none;" /><rect height="13" style="stroke:none;" width="7" x="212" y="68" /><path d="M213.8281 80.25 Q214.2969 80.5938 215.1719 80.5938 Q216.0625 80.5938 216.5781 80.0703 Q217.0938 79.5469 217.0938 78.6562 Q217.0938 77.4219 216.5625 76.8906 Q216.0156 76.3594 215 76.3594 L214.4375 76.3594 L214.4375 75.7188 L214.7344 75.7188 Q215.4844 75.7188 216 75.2969 Q216.4219 74.9531 216.4219 74.0156 Q216.4219 73.6094 216.1406 73.1406 Q215.6875 72.375 215.1562 72.3906 Q213.8281 72.4375 213.8281 74.7812 L213.8281 80.25 ZM212.75 83.5 L212.75 74.7812 Q212.75 72.3281 214.0781 72 Q214.7656 71.8125 215.25 71.8125 Q216.3438 71.8125 217.0469 72.6719 Q217.6094 73.3594 217.6094 73.9375 Q217.6094 74.7812 217.2031 75.2656 Q216.7969 75.75 216.0625 75.9844 Q217.1406 76.1406 217.75 76.7812 Q218.3281 77.4062 218.3281 78.6328 Q218.3281 79.8594 217.5078 80.5156 Q216.6875 81.1719 215.1406 81.1719 Q214.1875 81.1719 213.8281 81.0312 L213.8281 83.5 L212.75 83.5 Z" style="fill:black; stroke:none;" /></g><g ID="li-1:1,2" style="fill:white; text-rendering:optimizeSpeed; font-family:'Serif'; stroke:white;"><rect height="9" style="stroke:none;" width="8" x="278" y="70" /><path d="M282.1875 76.0312 L282.1875 71.375 L279.2031 76.0312 L282.1875 76.0312 ZM284.7656 79 L280.7812 79 L280.7812 78.375 L282.1875 78.375 L282.1875 76.6562 L278.375 76.6562 L278.375 76.0156 L282.2031 70.0938 L283.3594 70.0938 L283.3594 76.0312 L285.0312 76.0312 L285.0312 76.6562 L283.3594 76.6562 L283.3594 78.375 L284.7656 78.375 L284.7656 79 Z" style="fill:black; stroke:none;" /><rect height="13" style="stroke:none;" width="7" x="264" y="68" /><path d="M265.8281 80.25 Q266.2969 80.5938 267.1719 80.5938 Q268.0625 80.5938 268.5781 80.0703 Q269.0938 79.5469 269.0938 78.6562 Q269.0938 77.4219 268.5625 76.8906 Q268.0156 76.3594 267 76.3594 L266.4375 76.3594 L266.4375 75.7188 L266.7344 75.7188 Q267.4844 75.7188 268 75.2969 Q268.4219 74.9531 268.4219 74.0156 Q268.4219 73.6094 268.1406 73.1406 Q267.6875 72.375 267.1562 72.3906 Q265.8281 72.4375 265.8281 74.7812 L265.8281 80.25 ZM264.75 83.5 L264.75 74.7812 Q264.75 72.3281 266.0781 72 Q266.7656 71.8125 267.25 71.8125 Q268.3438 71.8125 269.0469 72.6719 Q269.6094 73.3594 269.6094 73.9375 Q269.6094 74.7812 269.2031 75.2656 Q268.7969 75.75 268.0625 75.9844 Q269.1406 76.1406 269.75 76.7812 Q270.3281 77.4062 270.3281 78.6328 Q270.3281 79.8594 269.5078 80.5156 Q268.6875 81.1719 267.1406 81.1719 Q266.1875 81.1719 265.8281 81.0312 L265.8281 83.5 L264.75 83.5 Z" style="fill:black; stroke:none;" /></g></g></svg>