<svg xmlns="http://www.w3.org/2000/svg" style="fill-opacity:1; color-rendering:auto; color-interpolation:auto; text-rendering:auto; stroke:black; stroke-linecap:square; stroke-miterlimit:10; shape-rendering:auto; stroke-opacity:1; fill:black; stroke-dasharray:none; font-weight:normal; stroke-width:1; font-family:'Dialog'; font-style:normal; stroke-linejoin:miter; font-size:12px; stroke-dashoffset:0; image-rendering:auto;"><defs id="genericDefs" /><g><defs id="defs1"><clipPath clipPathUnits="userSpaceOnUse" id="clipPath1"><path d="M186 82 L208 82 L208 104 L186 104 L186 82 Z" /></clipPath><clipPath clipPathUnits="userSpaceOnUse" id="clipPath2"><path d="M134 134 L156 134 L156 156 L134 156 L134 134 Z" /></clipPath><clipPath clipPathUnits="userSpaceOnUse" id="clipPath3"><path d="M104 145 C104 151.0751 99.0751 156 93 156 C86.9249 156 82 151.0751 82 145 C82 138.9249 86.9249 134 93 134 C99.0751 134 104 138.9249 104 145 Z" /></clipPath><clipPath clipPathUnits="userSpaceOnUse" id="clipPath4"><path d="M93 104 L82 82 L104 82 Z" style="fill-rule:evenodd;" /></clipPath><clipPath clipPathUnits="userSpaceOnUse" id="clipPath5"><path d="M30 134 L52 134 L52 156 L30 156 L30 134 Z" /></clipPath><clipPath clipPathUnits="userSpaceOnUse" id="clipPath6"><path d="M156 41 C156 47.0751 151.0751 52 145 52 C138.9249 52 134 47.0751 134 41 C134 34.9249 138.9249 30 145 30 C151.0751 30 156 34.9249 156 41 Z" /></clipPath><clipPath clipPathUnits="userSpaceOnUse" id="clipPath7"><path d="M82 30 L104 30 L104 52 L82 52 L82 30 Z" /></clipPath></defs><g style="fill:white; text-rendering:optimizeSpeed; stroke:white;"><rect height="186" style="stroke:none;" width="238" x="0" y="0" /></g><g ID="l-1:1,2" style="text-rendering:optimizeSpeed;"><polygon points=" 197 93 145 145" style="fill:none;" /></g><g ID="l-1:1,3" style="text-rendering:optimizeSpeed;"><polygon points=" 197 93 145 41" style="fill:none;" /></g><g ID="r-1:1" style="fill:white; text-rendering:optimizeSpeed; stroke:white;" wurcs_mono_id="1"><rect height="22" style="clip-path:url(#clipPath1); stroke:none;" width="22" x="186" y="82" /><rect height="22" style="clip-path:url(#clipPath1); fill:rgb(255,212,0); stroke:none;" width="22" x="186" y="82" /><rect height="22" style="clip-path:url(#clipPath1); fill:none; stroke:black;" width="22" x="186" y="82" /><rect height="22" style="fill:none; stroke:black;" width="22" x="186" y="82" /></g><g ID="l-1:2,4" style="text-rendering:optimizeSpeed;"><polygon points=" 145 145 93 145" style="fill:none;" /></g><g ID="r-1:2" style="fill:white; text-rendering:optimizeSpeed; stroke:white;" wurcs_mono_id="2"><rect height="22" style="clip-path:url(#clipPath2); stroke:none;" width="22" x="134" y="134" /><rect height="22" style="clip-path:url(#clipPath2); fill:rgb(0,144,188); stroke:none;" width="22" x="134" y="134" /><rect height="22" style="clip-path:url(#clipPath2); fill:none; stroke:black;" width="22" x="134" y="134" /><rect height="22" style="fill:none; stroke:black;" width="22" x="134" y="134" /></g><g ID="l-1:4,5" style="text-rendering:optimizeSpeed;"><polygon points=" 93 145 93 93" style="fill:none;" /></g><g ID="l-1:4,6" style="text-rendering:optimizeSpeed;"><polygon points=" 93 145 41 145" style="fill:none;" /></g><g ID="r-1:4" style="fill:white; text-rendering:optimizeSpeed; stroke:white;" wurcs_mono_id="3"><circle cx="93" cy="145" r="11" style="clip-path:url(#clipPath3); stroke:none;" /><rect height="22" style="clip-path:url(#clipPath3); fill:rgb(255,212,0); stroke:none;" width="22" x="82" y="134" /><rect height="22" style="clip-path:url(#clipPath3); fill:none; stroke:black;" width="22" x="82" y="134" /><circle cx="93" cy="145" r="11" style="fill:none; stroke:black;" /></g><g ID="r-1:5" style="fill:white; text-rendering:optimizeSpeed; stroke:white;" wurcs_mono_id="4"><polygon points=" 93 104 82 82 104 82" style="stroke:none; clip-path:url(#clipPath4);" /><rect height="22" style="clip-path:url(#clipPath4); fill:rgb(237,28,36); stroke:none;" width="22" x="82" y="82" /><rect height="22" style="clip-path:url(#clipPath4); fill:none; stroke:black;" width="22" x="82" y="82" /><polygon points=" 93 104 82 82 104 82" style="fill:none; stroke:black;" /></g><g ID="r-1:6" style="fill:white; text-rendering:optimizeSpeed; stroke:white;" wurcs_mono_id="5"><rect height="22" style="clip-path:url(#clipPath5); stroke:none;" width="22" x="30" y="134" /><rect height="22" style="clip-path:url(#clipPath5); fill:rgb(255,212,0); stroke:none;" width="22" x="30" y="134" /><rect height="22" style="clip-path:url(#clipPath5); fill:none; stroke:black;" width="22" x="30" y="134" /><rect height="22" style="fill:none; stroke:black;" width="22" x="30" y="134" /></g><g ID="li-1:4,5" style="fill:white; text-rendering:optimizeSpeed; font-family:'Serif'; stroke:white;"><rect height="10" style="stroke:none;" width="6" x="82" y="121" /><path d="M84.1094 130.3906 Q84.1094 130.0625 84.3359 129.8359 Q84.5625 129.6094 84.8906 129.6094 Q85.2188 129.6094 85.4453 129.8359 Q85.6719 130.0625 85.6719 130.3906 Q85.6719 130.7188 85.4453 130.9453 Q85.2188 131.1719 84.8906 131.1719 Q84.5625 131.1719 84.3359 130.9453 Q84.1094 130.7188 84.1094 130.3906 ZM82.8125 122.6406 Q83.4375 122.3594 84 122.2266 Q84.5625 122.0938 85.0469 122.0938 Q86.3438 122.0938 87.1016 122.7188 Q87.8594 123.3438 87.8594 124.4062 Q87.8594 125.5 87.2109 126.1953 Q86.5625 126.8906 85.25 127.1875 L85.25 128.6719 L84.5312 128.6719 L84.5312 126.75 Q85.5625 126.5 86.0938 125.9062 Q86.625 125.3125 86.625 124.4062 Q86.625 123.5938 86.1953 123.1328 Q85.7656 122.6719 85.0312 122.6719 Q84.3594 122.6719 83.9297 123.0547 Q83.5 123.4375 83.3906 124.1562 L82.8125 124.1562 L82.8125 122.6406 Z" style="fill:black; stroke:none;" /><rect height="10" style="stroke:none;" width="6" x="82" y="107" /><path d="M84.1094 116.3906 Q84.1094 116.0625 84.3359 115.8359 Q84.5625 115.6094 84.8906 115.6094 Q85.2188 115.6094 85.4453 115.8359 Q85.6719 116.0625 85.6719 116.3906 Q85.6719 116.7188 85.4453 116.9453 Q85.2188 117.1719 84.8906 117.1719 Q84.5625 117.1719 84.3359 116.9453 Q84.1094 116.7188 84.1094 116.3906 ZM82.8125 108.6406 Q83.4375 108.3594 84 108.2266 Q84.5625 108.0938 85.0469 108.0938 Q86.3438 108.0938 87.1016 108.7188 Q87.8594 109.3438 87.8594 110.4062 Q87.8594 111.5 87.2109 112.1953 Q86.5625 112.8906 85.25 113.1875 L85.25 114.6719 L84.5312 114.6719 L84.5312 112.75 Q85.5625 112.5 86.0938 111.9062 Q86.625 111.3125 86.625 110.4062 Q86.625 109.5938 86.1953 109.1328 Q85.7656 108.6719 85.0312 108.6719 Q84.3594 108.6719 83.9297 109.0547 Q83.5 109.4375 83.3906 110.1562 L82.8125 110.1562 L82.8125 108.6406 Z" style="fill:black; stroke:none;" /></g><g ID="li-1:4,6" style="fill:white; text-rendering:optimizeSpeed; font-family:'Serif'; stroke:white;"><rect height="10" style="stroke:none;" width="6" x="71" y="148" /><path d="M73.1094 157.3906 Q73.1094 157.0625 73.3359 156.8359 Q73.5625 156.6094 73.8906 156.6094 Q74.2188 156.6094 74.4453 156.8359 Q74.6719 157.0625 74.6719 157.3906 Q74.6719 157.7188 74.4453 157.9453 Q74.2188 158.1719 73.8906 158.1719 Q73.5625 158.1719 73.3359 157.9453 Q73.1094 157.7188 73.1094 157.3906 ZM71.8125 149.6406 Q72.4375 149.3594 73 149.2266 Q73.5625 149.0938 74.0469 149.0938 Q75.3438 149.0938 76.1016 149.7188 Q76.8594 150.3438 76.8594 151.4062 Q76.8594 152.5 76.2109 153.1953 Q75.5625 153.8906 74.25 154.1875 L74.25 155.6719 L73.5312 155.6719 L73.5312 153.75 Q74.5625 153.5 75.0938 152.9062 Q75.625 152.3125 75.625 151.4062 Q75.625 150.5938 75.1953 150.1328 Q74.7656 149.6719 74.0312 149.6719 Q73.3594 149.6719 72.9297 150.0547 Q72.5 150.4375 72.3906 151.1562 L71.8125 151.1562 L71.8125 149.6406 Z" style="fill:black; stroke:none;" /><rect height="10" style="stroke:none;" width="6" x="57" y="148" /><path d="M59.1094 157.3906 Q59.1094 157.0625 59.3359 156.8359 Q59.5625 156.6094 59.8906 156.6094 Q60.2188 156.6094 60.4453 156.8359 Q60.6719 157.0625 60.6719 157.3906 Q60.6719 157.7188 60.4453 157.9453 Q60.2188 158.1719 59.8906 158.1719 Q59.5625 158.1719 59.3359 157.9453 Q59.1094 157.7188 59.1094 157.3906 ZM57.8125 149.6406 Q58.4375 149.3594 59 149.2266 Q59.5625 149.0938 60.0469 149.0938 Q61.3438 149.0938 62.1016 149.7188 Q62.8594 150.3438 62.8594 151.4062 Q62.8594 152.5 62.2109 153.1953 Q61.5625 153.8906 60.25 154.1875 L60.25 155.6719 L59.5312 155.6719 L59.5312 153.75 Q60.5625 153.5 61.0938 152.9062 Q61.625 152.3125 61.625 151.4062 Q61.625 150.5938 61.1953 150.1328 Q60.7656 149.6719 60.0312 149.6719 Q59.3594 149.6719 58.9297 150.0547 Q58.5 150.4375 58.3906 151.1562 L57.8125 151.1562 L57.8125 149.6406 Z" style="fill:black; stroke:none;" /></g><g ID="li-1:2,4" style="fill:white; text-rendering:optimizeSpeed; font-family:'Serif'; stroke:white;"><rect height="10" style="stroke:none;" width="6" x="123" y="148" /><path d="M125.1094 157.3906 Q125.1094 157.0625 125.3359 156.8359 Q125.5625 156.6094 125.8906 156.6094 Q126.2188 156.6094 126.4453 156.8359 Q126.6719 157.0625 126.6719 157.3906 Q126.6719 157.7188 126.4453 157.9453 Q126.2188 158.1719 125.8906 158.1719 Q125.5625 158.1719 125.3359 157.9453 Q125.1094 157.7188 125.1094 157.3906 ZM123.8125 149.6406 Q124.4375 149.3594 125 149.2266 Q125.5625 149.0938 126.0469 149.0938 Q127.3438 149.0938 128.1016 149.7188 Q128.8594 150.3438 128.8594 151.4062 Q128.8594 152.5 128.2109 153.1953 Q127.5625 153.8906 126.25 154.1875 L126.25 155.6719 L125.5312 155.6719 L125.5312 153.75 Q126.5625 153.5 127.0938 152.9062 Q127.625 152.3125 127.625 151.4062 Q127.625 150.5938 127.1953 150.1328 Q126.7656 149.6719 126.0312 149.6719 Q125.3594 149.6719 124.9297 150.0547 Q124.5 150.4375 124.3906 151.1562 L123.8125 151.1562 L123.8125 149.6406 Z" style="fill:black; stroke:none;" /><rect height="10" style="stroke:none;" width="6" x="109" y="148" /><path d="M111.1094 157.3906 Q111.1094 157.0625 111.3359 156.8359 Q111.5625 156.6094 111.8906 156.6094 Q112.2188 156.6094 112.4453 156.8359 Q112.6719 157.0625 112.6719 157.3906 Q112.6719 157.7188 112.4453 157.9453 Q112.2188 158.1719 111.8906 158.1719 Q111.5625 158.1719 111.3359 157.9453 Q111.1094 157.7188 111.1094 157.3906 ZM109.8125 149.6406 Q110.4375 149.3594 111 149.2266 Q111.5625 149.0938 112.0469 149.0938 Q113.3438 149.0938 114.1016 149.7188 Q114.8594 150.3438 114.8594 151.4062 Q114.8594 152.5 114.2109 153.1953 Q113.5625 153.8906 112.25 154.1875 L112.25 155.6719 L111.5312 155.6719 L111.5312 153.75 Q112.5625 153.5 113.0938 152.9062 Q113.625 152.3125 113.625 151.4062 Q113.625 150.5938 113.1953 150.1328 Q112.7656 149.6719 112.0312 149.6719 Q111.3594 149.6719 110.9297 150.0547 Q110.5 150.4375 110.3906 151.1562 L109.8125 151.1562 L109.8125 149.6406 Z" style="fill:black; stroke:none;" /></g><g ID="l-1:3,7" style="text-rendering:optimizeSpeed;"><polygon points=" 145 41 93 41" style="fill:none;" /></g><g ID="r-1:3" style="fill:white; text-rendering:optimizeSpeed; stroke:white;" wurcs_mono_id="6"><circle cx="145" cy="41" r="11" style="clip-path:url(#clipPath6); stroke:none;" /><rect height="22" style="clip-path:url(#clipPath6); fill:rgb(255,212,0); stroke:none;" width="22" x="134" y="30" /><rect height="22" style="clip-path:url(#clipPath6); fill:none; stroke:black;" width="22" x="134" y="30" /><circle cx="145" cy="41" r="11" style="fill:none; stroke:black;" /></g><g ID="r-1:7" style="fill:white; text-rendering:optimizeSpeed; stroke:white;" wurcs_mono_id="7"><rect height="22" style="clip-path:url(#clipPath7); stroke:none;" width="22" x="82" y="30" /><rect height="22" style="clip-path:url(#clipPath7); fill:rgb(0,144,188); stroke:none;" width="22" x="82" y="30" /><rect height="22" style="clip-path:url(#clipPath7); fill:none; stroke:black;" width="22" x="82" y="30" /><rect height="22" style="fill:none; stroke:black;" width="22" x="82" y="30" /></g><g ID="li-1:3,7" style="fill:white; text-rendering:optimizeSpeed; font-family:'Serif'; stroke:white;"><rect height="10" style="stroke:none;" width="6" x="123" y="44" /><path d="M125.1094 53.3906 Q125.1094 53.0625 125.3359 52.8359 Q125.5625 52.6094 125.8906 52.6094 Q126.2188 52.6094 126.4453 52.8359 Q126.6719 53.0625 126.6719 53.3906 Q126.6719 53.7188 126.4453 53.9453 Q126.2188 54.1719 125.8906 54.1719 Q125.5625 54.1719 125.3359 53.9453 Q125.1094 53.7188 125.1094 53.3906 ZM123.8125 45.6406 Q124.4375 45.3594 125 45.2266 Q125.5625 45.0938 126.0469 45.0938 Q127.3438 45.0938 128.1016 45.7188 Q128.8594 46.3438 128.8594 47.4062 Q128.8594 48.5 128.2109 49.1953 Q127.5625 49.8906 126.25 50.1875 L126.25 51.6719 L125.5312 51.6719 L125.5312 49.75 Q126.5625 49.5 127.0938 48.9062 Q127.625 48.3125 127.625 47.4062 Q127.625 46.5938 127.1953 46.1328 Q126.7656 45.6719 126.0312 45.6719 Q125.3594 45.6719 124.9297 46.0547 Q124.5 46.4375 124.3906 47.1562 L123.8125 47.1562 L123.8125 45.6406 Z" style="fill:black; stroke:none;" /><rect height="10" style="stroke:none;" width="6" x="109" y="44" /><path d="M111.1094 53.3906 Q111.1094 53.0625 111.3359 52.8359 Q111.5625 52.6094 111.8906 52.6094 Q112.2188 52.6094 112.4453 52.8359 Q112.6719 53.0625 112.6719 53.3906 Q112.6719 53.7188 112.4453 53.9453 Q112.2188 54.1719 111.8906 54.1719 Q111.5625 54.1719 111.3359 53.9453 Q111.1094 53.7188 111.1094 53.3906 ZM109.8125 45.6406 Q110.4375 45.3594 111 45.2266 Q111.5625 45.0938 112.0469 45.0938 Q113.3438 45.0938 114.1016 45.7188 Q114.8594 46.3438 114.8594 47.4062 Q114.8594 48.5 114.2109 49.1953 Q113.5625 49.8906 112.25 50.1875 L112.25 51.6719 L111.5312 51.6719 L111.5312 49.75 Q112.5625 49.5 113.0938 48.9062 Q113.625 48.3125 113.625 47.4062 Q113.625 46.5938 113.1953 46.1328 Q112.7656 45.6719 112.0312 45.6719 Q111.3594 45.6719 110.9297 46.0547 Q110.5 46.4375 110.3906 47.1562 L109.8125 47.1562 L109.8125 45.6406 Z" style="fill:black; stroke:none;" /></g><g ID="li-1:1,2" style="fill:white; text-rendering:optimizeSpeed; font-family:'Serif'; stroke:white;"><rect height="10" style="stroke:none;" width="6" x="183" y="110" /><path d="M185.1094 119.3906 Q185.1094 119.0625 185.3359 118.8359 Q185.5625 118.6094 185.8906 118.6094 Q186.2188 118.6094 186.4453 118.8359 Q186.6719 119.0625 186.6719 119.3906 Q186.6719 119.7188 186.4453 119.9453 Q186.2188 120.1719 185.8906 120.1719 Q185.5625 120.1719 185.3359 119.9453 Q185.1094 119.7188 185.1094 119.3906 ZM183.8125 111.6406 Q184.4375 111.3594 185 111.2266 Q185.5625 111.0938 186.0469 111.0938 Q187.3438 111.0938 188.1016 111.7188 Q188.8594 112.3438 188.8594 113.4062 Q188.8594 114.5 188.2109 115.1953 Q187.5625 115.8906 186.25 116.1875 L186.25 117.6719 L185.5312 117.6719 L185.5312 115.75 Q186.5625 115.5 187.0938 114.9062 Q187.625 114.3125 187.625 113.4062 Q187.625 112.5938 187.1953 112.1328 Q186.7656 111.6719 186.0312 111.6719 Q185.3594 111.6719 184.9297 112.0547 Q184.5 112.4375 184.3906 113.1562 L183.8125 113.1562 L183.8125 111.6406 Z" style="fill:black; stroke:none;" /><rect height="10" style="stroke:none;" width="6" x="164" y="129" /><path d="M166.1094 138.3906 Q166.1094 138.0625 166.3359 137.8359 Q166.5625 137.6094 166.8906 137.6094 Q167.2188 137.6094 167.4453 137.8359 Q167.6719 138.0625 167.6719 138.3906 Q167.6719 138.7188 167.4453 138.9453 Q167.2188 139.1719 166.8906 139.1719 Q166.5625 139.1719 166.3359 138.9453 Q166.1094 138.7188 166.1094 138.3906 ZM164.8125 130.6406 Q165.4375 130.3594 166 130.2266 Q166.5625 130.0938 167.0469 130.0938 Q168.3438 130.0938 169.1016 130.7188 Q169.8594 131.3438 169.8594 132.4062 Q169.8594 133.5 169.2109 134.1953 Q168.5625 134.8906 167.25 135.1875 L167.25 136.6719 L166.5312 136.6719 L166.5312 134.75 Q167.5625 134.5 168.0938 133.9062 Q168.625 133.3125 168.625 132.4062 Q168.625 131.5938 168.1953 131.1328 Q167.7656 130.6719 167.0312 130.6719 Q166.3594 130.6719 165.9297 131.0547 Q165.5 131.4375 165.3906 132.1562 L164.8125 132.1562 L164.8125 130.6406 Z" style="fill:black; stroke:none;" /></g><g ID="li-1:1,3" style="fill:white; text-rendering:optimizeSpeed; font-family:'Serif'; stroke:white;"><rect height="10" style="stroke:none;" width="6" x="171" y="77" /><path d="M173.1094 86.3906 Q173.1094 86.0625 173.3359 85.8359 Q173.5625 85.6094 173.8906 85.6094 Q174.2188 85.6094 174.4453 85.8359 Q174.6719 86.0625 174.6719 86.3906 Q174.6719 86.7188 174.4453 86.9453 Q174.2188 87.1719 173.8906 87.1719 Q173.5625 87.1719 173.3359 86.9453 Q173.1094 86.7188 173.1094 86.3906 ZM171.8125 78.6406 Q172.4375 78.3594 173 78.2266 Q173.5625 78.0938 174.0469 78.0938 Q175.3438 78.0938 176.1016 78.7188 Q176.8594 79.3438 176.8594 80.4062 Q176.8594 81.5 176.2109 82.1953 Q175.5625 82.8906 174.25 83.1875 L174.25 84.6719 L173.5312 84.6719 L173.5312 82.75 Q174.5625 82.5 175.0938 81.9062 Q175.625 81.3125 175.625 80.4062 Q175.625 79.5938 175.1953 79.1328 Q174.7656 78.6719 174.0312 78.6719 Q173.3594 78.6719 172.9297 79.0547 Q172.5 79.4375 172.3906 80.1562 L171.8125 80.1562 L171.8125 78.6406 Z" style="fill:black; stroke:none;" /><rect height="10" style="stroke:none;" width="6" x="153" y="58" /><path d="M155.1094 67.3906 Q155.1094 67.0625 155.3359 66.8359 Q155.5625 66.6094 155.8906 66.6094 Q156.2188 66.6094 156.4453 66.8359 Q156.6719 67.0625 156.6719 67.3906 Q156.6719 67.7188 156.4453 67.9453 Q156.2188 68.1719 155.8906 68.1719 Q155.5625 68.1719 155.3359 67.9453 Q155.1094 67.7188 155.1094 67.3906 ZM153.8125 59.6406 Q154.4375 59.3594 155 59.2266 Q155.5625 59.0938 156.0469 59.0938 Q157.3438 59.0938 158.1016 59.7188 Q158.8594 60.3438 158.8594 61.4062 Q158.8594 62.5 158.2109 63.1953 Q157.5625 63.8906 156.25 64.1875 L156.25 65.6719 L155.5312 65.6719 L155.5312 63.75 Q156.5625 63.5 157.0938 62.9062 Q157.625 62.3125 157.625 61.4062 Q157.625 60.5938 157.1953 60.1328 Q156.7656 59.6719 156.0312 59.6719 Q155.3594 59.6719 154.9297 60.0547 Q154.5 60.4375 154.3906 61.1562 L153.8125 61.1562 L153.8125 59.6406 Z" style="fill:black; stroke:none;" /></g></g></svg>