<svg xmlns="http://www.w3.org/2000/svg" style="fill-opacity:1; color-rendering:auto; color-interpolation:auto; text-rendering:auto; stroke:black; stroke-linecap:square; stroke-miterlimit:10; shape-rendering:auto; stroke-opacity:1; fill:black; stroke-dasharray:none; font-weight:normal; stroke-width:1; font-family:'Dialog'; font-style:normal; stroke-linejoin:miter; font-size:12px; stroke-dashoffset:0; image-rendering:auto;"><defs id="genericDefs" /><g><defs id="defs1"><clipPath clipPathUnits="userSpaceOnUse" id="clipPath1"><path d="M156 67 C156 73.0751 151.0751 78 145 78 C138.9249 78 134 73.0751 134 67 C134 60.9249 138.9249 56 145 56 C151.0751 56 156 60.9249 156 67 Z" /></clipPath><clipPath clipPathUnits="userSpaceOnUse" id="clipPath2"><path d="M104 93 C104 99.0751 99.0751 104 93 104 C86.9249 104 82 99.0751 82 93 C82 86.9249 86.9249 82 93 82 C99.0751 82 104 86.9249 104 93 Z" /></clipPath><clipPath clipPathUnits="userSpaceOnUse" id="clipPath3"><path d="M104 41 C104 47.0751 99.0751 52 93 52 C86.9249 52 82 47.0751 82 41 C82 34.9249 86.9249 30 93 30 C99.0751 30 104 34.9249 104 41 Z" /></clipPath><clipPath clipPathUnits="userSpaceOnUse" id="clipPath4"><path d="M52 41 C52 47.0751 47.0751 52 41 52 C34.9249 52 30 47.0751 30 41 C30 34.9249 34.9249 30 41 30 C47.0751 30 52 34.9249 52 41 Z" /></clipPath></defs><g style="fill:white; text-rendering:optimizeSpeed; stroke:white;"><rect height="134" style="stroke:none;" width="186" x="0" y="0" /></g><g ID="l-1:1,2" style="text-rendering:optimizeSpeed;"><polygon points=" 145 67 93 93" style="fill:none;" /></g><g ID="l-1:1,3" style="text-rendering:optimizeSpeed;"><polygon points=" 145 67 93 41" style="fill:none;" /></g><g ID="r-1:1" style="fill:white; text-rendering:optimizeSpeed; stroke:white;" wurcs_mono_id="1"><circle cx="145" cy="67" r="11" style="clip-path:url(#clipPath1); stroke:none;" /><rect height="22" style="clip-path:url(#clipPath1); fill:rgb(0,144,188); stroke:none;" width="22" x="134" y="56" /><rect height="22" style="clip-path:url(#clipPath1); fill:none; stroke:black;" width="22" x="134" y="56" /><circle cx="145" cy="67" r="11" style="fill:none; stroke:black;" /></g><g ID="r-1:2" style="fill:white; text-rendering:optimizeSpeed; stroke:white;" wurcs_mono_id="2"><circle cx="93" cy="93" r="11" style="clip-path:url(#clipPath2); stroke:none;" /><rect height="22" style="clip-path:url(#clipPath2); fill:rgb(0,144,188); stroke:none;" width="22" x="82" y="82" /><rect height="22" style="clip-path:url(#clipPath2); fill:none; stroke:black;" width="22" x="82" y="82" /><circle cx="93" cy="93" r="11" style="fill:none; stroke:black;" /></g><g ID="l-1:3,4" style="text-rendering:optimizeSpeed;"><polygon points=" 93 41 41 41" style="fill:none;" /></g><g ID="r-1:3" style="fill:white; text-rendering:optimizeSpeed; stroke:white;" wurcs_mono_id="3"><circle cx="93" cy="41" r="11" style="clip-path:url(#clipPath3); stroke:none;" /><rect height="22" style="clip-path:url(#clipPath3); fill:rgb(0,144,188); stroke:none;" width="22" x="82" y="30" /><rect height="22" style="clip-path:url(#clipPath3); fill:none; stroke:black;" width="22" x="82" y="30" /><circle cx="93" cy="41" r="11" style="fill:none; stroke:black;" /></g><g ID="r-1:4" style="fill:white; text-rendering:optimizeSpeed; stroke:white;" wurcs_mono_id="4"><circle cx="41" cy="41" r="11" style="clip-path:url(#clipPath4); stroke:none;" /><rect height="22" style="clip-path:url(#clipPath4); fill:rgb(0,144,188); stroke:none;" width="22" x="30" y="30" /><rect height="22" style="clip-path:url(#clipPath4); fill:none; stroke:black;" width="22" x="30" y="30" /><circle cx="41" cy="41" r="11" style="fill:none; stroke:black;" /></g><g ID="li-1:3,4" style="fill:white; text-rendering:optimizeSpeed; font-family:'Serif'; stroke:white;"><rect height="10" style="stroke:none;" width="7" x="70" y="44" /><path d="M71.1719 45.625 Q71.8594 45.3594 72.4844 45.2266 Q73.1094 45.0938 73.6562 45.0938 Q74.9531 45.0938 75.6719 45.6484 Q76.3906 46.2031 76.3906 47.1875 Q76.3906 47.9688 75.8906 48.5 Q75.3906 49.0312 74.4844 49.2188 Q75.5625 49.375 76.1562 50.0078 Q76.75 50.6406 76.75 51.6406 Q76.75 52.8594 75.9219 53.5156 Q75.0938 54.1719 73.5469 54.1719 Q72.8594 54.1719 72.2109 54.0234 Q71.5625 53.875 70.9219 53.5781 L70.9219 51.875 L71.5781 51.875 Q71.625 52.7188 72.1406 53.1562 Q72.6562 53.5938 73.5781 53.5938 Q74.4688 53.5938 74.9922 53.0703 Q75.5156 52.5469 75.5156 51.6562 Q75.5156 50.625 74.9766 50.0938 Q74.4375 49.5625 73.4062 49.5625 L72.8594 49.5625 L72.8594 48.9531 L73.1406 48.9531 Q74.1719 48.9531 74.6875 48.5312 Q75.2031 48.1094 75.2031 47.25 Q75.2031 46.4844 74.7812 46.0781 Q74.3594 45.6719 73.5625 45.6719 Q72.7656 45.6719 72.3359 46.0469 Q71.9062 46.4219 71.8281 47.1562 L71.1719 47.1562 L71.1719 45.625 Z" style="fill:black; stroke:none;" /><rect height="13" style="stroke:none;" width="7" x="56" y="42" /><path d="M57.8281 54.25 Q58.2969 54.5938 59.1719 54.5938 Q60.0625 54.5938 60.5781 54.0703 Q61.0938 53.5469 61.0938 52.6562 Q61.0938 51.4219 60.5625 50.8906 Q60.0156 50.3594 59 50.3594 L58.4375 50.3594 L58.4375 49.7188 L58.7344 49.7188 Q59.4844 49.7188 60 49.2969 Q60.4219 48.9531 60.4219 48.0156 Q60.4219 47.6094 60.1406 47.1406 Q59.6875 46.375 59.1562 46.3906 Q57.8281 46.4375 57.8281 48.7812 L57.8281 54.25 ZM56.75 57.5 L56.75 48.7812 Q56.75 46.3281 58.0781 46 Q58.7656 45.8125 59.25 45.8125 Q60.3438 45.8125 61.0469 46.6719 Q61.6094 47.3594 61.6094 47.9375 Q61.6094 48.7812 61.2031 49.2656 Q60.7969 49.75 60.0625 49.9844 Q61.1406 50.1406 61.75 50.7812 Q62.3281 51.4062 62.3281 52.6328 Q62.3281 53.8594 61.5078 54.5156 Q60.6875 55.1719 59.1406 55.1719 Q58.1875 55.1719 57.8281 55.0312 L57.8281 57.5 L56.75 57.5 Z" style="fill:black; stroke:none;" /></g><g ID="li-1:1,2" style="fill:white; text-rendering:optimizeSpeed; font-family:'Serif'; stroke:white;"><rect height="9" style="stroke:none;" width="7" x="126" y="78" /><path d="M127.5312 80.3438 L126.875 80.3438 L126.875 78.7812 Q127.5 78.4375 128.1406 78.2656 Q128.7812 78.0938 129.3906 78.0938 Q130.75 78.0938 131.5391 78.7578 Q132.3281 79.4219 132.3281 80.5469 Q132.3281 81.8438 130.5469 83.625 Q130.4062 83.7656 130.3281 83.8281 L128.125 86.0312 L131.7656 86.0312 L131.7656 84.9531 L132.4531 84.9531 L132.4531 87 L126.8125 87 L126.8125 86.3594 L129.4688 83.7188 Q130.3438 82.8281 130.7188 82.0938 Q131.0938 81.3594 131.0938 80.5469 Q131.0938 79.6719 130.6328 79.1719 Q130.1719 78.6719 129.375 78.6719 Q128.5312 78.6719 128.0781 79.0859 Q127.625 79.5 127.5312 80.3438 Z" style="fill:black; stroke:none;" /><rect height="13" style="stroke:none;" width="7" x="111" y="84" /><path d="M112.8281 96.25 Q113.2969 96.5938 114.1719 96.5938 Q115.0625 96.5938 115.5781 96.0703 Q116.0938 95.5469 116.0938 94.6562 Q116.0938 93.4219 115.5625 92.8906 Q115.0156 92.3594 114 92.3594 L113.4375 92.3594 L113.4375 91.7188 L113.7344 91.7188 Q114.4844 91.7188 115 91.2969 Q115.4219 90.9531 115.4219 90.0156 Q115.4219 89.6094 115.1406 89.1406 Q114.6875 88.375 114.1562 88.3906 Q112.8281 88.4375 112.8281 90.7812 L112.8281 96.25 ZM111.75 99.5 L111.75 90.7812 Q111.75 88.3281 113.0781 88 Q113.7656 87.8125 114.25 87.8125 Q115.3438 87.8125 116.0469 88.6719 Q116.6094 89.3594 116.6094 89.9375 Q116.6094 90.7812 116.2031 91.2656 Q115.7969 91.75 115.0625 91.9844 Q116.1406 92.1406 116.75 92.7812 Q117.3281 93.4062 117.3281 94.6328 Q117.3281 95.8594 116.5078 96.5156 Q115.6875 97.1719 114.1406 97.1719 Q113.1875 97.1719 112.8281 97.0312 L112.8281 99.5 L111.75 99.5 Z" style="fill:black; stroke:none;" /></g><g ID="li-1:1,3" style="fill:white; text-rendering:optimizeSpeed; font-family:'Serif'; stroke:white;"><rect height="10" style="stroke:none;" width="7" x="119" y="60" /><path d="M120.1719 61.625 Q120.8594 61.3594 121.4844 61.2266 Q122.1094 61.0938 122.6562 61.0938 Q123.9531 61.0938 124.6719 61.6484 Q125.3906 62.2031 125.3906 63.1875 Q125.3906 63.9688 124.8906 64.5 Q124.3906 65.0312 123.4844 65.2188 Q124.5625 65.375 125.1562 66.0078 Q125.75 66.6406 125.75 67.6406 Q125.75 68.8594 124.9219 69.5156 Q124.0938 70.1719 122.5469 70.1719 Q121.8594 70.1719 121.2109 70.0234 Q120.5625 69.875 119.9219 69.5781 L119.9219 67.875 L120.5781 67.875 Q120.625 68.7188 121.1406 69.1562 Q121.6562 69.5938 122.5781 69.5938 Q123.4688 69.5938 123.9922 69.0703 Q124.5156 68.5469 124.5156 67.6562 Q124.5156 66.625 123.9766 66.0938 Q123.4375 65.5625 122.4062 65.5625 L121.8594 65.5625 L121.8594 64.9531 L122.1406 64.9531 Q123.1719 64.9531 123.6875 64.5312 Q124.2031 64.1094 124.2031 63.25 Q124.2031 62.4844 123.7812 62.0781 Q123.3594 61.6719 122.5625 61.6719 Q121.7656 61.6719 121.3359 62.0469 Q120.9062 62.4219 120.8281 63.1562 L120.1719 63.1562 L120.1719 61.625 Z" style="fill:black; stroke:none;" /><rect height="13" style="stroke:none;" width="7" x="104" y="50" /><path d="M105.8281 62.25 Q106.2969 62.5938 107.1719 62.5938 Q108.0625 62.5938 108.5781 62.0703 Q109.0938 61.5469 109.0938 60.6562 Q109.0938 59.4219 108.5625 58.8906 Q108.0156 58.3594 107 58.3594 L106.4375 58.3594 L106.4375 57.7188 L106.7344 57.7188 Q107.4844 57.7188 108 57.2969 Q108.4219 56.9531 108.4219 56.0156 Q108.4219 55.6094 108.1406 55.1406 Q107.6875 54.375 107.1562 54.3906 Q105.8281 54.4375 105.8281 56.7812 L105.8281 62.25 ZM104.75 65.5 L104.75 56.7812 Q104.75 54.3281 106.0781 54 Q106.7656 53.8125 107.25 53.8125 Q108.3438 53.8125 109.0469 54.6719 Q109.6094 55.3594 109.6094 55.9375 Q109.6094 56.7812 109.2031 57.2656 Q108.7969 57.75 108.0625 57.9844 Q109.1406 58.1406 109.75 58.7812 Q110.3281 59.4062 110.3281 60.6328 Q110.3281 61.8594 109.5078 62.5156 Q108.6875 63.1719 107.1406 63.1719 Q106.1875 63.1719 105.8281 63.0312 L105.8281 65.5 L104.75 65.5 Z" style="fill:black; stroke:none;" /></g></g></svg>