<svg xmlns="http://www.w3.org/2000/svg" style="fill-opacity:1; color-rendering:auto; color-interpolation:auto; text-rendering:auto; stroke:black; stroke-linecap:square; stroke-miterlimit:10; shape-rendering:auto; stroke-opacity:1; fill:black; stroke-dasharray:none; font-weight:normal; stroke-width:1; font-family:'Dialog'; font-style:normal; stroke-linejoin:miter; font-size:12px; stroke-dashoffset:0; image-rendering:auto;"><defs id="genericDefs" /><g><defs id="defs1"><clipPath clipPathUnits="userSpaceOnUse" id="clipPath1"><path d="M186 56 L208 56 L208 78 L186 78 L186 56 Z" /></clipPath><clipPath clipPathUnits="userSpaceOnUse" id="clipPath2"><path d="M197 108 L208 130 L186 130 Z" style="fill-rule:evenodd;" /></clipPath><clipPath clipPathUnits="userSpaceOnUse" id="clipPath3"><path d="M134 56 L156 56 L156 78 L134 78 L134 56 Z" /></clipPath><clipPath clipPathUnits="userSpaceOnUse" id="clipPath4"><path d="M104 67 C104 73.0751 99.0751 78 93 78 C86.9249 78 82 73.0751 82 67 C82 60.9249 86.9249 56 93 56 C99.0751 56 104 60.9249 104 67 Z" /></clipPath><clipPath clipPathUnits="userSpaceOnUse" id="clipPath5"><path d="M52 93 C52 99.0751 47.0751 104 41 104 C34.9249 104 30 99.0751 30 93 C30 86.9249 34.9249 82 41 82 C47.0751 82 52 86.9249 52 93 Z" /></clipPath><clipPath clipPathUnits="userSpaceOnUse" id="clipPath6"><path d="M52 41 C52 47.0751 47.0751 52 41 52 C34.9249 52 30 47.0751 30 41 C30 34.9249 34.9249 30 41 30 C47.0751 30 52 34.9249 52 41 Z" /></clipPath></defs><g style="fill:white; text-rendering:optimizeSpeed; stroke:white;"><rect height="160" style="stroke:none;" width="238" x="0" y="0" /></g><g ID="l-1:1,2" style="text-rendering:optimizeSpeed;"><polygon points=" 197 67 197 119" style="fill:none;" /></g><g ID="l-1:1,3" style="text-rendering:optimizeSpeed;"><polygon points=" 197 67 145 67" style="fill:none;" /></g><g ID="r-1:1" style="fill:white; text-rendering:optimizeSpeed; stroke:white;" wurcs_mono_id="1"><rect height="22" style="clip-path:url(#clipPath1); stroke:none;" width="22" x="186" y="56" /><rect height="22" style="clip-path:url(#clipPath1); fill:rgb(0,144,188); stroke:none;" width="22" x="186" y="56" /><rect height="22" style="clip-path:url(#clipPath1); fill:none; stroke:black;" width="22" x="186" y="56" /><rect height="22" style="fill:none; stroke:black;" width="22" x="186" y="56" /></g><g ID="r-1:2" style="fill:white; text-rendering:optimizeSpeed; stroke:white;" wurcs_mono_id="2"><polygon points=" 197 108 208 130 186 130" style="stroke:none; clip-path:url(#clipPath2);" /><rect height="22" style="clip-path:url(#clipPath2); fill:rgb(237,28,36); stroke:none;" width="22" x="186" y="108" /><rect height="22" style="clip-path:url(#clipPath2); fill:none; stroke:black;" width="22" x="186" y="108" /><polygon points=" 197 108 208 130 186 130" style="fill:none; stroke:black;" /></g><g ID="l-1:3,4" style="text-rendering:optimizeSpeed;"><polygon points=" 145 67 93 67" style="fill:none;" /></g><g ID="r-1:3" style="fill:white; text-rendering:optimizeSpeed; stroke:white;" wurcs_mono_id="3"><rect height="22" style="clip-path:url(#clipPath3); stroke:none;" width="22" x="134" y="56" /><rect height="22" style="clip-path:url(#clipPath3); fill:rgb(0,144,188); stroke:none;" width="22" x="134" y="56" /><rect height="22" style="clip-path:url(#clipPath3); fill:none; stroke:black;" width="22" x="134" y="56" /><rect height="22" style="fill:none; stroke:black;" width="22" x="134" y="56" /></g><g ID="l-1:4,5" style="text-rendering:optimizeSpeed;"><polygon points=" 93 67 41 93" style="fill:none;" /></g><g ID="l-1:4,6" style="text-rendering:optimizeSpeed;"><polygon points=" 93 67 41 41" style="fill:none;" /></g><g ID="r-1:4" style="fill:white; text-rendering:optimizeSpeed; stroke:white;" wurcs_mono_id="4"><circle cx="93" cy="67" r="11" style="clip-path:url(#clipPath4); stroke:none;" /><rect height="22" style="clip-path:url(#clipPath4); fill:rgb(0,166,81); stroke:none;" width="22" x="82" y="56" /><rect height="22" style="clip-path:url(#clipPath4); fill:none; stroke:black;" width="22" x="82" y="56" /><circle cx="93" cy="67" r="11" style="fill:none; stroke:black;" /></g><g ID="r-1:5" style="fill:white; text-rendering:optimizeSpeed; stroke:white;" wurcs_mono_id="5"><circle cx="41" cy="93" r="11" style="clip-path:url(#clipPath5); stroke:none;" /><rect height="22" style="clip-path:url(#clipPath5); fill:rgb(0,166,81); stroke:none;" width="22" x="30" y="82" /><rect height="22" style="clip-path:url(#clipPath5); fill:none; stroke:black;" width="22" x="30" y="82" /><circle cx="41" cy="93" r="11" style="fill:none; stroke:black;" /></g><g ID="r-1:6" style="fill:white; text-rendering:optimizeSpeed; stroke:white;" wurcs_mono_id="6"><circle cx="41" cy="41" r="11" style="clip-path:url(#clipPath6); stroke:none;" /><rect height="22" style="clip-path:url(#clipPath6); fill:rgb(0,166,81); stroke:none;" width="22" x="30" y="30" /><rect height="22" style="clip-path:url(#clipPath6); fill:none; stroke:black;" width="22" x="30" y="30" /><circle cx="41" cy="41" r="11" style="fill:none; stroke:black;" /></g><g ID="li-1:4,5" style="fill:white; text-rendering:optimizeSpeed; font-family:'Serif'; stroke:white;"><rect height="9" style="stroke:none;" width="7" x="74" y="78" /><path d="M75.5312 80.3438 L74.875 80.3438 L74.875 78.7812 Q75.5 78.4375 76.1406 78.2656 Q76.7812 78.0938 77.3906 78.0938 Q78.75 78.0938 79.5391 78.7578 Q80.3281 79.4219 80.3281 80.5469 Q80.3281 81.8438 78.5469 83.625 Q78.4062 83.7656 78.3281 83.8281 L76.125 86.0312 L79.7656 86.0312 L79.7656 84.9531 L80.4531 84.9531 L80.4531 87 L74.8125 87 L74.8125 86.3594 L77.4688 83.7188 Q78.3438 82.8281 78.7188 82.0938 Q79.0938 81.3594 79.0938 80.5469 Q79.0938 79.6719 78.6328 79.1719 Q78.1719 78.6719 77.375 78.6719 Q76.5312 78.6719 76.0781 79.0859 Q75.625 79.5 75.5312 80.3438 Z" style="fill:black; stroke:none;" /><rect height="8" style="stroke:none;" width="8" x="58" y="87" /><path d="M63.1875 93.4688 L62.9531 94.1094 Q62.7656 94.625 62.2031 94.9375 Q61.8438 95.1562 61.2031 95.1406 Q60.0469 95.1406 59.3281 94.2344 Q58.5938 93.3281 58.5938 91.8594 Q58.5938 90.4219 59.3281 89.4844 Q60.0156 88.5938 61.4531 88.6094 Q62.4531 88.6094 62.9531 89 Q63.4062 89.3438 63.5781 90.0938 L63.625 90.3125 L63.8438 89.6719 Q64.0625 89.0469 64.6562 88.75 L65.25 88.75 L65.25 89.0938 Q64.6875 89.2656 64.5 89.8125 L63.8906 91.4844 L64.2969 93.2812 Q64.5 94.2031 64.7344 94.2969 Q65.0469 94.4375 65.7812 94 L65.7812 94.7188 Q64.5938 95.4062 63.75 94.6875 Q63.375 94.3594 63.2656 93.875 L63.1875 93.4688 ZM62.9219 92.3125 L62.5625 90.5938 Q62.2656 89.2188 61.4688 89.2188 Q60.7969 89.2031 60.2812 89.9375 Q59.8594 90.5156 59.8594 91.875 Q59.8594 93.1719 60.2812 93.8281 Q60.75 94.5469 61.5312 94.5 Q62.2031 94.4375 62.6875 93 L62.9219 92.3125 Z" style="fill:black; stroke:none;" /></g><g ID="li-1:4,6" style="fill:white; text-rendering:optimizeSpeed; font-family:'Serif'; stroke:white;"><rect height="10" style="stroke:none;" width="7" x="67" y="60" /><path d="M68.1719 61.625 Q68.8594 61.3594 69.4844 61.2266 Q70.1094 61.0938 70.6562 61.0938 Q71.9531 61.0938 72.6719 61.6484 Q73.3906 62.2031 73.3906 63.1875 Q73.3906 63.9688 72.8906 64.5 Q72.3906 65.0312 71.4844 65.2188 Q72.5625 65.375 73.1562 66.0078 Q73.75 66.6406 73.75 67.6406 Q73.75 68.8594 72.9219 69.5156 Q72.0938 70.1719 70.5469 70.1719 Q69.8594 70.1719 69.2109 70.0234 Q68.5625 69.875 67.9219 69.5781 L67.9219 67.875 L68.5781 67.875 Q68.625 68.7188 69.1406 69.1562 Q69.6562 69.5938 70.5781 69.5938 Q71.4688 69.5938 71.9922 69.0703 Q72.5156 68.5469 72.5156 67.6562 Q72.5156 66.625 71.9766 66.0938 Q71.4375 65.5625 70.4062 65.5625 L69.8594 65.5625 L69.8594 64.9531 L70.1406 64.9531 Q71.1719 64.9531 71.6875 64.5312 Q72.2031 64.1094 72.2031 63.25 Q72.2031 62.4844 71.7812 62.0781 Q71.3594 61.6719 70.5625 61.6719 Q69.7656 61.6719 69.3359 62.0469 Q68.9062 62.4219 68.8281 63.1562 L68.1719 63.1562 L68.1719 61.625 Z" style="fill:black; stroke:none;" /><rect height="13" style="stroke:none;" width="7" x="52" y="50" /><path d="M53.8281 62.25 Q54.2969 62.5938 55.1719 62.5938 Q56.0625 62.5938 56.5781 62.0703 Q57.0938 61.5469 57.0938 60.6562 Q57.0938 59.4219 56.5625 58.8906 Q56.0156 58.3594 55 58.3594 L54.4375 58.3594 L54.4375 57.7188 L54.7344 57.7188 Q55.4844 57.7188 56 57.2969 Q56.4219 56.9531 56.4219 56.0156 Q56.4219 55.6094 56.1406 55.1406 Q55.6875 54.375 55.1562 54.3906 Q53.8281 54.4375 53.8281 56.7812 L53.8281 62.25 ZM52.75 65.5 L52.75 56.7812 Q52.75 54.3281 54.0781 54 Q54.7656 53.8125 55.25 53.8125 Q56.3438 53.8125 57.0469 54.6719 Q57.6094 55.3594 57.6094 55.9375 Q57.6094 56.7812 57.2031 57.2656 Q56.7969 57.75 56.0625 57.9844 Q57.1406 58.1406 57.75 58.7812 Q58.3281 59.4062 58.3281 60.6328 Q58.3281 61.8594 57.5078 62.5156 Q56.6875 63.1719 55.1406 63.1719 Q54.1875 63.1719 53.8281 63.0312 L53.8281 65.5 L52.75 65.5 Z" style="fill:black; stroke:none;" /></g><g ID="li-1:3,4" style="fill:white; text-rendering:optimizeSpeed; font-family:'Serif'; stroke:white;"><rect height="9" style="stroke:none;" width="8" x="122" y="70" /><path d="M126.1875 76.0312 L126.1875 71.375 L123.2031 76.0312 L126.1875 76.0312 ZM128.7656 79 L124.7812 79 L124.7812 78.375 L126.1875 78.375 L126.1875 76.6562 L122.375 76.6562 L122.375 76.0156 L126.2031 70.0938 L127.3594 70.0938 L127.3594 76.0312 L129.0312 76.0312 L129.0312 76.6562 L127.3594 76.6562 L127.3594 78.375 L128.7656 78.375 L128.7656 79 Z" style="fill:black; stroke:none;" /><rect height="8" style="stroke:none;" width="8" x="108" y="71" /><path d="M113.1875 77.4688 L112.9531 78.1094 Q112.7656 78.625 112.2031 78.9375 Q111.8438 79.1562 111.2031 79.1406 Q110.0469 79.1406 109.3281 78.2344 Q108.5938 77.3281 108.5938 75.8594 Q108.5938 74.4219 109.3281 73.4844 Q110.0156 72.5938 111.4531 72.6094 Q112.4531 72.6094 112.9531 73 Q113.4062 73.3438 113.5781 74.0938 L113.625 74.3125 L113.8438 73.6719 Q114.0625 73.0469 114.6562 72.75 L115.25 72.75 L115.25 73.0938 Q114.6875 73.2656 114.5 73.8125 L113.8906 75.4844 L114.2969 77.2812 Q114.5 78.2031 114.7344 78.2969 Q115.0469 78.4375 115.7812 78 L115.7812 78.7188 Q114.5938 79.4062 113.75 78.6875 Q113.375 78.3594 113.2656 77.875 L113.1875 77.4688 ZM112.9219 76.3125 L112.5625 74.5938 Q112.2656 73.2188 111.4688 73.2188 Q110.7969 73.2031 110.2812 73.9375 Q109.8594 74.5156 109.8594 75.875 Q109.8594 77.1719 110.2812 77.8281 Q110.75 78.5469 111.5312 78.5 Q112.2031 78.4375 112.6875 77 L112.9219 76.3125 Z" style="fill:black; stroke:none;" /></g><g ID="li-1:1,2" style="fill:white; text-rendering:optimizeSpeed; font-family:'Serif'; stroke:white;"><rect height="10" style="stroke:none;" width="7" x="201" y="81" /><path d="M202.1719 82.625 Q202.8594 82.3594 203.4844 82.2266 Q204.1094 82.0938 204.6562 82.0938 Q205.9531 82.0938 206.6719 82.6484 Q207.3906 83.2031 207.3906 84.1875 Q207.3906 84.9688 206.8906 85.5 Q206.3906 86.0312 205.4844 86.2188 Q206.5625 86.375 207.1562 87.0078 Q207.75 87.6406 207.75 88.6406 Q207.75 89.8594 206.9219 90.5156 Q206.0938 91.1719 204.5469 91.1719 Q203.8594 91.1719 203.2109 91.0234 Q202.5625 90.875 201.9219 90.5781 L201.9219 88.875 L202.5781 88.875 Q202.625 89.7188 203.1406 90.1562 Q203.6562 90.5938 204.5781 90.5938 Q205.4688 90.5938 205.9922 90.0703 Q206.5156 89.5469 206.5156 88.6562 Q206.5156 87.625 205.9766 87.0938 Q205.4375 86.5625 204.4062 86.5625 L203.8594 86.5625 L203.8594 85.9531 L204.1406 85.9531 Q205.1719 85.9531 205.6875 85.5312 Q206.2031 85.1094 206.2031 84.25 Q206.2031 83.4844 205.7812 83.0781 Q205.3594 82.6719 204.5625 82.6719 Q203.7656 82.6719 203.3359 83.0469 Q202.9062 83.4219 202.8281 84.1562 L202.1719 84.1562 L202.1719 82.625 Z" style="fill:black; stroke:none;" /><rect height="8" style="stroke:none;" width="8" x="201" y="96" /><path d="M206.1875 102.4688 L205.9531 103.1094 Q205.7656 103.625 205.2031 103.9375 Q204.8438 104.1562 204.2031 104.1406 Q203.0469 104.1406 202.3281 103.2344 Q201.5938 102.3281 201.5938 100.8594 Q201.5938 99.4219 202.3281 98.4844 Q203.0156 97.5938 204.4531 97.6094 Q205.4531 97.6094 205.9531 98 Q206.4062 98.3438 206.5781 99.0938 L206.625 99.3125 L206.8438 98.6719 Q207.0625 98.0469 207.6562 97.75 L208.25 97.75 L208.25 98.0938 Q207.6875 98.2656 207.5 98.8125 L206.8906 100.4844 L207.2969 102.2812 Q207.5 103.2031 207.7344 103.2969 Q208.0469 103.4375 208.7812 103 L208.7812 103.7188 Q207.5938 104.4062 206.75 103.6875 Q206.375 103.3594 206.2656 102.875 L206.1875 102.4688 ZM205.9219 101.3125 L205.5625 99.5938 Q205.2656 98.2188 204.4688 98.2188 Q203.7969 98.2031 203.2812 98.9375 Q202.8594 99.5156 202.8594 100.875 Q202.8594 102.1719 203.2812 102.8281 Q203.75 103.5469 204.5312 103.5 Q205.2031 103.4375 205.6875 102 L205.9219 101.3125 Z" style="fill:black; stroke:none;" /></g><g ID="li-1:1,3" style="fill:white; text-rendering:optimizeSpeed; font-family:'Serif'; stroke:white;"><rect height="9" style="stroke:none;" width="8" x="174" y="70" /><path d="M178.1875 76.0312 L178.1875 71.375 L175.2031 76.0312 L178.1875 76.0312 ZM180.7656 79 L176.7812 79 L176.7812 78.375 L178.1875 78.375 L178.1875 76.6562 L174.375 76.6562 L174.375 76.0156 L178.2031 70.0938 L179.3594 70.0938 L179.3594 76.0312 L181.0312 76.0312 L181.0312 76.6562 L179.3594 76.6562 L179.3594 78.375 L180.7656 78.375 L180.7656 79 Z" style="fill:black; stroke:none;" /><rect height="13" style="stroke:none;" width="7" x="160" y="68" /><path d="M161.8281 80.25 Q162.2969 80.5938 163.1719 80.5938 Q164.0625 80.5938 164.5781 80.0703 Q165.0938 79.5469 165.0938 78.6562 Q165.0938 77.4219 164.5625 76.8906 Q164.0156 76.3594 163 76.3594 L162.4375 76.3594 L162.4375 75.7188 L162.7344 75.7188 Q163.4844 75.7188 164 75.2969 Q164.4219 74.9531 164.4219 74.0156 Q164.4219 73.6094 164.1406 73.1406 Q163.6875 72.375 163.1562 72.3906 Q161.8281 72.4375 161.8281 74.7812 L161.8281 80.25 ZM160.75 83.5 L160.75 74.7812 Q160.75 72.3281 162.0781 72 Q162.7656 71.8125 163.25 71.8125 Q164.3438 71.8125 165.0469 72.6719 Q165.6094 73.3594 165.6094 73.9375 Q165.6094 74.7812 165.2031 75.2656 Q164.7969 75.75 164.0625 75.9844 Q165.1406 76.1406 165.75 76.7812 Q166.3281 77.4062 166.3281 78.6328 Q166.3281 79.8594 165.5078 80.5156 Q164.6875 81.1719 163.1406 81.1719 Q162.1875 81.1719 161.8281 81.0312 L161.8281 83.5 L160.75 83.5 Z" style="fill:black; stroke:none;" /></g></g></svg>