<svg xmlns="http://www.w3.org/2000/svg" style="fill-opacity:1; color-rendering:auto; color-interpolation:auto; text-rendering:auto; stroke:black; stroke-linecap:square; stroke-miterlimit:10; shape-rendering:auto; stroke-opacity:1; fill:black; stroke-dasharray:none; font-weight:normal; stroke-width:1; font-family:'Dialog'; font-style:normal; stroke-linejoin:miter; font-size:12px; stroke-dashoffset:0; image-rendering:auto;"><defs id="genericDefs" /><g><defs id="defs1"><clipPath clipPathUnits="userSpaceOnUse" id="clipPath1"><path d="M342 134 L364 134 L364 156 L342 156 L342 134 Z" /></clipPath><clipPath clipPathUnits="userSpaceOnUse" id="clipPath2"><path d="M312 197 C312 203.0751 307.0751 208 301 208 C294.9249 208 290 203.0751 290 197 C290 190.9249 294.9249 186 301 186 C307.0751 186 312 190.9249 312 197 Z" /></clipPath><clipPath clipPathUnits="userSpaceOnUse" id="clipPath3"><path d="M249 186 L260 197 L249 208 L238 197 Z" style="fill-rule:evenodd;" /></clipPath><clipPath clipPathUnits="userSpaceOnUse" id="clipPath4"><path d="M290 82 L312 82 L312 104 L290 104 L290 82 Z" /></clipPath><clipPath clipPathUnits="userSpaceOnUse" id="clipPath5"><path d="M301 134 L312 156 L290 156 Z" style="fill-rule:evenodd;" /></clipPath><clipPath clipPathUnits="userSpaceOnUse" id="clipPath6"><path d="M260 93 C260 99.0751 255.0751 104 249 104 C242.9249 104 238 99.0751 238 93 C238 86.9249 242.9249 82 249 82 C255.0751 82 260 86.9249 260 93 Z" /></clipPath><clipPath clipPathUnits="userSpaceOnUse" id="clipPath7"><path d="M186 82 L208 82 L208 104 L186 104 L186 82 Z" /></clipPath><clipPath clipPathUnits="userSpaceOnUse" id="clipPath8"><path d="M156 93 C156 99.0751 151.0751 104 145 104 C138.9249 104 134 99.0751 134 93 C134 86.9249 138.9249 82 145 82 C151.0751 82 156 86.9249 156 93 Z" /></clipPath><clipPath clipPathUnits="userSpaceOnUse" id="clipPath9"><path d="M82 82 L104 82 L104 104 L82 104 L82 82 Z" /></clipPath><clipPath clipPathUnits="userSpaceOnUse" id="clipPath10"><path d="M52 93 C52 99.0751 47.0751 104 41 104 C34.9249 104 30 99.0751 30 93 C30 86.9249 34.9249 82 41 82 C47.0751 82 52 86.9249 52 93 Z" /></clipPath><clipPath clipPathUnits="userSpaceOnUse" id="clipPath11"><path d="M93 52 L82 30 L104 30 Z" style="fill-rule:evenodd;" /></clipPath></defs><g style="fill:white; text-rendering:optimizeSpeed; stroke:white;"><rect height="238" style="stroke:none;" width="394" x="0" y="0" /></g><g ID="l-1:1,2" style="text-rendering:optimizeSpeed;"><polygon points=" 353 145 301 197" style="fill:none;" /></g><g ID="l-1:1,3" style="text-rendering:optimizeSpeed;"><polygon points=" 353 145 301 93" style="fill:none;" /></g><g ID="r-1:1" style="fill:white; text-rendering:optimizeSpeed; stroke:white;" wurcs_mono_id="1"><rect height="22" style="clip-path:url(#clipPath1); stroke:none;" width="22" x="342" y="134" /><rect height="22" style="clip-path:url(#clipPath1); fill:rgb(255,212,0); stroke:none;" width="22" x="342" y="134" /><rect height="22" style="clip-path:url(#clipPath1); fill:none; stroke:black;" width="22" x="342" y="134" /><rect height="22" style="fill:none; stroke:black;" width="22" x="342" y="134" /></g><g style="font-style:italic; text-rendering:optimizeSpeed; font-size:10px; font-family:'SansSerif';"><path d="M354.0938 142.1562 Q353.375 142.1562 352.8359 142.7188 Q352.2969 143.2812 352.0781 144.2656 Q351.875 145.25 352.1719 145.8125 Q352.4688 146.375 353.2031 146.375 Q353.9219 146.375 354.4609 145.8125 Q355 145.25 355.2031 144.2656 Q355.4062 143.2969 355.1094 142.7266 Q354.8125 142.1562 354.0938 142.1562 ZM354.25 141.4062 Q355.4219 141.4062 355.9297 142.1641 Q356.4375 142.9219 356.1562 144.2656 Q355.875 145.6094 355.0391 146.375 Q354.2031 147.1406 353.0312 147.1406 Q351.8594 147.1406 351.3516 146.375 Q350.8438 145.6094 351.125 144.2656 Q351.4062 142.9219 352.2422 142.1641 Q353.0781 141.4062 354.25 141.4062 Z" style="stroke:none;" /></g><g ID="l-1:2,4" style="text-rendering:optimizeSpeed;"><polygon points=" 301 197 249 197" style="fill:none;" /></g><g ID="r-1:2" style="fill:white; text-rendering:optimizeSpeed; stroke:white;" wurcs_mono_id="2"><circle cx="301" cy="197" r="11" style="clip-path:url(#clipPath2); stroke:none;" /><rect height="22" style="clip-path:url(#clipPath2); fill:rgb(255,212,0); stroke:none;" width="22" x="290" y="186" /><rect height="22" style="clip-path:url(#clipPath2); fill:none; stroke:black;" width="22" x="290" y="186" /><circle cx="301" cy="197" r="11" style="fill:none; stroke:black;" /></g><g ID="r-1:4" style="fill:white; text-rendering:optimizeSpeed; stroke:white;" wurcs_mono_id="3"><polygon points=" 249 186 260 197 249 208 238 197" style="stroke:none; clip-path:url(#clipPath3);" /><rect height="22" style="clip-path:url(#clipPath3); fill:rgb(165,67,153); stroke:none;" width="22" x="238" y="186" /><rect height="22" style="clip-path:url(#clipPath3); fill:none; stroke:black;" width="22" x="238" y="186" /><polygon points=" 249 186 260 197 249 208 238 197" style="fill:none; stroke:black;" /></g><g ID="li-1:2,4" style="fill:white; text-rendering:optimizeSpeed; font-family:'Serif'; stroke:white;"><rect height="10" style="stroke:none;" width="7" x="278" y="200" /><path d="M279.1719 201.625 Q279.8594 201.3594 280.4844 201.2266 Q281.1094 201.0938 281.6562 201.0938 Q282.9531 201.0938 283.6719 201.6484 Q284.3906 202.2031 284.3906 203.1875 Q284.3906 203.9688 283.8906 204.5 Q283.3906 205.0312 282.4844 205.2188 Q283.5625 205.375 284.1562 206.0078 Q284.75 206.6406 284.75 207.6406 Q284.75 208.8594 283.9219 209.5156 Q283.0938 210.1719 281.5469 210.1719 Q280.8594 210.1719 280.2109 210.0234 Q279.5625 209.875 278.9219 209.5781 L278.9219 207.875 L279.5781 207.875 Q279.625 208.7188 280.1406 209.1562 Q280.6562 209.5938 281.5781 209.5938 Q282.4688 209.5938 282.9922 209.0703 Q283.5156 208.5469 283.5156 207.6562 Q283.5156 206.625 282.9766 206.0938 Q282.4375 205.5625 281.4062 205.5625 L280.8594 205.5625 L280.8594 204.9531 L281.1406 204.9531 Q282.1719 204.9531 282.6875 204.5312 Q283.2031 204.1094 283.2031 203.25 Q283.2031 202.4844 282.7812 202.0781 Q282.3594 201.6719 281.5625 201.6719 Q280.7656 201.6719 280.3359 202.0469 Q279.9062 202.4219 279.8281 203.1562 L279.1719 203.1562 L279.1719 201.625 Z" style="fill:black; stroke:none;" /><rect height="8" style="stroke:none;" width="8" x="264" y="201" /><path d="M269.1875 207.4688 L268.9531 208.1094 Q268.7656 208.625 268.2031 208.9375 Q267.8438 209.1562 267.2031 209.1406 Q266.0469 209.1406 265.3281 208.2344 Q264.5938 207.3281 264.5938 205.8594 Q264.5938 204.4219 265.3281 203.4844 Q266.0156 202.5938 267.4531 202.6094 Q268.4531 202.6094 268.9531 203 Q269.4062 203.3438 269.5781 204.0938 L269.625 204.3125 L269.8438 203.6719 Q270.0625 203.0469 270.6562 202.75 L271.25 202.75 L271.25 203.0938 Q270.6875 203.2656 270.5 203.8125 L269.8906 205.4844 L270.2969 207.2812 Q270.5 208.2031 270.7344 208.2969 Q271.0469 208.4375 271.7812 208 L271.7812 208.7188 Q270.5938 209.4062 269.75 208.6875 Q269.375 208.3594 269.2656 207.875 L269.1875 207.4688 ZM268.9219 206.3125 L268.5625 204.5938 Q268.2656 203.2188 267.4688 203.2188 Q266.7969 203.2031 266.2812 203.9375 Q265.8594 204.5156 265.8594 205.875 Q265.8594 207.1719 266.2812 207.8281 Q266.75 208.5469 267.5312 208.5 Q268.2031 208.4375 268.6875 207 L268.9219 206.3125 Z" style="fill:black; stroke:none;" /></g><g ID="l-1:3,5" style="text-rendering:optimizeSpeed;"><polygon points=" 301 93 301 145" style="fill:none;" /></g><g ID="l-1:3,6" style="text-rendering:optimizeSpeed;"><polygon points=" 301 93 249 93" style="fill:none;" /></g><g ID="r-1:3" style="fill:white; text-rendering:optimizeSpeed; stroke:white;" wurcs_mono_id="4"><rect height="22" style="clip-path:url(#clipPath4); stroke:none;" width="22" x="290" y="82" /><rect height="22" style="clip-path:url(#clipPath4); fill:rgb(0,144,188); stroke:none;" width="22" x="290" y="82" /><rect height="22" style="clip-path:url(#clipPath4); fill:none; stroke:black;" width="22" x="290" y="82" /><rect height="22" style="fill:none; stroke:black;" width="22" x="290" y="82" /></g><g ID="r-1:5" style="fill:white; text-rendering:optimizeSpeed; stroke:white;" wurcs_mono_id="5"><polygon points=" 301 134 312 156 290 156" style="stroke:none; clip-path:url(#clipPath5);" /><rect height="22" style="clip-path:url(#clipPath5); fill:rgb(237,28,36); stroke:none;" width="22" x="290" y="134" /><rect height="22" style="clip-path:url(#clipPath5); fill:none; stroke:black;" width="22" x="290" y="134" /><polygon points=" 301 134 312 156 290 156" style="fill:none; stroke:black;" /></g><g ID="l-1:6,7" style="text-rendering:optimizeSpeed;"><polygon points=" 249 93 197 93" style="fill:none;" /></g><g ID="r-1:6" style="fill:white; text-rendering:optimizeSpeed; stroke:white;" wurcs_mono_id="6"><circle cx="249" cy="93" r="11" style="clip-path:url(#clipPath6); stroke:none;" /><rect height="22" style="clip-path:url(#clipPath6); fill:rgb(255,212,0); stroke:none;" width="22" x="238" y="82" /><rect height="22" style="clip-path:url(#clipPath6); fill:none; stroke:black;" width="22" x="238" y="82" /><circle cx="249" cy="93" r="11" style="fill:none; stroke:black;" /></g><g ID="l-1:7,8" style="text-rendering:optimizeSpeed;"><polygon points=" 197 93 145 93" style="fill:none;" /></g><g ID="r-1:7" style="fill:white; text-rendering:optimizeSpeed; stroke:white;" wurcs_mono_id="7"><rect height="22" style="clip-path:url(#clipPath7); stroke:none;" width="22" x="186" y="82" /><rect height="22" style="clip-path:url(#clipPath7); fill:rgb(0,144,188); stroke:none;" width="22" x="186" y="82" /><rect height="22" style="clip-path:url(#clipPath7); fill:none; stroke:black;" width="22" x="186" y="82" /><rect height="22" style="fill:none; stroke:black;" width="22" x="186" y="82" /></g><g ID="l-1:8,9" style="text-rendering:optimizeSpeed;"><polygon points=" 145 93 93 93" style="fill:none;" /></g><g ID="r-1:8" style="fill:white; text-rendering:optimizeSpeed; stroke:white;" wurcs_mono_id="8"><circle cx="145" cy="93" r="11" style="clip-path:url(#clipPath8); stroke:none;" /><rect height="22" style="clip-path:url(#clipPath8); fill:rgb(255,212,0); stroke:none;" width="22" x="134" y="82" /><rect height="22" style="clip-path:url(#clipPath8); fill:none; stroke:black;" width="22" x="134" y="82" /><circle cx="145" cy="93" r="11" style="fill:none; stroke:black;" /></g><g ID="l-1:9,10" style="text-rendering:optimizeSpeed;"><polygon points=" 93 93 41 93" style="fill:none;" /></g><g ID="l-1:9,11" style="text-rendering:optimizeSpeed;"><polygon points=" 93 93 93 41" style="fill:none;" /></g><g ID="r-1:9" style="fill:white; text-rendering:optimizeSpeed; stroke:white;" wurcs_mono_id="9"><rect height="22" style="clip-path:url(#clipPath9); stroke:none;" width="22" x="82" y="82" /><rect height="22" style="clip-path:url(#clipPath9); fill:rgb(0,144,188); stroke:none;" width="22" x="82" y="82" /><rect height="22" style="clip-path:url(#clipPath9); fill:none; stroke:black;" width="22" x="82" y="82" /><rect height="22" style="fill:none; stroke:black;" width="22" x="82" y="82" /></g><g ID="r-1:10" style="fill:white; text-rendering:optimizeSpeed; stroke:white;" wurcs_mono_id="10"><circle cx="41" cy="93" r="11" style="clip-path:url(#clipPath10); stroke:none;" /><rect height="22" style="clip-path:url(#clipPath10); fill:rgb(255,212,0); stroke:none;" width="22" x="30" y="82" /><rect height="22" style="clip-path:url(#clipPath10); fill:none; stroke:black;" width="22" x="30" y="82" /><circle cx="41" cy="93" r="11" style="fill:none; stroke:black;" /></g><g ID="r-1:11" style="fill:white; text-rendering:optimizeSpeed; stroke:white;" wurcs_mono_id="11"><polygon points=" 93 52 82 30 104 30" style="stroke:none; clip-path:url(#clipPath11);" /><rect height="22" style="clip-path:url(#clipPath11); fill:rgb(237,28,36); stroke:none;" width="22" x="82" y="30" /><rect height="22" style="clip-path:url(#clipPath11); fill:none; stroke:black;" width="22" x="82" y="30" /><polygon points=" 93 52 82 30 104 30" style="fill:none; stroke:black;" /></g><g ID="li-1:9,10" style="fill:white; text-rendering:optimizeSpeed; font-family:'Serif'; stroke:white;"><rect height="10" style="stroke:none;" width="7" x="70" y="96" /><path d="M71.1719 97.625 Q71.8594 97.3594 72.4844 97.2266 Q73.1094 97.0938 73.6562 97.0938 Q74.9531 97.0938 75.6719 97.6484 Q76.3906 98.2031 76.3906 99.1875 Q76.3906 99.9688 75.8906 100.5 Q75.3906 101.0312 74.4844 101.2188 Q75.5625 101.375 76.1562 102.0078 Q76.75 102.6406 76.75 103.6406 Q76.75 104.8594 75.9219 105.5156 Q75.0938 106.1719 73.5469 106.1719 Q72.8594 106.1719 72.2109 106.0234 Q71.5625 105.875 70.9219 105.5781 L70.9219 103.875 L71.5781 103.875 Q71.625 104.7188 72.1406 105.1562 Q72.6562 105.5938 73.5781 105.5938 Q74.4688 105.5938 74.9922 105.0703 Q75.5156 104.5469 75.5156 103.6562 Q75.5156 102.625 74.9766 102.0938 Q74.4375 101.5625 73.4062 101.5625 L72.8594 101.5625 L72.8594 100.9531 L73.1406 100.9531 Q74.1719 100.9531 74.6875 100.5312 Q75.2031 100.1094 75.2031 99.25 Q75.2031 98.4844 74.7812 98.0781 Q74.3594 97.6719 73.5625 97.6719 Q72.7656 97.6719 72.3359 98.0469 Q71.9062 98.4219 71.8281 99.1562 L71.1719 99.1562 L71.1719 97.625 Z" style="fill:black; stroke:none;" /><rect height="13" style="stroke:none;" width="7" x="56" y="94" /><path d="M57.8281 106.25 Q58.2969 106.5938 59.1719 106.5938 Q60.0625 106.5938 60.5781 106.0703 Q61.0938 105.5469 61.0938 104.6562 Q61.0938 103.4219 60.5625 102.8906 Q60.0156 102.3594 59 102.3594 L58.4375 102.3594 L58.4375 101.7188 L58.7344 101.7188 Q59.4844 101.7188 60 101.2969 Q60.4219 100.9531 60.4219 100.0156 Q60.4219 99.6094 60.1406 99.1406 Q59.6875 98.375 59.1562 98.3906 Q57.8281 98.4375 57.8281 100.7812 L57.8281 106.25 ZM56.75 109.5 L56.75 100.7812 Q56.75 98.3281 58.0781 98 Q58.7656 97.8125 59.25 97.8125 Q60.3438 97.8125 61.0469 98.6719 Q61.6094 99.3594 61.6094 99.9375 Q61.6094 100.7812 61.2031 101.2656 Q60.7969 101.75 60.0625 101.9844 Q61.1406 102.1406 61.75 102.7812 Q62.3281 103.4062 62.3281 104.6328 Q62.3281 105.8594 61.5078 106.5156 Q60.6875 107.1719 59.1406 107.1719 Q58.1875 107.1719 57.8281 107.0312 L57.8281 109.5 L56.75 109.5 Z" style="fill:black; stroke:none;" /></g><g ID="li-1:9,11" style="fill:white; text-rendering:optimizeSpeed; font-family:'Serif'; stroke:white;"><rect height="9" style="stroke:none;" width="8" x="81" y="69" /><path d="M85.1875 75.0312 L85.1875 70.375 L82.2031 75.0312 L85.1875 75.0312 ZM87.7656 78 L83.7812 78 L83.7812 77.375 L85.1875 77.375 L85.1875 75.6562 L81.375 75.6562 L81.375 75.0156 L85.2031 69.0938 L86.3594 69.0938 L86.3594 75.0312 L88.0312 75.0312 L88.0312 75.6562 L86.3594 75.6562 L86.3594 77.375 L87.7656 77.375 L87.7656 78 Z" style="fill:black; stroke:none;" /><rect height="8" style="stroke:none;" width="8" x="81" y="56" /><path d="M86.1875 62.4688 L85.9531 63.1094 Q85.7656 63.625 85.2031 63.9375 Q84.8438 64.1562 84.2031 64.1406 Q83.0469 64.1406 82.3281 63.2344 Q81.5938 62.3281 81.5938 60.8594 Q81.5938 59.4219 82.3281 58.4844 Q83.0156 57.5938 84.4531 57.6094 Q85.4531 57.6094 85.9531 58 Q86.4062 58.3438 86.5781 59.0938 L86.625 59.3125 L86.8438 58.6719 Q87.0625 58.0469 87.6562 57.75 L88.25 57.75 L88.25 58.0938 Q87.6875 58.2656 87.5 58.8125 L86.8906 60.4844 L87.2969 62.2812 Q87.5 63.2031 87.7344 63.2969 Q88.0469 63.4375 88.7812 63 L88.7812 63.7188 Q87.5938 64.4062 86.75 63.6875 Q86.375 63.3594 86.2656 62.875 L86.1875 62.4688 ZM85.9219 61.3125 L85.5625 59.5938 Q85.2656 58.2188 84.4688 58.2188 Q83.7969 58.2031 83.2812 58.9375 Q82.8594 59.5156 82.8594 60.875 Q82.8594 62.1719 83.2812 62.8281 Q83.75 63.5469 84.5312 63.5 Q85.2031 63.4375 85.6875 62 L85.9219 61.3125 Z" style="fill:black; stroke:none;" /></g><g ID="li-1:8,9" style="fill:white; text-rendering:optimizeSpeed; font-family:'Serif'; stroke:white;"><rect height="10" style="stroke:none;" width="7" x="122" y="96" /><path d="M123.1719 97.625 Q123.8594 97.3594 124.4844 97.2266 Q125.1094 97.0938 125.6562 97.0938 Q126.9531 97.0938 127.6719 97.6484 Q128.3906 98.2031 128.3906 99.1875 Q128.3906 99.9688 127.8906 100.5 Q127.3906 101.0312 126.4844 101.2188 Q127.5625 101.375 128.1562 102.0078 Q128.75 102.6406 128.75 103.6406 Q128.75 104.8594 127.9219 105.5156 Q127.0938 106.1719 125.5469 106.1719 Q124.8594 106.1719 124.2109 106.0234 Q123.5625 105.875 122.9219 105.5781 L122.9219 103.875 L123.5781 103.875 Q123.625 104.7188 124.1406 105.1562 Q124.6562 105.5938 125.5781 105.5938 Q126.4688 105.5938 126.9922 105.0703 Q127.5156 104.5469 127.5156 103.6562 Q127.5156 102.625 126.9766 102.0938 Q126.4375 101.5625 125.4062 101.5625 L124.8594 101.5625 L124.8594 100.9531 L125.1406 100.9531 Q126.1719 100.9531 126.6875 100.5312 Q127.2031 100.1094 127.2031 99.25 Q127.2031 98.4844 126.7812 98.0781 Q126.3594 97.6719 125.5625 97.6719 Q124.7656 97.6719 124.3359 98.0469 Q123.9062 98.4219 123.8281 99.1562 L123.1719 99.1562 L123.1719 97.625 Z" style="fill:black; stroke:none;" /><rect height="13" style="stroke:none;" width="7" x="108" y="94" /><path d="M109.8281 106.25 Q110.2969 106.5938 111.1719 106.5938 Q112.0625 106.5938 112.5781 106.0703 Q113.0938 105.5469 113.0938 104.6562 Q113.0938 103.4219 112.5625 102.8906 Q112.0156 102.3594 111 102.3594 L110.4375 102.3594 L110.4375 101.7188 L110.7344 101.7188 Q111.4844 101.7188 112 101.2969 Q112.4219 100.9531 112.4219 100.0156 Q112.4219 99.6094 112.1406 99.1406 Q111.6875 98.375 111.1562 98.3906 Q109.8281 98.4375 109.8281 100.7812 L109.8281 106.25 ZM108.75 109.5 L108.75 100.7812 Q108.75 98.3281 110.0781 98 Q110.7656 97.8125 111.25 97.8125 Q112.3438 97.8125 113.0469 98.6719 Q113.6094 99.3594 113.6094 99.9375 Q113.6094 100.7812 113.2031 101.2656 Q112.7969 101.75 112.0625 101.9844 Q113.1406 102.1406 113.75 102.7812 Q114.3281 103.4062 114.3281 104.6328 Q114.3281 105.8594 113.5078 106.5156 Q112.6875 107.1719 111.1406 107.1719 Q110.1875 107.1719 109.8281 107.0312 L109.8281 109.5 L108.75 109.5 Z" style="fill:black; stroke:none;" /></g><g ID="li-1:7,8" style="fill:white; text-rendering:optimizeSpeed; font-family:'Serif'; stroke:white;"><rect height="9" style="stroke:none;" width="8" x="174" y="96" /><path d="M178.1875 102.0312 L178.1875 97.375 L175.2031 102.0312 L178.1875 102.0312 ZM180.7656 105 L176.7812 105 L176.7812 104.375 L178.1875 104.375 L178.1875 102.6562 L174.375 102.6562 L174.375 102.0156 L178.2031 96.0938 L179.3594 96.0938 L179.3594 102.0312 L181.0312 102.0312 L181.0312 102.6562 L179.3594 102.6562 L179.3594 104.375 L180.7656 104.375 L180.7656 105 Z" style="fill:black; stroke:none;" /><rect height="13" style="stroke:none;" width="7" x="160" y="94" /><path d="M161.8281 106.25 Q162.2969 106.5938 163.1719 106.5938 Q164.0625 106.5938 164.5781 106.0703 Q165.0938 105.5469 165.0938 104.6562 Q165.0938 103.4219 164.5625 102.8906 Q164.0156 102.3594 163 102.3594 L162.4375 102.3594 L162.4375 101.7188 L162.7344 101.7188 Q163.4844 101.7188 164 101.2969 Q164.4219 100.9531 164.4219 100.0156 Q164.4219 99.6094 164.1406 99.1406 Q163.6875 98.375 163.1562 98.3906 Q161.8281 98.4375 161.8281 100.7812 L161.8281 106.25 ZM160.75 109.5 L160.75 100.7812 Q160.75 98.3281 162.0781 98 Q162.7656 97.8125 163.25 97.8125 Q164.3438 97.8125 165.0469 98.6719 Q165.6094 99.3594 165.6094 99.9375 Q165.6094 100.7812 165.2031 101.2656 Q164.7969 101.75 164.0625 101.9844 Q165.1406 102.1406 165.75 102.7812 Q166.3281 103.4062 166.3281 104.6328 Q166.3281 105.8594 165.5078 106.5156 Q164.6875 107.1719 163.1406 107.1719 Q162.1875 107.1719 161.8281 107.0312 L161.8281 109.5 L160.75 109.5 Z" style="fill:black; stroke:none;" /></g><g ID="li-1:6,7" style="fill:white; text-rendering:optimizeSpeed; font-family:'Serif'; stroke:white;"><rect height="10" style="stroke:none;" width="7" x="226" y="96" /><path d="M227.1719 97.625 Q227.8594 97.3594 228.4844 97.2266 Q229.1094 97.0938 229.6562 97.0938 Q230.9531 97.0938 231.6719 97.6484 Q232.3906 98.2031 232.3906 99.1875 Q232.3906 99.9688 231.8906 100.5 Q231.3906 101.0312 230.4844 101.2188 Q231.5625 101.375 232.1562 102.0078 Q232.75 102.6406 232.75 103.6406 Q232.75 104.8594 231.9219 105.5156 Q231.0938 106.1719 229.5469 106.1719 Q228.8594 106.1719 228.2109 106.0234 Q227.5625 105.875 226.9219 105.5781 L226.9219 103.875 L227.5781 103.875 Q227.625 104.7188 228.1406 105.1562 Q228.6562 105.5938 229.5781 105.5938 Q230.4688 105.5938 230.9922 105.0703 Q231.5156 104.5469 231.5156 103.6562 Q231.5156 102.625 230.9766 102.0938 Q230.4375 101.5625 229.4062 101.5625 L228.8594 101.5625 L228.8594 100.9531 L229.1406 100.9531 Q230.1719 100.9531 230.6875 100.5312 Q231.2031 100.1094 231.2031 99.25 Q231.2031 98.4844 230.7812 98.0781 Q230.3594 97.6719 229.5625 97.6719 Q228.7656 97.6719 228.3359 98.0469 Q227.9062 98.4219 227.8281 99.1562 L227.1719 99.1562 L227.1719 97.625 Z" style="fill:black; stroke:none;" /><rect height="13" style="stroke:none;" width="7" x="212" y="94" /><path d="M213.8281 106.25 Q214.2969 106.5938 215.1719 106.5938 Q216.0625 106.5938 216.5781 106.0703 Q217.0938 105.5469 217.0938 104.6562 Q217.0938 103.4219 216.5625 102.8906 Q216.0156 102.3594 215 102.3594 L214.4375 102.3594 L214.4375 101.7188 L214.7344 101.7188 Q215.4844 101.7188 216 101.2969 Q216.4219 100.9531 216.4219 100.0156 Q216.4219 99.6094 216.1406 99.1406 Q215.6875 98.375 215.1562 98.3906 Q213.8281 98.4375 213.8281 100.7812 L213.8281 106.25 ZM212.75 109.5 L212.75 100.7812 Q212.75 98.3281 214.0781 98 Q214.7656 97.8125 215.25 97.8125 Q216.3438 97.8125 217.0469 98.6719 Q217.6094 99.3594 217.6094 99.9375 Q217.6094 100.7812 217.2031 101.2656 Q216.7969 101.75 216.0625 101.9844 Q217.1406 102.1406 217.75 102.7812 Q218.3281 103.4062 218.3281 104.6328 Q218.3281 105.8594 217.5078 106.5156 Q216.6875 107.1719 215.1406 107.1719 Q214.1875 107.1719 213.8281 107.0312 L213.8281 109.5 L212.75 109.5 Z" style="fill:black; stroke:none;" /></g><g ID="li-1:3,5" style="fill:white; text-rendering:optimizeSpeed; font-family:'Serif'; stroke:white;"><rect height="10" style="stroke:none;" width="7" x="305" y="107" /><path d="M306.1719 108.625 Q306.8594 108.3594 307.4844 108.2266 Q308.1094 108.0938 308.6562 108.0938 Q309.9531 108.0938 310.6719 108.6484 Q311.3906 109.2031 311.3906 110.1875 Q311.3906 110.9688 310.8906 111.5 Q310.3906 112.0312 309.4844 112.2188 Q310.5625 112.375 311.1562 113.0078 Q311.75 113.6406 311.75 114.6406 Q311.75 115.8594 310.9219 116.5156 Q310.0938 117.1719 308.5469 117.1719 Q307.8594 117.1719 307.2109 117.0234 Q306.5625 116.875 305.9219 116.5781 L305.9219 114.875 L306.5781 114.875 Q306.625 115.7188 307.1406 116.1562 Q307.6562 116.5938 308.5781 116.5938 Q309.4688 116.5938 309.9922 116.0703 Q310.5156 115.5469 310.5156 114.6562 Q310.5156 113.625 309.9766 113.0938 Q309.4375 112.5625 308.4062 112.5625 L307.8594 112.5625 L307.8594 111.9531 L308.1406 111.9531 Q309.1719 111.9531 309.6875 111.5312 Q310.2031 111.1094 310.2031 110.25 Q310.2031 109.4844 309.7812 109.0781 Q309.3594 108.6719 308.5625 108.6719 Q307.7656 108.6719 307.3359 109.0469 Q306.9062 109.4219 306.8281 110.1562 L306.1719 110.1562 L306.1719 108.625 Z" style="fill:black; stroke:none;" /><rect height="8" style="stroke:none;" width="8" x="305" y="122" /><path d="M310.1875 128.4688 L309.9531 129.1094 Q309.7656 129.625 309.2031 129.9375 Q308.8438 130.1562 308.2031 130.1406 Q307.0469 130.1406 306.3281 129.2344 Q305.5938 128.3281 305.5938 126.8594 Q305.5938 125.4219 306.3281 124.4844 Q307.0156 123.5938 308.4531 123.6094 Q309.4531 123.6094 309.9531 124 Q310.4062 124.3438 310.5781 125.0938 L310.625 125.3125 L310.8438 124.6719 Q311.0625 124.0469 311.6562 123.75 L312.25 123.75 L312.25 124.0938 Q311.6875 124.2656 311.5 124.8125 L310.8906 126.4844 L311.2969 128.2812 Q311.5 129.2031 311.7344 129.2969 Q312.0469 129.4375 312.7812 129 L312.7812 129.7188 Q311.5938 130.4062 310.75 129.6875 Q310.375 129.3594 310.2656 128.875 L310.1875 128.4688 ZM309.9219 127.3125 L309.5625 125.5938 Q309.2656 124.2188 308.4688 124.2188 Q307.7969 124.2031 307.2812 124.9375 Q306.8594 125.5156 306.8594 126.875 Q306.8594 128.1719 307.2812 128.8281 Q307.75 129.5469 308.5312 129.5 Q309.2031 129.4375 309.6875 128 L309.9219 127.3125 Z" style="fill:black; stroke:none;" /></g><g ID="li-1:3,6" style="fill:white; text-rendering:optimizeSpeed; font-family:'Serif'; stroke:white;"><rect height="9" style="stroke:none;" width="8" x="278" y="96" /><path d="M282.1875 102.0312 L282.1875 97.375 L279.2031 102.0312 L282.1875 102.0312 ZM284.7656 105 L280.7812 105 L280.7812 104.375 L282.1875 104.375 L282.1875 102.6562 L278.375 102.6562 L278.375 102.0156 L282.2031 96.0938 L283.3594 96.0938 L283.3594 102.0312 L285.0312 102.0312 L285.0312 102.6562 L283.3594 102.6562 L283.3594 104.375 L284.7656 104.375 L284.7656 105 Z" style="fill:black; stroke:none;" /><rect height="13" style="stroke:none;" width="7" x="264" y="94" /><path d="M265.8281 106.25 Q266.2969 106.5938 267.1719 106.5938 Q268.0625 106.5938 268.5781 106.0703 Q269.0938 105.5469 269.0938 104.6562 Q269.0938 103.4219 268.5625 102.8906 Q268.0156 102.3594 267 102.3594 L266.4375 102.3594 L266.4375 101.7188 L266.7344 101.7188 Q267.4844 101.7188 268 101.2969 Q268.4219 100.9531 268.4219 100.0156 Q268.4219 99.6094 268.1406 99.1406 Q267.6875 98.375 267.1562 98.3906 Q265.8281 98.4375 265.8281 100.7812 L265.8281 106.25 ZM264.75 109.5 L264.75 100.7812 Q264.75 98.3281 266.0781 98 Q266.7656 97.8125 267.25 97.8125 Q268.3438 97.8125 269.0469 98.6719 Q269.6094 99.3594 269.6094 99.9375 Q269.6094 100.7812 269.2031 101.2656 Q268.7969 101.75 268.0625 101.9844 Q269.1406 102.1406 269.75 102.7812 Q270.3281 103.4062 270.3281 104.6328 Q270.3281 105.8594 269.5078 106.5156 Q268.6875 107.1719 267.1406 107.1719 Q266.1875 107.1719 265.8281 107.0312 L265.8281 109.5 L264.75 109.5 Z" style="fill:black; stroke:none;" /></g><g ID="li-1:1,2" style="fill:white; text-rendering:optimizeSpeed; font-family:'Serif'; stroke:white;"><rect height="10" style="stroke:none;" width="7" x="338" y="162" /><path d="M339.1719 163.625 Q339.8594 163.3594 340.4844 163.2266 Q341.1094 163.0938 341.6562 163.0938 Q342.9531 163.0938 343.6719 163.6484 Q344.3906 164.2031 344.3906 165.1875 Q344.3906 165.9688 343.8906 166.5 Q343.3906 167.0312 342.4844 167.2188 Q343.5625 167.375 344.1562 168.0078 Q344.75 168.6406 344.75 169.6406 Q344.75 170.8594 343.9219 171.5156 Q343.0938 172.1719 341.5469 172.1719 Q340.8594 172.1719 340.2109 172.0234 Q339.5625 171.875 338.9219 171.5781 L338.9219 169.875 L339.5781 169.875 Q339.625 170.7188 340.1406 171.1562 Q340.6562 171.5938 341.5781 171.5938 Q342.4688 171.5938 342.9922 171.0703 Q343.5156 170.5469 343.5156 169.6562 Q343.5156 168.625 342.9766 168.0938 Q342.4375 167.5625 341.4062 167.5625 L340.8594 167.5625 L340.8594 166.9531 L341.1406 166.9531 Q342.1719 166.9531 342.6875 166.5312 Q343.2031 166.1094 343.2031 165.25 Q343.2031 164.4844 342.7812 164.0781 Q342.3594 163.6719 341.5625 163.6719 Q340.7656 163.6719 340.3359 164.0469 Q339.9062 164.4219 339.8281 165.1562 L339.1719 165.1562 L339.1719 163.625 Z" style="fill:black; stroke:none;" /><rect height="13" style="stroke:none;" width="7" x="319" y="179" /><path d="M320.8281 191.25 Q321.2969 191.5938 322.1719 191.5938 Q323.0625 191.5938 323.5781 191.0703 Q324.0938 190.5469 324.0938 189.6562 Q324.0938 188.4219 323.5625 187.8906 Q323.0156 187.3594 322 187.3594 L321.4375 187.3594 L321.4375 186.7188 L321.7344 186.7188 Q322.4844 186.7188 323 186.2969 Q323.4219 185.9531 323.4219 185.0156 Q323.4219 184.6094 323.1406 184.1406 Q322.6875 183.375 322.1562 183.3906 Q320.8281 183.4375 320.8281 185.7812 L320.8281 191.25 ZM319.75 194.5 L319.75 185.7812 Q319.75 183.3281 321.0781 183 Q321.7656 182.8125 322.25 182.8125 Q323.3438 182.8125 324.0469 183.6719 Q324.6094 184.3594 324.6094 184.9375 Q324.6094 185.7812 324.2031 186.2656 Q323.7969 186.75 323.0625 186.9844 Q324.1406 187.1406 324.75 187.7812 Q325.3281 188.4062 325.3281 189.6328 Q325.3281 190.8594 324.5078 191.5156 Q323.6875 192.1719 322.1406 192.1719 Q321.1875 192.1719 320.8281 192.0312 L320.8281 194.5 L319.75 194.5 Z" style="fill:black; stroke:none;" /></g><g ID="li-1:1,3" style="fill:white; text-rendering:optimizeSpeed; font-family:'Serif'; stroke:white;"><rect height="10" style="stroke:none;" width="7" x="327" y="129" /><path d="M330.9219 138.5938 Q331.75 138.5938 332.1953 137.9844 Q332.6406 137.375 332.6406 136.2344 Q332.6406 135.1094 332.1953 134.5 Q331.75 133.8906 330.9219 133.8906 Q330.0938 133.8906 329.6484 134.4766 Q329.2031 135.0625 329.2031 136.1719 Q329.2031 137.3281 329.6484 137.9609 Q330.0938 138.5938 330.9219 138.5938 ZM329.0156 134.1875 Q329.4219 133.75 329.9219 133.5312 Q330.4219 133.3125 331.0625 133.3125 Q332.3594 133.3125 333.1172 134.0938 Q333.875 134.875 333.875 136.2344 Q333.875 137.5625 333.0625 138.3672 Q332.25 139.1719 330.875 139.1719 Q329.3906 139.1719 328.5938 138.0625 Q327.7969 136.9531 327.7969 134.9062 Q327.7969 132.6094 328.7422 131.3516 Q329.6875 130.0938 331.4062 130.0938 Q331.875 130.0938 332.3828 130.1797 Q332.8906 130.2656 333.4219 130.4375 L333.4219 131.8906 L332.7656 131.8906 Q332.6875 131.2969 332.3047 130.9844 Q331.9219 130.6719 331.2812 130.6719 Q330.1406 130.6719 329.5859 131.5312 Q329.0312 132.3906 329.0156 134.1875 Z" style="fill:black; stroke:none;" /><rect height="13" style="stroke:none;" width="7" x="308" y="108" /><path d="M309.8281 120.25 Q310.2969 120.5938 311.1719 120.5938 Q312.0625 120.5938 312.5781 120.0703 Q313.0938 119.5469 313.0938 118.6562 Q313.0938 117.4219 312.5625 116.8906 Q312.0156 116.3594 311 116.3594 L310.4375 116.3594 L310.4375 115.7188 L310.7344 115.7188 Q311.4844 115.7188 312 115.2969 Q312.4219 114.9531 312.4219 114.0156 Q312.4219 113.6094 312.1406 113.1406 Q311.6875 112.375 311.1562 112.3906 Q309.8281 112.4375 309.8281 114.7812 L309.8281 120.25 ZM308.75 123.5 L308.75 114.7812 Q308.75 112.3281 310.0781 112 Q310.7656 111.8125 311.25 111.8125 Q312.3438 111.8125 313.0469 112.6719 Q313.6094 113.3594 313.6094 113.9375 Q313.6094 114.7812 313.2031 115.2656 Q312.7969 115.75 312.0625 115.9844 Q313.1406 116.1406 313.75 116.7812 Q314.3281 117.4062 314.3281 118.6328 Q314.3281 119.8594 313.5078 120.5156 Q312.6875 121.1719 311.1406 121.1719 Q310.1875 121.1719 309.8281 121.0312 L309.8281 123.5 L308.75 123.5 Z" style="fill:black; stroke:none;" /></g></g></svg>