<svg xmlns="http://www.w3.org/2000/svg" style="fill-opacity:1; color-rendering:auto; color-interpolation:auto; text-rendering:auto; stroke:black; stroke-linecap:square; stroke-miterlimit:10; shape-rendering:auto; stroke-opacity:1; fill:black; stroke-dasharray:none; font-weight:normal; stroke-width:1; font-family:'Dialog'; font-style:normal; stroke-linejoin:miter; font-size:12px; stroke-dashoffset:0; image-rendering:auto;"><defs id="genericDefs" /><g><defs id="defs1"><clipPath clipPathUnits="userSpaceOnUse" id="clipPath1"><path d="M446 134 L468 134 L468 156 L446 156 L446 134 Z" /></clipPath><clipPath clipPathUnits="userSpaceOnUse" id="clipPath2"><path d="M394 134 L416 134 L416 156 L394 156 L394 134 Z" /></clipPath><clipPath clipPathUnits="userSpaceOnUse" id="clipPath3"><path d="M364 145 C364 151.0751 359.0751 156 353 156 C346.9249 156 342 151.0751 342 145 C342 138.9249 346.9249 134 353 134 C359.0751 134 364 138.9249 364 145 Z" /></clipPath><clipPath clipPathUnits="userSpaceOnUse" id="clipPath4"><path d="M312 197 C312 203.0751 307.0751 208 301 208 C294.9249 208 290 203.0751 290 197 C290 190.9249 294.9249 186 301 186 C307.0751 186 312 190.9249 312 197 Z" /></clipPath><clipPath clipPathUnits="userSpaceOnUse" id="clipPath5"><path d="M238 186 L260 186 L260 208 L238 208 L238 186 Z" /></clipPath><clipPath clipPathUnits="userSpaceOnUse" id="clipPath6"><path d="M208 197 C208 203.0751 203.0751 208 197 208 C190.9249 208 186 203.0751 186 197 C186 190.9249 190.9249 186 197 186 C203.0751 186 208 190.9249 208 197 Z" /></clipPath><clipPath clipPathUnits="userSpaceOnUse" id="clipPath7"><path d="M134 186 L156 186 L156 208 L134 208 L134 186 Z" /></clipPath><clipPath clipPathUnits="userSpaceOnUse" id="clipPath8"><path d="M104 197 C104 203.0751 99.0751 208 93 208 C86.9249 208 82 203.0751 82 197 C82 190.9249 86.9249 186 93 186 C99.0751 186 104 190.9249 104 197 Z" /></clipPath><clipPath clipPathUnits="userSpaceOnUse" id="clipPath9"><path d="M41 186 L52 197 L41 208 L30 197 Z" style="fill-rule:evenodd;" /></clipPath><clipPath clipPathUnits="userSpaceOnUse" id="clipPath10"><path d="M249 156 L238 134 L260 134 Z" style="fill-rule:evenodd;" /></clipPath><clipPath clipPathUnits="userSpaceOnUse" id="clipPath11"><path d="M312 93 C312 99.0751 307.0751 104 301 104 C294.9249 104 290 99.0751 290 93 C290 86.9249 294.9249 82 301 82 C307.0751 82 312 86.9249 312 93 Z" /></clipPath><clipPath clipPathUnits="userSpaceOnUse" id="clipPath12"><path d="M238 82 L260 82 L260 104 L238 104 L238 82 Z" /></clipPath><clipPath clipPathUnits="userSpaceOnUse" id="clipPath13"><path d="M249 52 L238 30 L260 30 Z" style="fill-rule:evenodd;" /></clipPath><clipPath clipPathUnits="userSpaceOnUse" id="clipPath14"><path d="M208 93 C208 99.0751 203.0751 104 197 104 C190.9249 104 186 99.0751 186 93 C186 86.9249 190.9249 82 197 82 C203.0751 82 208 86.9249 208 93 Z" /></clipPath><clipPath clipPathUnits="userSpaceOnUse" id="clipPath15"><path d="M457 104 L446 82 L468 82 Z" style="fill-rule:evenodd;" /></clipPath></defs><g style="fill:white; text-rendering:optimizeSpeed; stroke:white;"><rect height="238" style="stroke:none;" width="498" x="0" y="0" /></g><g ID="l-1:1,2" style="text-rendering:optimizeSpeed;"><polygon points=" 457 145 405 145" style="fill:none;" /></g><g ID="l-1:1,3" style="text-rendering:optimizeSpeed;"><polygon points=" 457 145 457 93" style="fill:none;" /></g><g ID="r-1:1" style="fill:white; text-rendering:optimizeSpeed; stroke:white;" wurcs_mono_id="1"><rect height="22" style="clip-path:url(#clipPath1); stroke:none;" width="22" x="446" y="134" /><rect height="22" style="clip-path:url(#clipPath1); fill:rgb(0,144,188); stroke:none;" width="22" x="446" y="134" /><rect height="22" style="clip-path:url(#clipPath1); fill:none; stroke:black;" width="22" x="446" y="134" /><rect height="22" style="fill:none; stroke:black;" width="22" x="446" y="134" /></g><g style="font-style:italic; text-rendering:optimizeSpeed; font-size:10px; font-family:'SansSerif';"><path d="M458.0938 142.1562 Q457.375 142.1562 456.8359 142.7188 Q456.2969 143.2812 456.0781 144.2656 Q455.875 145.25 456.1719 145.8125 Q456.4688 146.375 457.2031 146.375 Q457.9219 146.375 458.4609 145.8125 Q459 145.25 459.2031 144.2656 Q459.4062 143.2969 459.1094 142.7266 Q458.8125 142.1562 458.0938 142.1562 ZM458.25 141.4062 Q459.4219 141.4062 459.9297 142.1641 Q460.4375 142.9219 460.1562 144.2656 Q459.875 145.6094 459.0391 146.375 Q458.2031 147.1406 457.0312 147.1406 Q455.8594 147.1406 455.3516 146.375 Q454.8438 145.6094 455.125 144.2656 Q455.4062 142.9219 456.2422 142.1641 Q457.0781 141.4062 458.25 141.4062 Z" style="stroke:none;" /></g><g ID="l-1:2,4" style="text-rendering:optimizeSpeed;"><polygon points=" 405 145 353 145" style="fill:none;" /></g><g ID="r-1:2" style="fill:white; text-rendering:optimizeSpeed; stroke:white;" wurcs_mono_id="2"><rect height="22" style="clip-path:url(#clipPath2); stroke:none;" width="22" x="394" y="134" /><rect height="22" style="clip-path:url(#clipPath2); fill:rgb(0,144,188); stroke:none;" width="22" x="394" y="134" /><rect height="22" style="clip-path:url(#clipPath2); fill:none; stroke:black;" width="22" x="394" y="134" /><rect height="22" style="fill:none; stroke:black;" width="22" x="394" y="134" /></g><g ID="l-1:4,5" style="text-rendering:optimizeSpeed;"><polygon points=" 353 145 301 197" style="fill:none;" /></g><g ID="l-1:4,6" style="text-rendering:optimizeSpeed;"><polygon points=" 353 145 301 93" style="fill:none;" /></g><g ID="r-1:4" style="fill:white; text-rendering:optimizeSpeed; stroke:white;" wurcs_mono_id="3"><circle cx="353" cy="145" r="11" style="clip-path:url(#clipPath3); stroke:none;" /><rect height="22" style="clip-path:url(#clipPath3); fill:rgb(0,166,81); stroke:none;" width="22" x="342" y="134" /><rect height="22" style="clip-path:url(#clipPath3); fill:none; stroke:black;" width="22" x="342" y="134" /><circle cx="353" cy="145" r="11" style="fill:none; stroke:black;" /></g><g ID="l-1:5,7" style="text-rendering:optimizeSpeed;"><polygon points=" 301 197 249 197" style="fill:none;" /></g><g ID="r-1:5" style="fill:white; text-rendering:optimizeSpeed; stroke:white;" wurcs_mono_id="4"><circle cx="301" cy="197" r="11" style="clip-path:url(#clipPath4); stroke:none;" /><rect height="22" style="clip-path:url(#clipPath4); fill:rgb(0,166,81); stroke:none;" width="22" x="290" y="186" /><rect height="22" style="clip-path:url(#clipPath4); fill:none; stroke:black;" width="22" x="290" y="186" /><circle cx="301" cy="197" r="11" style="fill:none; stroke:black;" /></g><g ID="l-1:7,8" style="text-rendering:optimizeSpeed;"><polygon points=" 249 197 197 197" style="fill:none;" /></g><g ID="l-1:7,9" style="text-rendering:optimizeSpeed;"><polygon points=" 249 197 249 145" style="fill:none;" /></g><g ID="r-1:7" style="fill:white; text-rendering:optimizeSpeed; stroke:white;" wurcs_mono_id="5"><rect height="22" style="clip-path:url(#clipPath5); stroke:none;" width="22" x="238" y="186" /><rect height="22" style="clip-path:url(#clipPath5); fill:rgb(0,144,188); stroke:none;" width="22" x="238" y="186" /><rect height="22" style="clip-path:url(#clipPath5); fill:none; stroke:black;" width="22" x="238" y="186" /><rect height="22" style="fill:none; stroke:black;" width="22" x="238" y="186" /></g><g ID="l-1:8,10" style="text-rendering:optimizeSpeed;"><polygon points=" 197 197 145 197" style="fill:none;" /></g><g ID="r-1:8" style="fill:white; text-rendering:optimizeSpeed; stroke:white;" wurcs_mono_id="6"><circle cx="197" cy="197" r="11" style="clip-path:url(#clipPath6); stroke:none;" /><rect height="22" style="clip-path:url(#clipPath6); fill:rgb(255,212,0); stroke:none;" width="22" x="186" y="186" /><rect height="22" style="clip-path:url(#clipPath6); fill:none; stroke:black;" width="22" x="186" y="186" /><circle cx="197" cy="197" r="11" style="fill:none; stroke:black;" /></g><g ID="l-1:10,11" style="text-rendering:optimizeSpeed;"><polygon points=" 145 197 93 197" style="fill:none;" /></g><g ID="r-1:10" style="fill:white; text-rendering:optimizeSpeed; stroke:white;" wurcs_mono_id="7"><rect height="22" style="clip-path:url(#clipPath7); stroke:none;" width="22" x="134" y="186" /><rect height="22" style="clip-path:url(#clipPath7); fill:rgb(0,144,188); stroke:none;" width="22" x="134" y="186" /><rect height="22" style="clip-path:url(#clipPath7); fill:none; stroke:black;" width="22" x="134" y="186" /><rect height="22" style="fill:none; stroke:black;" width="22" x="134" y="186" /></g><g ID="l-1:11,12" style="text-rendering:optimizeSpeed;"><polygon points=" 93 197 41 197" style="fill:none;" /></g><g ID="r-1:11" style="fill:white; text-rendering:optimizeSpeed; stroke:white;" wurcs_mono_id="8"><circle cx="93" cy="197" r="11" style="clip-path:url(#clipPath8); stroke:none;" /><rect height="22" style="clip-path:url(#clipPath8); fill:rgb(255,212,0); stroke:none;" width="22" x="82" y="186" /><rect height="22" style="clip-path:url(#clipPath8); fill:none; stroke:black;" width="22" x="82" y="186" /><circle cx="93" cy="197" r="11" style="fill:none; stroke:black;" /></g><g ID="r-1:12" style="fill:white; text-rendering:optimizeSpeed; stroke:white;" wurcs_mono_id="9"><polygon points=" 41 186 52 197 41 208 30 197" style="stroke:none; clip-path:url(#clipPath9);" /><rect height="22" style="clip-path:url(#clipPath9); fill:rgb(165,67,153); stroke:none;" width="22" x="30" y="186" /><rect height="22" style="clip-path:url(#clipPath9); fill:none; stroke:black;" width="22" x="30" y="186" /><polygon points=" 41 186 52 197 41 208 30 197" style="fill:none; stroke:black;" /></g><g ID="li-1:11,12" style="fill:white; text-rendering:optimizeSpeed; font-family:'Serif'; stroke:white;"><rect height="10" style="stroke:none;" width="6" x="71" y="200" /><path d="M73.1094 209.3906 Q73.1094 209.0625 73.3359 208.8359 Q73.5625 208.6094 73.8906 208.6094 Q74.2188 208.6094 74.4453 208.8359 Q74.6719 209.0625 74.6719 209.3906 Q74.6719 209.7188 74.4453 209.9453 Q74.2188 210.1719 73.8906 210.1719 Q73.5625 210.1719 73.3359 209.9453 Q73.1094 209.7188 73.1094 209.3906 ZM71.8125 201.6406 Q72.4375 201.3594 73 201.2266 Q73.5625 201.0938 74.0469 201.0938 Q75.3438 201.0938 76.1016 201.7188 Q76.8594 202.3438 76.8594 203.4062 Q76.8594 204.5 76.2109 205.1953 Q75.5625 205.8906 74.25 206.1875 L74.25 207.6719 L73.5312 207.6719 L73.5312 205.75 Q74.5625 205.5 75.0938 204.9062 Q75.625 204.3125 75.625 203.4062 Q75.625 202.5938 75.1953 202.1328 Q74.7656 201.6719 74.0312 201.6719 Q73.3594 201.6719 72.9297 202.0547 Q72.5 202.4375 72.3906 203.1562 L71.8125 203.1562 L71.8125 201.6406 Z" style="fill:black; stroke:none;" /><rect height="10" style="stroke:none;" width="6" x="57" y="200" /><path d="M59.1094 209.3906 Q59.1094 209.0625 59.3359 208.8359 Q59.5625 208.6094 59.8906 208.6094 Q60.2188 208.6094 60.4453 208.8359 Q60.6719 209.0625 60.6719 209.3906 Q60.6719 209.7188 60.4453 209.9453 Q60.2188 210.1719 59.8906 210.1719 Q59.5625 210.1719 59.3359 209.9453 Q59.1094 209.7188 59.1094 209.3906 ZM57.8125 201.6406 Q58.4375 201.3594 59 201.2266 Q59.5625 201.0938 60.0469 201.0938 Q61.3438 201.0938 62.1016 201.7188 Q62.8594 202.3438 62.8594 203.4062 Q62.8594 204.5 62.2109 205.1953 Q61.5625 205.8906 60.25 206.1875 L60.25 207.6719 L59.5312 207.6719 L59.5312 205.75 Q60.5625 205.5 61.0938 204.9062 Q61.625 204.3125 61.625 203.4062 Q61.625 202.5938 61.1953 202.1328 Q60.7656 201.6719 60.0312 201.6719 Q59.3594 201.6719 58.9297 202.0547 Q58.5 202.4375 58.3906 203.1562 L57.8125 203.1562 L57.8125 201.6406 Z" style="fill:black; stroke:none;" /></g><g ID="li-1:10,11" style="fill:white; text-rendering:optimizeSpeed; font-family:'Serif'; stroke:white;"><rect height="10" style="stroke:none;" width="6" x="123" y="200" /><path d="M125.1094 209.3906 Q125.1094 209.0625 125.3359 208.8359 Q125.5625 208.6094 125.8906 208.6094 Q126.2188 208.6094 126.4453 208.8359 Q126.6719 209.0625 126.6719 209.3906 Q126.6719 209.7188 126.4453 209.9453 Q126.2188 210.1719 125.8906 210.1719 Q125.5625 210.1719 125.3359 209.9453 Q125.1094 209.7188 125.1094 209.3906 ZM123.8125 201.6406 Q124.4375 201.3594 125 201.2266 Q125.5625 201.0938 126.0469 201.0938 Q127.3438 201.0938 128.1016 201.7188 Q128.8594 202.3438 128.8594 203.4062 Q128.8594 204.5 128.2109 205.1953 Q127.5625 205.8906 126.25 206.1875 L126.25 207.6719 L125.5312 207.6719 L125.5312 205.75 Q126.5625 205.5 127.0938 204.9062 Q127.625 204.3125 127.625 203.4062 Q127.625 202.5938 127.1953 202.1328 Q126.7656 201.6719 126.0312 201.6719 Q125.3594 201.6719 124.9297 202.0547 Q124.5 202.4375 124.3906 203.1562 L123.8125 203.1562 L123.8125 201.6406 Z" style="fill:black; stroke:none;" /><rect height="10" style="stroke:none;" width="6" x="109" y="200" /><path d="M111.1094 209.3906 Q111.1094 209.0625 111.3359 208.8359 Q111.5625 208.6094 111.8906 208.6094 Q112.2188 208.6094 112.4453 208.8359 Q112.6719 209.0625 112.6719 209.3906 Q112.6719 209.7188 112.4453 209.9453 Q112.2188 210.1719 111.8906 210.1719 Q111.5625 210.1719 111.3359 209.9453 Q111.1094 209.7188 111.1094 209.3906 ZM109.8125 201.6406 Q110.4375 201.3594 111 201.2266 Q111.5625 201.0938 112.0469 201.0938 Q113.3438 201.0938 114.1016 201.7188 Q114.8594 202.3438 114.8594 203.4062 Q114.8594 204.5 114.2109 205.1953 Q113.5625 205.8906 112.25 206.1875 L112.25 207.6719 L111.5312 207.6719 L111.5312 205.75 Q112.5625 205.5 113.0938 204.9062 Q113.625 204.3125 113.625 203.4062 Q113.625 202.5938 113.1953 202.1328 Q112.7656 201.6719 112.0312 201.6719 Q111.3594 201.6719 110.9297 202.0547 Q110.5 202.4375 110.3906 203.1562 L109.8125 203.1562 L109.8125 201.6406 Z" style="fill:black; stroke:none;" /></g><g ID="li-1:8,10" style="fill:white; text-rendering:optimizeSpeed; font-family:'Serif'; stroke:white;"><rect height="10" style="stroke:none;" width="6" x="175" y="200" /><path d="M177.1094 209.3906 Q177.1094 209.0625 177.3359 208.8359 Q177.5625 208.6094 177.8906 208.6094 Q178.2188 208.6094 178.4453 208.8359 Q178.6719 209.0625 178.6719 209.3906 Q178.6719 209.7188 178.4453 209.9453 Q178.2188 210.1719 177.8906 210.1719 Q177.5625 210.1719 177.3359 209.9453 Q177.1094 209.7188 177.1094 209.3906 ZM175.8125 201.6406 Q176.4375 201.3594 177 201.2266 Q177.5625 201.0938 178.0469 201.0938 Q179.3438 201.0938 180.1016 201.7188 Q180.8594 202.3438 180.8594 203.4062 Q180.8594 204.5 180.2109 205.1953 Q179.5625 205.8906 178.25 206.1875 L178.25 207.6719 L177.5312 207.6719 L177.5312 205.75 Q178.5625 205.5 179.0938 204.9062 Q179.625 204.3125 179.625 203.4062 Q179.625 202.5938 179.1953 202.1328 Q178.7656 201.6719 178.0312 201.6719 Q177.3594 201.6719 176.9297 202.0547 Q176.5 202.4375 176.3906 203.1562 L175.8125 203.1562 L175.8125 201.6406 Z" style="fill:black; stroke:none;" /><rect height="10" style="stroke:none;" width="6" x="161" y="200" /><path d="M163.1094 209.3906 Q163.1094 209.0625 163.3359 208.8359 Q163.5625 208.6094 163.8906 208.6094 Q164.2188 208.6094 164.4453 208.8359 Q164.6719 209.0625 164.6719 209.3906 Q164.6719 209.7188 164.4453 209.9453 Q164.2188 210.1719 163.8906 210.1719 Q163.5625 210.1719 163.3359 209.9453 Q163.1094 209.7188 163.1094 209.3906 ZM161.8125 201.6406 Q162.4375 201.3594 163 201.2266 Q163.5625 201.0938 164.0469 201.0938 Q165.3438 201.0938 166.1016 201.7188 Q166.8594 202.3438 166.8594 203.4062 Q166.8594 204.5 166.2109 205.1953 Q165.5625 205.8906 164.25 206.1875 L164.25 207.6719 L163.5312 207.6719 L163.5312 205.75 Q164.5625 205.5 165.0938 204.9062 Q165.625 204.3125 165.625 203.4062 Q165.625 202.5938 165.1953 202.1328 Q164.7656 201.6719 164.0312 201.6719 Q163.3594 201.6719 162.9297 202.0547 Q162.5 202.4375 162.3906 203.1562 L161.8125 203.1562 L161.8125 201.6406 Z" style="fill:black; stroke:none;" /></g><g ID="r-1:9" style="fill:white; text-rendering:optimizeSpeed; stroke:white;" wurcs_mono_id="10"><polygon points=" 249 156 238 134 260 134" style="stroke:none; clip-path:url(#clipPath10);" /><rect height="22" style="clip-path:url(#clipPath10); fill:rgb(237,28,36); stroke:none;" width="22" x="238" y="134" /><rect height="22" style="clip-path:url(#clipPath10); fill:none; stroke:black;" width="22" x="238" y="134" /><polygon points=" 249 156 238 134 260 134" style="fill:none; stroke:black;" /></g><g ID="li-1:7,8" style="fill:white; text-rendering:optimizeSpeed; font-family:'Serif'; stroke:white;"><rect height="10" style="stroke:none;" width="6" x="227" y="200" /><path d="M229.1094 209.3906 Q229.1094 209.0625 229.3359 208.8359 Q229.5625 208.6094 229.8906 208.6094 Q230.2188 208.6094 230.4453 208.8359 Q230.6719 209.0625 230.6719 209.3906 Q230.6719 209.7188 230.4453 209.9453 Q230.2188 210.1719 229.8906 210.1719 Q229.5625 210.1719 229.3359 209.9453 Q229.1094 209.7188 229.1094 209.3906 ZM227.8125 201.6406 Q228.4375 201.3594 229 201.2266 Q229.5625 201.0938 230.0469 201.0938 Q231.3438 201.0938 232.1016 201.7188 Q232.8594 202.3438 232.8594 203.4062 Q232.8594 204.5 232.2109 205.1953 Q231.5625 205.8906 230.25 206.1875 L230.25 207.6719 L229.5312 207.6719 L229.5312 205.75 Q230.5625 205.5 231.0938 204.9062 Q231.625 204.3125 231.625 203.4062 Q231.625 202.5938 231.1953 202.1328 Q230.7656 201.6719 230.0312 201.6719 Q229.3594 201.6719 228.9297 202.0547 Q228.5 202.4375 228.3906 203.1562 L227.8125 203.1562 L227.8125 201.6406 Z" style="fill:black; stroke:none;" /><rect height="10" style="stroke:none;" width="6" x="213" y="200" /><path d="M215.1094 209.3906 Q215.1094 209.0625 215.3359 208.8359 Q215.5625 208.6094 215.8906 208.6094 Q216.2188 208.6094 216.4453 208.8359 Q216.6719 209.0625 216.6719 209.3906 Q216.6719 209.7188 216.4453 209.9453 Q216.2188 210.1719 215.8906 210.1719 Q215.5625 210.1719 215.3359 209.9453 Q215.1094 209.7188 215.1094 209.3906 ZM213.8125 201.6406 Q214.4375 201.3594 215 201.2266 Q215.5625 201.0938 216.0469 201.0938 Q217.3438 201.0938 218.1016 201.7188 Q218.8594 202.3438 218.8594 203.4062 Q218.8594 204.5 218.2109 205.1953 Q217.5625 205.8906 216.25 206.1875 L216.25 207.6719 L215.5312 207.6719 L215.5312 205.75 Q216.5625 205.5 217.0938 204.9062 Q217.625 204.3125 217.625 203.4062 Q217.625 202.5938 217.1953 202.1328 Q216.7656 201.6719 216.0312 201.6719 Q215.3594 201.6719 214.9297 202.0547 Q214.5 202.4375 214.3906 203.1562 L213.8125 203.1562 L213.8125 201.6406 Z" style="fill:black; stroke:none;" /></g><g ID="li-1:7,9" style="fill:white; text-rendering:optimizeSpeed; font-family:'Serif'; stroke:white;"><rect height="10" style="stroke:none;" width="6" x="238" y="173" /><path d="M240.1094 182.3906 Q240.1094 182.0625 240.3359 181.8359 Q240.5625 181.6094 240.8906 181.6094 Q241.2188 181.6094 241.4453 181.8359 Q241.6719 182.0625 241.6719 182.3906 Q241.6719 182.7188 241.4453 182.9453 Q241.2188 183.1719 240.8906 183.1719 Q240.5625 183.1719 240.3359 182.9453 Q240.1094 182.7188 240.1094 182.3906 ZM238.8125 174.6406 Q239.4375 174.3594 240 174.2266 Q240.5625 174.0938 241.0469 174.0938 Q242.3438 174.0938 243.1016 174.7188 Q243.8594 175.3438 243.8594 176.4062 Q243.8594 177.5 243.2109 178.1953 Q242.5625 178.8906 241.25 179.1875 L241.25 180.6719 L240.5312 180.6719 L240.5312 178.75 Q241.5625 178.5 242.0938 177.9062 Q242.625 177.3125 242.625 176.4062 Q242.625 175.5938 242.1953 175.1328 Q241.7656 174.6719 241.0312 174.6719 Q240.3594 174.6719 239.9297 175.0547 Q239.5 175.4375 239.3906 176.1562 L238.8125 176.1562 L238.8125 174.6406 Z" style="fill:black; stroke:none;" /><rect height="10" style="stroke:none;" width="6" x="238" y="159" /><path d="M240.1094 168.3906 Q240.1094 168.0625 240.3359 167.8359 Q240.5625 167.6094 240.8906 167.6094 Q241.2188 167.6094 241.4453 167.8359 Q241.6719 168.0625 241.6719 168.3906 Q241.6719 168.7188 241.4453 168.9453 Q241.2188 169.1719 240.8906 169.1719 Q240.5625 169.1719 240.3359 168.9453 Q240.1094 168.7188 240.1094 168.3906 ZM238.8125 160.6406 Q239.4375 160.3594 240 160.2266 Q240.5625 160.0938 241.0469 160.0938 Q242.3438 160.0938 243.1016 160.7188 Q243.8594 161.3438 243.8594 162.4062 Q243.8594 163.5 243.2109 164.1953 Q242.5625 164.8906 241.25 165.1875 L241.25 166.6719 L240.5312 166.6719 L240.5312 164.75 Q241.5625 164.5 242.0938 163.9062 Q242.625 163.3125 242.625 162.4062 Q242.625 161.5938 242.1953 161.1328 Q241.7656 160.6719 241.0312 160.6719 Q240.3594 160.6719 239.9297 161.0547 Q239.5 161.4375 239.3906 162.1562 L238.8125 162.1562 L238.8125 160.6406 Z" style="fill:black; stroke:none;" /></g><g ID="li-1:5,7" style="fill:white; text-rendering:optimizeSpeed; font-family:'Serif'; stroke:white;"><rect height="10" style="stroke:none;" width="6" x="279" y="200" /><path d="M281.1094 209.3906 Q281.1094 209.0625 281.3359 208.8359 Q281.5625 208.6094 281.8906 208.6094 Q282.2188 208.6094 282.4453 208.8359 Q282.6719 209.0625 282.6719 209.3906 Q282.6719 209.7188 282.4453 209.9453 Q282.2188 210.1719 281.8906 210.1719 Q281.5625 210.1719 281.3359 209.9453 Q281.1094 209.7188 281.1094 209.3906 ZM279.8125 201.6406 Q280.4375 201.3594 281 201.2266 Q281.5625 201.0938 282.0469 201.0938 Q283.3438 201.0938 284.1016 201.7188 Q284.8594 202.3438 284.8594 203.4062 Q284.8594 204.5 284.2109 205.1953 Q283.5625 205.8906 282.25 206.1875 L282.25 207.6719 L281.5312 207.6719 L281.5312 205.75 Q282.5625 205.5 283.0938 204.9062 Q283.625 204.3125 283.625 203.4062 Q283.625 202.5938 283.1953 202.1328 Q282.7656 201.6719 282.0312 201.6719 Q281.3594 201.6719 280.9297 202.0547 Q280.5 202.4375 280.3906 203.1562 L279.8125 203.1562 L279.8125 201.6406 Z" style="fill:black; stroke:none;" /><rect height="10" style="stroke:none;" width="6" x="265" y="200" /><path d="M267.1094 209.3906 Q267.1094 209.0625 267.3359 208.8359 Q267.5625 208.6094 267.8906 208.6094 Q268.2188 208.6094 268.4453 208.8359 Q268.6719 209.0625 268.6719 209.3906 Q268.6719 209.7188 268.4453 209.9453 Q268.2188 210.1719 267.8906 210.1719 Q267.5625 210.1719 267.3359 209.9453 Q267.1094 209.7188 267.1094 209.3906 ZM265.8125 201.6406 Q266.4375 201.3594 267 201.2266 Q267.5625 201.0938 268.0469 201.0938 Q269.3438 201.0938 270.1016 201.7188 Q270.8594 202.3438 270.8594 203.4062 Q270.8594 204.5 270.2109 205.1953 Q269.5625 205.8906 268.25 206.1875 L268.25 207.6719 L267.5312 207.6719 L267.5312 205.75 Q268.5625 205.5 269.0938 204.9062 Q269.625 204.3125 269.625 203.4062 Q269.625 202.5938 269.1953 202.1328 Q268.7656 201.6719 268.0312 201.6719 Q267.3594 201.6719 266.9297 202.0547 Q266.5 202.4375 266.3906 203.1562 L265.8125 203.1562 L265.8125 201.6406 Z" style="fill:black; stroke:none;" /></g><g ID="l-1:6,13" style="text-rendering:optimizeSpeed;"><polygon points=" 301 93 249 93" style="fill:none;" /></g><g ID="r-1:6" style="fill:white; text-rendering:optimizeSpeed; stroke:white;" wurcs_mono_id="11"><circle cx="301" cy="93" r="11" style="clip-path:url(#clipPath11); stroke:none;" /><rect height="22" style="clip-path:url(#clipPath11); fill:rgb(0,166,81); stroke:none;" width="22" x="290" y="82" /><rect height="22" style="clip-path:url(#clipPath11); fill:none; stroke:black;" width="22" x="290" y="82" /><circle cx="301" cy="93" r="11" style="fill:none; stroke:black;" /></g><g ID="l-1:13,14" style="text-rendering:optimizeSpeed;"><polygon points=" 249 93 249 41" style="fill:none;" /></g><g ID="l-1:13,15" style="text-rendering:optimizeSpeed;"><polygon points=" 249 93 197 93" style="fill:none;" /></g><g ID="r-1:13" style="fill:white; text-rendering:optimizeSpeed; stroke:white;" wurcs_mono_id="12"><rect height="22" style="clip-path:url(#clipPath12); stroke:none;" width="22" x="238" y="82" /><rect height="22" style="clip-path:url(#clipPath12); fill:rgb(0,144,188); stroke:none;" width="22" x="238" y="82" /><rect height="22" style="clip-path:url(#clipPath12); fill:none; stroke:black;" width="22" x="238" y="82" /><rect height="22" style="fill:none; stroke:black;" width="22" x="238" y="82" /></g><g ID="r-1:14" style="fill:white; text-rendering:optimizeSpeed; stroke:white;" wurcs_mono_id="13"><polygon points=" 249 52 238 30 260 30" style="stroke:none; clip-path:url(#clipPath13);" /><rect height="22" style="clip-path:url(#clipPath13); fill:rgb(237,28,36); stroke:none;" width="22" x="238" y="30" /><rect height="22" style="clip-path:url(#clipPath13); fill:none; stroke:black;" width="22" x="238" y="30" /><polygon points=" 249 52 238 30 260 30" style="fill:none; stroke:black;" /></g><g ID="r-1:15" style="fill:white; text-rendering:optimizeSpeed; stroke:white;" wurcs_mono_id="14"><circle cx="197" cy="93" r="11" style="clip-path:url(#clipPath14); stroke:none;" /><rect height="22" style="clip-path:url(#clipPath14); fill:rgb(255,212,0); stroke:none;" width="22" x="186" y="82" /><rect height="22" style="clip-path:url(#clipPath14); fill:none; stroke:black;" width="22" x="186" y="82" /><circle cx="197" cy="93" r="11" style="fill:none; stroke:black;" /></g><g ID="li-1:13,14" style="fill:white; text-rendering:optimizeSpeed; font-family:'Serif'; stroke:white;"><rect height="10" style="stroke:none;" width="6" x="238" y="69" /><path d="M240.1094 78.3906 Q240.1094 78.0625 240.3359 77.8359 Q240.5625 77.6094 240.8906 77.6094 Q241.2188 77.6094 241.4453 77.8359 Q241.6719 78.0625 241.6719 78.3906 Q241.6719 78.7188 241.4453 78.9453 Q241.2188 79.1719 240.8906 79.1719 Q240.5625 79.1719 240.3359 78.9453 Q240.1094 78.7188 240.1094 78.3906 ZM238.8125 70.6406 Q239.4375 70.3594 240 70.2266 Q240.5625 70.0938 241.0469 70.0938 Q242.3438 70.0938 243.1016 70.7188 Q243.8594 71.3438 243.8594 72.4062 Q243.8594 73.5 243.2109 74.1953 Q242.5625 74.8906 241.25 75.1875 L241.25 76.6719 L240.5312 76.6719 L240.5312 74.75 Q241.5625 74.5 242.0938 73.9062 Q242.625 73.3125 242.625 72.4062 Q242.625 71.5938 242.1953 71.1328 Q241.7656 70.6719 241.0312 70.6719 Q240.3594 70.6719 239.9297 71.0547 Q239.5 71.4375 239.3906 72.1562 L238.8125 72.1562 L238.8125 70.6406 Z" style="fill:black; stroke:none;" /><rect height="10" style="stroke:none;" width="6" x="238" y="55" /><path d="M240.1094 64.3906 Q240.1094 64.0625 240.3359 63.8359 Q240.5625 63.6094 240.8906 63.6094 Q241.2188 63.6094 241.4453 63.8359 Q241.6719 64.0625 241.6719 64.3906 Q241.6719 64.7188 241.4453 64.9453 Q241.2188 65.1719 240.8906 65.1719 Q240.5625 65.1719 240.3359 64.9453 Q240.1094 64.7188 240.1094 64.3906 ZM238.8125 56.6406 Q239.4375 56.3594 240 56.2266 Q240.5625 56.0938 241.0469 56.0938 Q242.3438 56.0938 243.1016 56.7188 Q243.8594 57.3438 243.8594 58.4062 Q243.8594 59.5 243.2109 60.1953 Q242.5625 60.8906 241.25 61.1875 L241.25 62.6719 L240.5312 62.6719 L240.5312 60.75 Q241.5625 60.5 242.0938 59.9062 Q242.625 59.3125 242.625 58.4062 Q242.625 57.5938 242.1953 57.1328 Q241.7656 56.6719 241.0312 56.6719 Q240.3594 56.6719 239.9297 57.0547 Q239.5 57.4375 239.3906 58.1562 L238.8125 58.1562 L238.8125 56.6406 Z" style="fill:black; stroke:none;" /></g><g ID="li-1:13,15" style="fill:white; text-rendering:optimizeSpeed; font-family:'Serif'; stroke:white;"><rect height="10" style="stroke:none;" width="6" x="227" y="96" /><path d="M229.1094 105.3906 Q229.1094 105.0625 229.3359 104.8359 Q229.5625 104.6094 229.8906 104.6094 Q230.2188 104.6094 230.4453 104.8359 Q230.6719 105.0625 230.6719 105.3906 Q230.6719 105.7188 230.4453 105.9453 Q230.2188 106.1719 229.8906 106.1719 Q229.5625 106.1719 229.3359 105.9453 Q229.1094 105.7188 229.1094 105.3906 ZM227.8125 97.6406 Q228.4375 97.3594 229 97.2266 Q229.5625 97.0938 230.0469 97.0938 Q231.3438 97.0938 232.1016 97.7188 Q232.8594 98.3438 232.8594 99.4062 Q232.8594 100.5 232.2109 101.1953 Q231.5625 101.8906 230.25 102.1875 L230.25 103.6719 L229.5312 103.6719 L229.5312 101.75 Q230.5625 101.5 231.0938 100.9062 Q231.625 100.3125 231.625 99.4062 Q231.625 98.5938 231.1953 98.1328 Q230.7656 97.6719 230.0312 97.6719 Q229.3594 97.6719 228.9297 98.0547 Q228.5 98.4375 228.3906 99.1562 L227.8125 99.1562 L227.8125 97.6406 Z" style="fill:black; stroke:none;" /><rect height="10" style="stroke:none;" width="6" x="213" y="96" /><path d="M215.1094 105.3906 Q215.1094 105.0625 215.3359 104.8359 Q215.5625 104.6094 215.8906 104.6094 Q216.2188 104.6094 216.4453 104.8359 Q216.6719 105.0625 216.6719 105.3906 Q216.6719 105.7188 216.4453 105.9453 Q216.2188 106.1719 215.8906 106.1719 Q215.5625 106.1719 215.3359 105.9453 Q215.1094 105.7188 215.1094 105.3906 ZM213.8125 97.6406 Q214.4375 97.3594 215 97.2266 Q215.5625 97.0938 216.0469 97.0938 Q217.3438 97.0938 218.1016 97.7188 Q218.8594 98.3438 218.8594 99.4062 Q218.8594 100.5 218.2109 101.1953 Q217.5625 101.8906 216.25 102.1875 L216.25 103.6719 L215.5312 103.6719 L215.5312 101.75 Q216.5625 101.5 217.0938 100.9062 Q217.625 100.3125 217.625 99.4062 Q217.625 98.5938 217.1953 98.1328 Q216.7656 97.6719 216.0312 97.6719 Q215.3594 97.6719 214.9297 98.0547 Q214.5 98.4375 214.3906 99.1562 L213.8125 99.1562 L213.8125 97.6406 Z" style="fill:black; stroke:none;" /></g><g ID="li-1:6,13" style="fill:white; text-rendering:optimizeSpeed; font-family:'Serif'; stroke:white;"><rect height="10" style="stroke:none;" width="6" x="279" y="96" /><path d="M281.1094 105.3906 Q281.1094 105.0625 281.3359 104.8359 Q281.5625 104.6094 281.8906 104.6094 Q282.2188 104.6094 282.4453 104.8359 Q282.6719 105.0625 282.6719 105.3906 Q282.6719 105.7188 282.4453 105.9453 Q282.2188 106.1719 281.8906 106.1719 Q281.5625 106.1719 281.3359 105.9453 Q281.1094 105.7188 281.1094 105.3906 ZM279.8125 97.6406 Q280.4375 97.3594 281 97.2266 Q281.5625 97.0938 282.0469 97.0938 Q283.3438 97.0938 284.1016 97.7188 Q284.8594 98.3438 284.8594 99.4062 Q284.8594 100.5 284.2109 101.1953 Q283.5625 101.8906 282.25 102.1875 L282.25 103.6719 L281.5312 103.6719 L281.5312 101.75 Q282.5625 101.5 283.0938 100.9062 Q283.625 100.3125 283.625 99.4062 Q283.625 98.5938 283.1953 98.1328 Q282.7656 97.6719 282.0312 97.6719 Q281.3594 97.6719 280.9297 98.0547 Q280.5 98.4375 280.3906 99.1562 L279.8125 99.1562 L279.8125 97.6406 Z" style="fill:black; stroke:none;" /><rect height="10" style="stroke:none;" width="6" x="265" y="96" /><path d="M267.1094 105.3906 Q267.1094 105.0625 267.3359 104.8359 Q267.5625 104.6094 267.8906 104.6094 Q268.2188 104.6094 268.4453 104.8359 Q268.6719 105.0625 268.6719 105.3906 Q268.6719 105.7188 268.4453 105.9453 Q268.2188 106.1719 267.8906 106.1719 Q267.5625 106.1719 267.3359 105.9453 Q267.1094 105.7188 267.1094 105.3906 ZM265.8125 97.6406 Q266.4375 97.3594 267 97.2266 Q267.5625 97.0938 268.0469 97.0938 Q269.3438 97.0938 270.1016 97.7188 Q270.8594 98.3438 270.8594 99.4062 Q270.8594 100.5 270.2109 101.1953 Q269.5625 101.8906 268.25 102.1875 L268.25 103.6719 L267.5312 103.6719 L267.5312 101.75 Q268.5625 101.5 269.0938 100.9062 Q269.625 100.3125 269.625 99.4062 Q269.625 98.5938 269.1953 98.1328 Q268.7656 97.6719 268.0312 97.6719 Q267.3594 97.6719 266.9297 98.0547 Q266.5 98.4375 266.3906 99.1562 L265.8125 99.1562 L265.8125 97.6406 Z" style="fill:black; stroke:none;" /></g><g ID="li-1:4,5" style="fill:white; text-rendering:optimizeSpeed; font-family:'Serif'; stroke:white;"><rect height="10" style="stroke:none;" width="6" x="339" y="162" /><path d="M341.1094 171.3906 Q341.1094 171.0625 341.3359 170.8359 Q341.5625 170.6094 341.8906 170.6094 Q342.2188 170.6094 342.4453 170.8359 Q342.6719 171.0625 342.6719 171.3906 Q342.6719 171.7188 342.4453 171.9453 Q342.2188 172.1719 341.8906 172.1719 Q341.5625 172.1719 341.3359 171.9453 Q341.1094 171.7188 341.1094 171.3906 ZM339.8125 163.6406 Q340.4375 163.3594 341 163.2266 Q341.5625 163.0938 342.0469 163.0938 Q343.3438 163.0938 344.1016 163.7188 Q344.8594 164.3438 344.8594 165.4062 Q344.8594 166.5 344.2109 167.1953 Q343.5625 167.8906 342.25 168.1875 L342.25 169.6719 L341.5312 169.6719 L341.5312 167.75 Q342.5625 167.5 343.0938 166.9062 Q343.625 166.3125 343.625 165.4062 Q343.625 164.5938 343.1953 164.1328 Q342.7656 163.6719 342.0312 163.6719 Q341.3594 163.6719 340.9297 164.0547 Q340.5 164.4375 340.3906 165.1562 L339.8125 165.1562 L339.8125 163.6406 Z" style="fill:black; stroke:none;" /><rect height="10" style="stroke:none;" width="6" x="320" y="181" /><path d="M322.1094 190.3906 Q322.1094 190.0625 322.3359 189.8359 Q322.5625 189.6094 322.8906 189.6094 Q323.2188 189.6094 323.4453 189.8359 Q323.6719 190.0625 323.6719 190.3906 Q323.6719 190.7188 323.4453 190.9453 Q323.2188 191.1719 322.8906 191.1719 Q322.5625 191.1719 322.3359 190.9453 Q322.1094 190.7188 322.1094 190.3906 ZM320.8125 182.6406 Q321.4375 182.3594 322 182.2266 Q322.5625 182.0938 323.0469 182.0938 Q324.3438 182.0938 325.1016 182.7188 Q325.8594 183.3438 325.8594 184.4062 Q325.8594 185.5 325.2109 186.1953 Q324.5625 186.8906 323.25 187.1875 L323.25 188.6719 L322.5312 188.6719 L322.5312 186.75 Q323.5625 186.5 324.0938 185.9062 Q324.625 185.3125 324.625 184.4062 Q324.625 183.5938 324.1953 183.1328 Q323.7656 182.6719 323.0312 182.6719 Q322.3594 182.6719 321.9297 183.0547 Q321.5 183.4375 321.3906 184.1562 L320.8125 184.1562 L320.8125 182.6406 Z" style="fill:black; stroke:none;" /></g><g ID="li-1:4,6" style="fill:white; text-rendering:optimizeSpeed; font-family:'Serif'; stroke:white;"><rect height="10" style="stroke:none;" width="6" x="327" y="129" /><path d="M329.1094 138.3906 Q329.1094 138.0625 329.3359 137.8359 Q329.5625 137.6094 329.8906 137.6094 Q330.2188 137.6094 330.4453 137.8359 Q330.6719 138.0625 330.6719 138.3906 Q330.6719 138.7188 330.4453 138.9453 Q330.2188 139.1719 329.8906 139.1719 Q329.5625 139.1719 329.3359 138.9453 Q329.1094 138.7188 329.1094 138.3906 ZM327.8125 130.6406 Q328.4375 130.3594 329 130.2266 Q329.5625 130.0938 330.0469 130.0938 Q331.3438 130.0938 332.1016 130.7188 Q332.8594 131.3438 332.8594 132.4062 Q332.8594 133.5 332.2109 134.1953 Q331.5625 134.8906 330.25 135.1875 L330.25 136.6719 L329.5312 136.6719 L329.5312 134.75 Q330.5625 134.5 331.0938 133.9062 Q331.625 133.3125 331.625 132.4062 Q331.625 131.5938 331.1953 131.1328 Q330.7656 130.6719 330.0312 130.6719 Q329.3594 130.6719 328.9297 131.0547 Q328.5 131.4375 328.3906 132.1562 L327.8125 132.1562 L327.8125 130.6406 Z" style="fill:black; stroke:none;" /><rect height="10" style="stroke:none;" width="6" x="309" y="110" /><path d="M311.1094 119.3906 Q311.1094 119.0625 311.3359 118.8359 Q311.5625 118.6094 311.8906 118.6094 Q312.2188 118.6094 312.4453 118.8359 Q312.6719 119.0625 312.6719 119.3906 Q312.6719 119.7188 312.4453 119.9453 Q312.2188 120.1719 311.8906 120.1719 Q311.5625 120.1719 311.3359 119.9453 Q311.1094 119.7188 311.1094 119.3906 ZM309.8125 111.6406 Q310.4375 111.3594 311 111.2266 Q311.5625 111.0938 312.0469 111.0938 Q313.3438 111.0938 314.1016 111.7188 Q314.8594 112.3438 314.8594 113.4062 Q314.8594 114.5 314.2109 115.1953 Q313.5625 115.8906 312.25 116.1875 L312.25 117.6719 L311.5312 117.6719 L311.5312 115.75 Q312.5625 115.5 313.0938 114.9062 Q313.625 114.3125 313.625 113.4062 Q313.625 112.5938 313.1953 112.1328 Q312.7656 111.6719 312.0312 111.6719 Q311.3594 111.6719 310.9297 112.0547 Q310.5 112.4375 310.3906 113.1562 L309.8125 113.1562 L309.8125 111.6406 Z" style="fill:black; stroke:none;" /></g><g ID="li-1:2,4" style="fill:white; text-rendering:optimizeSpeed; font-family:'Serif'; stroke:white;"><rect height="10" style="stroke:none;" width="6" x="383" y="148" /><path d="M385.1094 157.3906 Q385.1094 157.0625 385.3359 156.8359 Q385.5625 156.6094 385.8906 156.6094 Q386.2188 156.6094 386.4453 156.8359 Q386.6719 157.0625 386.6719 157.3906 Q386.6719 157.7188 386.4453 157.9453 Q386.2188 158.1719 385.8906 158.1719 Q385.5625 158.1719 385.3359 157.9453 Q385.1094 157.7188 385.1094 157.3906 ZM383.8125 149.6406 Q384.4375 149.3594 385 149.2266 Q385.5625 149.0938 386.0469 149.0938 Q387.3438 149.0938 388.1016 149.7188 Q388.8594 150.3438 388.8594 151.4062 Q388.8594 152.5 388.2109 153.1953 Q387.5625 153.8906 386.25 154.1875 L386.25 155.6719 L385.5312 155.6719 L385.5312 153.75 Q386.5625 153.5 387.0938 152.9062 Q387.625 152.3125 387.625 151.4062 Q387.625 150.5938 387.1953 150.1328 Q386.7656 149.6719 386.0312 149.6719 Q385.3594 149.6719 384.9297 150.0547 Q384.5 150.4375 384.3906 151.1562 L383.8125 151.1562 L383.8125 149.6406 Z" style="fill:black; stroke:none;" /><rect height="10" style="stroke:none;" width="6" x="369" y="148" /><path d="M371.1094 157.3906 Q371.1094 157.0625 371.3359 156.8359 Q371.5625 156.6094 371.8906 156.6094 Q372.2188 156.6094 372.4453 156.8359 Q372.6719 157.0625 372.6719 157.3906 Q372.6719 157.7188 372.4453 157.9453 Q372.2188 158.1719 371.8906 158.1719 Q371.5625 158.1719 371.3359 157.9453 Q371.1094 157.7188 371.1094 157.3906 ZM369.8125 149.6406 Q370.4375 149.3594 371 149.2266 Q371.5625 149.0938 372.0469 149.0938 Q373.3438 149.0938 374.1016 149.7188 Q374.8594 150.3438 374.8594 151.4062 Q374.8594 152.5 374.2109 153.1953 Q373.5625 153.8906 372.25 154.1875 L372.25 155.6719 L371.5312 155.6719 L371.5312 153.75 Q372.5625 153.5 373.0938 152.9062 Q373.625 152.3125 373.625 151.4062 Q373.625 150.5938 373.1953 150.1328 Q372.7656 149.6719 372.0312 149.6719 Q371.3594 149.6719 370.9297 150.0547 Q370.5 150.4375 370.3906 151.1562 L369.8125 151.1562 L369.8125 149.6406 Z" style="fill:black; stroke:none;" /></g><g ID="r-1:3" style="fill:white; text-rendering:optimizeSpeed; stroke:white;" wurcs_mono_id="15"><polygon points=" 457 104 446 82 468 82" style="stroke:none; clip-path:url(#clipPath15);" /><rect height="22" style="clip-path:url(#clipPath15); fill:rgb(237,28,36); stroke:none;" width="22" x="446" y="82" /><rect height="22" style="clip-path:url(#clipPath15); fill:none; stroke:black;" width="22" x="446" y="82" /><polygon points=" 457 104 446 82 468 82" style="fill:none; stroke:black;" /></g><g ID="li-1:1,2" style="fill:white; text-rendering:optimizeSpeed; font-family:'Serif'; stroke:white;"><rect height="10" style="stroke:none;" width="6" x="435" y="148" /><path d="M437.1094 157.3906 Q437.1094 157.0625 437.3359 156.8359 Q437.5625 156.6094 437.8906 156.6094 Q438.2188 156.6094 438.4453 156.8359 Q438.6719 157.0625 438.6719 157.3906 Q438.6719 157.7188 438.4453 157.9453 Q438.2188 158.1719 437.8906 158.1719 Q437.5625 158.1719 437.3359 157.9453 Q437.1094 157.7188 437.1094 157.3906 ZM435.8125 149.6406 Q436.4375 149.3594 437 149.2266 Q437.5625 149.0938 438.0469 149.0938 Q439.3438 149.0938 440.1016 149.7188 Q440.8594 150.3438 440.8594 151.4062 Q440.8594 152.5 440.2109 153.1953 Q439.5625 153.8906 438.25 154.1875 L438.25 155.6719 L437.5312 155.6719 L437.5312 153.75 Q438.5625 153.5 439.0938 152.9062 Q439.625 152.3125 439.625 151.4062 Q439.625 150.5938 439.1953 150.1328 Q438.7656 149.6719 438.0312 149.6719 Q437.3594 149.6719 436.9297 150.0547 Q436.5 150.4375 436.3906 151.1562 L435.8125 151.1562 L435.8125 149.6406 Z" style="fill:black; stroke:none;" /><rect height="10" style="stroke:none;" width="6" x="421" y="148" /><path d="M423.1094 157.3906 Q423.1094 157.0625 423.3359 156.8359 Q423.5625 156.6094 423.8906 156.6094 Q424.2188 156.6094 424.4453 156.8359 Q424.6719 157.0625 424.6719 157.3906 Q424.6719 157.7188 424.4453 157.9453 Q424.2188 158.1719 423.8906 158.1719 Q423.5625 158.1719 423.3359 157.9453 Q423.1094 157.7188 423.1094 157.3906 ZM421.8125 149.6406 Q422.4375 149.3594 423 149.2266 Q423.5625 149.0938 424.0469 149.0938 Q425.3438 149.0938 426.1016 149.7188 Q426.8594 150.3438 426.8594 151.4062 Q426.8594 152.5 426.2109 153.1953 Q425.5625 153.8906 424.25 154.1875 L424.25 155.6719 L423.5312 155.6719 L423.5312 153.75 Q424.5625 153.5 425.0938 152.9062 Q425.625 152.3125 425.625 151.4062 Q425.625 150.5938 425.1953 150.1328 Q424.7656 149.6719 424.0312 149.6719 Q423.3594 149.6719 422.9297 150.0547 Q422.5 150.4375 422.3906 151.1562 L421.8125 151.1562 L421.8125 149.6406 Z" style="fill:black; stroke:none;" /></g><g ID="li-1:1,3" style="fill:white; text-rendering:optimizeSpeed; font-family:'Serif'; stroke:white;"><rect height="10" style="stroke:none;" width="6" x="446" y="121" /><path d="M448.1094 130.3906 Q448.1094 130.0625 448.3359 129.8359 Q448.5625 129.6094 448.8906 129.6094 Q449.2188 129.6094 449.4453 129.8359 Q449.6719 130.0625 449.6719 130.3906 Q449.6719 130.7188 449.4453 130.9453 Q449.2188 131.1719 448.8906 131.1719 Q448.5625 131.1719 448.3359 130.9453 Q448.1094 130.7188 448.1094 130.3906 ZM446.8125 122.6406 Q447.4375 122.3594 448 122.2266 Q448.5625 122.0938 449.0469 122.0938 Q450.3438 122.0938 451.1016 122.7188 Q451.8594 123.3438 451.8594 124.4062 Q451.8594 125.5 451.2109 126.1953 Q450.5625 126.8906 449.25 127.1875 L449.25 128.6719 L448.5312 128.6719 L448.5312 126.75 Q449.5625 126.5 450.0938 125.9062 Q450.625 125.3125 450.625 124.4062 Q450.625 123.5938 450.1953 123.1328 Q449.7656 122.6719 449.0312 122.6719 Q448.3594 122.6719 447.9297 123.0547 Q447.5 123.4375 447.3906 124.1562 L446.8125 124.1562 L446.8125 122.6406 Z" style="fill:black; stroke:none;" /><rect height="10" style="stroke:none;" width="6" x="446" y="107" /><path d="M448.1094 116.3906 Q448.1094 116.0625 448.3359 115.8359 Q448.5625 115.6094 448.8906 115.6094 Q449.2188 115.6094 449.4453 115.8359 Q449.6719 116.0625 449.6719 116.3906 Q449.6719 116.7188 449.4453 116.9453 Q449.2188 117.1719 448.8906 117.1719 Q448.5625 117.1719 448.3359 116.9453 Q448.1094 116.7188 448.1094 116.3906 ZM446.8125 108.6406 Q447.4375 108.3594 448 108.2266 Q448.5625 108.0938 449.0469 108.0938 Q450.3438 108.0938 451.1016 108.7188 Q451.8594 109.3438 451.8594 110.4062 Q451.8594 111.5 451.2109 112.1953 Q450.5625 112.8906 449.25 113.1875 L449.25 114.6719 L448.5312 114.6719 L448.5312 112.75 Q449.5625 112.5 450.0938 111.9062 Q450.625 111.3125 450.625 110.4062 Q450.625 109.5938 450.1953 109.1328 Q449.7656 108.6719 449.0312 108.6719 Q448.3594 108.6719 447.9297 109.0547 Q447.5 109.4375 447.3906 110.1562 L446.8125 110.1562 L446.8125 108.6406 Z" style="fill:black; stroke:none;" /></g></g></svg>