<svg xmlns="http://www.w3.org/2000/svg" style="fill-opacity:1; color-rendering:auto; color-interpolation:auto; text-rendering:auto; stroke:black; stroke-linecap:square; stroke-miterlimit:10; shape-rendering:auto; stroke-opacity:1; fill:black; stroke-dasharray:none; font-weight:normal; stroke-width:1; font-family:'Dialog'; font-style:normal; stroke-linejoin:miter; font-size:12px; stroke-dashoffset:0; image-rendering:auto;"><defs id="genericDefs" /><g><defs id="defs1"><clipPath clipPathUnits="userSpaceOnUse" id="clipPath1"><path d="M446 82 L468 82 L468 104 L446 104 L446 82 Z" /></clipPath><clipPath clipPathUnits="userSpaceOnUse" id="clipPath2"><path d="M394 82 L416 82 L416 104 L394 104 L394 82 Z" /></clipPath><clipPath clipPathUnits="userSpaceOnUse" id="clipPath3"><path d="M364 93 C364 99.0751 359.0751 104 353 104 C346.9249 104 342 99.0751 342 93 C342 86.9249 346.9249 82 353 82 C359.0751 82 364 86.9249 364 93 Z" /></clipPath><clipPath clipPathUnits="userSpaceOnUse" id="clipPath4"><path d="M312 119 C312 125.0751 307.0751 130 301 130 C294.9249 130 290 125.0751 290 119 C290 112.9249 294.9249 108 301 108 C307.0751 108 312 112.9249 312 119 Z" /></clipPath><clipPath clipPathUnits="userSpaceOnUse" id="clipPath5"><path d="M238 108 L260 108 L260 130 L238 130 L238 108 Z" /></clipPath><clipPath clipPathUnits="userSpaceOnUse" id="clipPath6"><path d="M208 119 C208 125.0751 203.0751 130 197 130 C190.9249 130 186 125.0751 186 119 C186 112.9249 190.9249 108 197 108 C203.0751 108 208 112.9249 208 119 Z" /></clipPath><clipPath clipPathUnits="userSpaceOnUse" id="clipPath7"><path d="M312 67 C312 73.0751 307.0751 78 301 78 C294.9249 78 290 73.0751 290 67 C290 60.9249 294.9249 56 301 56 C307.0751 56 312 60.9249 312 67 Z" /></clipPath><clipPath clipPathUnits="userSpaceOnUse" id="clipPath8"><path d="M238 56 L260 56 L260 78 L238 78 L238 56 Z" /></clipPath><clipPath clipPathUnits="userSpaceOnUse" id="clipPath9"><path d="M208 67 C208 73.0751 203.0751 78 197 78 C190.9249 78 186 73.0751 186 67 C186 60.9249 190.9249 56 197 56 C203.0751 56 208 60.9249 208 67 Z" /></clipPath><clipPath clipPathUnits="userSpaceOnUse" id="clipPath10"><path d="M134 56 L156 56 L156 78 L134 78 L134 56 Z" /></clipPath><clipPath clipPathUnits="userSpaceOnUse" id="clipPath11"><path d="M104 67 C104 73.0751 99.0751 78 93 78 C86.9249 78 82 73.0751 82 67 C82 60.9249 86.9249 56 93 56 C99.0751 56 104 60.9249 104 67 Z" /></clipPath><clipPath clipPathUnits="userSpaceOnUse" id="clipPath12"><path d="M52 67 C52 73.0751 47.0751 78 41 78 C34.9249 78 30 73.0751 30 67 C30 60.9249 34.9249 56 41 56 C47.0751 56 52 60.9249 52 67 Z" /></clipPath><clipPath clipPathUnits="userSpaceOnUse" id="clipPath13"><path d="M457 52 L446 30 L468 30 Z" style="fill-rule:evenodd;" /></clipPath></defs><g style="fill:white; text-rendering:optimizeSpeed; stroke:white;"><rect height="160" style="stroke:none;" width="498" x="0" y="0" /></g><g ID="l-1:1,2" style="text-rendering:optimizeSpeed;"><polygon points=" 457 93 405 93" style="fill:none;" /></g><g ID="l-1:1,3" style="text-rendering:optimizeSpeed;"><polygon points=" 457 93 457 41" style="fill:none;" /></g><g ID="r-1:1" style="fill:white; text-rendering:optimizeSpeed; stroke:white;" wurcs_mono_id="1"><rect height="22" style="clip-path:url(#clipPath1); stroke:none;" width="22" x="446" y="82" /><rect height="22" style="clip-path:url(#clipPath1); fill:rgb(0,144,188); stroke:none;" width="22" x="446" y="82" /><rect height="22" style="clip-path:url(#clipPath1); fill:none; stroke:black;" width="22" x="446" y="82" /><rect height="22" style="fill:none; stroke:black;" width="22" x="446" y="82" /></g><g ID="l-1:2,4" style="text-rendering:optimizeSpeed;"><polygon points=" 405 93 353 93" style="fill:none;" /></g><g ID="r-1:2" style="fill:white; text-rendering:optimizeSpeed; stroke:white;" wurcs_mono_id="2"><rect height="22" style="clip-path:url(#clipPath2); stroke:none;" width="22" x="394" y="82" /><rect height="22" style="clip-path:url(#clipPath2); fill:rgb(0,144,188); stroke:none;" width="22" x="394" y="82" /><rect height="22" style="clip-path:url(#clipPath2); fill:none; stroke:black;" width="22" x="394" y="82" /><rect height="22" style="fill:none; stroke:black;" width="22" x="394" y="82" /></g><g ID="l-1:4,5" style="text-rendering:optimizeSpeed;"><polygon points=" 353 93 301 119" style="fill:none;" /></g><g ID="l-1:4,6" style="text-rendering:optimizeSpeed;"><polygon points=" 353 93 301 67" style="fill:none;" /></g><g ID="r-1:4" style="fill:white; text-rendering:optimizeSpeed; stroke:white;" wurcs_mono_id="3"><circle cx="353" cy="93" r="11" style="clip-path:url(#clipPath3); stroke:none;" /><rect height="22" style="clip-path:url(#clipPath3); fill:rgb(0,166,81); stroke:none;" width="22" x="342" y="82" /><rect height="22" style="clip-path:url(#clipPath3); fill:none; stroke:black;" width="22" x="342" y="82" /><circle cx="353" cy="93" r="11" style="fill:none; stroke:black;" /></g><g ID="l-1:5,7" style="text-rendering:optimizeSpeed;"><polygon points=" 301 119 249 119" style="fill:none;" /></g><g ID="r-1:5" style="fill:white; text-rendering:optimizeSpeed; stroke:white;" wurcs_mono_id="4"><circle cx="301" cy="119" r="11" style="clip-path:url(#clipPath4); stroke:none;" /><rect height="22" style="clip-path:url(#clipPath4); fill:rgb(0,166,81); stroke:none;" width="22" x="290" y="108" /><rect height="22" style="clip-path:url(#clipPath4); fill:none; stroke:black;" width="22" x="290" y="108" /><circle cx="301" cy="119" r="11" style="fill:none; stroke:black;" /></g><g ID="l-1:7,8" style="text-rendering:optimizeSpeed;"><polygon points=" 249 119 197 119" style="fill:none;" /></g><g ID="r-1:7" style="fill:white; text-rendering:optimizeSpeed; stroke:white;" wurcs_mono_id="5"><rect height="22" style="clip-path:url(#clipPath5); stroke:none;" width="22" x="238" y="108" /><rect height="22" style="clip-path:url(#clipPath5); fill:rgb(0,144,188); stroke:none;" width="22" x="238" y="108" /><rect height="22" style="clip-path:url(#clipPath5); fill:none; stroke:black;" width="22" x="238" y="108" /><rect height="22" style="fill:none; stroke:black;" width="22" x="238" y="108" /></g><g ID="r-1:8" style="fill:white; text-rendering:optimizeSpeed; stroke:white;" wurcs_mono_id="6"><circle cx="197" cy="119" r="11" style="clip-path:url(#clipPath6); stroke:none;" /><rect height="22" style="clip-path:url(#clipPath6); fill:rgb(255,212,0); stroke:none;" width="22" x="186" y="108" /><rect height="22" style="clip-path:url(#clipPath6); fill:none; stroke:black;" width="22" x="186" y="108" /><circle cx="197" cy="119" r="11" style="fill:none; stroke:black;" /></g><g ID="li-1:7,8" style="fill:white; text-rendering:optimizeSpeed; font-family:'Serif'; stroke:white;"><rect height="9" style="stroke:none;" width="8" x="226" y="122" /><path d="M230.1875 128.0312 L230.1875 123.375 L227.2031 128.0312 L230.1875 128.0312 ZM232.7656 131 L228.7812 131 L228.7812 130.375 L230.1875 130.375 L230.1875 128.6562 L226.375 128.6562 L226.375 128.0156 L230.2031 122.0938 L231.3594 122.0938 L231.3594 128.0312 L233.0312 128.0312 L233.0312 128.6562 L231.3594 128.6562 L231.3594 130.375 L232.7656 130.375 L232.7656 131 Z" style="fill:black; stroke:none;" /><rect height="13" style="stroke:none;" width="7" x="212" y="120" /><path d="M213.8281 132.25 Q214.2969 132.5938 215.1719 132.5938 Q216.0625 132.5938 216.5781 132.0703 Q217.0938 131.5469 217.0938 130.6562 Q217.0938 129.4219 216.5625 128.8906 Q216.0156 128.3594 215 128.3594 L214.4375 128.3594 L214.4375 127.7188 L214.7344 127.7188 Q215.4844 127.7188 216 127.2969 Q216.4219 126.9531 216.4219 126.0156 Q216.4219 125.6094 216.1406 125.1406 Q215.6875 124.375 215.1562 124.3906 Q213.8281 124.4375 213.8281 126.7812 L213.8281 132.25 ZM212.75 135.5 L212.75 126.7812 Q212.75 124.3281 214.0781 124 Q214.7656 123.8125 215.25 123.8125 Q216.3438 123.8125 217.0469 124.6719 Q217.6094 125.3594 217.6094 125.9375 Q217.6094 126.7812 217.2031 127.2656 Q216.7969 127.75 216.0625 127.9844 Q217.1406 128.1406 217.75 128.7812 Q218.3281 129.4062 218.3281 130.6328 Q218.3281 131.8594 217.5078 132.5156 Q216.6875 133.1719 215.1406 133.1719 Q214.1875 133.1719 213.8281 133.0312 L213.8281 135.5 L212.75 135.5 Z" style="fill:black; stroke:none;" /></g><g ID="li-1:5,7" style="fill:white; text-rendering:optimizeSpeed; font-family:'Serif'; stroke:white;"><rect height="9" style="stroke:none;" width="7" x="278" y="122" /><path d="M279.5312 124.3438 L278.875 124.3438 L278.875 122.7812 Q279.5 122.4375 280.1406 122.2656 Q280.7812 122.0938 281.3906 122.0938 Q282.75 122.0938 283.5391 122.7578 Q284.3281 123.4219 284.3281 124.5469 Q284.3281 125.8438 282.5469 127.625 Q282.4062 127.7656 282.3281 127.8281 L280.125 130.0312 L283.7656 130.0312 L283.7656 128.9531 L284.4531 128.9531 L284.4531 131 L278.8125 131 L278.8125 130.3594 L281.4688 127.7188 Q282.3438 126.8281 282.7188 126.0938 Q283.0938 125.3594 283.0938 124.5469 Q283.0938 123.6719 282.6328 123.1719 Q282.1719 122.6719 281.375 122.6719 Q280.5312 122.6719 280.0781 123.0859 Q279.625 123.5 279.5312 124.3438 Z" style="fill:black; stroke:none;" /><rect height="13" style="stroke:none;" width="7" x="264" y="120" /><path d="M265.8281 132.25 Q266.2969 132.5938 267.1719 132.5938 Q268.0625 132.5938 268.5781 132.0703 Q269.0938 131.5469 269.0938 130.6562 Q269.0938 129.4219 268.5625 128.8906 Q268.0156 128.3594 267 128.3594 L266.4375 128.3594 L266.4375 127.7188 L266.7344 127.7188 Q267.4844 127.7188 268 127.2969 Q268.4219 126.9531 268.4219 126.0156 Q268.4219 125.6094 268.1406 125.1406 Q267.6875 124.375 267.1562 124.3906 Q265.8281 124.4375 265.8281 126.7812 L265.8281 132.25 ZM264.75 135.5 L264.75 126.7812 Q264.75 124.3281 266.0781 124 Q266.7656 123.8125 267.25 123.8125 Q268.3438 123.8125 269.0469 124.6719 Q269.6094 125.3594 269.6094 125.9375 Q269.6094 126.7812 269.2031 127.2656 Q268.7969 127.75 268.0625 127.9844 Q269.1406 128.1406 269.75 128.7812 Q270.3281 129.4062 270.3281 130.6328 Q270.3281 131.8594 269.5078 132.5156 Q268.6875 133.1719 267.1406 133.1719 Q266.1875 133.1719 265.8281 133.0312 L265.8281 135.5 L264.75 135.5 Z" style="fill:black; stroke:none;" /></g><g ID="l-1:6,9" style="text-rendering:optimizeSpeed;"><polygon points=" 301 67 249 67" style="fill:none;" /></g><g ID="r-1:6" style="fill:white; text-rendering:optimizeSpeed; stroke:white;" wurcs_mono_id="7"><circle cx="301" cy="67" r="11" style="clip-path:url(#clipPath7); stroke:none;" /><rect height="22" style="clip-path:url(#clipPath7); fill:rgb(0,166,81); stroke:none;" width="22" x="290" y="56" /><rect height="22" style="clip-path:url(#clipPath7); fill:none; stroke:black;" width="22" x="290" y="56" /><circle cx="301" cy="67" r="11" style="fill:none; stroke:black;" /></g><g ID="l-1:9,10" style="text-rendering:optimizeSpeed;"><polygon points=" 249 67 197 67" style="fill:none;" /></g><g ID="r-1:9" style="fill:white; text-rendering:optimizeSpeed; stroke:white;" wurcs_mono_id="8"><rect height="22" style="clip-path:url(#clipPath8); stroke:none;" width="22" x="238" y="56" /><rect height="22" style="clip-path:url(#clipPath8); fill:rgb(0,144,188); stroke:none;" width="22" x="238" y="56" /><rect height="22" style="clip-path:url(#clipPath8); fill:none; stroke:black;" width="22" x="238" y="56" /><rect height="22" style="fill:none; stroke:black;" width="22" x="238" y="56" /></g><g ID="l-1:10,11" style="text-rendering:optimizeSpeed;"><polygon points=" 197 67 145 67" style="fill:none;" /></g><g ID="r-1:10" style="fill:white; text-rendering:optimizeSpeed; stroke:white;" wurcs_mono_id="9"><circle cx="197" cy="67" r="11" style="clip-path:url(#clipPath9); stroke:none;" /><rect height="22" style="clip-path:url(#clipPath9); fill:rgb(255,212,0); stroke:none;" width="22" x="186" y="56" /><rect height="22" style="clip-path:url(#clipPath9); fill:none; stroke:black;" width="22" x="186" y="56" /><circle cx="197" cy="67" r="11" style="fill:none; stroke:black;" /></g><g ID="l-1:11,12" style="text-rendering:optimizeSpeed;"><polygon points=" 145 67 93 67" style="fill:none;" /></g><g ID="r-1:11" style="fill:white; text-rendering:optimizeSpeed; stroke:white;" wurcs_mono_id="10"><rect height="22" style="clip-path:url(#clipPath10); stroke:none;" width="22" x="134" y="56" /><rect height="22" style="clip-path:url(#clipPath10); fill:rgb(0,144,188); stroke:none;" width="22" x="134" y="56" /><rect height="22" style="clip-path:url(#clipPath10); fill:none; stroke:black;" width="22" x="134" y="56" /><rect height="22" style="fill:none; stroke:black;" width="22" x="134" y="56" /></g><g ID="l-1:12,13" style="text-rendering:optimizeSpeed;"><polygon points=" 93 67 41 67" style="fill:none;" /></g><g ID="r-1:12" style="fill:white; text-rendering:optimizeSpeed; stroke:white;" wurcs_mono_id="11"><circle cx="93" cy="67" r="11" style="clip-path:url(#clipPath11); stroke:none;" /><rect height="22" style="clip-path:url(#clipPath11); fill:rgb(255,212,0); stroke:none;" width="22" x="82" y="56" /><rect height="22" style="clip-path:url(#clipPath11); fill:none; stroke:black;" width="22" x="82" y="56" /><circle cx="93" cy="67" r="11" style="fill:none; stroke:black;" /></g><g ID="r-1:13" style="fill:white; text-rendering:optimizeSpeed; stroke:white;" wurcs_mono_id="12"><circle cx="41" cy="67" r="11" style="clip-path:url(#clipPath12); stroke:none;" /><rect height="22" style="clip-path:url(#clipPath12); fill:rgb(255,212,0); stroke:none;" width="22" x="30" y="56" /><rect height="22" style="clip-path:url(#clipPath12); fill:none; stroke:black;" width="22" x="30" y="56" /><circle cx="41" cy="67" r="11" style="fill:none; stroke:black;" /></g><g ID="li-1:12,13" style="fill:white; text-rendering:optimizeSpeed; font-family:'Serif'; stroke:white;"><rect height="10" style="stroke:none;" width="7" x="70" y="70" /><path d="M71.1719 71.625 Q71.8594 71.3594 72.4844 71.2266 Q73.1094 71.0938 73.6562 71.0938 Q74.9531 71.0938 75.6719 71.6484 Q76.3906 72.2031 76.3906 73.1875 Q76.3906 73.9688 75.8906 74.5 Q75.3906 75.0312 74.4844 75.2188 Q75.5625 75.375 76.1562 76.0078 Q76.75 76.6406 76.75 77.6406 Q76.75 78.8594 75.9219 79.5156 Q75.0938 80.1719 73.5469 80.1719 Q72.8594 80.1719 72.2109 80.0234 Q71.5625 79.875 70.9219 79.5781 L70.9219 77.875 L71.5781 77.875 Q71.625 78.7188 72.1406 79.1562 Q72.6562 79.5938 73.5781 79.5938 Q74.4688 79.5938 74.9922 79.0703 Q75.5156 78.5469 75.5156 77.6562 Q75.5156 76.625 74.9766 76.0938 Q74.4375 75.5625 73.4062 75.5625 L72.8594 75.5625 L72.8594 74.9531 L73.1406 74.9531 Q74.1719 74.9531 74.6875 74.5312 Q75.2031 74.1094 75.2031 73.25 Q75.2031 72.4844 74.7812 72.0781 Q74.3594 71.6719 73.5625 71.6719 Q72.7656 71.6719 72.3359 72.0469 Q71.9062 72.4219 71.8281 73.1562 L71.1719 73.1562 L71.1719 71.625 Z" style="fill:black; stroke:none;" /><rect height="8" style="stroke:none;" width="8" x="56" y="71" /><path d="M61.1875 77.4688 L60.9531 78.1094 Q60.7656 78.625 60.2031 78.9375 Q59.8438 79.1562 59.2031 79.1406 Q58.0469 79.1406 57.3281 78.2344 Q56.5938 77.3281 56.5938 75.8594 Q56.5938 74.4219 57.3281 73.4844 Q58.0156 72.5938 59.4531 72.6094 Q60.4531 72.6094 60.9531 73 Q61.4062 73.3438 61.5781 74.0938 L61.625 74.3125 L61.8438 73.6719 Q62.0625 73.0469 62.6562 72.75 L63.25 72.75 L63.25 73.0938 Q62.6875 73.2656 62.5 73.8125 L61.8906 75.4844 L62.2969 77.2812 Q62.5 78.2031 62.7344 78.2969 Q63.0469 78.4375 63.7812 78 L63.7812 78.7188 Q62.5938 79.4062 61.75 78.6875 Q61.375 78.3594 61.2656 77.875 L61.1875 77.4688 ZM60.9219 76.3125 L60.5625 74.5938 Q60.2656 73.2188 59.4688 73.2188 Q58.7969 73.2031 58.2812 73.9375 Q57.8594 74.5156 57.8594 75.875 Q57.8594 77.1719 58.2812 77.8281 Q58.75 78.5469 59.5312 78.5 Q60.2031 78.4375 60.6875 77 L60.9219 76.3125 Z" style="fill:black; stroke:none;" /></g><g ID="li-1:11,12" style="fill:white; text-rendering:optimizeSpeed; font-family:'Serif'; stroke:white;"><rect height="9" style="stroke:none;" width="8" x="122" y="70" /><path d="M126.1875 76.0312 L126.1875 71.375 L123.2031 76.0312 L126.1875 76.0312 ZM128.7656 79 L124.7812 79 L124.7812 78.375 L126.1875 78.375 L126.1875 76.6562 L122.375 76.6562 L122.375 76.0156 L126.2031 70.0938 L127.3594 70.0938 L127.3594 76.0312 L129.0312 76.0312 L129.0312 76.6562 L127.3594 76.6562 L127.3594 78.375 L128.7656 78.375 L128.7656 79 Z" style="fill:black; stroke:none;" /><rect height="13" style="stroke:none;" width="7" x="108" y="68" /><path d="M109.8281 80.25 Q110.2969 80.5938 111.1719 80.5938 Q112.0625 80.5938 112.5781 80.0703 Q113.0938 79.5469 113.0938 78.6562 Q113.0938 77.4219 112.5625 76.8906 Q112.0156 76.3594 111 76.3594 L110.4375 76.3594 L110.4375 75.7188 L110.7344 75.7188 Q111.4844 75.7188 112 75.2969 Q112.4219 74.9531 112.4219 74.0156 Q112.4219 73.6094 112.1406 73.1406 Q111.6875 72.375 111.1562 72.3906 Q109.8281 72.4375 109.8281 74.7812 L109.8281 80.25 ZM108.75 83.5 L108.75 74.7812 Q108.75 72.3281 110.0781 72 Q110.7656 71.8125 111.25 71.8125 Q112.3438 71.8125 113.0469 72.6719 Q113.6094 73.3594 113.6094 73.9375 Q113.6094 74.7812 113.2031 75.2656 Q112.7969 75.75 112.0625 75.9844 Q113.1406 76.1406 113.75 76.7812 Q114.3281 77.4062 114.3281 78.6328 Q114.3281 79.8594 113.5078 80.5156 Q112.6875 81.1719 111.1406 81.1719 Q110.1875 81.1719 109.8281 81.0312 L109.8281 83.5 L108.75 83.5 Z" style="fill:black; stroke:none;" /></g><g ID="li-1:10,11" style="fill:white; text-rendering:optimizeSpeed; font-family:'Serif'; stroke:white;"><rect height="10" style="stroke:none;" width="7" x="174" y="70" /><path d="M175.1719 71.625 Q175.8594 71.3594 176.4844 71.2266 Q177.1094 71.0938 177.6562 71.0938 Q178.9531 71.0938 179.6719 71.6484 Q180.3906 72.2031 180.3906 73.1875 Q180.3906 73.9688 179.8906 74.5 Q179.3906 75.0312 178.4844 75.2188 Q179.5625 75.375 180.1562 76.0078 Q180.75 76.6406 180.75 77.6406 Q180.75 78.8594 179.9219 79.5156 Q179.0938 80.1719 177.5469 80.1719 Q176.8594 80.1719 176.2109 80.0234 Q175.5625 79.875 174.9219 79.5781 L174.9219 77.875 L175.5781 77.875 Q175.625 78.7188 176.1406 79.1562 Q176.6562 79.5938 177.5781 79.5938 Q178.4688 79.5938 178.9922 79.0703 Q179.5156 78.5469 179.5156 77.6562 Q179.5156 76.625 178.9766 76.0938 Q178.4375 75.5625 177.4062 75.5625 L176.8594 75.5625 L176.8594 74.9531 L177.1406 74.9531 Q178.1719 74.9531 178.6875 74.5312 Q179.2031 74.1094 179.2031 73.25 Q179.2031 72.4844 178.7812 72.0781 Q178.3594 71.6719 177.5625 71.6719 Q176.7656 71.6719 176.3359 72.0469 Q175.9062 72.4219 175.8281 73.1562 L175.1719 73.1562 L175.1719 71.625 Z" style="fill:black; stroke:none;" /><rect height="13" style="stroke:none;" width="7" x="160" y="68" /><path d="M161.8281 80.25 Q162.2969 80.5938 163.1719 80.5938 Q164.0625 80.5938 164.5781 80.0703 Q165.0938 79.5469 165.0938 78.6562 Q165.0938 77.4219 164.5625 76.8906 Q164.0156 76.3594 163 76.3594 L162.4375 76.3594 L162.4375 75.7188 L162.7344 75.7188 Q163.4844 75.7188 164 75.2969 Q164.4219 74.9531 164.4219 74.0156 Q164.4219 73.6094 164.1406 73.1406 Q163.6875 72.375 163.1562 72.3906 Q161.8281 72.4375 161.8281 74.7812 L161.8281 80.25 ZM160.75 83.5 L160.75 74.7812 Q160.75 72.3281 162.0781 72 Q162.7656 71.8125 163.25 71.8125 Q164.3438 71.8125 165.0469 72.6719 Q165.6094 73.3594 165.6094 73.9375 Q165.6094 74.7812 165.2031 75.2656 Q164.7969 75.75 164.0625 75.9844 Q165.1406 76.1406 165.75 76.7812 Q166.3281 77.4062 166.3281 78.6328 Q166.3281 79.8594 165.5078 80.5156 Q164.6875 81.1719 163.1406 81.1719 Q162.1875 81.1719 161.8281 81.0312 L161.8281 83.5 L160.75 83.5 Z" style="fill:black; stroke:none;" /></g><g ID="li-1:9,10" style="fill:white; text-rendering:optimizeSpeed; font-family:'Serif'; stroke:white;"><rect height="9" style="stroke:none;" width="8" x="226" y="70" /><path d="M230.1875 76.0312 L230.1875 71.375 L227.2031 76.0312 L230.1875 76.0312 ZM232.7656 79 L228.7812 79 L228.7812 78.375 L230.1875 78.375 L230.1875 76.6562 L226.375 76.6562 L226.375 76.0156 L230.2031 70.0938 L231.3594 70.0938 L231.3594 76.0312 L233.0312 76.0312 L233.0312 76.6562 L231.3594 76.6562 L231.3594 78.375 L232.7656 78.375 L232.7656 79 Z" style="fill:black; stroke:none;" /><rect height="13" style="stroke:none;" width="7" x="212" y="68" /><path d="M213.8281 80.25 Q214.2969 80.5938 215.1719 80.5938 Q216.0625 80.5938 216.5781 80.0703 Q217.0938 79.5469 217.0938 78.6562 Q217.0938 77.4219 216.5625 76.8906 Q216.0156 76.3594 215 76.3594 L214.4375 76.3594 L214.4375 75.7188 L214.7344 75.7188 Q215.4844 75.7188 216 75.2969 Q216.4219 74.9531 216.4219 74.0156 Q216.4219 73.6094 216.1406 73.1406 Q215.6875 72.375 215.1562 72.3906 Q213.8281 72.4375 213.8281 74.7812 L213.8281 80.25 ZM212.75 83.5 L212.75 74.7812 Q212.75 72.3281 214.0781 72 Q214.7656 71.8125 215.25 71.8125 Q216.3438 71.8125 217.0469 72.6719 Q217.6094 73.3594 217.6094 73.9375 Q217.6094 74.7812 217.2031 75.2656 Q216.7969 75.75 216.0625 75.9844 Q217.1406 76.1406 217.75 76.7812 Q218.3281 77.4062 218.3281 78.6328 Q218.3281 79.8594 217.5078 80.5156 Q216.6875 81.1719 215.1406 81.1719 Q214.1875 81.1719 213.8281 81.0312 L213.8281 83.5 L212.75 83.5 Z" style="fill:black; stroke:none;" /></g><g ID="li-1:6,9" style="fill:white; text-rendering:optimizeSpeed; font-family:'Serif'; stroke:white;"><rect height="9" style="stroke:none;" width="7" x="278" y="70" /><path d="M279.5312 72.3438 L278.875 72.3438 L278.875 70.7812 Q279.5 70.4375 280.1406 70.2656 Q280.7812 70.0938 281.3906 70.0938 Q282.75 70.0938 283.5391 70.7578 Q284.3281 71.4219 284.3281 72.5469 Q284.3281 73.8438 282.5469 75.625 Q282.4062 75.7656 282.3281 75.8281 L280.125 78.0312 L283.7656 78.0312 L283.7656 76.9531 L284.4531 76.9531 L284.4531 79 L278.8125 79 L278.8125 78.3594 L281.4688 75.7188 Q282.3438 74.8281 282.7188 74.0938 Q283.0938 73.3594 283.0938 72.5469 Q283.0938 71.6719 282.6328 71.1719 Q282.1719 70.6719 281.375 70.6719 Q280.5312 70.6719 280.0781 71.0859 Q279.625 71.5 279.5312 72.3438 Z" style="fill:black; stroke:none;" /><rect height="13" style="stroke:none;" width="7" x="264" y="68" /><path d="M265.8281 80.25 Q266.2969 80.5938 267.1719 80.5938 Q268.0625 80.5938 268.5781 80.0703 Q269.0938 79.5469 269.0938 78.6562 Q269.0938 77.4219 268.5625 76.8906 Q268.0156 76.3594 267 76.3594 L266.4375 76.3594 L266.4375 75.7188 L266.7344 75.7188 Q267.4844 75.7188 268 75.2969 Q268.4219 74.9531 268.4219 74.0156 Q268.4219 73.6094 268.1406 73.1406 Q267.6875 72.375 267.1562 72.3906 Q265.8281 72.4375 265.8281 74.7812 L265.8281 80.25 ZM264.75 83.5 L264.75 74.7812 Q264.75 72.3281 266.0781 72 Q266.7656 71.8125 267.25 71.8125 Q268.3438 71.8125 269.0469 72.6719 Q269.6094 73.3594 269.6094 73.9375 Q269.6094 74.7812 269.2031 75.2656 Q268.7969 75.75 268.0625 75.9844 Q269.1406 76.1406 269.75 76.7812 Q270.3281 77.4062 270.3281 78.6328 Q270.3281 79.8594 269.5078 80.5156 Q268.6875 81.1719 267.1406 81.1719 Q266.1875 81.1719 265.8281 81.0312 L265.8281 83.5 L264.75 83.5 Z" style="fill:black; stroke:none;" /></g><g ID="li-1:4,5" style="fill:white; text-rendering:optimizeSpeed; font-family:'Serif'; stroke:white;"><rect height="10" style="stroke:none;" width="7" x="334" y="104" /><path d="M335.1719 105.625 Q335.8594 105.3594 336.4844 105.2266 Q337.1094 105.0938 337.6562 105.0938 Q338.9531 105.0938 339.6719 105.6484 Q340.3906 106.2031 340.3906 107.1875 Q340.3906 107.9688 339.8906 108.5 Q339.3906 109.0312 338.4844 109.2188 Q339.5625 109.375 340.1562 110.0078 Q340.75 110.6406 340.75 111.6406 Q340.75 112.8594 339.9219 113.5156 Q339.0938 114.1719 337.5469 114.1719 Q336.8594 114.1719 336.2109 114.0234 Q335.5625 113.875 334.9219 113.5781 L334.9219 111.875 L335.5781 111.875 Q335.625 112.7188 336.1406 113.1562 Q336.6562 113.5938 337.5781 113.5938 Q338.4688 113.5938 338.9922 113.0703 Q339.5156 112.5469 339.5156 111.6562 Q339.5156 110.625 338.9766 110.0938 Q338.4375 109.5625 337.4062 109.5625 L336.8594 109.5625 L336.8594 108.9531 L337.1406 108.9531 Q338.1719 108.9531 338.6875 108.5312 Q339.2031 108.1094 339.2031 107.25 Q339.2031 106.4844 338.7812 106.0781 Q338.3594 105.6719 337.5625 105.6719 Q336.7656 105.6719 336.3359 106.0469 Q335.9062 106.4219 335.8281 107.1562 L335.1719 107.1562 L335.1719 105.625 Z" style="fill:black; stroke:none;" /><rect height="8" style="stroke:none;" width="8" x="318" y="113" /><path d="M323.1875 119.4688 L322.9531 120.1094 Q322.7656 120.625 322.2031 120.9375 Q321.8438 121.1562 321.2031 121.1406 Q320.0469 121.1406 319.3281 120.2344 Q318.5938 119.3281 318.5938 117.8594 Q318.5938 116.4219 319.3281 115.4844 Q320.0156 114.5938 321.4531 114.6094 Q322.4531 114.6094 322.9531 115 Q323.4062 115.3438 323.5781 116.0938 L323.625 116.3125 L323.8438 115.6719 Q324.0625 115.0469 324.6562 114.75 L325.25 114.75 L325.25 115.0938 Q324.6875 115.2656 324.5 115.8125 L323.8906 117.4844 L324.2969 119.2812 Q324.5 120.2031 324.7344 120.2969 Q325.0469 120.4375 325.7812 120 L325.7812 120.7188 Q324.5938 121.4062 323.75 120.6875 Q323.375 120.3594 323.2656 119.875 L323.1875 119.4688 ZM322.9219 118.3125 L322.5625 116.5938 Q322.2656 115.2188 321.4688 115.2188 Q320.7969 115.2031 320.2812 115.9375 Q319.8594 116.5156 319.8594 117.875 Q319.8594 119.1719 320.2812 119.8281 Q320.75 120.5469 321.5312 120.5 Q322.2031 120.4375 322.6875 119 L322.9219 118.3125 Z" style="fill:black; stroke:none;" /></g><g ID="li-1:4,6" style="fill:white; text-rendering:optimizeSpeed; font-family:'Serif'; stroke:white;"><rect height="10" style="stroke:none;" width="7" x="327" y="86" /><path d="M330.9219 95.5938 Q331.75 95.5938 332.1953 94.9844 Q332.6406 94.375 332.6406 93.2344 Q332.6406 92.1094 332.1953 91.5 Q331.75 90.8906 330.9219 90.8906 Q330.0938 90.8906 329.6484 91.4766 Q329.2031 92.0625 329.2031 93.1719 Q329.2031 94.3281 329.6484 94.9609 Q330.0938 95.5938 330.9219 95.5938 ZM329.0156 91.1875 Q329.4219 90.75 329.9219 90.5312 Q330.4219 90.3125 331.0625 90.3125 Q332.3594 90.3125 333.1172 91.0938 Q333.875 91.875 333.875 93.2344 Q333.875 94.5625 333.0625 95.3672 Q332.25 96.1719 330.875 96.1719 Q329.3906 96.1719 328.5938 95.0625 Q327.7969 93.9531 327.7969 91.9062 Q327.7969 89.6094 328.7422 88.3516 Q329.6875 87.0938 331.4062 87.0938 Q331.875 87.0938 332.3828 87.1797 Q332.8906 87.2656 333.4219 87.4375 L333.4219 88.8906 L332.7656 88.8906 Q332.6875 88.2969 332.3047 87.9844 Q331.9219 87.6719 331.2812 87.6719 Q330.1406 87.6719 329.5859 88.5312 Q329.0312 89.3906 329.0156 91.1875 Z" style="fill:black; stroke:none;" /><rect height="8" style="stroke:none;" width="8" x="311" y="79" /><path d="M316.1875 85.4688 L315.9531 86.1094 Q315.7656 86.625 315.2031 86.9375 Q314.8438 87.1562 314.2031 87.1406 Q313.0469 87.1406 312.3281 86.2344 Q311.5938 85.3281 311.5938 83.8594 Q311.5938 82.4219 312.3281 81.4844 Q313.0156 80.5938 314.4531 80.6094 Q315.4531 80.6094 315.9531 81 Q316.4062 81.3438 316.5781 82.0938 L316.625 82.3125 L316.8438 81.6719 Q317.0625 81.0469 317.6562 80.75 L318.25 80.75 L318.25 81.0938 Q317.6875 81.2656 317.5 81.8125 L316.8906 83.4844 L317.2969 85.2812 Q317.5 86.2031 317.7344 86.2969 Q318.0469 86.4375 318.7812 86 L318.7812 86.7188 Q317.5938 87.4062 316.75 86.6875 Q316.375 86.3594 316.2656 85.875 L316.1875 85.4688 ZM315.9219 84.3125 L315.5625 82.5938 Q315.2656 81.2188 314.4688 81.2188 Q313.7969 81.2031 313.2812 81.9375 Q312.8594 82.5156 312.8594 83.875 Q312.8594 85.1719 313.2812 85.8281 Q313.75 86.5469 314.5312 86.5 Q315.2031 86.4375 315.6875 85 L315.9219 84.3125 Z" style="fill:black; stroke:none;" /></g><g ID="li-1:2,4" style="fill:white; text-rendering:optimizeSpeed; font-family:'Serif'; stroke:white;"><rect height="9" style="stroke:none;" width="8" x="382" y="96" /><path d="M386.1875 102.0312 L386.1875 97.375 L383.2031 102.0312 L386.1875 102.0312 ZM388.7656 105 L384.7812 105 L384.7812 104.375 L386.1875 104.375 L386.1875 102.6562 L382.375 102.6562 L382.375 102.0156 L386.2031 96.0938 L387.3594 96.0938 L387.3594 102.0312 L389.0312 102.0312 L389.0312 102.6562 L387.3594 102.6562 L387.3594 104.375 L388.7656 104.375 L388.7656 105 Z" style="fill:black; stroke:none;" /><rect height="13" style="stroke:none;" width="7" x="368" y="94" /><path d="M369.8281 106.25 Q370.2969 106.5938 371.1719 106.5938 Q372.0625 106.5938 372.5781 106.0703 Q373.0938 105.5469 373.0938 104.6562 Q373.0938 103.4219 372.5625 102.8906 Q372.0156 102.3594 371 102.3594 L370.4375 102.3594 L370.4375 101.7188 L370.7344 101.7188 Q371.4844 101.7188 372 101.2969 Q372.4219 100.9531 372.4219 100.0156 Q372.4219 99.6094 372.1406 99.1406 Q371.6875 98.375 371.1562 98.3906 Q369.8281 98.4375 369.8281 100.7812 L369.8281 106.25 ZM368.75 109.5 L368.75 100.7812 Q368.75 98.3281 370.0781 98 Q370.7656 97.8125 371.25 97.8125 Q372.3438 97.8125 373.0469 98.6719 Q373.6094 99.3594 373.6094 99.9375 Q373.6094 100.7812 373.2031 101.2656 Q372.7969 101.75 372.0625 101.9844 Q373.1406 102.1406 373.75 102.7812 Q374.3281 103.4062 374.3281 104.6328 Q374.3281 105.8594 373.5078 106.5156 Q372.6875 107.1719 371.1406 107.1719 Q370.1875 107.1719 369.8281 107.0312 L369.8281 109.5 L368.75 109.5 Z" style="fill:black; stroke:none;" /></g><g ID="r-1:3" style="fill:white; text-rendering:optimizeSpeed; stroke:white;" wurcs_mono_id="13"><polygon points=" 457 52 446 30 468 30" style="stroke:none; clip-path:url(#clipPath13);" /><rect height="22" style="clip-path:url(#clipPath13); fill:rgb(237,28,36); stroke:none;" width="22" x="446" y="30" /><rect height="22" style="clip-path:url(#clipPath13); fill:none; stroke:black;" width="22" x="446" y="30" /><polygon points=" 457 52 446 30 468 30" style="fill:none; stroke:black;" /></g><g ID="li-1:1,2" style="fill:white; text-rendering:optimizeSpeed; font-family:'Serif'; stroke:white;"><rect height="9" style="stroke:none;" width="8" x="434" y="96" /><path d="M438.1875 102.0312 L438.1875 97.375 L435.2031 102.0312 L438.1875 102.0312 ZM440.7656 105 L436.7812 105 L436.7812 104.375 L438.1875 104.375 L438.1875 102.6562 L434.375 102.6562 L434.375 102.0156 L438.2031 96.0938 L439.3594 96.0938 L439.3594 102.0312 L441.0312 102.0312 L441.0312 102.6562 L439.3594 102.6562 L439.3594 104.375 L440.7656 104.375 L440.7656 105 Z" style="fill:black; stroke:none;" /><rect height="13" style="stroke:none;" width="7" x="420" y="94" /><path d="M421.8281 106.25 Q422.2969 106.5938 423.1719 106.5938 Q424.0625 106.5938 424.5781 106.0703 Q425.0938 105.5469 425.0938 104.6562 Q425.0938 103.4219 424.5625 102.8906 Q424.0156 102.3594 423 102.3594 L422.4375 102.3594 L422.4375 101.7188 L422.7344 101.7188 Q423.4844 101.7188 424 101.2969 Q424.4219 100.9531 424.4219 100.0156 Q424.4219 99.6094 424.1406 99.1406 Q423.6875 98.375 423.1562 98.3906 Q421.8281 98.4375 421.8281 100.7812 L421.8281 106.25 ZM420.75 109.5 L420.75 100.7812 Q420.75 98.3281 422.0781 98 Q422.7656 97.8125 423.25 97.8125 Q424.3438 97.8125 425.0469 98.6719 Q425.6094 99.3594 425.6094 99.9375 Q425.6094 100.7812 425.2031 101.2656 Q424.7969 101.75 424.0625 101.9844 Q425.1406 102.1406 425.75 102.7812 Q426.3281 103.4062 426.3281 104.6328 Q426.3281 105.8594 425.5078 106.5156 Q424.6875 107.1719 423.1406 107.1719 Q422.1875 107.1719 421.8281 107.0312 L421.8281 109.5 L420.75 109.5 Z" style="fill:black; stroke:none;" /></g><g ID="li-1:1,3" style="fill:white; text-rendering:optimizeSpeed; font-family:'Serif'; stroke:white;"><rect height="10" style="stroke:none;" width="7" x="445" y="69" /><path d="M448.9219 78.5938 Q449.75 78.5938 450.1953 77.9844 Q450.6406 77.375 450.6406 76.2344 Q450.6406 75.1094 450.1953 74.5 Q449.75 73.8906 448.9219 73.8906 Q448.0938 73.8906 447.6484 74.4766 Q447.2031 75.0625 447.2031 76.1719 Q447.2031 77.3281 447.6484 77.9609 Q448.0938 78.5938 448.9219 78.5938 ZM447.0156 74.1875 Q447.4219 73.75 447.9219 73.5312 Q448.4219 73.3125 449.0625 73.3125 Q450.3594 73.3125 451.1172 74.0938 Q451.875 74.875 451.875 76.2344 Q451.875 77.5625 451.0625 78.3672 Q450.25 79.1719 448.875 79.1719 Q447.3906 79.1719 446.5938 78.0625 Q445.7969 76.9531 445.7969 74.9062 Q445.7969 72.6094 446.7422 71.3516 Q447.6875 70.0938 449.4062 70.0938 Q449.875 70.0938 450.3828 70.1797 Q450.8906 70.2656 451.4219 70.4375 L451.4219 71.8906 L450.7656 71.8906 Q450.6875 71.2969 450.3047 70.9844 Q449.9219 70.6719 449.2812 70.6719 Q448.1406 70.6719 447.5859 71.5312 Q447.0312 72.3906 447.0156 74.1875 Z" style="fill:black; stroke:none;" /><rect height="8" style="stroke:none;" width="8" x="445" y="56" /><path d="M450.1875 62.4688 L449.9531 63.1094 Q449.7656 63.625 449.2031 63.9375 Q448.8438 64.1562 448.2031 64.1406 Q447.0469 64.1406 446.3281 63.2344 Q445.5938 62.3281 445.5938 60.8594 Q445.5938 59.4219 446.3281 58.4844 Q447.0156 57.5938 448.4531 57.6094 Q449.4531 57.6094 449.9531 58 Q450.4062 58.3438 450.5781 59.0938 L450.625 59.3125 L450.8438 58.6719 Q451.0625 58.0469 451.6562 57.75 L452.25 57.75 L452.25 58.0938 Q451.6875 58.2656 451.5 58.8125 L450.8906 60.4844 L451.2969 62.2812 Q451.5 63.2031 451.7344 63.2969 Q452.0469 63.4375 452.7812 63 L452.7812 63.7188 Q451.5938 64.4062 450.75 63.6875 Q450.375 63.3594 450.2656 62.875 L450.1875 62.4688 ZM449.9219 61.3125 L449.5625 59.5938 Q449.2656 58.2188 448.4688 58.2188 Q447.7969 58.2031 447.2812 58.9375 Q446.8594 59.5156 446.8594 60.875 Q446.8594 62.1719 447.2812 62.8281 Q447.75 63.5469 448.5312 63.5 Q449.2031 63.4375 449.6875 62 L449.9219 61.3125 Z" style="fill:black; stroke:none;" /></g></g></svg>