<svg xmlns="http://www.w3.org/2000/svg" style="fill-opacity:1; color-rendering:auto; color-interpolation:auto; text-rendering:auto; stroke:black; stroke-linecap:square; stroke-miterlimit:10; shape-rendering:auto; stroke-opacity:1; fill:black; stroke-dasharray:none; font-weight:normal; stroke-width:1; font-family:'Dialog'; font-style:normal; stroke-linejoin:miter; font-size:12px; stroke-dashoffset:0; image-rendering:auto;"><defs id="genericDefs" /><g><defs id="defs1"><clipPath clipPathUnits="userSpaceOnUse" id="clipPath1"><path d="M238 82 L260 82 L260 104 L238 104 L238 82 Z" /></clipPath><clipPath clipPathUnits="userSpaceOnUse" id="clipPath2"><path d="M208 145 C208 151.0751 203.0751 156 197 156 C190.9249 156 186 151.0751 186 145 C186 138.9249 190.9249 134 197 134 C203.0751 134 208 138.9249 208 145 Z" /></clipPath><clipPath clipPathUnits="userSpaceOnUse" id="clipPath3"><path d="M145 134 L156 145 L145 156 L134 145 Z" style="fill-rule:evenodd;" /></clipPath><clipPath clipPathUnits="userSpaceOnUse" id="clipPath4"><path d="M186 30 L208 30 L208 52 L186 52 L186 30 Z" /></clipPath><clipPath clipPathUnits="userSpaceOnUse" id="clipPath5"><path d="M197 82 L208 104 L186 104 Z" style="fill-rule:evenodd;" /></clipPath><clipPath clipPathUnits="userSpaceOnUse" id="clipPath6"><path d="M156 41 C156 47.0751 151.0751 52 145 52 C138.9249 52 134 47.0751 134 41 C134 34.9249 138.9249 30 145 30 C151.0751 30 156 34.9249 156 41 Z" /></clipPath><clipPath clipPathUnits="userSpaceOnUse" id="clipPath7"><path d="M82 30 L104 30 L104 52 L82 52 L82 30 Z" /></clipPath><clipPath clipPathUnits="userSpaceOnUse" id="clipPath8"><path d="M52 41 C52 47.0751 47.0751 52 41 52 C34.9249 52 30 47.0751 30 41 C30 34.9249 34.9249 30 41 30 C47.0751 30 52 34.9249 52 41 Z" /></clipPath></defs><g style="fill:white; text-rendering:optimizeSpeed; stroke:white;"><rect height="186" style="stroke:none;" width="290" x="0" y="0" /></g><g ID="l-1:1,2" style="text-rendering:optimizeSpeed;"><polygon points=" 249 93 197 145" style="fill:none;" /></g><g ID="l-1:1,3" style="text-rendering:optimizeSpeed;"><polygon points=" 249 93 197 41" style="fill:none;" /></g><g ID="r-1:1" style="fill:white; text-rendering:optimizeSpeed; stroke:white;" wurcs_mono_id="1"><rect height="22" style="clip-path:url(#clipPath1); stroke:none;" width="22" x="238" y="82" /><rect height="22" style="clip-path:url(#clipPath1); fill:rgb(255,212,0); stroke:none;" width="22" x="238" y="82" /><rect height="22" style="clip-path:url(#clipPath1); fill:none; stroke:black;" width="22" x="238" y="82" /><rect height="22" style="fill:none; stroke:black;" width="22" x="238" y="82" /></g><g ID="l-1:2,4" style="text-rendering:optimizeSpeed;"><polygon points=" 197 145 145 145" style="fill:none;" /></g><g ID="r-1:2" style="fill:white; text-rendering:optimizeSpeed; stroke:white;" wurcs_mono_id="2"><circle cx="197" cy="145" r="11" style="clip-path:url(#clipPath2); stroke:none;" /><rect height="22" style="clip-path:url(#clipPath2); fill:rgb(255,212,0); stroke:none;" width="22" x="186" y="134" /><rect height="22" style="clip-path:url(#clipPath2); fill:none; stroke:black;" width="22" x="186" y="134" /><circle cx="197" cy="145" r="11" style="fill:none; stroke:black;" /></g><g ID="r-1:4" style="fill:white; text-rendering:optimizeSpeed; stroke:white;" wurcs_mono_id="3"><polygon points=" 145 134 156 145 145 156 134 145" style="stroke:none; clip-path:url(#clipPath3);" /><rect height="22" style="clip-path:url(#clipPath3); fill:rgb(165,67,153); stroke:none;" width="22" x="134" y="134" /><rect height="22" style="clip-path:url(#clipPath3); fill:none; stroke:black;" width="22" x="134" y="134" /><polygon points=" 145 134 156 145 145 156 134 145" style="fill:none; stroke:black;" /></g><g ID="li-1:2,4" style="fill:white; text-rendering:optimizeSpeed; font-family:'Serif'; stroke:white;"><rect height="10" style="stroke:none;" width="7" x="174" y="148" /><path d="M175.1719 149.625 Q175.8594 149.3594 176.4844 149.2266 Q177.1094 149.0938 177.6562 149.0938 Q178.9531 149.0938 179.6719 149.6484 Q180.3906 150.2031 180.3906 151.1875 Q180.3906 151.9688 179.8906 152.5 Q179.3906 153.0312 178.4844 153.2188 Q179.5625 153.375 180.1562 154.0078 Q180.75 154.6406 180.75 155.6406 Q180.75 156.8594 179.9219 157.5156 Q179.0938 158.1719 177.5469 158.1719 Q176.8594 158.1719 176.2109 158.0234 Q175.5625 157.875 174.9219 157.5781 L174.9219 155.875 L175.5781 155.875 Q175.625 156.7188 176.1406 157.1562 Q176.6562 157.5938 177.5781 157.5938 Q178.4688 157.5938 178.9922 157.0703 Q179.5156 156.5469 179.5156 155.6562 Q179.5156 154.625 178.9766 154.0938 Q178.4375 153.5625 177.4062 153.5625 L176.8594 153.5625 L176.8594 152.9531 L177.1406 152.9531 Q178.1719 152.9531 178.6875 152.5312 Q179.2031 152.1094 179.2031 151.25 Q179.2031 150.4844 178.7812 150.0781 Q178.3594 149.6719 177.5625 149.6719 Q176.7656 149.6719 176.3359 150.0469 Q175.9062 150.4219 175.8281 151.1562 L175.1719 151.1562 L175.1719 149.625 Z" style="fill:black; stroke:none;" /><rect height="8" style="stroke:none;" width="8" x="160" y="149" /><path d="M165.1875 155.4688 L164.9531 156.1094 Q164.7656 156.625 164.2031 156.9375 Q163.8438 157.1562 163.2031 157.1406 Q162.0469 157.1406 161.3281 156.2344 Q160.5938 155.3281 160.5938 153.8594 Q160.5938 152.4219 161.3281 151.4844 Q162.0156 150.5938 163.4531 150.6094 Q164.4531 150.6094 164.9531 151 Q165.4062 151.3438 165.5781 152.0938 L165.625 152.3125 L165.8438 151.6719 Q166.0625 151.0469 166.6562 150.75 L167.25 150.75 L167.25 151.0938 Q166.6875 151.2656 166.5 151.8125 L165.8906 153.4844 L166.2969 155.2812 Q166.5 156.2031 166.7344 156.2969 Q167.0469 156.4375 167.7812 156 L167.7812 156.7188 Q166.5938 157.4062 165.75 156.6875 Q165.375 156.3594 165.2656 155.875 L165.1875 155.4688 ZM164.9219 154.3125 L164.5625 152.5938 Q164.2656 151.2188 163.4688 151.2188 Q162.7969 151.2031 162.2812 151.9375 Q161.8594 152.5156 161.8594 153.875 Q161.8594 155.1719 162.2812 155.8281 Q162.75 156.5469 163.5312 156.5 Q164.2031 156.4375 164.6875 155 L164.9219 154.3125 Z" style="fill:black; stroke:none;" /></g><g ID="l-1:3,5" style="text-rendering:optimizeSpeed;"><polygon points=" 197 41 197 93" style="fill:none;" /></g><g ID="l-1:3,6" style="text-rendering:optimizeSpeed;"><polygon points=" 197 41 145 41" style="fill:none;" /></g><g ID="r-1:3" style="fill:white; text-rendering:optimizeSpeed; stroke:white;" wurcs_mono_id="4"><rect height="22" style="clip-path:url(#clipPath4); stroke:none;" width="22" x="186" y="30" /><rect height="22" style="clip-path:url(#clipPath4); fill:rgb(0,144,188); stroke:none;" width="22" x="186" y="30" /><rect height="22" style="clip-path:url(#clipPath4); fill:none; stroke:black;" width="22" x="186" y="30" /><rect height="22" style="fill:none; stroke:black;" width="22" x="186" y="30" /></g><g ID="r-1:5" style="fill:white; text-rendering:optimizeSpeed; stroke:white;" wurcs_mono_id="5"><polygon points=" 197 82 208 104 186 104" style="stroke:none; clip-path:url(#clipPath5);" /><rect height="22" style="clip-path:url(#clipPath5); fill:rgb(237,28,36); stroke:none;" width="22" x="186" y="82" /><rect height="22" style="clip-path:url(#clipPath5); fill:none; stroke:black;" width="22" x="186" y="82" /><polygon points=" 197 82 208 104 186 104" style="fill:none; stroke:black;" /></g><g ID="l-1:6,7" style="text-rendering:optimizeSpeed;"><polygon points=" 145 41 93 41" style="fill:none;" /></g><g ID="r-1:6" style="fill:white; text-rendering:optimizeSpeed; stroke:white;" wurcs_mono_id="6"><circle cx="145" cy="41" r="11" style="clip-path:url(#clipPath6); stroke:none;" /><rect height="22" style="clip-path:url(#clipPath6); fill:rgb(255,212,0); stroke:none;" width="22" x="134" y="30" /><rect height="22" style="clip-path:url(#clipPath6); fill:none; stroke:black;" width="22" x="134" y="30" /><circle cx="145" cy="41" r="11" style="fill:none; stroke:black;" /></g><g ID="l-1:7,8" style="text-rendering:optimizeSpeed;"><polygon points=" 93 41 41 41" style="fill:none;" /></g><g ID="r-1:7" style="fill:white; text-rendering:optimizeSpeed; stroke:white;" wurcs_mono_id="7"><rect height="22" style="clip-path:url(#clipPath7); stroke:none;" width="22" x="82" y="30" /><rect height="22" style="clip-path:url(#clipPath7); fill:rgb(0,144,188); stroke:none;" width="22" x="82" y="30" /><rect height="22" style="clip-path:url(#clipPath7); fill:none; stroke:black;" width="22" x="82" y="30" /><rect height="22" style="fill:none; stroke:black;" width="22" x="82" y="30" /></g><g ID="r-1:8" style="fill:white; text-rendering:optimizeSpeed; stroke:white;" wurcs_mono_id="8"><circle cx="41" cy="41" r="11" style="clip-path:url(#clipPath8); stroke:none;" /><rect height="22" style="clip-path:url(#clipPath8); fill:rgb(255,212,0); stroke:none;" width="22" x="30" y="30" /><rect height="22" style="clip-path:url(#clipPath8); fill:none; stroke:black;" width="22" x="30" y="30" /><circle cx="41" cy="41" r="11" style="fill:none; stroke:black;" /></g><g ID="li-1:7,8" style="fill:white; text-rendering:optimizeSpeed; font-family:'Serif'; stroke:white;"><rect height="11" style="stroke:none;" width="20" x="64" y="43" /><path d="M65.1719 45.625 Q65.8594 45.3594 66.4844 45.2266 Q67.1094 45.0938 67.6562 45.0938 Q68.9531 45.0938 69.6719 45.6484 Q70.3906 46.2031 70.3906 47.1875 Q70.3906 47.9688 69.8906 48.5 Q69.3906 49.0312 68.4844 49.2188 Q69.5625 49.375 70.1562 50.0078 Q70.75 50.6406 70.75 51.6406 Q70.75 52.8594 69.9219 53.5156 Q69.0938 54.1719 67.5469 54.1719 Q66.8594 54.1719 66.2109 54.0234 Q65.5625 53.875 64.9219 53.5781 L64.9219 51.875 L65.5781 51.875 Q65.625 52.7188 66.1406 53.1562 Q66.6562 53.5938 67.5781 53.5938 Q68.4688 53.5938 68.9922 53.0703 Q69.5156 52.5469 69.5156 51.6562 Q69.5156 50.625 68.9766 50.0938 Q68.4375 49.5625 67.4062 49.5625 L66.8594 49.5625 L66.8594 48.9531 L67.1406 48.9531 Q68.1719 48.9531 68.6875 48.5312 Q69.2031 48.1094 69.2031 47.25 Q69.2031 46.4844 68.7812 46.0781 Q68.3594 45.6719 67.5625 45.6719 Q66.7656 45.6719 66.3359 46.0469 Q65.9062 46.4219 65.8281 47.1562 L65.1719 47.1562 L65.1719 45.625 ZM74.7441 45.25 L75.6816 45.25 L72.5723 55.1094 L71.6348 55.1094 L74.7441 45.25 ZM79.8652 51.0312 L79.8652 46.375 L76.8809 51.0312 L79.8652 51.0312 ZM82.4434 54 L78.459 54 L78.459 53.375 L79.8652 53.375 L79.8652 51.6562 L76.0527 51.6562 L76.0527 51.0156 L79.8809 45.0938 L81.0371 45.0938 L81.0371 51.0312 L82.709 51.0312 L82.709 51.6562 L81.0371 51.6562 L81.0371 53.375 L82.4434 53.375 L82.4434 54 Z" style="fill:black; stroke:none;" /><rect height="13" style="stroke:none;" width="7" x="56" y="42" /><path d="M57.8281 54.25 Q58.2969 54.5938 59.1719 54.5938 Q60.0625 54.5938 60.5781 54.0703 Q61.0938 53.5469 61.0938 52.6562 Q61.0938 51.4219 60.5625 50.8906 Q60.0156 50.3594 59 50.3594 L58.4375 50.3594 L58.4375 49.7188 L58.7344 49.7188 Q59.4844 49.7188 60 49.2969 Q60.4219 48.9531 60.4219 48.0156 Q60.4219 47.6094 60.1406 47.1406 Q59.6875 46.375 59.1562 46.3906 Q57.8281 46.4375 57.8281 48.7812 L57.8281 54.25 ZM56.75 57.5 L56.75 48.7812 Q56.75 46.3281 58.0781 46 Q58.7656 45.8125 59.25 45.8125 Q60.3438 45.8125 61.0469 46.6719 Q61.6094 47.3594 61.6094 47.9375 Q61.6094 48.7812 61.2031 49.2656 Q60.7969 49.75 60.0625 49.9844 Q61.1406 50.1406 61.75 50.7812 Q62.3281 51.4062 62.3281 52.6328 Q62.3281 53.8594 61.5078 54.5156 Q60.6875 55.1719 59.1406 55.1719 Q58.1875 55.1719 57.8281 55.0312 L57.8281 57.5 L56.75 57.5 Z" style="fill:black; stroke:none;" /></g><g ID="li-1:6,7" style="fill:white; text-rendering:optimizeSpeed; font-family:'Serif'; stroke:white;"><rect height="11" style="stroke:none;" width="19" x="116" y="43" /><path d="M117.1719 45.625 Q117.8594 45.3594 118.4844 45.2266 Q119.1094 45.0938 119.6562 45.0938 Q120.9531 45.0938 121.6719 45.6484 Q122.3906 46.2031 122.3906 47.1875 Q122.3906 47.9688 121.8906 48.5 Q121.3906 49.0312 120.4844 49.2188 Q121.5625 49.375 122.1562 50.0078 Q122.75 50.6406 122.75 51.6406 Q122.75 52.8594 121.9219 53.5156 Q121.0938 54.1719 119.5469 54.1719 Q118.8594 54.1719 118.2109 54.0234 Q117.5625 53.875 116.9219 53.5781 L116.9219 51.875 L117.5781 51.875 Q117.625 52.7188 118.1406 53.1562 Q118.6562 53.5938 119.5781 53.5938 Q120.4688 53.5938 120.9922 53.0703 Q121.5156 52.5469 121.5156 51.6562 Q121.5156 50.625 120.9766 50.0938 Q120.4375 49.5625 119.4062 49.5625 L118.8594 49.5625 L118.8594 48.9531 L119.1406 48.9531 Q120.1719 48.9531 120.6875 48.5312 Q121.2031 48.1094 121.2031 47.25 Q121.2031 46.4844 120.7812 46.0781 Q120.3594 45.6719 119.5625 45.6719 Q118.7656 45.6719 118.3359 46.0469 Q117.9062 46.4219 117.8281 47.1562 L117.1719 47.1562 L117.1719 45.625 ZM126.7441 45.25 L127.6816 45.25 L124.5723 55.1094 L123.6348 55.1094 L126.7441 45.25 ZM131.5996 53.5938 Q132.4277 53.5938 132.873 52.9844 Q133.3184 52.375 133.3184 51.2344 Q133.3184 50.1094 132.873 49.5 Q132.4277 48.8906 131.5996 48.8906 Q130.7715 48.8906 130.3262 49.4766 Q129.8809 50.0625 129.8809 51.1719 Q129.8809 52.3281 130.3262 52.9609 Q130.7715 53.5938 131.5996 53.5938 ZM129.6934 49.1875 Q130.0996 48.75 130.5996 48.5312 Q131.0996 48.3125 131.7402 48.3125 Q133.0371 48.3125 133.7949 49.0938 Q134.5527 49.875 134.5527 51.2344 Q134.5527 52.5625 133.7402 53.3672 Q132.9277 54.1719 131.5527 54.1719 Q130.0684 54.1719 129.2715 53.0625 Q128.4746 51.9531 128.4746 49.9062 Q128.4746 47.6094 129.4199 46.3516 Q130.3652 45.0938 132.084 45.0938 Q132.5527 45.0938 133.0605 45.1797 Q133.5684 45.2656 134.0996 45.4375 L134.0996 46.8906 L133.4434 46.8906 Q133.3652 46.2969 132.9824 45.9844 Q132.5996 45.6719 131.959 45.6719 Q130.8184 45.6719 130.2637 46.5312 Q129.709 47.3906 129.6934 49.1875 Z" style="fill:black; stroke:none;" /><rect height="13" style="stroke:none;" width="7" x="108" y="42" /><path d="M109.8281 54.25 Q110.2969 54.5938 111.1719 54.5938 Q112.0625 54.5938 112.5781 54.0703 Q113.0938 53.5469 113.0938 52.6562 Q113.0938 51.4219 112.5625 50.8906 Q112.0156 50.3594 111 50.3594 L110.4375 50.3594 L110.4375 49.7188 L110.7344 49.7188 Q111.4844 49.7188 112 49.2969 Q112.4219 48.9531 112.4219 48.0156 Q112.4219 47.6094 112.1406 47.1406 Q111.6875 46.375 111.1562 46.3906 Q109.8281 46.4375 109.8281 48.7812 L109.8281 54.25 ZM108.75 57.5 L108.75 48.7812 Q108.75 46.3281 110.0781 46 Q110.7656 45.8125 111.25 45.8125 Q112.3438 45.8125 113.0469 46.6719 Q113.6094 47.3594 113.6094 47.9375 Q113.6094 48.7812 113.2031 49.2656 Q112.7969 49.75 112.0625 49.9844 Q113.1406 50.1406 113.75 50.7812 Q114.3281 51.4062 114.3281 52.6328 Q114.3281 53.8594 113.5078 54.5156 Q112.6875 55.1719 111.1406 55.1719 Q110.1875 55.1719 109.8281 55.0312 L109.8281 57.5 L108.75 57.5 Z" style="fill:black; stroke:none;" /></g><g ID="li-1:3,5" style="fill:white; text-rendering:optimizeSpeed; font-family:'Serif'; stroke:white;"><rect height="10" style="stroke:none;" width="7" x="201" y="55" /><path d="M202.1719 56.625 Q202.8594 56.3594 203.4844 56.2266 Q204.1094 56.0938 204.6562 56.0938 Q205.9531 56.0938 206.6719 56.6484 Q207.3906 57.2031 207.3906 58.1875 Q207.3906 58.9688 206.8906 59.5 Q206.3906 60.0312 205.4844 60.2188 Q206.5625 60.375 207.1562 61.0078 Q207.75 61.6406 207.75 62.6406 Q207.75 63.8594 206.9219 64.5156 Q206.0938 65.1719 204.5469 65.1719 Q203.8594 65.1719 203.2109 65.0234 Q202.5625 64.875 201.9219 64.5781 L201.9219 62.875 L202.5781 62.875 Q202.625 63.7188 203.1406 64.1562 Q203.6562 64.5938 204.5781 64.5938 Q205.4688 64.5938 205.9922 64.0703 Q206.5156 63.5469 206.5156 62.6562 Q206.5156 61.625 205.9766 61.0938 Q205.4375 60.5625 204.4062 60.5625 L203.8594 60.5625 L203.8594 59.9531 L204.1406 59.9531 Q205.1719 59.9531 205.6875 59.5312 Q206.2031 59.1094 206.2031 58.25 Q206.2031 57.4844 205.7812 57.0781 Q205.3594 56.6719 204.5625 56.6719 Q203.7656 56.6719 203.3359 57.0469 Q202.9062 57.4219 202.8281 58.1562 L202.1719 58.1562 L202.1719 56.625 Z" style="fill:black; stroke:none;" /><rect height="8" style="stroke:none;" width="8" x="201" y="70" /><path d="M206.1875 76.4688 L205.9531 77.1094 Q205.7656 77.625 205.2031 77.9375 Q204.8438 78.1562 204.2031 78.1406 Q203.0469 78.1406 202.3281 77.2344 Q201.5938 76.3281 201.5938 74.8594 Q201.5938 73.4219 202.3281 72.4844 Q203.0156 71.5938 204.4531 71.6094 Q205.4531 71.6094 205.9531 72 Q206.4062 72.3438 206.5781 73.0938 L206.625 73.3125 L206.8438 72.6719 Q207.0625 72.0469 207.6562 71.75 L208.25 71.75 L208.25 72.0938 Q207.6875 72.2656 207.5 72.8125 L206.8906 74.4844 L207.2969 76.2812 Q207.5 77.2031 207.7344 77.2969 Q208.0469 77.4375 208.7812 77 L208.7812 77.7188 Q207.5938 78.4062 206.75 77.6875 Q206.375 77.3594 206.2656 76.875 L206.1875 76.4688 ZM205.9219 75.3125 L205.5625 73.5938 Q205.2656 72.2188 204.4688 72.2188 Q203.7969 72.2031 203.2812 72.9375 Q202.8594 73.5156 202.8594 74.875 Q202.8594 76.1719 203.2812 76.8281 Q203.75 77.5469 204.5312 77.5 Q205.2031 77.4375 205.6875 76 L205.9219 75.3125 Z" style="fill:black; stroke:none;" /></g><g ID="li-1:3,6" style="fill:white; text-rendering:optimizeSpeed; font-family:'Serif'; stroke:white;"><rect height="9" style="stroke:none;" width="8" x="174" y="44" /><path d="M178.1875 50.0312 L178.1875 45.375 L175.2031 50.0312 L178.1875 50.0312 ZM180.7656 53 L176.7812 53 L176.7812 52.375 L178.1875 52.375 L178.1875 50.6562 L174.375 50.6562 L174.375 50.0156 L178.2031 44.0938 L179.3594 44.0938 L179.3594 50.0312 L181.0312 50.0312 L181.0312 50.6562 L179.3594 50.6562 L179.3594 52.375 L180.7656 52.375 L180.7656 53 Z" style="fill:black; stroke:none;" /><rect height="13" style="stroke:none;" width="7" x="160" y="42" /><path d="M161.8281 54.25 Q162.2969 54.5938 163.1719 54.5938 Q164.0625 54.5938 164.5781 54.0703 Q165.0938 53.5469 165.0938 52.6562 Q165.0938 51.4219 164.5625 50.8906 Q164.0156 50.3594 163 50.3594 L162.4375 50.3594 L162.4375 49.7188 L162.7344 49.7188 Q163.4844 49.7188 164 49.2969 Q164.4219 48.9531 164.4219 48.0156 Q164.4219 47.6094 164.1406 47.1406 Q163.6875 46.375 163.1562 46.3906 Q161.8281 46.4375 161.8281 48.7812 L161.8281 54.25 ZM160.75 57.5 L160.75 48.7812 Q160.75 46.3281 162.0781 46 Q162.7656 45.8125 163.25 45.8125 Q164.3438 45.8125 165.0469 46.6719 Q165.6094 47.3594 165.6094 47.9375 Q165.6094 48.7812 165.2031 49.2656 Q164.7969 49.75 164.0625 49.9844 Q165.1406 50.1406 165.75 50.7812 Q166.3281 51.4062 166.3281 52.6328 Q166.3281 53.8594 165.5078 54.5156 Q164.6875 55.1719 163.1406 55.1719 Q162.1875 55.1719 161.8281 55.0312 L161.8281 57.5 L160.75 57.5 Z" style="fill:black; stroke:none;" /></g><g ID="li-1:1,2" style="fill:white; text-rendering:optimizeSpeed; font-family:'Serif'; stroke:white;"><rect height="10" style="stroke:none;" width="7" x="234" y="110" /><path d="M235.1719 111.625 Q235.8594 111.3594 236.4844 111.2266 Q237.1094 111.0938 237.6562 111.0938 Q238.9531 111.0938 239.6719 111.6484 Q240.3906 112.2031 240.3906 113.1875 Q240.3906 113.9688 239.8906 114.5 Q239.3906 115.0312 238.4844 115.2188 Q239.5625 115.375 240.1562 116.0078 Q240.75 116.6406 240.75 117.6406 Q240.75 118.8594 239.9219 119.5156 Q239.0938 120.1719 237.5469 120.1719 Q236.8594 120.1719 236.2109 120.0234 Q235.5625 119.875 234.9219 119.5781 L234.9219 117.875 L235.5781 117.875 Q235.625 118.7188 236.1406 119.1562 Q236.6562 119.5938 237.5781 119.5938 Q238.4688 119.5938 238.9922 119.0703 Q239.5156 118.5469 239.5156 117.6562 Q239.5156 116.625 238.9766 116.0938 Q238.4375 115.5625 237.4062 115.5625 L236.8594 115.5625 L236.8594 114.9531 L237.1406 114.9531 Q238.1719 114.9531 238.6875 114.5312 Q239.2031 114.1094 239.2031 113.25 Q239.2031 112.4844 238.7812 112.0781 Q238.3594 111.6719 237.5625 111.6719 Q236.7656 111.6719 236.3359 112.0469 Q235.9062 112.4219 235.8281 113.1562 L235.1719 113.1562 L235.1719 111.625 Z" style="fill:black; stroke:none;" /><rect height="13" style="stroke:none;" width="7" x="215" y="127" /><path d="M216.8281 139.25 Q217.2969 139.5938 218.1719 139.5938 Q219.0625 139.5938 219.5781 139.0703 Q220.0938 138.5469 220.0938 137.6562 Q220.0938 136.4219 219.5625 135.8906 Q219.0156 135.3594 218 135.3594 L217.4375 135.3594 L217.4375 134.7188 L217.7344 134.7188 Q218.4844 134.7188 219 134.2969 Q219.4219 133.9531 219.4219 133.0156 Q219.4219 132.6094 219.1406 132.1406 Q218.6875 131.375 218.1562 131.3906 Q216.8281 131.4375 216.8281 133.7812 L216.8281 139.25 ZM215.75 142.5 L215.75 133.7812 Q215.75 131.3281 217.0781 131 Q217.7656 130.8125 218.25 130.8125 Q219.3438 130.8125 220.0469 131.6719 Q220.6094 132.3594 220.6094 132.9375 Q220.6094 133.7812 220.2031 134.2656 Q219.7969 134.75 219.0625 134.9844 Q220.1406 135.1406 220.75 135.7812 Q221.3281 136.4062 221.3281 137.6328 Q221.3281 138.8594 220.5078 139.5156 Q219.6875 140.1719 218.1406 140.1719 Q217.1875 140.1719 216.8281 140.0312 L216.8281 142.5 L215.75 142.5 Z" style="fill:black; stroke:none;" /></g><g ID="li-1:1,3" style="fill:white; text-rendering:optimizeSpeed; font-family:'Serif'; stroke:white;"><rect height="10" style="stroke:none;" width="7" x="223" y="77" /><path d="M226.9219 86.5938 Q227.75 86.5938 228.1953 85.9844 Q228.6406 85.375 228.6406 84.2344 Q228.6406 83.1094 228.1953 82.5 Q227.75 81.8906 226.9219 81.8906 Q226.0938 81.8906 225.6484 82.4766 Q225.2031 83.0625 225.2031 84.1719 Q225.2031 85.3281 225.6484 85.9609 Q226.0938 86.5938 226.9219 86.5938 ZM225.0156 82.1875 Q225.4219 81.75 225.9219 81.5312 Q226.4219 81.3125 227.0625 81.3125 Q228.3594 81.3125 229.1172 82.0938 Q229.875 82.875 229.875 84.2344 Q229.875 85.5625 229.0625 86.3672 Q228.25 87.1719 226.875 87.1719 Q225.3906 87.1719 224.5938 86.0625 Q223.7969 84.9531 223.7969 82.9062 Q223.7969 80.6094 224.7422 79.3516 Q225.6875 78.0938 227.4062 78.0938 Q227.875 78.0938 228.3828 78.1797 Q228.8906 78.2656 229.4219 78.4375 L229.4219 79.8906 L228.7656 79.8906 Q228.6875 79.2969 228.3047 78.9844 Q227.9219 78.6719 227.2812 78.6719 Q226.1406 78.6719 225.5859 79.5312 Q225.0312 80.3906 225.0156 82.1875 Z" style="fill:black; stroke:none;" /><rect height="13" style="stroke:none;" width="7" x="204" y="56" /><path d="M205.8281 68.25 Q206.2969 68.5938 207.1719 68.5938 Q208.0625 68.5938 208.5781 68.0703 Q209.0938 67.5469 209.0938 66.6562 Q209.0938 65.4219 208.5625 64.8906 Q208.0156 64.3594 207 64.3594 L206.4375 64.3594 L206.4375 63.7188 L206.7344 63.7188 Q207.4844 63.7188 208 63.2969 Q208.4219 62.9531 208.4219 62.0156 Q208.4219 61.6094 208.1406 61.1406 Q207.6875 60.375 207.1562 60.3906 Q205.8281 60.4375 205.8281 62.7812 L205.8281 68.25 ZM204.75 71.5 L204.75 62.7812 Q204.75 60.3281 206.0781 60 Q206.7656 59.8125 207.25 59.8125 Q208.3438 59.8125 209.0469 60.6719 Q209.6094 61.3594 209.6094 61.9375 Q209.6094 62.7812 209.2031 63.2656 Q208.7969 63.75 208.0625 63.9844 Q209.1406 64.1406 209.75 64.7812 Q210.3281 65.4062 210.3281 66.6328 Q210.3281 67.8594 209.5078 68.5156 Q208.6875 69.1719 207.1406 69.1719 Q206.1875 69.1719 205.8281 69.0312 L205.8281 71.5 L204.75 71.5 Z" style="fill:black; stroke:none;" /></g></g></svg>