<svg xmlns="http://www.w3.org/2000/svg" style="fill-opacity:1; color-rendering:auto; color-interpolation:auto; text-rendering:auto; stroke:black; stroke-linecap:square; stroke-miterlimit:10; shape-rendering:auto; stroke-opacity:1; fill:black; stroke-dasharray:none; font-weight:normal; stroke-width:1; font-family:'Dialog'; font-style:normal; stroke-linejoin:miter; font-size:12px; stroke-dashoffset:0; image-rendering:auto;"><defs id="genericDefs" /><g><defs id="defs1"><clipPath clipPathUnits="userSpaceOnUse" id="clipPath1"><path d="M134 82 L156 82 L156 104 L134 104 L134 82 Z" /></clipPath><clipPath clipPathUnits="userSpaceOnUse" id="clipPath2"><path d="M104 145 C104 151.0751 99.0751 156 93 156 C86.9249 156 82 151.0751 82 145 C82 138.9249 86.9249 134 93 134 C99.0751 134 104 138.9249 104 145 Z" /></clipPath><clipPath clipPathUnits="userSpaceOnUse" id="clipPath3"><path d="M30 134 L52 134 L52 156 L30 156 L30 134 Z" /></clipPath><clipPath clipPathUnits="userSpaceOnUse" id="clipPath4"><path d="M82 30 L104 30 L104 52 L82 52 L82 30 Z" /></clipPath><clipPath clipPathUnits="userSpaceOnUse" id="clipPath5"><path d="M52 41 C52 47.0751 47.0751 52 41 52 C34.9249 52 30 47.0751 30 41 C30 34.9249 34.9249 30 41 30 C47.0751 30 52 34.9249 52 41 Z" /></clipPath><clipPath clipPathUnits="userSpaceOnUse" id="clipPath6"><path d="M41 82 L52 104 L30 104 Z" style="fill-rule:evenodd;" /></clipPath></defs><g style="fill:white; text-rendering:optimizeSpeed; stroke:white;"><rect height="186" style="stroke:none;" width="186" x="0" y="0" /></g><g ID="l-1:1,2" style="text-rendering:optimizeSpeed;"><polygon points=" 145 93 93 145" style="fill:none;" /></g><g ID="l-1:1,3" style="text-rendering:optimizeSpeed;"><polygon points=" 145 93 93 41" style="fill:none;" /></g><g ID="r-1:1" style="fill:white; text-rendering:optimizeSpeed; stroke:white;" wurcs_mono_id="1"><rect height="22" style="clip-path:url(#clipPath1); stroke:none;" width="22" x="134" y="82" /><rect height="22" style="clip-path:url(#clipPath1); fill:rgb(255,212,0); stroke:none;" width="22" x="134" y="82" /><rect height="22" style="clip-path:url(#clipPath1); fill:none; stroke:black;" width="22" x="134" y="82" /><rect height="22" style="fill:none; stroke:black;" width="22" x="134" y="82" /></g><g style="font-style:italic; text-rendering:optimizeSpeed; font-size:10px; font-family:'SansSerif';"><path d="M146.0938 90.1562 Q145.375 90.1562 144.8359 90.7188 Q144.2969 91.2812 144.0781 92.2656 Q143.875 93.25 144.1719 93.8125 Q144.4688 94.375 145.2031 94.375 Q145.9219 94.375 146.4609 93.8125 Q147 93.25 147.2031 92.2656 Q147.4062 91.2969 147.1094 90.7266 Q146.8125 90.1562 146.0938 90.1562 ZM146.25 89.4062 Q147.4219 89.4062 147.9297 90.1641 Q148.4375 90.9219 148.1562 92.2656 Q147.875 93.6094 147.0391 94.375 Q146.2031 95.1406 145.0312 95.1406 Q143.8594 95.1406 143.3516 94.375 Q142.8438 93.6094 143.125 92.2656 Q143.4062 90.9219 144.2422 90.1641 Q145.0781 89.4062 146.25 89.4062 Z" style="stroke:none;" /></g><g ID="l-1:2,4" style="text-rendering:optimizeSpeed;"><polygon points=" 93 145 41 145" style="fill:none;" /></g><g ID="r-1:2" style="fill:white; text-rendering:optimizeSpeed; stroke:white;" wurcs_mono_id="2"><circle cx="93" cy="145" r="11" style="clip-path:url(#clipPath2); stroke:none;" /><rect height="22" style="clip-path:url(#clipPath2); fill:rgb(255,212,0); stroke:none;" width="22" x="82" y="134" /><rect height="22" style="clip-path:url(#clipPath2); fill:none; stroke:black;" width="22" x="82" y="134" /><circle cx="93" cy="145" r="11" style="fill:none; stroke:black;" /></g><g ID="r-1:4" style="fill:white; text-rendering:optimizeSpeed; stroke:white;" wurcs_mono_id="3"><rect height="22" style="clip-path:url(#clipPath3); stroke:none;" width="22" x="30" y="134" /><rect height="22" style="clip-path:url(#clipPath3); fill:rgb(0,144,188); stroke:none;" width="22" x="30" y="134" /><rect height="22" style="clip-path:url(#clipPath3); fill:none; stroke:black;" width="22" x="30" y="134" /><rect height="22" style="fill:none; stroke:black;" width="22" x="30" y="134" /></g><g ID="li-1:2,4" style="fill:white; text-rendering:optimizeSpeed; font-family:'Serif'; stroke:white;"><rect height="10" style="stroke:none;" width="6" x="71" y="148" /><path d="M73.1094 157.3906 Q73.1094 157.0625 73.3359 156.8359 Q73.5625 156.6094 73.8906 156.6094 Q74.2188 156.6094 74.4453 156.8359 Q74.6719 157.0625 74.6719 157.3906 Q74.6719 157.7188 74.4453 157.9453 Q74.2188 158.1719 73.8906 158.1719 Q73.5625 158.1719 73.3359 157.9453 Q73.1094 157.7188 73.1094 157.3906 ZM71.8125 149.6406 Q72.4375 149.3594 73 149.2266 Q73.5625 149.0938 74.0469 149.0938 Q75.3438 149.0938 76.1016 149.7188 Q76.8594 150.3438 76.8594 151.4062 Q76.8594 152.5 76.2109 153.1953 Q75.5625 153.8906 74.25 154.1875 L74.25 155.6719 L73.5312 155.6719 L73.5312 153.75 Q74.5625 153.5 75.0938 152.9062 Q75.625 152.3125 75.625 151.4062 Q75.625 150.5938 75.1953 150.1328 Q74.7656 149.6719 74.0312 149.6719 Q73.3594 149.6719 72.9297 150.0547 Q72.5 150.4375 72.3906 151.1562 L71.8125 151.1562 L71.8125 149.6406 Z" style="fill:black; stroke:none;" /><rect height="13" style="stroke:none;" width="7" x="56" y="146" /><path d="M57.8281 158.25 Q58.2969 158.5938 59.1719 158.5938 Q60.0625 158.5938 60.5781 158.0703 Q61.0938 157.5469 61.0938 156.6562 Q61.0938 155.4219 60.5625 154.8906 Q60.0156 154.3594 59 154.3594 L58.4375 154.3594 L58.4375 153.7188 L58.7344 153.7188 Q59.4844 153.7188 60 153.2969 Q60.4219 152.9531 60.4219 152.0156 Q60.4219 151.6094 60.1406 151.1406 Q59.6875 150.375 59.1562 150.3906 Q57.8281 150.4375 57.8281 152.7812 L57.8281 158.25 ZM56.75 161.5 L56.75 152.7812 Q56.75 150.3281 58.0781 150 Q58.7656 149.8125 59.25 149.8125 Q60.3438 149.8125 61.0469 150.6719 Q61.6094 151.3594 61.6094 151.9375 Q61.6094 152.7812 61.2031 153.2656 Q60.7969 153.75 60.0625 153.9844 Q61.1406 154.1406 61.75 154.7812 Q62.3281 155.4062 62.3281 156.6328 Q62.3281 157.8594 61.5078 158.5156 Q60.6875 159.1719 59.1406 159.1719 Q58.1875 159.1719 57.8281 159.0312 L57.8281 161.5 L56.75 161.5 Z" style="fill:black; stroke:none;" /></g><g ID="l-1:3,5" style="text-rendering:optimizeSpeed;"><polygon points=" 93 41 41 41" style="fill:none;" /></g><g ID="r-1:3" style="fill:white; text-rendering:optimizeSpeed; stroke:white;" wurcs_mono_id="4"><rect height="22" style="clip-path:url(#clipPath4); stroke:none;" width="22" x="82" y="30" /><rect height="22" style="clip-path:url(#clipPath4); fill:rgb(0,144,188); stroke:none;" width="22" x="82" y="30" /><rect height="22" style="clip-path:url(#clipPath4); fill:none; stroke:black;" width="22" x="82" y="30" /><rect height="22" style="fill:none; stroke:black;" width="22" x="82" y="30" /></g><g ID="l-1:5,6" style="text-rendering:optimizeSpeed;"><polygon points=" 41 41 41 93" style="fill:none;" /></g><g ID="r-1:5" style="fill:white; text-rendering:optimizeSpeed; stroke:white;" wurcs_mono_id="5"><circle cx="41" cy="41" r="11" style="clip-path:url(#clipPath5); stroke:none;" /><rect height="22" style="clip-path:url(#clipPath5); fill:rgb(255,212,0); stroke:none;" width="22" x="30" y="30" /><rect height="22" style="clip-path:url(#clipPath5); fill:none; stroke:black;" width="22" x="30" y="30" /><circle cx="41" cy="41" r="11" style="fill:none; stroke:black;" /></g><g ID="r-1:6" style="fill:white; text-rendering:optimizeSpeed; stroke:white;" wurcs_mono_id="6"><polygon points=" 41 82 52 104 30 104" style="stroke:none; clip-path:url(#clipPath6);" /><rect height="22" style="clip-path:url(#clipPath6); fill:rgb(237,28,36); stroke:none;" width="22" x="30" y="82" /><rect height="22" style="clip-path:url(#clipPath6); fill:none; stroke:black;" width="22" x="30" y="82" /><polygon points=" 41 82 52 104 30 104" style="fill:none; stroke:black;" /></g><g ID="li-1:5,6" style="fill:white; text-rendering:optimizeSpeed; font-family:'Serif'; stroke:white;"><rect height="9" style="stroke:none;" width="7" x="45" y="55" /><path d="M46.5312 57.3438 L45.875 57.3438 L45.875 55.7812 Q46.5 55.4375 47.1406 55.2656 Q47.7812 55.0938 48.3906 55.0938 Q49.75 55.0938 50.5391 55.7578 Q51.3281 56.4219 51.3281 57.5469 Q51.3281 58.8438 49.5469 60.625 Q49.4062 60.7656 49.3281 60.8281 L47.125 63.0312 L50.7656 63.0312 L50.7656 61.9531 L51.4531 61.9531 L51.4531 64 L45.8125 64 L45.8125 63.3594 L48.4688 60.7188 Q49.3438 59.8281 49.7188 59.0938 Q50.0938 58.3594 50.0938 57.5469 Q50.0938 56.6719 49.6328 56.1719 Q49.1719 55.6719 48.375 55.6719 Q47.5312 55.6719 47.0781 56.0859 Q46.625 56.5 46.5312 57.3438 Z" style="fill:black; stroke:none;" /><rect height="8" style="stroke:none;" width="8" x="45" y="70" /><path d="M50.1875 76.4688 L49.9531 77.1094 Q49.7656 77.625 49.2031 77.9375 Q48.8438 78.1562 48.2031 78.1406 Q47.0469 78.1406 46.3281 77.2344 Q45.5938 76.3281 45.5938 74.8594 Q45.5938 73.4219 46.3281 72.4844 Q47.0156 71.5938 48.4531 71.6094 Q49.4531 71.6094 49.9531 72 Q50.4062 72.3438 50.5781 73.0938 L50.625 73.3125 L50.8438 72.6719 Q51.0625 72.0469 51.6562 71.75 L52.25 71.75 L52.25 72.0938 Q51.6875 72.2656 51.5 72.8125 L50.8906 74.4844 L51.2969 76.2812 Q51.5 77.2031 51.7344 77.2969 Q52.0469 77.4375 52.7812 77 L52.7812 77.7188 Q51.5938 78.4062 50.75 77.6875 Q50.375 77.3594 50.2656 76.875 L50.1875 76.4688 ZM49.9219 75.3125 L49.5625 73.5938 Q49.2656 72.2188 48.4688 72.2188 Q47.7969 72.2031 47.2812 72.9375 Q46.8594 73.5156 46.8594 74.875 Q46.8594 76.1719 47.2812 76.8281 Q47.75 77.5469 48.5312 77.5 Q49.2031 77.4375 49.6875 76 L49.9219 75.3125 Z" style="fill:black; stroke:none;" /></g><g ID="li-1:3,5" style="fill:white; text-rendering:optimizeSpeed; font-family:'Serif'; stroke:white;"><rect height="9" style="stroke:none;" width="8" x="70" y="44" /><path d="M74.1875 50.0312 L74.1875 45.375 L71.2031 50.0312 L74.1875 50.0312 ZM76.7656 53 L72.7812 53 L72.7812 52.375 L74.1875 52.375 L74.1875 50.6562 L70.375 50.6562 L70.375 50.0156 L74.2031 44.0938 L75.3594 44.0938 L75.3594 50.0312 L77.0312 50.0312 L77.0312 50.6562 L75.3594 50.6562 L75.3594 52.375 L76.7656 52.375 L76.7656 53 Z" style="fill:black; stroke:none;" /><rect height="13" style="stroke:none;" width="7" x="56" y="42" /><path d="M57.8281 54.25 Q58.2969 54.5938 59.1719 54.5938 Q60.0625 54.5938 60.5781 54.0703 Q61.0938 53.5469 61.0938 52.6562 Q61.0938 51.4219 60.5625 50.8906 Q60.0156 50.3594 59 50.3594 L58.4375 50.3594 L58.4375 49.7188 L58.7344 49.7188 Q59.4844 49.7188 60 49.2969 Q60.4219 48.9531 60.4219 48.0156 Q60.4219 47.6094 60.1406 47.1406 Q59.6875 46.375 59.1562 46.3906 Q57.8281 46.4375 57.8281 48.7812 L57.8281 54.25 ZM56.75 57.5 L56.75 48.7812 Q56.75 46.3281 58.0781 46 Q58.7656 45.8125 59.25 45.8125 Q60.3438 45.8125 61.0469 46.6719 Q61.6094 47.3594 61.6094 47.9375 Q61.6094 48.7812 61.2031 49.2656 Q60.7969 49.75 60.0625 49.9844 Q61.1406 50.1406 61.75 50.7812 Q62.3281 51.4062 62.3281 52.6328 Q62.3281 53.8594 61.5078 54.5156 Q60.6875 55.1719 59.1406 55.1719 Q58.1875 55.1719 57.8281 55.0312 L57.8281 57.5 L56.75 57.5 Z" style="fill:black; stroke:none;" /></g><g ID="li-1:1,2" style="fill:white; text-rendering:optimizeSpeed; font-family:'Serif'; stroke:white;"><rect height="10" style="stroke:none;" width="7" x="130" y="110" /><path d="M131.1719 111.625 Q131.8594 111.3594 132.4844 111.2266 Q133.1094 111.0938 133.6562 111.0938 Q134.9531 111.0938 135.6719 111.6484 Q136.3906 112.2031 136.3906 113.1875 Q136.3906 113.9688 135.8906 114.5 Q135.3906 115.0312 134.4844 115.2188 Q135.5625 115.375 136.1562 116.0078 Q136.75 116.6406 136.75 117.6406 Q136.75 118.8594 135.9219 119.5156 Q135.0938 120.1719 133.5469 120.1719 Q132.8594 120.1719 132.2109 120.0234 Q131.5625 119.875 130.9219 119.5781 L130.9219 117.875 L131.5781 117.875 Q131.625 118.7188 132.1406 119.1562 Q132.6562 119.5938 133.5781 119.5938 Q134.4688 119.5938 134.9922 119.0703 Q135.5156 118.5469 135.5156 117.6562 Q135.5156 116.625 134.9766 116.0938 Q134.4375 115.5625 133.4062 115.5625 L132.8594 115.5625 L132.8594 114.9531 L133.1406 114.9531 Q134.1719 114.9531 134.6875 114.5312 Q135.2031 114.1094 135.2031 113.25 Q135.2031 112.4844 134.7812 112.0781 Q134.3594 111.6719 133.5625 111.6719 Q132.7656 111.6719 132.3359 112.0469 Q131.9062 112.4219 131.8281 113.1562 L131.1719 113.1562 L131.1719 111.625 Z" style="fill:black; stroke:none;" /><rect height="13" style="stroke:none;" width="7" x="111" y="127" /><path d="M112.8281 139.25 Q113.2969 139.5938 114.1719 139.5938 Q115.0625 139.5938 115.5781 139.0703 Q116.0938 138.5469 116.0938 137.6562 Q116.0938 136.4219 115.5625 135.8906 Q115.0156 135.3594 114 135.3594 L113.4375 135.3594 L113.4375 134.7188 L113.7344 134.7188 Q114.4844 134.7188 115 134.2969 Q115.4219 133.9531 115.4219 133.0156 Q115.4219 132.6094 115.1406 132.1406 Q114.6875 131.375 114.1562 131.3906 Q112.8281 131.4375 112.8281 133.7812 L112.8281 139.25 ZM111.75 142.5 L111.75 133.7812 Q111.75 131.3281 113.0781 131 Q113.7656 130.8125 114.25 130.8125 Q115.3438 130.8125 116.0469 131.6719 Q116.6094 132.3594 116.6094 132.9375 Q116.6094 133.7812 116.2031 134.2656 Q115.7969 134.75 115.0625 134.9844 Q116.1406 135.1406 116.75 135.7812 Q117.3281 136.4062 117.3281 137.6328 Q117.3281 138.8594 116.5078 139.5156 Q115.6875 140.1719 114.1406 140.1719 Q113.1875 140.1719 112.8281 140.0312 L112.8281 142.5 L111.75 142.5 Z" style="fill:black; stroke:none;" /></g><g ID="li-1:1,3" style="fill:white; text-rendering:optimizeSpeed; font-family:'Serif'; stroke:white;"><rect height="10" style="stroke:none;" width="7" x="119" y="77" /><path d="M122.9219 86.5938 Q123.75 86.5938 124.1953 85.9844 Q124.6406 85.375 124.6406 84.2344 Q124.6406 83.1094 124.1953 82.5 Q123.75 81.8906 122.9219 81.8906 Q122.0938 81.8906 121.6484 82.4766 Q121.2031 83.0625 121.2031 84.1719 Q121.2031 85.3281 121.6484 85.9609 Q122.0938 86.5938 122.9219 86.5938 ZM121.0156 82.1875 Q121.4219 81.75 121.9219 81.5312 Q122.4219 81.3125 123.0625 81.3125 Q124.3594 81.3125 125.1172 82.0938 Q125.875 82.875 125.875 84.2344 Q125.875 85.5625 125.0625 86.3672 Q124.25 87.1719 122.875 87.1719 Q121.3906 87.1719 120.5938 86.0625 Q119.7969 84.9531 119.7969 82.9062 Q119.7969 80.6094 120.7422 79.3516 Q121.6875 78.0938 123.4062 78.0938 Q123.875 78.0938 124.3828 78.1797 Q124.8906 78.2656 125.4219 78.4375 L125.4219 79.8906 L124.7656 79.8906 Q124.6875 79.2969 124.3047 78.9844 Q123.9219 78.6719 123.2812 78.6719 Q122.1406 78.6719 121.5859 79.5312 Q121.0312 80.3906 121.0156 82.1875 Z" style="fill:black; stroke:none;" /><rect height="13" style="stroke:none;" width="7" x="100" y="56" /><path d="M101.8281 68.25 Q102.2969 68.5938 103.1719 68.5938 Q104.0625 68.5938 104.5781 68.0703 Q105.0938 67.5469 105.0938 66.6562 Q105.0938 65.4219 104.5625 64.8906 Q104.0156 64.3594 103 64.3594 L102.4375 64.3594 L102.4375 63.7188 L102.7344 63.7188 Q103.4844 63.7188 104 63.2969 Q104.4219 62.9531 104.4219 62.0156 Q104.4219 61.6094 104.1406 61.1406 Q103.6875 60.375 103.1562 60.3906 Q101.8281 60.4375 101.8281 62.7812 L101.8281 68.25 ZM100.75 71.5 L100.75 62.7812 Q100.75 60.3281 102.0781 60 Q102.7656 59.8125 103.25 59.8125 Q104.3438 59.8125 105.0469 60.6719 Q105.6094 61.3594 105.6094 61.9375 Q105.6094 62.7812 105.2031 63.2656 Q104.7969 63.75 104.0625 63.9844 Q105.1406 64.1406 105.75 64.7812 Q106.3281 65.4062 106.3281 66.6328 Q106.3281 67.8594 105.5078 68.5156 Q104.6875 69.1719 103.1406 69.1719 Q102.1875 69.1719 101.8281 69.0312 L101.8281 71.5 L100.75 71.5 Z" style="fill:black; stroke:none;" /></g></g></svg>