<svg xmlns="http://www.w3.org/2000/svg" style="fill-opacity:1; color-rendering:auto; color-interpolation:auto; text-rendering:auto; stroke:black; stroke-linecap:square; stroke-miterlimit:10; shape-rendering:auto; stroke-opacity:1; fill:black; stroke-dasharray:none; font-weight:normal; stroke-width:1; font-family:'Dialog'; font-style:normal; stroke-linejoin:miter; font-size:12px; stroke-dashoffset:0; image-rendering:auto;"><defs id="genericDefs" /><g><defs id="defs1"><clipPath clipPathUnits="userSpaceOnUse" id="clipPath1"><path d="M394 82 L416 82 L416 104 L394 104 L394 82 Z" /></clipPath><clipPath clipPathUnits="userSpaceOnUse" id="clipPath2"><path d="M342 82 L364 82 L364 104 L342 104 L342 82 Z" /></clipPath><clipPath clipPathUnits="userSpaceOnUse" id="clipPath3"><path d="M312 93 C312 99.0751 307.0751 104 301 104 C294.9249 104 290 99.0751 290 93 C290 86.9249 294.9249 82 301 82 C307.0751 82 312 86.9249 312 93 Z" /></clipPath><clipPath clipPathUnits="userSpaceOnUse" id="clipPath4"><path d="M260 197 C260 203.0751 255.0751 208 249 208 C242.9249 208 238 203.0751 238 197 C238 190.9249 242.9249 186 249 186 C255.0751 186 260 190.9249 260 197 Z" /></clipPath><clipPath clipPathUnits="userSpaceOnUse" id="clipPath5"><path d="M186 212 L208 212 L208 234 L186 234 L186 212 Z" /></clipPath><clipPath clipPathUnits="userSpaceOnUse" id="clipPath6"><path d="M156 223 C156 229.0751 151.0751 234 145 234 C138.9249 234 134 229.0751 134 223 C134 216.9249 138.9249 212 145 212 C151.0751 212 156 216.9249 156 223 Z" /></clipPath><clipPath clipPathUnits="userSpaceOnUse" id="clipPath7"><path d="M82 212 L104 212 L104 234 L82 234 L82 212 Z" /></clipPath><clipPath clipPathUnits="userSpaceOnUse" id="clipPath8"><path d="M52 223 C52 229.0751 47.0751 234 41 234 C34.9249 234 30 229.0751 30 223 C30 216.9249 34.9249 212 41 212 C47.0751 212 52 216.9249 52 223 Z" /></clipPath><clipPath clipPathUnits="userSpaceOnUse" id="clipPath9"><path d="M186 160 L208 160 L208 182 L186 182 L186 160 Z" /></clipPath><clipPath clipPathUnits="userSpaceOnUse" id="clipPath10"><path d="M156 171 C156 177.0751 151.0751 182 145 182 C138.9249 182 134 177.0751 134 171 C134 164.9249 138.9249 160 145 160 C151.0751 160 156 164.9249 156 171 Z" /></clipPath><clipPath clipPathUnits="userSpaceOnUse" id="clipPath11"><path d="M260 93 C260 99.0751 255.0751 104 249 104 C242.9249 104 238 99.0751 238 93 C238 86.9249 242.9249 82 249 82 C255.0751 82 260 86.9249 260 93 Z" /></clipPath><clipPath clipPathUnits="userSpaceOnUse" id="clipPath12"><path d="M186 108 L208 108 L208 130 L186 130 L186 108 Z" /></clipPath><clipPath clipPathUnits="userSpaceOnUse" id="clipPath13"><path d="M156 119 C156 125.0751 151.0751 130 145 130 C138.9249 130 134 125.0751 134 119 C134 112.9249 138.9249 108 145 108 C151.0751 108 156 112.9249 156 119 Z" /></clipPath><clipPath clipPathUnits="userSpaceOnUse" id="clipPath14"><path d="M82 108 L104 108 L104 130 L82 130 L82 108 Z" /></clipPath><clipPath clipPathUnits="userSpaceOnUse" id="clipPath15"><path d="M52 119 C52 125.0751 47.0751 130 41 130 C34.9249 130 30 125.0751 30 119 C30 112.9249 34.9249 108 41 108 C47.0751 108 52 112.9249 52 119 Z" /></clipPath><clipPath clipPathUnits="userSpaceOnUse" id="clipPath16"><path d="M186 56 L208 56 L208 78 L186 78 L186 56 Z" /></clipPath><clipPath clipPathUnits="userSpaceOnUse" id="clipPath17"><path d="M238 30 L260 30 L260 52 L238 52 L238 30 Z" /></clipPath><clipPath clipPathUnits="userSpaceOnUse" id="clipPath18"><path d="M405 52 L394 30 L416 30 Z" style="fill-rule:evenodd;" /></clipPath></defs><g style="fill:white; text-rendering:optimizeSpeed; stroke:white;"><rect height="264" style="stroke:none;" width="446" x="0" y="0" /></g><g ID="l-1:1,2" style="text-rendering:optimizeSpeed;"><polygon points=" 405 93 353 93" style="fill:none;" /></g><g ID="l-1:1,3" style="text-rendering:optimizeSpeed;"><polygon points=" 405 93 405 41" style="fill:none;" /></g><g ID="r-1:1" style="fill:white; text-rendering:optimizeSpeed; stroke:white;" wurcs_mono_id="1"><rect height="22" style="clip-path:url(#clipPath1); stroke:none;" width="22" x="394" y="82" /><rect height="22" style="clip-path:url(#clipPath1); fill:rgb(0,144,188); stroke:none;" width="22" x="394" y="82" /><rect height="22" style="clip-path:url(#clipPath1); fill:none; stroke:black;" width="22" x="394" y="82" /><rect height="22" style="fill:none; stroke:black;" width="22" x="394" y="82" /></g><g ID="l-1:2,4" style="text-rendering:optimizeSpeed;"><polygon points=" 353 93 301 93" style="fill:none;" /></g><g ID="r-1:2" style="fill:white; text-rendering:optimizeSpeed; stroke:white;" wurcs_mono_id="2"><rect height="22" style="clip-path:url(#clipPath2); stroke:none;" width="22" x="342" y="82" /><rect height="22" style="clip-path:url(#clipPath2); fill:rgb(0,144,188); stroke:none;" width="22" x="342" y="82" /><rect height="22" style="clip-path:url(#clipPath2); fill:none; stroke:black;" width="22" x="342" y="82" /><rect height="22" style="fill:none; stroke:black;" width="22" x="342" y="82" /></g><g ID="l-1:4,5" style="text-rendering:optimizeSpeed;"><polygon points=" 301 93 249 197" style="fill:none;" /></g><g ID="l-1:4,6" style="text-rendering:optimizeSpeed;"><polygon points=" 301 93 249 93" style="fill:none;" /></g><g ID="l-1:4,7" style="text-rendering:optimizeSpeed;"><polygon points=" 301 93 249 41" style="fill:none;" /></g><g ID="r-1:4" style="fill:white; text-rendering:optimizeSpeed; stroke:white;" wurcs_mono_id="3"><circle cx="301" cy="93" r="11" style="clip-path:url(#clipPath3); stroke:none;" /><rect height="22" style="clip-path:url(#clipPath3); fill:rgb(0,166,81); stroke:none;" width="22" x="290" y="82" /><rect height="22" style="clip-path:url(#clipPath3); fill:none; stroke:black;" width="22" x="290" y="82" /><circle cx="301" cy="93" r="11" style="fill:none; stroke:black;" /></g><g ID="l-1:5,8" style="text-rendering:optimizeSpeed;"><polygon points=" 249 197 197 223" style="fill:none;" /></g><g ID="l-1:5,9" style="text-rendering:optimizeSpeed;"><polygon points=" 249 197 197 171" style="fill:none;" /></g><g ID="r-1:5" style="fill:white; text-rendering:optimizeSpeed; stroke:white;" wurcs_mono_id="4"><circle cx="249" cy="197" r="11" style="clip-path:url(#clipPath4); stroke:none;" /><rect height="22" style="clip-path:url(#clipPath4); fill:rgb(0,166,81); stroke:none;" width="22" x="238" y="186" /><rect height="22" style="clip-path:url(#clipPath4); fill:none; stroke:black;" width="22" x="238" y="186" /><circle cx="249" cy="197" r="11" style="fill:none; stroke:black;" /></g><g ID="l-1:8,10" style="text-rendering:optimizeSpeed;"><polygon points=" 197 223 145 223" style="fill:none;" /></g><g ID="r-1:8" style="fill:white; text-rendering:optimizeSpeed; stroke:white;" wurcs_mono_id="5"><rect height="22" style="clip-path:url(#clipPath5); stroke:none;" width="22" x="186" y="212" /><rect height="22" style="clip-path:url(#clipPath5); fill:rgb(0,144,188); stroke:none;" width="22" x="186" y="212" /><rect height="22" style="clip-path:url(#clipPath5); fill:none; stroke:black;" width="22" x="186" y="212" /><rect height="22" style="fill:none; stroke:black;" width="22" x="186" y="212" /></g><g ID="l-1:10,11" style="text-rendering:optimizeSpeed;"><polygon points=" 145 223 93 223" style="fill:none;" /></g><g ID="r-1:10" style="fill:white; text-rendering:optimizeSpeed; stroke:white;" wurcs_mono_id="6"><circle cx="145" cy="223" r="11" style="clip-path:url(#clipPath6); stroke:none;" /><rect height="22" style="clip-path:url(#clipPath6); fill:rgb(255,212,0); stroke:none;" width="22" x="134" y="212" /><rect height="22" style="clip-path:url(#clipPath6); fill:none; stroke:black;" width="22" x="134" y="212" /><circle cx="145" cy="223" r="11" style="fill:none; stroke:black;" /></g><g ID="l-1:11,12" style="text-rendering:optimizeSpeed;"><polygon points=" 93 223 41 223" style="fill:none;" /></g><g ID="r-1:11" style="fill:white; text-rendering:optimizeSpeed; stroke:white;" wurcs_mono_id="7"><rect height="22" style="clip-path:url(#clipPath7); stroke:none;" width="22" x="82" y="212" /><rect height="22" style="clip-path:url(#clipPath7); fill:rgb(0,144,188); stroke:none;" width="22" x="82" y="212" /><rect height="22" style="clip-path:url(#clipPath7); fill:none; stroke:black;" width="22" x="82" y="212" /><rect height="22" style="fill:none; stroke:black;" width="22" x="82" y="212" /></g><g ID="r-1:12" style="fill:white; text-rendering:optimizeSpeed; stroke:white;" wurcs_mono_id="8"><circle cx="41" cy="223" r="11" style="clip-path:url(#clipPath8); stroke:none;" /><rect height="22" style="clip-path:url(#clipPath8); fill:rgb(255,212,0); stroke:none;" width="22" x="30" y="212" /><rect height="22" style="clip-path:url(#clipPath8); fill:none; stroke:black;" width="22" x="30" y="212" /><circle cx="41" cy="223" r="11" style="fill:none; stroke:black;" /></g><g ID="li-1:11,12" style="fill:white; text-rendering:optimizeSpeed; font-family:'Serif'; stroke:white;"><rect height="10" style="stroke:none;" width="6" x="71" y="226" /><path d="M73.1094 235.3906 Q73.1094 235.0625 73.3359 234.8359 Q73.5625 234.6094 73.8906 234.6094 Q74.2188 234.6094 74.4453 234.8359 Q74.6719 235.0625 74.6719 235.3906 Q74.6719 235.7188 74.4453 235.9453 Q74.2188 236.1719 73.8906 236.1719 Q73.5625 236.1719 73.3359 235.9453 Q73.1094 235.7188 73.1094 235.3906 ZM71.8125 227.6406 Q72.4375 227.3594 73 227.2266 Q73.5625 227.0938 74.0469 227.0938 Q75.3438 227.0938 76.1016 227.7188 Q76.8594 228.3438 76.8594 229.4062 Q76.8594 230.5 76.2109 231.1953 Q75.5625 231.8906 74.25 232.1875 L74.25 233.6719 L73.5312 233.6719 L73.5312 231.75 Q74.5625 231.5 75.0938 230.9062 Q75.625 230.3125 75.625 229.4062 Q75.625 228.5938 75.1953 228.1328 Q74.7656 227.6719 74.0312 227.6719 Q73.3594 227.6719 72.9297 228.0547 Q72.5 228.4375 72.3906 229.1562 L71.8125 229.1562 L71.8125 227.6406 Z" style="fill:black; stroke:none;" /><rect height="10" style="stroke:none;" width="6" x="57" y="226" /><path d="M59.1094 235.3906 Q59.1094 235.0625 59.3359 234.8359 Q59.5625 234.6094 59.8906 234.6094 Q60.2188 234.6094 60.4453 234.8359 Q60.6719 235.0625 60.6719 235.3906 Q60.6719 235.7188 60.4453 235.9453 Q60.2188 236.1719 59.8906 236.1719 Q59.5625 236.1719 59.3359 235.9453 Q59.1094 235.7188 59.1094 235.3906 ZM57.8125 227.6406 Q58.4375 227.3594 59 227.2266 Q59.5625 227.0938 60.0469 227.0938 Q61.3438 227.0938 62.1016 227.7188 Q62.8594 228.3438 62.8594 229.4062 Q62.8594 230.5 62.2109 231.1953 Q61.5625 231.8906 60.25 232.1875 L60.25 233.6719 L59.5312 233.6719 L59.5312 231.75 Q60.5625 231.5 61.0938 230.9062 Q61.625 230.3125 61.625 229.4062 Q61.625 228.5938 61.1953 228.1328 Q60.7656 227.6719 60.0312 227.6719 Q59.3594 227.6719 58.9297 228.0547 Q58.5 228.4375 58.3906 229.1562 L57.8125 229.1562 L57.8125 227.6406 Z" style="fill:black; stroke:none;" /></g><g ID="li-1:10,11" style="fill:white; text-rendering:optimizeSpeed; font-family:'Serif'; stroke:white;"><rect height="10" style="stroke:none;" width="6" x="123" y="226" /><path d="M125.1094 235.3906 Q125.1094 235.0625 125.3359 234.8359 Q125.5625 234.6094 125.8906 234.6094 Q126.2188 234.6094 126.4453 234.8359 Q126.6719 235.0625 126.6719 235.3906 Q126.6719 235.7188 126.4453 235.9453 Q126.2188 236.1719 125.8906 236.1719 Q125.5625 236.1719 125.3359 235.9453 Q125.1094 235.7188 125.1094 235.3906 ZM123.8125 227.6406 Q124.4375 227.3594 125 227.2266 Q125.5625 227.0938 126.0469 227.0938 Q127.3438 227.0938 128.1016 227.7188 Q128.8594 228.3438 128.8594 229.4062 Q128.8594 230.5 128.2109 231.1953 Q127.5625 231.8906 126.25 232.1875 L126.25 233.6719 L125.5312 233.6719 L125.5312 231.75 Q126.5625 231.5 127.0938 230.9062 Q127.625 230.3125 127.625 229.4062 Q127.625 228.5938 127.1953 228.1328 Q126.7656 227.6719 126.0312 227.6719 Q125.3594 227.6719 124.9297 228.0547 Q124.5 228.4375 124.3906 229.1562 L123.8125 229.1562 L123.8125 227.6406 Z" style="fill:black; stroke:none;" /><rect height="10" style="stroke:none;" width="6" x="109" y="226" /><path d="M111.1094 235.3906 Q111.1094 235.0625 111.3359 234.8359 Q111.5625 234.6094 111.8906 234.6094 Q112.2188 234.6094 112.4453 234.8359 Q112.6719 235.0625 112.6719 235.3906 Q112.6719 235.7188 112.4453 235.9453 Q112.2188 236.1719 111.8906 236.1719 Q111.5625 236.1719 111.3359 235.9453 Q111.1094 235.7188 111.1094 235.3906 ZM109.8125 227.6406 Q110.4375 227.3594 111 227.2266 Q111.5625 227.0938 112.0469 227.0938 Q113.3438 227.0938 114.1016 227.7188 Q114.8594 228.3438 114.8594 229.4062 Q114.8594 230.5 114.2109 231.1953 Q113.5625 231.8906 112.25 232.1875 L112.25 233.6719 L111.5312 233.6719 L111.5312 231.75 Q112.5625 231.5 113.0938 230.9062 Q113.625 230.3125 113.625 229.4062 Q113.625 228.5938 113.1953 228.1328 Q112.7656 227.6719 112.0312 227.6719 Q111.3594 227.6719 110.9297 228.0547 Q110.5 228.4375 110.3906 229.1562 L109.8125 229.1562 L109.8125 227.6406 Z" style="fill:black; stroke:none;" /></g><g ID="li-1:8,10" style="fill:white; text-rendering:optimizeSpeed; font-family:'Serif'; stroke:white;"><rect height="10" style="stroke:none;" width="6" x="175" y="226" /><path d="M177.1094 235.3906 Q177.1094 235.0625 177.3359 234.8359 Q177.5625 234.6094 177.8906 234.6094 Q178.2188 234.6094 178.4453 234.8359 Q178.6719 235.0625 178.6719 235.3906 Q178.6719 235.7188 178.4453 235.9453 Q178.2188 236.1719 177.8906 236.1719 Q177.5625 236.1719 177.3359 235.9453 Q177.1094 235.7188 177.1094 235.3906 ZM175.8125 227.6406 Q176.4375 227.3594 177 227.2266 Q177.5625 227.0938 178.0469 227.0938 Q179.3438 227.0938 180.1016 227.7188 Q180.8594 228.3438 180.8594 229.4062 Q180.8594 230.5 180.2109 231.1953 Q179.5625 231.8906 178.25 232.1875 L178.25 233.6719 L177.5312 233.6719 L177.5312 231.75 Q178.5625 231.5 179.0938 230.9062 Q179.625 230.3125 179.625 229.4062 Q179.625 228.5938 179.1953 228.1328 Q178.7656 227.6719 178.0312 227.6719 Q177.3594 227.6719 176.9297 228.0547 Q176.5 228.4375 176.3906 229.1562 L175.8125 229.1562 L175.8125 227.6406 Z" style="fill:black; stroke:none;" /><rect height="10" style="stroke:none;" width="6" x="161" y="226" /><path d="M163.1094 235.3906 Q163.1094 235.0625 163.3359 234.8359 Q163.5625 234.6094 163.8906 234.6094 Q164.2188 234.6094 164.4453 234.8359 Q164.6719 235.0625 164.6719 235.3906 Q164.6719 235.7188 164.4453 235.9453 Q164.2188 236.1719 163.8906 236.1719 Q163.5625 236.1719 163.3359 235.9453 Q163.1094 235.7188 163.1094 235.3906 ZM161.8125 227.6406 Q162.4375 227.3594 163 227.2266 Q163.5625 227.0938 164.0469 227.0938 Q165.3438 227.0938 166.1016 227.7188 Q166.8594 228.3438 166.8594 229.4062 Q166.8594 230.5 166.2109 231.1953 Q165.5625 231.8906 164.25 232.1875 L164.25 233.6719 L163.5312 233.6719 L163.5312 231.75 Q164.5625 231.5 165.0938 230.9062 Q165.625 230.3125 165.625 229.4062 Q165.625 228.5938 165.1953 228.1328 Q164.7656 227.6719 164.0312 227.6719 Q163.3594 227.6719 162.9297 228.0547 Q162.5 228.4375 162.3906 229.1562 L161.8125 229.1562 L161.8125 227.6406 Z" style="fill:black; stroke:none;" /></g><g ID="l-1:9,13" style="text-rendering:optimizeSpeed;"><polygon points=" 197 171 145 171" style="fill:none;" /></g><g ID="r-1:9" style="fill:white; text-rendering:optimizeSpeed; stroke:white;" wurcs_mono_id="9"><rect height="22" style="clip-path:url(#clipPath9); stroke:none;" width="22" x="186" y="160" /><rect height="22" style="clip-path:url(#clipPath9); fill:rgb(0,144,188); stroke:none;" width="22" x="186" y="160" /><rect height="22" style="clip-path:url(#clipPath9); fill:none; stroke:black;" width="22" x="186" y="160" /><rect height="22" style="fill:none; stroke:black;" width="22" x="186" y="160" /></g><g ID="r-1:13" style="fill:white; text-rendering:optimizeSpeed; stroke:white;" wurcs_mono_id="10"><circle cx="145" cy="171" r="11" style="clip-path:url(#clipPath10); stroke:none;" /><rect height="22" style="clip-path:url(#clipPath10); fill:rgb(255,212,0); stroke:none;" width="22" x="134" y="160" /><rect height="22" style="clip-path:url(#clipPath10); fill:none; stroke:black;" width="22" x="134" y="160" /><circle cx="145" cy="171" r="11" style="fill:none; stroke:black;" /></g><g ID="li-1:9,13" style="fill:white; text-rendering:optimizeSpeed; font-family:'Serif'; stroke:white;"><rect height="10" style="stroke:none;" width="6" x="175" y="174" /><path d="M177.1094 183.3906 Q177.1094 183.0625 177.3359 182.8359 Q177.5625 182.6094 177.8906 182.6094 Q178.2188 182.6094 178.4453 182.8359 Q178.6719 183.0625 178.6719 183.3906 Q178.6719 183.7188 178.4453 183.9453 Q178.2188 184.1719 177.8906 184.1719 Q177.5625 184.1719 177.3359 183.9453 Q177.1094 183.7188 177.1094 183.3906 ZM175.8125 175.6406 Q176.4375 175.3594 177 175.2266 Q177.5625 175.0938 178.0469 175.0938 Q179.3438 175.0938 180.1016 175.7188 Q180.8594 176.3438 180.8594 177.4062 Q180.8594 178.5 180.2109 179.1953 Q179.5625 179.8906 178.25 180.1875 L178.25 181.6719 L177.5312 181.6719 L177.5312 179.75 Q178.5625 179.5 179.0938 178.9062 Q179.625 178.3125 179.625 177.4062 Q179.625 176.5938 179.1953 176.1328 Q178.7656 175.6719 178.0312 175.6719 Q177.3594 175.6719 176.9297 176.0547 Q176.5 176.4375 176.3906 177.1562 L175.8125 177.1562 L175.8125 175.6406 Z" style="fill:black; stroke:none;" /><rect height="10" style="stroke:none;" width="6" x="161" y="174" /><path d="M163.1094 183.3906 Q163.1094 183.0625 163.3359 182.8359 Q163.5625 182.6094 163.8906 182.6094 Q164.2188 182.6094 164.4453 182.8359 Q164.6719 183.0625 164.6719 183.3906 Q164.6719 183.7188 164.4453 183.9453 Q164.2188 184.1719 163.8906 184.1719 Q163.5625 184.1719 163.3359 183.9453 Q163.1094 183.7188 163.1094 183.3906 ZM161.8125 175.6406 Q162.4375 175.3594 163 175.2266 Q163.5625 175.0938 164.0469 175.0938 Q165.3438 175.0938 166.1016 175.7188 Q166.8594 176.3438 166.8594 177.4062 Q166.8594 178.5 166.2109 179.1953 Q165.5625 179.8906 164.25 180.1875 L164.25 181.6719 L163.5312 181.6719 L163.5312 179.75 Q164.5625 179.5 165.0938 178.9062 Q165.625 178.3125 165.625 177.4062 Q165.625 176.5938 165.1953 176.1328 Q164.7656 175.6719 164.0312 175.6719 Q163.3594 175.6719 162.9297 176.0547 Q162.5 176.4375 162.3906 177.1562 L161.8125 177.1562 L161.8125 175.6406 Z" style="fill:black; stroke:none;" /></g><g ID="li-1:5,8" style="fill:white; text-rendering:optimizeSpeed; font-family:'Serif'; stroke:white;"><rect height="10" style="stroke:none;" width="6" x="231" y="208" /><path d="M233.1094 217.3906 Q233.1094 217.0625 233.3359 216.8359 Q233.5625 216.6094 233.8906 216.6094 Q234.2188 216.6094 234.4453 216.8359 Q234.6719 217.0625 234.6719 217.3906 Q234.6719 217.7188 234.4453 217.9453 Q234.2188 218.1719 233.8906 218.1719 Q233.5625 218.1719 233.3359 217.9453 Q233.1094 217.7188 233.1094 217.3906 ZM231.8125 209.6406 Q232.4375 209.3594 233 209.2266 Q233.5625 209.0938 234.0469 209.0938 Q235.3438 209.0938 236.1016 209.7188 Q236.8594 210.3438 236.8594 211.4062 Q236.8594 212.5 236.2109 213.1953 Q235.5625 213.8906 234.25 214.1875 L234.25 215.6719 L233.5312 215.6719 L233.5312 213.75 Q234.5625 213.5 235.0938 212.9062 Q235.625 212.3125 235.625 211.4062 Q235.625 210.5938 235.1953 210.1328 Q234.7656 209.6719 234.0312 209.6719 Q233.3594 209.6719 232.9297 210.0547 Q232.5 210.4375 232.3906 211.1562 L231.8125 211.1562 L231.8125 209.6406 Z" style="fill:black; stroke:none;" /><rect height="10" style="stroke:none;" width="6" x="215" y="216" /><path d="M217.1094 225.3906 Q217.1094 225.0625 217.3359 224.8359 Q217.5625 224.6094 217.8906 224.6094 Q218.2188 224.6094 218.4453 224.8359 Q218.6719 225.0625 218.6719 225.3906 Q218.6719 225.7188 218.4453 225.9453 Q218.2188 226.1719 217.8906 226.1719 Q217.5625 226.1719 217.3359 225.9453 Q217.1094 225.7188 217.1094 225.3906 ZM215.8125 217.6406 Q216.4375 217.3594 217 217.2266 Q217.5625 217.0938 218.0469 217.0938 Q219.3438 217.0938 220.1016 217.7188 Q220.8594 218.3438 220.8594 219.4062 Q220.8594 220.5 220.2109 221.1953 Q219.5625 221.8906 218.25 222.1875 L218.25 223.6719 L217.5312 223.6719 L217.5312 221.75 Q218.5625 221.5 219.0938 220.9062 Q219.625 220.3125 219.625 219.4062 Q219.625 218.5938 219.1953 218.1328 Q218.7656 217.6719 218.0312 217.6719 Q217.3594 217.6719 216.9297 218.0547 Q216.5 218.4375 216.3906 219.1562 L215.8125 219.1562 L215.8125 217.6406 Z" style="fill:black; stroke:none;" /></g><g ID="li-1:5,9" style="fill:white; text-rendering:optimizeSpeed; font-family:'Serif'; stroke:white;"><rect height="10" style="stroke:none;" width="6" x="224" y="190" /><path d="M226.1094 199.3906 Q226.1094 199.0625 226.3359 198.8359 Q226.5625 198.6094 226.8906 198.6094 Q227.2188 198.6094 227.4453 198.8359 Q227.6719 199.0625 227.6719 199.3906 Q227.6719 199.7188 227.4453 199.9453 Q227.2188 200.1719 226.8906 200.1719 Q226.5625 200.1719 226.3359 199.9453 Q226.1094 199.7188 226.1094 199.3906 ZM224.8125 191.6406 Q225.4375 191.3594 226 191.2266 Q226.5625 191.0938 227.0469 191.0938 Q228.3438 191.0938 229.1016 191.7188 Q229.8594 192.3438 229.8594 193.4062 Q229.8594 194.5 229.2109 195.1953 Q228.5625 195.8906 227.25 196.1875 L227.25 197.6719 L226.5312 197.6719 L226.5312 195.75 Q227.5625 195.5 228.0938 194.9062 Q228.625 194.3125 228.625 193.4062 Q228.625 192.5938 228.1953 192.1328 Q227.7656 191.6719 227.0312 191.6719 Q226.3594 191.6719 225.9297 192.0547 Q225.5 192.4375 225.3906 193.1562 L224.8125 193.1562 L224.8125 191.6406 Z" style="fill:black; stroke:none;" /><rect height="10" style="stroke:none;" width="6" x="208" y="182" /><path d="M210.1094 191.3906 Q210.1094 191.0625 210.3359 190.8359 Q210.5625 190.6094 210.8906 190.6094 Q211.2188 190.6094 211.4453 190.8359 Q211.6719 191.0625 211.6719 191.3906 Q211.6719 191.7188 211.4453 191.9453 Q211.2188 192.1719 210.8906 192.1719 Q210.5625 192.1719 210.3359 191.9453 Q210.1094 191.7188 210.1094 191.3906 ZM208.8125 183.6406 Q209.4375 183.3594 210 183.2266 Q210.5625 183.0938 211.0469 183.0938 Q212.3438 183.0938 213.1016 183.7188 Q213.8594 184.3438 213.8594 185.4062 Q213.8594 186.5 213.2109 187.1953 Q212.5625 187.8906 211.25 188.1875 L211.25 189.6719 L210.5312 189.6719 L210.5312 187.75 Q211.5625 187.5 212.0938 186.9062 Q212.625 186.3125 212.625 185.4062 Q212.625 184.5938 212.1953 184.1328 Q211.7656 183.6719 211.0312 183.6719 Q210.3594 183.6719 209.9297 184.0547 Q209.5 184.4375 209.3906 185.1562 L208.8125 185.1562 L208.8125 183.6406 Z" style="fill:black; stroke:none;" /></g><g ID="l-1:6,14" style="text-rendering:optimizeSpeed;"><polygon points=" 249 93 197 119" style="fill:none;" /></g><g ID="l-1:6,15" style="text-rendering:optimizeSpeed;"><polygon points=" 249 93 197 67" style="fill:none;" /></g><g ID="r-1:6" style="fill:white; text-rendering:optimizeSpeed; stroke:white;" wurcs_mono_id="11"><circle cx="249" cy="93" r="11" style="clip-path:url(#clipPath11); stroke:none;" /><rect height="22" style="clip-path:url(#clipPath11); fill:rgb(0,166,81); stroke:none;" width="22" x="238" y="82" /><rect height="22" style="clip-path:url(#clipPath11); fill:none; stroke:black;" width="22" x="238" y="82" /><circle cx="249" cy="93" r="11" style="fill:none; stroke:black;" /></g><g ID="l-1:14,16" style="text-rendering:optimizeSpeed;"><polygon points=" 197 119 145 119" style="fill:none;" /></g><g ID="r-1:14" style="fill:white; text-rendering:optimizeSpeed; stroke:white;" wurcs_mono_id="12"><rect height="22" style="clip-path:url(#clipPath12); stroke:none;" width="22" x="186" y="108" /><rect height="22" style="clip-path:url(#clipPath12); fill:rgb(0,144,188); stroke:none;" width="22" x="186" y="108" /><rect height="22" style="clip-path:url(#clipPath12); fill:none; stroke:black;" width="22" x="186" y="108" /><rect height="22" style="fill:none; stroke:black;" width="22" x="186" y="108" /></g><g ID="l-1:16,17" style="text-rendering:optimizeSpeed;"><polygon points=" 145 119 93 119" style="fill:none;" /></g><g ID="r-1:16" style="fill:white; text-rendering:optimizeSpeed; stroke:white;" wurcs_mono_id="13"><circle cx="145" cy="119" r="11" style="clip-path:url(#clipPath13); stroke:none;" /><rect height="22" style="clip-path:url(#clipPath13); fill:rgb(255,212,0); stroke:none;" width="22" x="134" y="108" /><rect height="22" style="clip-path:url(#clipPath13); fill:none; stroke:black;" width="22" x="134" y="108" /><circle cx="145" cy="119" r="11" style="fill:none; stroke:black;" /></g><g ID="l-1:17,18" style="text-rendering:optimizeSpeed;"><polygon points=" 93 119 41 119" style="fill:none;" /></g><g ID="r-1:17" style="fill:white; text-rendering:optimizeSpeed; stroke:white;" wurcs_mono_id="14"><rect height="22" style="clip-path:url(#clipPath14); stroke:none;" width="22" x="82" y="108" /><rect height="22" style="clip-path:url(#clipPath14); fill:rgb(0,144,188); stroke:none;" width="22" x="82" y="108" /><rect height="22" style="clip-path:url(#clipPath14); fill:none; stroke:black;" width="22" x="82" y="108" /><rect height="22" style="fill:none; stroke:black;" width="22" x="82" y="108" /></g><g ID="r-1:18" style="fill:white; text-rendering:optimizeSpeed; stroke:white;" wurcs_mono_id="15"><circle cx="41" cy="119" r="11" style="clip-path:url(#clipPath15); stroke:none;" /><rect height="22" style="clip-path:url(#clipPath15); fill:rgb(255,212,0); stroke:none;" width="22" x="30" y="108" /><rect height="22" style="clip-path:url(#clipPath15); fill:none; stroke:black;" width="22" x="30" y="108" /><circle cx="41" cy="119" r="11" style="fill:none; stroke:black;" /></g><g ID="li-1:17,18" style="fill:white; text-rendering:optimizeSpeed; font-family:'Serif'; stroke:white;"><rect height="10" style="stroke:none;" width="6" x="71" y="122" /><path d="M73.1094 131.3906 Q73.1094 131.0625 73.3359 130.8359 Q73.5625 130.6094 73.8906 130.6094 Q74.2188 130.6094 74.4453 130.8359 Q74.6719 131.0625 74.6719 131.3906 Q74.6719 131.7188 74.4453 131.9453 Q74.2188 132.1719 73.8906 132.1719 Q73.5625 132.1719 73.3359 131.9453 Q73.1094 131.7188 73.1094 131.3906 ZM71.8125 123.6406 Q72.4375 123.3594 73 123.2266 Q73.5625 123.0938 74.0469 123.0938 Q75.3438 123.0938 76.1016 123.7188 Q76.8594 124.3438 76.8594 125.4062 Q76.8594 126.5 76.2109 127.1953 Q75.5625 127.8906 74.25 128.1875 L74.25 129.6719 L73.5312 129.6719 L73.5312 127.75 Q74.5625 127.5 75.0938 126.9062 Q75.625 126.3125 75.625 125.4062 Q75.625 124.5938 75.1953 124.1328 Q74.7656 123.6719 74.0312 123.6719 Q73.3594 123.6719 72.9297 124.0547 Q72.5 124.4375 72.3906 125.1562 L71.8125 125.1562 L71.8125 123.6406 Z" style="fill:black; stroke:none;" /><rect height="10" style="stroke:none;" width="6" x="57" y="122" /><path d="M59.1094 131.3906 Q59.1094 131.0625 59.3359 130.8359 Q59.5625 130.6094 59.8906 130.6094 Q60.2188 130.6094 60.4453 130.8359 Q60.6719 131.0625 60.6719 131.3906 Q60.6719 131.7188 60.4453 131.9453 Q60.2188 132.1719 59.8906 132.1719 Q59.5625 132.1719 59.3359 131.9453 Q59.1094 131.7188 59.1094 131.3906 ZM57.8125 123.6406 Q58.4375 123.3594 59 123.2266 Q59.5625 123.0938 60.0469 123.0938 Q61.3438 123.0938 62.1016 123.7188 Q62.8594 124.3438 62.8594 125.4062 Q62.8594 126.5 62.2109 127.1953 Q61.5625 127.8906 60.25 128.1875 L60.25 129.6719 L59.5312 129.6719 L59.5312 127.75 Q60.5625 127.5 61.0938 126.9062 Q61.625 126.3125 61.625 125.4062 Q61.625 124.5938 61.1953 124.1328 Q60.7656 123.6719 60.0312 123.6719 Q59.3594 123.6719 58.9297 124.0547 Q58.5 124.4375 58.3906 125.1562 L57.8125 125.1562 L57.8125 123.6406 Z" style="fill:black; stroke:none;" /></g><g ID="li-1:16,17" style="fill:white; text-rendering:optimizeSpeed; font-family:'Serif'; stroke:white;"><rect height="10" style="stroke:none;" width="6" x="123" y="122" /><path d="M125.1094 131.3906 Q125.1094 131.0625 125.3359 130.8359 Q125.5625 130.6094 125.8906 130.6094 Q126.2188 130.6094 126.4453 130.8359 Q126.6719 131.0625 126.6719 131.3906 Q126.6719 131.7188 126.4453 131.9453 Q126.2188 132.1719 125.8906 132.1719 Q125.5625 132.1719 125.3359 131.9453 Q125.1094 131.7188 125.1094 131.3906 ZM123.8125 123.6406 Q124.4375 123.3594 125 123.2266 Q125.5625 123.0938 126.0469 123.0938 Q127.3438 123.0938 128.1016 123.7188 Q128.8594 124.3438 128.8594 125.4062 Q128.8594 126.5 128.2109 127.1953 Q127.5625 127.8906 126.25 128.1875 L126.25 129.6719 L125.5312 129.6719 L125.5312 127.75 Q126.5625 127.5 127.0938 126.9062 Q127.625 126.3125 127.625 125.4062 Q127.625 124.5938 127.1953 124.1328 Q126.7656 123.6719 126.0312 123.6719 Q125.3594 123.6719 124.9297 124.0547 Q124.5 124.4375 124.3906 125.1562 L123.8125 125.1562 L123.8125 123.6406 Z" style="fill:black; stroke:none;" /><rect height="10" style="stroke:none;" width="6" x="109" y="122" /><path d="M111.1094 131.3906 Q111.1094 131.0625 111.3359 130.8359 Q111.5625 130.6094 111.8906 130.6094 Q112.2188 130.6094 112.4453 130.8359 Q112.6719 131.0625 112.6719 131.3906 Q112.6719 131.7188 112.4453 131.9453 Q112.2188 132.1719 111.8906 132.1719 Q111.5625 132.1719 111.3359 131.9453 Q111.1094 131.7188 111.1094 131.3906 ZM109.8125 123.6406 Q110.4375 123.3594 111 123.2266 Q111.5625 123.0938 112.0469 123.0938 Q113.3438 123.0938 114.1016 123.7188 Q114.8594 124.3438 114.8594 125.4062 Q114.8594 126.5 114.2109 127.1953 Q113.5625 127.8906 112.25 128.1875 L112.25 129.6719 L111.5312 129.6719 L111.5312 127.75 Q112.5625 127.5 113.0938 126.9062 Q113.625 126.3125 113.625 125.4062 Q113.625 124.5938 113.1953 124.1328 Q112.7656 123.6719 112.0312 123.6719 Q111.3594 123.6719 110.9297 124.0547 Q110.5 124.4375 110.3906 125.1562 L109.8125 125.1562 L109.8125 123.6406 Z" style="fill:black; stroke:none;" /></g><g ID="li-1:14,16" style="fill:white; text-rendering:optimizeSpeed; font-family:'Serif'; stroke:white;"><rect height="10" style="stroke:none;" width="6" x="175" y="122" /><path d="M177.1094 131.3906 Q177.1094 131.0625 177.3359 130.8359 Q177.5625 130.6094 177.8906 130.6094 Q178.2188 130.6094 178.4453 130.8359 Q178.6719 131.0625 178.6719 131.3906 Q178.6719 131.7188 178.4453 131.9453 Q178.2188 132.1719 177.8906 132.1719 Q177.5625 132.1719 177.3359 131.9453 Q177.1094 131.7188 177.1094 131.3906 ZM175.8125 123.6406 Q176.4375 123.3594 177 123.2266 Q177.5625 123.0938 178.0469 123.0938 Q179.3438 123.0938 180.1016 123.7188 Q180.8594 124.3438 180.8594 125.4062 Q180.8594 126.5 180.2109 127.1953 Q179.5625 127.8906 178.25 128.1875 L178.25 129.6719 L177.5312 129.6719 L177.5312 127.75 Q178.5625 127.5 179.0938 126.9062 Q179.625 126.3125 179.625 125.4062 Q179.625 124.5938 179.1953 124.1328 Q178.7656 123.6719 178.0312 123.6719 Q177.3594 123.6719 176.9297 124.0547 Q176.5 124.4375 176.3906 125.1562 L175.8125 125.1562 L175.8125 123.6406 Z" style="fill:black; stroke:none;" /><rect height="10" style="stroke:none;" width="6" x="161" y="122" /><path d="M163.1094 131.3906 Q163.1094 131.0625 163.3359 130.8359 Q163.5625 130.6094 163.8906 130.6094 Q164.2188 130.6094 164.4453 130.8359 Q164.6719 131.0625 164.6719 131.3906 Q164.6719 131.7188 164.4453 131.9453 Q164.2188 132.1719 163.8906 132.1719 Q163.5625 132.1719 163.3359 131.9453 Q163.1094 131.7188 163.1094 131.3906 ZM161.8125 123.6406 Q162.4375 123.3594 163 123.2266 Q163.5625 123.0938 164.0469 123.0938 Q165.3438 123.0938 166.1016 123.7188 Q166.8594 124.3438 166.8594 125.4062 Q166.8594 126.5 166.2109 127.1953 Q165.5625 127.8906 164.25 128.1875 L164.25 129.6719 L163.5312 129.6719 L163.5312 127.75 Q164.5625 127.5 165.0938 126.9062 Q165.625 126.3125 165.625 125.4062 Q165.625 124.5938 165.1953 124.1328 Q164.7656 123.6719 164.0312 123.6719 Q163.3594 123.6719 162.9297 124.0547 Q162.5 124.4375 162.3906 125.1562 L161.8125 125.1562 L161.8125 123.6406 Z" style="fill:black; stroke:none;" /></g><g ID="r-1:15" style="fill:white; text-rendering:optimizeSpeed; stroke:white;" wurcs_mono_id="16"><rect height="22" style="clip-path:url(#clipPath16); stroke:none;" width="22" x="186" y="56" /><rect height="22" style="clip-path:url(#clipPath16); fill:rgb(0,144,188); stroke:none;" width="22" x="186" y="56" /><rect height="22" style="clip-path:url(#clipPath16); fill:none; stroke:black;" width="22" x="186" y="56" /><rect height="22" style="fill:none; stroke:black;" width="22" x="186" y="56" /></g><g ID="li-1:6,14" style="fill:white; text-rendering:optimizeSpeed; font-family:'Serif'; stroke:white;"><rect height="10" style="stroke:none;" width="6" x="231" y="104" /><path d="M233.1094 113.3906 Q233.1094 113.0625 233.3359 112.8359 Q233.5625 112.6094 233.8906 112.6094 Q234.2188 112.6094 234.4453 112.8359 Q234.6719 113.0625 234.6719 113.3906 Q234.6719 113.7188 234.4453 113.9453 Q234.2188 114.1719 233.8906 114.1719 Q233.5625 114.1719 233.3359 113.9453 Q233.1094 113.7188 233.1094 113.3906 ZM231.8125 105.6406 Q232.4375 105.3594 233 105.2266 Q233.5625 105.0938 234.0469 105.0938 Q235.3438 105.0938 236.1016 105.7188 Q236.8594 106.3438 236.8594 107.4062 Q236.8594 108.5 236.2109 109.1953 Q235.5625 109.8906 234.25 110.1875 L234.25 111.6719 L233.5312 111.6719 L233.5312 109.75 Q234.5625 109.5 235.0938 108.9062 Q235.625 108.3125 235.625 107.4062 Q235.625 106.5938 235.1953 106.1328 Q234.7656 105.6719 234.0312 105.6719 Q233.3594 105.6719 232.9297 106.0547 Q232.5 106.4375 232.3906 107.1562 L231.8125 107.1562 L231.8125 105.6406 Z" style="fill:black; stroke:none;" /><rect height="10" style="stroke:none;" width="6" x="215" y="112" /><path d="M217.1094 121.3906 Q217.1094 121.0625 217.3359 120.8359 Q217.5625 120.6094 217.8906 120.6094 Q218.2188 120.6094 218.4453 120.8359 Q218.6719 121.0625 218.6719 121.3906 Q218.6719 121.7188 218.4453 121.9453 Q218.2188 122.1719 217.8906 122.1719 Q217.5625 122.1719 217.3359 121.9453 Q217.1094 121.7188 217.1094 121.3906 ZM215.8125 113.6406 Q216.4375 113.3594 217 113.2266 Q217.5625 113.0938 218.0469 113.0938 Q219.3438 113.0938 220.1016 113.7188 Q220.8594 114.3438 220.8594 115.4062 Q220.8594 116.5 220.2109 117.1953 Q219.5625 117.8906 218.25 118.1875 L218.25 119.6719 L217.5312 119.6719 L217.5312 117.75 Q218.5625 117.5 219.0938 116.9062 Q219.625 116.3125 219.625 115.4062 Q219.625 114.5938 219.1953 114.1328 Q218.7656 113.6719 218.0312 113.6719 Q217.3594 113.6719 216.9297 114.0547 Q216.5 114.4375 216.3906 115.1562 L215.8125 115.1562 L215.8125 113.6406 Z" style="fill:black; stroke:none;" /></g><g ID="li-1:6,15" style="fill:white; text-rendering:optimizeSpeed; font-family:'Serif'; stroke:white;"><rect height="10" style="stroke:none;" width="6" x="224" y="86" /><path d="M226.1094 95.3906 Q226.1094 95.0625 226.3359 94.8359 Q226.5625 94.6094 226.8906 94.6094 Q227.2188 94.6094 227.4453 94.8359 Q227.6719 95.0625 227.6719 95.3906 Q227.6719 95.7188 227.4453 95.9453 Q227.2188 96.1719 226.8906 96.1719 Q226.5625 96.1719 226.3359 95.9453 Q226.1094 95.7188 226.1094 95.3906 ZM224.8125 87.6406 Q225.4375 87.3594 226 87.2266 Q226.5625 87.0938 227.0469 87.0938 Q228.3438 87.0938 229.1016 87.7188 Q229.8594 88.3438 229.8594 89.4062 Q229.8594 90.5 229.2109 91.1953 Q228.5625 91.8906 227.25 92.1875 L227.25 93.6719 L226.5312 93.6719 L226.5312 91.75 Q227.5625 91.5 228.0938 90.9062 Q228.625 90.3125 228.625 89.4062 Q228.625 88.5938 228.1953 88.1328 Q227.7656 87.6719 227.0312 87.6719 Q226.3594 87.6719 225.9297 88.0547 Q225.5 88.4375 225.3906 89.1562 L224.8125 89.1562 L224.8125 87.6406 Z" style="fill:black; stroke:none;" /><rect height="10" style="stroke:none;" width="6" x="208" y="78" /><path d="M210.1094 87.3906 Q210.1094 87.0625 210.3359 86.8359 Q210.5625 86.6094 210.8906 86.6094 Q211.2188 86.6094 211.4453 86.8359 Q211.6719 87.0625 211.6719 87.3906 Q211.6719 87.7188 211.4453 87.9453 Q211.2188 88.1719 210.8906 88.1719 Q210.5625 88.1719 210.3359 87.9453 Q210.1094 87.7188 210.1094 87.3906 ZM208.8125 79.6406 Q209.4375 79.3594 210 79.2266 Q210.5625 79.0938 211.0469 79.0938 Q212.3438 79.0938 213.1016 79.7188 Q213.8594 80.3438 213.8594 81.4062 Q213.8594 82.5 213.2109 83.1953 Q212.5625 83.8906 211.25 84.1875 L211.25 85.6719 L210.5312 85.6719 L210.5312 83.75 Q211.5625 83.5 212.0938 82.9062 Q212.625 82.3125 212.625 81.4062 Q212.625 80.5938 212.1953 80.1328 Q211.7656 79.6719 211.0312 79.6719 Q210.3594 79.6719 209.9297 80.0547 Q209.5 80.4375 209.3906 81.1562 L208.8125 81.1562 L208.8125 79.6406 Z" style="fill:black; stroke:none;" /></g><g ID="r-1:7" style="fill:white; text-rendering:optimizeSpeed; stroke:white;" wurcs_mono_id="17"><rect height="22" style="clip-path:url(#clipPath17); stroke:none;" width="22" x="238" y="30" /><rect height="22" style="clip-path:url(#clipPath17); fill:rgb(0,144,188); stroke:none;" width="22" x="238" y="30" /><rect height="22" style="clip-path:url(#clipPath17); fill:none; stroke:black;" width="22" x="238" y="30" /><rect height="22" style="fill:none; stroke:black;" width="22" x="238" y="30" /></g><g ID="li-1:4,5" style="fill:white; text-rendering:optimizeSpeed; font-family:'Serif'; stroke:white;"><rect height="10" style="stroke:none;" width="6" x="296" y="109" /><path d="M298.1094 118.3906 Q298.1094 118.0625 298.3359 117.8359 Q298.5625 117.6094 298.8906 117.6094 Q299.2188 117.6094 299.4453 117.8359 Q299.6719 118.0625 299.6719 118.3906 Q299.6719 118.7188 299.4453 118.9453 Q299.2188 119.1719 298.8906 119.1719 Q298.5625 119.1719 298.3359 118.9453 Q298.1094 118.7188 298.1094 118.3906 ZM296.8125 110.6406 Q297.4375 110.3594 298 110.2266 Q298.5625 110.0938 299.0469 110.0938 Q300.3438 110.0938 301.1016 110.7188 Q301.8594 111.3438 301.8594 112.4062 Q301.8594 113.5 301.2109 114.1953 Q300.5625 114.8906 299.25 115.1875 L299.25 116.6719 L298.5312 116.6719 L298.5312 114.75 Q299.5625 114.5 300.0938 113.9062 Q300.625 113.3125 300.625 112.4062 Q300.625 111.5938 300.1953 111.1328 Q299.7656 110.6719 299.0312 110.6719 Q298.3594 110.6719 297.9297 111.0547 Q297.5 111.4375 297.3906 112.1562 L296.8125 112.1562 L296.8125 110.6406 Z" style="fill:black; stroke:none;" /><rect height="10" style="stroke:none;" width="6" x="262" y="177" /><path d="M264.1094 186.3906 Q264.1094 186.0625 264.3359 185.8359 Q264.5625 185.6094 264.8906 185.6094 Q265.2188 185.6094 265.4453 185.8359 Q265.6719 186.0625 265.6719 186.3906 Q265.6719 186.7188 265.4453 186.9453 Q265.2188 187.1719 264.8906 187.1719 Q264.5625 187.1719 264.3359 186.9453 Q264.1094 186.7188 264.1094 186.3906 ZM262.8125 178.6406 Q263.4375 178.3594 264 178.2266 Q264.5625 178.0938 265.0469 178.0938 Q266.3438 178.0938 267.1016 178.7188 Q267.8594 179.3438 267.8594 180.4062 Q267.8594 181.5 267.2109 182.1953 Q266.5625 182.8906 265.25 183.1875 L265.25 184.6719 L264.5312 184.6719 L264.5312 182.75 Q265.5625 182.5 266.0938 181.9062 Q266.625 181.3125 266.625 180.4062 Q266.625 179.5938 266.1953 179.1328 Q265.7656 178.6719 265.0312 178.6719 Q264.3594 178.6719 263.9297 179.0547 Q263.5 179.4375 263.3906 180.1562 L262.8125 180.1562 L262.8125 178.6406 Z" style="fill:black; stroke:none;" /></g><g ID="li-1:4,6" style="fill:white; text-rendering:optimizeSpeed; font-family:'Serif'; stroke:white;"><rect height="10" style="stroke:none;" width="6" x="279" y="96" /><path d="M281.1094 105.3906 Q281.1094 105.0625 281.3359 104.8359 Q281.5625 104.6094 281.8906 104.6094 Q282.2188 104.6094 282.4453 104.8359 Q282.6719 105.0625 282.6719 105.3906 Q282.6719 105.7188 282.4453 105.9453 Q282.2188 106.1719 281.8906 106.1719 Q281.5625 106.1719 281.3359 105.9453 Q281.1094 105.7188 281.1094 105.3906 ZM279.8125 97.6406 Q280.4375 97.3594 281 97.2266 Q281.5625 97.0938 282.0469 97.0938 Q283.3438 97.0938 284.1016 97.7188 Q284.8594 98.3438 284.8594 99.4062 Q284.8594 100.5 284.2109 101.1953 Q283.5625 101.8906 282.25 102.1875 L282.25 103.6719 L281.5312 103.6719 L281.5312 101.75 Q282.5625 101.5 283.0938 100.9062 Q283.625 100.3125 283.625 99.4062 Q283.625 98.5938 283.1953 98.1328 Q282.7656 97.6719 282.0312 97.6719 Q281.3594 97.6719 280.9297 98.0547 Q280.5 98.4375 280.3906 99.1562 L279.8125 99.1562 L279.8125 97.6406 Z" style="fill:black; stroke:none;" /><rect height="10" style="stroke:none;" width="6" x="265" y="96" /><path d="M267.1094 105.3906 Q267.1094 105.0625 267.3359 104.8359 Q267.5625 104.6094 267.8906 104.6094 Q268.2188 104.6094 268.4453 104.8359 Q268.6719 105.0625 268.6719 105.3906 Q268.6719 105.7188 268.4453 105.9453 Q268.2188 106.1719 267.8906 106.1719 Q267.5625 106.1719 267.3359 105.9453 Q267.1094 105.7188 267.1094 105.3906 ZM265.8125 97.6406 Q266.4375 97.3594 267 97.2266 Q267.5625 97.0938 268.0469 97.0938 Q269.3438 97.0938 270.1016 97.7188 Q270.8594 98.3438 270.8594 99.4062 Q270.8594 100.5 270.2109 101.1953 Q269.5625 101.8906 268.25 102.1875 L268.25 103.6719 L267.5312 103.6719 L267.5312 101.75 Q268.5625 101.5 269.0938 100.9062 Q269.625 100.3125 269.625 99.4062 Q269.625 98.5938 269.1953 98.1328 Q268.7656 97.6719 268.0312 97.6719 Q267.3594 97.6719 266.9297 98.0547 Q266.5 98.4375 266.3906 99.1562 L265.8125 99.1562 L265.8125 97.6406 Z" style="fill:black; stroke:none;" /></g><g ID="li-1:4,7" style="fill:white; text-rendering:optimizeSpeed; font-family:'Serif'; stroke:white;"><rect height="10" style="stroke:none;" width="6" x="275" y="77" /><path d="M277.1094 86.3906 Q277.1094 86.0625 277.3359 85.8359 Q277.5625 85.6094 277.8906 85.6094 Q278.2188 85.6094 278.4453 85.8359 Q278.6719 86.0625 278.6719 86.3906 Q278.6719 86.7188 278.4453 86.9453 Q278.2188 87.1719 277.8906 87.1719 Q277.5625 87.1719 277.3359 86.9453 Q277.1094 86.7188 277.1094 86.3906 ZM275.8125 78.6406 Q276.4375 78.3594 277 78.2266 Q277.5625 78.0938 278.0469 78.0938 Q279.3438 78.0938 280.1016 78.7188 Q280.8594 79.3438 280.8594 80.4062 Q280.8594 81.5 280.2109 82.1953 Q279.5625 82.8906 278.25 83.1875 L278.25 84.6719 L277.5312 84.6719 L277.5312 82.75 Q278.5625 82.5 279.0938 81.9062 Q279.625 81.3125 279.625 80.4062 Q279.625 79.5938 279.1953 79.1328 Q278.7656 78.6719 278.0312 78.6719 Q277.3594 78.6719 276.9297 79.0547 Q276.5 79.4375 276.3906 80.1562 L275.8125 80.1562 L275.8125 78.6406 Z" style="fill:black; stroke:none;" /><rect height="10" style="stroke:none;" width="6" x="257" y="58" /><path d="M259.1094 67.3906 Q259.1094 67.0625 259.3359 66.8359 Q259.5625 66.6094 259.8906 66.6094 Q260.2188 66.6094 260.4453 66.8359 Q260.6719 67.0625 260.6719 67.3906 Q260.6719 67.7188 260.4453 67.9453 Q260.2188 68.1719 259.8906 68.1719 Q259.5625 68.1719 259.3359 67.9453 Q259.1094 67.7188 259.1094 67.3906 ZM257.8125 59.6406 Q258.4375 59.3594 259 59.2266 Q259.5625 59.0938 260.0469 59.0938 Q261.3438 59.0938 262.1016 59.7188 Q262.8594 60.3438 262.8594 61.4062 Q262.8594 62.5 262.2109 63.1953 Q261.5625 63.8906 260.25 64.1875 L260.25 65.6719 L259.5312 65.6719 L259.5312 63.75 Q260.5625 63.5 261.0938 62.9062 Q261.625 62.3125 261.625 61.4062 Q261.625 60.5938 261.1953 60.1328 Q260.7656 59.6719 260.0312 59.6719 Q259.3594 59.6719 258.9297 60.0547 Q258.5 60.4375 258.3906 61.1562 L257.8125 61.1562 L257.8125 59.6406 Z" style="fill:black; stroke:none;" /></g><g ID="li-1:2,4" style="fill:white; text-rendering:optimizeSpeed; font-family:'Serif'; stroke:white;"><rect height="10" style="stroke:none;" width="6" x="331" y="96" /><path d="M333.1094 105.3906 Q333.1094 105.0625 333.3359 104.8359 Q333.5625 104.6094 333.8906 104.6094 Q334.2188 104.6094 334.4453 104.8359 Q334.6719 105.0625 334.6719 105.3906 Q334.6719 105.7188 334.4453 105.9453 Q334.2188 106.1719 333.8906 106.1719 Q333.5625 106.1719 333.3359 105.9453 Q333.1094 105.7188 333.1094 105.3906 ZM331.8125 97.6406 Q332.4375 97.3594 333 97.2266 Q333.5625 97.0938 334.0469 97.0938 Q335.3438 97.0938 336.1016 97.7188 Q336.8594 98.3438 336.8594 99.4062 Q336.8594 100.5 336.2109 101.1953 Q335.5625 101.8906 334.25 102.1875 L334.25 103.6719 L333.5312 103.6719 L333.5312 101.75 Q334.5625 101.5 335.0938 100.9062 Q335.625 100.3125 335.625 99.4062 Q335.625 98.5938 335.1953 98.1328 Q334.7656 97.6719 334.0312 97.6719 Q333.3594 97.6719 332.9297 98.0547 Q332.5 98.4375 332.3906 99.1562 L331.8125 99.1562 L331.8125 97.6406 Z" style="fill:black; stroke:none;" /><rect height="10" style="stroke:none;" width="6" x="317" y="96" /><path d="M319.1094 105.3906 Q319.1094 105.0625 319.3359 104.8359 Q319.5625 104.6094 319.8906 104.6094 Q320.2188 104.6094 320.4453 104.8359 Q320.6719 105.0625 320.6719 105.3906 Q320.6719 105.7188 320.4453 105.9453 Q320.2188 106.1719 319.8906 106.1719 Q319.5625 106.1719 319.3359 105.9453 Q319.1094 105.7188 319.1094 105.3906 ZM317.8125 97.6406 Q318.4375 97.3594 319 97.2266 Q319.5625 97.0938 320.0469 97.0938 Q321.3438 97.0938 322.1016 97.7188 Q322.8594 98.3438 322.8594 99.4062 Q322.8594 100.5 322.2109 101.1953 Q321.5625 101.8906 320.25 102.1875 L320.25 103.6719 L319.5312 103.6719 L319.5312 101.75 Q320.5625 101.5 321.0938 100.9062 Q321.625 100.3125 321.625 99.4062 Q321.625 98.5938 321.1953 98.1328 Q320.7656 97.6719 320.0312 97.6719 Q319.3594 97.6719 318.9297 98.0547 Q318.5 98.4375 318.3906 99.1562 L317.8125 99.1562 L317.8125 97.6406 Z" style="fill:black; stroke:none;" /></g><g ID="r-1:3" style="fill:white; text-rendering:optimizeSpeed; stroke:white;" wurcs_mono_id="18"><polygon points=" 405 52 394 30 416 30" style="stroke:none; clip-path:url(#clipPath18);" /><rect height="22" style="clip-path:url(#clipPath18); fill:rgb(237,28,36); stroke:none;" width="22" x="394" y="30" /><rect height="22" style="clip-path:url(#clipPath18); fill:none; stroke:black;" width="22" x="394" y="30" /><polygon points=" 405 52 394 30 416 30" style="fill:none; stroke:black;" /></g><g ID="li-1:1,2" style="fill:white; text-rendering:optimizeSpeed; font-family:'Serif'; stroke:white;"><rect height="10" style="stroke:none;" width="6" x="383" y="96" /><path d="M385.1094 105.3906 Q385.1094 105.0625 385.3359 104.8359 Q385.5625 104.6094 385.8906 104.6094 Q386.2188 104.6094 386.4453 104.8359 Q386.6719 105.0625 386.6719 105.3906 Q386.6719 105.7188 386.4453 105.9453 Q386.2188 106.1719 385.8906 106.1719 Q385.5625 106.1719 385.3359 105.9453 Q385.1094 105.7188 385.1094 105.3906 ZM383.8125 97.6406 Q384.4375 97.3594 385 97.2266 Q385.5625 97.0938 386.0469 97.0938 Q387.3438 97.0938 388.1016 97.7188 Q388.8594 98.3438 388.8594 99.4062 Q388.8594 100.5 388.2109 101.1953 Q387.5625 101.8906 386.25 102.1875 L386.25 103.6719 L385.5312 103.6719 L385.5312 101.75 Q386.5625 101.5 387.0938 100.9062 Q387.625 100.3125 387.625 99.4062 Q387.625 98.5938 387.1953 98.1328 Q386.7656 97.6719 386.0312 97.6719 Q385.3594 97.6719 384.9297 98.0547 Q384.5 98.4375 384.3906 99.1562 L383.8125 99.1562 L383.8125 97.6406 Z" style="fill:black; stroke:none;" /><rect height="10" style="stroke:none;" width="6" x="369" y="96" /><path d="M371.1094 105.3906 Q371.1094 105.0625 371.3359 104.8359 Q371.5625 104.6094 371.8906 104.6094 Q372.2188 104.6094 372.4453 104.8359 Q372.6719 105.0625 372.6719 105.3906 Q372.6719 105.7188 372.4453 105.9453 Q372.2188 106.1719 371.8906 106.1719 Q371.5625 106.1719 371.3359 105.9453 Q371.1094 105.7188 371.1094 105.3906 ZM369.8125 97.6406 Q370.4375 97.3594 371 97.2266 Q371.5625 97.0938 372.0469 97.0938 Q373.3438 97.0938 374.1016 97.7188 Q374.8594 98.3438 374.8594 99.4062 Q374.8594 100.5 374.2109 101.1953 Q373.5625 101.8906 372.25 102.1875 L372.25 103.6719 L371.5312 103.6719 L371.5312 101.75 Q372.5625 101.5 373.0938 100.9062 Q373.625 100.3125 373.625 99.4062 Q373.625 98.5938 373.1953 98.1328 Q372.7656 97.6719 372.0312 97.6719 Q371.3594 97.6719 370.9297 98.0547 Q370.5 98.4375 370.3906 99.1562 L369.8125 99.1562 L369.8125 97.6406 Z" style="fill:black; stroke:none;" /></g><g ID="li-1:1,3" style="fill:white; text-rendering:optimizeSpeed; font-family:'Serif'; stroke:white;"><rect height="10" style="stroke:none;" width="6" x="394" y="69" /><path d="M396.1094 78.3906 Q396.1094 78.0625 396.3359 77.8359 Q396.5625 77.6094 396.8906 77.6094 Q397.2188 77.6094 397.4453 77.8359 Q397.6719 78.0625 397.6719 78.3906 Q397.6719 78.7188 397.4453 78.9453 Q397.2188 79.1719 396.8906 79.1719 Q396.5625 79.1719 396.3359 78.9453 Q396.1094 78.7188 396.1094 78.3906 ZM394.8125 70.6406 Q395.4375 70.3594 396 70.2266 Q396.5625 70.0938 397.0469 70.0938 Q398.3438 70.0938 399.1016 70.7188 Q399.8594 71.3438 399.8594 72.4062 Q399.8594 73.5 399.2109 74.1953 Q398.5625 74.8906 397.25 75.1875 L397.25 76.6719 L396.5312 76.6719 L396.5312 74.75 Q397.5625 74.5 398.0938 73.9062 Q398.625 73.3125 398.625 72.4062 Q398.625 71.5938 398.1953 71.1328 Q397.7656 70.6719 397.0312 70.6719 Q396.3594 70.6719 395.9297 71.0547 Q395.5 71.4375 395.3906 72.1562 L394.8125 72.1562 L394.8125 70.6406 Z" style="fill:black; stroke:none;" /><rect height="10" style="stroke:none;" width="6" x="394" y="55" /><path d="M396.1094 64.3906 Q396.1094 64.0625 396.3359 63.8359 Q396.5625 63.6094 396.8906 63.6094 Q397.2188 63.6094 397.4453 63.8359 Q397.6719 64.0625 397.6719 64.3906 Q397.6719 64.7188 397.4453 64.9453 Q397.2188 65.1719 396.8906 65.1719 Q396.5625 65.1719 396.3359 64.9453 Q396.1094 64.7188 396.1094 64.3906 ZM394.8125 56.6406 Q395.4375 56.3594 396 56.2266 Q396.5625 56.0938 397.0469 56.0938 Q398.3438 56.0938 399.1016 56.7188 Q399.8594 57.3438 399.8594 58.4062 Q399.8594 59.5 399.2109 60.1953 Q398.5625 60.8906 397.25 61.1875 L397.25 62.6719 L396.5312 62.6719 L396.5312 60.75 Q397.5625 60.5 398.0938 59.9062 Q398.625 59.3125 398.625 58.4062 Q398.625 57.5938 398.1953 57.1328 Q397.7656 56.6719 397.0312 56.6719 Q396.3594 56.6719 395.9297 57.0547 Q395.5 57.4375 395.3906 58.1562 L394.8125 58.1562 L394.8125 56.6406 Z" style="fill:black; stroke:none;" /></g></g></svg>