<svg xmlns="http://www.w3.org/2000/svg" style="fill-opacity:1; color-rendering:auto; color-interpolation:auto; text-rendering:auto; stroke:black; stroke-linecap:square; stroke-miterlimit:10; shape-rendering:auto; stroke-opacity:1; fill:black; stroke-dasharray:none; font-weight:normal; stroke-width:1; font-family:'Dialog'; font-style:normal; stroke-linejoin:miter; font-size:12px; stroke-dashoffset:0; image-rendering:auto;"><defs id="genericDefs" /><g><defs id="defs1"><clipPath clipPathUnits="userSpaceOnUse" id="clipPath1"><path d="M260 106 C260 112.0751 255.0751 117 249 117 C242.9249 117 238 112.0751 238 106 C238 99.9249 242.9249 95 249 95 C255.0751 95 260 99.9249 260 106 Z" /></clipPath><clipPath clipPathUnits="userSpaceOnUse" id="clipPath2"><path d="M208 106 C208 112.0751 203.0751 117 197 117 C190.9249 117 186 112.0751 186 106 C186 99.9249 190.9249 95 197 95 C203.0751 95 208 99.9249 208 106 Z" /></clipPath><clipPath clipPathUnits="userSpaceOnUse" id="clipPath3"><path d="M134 160 L156 160 L156 182 L134 182 L134 160 Z" /></clipPath><clipPath clipPathUnits="userSpaceOnUse" id="clipPath4"><path d="M104 197 C104 203.0751 99.0751 208 93 208 C86.9249 208 82 203.0751 82 197 C82 190.9249 86.9249 186 93 186 C99.0751 186 104 190.9249 104 197 Z" /></clipPath><clipPath clipPathUnits="userSpaceOnUse" id="clipPath5"><path d="M41 186 L52 197 L41 208 L30 197 Z" style="fill-rule:evenodd;" /></clipPath><clipPath clipPathUnits="userSpaceOnUse" id="clipPath6"><path d="M93 134 L104 145 L93 156 L82 145 Z" style="fill-rule:evenodd;" /></clipPath><clipPath clipPathUnits="userSpaceOnUse" id="clipPath7"><path d="M134 30 L156 30 L156 52 L134 52 L134 30 Z" /></clipPath><clipPath clipPathUnits="userSpaceOnUse" id="clipPath8"><path d="M104 41 C104 47.0751 99.0751 52 93 52 C86.9249 52 82 47.0751 82 41 C82 34.9249 86.9249 30 93 30 C99.0751 30 104 34.9249 104 41 Z" /></clipPath><clipPath clipPathUnits="userSpaceOnUse" id="clipPath9"><path d="M93 82 L104 104 L82 104 Z" style="fill-rule:evenodd;" /></clipPath></defs><g style="fill:white; text-rendering:optimizeSpeed; stroke:white;"><rect height="238" style="stroke:none;" width="290" x="0" y="0" /></g><g ID="l-1:1,2" style="text-rendering:optimizeSpeed;"><polygon points=" 249 106 197 106" style="fill:none;" /></g><g ID="r-1:1" style="fill:white; text-rendering:optimizeSpeed; stroke:white;" wurcs_mono_id="1"><circle cx="249" cy="106" r="11" style="clip-path:url(#clipPath1); stroke:none;" /><rect height="22" style="clip-path:url(#clipPath1); fill:rgb(0,144,188); stroke:none;" width="22" x="238" y="95" /><rect height="22" style="clip-path:url(#clipPath1); fill:none; stroke:black;" width="22" x="238" y="95" /><circle cx="249" cy="106" r="11" style="fill:none; stroke:black;" /></g><g ID="l-1:2,3" style="text-rendering:optimizeSpeed;"><polygon points=" 197 106 145 171" style="fill:none;" /></g><g ID="l-1:2,4" style="text-rendering:optimizeSpeed;"><polygon points=" 197 106 145 41" style="fill:none;" /></g><g ID="r-1:2" style="fill:white; text-rendering:optimizeSpeed; stroke:white;" wurcs_mono_id="2"><circle cx="197" cy="106" r="11" style="clip-path:url(#clipPath2); stroke:none;" /><rect height="22" style="clip-path:url(#clipPath2); fill:rgb(255,212,0); stroke:none;" width="22" x="186" y="95" /><rect height="22" style="clip-path:url(#clipPath2); fill:none; stroke:black;" width="22" x="186" y="95" /><circle cx="197" cy="106" r="11" style="fill:none; stroke:black;" /></g><g ID="l-1:3,5" style="text-rendering:optimizeSpeed;"><polygon points=" 145 171 93 197" style="fill:none;" /></g><g ID="l-1:3,6" style="text-rendering:optimizeSpeed;"><polygon points=" 145 171 93 145" style="fill:none;" /></g><g ID="r-1:3" style="fill:white; text-rendering:optimizeSpeed; stroke:white;" wurcs_mono_id="3"><rect height="22" style="clip-path:url(#clipPath3); stroke:none;" width="22" x="134" y="160" /><rect height="22" style="clip-path:url(#clipPath3); fill:rgb(0,144,188); stroke:none;" width="22" x="134" y="160" /><rect height="22" style="clip-path:url(#clipPath3); fill:none; stroke:black;" width="22" x="134" y="160" /><rect height="22" style="fill:none; stroke:black;" width="22" x="134" y="160" /></g><g ID="l-1:5,7" style="text-rendering:optimizeSpeed;"><polygon points=" 93 197 41 197" style="fill:none;" /></g><g ID="r-1:5" style="fill:white; text-rendering:optimizeSpeed; stroke:white;" wurcs_mono_id="4"><circle cx="93" cy="197" r="11" style="clip-path:url(#clipPath4); stroke:none;" /><rect height="22" style="clip-path:url(#clipPath4); fill:rgb(255,212,0); stroke:none;" width="22" x="82" y="186" /><rect height="22" style="clip-path:url(#clipPath4); fill:none; stroke:black;" width="22" x="82" y="186" /><circle cx="93" cy="197" r="11" style="fill:none; stroke:black;" /></g><g ID="r-1:7" style="fill:white; text-rendering:optimizeSpeed; stroke:white;" wurcs_mono_id="5"><polygon points=" 41 186 52 197 41 208 30 197" style="stroke:none; clip-path:url(#clipPath5);" /><rect height="22" style="clip-path:url(#clipPath5); fill:rgb(165,67,153); stroke:none;" width="22" x="30" y="186" /><rect height="22" style="clip-path:url(#clipPath5); fill:none; stroke:black;" width="22" x="30" y="186" /><polygon points=" 41 186 52 197 41 208 30 197" style="fill:none; stroke:black;" /></g><g ID="li-1:5,7" style="fill:white; text-rendering:optimizeSpeed; font-family:'Serif'; stroke:white;"><rect height="10" style="stroke:none;" width="7" x="70" y="200" /><path d="M71.1719 201.625 Q71.8594 201.3594 72.4844 201.2266 Q73.1094 201.0938 73.6562 201.0938 Q74.9531 201.0938 75.6719 201.6484 Q76.3906 202.2031 76.3906 203.1875 Q76.3906 203.9688 75.8906 204.5 Q75.3906 205.0312 74.4844 205.2188 Q75.5625 205.375 76.1562 206.0078 Q76.75 206.6406 76.75 207.6406 Q76.75 208.8594 75.9219 209.5156 Q75.0938 210.1719 73.5469 210.1719 Q72.8594 210.1719 72.2109 210.0234 Q71.5625 209.875 70.9219 209.5781 L70.9219 207.875 L71.5781 207.875 Q71.625 208.7188 72.1406 209.1562 Q72.6562 209.5938 73.5781 209.5938 Q74.4688 209.5938 74.9922 209.0703 Q75.5156 208.5469 75.5156 207.6562 Q75.5156 206.625 74.9766 206.0938 Q74.4375 205.5625 73.4062 205.5625 L72.8594 205.5625 L72.8594 204.9531 L73.1406 204.9531 Q74.1719 204.9531 74.6875 204.5312 Q75.2031 204.1094 75.2031 203.25 Q75.2031 202.4844 74.7812 202.0781 Q74.3594 201.6719 73.5625 201.6719 Q72.7656 201.6719 72.3359 202.0469 Q71.9062 202.4219 71.8281 203.1562 L71.1719 203.1562 L71.1719 201.625 Z" style="fill:black; stroke:none;" /><rect height="10" style="stroke:none;" width="6" x="57" y="200" /><path d="M59.1094 209.3906 Q59.1094 209.0625 59.3359 208.8359 Q59.5625 208.6094 59.8906 208.6094 Q60.2188 208.6094 60.4453 208.8359 Q60.6719 209.0625 60.6719 209.3906 Q60.6719 209.7188 60.4453 209.9453 Q60.2188 210.1719 59.8906 210.1719 Q59.5625 210.1719 59.3359 209.9453 Q59.1094 209.7188 59.1094 209.3906 ZM57.8125 201.6406 Q58.4375 201.3594 59 201.2266 Q59.5625 201.0938 60.0469 201.0938 Q61.3438 201.0938 62.1016 201.7188 Q62.8594 202.3438 62.8594 203.4062 Q62.8594 204.5 62.2109 205.1953 Q61.5625 205.8906 60.25 206.1875 L60.25 207.6719 L59.5312 207.6719 L59.5312 205.75 Q60.5625 205.5 61.0938 204.9062 Q61.625 204.3125 61.625 203.4062 Q61.625 202.5938 61.1953 202.1328 Q60.7656 201.6719 60.0312 201.6719 Q59.3594 201.6719 58.9297 202.0547 Q58.5 202.4375 58.3906 203.1562 L57.8125 203.1562 L57.8125 201.6406 Z" style="fill:black; stroke:none;" /></g><g ID="r-1:6" style="fill:white; text-rendering:optimizeSpeed; stroke:white;" wurcs_mono_id="6"><polygon points=" 93 134 104 145 93 156 82 145" style="stroke:none; clip-path:url(#clipPath6);" /><rect height="22" style="clip-path:url(#clipPath6); fill:rgb(165,67,153); stroke:none;" width="22" x="82" y="134" /><rect height="22" style="clip-path:url(#clipPath6); fill:none; stroke:black;" width="22" x="82" y="134" /><polygon points=" 93 134 104 145 93 156 82 145" style="fill:none; stroke:black;" /></g><g ID="li-1:3,5" style="fill:white; text-rendering:optimizeSpeed; font-family:'Serif'; stroke:white;"><rect height="10" style="stroke:none;" width="7" x="126" y="182" /><path d="M127.1719 183.625 Q127.8594 183.3594 128.4844 183.2266 Q129.1094 183.0938 129.6562 183.0938 Q130.9531 183.0938 131.6719 183.6484 Q132.3906 184.2031 132.3906 185.1875 Q132.3906 185.9688 131.8906 186.5 Q131.3906 187.0312 130.4844 187.2188 Q131.5625 187.375 132.1562 188.0078 Q132.75 188.6406 132.75 189.6406 Q132.75 190.8594 131.9219 191.5156 Q131.0938 192.1719 129.5469 192.1719 Q128.8594 192.1719 128.2109 192.0234 Q127.5625 191.875 126.9219 191.5781 L126.9219 189.875 L127.5781 189.875 Q127.625 190.7188 128.1406 191.1562 Q128.6562 191.5938 129.5781 191.5938 Q130.4688 191.5938 130.9922 191.0703 Q131.5156 190.5469 131.5156 189.6562 Q131.5156 188.625 130.9766 188.0938 Q130.4375 187.5625 129.4062 187.5625 L128.8594 187.5625 L128.8594 186.9531 L129.1406 186.9531 Q130.1719 186.9531 130.6875 186.5312 Q131.2031 186.1094 131.2031 185.25 Q131.2031 184.4844 130.7812 184.0781 Q130.3594 183.6719 129.5625 183.6719 Q128.7656 183.6719 128.3359 184.0469 Q127.9062 184.4219 127.8281 185.1562 L127.1719 185.1562 L127.1719 183.625 Z" style="fill:black; stroke:none;" /><rect height="13" style="stroke:none;" width="7" x="111" y="188" /><path d="M112.8281 200.25 Q113.2969 200.5938 114.1719 200.5938 Q115.0625 200.5938 115.5781 200.0703 Q116.0938 199.5469 116.0938 198.6562 Q116.0938 197.4219 115.5625 196.8906 Q115.0156 196.3594 114 196.3594 L113.4375 196.3594 L113.4375 195.7188 L113.7344 195.7188 Q114.4844 195.7188 115 195.2969 Q115.4219 194.9531 115.4219 194.0156 Q115.4219 193.6094 115.1406 193.1406 Q114.6875 192.375 114.1562 192.3906 Q112.8281 192.4375 112.8281 194.7812 L112.8281 200.25 ZM111.75 203.5 L111.75 194.7812 Q111.75 192.3281 113.0781 192 Q113.7656 191.8125 114.25 191.8125 Q115.3438 191.8125 116.0469 192.6719 Q116.6094 193.3594 116.6094 193.9375 Q116.6094 194.7812 116.2031 195.2656 Q115.7969 195.75 115.0625 195.9844 Q116.1406 196.1406 116.75 196.7812 Q117.3281 197.4062 117.3281 198.6328 Q117.3281 199.8594 116.5078 200.5156 Q115.6875 201.1719 114.1406 201.1719 Q113.1875 201.1719 112.8281 201.0312 L112.8281 203.5 L111.75 203.5 Z" style="fill:black; stroke:none;" /></g><g ID="li-1:3,6" style="fill:white; text-rendering:optimizeSpeed; font-family:'Serif'; stroke:white;"><rect height="10" style="stroke:none;" width="7" x="119" y="164" /><path d="M122.9219 173.5938 Q123.75 173.5938 124.1953 172.9844 Q124.6406 172.375 124.6406 171.2344 Q124.6406 170.1094 124.1953 169.5 Q123.75 168.8906 122.9219 168.8906 Q122.0938 168.8906 121.6484 169.4766 Q121.2031 170.0625 121.2031 171.1719 Q121.2031 172.3281 121.6484 172.9609 Q122.0938 173.5938 122.9219 173.5938 ZM121.0156 169.1875 Q121.4219 168.75 121.9219 168.5312 Q122.4219 168.3125 123.0625 168.3125 Q124.3594 168.3125 125.1172 169.0938 Q125.875 169.875 125.875 171.2344 Q125.875 172.5625 125.0625 173.3672 Q124.25 174.1719 122.875 174.1719 Q121.3906 174.1719 120.5938 173.0625 Q119.7969 171.9531 119.7969 169.9062 Q119.7969 167.6094 120.7422 166.3516 Q121.6875 165.0938 123.4062 165.0938 Q123.875 165.0938 124.3828 165.1797 Q124.8906 165.2656 125.4219 165.4375 L125.4219 166.8906 L124.7656 166.8906 Q124.6875 166.2969 124.3047 165.9844 Q123.9219 165.6719 123.2812 165.6719 Q122.1406 165.6719 121.5859 166.5312 Q121.0312 167.3906 121.0156 169.1875 Z" style="fill:black; stroke:none;" /><rect height="10" style="stroke:none;" width="6" x="104" y="156" /><path d="M106.1094 165.3906 Q106.1094 165.0625 106.3359 164.8359 Q106.5625 164.6094 106.8906 164.6094 Q107.2188 164.6094 107.4453 164.8359 Q107.6719 165.0625 107.6719 165.3906 Q107.6719 165.7188 107.4453 165.9453 Q107.2188 166.1719 106.8906 166.1719 Q106.5625 166.1719 106.3359 165.9453 Q106.1094 165.7188 106.1094 165.3906 ZM104.8125 157.6406 Q105.4375 157.3594 106 157.2266 Q106.5625 157.0938 107.0469 157.0938 Q108.3438 157.0938 109.1016 157.7188 Q109.8594 158.3438 109.8594 159.4062 Q109.8594 160.5 109.2109 161.1953 Q108.5625 161.8906 107.25 162.1875 L107.25 163.6719 L106.5312 163.6719 L106.5312 161.75 Q107.5625 161.5 108.0938 160.9062 Q108.625 160.3125 108.625 159.4062 Q108.625 158.5938 108.1953 158.1328 Q107.7656 157.6719 107.0312 157.6719 Q106.3594 157.6719 105.9297 158.0547 Q105.5 158.4375 105.3906 159.1562 L104.8125 159.1562 L104.8125 157.6406 Z" style="fill:black; stroke:none;" /></g><g ID="l-1:4,8" style="text-rendering:optimizeSpeed;"><polygon points=" 145 41 93 41" style="fill:none;" /></g><g ID="r-1:4" style="fill:white; text-rendering:optimizeSpeed; stroke:white;" wurcs_mono_id="7"><rect height="22" style="clip-path:url(#clipPath7); stroke:none;" width="22" x="134" y="30" /><rect height="22" style="clip-path:url(#clipPath7); fill:rgb(0,144,188); stroke:none;" width="22" x="134" y="30" /><rect height="22" style="clip-path:url(#clipPath7); fill:none; stroke:black;" width="22" x="134" y="30" /><rect height="22" style="fill:none; stroke:black;" width="22" x="134" y="30" /></g><g ID="l-1:8,9" style="text-rendering:optimizeSpeed;"><polygon points=" 93 41 93 93" style="fill:none;" /></g><g ID="r-1:8" style="fill:white; text-rendering:optimizeSpeed; stroke:white;" wurcs_mono_id="8"><circle cx="93" cy="41" r="11" style="clip-path:url(#clipPath8); stroke:none;" /><rect height="22" style="clip-path:url(#clipPath8); fill:rgb(255,212,0); stroke:none;" width="22" x="82" y="30" /><rect height="22" style="clip-path:url(#clipPath8); fill:none; stroke:black;" width="22" x="82" y="30" /><circle cx="93" cy="41" r="11" style="fill:none; stroke:black;" /></g><g ID="r-1:9" style="fill:white; text-rendering:optimizeSpeed; stroke:white;" wurcs_mono_id="9"><polygon points=" 93 82 104 104 82 104" style="stroke:none; clip-path:url(#clipPath9);" /><rect height="22" style="clip-path:url(#clipPath9); fill:rgb(237,28,36); stroke:none;" width="22" x="82" y="82" /><rect height="22" style="clip-path:url(#clipPath9); fill:none; stroke:black;" width="22" x="82" y="82" /><polygon points=" 93 82 104 104 82 104" style="fill:none; stroke:black;" /></g><g ID="li-1:8,9" style="fill:white; text-rendering:optimizeSpeed; font-family:'Serif'; stroke:white;"><rect height="10" style="stroke:none;" width="7" x="97" y="55" /><path d="M98.1719 56.625 Q98.8594 56.3594 99.4844 56.2266 Q100.1094 56.0938 100.6562 56.0938 Q101.9531 56.0938 102.6719 56.6484 Q103.3906 57.2031 103.3906 58.1875 Q103.3906 58.9688 102.8906 59.5 Q102.3906 60.0312 101.4844 60.2188 Q102.5625 60.375 103.1562 61.0078 Q103.75 61.6406 103.75 62.6406 Q103.75 63.8594 102.9219 64.5156 Q102.0938 65.1719 100.5469 65.1719 Q99.8594 65.1719 99.2109 65.0234 Q98.5625 64.875 97.9219 64.5781 L97.9219 62.875 L98.5781 62.875 Q98.625 63.7188 99.1406 64.1562 Q99.6562 64.5938 100.5781 64.5938 Q101.4688 64.5938 101.9922 64.0703 Q102.5156 63.5469 102.5156 62.6562 Q102.5156 61.625 101.9766 61.0938 Q101.4375 60.5625 100.4062 60.5625 L99.8594 60.5625 L99.8594 59.9531 L100.1406 59.9531 Q101.1719 59.9531 101.6875 59.5312 Q102.2031 59.1094 102.2031 58.25 Q102.2031 57.4844 101.7812 57.0781 Q101.3594 56.6719 100.5625 56.6719 Q99.7656 56.6719 99.3359 57.0469 Q98.9062 57.4219 98.8281 58.1562 L98.1719 58.1562 L98.1719 56.625 Z" style="fill:black; stroke:none;" /><rect height="8" style="stroke:none;" width="8" x="97" y="70" /><path d="M102.1875 76.4688 L101.9531 77.1094 Q101.7656 77.625 101.2031 77.9375 Q100.8438 78.1562 100.2031 78.1406 Q99.0469 78.1406 98.3281 77.2344 Q97.5938 76.3281 97.5938 74.8594 Q97.5938 73.4219 98.3281 72.4844 Q99.0156 71.5938 100.4531 71.6094 Q101.4531 71.6094 101.9531 72 Q102.4062 72.3438 102.5781 73.0938 L102.625 73.3125 L102.8438 72.6719 Q103.0625 72.0469 103.6562 71.75 L104.25 71.75 L104.25 72.0938 Q103.6875 72.2656 103.5 72.8125 L102.8906 74.4844 L103.2969 76.2812 Q103.5 77.2031 103.7344 77.2969 Q104.0469 77.4375 104.7812 77 L104.7812 77.7188 Q103.5938 78.4062 102.75 77.6875 Q102.375 77.3594 102.2656 76.875 L102.1875 76.4688 ZM101.9219 75.3125 L101.5625 73.5938 Q101.2656 72.2188 100.4688 72.2188 Q99.7969 72.2031 99.2812 72.9375 Q98.8594 73.5156 98.8594 74.875 Q98.8594 76.1719 99.2812 76.8281 Q99.75 77.5469 100.5312 77.5 Q101.2031 77.4375 101.6875 76 L101.9219 75.3125 Z" style="fill:black; stroke:none;" /></g><g ID="li-1:4,8" style="fill:white; text-rendering:optimizeSpeed; font-family:'Serif'; stroke:white;"><rect height="9" style="stroke:none;" width="8" x="122" y="44" /><path d="M126.1875 50.0312 L126.1875 45.375 L123.2031 50.0312 L126.1875 50.0312 ZM128.7656 53 L124.7812 53 L124.7812 52.375 L126.1875 52.375 L126.1875 50.6562 L122.375 50.6562 L122.375 50.0156 L126.2031 44.0938 L127.3594 44.0938 L127.3594 50.0312 L129.0312 50.0312 L129.0312 50.6562 L127.3594 50.6562 L127.3594 52.375 L128.7656 52.375 L128.7656 53 Z" style="fill:black; stroke:none;" /><rect height="13" style="stroke:none;" width="7" x="108" y="42" /><path d="M109.8281 54.25 Q110.2969 54.5938 111.1719 54.5938 Q112.0625 54.5938 112.5781 54.0703 Q113.0938 53.5469 113.0938 52.6562 Q113.0938 51.4219 112.5625 50.8906 Q112.0156 50.3594 111 50.3594 L110.4375 50.3594 L110.4375 49.7188 L110.7344 49.7188 Q111.4844 49.7188 112 49.2969 Q112.4219 48.9531 112.4219 48.0156 Q112.4219 47.6094 112.1406 47.1406 Q111.6875 46.375 111.1562 46.3906 Q109.8281 46.4375 109.8281 48.7812 L109.8281 54.25 ZM108.75 57.5 L108.75 48.7812 Q108.75 46.3281 110.0781 46 Q110.7656 45.8125 111.25 45.8125 Q112.3438 45.8125 113.0469 46.6719 Q113.6094 47.3594 113.6094 47.9375 Q113.6094 48.7812 113.2031 49.2656 Q112.7969 49.75 112.0625 49.9844 Q113.1406 50.1406 113.75 50.7812 Q114.3281 51.4062 114.3281 52.6328 Q114.3281 53.8594 113.5078 54.5156 Q112.6875 55.1719 111.1406 55.1719 Q110.1875 55.1719 109.8281 55.0312 L109.8281 57.5 L108.75 57.5 Z" style="fill:black; stroke:none;" /></g><g ID="li-1:2,3" style="fill:white; text-rendering:optimizeSpeed; font-family:'Serif'; stroke:white;"><rect height="10" style="stroke:none;" width="7" x="185" y="123" /><path d="M186.1719 124.625 Q186.8594 124.3594 187.4844 124.2266 Q188.1094 124.0938 188.6562 124.0938 Q189.9531 124.0938 190.6719 124.6484 Q191.3906 125.2031 191.3906 126.1875 Q191.3906 126.9688 190.8906 127.5 Q190.3906 128.0312 189.4844 128.2188 Q190.5625 128.375 191.1562 129.0078 Q191.75 129.6406 191.75 130.6406 Q191.75 131.8594 190.9219 132.5156 Q190.0938 133.1719 188.5469 133.1719 Q187.8594 133.1719 187.2109 133.0234 Q186.5625 132.875 185.9219 132.5781 L185.9219 130.875 L186.5781 130.875 Q186.625 131.7188 187.1406 132.1562 Q187.6562 132.5938 188.5781 132.5938 Q189.4688 132.5938 189.9922 132.0703 Q190.5156 131.5469 190.5156 130.6562 Q190.5156 129.625 189.9766 129.0938 Q189.4375 128.5625 188.4062 128.5625 L187.8594 128.5625 L187.8594 127.9531 L188.1406 127.9531 Q189.1719 127.9531 189.6875 127.5312 Q190.2031 127.1094 190.2031 126.25 Q190.2031 125.4844 189.7812 125.0781 Q189.3594 124.6719 188.5625 124.6719 Q187.7656 124.6719 187.3359 125.0469 Q186.9062 125.4219 186.8281 126.1562 L186.1719 126.1562 L186.1719 124.625 Z" style="fill:black; stroke:none;" /><rect height="13" style="stroke:none;" width="7" x="161" y="152" /><path d="M162.8281 164.25 Q163.2969 164.5938 164.1719 164.5938 Q165.0625 164.5938 165.5781 164.0703 Q166.0938 163.5469 166.0938 162.6562 Q166.0938 161.4219 165.5625 160.8906 Q165.0156 160.3594 164 160.3594 L163.4375 160.3594 L163.4375 159.7188 L163.7344 159.7188 Q164.4844 159.7188 165 159.2969 Q165.4219 158.9531 165.4219 158.0156 Q165.4219 157.6094 165.1406 157.1406 Q164.6875 156.375 164.1562 156.3906 Q162.8281 156.4375 162.8281 158.7812 L162.8281 164.25 ZM161.75 167.5 L161.75 158.7812 Q161.75 156.3281 163.0781 156 Q163.7656 155.8125 164.25 155.8125 Q165.3438 155.8125 166.0469 156.6719 Q166.6094 157.3594 166.6094 157.9375 Q166.6094 158.7812 166.2031 159.2656 Q165.7969 159.75 165.0625 159.9844 Q166.1406 160.1406 166.75 160.7812 Q167.3281 161.4062 167.3281 162.6328 Q167.3281 163.8594 166.5078 164.5156 Q165.6875 165.1719 164.1406 165.1719 Q163.1875 165.1719 162.8281 165.0312 L162.8281 167.5 L161.75 167.5 Z" style="fill:black; stroke:none;" /></g><g ID="li-1:2,4" style="fill:white; text-rendering:optimizeSpeed; font-family:'Serif'; stroke:white;"><rect height="10" style="stroke:none;" width="7" x="173" y="88" /><path d="M176.9219 97.5938 Q177.75 97.5938 178.1953 96.9844 Q178.6406 96.375 178.6406 95.2344 Q178.6406 94.1094 178.1953 93.5 Q177.75 92.8906 176.9219 92.8906 Q176.0938 92.8906 175.6484 93.4766 Q175.2031 94.0625 175.2031 95.1719 Q175.2031 96.3281 175.6484 96.9609 Q176.0938 97.5938 176.9219 97.5938 ZM175.0156 93.1875 Q175.4219 92.75 175.9219 92.5312 Q176.4219 92.3125 177.0625 92.3125 Q178.3594 92.3125 179.1172 93.0938 Q179.875 93.875 179.875 95.2344 Q179.875 96.5625 179.0625 97.3672 Q178.25 98.1719 176.875 98.1719 Q175.3906 98.1719 174.5938 97.0625 Q173.7969 95.9531 173.7969 93.9062 Q173.7969 91.6094 174.7422 90.3516 Q175.6875 89.0938 177.4062 89.0938 Q177.875 89.0938 178.3828 89.1797 Q178.8906 89.2656 179.4219 89.4375 L179.4219 90.8906 L178.7656 90.8906 Q178.6875 90.2969 178.3047 89.9844 Q177.9219 89.6719 177.2812 89.6719 Q176.1406 89.6719 175.5859 90.5312 Q175.0312 91.3906 175.0156 93.1875 Z" style="fill:black; stroke:none;" /><rect height="13" style="stroke:none;" width="7" x="149" y="56" /><path d="M150.8281 68.25 Q151.2969 68.5938 152.1719 68.5938 Q153.0625 68.5938 153.5781 68.0703 Q154.0938 67.5469 154.0938 66.6562 Q154.0938 65.4219 153.5625 64.8906 Q153.0156 64.3594 152 64.3594 L151.4375 64.3594 L151.4375 63.7188 L151.7344 63.7188 Q152.4844 63.7188 153 63.2969 Q153.4219 62.9531 153.4219 62.0156 Q153.4219 61.6094 153.1406 61.1406 Q152.6875 60.375 152.1562 60.3906 Q150.8281 60.4375 150.8281 62.7812 L150.8281 68.25 ZM149.75 71.5 L149.75 62.7812 Q149.75 60.3281 151.0781 60 Q151.7656 59.8125 152.25 59.8125 Q153.3438 59.8125 154.0469 60.6719 Q154.6094 61.3594 154.6094 61.9375 Q154.6094 62.7812 154.2031 63.2656 Q153.7969 63.75 153.0625 63.9844 Q154.1406 64.1406 154.75 64.7812 Q155.3281 65.4062 155.3281 66.6328 Q155.3281 67.8594 154.5078 68.5156 Q153.6875 69.1719 152.1406 69.1719 Q151.1875 69.1719 150.8281 69.0312 L150.8281 71.5 L149.75 71.5 Z" style="fill:black; stroke:none;" /></g><g ID="li-1:1,2" style="fill:white; text-rendering:optimizeSpeed; font-family:'Serif'; stroke:white;"><rect height="9" style="stroke:none;" width="8" x="226" y="109" /><path d="M230.1875 115.0312 L230.1875 110.375 L227.2031 115.0312 L230.1875 115.0312 ZM232.7656 118 L228.7812 118 L228.7812 117.375 L230.1875 117.375 L230.1875 115.6562 L226.375 115.6562 L226.375 115.0156 L230.2031 109.0938 L231.3594 109.0938 L231.3594 115.0312 L233.0312 115.0312 L233.0312 115.6562 L231.3594 115.6562 L231.3594 117.375 L232.7656 117.375 L232.7656 118 Z" style="fill:black; stroke:none;" /><rect height="13" style="stroke:none;" width="7" x="212" y="107" /><path d="M213.8281 119.25 Q214.2969 119.5938 215.1719 119.5938 Q216.0625 119.5938 216.5781 119.0703 Q217.0938 118.5469 217.0938 117.6562 Q217.0938 116.4219 216.5625 115.8906 Q216.0156 115.3594 215 115.3594 L214.4375 115.3594 L214.4375 114.7188 L214.7344 114.7188 Q215.4844 114.7188 216 114.2969 Q216.4219 113.9531 216.4219 113.0156 Q216.4219 112.6094 216.1406 112.1406 Q215.6875 111.375 215.1562 111.3906 Q213.8281 111.4375 213.8281 113.7812 L213.8281 119.25 ZM212.75 122.5 L212.75 113.7812 Q212.75 111.3281 214.0781 111 Q214.7656 110.8125 215.25 110.8125 Q216.3438 110.8125 217.0469 111.6719 Q217.6094 112.3594 217.6094 112.9375 Q217.6094 113.7812 217.2031 114.2656 Q216.7969 114.75 216.0625 114.9844 Q217.1406 115.1406 217.75 115.7812 Q218.3281 116.4062 218.3281 117.6328 Q218.3281 118.8594 217.5078 119.5156 Q216.6875 120.1719 215.1406 120.1719 Q214.1875 120.1719 213.8281 120.0312 L213.8281 122.5 L212.75 122.5 Z" style="fill:black; stroke:none;" /></g></g></svg>