<svg xmlns="http://www.w3.org/2000/svg" style="fill-opacity:1; color-rendering:auto; color-interpolation:auto; text-rendering:auto; stroke:black; stroke-linecap:square; stroke-miterlimit:10; shape-rendering:auto; stroke-opacity:1; fill:black; stroke-dasharray:none; font-weight:normal; stroke-width:1; font-family:'Dialog'; font-style:normal; stroke-linejoin:miter; font-size:12px; stroke-dashoffset:0; image-rendering:auto;"><defs id="genericDefs" /><g><defs id="defs1"><clipPath clipPathUnits="userSpaceOnUse" id="clipPath1"><path d="M312 171 C312 177.0751 307.0751 182 301 182 C294.9249 182 290 177.0751 290 171 C290 164.9249 294.9249 160 301 160 C307.0751 160 312 164.9249 312 171 Z" /></clipPath><clipPath clipPathUnits="userSpaceOnUse" id="clipPath2"><path d="M260 171 C260 177.0751 255.0751 182 249 182 C242.9249 182 238 177.0751 238 171 C238 164.9249 242.9249 160 249 160 C255.0751 160 260 164.9249 260 171 Z" /></clipPath><clipPath clipPathUnits="userSpaceOnUse" id="clipPath3"><path d="M186 238 L208 238 L208 260 L186 260 L186 238 Z" /></clipPath><clipPath clipPathUnits="userSpaceOnUse" id="clipPath4"><path d="M156 249 C156 255.0751 151.0751 260 145 260 C138.9249 260 134 255.0751 134 249 C134 242.9249 138.9249 238 145 238 C151.0751 238 156 242.9249 156 249 Z" /></clipPath><clipPath clipPathUnits="userSpaceOnUse" id="clipPath5"><path d="M197 208 L186 186 L208 186 Z" style="fill-rule:evenodd;" /></clipPath><clipPath clipPathUnits="userSpaceOnUse" id="clipPath6"><path d="M186 82 L208 82 L208 104 L186 104 L186 82 Z" /></clipPath><clipPath clipPathUnits="userSpaceOnUse" id="clipPath7"><path d="M197 134 L208 156 L186 156 Z" style="fill-rule:evenodd;" /></clipPath><clipPath clipPathUnits="userSpaceOnUse" id="clipPath8"><path d="M156 93 C156 99.0751 151.0751 104 145 104 C138.9249 104 134 99.0751 134 93 C134 86.9249 138.9249 82 145 82 C151.0751 82 156 86.9249 156 93 Z" /></clipPath><clipPath clipPathUnits="userSpaceOnUse" id="clipPath9"><path d="M82 82 L104 82 L104 104 L82 104 L82 82 Z" /></clipPath><clipPath clipPathUnits="userSpaceOnUse" id="clipPath10"><path d="M52 93 C52 99.0751 47.0751 104 41 104 C34.9249 104 30 99.0751 30 93 C30 86.9249 34.9249 82 41 82 C47.0751 82 52 86.9249 52 93 Z" /></clipPath><clipPath clipPathUnits="userSpaceOnUse" id="clipPath11"><path d="M93 52 L82 30 L104 30 Z" style="fill-rule:evenodd;" /></clipPath></defs><g style="fill:white; text-rendering:optimizeSpeed; stroke:white;"><rect height="290" style="stroke:none;" width="342" x="0" y="0" /></g><g ID="l-1:1,2" style="text-rendering:optimizeSpeed;"><polygon points=" 301 171 249 171" style="fill:none;" /></g><g ID="r-1:1" style="fill:white; text-rendering:optimizeSpeed; stroke:white;" wurcs_mono_id="1"><circle cx="301" cy="171" r="11" style="clip-path:url(#clipPath1); stroke:none;" /><rect height="22" style="clip-path:url(#clipPath1); fill:rgb(0,144,188); stroke:none;" width="22" x="290" y="160" /><rect height="22" style="clip-path:url(#clipPath1); fill:none; stroke:black;" width="22" x="290" y="160" /><circle cx="301" cy="171" r="11" style="fill:none; stroke:black;" /></g><g ID="l-1:2,3" style="text-rendering:optimizeSpeed;"><polygon points=" 249 171 197 249" style="fill:none;" /></g><g ID="l-1:2,4" style="text-rendering:optimizeSpeed;"><polygon points=" 249 171 197 93" style="fill:none;" /></g><g ID="r-1:2" style="fill:white; text-rendering:optimizeSpeed; stroke:white;" wurcs_mono_id="2"><circle cx="249" cy="171" r="11" style="clip-path:url(#clipPath2); stroke:none;" /><rect height="22" style="clip-path:url(#clipPath2); fill:rgb(255,212,0); stroke:none;" width="22" x="238" y="160" /><rect height="22" style="clip-path:url(#clipPath2); fill:none; stroke:black;" width="22" x="238" y="160" /><circle cx="249" cy="171" r="11" style="fill:none; stroke:black;" /></g><g ID="l-1:3,5" style="text-rendering:optimizeSpeed;"><polygon points=" 197 249 145 249" style="fill:none;" /></g><g ID="l-1:3,6" style="text-rendering:optimizeSpeed;"><polygon points=" 197 249 197 197" style="fill:none;" /></g><g ID="r-1:3" style="fill:white; text-rendering:optimizeSpeed; stroke:white;" wurcs_mono_id="3"><rect height="22" style="clip-path:url(#clipPath3); stroke:none;" width="22" x="186" y="238" /><rect height="22" style="clip-path:url(#clipPath3); fill:rgb(0,144,188); stroke:none;" width="22" x="186" y="238" /><rect height="22" style="clip-path:url(#clipPath3); fill:none; stroke:black;" width="22" x="186" y="238" /><rect height="22" style="fill:none; stroke:black;" width="22" x="186" y="238" /></g><g ID="r-1:5" style="fill:white; text-rendering:optimizeSpeed; stroke:white;" wurcs_mono_id="4"><circle cx="145" cy="249" r="11" style="clip-path:url(#clipPath4); stroke:none;" /><rect height="22" style="clip-path:url(#clipPath4); fill:rgb(255,212,0); stroke:none;" width="22" x="134" y="238" /><rect height="22" style="clip-path:url(#clipPath4); fill:none; stroke:black;" width="22" x="134" y="238" /><circle cx="145" cy="249" r="11" style="fill:none; stroke:black;" /></g><g ID="r-1:6" style="fill:white; text-rendering:optimizeSpeed; stroke:white;" wurcs_mono_id="5"><polygon points=" 197 208 186 186 208 186" style="stroke:none; clip-path:url(#clipPath5);" /><rect height="22" style="clip-path:url(#clipPath5); fill:rgb(237,28,36); stroke:none;" width="22" x="186" y="186" /><rect height="22" style="clip-path:url(#clipPath5); fill:none; stroke:black;" width="22" x="186" y="186" /><polygon points=" 197 208 186 186 208 186" style="fill:none; stroke:black;" /></g><g ID="li-1:3,5" style="fill:white; text-rendering:optimizeSpeed; font-family:'Serif'; stroke:white;"><rect height="10" style="stroke:none;" width="7" x="174" y="252" /><path d="M175.1719 253.625 Q175.8594 253.3594 176.4844 253.2266 Q177.1094 253.0938 177.6562 253.0938 Q178.9531 253.0938 179.6719 253.6484 Q180.3906 254.2031 180.3906 255.1875 Q180.3906 255.9688 179.8906 256.5 Q179.3906 257.0312 178.4844 257.2188 Q179.5625 257.375 180.1562 258.0078 Q180.75 258.6406 180.75 259.6406 Q180.75 260.8594 179.9219 261.5156 Q179.0938 262.1719 177.5469 262.1719 Q176.8594 262.1719 176.2109 262.0234 Q175.5625 261.875 174.9219 261.5781 L174.9219 259.875 L175.5781 259.875 Q175.625 260.7188 176.1406 261.1562 Q176.6562 261.5938 177.5781 261.5938 Q178.4688 261.5938 178.9922 261.0703 Q179.5156 260.5469 179.5156 259.6562 Q179.5156 258.625 178.9766 258.0938 Q178.4375 257.5625 177.4062 257.5625 L176.8594 257.5625 L176.8594 256.9531 L177.1406 256.9531 Q178.1719 256.9531 178.6875 256.5312 Q179.2031 256.1094 179.2031 255.25 Q179.2031 254.4844 178.7812 254.0781 Q178.3594 253.6719 177.5625 253.6719 Q176.7656 253.6719 176.3359 254.0469 Q175.9062 254.4219 175.8281 255.1562 L175.1719 255.1562 L175.1719 253.625 Z" style="fill:black; stroke:none;" /><rect height="13" style="stroke:none;" width="7" x="160" y="250" /><path d="M161.8281 262.25 Q162.2969 262.5938 163.1719 262.5938 Q164.0625 262.5938 164.5781 262.0703 Q165.0938 261.5469 165.0938 260.6562 Q165.0938 259.4219 164.5625 258.8906 Q164.0156 258.3594 163 258.3594 L162.4375 258.3594 L162.4375 257.7188 L162.7344 257.7188 Q163.4844 257.7188 164 257.2969 Q164.4219 256.9531 164.4219 256.0156 Q164.4219 255.6094 164.1406 255.1406 Q163.6875 254.375 163.1562 254.3906 Q161.8281 254.4375 161.8281 256.7812 L161.8281 262.25 ZM160.75 265.5 L160.75 256.7812 Q160.75 254.3281 162.0781 254 Q162.7656 253.8125 163.25 253.8125 Q164.3438 253.8125 165.0469 254.6719 Q165.6094 255.3594 165.6094 255.9375 Q165.6094 256.7812 165.2031 257.2656 Q164.7969 257.75 164.0625 257.9844 Q165.1406 258.1406 165.75 258.7812 Q166.3281 259.4062 166.3281 260.6328 Q166.3281 261.8594 165.5078 262.5156 Q164.6875 263.1719 163.1406 263.1719 Q162.1875 263.1719 161.8281 263.0312 L161.8281 265.5 L160.75 265.5 Z" style="fill:black; stroke:none;" /></g><g ID="li-1:3,6" style="fill:white; text-rendering:optimizeSpeed; font-family:'Serif'; stroke:white;"><rect height="9" style="stroke:none;" width="8" x="185" y="225" /><path d="M189.1875 231.0312 L189.1875 226.375 L186.2031 231.0312 L189.1875 231.0312 ZM191.7656 234 L187.7812 234 L187.7812 233.375 L189.1875 233.375 L189.1875 231.6562 L185.375 231.6562 L185.375 231.0156 L189.2031 225.0938 L190.3594 225.0938 L190.3594 231.0312 L192.0312 231.0312 L192.0312 231.6562 L190.3594 231.6562 L190.3594 233.375 L191.7656 233.375 L191.7656 234 Z" style="fill:black; stroke:none;" /><rect height="8" style="stroke:none;" width="8" x="185" y="212" /><path d="M190.1875 218.4688 L189.9531 219.1094 Q189.7656 219.625 189.2031 219.9375 Q188.8438 220.1562 188.2031 220.1406 Q187.0469 220.1406 186.3281 219.2344 Q185.5938 218.3281 185.5938 216.8594 Q185.5938 215.4219 186.3281 214.4844 Q187.0156 213.5938 188.4531 213.6094 Q189.4531 213.6094 189.9531 214 Q190.4062 214.3438 190.5781 215.0938 L190.625 215.3125 L190.8438 214.6719 Q191.0625 214.0469 191.6562 213.75 L192.25 213.75 L192.25 214.0938 Q191.6875 214.2656 191.5 214.8125 L190.8906 216.4844 L191.2969 218.2812 Q191.5 219.2031 191.7344 219.2969 Q192.0469 219.4375 192.7812 219 L192.7812 219.7188 Q191.5938 220.4062 190.75 219.6875 Q190.375 219.3594 190.2656 218.875 L190.1875 218.4688 ZM189.9219 217.3125 L189.5625 215.5938 Q189.2656 214.2188 188.4688 214.2188 Q187.7969 214.2031 187.2812 214.9375 Q186.8594 215.5156 186.8594 216.875 Q186.8594 218.1719 187.2812 218.8281 Q187.75 219.5469 188.5312 219.5 Q189.2031 219.4375 189.6875 218 L189.9219 217.3125 Z" style="fill:black; stroke:none;" /></g><g ID="l-1:4,7" style="text-rendering:optimizeSpeed;"><polygon points=" 197 93 197 145" style="fill:none;" /></g><g ID="l-1:4,8" style="text-rendering:optimizeSpeed;"><polygon points=" 197 93 145 93" style="fill:none;" /></g><g ID="r-1:4" style="fill:white; text-rendering:optimizeSpeed; stroke:white;" wurcs_mono_id="6"><rect height="22" style="clip-path:url(#clipPath6); stroke:none;" width="22" x="186" y="82" /><rect height="22" style="clip-path:url(#clipPath6); fill:rgb(0,144,188); stroke:none;" width="22" x="186" y="82" /><rect height="22" style="clip-path:url(#clipPath6); fill:none; stroke:black;" width="22" x="186" y="82" /><rect height="22" style="fill:none; stroke:black;" width="22" x="186" y="82" /></g><g ID="r-1:7" style="fill:white; text-rendering:optimizeSpeed; stroke:white;" wurcs_mono_id="7"><polygon points=" 197 134 208 156 186 156" style="stroke:none; clip-path:url(#clipPath7);" /><rect height="22" style="clip-path:url(#clipPath7); fill:rgb(237,28,36); stroke:none;" width="22" x="186" y="134" /><rect height="22" style="clip-path:url(#clipPath7); fill:none; stroke:black;" width="22" x="186" y="134" /><polygon points=" 197 134 208 156 186 156" style="fill:none; stroke:black;" /></g><g ID="l-1:8,9" style="text-rendering:optimizeSpeed;"><polygon points=" 145 93 93 93" style="fill:none;" /></g><g ID="r-1:8" style="fill:white; text-rendering:optimizeSpeed; stroke:white;" wurcs_mono_id="8"><circle cx="145" cy="93" r="11" style="clip-path:url(#clipPath8); stroke:none;" /><rect height="22" style="clip-path:url(#clipPath8); fill:rgb(255,212,0); stroke:none;" width="22" x="134" y="82" /><rect height="22" style="clip-path:url(#clipPath8); fill:none; stroke:black;" width="22" x="134" y="82" /><circle cx="145" cy="93" r="11" style="fill:none; stroke:black;" /></g><g ID="l-1:9,10" style="text-rendering:optimizeSpeed;"><polygon points=" 93 93 41 93" style="fill:none;" /></g><g ID="l-1:9,11" style="text-rendering:optimizeSpeed;"><polygon points=" 93 93 93 41" style="fill:none;" /></g><g ID="r-1:9" style="fill:white; text-rendering:optimizeSpeed; stroke:white;" wurcs_mono_id="9"><rect height="22" style="clip-path:url(#clipPath9); stroke:none;" width="22" x="82" y="82" /><rect height="22" style="clip-path:url(#clipPath9); fill:rgb(0,144,188); stroke:none;" width="22" x="82" y="82" /><rect height="22" style="clip-path:url(#clipPath9); fill:none; stroke:black;" width="22" x="82" y="82" /><rect height="22" style="fill:none; stroke:black;" width="22" x="82" y="82" /></g><g ID="r-1:10" style="fill:white; text-rendering:optimizeSpeed; stroke:white;" wurcs_mono_id="10"><circle cx="41" cy="93" r="11" style="clip-path:url(#clipPath10); stroke:none;" /><rect height="22" style="clip-path:url(#clipPath10); fill:rgb(255,212,0); stroke:none;" width="22" x="30" y="82" /><rect height="22" style="clip-path:url(#clipPath10); fill:none; stroke:black;" width="22" x="30" y="82" /><circle cx="41" cy="93" r="11" style="fill:none; stroke:black;" /></g><g ID="r-1:11" style="fill:white; text-rendering:optimizeSpeed; stroke:white;" wurcs_mono_id="11"><polygon points=" 93 52 82 30 104 30" style="stroke:none; clip-path:url(#clipPath11);" /><rect height="22" style="clip-path:url(#clipPath11); fill:rgb(237,28,36); stroke:none;" width="22" x="82" y="30" /><rect height="22" style="clip-path:url(#clipPath11); fill:none; stroke:black;" width="22" x="82" y="30" /><polygon points=" 93 52 82 30 104 30" style="fill:none; stroke:black;" /></g><g ID="li-1:9,10" style="fill:white; text-rendering:optimizeSpeed; font-family:'Serif'; stroke:white;"><rect height="10" style="stroke:none;" width="7" x="70" y="96" /><path d="M71.1719 97.625 Q71.8594 97.3594 72.4844 97.2266 Q73.1094 97.0938 73.6562 97.0938 Q74.9531 97.0938 75.6719 97.6484 Q76.3906 98.2031 76.3906 99.1875 Q76.3906 99.9688 75.8906 100.5 Q75.3906 101.0312 74.4844 101.2188 Q75.5625 101.375 76.1562 102.0078 Q76.75 102.6406 76.75 103.6406 Q76.75 104.8594 75.9219 105.5156 Q75.0938 106.1719 73.5469 106.1719 Q72.8594 106.1719 72.2109 106.0234 Q71.5625 105.875 70.9219 105.5781 L70.9219 103.875 L71.5781 103.875 Q71.625 104.7188 72.1406 105.1562 Q72.6562 105.5938 73.5781 105.5938 Q74.4688 105.5938 74.9922 105.0703 Q75.5156 104.5469 75.5156 103.6562 Q75.5156 102.625 74.9766 102.0938 Q74.4375 101.5625 73.4062 101.5625 L72.8594 101.5625 L72.8594 100.9531 L73.1406 100.9531 Q74.1719 100.9531 74.6875 100.5312 Q75.2031 100.1094 75.2031 99.25 Q75.2031 98.4844 74.7812 98.0781 Q74.3594 97.6719 73.5625 97.6719 Q72.7656 97.6719 72.3359 98.0469 Q71.9062 98.4219 71.8281 99.1562 L71.1719 99.1562 L71.1719 97.625 Z" style="fill:black; stroke:none;" /><rect height="13" style="stroke:none;" width="7" x="56" y="94" /><path d="M57.8281 106.25 Q58.2969 106.5938 59.1719 106.5938 Q60.0625 106.5938 60.5781 106.0703 Q61.0938 105.5469 61.0938 104.6562 Q61.0938 103.4219 60.5625 102.8906 Q60.0156 102.3594 59 102.3594 L58.4375 102.3594 L58.4375 101.7188 L58.7344 101.7188 Q59.4844 101.7188 60 101.2969 Q60.4219 100.9531 60.4219 100.0156 Q60.4219 99.6094 60.1406 99.1406 Q59.6875 98.375 59.1562 98.3906 Q57.8281 98.4375 57.8281 100.7812 L57.8281 106.25 ZM56.75 109.5 L56.75 100.7812 Q56.75 98.3281 58.0781 98 Q58.7656 97.8125 59.25 97.8125 Q60.3438 97.8125 61.0469 98.6719 Q61.6094 99.3594 61.6094 99.9375 Q61.6094 100.7812 61.2031 101.2656 Q60.7969 101.75 60.0625 101.9844 Q61.1406 102.1406 61.75 102.7812 Q62.3281 103.4062 62.3281 104.6328 Q62.3281 105.8594 61.5078 106.5156 Q60.6875 107.1719 59.1406 107.1719 Q58.1875 107.1719 57.8281 107.0312 L57.8281 109.5 L56.75 109.5 Z" style="fill:black; stroke:none;" /></g><g ID="li-1:9,11" style="fill:white; text-rendering:optimizeSpeed; font-family:'Serif'; stroke:white;"><rect height="9" style="stroke:none;" width="8" x="81" y="69" /><path d="M85.1875 75.0312 L85.1875 70.375 L82.2031 75.0312 L85.1875 75.0312 ZM87.7656 78 L83.7812 78 L83.7812 77.375 L85.1875 77.375 L85.1875 75.6562 L81.375 75.6562 L81.375 75.0156 L85.2031 69.0938 L86.3594 69.0938 L86.3594 75.0312 L88.0312 75.0312 L88.0312 75.6562 L86.3594 75.6562 L86.3594 77.375 L87.7656 77.375 L87.7656 78 Z" style="fill:black; stroke:none;" /><rect height="8" style="stroke:none;" width="8" x="81" y="56" /><path d="M86.1875 62.4688 L85.9531 63.1094 Q85.7656 63.625 85.2031 63.9375 Q84.8438 64.1562 84.2031 64.1406 Q83.0469 64.1406 82.3281 63.2344 Q81.5938 62.3281 81.5938 60.8594 Q81.5938 59.4219 82.3281 58.4844 Q83.0156 57.5938 84.4531 57.6094 Q85.4531 57.6094 85.9531 58 Q86.4062 58.3438 86.5781 59.0938 L86.625 59.3125 L86.8438 58.6719 Q87.0625 58.0469 87.6562 57.75 L88.25 57.75 L88.25 58.0938 Q87.6875 58.2656 87.5 58.8125 L86.8906 60.4844 L87.2969 62.2812 Q87.5 63.2031 87.7344 63.2969 Q88.0469 63.4375 88.7812 63 L88.7812 63.7188 Q87.5938 64.4062 86.75 63.6875 Q86.375 63.3594 86.2656 62.875 L86.1875 62.4688 ZM85.9219 61.3125 L85.5625 59.5938 Q85.2656 58.2188 84.4688 58.2188 Q83.7969 58.2031 83.2812 58.9375 Q82.8594 59.5156 82.8594 60.875 Q82.8594 62.1719 83.2812 62.8281 Q83.75 63.5469 84.5312 63.5 Q85.2031 63.4375 85.6875 62 L85.9219 61.3125 Z" style="fill:black; stroke:none;" /></g><g ID="li-1:8,9" style="fill:white; text-rendering:optimizeSpeed; font-family:'Serif'; stroke:white;"><rect height="10" style="stroke:none;" width="7" x="122" y="96" /><path d="M123.1719 97.625 Q123.8594 97.3594 124.4844 97.2266 Q125.1094 97.0938 125.6562 97.0938 Q126.9531 97.0938 127.6719 97.6484 Q128.3906 98.2031 128.3906 99.1875 Q128.3906 99.9688 127.8906 100.5 Q127.3906 101.0312 126.4844 101.2188 Q127.5625 101.375 128.1562 102.0078 Q128.75 102.6406 128.75 103.6406 Q128.75 104.8594 127.9219 105.5156 Q127.0938 106.1719 125.5469 106.1719 Q124.8594 106.1719 124.2109 106.0234 Q123.5625 105.875 122.9219 105.5781 L122.9219 103.875 L123.5781 103.875 Q123.625 104.7188 124.1406 105.1562 Q124.6562 105.5938 125.5781 105.5938 Q126.4688 105.5938 126.9922 105.0703 Q127.5156 104.5469 127.5156 103.6562 Q127.5156 102.625 126.9766 102.0938 Q126.4375 101.5625 125.4062 101.5625 L124.8594 101.5625 L124.8594 100.9531 L125.1406 100.9531 Q126.1719 100.9531 126.6875 100.5312 Q127.2031 100.1094 127.2031 99.25 Q127.2031 98.4844 126.7812 98.0781 Q126.3594 97.6719 125.5625 97.6719 Q124.7656 97.6719 124.3359 98.0469 Q123.9062 98.4219 123.8281 99.1562 L123.1719 99.1562 L123.1719 97.625 Z" style="fill:black; stroke:none;" /><rect height="13" style="stroke:none;" width="7" x="108" y="94" /><path d="M109.8281 106.25 Q110.2969 106.5938 111.1719 106.5938 Q112.0625 106.5938 112.5781 106.0703 Q113.0938 105.5469 113.0938 104.6562 Q113.0938 103.4219 112.5625 102.8906 Q112.0156 102.3594 111 102.3594 L110.4375 102.3594 L110.4375 101.7188 L110.7344 101.7188 Q111.4844 101.7188 112 101.2969 Q112.4219 100.9531 112.4219 100.0156 Q112.4219 99.6094 112.1406 99.1406 Q111.6875 98.375 111.1562 98.3906 Q109.8281 98.4375 109.8281 100.7812 L109.8281 106.25 ZM108.75 109.5 L108.75 100.7812 Q108.75 98.3281 110.0781 98 Q110.7656 97.8125 111.25 97.8125 Q112.3438 97.8125 113.0469 98.6719 Q113.6094 99.3594 113.6094 99.9375 Q113.6094 100.7812 113.2031 101.2656 Q112.7969 101.75 112.0625 101.9844 Q113.1406 102.1406 113.75 102.7812 Q114.3281 103.4062 114.3281 104.6328 Q114.3281 105.8594 113.5078 106.5156 Q112.6875 107.1719 111.1406 107.1719 Q110.1875 107.1719 109.8281 107.0312 L109.8281 109.5 L108.75 109.5 Z" style="fill:black; stroke:none;" /></g><g ID="li-1:4,7" style="fill:white; text-rendering:optimizeSpeed; font-family:'Serif'; stroke:white;"><rect height="10" style="stroke:none;" width="7" x="201" y="107" /><path d="M202.1719 108.625 Q202.8594 108.3594 203.4844 108.2266 Q204.1094 108.0938 204.6562 108.0938 Q205.9531 108.0938 206.6719 108.6484 Q207.3906 109.2031 207.3906 110.1875 Q207.3906 110.9688 206.8906 111.5 Q206.3906 112.0312 205.4844 112.2188 Q206.5625 112.375 207.1562 113.0078 Q207.75 113.6406 207.75 114.6406 Q207.75 115.8594 206.9219 116.5156 Q206.0938 117.1719 204.5469 117.1719 Q203.8594 117.1719 203.2109 117.0234 Q202.5625 116.875 201.9219 116.5781 L201.9219 114.875 L202.5781 114.875 Q202.625 115.7188 203.1406 116.1562 Q203.6562 116.5938 204.5781 116.5938 Q205.4688 116.5938 205.9922 116.0703 Q206.5156 115.5469 206.5156 114.6562 Q206.5156 113.625 205.9766 113.0938 Q205.4375 112.5625 204.4062 112.5625 L203.8594 112.5625 L203.8594 111.9531 L204.1406 111.9531 Q205.1719 111.9531 205.6875 111.5312 Q206.2031 111.1094 206.2031 110.25 Q206.2031 109.4844 205.7812 109.0781 Q205.3594 108.6719 204.5625 108.6719 Q203.7656 108.6719 203.3359 109.0469 Q202.9062 109.4219 202.8281 110.1562 L202.1719 110.1562 L202.1719 108.625 Z" style="fill:black; stroke:none;" /><rect height="8" style="stroke:none;" width="8" x="201" y="122" /><path d="M206.1875 128.4688 L205.9531 129.1094 Q205.7656 129.625 205.2031 129.9375 Q204.8438 130.1562 204.2031 130.1406 Q203.0469 130.1406 202.3281 129.2344 Q201.5938 128.3281 201.5938 126.8594 Q201.5938 125.4219 202.3281 124.4844 Q203.0156 123.5938 204.4531 123.6094 Q205.4531 123.6094 205.9531 124 Q206.4062 124.3438 206.5781 125.0938 L206.625 125.3125 L206.8438 124.6719 Q207.0625 124.0469 207.6562 123.75 L208.25 123.75 L208.25 124.0938 Q207.6875 124.2656 207.5 124.8125 L206.8906 126.4844 L207.2969 128.2812 Q207.5 129.2031 207.7344 129.2969 Q208.0469 129.4375 208.7812 129 L208.7812 129.7188 Q207.5938 130.4062 206.75 129.6875 Q206.375 129.3594 206.2656 128.875 L206.1875 128.4688 ZM205.9219 127.3125 L205.5625 125.5938 Q205.2656 124.2188 204.4688 124.2188 Q203.7969 124.2031 203.2812 124.9375 Q202.8594 125.5156 202.8594 126.875 Q202.8594 128.1719 203.2812 128.8281 Q203.75 129.5469 204.5312 129.5 Q205.2031 129.4375 205.6875 128 L205.9219 127.3125 Z" style="fill:black; stroke:none;" /></g><g ID="li-1:4,8" style="fill:white; text-rendering:optimizeSpeed; font-family:'Serif'; stroke:white;"><rect height="9" style="stroke:none;" width="8" x="174" y="96" /><path d="M178.1875 102.0312 L178.1875 97.375 L175.2031 102.0312 L178.1875 102.0312 ZM180.7656 105 L176.7812 105 L176.7812 104.375 L178.1875 104.375 L178.1875 102.6562 L174.375 102.6562 L174.375 102.0156 L178.2031 96.0938 L179.3594 96.0938 L179.3594 102.0312 L181.0312 102.0312 L181.0312 102.6562 L179.3594 102.6562 L179.3594 104.375 L180.7656 104.375 L180.7656 105 Z" style="fill:black; stroke:none;" /><rect height="13" style="stroke:none;" width="7" x="160" y="94" /><path d="M161.8281 106.25 Q162.2969 106.5938 163.1719 106.5938 Q164.0625 106.5938 164.5781 106.0703 Q165.0938 105.5469 165.0938 104.6562 Q165.0938 103.4219 164.5625 102.8906 Q164.0156 102.3594 163 102.3594 L162.4375 102.3594 L162.4375 101.7188 L162.7344 101.7188 Q163.4844 101.7188 164 101.2969 Q164.4219 100.9531 164.4219 100.0156 Q164.4219 99.6094 164.1406 99.1406 Q163.6875 98.375 163.1562 98.3906 Q161.8281 98.4375 161.8281 100.7812 L161.8281 106.25 ZM160.75 109.5 L160.75 100.7812 Q160.75 98.3281 162.0781 98 Q162.7656 97.8125 163.25 97.8125 Q164.3438 97.8125 165.0469 98.6719 Q165.6094 99.3594 165.6094 99.9375 Q165.6094 100.7812 165.2031 101.2656 Q164.7969 101.75 164.0625 101.9844 Q165.1406 102.1406 165.75 102.7812 Q166.3281 103.4062 166.3281 104.6328 Q166.3281 105.8594 165.5078 106.5156 Q164.6875 107.1719 163.1406 107.1719 Q162.1875 107.1719 161.8281 107.0312 L161.8281 109.5 L160.75 109.5 Z" style="fill:black; stroke:none;" /></g><g ID="li-1:2,3" style="fill:white; text-rendering:optimizeSpeed; font-family:'Serif'; stroke:white;"><rect height="10" style="stroke:none;" width="7" x="240" y="188" /><path d="M241.1719 189.625 Q241.8594 189.3594 242.4844 189.2266 Q243.1094 189.0938 243.6562 189.0938 Q244.9531 189.0938 245.6719 189.6484 Q246.3906 190.2031 246.3906 191.1875 Q246.3906 191.9688 245.8906 192.5 Q245.3906 193.0312 244.4844 193.2188 Q245.5625 193.375 246.1562 194.0078 Q246.75 194.6406 246.75 195.6406 Q246.75 196.8594 245.9219 197.5156 Q245.0938 198.1719 243.5469 198.1719 Q242.8594 198.1719 242.2109 198.0234 Q241.5625 197.875 240.9219 197.5781 L240.9219 195.875 L241.5781 195.875 Q241.625 196.7188 242.1406 197.1562 Q242.6562 197.5938 243.5781 197.5938 Q244.4688 197.5938 244.9922 197.0703 Q245.5156 196.5469 245.5156 195.6562 Q245.5156 194.625 244.9766 194.0938 Q244.4375 193.5625 243.4062 193.5625 L242.8594 193.5625 L242.8594 192.9531 L243.1406 192.9531 Q244.1719 192.9531 244.6875 192.5312 Q245.2031 192.1094 245.2031 191.25 Q245.2031 190.4844 244.7812 190.0781 Q244.3594 189.6719 243.5625 189.6719 Q242.7656 189.6719 242.3359 190.0469 Q241.9062 190.4219 241.8281 191.1562 L241.1719 191.1562 L241.1719 189.625 Z" style="fill:black; stroke:none;" /><rect height="13" style="stroke:none;" width="7" x="211" y="229" /><path d="M212.8281 241.25 Q213.2969 241.5938 214.1719 241.5938 Q215.0625 241.5938 215.5781 241.0703 Q216.0938 240.5469 216.0938 239.6562 Q216.0938 238.4219 215.5625 237.8906 Q215.0156 237.3594 214 237.3594 L213.4375 237.3594 L213.4375 236.7188 L213.7344 236.7188 Q214.4844 236.7188 215 236.2969 Q215.4219 235.9531 215.4219 235.0156 Q215.4219 234.6094 215.1406 234.1406 Q214.6875 233.375 214.1562 233.3906 Q212.8281 233.4375 212.8281 235.7812 L212.8281 241.25 ZM211.75 244.5 L211.75 235.7812 Q211.75 233.3281 213.0781 233 Q213.7656 232.8125 214.25 232.8125 Q215.3438 232.8125 216.0469 233.6719 Q216.6094 234.3594 216.6094 234.9375 Q216.6094 235.7812 216.2031 236.2656 Q215.7969 236.75 215.0625 236.9844 Q216.1406 237.1406 216.75 237.7812 Q217.3281 238.4062 217.3281 239.6328 Q217.3281 240.8594 216.5078 241.5156 Q215.6875 242.1719 214.1406 242.1719 Q213.1875 242.1719 212.8281 242.0312 L212.8281 244.5 L211.75 244.5 Z" style="fill:black; stroke:none;" /></g><g ID="li-1:2,4" style="fill:white; text-rendering:optimizeSpeed; font-family:'Serif'; stroke:white;"><rect height="10" style="stroke:none;" width="7" x="227" y="152" /><path d="M230.9219 161.5938 Q231.75 161.5938 232.1953 160.9844 Q232.6406 160.375 232.6406 159.2344 Q232.6406 158.1094 232.1953 157.5 Q231.75 156.8906 230.9219 156.8906 Q230.0938 156.8906 229.6484 157.4766 Q229.2031 158.0625 229.2031 159.1719 Q229.2031 160.3281 229.6484 160.9609 Q230.0938 161.5938 230.9219 161.5938 ZM229.0156 157.1875 Q229.4219 156.75 229.9219 156.5312 Q230.4219 156.3125 231.0625 156.3125 Q232.3594 156.3125 233.1172 157.0938 Q233.875 157.875 233.875 159.2344 Q233.875 160.5625 233.0625 161.3672 Q232.25 162.1719 230.875 162.1719 Q229.3906 162.1719 228.5938 161.0625 Q227.7969 159.9531 227.7969 157.9062 Q227.7969 155.6094 228.7422 154.3516 Q229.6875 153.0938 231.4062 153.0938 Q231.875 153.0938 232.3828 153.1797 Q232.8906 153.2656 233.4219 153.4375 L233.4219 154.8906 L232.7656 154.8906 Q232.6875 154.2969 232.3047 153.9844 Q231.9219 153.6719 231.2812 153.6719 Q230.1406 153.6719 229.5859 154.5312 Q229.0312 155.3906 229.0156 157.1875 Z" style="fill:black; stroke:none;" /><rect height="13" style="stroke:none;" width="7" x="198" y="108" /><path d="M199.8281 120.25 Q200.2969 120.5938 201.1719 120.5938 Q202.0625 120.5938 202.5781 120.0703 Q203.0938 119.5469 203.0938 118.6562 Q203.0938 117.4219 202.5625 116.8906 Q202.0156 116.3594 201 116.3594 L200.4375 116.3594 L200.4375 115.7188 L200.7344 115.7188 Q201.4844 115.7188 202 115.2969 Q202.4219 114.9531 202.4219 114.0156 Q202.4219 113.6094 202.1406 113.1406 Q201.6875 112.375 201.1562 112.3906 Q199.8281 112.4375 199.8281 114.7812 L199.8281 120.25 ZM198.75 123.5 L198.75 114.7812 Q198.75 112.3281 200.0781 112 Q200.7656 111.8125 201.25 111.8125 Q202.3438 111.8125 203.0469 112.6719 Q203.6094 113.3594 203.6094 113.9375 Q203.6094 114.7812 203.2031 115.2656 Q202.7969 115.75 202.0625 115.9844 Q203.1406 116.1406 203.75 116.7812 Q204.3281 117.4062 204.3281 118.6328 Q204.3281 119.8594 203.5078 120.5156 Q202.6875 121.1719 201.1406 121.1719 Q200.1875 121.1719 199.8281 121.0312 L199.8281 123.5 L198.75 123.5 Z" style="fill:black; stroke:none;" /></g><g ID="li-1:1,2" style="fill:white; text-rendering:optimizeSpeed; font-family:'Serif'; stroke:white;"><rect height="9" style="stroke:none;" width="8" x="278" y="174" /><path d="M282.1875 180.0312 L282.1875 175.375 L279.2031 180.0312 L282.1875 180.0312 ZM284.7656 183 L280.7812 183 L280.7812 182.375 L282.1875 182.375 L282.1875 180.6562 L278.375 180.6562 L278.375 180.0156 L282.2031 174.0938 L283.3594 174.0938 L283.3594 180.0312 L285.0312 180.0312 L285.0312 180.6562 L283.3594 180.6562 L283.3594 182.375 L284.7656 182.375 L284.7656 183 Z" style="fill:black; stroke:none;" /><rect height="13" style="stroke:none;" width="7" x="264" y="172" /><path d="M265.8281 184.25 Q266.2969 184.5938 267.1719 184.5938 Q268.0625 184.5938 268.5781 184.0703 Q269.0938 183.5469 269.0938 182.6562 Q269.0938 181.4219 268.5625 180.8906 Q268.0156 180.3594 267 180.3594 L266.4375 180.3594 L266.4375 179.7188 L266.7344 179.7188 Q267.4844 179.7188 268 179.2969 Q268.4219 178.9531 268.4219 178.0156 Q268.4219 177.6094 268.1406 177.1406 Q267.6875 176.375 267.1562 176.3906 Q265.8281 176.4375 265.8281 178.7812 L265.8281 184.25 ZM264.75 187.5 L264.75 178.7812 Q264.75 176.3281 266.0781 176 Q266.7656 175.8125 267.25 175.8125 Q268.3438 175.8125 269.0469 176.6719 Q269.6094 177.3594 269.6094 177.9375 Q269.6094 178.7812 269.2031 179.2656 Q268.7969 179.75 268.0625 179.9844 Q269.1406 180.1406 269.75 180.7812 Q270.3281 181.4062 270.3281 182.6328 Q270.3281 183.8594 269.5078 184.5156 Q268.6875 185.1719 267.1406 185.1719 Q266.1875 185.1719 265.8281 185.0312 L265.8281 187.5 L264.75 187.5 Z" style="fill:black; stroke:none;" /></g></g></svg>