<svg xmlns="http://www.w3.org/2000/svg" style="fill-opacity:1; color-rendering:auto; color-interpolation:auto; text-rendering:auto; stroke:black; stroke-linecap:square; stroke-miterlimit:10; shape-rendering:auto; stroke-opacity:1; fill:black; stroke-dasharray:none; font-weight:normal; stroke-width:1; font-family:'Dialog'; font-style:normal; stroke-linejoin:miter; font-size:12px; stroke-dashoffset:0; image-rendering:auto;"><defs id="genericDefs" /><g><defs id="defs1"><clipPath clipPathUnits="userSpaceOnUse" id="clipPath1"><path d="M208 80 C208 86.0751 203.0751 91 197 91 C190.9249 91 186 86.0751 186 80 C186 73.9249 190.9249 69 197 69 C203.0751 69 208 73.9249 208 80 Z" /></clipPath><clipPath clipPathUnits="userSpaceOnUse" id="clipPath2"><path d="M156 80 C156 86.0751 151.0751 91 145 91 C138.9249 91 134 86.0751 134 80 C134 73.9249 138.9249 69 145 69 C151.0751 69 156 73.9249 156 80 Z" /></clipPath><clipPath clipPathUnits="userSpaceOnUse" id="clipPath3"><path d="M82 108 L104 108 L104 130 L82 130 L82 108 Z" /></clipPath><clipPath clipPathUnits="userSpaceOnUse" id="clipPath4"><path d="M52 145 C52 151.0751 47.0751 156 41 156 C34.9249 156 30 151.0751 30 145 C30 138.9249 34.9249 134 41 134 C47.0751 134 52 138.9249 52 145 Z" /></clipPath><clipPath clipPathUnits="userSpaceOnUse" id="clipPath5"><path d="M41 82 L52 93 L41 104 L30 93 Z" style="fill-rule:evenodd;" /></clipPath><clipPath clipPathUnits="userSpaceOnUse" id="clipPath6"><path d="M82 30 L104 30 L104 52 L82 52 L82 30 Z" /></clipPath><clipPath clipPathUnits="userSpaceOnUse" id="clipPath7"><path d="M52 41 C52 47.0751 47.0751 52 41 52 C34.9249 52 30 47.0751 30 41 C30 34.9249 34.9249 30 41 30 C47.0751 30 52 34.9249 52 41 Z" /></clipPath></defs><g style="fill:white; text-rendering:optimizeSpeed; stroke:white;"><rect height="186" style="stroke:none;" width="238" x="0" y="0" /></g><g ID="l-1:1,2" style="text-rendering:optimizeSpeed;"><polygon points=" 197 80 145 80" style="fill:none;" /></g><g ID="r-1:1" style="fill:white; text-rendering:optimizeSpeed; stroke:white;" wurcs_mono_id="1"><circle cx="197" cy="80" r="11" style="clip-path:url(#clipPath1); stroke:none;" /><rect height="22" style="clip-path:url(#clipPath1); fill:rgb(0,144,188); stroke:none;" width="22" x="186" y="69" /><rect height="22" style="clip-path:url(#clipPath1); fill:none; stroke:black;" width="22" x="186" y="69" /><circle cx="197" cy="80" r="11" style="fill:none; stroke:black;" /></g><g ID="l-1:2,3" style="text-rendering:optimizeSpeed;"><polygon points=" 145 80 93 119" style="fill:none;" /></g><g ID="l-1:2,4" style="text-rendering:optimizeSpeed;"><polygon points=" 145 80 93 41" style="fill:none;" /></g><g ID="r-1:2" style="fill:white; text-rendering:optimizeSpeed; stroke:white;" wurcs_mono_id="2"><circle cx="145" cy="80" r="11" style="clip-path:url(#clipPath2); stroke:none;" /><rect height="22" style="clip-path:url(#clipPath2); fill:rgb(255,212,0); stroke:none;" width="22" x="134" y="69" /><rect height="22" style="clip-path:url(#clipPath2); fill:none; stroke:black;" width="22" x="134" y="69" /><circle cx="145" cy="80" r="11" style="fill:none; stroke:black;" /></g><g ID="l-1:3,5" style="text-rendering:optimizeSpeed;"><polygon points=" 93 119 41 145" style="fill:none;" /></g><g ID="l-1:3,6" style="text-rendering:optimizeSpeed;"><polygon points=" 93 119 41 93" style="fill:none;" /></g><g ID="r-1:3" style="fill:white; text-rendering:optimizeSpeed; stroke:white;" wurcs_mono_id="3"><rect height="22" style="clip-path:url(#clipPath3); stroke:none;" width="22" x="82" y="108" /><rect height="22" style="clip-path:url(#clipPath3); fill:rgb(0,144,188); stroke:none;" width="22" x="82" y="108" /><rect height="22" style="clip-path:url(#clipPath3); fill:none; stroke:black;" width="22" x="82" y="108" /><rect height="22" style="fill:none; stroke:black;" width="22" x="82" y="108" /></g><g ID="r-1:5" style="fill:white; text-rendering:optimizeSpeed; stroke:white;" wurcs_mono_id="4"><circle cx="41" cy="145" r="11" style="clip-path:url(#clipPath4); stroke:none;" /><rect height="22" style="clip-path:url(#clipPath4); fill:rgb(255,212,0); stroke:none;" width="22" x="30" y="134" /><rect height="22" style="clip-path:url(#clipPath4); fill:none; stroke:black;" width="22" x="30" y="134" /><circle cx="41" cy="145" r="11" style="fill:none; stroke:black;" /></g><g ID="r-1:6" style="fill:white; text-rendering:optimizeSpeed; stroke:white;" wurcs_mono_id="5"><polygon points=" 41 82 52 93 41 104 30 93" style="stroke:none; clip-path:url(#clipPath5);" /><rect height="22" style="clip-path:url(#clipPath5); fill:rgb(165,67,153); stroke:none;" width="22" x="30" y="82" /><rect height="22" style="clip-path:url(#clipPath5); fill:none; stroke:black;" width="22" x="30" y="82" /><polygon points=" 41 82 52 93 41 104 30 93" style="fill:none; stroke:black;" /></g><g ID="li-1:3,5" style="fill:white; text-rendering:optimizeSpeed; font-family:'Serif'; stroke:white;"><rect height="9" style="stroke:none;" width="8" x="74" y="130" /><path d="M78.1875 136.0312 L78.1875 131.375 L75.2031 136.0312 L78.1875 136.0312 ZM80.7656 139 L76.7812 139 L76.7812 138.375 L78.1875 138.375 L78.1875 136.6562 L74.375 136.6562 L74.375 136.0156 L78.2031 130.0938 L79.3594 130.0938 L79.3594 136.0312 L81.0312 136.0312 L81.0312 136.6562 L79.3594 136.6562 L79.3594 138.375 L80.7656 138.375 L80.7656 139 Z" style="fill:black; stroke:none;" /><rect height="13" style="stroke:none;" width="7" x="59" y="136" /><path d="M60.8281 148.25 Q61.2969 148.5938 62.1719 148.5938 Q63.0625 148.5938 63.5781 148.0703 Q64.0938 147.5469 64.0938 146.6562 Q64.0938 145.4219 63.5625 144.8906 Q63.0156 144.3594 62 144.3594 L61.4375 144.3594 L61.4375 143.7188 L61.7344 143.7188 Q62.4844 143.7188 63 143.2969 Q63.4219 142.9531 63.4219 142.0156 Q63.4219 141.6094 63.1406 141.1406 Q62.6875 140.375 62.1562 140.3906 Q60.8281 140.4375 60.8281 142.7812 L60.8281 148.25 ZM59.75 151.5 L59.75 142.7812 Q59.75 140.3281 61.0781 140 Q61.7656 139.8125 62.25 139.8125 Q63.3438 139.8125 64.0469 140.6719 Q64.6094 141.3594 64.6094 141.9375 Q64.6094 142.7812 64.2031 143.2656 Q63.7969 143.75 63.0625 143.9844 Q64.1406 144.1406 64.75 144.7812 Q65.3281 145.4062 65.3281 146.6328 Q65.3281 147.8594 64.5078 148.5156 Q63.6875 149.1719 62.1406 149.1719 Q61.1875 149.1719 60.8281 149.0312 L60.8281 151.5 L59.75 151.5 Z" style="fill:black; stroke:none;" /></g><g ID="li-1:3,6" style="fill:white; text-rendering:optimizeSpeed; font-family:'Serif'; stroke:white;"><rect height="10" style="stroke:none;" width="7" x="67" y="112" /><path d="M70.9219 121.5938 Q71.75 121.5938 72.1953 120.9844 Q72.6406 120.375 72.6406 119.2344 Q72.6406 118.1094 72.1953 117.5 Q71.75 116.8906 70.9219 116.8906 Q70.0938 116.8906 69.6484 117.4766 Q69.2031 118.0625 69.2031 119.1719 Q69.2031 120.3281 69.6484 120.9609 Q70.0938 121.5938 70.9219 121.5938 ZM69.0156 117.1875 Q69.4219 116.75 69.9219 116.5312 Q70.4219 116.3125 71.0625 116.3125 Q72.3594 116.3125 73.1172 117.0938 Q73.875 117.875 73.875 119.2344 Q73.875 120.5625 73.0625 121.3672 Q72.25 122.1719 70.875 122.1719 Q69.3906 122.1719 68.5938 121.0625 Q67.7969 119.9531 67.7969 117.9062 Q67.7969 115.6094 68.7422 114.3516 Q69.6875 113.0938 71.4062 113.0938 Q71.875 113.0938 72.3828 113.1797 Q72.8906 113.2656 73.4219 113.4375 L73.4219 114.8906 L72.7656 114.8906 Q72.6875 114.2969 72.3047 113.9844 Q71.9219 113.6719 71.2812 113.6719 Q70.1406 113.6719 69.5859 114.5312 Q69.0312 115.3906 69.0156 117.1875 Z" style="fill:black; stroke:none;" /><rect height="8" style="stroke:none;" width="8" x="51" y="105" /><path d="M56.1875 111.4688 L55.9531 112.1094 Q55.7656 112.625 55.2031 112.9375 Q54.8438 113.1562 54.2031 113.1406 Q53.0469 113.1406 52.3281 112.2344 Q51.5938 111.3281 51.5938 109.8594 Q51.5938 108.4219 52.3281 107.4844 Q53.0156 106.5938 54.4531 106.6094 Q55.4531 106.6094 55.9531 107 Q56.4062 107.3438 56.5781 108.0938 L56.625 108.3125 L56.8438 107.6719 Q57.0625 107.0469 57.6562 106.75 L58.25 106.75 L58.25 107.0938 Q57.6875 107.2656 57.5 107.8125 L56.8906 109.4844 L57.2969 111.2812 Q57.5 112.2031 57.7344 112.2969 Q58.0469 112.4375 58.7812 112 L58.7812 112.7188 Q57.5938 113.4062 56.75 112.6875 Q56.375 112.3594 56.2656 111.875 L56.1875 111.4688 ZM55.9219 110.3125 L55.5625 108.5938 Q55.2656 107.2188 54.4688 107.2188 Q53.7969 107.2031 53.2812 107.9375 Q52.8594 108.5156 52.8594 109.875 Q52.8594 111.1719 53.2812 111.8281 Q53.75 112.5469 54.5312 112.5 Q55.2031 112.4375 55.6875 111 L55.9219 110.3125 Z" style="fill:black; stroke:none;" /></g><g ID="l-1:4,7" style="text-rendering:optimizeSpeed;"><polygon points=" 93 41 41 41" style="fill:none;" /></g><g ID="r-1:4" style="fill:white; text-rendering:optimizeSpeed; stroke:white;" wurcs_mono_id="6"><rect height="22" style="clip-path:url(#clipPath6); stroke:none;" width="22" x="82" y="30" /><rect height="22" style="clip-path:url(#clipPath6); fill:rgb(0,144,188); stroke:none;" width="22" x="82" y="30" /><rect height="22" style="clip-path:url(#clipPath6); fill:none; stroke:black;" width="22" x="82" y="30" /><rect height="22" style="fill:none; stroke:black;" width="22" x="82" y="30" /></g><g ID="r-1:7" style="fill:white; text-rendering:optimizeSpeed; stroke:white;" wurcs_mono_id="7"><circle cx="41" cy="41" r="11" style="clip-path:url(#clipPath7); stroke:none;" /><rect height="22" style="clip-path:url(#clipPath7); fill:rgb(255,212,0); stroke:none;" width="22" x="30" y="30" /><rect height="22" style="clip-path:url(#clipPath7); fill:none; stroke:black;" width="22" x="30" y="30" /><circle cx="41" cy="41" r="11" style="fill:none; stroke:black;" /></g><g ID="li-1:4,7" style="fill:white; text-rendering:optimizeSpeed; font-family:'Serif'; stroke:white;"><rect height="9" style="stroke:none;" width="8" x="70" y="44" /><path d="M74.1875 50.0312 L74.1875 45.375 L71.2031 50.0312 L74.1875 50.0312 ZM76.7656 53 L72.7812 53 L72.7812 52.375 L74.1875 52.375 L74.1875 50.6562 L70.375 50.6562 L70.375 50.0156 L74.2031 44.0938 L75.3594 44.0938 L75.3594 50.0312 L77.0312 50.0312 L77.0312 50.6562 L75.3594 50.6562 L75.3594 52.375 L76.7656 52.375 L76.7656 53 Z" style="fill:black; stroke:none;" /><rect height="13" style="stroke:none;" width="7" x="56" y="42" /><path d="M57.8281 54.25 Q58.2969 54.5938 59.1719 54.5938 Q60.0625 54.5938 60.5781 54.0703 Q61.0938 53.5469 61.0938 52.6562 Q61.0938 51.4219 60.5625 50.8906 Q60.0156 50.3594 59 50.3594 L58.4375 50.3594 L58.4375 49.7188 L58.7344 49.7188 Q59.4844 49.7188 60 49.2969 Q60.4219 48.9531 60.4219 48.0156 Q60.4219 47.6094 60.1406 47.1406 Q59.6875 46.375 59.1562 46.3906 Q57.8281 46.4375 57.8281 48.7812 L57.8281 54.25 ZM56.75 57.5 L56.75 48.7812 Q56.75 46.3281 58.0781 46 Q58.7656 45.8125 59.25 45.8125 Q60.3438 45.8125 61.0469 46.6719 Q61.6094 47.3594 61.6094 47.9375 Q61.6094 48.7812 61.2031 49.2656 Q60.7969 49.75 60.0625 49.9844 Q61.1406 50.1406 61.75 50.7812 Q62.3281 51.4062 62.3281 52.6328 Q62.3281 53.8594 61.5078 54.5156 Q60.6875 55.1719 59.1406 55.1719 Q58.1875 55.1719 57.8281 55.0312 L57.8281 57.5 L56.75 57.5 Z" style="fill:black; stroke:none;" /></g><g ID="li-1:2,3" style="fill:white; text-rendering:optimizeSpeed; font-family:'Serif'; stroke:white;"><rect height="10" style="stroke:none;" width="7" x="128" y="94" /><path d="M129.1719 95.625 Q129.8594 95.3594 130.4844 95.2266 Q131.1094 95.0938 131.6562 95.0938 Q132.9531 95.0938 133.6719 95.6484 Q134.3906 96.2031 134.3906 97.1875 Q134.3906 97.9688 133.8906 98.5 Q133.3906 99.0312 132.4844 99.2188 Q133.5625 99.375 134.1562 100.0078 Q134.75 100.6406 134.75 101.6406 Q134.75 102.8594 133.9219 103.5156 Q133.0938 104.1719 131.5469 104.1719 Q130.8594 104.1719 130.2109 104.0234 Q129.5625 103.875 128.9219 103.5781 L128.9219 101.875 L129.5781 101.875 Q129.625 102.7188 130.1406 103.1562 Q130.6562 103.5938 131.5781 103.5938 Q132.4688 103.5938 132.9922 103.0703 Q133.5156 102.5469 133.5156 101.6562 Q133.5156 100.625 132.9766 100.0938 Q132.4375 99.5625 131.4062 99.5625 L130.8594 99.5625 L130.8594 98.9531 L131.1406 98.9531 Q132.1719 98.9531 132.6875 98.5312 Q133.2031 98.1094 133.2031 97.25 Q133.2031 96.4844 132.7812 96.0781 Q132.3594 95.6719 131.5625 95.6719 Q130.7656 95.6719 130.3359 96.0469 Q129.9062 96.4219 129.8281 97.1562 L129.1719 97.1562 L129.1719 95.625 Z" style="fill:black; stroke:none;" /><rect height="13" style="stroke:none;" width="7" x="111" y="105" /><path d="M112.8281 117.25 Q113.2969 117.5938 114.1719 117.5938 Q115.0625 117.5938 115.5781 117.0703 Q116.0938 116.5469 116.0938 115.6562 Q116.0938 114.4219 115.5625 113.8906 Q115.0156 113.3594 114 113.3594 L113.4375 113.3594 L113.4375 112.7188 L113.7344 112.7188 Q114.4844 112.7188 115 112.2969 Q115.4219 111.9531 115.4219 111.0156 Q115.4219 110.6094 115.1406 110.1406 Q114.6875 109.375 114.1562 109.3906 Q112.8281 109.4375 112.8281 111.7812 L112.8281 117.25 ZM111.75 120.5 L111.75 111.7812 Q111.75 109.3281 113.0781 109 Q113.7656 108.8125 114.25 108.8125 Q115.3438 108.8125 116.0469 109.6719 Q116.6094 110.3594 116.6094 110.9375 Q116.6094 111.7812 116.2031 112.2656 Q115.7969 112.75 115.0625 112.9844 Q116.1406 113.1406 116.75 113.7812 Q117.3281 114.4062 117.3281 115.6328 Q117.3281 116.8594 116.5078 117.5156 Q115.6875 118.1719 114.1406 118.1719 Q113.1875 118.1719 112.8281 118.0312 L112.8281 120.5 L111.75 120.5 Z" style="fill:black; stroke:none;" /></g><g ID="li-1:2,4" style="fill:white; text-rendering:optimizeSpeed; font-family:'Serif'; stroke:white;"><rect height="10" style="stroke:none;" width="7" x="119" y="68" /><path d="M122.9219 77.5938 Q123.75 77.5938 124.1953 76.9844 Q124.6406 76.375 124.6406 75.2344 Q124.6406 74.1094 124.1953 73.5 Q123.75 72.8906 122.9219 72.8906 Q122.0938 72.8906 121.6484 73.4766 Q121.2031 74.0625 121.2031 75.1719 Q121.2031 76.3281 121.6484 76.9609 Q122.0938 77.5938 122.9219 77.5938 ZM121.0156 73.1875 Q121.4219 72.75 121.9219 72.5312 Q122.4219 72.3125 123.0625 72.3125 Q124.3594 72.3125 125.1172 73.0938 Q125.875 73.875 125.875 75.2344 Q125.875 76.5625 125.0625 77.3672 Q124.25 78.1719 122.875 78.1719 Q121.3906 78.1719 120.5938 77.0625 Q119.7969 75.9531 119.7969 73.9062 Q119.7969 71.6094 120.7422 70.3516 Q121.6875 69.0938 123.4062 69.0938 Q123.875 69.0938 124.3828 69.1797 Q124.8906 69.2656 125.4219 69.4375 L125.4219 70.8906 L124.7656 70.8906 Q124.6875 70.2969 124.3047 69.9844 Q123.9219 69.6719 123.2812 69.6719 Q122.1406 69.6719 121.5859 70.5312 Q121.0312 71.3906 121.0156 73.1875 Z" style="fill:black; stroke:none;" /><rect height="13" style="stroke:none;" width="7" x="102" y="53" /><path d="M103.8281 65.25 Q104.2969 65.5938 105.1719 65.5938 Q106.0625 65.5938 106.5781 65.0703 Q107.0938 64.5469 107.0938 63.6562 Q107.0938 62.4219 106.5625 61.8906 Q106.0156 61.3594 105 61.3594 L104.4375 61.3594 L104.4375 60.7188 L104.7344 60.7188 Q105.4844 60.7188 106 60.2969 Q106.4219 59.9531 106.4219 59.0156 Q106.4219 58.6094 106.1406 58.1406 Q105.6875 57.375 105.1562 57.3906 Q103.8281 57.4375 103.8281 59.7812 L103.8281 65.25 ZM102.75 68.5 L102.75 59.7812 Q102.75 57.3281 104.0781 57 Q104.7656 56.8125 105.25 56.8125 Q106.3438 56.8125 107.0469 57.6719 Q107.6094 58.3594 107.6094 58.9375 Q107.6094 59.7812 107.2031 60.2656 Q106.7969 60.75 106.0625 60.9844 Q107.1406 61.1406 107.75 61.7812 Q108.3281 62.4062 108.3281 63.6328 Q108.3281 64.8594 107.5078 65.5156 Q106.6875 66.1719 105.1406 66.1719 Q104.1875 66.1719 103.8281 66.0312 L103.8281 68.5 L102.75 68.5 Z" style="fill:black; stroke:none;" /></g><g ID="li-1:1,2" style="fill:white; text-rendering:optimizeSpeed; font-family:'Serif'; stroke:white;"><rect height="9" style="stroke:none;" width="8" x="174" y="83" /><path d="M178.1875 89.0312 L178.1875 84.375 L175.2031 89.0312 L178.1875 89.0312 ZM180.7656 92 L176.7812 92 L176.7812 91.375 L178.1875 91.375 L178.1875 89.6562 L174.375 89.6562 L174.375 89.0156 L178.2031 83.0938 L179.3594 83.0938 L179.3594 89.0312 L181.0312 89.0312 L181.0312 89.6562 L179.3594 89.6562 L179.3594 91.375 L180.7656 91.375 L180.7656 92 Z" style="fill:black; stroke:none;" /><rect height="13" style="stroke:none;" width="7" x="160" y="81" /><path d="M161.8281 93.25 Q162.2969 93.5938 163.1719 93.5938 Q164.0625 93.5938 164.5781 93.0703 Q165.0938 92.5469 165.0938 91.6562 Q165.0938 90.4219 164.5625 89.8906 Q164.0156 89.3594 163 89.3594 L162.4375 89.3594 L162.4375 88.7188 L162.7344 88.7188 Q163.4844 88.7188 164 88.2969 Q164.4219 87.9531 164.4219 87.0156 Q164.4219 86.6094 164.1406 86.1406 Q163.6875 85.375 163.1562 85.3906 Q161.8281 85.4375 161.8281 87.7812 L161.8281 93.25 ZM160.75 96.5 L160.75 87.7812 Q160.75 85.3281 162.0781 85 Q162.7656 84.8125 163.25 84.8125 Q164.3438 84.8125 165.0469 85.6719 Q165.6094 86.3594 165.6094 86.9375 Q165.6094 87.7812 165.2031 88.2656 Q164.7969 88.75 164.0625 88.9844 Q165.1406 89.1406 165.75 89.7812 Q166.3281 90.4062 166.3281 91.6328 Q166.3281 92.8594 165.5078 93.5156 Q164.6875 94.1719 163.1406 94.1719 Q162.1875 94.1719 161.8281 94.0312 L161.8281 96.5 L160.75 96.5 Z" style="fill:black; stroke:none;" /></g></g></svg>