<svg xmlns="http://www.w3.org/2000/svg" style="fill-opacity:1; color-rendering:auto; color-interpolation:auto; text-rendering:auto; stroke:black; stroke-linecap:square; stroke-miterlimit:10; shape-rendering:auto; stroke-opacity:1; fill:black; stroke-dasharray:none; font-weight:normal; stroke-width:1; font-family:'Dialog'; font-style:normal; stroke-linejoin:miter; font-size:12px; stroke-dashoffset:0; image-rendering:auto;"><defs id="genericDefs" /><g><defs id="defs1"><clipPath clipPathUnits="userSpaceOnUse" id="clipPath1"><path d="M342 82 L364 82 L364 104 L342 104 L342 82 Z" /></clipPath><clipPath clipPathUnits="userSpaceOnUse" id="clipPath2"><path d="M290 82 L312 82 L312 104 L290 104 L290 82 Z" /></clipPath><clipPath clipPathUnits="userSpaceOnUse" id="clipPath3"><path d="M260 93 C260 99.0751 255.0751 104 249 104 C242.9249 104 238 99.0751 238 93 C238 86.9249 242.9249 82 249 82 C255.0751 82 260 86.9249 260 93 Z" /></clipPath><clipPath clipPathUnits="userSpaceOnUse" id="clipPath4"><path d="M208 145 C208 151.0751 203.0751 156 197 156 C190.9249 156 186 151.0751 186 145 C186 138.9249 190.9249 134 197 134 C203.0751 134 208 138.9249 208 145 Z" /></clipPath><clipPath clipPathUnits="userSpaceOnUse" id="clipPath5"><path d="M134 186 L156 186 L156 208 L134 208 L134 186 Z" /></clipPath><clipPath clipPathUnits="userSpaceOnUse" id="clipPath6"><path d="M104 197 C104 203.0751 99.0751 208 93 208 C86.9249 208 82 203.0751 82 197 C82 190.9249 86.9249 186 93 186 C99.0751 186 104 190.9249 104 197 Z" /></clipPath><clipPath clipPathUnits="userSpaceOnUse" id="clipPath7"><path d="M41 186 L52 197 L41 208 L30 197 Z" style="fill-rule:evenodd;" /></clipPath><clipPath clipPathUnits="userSpaceOnUse" id="clipPath8"><path d="M145 156 L134 134 L156 134 Z" style="fill-rule:evenodd;" /></clipPath><clipPath clipPathUnits="userSpaceOnUse" id="clipPath9"><path d="M134 82 L156 82 L156 104 L134 104 L134 82 Z" /></clipPath><clipPath clipPathUnits="userSpaceOnUse" id="clipPath10"><path d="M104 93 C104 99.0751 99.0751 104 93 104 C86.9249 104 82 99.0751 82 93 C82 86.9249 86.9249 82 93 82 C99.0751 82 104 86.9249 104 93 Z" /></clipPath><clipPath clipPathUnits="userSpaceOnUse" id="clipPath11"><path d="M41 82 L52 93 L41 104 L30 93 Z" style="fill-rule:evenodd;" /></clipPath><clipPath clipPathUnits="userSpaceOnUse" id="clipPath12"><path d="M208 41 C208 47.0751 203.0751 52 197 52 C190.9249 52 186 47.0751 186 41 C186 34.9249 190.9249 30 197 30 C203.0751 30 208 34.9249 208 41 Z" /></clipPath><clipPath clipPathUnits="userSpaceOnUse" id="clipPath13"><path d="M134 30 L156 30 L156 52 L134 52 L134 30 Z" /></clipPath><clipPath clipPathUnits="userSpaceOnUse" id="clipPath14"><path d="M104 41 C104 47.0751 99.0751 52 93 52 C86.9249 52 82 47.0751 82 41 C82 34.9249 86.9249 30 93 30 C99.0751 30 104 34.9249 104 41 Z" /></clipPath><clipPath clipPathUnits="userSpaceOnUse" id="clipPath15"><path d="M41 30 L52 41 L41 52 L30 41 Z" style="fill-rule:evenodd;" /></clipPath></defs><g style="fill:white; text-rendering:optimizeSpeed; stroke:white;"><rect height="238" style="stroke:none;" width="394" x="0" y="0" /></g><g ID="l-1:1,2" style="text-rendering:optimizeSpeed;"><polygon points=" 353 93 301 93" style="fill:none;" /></g><g ID="r-1:1" style="fill:white; text-rendering:optimizeSpeed; stroke:white;" wurcs_mono_id="1"><rect height="22" style="clip-path:url(#clipPath1); stroke:none;" width="22" x="342" y="82" /><rect height="22" style="clip-path:url(#clipPath1); fill:rgb(0,144,188); stroke:none;" width="22" x="342" y="82" /><rect height="22" style="clip-path:url(#clipPath1); fill:none; stroke:black;" width="22" x="342" y="82" /><rect height="22" style="fill:none; stroke:black;" width="22" x="342" y="82" /></g><g ID="l-1:2,3" style="text-rendering:optimizeSpeed;"><polygon points=" 301 93 249 93" style="fill:none;" /></g><g ID="r-1:2" style="fill:white; text-rendering:optimizeSpeed; stroke:white;" wurcs_mono_id="2"><rect height="22" style="clip-path:url(#clipPath2); stroke:none;" width="22" x="290" y="82" /><rect height="22" style="clip-path:url(#clipPath2); fill:rgb(0,144,188); stroke:none;" width="22" x="290" y="82" /><rect height="22" style="clip-path:url(#clipPath2); fill:none; stroke:black;" width="22" x="290" y="82" /><rect height="22" style="fill:none; stroke:black;" width="22" x="290" y="82" /></g><g ID="l-1:3,4" style="text-rendering:optimizeSpeed;"><polygon points=" 249 93 197 145" style="fill:none;" /></g><g ID="l-1:3,5" style="text-rendering:optimizeSpeed;"><polygon points=" 249 93 197 41" style="fill:none;" /></g><g ID="r-1:3" style="fill:white; text-rendering:optimizeSpeed; stroke:white;" wurcs_mono_id="3"><circle cx="249" cy="93" r="11" style="clip-path:url(#clipPath3); stroke:none;" /><rect height="22" style="clip-path:url(#clipPath3); fill:rgb(0,166,81); stroke:none;" width="22" x="238" y="82" /><rect height="22" style="clip-path:url(#clipPath3); fill:none; stroke:black;" width="22" x="238" y="82" /><circle cx="249" cy="93" r="11" style="fill:none; stroke:black;" /></g><g ID="l-1:4,6" style="text-rendering:optimizeSpeed;"><polygon points=" 197 145 145 197" style="fill:none;" /></g><g ID="l-1:4,7" style="text-rendering:optimizeSpeed;"><polygon points=" 197 145 145 93" style="fill:none;" /></g><g ID="r-1:4" style="fill:white; text-rendering:optimizeSpeed; stroke:white;" wurcs_mono_id="4"><circle cx="197" cy="145" r="11" style="clip-path:url(#clipPath4); stroke:none;" /><rect height="22" style="clip-path:url(#clipPath4); fill:rgb(0,166,81); stroke:none;" width="22" x="186" y="134" /><rect height="22" style="clip-path:url(#clipPath4); fill:none; stroke:black;" width="22" x="186" y="134" /><circle cx="197" cy="145" r="11" style="fill:none; stroke:black;" /></g><g ID="l-1:6,8" style="text-rendering:optimizeSpeed;"><polygon points=" 145 197 93 197" style="fill:none;" /></g><g ID="l-1:6,9" style="text-rendering:optimizeSpeed;"><polygon points=" 145 197 145 145" style="fill:none;" /></g><g ID="r-1:6" style="fill:white; text-rendering:optimizeSpeed; stroke:white;" wurcs_mono_id="5"><rect height="22" style="clip-path:url(#clipPath5); stroke:none;" width="22" x="134" y="186" /><rect height="22" style="clip-path:url(#clipPath5); fill:rgb(0,144,188); stroke:none;" width="22" x="134" y="186" /><rect height="22" style="clip-path:url(#clipPath5); fill:none; stroke:black;" width="22" x="134" y="186" /><rect height="22" style="fill:none; stroke:black;" width="22" x="134" y="186" /></g><g ID="l-1:8,10" style="text-rendering:optimizeSpeed;"><polygon points=" 93 197 41 197" style="fill:none;" /></g><g ID="r-1:8" style="fill:white; text-rendering:optimizeSpeed; stroke:white;" wurcs_mono_id="6"><circle cx="93" cy="197" r="11" style="clip-path:url(#clipPath6); stroke:none;" /><rect height="22" style="clip-path:url(#clipPath6); fill:rgb(255,212,0); stroke:none;" width="22" x="82" y="186" /><rect height="22" style="clip-path:url(#clipPath6); fill:none; stroke:black;" width="22" x="82" y="186" /><circle cx="93" cy="197" r="11" style="fill:none; stroke:black;" /></g><g ID="r-1:10" style="fill:white; text-rendering:optimizeSpeed; stroke:white;" wurcs_mono_id="7"><polygon points=" 41 186 52 197 41 208 30 197" style="stroke:none; clip-path:url(#clipPath7);" /><rect height="22" style="clip-path:url(#clipPath7); fill:rgb(165,67,153); stroke:none;" width="22" x="30" y="186" /><rect height="22" style="clip-path:url(#clipPath7); fill:none; stroke:black;" width="22" x="30" y="186" /><polygon points=" 41 186 52 197 41 208 30 197" style="fill:none; stroke:black;" /></g><g ID="li-1:8,10" style="fill:white; text-rendering:optimizeSpeed; font-family:'Serif'; stroke:white;"><rect height="10" style="stroke:none;" width="6" x="71" y="200" /><path d="M73.1094 209.3906 Q73.1094 209.0625 73.3359 208.8359 Q73.5625 208.6094 73.8906 208.6094 Q74.2188 208.6094 74.4453 208.8359 Q74.6719 209.0625 74.6719 209.3906 Q74.6719 209.7188 74.4453 209.9453 Q74.2188 210.1719 73.8906 210.1719 Q73.5625 210.1719 73.3359 209.9453 Q73.1094 209.7188 73.1094 209.3906 ZM71.8125 201.6406 Q72.4375 201.3594 73 201.2266 Q73.5625 201.0938 74.0469 201.0938 Q75.3438 201.0938 76.1016 201.7188 Q76.8594 202.3438 76.8594 203.4062 Q76.8594 204.5 76.2109 205.1953 Q75.5625 205.8906 74.25 206.1875 L74.25 207.6719 L73.5312 207.6719 L73.5312 205.75 Q74.5625 205.5 75.0938 204.9062 Q75.625 204.3125 75.625 203.4062 Q75.625 202.5938 75.1953 202.1328 Q74.7656 201.6719 74.0312 201.6719 Q73.3594 201.6719 72.9297 202.0547 Q72.5 202.4375 72.3906 203.1562 L71.8125 203.1562 L71.8125 201.6406 Z" style="fill:black; stroke:none;" /><rect height="10" style="stroke:none;" width="6" x="57" y="200" /><path d="M59.1094 209.3906 Q59.1094 209.0625 59.3359 208.8359 Q59.5625 208.6094 59.8906 208.6094 Q60.2188 208.6094 60.4453 208.8359 Q60.6719 209.0625 60.6719 209.3906 Q60.6719 209.7188 60.4453 209.9453 Q60.2188 210.1719 59.8906 210.1719 Q59.5625 210.1719 59.3359 209.9453 Q59.1094 209.7188 59.1094 209.3906 ZM57.8125 201.6406 Q58.4375 201.3594 59 201.2266 Q59.5625 201.0938 60.0469 201.0938 Q61.3438 201.0938 62.1016 201.7188 Q62.8594 202.3438 62.8594 203.4062 Q62.8594 204.5 62.2109 205.1953 Q61.5625 205.8906 60.25 206.1875 L60.25 207.6719 L59.5312 207.6719 L59.5312 205.75 Q60.5625 205.5 61.0938 204.9062 Q61.625 204.3125 61.625 203.4062 Q61.625 202.5938 61.1953 202.1328 Q60.7656 201.6719 60.0312 201.6719 Q59.3594 201.6719 58.9297 202.0547 Q58.5 202.4375 58.3906 203.1562 L57.8125 203.1562 L57.8125 201.6406 Z" style="fill:black; stroke:none;" /></g><g ID="r-1:9" style="fill:white; text-rendering:optimizeSpeed; stroke:white;" wurcs_mono_id="8"><polygon points=" 145 156 134 134 156 134" style="stroke:none; clip-path:url(#clipPath8);" /><rect height="22" style="clip-path:url(#clipPath8); fill:rgb(237,28,36); stroke:none;" width="22" x="134" y="134" /><rect height="22" style="clip-path:url(#clipPath8); fill:none; stroke:black;" width="22" x="134" y="134" /><polygon points=" 145 156 134 134 156 134" style="fill:none; stroke:black;" /></g><g ID="li-1:6,8" style="fill:white; text-rendering:optimizeSpeed; font-family:'Serif'; stroke:white;"><rect height="10" style="stroke:none;" width="6" x="123" y="200" /><path d="M125.1094 209.3906 Q125.1094 209.0625 125.3359 208.8359 Q125.5625 208.6094 125.8906 208.6094 Q126.2188 208.6094 126.4453 208.8359 Q126.6719 209.0625 126.6719 209.3906 Q126.6719 209.7188 126.4453 209.9453 Q126.2188 210.1719 125.8906 210.1719 Q125.5625 210.1719 125.3359 209.9453 Q125.1094 209.7188 125.1094 209.3906 ZM123.8125 201.6406 Q124.4375 201.3594 125 201.2266 Q125.5625 201.0938 126.0469 201.0938 Q127.3438 201.0938 128.1016 201.7188 Q128.8594 202.3438 128.8594 203.4062 Q128.8594 204.5 128.2109 205.1953 Q127.5625 205.8906 126.25 206.1875 L126.25 207.6719 L125.5312 207.6719 L125.5312 205.75 Q126.5625 205.5 127.0938 204.9062 Q127.625 204.3125 127.625 203.4062 Q127.625 202.5938 127.1953 202.1328 Q126.7656 201.6719 126.0312 201.6719 Q125.3594 201.6719 124.9297 202.0547 Q124.5 202.4375 124.3906 203.1562 L123.8125 203.1562 L123.8125 201.6406 Z" style="fill:black; stroke:none;" /><rect height="10" style="stroke:none;" width="6" x="109" y="200" /><path d="M111.1094 209.3906 Q111.1094 209.0625 111.3359 208.8359 Q111.5625 208.6094 111.8906 208.6094 Q112.2188 208.6094 112.4453 208.8359 Q112.6719 209.0625 112.6719 209.3906 Q112.6719 209.7188 112.4453 209.9453 Q112.2188 210.1719 111.8906 210.1719 Q111.5625 210.1719 111.3359 209.9453 Q111.1094 209.7188 111.1094 209.3906 ZM109.8125 201.6406 Q110.4375 201.3594 111 201.2266 Q111.5625 201.0938 112.0469 201.0938 Q113.3438 201.0938 114.1016 201.7188 Q114.8594 202.3438 114.8594 203.4062 Q114.8594 204.5 114.2109 205.1953 Q113.5625 205.8906 112.25 206.1875 L112.25 207.6719 L111.5312 207.6719 L111.5312 205.75 Q112.5625 205.5 113.0938 204.9062 Q113.625 204.3125 113.625 203.4062 Q113.625 202.5938 113.1953 202.1328 Q112.7656 201.6719 112.0312 201.6719 Q111.3594 201.6719 110.9297 202.0547 Q110.5 202.4375 110.3906 203.1562 L109.8125 203.1562 L109.8125 201.6406 Z" style="fill:black; stroke:none;" /></g><g ID="li-1:6,9" style="fill:white; text-rendering:optimizeSpeed; font-family:'Serif'; stroke:white;"><rect height="10" style="stroke:none;" width="6" x="134" y="173" /><path d="M136.1094 182.3906 Q136.1094 182.0625 136.3359 181.8359 Q136.5625 181.6094 136.8906 181.6094 Q137.2188 181.6094 137.4453 181.8359 Q137.6719 182.0625 137.6719 182.3906 Q137.6719 182.7188 137.4453 182.9453 Q137.2188 183.1719 136.8906 183.1719 Q136.5625 183.1719 136.3359 182.9453 Q136.1094 182.7188 136.1094 182.3906 ZM134.8125 174.6406 Q135.4375 174.3594 136 174.2266 Q136.5625 174.0938 137.0469 174.0938 Q138.3438 174.0938 139.1016 174.7188 Q139.8594 175.3438 139.8594 176.4062 Q139.8594 177.5 139.2109 178.1953 Q138.5625 178.8906 137.25 179.1875 L137.25 180.6719 L136.5312 180.6719 L136.5312 178.75 Q137.5625 178.5 138.0938 177.9062 Q138.625 177.3125 138.625 176.4062 Q138.625 175.5938 138.1953 175.1328 Q137.7656 174.6719 137.0312 174.6719 Q136.3594 174.6719 135.9297 175.0547 Q135.5 175.4375 135.3906 176.1562 L134.8125 176.1562 L134.8125 174.6406 Z" style="fill:black; stroke:none;" /><rect height="10" style="stroke:none;" width="6" x="134" y="159" /><path d="M136.1094 168.3906 Q136.1094 168.0625 136.3359 167.8359 Q136.5625 167.6094 136.8906 167.6094 Q137.2188 167.6094 137.4453 167.8359 Q137.6719 168.0625 137.6719 168.3906 Q137.6719 168.7188 137.4453 168.9453 Q137.2188 169.1719 136.8906 169.1719 Q136.5625 169.1719 136.3359 168.9453 Q136.1094 168.7188 136.1094 168.3906 ZM134.8125 160.6406 Q135.4375 160.3594 136 160.2266 Q136.5625 160.0938 137.0469 160.0938 Q138.3438 160.0938 139.1016 160.7188 Q139.8594 161.3438 139.8594 162.4062 Q139.8594 163.5 139.2109 164.1953 Q138.5625 164.8906 137.25 165.1875 L137.25 166.6719 L136.5312 166.6719 L136.5312 164.75 Q137.5625 164.5 138.0938 163.9062 Q138.625 163.3125 138.625 162.4062 Q138.625 161.5938 138.1953 161.1328 Q137.7656 160.6719 137.0312 160.6719 Q136.3594 160.6719 135.9297 161.0547 Q135.5 161.4375 135.3906 162.1562 L134.8125 162.1562 L134.8125 160.6406 Z" style="fill:black; stroke:none;" /></g><g ID="l-1:7,11" style="text-rendering:optimizeSpeed;"><polygon points=" 145 93 93 93" style="fill:none;" /></g><g ID="r-1:7" style="fill:white; text-rendering:optimizeSpeed; stroke:white;" wurcs_mono_id="9"><rect height="22" style="clip-path:url(#clipPath9); stroke:none;" width="22" x="134" y="82" /><rect height="22" style="clip-path:url(#clipPath9); fill:rgb(0,144,188); stroke:none;" width="22" x="134" y="82" /><rect height="22" style="clip-path:url(#clipPath9); fill:none; stroke:black;" width="22" x="134" y="82" /><rect height="22" style="fill:none; stroke:black;" width="22" x="134" y="82" /></g><g ID="l-1:11,12" style="text-rendering:optimizeSpeed;"><polygon points=" 93 93 41 93" style="fill:none;" /></g><g ID="r-1:11" style="fill:white; text-rendering:optimizeSpeed; stroke:white;" wurcs_mono_id="10"><circle cx="93" cy="93" r="11" style="clip-path:url(#clipPath10); stroke:none;" /><rect height="22" style="clip-path:url(#clipPath10); fill:rgb(255,212,0); stroke:none;" width="22" x="82" y="82" /><rect height="22" style="clip-path:url(#clipPath10); fill:none; stroke:black;" width="22" x="82" y="82" /><circle cx="93" cy="93" r="11" style="fill:none; stroke:black;" /></g><g ID="r-1:12" style="fill:white; text-rendering:optimizeSpeed; stroke:white;" wurcs_mono_id="11"><polygon points=" 41 82 52 93 41 104 30 93" style="stroke:none; clip-path:url(#clipPath11);" /><rect height="22" style="clip-path:url(#clipPath11); fill:rgb(165,67,153); stroke:none;" width="22" x="30" y="82" /><rect height="22" style="clip-path:url(#clipPath11); fill:none; stroke:black;" width="22" x="30" y="82" /><polygon points=" 41 82 52 93 41 104 30 93" style="fill:none; stroke:black;" /></g><g ID="li-1:11,12" style="fill:white; text-rendering:optimizeSpeed; font-family:'Serif'; stroke:white;"><rect height="10" style="stroke:none;" width="6" x="71" y="96" /><path d="M73.1094 105.3906 Q73.1094 105.0625 73.3359 104.8359 Q73.5625 104.6094 73.8906 104.6094 Q74.2188 104.6094 74.4453 104.8359 Q74.6719 105.0625 74.6719 105.3906 Q74.6719 105.7188 74.4453 105.9453 Q74.2188 106.1719 73.8906 106.1719 Q73.5625 106.1719 73.3359 105.9453 Q73.1094 105.7188 73.1094 105.3906 ZM71.8125 97.6406 Q72.4375 97.3594 73 97.2266 Q73.5625 97.0938 74.0469 97.0938 Q75.3438 97.0938 76.1016 97.7188 Q76.8594 98.3438 76.8594 99.4062 Q76.8594 100.5 76.2109 101.1953 Q75.5625 101.8906 74.25 102.1875 L74.25 103.6719 L73.5312 103.6719 L73.5312 101.75 Q74.5625 101.5 75.0938 100.9062 Q75.625 100.3125 75.625 99.4062 Q75.625 98.5938 75.1953 98.1328 Q74.7656 97.6719 74.0312 97.6719 Q73.3594 97.6719 72.9297 98.0547 Q72.5 98.4375 72.3906 99.1562 L71.8125 99.1562 L71.8125 97.6406 Z" style="fill:black; stroke:none;" /><rect height="10" style="stroke:none;" width="6" x="57" y="96" /><path d="M59.1094 105.3906 Q59.1094 105.0625 59.3359 104.8359 Q59.5625 104.6094 59.8906 104.6094 Q60.2188 104.6094 60.4453 104.8359 Q60.6719 105.0625 60.6719 105.3906 Q60.6719 105.7188 60.4453 105.9453 Q60.2188 106.1719 59.8906 106.1719 Q59.5625 106.1719 59.3359 105.9453 Q59.1094 105.7188 59.1094 105.3906 ZM57.8125 97.6406 Q58.4375 97.3594 59 97.2266 Q59.5625 97.0938 60.0469 97.0938 Q61.3438 97.0938 62.1016 97.7188 Q62.8594 98.3438 62.8594 99.4062 Q62.8594 100.5 62.2109 101.1953 Q61.5625 101.8906 60.25 102.1875 L60.25 103.6719 L59.5312 103.6719 L59.5312 101.75 Q60.5625 101.5 61.0938 100.9062 Q61.625 100.3125 61.625 99.4062 Q61.625 98.5938 61.1953 98.1328 Q60.7656 97.6719 60.0312 97.6719 Q59.3594 97.6719 58.9297 98.0547 Q58.5 98.4375 58.3906 99.1562 L57.8125 99.1562 L57.8125 97.6406 Z" style="fill:black; stroke:none;" /></g><g ID="li-1:7,11" style="fill:white; text-rendering:optimizeSpeed; font-family:'Serif'; stroke:white;"><rect height="10" style="stroke:none;" width="6" x="123" y="96" /><path d="M125.1094 105.3906 Q125.1094 105.0625 125.3359 104.8359 Q125.5625 104.6094 125.8906 104.6094 Q126.2188 104.6094 126.4453 104.8359 Q126.6719 105.0625 126.6719 105.3906 Q126.6719 105.7188 126.4453 105.9453 Q126.2188 106.1719 125.8906 106.1719 Q125.5625 106.1719 125.3359 105.9453 Q125.1094 105.7188 125.1094 105.3906 ZM123.8125 97.6406 Q124.4375 97.3594 125 97.2266 Q125.5625 97.0938 126.0469 97.0938 Q127.3438 97.0938 128.1016 97.7188 Q128.8594 98.3438 128.8594 99.4062 Q128.8594 100.5 128.2109 101.1953 Q127.5625 101.8906 126.25 102.1875 L126.25 103.6719 L125.5312 103.6719 L125.5312 101.75 Q126.5625 101.5 127.0938 100.9062 Q127.625 100.3125 127.625 99.4062 Q127.625 98.5938 127.1953 98.1328 Q126.7656 97.6719 126.0312 97.6719 Q125.3594 97.6719 124.9297 98.0547 Q124.5 98.4375 124.3906 99.1562 L123.8125 99.1562 L123.8125 97.6406 Z" style="fill:black; stroke:none;" /><rect height="10" style="stroke:none;" width="6" x="109" y="96" /><path d="M111.1094 105.3906 Q111.1094 105.0625 111.3359 104.8359 Q111.5625 104.6094 111.8906 104.6094 Q112.2188 104.6094 112.4453 104.8359 Q112.6719 105.0625 112.6719 105.3906 Q112.6719 105.7188 112.4453 105.9453 Q112.2188 106.1719 111.8906 106.1719 Q111.5625 106.1719 111.3359 105.9453 Q111.1094 105.7188 111.1094 105.3906 ZM109.8125 97.6406 Q110.4375 97.3594 111 97.2266 Q111.5625 97.0938 112.0469 97.0938 Q113.3438 97.0938 114.1016 97.7188 Q114.8594 98.3438 114.8594 99.4062 Q114.8594 100.5 114.2109 101.1953 Q113.5625 101.8906 112.25 102.1875 L112.25 103.6719 L111.5312 103.6719 L111.5312 101.75 Q112.5625 101.5 113.0938 100.9062 Q113.625 100.3125 113.625 99.4062 Q113.625 98.5938 113.1953 98.1328 Q112.7656 97.6719 112.0312 97.6719 Q111.3594 97.6719 110.9297 98.0547 Q110.5 98.4375 110.3906 99.1562 L109.8125 99.1562 L109.8125 97.6406 Z" style="fill:black; stroke:none;" /></g><g ID="li-1:4,6" style="fill:white; text-rendering:optimizeSpeed; font-family:'Serif'; stroke:white;"><rect height="10" style="stroke:none;" width="6" x="183" y="162" /><path d="M185.1094 171.3906 Q185.1094 171.0625 185.3359 170.8359 Q185.5625 170.6094 185.8906 170.6094 Q186.2188 170.6094 186.4453 170.8359 Q186.6719 171.0625 186.6719 171.3906 Q186.6719 171.7188 186.4453 171.9453 Q186.2188 172.1719 185.8906 172.1719 Q185.5625 172.1719 185.3359 171.9453 Q185.1094 171.7188 185.1094 171.3906 ZM183.8125 163.6406 Q184.4375 163.3594 185 163.2266 Q185.5625 163.0938 186.0469 163.0938 Q187.3438 163.0938 188.1016 163.7188 Q188.8594 164.3438 188.8594 165.4062 Q188.8594 166.5 188.2109 167.1953 Q187.5625 167.8906 186.25 168.1875 L186.25 169.6719 L185.5312 169.6719 L185.5312 167.75 Q186.5625 167.5 187.0938 166.9062 Q187.625 166.3125 187.625 165.4062 Q187.625 164.5938 187.1953 164.1328 Q186.7656 163.6719 186.0312 163.6719 Q185.3594 163.6719 184.9297 164.0547 Q184.5 164.4375 184.3906 165.1562 L183.8125 165.1562 L183.8125 163.6406 Z" style="fill:black; stroke:none;" /><rect height="10" style="stroke:none;" width="6" x="164" y="181" /><path d="M166.1094 190.3906 Q166.1094 190.0625 166.3359 189.8359 Q166.5625 189.6094 166.8906 189.6094 Q167.2188 189.6094 167.4453 189.8359 Q167.6719 190.0625 167.6719 190.3906 Q167.6719 190.7188 167.4453 190.9453 Q167.2188 191.1719 166.8906 191.1719 Q166.5625 191.1719 166.3359 190.9453 Q166.1094 190.7188 166.1094 190.3906 ZM164.8125 182.6406 Q165.4375 182.3594 166 182.2266 Q166.5625 182.0938 167.0469 182.0938 Q168.3438 182.0938 169.1016 182.7188 Q169.8594 183.3438 169.8594 184.4062 Q169.8594 185.5 169.2109 186.1953 Q168.5625 186.8906 167.25 187.1875 L167.25 188.6719 L166.5312 188.6719 L166.5312 186.75 Q167.5625 186.5 168.0938 185.9062 Q168.625 185.3125 168.625 184.4062 Q168.625 183.5938 168.1953 183.1328 Q167.7656 182.6719 167.0312 182.6719 Q166.3594 182.6719 165.9297 183.0547 Q165.5 183.4375 165.3906 184.1562 L164.8125 184.1562 L164.8125 182.6406 Z" style="fill:black; stroke:none;" /></g><g ID="li-1:4,7" style="fill:white; text-rendering:optimizeSpeed; font-family:'Serif'; stroke:white;"><rect height="10" style="stroke:none;" width="6" x="171" y="129" /><path d="M173.1094 138.3906 Q173.1094 138.0625 173.3359 137.8359 Q173.5625 137.6094 173.8906 137.6094 Q174.2188 137.6094 174.4453 137.8359 Q174.6719 138.0625 174.6719 138.3906 Q174.6719 138.7188 174.4453 138.9453 Q174.2188 139.1719 173.8906 139.1719 Q173.5625 139.1719 173.3359 138.9453 Q173.1094 138.7188 173.1094 138.3906 ZM171.8125 130.6406 Q172.4375 130.3594 173 130.2266 Q173.5625 130.0938 174.0469 130.0938 Q175.3438 130.0938 176.1016 130.7188 Q176.8594 131.3438 176.8594 132.4062 Q176.8594 133.5 176.2109 134.1953 Q175.5625 134.8906 174.25 135.1875 L174.25 136.6719 L173.5312 136.6719 L173.5312 134.75 Q174.5625 134.5 175.0938 133.9062 Q175.625 133.3125 175.625 132.4062 Q175.625 131.5938 175.1953 131.1328 Q174.7656 130.6719 174.0312 130.6719 Q173.3594 130.6719 172.9297 131.0547 Q172.5 131.4375 172.3906 132.1562 L171.8125 132.1562 L171.8125 130.6406 Z" style="fill:black; stroke:none;" /><rect height="10" style="stroke:none;" width="6" x="153" y="110" /><path d="M155.1094 119.3906 Q155.1094 119.0625 155.3359 118.8359 Q155.5625 118.6094 155.8906 118.6094 Q156.2188 118.6094 156.4453 118.8359 Q156.6719 119.0625 156.6719 119.3906 Q156.6719 119.7188 156.4453 119.9453 Q156.2188 120.1719 155.8906 120.1719 Q155.5625 120.1719 155.3359 119.9453 Q155.1094 119.7188 155.1094 119.3906 ZM153.8125 111.6406 Q154.4375 111.3594 155 111.2266 Q155.5625 111.0938 156.0469 111.0938 Q157.3438 111.0938 158.1016 111.7188 Q158.8594 112.3438 158.8594 113.4062 Q158.8594 114.5 158.2109 115.1953 Q157.5625 115.8906 156.25 116.1875 L156.25 117.6719 L155.5312 117.6719 L155.5312 115.75 Q156.5625 115.5 157.0938 114.9062 Q157.625 114.3125 157.625 113.4062 Q157.625 112.5938 157.1953 112.1328 Q156.7656 111.6719 156.0312 111.6719 Q155.3594 111.6719 154.9297 112.0547 Q154.5 112.4375 154.3906 113.1562 L153.8125 113.1562 L153.8125 111.6406 Z" style="fill:black; stroke:none;" /></g><g ID="l-1:5,13" style="text-rendering:optimizeSpeed;"><polygon points=" 197 41 145 41" style="fill:none;" /></g><g ID="r-1:5" style="fill:white; text-rendering:optimizeSpeed; stroke:white;" wurcs_mono_id="12"><circle cx="197" cy="41" r="11" style="clip-path:url(#clipPath12); stroke:none;" /><rect height="22" style="clip-path:url(#clipPath12); fill:rgb(0,166,81); stroke:none;" width="22" x="186" y="30" /><rect height="22" style="clip-path:url(#clipPath12); fill:none; stroke:black;" width="22" x="186" y="30" /><circle cx="197" cy="41" r="11" style="fill:none; stroke:black;" /></g><g ID="l-1:13,14" style="text-rendering:optimizeSpeed;"><polygon points=" 145 41 93 41" style="fill:none;" /></g><g ID="r-1:13" style="fill:white; text-rendering:optimizeSpeed; stroke:white;" wurcs_mono_id="13"><rect height="22" style="clip-path:url(#clipPath13); stroke:none;" width="22" x="134" y="30" /><rect height="22" style="clip-path:url(#clipPath13); fill:rgb(0,144,188); stroke:none;" width="22" x="134" y="30" /><rect height="22" style="clip-path:url(#clipPath13); fill:none; stroke:black;" width="22" x="134" y="30" /><rect height="22" style="fill:none; stroke:black;" width="22" x="134" y="30" /></g><g ID="l-1:14,15" style="text-rendering:optimizeSpeed;"><polygon points=" 93 41 41 41" style="fill:none;" /></g><g ID="r-1:14" style="fill:white; text-rendering:optimizeSpeed; stroke:white;" wurcs_mono_id="14"><circle cx="93" cy="41" r="11" style="clip-path:url(#clipPath14); stroke:none;" /><rect height="22" style="clip-path:url(#clipPath14); fill:rgb(255,212,0); stroke:none;" width="22" x="82" y="30" /><rect height="22" style="clip-path:url(#clipPath14); fill:none; stroke:black;" width="22" x="82" y="30" /><circle cx="93" cy="41" r="11" style="fill:none; stroke:black;" /></g><g ID="r-1:15" style="fill:white; text-rendering:optimizeSpeed; stroke:white;" wurcs_mono_id="15"><polygon points=" 41 30 52 41 41 52 30 41" style="stroke:none; clip-path:url(#clipPath15);" /><rect height="22" style="clip-path:url(#clipPath15); fill:rgb(165,67,153); stroke:none;" width="22" x="30" y="30" /><rect height="22" style="clip-path:url(#clipPath15); fill:none; stroke:black;" width="22" x="30" y="30" /><polygon points=" 41 30 52 41 41 52 30 41" style="fill:none; stroke:black;" /></g><g ID="li-1:14,15" style="fill:white; text-rendering:optimizeSpeed; font-family:'Serif'; stroke:white;"><rect height="10" style="stroke:none;" width="6" x="71" y="44" /><path d="M73.1094 53.3906 Q73.1094 53.0625 73.3359 52.8359 Q73.5625 52.6094 73.8906 52.6094 Q74.2188 52.6094 74.4453 52.8359 Q74.6719 53.0625 74.6719 53.3906 Q74.6719 53.7188 74.4453 53.9453 Q74.2188 54.1719 73.8906 54.1719 Q73.5625 54.1719 73.3359 53.9453 Q73.1094 53.7188 73.1094 53.3906 ZM71.8125 45.6406 Q72.4375 45.3594 73 45.2266 Q73.5625 45.0938 74.0469 45.0938 Q75.3438 45.0938 76.1016 45.7188 Q76.8594 46.3438 76.8594 47.4062 Q76.8594 48.5 76.2109 49.1953 Q75.5625 49.8906 74.25 50.1875 L74.25 51.6719 L73.5312 51.6719 L73.5312 49.75 Q74.5625 49.5 75.0938 48.9062 Q75.625 48.3125 75.625 47.4062 Q75.625 46.5938 75.1953 46.1328 Q74.7656 45.6719 74.0312 45.6719 Q73.3594 45.6719 72.9297 46.0547 Q72.5 46.4375 72.3906 47.1562 L71.8125 47.1562 L71.8125 45.6406 Z" style="fill:black; stroke:none;" /><rect height="10" style="stroke:none;" width="6" x="57" y="44" /><path d="M59.1094 53.3906 Q59.1094 53.0625 59.3359 52.8359 Q59.5625 52.6094 59.8906 52.6094 Q60.2188 52.6094 60.4453 52.8359 Q60.6719 53.0625 60.6719 53.3906 Q60.6719 53.7188 60.4453 53.9453 Q60.2188 54.1719 59.8906 54.1719 Q59.5625 54.1719 59.3359 53.9453 Q59.1094 53.7188 59.1094 53.3906 ZM57.8125 45.6406 Q58.4375 45.3594 59 45.2266 Q59.5625 45.0938 60.0469 45.0938 Q61.3438 45.0938 62.1016 45.7188 Q62.8594 46.3438 62.8594 47.4062 Q62.8594 48.5 62.2109 49.1953 Q61.5625 49.8906 60.25 50.1875 L60.25 51.6719 L59.5312 51.6719 L59.5312 49.75 Q60.5625 49.5 61.0938 48.9062 Q61.625 48.3125 61.625 47.4062 Q61.625 46.5938 61.1953 46.1328 Q60.7656 45.6719 60.0312 45.6719 Q59.3594 45.6719 58.9297 46.0547 Q58.5 46.4375 58.3906 47.1562 L57.8125 47.1562 L57.8125 45.6406 Z" style="fill:black; stroke:none;" /></g><g ID="li-1:13,14" style="fill:white; text-rendering:optimizeSpeed; font-family:'Serif'; stroke:white;"><rect height="10" style="stroke:none;" width="6" x="123" y="44" /><path d="M125.1094 53.3906 Q125.1094 53.0625 125.3359 52.8359 Q125.5625 52.6094 125.8906 52.6094 Q126.2188 52.6094 126.4453 52.8359 Q126.6719 53.0625 126.6719 53.3906 Q126.6719 53.7188 126.4453 53.9453 Q126.2188 54.1719 125.8906 54.1719 Q125.5625 54.1719 125.3359 53.9453 Q125.1094 53.7188 125.1094 53.3906 ZM123.8125 45.6406 Q124.4375 45.3594 125 45.2266 Q125.5625 45.0938 126.0469 45.0938 Q127.3438 45.0938 128.1016 45.7188 Q128.8594 46.3438 128.8594 47.4062 Q128.8594 48.5 128.2109 49.1953 Q127.5625 49.8906 126.25 50.1875 L126.25 51.6719 L125.5312 51.6719 L125.5312 49.75 Q126.5625 49.5 127.0938 48.9062 Q127.625 48.3125 127.625 47.4062 Q127.625 46.5938 127.1953 46.1328 Q126.7656 45.6719 126.0312 45.6719 Q125.3594 45.6719 124.9297 46.0547 Q124.5 46.4375 124.3906 47.1562 L123.8125 47.1562 L123.8125 45.6406 Z" style="fill:black; stroke:none;" /><rect height="10" style="stroke:none;" width="6" x="109" y="44" /><path d="M111.1094 53.3906 Q111.1094 53.0625 111.3359 52.8359 Q111.5625 52.6094 111.8906 52.6094 Q112.2188 52.6094 112.4453 52.8359 Q112.6719 53.0625 112.6719 53.3906 Q112.6719 53.7188 112.4453 53.9453 Q112.2188 54.1719 111.8906 54.1719 Q111.5625 54.1719 111.3359 53.9453 Q111.1094 53.7188 111.1094 53.3906 ZM109.8125 45.6406 Q110.4375 45.3594 111 45.2266 Q111.5625 45.0938 112.0469 45.0938 Q113.3438 45.0938 114.1016 45.7188 Q114.8594 46.3438 114.8594 47.4062 Q114.8594 48.5 114.2109 49.1953 Q113.5625 49.8906 112.25 50.1875 L112.25 51.6719 L111.5312 51.6719 L111.5312 49.75 Q112.5625 49.5 113.0938 48.9062 Q113.625 48.3125 113.625 47.4062 Q113.625 46.5938 113.1953 46.1328 Q112.7656 45.6719 112.0312 45.6719 Q111.3594 45.6719 110.9297 46.0547 Q110.5 46.4375 110.3906 47.1562 L109.8125 47.1562 L109.8125 45.6406 Z" style="fill:black; stroke:none;" /></g><g ID="li-1:5,13" style="fill:white; text-rendering:optimizeSpeed; font-family:'Serif'; stroke:white;"><rect height="10" style="stroke:none;" width="6" x="175" y="44" /><path d="M177.1094 53.3906 Q177.1094 53.0625 177.3359 52.8359 Q177.5625 52.6094 177.8906 52.6094 Q178.2188 52.6094 178.4453 52.8359 Q178.6719 53.0625 178.6719 53.3906 Q178.6719 53.7188 178.4453 53.9453 Q178.2188 54.1719 177.8906 54.1719 Q177.5625 54.1719 177.3359 53.9453 Q177.1094 53.7188 177.1094 53.3906 ZM175.8125 45.6406 Q176.4375 45.3594 177 45.2266 Q177.5625 45.0938 178.0469 45.0938 Q179.3438 45.0938 180.1016 45.7188 Q180.8594 46.3438 180.8594 47.4062 Q180.8594 48.5 180.2109 49.1953 Q179.5625 49.8906 178.25 50.1875 L178.25 51.6719 L177.5312 51.6719 L177.5312 49.75 Q178.5625 49.5 179.0938 48.9062 Q179.625 48.3125 179.625 47.4062 Q179.625 46.5938 179.1953 46.1328 Q178.7656 45.6719 178.0312 45.6719 Q177.3594 45.6719 176.9297 46.0547 Q176.5 46.4375 176.3906 47.1562 L175.8125 47.1562 L175.8125 45.6406 Z" style="fill:black; stroke:none;" /><rect height="10" style="stroke:none;" width="6" x="161" y="44" /><path d="M163.1094 53.3906 Q163.1094 53.0625 163.3359 52.8359 Q163.5625 52.6094 163.8906 52.6094 Q164.2188 52.6094 164.4453 52.8359 Q164.6719 53.0625 164.6719 53.3906 Q164.6719 53.7188 164.4453 53.9453 Q164.2188 54.1719 163.8906 54.1719 Q163.5625 54.1719 163.3359 53.9453 Q163.1094 53.7188 163.1094 53.3906 ZM161.8125 45.6406 Q162.4375 45.3594 163 45.2266 Q163.5625 45.0938 164.0469 45.0938 Q165.3438 45.0938 166.1016 45.7188 Q166.8594 46.3438 166.8594 47.4062 Q166.8594 48.5 166.2109 49.1953 Q165.5625 49.8906 164.25 50.1875 L164.25 51.6719 L163.5312 51.6719 L163.5312 49.75 Q164.5625 49.5 165.0938 48.9062 Q165.625 48.3125 165.625 47.4062 Q165.625 46.5938 165.1953 46.1328 Q164.7656 45.6719 164.0312 45.6719 Q163.3594 45.6719 162.9297 46.0547 Q162.5 46.4375 162.3906 47.1562 L161.8125 47.1562 L161.8125 45.6406 Z" style="fill:black; stroke:none;" /></g><g ID="li-1:3,4" style="fill:white; text-rendering:optimizeSpeed; font-family:'Serif'; stroke:white;"><rect height="10" style="stroke:none;" width="6" x="235" y="110" /><path d="M237.1094 119.3906 Q237.1094 119.0625 237.3359 118.8359 Q237.5625 118.6094 237.8906 118.6094 Q238.2188 118.6094 238.4453 118.8359 Q238.6719 119.0625 238.6719 119.3906 Q238.6719 119.7188 238.4453 119.9453 Q238.2188 120.1719 237.8906 120.1719 Q237.5625 120.1719 237.3359 119.9453 Q237.1094 119.7188 237.1094 119.3906 ZM235.8125 111.6406 Q236.4375 111.3594 237 111.2266 Q237.5625 111.0938 238.0469 111.0938 Q239.3438 111.0938 240.1016 111.7188 Q240.8594 112.3438 240.8594 113.4062 Q240.8594 114.5 240.2109 115.1953 Q239.5625 115.8906 238.25 116.1875 L238.25 117.6719 L237.5312 117.6719 L237.5312 115.75 Q238.5625 115.5 239.0938 114.9062 Q239.625 114.3125 239.625 113.4062 Q239.625 112.5938 239.1953 112.1328 Q238.7656 111.6719 238.0312 111.6719 Q237.3594 111.6719 236.9297 112.0547 Q236.5 112.4375 236.3906 113.1562 L235.8125 113.1562 L235.8125 111.6406 Z" style="fill:black; stroke:none;" /><rect height="10" style="stroke:none;" width="6" x="216" y="129" /><path d="M218.1094 138.3906 Q218.1094 138.0625 218.3359 137.8359 Q218.5625 137.6094 218.8906 137.6094 Q219.2188 137.6094 219.4453 137.8359 Q219.6719 138.0625 219.6719 138.3906 Q219.6719 138.7188 219.4453 138.9453 Q219.2188 139.1719 218.8906 139.1719 Q218.5625 139.1719 218.3359 138.9453 Q218.1094 138.7188 218.1094 138.3906 ZM216.8125 130.6406 Q217.4375 130.3594 218 130.2266 Q218.5625 130.0938 219.0469 130.0938 Q220.3438 130.0938 221.1016 130.7188 Q221.8594 131.3438 221.8594 132.4062 Q221.8594 133.5 221.2109 134.1953 Q220.5625 134.8906 219.25 135.1875 L219.25 136.6719 L218.5312 136.6719 L218.5312 134.75 Q219.5625 134.5 220.0938 133.9062 Q220.625 133.3125 220.625 132.4062 Q220.625 131.5938 220.1953 131.1328 Q219.7656 130.6719 219.0312 130.6719 Q218.3594 130.6719 217.9297 131.0547 Q217.5 131.4375 217.3906 132.1562 L216.8125 132.1562 L216.8125 130.6406 Z" style="fill:black; stroke:none;" /></g><g ID="li-1:3,5" style="fill:white; text-rendering:optimizeSpeed; font-family:'Serif'; stroke:white;"><rect height="10" style="stroke:none;" width="6" x="223" y="77" /><path d="M225.1094 86.3906 Q225.1094 86.0625 225.3359 85.8359 Q225.5625 85.6094 225.8906 85.6094 Q226.2188 85.6094 226.4453 85.8359 Q226.6719 86.0625 226.6719 86.3906 Q226.6719 86.7188 226.4453 86.9453 Q226.2188 87.1719 225.8906 87.1719 Q225.5625 87.1719 225.3359 86.9453 Q225.1094 86.7188 225.1094 86.3906 ZM223.8125 78.6406 Q224.4375 78.3594 225 78.2266 Q225.5625 78.0938 226.0469 78.0938 Q227.3438 78.0938 228.1016 78.7188 Q228.8594 79.3438 228.8594 80.4062 Q228.8594 81.5 228.2109 82.1953 Q227.5625 82.8906 226.25 83.1875 L226.25 84.6719 L225.5312 84.6719 L225.5312 82.75 Q226.5625 82.5 227.0938 81.9062 Q227.625 81.3125 227.625 80.4062 Q227.625 79.5938 227.1953 79.1328 Q226.7656 78.6719 226.0312 78.6719 Q225.3594 78.6719 224.9297 79.0547 Q224.5 79.4375 224.3906 80.1562 L223.8125 80.1562 L223.8125 78.6406 Z" style="fill:black; stroke:none;" /><rect height="10" style="stroke:none;" width="6" x="205" y="58" /><path d="M207.1094 67.3906 Q207.1094 67.0625 207.3359 66.8359 Q207.5625 66.6094 207.8906 66.6094 Q208.2188 66.6094 208.4453 66.8359 Q208.6719 67.0625 208.6719 67.3906 Q208.6719 67.7188 208.4453 67.9453 Q208.2188 68.1719 207.8906 68.1719 Q207.5625 68.1719 207.3359 67.9453 Q207.1094 67.7188 207.1094 67.3906 ZM205.8125 59.6406 Q206.4375 59.3594 207 59.2266 Q207.5625 59.0938 208.0469 59.0938 Q209.3438 59.0938 210.1016 59.7188 Q210.8594 60.3438 210.8594 61.4062 Q210.8594 62.5 210.2109 63.1953 Q209.5625 63.8906 208.25 64.1875 L208.25 65.6719 L207.5312 65.6719 L207.5312 63.75 Q208.5625 63.5 209.0938 62.9062 Q209.625 62.3125 209.625 61.4062 Q209.625 60.5938 209.1953 60.1328 Q208.7656 59.6719 208.0312 59.6719 Q207.3594 59.6719 206.9297 60.0547 Q206.5 60.4375 206.3906 61.1562 L205.8125 61.1562 L205.8125 59.6406 Z" style="fill:black; stroke:none;" /></g><g ID="li-1:2,3" style="fill:white; text-rendering:optimizeSpeed; font-family:'Serif'; stroke:white;"><rect height="10" style="stroke:none;" width="6" x="279" y="96" /><path d="M281.1094 105.3906 Q281.1094 105.0625 281.3359 104.8359 Q281.5625 104.6094 281.8906 104.6094 Q282.2188 104.6094 282.4453 104.8359 Q282.6719 105.0625 282.6719 105.3906 Q282.6719 105.7188 282.4453 105.9453 Q282.2188 106.1719 281.8906 106.1719 Q281.5625 106.1719 281.3359 105.9453 Q281.1094 105.7188 281.1094 105.3906 ZM279.8125 97.6406 Q280.4375 97.3594 281 97.2266 Q281.5625 97.0938 282.0469 97.0938 Q283.3438 97.0938 284.1016 97.7188 Q284.8594 98.3438 284.8594 99.4062 Q284.8594 100.5 284.2109 101.1953 Q283.5625 101.8906 282.25 102.1875 L282.25 103.6719 L281.5312 103.6719 L281.5312 101.75 Q282.5625 101.5 283.0938 100.9062 Q283.625 100.3125 283.625 99.4062 Q283.625 98.5938 283.1953 98.1328 Q282.7656 97.6719 282.0312 97.6719 Q281.3594 97.6719 280.9297 98.0547 Q280.5 98.4375 280.3906 99.1562 L279.8125 99.1562 L279.8125 97.6406 Z" style="fill:black; stroke:none;" /><rect height="10" style="stroke:none;" width="6" x="265" y="96" /><path d="M267.1094 105.3906 Q267.1094 105.0625 267.3359 104.8359 Q267.5625 104.6094 267.8906 104.6094 Q268.2188 104.6094 268.4453 104.8359 Q268.6719 105.0625 268.6719 105.3906 Q268.6719 105.7188 268.4453 105.9453 Q268.2188 106.1719 267.8906 106.1719 Q267.5625 106.1719 267.3359 105.9453 Q267.1094 105.7188 267.1094 105.3906 ZM265.8125 97.6406 Q266.4375 97.3594 267 97.2266 Q267.5625 97.0938 268.0469 97.0938 Q269.3438 97.0938 270.1016 97.7188 Q270.8594 98.3438 270.8594 99.4062 Q270.8594 100.5 270.2109 101.1953 Q269.5625 101.8906 268.25 102.1875 L268.25 103.6719 L267.5312 103.6719 L267.5312 101.75 Q268.5625 101.5 269.0938 100.9062 Q269.625 100.3125 269.625 99.4062 Q269.625 98.5938 269.1953 98.1328 Q268.7656 97.6719 268.0312 97.6719 Q267.3594 97.6719 266.9297 98.0547 Q266.5 98.4375 266.3906 99.1562 L265.8125 99.1562 L265.8125 97.6406 Z" style="fill:black; stroke:none;" /></g><g ID="li-1:1,2" style="fill:white; text-rendering:optimizeSpeed; font-family:'Serif'; stroke:white;"><rect height="10" style="stroke:none;" width="6" x="331" y="96" /><path d="M333.1094 105.3906 Q333.1094 105.0625 333.3359 104.8359 Q333.5625 104.6094 333.8906 104.6094 Q334.2188 104.6094 334.4453 104.8359 Q334.6719 105.0625 334.6719 105.3906 Q334.6719 105.7188 334.4453 105.9453 Q334.2188 106.1719 333.8906 106.1719 Q333.5625 106.1719 333.3359 105.9453 Q333.1094 105.7188 333.1094 105.3906 ZM331.8125 97.6406 Q332.4375 97.3594 333 97.2266 Q333.5625 97.0938 334.0469 97.0938 Q335.3438 97.0938 336.1016 97.7188 Q336.8594 98.3438 336.8594 99.4062 Q336.8594 100.5 336.2109 101.1953 Q335.5625 101.8906 334.25 102.1875 L334.25 103.6719 L333.5312 103.6719 L333.5312 101.75 Q334.5625 101.5 335.0938 100.9062 Q335.625 100.3125 335.625 99.4062 Q335.625 98.5938 335.1953 98.1328 Q334.7656 97.6719 334.0312 97.6719 Q333.3594 97.6719 332.9297 98.0547 Q332.5 98.4375 332.3906 99.1562 L331.8125 99.1562 L331.8125 97.6406 Z" style="fill:black; stroke:none;" /><rect height="10" style="stroke:none;" width="6" x="317" y="96" /><path d="M319.1094 105.3906 Q319.1094 105.0625 319.3359 104.8359 Q319.5625 104.6094 319.8906 104.6094 Q320.2188 104.6094 320.4453 104.8359 Q320.6719 105.0625 320.6719 105.3906 Q320.6719 105.7188 320.4453 105.9453 Q320.2188 106.1719 319.8906 106.1719 Q319.5625 106.1719 319.3359 105.9453 Q319.1094 105.7188 319.1094 105.3906 ZM317.8125 97.6406 Q318.4375 97.3594 319 97.2266 Q319.5625 97.0938 320.0469 97.0938 Q321.3438 97.0938 322.1016 97.7188 Q322.8594 98.3438 322.8594 99.4062 Q322.8594 100.5 322.2109 101.1953 Q321.5625 101.8906 320.25 102.1875 L320.25 103.6719 L319.5312 103.6719 L319.5312 101.75 Q320.5625 101.5 321.0938 100.9062 Q321.625 100.3125 321.625 99.4062 Q321.625 98.5938 321.1953 98.1328 Q320.7656 97.6719 320.0312 97.6719 Q319.3594 97.6719 318.9297 98.0547 Q318.5 98.4375 318.3906 99.1562 L317.8125 99.1562 L317.8125 97.6406 Z" style="fill:black; stroke:none;" /></g></g></svg>