<svg xmlns="http://www.w3.org/2000/svg" style="fill-opacity:1; color-rendering:auto; color-interpolation:auto; text-rendering:auto; stroke:black; stroke-linecap:square; stroke-miterlimit:10; shape-rendering:auto; stroke-opacity:1; fill:black; stroke-dasharray:none; font-weight:normal; stroke-width:1; font-family:'Dialog'; font-style:normal; stroke-linejoin:miter; font-size:12px; stroke-dashoffset:0; image-rendering:auto;"><defs id="genericDefs" /><g><defs id="defs1"><clipPath clipPathUnits="userSpaceOnUse" id="clipPath1"><path d="M342 114 L364 114 L364 136 L342 136 L342 114 Z" /></clipPath><clipPath clipPathUnits="userSpaceOnUse" id="clipPath2"><path d="M290 114 L312 114 L312 136 L290 136 L290 114 Z" /></clipPath><clipPath clipPathUnits="userSpaceOnUse" id="clipPath3"><path d="M260 125 C260 131.0751 255.0751 136 249 136 C242.9249 136 238 131.0751 238 125 C238 118.9249 242.9249 114 249 114 C255.0751 114 260 118.9249 260 125 Z" /></clipPath><clipPath clipPathUnits="userSpaceOnUse" id="clipPath4"><path d="M208 184 C208 190.0751 203.0751 195 197 195 C190.9249 195 186 190.0751 186 184 C186 177.9249 190.9249 173 197 173 C203.0751 173 208 177.9249 208 184 Z" /></clipPath><clipPath clipPathUnits="userSpaceOnUse" id="clipPath5"><path d="M156 223 C156 229.0751 151.0751 234 145 234 C138.9249 234 134 229.0751 134 223 C134 216.9249 138.9249 212 145 212 C151.0751 212 156 216.9249 156 223 Z" /></clipPath><clipPath clipPathUnits="userSpaceOnUse" id="clipPath6"><path d="M104 223 C104 229.0751 99.0751 234 93 234 C86.9249 234 82 229.0751 82 223 C82 216.9249 86.9249 212 93 212 C99.0751 212 104 216.9249 104 223 Z" /></clipPath><clipPath clipPathUnits="userSpaceOnUse" id="clipPath7"><path d="M156 145 C156 151.0751 151.0751 156 145 156 C138.9249 156 134 151.0751 134 145 C134 138.9249 138.9249 134 145 134 C151.0751 134 156 138.9249 156 145 Z" /></clipPath><clipPath clipPathUnits="userSpaceOnUse" id="clipPath8"><path d="M104 171 C104 177.0751 99.0751 182 93 182 C86.9249 182 82 177.0751 82 171 C82 164.9249 86.9249 160 93 160 C99.0751 160 104 164.9249 104 171 Z" /></clipPath><clipPath clipPathUnits="userSpaceOnUse" id="clipPath9"><path d="M104 119 C104 125.0751 99.0751 130 93 130 C86.9249 130 82 125.0751 82 119 C82 112.9249 86.9249 108 93 108 C99.0751 108 104 112.9249 104 119 Z" /></clipPath><clipPath clipPathUnits="userSpaceOnUse" id="clipPath10"><path d="M52 119 C52 125.0751 47.0751 130 41 130 C34.9249 130 30 125.0751 30 119 C30 112.9249 34.9249 108 41 108 C47.0751 108 52 112.9249 52 119 Z" /></clipPath><clipPath clipPathUnits="userSpaceOnUse" id="clipPath11"><path d="M208 67 C208 73.0751 203.0751 78 197 78 C190.9249 78 186 73.0751 186 67 C186 60.9249 190.9249 56 197 56 C203.0751 56 208 60.9249 208 67 Z" /></clipPath><clipPath clipPathUnits="userSpaceOnUse" id="clipPath12"><path d="M156 93 C156 99.0751 151.0751 104 145 104 C138.9249 104 134 99.0751 134 93 C134 86.9249 138.9249 82 145 82 C151.0751 82 156 86.9249 156 93 Z" /></clipPath><clipPath clipPathUnits="userSpaceOnUse" id="clipPath13"><path d="M156 41 C156 47.0751 151.0751 52 145 52 C138.9249 52 134 47.0751 134 41 C134 34.9249 138.9249 30 145 30 C151.0751 30 156 34.9249 156 41 Z" /></clipPath><clipPath clipPathUnits="userSpaceOnUse" id="clipPath14"><path d="M104 41 C104 47.0751 99.0751 52 93 52 C86.9249 52 82 47.0751 82 41 C82 34.9249 86.9249 30 93 30 C99.0751 30 104 34.9249 104 41 Z" /></clipPath></defs><g style="fill:white; text-rendering:optimizeSpeed; stroke:white;"><rect height="264" style="stroke:none;" width="394" x="0" y="0" /></g><g ID="l-1:1,2" style="text-rendering:optimizeSpeed;"><polygon points=" 353 125 301 125" style="fill:none;" /></g><g ID="r-1:1" style="fill:white; text-rendering:optimizeSpeed; stroke:white;" wurcs_mono_id="1"><rect height="22" style="clip-path:url(#clipPath1); stroke:none;" width="22" x="342" y="114" /><rect height="22" style="clip-path:url(#clipPath1); fill:rgb(0,144,188); stroke:none;" width="22" x="342" y="114" /><rect height="22" style="clip-path:url(#clipPath1); fill:none; stroke:black;" width="22" x="342" y="114" /><rect height="22" style="fill:none; stroke:black;" width="22" x="342" y="114" /></g><g ID="l-1:2,3" style="text-rendering:optimizeSpeed;"><polygon points=" 301 125 249 125" style="fill:none;" /></g><g ID="r-1:2" style="fill:white; text-rendering:optimizeSpeed; stroke:white;" wurcs_mono_id="2"><rect height="22" style="clip-path:url(#clipPath2); stroke:none;" width="22" x="290" y="114" /><rect height="22" style="clip-path:url(#clipPath2); fill:rgb(0,144,188); stroke:none;" width="22" x="290" y="114" /><rect height="22" style="clip-path:url(#clipPath2); fill:none; stroke:black;" width="22" x="290" y="114" /><rect height="22" style="fill:none; stroke:black;" width="22" x="290" y="114" /></g><g ID="l-1:3,4" style="text-rendering:optimizeSpeed;"><polygon points=" 249 125 197 184" style="fill:none;" /></g><g ID="l-1:3,5" style="text-rendering:optimizeSpeed;"><polygon points=" 249 125 197 67" style="fill:none;" /></g><g ID="r-1:3" style="fill:white; text-rendering:optimizeSpeed; stroke:white;" wurcs_mono_id="3"><circle cx="249" cy="125" r="11" style="clip-path:url(#clipPath3); stroke:none;" /><rect height="22" style="clip-path:url(#clipPath3); fill:rgb(0,166,81); stroke:none;" width="22" x="238" y="114" /><rect height="22" style="clip-path:url(#clipPath3); fill:none; stroke:black;" width="22" x="238" y="114" /><circle cx="249" cy="125" r="11" style="fill:none; stroke:black;" /></g><g ID="l-1:4,6" style="text-rendering:optimizeSpeed;"><polygon points=" 197 184 145 223" style="fill:none;" /></g><g ID="l-1:4,7" style="text-rendering:optimizeSpeed;"><polygon points=" 197 184 145 145" style="fill:none;" /></g><g ID="r-1:4" style="fill:white; text-rendering:optimizeSpeed; stroke:white;" wurcs_mono_id="4"><circle cx="197" cy="184" r="11" style="clip-path:url(#clipPath4); stroke:none;" /><rect height="22" style="clip-path:url(#clipPath4); fill:rgb(0,166,81); stroke:none;" width="22" x="186" y="173" /><rect height="22" style="clip-path:url(#clipPath4); fill:none; stroke:black;" width="22" x="186" y="173" /><circle cx="197" cy="184" r="11" style="fill:none; stroke:black;" /></g><g ID="l-1:6,8" style="text-rendering:optimizeSpeed;"><polygon points=" 145 223 93 223" style="fill:none;" /></g><g ID="r-1:6" style="fill:white; text-rendering:optimizeSpeed; stroke:white;" wurcs_mono_id="5"><circle cx="145" cy="223" r="11" style="clip-path:url(#clipPath5); stroke:none;" /><rect height="22" style="clip-path:url(#clipPath5); fill:rgb(0,166,81); stroke:none;" width="22" x="134" y="212" /><rect height="22" style="clip-path:url(#clipPath5); fill:none; stroke:black;" width="22" x="134" y="212" /><circle cx="145" cy="223" r="11" style="fill:none; stroke:black;" /></g><g ID="r-1:8" style="fill:white; text-rendering:optimizeSpeed; stroke:white;" wurcs_mono_id="6"><circle cx="93" cy="223" r="11" style="clip-path:url(#clipPath6); stroke:none;" /><rect height="22" style="clip-path:url(#clipPath6); fill:rgb(0,166,81); stroke:none;" width="22" x="82" y="212" /><rect height="22" style="clip-path:url(#clipPath6); fill:none; stroke:black;" width="22" x="82" y="212" /><circle cx="93" cy="223" r="11" style="fill:none; stroke:black;" /></g><g ID="li-1:6,8" style="fill:white; text-rendering:optimizeSpeed; font-family:'Serif'; stroke:white;"><rect height="9" style="stroke:none;" width="7" x="122" y="226" /><path d="M123.5312 228.3438 L122.875 228.3438 L122.875 226.7812 Q123.5 226.4375 124.1406 226.2656 Q124.7812 226.0938 125.3906 226.0938 Q126.75 226.0938 127.5391 226.7578 Q128.3281 227.4219 128.3281 228.5469 Q128.3281 229.8438 126.5469 231.625 Q126.4062 231.7656 126.3281 231.8281 L124.125 234.0312 L127.7656 234.0312 L127.7656 232.9531 L128.4531 232.9531 L128.4531 235 L122.8125 235 L122.8125 234.3594 L125.4688 231.7188 Q126.3438 230.8281 126.7188 230.0938 Q127.0938 229.3594 127.0938 228.5469 Q127.0938 227.6719 126.6328 227.1719 Q126.1719 226.6719 125.375 226.6719 Q124.5312 226.6719 124.0781 227.0859 Q123.625 227.5 123.5312 228.3438 Z" style="fill:black; stroke:none;" /><rect height="8" style="stroke:none;" width="8" x="108" y="227" /><path d="M113.1875 233.4688 L112.9531 234.1094 Q112.7656 234.625 112.2031 234.9375 Q111.8438 235.1562 111.2031 235.1406 Q110.0469 235.1406 109.3281 234.2344 Q108.5938 233.3281 108.5938 231.8594 Q108.5938 230.4219 109.3281 229.4844 Q110.0156 228.5938 111.4531 228.6094 Q112.4531 228.6094 112.9531 229 Q113.4062 229.3438 113.5781 230.0938 L113.625 230.3125 L113.8438 229.6719 Q114.0625 229.0469 114.6562 228.75 L115.25 228.75 L115.25 229.0938 Q114.6875 229.2656 114.5 229.8125 L113.8906 231.4844 L114.2969 233.2812 Q114.5 234.2031 114.7344 234.2969 Q115.0469 234.4375 115.7812 234 L115.7812 234.7188 Q114.5938 235.4062 113.75 234.6875 Q113.375 234.3594 113.2656 233.875 L113.1875 233.4688 ZM112.9219 232.3125 L112.5625 230.5938 Q112.2656 229.2188 111.4688 229.2188 Q110.7969 229.2031 110.2812 229.9375 Q109.8594 230.5156 109.8594 231.875 Q109.8594 233.1719 110.2812 233.8281 Q110.75 234.5469 111.5312 234.5 Q112.2031 234.4375 112.6875 233 L112.9219 232.3125 Z" style="fill:black; stroke:none;" /></g><g ID="l-1:7,9" style="text-rendering:optimizeSpeed;"><polygon points=" 145 145 93 171" style="fill:none;" /></g><g ID="l-1:7,10" style="text-rendering:optimizeSpeed;"><polygon points=" 145 145 93 119" style="fill:none;" /></g><g ID="r-1:7" style="fill:white; text-rendering:optimizeSpeed; stroke:white;" wurcs_mono_id="7"><circle cx="145" cy="145" r="11" style="clip-path:url(#clipPath7); stroke:none;" /><rect height="22" style="clip-path:url(#clipPath7); fill:rgb(0,166,81); stroke:none;" width="22" x="134" y="134" /><rect height="22" style="clip-path:url(#clipPath7); fill:none; stroke:black;" width="22" x="134" y="134" /><circle cx="145" cy="145" r="11" style="fill:none; stroke:black;" /></g><g ID="r-1:9" style="fill:white; text-rendering:optimizeSpeed; stroke:white;" wurcs_mono_id="8"><circle cx="93" cy="171" r="11" style="clip-path:url(#clipPath8); stroke:none;" /><rect height="22" style="clip-path:url(#clipPath8); fill:rgb(0,166,81); stroke:none;" width="22" x="82" y="160" /><rect height="22" style="clip-path:url(#clipPath8); fill:none; stroke:black;" width="22" x="82" y="160" /><circle cx="93" cy="171" r="11" style="fill:none; stroke:black;" /></g><g ID="l-1:10,11" style="text-rendering:optimizeSpeed;"><polygon points=" 93 119 41 119" style="fill:none;" /></g><g ID="r-1:10" style="fill:white; text-rendering:optimizeSpeed; stroke:white;" wurcs_mono_id="9"><circle cx="93" cy="119" r="11" style="clip-path:url(#clipPath9); stroke:none;" /><rect height="22" style="clip-path:url(#clipPath9); fill:rgb(0,166,81); stroke:none;" width="22" x="82" y="108" /><rect height="22" style="clip-path:url(#clipPath9); fill:none; stroke:black;" width="22" x="82" y="108" /><circle cx="93" cy="119" r="11" style="fill:none; stroke:black;" /></g><g ID="r-1:11" style="fill:white; text-rendering:optimizeSpeed; stroke:white;" wurcs_mono_id="10"><circle cx="41" cy="119" r="11" style="clip-path:url(#clipPath10); stroke:none;" /><rect height="22" style="clip-path:url(#clipPath10); fill:rgb(0,166,81); stroke:none;" width="22" x="30" y="108" /><rect height="22" style="clip-path:url(#clipPath10); fill:none; stroke:black;" width="22" x="30" y="108" /><circle cx="41" cy="119" r="11" style="fill:none; stroke:black;" /></g><g ID="li-1:10,11" style="fill:white; text-rendering:optimizeSpeed; font-family:'Serif'; stroke:white;"><rect height="10" style="stroke:none;" width="7" x="70" y="122" /><path d="M73.9219 131.5938 Q74.75 131.5938 75.1953 130.9844 Q75.6406 130.375 75.6406 129.2344 Q75.6406 128.1094 75.1953 127.5 Q74.75 126.8906 73.9219 126.8906 Q73.0938 126.8906 72.6484 127.4766 Q72.2031 128.0625 72.2031 129.1719 Q72.2031 130.3281 72.6484 130.9609 Q73.0938 131.5938 73.9219 131.5938 ZM72.0156 127.1875 Q72.4219 126.75 72.9219 126.5312 Q73.4219 126.3125 74.0625 126.3125 Q75.3594 126.3125 76.1172 127.0938 Q76.875 127.875 76.875 129.2344 Q76.875 130.5625 76.0625 131.3672 Q75.25 132.1719 73.875 132.1719 Q72.3906 132.1719 71.5938 131.0625 Q70.7969 129.9531 70.7969 127.9062 Q70.7969 125.6094 71.7422 124.3516 Q72.6875 123.0938 74.4062 123.0938 Q74.875 123.0938 75.3828 123.1797 Q75.8906 123.2656 76.4219 123.4375 L76.4219 124.8906 L75.7656 124.8906 Q75.6875 124.2969 75.3047 123.9844 Q74.9219 123.6719 74.2812 123.6719 Q73.1406 123.6719 72.5859 124.5312 Q72.0312 125.3906 72.0156 127.1875 Z" style="fill:black; stroke:none;" /><rect height="8" style="stroke:none;" width="8" x="56" y="123" /><path d="M61.1875 129.4688 L60.9531 130.1094 Q60.7656 130.625 60.2031 130.9375 Q59.8438 131.1562 59.2031 131.1406 Q58.0469 131.1406 57.3281 130.2344 Q56.5938 129.3281 56.5938 127.8594 Q56.5938 126.4219 57.3281 125.4844 Q58.0156 124.5938 59.4531 124.6094 Q60.4531 124.6094 60.9531 125 Q61.4062 125.3438 61.5781 126.0938 L61.625 126.3125 L61.8438 125.6719 Q62.0625 125.0469 62.6562 124.75 L63.25 124.75 L63.25 125.0938 Q62.6875 125.2656 62.5 125.8125 L61.8906 127.4844 L62.2969 129.2812 Q62.5 130.2031 62.7344 130.2969 Q63.0469 130.4375 63.7812 130 L63.7812 130.7188 Q62.5938 131.4062 61.75 130.6875 Q61.375 130.3594 61.2656 129.875 L61.1875 129.4688 ZM60.9219 128.3125 L60.5625 126.5938 Q60.2656 125.2188 59.4688 125.2188 Q58.7969 125.2031 58.2812 125.9375 Q57.8594 126.5156 57.8594 127.875 Q57.8594 129.1719 58.2812 129.8281 Q58.75 130.5469 59.5312 130.5 Q60.2031 130.4375 60.6875 129 L60.9219 128.3125 Z" style="fill:black; stroke:none;" /></g><g ID="li-1:7,9" style="fill:white; text-rendering:optimizeSpeed; font-family:'Serif'; stroke:white;"><rect height="9" style="stroke:none;" width="7" x="126" y="156" /><path d="M127.5312 158.3438 L126.875 158.3438 L126.875 156.7812 Q127.5 156.4375 128.1406 156.2656 Q128.7812 156.0938 129.3906 156.0938 Q130.75 156.0938 131.5391 156.7578 Q132.3281 157.4219 132.3281 158.5469 Q132.3281 159.8438 130.5469 161.625 Q130.4062 161.7656 130.3281 161.8281 L128.125 164.0312 L131.7656 164.0312 L131.7656 162.9531 L132.4531 162.9531 L132.4531 165 L126.8125 165 L126.8125 164.3594 L129.4688 161.7188 Q130.3438 160.8281 130.7188 160.0938 Q131.0938 159.3594 131.0938 158.5469 Q131.0938 157.6719 130.6328 157.1719 Q130.1719 156.6719 129.375 156.6719 Q128.5312 156.6719 128.0781 157.0859 Q127.625 157.5 127.5312 158.3438 Z" style="fill:black; stroke:none;" /><rect height="8" style="stroke:none;" width="8" x="110" y="165" /><path d="M115.1875 171.4688 L114.9531 172.1094 Q114.7656 172.625 114.2031 172.9375 Q113.8438 173.1562 113.2031 173.1406 Q112.0469 173.1406 111.3281 172.2344 Q110.5938 171.3281 110.5938 169.8594 Q110.5938 168.4219 111.3281 167.4844 Q112.0156 166.5938 113.4531 166.6094 Q114.4531 166.6094 114.9531 167 Q115.4062 167.3438 115.5781 168.0938 L115.625 168.3125 L115.8438 167.6719 Q116.0625 167.0469 116.6562 166.75 L117.25 166.75 L117.25 167.0938 Q116.6875 167.2656 116.5 167.8125 L115.8906 169.4844 L116.2969 171.2812 Q116.5 172.2031 116.7344 172.2969 Q117.0469 172.4375 117.7812 172 L117.7812 172.7188 Q116.5938 173.4062 115.75 172.6875 Q115.375 172.3594 115.2656 171.875 L115.1875 171.4688 ZM114.9219 170.3125 L114.5625 168.5938 Q114.2656 167.2188 113.4688 167.2188 Q112.7969 167.2031 112.2812 167.9375 Q111.8594 168.5156 111.8594 169.875 Q111.8594 171.1719 112.2812 171.8281 Q112.75 172.5469 113.5312 172.5 Q114.2031 172.4375 114.6875 171 L114.9219 170.3125 Z" style="fill:black; stroke:none;" /></g><g ID="li-1:7,10" style="fill:white; text-rendering:optimizeSpeed; font-family:'Serif'; stroke:white;"><rect height="10" style="stroke:none;" width="7" x="119" y="138" /><path d="M122.9219 147.5938 Q123.75 147.5938 124.1953 146.9844 Q124.6406 146.375 124.6406 145.2344 Q124.6406 144.1094 124.1953 143.5 Q123.75 142.8906 122.9219 142.8906 Q122.0938 142.8906 121.6484 143.4766 Q121.2031 144.0625 121.2031 145.1719 Q121.2031 146.3281 121.6484 146.9609 Q122.0938 147.5938 122.9219 147.5938 ZM121.0156 143.1875 Q121.4219 142.75 121.9219 142.5312 Q122.4219 142.3125 123.0625 142.3125 Q124.3594 142.3125 125.1172 143.0938 Q125.875 143.875 125.875 145.2344 Q125.875 146.5625 125.0625 147.3672 Q124.25 148.1719 122.875 148.1719 Q121.3906 148.1719 120.5938 147.0625 Q119.7969 145.9531 119.7969 143.9062 Q119.7969 141.6094 120.7422 140.3516 Q121.6875 139.0938 123.4062 139.0938 Q123.875 139.0938 124.3828 139.1797 Q124.8906 139.2656 125.4219 139.4375 L125.4219 140.8906 L124.7656 140.8906 Q124.6875 140.2969 124.3047 139.9844 Q123.9219 139.6719 123.2812 139.6719 Q122.1406 139.6719 121.5859 140.5312 Q121.0312 141.3906 121.0156 143.1875 Z" style="fill:black; stroke:none;" /><rect height="8" style="stroke:none;" width="8" x="103" y="131" /><path d="M108.1875 137.4688 L107.9531 138.1094 Q107.7656 138.625 107.2031 138.9375 Q106.8438 139.1562 106.2031 139.1406 Q105.0469 139.1406 104.3281 138.2344 Q103.5938 137.3281 103.5938 135.8594 Q103.5938 134.4219 104.3281 133.4844 Q105.0156 132.5938 106.4531 132.6094 Q107.4531 132.6094 107.9531 133 Q108.4062 133.3438 108.5781 134.0938 L108.625 134.3125 L108.8438 133.6719 Q109.0625 133.0469 109.6562 132.75 L110.25 132.75 L110.25 133.0938 Q109.6875 133.2656 109.5 133.8125 L108.8906 135.4844 L109.2969 137.2812 Q109.5 138.2031 109.7344 138.2969 Q110.0469 138.4375 110.7812 138 L110.7812 138.7188 Q109.5938 139.4062 108.75 138.6875 Q108.375 138.3594 108.2656 137.875 L108.1875 137.4688 ZM107.9219 136.3125 L107.5625 134.5938 Q107.2656 133.2188 106.4688 133.2188 Q105.7969 133.2031 105.2812 133.9375 Q104.8594 134.5156 104.8594 135.875 Q104.8594 137.1719 105.2812 137.8281 Q105.75 138.5469 106.5312 138.5 Q107.2031 138.4375 107.6875 137 L107.9219 136.3125 Z" style="fill:black; stroke:none;" /></g><g ID="li-1:4,6" style="fill:white; text-rendering:optimizeSpeed; font-family:'Serif'; stroke:white;"><rect height="9" style="stroke:none;" width="7" x="180" y="198" /><path d="M181.5312 200.3438 L180.875 200.3438 L180.875 198.7812 Q181.5 198.4375 182.1406 198.2656 Q182.7812 198.0938 183.3906 198.0938 Q184.75 198.0938 185.5391 198.7578 Q186.3281 199.4219 186.3281 200.5469 Q186.3281 201.8438 184.5469 203.625 Q184.4062 203.7656 184.3281 203.8281 L182.125 206.0312 L185.7656 206.0312 L185.7656 204.9531 L186.4531 204.9531 L186.4531 207 L180.8125 207 L180.8125 206.3594 L183.4688 203.7188 Q184.3438 202.8281 184.7188 202.0938 Q185.0938 201.3594 185.0938 200.5469 Q185.0938 199.6719 184.6328 199.1719 Q184.1719 198.6719 183.375 198.6719 Q182.5312 198.6719 182.0781 199.0859 Q181.625 199.5 181.5312 200.3438 Z" style="fill:black; stroke:none;" /><rect height="8" style="stroke:none;" width="8" x="163" y="212" /><path d="M168.1875 218.4688 L167.9531 219.1094 Q167.7656 219.625 167.2031 219.9375 Q166.8438 220.1562 166.2031 220.1406 Q165.0469 220.1406 164.3281 219.2344 Q163.5938 218.3281 163.5938 216.8594 Q163.5938 215.4219 164.3281 214.4844 Q165.0156 213.5938 166.4531 213.6094 Q167.4531 213.6094 167.9531 214 Q168.4062 214.3438 168.5781 215.0938 L168.625 215.3125 L168.8438 214.6719 Q169.0625 214.0469 169.6562 213.75 L170.25 213.75 L170.25 214.0938 Q169.6875 214.2656 169.5 214.8125 L168.8906 216.4844 L169.2969 218.2812 Q169.5 219.2031 169.7344 219.2969 Q170.0469 219.4375 170.7812 219 L170.7812 219.7188 Q169.5938 220.4062 168.75 219.6875 Q168.375 219.3594 168.2656 218.875 L168.1875 218.4688 ZM167.9219 217.3125 L167.5625 215.5938 Q167.2656 214.2188 166.4688 214.2188 Q165.7969 214.2031 165.2812 214.9375 Q164.8594 215.5156 164.8594 216.875 Q164.8594 218.1719 165.2812 218.8281 Q165.75 219.5469 166.5312 219.5 Q167.2031 219.4375 167.6875 218 L167.9219 217.3125 Z" style="fill:black; stroke:none;" /></g><g ID="li-1:4,7" style="fill:white; text-rendering:optimizeSpeed; font-family:'Serif'; stroke:white;"><rect height="10" style="stroke:none;" width="7" x="171" y="172" /><path d="M174.9219 181.5938 Q175.75 181.5938 176.1953 180.9844 Q176.6406 180.375 176.6406 179.2344 Q176.6406 178.1094 176.1953 177.5 Q175.75 176.8906 174.9219 176.8906 Q174.0938 176.8906 173.6484 177.4766 Q173.2031 178.0625 173.2031 179.1719 Q173.2031 180.3281 173.6484 180.9609 Q174.0938 181.5938 174.9219 181.5938 ZM173.0156 177.1875 Q173.4219 176.75 173.9219 176.5312 Q174.4219 176.3125 175.0625 176.3125 Q176.3594 176.3125 177.1172 177.0938 Q177.875 177.875 177.875 179.2344 Q177.875 180.5625 177.0625 181.3672 Q176.25 182.1719 174.875 182.1719 Q173.3906 182.1719 172.5938 181.0625 Q171.7969 179.9531 171.7969 177.9062 Q171.7969 175.6094 172.7422 174.3516 Q173.6875 173.0938 175.4062 173.0938 Q175.875 173.0938 176.3828 173.1797 Q176.8906 173.2656 177.4219 173.4375 L177.4219 174.8906 L176.7656 174.8906 Q176.6875 174.2969 176.3047 173.9844 Q175.9219 173.6719 175.2812 173.6719 Q174.1406 173.6719 173.5859 174.5312 Q173.0312 175.3906 173.0156 177.1875 Z" style="fill:black; stroke:none;" /><rect height="8" style="stroke:none;" width="8" x="153" y="160" /><path d="M158.1875 166.4688 L157.9531 167.1094 Q157.7656 167.625 157.2031 167.9375 Q156.8438 168.1562 156.2031 168.1406 Q155.0469 168.1406 154.3281 167.2344 Q153.5938 166.3281 153.5938 164.8594 Q153.5938 163.4219 154.3281 162.4844 Q155.0156 161.5938 156.4531 161.6094 Q157.4531 161.6094 157.9531 162 Q158.4062 162.3438 158.5781 163.0938 L158.625 163.3125 L158.8438 162.6719 Q159.0625 162.0469 159.6562 161.75 L160.25 161.75 L160.25 162.0938 Q159.6875 162.2656 159.5 162.8125 L158.8906 164.4844 L159.2969 166.2812 Q159.5 167.2031 159.7344 167.2969 Q160.0469 167.4375 160.7812 167 L160.7812 167.7188 Q159.5938 168.4062 158.75 167.6875 Q158.375 167.3594 158.2656 166.875 L158.1875 166.4688 ZM157.9219 165.3125 L157.5625 163.5938 Q157.2656 162.2188 156.4688 162.2188 Q155.7969 162.2031 155.2812 162.9375 Q154.8594 163.5156 154.8594 164.875 Q154.8594 166.1719 155.2812 166.8281 Q155.75 167.5469 156.5312 167.5 Q157.2031 167.4375 157.6875 166 L157.9219 165.3125 Z" style="fill:black; stroke:none;" /></g><g ID="l-1:5,12" style="text-rendering:optimizeSpeed;"><polygon points=" 197 67 145 93" style="fill:none;" /></g><g ID="l-1:5,13" style="text-rendering:optimizeSpeed;"><polygon points=" 197 67 145 41" style="fill:none;" /></g><g ID="r-1:5" style="fill:white; text-rendering:optimizeSpeed; stroke:white;" wurcs_mono_id="11"><circle cx="197" cy="67" r="11" style="clip-path:url(#clipPath11); stroke:none;" /><rect height="22" style="clip-path:url(#clipPath11); fill:rgb(0,166,81); stroke:none;" width="22" x="186" y="56" /><rect height="22" style="clip-path:url(#clipPath11); fill:none; stroke:black;" width="22" x="186" y="56" /><circle cx="197" cy="67" r="11" style="fill:none; stroke:black;" /></g><g ID="r-1:12" style="fill:white; text-rendering:optimizeSpeed; stroke:white;" wurcs_mono_id="12"><circle cx="145" cy="93" r="11" style="clip-path:url(#clipPath12); stroke:none;" /><rect height="22" style="clip-path:url(#clipPath12); fill:rgb(0,166,81); stroke:none;" width="22" x="134" y="82" /><rect height="22" style="clip-path:url(#clipPath12); fill:none; stroke:black;" width="22" x="134" y="82" /><circle cx="145" cy="93" r="11" style="fill:none; stroke:black;" /></g><g ID="l-1:13,14" style="text-rendering:optimizeSpeed;"><polygon points=" 145 41 93 41" style="fill:none;" /></g><g ID="r-1:13" style="fill:white; text-rendering:optimizeSpeed; stroke:white;" wurcs_mono_id="13"><circle cx="145" cy="41" r="11" style="clip-path:url(#clipPath13); stroke:none;" /><rect height="22" style="clip-path:url(#clipPath13); fill:rgb(0,166,81); stroke:none;" width="22" x="134" y="30" /><rect height="22" style="clip-path:url(#clipPath13); fill:none; stroke:black;" width="22" x="134" y="30" /><circle cx="145" cy="41" r="11" style="fill:none; stroke:black;" /></g><g ID="r-1:14" style="fill:white; text-rendering:optimizeSpeed; stroke:white;" wurcs_mono_id="14"><circle cx="93" cy="41" r="11" style="clip-path:url(#clipPath14); stroke:none;" /><rect height="22" style="clip-path:url(#clipPath14); fill:rgb(0,166,81); stroke:none;" width="22" x="82" y="30" /><rect height="22" style="clip-path:url(#clipPath14); fill:none; stroke:black;" width="22" x="82" y="30" /><circle cx="93" cy="41" r="11" style="fill:none; stroke:black;" /></g><g ID="li-1:13,14" style="fill:white; text-rendering:optimizeSpeed; font-family:'Serif'; stroke:white;"><rect height="9" style="stroke:none;" width="7" x="122" y="44" /><path d="M123.5312 46.3438 L122.875 46.3438 L122.875 44.7812 Q123.5 44.4375 124.1406 44.2656 Q124.7812 44.0938 125.3906 44.0938 Q126.75 44.0938 127.5391 44.7578 Q128.3281 45.4219 128.3281 46.5469 Q128.3281 47.8438 126.5469 49.625 Q126.4062 49.7656 126.3281 49.8281 L124.125 52.0312 L127.7656 52.0312 L127.7656 50.9531 L128.4531 50.9531 L128.4531 53 L122.8125 53 L122.8125 52.3594 L125.4688 49.7188 Q126.3438 48.8281 126.7188 48.0938 Q127.0938 47.3594 127.0938 46.5469 Q127.0938 45.6719 126.6328 45.1719 Q126.1719 44.6719 125.375 44.6719 Q124.5312 44.6719 124.0781 45.0859 Q123.625 45.5 123.5312 46.3438 Z" style="fill:black; stroke:none;" /><rect height="8" style="stroke:none;" width="8" x="108" y="45" /><path d="M113.1875 51.4688 L112.9531 52.1094 Q112.7656 52.625 112.2031 52.9375 Q111.8438 53.1562 111.2031 53.1406 Q110.0469 53.1406 109.3281 52.2344 Q108.5938 51.3281 108.5938 49.8594 Q108.5938 48.4219 109.3281 47.4844 Q110.0156 46.5938 111.4531 46.6094 Q112.4531 46.6094 112.9531 47 Q113.4062 47.3438 113.5781 48.0938 L113.625 48.3125 L113.8438 47.6719 Q114.0625 47.0469 114.6562 46.75 L115.25 46.75 L115.25 47.0938 Q114.6875 47.2656 114.5 47.8125 L113.8906 49.4844 L114.2969 51.2812 Q114.5 52.2031 114.7344 52.2969 Q115.0469 52.4375 115.7812 52 L115.7812 52.7188 Q114.5938 53.4062 113.75 52.6875 Q113.375 52.3594 113.2656 51.875 L113.1875 51.4688 ZM112.9219 50.3125 L112.5625 48.5938 Q112.2656 47.2188 111.4688 47.2188 Q110.7969 47.2031 110.2812 47.9375 Q109.8594 48.5156 109.8594 49.875 Q109.8594 51.1719 110.2812 51.8281 Q110.75 52.5469 111.5312 52.5 Q112.2031 52.4375 112.6875 51 L112.9219 50.3125 Z" style="fill:black; stroke:none;" /></g><g ID="li-1:5,12" style="fill:white; text-rendering:optimizeSpeed; font-family:'Serif'; stroke:white;"><rect height="10" style="stroke:none;" width="7" x="178" y="78" /><path d="M179.1719 79.625 Q179.8594 79.3594 180.4844 79.2266 Q181.1094 79.0938 181.6562 79.0938 Q182.9531 79.0938 183.6719 79.6484 Q184.3906 80.2031 184.3906 81.1875 Q184.3906 81.9688 183.8906 82.5 Q183.3906 83.0312 182.4844 83.2188 Q183.5625 83.375 184.1562 84.0078 Q184.75 84.6406 184.75 85.6406 Q184.75 86.8594 183.9219 87.5156 Q183.0938 88.1719 181.5469 88.1719 Q180.8594 88.1719 180.2109 88.0234 Q179.5625 87.875 178.9219 87.5781 L178.9219 85.875 L179.5781 85.875 Q179.625 86.7188 180.1406 87.1562 Q180.6562 87.5938 181.5781 87.5938 Q182.4688 87.5938 182.9922 87.0703 Q183.5156 86.5469 183.5156 85.6562 Q183.5156 84.625 182.9766 84.0938 Q182.4375 83.5625 181.4062 83.5625 L180.8594 83.5625 L180.8594 82.9531 L181.1406 82.9531 Q182.1719 82.9531 182.6875 82.5312 Q183.2031 82.1094 183.2031 81.25 Q183.2031 80.4844 182.7812 80.0781 Q182.3594 79.6719 181.5625 79.6719 Q180.7656 79.6719 180.3359 80.0469 Q179.9062 80.4219 179.8281 81.1562 L179.1719 81.1562 L179.1719 79.625 Z" style="fill:black; stroke:none;" /><rect height="8" style="stroke:none;" width="8" x="162" y="87" /><path d="M167.1875 93.4688 L166.9531 94.1094 Q166.7656 94.625 166.2031 94.9375 Q165.8438 95.1562 165.2031 95.1406 Q164.0469 95.1406 163.3281 94.2344 Q162.5938 93.3281 162.5938 91.8594 Q162.5938 90.4219 163.3281 89.4844 Q164.0156 88.5938 165.4531 88.6094 Q166.4531 88.6094 166.9531 89 Q167.4062 89.3438 167.5781 90.0938 L167.625 90.3125 L167.8438 89.6719 Q168.0625 89.0469 168.6562 88.75 L169.25 88.75 L169.25 89.0938 Q168.6875 89.2656 168.5 89.8125 L167.8906 91.4844 L168.2969 93.2812 Q168.5 94.2031 168.7344 94.2969 Q169.0469 94.4375 169.7812 94 L169.7812 94.7188 Q168.5938 95.4062 167.75 94.6875 Q167.375 94.3594 167.2656 93.875 L167.1875 93.4688 ZM166.9219 92.3125 L166.5625 90.5938 Q166.2656 89.2188 165.4688 89.2188 Q164.7969 89.2031 164.2812 89.9375 Q163.8594 90.5156 163.8594 91.875 Q163.8594 93.1719 164.2812 93.8281 Q164.75 94.5469 165.5312 94.5 Q166.2031 94.4375 166.6875 93 L166.9219 92.3125 Z" style="fill:black; stroke:none;" /></g><g ID="li-1:5,13" style="fill:white; text-rendering:optimizeSpeed; font-family:'Serif'; stroke:white;"><rect height="10" style="stroke:none;" width="7" x="171" y="60" /><path d="M174.9219 69.5938 Q175.75 69.5938 176.1953 68.9844 Q176.6406 68.375 176.6406 67.2344 Q176.6406 66.1094 176.1953 65.5 Q175.75 64.8906 174.9219 64.8906 Q174.0938 64.8906 173.6484 65.4766 Q173.2031 66.0625 173.2031 67.1719 Q173.2031 68.3281 173.6484 68.9609 Q174.0938 69.5938 174.9219 69.5938 ZM173.0156 65.1875 Q173.4219 64.75 173.9219 64.5312 Q174.4219 64.3125 175.0625 64.3125 Q176.3594 64.3125 177.1172 65.0938 Q177.875 65.875 177.875 67.2344 Q177.875 68.5625 177.0625 69.3672 Q176.25 70.1719 174.875 70.1719 Q173.3906 70.1719 172.5938 69.0625 Q171.7969 67.9531 171.7969 65.9062 Q171.7969 63.6094 172.7422 62.3516 Q173.6875 61.0938 175.4062 61.0938 Q175.875 61.0938 176.3828 61.1797 Q176.8906 61.2656 177.4219 61.4375 L177.4219 62.8906 L176.7656 62.8906 Q176.6875 62.2969 176.3047 61.9844 Q175.9219 61.6719 175.2812 61.6719 Q174.1406 61.6719 173.5859 62.5312 Q173.0312 63.3906 173.0156 65.1875 Z" style="fill:black; stroke:none;" /><rect height="8" style="stroke:none;" width="8" x="155" y="53" /><path d="M160.1875 59.4688 L159.9531 60.1094 Q159.7656 60.625 159.2031 60.9375 Q158.8438 61.1562 158.2031 61.1406 Q157.0469 61.1406 156.3281 60.2344 Q155.5938 59.3281 155.5938 57.8594 Q155.5938 56.4219 156.3281 55.4844 Q157.0156 54.5938 158.4531 54.6094 Q159.4531 54.6094 159.9531 55 Q160.4062 55.3438 160.5781 56.0938 L160.625 56.3125 L160.8438 55.6719 Q161.0625 55.0469 161.6562 54.75 L162.25 54.75 L162.25 55.0938 Q161.6875 55.2656 161.5 55.8125 L160.8906 57.4844 L161.2969 59.2812 Q161.5 60.2031 161.7344 60.2969 Q162.0469 60.4375 162.7812 60 L162.7812 60.7188 Q161.5938 61.4062 160.75 60.6875 Q160.375 60.3594 160.2656 59.875 L160.1875 59.4688 ZM159.9219 58.3125 L159.5625 56.5938 Q159.2656 55.2188 158.4688 55.2188 Q157.7969 55.2031 157.2812 55.9375 Q156.8594 56.5156 156.8594 57.875 Q156.8594 59.1719 157.2812 59.8281 Q157.75 60.5469 158.5312 60.5 Q159.2031 60.4375 159.6875 59 L159.9219 58.3125 Z" style="fill:black; stroke:none;" /></g><g ID="li-1:3,4" style="fill:white; text-rendering:optimizeSpeed; font-family:'Serif'; stroke:white;"><rect height="10" style="stroke:none;" width="7" x="236" y="142" /><path d="M237.1719 143.625 Q237.8594 143.3594 238.4844 143.2266 Q239.1094 143.0938 239.6562 143.0938 Q240.9531 143.0938 241.6719 143.6484 Q242.3906 144.2031 242.3906 145.1875 Q242.3906 145.9688 241.8906 146.5 Q241.3906 147.0312 240.4844 147.2188 Q241.5625 147.375 242.1562 148.0078 Q242.75 148.6406 242.75 149.6406 Q242.75 150.8594 241.9219 151.5156 Q241.0938 152.1719 239.5469 152.1719 Q238.8594 152.1719 238.2109 152.0234 Q237.5625 151.875 236.9219 151.5781 L236.9219 149.875 L237.5781 149.875 Q237.625 150.7188 238.1406 151.1562 Q238.6562 151.5938 239.5781 151.5938 Q240.4688 151.5938 240.9922 151.0703 Q241.5156 150.5469 241.5156 149.6562 Q241.5156 148.625 240.9766 148.0938 Q240.4375 147.5625 239.4062 147.5625 L238.8594 147.5625 L238.8594 146.9531 L239.1406 146.9531 Q240.1719 146.9531 240.6875 146.5312 Q241.2031 146.1094 241.2031 145.25 Q241.2031 144.4844 240.7812 144.0781 Q240.3594 143.6719 239.5625 143.6719 Q238.7656 143.6719 238.3359 144.0469 Q237.9062 144.4219 237.8281 145.1562 L237.1719 145.1562 L237.1719 143.625 Z" style="fill:black; stroke:none;" /><rect height="8" style="stroke:none;" width="8" x="213" y="168" /><path d="M218.1875 174.4688 L217.9531 175.1094 Q217.7656 175.625 217.2031 175.9375 Q216.8438 176.1562 216.2031 176.1406 Q215.0469 176.1406 214.3281 175.2344 Q213.5938 174.3281 213.5938 172.8594 Q213.5938 171.4219 214.3281 170.4844 Q215.0156 169.5938 216.4531 169.6094 Q217.4531 169.6094 217.9531 170 Q218.4062 170.3438 218.5781 171.0938 L218.625 171.3125 L218.8438 170.6719 Q219.0625 170.0469 219.6562 169.75 L220.25 169.75 L220.25 170.0938 Q219.6875 170.2656 219.5 170.8125 L218.8906 172.4844 L219.2969 174.2812 Q219.5 175.2031 219.7344 175.2969 Q220.0469 175.4375 220.7812 175 L220.7812 175.7188 Q219.5938 176.4062 218.75 175.6875 Q218.375 175.3594 218.2656 174.875 L218.1875 174.4688 ZM217.9219 173.3125 L217.5625 171.5938 Q217.2656 170.2188 216.4688 170.2188 Q215.7969 170.2031 215.2812 170.9375 Q214.8594 171.5156 214.8594 172.875 Q214.8594 174.1719 215.2812 174.8281 Q215.75 175.5469 216.5312 175.5 Q217.2031 175.4375 217.6875 174 L217.9219 173.3125 Z" style="fill:black; stroke:none;" /></g><g ID="li-1:3,5" style="fill:white; text-rendering:optimizeSpeed; font-family:'Serif'; stroke:white;"><rect height="10" style="stroke:none;" width="7" x="224" y="108" /><path d="M227.9219 117.5938 Q228.75 117.5938 229.1953 116.9844 Q229.6406 116.375 229.6406 115.2344 Q229.6406 114.1094 229.1953 113.5 Q228.75 112.8906 227.9219 112.8906 Q227.0938 112.8906 226.6484 113.4766 Q226.2031 114.0625 226.2031 115.1719 Q226.2031 116.3281 226.6484 116.9609 Q227.0938 117.5938 227.9219 117.5938 ZM226.0156 113.1875 Q226.4219 112.75 226.9219 112.5312 Q227.4219 112.3125 228.0625 112.3125 Q229.3594 112.3125 230.1172 113.0938 Q230.875 113.875 230.875 115.2344 Q230.875 116.5625 230.0625 117.3672 Q229.25 118.1719 227.875 118.1719 Q226.3906 118.1719 225.5938 117.0625 Q224.7969 115.9531 224.7969 113.9062 Q224.7969 111.6094 225.7422 110.3516 Q226.6875 109.0938 228.4062 109.0938 Q228.875 109.0938 229.3828 109.1797 Q229.8906 109.2656 230.4219 109.4375 L230.4219 110.8906 L229.7656 110.8906 Q229.6875 110.2969 229.3047 109.9844 Q228.9219 109.6719 228.2812 109.6719 Q227.1406 109.6719 226.5859 110.5312 Q226.0312 111.3906 226.0156 113.1875 Z" style="fill:black; stroke:none;" /><rect height="8" style="stroke:none;" width="8" x="202" y="85" /><path d="M207.1875 91.4688 L206.9531 92.1094 Q206.7656 92.625 206.2031 92.9375 Q205.8438 93.1562 205.2031 93.1406 Q204.0469 93.1406 203.3281 92.2344 Q202.5938 91.3281 202.5938 89.8594 Q202.5938 88.4219 203.3281 87.4844 Q204.0156 86.5938 205.4531 86.6094 Q206.4531 86.6094 206.9531 87 Q207.4062 87.3438 207.5781 88.0938 L207.625 88.3125 L207.8438 87.6719 Q208.0625 87.0469 208.6562 86.75 L209.25 86.75 L209.25 87.0938 Q208.6875 87.2656 208.5 87.8125 L207.8906 89.4844 L208.2969 91.2812 Q208.5 92.2031 208.7344 92.2969 Q209.0469 92.4375 209.7812 92 L209.7812 92.7188 Q208.5938 93.4062 207.75 92.6875 Q207.375 92.3594 207.2656 91.875 L207.1875 91.4688 ZM206.9219 90.3125 L206.5625 88.5938 Q206.2656 87.2188 205.4688 87.2188 Q204.7969 87.2031 204.2812 87.9375 Q203.8594 88.5156 203.8594 89.875 Q203.8594 91.1719 204.2812 91.8281 Q204.75 92.5469 205.5312 92.5 Q206.2031 92.4375 206.6875 91 L206.9219 90.3125 Z" style="fill:black; stroke:none;" /></g><g ID="li-1:2,3" style="fill:white; text-rendering:optimizeSpeed; font-family:'Serif'; stroke:white;"><rect height="9" style="stroke:none;" width="8" x="278" y="128" /><path d="M282.1875 134.0312 L282.1875 129.375 L279.2031 134.0312 L282.1875 134.0312 ZM284.7656 137 L280.7812 137 L280.7812 136.375 L282.1875 136.375 L282.1875 134.6562 L278.375 134.6562 L278.375 134.0156 L282.2031 128.0938 L283.3594 128.0938 L283.3594 134.0312 L285.0312 134.0312 L285.0312 134.6562 L283.3594 134.6562 L283.3594 136.375 L284.7656 136.375 L284.7656 137 Z" style="fill:black; stroke:none;" /><rect height="13" style="stroke:none;" width="7" x="264" y="126" /><path d="M265.8281 138.25 Q266.2969 138.5938 267.1719 138.5938 Q268.0625 138.5938 268.5781 138.0703 Q269.0938 137.5469 269.0938 136.6562 Q269.0938 135.4219 268.5625 134.8906 Q268.0156 134.3594 267 134.3594 L266.4375 134.3594 L266.4375 133.7188 L266.7344 133.7188 Q267.4844 133.7188 268 133.2969 Q268.4219 132.9531 268.4219 132.0156 Q268.4219 131.6094 268.1406 131.1406 Q267.6875 130.375 267.1562 130.3906 Q265.8281 130.4375 265.8281 132.7812 L265.8281 138.25 ZM264.75 141.5 L264.75 132.7812 Q264.75 130.3281 266.0781 130 Q266.7656 129.8125 267.25 129.8125 Q268.3438 129.8125 269.0469 130.6719 Q269.6094 131.3594 269.6094 131.9375 Q269.6094 132.7812 269.2031 133.2656 Q268.7969 133.75 268.0625 133.9844 Q269.1406 134.1406 269.75 134.7812 Q270.3281 135.4062 270.3281 136.6328 Q270.3281 137.8594 269.5078 138.5156 Q268.6875 139.1719 267.1406 139.1719 Q266.1875 139.1719 265.8281 139.0312 L265.8281 141.5 L264.75 141.5 Z" style="fill:black; stroke:none;" /></g><g ID="li-1:1,2" style="fill:white; text-rendering:optimizeSpeed; font-family:'Serif'; stroke:white;"><rect height="9" style="stroke:none;" width="8" x="330" y="128" /><path d="M334.1875 134.0312 L334.1875 129.375 L331.2031 134.0312 L334.1875 134.0312 ZM336.7656 137 L332.7812 137 L332.7812 136.375 L334.1875 136.375 L334.1875 134.6562 L330.375 134.6562 L330.375 134.0156 L334.2031 128.0938 L335.3594 128.0938 L335.3594 134.0312 L337.0312 134.0312 L337.0312 134.6562 L335.3594 134.6562 L335.3594 136.375 L336.7656 136.375 L336.7656 137 Z" style="fill:black; stroke:none;" /><rect height="13" style="stroke:none;" width="7" x="316" y="126" /><path d="M317.8281 138.25 Q318.2969 138.5938 319.1719 138.5938 Q320.0625 138.5938 320.5781 138.0703 Q321.0938 137.5469 321.0938 136.6562 Q321.0938 135.4219 320.5625 134.8906 Q320.0156 134.3594 319 134.3594 L318.4375 134.3594 L318.4375 133.7188 L318.7344 133.7188 Q319.4844 133.7188 320 133.2969 Q320.4219 132.9531 320.4219 132.0156 Q320.4219 131.6094 320.1406 131.1406 Q319.6875 130.375 319.1562 130.3906 Q317.8281 130.4375 317.8281 132.7812 L317.8281 138.25 ZM316.75 141.5 L316.75 132.7812 Q316.75 130.3281 318.0781 130 Q318.7656 129.8125 319.25 129.8125 Q320.3438 129.8125 321.0469 130.6719 Q321.6094 131.3594 321.6094 131.9375 Q321.6094 132.7812 321.2031 133.2656 Q320.7969 133.75 320.0625 133.9844 Q321.1406 134.1406 321.75 134.7812 Q322.3281 135.4062 322.3281 136.6328 Q322.3281 137.8594 321.5078 138.5156 Q320.6875 139.1719 319.1406 139.1719 Q318.1875 139.1719 317.8281 139.0312 L317.8281 141.5 L316.75 141.5 Z" style="fill:black; stroke:none;" /></g></g></svg>