<svg xmlns="http://www.w3.org/2000/svg" style="fill-opacity:1; color-rendering:auto; color-interpolation:auto; text-rendering:auto; stroke:black; stroke-linecap:square; stroke-miterlimit:10; shape-rendering:auto; stroke-opacity:1; fill:black; stroke-dasharray:none; font-weight:normal; stroke-width:1; font-family:'Dialog'; font-style:normal; stroke-linejoin:miter; font-size:12px; stroke-dashoffset:0; image-rendering:auto;"><defs id="genericDefs" /><g><defs id="defs1"><clipPath clipPathUnits="userSpaceOnUse" id="clipPath1"><path d="M498 108 L520 108 L520 130 L498 130 L498 108 Z" /></clipPath><clipPath clipPathUnits="userSpaceOnUse" id="clipPath2"><path d="M446 108 L468 108 L468 130 L446 130 L446 108 Z" /></clipPath><clipPath clipPathUnits="userSpaceOnUse" id="clipPath3"><path d="M416 119 C416 125.0751 411.0751 130 405 130 C398.9249 130 394 125.0751 394 119 C394 112.9249 398.9249 108 405 108 C411.0751 108 416 112.9249 416 119 Z" /></clipPath><clipPath clipPathUnits="userSpaceOnUse" id="clipPath4"><path d="M364 171 C364 177.0751 359.0751 182 353 182 C346.9249 182 342 177.0751 342 171 C342 164.9249 346.9249 160 353 160 C359.0751 160 364 164.9249 364 171 Z" /></clipPath><clipPath clipPathUnits="userSpaceOnUse" id="clipPath5"><path d="M290 186 L312 186 L312 208 L290 208 L290 186 Z" /></clipPath><clipPath clipPathUnits="userSpaceOnUse" id="clipPath6"><path d="M260 197 C260 203.0751 255.0751 208 249 208 C242.9249 208 238 203.0751 238 197 C238 190.9249 242.9249 186 249 186 C255.0751 186 260 190.9249 260 197 Z" /></clipPath><clipPath clipPathUnits="userSpaceOnUse" id="clipPath7"><path d="M197 186 L208 197 L197 208 L186 197 Z" style="fill-rule:evenodd;" /></clipPath><clipPath clipPathUnits="userSpaceOnUse" id="clipPath8"><path d="M290 134 L312 134 L312 156 L290 156 L290 134 Z" /></clipPath><clipPath clipPathUnits="userSpaceOnUse" id="clipPath9"><path d="M260 145 C260 151.0751 255.0751 156 249 156 C242.9249 156 238 151.0751 238 145 C238 138.9249 242.9249 134 249 134 C255.0751 134 260 138.9249 260 145 Z" /></clipPath><clipPath clipPathUnits="userSpaceOnUse" id="clipPath10"><path d="M364 67 C364 73.0751 359.0751 78 353 78 C346.9249 78 342 73.0751 342 67 C342 60.9249 346.9249 56 353 56 C359.0751 56 364 60.9249 364 67 Z" /></clipPath><clipPath clipPathUnits="userSpaceOnUse" id="clipPath11"><path d="M290 82 L312 82 L312 104 L290 104 L290 82 Z" /></clipPath><clipPath clipPathUnits="userSpaceOnUse" id="clipPath12"><path d="M260 93 C260 99.0751 255.0751 104 249 104 C242.9249 104 238 99.0751 238 93 C238 86.9249 242.9249 82 249 82 C255.0751 82 260 86.9249 260 93 Z" /></clipPath><clipPath clipPathUnits="userSpaceOnUse" id="clipPath13"><path d="M186 82 L208 82 L208 104 L186 104 L186 82 Z" /></clipPath><clipPath clipPathUnits="userSpaceOnUse" id="clipPath14"><path d="M156 93 C156 99.0751 151.0751 104 145 104 C138.9249 104 134 99.0751 134 93 C134 86.9249 138.9249 82 145 82 C151.0751 82 156 86.9249 156 93 Z" /></clipPath><clipPath clipPathUnits="userSpaceOnUse" id="clipPath15"><path d="M82 82 L104 82 L104 104 L82 104 L82 82 Z" /></clipPath><clipPath clipPathUnits="userSpaceOnUse" id="clipPath16"><path d="M52 93 C52 99.0751 47.0751 104 41 104 C34.9249 104 30 99.0751 30 93 C30 86.9249 34.9249 82 41 82 C47.0751 82 52 86.9249 52 93 Z" /></clipPath><clipPath clipPathUnits="userSpaceOnUse" id="clipPath17"><path d="M290 30 L312 30 L312 52 L290 52 L290 30 Z" /></clipPath><clipPath clipPathUnits="userSpaceOnUse" id="clipPath18"><path d="M260 41 C260 47.0751 255.0751 52 249 52 C242.9249 52 238 47.0751 238 41 C238 34.9249 242.9249 30 249 30 C255.0751 30 260 34.9249 260 41 Z" /></clipPath><clipPath clipPathUnits="userSpaceOnUse" id="clipPath19"><path d="M509 78 L498 56 L520 56 Z" style="fill-rule:evenodd;" /></clipPath></defs><g style="fill:white; text-rendering:optimizeSpeed; stroke:white;"><rect height="238" style="stroke:none;" width="550" x="0" y="0" /></g><g ID="l-1:1,2" style="text-rendering:optimizeSpeed;"><polygon points=" 509 119 457 119" style="fill:none;" /></g><g ID="l-1:1,3" style="text-rendering:optimizeSpeed;"><polygon points=" 509 119 509 67" style="fill:none;" /></g><g ID="r-1:1" style="fill:white; text-rendering:optimizeSpeed; stroke:white;" wurcs_mono_id="1"><rect height="22" style="clip-path:url(#clipPath1); stroke:none;" width="22" x="498" y="108" /><rect height="22" style="clip-path:url(#clipPath1); fill:rgb(0,144,188); stroke:none;" width="22" x="498" y="108" /><rect height="22" style="clip-path:url(#clipPath1); fill:none; stroke:black;" width="22" x="498" y="108" /><rect height="22" style="fill:none; stroke:black;" width="22" x="498" y="108" /></g><g ID="l-1:2,4" style="text-rendering:optimizeSpeed;"><polygon points=" 457 119 405 119" style="fill:none;" /></g><g ID="r-1:2" style="fill:white; text-rendering:optimizeSpeed; stroke:white;" wurcs_mono_id="2"><rect height="22" style="clip-path:url(#clipPath2); stroke:none;" width="22" x="446" y="108" /><rect height="22" style="clip-path:url(#clipPath2); fill:rgb(0,144,188); stroke:none;" width="22" x="446" y="108" /><rect height="22" style="clip-path:url(#clipPath2); fill:none; stroke:black;" width="22" x="446" y="108" /><rect height="22" style="fill:none; stroke:black;" width="22" x="446" y="108" /></g><g ID="l-1:4,5" style="text-rendering:optimizeSpeed;"><polygon points=" 405 119 353 171" style="fill:none;" /></g><g ID="l-1:4,6" style="text-rendering:optimizeSpeed;"><polygon points=" 405 119 353 67" style="fill:none;" /></g><g ID="r-1:4" style="fill:white; text-rendering:optimizeSpeed; stroke:white;" wurcs_mono_id="3"><circle cx="405" cy="119" r="11" style="clip-path:url(#clipPath3); stroke:none;" /><rect height="22" style="clip-path:url(#clipPath3); fill:rgb(0,166,81); stroke:none;" width="22" x="394" y="108" /><rect height="22" style="clip-path:url(#clipPath3); fill:none; stroke:black;" width="22" x="394" y="108" /><circle cx="405" cy="119" r="11" style="fill:none; stroke:black;" /></g><g ID="l-1:5,7" style="text-rendering:optimizeSpeed;"><polygon points=" 353 171 301 197" style="fill:none;" /></g><g ID="l-1:5,8" style="text-rendering:optimizeSpeed;"><polygon points=" 353 171 301 145" style="fill:none;" /></g><g ID="r-1:5" style="fill:white; text-rendering:optimizeSpeed; stroke:white;" wurcs_mono_id="4"><circle cx="353" cy="171" r="11" style="clip-path:url(#clipPath4); stroke:none;" /><rect height="22" style="clip-path:url(#clipPath4); fill:rgb(0,166,81); stroke:none;" width="22" x="342" y="160" /><rect height="22" style="clip-path:url(#clipPath4); fill:none; stroke:black;" width="22" x="342" y="160" /><circle cx="353" cy="171" r="11" style="fill:none; stroke:black;" /></g><g ID="l-1:7,9" style="text-rendering:optimizeSpeed;"><polygon points=" 301 197 249 197" style="fill:none;" /></g><g ID="r-1:7" style="fill:white; text-rendering:optimizeSpeed; stroke:white;" wurcs_mono_id="5"><rect height="22" style="clip-path:url(#clipPath5); stroke:none;" width="22" x="290" y="186" /><rect height="22" style="clip-path:url(#clipPath5); fill:rgb(0,144,188); stroke:none;" width="22" x="290" y="186" /><rect height="22" style="clip-path:url(#clipPath5); fill:none; stroke:black;" width="22" x="290" y="186" /><rect height="22" style="fill:none; stroke:black;" width="22" x="290" y="186" /></g><g ID="l-1:9,10" style="text-rendering:optimizeSpeed;"><polygon points=" 249 197 197 197" style="fill:none;" /></g><g ID="r-1:9" style="fill:white; text-rendering:optimizeSpeed; stroke:white;" wurcs_mono_id="6"><circle cx="249" cy="197" r="11" style="clip-path:url(#clipPath6); stroke:none;" /><rect height="22" style="clip-path:url(#clipPath6); fill:rgb(255,212,0); stroke:none;" width="22" x="238" y="186" /><rect height="22" style="clip-path:url(#clipPath6); fill:none; stroke:black;" width="22" x="238" y="186" /><circle cx="249" cy="197" r="11" style="fill:none; stroke:black;" /></g><g ID="r-1:10" style="fill:white; text-rendering:optimizeSpeed; stroke:white;" wurcs_mono_id="7"><polygon points=" 197 186 208 197 197 208 186 197" style="stroke:none; clip-path:url(#clipPath7);" /><rect height="22" style="clip-path:url(#clipPath7); fill:rgb(165,67,153); stroke:none;" width="22" x="186" y="186" /><rect height="22" style="clip-path:url(#clipPath7); fill:none; stroke:black;" width="22" x="186" y="186" /><polygon points=" 197 186 208 197 197 208 186 197" style="fill:none; stroke:black;" /></g><g ID="li-1:9,10" style="fill:white; text-rendering:optimizeSpeed; font-family:'Serif'; stroke:white;"><rect height="10" style="stroke:none;" width="6" x="227" y="200" /><path d="M229.1094 209.3906 Q229.1094 209.0625 229.3359 208.8359 Q229.5625 208.6094 229.8906 208.6094 Q230.2188 208.6094 230.4453 208.8359 Q230.6719 209.0625 230.6719 209.3906 Q230.6719 209.7188 230.4453 209.9453 Q230.2188 210.1719 229.8906 210.1719 Q229.5625 210.1719 229.3359 209.9453 Q229.1094 209.7188 229.1094 209.3906 ZM227.8125 201.6406 Q228.4375 201.3594 229 201.2266 Q229.5625 201.0938 230.0469 201.0938 Q231.3438 201.0938 232.1016 201.7188 Q232.8594 202.3438 232.8594 203.4062 Q232.8594 204.5 232.2109 205.1953 Q231.5625 205.8906 230.25 206.1875 L230.25 207.6719 L229.5312 207.6719 L229.5312 205.75 Q230.5625 205.5 231.0938 204.9062 Q231.625 204.3125 231.625 203.4062 Q231.625 202.5938 231.1953 202.1328 Q230.7656 201.6719 230.0312 201.6719 Q229.3594 201.6719 228.9297 202.0547 Q228.5 202.4375 228.3906 203.1562 L227.8125 203.1562 L227.8125 201.6406 Z" style="fill:black; stroke:none;" /><rect height="10" style="stroke:none;" width="6" x="213" y="200" /><path d="M215.1094 209.3906 Q215.1094 209.0625 215.3359 208.8359 Q215.5625 208.6094 215.8906 208.6094 Q216.2188 208.6094 216.4453 208.8359 Q216.6719 209.0625 216.6719 209.3906 Q216.6719 209.7188 216.4453 209.9453 Q216.2188 210.1719 215.8906 210.1719 Q215.5625 210.1719 215.3359 209.9453 Q215.1094 209.7188 215.1094 209.3906 ZM213.8125 201.6406 Q214.4375 201.3594 215 201.2266 Q215.5625 201.0938 216.0469 201.0938 Q217.3438 201.0938 218.1016 201.7188 Q218.8594 202.3438 218.8594 203.4062 Q218.8594 204.5 218.2109 205.1953 Q217.5625 205.8906 216.25 206.1875 L216.25 207.6719 L215.5312 207.6719 L215.5312 205.75 Q216.5625 205.5 217.0938 204.9062 Q217.625 204.3125 217.625 203.4062 Q217.625 202.5938 217.1953 202.1328 Q216.7656 201.6719 216.0312 201.6719 Q215.3594 201.6719 214.9297 202.0547 Q214.5 202.4375 214.3906 203.1562 L213.8125 203.1562 L213.8125 201.6406 Z" style="fill:black; stroke:none;" /></g><g ID="li-1:7,9" style="fill:white; text-rendering:optimizeSpeed; font-family:'Serif'; stroke:white;"><rect height="10" style="stroke:none;" width="6" x="279" y="200" /><path d="M281.1094 209.3906 Q281.1094 209.0625 281.3359 208.8359 Q281.5625 208.6094 281.8906 208.6094 Q282.2188 208.6094 282.4453 208.8359 Q282.6719 209.0625 282.6719 209.3906 Q282.6719 209.7188 282.4453 209.9453 Q282.2188 210.1719 281.8906 210.1719 Q281.5625 210.1719 281.3359 209.9453 Q281.1094 209.7188 281.1094 209.3906 ZM279.8125 201.6406 Q280.4375 201.3594 281 201.2266 Q281.5625 201.0938 282.0469 201.0938 Q283.3438 201.0938 284.1016 201.7188 Q284.8594 202.3438 284.8594 203.4062 Q284.8594 204.5 284.2109 205.1953 Q283.5625 205.8906 282.25 206.1875 L282.25 207.6719 L281.5312 207.6719 L281.5312 205.75 Q282.5625 205.5 283.0938 204.9062 Q283.625 204.3125 283.625 203.4062 Q283.625 202.5938 283.1953 202.1328 Q282.7656 201.6719 282.0312 201.6719 Q281.3594 201.6719 280.9297 202.0547 Q280.5 202.4375 280.3906 203.1562 L279.8125 203.1562 L279.8125 201.6406 Z" style="fill:black; stroke:none;" /><rect height="10" style="stroke:none;" width="6" x="265" y="200" /><path d="M267.1094 209.3906 Q267.1094 209.0625 267.3359 208.8359 Q267.5625 208.6094 267.8906 208.6094 Q268.2188 208.6094 268.4453 208.8359 Q268.6719 209.0625 268.6719 209.3906 Q268.6719 209.7188 268.4453 209.9453 Q268.2188 210.1719 267.8906 210.1719 Q267.5625 210.1719 267.3359 209.9453 Q267.1094 209.7188 267.1094 209.3906 ZM265.8125 201.6406 Q266.4375 201.3594 267 201.2266 Q267.5625 201.0938 268.0469 201.0938 Q269.3438 201.0938 270.1016 201.7188 Q270.8594 202.3438 270.8594 203.4062 Q270.8594 204.5 270.2109 205.1953 Q269.5625 205.8906 268.25 206.1875 L268.25 207.6719 L267.5312 207.6719 L267.5312 205.75 Q268.5625 205.5 269.0938 204.9062 Q269.625 204.3125 269.625 203.4062 Q269.625 202.5938 269.1953 202.1328 Q268.7656 201.6719 268.0312 201.6719 Q267.3594 201.6719 266.9297 202.0547 Q266.5 202.4375 266.3906 203.1562 L265.8125 203.1562 L265.8125 201.6406 Z" style="fill:black; stroke:none;" /></g><g ID="l-1:8,11" style="text-rendering:optimizeSpeed;"><polygon points=" 301 145 249 145" style="fill:none;" /></g><g ID="r-1:8" style="fill:white; text-rendering:optimizeSpeed; stroke:white;" wurcs_mono_id="8"><rect height="22" style="clip-path:url(#clipPath8); stroke:none;" width="22" x="290" y="134" /><rect height="22" style="clip-path:url(#clipPath8); fill:rgb(0,144,188); stroke:none;" width="22" x="290" y="134" /><rect height="22" style="clip-path:url(#clipPath8); fill:none; stroke:black;" width="22" x="290" y="134" /><rect height="22" style="fill:none; stroke:black;" width="22" x="290" y="134" /></g><g ID="r-1:11" style="fill:white; text-rendering:optimizeSpeed; stroke:white;" wurcs_mono_id="9"><circle cx="249" cy="145" r="11" style="clip-path:url(#clipPath9); stroke:none;" /><rect height="22" style="clip-path:url(#clipPath9); fill:rgb(255,212,0); stroke:none;" width="22" x="238" y="134" /><rect height="22" style="clip-path:url(#clipPath9); fill:none; stroke:black;" width="22" x="238" y="134" /><circle cx="249" cy="145" r="11" style="fill:none; stroke:black;" /></g><g ID="li-1:8,11" style="fill:white; text-rendering:optimizeSpeed; font-family:'Serif'; stroke:white;"><rect height="10" style="stroke:none;" width="6" x="279" y="148" /><path d="M281.1094 157.3906 Q281.1094 157.0625 281.3359 156.8359 Q281.5625 156.6094 281.8906 156.6094 Q282.2188 156.6094 282.4453 156.8359 Q282.6719 157.0625 282.6719 157.3906 Q282.6719 157.7188 282.4453 157.9453 Q282.2188 158.1719 281.8906 158.1719 Q281.5625 158.1719 281.3359 157.9453 Q281.1094 157.7188 281.1094 157.3906 ZM279.8125 149.6406 Q280.4375 149.3594 281 149.2266 Q281.5625 149.0938 282.0469 149.0938 Q283.3438 149.0938 284.1016 149.7188 Q284.8594 150.3438 284.8594 151.4062 Q284.8594 152.5 284.2109 153.1953 Q283.5625 153.8906 282.25 154.1875 L282.25 155.6719 L281.5312 155.6719 L281.5312 153.75 Q282.5625 153.5 283.0938 152.9062 Q283.625 152.3125 283.625 151.4062 Q283.625 150.5938 283.1953 150.1328 Q282.7656 149.6719 282.0312 149.6719 Q281.3594 149.6719 280.9297 150.0547 Q280.5 150.4375 280.3906 151.1562 L279.8125 151.1562 L279.8125 149.6406 Z" style="fill:black; stroke:none;" /><rect height="10" style="stroke:none;" width="6" x="265" y="148" /><path d="M267.1094 157.3906 Q267.1094 157.0625 267.3359 156.8359 Q267.5625 156.6094 267.8906 156.6094 Q268.2188 156.6094 268.4453 156.8359 Q268.6719 157.0625 268.6719 157.3906 Q268.6719 157.7188 268.4453 157.9453 Q268.2188 158.1719 267.8906 158.1719 Q267.5625 158.1719 267.3359 157.9453 Q267.1094 157.7188 267.1094 157.3906 ZM265.8125 149.6406 Q266.4375 149.3594 267 149.2266 Q267.5625 149.0938 268.0469 149.0938 Q269.3438 149.0938 270.1016 149.7188 Q270.8594 150.3438 270.8594 151.4062 Q270.8594 152.5 270.2109 153.1953 Q269.5625 153.8906 268.25 154.1875 L268.25 155.6719 L267.5312 155.6719 L267.5312 153.75 Q268.5625 153.5 269.0938 152.9062 Q269.625 152.3125 269.625 151.4062 Q269.625 150.5938 269.1953 150.1328 Q268.7656 149.6719 268.0312 149.6719 Q267.3594 149.6719 266.9297 150.0547 Q266.5 150.4375 266.3906 151.1562 L265.8125 151.1562 L265.8125 149.6406 Z" style="fill:black; stroke:none;" /></g><g ID="li-1:5,7" style="fill:white; text-rendering:optimizeSpeed; font-family:'Serif'; stroke:white;"><rect height="10" style="stroke:none;" width="6" x="335" y="182" /><path d="M337.1094 191.3906 Q337.1094 191.0625 337.3359 190.8359 Q337.5625 190.6094 337.8906 190.6094 Q338.2188 190.6094 338.4453 190.8359 Q338.6719 191.0625 338.6719 191.3906 Q338.6719 191.7188 338.4453 191.9453 Q338.2188 192.1719 337.8906 192.1719 Q337.5625 192.1719 337.3359 191.9453 Q337.1094 191.7188 337.1094 191.3906 ZM335.8125 183.6406 Q336.4375 183.3594 337 183.2266 Q337.5625 183.0938 338.0469 183.0938 Q339.3438 183.0938 340.1016 183.7188 Q340.8594 184.3438 340.8594 185.4062 Q340.8594 186.5 340.2109 187.1953 Q339.5625 187.8906 338.25 188.1875 L338.25 189.6719 L337.5312 189.6719 L337.5312 187.75 Q338.5625 187.5 339.0938 186.9062 Q339.625 186.3125 339.625 185.4062 Q339.625 184.5938 339.1953 184.1328 Q338.7656 183.6719 338.0312 183.6719 Q337.3594 183.6719 336.9297 184.0547 Q336.5 184.4375 336.3906 185.1562 L335.8125 185.1562 L335.8125 183.6406 Z" style="fill:black; stroke:none;" /><rect height="10" style="stroke:none;" width="6" x="319" y="190" /><path d="M321.1094 199.3906 Q321.1094 199.0625 321.3359 198.8359 Q321.5625 198.6094 321.8906 198.6094 Q322.2188 198.6094 322.4453 198.8359 Q322.6719 199.0625 322.6719 199.3906 Q322.6719 199.7188 322.4453 199.9453 Q322.2188 200.1719 321.8906 200.1719 Q321.5625 200.1719 321.3359 199.9453 Q321.1094 199.7188 321.1094 199.3906 ZM319.8125 191.6406 Q320.4375 191.3594 321 191.2266 Q321.5625 191.0938 322.0469 191.0938 Q323.3438 191.0938 324.1016 191.7188 Q324.8594 192.3438 324.8594 193.4062 Q324.8594 194.5 324.2109 195.1953 Q323.5625 195.8906 322.25 196.1875 L322.25 197.6719 L321.5312 197.6719 L321.5312 195.75 Q322.5625 195.5 323.0938 194.9062 Q323.625 194.3125 323.625 193.4062 Q323.625 192.5938 323.1953 192.1328 Q322.7656 191.6719 322.0312 191.6719 Q321.3594 191.6719 320.9297 192.0547 Q320.5 192.4375 320.3906 193.1562 L319.8125 193.1562 L319.8125 191.6406 Z" style="fill:black; stroke:none;" /></g><g ID="li-1:5,8" style="fill:white; text-rendering:optimizeSpeed; font-family:'Serif'; stroke:white;"><rect height="10" style="stroke:none;" width="6" x="328" y="164" /><path d="M330.1094 173.3906 Q330.1094 173.0625 330.3359 172.8359 Q330.5625 172.6094 330.8906 172.6094 Q331.2188 172.6094 331.4453 172.8359 Q331.6719 173.0625 331.6719 173.3906 Q331.6719 173.7188 331.4453 173.9453 Q331.2188 174.1719 330.8906 174.1719 Q330.5625 174.1719 330.3359 173.9453 Q330.1094 173.7188 330.1094 173.3906 ZM328.8125 165.6406 Q329.4375 165.3594 330 165.2266 Q330.5625 165.0938 331.0469 165.0938 Q332.3438 165.0938 333.1016 165.7188 Q333.8594 166.3438 333.8594 167.4062 Q333.8594 168.5 333.2109 169.1953 Q332.5625 169.8906 331.25 170.1875 L331.25 171.6719 L330.5312 171.6719 L330.5312 169.75 Q331.5625 169.5 332.0938 168.9062 Q332.625 168.3125 332.625 167.4062 Q332.625 166.5938 332.1953 166.1328 Q331.7656 165.6719 331.0312 165.6719 Q330.3594 165.6719 329.9297 166.0547 Q329.5 166.4375 329.3906 167.1562 L328.8125 167.1562 L328.8125 165.6406 Z" style="fill:black; stroke:none;" /><rect height="10" style="stroke:none;" width="6" x="312" y="156" /><path d="M314.1094 165.3906 Q314.1094 165.0625 314.3359 164.8359 Q314.5625 164.6094 314.8906 164.6094 Q315.2188 164.6094 315.4453 164.8359 Q315.6719 165.0625 315.6719 165.3906 Q315.6719 165.7188 315.4453 165.9453 Q315.2188 166.1719 314.8906 166.1719 Q314.5625 166.1719 314.3359 165.9453 Q314.1094 165.7188 314.1094 165.3906 ZM312.8125 157.6406 Q313.4375 157.3594 314 157.2266 Q314.5625 157.0938 315.0469 157.0938 Q316.3438 157.0938 317.1016 157.7188 Q317.8594 158.3438 317.8594 159.4062 Q317.8594 160.5 317.2109 161.1953 Q316.5625 161.8906 315.25 162.1875 L315.25 163.6719 L314.5312 163.6719 L314.5312 161.75 Q315.5625 161.5 316.0938 160.9062 Q316.625 160.3125 316.625 159.4062 Q316.625 158.5938 316.1953 158.1328 Q315.7656 157.6719 315.0312 157.6719 Q314.3594 157.6719 313.9297 158.0547 Q313.5 158.4375 313.3906 159.1562 L312.8125 159.1562 L312.8125 157.6406 Z" style="fill:black; stroke:none;" /></g><g ID="l-1:6,12" style="text-rendering:optimizeSpeed;"><polygon points=" 353 67 301 93" style="fill:none;" /></g><g ID="l-1:6,13" style="text-rendering:optimizeSpeed;"><polygon points=" 353 67 301 41" style="fill:none;" /></g><g ID="r-1:6" style="fill:white; text-rendering:optimizeSpeed; stroke:white;" wurcs_mono_id="10"><circle cx="353" cy="67" r="11" style="clip-path:url(#clipPath10); stroke:none;" /><rect height="22" style="clip-path:url(#clipPath10); fill:rgb(0,166,81); stroke:none;" width="22" x="342" y="56" /><rect height="22" style="clip-path:url(#clipPath10); fill:none; stroke:black;" width="22" x="342" y="56" /><circle cx="353" cy="67" r="11" style="fill:none; stroke:black;" /></g><g ID="l-1:12,14" style="text-rendering:optimizeSpeed;"><polygon points=" 301 93 249 93" style="fill:none;" /></g><g ID="r-1:12" style="fill:white; text-rendering:optimizeSpeed; stroke:white;" wurcs_mono_id="11"><rect height="22" style="clip-path:url(#clipPath11); stroke:none;" width="22" x="290" y="82" /><rect height="22" style="clip-path:url(#clipPath11); fill:rgb(0,144,188); stroke:none;" width="22" x="290" y="82" /><rect height="22" style="clip-path:url(#clipPath11); fill:none; stroke:black;" width="22" x="290" y="82" /><rect height="22" style="fill:none; stroke:black;" width="22" x="290" y="82" /></g><g ID="l-1:14,15" style="text-rendering:optimizeSpeed;"><polygon points=" 249 93 197 93" style="fill:none;" /></g><g ID="r-1:14" style="fill:white; text-rendering:optimizeSpeed; stroke:white;" wurcs_mono_id="12"><circle cx="249" cy="93" r="11" style="clip-path:url(#clipPath12); stroke:none;" /><rect height="22" style="clip-path:url(#clipPath12); fill:rgb(255,212,0); stroke:none;" width="22" x="238" y="82" /><rect height="22" style="clip-path:url(#clipPath12); fill:none; stroke:black;" width="22" x="238" y="82" /><circle cx="249" cy="93" r="11" style="fill:none; stroke:black;" /></g><g ID="l-1:15,16" style="text-rendering:optimizeSpeed;"><polygon points=" 197 93 145 93" style="fill:none;" /></g><g ID="r-1:15" style="fill:white; text-rendering:optimizeSpeed; stroke:white;" wurcs_mono_id="13"><rect height="22" style="clip-path:url(#clipPath13); stroke:none;" width="22" x="186" y="82" /><rect height="22" style="clip-path:url(#clipPath13); fill:rgb(0,144,188); stroke:none;" width="22" x="186" y="82" /><rect height="22" style="clip-path:url(#clipPath13); fill:none; stroke:black;" width="22" x="186" y="82" /><rect height="22" style="fill:none; stroke:black;" width="22" x="186" y="82" /></g><g ID="l-1:16,17" style="text-rendering:optimizeSpeed;"><polygon points=" 145 93 93 93" style="fill:none;" /></g><g ID="r-1:16" style="fill:white; text-rendering:optimizeSpeed; stroke:white;" wurcs_mono_id="14"><circle cx="145" cy="93" r="11" style="clip-path:url(#clipPath14); stroke:none;" /><rect height="22" style="clip-path:url(#clipPath14); fill:rgb(255,212,0); stroke:none;" width="22" x="134" y="82" /><rect height="22" style="clip-path:url(#clipPath14); fill:none; stroke:black;" width="22" x="134" y="82" /><circle cx="145" cy="93" r="11" style="fill:none; stroke:black;" /></g><g ID="l-1:17,18" style="text-rendering:optimizeSpeed;"><polygon points=" 93 93 41 93" style="fill:none;" /></g><g ID="r-1:17" style="fill:white; text-rendering:optimizeSpeed; stroke:white;" wurcs_mono_id="15"><rect height="22" style="clip-path:url(#clipPath15); stroke:none;" width="22" x="82" y="82" /><rect height="22" style="clip-path:url(#clipPath15); fill:rgb(0,144,188); stroke:none;" width="22" x="82" y="82" /><rect height="22" style="clip-path:url(#clipPath15); fill:none; stroke:black;" width="22" x="82" y="82" /><rect height="22" style="fill:none; stroke:black;" width="22" x="82" y="82" /></g><g ID="r-1:18" style="fill:white; text-rendering:optimizeSpeed; stroke:white;" wurcs_mono_id="16"><circle cx="41" cy="93" r="11" style="clip-path:url(#clipPath16); stroke:none;" /><rect height="22" style="clip-path:url(#clipPath16); fill:rgb(255,212,0); stroke:none;" width="22" x="30" y="82" /><rect height="22" style="clip-path:url(#clipPath16); fill:none; stroke:black;" width="22" x="30" y="82" /><circle cx="41" cy="93" r="11" style="fill:none; stroke:black;" /></g><g ID="li-1:17,18" style="fill:white; text-rendering:optimizeSpeed; font-family:'Serif'; stroke:white;"><rect height="10" style="stroke:none;" width="6" x="71" y="96" /><path d="M73.1094 105.3906 Q73.1094 105.0625 73.3359 104.8359 Q73.5625 104.6094 73.8906 104.6094 Q74.2188 104.6094 74.4453 104.8359 Q74.6719 105.0625 74.6719 105.3906 Q74.6719 105.7188 74.4453 105.9453 Q74.2188 106.1719 73.8906 106.1719 Q73.5625 106.1719 73.3359 105.9453 Q73.1094 105.7188 73.1094 105.3906 ZM71.8125 97.6406 Q72.4375 97.3594 73 97.2266 Q73.5625 97.0938 74.0469 97.0938 Q75.3438 97.0938 76.1016 97.7188 Q76.8594 98.3438 76.8594 99.4062 Q76.8594 100.5 76.2109 101.1953 Q75.5625 101.8906 74.25 102.1875 L74.25 103.6719 L73.5312 103.6719 L73.5312 101.75 Q74.5625 101.5 75.0938 100.9062 Q75.625 100.3125 75.625 99.4062 Q75.625 98.5938 75.1953 98.1328 Q74.7656 97.6719 74.0312 97.6719 Q73.3594 97.6719 72.9297 98.0547 Q72.5 98.4375 72.3906 99.1562 L71.8125 99.1562 L71.8125 97.6406 Z" style="fill:black; stroke:none;" /><rect height="10" style="stroke:none;" width="6" x="57" y="96" /><path d="M59.1094 105.3906 Q59.1094 105.0625 59.3359 104.8359 Q59.5625 104.6094 59.8906 104.6094 Q60.2188 104.6094 60.4453 104.8359 Q60.6719 105.0625 60.6719 105.3906 Q60.6719 105.7188 60.4453 105.9453 Q60.2188 106.1719 59.8906 106.1719 Q59.5625 106.1719 59.3359 105.9453 Q59.1094 105.7188 59.1094 105.3906 ZM57.8125 97.6406 Q58.4375 97.3594 59 97.2266 Q59.5625 97.0938 60.0469 97.0938 Q61.3438 97.0938 62.1016 97.7188 Q62.8594 98.3438 62.8594 99.4062 Q62.8594 100.5 62.2109 101.1953 Q61.5625 101.8906 60.25 102.1875 L60.25 103.6719 L59.5312 103.6719 L59.5312 101.75 Q60.5625 101.5 61.0938 100.9062 Q61.625 100.3125 61.625 99.4062 Q61.625 98.5938 61.1953 98.1328 Q60.7656 97.6719 60.0312 97.6719 Q59.3594 97.6719 58.9297 98.0547 Q58.5 98.4375 58.3906 99.1562 L57.8125 99.1562 L57.8125 97.6406 Z" style="fill:black; stroke:none;" /></g><g ID="li-1:16,17" style="fill:white; text-rendering:optimizeSpeed; font-family:'Serif'; stroke:white;"><rect height="10" style="stroke:none;" width="6" x="123" y="96" /><path d="M125.1094 105.3906 Q125.1094 105.0625 125.3359 104.8359 Q125.5625 104.6094 125.8906 104.6094 Q126.2188 104.6094 126.4453 104.8359 Q126.6719 105.0625 126.6719 105.3906 Q126.6719 105.7188 126.4453 105.9453 Q126.2188 106.1719 125.8906 106.1719 Q125.5625 106.1719 125.3359 105.9453 Q125.1094 105.7188 125.1094 105.3906 ZM123.8125 97.6406 Q124.4375 97.3594 125 97.2266 Q125.5625 97.0938 126.0469 97.0938 Q127.3438 97.0938 128.1016 97.7188 Q128.8594 98.3438 128.8594 99.4062 Q128.8594 100.5 128.2109 101.1953 Q127.5625 101.8906 126.25 102.1875 L126.25 103.6719 L125.5312 103.6719 L125.5312 101.75 Q126.5625 101.5 127.0938 100.9062 Q127.625 100.3125 127.625 99.4062 Q127.625 98.5938 127.1953 98.1328 Q126.7656 97.6719 126.0312 97.6719 Q125.3594 97.6719 124.9297 98.0547 Q124.5 98.4375 124.3906 99.1562 L123.8125 99.1562 L123.8125 97.6406 Z" style="fill:black; stroke:none;" /><rect height="10" style="stroke:none;" width="6" x="109" y="96" /><path d="M111.1094 105.3906 Q111.1094 105.0625 111.3359 104.8359 Q111.5625 104.6094 111.8906 104.6094 Q112.2188 104.6094 112.4453 104.8359 Q112.6719 105.0625 112.6719 105.3906 Q112.6719 105.7188 112.4453 105.9453 Q112.2188 106.1719 111.8906 106.1719 Q111.5625 106.1719 111.3359 105.9453 Q111.1094 105.7188 111.1094 105.3906 ZM109.8125 97.6406 Q110.4375 97.3594 111 97.2266 Q111.5625 97.0938 112.0469 97.0938 Q113.3438 97.0938 114.1016 97.7188 Q114.8594 98.3438 114.8594 99.4062 Q114.8594 100.5 114.2109 101.1953 Q113.5625 101.8906 112.25 102.1875 L112.25 103.6719 L111.5312 103.6719 L111.5312 101.75 Q112.5625 101.5 113.0938 100.9062 Q113.625 100.3125 113.625 99.4062 Q113.625 98.5938 113.1953 98.1328 Q112.7656 97.6719 112.0312 97.6719 Q111.3594 97.6719 110.9297 98.0547 Q110.5 98.4375 110.3906 99.1562 L109.8125 99.1562 L109.8125 97.6406 Z" style="fill:black; stroke:none;" /></g><g ID="li-1:15,16" style="fill:white; text-rendering:optimizeSpeed; font-family:'Serif'; stroke:white;"><rect height="10" style="stroke:none;" width="6" x="175" y="96" /><path d="M177.1094 105.3906 Q177.1094 105.0625 177.3359 104.8359 Q177.5625 104.6094 177.8906 104.6094 Q178.2188 104.6094 178.4453 104.8359 Q178.6719 105.0625 178.6719 105.3906 Q178.6719 105.7188 178.4453 105.9453 Q178.2188 106.1719 177.8906 106.1719 Q177.5625 106.1719 177.3359 105.9453 Q177.1094 105.7188 177.1094 105.3906 ZM175.8125 97.6406 Q176.4375 97.3594 177 97.2266 Q177.5625 97.0938 178.0469 97.0938 Q179.3438 97.0938 180.1016 97.7188 Q180.8594 98.3438 180.8594 99.4062 Q180.8594 100.5 180.2109 101.1953 Q179.5625 101.8906 178.25 102.1875 L178.25 103.6719 L177.5312 103.6719 L177.5312 101.75 Q178.5625 101.5 179.0938 100.9062 Q179.625 100.3125 179.625 99.4062 Q179.625 98.5938 179.1953 98.1328 Q178.7656 97.6719 178.0312 97.6719 Q177.3594 97.6719 176.9297 98.0547 Q176.5 98.4375 176.3906 99.1562 L175.8125 99.1562 L175.8125 97.6406 Z" style="fill:black; stroke:none;" /><rect height="10" style="stroke:none;" width="6" x="161" y="96" /><path d="M163.1094 105.3906 Q163.1094 105.0625 163.3359 104.8359 Q163.5625 104.6094 163.8906 104.6094 Q164.2188 104.6094 164.4453 104.8359 Q164.6719 105.0625 164.6719 105.3906 Q164.6719 105.7188 164.4453 105.9453 Q164.2188 106.1719 163.8906 106.1719 Q163.5625 106.1719 163.3359 105.9453 Q163.1094 105.7188 163.1094 105.3906 ZM161.8125 97.6406 Q162.4375 97.3594 163 97.2266 Q163.5625 97.0938 164.0469 97.0938 Q165.3438 97.0938 166.1016 97.7188 Q166.8594 98.3438 166.8594 99.4062 Q166.8594 100.5 166.2109 101.1953 Q165.5625 101.8906 164.25 102.1875 L164.25 103.6719 L163.5312 103.6719 L163.5312 101.75 Q164.5625 101.5 165.0938 100.9062 Q165.625 100.3125 165.625 99.4062 Q165.625 98.5938 165.1953 98.1328 Q164.7656 97.6719 164.0312 97.6719 Q163.3594 97.6719 162.9297 98.0547 Q162.5 98.4375 162.3906 99.1562 L161.8125 99.1562 L161.8125 97.6406 Z" style="fill:black; stroke:none;" /></g><g ID="li-1:14,15" style="fill:white; text-rendering:optimizeSpeed; font-family:'Serif'; stroke:white;"><rect height="10" style="stroke:none;" width="6" x="227" y="96" /><path d="M229.1094 105.3906 Q229.1094 105.0625 229.3359 104.8359 Q229.5625 104.6094 229.8906 104.6094 Q230.2188 104.6094 230.4453 104.8359 Q230.6719 105.0625 230.6719 105.3906 Q230.6719 105.7188 230.4453 105.9453 Q230.2188 106.1719 229.8906 106.1719 Q229.5625 106.1719 229.3359 105.9453 Q229.1094 105.7188 229.1094 105.3906 ZM227.8125 97.6406 Q228.4375 97.3594 229 97.2266 Q229.5625 97.0938 230.0469 97.0938 Q231.3438 97.0938 232.1016 97.7188 Q232.8594 98.3438 232.8594 99.4062 Q232.8594 100.5 232.2109 101.1953 Q231.5625 101.8906 230.25 102.1875 L230.25 103.6719 L229.5312 103.6719 L229.5312 101.75 Q230.5625 101.5 231.0938 100.9062 Q231.625 100.3125 231.625 99.4062 Q231.625 98.5938 231.1953 98.1328 Q230.7656 97.6719 230.0312 97.6719 Q229.3594 97.6719 228.9297 98.0547 Q228.5 98.4375 228.3906 99.1562 L227.8125 99.1562 L227.8125 97.6406 Z" style="fill:black; stroke:none;" /><rect height="10" style="stroke:none;" width="6" x="213" y="96" /><path d="M215.1094 105.3906 Q215.1094 105.0625 215.3359 104.8359 Q215.5625 104.6094 215.8906 104.6094 Q216.2188 104.6094 216.4453 104.8359 Q216.6719 105.0625 216.6719 105.3906 Q216.6719 105.7188 216.4453 105.9453 Q216.2188 106.1719 215.8906 106.1719 Q215.5625 106.1719 215.3359 105.9453 Q215.1094 105.7188 215.1094 105.3906 ZM213.8125 97.6406 Q214.4375 97.3594 215 97.2266 Q215.5625 97.0938 216.0469 97.0938 Q217.3438 97.0938 218.1016 97.7188 Q218.8594 98.3438 218.8594 99.4062 Q218.8594 100.5 218.2109 101.1953 Q217.5625 101.8906 216.25 102.1875 L216.25 103.6719 L215.5312 103.6719 L215.5312 101.75 Q216.5625 101.5 217.0938 100.9062 Q217.625 100.3125 217.625 99.4062 Q217.625 98.5938 217.1953 98.1328 Q216.7656 97.6719 216.0312 97.6719 Q215.3594 97.6719 214.9297 98.0547 Q214.5 98.4375 214.3906 99.1562 L213.8125 99.1562 L213.8125 97.6406 Z" style="fill:black; stroke:none;" /></g><g ID="li-1:12,14" style="fill:white; text-rendering:optimizeSpeed; font-family:'Serif'; stroke:white;"><rect height="10" style="stroke:none;" width="6" x="279" y="96" /><path d="M281.1094 105.3906 Q281.1094 105.0625 281.3359 104.8359 Q281.5625 104.6094 281.8906 104.6094 Q282.2188 104.6094 282.4453 104.8359 Q282.6719 105.0625 282.6719 105.3906 Q282.6719 105.7188 282.4453 105.9453 Q282.2188 106.1719 281.8906 106.1719 Q281.5625 106.1719 281.3359 105.9453 Q281.1094 105.7188 281.1094 105.3906 ZM279.8125 97.6406 Q280.4375 97.3594 281 97.2266 Q281.5625 97.0938 282.0469 97.0938 Q283.3438 97.0938 284.1016 97.7188 Q284.8594 98.3438 284.8594 99.4062 Q284.8594 100.5 284.2109 101.1953 Q283.5625 101.8906 282.25 102.1875 L282.25 103.6719 L281.5312 103.6719 L281.5312 101.75 Q282.5625 101.5 283.0938 100.9062 Q283.625 100.3125 283.625 99.4062 Q283.625 98.5938 283.1953 98.1328 Q282.7656 97.6719 282.0312 97.6719 Q281.3594 97.6719 280.9297 98.0547 Q280.5 98.4375 280.3906 99.1562 L279.8125 99.1562 L279.8125 97.6406 Z" style="fill:black; stroke:none;" /><rect height="10" style="stroke:none;" width="6" x="265" y="96" /><path d="M267.1094 105.3906 Q267.1094 105.0625 267.3359 104.8359 Q267.5625 104.6094 267.8906 104.6094 Q268.2188 104.6094 268.4453 104.8359 Q268.6719 105.0625 268.6719 105.3906 Q268.6719 105.7188 268.4453 105.9453 Q268.2188 106.1719 267.8906 106.1719 Q267.5625 106.1719 267.3359 105.9453 Q267.1094 105.7188 267.1094 105.3906 ZM265.8125 97.6406 Q266.4375 97.3594 267 97.2266 Q267.5625 97.0938 268.0469 97.0938 Q269.3438 97.0938 270.1016 97.7188 Q270.8594 98.3438 270.8594 99.4062 Q270.8594 100.5 270.2109 101.1953 Q269.5625 101.8906 268.25 102.1875 L268.25 103.6719 L267.5312 103.6719 L267.5312 101.75 Q268.5625 101.5 269.0938 100.9062 Q269.625 100.3125 269.625 99.4062 Q269.625 98.5938 269.1953 98.1328 Q268.7656 97.6719 268.0312 97.6719 Q267.3594 97.6719 266.9297 98.0547 Q266.5 98.4375 266.3906 99.1562 L265.8125 99.1562 L265.8125 97.6406 Z" style="fill:black; stroke:none;" /></g><g ID="l-1:13,19" style="text-rendering:optimizeSpeed;"><polygon points=" 301 41 249 41" style="fill:none;" /></g><g ID="r-1:13" style="fill:white; text-rendering:optimizeSpeed; stroke:white;" wurcs_mono_id="17"><rect height="22" style="clip-path:url(#clipPath17); stroke:none;" width="22" x="290" y="30" /><rect height="22" style="clip-path:url(#clipPath17); fill:rgb(0,144,188); stroke:none;" width="22" x="290" y="30" /><rect height="22" style="clip-path:url(#clipPath17); fill:none; stroke:black;" width="22" x="290" y="30" /><rect height="22" style="fill:none; stroke:black;" width="22" x="290" y="30" /></g><g ID="r-1:19" style="fill:white; text-rendering:optimizeSpeed; stroke:white;" wurcs_mono_id="18"><circle cx="249" cy="41" r="11" style="clip-path:url(#clipPath18); stroke:none;" /><rect height="22" style="clip-path:url(#clipPath18); fill:rgb(255,212,0); stroke:none;" width="22" x="238" y="30" /><rect height="22" style="clip-path:url(#clipPath18); fill:none; stroke:black;" width="22" x="238" y="30" /><circle cx="249" cy="41" r="11" style="fill:none; stroke:black;" /></g><g ID="li-1:13,19" style="fill:white; text-rendering:optimizeSpeed; font-family:'Serif'; stroke:white;"><rect height="10" style="stroke:none;" width="6" x="279" y="44" /><path d="M281.1094 53.3906 Q281.1094 53.0625 281.3359 52.8359 Q281.5625 52.6094 281.8906 52.6094 Q282.2188 52.6094 282.4453 52.8359 Q282.6719 53.0625 282.6719 53.3906 Q282.6719 53.7188 282.4453 53.9453 Q282.2188 54.1719 281.8906 54.1719 Q281.5625 54.1719 281.3359 53.9453 Q281.1094 53.7188 281.1094 53.3906 ZM279.8125 45.6406 Q280.4375 45.3594 281 45.2266 Q281.5625 45.0938 282.0469 45.0938 Q283.3438 45.0938 284.1016 45.7188 Q284.8594 46.3438 284.8594 47.4062 Q284.8594 48.5 284.2109 49.1953 Q283.5625 49.8906 282.25 50.1875 L282.25 51.6719 L281.5312 51.6719 L281.5312 49.75 Q282.5625 49.5 283.0938 48.9062 Q283.625 48.3125 283.625 47.4062 Q283.625 46.5938 283.1953 46.1328 Q282.7656 45.6719 282.0312 45.6719 Q281.3594 45.6719 280.9297 46.0547 Q280.5 46.4375 280.3906 47.1562 L279.8125 47.1562 L279.8125 45.6406 Z" style="fill:black; stroke:none;" /><rect height="10" style="stroke:none;" width="6" x="265" y="44" /><path d="M267.1094 53.3906 Q267.1094 53.0625 267.3359 52.8359 Q267.5625 52.6094 267.8906 52.6094 Q268.2188 52.6094 268.4453 52.8359 Q268.6719 53.0625 268.6719 53.3906 Q268.6719 53.7188 268.4453 53.9453 Q268.2188 54.1719 267.8906 54.1719 Q267.5625 54.1719 267.3359 53.9453 Q267.1094 53.7188 267.1094 53.3906 ZM265.8125 45.6406 Q266.4375 45.3594 267 45.2266 Q267.5625 45.0938 268.0469 45.0938 Q269.3438 45.0938 270.1016 45.7188 Q270.8594 46.3438 270.8594 47.4062 Q270.8594 48.5 270.2109 49.1953 Q269.5625 49.8906 268.25 50.1875 L268.25 51.6719 L267.5312 51.6719 L267.5312 49.75 Q268.5625 49.5 269.0938 48.9062 Q269.625 48.3125 269.625 47.4062 Q269.625 46.5938 269.1953 46.1328 Q268.7656 45.6719 268.0312 45.6719 Q267.3594 45.6719 266.9297 46.0547 Q266.5 46.4375 266.3906 47.1562 L265.8125 47.1562 L265.8125 45.6406 Z" style="fill:black; stroke:none;" /></g><g ID="li-1:6,12" style="fill:white; text-rendering:optimizeSpeed; font-family:'Serif'; stroke:white;"><rect height="10" style="stroke:none;" width="6" x="335" y="78" /><path d="M337.1094 87.3906 Q337.1094 87.0625 337.3359 86.8359 Q337.5625 86.6094 337.8906 86.6094 Q338.2188 86.6094 338.4453 86.8359 Q338.6719 87.0625 338.6719 87.3906 Q338.6719 87.7188 338.4453 87.9453 Q338.2188 88.1719 337.8906 88.1719 Q337.5625 88.1719 337.3359 87.9453 Q337.1094 87.7188 337.1094 87.3906 ZM335.8125 79.6406 Q336.4375 79.3594 337 79.2266 Q337.5625 79.0938 338.0469 79.0938 Q339.3438 79.0938 340.1016 79.7188 Q340.8594 80.3438 340.8594 81.4062 Q340.8594 82.5 340.2109 83.1953 Q339.5625 83.8906 338.25 84.1875 L338.25 85.6719 L337.5312 85.6719 L337.5312 83.75 Q338.5625 83.5 339.0938 82.9062 Q339.625 82.3125 339.625 81.4062 Q339.625 80.5938 339.1953 80.1328 Q338.7656 79.6719 338.0312 79.6719 Q337.3594 79.6719 336.9297 80.0547 Q336.5 80.4375 336.3906 81.1562 L335.8125 81.1562 L335.8125 79.6406 Z" style="fill:black; stroke:none;" /><rect height="10" style="stroke:none;" width="6" x="319" y="86" /><path d="M321.1094 95.3906 Q321.1094 95.0625 321.3359 94.8359 Q321.5625 94.6094 321.8906 94.6094 Q322.2188 94.6094 322.4453 94.8359 Q322.6719 95.0625 322.6719 95.3906 Q322.6719 95.7188 322.4453 95.9453 Q322.2188 96.1719 321.8906 96.1719 Q321.5625 96.1719 321.3359 95.9453 Q321.1094 95.7188 321.1094 95.3906 ZM319.8125 87.6406 Q320.4375 87.3594 321 87.2266 Q321.5625 87.0938 322.0469 87.0938 Q323.3438 87.0938 324.1016 87.7188 Q324.8594 88.3438 324.8594 89.4062 Q324.8594 90.5 324.2109 91.1953 Q323.5625 91.8906 322.25 92.1875 L322.25 93.6719 L321.5312 93.6719 L321.5312 91.75 Q322.5625 91.5 323.0938 90.9062 Q323.625 90.3125 323.625 89.4062 Q323.625 88.5938 323.1953 88.1328 Q322.7656 87.6719 322.0312 87.6719 Q321.3594 87.6719 320.9297 88.0547 Q320.5 88.4375 320.3906 89.1562 L319.8125 89.1562 L319.8125 87.6406 Z" style="fill:black; stroke:none;" /></g><g ID="li-1:6,13" style="fill:white; text-rendering:optimizeSpeed; font-family:'Serif'; stroke:white;"><rect height="10" style="stroke:none;" width="6" x="328" y="60" /><path d="M330.1094 69.3906 Q330.1094 69.0625 330.3359 68.8359 Q330.5625 68.6094 330.8906 68.6094 Q331.2188 68.6094 331.4453 68.8359 Q331.6719 69.0625 331.6719 69.3906 Q331.6719 69.7188 331.4453 69.9453 Q331.2188 70.1719 330.8906 70.1719 Q330.5625 70.1719 330.3359 69.9453 Q330.1094 69.7188 330.1094 69.3906 ZM328.8125 61.6406 Q329.4375 61.3594 330 61.2266 Q330.5625 61.0938 331.0469 61.0938 Q332.3438 61.0938 333.1016 61.7188 Q333.8594 62.3438 333.8594 63.4062 Q333.8594 64.5 333.2109 65.1953 Q332.5625 65.8906 331.25 66.1875 L331.25 67.6719 L330.5312 67.6719 L330.5312 65.75 Q331.5625 65.5 332.0938 64.9062 Q332.625 64.3125 332.625 63.4062 Q332.625 62.5938 332.1953 62.1328 Q331.7656 61.6719 331.0312 61.6719 Q330.3594 61.6719 329.9297 62.0547 Q329.5 62.4375 329.3906 63.1562 L328.8125 63.1562 L328.8125 61.6406 Z" style="fill:black; stroke:none;" /><rect height="10" style="stroke:none;" width="6" x="312" y="52" /><path d="M314.1094 61.3906 Q314.1094 61.0625 314.3359 60.8359 Q314.5625 60.6094 314.8906 60.6094 Q315.2188 60.6094 315.4453 60.8359 Q315.6719 61.0625 315.6719 61.3906 Q315.6719 61.7188 315.4453 61.9453 Q315.2188 62.1719 314.8906 62.1719 Q314.5625 62.1719 314.3359 61.9453 Q314.1094 61.7188 314.1094 61.3906 ZM312.8125 53.6406 Q313.4375 53.3594 314 53.2266 Q314.5625 53.0938 315.0469 53.0938 Q316.3438 53.0938 317.1016 53.7188 Q317.8594 54.3438 317.8594 55.4062 Q317.8594 56.5 317.2109 57.1953 Q316.5625 57.8906 315.25 58.1875 L315.25 59.6719 L314.5312 59.6719 L314.5312 57.75 Q315.5625 57.5 316.0938 56.9062 Q316.625 56.3125 316.625 55.4062 Q316.625 54.5938 316.1953 54.1328 Q315.7656 53.6719 315.0312 53.6719 Q314.3594 53.6719 313.9297 54.0547 Q313.5 54.4375 313.3906 55.1562 L312.8125 55.1562 L312.8125 53.6406 Z" style="fill:black; stroke:none;" /></g><g ID="li-1:4,5" style="fill:white; text-rendering:optimizeSpeed; font-family:'Serif'; stroke:white;"><rect height="10" style="stroke:none;" width="7" x="390" y="136" /><path d="M391.1719 137.625 Q391.8594 137.3594 392.4844 137.2266 Q393.1094 137.0938 393.6562 137.0938 Q394.9531 137.0938 395.6719 137.6484 Q396.3906 138.2031 396.3906 139.1875 Q396.3906 139.9688 395.8906 140.5 Q395.3906 141.0312 394.4844 141.2188 Q395.5625 141.375 396.1562 142.0078 Q396.75 142.6406 396.75 143.6406 Q396.75 144.8594 395.9219 145.5156 Q395.0938 146.1719 393.5469 146.1719 Q392.8594 146.1719 392.2109 146.0234 Q391.5625 145.875 390.9219 145.5781 L390.9219 143.875 L391.5781 143.875 Q391.625 144.7188 392.1406 145.1562 Q392.6562 145.5938 393.5781 145.5938 Q394.4688 145.5938 394.9922 145.0703 Q395.5156 144.5469 395.5156 143.6562 Q395.5156 142.625 394.9766 142.0938 Q394.4375 141.5625 393.4062 141.5625 L392.8594 141.5625 L392.8594 140.9531 L393.1406 140.9531 Q394.1719 140.9531 394.6875 140.5312 Q395.2031 140.1094 395.2031 139.25 Q395.2031 138.4844 394.7812 138.0781 Q394.3594 137.6719 393.5625 137.6719 Q392.7656 137.6719 392.3359 138.0469 Q391.9062 138.4219 391.8281 139.1562 L391.1719 139.1562 L391.1719 137.625 Z" style="fill:black; stroke:none;" /><rect height="8" style="stroke:none;" width="8" x="371" y="156" /><path d="M376.1875 162.4688 L375.9531 163.1094 Q375.7656 163.625 375.2031 163.9375 Q374.8438 164.1562 374.2031 164.1406 Q373.0469 164.1406 372.3281 163.2344 Q371.5938 162.3281 371.5938 160.8594 Q371.5938 159.4219 372.3281 158.4844 Q373.0156 157.5938 374.4531 157.6094 Q375.4531 157.6094 375.9531 158 Q376.4062 158.3438 376.5781 159.0938 L376.625 159.3125 L376.8438 158.6719 Q377.0625 158.0469 377.6562 157.75 L378.25 157.75 L378.25 158.0938 Q377.6875 158.2656 377.5 158.8125 L376.8906 160.4844 L377.2969 162.2812 Q377.5 163.2031 377.7344 163.2969 Q378.0469 163.4375 378.7812 163 L378.7812 163.7188 Q377.5938 164.4062 376.75 163.6875 Q376.375 163.3594 376.2656 162.875 L376.1875 162.4688 ZM375.9219 161.3125 L375.5625 159.5938 Q375.2656 158.2188 374.4688 158.2188 Q373.7969 158.2031 373.2812 158.9375 Q372.8594 159.5156 372.8594 160.875 Q372.8594 162.1719 373.2812 162.8281 Q373.75 163.5469 374.5312 163.5 Q375.2031 163.4375 375.6875 162 L375.9219 161.3125 Z" style="fill:black; stroke:none;" /></g><g ID="li-1:4,6" style="fill:white; text-rendering:optimizeSpeed; font-family:'Serif'; stroke:white;"><rect height="10" style="stroke:none;" width="7" x="379" y="103" /><path d="M382.9219 112.5938 Q383.75 112.5938 384.1953 111.9844 Q384.6406 111.375 384.6406 110.2344 Q384.6406 109.1094 384.1953 108.5 Q383.75 107.8906 382.9219 107.8906 Q382.0938 107.8906 381.6484 108.4766 Q381.2031 109.0625 381.2031 110.1719 Q381.2031 111.3281 381.6484 111.9609 Q382.0938 112.5938 382.9219 112.5938 ZM381.0156 108.1875 Q381.4219 107.75 381.9219 107.5312 Q382.4219 107.3125 383.0625 107.3125 Q384.3594 107.3125 385.1172 108.0938 Q385.875 108.875 385.875 110.2344 Q385.875 111.5625 385.0625 112.3672 Q384.25 113.1719 382.875 113.1719 Q381.3906 113.1719 380.5938 112.0625 Q379.7969 110.9531 379.7969 108.9062 Q379.7969 106.6094 380.7422 105.3516 Q381.6875 104.0938 383.4062 104.0938 Q383.875 104.0938 384.3828 104.1797 Q384.8906 104.2656 385.4219 104.4375 L385.4219 105.8906 L384.7656 105.8906 Q384.6875 105.2969 384.3047 104.9844 Q383.9219 104.6719 383.2812 104.6719 Q382.1406 104.6719 381.5859 105.5312 Q381.0312 106.3906 381.0156 108.1875 Z" style="fill:black; stroke:none;" /><rect height="8" style="stroke:none;" width="8" x="360" y="85" /><path d="M365.1875 91.4688 L364.9531 92.1094 Q364.7656 92.625 364.2031 92.9375 Q363.8438 93.1562 363.2031 93.1406 Q362.0469 93.1406 361.3281 92.2344 Q360.5938 91.3281 360.5938 89.8594 Q360.5938 88.4219 361.3281 87.4844 Q362.0156 86.5938 363.4531 86.6094 Q364.4531 86.6094 364.9531 87 Q365.4062 87.3438 365.5781 88.0938 L365.625 88.3125 L365.8438 87.6719 Q366.0625 87.0469 366.6562 86.75 L367.25 86.75 L367.25 87.0938 Q366.6875 87.2656 366.5 87.8125 L365.8906 89.4844 L366.2969 91.2812 Q366.5 92.2031 366.7344 92.2969 Q367.0469 92.4375 367.7812 92 L367.7812 92.7188 Q366.5938 93.4062 365.75 92.6875 Q365.375 92.3594 365.2656 91.875 L365.1875 91.4688 ZM364.9219 90.3125 L364.5625 88.5938 Q364.2656 87.2188 363.4688 87.2188 Q362.7969 87.2031 362.2812 87.9375 Q361.8594 88.5156 361.8594 89.875 Q361.8594 91.1719 362.2812 91.8281 Q362.75 92.5469 363.5312 92.5 Q364.2031 92.4375 364.6875 91 L364.9219 90.3125 Z" style="fill:black; stroke:none;" /></g><g ID="li-1:2,4" style="fill:white; text-rendering:optimizeSpeed; font-family:'Serif'; stroke:white;"><rect height="9" style="stroke:none;" width="8" x="434" y="122" /><path d="M438.1875 128.0312 L438.1875 123.375 L435.2031 128.0312 L438.1875 128.0312 ZM440.7656 131 L436.7812 131 L436.7812 130.375 L438.1875 130.375 L438.1875 128.6562 L434.375 128.6562 L434.375 128.0156 L438.2031 122.0938 L439.3594 122.0938 L439.3594 128.0312 L441.0312 128.0312 L441.0312 128.6562 L439.3594 128.6562 L439.3594 130.375 L440.7656 130.375 L440.7656 131 Z" style="fill:black; stroke:none;" /><rect height="13" style="stroke:none;" width="7" x="420" y="120" /><path d="M421.8281 132.25 Q422.2969 132.5938 423.1719 132.5938 Q424.0625 132.5938 424.5781 132.0703 Q425.0938 131.5469 425.0938 130.6562 Q425.0938 129.4219 424.5625 128.8906 Q424.0156 128.3594 423 128.3594 L422.4375 128.3594 L422.4375 127.7188 L422.7344 127.7188 Q423.4844 127.7188 424 127.2969 Q424.4219 126.9531 424.4219 126.0156 Q424.4219 125.6094 424.1406 125.1406 Q423.6875 124.375 423.1562 124.3906 Q421.8281 124.4375 421.8281 126.7812 L421.8281 132.25 ZM420.75 135.5 L420.75 126.7812 Q420.75 124.3281 422.0781 124 Q422.7656 123.8125 423.25 123.8125 Q424.3438 123.8125 425.0469 124.6719 Q425.6094 125.3594 425.6094 125.9375 Q425.6094 126.7812 425.2031 127.2656 Q424.7969 127.75 424.0625 127.9844 Q425.1406 128.1406 425.75 128.7812 Q426.3281 129.4062 426.3281 130.6328 Q426.3281 131.8594 425.5078 132.5156 Q424.6875 133.1719 423.1406 133.1719 Q422.1875 133.1719 421.8281 133.0312 L421.8281 135.5 L420.75 135.5 Z" style="fill:black; stroke:none;" /></g><g ID="r-1:3" style="fill:white; text-rendering:optimizeSpeed; stroke:white;" wurcs_mono_id="19"><polygon points=" 509 78 498 56 520 56" style="stroke:none; clip-path:url(#clipPath19);" /><rect height="22" style="clip-path:url(#clipPath19); fill:rgb(237,28,36); stroke:none;" width="22" x="498" y="56" /><rect height="22" style="clip-path:url(#clipPath19); fill:none; stroke:black;" width="22" x="498" y="56" /><polygon points=" 509 78 498 56 520 56" style="fill:none; stroke:black;" /></g><g ID="li-1:1,2" style="fill:white; text-rendering:optimizeSpeed; font-family:'Serif'; stroke:white;"><rect height="9" style="stroke:none;" width="8" x="486" y="122" /><path d="M490.1875 128.0312 L490.1875 123.375 L487.2031 128.0312 L490.1875 128.0312 ZM492.7656 131 L488.7812 131 L488.7812 130.375 L490.1875 130.375 L490.1875 128.6562 L486.375 128.6562 L486.375 128.0156 L490.2031 122.0938 L491.3594 122.0938 L491.3594 128.0312 L493.0312 128.0312 L493.0312 128.6562 L491.3594 128.6562 L491.3594 130.375 L492.7656 130.375 L492.7656 131 Z" style="fill:black; stroke:none;" /><rect height="13" style="stroke:none;" width="7" x="472" y="120" /><path d="M473.8281 132.25 Q474.2969 132.5938 475.1719 132.5938 Q476.0625 132.5938 476.5781 132.0703 Q477.0938 131.5469 477.0938 130.6562 Q477.0938 129.4219 476.5625 128.8906 Q476.0156 128.3594 475 128.3594 L474.4375 128.3594 L474.4375 127.7188 L474.7344 127.7188 Q475.4844 127.7188 476 127.2969 Q476.4219 126.9531 476.4219 126.0156 Q476.4219 125.6094 476.1406 125.1406 Q475.6875 124.375 475.1562 124.3906 Q473.8281 124.4375 473.8281 126.7812 L473.8281 132.25 ZM472.75 135.5 L472.75 126.7812 Q472.75 124.3281 474.0781 124 Q474.7656 123.8125 475.25 123.8125 Q476.3438 123.8125 477.0469 124.6719 Q477.6094 125.3594 477.6094 125.9375 Q477.6094 126.7812 477.2031 127.2656 Q476.7969 127.75 476.0625 127.9844 Q477.1406 128.1406 477.75 128.7812 Q478.3281 129.4062 478.3281 130.6328 Q478.3281 131.8594 477.5078 132.5156 Q476.6875 133.1719 475.1406 133.1719 Q474.1875 133.1719 473.8281 133.0312 L473.8281 135.5 L472.75 135.5 Z" style="fill:black; stroke:none;" /></g><g ID="li-1:1,3" style="fill:white; text-rendering:optimizeSpeed; font-family:'Serif'; stroke:white;"><rect height="10" style="stroke:none;" width="7" x="497" y="95" /><path d="M500.9219 104.5938 Q501.75 104.5938 502.1953 103.9844 Q502.6406 103.375 502.6406 102.2344 Q502.6406 101.1094 502.1953 100.5 Q501.75 99.8906 500.9219 99.8906 Q500.0938 99.8906 499.6484 100.4766 Q499.2031 101.0625 499.2031 102.1719 Q499.2031 103.3281 499.6484 103.9609 Q500.0938 104.5938 500.9219 104.5938 ZM499.0156 100.1875 Q499.4219 99.75 499.9219 99.5312 Q500.4219 99.3125 501.0625 99.3125 Q502.3594 99.3125 503.1172 100.0938 Q503.875 100.875 503.875 102.2344 Q503.875 103.5625 503.0625 104.3672 Q502.25 105.1719 500.875 105.1719 Q499.3906 105.1719 498.5938 104.0625 Q497.7969 102.9531 497.7969 100.9062 Q497.7969 98.6094 498.7422 97.3516 Q499.6875 96.0938 501.4062 96.0938 Q501.875 96.0938 502.3828 96.1797 Q502.8906 96.2656 503.4219 96.4375 L503.4219 97.8906 L502.7656 97.8906 Q502.6875 97.2969 502.3047 96.9844 Q501.9219 96.6719 501.2812 96.6719 Q500.1406 96.6719 499.5859 97.5312 Q499.0312 98.3906 499.0156 100.1875 Z" style="fill:black; stroke:none;" /><rect height="8" style="stroke:none;" width="8" x="497" y="82" /><path d="M502.1875 88.4688 L501.9531 89.1094 Q501.7656 89.625 501.2031 89.9375 Q500.8438 90.1562 500.2031 90.1406 Q499.0469 90.1406 498.3281 89.2344 Q497.5938 88.3281 497.5938 86.8594 Q497.5938 85.4219 498.3281 84.4844 Q499.0156 83.5938 500.4531 83.6094 Q501.4531 83.6094 501.9531 84 Q502.4062 84.3438 502.5781 85.0938 L502.625 85.3125 L502.8438 84.6719 Q503.0625 84.0469 503.6562 83.75 L504.25 83.75 L504.25 84.0938 Q503.6875 84.2656 503.5 84.8125 L502.8906 86.4844 L503.2969 88.2812 Q503.5 89.2031 503.7344 89.2969 Q504.0469 89.4375 504.7812 89 L504.7812 89.7188 Q503.5938 90.4062 502.75 89.6875 Q502.375 89.3594 502.2656 88.875 L502.1875 88.4688 ZM501.9219 87.3125 L501.5625 85.5938 Q501.2656 84.2188 500.4688 84.2188 Q499.7969 84.2031 499.2812 84.9375 Q498.8594 85.5156 498.8594 86.875 Q498.8594 88.1719 499.2812 88.8281 Q499.75 89.5469 500.5312 89.5 Q501.2031 89.4375 501.6875 88 L501.9219 87.3125 Z" style="fill:black; stroke:none;" /></g></g></svg>