<svg xmlns="http://www.w3.org/2000/svg" style="fill-opacity:1; color-rendering:auto; color-interpolation:auto; text-rendering:auto; stroke:black; stroke-linecap:square; stroke-miterlimit:10; shape-rendering:auto; stroke-opacity:1; fill:black; stroke-dasharray:none; font-weight:normal; stroke-width:1; font-family:'Dialog'; font-style:normal; stroke-linejoin:miter; font-size:12px; stroke-dashoffset:0; image-rendering:auto;"><defs id="genericDefs" /><g><defs id="defs1"><clipPath clipPathUnits="userSpaceOnUse" id="clipPath1"><path d="M134 30 L156 30 L156 52 L134 52 L134 30 Z" /></clipPath><clipPath clipPathUnits="userSpaceOnUse" id="clipPath2"><path d="M104 41 C104 47.0751 99.0751 52 93 52 C86.9249 52 82 47.0751 82 41 C82 34.9249 86.9249 30 93 30 C99.0751 30 104 34.9249 104 41 Z" /></clipPath><clipPath clipPathUnits="userSpaceOnUse" id="clipPath3"><path d="M30 30 L52 30 L52 52 L30 52 L30 30 Z" /></clipPath></defs><g style="fill:white; text-rendering:optimizeSpeed; stroke:white;"><rect height="82" style="stroke:none;" width="186" x="0" y="0" /></g><g ID="l-1:1,2" style="text-rendering:optimizeSpeed;"><polygon points=" 145 41 93 41" style="fill:none;" /></g><g ID="r-1:1" style="fill:white; text-rendering:optimizeSpeed; stroke:white;" wurcs_mono_id="1"><rect height="22" style="clip-path:url(#clipPath1); stroke:none;" width="22" x="134" y="30" /><rect height="22" style="clip-path:url(#clipPath1); fill:rgb(255,212,0); stroke:none;" width="22" x="134" y="30" /><rect height="22" style="clip-path:url(#clipPath1); fill:none; stroke:black;" width="22" x="134" y="30" /><rect height="22" style="fill:none; stroke:black;" width="22" x="134" y="30" /></g><g style="font-style:italic; text-rendering:optimizeSpeed; font-size:10px; font-family:'SansSerif';"><path d="M146.0938 38.1562 Q145.375 38.1562 144.8359 38.7188 Q144.2969 39.2812 144.0781 40.2656 Q143.875 41.25 144.1719 41.8125 Q144.4688 42.375 145.2031 42.375 Q145.9219 42.375 146.4609 41.8125 Q147 41.25 147.2031 40.2656 Q147.4062 39.2969 147.1094 38.7266 Q146.8125 38.1562 146.0938 38.1562 ZM146.25 37.4062 Q147.4219 37.4062 147.9297 38.1641 Q148.4375 38.9219 148.1562 40.2656 Q147.875 41.6094 147.0391 42.375 Q146.2031 43.1406 145.0312 43.1406 Q143.8594 43.1406 143.3516 42.375 Q142.8438 41.6094 143.125 40.2656 Q143.4062 38.9219 144.2422 38.1641 Q145.0781 37.4062 146.25 37.4062 Z" style="stroke:none;" /></g><g ID="l-1:2,3" style="text-rendering:optimizeSpeed;"><polygon points=" 93 41 41 41" style="fill:none;" /></g><g ID="r-1:2" style="fill:white; text-rendering:optimizeSpeed; stroke:white;" wurcs_mono_id="2"><circle cx="93" cy="41" r="11" style="clip-path:url(#clipPath2); stroke:none;" /><rect height="22" style="clip-path:url(#clipPath2); fill:rgb(255,212,0); stroke:none;" width="22" x="82" y="30" /><rect height="22" style="clip-path:url(#clipPath2); fill:none; stroke:black;" width="22" x="82" y="30" /><circle cx="93" cy="41" r="11" style="fill:none; stroke:black;" /></g><g ID="r-1:3" style="fill:white; text-rendering:optimizeSpeed; stroke:white;" wurcs_mono_id="3"><rect height="22" style="clip-path:url(#clipPath3); stroke:none;" width="22" x="30" y="30" /><rect height="22" style="clip-path:url(#clipPath3); fill:rgb(255,212,0); stroke:none;" width="22" x="30" y="30" /><rect height="22" style="clip-path:url(#clipPath3); fill:none; stroke:black;" width="22" x="30" y="30" /><rect height="22" style="fill:none; stroke:black;" width="22" x="30" y="30" /></g><g ID="li-1:2,3" style="fill:white; text-rendering:optimizeSpeed; font-family:'Serif'; stroke:white;"><rect height="9" style="stroke:none;" width="8" x="70" y="44" /><path d="M74.1875 50.0312 L74.1875 45.375 L71.2031 50.0312 L74.1875 50.0312 ZM76.7656 53 L72.7812 53 L72.7812 52.375 L74.1875 52.375 L74.1875 50.6562 L70.375 50.6562 L70.375 50.0156 L74.2031 44.0938 L75.3594 44.0938 L75.3594 50.0312 L77.0312 50.0312 L77.0312 50.6562 L75.3594 50.6562 L75.3594 52.375 L76.7656 52.375 L76.7656 53 Z" style="fill:black; stroke:none;" /><rect height="8" style="stroke:none;" width="8" x="56" y="45" /><path d="M61.1875 51.4688 L60.9531 52.1094 Q60.7656 52.625 60.2031 52.9375 Q59.8438 53.1562 59.2031 53.1406 Q58.0469 53.1406 57.3281 52.2344 Q56.5938 51.3281 56.5938 49.8594 Q56.5938 48.4219 57.3281 47.4844 Q58.0156 46.5938 59.4531 46.6094 Q60.4531 46.6094 60.9531 47 Q61.4062 47.3438 61.5781 48.0938 L61.625 48.3125 L61.8438 47.6719 Q62.0625 47.0469 62.6562 46.75 L63.25 46.75 L63.25 47.0938 Q62.6875 47.2656 62.5 47.8125 L61.8906 49.4844 L62.2969 51.2812 Q62.5 52.2031 62.7344 52.2969 Q63.0469 52.4375 63.7812 52 L63.7812 52.7188 Q62.5938 53.4062 61.75 52.6875 Q61.375 52.3594 61.2656 51.875 L61.1875 51.4688 ZM60.9219 50.3125 L60.5625 48.5938 Q60.2656 47.2188 59.4688 47.2188 Q58.7969 47.2031 58.2812 47.9375 Q57.8594 48.5156 57.8594 49.875 Q57.8594 51.1719 58.2812 51.8281 Q58.75 52.5469 59.5312 52.5 Q60.2031 52.4375 60.6875 51 L60.9219 50.3125 Z" style="fill:black; stroke:none;" /></g><g ID="li-1:1,2" style="fill:white; text-rendering:optimizeSpeed; font-family:'Serif'; stroke:white;"><rect height="10" style="stroke:none;" width="7" x="122" y="44" /><path d="M123.1719 45.625 Q123.8594 45.3594 124.4844 45.2266 Q125.1094 45.0938 125.6562 45.0938 Q126.9531 45.0938 127.6719 45.6484 Q128.3906 46.2031 128.3906 47.1875 Q128.3906 47.9688 127.8906 48.5 Q127.3906 49.0312 126.4844 49.2188 Q127.5625 49.375 128.1562 50.0078 Q128.75 50.6406 128.75 51.6406 Q128.75 52.8594 127.9219 53.5156 Q127.0938 54.1719 125.5469 54.1719 Q124.8594 54.1719 124.2109 54.0234 Q123.5625 53.875 122.9219 53.5781 L122.9219 51.875 L123.5781 51.875 Q123.625 52.7188 124.1406 53.1562 Q124.6562 53.5938 125.5781 53.5938 Q126.4688 53.5938 126.9922 53.0703 Q127.5156 52.5469 127.5156 51.6562 Q127.5156 50.625 126.9766 50.0938 Q126.4375 49.5625 125.4062 49.5625 L124.8594 49.5625 L124.8594 48.9531 L125.1406 48.9531 Q126.1719 48.9531 126.6875 48.5312 Q127.2031 48.1094 127.2031 47.25 Q127.2031 46.4844 126.7812 46.0781 Q126.3594 45.6719 125.5625 45.6719 Q124.7656 45.6719 124.3359 46.0469 Q123.9062 46.4219 123.8281 47.1562 L123.1719 47.1562 L123.1719 45.625 Z" style="fill:black; stroke:none;" /><rect height="13" style="stroke:none;" width="7" x="108" y="42" /><path d="M109.8281 54.25 Q110.2969 54.5938 111.1719 54.5938 Q112.0625 54.5938 112.5781 54.0703 Q113.0938 53.5469 113.0938 52.6562 Q113.0938 51.4219 112.5625 50.8906 Q112.0156 50.3594 111 50.3594 L110.4375 50.3594 L110.4375 49.7188 L110.7344 49.7188 Q111.4844 49.7188 112 49.2969 Q112.4219 48.9531 112.4219 48.0156 Q112.4219 47.6094 112.1406 47.1406 Q111.6875 46.375 111.1562 46.3906 Q109.8281 46.4375 109.8281 48.7812 L109.8281 54.25 ZM108.75 57.5 L108.75 48.7812 Q108.75 46.3281 110.0781 46 Q110.7656 45.8125 111.25 45.8125 Q112.3438 45.8125 113.0469 46.6719 Q113.6094 47.3594 113.6094 47.9375 Q113.6094 48.7812 113.2031 49.2656 Q112.7969 49.75 112.0625 49.9844 Q113.1406 50.1406 113.75 50.7812 Q114.3281 51.4062 114.3281 52.6328 Q114.3281 53.8594 113.5078 54.5156 Q112.6875 55.1719 111.1406 55.1719 Q110.1875 55.1719 109.8281 55.0312 L109.8281 57.5 L108.75 57.5 Z" style="fill:black; stroke:none;" /></g></g></svg>