<svg xmlns="http://www.w3.org/2000/svg" style="fill-opacity:1; color-rendering:auto; color-interpolation:auto; text-rendering:auto; stroke:black; stroke-linecap:square; stroke-miterlimit:10; shape-rendering:auto; stroke-opacity:1; fill:black; stroke-dasharray:none; font-weight:normal; stroke-width:1; font-family:'Dialog'; font-style:normal; stroke-linejoin:miter; font-size:12px; stroke-dashoffset:0; image-rendering:auto;"><defs id="genericDefs" /><g><defs id="defs1"><clipPath clipPathUnits="userSpaceOnUse" id="clipPath1"><path d="M82 56 L104 56 L104 78 L82 78 L82 56 Z" /></clipPath><clipPath clipPathUnits="userSpaceOnUse" id="clipPath2"><path d="M30 82 L52 82 L52 104 L30 104 L30 82 Z" /></clipPath><clipPath clipPathUnits="userSpaceOnUse" id="clipPath3"><path d="M52 41 C52 47.0751 47.0751 52 41 52 C34.9249 52 30 47.0751 30 41 C30 34.9249 34.9249 30 41 30 C47.0751 30 52 34.9249 52 41 Z" /></clipPath></defs><g style="fill:white; text-rendering:optimizeSpeed; stroke:white;"><rect height="134" style="stroke:none;" width="134" x="0" y="0" /></g><g ID="l-1:1,2" style="text-rendering:optimizeSpeed;"><polygon points=" 93 67 41 93" style="fill:none;" /></g><g ID="l-1:1,3" style="text-rendering:optimizeSpeed;"><polygon points=" 93 67 41 41" style="fill:none;" /></g><g ID="r-1:1" style="fill:white; text-rendering:optimizeSpeed; stroke:white;" wurcs_mono_id="1"><rect height="22" style="clip-path:url(#clipPath1); stroke:none;" width="22" x="82" y="56" /><rect height="22" style="clip-path:url(#clipPath1); fill:rgb(255,212,0); stroke:none;" width="22" x="82" y="56" /><rect height="22" style="clip-path:url(#clipPath1); fill:none; stroke:black;" width="22" x="82" y="56" /><rect height="22" style="fill:none; stroke:black;" width="22" x="82" y="56" /></g><g ID="r-1:2" style="fill:white; text-rendering:optimizeSpeed; stroke:white;" wurcs_mono_id="2"><rect height="22" style="clip-path:url(#clipPath2); stroke:none;" width="22" x="30" y="82" /><rect height="22" style="clip-path:url(#clipPath2); fill:rgb(0,144,188); stroke:none;" width="22" x="30" y="82" /><rect height="22" style="clip-path:url(#clipPath2); fill:none; stroke:black;" width="22" x="30" y="82" /><rect height="22" style="fill:none; stroke:black;" width="22" x="30" y="82" /></g><g ID="r-1:3" style="fill:white; text-rendering:optimizeSpeed; stroke:white;" wurcs_mono_id="3"><circle cx="41" cy="41" r="11" style="clip-path:url(#clipPath3); stroke:none;" /><rect height="22" style="clip-path:url(#clipPath3); fill:rgb(255,212,0); stroke:none;" width="22" x="30" y="30" /><rect height="22" style="clip-path:url(#clipPath3); fill:none; stroke:black;" width="22" x="30" y="30" /><circle cx="41" cy="41" r="11" style="fill:none; stroke:black;" /></g><g ID="li-1:1,2" style="fill:white; text-rendering:optimizeSpeed; font-family:'Serif'; stroke:white;"><rect height="11" style="stroke:none;" width="19" x="68" y="77" /><path d="M69.1719 79.625 Q69.8594 79.3594 70.4844 79.2266 Q71.1094 79.0938 71.6562 79.0938 Q72.9531 79.0938 73.6719 79.6484 Q74.3906 80.2031 74.3906 81.1875 Q74.3906 81.9688 73.8906 82.5 Q73.3906 83.0312 72.4844 83.2188 Q73.5625 83.375 74.1562 84.0078 Q74.75 84.6406 74.75 85.6406 Q74.75 86.8594 73.9219 87.5156 Q73.0938 88.1719 71.5469 88.1719 Q70.8594 88.1719 70.2109 88.0234 Q69.5625 87.875 68.9219 87.5781 L68.9219 85.875 L69.5781 85.875 Q69.625 86.7188 70.1406 87.1562 Q70.6562 87.5938 71.5781 87.5938 Q72.4688 87.5938 72.9922 87.0703 Q73.5156 86.5469 73.5156 85.6562 Q73.5156 84.625 72.9766 84.0938 Q72.4375 83.5625 71.4062 83.5625 L70.8594 83.5625 L70.8594 82.9531 L71.1406 82.9531 Q72.1719 82.9531 72.6875 82.5312 Q73.2031 82.1094 73.2031 81.25 Q73.2031 80.4844 72.7812 80.0781 Q72.3594 79.6719 71.5625 79.6719 Q70.7656 79.6719 70.3359 80.0469 Q69.9062 80.4219 69.8281 81.1562 L69.1719 81.1562 L69.1719 79.625 ZM78.7441 79.25 L79.6816 79.25 L76.5723 89.1094 L75.6348 89.1094 L78.7441 79.25 ZM83.5996 87.5938 Q84.4277 87.5938 84.873 86.9844 Q85.3184 86.375 85.3184 85.2344 Q85.3184 84.1094 84.873 83.5 Q84.4277 82.8906 83.5996 82.8906 Q82.7715 82.8906 82.3262 83.4766 Q81.8809 84.0625 81.8809 85.1719 Q81.8809 86.3281 82.3262 86.9609 Q82.7715 87.5938 83.5996 87.5938 ZM81.6934 83.1875 Q82.0996 82.75 82.5996 82.5312 Q83.0996 82.3125 83.7402 82.3125 Q85.0371 82.3125 85.7949 83.0938 Q86.5527 83.875 86.5527 85.2344 Q86.5527 86.5625 85.7402 87.3672 Q84.9277 88.1719 83.5527 88.1719 Q82.0684 88.1719 81.2715 87.0625 Q80.4746 85.9531 80.4746 83.9062 Q80.4746 81.6094 81.4199 80.3516 Q82.3652 79.0938 84.084 79.0938 Q84.5527 79.0938 85.0605 79.1797 Q85.5684 79.2656 86.0996 79.4375 L86.0996 80.8906 L85.4434 80.8906 Q85.3652 80.2969 84.9824 79.9844 Q84.5996 79.6719 83.959 79.6719 Q82.8184 79.6719 82.2637 80.5312 Q81.709 81.3906 81.6934 83.1875 Z" style="fill:black; stroke:none;" /><rect height="13" style="stroke:none;" width="7" x="59" y="84" /><path d="M60.8281 96.25 Q61.2969 96.5938 62.1719 96.5938 Q63.0625 96.5938 63.5781 96.0703 Q64.0938 95.5469 64.0938 94.6562 Q64.0938 93.4219 63.5625 92.8906 Q63.0156 92.3594 62 92.3594 L61.4375 92.3594 L61.4375 91.7188 L61.7344 91.7188 Q62.4844 91.7188 63 91.2969 Q63.4219 90.9531 63.4219 90.0156 Q63.4219 89.6094 63.1406 89.1406 Q62.6875 88.375 62.1562 88.3906 Q60.8281 88.4375 60.8281 90.7812 L60.8281 96.25 ZM59.75 99.5 L59.75 90.7812 Q59.75 88.3281 61.0781 88 Q61.7656 87.8125 62.25 87.8125 Q63.3438 87.8125 64.0469 88.6719 Q64.6094 89.3594 64.6094 89.9375 Q64.6094 90.7812 64.2031 91.2656 Q63.7969 91.75 63.0625 91.9844 Q64.1406 92.1406 64.75 92.7812 Q65.3281 93.4062 65.3281 94.6328 Q65.3281 95.8594 64.5078 96.5156 Q63.6875 97.1719 62.1406 97.1719 Q61.1875 97.1719 60.8281 97.0312 L60.8281 99.5 L59.75 99.5 Z" style="fill:black; stroke:none;" /></g><g ID="li-1:1,3" style="fill:white; text-rendering:optimizeSpeed; font-family:'Serif'; stroke:white;"><rect height="11" style="stroke:none;" width="19" x="61" y="59" /><path d="M62.1719 61.625 Q62.8594 61.3594 63.4844 61.2266 Q64.1094 61.0938 64.6562 61.0938 Q65.9531 61.0938 66.6719 61.6484 Q67.3906 62.2031 67.3906 63.1875 Q67.3906 63.9688 66.8906 64.5 Q66.3906 65.0312 65.4844 65.2188 Q66.5625 65.375 67.1562 66.0078 Q67.75 66.6406 67.75 67.6406 Q67.75 68.8594 66.9219 69.5156 Q66.0938 70.1719 64.5469 70.1719 Q63.8594 70.1719 63.2109 70.0234 Q62.5625 69.875 61.9219 69.5781 L61.9219 67.875 L62.5781 67.875 Q62.625 68.7188 63.1406 69.1562 Q63.6562 69.5938 64.5781 69.5938 Q65.4688 69.5938 65.9922 69.0703 Q66.5156 68.5469 66.5156 67.6562 Q66.5156 66.625 65.9766 66.0938 Q65.4375 65.5625 64.4062 65.5625 L63.8594 65.5625 L63.8594 64.9531 L64.1406 64.9531 Q65.1719 64.9531 65.6875 64.5312 Q66.2031 64.1094 66.2031 63.25 Q66.2031 62.4844 65.7812 62.0781 Q65.3594 61.6719 64.5625 61.6719 Q63.7656 61.6719 63.3359 62.0469 Q62.9062 62.4219 62.8281 63.1562 L62.1719 63.1562 L62.1719 61.625 ZM71.7441 61.25 L72.6816 61.25 L69.5723 71.1094 L68.6348 71.1094 L71.7441 61.25 ZM76.5996 69.5938 Q77.4277 69.5938 77.873 68.9844 Q78.3184 68.375 78.3184 67.2344 Q78.3184 66.1094 77.873 65.5 Q77.4277 64.8906 76.5996 64.8906 Q75.7715 64.8906 75.3262 65.4766 Q74.8809 66.0625 74.8809 67.1719 Q74.8809 68.3281 75.3262 68.9609 Q75.7715 69.5938 76.5996 69.5938 ZM74.6934 65.1875 Q75.0996 64.75 75.5996 64.5312 Q76.0996 64.3125 76.7402 64.3125 Q78.0371 64.3125 78.7949 65.0938 Q79.5527 65.875 79.5527 67.2344 Q79.5527 68.5625 78.7402 69.3672 Q77.9277 70.1719 76.5527 70.1719 Q75.0684 70.1719 74.2715 69.0625 Q73.4746 67.9531 73.4746 65.9062 Q73.4746 63.6094 74.4199 62.3516 Q75.3652 61.0938 77.084 61.0938 Q77.5527 61.0938 78.0605 61.1797 Q78.5684 61.2656 79.0996 61.4375 L79.0996 62.8906 L78.4434 62.8906 Q78.3652 62.2969 77.9824 61.9844 Q77.5996 61.6719 76.959 61.6719 Q75.8184 61.6719 75.2637 62.5312 Q74.709 63.3906 74.6934 65.1875 Z" style="fill:black; stroke:none;" /><rect height="13" style="stroke:none;" width="7" x="52" y="50" /><path d="M53.8281 62.25 Q54.2969 62.5938 55.1719 62.5938 Q56.0625 62.5938 56.5781 62.0703 Q57.0938 61.5469 57.0938 60.6562 Q57.0938 59.4219 56.5625 58.8906 Q56.0156 58.3594 55 58.3594 L54.4375 58.3594 L54.4375 57.7188 L54.7344 57.7188 Q55.4844 57.7188 56 57.2969 Q56.4219 56.9531 56.4219 56.0156 Q56.4219 55.6094 56.1406 55.1406 Q55.6875 54.375 55.1562 54.3906 Q53.8281 54.4375 53.8281 56.7812 L53.8281 62.25 ZM52.75 65.5 L52.75 56.7812 Q52.75 54.3281 54.0781 54 Q54.7656 53.8125 55.25 53.8125 Q56.3438 53.8125 57.0469 54.6719 Q57.6094 55.3594 57.6094 55.9375 Q57.6094 56.7812 57.2031 57.2656 Q56.7969 57.75 56.0625 57.9844 Q57.1406 58.1406 57.75 58.7812 Q58.3281 59.4062 58.3281 60.6328 Q58.3281 61.8594 57.5078 62.5156 Q56.6875 63.1719 55.1406 63.1719 Q54.1875 63.1719 53.8281 63.0312 L53.8281 65.5 L52.75 65.5 Z" style="fill:black; stroke:none;" /></g></g></svg>