<svg xmlns="http://www.w3.org/2000/svg" style="fill-opacity:1; color-rendering:auto; color-interpolation:auto; text-rendering:auto; stroke:black; stroke-linecap:square; stroke-miterlimit:10; shape-rendering:auto; stroke-opacity:1; fill:black; stroke-dasharray:none; font-weight:normal; stroke-width:1; font-family:'Dialog'; font-style:normal; stroke-linejoin:miter; font-size:12px; stroke-dashoffset:0; image-rendering:auto;"><defs id="genericDefs" /><g><defs id="defs1"><clipPath clipPathUnits="userSpaceOnUse" id="clipPath1"><path d="M238 82 L260 82 L260 104 L238 104 L238 82 Z" /></clipPath><clipPath clipPathUnits="userSpaceOnUse" id="clipPath2"><path d="M186 82 L208 82 L208 104 L186 104 L186 82 Z" /></clipPath><clipPath clipPathUnits="userSpaceOnUse" id="clipPath3"><path d="M156 93 C156 99.0751 151.0751 104 145 104 C138.9249 104 134 99.0751 134 93 C134 86.9249 138.9249 82 145 82 C151.0751 82 156 86.9249 156 93 Z" /></clipPath><clipPath clipPathUnits="userSpaceOnUse" id="clipPath4"><path d="M104 93 C104 99.0751 99.0751 104 93 104 C86.9249 104 82 99.0751 82 93 C82 86.9249 86.9249 82 93 82 C99.0751 82 104 86.9249 104 93 Z" /></clipPath><clipPath clipPathUnits="userSpaceOnUse" id="clipPath5"><path d="M52 93 C52 99.0751 47.0751 104 41 104 C34.9249 104 30 99.0751 30 93 C30 86.9249 34.9249 82 41 82 C47.0751 82 52 86.9249 52 93 Z" /></clipPath><clipPath clipPathUnits="userSpaceOnUse" id="clipPath6"><path d="M145 30 L147 37 L155 37 L148 42 L151 49 L145 45 L138 49 L141 42 L134 37 L142 37 L145 30 Z" style="fill-rule:evenodd;" /></clipPath></defs><g style="fill:white; text-rendering:optimizeSpeed; stroke:white;"><rect height="134" style="stroke:none;" width="290" x="0" y="0" /></g><g ID="l-1:1,2" style="text-rendering:optimizeSpeed;"><polygon points=" 249 93 197 93" style="fill:none;" /></g><g ID="r-1:1" style="fill:white; text-rendering:optimizeSpeed; stroke:white;" wurcs_mono_id="1"><rect height="22" style="clip-path:url(#clipPath1); stroke:none;" width="22" x="238" y="82" /><rect height="22" style="clip-path:url(#clipPath1); fill:rgb(0,144,188); stroke:none;" width="22" x="238" y="82" /><rect height="22" style="clip-path:url(#clipPath1); fill:none; stroke:black;" width="22" x="238" y="82" /><rect height="22" style="fill:none; stroke:black;" width="22" x="238" y="82" /></g><g ID="l-1:2,3" style="text-rendering:optimizeSpeed;"><polygon points=" 197 93 145 93" style="fill:none;" /></g><g ID="r-1:2" style="fill:white; text-rendering:optimizeSpeed; stroke:white;" wurcs_mono_id="2"><rect height="22" style="clip-path:url(#clipPath2); stroke:none;" width="22" x="186" y="82" /><rect height="22" style="clip-path:url(#clipPath2); fill:rgb(0,144,188); stroke:none;" width="22" x="186" y="82" /><rect height="22" style="clip-path:url(#clipPath2); fill:none; stroke:black;" width="22" x="186" y="82" /><rect height="22" style="fill:none; stroke:black;" width="22" x="186" y="82" /></g><g ID="l-1:3,4" style="text-rendering:optimizeSpeed;"><polygon points=" 145 93 93 93" style="fill:none;" /></g><g ID="l-1:3,5" style="text-rendering:optimizeSpeed;"><polygon points=" 145 93 145 41" style="fill:none;" /></g><g ID="r-1:3" style="fill:white; text-rendering:optimizeSpeed; stroke:white;" wurcs_mono_id="3"><circle cx="145" cy="93" r="11" style="clip-path:url(#clipPath3); stroke:none;" /><rect height="22" style="clip-path:url(#clipPath3); fill:rgb(0,166,81); stroke:none;" width="22" x="134" y="82" /><rect height="22" style="clip-path:url(#clipPath3); fill:none; stroke:black;" width="22" x="134" y="82" /><circle cx="145" cy="93" r="11" style="fill:none; stroke:black;" /></g><g ID="l-1:4,6" style="text-rendering:optimizeSpeed;"><polygon points=" 93 93 41 93" style="fill:none;" /></g><g ID="r-1:4" style="fill:white; text-rendering:optimizeSpeed; stroke:white;" wurcs_mono_id="4"><circle cx="93" cy="93" r="11" style="clip-path:url(#clipPath4); stroke:none;" /><rect height="22" style="clip-path:url(#clipPath4); fill:rgb(0,166,81); stroke:none;" width="22" x="82" y="82" /><rect height="22" style="clip-path:url(#clipPath4); fill:none; stroke:black;" width="22" x="82" y="82" /><circle cx="93" cy="93" r="11" style="fill:none; stroke:black;" /></g><g ID="r-1:6" style="fill:white; text-rendering:optimizeSpeed; stroke:white;" wurcs_mono_id="5"><circle cx="41" cy="93" r="11" style="clip-path:url(#clipPath5); stroke:none;" /><rect height="22" style="clip-path:url(#clipPath5); fill:rgb(0,166,81); stroke:none;" width="22" x="30" y="82" /><rect height="22" style="clip-path:url(#clipPath5); fill:none; stroke:black;" width="22" x="30" y="82" /><circle cx="41" cy="93" r="11" style="fill:none; stroke:black;" /></g><g ID="li-1:4,6" style="fill:white; text-rendering:optimizeSpeed; font-family:'Serif'; stroke:white;"><rect height="10" style="stroke:none;" width="6" x="71" y="96" /><path d="M73.1094 105.3906 Q73.1094 105.0625 73.3359 104.8359 Q73.5625 104.6094 73.8906 104.6094 Q74.2188 104.6094 74.4453 104.8359 Q74.6719 105.0625 74.6719 105.3906 Q74.6719 105.7188 74.4453 105.9453 Q74.2188 106.1719 73.8906 106.1719 Q73.5625 106.1719 73.3359 105.9453 Q73.1094 105.7188 73.1094 105.3906 ZM71.8125 97.6406 Q72.4375 97.3594 73 97.2266 Q73.5625 97.0938 74.0469 97.0938 Q75.3438 97.0938 76.1016 97.7188 Q76.8594 98.3438 76.8594 99.4062 Q76.8594 100.5 76.2109 101.1953 Q75.5625 101.8906 74.25 102.1875 L74.25 103.6719 L73.5312 103.6719 L73.5312 101.75 Q74.5625 101.5 75.0938 100.9062 Q75.625 100.3125 75.625 99.4062 Q75.625 98.5938 75.1953 98.1328 Q74.7656 97.6719 74.0312 97.6719 Q73.3594 97.6719 72.9297 98.0547 Q72.5 98.4375 72.3906 99.1562 L71.8125 99.1562 L71.8125 97.6406 Z" style="fill:black; stroke:none;" /><rect height="8" style="stroke:none;" width="8" x="56" y="97" /><path d="M61.1875 103.4688 L60.9531 104.1094 Q60.7656 104.625 60.2031 104.9375 Q59.8438 105.1562 59.2031 105.1406 Q58.0469 105.1406 57.3281 104.2344 Q56.5938 103.3281 56.5938 101.8594 Q56.5938 100.4219 57.3281 99.4844 Q58.0156 98.5938 59.4531 98.6094 Q60.4531 98.6094 60.9531 99 Q61.4062 99.3438 61.5781 100.0938 L61.625 100.3125 L61.8438 99.6719 Q62.0625 99.0469 62.6562 98.75 L63.25 98.75 L63.25 99.0938 Q62.6875 99.2656 62.5 99.8125 L61.8906 101.4844 L62.2969 103.2812 Q62.5 104.2031 62.7344 104.2969 Q63.0469 104.4375 63.7812 104 L63.7812 104.7188 Q62.5938 105.4062 61.75 104.6875 Q61.375 104.3594 61.2656 103.875 L61.1875 103.4688 ZM60.9219 102.3125 L60.5625 100.5938 Q60.2656 99.2188 59.4688 99.2188 Q58.7969 99.2031 58.2812 99.9375 Q57.8594 100.5156 57.8594 101.875 Q57.8594 103.1719 58.2812 103.8281 Q58.75 104.5469 59.5312 104.5 Q60.2031 104.4375 60.6875 103 L60.9219 102.3125 Z" style="fill:black; stroke:none;" /></g><g ID="r-1:5" style="fill:white; text-rendering:optimizeSpeed; stroke:white;" wurcs_mono_id="6"><polygon points=" 145 30 147 37 155 37 148 42 151 49 145 45 138 49 141 42 134 37 142 37 145 30" style="stroke:none; clip-path:url(#clipPath6);" /><rect height="22" style="clip-path:url(#clipPath6); fill:rgb(244,121,32); stroke:none;" width="22" x="134" y="30" /><rect height="22" style="clip-path:url(#clipPath6); fill:none; stroke:black;" width="22" x="134" y="30" /><polygon points=" 145 30 147 37 155 37 148 42 151 49 145 45 138 49 141 42 134 37 142 37 145 30" style="fill:none; stroke:black;" /></g><g ID="li-1:3,4" style="fill:white; text-rendering:optimizeSpeed; font-family:'Serif'; stroke:white;"><rect height="10" style="stroke:none;" width="6" x="123" y="96" /><path d="M125.1094 105.3906 Q125.1094 105.0625 125.3359 104.8359 Q125.5625 104.6094 125.8906 104.6094 Q126.2188 104.6094 126.4453 104.8359 Q126.6719 105.0625 126.6719 105.3906 Q126.6719 105.7188 126.4453 105.9453 Q126.2188 106.1719 125.8906 106.1719 Q125.5625 106.1719 125.3359 105.9453 Q125.1094 105.7188 125.1094 105.3906 ZM123.8125 97.6406 Q124.4375 97.3594 125 97.2266 Q125.5625 97.0938 126.0469 97.0938 Q127.3438 97.0938 128.1016 97.7188 Q128.8594 98.3438 128.8594 99.4062 Q128.8594 100.5 128.2109 101.1953 Q127.5625 101.8906 126.25 102.1875 L126.25 103.6719 L125.5312 103.6719 L125.5312 101.75 Q126.5625 101.5 127.0938 100.9062 Q127.625 100.3125 127.625 99.4062 Q127.625 98.5938 127.1953 98.1328 Q126.7656 97.6719 126.0312 97.6719 Q125.3594 97.6719 124.9297 98.0547 Q124.5 98.4375 124.3906 99.1562 L123.8125 99.1562 L123.8125 97.6406 Z" style="fill:black; stroke:none;" /><rect height="8" style="stroke:none;" width="8" x="108" y="97" /><path d="M113.1875 103.4688 L112.9531 104.1094 Q112.7656 104.625 112.2031 104.9375 Q111.8438 105.1562 111.2031 105.1406 Q110.0469 105.1406 109.3281 104.2344 Q108.5938 103.3281 108.5938 101.8594 Q108.5938 100.4219 109.3281 99.4844 Q110.0156 98.5938 111.4531 98.6094 Q112.4531 98.6094 112.9531 99 Q113.4062 99.3438 113.5781 100.0938 L113.625 100.3125 L113.8438 99.6719 Q114.0625 99.0469 114.6562 98.75 L115.25 98.75 L115.25 99.0938 Q114.6875 99.2656 114.5 99.8125 L113.8906 101.4844 L114.2969 103.2812 Q114.5 104.2031 114.7344 104.2969 Q115.0469 104.4375 115.7812 104 L115.7812 104.7188 Q114.5938 105.4062 113.75 104.6875 Q113.375 104.3594 113.2656 103.875 L113.1875 103.4688 ZM112.9219 102.3125 L112.5625 100.5938 Q112.2656 99.2188 111.4688 99.2188 Q110.7969 99.2031 110.2812 99.9375 Q109.8594 100.5156 109.8594 101.875 Q109.8594 103.1719 110.2812 103.8281 Q110.75 104.5469 111.5312 104.5 Q112.2031 104.4375 112.6875 103 L112.9219 102.3125 Z" style="fill:black; stroke:none;" /></g><g ID="li-1:3,5" style="fill:white; text-rendering:optimizeSpeed; font-family:'Serif'; stroke:white;"><rect height="10" style="stroke:none;" width="6" x="134" y="69" /><path d="M136.1094 78.3906 Q136.1094 78.0625 136.3359 77.8359 Q136.5625 77.6094 136.8906 77.6094 Q137.2188 77.6094 137.4453 77.8359 Q137.6719 78.0625 137.6719 78.3906 Q137.6719 78.7188 137.4453 78.9453 Q137.2188 79.1719 136.8906 79.1719 Q136.5625 79.1719 136.3359 78.9453 Q136.1094 78.7188 136.1094 78.3906 ZM134.8125 70.6406 Q135.4375 70.3594 136 70.2266 Q136.5625 70.0938 137.0469 70.0938 Q138.3438 70.0938 139.1016 70.7188 Q139.8594 71.3438 139.8594 72.4062 Q139.8594 73.5 139.2109 74.1953 Q138.5625 74.8906 137.25 75.1875 L137.25 76.6719 L136.5312 76.6719 L136.5312 74.75 Q137.5625 74.5 138.0938 73.9062 Q138.625 73.3125 138.625 72.4062 Q138.625 71.5938 138.1953 71.1328 Q137.7656 70.6719 137.0312 70.6719 Q136.3594 70.6719 135.9297 71.0547 Q135.5 71.4375 135.3906 72.1562 L134.8125 72.1562 L134.8125 70.6406 Z" style="fill:black; stroke:none;" /><rect height="13" style="stroke:none;" width="7" x="133" y="53" /><path d="M134.8281 65.25 Q135.2969 65.5938 136.1719 65.5938 Q137.0625 65.5938 137.5781 65.0703 Q138.0938 64.5469 138.0938 63.6562 Q138.0938 62.4219 137.5625 61.8906 Q137.0156 61.3594 136 61.3594 L135.4375 61.3594 L135.4375 60.7188 L135.7344 60.7188 Q136.4844 60.7188 137 60.2969 Q137.4219 59.9531 137.4219 59.0156 Q137.4219 58.6094 137.1406 58.1406 Q136.6875 57.375 136.1562 57.3906 Q134.8281 57.4375 134.8281 59.7812 L134.8281 65.25 ZM133.75 68.5 L133.75 59.7812 Q133.75 57.3281 135.0781 57 Q135.7656 56.8125 136.25 56.8125 Q137.3438 56.8125 138.0469 57.6719 Q138.6094 58.3594 138.6094 58.9375 Q138.6094 59.7812 138.2031 60.2656 Q137.7969 60.75 137.0625 60.9844 Q138.1406 61.1406 138.75 61.7812 Q139.3281 62.4062 139.3281 63.6328 Q139.3281 64.8594 138.5078 65.5156 Q137.6875 66.1719 136.1406 66.1719 Q135.1875 66.1719 134.8281 66.0312 L134.8281 68.5 L133.75 68.5 Z" style="fill:black; stroke:none;" /></g><g ID="li-1:2,3" style="fill:white; text-rendering:optimizeSpeed; font-family:'Serif'; stroke:white;"><rect height="9" style="stroke:none;" width="8" x="174" y="96" /><path d="M178.1875 102.0312 L178.1875 97.375 L175.2031 102.0312 L178.1875 102.0312 ZM180.7656 105 L176.7812 105 L176.7812 104.375 L178.1875 104.375 L178.1875 102.6562 L174.375 102.6562 L174.375 102.0156 L178.2031 96.0938 L179.3594 96.0938 L179.3594 102.0312 L181.0312 102.0312 L181.0312 102.6562 L179.3594 102.6562 L179.3594 104.375 L180.7656 104.375 L180.7656 105 Z" style="fill:black; stroke:none;" /><rect height="13" style="stroke:none;" width="7" x="160" y="94" /><path d="M161.8281 106.25 Q162.2969 106.5938 163.1719 106.5938 Q164.0625 106.5938 164.5781 106.0703 Q165.0938 105.5469 165.0938 104.6562 Q165.0938 103.4219 164.5625 102.8906 Q164.0156 102.3594 163 102.3594 L162.4375 102.3594 L162.4375 101.7188 L162.7344 101.7188 Q163.4844 101.7188 164 101.2969 Q164.4219 100.9531 164.4219 100.0156 Q164.4219 99.6094 164.1406 99.1406 Q163.6875 98.375 163.1562 98.3906 Q161.8281 98.4375 161.8281 100.7812 L161.8281 106.25 ZM160.75 109.5 L160.75 100.7812 Q160.75 98.3281 162.0781 98 Q162.7656 97.8125 163.25 97.8125 Q164.3438 97.8125 165.0469 98.6719 Q165.6094 99.3594 165.6094 99.9375 Q165.6094 100.7812 165.2031 101.2656 Q164.7969 101.75 164.0625 101.9844 Q165.1406 102.1406 165.75 102.7812 Q166.3281 103.4062 166.3281 104.6328 Q166.3281 105.8594 165.5078 106.5156 Q164.6875 107.1719 163.1406 107.1719 Q162.1875 107.1719 161.8281 107.0312 L161.8281 109.5 L160.75 109.5 Z" style="fill:black; stroke:none;" /></g><g ID="li-1:1,2" style="fill:white; text-rendering:optimizeSpeed; font-family:'Serif'; stroke:white;"><rect height="9" style="stroke:none;" width="8" x="226" y="96" /><path d="M230.1875 102.0312 L230.1875 97.375 L227.2031 102.0312 L230.1875 102.0312 ZM232.7656 105 L228.7812 105 L228.7812 104.375 L230.1875 104.375 L230.1875 102.6562 L226.375 102.6562 L226.375 102.0156 L230.2031 96.0938 L231.3594 96.0938 L231.3594 102.0312 L233.0312 102.0312 L233.0312 102.6562 L231.3594 102.6562 L231.3594 104.375 L232.7656 104.375 L232.7656 105 Z" style="fill:black; stroke:none;" /><rect height="13" style="stroke:none;" width="7" x="212" y="94" /><path d="M213.8281 106.25 Q214.2969 106.5938 215.1719 106.5938 Q216.0625 106.5938 216.5781 106.0703 Q217.0938 105.5469 217.0938 104.6562 Q217.0938 103.4219 216.5625 102.8906 Q216.0156 102.3594 215 102.3594 L214.4375 102.3594 L214.4375 101.7188 L214.7344 101.7188 Q215.4844 101.7188 216 101.2969 Q216.4219 100.9531 216.4219 100.0156 Q216.4219 99.6094 216.1406 99.1406 Q215.6875 98.375 215.1562 98.3906 Q213.8281 98.4375 213.8281 100.7812 L213.8281 106.25 ZM212.75 109.5 L212.75 100.7812 Q212.75 98.3281 214.0781 98 Q214.7656 97.8125 215.25 97.8125 Q216.3438 97.8125 217.0469 98.6719 Q217.6094 99.3594 217.6094 99.9375 Q217.6094 100.7812 217.2031 101.2656 Q216.7969 101.75 216.0625 101.9844 Q217.1406 102.1406 217.75 102.7812 Q218.3281 103.4062 218.3281 104.6328 Q218.3281 105.8594 217.5078 106.5156 Q216.6875 107.1719 215.1406 107.1719 Q214.1875 107.1719 213.8281 107.0312 L213.8281 109.5 L212.75 109.5 Z" style="fill:black; stroke:none;" /></g></g></svg>