<svg xmlns="http://www.w3.org/2000/svg" style="fill-opacity:1; color-rendering:auto; color-interpolation:auto; text-rendering:auto; stroke:black; stroke-linecap:square; stroke-miterlimit:10; shape-rendering:auto; stroke-opacity:1; fill:black; stroke-dasharray:none; font-weight:normal; stroke-width:1; font-family:'Dialog'; font-style:normal; stroke-linejoin:miter; font-size:12px; stroke-dashoffset:0; image-rendering:auto;"><defs id="genericDefs" /><g><defs id="defs1"><clipPath clipPathUnits="userSpaceOnUse" id="clipPath1"><path d="M134 56 L156 56 L156 78 L134 78 L134 56 Z" /></clipPath><clipPath clipPathUnits="userSpaceOnUse" id="clipPath2"><path d="M104 93 C104 99.0751 99.0751 104 93 104 C86.9249 104 82 99.0751 82 93 C82 86.9249 86.9249 82 93 82 C99.0751 82 104 86.9249 104 93 Z" /></clipPath><clipPath clipPathUnits="userSpaceOnUse" id="clipPath3"><path d="M82 30 L104 30 L104 52 L82 52 L82 30 Z" /></clipPath><clipPath clipPathUnits="userSpaceOnUse" id="clipPath4"><path d="M52 41 C52 47.0751 47.0751 52 41 52 C34.9249 52 30 47.0751 30 41 C30 34.9249 34.9249 30 41 30 C47.0751 30 52 34.9249 52 41 Z" /></clipPath><clipPath clipPathUnits="userSpaceOnUse" id="clipPath5"><path d="M41 82 L52 104 L30 104 Z" style="fill-rule:evenodd;" /></clipPath></defs><g style="fill:white; text-rendering:optimizeSpeed; stroke:white;"><rect height="134" style="stroke:none;" width="186" x="0" y="0" /></g><g ID="l-1:1,2" style="text-rendering:optimizeSpeed;"><polygon points=" 145 67 93 93" style="fill:none;" /></g><g ID="l-1:1,3" style="text-rendering:optimizeSpeed;"><polygon points=" 145 67 93 41" style="fill:none;" /></g><g ID="r-1:1" style="fill:white; text-rendering:optimizeSpeed; stroke:white;" wurcs_mono_id="1"><rect height="22" style="clip-path:url(#clipPath1); stroke:none;" width="22" x="134" y="56" /><rect height="22" style="clip-path:url(#clipPath1); fill:rgb(255,212,0); stroke:none;" width="22" x="134" y="56" /><rect height="22" style="clip-path:url(#clipPath1); fill:none; stroke:black;" width="22" x="134" y="56" /><rect height="22" style="fill:none; stroke:black;" width="22" x="134" y="56" /></g><g ID="r-1:2" style="fill:white; text-rendering:optimizeSpeed; stroke:white;" wurcs_mono_id="2"><circle cx="93" cy="93" r="11" style="clip-path:url(#clipPath2); stroke:none;" /><rect height="22" style="clip-path:url(#clipPath2); fill:rgb(255,212,0); stroke:none;" width="22" x="82" y="82" /><rect height="22" style="clip-path:url(#clipPath2); fill:none; stroke:black;" width="22" x="82" y="82" /><circle cx="93" cy="93" r="11" style="fill:none; stroke:black;" /></g><g ID="l-1:3,4" style="text-rendering:optimizeSpeed;"><polygon points=" 93 41 41 41" style="fill:none;" /></g><g ID="r-1:3" style="fill:white; text-rendering:optimizeSpeed; stroke:white;" wurcs_mono_id="3"><rect height="22" style="clip-path:url(#clipPath3); stroke:none;" width="22" x="82" y="30" /><rect height="22" style="clip-path:url(#clipPath3); fill:rgb(0,144,188); stroke:none;" width="22" x="82" y="30" /><rect height="22" style="clip-path:url(#clipPath3); fill:none; stroke:black;" width="22" x="82" y="30" /><rect height="22" style="fill:none; stroke:black;" width="22" x="82" y="30" /></g><g ID="l-1:4,5" style="text-rendering:optimizeSpeed;"><polygon points=" 41 41 41 93" style="fill:none;" /></g><g ID="r-1:4" style="fill:white; text-rendering:optimizeSpeed; stroke:white;" wurcs_mono_id="4"><circle cx="41" cy="41" r="11" style="clip-path:url(#clipPath4); stroke:none;" /><rect height="22" style="clip-path:url(#clipPath4); fill:rgb(255,212,0); stroke:none;" width="22" x="30" y="30" /><rect height="22" style="clip-path:url(#clipPath4); fill:none; stroke:black;" width="22" x="30" y="30" /><circle cx="41" cy="41" r="11" style="fill:none; stroke:black;" /></g><g ID="r-1:5" style="fill:white; text-rendering:optimizeSpeed; stroke:white;" wurcs_mono_id="5"><polygon points=" 41 82 52 104 30 104" style="stroke:none; clip-path:url(#clipPath5);" /><rect height="22" style="clip-path:url(#clipPath5); fill:rgb(237,28,36); stroke:none;" width="22" x="30" y="82" /><rect height="22" style="clip-path:url(#clipPath5); fill:none; stroke:black;" width="22" x="30" y="82" /><polygon points=" 41 82 52 104 30 104" style="fill:none; stroke:black;" /></g><g ID="li-1:4,5" style="fill:white; text-rendering:optimizeSpeed; font-family:'Serif'; stroke:white;"><rect height="9" style="stroke:none;" width="7" x="45" y="55" /><path d="M46.5312 57.3438 L45.875 57.3438 L45.875 55.7812 Q46.5 55.4375 47.1406 55.2656 Q47.7812 55.0938 48.3906 55.0938 Q49.75 55.0938 50.5391 55.7578 Q51.3281 56.4219 51.3281 57.5469 Q51.3281 58.8438 49.5469 60.625 Q49.4062 60.7656 49.3281 60.8281 L47.125 63.0312 L50.7656 63.0312 L50.7656 61.9531 L51.4531 61.9531 L51.4531 64 L45.8125 64 L45.8125 63.3594 L48.4688 60.7188 Q49.3438 59.8281 49.7188 59.0938 Q50.0938 58.3594 50.0938 57.5469 Q50.0938 56.6719 49.6328 56.1719 Q49.1719 55.6719 48.375 55.6719 Q47.5312 55.6719 47.0781 56.0859 Q46.625 56.5 46.5312 57.3438 Z" style="fill:black; stroke:none;" /><rect height="10" style="stroke:none;" width="6" x="46" y="69" /><path d="M48.1094 78.3906 Q48.1094 78.0625 48.3359 77.8359 Q48.5625 77.6094 48.8906 77.6094 Q49.2188 77.6094 49.4453 77.8359 Q49.6719 78.0625 49.6719 78.3906 Q49.6719 78.7188 49.4453 78.9453 Q49.2188 79.1719 48.8906 79.1719 Q48.5625 79.1719 48.3359 78.9453 Q48.1094 78.7188 48.1094 78.3906 ZM46.8125 70.6406 Q47.4375 70.3594 48 70.2266 Q48.5625 70.0938 49.0469 70.0938 Q50.3438 70.0938 51.1016 70.7188 Q51.8594 71.3438 51.8594 72.4062 Q51.8594 73.5 51.2109 74.1953 Q50.5625 74.8906 49.25 75.1875 L49.25 76.6719 L48.5312 76.6719 L48.5312 74.75 Q49.5625 74.5 50.0938 73.9062 Q50.625 73.3125 50.625 72.4062 Q50.625 71.5938 50.1953 71.1328 Q49.7656 70.6719 49.0312 70.6719 Q48.3594 70.6719 47.9297 71.0547 Q47.5 71.4375 47.3906 72.1562 L46.8125 72.1562 L46.8125 70.6406 Z" style="fill:black; stroke:none;" /></g><g ID="li-1:3,4" style="fill:white; text-rendering:optimizeSpeed; font-family:'Serif'; stroke:white;"><rect height="10" style="stroke:none;" width="7" x="70" y="44" /><path d="M71.1719 45.625 Q71.8594 45.3594 72.4844 45.2266 Q73.1094 45.0938 73.6562 45.0938 Q74.9531 45.0938 75.6719 45.6484 Q76.3906 46.2031 76.3906 47.1875 Q76.3906 47.9688 75.8906 48.5 Q75.3906 49.0312 74.4844 49.2188 Q75.5625 49.375 76.1562 50.0078 Q76.75 50.6406 76.75 51.6406 Q76.75 52.8594 75.9219 53.5156 Q75.0938 54.1719 73.5469 54.1719 Q72.8594 54.1719 72.2109 54.0234 Q71.5625 53.875 70.9219 53.5781 L70.9219 51.875 L71.5781 51.875 Q71.625 52.7188 72.1406 53.1562 Q72.6562 53.5938 73.5781 53.5938 Q74.4688 53.5938 74.9922 53.0703 Q75.5156 52.5469 75.5156 51.6562 Q75.5156 50.625 74.9766 50.0938 Q74.4375 49.5625 73.4062 49.5625 L72.8594 49.5625 L72.8594 48.9531 L73.1406 48.9531 Q74.1719 48.9531 74.6875 48.5312 Q75.2031 48.1094 75.2031 47.25 Q75.2031 46.4844 74.7812 46.0781 Q74.3594 45.6719 73.5625 45.6719 Q72.7656 45.6719 72.3359 46.0469 Q71.9062 46.4219 71.8281 47.1562 L71.1719 47.1562 L71.1719 45.625 Z" style="fill:black; stroke:none;" /><rect height="10" style="stroke:none;" width="6" x="57" y="44" /><path d="M59.1094 53.3906 Q59.1094 53.0625 59.3359 52.8359 Q59.5625 52.6094 59.8906 52.6094 Q60.2188 52.6094 60.4453 52.8359 Q60.6719 53.0625 60.6719 53.3906 Q60.6719 53.7188 60.4453 53.9453 Q60.2188 54.1719 59.8906 54.1719 Q59.5625 54.1719 59.3359 53.9453 Q59.1094 53.7188 59.1094 53.3906 ZM57.8125 45.6406 Q58.4375 45.3594 59 45.2266 Q59.5625 45.0938 60.0469 45.0938 Q61.3438 45.0938 62.1016 45.7188 Q62.8594 46.3438 62.8594 47.4062 Q62.8594 48.5 62.2109 49.1953 Q61.5625 49.8906 60.25 50.1875 L60.25 51.6719 L59.5312 51.6719 L59.5312 49.75 Q60.5625 49.5 61.0938 48.9062 Q61.625 48.3125 61.625 47.4062 Q61.625 46.5938 61.1953 46.1328 Q60.7656 45.6719 60.0312 45.6719 Q59.3594 45.6719 58.9297 46.0547 Q58.5 46.4375 58.3906 47.1562 L57.8125 47.1562 L57.8125 45.6406 Z" style="fill:black; stroke:none;" /></g><g ID="li-1:1,2" style="fill:white; text-rendering:optimizeSpeed; font-family:'Serif'; stroke:white;"><rect height="10" style="stroke:none;" width="7" x="126" y="78" /><path d="M127.1719 79.625 Q127.8594 79.3594 128.4844 79.2266 Q129.1094 79.0938 129.6562 79.0938 Q130.9531 79.0938 131.6719 79.6484 Q132.3906 80.2031 132.3906 81.1875 Q132.3906 81.9688 131.8906 82.5 Q131.3906 83.0312 130.4844 83.2188 Q131.5625 83.375 132.1562 84.0078 Q132.75 84.6406 132.75 85.6406 Q132.75 86.8594 131.9219 87.5156 Q131.0938 88.1719 129.5469 88.1719 Q128.8594 88.1719 128.2109 88.0234 Q127.5625 87.875 126.9219 87.5781 L126.9219 85.875 L127.5781 85.875 Q127.625 86.7188 128.1406 87.1562 Q128.6562 87.5938 129.5781 87.5938 Q130.4688 87.5938 130.9922 87.0703 Q131.5156 86.5469 131.5156 85.6562 Q131.5156 84.625 130.9766 84.0938 Q130.4375 83.5625 129.4062 83.5625 L128.8594 83.5625 L128.8594 82.9531 L129.1406 82.9531 Q130.1719 82.9531 130.6875 82.5312 Q131.2031 82.1094 131.2031 81.25 Q131.2031 80.4844 130.7812 80.0781 Q130.3594 79.6719 129.5625 79.6719 Q128.7656 79.6719 128.3359 80.0469 Q127.9062 80.4219 127.8281 81.1562 L127.1719 81.1562 L127.1719 79.625 Z" style="fill:black; stroke:none;" /><rect height="10" style="stroke:none;" width="6" x="111" y="86" /><path d="M113.1094 95.3906 Q113.1094 95.0625 113.3359 94.8359 Q113.5625 94.6094 113.8906 94.6094 Q114.2188 94.6094 114.4453 94.8359 Q114.6719 95.0625 114.6719 95.3906 Q114.6719 95.7188 114.4453 95.9453 Q114.2188 96.1719 113.8906 96.1719 Q113.5625 96.1719 113.3359 95.9453 Q113.1094 95.7188 113.1094 95.3906 ZM111.8125 87.6406 Q112.4375 87.3594 113 87.2266 Q113.5625 87.0938 114.0469 87.0938 Q115.3438 87.0938 116.1016 87.7188 Q116.8594 88.3438 116.8594 89.4062 Q116.8594 90.5 116.2109 91.1953 Q115.5625 91.8906 114.25 92.1875 L114.25 93.6719 L113.5312 93.6719 L113.5312 91.75 Q114.5625 91.5 115.0938 90.9062 Q115.625 90.3125 115.625 89.4062 Q115.625 88.5938 115.1953 88.1328 Q114.7656 87.6719 114.0312 87.6719 Q113.3594 87.6719 112.9297 88.0547 Q112.5 88.4375 112.3906 89.1562 L111.8125 89.1562 L111.8125 87.6406 Z" style="fill:black; stroke:none;" /></g><g ID="li-1:1,3" style="fill:white; text-rendering:optimizeSpeed; font-family:'Serif'; stroke:white;"><rect height="10" style="stroke:none;" width="7" x="119" y="60" /><path d="M122.9219 69.5938 Q123.75 69.5938 124.1953 68.9844 Q124.6406 68.375 124.6406 67.2344 Q124.6406 66.1094 124.1953 65.5 Q123.75 64.8906 122.9219 64.8906 Q122.0938 64.8906 121.6484 65.4766 Q121.2031 66.0625 121.2031 67.1719 Q121.2031 68.3281 121.6484 68.9609 Q122.0938 69.5938 122.9219 69.5938 ZM121.0156 65.1875 Q121.4219 64.75 121.9219 64.5312 Q122.4219 64.3125 123.0625 64.3125 Q124.3594 64.3125 125.1172 65.0938 Q125.875 65.875 125.875 67.2344 Q125.875 68.5625 125.0625 69.3672 Q124.25 70.1719 122.875 70.1719 Q121.3906 70.1719 120.5938 69.0625 Q119.7969 67.9531 119.7969 65.9062 Q119.7969 63.6094 120.7422 62.3516 Q121.6875 61.0938 123.4062 61.0938 Q123.875 61.0938 124.3828 61.1797 Q124.8906 61.2656 125.4219 61.4375 L125.4219 62.8906 L124.7656 62.8906 Q124.6875 62.2969 124.3047 61.9844 Q123.9219 61.6719 123.2812 61.6719 Q122.1406 61.6719 121.5859 62.5312 Q121.0312 63.3906 121.0156 65.1875 Z" style="fill:black; stroke:none;" /><rect height="10" style="stroke:none;" width="6" x="104" y="52" /><path d="M106.1094 61.3906 Q106.1094 61.0625 106.3359 60.8359 Q106.5625 60.6094 106.8906 60.6094 Q107.2188 60.6094 107.4453 60.8359 Q107.6719 61.0625 107.6719 61.3906 Q107.6719 61.7188 107.4453 61.9453 Q107.2188 62.1719 106.8906 62.1719 Q106.5625 62.1719 106.3359 61.9453 Q106.1094 61.7188 106.1094 61.3906 ZM104.8125 53.6406 Q105.4375 53.3594 106 53.2266 Q106.5625 53.0938 107.0469 53.0938 Q108.3438 53.0938 109.1016 53.7188 Q109.8594 54.3438 109.8594 55.4062 Q109.8594 56.5 109.2109 57.1953 Q108.5625 57.8906 107.25 58.1875 L107.25 59.6719 L106.5312 59.6719 L106.5312 57.75 Q107.5625 57.5 108.0938 56.9062 Q108.625 56.3125 108.625 55.4062 Q108.625 54.5938 108.1953 54.1328 Q107.7656 53.6719 107.0312 53.6719 Q106.3594 53.6719 105.9297 54.0547 Q105.5 54.4375 105.3906 55.1562 L104.8125 55.1562 L104.8125 53.6406 Z" style="fill:black; stroke:none;" /></g></g></svg>