<svg xmlns="http://www.w3.org/2000/svg" style="fill-opacity:1; color-rendering:auto; color-interpolation:auto; text-rendering:auto; stroke:black; stroke-linecap:square; stroke-miterlimit:10; shape-rendering:auto; stroke-opacity:1; fill:black; stroke-dasharray:none; font-weight:normal; stroke-width:1; font-family:'Dialog'; font-style:normal; stroke-linejoin:miter; font-size:12px; stroke-dashoffset:0; image-rendering:auto;"><defs id="genericDefs" /><g><defs id="defs1"><clipPath clipPathUnits="userSpaceOnUse" id="clipPath1"><path d="M342 173 L364 173 L364 195 L342 195 L342 173 Z" /></clipPath><clipPath clipPathUnits="userSpaceOnUse" id="clipPath2"><path d="M290 173 L312 173 L312 195 L290 195 L290 173 Z" /></clipPath><clipPath clipPathUnits="userSpaceOnUse" id="clipPath3"><path d="M260 184 C260 190.0751 255.0751 195 249 195 C242.9249 195 238 190.0751 238 184 C238 177.9249 242.9249 173 249 173 C255.0751 173 260 177.9249 260 184 Z" /></clipPath><clipPath clipPathUnits="userSpaceOnUse" id="clipPath4"><path d="M208 275 C208 281.0751 203.0751 286 197 286 C190.9249 286 186 281.0751 186 275 C186 268.9249 190.9249 264 197 264 C203.0751 264 208 268.9249 208 275 Z" /></clipPath><clipPath clipPathUnits="userSpaceOnUse" id="clipPath5"><path d="M134 290 L156 290 L156 312 L134 312 L134 290 Z" /></clipPath><clipPath clipPathUnits="userSpaceOnUse" id="clipPath6"><path d="M145 342 L156 364 L134 364 Z" style="fill-rule:evenodd;" /></clipPath><clipPath clipPathUnits="userSpaceOnUse" id="clipPath7"><path d="M104 301 C104 307.0751 99.0751 312 93 312 C86.9249 312 82 307.0751 82 301 C82 294.9249 86.9249 290 93 290 C99.0751 290 104 294.9249 104 301 Z" /></clipPath><clipPath clipPathUnits="userSpaceOnUse" id="clipPath8"><path d="M134 238 L156 238 L156 260 L134 260 L134 238 Z" /></clipPath><clipPath clipPathUnits="userSpaceOnUse" id="clipPath9"><path d="M104 249 C104 255.0751 99.0751 260 93 260 C86.9249 260 82 255.0751 82 249 C82 242.9249 86.9249 238 93 238 C99.0751 238 104 242.9249 104 249 Z" /></clipPath><clipPath clipPathUnits="userSpaceOnUse" id="clipPath10"><path d="M41 238 L52 249 L41 260 L30 249 Z" style="fill-rule:evenodd;" /></clipPath><clipPath clipPathUnits="userSpaceOnUse" id="clipPath11"><path d="M208 93 C208 99.0751 203.0751 104 197 104 C190.9249 104 186 99.0751 186 93 C186 86.9249 190.9249 82 197 82 C203.0751 82 208 86.9249 208 93 Z" /></clipPath><clipPath clipPathUnits="userSpaceOnUse" id="clipPath12"><path d="M134 134 L156 134 L156 156 L134 156 L134 134 Z" /></clipPath><clipPath clipPathUnits="userSpaceOnUse" id="clipPath13"><path d="M145 186 L156 208 L134 208 Z" style="fill-rule:evenodd;" /></clipPath><clipPath clipPathUnits="userSpaceOnUse" id="clipPath14"><path d="M104 145 C104 151.0751 99.0751 156 93 156 C86.9249 156 82 151.0751 82 145 C82 138.9249 86.9249 134 93 134 C99.0751 134 104 138.9249 104 145 Z" /></clipPath><clipPath clipPathUnits="userSpaceOnUse" id="clipPath15"><path d="M134 30 L156 30 L156 52 L134 52 L134 30 Z" /></clipPath><clipPath clipPathUnits="userSpaceOnUse" id="clipPath16"><path d="M145 82 L156 104 L134 104 Z" style="fill-rule:evenodd;" /></clipPath><clipPath clipPathUnits="userSpaceOnUse" id="clipPath17"><path d="M104 41 C104 47.0751 99.0751 52 93 52 C86.9249 52 82 47.0751 82 41 C82 34.9249 86.9249 30 93 30 C99.0751 30 104 34.9249 104 41 Z" /></clipPath></defs><g style="fill:white; text-rendering:optimizeSpeed; stroke:white;"><rect height="394" style="stroke:none;" width="394" x="0" y="0" /></g><g ID="l-1:1,2" style="text-rendering:optimizeSpeed;"><polygon points=" 353 184 301 184" style="fill:none;" /></g><g ID="r-1:1" style="fill:white; text-rendering:optimizeSpeed; stroke:white;" wurcs_mono_id="1"><rect height="22" style="clip-path:url(#clipPath1); stroke:none;" width="22" x="342" y="173" /><rect height="22" style="clip-path:url(#clipPath1); fill:rgb(0,144,188); stroke:none;" width="22" x="342" y="173" /><rect height="22" style="clip-path:url(#clipPath1); fill:none; stroke:black;" width="22" x="342" y="173" /><rect height="22" style="fill:none; stroke:black;" width="22" x="342" y="173" /></g><g ID="l-1:2,3" style="text-rendering:optimizeSpeed;"><polygon points=" 301 184 249 184" style="fill:none;" /></g><g ID="r-1:2" style="fill:white; text-rendering:optimizeSpeed; stroke:white;" wurcs_mono_id="2"><rect height="22" style="clip-path:url(#clipPath2); stroke:none;" width="22" x="290" y="173" /><rect height="22" style="clip-path:url(#clipPath2); fill:rgb(0,144,188); stroke:none;" width="22" x="290" y="173" /><rect height="22" style="clip-path:url(#clipPath2); fill:none; stroke:black;" width="22" x="290" y="173" /><rect height="22" style="fill:none; stroke:black;" width="22" x="290" y="173" /></g><g ID="l-1:3,4" style="text-rendering:optimizeSpeed;"><polygon points=" 249 184 197 275" style="fill:none;" /></g><g ID="l-1:3,5" style="text-rendering:optimizeSpeed;"><polygon points=" 249 184 197 93" style="fill:none;" /></g><g ID="r-1:3" style="fill:white; text-rendering:optimizeSpeed; stroke:white;" wurcs_mono_id="3"><circle cx="249" cy="184" r="11" style="clip-path:url(#clipPath3); stroke:none;" /><rect height="22" style="clip-path:url(#clipPath3); fill:rgb(0,166,81); stroke:none;" width="22" x="238" y="173" /><rect height="22" style="clip-path:url(#clipPath3); fill:none; stroke:black;" width="22" x="238" y="173" /><circle cx="249" cy="184" r="11" style="fill:none; stroke:black;" /></g><g ID="l-1:4,6" style="text-rendering:optimizeSpeed;"><polygon points=" 197 275 145 301" style="fill:none;" /></g><g ID="l-1:4,7" style="text-rendering:optimizeSpeed;"><polygon points=" 197 275 145 249" style="fill:none;" /></g><g ID="r-1:4" style="fill:white; text-rendering:optimizeSpeed; stroke:white;" wurcs_mono_id="4"><circle cx="197" cy="275" r="11" style="clip-path:url(#clipPath4); stroke:none;" /><rect height="22" style="clip-path:url(#clipPath4); fill:rgb(0,166,81); stroke:none;" width="22" x="186" y="264" /><rect height="22" style="clip-path:url(#clipPath4); fill:none; stroke:black;" width="22" x="186" y="264" /><circle cx="197" cy="275" r="11" style="fill:none; stroke:black;" /></g><g ID="l-1:6,8" style="text-rendering:optimizeSpeed;"><polygon points=" 145 301 145 353" style="fill:none;" /></g><g ID="l-1:6,9" style="text-rendering:optimizeSpeed;"><polygon points=" 145 301 93 301" style="fill:none;" /></g><g ID="r-1:6" style="fill:white; text-rendering:optimizeSpeed; stroke:white;" wurcs_mono_id="5"><rect height="22" style="clip-path:url(#clipPath5); stroke:none;" width="22" x="134" y="290" /><rect height="22" style="clip-path:url(#clipPath5); fill:rgb(0,144,188); stroke:none;" width="22" x="134" y="290" /><rect height="22" style="clip-path:url(#clipPath5); fill:none; stroke:black;" width="22" x="134" y="290" /><rect height="22" style="fill:none; stroke:black;" width="22" x="134" y="290" /></g><g ID="r-1:8" style="fill:white; text-rendering:optimizeSpeed; stroke:white;" wurcs_mono_id="6"><polygon points=" 145 342 156 364 134 364" style="stroke:none; clip-path:url(#clipPath6);" /><rect height="22" style="clip-path:url(#clipPath6); fill:rgb(237,28,36); stroke:none;" width="22" x="134" y="342" /><rect height="22" style="clip-path:url(#clipPath6); fill:none; stroke:black;" width="22" x="134" y="342" /><polygon points=" 145 342 156 364 134 364" style="fill:none; stroke:black;" /></g><g ID="r-1:9" style="fill:white; text-rendering:optimizeSpeed; stroke:white;" wurcs_mono_id="7"><circle cx="93" cy="301" r="11" style="clip-path:url(#clipPath7); stroke:none;" /><rect height="22" style="clip-path:url(#clipPath7); fill:rgb(255,212,0); stroke:none;" width="22" x="82" y="290" /><rect height="22" style="clip-path:url(#clipPath7); fill:none; stroke:black;" width="22" x="82" y="290" /><circle cx="93" cy="301" r="11" style="fill:none; stroke:black;" /></g><g ID="li-1:6,8" style="fill:white; text-rendering:optimizeSpeed; font-family:'Serif'; stroke:white;"><rect height="10" style="stroke:none;" width="7" x="149" y="315" /><path d="M150.1719 316.625 Q150.8594 316.3594 151.4844 316.2266 Q152.1094 316.0938 152.6562 316.0938 Q153.9531 316.0938 154.6719 316.6484 Q155.3906 317.2031 155.3906 318.1875 Q155.3906 318.9688 154.8906 319.5 Q154.3906 320.0312 153.4844 320.2188 Q154.5625 320.375 155.1562 321.0078 Q155.75 321.6406 155.75 322.6406 Q155.75 323.8594 154.9219 324.5156 Q154.0938 325.1719 152.5469 325.1719 Q151.8594 325.1719 151.2109 325.0234 Q150.5625 324.875 149.9219 324.5781 L149.9219 322.875 L150.5781 322.875 Q150.625 323.7188 151.1406 324.1562 Q151.6562 324.5938 152.5781 324.5938 Q153.4688 324.5938 153.9922 324.0703 Q154.5156 323.5469 154.5156 322.6562 Q154.5156 321.625 153.9766 321.0938 Q153.4375 320.5625 152.4062 320.5625 L151.8594 320.5625 L151.8594 319.9531 L152.1406 319.9531 Q153.1719 319.9531 153.6875 319.5312 Q154.2031 319.1094 154.2031 318.25 Q154.2031 317.4844 153.7812 317.0781 Q153.3594 316.6719 152.5625 316.6719 Q151.7656 316.6719 151.3359 317.0469 Q150.9062 317.4219 150.8281 318.1562 L150.1719 318.1562 L150.1719 316.625 Z" style="fill:black; stroke:none;" /><rect height="8" style="stroke:none;" width="8" x="149" y="330" /><path d="M154.1875 336.4688 L153.9531 337.1094 Q153.7656 337.625 153.2031 337.9375 Q152.8438 338.1562 152.2031 338.1406 Q151.0469 338.1406 150.3281 337.2344 Q149.5938 336.3281 149.5938 334.8594 Q149.5938 333.4219 150.3281 332.4844 Q151.0156 331.5938 152.4531 331.6094 Q153.4531 331.6094 153.9531 332 Q154.4062 332.3438 154.5781 333.0938 L154.625 333.3125 L154.8438 332.6719 Q155.0625 332.0469 155.6562 331.75 L156.25 331.75 L156.25 332.0938 Q155.6875 332.2656 155.5 332.8125 L154.8906 334.4844 L155.2969 336.2812 Q155.5 337.2031 155.7344 337.2969 Q156.0469 337.4375 156.7812 337 L156.7812 337.7188 Q155.5938 338.4062 154.75 337.6875 Q154.375 337.3594 154.2656 336.875 L154.1875 336.4688 ZM153.9219 335.3125 L153.5625 333.5938 Q153.2656 332.2188 152.4688 332.2188 Q151.7969 332.2031 151.2812 332.9375 Q150.8594 333.5156 150.8594 334.875 Q150.8594 336.1719 151.2812 336.8281 Q151.75 337.5469 152.5312 337.5 Q153.2031 337.4375 153.6875 336 L153.9219 335.3125 Z" style="fill:black; stroke:none;" /></g><g ID="li-1:6,9" style="fill:white; text-rendering:optimizeSpeed; font-family:'Serif'; stroke:white;"><rect height="9" style="stroke:none;" width="8" x="122" y="304" /><path d="M126.1875 310.0312 L126.1875 305.375 L123.2031 310.0312 L126.1875 310.0312 ZM128.7656 313 L124.7812 313 L124.7812 312.375 L126.1875 312.375 L126.1875 310.6562 L122.375 310.6562 L122.375 310.0156 L126.2031 304.0938 L127.3594 304.0938 L127.3594 310.0312 L129.0312 310.0312 L129.0312 310.6562 L127.3594 310.6562 L127.3594 312.375 L128.7656 312.375 L128.7656 313 Z" style="fill:black; stroke:none;" /><rect height="13" style="stroke:none;" width="7" x="108" y="302" /><path d="M109.8281 314.25 Q110.2969 314.5938 111.1719 314.5938 Q112.0625 314.5938 112.5781 314.0703 Q113.0938 313.5469 113.0938 312.6562 Q113.0938 311.4219 112.5625 310.8906 Q112.0156 310.3594 111 310.3594 L110.4375 310.3594 L110.4375 309.7188 L110.7344 309.7188 Q111.4844 309.7188 112 309.2969 Q112.4219 308.9531 112.4219 308.0156 Q112.4219 307.6094 112.1406 307.1406 Q111.6875 306.375 111.1562 306.3906 Q109.8281 306.4375 109.8281 308.7812 L109.8281 314.25 ZM108.75 317.5 L108.75 308.7812 Q108.75 306.3281 110.0781 306 Q110.7656 305.8125 111.25 305.8125 Q112.3438 305.8125 113.0469 306.6719 Q113.6094 307.3594 113.6094 307.9375 Q113.6094 308.7812 113.2031 309.2656 Q112.7969 309.75 112.0625 309.9844 Q113.1406 310.1406 113.75 310.7812 Q114.3281 311.4062 114.3281 312.6328 Q114.3281 313.8594 113.5078 314.5156 Q112.6875 315.1719 111.1406 315.1719 Q110.1875 315.1719 109.8281 315.0312 L109.8281 317.5 L108.75 317.5 Z" style="fill:black; stroke:none;" /></g><g ID="l-1:7,10" style="text-rendering:optimizeSpeed;"><polygon points=" 145 249 93 249" style="fill:none;" /></g><g ID="r-1:7" style="fill:white; text-rendering:optimizeSpeed; stroke:white;" wurcs_mono_id="8"><rect height="22" style="clip-path:url(#clipPath8); stroke:none;" width="22" x="134" y="238" /><rect height="22" style="clip-path:url(#clipPath8); fill:rgb(0,144,188); stroke:none;" width="22" x="134" y="238" /><rect height="22" style="clip-path:url(#clipPath8); fill:none; stroke:black;" width="22" x="134" y="238" /><rect height="22" style="fill:none; stroke:black;" width="22" x="134" y="238" /></g><g ID="l-1:10,11" style="text-rendering:optimizeSpeed;"><polygon points=" 93 249 41 249" style="fill:none;" /></g><g ID="r-1:10" style="fill:white; text-rendering:optimizeSpeed; stroke:white;" wurcs_mono_id="9"><circle cx="93" cy="249" r="11" style="clip-path:url(#clipPath9); stroke:none;" /><rect height="22" style="clip-path:url(#clipPath9); fill:rgb(255,212,0); stroke:none;" width="22" x="82" y="238" /><rect height="22" style="clip-path:url(#clipPath9); fill:none; stroke:black;" width="22" x="82" y="238" /><circle cx="93" cy="249" r="11" style="fill:none; stroke:black;" /></g><g ID="r-1:11" style="fill:white; text-rendering:optimizeSpeed; stroke:white;" wurcs_mono_id="10"><polygon points=" 41 238 52 249 41 260 30 249" style="stroke:none; clip-path:url(#clipPath10);" /><rect height="22" style="clip-path:url(#clipPath10); fill:rgb(165,67,153); stroke:none;" width="22" x="30" y="238" /><rect height="22" style="clip-path:url(#clipPath10); fill:none; stroke:black;" width="22" x="30" y="238" /><polygon points=" 41 238 52 249 41 260 30 249" style="fill:none; stroke:black;" /></g><g ID="li-1:10,11" style="fill:white; text-rendering:optimizeSpeed; font-family:'Serif'; stroke:white;"><rect height="11" style="stroke:none;" width="19" x="64" y="251" /><path d="M65.1719 253.625 Q65.8594 253.3594 66.4844 253.2266 Q67.1094 253.0938 67.6562 253.0938 Q68.9531 253.0938 69.6719 253.6484 Q70.3906 254.2031 70.3906 255.1875 Q70.3906 255.9688 69.8906 256.5 Q69.3906 257.0312 68.4844 257.2188 Q69.5625 257.375 70.1562 258.0078 Q70.75 258.6406 70.75 259.6406 Q70.75 260.8594 69.9219 261.5156 Q69.0938 262.1719 67.5469 262.1719 Q66.8594 262.1719 66.2109 262.0234 Q65.5625 261.875 64.9219 261.5781 L64.9219 259.875 L65.5781 259.875 Q65.625 260.7188 66.1406 261.1562 Q66.6562 261.5938 67.5781 261.5938 Q68.4688 261.5938 68.9922 261.0703 Q69.5156 260.5469 69.5156 259.6562 Q69.5156 258.625 68.9766 258.0938 Q68.4375 257.5625 67.4062 257.5625 L66.8594 257.5625 L66.8594 256.9531 L67.1406 256.9531 Q68.1719 256.9531 68.6875 256.5312 Q69.2031 256.1094 69.2031 255.25 Q69.2031 254.4844 68.7812 254.0781 Q68.3594 253.6719 67.5625 253.6719 Q66.7656 253.6719 66.3359 254.0469 Q65.9062 254.4219 65.8281 255.1562 L65.1719 255.1562 L65.1719 253.625 ZM74.7441 253.25 L75.6816 253.25 L72.5723 263.1094 L71.6348 263.1094 L74.7441 253.25 ZM79.5996 261.5938 Q80.4277 261.5938 80.873 260.9844 Q81.3184 260.375 81.3184 259.2344 Q81.3184 258.1094 80.873 257.5 Q80.4277 256.8906 79.5996 256.8906 Q78.7715 256.8906 78.3262 257.4766 Q77.8809 258.0625 77.8809 259.1719 Q77.8809 260.3281 78.3262 260.9609 Q78.7715 261.5938 79.5996 261.5938 ZM77.6934 257.1875 Q78.0996 256.75 78.5996 256.5312 Q79.0996 256.3125 79.7402 256.3125 Q81.0371 256.3125 81.7949 257.0938 Q82.5527 257.875 82.5527 259.2344 Q82.5527 260.5625 81.7402 261.3672 Q80.9277 262.1719 79.5527 262.1719 Q78.0684 262.1719 77.2715 261.0625 Q76.4746 259.9531 76.4746 257.9062 Q76.4746 255.6094 77.4199 254.3516 Q78.3652 253.0938 80.084 253.0938 Q80.5527 253.0938 81.0605 253.1797 Q81.5684 253.2656 82.0996 253.4375 L82.0996 254.8906 L81.4434 254.8906 Q81.3652 254.2969 80.9824 253.9844 Q80.5996 253.6719 79.959 253.6719 Q78.8184 253.6719 78.2637 254.5312 Q77.709 255.3906 77.6934 257.1875 Z" style="fill:black; stroke:none;" /><rect height="8" style="stroke:none;" width="8" x="56" y="253" /><path d="M61.1875 259.4688 L60.9531 260.1094 Q60.7656 260.625 60.2031 260.9375 Q59.8438 261.1562 59.2031 261.1406 Q58.0469 261.1406 57.3281 260.2344 Q56.5938 259.3281 56.5938 257.8594 Q56.5938 256.4219 57.3281 255.4844 Q58.0156 254.5938 59.4531 254.6094 Q60.4531 254.6094 60.9531 255 Q61.4062 255.3438 61.5781 256.0938 L61.625 256.3125 L61.8438 255.6719 Q62.0625 255.0469 62.6562 254.75 L63.25 254.75 L63.25 255.0938 Q62.6875 255.2656 62.5 255.8125 L61.8906 257.4844 L62.2969 259.2812 Q62.5 260.2031 62.7344 260.2969 Q63.0469 260.4375 63.7812 260 L63.7812 260.7188 Q62.5938 261.4062 61.75 260.6875 Q61.375 260.3594 61.2656 259.875 L61.1875 259.4688 ZM60.9219 258.3125 L60.5625 256.5938 Q60.2656 255.2188 59.4688 255.2188 Q58.7969 255.2031 58.2812 255.9375 Q57.8594 256.5156 57.8594 257.875 Q57.8594 259.1719 58.2812 259.8281 Q58.75 260.5469 59.5312 260.5 Q60.2031 260.4375 60.6875 259 L60.9219 258.3125 Z" style="fill:black; stroke:none;" /></g><g ID="li-1:7,10" style="fill:white; text-rendering:optimizeSpeed; font-family:'Serif'; stroke:white;"><rect height="9" style="stroke:none;" width="8" x="122" y="252" /><path d="M126.1875 258.0312 L126.1875 253.375 L123.2031 258.0312 L126.1875 258.0312 ZM128.7656 261 L124.7812 261 L124.7812 260.375 L126.1875 260.375 L126.1875 258.6562 L122.375 258.6562 L122.375 258.0156 L126.2031 252.0938 L127.3594 252.0938 L127.3594 258.0312 L129.0312 258.0312 L129.0312 258.6562 L127.3594 258.6562 L127.3594 260.375 L128.7656 260.375 L128.7656 261 Z" style="fill:black; stroke:none;" /><rect height="13" style="stroke:none;" width="7" x="108" y="250" /><path d="M109.8281 262.25 Q110.2969 262.5938 111.1719 262.5938 Q112.0625 262.5938 112.5781 262.0703 Q113.0938 261.5469 113.0938 260.6562 Q113.0938 259.4219 112.5625 258.8906 Q112.0156 258.3594 111 258.3594 L110.4375 258.3594 L110.4375 257.7188 L110.7344 257.7188 Q111.4844 257.7188 112 257.2969 Q112.4219 256.9531 112.4219 256.0156 Q112.4219 255.6094 112.1406 255.1406 Q111.6875 254.375 111.1562 254.3906 Q109.8281 254.4375 109.8281 256.7812 L109.8281 262.25 ZM108.75 265.5 L108.75 256.7812 Q108.75 254.3281 110.0781 254 Q110.7656 253.8125 111.25 253.8125 Q112.3438 253.8125 113.0469 254.6719 Q113.6094 255.3594 113.6094 255.9375 Q113.6094 256.7812 113.2031 257.2656 Q112.7969 257.75 112.0625 257.9844 Q113.1406 258.1406 113.75 258.7812 Q114.3281 259.4062 114.3281 260.6328 Q114.3281 261.8594 113.5078 262.5156 Q112.6875 263.1719 111.1406 263.1719 Q110.1875 263.1719 109.8281 263.0312 L109.8281 265.5 L108.75 265.5 Z" style="fill:black; stroke:none;" /></g><g ID="li-1:4,6" style="fill:white; text-rendering:optimizeSpeed; font-family:'Serif'; stroke:white;"><rect height="9" style="stroke:none;" width="7" x="178" y="286" /><path d="M179.5312 288.3438 L178.875 288.3438 L178.875 286.7812 Q179.5 286.4375 180.1406 286.2656 Q180.7812 286.0938 181.3906 286.0938 Q182.75 286.0938 183.5391 286.7578 Q184.3281 287.4219 184.3281 288.5469 Q184.3281 289.8438 182.5469 291.625 Q182.4062 291.7656 182.3281 291.8281 L180.125 294.0312 L183.7656 294.0312 L183.7656 292.9531 L184.4531 292.9531 L184.4531 295 L178.8125 295 L178.8125 294.3594 L181.4688 291.7188 Q182.3438 290.8281 182.7188 290.0938 Q183.0938 289.3594 183.0938 288.5469 Q183.0938 287.6719 182.6328 287.1719 Q182.1719 286.6719 181.375 286.6719 Q180.5312 286.6719 180.0781 287.0859 Q179.625 287.5 179.5312 288.3438 Z" style="fill:black; stroke:none;" /><rect height="13" style="stroke:none;" width="7" x="163" y="292" /><path d="M164.8281 304.25 Q165.2969 304.5938 166.1719 304.5938 Q167.0625 304.5938 167.5781 304.0703 Q168.0938 303.5469 168.0938 302.6562 Q168.0938 301.4219 167.5625 300.8906 Q167.0156 300.3594 166 300.3594 L165.4375 300.3594 L165.4375 299.7188 L165.7344 299.7188 Q166.4844 299.7188 167 299.2969 Q167.4219 298.9531 167.4219 298.0156 Q167.4219 297.6094 167.1406 297.1406 Q166.6875 296.375 166.1562 296.3906 Q164.8281 296.4375 164.8281 298.7812 L164.8281 304.25 ZM163.75 307.5 L163.75 298.7812 Q163.75 296.3281 165.0781 296 Q165.7656 295.8125 166.25 295.8125 Q167.3438 295.8125 168.0469 296.6719 Q168.6094 297.3594 168.6094 297.9375 Q168.6094 298.7812 168.2031 299.2656 Q167.7969 299.75 167.0625 299.9844 Q168.1406 300.1406 168.75 300.7812 Q169.3281 301.4062 169.3281 302.6328 Q169.3281 303.8594 168.5078 304.5156 Q167.6875 305.1719 166.1406 305.1719 Q165.1875 305.1719 164.8281 305.0312 L164.8281 307.5 L163.75 307.5 Z" style="fill:black; stroke:none;" /></g><g ID="li-1:4,7" style="fill:white; text-rendering:optimizeSpeed; font-family:'Serif'; stroke:white;"><rect height="9" style="stroke:none;" width="8" x="171" y="268" /><path d="M175.1875 274.0312 L175.1875 269.375 L172.2031 274.0312 L175.1875 274.0312 ZM177.7656 277 L173.7812 277 L173.7812 276.375 L175.1875 276.375 L175.1875 274.6562 L171.375 274.6562 L171.375 274.0156 L175.2031 268.0938 L176.3594 268.0938 L176.3594 274.0312 L178.0312 274.0312 L178.0312 274.6562 L176.3594 274.6562 L176.3594 276.375 L177.7656 276.375 L177.7656 277 Z" style="fill:black; stroke:none;" /><rect height="13" style="stroke:none;" width="7" x="156" y="258" /><path d="M157.8281 270.25 Q158.2969 270.5938 159.1719 270.5938 Q160.0625 270.5938 160.5781 270.0703 Q161.0938 269.5469 161.0938 268.6562 Q161.0938 267.4219 160.5625 266.8906 Q160.0156 266.3594 159 266.3594 L158.4375 266.3594 L158.4375 265.7188 L158.7344 265.7188 Q159.4844 265.7188 160 265.2969 Q160.4219 264.9531 160.4219 264.0156 Q160.4219 263.6094 160.1406 263.1406 Q159.6875 262.375 159.1562 262.3906 Q157.8281 262.4375 157.8281 264.7812 L157.8281 270.25 ZM156.75 273.5 L156.75 264.7812 Q156.75 262.3281 158.0781 262 Q158.7656 261.8125 159.25 261.8125 Q160.3438 261.8125 161.0469 262.6719 Q161.6094 263.3594 161.6094 263.9375 Q161.6094 264.7812 161.2031 265.2656 Q160.7969 265.75 160.0625 265.9844 Q161.1406 266.1406 161.75 266.7812 Q162.3281 267.4062 162.3281 268.6328 Q162.3281 269.8594 161.5078 270.5156 Q160.6875 271.1719 159.1406 271.1719 Q158.1875 271.1719 157.8281 271.0312 L157.8281 273.5 L156.75 273.5 Z" style="fill:black; stroke:none;" /></g><g ID="l-1:5,12" style="text-rendering:optimizeSpeed;"><polygon points=" 197 93 145 145" style="fill:none;" /></g><g ID="l-1:5,13" style="text-rendering:optimizeSpeed;"><polygon points=" 197 93 145 41" style="fill:none;" /></g><g ID="r-1:5" style="fill:white; text-rendering:optimizeSpeed; stroke:white;" wurcs_mono_id="11"><circle cx="197" cy="93" r="11" style="clip-path:url(#clipPath11); stroke:none;" /><rect height="22" style="clip-path:url(#clipPath11); fill:rgb(0,166,81); stroke:none;" width="22" x="186" y="82" /><rect height="22" style="clip-path:url(#clipPath11); fill:none; stroke:black;" width="22" x="186" y="82" /><circle cx="197" cy="93" r="11" style="fill:none; stroke:black;" /></g><g ID="l-1:12,14" style="text-rendering:optimizeSpeed;"><polygon points=" 145 145 145 197" style="fill:none;" /></g><g ID="l-1:12,15" style="text-rendering:optimizeSpeed;"><polygon points=" 145 145 93 145" style="fill:none;" /></g><g ID="r-1:12" style="fill:white; text-rendering:optimizeSpeed; stroke:white;" wurcs_mono_id="12"><rect height="22" style="clip-path:url(#clipPath12); stroke:none;" width="22" x="134" y="134" /><rect height="22" style="clip-path:url(#clipPath12); fill:rgb(0,144,188); stroke:none;" width="22" x="134" y="134" /><rect height="22" style="clip-path:url(#clipPath12); fill:none; stroke:black;" width="22" x="134" y="134" /><rect height="22" style="fill:none; stroke:black;" width="22" x="134" y="134" /></g><g ID="r-1:14" style="fill:white; text-rendering:optimizeSpeed; stroke:white;" wurcs_mono_id="13"><polygon points=" 145 186 156 208 134 208" style="stroke:none; clip-path:url(#clipPath13);" /><rect height="22" style="clip-path:url(#clipPath13); fill:rgb(237,28,36); stroke:none;" width="22" x="134" y="186" /><rect height="22" style="clip-path:url(#clipPath13); fill:none; stroke:black;" width="22" x="134" y="186" /><polygon points=" 145 186 156 208 134 208" style="fill:none; stroke:black;" /></g><g ID="r-1:15" style="fill:white; text-rendering:optimizeSpeed; stroke:white;" wurcs_mono_id="14"><circle cx="93" cy="145" r="11" style="clip-path:url(#clipPath14); stroke:none;" /><rect height="22" style="clip-path:url(#clipPath14); fill:rgb(255,212,0); stroke:none;" width="22" x="82" y="134" /><rect height="22" style="clip-path:url(#clipPath14); fill:none; stroke:black;" width="22" x="82" y="134" /><circle cx="93" cy="145" r="11" style="fill:none; stroke:black;" /></g><g ID="li-1:12,14" style="fill:white; text-rendering:optimizeSpeed; font-family:'Serif'; stroke:white;"><rect height="10" style="stroke:none;" width="7" x="149" y="159" /><path d="M150.1719 160.625 Q150.8594 160.3594 151.4844 160.2266 Q152.1094 160.0938 152.6562 160.0938 Q153.9531 160.0938 154.6719 160.6484 Q155.3906 161.2031 155.3906 162.1875 Q155.3906 162.9688 154.8906 163.5 Q154.3906 164.0312 153.4844 164.2188 Q154.5625 164.375 155.1562 165.0078 Q155.75 165.6406 155.75 166.6406 Q155.75 167.8594 154.9219 168.5156 Q154.0938 169.1719 152.5469 169.1719 Q151.8594 169.1719 151.2109 169.0234 Q150.5625 168.875 149.9219 168.5781 L149.9219 166.875 L150.5781 166.875 Q150.625 167.7188 151.1406 168.1562 Q151.6562 168.5938 152.5781 168.5938 Q153.4688 168.5938 153.9922 168.0703 Q154.5156 167.5469 154.5156 166.6562 Q154.5156 165.625 153.9766 165.0938 Q153.4375 164.5625 152.4062 164.5625 L151.8594 164.5625 L151.8594 163.9531 L152.1406 163.9531 Q153.1719 163.9531 153.6875 163.5312 Q154.2031 163.1094 154.2031 162.25 Q154.2031 161.4844 153.7812 161.0781 Q153.3594 160.6719 152.5625 160.6719 Q151.7656 160.6719 151.3359 161.0469 Q150.9062 161.4219 150.8281 162.1562 L150.1719 162.1562 L150.1719 160.625 Z" style="fill:black; stroke:none;" /><rect height="8" style="stroke:none;" width="8" x="149" y="174" /><path d="M154.1875 180.4688 L153.9531 181.1094 Q153.7656 181.625 153.2031 181.9375 Q152.8438 182.1562 152.2031 182.1406 Q151.0469 182.1406 150.3281 181.2344 Q149.5938 180.3281 149.5938 178.8594 Q149.5938 177.4219 150.3281 176.4844 Q151.0156 175.5938 152.4531 175.6094 Q153.4531 175.6094 153.9531 176 Q154.4062 176.3438 154.5781 177.0938 L154.625 177.3125 L154.8438 176.6719 Q155.0625 176.0469 155.6562 175.75 L156.25 175.75 L156.25 176.0938 Q155.6875 176.2656 155.5 176.8125 L154.8906 178.4844 L155.2969 180.2812 Q155.5 181.2031 155.7344 181.2969 Q156.0469 181.4375 156.7812 181 L156.7812 181.7188 Q155.5938 182.4062 154.75 181.6875 Q154.375 181.3594 154.2656 180.875 L154.1875 180.4688 ZM153.9219 179.3125 L153.5625 177.5938 Q153.2656 176.2188 152.4688 176.2188 Q151.7969 176.2031 151.2812 176.9375 Q150.8594 177.5156 150.8594 178.875 Q150.8594 180.1719 151.2812 180.8281 Q151.75 181.5469 152.5312 181.5 Q153.2031 181.4375 153.6875 180 L153.9219 179.3125 Z" style="fill:black; stroke:none;" /></g><g ID="li-1:12,15" style="fill:white; text-rendering:optimizeSpeed; font-family:'Serif'; stroke:white;"><rect height="9" style="stroke:none;" width="8" x="122" y="148" /><path d="M126.1875 154.0312 L126.1875 149.375 L123.2031 154.0312 L126.1875 154.0312 ZM128.7656 157 L124.7812 157 L124.7812 156.375 L126.1875 156.375 L126.1875 154.6562 L122.375 154.6562 L122.375 154.0156 L126.2031 148.0938 L127.3594 148.0938 L127.3594 154.0312 L129.0312 154.0312 L129.0312 154.6562 L127.3594 154.6562 L127.3594 156.375 L128.7656 156.375 L128.7656 157 Z" style="fill:black; stroke:none;" /><rect height="13" style="stroke:none;" width="7" x="108" y="146" /><path d="M109.8281 158.25 Q110.2969 158.5938 111.1719 158.5938 Q112.0625 158.5938 112.5781 158.0703 Q113.0938 157.5469 113.0938 156.6562 Q113.0938 155.4219 112.5625 154.8906 Q112.0156 154.3594 111 154.3594 L110.4375 154.3594 L110.4375 153.7188 L110.7344 153.7188 Q111.4844 153.7188 112 153.2969 Q112.4219 152.9531 112.4219 152.0156 Q112.4219 151.6094 112.1406 151.1406 Q111.6875 150.375 111.1562 150.3906 Q109.8281 150.4375 109.8281 152.7812 L109.8281 158.25 ZM108.75 161.5 L108.75 152.7812 Q108.75 150.3281 110.0781 150 Q110.7656 149.8125 111.25 149.8125 Q112.3438 149.8125 113.0469 150.6719 Q113.6094 151.3594 113.6094 151.9375 Q113.6094 152.7812 113.2031 153.2656 Q112.7969 153.75 112.0625 153.9844 Q113.1406 154.1406 113.75 154.7812 Q114.3281 155.4062 114.3281 156.6328 Q114.3281 157.8594 113.5078 158.5156 Q112.6875 159.1719 111.1406 159.1719 Q110.1875 159.1719 109.8281 159.0312 L109.8281 161.5 L108.75 161.5 Z" style="fill:black; stroke:none;" /></g><g ID="l-1:13,16" style="text-rendering:optimizeSpeed;"><polygon points=" 145 41 145 93" style="fill:none;" /></g><g ID="l-1:13,17" style="text-rendering:optimizeSpeed;"><polygon points=" 145 41 93 41" style="fill:none;" /></g><g ID="r-1:13" style="fill:white; text-rendering:optimizeSpeed; stroke:white;" wurcs_mono_id="15"><rect height="22" style="clip-path:url(#clipPath15); stroke:none;" width="22" x="134" y="30" /><rect height="22" style="clip-path:url(#clipPath15); fill:rgb(0,144,188); stroke:none;" width="22" x="134" y="30" /><rect height="22" style="clip-path:url(#clipPath15); fill:none; stroke:black;" width="22" x="134" y="30" /><rect height="22" style="fill:none; stroke:black;" width="22" x="134" y="30" /></g><g ID="r-1:16" style="fill:white; text-rendering:optimizeSpeed; stroke:white;" wurcs_mono_id="16"><polygon points=" 145 82 156 104 134 104" style="stroke:none; clip-path:url(#clipPath16);" /><rect height="22" style="clip-path:url(#clipPath16); fill:rgb(237,28,36); stroke:none;" width="22" x="134" y="82" /><rect height="22" style="clip-path:url(#clipPath16); fill:none; stroke:black;" width="22" x="134" y="82" /><polygon points=" 145 82 156 104 134 104" style="fill:none; stroke:black;" /></g><g ID="r-1:17" style="fill:white; text-rendering:optimizeSpeed; stroke:white;" wurcs_mono_id="17"><circle cx="93" cy="41" r="11" style="clip-path:url(#clipPath17); stroke:none;" /><rect height="22" style="clip-path:url(#clipPath17); fill:rgb(255,212,0); stroke:none;" width="22" x="82" y="30" /><rect height="22" style="clip-path:url(#clipPath17); fill:none; stroke:black;" width="22" x="82" y="30" /><circle cx="93" cy="41" r="11" style="fill:none; stroke:black;" /></g><g ID="li-1:13,16" style="fill:white; text-rendering:optimizeSpeed; font-family:'Serif'; stroke:white;"><rect height="10" style="stroke:none;" width="7" x="149" y="55" /><path d="M150.1719 56.625 Q150.8594 56.3594 151.4844 56.2266 Q152.1094 56.0938 152.6562 56.0938 Q153.9531 56.0938 154.6719 56.6484 Q155.3906 57.2031 155.3906 58.1875 Q155.3906 58.9688 154.8906 59.5 Q154.3906 60.0312 153.4844 60.2188 Q154.5625 60.375 155.1562 61.0078 Q155.75 61.6406 155.75 62.6406 Q155.75 63.8594 154.9219 64.5156 Q154.0938 65.1719 152.5469 65.1719 Q151.8594 65.1719 151.2109 65.0234 Q150.5625 64.875 149.9219 64.5781 L149.9219 62.875 L150.5781 62.875 Q150.625 63.7188 151.1406 64.1562 Q151.6562 64.5938 152.5781 64.5938 Q153.4688 64.5938 153.9922 64.0703 Q154.5156 63.5469 154.5156 62.6562 Q154.5156 61.625 153.9766 61.0938 Q153.4375 60.5625 152.4062 60.5625 L151.8594 60.5625 L151.8594 59.9531 L152.1406 59.9531 Q153.1719 59.9531 153.6875 59.5312 Q154.2031 59.1094 154.2031 58.25 Q154.2031 57.4844 153.7812 57.0781 Q153.3594 56.6719 152.5625 56.6719 Q151.7656 56.6719 151.3359 57.0469 Q150.9062 57.4219 150.8281 58.1562 L150.1719 58.1562 L150.1719 56.625 Z" style="fill:black; stroke:none;" /><rect height="8" style="stroke:none;" width="8" x="149" y="70" /><path d="M154.1875 76.4688 L153.9531 77.1094 Q153.7656 77.625 153.2031 77.9375 Q152.8438 78.1562 152.2031 78.1406 Q151.0469 78.1406 150.3281 77.2344 Q149.5938 76.3281 149.5938 74.8594 Q149.5938 73.4219 150.3281 72.4844 Q151.0156 71.5938 152.4531 71.6094 Q153.4531 71.6094 153.9531 72 Q154.4062 72.3438 154.5781 73.0938 L154.625 73.3125 L154.8438 72.6719 Q155.0625 72.0469 155.6562 71.75 L156.25 71.75 L156.25 72.0938 Q155.6875 72.2656 155.5 72.8125 L154.8906 74.4844 L155.2969 76.2812 Q155.5 77.2031 155.7344 77.2969 Q156.0469 77.4375 156.7812 77 L156.7812 77.7188 Q155.5938 78.4062 154.75 77.6875 Q154.375 77.3594 154.2656 76.875 L154.1875 76.4688 ZM153.9219 75.3125 L153.5625 73.5938 Q153.2656 72.2188 152.4688 72.2188 Q151.7969 72.2031 151.2812 72.9375 Q150.8594 73.5156 150.8594 74.875 Q150.8594 76.1719 151.2812 76.8281 Q151.75 77.5469 152.5312 77.5 Q153.2031 77.4375 153.6875 76 L153.9219 75.3125 Z" style="fill:black; stroke:none;" /></g><g ID="li-1:13,17" style="fill:white; text-rendering:optimizeSpeed; font-family:'Serif'; stroke:white;"><rect height="9" style="stroke:none;" width="8" x="122" y="44" /><path d="M126.1875 50.0312 L126.1875 45.375 L123.2031 50.0312 L126.1875 50.0312 ZM128.7656 53 L124.7812 53 L124.7812 52.375 L126.1875 52.375 L126.1875 50.6562 L122.375 50.6562 L122.375 50.0156 L126.2031 44.0938 L127.3594 44.0938 L127.3594 50.0312 L129.0312 50.0312 L129.0312 50.6562 L127.3594 50.6562 L127.3594 52.375 L128.7656 52.375 L128.7656 53 Z" style="fill:black; stroke:none;" /><rect height="13" style="stroke:none;" width="7" x="108" y="42" /><path d="M109.8281 54.25 Q110.2969 54.5938 111.1719 54.5938 Q112.0625 54.5938 112.5781 54.0703 Q113.0938 53.5469 113.0938 52.6562 Q113.0938 51.4219 112.5625 50.8906 Q112.0156 50.3594 111 50.3594 L110.4375 50.3594 L110.4375 49.7188 L110.7344 49.7188 Q111.4844 49.7188 112 49.2969 Q112.4219 48.9531 112.4219 48.0156 Q112.4219 47.6094 112.1406 47.1406 Q111.6875 46.375 111.1562 46.3906 Q109.8281 46.4375 109.8281 48.7812 L109.8281 54.25 ZM108.75 57.5 L108.75 48.7812 Q108.75 46.3281 110.0781 46 Q110.7656 45.8125 111.25 45.8125 Q112.3438 45.8125 113.0469 46.6719 Q113.6094 47.3594 113.6094 47.9375 Q113.6094 48.7812 113.2031 49.2656 Q112.7969 49.75 112.0625 49.9844 Q113.1406 50.1406 113.75 50.7812 Q114.3281 51.4062 114.3281 52.6328 Q114.3281 53.8594 113.5078 54.5156 Q112.6875 55.1719 111.1406 55.1719 Q110.1875 55.1719 109.8281 55.0312 L109.8281 57.5 L108.75 57.5 Z" style="fill:black; stroke:none;" /></g><g ID="li-1:5,12" style="fill:white; text-rendering:optimizeSpeed; font-family:'Serif'; stroke:white;"><rect height="9" style="stroke:none;" width="7" x="182" y="110" /><path d="M183.5312 112.3438 L182.875 112.3438 L182.875 110.7812 Q183.5 110.4375 184.1406 110.2656 Q184.7812 110.0938 185.3906 110.0938 Q186.75 110.0938 187.5391 110.7578 Q188.3281 111.4219 188.3281 112.5469 Q188.3281 113.8438 186.5469 115.625 Q186.4062 115.7656 186.3281 115.8281 L184.125 118.0312 L187.7656 118.0312 L187.7656 116.9531 L188.4531 116.9531 L188.4531 119 L182.8125 119 L182.8125 118.3594 L185.4688 115.7188 Q186.3438 114.8281 186.7188 114.0938 Q187.0938 113.3594 187.0938 112.5469 Q187.0938 111.6719 186.6328 111.1719 Q186.1719 110.6719 185.375 110.6719 Q184.5312 110.6719 184.0781 111.0859 Q183.625 111.5 183.5312 112.3438 Z" style="fill:black; stroke:none;" /><rect height="13" style="stroke:none;" width="7" x="163" y="127" /><path d="M164.8281 139.25 Q165.2969 139.5938 166.1719 139.5938 Q167.0625 139.5938 167.5781 139.0703 Q168.0938 138.5469 168.0938 137.6562 Q168.0938 136.4219 167.5625 135.8906 Q167.0156 135.3594 166 135.3594 L165.4375 135.3594 L165.4375 134.7188 L165.7344 134.7188 Q166.4844 134.7188 167 134.2969 Q167.4219 133.9531 167.4219 133.0156 Q167.4219 132.6094 167.1406 132.1406 Q166.6875 131.375 166.1562 131.3906 Q164.8281 131.4375 164.8281 133.7812 L164.8281 139.25 ZM163.75 142.5 L163.75 133.7812 Q163.75 131.3281 165.0781 131 Q165.7656 130.8125 166.25 130.8125 Q167.3438 130.8125 168.0469 131.6719 Q168.6094 132.3594 168.6094 132.9375 Q168.6094 133.7812 168.2031 134.2656 Q167.7969 134.75 167.0625 134.9844 Q168.1406 135.1406 168.75 135.7812 Q169.3281 136.4062 169.3281 137.6328 Q169.3281 138.8594 168.5078 139.5156 Q167.6875 140.1719 166.1406 140.1719 Q165.1875 140.1719 164.8281 140.0312 L164.8281 142.5 L163.75 142.5 Z" style="fill:black; stroke:none;" /></g><g ID="li-1:5,13" style="fill:white; text-rendering:optimizeSpeed; font-family:'Serif'; stroke:white;"><rect height="10" style="stroke:none;" width="7" x="171" y="77" /><path d="M174.9219 86.5938 Q175.75 86.5938 176.1953 85.9844 Q176.6406 85.375 176.6406 84.2344 Q176.6406 83.1094 176.1953 82.5 Q175.75 81.8906 174.9219 81.8906 Q174.0938 81.8906 173.6484 82.4766 Q173.2031 83.0625 173.2031 84.1719 Q173.2031 85.3281 173.6484 85.9609 Q174.0938 86.5938 174.9219 86.5938 ZM173.0156 82.1875 Q173.4219 81.75 173.9219 81.5312 Q174.4219 81.3125 175.0625 81.3125 Q176.3594 81.3125 177.1172 82.0938 Q177.875 82.875 177.875 84.2344 Q177.875 85.5625 177.0625 86.3672 Q176.25 87.1719 174.875 87.1719 Q173.3906 87.1719 172.5938 86.0625 Q171.7969 84.9531 171.7969 82.9062 Q171.7969 80.6094 172.7422 79.3516 Q173.6875 78.0938 175.4062 78.0938 Q175.875 78.0938 176.3828 78.1797 Q176.8906 78.2656 177.4219 78.4375 L177.4219 79.8906 L176.7656 79.8906 Q176.6875 79.2969 176.3047 78.9844 Q175.9219 78.6719 175.2812 78.6719 Q174.1406 78.6719 173.5859 79.5312 Q173.0312 80.3906 173.0156 82.1875 Z" style="fill:black; stroke:none;" /><rect height="13" style="stroke:none;" width="7" x="152" y="56" /><path d="M153.8281 68.25 Q154.2969 68.5938 155.1719 68.5938 Q156.0625 68.5938 156.5781 68.0703 Q157.0938 67.5469 157.0938 66.6562 Q157.0938 65.4219 156.5625 64.8906 Q156.0156 64.3594 155 64.3594 L154.4375 64.3594 L154.4375 63.7188 L154.7344 63.7188 Q155.4844 63.7188 156 63.2969 Q156.4219 62.9531 156.4219 62.0156 Q156.4219 61.6094 156.1406 61.1406 Q155.6875 60.375 155.1562 60.3906 Q153.8281 60.4375 153.8281 62.7812 L153.8281 68.25 ZM152.75 71.5 L152.75 62.7812 Q152.75 60.3281 154.0781 60 Q154.7656 59.8125 155.25 59.8125 Q156.3438 59.8125 157.0469 60.6719 Q157.6094 61.3594 157.6094 61.9375 Q157.6094 62.7812 157.2031 63.2656 Q156.7969 63.75 156.0625 63.9844 Q157.1406 64.1406 157.75 64.7812 Q158.3281 65.4062 158.3281 66.6328 Q158.3281 67.8594 157.5078 68.5156 Q156.6875 69.1719 155.1406 69.1719 Q154.1875 69.1719 153.8281 69.0312 L153.8281 71.5 L152.75 71.5 Z" style="fill:black; stroke:none;" /></g><g ID="li-1:3,4" style="fill:white; text-rendering:optimizeSpeed; font-family:'Serif'; stroke:white;"><rect height="10" style="stroke:none;" width="7" x="242" y="200" /><path d="M243.1719 201.625 Q243.8594 201.3594 244.4844 201.2266 Q245.1094 201.0938 245.6562 201.0938 Q246.9531 201.0938 247.6719 201.6484 Q248.3906 202.2031 248.3906 203.1875 Q248.3906 203.9688 247.8906 204.5 Q247.3906 205.0312 246.4844 205.2188 Q247.5625 205.375 248.1562 206.0078 Q248.75 206.6406 248.75 207.6406 Q248.75 208.8594 247.9219 209.5156 Q247.0938 210.1719 245.5469 210.1719 Q244.8594 210.1719 244.2109 210.0234 Q243.5625 209.875 242.9219 209.5781 L242.9219 207.875 L243.5781 207.875 Q243.625 208.7188 244.1406 209.1562 Q244.6562 209.5938 245.5781 209.5938 Q246.4688 209.5938 246.9922 209.0703 Q247.5156 208.5469 247.5156 207.6562 Q247.5156 206.625 246.9766 206.0938 Q246.4375 205.5625 245.4062 205.5625 L244.8594 205.5625 L244.8594 204.9531 L245.1406 204.9531 Q246.1719 204.9531 246.6875 204.5312 Q247.2031 204.1094 247.2031 203.25 Q247.2031 202.4844 246.7812 202.0781 Q246.3594 201.6719 245.5625 201.6719 Q244.7656 201.6719 244.3359 202.0469 Q243.9062 202.4219 243.8281 203.1562 L243.1719 203.1562 L243.1719 201.625 Z" style="fill:black; stroke:none;" /><rect height="8" style="stroke:none;" width="8" x="210" y="257" /><path d="M215.1875 263.4688 L214.9531 264.1094 Q214.7656 264.625 214.2031 264.9375 Q213.8438 265.1562 213.2031 265.1406 Q212.0469 265.1406 211.3281 264.2344 Q210.5938 263.3281 210.5938 261.8594 Q210.5938 260.4219 211.3281 259.4844 Q212.0156 258.5938 213.4531 258.6094 Q214.4531 258.6094 214.9531 259 Q215.4062 259.3438 215.5781 260.0938 L215.625 260.3125 L215.8438 259.6719 Q216.0625 259.0469 216.6562 258.75 L217.25 258.75 L217.25 259.0938 Q216.6875 259.2656 216.5 259.8125 L215.8906 261.4844 L216.2969 263.2812 Q216.5 264.2031 216.7344 264.2969 Q217.0469 264.4375 217.7812 264 L217.7812 264.7188 Q216.5938 265.4062 215.75 264.6875 Q215.375 264.3594 215.2656 263.875 L215.1875 263.4688 ZM214.9219 262.3125 L214.5625 260.5938 Q214.2656 259.2188 213.4688 259.2188 Q212.7969 259.2031 212.2812 259.9375 Q211.8594 260.5156 211.8594 261.875 Q211.8594 263.1719 212.2812 263.8281 Q212.75 264.5469 213.5312 264.5 Q214.2031 264.4375 214.6875 263 L214.9219 262.3125 Z" style="fill:black; stroke:none;" /></g><g ID="li-1:3,5" style="fill:white; text-rendering:optimizeSpeed; font-family:'Serif'; stroke:white;"><rect height="10" style="stroke:none;" width="7" x="228" y="165" /><path d="M231.9219 174.5938 Q232.75 174.5938 233.1953 173.9844 Q233.6406 173.375 233.6406 172.2344 Q233.6406 171.1094 233.1953 170.5 Q232.75 169.8906 231.9219 169.8906 Q231.0938 169.8906 230.6484 170.4766 Q230.2031 171.0625 230.2031 172.1719 Q230.2031 173.3281 230.6484 173.9609 Q231.0938 174.5938 231.9219 174.5938 ZM230.0156 170.1875 Q230.4219 169.75 230.9219 169.5312 Q231.4219 169.3125 232.0625 169.3125 Q233.3594 169.3125 234.1172 170.0938 Q234.875 170.875 234.875 172.2344 Q234.875 173.5625 234.0625 174.3672 Q233.25 175.1719 231.875 175.1719 Q230.3906 175.1719 229.5938 174.0625 Q228.7969 172.9531 228.7969 170.9062 Q228.7969 168.6094 229.7422 167.3516 Q230.6875 166.0938 232.4062 166.0938 Q232.875 166.0938 233.3828 166.1797 Q233.8906 166.2656 234.4219 166.4375 L234.4219 167.8906 L233.7656 167.8906 Q233.6875 167.2969 233.3047 166.9844 Q232.9219 166.6719 232.2812 166.6719 Q231.1406 166.6719 230.5859 167.5312 Q230.0312 168.3906 230.0156 170.1875 Z" style="fill:black; stroke:none;" /><rect height="8" style="stroke:none;" width="8" x="196" y="110" /><path d="M201.1875 116.4688 L200.9531 117.1094 Q200.7656 117.625 200.2031 117.9375 Q199.8438 118.1562 199.2031 118.1406 Q198.0469 118.1406 197.3281 117.2344 Q196.5938 116.3281 196.5938 114.8594 Q196.5938 113.4219 197.3281 112.4844 Q198.0156 111.5938 199.4531 111.6094 Q200.4531 111.6094 200.9531 112 Q201.4062 112.3438 201.5781 113.0938 L201.625 113.3125 L201.8438 112.6719 Q202.0625 112.0469 202.6562 111.75 L203.25 111.75 L203.25 112.0938 Q202.6875 112.2656 202.5 112.8125 L201.8906 114.4844 L202.2969 116.2812 Q202.5 117.2031 202.7344 117.2969 Q203.0469 117.4375 203.7812 117 L203.7812 117.7188 Q202.5938 118.4062 201.75 117.6875 Q201.375 117.3594 201.2656 116.875 L201.1875 116.4688 ZM200.9219 115.3125 L200.5625 113.5938 Q200.2656 112.2188 199.4688 112.2188 Q198.7969 112.2031 198.2812 112.9375 Q197.8594 113.5156 197.8594 114.875 Q197.8594 116.1719 198.2812 116.8281 Q198.75 117.5469 199.5312 117.5 Q200.2031 117.4375 200.6875 116 L200.9219 115.3125 Z" style="fill:black; stroke:none;" /></g><g ID="li-1:2,3" style="fill:white; text-rendering:optimizeSpeed; font-family:'Serif'; stroke:white;"><rect height="9" style="stroke:none;" width="8" x="278" y="187" /><path d="M282.1875 193.0312 L282.1875 188.375 L279.2031 193.0312 L282.1875 193.0312 ZM284.7656 196 L280.7812 196 L280.7812 195.375 L282.1875 195.375 L282.1875 193.6562 L278.375 193.6562 L278.375 193.0156 L282.2031 187.0938 L283.3594 187.0938 L283.3594 193.0312 L285.0312 193.0312 L285.0312 193.6562 L283.3594 193.6562 L283.3594 195.375 L284.7656 195.375 L284.7656 196 Z" style="fill:black; stroke:none;" /><rect height="13" style="stroke:none;" width="7" x="264" y="185" /><path d="M265.8281 197.25 Q266.2969 197.5938 267.1719 197.5938 Q268.0625 197.5938 268.5781 197.0703 Q269.0938 196.5469 269.0938 195.6562 Q269.0938 194.4219 268.5625 193.8906 Q268.0156 193.3594 267 193.3594 L266.4375 193.3594 L266.4375 192.7188 L266.7344 192.7188 Q267.4844 192.7188 268 192.2969 Q268.4219 191.9531 268.4219 191.0156 Q268.4219 190.6094 268.1406 190.1406 Q267.6875 189.375 267.1562 189.3906 Q265.8281 189.4375 265.8281 191.7812 L265.8281 197.25 ZM264.75 200.5 L264.75 191.7812 Q264.75 189.3281 266.0781 189 Q266.7656 188.8125 267.25 188.8125 Q268.3438 188.8125 269.0469 189.6719 Q269.6094 190.3594 269.6094 190.9375 Q269.6094 191.7812 269.2031 192.2656 Q268.7969 192.75 268.0625 192.9844 Q269.1406 193.1406 269.75 193.7812 Q270.3281 194.4062 270.3281 195.6328 Q270.3281 196.8594 269.5078 197.5156 Q268.6875 198.1719 267.1406 198.1719 Q266.1875 198.1719 265.8281 198.0312 L265.8281 200.5 L264.75 200.5 Z" style="fill:black; stroke:none;" /></g><g ID="li-1:1,2" style="fill:white; text-rendering:optimizeSpeed; font-family:'Serif'; stroke:white;"><rect height="9" style="stroke:none;" width="8" x="330" y="187" /><path d="M334.1875 193.0312 L334.1875 188.375 L331.2031 193.0312 L334.1875 193.0312 ZM336.7656 196 L332.7812 196 L332.7812 195.375 L334.1875 195.375 L334.1875 193.6562 L330.375 193.6562 L330.375 193.0156 L334.2031 187.0938 L335.3594 187.0938 L335.3594 193.0312 L337.0312 193.0312 L337.0312 193.6562 L335.3594 193.6562 L335.3594 195.375 L336.7656 195.375 L336.7656 196 Z" style="fill:black; stroke:none;" /><rect height="13" style="stroke:none;" width="7" x="316" y="185" /><path d="M317.8281 197.25 Q318.2969 197.5938 319.1719 197.5938 Q320.0625 197.5938 320.5781 197.0703 Q321.0938 196.5469 321.0938 195.6562 Q321.0938 194.4219 320.5625 193.8906 Q320.0156 193.3594 319 193.3594 L318.4375 193.3594 L318.4375 192.7188 L318.7344 192.7188 Q319.4844 192.7188 320 192.2969 Q320.4219 191.9531 320.4219 191.0156 Q320.4219 190.6094 320.1406 190.1406 Q319.6875 189.375 319.1562 189.3906 Q317.8281 189.4375 317.8281 191.7812 L317.8281 197.25 ZM316.75 200.5 L316.75 191.7812 Q316.75 189.3281 318.0781 189 Q318.7656 188.8125 319.25 188.8125 Q320.3438 188.8125 321.0469 189.6719 Q321.6094 190.3594 321.6094 190.9375 Q321.6094 191.7812 321.2031 192.2656 Q320.7969 192.75 320.0625 192.9844 Q321.1406 193.1406 321.75 193.7812 Q322.3281 194.4062 322.3281 195.6328 Q322.3281 196.8594 321.5078 197.5156 Q320.6875 198.1719 319.1406 198.1719 Q318.1875 198.1719 317.8281 198.0312 L317.8281 200.5 L316.75 200.5 Z" style="fill:black; stroke:none;" /></g></g></svg>