<svg xmlns="http://www.w3.org/2000/svg" style="fill-opacity:1; color-rendering:auto; color-interpolation:auto; text-rendering:auto; stroke:black; stroke-linecap:square; stroke-miterlimit:10; shape-rendering:auto; stroke-opacity:1; fill:black; stroke-dasharray:none; font-weight:normal; stroke-width:1; font-family:'Dialog'; font-style:normal; stroke-linejoin:miter; font-size:12px; stroke-dashoffset:0; image-rendering:auto;"><defs id="genericDefs" /><g><defs id="defs1"><clipPath clipPathUnits="userSpaceOnUse" id="clipPath1"><path d="M238 56 L260 56 L260 78 L238 78 L238 56 Z" /></clipPath><clipPath clipPathUnits="userSpaceOnUse" id="clipPath2"><path d="M186 82 L208 82 L208 104 L186 104 L186 82 Z" /></clipPath><clipPath clipPathUnits="userSpaceOnUse" id="clipPath3"><path d="M156 93 C156 99.0751 151.0751 104 145 104 C138.9249 104 134 99.0751 134 93 C134 86.9249 138.9249 82 145 82 C151.0751 82 156 86.9249 156 93 Z" /></clipPath><clipPath clipPathUnits="userSpaceOnUse" id="clipPath4"><path d="M82 108 L104 108 L104 130 L82 130 L82 108 Z" /></clipPath><clipPath clipPathUnits="userSpaceOnUse" id="clipPath5"><path d="M52 145 C52 151.0751 47.0751 156 41 156 C34.9249 156 30 151.0751 30 145 C30 138.9249 34.9249 134 41 134 C47.0751 134 52 138.9249 52 145 Z" /></clipPath><clipPath clipPathUnits="userSpaceOnUse" id="clipPath6"><path d="M41 82 L52 93 L41 104 L30 93 Z" style="fill-rule:evenodd;" /></clipPath><clipPath clipPathUnits="userSpaceOnUse" id="clipPath7"><path d="M93 56 L104 67 L93 78 L82 67 Z" style="fill-rule:evenodd;" /></clipPath><clipPath clipPathUnits="userSpaceOnUse" id="clipPath8"><path d="M197 30 L208 41 L197 52 L186 41 Z" style="fill-rule:evenodd;" /></clipPath></defs><g style="fill:white; text-rendering:optimizeSpeed; stroke:white;"><rect height="186" style="stroke:none;" width="290" x="0" y="0" /></g><g ID="l-1:1,2" style="text-rendering:optimizeSpeed;"><polygon points=" 249 67 197 93" style="fill:none;" /></g><g ID="l-1:1,3" style="text-rendering:optimizeSpeed;"><polygon points=" 249 67 197 41" style="fill:none;" /></g><g ID="r-1:1" style="fill:white; text-rendering:optimizeSpeed; stroke:white;" wurcs_mono_id="1"><rect height="22" style="clip-path:url(#clipPath1); stroke:none;" width="22" x="238" y="56" /><rect height="22" style="clip-path:url(#clipPath1); fill:rgb(255,212,0); stroke:none;" width="22" x="238" y="56" /><rect height="22" style="clip-path:url(#clipPath1); fill:none; stroke:black;" width="22" x="238" y="56" /><rect height="22" style="fill:none; stroke:black;" width="22" x="238" y="56" /></g><g ID="l-1:2,4" style="text-rendering:optimizeSpeed;"><polygon points=" 197 93 145 93" style="fill:none;" /></g><g ID="r-1:2" style="fill:white; text-rendering:optimizeSpeed; stroke:white;" wurcs_mono_id="2"><rect height="22" style="clip-path:url(#clipPath2); stroke:none;" width="22" x="186" y="82" /><rect height="22" style="clip-path:url(#clipPath2); fill:rgb(0,144,188); stroke:none;" width="22" x="186" y="82" /><rect height="22" style="clip-path:url(#clipPath2); fill:none; stroke:black;" width="22" x="186" y="82" /><rect height="22" style="fill:none; stroke:black;" width="22" x="186" y="82" /></g><g ID="l-1:4,5" style="text-rendering:optimizeSpeed;"><polygon points=" 145 93 93 119" style="fill:none;" /></g><g ID="l-1:4,6" style="text-rendering:optimizeSpeed;"><polygon points=" 145 93 93 67" style="fill:none;" /></g><g ID="r-1:4" style="fill:white; text-rendering:optimizeSpeed; stroke:white;" wurcs_mono_id="3"><circle cx="145" cy="93" r="11" style="clip-path:url(#clipPath3); stroke:none;" /><rect height="22" style="clip-path:url(#clipPath3); fill:rgb(255,212,0); stroke:none;" width="22" x="134" y="82" /><rect height="22" style="clip-path:url(#clipPath3); fill:none; stroke:black;" width="22" x="134" y="82" /><circle cx="145" cy="93" r="11" style="fill:none; stroke:black;" /></g><g ID="l-1:5,7" style="text-rendering:optimizeSpeed;"><polygon points=" 93 119 41 145" style="fill:none;" /></g><g ID="l-1:5,8" style="text-rendering:optimizeSpeed;"><polygon points=" 93 119 41 93" style="fill:none;" /></g><g ID="r-1:5" style="fill:white; text-rendering:optimizeSpeed; stroke:white;" wurcs_mono_id="4"><rect height="22" style="clip-path:url(#clipPath4); stroke:none;" width="22" x="82" y="108" /><rect height="22" style="clip-path:url(#clipPath4); fill:rgb(0,144,188); stroke:none;" width="22" x="82" y="108" /><rect height="22" style="clip-path:url(#clipPath4); fill:none; stroke:black;" width="22" x="82" y="108" /><rect height="22" style="fill:none; stroke:black;" width="22" x="82" y="108" /></g><g ID="r-1:7" style="fill:white; text-rendering:optimizeSpeed; stroke:white;" wurcs_mono_id="5"><circle cx="41" cy="145" r="11" style="clip-path:url(#clipPath5); stroke:none;" /><rect height="22" style="clip-path:url(#clipPath5); fill:rgb(255,212,0); stroke:none;" width="22" x="30" y="134" /><rect height="22" style="clip-path:url(#clipPath5); fill:none; stroke:black;" width="22" x="30" y="134" /><circle cx="41" cy="145" r="11" style="fill:none; stroke:black;" /></g><g ID="r-1:8" style="fill:white; text-rendering:optimizeSpeed; stroke:white;" wurcs_mono_id="6"><polygon points=" 41 82 52 93 41 104 30 93" style="stroke:none; clip-path:url(#clipPath6);" /><rect height="22" style="clip-path:url(#clipPath6); fill:rgb(165,67,153); stroke:none;" width="22" x="30" y="82" /><rect height="22" style="clip-path:url(#clipPath6); fill:none; stroke:black;" width="22" x="30" y="82" /><polygon points=" 41 82 52 93 41 104 30 93" style="fill:none; stroke:black;" /></g><g ID="li-1:5,7" style="fill:white; text-rendering:optimizeSpeed; font-family:'Serif'; stroke:white;"><rect height="10" style="stroke:none;" width="7" x="74" y="130" /><path d="M75.1719 131.625 Q75.8594 131.3594 76.4844 131.2266 Q77.1094 131.0938 77.6562 131.0938 Q78.9531 131.0938 79.6719 131.6484 Q80.3906 132.2031 80.3906 133.1875 Q80.3906 133.9688 79.8906 134.5 Q79.3906 135.0312 78.4844 135.2188 Q79.5625 135.375 80.1562 136.0078 Q80.75 136.6406 80.75 137.6406 Q80.75 138.8594 79.9219 139.5156 Q79.0938 140.1719 77.5469 140.1719 Q76.8594 140.1719 76.2109 140.0234 Q75.5625 139.875 74.9219 139.5781 L74.9219 137.875 L75.5781 137.875 Q75.625 138.7188 76.1406 139.1562 Q76.6562 139.5938 77.5781 139.5938 Q78.4688 139.5938 78.9922 139.0703 Q79.5156 138.5469 79.5156 137.6562 Q79.5156 136.625 78.9766 136.0938 Q78.4375 135.5625 77.4062 135.5625 L76.8594 135.5625 L76.8594 134.9531 L77.1406 134.9531 Q78.1719 134.9531 78.6875 134.5312 Q79.2031 134.1094 79.2031 133.25 Q79.2031 132.4844 78.7812 132.0781 Q78.3594 131.6719 77.5625 131.6719 Q76.7656 131.6719 76.3359 132.0469 Q75.9062 132.4219 75.8281 133.1562 L75.1719 133.1562 L75.1719 131.625 Z" style="fill:black; stroke:none;" /><rect height="13" style="stroke:none;" width="7" x="59" y="136" /><path d="M60.8281 148.25 Q61.2969 148.5938 62.1719 148.5938 Q63.0625 148.5938 63.5781 148.0703 Q64.0938 147.5469 64.0938 146.6562 Q64.0938 145.4219 63.5625 144.8906 Q63.0156 144.3594 62 144.3594 L61.4375 144.3594 L61.4375 143.7188 L61.7344 143.7188 Q62.4844 143.7188 63 143.2969 Q63.4219 142.9531 63.4219 142.0156 Q63.4219 141.6094 63.1406 141.1406 Q62.6875 140.375 62.1562 140.3906 Q60.8281 140.4375 60.8281 142.7812 L60.8281 148.25 ZM59.75 151.5 L59.75 142.7812 Q59.75 140.3281 61.0781 140 Q61.7656 139.8125 62.25 139.8125 Q63.3438 139.8125 64.0469 140.6719 Q64.6094 141.3594 64.6094 141.9375 Q64.6094 142.7812 64.2031 143.2656 Q63.7969 143.75 63.0625 143.9844 Q64.1406 144.1406 64.75 144.7812 Q65.3281 145.4062 65.3281 146.6328 Q65.3281 147.8594 64.5078 148.5156 Q63.6875 149.1719 62.1406 149.1719 Q61.1875 149.1719 60.8281 149.0312 L60.8281 151.5 L59.75 151.5 Z" style="fill:black; stroke:none;" /></g><g ID="li-1:5,8" style="fill:white; text-rendering:optimizeSpeed; font-family:'Serif'; stroke:white;"><rect height="10" style="stroke:none;" width="7" x="67" y="112" /><path d="M70.9219 121.5938 Q71.75 121.5938 72.1953 120.9844 Q72.6406 120.375 72.6406 119.2344 Q72.6406 118.1094 72.1953 117.5 Q71.75 116.8906 70.9219 116.8906 Q70.0938 116.8906 69.6484 117.4766 Q69.2031 118.0625 69.2031 119.1719 Q69.2031 120.3281 69.6484 120.9609 Q70.0938 121.5938 70.9219 121.5938 ZM69.0156 117.1875 Q69.4219 116.75 69.9219 116.5312 Q70.4219 116.3125 71.0625 116.3125 Q72.3594 116.3125 73.1172 117.0938 Q73.875 117.875 73.875 119.2344 Q73.875 120.5625 73.0625 121.3672 Q72.25 122.1719 70.875 122.1719 Q69.3906 122.1719 68.5938 121.0625 Q67.7969 119.9531 67.7969 117.9062 Q67.7969 115.6094 68.7422 114.3516 Q69.6875 113.0938 71.4062 113.0938 Q71.875 113.0938 72.3828 113.1797 Q72.8906 113.2656 73.4219 113.4375 L73.4219 114.8906 L72.7656 114.8906 Q72.6875 114.2969 72.3047 113.9844 Q71.9219 113.6719 71.2812 113.6719 Q70.1406 113.6719 69.5859 114.5312 Q69.0312 115.3906 69.0156 117.1875 Z" style="fill:black; stroke:none;" /><rect height="8" style="stroke:none;" width="8" x="51" y="105" /><path d="M56.1875 111.4688 L55.9531 112.1094 Q55.7656 112.625 55.2031 112.9375 Q54.8438 113.1562 54.2031 113.1406 Q53.0469 113.1406 52.3281 112.2344 Q51.5938 111.3281 51.5938 109.8594 Q51.5938 108.4219 52.3281 107.4844 Q53.0156 106.5938 54.4531 106.6094 Q55.4531 106.6094 55.9531 107 Q56.4062 107.3438 56.5781 108.0938 L56.625 108.3125 L56.8438 107.6719 Q57.0625 107.0469 57.6562 106.75 L58.25 106.75 L58.25 107.0938 Q57.6875 107.2656 57.5 107.8125 L56.8906 109.4844 L57.2969 111.2812 Q57.5 112.2031 57.7344 112.2969 Q58.0469 112.4375 58.7812 112 L58.7812 112.7188 Q57.5938 113.4062 56.75 112.6875 Q56.375 112.3594 56.2656 111.875 L56.1875 111.4688 ZM55.9219 110.3125 L55.5625 108.5938 Q55.2656 107.2188 54.4688 107.2188 Q53.7969 107.2031 53.2812 107.9375 Q52.8594 108.5156 52.8594 109.875 Q52.8594 111.1719 53.2812 111.8281 Q53.75 112.5469 54.5312 112.5 Q55.2031 112.4375 55.6875 111 L55.9219 110.3125 Z" style="fill:black; stroke:none;" /></g><g ID="r-1:6" style="fill:white; text-rendering:optimizeSpeed; stroke:white;" wurcs_mono_id="7"><polygon points=" 93 56 104 67 93 78 82 67" style="stroke:none; clip-path:url(#clipPath7);" /><rect height="22" style="clip-path:url(#clipPath7); fill:rgb(165,67,153); stroke:none;" width="22" x="82" y="56" /><rect height="22" style="clip-path:url(#clipPath7); fill:none; stroke:black;" width="22" x="82" y="56" /><polygon points=" 93 56 104 67 93 78 82 67" style="fill:none; stroke:black;" /></g><g ID="li-1:4,5" style="fill:white; text-rendering:optimizeSpeed; font-family:'Serif'; stroke:white;"><rect height="10" style="stroke:none;" width="7" x="126" y="104" /><path d="M127.1719 105.625 Q127.8594 105.3594 128.4844 105.2266 Q129.1094 105.0938 129.6562 105.0938 Q130.9531 105.0938 131.6719 105.6484 Q132.3906 106.2031 132.3906 107.1875 Q132.3906 107.9688 131.8906 108.5 Q131.3906 109.0312 130.4844 109.2188 Q131.5625 109.375 132.1562 110.0078 Q132.75 110.6406 132.75 111.6406 Q132.75 112.8594 131.9219 113.5156 Q131.0938 114.1719 129.5469 114.1719 Q128.8594 114.1719 128.2109 114.0234 Q127.5625 113.875 126.9219 113.5781 L126.9219 111.875 L127.5781 111.875 Q127.625 112.7188 128.1406 113.1562 Q128.6562 113.5938 129.5781 113.5938 Q130.4688 113.5938 130.9922 113.0703 Q131.5156 112.5469 131.5156 111.6562 Q131.5156 110.625 130.9766 110.0938 Q130.4375 109.5625 129.4062 109.5625 L128.8594 109.5625 L128.8594 108.9531 L129.1406 108.9531 Q130.1719 108.9531 130.6875 108.5312 Q131.2031 108.1094 131.2031 107.25 Q131.2031 106.4844 130.7812 106.0781 Q130.3594 105.6719 129.5625 105.6719 Q128.7656 105.6719 128.3359 106.0469 Q127.9062 106.4219 127.8281 107.1562 L127.1719 107.1562 L127.1719 105.625 Z" style="fill:black; stroke:none;" /><rect height="13" style="stroke:none;" width="7" x="111" y="110" /><path d="M112.8281 122.25 Q113.2969 122.5938 114.1719 122.5938 Q115.0625 122.5938 115.5781 122.0703 Q116.0938 121.5469 116.0938 120.6562 Q116.0938 119.4219 115.5625 118.8906 Q115.0156 118.3594 114 118.3594 L113.4375 118.3594 L113.4375 117.7188 L113.7344 117.7188 Q114.4844 117.7188 115 117.2969 Q115.4219 116.9531 115.4219 116.0156 Q115.4219 115.6094 115.1406 115.1406 Q114.6875 114.375 114.1562 114.3906 Q112.8281 114.4375 112.8281 116.7812 L112.8281 122.25 ZM111.75 125.5 L111.75 116.7812 Q111.75 114.3281 113.0781 114 Q113.7656 113.8125 114.25 113.8125 Q115.3438 113.8125 116.0469 114.6719 Q116.6094 115.3594 116.6094 115.9375 Q116.6094 116.7812 116.2031 117.2656 Q115.7969 117.75 115.0625 117.9844 Q116.1406 118.1406 116.75 118.7812 Q117.3281 119.4062 117.3281 120.6328 Q117.3281 121.8594 116.5078 122.5156 Q115.6875 123.1719 114.1406 123.1719 Q113.1875 123.1719 112.8281 123.0312 L112.8281 125.5 L111.75 125.5 Z" style="fill:black; stroke:none;" /></g><g ID="li-1:4,6" style="fill:white; text-rendering:optimizeSpeed; font-family:'Serif'; stroke:white;"><rect height="10" style="stroke:none;" width="7" x="119" y="86" /><path d="M122.9219 95.5938 Q123.75 95.5938 124.1953 94.9844 Q124.6406 94.375 124.6406 93.2344 Q124.6406 92.1094 124.1953 91.5 Q123.75 90.8906 122.9219 90.8906 Q122.0938 90.8906 121.6484 91.4766 Q121.2031 92.0625 121.2031 93.1719 Q121.2031 94.3281 121.6484 94.9609 Q122.0938 95.5938 122.9219 95.5938 ZM121.0156 91.1875 Q121.4219 90.75 121.9219 90.5312 Q122.4219 90.3125 123.0625 90.3125 Q124.3594 90.3125 125.1172 91.0938 Q125.875 91.875 125.875 93.2344 Q125.875 94.5625 125.0625 95.3672 Q124.25 96.1719 122.875 96.1719 Q121.3906 96.1719 120.5938 95.0625 Q119.7969 93.9531 119.7969 91.9062 Q119.7969 89.6094 120.7422 88.3516 Q121.6875 87.0938 123.4062 87.0938 Q123.875 87.0938 124.3828 87.1797 Q124.8906 87.2656 125.4219 87.4375 L125.4219 88.8906 L124.7656 88.8906 Q124.6875 88.2969 124.3047 87.9844 Q123.9219 87.6719 123.2812 87.6719 Q122.1406 87.6719 121.5859 88.5312 Q121.0312 89.3906 121.0156 91.1875 Z" style="fill:black; stroke:none;" /><rect height="8" style="stroke:none;" width="8" x="103" y="79" /><path d="M108.1875 85.4688 L107.9531 86.1094 Q107.7656 86.625 107.2031 86.9375 Q106.8438 87.1562 106.2031 87.1406 Q105.0469 87.1406 104.3281 86.2344 Q103.5938 85.3281 103.5938 83.8594 Q103.5938 82.4219 104.3281 81.4844 Q105.0156 80.5938 106.4531 80.6094 Q107.4531 80.6094 107.9531 81 Q108.4062 81.3438 108.5781 82.0938 L108.625 82.3125 L108.8438 81.6719 Q109.0625 81.0469 109.6562 80.75 L110.25 80.75 L110.25 81.0938 Q109.6875 81.2656 109.5 81.8125 L108.8906 83.4844 L109.2969 85.2812 Q109.5 86.2031 109.7344 86.2969 Q110.0469 86.4375 110.7812 86 L110.7812 86.7188 Q109.5938 87.4062 108.75 86.6875 Q108.375 86.3594 108.2656 85.875 L108.1875 85.4688 ZM107.9219 84.3125 L107.5625 82.5938 Q107.2656 81.2188 106.4688 81.2188 Q105.7969 81.2031 105.2812 81.9375 Q104.8594 82.5156 104.8594 83.875 Q104.8594 85.1719 105.2812 85.8281 Q105.75 86.5469 106.5312 86.5 Q107.2031 86.4375 107.6875 85 L107.9219 84.3125 Z" style="fill:black; stroke:none;" /></g><g ID="li-1:2,4" style="fill:white; text-rendering:optimizeSpeed; font-family:'Serif'; stroke:white;"><rect height="9" style="stroke:none;" width="8" x="174" y="96" /><path d="M178.1875 102.0312 L178.1875 97.375 L175.2031 102.0312 L178.1875 102.0312 ZM180.7656 105 L176.7812 105 L176.7812 104.375 L178.1875 104.375 L178.1875 102.6562 L174.375 102.6562 L174.375 102.0156 L178.2031 96.0938 L179.3594 96.0938 L179.3594 102.0312 L181.0312 102.0312 L181.0312 102.6562 L179.3594 102.6562 L179.3594 104.375 L180.7656 104.375 L180.7656 105 Z" style="fill:black; stroke:none;" /><rect height="13" style="stroke:none;" width="7" x="160" y="94" /><path d="M161.8281 106.25 Q162.2969 106.5938 163.1719 106.5938 Q164.0625 106.5938 164.5781 106.0703 Q165.0938 105.5469 165.0938 104.6562 Q165.0938 103.4219 164.5625 102.8906 Q164.0156 102.3594 163 102.3594 L162.4375 102.3594 L162.4375 101.7188 L162.7344 101.7188 Q163.4844 101.7188 164 101.2969 Q164.4219 100.9531 164.4219 100.0156 Q164.4219 99.6094 164.1406 99.1406 Q163.6875 98.375 163.1562 98.3906 Q161.8281 98.4375 161.8281 100.7812 L161.8281 106.25 ZM160.75 109.5 L160.75 100.7812 Q160.75 98.3281 162.0781 98 Q162.7656 97.8125 163.25 97.8125 Q164.3438 97.8125 165.0469 98.6719 Q165.6094 99.3594 165.6094 99.9375 Q165.6094 100.7812 165.2031 101.2656 Q164.7969 101.75 164.0625 101.9844 Q165.1406 102.1406 165.75 102.7812 Q166.3281 103.4062 166.3281 104.6328 Q166.3281 105.8594 165.5078 106.5156 Q164.6875 107.1719 163.1406 107.1719 Q162.1875 107.1719 161.8281 107.0312 L161.8281 109.5 L160.75 109.5 Z" style="fill:black; stroke:none;" /></g><g ID="r-1:3" style="fill:white; text-rendering:optimizeSpeed; stroke:white;" wurcs_mono_id="8"><polygon points=" 197 30 208 41 197 52 186 41" style="stroke:none; clip-path:url(#clipPath8);" /><rect height="22" style="clip-path:url(#clipPath8); fill:rgb(165,67,153); stroke:none;" width="22" x="186" y="30" /><rect height="22" style="clip-path:url(#clipPath8); fill:none; stroke:black;" width="22" x="186" y="30" /><polygon points=" 197 30 208 41 197 52 186 41" style="fill:none; stroke:black;" /></g><g ID="li-1:1,2" style="fill:white; text-rendering:optimizeSpeed; font-family:'Serif'; stroke:white;"><rect height="10" style="stroke:none;" width="7" x="230" y="78" /><path d="M231.1719 79.625 Q231.8594 79.3594 232.4844 79.2266 Q233.1094 79.0938 233.6562 79.0938 Q234.9531 79.0938 235.6719 79.6484 Q236.3906 80.2031 236.3906 81.1875 Q236.3906 81.9688 235.8906 82.5 Q235.3906 83.0312 234.4844 83.2188 Q235.5625 83.375 236.1562 84.0078 Q236.75 84.6406 236.75 85.6406 Q236.75 86.8594 235.9219 87.5156 Q235.0938 88.1719 233.5469 88.1719 Q232.8594 88.1719 232.2109 88.0234 Q231.5625 87.875 230.9219 87.5781 L230.9219 85.875 L231.5781 85.875 Q231.625 86.7188 232.1406 87.1562 Q232.6562 87.5938 233.5781 87.5938 Q234.4688 87.5938 234.9922 87.0703 Q235.5156 86.5469 235.5156 85.6562 Q235.5156 84.625 234.9766 84.0938 Q234.4375 83.5625 233.4062 83.5625 L232.8594 83.5625 L232.8594 82.9531 L233.1406 82.9531 Q234.1719 82.9531 234.6875 82.5312 Q235.2031 82.1094 235.2031 81.25 Q235.2031 80.4844 234.7812 80.0781 Q234.3594 79.6719 233.5625 79.6719 Q232.7656 79.6719 232.3359 80.0469 Q231.9062 80.4219 231.8281 81.1562 L231.1719 81.1562 L231.1719 79.625 Z" style="fill:black; stroke:none;" /><rect height="13" style="stroke:none;" width="7" x="215" y="84" /><path d="M216.8281 96.25 Q217.2969 96.5938 218.1719 96.5938 Q219.0625 96.5938 219.5781 96.0703 Q220.0938 95.5469 220.0938 94.6562 Q220.0938 93.4219 219.5625 92.8906 Q219.0156 92.3594 218 92.3594 L217.4375 92.3594 L217.4375 91.7188 L217.7344 91.7188 Q218.4844 91.7188 219 91.2969 Q219.4219 90.9531 219.4219 90.0156 Q219.4219 89.6094 219.1406 89.1406 Q218.6875 88.375 218.1562 88.3906 Q216.8281 88.4375 216.8281 90.7812 L216.8281 96.25 ZM215.75 99.5 L215.75 90.7812 Q215.75 88.3281 217.0781 88 Q217.7656 87.8125 218.25 87.8125 Q219.3438 87.8125 220.0469 88.6719 Q220.6094 89.3594 220.6094 89.9375 Q220.6094 90.7812 220.2031 91.2656 Q219.7969 91.75 219.0625 91.9844 Q220.1406 92.1406 220.75 92.7812 Q221.3281 93.4062 221.3281 94.6328 Q221.3281 95.8594 220.5078 96.5156 Q219.6875 97.1719 218.1406 97.1719 Q217.1875 97.1719 216.8281 97.0312 L216.8281 99.5 L215.75 99.5 Z" style="fill:black; stroke:none;" /></g><g ID="li-1:1,3" style="fill:white; text-rendering:optimizeSpeed; font-family:'Serif'; stroke:white;"><rect height="10" style="stroke:none;" width="7" x="223" y="60" /><path d="M226.9219 69.5938 Q227.75 69.5938 228.1953 68.9844 Q228.6406 68.375 228.6406 67.2344 Q228.6406 66.1094 228.1953 65.5 Q227.75 64.8906 226.9219 64.8906 Q226.0938 64.8906 225.6484 65.4766 Q225.2031 66.0625 225.2031 67.1719 Q225.2031 68.3281 225.6484 68.9609 Q226.0938 69.5938 226.9219 69.5938 ZM225.0156 65.1875 Q225.4219 64.75 225.9219 64.5312 Q226.4219 64.3125 227.0625 64.3125 Q228.3594 64.3125 229.1172 65.0938 Q229.875 65.875 229.875 67.2344 Q229.875 68.5625 229.0625 69.3672 Q228.25 70.1719 226.875 70.1719 Q225.3906 70.1719 224.5938 69.0625 Q223.7969 67.9531 223.7969 65.9062 Q223.7969 63.6094 224.7422 62.3516 Q225.6875 61.0938 227.4062 61.0938 Q227.875 61.0938 228.3828 61.1797 Q228.8906 61.2656 229.4219 61.4375 L229.4219 62.8906 L228.7656 62.8906 Q228.6875 62.2969 228.3047 61.9844 Q227.9219 61.6719 227.2812 61.6719 Q226.1406 61.6719 225.5859 62.5312 Q225.0312 63.3906 225.0156 65.1875 Z" style="fill:black; stroke:none;" /><rect height="8" style="stroke:none;" width="8" x="207" y="53" /><path d="M212.1875 59.4688 L211.9531 60.1094 Q211.7656 60.625 211.2031 60.9375 Q210.8438 61.1562 210.2031 61.1406 Q209.0469 61.1406 208.3281 60.2344 Q207.5938 59.3281 207.5938 57.8594 Q207.5938 56.4219 208.3281 55.4844 Q209.0156 54.5938 210.4531 54.6094 Q211.4531 54.6094 211.9531 55 Q212.4062 55.3438 212.5781 56.0938 L212.625 56.3125 L212.8438 55.6719 Q213.0625 55.0469 213.6562 54.75 L214.25 54.75 L214.25 55.0938 Q213.6875 55.2656 213.5 55.8125 L212.8906 57.4844 L213.2969 59.2812 Q213.5 60.2031 213.7344 60.2969 Q214.0469 60.4375 214.7812 60 L214.7812 60.7188 Q213.5938 61.4062 212.75 60.6875 Q212.375 60.3594 212.2656 59.875 L212.1875 59.4688 ZM211.9219 58.3125 L211.5625 56.5938 Q211.2656 55.2188 210.4688 55.2188 Q209.7969 55.2031 209.2812 55.9375 Q208.8594 56.5156 208.8594 57.875 Q208.8594 59.1719 209.2812 59.8281 Q209.75 60.5469 210.5312 60.5 Q211.2031 60.4375 211.6875 59 L211.9219 58.3125 Z" style="fill:black; stroke:none;" /></g></g></svg>