<svg xmlns="http://www.w3.org/2000/svg" style="fill-opacity:1; color-rendering:auto; color-interpolation:auto; text-rendering:auto; stroke:black; stroke-linecap:square; stroke-miterlimit:10; shape-rendering:auto; stroke-opacity:1; fill:black; stroke-dasharray:none; font-weight:normal; stroke-width:1; font-family:'Dialog'; font-style:normal; stroke-linejoin:miter; font-size:12px; stroke-dashoffset:0; image-rendering:auto;"><defs id="genericDefs" /><g><defs id="defs1"><clipPath clipPathUnits="userSpaceOnUse" id="clipPath1"><path d="M342 108 L364 108 L364 130 L342 130 L342 108 Z" /></clipPath><clipPath clipPathUnits="userSpaceOnUse" id="clipPath2"><path d="M290 108 L312 108 L312 130 L290 130 L290 108 Z" /></clipPath><clipPath clipPathUnits="userSpaceOnUse" id="clipPath3"><path d="M260 119 C260 125.0751 255.0751 130 249 130 C242.9249 130 238 125.0751 238 119 C238 112.9249 242.9249 108 249 108 C255.0751 108 260 112.9249 260 119 Z" /></clipPath><clipPath clipPathUnits="userSpaceOnUse" id="clipPath4"><path d="M208 171 C208 177.0751 203.0751 182 197 182 C190.9249 182 186 177.0751 186 171 C186 164.9249 190.9249 160 197 160 C203.0751 160 208 164.9249 208 171 Z" /></clipPath><clipPath clipPathUnits="userSpaceOnUse" id="clipPath5"><path d="M134 186 L156 186 L156 208 L134 208 L134 186 Z" /></clipPath><clipPath clipPathUnits="userSpaceOnUse" id="clipPath6"><path d="M104 197 C104 203.0751 99.0751 208 93 208 C86.9249 208 82 203.0751 82 197 C82 190.9249 86.9249 186 93 186 C99.0751 186 104 190.9249 104 197 Z" /></clipPath><clipPath clipPathUnits="userSpaceOnUse" id="clipPath7"><path d="M41 186 L52 197 L41 208 L30 197 Z" style="fill-rule:evenodd;" /></clipPath><clipPath clipPathUnits="userSpaceOnUse" id="clipPath8"><path d="M134 134 L156 134 L156 156 L134 156 L134 134 Z" /></clipPath><clipPath clipPathUnits="userSpaceOnUse" id="clipPath9"><path d="M104 145 C104 151.0751 99.0751 156 93 156 C86.9249 156 82 151.0751 82 145 C82 138.9249 86.9249 134 93 134 C99.0751 134 104 138.9249 104 145 Z" /></clipPath><clipPath clipPathUnits="userSpaceOnUse" id="clipPath10"><path d="M208 67 C208 73.0751 203.0751 78 197 78 C190.9249 78 186 73.0751 186 67 C186 60.9249 190.9249 56 197 56 C203.0751 56 208 60.9249 208 67 Z" /></clipPath><clipPath clipPathUnits="userSpaceOnUse" id="clipPath11"><path d="M156 93 C156 99.0751 151.0751 104 145 104 C138.9249 104 134 99.0751 134 93 C134 86.9249 138.9249 82 145 82 C151.0751 82 156 86.9249 156 93 Z" /></clipPath><clipPath clipPathUnits="userSpaceOnUse" id="clipPath12"><path d="M156 41 C156 47.0751 151.0751 52 145 52 C138.9249 52 134 47.0751 134 41 C134 34.9249 138.9249 30 145 30 C151.0751 30 156 34.9249 156 41 Z" /></clipPath></defs><g style="fill:white; text-rendering:optimizeSpeed; stroke:white;"><rect height="238" style="stroke:none;" width="394" x="0" y="0" /></g><g ID="l-1:1,2" style="text-rendering:optimizeSpeed;"><polygon points=" 353 119 301 119" style="fill:none;" /></g><g ID="r-1:1" style="fill:white; text-rendering:optimizeSpeed; stroke:white;" wurcs_mono_id="1"><rect height="22" style="clip-path:url(#clipPath1); stroke:none;" width="22" x="342" y="108" /><rect height="22" style="clip-path:url(#clipPath1); fill:rgb(0,144,188); stroke:none;" width="22" x="342" y="108" /><rect height="22" style="clip-path:url(#clipPath1); fill:none; stroke:black;" width="22" x="342" y="108" /><rect height="22" style="fill:none; stroke:black;" width="22" x="342" y="108" /></g><g ID="l-1:2,3" style="text-rendering:optimizeSpeed;"><polygon points=" 301 119 249 119" style="fill:none;" /></g><g ID="r-1:2" style="fill:white; text-rendering:optimizeSpeed; stroke:white;" wurcs_mono_id="2"><rect height="22" style="clip-path:url(#clipPath2); stroke:none;" width="22" x="290" y="108" /><rect height="22" style="clip-path:url(#clipPath2); fill:rgb(0,144,188); stroke:none;" width="22" x="290" y="108" /><rect height="22" style="clip-path:url(#clipPath2); fill:none; stroke:black;" width="22" x="290" y="108" /><rect height="22" style="fill:none; stroke:black;" width="22" x="290" y="108" /></g><g ID="l-1:3,4" style="text-rendering:optimizeSpeed;"><polygon points=" 249 119 197 171" style="fill:none;" /></g><g ID="l-1:3,5" style="text-rendering:optimizeSpeed;"><polygon points=" 249 119 197 67" style="fill:none;" /></g><g ID="r-1:3" style="fill:white; text-rendering:optimizeSpeed; stroke:white;" wurcs_mono_id="3"><circle cx="249" cy="119" r="11" style="clip-path:url(#clipPath3); stroke:none;" /><rect height="22" style="clip-path:url(#clipPath3); fill:rgb(0,166,81); stroke:none;" width="22" x="238" y="108" /><rect height="22" style="clip-path:url(#clipPath3); fill:none; stroke:black;" width="22" x="238" y="108" /><circle cx="249" cy="119" r="11" style="fill:none; stroke:black;" /></g><g ID="l-1:4,6" style="text-rendering:optimizeSpeed;"><polygon points=" 197 171 145 197" style="fill:none;" /></g><g ID="l-1:4,7" style="text-rendering:optimizeSpeed;"><polygon points=" 197 171 145 145" style="fill:none;" /></g><g ID="r-1:4" style="fill:white; text-rendering:optimizeSpeed; stroke:white;" wurcs_mono_id="4"><circle cx="197" cy="171" r="11" style="clip-path:url(#clipPath4); stroke:none;" /><rect height="22" style="clip-path:url(#clipPath4); fill:rgb(0,166,81); stroke:none;" width="22" x="186" y="160" /><rect height="22" style="clip-path:url(#clipPath4); fill:none; stroke:black;" width="22" x="186" y="160" /><circle cx="197" cy="171" r="11" style="fill:none; stroke:black;" /></g><g ID="l-1:6,8" style="text-rendering:optimizeSpeed;"><polygon points=" 145 197 93 197" style="fill:none;" /></g><g ID="r-1:6" style="fill:white; text-rendering:optimizeSpeed; stroke:white;" wurcs_mono_id="5"><rect height="22" style="clip-path:url(#clipPath5); stroke:none;" width="22" x="134" y="186" /><rect height="22" style="clip-path:url(#clipPath5); fill:rgb(0,144,188); stroke:none;" width="22" x="134" y="186" /><rect height="22" style="clip-path:url(#clipPath5); fill:none; stroke:black;" width="22" x="134" y="186" /><rect height="22" style="fill:none; stroke:black;" width="22" x="134" y="186" /></g><g ID="l-1:8,9" style="text-rendering:optimizeSpeed;"><polygon points=" 93 197 41 197" style="fill:none;" /></g><g ID="r-1:8" style="fill:white; text-rendering:optimizeSpeed; stroke:white;" wurcs_mono_id="6"><circle cx="93" cy="197" r="11" style="clip-path:url(#clipPath6); stroke:none;" /><rect height="22" style="clip-path:url(#clipPath6); fill:rgb(255,212,0); stroke:none;" width="22" x="82" y="186" /><rect height="22" style="clip-path:url(#clipPath6); fill:none; stroke:black;" width="22" x="82" y="186" /><circle cx="93" cy="197" r="11" style="fill:none; stroke:black;" /></g><g ID="r-1:9" style="fill:white; text-rendering:optimizeSpeed; stroke:white;" wurcs_mono_id="7"><polygon points=" 41 186 52 197 41 208 30 197" style="stroke:none; clip-path:url(#clipPath7);" /><rect height="22" style="clip-path:url(#clipPath7); fill:rgb(165,67,153); stroke:none;" width="22" x="30" y="186" /><rect height="22" style="clip-path:url(#clipPath7); fill:none; stroke:black;" width="22" x="30" y="186" /><polygon points=" 41 186 52 197 41 208 30 197" style="fill:none; stroke:black;" /></g><g ID="li-1:8,9" style="fill:white; text-rendering:optimizeSpeed; font-family:'Serif'; stroke:white;"><rect height="10" style="stroke:none;" width="7" x="70" y="200" /><path d="M71.1719 201.625 Q71.8594 201.3594 72.4844 201.2266 Q73.1094 201.0938 73.6562 201.0938 Q74.9531 201.0938 75.6719 201.6484 Q76.3906 202.2031 76.3906 203.1875 Q76.3906 203.9688 75.8906 204.5 Q75.3906 205.0312 74.4844 205.2188 Q75.5625 205.375 76.1562 206.0078 Q76.75 206.6406 76.75 207.6406 Q76.75 208.8594 75.9219 209.5156 Q75.0938 210.1719 73.5469 210.1719 Q72.8594 210.1719 72.2109 210.0234 Q71.5625 209.875 70.9219 209.5781 L70.9219 207.875 L71.5781 207.875 Q71.625 208.7188 72.1406 209.1562 Q72.6562 209.5938 73.5781 209.5938 Q74.4688 209.5938 74.9922 209.0703 Q75.5156 208.5469 75.5156 207.6562 Q75.5156 206.625 74.9766 206.0938 Q74.4375 205.5625 73.4062 205.5625 L72.8594 205.5625 L72.8594 204.9531 L73.1406 204.9531 Q74.1719 204.9531 74.6875 204.5312 Q75.2031 204.1094 75.2031 203.25 Q75.2031 202.4844 74.7812 202.0781 Q74.3594 201.6719 73.5625 201.6719 Q72.7656 201.6719 72.3359 202.0469 Q71.9062 202.4219 71.8281 203.1562 L71.1719 203.1562 L71.1719 201.625 Z" style="fill:black; stroke:none;" /><rect height="8" style="stroke:none;" width="8" x="56" y="201" /><path d="M61.1875 207.4688 L60.9531 208.1094 Q60.7656 208.625 60.2031 208.9375 Q59.8438 209.1562 59.2031 209.1406 Q58.0469 209.1406 57.3281 208.2344 Q56.5938 207.3281 56.5938 205.8594 Q56.5938 204.4219 57.3281 203.4844 Q58.0156 202.5938 59.4531 202.6094 Q60.4531 202.6094 60.9531 203 Q61.4062 203.3438 61.5781 204.0938 L61.625 204.3125 L61.8438 203.6719 Q62.0625 203.0469 62.6562 202.75 L63.25 202.75 L63.25 203.0938 Q62.6875 203.2656 62.5 203.8125 L61.8906 205.4844 L62.2969 207.2812 Q62.5 208.2031 62.7344 208.2969 Q63.0469 208.4375 63.7812 208 L63.7812 208.7188 Q62.5938 209.4062 61.75 208.6875 Q61.375 208.3594 61.2656 207.875 L61.1875 207.4688 ZM60.9219 206.3125 L60.5625 204.5938 Q60.2656 203.2188 59.4688 203.2188 Q58.7969 203.2031 58.2812 203.9375 Q57.8594 204.5156 57.8594 205.875 Q57.8594 207.1719 58.2812 207.8281 Q58.75 208.5469 59.5312 208.5 Q60.2031 208.4375 60.6875 207 L60.9219 206.3125 Z" style="fill:black; stroke:none;" /></g><g ID="li-1:6,8" style="fill:white; text-rendering:optimizeSpeed; font-family:'Serif'; stroke:white;"><rect height="10" style="stroke:none;" width="6" x="123" y="200" /><path d="M125.1094 209.3906 Q125.1094 209.0625 125.3359 208.8359 Q125.5625 208.6094 125.8906 208.6094 Q126.2188 208.6094 126.4453 208.8359 Q126.6719 209.0625 126.6719 209.3906 Q126.6719 209.7188 126.4453 209.9453 Q126.2188 210.1719 125.8906 210.1719 Q125.5625 210.1719 125.3359 209.9453 Q125.1094 209.7188 125.1094 209.3906 ZM123.8125 201.6406 Q124.4375 201.3594 125 201.2266 Q125.5625 201.0938 126.0469 201.0938 Q127.3438 201.0938 128.1016 201.7188 Q128.8594 202.3438 128.8594 203.4062 Q128.8594 204.5 128.2109 205.1953 Q127.5625 205.8906 126.25 206.1875 L126.25 207.6719 L125.5312 207.6719 L125.5312 205.75 Q126.5625 205.5 127.0938 204.9062 Q127.625 204.3125 127.625 203.4062 Q127.625 202.5938 127.1953 202.1328 Q126.7656 201.6719 126.0312 201.6719 Q125.3594 201.6719 124.9297 202.0547 Q124.5 202.4375 124.3906 203.1562 L123.8125 203.1562 L123.8125 201.6406 Z" style="fill:black; stroke:none;" /><rect height="13" style="stroke:none;" width="7" x="108" y="198" /><path d="M109.8281 210.25 Q110.2969 210.5938 111.1719 210.5938 Q112.0625 210.5938 112.5781 210.0703 Q113.0938 209.5469 113.0938 208.6562 Q113.0938 207.4219 112.5625 206.8906 Q112.0156 206.3594 111 206.3594 L110.4375 206.3594 L110.4375 205.7188 L110.7344 205.7188 Q111.4844 205.7188 112 205.2969 Q112.4219 204.9531 112.4219 204.0156 Q112.4219 203.6094 112.1406 203.1406 Q111.6875 202.375 111.1562 202.3906 Q109.8281 202.4375 109.8281 204.7812 L109.8281 210.25 ZM108.75 213.5 L108.75 204.7812 Q108.75 202.3281 110.0781 202 Q110.7656 201.8125 111.25 201.8125 Q112.3438 201.8125 113.0469 202.6719 Q113.6094 203.3594 113.6094 203.9375 Q113.6094 204.7812 113.2031 205.2656 Q112.7969 205.75 112.0625 205.9844 Q113.1406 206.1406 113.75 206.7812 Q114.3281 207.4062 114.3281 208.6328 Q114.3281 209.8594 113.5078 210.5156 Q112.6875 211.1719 111.1406 211.1719 Q110.1875 211.1719 109.8281 211.0312 L109.8281 213.5 L108.75 213.5 Z" style="fill:black; stroke:none;" /></g><g ID="l-1:7,10" style="text-rendering:optimizeSpeed;"><polygon points=" 145 145 93 145" style="fill:none;" /></g><g ID="r-1:7" style="fill:white; text-rendering:optimizeSpeed; stroke:white;" wurcs_mono_id="8"><rect height="22" style="clip-path:url(#clipPath8); stroke:none;" width="22" x="134" y="134" /><rect height="22" style="clip-path:url(#clipPath8); fill:rgb(0,144,188); stroke:none;" width="22" x="134" y="134" /><rect height="22" style="clip-path:url(#clipPath8); fill:none; stroke:black;" width="22" x="134" y="134" /><rect height="22" style="fill:none; stroke:black;" width="22" x="134" y="134" /></g><g ID="r-1:10" style="fill:white; text-rendering:optimizeSpeed; stroke:white;" wurcs_mono_id="9"><circle cx="93" cy="145" r="11" style="clip-path:url(#clipPath9); stroke:none;" /><rect height="22" style="clip-path:url(#clipPath9); fill:rgb(255,212,0); stroke:none;" width="22" x="82" y="134" /><rect height="22" style="clip-path:url(#clipPath9); fill:none; stroke:black;" width="22" x="82" y="134" /><circle cx="93" cy="145" r="11" style="fill:none; stroke:black;" /></g><g ID="li-1:7,10" style="fill:white; text-rendering:optimizeSpeed; font-family:'Serif'; stroke:white;"><rect height="10" style="stroke:none;" width="6" x="123" y="148" /><path d="M125.1094 157.3906 Q125.1094 157.0625 125.3359 156.8359 Q125.5625 156.6094 125.8906 156.6094 Q126.2188 156.6094 126.4453 156.8359 Q126.6719 157.0625 126.6719 157.3906 Q126.6719 157.7188 126.4453 157.9453 Q126.2188 158.1719 125.8906 158.1719 Q125.5625 158.1719 125.3359 157.9453 Q125.1094 157.7188 125.1094 157.3906 ZM123.8125 149.6406 Q124.4375 149.3594 125 149.2266 Q125.5625 149.0938 126.0469 149.0938 Q127.3438 149.0938 128.1016 149.7188 Q128.8594 150.3438 128.8594 151.4062 Q128.8594 152.5 128.2109 153.1953 Q127.5625 153.8906 126.25 154.1875 L126.25 155.6719 L125.5312 155.6719 L125.5312 153.75 Q126.5625 153.5 127.0938 152.9062 Q127.625 152.3125 127.625 151.4062 Q127.625 150.5938 127.1953 150.1328 Q126.7656 149.6719 126.0312 149.6719 Q125.3594 149.6719 124.9297 150.0547 Q124.5 150.4375 124.3906 151.1562 L123.8125 151.1562 L123.8125 149.6406 Z" style="fill:black; stroke:none;" /><rect height="13" style="stroke:none;" width="7" x="108" y="146" /><path d="M109.8281 158.25 Q110.2969 158.5938 111.1719 158.5938 Q112.0625 158.5938 112.5781 158.0703 Q113.0938 157.5469 113.0938 156.6562 Q113.0938 155.4219 112.5625 154.8906 Q112.0156 154.3594 111 154.3594 L110.4375 154.3594 L110.4375 153.7188 L110.7344 153.7188 Q111.4844 153.7188 112 153.2969 Q112.4219 152.9531 112.4219 152.0156 Q112.4219 151.6094 112.1406 151.1406 Q111.6875 150.375 111.1562 150.3906 Q109.8281 150.4375 109.8281 152.7812 L109.8281 158.25 ZM108.75 161.5 L108.75 152.7812 Q108.75 150.3281 110.0781 150 Q110.7656 149.8125 111.25 149.8125 Q112.3438 149.8125 113.0469 150.6719 Q113.6094 151.3594 113.6094 151.9375 Q113.6094 152.7812 113.2031 153.2656 Q112.7969 153.75 112.0625 153.9844 Q113.1406 154.1406 113.75 154.7812 Q114.3281 155.4062 114.3281 156.6328 Q114.3281 157.8594 113.5078 158.5156 Q112.6875 159.1719 111.1406 159.1719 Q110.1875 159.1719 109.8281 159.0312 L109.8281 161.5 L108.75 161.5 Z" style="fill:black; stroke:none;" /></g><g ID="li-1:4,6" style="fill:white; text-rendering:optimizeSpeed; font-family:'Serif'; stroke:white;"><rect height="10" style="stroke:none;" width="6" x="179" y="182" /><path d="M181.1094 191.3906 Q181.1094 191.0625 181.3359 190.8359 Q181.5625 190.6094 181.8906 190.6094 Q182.2188 190.6094 182.4453 190.8359 Q182.6719 191.0625 182.6719 191.3906 Q182.6719 191.7188 182.4453 191.9453 Q182.2188 192.1719 181.8906 192.1719 Q181.5625 192.1719 181.3359 191.9453 Q181.1094 191.7188 181.1094 191.3906 ZM179.8125 183.6406 Q180.4375 183.3594 181 183.2266 Q181.5625 183.0938 182.0469 183.0938 Q183.3438 183.0938 184.1016 183.7188 Q184.8594 184.3438 184.8594 185.4062 Q184.8594 186.5 184.2109 187.1953 Q183.5625 187.8906 182.25 188.1875 L182.25 189.6719 L181.5312 189.6719 L181.5312 187.75 Q182.5625 187.5 183.0938 186.9062 Q183.625 186.3125 183.625 185.4062 Q183.625 184.5938 183.1953 184.1328 Q182.7656 183.6719 182.0312 183.6719 Q181.3594 183.6719 180.9297 184.0547 Q180.5 184.4375 180.3906 185.1562 L179.8125 185.1562 L179.8125 183.6406 Z" style="fill:black; stroke:none;" /><rect height="13" style="stroke:none;" width="7" x="163" y="188" /><path d="M164.8281 200.25 Q165.2969 200.5938 166.1719 200.5938 Q167.0625 200.5938 167.5781 200.0703 Q168.0938 199.5469 168.0938 198.6562 Q168.0938 197.4219 167.5625 196.8906 Q167.0156 196.3594 166 196.3594 L165.4375 196.3594 L165.4375 195.7188 L165.7344 195.7188 Q166.4844 195.7188 167 195.2969 Q167.4219 194.9531 167.4219 194.0156 Q167.4219 193.6094 167.1406 193.1406 Q166.6875 192.375 166.1562 192.3906 Q164.8281 192.4375 164.8281 194.7812 L164.8281 200.25 ZM163.75 203.5 L163.75 194.7812 Q163.75 192.3281 165.0781 192 Q165.7656 191.8125 166.25 191.8125 Q167.3438 191.8125 168.0469 192.6719 Q168.6094 193.3594 168.6094 193.9375 Q168.6094 194.7812 168.2031 195.2656 Q167.7969 195.75 167.0625 195.9844 Q168.1406 196.1406 168.75 196.7812 Q169.3281 197.4062 169.3281 198.6328 Q169.3281 199.8594 168.5078 200.5156 Q167.6875 201.1719 166.1406 201.1719 Q165.1875 201.1719 164.8281 201.0312 L164.8281 203.5 L163.75 203.5 Z" style="fill:black; stroke:none;" /></g><g ID="li-1:4,7" style="fill:white; text-rendering:optimizeSpeed; font-family:'Serif'; stroke:white;"><rect height="10" style="stroke:none;" width="6" x="172" y="164" /><path d="M174.1094 173.3906 Q174.1094 173.0625 174.3359 172.8359 Q174.5625 172.6094 174.8906 172.6094 Q175.2188 172.6094 175.4453 172.8359 Q175.6719 173.0625 175.6719 173.3906 Q175.6719 173.7188 175.4453 173.9453 Q175.2188 174.1719 174.8906 174.1719 Q174.5625 174.1719 174.3359 173.9453 Q174.1094 173.7188 174.1094 173.3906 ZM172.8125 165.6406 Q173.4375 165.3594 174 165.2266 Q174.5625 165.0938 175.0469 165.0938 Q176.3438 165.0938 177.1016 165.7188 Q177.8594 166.3438 177.8594 167.4062 Q177.8594 168.5 177.2109 169.1953 Q176.5625 169.8906 175.25 170.1875 L175.25 171.6719 L174.5312 171.6719 L174.5312 169.75 Q175.5625 169.5 176.0938 168.9062 Q176.625 168.3125 176.625 167.4062 Q176.625 166.5938 176.1953 166.1328 Q175.7656 165.6719 175.0312 165.6719 Q174.3594 165.6719 173.9297 166.0547 Q173.5 166.4375 173.3906 167.1562 L172.8125 167.1562 L172.8125 165.6406 Z" style="fill:black; stroke:none;" /><rect height="13" style="stroke:none;" width="7" x="156" y="154" /><path d="M157.8281 166.25 Q158.2969 166.5938 159.1719 166.5938 Q160.0625 166.5938 160.5781 166.0703 Q161.0938 165.5469 161.0938 164.6562 Q161.0938 163.4219 160.5625 162.8906 Q160.0156 162.3594 159 162.3594 L158.4375 162.3594 L158.4375 161.7188 L158.7344 161.7188 Q159.4844 161.7188 160 161.2969 Q160.4219 160.9531 160.4219 160.0156 Q160.4219 159.6094 160.1406 159.1406 Q159.6875 158.375 159.1562 158.3906 Q157.8281 158.4375 157.8281 160.7812 L157.8281 166.25 ZM156.75 169.5 L156.75 160.7812 Q156.75 158.3281 158.0781 158 Q158.7656 157.8125 159.25 157.8125 Q160.3438 157.8125 161.0469 158.6719 Q161.6094 159.3594 161.6094 159.9375 Q161.6094 160.7812 161.2031 161.2656 Q160.7969 161.75 160.0625 161.9844 Q161.1406 162.1406 161.75 162.7812 Q162.3281 163.4062 162.3281 164.6328 Q162.3281 165.8594 161.5078 166.5156 Q160.6875 167.1719 159.1406 167.1719 Q158.1875 167.1719 157.8281 167.0312 L157.8281 169.5 L156.75 169.5 Z" style="fill:black; stroke:none;" /></g><g ID="l-1:5,11" style="text-rendering:optimizeSpeed;"><polygon points=" 197 67 145 93" style="fill:none;" /></g><g ID="l-1:5,12" style="text-rendering:optimizeSpeed;"><polygon points=" 197 67 145 41" style="fill:none;" /></g><g ID="r-1:5" style="fill:white; text-rendering:optimizeSpeed; stroke:white;" wurcs_mono_id="10"><circle cx="197" cy="67" r="11" style="clip-path:url(#clipPath10); stroke:none;" /><rect height="22" style="clip-path:url(#clipPath10); fill:rgb(0,166,81); stroke:none;" width="22" x="186" y="56" /><rect height="22" style="clip-path:url(#clipPath10); fill:none; stroke:black;" width="22" x="186" y="56" /><circle cx="197" cy="67" r="11" style="fill:none; stroke:black;" /></g><g ID="r-1:11" style="fill:white; text-rendering:optimizeSpeed; stroke:white;" wurcs_mono_id="12"><circle cx="145" cy="93" r="11" style="clip-path:url(#clipPath11); stroke:none;" /><rect height="22" style="clip-path:url(#clipPath11); fill:rgb(0,166,81); stroke:none;" width="22" x="134" y="82" /><rect height="22" style="clip-path:url(#clipPath11); fill:none; stroke:black;" width="22" x="134" y="82" /><circle cx="145" cy="93" r="11" style="fill:none; stroke:black;" /></g><g ID="r-1:12" style="fill:white; text-rendering:optimizeSpeed; stroke:white;" wurcs_mono_id="11"><circle cx="145" cy="41" r="11" style="clip-path:url(#clipPath12); stroke:none;" /><rect height="22" style="clip-path:url(#clipPath12); fill:rgb(0,166,81); stroke:none;" width="22" x="134" y="30" /><rect height="22" style="clip-path:url(#clipPath12); fill:none; stroke:black;" width="22" x="134" y="30" /><circle cx="145" cy="41" r="11" style="fill:none; stroke:black;" /></g><g ID="li-1:5,11" style="fill:white; text-rendering:optimizeSpeed; font-family:'Serif'; stroke:white;"><rect height="10" style="stroke:none;" width="6" x="179" y="78" /><path d="M181.1094 87.3906 Q181.1094 87.0625 181.3359 86.8359 Q181.5625 86.6094 181.8906 86.6094 Q182.2188 86.6094 182.4453 86.8359 Q182.6719 87.0625 182.6719 87.3906 Q182.6719 87.7188 182.4453 87.9453 Q182.2188 88.1719 181.8906 88.1719 Q181.5625 88.1719 181.3359 87.9453 Q181.1094 87.7188 181.1094 87.3906 ZM179.8125 79.6406 Q180.4375 79.3594 181 79.2266 Q181.5625 79.0938 182.0469 79.0938 Q183.3438 79.0938 184.1016 79.7188 Q184.8594 80.3438 184.8594 81.4062 Q184.8594 82.5 184.2109 83.1953 Q183.5625 83.8906 182.25 84.1875 L182.25 85.6719 L181.5312 85.6719 L181.5312 83.75 Q182.5625 83.5 183.0938 82.9062 Q183.625 82.3125 183.625 81.4062 Q183.625 80.5938 183.1953 80.1328 Q182.7656 79.6719 182.0312 79.6719 Q181.3594 79.6719 180.9297 80.0547 Q180.5 80.4375 180.3906 81.1562 L179.8125 81.1562 L179.8125 79.6406 Z" style="fill:black; stroke:none;" /><rect height="8" style="stroke:none;" width="8" x="162" y="87" /><path d="M167.1875 93.4688 L166.9531 94.1094 Q166.7656 94.625 166.2031 94.9375 Q165.8438 95.1562 165.2031 95.1406 Q164.0469 95.1406 163.3281 94.2344 Q162.5938 93.3281 162.5938 91.8594 Q162.5938 90.4219 163.3281 89.4844 Q164.0156 88.5938 165.4531 88.6094 Q166.4531 88.6094 166.9531 89 Q167.4062 89.3438 167.5781 90.0938 L167.625 90.3125 L167.8438 89.6719 Q168.0625 89.0469 168.6562 88.75 L169.25 88.75 L169.25 89.0938 Q168.6875 89.2656 168.5 89.8125 L167.8906 91.4844 L168.2969 93.2812 Q168.5 94.2031 168.7344 94.2969 Q169.0469 94.4375 169.7812 94 L169.7812 94.7188 Q168.5938 95.4062 167.75 94.6875 Q167.375 94.3594 167.2656 93.875 L167.1875 93.4688 ZM166.9219 92.3125 L166.5625 90.5938 Q166.2656 89.2188 165.4688 89.2188 Q164.7969 89.2031 164.2812 89.9375 Q163.8594 90.5156 163.8594 91.875 Q163.8594 93.1719 164.2812 93.8281 Q164.75 94.5469 165.5312 94.5 Q166.2031 94.4375 166.6875 93 L166.9219 92.3125 Z" style="fill:black; stroke:none;" /></g><g ID="li-1:5,12" style="fill:white; text-rendering:optimizeSpeed; font-family:'Serif'; stroke:white;"><rect height="10" style="stroke:none;" width="6" x="172" y="60" /><path d="M174.1094 69.3906 Q174.1094 69.0625 174.3359 68.8359 Q174.5625 68.6094 174.8906 68.6094 Q175.2188 68.6094 175.4453 68.8359 Q175.6719 69.0625 175.6719 69.3906 Q175.6719 69.7188 175.4453 69.9453 Q175.2188 70.1719 174.8906 70.1719 Q174.5625 70.1719 174.3359 69.9453 Q174.1094 69.7188 174.1094 69.3906 ZM172.8125 61.6406 Q173.4375 61.3594 174 61.2266 Q174.5625 61.0938 175.0469 61.0938 Q176.3438 61.0938 177.1016 61.7188 Q177.8594 62.3438 177.8594 63.4062 Q177.8594 64.5 177.2109 65.1953 Q176.5625 65.8906 175.25 66.1875 L175.25 67.6719 L174.5312 67.6719 L174.5312 65.75 Q175.5625 65.5 176.0938 64.9062 Q176.625 64.3125 176.625 63.4062 Q176.625 62.5938 176.1953 62.1328 Q175.7656 61.6719 175.0312 61.6719 Q174.3594 61.6719 173.9297 62.0547 Q173.5 62.4375 173.3906 63.1562 L172.8125 63.1562 L172.8125 61.6406 Z" style="fill:black; stroke:none;" /><rect height="8" style="stroke:none;" width="8" x="155" y="53" /><path d="M160.1875 59.4688 L159.9531 60.1094 Q159.7656 60.625 159.2031 60.9375 Q158.8438 61.1562 158.2031 61.1406 Q157.0469 61.1406 156.3281 60.2344 Q155.5938 59.3281 155.5938 57.8594 Q155.5938 56.4219 156.3281 55.4844 Q157.0156 54.5938 158.4531 54.6094 Q159.4531 54.6094 159.9531 55 Q160.4062 55.3438 160.5781 56.0938 L160.625 56.3125 L160.8438 55.6719 Q161.0625 55.0469 161.6562 54.75 L162.25 54.75 L162.25 55.0938 Q161.6875 55.2656 161.5 55.8125 L160.8906 57.4844 L161.2969 59.2812 Q161.5 60.2031 161.7344 60.2969 Q162.0469 60.4375 162.7812 60 L162.7812 60.7188 Q161.5938 61.4062 160.75 60.6875 Q160.375 60.3594 160.2656 59.875 L160.1875 59.4688 ZM159.9219 58.3125 L159.5625 56.5938 Q159.2656 55.2188 158.4688 55.2188 Q157.7969 55.2031 157.2812 55.9375 Q156.8594 56.5156 156.8594 57.875 Q156.8594 59.1719 157.2812 59.8281 Q157.75 60.5469 158.5312 60.5 Q159.2031 60.4375 159.6875 59 L159.9219 58.3125 Z" style="fill:black; stroke:none;" /></g><g ID="li-1:3,4" style="fill:white; text-rendering:optimizeSpeed; font-family:'Serif'; stroke:white;"><rect height="10" style="stroke:none;" width="6" x="235" y="136" /><path d="M237.1094 145.3906 Q237.1094 145.0625 237.3359 144.8359 Q237.5625 144.6094 237.8906 144.6094 Q238.2188 144.6094 238.4453 144.8359 Q238.6719 145.0625 238.6719 145.3906 Q238.6719 145.7188 238.4453 145.9453 Q238.2188 146.1719 237.8906 146.1719 Q237.5625 146.1719 237.3359 145.9453 Q237.1094 145.7188 237.1094 145.3906 ZM235.8125 137.6406 Q236.4375 137.3594 237 137.2266 Q237.5625 137.0938 238.0469 137.0938 Q239.3438 137.0938 240.1016 137.7188 Q240.8594 138.3438 240.8594 139.4062 Q240.8594 140.5 240.2109 141.1953 Q239.5625 141.8906 238.25 142.1875 L238.25 143.6719 L237.5312 143.6719 L237.5312 141.75 Q238.5625 141.5 239.0938 140.9062 Q239.625 140.3125 239.625 139.4062 Q239.625 138.5938 239.1953 138.1328 Q238.7656 137.6719 238.0312 137.6719 Q237.3594 137.6719 236.9297 138.0547 Q236.5 138.4375 236.3906 139.1562 L235.8125 139.1562 L235.8125 137.6406 Z" style="fill:black; stroke:none;" /><rect height="8" style="stroke:none;" width="8" x="215" y="156" /><path d="M220.1875 162.4688 L219.9531 163.1094 Q219.7656 163.625 219.2031 163.9375 Q218.8438 164.1562 218.2031 164.1406 Q217.0469 164.1406 216.3281 163.2344 Q215.5938 162.3281 215.5938 160.8594 Q215.5938 159.4219 216.3281 158.4844 Q217.0156 157.5938 218.4531 157.6094 Q219.4531 157.6094 219.9531 158 Q220.4062 158.3438 220.5781 159.0938 L220.625 159.3125 L220.8438 158.6719 Q221.0625 158.0469 221.6562 157.75 L222.25 157.75 L222.25 158.0938 Q221.6875 158.2656 221.5 158.8125 L220.8906 160.4844 L221.2969 162.2812 Q221.5 163.2031 221.7344 163.2969 Q222.0469 163.4375 222.7812 163 L222.7812 163.7188 Q221.5938 164.4062 220.75 163.6875 Q220.375 163.3594 220.2656 162.875 L220.1875 162.4688 ZM219.9219 161.3125 L219.5625 159.5938 Q219.2656 158.2188 218.4688 158.2188 Q217.7969 158.2031 217.2812 158.9375 Q216.8594 159.5156 216.8594 160.875 Q216.8594 162.1719 217.2812 162.8281 Q217.75 163.5469 218.5312 163.5 Q219.2031 163.4375 219.6875 162 L219.9219 161.3125 Z" style="fill:black; stroke:none;" /></g><g ID="li-1:3,5" style="fill:white; text-rendering:optimizeSpeed; font-family:'Serif'; stroke:white;"><rect height="10" style="stroke:none;" width="6" x="223" y="103" /><path d="M225.1094 112.3906 Q225.1094 112.0625 225.3359 111.8359 Q225.5625 111.6094 225.8906 111.6094 Q226.2188 111.6094 226.4453 111.8359 Q226.6719 112.0625 226.6719 112.3906 Q226.6719 112.7188 226.4453 112.9453 Q226.2188 113.1719 225.8906 113.1719 Q225.5625 113.1719 225.3359 112.9453 Q225.1094 112.7188 225.1094 112.3906 ZM223.8125 104.6406 Q224.4375 104.3594 225 104.2266 Q225.5625 104.0938 226.0469 104.0938 Q227.3438 104.0938 228.1016 104.7188 Q228.8594 105.3438 228.8594 106.4062 Q228.8594 107.5 228.2109 108.1953 Q227.5625 108.8906 226.25 109.1875 L226.25 110.6719 L225.5312 110.6719 L225.5312 108.75 Q226.5625 108.5 227.0938 107.9062 Q227.625 107.3125 227.625 106.4062 Q227.625 105.5938 227.1953 105.1328 Q226.7656 104.6719 226.0312 104.6719 Q225.3594 104.6719 224.9297 105.0547 Q224.5 105.4375 224.3906 106.1562 L223.8125 106.1562 L223.8125 104.6406 Z" style="fill:black; stroke:none;" /><rect height="8" style="stroke:none;" width="8" x="204" y="85" /><path d="M209.1875 91.4688 L208.9531 92.1094 Q208.7656 92.625 208.2031 92.9375 Q207.8438 93.1562 207.2031 93.1406 Q206.0469 93.1406 205.3281 92.2344 Q204.5938 91.3281 204.5938 89.8594 Q204.5938 88.4219 205.3281 87.4844 Q206.0156 86.5938 207.4531 86.6094 Q208.4531 86.6094 208.9531 87 Q209.4062 87.3438 209.5781 88.0938 L209.625 88.3125 L209.8438 87.6719 Q210.0625 87.0469 210.6562 86.75 L211.25 86.75 L211.25 87.0938 Q210.6875 87.2656 210.5 87.8125 L209.8906 89.4844 L210.2969 91.2812 Q210.5 92.2031 210.7344 92.2969 Q211.0469 92.4375 211.7812 92 L211.7812 92.7188 Q210.5938 93.4062 209.75 92.6875 Q209.375 92.3594 209.2656 91.875 L209.1875 91.4688 ZM208.9219 90.3125 L208.5625 88.5938 Q208.2656 87.2188 207.4688 87.2188 Q206.7969 87.2031 206.2812 87.9375 Q205.8594 88.5156 205.8594 89.875 Q205.8594 91.1719 206.2812 91.8281 Q206.75 92.5469 207.5312 92.5 Q208.2031 92.4375 208.6875 91 L208.9219 90.3125 Z" style="fill:black; stroke:none;" /></g><g ID="li-1:2,3" style="fill:white; text-rendering:optimizeSpeed; font-family:'Serif'; stroke:white;"><rect height="9" style="stroke:none;" width="8" x="278" y="122" /><path d="M282.1875 128.0312 L282.1875 123.375 L279.2031 128.0312 L282.1875 128.0312 ZM284.7656 131 L280.7812 131 L280.7812 130.375 L282.1875 130.375 L282.1875 128.6562 L278.375 128.6562 L278.375 128.0156 L282.2031 122.0938 L283.3594 122.0938 L283.3594 128.0312 L285.0312 128.0312 L285.0312 128.6562 L283.3594 128.6562 L283.3594 130.375 L284.7656 130.375 L284.7656 131 Z" style="fill:black; stroke:none;" /><rect height="13" style="stroke:none;" width="7" x="264" y="120" /><path d="M265.8281 132.25 Q266.2969 132.5938 267.1719 132.5938 Q268.0625 132.5938 268.5781 132.0703 Q269.0938 131.5469 269.0938 130.6562 Q269.0938 129.4219 268.5625 128.8906 Q268.0156 128.3594 267 128.3594 L266.4375 128.3594 L266.4375 127.7188 L266.7344 127.7188 Q267.4844 127.7188 268 127.2969 Q268.4219 126.9531 268.4219 126.0156 Q268.4219 125.6094 268.1406 125.1406 Q267.6875 124.375 267.1562 124.3906 Q265.8281 124.4375 265.8281 126.7812 L265.8281 132.25 ZM264.75 135.5 L264.75 126.7812 Q264.75 124.3281 266.0781 124 Q266.7656 123.8125 267.25 123.8125 Q268.3438 123.8125 269.0469 124.6719 Q269.6094 125.3594 269.6094 125.9375 Q269.6094 126.7812 269.2031 127.2656 Q268.7969 127.75 268.0625 127.9844 Q269.1406 128.1406 269.75 128.7812 Q270.3281 129.4062 270.3281 130.6328 Q270.3281 131.8594 269.5078 132.5156 Q268.6875 133.1719 267.1406 133.1719 Q266.1875 133.1719 265.8281 133.0312 L265.8281 135.5 L264.75 135.5 Z" style="fill:black; stroke:none;" /></g><g ID="li-1:1,2" style="fill:white; text-rendering:optimizeSpeed; font-family:'Serif'; stroke:white;"><rect height="9" style="stroke:none;" width="8" x="330" y="122" /><path d="M334.1875 128.0312 L334.1875 123.375 L331.2031 128.0312 L334.1875 128.0312 ZM336.7656 131 L332.7812 131 L332.7812 130.375 L334.1875 130.375 L334.1875 128.6562 L330.375 128.6562 L330.375 128.0156 L334.2031 122.0938 L335.3594 122.0938 L335.3594 128.0312 L337.0312 128.0312 L337.0312 128.6562 L335.3594 128.6562 L335.3594 130.375 L336.7656 130.375 L336.7656 131 Z" style="fill:black; stroke:none;" /><rect height="13" style="stroke:none;" width="7" x="316" y="120" /><path d="M317.8281 132.25 Q318.2969 132.5938 319.1719 132.5938 Q320.0625 132.5938 320.5781 132.0703 Q321.0938 131.5469 321.0938 130.6562 Q321.0938 129.4219 320.5625 128.8906 Q320.0156 128.3594 319 128.3594 L318.4375 128.3594 L318.4375 127.7188 L318.7344 127.7188 Q319.4844 127.7188 320 127.2969 Q320.4219 126.9531 320.4219 126.0156 Q320.4219 125.6094 320.1406 125.1406 Q319.6875 124.375 319.1562 124.3906 Q317.8281 124.4375 317.8281 126.7812 L317.8281 132.25 ZM316.75 135.5 L316.75 126.7812 Q316.75 124.3281 318.0781 124 Q318.7656 123.8125 319.25 123.8125 Q320.3438 123.8125 321.0469 124.6719 Q321.6094 125.3594 321.6094 125.9375 Q321.6094 126.7812 321.2031 127.2656 Q320.7969 127.75 320.0625 127.9844 Q321.1406 128.1406 321.75 128.7812 Q322.3281 129.4062 322.3281 130.6328 Q322.3281 131.8594 321.5078 132.5156 Q320.6875 133.1719 319.1406 133.1719 Q318.1875 133.1719 317.8281 133.0312 L317.8281 135.5 L316.75 135.5 Z" style="fill:black; stroke:none;" /></g></g></svg>