<svg xmlns="http://www.w3.org/2000/svg" style="fill-opacity:1; color-rendering:auto; color-interpolation:auto; text-rendering:auto; stroke:black; stroke-linecap:square; stroke-miterlimit:10; shape-rendering:auto; stroke-opacity:1; fill:black; stroke-dasharray:none; font-weight:normal; stroke-width:1; font-family:'Dialog'; font-style:normal; stroke-linejoin:miter; font-size:12px; stroke-dashoffset:0; image-rendering:auto;"><defs id="genericDefs" /><g><defs id="defs1"><clipPath clipPathUnits="userSpaceOnUse" id="clipPath1"><path d="M30 134 L52 134 L52 156 L30 156 L30 134 Z" /></clipPath><clipPath clipPathUnits="userSpaceOnUse" id="clipPath2"><path d="M41 104 L30 82 L52 82 Z" style="fill-rule:evenodd;" /></clipPath><clipPath clipPathUnits="userSpaceOnUse" id="clipPath3"><path d="M52 41 C52 47.0751 47.0751 52 41 52 C34.9249 52 30 47.0751 30 41 C30 34.9249 34.9249 30 41 30 C47.0751 30 52 34.9249 52 41 Z" /></clipPath></defs><g style="fill:white; text-rendering:optimizeSpeed; stroke:white;"><rect height="186" style="stroke:none;" width="82" x="0" y="0" /></g><g ID="l-1:1,2" style="text-rendering:optimizeSpeed;"><polygon points=" 41 145 41 93" style="fill:none;" /></g><g ID="r-1:1" style="fill:white; text-rendering:optimizeSpeed; stroke:white;" wurcs_mono_id="1"><rect height="22" style="clip-path:url(#clipPath1); stroke:none;" width="22" x="30" y="134" /><rect height="22" style="clip-path:url(#clipPath1); fill:rgb(0,144,188); stroke:none;" width="22" x="30" y="134" /><rect height="22" style="clip-path:url(#clipPath1); fill:none; stroke:black;" width="22" x="30" y="134" /><rect height="22" style="fill:none; stroke:black;" width="22" x="30" y="134" /></g><g ID="l-1:2,3" style="text-rendering:optimizeSpeed;"><polygon points=" 41 93 41 41" style="fill:none;" /></g><g ID="r-1:2" style="fill:white; text-rendering:optimizeSpeed; stroke:white;" wurcs_mono_id="2"><polygon points=" 41 104 30 82 52 82" style="stroke:none; clip-path:url(#clipPath2);" /><rect height="22" style="clip-path:url(#clipPath2); fill:rgb(237,28,36); stroke:none;" width="22" x="30" y="82" /><rect height="22" style="clip-path:url(#clipPath2); fill:none; stroke:black;" width="22" x="30" y="82" /><polygon points=" 41 104 30 82 52 82" style="fill:none; stroke:black;" /></g><g ID="r-1:3" style="fill:white; text-rendering:optimizeSpeed; stroke:white;" wurcs_mono_id="3"><circle cx="41" cy="41" r="11" style="clip-path:url(#clipPath3); stroke:none;" /><rect height="22" style="clip-path:url(#clipPath3); fill:rgb(255,212,0); stroke:none;" width="22" x="30" y="30" /><rect height="22" style="clip-path:url(#clipPath3); fill:none; stroke:black;" width="22" x="30" y="30" /><circle cx="41" cy="41" r="11" style="fill:none; stroke:black;" /></g><g ID="li-1:2,3" style="fill:white; text-rendering:optimizeSpeed; font-family:'Serif'; stroke:white;"><rect height="10" style="stroke:none;" width="7" x="29" y="69" /><path d="M30.1719 70.625 Q30.8594 70.3594 31.4844 70.2266 Q32.1094 70.0938 32.6562 70.0938 Q33.9531 70.0938 34.6719 70.6484 Q35.3906 71.2031 35.3906 72.1875 Q35.3906 72.9688 34.8906 73.5 Q34.3906 74.0312 33.4844 74.2188 Q34.5625 74.375 35.1562 75.0078 Q35.75 75.6406 35.75 76.6406 Q35.75 77.8594 34.9219 78.5156 Q34.0938 79.1719 32.5469 79.1719 Q31.8594 79.1719 31.2109 79.0234 Q30.5625 78.875 29.9219 78.5781 L29.9219 76.875 L30.5781 76.875 Q30.625 77.7188 31.1406 78.1562 Q31.6562 78.5938 32.5781 78.5938 Q33.4688 78.5938 33.9922 78.0703 Q34.5156 77.5469 34.5156 76.6562 Q34.5156 75.625 33.9766 75.0938 Q33.4375 74.5625 32.4062 74.5625 L31.8594 74.5625 L31.8594 73.9531 L32.1406 73.9531 Q33.1719 73.9531 33.6875 73.5312 Q34.2031 73.1094 34.2031 72.25 Q34.2031 71.4844 33.7812 71.0781 Q33.3594 70.6719 32.5625 70.6719 Q31.7656 70.6719 31.3359 71.0469 Q30.9062 71.4219 30.8281 72.1562 L30.1719 72.1562 L30.1719 70.625 Z" style="fill:black; stroke:none;" /><rect height="13" style="stroke:none;" width="7" x="29" y="53" /><path d="M30.8281 65.25 Q31.2969 65.5938 32.1719 65.5938 Q33.0625 65.5938 33.5781 65.0703 Q34.0938 64.5469 34.0938 63.6562 Q34.0938 62.4219 33.5625 61.8906 Q33.0156 61.3594 32 61.3594 L31.4375 61.3594 L31.4375 60.7188 L31.7344 60.7188 Q32.4844 60.7188 33 60.2969 Q33.4219 59.9531 33.4219 59.0156 Q33.4219 58.6094 33.1406 58.1406 Q32.6875 57.375 32.1562 57.3906 Q30.8281 57.4375 30.8281 59.7812 L30.8281 65.25 ZM29.75 68.5 L29.75 59.7812 Q29.75 57.3281 31.0781 57 Q31.7656 56.8125 32.25 56.8125 Q33.3438 56.8125 34.0469 57.6719 Q34.6094 58.3594 34.6094 58.9375 Q34.6094 59.7812 34.2031 60.2656 Q33.7969 60.75 33.0625 60.9844 Q34.1406 61.1406 34.75 61.7812 Q35.3281 62.4062 35.3281 63.6328 Q35.3281 64.8594 34.5078 65.5156 Q33.6875 66.1719 32.1406 66.1719 Q31.1875 66.1719 30.8281 66.0312 L30.8281 68.5 L29.75 68.5 Z" style="fill:black; stroke:none;" /></g><g ID="li-1:1,2" style="fill:white; text-rendering:optimizeSpeed; font-family:'Serif'; stroke:white;"><rect height="9" style="stroke:none;" width="8" x="29" y="121" /><path d="M33.1875 127.0312 L33.1875 122.375 L30.2031 127.0312 L33.1875 127.0312 ZM35.7656 130 L31.7812 130 L31.7812 129.375 L33.1875 129.375 L33.1875 127.6562 L29.375 127.6562 L29.375 127.0156 L33.2031 121.0938 L34.3594 121.0938 L34.3594 127.0312 L36.0312 127.0312 L36.0312 127.6562 L34.3594 127.6562 L34.3594 129.375 L35.7656 129.375 L35.7656 130 Z" style="fill:black; stroke:none;" /><rect height="8" style="stroke:none;" width="8" x="29" y="108" /><path d="M34.1875 114.4688 L33.9531 115.1094 Q33.7656 115.625 33.2031 115.9375 Q32.8438 116.1562 32.2031 116.1406 Q31.0469 116.1406 30.3281 115.2344 Q29.5938 114.3281 29.5938 112.8594 Q29.5938 111.4219 30.3281 110.4844 Q31.0156 109.5938 32.4531 109.6094 Q33.4531 109.6094 33.9531 110 Q34.4062 110.3438 34.5781 111.0938 L34.625 111.3125 L34.8438 110.6719 Q35.0625 110.0469 35.6562 109.75 L36.25 109.75 L36.25 110.0938 Q35.6875 110.2656 35.5 110.8125 L34.8906 112.4844 L35.2969 114.2812 Q35.5 115.2031 35.7344 115.2969 Q36.0469 115.4375 36.7812 115 L36.7812 115.7188 Q35.5938 116.4062 34.75 115.6875 Q34.375 115.3594 34.2656 114.875 L34.1875 114.4688 ZM33.9219 113.3125 L33.5625 111.5938 Q33.2656 110.2188 32.4688 110.2188 Q31.7969 110.2031 31.2812 110.9375 Q30.8594 111.5156 30.8594 112.875 Q30.8594 114.1719 31.2812 114.8281 Q31.75 115.5469 32.5312 115.5 Q33.2031 115.4375 33.6875 114 L33.9219 113.3125 Z" style="fill:black; stroke:none;" /></g></g></svg>