<svg xmlns="http://www.w3.org/2000/svg" style="fill-opacity:1; color-rendering:auto; color-interpolation:auto; text-rendering:auto; stroke:black; stroke-linecap:square; stroke-miterlimit:10; shape-rendering:auto; stroke-opacity:1; fill:black; stroke-dasharray:none; font-weight:normal; stroke-width:1; font-family:'Dialog'; font-style:normal; stroke-linejoin:miter; font-size:12px; stroke-dashoffset:0; image-rendering:auto;"><defs id="genericDefs" /><g><defs id="defs1"><clipPath clipPathUnits="userSpaceOnUse" id="clipPath1"><path d="M186 30 L208 30 L208 52 L186 52 L186 30 Z" /></clipPath><clipPath clipPathUnits="userSpaceOnUse" id="clipPath2"><path d="M156 41 C156 47.0751 151.0751 52 145 52 C138.9249 52 134 47.0751 134 41 C134 34.9249 138.9249 30 145 30 C151.0751 30 156 34.9249 156 41 Z" /></clipPath><clipPath clipPathUnits="userSpaceOnUse" id="clipPath3"><path d="M82 30 L104 30 L104 52 L82 52 L82 30 Z" /></clipPath><clipPath clipPathUnits="userSpaceOnUse" id="clipPath4"><path d="M52 41 C52 47.0751 47.0751 52 41 52 C34.9249 52 30 47.0751 30 41 C30 34.9249 34.9249 30 41 30 C47.0751 30 52 34.9249 52 41 Z" /></clipPath><clipPath clipPathUnits="userSpaceOnUse" id="clipPath5"><path d="M41 82 L52 104 L30 104 Z" style="fill-rule:evenodd;" /></clipPath></defs><g style="fill:white; text-rendering:optimizeSpeed; stroke:white;"><rect height="134" style="stroke:none;" width="238" x="0" y="0" /></g><g ID="l-1:1,2" style="text-rendering:optimizeSpeed;"><polygon points=" 197 41 145 41" style="fill:none;" /></g><g ID="r-1:1" style="fill:white; text-rendering:optimizeSpeed; stroke:white;" wurcs_mono_id="1"><rect height="22" style="clip-path:url(#clipPath1); stroke:none;" width="22" x="186" y="30" /><rect height="22" style="clip-path:url(#clipPath1); fill:rgb(255,212,0); stroke:none;" width="22" x="186" y="30" /><rect height="22" style="clip-path:url(#clipPath1); fill:none; stroke:black;" width="22" x="186" y="30" /><rect height="22" style="fill:none; stroke:black;" width="22" x="186" y="30" /></g><g ID="l-1:2,3" style="text-rendering:optimizeSpeed;"><polygon points=" 145 41 93 41" style="fill:none;" /></g><g ID="r-1:2" style="fill:white; text-rendering:optimizeSpeed; stroke:white;" wurcs_mono_id="2"><circle cx="145" cy="41" r="11" style="clip-path:url(#clipPath2); stroke:none;" /><rect height="22" style="clip-path:url(#clipPath2); fill:rgb(255,212,0); stroke:none;" width="22" x="134" y="30" /><rect height="22" style="clip-path:url(#clipPath2); fill:none; stroke:black;" width="22" x="134" y="30" /><circle cx="145" cy="41" r="11" style="fill:none; stroke:black;" /></g><g ID="l-1:3,4" style="text-rendering:optimizeSpeed;"><polygon points=" 93 41 41 41" style="fill:none;" /></g><g ID="r-1:3" style="fill:white; text-rendering:optimizeSpeed; stroke:white;" wurcs_mono_id="3"><rect height="22" style="clip-path:url(#clipPath3); stroke:none;" width="22" x="82" y="30" /><rect height="22" style="clip-path:url(#clipPath3); fill:rgb(0,144,188); stroke:none;" width="22" x="82" y="30" /><rect height="22" style="clip-path:url(#clipPath3); fill:none; stroke:black;" width="22" x="82" y="30" /><rect height="22" style="fill:none; stroke:black;" width="22" x="82" y="30" /></g><g ID="l-1:4,5" style="text-rendering:optimizeSpeed;"><polygon points=" 41 41 41 93" style="fill:none;" /></g><g ID="r-1:4" style="fill:white; text-rendering:optimizeSpeed; stroke:white;" wurcs_mono_id="4"><circle cx="41" cy="41" r="11" style="clip-path:url(#clipPath4); stroke:none;" /><rect height="22" style="clip-path:url(#clipPath4); fill:rgb(255,212,0); stroke:none;" width="22" x="30" y="30" /><rect height="22" style="clip-path:url(#clipPath4); fill:none; stroke:black;" width="22" x="30" y="30" /><circle cx="41" cy="41" r="11" style="fill:none; stroke:black;" /></g><g ID="r-1:5" style="fill:white; text-rendering:optimizeSpeed; stroke:white;" wurcs_mono_id="5"><polygon points=" 41 82 52 104 30 104" style="stroke:none; clip-path:url(#clipPath5);" /><rect height="22" style="clip-path:url(#clipPath5); fill:rgb(237,28,36); stroke:none;" width="22" x="30" y="82" /><rect height="22" style="clip-path:url(#clipPath5); fill:none; stroke:black;" width="22" x="30" y="82" /><polygon points=" 41 82 52 104 30 104" style="fill:none; stroke:black;" /></g><g ID="li-1:4,5" style="fill:white; text-rendering:optimizeSpeed; font-family:'Serif'; stroke:white;"><rect height="9" style="stroke:none;" width="7" x="45" y="55" /><path d="M46.5312 57.3438 L45.875 57.3438 L45.875 55.7812 Q46.5 55.4375 47.1406 55.2656 Q47.7812 55.0938 48.3906 55.0938 Q49.75 55.0938 50.5391 55.7578 Q51.3281 56.4219 51.3281 57.5469 Q51.3281 58.8438 49.5469 60.625 Q49.4062 60.7656 49.3281 60.8281 L47.125 63.0312 L50.7656 63.0312 L50.7656 61.9531 L51.4531 61.9531 L51.4531 64 L45.8125 64 L45.8125 63.3594 L48.4688 60.7188 Q49.3438 59.8281 49.7188 59.0938 Q50.0938 58.3594 50.0938 57.5469 Q50.0938 56.6719 49.6328 56.1719 Q49.1719 55.6719 48.375 55.6719 Q47.5312 55.6719 47.0781 56.0859 Q46.625 56.5 46.5312 57.3438 Z" style="fill:black; stroke:none;" /><rect height="8" style="stroke:none;" width="8" x="45" y="70" /><path d="M50.1875 76.4688 L49.9531 77.1094 Q49.7656 77.625 49.2031 77.9375 Q48.8438 78.1562 48.2031 78.1406 Q47.0469 78.1406 46.3281 77.2344 Q45.5938 76.3281 45.5938 74.8594 Q45.5938 73.4219 46.3281 72.4844 Q47.0156 71.5938 48.4531 71.6094 Q49.4531 71.6094 49.9531 72 Q50.4062 72.3438 50.5781 73.0938 L50.625 73.3125 L50.8438 72.6719 Q51.0625 72.0469 51.6562 71.75 L52.25 71.75 L52.25 72.0938 Q51.6875 72.2656 51.5 72.8125 L50.8906 74.4844 L51.2969 76.2812 Q51.5 77.2031 51.7344 77.2969 Q52.0469 77.4375 52.7812 77 L52.7812 77.7188 Q51.5938 78.4062 50.75 77.6875 Q50.375 77.3594 50.2656 76.875 L50.1875 76.4688 ZM49.9219 75.3125 L49.5625 73.5938 Q49.2656 72.2188 48.4688 72.2188 Q47.7969 72.2031 47.2812 72.9375 Q46.8594 73.5156 46.8594 74.875 Q46.8594 76.1719 47.2812 76.8281 Q47.75 77.5469 48.5312 77.5 Q49.2031 77.4375 49.6875 76 L49.9219 75.3125 Z" style="fill:black; stroke:none;" /></g><g ID="li-1:3,4" style="fill:white; text-rendering:optimizeSpeed; font-family:'Serif'; stroke:white;"><rect height="11" style="stroke:none;" width="20" x="64" y="43" /><path d="M65.1719 45.625 Q65.8594 45.3594 66.4844 45.2266 Q67.1094 45.0938 67.6562 45.0938 Q68.9531 45.0938 69.6719 45.6484 Q70.3906 46.2031 70.3906 47.1875 Q70.3906 47.9688 69.8906 48.5 Q69.3906 49.0312 68.4844 49.2188 Q69.5625 49.375 70.1562 50.0078 Q70.75 50.6406 70.75 51.6406 Q70.75 52.8594 69.9219 53.5156 Q69.0938 54.1719 67.5469 54.1719 Q66.8594 54.1719 66.2109 54.0234 Q65.5625 53.875 64.9219 53.5781 L64.9219 51.875 L65.5781 51.875 Q65.625 52.7188 66.1406 53.1562 Q66.6562 53.5938 67.5781 53.5938 Q68.4688 53.5938 68.9922 53.0703 Q69.5156 52.5469 69.5156 51.6562 Q69.5156 50.625 68.9766 50.0938 Q68.4375 49.5625 67.4062 49.5625 L66.8594 49.5625 L66.8594 48.9531 L67.1406 48.9531 Q68.1719 48.9531 68.6875 48.5312 Q69.2031 48.1094 69.2031 47.25 Q69.2031 46.4844 68.7812 46.0781 Q68.3594 45.6719 67.5625 45.6719 Q66.7656 45.6719 66.3359 46.0469 Q65.9062 46.4219 65.8281 47.1562 L65.1719 47.1562 L65.1719 45.625 ZM74.7441 45.25 L75.6816 45.25 L72.5723 55.1094 L71.6348 55.1094 L74.7441 45.25 ZM79.8652 51.0312 L79.8652 46.375 L76.8809 51.0312 L79.8652 51.0312 ZM82.4434 54 L78.459 54 L78.459 53.375 L79.8652 53.375 L79.8652 51.6562 L76.0527 51.6562 L76.0527 51.0156 L79.8809 45.0938 L81.0371 45.0938 L81.0371 51.0312 L82.709 51.0312 L82.709 51.6562 L81.0371 51.6562 L81.0371 53.375 L82.4434 53.375 L82.4434 54 Z" style="fill:black; stroke:none;" /><rect height="13" style="stroke:none;" width="7" x="56" y="42" /><path d="M57.8281 54.25 Q58.2969 54.5938 59.1719 54.5938 Q60.0625 54.5938 60.5781 54.0703 Q61.0938 53.5469 61.0938 52.6562 Q61.0938 51.4219 60.5625 50.8906 Q60.0156 50.3594 59 50.3594 L58.4375 50.3594 L58.4375 49.7188 L58.7344 49.7188 Q59.4844 49.7188 60 49.2969 Q60.4219 48.9531 60.4219 48.0156 Q60.4219 47.6094 60.1406 47.1406 Q59.6875 46.375 59.1562 46.3906 Q57.8281 46.4375 57.8281 48.7812 L57.8281 54.25 ZM56.75 57.5 L56.75 48.7812 Q56.75 46.3281 58.0781 46 Q58.7656 45.8125 59.25 45.8125 Q60.3438 45.8125 61.0469 46.6719 Q61.6094 47.3594 61.6094 47.9375 Q61.6094 48.7812 61.2031 49.2656 Q60.7969 49.75 60.0625 49.9844 Q61.1406 50.1406 61.75 50.7812 Q62.3281 51.4062 62.3281 52.6328 Q62.3281 53.8594 61.5078 54.5156 Q60.6875 55.1719 59.1406 55.1719 Q58.1875 55.1719 57.8281 55.0312 L57.8281 57.5 L56.75 57.5 Z" style="fill:black; stroke:none;" /></g><g ID="li-1:2,3" style="fill:white; text-rendering:optimizeSpeed; font-family:'Serif'; stroke:white;"><rect height="10" style="stroke:none;" width="7" x="122" y="44" /><path d="M123.1719 45.625 Q123.8594 45.3594 124.4844 45.2266 Q125.1094 45.0938 125.6562 45.0938 Q126.9531 45.0938 127.6719 45.6484 Q128.3906 46.2031 128.3906 47.1875 Q128.3906 47.9688 127.8906 48.5 Q127.3906 49.0312 126.4844 49.2188 Q127.5625 49.375 128.1562 50.0078 Q128.75 50.6406 128.75 51.6406 Q128.75 52.8594 127.9219 53.5156 Q127.0938 54.1719 125.5469 54.1719 Q124.8594 54.1719 124.2109 54.0234 Q123.5625 53.875 122.9219 53.5781 L122.9219 51.875 L123.5781 51.875 Q123.625 52.7188 124.1406 53.1562 Q124.6562 53.5938 125.5781 53.5938 Q126.4688 53.5938 126.9922 53.0703 Q127.5156 52.5469 127.5156 51.6562 Q127.5156 50.625 126.9766 50.0938 Q126.4375 49.5625 125.4062 49.5625 L124.8594 49.5625 L124.8594 48.9531 L125.1406 48.9531 Q126.1719 48.9531 126.6875 48.5312 Q127.2031 48.1094 127.2031 47.25 Q127.2031 46.4844 126.7812 46.0781 Q126.3594 45.6719 125.5625 45.6719 Q124.7656 45.6719 124.3359 46.0469 Q123.9062 46.4219 123.8281 47.1562 L123.1719 47.1562 L123.1719 45.625 Z" style="fill:black; stroke:none;" /><rect height="13" style="stroke:none;" width="7" x="108" y="42" /><path d="M109.8281 54.25 Q110.2969 54.5938 111.1719 54.5938 Q112.0625 54.5938 112.5781 54.0703 Q113.0938 53.5469 113.0938 52.6562 Q113.0938 51.4219 112.5625 50.8906 Q112.0156 50.3594 111 50.3594 L110.4375 50.3594 L110.4375 49.7188 L110.7344 49.7188 Q111.4844 49.7188 112 49.2969 Q112.4219 48.9531 112.4219 48.0156 Q112.4219 47.6094 112.1406 47.1406 Q111.6875 46.375 111.1562 46.3906 Q109.8281 46.4375 109.8281 48.7812 L109.8281 54.25 ZM108.75 57.5 L108.75 48.7812 Q108.75 46.3281 110.0781 46 Q110.7656 45.8125 111.25 45.8125 Q112.3438 45.8125 113.0469 46.6719 Q113.6094 47.3594 113.6094 47.9375 Q113.6094 48.7812 113.2031 49.2656 Q112.7969 49.75 112.0625 49.9844 Q113.1406 50.1406 113.75 50.7812 Q114.3281 51.4062 114.3281 52.6328 Q114.3281 53.8594 113.5078 54.5156 Q112.6875 55.1719 111.1406 55.1719 Q110.1875 55.1719 109.8281 55.0312 L109.8281 57.5 L108.75 57.5 Z" style="fill:black; stroke:none;" /></g><g ID="li-1:1,2" style="fill:white; text-rendering:optimizeSpeed; font-family:'Serif'; stroke:white;"><rect height="10" style="stroke:none;" width="7" x="174" y="44" /><path d="M175.1719 45.625 Q175.8594 45.3594 176.4844 45.2266 Q177.1094 45.0938 177.6562 45.0938 Q178.9531 45.0938 179.6719 45.6484 Q180.3906 46.2031 180.3906 47.1875 Q180.3906 47.9688 179.8906 48.5 Q179.3906 49.0312 178.4844 49.2188 Q179.5625 49.375 180.1562 50.0078 Q180.75 50.6406 180.75 51.6406 Q180.75 52.8594 179.9219 53.5156 Q179.0938 54.1719 177.5469 54.1719 Q176.8594 54.1719 176.2109 54.0234 Q175.5625 53.875 174.9219 53.5781 L174.9219 51.875 L175.5781 51.875 Q175.625 52.7188 176.1406 53.1562 Q176.6562 53.5938 177.5781 53.5938 Q178.4688 53.5938 178.9922 53.0703 Q179.5156 52.5469 179.5156 51.6562 Q179.5156 50.625 178.9766 50.0938 Q178.4375 49.5625 177.4062 49.5625 L176.8594 49.5625 L176.8594 48.9531 L177.1406 48.9531 Q178.1719 48.9531 178.6875 48.5312 Q179.2031 48.1094 179.2031 47.25 Q179.2031 46.4844 178.7812 46.0781 Q178.3594 45.6719 177.5625 45.6719 Q176.7656 45.6719 176.3359 46.0469 Q175.9062 46.4219 175.8281 47.1562 L175.1719 47.1562 L175.1719 45.625 Z" style="fill:black; stroke:none;" /><rect height="13" style="stroke:none;" width="7" x="160" y="42" /><path d="M161.8281 54.25 Q162.2969 54.5938 163.1719 54.5938 Q164.0625 54.5938 164.5781 54.0703 Q165.0938 53.5469 165.0938 52.6562 Q165.0938 51.4219 164.5625 50.8906 Q164.0156 50.3594 163 50.3594 L162.4375 50.3594 L162.4375 49.7188 L162.7344 49.7188 Q163.4844 49.7188 164 49.2969 Q164.4219 48.9531 164.4219 48.0156 Q164.4219 47.6094 164.1406 47.1406 Q163.6875 46.375 163.1562 46.3906 Q161.8281 46.4375 161.8281 48.7812 L161.8281 54.25 ZM160.75 57.5 L160.75 48.7812 Q160.75 46.3281 162.0781 46 Q162.7656 45.8125 163.25 45.8125 Q164.3438 45.8125 165.0469 46.6719 Q165.6094 47.3594 165.6094 47.9375 Q165.6094 48.7812 165.2031 49.2656 Q164.7969 49.75 164.0625 49.9844 Q165.1406 50.1406 165.75 50.7812 Q166.3281 51.4062 166.3281 52.6328 Q166.3281 53.8594 165.5078 54.5156 Q164.6875 55.1719 163.1406 55.1719 Q162.1875 55.1719 161.8281 55.0312 L161.8281 57.5 L160.75 57.5 Z" style="fill:black; stroke:none;" /></g></g></svg>