<svg xmlns="http://www.w3.org/2000/svg" style="fill-opacity:1; color-rendering:auto; color-interpolation:auto; text-rendering:auto; stroke:black; stroke-linecap:square; stroke-miterlimit:10; shape-rendering:auto; stroke-opacity:1; fill:black; stroke-dasharray:none; font-weight:normal; stroke-width:1; font-family:'Dialog'; font-style:normal; stroke-linejoin:miter; font-size:12px; stroke-dashoffset:0; image-rendering:auto;"><defs id="genericDefs" /><g><defs id="defs1"><clipPath clipPathUnits="userSpaceOnUse" id="clipPath1"><path d="M342 56 L364 56 L364 78 L342 78 L342 56 Z" /></clipPath><clipPath clipPathUnits="userSpaceOnUse" id="clipPath2"><path d="M312 93 C312 99.0751 307.0751 104 301 104 C294.9249 104 290 99.0751 290 93 C290 86.9249 294.9249 82 301 82 C307.0751 82 312 86.9249 312 93 Z" /></clipPath><clipPath clipPathUnits="userSpaceOnUse" id="clipPath3"><path d="M301 134 L312 156 L290 156 Z" style="fill-rule:evenodd;" /></clipPath><clipPath clipPathUnits="userSpaceOnUse" id="clipPath4"><path d="M290 30 L312 30 L312 52 L290 52 L290 30 Z" /></clipPath><clipPath clipPathUnits="userSpaceOnUse" id="clipPath5"><path d="M260 41 C260 47.0751 255.0751 52 249 52 C242.9249 52 238 47.0751 238 41 C238 34.9249 242.9249 30 249 30 C255.0751 30 260 34.9249 260 41 Z" /></clipPath><clipPath clipPathUnits="userSpaceOnUse" id="clipPath6"><path d="M186 30 L208 30 L208 52 L186 52 L186 30 Z" /></clipPath><clipPath clipPathUnits="userSpaceOnUse" id="clipPath7"><path d="M156 41 C156 47.0751 151.0751 52 145 52 C138.9249 52 134 47.0751 134 41 C134 34.9249 138.9249 30 145 30 C151.0751 30 156 34.9249 156 41 Z" /></clipPath><clipPath clipPathUnits="userSpaceOnUse" id="clipPath8"><path d="M82 30 L104 30 L104 52 L82 52 L82 30 Z" /></clipPath><clipPath clipPathUnits="userSpaceOnUse" id="clipPath9"><path d="M52 41 C52 47.0751 47.0751 52 41 52 C34.9249 52 30 47.0751 30 41 C30 34.9249 34.9249 30 41 30 C47.0751 30 52 34.9249 52 41 Z" /></clipPath><clipPath clipPathUnits="userSpaceOnUse" id="clipPath10"><path d="M41 82 L52 104 L30 104 Z" style="fill-rule:evenodd;" /></clipPath></defs><g style="fill:white; text-rendering:optimizeSpeed; stroke:white;"><rect height="186" style="stroke:none;" width="394" x="0" y="0" /></g><g ID="l-1:1,2" style="text-rendering:optimizeSpeed;"><polygon points=" 353 67 301 93" style="fill:none;" /></g><g ID="l-1:1,3" style="text-rendering:optimizeSpeed;"><polygon points=" 353 67 301 41" style="fill:none;" /></g><g ID="r-1:1" style="fill:white; text-rendering:optimizeSpeed; stroke:white;" wurcs_mono_id="1"><rect height="22" style="clip-path:url(#clipPath1); stroke:none;" width="22" x="342" y="56" /><rect height="22" style="clip-path:url(#clipPath1); fill:rgb(255,212,0); stroke:none;" width="22" x="342" y="56" /><rect height="22" style="clip-path:url(#clipPath1); fill:none; stroke:black;" width="22" x="342" y="56" /><rect height="22" style="fill:none; stroke:black;" width="22" x="342" y="56" /></g><g style="font-style:italic; text-rendering:optimizeSpeed; font-size:10px; font-family:'SansSerif';"><path d="M354.0938 64.1562 Q353.375 64.1562 352.8359 64.7188 Q352.2969 65.2812 352.0781 66.2656 Q351.875 67.25 352.1719 67.8125 Q352.4688 68.375 353.2031 68.375 Q353.9219 68.375 354.4609 67.8125 Q355 67.25 355.2031 66.2656 Q355.4062 65.2969 355.1094 64.7266 Q354.8125 64.1562 354.0938 64.1562 ZM354.25 63.4062 Q355.4219 63.4062 355.9297 64.1641 Q356.4375 64.9219 356.1562 66.2656 Q355.875 67.6094 355.0391 68.375 Q354.2031 69.1406 353.0312 69.1406 Q351.8594 69.1406 351.3516 68.375 Q350.8438 67.6094 351.125 66.2656 Q351.4062 64.9219 352.2422 64.1641 Q353.0781 63.4062 354.25 63.4062 Z" style="stroke:none;" /></g><g ID="l-1:2,4" style="text-rendering:optimizeSpeed;"><polygon points=" 301 93 301 145" style="fill:none;" /></g><g ID="r-1:2" style="fill:white; text-rendering:optimizeSpeed; stroke:white;" wurcs_mono_id="2"><circle cx="301" cy="93" r="11" style="clip-path:url(#clipPath2); stroke:none;" /><rect height="22" style="clip-path:url(#clipPath2); fill:rgb(255,212,0); stroke:none;" width="22" x="290" y="82" /><rect height="22" style="clip-path:url(#clipPath2); fill:none; stroke:black;" width="22" x="290" y="82" /><circle cx="301" cy="93" r="11" style="fill:none; stroke:black;" /></g><g ID="r-1:4" style="fill:white; text-rendering:optimizeSpeed; stroke:white;" wurcs_mono_id="3"><polygon points=" 301 134 312 156 290 156" style="stroke:none; clip-path:url(#clipPath3);" /><rect height="22" style="clip-path:url(#clipPath3); fill:rgb(237,28,36); stroke:none;" width="22" x="290" y="134" /><rect height="22" style="clip-path:url(#clipPath3); fill:none; stroke:black;" width="22" x="290" y="134" /><polygon points=" 301 134 312 156 290 156" style="fill:none; stroke:black;" /></g><g ID="li-1:2,4" style="fill:white; text-rendering:optimizeSpeed; font-family:'Serif'; stroke:white;"><rect height="9" style="stroke:none;" width="7" x="305" y="107" /><path d="M306.5312 109.3438 L305.875 109.3438 L305.875 107.7812 Q306.5 107.4375 307.1406 107.2656 Q307.7812 107.0938 308.3906 107.0938 Q309.75 107.0938 310.5391 107.7578 Q311.3281 108.4219 311.3281 109.5469 Q311.3281 110.8438 309.5469 112.625 Q309.4062 112.7656 309.3281 112.8281 L307.125 115.0312 L310.7656 115.0312 L310.7656 113.9531 L311.4531 113.9531 L311.4531 116 L305.8125 116 L305.8125 115.3594 L308.4688 112.7188 Q309.3438 111.8281 309.7188 111.0938 Q310.0938 110.3594 310.0938 109.5469 Q310.0938 108.6719 309.6328 108.1719 Q309.1719 107.6719 308.375 107.6719 Q307.5312 107.6719 307.0781 108.0859 Q306.625 108.5 306.5312 109.3438 Z" style="fill:black; stroke:none;" /><rect height="8" style="stroke:none;" width="8" x="305" y="122" /><path d="M310.1875 128.4688 L309.9531 129.1094 Q309.7656 129.625 309.2031 129.9375 Q308.8438 130.1562 308.2031 130.1406 Q307.0469 130.1406 306.3281 129.2344 Q305.5938 128.3281 305.5938 126.8594 Q305.5938 125.4219 306.3281 124.4844 Q307.0156 123.5938 308.4531 123.6094 Q309.4531 123.6094 309.9531 124 Q310.4062 124.3438 310.5781 125.0938 L310.625 125.3125 L310.8438 124.6719 Q311.0625 124.0469 311.6562 123.75 L312.25 123.75 L312.25 124.0938 Q311.6875 124.2656 311.5 124.8125 L310.8906 126.4844 L311.2969 128.2812 Q311.5 129.2031 311.7344 129.2969 Q312.0469 129.4375 312.7812 129 L312.7812 129.7188 Q311.5938 130.4062 310.75 129.6875 Q310.375 129.3594 310.2656 128.875 L310.1875 128.4688 ZM309.9219 127.3125 L309.5625 125.5938 Q309.2656 124.2188 308.4688 124.2188 Q307.7969 124.2031 307.2812 124.9375 Q306.8594 125.5156 306.8594 126.875 Q306.8594 128.1719 307.2812 128.8281 Q307.75 129.5469 308.5312 129.5 Q309.2031 129.4375 309.6875 128 L309.9219 127.3125 Z" style="fill:black; stroke:none;" /></g><g ID="l-1:3,5" style="text-rendering:optimizeSpeed;"><polygon points=" 301 41 249 41" style="fill:none;" /></g><g ID="r-1:3" style="fill:white; text-rendering:optimizeSpeed; stroke:white;" wurcs_mono_id="4"><rect height="22" style="clip-path:url(#clipPath4); stroke:none;" width="22" x="290" y="30" /><rect height="22" style="clip-path:url(#clipPath4); fill:rgb(0,144,188); stroke:none;" width="22" x="290" y="30" /><rect height="22" style="clip-path:url(#clipPath4); fill:none; stroke:black;" width="22" x="290" y="30" /><rect height="22" style="fill:none; stroke:black;" width="22" x="290" y="30" /></g><g ID="l-1:5,6" style="text-rendering:optimizeSpeed;"><polygon points=" 249 41 197 41" style="fill:none;" /></g><g ID="r-1:5" style="fill:white; text-rendering:optimizeSpeed; stroke:white;" wurcs_mono_id="5"><circle cx="249" cy="41" r="11" style="clip-path:url(#clipPath5); stroke:none;" /><rect height="22" style="clip-path:url(#clipPath5); fill:rgb(255,212,0); stroke:none;" width="22" x="238" y="30" /><rect height="22" style="clip-path:url(#clipPath5); fill:none; stroke:black;" width="22" x="238" y="30" /><circle cx="249" cy="41" r="11" style="fill:none; stroke:black;" /></g><g ID="l-1:6,7" style="text-rendering:optimizeSpeed;"><polygon points=" 197 41 145 41" style="fill:none;" /></g><g ID="r-1:6" style="fill:white; text-rendering:optimizeSpeed; stroke:white;" wurcs_mono_id="6"><rect height="22" style="clip-path:url(#clipPath6); stroke:none;" width="22" x="186" y="30" /><rect height="22" style="clip-path:url(#clipPath6); fill:rgb(0,144,188); stroke:none;" width="22" x="186" y="30" /><rect height="22" style="clip-path:url(#clipPath6); fill:none; stroke:black;" width="22" x="186" y="30" /><rect height="22" style="fill:none; stroke:black;" width="22" x="186" y="30" /></g><g ID="l-1:7,8" style="text-rendering:optimizeSpeed;"><polygon points=" 145 41 93 41" style="fill:none;" /></g><g ID="r-1:7" style="fill:white; text-rendering:optimizeSpeed; stroke:white;" wurcs_mono_id="7"><circle cx="145" cy="41" r="11" style="clip-path:url(#clipPath7); stroke:none;" /><rect height="22" style="clip-path:url(#clipPath7); fill:rgb(255,212,0); stroke:none;" width="22" x="134" y="30" /><rect height="22" style="clip-path:url(#clipPath7); fill:none; stroke:black;" width="22" x="134" y="30" /><circle cx="145" cy="41" r="11" style="fill:none; stroke:black;" /></g><g ID="l-1:8,9" style="text-rendering:optimizeSpeed;"><polygon points=" 93 41 41 41" style="fill:none;" /></g><g ID="r-1:8" style="fill:white; text-rendering:optimizeSpeed; stroke:white;" wurcs_mono_id="8"><rect height="22" style="clip-path:url(#clipPath8); stroke:none;" width="22" x="82" y="30" /><rect height="22" style="clip-path:url(#clipPath8); fill:rgb(0,144,188); stroke:none;" width="22" x="82" y="30" /><rect height="22" style="clip-path:url(#clipPath8); fill:none; stroke:black;" width="22" x="82" y="30" /><rect height="22" style="fill:none; stroke:black;" width="22" x="82" y="30" /></g><g ID="l-1:9,10" style="text-rendering:optimizeSpeed;"><polygon points=" 41 41 41 93" style="fill:none;" /></g><g ID="r-1:9" style="fill:white; text-rendering:optimizeSpeed; stroke:white;" wurcs_mono_id="9"><circle cx="41" cy="41" r="11" style="clip-path:url(#clipPath9); stroke:none;" /><rect height="22" style="clip-path:url(#clipPath9); fill:rgb(255,212,0); stroke:none;" width="22" x="30" y="30" /><rect height="22" style="clip-path:url(#clipPath9); fill:none; stroke:black;" width="22" x="30" y="30" /><circle cx="41" cy="41" r="11" style="fill:none; stroke:black;" /></g><g ID="r-1:10" style="fill:white; text-rendering:optimizeSpeed; stroke:white;" wurcs_mono_id="10"><polygon points=" 41 82 52 104 30 104" style="stroke:none; clip-path:url(#clipPath10);" /><rect height="22" style="clip-path:url(#clipPath10); fill:rgb(237,28,36); stroke:none;" width="22" x="30" y="82" /><rect height="22" style="clip-path:url(#clipPath10); fill:none; stroke:black;" width="22" x="30" y="82" /><polygon points=" 41 82 52 104 30 104" style="fill:none; stroke:black;" /></g><g ID="li-1:9,10" style="fill:white; text-rendering:optimizeSpeed; font-family:'Serif'; stroke:white;"><rect height="9" style="stroke:none;" width="7" x="45" y="55" /><path d="M46.5312 57.3438 L45.875 57.3438 L45.875 55.7812 Q46.5 55.4375 47.1406 55.2656 Q47.7812 55.0938 48.3906 55.0938 Q49.75 55.0938 50.5391 55.7578 Q51.3281 56.4219 51.3281 57.5469 Q51.3281 58.8438 49.5469 60.625 Q49.4062 60.7656 49.3281 60.8281 L47.125 63.0312 L50.7656 63.0312 L50.7656 61.9531 L51.4531 61.9531 L51.4531 64 L45.8125 64 L45.8125 63.3594 L48.4688 60.7188 Q49.3438 59.8281 49.7188 59.0938 Q50.0938 58.3594 50.0938 57.5469 Q50.0938 56.6719 49.6328 56.1719 Q49.1719 55.6719 48.375 55.6719 Q47.5312 55.6719 47.0781 56.0859 Q46.625 56.5 46.5312 57.3438 Z" style="fill:black; stroke:none;" /><rect height="8" style="stroke:none;" width="8" x="45" y="70" /><path d="M50.1875 76.4688 L49.9531 77.1094 Q49.7656 77.625 49.2031 77.9375 Q48.8438 78.1562 48.2031 78.1406 Q47.0469 78.1406 46.3281 77.2344 Q45.5938 76.3281 45.5938 74.8594 Q45.5938 73.4219 46.3281 72.4844 Q47.0156 71.5938 48.4531 71.6094 Q49.4531 71.6094 49.9531 72 Q50.4062 72.3438 50.5781 73.0938 L50.625 73.3125 L50.8438 72.6719 Q51.0625 72.0469 51.6562 71.75 L52.25 71.75 L52.25 72.0938 Q51.6875 72.2656 51.5 72.8125 L50.8906 74.4844 L51.2969 76.2812 Q51.5 77.2031 51.7344 77.2969 Q52.0469 77.4375 52.7812 77 L52.7812 77.7188 Q51.5938 78.4062 50.75 77.6875 Q50.375 77.3594 50.2656 76.875 L50.1875 76.4688 ZM49.9219 75.3125 L49.5625 73.5938 Q49.2656 72.2188 48.4688 72.2188 Q47.7969 72.2031 47.2812 72.9375 Q46.8594 73.5156 46.8594 74.875 Q46.8594 76.1719 47.2812 76.8281 Q47.75 77.5469 48.5312 77.5 Q49.2031 77.4375 49.6875 76 L49.9219 75.3125 Z" style="fill:black; stroke:none;" /></g><g ID="li-1:8,9" style="fill:white; text-rendering:optimizeSpeed; font-family:'Serif'; stroke:white;"><rect height="9" style="stroke:none;" width="8" x="70" y="44" /><path d="M74.1875 50.0312 L74.1875 45.375 L71.2031 50.0312 L74.1875 50.0312 ZM76.7656 53 L72.7812 53 L72.7812 52.375 L74.1875 52.375 L74.1875 50.6562 L70.375 50.6562 L70.375 50.0156 L74.2031 44.0938 L75.3594 44.0938 L75.3594 50.0312 L77.0312 50.0312 L77.0312 50.6562 L75.3594 50.6562 L75.3594 52.375 L76.7656 52.375 L76.7656 53 Z" style="fill:black; stroke:none;" /><rect height="13" style="stroke:none;" width="7" x="56" y="42" /><path d="M57.8281 54.25 Q58.2969 54.5938 59.1719 54.5938 Q60.0625 54.5938 60.5781 54.0703 Q61.0938 53.5469 61.0938 52.6562 Q61.0938 51.4219 60.5625 50.8906 Q60.0156 50.3594 59 50.3594 L58.4375 50.3594 L58.4375 49.7188 L58.7344 49.7188 Q59.4844 49.7188 60 49.2969 Q60.4219 48.9531 60.4219 48.0156 Q60.4219 47.6094 60.1406 47.1406 Q59.6875 46.375 59.1562 46.3906 Q57.8281 46.4375 57.8281 48.7812 L57.8281 54.25 ZM56.75 57.5 L56.75 48.7812 Q56.75 46.3281 58.0781 46 Q58.7656 45.8125 59.25 45.8125 Q60.3438 45.8125 61.0469 46.6719 Q61.6094 47.3594 61.6094 47.9375 Q61.6094 48.7812 61.2031 49.2656 Q60.7969 49.75 60.0625 49.9844 Q61.1406 50.1406 61.75 50.7812 Q62.3281 51.4062 62.3281 52.6328 Q62.3281 53.8594 61.5078 54.5156 Q60.6875 55.1719 59.1406 55.1719 Q58.1875 55.1719 57.8281 55.0312 L57.8281 57.5 L56.75 57.5 Z" style="fill:black; stroke:none;" /></g><g ID="li-1:7,8" style="fill:white; text-rendering:optimizeSpeed; font-family:'Serif'; stroke:white;"><rect height="10" style="stroke:none;" width="7" x="122" y="44" /><path d="M123.1719 45.625 Q123.8594 45.3594 124.4844 45.2266 Q125.1094 45.0938 125.6562 45.0938 Q126.9531 45.0938 127.6719 45.6484 Q128.3906 46.2031 128.3906 47.1875 Q128.3906 47.9688 127.8906 48.5 Q127.3906 49.0312 126.4844 49.2188 Q127.5625 49.375 128.1562 50.0078 Q128.75 50.6406 128.75 51.6406 Q128.75 52.8594 127.9219 53.5156 Q127.0938 54.1719 125.5469 54.1719 Q124.8594 54.1719 124.2109 54.0234 Q123.5625 53.875 122.9219 53.5781 L122.9219 51.875 L123.5781 51.875 Q123.625 52.7188 124.1406 53.1562 Q124.6562 53.5938 125.5781 53.5938 Q126.4688 53.5938 126.9922 53.0703 Q127.5156 52.5469 127.5156 51.6562 Q127.5156 50.625 126.9766 50.0938 Q126.4375 49.5625 125.4062 49.5625 L124.8594 49.5625 L124.8594 48.9531 L125.1406 48.9531 Q126.1719 48.9531 126.6875 48.5312 Q127.2031 48.1094 127.2031 47.25 Q127.2031 46.4844 126.7812 46.0781 Q126.3594 45.6719 125.5625 45.6719 Q124.7656 45.6719 124.3359 46.0469 Q123.9062 46.4219 123.8281 47.1562 L123.1719 47.1562 L123.1719 45.625 Z" style="fill:black; stroke:none;" /><rect height="13" style="stroke:none;" width="7" x="108" y="42" /><path d="M109.8281 54.25 Q110.2969 54.5938 111.1719 54.5938 Q112.0625 54.5938 112.5781 54.0703 Q113.0938 53.5469 113.0938 52.6562 Q113.0938 51.4219 112.5625 50.8906 Q112.0156 50.3594 111 50.3594 L110.4375 50.3594 L110.4375 49.7188 L110.7344 49.7188 Q111.4844 49.7188 112 49.2969 Q112.4219 48.9531 112.4219 48.0156 Q112.4219 47.6094 112.1406 47.1406 Q111.6875 46.375 111.1562 46.3906 Q109.8281 46.4375 109.8281 48.7812 L109.8281 54.25 ZM108.75 57.5 L108.75 48.7812 Q108.75 46.3281 110.0781 46 Q110.7656 45.8125 111.25 45.8125 Q112.3438 45.8125 113.0469 46.6719 Q113.6094 47.3594 113.6094 47.9375 Q113.6094 48.7812 113.2031 49.2656 Q112.7969 49.75 112.0625 49.9844 Q113.1406 50.1406 113.75 50.7812 Q114.3281 51.4062 114.3281 52.6328 Q114.3281 53.8594 113.5078 54.5156 Q112.6875 55.1719 111.1406 55.1719 Q110.1875 55.1719 109.8281 55.0312 L109.8281 57.5 L108.75 57.5 Z" style="fill:black; stroke:none;" /></g><g ID="li-1:6,7" style="fill:white; text-rendering:optimizeSpeed; font-family:'Serif'; stroke:white;"><rect height="9" style="stroke:none;" width="8" x="174" y="44" /><path d="M178.1875 50.0312 L178.1875 45.375 L175.2031 50.0312 L178.1875 50.0312 ZM180.7656 53 L176.7812 53 L176.7812 52.375 L178.1875 52.375 L178.1875 50.6562 L174.375 50.6562 L174.375 50.0156 L178.2031 44.0938 L179.3594 44.0938 L179.3594 50.0312 L181.0312 50.0312 L181.0312 50.6562 L179.3594 50.6562 L179.3594 52.375 L180.7656 52.375 L180.7656 53 Z" style="fill:black; stroke:none;" /><rect height="13" style="stroke:none;" width="7" x="160" y="42" /><path d="M161.8281 54.25 Q162.2969 54.5938 163.1719 54.5938 Q164.0625 54.5938 164.5781 54.0703 Q165.0938 53.5469 165.0938 52.6562 Q165.0938 51.4219 164.5625 50.8906 Q164.0156 50.3594 163 50.3594 L162.4375 50.3594 L162.4375 49.7188 L162.7344 49.7188 Q163.4844 49.7188 164 49.2969 Q164.4219 48.9531 164.4219 48.0156 Q164.4219 47.6094 164.1406 47.1406 Q163.6875 46.375 163.1562 46.3906 Q161.8281 46.4375 161.8281 48.7812 L161.8281 54.25 ZM160.75 57.5 L160.75 48.7812 Q160.75 46.3281 162.0781 46 Q162.7656 45.8125 163.25 45.8125 Q164.3438 45.8125 165.0469 46.6719 Q165.6094 47.3594 165.6094 47.9375 Q165.6094 48.7812 165.2031 49.2656 Q164.7969 49.75 164.0625 49.9844 Q165.1406 50.1406 165.75 50.7812 Q166.3281 51.4062 166.3281 52.6328 Q166.3281 53.8594 165.5078 54.5156 Q164.6875 55.1719 163.1406 55.1719 Q162.1875 55.1719 161.8281 55.0312 L161.8281 57.5 L160.75 57.5 Z" style="fill:black; stroke:none;" /></g><g ID="li-1:5,6" style="fill:white; text-rendering:optimizeSpeed; font-family:'Serif'; stroke:white;"><rect height="10" style="stroke:none;" width="7" x="226" y="44" /><path d="M227.1719 45.625 Q227.8594 45.3594 228.4844 45.2266 Q229.1094 45.0938 229.6562 45.0938 Q230.9531 45.0938 231.6719 45.6484 Q232.3906 46.2031 232.3906 47.1875 Q232.3906 47.9688 231.8906 48.5 Q231.3906 49.0312 230.4844 49.2188 Q231.5625 49.375 232.1562 50.0078 Q232.75 50.6406 232.75 51.6406 Q232.75 52.8594 231.9219 53.5156 Q231.0938 54.1719 229.5469 54.1719 Q228.8594 54.1719 228.2109 54.0234 Q227.5625 53.875 226.9219 53.5781 L226.9219 51.875 L227.5781 51.875 Q227.625 52.7188 228.1406 53.1562 Q228.6562 53.5938 229.5781 53.5938 Q230.4688 53.5938 230.9922 53.0703 Q231.5156 52.5469 231.5156 51.6562 Q231.5156 50.625 230.9766 50.0938 Q230.4375 49.5625 229.4062 49.5625 L228.8594 49.5625 L228.8594 48.9531 L229.1406 48.9531 Q230.1719 48.9531 230.6875 48.5312 Q231.2031 48.1094 231.2031 47.25 Q231.2031 46.4844 230.7812 46.0781 Q230.3594 45.6719 229.5625 45.6719 Q228.7656 45.6719 228.3359 46.0469 Q227.9062 46.4219 227.8281 47.1562 L227.1719 47.1562 L227.1719 45.625 Z" style="fill:black; stroke:none;" /><rect height="13" style="stroke:none;" width="7" x="212" y="42" /><path d="M213.8281 54.25 Q214.2969 54.5938 215.1719 54.5938 Q216.0625 54.5938 216.5781 54.0703 Q217.0938 53.5469 217.0938 52.6562 Q217.0938 51.4219 216.5625 50.8906 Q216.0156 50.3594 215 50.3594 L214.4375 50.3594 L214.4375 49.7188 L214.7344 49.7188 Q215.4844 49.7188 216 49.2969 Q216.4219 48.9531 216.4219 48.0156 Q216.4219 47.6094 216.1406 47.1406 Q215.6875 46.375 215.1562 46.3906 Q213.8281 46.4375 213.8281 48.7812 L213.8281 54.25 ZM212.75 57.5 L212.75 48.7812 Q212.75 46.3281 214.0781 46 Q214.7656 45.8125 215.25 45.8125 Q216.3438 45.8125 217.0469 46.6719 Q217.6094 47.3594 217.6094 47.9375 Q217.6094 48.7812 217.2031 49.2656 Q216.7969 49.75 216.0625 49.9844 Q217.1406 50.1406 217.75 50.7812 Q218.3281 51.4062 218.3281 52.6328 Q218.3281 53.8594 217.5078 54.5156 Q216.6875 55.1719 215.1406 55.1719 Q214.1875 55.1719 213.8281 55.0312 L213.8281 57.5 L212.75 57.5 Z" style="fill:black; stroke:none;" /></g><g ID="li-1:3,5" style="fill:white; text-rendering:optimizeSpeed; font-family:'Serif'; stroke:white;"><rect height="9" style="stroke:none;" width="8" x="278" y="44" /><path d="M282.1875 50.0312 L282.1875 45.375 L279.2031 50.0312 L282.1875 50.0312 ZM284.7656 53 L280.7812 53 L280.7812 52.375 L282.1875 52.375 L282.1875 50.6562 L278.375 50.6562 L278.375 50.0156 L282.2031 44.0938 L283.3594 44.0938 L283.3594 50.0312 L285.0312 50.0312 L285.0312 50.6562 L283.3594 50.6562 L283.3594 52.375 L284.7656 52.375 L284.7656 53 Z" style="fill:black; stroke:none;" /><rect height="13" style="stroke:none;" width="7" x="264" y="42" /><path d="M265.8281 54.25 Q266.2969 54.5938 267.1719 54.5938 Q268.0625 54.5938 268.5781 54.0703 Q269.0938 53.5469 269.0938 52.6562 Q269.0938 51.4219 268.5625 50.8906 Q268.0156 50.3594 267 50.3594 L266.4375 50.3594 L266.4375 49.7188 L266.7344 49.7188 Q267.4844 49.7188 268 49.2969 Q268.4219 48.9531 268.4219 48.0156 Q268.4219 47.6094 268.1406 47.1406 Q267.6875 46.375 267.1562 46.3906 Q265.8281 46.4375 265.8281 48.7812 L265.8281 54.25 ZM264.75 57.5 L264.75 48.7812 Q264.75 46.3281 266.0781 46 Q266.7656 45.8125 267.25 45.8125 Q268.3438 45.8125 269.0469 46.6719 Q269.6094 47.3594 269.6094 47.9375 Q269.6094 48.7812 269.2031 49.2656 Q268.7969 49.75 268.0625 49.9844 Q269.1406 50.1406 269.75 50.7812 Q270.3281 51.4062 270.3281 52.6328 Q270.3281 53.8594 269.5078 54.5156 Q268.6875 55.1719 267.1406 55.1719 Q266.1875 55.1719 265.8281 55.0312 L265.8281 57.5 L264.75 57.5 Z" style="fill:black; stroke:none;" /></g><g ID="li-1:1,2" style="fill:white; text-rendering:optimizeSpeed; font-family:'Serif'; stroke:white;"><rect height="10" style="stroke:none;" width="7" x="334" y="78" /><path d="M335.1719 79.625 Q335.8594 79.3594 336.4844 79.2266 Q337.1094 79.0938 337.6562 79.0938 Q338.9531 79.0938 339.6719 79.6484 Q340.3906 80.2031 340.3906 81.1875 Q340.3906 81.9688 339.8906 82.5 Q339.3906 83.0312 338.4844 83.2188 Q339.5625 83.375 340.1562 84.0078 Q340.75 84.6406 340.75 85.6406 Q340.75 86.8594 339.9219 87.5156 Q339.0938 88.1719 337.5469 88.1719 Q336.8594 88.1719 336.2109 88.0234 Q335.5625 87.875 334.9219 87.5781 L334.9219 85.875 L335.5781 85.875 Q335.625 86.7188 336.1406 87.1562 Q336.6562 87.5938 337.5781 87.5938 Q338.4688 87.5938 338.9922 87.0703 Q339.5156 86.5469 339.5156 85.6562 Q339.5156 84.625 338.9766 84.0938 Q338.4375 83.5625 337.4062 83.5625 L336.8594 83.5625 L336.8594 82.9531 L337.1406 82.9531 Q338.1719 82.9531 338.6875 82.5312 Q339.2031 82.1094 339.2031 81.25 Q339.2031 80.4844 338.7812 80.0781 Q338.3594 79.6719 337.5625 79.6719 Q336.7656 79.6719 336.3359 80.0469 Q335.9062 80.4219 335.8281 81.1562 L335.1719 81.1562 L335.1719 79.625 Z" style="fill:black; stroke:none;" /><rect height="13" style="stroke:none;" width="7" x="319" y="84" /><path d="M320.8281 96.25 Q321.2969 96.5938 322.1719 96.5938 Q323.0625 96.5938 323.5781 96.0703 Q324.0938 95.5469 324.0938 94.6562 Q324.0938 93.4219 323.5625 92.8906 Q323.0156 92.3594 322 92.3594 L321.4375 92.3594 L321.4375 91.7188 L321.7344 91.7188 Q322.4844 91.7188 323 91.2969 Q323.4219 90.9531 323.4219 90.0156 Q323.4219 89.6094 323.1406 89.1406 Q322.6875 88.375 322.1562 88.3906 Q320.8281 88.4375 320.8281 90.7812 L320.8281 96.25 ZM319.75 99.5 L319.75 90.7812 Q319.75 88.3281 321.0781 88 Q321.7656 87.8125 322.25 87.8125 Q323.3438 87.8125 324.0469 88.6719 Q324.6094 89.3594 324.6094 89.9375 Q324.6094 90.7812 324.2031 91.2656 Q323.7969 91.75 323.0625 91.9844 Q324.1406 92.1406 324.75 92.7812 Q325.3281 93.4062 325.3281 94.6328 Q325.3281 95.8594 324.5078 96.5156 Q323.6875 97.1719 322.1406 97.1719 Q321.1875 97.1719 320.8281 97.0312 L320.8281 99.5 L319.75 99.5 Z" style="fill:black; stroke:none;" /></g><g ID="li-1:1,3" style="fill:white; text-rendering:optimizeSpeed; font-family:'Serif'; stroke:white;"><rect height="10" style="stroke:none;" width="7" x="327" y="60" /><path d="M330.9219 69.5938 Q331.75 69.5938 332.1953 68.9844 Q332.6406 68.375 332.6406 67.2344 Q332.6406 66.1094 332.1953 65.5 Q331.75 64.8906 330.9219 64.8906 Q330.0938 64.8906 329.6484 65.4766 Q329.2031 66.0625 329.2031 67.1719 Q329.2031 68.3281 329.6484 68.9609 Q330.0938 69.5938 330.9219 69.5938 ZM329.0156 65.1875 Q329.4219 64.75 329.9219 64.5312 Q330.4219 64.3125 331.0625 64.3125 Q332.3594 64.3125 333.1172 65.0938 Q333.875 65.875 333.875 67.2344 Q333.875 68.5625 333.0625 69.3672 Q332.25 70.1719 330.875 70.1719 Q329.3906 70.1719 328.5938 69.0625 Q327.7969 67.9531 327.7969 65.9062 Q327.7969 63.6094 328.7422 62.3516 Q329.6875 61.0938 331.4062 61.0938 Q331.875 61.0938 332.3828 61.1797 Q332.8906 61.2656 333.4219 61.4375 L333.4219 62.8906 L332.7656 62.8906 Q332.6875 62.2969 332.3047 61.9844 Q331.9219 61.6719 331.2812 61.6719 Q330.1406 61.6719 329.5859 62.5312 Q329.0312 63.3906 329.0156 65.1875 Z" style="fill:black; stroke:none;" /><rect height="13" style="stroke:none;" width="7" x="312" y="50" /><path d="M313.8281 62.25 Q314.2969 62.5938 315.1719 62.5938 Q316.0625 62.5938 316.5781 62.0703 Q317.0938 61.5469 317.0938 60.6562 Q317.0938 59.4219 316.5625 58.8906 Q316.0156 58.3594 315 58.3594 L314.4375 58.3594 L314.4375 57.7188 L314.7344 57.7188 Q315.4844 57.7188 316 57.2969 Q316.4219 56.9531 316.4219 56.0156 Q316.4219 55.6094 316.1406 55.1406 Q315.6875 54.375 315.1562 54.3906 Q313.8281 54.4375 313.8281 56.7812 L313.8281 62.25 ZM312.75 65.5 L312.75 56.7812 Q312.75 54.3281 314.0781 54 Q314.7656 53.8125 315.25 53.8125 Q316.3438 53.8125 317.0469 54.6719 Q317.6094 55.3594 317.6094 55.9375 Q317.6094 56.7812 317.2031 57.2656 Q316.7969 57.75 316.0625 57.9844 Q317.1406 58.1406 317.75 58.7812 Q318.3281 59.4062 318.3281 60.6328 Q318.3281 61.8594 317.5078 62.5156 Q316.6875 63.1719 315.1406 63.1719 Q314.1875 63.1719 313.8281 63.0312 L313.8281 65.5 L312.75 65.5 Z" style="fill:black; stroke:none;" /></g></g></svg>