<svg xmlns="http://www.w3.org/2000/svg" style="fill-opacity:1; color-rendering:auto; color-interpolation:auto; text-rendering:auto; stroke:black; stroke-linecap:square; stroke-miterlimit:10; shape-rendering:auto; stroke-opacity:1; fill:black; stroke-dasharray:none; font-weight:normal; stroke-width:1; font-family:'Dialog'; font-style:normal; stroke-linejoin:miter; font-size:12px; stroke-dashoffset:0; image-rendering:auto;"><defs id="genericDefs" /><g><defs id="defs1"><clipPath clipPathUnits="userSpaceOnUse" id="clipPath1"><path d="M290 88 L312 88 L312 110 L290 110 L290 88 Z" /></clipPath><clipPath clipPathUnits="userSpaceOnUse" id="clipPath2"><path d="M238 88 L260 88 L260 110 L238 110 L238 88 Z" /></clipPath><clipPath clipPathUnits="userSpaceOnUse" id="clipPath3"><path d="M208 99 C208 105.0751 203.0751 110 197 110 C190.9249 110 186 105.0751 186 99 C186 92.9249 190.9249 88 197 88 C203.0751 88 208 92.9249 208 99 Z" /></clipPath><clipPath clipPathUnits="userSpaceOnUse" id="clipPath4"><path d="M156 158 C156 164.0751 151.0751 169 145 169 C138.9249 169 134 164.0751 134 158 C134 151.9249 138.9249 147 145 147 C151.0751 147 156 151.9249 156 158 Z" /></clipPath><clipPath clipPathUnits="userSpaceOnUse" id="clipPath5"><path d="M82 186 L104 186 L104 208 L82 208 L82 186 Z" /></clipPath><clipPath clipPathUnits="userSpaceOnUse" id="clipPath6"><path d="M52 197 C52 203.0751 47.0751 208 41 208 C34.9249 208 30 203.0751 30 197 C30 190.9249 34.9249 186 41 186 C47.0751 186 52 190.9249 52 197 Z" /></clipPath><clipPath clipPathUnits="userSpaceOnUse" id="clipPath7"><path d="M82 108 L104 108 L104 130 L82 130 L82 108 Z" /></clipPath><clipPath clipPathUnits="userSpaceOnUse" id="clipPath8"><path d="M52 145 C52 151.0751 47.0751 156 41 156 C34.9249 156 30 151.0751 30 145 C30 138.9249 34.9249 134 41 134 C47.0751 134 52 138.9249 52 145 Z" /></clipPath><clipPath clipPathUnits="userSpaceOnUse" id="clipPath9"><path d="M41 82 L52 93 L41 104 L30 93 Z" style="fill-rule:evenodd;" /></clipPath><clipPath clipPathUnits="userSpaceOnUse" id="clipPath10"><path d="M156 41 C156 47.0751 151.0751 52 145 52 C138.9249 52 134 47.0751 134 41 C134 34.9249 138.9249 30 145 30 C151.0751 30 156 34.9249 156 41 Z" /></clipPath><clipPath clipPathUnits="userSpaceOnUse" id="clipPath11"><path d="M82 30 L104 30 L104 52 L82 52 L82 30 Z" /></clipPath><clipPath clipPathUnits="userSpaceOnUse" id="clipPath12"><path d="M52 41 C52 47.0751 47.0751 52 41 52 C34.9249 52 30 47.0751 30 41 C30 34.9249 34.9249 30 41 30 C47.0751 30 52 34.9249 52 41 Z" /></clipPath></defs><g style="fill:white; text-rendering:optimizeSpeed; stroke:white;"><rect height="238" style="stroke:none;" width="342" x="0" y="0" /></g><g ID="l-1:1,2" style="text-rendering:optimizeSpeed;"><polygon points=" 301 99 249 99" style="fill:none;" /></g><g ID="r-1:1" style="fill:white; text-rendering:optimizeSpeed; stroke:white;" wurcs_mono_id="1"><rect height="22" style="clip-path:url(#clipPath1); stroke:none;" width="22" x="290" y="88" /><rect height="22" style="clip-path:url(#clipPath1); fill:rgb(0,144,188); stroke:none;" width="22" x="290" y="88" /><rect height="22" style="clip-path:url(#clipPath1); fill:none; stroke:black;" width="22" x="290" y="88" /><rect height="22" style="fill:none; stroke:black;" width="22" x="290" y="88" /></g><g ID="l-1:2,3" style="text-rendering:optimizeSpeed;"><polygon points=" 249 99 197 99" style="fill:none;" /></g><g ID="r-1:2" style="fill:white; text-rendering:optimizeSpeed; stroke:white;" wurcs_mono_id="2"><rect height="22" style="clip-path:url(#clipPath2); stroke:none;" width="22" x="238" y="88" /><rect height="22" style="clip-path:url(#clipPath2); fill:rgb(0,144,188); stroke:none;" width="22" x="238" y="88" /><rect height="22" style="clip-path:url(#clipPath2); fill:none; stroke:black;" width="22" x="238" y="88" /><rect height="22" style="fill:none; stroke:black;" width="22" x="238" y="88" /></g><g ID="l-1:3,4" style="text-rendering:optimizeSpeed;"><polygon points=" 197 99 145 158" style="fill:none;" /></g><g ID="l-1:3,5" style="text-rendering:optimizeSpeed;"><polygon points=" 197 99 145 41" style="fill:none;" /></g><g ID="r-1:3" style="fill:white; text-rendering:optimizeSpeed; stroke:white;" wurcs_mono_id="3"><circle cx="197" cy="99" r="11" style="clip-path:url(#clipPath3); stroke:none;" /><rect height="22" style="clip-path:url(#clipPath3); fill:rgb(0,166,81); stroke:none;" width="22" x="186" y="88" /><rect height="22" style="clip-path:url(#clipPath3); fill:none; stroke:black;" width="22" x="186" y="88" /><circle cx="197" cy="99" r="11" style="fill:none; stroke:black;" /></g><g ID="l-1:4,6" style="text-rendering:optimizeSpeed;"><polygon points=" 145 158 93 197" style="fill:none;" /></g><g ID="l-1:4,7" style="text-rendering:optimizeSpeed;"><polygon points=" 145 158 93 119" style="fill:none;" /></g><g ID="r-1:4" style="fill:white; text-rendering:optimizeSpeed; stroke:white;" wurcs_mono_id="4"><circle cx="145" cy="158" r="11" style="clip-path:url(#clipPath4); stroke:none;" /><rect height="22" style="clip-path:url(#clipPath4); fill:rgb(0,166,81); stroke:none;" width="22" x="134" y="147" /><rect height="22" style="clip-path:url(#clipPath4); fill:none; stroke:black;" width="22" x="134" y="147" /><circle cx="145" cy="158" r="11" style="fill:none; stroke:black;" /></g><g ID="l-1:6,8" style="text-rendering:optimizeSpeed;"><polygon points=" 93 197 41 197" style="fill:none;" /></g><g ID="r-1:6" style="fill:white; text-rendering:optimizeSpeed; stroke:white;" wurcs_mono_id="5"><rect height="22" style="clip-path:url(#clipPath5); stroke:none;" width="22" x="82" y="186" /><rect height="22" style="clip-path:url(#clipPath5); fill:rgb(0,144,188); stroke:none;" width="22" x="82" y="186" /><rect height="22" style="clip-path:url(#clipPath5); fill:none; stroke:black;" width="22" x="82" y="186" /><rect height="22" style="fill:none; stroke:black;" width="22" x="82" y="186" /></g><g ID="r-1:8" style="fill:white; text-rendering:optimizeSpeed; stroke:white;" wurcs_mono_id="6"><circle cx="41" cy="197" r="11" style="clip-path:url(#clipPath6); stroke:none;" /><rect height="22" style="clip-path:url(#clipPath6); fill:rgb(255,212,0); stroke:none;" width="22" x="30" y="186" /><rect height="22" style="clip-path:url(#clipPath6); fill:none; stroke:black;" width="22" x="30" y="186" /><circle cx="41" cy="197" r="11" style="fill:none; stroke:black;" /></g><g ID="li-1:6,8" style="fill:white; text-rendering:optimizeSpeed; font-family:'Serif'; stroke:white;"><rect height="9" style="stroke:none;" width="8" x="70" y="200" /><path d="M74.1875 206.0312 L74.1875 201.375 L71.2031 206.0312 L74.1875 206.0312 ZM76.7656 209 L72.7812 209 L72.7812 208.375 L74.1875 208.375 L74.1875 206.6562 L70.375 206.6562 L70.375 206.0156 L74.2031 200.0938 L75.3594 200.0938 L75.3594 206.0312 L77.0312 206.0312 L77.0312 206.6562 L75.3594 206.6562 L75.3594 208.375 L76.7656 208.375 L76.7656 209 Z" style="fill:black; stroke:none;" /><rect height="13" style="stroke:none;" width="7" x="56" y="198" /><path d="M57.8281 210.25 Q58.2969 210.5938 59.1719 210.5938 Q60.0625 210.5938 60.5781 210.0703 Q61.0938 209.5469 61.0938 208.6562 Q61.0938 207.4219 60.5625 206.8906 Q60.0156 206.3594 59 206.3594 L58.4375 206.3594 L58.4375 205.7188 L58.7344 205.7188 Q59.4844 205.7188 60 205.2969 Q60.4219 204.9531 60.4219 204.0156 Q60.4219 203.6094 60.1406 203.1406 Q59.6875 202.375 59.1562 202.3906 Q57.8281 202.4375 57.8281 204.7812 L57.8281 210.25 ZM56.75 213.5 L56.75 204.7812 Q56.75 202.3281 58.0781 202 Q58.7656 201.8125 59.25 201.8125 Q60.3438 201.8125 61.0469 202.6719 Q61.6094 203.3594 61.6094 203.9375 Q61.6094 204.7812 61.2031 205.2656 Q60.7969 205.75 60.0625 205.9844 Q61.1406 206.1406 61.75 206.7812 Q62.3281 207.4062 62.3281 208.6328 Q62.3281 209.8594 61.5078 210.5156 Q60.6875 211.1719 59.1406 211.1719 Q58.1875 211.1719 57.8281 211.0312 L57.8281 213.5 L56.75 213.5 Z" style="fill:black; stroke:none;" /></g><g ID="l-1:7,9" style="text-rendering:optimizeSpeed;"><polygon points=" 93 119 41 145" style="fill:none;" /></g><g ID="l-1:7,10" style="text-rendering:optimizeSpeed;"><polygon points=" 93 119 41 93" style="fill:none;" /></g><g ID="r-1:7" style="fill:white; text-rendering:optimizeSpeed; stroke:white;" wurcs_mono_id="7"><rect height="22" style="clip-path:url(#clipPath7); stroke:none;" width="22" x="82" y="108" /><rect height="22" style="clip-path:url(#clipPath7); fill:rgb(0,144,188); stroke:none;" width="22" x="82" y="108" /><rect height="22" style="clip-path:url(#clipPath7); fill:none; stroke:black;" width="22" x="82" y="108" /><rect height="22" style="fill:none; stroke:black;" width="22" x="82" y="108" /></g><g ID="r-1:9" style="fill:white; text-rendering:optimizeSpeed; stroke:white;" wurcs_mono_id="8"><circle cx="41" cy="145" r="11" style="clip-path:url(#clipPath8); stroke:none;" /><rect height="22" style="clip-path:url(#clipPath8); fill:rgb(255,212,0); stroke:none;" width="22" x="30" y="134" /><rect height="22" style="clip-path:url(#clipPath8); fill:none; stroke:black;" width="22" x="30" y="134" /><circle cx="41" cy="145" r="11" style="fill:none; stroke:black;" /></g><g ID="r-1:10" style="fill:white; text-rendering:optimizeSpeed; stroke:white;" wurcs_mono_id="9"><polygon points=" 41 82 52 93 41 104 30 93" style="stroke:none; clip-path:url(#clipPath9);" /><rect height="22" style="clip-path:url(#clipPath9); fill:rgb(165,67,153); stroke:none;" width="22" x="30" y="82" /><rect height="22" style="clip-path:url(#clipPath9); fill:none; stroke:black;" width="22" x="30" y="82" /><polygon points=" 41 82 52 93 41 104 30 93" style="fill:none; stroke:black;" /></g><g ID="li-1:7,9" style="fill:white; text-rendering:optimizeSpeed; font-family:'Serif'; stroke:white;"><rect height="10" style="stroke:none;" width="7" x="74" y="130" /><path d="M75.1719 131.625 Q75.8594 131.3594 76.4844 131.2266 Q77.1094 131.0938 77.6562 131.0938 Q78.9531 131.0938 79.6719 131.6484 Q80.3906 132.2031 80.3906 133.1875 Q80.3906 133.9688 79.8906 134.5 Q79.3906 135.0312 78.4844 135.2188 Q79.5625 135.375 80.1562 136.0078 Q80.75 136.6406 80.75 137.6406 Q80.75 138.8594 79.9219 139.5156 Q79.0938 140.1719 77.5469 140.1719 Q76.8594 140.1719 76.2109 140.0234 Q75.5625 139.875 74.9219 139.5781 L74.9219 137.875 L75.5781 137.875 Q75.625 138.7188 76.1406 139.1562 Q76.6562 139.5938 77.5781 139.5938 Q78.4688 139.5938 78.9922 139.0703 Q79.5156 138.5469 79.5156 137.6562 Q79.5156 136.625 78.9766 136.0938 Q78.4375 135.5625 77.4062 135.5625 L76.8594 135.5625 L76.8594 134.9531 L77.1406 134.9531 Q78.1719 134.9531 78.6875 134.5312 Q79.2031 134.1094 79.2031 133.25 Q79.2031 132.4844 78.7812 132.0781 Q78.3594 131.6719 77.5625 131.6719 Q76.7656 131.6719 76.3359 132.0469 Q75.9062 132.4219 75.8281 133.1562 L75.1719 133.1562 L75.1719 131.625 Z" style="fill:black; stroke:none;" /><rect height="13" style="stroke:none;" width="7" x="59" y="136" /><path d="M60.8281 148.25 Q61.2969 148.5938 62.1719 148.5938 Q63.0625 148.5938 63.5781 148.0703 Q64.0938 147.5469 64.0938 146.6562 Q64.0938 145.4219 63.5625 144.8906 Q63.0156 144.3594 62 144.3594 L61.4375 144.3594 L61.4375 143.7188 L61.7344 143.7188 Q62.4844 143.7188 63 143.2969 Q63.4219 142.9531 63.4219 142.0156 Q63.4219 141.6094 63.1406 141.1406 Q62.6875 140.375 62.1562 140.3906 Q60.8281 140.4375 60.8281 142.7812 L60.8281 148.25 ZM59.75 151.5 L59.75 142.7812 Q59.75 140.3281 61.0781 140 Q61.7656 139.8125 62.25 139.8125 Q63.3438 139.8125 64.0469 140.6719 Q64.6094 141.3594 64.6094 141.9375 Q64.6094 142.7812 64.2031 143.2656 Q63.7969 143.75 63.0625 143.9844 Q64.1406 144.1406 64.75 144.7812 Q65.3281 145.4062 65.3281 146.6328 Q65.3281 147.8594 64.5078 148.5156 Q63.6875 149.1719 62.1406 149.1719 Q61.1875 149.1719 60.8281 149.0312 L60.8281 151.5 L59.75 151.5 Z" style="fill:black; stroke:none;" /></g><g ID="li-1:7,10" style="fill:white; text-rendering:optimizeSpeed; font-family:'Serif'; stroke:white;"><rect height="10" style="stroke:none;" width="7" x="67" y="112" /><path d="M70.9219 121.5938 Q71.75 121.5938 72.1953 120.9844 Q72.6406 120.375 72.6406 119.2344 Q72.6406 118.1094 72.1953 117.5 Q71.75 116.8906 70.9219 116.8906 Q70.0938 116.8906 69.6484 117.4766 Q69.2031 118.0625 69.2031 119.1719 Q69.2031 120.3281 69.6484 120.9609 Q70.0938 121.5938 70.9219 121.5938 ZM69.0156 117.1875 Q69.4219 116.75 69.9219 116.5312 Q70.4219 116.3125 71.0625 116.3125 Q72.3594 116.3125 73.1172 117.0938 Q73.875 117.875 73.875 119.2344 Q73.875 120.5625 73.0625 121.3672 Q72.25 122.1719 70.875 122.1719 Q69.3906 122.1719 68.5938 121.0625 Q67.7969 119.9531 67.7969 117.9062 Q67.7969 115.6094 68.7422 114.3516 Q69.6875 113.0938 71.4062 113.0938 Q71.875 113.0938 72.3828 113.1797 Q72.8906 113.2656 73.4219 113.4375 L73.4219 114.8906 L72.7656 114.8906 Q72.6875 114.2969 72.3047 113.9844 Q71.9219 113.6719 71.2812 113.6719 Q70.1406 113.6719 69.5859 114.5312 Q69.0312 115.3906 69.0156 117.1875 Z" style="fill:black; stroke:none;" /><rect height="8" style="stroke:none;" width="8" x="51" y="105" /><path d="M56.1875 111.4688 L55.9531 112.1094 Q55.7656 112.625 55.2031 112.9375 Q54.8438 113.1562 54.2031 113.1406 Q53.0469 113.1406 52.3281 112.2344 Q51.5938 111.3281 51.5938 109.8594 Q51.5938 108.4219 52.3281 107.4844 Q53.0156 106.5938 54.4531 106.6094 Q55.4531 106.6094 55.9531 107 Q56.4062 107.3438 56.5781 108.0938 L56.625 108.3125 L56.8438 107.6719 Q57.0625 107.0469 57.6562 106.75 L58.25 106.75 L58.25 107.0938 Q57.6875 107.2656 57.5 107.8125 L56.8906 109.4844 L57.2969 111.2812 Q57.5 112.2031 57.7344 112.2969 Q58.0469 112.4375 58.7812 112 L58.7812 112.7188 Q57.5938 113.4062 56.75 112.6875 Q56.375 112.3594 56.2656 111.875 L56.1875 111.4688 ZM55.9219 110.3125 L55.5625 108.5938 Q55.2656 107.2188 54.4688 107.2188 Q53.7969 107.2031 53.2812 107.9375 Q52.8594 108.5156 52.8594 109.875 Q52.8594 111.1719 53.2812 111.8281 Q53.75 112.5469 54.5312 112.5 Q55.2031 112.4375 55.6875 111 L55.9219 110.3125 Z" style="fill:black; stroke:none;" /></g><g ID="li-1:4,6" style="fill:white; text-rendering:optimizeSpeed; font-family:'Serif'; stroke:white;"><rect height="9" style="stroke:none;" width="7" x="128" y="172" /><path d="M129.5312 174.3438 L128.875 174.3438 L128.875 172.7812 Q129.5 172.4375 130.1406 172.2656 Q130.7812 172.0938 131.3906 172.0938 Q132.75 172.0938 133.5391 172.7578 Q134.3281 173.4219 134.3281 174.5469 Q134.3281 175.8438 132.5469 177.625 Q132.4062 177.7656 132.3281 177.8281 L130.125 180.0312 L133.7656 180.0312 L133.7656 178.9531 L134.4531 178.9531 L134.4531 181 L128.8125 181 L128.8125 180.3594 L131.4688 177.7188 Q132.3438 176.8281 132.7188 176.0938 Q133.0938 175.3594 133.0938 174.5469 Q133.0938 173.6719 132.6328 173.1719 Q132.1719 172.6719 131.375 172.6719 Q130.5312 172.6719 130.0781 173.0859 Q129.625 173.5 129.5312 174.3438 Z" style="fill:black; stroke:none;" /><rect height="13" style="stroke:none;" width="7" x="111" y="183" /><path d="M112.8281 195.25 Q113.2969 195.5938 114.1719 195.5938 Q115.0625 195.5938 115.5781 195.0703 Q116.0938 194.5469 116.0938 193.6562 Q116.0938 192.4219 115.5625 191.8906 Q115.0156 191.3594 114 191.3594 L113.4375 191.3594 L113.4375 190.7188 L113.7344 190.7188 Q114.4844 190.7188 115 190.2969 Q115.4219 189.9531 115.4219 189.0156 Q115.4219 188.6094 115.1406 188.1406 Q114.6875 187.375 114.1562 187.3906 Q112.8281 187.4375 112.8281 189.7812 L112.8281 195.25 ZM111.75 198.5 L111.75 189.7812 Q111.75 187.3281 113.0781 187 Q113.7656 186.8125 114.25 186.8125 Q115.3438 186.8125 116.0469 187.6719 Q116.6094 188.3594 116.6094 188.9375 Q116.6094 189.7812 116.2031 190.2656 Q115.7969 190.75 115.0625 190.9844 Q116.1406 191.1406 116.75 191.7812 Q117.3281 192.4062 117.3281 193.6328 Q117.3281 194.8594 116.5078 195.5156 Q115.6875 196.1719 114.1406 196.1719 Q113.1875 196.1719 112.8281 196.0312 L112.8281 198.5 L111.75 198.5 Z" style="fill:black; stroke:none;" /></g><g ID="li-1:4,7" style="fill:white; text-rendering:optimizeSpeed; font-family:'Serif'; stroke:white;"><rect height="9" style="stroke:none;" width="8" x="118" y="146" /><path d="M122.1875 152.0312 L122.1875 147.375 L119.2031 152.0312 L122.1875 152.0312 ZM124.7656 155 L120.7812 155 L120.7812 154.375 L122.1875 154.375 L122.1875 152.6562 L118.375 152.6562 L118.375 152.0156 L122.2031 146.0938 L123.3594 146.0938 L123.3594 152.0312 L125.0312 152.0312 L125.0312 152.6562 L123.3594 152.6562 L123.3594 154.375 L124.7656 154.375 L124.7656 155 Z" style="fill:black; stroke:none;" /><rect height="13" style="stroke:none;" width="7" x="102" y="131" /><path d="M103.8281 143.25 Q104.2969 143.5938 105.1719 143.5938 Q106.0625 143.5938 106.5781 143.0703 Q107.0938 142.5469 107.0938 141.6562 Q107.0938 140.4219 106.5625 139.8906 Q106.0156 139.3594 105 139.3594 L104.4375 139.3594 L104.4375 138.7188 L104.7344 138.7188 Q105.4844 138.7188 106 138.2969 Q106.4219 137.9531 106.4219 137.0156 Q106.4219 136.6094 106.1406 136.1406 Q105.6875 135.375 105.1562 135.3906 Q103.8281 135.4375 103.8281 137.7812 L103.8281 143.25 ZM102.75 146.5 L102.75 137.7812 Q102.75 135.3281 104.0781 135 Q104.7656 134.8125 105.25 134.8125 Q106.3438 134.8125 107.0469 135.6719 Q107.6094 136.3594 107.6094 136.9375 Q107.6094 137.7812 107.2031 138.2656 Q106.7969 138.75 106.0625 138.9844 Q107.1406 139.1406 107.75 139.7812 Q108.3281 140.4062 108.3281 141.6328 Q108.3281 142.8594 107.5078 143.5156 Q106.6875 144.1719 105.1406 144.1719 Q104.1875 144.1719 103.8281 144.0312 L103.8281 146.5 L102.75 146.5 Z" style="fill:black; stroke:none;" /></g><g ID="l-1:5,11" style="text-rendering:optimizeSpeed;"><polygon points=" 145 41 93 41" style="fill:none;" /></g><g ID="r-1:5" style="fill:white; text-rendering:optimizeSpeed; stroke:white;" wurcs_mono_id="10"><circle cx="145" cy="41" r="11" style="clip-path:url(#clipPath10); stroke:none;" /><rect height="22" style="clip-path:url(#clipPath10); fill:rgb(0,166,81); stroke:none;" width="22" x="134" y="30" /><rect height="22" style="clip-path:url(#clipPath10); fill:none; stroke:black;" width="22" x="134" y="30" /><circle cx="145" cy="41" r="11" style="fill:none; stroke:black;" /></g><g ID="l-1:11,12" style="text-rendering:optimizeSpeed;"><polygon points=" 93 41 41 41" style="fill:none;" /></g><g ID="r-1:11" style="fill:white; text-rendering:optimizeSpeed; stroke:white;" wurcs_mono_id="11"><rect height="22" style="clip-path:url(#clipPath11); stroke:none;" width="22" x="82" y="30" /><rect height="22" style="clip-path:url(#clipPath11); fill:rgb(0,144,188); stroke:none;" width="22" x="82" y="30" /><rect height="22" style="clip-path:url(#clipPath11); fill:none; stroke:black;" width="22" x="82" y="30" /><rect height="22" style="fill:none; stroke:black;" width="22" x="82" y="30" /></g><g ID="r-1:12" style="fill:white; text-rendering:optimizeSpeed; stroke:white;" wurcs_mono_id="12"><circle cx="41" cy="41" r="11" style="clip-path:url(#clipPath12); stroke:none;" /><rect height="22" style="clip-path:url(#clipPath12); fill:rgb(255,212,0); stroke:none;" width="22" x="30" y="30" /><rect height="22" style="clip-path:url(#clipPath12); fill:none; stroke:black;" width="22" x="30" y="30" /><circle cx="41" cy="41" r="11" style="fill:none; stroke:black;" /></g><g ID="li-1:11,12" style="fill:white; text-rendering:optimizeSpeed; font-family:'Serif'; stroke:white;"><rect height="9" style="stroke:none;" width="8" x="70" y="44" /><path d="M74.1875 50.0312 L74.1875 45.375 L71.2031 50.0312 L74.1875 50.0312 ZM76.7656 53 L72.7812 53 L72.7812 52.375 L74.1875 52.375 L74.1875 50.6562 L70.375 50.6562 L70.375 50.0156 L74.2031 44.0938 L75.3594 44.0938 L75.3594 50.0312 L77.0312 50.0312 L77.0312 50.6562 L75.3594 50.6562 L75.3594 52.375 L76.7656 52.375 L76.7656 53 Z" style="fill:black; stroke:none;" /><rect height="13" style="stroke:none;" width="7" x="56" y="42" /><path d="M57.8281 54.25 Q58.2969 54.5938 59.1719 54.5938 Q60.0625 54.5938 60.5781 54.0703 Q61.0938 53.5469 61.0938 52.6562 Q61.0938 51.4219 60.5625 50.8906 Q60.0156 50.3594 59 50.3594 L58.4375 50.3594 L58.4375 49.7188 L58.7344 49.7188 Q59.4844 49.7188 60 49.2969 Q60.4219 48.9531 60.4219 48.0156 Q60.4219 47.6094 60.1406 47.1406 Q59.6875 46.375 59.1562 46.3906 Q57.8281 46.4375 57.8281 48.7812 L57.8281 54.25 ZM56.75 57.5 L56.75 48.7812 Q56.75 46.3281 58.0781 46 Q58.7656 45.8125 59.25 45.8125 Q60.3438 45.8125 61.0469 46.6719 Q61.6094 47.3594 61.6094 47.9375 Q61.6094 48.7812 61.2031 49.2656 Q60.7969 49.75 60.0625 49.9844 Q61.1406 50.1406 61.75 50.7812 Q62.3281 51.4062 62.3281 52.6328 Q62.3281 53.8594 61.5078 54.5156 Q60.6875 55.1719 59.1406 55.1719 Q58.1875 55.1719 57.8281 55.0312 L57.8281 57.5 L56.75 57.5 Z" style="fill:black; stroke:none;" /></g><g ID="li-1:5,11" style="fill:white; text-rendering:optimizeSpeed; font-family:'Serif'; stroke:white;"><rect height="9" style="stroke:none;" width="7" x="122" y="44" /><path d="M123.5312 46.3438 L122.875 46.3438 L122.875 44.7812 Q123.5 44.4375 124.1406 44.2656 Q124.7812 44.0938 125.3906 44.0938 Q126.75 44.0938 127.5391 44.7578 Q128.3281 45.4219 128.3281 46.5469 Q128.3281 47.8438 126.5469 49.625 Q126.4062 49.7656 126.3281 49.8281 L124.125 52.0312 L127.7656 52.0312 L127.7656 50.9531 L128.4531 50.9531 L128.4531 53 L122.8125 53 L122.8125 52.3594 L125.4688 49.7188 Q126.3438 48.8281 126.7188 48.0938 Q127.0938 47.3594 127.0938 46.5469 Q127.0938 45.6719 126.6328 45.1719 Q126.1719 44.6719 125.375 44.6719 Q124.5312 44.6719 124.0781 45.0859 Q123.625 45.5 123.5312 46.3438 Z" style="fill:black; stroke:none;" /><rect height="13" style="stroke:none;" width="7" x="108" y="42" /><path d="M109.8281 54.25 Q110.2969 54.5938 111.1719 54.5938 Q112.0625 54.5938 112.5781 54.0703 Q113.0938 53.5469 113.0938 52.6562 Q113.0938 51.4219 112.5625 50.8906 Q112.0156 50.3594 111 50.3594 L110.4375 50.3594 L110.4375 49.7188 L110.7344 49.7188 Q111.4844 49.7188 112 49.2969 Q112.4219 48.9531 112.4219 48.0156 Q112.4219 47.6094 112.1406 47.1406 Q111.6875 46.375 111.1562 46.3906 Q109.8281 46.4375 109.8281 48.7812 L109.8281 54.25 ZM108.75 57.5 L108.75 48.7812 Q108.75 46.3281 110.0781 46 Q110.7656 45.8125 111.25 45.8125 Q112.3438 45.8125 113.0469 46.6719 Q113.6094 47.3594 113.6094 47.9375 Q113.6094 48.7812 113.2031 49.2656 Q112.7969 49.75 112.0625 49.9844 Q113.1406 50.1406 113.75 50.7812 Q114.3281 51.4062 114.3281 52.6328 Q114.3281 53.8594 113.5078 54.5156 Q112.6875 55.1719 111.1406 55.1719 Q110.1875 55.1719 109.8281 55.0312 L109.8281 57.5 L108.75 57.5 Z" style="fill:black; stroke:none;" /></g><g ID="li-1:3,4" style="fill:white; text-rendering:optimizeSpeed; font-family:'Serif'; stroke:white;"><rect height="10" style="stroke:none;" width="7" x="184" y="116" /><path d="M185.1719 117.625 Q185.8594 117.3594 186.4844 117.2266 Q187.1094 117.0938 187.6562 117.0938 Q188.9531 117.0938 189.6719 117.6484 Q190.3906 118.2031 190.3906 119.1875 Q190.3906 119.9688 189.8906 120.5 Q189.3906 121.0312 188.4844 121.2188 Q189.5625 121.375 190.1562 122.0078 Q190.75 122.6406 190.75 123.6406 Q190.75 124.8594 189.9219 125.5156 Q189.0938 126.1719 187.5469 126.1719 Q186.8594 126.1719 186.2109 126.0234 Q185.5625 125.875 184.9219 125.5781 L184.9219 123.875 L185.5781 123.875 Q185.625 124.7188 186.1406 125.1562 Q186.6562 125.5938 187.5781 125.5938 Q188.4688 125.5938 188.9922 125.0703 Q189.5156 124.5469 189.5156 123.6562 Q189.5156 122.625 188.9766 122.0938 Q188.4375 121.5625 187.4062 121.5625 L186.8594 121.5625 L186.8594 120.9531 L187.1406 120.9531 Q188.1719 120.9531 188.6875 120.5312 Q189.2031 120.1094 189.2031 119.25 Q189.2031 118.4844 188.7812 118.0781 Q188.3594 117.6719 187.5625 117.6719 Q186.7656 117.6719 186.3359 118.0469 Q185.9062 118.4219 185.8281 119.1562 L185.1719 119.1562 L185.1719 117.625 Z" style="fill:black; stroke:none;" /><rect height="8" style="stroke:none;" width="8" x="161" y="142" /><path d="M166.1875 148.4688 L165.9531 149.1094 Q165.7656 149.625 165.2031 149.9375 Q164.8438 150.1562 164.2031 150.1406 Q163.0469 150.1406 162.3281 149.2344 Q161.5938 148.3281 161.5938 146.8594 Q161.5938 145.4219 162.3281 144.4844 Q163.0156 143.5938 164.4531 143.6094 Q165.4531 143.6094 165.9531 144 Q166.4062 144.3438 166.5781 145.0938 L166.625 145.3125 L166.8438 144.6719 Q167.0625 144.0469 167.6562 143.75 L168.25 143.75 L168.25 144.0938 Q167.6875 144.2656 167.5 144.8125 L166.8906 146.4844 L167.2969 148.2812 Q167.5 149.2031 167.7344 149.2969 Q168.0469 149.4375 168.7812 149 L168.7812 149.7188 Q167.5938 150.4062 166.75 149.6875 Q166.375 149.3594 166.2656 148.875 L166.1875 148.4688 ZM165.9219 147.3125 L165.5625 145.5938 Q165.2656 144.2188 164.4688 144.2188 Q163.7969 144.2031 163.2812 144.9375 Q162.8594 145.5156 162.8594 146.875 Q162.8594 148.1719 163.2812 148.8281 Q163.75 149.5469 164.5312 149.5 Q165.2031 149.4375 165.6875 148 L165.9219 147.3125 Z" style="fill:black; stroke:none;" /></g><g ID="li-1:3,5" style="fill:white; text-rendering:optimizeSpeed; font-family:'Serif'; stroke:white;"><rect height="10" style="stroke:none;" width="7" x="172" y="82" /><path d="M175.9219 91.5938 Q176.75 91.5938 177.1953 90.9844 Q177.6406 90.375 177.6406 89.2344 Q177.6406 88.1094 177.1953 87.5 Q176.75 86.8906 175.9219 86.8906 Q175.0938 86.8906 174.6484 87.4766 Q174.2031 88.0625 174.2031 89.1719 Q174.2031 90.3281 174.6484 90.9609 Q175.0938 91.5938 175.9219 91.5938 ZM174.0156 87.1875 Q174.4219 86.75 174.9219 86.5312 Q175.4219 86.3125 176.0625 86.3125 Q177.3594 86.3125 178.1172 87.0938 Q178.875 87.875 178.875 89.2344 Q178.875 90.5625 178.0625 91.3672 Q177.25 92.1719 175.875 92.1719 Q174.3906 92.1719 173.5938 91.0625 Q172.7969 89.9531 172.7969 87.9062 Q172.7969 85.6094 173.7422 84.3516 Q174.6875 83.0938 176.4062 83.0938 Q176.875 83.0938 177.3828 83.1797 Q177.8906 83.2656 178.4219 83.4375 L178.4219 84.8906 L177.7656 84.8906 Q177.6875 84.2969 177.3047 83.9844 Q176.9219 83.6719 176.2812 83.6719 Q175.1406 83.6719 174.5859 84.5312 Q174.0312 85.3906 174.0156 87.1875 Z" style="fill:black; stroke:none;" /><rect height="8" style="stroke:none;" width="8" x="150" y="59" /><path d="M155.1875 65.4688 L154.9531 66.1094 Q154.7656 66.625 154.2031 66.9375 Q153.8438 67.1562 153.2031 67.1406 Q152.0469 67.1406 151.3281 66.2344 Q150.5938 65.3281 150.5938 63.8594 Q150.5938 62.4219 151.3281 61.4844 Q152.0156 60.5938 153.4531 60.6094 Q154.4531 60.6094 154.9531 61 Q155.4062 61.3438 155.5781 62.0938 L155.625 62.3125 L155.8438 61.6719 Q156.0625 61.0469 156.6562 60.75 L157.25 60.75 L157.25 61.0938 Q156.6875 61.2656 156.5 61.8125 L155.8906 63.4844 L156.2969 65.2812 Q156.5 66.2031 156.7344 66.2969 Q157.0469 66.4375 157.7812 66 L157.7812 66.7188 Q156.5938 67.4062 155.75 66.6875 Q155.375 66.3594 155.2656 65.875 L155.1875 65.4688 ZM154.9219 64.3125 L154.5625 62.5938 Q154.2656 61.2188 153.4688 61.2188 Q152.7969 61.2031 152.2812 61.9375 Q151.8594 62.5156 151.8594 63.875 Q151.8594 65.1719 152.2812 65.8281 Q152.75 66.5469 153.5312 66.5 Q154.2031 66.4375 154.6875 65 L154.9219 64.3125 Z" style="fill:black; stroke:none;" /></g><g ID="li-1:2,3" style="fill:white; text-rendering:optimizeSpeed; font-family:'Serif'; stroke:white;"><rect height="9" style="stroke:none;" width="8" x="226" y="102" /><path d="M230.1875 108.0312 L230.1875 103.375 L227.2031 108.0312 L230.1875 108.0312 ZM232.7656 111 L228.7812 111 L228.7812 110.375 L230.1875 110.375 L230.1875 108.6562 L226.375 108.6562 L226.375 108.0156 L230.2031 102.0938 L231.3594 102.0938 L231.3594 108.0312 L233.0312 108.0312 L233.0312 108.6562 L231.3594 108.6562 L231.3594 110.375 L232.7656 110.375 L232.7656 111 Z" style="fill:black; stroke:none;" /><rect height="13" style="stroke:none;" width="7" x="212" y="100" /><path d="M213.8281 112.25 Q214.2969 112.5938 215.1719 112.5938 Q216.0625 112.5938 216.5781 112.0703 Q217.0938 111.5469 217.0938 110.6562 Q217.0938 109.4219 216.5625 108.8906 Q216.0156 108.3594 215 108.3594 L214.4375 108.3594 L214.4375 107.7188 L214.7344 107.7188 Q215.4844 107.7188 216 107.2969 Q216.4219 106.9531 216.4219 106.0156 Q216.4219 105.6094 216.1406 105.1406 Q215.6875 104.375 215.1562 104.3906 Q213.8281 104.4375 213.8281 106.7812 L213.8281 112.25 ZM212.75 115.5 L212.75 106.7812 Q212.75 104.3281 214.0781 104 Q214.7656 103.8125 215.25 103.8125 Q216.3438 103.8125 217.0469 104.6719 Q217.6094 105.3594 217.6094 105.9375 Q217.6094 106.7812 217.2031 107.2656 Q216.7969 107.75 216.0625 107.9844 Q217.1406 108.1406 217.75 108.7812 Q218.3281 109.4062 218.3281 110.6328 Q218.3281 111.8594 217.5078 112.5156 Q216.6875 113.1719 215.1406 113.1719 Q214.1875 113.1719 213.8281 113.0312 L213.8281 115.5 L212.75 115.5 Z" style="fill:black; stroke:none;" /></g><g ID="li-1:1,2" style="fill:white; text-rendering:optimizeSpeed; font-family:'Serif'; stroke:white;"><rect height="9" style="stroke:none;" width="8" x="278" y="102" /><path d="M282.1875 108.0312 L282.1875 103.375 L279.2031 108.0312 L282.1875 108.0312 ZM284.7656 111 L280.7812 111 L280.7812 110.375 L282.1875 110.375 L282.1875 108.6562 L278.375 108.6562 L278.375 108.0156 L282.2031 102.0938 L283.3594 102.0938 L283.3594 108.0312 L285.0312 108.0312 L285.0312 108.6562 L283.3594 108.6562 L283.3594 110.375 L284.7656 110.375 L284.7656 111 Z" style="fill:black; stroke:none;" /><rect height="13" style="stroke:none;" width="7" x="264" y="100" /><path d="M265.8281 112.25 Q266.2969 112.5938 267.1719 112.5938 Q268.0625 112.5938 268.5781 112.0703 Q269.0938 111.5469 269.0938 110.6562 Q269.0938 109.4219 268.5625 108.8906 Q268.0156 108.3594 267 108.3594 L266.4375 108.3594 L266.4375 107.7188 L266.7344 107.7188 Q267.4844 107.7188 268 107.2969 Q268.4219 106.9531 268.4219 106.0156 Q268.4219 105.6094 268.1406 105.1406 Q267.6875 104.375 267.1562 104.3906 Q265.8281 104.4375 265.8281 106.7812 L265.8281 112.25 ZM264.75 115.5 L264.75 106.7812 Q264.75 104.3281 266.0781 104 Q266.7656 103.8125 267.25 103.8125 Q268.3438 103.8125 269.0469 104.6719 Q269.6094 105.3594 269.6094 105.9375 Q269.6094 106.7812 269.2031 107.2656 Q268.7969 107.75 268.0625 107.9844 Q269.1406 108.1406 269.75 108.7812 Q270.3281 109.4062 270.3281 110.6328 Q270.3281 111.8594 269.5078 112.5156 Q268.6875 113.1719 267.1406 113.1719 Q266.1875 113.1719 265.8281 113.0312 L265.8281 115.5 L264.75 115.5 Z" style="fill:black; stroke:none;" /></g></g></svg>