<svg xmlns="http://www.w3.org/2000/svg" style="fill-opacity:1; color-rendering:auto; color-interpolation:auto; text-rendering:auto; stroke:black; stroke-linecap:square; stroke-miterlimit:10; shape-rendering:auto; stroke-opacity:1; fill:black; stroke-dasharray:none; font-weight:normal; stroke-width:1; font-family:'Dialog'; font-style:normal; stroke-linejoin:miter; font-size:12px; stroke-dashoffset:0; image-rendering:auto;"><defs id="genericDefs" /><g><defs id="defs1"><clipPath clipPathUnits="userSpaceOnUse" id="clipPath1"><path d="M238 82 L260 82 L260 104 L238 104 L238 82 Z" /></clipPath><clipPath clipPathUnits="userSpaceOnUse" id="clipPath2"><path d="M208 119 C208 125.0751 203.0751 130 197 130 C190.9249 130 186 125.0751 186 119 C186 112.9249 190.9249 108 197 108 C203.0751 108 208 112.9249 208 119 Z" /></clipPath><clipPath clipPathUnits="userSpaceOnUse" id="clipPath3"><path d="M145 108 L156 119 L145 130 L134 119 Z" style="fill-rule:evenodd;" /></clipPath><clipPath clipPathUnits="userSpaceOnUse" id="clipPath4"><path d="M186 56 L208 56 L208 78 L186 78 L186 56 Z" /></clipPath><clipPath clipPathUnits="userSpaceOnUse" id="clipPath5"><path d="M156 67 C156 73.0751 151.0751 78 145 78 C138.9249 78 134 73.0751 134 67 C134 60.9249 138.9249 56 145 56 C151.0751 56 156 60.9249 156 67 Z" /></clipPath><clipPath clipPathUnits="userSpaceOnUse" id="clipPath6"><path d="M82 82 L104 82 L104 104 L82 104 L82 82 Z" /></clipPath><clipPath clipPathUnits="userSpaceOnUse" id="clipPath7"><path d="M52 93 C52 99.0751 47.0751 104 41 104 C34.9249 104 30 99.0751 30 93 C30 86.9249 34.9249 82 41 82 C47.0751 82 52 86.9249 52 93 Z" /></clipPath><clipPath clipPathUnits="userSpaceOnUse" id="clipPath8"><path d="M82 30 L104 30 L104 52 L82 52 L82 30 Z" /></clipPath><clipPath clipPathUnits="userSpaceOnUse" id="clipPath9"><path d="M52 41 C52 47.0751 47.0751 52 41 52 C34.9249 52 30 47.0751 30 41 C30 34.9249 34.9249 30 41 30 C47.0751 30 52 34.9249 52 41 Z" /></clipPath></defs><g style="fill:white; text-rendering:optimizeSpeed; stroke:white;"><rect height="160" style="stroke:none;" width="290" x="0" y="0" /></g><g ID="l-1:1,2" style="text-rendering:optimizeSpeed;"><polygon points=" 249 93 197 119" style="fill:none;" /></g><g ID="l-1:1,3" style="text-rendering:optimizeSpeed;"><polygon points=" 249 93 197 67" style="fill:none;" /></g><g ID="r-1:1" style="fill:white; text-rendering:optimizeSpeed; stroke:white;" wurcs_mono_id="1"><rect height="22" style="clip-path:url(#clipPath1); stroke:none;" width="22" x="238" y="82" /><rect height="22" style="clip-path:url(#clipPath1); fill:rgb(255,212,0); stroke:none;" width="22" x="238" y="82" /><rect height="22" style="clip-path:url(#clipPath1); fill:none; stroke:black;" width="22" x="238" y="82" /><rect height="22" style="fill:none; stroke:black;" width="22" x="238" y="82" /></g><g ID="l-1:2,4" style="text-rendering:optimizeSpeed;"><polygon points=" 197 119 145 119" style="fill:none;" /></g><g ID="r-1:2" style="fill:white; text-rendering:optimizeSpeed; stroke:white;" wurcs_mono_id="2"><circle cx="197" cy="119" r="11" style="clip-path:url(#clipPath2); stroke:none;" /><rect height="22" style="clip-path:url(#clipPath2); fill:rgb(255,212,0); stroke:none;" width="22" x="186" y="108" /><rect height="22" style="clip-path:url(#clipPath2); fill:none; stroke:black;" width="22" x="186" y="108" /><circle cx="197" cy="119" r="11" style="fill:none; stroke:black;" /></g><g ID="r-1:4" style="fill:white; text-rendering:optimizeSpeed; stroke:white;" wurcs_mono_id="3"><polygon points=" 145 108 156 119 145 130 134 119" style="stroke:none; clip-path:url(#clipPath3);" /><rect height="22" style="clip-path:url(#clipPath3); fill:rgb(165,67,153); stroke:none;" width="22" x="134" y="108" /><rect height="22" style="clip-path:url(#clipPath3); fill:none; stroke:black;" width="22" x="134" y="108" /><polygon points=" 145 108 156 119 145 130 134 119" style="fill:none; stroke:black;" /></g><g ID="li-1:2,4" style="fill:white; text-rendering:optimizeSpeed; font-family:'Serif'; stroke:white;"><rect height="10" style="stroke:none;" width="7" x="174" y="122" /><path d="M175.1719 123.625 Q175.8594 123.3594 176.4844 123.2266 Q177.1094 123.0938 177.6562 123.0938 Q178.9531 123.0938 179.6719 123.6484 Q180.3906 124.2031 180.3906 125.1875 Q180.3906 125.9688 179.8906 126.5 Q179.3906 127.0312 178.4844 127.2188 Q179.5625 127.375 180.1562 128.0078 Q180.75 128.6406 180.75 129.6406 Q180.75 130.8594 179.9219 131.5156 Q179.0938 132.1719 177.5469 132.1719 Q176.8594 132.1719 176.2109 132.0234 Q175.5625 131.875 174.9219 131.5781 L174.9219 129.875 L175.5781 129.875 Q175.625 130.7188 176.1406 131.1562 Q176.6562 131.5938 177.5781 131.5938 Q178.4688 131.5938 178.9922 131.0703 Q179.5156 130.5469 179.5156 129.6562 Q179.5156 128.625 178.9766 128.0938 Q178.4375 127.5625 177.4062 127.5625 L176.8594 127.5625 L176.8594 126.9531 L177.1406 126.9531 Q178.1719 126.9531 178.6875 126.5312 Q179.2031 126.1094 179.2031 125.25 Q179.2031 124.4844 178.7812 124.0781 Q178.3594 123.6719 177.5625 123.6719 Q176.7656 123.6719 176.3359 124.0469 Q175.9062 124.4219 175.8281 125.1562 L175.1719 125.1562 L175.1719 123.625 Z" style="fill:black; stroke:none;" /><rect height="8" style="stroke:none;" width="8" x="160" y="123" /><path d="M165.1875 129.4688 L164.9531 130.1094 Q164.7656 130.625 164.2031 130.9375 Q163.8438 131.1562 163.2031 131.1406 Q162.0469 131.1406 161.3281 130.2344 Q160.5938 129.3281 160.5938 127.8594 Q160.5938 126.4219 161.3281 125.4844 Q162.0156 124.5938 163.4531 124.6094 Q164.4531 124.6094 164.9531 125 Q165.4062 125.3438 165.5781 126.0938 L165.625 126.3125 L165.8438 125.6719 Q166.0625 125.0469 166.6562 124.75 L167.25 124.75 L167.25 125.0938 Q166.6875 125.2656 166.5 125.8125 L165.8906 127.4844 L166.2969 129.2812 Q166.5 130.2031 166.7344 130.2969 Q167.0469 130.4375 167.7812 130 L167.7812 130.7188 Q166.5938 131.4062 165.75 130.6875 Q165.375 130.3594 165.2656 129.875 L165.1875 129.4688 ZM164.9219 128.3125 L164.5625 126.5938 Q164.2656 125.2188 163.4688 125.2188 Q162.7969 125.2031 162.2812 125.9375 Q161.8594 126.5156 161.8594 127.875 Q161.8594 129.1719 162.2812 129.8281 Q162.75 130.5469 163.5312 130.5 Q164.2031 130.4375 164.6875 129 L164.9219 128.3125 Z" style="fill:black; stroke:none;" /></g><g ID="l-1:3,5" style="text-rendering:optimizeSpeed;"><polygon points=" 197 67 145 67" style="fill:none;" /></g><g ID="r-1:3" style="fill:white; text-rendering:optimizeSpeed; stroke:white;" wurcs_mono_id="4"><rect height="22" style="clip-path:url(#clipPath4); stroke:none;" width="22" x="186" y="56" /><rect height="22" style="clip-path:url(#clipPath4); fill:rgb(0,144,188); stroke:none;" width="22" x="186" y="56" /><rect height="22" style="clip-path:url(#clipPath4); fill:none; stroke:black;" width="22" x="186" y="56" /><rect height="22" style="fill:none; stroke:black;" width="22" x="186" y="56" /></g><g ID="l-1:5,6" style="text-rendering:optimizeSpeed;"><polygon points=" 145 67 93 93" style="fill:none;" /></g><g ID="l-1:5,7" style="text-rendering:optimizeSpeed;"><polygon points=" 145 67 93 41" style="fill:none;" /></g><g ID="r-1:5" style="fill:white; text-rendering:optimizeSpeed; stroke:white;" wurcs_mono_id="5"><circle cx="145" cy="67" r="11" style="clip-path:url(#clipPath5); stroke:none;" /><rect height="22" style="clip-path:url(#clipPath5); fill:rgb(255,212,0); stroke:none;" width="22" x="134" y="56" /><rect height="22" style="clip-path:url(#clipPath5); fill:none; stroke:black;" width="22" x="134" y="56" /><circle cx="145" cy="67" r="11" style="fill:none; stroke:black;" /></g><g ID="l-1:6,8" style="text-rendering:optimizeSpeed;"><polygon points=" 93 93 41 93" style="fill:none;" /></g><g ID="r-1:6" style="fill:white; text-rendering:optimizeSpeed; stroke:white;" wurcs_mono_id="6"><rect height="22" style="clip-path:url(#clipPath6); stroke:none;" width="22" x="82" y="82" /><rect height="22" style="clip-path:url(#clipPath6); fill:rgb(0,144,188); stroke:none;" width="22" x="82" y="82" /><rect height="22" style="clip-path:url(#clipPath6); fill:none; stroke:black;" width="22" x="82" y="82" /><rect height="22" style="fill:none; stroke:black;" width="22" x="82" y="82" /></g><g ID="r-1:8" style="fill:white; text-rendering:optimizeSpeed; stroke:white;" wurcs_mono_id="7"><circle cx="41" cy="93" r="11" style="clip-path:url(#clipPath7); stroke:none;" /><rect height="22" style="clip-path:url(#clipPath7); fill:rgb(255,212,0); stroke:none;" width="22" x="30" y="82" /><rect height="22" style="clip-path:url(#clipPath7); fill:none; stroke:black;" width="22" x="30" y="82" /><circle cx="41" cy="93" r="11" style="fill:none; stroke:black;" /></g><g ID="li-1:6,8" style="fill:white; text-rendering:optimizeSpeed; font-family:'Serif'; stroke:white;"><rect height="10" style="stroke:none;" width="6" x="71" y="96" /><path d="M73.1094 105.3906 Q73.1094 105.0625 73.3359 104.8359 Q73.5625 104.6094 73.8906 104.6094 Q74.2188 104.6094 74.4453 104.8359 Q74.6719 105.0625 74.6719 105.3906 Q74.6719 105.7188 74.4453 105.9453 Q74.2188 106.1719 73.8906 106.1719 Q73.5625 106.1719 73.3359 105.9453 Q73.1094 105.7188 73.1094 105.3906 ZM71.8125 97.6406 Q72.4375 97.3594 73 97.2266 Q73.5625 97.0938 74.0469 97.0938 Q75.3438 97.0938 76.1016 97.7188 Q76.8594 98.3438 76.8594 99.4062 Q76.8594 100.5 76.2109 101.1953 Q75.5625 101.8906 74.25 102.1875 L74.25 103.6719 L73.5312 103.6719 L73.5312 101.75 Q74.5625 101.5 75.0938 100.9062 Q75.625 100.3125 75.625 99.4062 Q75.625 98.5938 75.1953 98.1328 Q74.7656 97.6719 74.0312 97.6719 Q73.3594 97.6719 72.9297 98.0547 Q72.5 98.4375 72.3906 99.1562 L71.8125 99.1562 L71.8125 97.6406 Z" style="fill:black; stroke:none;" /><rect height="13" style="stroke:none;" width="7" x="56" y="94" /><path d="M57.8281 106.25 Q58.2969 106.5938 59.1719 106.5938 Q60.0625 106.5938 60.5781 106.0703 Q61.0938 105.5469 61.0938 104.6562 Q61.0938 103.4219 60.5625 102.8906 Q60.0156 102.3594 59 102.3594 L58.4375 102.3594 L58.4375 101.7188 L58.7344 101.7188 Q59.4844 101.7188 60 101.2969 Q60.4219 100.9531 60.4219 100.0156 Q60.4219 99.6094 60.1406 99.1406 Q59.6875 98.375 59.1562 98.3906 Q57.8281 98.4375 57.8281 100.7812 L57.8281 106.25 ZM56.75 109.5 L56.75 100.7812 Q56.75 98.3281 58.0781 98 Q58.7656 97.8125 59.25 97.8125 Q60.3438 97.8125 61.0469 98.6719 Q61.6094 99.3594 61.6094 99.9375 Q61.6094 100.7812 61.2031 101.2656 Q60.7969 101.75 60.0625 101.9844 Q61.1406 102.1406 61.75 102.7812 Q62.3281 103.4062 62.3281 104.6328 Q62.3281 105.8594 61.5078 106.5156 Q60.6875 107.1719 59.1406 107.1719 Q58.1875 107.1719 57.8281 107.0312 L57.8281 109.5 L56.75 109.5 Z" style="fill:black; stroke:none;" /></g><g ID="l-1:7,9" style="text-rendering:optimizeSpeed;"><polygon points=" 93 41 41 41" style="fill:none;" /></g><g ID="r-1:7" style="fill:white; text-rendering:optimizeSpeed; stroke:white;" wurcs_mono_id="8"><rect height="22" style="clip-path:url(#clipPath8); stroke:none;" width="22" x="82" y="30" /><rect height="22" style="clip-path:url(#clipPath8); fill:rgb(0,144,188); stroke:none;" width="22" x="82" y="30" /><rect height="22" style="clip-path:url(#clipPath8); fill:none; stroke:black;" width="22" x="82" y="30" /><rect height="22" style="fill:none; stroke:black;" width="22" x="82" y="30" /></g><g ID="r-1:9" style="fill:white; text-rendering:optimizeSpeed; stroke:white;" wurcs_mono_id="9"><circle cx="41" cy="41" r="11" style="clip-path:url(#clipPath9); stroke:none;" /><rect height="22" style="clip-path:url(#clipPath9); fill:rgb(255,212,0); stroke:none;" width="22" x="30" y="30" /><rect height="22" style="clip-path:url(#clipPath9); fill:none; stroke:black;" width="22" x="30" y="30" /><circle cx="41" cy="41" r="11" style="fill:none; stroke:black;" /></g><g ID="li-1:7,9" style="fill:white; text-rendering:optimizeSpeed; font-family:'Serif'; stroke:white;"><rect height="10" style="stroke:none;" width="6" x="71" y="44" /><path d="M73.1094 53.3906 Q73.1094 53.0625 73.3359 52.8359 Q73.5625 52.6094 73.8906 52.6094 Q74.2188 52.6094 74.4453 52.8359 Q74.6719 53.0625 74.6719 53.3906 Q74.6719 53.7188 74.4453 53.9453 Q74.2188 54.1719 73.8906 54.1719 Q73.5625 54.1719 73.3359 53.9453 Q73.1094 53.7188 73.1094 53.3906 ZM71.8125 45.6406 Q72.4375 45.3594 73 45.2266 Q73.5625 45.0938 74.0469 45.0938 Q75.3438 45.0938 76.1016 45.7188 Q76.8594 46.3438 76.8594 47.4062 Q76.8594 48.5 76.2109 49.1953 Q75.5625 49.8906 74.25 50.1875 L74.25 51.6719 L73.5312 51.6719 L73.5312 49.75 Q74.5625 49.5 75.0938 48.9062 Q75.625 48.3125 75.625 47.4062 Q75.625 46.5938 75.1953 46.1328 Q74.7656 45.6719 74.0312 45.6719 Q73.3594 45.6719 72.9297 46.0547 Q72.5 46.4375 72.3906 47.1562 L71.8125 47.1562 L71.8125 45.6406 Z" style="fill:black; stroke:none;" /><rect height="13" style="stroke:none;" width="7" x="56" y="42" /><path d="M57.8281 54.25 Q58.2969 54.5938 59.1719 54.5938 Q60.0625 54.5938 60.5781 54.0703 Q61.0938 53.5469 61.0938 52.6562 Q61.0938 51.4219 60.5625 50.8906 Q60.0156 50.3594 59 50.3594 L58.4375 50.3594 L58.4375 49.7188 L58.7344 49.7188 Q59.4844 49.7188 60 49.2969 Q60.4219 48.9531 60.4219 48.0156 Q60.4219 47.6094 60.1406 47.1406 Q59.6875 46.375 59.1562 46.3906 Q57.8281 46.4375 57.8281 48.7812 L57.8281 54.25 ZM56.75 57.5 L56.75 48.7812 Q56.75 46.3281 58.0781 46 Q58.7656 45.8125 59.25 45.8125 Q60.3438 45.8125 61.0469 46.6719 Q61.6094 47.3594 61.6094 47.9375 Q61.6094 48.7812 61.2031 49.2656 Q60.7969 49.75 60.0625 49.9844 Q61.1406 50.1406 61.75 50.7812 Q62.3281 51.4062 62.3281 52.6328 Q62.3281 53.8594 61.5078 54.5156 Q60.6875 55.1719 59.1406 55.1719 Q58.1875 55.1719 57.8281 55.0312 L57.8281 57.5 L56.75 57.5 Z" style="fill:black; stroke:none;" /></g><g ID="li-1:5,6" style="fill:white; text-rendering:optimizeSpeed; font-family:'Serif'; stroke:white;"><rect height="10" style="stroke:none;" width="6" x="127" y="78" /><path d="M129.1094 87.3906 Q129.1094 87.0625 129.3359 86.8359 Q129.5625 86.6094 129.8906 86.6094 Q130.2188 86.6094 130.4453 86.8359 Q130.6719 87.0625 130.6719 87.3906 Q130.6719 87.7188 130.4453 87.9453 Q130.2188 88.1719 129.8906 88.1719 Q129.5625 88.1719 129.3359 87.9453 Q129.1094 87.7188 129.1094 87.3906 ZM127.8125 79.6406 Q128.4375 79.3594 129 79.2266 Q129.5625 79.0938 130.0469 79.0938 Q131.3438 79.0938 132.1016 79.7188 Q132.8594 80.3438 132.8594 81.4062 Q132.8594 82.5 132.2109 83.1953 Q131.5625 83.8906 130.25 84.1875 L130.25 85.6719 L129.5312 85.6719 L129.5312 83.75 Q130.5625 83.5 131.0938 82.9062 Q131.625 82.3125 131.625 81.4062 Q131.625 80.5938 131.1953 80.1328 Q130.7656 79.6719 130.0312 79.6719 Q129.3594 79.6719 128.9297 80.0547 Q128.5 80.4375 128.3906 81.1562 L127.8125 81.1562 L127.8125 79.6406 Z" style="fill:black; stroke:none;" /><rect height="10" style="stroke:none;" width="6" x="111" y="86" /><path d="M113.1094 95.3906 Q113.1094 95.0625 113.3359 94.8359 Q113.5625 94.6094 113.8906 94.6094 Q114.2188 94.6094 114.4453 94.8359 Q114.6719 95.0625 114.6719 95.3906 Q114.6719 95.7188 114.4453 95.9453 Q114.2188 96.1719 113.8906 96.1719 Q113.5625 96.1719 113.3359 95.9453 Q113.1094 95.7188 113.1094 95.3906 ZM111.8125 87.6406 Q112.4375 87.3594 113 87.2266 Q113.5625 87.0938 114.0469 87.0938 Q115.3438 87.0938 116.1016 87.7188 Q116.8594 88.3438 116.8594 89.4062 Q116.8594 90.5 116.2109 91.1953 Q115.5625 91.8906 114.25 92.1875 L114.25 93.6719 L113.5312 93.6719 L113.5312 91.75 Q114.5625 91.5 115.0938 90.9062 Q115.625 90.3125 115.625 89.4062 Q115.625 88.5938 115.1953 88.1328 Q114.7656 87.6719 114.0312 87.6719 Q113.3594 87.6719 112.9297 88.0547 Q112.5 88.4375 112.3906 89.1562 L111.8125 89.1562 L111.8125 87.6406 Z" style="fill:black; stroke:none;" /></g><g ID="li-1:5,7" style="fill:white; text-rendering:optimizeSpeed; font-family:'Serif'; stroke:white;"><rect height="10" style="stroke:none;" width="6" x="120" y="60" /><path d="M122.1094 69.3906 Q122.1094 69.0625 122.3359 68.8359 Q122.5625 68.6094 122.8906 68.6094 Q123.2188 68.6094 123.4453 68.8359 Q123.6719 69.0625 123.6719 69.3906 Q123.6719 69.7188 123.4453 69.9453 Q123.2188 70.1719 122.8906 70.1719 Q122.5625 70.1719 122.3359 69.9453 Q122.1094 69.7188 122.1094 69.3906 ZM120.8125 61.6406 Q121.4375 61.3594 122 61.2266 Q122.5625 61.0938 123.0469 61.0938 Q124.3438 61.0938 125.1016 61.7188 Q125.8594 62.3438 125.8594 63.4062 Q125.8594 64.5 125.2109 65.1953 Q124.5625 65.8906 123.25 66.1875 L123.25 67.6719 L122.5312 67.6719 L122.5312 65.75 Q123.5625 65.5 124.0938 64.9062 Q124.625 64.3125 124.625 63.4062 Q124.625 62.5938 124.1953 62.1328 Q123.7656 61.6719 123.0312 61.6719 Q122.3594 61.6719 121.9297 62.0547 Q121.5 62.4375 121.3906 63.1562 L120.8125 63.1562 L120.8125 61.6406 Z" style="fill:black; stroke:none;" /><rect height="10" style="stroke:none;" width="6" x="104" y="52" /><path d="M106.1094 61.3906 Q106.1094 61.0625 106.3359 60.8359 Q106.5625 60.6094 106.8906 60.6094 Q107.2188 60.6094 107.4453 60.8359 Q107.6719 61.0625 107.6719 61.3906 Q107.6719 61.7188 107.4453 61.9453 Q107.2188 62.1719 106.8906 62.1719 Q106.5625 62.1719 106.3359 61.9453 Q106.1094 61.7188 106.1094 61.3906 ZM104.8125 53.6406 Q105.4375 53.3594 106 53.2266 Q106.5625 53.0938 107.0469 53.0938 Q108.3438 53.0938 109.1016 53.7188 Q109.8594 54.3438 109.8594 55.4062 Q109.8594 56.5 109.2109 57.1953 Q108.5625 57.8906 107.25 58.1875 L107.25 59.6719 L106.5312 59.6719 L106.5312 57.75 Q107.5625 57.5 108.0938 56.9062 Q108.625 56.3125 108.625 55.4062 Q108.625 54.5938 108.1953 54.1328 Q107.7656 53.6719 107.0312 53.6719 Q106.3594 53.6719 105.9297 54.0547 Q105.5 54.4375 105.3906 55.1562 L104.8125 55.1562 L104.8125 53.6406 Z" style="fill:black; stroke:none;" /></g><g ID="li-1:3,5" style="fill:white; text-rendering:optimizeSpeed; font-family:'Serif'; stroke:white;"><rect height="10" style="stroke:none;" width="6" x="175" y="70" /><path d="M177.1094 79.3906 Q177.1094 79.0625 177.3359 78.8359 Q177.5625 78.6094 177.8906 78.6094 Q178.2188 78.6094 178.4453 78.8359 Q178.6719 79.0625 178.6719 79.3906 Q178.6719 79.7188 178.4453 79.9453 Q178.2188 80.1719 177.8906 80.1719 Q177.5625 80.1719 177.3359 79.9453 Q177.1094 79.7188 177.1094 79.3906 ZM175.8125 71.6406 Q176.4375 71.3594 177 71.2266 Q177.5625 71.0938 178.0469 71.0938 Q179.3438 71.0938 180.1016 71.7188 Q180.8594 72.3438 180.8594 73.4062 Q180.8594 74.5 180.2109 75.1953 Q179.5625 75.8906 178.25 76.1875 L178.25 77.6719 L177.5312 77.6719 L177.5312 75.75 Q178.5625 75.5 179.0938 74.9062 Q179.625 74.3125 179.625 73.4062 Q179.625 72.5938 179.1953 72.1328 Q178.7656 71.6719 178.0312 71.6719 Q177.3594 71.6719 176.9297 72.0547 Q176.5 72.4375 176.3906 73.1562 L175.8125 73.1562 L175.8125 71.6406 Z" style="fill:black; stroke:none;" /><rect height="13" style="stroke:none;" width="7" x="160" y="68" /><path d="M161.8281 80.25 Q162.2969 80.5938 163.1719 80.5938 Q164.0625 80.5938 164.5781 80.0703 Q165.0938 79.5469 165.0938 78.6562 Q165.0938 77.4219 164.5625 76.8906 Q164.0156 76.3594 163 76.3594 L162.4375 76.3594 L162.4375 75.7188 L162.7344 75.7188 Q163.4844 75.7188 164 75.2969 Q164.4219 74.9531 164.4219 74.0156 Q164.4219 73.6094 164.1406 73.1406 Q163.6875 72.375 163.1562 72.3906 Q161.8281 72.4375 161.8281 74.7812 L161.8281 80.25 ZM160.75 83.5 L160.75 74.7812 Q160.75 72.3281 162.0781 72 Q162.7656 71.8125 163.25 71.8125 Q164.3438 71.8125 165.0469 72.6719 Q165.6094 73.3594 165.6094 73.9375 Q165.6094 74.7812 165.2031 75.2656 Q164.7969 75.75 164.0625 75.9844 Q165.1406 76.1406 165.75 76.7812 Q166.3281 77.4062 166.3281 78.6328 Q166.3281 79.8594 165.5078 80.5156 Q164.6875 81.1719 163.1406 81.1719 Q162.1875 81.1719 161.8281 81.0312 L161.8281 83.5 L160.75 83.5 Z" style="fill:black; stroke:none;" /></g><g ID="li-1:1,2" style="fill:white; text-rendering:optimizeSpeed; font-family:'Serif'; stroke:white;"><rect height="10" style="stroke:none;" width="7" x="230" y="104" /><path d="M231.1719 105.625 Q231.8594 105.3594 232.4844 105.2266 Q233.1094 105.0938 233.6562 105.0938 Q234.9531 105.0938 235.6719 105.6484 Q236.3906 106.2031 236.3906 107.1875 Q236.3906 107.9688 235.8906 108.5 Q235.3906 109.0312 234.4844 109.2188 Q235.5625 109.375 236.1562 110.0078 Q236.75 110.6406 236.75 111.6406 Q236.75 112.8594 235.9219 113.5156 Q235.0938 114.1719 233.5469 114.1719 Q232.8594 114.1719 232.2109 114.0234 Q231.5625 113.875 230.9219 113.5781 L230.9219 111.875 L231.5781 111.875 Q231.625 112.7188 232.1406 113.1562 Q232.6562 113.5938 233.5781 113.5938 Q234.4688 113.5938 234.9922 113.0703 Q235.5156 112.5469 235.5156 111.6562 Q235.5156 110.625 234.9766 110.0938 Q234.4375 109.5625 233.4062 109.5625 L232.8594 109.5625 L232.8594 108.9531 L233.1406 108.9531 Q234.1719 108.9531 234.6875 108.5312 Q235.2031 108.1094 235.2031 107.25 Q235.2031 106.4844 234.7812 106.0781 Q234.3594 105.6719 233.5625 105.6719 Q232.7656 105.6719 232.3359 106.0469 Q231.9062 106.4219 231.8281 107.1562 L231.1719 107.1562 L231.1719 105.625 Z" style="fill:black; stroke:none;" /><rect height="13" style="stroke:none;" width="7" x="215" y="110" /><path d="M216.8281 122.25 Q217.2969 122.5938 218.1719 122.5938 Q219.0625 122.5938 219.5781 122.0703 Q220.0938 121.5469 220.0938 120.6562 Q220.0938 119.4219 219.5625 118.8906 Q219.0156 118.3594 218 118.3594 L217.4375 118.3594 L217.4375 117.7188 L217.7344 117.7188 Q218.4844 117.7188 219 117.2969 Q219.4219 116.9531 219.4219 116.0156 Q219.4219 115.6094 219.1406 115.1406 Q218.6875 114.375 218.1562 114.3906 Q216.8281 114.4375 216.8281 116.7812 L216.8281 122.25 ZM215.75 125.5 L215.75 116.7812 Q215.75 114.3281 217.0781 114 Q217.7656 113.8125 218.25 113.8125 Q219.3438 113.8125 220.0469 114.6719 Q220.6094 115.3594 220.6094 115.9375 Q220.6094 116.7812 220.2031 117.2656 Q219.7969 117.75 219.0625 117.9844 Q220.1406 118.1406 220.75 118.7812 Q221.3281 119.4062 221.3281 120.6328 Q221.3281 121.8594 220.5078 122.5156 Q219.6875 123.1719 218.1406 123.1719 Q217.1875 123.1719 216.8281 123.0312 L216.8281 125.5 L215.75 125.5 Z" style="fill:black; stroke:none;" /></g><g ID="li-1:1,3" style="fill:white; text-rendering:optimizeSpeed; font-family:'Serif'; stroke:white;"><rect height="10" style="stroke:none;" width="7" x="223" y="86" /><path d="M226.9219 95.5938 Q227.75 95.5938 228.1953 94.9844 Q228.6406 94.375 228.6406 93.2344 Q228.6406 92.1094 228.1953 91.5 Q227.75 90.8906 226.9219 90.8906 Q226.0938 90.8906 225.6484 91.4766 Q225.2031 92.0625 225.2031 93.1719 Q225.2031 94.3281 225.6484 94.9609 Q226.0938 95.5938 226.9219 95.5938 ZM225.0156 91.1875 Q225.4219 90.75 225.9219 90.5312 Q226.4219 90.3125 227.0625 90.3125 Q228.3594 90.3125 229.1172 91.0938 Q229.875 91.875 229.875 93.2344 Q229.875 94.5625 229.0625 95.3672 Q228.25 96.1719 226.875 96.1719 Q225.3906 96.1719 224.5938 95.0625 Q223.7969 93.9531 223.7969 91.9062 Q223.7969 89.6094 224.7422 88.3516 Q225.6875 87.0938 227.4062 87.0938 Q227.875 87.0938 228.3828 87.1797 Q228.8906 87.2656 229.4219 87.4375 L229.4219 88.8906 L228.7656 88.8906 Q228.6875 88.2969 228.3047 87.9844 Q227.9219 87.6719 227.2812 87.6719 Q226.1406 87.6719 225.5859 88.5312 Q225.0312 89.3906 225.0156 91.1875 Z" style="fill:black; stroke:none;" /><rect height="13" style="stroke:none;" width="7" x="208" y="76" /><path d="M209.8281 88.25 Q210.2969 88.5938 211.1719 88.5938 Q212.0625 88.5938 212.5781 88.0703 Q213.0938 87.5469 213.0938 86.6562 Q213.0938 85.4219 212.5625 84.8906 Q212.0156 84.3594 211 84.3594 L210.4375 84.3594 L210.4375 83.7188 L210.7344 83.7188 Q211.4844 83.7188 212 83.2969 Q212.4219 82.9531 212.4219 82.0156 Q212.4219 81.6094 212.1406 81.1406 Q211.6875 80.375 211.1562 80.3906 Q209.8281 80.4375 209.8281 82.7812 L209.8281 88.25 ZM208.75 91.5 L208.75 82.7812 Q208.75 80.3281 210.0781 80 Q210.7656 79.8125 211.25 79.8125 Q212.3438 79.8125 213.0469 80.6719 Q213.6094 81.3594 213.6094 81.9375 Q213.6094 82.7812 213.2031 83.2656 Q212.7969 83.75 212.0625 83.9844 Q213.1406 84.1406 213.75 84.7812 Q214.3281 85.4062 214.3281 86.6328 Q214.3281 87.8594 213.5078 88.5156 Q212.6875 89.1719 211.1406 89.1719 Q210.1875 89.1719 209.8281 89.0312 L209.8281 91.5 L208.75 91.5 Z" style="fill:black; stroke:none;" /></g></g></svg>