<svg xmlns="http://www.w3.org/2000/svg" style="fill-opacity:1; color-rendering:auto; color-interpolation:auto; text-rendering:auto; stroke:black; stroke-linecap:square; stroke-miterlimit:10; shape-rendering:auto; stroke-opacity:1; fill:black; stroke-dasharray:none; font-weight:normal; stroke-width:1; font-family:'Dialog'; font-style:normal; stroke-linejoin:miter; font-size:12px; stroke-dashoffset:0; image-rendering:auto;"><defs id="genericDefs" /><g><defs id="defs1"><clipPath clipPathUnits="userSpaceOnUse" id="clipPath1"><path d="M394 82 L416 82 L416 104 L394 104 L394 82 Z" /></clipPath><clipPath clipPathUnits="userSpaceOnUse" id="clipPath2"><path d="M342 82 L364 82 L364 104 L342 104 L342 82 Z" /></clipPath><clipPath clipPathUnits="userSpaceOnUse" id="clipPath3"><path d="M312 93 C312 99.0751 307.0751 104 301 104 C294.9249 104 290 99.0751 290 93 C290 86.9249 294.9249 82 301 82 C307.0751 82 312 86.9249 312 93 Z" /></clipPath><clipPath clipPathUnits="userSpaceOnUse" id="clipPath4"><path d="M260 132 C260 138.0751 255.0751 143 249 143 C242.9249 143 238 138.0751 238 132 C238 125.9249 242.9249 121 249 121 C255.0751 121 260 125.9249 260 132 Z" /></clipPath><clipPath clipPathUnits="userSpaceOnUse" id="clipPath5"><path d="M186 147 L208 147 L208 169 L186 169 L186 147 Z" /></clipPath><clipPath clipPathUnits="userSpaceOnUse" id="clipPath6"><path d="M156 158 C156 164.0751 151.0751 169 145 169 C138.9249 169 134 164.0751 134 158 C134 151.9249 138.9249 147 145 147 C151.0751 147 156 151.9249 156 158 Z" /></clipPath><clipPath clipPathUnits="userSpaceOnUse" id="clipPath7"><path d="M82 147 L104 147 L104 169 L82 169 L82 147 Z" /></clipPath><clipPath clipPathUnits="userSpaceOnUse" id="clipPath8"><path d="M52 158 C52 164.0751 47.0751 169 41 169 C34.9249 169 30 164.0751 30 158 C30 151.9249 34.9249 147 41 147 C47.0751 147 52 151.9249 52 158 Z" /></clipPath><clipPath clipPathUnits="userSpaceOnUse" id="clipPath9"><path d="M186 95 L208 95 L208 117 L186 117 L186 95 Z" /></clipPath><clipPath clipPathUnits="userSpaceOnUse" id="clipPath10"><path d="M156 106 C156 112.0751 151.0751 117 145 117 C138.9249 117 134 112.0751 134 106 C134 99.9249 138.9249 95 145 95 C151.0751 95 156 99.9249 156 106 Z" /></clipPath><clipPath clipPathUnits="userSpaceOnUse" id="clipPath11"><path d="M82 95 L104 95 L104 117 L82 117 L82 95 Z" /></clipPath><clipPath clipPathUnits="userSpaceOnUse" id="clipPath12"><path d="M52 106 C52 112.0751 47.0751 117 41 117 C34.9249 117 30 112.0751 30 106 C30 99.9249 34.9249 95 41 95 C47.0751 95 52 99.9249 52 106 Z" /></clipPath><clipPath clipPathUnits="userSpaceOnUse" id="clipPath13"><path d="M260 54 C260 60.0751 255.0751 65 249 65 C242.9249 65 238 60.0751 238 54 C238 47.9249 242.9249 43 249 43 C255.0751 43 260 47.9249 260 54 Z" /></clipPath><clipPath clipPathUnits="userSpaceOnUse" id="clipPath14"><path d="M186 43 L208 43 L208 65 L186 65 L186 43 Z" /></clipPath><clipPath clipPathUnits="userSpaceOnUse" id="clipPath15"><path d="M156 54 C156 60.0751 151.0751 65 145 65 C138.9249 65 134 60.0751 134 54 C134 47.9249 138.9249 43 145 43 C151.0751 43 156 47.9249 156 54 Z" /></clipPath><clipPath clipPathUnits="userSpaceOnUse" id="clipPath16"><path d="M82 43 L104 43 L104 65 L82 65 L82 43 Z" /></clipPath><clipPath clipPathUnits="userSpaceOnUse" id="clipPath17"><path d="M52 54 C52 60.0751 47.0751 65 41 65 C34.9249 65 30 60.0751 30 54 C30 47.9249 34.9249 43 41 43 C47.0751 43 52 47.9249 52 54 Z" /></clipPath><clipPath clipPathUnits="userSpaceOnUse" id="clipPath18"><path d="M405 52 L394 30 L416 30 Z" style="fill-rule:evenodd;" /></clipPath></defs><g style="fill:white; text-rendering:optimizeSpeed; stroke:white;"><rect height="199" style="stroke:none;" width="446" x="0" y="0" /></g><g ID="l-1:1,2" style="text-rendering:optimizeSpeed;"><polygon points=" 405 93 353 93" style="fill:none;" /></g><g ID="l-1:1,3" style="text-rendering:optimizeSpeed;"><polygon points=" 405 93 405 41" style="fill:none;" /></g><g ID="r-1:1" style="fill:white; text-rendering:optimizeSpeed; stroke:white;" wurcs_mono_id="1"><rect height="22" style="clip-path:url(#clipPath1); stroke:none;" width="22" x="394" y="82" /><rect height="22" style="clip-path:url(#clipPath1); fill:rgb(0,144,188); stroke:none;" width="22" x="394" y="82" /><rect height="22" style="clip-path:url(#clipPath1); fill:none; stroke:black;" width="22" x="394" y="82" /><rect height="22" style="fill:none; stroke:black;" width="22" x="394" y="82" /></g><g style="font-style:italic; text-rendering:optimizeSpeed; font-size:10px; font-family:'SansSerif';"><path d="M406.0938 90.1562 Q405.375 90.1562 404.8359 90.7188 Q404.2969 91.2812 404.0781 92.2656 Q403.875 93.25 404.1719 93.8125 Q404.4688 94.375 405.2031 94.375 Q405.9219 94.375 406.4609 93.8125 Q407 93.25 407.2031 92.2656 Q407.4062 91.2969 407.1094 90.7266 Q406.8125 90.1562 406.0938 90.1562 ZM406.25 89.4062 Q407.4219 89.4062 407.9297 90.1641 Q408.4375 90.9219 408.1562 92.2656 Q407.875 93.6094 407.0391 94.375 Q406.2031 95.1406 405.0312 95.1406 Q403.8594 95.1406 403.3516 94.375 Q402.8438 93.6094 403.125 92.2656 Q403.4062 90.9219 404.2422 90.1641 Q405.0781 89.4062 406.25 89.4062 Z" style="stroke:none;" /></g><g ID="l-1:2,4" style="text-rendering:optimizeSpeed;"><polygon points=" 353 93 301 93" style="fill:none;" /></g><g ID="r-1:2" style="fill:white; text-rendering:optimizeSpeed; stroke:white;" wurcs_mono_id="2"><rect height="22" style="clip-path:url(#clipPath2); stroke:none;" width="22" x="342" y="82" /><rect height="22" style="clip-path:url(#clipPath2); fill:rgb(0,144,188); stroke:none;" width="22" x="342" y="82" /><rect height="22" style="clip-path:url(#clipPath2); fill:none; stroke:black;" width="22" x="342" y="82" /><rect height="22" style="fill:none; stroke:black;" width="22" x="342" y="82" /></g><g ID="l-1:4,5" style="text-rendering:optimizeSpeed;"><polygon points=" 301 93 249 132" style="fill:none;" /></g><g ID="l-1:4,6" style="text-rendering:optimizeSpeed;"><polygon points=" 301 93 249 54" style="fill:none;" /></g><g ID="r-1:4" style="fill:white; text-rendering:optimizeSpeed; stroke:white;" wurcs_mono_id="3"><circle cx="301" cy="93" r="11" style="clip-path:url(#clipPath3); stroke:none;" /><rect height="22" style="clip-path:url(#clipPath3); fill:rgb(0,166,81); stroke:none;" width="22" x="290" y="82" /><rect height="22" style="clip-path:url(#clipPath3); fill:none; stroke:black;" width="22" x="290" y="82" /><circle cx="301" cy="93" r="11" style="fill:none; stroke:black;" /></g><g ID="l-1:5,7" style="text-rendering:optimizeSpeed;"><polygon points=" 249 132 197 158" style="fill:none;" /></g><g ID="l-1:5,8" style="text-rendering:optimizeSpeed;"><polygon points=" 249 132 197 106" style="fill:none;" /></g><g ID="r-1:5" style="fill:white; text-rendering:optimizeSpeed; stroke:white;" wurcs_mono_id="4"><circle cx="249" cy="132" r="11" style="clip-path:url(#clipPath4); stroke:none;" /><rect height="22" style="clip-path:url(#clipPath4); fill:rgb(0,166,81); stroke:none;" width="22" x="238" y="121" /><rect height="22" style="clip-path:url(#clipPath4); fill:none; stroke:black;" width="22" x="238" y="121" /><circle cx="249" cy="132" r="11" style="fill:none; stroke:black;" /></g><g ID="l-1:7,9" style="text-rendering:optimizeSpeed;"><polygon points=" 197 158 145 158" style="fill:none;" /></g><g ID="r-1:7" style="fill:white; text-rendering:optimizeSpeed; stroke:white;" wurcs_mono_id="5"><rect height="22" style="clip-path:url(#clipPath5); stroke:none;" width="22" x="186" y="147" /><rect height="22" style="clip-path:url(#clipPath5); fill:rgb(0,144,188); stroke:none;" width="22" x="186" y="147" /><rect height="22" style="clip-path:url(#clipPath5); fill:none; stroke:black;" width="22" x="186" y="147" /><rect height="22" style="fill:none; stroke:black;" width="22" x="186" y="147" /></g><g ID="l-1:9,10" style="text-rendering:optimizeSpeed;"><polygon points=" 145 158 93 158" style="fill:none;" /></g><g ID="r-1:9" style="fill:white; text-rendering:optimizeSpeed; stroke:white;" wurcs_mono_id="6"><circle cx="145" cy="158" r="11" style="clip-path:url(#clipPath6); stroke:none;" /><rect height="22" style="clip-path:url(#clipPath6); fill:rgb(255,212,0); stroke:none;" width="22" x="134" y="147" /><rect height="22" style="clip-path:url(#clipPath6); fill:none; stroke:black;" width="22" x="134" y="147" /><circle cx="145" cy="158" r="11" style="fill:none; stroke:black;" /></g><g ID="l-1:10,11" style="text-rendering:optimizeSpeed;"><polygon points=" 93 158 41 158" style="fill:none;" /></g><g ID="r-1:10" style="fill:white; text-rendering:optimizeSpeed; stroke:white;" wurcs_mono_id="7"><rect height="22" style="clip-path:url(#clipPath7); stroke:none;" width="22" x="82" y="147" /><rect height="22" style="clip-path:url(#clipPath7); fill:rgb(0,144,188); stroke:none;" width="22" x="82" y="147" /><rect height="22" style="clip-path:url(#clipPath7); fill:none; stroke:black;" width="22" x="82" y="147" /><rect height="22" style="fill:none; stroke:black;" width="22" x="82" y="147" /></g><g ID="r-1:11" style="fill:white; text-rendering:optimizeSpeed; stroke:white;" wurcs_mono_id="8"><circle cx="41" cy="158" r="11" style="clip-path:url(#clipPath8); stroke:none;" /><rect height="22" style="clip-path:url(#clipPath8); fill:rgb(255,212,0); stroke:none;" width="22" x="30" y="147" /><rect height="22" style="clip-path:url(#clipPath8); fill:none; stroke:black;" width="22" x="30" y="147" /><circle cx="41" cy="158" r="11" style="fill:none; stroke:black;" /></g><g ID="li-1:10,11" style="fill:white; text-rendering:optimizeSpeed; font-family:'Serif'; stroke:white;"><rect height="9" style="stroke:none;" width="8" x="70" y="161" /><path d="M74.1875 167.0312 L74.1875 162.375 L71.2031 167.0312 L74.1875 167.0312 ZM76.7656 170 L72.7812 170 L72.7812 169.375 L74.1875 169.375 L74.1875 167.6562 L70.375 167.6562 L70.375 167.0156 L74.2031 161.0938 L75.3594 161.0938 L75.3594 167.0312 L77.0312 167.0312 L77.0312 167.6562 L75.3594 167.6562 L75.3594 169.375 L76.7656 169.375 L76.7656 170 Z" style="fill:black; stroke:none;" /><rect height="13" style="stroke:none;" width="7" x="56" y="159" /><path d="M57.8281 171.25 Q58.2969 171.5938 59.1719 171.5938 Q60.0625 171.5938 60.5781 171.0703 Q61.0938 170.5469 61.0938 169.6562 Q61.0938 168.4219 60.5625 167.8906 Q60.0156 167.3594 59 167.3594 L58.4375 167.3594 L58.4375 166.7188 L58.7344 166.7188 Q59.4844 166.7188 60 166.2969 Q60.4219 165.9531 60.4219 165.0156 Q60.4219 164.6094 60.1406 164.1406 Q59.6875 163.375 59.1562 163.3906 Q57.8281 163.4375 57.8281 165.7812 L57.8281 171.25 ZM56.75 174.5 L56.75 165.7812 Q56.75 163.3281 58.0781 163 Q58.7656 162.8125 59.25 162.8125 Q60.3438 162.8125 61.0469 163.6719 Q61.6094 164.3594 61.6094 164.9375 Q61.6094 165.7812 61.2031 166.2656 Q60.7969 166.75 60.0625 166.9844 Q61.1406 167.1406 61.75 167.7812 Q62.3281 168.4062 62.3281 169.6328 Q62.3281 170.8594 61.5078 171.5156 Q60.6875 172.1719 59.1406 172.1719 Q58.1875 172.1719 57.8281 172.0312 L57.8281 174.5 L56.75 174.5 Z" style="fill:black; stroke:none;" /></g><g ID="li-1:9,10" style="fill:white; text-rendering:optimizeSpeed; font-family:'Serif'; stroke:white;"><rect height="9" style="stroke:none;" width="7" x="122" y="161" /><path d="M123.5312 163.3438 L122.875 163.3438 L122.875 161.7812 Q123.5 161.4375 124.1406 161.2656 Q124.7812 161.0938 125.3906 161.0938 Q126.75 161.0938 127.5391 161.7578 Q128.3281 162.4219 128.3281 163.5469 Q128.3281 164.8438 126.5469 166.625 Q126.4062 166.7656 126.3281 166.8281 L124.125 169.0312 L127.7656 169.0312 L127.7656 167.9531 L128.4531 167.9531 L128.4531 170 L122.8125 170 L122.8125 169.3594 L125.4688 166.7188 Q126.3438 165.8281 126.7188 165.0938 Q127.0938 164.3594 127.0938 163.5469 Q127.0938 162.6719 126.6328 162.1719 Q126.1719 161.6719 125.375 161.6719 Q124.5312 161.6719 124.0781 162.0859 Q123.625 162.5 123.5312 163.3438 Z" style="fill:black; stroke:none;" /><rect height="13" style="stroke:none;" width="7" x="108" y="159" /><path d="M109.8281 171.25 Q110.2969 171.5938 111.1719 171.5938 Q112.0625 171.5938 112.5781 171.0703 Q113.0938 170.5469 113.0938 169.6562 Q113.0938 168.4219 112.5625 167.8906 Q112.0156 167.3594 111 167.3594 L110.4375 167.3594 L110.4375 166.7188 L110.7344 166.7188 Q111.4844 166.7188 112 166.2969 Q112.4219 165.9531 112.4219 165.0156 Q112.4219 164.6094 112.1406 164.1406 Q111.6875 163.375 111.1562 163.3906 Q109.8281 163.4375 109.8281 165.7812 L109.8281 171.25 ZM108.75 174.5 L108.75 165.7812 Q108.75 163.3281 110.0781 163 Q110.7656 162.8125 111.25 162.8125 Q112.3438 162.8125 113.0469 163.6719 Q113.6094 164.3594 113.6094 164.9375 Q113.6094 165.7812 113.2031 166.2656 Q112.7969 166.75 112.0625 166.9844 Q113.1406 167.1406 113.75 167.7812 Q114.3281 168.4062 114.3281 169.6328 Q114.3281 170.8594 113.5078 171.5156 Q112.6875 172.1719 111.1406 172.1719 Q110.1875 172.1719 109.8281 172.0312 L109.8281 174.5 L108.75 174.5 Z" style="fill:black; stroke:none;" /></g><g ID="li-1:7,9" style="fill:white; text-rendering:optimizeSpeed; font-family:'Serif'; stroke:white;"><rect height="9" style="stroke:none;" width="8" x="174" y="161" /><path d="M178.1875 167.0312 L178.1875 162.375 L175.2031 167.0312 L178.1875 167.0312 ZM180.7656 170 L176.7812 170 L176.7812 169.375 L178.1875 169.375 L178.1875 167.6562 L174.375 167.6562 L174.375 167.0156 L178.2031 161.0938 L179.3594 161.0938 L179.3594 167.0312 L181.0312 167.0312 L181.0312 167.6562 L179.3594 167.6562 L179.3594 169.375 L180.7656 169.375 L180.7656 170 Z" style="fill:black; stroke:none;" /><rect height="13" style="stroke:none;" width="7" x="160" y="159" /><path d="M161.8281 171.25 Q162.2969 171.5938 163.1719 171.5938 Q164.0625 171.5938 164.5781 171.0703 Q165.0938 170.5469 165.0938 169.6562 Q165.0938 168.4219 164.5625 167.8906 Q164.0156 167.3594 163 167.3594 L162.4375 167.3594 L162.4375 166.7188 L162.7344 166.7188 Q163.4844 166.7188 164 166.2969 Q164.4219 165.9531 164.4219 165.0156 Q164.4219 164.6094 164.1406 164.1406 Q163.6875 163.375 163.1562 163.3906 Q161.8281 163.4375 161.8281 165.7812 L161.8281 171.25 ZM160.75 174.5 L160.75 165.7812 Q160.75 163.3281 162.0781 163 Q162.7656 162.8125 163.25 162.8125 Q164.3438 162.8125 165.0469 163.6719 Q165.6094 164.3594 165.6094 164.9375 Q165.6094 165.7812 165.2031 166.2656 Q164.7969 166.75 164.0625 166.9844 Q165.1406 167.1406 165.75 167.7812 Q166.3281 168.4062 166.3281 169.6328 Q166.3281 170.8594 165.5078 171.5156 Q164.6875 172.1719 163.1406 172.1719 Q162.1875 172.1719 161.8281 172.0312 L161.8281 174.5 L160.75 174.5 Z" style="fill:black; stroke:none;" /></g><g ID="l-1:8,12" style="text-rendering:optimizeSpeed;"><polygon points=" 197 106 145 106" style="fill:none;" /></g><g ID="r-1:8" style="fill:white; text-rendering:optimizeSpeed; stroke:white;" wurcs_mono_id="9"><rect height="22" style="clip-path:url(#clipPath9); stroke:none;" width="22" x="186" y="95" /><rect height="22" style="clip-path:url(#clipPath9); fill:rgb(0,144,188); stroke:none;" width="22" x="186" y="95" /><rect height="22" style="clip-path:url(#clipPath9); fill:none; stroke:black;" width="22" x="186" y="95" /><rect height="22" style="fill:none; stroke:black;" width="22" x="186" y="95" /></g><g ID="l-1:12,13" style="text-rendering:optimizeSpeed;"><polygon points=" 145 106 93 106" style="fill:none;" /></g><g ID="r-1:12" style="fill:white; text-rendering:optimizeSpeed; stroke:white;" wurcs_mono_id="10"><circle cx="145" cy="106" r="11" style="clip-path:url(#clipPath10); stroke:none;" /><rect height="22" style="clip-path:url(#clipPath10); fill:rgb(255,212,0); stroke:none;" width="22" x="134" y="95" /><rect height="22" style="clip-path:url(#clipPath10); fill:none; stroke:black;" width="22" x="134" y="95" /><circle cx="145" cy="106" r="11" style="fill:none; stroke:black;" /></g><g ID="l-1:13,14" style="text-rendering:optimizeSpeed;"><polygon points=" 93 106 41 106" style="fill:none;" /></g><g ID="r-1:13" style="fill:white; text-rendering:optimizeSpeed; stroke:white;" wurcs_mono_id="11"><rect height="22" style="clip-path:url(#clipPath11); stroke:none;" width="22" x="82" y="95" /><rect height="22" style="clip-path:url(#clipPath11); fill:rgb(0,144,188); stroke:none;" width="22" x="82" y="95" /><rect height="22" style="clip-path:url(#clipPath11); fill:none; stroke:black;" width="22" x="82" y="95" /><rect height="22" style="fill:none; stroke:black;" width="22" x="82" y="95" /></g><g ID="r-1:14" style="fill:white; text-rendering:optimizeSpeed; stroke:white;" wurcs_mono_id="12"><circle cx="41" cy="106" r="11" style="clip-path:url(#clipPath12); stroke:none;" /><rect height="22" style="clip-path:url(#clipPath12); fill:rgb(255,212,0); stroke:none;" width="22" x="30" y="95" /><rect height="22" style="clip-path:url(#clipPath12); fill:none; stroke:black;" width="22" x="30" y="95" /><circle cx="41" cy="106" r="11" style="fill:none; stroke:black;" /></g><g ID="li-1:13,14" style="fill:white; text-rendering:optimizeSpeed; font-family:'Serif'; stroke:white;"><rect height="9" style="stroke:none;" width="8" x="70" y="109" /><path d="M74.1875 115.0312 L74.1875 110.375 L71.2031 115.0312 L74.1875 115.0312 ZM76.7656 118 L72.7812 118 L72.7812 117.375 L74.1875 117.375 L74.1875 115.6562 L70.375 115.6562 L70.375 115.0156 L74.2031 109.0938 L75.3594 109.0938 L75.3594 115.0312 L77.0312 115.0312 L77.0312 115.6562 L75.3594 115.6562 L75.3594 117.375 L76.7656 117.375 L76.7656 118 Z" style="fill:black; stroke:none;" /><rect height="13" style="stroke:none;" width="7" x="56" y="107" /><path d="M57.8281 119.25 Q58.2969 119.5938 59.1719 119.5938 Q60.0625 119.5938 60.5781 119.0703 Q61.0938 118.5469 61.0938 117.6562 Q61.0938 116.4219 60.5625 115.8906 Q60.0156 115.3594 59 115.3594 L58.4375 115.3594 L58.4375 114.7188 L58.7344 114.7188 Q59.4844 114.7188 60 114.2969 Q60.4219 113.9531 60.4219 113.0156 Q60.4219 112.6094 60.1406 112.1406 Q59.6875 111.375 59.1562 111.3906 Q57.8281 111.4375 57.8281 113.7812 L57.8281 119.25 ZM56.75 122.5 L56.75 113.7812 Q56.75 111.3281 58.0781 111 Q58.7656 110.8125 59.25 110.8125 Q60.3438 110.8125 61.0469 111.6719 Q61.6094 112.3594 61.6094 112.9375 Q61.6094 113.7812 61.2031 114.2656 Q60.7969 114.75 60.0625 114.9844 Q61.1406 115.1406 61.75 115.7812 Q62.3281 116.4062 62.3281 117.6328 Q62.3281 118.8594 61.5078 119.5156 Q60.6875 120.1719 59.1406 120.1719 Q58.1875 120.1719 57.8281 120.0312 L57.8281 122.5 L56.75 122.5 Z" style="fill:black; stroke:none;" /></g><g ID="li-1:12,13" style="fill:white; text-rendering:optimizeSpeed; font-family:'Serif'; stroke:white;"><rect height="9" style="stroke:none;" width="7" x="122" y="109" /><path d="M123.5312 111.3438 L122.875 111.3438 L122.875 109.7812 Q123.5 109.4375 124.1406 109.2656 Q124.7812 109.0938 125.3906 109.0938 Q126.75 109.0938 127.5391 109.7578 Q128.3281 110.4219 128.3281 111.5469 Q128.3281 112.8438 126.5469 114.625 Q126.4062 114.7656 126.3281 114.8281 L124.125 117.0312 L127.7656 117.0312 L127.7656 115.9531 L128.4531 115.9531 L128.4531 118 L122.8125 118 L122.8125 117.3594 L125.4688 114.7188 Q126.3438 113.8281 126.7188 113.0938 Q127.0938 112.3594 127.0938 111.5469 Q127.0938 110.6719 126.6328 110.1719 Q126.1719 109.6719 125.375 109.6719 Q124.5312 109.6719 124.0781 110.0859 Q123.625 110.5 123.5312 111.3438 Z" style="fill:black; stroke:none;" /><rect height="13" style="stroke:none;" width="7" x="108" y="107" /><path d="M109.8281 119.25 Q110.2969 119.5938 111.1719 119.5938 Q112.0625 119.5938 112.5781 119.0703 Q113.0938 118.5469 113.0938 117.6562 Q113.0938 116.4219 112.5625 115.8906 Q112.0156 115.3594 111 115.3594 L110.4375 115.3594 L110.4375 114.7188 L110.7344 114.7188 Q111.4844 114.7188 112 114.2969 Q112.4219 113.9531 112.4219 113.0156 Q112.4219 112.6094 112.1406 112.1406 Q111.6875 111.375 111.1562 111.3906 Q109.8281 111.4375 109.8281 113.7812 L109.8281 119.25 ZM108.75 122.5 L108.75 113.7812 Q108.75 111.3281 110.0781 111 Q110.7656 110.8125 111.25 110.8125 Q112.3438 110.8125 113.0469 111.6719 Q113.6094 112.3594 113.6094 112.9375 Q113.6094 113.7812 113.2031 114.2656 Q112.7969 114.75 112.0625 114.9844 Q113.1406 115.1406 113.75 115.7812 Q114.3281 116.4062 114.3281 117.6328 Q114.3281 118.8594 113.5078 119.5156 Q112.6875 120.1719 111.1406 120.1719 Q110.1875 120.1719 109.8281 120.0312 L109.8281 122.5 L108.75 122.5 Z" style="fill:black; stroke:none;" /></g><g ID="li-1:8,12" style="fill:white; text-rendering:optimizeSpeed; font-family:'Serif'; stroke:white;"><rect height="9" style="stroke:none;" width="8" x="174" y="109" /><path d="M178.1875 115.0312 L178.1875 110.375 L175.2031 115.0312 L178.1875 115.0312 ZM180.7656 118 L176.7812 118 L176.7812 117.375 L178.1875 117.375 L178.1875 115.6562 L174.375 115.6562 L174.375 115.0156 L178.2031 109.0938 L179.3594 109.0938 L179.3594 115.0312 L181.0312 115.0312 L181.0312 115.6562 L179.3594 115.6562 L179.3594 117.375 L180.7656 117.375 L180.7656 118 Z" style="fill:black; stroke:none;" /><rect height="13" style="stroke:none;" width="7" x="160" y="107" /><path d="M161.8281 119.25 Q162.2969 119.5938 163.1719 119.5938 Q164.0625 119.5938 164.5781 119.0703 Q165.0938 118.5469 165.0938 117.6562 Q165.0938 116.4219 164.5625 115.8906 Q164.0156 115.3594 163 115.3594 L162.4375 115.3594 L162.4375 114.7188 L162.7344 114.7188 Q163.4844 114.7188 164 114.2969 Q164.4219 113.9531 164.4219 113.0156 Q164.4219 112.6094 164.1406 112.1406 Q163.6875 111.375 163.1562 111.3906 Q161.8281 111.4375 161.8281 113.7812 L161.8281 119.25 ZM160.75 122.5 L160.75 113.7812 Q160.75 111.3281 162.0781 111 Q162.7656 110.8125 163.25 110.8125 Q164.3438 110.8125 165.0469 111.6719 Q165.6094 112.3594 165.6094 112.9375 Q165.6094 113.7812 165.2031 114.2656 Q164.7969 114.75 164.0625 114.9844 Q165.1406 115.1406 165.75 115.7812 Q166.3281 116.4062 166.3281 117.6328 Q166.3281 118.8594 165.5078 119.5156 Q164.6875 120.1719 163.1406 120.1719 Q162.1875 120.1719 161.8281 120.0312 L161.8281 122.5 L160.75 122.5 Z" style="fill:black; stroke:none;" /></g><g ID="li-1:5,7" style="fill:white; text-rendering:optimizeSpeed; font-family:'Serif'; stroke:white;"><rect height="9" style="stroke:none;" width="7" x="230" y="143" /><path d="M231.5312 145.3438 L230.875 145.3438 L230.875 143.7812 Q231.5 143.4375 232.1406 143.2656 Q232.7812 143.0938 233.3906 143.0938 Q234.75 143.0938 235.5391 143.7578 Q236.3281 144.4219 236.3281 145.5469 Q236.3281 146.8438 234.5469 148.625 Q234.4062 148.7656 234.3281 148.8281 L232.125 151.0312 L235.7656 151.0312 L235.7656 149.9531 L236.4531 149.9531 L236.4531 152 L230.8125 152 L230.8125 151.3594 L233.4688 148.7188 Q234.3438 147.8281 234.7188 147.0938 Q235.0938 146.3594 235.0938 145.5469 Q235.0938 144.6719 234.6328 144.1719 Q234.1719 143.6719 233.375 143.6719 Q232.5312 143.6719 232.0781 144.0859 Q231.625 144.5 231.5312 145.3438 Z" style="fill:black; stroke:none;" /><rect height="13" style="stroke:none;" width="7" x="215" y="149" /><path d="M216.8281 161.25 Q217.2969 161.5938 218.1719 161.5938 Q219.0625 161.5938 219.5781 161.0703 Q220.0938 160.5469 220.0938 159.6562 Q220.0938 158.4219 219.5625 157.8906 Q219.0156 157.3594 218 157.3594 L217.4375 157.3594 L217.4375 156.7188 L217.7344 156.7188 Q218.4844 156.7188 219 156.2969 Q219.4219 155.9531 219.4219 155.0156 Q219.4219 154.6094 219.1406 154.1406 Q218.6875 153.375 218.1562 153.3906 Q216.8281 153.4375 216.8281 155.7812 L216.8281 161.25 ZM215.75 164.5 L215.75 155.7812 Q215.75 153.3281 217.0781 153 Q217.7656 152.8125 218.25 152.8125 Q219.3438 152.8125 220.0469 153.6719 Q220.6094 154.3594 220.6094 154.9375 Q220.6094 155.7812 220.2031 156.2656 Q219.7969 156.75 219.0625 156.9844 Q220.1406 157.1406 220.75 157.7812 Q221.3281 158.4062 221.3281 159.6328 Q221.3281 160.8594 220.5078 161.5156 Q219.6875 162.1719 218.1406 162.1719 Q217.1875 162.1719 216.8281 162.0312 L216.8281 164.5 L215.75 164.5 Z" style="fill:black; stroke:none;" /></g><g ID="li-1:5,8" style="fill:white; text-rendering:optimizeSpeed; font-family:'Serif'; stroke:white;"><rect height="9" style="stroke:none;" width="8" x="223" y="125" /><path d="M227.1875 131.0312 L227.1875 126.375 L224.2031 131.0312 L227.1875 131.0312 ZM229.7656 134 L225.7812 134 L225.7812 133.375 L227.1875 133.375 L227.1875 131.6562 L223.375 131.6562 L223.375 131.0156 L227.2031 125.0938 L228.3594 125.0938 L228.3594 131.0312 L230.0312 131.0312 L230.0312 131.6562 L228.3594 131.6562 L228.3594 133.375 L229.7656 133.375 L229.7656 134 Z" style="fill:black; stroke:none;" /><rect height="13" style="stroke:none;" width="7" x="208" y="115" /><path d="M209.8281 127.25 Q210.2969 127.5938 211.1719 127.5938 Q212.0625 127.5938 212.5781 127.0703 Q213.0938 126.5469 213.0938 125.6562 Q213.0938 124.4219 212.5625 123.8906 Q212.0156 123.3594 211 123.3594 L210.4375 123.3594 L210.4375 122.7188 L210.7344 122.7188 Q211.4844 122.7188 212 122.2969 Q212.4219 121.9531 212.4219 121.0156 Q212.4219 120.6094 212.1406 120.1406 Q211.6875 119.375 211.1562 119.3906 Q209.8281 119.4375 209.8281 121.7812 L209.8281 127.25 ZM208.75 130.5 L208.75 121.7812 Q208.75 119.3281 210.0781 119 Q210.7656 118.8125 211.25 118.8125 Q212.3438 118.8125 213.0469 119.6719 Q213.6094 120.3594 213.6094 120.9375 Q213.6094 121.7812 213.2031 122.2656 Q212.7969 122.75 212.0625 122.9844 Q213.1406 123.1406 213.75 123.7812 Q214.3281 124.4062 214.3281 125.6328 Q214.3281 126.8594 213.5078 127.5156 Q212.6875 128.1719 211.1406 128.1719 Q210.1875 128.1719 209.8281 128.0312 L209.8281 130.5 L208.75 130.5 Z" style="fill:black; stroke:none;" /></g><g ID="l-1:6,15" style="text-rendering:optimizeSpeed;"><polygon points=" 249 54 197 54" style="fill:none;" /></g><g ID="r-1:6" style="fill:white; text-rendering:optimizeSpeed; stroke:white;" wurcs_mono_id="13"><circle cx="249" cy="54" r="11" style="clip-path:url(#clipPath13); stroke:none;" /><rect height="22" style="clip-path:url(#clipPath13); fill:rgb(0,166,81); stroke:none;" width="22" x="238" y="43" /><rect height="22" style="clip-path:url(#clipPath13); fill:none; stroke:black;" width="22" x="238" y="43" /><circle cx="249" cy="54" r="11" style="fill:none; stroke:black;" /></g><g ID="l-1:15,16" style="text-rendering:optimizeSpeed;"><polygon points=" 197 54 145 54" style="fill:none;" /></g><g ID="r-1:15" style="fill:white; text-rendering:optimizeSpeed; stroke:white;" wurcs_mono_id="14"><rect height="22" style="clip-path:url(#clipPath14); stroke:none;" width="22" x="186" y="43" /><rect height="22" style="clip-path:url(#clipPath14); fill:rgb(0,144,188); stroke:none;" width="22" x="186" y="43" /><rect height="22" style="clip-path:url(#clipPath14); fill:none; stroke:black;" width="22" x="186" y="43" /><rect height="22" style="fill:none; stroke:black;" width="22" x="186" y="43" /></g><g ID="l-1:16,17" style="text-rendering:optimizeSpeed;"><polygon points=" 145 54 93 54" style="fill:none;" /></g><g ID="r-1:16" style="fill:white; text-rendering:optimizeSpeed; stroke:white;" wurcs_mono_id="15"><circle cx="145" cy="54" r="11" style="clip-path:url(#clipPath15); stroke:none;" /><rect height="22" style="clip-path:url(#clipPath15); fill:rgb(255,212,0); stroke:none;" width="22" x="134" y="43" /><rect height="22" style="clip-path:url(#clipPath15); fill:none; stroke:black;" width="22" x="134" y="43" /><circle cx="145" cy="54" r="11" style="fill:none; stroke:black;" /></g><g ID="l-1:17,18" style="text-rendering:optimizeSpeed;"><polygon points=" 93 54 41 54" style="fill:none;" /></g><g ID="r-1:17" style="fill:white; text-rendering:optimizeSpeed; stroke:white;" wurcs_mono_id="16"><rect height="22" style="clip-path:url(#clipPath16); stroke:none;" width="22" x="82" y="43" /><rect height="22" style="clip-path:url(#clipPath16); fill:rgb(0,144,188); stroke:none;" width="22" x="82" y="43" /><rect height="22" style="clip-path:url(#clipPath16); fill:none; stroke:black;" width="22" x="82" y="43" /><rect height="22" style="fill:none; stroke:black;" width="22" x="82" y="43" /></g><g ID="r-1:18" style="fill:white; text-rendering:optimizeSpeed; stroke:white;" wurcs_mono_id="17"><circle cx="41" cy="54" r="11" style="clip-path:url(#clipPath17); stroke:none;" /><rect height="22" style="clip-path:url(#clipPath17); fill:rgb(255,212,0); stroke:none;" width="22" x="30" y="43" /><rect height="22" style="clip-path:url(#clipPath17); fill:none; stroke:black;" width="22" x="30" y="43" /><circle cx="41" cy="54" r="11" style="fill:none; stroke:black;" /></g><g ID="li-1:17,18" style="fill:white; text-rendering:optimizeSpeed; font-family:'Serif'; stroke:white;"><rect height="9" style="stroke:none;" width="8" x="70" y="57" /><path d="M74.1875 63.0312 L74.1875 58.375 L71.2031 63.0312 L74.1875 63.0312 ZM76.7656 66 L72.7812 66 L72.7812 65.375 L74.1875 65.375 L74.1875 63.6562 L70.375 63.6562 L70.375 63.0156 L74.2031 57.0938 L75.3594 57.0938 L75.3594 63.0312 L77.0312 63.0312 L77.0312 63.6562 L75.3594 63.6562 L75.3594 65.375 L76.7656 65.375 L76.7656 66 Z" style="fill:black; stroke:none;" /><rect height="13" style="stroke:none;" width="7" x="56" y="55" /><path d="M57.8281 67.25 Q58.2969 67.5938 59.1719 67.5938 Q60.0625 67.5938 60.5781 67.0703 Q61.0938 66.5469 61.0938 65.6562 Q61.0938 64.4219 60.5625 63.8906 Q60.0156 63.3594 59 63.3594 L58.4375 63.3594 L58.4375 62.7188 L58.7344 62.7188 Q59.4844 62.7188 60 62.2969 Q60.4219 61.9531 60.4219 61.0156 Q60.4219 60.6094 60.1406 60.1406 Q59.6875 59.375 59.1562 59.3906 Q57.8281 59.4375 57.8281 61.7812 L57.8281 67.25 ZM56.75 70.5 L56.75 61.7812 Q56.75 59.3281 58.0781 59 Q58.7656 58.8125 59.25 58.8125 Q60.3438 58.8125 61.0469 59.6719 Q61.6094 60.3594 61.6094 60.9375 Q61.6094 61.7812 61.2031 62.2656 Q60.7969 62.75 60.0625 62.9844 Q61.1406 63.1406 61.75 63.7812 Q62.3281 64.4062 62.3281 65.6328 Q62.3281 66.8594 61.5078 67.5156 Q60.6875 68.1719 59.1406 68.1719 Q58.1875 68.1719 57.8281 68.0312 L57.8281 70.5 L56.75 70.5 Z" style="fill:black; stroke:none;" /></g><g ID="li-1:16,17" style="fill:white; text-rendering:optimizeSpeed; font-family:'Serif'; stroke:white;"><rect height="9" style="stroke:none;" width="7" x="122" y="57" /><path d="M123.5312 59.3438 L122.875 59.3438 L122.875 57.7812 Q123.5 57.4375 124.1406 57.2656 Q124.7812 57.0938 125.3906 57.0938 Q126.75 57.0938 127.5391 57.7578 Q128.3281 58.4219 128.3281 59.5469 Q128.3281 60.8438 126.5469 62.625 Q126.4062 62.7656 126.3281 62.8281 L124.125 65.0312 L127.7656 65.0312 L127.7656 63.9531 L128.4531 63.9531 L128.4531 66 L122.8125 66 L122.8125 65.3594 L125.4688 62.7188 Q126.3438 61.8281 126.7188 61.0938 Q127.0938 60.3594 127.0938 59.5469 Q127.0938 58.6719 126.6328 58.1719 Q126.1719 57.6719 125.375 57.6719 Q124.5312 57.6719 124.0781 58.0859 Q123.625 58.5 123.5312 59.3438 Z" style="fill:black; stroke:none;" /><rect height="13" style="stroke:none;" width="7" x="108" y="55" /><path d="M109.8281 67.25 Q110.2969 67.5938 111.1719 67.5938 Q112.0625 67.5938 112.5781 67.0703 Q113.0938 66.5469 113.0938 65.6562 Q113.0938 64.4219 112.5625 63.8906 Q112.0156 63.3594 111 63.3594 L110.4375 63.3594 L110.4375 62.7188 L110.7344 62.7188 Q111.4844 62.7188 112 62.2969 Q112.4219 61.9531 112.4219 61.0156 Q112.4219 60.6094 112.1406 60.1406 Q111.6875 59.375 111.1562 59.3906 Q109.8281 59.4375 109.8281 61.7812 L109.8281 67.25 ZM108.75 70.5 L108.75 61.7812 Q108.75 59.3281 110.0781 59 Q110.7656 58.8125 111.25 58.8125 Q112.3438 58.8125 113.0469 59.6719 Q113.6094 60.3594 113.6094 60.9375 Q113.6094 61.7812 113.2031 62.2656 Q112.7969 62.75 112.0625 62.9844 Q113.1406 63.1406 113.75 63.7812 Q114.3281 64.4062 114.3281 65.6328 Q114.3281 66.8594 113.5078 67.5156 Q112.6875 68.1719 111.1406 68.1719 Q110.1875 68.1719 109.8281 68.0312 L109.8281 70.5 L108.75 70.5 Z" style="fill:black; stroke:none;" /></g><g ID="li-1:15,16" style="fill:white; text-rendering:optimizeSpeed; font-family:'Serif'; stroke:white;"><rect height="9" style="stroke:none;" width="8" x="174" y="57" /><path d="M178.1875 63.0312 L178.1875 58.375 L175.2031 63.0312 L178.1875 63.0312 ZM180.7656 66 L176.7812 66 L176.7812 65.375 L178.1875 65.375 L178.1875 63.6562 L174.375 63.6562 L174.375 63.0156 L178.2031 57.0938 L179.3594 57.0938 L179.3594 63.0312 L181.0312 63.0312 L181.0312 63.6562 L179.3594 63.6562 L179.3594 65.375 L180.7656 65.375 L180.7656 66 Z" style="fill:black; stroke:none;" /><rect height="13" style="stroke:none;" width="7" x="160" y="55" /><path d="M161.8281 67.25 Q162.2969 67.5938 163.1719 67.5938 Q164.0625 67.5938 164.5781 67.0703 Q165.0938 66.5469 165.0938 65.6562 Q165.0938 64.4219 164.5625 63.8906 Q164.0156 63.3594 163 63.3594 L162.4375 63.3594 L162.4375 62.7188 L162.7344 62.7188 Q163.4844 62.7188 164 62.2969 Q164.4219 61.9531 164.4219 61.0156 Q164.4219 60.6094 164.1406 60.1406 Q163.6875 59.375 163.1562 59.3906 Q161.8281 59.4375 161.8281 61.7812 L161.8281 67.25 ZM160.75 70.5 L160.75 61.7812 Q160.75 59.3281 162.0781 59 Q162.7656 58.8125 163.25 58.8125 Q164.3438 58.8125 165.0469 59.6719 Q165.6094 60.3594 165.6094 60.9375 Q165.6094 61.7812 165.2031 62.2656 Q164.7969 62.75 164.0625 62.9844 Q165.1406 63.1406 165.75 63.7812 Q166.3281 64.4062 166.3281 65.6328 Q166.3281 66.8594 165.5078 67.5156 Q164.6875 68.1719 163.1406 68.1719 Q162.1875 68.1719 161.8281 68.0312 L161.8281 70.5 L160.75 70.5 Z" style="fill:black; stroke:none;" /></g><g ID="li-1:6,15" style="fill:white; text-rendering:optimizeSpeed; font-family:'Serif'; stroke:white;"><rect height="9" style="stroke:none;" width="7" x="226" y="57" /><path d="M227.5312 59.3438 L226.875 59.3438 L226.875 57.7812 Q227.5 57.4375 228.1406 57.2656 Q228.7812 57.0938 229.3906 57.0938 Q230.75 57.0938 231.5391 57.7578 Q232.3281 58.4219 232.3281 59.5469 Q232.3281 60.8438 230.5469 62.625 Q230.4062 62.7656 230.3281 62.8281 L228.125 65.0312 L231.7656 65.0312 L231.7656 63.9531 L232.4531 63.9531 L232.4531 66 L226.8125 66 L226.8125 65.3594 L229.4688 62.7188 Q230.3438 61.8281 230.7188 61.0938 Q231.0938 60.3594 231.0938 59.5469 Q231.0938 58.6719 230.6328 58.1719 Q230.1719 57.6719 229.375 57.6719 Q228.5312 57.6719 228.0781 58.0859 Q227.625 58.5 227.5312 59.3438 Z" style="fill:black; stroke:none;" /><rect height="13" style="stroke:none;" width="7" x="212" y="55" /><path d="M213.8281 67.25 Q214.2969 67.5938 215.1719 67.5938 Q216.0625 67.5938 216.5781 67.0703 Q217.0938 66.5469 217.0938 65.6562 Q217.0938 64.4219 216.5625 63.8906 Q216.0156 63.3594 215 63.3594 L214.4375 63.3594 L214.4375 62.7188 L214.7344 62.7188 Q215.4844 62.7188 216 62.2969 Q216.4219 61.9531 216.4219 61.0156 Q216.4219 60.6094 216.1406 60.1406 Q215.6875 59.375 215.1562 59.3906 Q213.8281 59.4375 213.8281 61.7812 L213.8281 67.25 ZM212.75 70.5 L212.75 61.7812 Q212.75 59.3281 214.0781 59 Q214.7656 58.8125 215.25 58.8125 Q216.3438 58.8125 217.0469 59.6719 Q217.6094 60.3594 217.6094 60.9375 Q217.6094 61.7812 217.2031 62.2656 Q216.7969 62.75 216.0625 62.9844 Q217.1406 63.1406 217.75 63.7812 Q218.3281 64.4062 218.3281 65.6328 Q218.3281 66.8594 217.5078 67.5156 Q216.6875 68.1719 215.1406 68.1719 Q214.1875 68.1719 213.8281 68.0312 L213.8281 70.5 L212.75 70.5 Z" style="fill:black; stroke:none;" /></g><g ID="li-1:4,5" style="fill:white; text-rendering:optimizeSpeed; font-family:'Serif'; stroke:white;"><rect height="10" style="stroke:none;" width="7" x="284" y="107" /><path d="M285.1719 108.625 Q285.8594 108.3594 286.4844 108.2266 Q287.1094 108.0938 287.6562 108.0938 Q288.9531 108.0938 289.6719 108.6484 Q290.3906 109.2031 290.3906 110.1875 Q290.3906 110.9688 289.8906 111.5 Q289.3906 112.0312 288.4844 112.2188 Q289.5625 112.375 290.1562 113.0078 Q290.75 113.6406 290.75 114.6406 Q290.75 115.8594 289.9219 116.5156 Q289.0938 117.1719 287.5469 117.1719 Q286.8594 117.1719 286.2109 117.0234 Q285.5625 116.875 284.9219 116.5781 L284.9219 114.875 L285.5781 114.875 Q285.625 115.7188 286.1406 116.1562 Q286.6562 116.5938 287.5781 116.5938 Q288.4688 116.5938 288.9922 116.0703 Q289.5156 115.5469 289.5156 114.6562 Q289.5156 113.625 288.9766 113.0938 Q288.4375 112.5625 287.4062 112.5625 L286.8594 112.5625 L286.8594 111.9531 L287.1406 111.9531 Q288.1719 111.9531 288.6875 111.5312 Q289.2031 111.1094 289.2031 110.25 Q289.2031 109.4844 288.7812 109.0781 Q288.3594 108.6719 287.5625 108.6719 Q286.7656 108.6719 286.3359 109.0469 Q285.9062 109.4219 285.8281 110.1562 L285.1719 110.1562 L285.1719 108.625 Z" style="fill:black; stroke:none;" /><rect height="8" style="stroke:none;" width="8" x="267" y="121" /><path d="M272.1875 127.4688 L271.9531 128.1094 Q271.7656 128.625 271.2031 128.9375 Q270.8438 129.1562 270.2031 129.1406 Q269.0469 129.1406 268.3281 128.2344 Q267.5938 127.3281 267.5938 125.8594 Q267.5938 124.4219 268.3281 123.4844 Q269.0156 122.5938 270.4531 122.6094 Q271.4531 122.6094 271.9531 123 Q272.4062 123.3438 272.5781 124.0938 L272.625 124.3125 L272.8438 123.6719 Q273.0625 123.0469 273.6562 122.75 L274.25 122.75 L274.25 123.0938 Q273.6875 123.2656 273.5 123.8125 L272.8906 125.4844 L273.2969 127.2812 Q273.5 128.2031 273.7344 128.2969 Q274.0469 128.4375 274.7812 128 L274.7812 128.7188 Q273.5938 129.4062 272.75 128.6875 Q272.375 128.3594 272.2656 127.875 L272.1875 127.4688 ZM271.9219 126.3125 L271.5625 124.5938 Q271.2656 123.2188 270.4688 123.2188 Q269.7969 123.2031 269.2812 123.9375 Q268.8594 124.5156 268.8594 125.875 Q268.8594 127.1719 269.2812 127.8281 Q269.75 128.5469 270.5312 128.5 Q271.2031 128.4375 271.6875 127 L271.9219 126.3125 Z" style="fill:black; stroke:none;" /></g><g ID="li-1:4,6" style="fill:white; text-rendering:optimizeSpeed; font-family:'Serif'; stroke:white;"><rect height="10" style="stroke:none;" width="7" x="275" y="81" /><path d="M278.9219 90.5938 Q279.75 90.5938 280.1953 89.9844 Q280.6406 89.375 280.6406 88.2344 Q280.6406 87.1094 280.1953 86.5 Q279.75 85.8906 278.9219 85.8906 Q278.0938 85.8906 277.6484 86.4766 Q277.2031 87.0625 277.2031 88.1719 Q277.2031 89.3281 277.6484 89.9609 Q278.0938 90.5938 278.9219 90.5938 ZM277.0156 86.1875 Q277.4219 85.75 277.9219 85.5312 Q278.4219 85.3125 279.0625 85.3125 Q280.3594 85.3125 281.1172 86.0938 Q281.875 86.875 281.875 88.2344 Q281.875 89.5625 281.0625 90.3672 Q280.25 91.1719 278.875 91.1719 Q277.3906 91.1719 276.5938 90.0625 Q275.7969 88.9531 275.7969 86.9062 Q275.7969 84.6094 276.7422 83.3516 Q277.6875 82.0938 279.4062 82.0938 Q279.875 82.0938 280.3828 82.1797 Q280.8906 82.2656 281.4219 82.4375 L281.4219 83.8906 L280.7656 83.8906 Q280.6875 83.2969 280.3047 82.9844 Q279.9219 82.6719 279.2812 82.6719 Q278.1406 82.6719 277.5859 83.5312 Q277.0312 84.3906 277.0156 86.1875 Z" style="fill:black; stroke:none;" /><rect height="8" style="stroke:none;" width="8" x="257" y="69" /><path d="M262.1875 75.4688 L261.9531 76.1094 Q261.7656 76.625 261.2031 76.9375 Q260.8438 77.1562 260.2031 77.1406 Q259.0469 77.1406 258.3281 76.2344 Q257.5938 75.3281 257.5938 73.8594 Q257.5938 72.4219 258.3281 71.4844 Q259.0156 70.5938 260.4531 70.6094 Q261.4531 70.6094 261.9531 71 Q262.4062 71.3438 262.5781 72.0938 L262.625 72.3125 L262.8438 71.6719 Q263.0625 71.0469 263.6562 70.75 L264.25 70.75 L264.25 71.0938 Q263.6875 71.2656 263.5 71.8125 L262.8906 73.4844 L263.2969 75.2812 Q263.5 76.2031 263.7344 76.2969 Q264.0469 76.4375 264.7812 76 L264.7812 76.7188 Q263.5938 77.4062 262.75 76.6875 Q262.375 76.3594 262.2656 75.875 L262.1875 75.4688 ZM261.9219 74.3125 L261.5625 72.5938 Q261.2656 71.2188 260.4688 71.2188 Q259.7969 71.2031 259.2812 71.9375 Q258.8594 72.5156 258.8594 73.875 Q258.8594 75.1719 259.2812 75.8281 Q259.75 76.5469 260.5312 76.5 Q261.2031 76.4375 261.6875 75 L261.9219 74.3125 Z" style="fill:black; stroke:none;" /></g><g ID="li-1:2,4" style="fill:white; text-rendering:optimizeSpeed; font-family:'Serif'; stroke:white;"><rect height="9" style="stroke:none;" width="8" x="330" y="96" /><path d="M334.1875 102.0312 L334.1875 97.375 L331.2031 102.0312 L334.1875 102.0312 ZM336.7656 105 L332.7812 105 L332.7812 104.375 L334.1875 104.375 L334.1875 102.6562 L330.375 102.6562 L330.375 102.0156 L334.2031 96.0938 L335.3594 96.0938 L335.3594 102.0312 L337.0312 102.0312 L337.0312 102.6562 L335.3594 102.6562 L335.3594 104.375 L336.7656 104.375 L336.7656 105 Z" style="fill:black; stroke:none;" /><rect height="13" style="stroke:none;" width="7" x="316" y="94" /><path d="M317.8281 106.25 Q318.2969 106.5938 319.1719 106.5938 Q320.0625 106.5938 320.5781 106.0703 Q321.0938 105.5469 321.0938 104.6562 Q321.0938 103.4219 320.5625 102.8906 Q320.0156 102.3594 319 102.3594 L318.4375 102.3594 L318.4375 101.7188 L318.7344 101.7188 Q319.4844 101.7188 320 101.2969 Q320.4219 100.9531 320.4219 100.0156 Q320.4219 99.6094 320.1406 99.1406 Q319.6875 98.375 319.1562 98.3906 Q317.8281 98.4375 317.8281 100.7812 L317.8281 106.25 ZM316.75 109.5 L316.75 100.7812 Q316.75 98.3281 318.0781 98 Q318.7656 97.8125 319.25 97.8125 Q320.3438 97.8125 321.0469 98.6719 Q321.6094 99.3594 321.6094 99.9375 Q321.6094 100.7812 321.2031 101.2656 Q320.7969 101.75 320.0625 101.9844 Q321.1406 102.1406 321.75 102.7812 Q322.3281 103.4062 322.3281 104.6328 Q322.3281 105.8594 321.5078 106.5156 Q320.6875 107.1719 319.1406 107.1719 Q318.1875 107.1719 317.8281 107.0312 L317.8281 109.5 L316.75 109.5 Z" style="fill:black; stroke:none;" /></g><g ID="r-1:3" style="fill:white; text-rendering:optimizeSpeed; stroke:white;" wurcs_mono_id="18"><polygon points=" 405 52 394 30 416 30" style="stroke:none; clip-path:url(#clipPath18);" /><rect height="22" style="clip-path:url(#clipPath18); fill:rgb(237,28,36); stroke:none;" width="22" x="394" y="30" /><rect height="22" style="clip-path:url(#clipPath18); fill:none; stroke:black;" width="22" x="394" y="30" /><polygon points=" 405 52 394 30 416 30" style="fill:none; stroke:black;" /></g><g ID="li-1:1,2" style="fill:white; text-rendering:optimizeSpeed; font-family:'Serif'; stroke:white;"><rect height="9" style="stroke:none;" width="8" x="382" y="96" /><path d="M386.1875 102.0312 L386.1875 97.375 L383.2031 102.0312 L386.1875 102.0312 ZM388.7656 105 L384.7812 105 L384.7812 104.375 L386.1875 104.375 L386.1875 102.6562 L382.375 102.6562 L382.375 102.0156 L386.2031 96.0938 L387.3594 96.0938 L387.3594 102.0312 L389.0312 102.0312 L389.0312 102.6562 L387.3594 102.6562 L387.3594 104.375 L388.7656 104.375 L388.7656 105 Z" style="fill:black; stroke:none;" /><rect height="13" style="stroke:none;" width="7" x="368" y="94" /><path d="M369.8281 106.25 Q370.2969 106.5938 371.1719 106.5938 Q372.0625 106.5938 372.5781 106.0703 Q373.0938 105.5469 373.0938 104.6562 Q373.0938 103.4219 372.5625 102.8906 Q372.0156 102.3594 371 102.3594 L370.4375 102.3594 L370.4375 101.7188 L370.7344 101.7188 Q371.4844 101.7188 372 101.2969 Q372.4219 100.9531 372.4219 100.0156 Q372.4219 99.6094 372.1406 99.1406 Q371.6875 98.375 371.1562 98.3906 Q369.8281 98.4375 369.8281 100.7812 L369.8281 106.25 ZM368.75 109.5 L368.75 100.7812 Q368.75 98.3281 370.0781 98 Q370.7656 97.8125 371.25 97.8125 Q372.3438 97.8125 373.0469 98.6719 Q373.6094 99.3594 373.6094 99.9375 Q373.6094 100.7812 373.2031 101.2656 Q372.7969 101.75 372.0625 101.9844 Q373.1406 102.1406 373.75 102.7812 Q374.3281 103.4062 374.3281 104.6328 Q374.3281 105.8594 373.5078 106.5156 Q372.6875 107.1719 371.1406 107.1719 Q370.1875 107.1719 369.8281 107.0312 L369.8281 109.5 L368.75 109.5 Z" style="fill:black; stroke:none;" /></g><g ID="li-1:1,3" style="fill:white; text-rendering:optimizeSpeed; font-family:'Serif'; stroke:white;"><rect height="10" style="stroke:none;" width="7" x="393" y="69" /><path d="M396.9219 78.5938 Q397.75 78.5938 398.1953 77.9844 Q398.6406 77.375 398.6406 76.2344 Q398.6406 75.1094 398.1953 74.5 Q397.75 73.8906 396.9219 73.8906 Q396.0938 73.8906 395.6484 74.4766 Q395.2031 75.0625 395.2031 76.1719 Q395.2031 77.3281 395.6484 77.9609 Q396.0938 78.5938 396.9219 78.5938 ZM395.0156 74.1875 Q395.4219 73.75 395.9219 73.5312 Q396.4219 73.3125 397.0625 73.3125 Q398.3594 73.3125 399.1172 74.0938 Q399.875 74.875 399.875 76.2344 Q399.875 77.5625 399.0625 78.3672 Q398.25 79.1719 396.875 79.1719 Q395.3906 79.1719 394.5938 78.0625 Q393.7969 76.9531 393.7969 74.9062 Q393.7969 72.6094 394.7422 71.3516 Q395.6875 70.0938 397.4062 70.0938 Q397.875 70.0938 398.3828 70.1797 Q398.8906 70.2656 399.4219 70.4375 L399.4219 71.8906 L398.7656 71.8906 Q398.6875 71.2969 398.3047 70.9844 Q397.9219 70.6719 397.2812 70.6719 Q396.1406 70.6719 395.5859 71.5312 Q395.0312 72.3906 395.0156 74.1875 Z" style="fill:black; stroke:none;" /><rect height="8" style="stroke:none;" width="8" x="393" y="56" /><path d="M398.1875 62.4688 L397.9531 63.1094 Q397.7656 63.625 397.2031 63.9375 Q396.8438 64.1562 396.2031 64.1406 Q395.0469 64.1406 394.3281 63.2344 Q393.5938 62.3281 393.5938 60.8594 Q393.5938 59.4219 394.3281 58.4844 Q395.0156 57.5938 396.4531 57.6094 Q397.4531 57.6094 397.9531 58 Q398.4062 58.3438 398.5781 59.0938 L398.625 59.3125 L398.8438 58.6719 Q399.0625 58.0469 399.6562 57.75 L400.25 57.75 L400.25 58.0938 Q399.6875 58.2656 399.5 58.8125 L398.8906 60.4844 L399.2969 62.2812 Q399.5 63.2031 399.7344 63.2969 Q400.0469 63.4375 400.7812 63 L400.7812 63.7188 Q399.5938 64.4062 398.75 63.6875 Q398.375 63.3594 398.2656 62.875 L398.1875 62.4688 ZM397.9219 61.3125 L397.5625 59.5938 Q397.2656 58.2188 396.4688 58.2188 Q395.7969 58.2031 395.2812 58.9375 Q394.8594 59.5156 394.8594 60.875 Q394.8594 62.1719 395.2812 62.8281 Q395.75 63.5469 396.5312 63.5 Q397.2031 63.4375 397.6875 62 L397.9219 61.3125 Z" style="fill:black; stroke:none;" /></g></g></svg>