<svg xmlns="http://www.w3.org/2000/svg" style="fill-opacity:1; color-rendering:auto; color-interpolation:auto; text-rendering:auto; stroke:black; stroke-linecap:square; stroke-miterlimit:10; shape-rendering:auto; stroke-opacity:1; fill:black; stroke-dasharray:none; font-weight:normal; stroke-width:1; font-family:'Dialog'; font-style:normal; stroke-linejoin:miter; font-size:12px; stroke-dashoffset:0; image-rendering:auto;"><defs id="genericDefs" /><g><defs id="defs1"><clipPath clipPathUnits="userSpaceOnUse" id="clipPath1"><path d="M238 82 L260 82 L260 104 L238 104 L238 82 Z" /></clipPath><clipPath clipPathUnits="userSpaceOnUse" id="clipPath2"><path d="M186 82 L208 82 L208 104 L186 104 L186 82 Z" /></clipPath><clipPath clipPathUnits="userSpaceOnUse" id="clipPath3"><path d="M156 93 C156 99.0751 151.0751 104 145 104 C138.9249 104 134 99.0751 134 93 C134 86.9249 138.9249 82 145 82 C151.0751 82 156 86.9249 156 93 Z" /></clipPath><clipPath clipPathUnits="userSpaceOnUse" id="clipPath4"><path d="M104 223 C104 229.0751 99.0751 234 93 234 C86.9249 234 82 229.0751 82 223 C82 216.9249 86.9249 212 93 212 C99.0751 212 104 216.9249 104 223 Z" /></clipPath><clipPath clipPathUnits="userSpaceOnUse" id="clipPath5"><path d="M30 264 L52 264 L52 286 L30 286 L30 264 Z" /></clipPath><clipPath clipPathUnits="userSpaceOnUse" id="clipPath6"><path d="M30 212 L52 212 L52 234 L30 234 L30 212 Z" /></clipPath><clipPath clipPathUnits="userSpaceOnUse" id="clipPath7"><path d="M30 160 L52 160 L52 182 L30 182 L30 160 Z" /></clipPath><clipPath clipPathUnits="userSpaceOnUse" id="clipPath8"><path d="M104 93 C104 99.0751 99.0751 104 93 104 C86.9249 104 82 99.0751 82 93 C82 86.9249 86.9249 82 93 82 C99.0751 82 104 86.9249 104 93 Z" /></clipPath><clipPath clipPathUnits="userSpaceOnUse" id="clipPath9"><path d="M30 108 L52 108 L52 130 L30 130 L30 108 Z" /></clipPath><clipPath clipPathUnits="userSpaceOnUse" id="clipPath10"><path d="M30 56 L52 56 L52 78 L30 78 L30 56 Z" /></clipPath><clipPath clipPathUnits="userSpaceOnUse" id="clipPath11"><path d="M82 30 L104 30 L104 52 L82 52 L82 30 Z" /></clipPath></defs><g style="fill:white; text-rendering:optimizeSpeed; stroke:white;"><rect height="316" style="stroke:none;" width="290" x="0" y="0" /></g><g ID="l-1:1,2" style="text-rendering:optimizeSpeed;"><polygon points=" 249 93 197 93" style="fill:none;" /></g><g ID="r-1:1" style="fill:white; text-rendering:optimizeSpeed; stroke:white;" wurcs_mono_id="1"><rect height="22" style="clip-path:url(#clipPath1); stroke:none;" width="22" x="238" y="82" /><rect height="22" style="clip-path:url(#clipPath1); fill:rgb(0,144,188); stroke:none;" width="22" x="238" y="82" /><rect height="22" style="clip-path:url(#clipPath1); fill:none; stroke:black;" width="22" x="238" y="82" /><rect height="22" style="fill:none; stroke:black;" width="22" x="238" y="82" /></g><g ID="l-1:2,3" style="text-rendering:optimizeSpeed;"><polygon points=" 197 93 145 93" style="fill:none;" /></g><g ID="r-1:2" style="fill:white; text-rendering:optimizeSpeed; stroke:white;" wurcs_mono_id="2"><rect height="22" style="clip-path:url(#clipPath2); stroke:none;" width="22" x="186" y="82" /><rect height="22" style="clip-path:url(#clipPath2); fill:rgb(0,144,188); stroke:none;" width="22" x="186" y="82" /><rect height="22" style="clip-path:url(#clipPath2); fill:none; stroke:black;" width="22" x="186" y="82" /><rect height="22" style="fill:none; stroke:black;" width="22" x="186" y="82" /></g><g ID="l-1:3,4" style="text-rendering:optimizeSpeed;"><polygon points=" 145 93 93 223" style="fill:none;" /></g><g ID="l-1:3,5" style="text-rendering:optimizeSpeed;"><polygon points=" 145 93 93 93" style="fill:none;" /></g><g ID="l-1:3,6" style="text-rendering:optimizeSpeed;"><polygon points=" 145 93 93 41" style="fill:none;" /></g><g ID="r-1:3" style="fill:white; text-rendering:optimizeSpeed; stroke:white;" wurcs_mono_id="3"><circle cx="145" cy="93" r="11" style="clip-path:url(#clipPath3); stroke:none;" /><rect height="22" style="clip-path:url(#clipPath3); fill:rgb(0,166,81); stroke:none;" width="22" x="134" y="82" /><rect height="22" style="clip-path:url(#clipPath3); fill:none; stroke:black;" width="22" x="134" y="82" /><circle cx="145" cy="93" r="11" style="fill:none; stroke:black;" /></g><g ID="l-1:4,7" style="text-rendering:optimizeSpeed;"><polygon points=" 93 223 41 275" style="fill:none;" /></g><g ID="l-1:4,8" style="text-rendering:optimizeSpeed;"><polygon points=" 93 223 41 223" style="fill:none;" /></g><g ID="l-1:4,9" style="text-rendering:optimizeSpeed;"><polygon points=" 93 223 41 171" style="fill:none;" /></g><g ID="r-1:4" style="fill:white; text-rendering:optimizeSpeed; stroke:white;" wurcs_mono_id="4"><circle cx="93" cy="223" r="11" style="clip-path:url(#clipPath4); stroke:none;" /><rect height="22" style="clip-path:url(#clipPath4); fill:rgb(0,166,81); stroke:none;" width="22" x="82" y="212" /><rect height="22" style="clip-path:url(#clipPath4); fill:none; stroke:black;" width="22" x="82" y="212" /><circle cx="93" cy="223" r="11" style="fill:none; stroke:black;" /></g><g ID="r-1:7" style="fill:white; text-rendering:optimizeSpeed; stroke:white;" wurcs_mono_id="6"><rect height="22" style="clip-path:url(#clipPath5); stroke:none;" width="22" x="30" y="264" /><rect height="22" style="clip-path:url(#clipPath5); fill:rgb(0,144,188); stroke:none;" width="22" x="30" y="264" /><rect height="22" style="clip-path:url(#clipPath5); fill:none; stroke:black;" width="22" x="30" y="264" /><rect height="22" style="fill:none; stroke:black;" width="22" x="30" y="264" /></g><g ID="r-1:8" style="fill:white; text-rendering:optimizeSpeed; stroke:white;" wurcs_mono_id="5"><rect height="22" style="clip-path:url(#clipPath6); stroke:none;" width="22" x="30" y="212" /><rect height="22" style="clip-path:url(#clipPath6); fill:rgb(0,144,188); stroke:none;" width="22" x="30" y="212" /><rect height="22" style="clip-path:url(#clipPath6); fill:none; stroke:black;" width="22" x="30" y="212" /><rect height="22" style="fill:none; stroke:black;" width="22" x="30" y="212" /></g><g ID="r-1:9" style="fill:white; text-rendering:optimizeSpeed; stroke:white;" wurcs_mono_id="7"><rect height="22" style="clip-path:url(#clipPath7); stroke:none;" width="22" x="30" y="160" /><rect height="22" style="clip-path:url(#clipPath7); fill:rgb(0,144,188); stroke:none;" width="22" x="30" y="160" /><rect height="22" style="clip-path:url(#clipPath7); fill:none; stroke:black;" width="22" x="30" y="160" /><rect height="22" style="fill:none; stroke:black;" width="22" x="30" y="160" /></g><g ID="li-1:4,7" style="fill:white; text-rendering:optimizeSpeed; font-family:'Serif'; stroke:white;"><rect height="10" style="stroke:none;" width="6" x="79" y="240" /><path d="M81.1094 249.3906 Q81.1094 249.0625 81.3359 248.8359 Q81.5625 248.6094 81.8906 248.6094 Q82.2188 248.6094 82.4453 248.8359 Q82.6719 249.0625 82.6719 249.3906 Q82.6719 249.7188 82.4453 249.9453 Q82.2188 250.1719 81.8906 250.1719 Q81.5625 250.1719 81.3359 249.9453 Q81.1094 249.7188 81.1094 249.3906 ZM79.8125 241.6406 Q80.4375 241.3594 81 241.2266 Q81.5625 241.0938 82.0469 241.0938 Q83.3438 241.0938 84.1016 241.7188 Q84.8594 242.3438 84.8594 243.4062 Q84.8594 244.5 84.2109 245.1953 Q83.5625 245.8906 82.25 246.1875 L82.25 247.6719 L81.5312 247.6719 L81.5312 245.75 Q82.5625 245.5 83.0938 244.9062 Q83.625 244.3125 83.625 243.4062 Q83.625 242.5938 83.1953 242.1328 Q82.7656 241.6719 82.0312 241.6719 Q81.3594 241.6719 80.9297 242.0547 Q80.5 242.4375 80.3906 243.1562 L79.8125 243.1562 L79.8125 241.6406 Z" style="fill:black; stroke:none;" /><rect height="10" style="stroke:none;" width="6" x="60" y="259" /><path d="M62.1094 268.3906 Q62.1094 268.0625 62.3359 267.8359 Q62.5625 267.6094 62.8906 267.6094 Q63.2188 267.6094 63.4453 267.8359 Q63.6719 268.0625 63.6719 268.3906 Q63.6719 268.7188 63.4453 268.9453 Q63.2188 269.1719 62.8906 269.1719 Q62.5625 269.1719 62.3359 268.9453 Q62.1094 268.7188 62.1094 268.3906 ZM60.8125 260.6406 Q61.4375 260.3594 62 260.2266 Q62.5625 260.0938 63.0469 260.0938 Q64.3438 260.0938 65.1016 260.7188 Q65.8594 261.3438 65.8594 262.4062 Q65.8594 263.5 65.2109 264.1953 Q64.5625 264.8906 63.25 265.1875 L63.25 266.6719 L62.5312 266.6719 L62.5312 264.75 Q63.5625 264.5 64.0938 263.9062 Q64.625 263.3125 64.625 262.4062 Q64.625 261.5938 64.1953 261.1328 Q63.7656 260.6719 63.0312 260.6719 Q62.3594 260.6719 61.9297 261.0547 Q61.5 261.4375 61.3906 262.1562 L60.8125 262.1562 L60.8125 260.6406 Z" style="fill:black; stroke:none;" /></g><g ID="li-1:4,8" style="fill:white; text-rendering:optimizeSpeed; font-family:'Serif'; stroke:white;"><rect height="10" style="stroke:none;" width="6" x="71" y="226" /><path d="M73.1094 235.3906 Q73.1094 235.0625 73.3359 234.8359 Q73.5625 234.6094 73.8906 234.6094 Q74.2188 234.6094 74.4453 234.8359 Q74.6719 235.0625 74.6719 235.3906 Q74.6719 235.7188 74.4453 235.9453 Q74.2188 236.1719 73.8906 236.1719 Q73.5625 236.1719 73.3359 235.9453 Q73.1094 235.7188 73.1094 235.3906 ZM71.8125 227.6406 Q72.4375 227.3594 73 227.2266 Q73.5625 227.0938 74.0469 227.0938 Q75.3438 227.0938 76.1016 227.7188 Q76.8594 228.3438 76.8594 229.4062 Q76.8594 230.5 76.2109 231.1953 Q75.5625 231.8906 74.25 232.1875 L74.25 233.6719 L73.5312 233.6719 L73.5312 231.75 Q74.5625 231.5 75.0938 230.9062 Q75.625 230.3125 75.625 229.4062 Q75.625 228.5938 75.1953 228.1328 Q74.7656 227.6719 74.0312 227.6719 Q73.3594 227.6719 72.9297 228.0547 Q72.5 228.4375 72.3906 229.1562 L71.8125 229.1562 L71.8125 227.6406 Z" style="fill:black; stroke:none;" /><rect height="10" style="stroke:none;" width="6" x="57" y="226" /><path d="M59.1094 235.3906 Q59.1094 235.0625 59.3359 234.8359 Q59.5625 234.6094 59.8906 234.6094 Q60.2188 234.6094 60.4453 234.8359 Q60.6719 235.0625 60.6719 235.3906 Q60.6719 235.7188 60.4453 235.9453 Q60.2188 236.1719 59.8906 236.1719 Q59.5625 236.1719 59.3359 235.9453 Q59.1094 235.7188 59.1094 235.3906 ZM57.8125 227.6406 Q58.4375 227.3594 59 227.2266 Q59.5625 227.0938 60.0469 227.0938 Q61.3438 227.0938 62.1016 227.7188 Q62.8594 228.3438 62.8594 229.4062 Q62.8594 230.5 62.2109 231.1953 Q61.5625 231.8906 60.25 232.1875 L60.25 233.6719 L59.5312 233.6719 L59.5312 231.75 Q60.5625 231.5 61.0938 230.9062 Q61.625 230.3125 61.625 229.4062 Q61.625 228.5938 61.1953 228.1328 Q60.7656 227.6719 60.0312 227.6719 Q59.3594 227.6719 58.9297 228.0547 Q58.5 228.4375 58.3906 229.1562 L57.8125 229.1562 L57.8125 227.6406 Z" style="fill:black; stroke:none;" /></g><g ID="li-1:4,9" style="fill:white; text-rendering:optimizeSpeed; font-family:'Serif'; stroke:white;"><rect height="10" style="stroke:none;" width="6" x="67" y="207" /><path d="M69.1094 216.3906 Q69.1094 216.0625 69.3359 215.8359 Q69.5625 215.6094 69.8906 215.6094 Q70.2188 215.6094 70.4453 215.8359 Q70.6719 216.0625 70.6719 216.3906 Q70.6719 216.7188 70.4453 216.9453 Q70.2188 217.1719 69.8906 217.1719 Q69.5625 217.1719 69.3359 216.9453 Q69.1094 216.7188 69.1094 216.3906 ZM67.8125 208.6406 Q68.4375 208.3594 69 208.2266 Q69.5625 208.0938 70.0469 208.0938 Q71.3438 208.0938 72.1016 208.7188 Q72.8594 209.3438 72.8594 210.4062 Q72.8594 211.5 72.2109 212.1953 Q71.5625 212.8906 70.25 213.1875 L70.25 214.6719 L69.5312 214.6719 L69.5312 212.75 Q70.5625 212.5 71.0938 211.9062 Q71.625 211.3125 71.625 210.4062 Q71.625 209.5938 71.1953 209.1328 Q70.7656 208.6719 70.0312 208.6719 Q69.3594 208.6719 68.9297 209.0547 Q68.5 209.4375 68.3906 210.1562 L67.8125 210.1562 L67.8125 208.6406 Z" style="fill:black; stroke:none;" /><rect height="10" style="stroke:none;" width="6" x="49" y="188" /><path d="M51.1094 197.3906 Q51.1094 197.0625 51.3359 196.8359 Q51.5625 196.6094 51.8906 196.6094 Q52.2188 196.6094 52.4453 196.8359 Q52.6719 197.0625 52.6719 197.3906 Q52.6719 197.7188 52.4453 197.9453 Q52.2188 198.1719 51.8906 198.1719 Q51.5625 198.1719 51.3359 197.9453 Q51.1094 197.7188 51.1094 197.3906 ZM49.8125 189.6406 Q50.4375 189.3594 51 189.2266 Q51.5625 189.0938 52.0469 189.0938 Q53.3438 189.0938 54.1016 189.7188 Q54.8594 190.3438 54.8594 191.4062 Q54.8594 192.5 54.2109 193.1953 Q53.5625 193.8906 52.25 194.1875 L52.25 195.6719 L51.5312 195.6719 L51.5312 193.75 Q52.5625 193.5 53.0938 192.9062 Q53.625 192.3125 53.625 191.4062 Q53.625 190.5938 53.1953 190.1328 Q52.7656 189.6719 52.0312 189.6719 Q51.3594 189.6719 50.9297 190.0547 Q50.5 190.4375 50.3906 191.1562 L49.8125 191.1562 L49.8125 189.6406 Z" style="fill:black; stroke:none;" /></g><g ID="l-1:5,10" style="text-rendering:optimizeSpeed;"><polygon points=" 93 93 41 119" style="fill:none;" /></g><g ID="l-1:5,11" style="text-rendering:optimizeSpeed;"><polygon points=" 93 93 41 67" style="fill:none;" /></g><g ID="r-1:5" style="fill:white; text-rendering:optimizeSpeed; stroke:white;" wurcs_mono_id="8"><circle cx="93" cy="93" r="11" style="clip-path:url(#clipPath8); stroke:none;" /><rect height="22" style="clip-path:url(#clipPath8); fill:rgb(0,166,81); stroke:none;" width="22" x="82" y="82" /><rect height="22" style="clip-path:url(#clipPath8); fill:none; stroke:black;" width="22" x="82" y="82" /><circle cx="93" cy="93" r="11" style="fill:none; stroke:black;" /></g><g ID="r-1:10" style="fill:white; text-rendering:optimizeSpeed; stroke:white;" wurcs_mono_id="9"><rect height="22" style="clip-path:url(#clipPath9); stroke:none;" width="22" x="30" y="108" /><rect height="22" style="clip-path:url(#clipPath9); fill:rgb(0,144,188); stroke:none;" width="22" x="30" y="108" /><rect height="22" style="clip-path:url(#clipPath9); fill:none; stroke:black;" width="22" x="30" y="108" /><rect height="22" style="fill:none; stroke:black;" width="22" x="30" y="108" /></g><g ID="r-1:11" style="fill:white; text-rendering:optimizeSpeed; stroke:white;" wurcs_mono_id="10"><rect height="22" style="clip-path:url(#clipPath10); stroke:none;" width="22" x="30" y="56" /><rect height="22" style="clip-path:url(#clipPath10); fill:rgb(0,144,188); stroke:none;" width="22" x="30" y="56" /><rect height="22" style="clip-path:url(#clipPath10); fill:none; stroke:black;" width="22" x="30" y="56" /><rect height="22" style="fill:none; stroke:black;" width="22" x="30" y="56" /></g><g ID="li-1:5,10" style="fill:white; text-rendering:optimizeSpeed; font-family:'Serif'; stroke:white;"><rect height="10" style="stroke:none;" width="6" x="75" y="104" /><path d="M77.1094 113.3906 Q77.1094 113.0625 77.3359 112.8359 Q77.5625 112.6094 77.8906 112.6094 Q78.2188 112.6094 78.4453 112.8359 Q78.6719 113.0625 78.6719 113.3906 Q78.6719 113.7188 78.4453 113.9453 Q78.2188 114.1719 77.8906 114.1719 Q77.5625 114.1719 77.3359 113.9453 Q77.1094 113.7188 77.1094 113.3906 ZM75.8125 105.6406 Q76.4375 105.3594 77 105.2266 Q77.5625 105.0938 78.0469 105.0938 Q79.3438 105.0938 80.1016 105.7188 Q80.8594 106.3438 80.8594 107.4062 Q80.8594 108.5 80.2109 109.1953 Q79.5625 109.8906 78.25 110.1875 L78.25 111.6719 L77.5312 111.6719 L77.5312 109.75 Q78.5625 109.5 79.0938 108.9062 Q79.625 108.3125 79.625 107.4062 Q79.625 106.5938 79.1953 106.1328 Q78.7656 105.6719 78.0312 105.6719 Q77.3594 105.6719 76.9297 106.0547 Q76.5 106.4375 76.3906 107.1562 L75.8125 107.1562 L75.8125 105.6406 Z" style="fill:black; stroke:none;" /><rect height="10" style="stroke:none;" width="6" x="59" y="112" /><path d="M61.1094 121.3906 Q61.1094 121.0625 61.3359 120.8359 Q61.5625 120.6094 61.8906 120.6094 Q62.2188 120.6094 62.4453 120.8359 Q62.6719 121.0625 62.6719 121.3906 Q62.6719 121.7188 62.4453 121.9453 Q62.2188 122.1719 61.8906 122.1719 Q61.5625 122.1719 61.3359 121.9453 Q61.1094 121.7188 61.1094 121.3906 ZM59.8125 113.6406 Q60.4375 113.3594 61 113.2266 Q61.5625 113.0938 62.0469 113.0938 Q63.3438 113.0938 64.1016 113.7188 Q64.8594 114.3438 64.8594 115.4062 Q64.8594 116.5 64.2109 117.1953 Q63.5625 117.8906 62.25 118.1875 L62.25 119.6719 L61.5312 119.6719 L61.5312 117.75 Q62.5625 117.5 63.0938 116.9062 Q63.625 116.3125 63.625 115.4062 Q63.625 114.5938 63.1953 114.1328 Q62.7656 113.6719 62.0312 113.6719 Q61.3594 113.6719 60.9297 114.0547 Q60.5 114.4375 60.3906 115.1562 L59.8125 115.1562 L59.8125 113.6406 Z" style="fill:black; stroke:none;" /></g><g ID="li-1:5,11" style="fill:white; text-rendering:optimizeSpeed; font-family:'Serif'; stroke:white;"><rect height="10" style="stroke:none;" width="6" x="68" y="86" /><path d="M70.1094 95.3906 Q70.1094 95.0625 70.3359 94.8359 Q70.5625 94.6094 70.8906 94.6094 Q71.2188 94.6094 71.4453 94.8359 Q71.6719 95.0625 71.6719 95.3906 Q71.6719 95.7188 71.4453 95.9453 Q71.2188 96.1719 70.8906 96.1719 Q70.5625 96.1719 70.3359 95.9453 Q70.1094 95.7188 70.1094 95.3906 ZM68.8125 87.6406 Q69.4375 87.3594 70 87.2266 Q70.5625 87.0938 71.0469 87.0938 Q72.3438 87.0938 73.1016 87.7188 Q73.8594 88.3438 73.8594 89.4062 Q73.8594 90.5 73.2109 91.1953 Q72.5625 91.8906 71.25 92.1875 L71.25 93.6719 L70.5312 93.6719 L70.5312 91.75 Q71.5625 91.5 72.0938 90.9062 Q72.625 90.3125 72.625 89.4062 Q72.625 88.5938 72.1953 88.1328 Q71.7656 87.6719 71.0312 87.6719 Q70.3594 87.6719 69.9297 88.0547 Q69.5 88.4375 69.3906 89.1562 L68.8125 89.1562 L68.8125 87.6406 Z" style="fill:black; stroke:none;" /><rect height="10" style="stroke:none;" width="6" x="52" y="78" /><path d="M54.1094 87.3906 Q54.1094 87.0625 54.3359 86.8359 Q54.5625 86.6094 54.8906 86.6094 Q55.2188 86.6094 55.4453 86.8359 Q55.6719 87.0625 55.6719 87.3906 Q55.6719 87.7188 55.4453 87.9453 Q55.2188 88.1719 54.8906 88.1719 Q54.5625 88.1719 54.3359 87.9453 Q54.1094 87.7188 54.1094 87.3906 ZM52.8125 79.6406 Q53.4375 79.3594 54 79.2266 Q54.5625 79.0938 55.0469 79.0938 Q56.3438 79.0938 57.1016 79.7188 Q57.8594 80.3438 57.8594 81.4062 Q57.8594 82.5 57.2109 83.1953 Q56.5625 83.8906 55.25 84.1875 L55.25 85.6719 L54.5312 85.6719 L54.5312 83.75 Q55.5625 83.5 56.0938 82.9062 Q56.625 82.3125 56.625 81.4062 Q56.625 80.5938 56.1953 80.1328 Q55.7656 79.6719 55.0312 79.6719 Q54.3594 79.6719 53.9297 80.0547 Q53.5 80.4375 53.3906 81.1562 L52.8125 81.1562 L52.8125 79.6406 Z" style="fill:black; stroke:none;" /></g><g ID="r-1:6" style="fill:white; text-rendering:optimizeSpeed; stroke:white;" wurcs_mono_id="11"><rect height="22" style="clip-path:url(#clipPath11); stroke:none;" width="22" x="82" y="30" /><rect height="22" style="clip-path:url(#clipPath11); fill:rgb(0,144,188); stroke:none;" width="22" x="82" y="30" /><rect height="22" style="clip-path:url(#clipPath11); fill:none; stroke:black;" width="22" x="82" y="30" /><rect height="22" style="fill:none; stroke:black;" width="22" x="82" y="30" /></g><g ID="li-1:3,4" style="fill:white; text-rendering:optimizeSpeed; font-family:'Serif'; stroke:white;"><rect height="10" style="stroke:none;" width="6" x="142" y="109" /><path d="M144.1094 118.3906 Q144.1094 118.0625 144.3359 117.8359 Q144.5625 117.6094 144.8906 117.6094 Q145.2188 117.6094 145.4453 117.8359 Q145.6719 118.0625 145.6719 118.3906 Q145.6719 118.7188 145.4453 118.9453 Q145.2188 119.1719 144.8906 119.1719 Q144.5625 119.1719 144.3359 118.9453 Q144.1094 118.7188 144.1094 118.3906 ZM142.8125 110.6406 Q143.4375 110.3594 144 110.2266 Q144.5625 110.0938 145.0469 110.0938 Q146.3438 110.0938 147.1016 110.7188 Q147.8594 111.3438 147.8594 112.4062 Q147.8594 113.5 147.2109 114.1953 Q146.5625 114.8906 145.25 115.1875 L145.25 116.6719 L144.5312 116.6719 L144.5312 114.75 Q145.5625 114.5 146.0938 113.9062 Q146.625 113.3125 146.625 112.4062 Q146.625 111.5938 146.1953 111.1328 Q145.7656 110.6719 145.0312 110.6719 Q144.3594 110.6719 143.9297 111.0547 Q143.5 111.4375 143.3906 112.1562 L142.8125 112.1562 L142.8125 110.6406 Z" style="fill:black; stroke:none;" /><rect height="10" style="stroke:none;" width="6" x="104" y="202" /><path d="M106.1094 211.3906 Q106.1094 211.0625 106.3359 210.8359 Q106.5625 210.6094 106.8906 210.6094 Q107.2188 210.6094 107.4453 210.8359 Q107.6719 211.0625 107.6719 211.3906 Q107.6719 211.7188 107.4453 211.9453 Q107.2188 212.1719 106.8906 212.1719 Q106.5625 212.1719 106.3359 211.9453 Q106.1094 211.7188 106.1094 211.3906 ZM104.8125 203.6406 Q105.4375 203.3594 106 203.2266 Q106.5625 203.0938 107.0469 203.0938 Q108.3438 203.0938 109.1016 203.7188 Q109.8594 204.3438 109.8594 205.4062 Q109.8594 206.5 109.2109 207.1953 Q108.5625 207.8906 107.25 208.1875 L107.25 209.6719 L106.5312 209.6719 L106.5312 207.75 Q107.5625 207.5 108.0938 206.9062 Q108.625 206.3125 108.625 205.4062 Q108.625 204.5938 108.1953 204.1328 Q107.7656 203.6719 107.0312 203.6719 Q106.3594 203.6719 105.9297 204.0547 Q105.5 204.4375 105.3906 205.1562 L104.8125 205.1562 L104.8125 203.6406 Z" style="fill:black; stroke:none;" /></g><g ID="li-1:3,5" style="fill:white; text-rendering:optimizeSpeed; font-family:'Serif'; stroke:white;"><rect height="10" style="stroke:none;" width="6" x="123" y="96" /><path d="M125.1094 105.3906 Q125.1094 105.0625 125.3359 104.8359 Q125.5625 104.6094 125.8906 104.6094 Q126.2188 104.6094 126.4453 104.8359 Q126.6719 105.0625 126.6719 105.3906 Q126.6719 105.7188 126.4453 105.9453 Q126.2188 106.1719 125.8906 106.1719 Q125.5625 106.1719 125.3359 105.9453 Q125.1094 105.7188 125.1094 105.3906 ZM123.8125 97.6406 Q124.4375 97.3594 125 97.2266 Q125.5625 97.0938 126.0469 97.0938 Q127.3438 97.0938 128.1016 97.7188 Q128.8594 98.3438 128.8594 99.4062 Q128.8594 100.5 128.2109 101.1953 Q127.5625 101.8906 126.25 102.1875 L126.25 103.6719 L125.5312 103.6719 L125.5312 101.75 Q126.5625 101.5 127.0938 100.9062 Q127.625 100.3125 127.625 99.4062 Q127.625 98.5938 127.1953 98.1328 Q126.7656 97.6719 126.0312 97.6719 Q125.3594 97.6719 124.9297 98.0547 Q124.5 98.4375 124.3906 99.1562 L123.8125 99.1562 L123.8125 97.6406 Z" style="fill:black; stroke:none;" /><rect height="10" style="stroke:none;" width="6" x="109" y="96" /><path d="M111.1094 105.3906 Q111.1094 105.0625 111.3359 104.8359 Q111.5625 104.6094 111.8906 104.6094 Q112.2188 104.6094 112.4453 104.8359 Q112.6719 105.0625 112.6719 105.3906 Q112.6719 105.7188 112.4453 105.9453 Q112.2188 106.1719 111.8906 106.1719 Q111.5625 106.1719 111.3359 105.9453 Q111.1094 105.7188 111.1094 105.3906 ZM109.8125 97.6406 Q110.4375 97.3594 111 97.2266 Q111.5625 97.0938 112.0469 97.0938 Q113.3438 97.0938 114.1016 97.7188 Q114.8594 98.3438 114.8594 99.4062 Q114.8594 100.5 114.2109 101.1953 Q113.5625 101.8906 112.25 102.1875 L112.25 103.6719 L111.5312 103.6719 L111.5312 101.75 Q112.5625 101.5 113.0938 100.9062 Q113.625 100.3125 113.625 99.4062 Q113.625 98.5938 113.1953 98.1328 Q112.7656 97.6719 112.0312 97.6719 Q111.3594 97.6719 110.9297 98.0547 Q110.5 98.4375 110.3906 99.1562 L109.8125 99.1562 L109.8125 97.6406 Z" style="fill:black; stroke:none;" /></g><g ID="li-1:3,6" style="fill:white; text-rendering:optimizeSpeed; font-family:'Serif'; stroke:white;"><rect height="10" style="stroke:none;" width="6" x="119" y="77" /><path d="M121.1094 86.3906 Q121.1094 86.0625 121.3359 85.8359 Q121.5625 85.6094 121.8906 85.6094 Q122.2188 85.6094 122.4453 85.8359 Q122.6719 86.0625 122.6719 86.3906 Q122.6719 86.7188 122.4453 86.9453 Q122.2188 87.1719 121.8906 87.1719 Q121.5625 87.1719 121.3359 86.9453 Q121.1094 86.7188 121.1094 86.3906 ZM119.8125 78.6406 Q120.4375 78.3594 121 78.2266 Q121.5625 78.0938 122.0469 78.0938 Q123.3438 78.0938 124.1016 78.7188 Q124.8594 79.3438 124.8594 80.4062 Q124.8594 81.5 124.2109 82.1953 Q123.5625 82.8906 122.25 83.1875 L122.25 84.6719 L121.5312 84.6719 L121.5312 82.75 Q122.5625 82.5 123.0938 81.9062 Q123.625 81.3125 123.625 80.4062 Q123.625 79.5938 123.1953 79.1328 Q122.7656 78.6719 122.0312 78.6719 Q121.3594 78.6719 120.9297 79.0547 Q120.5 79.4375 120.3906 80.1562 L119.8125 80.1562 L119.8125 78.6406 Z" style="fill:black; stroke:none;" /><rect height="10" style="stroke:none;" width="6" x="101" y="58" /><path d="M103.1094 67.3906 Q103.1094 67.0625 103.3359 66.8359 Q103.5625 66.6094 103.8906 66.6094 Q104.2188 66.6094 104.4453 66.8359 Q104.6719 67.0625 104.6719 67.3906 Q104.6719 67.7188 104.4453 67.9453 Q104.2188 68.1719 103.8906 68.1719 Q103.5625 68.1719 103.3359 67.9453 Q103.1094 67.7188 103.1094 67.3906 ZM101.8125 59.6406 Q102.4375 59.3594 103 59.2266 Q103.5625 59.0938 104.0469 59.0938 Q105.3438 59.0938 106.1016 59.7188 Q106.8594 60.3438 106.8594 61.4062 Q106.8594 62.5 106.2109 63.1953 Q105.5625 63.8906 104.25 64.1875 L104.25 65.6719 L103.5312 65.6719 L103.5312 63.75 Q104.5625 63.5 105.0938 62.9062 Q105.625 62.3125 105.625 61.4062 Q105.625 60.5938 105.1953 60.1328 Q104.7656 59.6719 104.0312 59.6719 Q103.3594 59.6719 102.9297 60.0547 Q102.5 60.4375 102.3906 61.1562 L101.8125 61.1562 L101.8125 59.6406 Z" style="fill:black; stroke:none;" /></g><g ID="li-1:2,3" style="fill:white; text-rendering:optimizeSpeed; font-family:'Serif'; stroke:white;"><rect height="10" style="stroke:none;" width="6" x="175" y="96" /><path d="M177.1094 105.3906 Q177.1094 105.0625 177.3359 104.8359 Q177.5625 104.6094 177.8906 104.6094 Q178.2188 104.6094 178.4453 104.8359 Q178.6719 105.0625 178.6719 105.3906 Q178.6719 105.7188 178.4453 105.9453 Q178.2188 106.1719 177.8906 106.1719 Q177.5625 106.1719 177.3359 105.9453 Q177.1094 105.7188 177.1094 105.3906 ZM175.8125 97.6406 Q176.4375 97.3594 177 97.2266 Q177.5625 97.0938 178.0469 97.0938 Q179.3438 97.0938 180.1016 97.7188 Q180.8594 98.3438 180.8594 99.4062 Q180.8594 100.5 180.2109 101.1953 Q179.5625 101.8906 178.25 102.1875 L178.25 103.6719 L177.5312 103.6719 L177.5312 101.75 Q178.5625 101.5 179.0938 100.9062 Q179.625 100.3125 179.625 99.4062 Q179.625 98.5938 179.1953 98.1328 Q178.7656 97.6719 178.0312 97.6719 Q177.3594 97.6719 176.9297 98.0547 Q176.5 98.4375 176.3906 99.1562 L175.8125 99.1562 L175.8125 97.6406 Z" style="fill:black; stroke:none;" /><rect height="10" style="stroke:none;" width="6" x="161" y="96" /><path d="M163.1094 105.3906 Q163.1094 105.0625 163.3359 104.8359 Q163.5625 104.6094 163.8906 104.6094 Q164.2188 104.6094 164.4453 104.8359 Q164.6719 105.0625 164.6719 105.3906 Q164.6719 105.7188 164.4453 105.9453 Q164.2188 106.1719 163.8906 106.1719 Q163.5625 106.1719 163.3359 105.9453 Q163.1094 105.7188 163.1094 105.3906 ZM161.8125 97.6406 Q162.4375 97.3594 163 97.2266 Q163.5625 97.0938 164.0469 97.0938 Q165.3438 97.0938 166.1016 97.7188 Q166.8594 98.3438 166.8594 99.4062 Q166.8594 100.5 166.2109 101.1953 Q165.5625 101.8906 164.25 102.1875 L164.25 103.6719 L163.5312 103.6719 L163.5312 101.75 Q164.5625 101.5 165.0938 100.9062 Q165.625 100.3125 165.625 99.4062 Q165.625 98.5938 165.1953 98.1328 Q164.7656 97.6719 164.0312 97.6719 Q163.3594 97.6719 162.9297 98.0547 Q162.5 98.4375 162.3906 99.1562 L161.8125 99.1562 L161.8125 97.6406 Z" style="fill:black; stroke:none;" /></g><g ID="li-1:1,2" style="fill:white; text-rendering:optimizeSpeed; font-family:'Serif'; stroke:white;"><rect height="10" style="stroke:none;" width="6" x="227" y="96" /><path d="M229.1094 105.3906 Q229.1094 105.0625 229.3359 104.8359 Q229.5625 104.6094 229.8906 104.6094 Q230.2188 104.6094 230.4453 104.8359 Q230.6719 105.0625 230.6719 105.3906 Q230.6719 105.7188 230.4453 105.9453 Q230.2188 106.1719 229.8906 106.1719 Q229.5625 106.1719 229.3359 105.9453 Q229.1094 105.7188 229.1094 105.3906 ZM227.8125 97.6406 Q228.4375 97.3594 229 97.2266 Q229.5625 97.0938 230.0469 97.0938 Q231.3438 97.0938 232.1016 97.7188 Q232.8594 98.3438 232.8594 99.4062 Q232.8594 100.5 232.2109 101.1953 Q231.5625 101.8906 230.25 102.1875 L230.25 103.6719 L229.5312 103.6719 L229.5312 101.75 Q230.5625 101.5 231.0938 100.9062 Q231.625 100.3125 231.625 99.4062 Q231.625 98.5938 231.1953 98.1328 Q230.7656 97.6719 230.0312 97.6719 Q229.3594 97.6719 228.9297 98.0547 Q228.5 98.4375 228.3906 99.1562 L227.8125 99.1562 L227.8125 97.6406 Z" style="fill:black; stroke:none;" /><rect height="10" style="stroke:none;" width="6" x="213" y="96" /><path d="M215.1094 105.3906 Q215.1094 105.0625 215.3359 104.8359 Q215.5625 104.6094 215.8906 104.6094 Q216.2188 104.6094 216.4453 104.8359 Q216.6719 105.0625 216.6719 105.3906 Q216.6719 105.7188 216.4453 105.9453 Q216.2188 106.1719 215.8906 106.1719 Q215.5625 106.1719 215.3359 105.9453 Q215.1094 105.7188 215.1094 105.3906 ZM213.8125 97.6406 Q214.4375 97.3594 215 97.2266 Q215.5625 97.0938 216.0469 97.0938 Q217.3438 97.0938 218.1016 97.7188 Q218.8594 98.3438 218.8594 99.4062 Q218.8594 100.5 218.2109 101.1953 Q217.5625 101.8906 216.25 102.1875 L216.25 103.6719 L215.5312 103.6719 L215.5312 101.75 Q216.5625 101.5 217.0938 100.9062 Q217.625 100.3125 217.625 99.4062 Q217.625 98.5938 217.1953 98.1328 Q216.7656 97.6719 216.0312 97.6719 Q215.3594 97.6719 214.9297 98.0547 Q214.5 98.4375 214.3906 99.1562 L213.8125 99.1562 L213.8125 97.6406 Z" style="fill:black; stroke:none;" /></g></g></svg>