<svg xmlns="http://www.w3.org/2000/svg" style="fill-opacity:1; color-rendering:auto; color-interpolation:auto; text-rendering:auto; stroke:black; stroke-linecap:square; stroke-miterlimit:10; shape-rendering:auto; stroke-opacity:1; fill:black; stroke-dasharray:none; font-weight:normal; stroke-width:1; font-family:'Dialog'; font-style:normal; stroke-linejoin:miter; font-size:12px; stroke-dashoffset:0; image-rendering:auto;"><defs id="genericDefs" /><g><defs id="defs1"><clipPath clipPathUnits="userSpaceOnUse" id="clipPath1"><path d="M342 82 L364 82 L364 104 L342 104 L342 82 Z" /></clipPath><clipPath clipPathUnits="userSpaceOnUse" id="clipPath2"><path d="M290 82 L312 82 L312 104 L290 104 L290 82 Z" /></clipPath><clipPath clipPathUnits="userSpaceOnUse" id="clipPath3"><path d="M260 93 C260 99.0751 255.0751 104 249 104 C242.9249 104 238 99.0751 238 93 C238 86.9249 242.9249 82 249 82 C255.0751 82 260 86.9249 260 93 Z" /></clipPath><clipPath clipPathUnits="userSpaceOnUse" id="clipPath4"><path d="M208 132 C208 138.0751 203.0751 143 197 143 C190.9249 143 186 138.0751 186 132 C186 125.9249 190.9249 121 197 121 C203.0751 121 208 125.9249 208 132 Z" /></clipPath><clipPath clipPathUnits="userSpaceOnUse" id="clipPath5"><path d="M134 147 L156 147 L156 169 L134 169 L134 147 Z" /></clipPath><clipPath clipPathUnits="userSpaceOnUse" id="clipPath6"><path d="M82 147 L104 147 L104 169 L82 169 L82 147 Z" /></clipPath><clipPath clipPathUnits="userSpaceOnUse" id="clipPath7"><path d="M52 158 C52 164.0751 47.0751 169 41 169 C34.9249 169 30 164.0751 30 158 C30 151.9249 34.9249 147 41 147 C47.0751 147 52 151.9249 52 158 Z" /></clipPath><clipPath clipPathUnits="userSpaceOnUse" id="clipPath8"><path d="M134 95 L156 95 L156 117 L134 117 L134 95 Z" /></clipPath><clipPath clipPathUnits="userSpaceOnUse" id="clipPath9"><path d="M208 54 C208 60.0751 203.0751 65 197 65 C190.9249 65 186 60.0751 186 54 C186 47.9249 190.9249 43 197 43 C203.0751 43 208 47.9249 208 54 Z" /></clipPath><clipPath clipPathUnits="userSpaceOnUse" id="clipPath10"><path d="M156 54 C156 60.0751 151.0751 65 145 65 C138.9249 65 134 60.0751 134 54 C134 47.9249 138.9249 43 145 43 C151.0751 43 156 47.9249 156 54 Z" /></clipPath><clipPath clipPathUnits="userSpaceOnUse" id="clipPath11"><path d="M353 52 L342 30 L364 30 Z" style="fill-rule:evenodd;" /></clipPath></defs><g style="fill:white; text-rendering:optimizeSpeed; stroke:white;"><rect height="199" style="stroke:none;" width="394" x="0" y="0" /></g><g ID="l-1:1,2" style="text-rendering:optimizeSpeed;"><polygon points=" 353 93 301 93" style="fill:none;" /></g><g ID="l-1:1,3" style="text-rendering:optimizeSpeed;"><polygon points=" 353 93 353 41" style="fill:none;" /></g><g ID="r-1:1" style="fill:white; text-rendering:optimizeSpeed; stroke:white;" wurcs_mono_id="1"><rect height="22" style="clip-path:url(#clipPath1); stroke:none;" width="22" x="342" y="82" /><rect height="22" style="clip-path:url(#clipPath1); fill:rgb(0,144,188); stroke:none;" width="22" x="342" y="82" /><rect height="22" style="clip-path:url(#clipPath1); fill:none; stroke:black;" width="22" x="342" y="82" /><rect height="22" style="fill:none; stroke:black;" width="22" x="342" y="82" /></g><g ID="l-1:2,4" style="text-rendering:optimizeSpeed;"><polygon points=" 301 93 249 93" style="fill:none;" /></g><g ID="r-1:2" style="fill:white; text-rendering:optimizeSpeed; stroke:white;" wurcs_mono_id="2"><rect height="22" style="clip-path:url(#clipPath2); stroke:none;" width="22" x="290" y="82" /><rect height="22" style="clip-path:url(#clipPath2); fill:rgb(0,144,188); stroke:none;" width="22" x="290" y="82" /><rect height="22" style="clip-path:url(#clipPath2); fill:none; stroke:black;" width="22" x="290" y="82" /><rect height="22" style="fill:none; stroke:black;" width="22" x="290" y="82" /></g><g ID="l-1:4,5" style="text-rendering:optimizeSpeed;"><polygon points=" 249 93 197 132" style="fill:none;" /></g><g ID="l-1:4,6" style="text-rendering:optimizeSpeed;"><polygon points=" 249 93 197 54" style="fill:none;" /></g><g ID="r-1:4" style="fill:white; text-rendering:optimizeSpeed; stroke:white;" wurcs_mono_id="3"><circle cx="249" cy="93" r="11" style="clip-path:url(#clipPath3); stroke:none;" /><rect height="22" style="clip-path:url(#clipPath3); fill:rgb(0,166,81); stroke:none;" width="22" x="238" y="82" /><rect height="22" style="clip-path:url(#clipPath3); fill:none; stroke:black;" width="22" x="238" y="82" /><circle cx="249" cy="93" r="11" style="fill:none; stroke:black;" /></g><g ID="l-1:5,7" style="text-rendering:optimizeSpeed;"><polygon points=" 197 132 145 158" style="fill:none;" /></g><g ID="l-1:5,8" style="text-rendering:optimizeSpeed;"><polygon points=" 197 132 145 106" style="fill:none;" /></g><g ID="r-1:5" style="fill:white; text-rendering:optimizeSpeed; stroke:white;" wurcs_mono_id="4"><circle cx="197" cy="132" r="11" style="clip-path:url(#clipPath4); stroke:none;" /><rect height="22" style="clip-path:url(#clipPath4); fill:rgb(0,166,81); stroke:none;" width="22" x="186" y="121" /><rect height="22" style="clip-path:url(#clipPath4); fill:none; stroke:black;" width="22" x="186" y="121" /><circle cx="197" cy="132" r="11" style="fill:none; stroke:black;" /></g><g ID="l-1:7,9" style="text-rendering:optimizeSpeed;"><polygon points=" 145 158 93 158" style="fill:none;" /></g><g ID="r-1:7" style="fill:white; text-rendering:optimizeSpeed; stroke:white;" wurcs_mono_id="5"><rect height="22" style="clip-path:url(#clipPath5); stroke:none;" width="22" x="134" y="147" /><rect height="22" style="clip-path:url(#clipPath5); fill:rgb(0,144,188); stroke:none;" width="22" x="134" y="147" /><rect height="22" style="clip-path:url(#clipPath5); fill:none; stroke:black;" width="22" x="134" y="147" /><rect height="22" style="fill:none; stroke:black;" width="22" x="134" y="147" /></g><g ID="l-1:9,10" style="text-rendering:optimizeSpeed;"><polygon points=" 93 158 41 158" style="fill:none;" /></g><g ID="r-1:9" style="fill:white; text-rendering:optimizeSpeed; stroke:white;" wurcs_mono_id="6"><rect height="22" style="clip-path:url(#clipPath6); stroke:none;" width="22" x="82" y="147" /><rect height="22" style="clip-path:url(#clipPath6); fill:rgb(255,212,0); stroke:none;" width="22" x="82" y="147" /><rect height="22" style="clip-path:url(#clipPath6); fill:none; stroke:black;" width="22" x="82" y="147" /><rect height="22" style="fill:none; stroke:black;" width="22" x="82" y="147" /></g><g ID="r-1:10" style="fill:white; text-rendering:optimizeSpeed; stroke:white;" wurcs_mono_id="7"><circle cx="41" cy="158" r="11" style="clip-path:url(#clipPath7); stroke:none;" /><rect height="22" style="clip-path:url(#clipPath7); fill:rgb(255,212,0); stroke:none;" width="22" x="30" y="147" /><rect height="22" style="clip-path:url(#clipPath7); fill:none; stroke:black;" width="22" x="30" y="147" /><circle cx="41" cy="158" r="11" style="fill:none; stroke:black;" /></g><g ID="li-1:9,10" style="fill:white; text-rendering:optimizeSpeed; font-family:'Serif'; stroke:white;"><rect height="10" style="stroke:none;" width="7" x="70" y="161" /><path d="M71.1719 162.625 Q71.8594 162.3594 72.4844 162.2266 Q73.1094 162.0938 73.6562 162.0938 Q74.9531 162.0938 75.6719 162.6484 Q76.3906 163.2031 76.3906 164.1875 Q76.3906 164.9688 75.8906 165.5 Q75.3906 166.0312 74.4844 166.2188 Q75.5625 166.375 76.1562 167.0078 Q76.75 167.6406 76.75 168.6406 Q76.75 169.8594 75.9219 170.5156 Q75.0938 171.1719 73.5469 171.1719 Q72.8594 171.1719 72.2109 171.0234 Q71.5625 170.875 70.9219 170.5781 L70.9219 168.875 L71.5781 168.875 Q71.625 169.7188 72.1406 170.1562 Q72.6562 170.5938 73.5781 170.5938 Q74.4688 170.5938 74.9922 170.0703 Q75.5156 169.5469 75.5156 168.6562 Q75.5156 167.625 74.9766 167.0938 Q74.4375 166.5625 73.4062 166.5625 L72.8594 166.5625 L72.8594 165.9531 L73.1406 165.9531 Q74.1719 165.9531 74.6875 165.5312 Q75.2031 165.1094 75.2031 164.25 Q75.2031 163.4844 74.7812 163.0781 Q74.3594 162.6719 73.5625 162.6719 Q72.7656 162.6719 72.3359 163.0469 Q71.9062 163.4219 71.8281 164.1562 L71.1719 164.1562 L71.1719 162.625 Z" style="fill:black; stroke:none;" /><rect height="13" style="stroke:none;" width="7" x="56" y="159" /><path d="M57.8281 171.25 Q58.2969 171.5938 59.1719 171.5938 Q60.0625 171.5938 60.5781 171.0703 Q61.0938 170.5469 61.0938 169.6562 Q61.0938 168.4219 60.5625 167.8906 Q60.0156 167.3594 59 167.3594 L58.4375 167.3594 L58.4375 166.7188 L58.7344 166.7188 Q59.4844 166.7188 60 166.2969 Q60.4219 165.9531 60.4219 165.0156 Q60.4219 164.6094 60.1406 164.1406 Q59.6875 163.375 59.1562 163.3906 Q57.8281 163.4375 57.8281 165.7812 L57.8281 171.25 ZM56.75 174.5 L56.75 165.7812 Q56.75 163.3281 58.0781 163 Q58.7656 162.8125 59.25 162.8125 Q60.3438 162.8125 61.0469 163.6719 Q61.6094 164.3594 61.6094 164.9375 Q61.6094 165.7812 61.2031 166.2656 Q60.7969 166.75 60.0625 166.9844 Q61.1406 167.1406 61.75 167.7812 Q62.3281 168.4062 62.3281 169.6328 Q62.3281 170.8594 61.5078 171.5156 Q60.6875 172.1719 59.1406 172.1719 Q58.1875 172.1719 57.8281 172.0312 L57.8281 174.5 L56.75 174.5 Z" style="fill:black; stroke:none;" /></g><g ID="li-1:7,9" style="fill:white; text-rendering:optimizeSpeed; font-family:'Serif'; stroke:white;"><rect height="9" style="stroke:none;" width="8" x="122" y="161" /><path d="M126.1875 167.0312 L126.1875 162.375 L123.2031 167.0312 L126.1875 167.0312 ZM128.7656 170 L124.7812 170 L124.7812 169.375 L126.1875 169.375 L126.1875 167.6562 L122.375 167.6562 L122.375 167.0156 L126.2031 161.0938 L127.3594 161.0938 L127.3594 167.0312 L129.0312 167.0312 L129.0312 167.6562 L127.3594 167.6562 L127.3594 169.375 L128.7656 169.375 L128.7656 170 Z" style="fill:black; stroke:none;" /><rect height="13" style="stroke:none;" width="7" x="108" y="159" /><path d="M109.8281 171.25 Q110.2969 171.5938 111.1719 171.5938 Q112.0625 171.5938 112.5781 171.0703 Q113.0938 170.5469 113.0938 169.6562 Q113.0938 168.4219 112.5625 167.8906 Q112.0156 167.3594 111 167.3594 L110.4375 167.3594 L110.4375 166.7188 L110.7344 166.7188 Q111.4844 166.7188 112 166.2969 Q112.4219 165.9531 112.4219 165.0156 Q112.4219 164.6094 112.1406 164.1406 Q111.6875 163.375 111.1562 163.3906 Q109.8281 163.4375 109.8281 165.7812 L109.8281 171.25 ZM108.75 174.5 L108.75 165.7812 Q108.75 163.3281 110.0781 163 Q110.7656 162.8125 111.25 162.8125 Q112.3438 162.8125 113.0469 163.6719 Q113.6094 164.3594 113.6094 164.9375 Q113.6094 165.7812 113.2031 166.2656 Q112.7969 166.75 112.0625 166.9844 Q113.1406 167.1406 113.75 167.7812 Q114.3281 168.4062 114.3281 169.6328 Q114.3281 170.8594 113.5078 171.5156 Q112.6875 172.1719 111.1406 172.1719 Q110.1875 172.1719 109.8281 172.0312 L109.8281 174.5 L108.75 174.5 Z" style="fill:black; stroke:none;" /></g><g ID="r-1:8" style="fill:white; text-rendering:optimizeSpeed; stroke:white;" wurcs_mono_id="8"><rect height="22" style="clip-path:url(#clipPath8); stroke:none;" width="22" x="134" y="95" /><rect height="22" style="clip-path:url(#clipPath8); fill:rgb(0,144,188); stroke:none;" width="22" x="134" y="95" /><rect height="22" style="clip-path:url(#clipPath8); fill:none; stroke:black;" width="22" x="134" y="95" /><rect height="22" style="fill:none; stroke:black;" width="22" x="134" y="95" /></g><g ID="li-1:5,7" style="fill:white; text-rendering:optimizeSpeed; font-family:'Serif'; stroke:white;"><rect height="10" style="stroke:none;" width="6" x="179" y="143" /><path d="M181.1094 152.3906 Q181.1094 152.0625 181.3359 151.8359 Q181.5625 151.6094 181.8906 151.6094 Q182.2188 151.6094 182.4453 151.8359 Q182.6719 152.0625 182.6719 152.3906 Q182.6719 152.7188 182.4453 152.9453 Q182.2188 153.1719 181.8906 153.1719 Q181.5625 153.1719 181.3359 152.9453 Q181.1094 152.7188 181.1094 152.3906 ZM179.8125 144.6406 Q180.4375 144.3594 181 144.2266 Q181.5625 144.0938 182.0469 144.0938 Q183.3438 144.0938 184.1016 144.7188 Q184.8594 145.3438 184.8594 146.4062 Q184.8594 147.5 184.2109 148.1953 Q183.5625 148.8906 182.25 149.1875 L182.25 150.6719 L181.5312 150.6719 L181.5312 148.75 Q182.5625 148.5 183.0938 147.9062 Q183.625 147.3125 183.625 146.4062 Q183.625 145.5938 183.1953 145.1328 Q182.7656 144.6719 182.0312 144.6719 Q181.3594 144.6719 180.9297 145.0547 Q180.5 145.4375 180.3906 146.1562 L179.8125 146.1562 L179.8125 144.6406 Z" style="fill:black; stroke:none;" /><rect height="10" style="stroke:none;" width="6" x="163" y="151" /><path d="M165.1094 160.3906 Q165.1094 160.0625 165.3359 159.8359 Q165.5625 159.6094 165.8906 159.6094 Q166.2188 159.6094 166.4453 159.8359 Q166.6719 160.0625 166.6719 160.3906 Q166.6719 160.7188 166.4453 160.9453 Q166.2188 161.1719 165.8906 161.1719 Q165.5625 161.1719 165.3359 160.9453 Q165.1094 160.7188 165.1094 160.3906 ZM163.8125 152.6406 Q164.4375 152.3594 165 152.2266 Q165.5625 152.0938 166.0469 152.0938 Q167.3438 152.0938 168.1016 152.7188 Q168.8594 153.3438 168.8594 154.4062 Q168.8594 155.5 168.2109 156.1953 Q167.5625 156.8906 166.25 157.1875 L166.25 158.6719 L165.5312 158.6719 L165.5312 156.75 Q166.5625 156.5 167.0938 155.9062 Q167.625 155.3125 167.625 154.4062 Q167.625 153.5938 167.1953 153.1328 Q166.7656 152.6719 166.0312 152.6719 Q165.3594 152.6719 164.9297 153.0547 Q164.5 153.4375 164.3906 154.1562 L163.8125 154.1562 L163.8125 152.6406 Z" style="fill:black; stroke:none;" /></g><g ID="li-1:5,8" style="fill:white; text-rendering:optimizeSpeed; font-family:'Serif'; stroke:white;"><rect height="10" style="stroke:none;" width="6" x="172" y="125" /><path d="M174.1094 134.3906 Q174.1094 134.0625 174.3359 133.8359 Q174.5625 133.6094 174.8906 133.6094 Q175.2188 133.6094 175.4453 133.8359 Q175.6719 134.0625 175.6719 134.3906 Q175.6719 134.7188 175.4453 134.9453 Q175.2188 135.1719 174.8906 135.1719 Q174.5625 135.1719 174.3359 134.9453 Q174.1094 134.7188 174.1094 134.3906 ZM172.8125 126.6406 Q173.4375 126.3594 174 126.2266 Q174.5625 126.0938 175.0469 126.0938 Q176.3438 126.0938 177.1016 126.7188 Q177.8594 127.3438 177.8594 128.4062 Q177.8594 129.5 177.2109 130.1953 Q176.5625 130.8906 175.25 131.1875 L175.25 132.6719 L174.5312 132.6719 L174.5312 130.75 Q175.5625 130.5 176.0938 129.9062 Q176.625 129.3125 176.625 128.4062 Q176.625 127.5938 176.1953 127.1328 Q175.7656 126.6719 175.0312 126.6719 Q174.3594 126.6719 173.9297 127.0547 Q173.5 127.4375 173.3906 128.1562 L172.8125 128.1562 L172.8125 126.6406 Z" style="fill:black; stroke:none;" /><rect height="10" style="stroke:none;" width="6" x="156" y="117" /><path d="M158.1094 126.3906 Q158.1094 126.0625 158.3359 125.8359 Q158.5625 125.6094 158.8906 125.6094 Q159.2188 125.6094 159.4453 125.8359 Q159.6719 126.0625 159.6719 126.3906 Q159.6719 126.7188 159.4453 126.9453 Q159.2188 127.1719 158.8906 127.1719 Q158.5625 127.1719 158.3359 126.9453 Q158.1094 126.7188 158.1094 126.3906 ZM156.8125 118.6406 Q157.4375 118.3594 158 118.2266 Q158.5625 118.0938 159.0469 118.0938 Q160.3438 118.0938 161.1016 118.7188 Q161.8594 119.3438 161.8594 120.4062 Q161.8594 121.5 161.2109 122.1953 Q160.5625 122.8906 159.25 123.1875 L159.25 124.6719 L158.5312 124.6719 L158.5312 122.75 Q159.5625 122.5 160.0938 121.9062 Q160.625 121.3125 160.625 120.4062 Q160.625 119.5938 160.1953 119.1328 Q159.7656 118.6719 159.0312 118.6719 Q158.3594 118.6719 157.9297 119.0547 Q157.5 119.4375 157.3906 120.1562 L156.8125 120.1562 L156.8125 118.6406 Z" style="fill:black; stroke:none;" /></g><g ID="l-1:6,11" style="text-rendering:optimizeSpeed;"><polygon points=" 197 54 145 54" style="fill:none;" /></g><g ID="r-1:6" style="fill:white; text-rendering:optimizeSpeed; stroke:white;" wurcs_mono_id="9"><circle cx="197" cy="54" r="11" style="clip-path:url(#clipPath9); stroke:none;" /><rect height="22" style="clip-path:url(#clipPath9); fill:rgb(0,166,81); stroke:none;" width="22" x="186" y="43" /><rect height="22" style="clip-path:url(#clipPath9); fill:none; stroke:black;" width="22" x="186" y="43" /><circle cx="197" cy="54" r="11" style="fill:none; stroke:black;" /></g><g ID="r-1:11" style="fill:white; text-rendering:optimizeSpeed; stroke:white;" wurcs_mono_id="10"><circle cx="145" cy="54" r="11" style="clip-path:url(#clipPath10); stroke:none;" /><rect height="22" style="clip-path:url(#clipPath10); fill:rgb(0,166,81); stroke:none;" width="22" x="134" y="43" /><rect height="22" style="clip-path:url(#clipPath10); fill:none; stroke:black;" width="22" x="134" y="43" /><circle cx="145" cy="54" r="11" style="fill:none; stroke:black;" /></g><g ID="li-1:6,11" style="fill:white; text-rendering:optimizeSpeed; font-family:'Serif'; stroke:white;"><rect height="10" style="stroke:none;" width="6" x="175" y="57" /><path d="M177.1094 66.3906 Q177.1094 66.0625 177.3359 65.8359 Q177.5625 65.6094 177.8906 65.6094 Q178.2188 65.6094 178.4453 65.8359 Q178.6719 66.0625 178.6719 66.3906 Q178.6719 66.7188 178.4453 66.9453 Q178.2188 67.1719 177.8906 67.1719 Q177.5625 67.1719 177.3359 66.9453 Q177.1094 66.7188 177.1094 66.3906 ZM175.8125 58.6406 Q176.4375 58.3594 177 58.2266 Q177.5625 58.0938 178.0469 58.0938 Q179.3438 58.0938 180.1016 58.7188 Q180.8594 59.3438 180.8594 60.4062 Q180.8594 61.5 180.2109 62.1953 Q179.5625 62.8906 178.25 63.1875 L178.25 64.6719 L177.5312 64.6719 L177.5312 62.75 Q178.5625 62.5 179.0938 61.9062 Q179.625 61.3125 179.625 60.4062 Q179.625 59.5938 179.1953 59.1328 Q178.7656 58.6719 178.0312 58.6719 Q177.3594 58.6719 176.9297 59.0547 Q176.5 59.4375 176.3906 60.1562 L175.8125 60.1562 L175.8125 58.6406 Z" style="fill:black; stroke:none;" /><rect height="10" style="stroke:none;" width="6" x="161" y="57" /><path d="M163.1094 66.3906 Q163.1094 66.0625 163.3359 65.8359 Q163.5625 65.6094 163.8906 65.6094 Q164.2188 65.6094 164.4453 65.8359 Q164.6719 66.0625 164.6719 66.3906 Q164.6719 66.7188 164.4453 66.9453 Q164.2188 67.1719 163.8906 67.1719 Q163.5625 67.1719 163.3359 66.9453 Q163.1094 66.7188 163.1094 66.3906 ZM161.8125 58.6406 Q162.4375 58.3594 163 58.2266 Q163.5625 58.0938 164.0469 58.0938 Q165.3438 58.0938 166.1016 58.7188 Q166.8594 59.3438 166.8594 60.4062 Q166.8594 61.5 166.2109 62.1953 Q165.5625 62.8906 164.25 63.1875 L164.25 64.6719 L163.5312 64.6719 L163.5312 62.75 Q164.5625 62.5 165.0938 61.9062 Q165.625 61.3125 165.625 60.4062 Q165.625 59.5938 165.1953 59.1328 Q164.7656 58.6719 164.0312 58.6719 Q163.3594 58.6719 162.9297 59.0547 Q162.5 59.4375 162.3906 60.1562 L161.8125 60.1562 L161.8125 58.6406 Z" style="fill:black; stroke:none;" /></g><g ID="li-1:4,5" style="fill:white; text-rendering:optimizeSpeed; font-family:'Serif'; stroke:white;"><rect height="10" style="stroke:none;" width="6" x="233" y="107" /><path d="M235.1094 116.3906 Q235.1094 116.0625 235.3359 115.8359 Q235.5625 115.6094 235.8906 115.6094 Q236.2188 115.6094 236.4453 115.8359 Q236.6719 116.0625 236.6719 116.3906 Q236.6719 116.7188 236.4453 116.9453 Q236.2188 117.1719 235.8906 117.1719 Q235.5625 117.1719 235.3359 116.9453 Q235.1094 116.7188 235.1094 116.3906 ZM233.8125 108.6406 Q234.4375 108.3594 235 108.2266 Q235.5625 108.0938 236.0469 108.0938 Q237.3438 108.0938 238.1016 108.7188 Q238.8594 109.3438 238.8594 110.4062 Q238.8594 111.5 238.2109 112.1953 Q237.5625 112.8906 236.25 113.1875 L236.25 114.6719 L235.5312 114.6719 L235.5312 112.75 Q236.5625 112.5 237.0938 111.9062 Q237.625 111.3125 237.625 110.4062 Q237.625 109.5938 237.1953 109.1328 Q236.7656 108.6719 236.0312 108.6719 Q235.3594 108.6719 234.9297 109.0547 Q234.5 109.4375 234.3906 110.1562 L233.8125 110.1562 L233.8125 108.6406 Z" style="fill:black; stroke:none;" /><rect height="8" style="stroke:none;" width="8" x="215" y="121" /><path d="M220.1875 127.4688 L219.9531 128.1094 Q219.7656 128.625 219.2031 128.9375 Q218.8438 129.1562 218.2031 129.1406 Q217.0469 129.1406 216.3281 128.2344 Q215.5938 127.3281 215.5938 125.8594 Q215.5938 124.4219 216.3281 123.4844 Q217.0156 122.5938 218.4531 122.6094 Q219.4531 122.6094 219.9531 123 Q220.4062 123.3438 220.5781 124.0938 L220.625 124.3125 L220.8438 123.6719 Q221.0625 123.0469 221.6562 122.75 L222.25 122.75 L222.25 123.0938 Q221.6875 123.2656 221.5 123.8125 L220.8906 125.4844 L221.2969 127.2812 Q221.5 128.2031 221.7344 128.2969 Q222.0469 128.4375 222.7812 128 L222.7812 128.7188 Q221.5938 129.4062 220.75 128.6875 Q220.375 128.3594 220.2656 127.875 L220.1875 127.4688 ZM219.9219 126.3125 L219.5625 124.5938 Q219.2656 123.2188 218.4688 123.2188 Q217.7969 123.2031 217.2812 123.9375 Q216.8594 124.5156 216.8594 125.875 Q216.8594 127.1719 217.2812 127.8281 Q217.75 128.5469 218.5312 128.5 Q219.2031 128.4375 219.6875 127 L219.9219 126.3125 Z" style="fill:black; stroke:none;" /></g><g ID="li-1:4,6" style="fill:white; text-rendering:optimizeSpeed; font-family:'Serif'; stroke:white;"><rect height="10" style="stroke:none;" width="6" x="223" y="81" /><path d="M225.1094 90.3906 Q225.1094 90.0625 225.3359 89.8359 Q225.5625 89.6094 225.8906 89.6094 Q226.2188 89.6094 226.4453 89.8359 Q226.6719 90.0625 226.6719 90.3906 Q226.6719 90.7188 226.4453 90.9453 Q226.2188 91.1719 225.8906 91.1719 Q225.5625 91.1719 225.3359 90.9453 Q225.1094 90.7188 225.1094 90.3906 ZM223.8125 82.6406 Q224.4375 82.3594 225 82.2266 Q225.5625 82.0938 226.0469 82.0938 Q227.3438 82.0938 228.1016 82.7188 Q228.8594 83.3438 228.8594 84.4062 Q228.8594 85.5 228.2109 86.1953 Q227.5625 86.8906 226.25 87.1875 L226.25 88.6719 L225.5312 88.6719 L225.5312 86.75 Q226.5625 86.5 227.0938 85.9062 Q227.625 85.3125 227.625 84.4062 Q227.625 83.5938 227.1953 83.1328 Q226.7656 82.6719 226.0312 82.6719 Q225.3594 82.6719 224.9297 83.0547 Q224.5 83.4375 224.3906 84.1562 L223.8125 84.1562 L223.8125 82.6406 Z" style="fill:black; stroke:none;" /><rect height="8" style="stroke:none;" width="8" x="205" y="69" /><path d="M210.1875 75.4688 L209.9531 76.1094 Q209.7656 76.625 209.2031 76.9375 Q208.8438 77.1562 208.2031 77.1406 Q207.0469 77.1406 206.3281 76.2344 Q205.5938 75.3281 205.5938 73.8594 Q205.5938 72.4219 206.3281 71.4844 Q207.0156 70.5938 208.4531 70.6094 Q209.4531 70.6094 209.9531 71 Q210.4062 71.3438 210.5781 72.0938 L210.625 72.3125 L210.8438 71.6719 Q211.0625 71.0469 211.6562 70.75 L212.25 70.75 L212.25 71.0938 Q211.6875 71.2656 211.5 71.8125 L210.8906 73.4844 L211.2969 75.2812 Q211.5 76.2031 211.7344 76.2969 Q212.0469 76.4375 212.7812 76 L212.7812 76.7188 Q211.5938 77.4062 210.75 76.6875 Q210.375 76.3594 210.2656 75.875 L210.1875 75.4688 ZM209.9219 74.3125 L209.5625 72.5938 Q209.2656 71.2188 208.4688 71.2188 Q207.7969 71.2031 207.2812 71.9375 Q206.8594 72.5156 206.8594 73.875 Q206.8594 75.1719 207.2812 75.8281 Q207.75 76.5469 208.5312 76.5 Q209.2031 76.4375 209.6875 75 L209.9219 74.3125 Z" style="fill:black; stroke:none;" /></g><g ID="li-1:2,4" style="fill:white; text-rendering:optimizeSpeed; font-family:'Serif'; stroke:white;"><rect height="9" style="stroke:none;" width="8" x="278" y="96" /><path d="M282.1875 102.0312 L282.1875 97.375 L279.2031 102.0312 L282.1875 102.0312 ZM284.7656 105 L280.7812 105 L280.7812 104.375 L282.1875 104.375 L282.1875 102.6562 L278.375 102.6562 L278.375 102.0156 L282.2031 96.0938 L283.3594 96.0938 L283.3594 102.0312 L285.0312 102.0312 L285.0312 102.6562 L283.3594 102.6562 L283.3594 104.375 L284.7656 104.375 L284.7656 105 Z" style="fill:black; stroke:none;" /><rect height="13" style="stroke:none;" width="7" x="264" y="94" /><path d="M265.8281 106.25 Q266.2969 106.5938 267.1719 106.5938 Q268.0625 106.5938 268.5781 106.0703 Q269.0938 105.5469 269.0938 104.6562 Q269.0938 103.4219 268.5625 102.8906 Q268.0156 102.3594 267 102.3594 L266.4375 102.3594 L266.4375 101.7188 L266.7344 101.7188 Q267.4844 101.7188 268 101.2969 Q268.4219 100.9531 268.4219 100.0156 Q268.4219 99.6094 268.1406 99.1406 Q267.6875 98.375 267.1562 98.3906 Q265.8281 98.4375 265.8281 100.7812 L265.8281 106.25 ZM264.75 109.5 L264.75 100.7812 Q264.75 98.3281 266.0781 98 Q266.7656 97.8125 267.25 97.8125 Q268.3438 97.8125 269.0469 98.6719 Q269.6094 99.3594 269.6094 99.9375 Q269.6094 100.7812 269.2031 101.2656 Q268.7969 101.75 268.0625 101.9844 Q269.1406 102.1406 269.75 102.7812 Q270.3281 103.4062 270.3281 104.6328 Q270.3281 105.8594 269.5078 106.5156 Q268.6875 107.1719 267.1406 107.1719 Q266.1875 107.1719 265.8281 107.0312 L265.8281 109.5 L264.75 109.5 Z" style="fill:black; stroke:none;" /></g><g ID="r-1:3" style="fill:white; text-rendering:optimizeSpeed; stroke:white;" wurcs_mono_id="11"><polygon points=" 353 52 342 30 364 30" style="stroke:none; clip-path:url(#clipPath11);" /><rect height="22" style="clip-path:url(#clipPath11); fill:rgb(237,28,36); stroke:none;" width="22" x="342" y="30" /><rect height="22" style="clip-path:url(#clipPath11); fill:none; stroke:black;" width="22" x="342" y="30" /><polygon points=" 353 52 342 30 364 30" style="fill:none; stroke:black;" /></g><g ID="li-1:1,2" style="fill:white; text-rendering:optimizeSpeed; font-family:'Serif'; stroke:white;"><rect height="9" style="stroke:none;" width="8" x="330" y="96" /><path d="M334.1875 102.0312 L334.1875 97.375 L331.2031 102.0312 L334.1875 102.0312 ZM336.7656 105 L332.7812 105 L332.7812 104.375 L334.1875 104.375 L334.1875 102.6562 L330.375 102.6562 L330.375 102.0156 L334.2031 96.0938 L335.3594 96.0938 L335.3594 102.0312 L337.0312 102.0312 L337.0312 102.6562 L335.3594 102.6562 L335.3594 104.375 L336.7656 104.375 L336.7656 105 Z" style="fill:black; stroke:none;" /><rect height="13" style="stroke:none;" width="7" x="316" y="94" /><path d="M317.8281 106.25 Q318.2969 106.5938 319.1719 106.5938 Q320.0625 106.5938 320.5781 106.0703 Q321.0938 105.5469 321.0938 104.6562 Q321.0938 103.4219 320.5625 102.8906 Q320.0156 102.3594 319 102.3594 L318.4375 102.3594 L318.4375 101.7188 L318.7344 101.7188 Q319.4844 101.7188 320 101.2969 Q320.4219 100.9531 320.4219 100.0156 Q320.4219 99.6094 320.1406 99.1406 Q319.6875 98.375 319.1562 98.3906 Q317.8281 98.4375 317.8281 100.7812 L317.8281 106.25 ZM316.75 109.5 L316.75 100.7812 Q316.75 98.3281 318.0781 98 Q318.7656 97.8125 319.25 97.8125 Q320.3438 97.8125 321.0469 98.6719 Q321.6094 99.3594 321.6094 99.9375 Q321.6094 100.7812 321.2031 101.2656 Q320.7969 101.75 320.0625 101.9844 Q321.1406 102.1406 321.75 102.7812 Q322.3281 103.4062 322.3281 104.6328 Q322.3281 105.8594 321.5078 106.5156 Q320.6875 107.1719 319.1406 107.1719 Q318.1875 107.1719 317.8281 107.0312 L317.8281 109.5 L316.75 109.5 Z" style="fill:black; stroke:none;" /></g><g ID="li-1:1,3" style="fill:white; text-rendering:optimizeSpeed; font-family:'Serif'; stroke:white;"><rect height="10" style="stroke:none;" width="7" x="341" y="69" /><path d="M344.9219 78.5938 Q345.75 78.5938 346.1953 77.9844 Q346.6406 77.375 346.6406 76.2344 Q346.6406 75.1094 346.1953 74.5 Q345.75 73.8906 344.9219 73.8906 Q344.0938 73.8906 343.6484 74.4766 Q343.2031 75.0625 343.2031 76.1719 Q343.2031 77.3281 343.6484 77.9609 Q344.0938 78.5938 344.9219 78.5938 ZM343.0156 74.1875 Q343.4219 73.75 343.9219 73.5312 Q344.4219 73.3125 345.0625 73.3125 Q346.3594 73.3125 347.1172 74.0938 Q347.875 74.875 347.875 76.2344 Q347.875 77.5625 347.0625 78.3672 Q346.25 79.1719 344.875 79.1719 Q343.3906 79.1719 342.5938 78.0625 Q341.7969 76.9531 341.7969 74.9062 Q341.7969 72.6094 342.7422 71.3516 Q343.6875 70.0938 345.4062 70.0938 Q345.875 70.0938 346.3828 70.1797 Q346.8906 70.2656 347.4219 70.4375 L347.4219 71.8906 L346.7656 71.8906 Q346.6875 71.2969 346.3047 70.9844 Q345.9219 70.6719 345.2812 70.6719 Q344.1406 70.6719 343.5859 71.5312 Q343.0312 72.3906 343.0156 74.1875 Z" style="fill:black; stroke:none;" /><rect height="8" style="stroke:none;" width="8" x="341" y="56" /><path d="M346.1875 62.4688 L345.9531 63.1094 Q345.7656 63.625 345.2031 63.9375 Q344.8438 64.1562 344.2031 64.1406 Q343.0469 64.1406 342.3281 63.2344 Q341.5938 62.3281 341.5938 60.8594 Q341.5938 59.4219 342.3281 58.4844 Q343.0156 57.5938 344.4531 57.6094 Q345.4531 57.6094 345.9531 58 Q346.4062 58.3438 346.5781 59.0938 L346.625 59.3125 L346.8438 58.6719 Q347.0625 58.0469 347.6562 57.75 L348.25 57.75 L348.25 58.0938 Q347.6875 58.2656 347.5 58.8125 L346.8906 60.4844 L347.2969 62.2812 Q347.5 63.2031 347.7344 63.2969 Q348.0469 63.4375 348.7812 63 L348.7812 63.7188 Q347.5938 64.4062 346.75 63.6875 Q346.375 63.3594 346.2656 62.875 L346.1875 62.4688 ZM345.9219 61.3125 L345.5625 59.5938 Q345.2656 58.2188 344.4688 58.2188 Q343.7969 58.2031 343.2812 58.9375 Q342.8594 59.5156 342.8594 60.875 Q342.8594 62.1719 343.2812 62.8281 Q343.75 63.5469 344.5312 63.5 Q345.2031 63.4375 345.6875 62 L345.9219 61.3125 Z" style="fill:black; stroke:none;" /></g></g></svg>