<svg xmlns="http://www.w3.org/2000/svg" style="fill-opacity:1; color-rendering:auto; color-interpolation:auto; text-rendering:auto; stroke:black; stroke-linecap:square; stroke-miterlimit:10; shape-rendering:auto; stroke-opacity:1; fill:black; stroke-dasharray:none; font-weight:normal; stroke-width:1; font-family:'Dialog'; font-style:normal; stroke-linejoin:miter; font-size:12px; stroke-dashoffset:0; image-rendering:auto;"><defs id="genericDefs" /><g><defs id="defs1"><clipPath clipPathUnits="userSpaceOnUse" id="clipPath1"><path d="M290 69 L312 69 L312 91 L290 91 L290 69 Z" /></clipPath><clipPath clipPathUnits="userSpaceOnUse" id="clipPath2"><path d="M238 69 L260 69 L260 91 L238 91 L238 69 Z" /></clipPath><clipPath clipPathUnits="userSpaceOnUse" id="clipPath3"><path d="M208 80 C208 86.0751 203.0751 91 197 91 C190.9249 91 186 86.0751 186 80 C186 73.9249 190.9249 69 197 69 C203.0751 69 208 73.9249 208 80 Z" /></clipPath><clipPath clipPathUnits="userSpaceOnUse" id="clipPath4"><path d="M156 119 C156 125.0751 151.0751 130 145 130 C138.9249 130 134 125.0751 134 119 C134 112.9249 138.9249 108 145 108 C151.0751 108 156 112.9249 156 119 Z" /></clipPath><clipPath clipPathUnits="userSpaceOnUse" id="clipPath5"><path d="M104 145 C104 151.0751 99.0751 156 93 156 C86.9249 156 82 151.0751 82 145 C82 138.9249 86.9249 134 93 134 C99.0751 134 104 138.9249 104 145 Z" /></clipPath><clipPath clipPathUnits="userSpaceOnUse" id="clipPath6"><path d="M52 145 C52 151.0751 47.0751 156 41 156 C34.9249 156 30 151.0751 30 145 C30 138.9249 34.9249 134 41 134 C47.0751 134 52 138.9249 52 145 Z" /></clipPath><clipPath clipPathUnits="userSpaceOnUse" id="clipPath7"><path d="M104 93 C104 99.0751 99.0751 104 93 104 C86.9249 104 82 99.0751 82 93 C82 86.9249 86.9249 82 93 82 C99.0751 82 104 86.9249 104 93 Z" /></clipPath><clipPath clipPathUnits="userSpaceOnUse" id="clipPath8"><path d="M52 93 C52 99.0751 47.0751 104 41 104 C34.9249 104 30 99.0751 30 93 C30 86.9249 34.9249 82 41 82 C47.0751 82 52 86.9249 52 93 Z" /></clipPath><clipPath clipPathUnits="userSpaceOnUse" id="clipPath9"><path d="M156 41 C156 47.0751 151.0751 52 145 52 C138.9249 52 134 47.0751 134 41 C134 34.9249 138.9249 30 145 30 C151.0751 30 156 34.9249 156 41 Z" /></clipPath><clipPath clipPathUnits="userSpaceOnUse" id="clipPath10"><path d="M104 41 C104 47.0751 99.0751 52 93 52 C86.9249 52 82 47.0751 82 41 C82 34.9249 86.9249 30 93 30 C99.0751 30 104 34.9249 104 41 Z" /></clipPath><clipPath clipPathUnits="userSpaceOnUse" id="clipPath11"><path d="M52 41 C52 47.0751 47.0751 52 41 52 C34.9249 52 30 47.0751 30 41 C30 34.9249 34.9249 30 41 30 C47.0751 30 52 34.9249 52 41 Z" /></clipPath></defs><g style="fill:white; text-rendering:optimizeSpeed; stroke:white;"><rect height="186" style="stroke:none;" width="342" x="0" y="0" /></g><g ID="l-1:1,2" style="text-rendering:optimizeSpeed;"><polygon points=" 301 80 249 80" style="fill:none;" /></g><g ID="r-1:1" style="fill:white; text-rendering:optimizeSpeed; stroke:white;" wurcs_mono_id="1"><rect height="22" style="clip-path:url(#clipPath1); stroke:none;" width="22" x="290" y="69" /><rect height="22" style="clip-path:url(#clipPath1); fill:rgb(0,144,188); stroke:none;" width="22" x="290" y="69" /><rect height="22" style="clip-path:url(#clipPath1); fill:none; stroke:black;" width="22" x="290" y="69" /><rect height="22" style="fill:none; stroke:black;" width="22" x="290" y="69" /></g><g ID="l-1:2,3" style="text-rendering:optimizeSpeed;"><polygon points=" 249 80 197 80" style="fill:none;" /></g><g ID="r-1:2" style="fill:white; text-rendering:optimizeSpeed; stroke:white;" wurcs_mono_id="2"><rect height="22" style="clip-path:url(#clipPath2); stroke:none;" width="22" x="238" y="69" /><rect height="22" style="clip-path:url(#clipPath2); fill:rgb(0,144,188); stroke:none;" width="22" x="238" y="69" /><rect height="22" style="clip-path:url(#clipPath2); fill:none; stroke:black;" width="22" x="238" y="69" /><rect height="22" style="fill:none; stroke:black;" width="22" x="238" y="69" /></g><g ID="l-1:3,4" style="text-rendering:optimizeSpeed;"><polygon points=" 197 80 145 119" style="fill:none;" /></g><g ID="l-1:3,5" style="text-rendering:optimizeSpeed;"><polygon points=" 197 80 145 41" style="fill:none;" /></g><g ID="r-1:3" style="fill:white; text-rendering:optimizeSpeed; stroke:white;" wurcs_mono_id="3"><circle cx="197" cy="80" r="11" style="clip-path:url(#clipPath3); stroke:none;" /><rect height="22" style="clip-path:url(#clipPath3); fill:rgb(0,166,81); stroke:none;" width="22" x="186" y="69" /><rect height="22" style="clip-path:url(#clipPath3); fill:none; stroke:black;" width="22" x="186" y="69" /><circle cx="197" cy="80" r="11" style="fill:none; stroke:black;" /></g><g ID="l-1:4,6" style="text-rendering:optimizeSpeed;"><polygon points=" 145 119 93 145" style="fill:none;" /></g><g ID="l-1:4,7" style="text-rendering:optimizeSpeed;"><polygon points=" 145 119 93 93" style="fill:none;" /></g><g ID="r-1:4" style="fill:white; text-rendering:optimizeSpeed; stroke:white;" wurcs_mono_id="4"><circle cx="145" cy="119" r="11" style="clip-path:url(#clipPath4); stroke:none;" /><rect height="22" style="clip-path:url(#clipPath4); fill:rgb(0,166,81); stroke:none;" width="22" x="134" y="108" /><rect height="22" style="clip-path:url(#clipPath4); fill:none; stroke:black;" width="22" x="134" y="108" /><circle cx="145" cy="119" r="11" style="fill:none; stroke:black;" /></g><g ID="l-1:6,8" style="text-rendering:optimizeSpeed;"><polygon points=" 93 145 41 145" style="fill:none;" /></g><g ID="r-1:6" style="fill:white; text-rendering:optimizeSpeed; stroke:white;" wurcs_mono_id="7"><circle cx="93" cy="145" r="11" style="clip-path:url(#clipPath5); stroke:none;" /><rect height="22" style="clip-path:url(#clipPath5); fill:rgb(0,166,81); stroke:none;" width="22" x="82" y="134" /><rect height="22" style="clip-path:url(#clipPath5); fill:none; stroke:black;" width="22" x="82" y="134" /><circle cx="93" cy="145" r="11" style="fill:none; stroke:black;" /></g><g ID="r-1:8" style="fill:white; text-rendering:optimizeSpeed; stroke:white;" wurcs_mono_id="8"><circle cx="41" cy="145" r="11" style="clip-path:url(#clipPath6); stroke:none;" /><rect height="22" style="clip-path:url(#clipPath6); fill:rgb(0,166,81); stroke:none;" width="22" x="30" y="134" /><rect height="22" style="clip-path:url(#clipPath6); fill:none; stroke:black;" width="22" x="30" y="134" /><circle cx="41" cy="145" r="11" style="fill:none; stroke:black;" /></g><g ID="li-1:6,8" style="fill:white; text-rendering:optimizeSpeed; font-family:'Serif'; stroke:white;"><rect height="10" style="stroke:none;" width="6" x="71" y="148" /><path d="M73.1094 157.3906 Q73.1094 157.0625 73.3359 156.8359 Q73.5625 156.6094 73.8906 156.6094 Q74.2188 156.6094 74.4453 156.8359 Q74.6719 157.0625 74.6719 157.3906 Q74.6719 157.7188 74.4453 157.9453 Q74.2188 158.1719 73.8906 158.1719 Q73.5625 158.1719 73.3359 157.9453 Q73.1094 157.7188 73.1094 157.3906 ZM71.8125 149.6406 Q72.4375 149.3594 73 149.2266 Q73.5625 149.0938 74.0469 149.0938 Q75.3438 149.0938 76.1016 149.7188 Q76.8594 150.3438 76.8594 151.4062 Q76.8594 152.5 76.2109 153.1953 Q75.5625 153.8906 74.25 154.1875 L74.25 155.6719 L73.5312 155.6719 L73.5312 153.75 Q74.5625 153.5 75.0938 152.9062 Q75.625 152.3125 75.625 151.4062 Q75.625 150.5938 75.1953 150.1328 Q74.7656 149.6719 74.0312 149.6719 Q73.3594 149.6719 72.9297 150.0547 Q72.5 150.4375 72.3906 151.1562 L71.8125 151.1562 L71.8125 149.6406 Z" style="fill:black; stroke:none;" /><rect height="8" style="stroke:none;" width="8" x="56" y="149" /><path d="M61.1875 155.4688 L60.9531 156.1094 Q60.7656 156.625 60.2031 156.9375 Q59.8438 157.1562 59.2031 157.1406 Q58.0469 157.1406 57.3281 156.2344 Q56.5938 155.3281 56.5938 153.8594 Q56.5938 152.4219 57.3281 151.4844 Q58.0156 150.5938 59.4531 150.6094 Q60.4531 150.6094 60.9531 151 Q61.4062 151.3438 61.5781 152.0938 L61.625 152.3125 L61.8438 151.6719 Q62.0625 151.0469 62.6562 150.75 L63.25 150.75 L63.25 151.0938 Q62.6875 151.2656 62.5 151.8125 L61.8906 153.4844 L62.2969 155.2812 Q62.5 156.2031 62.7344 156.2969 Q63.0469 156.4375 63.7812 156 L63.7812 156.7188 Q62.5938 157.4062 61.75 156.6875 Q61.375 156.3594 61.2656 155.875 L61.1875 155.4688 ZM60.9219 154.3125 L60.5625 152.5938 Q60.2656 151.2188 59.4688 151.2188 Q58.7969 151.2031 58.2812 151.9375 Q57.8594 152.5156 57.8594 153.875 Q57.8594 155.1719 58.2812 155.8281 Q58.75 156.5469 59.5312 156.5 Q60.2031 156.4375 60.6875 155 L60.9219 154.3125 Z" style="fill:black; stroke:none;" /></g><g ID="l-1:7,9" style="text-rendering:optimizeSpeed;"><polygon points=" 93 93 41 93" style="fill:none;" /></g><g ID="r-1:7" style="fill:white; text-rendering:optimizeSpeed; stroke:white;" wurcs_mono_id="5"><circle cx="93" cy="93" r="11" style="clip-path:url(#clipPath7); stroke:none;" /><rect height="22" style="clip-path:url(#clipPath7); fill:rgb(0,166,81); stroke:none;" width="22" x="82" y="82" /><rect height="22" style="clip-path:url(#clipPath7); fill:none; stroke:black;" width="22" x="82" y="82" /><circle cx="93" cy="93" r="11" style="fill:none; stroke:black;" /></g><g ID="r-1:9" style="fill:white; text-rendering:optimizeSpeed; stroke:white;" wurcs_mono_id="6"><circle cx="41" cy="93" r="11" style="clip-path:url(#clipPath8); stroke:none;" /><rect height="22" style="clip-path:url(#clipPath8); fill:rgb(0,166,81); stroke:none;" width="22" x="30" y="82" /><rect height="22" style="clip-path:url(#clipPath8); fill:none; stroke:black;" width="22" x="30" y="82" /><circle cx="41" cy="93" r="11" style="fill:none; stroke:black;" /></g><g ID="li-1:7,9" style="fill:white; text-rendering:optimizeSpeed; font-family:'Serif'; stroke:white;"><rect height="10" style="stroke:none;" width="6" x="71" y="96" /><path d="M73.1094 105.3906 Q73.1094 105.0625 73.3359 104.8359 Q73.5625 104.6094 73.8906 104.6094 Q74.2188 104.6094 74.4453 104.8359 Q74.6719 105.0625 74.6719 105.3906 Q74.6719 105.7188 74.4453 105.9453 Q74.2188 106.1719 73.8906 106.1719 Q73.5625 106.1719 73.3359 105.9453 Q73.1094 105.7188 73.1094 105.3906 ZM71.8125 97.6406 Q72.4375 97.3594 73 97.2266 Q73.5625 97.0938 74.0469 97.0938 Q75.3438 97.0938 76.1016 97.7188 Q76.8594 98.3438 76.8594 99.4062 Q76.8594 100.5 76.2109 101.1953 Q75.5625 101.8906 74.25 102.1875 L74.25 103.6719 L73.5312 103.6719 L73.5312 101.75 Q74.5625 101.5 75.0938 100.9062 Q75.625 100.3125 75.625 99.4062 Q75.625 98.5938 75.1953 98.1328 Q74.7656 97.6719 74.0312 97.6719 Q73.3594 97.6719 72.9297 98.0547 Q72.5 98.4375 72.3906 99.1562 L71.8125 99.1562 L71.8125 97.6406 Z" style="fill:black; stroke:none;" /><rect height="8" style="stroke:none;" width="8" x="56" y="97" /><path d="M61.1875 103.4688 L60.9531 104.1094 Q60.7656 104.625 60.2031 104.9375 Q59.8438 105.1562 59.2031 105.1406 Q58.0469 105.1406 57.3281 104.2344 Q56.5938 103.3281 56.5938 101.8594 Q56.5938 100.4219 57.3281 99.4844 Q58.0156 98.5938 59.4531 98.6094 Q60.4531 98.6094 60.9531 99 Q61.4062 99.3438 61.5781 100.0938 L61.625 100.3125 L61.8438 99.6719 Q62.0625 99.0469 62.6562 98.75 L63.25 98.75 L63.25 99.0938 Q62.6875 99.2656 62.5 99.8125 L61.8906 101.4844 L62.2969 103.2812 Q62.5 104.2031 62.7344 104.2969 Q63.0469 104.4375 63.7812 104 L63.7812 104.7188 Q62.5938 105.4062 61.75 104.6875 Q61.375 104.3594 61.2656 103.875 L61.1875 103.4688 ZM60.9219 102.3125 L60.5625 100.5938 Q60.2656 99.2188 59.4688 99.2188 Q58.7969 99.2031 58.2812 99.9375 Q57.8594 100.5156 57.8594 101.875 Q57.8594 103.1719 58.2812 103.8281 Q58.75 104.5469 59.5312 104.5 Q60.2031 104.4375 60.6875 103 L60.9219 102.3125 Z" style="fill:black; stroke:none;" /></g><g ID="li-1:4,6" style="fill:white; text-rendering:optimizeSpeed; font-family:'Serif'; stroke:white;"><rect height="10" style="stroke:none;" width="6" x="127" y="130" /><path d="M129.1094 139.3906 Q129.1094 139.0625 129.3359 138.8359 Q129.5625 138.6094 129.8906 138.6094 Q130.2188 138.6094 130.4453 138.8359 Q130.6719 139.0625 130.6719 139.3906 Q130.6719 139.7188 130.4453 139.9453 Q130.2188 140.1719 129.8906 140.1719 Q129.5625 140.1719 129.3359 139.9453 Q129.1094 139.7188 129.1094 139.3906 ZM127.8125 131.6406 Q128.4375 131.3594 129 131.2266 Q129.5625 131.0938 130.0469 131.0938 Q131.3438 131.0938 132.1016 131.7188 Q132.8594 132.3438 132.8594 133.4062 Q132.8594 134.5 132.2109 135.1953 Q131.5625 135.8906 130.25 136.1875 L130.25 137.6719 L129.5312 137.6719 L129.5312 135.75 Q130.5625 135.5 131.0938 134.9062 Q131.625 134.3125 131.625 133.4062 Q131.625 132.5938 131.1953 132.1328 Q130.7656 131.6719 130.0312 131.6719 Q129.3594 131.6719 128.9297 132.0547 Q128.5 132.4375 128.3906 133.1562 L127.8125 133.1562 L127.8125 131.6406 Z" style="fill:black; stroke:none;" /><rect height="8" style="stroke:none;" width="8" x="110" y="139" /><path d="M115.1875 145.4688 L114.9531 146.1094 Q114.7656 146.625 114.2031 146.9375 Q113.8438 147.1562 113.2031 147.1406 Q112.0469 147.1406 111.3281 146.2344 Q110.5938 145.3281 110.5938 143.8594 Q110.5938 142.4219 111.3281 141.4844 Q112.0156 140.5938 113.4531 140.6094 Q114.4531 140.6094 114.9531 141 Q115.4062 141.3438 115.5781 142.0938 L115.625 142.3125 L115.8438 141.6719 Q116.0625 141.0469 116.6562 140.75 L117.25 140.75 L117.25 141.0938 Q116.6875 141.2656 116.5 141.8125 L115.8906 143.4844 L116.2969 145.2812 Q116.5 146.2031 116.7344 146.2969 Q117.0469 146.4375 117.7812 146 L117.7812 146.7188 Q116.5938 147.4062 115.75 146.6875 Q115.375 146.3594 115.2656 145.875 L115.1875 145.4688 ZM114.9219 144.3125 L114.5625 142.5938 Q114.2656 141.2188 113.4688 141.2188 Q112.7969 141.2031 112.2812 141.9375 Q111.8594 142.5156 111.8594 143.875 Q111.8594 145.1719 112.2812 145.8281 Q112.75 146.5469 113.5312 146.5 Q114.2031 146.4375 114.6875 145 L114.9219 144.3125 Z" style="fill:black; stroke:none;" /></g><g ID="li-1:4,7" style="fill:white; text-rendering:optimizeSpeed; font-family:'Serif'; stroke:white;"><rect height="10" style="stroke:none;" width="6" x="120" y="112" /><path d="M122.1094 121.3906 Q122.1094 121.0625 122.3359 120.8359 Q122.5625 120.6094 122.8906 120.6094 Q123.2188 120.6094 123.4453 120.8359 Q123.6719 121.0625 123.6719 121.3906 Q123.6719 121.7188 123.4453 121.9453 Q123.2188 122.1719 122.8906 122.1719 Q122.5625 122.1719 122.3359 121.9453 Q122.1094 121.7188 122.1094 121.3906 ZM120.8125 113.6406 Q121.4375 113.3594 122 113.2266 Q122.5625 113.0938 123.0469 113.0938 Q124.3438 113.0938 125.1016 113.7188 Q125.8594 114.3438 125.8594 115.4062 Q125.8594 116.5 125.2109 117.1953 Q124.5625 117.8906 123.25 118.1875 L123.25 119.6719 L122.5312 119.6719 L122.5312 117.75 Q123.5625 117.5 124.0938 116.9062 Q124.625 116.3125 124.625 115.4062 Q124.625 114.5938 124.1953 114.1328 Q123.7656 113.6719 123.0312 113.6719 Q122.3594 113.6719 121.9297 114.0547 Q121.5 114.4375 121.3906 115.1562 L120.8125 115.1562 L120.8125 113.6406 Z" style="fill:black; stroke:none;" /><rect height="8" style="stroke:none;" width="8" x="103" y="105" /><path d="M108.1875 111.4688 L107.9531 112.1094 Q107.7656 112.625 107.2031 112.9375 Q106.8438 113.1562 106.2031 113.1406 Q105.0469 113.1406 104.3281 112.2344 Q103.5938 111.3281 103.5938 109.8594 Q103.5938 108.4219 104.3281 107.4844 Q105.0156 106.5938 106.4531 106.6094 Q107.4531 106.6094 107.9531 107 Q108.4062 107.3438 108.5781 108.0938 L108.625 108.3125 L108.8438 107.6719 Q109.0625 107.0469 109.6562 106.75 L110.25 106.75 L110.25 107.0938 Q109.6875 107.2656 109.5 107.8125 L108.8906 109.4844 L109.2969 111.2812 Q109.5 112.2031 109.7344 112.2969 Q110.0469 112.4375 110.7812 112 L110.7812 112.7188 Q109.5938 113.4062 108.75 112.6875 Q108.375 112.3594 108.2656 111.875 L108.1875 111.4688 ZM107.9219 110.3125 L107.5625 108.5938 Q107.2656 107.2188 106.4688 107.2188 Q105.7969 107.2031 105.2812 107.9375 Q104.8594 108.5156 104.8594 109.875 Q104.8594 111.1719 105.2812 111.8281 Q105.75 112.5469 106.5312 112.5 Q107.2031 112.4375 107.6875 111 L107.9219 110.3125 Z" style="fill:black; stroke:none;" /></g><g ID="l-1:5,10" style="text-rendering:optimizeSpeed;"><polygon points=" 145 41 93 41" style="fill:none;" /></g><g ID="r-1:5" style="fill:white; text-rendering:optimizeSpeed; stroke:white;" wurcs_mono_id="9"><circle cx="145" cy="41" r="11" style="clip-path:url(#clipPath9); stroke:none;" /><rect height="22" style="clip-path:url(#clipPath9); fill:rgb(0,166,81); stroke:none;" width="22" x="134" y="30" /><rect height="22" style="clip-path:url(#clipPath9); fill:none; stroke:black;" width="22" x="134" y="30" /><circle cx="145" cy="41" r="11" style="fill:none; stroke:black;" /></g><g ID="l-1:10,11" style="text-rendering:optimizeSpeed;"><polygon points=" 93 41 41 41" style="fill:none;" /></g><g ID="r-1:10" style="fill:white; text-rendering:optimizeSpeed; stroke:white;" wurcs_mono_id="10"><circle cx="93" cy="41" r="11" style="clip-path:url(#clipPath10); stroke:none;" /><rect height="22" style="clip-path:url(#clipPath10); fill:rgb(0,166,81); stroke:none;" width="22" x="82" y="30" /><rect height="22" style="clip-path:url(#clipPath10); fill:none; stroke:black;" width="22" x="82" y="30" /><circle cx="93" cy="41" r="11" style="fill:none; stroke:black;" /></g><g ID="r-1:11" style="fill:white; text-rendering:optimizeSpeed; stroke:white;" wurcs_mono_id="11"><circle cx="41" cy="41" r="11" style="clip-path:url(#clipPath11); stroke:none;" /><rect height="22" style="clip-path:url(#clipPath11); fill:rgb(0,166,81); stroke:none;" width="22" x="30" y="30" /><rect height="22" style="clip-path:url(#clipPath11); fill:none; stroke:black;" width="22" x="30" y="30" /><circle cx="41" cy="41" r="11" style="fill:none; stroke:black;" /></g><g ID="li-1:10,11" style="fill:white; text-rendering:optimizeSpeed; font-family:'Serif'; stroke:white;"><rect height="10" style="stroke:none;" width="6" x="71" y="44" /><path d="M73.1094 53.3906 Q73.1094 53.0625 73.3359 52.8359 Q73.5625 52.6094 73.8906 52.6094 Q74.2188 52.6094 74.4453 52.8359 Q74.6719 53.0625 74.6719 53.3906 Q74.6719 53.7188 74.4453 53.9453 Q74.2188 54.1719 73.8906 54.1719 Q73.5625 54.1719 73.3359 53.9453 Q73.1094 53.7188 73.1094 53.3906 ZM71.8125 45.6406 Q72.4375 45.3594 73 45.2266 Q73.5625 45.0938 74.0469 45.0938 Q75.3438 45.0938 76.1016 45.7188 Q76.8594 46.3438 76.8594 47.4062 Q76.8594 48.5 76.2109 49.1953 Q75.5625 49.8906 74.25 50.1875 L74.25 51.6719 L73.5312 51.6719 L73.5312 49.75 Q74.5625 49.5 75.0938 48.9062 Q75.625 48.3125 75.625 47.4062 Q75.625 46.5938 75.1953 46.1328 Q74.7656 45.6719 74.0312 45.6719 Q73.3594 45.6719 72.9297 46.0547 Q72.5 46.4375 72.3906 47.1562 L71.8125 47.1562 L71.8125 45.6406 Z" style="fill:black; stroke:none;" /><rect height="8" style="stroke:none;" width="8" x="56" y="45" /><path d="M61.1875 51.4688 L60.9531 52.1094 Q60.7656 52.625 60.2031 52.9375 Q59.8438 53.1562 59.2031 53.1406 Q58.0469 53.1406 57.3281 52.2344 Q56.5938 51.3281 56.5938 49.8594 Q56.5938 48.4219 57.3281 47.4844 Q58.0156 46.5938 59.4531 46.6094 Q60.4531 46.6094 60.9531 47 Q61.4062 47.3438 61.5781 48.0938 L61.625 48.3125 L61.8438 47.6719 Q62.0625 47.0469 62.6562 46.75 L63.25 46.75 L63.25 47.0938 Q62.6875 47.2656 62.5 47.8125 L61.8906 49.4844 L62.2969 51.2812 Q62.5 52.2031 62.7344 52.2969 Q63.0469 52.4375 63.7812 52 L63.7812 52.7188 Q62.5938 53.4062 61.75 52.6875 Q61.375 52.3594 61.2656 51.875 L61.1875 51.4688 ZM60.9219 50.3125 L60.5625 48.5938 Q60.2656 47.2188 59.4688 47.2188 Q58.7969 47.2031 58.2812 47.9375 Q57.8594 48.5156 57.8594 49.875 Q57.8594 51.1719 58.2812 51.8281 Q58.75 52.5469 59.5312 52.5 Q60.2031 52.4375 60.6875 51 L60.9219 50.3125 Z" style="fill:black; stroke:none;" /></g><g ID="li-1:5,10" style="fill:white; text-rendering:optimizeSpeed; font-family:'Serif'; stroke:white;"><rect height="10" style="stroke:none;" width="6" x="123" y="44" /><path d="M125.1094 53.3906 Q125.1094 53.0625 125.3359 52.8359 Q125.5625 52.6094 125.8906 52.6094 Q126.2188 52.6094 126.4453 52.8359 Q126.6719 53.0625 126.6719 53.3906 Q126.6719 53.7188 126.4453 53.9453 Q126.2188 54.1719 125.8906 54.1719 Q125.5625 54.1719 125.3359 53.9453 Q125.1094 53.7188 125.1094 53.3906 ZM123.8125 45.6406 Q124.4375 45.3594 125 45.2266 Q125.5625 45.0938 126.0469 45.0938 Q127.3438 45.0938 128.1016 45.7188 Q128.8594 46.3438 128.8594 47.4062 Q128.8594 48.5 128.2109 49.1953 Q127.5625 49.8906 126.25 50.1875 L126.25 51.6719 L125.5312 51.6719 L125.5312 49.75 Q126.5625 49.5 127.0938 48.9062 Q127.625 48.3125 127.625 47.4062 Q127.625 46.5938 127.1953 46.1328 Q126.7656 45.6719 126.0312 45.6719 Q125.3594 45.6719 124.9297 46.0547 Q124.5 46.4375 124.3906 47.1562 L123.8125 47.1562 L123.8125 45.6406 Z" style="fill:black; stroke:none;" /><rect height="8" style="stroke:none;" width="8" x="108" y="45" /><path d="M113.1875 51.4688 L112.9531 52.1094 Q112.7656 52.625 112.2031 52.9375 Q111.8438 53.1562 111.2031 53.1406 Q110.0469 53.1406 109.3281 52.2344 Q108.5938 51.3281 108.5938 49.8594 Q108.5938 48.4219 109.3281 47.4844 Q110.0156 46.5938 111.4531 46.6094 Q112.4531 46.6094 112.9531 47 Q113.4062 47.3438 113.5781 48.0938 L113.625 48.3125 L113.8438 47.6719 Q114.0625 47.0469 114.6562 46.75 L115.25 46.75 L115.25 47.0938 Q114.6875 47.2656 114.5 47.8125 L113.8906 49.4844 L114.2969 51.2812 Q114.5 52.2031 114.7344 52.2969 Q115.0469 52.4375 115.7812 52 L115.7812 52.7188 Q114.5938 53.4062 113.75 52.6875 Q113.375 52.3594 113.2656 51.875 L113.1875 51.4688 ZM112.9219 50.3125 L112.5625 48.5938 Q112.2656 47.2188 111.4688 47.2188 Q110.7969 47.2031 110.2812 47.9375 Q109.8594 48.5156 109.8594 49.875 Q109.8594 51.1719 110.2812 51.8281 Q110.75 52.5469 111.5312 52.5 Q112.2031 52.4375 112.6875 51 L112.9219 50.3125 Z" style="fill:black; stroke:none;" /></g><g ID="li-1:3,4" style="fill:white; text-rendering:optimizeSpeed; font-family:'Serif'; stroke:white;"><rect height="10" style="stroke:none;" width="6" x="181" y="94" /><path d="M183.1094 103.3906 Q183.1094 103.0625 183.3359 102.8359 Q183.5625 102.6094 183.8906 102.6094 Q184.2188 102.6094 184.4453 102.8359 Q184.6719 103.0625 184.6719 103.3906 Q184.6719 103.7188 184.4453 103.9453 Q184.2188 104.1719 183.8906 104.1719 Q183.5625 104.1719 183.3359 103.9453 Q183.1094 103.7188 183.1094 103.3906 ZM181.8125 95.6406 Q182.4375 95.3594 183 95.2266 Q183.5625 95.0938 184.0469 95.0938 Q185.3438 95.0938 186.1016 95.7188 Q186.8594 96.3438 186.8594 97.4062 Q186.8594 98.5 186.2109 99.1953 Q185.5625 99.8906 184.25 100.1875 L184.25 101.6719 L183.5312 101.6719 L183.5312 99.75 Q184.5625 99.5 185.0938 98.9062 Q185.625 98.3125 185.625 97.4062 Q185.625 96.5938 185.1953 96.1328 Q184.7656 95.6719 184.0312 95.6719 Q183.3594 95.6719 182.9297 96.0547 Q182.5 96.4375 182.3906 97.1562 L181.8125 97.1562 L181.8125 95.6406 Z" style="fill:black; stroke:none;" /><rect height="8" style="stroke:none;" width="8" x="163" y="108" /><path d="M168.1875 114.4688 L167.9531 115.1094 Q167.7656 115.625 167.2031 115.9375 Q166.8438 116.1562 166.2031 116.1406 Q165.0469 116.1406 164.3281 115.2344 Q163.5938 114.3281 163.5938 112.8594 Q163.5938 111.4219 164.3281 110.4844 Q165.0156 109.5938 166.4531 109.6094 Q167.4531 109.6094 167.9531 110 Q168.4062 110.3438 168.5781 111.0938 L168.625 111.3125 L168.8438 110.6719 Q169.0625 110.0469 169.6562 109.75 L170.25 109.75 L170.25 110.0938 Q169.6875 110.2656 169.5 110.8125 L168.8906 112.4844 L169.2969 114.2812 Q169.5 115.2031 169.7344 115.2969 Q170.0469 115.4375 170.7812 115 L170.7812 115.7188 Q169.5938 116.4062 168.75 115.6875 Q168.375 115.3594 168.2656 114.875 L168.1875 114.4688 ZM167.9219 113.3125 L167.5625 111.5938 Q167.2656 110.2188 166.4688 110.2188 Q165.7969 110.2031 165.2812 110.9375 Q164.8594 111.5156 164.8594 112.875 Q164.8594 114.1719 165.2812 114.8281 Q165.75 115.5469 166.5312 115.5 Q167.2031 115.4375 167.6875 114 L167.9219 113.3125 Z" style="fill:black; stroke:none;" /></g><g ID="li-1:3,5" style="fill:white; text-rendering:optimizeSpeed; font-family:'Serif'; stroke:white;"><rect height="10" style="stroke:none;" width="6" x="171" y="68" /><path d="M173.1094 77.3906 Q173.1094 77.0625 173.3359 76.8359 Q173.5625 76.6094 173.8906 76.6094 Q174.2188 76.6094 174.4453 76.8359 Q174.6719 77.0625 174.6719 77.3906 Q174.6719 77.7188 174.4453 77.9453 Q174.2188 78.1719 173.8906 78.1719 Q173.5625 78.1719 173.3359 77.9453 Q173.1094 77.7188 173.1094 77.3906 ZM171.8125 69.6406 Q172.4375 69.3594 173 69.2266 Q173.5625 69.0938 174.0469 69.0938 Q175.3438 69.0938 176.1016 69.7188 Q176.8594 70.3438 176.8594 71.4062 Q176.8594 72.5 176.2109 73.1953 Q175.5625 73.8906 174.25 74.1875 L174.25 75.6719 L173.5312 75.6719 L173.5312 73.75 Q174.5625 73.5 175.0938 72.9062 Q175.625 72.3125 175.625 71.4062 Q175.625 70.5938 175.1953 70.1328 Q174.7656 69.6719 174.0312 69.6719 Q173.3594 69.6719 172.9297 70.0547 Q172.5 70.4375 172.3906 71.1562 L171.8125 71.1562 L171.8125 69.6406 Z" style="fill:black; stroke:none;" /><rect height="8" style="stroke:none;" width="8" x="153" y="56" /><path d="M158.1875 62.4688 L157.9531 63.1094 Q157.7656 63.625 157.2031 63.9375 Q156.8438 64.1562 156.2031 64.1406 Q155.0469 64.1406 154.3281 63.2344 Q153.5938 62.3281 153.5938 60.8594 Q153.5938 59.4219 154.3281 58.4844 Q155.0156 57.5938 156.4531 57.6094 Q157.4531 57.6094 157.9531 58 Q158.4062 58.3438 158.5781 59.0938 L158.625 59.3125 L158.8438 58.6719 Q159.0625 58.0469 159.6562 57.75 L160.25 57.75 L160.25 58.0938 Q159.6875 58.2656 159.5 58.8125 L158.8906 60.4844 L159.2969 62.2812 Q159.5 63.2031 159.7344 63.2969 Q160.0469 63.4375 160.7812 63 L160.7812 63.7188 Q159.5938 64.4062 158.75 63.6875 Q158.375 63.3594 158.2656 62.875 L158.1875 62.4688 ZM157.9219 61.3125 L157.5625 59.5938 Q157.2656 58.2188 156.4688 58.2188 Q155.7969 58.2031 155.2812 58.9375 Q154.8594 59.5156 154.8594 60.875 Q154.8594 62.1719 155.2812 62.8281 Q155.75 63.5469 156.5312 63.5 Q157.2031 63.4375 157.6875 62 L157.9219 61.3125 Z" style="fill:black; stroke:none;" /></g><g ID="li-1:2,3" style="fill:white; text-rendering:optimizeSpeed; font-family:'Serif'; stroke:white;"><rect height="9" style="stroke:none;" width="8" x="226" y="83" /><path d="M230.1875 89.0312 L230.1875 84.375 L227.2031 89.0312 L230.1875 89.0312 ZM232.7656 92 L228.7812 92 L228.7812 91.375 L230.1875 91.375 L230.1875 89.6562 L226.375 89.6562 L226.375 89.0156 L230.2031 83.0938 L231.3594 83.0938 L231.3594 89.0312 L233.0312 89.0312 L233.0312 89.6562 L231.3594 89.6562 L231.3594 91.375 L232.7656 91.375 L232.7656 92 Z" style="fill:black; stroke:none;" /><rect height="13" style="stroke:none;" width="7" x="212" y="81" /><path d="M213.8281 93.25 Q214.2969 93.5938 215.1719 93.5938 Q216.0625 93.5938 216.5781 93.0703 Q217.0938 92.5469 217.0938 91.6562 Q217.0938 90.4219 216.5625 89.8906 Q216.0156 89.3594 215 89.3594 L214.4375 89.3594 L214.4375 88.7188 L214.7344 88.7188 Q215.4844 88.7188 216 88.2969 Q216.4219 87.9531 216.4219 87.0156 Q216.4219 86.6094 216.1406 86.1406 Q215.6875 85.375 215.1562 85.3906 Q213.8281 85.4375 213.8281 87.7812 L213.8281 93.25 ZM212.75 96.5 L212.75 87.7812 Q212.75 85.3281 214.0781 85 Q214.7656 84.8125 215.25 84.8125 Q216.3438 84.8125 217.0469 85.6719 Q217.6094 86.3594 217.6094 86.9375 Q217.6094 87.7812 217.2031 88.2656 Q216.7969 88.75 216.0625 88.9844 Q217.1406 89.1406 217.75 89.7812 Q218.3281 90.4062 218.3281 91.6328 Q218.3281 92.8594 217.5078 93.5156 Q216.6875 94.1719 215.1406 94.1719 Q214.1875 94.1719 213.8281 94.0312 L213.8281 96.5 L212.75 96.5 Z" style="fill:black; stroke:none;" /></g><g ID="li-1:1,2" style="fill:white; text-rendering:optimizeSpeed; font-family:'Serif'; stroke:white;"><rect height="9" style="stroke:none;" width="8" x="278" y="83" /><path d="M282.1875 89.0312 L282.1875 84.375 L279.2031 89.0312 L282.1875 89.0312 ZM284.7656 92 L280.7812 92 L280.7812 91.375 L282.1875 91.375 L282.1875 89.6562 L278.375 89.6562 L278.375 89.0156 L282.2031 83.0938 L283.3594 83.0938 L283.3594 89.0312 L285.0312 89.0312 L285.0312 89.6562 L283.3594 89.6562 L283.3594 91.375 L284.7656 91.375 L284.7656 92 Z" style="fill:black; stroke:none;" /><rect height="13" style="stroke:none;" width="7" x="264" y="81" /><path d="M265.8281 93.25 Q266.2969 93.5938 267.1719 93.5938 Q268.0625 93.5938 268.5781 93.0703 Q269.0938 92.5469 269.0938 91.6562 Q269.0938 90.4219 268.5625 89.8906 Q268.0156 89.3594 267 89.3594 L266.4375 89.3594 L266.4375 88.7188 L266.7344 88.7188 Q267.4844 88.7188 268 88.2969 Q268.4219 87.9531 268.4219 87.0156 Q268.4219 86.6094 268.1406 86.1406 Q267.6875 85.375 267.1562 85.3906 Q265.8281 85.4375 265.8281 87.7812 L265.8281 93.25 ZM264.75 96.5 L264.75 87.7812 Q264.75 85.3281 266.0781 85 Q266.7656 84.8125 267.25 84.8125 Q268.3438 84.8125 269.0469 85.6719 Q269.6094 86.3594 269.6094 86.9375 Q269.6094 87.7812 269.2031 88.2656 Q268.7969 88.75 268.0625 88.9844 Q269.1406 89.1406 269.75 89.7812 Q270.3281 90.4062 270.3281 91.6328 Q270.3281 92.8594 269.5078 93.5156 Q268.6875 94.1719 267.1406 94.1719 Q266.1875 94.1719 265.8281 94.0312 L265.8281 96.5 L264.75 96.5 Z" style="fill:black; stroke:none;" /></g></g></svg>