<svg xmlns="http://www.w3.org/2000/svg" style="fill-opacity:1; color-rendering:auto; color-interpolation:auto; text-rendering:auto; stroke:black; stroke-linecap:square; stroke-miterlimit:10; shape-rendering:auto; stroke-opacity:1; fill:black; stroke-dasharray:none; font-weight:normal; stroke-width:1; font-family:'Dialog'; font-style:normal; stroke-linejoin:miter; font-size:12px; stroke-dashoffset:0; image-rendering:auto;"><defs id="genericDefs" /><g><defs id="defs1"><clipPath clipPathUnits="userSpaceOnUse" id="clipPath1"><path d="M446 95 L468 95 L468 117 L446 117 L446 95 Z" /></clipPath><clipPath clipPathUnits="userSpaceOnUse" id="clipPath2"><path d="M394 95 L416 95 L416 117 L394 117 L394 95 Z" /></clipPath><clipPath clipPathUnits="userSpaceOnUse" id="clipPath3"><path d="M364 106 C364 112.0751 359.0751 117 353 117 C346.9249 117 342 112.0751 342 106 C342 99.9249 346.9249 95 353 95 C359.0751 95 364 99.9249 364 106 Z" /></clipPath><clipPath clipPathUnits="userSpaceOnUse" id="clipPath4"><path d="M312 145 C312 151.0751 307.0751 156 301 156 C294.9249 156 290 151.0751 290 145 C290 138.9249 294.9249 134 301 134 C307.0751 134 312 138.9249 312 145 Z" /></clipPath><clipPath clipPathUnits="userSpaceOnUse" id="clipPath5"><path d="M238 134 L260 134 L260 156 L238 156 L238 134 Z" /></clipPath><clipPath clipPathUnits="userSpaceOnUse" id="clipPath6"><path d="M208 145 C208 151.0751 203.0751 156 197 156 C190.9249 156 186 151.0751 186 145 C186 138.9249 190.9249 134 197 134 C203.0751 134 208 138.9249 208 145 Z" /></clipPath><clipPath clipPathUnits="userSpaceOnUse" id="clipPath7"><path d="M134 134 L156 134 L156 156 L134 156 L134 134 Z" /></clipPath><clipPath clipPathUnits="userSpaceOnUse" id="clipPath8"><path d="M104 145 C104 151.0751 99.0751 156 93 156 C86.9249 156 82 151.0751 82 145 C82 138.9249 86.9249 134 93 134 C99.0751 134 104 138.9249 104 145 Z" /></clipPath><clipPath clipPathUnits="userSpaceOnUse" id="clipPath9"><path d="M41 134 L52 145 L41 156 L30 145 Z" style="fill-rule:evenodd;" /></clipPath><clipPath clipPathUnits="userSpaceOnUse" id="clipPath10"><path d="M312 67 C312 73.0751 307.0751 78 301 78 C294.9249 78 290 73.0751 290 67 C290 60.9249 294.9249 56 301 56 C307.0751 56 312 60.9249 312 67 Z" /></clipPath><clipPath clipPathUnits="userSpaceOnUse" id="clipPath11"><path d="M260 93 C260 99.0751 255.0751 104 249 104 C242.9249 104 238 99.0751 238 93 C238 86.9249 242.9249 82 249 82 C255.0751 82 260 86.9249 260 93 Z" /></clipPath><clipPath clipPathUnits="userSpaceOnUse" id="clipPath12"><path d="M260 41 C260 47.0751 255.0751 52 249 52 C242.9249 52 238 47.0751 238 41 C238 34.9249 242.9249 30 249 30 C255.0751 30 260 34.9249 260 41 Z" /></clipPath></defs><g style="fill:white; text-rendering:optimizeSpeed; stroke:white;"><rect height="186" style="stroke:none;" width="498" x="0" y="0" /></g><g ID="l-1:1,2" style="text-rendering:optimizeSpeed;"><polygon points=" 457 106 405 106" style="fill:none;" /></g><g ID="r-1:1" style="fill:white; text-rendering:optimizeSpeed; stroke:white;" wurcs_mono_id="1"><rect height="22" style="clip-path:url(#clipPath1); stroke:none;" width="22" x="446" y="95" /><rect height="22" style="clip-path:url(#clipPath1); fill:rgb(0,144,188); stroke:none;" width="22" x="446" y="95" /><rect height="22" style="clip-path:url(#clipPath1); fill:none; stroke:black;" width="22" x="446" y="95" /><rect height="22" style="fill:none; stroke:black;" width="22" x="446" y="95" /></g><g ID="l-1:2,3" style="text-rendering:optimizeSpeed;"><polygon points=" 405 106 353 106" style="fill:none;" /></g><g ID="r-1:2" style="fill:white; text-rendering:optimizeSpeed; stroke:white;" wurcs_mono_id="2"><rect height="22" style="clip-path:url(#clipPath2); stroke:none;" width="22" x="394" y="95" /><rect height="22" style="clip-path:url(#clipPath2); fill:rgb(0,144,188); stroke:none;" width="22" x="394" y="95" /><rect height="22" style="clip-path:url(#clipPath2); fill:none; stroke:black;" width="22" x="394" y="95" /><rect height="22" style="fill:none; stroke:black;" width="22" x="394" y="95" /></g><g ID="l-1:3,4" style="text-rendering:optimizeSpeed;"><polygon points=" 353 106 301 145" style="fill:none;" /></g><g ID="l-1:3,5" style="text-rendering:optimizeSpeed;"><polygon points=" 353 106 301 67" style="fill:none;" /></g><g ID="r-1:3" style="fill:white; text-rendering:optimizeSpeed; stroke:white;" wurcs_mono_id="3"><circle cx="353" cy="106" r="11" style="clip-path:url(#clipPath3); stroke:none;" /><rect height="22" style="clip-path:url(#clipPath3); fill:rgb(0,166,81); stroke:none;" width="22" x="342" y="95" /><rect height="22" style="clip-path:url(#clipPath3); fill:none; stroke:black;" width="22" x="342" y="95" /><circle cx="353" cy="106" r="11" style="fill:none; stroke:black;" /></g><g ID="l-1:4,6" style="text-rendering:optimizeSpeed;"><polygon points=" 301 145 249 145" style="fill:none;" /></g><g ID="r-1:4" style="fill:white; text-rendering:optimizeSpeed; stroke:white;" wurcs_mono_id="4"><circle cx="301" cy="145" r="11" style="clip-path:url(#clipPath4); stroke:none;" /><rect height="22" style="clip-path:url(#clipPath4); fill:rgb(0,166,81); stroke:none;" width="22" x="290" y="134" /><rect height="22" style="clip-path:url(#clipPath4); fill:none; stroke:black;" width="22" x="290" y="134" /><circle cx="301" cy="145" r="11" style="fill:none; stroke:black;" /></g><g ID="l-1:6,7" style="text-rendering:optimizeSpeed;"><polygon points=" 249 145 197 145" style="fill:none;" /></g><g ID="r-1:6" style="fill:white; text-rendering:optimizeSpeed; stroke:white;" wurcs_mono_id="5"><rect height="22" style="clip-path:url(#clipPath5); stroke:none;" width="22" x="238" y="134" /><rect height="22" style="clip-path:url(#clipPath5); fill:rgb(0,144,188); stroke:none;" width="22" x="238" y="134" /><rect height="22" style="clip-path:url(#clipPath5); fill:none; stroke:black;" width="22" x="238" y="134" /><rect height="22" style="fill:none; stroke:black;" width="22" x="238" y="134" /></g><g ID="l-1:7,8" style="text-rendering:optimizeSpeed;"><polygon points=" 197 145 145 145" style="fill:none;" /></g><g ID="r-1:7" style="fill:white; text-rendering:optimizeSpeed; stroke:white;" wurcs_mono_id="6"><circle cx="197" cy="145" r="11" style="clip-path:url(#clipPath6); stroke:none;" /><rect height="22" style="clip-path:url(#clipPath6); fill:rgb(255,212,0); stroke:none;" width="22" x="186" y="134" /><rect height="22" style="clip-path:url(#clipPath6); fill:none; stroke:black;" width="22" x="186" y="134" /><circle cx="197" cy="145" r="11" style="fill:none; stroke:black;" /></g><g ID="l-1:8,9" style="text-rendering:optimizeSpeed;"><polygon points=" 145 145 93 145" style="fill:none;" /></g><g ID="r-1:8" style="fill:white; text-rendering:optimizeSpeed; stroke:white;" wurcs_mono_id="7"><rect height="22" style="clip-path:url(#clipPath7); stroke:none;" width="22" x="134" y="134" /><rect height="22" style="clip-path:url(#clipPath7); fill:rgb(0,144,188); stroke:none;" width="22" x="134" y="134" /><rect height="22" style="clip-path:url(#clipPath7); fill:none; stroke:black;" width="22" x="134" y="134" /><rect height="22" style="fill:none; stroke:black;" width="22" x="134" y="134" /></g><g ID="l-1:9,10" style="text-rendering:optimizeSpeed;"><polygon points=" 93 145 41 145" style="fill:none;" /></g><g ID="r-1:9" style="fill:white; text-rendering:optimizeSpeed; stroke:white;" wurcs_mono_id="8"><circle cx="93" cy="145" r="11" style="clip-path:url(#clipPath8); stroke:none;" /><rect height="22" style="clip-path:url(#clipPath8); fill:rgb(255,212,0); stroke:none;" width="22" x="82" y="134" /><rect height="22" style="clip-path:url(#clipPath8); fill:none; stroke:black;" width="22" x="82" y="134" /><circle cx="93" cy="145" r="11" style="fill:none; stroke:black;" /></g><g ID="r-1:10" style="fill:white; text-rendering:optimizeSpeed; stroke:white;" wurcs_mono_id="9"><polygon points=" 41 134 52 145 41 156 30 145" style="stroke:none; clip-path:url(#clipPath9);" /><rect height="22" style="clip-path:url(#clipPath9); fill:rgb(165,67,153); stroke:none;" width="22" x="30" y="134" /><rect height="22" style="clip-path:url(#clipPath9); fill:none; stroke:black;" width="22" x="30" y="134" /><polygon points=" 41 134 52 145 41 156 30 145" style="fill:none; stroke:black;" /></g><g ID="li-1:9,10" style="fill:white; text-rendering:optimizeSpeed; font-family:'Serif'; stroke:white;"><rect height="10" style="stroke:none;" width="6" x="71" y="148" /><path d="M73.1094 157.3906 Q73.1094 157.0625 73.3359 156.8359 Q73.5625 156.6094 73.8906 156.6094 Q74.2188 156.6094 74.4453 156.8359 Q74.6719 157.0625 74.6719 157.3906 Q74.6719 157.7188 74.4453 157.9453 Q74.2188 158.1719 73.8906 158.1719 Q73.5625 158.1719 73.3359 157.9453 Q73.1094 157.7188 73.1094 157.3906 ZM71.8125 149.6406 Q72.4375 149.3594 73 149.2266 Q73.5625 149.0938 74.0469 149.0938 Q75.3438 149.0938 76.1016 149.7188 Q76.8594 150.3438 76.8594 151.4062 Q76.8594 152.5 76.2109 153.1953 Q75.5625 153.8906 74.25 154.1875 L74.25 155.6719 L73.5312 155.6719 L73.5312 153.75 Q74.5625 153.5 75.0938 152.9062 Q75.625 152.3125 75.625 151.4062 Q75.625 150.5938 75.1953 150.1328 Q74.7656 149.6719 74.0312 149.6719 Q73.3594 149.6719 72.9297 150.0547 Q72.5 150.4375 72.3906 151.1562 L71.8125 151.1562 L71.8125 149.6406 Z" style="fill:black; stroke:none;" /><rect height="10" style="stroke:none;" width="6" x="57" y="148" /><path d="M59.1094 157.3906 Q59.1094 157.0625 59.3359 156.8359 Q59.5625 156.6094 59.8906 156.6094 Q60.2188 156.6094 60.4453 156.8359 Q60.6719 157.0625 60.6719 157.3906 Q60.6719 157.7188 60.4453 157.9453 Q60.2188 158.1719 59.8906 158.1719 Q59.5625 158.1719 59.3359 157.9453 Q59.1094 157.7188 59.1094 157.3906 ZM57.8125 149.6406 Q58.4375 149.3594 59 149.2266 Q59.5625 149.0938 60.0469 149.0938 Q61.3438 149.0938 62.1016 149.7188 Q62.8594 150.3438 62.8594 151.4062 Q62.8594 152.5 62.2109 153.1953 Q61.5625 153.8906 60.25 154.1875 L60.25 155.6719 L59.5312 155.6719 L59.5312 153.75 Q60.5625 153.5 61.0938 152.9062 Q61.625 152.3125 61.625 151.4062 Q61.625 150.5938 61.1953 150.1328 Q60.7656 149.6719 60.0312 149.6719 Q59.3594 149.6719 58.9297 150.0547 Q58.5 150.4375 58.3906 151.1562 L57.8125 151.1562 L57.8125 149.6406 Z" style="fill:black; stroke:none;" /></g><g ID="li-1:8,9" style="fill:white; text-rendering:optimizeSpeed; font-family:'Serif'; stroke:white;"><rect height="10" style="stroke:none;" width="6" x="123" y="148" /><path d="M125.1094 157.3906 Q125.1094 157.0625 125.3359 156.8359 Q125.5625 156.6094 125.8906 156.6094 Q126.2188 156.6094 126.4453 156.8359 Q126.6719 157.0625 126.6719 157.3906 Q126.6719 157.7188 126.4453 157.9453 Q126.2188 158.1719 125.8906 158.1719 Q125.5625 158.1719 125.3359 157.9453 Q125.1094 157.7188 125.1094 157.3906 ZM123.8125 149.6406 Q124.4375 149.3594 125 149.2266 Q125.5625 149.0938 126.0469 149.0938 Q127.3438 149.0938 128.1016 149.7188 Q128.8594 150.3438 128.8594 151.4062 Q128.8594 152.5 128.2109 153.1953 Q127.5625 153.8906 126.25 154.1875 L126.25 155.6719 L125.5312 155.6719 L125.5312 153.75 Q126.5625 153.5 127.0938 152.9062 Q127.625 152.3125 127.625 151.4062 Q127.625 150.5938 127.1953 150.1328 Q126.7656 149.6719 126.0312 149.6719 Q125.3594 149.6719 124.9297 150.0547 Q124.5 150.4375 124.3906 151.1562 L123.8125 151.1562 L123.8125 149.6406 Z" style="fill:black; stroke:none;" /><rect height="10" style="stroke:none;" width="6" x="109" y="148" /><path d="M111.1094 157.3906 Q111.1094 157.0625 111.3359 156.8359 Q111.5625 156.6094 111.8906 156.6094 Q112.2188 156.6094 112.4453 156.8359 Q112.6719 157.0625 112.6719 157.3906 Q112.6719 157.7188 112.4453 157.9453 Q112.2188 158.1719 111.8906 158.1719 Q111.5625 158.1719 111.3359 157.9453 Q111.1094 157.7188 111.1094 157.3906 ZM109.8125 149.6406 Q110.4375 149.3594 111 149.2266 Q111.5625 149.0938 112.0469 149.0938 Q113.3438 149.0938 114.1016 149.7188 Q114.8594 150.3438 114.8594 151.4062 Q114.8594 152.5 114.2109 153.1953 Q113.5625 153.8906 112.25 154.1875 L112.25 155.6719 L111.5312 155.6719 L111.5312 153.75 Q112.5625 153.5 113.0938 152.9062 Q113.625 152.3125 113.625 151.4062 Q113.625 150.5938 113.1953 150.1328 Q112.7656 149.6719 112.0312 149.6719 Q111.3594 149.6719 110.9297 150.0547 Q110.5 150.4375 110.3906 151.1562 L109.8125 151.1562 L109.8125 149.6406 Z" style="fill:black; stroke:none;" /></g><g ID="li-1:7,8" style="fill:white; text-rendering:optimizeSpeed; font-family:'Serif'; stroke:white;"><rect height="10" style="stroke:none;" width="6" x="175" y="148" /><path d="M177.1094 157.3906 Q177.1094 157.0625 177.3359 156.8359 Q177.5625 156.6094 177.8906 156.6094 Q178.2188 156.6094 178.4453 156.8359 Q178.6719 157.0625 178.6719 157.3906 Q178.6719 157.7188 178.4453 157.9453 Q178.2188 158.1719 177.8906 158.1719 Q177.5625 158.1719 177.3359 157.9453 Q177.1094 157.7188 177.1094 157.3906 ZM175.8125 149.6406 Q176.4375 149.3594 177 149.2266 Q177.5625 149.0938 178.0469 149.0938 Q179.3438 149.0938 180.1016 149.7188 Q180.8594 150.3438 180.8594 151.4062 Q180.8594 152.5 180.2109 153.1953 Q179.5625 153.8906 178.25 154.1875 L178.25 155.6719 L177.5312 155.6719 L177.5312 153.75 Q178.5625 153.5 179.0938 152.9062 Q179.625 152.3125 179.625 151.4062 Q179.625 150.5938 179.1953 150.1328 Q178.7656 149.6719 178.0312 149.6719 Q177.3594 149.6719 176.9297 150.0547 Q176.5 150.4375 176.3906 151.1562 L175.8125 151.1562 L175.8125 149.6406 Z" style="fill:black; stroke:none;" /><rect height="10" style="stroke:none;" width="6" x="161" y="148" /><path d="M163.1094 157.3906 Q163.1094 157.0625 163.3359 156.8359 Q163.5625 156.6094 163.8906 156.6094 Q164.2188 156.6094 164.4453 156.8359 Q164.6719 157.0625 164.6719 157.3906 Q164.6719 157.7188 164.4453 157.9453 Q164.2188 158.1719 163.8906 158.1719 Q163.5625 158.1719 163.3359 157.9453 Q163.1094 157.7188 163.1094 157.3906 ZM161.8125 149.6406 Q162.4375 149.3594 163 149.2266 Q163.5625 149.0938 164.0469 149.0938 Q165.3438 149.0938 166.1016 149.7188 Q166.8594 150.3438 166.8594 151.4062 Q166.8594 152.5 166.2109 153.1953 Q165.5625 153.8906 164.25 154.1875 L164.25 155.6719 L163.5312 155.6719 L163.5312 153.75 Q164.5625 153.5 165.0938 152.9062 Q165.625 152.3125 165.625 151.4062 Q165.625 150.5938 165.1953 150.1328 Q164.7656 149.6719 164.0312 149.6719 Q163.3594 149.6719 162.9297 150.0547 Q162.5 150.4375 162.3906 151.1562 L161.8125 151.1562 L161.8125 149.6406 Z" style="fill:black; stroke:none;" /></g><g ID="li-1:6,7" style="fill:white; text-rendering:optimizeSpeed; font-family:'Serif'; stroke:white;"><rect height="10" style="stroke:none;" width="6" x="227" y="148" /><path d="M229.1094 157.3906 Q229.1094 157.0625 229.3359 156.8359 Q229.5625 156.6094 229.8906 156.6094 Q230.2188 156.6094 230.4453 156.8359 Q230.6719 157.0625 230.6719 157.3906 Q230.6719 157.7188 230.4453 157.9453 Q230.2188 158.1719 229.8906 158.1719 Q229.5625 158.1719 229.3359 157.9453 Q229.1094 157.7188 229.1094 157.3906 ZM227.8125 149.6406 Q228.4375 149.3594 229 149.2266 Q229.5625 149.0938 230.0469 149.0938 Q231.3438 149.0938 232.1016 149.7188 Q232.8594 150.3438 232.8594 151.4062 Q232.8594 152.5 232.2109 153.1953 Q231.5625 153.8906 230.25 154.1875 L230.25 155.6719 L229.5312 155.6719 L229.5312 153.75 Q230.5625 153.5 231.0938 152.9062 Q231.625 152.3125 231.625 151.4062 Q231.625 150.5938 231.1953 150.1328 Q230.7656 149.6719 230.0312 149.6719 Q229.3594 149.6719 228.9297 150.0547 Q228.5 150.4375 228.3906 151.1562 L227.8125 151.1562 L227.8125 149.6406 Z" style="fill:black; stroke:none;" /><rect height="10" style="stroke:none;" width="6" x="213" y="148" /><path d="M215.1094 157.3906 Q215.1094 157.0625 215.3359 156.8359 Q215.5625 156.6094 215.8906 156.6094 Q216.2188 156.6094 216.4453 156.8359 Q216.6719 157.0625 216.6719 157.3906 Q216.6719 157.7188 216.4453 157.9453 Q216.2188 158.1719 215.8906 158.1719 Q215.5625 158.1719 215.3359 157.9453 Q215.1094 157.7188 215.1094 157.3906 ZM213.8125 149.6406 Q214.4375 149.3594 215 149.2266 Q215.5625 149.0938 216.0469 149.0938 Q217.3438 149.0938 218.1016 149.7188 Q218.8594 150.3438 218.8594 151.4062 Q218.8594 152.5 218.2109 153.1953 Q217.5625 153.8906 216.25 154.1875 L216.25 155.6719 L215.5312 155.6719 L215.5312 153.75 Q216.5625 153.5 217.0938 152.9062 Q217.625 152.3125 217.625 151.4062 Q217.625 150.5938 217.1953 150.1328 Q216.7656 149.6719 216.0312 149.6719 Q215.3594 149.6719 214.9297 150.0547 Q214.5 150.4375 214.3906 151.1562 L213.8125 151.1562 L213.8125 149.6406 Z" style="fill:black; stroke:none;" /></g><g ID="li-1:4,6" style="fill:white; text-rendering:optimizeSpeed; font-family:'Serif'; stroke:white;"><rect height="10" style="stroke:none;" width="6" x="279" y="148" /><path d="M281.1094 157.3906 Q281.1094 157.0625 281.3359 156.8359 Q281.5625 156.6094 281.8906 156.6094 Q282.2188 156.6094 282.4453 156.8359 Q282.6719 157.0625 282.6719 157.3906 Q282.6719 157.7188 282.4453 157.9453 Q282.2188 158.1719 281.8906 158.1719 Q281.5625 158.1719 281.3359 157.9453 Q281.1094 157.7188 281.1094 157.3906 ZM279.8125 149.6406 Q280.4375 149.3594 281 149.2266 Q281.5625 149.0938 282.0469 149.0938 Q283.3438 149.0938 284.1016 149.7188 Q284.8594 150.3438 284.8594 151.4062 Q284.8594 152.5 284.2109 153.1953 Q283.5625 153.8906 282.25 154.1875 L282.25 155.6719 L281.5312 155.6719 L281.5312 153.75 Q282.5625 153.5 283.0938 152.9062 Q283.625 152.3125 283.625 151.4062 Q283.625 150.5938 283.1953 150.1328 Q282.7656 149.6719 282.0312 149.6719 Q281.3594 149.6719 280.9297 150.0547 Q280.5 150.4375 280.3906 151.1562 L279.8125 151.1562 L279.8125 149.6406 Z" style="fill:black; stroke:none;" /><rect height="10" style="stroke:none;" width="6" x="265" y="148" /><path d="M267.1094 157.3906 Q267.1094 157.0625 267.3359 156.8359 Q267.5625 156.6094 267.8906 156.6094 Q268.2188 156.6094 268.4453 156.8359 Q268.6719 157.0625 268.6719 157.3906 Q268.6719 157.7188 268.4453 157.9453 Q268.2188 158.1719 267.8906 158.1719 Q267.5625 158.1719 267.3359 157.9453 Q267.1094 157.7188 267.1094 157.3906 ZM265.8125 149.6406 Q266.4375 149.3594 267 149.2266 Q267.5625 149.0938 268.0469 149.0938 Q269.3438 149.0938 270.1016 149.7188 Q270.8594 150.3438 270.8594 151.4062 Q270.8594 152.5 270.2109 153.1953 Q269.5625 153.8906 268.25 154.1875 L268.25 155.6719 L267.5312 155.6719 L267.5312 153.75 Q268.5625 153.5 269.0938 152.9062 Q269.625 152.3125 269.625 151.4062 Q269.625 150.5938 269.1953 150.1328 Q268.7656 149.6719 268.0312 149.6719 Q267.3594 149.6719 266.9297 150.0547 Q266.5 150.4375 266.3906 151.1562 L265.8125 151.1562 L265.8125 149.6406 Z" style="fill:black; stroke:none;" /></g><g ID="l-1:5,11" style="text-rendering:optimizeSpeed;"><polygon points=" 301 67 249 93" style="fill:none;" /></g><g ID="l-1:5,12" style="text-rendering:optimizeSpeed;"><polygon points=" 301 67 249 41" style="fill:none;" /></g><g ID="r-1:5" style="fill:white; text-rendering:optimizeSpeed; stroke:white;" wurcs_mono_id="10"><circle cx="301" cy="67" r="11" style="clip-path:url(#clipPath10); stroke:none;" /><rect height="22" style="clip-path:url(#clipPath10); fill:rgb(0,166,81); stroke:none;" width="22" x="290" y="56" /><rect height="22" style="clip-path:url(#clipPath10); fill:none; stroke:black;" width="22" x="290" y="56" /><circle cx="301" cy="67" r="11" style="fill:none; stroke:black;" /></g><g ID="r-1:11" style="fill:white; text-rendering:optimizeSpeed; stroke:white;" wurcs_mono_id="11"><circle cx="249" cy="93" r="11" style="clip-path:url(#clipPath11); stroke:none;" /><rect height="22" style="clip-path:url(#clipPath11); fill:rgb(0,166,81); stroke:none;" width="22" x="238" y="82" /><rect height="22" style="clip-path:url(#clipPath11); fill:none; stroke:black;" width="22" x="238" y="82" /><circle cx="249" cy="93" r="11" style="fill:none; stroke:black;" /></g><g ID="r-1:12" style="fill:white; text-rendering:optimizeSpeed; stroke:white;" wurcs_mono_id="12"><circle cx="249" cy="41" r="11" style="clip-path:url(#clipPath12); stroke:none;" /><rect height="22" style="clip-path:url(#clipPath12); fill:rgb(0,166,81); stroke:none;" width="22" x="238" y="30" /><rect height="22" style="clip-path:url(#clipPath12); fill:none; stroke:black;" width="22" x="238" y="30" /><circle cx="249" cy="41" r="11" style="fill:none; stroke:black;" /></g><g ID="li-1:5,11" style="fill:white; text-rendering:optimizeSpeed; font-family:'Serif'; stroke:white;"><rect height="10" style="stroke:none;" width="7" x="282" y="78" /><path d="M283.1719 79.625 Q283.8594 79.3594 284.4844 79.2266 Q285.1094 79.0938 285.6562 79.0938 Q286.9531 79.0938 287.6719 79.6484 Q288.3906 80.2031 288.3906 81.1875 Q288.3906 81.9688 287.8906 82.5 Q287.3906 83.0312 286.4844 83.2188 Q287.5625 83.375 288.1562 84.0078 Q288.75 84.6406 288.75 85.6406 Q288.75 86.8594 287.9219 87.5156 Q287.0938 88.1719 285.5469 88.1719 Q284.8594 88.1719 284.2109 88.0234 Q283.5625 87.875 282.9219 87.5781 L282.9219 85.875 L283.5781 85.875 Q283.625 86.7188 284.1406 87.1562 Q284.6562 87.5938 285.5781 87.5938 Q286.4688 87.5938 286.9922 87.0703 Q287.5156 86.5469 287.5156 85.6562 Q287.5156 84.625 286.9766 84.0938 Q286.4375 83.5625 285.4062 83.5625 L284.8594 83.5625 L284.8594 82.9531 L285.1406 82.9531 Q286.1719 82.9531 286.6875 82.5312 Q287.2031 82.1094 287.2031 81.25 Q287.2031 80.4844 286.7812 80.0781 Q286.3594 79.6719 285.5625 79.6719 Q284.7656 79.6719 284.3359 80.0469 Q283.9062 80.4219 283.8281 81.1562 L283.1719 81.1562 L283.1719 79.625 Z" style="fill:black; stroke:none;" /><rect height="8" style="stroke:none;" width="8" x="266" y="87" /><path d="M271.1875 93.4688 L270.9531 94.1094 Q270.7656 94.625 270.2031 94.9375 Q269.8438 95.1562 269.2031 95.1406 Q268.0469 95.1406 267.3281 94.2344 Q266.5938 93.3281 266.5938 91.8594 Q266.5938 90.4219 267.3281 89.4844 Q268.0156 88.5938 269.4531 88.6094 Q270.4531 88.6094 270.9531 89 Q271.4062 89.3438 271.5781 90.0938 L271.625 90.3125 L271.8438 89.6719 Q272.0625 89.0469 272.6562 88.75 L273.25 88.75 L273.25 89.0938 Q272.6875 89.2656 272.5 89.8125 L271.8906 91.4844 L272.2969 93.2812 Q272.5 94.2031 272.7344 94.2969 Q273.0469 94.4375 273.7812 94 L273.7812 94.7188 Q272.5938 95.4062 271.75 94.6875 Q271.375 94.3594 271.2656 93.875 L271.1875 93.4688 ZM270.9219 92.3125 L270.5625 90.5938 Q270.2656 89.2188 269.4688 89.2188 Q268.7969 89.2031 268.2812 89.9375 Q267.8594 90.5156 267.8594 91.875 Q267.8594 93.1719 268.2812 93.8281 Q268.75 94.5469 269.5312 94.5 Q270.2031 94.4375 270.6875 93 L270.9219 92.3125 Z" style="fill:black; stroke:none;" /></g><g ID="li-1:5,12" style="fill:white; text-rendering:optimizeSpeed; font-family:'Serif'; stroke:white;"><rect height="10" style="stroke:none;" width="7" x="275" y="60" /><path d="M278.9219 69.5938 Q279.75 69.5938 280.1953 68.9844 Q280.6406 68.375 280.6406 67.2344 Q280.6406 66.1094 280.1953 65.5 Q279.75 64.8906 278.9219 64.8906 Q278.0938 64.8906 277.6484 65.4766 Q277.2031 66.0625 277.2031 67.1719 Q277.2031 68.3281 277.6484 68.9609 Q278.0938 69.5938 278.9219 69.5938 ZM277.0156 65.1875 Q277.4219 64.75 277.9219 64.5312 Q278.4219 64.3125 279.0625 64.3125 Q280.3594 64.3125 281.1172 65.0938 Q281.875 65.875 281.875 67.2344 Q281.875 68.5625 281.0625 69.3672 Q280.25 70.1719 278.875 70.1719 Q277.3906 70.1719 276.5938 69.0625 Q275.7969 67.9531 275.7969 65.9062 Q275.7969 63.6094 276.7422 62.3516 Q277.6875 61.0938 279.4062 61.0938 Q279.875 61.0938 280.3828 61.1797 Q280.8906 61.2656 281.4219 61.4375 L281.4219 62.8906 L280.7656 62.8906 Q280.6875 62.2969 280.3047 61.9844 Q279.9219 61.6719 279.2812 61.6719 Q278.1406 61.6719 277.5859 62.5312 Q277.0312 63.3906 277.0156 65.1875 Z" style="fill:black; stroke:none;" /><rect height="8" style="stroke:none;" width="8" x="259" y="53" /><path d="M264.1875 59.4688 L263.9531 60.1094 Q263.7656 60.625 263.2031 60.9375 Q262.8438 61.1562 262.2031 61.1406 Q261.0469 61.1406 260.3281 60.2344 Q259.5938 59.3281 259.5938 57.8594 Q259.5938 56.4219 260.3281 55.4844 Q261.0156 54.5938 262.4531 54.6094 Q263.4531 54.6094 263.9531 55 Q264.4062 55.3438 264.5781 56.0938 L264.625 56.3125 L264.8438 55.6719 Q265.0625 55.0469 265.6562 54.75 L266.25 54.75 L266.25 55.0938 Q265.6875 55.2656 265.5 55.8125 L264.8906 57.4844 L265.2969 59.2812 Q265.5 60.2031 265.7344 60.2969 Q266.0469 60.4375 266.7812 60 L266.7812 60.7188 Q265.5938 61.4062 264.75 60.6875 Q264.375 60.3594 264.2656 59.875 L264.1875 59.4688 ZM263.9219 58.3125 L263.5625 56.5938 Q263.2656 55.2188 262.4688 55.2188 Q261.7969 55.2031 261.2812 55.9375 Q260.8594 56.5156 260.8594 57.875 Q260.8594 59.1719 261.2812 59.8281 Q261.75 60.5469 262.5312 60.5 Q263.2031 60.4375 263.6875 59 L263.9219 58.3125 Z" style="fill:black; stroke:none;" /></g><g ID="li-1:3,4" style="fill:white; text-rendering:optimizeSpeed; font-family:'Serif'; stroke:white;"><rect height="11" style="stroke:none;" width="19" x="330" y="119" /><path d="M331.1719 121.625 Q331.8594 121.3594 332.4844 121.2266 Q333.1094 121.0938 333.6562 121.0938 Q334.9531 121.0938 335.6719 121.6484 Q336.3906 122.2031 336.3906 123.1875 Q336.3906 123.9688 335.8906 124.5 Q335.3906 125.0312 334.4844 125.2188 Q335.5625 125.375 336.1562 126.0078 Q336.75 126.6406 336.75 127.6406 Q336.75 128.8594 335.9219 129.5156 Q335.0938 130.1719 333.5469 130.1719 Q332.8594 130.1719 332.2109 130.0234 Q331.5625 129.875 330.9219 129.5781 L330.9219 127.875 L331.5781 127.875 Q331.625 128.7188 332.1406 129.1562 Q332.6562 129.5938 333.5781 129.5938 Q334.4688 129.5938 334.9922 129.0703 Q335.5156 128.5469 335.5156 127.6562 Q335.5156 126.625 334.9766 126.0938 Q334.4375 125.5625 333.4062 125.5625 L332.8594 125.5625 L332.8594 124.9531 L333.1406 124.9531 Q334.1719 124.9531 334.6875 124.5312 Q335.2031 124.1094 335.2031 123.25 Q335.2031 122.4844 334.7812 122.0781 Q334.3594 121.6719 333.5625 121.6719 Q332.7656 121.6719 332.3359 122.0469 Q331.9062 122.4219 331.8281 123.1562 L331.1719 123.1562 L331.1719 121.625 ZM340.7441 121.25 L341.6816 121.25 L338.5723 131.1094 L337.6348 131.1094 L340.7441 121.25 ZM345.5996 129.5938 Q346.4277 129.5938 346.873 128.9844 Q347.3184 128.375 347.3184 127.2344 Q347.3184 126.1094 346.873 125.5 Q346.4277 124.8906 345.5996 124.8906 Q344.7715 124.8906 344.3262 125.4766 Q343.8809 126.0625 343.8809 127.1719 Q343.8809 128.3281 344.3262 128.9609 Q344.7715 129.5938 345.5996 129.5938 ZM343.6934 125.1875 Q344.0996 124.75 344.5996 124.5312 Q345.0996 124.3125 345.7402 124.3125 Q347.0371 124.3125 347.7949 125.0938 Q348.5527 125.875 348.5527 127.2344 Q348.5527 128.5625 347.7402 129.3672 Q346.9277 130.1719 345.5527 130.1719 Q344.0684 130.1719 343.2715 129.0625 Q342.4746 127.9531 342.4746 125.9062 Q342.4746 123.6094 343.4199 122.3516 Q344.3652 121.0938 346.084 121.0938 Q346.5527 121.0938 347.0605 121.1797 Q347.5684 121.2656 348.0996 121.4375 L348.0996 122.8906 L347.4434 122.8906 Q347.3652 122.2969 346.9824 121.9844 Q346.5996 121.6719 345.959 121.6719 Q344.8184 121.6719 344.2637 122.5312 Q343.709 123.3906 343.6934 125.1875 Z" style="fill:black; stroke:none;" /><rect height="8" style="stroke:none;" width="8" x="319" y="134" /><path d="M324.1875 140.4688 L323.9531 141.1094 Q323.7656 141.625 323.2031 141.9375 Q322.8438 142.1562 322.2031 142.1406 Q321.0469 142.1406 320.3281 141.2344 Q319.5938 140.3281 319.5938 138.8594 Q319.5938 137.4219 320.3281 136.4844 Q321.0156 135.5938 322.4531 135.6094 Q323.4531 135.6094 323.9531 136 Q324.4062 136.3438 324.5781 137.0938 L324.625 137.3125 L324.8438 136.6719 Q325.0625 136.0469 325.6562 135.75 L326.25 135.75 L326.25 136.0938 Q325.6875 136.2656 325.5 136.8125 L324.8906 138.4844 L325.2969 140.2812 Q325.5 141.2031 325.7344 141.2969 Q326.0469 141.4375 326.7812 141 L326.7812 141.7188 Q325.5938 142.4062 324.75 141.6875 Q324.375 141.3594 324.2656 140.875 L324.1875 140.4688 ZM323.9219 139.3125 L323.5625 137.5938 Q323.2656 136.2188 322.4688 136.2188 Q321.7969 136.2031 321.2812 136.9375 Q320.8594 137.5156 320.8594 138.875 Q320.8594 140.1719 321.2812 140.8281 Q321.75 141.5469 322.5312 141.5 Q323.2031 141.4375 323.6875 140 L323.9219 139.3125 Z" style="fill:black; stroke:none;" /></g><g ID="li-1:3,5" style="fill:white; text-rendering:optimizeSpeed; font-family:'Serif'; stroke:white;"><rect height="11" style="stroke:none;" width="19" x="321" y="93" /><path d="M322.1719 95.625 Q322.8594 95.3594 323.4844 95.2266 Q324.1094 95.0938 324.6562 95.0938 Q325.9531 95.0938 326.6719 95.6484 Q327.3906 96.2031 327.3906 97.1875 Q327.3906 97.9688 326.8906 98.5 Q326.3906 99.0312 325.4844 99.2188 Q326.5625 99.375 327.1562 100.0078 Q327.75 100.6406 327.75 101.6406 Q327.75 102.8594 326.9219 103.5156 Q326.0938 104.1719 324.5469 104.1719 Q323.8594 104.1719 323.2109 104.0234 Q322.5625 103.875 321.9219 103.5781 L321.9219 101.875 L322.5781 101.875 Q322.625 102.7188 323.1406 103.1562 Q323.6562 103.5938 324.5781 103.5938 Q325.4688 103.5938 325.9922 103.0703 Q326.5156 102.5469 326.5156 101.6562 Q326.5156 100.625 325.9766 100.0938 Q325.4375 99.5625 324.4062 99.5625 L323.8594 99.5625 L323.8594 98.9531 L324.1406 98.9531 Q325.1719 98.9531 325.6875 98.5312 Q326.2031 98.1094 326.2031 97.25 Q326.2031 96.4844 325.7812 96.0781 Q325.3594 95.6719 324.5625 95.6719 Q323.7656 95.6719 323.3359 96.0469 Q322.9062 96.4219 322.8281 97.1562 L322.1719 97.1562 L322.1719 95.625 ZM331.7441 95.25 L332.6816 95.25 L329.5723 105.1094 L328.6348 105.1094 L331.7441 95.25 ZM336.5996 103.5938 Q337.4277 103.5938 337.873 102.9844 Q338.3184 102.375 338.3184 101.2344 Q338.3184 100.1094 337.873 99.5 Q337.4277 98.8906 336.5996 98.8906 Q335.7715 98.8906 335.3262 99.4766 Q334.8809 100.0625 334.8809 101.1719 Q334.8809 102.3281 335.3262 102.9609 Q335.7715 103.5938 336.5996 103.5938 ZM334.6934 99.1875 Q335.0996 98.75 335.5996 98.5312 Q336.0996 98.3125 336.7402 98.3125 Q338.0371 98.3125 338.7949 99.0938 Q339.5527 99.875 339.5527 101.2344 Q339.5527 102.5625 338.7402 103.3672 Q337.9277 104.1719 336.5527 104.1719 Q335.0684 104.1719 334.2715 103.0625 Q333.4746 101.9531 333.4746 99.9062 Q333.4746 97.6094 334.4199 96.3516 Q335.3652 95.0938 337.084 95.0938 Q337.5527 95.0938 338.0605 95.1797 Q338.5684 95.2656 339.0996 95.4375 L339.0996 96.8906 L338.4434 96.8906 Q338.3652 96.2969 337.9824 95.9844 Q337.5996 95.6719 336.959 95.6719 Q335.8184 95.6719 335.2637 96.5312 Q334.709 97.3906 334.6934 99.1875 Z" style="fill:black; stroke:none;" /><rect height="8" style="stroke:none;" width="8" x="309" y="82" /><path d="M314.1875 88.4688 L313.9531 89.1094 Q313.7656 89.625 313.2031 89.9375 Q312.8438 90.1562 312.2031 90.1406 Q311.0469 90.1406 310.3281 89.2344 Q309.5938 88.3281 309.5938 86.8594 Q309.5938 85.4219 310.3281 84.4844 Q311.0156 83.5938 312.4531 83.6094 Q313.4531 83.6094 313.9531 84 Q314.4062 84.3438 314.5781 85.0938 L314.625 85.3125 L314.8438 84.6719 Q315.0625 84.0469 315.6562 83.75 L316.25 83.75 L316.25 84.0938 Q315.6875 84.2656 315.5 84.8125 L314.8906 86.4844 L315.2969 88.2812 Q315.5 89.2031 315.7344 89.2969 Q316.0469 89.4375 316.7812 89 L316.7812 89.7188 Q315.5938 90.4062 314.75 89.6875 Q314.375 89.3594 314.2656 88.875 L314.1875 88.4688 ZM313.9219 87.3125 L313.5625 85.5938 Q313.2656 84.2188 312.4688 84.2188 Q311.7969 84.2031 311.2812 84.9375 Q310.8594 85.5156 310.8594 86.875 Q310.8594 88.1719 311.2812 88.8281 Q311.75 89.5469 312.5312 89.5 Q313.2031 89.4375 313.6875 88 L313.9219 87.3125 Z" style="fill:black; stroke:none;" /></g><g ID="li-1:2,3" style="fill:white; text-rendering:optimizeSpeed; font-family:'Serif'; stroke:white;"><rect height="9" style="stroke:none;" width="8" x="382" y="109" /><path d="M386.1875 115.0312 L386.1875 110.375 L383.2031 115.0312 L386.1875 115.0312 ZM388.7656 118 L384.7812 118 L384.7812 117.375 L386.1875 117.375 L386.1875 115.6562 L382.375 115.6562 L382.375 115.0156 L386.2031 109.0938 L387.3594 109.0938 L387.3594 115.0312 L389.0312 115.0312 L389.0312 115.6562 L387.3594 115.6562 L387.3594 117.375 L388.7656 117.375 L388.7656 118 Z" style="fill:black; stroke:none;" /><rect height="13" style="stroke:none;" width="7" x="368" y="107" /><path d="M369.8281 119.25 Q370.2969 119.5938 371.1719 119.5938 Q372.0625 119.5938 372.5781 119.0703 Q373.0938 118.5469 373.0938 117.6562 Q373.0938 116.4219 372.5625 115.8906 Q372.0156 115.3594 371 115.3594 L370.4375 115.3594 L370.4375 114.7188 L370.7344 114.7188 Q371.4844 114.7188 372 114.2969 Q372.4219 113.9531 372.4219 113.0156 Q372.4219 112.6094 372.1406 112.1406 Q371.6875 111.375 371.1562 111.3906 Q369.8281 111.4375 369.8281 113.7812 L369.8281 119.25 ZM368.75 122.5 L368.75 113.7812 Q368.75 111.3281 370.0781 111 Q370.7656 110.8125 371.25 110.8125 Q372.3438 110.8125 373.0469 111.6719 Q373.6094 112.3594 373.6094 112.9375 Q373.6094 113.7812 373.2031 114.2656 Q372.7969 114.75 372.0625 114.9844 Q373.1406 115.1406 373.75 115.7812 Q374.3281 116.4062 374.3281 117.6328 Q374.3281 118.8594 373.5078 119.5156 Q372.6875 120.1719 371.1406 120.1719 Q370.1875 120.1719 369.8281 120.0312 L369.8281 122.5 L368.75 122.5 Z" style="fill:black; stroke:none;" /></g><g ID="li-1:1,2" style="fill:white; text-rendering:optimizeSpeed; font-family:'Serif'; stroke:white;"><rect height="9" style="stroke:none;" width="8" x="434" y="109" /><path d="M438.1875 115.0312 L438.1875 110.375 L435.2031 115.0312 L438.1875 115.0312 ZM440.7656 118 L436.7812 118 L436.7812 117.375 L438.1875 117.375 L438.1875 115.6562 L434.375 115.6562 L434.375 115.0156 L438.2031 109.0938 L439.3594 109.0938 L439.3594 115.0312 L441.0312 115.0312 L441.0312 115.6562 L439.3594 115.6562 L439.3594 117.375 L440.7656 117.375 L440.7656 118 Z" style="fill:black; stroke:none;" /><rect height="13" style="stroke:none;" width="7" x="420" y="107" /><path d="M421.8281 119.25 Q422.2969 119.5938 423.1719 119.5938 Q424.0625 119.5938 424.5781 119.0703 Q425.0938 118.5469 425.0938 117.6562 Q425.0938 116.4219 424.5625 115.8906 Q424.0156 115.3594 423 115.3594 L422.4375 115.3594 L422.4375 114.7188 L422.7344 114.7188 Q423.4844 114.7188 424 114.2969 Q424.4219 113.9531 424.4219 113.0156 Q424.4219 112.6094 424.1406 112.1406 Q423.6875 111.375 423.1562 111.3906 Q421.8281 111.4375 421.8281 113.7812 L421.8281 119.25 ZM420.75 122.5 L420.75 113.7812 Q420.75 111.3281 422.0781 111 Q422.7656 110.8125 423.25 110.8125 Q424.3438 110.8125 425.0469 111.6719 Q425.6094 112.3594 425.6094 112.9375 Q425.6094 113.7812 425.2031 114.2656 Q424.7969 114.75 424.0625 114.9844 Q425.1406 115.1406 425.75 115.7812 Q426.3281 116.4062 426.3281 117.6328 Q426.3281 118.8594 425.5078 119.5156 Q424.6875 120.1719 423.1406 120.1719 Q422.1875 120.1719 421.8281 120.0312 L421.8281 122.5 L420.75 122.5 Z" style="fill:black; stroke:none;" /></g></g></svg>