<svg xmlns="http://www.w3.org/2000/svg" style="fill-opacity:1; color-rendering:auto; color-interpolation:auto; text-rendering:auto; stroke:black; stroke-linecap:square; stroke-miterlimit:10; shape-rendering:auto; stroke-opacity:1; fill:black; stroke-dasharray:none; font-weight:normal; stroke-width:1; font-family:'Dialog'; font-style:normal; stroke-linejoin:miter; font-size:12px; stroke-dashoffset:0; image-rendering:auto;"><defs id="genericDefs" /><g><defs id="defs1"><clipPath clipPathUnits="userSpaceOnUse" id="clipPath1"><path d="M52 93 C52 99.0751 47.0751 104 41 104 C34.9249 104 30 99.0751 30 93 C30 86.9249 34.9249 82 41 82 C47.0751 82 52 86.9249 52 93 Z" /></clipPath><clipPath clipPathUnits="userSpaceOnUse" id="clipPath2"><path d="M41 134 L43 141 L51 141 L44 146 L47 153 L41 149 L34 153 L37 146 L30 141 L38 141 L41 134 Z" style="fill-rule:evenodd;" /></clipPath><clipPath clipPathUnits="userSpaceOnUse" id="clipPath3"><path d="M41 30 L43 37 L51 37 L44 42 L47 49 L41 45 L34 49 L37 42 L30 37 L38 37 L41 30 Z" style="fill-rule:evenodd;" /></clipPath></defs><g style="fill:white; text-rendering:optimizeSpeed; stroke:white;"><rect height="186" style="stroke:none;" width="82" x="0" y="0" /></g><g ID="l-1:1,2" style="text-rendering:optimizeSpeed;"><polygon points=" 41 93 41 145" style="fill:none;" /></g><g ID="l-1:1,3" style="text-rendering:optimizeSpeed;"><polygon points=" 41 93 41 41" style="fill:none;" /></g><g ID="r-1:1" style="fill:white; text-rendering:optimizeSpeed; stroke:white;" wurcs_mono_id="1"><circle cx="41" cy="93" r="11" style="clip-path:url(#clipPath1); stroke:none;" /><rect height="22" style="clip-path:url(#clipPath1); fill:rgb(0,144,188); stroke:none;" width="22" x="30" y="82" /><rect height="22" style="clip-path:url(#clipPath1); fill:none; stroke:black;" width="22" x="30" y="82" /><circle cx="41" cy="93" r="11" style="fill:none; stroke:black;" /></g><g ID="r-1:2" style="fill:white; text-rendering:optimizeSpeed; stroke:white;" wurcs_mono_id="2"><polygon points=" 41 134 43 141 51 141 44 146 47 153 41 149 34 153 37 146 30 141 38 141 41 134" style="stroke:none; clip-path:url(#clipPath2);" /><rect height="22" style="clip-path:url(#clipPath2); fill:rgb(244,121,32); stroke:none;" width="22" x="30" y="134" /><rect height="22" style="clip-path:url(#clipPath2); fill:none; stroke:black;" width="22" x="30" y="134" /><polygon points=" 41 134 43 141 51 141 44 146 47 153 41 149 34 153 37 146 30 141 38 141 41 134" style="fill:none; stroke:black;" /></g><g ID="r-1:3" style="fill:white; text-rendering:optimizeSpeed; stroke:white;" wurcs_mono_id="3"><polygon points=" 41 30 43 37 51 37 44 42 47 49 41 45 34 49 37 42 30 37 38 37 41 30" style="stroke:none; clip-path:url(#clipPath3);" /><rect height="22" style="clip-path:url(#clipPath3); fill:rgb(244,121,32); stroke:none;" width="22" x="30" y="30" /><rect height="22" style="clip-path:url(#clipPath3); fill:none; stroke:black;" width="22" x="30" y="30" /><polygon points=" 41 30 43 37 51 37 44 42 47 49 41 45 34 49 37 42 30 37 38 37 41 30" style="fill:none; stroke:black;" /></g><g ID="li-1:1,2" style="fill:white; text-rendering:optimizeSpeed; font-family:'Serif'; stroke:white;"><rect height="9" style="stroke:none;" width="7" x="45" y="107" /><path d="M46.5312 109.3438 L45.875 109.3438 L45.875 107.7812 Q46.5 107.4375 47.1406 107.2656 Q47.7812 107.0938 48.3906 107.0938 Q49.75 107.0938 50.5391 107.7578 Q51.3281 108.4219 51.3281 109.5469 Q51.3281 110.8438 49.5469 112.625 Q49.4062 112.7656 49.3281 112.8281 L47.125 115.0312 L50.7656 115.0312 L50.7656 113.9531 L51.4531 113.9531 L51.4531 116 L45.8125 116 L45.8125 115.3594 L48.4688 112.7188 Q49.3438 111.8281 49.7188 111.0938 Q50.0938 110.3594 50.0938 109.5469 Q50.0938 108.6719 49.6328 108.1719 Q49.1719 107.6719 48.375 107.6719 Q47.5312 107.6719 47.0781 108.0859 Q46.625 108.5 46.5312 109.3438 Z" style="fill:black; stroke:none;" /><rect height="13" style="stroke:none;" width="7" x="45" y="119" /><path d="M46.8281 131.25 Q47.2969 131.5938 48.1719 131.5938 Q49.0625 131.5938 49.5781 131.0703 Q50.0938 130.5469 50.0938 129.6562 Q50.0938 128.4219 49.5625 127.8906 Q49.0156 127.3594 48 127.3594 L47.4375 127.3594 L47.4375 126.7188 L47.7344 126.7188 Q48.4844 126.7188 49 126.2969 Q49.4219 125.9531 49.4219 125.0156 Q49.4219 124.6094 49.1406 124.1406 Q48.6875 123.375 48.1562 123.3906 Q46.8281 123.4375 46.8281 125.7812 L46.8281 131.25 ZM45.75 134.5 L45.75 125.7812 Q45.75 123.3281 47.0781 123 Q47.7656 122.8125 48.25 122.8125 Q49.3438 122.8125 50.0469 123.6719 Q50.6094 124.3594 50.6094 124.9375 Q50.6094 125.7812 50.2031 126.2656 Q49.7969 126.75 49.0625 126.9844 Q50.1406 127.1406 50.75 127.7812 Q51.3281 128.4062 51.3281 129.6328 Q51.3281 130.8594 50.5078 131.5156 Q49.6875 132.1719 48.1406 132.1719 Q47.1875 132.1719 46.8281 132.0312 L46.8281 134.5 L45.75 134.5 Z" style="fill:black; stroke:none;" /></g><g ID="li-1:1,3" style="fill:white; text-rendering:optimizeSpeed; font-family:'Serif'; stroke:white;"><rect height="9" style="stroke:none;" width="8" x="29" y="69" /><path d="M33.1875 75.0312 L33.1875 70.375 L30.2031 75.0312 L33.1875 75.0312 ZM35.7656 78 L31.7812 78 L31.7812 77.375 L33.1875 77.375 L33.1875 75.6562 L29.375 75.6562 L29.375 75.0156 L33.2031 69.0938 L34.3594 69.0938 L34.3594 75.0312 L36.0312 75.0312 L36.0312 75.6562 L34.3594 75.6562 L34.3594 77.375 L35.7656 77.375 L35.7656 78 Z" style="fill:black; stroke:none;" /><rect height="13" style="stroke:none;" width="7" x="29" y="53" /><path d="M30.8281 65.25 Q31.2969 65.5938 32.1719 65.5938 Q33.0625 65.5938 33.5781 65.0703 Q34.0938 64.5469 34.0938 63.6562 Q34.0938 62.4219 33.5625 61.8906 Q33.0156 61.3594 32 61.3594 L31.4375 61.3594 L31.4375 60.7188 L31.7344 60.7188 Q32.4844 60.7188 33 60.2969 Q33.4219 59.9531 33.4219 59.0156 Q33.4219 58.6094 33.1406 58.1406 Q32.6875 57.375 32.1562 57.3906 Q30.8281 57.4375 30.8281 59.7812 L30.8281 65.25 ZM29.75 68.5 L29.75 59.7812 Q29.75 57.3281 31.0781 57 Q31.7656 56.8125 32.25 56.8125 Q33.3438 56.8125 34.0469 57.6719 Q34.6094 58.3594 34.6094 58.9375 Q34.6094 59.7812 34.2031 60.2656 Q33.7969 60.75 33.0625 60.9844 Q34.1406 61.1406 34.75 61.7812 Q35.3281 62.4062 35.3281 63.6328 Q35.3281 64.8594 34.5078 65.5156 Q33.6875 66.1719 32.1406 66.1719 Q31.1875 66.1719 30.8281 66.0312 L30.8281 68.5 L29.75 68.5 Z" style="fill:black; stroke:none;" /></g></g></svg>