<svg xmlns="http://www.w3.org/2000/svg" style="fill-opacity:1; color-rendering:auto; color-interpolation:auto; text-rendering:auto; stroke:black; stroke-linecap:square; stroke-miterlimit:10; shape-rendering:auto; stroke-opacity:1; fill:black; stroke-dasharray:none; font-weight:normal; stroke-width:1; font-family:'Dialog'; font-style:normal; stroke-linejoin:miter; font-size:12px; stroke-dashoffset:0; image-rendering:auto;"><defs id="genericDefs" /><g><defs id="defs1"><clipPath clipPathUnits="userSpaceOnUse" id="clipPath1"><path d="M134 56 L156 56 L156 78 L134 78 L134 56 Z" /></clipPath><clipPath clipPathUnits="userSpaceOnUse" id="clipPath2"><path d="M104 67 C104 73.0751 99.0751 78 93 78 C86.9249 78 82 73.0751 82 67 C82 60.9249 86.9249 56 93 56 C99.0751 56 104 60.9249 104 67 Z" /></clipPath><clipPath clipPathUnits="userSpaceOnUse" id="clipPath3"><path d="M93 108 L104 130 L82 130 Z" style="fill-rule:evenodd;" /></clipPath><clipPath clipPathUnits="userSpaceOnUse" id="clipPath4"><path d="M52 93 C52 99.0751 47.0751 104 41 104 C34.9249 104 30 99.0751 30 93 C30 86.9249 34.9249 82 41 82 C47.0751 82 52 86.9249 52 93 Z" /></clipPath><clipPath clipPathUnits="userSpaceOnUse" id="clipPath5"><path d="M41 134 L52 156 L30 156 Z" style="fill-rule:evenodd;" /></clipPath><clipPath clipPathUnits="userSpaceOnUse" id="clipPath6"><path d="M30 30 L52 30 L52 52 L30 52 L30 30 Z" /></clipPath></defs><g style="fill:white; text-rendering:optimizeSpeed; stroke:white;"><rect height="186" style="stroke:none;" width="186" x="0" y="0" /></g><g ID="l-1:1,2" style="text-rendering:optimizeSpeed;"><polygon points=" 145 67 93 67" style="fill:none;" /></g><g ID="r-1:1" style="fill:white; text-rendering:optimizeSpeed; stroke:white;" wurcs_mono_id="1"><rect height="22" style="clip-path:url(#clipPath1); stroke:none;" width="22" x="134" y="56" /><rect height="22" style="clip-path:url(#clipPath1); fill:rgb(255,212,0); stroke:none;" width="22" x="134" y="56" /><rect height="22" style="clip-path:url(#clipPath1); fill:none; stroke:black;" width="22" x="134" y="56" /><rect height="22" style="fill:none; stroke:black;" width="22" x="134" y="56" /></g><g ID="l-1:2,3" style="text-rendering:optimizeSpeed;"><polygon points=" 93 67 93 119" style="fill:none;" /></g><g ID="l-1:2,4" style="text-rendering:optimizeSpeed;"><polygon points=" 93 67 41 93" style="fill:none;" /></g><g ID="l-1:2,5" style="text-rendering:optimizeSpeed;"><polygon points=" 93 67 41 41" style="fill:none;" /></g><g ID="r-1:2" style="fill:white; text-rendering:optimizeSpeed; stroke:white;" wurcs_mono_id="2"><circle cx="93" cy="67" r="11" style="clip-path:url(#clipPath2); stroke:none;" /><rect height="22" style="clip-path:url(#clipPath2); fill:rgb(255,212,0); stroke:none;" width="22" x="82" y="56" /><rect height="22" style="clip-path:url(#clipPath2); fill:none; stroke:black;" width="22" x="82" y="56" /><circle cx="93" cy="67" r="11" style="fill:none; stroke:black;" /></g><g ID="r-1:3" style="fill:white; text-rendering:optimizeSpeed; stroke:white;" wurcs_mono_id="3"><polygon points=" 93 108 104 130 82 130" style="stroke:none; clip-path:url(#clipPath3);" /><rect height="22" style="clip-path:url(#clipPath3); fill:rgb(237,28,36); stroke:none;" width="22" x="82" y="108" /><rect height="22" style="clip-path:url(#clipPath3); fill:none; stroke:black;" width="22" x="82" y="108" /><polygon points=" 93 108 104 130 82 130" style="fill:none; stroke:black;" /></g><g ID="l-1:4,6" style="text-rendering:optimizeSpeed;"><polygon points=" 41 93 41 145" style="fill:none;" /></g><g ID="r-1:4" style="fill:white; text-rendering:optimizeSpeed; stroke:white;" wurcs_mono_id="4"><circle cx="41" cy="93" r="11" style="clip-path:url(#clipPath4); stroke:none;" /><rect height="22" style="clip-path:url(#clipPath4); fill:rgb(255,212,0); stroke:none;" width="22" x="30" y="82" /><rect height="22" style="clip-path:url(#clipPath4); fill:none; stroke:black;" width="22" x="30" y="82" /><circle cx="41" cy="93" r="11" style="fill:none; stroke:black;" /></g><g ID="r-1:6" style="fill:white; text-rendering:optimizeSpeed; stroke:white;" wurcs_mono_id="5"><polygon points=" 41 134 52 156 30 156" style="stroke:none; clip-path:url(#clipPath5);" /><rect height="22" style="clip-path:url(#clipPath5); fill:rgb(237,28,36); stroke:none;" width="22" x="30" y="134" /><rect height="22" style="clip-path:url(#clipPath5); fill:none; stroke:black;" width="22" x="30" y="134" /><polygon points=" 41 134 52 156 30 156" style="fill:none; stroke:black;" /></g><g ID="li-1:4,6" style="fill:white; text-rendering:optimizeSpeed; font-family:'Serif'; stroke:white;"><rect height="9" style="stroke:none;" width="7" x="45" y="107" /><path d="M46.5312 109.3438 L45.875 109.3438 L45.875 107.7812 Q46.5 107.4375 47.1406 107.2656 Q47.7812 107.0938 48.3906 107.0938 Q49.75 107.0938 50.5391 107.7578 Q51.3281 108.4219 51.3281 109.5469 Q51.3281 110.8438 49.5469 112.625 Q49.4062 112.7656 49.3281 112.8281 L47.125 115.0312 L50.7656 115.0312 L50.7656 113.9531 L51.4531 113.9531 L51.4531 116 L45.8125 116 L45.8125 115.3594 L48.4688 112.7188 Q49.3438 111.8281 49.7188 111.0938 Q50.0938 110.3594 50.0938 109.5469 Q50.0938 108.6719 49.6328 108.1719 Q49.1719 107.6719 48.375 107.6719 Q47.5312 107.6719 47.0781 108.0859 Q46.625 108.5 46.5312 109.3438 Z" style="fill:black; stroke:none;" /><rect height="8" style="stroke:none;" width="8" x="45" y="122" /><path d="M50.1875 128.4688 L49.9531 129.1094 Q49.7656 129.625 49.2031 129.9375 Q48.8438 130.1562 48.2031 130.1406 Q47.0469 130.1406 46.3281 129.2344 Q45.5938 128.3281 45.5938 126.8594 Q45.5938 125.4219 46.3281 124.4844 Q47.0156 123.5938 48.4531 123.6094 Q49.4531 123.6094 49.9531 124 Q50.4062 124.3438 50.5781 125.0938 L50.625 125.3125 L50.8438 124.6719 Q51.0625 124.0469 51.6562 123.75 L52.25 123.75 L52.25 124.0938 Q51.6875 124.2656 51.5 124.8125 L50.8906 126.4844 L51.2969 128.2812 Q51.5 129.2031 51.7344 129.2969 Q52.0469 129.4375 52.7812 129 L52.7812 129.7188 Q51.5938 130.4062 50.75 129.6875 Q50.375 129.3594 50.2656 128.875 L50.1875 128.4688 ZM49.9219 127.3125 L49.5625 125.5938 Q49.2656 124.2188 48.4688 124.2188 Q47.7969 124.2031 47.2812 124.9375 Q46.8594 125.5156 46.8594 126.875 Q46.8594 128.1719 47.2812 128.8281 Q47.75 129.5469 48.5312 129.5 Q49.2031 129.4375 49.6875 128 L49.9219 127.3125 Z" style="fill:black; stroke:none;" /></g><g ID="r-1:5" style="fill:white; text-rendering:optimizeSpeed; stroke:white;" wurcs_mono_id="6"><rect height="22" style="clip-path:url(#clipPath6); stroke:none;" width="22" x="30" y="30" /><rect height="22" style="clip-path:url(#clipPath6); fill:rgb(0,144,188); stroke:none;" width="22" x="30" y="30" /><rect height="22" style="clip-path:url(#clipPath6); fill:none; stroke:black;" width="22" x="30" y="30" /><rect height="22" style="fill:none; stroke:black;" width="22" x="30" y="30" /></g><g ID="li-1:2,3" style="fill:white; text-rendering:optimizeSpeed; font-family:'Serif'; stroke:white;"><rect height="9" style="stroke:none;" width="7" x="97" y="81" /><path d="M98.5312 83.3438 L97.875 83.3438 L97.875 81.7812 Q98.5 81.4375 99.1406 81.2656 Q99.7812 81.0938 100.3906 81.0938 Q101.75 81.0938 102.5391 81.7578 Q103.3281 82.4219 103.3281 83.5469 Q103.3281 84.8438 101.5469 86.625 Q101.4062 86.7656 101.3281 86.8281 L99.125 89.0312 L102.7656 89.0312 L102.7656 87.9531 L103.4531 87.9531 L103.4531 90 L97.8125 90 L97.8125 89.3594 L100.4688 86.7188 Q101.3438 85.8281 101.7188 85.0938 Q102.0938 84.3594 102.0938 83.5469 Q102.0938 82.6719 101.6328 82.1719 Q101.1719 81.6719 100.375 81.6719 Q99.5312 81.6719 99.0781 82.0859 Q98.625 82.5 98.5312 83.3438 Z" style="fill:black; stroke:none;" /><rect height="8" style="stroke:none;" width="8" x="97" y="96" /><path d="M102.1875 102.4688 L101.9531 103.1094 Q101.7656 103.625 101.2031 103.9375 Q100.8438 104.1562 100.2031 104.1406 Q99.0469 104.1406 98.3281 103.2344 Q97.5938 102.3281 97.5938 100.8594 Q97.5938 99.4219 98.3281 98.4844 Q99.0156 97.5938 100.4531 97.6094 Q101.4531 97.6094 101.9531 98 Q102.4062 98.3438 102.5781 99.0938 L102.625 99.3125 L102.8438 98.6719 Q103.0625 98.0469 103.6562 97.75 L104.25 97.75 L104.25 98.0938 Q103.6875 98.2656 103.5 98.8125 L102.8906 100.4844 L103.2969 102.2812 Q103.5 103.2031 103.7344 103.2969 Q104.0469 103.4375 104.7812 103 L104.7812 103.7188 Q103.5938 104.4062 102.75 103.6875 Q102.375 103.3594 102.2656 102.875 L102.1875 102.4688 ZM101.9219 101.3125 L101.5625 99.5938 Q101.2656 98.2188 100.4688 98.2188 Q99.7969 98.2031 99.2812 98.9375 Q98.8594 99.5156 98.8594 100.875 Q98.8594 102.1719 99.2812 102.8281 Q99.75 103.5469 100.5312 103.5 Q101.2031 103.4375 101.6875 102 L101.9219 101.3125 Z" style="fill:black; stroke:none;" /></g><g ID="li-1:2,4" style="fill:white; text-rendering:optimizeSpeed; font-family:'Serif'; stroke:white;"><rect height="10" style="stroke:none;" width="7" x="74" y="78" /><path d="M75.1719 79.625 Q75.8594 79.3594 76.4844 79.2266 Q77.1094 79.0938 77.6562 79.0938 Q78.9531 79.0938 79.6719 79.6484 Q80.3906 80.2031 80.3906 81.1875 Q80.3906 81.9688 79.8906 82.5 Q79.3906 83.0312 78.4844 83.2188 Q79.5625 83.375 80.1562 84.0078 Q80.75 84.6406 80.75 85.6406 Q80.75 86.8594 79.9219 87.5156 Q79.0938 88.1719 77.5469 88.1719 Q76.8594 88.1719 76.2109 88.0234 Q75.5625 87.875 74.9219 87.5781 L74.9219 85.875 L75.5781 85.875 Q75.625 86.7188 76.1406 87.1562 Q76.6562 87.5938 77.5781 87.5938 Q78.4688 87.5938 78.9922 87.0703 Q79.5156 86.5469 79.5156 85.6562 Q79.5156 84.625 78.9766 84.0938 Q78.4375 83.5625 77.4062 83.5625 L76.8594 83.5625 L76.8594 82.9531 L77.1406 82.9531 Q78.1719 82.9531 78.6875 82.5312 Q79.2031 82.1094 79.2031 81.25 Q79.2031 80.4844 78.7812 80.0781 Q78.3594 79.6719 77.5625 79.6719 Q76.7656 79.6719 76.3359 80.0469 Q75.9062 80.4219 75.8281 81.1562 L75.1719 81.1562 L75.1719 79.625 Z" style="fill:black; stroke:none;" /><rect height="13" style="stroke:none;" width="7" x="59" y="84" /><path d="M60.8281 96.25 Q61.2969 96.5938 62.1719 96.5938 Q63.0625 96.5938 63.5781 96.0703 Q64.0938 95.5469 64.0938 94.6562 Q64.0938 93.4219 63.5625 92.8906 Q63.0156 92.3594 62 92.3594 L61.4375 92.3594 L61.4375 91.7188 L61.7344 91.7188 Q62.4844 91.7188 63 91.2969 Q63.4219 90.9531 63.4219 90.0156 Q63.4219 89.6094 63.1406 89.1406 Q62.6875 88.375 62.1562 88.3906 Q60.8281 88.4375 60.8281 90.7812 L60.8281 96.25 ZM59.75 99.5 L59.75 90.7812 Q59.75 88.3281 61.0781 88 Q61.7656 87.8125 62.25 87.8125 Q63.3438 87.8125 64.0469 88.6719 Q64.6094 89.3594 64.6094 89.9375 Q64.6094 90.7812 64.2031 91.2656 Q63.7969 91.75 63.0625 91.9844 Q64.1406 92.1406 64.75 92.7812 Q65.3281 93.4062 65.3281 94.6328 Q65.3281 95.8594 64.5078 96.5156 Q63.6875 97.1719 62.1406 97.1719 Q61.1875 97.1719 60.8281 97.0312 L60.8281 99.5 L59.75 99.5 Z" style="fill:black; stroke:none;" /></g><g ID="li-1:2,5" style="fill:white; text-rendering:optimizeSpeed; font-family:'Serif'; stroke:white;"><rect height="10" style="stroke:none;" width="7" x="67" y="60" /><path d="M70.9219 69.5938 Q71.75 69.5938 72.1953 68.9844 Q72.6406 68.375 72.6406 67.2344 Q72.6406 66.1094 72.1953 65.5 Q71.75 64.8906 70.9219 64.8906 Q70.0938 64.8906 69.6484 65.4766 Q69.2031 66.0625 69.2031 67.1719 Q69.2031 68.3281 69.6484 68.9609 Q70.0938 69.5938 70.9219 69.5938 ZM69.0156 65.1875 Q69.4219 64.75 69.9219 64.5312 Q70.4219 64.3125 71.0625 64.3125 Q72.3594 64.3125 73.1172 65.0938 Q73.875 65.875 73.875 67.2344 Q73.875 68.5625 73.0625 69.3672 Q72.25 70.1719 70.875 70.1719 Q69.3906 70.1719 68.5938 69.0625 Q67.7969 67.9531 67.7969 65.9062 Q67.7969 63.6094 68.7422 62.3516 Q69.6875 61.0938 71.4062 61.0938 Q71.875 61.0938 72.3828 61.1797 Q72.8906 61.2656 73.4219 61.4375 L73.4219 62.8906 L72.7656 62.8906 Q72.6875 62.2969 72.3047 61.9844 Q71.9219 61.6719 71.2812 61.6719 Q70.1406 61.6719 69.5859 62.5312 Q69.0312 63.3906 69.0156 65.1875 Z" style="fill:black; stroke:none;" /><rect height="13" style="stroke:none;" width="7" x="52" y="50" /><path d="M53.8281 62.25 Q54.2969 62.5938 55.1719 62.5938 Q56.0625 62.5938 56.5781 62.0703 Q57.0938 61.5469 57.0938 60.6562 Q57.0938 59.4219 56.5625 58.8906 Q56.0156 58.3594 55 58.3594 L54.4375 58.3594 L54.4375 57.7188 L54.7344 57.7188 Q55.4844 57.7188 56 57.2969 Q56.4219 56.9531 56.4219 56.0156 Q56.4219 55.6094 56.1406 55.1406 Q55.6875 54.375 55.1562 54.3906 Q53.8281 54.4375 53.8281 56.7812 L53.8281 62.25 ZM52.75 65.5 L52.75 56.7812 Q52.75 54.3281 54.0781 54 Q54.7656 53.8125 55.25 53.8125 Q56.3438 53.8125 57.0469 54.6719 Q57.6094 55.3594 57.6094 55.9375 Q57.6094 56.7812 57.2031 57.2656 Q56.7969 57.75 56.0625 57.9844 Q57.1406 58.1406 57.75 58.7812 Q58.3281 59.4062 58.3281 60.6328 Q58.3281 61.8594 57.5078 62.5156 Q56.6875 63.1719 55.1406 63.1719 Q54.1875 63.1719 53.8281 63.0312 L53.8281 65.5 L52.75 65.5 Z" style="fill:black; stroke:none;" /></g><g ID="li-1:1,2" style="fill:white; text-rendering:optimizeSpeed; font-family:'Serif'; stroke:white;"><rect height="10" style="stroke:none;" width="7" x="122" y="70" /><path d="M123.1719 71.625 Q123.8594 71.3594 124.4844 71.2266 Q125.1094 71.0938 125.6562 71.0938 Q126.9531 71.0938 127.6719 71.6484 Q128.3906 72.2031 128.3906 73.1875 Q128.3906 73.9688 127.8906 74.5 Q127.3906 75.0312 126.4844 75.2188 Q127.5625 75.375 128.1562 76.0078 Q128.75 76.6406 128.75 77.6406 Q128.75 78.8594 127.9219 79.5156 Q127.0938 80.1719 125.5469 80.1719 Q124.8594 80.1719 124.2109 80.0234 Q123.5625 79.875 122.9219 79.5781 L122.9219 77.875 L123.5781 77.875 Q123.625 78.7188 124.1406 79.1562 Q124.6562 79.5938 125.5781 79.5938 Q126.4688 79.5938 126.9922 79.0703 Q127.5156 78.5469 127.5156 77.6562 Q127.5156 76.625 126.9766 76.0938 Q126.4375 75.5625 125.4062 75.5625 L124.8594 75.5625 L124.8594 74.9531 L125.1406 74.9531 Q126.1719 74.9531 126.6875 74.5312 Q127.2031 74.1094 127.2031 73.25 Q127.2031 72.4844 126.7812 72.0781 Q126.3594 71.6719 125.5625 71.6719 Q124.7656 71.6719 124.3359 72.0469 Q123.9062 72.4219 123.8281 73.1562 L123.1719 73.1562 L123.1719 71.625 Z" style="fill:black; stroke:none;" /><rect height="13" style="stroke:none;" width="7" x="108" y="68" /><path d="M109.8281 80.25 Q110.2969 80.5938 111.1719 80.5938 Q112.0625 80.5938 112.5781 80.0703 Q113.0938 79.5469 113.0938 78.6562 Q113.0938 77.4219 112.5625 76.8906 Q112.0156 76.3594 111 76.3594 L110.4375 76.3594 L110.4375 75.7188 L110.7344 75.7188 Q111.4844 75.7188 112 75.2969 Q112.4219 74.9531 112.4219 74.0156 Q112.4219 73.6094 112.1406 73.1406 Q111.6875 72.375 111.1562 72.3906 Q109.8281 72.4375 109.8281 74.7812 L109.8281 80.25 ZM108.75 83.5 L108.75 74.7812 Q108.75 72.3281 110.0781 72 Q110.7656 71.8125 111.25 71.8125 Q112.3438 71.8125 113.0469 72.6719 Q113.6094 73.3594 113.6094 73.9375 Q113.6094 74.7812 113.2031 75.2656 Q112.7969 75.75 112.0625 75.9844 Q113.1406 76.1406 113.75 76.7812 Q114.3281 77.4062 114.3281 78.6328 Q114.3281 79.8594 113.5078 80.5156 Q112.6875 81.1719 111.1406 81.1719 Q110.1875 81.1719 109.8281 81.0312 L109.8281 83.5 L108.75 83.5 Z" style="fill:black; stroke:none;" /></g></g></svg>