<svg xmlns="http://www.w3.org/2000/svg" style="fill-opacity:1; color-rendering:auto; color-interpolation:auto; text-rendering:auto; stroke:black; stroke-linecap:square; stroke-miterlimit:10; shape-rendering:auto; stroke-opacity:1; fill:black; stroke-dasharray:none; font-weight:normal; stroke-width:1; font-family:'Dialog'; font-style:normal; stroke-linejoin:miter; font-size:12px; stroke-dashoffset:0; image-rendering:auto;"><defs id="genericDefs" /><g><defs id="defs1"><clipPath clipPathUnits="userSpaceOnUse" id="clipPath1"><path d="M290 121 L312 121 L312 143 L290 143 L290 121 Z" /></clipPath><clipPath clipPathUnits="userSpaceOnUse" id="clipPath2"><path d="M238 121 L260 121 L260 143 L238 143 L238 121 Z" /></clipPath><clipPath clipPathUnits="userSpaceOnUse" id="clipPath3"><path d="M208 132 C208 138.0751 203.0751 143 197 143 C190.9249 143 186 138.0751 186 132 C186 125.9249 190.9249 121 197 121 C203.0751 121 208 125.9249 208 132 Z" /></clipPath><clipPath clipPathUnits="userSpaceOnUse" id="clipPath4"><path d="M156 197 C156 203.0751 151.0751 208 145 208 C138.9249 208 134 203.0751 134 197 C134 190.9249 138.9249 186 145 186 C151.0751 186 156 190.9249 156 197 Z" /></clipPath><clipPath clipPathUnits="userSpaceOnUse" id="clipPath5"><path d="M82 238 L104 238 L104 260 L82 260 L82 238 Z" /></clipPath><clipPath clipPathUnits="userSpaceOnUse" id="clipPath6"><path d="M52 249 C52 255.0751 47.0751 260 41 260 C34.9249 260 30 255.0751 30 249 C30 242.9249 34.9249 238 41 238 C47.0751 238 52 242.9249 52 249 Z" /></clipPath><clipPath clipPathUnits="userSpaceOnUse" id="clipPath7"><path d="M82 186 L104 186 L104 208 L82 208 L82 186 Z" /></clipPath><clipPath clipPathUnits="userSpaceOnUse" id="clipPath8"><path d="M52 197 C52 203.0751 47.0751 208 41 208 C34.9249 208 30 203.0751 30 197 C30 190.9249 34.9249 186 41 186 C47.0751 186 52 190.9249 52 197 Z" /></clipPath><clipPath clipPathUnits="userSpaceOnUse" id="clipPath9"><path d="M82 134 L104 134 L104 156 L82 156 L82 134 Z" /></clipPath><clipPath clipPathUnits="userSpaceOnUse" id="clipPath10"><path d="M52 145 C52 151.0751 47.0751 156 41 156 C34.9249 156 30 151.0751 30 145 C30 138.9249 34.9249 134 41 134 C47.0751 134 52 138.9249 52 145 Z" /></clipPath><clipPath clipPathUnits="userSpaceOnUse" id="clipPath11"><path d="M156 67 C156 73.0751 151.0751 78 145 78 C138.9249 78 134 73.0751 134 67 C134 60.9249 138.9249 56 145 56 C151.0751 56 156 60.9249 156 67 Z" /></clipPath><clipPath clipPathUnits="userSpaceOnUse" id="clipPath12"><path d="M82 82 L104 82 L104 104 L82 104 L82 82 Z" /></clipPath><clipPath clipPathUnits="userSpaceOnUse" id="clipPath13"><path d="M52 93 C52 99.0751 47.0751 104 41 104 C34.9249 104 30 99.0751 30 93 C30 86.9249 34.9249 82 41 82 C47.0751 82 52 86.9249 52 93 Z" /></clipPath><clipPath clipPathUnits="userSpaceOnUse" id="clipPath14"><path d="M82 30 L104 30 L104 52 L82 52 L82 30 Z" /></clipPath><clipPath clipPathUnits="userSpaceOnUse" id="clipPath15"><path d="M52 41 C52 47.0751 47.0751 52 41 52 C34.9249 52 30 47.0751 30 41 C30 34.9249 34.9249 30 41 30 C47.0751 30 52 34.9249 52 41 Z" /></clipPath><clipPath clipPathUnits="userSpaceOnUse" id="clipPath16"><path d="M301 91 L290 69 L312 69 Z" style="fill-rule:evenodd;" /></clipPath></defs><g style="fill:white; text-rendering:optimizeSpeed; stroke:white;"><rect height="290" style="stroke:none;" width="342" x="0" y="0" /></g><g ID="l-1:1,2" style="text-rendering:optimizeSpeed;"><polygon points=" 301 132 249 132" style="fill:none;" /></g><g ID="l-1:1,3" style="text-rendering:optimizeSpeed;"><polygon points=" 301 132 301 80" style="fill:none;" /></g><g ID="r-1:1" style="fill:white; text-rendering:optimizeSpeed; stroke:white;" wurcs_mono_id="1"><rect height="22" style="clip-path:url(#clipPath1); stroke:none;" width="22" x="290" y="121" /><rect height="22" style="clip-path:url(#clipPath1); fill:rgb(0,144,188); stroke:none;" width="22" x="290" y="121" /><rect height="22" style="clip-path:url(#clipPath1); fill:none; stroke:black;" width="22" x="290" y="121" /><rect height="22" style="fill:none; stroke:black;" width="22" x="290" y="121" /></g><g ID="l-1:2,4" style="text-rendering:optimizeSpeed;"><polygon points=" 249 132 197 132" style="fill:none;" /></g><g ID="r-1:2" style="fill:white; text-rendering:optimizeSpeed; stroke:white;" wurcs_mono_id="2"><rect height="22" style="clip-path:url(#clipPath2); stroke:none;" width="22" x="238" y="121" /><rect height="22" style="clip-path:url(#clipPath2); fill:rgb(0,144,188); stroke:none;" width="22" x="238" y="121" /><rect height="22" style="clip-path:url(#clipPath2); fill:none; stroke:black;" width="22" x="238" y="121" /><rect height="22" style="fill:none; stroke:black;" width="22" x="238" y="121" /></g><g ID="l-1:4,5" style="text-rendering:optimizeSpeed;"><polygon points=" 197 132 145 197" style="fill:none;" /></g><g ID="l-1:4,6" style="text-rendering:optimizeSpeed;"><polygon points=" 197 132 145 67" style="fill:none;" /></g><g ID="r-1:4" style="fill:white; text-rendering:optimizeSpeed; stroke:white;" wurcs_mono_id="3"><circle cx="197" cy="132" r="11" style="clip-path:url(#clipPath3); stroke:none;" /><rect height="22" style="clip-path:url(#clipPath3); fill:rgb(0,166,81); stroke:none;" width="22" x="186" y="121" /><rect height="22" style="clip-path:url(#clipPath3); fill:none; stroke:black;" width="22" x="186" y="121" /><circle cx="197" cy="132" r="11" style="fill:none; stroke:black;" /></g><g ID="l-1:5,7" style="text-rendering:optimizeSpeed;"><polygon points=" 145 197 93 249" style="fill:none;" /></g><g ID="l-1:5,8" style="text-rendering:optimizeSpeed;"><polygon points=" 145 197 93 197" style="fill:none;" /></g><g ID="l-1:5,9" style="text-rendering:optimizeSpeed;"><polygon points=" 145 197 93 145" style="fill:none;" /></g><g ID="r-1:5" style="fill:white; text-rendering:optimizeSpeed; stroke:white;" wurcs_mono_id="4"><circle cx="145" cy="197" r="11" style="clip-path:url(#clipPath4); stroke:none;" /><rect height="22" style="clip-path:url(#clipPath4); fill:rgb(0,166,81); stroke:none;" width="22" x="134" y="186" /><rect height="22" style="clip-path:url(#clipPath4); fill:none; stroke:black;" width="22" x="134" y="186" /><circle cx="145" cy="197" r="11" style="fill:none; stroke:black;" /></g><g ID="l-1:7,10" style="text-rendering:optimizeSpeed;"><polygon points=" 93 249 41 249" style="fill:none;" /></g><g ID="r-1:7" style="fill:white; text-rendering:optimizeSpeed; stroke:white;" wurcs_mono_id="5"><rect height="22" style="clip-path:url(#clipPath5); stroke:none;" width="22" x="82" y="238" /><rect height="22" style="clip-path:url(#clipPath5); fill:rgb(0,144,188); stroke:none;" width="22" x="82" y="238" /><rect height="22" style="clip-path:url(#clipPath5); fill:none; stroke:black;" width="22" x="82" y="238" /><rect height="22" style="fill:none; stroke:black;" width="22" x="82" y="238" /></g><g ID="r-1:10" style="fill:white; text-rendering:optimizeSpeed; stroke:white;" wurcs_mono_id="6"><circle cx="41" cy="249" r="11" style="clip-path:url(#clipPath6); stroke:none;" /><rect height="22" style="clip-path:url(#clipPath6); fill:rgb(255,212,0); stroke:none;" width="22" x="30" y="238" /><rect height="22" style="clip-path:url(#clipPath6); fill:none; stroke:black;" width="22" x="30" y="238" /><circle cx="41" cy="249" r="11" style="fill:none; stroke:black;" /></g><g ID="li-1:7,10" style="fill:white; text-rendering:optimizeSpeed; font-family:'Serif'; stroke:white;"><rect height="9" style="stroke:none;" width="8" x="70" y="252" /><path d="M74.1875 258.0312 L74.1875 253.375 L71.2031 258.0312 L74.1875 258.0312 ZM76.7656 261 L72.7812 261 L72.7812 260.375 L74.1875 260.375 L74.1875 258.6562 L70.375 258.6562 L70.375 258.0156 L74.2031 252.0938 L75.3594 252.0938 L75.3594 258.0312 L77.0312 258.0312 L77.0312 258.6562 L75.3594 258.6562 L75.3594 260.375 L76.7656 260.375 L76.7656 261 Z" style="fill:black; stroke:none;" /><rect height="13" style="stroke:none;" width="7" x="56" y="250" /><path d="M57.8281 262.25 Q58.2969 262.5938 59.1719 262.5938 Q60.0625 262.5938 60.5781 262.0703 Q61.0938 261.5469 61.0938 260.6562 Q61.0938 259.4219 60.5625 258.8906 Q60.0156 258.3594 59 258.3594 L58.4375 258.3594 L58.4375 257.7188 L58.7344 257.7188 Q59.4844 257.7188 60 257.2969 Q60.4219 256.9531 60.4219 256.0156 Q60.4219 255.6094 60.1406 255.1406 Q59.6875 254.375 59.1562 254.3906 Q57.8281 254.4375 57.8281 256.7812 L57.8281 262.25 ZM56.75 265.5 L56.75 256.7812 Q56.75 254.3281 58.0781 254 Q58.7656 253.8125 59.25 253.8125 Q60.3438 253.8125 61.0469 254.6719 Q61.6094 255.3594 61.6094 255.9375 Q61.6094 256.7812 61.2031 257.2656 Q60.7969 257.75 60.0625 257.9844 Q61.1406 258.1406 61.75 258.7812 Q62.3281 259.4062 62.3281 260.6328 Q62.3281 261.8594 61.5078 262.5156 Q60.6875 263.1719 59.1406 263.1719 Q58.1875 263.1719 57.8281 263.0312 L57.8281 265.5 L56.75 265.5 Z" style="fill:black; stroke:none;" /></g><g ID="l-1:8,11" style="text-rendering:optimizeSpeed;"><polygon points=" 93 197 41 197" style="fill:none;" /></g><g ID="r-1:8" style="fill:white; text-rendering:optimizeSpeed; stroke:white;" wurcs_mono_id="7"><rect height="22" style="clip-path:url(#clipPath7); stroke:none;" width="22" x="82" y="186" /><rect height="22" style="clip-path:url(#clipPath7); fill:rgb(0,144,188); stroke:none;" width="22" x="82" y="186" /><rect height="22" style="clip-path:url(#clipPath7); fill:none; stroke:black;" width="22" x="82" y="186" /><rect height="22" style="fill:none; stroke:black;" width="22" x="82" y="186" /></g><g ID="r-1:11" style="fill:white; text-rendering:optimizeSpeed; stroke:white;" wurcs_mono_id="8"><circle cx="41" cy="197" r="11" style="clip-path:url(#clipPath8); stroke:none;" /><rect height="22" style="clip-path:url(#clipPath8); fill:rgb(255,212,0); stroke:none;" width="22" x="30" y="186" /><rect height="22" style="clip-path:url(#clipPath8); fill:none; stroke:black;" width="22" x="30" y="186" /><circle cx="41" cy="197" r="11" style="fill:none; stroke:black;" /></g><g ID="li-1:8,11" style="fill:white; text-rendering:optimizeSpeed; font-family:'Serif'; stroke:white;"><rect height="9" style="stroke:none;" width="8" x="70" y="200" /><path d="M74.1875 206.0312 L74.1875 201.375 L71.2031 206.0312 L74.1875 206.0312 ZM76.7656 209 L72.7812 209 L72.7812 208.375 L74.1875 208.375 L74.1875 206.6562 L70.375 206.6562 L70.375 206.0156 L74.2031 200.0938 L75.3594 200.0938 L75.3594 206.0312 L77.0312 206.0312 L77.0312 206.6562 L75.3594 206.6562 L75.3594 208.375 L76.7656 208.375 L76.7656 209 Z" style="fill:black; stroke:none;" /><rect height="13" style="stroke:none;" width="7" x="56" y="198" /><path d="M57.8281 210.25 Q58.2969 210.5938 59.1719 210.5938 Q60.0625 210.5938 60.5781 210.0703 Q61.0938 209.5469 61.0938 208.6562 Q61.0938 207.4219 60.5625 206.8906 Q60.0156 206.3594 59 206.3594 L58.4375 206.3594 L58.4375 205.7188 L58.7344 205.7188 Q59.4844 205.7188 60 205.2969 Q60.4219 204.9531 60.4219 204.0156 Q60.4219 203.6094 60.1406 203.1406 Q59.6875 202.375 59.1562 202.3906 Q57.8281 202.4375 57.8281 204.7812 L57.8281 210.25 ZM56.75 213.5 L56.75 204.7812 Q56.75 202.3281 58.0781 202 Q58.7656 201.8125 59.25 201.8125 Q60.3438 201.8125 61.0469 202.6719 Q61.6094 203.3594 61.6094 203.9375 Q61.6094 204.7812 61.2031 205.2656 Q60.7969 205.75 60.0625 205.9844 Q61.1406 206.1406 61.75 206.7812 Q62.3281 207.4062 62.3281 208.6328 Q62.3281 209.8594 61.5078 210.5156 Q60.6875 211.1719 59.1406 211.1719 Q58.1875 211.1719 57.8281 211.0312 L57.8281 213.5 L56.75 213.5 Z" style="fill:black; stroke:none;" /></g><g ID="l-1:9,12" style="text-rendering:optimizeSpeed;"><polygon points=" 93 145 41 145" style="fill:none;" /></g><g ID="r-1:9" style="fill:white; text-rendering:optimizeSpeed; stroke:white;" wurcs_mono_id="9"><rect height="22" style="clip-path:url(#clipPath9); stroke:none;" width="22" x="82" y="134" /><rect height="22" style="clip-path:url(#clipPath9); fill:rgb(0,144,188); stroke:none;" width="22" x="82" y="134" /><rect height="22" style="clip-path:url(#clipPath9); fill:none; stroke:black;" width="22" x="82" y="134" /><rect height="22" style="fill:none; stroke:black;" width="22" x="82" y="134" /></g><g ID="r-1:12" style="fill:white; text-rendering:optimizeSpeed; stroke:white;" wurcs_mono_id="10"><circle cx="41" cy="145" r="11" style="clip-path:url(#clipPath10); stroke:none;" /><rect height="22" style="clip-path:url(#clipPath10); fill:rgb(255,212,0); stroke:none;" width="22" x="30" y="134" /><rect height="22" style="clip-path:url(#clipPath10); fill:none; stroke:black;" width="22" x="30" y="134" /><circle cx="41" cy="145" r="11" style="fill:none; stroke:black;" /></g><g ID="li-1:9,12" style="fill:white; text-rendering:optimizeSpeed; font-family:'Serif'; stroke:white;"><rect height="9" style="stroke:none;" width="8" x="70" y="148" /><path d="M74.1875 154.0312 L74.1875 149.375 L71.2031 154.0312 L74.1875 154.0312 ZM76.7656 157 L72.7812 157 L72.7812 156.375 L74.1875 156.375 L74.1875 154.6562 L70.375 154.6562 L70.375 154.0156 L74.2031 148.0938 L75.3594 148.0938 L75.3594 154.0312 L77.0312 154.0312 L77.0312 154.6562 L75.3594 154.6562 L75.3594 156.375 L76.7656 156.375 L76.7656 157 Z" style="fill:black; stroke:none;" /><rect height="13" style="stroke:none;" width="7" x="56" y="146" /><path d="M57.8281 158.25 Q58.2969 158.5938 59.1719 158.5938 Q60.0625 158.5938 60.5781 158.0703 Q61.0938 157.5469 61.0938 156.6562 Q61.0938 155.4219 60.5625 154.8906 Q60.0156 154.3594 59 154.3594 L58.4375 154.3594 L58.4375 153.7188 L58.7344 153.7188 Q59.4844 153.7188 60 153.2969 Q60.4219 152.9531 60.4219 152.0156 Q60.4219 151.6094 60.1406 151.1406 Q59.6875 150.375 59.1562 150.3906 Q57.8281 150.4375 57.8281 152.7812 L57.8281 158.25 ZM56.75 161.5 L56.75 152.7812 Q56.75 150.3281 58.0781 150 Q58.7656 149.8125 59.25 149.8125 Q60.3438 149.8125 61.0469 150.6719 Q61.6094 151.3594 61.6094 151.9375 Q61.6094 152.7812 61.2031 153.2656 Q60.7969 153.75 60.0625 153.9844 Q61.1406 154.1406 61.75 154.7812 Q62.3281 155.4062 62.3281 156.6328 Q62.3281 157.8594 61.5078 158.5156 Q60.6875 159.1719 59.1406 159.1719 Q58.1875 159.1719 57.8281 159.0312 L57.8281 161.5 L56.75 161.5 Z" style="fill:black; stroke:none;" /></g><g ID="li-1:5,7" style="fill:white; text-rendering:optimizeSpeed; font-family:'Serif'; stroke:white;"><rect height="9" style="stroke:none;" width="7" x="130" y="214" /><path d="M131.5312 216.3438 L130.875 216.3438 L130.875 214.7812 Q131.5 214.4375 132.1406 214.2656 Q132.7812 214.0938 133.3906 214.0938 Q134.75 214.0938 135.5391 214.7578 Q136.3281 215.4219 136.3281 216.5469 Q136.3281 217.8438 134.5469 219.625 Q134.4062 219.7656 134.3281 219.8281 L132.125 222.0312 L135.7656 222.0312 L135.7656 220.9531 L136.4531 220.9531 L136.4531 223 L130.8125 223 L130.8125 222.3594 L133.4688 219.7188 Q134.3438 218.8281 134.7188 218.0938 Q135.0938 217.3594 135.0938 216.5469 Q135.0938 215.6719 134.6328 215.1719 Q134.1719 214.6719 133.375 214.6719 Q132.5312 214.6719 132.0781 215.0859 Q131.625 215.5 131.5312 216.3438 Z" style="fill:black; stroke:none;" /><rect height="13" style="stroke:none;" width="7" x="111" y="231" /><path d="M112.8281 243.25 Q113.2969 243.5938 114.1719 243.5938 Q115.0625 243.5938 115.5781 243.0703 Q116.0938 242.5469 116.0938 241.6562 Q116.0938 240.4219 115.5625 239.8906 Q115.0156 239.3594 114 239.3594 L113.4375 239.3594 L113.4375 238.7188 L113.7344 238.7188 Q114.4844 238.7188 115 238.2969 Q115.4219 237.9531 115.4219 237.0156 Q115.4219 236.6094 115.1406 236.1406 Q114.6875 235.375 114.1562 235.3906 Q112.8281 235.4375 112.8281 237.7812 L112.8281 243.25 ZM111.75 246.5 L111.75 237.7812 Q111.75 235.3281 113.0781 235 Q113.7656 234.8125 114.25 234.8125 Q115.3438 234.8125 116.0469 235.6719 Q116.6094 236.3594 116.6094 236.9375 Q116.6094 237.7812 116.2031 238.2656 Q115.7969 238.75 115.0625 238.9844 Q116.1406 239.1406 116.75 239.7812 Q117.3281 240.4062 117.3281 241.6328 Q117.3281 242.8594 116.5078 243.5156 Q115.6875 244.1719 114.1406 244.1719 Q113.1875 244.1719 112.8281 244.0312 L112.8281 246.5 L111.75 246.5 Z" style="fill:black; stroke:none;" /></g><g ID="li-1:5,8" style="fill:white; text-rendering:optimizeSpeed; font-family:'Serif'; stroke:white;"><rect height="9" style="stroke:none;" width="8" x="122" y="200" /><path d="M126.1875 206.0312 L126.1875 201.375 L123.2031 206.0312 L126.1875 206.0312 ZM128.7656 209 L124.7812 209 L124.7812 208.375 L126.1875 208.375 L126.1875 206.6562 L122.375 206.6562 L122.375 206.0156 L126.2031 200.0938 L127.3594 200.0938 L127.3594 206.0312 L129.0312 206.0312 L129.0312 206.6562 L127.3594 206.6562 L127.3594 208.375 L128.7656 208.375 L128.7656 209 Z" style="fill:black; stroke:none;" /><rect height="13" style="stroke:none;" width="7" x="108" y="198" /><path d="M109.8281 210.25 Q110.2969 210.5938 111.1719 210.5938 Q112.0625 210.5938 112.5781 210.0703 Q113.0938 209.5469 113.0938 208.6562 Q113.0938 207.4219 112.5625 206.8906 Q112.0156 206.3594 111 206.3594 L110.4375 206.3594 L110.4375 205.7188 L110.7344 205.7188 Q111.4844 205.7188 112 205.2969 Q112.4219 204.9531 112.4219 204.0156 Q112.4219 203.6094 112.1406 203.1406 Q111.6875 202.375 111.1562 202.3906 Q109.8281 202.4375 109.8281 204.7812 L109.8281 210.25 ZM108.75 213.5 L108.75 204.7812 Q108.75 202.3281 110.0781 202 Q110.7656 201.8125 111.25 201.8125 Q112.3438 201.8125 113.0469 202.6719 Q113.6094 203.3594 113.6094 203.9375 Q113.6094 204.7812 113.2031 205.2656 Q112.7969 205.75 112.0625 205.9844 Q113.1406 206.1406 113.75 206.7812 Q114.3281 207.4062 114.3281 208.6328 Q114.3281 209.8594 113.5078 210.5156 Q112.6875 211.1719 111.1406 211.1719 Q110.1875 211.1719 109.8281 211.0312 L109.8281 213.5 L108.75 213.5 Z" style="fill:black; stroke:none;" /></g><g ID="li-1:5,9" style="fill:white; text-rendering:optimizeSpeed; font-family:'Serif'; stroke:white;"><rect height="10" style="stroke:none;" width="7" x="119" y="181" /><path d="M122.9219 190.5938 Q123.75 190.5938 124.1953 189.9844 Q124.6406 189.375 124.6406 188.2344 Q124.6406 187.1094 124.1953 186.5 Q123.75 185.8906 122.9219 185.8906 Q122.0938 185.8906 121.6484 186.4766 Q121.2031 187.0625 121.2031 188.1719 Q121.2031 189.3281 121.6484 189.9609 Q122.0938 190.5938 122.9219 190.5938 ZM121.0156 186.1875 Q121.4219 185.75 121.9219 185.5312 Q122.4219 185.3125 123.0625 185.3125 Q124.3594 185.3125 125.1172 186.0938 Q125.875 186.875 125.875 188.2344 Q125.875 189.5625 125.0625 190.3672 Q124.25 191.1719 122.875 191.1719 Q121.3906 191.1719 120.5938 190.0625 Q119.7969 188.9531 119.7969 186.9062 Q119.7969 184.6094 120.7422 183.3516 Q121.6875 182.0938 123.4062 182.0938 Q123.875 182.0938 124.3828 182.1797 Q124.8906 182.2656 125.4219 182.4375 L125.4219 183.8906 L124.7656 183.8906 Q124.6875 183.2969 124.3047 182.9844 Q123.9219 182.6719 123.2812 182.6719 Q122.1406 182.6719 121.5859 183.5312 Q121.0312 184.3906 121.0156 186.1875 Z" style="fill:black; stroke:none;" /><rect height="13" style="stroke:none;" width="7" x="100" y="160" /><path d="M101.8281 172.25 Q102.2969 172.5938 103.1719 172.5938 Q104.0625 172.5938 104.5781 172.0703 Q105.0938 171.5469 105.0938 170.6562 Q105.0938 169.4219 104.5625 168.8906 Q104.0156 168.3594 103 168.3594 L102.4375 168.3594 L102.4375 167.7188 L102.7344 167.7188 Q103.4844 167.7188 104 167.2969 Q104.4219 166.9531 104.4219 166.0156 Q104.4219 165.6094 104.1406 165.1406 Q103.6875 164.375 103.1562 164.3906 Q101.8281 164.4375 101.8281 166.7812 L101.8281 172.25 ZM100.75 175.5 L100.75 166.7812 Q100.75 164.3281 102.0781 164 Q102.7656 163.8125 103.25 163.8125 Q104.3438 163.8125 105.0469 164.6719 Q105.6094 165.3594 105.6094 165.9375 Q105.6094 166.7812 105.2031 167.2656 Q104.7969 167.75 104.0625 167.9844 Q105.1406 168.1406 105.75 168.7812 Q106.3281 169.4062 106.3281 170.6328 Q106.3281 171.8594 105.5078 172.5156 Q104.6875 173.1719 103.1406 173.1719 Q102.1875 173.1719 101.8281 173.0312 L101.8281 175.5 L100.75 175.5 Z" style="fill:black; stroke:none;" /></g><g ID="l-1:6,13" style="text-rendering:optimizeSpeed;"><polygon points=" 145 67 93 93" style="fill:none;" /></g><g ID="l-1:6,14" style="text-rendering:optimizeSpeed;"><polygon points=" 145 67 93 41" style="fill:none;" /></g><g ID="r-1:6" style="fill:white; text-rendering:optimizeSpeed; stroke:white;" wurcs_mono_id="11"><circle cx="145" cy="67" r="11" style="clip-path:url(#clipPath11); stroke:none;" /><rect height="22" style="clip-path:url(#clipPath11); fill:rgb(0,166,81); stroke:none;" width="22" x="134" y="56" /><rect height="22" style="clip-path:url(#clipPath11); fill:none; stroke:black;" width="22" x="134" y="56" /><circle cx="145" cy="67" r="11" style="fill:none; stroke:black;" /></g><g ID="l-1:13,15" style="text-rendering:optimizeSpeed;"><polygon points=" 93 93 41 93" style="fill:none;" /></g><g ID="r-1:13" style="fill:white; text-rendering:optimizeSpeed; stroke:white;" wurcs_mono_id="12"><rect height="22" style="clip-path:url(#clipPath12); stroke:none;" width="22" x="82" y="82" /><rect height="22" style="clip-path:url(#clipPath12); fill:rgb(0,144,188); stroke:none;" width="22" x="82" y="82" /><rect height="22" style="clip-path:url(#clipPath12); fill:none; stroke:black;" width="22" x="82" y="82" /><rect height="22" style="fill:none; stroke:black;" width="22" x="82" y="82" /></g><g ID="r-1:15" style="fill:white; text-rendering:optimizeSpeed; stroke:white;" wurcs_mono_id="13"><circle cx="41" cy="93" r="11" style="clip-path:url(#clipPath13); stroke:none;" /><rect height="22" style="clip-path:url(#clipPath13); fill:rgb(255,212,0); stroke:none;" width="22" x="30" y="82" /><rect height="22" style="clip-path:url(#clipPath13); fill:none; stroke:black;" width="22" x="30" y="82" /><circle cx="41" cy="93" r="11" style="fill:none; stroke:black;" /></g><g ID="li-1:13,15" style="fill:white; text-rendering:optimizeSpeed; font-family:'Serif'; stroke:white;"><rect height="9" style="stroke:none;" width="8" x="70" y="96" /><path d="M74.1875 102.0312 L74.1875 97.375 L71.2031 102.0312 L74.1875 102.0312 ZM76.7656 105 L72.7812 105 L72.7812 104.375 L74.1875 104.375 L74.1875 102.6562 L70.375 102.6562 L70.375 102.0156 L74.2031 96.0938 L75.3594 96.0938 L75.3594 102.0312 L77.0312 102.0312 L77.0312 102.6562 L75.3594 102.6562 L75.3594 104.375 L76.7656 104.375 L76.7656 105 Z" style="fill:black; stroke:none;" /><rect height="13" style="stroke:none;" width="7" x="56" y="94" /><path d="M57.8281 106.25 Q58.2969 106.5938 59.1719 106.5938 Q60.0625 106.5938 60.5781 106.0703 Q61.0938 105.5469 61.0938 104.6562 Q61.0938 103.4219 60.5625 102.8906 Q60.0156 102.3594 59 102.3594 L58.4375 102.3594 L58.4375 101.7188 L58.7344 101.7188 Q59.4844 101.7188 60 101.2969 Q60.4219 100.9531 60.4219 100.0156 Q60.4219 99.6094 60.1406 99.1406 Q59.6875 98.375 59.1562 98.3906 Q57.8281 98.4375 57.8281 100.7812 L57.8281 106.25 ZM56.75 109.5 L56.75 100.7812 Q56.75 98.3281 58.0781 98 Q58.7656 97.8125 59.25 97.8125 Q60.3438 97.8125 61.0469 98.6719 Q61.6094 99.3594 61.6094 99.9375 Q61.6094 100.7812 61.2031 101.2656 Q60.7969 101.75 60.0625 101.9844 Q61.1406 102.1406 61.75 102.7812 Q62.3281 103.4062 62.3281 104.6328 Q62.3281 105.8594 61.5078 106.5156 Q60.6875 107.1719 59.1406 107.1719 Q58.1875 107.1719 57.8281 107.0312 L57.8281 109.5 L56.75 109.5 Z" style="fill:black; stroke:none;" /></g><g ID="l-1:14,16" style="text-rendering:optimizeSpeed;"><polygon points=" 93 41 41 41" style="fill:none;" /></g><g ID="r-1:14" style="fill:white; text-rendering:optimizeSpeed; stroke:white;" wurcs_mono_id="14"><rect height="22" style="clip-path:url(#clipPath14); stroke:none;" width="22" x="82" y="30" /><rect height="22" style="clip-path:url(#clipPath14); fill:rgb(0,144,188); stroke:none;" width="22" x="82" y="30" /><rect height="22" style="clip-path:url(#clipPath14); fill:none; stroke:black;" width="22" x="82" y="30" /><rect height="22" style="fill:none; stroke:black;" width="22" x="82" y="30" /></g><g ID="r-1:16" style="fill:white; text-rendering:optimizeSpeed; stroke:white;" wurcs_mono_id="15"><circle cx="41" cy="41" r="11" style="clip-path:url(#clipPath15); stroke:none;" /><rect height="22" style="clip-path:url(#clipPath15); fill:rgb(255,212,0); stroke:none;" width="22" x="30" y="30" /><rect height="22" style="clip-path:url(#clipPath15); fill:none; stroke:black;" width="22" x="30" y="30" /><circle cx="41" cy="41" r="11" style="fill:none; stroke:black;" /></g><g ID="li-1:14,16" style="fill:white; text-rendering:optimizeSpeed; font-family:'Serif'; stroke:white;"><rect height="9" style="stroke:none;" width="8" x="70" y="44" /><path d="M74.1875 50.0312 L74.1875 45.375 L71.2031 50.0312 L74.1875 50.0312 ZM76.7656 53 L72.7812 53 L72.7812 52.375 L74.1875 52.375 L74.1875 50.6562 L70.375 50.6562 L70.375 50.0156 L74.2031 44.0938 L75.3594 44.0938 L75.3594 50.0312 L77.0312 50.0312 L77.0312 50.6562 L75.3594 50.6562 L75.3594 52.375 L76.7656 52.375 L76.7656 53 Z" style="fill:black; stroke:none;" /><rect height="13" style="stroke:none;" width="7" x="56" y="42" /><path d="M57.8281 54.25 Q58.2969 54.5938 59.1719 54.5938 Q60.0625 54.5938 60.5781 54.0703 Q61.0938 53.5469 61.0938 52.6562 Q61.0938 51.4219 60.5625 50.8906 Q60.0156 50.3594 59 50.3594 L58.4375 50.3594 L58.4375 49.7188 L58.7344 49.7188 Q59.4844 49.7188 60 49.2969 Q60.4219 48.9531 60.4219 48.0156 Q60.4219 47.6094 60.1406 47.1406 Q59.6875 46.375 59.1562 46.3906 Q57.8281 46.4375 57.8281 48.7812 L57.8281 54.25 ZM56.75 57.5 L56.75 48.7812 Q56.75 46.3281 58.0781 46 Q58.7656 45.8125 59.25 45.8125 Q60.3438 45.8125 61.0469 46.6719 Q61.6094 47.3594 61.6094 47.9375 Q61.6094 48.7812 61.2031 49.2656 Q60.7969 49.75 60.0625 49.9844 Q61.1406 50.1406 61.75 50.7812 Q62.3281 51.4062 62.3281 52.6328 Q62.3281 53.8594 61.5078 54.5156 Q60.6875 55.1719 59.1406 55.1719 Q58.1875 55.1719 57.8281 55.0312 L57.8281 57.5 L56.75 57.5 Z" style="fill:black; stroke:none;" /></g><g ID="li-1:6,13" style="fill:white; text-rendering:optimizeSpeed; font-family:'Serif'; stroke:white;"><rect height="9" style="stroke:none;" width="7" x="126" y="78" /><path d="M127.5312 80.3438 L126.875 80.3438 L126.875 78.7812 Q127.5 78.4375 128.1406 78.2656 Q128.7812 78.0938 129.3906 78.0938 Q130.75 78.0938 131.5391 78.7578 Q132.3281 79.4219 132.3281 80.5469 Q132.3281 81.8438 130.5469 83.625 Q130.4062 83.7656 130.3281 83.8281 L128.125 86.0312 L131.7656 86.0312 L131.7656 84.9531 L132.4531 84.9531 L132.4531 87 L126.8125 87 L126.8125 86.3594 L129.4688 83.7188 Q130.3438 82.8281 130.7188 82.0938 Q131.0938 81.3594 131.0938 80.5469 Q131.0938 79.6719 130.6328 79.1719 Q130.1719 78.6719 129.375 78.6719 Q128.5312 78.6719 128.0781 79.0859 Q127.625 79.5 127.5312 80.3438 Z" style="fill:black; stroke:none;" /><rect height="13" style="stroke:none;" width="7" x="111" y="84" /><path d="M112.8281 96.25 Q113.2969 96.5938 114.1719 96.5938 Q115.0625 96.5938 115.5781 96.0703 Q116.0938 95.5469 116.0938 94.6562 Q116.0938 93.4219 115.5625 92.8906 Q115.0156 92.3594 114 92.3594 L113.4375 92.3594 L113.4375 91.7188 L113.7344 91.7188 Q114.4844 91.7188 115 91.2969 Q115.4219 90.9531 115.4219 90.0156 Q115.4219 89.6094 115.1406 89.1406 Q114.6875 88.375 114.1562 88.3906 Q112.8281 88.4375 112.8281 90.7812 L112.8281 96.25 ZM111.75 99.5 L111.75 90.7812 Q111.75 88.3281 113.0781 88 Q113.7656 87.8125 114.25 87.8125 Q115.3438 87.8125 116.0469 88.6719 Q116.6094 89.3594 116.6094 89.9375 Q116.6094 90.7812 116.2031 91.2656 Q115.7969 91.75 115.0625 91.9844 Q116.1406 92.1406 116.75 92.7812 Q117.3281 93.4062 117.3281 94.6328 Q117.3281 95.8594 116.5078 96.5156 Q115.6875 97.1719 114.1406 97.1719 Q113.1875 97.1719 112.8281 97.0312 L112.8281 99.5 L111.75 99.5 Z" style="fill:black; stroke:none;" /></g><g ID="li-1:6,14" style="fill:white; text-rendering:optimizeSpeed; font-family:'Serif'; stroke:white;"><rect height="10" style="stroke:none;" width="7" x="119" y="60" /><path d="M122.9219 69.5938 Q123.75 69.5938 124.1953 68.9844 Q124.6406 68.375 124.6406 67.2344 Q124.6406 66.1094 124.1953 65.5 Q123.75 64.8906 122.9219 64.8906 Q122.0938 64.8906 121.6484 65.4766 Q121.2031 66.0625 121.2031 67.1719 Q121.2031 68.3281 121.6484 68.9609 Q122.0938 69.5938 122.9219 69.5938 ZM121.0156 65.1875 Q121.4219 64.75 121.9219 64.5312 Q122.4219 64.3125 123.0625 64.3125 Q124.3594 64.3125 125.1172 65.0938 Q125.875 65.875 125.875 67.2344 Q125.875 68.5625 125.0625 69.3672 Q124.25 70.1719 122.875 70.1719 Q121.3906 70.1719 120.5938 69.0625 Q119.7969 67.9531 119.7969 65.9062 Q119.7969 63.6094 120.7422 62.3516 Q121.6875 61.0938 123.4062 61.0938 Q123.875 61.0938 124.3828 61.1797 Q124.8906 61.2656 125.4219 61.4375 L125.4219 62.8906 L124.7656 62.8906 Q124.6875 62.2969 124.3047 61.9844 Q123.9219 61.6719 123.2812 61.6719 Q122.1406 61.6719 121.5859 62.5312 Q121.0312 63.3906 121.0156 65.1875 Z" style="fill:black; stroke:none;" /><rect height="13" style="stroke:none;" width="7" x="104" y="50" /><path d="M105.8281 62.25 Q106.2969 62.5938 107.1719 62.5938 Q108.0625 62.5938 108.5781 62.0703 Q109.0938 61.5469 109.0938 60.6562 Q109.0938 59.4219 108.5625 58.8906 Q108.0156 58.3594 107 58.3594 L106.4375 58.3594 L106.4375 57.7188 L106.7344 57.7188 Q107.4844 57.7188 108 57.2969 Q108.4219 56.9531 108.4219 56.0156 Q108.4219 55.6094 108.1406 55.1406 Q107.6875 54.375 107.1562 54.3906 Q105.8281 54.4375 105.8281 56.7812 L105.8281 62.25 ZM104.75 65.5 L104.75 56.7812 Q104.75 54.3281 106.0781 54 Q106.7656 53.8125 107.25 53.8125 Q108.3438 53.8125 109.0469 54.6719 Q109.6094 55.3594 109.6094 55.9375 Q109.6094 56.7812 109.2031 57.2656 Q108.7969 57.75 108.0625 57.9844 Q109.1406 58.1406 109.75 58.7812 Q110.3281 59.4062 110.3281 60.6328 Q110.3281 61.8594 109.5078 62.5156 Q108.6875 63.1719 107.1406 63.1719 Q106.1875 63.1719 105.8281 63.0312 L105.8281 65.5 L104.75 65.5 Z" style="fill:black; stroke:none;" /></g><g ID="li-1:4,5" style="fill:white; text-rendering:optimizeSpeed; font-family:'Serif'; stroke:white;"><rect height="10" style="stroke:none;" width="7" x="185" y="149" /><path d="M186.1719 150.625 Q186.8594 150.3594 187.4844 150.2266 Q188.1094 150.0938 188.6562 150.0938 Q189.9531 150.0938 190.6719 150.6484 Q191.3906 151.2031 191.3906 152.1875 Q191.3906 152.9688 190.8906 153.5 Q190.3906 154.0312 189.4844 154.2188 Q190.5625 154.375 191.1562 155.0078 Q191.75 155.6406 191.75 156.6406 Q191.75 157.8594 190.9219 158.5156 Q190.0938 159.1719 188.5469 159.1719 Q187.8594 159.1719 187.2109 159.0234 Q186.5625 158.875 185.9219 158.5781 L185.9219 156.875 L186.5781 156.875 Q186.625 157.7188 187.1406 158.1562 Q187.6562 158.5938 188.5781 158.5938 Q189.4688 158.5938 189.9922 158.0703 Q190.5156 157.5469 190.5156 156.6562 Q190.5156 155.625 189.9766 155.0938 Q189.4375 154.5625 188.4062 154.5625 L187.8594 154.5625 L187.8594 153.9531 L188.1406 153.9531 Q189.1719 153.9531 189.6875 153.5312 Q190.2031 153.1094 190.2031 152.25 Q190.2031 151.4844 189.7812 151.0781 Q189.3594 150.6719 188.5625 150.6719 Q187.7656 150.6719 187.3359 151.0469 Q186.9062 151.4219 186.8281 152.1562 L186.1719 152.1562 L186.1719 150.625 Z" style="fill:black; stroke:none;" /><rect height="8" style="stroke:none;" width="8" x="161" y="180" /><path d="M166.1875 186.4688 L165.9531 187.1094 Q165.7656 187.625 165.2031 187.9375 Q164.8438 188.1562 164.2031 188.1406 Q163.0469 188.1406 162.3281 187.2344 Q161.5938 186.3281 161.5938 184.8594 Q161.5938 183.4219 162.3281 182.4844 Q163.0156 181.5938 164.4531 181.6094 Q165.4531 181.6094 165.9531 182 Q166.4062 182.3438 166.5781 183.0938 L166.625 183.3125 L166.8438 182.6719 Q167.0625 182.0469 167.6562 181.75 L168.25 181.75 L168.25 182.0938 Q167.6875 182.2656 167.5 182.8125 L166.8906 184.4844 L167.2969 186.2812 Q167.5 187.2031 167.7344 187.2969 Q168.0469 187.4375 168.7812 187 L168.7812 187.7188 Q167.5938 188.4062 166.75 187.6875 Q166.375 187.3594 166.2656 186.875 L166.1875 186.4688 ZM165.9219 185.3125 L165.5625 183.5938 Q165.2656 182.2188 164.4688 182.2188 Q163.7969 182.2031 163.2812 182.9375 Q162.8594 183.5156 162.8594 184.875 Q162.8594 186.1719 163.2812 186.8281 Q163.75 187.5469 164.5312 187.5 Q165.2031 187.4375 165.6875 186 L165.9219 185.3125 Z" style="fill:black; stroke:none;" /></g><g ID="li-1:4,6" style="fill:white; text-rendering:optimizeSpeed; font-family:'Serif'; stroke:white;"><rect height="10" style="stroke:none;" width="7" x="173" y="114" /><path d="M176.9219 123.5938 Q177.75 123.5938 178.1953 122.9844 Q178.6406 122.375 178.6406 121.2344 Q178.6406 120.1094 178.1953 119.5 Q177.75 118.8906 176.9219 118.8906 Q176.0938 118.8906 175.6484 119.4766 Q175.2031 120.0625 175.2031 121.1719 Q175.2031 122.3281 175.6484 122.9609 Q176.0938 123.5938 176.9219 123.5938 ZM175.0156 119.1875 Q175.4219 118.75 175.9219 118.5312 Q176.4219 118.3125 177.0625 118.3125 Q178.3594 118.3125 179.1172 119.0938 Q179.875 119.875 179.875 121.2344 Q179.875 122.5625 179.0625 123.3672 Q178.25 124.1719 176.875 124.1719 Q175.3906 124.1719 174.5938 123.0625 Q173.7969 121.9531 173.7969 119.9062 Q173.7969 117.6094 174.7422 116.3516 Q175.6875 115.0938 177.4062 115.0938 Q177.875 115.0938 178.3828 115.1797 Q178.8906 115.2656 179.4219 115.4375 L179.4219 116.8906 L178.7656 116.8906 Q178.6875 116.2969 178.3047 115.9844 Q177.9219 115.6719 177.2812 115.6719 Q176.1406 115.6719 175.5859 116.5312 Q175.0312 117.3906 175.0156 119.1875 Z" style="fill:black; stroke:none;" /><rect height="8" style="stroke:none;" width="8" x="148" y="85" /><path d="M153.1875 91.4688 L152.9531 92.1094 Q152.7656 92.625 152.2031 92.9375 Q151.8438 93.1562 151.2031 93.1406 Q150.0469 93.1406 149.3281 92.2344 Q148.5938 91.3281 148.5938 89.8594 Q148.5938 88.4219 149.3281 87.4844 Q150.0156 86.5938 151.4531 86.6094 Q152.4531 86.6094 152.9531 87 Q153.4062 87.3438 153.5781 88.0938 L153.625 88.3125 L153.8438 87.6719 Q154.0625 87.0469 154.6562 86.75 L155.25 86.75 L155.25 87.0938 Q154.6875 87.2656 154.5 87.8125 L153.8906 89.4844 L154.2969 91.2812 Q154.5 92.2031 154.7344 92.2969 Q155.0469 92.4375 155.7812 92 L155.7812 92.7188 Q154.5938 93.4062 153.75 92.6875 Q153.375 92.3594 153.2656 91.875 L153.1875 91.4688 ZM152.9219 90.3125 L152.5625 88.5938 Q152.2656 87.2188 151.4688 87.2188 Q150.7969 87.2031 150.2812 87.9375 Q149.8594 88.5156 149.8594 89.875 Q149.8594 91.1719 150.2812 91.8281 Q150.75 92.5469 151.5312 92.5 Q152.2031 92.4375 152.6875 91 L152.9219 90.3125 Z" style="fill:black; stroke:none;" /></g><g ID="li-1:2,4" style="fill:white; text-rendering:optimizeSpeed; font-family:'Serif'; stroke:white;"><rect height="9" style="stroke:none;" width="8" x="226" y="135" /><path d="M230.1875 141.0312 L230.1875 136.375 L227.2031 141.0312 L230.1875 141.0312 ZM232.7656 144 L228.7812 144 L228.7812 143.375 L230.1875 143.375 L230.1875 141.6562 L226.375 141.6562 L226.375 141.0156 L230.2031 135.0938 L231.3594 135.0938 L231.3594 141.0312 L233.0312 141.0312 L233.0312 141.6562 L231.3594 141.6562 L231.3594 143.375 L232.7656 143.375 L232.7656 144 Z" style="fill:black; stroke:none;" /><rect height="13" style="stroke:none;" width="7" x="212" y="133" /><path d="M213.8281 145.25 Q214.2969 145.5938 215.1719 145.5938 Q216.0625 145.5938 216.5781 145.0703 Q217.0938 144.5469 217.0938 143.6562 Q217.0938 142.4219 216.5625 141.8906 Q216.0156 141.3594 215 141.3594 L214.4375 141.3594 L214.4375 140.7188 L214.7344 140.7188 Q215.4844 140.7188 216 140.2969 Q216.4219 139.9531 216.4219 139.0156 Q216.4219 138.6094 216.1406 138.1406 Q215.6875 137.375 215.1562 137.3906 Q213.8281 137.4375 213.8281 139.7812 L213.8281 145.25 ZM212.75 148.5 L212.75 139.7812 Q212.75 137.3281 214.0781 137 Q214.7656 136.8125 215.25 136.8125 Q216.3438 136.8125 217.0469 137.6719 Q217.6094 138.3594 217.6094 138.9375 Q217.6094 139.7812 217.2031 140.2656 Q216.7969 140.75 216.0625 140.9844 Q217.1406 141.1406 217.75 141.7812 Q218.3281 142.4062 218.3281 143.6328 Q218.3281 144.8594 217.5078 145.5156 Q216.6875 146.1719 215.1406 146.1719 Q214.1875 146.1719 213.8281 146.0312 L213.8281 148.5 L212.75 148.5 Z" style="fill:black; stroke:none;" /></g><g ID="r-1:3" style="fill:white; text-rendering:optimizeSpeed; stroke:white;" wurcs_mono_id="16"><polygon points=" 301 91 290 69 312 69" style="stroke:none; clip-path:url(#clipPath16);" /><rect height="22" style="clip-path:url(#clipPath16); fill:rgb(237,28,36); stroke:none;" width="22" x="290" y="69" /><rect height="22" style="clip-path:url(#clipPath16); fill:none; stroke:black;" width="22" x="290" y="69" /><polygon points=" 301 91 290 69 312 69" style="fill:none; stroke:black;" /></g><g ID="li-1:1,2" style="fill:white; text-rendering:optimizeSpeed; font-family:'Serif'; stroke:white;"><rect height="9" style="stroke:none;" width="8" x="278" y="135" /><path d="M282.1875 141.0312 L282.1875 136.375 L279.2031 141.0312 L282.1875 141.0312 ZM284.7656 144 L280.7812 144 L280.7812 143.375 L282.1875 143.375 L282.1875 141.6562 L278.375 141.6562 L278.375 141.0156 L282.2031 135.0938 L283.3594 135.0938 L283.3594 141.0312 L285.0312 141.0312 L285.0312 141.6562 L283.3594 141.6562 L283.3594 143.375 L284.7656 143.375 L284.7656 144 Z" style="fill:black; stroke:none;" /><rect height="13" style="stroke:none;" width="7" x="264" y="133" /><path d="M265.8281 145.25 Q266.2969 145.5938 267.1719 145.5938 Q268.0625 145.5938 268.5781 145.0703 Q269.0938 144.5469 269.0938 143.6562 Q269.0938 142.4219 268.5625 141.8906 Q268.0156 141.3594 267 141.3594 L266.4375 141.3594 L266.4375 140.7188 L266.7344 140.7188 Q267.4844 140.7188 268 140.2969 Q268.4219 139.9531 268.4219 139.0156 Q268.4219 138.6094 268.1406 138.1406 Q267.6875 137.375 267.1562 137.3906 Q265.8281 137.4375 265.8281 139.7812 L265.8281 145.25 ZM264.75 148.5 L264.75 139.7812 Q264.75 137.3281 266.0781 137 Q266.7656 136.8125 267.25 136.8125 Q268.3438 136.8125 269.0469 137.6719 Q269.6094 138.3594 269.6094 138.9375 Q269.6094 139.7812 269.2031 140.2656 Q268.7969 140.75 268.0625 140.9844 Q269.1406 141.1406 269.75 141.7812 Q270.3281 142.4062 270.3281 143.6328 Q270.3281 144.8594 269.5078 145.5156 Q268.6875 146.1719 267.1406 146.1719 Q266.1875 146.1719 265.8281 146.0312 L265.8281 148.5 L264.75 148.5 Z" style="fill:black; stroke:none;" /></g><g ID="li-1:1,3" style="fill:white; text-rendering:optimizeSpeed; font-family:'Serif'; stroke:white;"><rect height="10" style="stroke:none;" width="7" x="289" y="108" /><path d="M292.9219 117.5938 Q293.75 117.5938 294.1953 116.9844 Q294.6406 116.375 294.6406 115.2344 Q294.6406 114.1094 294.1953 113.5 Q293.75 112.8906 292.9219 112.8906 Q292.0938 112.8906 291.6484 113.4766 Q291.2031 114.0625 291.2031 115.1719 Q291.2031 116.3281 291.6484 116.9609 Q292.0938 117.5938 292.9219 117.5938 ZM291.0156 113.1875 Q291.4219 112.75 291.9219 112.5312 Q292.4219 112.3125 293.0625 112.3125 Q294.3594 112.3125 295.1172 113.0938 Q295.875 113.875 295.875 115.2344 Q295.875 116.5625 295.0625 117.3672 Q294.25 118.1719 292.875 118.1719 Q291.3906 118.1719 290.5938 117.0625 Q289.7969 115.9531 289.7969 113.9062 Q289.7969 111.6094 290.7422 110.3516 Q291.6875 109.0938 293.4062 109.0938 Q293.875 109.0938 294.3828 109.1797 Q294.8906 109.2656 295.4219 109.4375 L295.4219 110.8906 L294.7656 110.8906 Q294.6875 110.2969 294.3047 109.9844 Q293.9219 109.6719 293.2812 109.6719 Q292.1406 109.6719 291.5859 110.5312 Q291.0312 111.3906 291.0156 113.1875 Z" style="fill:black; stroke:none;" /><rect height="8" style="stroke:none;" width="8" x="289" y="95" /><path d="M294.1875 101.4688 L293.9531 102.1094 Q293.7656 102.625 293.2031 102.9375 Q292.8438 103.1562 292.2031 103.1406 Q291.0469 103.1406 290.3281 102.2344 Q289.5938 101.3281 289.5938 99.8594 Q289.5938 98.4219 290.3281 97.4844 Q291.0156 96.5938 292.4531 96.6094 Q293.4531 96.6094 293.9531 97 Q294.4062 97.3438 294.5781 98.0938 L294.625 98.3125 L294.8438 97.6719 Q295.0625 97.0469 295.6562 96.75 L296.25 96.75 L296.25 97.0938 Q295.6875 97.2656 295.5 97.8125 L294.8906 99.4844 L295.2969 101.2812 Q295.5 102.2031 295.7344 102.2969 Q296.0469 102.4375 296.7812 102 L296.7812 102.7188 Q295.5938 103.4062 294.75 102.6875 Q294.375 102.3594 294.2656 101.875 L294.1875 101.4688 ZM293.9219 100.3125 L293.5625 98.5938 Q293.2656 97.2188 292.4688 97.2188 Q291.7969 97.2031 291.2812 97.9375 Q290.8594 98.5156 290.8594 99.875 Q290.8594 101.1719 291.2812 101.8281 Q291.75 102.5469 292.5312 102.5 Q293.2031 102.4375 293.6875 101 L293.9219 100.3125 Z" style="fill:black; stroke:none;" /></g></g></svg>