<svg xmlns="http://www.w3.org/2000/svg" style="fill-opacity:1; color-rendering:auto; color-interpolation:auto; text-rendering:auto; stroke:black; stroke-linecap:square; stroke-miterlimit:10; shape-rendering:auto; stroke-opacity:1; fill:black; stroke-dasharray:none; font-weight:normal; stroke-width:1; font-family:'Dialog'; font-style:normal; stroke-linejoin:miter; font-size:12px; stroke-dashoffset:0; image-rendering:auto;"><defs id="genericDefs" /><g><defs id="defs1"><clipPath clipPathUnits="userSpaceOnUse" id="clipPath1"><path d="M186 108 L208 108 L208 130 L186 130 L186 108 Z" /></clipPath><clipPath clipPathUnits="userSpaceOnUse" id="clipPath2"><path d="M156 197 C156 203.0751 151.0751 208 145 208 C138.9249 208 134 203.0751 134 197 C134 190.9249 138.9249 186 145 186 C151.0751 186 156 190.9249 156 197 Z" /></clipPath><clipPath clipPathUnits="userSpaceOnUse" id="clipPath3"><path d="M82 186 L104 186 L104 208 L82 208 L82 186 Z" /></clipPath><clipPath clipPathUnits="userSpaceOnUse" id="clipPath4"><path d="M52 197 C52 203.0751 47.0751 208 41 208 C34.9249 208 30 203.0751 30 197 C30 190.9249 34.9249 186 41 186 C47.0751 186 52 190.9249 52 197 Z" /></clipPath><clipPath clipPathUnits="userSpaceOnUse" id="clipPath5"><path d="M41 238 L52 260 L30 260 Z" style="fill-rule:evenodd;" /></clipPath><clipPath clipPathUnits="userSpaceOnUse" id="clipPath6"><path d="M93 156 L82 134 L104 134 Z" style="fill-rule:evenodd;" /></clipPath><clipPath clipPathUnits="userSpaceOnUse" id="clipPath7"><path d="M134 30 L156 30 L156 52 L134 52 L134 30 Z" /></clipPath><clipPath clipPathUnits="userSpaceOnUse" id="clipPath8"><path d="M145 82 L156 104 L134 104 Z" style="fill-rule:evenodd;" /></clipPath><clipPath clipPathUnits="userSpaceOnUse" id="clipPath9"><path d="M104 41 C104 47.0751 99.0751 52 93 52 C86.9249 52 82 47.0751 82 41 C82 34.9249 86.9249 30 93 30 C99.0751 30 104 34.9249 104 41 Z" /></clipPath><clipPath clipPathUnits="userSpaceOnUse" id="clipPath10"><path d="M93 82 L104 104 L82 104 Z" style="fill-rule:evenodd;" /></clipPath></defs><g style="fill:white; text-rendering:optimizeSpeed; stroke:white;"><rect height="290" style="stroke:none;" width="238" x="0" y="0" /></g><g ID="l-1:1,2" style="text-rendering:optimizeSpeed;"><polygon points=" 197 119 145 197" style="fill:none;" /></g><g ID="l-1:1,3" style="text-rendering:optimizeSpeed;"><polygon points=" 197 119 145 41" style="fill:none;" /></g><g ID="r-1:1" style="fill:white; text-rendering:optimizeSpeed; stroke:white;" wurcs_mono_id="1"><rect height="22" style="clip-path:url(#clipPath1); stroke:none;" width="22" x="186" y="108" /><rect height="22" style="clip-path:url(#clipPath1); fill:rgb(255,212,0); stroke:none;" width="22" x="186" y="108" /><rect height="22" style="clip-path:url(#clipPath1); fill:none; stroke:black;" width="22" x="186" y="108" /><rect height="22" style="fill:none; stroke:black;" width="22" x="186" y="108" /></g><g style="font-style:italic; text-rendering:optimizeSpeed; font-size:10px; font-family:'SansSerif';"><path d="M198.0938 116.1562 Q197.375 116.1562 196.8359 116.7188 Q196.2969 117.2812 196.0781 118.2656 Q195.875 119.25 196.1719 119.8125 Q196.4688 120.375 197.2031 120.375 Q197.9219 120.375 198.4609 119.8125 Q199 119.25 199.2031 118.2656 Q199.4062 117.2969 199.1094 116.7266 Q198.8125 116.1562 198.0938 116.1562 ZM198.25 115.4062 Q199.4219 115.4062 199.9297 116.1641 Q200.4375 116.9219 200.1562 118.2656 Q199.875 119.6094 199.0391 120.375 Q198.2031 121.1406 197.0312 121.1406 Q195.8594 121.1406 195.3516 120.375 Q194.8438 119.6094 195.125 118.2656 Q195.4062 116.9219 196.2422 116.1641 Q197.0781 115.4062 198.25 115.4062 Z" style="stroke:none;" /></g><g ID="l-1:2,4" style="text-rendering:optimizeSpeed;"><polygon points=" 145 197 93 197" style="fill:none;" /></g><g ID="r-1:2" style="fill:white; text-rendering:optimizeSpeed; stroke:white;" wurcs_mono_id="2"><circle cx="145" cy="197" r="11" style="clip-path:url(#clipPath2); stroke:none;" /><rect height="22" style="clip-path:url(#clipPath2); fill:rgb(255,212,0); stroke:none;" width="22" x="134" y="186" /><rect height="22" style="clip-path:url(#clipPath2); fill:none; stroke:black;" width="22" x="134" y="186" /><circle cx="145" cy="197" r="11" style="fill:none; stroke:black;" /></g><g ID="l-1:4,5" style="text-rendering:optimizeSpeed;"><polygon points=" 93 197 41 197" style="fill:none;" /></g><g ID="l-1:4,6" style="text-rendering:optimizeSpeed;"><polygon points=" 93 197 93 145" style="fill:none;" /></g><g ID="r-1:4" style="fill:white; text-rendering:optimizeSpeed; stroke:white;" wurcs_mono_id="3"><rect height="22" style="clip-path:url(#clipPath3); stroke:none;" width="22" x="82" y="186" /><rect height="22" style="clip-path:url(#clipPath3); fill:rgb(0,144,188); stroke:none;" width="22" x="82" y="186" /><rect height="22" style="clip-path:url(#clipPath3); fill:none; stroke:black;" width="22" x="82" y="186" /><rect height="22" style="fill:none; stroke:black;" width="22" x="82" y="186" /></g><g ID="l-1:5,7" style="text-rendering:optimizeSpeed;"><polygon points=" 41 197 41 249" style="fill:none;" /></g><g ID="r-1:5" style="fill:white; text-rendering:optimizeSpeed; stroke:white;" wurcs_mono_id="4"><circle cx="41" cy="197" r="11" style="clip-path:url(#clipPath4); stroke:none;" /><rect height="22" style="clip-path:url(#clipPath4); fill:rgb(255,212,0); stroke:none;" width="22" x="30" y="186" /><rect height="22" style="clip-path:url(#clipPath4); fill:none; stroke:black;" width="22" x="30" y="186" /><circle cx="41" cy="197" r="11" style="fill:none; stroke:black;" /></g><g ID="r-1:7" style="fill:white; text-rendering:optimizeSpeed; stroke:white;" wurcs_mono_id="5"><polygon points=" 41 238 52 260 30 260" style="stroke:none; clip-path:url(#clipPath5);" /><rect height="22" style="clip-path:url(#clipPath5); fill:rgb(237,28,36); stroke:none;" width="22" x="30" y="238" /><rect height="22" style="clip-path:url(#clipPath5); fill:none; stroke:black;" width="22" x="30" y="238" /><polygon points=" 41 238 52 260 30 260" style="fill:none; stroke:black;" /></g><g ID="li-1:5,7" style="fill:white; text-rendering:optimizeSpeed; font-family:'Serif'; stroke:white;"><rect height="9" style="stroke:none;" width="7" x="45" y="211" /><path d="M46.5312 213.3438 L45.875 213.3438 L45.875 211.7812 Q46.5 211.4375 47.1406 211.2656 Q47.7812 211.0938 48.3906 211.0938 Q49.75 211.0938 50.5391 211.7578 Q51.3281 212.4219 51.3281 213.5469 Q51.3281 214.8438 49.5469 216.625 Q49.4062 216.7656 49.3281 216.8281 L47.125 219.0312 L50.7656 219.0312 L50.7656 217.9531 L51.4531 217.9531 L51.4531 220 L45.8125 220 L45.8125 219.3594 L48.4688 216.7188 Q49.3438 215.8281 49.7188 215.0938 Q50.0938 214.3594 50.0938 213.5469 Q50.0938 212.6719 49.6328 212.1719 Q49.1719 211.6719 48.375 211.6719 Q47.5312 211.6719 47.0781 212.0859 Q46.625 212.5 46.5312 213.3438 Z" style="fill:black; stroke:none;" /><rect height="8" style="stroke:none;" width="8" x="45" y="226" /><path d="M50.1875 232.4688 L49.9531 233.1094 Q49.7656 233.625 49.2031 233.9375 Q48.8438 234.1562 48.2031 234.1406 Q47.0469 234.1406 46.3281 233.2344 Q45.5938 232.3281 45.5938 230.8594 Q45.5938 229.4219 46.3281 228.4844 Q47.0156 227.5938 48.4531 227.6094 Q49.4531 227.6094 49.9531 228 Q50.4062 228.3438 50.5781 229.0938 L50.625 229.3125 L50.8438 228.6719 Q51.0625 228.0469 51.6562 227.75 L52.25 227.75 L52.25 228.0938 Q51.6875 228.2656 51.5 228.8125 L50.8906 230.4844 L51.2969 232.2812 Q51.5 233.2031 51.7344 233.2969 Q52.0469 233.4375 52.7812 233 L52.7812 233.7188 Q51.5938 234.4062 50.75 233.6875 Q50.375 233.3594 50.2656 232.875 L50.1875 232.4688 ZM49.9219 231.3125 L49.5625 229.5938 Q49.2656 228.2188 48.4688 228.2188 Q47.7969 228.2031 47.2812 228.9375 Q46.8594 229.5156 46.8594 230.875 Q46.8594 232.1719 47.2812 232.8281 Q47.75 233.5469 48.5312 233.5 Q49.2031 233.4375 49.6875 232 L49.9219 231.3125 Z" style="fill:black; stroke:none;" /></g><g ID="r-1:6" style="fill:white; text-rendering:optimizeSpeed; stroke:white;" wurcs_mono_id="6"><polygon points=" 93 156 82 134 104 134" style="stroke:none; clip-path:url(#clipPath6);" /><rect height="22" style="clip-path:url(#clipPath6); fill:rgb(237,28,36); stroke:none;" width="22" x="82" y="134" /><rect height="22" style="clip-path:url(#clipPath6); fill:none; stroke:black;" width="22" x="82" y="134" /><polygon points=" 93 156 82 134 104 134" style="fill:none; stroke:black;" /></g><g ID="li-1:4,5" style="fill:white; text-rendering:optimizeSpeed; font-family:'Serif'; stroke:white;"><rect height="10" style="stroke:none;" width="7" x="70" y="200" /><path d="M71.1719 201.625 Q71.8594 201.3594 72.4844 201.2266 Q73.1094 201.0938 73.6562 201.0938 Q74.9531 201.0938 75.6719 201.6484 Q76.3906 202.2031 76.3906 203.1875 Q76.3906 203.9688 75.8906 204.5 Q75.3906 205.0312 74.4844 205.2188 Q75.5625 205.375 76.1562 206.0078 Q76.75 206.6406 76.75 207.6406 Q76.75 208.8594 75.9219 209.5156 Q75.0938 210.1719 73.5469 210.1719 Q72.8594 210.1719 72.2109 210.0234 Q71.5625 209.875 70.9219 209.5781 L70.9219 207.875 L71.5781 207.875 Q71.625 208.7188 72.1406 209.1562 Q72.6562 209.5938 73.5781 209.5938 Q74.4688 209.5938 74.9922 209.0703 Q75.5156 208.5469 75.5156 207.6562 Q75.5156 206.625 74.9766 206.0938 Q74.4375 205.5625 73.4062 205.5625 L72.8594 205.5625 L72.8594 204.9531 L73.1406 204.9531 Q74.1719 204.9531 74.6875 204.5312 Q75.2031 204.1094 75.2031 203.25 Q75.2031 202.4844 74.7812 202.0781 Q74.3594 201.6719 73.5625 201.6719 Q72.7656 201.6719 72.3359 202.0469 Q71.9062 202.4219 71.8281 203.1562 L71.1719 203.1562 L71.1719 201.625 Z" style="fill:black; stroke:none;" /><rect height="13" style="stroke:none;" width="7" x="56" y="198" /><path d="M57.8281 210.25 Q58.2969 210.5938 59.1719 210.5938 Q60.0625 210.5938 60.5781 210.0703 Q61.0938 209.5469 61.0938 208.6562 Q61.0938 207.4219 60.5625 206.8906 Q60.0156 206.3594 59 206.3594 L58.4375 206.3594 L58.4375 205.7188 L58.7344 205.7188 Q59.4844 205.7188 60 205.2969 Q60.4219 204.9531 60.4219 204.0156 Q60.4219 203.6094 60.1406 203.1406 Q59.6875 202.375 59.1562 202.3906 Q57.8281 202.4375 57.8281 204.7812 L57.8281 210.25 ZM56.75 213.5 L56.75 204.7812 Q56.75 202.3281 58.0781 202 Q58.7656 201.8125 59.25 201.8125 Q60.3438 201.8125 61.0469 202.6719 Q61.6094 203.3594 61.6094 203.9375 Q61.6094 204.7812 61.2031 205.2656 Q60.7969 205.75 60.0625 205.9844 Q61.1406 206.1406 61.75 206.7812 Q62.3281 207.4062 62.3281 208.6328 Q62.3281 209.8594 61.5078 210.5156 Q60.6875 211.1719 59.1406 211.1719 Q58.1875 211.1719 57.8281 211.0312 L57.8281 213.5 L56.75 213.5 Z" style="fill:black; stroke:none;" /></g><g ID="li-1:4,6" style="fill:white; text-rendering:optimizeSpeed; font-family:'Serif'; stroke:white;"><rect height="9" style="stroke:none;" width="8" x="81" y="173" /><path d="M85.1875 179.0312 L85.1875 174.375 L82.2031 179.0312 L85.1875 179.0312 ZM87.7656 182 L83.7812 182 L83.7812 181.375 L85.1875 181.375 L85.1875 179.6562 L81.375 179.6562 L81.375 179.0156 L85.2031 173.0938 L86.3594 173.0938 L86.3594 179.0312 L88.0312 179.0312 L88.0312 179.6562 L86.3594 179.6562 L86.3594 181.375 L87.7656 181.375 L87.7656 182 Z" style="fill:black; stroke:none;" /><rect height="8" style="stroke:none;" width="8" x="81" y="160" /><path d="M86.1875 166.4688 L85.9531 167.1094 Q85.7656 167.625 85.2031 167.9375 Q84.8438 168.1562 84.2031 168.1406 Q83.0469 168.1406 82.3281 167.2344 Q81.5938 166.3281 81.5938 164.8594 Q81.5938 163.4219 82.3281 162.4844 Q83.0156 161.5938 84.4531 161.6094 Q85.4531 161.6094 85.9531 162 Q86.4062 162.3438 86.5781 163.0938 L86.625 163.3125 L86.8438 162.6719 Q87.0625 162.0469 87.6562 161.75 L88.25 161.75 L88.25 162.0938 Q87.6875 162.2656 87.5 162.8125 L86.8906 164.4844 L87.2969 166.2812 Q87.5 167.2031 87.7344 167.2969 Q88.0469 167.4375 88.7812 167 L88.7812 167.7188 Q87.5938 168.4062 86.75 167.6875 Q86.375 167.3594 86.2656 166.875 L86.1875 166.4688 ZM85.9219 165.3125 L85.5625 163.5938 Q85.2656 162.2188 84.4688 162.2188 Q83.7969 162.2031 83.2812 162.9375 Q82.8594 163.5156 82.8594 164.875 Q82.8594 166.1719 83.2812 166.8281 Q83.75 167.5469 84.5312 167.5 Q85.2031 167.4375 85.6875 166 L85.9219 165.3125 Z" style="fill:black; stroke:none;" /></g><g ID="li-1:2,4" style="fill:white; text-rendering:optimizeSpeed; font-family:'Serif'; stroke:white;"><rect height="10" style="stroke:none;" width="7" x="122" y="200" /><path d="M123.1719 201.625 Q123.8594 201.3594 124.4844 201.2266 Q125.1094 201.0938 125.6562 201.0938 Q126.9531 201.0938 127.6719 201.6484 Q128.3906 202.2031 128.3906 203.1875 Q128.3906 203.9688 127.8906 204.5 Q127.3906 205.0312 126.4844 205.2188 Q127.5625 205.375 128.1562 206.0078 Q128.75 206.6406 128.75 207.6406 Q128.75 208.8594 127.9219 209.5156 Q127.0938 210.1719 125.5469 210.1719 Q124.8594 210.1719 124.2109 210.0234 Q123.5625 209.875 122.9219 209.5781 L122.9219 207.875 L123.5781 207.875 Q123.625 208.7188 124.1406 209.1562 Q124.6562 209.5938 125.5781 209.5938 Q126.4688 209.5938 126.9922 209.0703 Q127.5156 208.5469 127.5156 207.6562 Q127.5156 206.625 126.9766 206.0938 Q126.4375 205.5625 125.4062 205.5625 L124.8594 205.5625 L124.8594 204.9531 L125.1406 204.9531 Q126.1719 204.9531 126.6875 204.5312 Q127.2031 204.1094 127.2031 203.25 Q127.2031 202.4844 126.7812 202.0781 Q126.3594 201.6719 125.5625 201.6719 Q124.7656 201.6719 124.3359 202.0469 Q123.9062 202.4219 123.8281 203.1562 L123.1719 203.1562 L123.1719 201.625 Z" style="fill:black; stroke:none;" /><rect height="13" style="stroke:none;" width="7" x="108" y="198" /><path d="M109.8281 210.25 Q110.2969 210.5938 111.1719 210.5938 Q112.0625 210.5938 112.5781 210.0703 Q113.0938 209.5469 113.0938 208.6562 Q113.0938 207.4219 112.5625 206.8906 Q112.0156 206.3594 111 206.3594 L110.4375 206.3594 L110.4375 205.7188 L110.7344 205.7188 Q111.4844 205.7188 112 205.2969 Q112.4219 204.9531 112.4219 204.0156 Q112.4219 203.6094 112.1406 203.1406 Q111.6875 202.375 111.1562 202.3906 Q109.8281 202.4375 109.8281 204.7812 L109.8281 210.25 ZM108.75 213.5 L108.75 204.7812 Q108.75 202.3281 110.0781 202 Q110.7656 201.8125 111.25 201.8125 Q112.3438 201.8125 113.0469 202.6719 Q113.6094 203.3594 113.6094 203.9375 Q113.6094 204.7812 113.2031 205.2656 Q112.7969 205.75 112.0625 205.9844 Q113.1406 206.1406 113.75 206.7812 Q114.3281 207.4062 114.3281 208.6328 Q114.3281 209.8594 113.5078 210.5156 Q112.6875 211.1719 111.1406 211.1719 Q110.1875 211.1719 109.8281 211.0312 L109.8281 213.5 L108.75 213.5 Z" style="fill:black; stroke:none;" /></g><g ID="l-1:3,8" style="text-rendering:optimizeSpeed;"><polygon points=" 145 41 145 93" style="fill:none;" /></g><g ID="l-1:3,9" style="text-rendering:optimizeSpeed;"><polygon points=" 145 41 93 41" style="fill:none;" /></g><g ID="r-1:3" style="fill:white; text-rendering:optimizeSpeed; stroke:white;" wurcs_mono_id="7"><rect height="22" style="clip-path:url(#clipPath7); stroke:none;" width="22" x="134" y="30" /><rect height="22" style="clip-path:url(#clipPath7); fill:rgb(0,144,188); stroke:none;" width="22" x="134" y="30" /><rect height="22" style="clip-path:url(#clipPath7); fill:none; stroke:black;" width="22" x="134" y="30" /><rect height="22" style="fill:none; stroke:black;" width="22" x="134" y="30" /></g><g ID="r-1:8" style="fill:white; text-rendering:optimizeSpeed; stroke:white;" wurcs_mono_id="8"><polygon points=" 145 82 156 104 134 104" style="stroke:none; clip-path:url(#clipPath8);" /><rect height="22" style="clip-path:url(#clipPath8); fill:rgb(237,28,36); stroke:none;" width="22" x="134" y="82" /><rect height="22" style="clip-path:url(#clipPath8); fill:none; stroke:black;" width="22" x="134" y="82" /><polygon points=" 145 82 156 104 134 104" style="fill:none; stroke:black;" /></g><g ID="l-1:9,10" style="text-rendering:optimizeSpeed;"><polygon points=" 93 41 93 93" style="fill:none;" /></g><g ID="r-1:9" style="fill:white; text-rendering:optimizeSpeed; stroke:white;" wurcs_mono_id="9"><circle cx="93" cy="41" r="11" style="clip-path:url(#clipPath9); stroke:none;" /><rect height="22" style="clip-path:url(#clipPath9); fill:rgb(255,212,0); stroke:none;" width="22" x="82" y="30" /><rect height="22" style="clip-path:url(#clipPath9); fill:none; stroke:black;" width="22" x="82" y="30" /><circle cx="93" cy="41" r="11" style="fill:none; stroke:black;" /></g><g ID="r-1:10" style="fill:white; text-rendering:optimizeSpeed; stroke:white;" wurcs_mono_id="10"><polygon points=" 93 82 104 104 82 104" style="stroke:none; clip-path:url(#clipPath10);" /><rect height="22" style="clip-path:url(#clipPath10); fill:rgb(237,28,36); stroke:none;" width="22" x="82" y="82" /><rect height="22" style="clip-path:url(#clipPath10); fill:none; stroke:black;" width="22" x="82" y="82" /><polygon points=" 93 82 104 104 82 104" style="fill:none; stroke:black;" /></g><g ID="li-1:9,10" style="fill:white; text-rendering:optimizeSpeed; font-family:'Serif'; stroke:white;"><rect height="9" style="stroke:none;" width="7" x="97" y="55" /><path d="M98.5312 57.3438 L97.875 57.3438 L97.875 55.7812 Q98.5 55.4375 99.1406 55.2656 Q99.7812 55.0938 100.3906 55.0938 Q101.75 55.0938 102.5391 55.7578 Q103.3281 56.4219 103.3281 57.5469 Q103.3281 58.8438 101.5469 60.625 Q101.4062 60.7656 101.3281 60.8281 L99.125 63.0312 L102.7656 63.0312 L102.7656 61.9531 L103.4531 61.9531 L103.4531 64 L97.8125 64 L97.8125 63.3594 L100.4688 60.7188 Q101.3438 59.8281 101.7188 59.0938 Q102.0938 58.3594 102.0938 57.5469 Q102.0938 56.6719 101.6328 56.1719 Q101.1719 55.6719 100.375 55.6719 Q99.5312 55.6719 99.0781 56.0859 Q98.625 56.5 98.5312 57.3438 Z" style="fill:black; stroke:none;" /><rect height="8" style="stroke:none;" width="8" x="97" y="70" /><path d="M102.1875 76.4688 L101.9531 77.1094 Q101.7656 77.625 101.2031 77.9375 Q100.8438 78.1562 100.2031 78.1406 Q99.0469 78.1406 98.3281 77.2344 Q97.5938 76.3281 97.5938 74.8594 Q97.5938 73.4219 98.3281 72.4844 Q99.0156 71.5938 100.4531 71.6094 Q101.4531 71.6094 101.9531 72 Q102.4062 72.3438 102.5781 73.0938 L102.625 73.3125 L102.8438 72.6719 Q103.0625 72.0469 103.6562 71.75 L104.25 71.75 L104.25 72.0938 Q103.6875 72.2656 103.5 72.8125 L102.8906 74.4844 L103.2969 76.2812 Q103.5 77.2031 103.7344 77.2969 Q104.0469 77.4375 104.7812 77 L104.7812 77.7188 Q103.5938 78.4062 102.75 77.6875 Q102.375 77.3594 102.2656 76.875 L102.1875 76.4688 ZM101.9219 75.3125 L101.5625 73.5938 Q101.2656 72.2188 100.4688 72.2188 Q99.7969 72.2031 99.2812 72.9375 Q98.8594 73.5156 98.8594 74.875 Q98.8594 76.1719 99.2812 76.8281 Q99.75 77.5469 100.5312 77.5 Q101.2031 77.4375 101.6875 76 L101.9219 75.3125 Z" style="fill:black; stroke:none;" /></g><g ID="li-1:3,8" style="fill:white; text-rendering:optimizeSpeed; font-family:'Serif'; stroke:white;"><rect height="10" style="stroke:none;" width="7" x="149" y="55" /><path d="M150.1719 56.625 Q150.8594 56.3594 151.4844 56.2266 Q152.1094 56.0938 152.6562 56.0938 Q153.9531 56.0938 154.6719 56.6484 Q155.3906 57.2031 155.3906 58.1875 Q155.3906 58.9688 154.8906 59.5 Q154.3906 60.0312 153.4844 60.2188 Q154.5625 60.375 155.1562 61.0078 Q155.75 61.6406 155.75 62.6406 Q155.75 63.8594 154.9219 64.5156 Q154.0938 65.1719 152.5469 65.1719 Q151.8594 65.1719 151.2109 65.0234 Q150.5625 64.875 149.9219 64.5781 L149.9219 62.875 L150.5781 62.875 Q150.625 63.7188 151.1406 64.1562 Q151.6562 64.5938 152.5781 64.5938 Q153.4688 64.5938 153.9922 64.0703 Q154.5156 63.5469 154.5156 62.6562 Q154.5156 61.625 153.9766 61.0938 Q153.4375 60.5625 152.4062 60.5625 L151.8594 60.5625 L151.8594 59.9531 L152.1406 59.9531 Q153.1719 59.9531 153.6875 59.5312 Q154.2031 59.1094 154.2031 58.25 Q154.2031 57.4844 153.7812 57.0781 Q153.3594 56.6719 152.5625 56.6719 Q151.7656 56.6719 151.3359 57.0469 Q150.9062 57.4219 150.8281 58.1562 L150.1719 58.1562 L150.1719 56.625 Z" style="fill:black; stroke:none;" /><rect height="8" style="stroke:none;" width="8" x="149" y="70" /><path d="M154.1875 76.4688 L153.9531 77.1094 Q153.7656 77.625 153.2031 77.9375 Q152.8438 78.1562 152.2031 78.1406 Q151.0469 78.1406 150.3281 77.2344 Q149.5938 76.3281 149.5938 74.8594 Q149.5938 73.4219 150.3281 72.4844 Q151.0156 71.5938 152.4531 71.6094 Q153.4531 71.6094 153.9531 72 Q154.4062 72.3438 154.5781 73.0938 L154.625 73.3125 L154.8438 72.6719 Q155.0625 72.0469 155.6562 71.75 L156.25 71.75 L156.25 72.0938 Q155.6875 72.2656 155.5 72.8125 L154.8906 74.4844 L155.2969 76.2812 Q155.5 77.2031 155.7344 77.2969 Q156.0469 77.4375 156.7812 77 L156.7812 77.7188 Q155.5938 78.4062 154.75 77.6875 Q154.375 77.3594 154.2656 76.875 L154.1875 76.4688 ZM153.9219 75.3125 L153.5625 73.5938 Q153.2656 72.2188 152.4688 72.2188 Q151.7969 72.2031 151.2812 72.9375 Q150.8594 73.5156 150.8594 74.875 Q150.8594 76.1719 151.2812 76.8281 Q151.75 77.5469 152.5312 77.5 Q153.2031 77.4375 153.6875 76 L153.9219 75.3125 Z" style="fill:black; stroke:none;" /></g><g ID="li-1:3,9" style="fill:white; text-rendering:optimizeSpeed; font-family:'Serif'; stroke:white;"><rect height="9" style="stroke:none;" width="8" x="122" y="44" /><path d="M126.1875 50.0312 L126.1875 45.375 L123.2031 50.0312 L126.1875 50.0312 ZM128.7656 53 L124.7812 53 L124.7812 52.375 L126.1875 52.375 L126.1875 50.6562 L122.375 50.6562 L122.375 50.0156 L126.2031 44.0938 L127.3594 44.0938 L127.3594 50.0312 L129.0312 50.0312 L129.0312 50.6562 L127.3594 50.6562 L127.3594 52.375 L128.7656 52.375 L128.7656 53 Z" style="fill:black; stroke:none;" /><rect height="13" style="stroke:none;" width="7" x="108" y="42" /><path d="M109.8281 54.25 Q110.2969 54.5938 111.1719 54.5938 Q112.0625 54.5938 112.5781 54.0703 Q113.0938 53.5469 113.0938 52.6562 Q113.0938 51.4219 112.5625 50.8906 Q112.0156 50.3594 111 50.3594 L110.4375 50.3594 L110.4375 49.7188 L110.7344 49.7188 Q111.4844 49.7188 112 49.2969 Q112.4219 48.9531 112.4219 48.0156 Q112.4219 47.6094 112.1406 47.1406 Q111.6875 46.375 111.1562 46.3906 Q109.8281 46.4375 109.8281 48.7812 L109.8281 54.25 ZM108.75 57.5 L108.75 48.7812 Q108.75 46.3281 110.0781 46 Q110.7656 45.8125 111.25 45.8125 Q112.3438 45.8125 113.0469 46.6719 Q113.6094 47.3594 113.6094 47.9375 Q113.6094 48.7812 113.2031 49.2656 Q112.7969 49.75 112.0625 49.9844 Q113.1406 50.1406 113.75 50.7812 Q114.3281 51.4062 114.3281 52.6328 Q114.3281 53.8594 113.5078 54.5156 Q112.6875 55.1719 111.1406 55.1719 Q110.1875 55.1719 109.8281 55.0312 L109.8281 57.5 L108.75 57.5 Z" style="fill:black; stroke:none;" /></g><g ID="li-1:1,2" style="fill:white; text-rendering:optimizeSpeed; font-family:'Serif'; stroke:white;"><rect height="10" style="stroke:none;" width="7" x="188" y="136" /><path d="M189.1719 137.625 Q189.8594 137.3594 190.4844 137.2266 Q191.1094 137.0938 191.6562 137.0938 Q192.9531 137.0938 193.6719 137.6484 Q194.3906 138.2031 194.3906 139.1875 Q194.3906 139.9688 193.8906 140.5 Q193.3906 141.0312 192.4844 141.2188 Q193.5625 141.375 194.1562 142.0078 Q194.75 142.6406 194.75 143.6406 Q194.75 144.8594 193.9219 145.5156 Q193.0938 146.1719 191.5469 146.1719 Q190.8594 146.1719 190.2109 146.0234 Q189.5625 145.875 188.9219 145.5781 L188.9219 143.875 L189.5781 143.875 Q189.625 144.7188 190.1406 145.1562 Q190.6562 145.5938 191.5781 145.5938 Q192.4688 145.5938 192.9922 145.0703 Q193.5156 144.5469 193.5156 143.6562 Q193.5156 142.625 192.9766 142.0938 Q192.4375 141.5625 191.4062 141.5625 L190.8594 141.5625 L190.8594 140.9531 L191.1406 140.9531 Q192.1719 140.9531 192.6875 140.5312 Q193.2031 140.1094 193.2031 139.25 Q193.2031 138.4844 192.7812 138.0781 Q192.3594 137.6719 191.5625 137.6719 Q190.7656 137.6719 190.3359 138.0469 Q189.9062 138.4219 189.8281 139.1562 L189.1719 139.1562 L189.1719 137.625 Z" style="fill:black; stroke:none;" /><rect height="13" style="stroke:none;" width="7" x="159" y="177" /><path d="M160.8281 189.25 Q161.2969 189.5938 162.1719 189.5938 Q163.0625 189.5938 163.5781 189.0703 Q164.0938 188.5469 164.0938 187.6562 Q164.0938 186.4219 163.5625 185.8906 Q163.0156 185.3594 162 185.3594 L161.4375 185.3594 L161.4375 184.7188 L161.7344 184.7188 Q162.4844 184.7188 163 184.2969 Q163.4219 183.9531 163.4219 183.0156 Q163.4219 182.6094 163.1406 182.1406 Q162.6875 181.375 162.1562 181.3906 Q160.8281 181.4375 160.8281 183.7812 L160.8281 189.25 ZM159.75 192.5 L159.75 183.7812 Q159.75 181.3281 161.0781 181 Q161.7656 180.8125 162.25 180.8125 Q163.3438 180.8125 164.0469 181.6719 Q164.6094 182.3594 164.6094 182.9375 Q164.6094 183.7812 164.2031 184.2656 Q163.7969 184.75 163.0625 184.9844 Q164.1406 185.1406 164.75 185.7812 Q165.3281 186.4062 165.3281 187.6328 Q165.3281 188.8594 164.5078 189.5156 Q163.6875 190.1719 162.1406 190.1719 Q161.1875 190.1719 160.8281 190.0312 L160.8281 192.5 L159.75 192.5 Z" style="fill:black; stroke:none;" /></g><g ID="li-1:1,3" style="fill:white; text-rendering:optimizeSpeed; font-family:'Serif'; stroke:white;"><rect height="10" style="stroke:none;" width="7" x="175" y="100" /><path d="M178.9219 109.5938 Q179.75 109.5938 180.1953 108.9844 Q180.6406 108.375 180.6406 107.2344 Q180.6406 106.1094 180.1953 105.5 Q179.75 104.8906 178.9219 104.8906 Q178.0938 104.8906 177.6484 105.4766 Q177.2031 106.0625 177.2031 107.1719 Q177.2031 108.3281 177.6484 108.9609 Q178.0938 109.5938 178.9219 109.5938 ZM177.0156 105.1875 Q177.4219 104.75 177.9219 104.5312 Q178.4219 104.3125 179.0625 104.3125 Q180.3594 104.3125 181.1172 105.0938 Q181.875 105.875 181.875 107.2344 Q181.875 108.5625 181.0625 109.3672 Q180.25 110.1719 178.875 110.1719 Q177.3906 110.1719 176.5938 109.0625 Q175.7969 107.9531 175.7969 105.9062 Q175.7969 103.6094 176.7422 102.3516 Q177.6875 101.0938 179.4062 101.0938 Q179.875 101.0938 180.3828 101.1797 Q180.8906 101.2656 181.4219 101.4375 L181.4219 102.8906 L180.7656 102.8906 Q180.6875 102.2969 180.3047 101.9844 Q179.9219 101.6719 179.2812 101.6719 Q178.1406 101.6719 177.5859 102.5312 Q177.0312 103.3906 177.0156 105.1875 Z" style="fill:black; stroke:none;" /><rect height="13" style="stroke:none;" width="7" x="146" y="56" /><path d="M147.8281 68.25 Q148.2969 68.5938 149.1719 68.5938 Q150.0625 68.5938 150.5781 68.0703 Q151.0938 67.5469 151.0938 66.6562 Q151.0938 65.4219 150.5625 64.8906 Q150.0156 64.3594 149 64.3594 L148.4375 64.3594 L148.4375 63.7188 L148.7344 63.7188 Q149.4844 63.7188 150 63.2969 Q150.4219 62.9531 150.4219 62.0156 Q150.4219 61.6094 150.1406 61.1406 Q149.6875 60.375 149.1562 60.3906 Q147.8281 60.4375 147.8281 62.7812 L147.8281 68.25 ZM146.75 71.5 L146.75 62.7812 Q146.75 60.3281 148.0781 60 Q148.7656 59.8125 149.25 59.8125 Q150.3438 59.8125 151.0469 60.6719 Q151.6094 61.3594 151.6094 61.9375 Q151.6094 62.7812 151.2031 63.2656 Q150.7969 63.75 150.0625 63.9844 Q151.1406 64.1406 151.75 64.7812 Q152.3281 65.4062 152.3281 66.6328 Q152.3281 67.8594 151.5078 68.5156 Q150.6875 69.1719 149.1406 69.1719 Q148.1875 69.1719 147.8281 69.0312 L147.8281 71.5 L146.75 71.5 Z" style="fill:black; stroke:none;" /></g></g></svg>