<svg xmlns="http://www.w3.org/2000/svg" style="fill-opacity:1; color-rendering:auto; color-interpolation:auto; text-rendering:auto; stroke:black; stroke-linecap:square; stroke-miterlimit:10; shape-rendering:auto; stroke-opacity:1; fill:black; stroke-dasharray:none; font-weight:normal; stroke-width:1; font-family:'Dialog'; font-style:normal; stroke-linejoin:miter; font-size:12px; stroke-dashoffset:0; image-rendering:auto;"><defs id="genericDefs" /><g><defs id="defs1"><clipPath clipPathUnits="userSpaceOnUse" id="clipPath1"><path d="M364 67 C364 73.0751 359.0751 78 353 78 C346.9249 78 342 73.0751 342 67 C342 60.9249 346.9249 56 353 56 C359.0751 56 364 60.9249 364 67 Z" /></clipPath><clipPath clipPathUnits="userSpaceOnUse" id="clipPath2"><path d="M312 67 C312 73.0751 307.0751 78 301 78 C294.9249 78 290 73.0751 290 67 C290 60.9249 294.9249 56 301 56 C307.0751 56 312 60.9249 312 67 Z" /></clipPath><clipPath clipPathUnits="userSpaceOnUse" id="clipPath3"><path d="M249 82 L260 93 L249 104 L238 93 Z" style="fill-rule:evenodd;" /></clipPath><clipPath clipPathUnits="userSpaceOnUse" id="clipPath4"><path d="M197 82 L208 93 L197 104 L186 93 Z" style="fill-rule:evenodd;" /></clipPath><clipPath clipPathUnits="userSpaceOnUse" id="clipPath5"><path d="M238 30 L260 30 L260 52 L238 52 L238 30 Z" /></clipPath><clipPath clipPathUnits="userSpaceOnUse" id="clipPath6"><path d="M208 41 C208 47.0751 203.0751 52 197 52 C190.9249 52 186 47.0751 186 41 C186 34.9249 190.9249 30 197 30 C203.0751 30 208 34.9249 208 41 Z" /></clipPath><clipPath clipPathUnits="userSpaceOnUse" id="clipPath7"><path d="M145 30 L156 41 L145 52 L134 41 Z" style="fill-rule:evenodd;" /></clipPath><clipPath clipPathUnits="userSpaceOnUse" id="clipPath8"><path d="M93 30 L104 41 L93 52 L82 41 Z" style="fill-rule:evenodd;" /></clipPath><clipPath clipPathUnits="userSpaceOnUse" id="clipPath9"><path d="M41 30 L52 41 L41 52 L30 41 Z" style="fill-rule:evenodd;" /></clipPath></defs><g style="fill:white; text-rendering:optimizeSpeed; stroke:white;"><rect height="134" style="stroke:none;" width="394" x="0" y="0" /></g><g ID="l-1:1,2" style="text-rendering:optimizeSpeed;"><polygon points=" 353 67 301 67" style="fill:none;" /></g><g ID="r-1:1" style="fill:white; text-rendering:optimizeSpeed; stroke:white;" wurcs_mono_id="1"><circle cx="353" cy="67" r="11" style="clip-path:url(#clipPath1); stroke:none;" /><rect height="22" style="clip-path:url(#clipPath1); fill:rgb(0,144,188); stroke:none;" width="22" x="342" y="56" /><rect height="22" style="clip-path:url(#clipPath1); fill:none; stroke:black;" width="22" x="342" y="56" /><circle cx="353" cy="67" r="11" style="fill:none; stroke:black;" /></g><g ID="l-1:2,3" style="text-rendering:optimizeSpeed;"><polygon points=" 301 67 249 93" style="fill:none;" /></g><g ID="l-1:2,4" style="text-rendering:optimizeSpeed;"><polygon points=" 301 67 249 41" style="fill:none;" /></g><g ID="r-1:2" style="fill:white; text-rendering:optimizeSpeed; stroke:white;" wurcs_mono_id="2"><circle cx="301" cy="67" r="11" style="clip-path:url(#clipPath2); stroke:none;" /><rect height="22" style="clip-path:url(#clipPath2); fill:rgb(255,212,0); stroke:none;" width="22" x="290" y="56" /><rect height="22" style="clip-path:url(#clipPath2); fill:none; stroke:black;" width="22" x="290" y="56" /><circle cx="301" cy="67" r="11" style="fill:none; stroke:black;" /></g><g ID="l-1:3,5" style="text-rendering:optimizeSpeed;"><polygon points=" 249 93 197 93" style="fill:none;" /></g><g ID="r-1:3" style="fill:white; text-rendering:optimizeSpeed; stroke:white;" wurcs_mono_id="3"><polygon points=" 249 82 260 93 249 104 238 93" style="stroke:none; clip-path:url(#clipPath3);" /><rect height="22" style="clip-path:url(#clipPath3); fill:rgb(165,67,153); stroke:none;" width="22" x="238" y="82" /><rect height="22" style="clip-path:url(#clipPath3); fill:none; stroke:black;" width="22" x="238" y="82" /><polygon points=" 249 82 260 93 249 104 238 93" style="fill:none; stroke:black;" /></g><g ID="r-1:5" style="fill:white; text-rendering:optimizeSpeed; stroke:white;" wurcs_mono_id="4"><polygon points=" 197 82 208 93 197 104 186 93" style="stroke:none; clip-path:url(#clipPath4);" /><rect height="22" style="clip-path:url(#clipPath4); fill:rgb(165,67,153); stroke:none;" width="22" x="186" y="82" /><rect height="22" style="clip-path:url(#clipPath4); fill:none; stroke:black;" width="22" x="186" y="82" /><polygon points=" 197 82 208 93 197 104 186 93" style="fill:none; stroke:black;" /></g><g ID="li-1:3,5" style="fill:white; text-rendering:optimizeSpeed; font-family:'Serif'; stroke:white;"><rect height="10" style="stroke:none;" width="7" x="226" y="96" /><path d="M231.5938 103.6094 Q231.5938 102.6719 231.125 102.1562 Q230.6562 101.6406 229.8125 101.6406 Q228.9688 101.6406 228.5078 102.1562 Q228.0469 102.6719 228.0469 103.6094 Q228.0469 104.5469 228.5078 105.0703 Q228.9688 105.5938 229.8125 105.5938 Q230.6562 105.5938 231.125 105.0703 Q231.5938 104.5469 231.5938 103.6094 ZM231.3438 99.3594 Q231.3438 98.5625 230.9453 98.1172 Q230.5469 97.6719 229.8125 97.6719 Q229.0938 97.6719 228.6875 98.1172 Q228.2812 98.5625 228.2812 99.3594 Q228.2812 100.1562 228.6875 100.6016 Q229.0938 101.0469 229.8125 101.0469 Q230.5469 101.0469 230.9453 100.6016 Q231.3438 100.1562 231.3438 99.3594 ZM230.7188 101.3438 Q231.7188 101.4688 232.2734 102.0703 Q232.8281 102.6719 232.8281 103.6094 Q232.8281 104.8438 232.0469 105.5078 Q231.2656 106.1719 229.8125 106.1719 Q228.375 106.1719 227.5859 105.5078 Q226.7969 104.8438 226.7969 103.6094 Q226.7969 102.6719 227.3594 102.0703 Q227.9219 101.4688 228.9219 101.3438 Q228.0312 101.1875 227.5625 100.6719 Q227.0938 100.1562 227.0938 99.3594 Q227.0938 98.3125 227.8203 97.7031 Q228.5469 97.0938 229.8125 97.0938 Q231.0938 97.0938 231.8203 97.7031 Q232.5469 98.3125 232.5469 99.3594 Q232.5469 100.1562 232.0703 100.6719 Q231.5938 101.1875 230.7188 101.3438 Z" style="fill:black; stroke:none;" /><rect height="8" style="stroke:none;" width="8" x="212" y="97" /><path d="M217.1875 103.4688 L216.9531 104.1094 Q216.7656 104.625 216.2031 104.9375 Q215.8438 105.1562 215.2031 105.1406 Q214.0469 105.1406 213.3281 104.2344 Q212.5938 103.3281 212.5938 101.8594 Q212.5938 100.4219 213.3281 99.4844 Q214.0156 98.5938 215.4531 98.6094 Q216.4531 98.6094 216.9531 99 Q217.4062 99.3438 217.5781 100.0938 L217.625 100.3125 L217.8438 99.6719 Q218.0625 99.0469 218.6562 98.75 L219.25 98.75 L219.25 99.0938 Q218.6875 99.2656 218.5 99.8125 L217.8906 101.4844 L218.2969 103.2812 Q218.5 104.2031 218.7344 104.2969 Q219.0469 104.4375 219.7812 104 L219.7812 104.7188 Q218.5938 105.4062 217.75 104.6875 Q217.375 104.3594 217.2656 103.875 L217.1875 103.4688 ZM216.9219 102.3125 L216.5625 100.5938 Q216.2656 99.2188 215.4688 99.2188 Q214.7969 99.2031 214.2812 99.9375 Q213.8594 100.5156 213.8594 101.875 Q213.8594 103.1719 214.2812 103.8281 Q214.75 104.5469 215.5312 104.5 Q216.2031 104.4375 216.6875 103 L216.9219 102.3125 Z" style="fill:black; stroke:none;" /></g><g ID="l-1:4,6" style="text-rendering:optimizeSpeed;"><polygon points=" 249 41 197 41" style="fill:none;" /></g><g ID="r-1:4" style="fill:white; text-rendering:optimizeSpeed; stroke:white;" wurcs_mono_id="5"><rect height="22" style="clip-path:url(#clipPath5); stroke:none;" width="22" x="238" y="30" /><rect height="22" style="clip-path:url(#clipPath5); fill:rgb(255,212,0); stroke:none;" width="22" x="238" y="30" /><rect height="22" style="clip-path:url(#clipPath5); fill:none; stroke:black;" width="22" x="238" y="30" /><rect height="22" style="fill:none; stroke:black;" width="22" x="238" y="30" /></g><g ID="l-1:6,7" style="text-rendering:optimizeSpeed;"><polygon points=" 197 41 145 41" style="fill:none;" /></g><g ID="r-1:6" style="fill:white; text-rendering:optimizeSpeed; stroke:white;" wurcs_mono_id="6"><circle cx="197" cy="41" r="11" style="clip-path:url(#clipPath6); stroke:none;" /><rect height="22" style="clip-path:url(#clipPath6); fill:rgb(255,212,0); stroke:none;" width="22" x="186" y="30" /><rect height="22" style="clip-path:url(#clipPath6); fill:none; stroke:black;" width="22" x="186" y="30" /><circle cx="197" cy="41" r="11" style="fill:none; stroke:black;" /></g><g ID="l-1:7,8" style="text-rendering:optimizeSpeed;"><polygon points=" 145 41 93 41" style="fill:none;" /></g><g ID="r-1:7" style="fill:white; text-rendering:optimizeSpeed; stroke:white;" wurcs_mono_id="7"><polygon points=" 145 30 156 41 145 52 134 41" style="stroke:none; clip-path:url(#clipPath7);" /><rect height="22" style="clip-path:url(#clipPath7); fill:rgb(165,67,153); stroke:none;" width="22" x="134" y="30" /><rect height="22" style="clip-path:url(#clipPath7); fill:none; stroke:black;" width="22" x="134" y="30" /><polygon points=" 145 30 156 41 145 52 134 41" style="fill:none; stroke:black;" /></g><g ID="l-1:8,9" style="text-rendering:optimizeSpeed;"><polygon points=" 93 41 41 41" style="fill:none;" /></g><g ID="r-1:8" style="fill:white; text-rendering:optimizeSpeed; stroke:white;" wurcs_mono_id="8"><polygon points=" 93 30 104 41 93 52 82 41" style="stroke:none; clip-path:url(#clipPath8);" /><rect height="22" style="clip-path:url(#clipPath8); fill:rgb(165,67,153); stroke:none;" width="22" x="82" y="30" /><rect height="22" style="clip-path:url(#clipPath8); fill:none; stroke:black;" width="22" x="82" y="30" /><polygon points=" 93 30 104 41 93 52 82 41" style="fill:none; stroke:black;" /></g><g ID="r-1:9" style="fill:white; text-rendering:optimizeSpeed; stroke:white;" wurcs_mono_id="9"><polygon points=" 41 30 52 41 41 52 30 41" style="stroke:none; clip-path:url(#clipPath9);" /><rect height="22" style="clip-path:url(#clipPath9); fill:rgb(165,67,153); stroke:none;" width="22" x="30" y="30" /><rect height="22" style="clip-path:url(#clipPath9); fill:none; stroke:black;" width="22" x="30" y="30" /><polygon points=" 41 30 52 41 41 52 30 41" style="fill:none; stroke:black;" /></g><g ID="li-1:8,9" style="fill:white; text-rendering:optimizeSpeed; font-family:'Serif'; stroke:white;"><rect height="10" style="stroke:none;" width="7" x="70" y="44" /><path d="M75.5938 51.6094 Q75.5938 50.6719 75.125 50.1562 Q74.6562 49.6406 73.8125 49.6406 Q72.9688 49.6406 72.5078 50.1562 Q72.0469 50.6719 72.0469 51.6094 Q72.0469 52.5469 72.5078 53.0703 Q72.9688 53.5938 73.8125 53.5938 Q74.6562 53.5938 75.125 53.0703 Q75.5938 52.5469 75.5938 51.6094 ZM75.3438 47.3594 Q75.3438 46.5625 74.9453 46.1172 Q74.5469 45.6719 73.8125 45.6719 Q73.0938 45.6719 72.6875 46.1172 Q72.2812 46.5625 72.2812 47.3594 Q72.2812 48.1562 72.6875 48.6016 Q73.0938 49.0469 73.8125 49.0469 Q74.5469 49.0469 74.9453 48.6016 Q75.3438 48.1562 75.3438 47.3594 ZM74.7188 49.3438 Q75.7188 49.4688 76.2734 50.0703 Q76.8281 50.6719 76.8281 51.6094 Q76.8281 52.8438 76.0469 53.5078 Q75.2656 54.1719 73.8125 54.1719 Q72.375 54.1719 71.5859 53.5078 Q70.7969 52.8438 70.7969 51.6094 Q70.7969 50.6719 71.3594 50.0703 Q71.9219 49.4688 72.9219 49.3438 Q72.0312 49.1875 71.5625 48.6719 Q71.0938 48.1562 71.0938 47.3594 Q71.0938 46.3125 71.8203 45.7031 Q72.5469 45.0938 73.8125 45.0938 Q75.0938 45.0938 75.8203 45.7031 Q76.5469 46.3125 76.5469 47.3594 Q76.5469 48.1562 76.0703 48.6719 Q75.5938 49.1875 74.7188 49.3438 Z" style="fill:black; stroke:none;" /><rect height="8" style="stroke:none;" width="8" x="56" y="45" /><path d="M61.1875 51.4688 L60.9531 52.1094 Q60.7656 52.625 60.2031 52.9375 Q59.8438 53.1562 59.2031 53.1406 Q58.0469 53.1406 57.3281 52.2344 Q56.5938 51.3281 56.5938 49.8594 Q56.5938 48.4219 57.3281 47.4844 Q58.0156 46.5938 59.4531 46.6094 Q60.4531 46.6094 60.9531 47 Q61.4062 47.3438 61.5781 48.0938 L61.625 48.3125 L61.8438 47.6719 Q62.0625 47.0469 62.6562 46.75 L63.25 46.75 L63.25 47.0938 Q62.6875 47.2656 62.5 47.8125 L61.8906 49.4844 L62.2969 51.2812 Q62.5 52.2031 62.7344 52.2969 Q63.0469 52.4375 63.7812 52 L63.7812 52.7188 Q62.5938 53.4062 61.75 52.6875 Q61.375 52.3594 61.2656 51.875 L61.1875 51.4688 ZM60.9219 50.3125 L60.5625 48.5938 Q60.2656 47.2188 59.4688 47.2188 Q58.7969 47.2031 58.2812 47.9375 Q57.8594 48.5156 57.8594 49.875 Q57.8594 51.1719 58.2812 51.8281 Q58.75 52.5469 59.5312 52.5 Q60.2031 52.4375 60.6875 51 L60.9219 50.3125 Z" style="fill:black; stroke:none;" /></g><g ID="li-1:7,8" style="fill:white; text-rendering:optimizeSpeed; font-family:'Serif'; stroke:white;"><rect height="10" style="stroke:none;" width="7" x="122" y="44" /><path d="M127.5938 51.6094 Q127.5938 50.6719 127.125 50.1562 Q126.6562 49.6406 125.8125 49.6406 Q124.9688 49.6406 124.5078 50.1562 Q124.0469 50.6719 124.0469 51.6094 Q124.0469 52.5469 124.5078 53.0703 Q124.9688 53.5938 125.8125 53.5938 Q126.6562 53.5938 127.125 53.0703 Q127.5938 52.5469 127.5938 51.6094 ZM127.3438 47.3594 Q127.3438 46.5625 126.9453 46.1172 Q126.5469 45.6719 125.8125 45.6719 Q125.0938 45.6719 124.6875 46.1172 Q124.2812 46.5625 124.2812 47.3594 Q124.2812 48.1562 124.6875 48.6016 Q125.0938 49.0469 125.8125 49.0469 Q126.5469 49.0469 126.9453 48.6016 Q127.3438 48.1562 127.3438 47.3594 ZM126.7188 49.3438 Q127.7188 49.4688 128.2734 50.0703 Q128.8281 50.6719 128.8281 51.6094 Q128.8281 52.8438 128.0469 53.5078 Q127.2656 54.1719 125.8125 54.1719 Q124.375 54.1719 123.5859 53.5078 Q122.7969 52.8438 122.7969 51.6094 Q122.7969 50.6719 123.3594 50.0703 Q123.9219 49.4688 124.9219 49.3438 Q124.0312 49.1875 123.5625 48.6719 Q123.0938 48.1562 123.0938 47.3594 Q123.0938 46.3125 123.8203 45.7031 Q124.5469 45.0938 125.8125 45.0938 Q127.0938 45.0938 127.8203 45.7031 Q128.5469 46.3125 128.5469 47.3594 Q128.5469 48.1562 128.0703 48.6719 Q127.5938 49.1875 126.7188 49.3438 Z" style="fill:black; stroke:none;" /><rect height="8" style="stroke:none;" width="8" x="108" y="45" /><path d="M113.1875 51.4688 L112.9531 52.1094 Q112.7656 52.625 112.2031 52.9375 Q111.8438 53.1562 111.2031 53.1406 Q110.0469 53.1406 109.3281 52.2344 Q108.5938 51.3281 108.5938 49.8594 Q108.5938 48.4219 109.3281 47.4844 Q110.0156 46.5938 111.4531 46.6094 Q112.4531 46.6094 112.9531 47 Q113.4062 47.3438 113.5781 48.0938 L113.625 48.3125 L113.8438 47.6719 Q114.0625 47.0469 114.6562 46.75 L115.25 46.75 L115.25 47.0938 Q114.6875 47.2656 114.5 47.8125 L113.8906 49.4844 L114.2969 51.2812 Q114.5 52.2031 114.7344 52.2969 Q115.0469 52.4375 115.7812 52 L115.7812 52.7188 Q114.5938 53.4062 113.75 52.6875 Q113.375 52.3594 113.2656 51.875 L113.1875 51.4688 ZM112.9219 50.3125 L112.5625 48.5938 Q112.2656 47.2188 111.4688 47.2188 Q110.7969 47.2031 110.2812 47.9375 Q109.8594 48.5156 109.8594 49.875 Q109.8594 51.1719 110.2812 51.8281 Q110.75 52.5469 111.5312 52.5 Q112.2031 52.4375 112.6875 51 L112.9219 50.3125 Z" style="fill:black; stroke:none;" /></g><g ID="li-1:6,7" style="fill:white; text-rendering:optimizeSpeed; font-family:'Serif'; stroke:white;"><rect height="10" style="stroke:none;" width="7" x="174" y="44" /><path d="M175.1719 45.625 Q175.8594 45.3594 176.4844 45.2266 Q177.1094 45.0938 177.6562 45.0938 Q178.9531 45.0938 179.6719 45.6484 Q180.3906 46.2031 180.3906 47.1875 Q180.3906 47.9688 179.8906 48.5 Q179.3906 49.0312 178.4844 49.2188 Q179.5625 49.375 180.1562 50.0078 Q180.75 50.6406 180.75 51.6406 Q180.75 52.8594 179.9219 53.5156 Q179.0938 54.1719 177.5469 54.1719 Q176.8594 54.1719 176.2109 54.0234 Q175.5625 53.875 174.9219 53.5781 L174.9219 51.875 L175.5781 51.875 Q175.625 52.7188 176.1406 53.1562 Q176.6562 53.5938 177.5781 53.5938 Q178.4688 53.5938 178.9922 53.0703 Q179.5156 52.5469 179.5156 51.6562 Q179.5156 50.625 178.9766 50.0938 Q178.4375 49.5625 177.4062 49.5625 L176.8594 49.5625 L176.8594 48.9531 L177.1406 48.9531 Q178.1719 48.9531 178.6875 48.5312 Q179.2031 48.1094 179.2031 47.25 Q179.2031 46.4844 178.7812 46.0781 Q178.3594 45.6719 177.5625 45.6719 Q176.7656 45.6719 176.3359 46.0469 Q175.9062 46.4219 175.8281 47.1562 L175.1719 47.1562 L175.1719 45.625 Z" style="fill:black; stroke:none;" /><rect height="8" style="stroke:none;" width="8" x="160" y="45" /><path d="M165.1875 51.4688 L164.9531 52.1094 Q164.7656 52.625 164.2031 52.9375 Q163.8438 53.1562 163.2031 53.1406 Q162.0469 53.1406 161.3281 52.2344 Q160.5938 51.3281 160.5938 49.8594 Q160.5938 48.4219 161.3281 47.4844 Q162.0156 46.5938 163.4531 46.6094 Q164.4531 46.6094 164.9531 47 Q165.4062 47.3438 165.5781 48.0938 L165.625 48.3125 L165.8438 47.6719 Q166.0625 47.0469 166.6562 46.75 L167.25 46.75 L167.25 47.0938 Q166.6875 47.2656 166.5 47.8125 L165.8906 49.4844 L166.2969 51.2812 Q166.5 52.2031 166.7344 52.2969 Q167.0469 52.4375 167.7812 52 L167.7812 52.7188 Q166.5938 53.4062 165.75 52.6875 Q165.375 52.3594 165.2656 51.875 L165.1875 51.4688 ZM164.9219 50.3125 L164.5625 48.5938 Q164.2656 47.2188 163.4688 47.2188 Q162.7969 47.2031 162.2812 47.9375 Q161.8594 48.5156 161.8594 49.875 Q161.8594 51.1719 162.2812 51.8281 Q162.75 52.5469 163.5312 52.5 Q164.2031 52.4375 164.6875 51 L164.9219 50.3125 Z" style="fill:black; stroke:none;" /></g><g ID="li-1:4,6" style="fill:white; text-rendering:optimizeSpeed; font-family:'Serif'; stroke:white;"><rect height="10" style="stroke:none;" width="7" x="226" y="44" /><path d="M227.1719 45.625 Q227.8594 45.3594 228.4844 45.2266 Q229.1094 45.0938 229.6562 45.0938 Q230.9531 45.0938 231.6719 45.6484 Q232.3906 46.2031 232.3906 47.1875 Q232.3906 47.9688 231.8906 48.5 Q231.3906 49.0312 230.4844 49.2188 Q231.5625 49.375 232.1562 50.0078 Q232.75 50.6406 232.75 51.6406 Q232.75 52.8594 231.9219 53.5156 Q231.0938 54.1719 229.5469 54.1719 Q228.8594 54.1719 228.2109 54.0234 Q227.5625 53.875 226.9219 53.5781 L226.9219 51.875 L227.5781 51.875 Q227.625 52.7188 228.1406 53.1562 Q228.6562 53.5938 229.5781 53.5938 Q230.4688 53.5938 230.9922 53.0703 Q231.5156 52.5469 231.5156 51.6562 Q231.5156 50.625 230.9766 50.0938 Q230.4375 49.5625 229.4062 49.5625 L228.8594 49.5625 L228.8594 48.9531 L229.1406 48.9531 Q230.1719 48.9531 230.6875 48.5312 Q231.2031 48.1094 231.2031 47.25 Q231.2031 46.4844 230.7812 46.0781 Q230.3594 45.6719 229.5625 45.6719 Q228.7656 45.6719 228.3359 46.0469 Q227.9062 46.4219 227.8281 47.1562 L227.1719 47.1562 L227.1719 45.625 Z" style="fill:black; stroke:none;" /><rect height="13" style="stroke:none;" width="7" x="212" y="42" /><path d="M213.8281 54.25 Q214.2969 54.5938 215.1719 54.5938 Q216.0625 54.5938 216.5781 54.0703 Q217.0938 53.5469 217.0938 52.6562 Q217.0938 51.4219 216.5625 50.8906 Q216.0156 50.3594 215 50.3594 L214.4375 50.3594 L214.4375 49.7188 L214.7344 49.7188 Q215.4844 49.7188 216 49.2969 Q216.4219 48.9531 216.4219 48.0156 Q216.4219 47.6094 216.1406 47.1406 Q215.6875 46.375 215.1562 46.3906 Q213.8281 46.4375 213.8281 48.7812 L213.8281 54.25 ZM212.75 57.5 L212.75 48.7812 Q212.75 46.3281 214.0781 46 Q214.7656 45.8125 215.25 45.8125 Q216.3438 45.8125 217.0469 46.6719 Q217.6094 47.3594 217.6094 47.9375 Q217.6094 48.7812 217.2031 49.2656 Q216.7969 49.75 216.0625 49.9844 Q217.1406 50.1406 217.75 50.7812 Q218.3281 51.4062 218.3281 52.6328 Q218.3281 53.8594 217.5078 54.5156 Q216.6875 55.1719 215.1406 55.1719 Q214.1875 55.1719 213.8281 55.0312 L213.8281 57.5 L212.75 57.5 Z" style="fill:black; stroke:none;" /></g><g ID="li-1:2,3" style="fill:white; text-rendering:optimizeSpeed; font-family:'Serif'; stroke:white;"><rect height="10" style="stroke:none;" width="7" x="282" y="78" /><path d="M283.1719 79.625 Q283.8594 79.3594 284.4844 79.2266 Q285.1094 79.0938 285.6562 79.0938 Q286.9531 79.0938 287.6719 79.6484 Q288.3906 80.2031 288.3906 81.1875 Q288.3906 81.9688 287.8906 82.5 Q287.3906 83.0312 286.4844 83.2188 Q287.5625 83.375 288.1562 84.0078 Q288.75 84.6406 288.75 85.6406 Q288.75 86.8594 287.9219 87.5156 Q287.0938 88.1719 285.5469 88.1719 Q284.8594 88.1719 284.2109 88.0234 Q283.5625 87.875 282.9219 87.5781 L282.9219 85.875 L283.5781 85.875 Q283.625 86.7188 284.1406 87.1562 Q284.6562 87.5938 285.5781 87.5938 Q286.4688 87.5938 286.9922 87.0703 Q287.5156 86.5469 287.5156 85.6562 Q287.5156 84.625 286.9766 84.0938 Q286.4375 83.5625 285.4062 83.5625 L284.8594 83.5625 L284.8594 82.9531 L285.1406 82.9531 Q286.1719 82.9531 286.6875 82.5312 Q287.2031 82.1094 287.2031 81.25 Q287.2031 80.4844 286.7812 80.0781 Q286.3594 79.6719 285.5625 79.6719 Q284.7656 79.6719 284.3359 80.0469 Q283.9062 80.4219 283.8281 81.1562 L283.1719 81.1562 L283.1719 79.625 Z" style="fill:black; stroke:none;" /><rect height="8" style="stroke:none;" width="8" x="266" y="87" /><path d="M271.1875 93.4688 L270.9531 94.1094 Q270.7656 94.625 270.2031 94.9375 Q269.8438 95.1562 269.2031 95.1406 Q268.0469 95.1406 267.3281 94.2344 Q266.5938 93.3281 266.5938 91.8594 Q266.5938 90.4219 267.3281 89.4844 Q268.0156 88.5938 269.4531 88.6094 Q270.4531 88.6094 270.9531 89 Q271.4062 89.3438 271.5781 90.0938 L271.625 90.3125 L271.8438 89.6719 Q272.0625 89.0469 272.6562 88.75 L273.25 88.75 L273.25 89.0938 Q272.6875 89.2656 272.5 89.8125 L271.8906 91.4844 L272.2969 93.2812 Q272.5 94.2031 272.7344 94.2969 Q273.0469 94.4375 273.7812 94 L273.7812 94.7188 Q272.5938 95.4062 271.75 94.6875 Q271.375 94.3594 271.2656 93.875 L271.1875 93.4688 ZM270.9219 92.3125 L270.5625 90.5938 Q270.2656 89.2188 269.4688 89.2188 Q268.7969 89.2031 268.2812 89.9375 Q267.8594 90.5156 267.8594 91.875 Q267.8594 93.1719 268.2812 93.8281 Q268.75 94.5469 269.5312 94.5 Q270.2031 94.4375 270.6875 93 L270.9219 92.3125 Z" style="fill:black; stroke:none;" /></g><g ID="li-1:2,4" style="fill:white; text-rendering:optimizeSpeed; font-family:'Serif'; stroke:white;"><rect height="9" style="stroke:none;" width="8" x="275" y="60" /><path d="M279.1875 66.0312 L279.1875 61.375 L276.2031 66.0312 L279.1875 66.0312 ZM281.7656 69 L277.7812 69 L277.7812 68.375 L279.1875 68.375 L279.1875 66.6562 L275.375 66.6562 L275.375 66.0156 L279.2031 60.0938 L280.3594 60.0938 L280.3594 66.0312 L282.0312 66.0312 L282.0312 66.6562 L280.3594 66.6562 L280.3594 68.375 L281.7656 68.375 L281.7656 69 Z" style="fill:black; stroke:none;" /><rect height="13" style="stroke:none;" width="7" x="260" y="50" /><path d="M261.8281 62.25 Q262.2969 62.5938 263.1719 62.5938 Q264.0625 62.5938 264.5781 62.0703 Q265.0938 61.5469 265.0938 60.6562 Q265.0938 59.4219 264.5625 58.8906 Q264.0156 58.3594 263 58.3594 L262.4375 58.3594 L262.4375 57.7188 L262.7344 57.7188 Q263.4844 57.7188 264 57.2969 Q264.4219 56.9531 264.4219 56.0156 Q264.4219 55.6094 264.1406 55.1406 Q263.6875 54.375 263.1562 54.3906 Q261.8281 54.4375 261.8281 56.7812 L261.8281 62.25 ZM260.75 65.5 L260.75 56.7812 Q260.75 54.3281 262.0781 54 Q262.7656 53.8125 263.25 53.8125 Q264.3438 53.8125 265.0469 54.6719 Q265.6094 55.3594 265.6094 55.9375 Q265.6094 56.7812 265.2031 57.2656 Q264.7969 57.75 264.0625 57.9844 Q265.1406 58.1406 265.75 58.7812 Q266.3281 59.4062 266.3281 60.6328 Q266.3281 61.8594 265.5078 62.5156 Q264.6875 63.1719 263.1406 63.1719 Q262.1875 63.1719 261.8281 63.0312 L261.8281 65.5 L260.75 65.5 Z" style="fill:black; stroke:none;" /></g><g ID="li-1:1,2" style="fill:white; text-rendering:optimizeSpeed; font-family:'Serif'; stroke:white;"><rect height="9" style="stroke:none;" width="8" x="330" y="70" /><path d="M334.1875 76.0312 L334.1875 71.375 L331.2031 76.0312 L334.1875 76.0312 ZM336.7656 79 L332.7812 79 L332.7812 78.375 L334.1875 78.375 L334.1875 76.6562 L330.375 76.6562 L330.375 76.0156 L334.2031 70.0938 L335.3594 70.0938 L335.3594 76.0312 L337.0312 76.0312 L337.0312 76.6562 L335.3594 76.6562 L335.3594 78.375 L336.7656 78.375 L336.7656 79 Z" style="fill:black; stroke:none;" /><rect height="13" style="stroke:none;" width="7" x="316" y="68" /><path d="M317.8281 80.25 Q318.2969 80.5938 319.1719 80.5938 Q320.0625 80.5938 320.5781 80.0703 Q321.0938 79.5469 321.0938 78.6562 Q321.0938 77.4219 320.5625 76.8906 Q320.0156 76.3594 319 76.3594 L318.4375 76.3594 L318.4375 75.7188 L318.7344 75.7188 Q319.4844 75.7188 320 75.2969 Q320.4219 74.9531 320.4219 74.0156 Q320.4219 73.6094 320.1406 73.1406 Q319.6875 72.375 319.1562 72.3906 Q317.8281 72.4375 317.8281 74.7812 L317.8281 80.25 ZM316.75 83.5 L316.75 74.7812 Q316.75 72.3281 318.0781 72 Q318.7656 71.8125 319.25 71.8125 Q320.3438 71.8125 321.0469 72.6719 Q321.6094 73.3594 321.6094 73.9375 Q321.6094 74.7812 321.2031 75.2656 Q320.7969 75.75 320.0625 75.9844 Q321.1406 76.1406 321.75 76.7812 Q322.3281 77.4062 322.3281 78.6328 Q322.3281 79.8594 321.5078 80.5156 Q320.6875 81.1719 319.1406 81.1719 Q318.1875 81.1719 317.8281 81.0312 L317.8281 83.5 L316.75 83.5 Z" style="fill:black; stroke:none;" /></g></g></svg>