<svg xmlns="http://www.w3.org/2000/svg" style="fill-opacity:1; color-rendering:auto; color-interpolation:auto; text-rendering:auto; stroke:black; stroke-linecap:square; stroke-miterlimit:10; shape-rendering:auto; stroke-opacity:1; fill:black; stroke-dasharray:none; font-weight:normal; stroke-width:1; font-family:'Dialog'; font-style:normal; stroke-linejoin:miter; font-size:12px; stroke-dashoffset:0; image-rendering:auto;"><defs id="genericDefs" /><g><defs id="defs1"><clipPath clipPathUnits="userSpaceOnUse" id="clipPath1"><path d="M936 145 C936 151.0751 931.0751 156 925 156 C918.9249 156 914 151.0751 914 145 C914 138.9249 918.9249 134 925 134 C931.0751 134 936 138.9249 936 145 Z" /></clipPath><clipPath clipPathUnits="userSpaceOnUse" id="clipPath2"><path d="M884 145 C884 151.0751 879.0751 156 873 156 C866.9249 156 862 151.0751 862 145 C862 138.9249 866.9249 134 873 134 C879.0751 134 884 138.9249 884 145 Z" /></clipPath><clipPath clipPathUnits="userSpaceOnUse" id="clipPath3"><path d="M810 134 L832 134 L832 156 L810 156 L810 134 Z" /></clipPath><clipPath clipPathUnits="userSpaceOnUse" id="clipPath4"><path d="M780 145 C780 151.0751 775.0751 156 769 156 C762.9249 156 758 151.0751 758 145 C758 138.9249 762.9249 134 769 134 C775.0751 134 780 138.9249 780 145 Z" /></clipPath><clipPath clipPathUnits="userSpaceOnUse" id="clipPath5"><path d="M706 134 L728 134 L728 156 L706 156 L706 134 Z" /></clipPath><clipPath clipPathUnits="userSpaceOnUse" id="clipPath6"><path d="M676 145 C676 151.0751 671.0751 156 665 156 C658.9249 156 654 151.0751 654 145 C654 138.9249 658.9249 134 665 134 C671.0751 134 676 138.9249 676 145 Z" /></clipPath><clipPath clipPathUnits="userSpaceOnUse" id="clipPath7"><path d="M602 134 L624 134 L624 156 L602 156 L602 134 Z" /></clipPath><clipPath clipPathUnits="userSpaceOnUse" id="clipPath8"><path d="M572 145 C572 151.0751 567.0751 156 561 156 C554.9249 156 550 151.0751 550 145 C550 138.9249 554.9249 134 561 134 C567.0751 134 572 138.9249 572 145 Z" /></clipPath><clipPath clipPathUnits="userSpaceOnUse" id="clipPath9"><path d="M498 134 L520 134 L520 156 L498 156 L498 134 Z" /></clipPath><clipPath clipPathUnits="userSpaceOnUse" id="clipPath10"><path d="M468 145 C468 151.0751 463.0751 156 457 156 C450.9249 156 446 151.0751 446 145 C446 138.9249 450.9249 134 457 134 C463.0751 134 468 138.9249 468 145 Z" /></clipPath><clipPath clipPathUnits="userSpaceOnUse" id="clipPath11"><path d="M394 134 L416 134 L416 156 L394 156 L394 134 Z" /></clipPath><clipPath clipPathUnits="userSpaceOnUse" id="clipPath12"><path d="M364 145 C364 151.0751 359.0751 156 353 156 C346.9249 156 342 151.0751 342 145 C342 138.9249 346.9249 134 353 134 C359.0751 134 364 138.9249 364 145 Z" /></clipPath><clipPath clipPathUnits="userSpaceOnUse" id="clipPath13"><path d="M290 134 L312 134 L312 156 L290 156 L290 134 Z" /></clipPath><clipPath clipPathUnits="userSpaceOnUse" id="clipPath14"><path d="M260 145 C260 151.0751 255.0751 156 249 156 C242.9249 156 238 151.0751 238 145 C238 138.9249 242.9249 134 249 134 C255.0751 134 260 138.9249 260 145 Z" /></clipPath><clipPath clipPathUnits="userSpaceOnUse" id="clipPath15"><path d="M186 134 L208 134 L208 156 L186 156 L186 134 Z" /></clipPath><clipPath clipPathUnits="userSpaceOnUse" id="clipPath16"><path d="M156 145 C156 151.0751 151.0751 156 145 156 C138.9249 156 134 151.0751 134 145 C134 138.9249 138.9249 134 145 134 C151.0751 134 156 138.9249 156 145 Z" /></clipPath><clipPath clipPathUnits="userSpaceOnUse" id="clipPath17"><path d="M82 186 L104 186 L104 208 L82 208 L82 186 Z" /></clipPath><clipPath clipPathUnits="userSpaceOnUse" id="clipPath18"><path d="M52 197 C52 203.0751 47.0751 208 41 208 C34.9249 208 30 203.0751 30 197 C30 190.9249 34.9249 186 41 186 C47.0751 186 52 190.9249 52 197 Z" /></clipPath><clipPath clipPathUnits="userSpaceOnUse" id="clipPath19"><path d="M41 156 L30 134 L52 134 Z" style="fill-rule:evenodd;" /></clipPath><clipPath clipPathUnits="userSpaceOnUse" id="clipPath20"><path d="M82 82 L104 82 L104 104 L82 104 L82 82 Z" /></clipPath><clipPath clipPathUnits="userSpaceOnUse" id="clipPath21"><path d="M52 93 C52 99.0751 47.0751 104 41 104 C34.9249 104 30 99.0751 30 93 C30 86.9249 34.9249 82 41 82 C47.0751 82 52 86.9249 52 93 Z" /></clipPath><clipPath clipPathUnits="userSpaceOnUse" id="clipPath22"><path d="M41 52 L30 30 L52 30 Z" style="fill-rule:evenodd;" /></clipPath></defs><g style="fill:white; text-rendering:optimizeSpeed; stroke:white;"><rect height="238" style="stroke:none;" width="966" x="0" y="0" /></g><g ID="l-1:1,2" style="text-rendering:optimizeSpeed;"><polygon points=" 925 145 873 145" style="fill:none;" /></g><g ID="r-1:1" style="fill:white; text-rendering:optimizeSpeed; stroke:white;" wurcs_mono_id="1"><circle cx="925" cy="145" r="11" style="clip-path:url(#clipPath1); stroke:none;" /><rect height="22" style="clip-path:url(#clipPath1); fill:rgb(0,144,188); stroke:none;" width="22" x="914" y="134" /><rect height="22" style="clip-path:url(#clipPath1); fill:none; stroke:black;" width="22" x="914" y="134" /><circle cx="925" cy="145" r="11" style="fill:none; stroke:black;" /></g><g ID="l-1:2,3" style="text-rendering:optimizeSpeed;"><polygon points=" 873 145 821 145" style="fill:none;" /></g><g ID="r-1:2" style="fill:white; text-rendering:optimizeSpeed; stroke:white;" wurcs_mono_id="2"><circle cx="873" cy="145" r="11" style="clip-path:url(#clipPath2); stroke:none;" /><rect height="22" style="clip-path:url(#clipPath2); fill:rgb(255,212,0); stroke:none;" width="22" x="862" y="134" /><rect height="22" style="clip-path:url(#clipPath2); fill:none; stroke:black;" width="22" x="862" y="134" /><circle cx="873" cy="145" r="11" style="fill:none; stroke:black;" /></g><g ID="l-1:3,4" style="text-rendering:optimizeSpeed;"><polygon points=" 821 145 769 145" style="fill:none;" /></g><g ID="r-1:3" style="fill:white; text-rendering:optimizeSpeed; stroke:white;" wurcs_mono_id="3"><rect height="22" style="clip-path:url(#clipPath3); stroke:none;" width="22" x="810" y="134" /><rect height="22" style="clip-path:url(#clipPath3); fill:rgb(0,144,188); stroke:none;" width="22" x="810" y="134" /><rect height="22" style="clip-path:url(#clipPath3); fill:none; stroke:black;" width="22" x="810" y="134" /><rect height="22" style="fill:none; stroke:black;" width="22" x="810" y="134" /></g><g ID="l-1:4,5" style="text-rendering:optimizeSpeed;"><polygon points=" 769 145 717 145" style="fill:none;" /></g><g ID="r-1:4" style="fill:white; text-rendering:optimizeSpeed; stroke:white;" wurcs_mono_id="4"><circle cx="769" cy="145" r="11" style="clip-path:url(#clipPath4); stroke:none;" /><rect height="22" style="clip-path:url(#clipPath4); fill:rgb(255,212,0); stroke:none;" width="22" x="758" y="134" /><rect height="22" style="clip-path:url(#clipPath4); fill:none; stroke:black;" width="22" x="758" y="134" /><circle cx="769" cy="145" r="11" style="fill:none; stroke:black;" /></g><g ID="l-1:5,6" style="text-rendering:optimizeSpeed;"><polygon points=" 717 145 665 145" style="fill:none;" /></g><g ID="r-1:5" style="fill:white; text-rendering:optimizeSpeed; stroke:white;" wurcs_mono_id="5"><rect height="22" style="clip-path:url(#clipPath5); stroke:none;" width="22" x="706" y="134" /><rect height="22" style="clip-path:url(#clipPath5); fill:rgb(0,144,188); stroke:none;" width="22" x="706" y="134" /><rect height="22" style="clip-path:url(#clipPath5); fill:none; stroke:black;" width="22" x="706" y="134" /><rect height="22" style="fill:none; stroke:black;" width="22" x="706" y="134" /></g><g ID="l-1:6,7" style="text-rendering:optimizeSpeed;"><polygon points=" 665 145 613 145" style="fill:none;" /></g><g ID="r-1:6" style="fill:white; text-rendering:optimizeSpeed; stroke:white;" wurcs_mono_id="6"><circle cx="665" cy="145" r="11" style="clip-path:url(#clipPath6); stroke:none;" /><rect height="22" style="clip-path:url(#clipPath6); fill:rgb(255,212,0); stroke:none;" width="22" x="654" y="134" /><rect height="22" style="clip-path:url(#clipPath6); fill:none; stroke:black;" width="22" x="654" y="134" /><circle cx="665" cy="145" r="11" style="fill:none; stroke:black;" /></g><g ID="l-1:7,8" style="text-rendering:optimizeSpeed;"><polygon points=" 613 145 561 145" style="fill:none;" /></g><g ID="r-1:7" style="fill:white; text-rendering:optimizeSpeed; stroke:white;" wurcs_mono_id="7"><rect height="22" style="clip-path:url(#clipPath7); stroke:none;" width="22" x="602" y="134" /><rect height="22" style="clip-path:url(#clipPath7); fill:rgb(0,144,188); stroke:none;" width="22" x="602" y="134" /><rect height="22" style="clip-path:url(#clipPath7); fill:none; stroke:black;" width="22" x="602" y="134" /><rect height="22" style="fill:none; stroke:black;" width="22" x="602" y="134" /></g><g ID="l-1:8,9" style="text-rendering:optimizeSpeed;"><polygon points=" 561 145 509 145" style="fill:none;" /></g><g ID="r-1:8" style="fill:white; text-rendering:optimizeSpeed; stroke:white;" wurcs_mono_id="8"><circle cx="561" cy="145" r="11" style="clip-path:url(#clipPath8); stroke:none;" /><rect height="22" style="clip-path:url(#clipPath8); fill:rgb(255,212,0); stroke:none;" width="22" x="550" y="134" /><rect height="22" style="clip-path:url(#clipPath8); fill:none; stroke:black;" width="22" x="550" y="134" /><circle cx="561" cy="145" r="11" style="fill:none; stroke:black;" /></g><g ID="l-1:9,10" style="text-rendering:optimizeSpeed;"><polygon points=" 509 145 457 145" style="fill:none;" /></g><g ID="r-1:9" style="fill:white; text-rendering:optimizeSpeed; stroke:white;" wurcs_mono_id="9"><rect height="22" style="clip-path:url(#clipPath9); stroke:none;" width="22" x="498" y="134" /><rect height="22" style="clip-path:url(#clipPath9); fill:rgb(0,144,188); stroke:none;" width="22" x="498" y="134" /><rect height="22" style="clip-path:url(#clipPath9); fill:none; stroke:black;" width="22" x="498" y="134" /><rect height="22" style="fill:none; stroke:black;" width="22" x="498" y="134" /></g><g ID="l-1:10,11" style="text-rendering:optimizeSpeed;"><polygon points=" 457 145 405 145" style="fill:none;" /></g><g ID="r-1:10" style="fill:white; text-rendering:optimizeSpeed; stroke:white;" wurcs_mono_id="10"><circle cx="457" cy="145" r="11" style="clip-path:url(#clipPath10); stroke:none;" /><rect height="22" style="clip-path:url(#clipPath10); fill:rgb(255,212,0); stroke:none;" width="22" x="446" y="134" /><rect height="22" style="clip-path:url(#clipPath10); fill:none; stroke:black;" width="22" x="446" y="134" /><circle cx="457" cy="145" r="11" style="fill:none; stroke:black;" /></g><g ID="l-1:11,12" style="text-rendering:optimizeSpeed;"><polygon points=" 405 145 353 145" style="fill:none;" /></g><g ID="r-1:11" style="fill:white; text-rendering:optimizeSpeed; stroke:white;" wurcs_mono_id="11"><rect height="22" style="clip-path:url(#clipPath11); stroke:none;" width="22" x="394" y="134" /><rect height="22" style="clip-path:url(#clipPath11); fill:rgb(0,144,188); stroke:none;" width="22" x="394" y="134" /><rect height="22" style="clip-path:url(#clipPath11); fill:none; stroke:black;" width="22" x="394" y="134" /><rect height="22" style="fill:none; stroke:black;" width="22" x="394" y="134" /></g><g ID="l-1:12,13" style="text-rendering:optimizeSpeed;"><polygon points=" 353 145 301 145" style="fill:none;" /></g><g ID="r-1:12" style="fill:white; text-rendering:optimizeSpeed; stroke:white;" wurcs_mono_id="12"><circle cx="353" cy="145" r="11" style="clip-path:url(#clipPath12); stroke:none;" /><rect height="22" style="clip-path:url(#clipPath12); fill:rgb(255,212,0); stroke:none;" width="22" x="342" y="134" /><rect height="22" style="clip-path:url(#clipPath12); fill:none; stroke:black;" width="22" x="342" y="134" /><circle cx="353" cy="145" r="11" style="fill:none; stroke:black;" /></g><g ID="l-1:13,14" style="text-rendering:optimizeSpeed;"><polygon points=" 301 145 249 145" style="fill:none;" /></g><g ID="r-1:13" style="fill:white; text-rendering:optimizeSpeed; stroke:white;" wurcs_mono_id="13"><rect height="22" style="clip-path:url(#clipPath13); stroke:none;" width="22" x="290" y="134" /><rect height="22" style="clip-path:url(#clipPath13); fill:rgb(0,144,188); stroke:none;" width="22" x="290" y="134" /><rect height="22" style="clip-path:url(#clipPath13); fill:none; stroke:black;" width="22" x="290" y="134" /><rect height="22" style="fill:none; stroke:black;" width="22" x="290" y="134" /></g><g ID="l-1:14,15" style="text-rendering:optimizeSpeed;"><polygon points=" 249 145 197 145" style="fill:none;" /></g><g ID="r-1:14" style="fill:white; text-rendering:optimizeSpeed; stroke:white;" wurcs_mono_id="14"><circle cx="249" cy="145" r="11" style="clip-path:url(#clipPath14); stroke:none;" /><rect height="22" style="clip-path:url(#clipPath14); fill:rgb(255,212,0); stroke:none;" width="22" x="238" y="134" /><rect height="22" style="clip-path:url(#clipPath14); fill:none; stroke:black;" width="22" x="238" y="134" /><circle cx="249" cy="145" r="11" style="fill:none; stroke:black;" /></g><g ID="l-1:15,16" style="text-rendering:optimizeSpeed;"><polygon points=" 197 145 145 145" style="fill:none;" /></g><g ID="r-1:15" style="fill:white; text-rendering:optimizeSpeed; stroke:white;" wurcs_mono_id="15"><rect height="22" style="clip-path:url(#clipPath15); stroke:none;" width="22" x="186" y="134" /><rect height="22" style="clip-path:url(#clipPath15); fill:rgb(0,144,188); stroke:none;" width="22" x="186" y="134" /><rect height="22" style="clip-path:url(#clipPath15); fill:none; stroke:black;" width="22" x="186" y="134" /><rect height="22" style="fill:none; stroke:black;" width="22" x="186" y="134" /></g><g ID="l-1:16,17" style="text-rendering:optimizeSpeed;"><polygon points=" 145 145 93 197" style="fill:none;" /></g><g ID="l-1:16,18" style="text-rendering:optimizeSpeed;"><polygon points=" 145 145 93 93" style="fill:none;" /></g><g ID="r-1:16" style="fill:white; text-rendering:optimizeSpeed; stroke:white;" wurcs_mono_id="16"><circle cx="145" cy="145" r="11" style="clip-path:url(#clipPath16); stroke:none;" /><rect height="22" style="clip-path:url(#clipPath16); fill:rgb(255,212,0); stroke:none;" width="22" x="134" y="134" /><rect height="22" style="clip-path:url(#clipPath16); fill:none; stroke:black;" width="22" x="134" y="134" /><circle cx="145" cy="145" r="11" style="fill:none; stroke:black;" /></g><g ID="l-1:17,19" style="text-rendering:optimizeSpeed;"><polygon points=" 93 197 41 197" style="fill:none;" /></g><g ID="r-1:17" style="fill:white; text-rendering:optimizeSpeed; stroke:white;" wurcs_mono_id="17"><rect height="22" style="clip-path:url(#clipPath17); stroke:none;" width="22" x="82" y="186" /><rect height="22" style="clip-path:url(#clipPath17); fill:rgb(0,144,188); stroke:none;" width="22" x="82" y="186" /><rect height="22" style="clip-path:url(#clipPath17); fill:none; stroke:black;" width="22" x="82" y="186" /><rect height="22" style="fill:none; stroke:black;" width="22" x="82" y="186" /></g><g ID="l-1:19,20" style="text-rendering:optimizeSpeed;"><polygon points=" 41 197 41 145" style="fill:none;" /></g><g ID="r-1:19" style="fill:white; text-rendering:optimizeSpeed; stroke:white;" wurcs_mono_id="18"><circle cx="41" cy="197" r="11" style="clip-path:url(#clipPath18); stroke:none;" /><rect height="22" style="clip-path:url(#clipPath18); fill:rgb(255,212,0); stroke:none;" width="22" x="30" y="186" /><rect height="22" style="clip-path:url(#clipPath18); fill:none; stroke:black;" width="22" x="30" y="186" /><circle cx="41" cy="197" r="11" style="fill:none; stroke:black;" /></g><g ID="r-1:20" style="fill:white; text-rendering:optimizeSpeed; stroke:white;" wurcs_mono_id="19"><polygon points=" 41 156 30 134 52 134" style="stroke:none; clip-path:url(#clipPath19);" /><rect height="22" style="clip-path:url(#clipPath19); fill:rgb(237,28,36); stroke:none;" width="22" x="30" y="134" /><rect height="22" style="clip-path:url(#clipPath19); fill:none; stroke:black;" width="22" x="30" y="134" /><polygon points=" 41 156 30 134 52 134" style="fill:none; stroke:black;" /></g><g ID="li-1:19,20" style="fill:white; text-rendering:optimizeSpeed; font-family:'Serif'; stroke:white;"><rect height="10" style="stroke:none;" width="6" x="30" y="173" /><path d="M32.1094 182.3906 Q32.1094 182.0625 32.3359 181.8359 Q32.5625 181.6094 32.8906 181.6094 Q33.2188 181.6094 33.4453 181.8359 Q33.6719 182.0625 33.6719 182.3906 Q33.6719 182.7188 33.4453 182.9453 Q33.2188 183.1719 32.8906 183.1719 Q32.5625 183.1719 32.3359 182.9453 Q32.1094 182.7188 32.1094 182.3906 ZM30.8125 174.6406 Q31.4375 174.3594 32 174.2266 Q32.5625 174.0938 33.0469 174.0938 Q34.3438 174.0938 35.1016 174.7188 Q35.8594 175.3438 35.8594 176.4062 Q35.8594 177.5 35.2109 178.1953 Q34.5625 178.8906 33.25 179.1875 L33.25 180.6719 L32.5312 180.6719 L32.5312 178.75 Q33.5625 178.5 34.0938 177.9062 Q34.625 177.3125 34.625 176.4062 Q34.625 175.5938 34.1953 175.1328 Q33.7656 174.6719 33.0312 174.6719 Q32.3594 174.6719 31.9297 175.0547 Q31.5 175.4375 31.3906 176.1562 L30.8125 176.1562 L30.8125 174.6406 Z" style="fill:black; stroke:none;" /><rect height="10" style="stroke:none;" width="6" x="30" y="159" /><path d="M32.1094 168.3906 Q32.1094 168.0625 32.3359 167.8359 Q32.5625 167.6094 32.8906 167.6094 Q33.2188 167.6094 33.4453 167.8359 Q33.6719 168.0625 33.6719 168.3906 Q33.6719 168.7188 33.4453 168.9453 Q33.2188 169.1719 32.8906 169.1719 Q32.5625 169.1719 32.3359 168.9453 Q32.1094 168.7188 32.1094 168.3906 ZM30.8125 160.6406 Q31.4375 160.3594 32 160.2266 Q32.5625 160.0938 33.0469 160.0938 Q34.3438 160.0938 35.1016 160.7188 Q35.8594 161.3438 35.8594 162.4062 Q35.8594 163.5 35.2109 164.1953 Q34.5625 164.8906 33.25 165.1875 L33.25 166.6719 L32.5312 166.6719 L32.5312 164.75 Q33.5625 164.5 34.0938 163.9062 Q34.625 163.3125 34.625 162.4062 Q34.625 161.5938 34.1953 161.1328 Q33.7656 160.6719 33.0312 160.6719 Q32.3594 160.6719 31.9297 161.0547 Q31.5 161.4375 31.3906 162.1562 L30.8125 162.1562 L30.8125 160.6406 Z" style="fill:black; stroke:none;" /></g><g ID="li-1:17,19" style="fill:white; text-rendering:optimizeSpeed; font-family:'Serif'; stroke:white;"><rect height="10" style="stroke:none;" width="6" x="71" y="200" /><path d="M73.1094 209.3906 Q73.1094 209.0625 73.3359 208.8359 Q73.5625 208.6094 73.8906 208.6094 Q74.2188 208.6094 74.4453 208.8359 Q74.6719 209.0625 74.6719 209.3906 Q74.6719 209.7188 74.4453 209.9453 Q74.2188 210.1719 73.8906 210.1719 Q73.5625 210.1719 73.3359 209.9453 Q73.1094 209.7188 73.1094 209.3906 ZM71.8125 201.6406 Q72.4375 201.3594 73 201.2266 Q73.5625 201.0938 74.0469 201.0938 Q75.3438 201.0938 76.1016 201.7188 Q76.8594 202.3438 76.8594 203.4062 Q76.8594 204.5 76.2109 205.1953 Q75.5625 205.8906 74.25 206.1875 L74.25 207.6719 L73.5312 207.6719 L73.5312 205.75 Q74.5625 205.5 75.0938 204.9062 Q75.625 204.3125 75.625 203.4062 Q75.625 202.5938 75.1953 202.1328 Q74.7656 201.6719 74.0312 201.6719 Q73.3594 201.6719 72.9297 202.0547 Q72.5 202.4375 72.3906 203.1562 L71.8125 203.1562 L71.8125 201.6406 Z" style="fill:black; stroke:none;" /><rect height="10" style="stroke:none;" width="6" x="57" y="200" /><path d="M59.1094 209.3906 Q59.1094 209.0625 59.3359 208.8359 Q59.5625 208.6094 59.8906 208.6094 Q60.2188 208.6094 60.4453 208.8359 Q60.6719 209.0625 60.6719 209.3906 Q60.6719 209.7188 60.4453 209.9453 Q60.2188 210.1719 59.8906 210.1719 Q59.5625 210.1719 59.3359 209.9453 Q59.1094 209.7188 59.1094 209.3906 ZM57.8125 201.6406 Q58.4375 201.3594 59 201.2266 Q59.5625 201.0938 60.0469 201.0938 Q61.3438 201.0938 62.1016 201.7188 Q62.8594 202.3438 62.8594 203.4062 Q62.8594 204.5 62.2109 205.1953 Q61.5625 205.8906 60.25 206.1875 L60.25 207.6719 L59.5312 207.6719 L59.5312 205.75 Q60.5625 205.5 61.0938 204.9062 Q61.625 204.3125 61.625 203.4062 Q61.625 202.5938 61.1953 202.1328 Q60.7656 201.6719 60.0312 201.6719 Q59.3594 201.6719 58.9297 202.0547 Q58.5 202.4375 58.3906 203.1562 L57.8125 203.1562 L57.8125 201.6406 Z" style="fill:black; stroke:none;" /></g><g ID="l-1:18,21" style="text-rendering:optimizeSpeed;"><polygon points=" 93 93 41 93" style="fill:none;" /></g><g ID="r-1:18" style="fill:white; text-rendering:optimizeSpeed; stroke:white;" wurcs_mono_id="20"><rect height="22" style="clip-path:url(#clipPath20); stroke:none;" width="22" x="82" y="82" /><rect height="22" style="clip-path:url(#clipPath20); fill:rgb(0,144,188); stroke:none;" width="22" x="82" y="82" /><rect height="22" style="clip-path:url(#clipPath20); fill:none; stroke:black;" width="22" x="82" y="82" /><rect height="22" style="fill:none; stroke:black;" width="22" x="82" y="82" /></g><g ID="l-1:21,22" style="text-rendering:optimizeSpeed;"><polygon points=" 41 93 41 41" style="fill:none;" /></g><g ID="r-1:21" style="fill:white; text-rendering:optimizeSpeed; stroke:white;" wurcs_mono_id="21"><circle cx="41" cy="93" r="11" style="clip-path:url(#clipPath21); stroke:none;" /><rect height="22" style="clip-path:url(#clipPath21); fill:rgb(255,212,0); stroke:none;" width="22" x="30" y="82" /><rect height="22" style="clip-path:url(#clipPath21); fill:none; stroke:black;" width="22" x="30" y="82" /><circle cx="41" cy="93" r="11" style="fill:none; stroke:black;" /></g><g ID="r-1:22" style="fill:white; text-rendering:optimizeSpeed; stroke:white;" wurcs_mono_id="22"><polygon points=" 41 52 30 30 52 30" style="stroke:none; clip-path:url(#clipPath22);" /><rect height="22" style="clip-path:url(#clipPath22); fill:rgb(237,28,36); stroke:none;" width="22" x="30" y="30" /><rect height="22" style="clip-path:url(#clipPath22); fill:none; stroke:black;" width="22" x="30" y="30" /><polygon points=" 41 52 30 30 52 30" style="fill:none; stroke:black;" /></g><g ID="li-1:21,22" style="fill:white; text-rendering:optimizeSpeed; font-family:'Serif'; stroke:white;"><rect height="10" style="stroke:none;" width="6" x="30" y="69" /><path d="M32.1094 78.3906 Q32.1094 78.0625 32.3359 77.8359 Q32.5625 77.6094 32.8906 77.6094 Q33.2188 77.6094 33.4453 77.8359 Q33.6719 78.0625 33.6719 78.3906 Q33.6719 78.7188 33.4453 78.9453 Q33.2188 79.1719 32.8906 79.1719 Q32.5625 79.1719 32.3359 78.9453 Q32.1094 78.7188 32.1094 78.3906 ZM30.8125 70.6406 Q31.4375 70.3594 32 70.2266 Q32.5625 70.0938 33.0469 70.0938 Q34.3438 70.0938 35.1016 70.7188 Q35.8594 71.3438 35.8594 72.4062 Q35.8594 73.5 35.2109 74.1953 Q34.5625 74.8906 33.25 75.1875 L33.25 76.6719 L32.5312 76.6719 L32.5312 74.75 Q33.5625 74.5 34.0938 73.9062 Q34.625 73.3125 34.625 72.4062 Q34.625 71.5938 34.1953 71.1328 Q33.7656 70.6719 33.0312 70.6719 Q32.3594 70.6719 31.9297 71.0547 Q31.5 71.4375 31.3906 72.1562 L30.8125 72.1562 L30.8125 70.6406 Z" style="fill:black; stroke:none;" /><rect height="10" style="stroke:none;" width="6" x="30" y="55" /><path d="M32.1094 64.3906 Q32.1094 64.0625 32.3359 63.8359 Q32.5625 63.6094 32.8906 63.6094 Q33.2188 63.6094 33.4453 63.8359 Q33.6719 64.0625 33.6719 64.3906 Q33.6719 64.7188 33.4453 64.9453 Q33.2188 65.1719 32.8906 65.1719 Q32.5625 65.1719 32.3359 64.9453 Q32.1094 64.7188 32.1094 64.3906 ZM30.8125 56.6406 Q31.4375 56.3594 32 56.2266 Q32.5625 56.0938 33.0469 56.0938 Q34.3438 56.0938 35.1016 56.7188 Q35.8594 57.3438 35.8594 58.4062 Q35.8594 59.5 35.2109 60.1953 Q34.5625 60.8906 33.25 61.1875 L33.25 62.6719 L32.5312 62.6719 L32.5312 60.75 Q33.5625 60.5 34.0938 59.9062 Q34.625 59.3125 34.625 58.4062 Q34.625 57.5938 34.1953 57.1328 Q33.7656 56.6719 33.0312 56.6719 Q32.3594 56.6719 31.9297 57.0547 Q31.5 57.4375 31.3906 58.1562 L30.8125 58.1562 L30.8125 56.6406 Z" style="fill:black; stroke:none;" /></g><g ID="li-1:18,21" style="fill:white; text-rendering:optimizeSpeed; font-family:'Serif'; stroke:white;"><rect height="10" style="stroke:none;" width="6" x="71" y="96" /><path d="M73.1094 105.3906 Q73.1094 105.0625 73.3359 104.8359 Q73.5625 104.6094 73.8906 104.6094 Q74.2188 104.6094 74.4453 104.8359 Q74.6719 105.0625 74.6719 105.3906 Q74.6719 105.7188 74.4453 105.9453 Q74.2188 106.1719 73.8906 106.1719 Q73.5625 106.1719 73.3359 105.9453 Q73.1094 105.7188 73.1094 105.3906 ZM71.8125 97.6406 Q72.4375 97.3594 73 97.2266 Q73.5625 97.0938 74.0469 97.0938 Q75.3438 97.0938 76.1016 97.7188 Q76.8594 98.3438 76.8594 99.4062 Q76.8594 100.5 76.2109 101.1953 Q75.5625 101.8906 74.25 102.1875 L74.25 103.6719 L73.5312 103.6719 L73.5312 101.75 Q74.5625 101.5 75.0938 100.9062 Q75.625 100.3125 75.625 99.4062 Q75.625 98.5938 75.1953 98.1328 Q74.7656 97.6719 74.0312 97.6719 Q73.3594 97.6719 72.9297 98.0547 Q72.5 98.4375 72.3906 99.1562 L71.8125 99.1562 L71.8125 97.6406 Z" style="fill:black; stroke:none;" /><rect height="10" style="stroke:none;" width="6" x="57" y="96" /><path d="M59.1094 105.3906 Q59.1094 105.0625 59.3359 104.8359 Q59.5625 104.6094 59.8906 104.6094 Q60.2188 104.6094 60.4453 104.8359 Q60.6719 105.0625 60.6719 105.3906 Q60.6719 105.7188 60.4453 105.9453 Q60.2188 106.1719 59.8906 106.1719 Q59.5625 106.1719 59.3359 105.9453 Q59.1094 105.7188 59.1094 105.3906 ZM57.8125 97.6406 Q58.4375 97.3594 59 97.2266 Q59.5625 97.0938 60.0469 97.0938 Q61.3438 97.0938 62.1016 97.7188 Q62.8594 98.3438 62.8594 99.4062 Q62.8594 100.5 62.2109 101.1953 Q61.5625 101.8906 60.25 102.1875 L60.25 103.6719 L59.5312 103.6719 L59.5312 101.75 Q60.5625 101.5 61.0938 100.9062 Q61.625 100.3125 61.625 99.4062 Q61.625 98.5938 61.1953 98.1328 Q60.7656 97.6719 60.0312 97.6719 Q59.3594 97.6719 58.9297 98.0547 Q58.5 98.4375 58.3906 99.1562 L57.8125 99.1562 L57.8125 97.6406 Z" style="fill:black; stroke:none;" /></g><g ID="li-1:16,17" style="fill:white; text-rendering:optimizeSpeed; font-family:'Serif'; stroke:white;"><rect height="10" style="stroke:none;" width="6" x="131" y="162" /><path d="M133.1094 171.3906 Q133.1094 171.0625 133.3359 170.8359 Q133.5625 170.6094 133.8906 170.6094 Q134.2188 170.6094 134.4453 170.8359 Q134.6719 171.0625 134.6719 171.3906 Q134.6719 171.7188 134.4453 171.9453 Q134.2188 172.1719 133.8906 172.1719 Q133.5625 172.1719 133.3359 171.9453 Q133.1094 171.7188 133.1094 171.3906 ZM131.8125 163.6406 Q132.4375 163.3594 133 163.2266 Q133.5625 163.0938 134.0469 163.0938 Q135.3438 163.0938 136.1016 163.7188 Q136.8594 164.3438 136.8594 165.4062 Q136.8594 166.5 136.2109 167.1953 Q135.5625 167.8906 134.25 168.1875 L134.25 169.6719 L133.5312 169.6719 L133.5312 167.75 Q134.5625 167.5 135.0938 166.9062 Q135.625 166.3125 135.625 165.4062 Q135.625 164.5938 135.1953 164.1328 Q134.7656 163.6719 134.0312 163.6719 Q133.3594 163.6719 132.9297 164.0547 Q132.5 164.4375 132.3906 165.1562 L131.8125 165.1562 L131.8125 163.6406 Z" style="fill:black; stroke:none;" /><rect height="10" style="stroke:none;" width="6" x="112" y="181" /><path d="M114.1094 190.3906 Q114.1094 190.0625 114.3359 189.8359 Q114.5625 189.6094 114.8906 189.6094 Q115.2188 189.6094 115.4453 189.8359 Q115.6719 190.0625 115.6719 190.3906 Q115.6719 190.7188 115.4453 190.9453 Q115.2188 191.1719 114.8906 191.1719 Q114.5625 191.1719 114.3359 190.9453 Q114.1094 190.7188 114.1094 190.3906 ZM112.8125 182.6406 Q113.4375 182.3594 114 182.2266 Q114.5625 182.0938 115.0469 182.0938 Q116.3438 182.0938 117.1016 182.7188 Q117.8594 183.3438 117.8594 184.4062 Q117.8594 185.5 117.2109 186.1953 Q116.5625 186.8906 115.25 187.1875 L115.25 188.6719 L114.5312 188.6719 L114.5312 186.75 Q115.5625 186.5 116.0938 185.9062 Q116.625 185.3125 116.625 184.4062 Q116.625 183.5938 116.1953 183.1328 Q115.7656 182.6719 115.0312 182.6719 Q114.3594 182.6719 113.9297 183.0547 Q113.5 183.4375 113.3906 184.1562 L112.8125 184.1562 L112.8125 182.6406 Z" style="fill:black; stroke:none;" /></g><g ID="li-1:16,18" style="fill:white; text-rendering:optimizeSpeed; font-family:'Serif'; stroke:white;"><rect height="10" style="stroke:none;" width="6" x="119" y="129" /><path d="M121.1094 138.3906 Q121.1094 138.0625 121.3359 137.8359 Q121.5625 137.6094 121.8906 137.6094 Q122.2188 137.6094 122.4453 137.8359 Q122.6719 138.0625 122.6719 138.3906 Q122.6719 138.7188 122.4453 138.9453 Q122.2188 139.1719 121.8906 139.1719 Q121.5625 139.1719 121.3359 138.9453 Q121.1094 138.7188 121.1094 138.3906 ZM119.8125 130.6406 Q120.4375 130.3594 121 130.2266 Q121.5625 130.0938 122.0469 130.0938 Q123.3438 130.0938 124.1016 130.7188 Q124.8594 131.3438 124.8594 132.4062 Q124.8594 133.5 124.2109 134.1953 Q123.5625 134.8906 122.25 135.1875 L122.25 136.6719 L121.5312 136.6719 L121.5312 134.75 Q122.5625 134.5 123.0938 133.9062 Q123.625 133.3125 123.625 132.4062 Q123.625 131.5938 123.1953 131.1328 Q122.7656 130.6719 122.0312 130.6719 Q121.3594 130.6719 120.9297 131.0547 Q120.5 131.4375 120.3906 132.1562 L119.8125 132.1562 L119.8125 130.6406 Z" style="fill:black; stroke:none;" /><rect height="10" style="stroke:none;" width="6" x="101" y="110" /><path d="M103.1094 119.3906 Q103.1094 119.0625 103.3359 118.8359 Q103.5625 118.6094 103.8906 118.6094 Q104.2188 118.6094 104.4453 118.8359 Q104.6719 119.0625 104.6719 119.3906 Q104.6719 119.7188 104.4453 119.9453 Q104.2188 120.1719 103.8906 120.1719 Q103.5625 120.1719 103.3359 119.9453 Q103.1094 119.7188 103.1094 119.3906 ZM101.8125 111.6406 Q102.4375 111.3594 103 111.2266 Q103.5625 111.0938 104.0469 111.0938 Q105.3438 111.0938 106.1016 111.7188 Q106.8594 112.3438 106.8594 113.4062 Q106.8594 114.5 106.2109 115.1953 Q105.5625 115.8906 104.25 116.1875 L104.25 117.6719 L103.5312 117.6719 L103.5312 115.75 Q104.5625 115.5 105.0938 114.9062 Q105.625 114.3125 105.625 113.4062 Q105.625 112.5938 105.1953 112.1328 Q104.7656 111.6719 104.0312 111.6719 Q103.3594 111.6719 102.9297 112.0547 Q102.5 112.4375 102.3906 113.1562 L101.8125 113.1562 L101.8125 111.6406 Z" style="fill:black; stroke:none;" /></g><g ID="li-1:15,16" style="fill:white; text-rendering:optimizeSpeed; font-family:'Serif'; stroke:white;"><rect height="10" style="stroke:none;" width="6" x="175" y="148" /><path d="M177.1094 157.3906 Q177.1094 157.0625 177.3359 156.8359 Q177.5625 156.6094 177.8906 156.6094 Q178.2188 156.6094 178.4453 156.8359 Q178.6719 157.0625 178.6719 157.3906 Q178.6719 157.7188 178.4453 157.9453 Q178.2188 158.1719 177.8906 158.1719 Q177.5625 158.1719 177.3359 157.9453 Q177.1094 157.7188 177.1094 157.3906 ZM175.8125 149.6406 Q176.4375 149.3594 177 149.2266 Q177.5625 149.0938 178.0469 149.0938 Q179.3438 149.0938 180.1016 149.7188 Q180.8594 150.3438 180.8594 151.4062 Q180.8594 152.5 180.2109 153.1953 Q179.5625 153.8906 178.25 154.1875 L178.25 155.6719 L177.5312 155.6719 L177.5312 153.75 Q178.5625 153.5 179.0938 152.9062 Q179.625 152.3125 179.625 151.4062 Q179.625 150.5938 179.1953 150.1328 Q178.7656 149.6719 178.0312 149.6719 Q177.3594 149.6719 176.9297 150.0547 Q176.5 150.4375 176.3906 151.1562 L175.8125 151.1562 L175.8125 149.6406 Z" style="fill:black; stroke:none;" /><rect height="10" style="stroke:none;" width="6" x="161" y="148" /><path d="M163.1094 157.3906 Q163.1094 157.0625 163.3359 156.8359 Q163.5625 156.6094 163.8906 156.6094 Q164.2188 156.6094 164.4453 156.8359 Q164.6719 157.0625 164.6719 157.3906 Q164.6719 157.7188 164.4453 157.9453 Q164.2188 158.1719 163.8906 158.1719 Q163.5625 158.1719 163.3359 157.9453 Q163.1094 157.7188 163.1094 157.3906 ZM161.8125 149.6406 Q162.4375 149.3594 163 149.2266 Q163.5625 149.0938 164.0469 149.0938 Q165.3438 149.0938 166.1016 149.7188 Q166.8594 150.3438 166.8594 151.4062 Q166.8594 152.5 166.2109 153.1953 Q165.5625 153.8906 164.25 154.1875 L164.25 155.6719 L163.5312 155.6719 L163.5312 153.75 Q164.5625 153.5 165.0938 152.9062 Q165.625 152.3125 165.625 151.4062 Q165.625 150.5938 165.1953 150.1328 Q164.7656 149.6719 164.0312 149.6719 Q163.3594 149.6719 162.9297 150.0547 Q162.5 150.4375 162.3906 151.1562 L161.8125 151.1562 L161.8125 149.6406 Z" style="fill:black; stroke:none;" /></g><g ID="li-1:14,15" style="fill:white; text-rendering:optimizeSpeed; font-family:'Serif'; stroke:white;"><rect height="10" style="stroke:none;" width="6" x="227" y="148" /><path d="M229.1094 157.3906 Q229.1094 157.0625 229.3359 156.8359 Q229.5625 156.6094 229.8906 156.6094 Q230.2188 156.6094 230.4453 156.8359 Q230.6719 157.0625 230.6719 157.3906 Q230.6719 157.7188 230.4453 157.9453 Q230.2188 158.1719 229.8906 158.1719 Q229.5625 158.1719 229.3359 157.9453 Q229.1094 157.7188 229.1094 157.3906 ZM227.8125 149.6406 Q228.4375 149.3594 229 149.2266 Q229.5625 149.0938 230.0469 149.0938 Q231.3438 149.0938 232.1016 149.7188 Q232.8594 150.3438 232.8594 151.4062 Q232.8594 152.5 232.2109 153.1953 Q231.5625 153.8906 230.25 154.1875 L230.25 155.6719 L229.5312 155.6719 L229.5312 153.75 Q230.5625 153.5 231.0938 152.9062 Q231.625 152.3125 231.625 151.4062 Q231.625 150.5938 231.1953 150.1328 Q230.7656 149.6719 230.0312 149.6719 Q229.3594 149.6719 228.9297 150.0547 Q228.5 150.4375 228.3906 151.1562 L227.8125 151.1562 L227.8125 149.6406 Z" style="fill:black; stroke:none;" /><rect height="10" style="stroke:none;" width="6" x="213" y="148" /><path d="M215.1094 157.3906 Q215.1094 157.0625 215.3359 156.8359 Q215.5625 156.6094 215.8906 156.6094 Q216.2188 156.6094 216.4453 156.8359 Q216.6719 157.0625 216.6719 157.3906 Q216.6719 157.7188 216.4453 157.9453 Q216.2188 158.1719 215.8906 158.1719 Q215.5625 158.1719 215.3359 157.9453 Q215.1094 157.7188 215.1094 157.3906 ZM213.8125 149.6406 Q214.4375 149.3594 215 149.2266 Q215.5625 149.0938 216.0469 149.0938 Q217.3438 149.0938 218.1016 149.7188 Q218.8594 150.3438 218.8594 151.4062 Q218.8594 152.5 218.2109 153.1953 Q217.5625 153.8906 216.25 154.1875 L216.25 155.6719 L215.5312 155.6719 L215.5312 153.75 Q216.5625 153.5 217.0938 152.9062 Q217.625 152.3125 217.625 151.4062 Q217.625 150.5938 217.1953 150.1328 Q216.7656 149.6719 216.0312 149.6719 Q215.3594 149.6719 214.9297 150.0547 Q214.5 150.4375 214.3906 151.1562 L213.8125 151.1562 L213.8125 149.6406 Z" style="fill:black; stroke:none;" /></g><g ID="li-1:13,14" style="fill:white; text-rendering:optimizeSpeed; font-family:'Serif'; stroke:white;"><rect height="10" style="stroke:none;" width="6" x="279" y="148" /><path d="M281.1094 157.3906 Q281.1094 157.0625 281.3359 156.8359 Q281.5625 156.6094 281.8906 156.6094 Q282.2188 156.6094 282.4453 156.8359 Q282.6719 157.0625 282.6719 157.3906 Q282.6719 157.7188 282.4453 157.9453 Q282.2188 158.1719 281.8906 158.1719 Q281.5625 158.1719 281.3359 157.9453 Q281.1094 157.7188 281.1094 157.3906 ZM279.8125 149.6406 Q280.4375 149.3594 281 149.2266 Q281.5625 149.0938 282.0469 149.0938 Q283.3438 149.0938 284.1016 149.7188 Q284.8594 150.3438 284.8594 151.4062 Q284.8594 152.5 284.2109 153.1953 Q283.5625 153.8906 282.25 154.1875 L282.25 155.6719 L281.5312 155.6719 L281.5312 153.75 Q282.5625 153.5 283.0938 152.9062 Q283.625 152.3125 283.625 151.4062 Q283.625 150.5938 283.1953 150.1328 Q282.7656 149.6719 282.0312 149.6719 Q281.3594 149.6719 280.9297 150.0547 Q280.5 150.4375 280.3906 151.1562 L279.8125 151.1562 L279.8125 149.6406 Z" style="fill:black; stroke:none;" /><rect height="10" style="stroke:none;" width="6" x="265" y="148" /><path d="M267.1094 157.3906 Q267.1094 157.0625 267.3359 156.8359 Q267.5625 156.6094 267.8906 156.6094 Q268.2188 156.6094 268.4453 156.8359 Q268.6719 157.0625 268.6719 157.3906 Q268.6719 157.7188 268.4453 157.9453 Q268.2188 158.1719 267.8906 158.1719 Q267.5625 158.1719 267.3359 157.9453 Q267.1094 157.7188 267.1094 157.3906 ZM265.8125 149.6406 Q266.4375 149.3594 267 149.2266 Q267.5625 149.0938 268.0469 149.0938 Q269.3438 149.0938 270.1016 149.7188 Q270.8594 150.3438 270.8594 151.4062 Q270.8594 152.5 270.2109 153.1953 Q269.5625 153.8906 268.25 154.1875 L268.25 155.6719 L267.5312 155.6719 L267.5312 153.75 Q268.5625 153.5 269.0938 152.9062 Q269.625 152.3125 269.625 151.4062 Q269.625 150.5938 269.1953 150.1328 Q268.7656 149.6719 268.0312 149.6719 Q267.3594 149.6719 266.9297 150.0547 Q266.5 150.4375 266.3906 151.1562 L265.8125 151.1562 L265.8125 149.6406 Z" style="fill:black; stroke:none;" /></g><g ID="li-1:12,13" style="fill:white; text-rendering:optimizeSpeed; font-family:'Serif'; stroke:white;"><rect height="10" style="stroke:none;" width="6" x="331" y="148" /><path d="M333.1094 157.3906 Q333.1094 157.0625 333.3359 156.8359 Q333.5625 156.6094 333.8906 156.6094 Q334.2188 156.6094 334.4453 156.8359 Q334.6719 157.0625 334.6719 157.3906 Q334.6719 157.7188 334.4453 157.9453 Q334.2188 158.1719 333.8906 158.1719 Q333.5625 158.1719 333.3359 157.9453 Q333.1094 157.7188 333.1094 157.3906 ZM331.8125 149.6406 Q332.4375 149.3594 333 149.2266 Q333.5625 149.0938 334.0469 149.0938 Q335.3438 149.0938 336.1016 149.7188 Q336.8594 150.3438 336.8594 151.4062 Q336.8594 152.5 336.2109 153.1953 Q335.5625 153.8906 334.25 154.1875 L334.25 155.6719 L333.5312 155.6719 L333.5312 153.75 Q334.5625 153.5 335.0938 152.9062 Q335.625 152.3125 335.625 151.4062 Q335.625 150.5938 335.1953 150.1328 Q334.7656 149.6719 334.0312 149.6719 Q333.3594 149.6719 332.9297 150.0547 Q332.5 150.4375 332.3906 151.1562 L331.8125 151.1562 L331.8125 149.6406 Z" style="fill:black; stroke:none;" /><rect height="10" style="stroke:none;" width="6" x="317" y="148" /><path d="M319.1094 157.3906 Q319.1094 157.0625 319.3359 156.8359 Q319.5625 156.6094 319.8906 156.6094 Q320.2188 156.6094 320.4453 156.8359 Q320.6719 157.0625 320.6719 157.3906 Q320.6719 157.7188 320.4453 157.9453 Q320.2188 158.1719 319.8906 158.1719 Q319.5625 158.1719 319.3359 157.9453 Q319.1094 157.7188 319.1094 157.3906 ZM317.8125 149.6406 Q318.4375 149.3594 319 149.2266 Q319.5625 149.0938 320.0469 149.0938 Q321.3438 149.0938 322.1016 149.7188 Q322.8594 150.3438 322.8594 151.4062 Q322.8594 152.5 322.2109 153.1953 Q321.5625 153.8906 320.25 154.1875 L320.25 155.6719 L319.5312 155.6719 L319.5312 153.75 Q320.5625 153.5 321.0938 152.9062 Q321.625 152.3125 321.625 151.4062 Q321.625 150.5938 321.1953 150.1328 Q320.7656 149.6719 320.0312 149.6719 Q319.3594 149.6719 318.9297 150.0547 Q318.5 150.4375 318.3906 151.1562 L317.8125 151.1562 L317.8125 149.6406 Z" style="fill:black; stroke:none;" /></g><g ID="li-1:11,12" style="fill:white; text-rendering:optimizeSpeed; font-family:'Serif'; stroke:white;"><rect height="10" style="stroke:none;" width="6" x="383" y="148" /><path d="M385.1094 157.3906 Q385.1094 157.0625 385.3359 156.8359 Q385.5625 156.6094 385.8906 156.6094 Q386.2188 156.6094 386.4453 156.8359 Q386.6719 157.0625 386.6719 157.3906 Q386.6719 157.7188 386.4453 157.9453 Q386.2188 158.1719 385.8906 158.1719 Q385.5625 158.1719 385.3359 157.9453 Q385.1094 157.7188 385.1094 157.3906 ZM383.8125 149.6406 Q384.4375 149.3594 385 149.2266 Q385.5625 149.0938 386.0469 149.0938 Q387.3438 149.0938 388.1016 149.7188 Q388.8594 150.3438 388.8594 151.4062 Q388.8594 152.5 388.2109 153.1953 Q387.5625 153.8906 386.25 154.1875 L386.25 155.6719 L385.5312 155.6719 L385.5312 153.75 Q386.5625 153.5 387.0938 152.9062 Q387.625 152.3125 387.625 151.4062 Q387.625 150.5938 387.1953 150.1328 Q386.7656 149.6719 386.0312 149.6719 Q385.3594 149.6719 384.9297 150.0547 Q384.5 150.4375 384.3906 151.1562 L383.8125 151.1562 L383.8125 149.6406 Z" style="fill:black; stroke:none;" /><rect height="10" style="stroke:none;" width="6" x="369" y="148" /><path d="M371.1094 157.3906 Q371.1094 157.0625 371.3359 156.8359 Q371.5625 156.6094 371.8906 156.6094 Q372.2188 156.6094 372.4453 156.8359 Q372.6719 157.0625 372.6719 157.3906 Q372.6719 157.7188 372.4453 157.9453 Q372.2188 158.1719 371.8906 158.1719 Q371.5625 158.1719 371.3359 157.9453 Q371.1094 157.7188 371.1094 157.3906 ZM369.8125 149.6406 Q370.4375 149.3594 371 149.2266 Q371.5625 149.0938 372.0469 149.0938 Q373.3438 149.0938 374.1016 149.7188 Q374.8594 150.3438 374.8594 151.4062 Q374.8594 152.5 374.2109 153.1953 Q373.5625 153.8906 372.25 154.1875 L372.25 155.6719 L371.5312 155.6719 L371.5312 153.75 Q372.5625 153.5 373.0938 152.9062 Q373.625 152.3125 373.625 151.4062 Q373.625 150.5938 373.1953 150.1328 Q372.7656 149.6719 372.0312 149.6719 Q371.3594 149.6719 370.9297 150.0547 Q370.5 150.4375 370.3906 151.1562 L369.8125 151.1562 L369.8125 149.6406 Z" style="fill:black; stroke:none;" /></g><g ID="li-1:10,11" style="fill:white; text-rendering:optimizeSpeed; font-family:'Serif'; stroke:white;"><rect height="10" style="stroke:none;" width="6" x="435" y="148" /><path d="M437.1094 157.3906 Q437.1094 157.0625 437.3359 156.8359 Q437.5625 156.6094 437.8906 156.6094 Q438.2188 156.6094 438.4453 156.8359 Q438.6719 157.0625 438.6719 157.3906 Q438.6719 157.7188 438.4453 157.9453 Q438.2188 158.1719 437.8906 158.1719 Q437.5625 158.1719 437.3359 157.9453 Q437.1094 157.7188 437.1094 157.3906 ZM435.8125 149.6406 Q436.4375 149.3594 437 149.2266 Q437.5625 149.0938 438.0469 149.0938 Q439.3438 149.0938 440.1016 149.7188 Q440.8594 150.3438 440.8594 151.4062 Q440.8594 152.5 440.2109 153.1953 Q439.5625 153.8906 438.25 154.1875 L438.25 155.6719 L437.5312 155.6719 L437.5312 153.75 Q438.5625 153.5 439.0938 152.9062 Q439.625 152.3125 439.625 151.4062 Q439.625 150.5938 439.1953 150.1328 Q438.7656 149.6719 438.0312 149.6719 Q437.3594 149.6719 436.9297 150.0547 Q436.5 150.4375 436.3906 151.1562 L435.8125 151.1562 L435.8125 149.6406 Z" style="fill:black; stroke:none;" /><rect height="10" style="stroke:none;" width="6" x="421" y="148" /><path d="M423.1094 157.3906 Q423.1094 157.0625 423.3359 156.8359 Q423.5625 156.6094 423.8906 156.6094 Q424.2188 156.6094 424.4453 156.8359 Q424.6719 157.0625 424.6719 157.3906 Q424.6719 157.7188 424.4453 157.9453 Q424.2188 158.1719 423.8906 158.1719 Q423.5625 158.1719 423.3359 157.9453 Q423.1094 157.7188 423.1094 157.3906 ZM421.8125 149.6406 Q422.4375 149.3594 423 149.2266 Q423.5625 149.0938 424.0469 149.0938 Q425.3438 149.0938 426.1016 149.7188 Q426.8594 150.3438 426.8594 151.4062 Q426.8594 152.5 426.2109 153.1953 Q425.5625 153.8906 424.25 154.1875 L424.25 155.6719 L423.5312 155.6719 L423.5312 153.75 Q424.5625 153.5 425.0938 152.9062 Q425.625 152.3125 425.625 151.4062 Q425.625 150.5938 425.1953 150.1328 Q424.7656 149.6719 424.0312 149.6719 Q423.3594 149.6719 422.9297 150.0547 Q422.5 150.4375 422.3906 151.1562 L421.8125 151.1562 L421.8125 149.6406 Z" style="fill:black; stroke:none;" /></g><g ID="li-1:9,10" style="fill:white; text-rendering:optimizeSpeed; font-family:'Serif'; stroke:white;"><rect height="10" style="stroke:none;" width="6" x="487" y="148" /><path d="M489.1094 157.3906 Q489.1094 157.0625 489.3359 156.8359 Q489.5625 156.6094 489.8906 156.6094 Q490.2188 156.6094 490.4453 156.8359 Q490.6719 157.0625 490.6719 157.3906 Q490.6719 157.7188 490.4453 157.9453 Q490.2188 158.1719 489.8906 158.1719 Q489.5625 158.1719 489.3359 157.9453 Q489.1094 157.7188 489.1094 157.3906 ZM487.8125 149.6406 Q488.4375 149.3594 489 149.2266 Q489.5625 149.0938 490.0469 149.0938 Q491.3438 149.0938 492.1016 149.7188 Q492.8594 150.3438 492.8594 151.4062 Q492.8594 152.5 492.2109 153.1953 Q491.5625 153.8906 490.25 154.1875 L490.25 155.6719 L489.5312 155.6719 L489.5312 153.75 Q490.5625 153.5 491.0938 152.9062 Q491.625 152.3125 491.625 151.4062 Q491.625 150.5938 491.1953 150.1328 Q490.7656 149.6719 490.0312 149.6719 Q489.3594 149.6719 488.9297 150.0547 Q488.5 150.4375 488.3906 151.1562 L487.8125 151.1562 L487.8125 149.6406 Z" style="fill:black; stroke:none;" /><rect height="10" style="stroke:none;" width="6" x="473" y="148" /><path d="M475.1094 157.3906 Q475.1094 157.0625 475.3359 156.8359 Q475.5625 156.6094 475.8906 156.6094 Q476.2188 156.6094 476.4453 156.8359 Q476.6719 157.0625 476.6719 157.3906 Q476.6719 157.7188 476.4453 157.9453 Q476.2188 158.1719 475.8906 158.1719 Q475.5625 158.1719 475.3359 157.9453 Q475.1094 157.7188 475.1094 157.3906 ZM473.8125 149.6406 Q474.4375 149.3594 475 149.2266 Q475.5625 149.0938 476.0469 149.0938 Q477.3438 149.0938 478.1016 149.7188 Q478.8594 150.3438 478.8594 151.4062 Q478.8594 152.5 478.2109 153.1953 Q477.5625 153.8906 476.25 154.1875 L476.25 155.6719 L475.5312 155.6719 L475.5312 153.75 Q476.5625 153.5 477.0938 152.9062 Q477.625 152.3125 477.625 151.4062 Q477.625 150.5938 477.1953 150.1328 Q476.7656 149.6719 476.0312 149.6719 Q475.3594 149.6719 474.9297 150.0547 Q474.5 150.4375 474.3906 151.1562 L473.8125 151.1562 L473.8125 149.6406 Z" style="fill:black; stroke:none;" /></g><g ID="li-1:8,9" style="fill:white; text-rendering:optimizeSpeed; font-family:'Serif'; stroke:white;"><rect height="10" style="stroke:none;" width="6" x="539" y="148" /><path d="M541.1094 157.3906 Q541.1094 157.0625 541.3359 156.8359 Q541.5625 156.6094 541.8906 156.6094 Q542.2188 156.6094 542.4453 156.8359 Q542.6719 157.0625 542.6719 157.3906 Q542.6719 157.7188 542.4453 157.9453 Q542.2188 158.1719 541.8906 158.1719 Q541.5625 158.1719 541.3359 157.9453 Q541.1094 157.7188 541.1094 157.3906 ZM539.8125 149.6406 Q540.4375 149.3594 541 149.2266 Q541.5625 149.0938 542.0469 149.0938 Q543.3438 149.0938 544.1016 149.7188 Q544.8594 150.3438 544.8594 151.4062 Q544.8594 152.5 544.2109 153.1953 Q543.5625 153.8906 542.25 154.1875 L542.25 155.6719 L541.5312 155.6719 L541.5312 153.75 Q542.5625 153.5 543.0938 152.9062 Q543.625 152.3125 543.625 151.4062 Q543.625 150.5938 543.1953 150.1328 Q542.7656 149.6719 542.0312 149.6719 Q541.3594 149.6719 540.9297 150.0547 Q540.5 150.4375 540.3906 151.1562 L539.8125 151.1562 L539.8125 149.6406 Z" style="fill:black; stroke:none;" /><rect height="10" style="stroke:none;" width="6" x="525" y="148" /><path d="M527.1094 157.3906 Q527.1094 157.0625 527.3359 156.8359 Q527.5625 156.6094 527.8906 156.6094 Q528.2188 156.6094 528.4453 156.8359 Q528.6719 157.0625 528.6719 157.3906 Q528.6719 157.7188 528.4453 157.9453 Q528.2188 158.1719 527.8906 158.1719 Q527.5625 158.1719 527.3359 157.9453 Q527.1094 157.7188 527.1094 157.3906 ZM525.8125 149.6406 Q526.4375 149.3594 527 149.2266 Q527.5625 149.0938 528.0469 149.0938 Q529.3438 149.0938 530.1016 149.7188 Q530.8594 150.3438 530.8594 151.4062 Q530.8594 152.5 530.2109 153.1953 Q529.5625 153.8906 528.25 154.1875 L528.25 155.6719 L527.5312 155.6719 L527.5312 153.75 Q528.5625 153.5 529.0938 152.9062 Q529.625 152.3125 529.625 151.4062 Q529.625 150.5938 529.1953 150.1328 Q528.7656 149.6719 528.0312 149.6719 Q527.3594 149.6719 526.9297 150.0547 Q526.5 150.4375 526.3906 151.1562 L525.8125 151.1562 L525.8125 149.6406 Z" style="fill:black; stroke:none;" /></g><g ID="li-1:7,8" style="fill:white; text-rendering:optimizeSpeed; font-family:'Serif'; stroke:white;"><rect height="10" style="stroke:none;" width="6" x="591" y="148" /><path d="M593.1094 157.3906 Q593.1094 157.0625 593.3359 156.8359 Q593.5625 156.6094 593.8906 156.6094 Q594.2188 156.6094 594.4453 156.8359 Q594.6719 157.0625 594.6719 157.3906 Q594.6719 157.7188 594.4453 157.9453 Q594.2188 158.1719 593.8906 158.1719 Q593.5625 158.1719 593.3359 157.9453 Q593.1094 157.7188 593.1094 157.3906 ZM591.8125 149.6406 Q592.4375 149.3594 593 149.2266 Q593.5625 149.0938 594.0469 149.0938 Q595.3438 149.0938 596.1016 149.7188 Q596.8594 150.3438 596.8594 151.4062 Q596.8594 152.5 596.2109 153.1953 Q595.5625 153.8906 594.25 154.1875 L594.25 155.6719 L593.5312 155.6719 L593.5312 153.75 Q594.5625 153.5 595.0938 152.9062 Q595.625 152.3125 595.625 151.4062 Q595.625 150.5938 595.1953 150.1328 Q594.7656 149.6719 594.0312 149.6719 Q593.3594 149.6719 592.9297 150.0547 Q592.5 150.4375 592.3906 151.1562 L591.8125 151.1562 L591.8125 149.6406 Z" style="fill:black; stroke:none;" /><rect height="10" style="stroke:none;" width="6" x="577" y="148" /><path d="M579.1094 157.3906 Q579.1094 157.0625 579.3359 156.8359 Q579.5625 156.6094 579.8906 156.6094 Q580.2188 156.6094 580.4453 156.8359 Q580.6719 157.0625 580.6719 157.3906 Q580.6719 157.7188 580.4453 157.9453 Q580.2188 158.1719 579.8906 158.1719 Q579.5625 158.1719 579.3359 157.9453 Q579.1094 157.7188 579.1094 157.3906 ZM577.8125 149.6406 Q578.4375 149.3594 579 149.2266 Q579.5625 149.0938 580.0469 149.0938 Q581.3438 149.0938 582.1016 149.7188 Q582.8594 150.3438 582.8594 151.4062 Q582.8594 152.5 582.2109 153.1953 Q581.5625 153.8906 580.25 154.1875 L580.25 155.6719 L579.5312 155.6719 L579.5312 153.75 Q580.5625 153.5 581.0938 152.9062 Q581.625 152.3125 581.625 151.4062 Q581.625 150.5938 581.1953 150.1328 Q580.7656 149.6719 580.0312 149.6719 Q579.3594 149.6719 578.9297 150.0547 Q578.5 150.4375 578.3906 151.1562 L577.8125 151.1562 L577.8125 149.6406 Z" style="fill:black; stroke:none;" /></g><g ID="li-1:6,7" style="fill:white; text-rendering:optimizeSpeed; font-family:'Serif'; stroke:white;"><rect height="10" style="stroke:none;" width="6" x="643" y="148" /><path d="M645.1094 157.3906 Q645.1094 157.0625 645.3359 156.8359 Q645.5625 156.6094 645.8906 156.6094 Q646.2188 156.6094 646.4453 156.8359 Q646.6719 157.0625 646.6719 157.3906 Q646.6719 157.7188 646.4453 157.9453 Q646.2188 158.1719 645.8906 158.1719 Q645.5625 158.1719 645.3359 157.9453 Q645.1094 157.7188 645.1094 157.3906 ZM643.8125 149.6406 Q644.4375 149.3594 645 149.2266 Q645.5625 149.0938 646.0469 149.0938 Q647.3438 149.0938 648.1016 149.7188 Q648.8594 150.3438 648.8594 151.4062 Q648.8594 152.5 648.2109 153.1953 Q647.5625 153.8906 646.25 154.1875 L646.25 155.6719 L645.5312 155.6719 L645.5312 153.75 Q646.5625 153.5 647.0938 152.9062 Q647.625 152.3125 647.625 151.4062 Q647.625 150.5938 647.1953 150.1328 Q646.7656 149.6719 646.0312 149.6719 Q645.3594 149.6719 644.9297 150.0547 Q644.5 150.4375 644.3906 151.1562 L643.8125 151.1562 L643.8125 149.6406 Z" style="fill:black; stroke:none;" /><rect height="10" style="stroke:none;" width="6" x="629" y="148" /><path d="M631.1094 157.3906 Q631.1094 157.0625 631.3359 156.8359 Q631.5625 156.6094 631.8906 156.6094 Q632.2188 156.6094 632.4453 156.8359 Q632.6719 157.0625 632.6719 157.3906 Q632.6719 157.7188 632.4453 157.9453 Q632.2188 158.1719 631.8906 158.1719 Q631.5625 158.1719 631.3359 157.9453 Q631.1094 157.7188 631.1094 157.3906 ZM629.8125 149.6406 Q630.4375 149.3594 631 149.2266 Q631.5625 149.0938 632.0469 149.0938 Q633.3438 149.0938 634.1016 149.7188 Q634.8594 150.3438 634.8594 151.4062 Q634.8594 152.5 634.2109 153.1953 Q633.5625 153.8906 632.25 154.1875 L632.25 155.6719 L631.5312 155.6719 L631.5312 153.75 Q632.5625 153.5 633.0938 152.9062 Q633.625 152.3125 633.625 151.4062 Q633.625 150.5938 633.1953 150.1328 Q632.7656 149.6719 632.0312 149.6719 Q631.3594 149.6719 630.9297 150.0547 Q630.5 150.4375 630.3906 151.1562 L629.8125 151.1562 L629.8125 149.6406 Z" style="fill:black; stroke:none;" /></g><g ID="li-1:5,6" style="fill:white; text-rendering:optimizeSpeed; font-family:'Serif'; stroke:white;"><rect height="10" style="stroke:none;" width="6" x="695" y="148" /><path d="M697.1094 157.3906 Q697.1094 157.0625 697.3359 156.8359 Q697.5625 156.6094 697.8906 156.6094 Q698.2188 156.6094 698.4453 156.8359 Q698.6719 157.0625 698.6719 157.3906 Q698.6719 157.7188 698.4453 157.9453 Q698.2188 158.1719 697.8906 158.1719 Q697.5625 158.1719 697.3359 157.9453 Q697.1094 157.7188 697.1094 157.3906 ZM695.8125 149.6406 Q696.4375 149.3594 697 149.2266 Q697.5625 149.0938 698.0469 149.0938 Q699.3438 149.0938 700.1016 149.7188 Q700.8594 150.3438 700.8594 151.4062 Q700.8594 152.5 700.2109 153.1953 Q699.5625 153.8906 698.25 154.1875 L698.25 155.6719 L697.5312 155.6719 L697.5312 153.75 Q698.5625 153.5 699.0938 152.9062 Q699.625 152.3125 699.625 151.4062 Q699.625 150.5938 699.1953 150.1328 Q698.7656 149.6719 698.0312 149.6719 Q697.3594 149.6719 696.9297 150.0547 Q696.5 150.4375 696.3906 151.1562 L695.8125 151.1562 L695.8125 149.6406 Z" style="fill:black; stroke:none;" /><rect height="10" style="stroke:none;" width="6" x="681" y="148" /><path d="M683.1094 157.3906 Q683.1094 157.0625 683.3359 156.8359 Q683.5625 156.6094 683.8906 156.6094 Q684.2188 156.6094 684.4453 156.8359 Q684.6719 157.0625 684.6719 157.3906 Q684.6719 157.7188 684.4453 157.9453 Q684.2188 158.1719 683.8906 158.1719 Q683.5625 158.1719 683.3359 157.9453 Q683.1094 157.7188 683.1094 157.3906 ZM681.8125 149.6406 Q682.4375 149.3594 683 149.2266 Q683.5625 149.0938 684.0469 149.0938 Q685.3438 149.0938 686.1016 149.7188 Q686.8594 150.3438 686.8594 151.4062 Q686.8594 152.5 686.2109 153.1953 Q685.5625 153.8906 684.25 154.1875 L684.25 155.6719 L683.5312 155.6719 L683.5312 153.75 Q684.5625 153.5 685.0938 152.9062 Q685.625 152.3125 685.625 151.4062 Q685.625 150.5938 685.1953 150.1328 Q684.7656 149.6719 684.0312 149.6719 Q683.3594 149.6719 682.9297 150.0547 Q682.5 150.4375 682.3906 151.1562 L681.8125 151.1562 L681.8125 149.6406 Z" style="fill:black; stroke:none;" /></g><g ID="li-1:4,5" style="fill:white; text-rendering:optimizeSpeed; font-family:'Serif'; stroke:white;"><rect height="10" style="stroke:none;" width="6" x="747" y="148" /><path d="M749.1094 157.3906 Q749.1094 157.0625 749.3359 156.8359 Q749.5625 156.6094 749.8906 156.6094 Q750.2188 156.6094 750.4453 156.8359 Q750.6719 157.0625 750.6719 157.3906 Q750.6719 157.7188 750.4453 157.9453 Q750.2188 158.1719 749.8906 158.1719 Q749.5625 158.1719 749.3359 157.9453 Q749.1094 157.7188 749.1094 157.3906 ZM747.8125 149.6406 Q748.4375 149.3594 749 149.2266 Q749.5625 149.0938 750.0469 149.0938 Q751.3438 149.0938 752.1016 149.7188 Q752.8594 150.3438 752.8594 151.4062 Q752.8594 152.5 752.2109 153.1953 Q751.5625 153.8906 750.25 154.1875 L750.25 155.6719 L749.5312 155.6719 L749.5312 153.75 Q750.5625 153.5 751.0938 152.9062 Q751.625 152.3125 751.625 151.4062 Q751.625 150.5938 751.1953 150.1328 Q750.7656 149.6719 750.0312 149.6719 Q749.3594 149.6719 748.9297 150.0547 Q748.5 150.4375 748.3906 151.1562 L747.8125 151.1562 L747.8125 149.6406 Z" style="fill:black; stroke:none;" /><rect height="10" style="stroke:none;" width="6" x="733" y="148" /><path d="M735.1094 157.3906 Q735.1094 157.0625 735.3359 156.8359 Q735.5625 156.6094 735.8906 156.6094 Q736.2188 156.6094 736.4453 156.8359 Q736.6719 157.0625 736.6719 157.3906 Q736.6719 157.7188 736.4453 157.9453 Q736.2188 158.1719 735.8906 158.1719 Q735.5625 158.1719 735.3359 157.9453 Q735.1094 157.7188 735.1094 157.3906 ZM733.8125 149.6406 Q734.4375 149.3594 735 149.2266 Q735.5625 149.0938 736.0469 149.0938 Q737.3438 149.0938 738.1016 149.7188 Q738.8594 150.3438 738.8594 151.4062 Q738.8594 152.5 738.2109 153.1953 Q737.5625 153.8906 736.25 154.1875 L736.25 155.6719 L735.5312 155.6719 L735.5312 153.75 Q736.5625 153.5 737.0938 152.9062 Q737.625 152.3125 737.625 151.4062 Q737.625 150.5938 737.1953 150.1328 Q736.7656 149.6719 736.0312 149.6719 Q735.3594 149.6719 734.9297 150.0547 Q734.5 150.4375 734.3906 151.1562 L733.8125 151.1562 L733.8125 149.6406 Z" style="fill:black; stroke:none;" /></g><g ID="li-1:3,4" style="fill:white; text-rendering:optimizeSpeed; font-family:'Serif'; stroke:white;"><rect height="10" style="stroke:none;" width="6" x="799" y="148" /><path d="M801.1094 157.3906 Q801.1094 157.0625 801.3359 156.8359 Q801.5625 156.6094 801.8906 156.6094 Q802.2188 156.6094 802.4453 156.8359 Q802.6719 157.0625 802.6719 157.3906 Q802.6719 157.7188 802.4453 157.9453 Q802.2188 158.1719 801.8906 158.1719 Q801.5625 158.1719 801.3359 157.9453 Q801.1094 157.7188 801.1094 157.3906 ZM799.8125 149.6406 Q800.4375 149.3594 801 149.2266 Q801.5625 149.0938 802.0469 149.0938 Q803.3438 149.0938 804.1016 149.7188 Q804.8594 150.3438 804.8594 151.4062 Q804.8594 152.5 804.2109 153.1953 Q803.5625 153.8906 802.25 154.1875 L802.25 155.6719 L801.5312 155.6719 L801.5312 153.75 Q802.5625 153.5 803.0938 152.9062 Q803.625 152.3125 803.625 151.4062 Q803.625 150.5938 803.1953 150.1328 Q802.7656 149.6719 802.0312 149.6719 Q801.3594 149.6719 800.9297 150.0547 Q800.5 150.4375 800.3906 151.1562 L799.8125 151.1562 L799.8125 149.6406 Z" style="fill:black; stroke:none;" /><rect height="10" style="stroke:none;" width="6" x="785" y="148" /><path d="M787.1094 157.3906 Q787.1094 157.0625 787.3359 156.8359 Q787.5625 156.6094 787.8906 156.6094 Q788.2188 156.6094 788.4453 156.8359 Q788.6719 157.0625 788.6719 157.3906 Q788.6719 157.7188 788.4453 157.9453 Q788.2188 158.1719 787.8906 158.1719 Q787.5625 158.1719 787.3359 157.9453 Q787.1094 157.7188 787.1094 157.3906 ZM785.8125 149.6406 Q786.4375 149.3594 787 149.2266 Q787.5625 149.0938 788.0469 149.0938 Q789.3438 149.0938 790.1016 149.7188 Q790.8594 150.3438 790.8594 151.4062 Q790.8594 152.5 790.2109 153.1953 Q789.5625 153.8906 788.25 154.1875 L788.25 155.6719 L787.5312 155.6719 L787.5312 153.75 Q788.5625 153.5 789.0938 152.9062 Q789.625 152.3125 789.625 151.4062 Q789.625 150.5938 789.1953 150.1328 Q788.7656 149.6719 788.0312 149.6719 Q787.3594 149.6719 786.9297 150.0547 Q786.5 150.4375 786.3906 151.1562 L785.8125 151.1562 L785.8125 149.6406 Z" style="fill:black; stroke:none;" /></g><g ID="li-1:2,3" style="fill:white; text-rendering:optimizeSpeed; font-family:'Serif'; stroke:white;"><rect height="10" style="stroke:none;" width="6" x="851" y="148" /><path d="M853.1094 157.3906 Q853.1094 157.0625 853.3359 156.8359 Q853.5625 156.6094 853.8906 156.6094 Q854.2188 156.6094 854.4453 156.8359 Q854.6719 157.0625 854.6719 157.3906 Q854.6719 157.7188 854.4453 157.9453 Q854.2188 158.1719 853.8906 158.1719 Q853.5625 158.1719 853.3359 157.9453 Q853.1094 157.7188 853.1094 157.3906 ZM851.8125 149.6406 Q852.4375 149.3594 853 149.2266 Q853.5625 149.0938 854.0469 149.0938 Q855.3438 149.0938 856.1016 149.7188 Q856.8594 150.3438 856.8594 151.4062 Q856.8594 152.5 856.2109 153.1953 Q855.5625 153.8906 854.25 154.1875 L854.25 155.6719 L853.5312 155.6719 L853.5312 153.75 Q854.5625 153.5 855.0938 152.9062 Q855.625 152.3125 855.625 151.4062 Q855.625 150.5938 855.1953 150.1328 Q854.7656 149.6719 854.0312 149.6719 Q853.3594 149.6719 852.9297 150.0547 Q852.5 150.4375 852.3906 151.1562 L851.8125 151.1562 L851.8125 149.6406 Z" style="fill:black; stroke:none;" /><rect height="10" style="stroke:none;" width="6" x="837" y="148" /><path d="M839.1094 157.3906 Q839.1094 157.0625 839.3359 156.8359 Q839.5625 156.6094 839.8906 156.6094 Q840.2188 156.6094 840.4453 156.8359 Q840.6719 157.0625 840.6719 157.3906 Q840.6719 157.7188 840.4453 157.9453 Q840.2188 158.1719 839.8906 158.1719 Q839.5625 158.1719 839.3359 157.9453 Q839.1094 157.7188 839.1094 157.3906 ZM837.8125 149.6406 Q838.4375 149.3594 839 149.2266 Q839.5625 149.0938 840.0469 149.0938 Q841.3438 149.0938 842.1016 149.7188 Q842.8594 150.3438 842.8594 151.4062 Q842.8594 152.5 842.2109 153.1953 Q841.5625 153.8906 840.25 154.1875 L840.25 155.6719 L839.5312 155.6719 L839.5312 153.75 Q840.5625 153.5 841.0938 152.9062 Q841.625 152.3125 841.625 151.4062 Q841.625 150.5938 841.1953 150.1328 Q840.7656 149.6719 840.0312 149.6719 Q839.3594 149.6719 838.9297 150.0547 Q838.5 150.4375 838.3906 151.1562 L837.8125 151.1562 L837.8125 149.6406 Z" style="fill:black; stroke:none;" /></g><g ID="li-1:1,2" style="fill:white; text-rendering:optimizeSpeed; font-family:'Serif'; stroke:white;"><rect height="10" style="stroke:none;" width="6" x="903" y="148" /><path d="M905.1094 157.3906 Q905.1094 157.0625 905.3359 156.8359 Q905.5625 156.6094 905.8906 156.6094 Q906.2188 156.6094 906.4453 156.8359 Q906.6719 157.0625 906.6719 157.3906 Q906.6719 157.7188 906.4453 157.9453 Q906.2188 158.1719 905.8906 158.1719 Q905.5625 158.1719 905.3359 157.9453 Q905.1094 157.7188 905.1094 157.3906 ZM903.8125 149.6406 Q904.4375 149.3594 905 149.2266 Q905.5625 149.0938 906.0469 149.0938 Q907.3438 149.0938 908.1016 149.7188 Q908.8594 150.3438 908.8594 151.4062 Q908.8594 152.5 908.2109 153.1953 Q907.5625 153.8906 906.25 154.1875 L906.25 155.6719 L905.5312 155.6719 L905.5312 153.75 Q906.5625 153.5 907.0938 152.9062 Q907.625 152.3125 907.625 151.4062 Q907.625 150.5938 907.1953 150.1328 Q906.7656 149.6719 906.0312 149.6719 Q905.3594 149.6719 904.9297 150.0547 Q904.5 150.4375 904.3906 151.1562 L903.8125 151.1562 L903.8125 149.6406 Z" style="fill:black; stroke:none;" /><rect height="10" style="stroke:none;" width="6" x="889" y="148" /><path d="M891.1094 157.3906 Q891.1094 157.0625 891.3359 156.8359 Q891.5625 156.6094 891.8906 156.6094 Q892.2188 156.6094 892.4453 156.8359 Q892.6719 157.0625 892.6719 157.3906 Q892.6719 157.7188 892.4453 157.9453 Q892.2188 158.1719 891.8906 158.1719 Q891.5625 158.1719 891.3359 157.9453 Q891.1094 157.7188 891.1094 157.3906 ZM889.8125 149.6406 Q890.4375 149.3594 891 149.2266 Q891.5625 149.0938 892.0469 149.0938 Q893.3438 149.0938 894.1016 149.7188 Q894.8594 150.3438 894.8594 151.4062 Q894.8594 152.5 894.2109 153.1953 Q893.5625 153.8906 892.25 154.1875 L892.25 155.6719 L891.5312 155.6719 L891.5312 153.75 Q892.5625 153.5 893.0938 152.9062 Q893.625 152.3125 893.625 151.4062 Q893.625 150.5938 893.1953 150.1328 Q892.7656 149.6719 892.0312 149.6719 Q891.3594 149.6719 890.9297 150.0547 Q890.5 150.4375 890.3906 151.1562 L889.8125 151.1562 L889.8125 149.6406 Z" style="fill:black; stroke:none;" /></g></g></svg>