<svg xmlns="http://www.w3.org/2000/svg" style="fill-opacity:1; color-rendering:auto; color-interpolation:auto; text-rendering:auto; stroke:black; stroke-linecap:square; stroke-miterlimit:10; shape-rendering:auto; stroke-opacity:1; fill:black; stroke-dasharray:none; font-weight:normal; stroke-width:1; font-family:'Dialog'; font-style:normal; stroke-linejoin:miter; font-size:12px; stroke-dashoffset:0; image-rendering:auto;"><defs id="genericDefs" /><g><defs id="defs1"><clipPath clipPathUnits="userSpaceOnUse" id="clipPath1"><path d="M82 56 L104 56 L104 78 L82 78 L82 56 Z" /></clipPath><clipPath clipPathUnits="userSpaceOnUse" id="clipPath2"><path d="M30 82 L52 82 L52 104 L30 104 L30 82 Z" /></clipPath><clipPath clipPathUnits="userSpaceOnUse" id="clipPath3"><path d="M30 30 L52 30 L52 52 L30 52 L30 30 Z" /></clipPath></defs><g style="fill:white; text-rendering:optimizeSpeed; stroke:white;"><rect height="134" style="stroke:none;" width="134" x="0" y="0" /></g><g ID="l-1:1,2" style="text-rendering:optimizeSpeed;"><polygon points=" 93 67 41 93" style="fill:none;" /></g><g ID="l-1:1,3" style="text-rendering:optimizeSpeed;"><polygon points=" 93 67 41 41" style="fill:none;" /></g><g ID="r-1:1" style="fill:white; text-rendering:optimizeSpeed; stroke:white;" wurcs_mono_id="1"><rect height="22" style="clip-path:url(#clipPath1); stroke:none;" width="22" x="82" y="56" /><rect height="22" style="clip-path:url(#clipPath1); fill:rgb(255,212,0); stroke:none;" width="22" x="82" y="56" /><rect height="22" style="clip-path:url(#clipPath1); fill:none; stroke:black;" width="22" x="82" y="56" /><rect height="22" style="fill:none; stroke:black;" width="22" x="82" y="56" /></g><g ID="r-1:2" style="fill:white; text-rendering:optimizeSpeed; stroke:white;" wurcs_mono_id="2"><rect height="22" style="clip-path:url(#clipPath2); stroke:none;" width="22" x="30" y="82" /><rect height="22" style="clip-path:url(#clipPath2); fill:rgb(0,144,188); stroke:none;" width="22" x="30" y="82" /><rect height="22" style="clip-path:url(#clipPath2); fill:none; stroke:black;" width="22" x="30" y="82" /><rect height="22" style="fill:none; stroke:black;" width="22" x="30" y="82" /></g><g ID="r-1:3" style="fill:white; text-rendering:optimizeSpeed; stroke:white;" wurcs_mono_id="3"><rect height="22" style="clip-path:url(#clipPath3); stroke:none;" width="22" x="30" y="30" /><rect height="22" style="clip-path:url(#clipPath3); fill:rgb(0,144,188); stroke:none;" width="22" x="30" y="30" /><rect height="22" style="clip-path:url(#clipPath3); fill:none; stroke:black;" width="22" x="30" y="30" /><rect height="22" style="fill:none; stroke:black;" width="22" x="30" y="30" /></g><g ID="li-1:1,2" style="fill:white; text-rendering:optimizeSpeed; font-family:'Serif'; stroke:white;"><rect height="10" style="stroke:none;" width="7" x="74" y="78" /><path d="M75.1719 79.625 Q75.8594 79.3594 76.4844 79.2266 Q77.1094 79.0938 77.6562 79.0938 Q78.9531 79.0938 79.6719 79.6484 Q80.3906 80.2031 80.3906 81.1875 Q80.3906 81.9688 79.8906 82.5 Q79.3906 83.0312 78.4844 83.2188 Q79.5625 83.375 80.1562 84.0078 Q80.75 84.6406 80.75 85.6406 Q80.75 86.8594 79.9219 87.5156 Q79.0938 88.1719 77.5469 88.1719 Q76.8594 88.1719 76.2109 88.0234 Q75.5625 87.875 74.9219 87.5781 L74.9219 85.875 L75.5781 85.875 Q75.625 86.7188 76.1406 87.1562 Q76.6562 87.5938 77.5781 87.5938 Q78.4688 87.5938 78.9922 87.0703 Q79.5156 86.5469 79.5156 85.6562 Q79.5156 84.625 78.9766 84.0938 Q78.4375 83.5625 77.4062 83.5625 L76.8594 83.5625 L76.8594 82.9531 L77.1406 82.9531 Q78.1719 82.9531 78.6875 82.5312 Q79.2031 82.1094 79.2031 81.25 Q79.2031 80.4844 78.7812 80.0781 Q78.3594 79.6719 77.5625 79.6719 Q76.7656 79.6719 76.3359 80.0469 Q75.9062 80.4219 75.8281 81.1562 L75.1719 81.1562 L75.1719 79.625 Z" style="fill:black; stroke:none;" /><rect height="10" style="stroke:none;" width="6" x="59" y="86" /><path d="M61.1094 95.3906 Q61.1094 95.0625 61.3359 94.8359 Q61.5625 94.6094 61.8906 94.6094 Q62.2188 94.6094 62.4453 94.8359 Q62.6719 95.0625 62.6719 95.3906 Q62.6719 95.7188 62.4453 95.9453 Q62.2188 96.1719 61.8906 96.1719 Q61.5625 96.1719 61.3359 95.9453 Q61.1094 95.7188 61.1094 95.3906 ZM59.8125 87.6406 Q60.4375 87.3594 61 87.2266 Q61.5625 87.0938 62.0469 87.0938 Q63.3438 87.0938 64.1016 87.7188 Q64.8594 88.3438 64.8594 89.4062 Q64.8594 90.5 64.2109 91.1953 Q63.5625 91.8906 62.25 92.1875 L62.25 93.6719 L61.5312 93.6719 L61.5312 91.75 Q62.5625 91.5 63.0938 90.9062 Q63.625 90.3125 63.625 89.4062 Q63.625 88.5938 63.1953 88.1328 Q62.7656 87.6719 62.0312 87.6719 Q61.3594 87.6719 60.9297 88.0547 Q60.5 88.4375 60.3906 89.1562 L59.8125 89.1562 L59.8125 87.6406 Z" style="fill:black; stroke:none;" /></g><g ID="li-1:1,3" style="fill:white; text-rendering:optimizeSpeed; font-family:'Serif'; stroke:white;"><rect height="10" style="stroke:none;" width="7" x="67" y="60" /><path d="M70.9219 69.5938 Q71.75 69.5938 72.1953 68.9844 Q72.6406 68.375 72.6406 67.2344 Q72.6406 66.1094 72.1953 65.5 Q71.75 64.8906 70.9219 64.8906 Q70.0938 64.8906 69.6484 65.4766 Q69.2031 66.0625 69.2031 67.1719 Q69.2031 68.3281 69.6484 68.9609 Q70.0938 69.5938 70.9219 69.5938 ZM69.0156 65.1875 Q69.4219 64.75 69.9219 64.5312 Q70.4219 64.3125 71.0625 64.3125 Q72.3594 64.3125 73.1172 65.0938 Q73.875 65.875 73.875 67.2344 Q73.875 68.5625 73.0625 69.3672 Q72.25 70.1719 70.875 70.1719 Q69.3906 70.1719 68.5938 69.0625 Q67.7969 67.9531 67.7969 65.9062 Q67.7969 63.6094 68.7422 62.3516 Q69.6875 61.0938 71.4062 61.0938 Q71.875 61.0938 72.3828 61.1797 Q72.8906 61.2656 73.4219 61.4375 L73.4219 62.8906 L72.7656 62.8906 Q72.6875 62.2969 72.3047 61.9844 Q71.9219 61.6719 71.2812 61.6719 Q70.1406 61.6719 69.5859 62.5312 Q69.0312 63.3906 69.0156 65.1875 Z" style="fill:black; stroke:none;" /><rect height="10" style="stroke:none;" width="6" x="52" y="52" /><path d="M54.1094 61.3906 Q54.1094 61.0625 54.3359 60.8359 Q54.5625 60.6094 54.8906 60.6094 Q55.2188 60.6094 55.4453 60.8359 Q55.6719 61.0625 55.6719 61.3906 Q55.6719 61.7188 55.4453 61.9453 Q55.2188 62.1719 54.8906 62.1719 Q54.5625 62.1719 54.3359 61.9453 Q54.1094 61.7188 54.1094 61.3906 ZM52.8125 53.6406 Q53.4375 53.3594 54 53.2266 Q54.5625 53.0938 55.0469 53.0938 Q56.3438 53.0938 57.1016 53.7188 Q57.8594 54.3438 57.8594 55.4062 Q57.8594 56.5 57.2109 57.1953 Q56.5625 57.8906 55.25 58.1875 L55.25 59.6719 L54.5312 59.6719 L54.5312 57.75 Q55.5625 57.5 56.0938 56.9062 Q56.625 56.3125 56.625 55.4062 Q56.625 54.5938 56.1953 54.1328 Q55.7656 53.6719 55.0312 53.6719 Q54.3594 53.6719 53.9297 54.0547 Q53.5 54.4375 53.3906 55.1562 L52.8125 55.1562 L52.8125 53.6406 Z" style="fill:black; stroke:none;" /></g></g></svg>