<svg xmlns="http://www.w3.org/2000/svg" style="fill-opacity:1; color-rendering:auto; color-interpolation:auto; text-rendering:auto; stroke:black; stroke-linecap:square; stroke-miterlimit:10; shape-rendering:auto; stroke-opacity:1; fill:black; stroke-dasharray:none; font-weight:normal; stroke-width:1; font-family:'Dialog'; font-style:normal; stroke-linejoin:miter; font-size:12px; stroke-dashoffset:0; image-rendering:auto;"><defs id="genericDefs" /><g><defs id="defs1"><clipPath clipPathUnits="userSpaceOnUse" id="clipPath1"><path d="M446 108 L468 108 L468 130 L446 130 L446 108 Z" /></clipPath><clipPath clipPathUnits="userSpaceOnUse" id="clipPath2"><path d="M394 108 L416 108 L416 130 L394 130 L394 108 Z" /></clipPath><clipPath clipPathUnits="userSpaceOnUse" id="clipPath3"><path d="M364 119 C364 125.0751 359.0751 130 353 130 C346.9249 130 342 125.0751 342 119 C342 112.9249 346.9249 108 353 108 C359.0751 108 364 112.9249 364 119 Z" /></clipPath><clipPath clipPathUnits="userSpaceOnUse" id="clipPath4"><path d="M312 145 C312 151.0751 307.0751 156 301 156 C294.9249 156 290 151.0751 290 145 C290 138.9249 294.9249 134 301 134 C307.0751 134 312 138.9249 312 145 Z" /></clipPath><clipPath clipPathUnits="userSpaceOnUse" id="clipPath5"><path d="M238 134 L260 134 L260 156 L238 156 L238 134 Z" /></clipPath><clipPath clipPathUnits="userSpaceOnUse" id="clipPath6"><path d="M208 145 C208 151.0751 203.0751 156 197 156 C190.9249 156 186 151.0751 186 145 C186 138.9249 190.9249 134 197 134 C203.0751 134 208 138.9249 208 145 Z" /></clipPath><clipPath clipPathUnits="userSpaceOnUse" id="clipPath7"><path d="M134 134 L156 134 L156 156 L134 156 L134 134 Z" /></clipPath><clipPath clipPathUnits="userSpaceOnUse" id="clipPath8"><path d="M104 145 C104 151.0751 99.0751 156 93 156 C86.9249 156 82 151.0751 82 145 C82 138.9249 86.9249 134 93 134 C99.0751 134 104 138.9249 104 145 Z" /></clipPath><clipPath clipPathUnits="userSpaceOnUse" id="clipPath9"><path d="M41 134 L52 145 L41 156 L30 145 Z" style="fill-rule:evenodd;" /></clipPath><clipPath clipPathUnits="userSpaceOnUse" id="clipPath10"><path d="M312 93 C312 99.0751 307.0751 104 301 104 C294.9249 104 290 99.0751 290 93 C290 86.9249 294.9249 82 301 82 C307.0751 82 312 86.9249 312 93 Z" /></clipPath><clipPath clipPathUnits="userSpaceOnUse" id="clipPath11"><path d="M238 82 L260 82 L260 104 L238 104 L238 82 Z" /></clipPath><clipPath clipPathUnits="userSpaceOnUse" id="clipPath12"><path d="M249 52 L238 30 L260 30 Z" style="fill-rule:evenodd;" /></clipPath><clipPath clipPathUnits="userSpaceOnUse" id="clipPath13"><path d="M208 93 C208 99.0751 203.0751 104 197 104 C190.9249 104 186 99.0751 186 93 C186 86.9249 190.9249 82 197 82 C203.0751 82 208 86.9249 208 93 Z" /></clipPath></defs><g style="fill:white; text-rendering:optimizeSpeed; stroke:white;"><rect height="186" style="stroke:none;" width="498" x="0" y="0" /></g><g ID="l-1:1,2" style="text-rendering:optimizeSpeed;"><polygon points=" 457 119 405 119" style="fill:none;" /></g><g ID="r-1:1" style="fill:white; text-rendering:optimizeSpeed; stroke:white;" wurcs_mono_id="1"><rect height="22" style="clip-path:url(#clipPath1); stroke:none;" width="22" x="446" y="108" /><rect height="22" style="clip-path:url(#clipPath1); fill:rgb(0,144,188); stroke:none;" width="22" x="446" y="108" /><rect height="22" style="clip-path:url(#clipPath1); fill:none; stroke:black;" width="22" x="446" y="108" /><rect height="22" style="fill:none; stroke:black;" width="22" x="446" y="108" /></g><g style="font-style:italic; text-rendering:optimizeSpeed; font-size:10px; font-family:'SansSerif';"><path d="M458.0938 116.1562 Q457.375 116.1562 456.8359 116.7188 Q456.2969 117.2812 456.0781 118.2656 Q455.875 119.25 456.1719 119.8125 Q456.4688 120.375 457.2031 120.375 Q457.9219 120.375 458.4609 119.8125 Q459 119.25 459.2031 118.2656 Q459.4062 117.2969 459.1094 116.7266 Q458.8125 116.1562 458.0938 116.1562 ZM458.25 115.4062 Q459.4219 115.4062 459.9297 116.1641 Q460.4375 116.9219 460.1562 118.2656 Q459.875 119.6094 459.0391 120.375 Q458.2031 121.1406 457.0312 121.1406 Q455.8594 121.1406 455.3516 120.375 Q454.8438 119.6094 455.125 118.2656 Q455.4062 116.9219 456.2422 116.1641 Q457.0781 115.4062 458.25 115.4062 Z" style="stroke:none;" /></g><g ID="l-1:2,3" style="text-rendering:optimizeSpeed;"><polygon points=" 405 119 353 119" style="fill:none;" /></g><g ID="r-1:2" style="fill:white; text-rendering:optimizeSpeed; stroke:white;" wurcs_mono_id="2"><rect height="22" style="clip-path:url(#clipPath2); stroke:none;" width="22" x="394" y="108" /><rect height="22" style="clip-path:url(#clipPath2); fill:rgb(0,144,188); stroke:none;" width="22" x="394" y="108" /><rect height="22" style="clip-path:url(#clipPath2); fill:none; stroke:black;" width="22" x="394" y="108" /><rect height="22" style="fill:none; stroke:black;" width="22" x="394" y="108" /></g><g ID="l-1:3,4" style="text-rendering:optimizeSpeed;"><polygon points=" 353 119 301 145" style="fill:none;" /></g><g ID="l-1:3,5" style="text-rendering:optimizeSpeed;"><polygon points=" 353 119 301 93" style="fill:none;" /></g><g ID="r-1:3" style="fill:white; text-rendering:optimizeSpeed; stroke:white;" wurcs_mono_id="3"><circle cx="353" cy="119" r="11" style="clip-path:url(#clipPath3); stroke:none;" /><rect height="22" style="clip-path:url(#clipPath3); fill:rgb(0,166,81); stroke:none;" width="22" x="342" y="108" /><rect height="22" style="clip-path:url(#clipPath3); fill:none; stroke:black;" width="22" x="342" y="108" /><circle cx="353" cy="119" r="11" style="fill:none; stroke:black;" /></g><g ID="l-1:4,6" style="text-rendering:optimizeSpeed;"><polygon points=" 301 145 249 145" style="fill:none;" /></g><g ID="r-1:4" style="fill:white; text-rendering:optimizeSpeed; stroke:white;" wurcs_mono_id="4"><circle cx="301" cy="145" r="11" style="clip-path:url(#clipPath4); stroke:none;" /><rect height="22" style="clip-path:url(#clipPath4); fill:rgb(0,166,81); stroke:none;" width="22" x="290" y="134" /><rect height="22" style="clip-path:url(#clipPath4); fill:none; stroke:black;" width="22" x="290" y="134" /><circle cx="301" cy="145" r="11" style="fill:none; stroke:black;" /></g><g ID="l-1:6,7" style="text-rendering:optimizeSpeed;"><polygon points=" 249 145 197 145" style="fill:none;" /></g><g ID="r-1:6" style="fill:white; text-rendering:optimizeSpeed; stroke:white;" wurcs_mono_id="5"><rect height="22" style="clip-path:url(#clipPath5); stroke:none;" width="22" x="238" y="134" /><rect height="22" style="clip-path:url(#clipPath5); fill:rgb(0,144,188); stroke:none;" width="22" x="238" y="134" /><rect height="22" style="clip-path:url(#clipPath5); fill:none; stroke:black;" width="22" x="238" y="134" /><rect height="22" style="fill:none; stroke:black;" width="22" x="238" y="134" /></g><g ID="l-1:7,8" style="text-rendering:optimizeSpeed;"><polygon points=" 197 145 145 145" style="fill:none;" /></g><g ID="r-1:7" style="fill:white; text-rendering:optimizeSpeed; stroke:white;" wurcs_mono_id="6"><circle cx="197" cy="145" r="11" style="clip-path:url(#clipPath6); stroke:none;" /><rect height="22" style="clip-path:url(#clipPath6); fill:rgb(255,212,0); stroke:none;" width="22" x="186" y="134" /><rect height="22" style="clip-path:url(#clipPath6); fill:none; stroke:black;" width="22" x="186" y="134" /><circle cx="197" cy="145" r="11" style="fill:none; stroke:black;" /></g><g ID="l-1:8,9" style="text-rendering:optimizeSpeed;"><polygon points=" 145 145 93 145" style="fill:none;" /></g><g ID="r-1:8" style="fill:white; text-rendering:optimizeSpeed; stroke:white;" wurcs_mono_id="7"><rect height="22" style="clip-path:url(#clipPath7); stroke:none;" width="22" x="134" y="134" /><rect height="22" style="clip-path:url(#clipPath7); fill:rgb(0,144,188); stroke:none;" width="22" x="134" y="134" /><rect height="22" style="clip-path:url(#clipPath7); fill:none; stroke:black;" width="22" x="134" y="134" /><rect height="22" style="fill:none; stroke:black;" width="22" x="134" y="134" /></g><g ID="l-1:9,10" style="text-rendering:optimizeSpeed;"><polygon points=" 93 145 41 145" style="fill:none;" /></g><g ID="r-1:9" style="fill:white; text-rendering:optimizeSpeed; stroke:white;" wurcs_mono_id="8"><circle cx="93" cy="145" r="11" style="clip-path:url(#clipPath8); stroke:none;" /><rect height="22" style="clip-path:url(#clipPath8); fill:rgb(255,212,0); stroke:none;" width="22" x="82" y="134" /><rect height="22" style="clip-path:url(#clipPath8); fill:none; stroke:black;" width="22" x="82" y="134" /><circle cx="93" cy="145" r="11" style="fill:none; stroke:black;" /></g><g ID="r-1:10" style="fill:white; text-rendering:optimizeSpeed; stroke:white;" wurcs_mono_id="9"><polygon points=" 41 134 52 145 41 156 30 145" style="stroke:none; clip-path:url(#clipPath9);" /><rect height="22" style="clip-path:url(#clipPath9); fill:rgb(165,67,153); stroke:none;" width="22" x="30" y="134" /><rect height="22" style="clip-path:url(#clipPath9); fill:none; stroke:black;" width="22" x="30" y="134" /><polygon points=" 41 134 52 145 41 156 30 145" style="fill:none; stroke:black;" /></g><g ID="li-1:9,10" style="fill:white; text-rendering:optimizeSpeed; font-family:'Serif'; stroke:white;"><rect height="10" style="stroke:none;" width="6" x="71" y="148" /><path d="M73.1094 157.3906 Q73.1094 157.0625 73.3359 156.8359 Q73.5625 156.6094 73.8906 156.6094 Q74.2188 156.6094 74.4453 156.8359 Q74.6719 157.0625 74.6719 157.3906 Q74.6719 157.7188 74.4453 157.9453 Q74.2188 158.1719 73.8906 158.1719 Q73.5625 158.1719 73.3359 157.9453 Q73.1094 157.7188 73.1094 157.3906 ZM71.8125 149.6406 Q72.4375 149.3594 73 149.2266 Q73.5625 149.0938 74.0469 149.0938 Q75.3438 149.0938 76.1016 149.7188 Q76.8594 150.3438 76.8594 151.4062 Q76.8594 152.5 76.2109 153.1953 Q75.5625 153.8906 74.25 154.1875 L74.25 155.6719 L73.5312 155.6719 L73.5312 153.75 Q74.5625 153.5 75.0938 152.9062 Q75.625 152.3125 75.625 151.4062 Q75.625 150.5938 75.1953 150.1328 Q74.7656 149.6719 74.0312 149.6719 Q73.3594 149.6719 72.9297 150.0547 Q72.5 150.4375 72.3906 151.1562 L71.8125 151.1562 L71.8125 149.6406 Z" style="fill:black; stroke:none;" /><rect height="10" style="stroke:none;" width="6" x="57" y="148" /><path d="M59.1094 157.3906 Q59.1094 157.0625 59.3359 156.8359 Q59.5625 156.6094 59.8906 156.6094 Q60.2188 156.6094 60.4453 156.8359 Q60.6719 157.0625 60.6719 157.3906 Q60.6719 157.7188 60.4453 157.9453 Q60.2188 158.1719 59.8906 158.1719 Q59.5625 158.1719 59.3359 157.9453 Q59.1094 157.7188 59.1094 157.3906 ZM57.8125 149.6406 Q58.4375 149.3594 59 149.2266 Q59.5625 149.0938 60.0469 149.0938 Q61.3438 149.0938 62.1016 149.7188 Q62.8594 150.3438 62.8594 151.4062 Q62.8594 152.5 62.2109 153.1953 Q61.5625 153.8906 60.25 154.1875 L60.25 155.6719 L59.5312 155.6719 L59.5312 153.75 Q60.5625 153.5 61.0938 152.9062 Q61.625 152.3125 61.625 151.4062 Q61.625 150.5938 61.1953 150.1328 Q60.7656 149.6719 60.0312 149.6719 Q59.3594 149.6719 58.9297 150.0547 Q58.5 150.4375 58.3906 151.1562 L57.8125 151.1562 L57.8125 149.6406 Z" style="fill:black; stroke:none;" /></g><g ID="li-1:8,9" style="fill:white; text-rendering:optimizeSpeed; font-family:'Serif'; stroke:white;"><rect height="10" style="stroke:none;" width="6" x="123" y="148" /><path d="M125.1094 157.3906 Q125.1094 157.0625 125.3359 156.8359 Q125.5625 156.6094 125.8906 156.6094 Q126.2188 156.6094 126.4453 156.8359 Q126.6719 157.0625 126.6719 157.3906 Q126.6719 157.7188 126.4453 157.9453 Q126.2188 158.1719 125.8906 158.1719 Q125.5625 158.1719 125.3359 157.9453 Q125.1094 157.7188 125.1094 157.3906 ZM123.8125 149.6406 Q124.4375 149.3594 125 149.2266 Q125.5625 149.0938 126.0469 149.0938 Q127.3438 149.0938 128.1016 149.7188 Q128.8594 150.3438 128.8594 151.4062 Q128.8594 152.5 128.2109 153.1953 Q127.5625 153.8906 126.25 154.1875 L126.25 155.6719 L125.5312 155.6719 L125.5312 153.75 Q126.5625 153.5 127.0938 152.9062 Q127.625 152.3125 127.625 151.4062 Q127.625 150.5938 127.1953 150.1328 Q126.7656 149.6719 126.0312 149.6719 Q125.3594 149.6719 124.9297 150.0547 Q124.5 150.4375 124.3906 151.1562 L123.8125 151.1562 L123.8125 149.6406 Z" style="fill:black; stroke:none;" /><rect height="10" style="stroke:none;" width="6" x="109" y="148" /><path d="M111.1094 157.3906 Q111.1094 157.0625 111.3359 156.8359 Q111.5625 156.6094 111.8906 156.6094 Q112.2188 156.6094 112.4453 156.8359 Q112.6719 157.0625 112.6719 157.3906 Q112.6719 157.7188 112.4453 157.9453 Q112.2188 158.1719 111.8906 158.1719 Q111.5625 158.1719 111.3359 157.9453 Q111.1094 157.7188 111.1094 157.3906 ZM109.8125 149.6406 Q110.4375 149.3594 111 149.2266 Q111.5625 149.0938 112.0469 149.0938 Q113.3438 149.0938 114.1016 149.7188 Q114.8594 150.3438 114.8594 151.4062 Q114.8594 152.5 114.2109 153.1953 Q113.5625 153.8906 112.25 154.1875 L112.25 155.6719 L111.5312 155.6719 L111.5312 153.75 Q112.5625 153.5 113.0938 152.9062 Q113.625 152.3125 113.625 151.4062 Q113.625 150.5938 113.1953 150.1328 Q112.7656 149.6719 112.0312 149.6719 Q111.3594 149.6719 110.9297 150.0547 Q110.5 150.4375 110.3906 151.1562 L109.8125 151.1562 L109.8125 149.6406 Z" style="fill:black; stroke:none;" /></g><g ID="li-1:7,8" style="fill:white; text-rendering:optimizeSpeed; font-family:'Serif'; stroke:white;"><rect height="10" style="stroke:none;" width="6" x="175" y="148" /><path d="M177.1094 157.3906 Q177.1094 157.0625 177.3359 156.8359 Q177.5625 156.6094 177.8906 156.6094 Q178.2188 156.6094 178.4453 156.8359 Q178.6719 157.0625 178.6719 157.3906 Q178.6719 157.7188 178.4453 157.9453 Q178.2188 158.1719 177.8906 158.1719 Q177.5625 158.1719 177.3359 157.9453 Q177.1094 157.7188 177.1094 157.3906 ZM175.8125 149.6406 Q176.4375 149.3594 177 149.2266 Q177.5625 149.0938 178.0469 149.0938 Q179.3438 149.0938 180.1016 149.7188 Q180.8594 150.3438 180.8594 151.4062 Q180.8594 152.5 180.2109 153.1953 Q179.5625 153.8906 178.25 154.1875 L178.25 155.6719 L177.5312 155.6719 L177.5312 153.75 Q178.5625 153.5 179.0938 152.9062 Q179.625 152.3125 179.625 151.4062 Q179.625 150.5938 179.1953 150.1328 Q178.7656 149.6719 178.0312 149.6719 Q177.3594 149.6719 176.9297 150.0547 Q176.5 150.4375 176.3906 151.1562 L175.8125 151.1562 L175.8125 149.6406 Z" style="fill:black; stroke:none;" /><rect height="10" style="stroke:none;" width="6" x="161" y="148" /><path d="M163.1094 157.3906 Q163.1094 157.0625 163.3359 156.8359 Q163.5625 156.6094 163.8906 156.6094 Q164.2188 156.6094 164.4453 156.8359 Q164.6719 157.0625 164.6719 157.3906 Q164.6719 157.7188 164.4453 157.9453 Q164.2188 158.1719 163.8906 158.1719 Q163.5625 158.1719 163.3359 157.9453 Q163.1094 157.7188 163.1094 157.3906 ZM161.8125 149.6406 Q162.4375 149.3594 163 149.2266 Q163.5625 149.0938 164.0469 149.0938 Q165.3438 149.0938 166.1016 149.7188 Q166.8594 150.3438 166.8594 151.4062 Q166.8594 152.5 166.2109 153.1953 Q165.5625 153.8906 164.25 154.1875 L164.25 155.6719 L163.5312 155.6719 L163.5312 153.75 Q164.5625 153.5 165.0938 152.9062 Q165.625 152.3125 165.625 151.4062 Q165.625 150.5938 165.1953 150.1328 Q164.7656 149.6719 164.0312 149.6719 Q163.3594 149.6719 162.9297 150.0547 Q162.5 150.4375 162.3906 151.1562 L161.8125 151.1562 L161.8125 149.6406 Z" style="fill:black; stroke:none;" /></g><g ID="li-1:6,7" style="fill:white; text-rendering:optimizeSpeed; font-family:'Serif'; stroke:white;"><rect height="10" style="stroke:none;" width="6" x="227" y="148" /><path d="M229.1094 157.3906 Q229.1094 157.0625 229.3359 156.8359 Q229.5625 156.6094 229.8906 156.6094 Q230.2188 156.6094 230.4453 156.8359 Q230.6719 157.0625 230.6719 157.3906 Q230.6719 157.7188 230.4453 157.9453 Q230.2188 158.1719 229.8906 158.1719 Q229.5625 158.1719 229.3359 157.9453 Q229.1094 157.7188 229.1094 157.3906 ZM227.8125 149.6406 Q228.4375 149.3594 229 149.2266 Q229.5625 149.0938 230.0469 149.0938 Q231.3438 149.0938 232.1016 149.7188 Q232.8594 150.3438 232.8594 151.4062 Q232.8594 152.5 232.2109 153.1953 Q231.5625 153.8906 230.25 154.1875 L230.25 155.6719 L229.5312 155.6719 L229.5312 153.75 Q230.5625 153.5 231.0938 152.9062 Q231.625 152.3125 231.625 151.4062 Q231.625 150.5938 231.1953 150.1328 Q230.7656 149.6719 230.0312 149.6719 Q229.3594 149.6719 228.9297 150.0547 Q228.5 150.4375 228.3906 151.1562 L227.8125 151.1562 L227.8125 149.6406 Z" style="fill:black; stroke:none;" /><rect height="10" style="stroke:none;" width="6" x="213" y="148" /><path d="M215.1094 157.3906 Q215.1094 157.0625 215.3359 156.8359 Q215.5625 156.6094 215.8906 156.6094 Q216.2188 156.6094 216.4453 156.8359 Q216.6719 157.0625 216.6719 157.3906 Q216.6719 157.7188 216.4453 157.9453 Q216.2188 158.1719 215.8906 158.1719 Q215.5625 158.1719 215.3359 157.9453 Q215.1094 157.7188 215.1094 157.3906 ZM213.8125 149.6406 Q214.4375 149.3594 215 149.2266 Q215.5625 149.0938 216.0469 149.0938 Q217.3438 149.0938 218.1016 149.7188 Q218.8594 150.3438 218.8594 151.4062 Q218.8594 152.5 218.2109 153.1953 Q217.5625 153.8906 216.25 154.1875 L216.25 155.6719 L215.5312 155.6719 L215.5312 153.75 Q216.5625 153.5 217.0938 152.9062 Q217.625 152.3125 217.625 151.4062 Q217.625 150.5938 217.1953 150.1328 Q216.7656 149.6719 216.0312 149.6719 Q215.3594 149.6719 214.9297 150.0547 Q214.5 150.4375 214.3906 151.1562 L213.8125 151.1562 L213.8125 149.6406 Z" style="fill:black; stroke:none;" /></g><g ID="li-1:4,6" style="fill:white; text-rendering:optimizeSpeed; font-family:'Serif'; stroke:white;"><rect height="10" style="stroke:none;" width="6" x="279" y="148" /><path d="M281.1094 157.3906 Q281.1094 157.0625 281.3359 156.8359 Q281.5625 156.6094 281.8906 156.6094 Q282.2188 156.6094 282.4453 156.8359 Q282.6719 157.0625 282.6719 157.3906 Q282.6719 157.7188 282.4453 157.9453 Q282.2188 158.1719 281.8906 158.1719 Q281.5625 158.1719 281.3359 157.9453 Q281.1094 157.7188 281.1094 157.3906 ZM279.8125 149.6406 Q280.4375 149.3594 281 149.2266 Q281.5625 149.0938 282.0469 149.0938 Q283.3438 149.0938 284.1016 149.7188 Q284.8594 150.3438 284.8594 151.4062 Q284.8594 152.5 284.2109 153.1953 Q283.5625 153.8906 282.25 154.1875 L282.25 155.6719 L281.5312 155.6719 L281.5312 153.75 Q282.5625 153.5 283.0938 152.9062 Q283.625 152.3125 283.625 151.4062 Q283.625 150.5938 283.1953 150.1328 Q282.7656 149.6719 282.0312 149.6719 Q281.3594 149.6719 280.9297 150.0547 Q280.5 150.4375 280.3906 151.1562 L279.8125 151.1562 L279.8125 149.6406 Z" style="fill:black; stroke:none;" /><rect height="10" style="stroke:none;" width="6" x="265" y="148" /><path d="M267.1094 157.3906 Q267.1094 157.0625 267.3359 156.8359 Q267.5625 156.6094 267.8906 156.6094 Q268.2188 156.6094 268.4453 156.8359 Q268.6719 157.0625 268.6719 157.3906 Q268.6719 157.7188 268.4453 157.9453 Q268.2188 158.1719 267.8906 158.1719 Q267.5625 158.1719 267.3359 157.9453 Q267.1094 157.7188 267.1094 157.3906 ZM265.8125 149.6406 Q266.4375 149.3594 267 149.2266 Q267.5625 149.0938 268.0469 149.0938 Q269.3438 149.0938 270.1016 149.7188 Q270.8594 150.3438 270.8594 151.4062 Q270.8594 152.5 270.2109 153.1953 Q269.5625 153.8906 268.25 154.1875 L268.25 155.6719 L267.5312 155.6719 L267.5312 153.75 Q268.5625 153.5 269.0938 152.9062 Q269.625 152.3125 269.625 151.4062 Q269.625 150.5938 269.1953 150.1328 Q268.7656 149.6719 268.0312 149.6719 Q267.3594 149.6719 266.9297 150.0547 Q266.5 150.4375 266.3906 151.1562 L265.8125 151.1562 L265.8125 149.6406 Z" style="fill:black; stroke:none;" /></g><g ID="l-1:5,11" style="text-rendering:optimizeSpeed;"><polygon points=" 301 93 249 93" style="fill:none;" /></g><g ID="r-1:5" style="fill:white; text-rendering:optimizeSpeed; stroke:white;" wurcs_mono_id="10"><circle cx="301" cy="93" r="11" style="clip-path:url(#clipPath10); stroke:none;" /><rect height="22" style="clip-path:url(#clipPath10); fill:rgb(0,166,81); stroke:none;" width="22" x="290" y="82" /><rect height="22" style="clip-path:url(#clipPath10); fill:none; stroke:black;" width="22" x="290" y="82" /><circle cx="301" cy="93" r="11" style="fill:none; stroke:black;" /></g><g ID="l-1:11,12" style="text-rendering:optimizeSpeed;"><polygon points=" 249 93 249 41" style="fill:none;" /></g><g ID="l-1:11,13" style="text-rendering:optimizeSpeed;"><polygon points=" 249 93 197 93" style="fill:none;" /></g><g ID="r-1:11" style="fill:white; text-rendering:optimizeSpeed; stroke:white;" wurcs_mono_id="11"><rect height="22" style="clip-path:url(#clipPath11); stroke:none;" width="22" x="238" y="82" /><rect height="22" style="clip-path:url(#clipPath11); fill:rgb(0,144,188); stroke:none;" width="22" x="238" y="82" /><rect height="22" style="clip-path:url(#clipPath11); fill:none; stroke:black;" width="22" x="238" y="82" /><rect height="22" style="fill:none; stroke:black;" width="22" x="238" y="82" /></g><g ID="r-1:12" style="fill:white; text-rendering:optimizeSpeed; stroke:white;" wurcs_mono_id="12"><polygon points=" 249 52 238 30 260 30" style="stroke:none; clip-path:url(#clipPath12);" /><rect height="22" style="clip-path:url(#clipPath12); fill:rgb(237,28,36); stroke:none;" width="22" x="238" y="30" /><rect height="22" style="clip-path:url(#clipPath12); fill:none; stroke:black;" width="22" x="238" y="30" /><polygon points=" 249 52 238 30 260 30" style="fill:none; stroke:black;" /></g><g ID="r-1:13" style="fill:white; text-rendering:optimizeSpeed; stroke:white;" wurcs_mono_id="13"><circle cx="197" cy="93" r="11" style="clip-path:url(#clipPath13); stroke:none;" /><rect height="22" style="clip-path:url(#clipPath13); fill:rgb(255,212,0); stroke:none;" width="22" x="186" y="82" /><rect height="22" style="clip-path:url(#clipPath13); fill:none; stroke:black;" width="22" x="186" y="82" /><circle cx="197" cy="93" r="11" style="fill:none; stroke:black;" /></g><g ID="li-1:11,12" style="fill:white; text-rendering:optimizeSpeed; font-family:'Serif'; stroke:white;"><rect height="10" style="stroke:none;" width="6" x="238" y="69" /><path d="M240.1094 78.3906 Q240.1094 78.0625 240.3359 77.8359 Q240.5625 77.6094 240.8906 77.6094 Q241.2188 77.6094 241.4453 77.8359 Q241.6719 78.0625 241.6719 78.3906 Q241.6719 78.7188 241.4453 78.9453 Q241.2188 79.1719 240.8906 79.1719 Q240.5625 79.1719 240.3359 78.9453 Q240.1094 78.7188 240.1094 78.3906 ZM238.8125 70.6406 Q239.4375 70.3594 240 70.2266 Q240.5625 70.0938 241.0469 70.0938 Q242.3438 70.0938 243.1016 70.7188 Q243.8594 71.3438 243.8594 72.4062 Q243.8594 73.5 243.2109 74.1953 Q242.5625 74.8906 241.25 75.1875 L241.25 76.6719 L240.5312 76.6719 L240.5312 74.75 Q241.5625 74.5 242.0938 73.9062 Q242.625 73.3125 242.625 72.4062 Q242.625 71.5938 242.1953 71.1328 Q241.7656 70.6719 241.0312 70.6719 Q240.3594 70.6719 239.9297 71.0547 Q239.5 71.4375 239.3906 72.1562 L238.8125 72.1562 L238.8125 70.6406 Z" style="fill:black; stroke:none;" /><rect height="10" style="stroke:none;" width="6" x="238" y="55" /><path d="M240.1094 64.3906 Q240.1094 64.0625 240.3359 63.8359 Q240.5625 63.6094 240.8906 63.6094 Q241.2188 63.6094 241.4453 63.8359 Q241.6719 64.0625 241.6719 64.3906 Q241.6719 64.7188 241.4453 64.9453 Q241.2188 65.1719 240.8906 65.1719 Q240.5625 65.1719 240.3359 64.9453 Q240.1094 64.7188 240.1094 64.3906 ZM238.8125 56.6406 Q239.4375 56.3594 240 56.2266 Q240.5625 56.0938 241.0469 56.0938 Q242.3438 56.0938 243.1016 56.7188 Q243.8594 57.3438 243.8594 58.4062 Q243.8594 59.5 243.2109 60.1953 Q242.5625 60.8906 241.25 61.1875 L241.25 62.6719 L240.5312 62.6719 L240.5312 60.75 Q241.5625 60.5 242.0938 59.9062 Q242.625 59.3125 242.625 58.4062 Q242.625 57.5938 242.1953 57.1328 Q241.7656 56.6719 241.0312 56.6719 Q240.3594 56.6719 239.9297 57.0547 Q239.5 57.4375 239.3906 58.1562 L238.8125 58.1562 L238.8125 56.6406 Z" style="fill:black; stroke:none;" /></g><g ID="li-1:11,13" style="fill:white; text-rendering:optimizeSpeed; font-family:'Serif'; stroke:white;"><rect height="10" style="stroke:none;" width="6" x="227" y="96" /><path d="M229.1094 105.3906 Q229.1094 105.0625 229.3359 104.8359 Q229.5625 104.6094 229.8906 104.6094 Q230.2188 104.6094 230.4453 104.8359 Q230.6719 105.0625 230.6719 105.3906 Q230.6719 105.7188 230.4453 105.9453 Q230.2188 106.1719 229.8906 106.1719 Q229.5625 106.1719 229.3359 105.9453 Q229.1094 105.7188 229.1094 105.3906 ZM227.8125 97.6406 Q228.4375 97.3594 229 97.2266 Q229.5625 97.0938 230.0469 97.0938 Q231.3438 97.0938 232.1016 97.7188 Q232.8594 98.3438 232.8594 99.4062 Q232.8594 100.5 232.2109 101.1953 Q231.5625 101.8906 230.25 102.1875 L230.25 103.6719 L229.5312 103.6719 L229.5312 101.75 Q230.5625 101.5 231.0938 100.9062 Q231.625 100.3125 231.625 99.4062 Q231.625 98.5938 231.1953 98.1328 Q230.7656 97.6719 230.0312 97.6719 Q229.3594 97.6719 228.9297 98.0547 Q228.5 98.4375 228.3906 99.1562 L227.8125 99.1562 L227.8125 97.6406 Z" style="fill:black; stroke:none;" /><rect height="10" style="stroke:none;" width="6" x="213" y="96" /><path d="M215.1094 105.3906 Q215.1094 105.0625 215.3359 104.8359 Q215.5625 104.6094 215.8906 104.6094 Q216.2188 104.6094 216.4453 104.8359 Q216.6719 105.0625 216.6719 105.3906 Q216.6719 105.7188 216.4453 105.9453 Q216.2188 106.1719 215.8906 106.1719 Q215.5625 106.1719 215.3359 105.9453 Q215.1094 105.7188 215.1094 105.3906 ZM213.8125 97.6406 Q214.4375 97.3594 215 97.2266 Q215.5625 97.0938 216.0469 97.0938 Q217.3438 97.0938 218.1016 97.7188 Q218.8594 98.3438 218.8594 99.4062 Q218.8594 100.5 218.2109 101.1953 Q217.5625 101.8906 216.25 102.1875 L216.25 103.6719 L215.5312 103.6719 L215.5312 101.75 Q216.5625 101.5 217.0938 100.9062 Q217.625 100.3125 217.625 99.4062 Q217.625 98.5938 217.1953 98.1328 Q216.7656 97.6719 216.0312 97.6719 Q215.3594 97.6719 214.9297 98.0547 Q214.5 98.4375 214.3906 99.1562 L213.8125 99.1562 L213.8125 97.6406 Z" style="fill:black; stroke:none;" /></g><g ID="li-1:5,11" style="fill:white; text-rendering:optimizeSpeed; font-family:'Serif'; stroke:white;"><rect height="10" style="stroke:none;" width="6" x="279" y="96" /><path d="M281.1094 105.3906 Q281.1094 105.0625 281.3359 104.8359 Q281.5625 104.6094 281.8906 104.6094 Q282.2188 104.6094 282.4453 104.8359 Q282.6719 105.0625 282.6719 105.3906 Q282.6719 105.7188 282.4453 105.9453 Q282.2188 106.1719 281.8906 106.1719 Q281.5625 106.1719 281.3359 105.9453 Q281.1094 105.7188 281.1094 105.3906 ZM279.8125 97.6406 Q280.4375 97.3594 281 97.2266 Q281.5625 97.0938 282.0469 97.0938 Q283.3438 97.0938 284.1016 97.7188 Q284.8594 98.3438 284.8594 99.4062 Q284.8594 100.5 284.2109 101.1953 Q283.5625 101.8906 282.25 102.1875 L282.25 103.6719 L281.5312 103.6719 L281.5312 101.75 Q282.5625 101.5 283.0938 100.9062 Q283.625 100.3125 283.625 99.4062 Q283.625 98.5938 283.1953 98.1328 Q282.7656 97.6719 282.0312 97.6719 Q281.3594 97.6719 280.9297 98.0547 Q280.5 98.4375 280.3906 99.1562 L279.8125 99.1562 L279.8125 97.6406 Z" style="fill:black; stroke:none;" /><rect height="10" style="stroke:none;" width="6" x="265" y="96" /><path d="M267.1094 105.3906 Q267.1094 105.0625 267.3359 104.8359 Q267.5625 104.6094 267.8906 104.6094 Q268.2188 104.6094 268.4453 104.8359 Q268.6719 105.0625 268.6719 105.3906 Q268.6719 105.7188 268.4453 105.9453 Q268.2188 106.1719 267.8906 106.1719 Q267.5625 106.1719 267.3359 105.9453 Q267.1094 105.7188 267.1094 105.3906 ZM265.8125 97.6406 Q266.4375 97.3594 267 97.2266 Q267.5625 97.0938 268.0469 97.0938 Q269.3438 97.0938 270.1016 97.7188 Q270.8594 98.3438 270.8594 99.4062 Q270.8594 100.5 270.2109 101.1953 Q269.5625 101.8906 268.25 102.1875 L268.25 103.6719 L267.5312 103.6719 L267.5312 101.75 Q268.5625 101.5 269.0938 100.9062 Q269.625 100.3125 269.625 99.4062 Q269.625 98.5938 269.1953 98.1328 Q268.7656 97.6719 268.0312 97.6719 Q267.3594 97.6719 266.9297 98.0547 Q266.5 98.4375 266.3906 99.1562 L265.8125 99.1562 L265.8125 97.6406 Z" style="fill:black; stroke:none;" /></g><g ID="li-1:3,4" style="fill:white; text-rendering:optimizeSpeed; font-family:'Serif'; stroke:white;"><rect height="10" style="stroke:none;" width="6" x="335" y="130" /><path d="M337.1094 139.3906 Q337.1094 139.0625 337.3359 138.8359 Q337.5625 138.6094 337.8906 138.6094 Q338.2188 138.6094 338.4453 138.8359 Q338.6719 139.0625 338.6719 139.3906 Q338.6719 139.7188 338.4453 139.9453 Q338.2188 140.1719 337.8906 140.1719 Q337.5625 140.1719 337.3359 139.9453 Q337.1094 139.7188 337.1094 139.3906 ZM335.8125 131.6406 Q336.4375 131.3594 337 131.2266 Q337.5625 131.0938 338.0469 131.0938 Q339.3438 131.0938 340.1016 131.7188 Q340.8594 132.3438 340.8594 133.4062 Q340.8594 134.5 340.2109 135.1953 Q339.5625 135.8906 338.25 136.1875 L338.25 137.6719 L337.5312 137.6719 L337.5312 135.75 Q338.5625 135.5 339.0938 134.9062 Q339.625 134.3125 339.625 133.4062 Q339.625 132.5938 339.1953 132.1328 Q338.7656 131.6719 338.0312 131.6719 Q337.3594 131.6719 336.9297 132.0547 Q336.5 132.4375 336.3906 133.1562 L335.8125 133.1562 L335.8125 131.6406 Z" style="fill:black; stroke:none;" /><rect height="10" style="stroke:none;" width="6" x="319" y="138" /><path d="M321.1094 147.3906 Q321.1094 147.0625 321.3359 146.8359 Q321.5625 146.6094 321.8906 146.6094 Q322.2188 146.6094 322.4453 146.8359 Q322.6719 147.0625 322.6719 147.3906 Q322.6719 147.7188 322.4453 147.9453 Q322.2188 148.1719 321.8906 148.1719 Q321.5625 148.1719 321.3359 147.9453 Q321.1094 147.7188 321.1094 147.3906 ZM319.8125 139.6406 Q320.4375 139.3594 321 139.2266 Q321.5625 139.0938 322.0469 139.0938 Q323.3438 139.0938 324.1016 139.7188 Q324.8594 140.3438 324.8594 141.4062 Q324.8594 142.5 324.2109 143.1953 Q323.5625 143.8906 322.25 144.1875 L322.25 145.6719 L321.5312 145.6719 L321.5312 143.75 Q322.5625 143.5 323.0938 142.9062 Q323.625 142.3125 323.625 141.4062 Q323.625 140.5938 323.1953 140.1328 Q322.7656 139.6719 322.0312 139.6719 Q321.3594 139.6719 320.9297 140.0547 Q320.5 140.4375 320.3906 141.1562 L319.8125 141.1562 L319.8125 139.6406 Z" style="fill:black; stroke:none;" /></g><g ID="li-1:3,5" style="fill:white; text-rendering:optimizeSpeed; font-family:'Serif'; stroke:white;"><rect height="10" style="stroke:none;" width="6" x="328" y="112" /><path d="M330.1094 121.3906 Q330.1094 121.0625 330.3359 120.8359 Q330.5625 120.6094 330.8906 120.6094 Q331.2188 120.6094 331.4453 120.8359 Q331.6719 121.0625 331.6719 121.3906 Q331.6719 121.7188 331.4453 121.9453 Q331.2188 122.1719 330.8906 122.1719 Q330.5625 122.1719 330.3359 121.9453 Q330.1094 121.7188 330.1094 121.3906 ZM328.8125 113.6406 Q329.4375 113.3594 330 113.2266 Q330.5625 113.0938 331.0469 113.0938 Q332.3438 113.0938 333.1016 113.7188 Q333.8594 114.3438 333.8594 115.4062 Q333.8594 116.5 333.2109 117.1953 Q332.5625 117.8906 331.25 118.1875 L331.25 119.6719 L330.5312 119.6719 L330.5312 117.75 Q331.5625 117.5 332.0938 116.9062 Q332.625 116.3125 332.625 115.4062 Q332.625 114.5938 332.1953 114.1328 Q331.7656 113.6719 331.0312 113.6719 Q330.3594 113.6719 329.9297 114.0547 Q329.5 114.4375 329.3906 115.1562 L328.8125 115.1562 L328.8125 113.6406 Z" style="fill:black; stroke:none;" /><rect height="10" style="stroke:none;" width="6" x="312" y="104" /><path d="M314.1094 113.3906 Q314.1094 113.0625 314.3359 112.8359 Q314.5625 112.6094 314.8906 112.6094 Q315.2188 112.6094 315.4453 112.8359 Q315.6719 113.0625 315.6719 113.3906 Q315.6719 113.7188 315.4453 113.9453 Q315.2188 114.1719 314.8906 114.1719 Q314.5625 114.1719 314.3359 113.9453 Q314.1094 113.7188 314.1094 113.3906 ZM312.8125 105.6406 Q313.4375 105.3594 314 105.2266 Q314.5625 105.0938 315.0469 105.0938 Q316.3438 105.0938 317.1016 105.7188 Q317.8594 106.3438 317.8594 107.4062 Q317.8594 108.5 317.2109 109.1953 Q316.5625 109.8906 315.25 110.1875 L315.25 111.6719 L314.5312 111.6719 L314.5312 109.75 Q315.5625 109.5 316.0938 108.9062 Q316.625 108.3125 316.625 107.4062 Q316.625 106.5938 316.1953 106.1328 Q315.7656 105.6719 315.0312 105.6719 Q314.3594 105.6719 313.9297 106.0547 Q313.5 106.4375 313.3906 107.1562 L312.8125 107.1562 L312.8125 105.6406 Z" style="fill:black; stroke:none;" /></g><g ID="li-1:2,3" style="fill:white; text-rendering:optimizeSpeed; font-family:'Serif'; stroke:white;"><rect height="10" style="stroke:none;" width="6" x="383" y="122" /><path d="M385.1094 131.3906 Q385.1094 131.0625 385.3359 130.8359 Q385.5625 130.6094 385.8906 130.6094 Q386.2188 130.6094 386.4453 130.8359 Q386.6719 131.0625 386.6719 131.3906 Q386.6719 131.7188 386.4453 131.9453 Q386.2188 132.1719 385.8906 132.1719 Q385.5625 132.1719 385.3359 131.9453 Q385.1094 131.7188 385.1094 131.3906 ZM383.8125 123.6406 Q384.4375 123.3594 385 123.2266 Q385.5625 123.0938 386.0469 123.0938 Q387.3438 123.0938 388.1016 123.7188 Q388.8594 124.3438 388.8594 125.4062 Q388.8594 126.5 388.2109 127.1953 Q387.5625 127.8906 386.25 128.1875 L386.25 129.6719 L385.5312 129.6719 L385.5312 127.75 Q386.5625 127.5 387.0938 126.9062 Q387.625 126.3125 387.625 125.4062 Q387.625 124.5938 387.1953 124.1328 Q386.7656 123.6719 386.0312 123.6719 Q385.3594 123.6719 384.9297 124.0547 Q384.5 124.4375 384.3906 125.1562 L383.8125 125.1562 L383.8125 123.6406 Z" style="fill:black; stroke:none;" /><rect height="10" style="stroke:none;" width="6" x="369" y="122" /><path d="M371.1094 131.3906 Q371.1094 131.0625 371.3359 130.8359 Q371.5625 130.6094 371.8906 130.6094 Q372.2188 130.6094 372.4453 130.8359 Q372.6719 131.0625 372.6719 131.3906 Q372.6719 131.7188 372.4453 131.9453 Q372.2188 132.1719 371.8906 132.1719 Q371.5625 132.1719 371.3359 131.9453 Q371.1094 131.7188 371.1094 131.3906 ZM369.8125 123.6406 Q370.4375 123.3594 371 123.2266 Q371.5625 123.0938 372.0469 123.0938 Q373.3438 123.0938 374.1016 123.7188 Q374.8594 124.3438 374.8594 125.4062 Q374.8594 126.5 374.2109 127.1953 Q373.5625 127.8906 372.25 128.1875 L372.25 129.6719 L371.5312 129.6719 L371.5312 127.75 Q372.5625 127.5 373.0938 126.9062 Q373.625 126.3125 373.625 125.4062 Q373.625 124.5938 373.1953 124.1328 Q372.7656 123.6719 372.0312 123.6719 Q371.3594 123.6719 370.9297 124.0547 Q370.5 124.4375 370.3906 125.1562 L369.8125 125.1562 L369.8125 123.6406 Z" style="fill:black; stroke:none;" /></g><g ID="li-1:1,2" style="fill:white; text-rendering:optimizeSpeed; font-family:'Serif'; stroke:white;"><rect height="10" style="stroke:none;" width="6" x="435" y="122" /><path d="M437.1094 131.3906 Q437.1094 131.0625 437.3359 130.8359 Q437.5625 130.6094 437.8906 130.6094 Q438.2188 130.6094 438.4453 130.8359 Q438.6719 131.0625 438.6719 131.3906 Q438.6719 131.7188 438.4453 131.9453 Q438.2188 132.1719 437.8906 132.1719 Q437.5625 132.1719 437.3359 131.9453 Q437.1094 131.7188 437.1094 131.3906 ZM435.8125 123.6406 Q436.4375 123.3594 437 123.2266 Q437.5625 123.0938 438.0469 123.0938 Q439.3438 123.0938 440.1016 123.7188 Q440.8594 124.3438 440.8594 125.4062 Q440.8594 126.5 440.2109 127.1953 Q439.5625 127.8906 438.25 128.1875 L438.25 129.6719 L437.5312 129.6719 L437.5312 127.75 Q438.5625 127.5 439.0938 126.9062 Q439.625 126.3125 439.625 125.4062 Q439.625 124.5938 439.1953 124.1328 Q438.7656 123.6719 438.0312 123.6719 Q437.3594 123.6719 436.9297 124.0547 Q436.5 124.4375 436.3906 125.1562 L435.8125 125.1562 L435.8125 123.6406 Z" style="fill:black; stroke:none;" /><rect height="10" style="stroke:none;" width="6" x="421" y="122" /><path d="M423.1094 131.3906 Q423.1094 131.0625 423.3359 130.8359 Q423.5625 130.6094 423.8906 130.6094 Q424.2188 130.6094 424.4453 130.8359 Q424.6719 131.0625 424.6719 131.3906 Q424.6719 131.7188 424.4453 131.9453 Q424.2188 132.1719 423.8906 132.1719 Q423.5625 132.1719 423.3359 131.9453 Q423.1094 131.7188 423.1094 131.3906 ZM421.8125 123.6406 Q422.4375 123.3594 423 123.2266 Q423.5625 123.0938 424.0469 123.0938 Q425.3438 123.0938 426.1016 123.7188 Q426.8594 124.3438 426.8594 125.4062 Q426.8594 126.5 426.2109 127.1953 Q425.5625 127.8906 424.25 128.1875 L424.25 129.6719 L423.5312 129.6719 L423.5312 127.75 Q424.5625 127.5 425.0938 126.9062 Q425.625 126.3125 425.625 125.4062 Q425.625 124.5938 425.1953 124.1328 Q424.7656 123.6719 424.0312 123.6719 Q423.3594 123.6719 422.9297 124.0547 Q422.5 124.4375 422.3906 125.1562 L421.8125 125.1562 L421.8125 123.6406 Z" style="fill:black; stroke:none;" /></g></g></svg>