<svg xmlns="http://www.w3.org/2000/svg" style="fill-opacity:1; color-rendering:auto; color-interpolation:auto; text-rendering:auto; stroke:black; stroke-linecap:square; stroke-miterlimit:10; shape-rendering:auto; stroke-opacity:1; fill:black; stroke-dasharray:none; font-weight:normal; stroke-width:1; font-family:'Dialog'; font-style:normal; stroke-linejoin:miter; font-size:12px; stroke-dashoffset:0; image-rendering:auto;"><defs id="genericDefs" /><g><defs id="defs1"><clipPath clipPathUnits="userSpaceOnUse" id="clipPath1"><path d="M394 82 L416 82 L416 104 L394 104 L394 82 Z" /></clipPath><clipPath clipPathUnits="userSpaceOnUse" id="clipPath2"><path d="M342 82 L364 82 L364 104 L342 104 L342 82 Z" /></clipPath><clipPath clipPathUnits="userSpaceOnUse" id="clipPath3"><path d="M312 93 C312 99.0751 307.0751 104 301 104 C294.9249 104 290 99.0751 290 93 C290 86.9249 294.9249 82 301 82 C307.0751 82 312 86.9249 312 93 Z" /></clipPath><clipPath clipPathUnits="userSpaceOnUse" id="clipPath4"><path d="M260 145 C260 151.0751 255.0751 156 249 156 C242.9249 156 238 151.0751 238 145 C238 138.9249 242.9249 134 249 134 C255.0751 134 260 138.9249 260 145 Z" /></clipPath><clipPath clipPathUnits="userSpaceOnUse" id="clipPath5"><path d="M186 134 L208 134 L208 156 L186 156 L186 134 Z" /></clipPath><clipPath clipPathUnits="userSpaceOnUse" id="clipPath6"><path d="M197 186 L208 208 L186 208 Z" style="fill-rule:evenodd;" /></clipPath><clipPath clipPathUnits="userSpaceOnUse" id="clipPath7"><path d="M156 145 C156 151.0751 151.0751 156 145 156 C138.9249 156 134 151.0751 134 145 C134 138.9249 138.9249 134 145 134 C151.0751 134 156 138.9249 156 145 Z" /></clipPath><clipPath clipPathUnits="userSpaceOnUse" id="clipPath8"><path d="M93 134 L104 145 L93 156 L82 145 Z" style="fill-rule:evenodd;" /></clipPath><clipPath clipPathUnits="userSpaceOnUse" id="clipPath9"><path d="M41 134 L52 145 L41 156 L30 145 Z" style="fill-rule:evenodd;" /></clipPath><clipPath clipPathUnits="userSpaceOnUse" id="clipPath10"><path d="M238 82 L260 82 L260 104 L238 104 L238 82 Z" /></clipPath><clipPath clipPathUnits="userSpaceOnUse" id="clipPath11"><path d="M260 41 C260 47.0751 255.0751 52 249 52 C242.9249 52 238 47.0751 238 41 C238 34.9249 242.9249 30 249 30 C255.0751 30 260 34.9249 260 41 Z" /></clipPath><clipPath clipPathUnits="userSpaceOnUse" id="clipPath12"><path d="M208 41 C208 47.0751 203.0751 52 197 52 C190.9249 52 186 47.0751 186 41 C186 34.9249 190.9249 30 197 30 C203.0751 30 208 34.9249 208 41 Z" /></clipPath></defs><g style="fill:white; text-rendering:optimizeSpeed; stroke:white;"><rect height="238" style="stroke:none;" width="446" x="0" y="0" /></g><g ID="l-1:1,2" style="text-rendering:optimizeSpeed;"><polygon points=" 405 93 353 93" style="fill:none;" /></g><g ID="r-1:1" style="fill:white; text-rendering:optimizeSpeed; stroke:white;" wurcs_mono_id="1"><rect height="22" style="clip-path:url(#clipPath1); stroke:none;" width="22" x="394" y="82" /><rect height="22" style="clip-path:url(#clipPath1); fill:rgb(0,144,188); stroke:none;" width="22" x="394" y="82" /><rect height="22" style="clip-path:url(#clipPath1); fill:none; stroke:black;" width="22" x="394" y="82" /><rect height="22" style="fill:none; stroke:black;" width="22" x="394" y="82" /></g><g ID="l-1:2,3" style="text-rendering:optimizeSpeed;"><polygon points=" 353 93 301 93" style="fill:none;" /></g><g ID="r-1:2" style="fill:white; text-rendering:optimizeSpeed; stroke:white;" wurcs_mono_id="2"><rect height="22" style="clip-path:url(#clipPath2); stroke:none;" width="22" x="342" y="82" /><rect height="22" style="clip-path:url(#clipPath2); fill:rgb(0,144,188); stroke:none;" width="22" x="342" y="82" /><rect height="22" style="clip-path:url(#clipPath2); fill:none; stroke:black;" width="22" x="342" y="82" /><rect height="22" style="fill:none; stroke:black;" width="22" x="342" y="82" /></g><g ID="l-1:3,4" style="text-rendering:optimizeSpeed;"><polygon points=" 301 93 249 145" style="fill:none;" /></g><g ID="l-1:3,5" style="text-rendering:optimizeSpeed;"><polygon points=" 301 93 249 93" style="fill:none;" /></g><g ID="l-1:3,6" style="text-rendering:optimizeSpeed;"><polygon points=" 301 93 249 41" style="fill:none;" /></g><g ID="r-1:3" style="fill:white; text-rendering:optimizeSpeed; stroke:white;" wurcs_mono_id="3"><circle cx="301" cy="93" r="11" style="clip-path:url(#clipPath3); stroke:none;" /><rect height="22" style="clip-path:url(#clipPath3); fill:rgb(0,166,81); stroke:none;" width="22" x="290" y="82" /><rect height="22" style="clip-path:url(#clipPath3); fill:none; stroke:black;" width="22" x="290" y="82" /><circle cx="301" cy="93" r="11" style="fill:none; stroke:black;" /></g><g ID="l-1:4,7" style="text-rendering:optimizeSpeed;"><polygon points=" 249 145 197 145" style="fill:none;" /></g><g ID="r-1:4" style="fill:white; text-rendering:optimizeSpeed; stroke:white;" wurcs_mono_id="4"><circle cx="249" cy="145" r="11" style="clip-path:url(#clipPath4); stroke:none;" /><rect height="22" style="clip-path:url(#clipPath4); fill:rgb(0,166,81); stroke:none;" width="22" x="238" y="134" /><rect height="22" style="clip-path:url(#clipPath4); fill:none; stroke:black;" width="22" x="238" y="134" /><circle cx="249" cy="145" r="11" style="fill:none; stroke:black;" /></g><g ID="l-1:7,8" style="text-rendering:optimizeSpeed;"><polygon points=" 197 145 197 197" style="fill:none;" /></g><g ID="l-1:7,9" style="text-rendering:optimizeSpeed;"><polygon points=" 197 145 145 145" style="fill:none;" /></g><g ID="r-1:7" style="fill:white; text-rendering:optimizeSpeed; stroke:white;" wurcs_mono_id="5"><rect height="22" style="clip-path:url(#clipPath5); stroke:none;" width="22" x="186" y="134" /><rect height="22" style="clip-path:url(#clipPath5); fill:rgb(0,144,188); stroke:none;" width="22" x="186" y="134" /><rect height="22" style="clip-path:url(#clipPath5); fill:none; stroke:black;" width="22" x="186" y="134" /><rect height="22" style="fill:none; stroke:black;" width="22" x="186" y="134" /></g><g ID="r-1:8" style="fill:white; text-rendering:optimizeSpeed; stroke:white;" wurcs_mono_id="6"><polygon points=" 197 186 208 208 186 208" style="stroke:none; clip-path:url(#clipPath6);" /><rect height="22" style="clip-path:url(#clipPath6); fill:rgb(237,28,36); stroke:none;" width="22" x="186" y="186" /><rect height="22" style="clip-path:url(#clipPath6); fill:none; stroke:black;" width="22" x="186" y="186" /><polygon points=" 197 186 208 208 186 208" style="fill:none; stroke:black;" /></g><g ID="l-1:9,10" style="text-rendering:optimizeSpeed;"><polygon points=" 145 145 93 145" style="fill:none;" /></g><g ID="r-1:9" style="fill:white; text-rendering:optimizeSpeed; stroke:white;" wurcs_mono_id="7"><circle cx="145" cy="145" r="11" style="clip-path:url(#clipPath7); stroke:none;" /><rect height="22" style="clip-path:url(#clipPath7); fill:rgb(255,212,0); stroke:none;" width="22" x="134" y="134" /><rect height="22" style="clip-path:url(#clipPath7); fill:none; stroke:black;" width="22" x="134" y="134" /><circle cx="145" cy="145" r="11" style="fill:none; stroke:black;" /></g><g ID="l-1:10,11" style="text-rendering:optimizeSpeed;"><polygon points=" 93 145 41 145" style="fill:none;" /></g><g ID="r-1:10" style="fill:white; text-rendering:optimizeSpeed; stroke:white;" wurcs_mono_id="8"><polygon points=" 93 134 104 145 93 156 82 145" style="stroke:none; clip-path:url(#clipPath8);" /><rect height="22" style="clip-path:url(#clipPath8); fill:rgb(165,67,153); stroke:none;" width="22" x="82" y="134" /><rect height="22" style="clip-path:url(#clipPath8); fill:none; stroke:black;" width="22" x="82" y="134" /><polygon points=" 93 134 104 145 93 156 82 145" style="fill:none; stroke:black;" /></g><g ID="r-1:11" style="fill:white; text-rendering:optimizeSpeed; stroke:white;" wurcs_mono_id="9"><polygon points=" 41 134 52 145 41 156 30 145" style="stroke:none; clip-path:url(#clipPath9);" /><rect height="22" style="clip-path:url(#clipPath9); fill:rgb(165,67,153); stroke:none;" width="22" x="30" y="134" /><rect height="22" style="clip-path:url(#clipPath9); fill:none; stroke:black;" width="22" x="30" y="134" /><polygon points=" 41 134 52 145 41 156 30 145" style="fill:none; stroke:black;" /></g><g ID="li-1:10,11" style="fill:white; text-rendering:optimizeSpeed; font-family:'Serif'; stroke:white;"><rect height="10" style="stroke:none;" width="7" x="70" y="148" /><path d="M75.5938 155.6094 Q75.5938 154.6719 75.125 154.1562 Q74.6562 153.6406 73.8125 153.6406 Q72.9688 153.6406 72.5078 154.1562 Q72.0469 154.6719 72.0469 155.6094 Q72.0469 156.5469 72.5078 157.0703 Q72.9688 157.5938 73.8125 157.5938 Q74.6562 157.5938 75.125 157.0703 Q75.5938 156.5469 75.5938 155.6094 ZM75.3438 151.3594 Q75.3438 150.5625 74.9453 150.1172 Q74.5469 149.6719 73.8125 149.6719 Q73.0938 149.6719 72.6875 150.1172 Q72.2812 150.5625 72.2812 151.3594 Q72.2812 152.1562 72.6875 152.6016 Q73.0938 153.0469 73.8125 153.0469 Q74.5469 153.0469 74.9453 152.6016 Q75.3438 152.1562 75.3438 151.3594 ZM74.7188 153.3438 Q75.7188 153.4688 76.2734 154.0703 Q76.8281 154.6719 76.8281 155.6094 Q76.8281 156.8438 76.0469 157.5078 Q75.2656 158.1719 73.8125 158.1719 Q72.375 158.1719 71.5859 157.5078 Q70.7969 156.8438 70.7969 155.6094 Q70.7969 154.6719 71.3594 154.0703 Q71.9219 153.4688 72.9219 153.3438 Q72.0312 153.1875 71.5625 152.6719 Q71.0938 152.1562 71.0938 151.3594 Q71.0938 150.3125 71.8203 149.7031 Q72.5469 149.0938 73.8125 149.0938 Q75.0938 149.0938 75.8203 149.7031 Q76.5469 150.3125 76.5469 151.3594 Q76.5469 152.1562 76.0703 152.6719 Q75.5938 153.1875 74.7188 153.3438 Z" style="fill:black; stroke:none;" /><rect height="8" style="stroke:none;" width="8" x="56" y="149" /><path d="M61.1875 155.4688 L60.9531 156.1094 Q60.7656 156.625 60.2031 156.9375 Q59.8438 157.1562 59.2031 157.1406 Q58.0469 157.1406 57.3281 156.2344 Q56.5938 155.3281 56.5938 153.8594 Q56.5938 152.4219 57.3281 151.4844 Q58.0156 150.5938 59.4531 150.6094 Q60.4531 150.6094 60.9531 151 Q61.4062 151.3438 61.5781 152.0938 L61.625 152.3125 L61.8438 151.6719 Q62.0625 151.0469 62.6562 150.75 L63.25 150.75 L63.25 151.0938 Q62.6875 151.2656 62.5 151.8125 L61.8906 153.4844 L62.2969 155.2812 Q62.5 156.2031 62.7344 156.2969 Q63.0469 156.4375 63.7812 156 L63.7812 156.7188 Q62.5938 157.4062 61.75 156.6875 Q61.375 156.3594 61.2656 155.875 L61.1875 155.4688 ZM60.9219 154.3125 L60.5625 152.5938 Q60.2656 151.2188 59.4688 151.2188 Q58.7969 151.2031 58.2812 151.9375 Q57.8594 152.5156 57.8594 153.875 Q57.8594 155.1719 58.2812 155.8281 Q58.75 156.5469 59.5312 156.5 Q60.2031 156.4375 60.6875 155 L60.9219 154.3125 Z" style="fill:black; stroke:none;" /></g><g ID="li-1:9,10" style="fill:white; text-rendering:optimizeSpeed; font-family:'Serif'; stroke:white;"><rect height="11" style="stroke:none;" width="19" x="116" y="147" /><path d="M117.1719 149.625 Q117.8594 149.3594 118.4844 149.2266 Q119.1094 149.0938 119.6562 149.0938 Q120.9531 149.0938 121.6719 149.6484 Q122.3906 150.2031 122.3906 151.1875 Q122.3906 151.9688 121.8906 152.5 Q121.3906 153.0312 120.4844 153.2188 Q121.5625 153.375 122.1562 154.0078 Q122.75 154.6406 122.75 155.6406 Q122.75 156.8594 121.9219 157.5156 Q121.0938 158.1719 119.5469 158.1719 Q118.8594 158.1719 118.2109 158.0234 Q117.5625 157.875 116.9219 157.5781 L116.9219 155.875 L117.5781 155.875 Q117.625 156.7188 118.1406 157.1562 Q118.6562 157.5938 119.5781 157.5938 Q120.4688 157.5938 120.9922 157.0703 Q121.5156 156.5469 121.5156 155.6562 Q121.5156 154.625 120.9766 154.0938 Q120.4375 153.5625 119.4062 153.5625 L118.8594 153.5625 L118.8594 152.9531 L119.1406 152.9531 Q120.1719 152.9531 120.6875 152.5312 Q121.2031 152.1094 121.2031 151.25 Q121.2031 150.4844 120.7812 150.0781 Q120.3594 149.6719 119.5625 149.6719 Q118.7656 149.6719 118.3359 150.0469 Q117.9062 150.4219 117.8281 151.1562 L117.1719 151.1562 L117.1719 149.625 ZM126.7441 149.25 L127.6816 149.25 L124.5723 159.1094 L123.6348 159.1094 L126.7441 149.25 ZM131.5996 157.5938 Q132.4277 157.5938 132.873 156.9844 Q133.3184 156.375 133.3184 155.2344 Q133.3184 154.1094 132.873 153.5 Q132.4277 152.8906 131.5996 152.8906 Q130.7715 152.8906 130.3262 153.4766 Q129.8809 154.0625 129.8809 155.1719 Q129.8809 156.3281 130.3262 156.9609 Q130.7715 157.5938 131.5996 157.5938 ZM129.6934 153.1875 Q130.0996 152.75 130.5996 152.5312 Q131.0996 152.3125 131.7402 152.3125 Q133.0371 152.3125 133.7949 153.0938 Q134.5527 153.875 134.5527 155.2344 Q134.5527 156.5625 133.7402 157.3672 Q132.9277 158.1719 131.5527 158.1719 Q130.0684 158.1719 129.2715 157.0625 Q128.4746 155.9531 128.4746 153.9062 Q128.4746 151.6094 129.4199 150.3516 Q130.3652 149.0938 132.084 149.0938 Q132.5527 149.0938 133.0605 149.1797 Q133.5684 149.2656 134.0996 149.4375 L134.0996 150.8906 L133.4434 150.8906 Q133.3652 150.2969 132.9824 149.9844 Q132.5996 149.6719 131.959 149.6719 Q130.8184 149.6719 130.2637 150.5312 Q129.709 151.3906 129.6934 153.1875 Z" style="fill:black; stroke:none;" /><rect height="8" style="stroke:none;" width="8" x="108" y="149" /><path d="M113.1875 155.4688 L112.9531 156.1094 Q112.7656 156.625 112.2031 156.9375 Q111.8438 157.1562 111.2031 157.1406 Q110.0469 157.1406 109.3281 156.2344 Q108.5938 155.3281 108.5938 153.8594 Q108.5938 152.4219 109.3281 151.4844 Q110.0156 150.5938 111.4531 150.6094 Q112.4531 150.6094 112.9531 151 Q113.4062 151.3438 113.5781 152.0938 L113.625 152.3125 L113.8438 151.6719 Q114.0625 151.0469 114.6562 150.75 L115.25 150.75 L115.25 151.0938 Q114.6875 151.2656 114.5 151.8125 L113.8906 153.4844 L114.2969 155.2812 Q114.5 156.2031 114.7344 156.2969 Q115.0469 156.4375 115.7812 156 L115.7812 156.7188 Q114.5938 157.4062 113.75 156.6875 Q113.375 156.3594 113.2656 155.875 L113.1875 155.4688 ZM112.9219 154.3125 L112.5625 152.5938 Q112.2656 151.2188 111.4688 151.2188 Q110.7969 151.2031 110.2812 151.9375 Q109.8594 152.5156 109.8594 153.875 Q109.8594 155.1719 110.2812 155.8281 Q110.75 156.5469 111.5312 156.5 Q112.2031 156.4375 112.6875 155 L112.9219 154.3125 Z" style="fill:black; stroke:none;" /></g><g ID="li-1:7,8" style="fill:white; text-rendering:optimizeSpeed; font-family:'Serif'; stroke:white;"><rect height="10" style="stroke:none;" width="7" x="201" y="159" /><path d="M202.1719 160.625 Q202.8594 160.3594 203.4844 160.2266 Q204.1094 160.0938 204.6562 160.0938 Q205.9531 160.0938 206.6719 160.6484 Q207.3906 161.2031 207.3906 162.1875 Q207.3906 162.9688 206.8906 163.5 Q206.3906 164.0312 205.4844 164.2188 Q206.5625 164.375 207.1562 165.0078 Q207.75 165.6406 207.75 166.6406 Q207.75 167.8594 206.9219 168.5156 Q206.0938 169.1719 204.5469 169.1719 Q203.8594 169.1719 203.2109 169.0234 Q202.5625 168.875 201.9219 168.5781 L201.9219 166.875 L202.5781 166.875 Q202.625 167.7188 203.1406 168.1562 Q203.6562 168.5938 204.5781 168.5938 Q205.4688 168.5938 205.9922 168.0703 Q206.5156 167.5469 206.5156 166.6562 Q206.5156 165.625 205.9766 165.0938 Q205.4375 164.5625 204.4062 164.5625 L203.8594 164.5625 L203.8594 163.9531 L204.1406 163.9531 Q205.1719 163.9531 205.6875 163.5312 Q206.2031 163.1094 206.2031 162.25 Q206.2031 161.4844 205.7812 161.0781 Q205.3594 160.6719 204.5625 160.6719 Q203.7656 160.6719 203.3359 161.0469 Q202.9062 161.4219 202.8281 162.1562 L202.1719 162.1562 L202.1719 160.625 Z" style="fill:black; stroke:none;" /><rect height="8" style="stroke:none;" width="8" x="201" y="174" /><path d="M206.1875 180.4688 L205.9531 181.1094 Q205.7656 181.625 205.2031 181.9375 Q204.8438 182.1562 204.2031 182.1406 Q203.0469 182.1406 202.3281 181.2344 Q201.5938 180.3281 201.5938 178.8594 Q201.5938 177.4219 202.3281 176.4844 Q203.0156 175.5938 204.4531 175.6094 Q205.4531 175.6094 205.9531 176 Q206.4062 176.3438 206.5781 177.0938 L206.625 177.3125 L206.8438 176.6719 Q207.0625 176.0469 207.6562 175.75 L208.25 175.75 L208.25 176.0938 Q207.6875 176.2656 207.5 176.8125 L206.8906 178.4844 L207.2969 180.2812 Q207.5 181.2031 207.7344 181.2969 Q208.0469 181.4375 208.7812 181 L208.7812 181.7188 Q207.5938 182.4062 206.75 181.6875 Q206.375 181.3594 206.2656 180.875 L206.1875 180.4688 ZM205.9219 179.3125 L205.5625 177.5938 Q205.2656 176.2188 204.4688 176.2188 Q203.7969 176.2031 203.2812 176.9375 Q202.8594 177.5156 202.8594 178.875 Q202.8594 180.1719 203.2812 180.8281 Q203.75 181.5469 204.5312 181.5 Q205.2031 181.4375 205.6875 180 L205.9219 179.3125 Z" style="fill:black; stroke:none;" /></g><g ID="li-1:7,9" style="fill:white; text-rendering:optimizeSpeed; font-family:'Serif'; stroke:white;"><rect height="9" style="stroke:none;" width="8" x="174" y="148" /><path d="M178.1875 154.0312 L178.1875 149.375 L175.2031 154.0312 L178.1875 154.0312 ZM180.7656 157 L176.7812 157 L176.7812 156.375 L178.1875 156.375 L178.1875 154.6562 L174.375 154.6562 L174.375 154.0156 L178.2031 148.0938 L179.3594 148.0938 L179.3594 154.0312 L181.0312 154.0312 L181.0312 154.6562 L179.3594 154.6562 L179.3594 156.375 L180.7656 156.375 L180.7656 157 Z" style="fill:black; stroke:none;" /><rect height="13" style="stroke:none;" width="7" x="160" y="146" /><path d="M161.8281 158.25 Q162.2969 158.5938 163.1719 158.5938 Q164.0625 158.5938 164.5781 158.0703 Q165.0938 157.5469 165.0938 156.6562 Q165.0938 155.4219 164.5625 154.8906 Q164.0156 154.3594 163 154.3594 L162.4375 154.3594 L162.4375 153.7188 L162.7344 153.7188 Q163.4844 153.7188 164 153.2969 Q164.4219 152.9531 164.4219 152.0156 Q164.4219 151.6094 164.1406 151.1406 Q163.6875 150.375 163.1562 150.3906 Q161.8281 150.4375 161.8281 152.7812 L161.8281 158.25 ZM160.75 161.5 L160.75 152.7812 Q160.75 150.3281 162.0781 150 Q162.7656 149.8125 163.25 149.8125 Q164.3438 149.8125 165.0469 150.6719 Q165.6094 151.3594 165.6094 151.9375 Q165.6094 152.7812 165.2031 153.2656 Q164.7969 153.75 164.0625 153.9844 Q165.1406 154.1406 165.75 154.7812 Q166.3281 155.4062 166.3281 156.6328 Q166.3281 157.8594 165.5078 158.5156 Q164.6875 159.1719 163.1406 159.1719 Q162.1875 159.1719 161.8281 159.0312 L161.8281 161.5 L160.75 161.5 Z" style="fill:black; stroke:none;" /></g><g ID="li-1:4,7" style="fill:white; text-rendering:optimizeSpeed; font-family:'Serif'; stroke:white;"><rect height="9" style="stroke:none;" width="7" x="226" y="148" /><path d="M227.5312 150.3438 L226.875 150.3438 L226.875 148.7812 Q227.5 148.4375 228.1406 148.2656 Q228.7812 148.0938 229.3906 148.0938 Q230.75 148.0938 231.5391 148.7578 Q232.3281 149.4219 232.3281 150.5469 Q232.3281 151.8438 230.5469 153.625 Q230.4062 153.7656 230.3281 153.8281 L228.125 156.0312 L231.7656 156.0312 L231.7656 154.9531 L232.4531 154.9531 L232.4531 157 L226.8125 157 L226.8125 156.3594 L229.4688 153.7188 Q230.3438 152.8281 230.7188 152.0938 Q231.0938 151.3594 231.0938 150.5469 Q231.0938 149.6719 230.6328 149.1719 Q230.1719 148.6719 229.375 148.6719 Q228.5312 148.6719 228.0781 149.0859 Q227.625 149.5 227.5312 150.3438 Z" style="fill:black; stroke:none;" /><rect height="13" style="stroke:none;" width="7" x="212" y="146" /><path d="M213.8281 158.25 Q214.2969 158.5938 215.1719 158.5938 Q216.0625 158.5938 216.5781 158.0703 Q217.0938 157.5469 217.0938 156.6562 Q217.0938 155.4219 216.5625 154.8906 Q216.0156 154.3594 215 154.3594 L214.4375 154.3594 L214.4375 153.7188 L214.7344 153.7188 Q215.4844 153.7188 216 153.2969 Q216.4219 152.9531 216.4219 152.0156 Q216.4219 151.6094 216.1406 151.1406 Q215.6875 150.375 215.1562 150.3906 Q213.8281 150.4375 213.8281 152.7812 L213.8281 158.25 ZM212.75 161.5 L212.75 152.7812 Q212.75 150.3281 214.0781 150 Q214.7656 149.8125 215.25 149.8125 Q216.3438 149.8125 217.0469 150.6719 Q217.6094 151.3594 217.6094 151.9375 Q217.6094 152.7812 217.2031 153.2656 Q216.7969 153.75 216.0625 153.9844 Q217.1406 154.1406 217.75 154.7812 Q218.3281 155.4062 218.3281 156.6328 Q218.3281 157.8594 217.5078 158.5156 Q216.6875 159.1719 215.1406 159.1719 Q214.1875 159.1719 213.8281 159.0312 L213.8281 161.5 L212.75 161.5 Z" style="fill:black; stroke:none;" /></g><g ID="r-1:5" style="fill:white; text-rendering:optimizeSpeed; stroke:white;" wurcs_mono_id="10"><rect height="22" style="clip-path:url(#clipPath10); stroke:none;" width="22" x="238" y="82" /><rect height="22" style="clip-path:url(#clipPath10); fill:rgb(0,144,188); stroke:none;" width="22" x="238" y="82" /><rect height="22" style="clip-path:url(#clipPath10); fill:none; stroke:black;" width="22" x="238" y="82" /><rect height="22" style="fill:none; stroke:black;" width="22" x="238" y="82" /></g><g ID="l-1:6,12" style="text-rendering:optimizeSpeed;"><polygon points=" 249 41 197 41" style="fill:none;" /></g><g ID="r-1:6" style="fill:white; text-rendering:optimizeSpeed; stroke:white;" wurcs_mono_id="11"><circle cx="249" cy="41" r="11" style="clip-path:url(#clipPath11); stroke:none;" /><rect height="22" style="clip-path:url(#clipPath11); fill:rgb(0,166,81); stroke:none;" width="22" x="238" y="30" /><rect height="22" style="clip-path:url(#clipPath11); fill:none; stroke:black;" width="22" x="238" y="30" /><circle cx="249" cy="41" r="11" style="fill:none; stroke:black;" /></g><g ID="r-1:12" style="fill:white; text-rendering:optimizeSpeed; stroke:white;" wurcs_mono_id="12"><circle cx="197" cy="41" r="11" style="clip-path:url(#clipPath12); stroke:none;" /><rect height="22" style="clip-path:url(#clipPath12); fill:rgb(0,166,81); stroke:none;" width="22" x="186" y="30" /><rect height="22" style="clip-path:url(#clipPath12); fill:none; stroke:black;" width="22" x="186" y="30" /><circle cx="197" cy="41" r="11" style="fill:none; stroke:black;" /></g><g ID="li-1:6,12" style="fill:white; text-rendering:optimizeSpeed; font-family:'Serif'; stroke:white;"><rect height="10" style="stroke:none;" width="7" x="226" y="44" /><path d="M227.1719 45.625 Q227.8594 45.3594 228.4844 45.2266 Q229.1094 45.0938 229.6562 45.0938 Q230.9531 45.0938 231.6719 45.6484 Q232.3906 46.2031 232.3906 47.1875 Q232.3906 47.9688 231.8906 48.5 Q231.3906 49.0312 230.4844 49.2188 Q231.5625 49.375 232.1562 50.0078 Q232.75 50.6406 232.75 51.6406 Q232.75 52.8594 231.9219 53.5156 Q231.0938 54.1719 229.5469 54.1719 Q228.8594 54.1719 228.2109 54.0234 Q227.5625 53.875 226.9219 53.5781 L226.9219 51.875 L227.5781 51.875 Q227.625 52.7188 228.1406 53.1562 Q228.6562 53.5938 229.5781 53.5938 Q230.4688 53.5938 230.9922 53.0703 Q231.5156 52.5469 231.5156 51.6562 Q231.5156 50.625 230.9766 50.0938 Q230.4375 49.5625 229.4062 49.5625 L228.8594 49.5625 L228.8594 48.9531 L229.1406 48.9531 Q230.1719 48.9531 230.6875 48.5312 Q231.2031 48.1094 231.2031 47.25 Q231.2031 46.4844 230.7812 46.0781 Q230.3594 45.6719 229.5625 45.6719 Q228.7656 45.6719 228.3359 46.0469 Q227.9062 46.4219 227.8281 47.1562 L227.1719 47.1562 L227.1719 45.625 Z" style="fill:black; stroke:none;" /><rect height="8" style="stroke:none;" width="8" x="212" y="45" /><path d="M217.1875 51.4688 L216.9531 52.1094 Q216.7656 52.625 216.2031 52.9375 Q215.8438 53.1562 215.2031 53.1406 Q214.0469 53.1406 213.3281 52.2344 Q212.5938 51.3281 212.5938 49.8594 Q212.5938 48.4219 213.3281 47.4844 Q214.0156 46.5938 215.4531 46.6094 Q216.4531 46.6094 216.9531 47 Q217.4062 47.3438 217.5781 48.0938 L217.625 48.3125 L217.8438 47.6719 Q218.0625 47.0469 218.6562 46.75 L219.25 46.75 L219.25 47.0938 Q218.6875 47.2656 218.5 47.8125 L217.8906 49.4844 L218.2969 51.2812 Q218.5 52.2031 218.7344 52.2969 Q219.0469 52.4375 219.7812 52 L219.7812 52.7188 Q218.5938 53.4062 217.75 52.6875 Q217.375 52.3594 217.2656 51.875 L217.1875 51.4688 ZM216.9219 50.3125 L216.5625 48.5938 Q216.2656 47.2188 215.4688 47.2188 Q214.7969 47.2031 214.2812 47.9375 Q213.8594 48.5156 213.8594 49.875 Q213.8594 51.1719 214.2812 51.8281 Q214.75 52.5469 215.5312 52.5 Q216.2031 52.4375 216.6875 51 L216.9219 50.3125 Z" style="fill:black; stroke:none;" /></g><g ID="li-1:3,4" style="fill:white; text-rendering:optimizeSpeed; font-family:'Serif'; stroke:white;"><rect height="10" style="stroke:none;" width="7" x="286" y="110" /><path d="M287.1719 111.625 Q287.8594 111.3594 288.4844 111.2266 Q289.1094 111.0938 289.6562 111.0938 Q290.9531 111.0938 291.6719 111.6484 Q292.3906 112.2031 292.3906 113.1875 Q292.3906 113.9688 291.8906 114.5 Q291.3906 115.0312 290.4844 115.2188 Q291.5625 115.375 292.1562 116.0078 Q292.75 116.6406 292.75 117.6406 Q292.75 118.8594 291.9219 119.5156 Q291.0938 120.1719 289.5469 120.1719 Q288.8594 120.1719 288.2109 120.0234 Q287.5625 119.875 286.9219 119.5781 L286.9219 117.875 L287.5781 117.875 Q287.625 118.7188 288.1406 119.1562 Q288.6562 119.5938 289.5781 119.5938 Q290.4688 119.5938 290.9922 119.0703 Q291.5156 118.5469 291.5156 117.6562 Q291.5156 116.625 290.9766 116.0938 Q290.4375 115.5625 289.4062 115.5625 L288.8594 115.5625 L288.8594 114.9531 L289.1406 114.9531 Q290.1719 114.9531 290.6875 114.5312 Q291.2031 114.1094 291.2031 113.25 Q291.2031 112.4844 290.7812 112.0781 Q290.3594 111.6719 289.5625 111.6719 Q288.7656 111.6719 288.3359 112.0469 Q287.9062 112.4219 287.8281 113.1562 L287.1719 113.1562 L287.1719 111.625 Z" style="fill:black; stroke:none;" /><rect height="8" style="stroke:none;" width="8" x="267" y="130" /><path d="M272.1875 136.4688 L271.9531 137.1094 Q271.7656 137.625 271.2031 137.9375 Q270.8438 138.1562 270.2031 138.1406 Q269.0469 138.1406 268.3281 137.2344 Q267.5938 136.3281 267.5938 134.8594 Q267.5938 133.4219 268.3281 132.4844 Q269.0156 131.5938 270.4531 131.6094 Q271.4531 131.6094 271.9531 132 Q272.4062 132.3438 272.5781 133.0938 L272.625 133.3125 L272.8438 132.6719 Q273.0625 132.0469 273.6562 131.75 L274.25 131.75 L274.25 132.0938 Q273.6875 132.2656 273.5 132.8125 L272.8906 134.4844 L273.2969 136.2812 Q273.5 137.2031 273.7344 137.2969 Q274.0469 137.4375 274.7812 137 L274.7812 137.7188 Q273.5938 138.4062 272.75 137.6875 Q272.375 137.3594 272.2656 136.875 L272.1875 136.4688 ZM271.9219 135.3125 L271.5625 133.5938 Q271.2656 132.2188 270.4688 132.2188 Q269.7969 132.2031 269.2812 132.9375 Q268.8594 133.5156 268.8594 134.875 Q268.8594 136.1719 269.2812 136.8281 Q269.75 137.5469 270.5312 137.5 Q271.2031 137.4375 271.6875 136 L271.9219 135.3125 Z" style="fill:black; stroke:none;" /></g><g ID="li-1:3,5" style="fill:white; text-rendering:optimizeSpeed; font-family:'Serif'; stroke:white;"><rect height="9" style="stroke:none;" width="8" x="278" y="96" /><path d="M282.1875 102.0312 L282.1875 97.375 L279.2031 102.0312 L282.1875 102.0312 ZM284.7656 105 L280.7812 105 L280.7812 104.375 L282.1875 104.375 L282.1875 102.6562 L278.375 102.6562 L278.375 102.0156 L282.2031 96.0938 L283.3594 96.0938 L283.3594 102.0312 L285.0312 102.0312 L285.0312 102.6562 L283.3594 102.6562 L283.3594 104.375 L284.7656 104.375 L284.7656 105 Z" style="fill:black; stroke:none;" /><rect height="13" style="stroke:none;" width="7" x="264" y="94" /><path d="M265.8281 106.25 Q266.2969 106.5938 267.1719 106.5938 Q268.0625 106.5938 268.5781 106.0703 Q269.0938 105.5469 269.0938 104.6562 Q269.0938 103.4219 268.5625 102.8906 Q268.0156 102.3594 267 102.3594 L266.4375 102.3594 L266.4375 101.7188 L266.7344 101.7188 Q267.4844 101.7188 268 101.2969 Q268.4219 100.9531 268.4219 100.0156 Q268.4219 99.6094 268.1406 99.1406 Q267.6875 98.375 267.1562 98.3906 Q265.8281 98.4375 265.8281 100.7812 L265.8281 106.25 ZM264.75 109.5 L264.75 100.7812 Q264.75 98.3281 266.0781 98 Q266.7656 97.8125 267.25 97.8125 Q268.3438 97.8125 269.0469 98.6719 Q269.6094 99.3594 269.6094 99.9375 Q269.6094 100.7812 269.2031 101.2656 Q268.7969 101.75 268.0625 101.9844 Q269.1406 102.1406 269.75 102.7812 Q270.3281 103.4062 270.3281 104.6328 Q270.3281 105.8594 269.5078 106.5156 Q268.6875 107.1719 267.1406 107.1719 Q266.1875 107.1719 265.8281 107.0312 L265.8281 109.5 L264.75 109.5 Z" style="fill:black; stroke:none;" /></g><g ID="li-1:3,6" style="fill:white; text-rendering:optimizeSpeed; font-family:'Serif'; stroke:white;"><rect height="10" style="stroke:none;" width="7" x="275" y="77" /><path d="M278.9219 86.5938 Q279.75 86.5938 280.1953 85.9844 Q280.6406 85.375 280.6406 84.2344 Q280.6406 83.1094 280.1953 82.5 Q279.75 81.8906 278.9219 81.8906 Q278.0938 81.8906 277.6484 82.4766 Q277.2031 83.0625 277.2031 84.1719 Q277.2031 85.3281 277.6484 85.9609 Q278.0938 86.5938 278.9219 86.5938 ZM277.0156 82.1875 Q277.4219 81.75 277.9219 81.5312 Q278.4219 81.3125 279.0625 81.3125 Q280.3594 81.3125 281.1172 82.0938 Q281.875 82.875 281.875 84.2344 Q281.875 85.5625 281.0625 86.3672 Q280.25 87.1719 278.875 87.1719 Q277.3906 87.1719 276.5938 86.0625 Q275.7969 84.9531 275.7969 82.9062 Q275.7969 80.6094 276.7422 79.3516 Q277.6875 78.0938 279.4062 78.0938 Q279.875 78.0938 280.3828 78.1797 Q280.8906 78.2656 281.4219 78.4375 L281.4219 79.8906 L280.7656 79.8906 Q280.6875 79.2969 280.3047 78.9844 Q279.9219 78.6719 279.2812 78.6719 Q278.1406 78.6719 277.5859 79.5312 Q277.0312 80.3906 277.0156 82.1875 Z" style="fill:black; stroke:none;" /><rect height="8" style="stroke:none;" width="8" x="256" y="59" /><path d="M261.1875 65.4688 L260.9531 66.1094 Q260.7656 66.625 260.2031 66.9375 Q259.8438 67.1562 259.2031 67.1406 Q258.0469 67.1406 257.3281 66.2344 Q256.5938 65.3281 256.5938 63.8594 Q256.5938 62.4219 257.3281 61.4844 Q258.0156 60.5938 259.4531 60.6094 Q260.4531 60.6094 260.9531 61 Q261.4062 61.3438 261.5781 62.0938 L261.625 62.3125 L261.8438 61.6719 Q262.0625 61.0469 262.6562 60.75 L263.25 60.75 L263.25 61.0938 Q262.6875 61.2656 262.5 61.8125 L261.8906 63.4844 L262.2969 65.2812 Q262.5 66.2031 262.7344 66.2969 Q263.0469 66.4375 263.7812 66 L263.7812 66.7188 Q262.5938 67.4062 261.75 66.6875 Q261.375 66.3594 261.2656 65.875 L261.1875 65.4688 ZM260.9219 64.3125 L260.5625 62.5938 Q260.2656 61.2188 259.4688 61.2188 Q258.7969 61.2031 258.2812 61.9375 Q257.8594 62.5156 257.8594 63.875 Q257.8594 65.1719 258.2812 65.8281 Q258.75 66.5469 259.5312 66.5 Q260.2031 66.4375 260.6875 65 L260.9219 64.3125 Z" style="fill:black; stroke:none;" /></g><g ID="li-1:2,3" style="fill:white; text-rendering:optimizeSpeed; font-family:'Serif'; stroke:white;"><rect height="9" style="stroke:none;" width="8" x="330" y="96" /><path d="M334.1875 102.0312 L334.1875 97.375 L331.2031 102.0312 L334.1875 102.0312 ZM336.7656 105 L332.7812 105 L332.7812 104.375 L334.1875 104.375 L334.1875 102.6562 L330.375 102.6562 L330.375 102.0156 L334.2031 96.0938 L335.3594 96.0938 L335.3594 102.0312 L337.0312 102.0312 L337.0312 102.6562 L335.3594 102.6562 L335.3594 104.375 L336.7656 104.375 L336.7656 105 Z" style="fill:black; stroke:none;" /><rect height="13" style="stroke:none;" width="7" x="316" y="94" /><path d="M317.8281 106.25 Q318.2969 106.5938 319.1719 106.5938 Q320.0625 106.5938 320.5781 106.0703 Q321.0938 105.5469 321.0938 104.6562 Q321.0938 103.4219 320.5625 102.8906 Q320.0156 102.3594 319 102.3594 L318.4375 102.3594 L318.4375 101.7188 L318.7344 101.7188 Q319.4844 101.7188 320 101.2969 Q320.4219 100.9531 320.4219 100.0156 Q320.4219 99.6094 320.1406 99.1406 Q319.6875 98.375 319.1562 98.3906 Q317.8281 98.4375 317.8281 100.7812 L317.8281 106.25 ZM316.75 109.5 L316.75 100.7812 Q316.75 98.3281 318.0781 98 Q318.7656 97.8125 319.25 97.8125 Q320.3438 97.8125 321.0469 98.6719 Q321.6094 99.3594 321.6094 99.9375 Q321.6094 100.7812 321.2031 101.2656 Q320.7969 101.75 320.0625 101.9844 Q321.1406 102.1406 321.75 102.7812 Q322.3281 103.4062 322.3281 104.6328 Q322.3281 105.8594 321.5078 106.5156 Q320.6875 107.1719 319.1406 107.1719 Q318.1875 107.1719 317.8281 107.0312 L317.8281 109.5 L316.75 109.5 Z" style="fill:black; stroke:none;" /></g><g ID="li-1:1,2" style="fill:white; text-rendering:optimizeSpeed; font-family:'Serif'; stroke:white;"><rect height="9" style="stroke:none;" width="8" x="382" y="96" /><path d="M386.1875 102.0312 L386.1875 97.375 L383.2031 102.0312 L386.1875 102.0312 ZM388.7656 105 L384.7812 105 L384.7812 104.375 L386.1875 104.375 L386.1875 102.6562 L382.375 102.6562 L382.375 102.0156 L386.2031 96.0938 L387.3594 96.0938 L387.3594 102.0312 L389.0312 102.0312 L389.0312 102.6562 L387.3594 102.6562 L387.3594 104.375 L388.7656 104.375 L388.7656 105 Z" style="fill:black; stroke:none;" /><rect height="13" style="stroke:none;" width="7" x="368" y="94" /><path d="M369.8281 106.25 Q370.2969 106.5938 371.1719 106.5938 Q372.0625 106.5938 372.5781 106.0703 Q373.0938 105.5469 373.0938 104.6562 Q373.0938 103.4219 372.5625 102.8906 Q372.0156 102.3594 371 102.3594 L370.4375 102.3594 L370.4375 101.7188 L370.7344 101.7188 Q371.4844 101.7188 372 101.2969 Q372.4219 100.9531 372.4219 100.0156 Q372.4219 99.6094 372.1406 99.1406 Q371.6875 98.375 371.1562 98.3906 Q369.8281 98.4375 369.8281 100.7812 L369.8281 106.25 ZM368.75 109.5 L368.75 100.7812 Q368.75 98.3281 370.0781 98 Q370.7656 97.8125 371.25 97.8125 Q372.3438 97.8125 373.0469 98.6719 Q373.6094 99.3594 373.6094 99.9375 Q373.6094 100.7812 373.2031 101.2656 Q372.7969 101.75 372.0625 101.9844 Q373.1406 102.1406 373.75 102.7812 Q374.3281 103.4062 374.3281 104.6328 Q374.3281 105.8594 373.5078 106.5156 Q372.6875 107.1719 371.1406 107.1719 Q370.1875 107.1719 369.8281 107.0312 L369.8281 109.5 L368.75 109.5 Z" style="fill:black; stroke:none;" /></g></g></svg>