<svg xmlns="http://www.w3.org/2000/svg" style="fill-opacity:1; color-rendering:auto; color-interpolation:auto; text-rendering:auto; stroke:black; stroke-linecap:square; stroke-miterlimit:10; shape-rendering:auto; stroke-opacity:1; fill:black; stroke-dasharray:none; font-weight:normal; stroke-width:1; font-family:'Dialog'; font-style:normal; stroke-linejoin:miter; font-size:12px; stroke-dashoffset:0; image-rendering:auto;"><defs id="genericDefs" /><g><defs id="defs1"><clipPath clipPathUnits="userSpaceOnUse" id="clipPath1"><path d="M52 93 C52 99.0751 47.0751 104 41 104 C34.9249 104 30 99.0751 30 93 C30 86.9249 34.9249 82 41 82 C47.0751 82 52 86.9249 52 93 Z" /></clipPath><clipPath clipPathUnits="userSpaceOnUse" id="clipPath2"><path d="M41 52 L30 30 L52 30 Z" style="fill-rule:evenodd;" /></clipPath></defs><g style="fill:white; text-rendering:optimizeSpeed; stroke:white;"><rect height="134" style="stroke:none;" width="82" x="0" y="0" /></g><g ID="l-1:1,2" style="text-rendering:optimizeSpeed;"><polygon points=" 41 93 41 41" style="fill:none;" /></g><g ID="r-1:1" style="fill:white; text-rendering:optimizeSpeed; stroke:white;" wurcs_mono_id="1"><circle cx="41" cy="93" r="11" style="clip-path:url(#clipPath1); stroke:none;" /><rect height="22" style="clip-path:url(#clipPath1); fill:rgb(0,166,81); stroke:none;" width="22" x="30" y="82" /><rect height="22" style="clip-path:url(#clipPath1); fill:none; stroke:black;" width="22" x="30" y="82" /><circle cx="41" cy="93" r="11" style="fill:none; stroke:black;" /></g><g style="font-style:italic; text-rendering:optimizeSpeed; font-size:10px; font-family:'SansSerif';"><path d="M42.0938 90.1562 Q41.375 90.1562 40.8359 90.7188 Q40.2969 91.2812 40.0781 92.2656 Q39.875 93.25 40.1719 93.8125 Q40.4688 94.375 41.2031 94.375 Q41.9219 94.375 42.4609 93.8125 Q43 93.25 43.2031 92.2656 Q43.4062 91.2969 43.1094 90.7266 Q42.8125 90.1562 42.0938 90.1562 ZM42.25 89.4062 Q43.4219 89.4062 43.9297 90.1641 Q44.4375 90.9219 44.1562 92.2656 Q43.875 93.6094 43.0391 94.375 Q42.2031 95.1406 41.0312 95.1406 Q39.8594 95.1406 39.3516 94.375 Q38.8438 93.6094 39.125 92.2656 Q39.4062 90.9219 40.2422 90.1641 Q41.0781 89.4062 42.25 89.4062 Z" style="stroke:none;" /></g><g ID="r-1:2" style="fill:white; text-rendering:optimizeSpeed; stroke:white;" wurcs_mono_id="2"><polygon points=" 41 52 30 30 52 30" style="stroke:none; clip-path:url(#clipPath2);" /><rect height="22" style="clip-path:url(#clipPath2); fill:rgb(237,28,36); stroke:none;" width="22" x="30" y="30" /><rect height="22" style="clip-path:url(#clipPath2); fill:none; stroke:black;" width="22" x="30" y="30" /><polygon points=" 41 52 30 30 52 30" style="fill:none; stroke:black;" /></g><g ID="li-1:1,2" style="fill:white; text-rendering:optimizeSpeed; font-family:'Serif'; stroke:white;"><rect height="10" style="stroke:none;" width="6" x="30" y="69" /><path d="M32.1094 78.3906 Q32.1094 78.0625 32.3359 77.8359 Q32.5625 77.6094 32.8906 77.6094 Q33.2188 77.6094 33.4453 77.8359 Q33.6719 78.0625 33.6719 78.3906 Q33.6719 78.7188 33.4453 78.9453 Q33.2188 79.1719 32.8906 79.1719 Q32.5625 79.1719 32.3359 78.9453 Q32.1094 78.7188 32.1094 78.3906 ZM30.8125 70.6406 Q31.4375 70.3594 32 70.2266 Q32.5625 70.0938 33.0469 70.0938 Q34.3438 70.0938 35.1016 70.7188 Q35.8594 71.3438 35.8594 72.4062 Q35.8594 73.5 35.2109 74.1953 Q34.5625 74.8906 33.25 75.1875 L33.25 76.6719 L32.5312 76.6719 L32.5312 74.75 Q33.5625 74.5 34.0938 73.9062 Q34.625 73.3125 34.625 72.4062 Q34.625 71.5938 34.1953 71.1328 Q33.7656 70.6719 33.0312 70.6719 Q32.3594 70.6719 31.9297 71.0547 Q31.5 71.4375 31.3906 72.1562 L30.8125 72.1562 L30.8125 70.6406 Z" style="fill:black; stroke:none;" /><rect height="10" style="stroke:none;" width="6" x="30" y="55" /><path d="M32.1094 64.3906 Q32.1094 64.0625 32.3359 63.8359 Q32.5625 63.6094 32.8906 63.6094 Q33.2188 63.6094 33.4453 63.8359 Q33.6719 64.0625 33.6719 64.3906 Q33.6719 64.7188 33.4453 64.9453 Q33.2188 65.1719 32.8906 65.1719 Q32.5625 65.1719 32.3359 64.9453 Q32.1094 64.7188 32.1094 64.3906 ZM30.8125 56.6406 Q31.4375 56.3594 32 56.2266 Q32.5625 56.0938 33.0469 56.0938 Q34.3438 56.0938 35.1016 56.7188 Q35.8594 57.3438 35.8594 58.4062 Q35.8594 59.5 35.2109 60.1953 Q34.5625 60.8906 33.25 61.1875 L33.25 62.6719 L32.5312 62.6719 L32.5312 60.75 Q33.5625 60.5 34.0938 59.9062 Q34.625 59.3125 34.625 58.4062 Q34.625 57.5938 34.1953 57.1328 Q33.7656 56.6719 33.0312 56.6719 Q32.3594 56.6719 31.9297 57.0547 Q31.5 57.4375 31.3906 58.1562 L30.8125 58.1562 L30.8125 56.6406 Z" style="fill:black; stroke:none;" /></g></g></svg>