<svg xmlns="http://www.w3.org/2000/svg" style="fill-opacity:1; color-rendering:auto; color-interpolation:auto; text-rendering:auto; stroke:black; stroke-linecap:square; stroke-miterlimit:10; shape-rendering:auto; stroke-opacity:1; fill:black; stroke-dasharray:none; font-weight:normal; stroke-width:1; font-family:'Dialog'; font-style:normal; stroke-linejoin:miter; font-size:12px; stroke-dashoffset:0; image-rendering:auto;"><defs id="genericDefs" /><g><defs id="defs1"><clipPath clipPathUnits="userSpaceOnUse" id="clipPath1"><path d="M342 56 L364 56 L364 78 L342 78 L342 56 Z" /></clipPath><clipPath clipPathUnits="userSpaceOnUse" id="clipPath2"><path d="M312 93 C312 99.0751 307.0751 104 301 104 C294.9249 104 290 99.0751 290 93 C290 86.9249 294.9249 82 301 82 C307.0751 82 312 86.9249 312 93 Z" /></clipPath><clipPath clipPathUnits="userSpaceOnUse" id="clipPath3"><path d="M249 82 L260 93 L249 104 L238 93 Z" style="fill-rule:evenodd;" /></clipPath><clipPath clipPathUnits="userSpaceOnUse" id="clipPath4"><path d="M290 30 L312 30 L312 52 L290 52 L290 30 Z" /></clipPath><clipPath clipPathUnits="userSpaceOnUse" id="clipPath5"><path d="M260 41 C260 47.0751 255.0751 52 249 52 C242.9249 52 238 47.0751 238 41 C238 34.9249 242.9249 30 249 30 C255.0751 30 260 34.9249 260 41 Z" /></clipPath><clipPath clipPathUnits="userSpaceOnUse" id="clipPath6"><path d="M186 30 L208 30 L208 52 L186 52 L186 30 Z" /></clipPath><clipPath clipPathUnits="userSpaceOnUse" id="clipPath7"><path d="M156 41 C156 47.0751 151.0751 52 145 52 C138.9249 52 134 47.0751 134 41 C134 34.9249 138.9249 30 145 30 C151.0751 30 156 34.9249 156 41 Z" /></clipPath><clipPath clipPathUnits="userSpaceOnUse" id="clipPath8"><path d="M82 30 L104 30 L104 52 L82 52 L82 30 Z" /></clipPath><clipPath clipPathUnits="userSpaceOnUse" id="clipPath9"><path d="M52 41 C52 47.0751 47.0751 52 41 52 C34.9249 52 30 47.0751 30 41 C30 34.9249 34.9249 30 41 30 C47.0751 30 52 34.9249 52 41 Z" /></clipPath></defs><g style="fill:white; text-rendering:optimizeSpeed; stroke:white;"><rect height="134" style="stroke:none;" width="394" x="0" y="0" /></g><g ID="l-1:1,2" style="text-rendering:optimizeSpeed;"><polygon points=" 353 67 301 93" style="fill:none;" /></g><g ID="l-1:1,3" style="text-rendering:optimizeSpeed;"><polygon points=" 353 67 301 41" style="fill:none;" /></g><g ID="r-1:1" style="fill:white; text-rendering:optimizeSpeed; stroke:white;" wurcs_mono_id="1"><rect height="22" style="clip-path:url(#clipPath1); stroke:none;" width="22" x="342" y="56" /><rect height="22" style="clip-path:url(#clipPath1); fill:rgb(255,212,0); stroke:none;" width="22" x="342" y="56" /><rect height="22" style="clip-path:url(#clipPath1); fill:none; stroke:black;" width="22" x="342" y="56" /><rect height="22" style="fill:none; stroke:black;" width="22" x="342" y="56" /></g><g ID="l-1:2,4" style="text-rendering:optimizeSpeed;"><polygon points=" 301 93 249 93" style="fill:none;" /></g><g ID="r-1:2" style="fill:white; text-rendering:optimizeSpeed; stroke:white;" wurcs_mono_id="2"><circle cx="301" cy="93" r="11" style="clip-path:url(#clipPath2); stroke:none;" /><rect height="22" style="clip-path:url(#clipPath2); fill:rgb(255,212,0); stroke:none;" width="22" x="290" y="82" /><rect height="22" style="clip-path:url(#clipPath2); fill:none; stroke:black;" width="22" x="290" y="82" /><circle cx="301" cy="93" r="11" style="fill:none; stroke:black;" /></g><g ID="r-1:4" style="fill:white; text-rendering:optimizeSpeed; stroke:white;" wurcs_mono_id="3"><polygon points=" 249 82 260 93 249 104 238 93" style="stroke:none; clip-path:url(#clipPath3);" /><rect height="22" style="clip-path:url(#clipPath3); fill:rgb(165,67,153); stroke:none;" width="22" x="238" y="82" /><rect height="22" style="clip-path:url(#clipPath3); fill:none; stroke:black;" width="22" x="238" y="82" /><polygon points=" 249 82 260 93 249 104 238 93" style="fill:none; stroke:black;" /></g><g ID="li-1:2,4" style="fill:white; text-rendering:optimizeSpeed; font-family:'Serif'; stroke:white;"><rect height="10" style="stroke:none;" width="7" x="278" y="96" /><path d="M279.1719 97.625 Q279.8594 97.3594 280.4844 97.2266 Q281.1094 97.0938 281.6562 97.0938 Q282.9531 97.0938 283.6719 97.6484 Q284.3906 98.2031 284.3906 99.1875 Q284.3906 99.9688 283.8906 100.5 Q283.3906 101.0312 282.4844 101.2188 Q283.5625 101.375 284.1562 102.0078 Q284.75 102.6406 284.75 103.6406 Q284.75 104.8594 283.9219 105.5156 Q283.0938 106.1719 281.5469 106.1719 Q280.8594 106.1719 280.2109 106.0234 Q279.5625 105.875 278.9219 105.5781 L278.9219 103.875 L279.5781 103.875 Q279.625 104.7188 280.1406 105.1562 Q280.6562 105.5938 281.5781 105.5938 Q282.4688 105.5938 282.9922 105.0703 Q283.5156 104.5469 283.5156 103.6562 Q283.5156 102.625 282.9766 102.0938 Q282.4375 101.5625 281.4062 101.5625 L280.8594 101.5625 L280.8594 100.9531 L281.1406 100.9531 Q282.1719 100.9531 282.6875 100.5312 Q283.2031 100.1094 283.2031 99.25 Q283.2031 98.4844 282.7812 98.0781 Q282.3594 97.6719 281.5625 97.6719 Q280.7656 97.6719 280.3359 98.0469 Q279.9062 98.4219 279.8281 99.1562 L279.1719 99.1562 L279.1719 97.625 Z" style="fill:black; stroke:none;" /><rect height="8" style="stroke:none;" width="8" x="264" y="97" /><path d="M269.1875 103.4688 L268.9531 104.1094 Q268.7656 104.625 268.2031 104.9375 Q267.8438 105.1562 267.2031 105.1406 Q266.0469 105.1406 265.3281 104.2344 Q264.5938 103.3281 264.5938 101.8594 Q264.5938 100.4219 265.3281 99.4844 Q266.0156 98.5938 267.4531 98.6094 Q268.4531 98.6094 268.9531 99 Q269.4062 99.3438 269.5781 100.0938 L269.625 100.3125 L269.8438 99.6719 Q270.0625 99.0469 270.6562 98.75 L271.25 98.75 L271.25 99.0938 Q270.6875 99.2656 270.5 99.8125 L269.8906 101.4844 L270.2969 103.2812 Q270.5 104.2031 270.7344 104.2969 Q271.0469 104.4375 271.7812 104 L271.7812 104.7188 Q270.5938 105.4062 269.75 104.6875 Q269.375 104.3594 269.2656 103.875 L269.1875 103.4688 ZM268.9219 102.3125 L268.5625 100.5938 Q268.2656 99.2188 267.4688 99.2188 Q266.7969 99.2031 266.2812 99.9375 Q265.8594 100.5156 265.8594 101.875 Q265.8594 103.1719 266.2812 103.8281 Q266.75 104.5469 267.5312 104.5 Q268.2031 104.4375 268.6875 103 L268.9219 102.3125 Z" style="fill:black; stroke:none;" /></g><g ID="l-1:3,5" style="text-rendering:optimizeSpeed;"><polygon points=" 301 41 249 41" style="fill:none;" /></g><g ID="r-1:3" style="fill:white; text-rendering:optimizeSpeed; stroke:white;" wurcs_mono_id="4"><rect height="22" style="clip-path:url(#clipPath4); stroke:none;" width="22" x="290" y="30" /><rect height="22" style="clip-path:url(#clipPath4); fill:rgb(0,144,188); stroke:none;" width="22" x="290" y="30" /><rect height="22" style="clip-path:url(#clipPath4); fill:none; stroke:black;" width="22" x="290" y="30" /><rect height="22" style="fill:none; stroke:black;" width="22" x="290" y="30" /></g><g ID="l-1:5,6" style="text-rendering:optimizeSpeed;"><polygon points=" 249 41 197 41" style="fill:none;" /></g><g ID="r-1:5" style="fill:white; text-rendering:optimizeSpeed; stroke:white;" wurcs_mono_id="5"><circle cx="249" cy="41" r="11" style="clip-path:url(#clipPath5); stroke:none;" /><rect height="22" style="clip-path:url(#clipPath5); fill:rgb(255,212,0); stroke:none;" width="22" x="238" y="30" /><rect height="22" style="clip-path:url(#clipPath5); fill:none; stroke:black;" width="22" x="238" y="30" /><circle cx="249" cy="41" r="11" style="fill:none; stroke:black;" /></g><g ID="l-1:6,7" style="text-rendering:optimizeSpeed;"><polygon points=" 197 41 145 41" style="fill:none;" /></g><g ID="r-1:6" style="fill:white; text-rendering:optimizeSpeed; stroke:white;" wurcs_mono_id="6"><rect height="22" style="clip-path:url(#clipPath6); stroke:none;" width="22" x="186" y="30" /><rect height="22" style="clip-path:url(#clipPath6); fill:rgb(0,144,188); stroke:none;" width="22" x="186" y="30" /><rect height="22" style="clip-path:url(#clipPath6); fill:none; stroke:black;" width="22" x="186" y="30" /><rect height="22" style="fill:none; stroke:black;" width="22" x="186" y="30" /></g><g ID="l-1:7,8" style="text-rendering:optimizeSpeed;"><polygon points=" 145 41 93 41" style="fill:none;" /></g><g ID="r-1:7" style="fill:white; text-rendering:optimizeSpeed; stroke:white;" wurcs_mono_id="7"><circle cx="145" cy="41" r="11" style="clip-path:url(#clipPath7); stroke:none;" /><rect height="22" style="clip-path:url(#clipPath7); fill:rgb(255,212,0); stroke:none;" width="22" x="134" y="30" /><rect height="22" style="clip-path:url(#clipPath7); fill:none; stroke:black;" width="22" x="134" y="30" /><circle cx="145" cy="41" r="11" style="fill:none; stroke:black;" /></g><g ID="l-1:8,9" style="text-rendering:optimizeSpeed;"><polygon points=" 93 41 41 41" style="fill:none;" /></g><g ID="r-1:8" style="fill:white; text-rendering:optimizeSpeed; stroke:white;" wurcs_mono_id="8"><rect height="22" style="clip-path:url(#clipPath8); stroke:none;" width="22" x="82" y="30" /><rect height="22" style="clip-path:url(#clipPath8); fill:rgb(0,144,188); stroke:none;" width="22" x="82" y="30" /><rect height="22" style="clip-path:url(#clipPath8); fill:none; stroke:black;" width="22" x="82" y="30" /><rect height="22" style="fill:none; stroke:black;" width="22" x="82" y="30" /></g><g ID="r-1:9" style="fill:white; text-rendering:optimizeSpeed; stroke:white;" wurcs_mono_id="9"><circle cx="41" cy="41" r="11" style="clip-path:url(#clipPath9); stroke:none;" /><rect height="22" style="clip-path:url(#clipPath9); fill:rgb(255,212,0); stroke:none;" width="22" x="30" y="30" /><rect height="22" style="clip-path:url(#clipPath9); fill:none; stroke:black;" width="22" x="30" y="30" /><circle cx="41" cy="41" r="11" style="fill:none; stroke:black;" /></g><g ID="li-1:8,9" style="fill:white; text-rendering:optimizeSpeed; font-family:'Serif'; stroke:white;"><rect height="11" style="stroke:none;" width="20" x="64" y="43" /><path d="M65.1719 45.625 Q65.8594 45.3594 66.4844 45.2266 Q67.1094 45.0938 67.6562 45.0938 Q68.9531 45.0938 69.6719 45.6484 Q70.3906 46.2031 70.3906 47.1875 Q70.3906 47.9688 69.8906 48.5 Q69.3906 49.0312 68.4844 49.2188 Q69.5625 49.375 70.1562 50.0078 Q70.75 50.6406 70.75 51.6406 Q70.75 52.8594 69.9219 53.5156 Q69.0938 54.1719 67.5469 54.1719 Q66.8594 54.1719 66.2109 54.0234 Q65.5625 53.875 64.9219 53.5781 L64.9219 51.875 L65.5781 51.875 Q65.625 52.7188 66.1406 53.1562 Q66.6562 53.5938 67.5781 53.5938 Q68.4688 53.5938 68.9922 53.0703 Q69.5156 52.5469 69.5156 51.6562 Q69.5156 50.625 68.9766 50.0938 Q68.4375 49.5625 67.4062 49.5625 L66.8594 49.5625 L66.8594 48.9531 L67.1406 48.9531 Q68.1719 48.9531 68.6875 48.5312 Q69.2031 48.1094 69.2031 47.25 Q69.2031 46.4844 68.7812 46.0781 Q68.3594 45.6719 67.5625 45.6719 Q66.7656 45.6719 66.3359 46.0469 Q65.9062 46.4219 65.8281 47.1562 L65.1719 47.1562 L65.1719 45.625 ZM74.7441 45.25 L75.6816 45.25 L72.5723 55.1094 L71.6348 55.1094 L74.7441 45.25 ZM79.8652 51.0312 L79.8652 46.375 L76.8809 51.0312 L79.8652 51.0312 ZM82.4434 54 L78.459 54 L78.459 53.375 L79.8652 53.375 L79.8652 51.6562 L76.0527 51.6562 L76.0527 51.0156 L79.8809 45.0938 L81.0371 45.0938 L81.0371 51.0312 L82.709 51.0312 L82.709 51.6562 L81.0371 51.6562 L81.0371 53.375 L82.4434 53.375 L82.4434 54 Z" style="fill:black; stroke:none;" /><rect height="13" style="stroke:none;" width="7" x="56" y="42" /><path d="M57.8281 54.25 Q58.2969 54.5938 59.1719 54.5938 Q60.0625 54.5938 60.5781 54.0703 Q61.0938 53.5469 61.0938 52.6562 Q61.0938 51.4219 60.5625 50.8906 Q60.0156 50.3594 59 50.3594 L58.4375 50.3594 L58.4375 49.7188 L58.7344 49.7188 Q59.4844 49.7188 60 49.2969 Q60.4219 48.9531 60.4219 48.0156 Q60.4219 47.6094 60.1406 47.1406 Q59.6875 46.375 59.1562 46.3906 Q57.8281 46.4375 57.8281 48.7812 L57.8281 54.25 ZM56.75 57.5 L56.75 48.7812 Q56.75 46.3281 58.0781 46 Q58.7656 45.8125 59.25 45.8125 Q60.3438 45.8125 61.0469 46.6719 Q61.6094 47.3594 61.6094 47.9375 Q61.6094 48.7812 61.2031 49.2656 Q60.7969 49.75 60.0625 49.9844 Q61.1406 50.1406 61.75 50.7812 Q62.3281 51.4062 62.3281 52.6328 Q62.3281 53.8594 61.5078 54.5156 Q60.6875 55.1719 59.1406 55.1719 Q58.1875 55.1719 57.8281 55.0312 L57.8281 57.5 L56.75 57.5 Z" style="fill:black; stroke:none;" /></g><g ID="li-1:7,8" style="fill:white; text-rendering:optimizeSpeed; font-family:'Serif'; stroke:white;"><rect height="11" style="stroke:none;" width="19" x="116" y="43" /><path d="M117.1719 45.625 Q117.8594 45.3594 118.4844 45.2266 Q119.1094 45.0938 119.6562 45.0938 Q120.9531 45.0938 121.6719 45.6484 Q122.3906 46.2031 122.3906 47.1875 Q122.3906 47.9688 121.8906 48.5 Q121.3906 49.0312 120.4844 49.2188 Q121.5625 49.375 122.1562 50.0078 Q122.75 50.6406 122.75 51.6406 Q122.75 52.8594 121.9219 53.5156 Q121.0938 54.1719 119.5469 54.1719 Q118.8594 54.1719 118.2109 54.0234 Q117.5625 53.875 116.9219 53.5781 L116.9219 51.875 L117.5781 51.875 Q117.625 52.7188 118.1406 53.1562 Q118.6562 53.5938 119.5781 53.5938 Q120.4688 53.5938 120.9922 53.0703 Q121.5156 52.5469 121.5156 51.6562 Q121.5156 50.625 120.9766 50.0938 Q120.4375 49.5625 119.4062 49.5625 L118.8594 49.5625 L118.8594 48.9531 L119.1406 48.9531 Q120.1719 48.9531 120.6875 48.5312 Q121.2031 48.1094 121.2031 47.25 Q121.2031 46.4844 120.7812 46.0781 Q120.3594 45.6719 119.5625 45.6719 Q118.7656 45.6719 118.3359 46.0469 Q117.9062 46.4219 117.8281 47.1562 L117.1719 47.1562 L117.1719 45.625 ZM126.7441 45.25 L127.6816 45.25 L124.5723 55.1094 L123.6348 55.1094 L126.7441 45.25 ZM131.5996 53.5938 Q132.4277 53.5938 132.873 52.9844 Q133.3184 52.375 133.3184 51.2344 Q133.3184 50.1094 132.873 49.5 Q132.4277 48.8906 131.5996 48.8906 Q130.7715 48.8906 130.3262 49.4766 Q129.8809 50.0625 129.8809 51.1719 Q129.8809 52.3281 130.3262 52.9609 Q130.7715 53.5938 131.5996 53.5938 ZM129.6934 49.1875 Q130.0996 48.75 130.5996 48.5312 Q131.0996 48.3125 131.7402 48.3125 Q133.0371 48.3125 133.7949 49.0938 Q134.5527 49.875 134.5527 51.2344 Q134.5527 52.5625 133.7402 53.3672 Q132.9277 54.1719 131.5527 54.1719 Q130.0684 54.1719 129.2715 53.0625 Q128.4746 51.9531 128.4746 49.9062 Q128.4746 47.6094 129.4199 46.3516 Q130.3652 45.0938 132.084 45.0938 Q132.5527 45.0938 133.0605 45.1797 Q133.5684 45.2656 134.0996 45.4375 L134.0996 46.8906 L133.4434 46.8906 Q133.3652 46.2969 132.9824 45.9844 Q132.5996 45.6719 131.959 45.6719 Q130.8184 45.6719 130.2637 46.5312 Q129.709 47.3906 129.6934 49.1875 Z" style="fill:black; stroke:none;" /><rect height="13" style="stroke:none;" width="7" x="108" y="42" /><path d="M109.8281 54.25 Q110.2969 54.5938 111.1719 54.5938 Q112.0625 54.5938 112.5781 54.0703 Q113.0938 53.5469 113.0938 52.6562 Q113.0938 51.4219 112.5625 50.8906 Q112.0156 50.3594 111 50.3594 L110.4375 50.3594 L110.4375 49.7188 L110.7344 49.7188 Q111.4844 49.7188 112 49.2969 Q112.4219 48.9531 112.4219 48.0156 Q112.4219 47.6094 112.1406 47.1406 Q111.6875 46.375 111.1562 46.3906 Q109.8281 46.4375 109.8281 48.7812 L109.8281 54.25 ZM108.75 57.5 L108.75 48.7812 Q108.75 46.3281 110.0781 46 Q110.7656 45.8125 111.25 45.8125 Q112.3438 45.8125 113.0469 46.6719 Q113.6094 47.3594 113.6094 47.9375 Q113.6094 48.7812 113.2031 49.2656 Q112.7969 49.75 112.0625 49.9844 Q113.1406 50.1406 113.75 50.7812 Q114.3281 51.4062 114.3281 52.6328 Q114.3281 53.8594 113.5078 54.5156 Q112.6875 55.1719 111.1406 55.1719 Q110.1875 55.1719 109.8281 55.0312 L109.8281 57.5 L108.75 57.5 Z" style="fill:black; stroke:none;" /></g><g ID="li-1:6,7" style="fill:white; text-rendering:optimizeSpeed; font-family:'Serif'; stroke:white;"><rect height="11" style="stroke:none;" width="20" x="168" y="43" /><path d="M169.1719 45.625 Q169.8594 45.3594 170.4844 45.2266 Q171.1094 45.0938 171.6562 45.0938 Q172.9531 45.0938 173.6719 45.6484 Q174.3906 46.2031 174.3906 47.1875 Q174.3906 47.9688 173.8906 48.5 Q173.3906 49.0312 172.4844 49.2188 Q173.5625 49.375 174.1562 50.0078 Q174.75 50.6406 174.75 51.6406 Q174.75 52.8594 173.9219 53.5156 Q173.0938 54.1719 171.5469 54.1719 Q170.8594 54.1719 170.2109 54.0234 Q169.5625 53.875 168.9219 53.5781 L168.9219 51.875 L169.5781 51.875 Q169.625 52.7188 170.1406 53.1562 Q170.6562 53.5938 171.5781 53.5938 Q172.4688 53.5938 172.9922 53.0703 Q173.5156 52.5469 173.5156 51.6562 Q173.5156 50.625 172.9766 50.0938 Q172.4375 49.5625 171.4062 49.5625 L170.8594 49.5625 L170.8594 48.9531 L171.1406 48.9531 Q172.1719 48.9531 172.6875 48.5312 Q173.2031 48.1094 173.2031 47.25 Q173.2031 46.4844 172.7812 46.0781 Q172.3594 45.6719 171.5625 45.6719 Q170.7656 45.6719 170.3359 46.0469 Q169.9062 46.4219 169.8281 47.1562 L169.1719 47.1562 L169.1719 45.625 ZM178.7441 45.25 L179.6816 45.25 L176.5723 55.1094 L175.6348 55.1094 L178.7441 45.25 ZM183.8652 51.0312 L183.8652 46.375 L180.8809 51.0312 L183.8652 51.0312 ZM186.4434 54 L182.459 54 L182.459 53.375 L183.8652 53.375 L183.8652 51.6562 L180.0527 51.6562 L180.0527 51.0156 L183.8809 45.0938 L185.0371 45.0938 L185.0371 51.0312 L186.709 51.0312 L186.709 51.6562 L185.0371 51.6562 L185.0371 53.375 L186.4434 53.375 L186.4434 54 Z" style="fill:black; stroke:none;" /><rect height="13" style="stroke:none;" width="7" x="160" y="42" /><path d="M161.8281 54.25 Q162.2969 54.5938 163.1719 54.5938 Q164.0625 54.5938 164.5781 54.0703 Q165.0938 53.5469 165.0938 52.6562 Q165.0938 51.4219 164.5625 50.8906 Q164.0156 50.3594 163 50.3594 L162.4375 50.3594 L162.4375 49.7188 L162.7344 49.7188 Q163.4844 49.7188 164 49.2969 Q164.4219 48.9531 164.4219 48.0156 Q164.4219 47.6094 164.1406 47.1406 Q163.6875 46.375 163.1562 46.3906 Q161.8281 46.4375 161.8281 48.7812 L161.8281 54.25 ZM160.75 57.5 L160.75 48.7812 Q160.75 46.3281 162.0781 46 Q162.7656 45.8125 163.25 45.8125 Q164.3438 45.8125 165.0469 46.6719 Q165.6094 47.3594 165.6094 47.9375 Q165.6094 48.7812 165.2031 49.2656 Q164.7969 49.75 164.0625 49.9844 Q165.1406 50.1406 165.75 50.7812 Q166.3281 51.4062 166.3281 52.6328 Q166.3281 53.8594 165.5078 54.5156 Q164.6875 55.1719 163.1406 55.1719 Q162.1875 55.1719 161.8281 55.0312 L161.8281 57.5 L160.75 57.5 Z" style="fill:black; stroke:none;" /></g><g ID="li-1:5,6" style="fill:white; text-rendering:optimizeSpeed; font-family:'Serif'; stroke:white;"><rect height="11" style="stroke:none;" width="19" x="220" y="43" /><path d="M221.1719 45.625 Q221.8594 45.3594 222.4844 45.2266 Q223.1094 45.0938 223.6562 45.0938 Q224.9531 45.0938 225.6719 45.6484 Q226.3906 46.2031 226.3906 47.1875 Q226.3906 47.9688 225.8906 48.5 Q225.3906 49.0312 224.4844 49.2188 Q225.5625 49.375 226.1562 50.0078 Q226.75 50.6406 226.75 51.6406 Q226.75 52.8594 225.9219 53.5156 Q225.0938 54.1719 223.5469 54.1719 Q222.8594 54.1719 222.2109 54.0234 Q221.5625 53.875 220.9219 53.5781 L220.9219 51.875 L221.5781 51.875 Q221.625 52.7188 222.1406 53.1562 Q222.6562 53.5938 223.5781 53.5938 Q224.4688 53.5938 224.9922 53.0703 Q225.5156 52.5469 225.5156 51.6562 Q225.5156 50.625 224.9766 50.0938 Q224.4375 49.5625 223.4062 49.5625 L222.8594 49.5625 L222.8594 48.9531 L223.1406 48.9531 Q224.1719 48.9531 224.6875 48.5312 Q225.2031 48.1094 225.2031 47.25 Q225.2031 46.4844 224.7812 46.0781 Q224.3594 45.6719 223.5625 45.6719 Q222.7656 45.6719 222.3359 46.0469 Q221.9062 46.4219 221.8281 47.1562 L221.1719 47.1562 L221.1719 45.625 ZM230.7441 45.25 L231.6816 45.25 L228.5723 55.1094 L227.6348 55.1094 L230.7441 45.25 ZM235.5996 53.5938 Q236.4277 53.5938 236.873 52.9844 Q237.3184 52.375 237.3184 51.2344 Q237.3184 50.1094 236.873 49.5 Q236.4277 48.8906 235.5996 48.8906 Q234.7715 48.8906 234.3262 49.4766 Q233.8809 50.0625 233.8809 51.1719 Q233.8809 52.3281 234.3262 52.9609 Q234.7715 53.5938 235.5996 53.5938 ZM233.6934 49.1875 Q234.0996 48.75 234.5996 48.5312 Q235.0996 48.3125 235.7402 48.3125 Q237.0371 48.3125 237.7949 49.0938 Q238.5527 49.875 238.5527 51.2344 Q238.5527 52.5625 237.7402 53.3672 Q236.9277 54.1719 235.5527 54.1719 Q234.0684 54.1719 233.2715 53.0625 Q232.4746 51.9531 232.4746 49.9062 Q232.4746 47.6094 233.4199 46.3516 Q234.3652 45.0938 236.084 45.0938 Q236.5527 45.0938 237.0605 45.1797 Q237.5684 45.2656 238.0996 45.4375 L238.0996 46.8906 L237.4434 46.8906 Q237.3652 46.2969 236.9824 45.9844 Q236.5996 45.6719 235.959 45.6719 Q234.8184 45.6719 234.2637 46.5312 Q233.709 47.3906 233.6934 49.1875 Z" style="fill:black; stroke:none;" /><rect height="13" style="stroke:none;" width="7" x="212" y="42" /><path d="M213.8281 54.25 Q214.2969 54.5938 215.1719 54.5938 Q216.0625 54.5938 216.5781 54.0703 Q217.0938 53.5469 217.0938 52.6562 Q217.0938 51.4219 216.5625 50.8906 Q216.0156 50.3594 215 50.3594 L214.4375 50.3594 L214.4375 49.7188 L214.7344 49.7188 Q215.4844 49.7188 216 49.2969 Q216.4219 48.9531 216.4219 48.0156 Q216.4219 47.6094 216.1406 47.1406 Q215.6875 46.375 215.1562 46.3906 Q213.8281 46.4375 213.8281 48.7812 L213.8281 54.25 ZM212.75 57.5 L212.75 48.7812 Q212.75 46.3281 214.0781 46 Q214.7656 45.8125 215.25 45.8125 Q216.3438 45.8125 217.0469 46.6719 Q217.6094 47.3594 217.6094 47.9375 Q217.6094 48.7812 217.2031 49.2656 Q216.7969 49.75 216.0625 49.9844 Q217.1406 50.1406 217.75 50.7812 Q218.3281 51.4062 218.3281 52.6328 Q218.3281 53.8594 217.5078 54.5156 Q216.6875 55.1719 215.1406 55.1719 Q214.1875 55.1719 213.8281 55.0312 L213.8281 57.5 L212.75 57.5 Z" style="fill:black; stroke:none;" /></g><g ID="li-1:3,5" style="fill:white; text-rendering:optimizeSpeed; font-family:'Serif'; stroke:white;"><rect height="9" style="stroke:none;" width="8" x="278" y="44" /><path d="M282.1875 50.0312 L282.1875 45.375 L279.2031 50.0312 L282.1875 50.0312 ZM284.7656 53 L280.7812 53 L280.7812 52.375 L282.1875 52.375 L282.1875 50.6562 L278.375 50.6562 L278.375 50.0156 L282.2031 44.0938 L283.3594 44.0938 L283.3594 50.0312 L285.0312 50.0312 L285.0312 50.6562 L283.3594 50.6562 L283.3594 52.375 L284.7656 52.375 L284.7656 53 Z" style="fill:black; stroke:none;" /><rect height="13" style="stroke:none;" width="7" x="264" y="42" /><path d="M265.8281 54.25 Q266.2969 54.5938 267.1719 54.5938 Q268.0625 54.5938 268.5781 54.0703 Q269.0938 53.5469 269.0938 52.6562 Q269.0938 51.4219 268.5625 50.8906 Q268.0156 50.3594 267 50.3594 L266.4375 50.3594 L266.4375 49.7188 L266.7344 49.7188 Q267.4844 49.7188 268 49.2969 Q268.4219 48.9531 268.4219 48.0156 Q268.4219 47.6094 268.1406 47.1406 Q267.6875 46.375 267.1562 46.3906 Q265.8281 46.4375 265.8281 48.7812 L265.8281 54.25 ZM264.75 57.5 L264.75 48.7812 Q264.75 46.3281 266.0781 46 Q266.7656 45.8125 267.25 45.8125 Q268.3438 45.8125 269.0469 46.6719 Q269.6094 47.3594 269.6094 47.9375 Q269.6094 48.7812 269.2031 49.2656 Q268.7969 49.75 268.0625 49.9844 Q269.1406 50.1406 269.75 50.7812 Q270.3281 51.4062 270.3281 52.6328 Q270.3281 53.8594 269.5078 54.5156 Q268.6875 55.1719 267.1406 55.1719 Q266.1875 55.1719 265.8281 55.0312 L265.8281 57.5 L264.75 57.5 Z" style="fill:black; stroke:none;" /></g><g ID="li-1:1,2" style="fill:white; text-rendering:optimizeSpeed; font-family:'Serif'; stroke:white;"><rect height="10" style="stroke:none;" width="7" x="334" y="78" /><path d="M335.1719 79.625 Q335.8594 79.3594 336.4844 79.2266 Q337.1094 79.0938 337.6562 79.0938 Q338.9531 79.0938 339.6719 79.6484 Q340.3906 80.2031 340.3906 81.1875 Q340.3906 81.9688 339.8906 82.5 Q339.3906 83.0312 338.4844 83.2188 Q339.5625 83.375 340.1562 84.0078 Q340.75 84.6406 340.75 85.6406 Q340.75 86.8594 339.9219 87.5156 Q339.0938 88.1719 337.5469 88.1719 Q336.8594 88.1719 336.2109 88.0234 Q335.5625 87.875 334.9219 87.5781 L334.9219 85.875 L335.5781 85.875 Q335.625 86.7188 336.1406 87.1562 Q336.6562 87.5938 337.5781 87.5938 Q338.4688 87.5938 338.9922 87.0703 Q339.5156 86.5469 339.5156 85.6562 Q339.5156 84.625 338.9766 84.0938 Q338.4375 83.5625 337.4062 83.5625 L336.8594 83.5625 L336.8594 82.9531 L337.1406 82.9531 Q338.1719 82.9531 338.6875 82.5312 Q339.2031 82.1094 339.2031 81.25 Q339.2031 80.4844 338.7812 80.0781 Q338.3594 79.6719 337.5625 79.6719 Q336.7656 79.6719 336.3359 80.0469 Q335.9062 80.4219 335.8281 81.1562 L335.1719 81.1562 L335.1719 79.625 Z" style="fill:black; stroke:none;" /><rect height="13" style="stroke:none;" width="7" x="319" y="84" /><path d="M320.8281 96.25 Q321.2969 96.5938 322.1719 96.5938 Q323.0625 96.5938 323.5781 96.0703 Q324.0938 95.5469 324.0938 94.6562 Q324.0938 93.4219 323.5625 92.8906 Q323.0156 92.3594 322 92.3594 L321.4375 92.3594 L321.4375 91.7188 L321.7344 91.7188 Q322.4844 91.7188 323 91.2969 Q323.4219 90.9531 323.4219 90.0156 Q323.4219 89.6094 323.1406 89.1406 Q322.6875 88.375 322.1562 88.3906 Q320.8281 88.4375 320.8281 90.7812 L320.8281 96.25 ZM319.75 99.5 L319.75 90.7812 Q319.75 88.3281 321.0781 88 Q321.7656 87.8125 322.25 87.8125 Q323.3438 87.8125 324.0469 88.6719 Q324.6094 89.3594 324.6094 89.9375 Q324.6094 90.7812 324.2031 91.2656 Q323.7969 91.75 323.0625 91.9844 Q324.1406 92.1406 324.75 92.7812 Q325.3281 93.4062 325.3281 94.6328 Q325.3281 95.8594 324.5078 96.5156 Q323.6875 97.1719 322.1406 97.1719 Q321.1875 97.1719 320.8281 97.0312 L320.8281 99.5 L319.75 99.5 Z" style="fill:black; stroke:none;" /></g><g ID="li-1:1,3" style="fill:white; text-rendering:optimizeSpeed; font-family:'Serif'; stroke:white;"><rect height="10" style="stroke:none;" width="7" x="327" y="60" /><path d="M330.9219 69.5938 Q331.75 69.5938 332.1953 68.9844 Q332.6406 68.375 332.6406 67.2344 Q332.6406 66.1094 332.1953 65.5 Q331.75 64.8906 330.9219 64.8906 Q330.0938 64.8906 329.6484 65.4766 Q329.2031 66.0625 329.2031 67.1719 Q329.2031 68.3281 329.6484 68.9609 Q330.0938 69.5938 330.9219 69.5938 ZM329.0156 65.1875 Q329.4219 64.75 329.9219 64.5312 Q330.4219 64.3125 331.0625 64.3125 Q332.3594 64.3125 333.1172 65.0938 Q333.875 65.875 333.875 67.2344 Q333.875 68.5625 333.0625 69.3672 Q332.25 70.1719 330.875 70.1719 Q329.3906 70.1719 328.5938 69.0625 Q327.7969 67.9531 327.7969 65.9062 Q327.7969 63.6094 328.7422 62.3516 Q329.6875 61.0938 331.4062 61.0938 Q331.875 61.0938 332.3828 61.1797 Q332.8906 61.2656 333.4219 61.4375 L333.4219 62.8906 L332.7656 62.8906 Q332.6875 62.2969 332.3047 61.9844 Q331.9219 61.6719 331.2812 61.6719 Q330.1406 61.6719 329.5859 62.5312 Q329.0312 63.3906 329.0156 65.1875 Z" style="fill:black; stroke:none;" /><rect height="13" style="stroke:none;" width="7" x="312" y="50" /><path d="M313.8281 62.25 Q314.2969 62.5938 315.1719 62.5938 Q316.0625 62.5938 316.5781 62.0703 Q317.0938 61.5469 317.0938 60.6562 Q317.0938 59.4219 316.5625 58.8906 Q316.0156 58.3594 315 58.3594 L314.4375 58.3594 L314.4375 57.7188 L314.7344 57.7188 Q315.4844 57.7188 316 57.2969 Q316.4219 56.9531 316.4219 56.0156 Q316.4219 55.6094 316.1406 55.1406 Q315.6875 54.375 315.1562 54.3906 Q313.8281 54.4375 313.8281 56.7812 L313.8281 62.25 ZM312.75 65.5 L312.75 56.7812 Q312.75 54.3281 314.0781 54 Q314.7656 53.8125 315.25 53.8125 Q316.3438 53.8125 317.0469 54.6719 Q317.6094 55.3594 317.6094 55.9375 Q317.6094 56.7812 317.2031 57.2656 Q316.7969 57.75 316.0625 57.9844 Q317.1406 58.1406 317.75 58.7812 Q318.3281 59.4062 318.3281 60.6328 Q318.3281 61.8594 317.5078 62.5156 Q316.6875 63.1719 315.1406 63.1719 Q314.1875 63.1719 313.8281 63.0312 L313.8281 65.5 L312.75 65.5 Z" style="fill:black; stroke:none;" /></g></g></svg>