<svg xmlns="http://www.w3.org/2000/svg" style="fill-opacity:1; color-rendering:auto; color-interpolation:auto; text-rendering:auto; stroke:black; stroke-linecap:square; stroke-miterlimit:10; shape-rendering:auto; stroke-opacity:1; fill:black; stroke-dasharray:none; font-weight:normal; stroke-width:1; font-family:'Dialog'; font-style:normal; stroke-linejoin:miter; font-size:12px; stroke-dashoffset:0; image-rendering:auto;"><defs id="genericDefs" /><g><defs id="defs1"><clipPath clipPathUnits="userSpaceOnUse" id="clipPath1"><path d="M238 56 L260 56 L260 78 L238 78 L238 56 Z" /></clipPath><clipPath clipPathUnits="userSpaceOnUse" id="clipPath2"><path d="M186 56 L208 56 L208 78 L186 78 L186 56 Z" /></clipPath><clipPath clipPathUnits="userSpaceOnUse" id="clipPath3"><path d="M156 67 C156 73.0751 151.0751 78 145 78 C138.9249 78 134 73.0751 134 67 C134 60.9249 138.9249 56 145 56 C151.0751 56 156 60.9249 156 67 Z" /></clipPath><clipPath clipPathUnits="userSpaceOnUse" id="clipPath4"><path d="M104 93 C104 99.0751 99.0751 104 93 104 C86.9249 104 82 99.0751 82 93 C82 86.9249 86.9249 82 93 82 C99.0751 82 104 86.9249 104 93 Z" /></clipPath><clipPath clipPathUnits="userSpaceOnUse" id="clipPath5"><path d="M52 119 C52 125.0751 47.0751 130 41 130 C34.9249 130 30 125.0751 30 119 C30 112.9249 34.9249 108 41 108 C47.0751 108 52 112.9249 52 119 Z" /></clipPath><clipPath clipPathUnits="userSpaceOnUse" id="clipPath6"><path d="M52 67 C52 73.0751 47.0751 78 41 78 C34.9249 78 30 73.0751 30 67 C30 60.9249 34.9249 56 41 56 C47.0751 56 52 60.9249 52 67 Z" /></clipPath><clipPath clipPathUnits="userSpaceOnUse" id="clipPath7"><path d="M104 41 C104 47.0751 99.0751 52 93 52 C86.9249 52 82 47.0751 82 41 C82 34.9249 86.9249 30 93 30 C99.0751 30 104 34.9249 104 41 Z" /></clipPath></defs><g style="fill:white; text-rendering:optimizeSpeed; stroke:white;"><rect height="160" style="stroke:none;" width="290" x="0" y="0" /></g><g ID="l-1:1,2" style="text-rendering:optimizeSpeed;"><polygon points=" 249 67 197 67" style="fill:none;" /></g><g ID="r-1:1" style="fill:white; text-rendering:optimizeSpeed; stroke:white;" wurcs_mono_id="1"><rect height="22" style="clip-path:url(#clipPath1); stroke:none;" width="22" x="238" y="56" /><rect height="22" style="clip-path:url(#clipPath1); fill:rgb(0,144,188); stroke:none;" width="22" x="238" y="56" /><rect height="22" style="clip-path:url(#clipPath1); fill:none; stroke:black;" width="22" x="238" y="56" /><rect height="22" style="fill:none; stroke:black;" width="22" x="238" y="56" /></g><g ID="l-1:2,3" style="text-rendering:optimizeSpeed;"><polygon points=" 197 67 145 67" style="fill:none;" /></g><g ID="r-1:2" style="fill:white; text-rendering:optimizeSpeed; stroke:white;" wurcs_mono_id="2"><rect height="22" style="clip-path:url(#clipPath2); stroke:none;" width="22" x="186" y="56" /><rect height="22" style="clip-path:url(#clipPath2); fill:rgb(0,144,188); stroke:none;" width="22" x="186" y="56" /><rect height="22" style="clip-path:url(#clipPath2); fill:none; stroke:black;" width="22" x="186" y="56" /><rect height="22" style="fill:none; stroke:black;" width="22" x="186" y="56" /></g><g ID="l-1:3,4" style="text-rendering:optimizeSpeed;"><polygon points=" 145 67 93 93" style="fill:none;" /></g><g ID="l-1:3,5" style="text-rendering:optimizeSpeed;"><polygon points=" 145 67 93 41" style="fill:none;" /></g><g ID="r-1:3" style="fill:white; text-rendering:optimizeSpeed; stroke:white;" wurcs_mono_id="3"><circle cx="145" cy="67" r="11" style="clip-path:url(#clipPath3); stroke:none;" /><rect height="22" style="clip-path:url(#clipPath3); fill:rgb(0,166,81); stroke:none;" width="22" x="134" y="56" /><rect height="22" style="clip-path:url(#clipPath3); fill:none; stroke:black;" width="22" x="134" y="56" /><circle cx="145" cy="67" r="11" style="fill:none; stroke:black;" /></g><g ID="l-1:4,6" style="text-rendering:optimizeSpeed;"><polygon points=" 93 93 41 119" style="fill:none;" /></g><g ID="l-1:4,7" style="text-rendering:optimizeSpeed;"><polygon points=" 93 93 41 67" style="fill:none;" /></g><g ID="r-1:4" style="fill:white; text-rendering:optimizeSpeed; stroke:white;" wurcs_mono_id="4"><circle cx="93" cy="93" r="11" style="clip-path:url(#clipPath4); stroke:none;" /><rect height="22" style="clip-path:url(#clipPath4); fill:rgb(0,166,81); stroke:none;" width="22" x="82" y="82" /><rect height="22" style="clip-path:url(#clipPath4); fill:none; stroke:black;" width="22" x="82" y="82" /><circle cx="93" cy="93" r="11" style="fill:none; stroke:black;" /></g><g ID="r-1:6" style="fill:white; text-rendering:optimizeSpeed; stroke:white;" wurcs_mono_id="5"><circle cx="41" cy="119" r="11" style="clip-path:url(#clipPath5); stroke:none;" /><rect height="22" style="clip-path:url(#clipPath5); fill:rgb(0,166,81); stroke:none;" width="22" x="30" y="108" /><rect height="22" style="clip-path:url(#clipPath5); fill:none; stroke:black;" width="22" x="30" y="108" /><circle cx="41" cy="119" r="11" style="fill:none; stroke:black;" /></g><g ID="r-1:7" style="fill:white; text-rendering:optimizeSpeed; stroke:white;" wurcs_mono_id="6"><circle cx="41" cy="67" r="11" style="clip-path:url(#clipPath6); stroke:none;" /><rect height="22" style="clip-path:url(#clipPath6); fill:rgb(0,166,81); stroke:none;" width="22" x="30" y="56" /><rect height="22" style="clip-path:url(#clipPath6); fill:none; stroke:black;" width="22" x="30" y="56" /><circle cx="41" cy="67" r="11" style="fill:none; stroke:black;" /></g><g ID="li-1:4,6" style="fill:white; text-rendering:optimizeSpeed; font-family:'Serif'; stroke:white;"><rect height="10" style="stroke:none;" width="7" x="74" y="104" /><path d="M75.1719 105.625 Q75.8594 105.3594 76.4844 105.2266 Q77.1094 105.0938 77.6562 105.0938 Q78.9531 105.0938 79.6719 105.6484 Q80.3906 106.2031 80.3906 107.1875 Q80.3906 107.9688 79.8906 108.5 Q79.3906 109.0312 78.4844 109.2188 Q79.5625 109.375 80.1562 110.0078 Q80.75 110.6406 80.75 111.6406 Q80.75 112.8594 79.9219 113.5156 Q79.0938 114.1719 77.5469 114.1719 Q76.8594 114.1719 76.2109 114.0234 Q75.5625 113.875 74.9219 113.5781 L74.9219 111.875 L75.5781 111.875 Q75.625 112.7188 76.1406 113.1562 Q76.6562 113.5938 77.5781 113.5938 Q78.4688 113.5938 78.9922 113.0703 Q79.5156 112.5469 79.5156 111.6562 Q79.5156 110.625 78.9766 110.0938 Q78.4375 109.5625 77.4062 109.5625 L76.8594 109.5625 L76.8594 108.9531 L77.1406 108.9531 Q78.1719 108.9531 78.6875 108.5312 Q79.2031 108.1094 79.2031 107.25 Q79.2031 106.4844 78.7812 106.0781 Q78.3594 105.6719 77.5625 105.6719 Q76.7656 105.6719 76.3359 106.0469 Q75.9062 106.4219 75.8281 107.1562 L75.1719 107.1562 L75.1719 105.625 Z" style="fill:black; stroke:none;" /><rect height="8" style="stroke:none;" width="8" x="58" y="113" /><path d="M63.1875 119.4688 L62.9531 120.1094 Q62.7656 120.625 62.2031 120.9375 Q61.8438 121.1562 61.2031 121.1406 Q60.0469 121.1406 59.3281 120.2344 Q58.5938 119.3281 58.5938 117.8594 Q58.5938 116.4219 59.3281 115.4844 Q60.0156 114.5938 61.4531 114.6094 Q62.4531 114.6094 62.9531 115 Q63.4062 115.3438 63.5781 116.0938 L63.625 116.3125 L63.8438 115.6719 Q64.0625 115.0469 64.6562 114.75 L65.25 114.75 L65.25 115.0938 Q64.6875 115.2656 64.5 115.8125 L63.8906 117.4844 L64.2969 119.2812 Q64.5 120.2031 64.7344 120.2969 Q65.0469 120.4375 65.7812 120 L65.7812 120.7188 Q64.5938 121.4062 63.75 120.6875 Q63.375 120.3594 63.2656 119.875 L63.1875 119.4688 ZM62.9219 118.3125 L62.5625 116.5938 Q62.2656 115.2188 61.4688 115.2188 Q60.7969 115.2031 60.2812 115.9375 Q59.8594 116.5156 59.8594 117.875 Q59.8594 119.1719 60.2812 119.8281 Q60.75 120.5469 61.5312 120.5 Q62.2031 120.4375 62.6875 119 L62.9219 118.3125 Z" style="fill:black; stroke:none;" /></g><g ID="li-1:4,7" style="fill:white; text-rendering:optimizeSpeed; font-family:'Serif'; stroke:white;"><rect height="10" style="stroke:none;" width="7" x="67" y="86" /><path d="M70.9219 95.5938 Q71.75 95.5938 72.1953 94.9844 Q72.6406 94.375 72.6406 93.2344 Q72.6406 92.1094 72.1953 91.5 Q71.75 90.8906 70.9219 90.8906 Q70.0938 90.8906 69.6484 91.4766 Q69.2031 92.0625 69.2031 93.1719 Q69.2031 94.3281 69.6484 94.9609 Q70.0938 95.5938 70.9219 95.5938 ZM69.0156 91.1875 Q69.4219 90.75 69.9219 90.5312 Q70.4219 90.3125 71.0625 90.3125 Q72.3594 90.3125 73.1172 91.0938 Q73.875 91.875 73.875 93.2344 Q73.875 94.5625 73.0625 95.3672 Q72.25 96.1719 70.875 96.1719 Q69.3906 96.1719 68.5938 95.0625 Q67.7969 93.9531 67.7969 91.9062 Q67.7969 89.6094 68.7422 88.3516 Q69.6875 87.0938 71.4062 87.0938 Q71.875 87.0938 72.3828 87.1797 Q72.8906 87.2656 73.4219 87.4375 L73.4219 88.8906 L72.7656 88.8906 Q72.6875 88.2969 72.3047 87.9844 Q71.9219 87.6719 71.2812 87.6719 Q70.1406 87.6719 69.5859 88.5312 Q69.0312 89.3906 69.0156 91.1875 Z" style="fill:black; stroke:none;" /><rect height="8" style="stroke:none;" width="8" x="51" y="79" /><path d="M56.1875 85.4688 L55.9531 86.1094 Q55.7656 86.625 55.2031 86.9375 Q54.8438 87.1562 54.2031 87.1406 Q53.0469 87.1406 52.3281 86.2344 Q51.5938 85.3281 51.5938 83.8594 Q51.5938 82.4219 52.3281 81.4844 Q53.0156 80.5938 54.4531 80.6094 Q55.4531 80.6094 55.9531 81 Q56.4062 81.3438 56.5781 82.0938 L56.625 82.3125 L56.8438 81.6719 Q57.0625 81.0469 57.6562 80.75 L58.25 80.75 L58.25 81.0938 Q57.6875 81.2656 57.5 81.8125 L56.8906 83.4844 L57.2969 85.2812 Q57.5 86.2031 57.7344 86.2969 Q58.0469 86.4375 58.7812 86 L58.7812 86.7188 Q57.5938 87.4062 56.75 86.6875 Q56.375 86.3594 56.2656 85.875 L56.1875 85.4688 ZM55.9219 84.3125 L55.5625 82.5938 Q55.2656 81.2188 54.4688 81.2188 Q53.7969 81.2031 53.2812 81.9375 Q52.8594 82.5156 52.8594 83.875 Q52.8594 85.1719 53.2812 85.8281 Q53.75 86.5469 54.5312 86.5 Q55.2031 86.4375 55.6875 85 L55.9219 84.3125 Z" style="fill:black; stroke:none;" /></g><g ID="r-1:5" style="fill:white; text-rendering:optimizeSpeed; stroke:white;" wurcs_mono_id="7"><circle cx="93" cy="41" r="11" style="clip-path:url(#clipPath7); stroke:none;" /><rect height="22" style="clip-path:url(#clipPath7); fill:rgb(0,166,81); stroke:none;" width="22" x="82" y="30" /><rect height="22" style="clip-path:url(#clipPath7); fill:none; stroke:black;" width="22" x="82" y="30" /><circle cx="93" cy="41" r="11" style="fill:none; stroke:black;" /></g><g ID="li-1:3,4" style="fill:white; text-rendering:optimizeSpeed; font-family:'Serif'; stroke:white;"><rect height="11" style="stroke:none;" width="19" x="120" y="77" /><path d="M121.1719 79.625 Q121.8594 79.3594 122.4844 79.2266 Q123.1094 79.0938 123.6562 79.0938 Q124.9531 79.0938 125.6719 79.6484 Q126.3906 80.2031 126.3906 81.1875 Q126.3906 81.9688 125.8906 82.5 Q125.3906 83.0312 124.4844 83.2188 Q125.5625 83.375 126.1562 84.0078 Q126.75 84.6406 126.75 85.6406 Q126.75 86.8594 125.9219 87.5156 Q125.0938 88.1719 123.5469 88.1719 Q122.8594 88.1719 122.2109 88.0234 Q121.5625 87.875 120.9219 87.5781 L120.9219 85.875 L121.5781 85.875 Q121.625 86.7188 122.1406 87.1562 Q122.6562 87.5938 123.5781 87.5938 Q124.4688 87.5938 124.9922 87.0703 Q125.5156 86.5469 125.5156 85.6562 Q125.5156 84.625 124.9766 84.0938 Q124.4375 83.5625 123.4062 83.5625 L122.8594 83.5625 L122.8594 82.9531 L123.1406 82.9531 Q124.1719 82.9531 124.6875 82.5312 Q125.2031 82.1094 125.2031 81.25 Q125.2031 80.4844 124.7812 80.0781 Q124.3594 79.6719 123.5625 79.6719 Q122.7656 79.6719 122.3359 80.0469 Q121.9062 80.4219 121.8281 81.1562 L121.1719 81.1562 L121.1719 79.625 ZM130.7441 79.25 L131.6816 79.25 L128.5723 89.1094 L127.6348 89.1094 L130.7441 79.25 ZM135.5996 87.5938 Q136.4277 87.5938 136.873 86.9844 Q137.3184 86.375 137.3184 85.2344 Q137.3184 84.1094 136.873 83.5 Q136.4277 82.8906 135.5996 82.8906 Q134.7715 82.8906 134.3262 83.4766 Q133.8809 84.0625 133.8809 85.1719 Q133.8809 86.3281 134.3262 86.9609 Q134.7715 87.5938 135.5996 87.5938 ZM133.6934 83.1875 Q134.0996 82.75 134.5996 82.5312 Q135.0996 82.3125 135.7402 82.3125 Q137.0371 82.3125 137.7949 83.0938 Q138.5527 83.875 138.5527 85.2344 Q138.5527 86.5625 137.7402 87.3672 Q136.9277 88.1719 135.5527 88.1719 Q134.0684 88.1719 133.2715 87.0625 Q132.4746 85.9531 132.4746 83.9062 Q132.4746 81.6094 133.4199 80.3516 Q134.3652 79.0938 136.084 79.0938 Q136.5527 79.0938 137.0605 79.1797 Q137.5684 79.2656 138.0996 79.4375 L138.0996 80.8906 L137.4434 80.8906 Q137.3652 80.2969 136.9824 79.9844 Q136.5996 79.6719 135.959 79.6719 Q134.8184 79.6719 134.2637 80.5312 Q133.709 81.3906 133.6934 83.1875 Z" style="fill:black; stroke:none;" /><rect height="8" style="stroke:none;" width="8" x="110" y="87" /><path d="M115.1875 93.4688 L114.9531 94.1094 Q114.7656 94.625 114.2031 94.9375 Q113.8438 95.1562 113.2031 95.1406 Q112.0469 95.1406 111.3281 94.2344 Q110.5938 93.3281 110.5938 91.8594 Q110.5938 90.4219 111.3281 89.4844 Q112.0156 88.5938 113.4531 88.6094 Q114.4531 88.6094 114.9531 89 Q115.4062 89.3438 115.5781 90.0938 L115.625 90.3125 L115.8438 89.6719 Q116.0625 89.0469 116.6562 88.75 L117.25 88.75 L117.25 89.0938 Q116.6875 89.2656 116.5 89.8125 L115.8906 91.4844 L116.2969 93.2812 Q116.5 94.2031 116.7344 94.2969 Q117.0469 94.4375 117.7812 94 L117.7812 94.7188 Q116.5938 95.4062 115.75 94.6875 Q115.375 94.3594 115.2656 93.875 L115.1875 93.4688 ZM114.9219 92.3125 L114.5625 90.5938 Q114.2656 89.2188 113.4688 89.2188 Q112.7969 89.2031 112.2812 89.9375 Q111.8594 90.5156 111.8594 91.875 Q111.8594 93.1719 112.2812 93.8281 Q112.75 94.5469 113.5312 94.5 Q114.2031 94.4375 114.6875 93 L114.9219 92.3125 Z" style="fill:black; stroke:none;" /></g><g ID="li-1:3,5" style="fill:white; text-rendering:optimizeSpeed; font-family:'Serif'; stroke:white;"><rect height="11" style="stroke:none;" width="19" x="113" y="59" /><path d="M114.1719 61.625 Q114.8594 61.3594 115.4844 61.2266 Q116.1094 61.0938 116.6562 61.0938 Q117.9531 61.0938 118.6719 61.6484 Q119.3906 62.2031 119.3906 63.1875 Q119.3906 63.9688 118.8906 64.5 Q118.3906 65.0312 117.4844 65.2188 Q118.5625 65.375 119.1562 66.0078 Q119.75 66.6406 119.75 67.6406 Q119.75 68.8594 118.9219 69.5156 Q118.0938 70.1719 116.5469 70.1719 Q115.8594 70.1719 115.2109 70.0234 Q114.5625 69.875 113.9219 69.5781 L113.9219 67.875 L114.5781 67.875 Q114.625 68.7188 115.1406 69.1562 Q115.6562 69.5938 116.5781 69.5938 Q117.4688 69.5938 117.9922 69.0703 Q118.5156 68.5469 118.5156 67.6562 Q118.5156 66.625 117.9766 66.0938 Q117.4375 65.5625 116.4062 65.5625 L115.8594 65.5625 L115.8594 64.9531 L116.1406 64.9531 Q117.1719 64.9531 117.6875 64.5312 Q118.2031 64.1094 118.2031 63.25 Q118.2031 62.4844 117.7812 62.0781 Q117.3594 61.6719 116.5625 61.6719 Q115.7656 61.6719 115.3359 62.0469 Q114.9062 62.4219 114.8281 63.1562 L114.1719 63.1562 L114.1719 61.625 ZM123.7441 61.25 L124.6816 61.25 L121.5723 71.1094 L120.6348 71.1094 L123.7441 61.25 ZM128.5996 69.5938 Q129.4277 69.5938 129.873 68.9844 Q130.3184 68.375 130.3184 67.2344 Q130.3184 66.1094 129.873 65.5 Q129.4277 64.8906 128.5996 64.8906 Q127.7715 64.8906 127.3262 65.4766 Q126.8809 66.0625 126.8809 67.1719 Q126.8809 68.3281 127.3262 68.9609 Q127.7715 69.5938 128.5996 69.5938 ZM126.6934 65.1875 Q127.0996 64.75 127.5996 64.5312 Q128.0996 64.3125 128.7402 64.3125 Q130.0371 64.3125 130.7949 65.0938 Q131.5527 65.875 131.5527 67.2344 Q131.5527 68.5625 130.7402 69.3672 Q129.9277 70.1719 128.5527 70.1719 Q127.0684 70.1719 126.2715 69.0625 Q125.4746 67.9531 125.4746 65.9062 Q125.4746 63.6094 126.4199 62.3516 Q127.3652 61.0938 129.084 61.0938 Q129.5527 61.0938 130.0605 61.1797 Q130.5684 61.2656 131.0996 61.4375 L131.0996 62.8906 L130.4434 62.8906 Q130.3652 62.2969 129.9824 61.9844 Q129.5996 61.6719 128.959 61.6719 Q127.8184 61.6719 127.2637 62.5312 Q126.709 63.3906 126.6934 65.1875 Z" style="fill:black; stroke:none;" /><rect height="8" style="stroke:none;" width="8" x="103" y="53" /><path d="M108.1875 59.4688 L107.9531 60.1094 Q107.7656 60.625 107.2031 60.9375 Q106.8438 61.1562 106.2031 61.1406 Q105.0469 61.1406 104.3281 60.2344 Q103.5938 59.3281 103.5938 57.8594 Q103.5938 56.4219 104.3281 55.4844 Q105.0156 54.5938 106.4531 54.6094 Q107.4531 54.6094 107.9531 55 Q108.4062 55.3438 108.5781 56.0938 L108.625 56.3125 L108.8438 55.6719 Q109.0625 55.0469 109.6562 54.75 L110.25 54.75 L110.25 55.0938 Q109.6875 55.2656 109.5 55.8125 L108.8906 57.4844 L109.2969 59.2812 Q109.5 60.2031 109.7344 60.2969 Q110.0469 60.4375 110.7812 60 L110.7812 60.7188 Q109.5938 61.4062 108.75 60.6875 Q108.375 60.3594 108.2656 59.875 L108.1875 59.4688 ZM107.9219 58.3125 L107.5625 56.5938 Q107.2656 55.2188 106.4688 55.2188 Q105.7969 55.2031 105.2812 55.9375 Q104.8594 56.5156 104.8594 57.875 Q104.8594 59.1719 105.2812 59.8281 Q105.75 60.5469 106.5312 60.5 Q107.2031 60.4375 107.6875 59 L107.9219 58.3125 Z" style="fill:black; stroke:none;" /></g><g ID="li-1:2,3" style="fill:white; text-rendering:optimizeSpeed; font-family:'Serif'; stroke:white;"><rect height="9" style="stroke:none;" width="8" x="174" y="70" /><path d="M178.1875 76.0312 L178.1875 71.375 L175.2031 76.0312 L178.1875 76.0312 ZM180.7656 79 L176.7812 79 L176.7812 78.375 L178.1875 78.375 L178.1875 76.6562 L174.375 76.6562 L174.375 76.0156 L178.2031 70.0938 L179.3594 70.0938 L179.3594 76.0312 L181.0312 76.0312 L181.0312 76.6562 L179.3594 76.6562 L179.3594 78.375 L180.7656 78.375 L180.7656 79 Z" style="fill:black; stroke:none;" /><rect height="13" style="stroke:none;" width="7" x="160" y="68" /><path d="M161.8281 80.25 Q162.2969 80.5938 163.1719 80.5938 Q164.0625 80.5938 164.5781 80.0703 Q165.0938 79.5469 165.0938 78.6562 Q165.0938 77.4219 164.5625 76.8906 Q164.0156 76.3594 163 76.3594 L162.4375 76.3594 L162.4375 75.7188 L162.7344 75.7188 Q163.4844 75.7188 164 75.2969 Q164.4219 74.9531 164.4219 74.0156 Q164.4219 73.6094 164.1406 73.1406 Q163.6875 72.375 163.1562 72.3906 Q161.8281 72.4375 161.8281 74.7812 L161.8281 80.25 ZM160.75 83.5 L160.75 74.7812 Q160.75 72.3281 162.0781 72 Q162.7656 71.8125 163.25 71.8125 Q164.3438 71.8125 165.0469 72.6719 Q165.6094 73.3594 165.6094 73.9375 Q165.6094 74.7812 165.2031 75.2656 Q164.7969 75.75 164.0625 75.9844 Q165.1406 76.1406 165.75 76.7812 Q166.3281 77.4062 166.3281 78.6328 Q166.3281 79.8594 165.5078 80.5156 Q164.6875 81.1719 163.1406 81.1719 Q162.1875 81.1719 161.8281 81.0312 L161.8281 83.5 L160.75 83.5 Z" style="fill:black; stroke:none;" /></g><g ID="li-1:1,2" style="fill:white; text-rendering:optimizeSpeed; font-family:'Serif'; stroke:white;"><rect height="9" style="stroke:none;" width="8" x="226" y="70" /><path d="M230.1875 76.0312 L230.1875 71.375 L227.2031 76.0312 L230.1875 76.0312 ZM232.7656 79 L228.7812 79 L228.7812 78.375 L230.1875 78.375 L230.1875 76.6562 L226.375 76.6562 L226.375 76.0156 L230.2031 70.0938 L231.3594 70.0938 L231.3594 76.0312 L233.0312 76.0312 L233.0312 76.6562 L231.3594 76.6562 L231.3594 78.375 L232.7656 78.375 L232.7656 79 Z" style="fill:black; stroke:none;" /><rect height="13" style="stroke:none;" width="7" x="212" y="68" /><path d="M213.8281 80.25 Q214.2969 80.5938 215.1719 80.5938 Q216.0625 80.5938 216.5781 80.0703 Q217.0938 79.5469 217.0938 78.6562 Q217.0938 77.4219 216.5625 76.8906 Q216.0156 76.3594 215 76.3594 L214.4375 76.3594 L214.4375 75.7188 L214.7344 75.7188 Q215.4844 75.7188 216 75.2969 Q216.4219 74.9531 216.4219 74.0156 Q216.4219 73.6094 216.1406 73.1406 Q215.6875 72.375 215.1562 72.3906 Q213.8281 72.4375 213.8281 74.7812 L213.8281 80.25 ZM212.75 83.5 L212.75 74.7812 Q212.75 72.3281 214.0781 72 Q214.7656 71.8125 215.25 71.8125 Q216.3438 71.8125 217.0469 72.6719 Q217.6094 73.3594 217.6094 73.9375 Q217.6094 74.7812 217.2031 75.2656 Q216.7969 75.75 216.0625 75.9844 Q217.1406 76.1406 217.75 76.7812 Q218.3281 77.4062 218.3281 78.6328 Q218.3281 79.8594 217.5078 80.5156 Q216.6875 81.1719 215.1406 81.1719 Q214.1875 81.1719 213.8281 81.0312 L213.8281 83.5 L212.75 83.5 Z" style="fill:black; stroke:none;" /></g></g></svg>