<svg xmlns="http://www.w3.org/2000/svg" style="fill-opacity:1; color-rendering:auto; color-interpolation:auto; text-rendering:auto; stroke:black; stroke-linecap:square; stroke-miterlimit:10; shape-rendering:auto; stroke-opacity:1; fill:black; stroke-dasharray:none; font-weight:normal; stroke-width:1; font-family:'Dialog'; font-style:normal; stroke-linejoin:miter; font-size:12px; stroke-dashoffset:0; image-rendering:auto;"><defs id="genericDefs" /><g><defs id="defs1"><clipPath clipPathUnits="userSpaceOnUse" id="clipPath1"><path d="M290 56 L312 56 L312 78 L290 78 L290 56 Z" /></clipPath><clipPath clipPathUnits="userSpaceOnUse" id="clipPath2"><path d="M238 82 L260 82 L260 104 L238 104 L238 82 Z" /></clipPath><clipPath clipPathUnits="userSpaceOnUse" id="clipPath3"><path d="M208 93 C208 99.0751 203.0751 104 197 104 C190.9249 104 186 99.0751 186 93 C186 86.9249 190.9249 82 197 82 C203.0751 82 208 86.9249 208 93 Z" /></clipPath><clipPath clipPathUnits="userSpaceOnUse" id="clipPath4"><path d="M134 82 L156 82 L156 104 L134 104 L134 82 Z" /></clipPath><clipPath clipPathUnits="userSpaceOnUse" id="clipPath5"><path d="M104 93 C104 99.0751 99.0751 104 93 104 C86.9249 104 82 99.0751 82 93 C82 86.9249 86.9249 82 93 82 C99.0751 82 104 86.9249 104 93 Z" /></clipPath><clipPath clipPathUnits="userSpaceOnUse" id="clipPath6"><path d="M30 82 L52 82 L52 104 L30 104 L30 82 Z" /></clipPath><clipPath clipPathUnits="userSpaceOnUse" id="clipPath7"><path d="M260 41 C260 47.0751 255.0751 52 249 52 C242.9249 52 238 47.0751 238 41 C238 34.9249 242.9249 30 249 30 C255.0751 30 260 34.9249 260 41 Z" /></clipPath></defs><g style="fill:white; text-rendering:optimizeSpeed; stroke:white;"><rect height="134" style="stroke:none;" width="342" x="0" y="0" /></g><g ID="l-1:1,2" style="text-rendering:optimizeSpeed;"><polygon points=" 301 67 249 93" style="fill:none;" /></g><g ID="l-1:1,3" style="text-rendering:optimizeSpeed;"><polygon points=" 301 67 249 41" style="fill:none;" /></g><g ID="r-1:1" style="fill:white; text-rendering:optimizeSpeed; stroke:white;" wurcs_mono_id="1"><rect height="22" style="clip-path:url(#clipPath1); stroke:none;" width="22" x="290" y="56" /><rect height="22" style="clip-path:url(#clipPath1); fill:rgb(255,212,0); stroke:none;" width="22" x="290" y="56" /><rect height="22" style="clip-path:url(#clipPath1); fill:none; stroke:black;" width="22" x="290" y="56" /><rect height="22" style="fill:none; stroke:black;" width="22" x="290" y="56" /></g><g ID="l-1:2,4" style="text-rendering:optimizeSpeed;"><polygon points=" 249 93 197 93" style="fill:none;" /></g><g ID="r-1:2" style="fill:white; text-rendering:optimizeSpeed; stroke:white;" wurcs_mono_id="2"><rect height="22" style="clip-path:url(#clipPath2); stroke:none;" width="22" x="238" y="82" /><rect height="22" style="clip-path:url(#clipPath2); fill:rgb(0,144,188); stroke:none;" width="22" x="238" y="82" /><rect height="22" style="clip-path:url(#clipPath2); fill:none; stroke:black;" width="22" x="238" y="82" /><rect height="22" style="fill:none; stroke:black;" width="22" x="238" y="82" /></g><g ID="l-1:4,5" style="text-rendering:optimizeSpeed;"><polygon points=" 197 93 145 93" style="fill:none;" /></g><g ID="r-1:4" style="fill:white; text-rendering:optimizeSpeed; stroke:white;" wurcs_mono_id="3"><circle cx="197" cy="93" r="11" style="clip-path:url(#clipPath3); stroke:none;" /><rect height="22" style="clip-path:url(#clipPath3); fill:rgb(255,212,0); stroke:none;" width="22" x="186" y="82" /><rect height="22" style="clip-path:url(#clipPath3); fill:none; stroke:black;" width="22" x="186" y="82" /><circle cx="197" cy="93" r="11" style="fill:none; stroke:black;" /></g><g ID="l-1:5,6" style="text-rendering:optimizeSpeed;"><polygon points=" 145 93 93 93" style="fill:none;" /></g><g ID="r-1:5" style="fill:white; text-rendering:optimizeSpeed; stroke:white;" wurcs_mono_id="4"><rect height="22" style="clip-path:url(#clipPath4); stroke:none;" width="22" x="134" y="82" /><rect height="22" style="clip-path:url(#clipPath4); fill:rgb(0,144,188); stroke:none;" width="22" x="134" y="82" /><rect height="22" style="clip-path:url(#clipPath4); fill:none; stroke:black;" width="22" x="134" y="82" /><rect height="22" style="fill:none; stroke:black;" width="22" x="134" y="82" /></g><g ID="l-1:6,7" style="text-rendering:optimizeSpeed;"><polygon points=" 93 93 41 93" style="fill:none;" /></g><g ID="r-1:6" style="fill:white; text-rendering:optimizeSpeed; stroke:white;" wurcs_mono_id="5"><circle cx="93" cy="93" r="11" style="clip-path:url(#clipPath5); stroke:none;" /><rect height="22" style="clip-path:url(#clipPath5); fill:rgb(255,212,0); stroke:none;" width="22" x="82" y="82" /><rect height="22" style="clip-path:url(#clipPath5); fill:none; stroke:black;" width="22" x="82" y="82" /><circle cx="93" cy="93" r="11" style="fill:none; stroke:black;" /></g><g ID="r-1:7" style="fill:white; text-rendering:optimizeSpeed; stroke:white;" wurcs_mono_id="6"><rect height="22" style="clip-path:url(#clipPath6); stroke:none;" width="22" x="30" y="82" /><rect height="22" style="clip-path:url(#clipPath6); fill:rgb(0,144,188); stroke:none;" width="22" x="30" y="82" /><rect height="22" style="clip-path:url(#clipPath6); fill:none; stroke:black;" width="22" x="30" y="82" /><rect height="22" style="fill:none; stroke:black;" width="22" x="30" y="82" /></g><g ID="li-1:6,7" style="fill:white; text-rendering:optimizeSpeed; font-family:'Serif'; stroke:white;"><rect height="11" style="stroke:none;" width="32" x="58" y="95" /><path d="M59.5312 99.3438 L58.875 99.3438 L58.875 97.7812 Q59.5 97.4375 60.1406 97.2656 Q60.7812 97.0938 61.3906 97.0938 Q62.75 97.0938 63.5391 97.7578 Q64.3281 98.4219 64.3281 99.5469 Q64.3281 100.8438 62.5469 102.625 Q62.4062 102.7656 62.3281 102.8281 L60.125 105.0312 L63.7656 105.0312 L63.7656 103.9531 L64.4531 103.9531 L64.4531 106 L58.8125 106 L58.8125 105.3594 L61.4688 102.7188 Q62.3438 101.8281 62.7188 101.0938 Q63.0938 100.3594 63.0938 99.5469 Q63.0938 98.6719 62.6328 98.1719 Q62.1719 97.6719 61.375 97.6719 Q60.5312 97.6719 60.0781 98.0859 Q59.625 98.5 59.5312 99.3438 ZM68.7441 97.25 L69.6816 97.25 L66.5723 107.1094 L65.6348 107.1094 L68.7441 97.25 ZM70.8496 97.625 Q71.5371 97.3594 72.1621 97.2266 Q72.7871 97.0938 73.334 97.0938 Q74.6309 97.0938 75.3496 97.6484 Q76.0684 98.2031 76.0684 99.1875 Q76.0684 99.9688 75.5684 100.5 Q75.0684 101.0312 74.1621 101.2188 Q75.2402 101.375 75.834 102.0078 Q76.4277 102.6406 76.4277 103.6406 Q76.4277 104.8594 75.5996 105.5156 Q74.7715 106.1719 73.2246 106.1719 Q72.5371 106.1719 71.8887 106.0234 Q71.2402 105.875 70.5996 105.5781 L70.5996 103.875 L71.2559 103.875 Q71.3027 104.7188 71.8184 105.1562 Q72.334 105.5938 73.2559 105.5938 Q74.1465 105.5938 74.6699 105.0703 Q75.1934 104.5469 75.1934 103.6562 Q75.1934 102.625 74.6543 102.0938 Q74.1152 101.5625 73.084 101.5625 L72.5371 101.5625 L72.5371 100.9531 L72.8184 100.9531 Q73.8496 100.9531 74.3652 100.5312 Q74.8809 100.1094 74.8809 99.25 Q74.8809 98.4844 74.459 98.0781 Q74.0371 97.6719 73.2402 97.6719 Q72.4434 97.6719 72.0137 98.0469 Q71.584 98.4219 71.5059 99.1562 L70.8496 99.1562 L70.8496 97.625 ZM80.4219 97.25 L81.3594 97.25 L78.25 107.1094 L77.3125 107.1094 L80.4219 97.25 ZM85.543 103.0312 L85.543 98.375 L82.5586 103.0312 L85.543 103.0312 ZM88.1211 106 L84.1367 106 L84.1367 105.375 L85.543 105.375 L85.543 103.6562 L81.7305 103.6562 L81.7305 103.0156 L85.5586 97.0938 L86.7148 97.0938 L86.7148 103.0312 L88.3867 103.0312 L88.3867 103.6562 L86.7148 103.6562 L86.7148 105.375 L88.1211 105.375 L88.1211 106 Z" style="fill:black; stroke:none;" /><rect height="13" style="stroke:none;" width="7" x="56" y="94" /><path d="M57.8281 106.25 Q58.2969 106.5938 59.1719 106.5938 Q60.0625 106.5938 60.5781 106.0703 Q61.0938 105.5469 61.0938 104.6562 Q61.0938 103.4219 60.5625 102.8906 Q60.0156 102.3594 59 102.3594 L58.4375 102.3594 L58.4375 101.7188 L58.7344 101.7188 Q59.4844 101.7188 60 101.2969 Q60.4219 100.9531 60.4219 100.0156 Q60.4219 99.6094 60.1406 99.1406 Q59.6875 98.375 59.1562 98.3906 Q57.8281 98.4375 57.8281 100.7812 L57.8281 106.25 ZM56.75 109.5 L56.75 100.7812 Q56.75 98.3281 58.0781 98 Q58.7656 97.8125 59.25 97.8125 Q60.3438 97.8125 61.0469 98.6719 Q61.6094 99.3594 61.6094 99.9375 Q61.6094 100.7812 61.2031 101.2656 Q60.7969 101.75 60.0625 101.9844 Q61.1406 102.1406 61.75 102.7812 Q62.3281 103.4062 62.3281 104.6328 Q62.3281 105.8594 61.5078 106.5156 Q60.6875 107.1719 59.1406 107.1719 Q58.1875 107.1719 57.8281 107.0312 L57.8281 109.5 L56.75 109.5 Z" style="fill:black; stroke:none;" /></g><g ID="li-1:5,6" style="fill:white; text-rendering:optimizeSpeed; font-family:'Serif'; stroke:white;"><rect height="9" style="stroke:none;" width="8" x="122" y="96" /><path d="M126.1875 102.0312 L126.1875 97.375 L123.2031 102.0312 L126.1875 102.0312 ZM128.7656 105 L124.7812 105 L124.7812 104.375 L126.1875 104.375 L126.1875 102.6562 L122.375 102.6562 L122.375 102.0156 L126.2031 96.0938 L127.3594 96.0938 L127.3594 102.0312 L129.0312 102.0312 L129.0312 102.6562 L127.3594 102.6562 L127.3594 104.375 L128.7656 104.375 L128.7656 105 Z" style="fill:black; stroke:none;" /><rect height="13" style="stroke:none;" width="7" x="108" y="94" /><path d="M109.8281 106.25 Q110.2969 106.5938 111.1719 106.5938 Q112.0625 106.5938 112.5781 106.0703 Q113.0938 105.5469 113.0938 104.6562 Q113.0938 103.4219 112.5625 102.8906 Q112.0156 102.3594 111 102.3594 L110.4375 102.3594 L110.4375 101.7188 L110.7344 101.7188 Q111.4844 101.7188 112 101.2969 Q112.4219 100.9531 112.4219 100.0156 Q112.4219 99.6094 112.1406 99.1406 Q111.6875 98.375 111.1562 98.3906 Q109.8281 98.4375 109.8281 100.7812 L109.8281 106.25 ZM108.75 109.5 L108.75 100.7812 Q108.75 98.3281 110.0781 98 Q110.7656 97.8125 111.25 97.8125 Q112.3438 97.8125 113.0469 98.6719 Q113.6094 99.3594 113.6094 99.9375 Q113.6094 100.7812 113.2031 101.2656 Q112.7969 101.75 112.0625 101.9844 Q113.1406 102.1406 113.75 102.7812 Q114.3281 103.4062 114.3281 104.6328 Q114.3281 105.8594 113.5078 106.5156 Q112.6875 107.1719 111.1406 107.1719 Q110.1875 107.1719 109.8281 107.0312 L109.8281 109.5 L108.75 109.5 Z" style="fill:black; stroke:none;" /></g><g ID="li-1:4,5" style="fill:white; text-rendering:optimizeSpeed; font-family:'Serif'; stroke:white;"><rect height="10" style="stroke:none;" width="7" x="174" y="96" /><path d="M175.1719 97.625 Q175.8594 97.3594 176.4844 97.2266 Q177.1094 97.0938 177.6562 97.0938 Q178.9531 97.0938 179.6719 97.6484 Q180.3906 98.2031 180.3906 99.1875 Q180.3906 99.9688 179.8906 100.5 Q179.3906 101.0312 178.4844 101.2188 Q179.5625 101.375 180.1562 102.0078 Q180.75 102.6406 180.75 103.6406 Q180.75 104.8594 179.9219 105.5156 Q179.0938 106.1719 177.5469 106.1719 Q176.8594 106.1719 176.2109 106.0234 Q175.5625 105.875 174.9219 105.5781 L174.9219 103.875 L175.5781 103.875 Q175.625 104.7188 176.1406 105.1562 Q176.6562 105.5938 177.5781 105.5938 Q178.4688 105.5938 178.9922 105.0703 Q179.5156 104.5469 179.5156 103.6562 Q179.5156 102.625 178.9766 102.0938 Q178.4375 101.5625 177.4062 101.5625 L176.8594 101.5625 L176.8594 100.9531 L177.1406 100.9531 Q178.1719 100.9531 178.6875 100.5312 Q179.2031 100.1094 179.2031 99.25 Q179.2031 98.4844 178.7812 98.0781 Q178.3594 97.6719 177.5625 97.6719 Q176.7656 97.6719 176.3359 98.0469 Q175.9062 98.4219 175.8281 99.1562 L175.1719 99.1562 L175.1719 97.625 Z" style="fill:black; stroke:none;" /><rect height="13" style="stroke:none;" width="7" x="160" y="94" /><path d="M161.8281 106.25 Q162.2969 106.5938 163.1719 106.5938 Q164.0625 106.5938 164.5781 106.0703 Q165.0938 105.5469 165.0938 104.6562 Q165.0938 103.4219 164.5625 102.8906 Q164.0156 102.3594 163 102.3594 L162.4375 102.3594 L162.4375 101.7188 L162.7344 101.7188 Q163.4844 101.7188 164 101.2969 Q164.4219 100.9531 164.4219 100.0156 Q164.4219 99.6094 164.1406 99.1406 Q163.6875 98.375 163.1562 98.3906 Q161.8281 98.4375 161.8281 100.7812 L161.8281 106.25 ZM160.75 109.5 L160.75 100.7812 Q160.75 98.3281 162.0781 98 Q162.7656 97.8125 163.25 97.8125 Q164.3438 97.8125 165.0469 98.6719 Q165.6094 99.3594 165.6094 99.9375 Q165.6094 100.7812 165.2031 101.2656 Q164.7969 101.75 164.0625 101.9844 Q165.1406 102.1406 165.75 102.7812 Q166.3281 103.4062 166.3281 104.6328 Q166.3281 105.8594 165.5078 106.5156 Q164.6875 107.1719 163.1406 107.1719 Q162.1875 107.1719 161.8281 107.0312 L161.8281 109.5 L160.75 109.5 Z" style="fill:black; stroke:none;" /></g><g ID="li-1:2,4" style="fill:white; text-rendering:optimizeSpeed; font-family:'Serif'; stroke:white;"><rect height="9" style="stroke:none;" width="8" x="226" y="96" /><path d="M230.1875 102.0312 L230.1875 97.375 L227.2031 102.0312 L230.1875 102.0312 ZM232.7656 105 L228.7812 105 L228.7812 104.375 L230.1875 104.375 L230.1875 102.6562 L226.375 102.6562 L226.375 102.0156 L230.2031 96.0938 L231.3594 96.0938 L231.3594 102.0312 L233.0312 102.0312 L233.0312 102.6562 L231.3594 102.6562 L231.3594 104.375 L232.7656 104.375 L232.7656 105 Z" style="fill:black; stroke:none;" /><rect height="13" style="stroke:none;" width="7" x="212" y="94" /><path d="M213.8281 106.25 Q214.2969 106.5938 215.1719 106.5938 Q216.0625 106.5938 216.5781 106.0703 Q217.0938 105.5469 217.0938 104.6562 Q217.0938 103.4219 216.5625 102.8906 Q216.0156 102.3594 215 102.3594 L214.4375 102.3594 L214.4375 101.7188 L214.7344 101.7188 Q215.4844 101.7188 216 101.2969 Q216.4219 100.9531 216.4219 100.0156 Q216.4219 99.6094 216.1406 99.1406 Q215.6875 98.375 215.1562 98.3906 Q213.8281 98.4375 213.8281 100.7812 L213.8281 106.25 ZM212.75 109.5 L212.75 100.7812 Q212.75 98.3281 214.0781 98 Q214.7656 97.8125 215.25 97.8125 Q216.3438 97.8125 217.0469 98.6719 Q217.6094 99.3594 217.6094 99.9375 Q217.6094 100.7812 217.2031 101.2656 Q216.7969 101.75 216.0625 101.9844 Q217.1406 102.1406 217.75 102.7812 Q218.3281 103.4062 218.3281 104.6328 Q218.3281 105.8594 217.5078 106.5156 Q216.6875 107.1719 215.1406 107.1719 Q214.1875 107.1719 213.8281 107.0312 L213.8281 109.5 L212.75 109.5 Z" style="fill:black; stroke:none;" /></g><g ID="r-1:3" style="fill:white; text-rendering:optimizeSpeed; stroke:white;" wurcs_mono_id="7"><circle cx="249" cy="41" r="11" style="clip-path:url(#clipPath7); stroke:none;" /><rect height="22" style="clip-path:url(#clipPath7); fill:rgb(255,212,0); stroke:none;" width="22" x="238" y="30" /><rect height="22" style="clip-path:url(#clipPath7); fill:none; stroke:black;" width="22" x="238" y="30" /><circle cx="249" cy="41" r="11" style="fill:none; stroke:black;" /></g><g ID="li-1:1,2" style="fill:white; text-rendering:optimizeSpeed; font-family:'Serif'; stroke:white;"><rect height="11" style="stroke:none;" width="19" x="276" y="77" /><path d="M277.1719 79.625 Q277.8594 79.3594 278.4844 79.2266 Q279.1094 79.0938 279.6562 79.0938 Q280.9531 79.0938 281.6719 79.6484 Q282.3906 80.2031 282.3906 81.1875 Q282.3906 81.9688 281.8906 82.5 Q281.3906 83.0312 280.4844 83.2188 Q281.5625 83.375 282.1562 84.0078 Q282.75 84.6406 282.75 85.6406 Q282.75 86.8594 281.9219 87.5156 Q281.0938 88.1719 279.5469 88.1719 Q278.8594 88.1719 278.2109 88.0234 Q277.5625 87.875 276.9219 87.5781 L276.9219 85.875 L277.5781 85.875 Q277.625 86.7188 278.1406 87.1562 Q278.6562 87.5938 279.5781 87.5938 Q280.4688 87.5938 280.9922 87.0703 Q281.5156 86.5469 281.5156 85.6562 Q281.5156 84.625 280.9766 84.0938 Q280.4375 83.5625 279.4062 83.5625 L278.8594 83.5625 L278.8594 82.9531 L279.1406 82.9531 Q280.1719 82.9531 280.6875 82.5312 Q281.2031 82.1094 281.2031 81.25 Q281.2031 80.4844 280.7812 80.0781 Q280.3594 79.6719 279.5625 79.6719 Q278.7656 79.6719 278.3359 80.0469 Q277.9062 80.4219 277.8281 81.1562 L277.1719 81.1562 L277.1719 79.625 ZM286.7441 79.25 L287.6816 79.25 L284.5723 89.1094 L283.6348 89.1094 L286.7441 79.25 ZM291.5996 87.5938 Q292.4277 87.5938 292.873 86.9844 Q293.3184 86.375 293.3184 85.2344 Q293.3184 84.1094 292.873 83.5 Q292.4277 82.8906 291.5996 82.8906 Q290.7715 82.8906 290.3262 83.4766 Q289.8809 84.0625 289.8809 85.1719 Q289.8809 86.3281 290.3262 86.9609 Q290.7715 87.5938 291.5996 87.5938 ZM289.6934 83.1875 Q290.0996 82.75 290.5996 82.5312 Q291.0996 82.3125 291.7402 82.3125 Q293.0371 82.3125 293.7949 83.0938 Q294.5527 83.875 294.5527 85.2344 Q294.5527 86.5625 293.7402 87.3672 Q292.9277 88.1719 291.5527 88.1719 Q290.0684 88.1719 289.2715 87.0625 Q288.4746 85.9531 288.4746 83.9062 Q288.4746 81.6094 289.4199 80.3516 Q290.3652 79.0938 292.084 79.0938 Q292.5527 79.0938 293.0605 79.1797 Q293.5684 79.2656 294.0996 79.4375 L294.0996 80.8906 L293.4434 80.8906 Q293.3652 80.2969 292.9824 79.9844 Q292.5996 79.6719 291.959 79.6719 Q290.8184 79.6719 290.2637 80.5312 Q289.709 81.3906 289.6934 83.1875 Z" style="fill:black; stroke:none;" /><rect height="13" style="stroke:none;" width="7" x="267" y="84" /><path d="M268.8281 96.25 Q269.2969 96.5938 270.1719 96.5938 Q271.0625 96.5938 271.5781 96.0703 Q272.0938 95.5469 272.0938 94.6562 Q272.0938 93.4219 271.5625 92.8906 Q271.0156 92.3594 270 92.3594 L269.4375 92.3594 L269.4375 91.7188 L269.7344 91.7188 Q270.4844 91.7188 271 91.2969 Q271.4219 90.9531 271.4219 90.0156 Q271.4219 89.6094 271.1406 89.1406 Q270.6875 88.375 270.1562 88.3906 Q268.8281 88.4375 268.8281 90.7812 L268.8281 96.25 ZM267.75 99.5 L267.75 90.7812 Q267.75 88.3281 269.0781 88 Q269.7656 87.8125 270.25 87.8125 Q271.3438 87.8125 272.0469 88.6719 Q272.6094 89.3594 272.6094 89.9375 Q272.6094 90.7812 272.2031 91.2656 Q271.7969 91.75 271.0625 91.9844 Q272.1406 92.1406 272.75 92.7812 Q273.3281 93.4062 273.3281 94.6328 Q273.3281 95.8594 272.5078 96.5156 Q271.6875 97.1719 270.1406 97.1719 Q269.1875 97.1719 268.8281 97.0312 L268.8281 99.5 L267.75 99.5 Z" style="fill:black; stroke:none;" /></g><g ID="li-1:1,3" style="fill:white; text-rendering:optimizeSpeed; font-family:'Serif'; stroke:white;"><rect height="11" style="stroke:none;" width="19" x="269" y="59" /><path d="M270.1719 61.625 Q270.8594 61.3594 271.4844 61.2266 Q272.1094 61.0938 272.6562 61.0938 Q273.9531 61.0938 274.6719 61.6484 Q275.3906 62.2031 275.3906 63.1875 Q275.3906 63.9688 274.8906 64.5 Q274.3906 65.0312 273.4844 65.2188 Q274.5625 65.375 275.1562 66.0078 Q275.75 66.6406 275.75 67.6406 Q275.75 68.8594 274.9219 69.5156 Q274.0938 70.1719 272.5469 70.1719 Q271.8594 70.1719 271.2109 70.0234 Q270.5625 69.875 269.9219 69.5781 L269.9219 67.875 L270.5781 67.875 Q270.625 68.7188 271.1406 69.1562 Q271.6562 69.5938 272.5781 69.5938 Q273.4688 69.5938 273.9922 69.0703 Q274.5156 68.5469 274.5156 67.6562 Q274.5156 66.625 273.9766 66.0938 Q273.4375 65.5625 272.4062 65.5625 L271.8594 65.5625 L271.8594 64.9531 L272.1406 64.9531 Q273.1719 64.9531 273.6875 64.5312 Q274.2031 64.1094 274.2031 63.25 Q274.2031 62.4844 273.7812 62.0781 Q273.3594 61.6719 272.5625 61.6719 Q271.7656 61.6719 271.3359 62.0469 Q270.9062 62.4219 270.8281 63.1562 L270.1719 63.1562 L270.1719 61.625 ZM279.7441 61.25 L280.6816 61.25 L277.5723 71.1094 L276.6348 71.1094 L279.7441 61.25 ZM284.5996 69.5938 Q285.4277 69.5938 285.873 68.9844 Q286.3184 68.375 286.3184 67.2344 Q286.3184 66.1094 285.873 65.5 Q285.4277 64.8906 284.5996 64.8906 Q283.7715 64.8906 283.3262 65.4766 Q282.8809 66.0625 282.8809 67.1719 Q282.8809 68.3281 283.3262 68.9609 Q283.7715 69.5938 284.5996 69.5938 ZM282.6934 65.1875 Q283.0996 64.75 283.5996 64.5312 Q284.0996 64.3125 284.7402 64.3125 Q286.0371 64.3125 286.7949 65.0938 Q287.5527 65.875 287.5527 67.2344 Q287.5527 68.5625 286.7402 69.3672 Q285.9277 70.1719 284.5527 70.1719 Q283.0684 70.1719 282.2715 69.0625 Q281.4746 67.9531 281.4746 65.9062 Q281.4746 63.6094 282.4199 62.3516 Q283.3652 61.0938 285.084 61.0938 Q285.5527 61.0938 286.0605 61.1797 Q286.5684 61.2656 287.0996 61.4375 L287.0996 62.8906 L286.4434 62.8906 Q286.3652 62.2969 285.9824 61.9844 Q285.5996 61.6719 284.959 61.6719 Q283.8184 61.6719 283.2637 62.5312 Q282.709 63.3906 282.6934 65.1875 Z" style="fill:black; stroke:none;" /><rect height="13" style="stroke:none;" width="7" x="260" y="50" /><path d="M261.8281 62.25 Q262.2969 62.5938 263.1719 62.5938 Q264.0625 62.5938 264.5781 62.0703 Q265.0938 61.5469 265.0938 60.6562 Q265.0938 59.4219 264.5625 58.8906 Q264.0156 58.3594 263 58.3594 L262.4375 58.3594 L262.4375 57.7188 L262.7344 57.7188 Q263.4844 57.7188 264 57.2969 Q264.4219 56.9531 264.4219 56.0156 Q264.4219 55.6094 264.1406 55.1406 Q263.6875 54.375 263.1562 54.3906 Q261.8281 54.4375 261.8281 56.7812 L261.8281 62.25 ZM260.75 65.5 L260.75 56.7812 Q260.75 54.3281 262.0781 54 Q262.7656 53.8125 263.25 53.8125 Q264.3438 53.8125 265.0469 54.6719 Q265.6094 55.3594 265.6094 55.9375 Q265.6094 56.7812 265.2031 57.2656 Q264.7969 57.75 264.0625 57.9844 Q265.1406 58.1406 265.75 58.7812 Q266.3281 59.4062 266.3281 60.6328 Q266.3281 61.8594 265.5078 62.5156 Q264.6875 63.1719 263.1406 63.1719 Q262.1875 63.1719 261.8281 63.0312 L261.8281 65.5 L260.75 65.5 Z" style="fill:black; stroke:none;" /></g></g></svg>