<svg xmlns="http://www.w3.org/2000/svg" style="fill-opacity:1; color-rendering:auto; color-interpolation:auto; text-rendering:auto; stroke:black; stroke-linecap:square; stroke-miterlimit:10; shape-rendering:auto; stroke-opacity:1; fill:black; stroke-dasharray:none; font-weight:normal; stroke-width:1; font-family:'Dialog'; font-style:normal; stroke-linejoin:miter; font-size:12px; stroke-dashoffset:0; image-rendering:auto;"><defs id="genericDefs" /><g><defs id="defs1"><clipPath clipPathUnits="userSpaceOnUse" id="clipPath1"><path d="M238 69 L260 69 L260 91 L238 91 L238 69 Z" /></clipPath><clipPath clipPathUnits="userSpaceOnUse" id="clipPath2"><path d="M186 69 L208 69 L208 91 L186 91 L186 69 Z" /></clipPath><clipPath clipPathUnits="userSpaceOnUse" id="clipPath3"><path d="M156 80 C156 86.0751 151.0751 91 145 91 C138.9249 91 134 86.0751 134 80 C134 73.9249 138.9249 69 145 69 C151.0751 69 156 73.9249 156 80 Z" /></clipPath><clipPath clipPathUnits="userSpaceOnUse" id="clipPath4"><path d="M104 119 C104 125.0751 99.0751 130 93 130 C86.9249 130 82 125.0751 82 119 C82 112.9249 86.9249 108 93 108 C99.0751 108 104 112.9249 104 119 Z" /></clipPath><clipPath clipPathUnits="userSpaceOnUse" id="clipPath5"><path d="M52 145 C52 151.0751 47.0751 156 41 156 C34.9249 156 30 151.0751 30 145 C30 138.9249 34.9249 134 41 134 C47.0751 134 52 138.9249 52 145 Z" /></clipPath><clipPath clipPathUnits="userSpaceOnUse" id="clipPath6"><path d="M52 93 C52 99.0751 47.0751 104 41 104 C34.9249 104 30 99.0751 30 93 C30 86.9249 34.9249 82 41 82 C47.0751 82 52 86.9249 52 93 Z" /></clipPath><clipPath clipPathUnits="userSpaceOnUse" id="clipPath7"><path d="M104 41 C104 47.0751 99.0751 52 93 52 C86.9249 52 82 47.0751 82 41 C82 34.9249 86.9249 30 93 30 C99.0751 30 104 34.9249 104 41 Z" /></clipPath><clipPath clipPathUnits="userSpaceOnUse" id="clipPath8"><path d="M30 30 L52 30 L52 52 L30 52 L30 30 Z" /></clipPath></defs><g style="fill:white; text-rendering:optimizeSpeed; stroke:white;"><rect height="186" style="stroke:none;" width="290" x="0" y="0" /></g><g ID="l-1:1,2" style="text-rendering:optimizeSpeed;"><polygon points=" 249 80 197 80" style="fill:none;" /></g><g ID="r-1:1" style="fill:white; text-rendering:optimizeSpeed; stroke:white;" wurcs_mono_id="1"><rect height="22" style="clip-path:url(#clipPath1); stroke:none;" width="22" x="238" y="69" /><rect height="22" style="clip-path:url(#clipPath1); fill:rgb(0,144,188); stroke:none;" width="22" x="238" y="69" /><rect height="22" style="clip-path:url(#clipPath1); fill:none; stroke:black;" width="22" x="238" y="69" /><rect height="22" style="fill:none; stroke:black;" width="22" x="238" y="69" /></g><g ID="l-1:2,3" style="text-rendering:optimizeSpeed;"><polygon points=" 197 80 145 80" style="fill:none;" /></g><g ID="r-1:2" style="fill:white; text-rendering:optimizeSpeed; stroke:white;" wurcs_mono_id="2"><rect height="22" style="clip-path:url(#clipPath2); stroke:none;" width="22" x="186" y="69" /><rect height="22" style="clip-path:url(#clipPath2); fill:rgb(0,144,188); stroke:none;" width="22" x="186" y="69" /><rect height="22" style="clip-path:url(#clipPath2); fill:none; stroke:black;" width="22" x="186" y="69" /><rect height="22" style="fill:none; stroke:black;" width="22" x="186" y="69" /></g><g ID="l-1:3,4" style="text-rendering:optimizeSpeed;"><polygon points=" 145 80 93 119" style="fill:none;" /></g><g ID="l-1:3,5" style="text-rendering:optimizeSpeed;"><polygon points=" 145 80 93 41" style="fill:none;" /></g><g ID="r-1:3" style="fill:white; text-rendering:optimizeSpeed; stroke:white;" wurcs_mono_id="3"><circle cx="145" cy="80" r="11" style="clip-path:url(#clipPath3); stroke:none;" /><rect height="22" style="clip-path:url(#clipPath3); fill:rgb(0,166,81); stroke:none;" width="22" x="134" y="69" /><rect height="22" style="clip-path:url(#clipPath3); fill:none; stroke:black;" width="22" x="134" y="69" /><circle cx="145" cy="80" r="11" style="fill:none; stroke:black;" /></g><g ID="l-1:4,6" style="text-rendering:optimizeSpeed;"><polygon points=" 93 119 41 145" style="fill:none;" /></g><g ID="l-1:4,7" style="text-rendering:optimizeSpeed;"><polygon points=" 93 119 41 93" style="fill:none;" /></g><g ID="r-1:4" style="fill:white; text-rendering:optimizeSpeed; stroke:white;" wurcs_mono_id="4"><circle cx="93" cy="119" r="11" style="clip-path:url(#clipPath4); stroke:none;" /><rect height="22" style="clip-path:url(#clipPath4); fill:rgb(0,166,81); stroke:none;" width="22" x="82" y="108" /><rect height="22" style="clip-path:url(#clipPath4); fill:none; stroke:black;" width="22" x="82" y="108" /><circle cx="93" cy="119" r="11" style="fill:none; stroke:black;" /></g><g ID="r-1:6" style="fill:white; text-rendering:optimizeSpeed; stroke:white;" wurcs_mono_id="6"><circle cx="41" cy="145" r="11" style="clip-path:url(#clipPath5); stroke:none;" /><rect height="22" style="clip-path:url(#clipPath5); fill:rgb(0,166,81); stroke:none;" width="22" x="30" y="134" /><rect height="22" style="clip-path:url(#clipPath5); fill:none; stroke:black;" width="22" x="30" y="134" /><circle cx="41" cy="145" r="11" style="fill:none; stroke:black;" /></g><g ID="r-1:7" style="fill:white; text-rendering:optimizeSpeed; stroke:white;" wurcs_mono_id="5"><circle cx="41" cy="93" r="11" style="clip-path:url(#clipPath6); stroke:none;" /><rect height="22" style="clip-path:url(#clipPath6); fill:rgb(0,166,81); stroke:none;" width="22" x="30" y="82" /><rect height="22" style="clip-path:url(#clipPath6); fill:none; stroke:black;" width="22" x="30" y="82" /><circle cx="41" cy="93" r="11" style="fill:none; stroke:black;" /></g><g ID="li-1:4,6" style="fill:white; text-rendering:optimizeSpeed; font-family:'Serif'; stroke:white;"><rect height="10" style="stroke:none;" width="6" x="75" y="130" /><path d="M77.1094 139.3906 Q77.1094 139.0625 77.3359 138.8359 Q77.5625 138.6094 77.8906 138.6094 Q78.2188 138.6094 78.4453 138.8359 Q78.6719 139.0625 78.6719 139.3906 Q78.6719 139.7188 78.4453 139.9453 Q78.2188 140.1719 77.8906 140.1719 Q77.5625 140.1719 77.3359 139.9453 Q77.1094 139.7188 77.1094 139.3906 ZM75.8125 131.6406 Q76.4375 131.3594 77 131.2266 Q77.5625 131.0938 78.0469 131.0938 Q79.3438 131.0938 80.1016 131.7188 Q80.8594 132.3438 80.8594 133.4062 Q80.8594 134.5 80.2109 135.1953 Q79.5625 135.8906 78.25 136.1875 L78.25 137.6719 L77.5312 137.6719 L77.5312 135.75 Q78.5625 135.5 79.0938 134.9062 Q79.625 134.3125 79.625 133.4062 Q79.625 132.5938 79.1953 132.1328 Q78.7656 131.6719 78.0312 131.6719 Q77.3594 131.6719 76.9297 132.0547 Q76.5 132.4375 76.3906 133.1562 L75.8125 133.1562 L75.8125 131.6406 Z" style="fill:black; stroke:none;" /><rect height="10" style="stroke:none;" width="6" x="59" y="138" /><path d="M61.1094 147.3906 Q61.1094 147.0625 61.3359 146.8359 Q61.5625 146.6094 61.8906 146.6094 Q62.2188 146.6094 62.4453 146.8359 Q62.6719 147.0625 62.6719 147.3906 Q62.6719 147.7188 62.4453 147.9453 Q62.2188 148.1719 61.8906 148.1719 Q61.5625 148.1719 61.3359 147.9453 Q61.1094 147.7188 61.1094 147.3906 ZM59.8125 139.6406 Q60.4375 139.3594 61 139.2266 Q61.5625 139.0938 62.0469 139.0938 Q63.3438 139.0938 64.1016 139.7188 Q64.8594 140.3438 64.8594 141.4062 Q64.8594 142.5 64.2109 143.1953 Q63.5625 143.8906 62.25 144.1875 L62.25 145.6719 L61.5312 145.6719 L61.5312 143.75 Q62.5625 143.5 63.0938 142.9062 Q63.625 142.3125 63.625 141.4062 Q63.625 140.5938 63.1953 140.1328 Q62.7656 139.6719 62.0312 139.6719 Q61.3594 139.6719 60.9297 140.0547 Q60.5 140.4375 60.3906 141.1562 L59.8125 141.1562 L59.8125 139.6406 Z" style="fill:black; stroke:none;" /></g><g ID="li-1:4,7" style="fill:white; text-rendering:optimizeSpeed; font-family:'Serif'; stroke:white;"><rect height="10" style="stroke:none;" width="6" x="68" y="112" /><path d="M70.1094 121.3906 Q70.1094 121.0625 70.3359 120.8359 Q70.5625 120.6094 70.8906 120.6094 Q71.2188 120.6094 71.4453 120.8359 Q71.6719 121.0625 71.6719 121.3906 Q71.6719 121.7188 71.4453 121.9453 Q71.2188 122.1719 70.8906 122.1719 Q70.5625 122.1719 70.3359 121.9453 Q70.1094 121.7188 70.1094 121.3906 ZM68.8125 113.6406 Q69.4375 113.3594 70 113.2266 Q70.5625 113.0938 71.0469 113.0938 Q72.3438 113.0938 73.1016 113.7188 Q73.8594 114.3438 73.8594 115.4062 Q73.8594 116.5 73.2109 117.1953 Q72.5625 117.8906 71.25 118.1875 L71.25 119.6719 L70.5312 119.6719 L70.5312 117.75 Q71.5625 117.5 72.0938 116.9062 Q72.625 116.3125 72.625 115.4062 Q72.625 114.5938 72.1953 114.1328 Q71.7656 113.6719 71.0312 113.6719 Q70.3594 113.6719 69.9297 114.0547 Q69.5 114.4375 69.3906 115.1562 L68.8125 115.1562 L68.8125 113.6406 Z" style="fill:black; stroke:none;" /><rect height="10" style="stroke:none;" width="6" x="52" y="104" /><path d="M54.1094 113.3906 Q54.1094 113.0625 54.3359 112.8359 Q54.5625 112.6094 54.8906 112.6094 Q55.2188 112.6094 55.4453 112.8359 Q55.6719 113.0625 55.6719 113.3906 Q55.6719 113.7188 55.4453 113.9453 Q55.2188 114.1719 54.8906 114.1719 Q54.5625 114.1719 54.3359 113.9453 Q54.1094 113.7188 54.1094 113.3906 ZM52.8125 105.6406 Q53.4375 105.3594 54 105.2266 Q54.5625 105.0938 55.0469 105.0938 Q56.3438 105.0938 57.1016 105.7188 Q57.8594 106.3438 57.8594 107.4062 Q57.8594 108.5 57.2109 109.1953 Q56.5625 109.8906 55.25 110.1875 L55.25 111.6719 L54.5312 111.6719 L54.5312 109.75 Q55.5625 109.5 56.0938 108.9062 Q56.625 108.3125 56.625 107.4062 Q56.625 106.5938 56.1953 106.1328 Q55.7656 105.6719 55.0312 105.6719 Q54.3594 105.6719 53.9297 106.0547 Q53.5 106.4375 53.3906 107.1562 L52.8125 107.1562 L52.8125 105.6406 Z" style="fill:black; stroke:none;" /></g><g ID="l-1:5,8" style="text-rendering:optimizeSpeed;"><polygon points=" 93 41 41 41" style="fill:none;" /></g><g ID="r-1:5" style="fill:white; text-rendering:optimizeSpeed; stroke:white;" wurcs_mono_id="7"><circle cx="93" cy="41" r="11" style="clip-path:url(#clipPath7); stroke:none;" /><rect height="22" style="clip-path:url(#clipPath7); fill:rgb(0,166,81); stroke:none;" width="22" x="82" y="30" /><rect height="22" style="clip-path:url(#clipPath7); fill:none; stroke:black;" width="22" x="82" y="30" /><circle cx="93" cy="41" r="11" style="fill:none; stroke:black;" /></g><g ID="r-1:8" style="fill:white; text-rendering:optimizeSpeed; stroke:white;" wurcs_mono_id="8"><rect height="22" style="clip-path:url(#clipPath8); stroke:none;" width="22" x="30" y="30" /><rect height="22" style="clip-path:url(#clipPath8); fill:rgb(0,144,188); stroke:none;" width="22" x="30" y="30" /><rect height="22" style="clip-path:url(#clipPath8); fill:none; stroke:black;" width="22" x="30" y="30" /><rect height="22" style="fill:none; stroke:black;" width="22" x="30" y="30" /></g><g ID="li-1:5,8" style="fill:white; text-rendering:optimizeSpeed; font-family:'Serif'; stroke:white;"><rect height="10" style="stroke:none;" width="6" x="71" y="44" /><path d="M73.1094 53.3906 Q73.1094 53.0625 73.3359 52.8359 Q73.5625 52.6094 73.8906 52.6094 Q74.2188 52.6094 74.4453 52.8359 Q74.6719 53.0625 74.6719 53.3906 Q74.6719 53.7188 74.4453 53.9453 Q74.2188 54.1719 73.8906 54.1719 Q73.5625 54.1719 73.3359 53.9453 Q73.1094 53.7188 73.1094 53.3906 ZM71.8125 45.6406 Q72.4375 45.3594 73 45.2266 Q73.5625 45.0938 74.0469 45.0938 Q75.3438 45.0938 76.1016 45.7188 Q76.8594 46.3438 76.8594 47.4062 Q76.8594 48.5 76.2109 49.1953 Q75.5625 49.8906 74.25 50.1875 L74.25 51.6719 L73.5312 51.6719 L73.5312 49.75 Q74.5625 49.5 75.0938 48.9062 Q75.625 48.3125 75.625 47.4062 Q75.625 46.5938 75.1953 46.1328 Q74.7656 45.6719 74.0312 45.6719 Q73.3594 45.6719 72.9297 46.0547 Q72.5 46.4375 72.3906 47.1562 L71.8125 47.1562 L71.8125 45.6406 Z" style="fill:black; stroke:none;" /><rect height="10" style="stroke:none;" width="6" x="57" y="44" /><path d="M59.1094 53.3906 Q59.1094 53.0625 59.3359 52.8359 Q59.5625 52.6094 59.8906 52.6094 Q60.2188 52.6094 60.4453 52.8359 Q60.6719 53.0625 60.6719 53.3906 Q60.6719 53.7188 60.4453 53.9453 Q60.2188 54.1719 59.8906 54.1719 Q59.5625 54.1719 59.3359 53.9453 Q59.1094 53.7188 59.1094 53.3906 ZM57.8125 45.6406 Q58.4375 45.3594 59 45.2266 Q59.5625 45.0938 60.0469 45.0938 Q61.3438 45.0938 62.1016 45.7188 Q62.8594 46.3438 62.8594 47.4062 Q62.8594 48.5 62.2109 49.1953 Q61.5625 49.8906 60.25 50.1875 L60.25 51.6719 L59.5312 51.6719 L59.5312 49.75 Q60.5625 49.5 61.0938 48.9062 Q61.625 48.3125 61.625 47.4062 Q61.625 46.5938 61.1953 46.1328 Q60.7656 45.6719 60.0312 45.6719 Q59.3594 45.6719 58.9297 46.0547 Q58.5 46.4375 58.3906 47.1562 L57.8125 47.1562 L57.8125 45.6406 Z" style="fill:black; stroke:none;" /></g><g ID="li-1:3,4" style="fill:white; text-rendering:optimizeSpeed; font-family:'Serif'; stroke:white;"><rect height="10" style="stroke:none;" width="6" x="129" y="94" /><path d="M131.1094 103.3906 Q131.1094 103.0625 131.3359 102.8359 Q131.5625 102.6094 131.8906 102.6094 Q132.2188 102.6094 132.4453 102.8359 Q132.6719 103.0625 132.6719 103.3906 Q132.6719 103.7188 132.4453 103.9453 Q132.2188 104.1719 131.8906 104.1719 Q131.5625 104.1719 131.3359 103.9453 Q131.1094 103.7188 131.1094 103.3906 ZM129.8125 95.6406 Q130.4375 95.3594 131 95.2266 Q131.5625 95.0938 132.0469 95.0938 Q133.3438 95.0938 134.1016 95.7188 Q134.8594 96.3438 134.8594 97.4062 Q134.8594 98.5 134.2109 99.1953 Q133.5625 99.8906 132.25 100.1875 L132.25 101.6719 L131.5312 101.6719 L131.5312 99.75 Q132.5625 99.5 133.0938 98.9062 Q133.625 98.3125 133.625 97.4062 Q133.625 96.5938 133.1953 96.1328 Q132.7656 95.6719 132.0312 95.6719 Q131.3594 95.6719 130.9297 96.0547 Q130.5 96.4375 130.3906 97.1562 L129.8125 97.1562 L129.8125 95.6406 Z" style="fill:black; stroke:none;" /><rect height="8" style="stroke:none;" width="8" x="111" y="108" /><path d="M116.1875 114.4688 L115.9531 115.1094 Q115.7656 115.625 115.2031 115.9375 Q114.8438 116.1562 114.2031 116.1406 Q113.0469 116.1406 112.3281 115.2344 Q111.5938 114.3281 111.5938 112.8594 Q111.5938 111.4219 112.3281 110.4844 Q113.0156 109.5938 114.4531 109.6094 Q115.4531 109.6094 115.9531 110 Q116.4062 110.3438 116.5781 111.0938 L116.625 111.3125 L116.8438 110.6719 Q117.0625 110.0469 117.6562 109.75 L118.25 109.75 L118.25 110.0938 Q117.6875 110.2656 117.5 110.8125 L116.8906 112.4844 L117.2969 114.2812 Q117.5 115.2031 117.7344 115.2969 Q118.0469 115.4375 118.7812 115 L118.7812 115.7188 Q117.5938 116.4062 116.75 115.6875 Q116.375 115.3594 116.2656 114.875 L116.1875 114.4688 ZM115.9219 113.3125 L115.5625 111.5938 Q115.2656 110.2188 114.4688 110.2188 Q113.7969 110.2031 113.2812 110.9375 Q112.8594 111.5156 112.8594 112.875 Q112.8594 114.1719 113.2812 114.8281 Q113.75 115.5469 114.5312 115.5 Q115.2031 115.4375 115.6875 114 L115.9219 113.3125 Z" style="fill:black; stroke:none;" /></g><g ID="li-1:3,5" style="fill:white; text-rendering:optimizeSpeed; font-family:'Serif'; stroke:white;"><rect height="10" style="stroke:none;" width="6" x="119" y="68" /><path d="M121.1094 77.3906 Q121.1094 77.0625 121.3359 76.8359 Q121.5625 76.6094 121.8906 76.6094 Q122.2188 76.6094 122.4453 76.8359 Q122.6719 77.0625 122.6719 77.3906 Q122.6719 77.7188 122.4453 77.9453 Q122.2188 78.1719 121.8906 78.1719 Q121.5625 78.1719 121.3359 77.9453 Q121.1094 77.7188 121.1094 77.3906 ZM119.8125 69.6406 Q120.4375 69.3594 121 69.2266 Q121.5625 69.0938 122.0469 69.0938 Q123.3438 69.0938 124.1016 69.7188 Q124.8594 70.3438 124.8594 71.4062 Q124.8594 72.5 124.2109 73.1953 Q123.5625 73.8906 122.25 74.1875 L122.25 75.6719 L121.5312 75.6719 L121.5312 73.75 Q122.5625 73.5 123.0938 72.9062 Q123.625 72.3125 123.625 71.4062 Q123.625 70.5938 123.1953 70.1328 Q122.7656 69.6719 122.0312 69.6719 Q121.3594 69.6719 120.9297 70.0547 Q120.5 70.4375 120.3906 71.1562 L119.8125 71.1562 L119.8125 69.6406 Z" style="fill:black; stroke:none;" /><rect height="8" style="stroke:none;" width="8" x="101" y="56" /><path d="M106.1875 62.4688 L105.9531 63.1094 Q105.7656 63.625 105.2031 63.9375 Q104.8438 64.1562 104.2031 64.1406 Q103.0469 64.1406 102.3281 63.2344 Q101.5938 62.3281 101.5938 60.8594 Q101.5938 59.4219 102.3281 58.4844 Q103.0156 57.5938 104.4531 57.6094 Q105.4531 57.6094 105.9531 58 Q106.4062 58.3438 106.5781 59.0938 L106.625 59.3125 L106.8438 58.6719 Q107.0625 58.0469 107.6562 57.75 L108.25 57.75 L108.25 58.0938 Q107.6875 58.2656 107.5 58.8125 L106.8906 60.4844 L107.2969 62.2812 Q107.5 63.2031 107.7344 63.2969 Q108.0469 63.4375 108.7812 63 L108.7812 63.7188 Q107.5938 64.4062 106.75 63.6875 Q106.375 63.3594 106.2656 62.875 L106.1875 62.4688 ZM105.9219 61.3125 L105.5625 59.5938 Q105.2656 58.2188 104.4688 58.2188 Q103.7969 58.2031 103.2812 58.9375 Q102.8594 59.5156 102.8594 60.875 Q102.8594 62.1719 103.2812 62.8281 Q103.75 63.5469 104.5312 63.5 Q105.2031 63.4375 105.6875 62 L105.9219 61.3125 Z" style="fill:black; stroke:none;" /></g><g ID="li-1:2,3" style="fill:white; text-rendering:optimizeSpeed; font-family:'Serif'; stroke:white;"><rect height="9" style="stroke:none;" width="8" x="174" y="83" /><path d="M178.1875 89.0312 L178.1875 84.375 L175.2031 89.0312 L178.1875 89.0312 ZM180.7656 92 L176.7812 92 L176.7812 91.375 L178.1875 91.375 L178.1875 89.6562 L174.375 89.6562 L174.375 89.0156 L178.2031 83.0938 L179.3594 83.0938 L179.3594 89.0312 L181.0312 89.0312 L181.0312 89.6562 L179.3594 89.6562 L179.3594 91.375 L180.7656 91.375 L180.7656 92 Z" style="fill:black; stroke:none;" /><rect height="13" style="stroke:none;" width="7" x="160" y="81" /><path d="M161.8281 93.25 Q162.2969 93.5938 163.1719 93.5938 Q164.0625 93.5938 164.5781 93.0703 Q165.0938 92.5469 165.0938 91.6562 Q165.0938 90.4219 164.5625 89.8906 Q164.0156 89.3594 163 89.3594 L162.4375 89.3594 L162.4375 88.7188 L162.7344 88.7188 Q163.4844 88.7188 164 88.2969 Q164.4219 87.9531 164.4219 87.0156 Q164.4219 86.6094 164.1406 86.1406 Q163.6875 85.375 163.1562 85.3906 Q161.8281 85.4375 161.8281 87.7812 L161.8281 93.25 ZM160.75 96.5 L160.75 87.7812 Q160.75 85.3281 162.0781 85 Q162.7656 84.8125 163.25 84.8125 Q164.3438 84.8125 165.0469 85.6719 Q165.6094 86.3594 165.6094 86.9375 Q165.6094 87.7812 165.2031 88.2656 Q164.7969 88.75 164.0625 88.9844 Q165.1406 89.1406 165.75 89.7812 Q166.3281 90.4062 166.3281 91.6328 Q166.3281 92.8594 165.5078 93.5156 Q164.6875 94.1719 163.1406 94.1719 Q162.1875 94.1719 161.8281 94.0312 L161.8281 96.5 L160.75 96.5 Z" style="fill:black; stroke:none;" /></g><g ID="li-1:1,2" style="fill:white; text-rendering:optimizeSpeed; font-family:'Serif'; stroke:white;"><rect height="9" style="stroke:none;" width="8" x="226" y="83" /><path d="M230.1875 89.0312 L230.1875 84.375 L227.2031 89.0312 L230.1875 89.0312 ZM232.7656 92 L228.7812 92 L228.7812 91.375 L230.1875 91.375 L230.1875 89.6562 L226.375 89.6562 L226.375 89.0156 L230.2031 83.0938 L231.3594 83.0938 L231.3594 89.0312 L233.0312 89.0312 L233.0312 89.6562 L231.3594 89.6562 L231.3594 91.375 L232.7656 91.375 L232.7656 92 Z" style="fill:black; stroke:none;" /><rect height="13" style="stroke:none;" width="7" x="212" y="81" /><path d="M213.8281 93.25 Q214.2969 93.5938 215.1719 93.5938 Q216.0625 93.5938 216.5781 93.0703 Q217.0938 92.5469 217.0938 91.6562 Q217.0938 90.4219 216.5625 89.8906 Q216.0156 89.3594 215 89.3594 L214.4375 89.3594 L214.4375 88.7188 L214.7344 88.7188 Q215.4844 88.7188 216 88.2969 Q216.4219 87.9531 216.4219 87.0156 Q216.4219 86.6094 216.1406 86.1406 Q215.6875 85.375 215.1562 85.3906 Q213.8281 85.4375 213.8281 87.7812 L213.8281 93.25 ZM212.75 96.5 L212.75 87.7812 Q212.75 85.3281 214.0781 85 Q214.7656 84.8125 215.25 84.8125 Q216.3438 84.8125 217.0469 85.6719 Q217.6094 86.3594 217.6094 86.9375 Q217.6094 87.7812 217.2031 88.2656 Q216.7969 88.75 216.0625 88.9844 Q217.1406 89.1406 217.75 89.7812 Q218.3281 90.4062 218.3281 91.6328 Q218.3281 92.8594 217.5078 93.5156 Q216.6875 94.1719 215.1406 94.1719 Q214.1875 94.1719 213.8281 94.0312 L213.8281 96.5 L212.75 96.5 Z" style="fill:black; stroke:none;" /></g></g></svg>