<svg xmlns="http://www.w3.org/2000/svg" style="fill-opacity:1; color-rendering:auto; color-interpolation:auto; text-rendering:auto; stroke:black; stroke-linecap:square; stroke-miterlimit:10; shape-rendering:auto; stroke-opacity:1; fill:black; stroke-dasharray:none; font-weight:normal; stroke-width:1; font-family:'Dialog'; font-style:normal; stroke-linejoin:miter; font-size:12px; stroke-dashoffset:0; image-rendering:auto;"><defs id="genericDefs" /><g><defs id="defs1"><clipPath clipPathUnits="userSpaceOnUse" id="clipPath1"><path d="M446 108 L468 108 L468 130 L446 130 L446 108 Z" /></clipPath><clipPath clipPathUnits="userSpaceOnUse" id="clipPath2"><path d="M394 108 L416 108 L416 130 L394 130 L394 108 Z" /></clipPath><clipPath clipPathUnits="userSpaceOnUse" id="clipPath3"><path d="M364 119 C364 125.0751 359.0751 130 353 130 C346.9249 130 342 125.0751 342 119 C342 112.9249 346.9249 108 353 108 C359.0751 108 364 112.9249 364 119 Z" /></clipPath><clipPath clipPathUnits="userSpaceOnUse" id="clipPath4"><path d="M312 145 C312 151.0751 307.0751 156 301 156 C294.9249 156 290 151.0751 290 145 C290 138.9249 294.9249 134 301 134 C307.0751 134 312 138.9249 312 145 Z" /></clipPath><clipPath clipPathUnits="userSpaceOnUse" id="clipPath5"><path d="M238 134 L260 134 L260 156 L238 156 L238 134 Z" /></clipPath><clipPath clipPathUnits="userSpaceOnUse" id="clipPath6"><path d="M208 145 C208 151.0751 203.0751 156 197 156 C190.9249 156 186 151.0751 186 145 C186 138.9249 190.9249 134 197 134 C203.0751 134 208 138.9249 208 145 Z" /></clipPath><clipPath clipPathUnits="userSpaceOnUse" id="clipPath7"><path d="M134 134 L156 134 L156 156 L134 156 L134 134 Z" /></clipPath><clipPath clipPathUnits="userSpaceOnUse" id="clipPath8"><path d="M104 145 C104 151.0751 99.0751 156 93 156 C86.9249 156 82 151.0751 82 145 C82 138.9249 86.9249 134 93 134 C99.0751 134 104 138.9249 104 145 Z" /></clipPath><clipPath clipPathUnits="userSpaceOnUse" id="clipPath9"><path d="M41 134 L52 145 L41 156 L30 145 Z" style="fill-rule:evenodd;" /></clipPath><clipPath clipPathUnits="userSpaceOnUse" id="clipPath10"><path d="M312 93 C312 99.0751 307.0751 104 301 104 C294.9249 104 290 99.0751 290 93 C290 86.9249 294.9249 82 301 82 C307.0751 82 312 86.9249 312 93 Z" /></clipPath><clipPath clipPathUnits="userSpaceOnUse" id="clipPath11"><path d="M238 82 L260 82 L260 104 L238 104 L238 82 Z" /></clipPath><clipPath clipPathUnits="userSpaceOnUse" id="clipPath12"><path d="M249 52 L238 30 L260 30 Z" style="fill-rule:evenodd;" /></clipPath><clipPath clipPathUnits="userSpaceOnUse" id="clipPath13"><path d="M208 93 C208 99.0751 203.0751 104 197 104 C190.9249 104 186 99.0751 186 93 C186 86.9249 190.9249 82 197 82 C203.0751 82 208 86.9249 208 93 Z" /></clipPath><clipPath clipPathUnits="userSpaceOnUse" id="clipPath14"><path d="M457 78 L446 56 L468 56 Z" style="fill-rule:evenodd;" /></clipPath></defs><g style="fill:white; text-rendering:optimizeSpeed; stroke:white;"><rect height="186" style="stroke:none;" width="498" x="0" y="0" /></g><g ID="l-1:1,2" style="text-rendering:optimizeSpeed;"><polygon points=" 457 119 405 119" style="fill:none;" /></g><g ID="l-1:1,3" style="text-rendering:optimizeSpeed;"><polygon points=" 457 119 457 67" style="fill:none;" /></g><g ID="r-1:1" style="fill:white; text-rendering:optimizeSpeed; stroke:white;" wurcs_mono_id="1"><rect height="22" style="clip-path:url(#clipPath1); stroke:none;" width="22" x="446" y="108" /><rect height="22" style="clip-path:url(#clipPath1); fill:rgb(0,144,188); stroke:none;" width="22" x="446" y="108" /><rect height="22" style="clip-path:url(#clipPath1); fill:none; stroke:black;" width="22" x="446" y="108" /><rect height="22" style="fill:none; stroke:black;" width="22" x="446" y="108" /></g><g style="font-style:italic; text-rendering:optimizeSpeed; font-size:10px; font-family:'SansSerif';"><path d="M458.0938 116.1562 Q457.375 116.1562 456.8359 116.7188 Q456.2969 117.2812 456.0781 118.2656 Q455.875 119.25 456.1719 119.8125 Q456.4688 120.375 457.2031 120.375 Q457.9219 120.375 458.4609 119.8125 Q459 119.25 459.2031 118.2656 Q459.4062 117.2969 459.1094 116.7266 Q458.8125 116.1562 458.0938 116.1562 ZM458.25 115.4062 Q459.4219 115.4062 459.9297 116.1641 Q460.4375 116.9219 460.1562 118.2656 Q459.875 119.6094 459.0391 120.375 Q458.2031 121.1406 457.0312 121.1406 Q455.8594 121.1406 455.3516 120.375 Q454.8438 119.6094 455.125 118.2656 Q455.4062 116.9219 456.2422 116.1641 Q457.0781 115.4062 458.25 115.4062 Z" style="stroke:none;" /></g><g ID="l-1:2,4" style="text-rendering:optimizeSpeed;"><polygon points=" 405 119 353 119" style="fill:none;" /></g><g ID="r-1:2" style="fill:white; text-rendering:optimizeSpeed; stroke:white;" wurcs_mono_id="2"><rect height="22" style="clip-path:url(#clipPath2); stroke:none;" width="22" x="394" y="108" /><rect height="22" style="clip-path:url(#clipPath2); fill:rgb(0,144,188); stroke:none;" width="22" x="394" y="108" /><rect height="22" style="clip-path:url(#clipPath2); fill:none; stroke:black;" width="22" x="394" y="108" /><rect height="22" style="fill:none; stroke:black;" width="22" x="394" y="108" /></g><g ID="l-1:4,5" style="text-rendering:optimizeSpeed;"><polygon points=" 353 119 301 145" style="fill:none;" /></g><g ID="l-1:4,6" style="text-rendering:optimizeSpeed;"><polygon points=" 353 119 301 93" style="fill:none;" /></g><g ID="r-1:4" style="fill:white; text-rendering:optimizeSpeed; stroke:white;" wurcs_mono_id="3"><circle cx="353" cy="119" r="11" style="clip-path:url(#clipPath3); stroke:none;" /><rect height="22" style="clip-path:url(#clipPath3); fill:rgb(0,166,81); stroke:none;" width="22" x="342" y="108" /><rect height="22" style="clip-path:url(#clipPath3); fill:none; stroke:black;" width="22" x="342" y="108" /><circle cx="353" cy="119" r="11" style="fill:none; stroke:black;" /></g><g ID="l-1:5,7" style="text-rendering:optimizeSpeed;"><polygon points=" 301 145 249 145" style="fill:none;" /></g><g ID="r-1:5" style="fill:white; text-rendering:optimizeSpeed; stroke:white;" wurcs_mono_id="4"><circle cx="301" cy="145" r="11" style="clip-path:url(#clipPath4); stroke:none;" /><rect height="22" style="clip-path:url(#clipPath4); fill:rgb(0,166,81); stroke:none;" width="22" x="290" y="134" /><rect height="22" style="clip-path:url(#clipPath4); fill:none; stroke:black;" width="22" x="290" y="134" /><circle cx="301" cy="145" r="11" style="fill:none; stroke:black;" /></g><g ID="l-1:7,8" style="text-rendering:optimizeSpeed;"><polygon points=" 249 145 197 145" style="fill:none;" /></g><g ID="r-1:7" style="fill:white; text-rendering:optimizeSpeed; stroke:white;" wurcs_mono_id="5"><rect height="22" style="clip-path:url(#clipPath5); stroke:none;" width="22" x="238" y="134" /><rect height="22" style="clip-path:url(#clipPath5); fill:rgb(0,144,188); stroke:none;" width="22" x="238" y="134" /><rect height="22" style="clip-path:url(#clipPath5); fill:none; stroke:black;" width="22" x="238" y="134" /><rect height="22" style="fill:none; stroke:black;" width="22" x="238" y="134" /></g><g ID="l-1:8,9" style="text-rendering:optimizeSpeed;"><polygon points=" 197 145 145 145" style="fill:none;" /></g><g ID="r-1:8" style="fill:white; text-rendering:optimizeSpeed; stroke:white;" wurcs_mono_id="6"><circle cx="197" cy="145" r="11" style="clip-path:url(#clipPath6); stroke:none;" /><rect height="22" style="clip-path:url(#clipPath6); fill:rgb(255,212,0); stroke:none;" width="22" x="186" y="134" /><rect height="22" style="clip-path:url(#clipPath6); fill:none; stroke:black;" width="22" x="186" y="134" /><circle cx="197" cy="145" r="11" style="fill:none; stroke:black;" /></g><g ID="l-1:9,10" style="text-rendering:optimizeSpeed;"><polygon points=" 145 145 93 145" style="fill:none;" /></g><g ID="r-1:9" style="fill:white; text-rendering:optimizeSpeed; stroke:white;" wurcs_mono_id="7"><rect height="22" style="clip-path:url(#clipPath7); stroke:none;" width="22" x="134" y="134" /><rect height="22" style="clip-path:url(#clipPath7); fill:rgb(0,144,188); stroke:none;" width="22" x="134" y="134" /><rect height="22" style="clip-path:url(#clipPath7); fill:none; stroke:black;" width="22" x="134" y="134" /><rect height="22" style="fill:none; stroke:black;" width="22" x="134" y="134" /></g><g ID="l-1:10,11" style="text-rendering:optimizeSpeed;"><polygon points=" 93 145 41 145" style="fill:none;" /></g><g ID="r-1:10" style="fill:white; text-rendering:optimizeSpeed; stroke:white;" wurcs_mono_id="8"><circle cx="93" cy="145" r="11" style="clip-path:url(#clipPath8); stroke:none;" /><rect height="22" style="clip-path:url(#clipPath8); fill:rgb(255,212,0); stroke:none;" width="22" x="82" y="134" /><rect height="22" style="clip-path:url(#clipPath8); fill:none; stroke:black;" width="22" x="82" y="134" /><circle cx="93" cy="145" r="11" style="fill:none; stroke:black;" /></g><g ID="r-1:11" style="fill:white; text-rendering:optimizeSpeed; stroke:white;" wurcs_mono_id="9"><polygon points=" 41 134 52 145 41 156 30 145" style="stroke:none; clip-path:url(#clipPath9);" /><rect height="22" style="clip-path:url(#clipPath9); fill:rgb(165,67,153); stroke:none;" width="22" x="30" y="134" /><rect height="22" style="clip-path:url(#clipPath9); fill:none; stroke:black;" width="22" x="30" y="134" /><polygon points=" 41 134 52 145 41 156 30 145" style="fill:none; stroke:black;" /></g><g ID="li-1:10,11" style="fill:white; text-rendering:optimizeSpeed; font-family:'Serif'; stroke:white;"><rect height="10" style="stroke:none;" width="7" x="70" y="148" /><path d="M73.9219 157.5938 Q74.75 157.5938 75.1953 156.9844 Q75.6406 156.375 75.6406 155.2344 Q75.6406 154.1094 75.1953 153.5 Q74.75 152.8906 73.9219 152.8906 Q73.0938 152.8906 72.6484 153.4766 Q72.2031 154.0625 72.2031 155.1719 Q72.2031 156.3281 72.6484 156.9609 Q73.0938 157.5938 73.9219 157.5938 ZM72.0156 153.1875 Q72.4219 152.75 72.9219 152.5312 Q73.4219 152.3125 74.0625 152.3125 Q75.3594 152.3125 76.1172 153.0938 Q76.875 153.875 76.875 155.2344 Q76.875 156.5625 76.0625 157.3672 Q75.25 158.1719 73.875 158.1719 Q72.3906 158.1719 71.5938 157.0625 Q70.7969 155.9531 70.7969 153.9062 Q70.7969 151.6094 71.7422 150.3516 Q72.6875 149.0938 74.4062 149.0938 Q74.875 149.0938 75.3828 149.1797 Q75.8906 149.2656 76.4219 149.4375 L76.4219 150.8906 L75.7656 150.8906 Q75.6875 150.2969 75.3047 149.9844 Q74.9219 149.6719 74.2812 149.6719 Q73.1406 149.6719 72.5859 150.5312 Q72.0312 151.3906 72.0156 153.1875 Z" style="fill:black; stroke:none;" /><rect height="8" style="stroke:none;" width="8" x="56" y="149" /><path d="M61.1875 155.4688 L60.9531 156.1094 Q60.7656 156.625 60.2031 156.9375 Q59.8438 157.1562 59.2031 157.1406 Q58.0469 157.1406 57.3281 156.2344 Q56.5938 155.3281 56.5938 153.8594 Q56.5938 152.4219 57.3281 151.4844 Q58.0156 150.5938 59.4531 150.6094 Q60.4531 150.6094 60.9531 151 Q61.4062 151.3438 61.5781 152.0938 L61.625 152.3125 L61.8438 151.6719 Q62.0625 151.0469 62.6562 150.75 L63.25 150.75 L63.25 151.0938 Q62.6875 151.2656 62.5 151.8125 L61.8906 153.4844 L62.2969 155.2812 Q62.5 156.2031 62.7344 156.2969 Q63.0469 156.4375 63.7812 156 L63.7812 156.7188 Q62.5938 157.4062 61.75 156.6875 Q61.375 156.3594 61.2656 155.875 L61.1875 155.4688 ZM60.9219 154.3125 L60.5625 152.5938 Q60.2656 151.2188 59.4688 151.2188 Q58.7969 151.2031 58.2812 151.9375 Q57.8594 152.5156 57.8594 153.875 Q57.8594 155.1719 58.2812 155.8281 Q58.75 156.5469 59.5312 156.5 Q60.2031 156.4375 60.6875 155 L60.9219 154.3125 Z" style="fill:black; stroke:none;" /></g><g ID="li-1:9,10" style="fill:white; text-rendering:optimizeSpeed; font-family:'Serif'; stroke:white;"><rect height="9" style="stroke:none;" width="8" x="122" y="148" /><path d="M126.1875 154.0312 L126.1875 149.375 L123.2031 154.0312 L126.1875 154.0312 ZM128.7656 157 L124.7812 157 L124.7812 156.375 L126.1875 156.375 L126.1875 154.6562 L122.375 154.6562 L122.375 154.0156 L126.2031 148.0938 L127.3594 148.0938 L127.3594 154.0312 L129.0312 154.0312 L129.0312 154.6562 L127.3594 154.6562 L127.3594 156.375 L128.7656 156.375 L128.7656 157 Z" style="fill:black; stroke:none;" /><rect height="13" style="stroke:none;" width="7" x="108" y="146" /><path d="M109.8281 158.25 Q110.2969 158.5938 111.1719 158.5938 Q112.0625 158.5938 112.5781 158.0703 Q113.0938 157.5469 113.0938 156.6562 Q113.0938 155.4219 112.5625 154.8906 Q112.0156 154.3594 111 154.3594 L110.4375 154.3594 L110.4375 153.7188 L110.7344 153.7188 Q111.4844 153.7188 112 153.2969 Q112.4219 152.9531 112.4219 152.0156 Q112.4219 151.6094 112.1406 151.1406 Q111.6875 150.375 111.1562 150.3906 Q109.8281 150.4375 109.8281 152.7812 L109.8281 158.25 ZM108.75 161.5 L108.75 152.7812 Q108.75 150.3281 110.0781 150 Q110.7656 149.8125 111.25 149.8125 Q112.3438 149.8125 113.0469 150.6719 Q113.6094 151.3594 113.6094 151.9375 Q113.6094 152.7812 113.2031 153.2656 Q112.7969 153.75 112.0625 153.9844 Q113.1406 154.1406 113.75 154.7812 Q114.3281 155.4062 114.3281 156.6328 Q114.3281 157.8594 113.5078 158.5156 Q112.6875 159.1719 111.1406 159.1719 Q110.1875 159.1719 109.8281 159.0312 L109.8281 161.5 L108.75 161.5 Z" style="fill:black; stroke:none;" /></g><g ID="li-1:8,9" style="fill:white; text-rendering:optimizeSpeed; font-family:'Serif'; stroke:white;"><rect height="9" style="stroke:none;" width="7" x="174" y="148" /><path d="M175.5312 150.3438 L174.875 150.3438 L174.875 148.7812 Q175.5 148.4375 176.1406 148.2656 Q176.7812 148.0938 177.3906 148.0938 Q178.75 148.0938 179.5391 148.7578 Q180.3281 149.4219 180.3281 150.5469 Q180.3281 151.8438 178.5469 153.625 Q178.4062 153.7656 178.3281 153.8281 L176.125 156.0312 L179.7656 156.0312 L179.7656 154.9531 L180.4531 154.9531 L180.4531 157 L174.8125 157 L174.8125 156.3594 L177.4688 153.7188 Q178.3438 152.8281 178.7188 152.0938 Q179.0938 151.3594 179.0938 150.5469 Q179.0938 149.6719 178.6328 149.1719 Q178.1719 148.6719 177.375 148.6719 Q176.5312 148.6719 176.0781 149.0859 Q175.625 149.5 175.5312 150.3438 Z" style="fill:black; stroke:none;" /><rect height="13" style="stroke:none;" width="7" x="160" y="146" /><path d="M161.8281 158.25 Q162.2969 158.5938 163.1719 158.5938 Q164.0625 158.5938 164.5781 158.0703 Q165.0938 157.5469 165.0938 156.6562 Q165.0938 155.4219 164.5625 154.8906 Q164.0156 154.3594 163 154.3594 L162.4375 154.3594 L162.4375 153.7188 L162.7344 153.7188 Q163.4844 153.7188 164 153.2969 Q164.4219 152.9531 164.4219 152.0156 Q164.4219 151.6094 164.1406 151.1406 Q163.6875 150.375 163.1562 150.3906 Q161.8281 150.4375 161.8281 152.7812 L161.8281 158.25 ZM160.75 161.5 L160.75 152.7812 Q160.75 150.3281 162.0781 150 Q162.7656 149.8125 163.25 149.8125 Q164.3438 149.8125 165.0469 150.6719 Q165.6094 151.3594 165.6094 151.9375 Q165.6094 152.7812 165.2031 153.2656 Q164.7969 153.75 164.0625 153.9844 Q165.1406 154.1406 165.75 154.7812 Q166.3281 155.4062 166.3281 156.6328 Q166.3281 157.8594 165.5078 158.5156 Q164.6875 159.1719 163.1406 159.1719 Q162.1875 159.1719 161.8281 159.0312 L161.8281 161.5 L160.75 161.5 Z" style="fill:black; stroke:none;" /></g><g ID="li-1:7,8" style="fill:white; text-rendering:optimizeSpeed; font-family:'Serif'; stroke:white;"><rect height="9" style="stroke:none;" width="8" x="226" y="148" /><path d="M230.1875 154.0312 L230.1875 149.375 L227.2031 154.0312 L230.1875 154.0312 ZM232.7656 157 L228.7812 157 L228.7812 156.375 L230.1875 156.375 L230.1875 154.6562 L226.375 154.6562 L226.375 154.0156 L230.2031 148.0938 L231.3594 148.0938 L231.3594 154.0312 L233.0312 154.0312 L233.0312 154.6562 L231.3594 154.6562 L231.3594 156.375 L232.7656 156.375 L232.7656 157 Z" style="fill:black; stroke:none;" /><rect height="13" style="stroke:none;" width="7" x="212" y="146" /><path d="M213.8281 158.25 Q214.2969 158.5938 215.1719 158.5938 Q216.0625 158.5938 216.5781 158.0703 Q217.0938 157.5469 217.0938 156.6562 Q217.0938 155.4219 216.5625 154.8906 Q216.0156 154.3594 215 154.3594 L214.4375 154.3594 L214.4375 153.7188 L214.7344 153.7188 Q215.4844 153.7188 216 153.2969 Q216.4219 152.9531 216.4219 152.0156 Q216.4219 151.6094 216.1406 151.1406 Q215.6875 150.375 215.1562 150.3906 Q213.8281 150.4375 213.8281 152.7812 L213.8281 158.25 ZM212.75 161.5 L212.75 152.7812 Q212.75 150.3281 214.0781 150 Q214.7656 149.8125 215.25 149.8125 Q216.3438 149.8125 217.0469 150.6719 Q217.6094 151.3594 217.6094 151.9375 Q217.6094 152.7812 217.2031 153.2656 Q216.7969 153.75 216.0625 153.9844 Q217.1406 154.1406 217.75 154.7812 Q218.3281 155.4062 218.3281 156.6328 Q218.3281 157.8594 217.5078 158.5156 Q216.6875 159.1719 215.1406 159.1719 Q214.1875 159.1719 213.8281 159.0312 L213.8281 161.5 L212.75 161.5 Z" style="fill:black; stroke:none;" /></g><g ID="li-1:5,7" style="fill:white; text-rendering:optimizeSpeed; font-family:'Serif'; stroke:white;"><rect height="9" style="stroke:none;" width="7" x="278" y="148" /><path d="M279.5312 150.3438 L278.875 150.3438 L278.875 148.7812 Q279.5 148.4375 280.1406 148.2656 Q280.7812 148.0938 281.3906 148.0938 Q282.75 148.0938 283.5391 148.7578 Q284.3281 149.4219 284.3281 150.5469 Q284.3281 151.8438 282.5469 153.625 Q282.4062 153.7656 282.3281 153.8281 L280.125 156.0312 L283.7656 156.0312 L283.7656 154.9531 L284.4531 154.9531 L284.4531 157 L278.8125 157 L278.8125 156.3594 L281.4688 153.7188 Q282.3438 152.8281 282.7188 152.0938 Q283.0938 151.3594 283.0938 150.5469 Q283.0938 149.6719 282.6328 149.1719 Q282.1719 148.6719 281.375 148.6719 Q280.5312 148.6719 280.0781 149.0859 Q279.625 149.5 279.5312 150.3438 Z" style="fill:black; stroke:none;" /><rect height="13" style="stroke:none;" width="7" x="264" y="146" /><path d="M265.8281 158.25 Q266.2969 158.5938 267.1719 158.5938 Q268.0625 158.5938 268.5781 158.0703 Q269.0938 157.5469 269.0938 156.6562 Q269.0938 155.4219 268.5625 154.8906 Q268.0156 154.3594 267 154.3594 L266.4375 154.3594 L266.4375 153.7188 L266.7344 153.7188 Q267.4844 153.7188 268 153.2969 Q268.4219 152.9531 268.4219 152.0156 Q268.4219 151.6094 268.1406 151.1406 Q267.6875 150.375 267.1562 150.3906 Q265.8281 150.4375 265.8281 152.7812 L265.8281 158.25 ZM264.75 161.5 L264.75 152.7812 Q264.75 150.3281 266.0781 150 Q266.7656 149.8125 267.25 149.8125 Q268.3438 149.8125 269.0469 150.6719 Q269.6094 151.3594 269.6094 151.9375 Q269.6094 152.7812 269.2031 153.2656 Q268.7969 153.75 268.0625 153.9844 Q269.1406 154.1406 269.75 154.7812 Q270.3281 155.4062 270.3281 156.6328 Q270.3281 157.8594 269.5078 158.5156 Q268.6875 159.1719 267.1406 159.1719 Q266.1875 159.1719 265.8281 159.0312 L265.8281 161.5 L264.75 161.5 Z" style="fill:black; stroke:none;" /></g><g ID="l-1:6,12" style="text-rendering:optimizeSpeed;"><polygon points=" 301 93 249 93" style="fill:none;" /></g><g ID="r-1:6" style="fill:white; text-rendering:optimizeSpeed; stroke:white;" wurcs_mono_id="10"><circle cx="301" cy="93" r="11" style="clip-path:url(#clipPath10); stroke:none;" /><rect height="22" style="clip-path:url(#clipPath10); fill:rgb(0,166,81); stroke:none;" width="22" x="290" y="82" /><rect height="22" style="clip-path:url(#clipPath10); fill:none; stroke:black;" width="22" x="290" y="82" /><circle cx="301" cy="93" r="11" style="fill:none; stroke:black;" /></g><g ID="l-1:12,13" style="text-rendering:optimizeSpeed;"><polygon points=" 249 93 249 41" style="fill:none;" /></g><g ID="l-1:12,14" style="text-rendering:optimizeSpeed;"><polygon points=" 249 93 197 93" style="fill:none;" /></g><g ID="r-1:12" style="fill:white; text-rendering:optimizeSpeed; stroke:white;" wurcs_mono_id="11"><rect height="22" style="clip-path:url(#clipPath11); stroke:none;" width="22" x="238" y="82" /><rect height="22" style="clip-path:url(#clipPath11); fill:rgb(0,144,188); stroke:none;" width="22" x="238" y="82" /><rect height="22" style="clip-path:url(#clipPath11); fill:none; stroke:black;" width="22" x="238" y="82" /><rect height="22" style="fill:none; stroke:black;" width="22" x="238" y="82" /></g><g ID="r-1:13" style="fill:white; text-rendering:optimizeSpeed; stroke:white;" wurcs_mono_id="12"><polygon points=" 249 52 238 30 260 30" style="stroke:none; clip-path:url(#clipPath12);" /><rect height="22" style="clip-path:url(#clipPath12); fill:rgb(237,28,36); stroke:none;" width="22" x="238" y="30" /><rect height="22" style="clip-path:url(#clipPath12); fill:none; stroke:black;" width="22" x="238" y="30" /><polygon points=" 249 52 238 30 260 30" style="fill:none; stroke:black;" /></g><g ID="r-1:14" style="fill:white; text-rendering:optimizeSpeed; stroke:white;" wurcs_mono_id="13"><circle cx="197" cy="93" r="11" style="clip-path:url(#clipPath13); stroke:none;" /><rect height="22" style="clip-path:url(#clipPath13); fill:rgb(255,212,0); stroke:none;" width="22" x="186" y="82" /><rect height="22" style="clip-path:url(#clipPath13); fill:none; stroke:black;" width="22" x="186" y="82" /><circle cx="197" cy="93" r="11" style="fill:none; stroke:black;" /></g><g ID="li-1:12,13" style="fill:white; text-rendering:optimizeSpeed; font-family:'Serif'; stroke:white;"><rect height="10" style="stroke:none;" width="6" x="238" y="69" /><path d="M240.1094 78.3906 Q240.1094 78.0625 240.3359 77.8359 Q240.5625 77.6094 240.8906 77.6094 Q241.2188 77.6094 241.4453 77.8359 Q241.6719 78.0625 241.6719 78.3906 Q241.6719 78.7188 241.4453 78.9453 Q241.2188 79.1719 240.8906 79.1719 Q240.5625 79.1719 240.3359 78.9453 Q240.1094 78.7188 240.1094 78.3906 ZM238.8125 70.6406 Q239.4375 70.3594 240 70.2266 Q240.5625 70.0938 241.0469 70.0938 Q242.3438 70.0938 243.1016 70.7188 Q243.8594 71.3438 243.8594 72.4062 Q243.8594 73.5 243.2109 74.1953 Q242.5625 74.8906 241.25 75.1875 L241.25 76.6719 L240.5312 76.6719 L240.5312 74.75 Q241.5625 74.5 242.0938 73.9062 Q242.625 73.3125 242.625 72.4062 Q242.625 71.5938 242.1953 71.1328 Q241.7656 70.6719 241.0312 70.6719 Q240.3594 70.6719 239.9297 71.0547 Q239.5 71.4375 239.3906 72.1562 L238.8125 72.1562 L238.8125 70.6406 Z" style="fill:black; stroke:none;" /><rect height="8" style="stroke:none;" width="8" x="237" y="56" /><path d="M242.1875 62.4688 L241.9531 63.1094 Q241.7656 63.625 241.2031 63.9375 Q240.8438 64.1562 240.2031 64.1406 Q239.0469 64.1406 238.3281 63.2344 Q237.5938 62.3281 237.5938 60.8594 Q237.5938 59.4219 238.3281 58.4844 Q239.0156 57.5938 240.4531 57.6094 Q241.4531 57.6094 241.9531 58 Q242.4062 58.3438 242.5781 59.0938 L242.625 59.3125 L242.8438 58.6719 Q243.0625 58.0469 243.6562 57.75 L244.25 57.75 L244.25 58.0938 Q243.6875 58.2656 243.5 58.8125 L242.8906 60.4844 L243.2969 62.2812 Q243.5 63.2031 243.7344 63.2969 Q244.0469 63.4375 244.7812 63 L244.7812 63.7188 Q243.5938 64.4062 242.75 63.6875 Q242.375 63.3594 242.2656 62.875 L242.1875 62.4688 ZM241.9219 61.3125 L241.5625 59.5938 Q241.2656 58.2188 240.4688 58.2188 Q239.7969 58.2031 239.2812 58.9375 Q238.8594 59.5156 238.8594 60.875 Q238.8594 62.1719 239.2812 62.8281 Q239.75 63.5469 240.5312 63.5 Q241.2031 63.4375 241.6875 62 L241.9219 61.3125 Z" style="fill:black; stroke:none;" /></g><g ID="li-1:12,14" style="fill:white; text-rendering:optimizeSpeed; font-family:'Serif'; stroke:white;"><rect height="9" style="stroke:none;" width="8" x="226" y="96" /><path d="M230.1875 102.0312 L230.1875 97.375 L227.2031 102.0312 L230.1875 102.0312 ZM232.7656 105 L228.7812 105 L228.7812 104.375 L230.1875 104.375 L230.1875 102.6562 L226.375 102.6562 L226.375 102.0156 L230.2031 96.0938 L231.3594 96.0938 L231.3594 102.0312 L233.0312 102.0312 L233.0312 102.6562 L231.3594 102.6562 L231.3594 104.375 L232.7656 104.375 L232.7656 105 Z" style="fill:black; stroke:none;" /><rect height="13" style="stroke:none;" width="7" x="212" y="94" /><path d="M213.8281 106.25 Q214.2969 106.5938 215.1719 106.5938 Q216.0625 106.5938 216.5781 106.0703 Q217.0938 105.5469 217.0938 104.6562 Q217.0938 103.4219 216.5625 102.8906 Q216.0156 102.3594 215 102.3594 L214.4375 102.3594 L214.4375 101.7188 L214.7344 101.7188 Q215.4844 101.7188 216 101.2969 Q216.4219 100.9531 216.4219 100.0156 Q216.4219 99.6094 216.1406 99.1406 Q215.6875 98.375 215.1562 98.3906 Q213.8281 98.4375 213.8281 100.7812 L213.8281 106.25 ZM212.75 109.5 L212.75 100.7812 Q212.75 98.3281 214.0781 98 Q214.7656 97.8125 215.25 97.8125 Q216.3438 97.8125 217.0469 98.6719 Q217.6094 99.3594 217.6094 99.9375 Q217.6094 100.7812 217.2031 101.2656 Q216.7969 101.75 216.0625 101.9844 Q217.1406 102.1406 217.75 102.7812 Q218.3281 103.4062 218.3281 104.6328 Q218.3281 105.8594 217.5078 106.5156 Q216.6875 107.1719 215.1406 107.1719 Q214.1875 107.1719 213.8281 107.0312 L213.8281 109.5 L212.75 109.5 Z" style="fill:black; stroke:none;" /></g><g ID="li-1:6,12" style="fill:white; text-rendering:optimizeSpeed; font-family:'Serif'; stroke:white;"><rect height="9" style="stroke:none;" width="7" x="278" y="96" /><path d="M279.5312 98.3438 L278.875 98.3438 L278.875 96.7812 Q279.5 96.4375 280.1406 96.2656 Q280.7812 96.0938 281.3906 96.0938 Q282.75 96.0938 283.5391 96.7578 Q284.3281 97.4219 284.3281 98.5469 Q284.3281 99.8438 282.5469 101.625 Q282.4062 101.7656 282.3281 101.8281 L280.125 104.0312 L283.7656 104.0312 L283.7656 102.9531 L284.4531 102.9531 L284.4531 105 L278.8125 105 L278.8125 104.3594 L281.4688 101.7188 Q282.3438 100.8281 282.7188 100.0938 Q283.0938 99.3594 283.0938 98.5469 Q283.0938 97.6719 282.6328 97.1719 Q282.1719 96.6719 281.375 96.6719 Q280.5312 96.6719 280.0781 97.0859 Q279.625 97.5 279.5312 98.3438 Z" style="fill:black; stroke:none;" /><rect height="13" style="stroke:none;" width="7" x="264" y="94" /><path d="M265.8281 106.25 Q266.2969 106.5938 267.1719 106.5938 Q268.0625 106.5938 268.5781 106.0703 Q269.0938 105.5469 269.0938 104.6562 Q269.0938 103.4219 268.5625 102.8906 Q268.0156 102.3594 267 102.3594 L266.4375 102.3594 L266.4375 101.7188 L266.7344 101.7188 Q267.4844 101.7188 268 101.2969 Q268.4219 100.9531 268.4219 100.0156 Q268.4219 99.6094 268.1406 99.1406 Q267.6875 98.375 267.1562 98.3906 Q265.8281 98.4375 265.8281 100.7812 L265.8281 106.25 ZM264.75 109.5 L264.75 100.7812 Q264.75 98.3281 266.0781 98 Q266.7656 97.8125 267.25 97.8125 Q268.3438 97.8125 269.0469 98.6719 Q269.6094 99.3594 269.6094 99.9375 Q269.6094 100.7812 269.2031 101.2656 Q268.7969 101.75 268.0625 101.9844 Q269.1406 102.1406 269.75 102.7812 Q270.3281 103.4062 270.3281 104.6328 Q270.3281 105.8594 269.5078 106.5156 Q268.6875 107.1719 267.1406 107.1719 Q266.1875 107.1719 265.8281 107.0312 L265.8281 109.5 L264.75 109.5 Z" style="fill:black; stroke:none;" /></g><g ID="li-1:4,5" style="fill:white; text-rendering:optimizeSpeed; font-family:'Serif'; stroke:white;"><rect height="10" style="stroke:none;" width="7" x="334" y="130" /><path d="M335.1719 131.625 Q335.8594 131.3594 336.4844 131.2266 Q337.1094 131.0938 337.6562 131.0938 Q338.9531 131.0938 339.6719 131.6484 Q340.3906 132.2031 340.3906 133.1875 Q340.3906 133.9688 339.8906 134.5 Q339.3906 135.0312 338.4844 135.2188 Q339.5625 135.375 340.1562 136.0078 Q340.75 136.6406 340.75 137.6406 Q340.75 138.8594 339.9219 139.5156 Q339.0938 140.1719 337.5469 140.1719 Q336.8594 140.1719 336.2109 140.0234 Q335.5625 139.875 334.9219 139.5781 L334.9219 137.875 L335.5781 137.875 Q335.625 138.7188 336.1406 139.1562 Q336.6562 139.5938 337.5781 139.5938 Q338.4688 139.5938 338.9922 139.0703 Q339.5156 138.5469 339.5156 137.6562 Q339.5156 136.625 338.9766 136.0938 Q338.4375 135.5625 337.4062 135.5625 L336.8594 135.5625 L336.8594 134.9531 L337.1406 134.9531 Q338.1719 134.9531 338.6875 134.5312 Q339.2031 134.1094 339.2031 133.25 Q339.2031 132.4844 338.7812 132.0781 Q338.3594 131.6719 337.5625 131.6719 Q336.7656 131.6719 336.3359 132.0469 Q335.9062 132.4219 335.8281 133.1562 L335.1719 133.1562 L335.1719 131.625 Z" style="fill:black; stroke:none;" /><rect height="8" style="stroke:none;" width="8" x="318" y="139" /><path d="M323.1875 145.4688 L322.9531 146.1094 Q322.7656 146.625 322.2031 146.9375 Q321.8438 147.1562 321.2031 147.1406 Q320.0469 147.1406 319.3281 146.2344 Q318.5938 145.3281 318.5938 143.8594 Q318.5938 142.4219 319.3281 141.4844 Q320.0156 140.5938 321.4531 140.6094 Q322.4531 140.6094 322.9531 141 Q323.4062 141.3438 323.5781 142.0938 L323.625 142.3125 L323.8438 141.6719 Q324.0625 141.0469 324.6562 140.75 L325.25 140.75 L325.25 141.0938 Q324.6875 141.2656 324.5 141.8125 L323.8906 143.4844 L324.2969 145.2812 Q324.5 146.2031 324.7344 146.2969 Q325.0469 146.4375 325.7812 146 L325.7812 146.7188 Q324.5938 147.4062 323.75 146.6875 Q323.375 146.3594 323.2656 145.875 L323.1875 145.4688 ZM322.9219 144.3125 L322.5625 142.5938 Q322.2656 141.2188 321.4688 141.2188 Q320.7969 141.2031 320.2812 141.9375 Q319.8594 142.5156 319.8594 143.875 Q319.8594 145.1719 320.2812 145.8281 Q320.75 146.5469 321.5312 146.5 Q322.2031 146.4375 322.6875 145 L322.9219 144.3125 Z" style="fill:black; stroke:none;" /></g><g ID="li-1:4,6" style="fill:white; text-rendering:optimizeSpeed; font-family:'Serif'; stroke:white;"><rect height="10" style="stroke:none;" width="7" x="327" y="112" /><path d="M330.9219 121.5938 Q331.75 121.5938 332.1953 120.9844 Q332.6406 120.375 332.6406 119.2344 Q332.6406 118.1094 332.1953 117.5 Q331.75 116.8906 330.9219 116.8906 Q330.0938 116.8906 329.6484 117.4766 Q329.2031 118.0625 329.2031 119.1719 Q329.2031 120.3281 329.6484 120.9609 Q330.0938 121.5938 330.9219 121.5938 ZM329.0156 117.1875 Q329.4219 116.75 329.9219 116.5312 Q330.4219 116.3125 331.0625 116.3125 Q332.3594 116.3125 333.1172 117.0938 Q333.875 117.875 333.875 119.2344 Q333.875 120.5625 333.0625 121.3672 Q332.25 122.1719 330.875 122.1719 Q329.3906 122.1719 328.5938 121.0625 Q327.7969 119.9531 327.7969 117.9062 Q327.7969 115.6094 328.7422 114.3516 Q329.6875 113.0938 331.4062 113.0938 Q331.875 113.0938 332.3828 113.1797 Q332.8906 113.2656 333.4219 113.4375 L333.4219 114.8906 L332.7656 114.8906 Q332.6875 114.2969 332.3047 113.9844 Q331.9219 113.6719 331.2812 113.6719 Q330.1406 113.6719 329.5859 114.5312 Q329.0312 115.3906 329.0156 117.1875 Z" style="fill:black; stroke:none;" /><rect height="8" style="stroke:none;" width="8" x="311" y="105" /><path d="M316.1875 111.4688 L315.9531 112.1094 Q315.7656 112.625 315.2031 112.9375 Q314.8438 113.1562 314.2031 113.1406 Q313.0469 113.1406 312.3281 112.2344 Q311.5938 111.3281 311.5938 109.8594 Q311.5938 108.4219 312.3281 107.4844 Q313.0156 106.5938 314.4531 106.6094 Q315.4531 106.6094 315.9531 107 Q316.4062 107.3438 316.5781 108.0938 L316.625 108.3125 L316.8438 107.6719 Q317.0625 107.0469 317.6562 106.75 L318.25 106.75 L318.25 107.0938 Q317.6875 107.2656 317.5 107.8125 L316.8906 109.4844 L317.2969 111.2812 Q317.5 112.2031 317.7344 112.2969 Q318.0469 112.4375 318.7812 112 L318.7812 112.7188 Q317.5938 113.4062 316.75 112.6875 Q316.375 112.3594 316.2656 111.875 L316.1875 111.4688 ZM315.9219 110.3125 L315.5625 108.5938 Q315.2656 107.2188 314.4688 107.2188 Q313.7969 107.2031 313.2812 107.9375 Q312.8594 108.5156 312.8594 109.875 Q312.8594 111.1719 313.2812 111.8281 Q313.75 112.5469 314.5312 112.5 Q315.2031 112.4375 315.6875 111 L315.9219 110.3125 Z" style="fill:black; stroke:none;" /></g><g ID="li-1:2,4" style="fill:white; text-rendering:optimizeSpeed; font-family:'Serif'; stroke:white;"><rect height="9" style="stroke:none;" width="8" x="382" y="122" /><path d="M386.1875 128.0312 L386.1875 123.375 L383.2031 128.0312 L386.1875 128.0312 ZM388.7656 131 L384.7812 131 L384.7812 130.375 L386.1875 130.375 L386.1875 128.6562 L382.375 128.6562 L382.375 128.0156 L386.2031 122.0938 L387.3594 122.0938 L387.3594 128.0312 L389.0312 128.0312 L389.0312 128.6562 L387.3594 128.6562 L387.3594 130.375 L388.7656 130.375 L388.7656 131 Z" style="fill:black; stroke:none;" /><rect height="13" style="stroke:none;" width="7" x="368" y="120" /><path d="M369.8281 132.25 Q370.2969 132.5938 371.1719 132.5938 Q372.0625 132.5938 372.5781 132.0703 Q373.0938 131.5469 373.0938 130.6562 Q373.0938 129.4219 372.5625 128.8906 Q372.0156 128.3594 371 128.3594 L370.4375 128.3594 L370.4375 127.7188 L370.7344 127.7188 Q371.4844 127.7188 372 127.2969 Q372.4219 126.9531 372.4219 126.0156 Q372.4219 125.6094 372.1406 125.1406 Q371.6875 124.375 371.1562 124.3906 Q369.8281 124.4375 369.8281 126.7812 L369.8281 132.25 ZM368.75 135.5 L368.75 126.7812 Q368.75 124.3281 370.0781 124 Q370.7656 123.8125 371.25 123.8125 Q372.3438 123.8125 373.0469 124.6719 Q373.6094 125.3594 373.6094 125.9375 Q373.6094 126.7812 373.2031 127.2656 Q372.7969 127.75 372.0625 127.9844 Q373.1406 128.1406 373.75 128.7812 Q374.3281 129.4062 374.3281 130.6328 Q374.3281 131.8594 373.5078 132.5156 Q372.6875 133.1719 371.1406 133.1719 Q370.1875 133.1719 369.8281 133.0312 L369.8281 135.5 L368.75 135.5 Z" style="fill:black; stroke:none;" /></g><g ID="r-1:3" style="fill:white; text-rendering:optimizeSpeed; stroke:white;" wurcs_mono_id="14"><polygon points=" 457 78 446 56 468 56" style="stroke:none; clip-path:url(#clipPath14);" /><rect height="22" style="clip-path:url(#clipPath14); fill:rgb(237,28,36); stroke:none;" width="22" x="446" y="56" /><rect height="22" style="clip-path:url(#clipPath14); fill:none; stroke:black;" width="22" x="446" y="56" /><polygon points=" 457 78 446 56 468 56" style="fill:none; stroke:black;" /></g><g ID="li-1:1,2" style="fill:white; text-rendering:optimizeSpeed; font-family:'Serif'; stroke:white;"><rect height="9" style="stroke:none;" width="8" x="434" y="122" /><path d="M438.1875 128.0312 L438.1875 123.375 L435.2031 128.0312 L438.1875 128.0312 ZM440.7656 131 L436.7812 131 L436.7812 130.375 L438.1875 130.375 L438.1875 128.6562 L434.375 128.6562 L434.375 128.0156 L438.2031 122.0938 L439.3594 122.0938 L439.3594 128.0312 L441.0312 128.0312 L441.0312 128.6562 L439.3594 128.6562 L439.3594 130.375 L440.7656 130.375 L440.7656 131 Z" style="fill:black; stroke:none;" /><rect height="13" style="stroke:none;" width="7" x="420" y="120" /><path d="M421.8281 132.25 Q422.2969 132.5938 423.1719 132.5938 Q424.0625 132.5938 424.5781 132.0703 Q425.0938 131.5469 425.0938 130.6562 Q425.0938 129.4219 424.5625 128.8906 Q424.0156 128.3594 423 128.3594 L422.4375 128.3594 L422.4375 127.7188 L422.7344 127.7188 Q423.4844 127.7188 424 127.2969 Q424.4219 126.9531 424.4219 126.0156 Q424.4219 125.6094 424.1406 125.1406 Q423.6875 124.375 423.1562 124.3906 Q421.8281 124.4375 421.8281 126.7812 L421.8281 132.25 ZM420.75 135.5 L420.75 126.7812 Q420.75 124.3281 422.0781 124 Q422.7656 123.8125 423.25 123.8125 Q424.3438 123.8125 425.0469 124.6719 Q425.6094 125.3594 425.6094 125.9375 Q425.6094 126.7812 425.2031 127.2656 Q424.7969 127.75 424.0625 127.9844 Q425.1406 128.1406 425.75 128.7812 Q426.3281 129.4062 426.3281 130.6328 Q426.3281 131.8594 425.5078 132.5156 Q424.6875 133.1719 423.1406 133.1719 Q422.1875 133.1719 421.8281 133.0312 L421.8281 135.5 L420.75 135.5 Z" style="fill:black; stroke:none;" /></g><g ID="li-1:1,3" style="fill:white; text-rendering:optimizeSpeed; font-family:'Serif'; stroke:white;"><rect height="10" style="stroke:none;" width="7" x="445" y="95" /><path d="M448.9219 104.5938 Q449.75 104.5938 450.1953 103.9844 Q450.6406 103.375 450.6406 102.2344 Q450.6406 101.1094 450.1953 100.5 Q449.75 99.8906 448.9219 99.8906 Q448.0938 99.8906 447.6484 100.4766 Q447.2031 101.0625 447.2031 102.1719 Q447.2031 103.3281 447.6484 103.9609 Q448.0938 104.5938 448.9219 104.5938 ZM447.0156 100.1875 Q447.4219 99.75 447.9219 99.5312 Q448.4219 99.3125 449.0625 99.3125 Q450.3594 99.3125 451.1172 100.0938 Q451.875 100.875 451.875 102.2344 Q451.875 103.5625 451.0625 104.3672 Q450.25 105.1719 448.875 105.1719 Q447.3906 105.1719 446.5938 104.0625 Q445.7969 102.9531 445.7969 100.9062 Q445.7969 98.6094 446.7422 97.3516 Q447.6875 96.0938 449.4062 96.0938 Q449.875 96.0938 450.3828 96.1797 Q450.8906 96.2656 451.4219 96.4375 L451.4219 97.8906 L450.7656 97.8906 Q450.6875 97.2969 450.3047 96.9844 Q449.9219 96.6719 449.2812 96.6719 Q448.1406 96.6719 447.5859 97.5312 Q447.0312 98.3906 447.0156 100.1875 Z" style="fill:black; stroke:none;" /><rect height="8" style="stroke:none;" width="8" x="445" y="82" /><path d="M450.1875 88.4688 L449.9531 89.1094 Q449.7656 89.625 449.2031 89.9375 Q448.8438 90.1562 448.2031 90.1406 Q447.0469 90.1406 446.3281 89.2344 Q445.5938 88.3281 445.5938 86.8594 Q445.5938 85.4219 446.3281 84.4844 Q447.0156 83.5938 448.4531 83.6094 Q449.4531 83.6094 449.9531 84 Q450.4062 84.3438 450.5781 85.0938 L450.625 85.3125 L450.8438 84.6719 Q451.0625 84.0469 451.6562 83.75 L452.25 83.75 L452.25 84.0938 Q451.6875 84.2656 451.5 84.8125 L450.8906 86.4844 L451.2969 88.2812 Q451.5 89.2031 451.7344 89.2969 Q452.0469 89.4375 452.7812 89 L452.7812 89.7188 Q451.5938 90.4062 450.75 89.6875 Q450.375 89.3594 450.2656 88.875 L450.1875 88.4688 ZM449.9219 87.3125 L449.5625 85.5938 Q449.2656 84.2188 448.4688 84.2188 Q447.7969 84.2031 447.2812 84.9375 Q446.8594 85.5156 446.8594 86.875 Q446.8594 88.1719 447.2812 88.8281 Q447.75 89.5469 448.5312 89.5 Q449.2031 89.4375 449.6875 88 L449.9219 87.3125 Z" style="fill:black; stroke:none;" /></g></g></svg>