<svg xmlns="http://www.w3.org/2000/svg" style="fill-opacity:1; color-rendering:auto; color-interpolation:auto; text-rendering:auto; stroke:black; stroke-linecap:square; stroke-miterlimit:10; shape-rendering:auto; stroke-opacity:1; fill:black; stroke-dasharray:none; font-weight:normal; stroke-width:1; font-family:'Dialog'; font-style:normal; stroke-linejoin:miter; font-size:12px; stroke-dashoffset:0; image-rendering:auto;"><defs id="genericDefs" /><g><defs id="defs1"><clipPath clipPathUnits="userSpaceOnUse" id="clipPath1"><path d="M342 82 L364 82 L364 104 L342 104 L342 82 Z" /></clipPath><clipPath clipPathUnits="userSpaceOnUse" id="clipPath2"><path d="M290 82 L312 82 L312 104 L290 104 L290 82 Z" /></clipPath><clipPath clipPathUnits="userSpaceOnUse" id="clipPath3"><path d="M260 93 C260 99.0751 255.0751 104 249 104 C242.9249 104 238 99.0751 238 93 C238 86.9249 242.9249 82 249 82 C255.0751 82 260 86.9249 260 93 Z" /></clipPath><clipPath clipPathUnits="userSpaceOnUse" id="clipPath4"><path d="M208 145 C208 151.0751 203.0751 156 197 156 C190.9249 156 186 151.0751 186 145 C186 138.9249 190.9249 134 197 134 C203.0751 134 208 138.9249 208 145 Z" /></clipPath><clipPath clipPathUnits="userSpaceOnUse" id="clipPath5"><path d="M134 186 L156 186 L156 208 L134 208 L134 186 Z" /></clipPath><clipPath clipPathUnits="userSpaceOnUse" id="clipPath6"><path d="M104 197 C104 203.0751 99.0751 208 93 208 C86.9249 208 82 203.0751 82 197 C82 190.9249 86.9249 186 93 186 C99.0751 186 104 190.9249 104 197 Z" /></clipPath><clipPath clipPathUnits="userSpaceOnUse" id="clipPath7"><path d="M41 186 L52 197 L41 208 L30 197 Z" style="fill-rule:evenodd;" /></clipPath><clipPath clipPathUnits="userSpaceOnUse" id="clipPath8"><path d="M134 82 L156 82 L156 104 L134 104 L134 82 Z" /></clipPath><clipPath clipPathUnits="userSpaceOnUse" id="clipPath9"><path d="M145 134 L156 156 L134 156 Z" style="fill-rule:evenodd;" /></clipPath><clipPath clipPathUnits="userSpaceOnUse" id="clipPath10"><path d="M104 93 C104 99.0751 99.0751 104 93 104 C86.9249 104 82 99.0751 82 93 C82 86.9249 86.9249 82 93 82 C99.0751 82 104 86.9249 104 93 Z" /></clipPath><clipPath clipPathUnits="userSpaceOnUse" id="clipPath11"><path d="M41 82 L52 93 L41 104 L30 93 Z" style="fill-rule:evenodd;" /></clipPath><clipPath clipPathUnits="userSpaceOnUse" id="clipPath12"><path d="M208 41 C208 47.0751 203.0751 52 197 52 C190.9249 52 186 47.0751 186 41 C186 34.9249 190.9249 30 197 30 C203.0751 30 208 34.9249 208 41 Z" /></clipPath><clipPath clipPathUnits="userSpaceOnUse" id="clipPath13"><path d="M134 30 L156 30 L156 52 L134 52 L134 30 Z" /></clipPath><clipPath clipPathUnits="userSpaceOnUse" id="clipPath14"><path d="M104 41 C104 47.0751 99.0751 52 93 52 C86.9249 52 82 47.0751 82 41 C82 34.9249 86.9249 30 93 30 C99.0751 30 104 34.9249 104 41 Z" /></clipPath><clipPath clipPathUnits="userSpaceOnUse" id="clipPath15"><path d="M41 30 L52 41 L41 52 L30 41 Z" style="fill-rule:evenodd;" /></clipPath></defs><g style="fill:white; text-rendering:optimizeSpeed; stroke:white;"><rect height="238" style="stroke:none;" width="394" x="0" y="0" /></g><g ID="l-1:1,2" style="text-rendering:optimizeSpeed;"><polygon points=" 353 93 301 93" style="fill:none;" /></g><g ID="r-1:1" style="fill:white; text-rendering:optimizeSpeed; stroke:white;" wurcs_mono_id="1"><rect height="22" style="clip-path:url(#clipPath1); stroke:none;" width="22" x="342" y="82" /><rect height="22" style="clip-path:url(#clipPath1); fill:rgb(0,144,188); stroke:none;" width="22" x="342" y="82" /><rect height="22" style="clip-path:url(#clipPath1); fill:none; stroke:black;" width="22" x="342" y="82" /><rect height="22" style="fill:none; stroke:black;" width="22" x="342" y="82" /></g><g ID="l-1:2,3" style="text-rendering:optimizeSpeed;"><polygon points=" 301 93 249 93" style="fill:none;" /></g><g ID="r-1:2" style="fill:white; text-rendering:optimizeSpeed; stroke:white;" wurcs_mono_id="2"><rect height="22" style="clip-path:url(#clipPath2); stroke:none;" width="22" x="290" y="82" /><rect height="22" style="clip-path:url(#clipPath2); fill:rgb(0,144,188); stroke:none;" width="22" x="290" y="82" /><rect height="22" style="clip-path:url(#clipPath2); fill:none; stroke:black;" width="22" x="290" y="82" /><rect height="22" style="fill:none; stroke:black;" width="22" x="290" y="82" /></g><g ID="l-1:3,4" style="text-rendering:optimizeSpeed;"><polygon points=" 249 93 197 145" style="fill:none;" /></g><g ID="l-1:3,5" style="text-rendering:optimizeSpeed;"><polygon points=" 249 93 197 41" style="fill:none;" /></g><g ID="r-1:3" style="fill:white; text-rendering:optimizeSpeed; stroke:white;" wurcs_mono_id="3"><circle cx="249" cy="93" r="11" style="clip-path:url(#clipPath3); stroke:none;" /><rect height="22" style="clip-path:url(#clipPath3); fill:rgb(0,166,81); stroke:none;" width="22" x="238" y="82" /><rect height="22" style="clip-path:url(#clipPath3); fill:none; stroke:black;" width="22" x="238" y="82" /><circle cx="249" cy="93" r="11" style="fill:none; stroke:black;" /></g><g ID="l-1:4,6" style="text-rendering:optimizeSpeed;"><polygon points=" 197 145 145 197" style="fill:none;" /></g><g ID="l-1:4,7" style="text-rendering:optimizeSpeed;"><polygon points=" 197 145 145 93" style="fill:none;" /></g><g ID="r-1:4" style="fill:white; text-rendering:optimizeSpeed; stroke:white;" wurcs_mono_id="4"><circle cx="197" cy="145" r="11" style="clip-path:url(#clipPath4); stroke:none;" /><rect height="22" style="clip-path:url(#clipPath4); fill:rgb(0,166,81); stroke:none;" width="22" x="186" y="134" /><rect height="22" style="clip-path:url(#clipPath4); fill:none; stroke:black;" width="22" x="186" y="134" /><circle cx="197" cy="145" r="11" style="fill:none; stroke:black;" /></g><g ID="l-1:6,8" style="text-rendering:optimizeSpeed;"><polygon points=" 145 197 93 197" style="fill:none;" /></g><g ID="r-1:6" style="fill:white; text-rendering:optimizeSpeed; stroke:white;" wurcs_mono_id="5"><rect height="22" style="clip-path:url(#clipPath5); stroke:none;" width="22" x="134" y="186" /><rect height="22" style="clip-path:url(#clipPath5); fill:rgb(0,144,188); stroke:none;" width="22" x="134" y="186" /><rect height="22" style="clip-path:url(#clipPath5); fill:none; stroke:black;" width="22" x="134" y="186" /><rect height="22" style="fill:none; stroke:black;" width="22" x="134" y="186" /></g><g ID="l-1:8,9" style="text-rendering:optimizeSpeed;"><polygon points=" 93 197 41 197" style="fill:none;" /></g><g ID="r-1:8" style="fill:white; text-rendering:optimizeSpeed; stroke:white;" wurcs_mono_id="6"><circle cx="93" cy="197" r="11" style="clip-path:url(#clipPath6); stroke:none;" /><rect height="22" style="clip-path:url(#clipPath6); fill:rgb(255,212,0); stroke:none;" width="22" x="82" y="186" /><rect height="22" style="clip-path:url(#clipPath6); fill:none; stroke:black;" width="22" x="82" y="186" /><circle cx="93" cy="197" r="11" style="fill:none; stroke:black;" /></g><g ID="r-1:9" style="fill:white; text-rendering:optimizeSpeed; stroke:white;" wurcs_mono_id="7"><polygon points=" 41 186 52 197 41 208 30 197" style="stroke:none; clip-path:url(#clipPath7);" /><rect height="22" style="clip-path:url(#clipPath7); fill:rgb(165,67,153); stroke:none;" width="22" x="30" y="186" /><rect height="22" style="clip-path:url(#clipPath7); fill:none; stroke:black;" width="22" x="30" y="186" /><polygon points=" 41 186 52 197 41 208 30 197" style="fill:none; stroke:black;" /></g><g ID="li-1:8,9" style="fill:white; text-rendering:optimizeSpeed; font-family:'Serif'; stroke:white;"><rect height="10" style="stroke:none;" width="7" x="70" y="200" /><path d="M73.9219 209.5938 Q74.75 209.5938 75.1953 208.9844 Q75.6406 208.375 75.6406 207.2344 Q75.6406 206.1094 75.1953 205.5 Q74.75 204.8906 73.9219 204.8906 Q73.0938 204.8906 72.6484 205.4766 Q72.2031 206.0625 72.2031 207.1719 Q72.2031 208.3281 72.6484 208.9609 Q73.0938 209.5938 73.9219 209.5938 ZM72.0156 205.1875 Q72.4219 204.75 72.9219 204.5312 Q73.4219 204.3125 74.0625 204.3125 Q75.3594 204.3125 76.1172 205.0938 Q76.875 205.875 76.875 207.2344 Q76.875 208.5625 76.0625 209.3672 Q75.25 210.1719 73.875 210.1719 Q72.3906 210.1719 71.5938 209.0625 Q70.7969 207.9531 70.7969 205.9062 Q70.7969 203.6094 71.7422 202.3516 Q72.6875 201.0938 74.4062 201.0938 Q74.875 201.0938 75.3828 201.1797 Q75.8906 201.2656 76.4219 201.4375 L76.4219 202.8906 L75.7656 202.8906 Q75.6875 202.2969 75.3047 201.9844 Q74.9219 201.6719 74.2812 201.6719 Q73.1406 201.6719 72.5859 202.5312 Q72.0312 203.3906 72.0156 205.1875 Z" style="fill:black; stroke:none;" /><rect height="8" style="stroke:none;" width="8" x="56" y="201" /><path d="M61.1875 207.4688 L60.9531 208.1094 Q60.7656 208.625 60.2031 208.9375 Q59.8438 209.1562 59.2031 209.1406 Q58.0469 209.1406 57.3281 208.2344 Q56.5938 207.3281 56.5938 205.8594 Q56.5938 204.4219 57.3281 203.4844 Q58.0156 202.5938 59.4531 202.6094 Q60.4531 202.6094 60.9531 203 Q61.4062 203.3438 61.5781 204.0938 L61.625 204.3125 L61.8438 203.6719 Q62.0625 203.0469 62.6562 202.75 L63.25 202.75 L63.25 203.0938 Q62.6875 203.2656 62.5 203.8125 L61.8906 205.4844 L62.2969 207.2812 Q62.5 208.2031 62.7344 208.2969 Q63.0469 208.4375 63.7812 208 L63.7812 208.7188 Q62.5938 209.4062 61.75 208.6875 Q61.375 208.3594 61.2656 207.875 L61.1875 207.4688 ZM60.9219 206.3125 L60.5625 204.5938 Q60.2656 203.2188 59.4688 203.2188 Q58.7969 203.2031 58.2812 203.9375 Q57.8594 204.5156 57.8594 205.875 Q57.8594 207.1719 58.2812 207.8281 Q58.75 208.5469 59.5312 208.5 Q60.2031 208.4375 60.6875 207 L60.9219 206.3125 Z" style="fill:black; stroke:none;" /></g><g ID="li-1:6,8" style="fill:white; text-rendering:optimizeSpeed; font-family:'Serif'; stroke:white;"><rect height="9" style="stroke:none;" width="8" x="122" y="200" /><path d="M126.1875 206.0312 L126.1875 201.375 L123.2031 206.0312 L126.1875 206.0312 ZM128.7656 209 L124.7812 209 L124.7812 208.375 L126.1875 208.375 L126.1875 206.6562 L122.375 206.6562 L122.375 206.0156 L126.2031 200.0938 L127.3594 200.0938 L127.3594 206.0312 L129.0312 206.0312 L129.0312 206.6562 L127.3594 206.6562 L127.3594 208.375 L128.7656 208.375 L128.7656 209 Z" style="fill:black; stroke:none;" /><rect height="13" style="stroke:none;" width="7" x="108" y="198" /><path d="M109.8281 210.25 Q110.2969 210.5938 111.1719 210.5938 Q112.0625 210.5938 112.5781 210.0703 Q113.0938 209.5469 113.0938 208.6562 Q113.0938 207.4219 112.5625 206.8906 Q112.0156 206.3594 111 206.3594 L110.4375 206.3594 L110.4375 205.7188 L110.7344 205.7188 Q111.4844 205.7188 112 205.2969 Q112.4219 204.9531 112.4219 204.0156 Q112.4219 203.6094 112.1406 203.1406 Q111.6875 202.375 111.1562 202.3906 Q109.8281 202.4375 109.8281 204.7812 L109.8281 210.25 ZM108.75 213.5 L108.75 204.7812 Q108.75 202.3281 110.0781 202 Q110.7656 201.8125 111.25 201.8125 Q112.3438 201.8125 113.0469 202.6719 Q113.6094 203.3594 113.6094 203.9375 Q113.6094 204.7812 113.2031 205.2656 Q112.7969 205.75 112.0625 205.9844 Q113.1406 206.1406 113.75 206.7812 Q114.3281 207.4062 114.3281 208.6328 Q114.3281 209.8594 113.5078 210.5156 Q112.6875 211.1719 111.1406 211.1719 Q110.1875 211.1719 109.8281 211.0312 L109.8281 213.5 L108.75 213.5 Z" style="fill:black; stroke:none;" /></g><g ID="l-1:7,10" style="text-rendering:optimizeSpeed;"><polygon points=" 145 93 145 145" style="fill:none;" /></g><g ID="l-1:7,11" style="text-rendering:optimizeSpeed;"><polygon points=" 145 93 93 93" style="fill:none;" /></g><g ID="r-1:7" style="fill:white; text-rendering:optimizeSpeed; stroke:white;" wurcs_mono_id="8"><rect height="22" style="clip-path:url(#clipPath8); stroke:none;" width="22" x="134" y="82" /><rect height="22" style="clip-path:url(#clipPath8); fill:rgb(0,144,188); stroke:none;" width="22" x="134" y="82" /><rect height="22" style="clip-path:url(#clipPath8); fill:none; stroke:black;" width="22" x="134" y="82" /><rect height="22" style="fill:none; stroke:black;" width="22" x="134" y="82" /></g><g ID="r-1:10" style="fill:white; text-rendering:optimizeSpeed; stroke:white;" wurcs_mono_id="9"><polygon points=" 145 134 156 156 134 156" style="stroke:none; clip-path:url(#clipPath9);" /><rect height="22" style="clip-path:url(#clipPath9); fill:rgb(237,28,36); stroke:none;" width="22" x="134" y="134" /><rect height="22" style="clip-path:url(#clipPath9); fill:none; stroke:black;" width="22" x="134" y="134" /><polygon points=" 145 134 156 156 134 156" style="fill:none; stroke:black;" /></g><g ID="l-1:11,12" style="text-rendering:optimizeSpeed;"><polygon points=" 93 93 41 93" style="fill:none;" /></g><g ID="r-1:11" style="fill:white; text-rendering:optimizeSpeed; stroke:white;" wurcs_mono_id="10"><circle cx="93" cy="93" r="11" style="clip-path:url(#clipPath10); stroke:none;" /><rect height="22" style="clip-path:url(#clipPath10); fill:rgb(255,212,0); stroke:none;" width="22" x="82" y="82" /><rect height="22" style="clip-path:url(#clipPath10); fill:none; stroke:black;" width="22" x="82" y="82" /><circle cx="93" cy="93" r="11" style="fill:none; stroke:black;" /></g><g ID="r-1:12" style="fill:white; text-rendering:optimizeSpeed; stroke:white;" wurcs_mono_id="11"><polygon points=" 41 82 52 93 41 104 30 93" style="stroke:none; clip-path:url(#clipPath11);" /><rect height="22" style="clip-path:url(#clipPath11); fill:rgb(165,67,153); stroke:none;" width="22" x="30" y="82" /><rect height="22" style="clip-path:url(#clipPath11); fill:none; stroke:black;" width="22" x="30" y="82" /><polygon points=" 41 82 52 93 41 104 30 93" style="fill:none; stroke:black;" /></g><g ID="li-1:11,12" style="fill:white; text-rendering:optimizeSpeed; font-family:'Serif'; stroke:white;"><rect height="10" style="stroke:none;" width="7" x="70" y="96" /><path d="M71.1719 97.625 Q71.8594 97.3594 72.4844 97.2266 Q73.1094 97.0938 73.6562 97.0938 Q74.9531 97.0938 75.6719 97.6484 Q76.3906 98.2031 76.3906 99.1875 Q76.3906 99.9688 75.8906 100.5 Q75.3906 101.0312 74.4844 101.2188 Q75.5625 101.375 76.1562 102.0078 Q76.75 102.6406 76.75 103.6406 Q76.75 104.8594 75.9219 105.5156 Q75.0938 106.1719 73.5469 106.1719 Q72.8594 106.1719 72.2109 106.0234 Q71.5625 105.875 70.9219 105.5781 L70.9219 103.875 L71.5781 103.875 Q71.625 104.7188 72.1406 105.1562 Q72.6562 105.5938 73.5781 105.5938 Q74.4688 105.5938 74.9922 105.0703 Q75.5156 104.5469 75.5156 103.6562 Q75.5156 102.625 74.9766 102.0938 Q74.4375 101.5625 73.4062 101.5625 L72.8594 101.5625 L72.8594 100.9531 L73.1406 100.9531 Q74.1719 100.9531 74.6875 100.5312 Q75.2031 100.1094 75.2031 99.25 Q75.2031 98.4844 74.7812 98.0781 Q74.3594 97.6719 73.5625 97.6719 Q72.7656 97.6719 72.3359 98.0469 Q71.9062 98.4219 71.8281 99.1562 L71.1719 99.1562 L71.1719 97.625 Z" style="fill:black; stroke:none;" /><rect height="8" style="stroke:none;" width="8" x="56" y="97" /><path d="M61.1875 103.4688 L60.9531 104.1094 Q60.7656 104.625 60.2031 104.9375 Q59.8438 105.1562 59.2031 105.1406 Q58.0469 105.1406 57.3281 104.2344 Q56.5938 103.3281 56.5938 101.8594 Q56.5938 100.4219 57.3281 99.4844 Q58.0156 98.5938 59.4531 98.6094 Q60.4531 98.6094 60.9531 99 Q61.4062 99.3438 61.5781 100.0938 L61.625 100.3125 L61.8438 99.6719 Q62.0625 99.0469 62.6562 98.75 L63.25 98.75 L63.25 99.0938 Q62.6875 99.2656 62.5 99.8125 L61.8906 101.4844 L62.2969 103.2812 Q62.5 104.2031 62.7344 104.2969 Q63.0469 104.4375 63.7812 104 L63.7812 104.7188 Q62.5938 105.4062 61.75 104.6875 Q61.375 104.3594 61.2656 103.875 L61.1875 103.4688 ZM60.9219 102.3125 L60.5625 100.5938 Q60.2656 99.2188 59.4688 99.2188 Q58.7969 99.2031 58.2812 99.9375 Q57.8594 100.5156 57.8594 101.875 Q57.8594 103.1719 58.2812 103.8281 Q58.75 104.5469 59.5312 104.5 Q60.2031 104.4375 60.6875 103 L60.9219 102.3125 Z" style="fill:black; stroke:none;" /></g><g ID="li-1:7,10" style="fill:white; text-rendering:optimizeSpeed; font-family:'Serif'; stroke:white;"><rect height="10" style="stroke:none;" width="7" x="149" y="107" /><path d="M150.1719 108.625 Q150.8594 108.3594 151.4844 108.2266 Q152.1094 108.0938 152.6562 108.0938 Q153.9531 108.0938 154.6719 108.6484 Q155.3906 109.2031 155.3906 110.1875 Q155.3906 110.9688 154.8906 111.5 Q154.3906 112.0312 153.4844 112.2188 Q154.5625 112.375 155.1562 113.0078 Q155.75 113.6406 155.75 114.6406 Q155.75 115.8594 154.9219 116.5156 Q154.0938 117.1719 152.5469 117.1719 Q151.8594 117.1719 151.2109 117.0234 Q150.5625 116.875 149.9219 116.5781 L149.9219 114.875 L150.5781 114.875 Q150.625 115.7188 151.1406 116.1562 Q151.6562 116.5938 152.5781 116.5938 Q153.4688 116.5938 153.9922 116.0703 Q154.5156 115.5469 154.5156 114.6562 Q154.5156 113.625 153.9766 113.0938 Q153.4375 112.5625 152.4062 112.5625 L151.8594 112.5625 L151.8594 111.9531 L152.1406 111.9531 Q153.1719 111.9531 153.6875 111.5312 Q154.2031 111.1094 154.2031 110.25 Q154.2031 109.4844 153.7812 109.0781 Q153.3594 108.6719 152.5625 108.6719 Q151.7656 108.6719 151.3359 109.0469 Q150.9062 109.4219 150.8281 110.1562 L150.1719 110.1562 L150.1719 108.625 Z" style="fill:black; stroke:none;" /><rect height="8" style="stroke:none;" width="8" x="149" y="122" /><path d="M154.1875 128.4688 L153.9531 129.1094 Q153.7656 129.625 153.2031 129.9375 Q152.8438 130.1562 152.2031 130.1406 Q151.0469 130.1406 150.3281 129.2344 Q149.5938 128.3281 149.5938 126.8594 Q149.5938 125.4219 150.3281 124.4844 Q151.0156 123.5938 152.4531 123.6094 Q153.4531 123.6094 153.9531 124 Q154.4062 124.3438 154.5781 125.0938 L154.625 125.3125 L154.8438 124.6719 Q155.0625 124.0469 155.6562 123.75 L156.25 123.75 L156.25 124.0938 Q155.6875 124.2656 155.5 124.8125 L154.8906 126.4844 L155.2969 128.2812 Q155.5 129.2031 155.7344 129.2969 Q156.0469 129.4375 156.7812 129 L156.7812 129.7188 Q155.5938 130.4062 154.75 129.6875 Q154.375 129.3594 154.2656 128.875 L154.1875 128.4688 ZM153.9219 127.3125 L153.5625 125.5938 Q153.2656 124.2188 152.4688 124.2188 Q151.7969 124.2031 151.2812 124.9375 Q150.8594 125.5156 150.8594 126.875 Q150.8594 128.1719 151.2812 128.8281 Q151.75 129.5469 152.5312 129.5 Q153.2031 129.4375 153.6875 128 L153.9219 127.3125 Z" style="fill:black; stroke:none;" /></g><g ID="li-1:7,11" style="fill:white; text-rendering:optimizeSpeed; font-family:'Serif'; stroke:white;"><rect height="9" style="stroke:none;" width="8" x="122" y="96" /><path d="M126.1875 102.0312 L126.1875 97.375 L123.2031 102.0312 L126.1875 102.0312 ZM128.7656 105 L124.7812 105 L124.7812 104.375 L126.1875 104.375 L126.1875 102.6562 L122.375 102.6562 L122.375 102.0156 L126.2031 96.0938 L127.3594 96.0938 L127.3594 102.0312 L129.0312 102.0312 L129.0312 102.6562 L127.3594 102.6562 L127.3594 104.375 L128.7656 104.375 L128.7656 105 Z" style="fill:black; stroke:none;" /><rect height="13" style="stroke:none;" width="7" x="108" y="94" /><path d="M109.8281 106.25 Q110.2969 106.5938 111.1719 106.5938 Q112.0625 106.5938 112.5781 106.0703 Q113.0938 105.5469 113.0938 104.6562 Q113.0938 103.4219 112.5625 102.8906 Q112.0156 102.3594 111 102.3594 L110.4375 102.3594 L110.4375 101.7188 L110.7344 101.7188 Q111.4844 101.7188 112 101.2969 Q112.4219 100.9531 112.4219 100.0156 Q112.4219 99.6094 112.1406 99.1406 Q111.6875 98.375 111.1562 98.3906 Q109.8281 98.4375 109.8281 100.7812 L109.8281 106.25 ZM108.75 109.5 L108.75 100.7812 Q108.75 98.3281 110.0781 98 Q110.7656 97.8125 111.25 97.8125 Q112.3438 97.8125 113.0469 98.6719 Q113.6094 99.3594 113.6094 99.9375 Q113.6094 100.7812 113.2031 101.2656 Q112.7969 101.75 112.0625 101.9844 Q113.1406 102.1406 113.75 102.7812 Q114.3281 103.4062 114.3281 104.6328 Q114.3281 105.8594 113.5078 106.5156 Q112.6875 107.1719 111.1406 107.1719 Q110.1875 107.1719 109.8281 107.0312 L109.8281 109.5 L108.75 109.5 Z" style="fill:black; stroke:none;" /></g><g ID="li-1:4,6" style="fill:white; text-rendering:optimizeSpeed; font-family:'Serif'; stroke:white;"><rect height="9" style="stroke:none;" width="7" x="182" y="162" /><path d="M183.5312 164.3438 L182.875 164.3438 L182.875 162.7812 Q183.5 162.4375 184.1406 162.2656 Q184.7812 162.0938 185.3906 162.0938 Q186.75 162.0938 187.5391 162.7578 Q188.3281 163.4219 188.3281 164.5469 Q188.3281 165.8438 186.5469 167.625 Q186.4062 167.7656 186.3281 167.8281 L184.125 170.0312 L187.7656 170.0312 L187.7656 168.9531 L188.4531 168.9531 L188.4531 171 L182.8125 171 L182.8125 170.3594 L185.4688 167.7188 Q186.3438 166.8281 186.7188 166.0938 Q187.0938 165.3594 187.0938 164.5469 Q187.0938 163.6719 186.6328 163.1719 Q186.1719 162.6719 185.375 162.6719 Q184.5312 162.6719 184.0781 163.0859 Q183.625 163.5 183.5312 164.3438 Z" style="fill:black; stroke:none;" /><rect height="13" style="stroke:none;" width="7" x="163" y="179" /><path d="M164.8281 191.25 Q165.2969 191.5938 166.1719 191.5938 Q167.0625 191.5938 167.5781 191.0703 Q168.0938 190.5469 168.0938 189.6562 Q168.0938 188.4219 167.5625 187.8906 Q167.0156 187.3594 166 187.3594 L165.4375 187.3594 L165.4375 186.7188 L165.7344 186.7188 Q166.4844 186.7188 167 186.2969 Q167.4219 185.9531 167.4219 185.0156 Q167.4219 184.6094 167.1406 184.1406 Q166.6875 183.375 166.1562 183.3906 Q164.8281 183.4375 164.8281 185.7812 L164.8281 191.25 ZM163.75 194.5 L163.75 185.7812 Q163.75 183.3281 165.0781 183 Q165.7656 182.8125 166.25 182.8125 Q167.3438 182.8125 168.0469 183.6719 Q168.6094 184.3594 168.6094 184.9375 Q168.6094 185.7812 168.2031 186.2656 Q167.7969 186.75 167.0625 186.9844 Q168.1406 187.1406 168.75 187.7812 Q169.3281 188.4062 169.3281 189.6328 Q169.3281 190.8594 168.5078 191.5156 Q167.6875 192.1719 166.1406 192.1719 Q165.1875 192.1719 164.8281 192.0312 L164.8281 194.5 L163.75 194.5 Z" style="fill:black; stroke:none;" /></g><g ID="li-1:4,7" style="fill:white; text-rendering:optimizeSpeed; font-family:'Serif'; stroke:white;"><rect height="9" style="stroke:none;" width="8" x="170" y="129" /><path d="M174.1875 135.0312 L174.1875 130.375 L171.2031 135.0312 L174.1875 135.0312 ZM176.7656 138 L172.7812 138 L172.7812 137.375 L174.1875 137.375 L174.1875 135.6562 L170.375 135.6562 L170.375 135.0156 L174.2031 129.0938 L175.3594 129.0938 L175.3594 135.0312 L177.0312 135.0312 L177.0312 135.6562 L175.3594 135.6562 L175.3594 137.375 L176.7656 137.375 L176.7656 138 Z" style="fill:black; stroke:none;" /><rect height="13" style="stroke:none;" width="7" x="152" y="108" /><path d="M153.8281 120.25 Q154.2969 120.5938 155.1719 120.5938 Q156.0625 120.5938 156.5781 120.0703 Q157.0938 119.5469 157.0938 118.6562 Q157.0938 117.4219 156.5625 116.8906 Q156.0156 116.3594 155 116.3594 L154.4375 116.3594 L154.4375 115.7188 L154.7344 115.7188 Q155.4844 115.7188 156 115.2969 Q156.4219 114.9531 156.4219 114.0156 Q156.4219 113.6094 156.1406 113.1406 Q155.6875 112.375 155.1562 112.3906 Q153.8281 112.4375 153.8281 114.7812 L153.8281 120.25 ZM152.75 123.5 L152.75 114.7812 Q152.75 112.3281 154.0781 112 Q154.7656 111.8125 155.25 111.8125 Q156.3438 111.8125 157.0469 112.6719 Q157.6094 113.3594 157.6094 113.9375 Q157.6094 114.7812 157.2031 115.2656 Q156.7969 115.75 156.0625 115.9844 Q157.1406 116.1406 157.75 116.7812 Q158.3281 117.4062 158.3281 118.6328 Q158.3281 119.8594 157.5078 120.5156 Q156.6875 121.1719 155.1406 121.1719 Q154.1875 121.1719 153.8281 121.0312 L153.8281 123.5 L152.75 123.5 Z" style="fill:black; stroke:none;" /></g><g ID="l-1:5,13" style="text-rendering:optimizeSpeed;"><polygon points=" 197 41 145 41" style="fill:none;" /></g><g ID="r-1:5" style="fill:white; text-rendering:optimizeSpeed; stroke:white;" wurcs_mono_id="12"><circle cx="197" cy="41" r="11" style="clip-path:url(#clipPath12); stroke:none;" /><rect height="22" style="clip-path:url(#clipPath12); fill:rgb(0,166,81); stroke:none;" width="22" x="186" y="30" /><rect height="22" style="clip-path:url(#clipPath12); fill:none; stroke:black;" width="22" x="186" y="30" /><circle cx="197" cy="41" r="11" style="fill:none; stroke:black;" /></g><g ID="l-1:13,14" style="text-rendering:optimizeSpeed;"><polygon points=" 145 41 93 41" style="fill:none;" /></g><g ID="r-1:13" style="fill:white; text-rendering:optimizeSpeed; stroke:white;" wurcs_mono_id="13"><rect height="22" style="clip-path:url(#clipPath13); stroke:none;" width="22" x="134" y="30" /><rect height="22" style="clip-path:url(#clipPath13); fill:rgb(0,144,188); stroke:none;" width="22" x="134" y="30" /><rect height="22" style="clip-path:url(#clipPath13); fill:none; stroke:black;" width="22" x="134" y="30" /><rect height="22" style="fill:none; stroke:black;" width="22" x="134" y="30" /></g><g ID="l-1:14,15" style="text-rendering:optimizeSpeed;"><polygon points=" 93 41 41 41" style="fill:none;" /></g><g ID="r-1:14" style="fill:white; text-rendering:optimizeSpeed; stroke:white;" wurcs_mono_id="14"><circle cx="93" cy="41" r="11" style="clip-path:url(#clipPath14); stroke:none;" /><rect height="22" style="clip-path:url(#clipPath14); fill:rgb(255,212,0); stroke:none;" width="22" x="82" y="30" /><rect height="22" style="clip-path:url(#clipPath14); fill:none; stroke:black;" width="22" x="82" y="30" /><circle cx="93" cy="41" r="11" style="fill:none; stroke:black;" /></g><g ID="r-1:15" style="fill:white; text-rendering:optimizeSpeed; stroke:white;" wurcs_mono_id="15"><polygon points=" 41 30 52 41 41 52 30 41" style="stroke:none; clip-path:url(#clipPath15);" /><rect height="22" style="clip-path:url(#clipPath15); fill:rgb(165,67,153); stroke:none;" width="22" x="30" y="30" /><rect height="22" style="clip-path:url(#clipPath15); fill:none; stroke:black;" width="22" x="30" y="30" /><polygon points=" 41 30 52 41 41 52 30 41" style="fill:none; stroke:black;" /></g><g ID="li-1:14,15" style="fill:white; text-rendering:optimizeSpeed; font-family:'Serif'; stroke:white;"><rect height="10" style="stroke:none;" width="7" x="70" y="44" /><path d="M73.9219 53.5938 Q74.75 53.5938 75.1953 52.9844 Q75.6406 52.375 75.6406 51.2344 Q75.6406 50.1094 75.1953 49.5 Q74.75 48.8906 73.9219 48.8906 Q73.0938 48.8906 72.6484 49.4766 Q72.2031 50.0625 72.2031 51.1719 Q72.2031 52.3281 72.6484 52.9609 Q73.0938 53.5938 73.9219 53.5938 ZM72.0156 49.1875 Q72.4219 48.75 72.9219 48.5312 Q73.4219 48.3125 74.0625 48.3125 Q75.3594 48.3125 76.1172 49.0938 Q76.875 49.875 76.875 51.2344 Q76.875 52.5625 76.0625 53.3672 Q75.25 54.1719 73.875 54.1719 Q72.3906 54.1719 71.5938 53.0625 Q70.7969 51.9531 70.7969 49.9062 Q70.7969 47.6094 71.7422 46.3516 Q72.6875 45.0938 74.4062 45.0938 Q74.875 45.0938 75.3828 45.1797 Q75.8906 45.2656 76.4219 45.4375 L76.4219 46.8906 L75.7656 46.8906 Q75.6875 46.2969 75.3047 45.9844 Q74.9219 45.6719 74.2812 45.6719 Q73.1406 45.6719 72.5859 46.5312 Q72.0312 47.3906 72.0156 49.1875 Z" style="fill:black; stroke:none;" /><rect height="8" style="stroke:none;" width="8" x="56" y="45" /><path d="M61.1875 51.4688 L60.9531 52.1094 Q60.7656 52.625 60.2031 52.9375 Q59.8438 53.1562 59.2031 53.1406 Q58.0469 53.1406 57.3281 52.2344 Q56.5938 51.3281 56.5938 49.8594 Q56.5938 48.4219 57.3281 47.4844 Q58.0156 46.5938 59.4531 46.6094 Q60.4531 46.6094 60.9531 47 Q61.4062 47.3438 61.5781 48.0938 L61.625 48.3125 L61.8438 47.6719 Q62.0625 47.0469 62.6562 46.75 L63.25 46.75 L63.25 47.0938 Q62.6875 47.2656 62.5 47.8125 L61.8906 49.4844 L62.2969 51.2812 Q62.5 52.2031 62.7344 52.2969 Q63.0469 52.4375 63.7812 52 L63.7812 52.7188 Q62.5938 53.4062 61.75 52.6875 Q61.375 52.3594 61.2656 51.875 L61.1875 51.4688 ZM60.9219 50.3125 L60.5625 48.5938 Q60.2656 47.2188 59.4688 47.2188 Q58.7969 47.2031 58.2812 47.9375 Q57.8594 48.5156 57.8594 49.875 Q57.8594 51.1719 58.2812 51.8281 Q58.75 52.5469 59.5312 52.5 Q60.2031 52.4375 60.6875 51 L60.9219 50.3125 Z" style="fill:black; stroke:none;" /></g><g ID="li-1:13,14" style="fill:white; text-rendering:optimizeSpeed; font-family:'Serif'; stroke:white;"><rect height="9" style="stroke:none;" width="8" x="122" y="44" /><path d="M126.1875 50.0312 L126.1875 45.375 L123.2031 50.0312 L126.1875 50.0312 ZM128.7656 53 L124.7812 53 L124.7812 52.375 L126.1875 52.375 L126.1875 50.6562 L122.375 50.6562 L122.375 50.0156 L126.2031 44.0938 L127.3594 44.0938 L127.3594 50.0312 L129.0312 50.0312 L129.0312 50.6562 L127.3594 50.6562 L127.3594 52.375 L128.7656 52.375 L128.7656 53 Z" style="fill:black; stroke:none;" /><rect height="13" style="stroke:none;" width="7" x="108" y="42" /><path d="M109.8281 54.25 Q110.2969 54.5938 111.1719 54.5938 Q112.0625 54.5938 112.5781 54.0703 Q113.0938 53.5469 113.0938 52.6562 Q113.0938 51.4219 112.5625 50.8906 Q112.0156 50.3594 111 50.3594 L110.4375 50.3594 L110.4375 49.7188 L110.7344 49.7188 Q111.4844 49.7188 112 49.2969 Q112.4219 48.9531 112.4219 48.0156 Q112.4219 47.6094 112.1406 47.1406 Q111.6875 46.375 111.1562 46.3906 Q109.8281 46.4375 109.8281 48.7812 L109.8281 54.25 ZM108.75 57.5 L108.75 48.7812 Q108.75 46.3281 110.0781 46 Q110.7656 45.8125 111.25 45.8125 Q112.3438 45.8125 113.0469 46.6719 Q113.6094 47.3594 113.6094 47.9375 Q113.6094 48.7812 113.2031 49.2656 Q112.7969 49.75 112.0625 49.9844 Q113.1406 50.1406 113.75 50.7812 Q114.3281 51.4062 114.3281 52.6328 Q114.3281 53.8594 113.5078 54.5156 Q112.6875 55.1719 111.1406 55.1719 Q110.1875 55.1719 109.8281 55.0312 L109.8281 57.5 L108.75 57.5 Z" style="fill:black; stroke:none;" /></g><g ID="li-1:5,13" style="fill:white; text-rendering:optimizeSpeed; font-family:'Serif'; stroke:white;"><rect height="9" style="stroke:none;" width="7" x="174" y="44" /><path d="M175.5312 46.3438 L174.875 46.3438 L174.875 44.7812 Q175.5 44.4375 176.1406 44.2656 Q176.7812 44.0938 177.3906 44.0938 Q178.75 44.0938 179.5391 44.7578 Q180.3281 45.4219 180.3281 46.5469 Q180.3281 47.8438 178.5469 49.625 Q178.4062 49.7656 178.3281 49.8281 L176.125 52.0312 L179.7656 52.0312 L179.7656 50.9531 L180.4531 50.9531 L180.4531 53 L174.8125 53 L174.8125 52.3594 L177.4688 49.7188 Q178.3438 48.8281 178.7188 48.0938 Q179.0938 47.3594 179.0938 46.5469 Q179.0938 45.6719 178.6328 45.1719 Q178.1719 44.6719 177.375 44.6719 Q176.5312 44.6719 176.0781 45.0859 Q175.625 45.5 175.5312 46.3438 Z" style="fill:black; stroke:none;" /><rect height="13" style="stroke:none;" width="7" x="160" y="42" /><path d="M161.8281 54.25 Q162.2969 54.5938 163.1719 54.5938 Q164.0625 54.5938 164.5781 54.0703 Q165.0938 53.5469 165.0938 52.6562 Q165.0938 51.4219 164.5625 50.8906 Q164.0156 50.3594 163 50.3594 L162.4375 50.3594 L162.4375 49.7188 L162.7344 49.7188 Q163.4844 49.7188 164 49.2969 Q164.4219 48.9531 164.4219 48.0156 Q164.4219 47.6094 164.1406 47.1406 Q163.6875 46.375 163.1562 46.3906 Q161.8281 46.4375 161.8281 48.7812 L161.8281 54.25 ZM160.75 57.5 L160.75 48.7812 Q160.75 46.3281 162.0781 46 Q162.7656 45.8125 163.25 45.8125 Q164.3438 45.8125 165.0469 46.6719 Q165.6094 47.3594 165.6094 47.9375 Q165.6094 48.7812 165.2031 49.2656 Q164.7969 49.75 164.0625 49.9844 Q165.1406 50.1406 165.75 50.7812 Q166.3281 51.4062 166.3281 52.6328 Q166.3281 53.8594 165.5078 54.5156 Q164.6875 55.1719 163.1406 55.1719 Q162.1875 55.1719 161.8281 55.0312 L161.8281 57.5 L160.75 57.5 Z" style="fill:black; stroke:none;" /></g><g ID="li-1:3,4" style="fill:white; text-rendering:optimizeSpeed; font-family:'Serif'; stroke:white;"><rect height="10" style="stroke:none;" width="7" x="234" y="110" /><path d="M235.1719 111.625 Q235.8594 111.3594 236.4844 111.2266 Q237.1094 111.0938 237.6562 111.0938 Q238.9531 111.0938 239.6719 111.6484 Q240.3906 112.2031 240.3906 113.1875 Q240.3906 113.9688 239.8906 114.5 Q239.3906 115.0312 238.4844 115.2188 Q239.5625 115.375 240.1562 116.0078 Q240.75 116.6406 240.75 117.6406 Q240.75 118.8594 239.9219 119.5156 Q239.0938 120.1719 237.5469 120.1719 Q236.8594 120.1719 236.2109 120.0234 Q235.5625 119.875 234.9219 119.5781 L234.9219 117.875 L235.5781 117.875 Q235.625 118.7188 236.1406 119.1562 Q236.6562 119.5938 237.5781 119.5938 Q238.4688 119.5938 238.9922 119.0703 Q239.5156 118.5469 239.5156 117.6562 Q239.5156 116.625 238.9766 116.0938 Q238.4375 115.5625 237.4062 115.5625 L236.8594 115.5625 L236.8594 114.9531 L237.1406 114.9531 Q238.1719 114.9531 238.6875 114.5312 Q239.2031 114.1094 239.2031 113.25 Q239.2031 112.4844 238.7812 112.0781 Q238.3594 111.6719 237.5625 111.6719 Q236.7656 111.6719 236.3359 112.0469 Q235.9062 112.4219 235.8281 113.1562 L235.1719 113.1562 L235.1719 111.625 Z" style="fill:black; stroke:none;" /><rect height="8" style="stroke:none;" width="8" x="215" y="130" /><path d="M220.1875 136.4688 L219.9531 137.1094 Q219.7656 137.625 219.2031 137.9375 Q218.8438 138.1562 218.2031 138.1406 Q217.0469 138.1406 216.3281 137.2344 Q215.5938 136.3281 215.5938 134.8594 Q215.5938 133.4219 216.3281 132.4844 Q217.0156 131.5938 218.4531 131.6094 Q219.4531 131.6094 219.9531 132 Q220.4062 132.3438 220.5781 133.0938 L220.625 133.3125 L220.8438 132.6719 Q221.0625 132.0469 221.6562 131.75 L222.25 131.75 L222.25 132.0938 Q221.6875 132.2656 221.5 132.8125 L220.8906 134.4844 L221.2969 136.2812 Q221.5 137.2031 221.7344 137.2969 Q222.0469 137.4375 222.7812 137 L222.7812 137.7188 Q221.5938 138.4062 220.75 137.6875 Q220.375 137.3594 220.2656 136.875 L220.1875 136.4688 ZM219.9219 135.3125 L219.5625 133.5938 Q219.2656 132.2188 218.4688 132.2188 Q217.7969 132.2031 217.2812 132.9375 Q216.8594 133.5156 216.8594 134.875 Q216.8594 136.1719 217.2812 136.8281 Q217.75 137.5469 218.5312 137.5 Q219.2031 137.4375 219.6875 136 L219.9219 135.3125 Z" style="fill:black; stroke:none;" /></g><g ID="li-1:3,5" style="fill:white; text-rendering:optimizeSpeed; font-family:'Serif'; stroke:white;"><rect height="10" style="stroke:none;" width="7" x="223" y="77" /><path d="M226.9219 86.5938 Q227.75 86.5938 228.1953 85.9844 Q228.6406 85.375 228.6406 84.2344 Q228.6406 83.1094 228.1953 82.5 Q227.75 81.8906 226.9219 81.8906 Q226.0938 81.8906 225.6484 82.4766 Q225.2031 83.0625 225.2031 84.1719 Q225.2031 85.3281 225.6484 85.9609 Q226.0938 86.5938 226.9219 86.5938 ZM225.0156 82.1875 Q225.4219 81.75 225.9219 81.5312 Q226.4219 81.3125 227.0625 81.3125 Q228.3594 81.3125 229.1172 82.0938 Q229.875 82.875 229.875 84.2344 Q229.875 85.5625 229.0625 86.3672 Q228.25 87.1719 226.875 87.1719 Q225.3906 87.1719 224.5938 86.0625 Q223.7969 84.9531 223.7969 82.9062 Q223.7969 80.6094 224.7422 79.3516 Q225.6875 78.0938 227.4062 78.0938 Q227.875 78.0938 228.3828 78.1797 Q228.8906 78.2656 229.4219 78.4375 L229.4219 79.8906 L228.7656 79.8906 Q228.6875 79.2969 228.3047 78.9844 Q227.9219 78.6719 227.2812 78.6719 Q226.1406 78.6719 225.5859 79.5312 Q225.0312 80.3906 225.0156 82.1875 Z" style="fill:black; stroke:none;" /><rect height="8" style="stroke:none;" width="8" x="204" y="59" /><path d="M209.1875 65.4688 L208.9531 66.1094 Q208.7656 66.625 208.2031 66.9375 Q207.8438 67.1562 207.2031 67.1406 Q206.0469 67.1406 205.3281 66.2344 Q204.5938 65.3281 204.5938 63.8594 Q204.5938 62.4219 205.3281 61.4844 Q206.0156 60.5938 207.4531 60.6094 Q208.4531 60.6094 208.9531 61 Q209.4062 61.3438 209.5781 62.0938 L209.625 62.3125 L209.8438 61.6719 Q210.0625 61.0469 210.6562 60.75 L211.25 60.75 L211.25 61.0938 Q210.6875 61.2656 210.5 61.8125 L209.8906 63.4844 L210.2969 65.2812 Q210.5 66.2031 210.7344 66.2969 Q211.0469 66.4375 211.7812 66 L211.7812 66.7188 Q210.5938 67.4062 209.75 66.6875 Q209.375 66.3594 209.2656 65.875 L209.1875 65.4688 ZM208.9219 64.3125 L208.5625 62.5938 Q208.2656 61.2188 207.4688 61.2188 Q206.7969 61.2031 206.2812 61.9375 Q205.8594 62.5156 205.8594 63.875 Q205.8594 65.1719 206.2812 65.8281 Q206.75 66.5469 207.5312 66.5 Q208.2031 66.4375 208.6875 65 L208.9219 64.3125 Z" style="fill:black; stroke:none;" /></g><g ID="li-1:2,3" style="fill:white; text-rendering:optimizeSpeed; font-family:'Serif'; stroke:white;"><rect height="9" style="stroke:none;" width="8" x="278" y="96" /><path d="M282.1875 102.0312 L282.1875 97.375 L279.2031 102.0312 L282.1875 102.0312 ZM284.7656 105 L280.7812 105 L280.7812 104.375 L282.1875 104.375 L282.1875 102.6562 L278.375 102.6562 L278.375 102.0156 L282.2031 96.0938 L283.3594 96.0938 L283.3594 102.0312 L285.0312 102.0312 L285.0312 102.6562 L283.3594 102.6562 L283.3594 104.375 L284.7656 104.375 L284.7656 105 Z" style="fill:black; stroke:none;" /><rect height="13" style="stroke:none;" width="7" x="264" y="94" /><path d="M265.8281 106.25 Q266.2969 106.5938 267.1719 106.5938 Q268.0625 106.5938 268.5781 106.0703 Q269.0938 105.5469 269.0938 104.6562 Q269.0938 103.4219 268.5625 102.8906 Q268.0156 102.3594 267 102.3594 L266.4375 102.3594 L266.4375 101.7188 L266.7344 101.7188 Q267.4844 101.7188 268 101.2969 Q268.4219 100.9531 268.4219 100.0156 Q268.4219 99.6094 268.1406 99.1406 Q267.6875 98.375 267.1562 98.3906 Q265.8281 98.4375 265.8281 100.7812 L265.8281 106.25 ZM264.75 109.5 L264.75 100.7812 Q264.75 98.3281 266.0781 98 Q266.7656 97.8125 267.25 97.8125 Q268.3438 97.8125 269.0469 98.6719 Q269.6094 99.3594 269.6094 99.9375 Q269.6094 100.7812 269.2031 101.2656 Q268.7969 101.75 268.0625 101.9844 Q269.1406 102.1406 269.75 102.7812 Q270.3281 103.4062 270.3281 104.6328 Q270.3281 105.8594 269.5078 106.5156 Q268.6875 107.1719 267.1406 107.1719 Q266.1875 107.1719 265.8281 107.0312 L265.8281 109.5 L264.75 109.5 Z" style="fill:black; stroke:none;" /></g><g ID="li-1:1,2" style="fill:white; text-rendering:optimizeSpeed; font-family:'Serif'; stroke:white;"><rect height="9" style="stroke:none;" width="8" x="330" y="96" /><path d="M334.1875 102.0312 L334.1875 97.375 L331.2031 102.0312 L334.1875 102.0312 ZM336.7656 105 L332.7812 105 L332.7812 104.375 L334.1875 104.375 L334.1875 102.6562 L330.375 102.6562 L330.375 102.0156 L334.2031 96.0938 L335.3594 96.0938 L335.3594 102.0312 L337.0312 102.0312 L337.0312 102.6562 L335.3594 102.6562 L335.3594 104.375 L336.7656 104.375 L336.7656 105 Z" style="fill:black; stroke:none;" /><rect height="13" style="stroke:none;" width="7" x="316" y="94" /><path d="M317.8281 106.25 Q318.2969 106.5938 319.1719 106.5938 Q320.0625 106.5938 320.5781 106.0703 Q321.0938 105.5469 321.0938 104.6562 Q321.0938 103.4219 320.5625 102.8906 Q320.0156 102.3594 319 102.3594 L318.4375 102.3594 L318.4375 101.7188 L318.7344 101.7188 Q319.4844 101.7188 320 101.2969 Q320.4219 100.9531 320.4219 100.0156 Q320.4219 99.6094 320.1406 99.1406 Q319.6875 98.375 319.1562 98.3906 Q317.8281 98.4375 317.8281 100.7812 L317.8281 106.25 ZM316.75 109.5 L316.75 100.7812 Q316.75 98.3281 318.0781 98 Q318.7656 97.8125 319.25 97.8125 Q320.3438 97.8125 321.0469 98.6719 Q321.6094 99.3594 321.6094 99.9375 Q321.6094 100.7812 321.2031 101.2656 Q320.7969 101.75 320.0625 101.9844 Q321.1406 102.1406 321.75 102.7812 Q322.3281 103.4062 322.3281 104.6328 Q322.3281 105.8594 321.5078 106.5156 Q320.6875 107.1719 319.1406 107.1719 Q318.1875 107.1719 317.8281 107.0312 L317.8281 109.5 L316.75 109.5 Z" style="fill:black; stroke:none;" /></g></g></svg>