<svg xmlns="http://www.w3.org/2000/svg" style="fill-opacity:1; color-rendering:auto; color-interpolation:auto; text-rendering:auto; stroke:black; stroke-linecap:square; stroke-miterlimit:10; shape-rendering:auto; stroke-opacity:1; fill:black; stroke-dasharray:none; font-weight:normal; stroke-width:1; font-family:'Dialog'; font-style:normal; stroke-linejoin:miter; font-size:12px; stroke-dashoffset:0; image-rendering:auto;"><defs id="genericDefs" /><g><defs id="defs1"><clipPath clipPathUnits="userSpaceOnUse" id="clipPath1"><path d="M290 82 L312 82 L312 104 L290 104 L290 82 Z" /></clipPath><clipPath clipPathUnits="userSpaceOnUse" id="clipPath2"><path d="M238 82 L260 82 L260 104 L238 104 L238 82 Z" /></clipPath><clipPath clipPathUnits="userSpaceOnUse" id="clipPath3"><path d="M208 93 C208 99.0751 203.0751 104 197 104 C190.9249 104 186 99.0751 186 93 C186 86.9249 190.9249 82 197 82 C203.0751 82 208 86.9249 208 93 Z" /></clipPath><clipPath clipPathUnits="userSpaceOnUse" id="clipPath4"><path d="M156 145 C156 151.0751 151.0751 156 145 156 C138.9249 156 134 151.0751 134 145 C134 138.9249 138.9249 134 145 134 C151.0751 134 156 138.9249 156 145 Z" /></clipPath><clipPath clipPathUnits="userSpaceOnUse" id="clipPath5"><path d="M82 134 L104 134 L104 156 L82 156 L82 134 Z" /></clipPath><clipPath clipPathUnits="userSpaceOnUse" id="clipPath6"><path d="M93 186 L104 208 L82 208 Z" style="fill-rule:evenodd;" /></clipPath><clipPath clipPathUnits="userSpaceOnUse" id="clipPath7"><path d="M52 145 C52 151.0751 47.0751 156 41 156 C34.9249 156 30 151.0751 30 145 C30 138.9249 34.9249 134 41 134 C47.0751 134 52 138.9249 52 145 Z" /></clipPath><clipPath clipPathUnits="userSpaceOnUse" id="clipPath8"><path d="M41 186 L52 208 L30 208 Z" style="fill-rule:evenodd;" /></clipPath><clipPath clipPathUnits="userSpaceOnUse" id="clipPath9"><path d="M156 41 C156 47.0751 151.0751 52 145 52 C138.9249 52 134 47.0751 134 41 C134 34.9249 138.9249 30 145 30 C151.0751 30 156 34.9249 156 41 Z" /></clipPath><clipPath clipPathUnits="userSpaceOnUse" id="clipPath10"><path d="M82 30 L104 30 L104 52 L82 52 L82 30 Z" /></clipPath><clipPath clipPathUnits="userSpaceOnUse" id="clipPath11"><path d="M93 82 L104 104 L82 104 Z" style="fill-rule:evenodd;" /></clipPath><clipPath clipPathUnits="userSpaceOnUse" id="clipPath12"><path d="M52 41 C52 47.0751 47.0751 52 41 52 C34.9249 52 30 47.0751 30 41 C30 34.9249 34.9249 30 41 30 C47.0751 30 52 34.9249 52 41 Z" /></clipPath></defs><g style="fill:white; text-rendering:optimizeSpeed; stroke:white;"><rect height="238" style="stroke:none;" width="342" x="0" y="0" /></g><g ID="l-1:1,2" style="text-rendering:optimizeSpeed;"><polygon points=" 301 93 249 93" style="fill:none;" /></g><g ID="r-1:1" style="fill:white; text-rendering:optimizeSpeed; stroke:white;" wurcs_mono_id="1"><rect height="22" style="clip-path:url(#clipPath1); stroke:none;" width="22" x="290" y="82" /><rect height="22" style="clip-path:url(#clipPath1); fill:rgb(0,144,188); stroke:none;" width="22" x="290" y="82" /><rect height="22" style="clip-path:url(#clipPath1); fill:none; stroke:black;" width="22" x="290" y="82" /><rect height="22" style="fill:none; stroke:black;" width="22" x="290" y="82" /></g><g ID="l-1:2,3" style="text-rendering:optimizeSpeed;"><polygon points=" 249 93 197 93" style="fill:none;" /></g><g ID="r-1:2" style="fill:white; text-rendering:optimizeSpeed; stroke:white;" wurcs_mono_id="2"><rect height="22" style="clip-path:url(#clipPath2); stroke:none;" width="22" x="238" y="82" /><rect height="22" style="clip-path:url(#clipPath2); fill:rgb(0,144,188); stroke:none;" width="22" x="238" y="82" /><rect height="22" style="clip-path:url(#clipPath2); fill:none; stroke:black;" width="22" x="238" y="82" /><rect height="22" style="fill:none; stroke:black;" width="22" x="238" y="82" /></g><g ID="l-1:3,4" style="text-rendering:optimizeSpeed;"><polygon points=" 197 93 145 145" style="fill:none;" /></g><g ID="l-1:3,5" style="text-rendering:optimizeSpeed;"><polygon points=" 197 93 145 41" style="fill:none;" /></g><g ID="r-1:3" style="fill:white; text-rendering:optimizeSpeed; stroke:white;" wurcs_mono_id="3"><circle cx="197" cy="93" r="11" style="clip-path:url(#clipPath3); stroke:none;" /><rect height="22" style="clip-path:url(#clipPath3); fill:rgb(0,166,81); stroke:none;" width="22" x="186" y="82" /><rect height="22" style="clip-path:url(#clipPath3); fill:none; stroke:black;" width="22" x="186" y="82" /><circle cx="197" cy="93" r="11" style="fill:none; stroke:black;" /></g><g ID="l-1:4,6" style="text-rendering:optimizeSpeed;"><polygon points=" 145 145 93 145" style="fill:none;" /></g><g ID="r-1:4" style="fill:white; text-rendering:optimizeSpeed; stroke:white;" wurcs_mono_id="4"><circle cx="145" cy="145" r="11" style="clip-path:url(#clipPath4); stroke:none;" /><rect height="22" style="clip-path:url(#clipPath4); fill:rgb(0,166,81); stroke:none;" width="22" x="134" y="134" /><rect height="22" style="clip-path:url(#clipPath4); fill:none; stroke:black;" width="22" x="134" y="134" /><circle cx="145" cy="145" r="11" style="fill:none; stroke:black;" /></g><g ID="l-1:6,7" style="text-rendering:optimizeSpeed;"><polygon points=" 93 145 93 197" style="fill:none;" /></g><g ID="l-1:6,8" style="text-rendering:optimizeSpeed;"><polygon points=" 93 145 41 145" style="fill:none;" /></g><g ID="r-1:6" style="fill:white; text-rendering:optimizeSpeed; stroke:white;" wurcs_mono_id="5"><rect height="22" style="clip-path:url(#clipPath5); stroke:none;" width="22" x="82" y="134" /><rect height="22" style="clip-path:url(#clipPath5); fill:rgb(0,144,188); stroke:none;" width="22" x="82" y="134" /><rect height="22" style="clip-path:url(#clipPath5); fill:none; stroke:black;" width="22" x="82" y="134" /><rect height="22" style="fill:none; stroke:black;" width="22" x="82" y="134" /></g><g ID="r-1:7" style="fill:white; text-rendering:optimizeSpeed; stroke:white;" wurcs_mono_id="6"><polygon points=" 93 186 104 208 82 208" style="stroke:none; clip-path:url(#clipPath6);" /><rect height="22" style="clip-path:url(#clipPath6); fill:rgb(237,28,36); stroke:none;" width="22" x="82" y="186" /><rect height="22" style="clip-path:url(#clipPath6); fill:none; stroke:black;" width="22" x="82" y="186" /><polygon points=" 93 186 104 208 82 208" style="fill:none; stroke:black;" /></g><g ID="l-1:8,9" style="text-rendering:optimizeSpeed;"><polygon points=" 41 145 41 197" style="fill:none;" /></g><g ID="r-1:8" style="fill:white; text-rendering:optimizeSpeed; stroke:white;" wurcs_mono_id="7"><circle cx="41" cy="145" r="11" style="clip-path:url(#clipPath7); stroke:none;" /><rect height="22" style="clip-path:url(#clipPath7); fill:rgb(255,212,0); stroke:none;" width="22" x="30" y="134" /><rect height="22" style="clip-path:url(#clipPath7); fill:none; stroke:black;" width="22" x="30" y="134" /><circle cx="41" cy="145" r="11" style="fill:none; stroke:black;" /></g><g ID="r-1:9" style="fill:white; text-rendering:optimizeSpeed; stroke:white;" wurcs_mono_id="8"><polygon points=" 41 186 52 208 30 208" style="stroke:none; clip-path:url(#clipPath8);" /><rect height="22" style="clip-path:url(#clipPath8); fill:rgb(237,28,36); stroke:none;" width="22" x="30" y="186" /><rect height="22" style="clip-path:url(#clipPath8); fill:none; stroke:black;" width="22" x="30" y="186" /><polygon points=" 41 186 52 208 30 208" style="fill:none; stroke:black;" /></g><g ID="li-1:8,9" style="fill:white; text-rendering:optimizeSpeed; font-family:'Serif'; stroke:white;"><rect height="9" style="stroke:none;" width="7" x="45" y="159" /><path d="M46.5312 161.3438 L45.875 161.3438 L45.875 159.7812 Q46.5 159.4375 47.1406 159.2656 Q47.7812 159.0938 48.3906 159.0938 Q49.75 159.0938 50.5391 159.7578 Q51.3281 160.4219 51.3281 161.5469 Q51.3281 162.8438 49.5469 164.625 Q49.4062 164.7656 49.3281 164.8281 L47.125 167.0312 L50.7656 167.0312 L50.7656 165.9531 L51.4531 165.9531 L51.4531 168 L45.8125 168 L45.8125 167.3594 L48.4688 164.7188 Q49.3438 163.8281 49.7188 163.0938 Q50.0938 162.3594 50.0938 161.5469 Q50.0938 160.6719 49.6328 160.1719 Q49.1719 159.6719 48.375 159.6719 Q47.5312 159.6719 47.0781 160.0859 Q46.625 160.5 46.5312 161.3438 Z" style="fill:black; stroke:none;" /><rect height="8" style="stroke:none;" width="8" x="45" y="174" /><path d="M50.1875 180.4688 L49.9531 181.1094 Q49.7656 181.625 49.2031 181.9375 Q48.8438 182.1562 48.2031 182.1406 Q47.0469 182.1406 46.3281 181.2344 Q45.5938 180.3281 45.5938 178.8594 Q45.5938 177.4219 46.3281 176.4844 Q47.0156 175.5938 48.4531 175.6094 Q49.4531 175.6094 49.9531 176 Q50.4062 176.3438 50.5781 177.0938 L50.625 177.3125 L50.8438 176.6719 Q51.0625 176.0469 51.6562 175.75 L52.25 175.75 L52.25 176.0938 Q51.6875 176.2656 51.5 176.8125 L50.8906 178.4844 L51.2969 180.2812 Q51.5 181.2031 51.7344 181.2969 Q52.0469 181.4375 52.7812 181 L52.7812 181.7188 Q51.5938 182.4062 50.75 181.6875 Q50.375 181.3594 50.2656 180.875 L50.1875 180.4688 ZM49.9219 179.3125 L49.5625 177.5938 Q49.2656 176.2188 48.4688 176.2188 Q47.7969 176.2031 47.2812 176.9375 Q46.8594 177.5156 46.8594 178.875 Q46.8594 180.1719 47.2812 180.8281 Q47.75 181.5469 48.5312 181.5 Q49.2031 181.4375 49.6875 180 L49.9219 179.3125 Z" style="fill:black; stroke:none;" /></g><g ID="li-1:6,7" style="fill:white; text-rendering:optimizeSpeed; font-family:'Serif'; stroke:white;"><rect height="10" style="stroke:none;" width="7" x="97" y="159" /><path d="M98.1719 160.625 Q98.8594 160.3594 99.4844 160.2266 Q100.1094 160.0938 100.6562 160.0938 Q101.9531 160.0938 102.6719 160.6484 Q103.3906 161.2031 103.3906 162.1875 Q103.3906 162.9688 102.8906 163.5 Q102.3906 164.0312 101.4844 164.2188 Q102.5625 164.375 103.1562 165.0078 Q103.75 165.6406 103.75 166.6406 Q103.75 167.8594 102.9219 168.5156 Q102.0938 169.1719 100.5469 169.1719 Q99.8594 169.1719 99.2109 169.0234 Q98.5625 168.875 97.9219 168.5781 L97.9219 166.875 L98.5781 166.875 Q98.625 167.7188 99.1406 168.1562 Q99.6562 168.5938 100.5781 168.5938 Q101.4688 168.5938 101.9922 168.0703 Q102.5156 167.5469 102.5156 166.6562 Q102.5156 165.625 101.9766 165.0938 Q101.4375 164.5625 100.4062 164.5625 L99.8594 164.5625 L99.8594 163.9531 L100.1406 163.9531 Q101.1719 163.9531 101.6875 163.5312 Q102.2031 163.1094 102.2031 162.25 Q102.2031 161.4844 101.7812 161.0781 Q101.3594 160.6719 100.5625 160.6719 Q99.7656 160.6719 99.3359 161.0469 Q98.9062 161.4219 98.8281 162.1562 L98.1719 162.1562 L98.1719 160.625 Z" style="fill:black; stroke:none;" /><rect height="8" style="stroke:none;" width="8" x="97" y="174" /><path d="M102.1875 180.4688 L101.9531 181.1094 Q101.7656 181.625 101.2031 181.9375 Q100.8438 182.1562 100.2031 182.1406 Q99.0469 182.1406 98.3281 181.2344 Q97.5938 180.3281 97.5938 178.8594 Q97.5938 177.4219 98.3281 176.4844 Q99.0156 175.5938 100.4531 175.6094 Q101.4531 175.6094 101.9531 176 Q102.4062 176.3438 102.5781 177.0938 L102.625 177.3125 L102.8438 176.6719 Q103.0625 176.0469 103.6562 175.75 L104.25 175.75 L104.25 176.0938 Q103.6875 176.2656 103.5 176.8125 L102.8906 178.4844 L103.2969 180.2812 Q103.5 181.2031 103.7344 181.2969 Q104.0469 181.4375 104.7812 181 L104.7812 181.7188 Q103.5938 182.4062 102.75 181.6875 Q102.375 181.3594 102.2656 180.875 L102.1875 180.4688 ZM101.9219 179.3125 L101.5625 177.5938 Q101.2656 176.2188 100.4688 176.2188 Q99.7969 176.2031 99.2812 176.9375 Q98.8594 177.5156 98.8594 178.875 Q98.8594 180.1719 99.2812 180.8281 Q99.75 181.5469 100.5312 181.5 Q101.2031 181.4375 101.6875 180 L101.9219 179.3125 Z" style="fill:black; stroke:none;" /></g><g ID="li-1:6,8" style="fill:white; text-rendering:optimizeSpeed; font-family:'Serif'; stroke:white;"><rect height="9" style="stroke:none;" width="8" x="70" y="148" /><path d="M74.1875 154.0312 L74.1875 149.375 L71.2031 154.0312 L74.1875 154.0312 ZM76.7656 157 L72.7812 157 L72.7812 156.375 L74.1875 156.375 L74.1875 154.6562 L70.375 154.6562 L70.375 154.0156 L74.2031 148.0938 L75.3594 148.0938 L75.3594 154.0312 L77.0312 154.0312 L77.0312 154.6562 L75.3594 154.6562 L75.3594 156.375 L76.7656 156.375 L76.7656 157 Z" style="fill:black; stroke:none;" /><rect height="13" style="stroke:none;" width="7" x="56" y="146" /><path d="M57.8281 158.25 Q58.2969 158.5938 59.1719 158.5938 Q60.0625 158.5938 60.5781 158.0703 Q61.0938 157.5469 61.0938 156.6562 Q61.0938 155.4219 60.5625 154.8906 Q60.0156 154.3594 59 154.3594 L58.4375 154.3594 L58.4375 153.7188 L58.7344 153.7188 Q59.4844 153.7188 60 153.2969 Q60.4219 152.9531 60.4219 152.0156 Q60.4219 151.6094 60.1406 151.1406 Q59.6875 150.375 59.1562 150.3906 Q57.8281 150.4375 57.8281 152.7812 L57.8281 158.25 ZM56.75 161.5 L56.75 152.7812 Q56.75 150.3281 58.0781 150 Q58.7656 149.8125 59.25 149.8125 Q60.3438 149.8125 61.0469 150.6719 Q61.6094 151.3594 61.6094 151.9375 Q61.6094 152.7812 61.2031 153.2656 Q60.7969 153.75 60.0625 153.9844 Q61.1406 154.1406 61.75 154.7812 Q62.3281 155.4062 62.3281 156.6328 Q62.3281 157.8594 61.5078 158.5156 Q60.6875 159.1719 59.1406 159.1719 Q58.1875 159.1719 57.8281 159.0312 L57.8281 161.5 L56.75 161.5 Z" style="fill:black; stroke:none;" /></g><g ID="li-1:4,6" style="fill:white; text-rendering:optimizeSpeed; font-family:'Serif'; stroke:white;"><rect height="9" style="stroke:none;" width="7" x="122" y="148" /><path d="M123.5312 150.3438 L122.875 150.3438 L122.875 148.7812 Q123.5 148.4375 124.1406 148.2656 Q124.7812 148.0938 125.3906 148.0938 Q126.75 148.0938 127.5391 148.7578 Q128.3281 149.4219 128.3281 150.5469 Q128.3281 151.8438 126.5469 153.625 Q126.4062 153.7656 126.3281 153.8281 L124.125 156.0312 L127.7656 156.0312 L127.7656 154.9531 L128.4531 154.9531 L128.4531 157 L122.8125 157 L122.8125 156.3594 L125.4688 153.7188 Q126.3438 152.8281 126.7188 152.0938 Q127.0938 151.3594 127.0938 150.5469 Q127.0938 149.6719 126.6328 149.1719 Q126.1719 148.6719 125.375 148.6719 Q124.5312 148.6719 124.0781 149.0859 Q123.625 149.5 123.5312 150.3438 Z" style="fill:black; stroke:none;" /><rect height="13" style="stroke:none;" width="7" x="108" y="146" /><path d="M109.8281 158.25 Q110.2969 158.5938 111.1719 158.5938 Q112.0625 158.5938 112.5781 158.0703 Q113.0938 157.5469 113.0938 156.6562 Q113.0938 155.4219 112.5625 154.8906 Q112.0156 154.3594 111 154.3594 L110.4375 154.3594 L110.4375 153.7188 L110.7344 153.7188 Q111.4844 153.7188 112 153.2969 Q112.4219 152.9531 112.4219 152.0156 Q112.4219 151.6094 112.1406 151.1406 Q111.6875 150.375 111.1562 150.3906 Q109.8281 150.4375 109.8281 152.7812 L109.8281 158.25 ZM108.75 161.5 L108.75 152.7812 Q108.75 150.3281 110.0781 150 Q110.7656 149.8125 111.25 149.8125 Q112.3438 149.8125 113.0469 150.6719 Q113.6094 151.3594 113.6094 151.9375 Q113.6094 152.7812 113.2031 153.2656 Q112.7969 153.75 112.0625 153.9844 Q113.1406 154.1406 113.75 154.7812 Q114.3281 155.4062 114.3281 156.6328 Q114.3281 157.8594 113.5078 158.5156 Q112.6875 159.1719 111.1406 159.1719 Q110.1875 159.1719 109.8281 159.0312 L109.8281 161.5 L108.75 161.5 Z" style="fill:black; stroke:none;" /></g><g ID="l-1:5,10" style="text-rendering:optimizeSpeed;"><polygon points=" 145 41 93 41" style="fill:none;" /></g><g ID="r-1:5" style="fill:white; text-rendering:optimizeSpeed; stroke:white;" wurcs_mono_id="9"><circle cx="145" cy="41" r="11" style="clip-path:url(#clipPath9); stroke:none;" /><rect height="22" style="clip-path:url(#clipPath9); fill:rgb(0,166,81); stroke:none;" width="22" x="134" y="30" /><rect height="22" style="clip-path:url(#clipPath9); fill:none; stroke:black;" width="22" x="134" y="30" /><circle cx="145" cy="41" r="11" style="fill:none; stroke:black;" /></g><g ID="l-1:10,11" style="text-rendering:optimizeSpeed;"><polygon points=" 93 41 93 93" style="fill:none;" /></g><g ID="l-1:10,12" style="text-rendering:optimizeSpeed;"><polygon points=" 93 41 41 41" style="fill:none;" /></g><g ID="r-1:10" style="fill:white; text-rendering:optimizeSpeed; stroke:white;" wurcs_mono_id="10"><rect height="22" style="clip-path:url(#clipPath10); stroke:none;" width="22" x="82" y="30" /><rect height="22" style="clip-path:url(#clipPath10); fill:rgb(0,144,188); stroke:none;" width="22" x="82" y="30" /><rect height="22" style="clip-path:url(#clipPath10); fill:none; stroke:black;" width="22" x="82" y="30" /><rect height="22" style="fill:none; stroke:black;" width="22" x="82" y="30" /></g><g ID="r-1:11" style="fill:white; text-rendering:optimizeSpeed; stroke:white;" wurcs_mono_id="11"><polygon points=" 93 82 104 104 82 104" style="stroke:none; clip-path:url(#clipPath11);" /><rect height="22" style="clip-path:url(#clipPath11); fill:rgb(237,28,36); stroke:none;" width="22" x="82" y="82" /><rect height="22" style="clip-path:url(#clipPath11); fill:none; stroke:black;" width="22" x="82" y="82" /><polygon points=" 93 82 104 104 82 104" style="fill:none; stroke:black;" /></g><g ID="r-1:12" style="fill:white; text-rendering:optimizeSpeed; stroke:white;" wurcs_mono_id="12"><circle cx="41" cy="41" r="11" style="clip-path:url(#clipPath12); stroke:none;" /><rect height="22" style="clip-path:url(#clipPath12); fill:rgb(255,212,0); stroke:none;" width="22" x="30" y="30" /><rect height="22" style="clip-path:url(#clipPath12); fill:none; stroke:black;" width="22" x="30" y="30" /><circle cx="41" cy="41" r="11" style="fill:none; stroke:black;" /></g><g ID="li-1:10,11" style="fill:white; text-rendering:optimizeSpeed; font-family:'Serif'; stroke:white;"><rect height="10" style="stroke:none;" width="7" x="97" y="55" /><path d="M98.1719 56.625 Q98.8594 56.3594 99.4844 56.2266 Q100.1094 56.0938 100.6562 56.0938 Q101.9531 56.0938 102.6719 56.6484 Q103.3906 57.2031 103.3906 58.1875 Q103.3906 58.9688 102.8906 59.5 Q102.3906 60.0312 101.4844 60.2188 Q102.5625 60.375 103.1562 61.0078 Q103.75 61.6406 103.75 62.6406 Q103.75 63.8594 102.9219 64.5156 Q102.0938 65.1719 100.5469 65.1719 Q99.8594 65.1719 99.2109 65.0234 Q98.5625 64.875 97.9219 64.5781 L97.9219 62.875 L98.5781 62.875 Q98.625 63.7188 99.1406 64.1562 Q99.6562 64.5938 100.5781 64.5938 Q101.4688 64.5938 101.9922 64.0703 Q102.5156 63.5469 102.5156 62.6562 Q102.5156 61.625 101.9766 61.0938 Q101.4375 60.5625 100.4062 60.5625 L99.8594 60.5625 L99.8594 59.9531 L100.1406 59.9531 Q101.1719 59.9531 101.6875 59.5312 Q102.2031 59.1094 102.2031 58.25 Q102.2031 57.4844 101.7812 57.0781 Q101.3594 56.6719 100.5625 56.6719 Q99.7656 56.6719 99.3359 57.0469 Q98.9062 57.4219 98.8281 58.1562 L98.1719 58.1562 L98.1719 56.625 Z" style="fill:black; stroke:none;" /><rect height="8" style="stroke:none;" width="8" x="97" y="70" /><path d="M102.1875 76.4688 L101.9531 77.1094 Q101.7656 77.625 101.2031 77.9375 Q100.8438 78.1562 100.2031 78.1406 Q99.0469 78.1406 98.3281 77.2344 Q97.5938 76.3281 97.5938 74.8594 Q97.5938 73.4219 98.3281 72.4844 Q99.0156 71.5938 100.4531 71.6094 Q101.4531 71.6094 101.9531 72 Q102.4062 72.3438 102.5781 73.0938 L102.625 73.3125 L102.8438 72.6719 Q103.0625 72.0469 103.6562 71.75 L104.25 71.75 L104.25 72.0938 Q103.6875 72.2656 103.5 72.8125 L102.8906 74.4844 L103.2969 76.2812 Q103.5 77.2031 103.7344 77.2969 Q104.0469 77.4375 104.7812 77 L104.7812 77.7188 Q103.5938 78.4062 102.75 77.6875 Q102.375 77.3594 102.2656 76.875 L102.1875 76.4688 ZM101.9219 75.3125 L101.5625 73.5938 Q101.2656 72.2188 100.4688 72.2188 Q99.7969 72.2031 99.2812 72.9375 Q98.8594 73.5156 98.8594 74.875 Q98.8594 76.1719 99.2812 76.8281 Q99.75 77.5469 100.5312 77.5 Q101.2031 77.4375 101.6875 76 L101.9219 75.3125 Z" style="fill:black; stroke:none;" /></g><g ID="li-1:10,12" style="fill:white; text-rendering:optimizeSpeed; font-family:'Serif'; stroke:white;"><rect height="9" style="stroke:none;" width="8" x="70" y="44" /><path d="M74.1875 50.0312 L74.1875 45.375 L71.2031 50.0312 L74.1875 50.0312 ZM76.7656 53 L72.7812 53 L72.7812 52.375 L74.1875 52.375 L74.1875 50.6562 L70.375 50.6562 L70.375 50.0156 L74.2031 44.0938 L75.3594 44.0938 L75.3594 50.0312 L77.0312 50.0312 L77.0312 50.6562 L75.3594 50.6562 L75.3594 52.375 L76.7656 52.375 L76.7656 53 Z" style="fill:black; stroke:none;" /><rect height="13" style="stroke:none;" width="7" x="56" y="42" /><path d="M57.8281 54.25 Q58.2969 54.5938 59.1719 54.5938 Q60.0625 54.5938 60.5781 54.0703 Q61.0938 53.5469 61.0938 52.6562 Q61.0938 51.4219 60.5625 50.8906 Q60.0156 50.3594 59 50.3594 L58.4375 50.3594 L58.4375 49.7188 L58.7344 49.7188 Q59.4844 49.7188 60 49.2969 Q60.4219 48.9531 60.4219 48.0156 Q60.4219 47.6094 60.1406 47.1406 Q59.6875 46.375 59.1562 46.3906 Q57.8281 46.4375 57.8281 48.7812 L57.8281 54.25 ZM56.75 57.5 L56.75 48.7812 Q56.75 46.3281 58.0781 46 Q58.7656 45.8125 59.25 45.8125 Q60.3438 45.8125 61.0469 46.6719 Q61.6094 47.3594 61.6094 47.9375 Q61.6094 48.7812 61.2031 49.2656 Q60.7969 49.75 60.0625 49.9844 Q61.1406 50.1406 61.75 50.7812 Q62.3281 51.4062 62.3281 52.6328 Q62.3281 53.8594 61.5078 54.5156 Q60.6875 55.1719 59.1406 55.1719 Q58.1875 55.1719 57.8281 55.0312 L57.8281 57.5 L56.75 57.5 Z" style="fill:black; stroke:none;" /></g><g ID="li-1:5,10" style="fill:white; text-rendering:optimizeSpeed; font-family:'Serif'; stroke:white;"><rect height="9" style="stroke:none;" width="7" x="122" y="44" /><path d="M123.5312 46.3438 L122.875 46.3438 L122.875 44.7812 Q123.5 44.4375 124.1406 44.2656 Q124.7812 44.0938 125.3906 44.0938 Q126.75 44.0938 127.5391 44.7578 Q128.3281 45.4219 128.3281 46.5469 Q128.3281 47.8438 126.5469 49.625 Q126.4062 49.7656 126.3281 49.8281 L124.125 52.0312 L127.7656 52.0312 L127.7656 50.9531 L128.4531 50.9531 L128.4531 53 L122.8125 53 L122.8125 52.3594 L125.4688 49.7188 Q126.3438 48.8281 126.7188 48.0938 Q127.0938 47.3594 127.0938 46.5469 Q127.0938 45.6719 126.6328 45.1719 Q126.1719 44.6719 125.375 44.6719 Q124.5312 44.6719 124.0781 45.0859 Q123.625 45.5 123.5312 46.3438 Z" style="fill:black; stroke:none;" /><rect height="13" style="stroke:none;" width="7" x="108" y="42" /><path d="M109.8281 54.25 Q110.2969 54.5938 111.1719 54.5938 Q112.0625 54.5938 112.5781 54.0703 Q113.0938 53.5469 113.0938 52.6562 Q113.0938 51.4219 112.5625 50.8906 Q112.0156 50.3594 111 50.3594 L110.4375 50.3594 L110.4375 49.7188 L110.7344 49.7188 Q111.4844 49.7188 112 49.2969 Q112.4219 48.9531 112.4219 48.0156 Q112.4219 47.6094 112.1406 47.1406 Q111.6875 46.375 111.1562 46.3906 Q109.8281 46.4375 109.8281 48.7812 L109.8281 54.25 ZM108.75 57.5 L108.75 48.7812 Q108.75 46.3281 110.0781 46 Q110.7656 45.8125 111.25 45.8125 Q112.3438 45.8125 113.0469 46.6719 Q113.6094 47.3594 113.6094 47.9375 Q113.6094 48.7812 113.2031 49.2656 Q112.7969 49.75 112.0625 49.9844 Q113.1406 50.1406 113.75 50.7812 Q114.3281 51.4062 114.3281 52.6328 Q114.3281 53.8594 113.5078 54.5156 Q112.6875 55.1719 111.1406 55.1719 Q110.1875 55.1719 109.8281 55.0312 L109.8281 57.5 L108.75 57.5 Z" style="fill:black; stroke:none;" /></g><g ID="li-1:3,4" style="fill:white; text-rendering:optimizeSpeed; font-family:'Serif'; stroke:white;"><rect height="10" style="stroke:none;" width="7" x="182" y="110" /><path d="M183.1719 111.625 Q183.8594 111.3594 184.4844 111.2266 Q185.1094 111.0938 185.6562 111.0938 Q186.9531 111.0938 187.6719 111.6484 Q188.3906 112.2031 188.3906 113.1875 Q188.3906 113.9688 187.8906 114.5 Q187.3906 115.0312 186.4844 115.2188 Q187.5625 115.375 188.1562 116.0078 Q188.75 116.6406 188.75 117.6406 Q188.75 118.8594 187.9219 119.5156 Q187.0938 120.1719 185.5469 120.1719 Q184.8594 120.1719 184.2109 120.0234 Q183.5625 119.875 182.9219 119.5781 L182.9219 117.875 L183.5781 117.875 Q183.625 118.7188 184.1406 119.1562 Q184.6562 119.5938 185.5781 119.5938 Q186.4688 119.5938 186.9922 119.0703 Q187.5156 118.5469 187.5156 117.6562 Q187.5156 116.625 186.9766 116.0938 Q186.4375 115.5625 185.4062 115.5625 L184.8594 115.5625 L184.8594 114.9531 L185.1406 114.9531 Q186.1719 114.9531 186.6875 114.5312 Q187.2031 114.1094 187.2031 113.25 Q187.2031 112.4844 186.7812 112.0781 Q186.3594 111.6719 185.5625 111.6719 Q184.7656 111.6719 184.3359 112.0469 Q183.9062 112.4219 183.8281 113.1562 L183.1719 113.1562 L183.1719 111.625 Z" style="fill:black; stroke:none;" /><rect height="8" style="stroke:none;" width="8" x="163" y="130" /><path d="M168.1875 136.4688 L167.9531 137.1094 Q167.7656 137.625 167.2031 137.9375 Q166.8438 138.1562 166.2031 138.1406 Q165.0469 138.1406 164.3281 137.2344 Q163.5938 136.3281 163.5938 134.8594 Q163.5938 133.4219 164.3281 132.4844 Q165.0156 131.5938 166.4531 131.6094 Q167.4531 131.6094 167.9531 132 Q168.4062 132.3438 168.5781 133.0938 L168.625 133.3125 L168.8438 132.6719 Q169.0625 132.0469 169.6562 131.75 L170.25 131.75 L170.25 132.0938 Q169.6875 132.2656 169.5 132.8125 L168.8906 134.4844 L169.2969 136.2812 Q169.5 137.2031 169.7344 137.2969 Q170.0469 137.4375 170.7812 137 L170.7812 137.7188 Q169.5938 138.4062 168.75 137.6875 Q168.375 137.3594 168.2656 136.875 L168.1875 136.4688 ZM167.9219 135.3125 L167.5625 133.5938 Q167.2656 132.2188 166.4688 132.2188 Q165.7969 132.2031 165.2812 132.9375 Q164.8594 133.5156 164.8594 134.875 Q164.8594 136.1719 165.2812 136.8281 Q165.75 137.5469 166.5312 137.5 Q167.2031 137.4375 167.6875 136 L167.9219 135.3125 Z" style="fill:black; stroke:none;" /></g><g ID="li-1:3,5" style="fill:white; text-rendering:optimizeSpeed; font-family:'Serif'; stroke:white;"><rect height="10" style="stroke:none;" width="7" x="171" y="77" /><path d="M174.9219 86.5938 Q175.75 86.5938 176.1953 85.9844 Q176.6406 85.375 176.6406 84.2344 Q176.6406 83.1094 176.1953 82.5 Q175.75 81.8906 174.9219 81.8906 Q174.0938 81.8906 173.6484 82.4766 Q173.2031 83.0625 173.2031 84.1719 Q173.2031 85.3281 173.6484 85.9609 Q174.0938 86.5938 174.9219 86.5938 ZM173.0156 82.1875 Q173.4219 81.75 173.9219 81.5312 Q174.4219 81.3125 175.0625 81.3125 Q176.3594 81.3125 177.1172 82.0938 Q177.875 82.875 177.875 84.2344 Q177.875 85.5625 177.0625 86.3672 Q176.25 87.1719 174.875 87.1719 Q173.3906 87.1719 172.5938 86.0625 Q171.7969 84.9531 171.7969 82.9062 Q171.7969 80.6094 172.7422 79.3516 Q173.6875 78.0938 175.4062 78.0938 Q175.875 78.0938 176.3828 78.1797 Q176.8906 78.2656 177.4219 78.4375 L177.4219 79.8906 L176.7656 79.8906 Q176.6875 79.2969 176.3047 78.9844 Q175.9219 78.6719 175.2812 78.6719 Q174.1406 78.6719 173.5859 79.5312 Q173.0312 80.3906 173.0156 82.1875 Z" style="fill:black; stroke:none;" /><rect height="8" style="stroke:none;" width="8" x="152" y="59" /><path d="M157.1875 65.4688 L156.9531 66.1094 Q156.7656 66.625 156.2031 66.9375 Q155.8438 67.1562 155.2031 67.1406 Q154.0469 67.1406 153.3281 66.2344 Q152.5938 65.3281 152.5938 63.8594 Q152.5938 62.4219 153.3281 61.4844 Q154.0156 60.5938 155.4531 60.6094 Q156.4531 60.6094 156.9531 61 Q157.4062 61.3438 157.5781 62.0938 L157.625 62.3125 L157.8438 61.6719 Q158.0625 61.0469 158.6562 60.75 L159.25 60.75 L159.25 61.0938 Q158.6875 61.2656 158.5 61.8125 L157.8906 63.4844 L158.2969 65.2812 Q158.5 66.2031 158.7344 66.2969 Q159.0469 66.4375 159.7812 66 L159.7812 66.7188 Q158.5938 67.4062 157.75 66.6875 Q157.375 66.3594 157.2656 65.875 L157.1875 65.4688 ZM156.9219 64.3125 L156.5625 62.5938 Q156.2656 61.2188 155.4688 61.2188 Q154.7969 61.2031 154.2812 61.9375 Q153.8594 62.5156 153.8594 63.875 Q153.8594 65.1719 154.2812 65.8281 Q154.75 66.5469 155.5312 66.5 Q156.2031 66.4375 156.6875 65 L156.9219 64.3125 Z" style="fill:black; stroke:none;" /></g><g ID="li-1:2,3" style="fill:white; text-rendering:optimizeSpeed; font-family:'Serif'; stroke:white;"><rect height="9" style="stroke:none;" width="8" x="226" y="96" /><path d="M230.1875 102.0312 L230.1875 97.375 L227.2031 102.0312 L230.1875 102.0312 ZM232.7656 105 L228.7812 105 L228.7812 104.375 L230.1875 104.375 L230.1875 102.6562 L226.375 102.6562 L226.375 102.0156 L230.2031 96.0938 L231.3594 96.0938 L231.3594 102.0312 L233.0312 102.0312 L233.0312 102.6562 L231.3594 102.6562 L231.3594 104.375 L232.7656 104.375 L232.7656 105 Z" style="fill:black; stroke:none;" /><rect height="13" style="stroke:none;" width="7" x="212" y="94" /><path d="M213.8281 106.25 Q214.2969 106.5938 215.1719 106.5938 Q216.0625 106.5938 216.5781 106.0703 Q217.0938 105.5469 217.0938 104.6562 Q217.0938 103.4219 216.5625 102.8906 Q216.0156 102.3594 215 102.3594 L214.4375 102.3594 L214.4375 101.7188 L214.7344 101.7188 Q215.4844 101.7188 216 101.2969 Q216.4219 100.9531 216.4219 100.0156 Q216.4219 99.6094 216.1406 99.1406 Q215.6875 98.375 215.1562 98.3906 Q213.8281 98.4375 213.8281 100.7812 L213.8281 106.25 ZM212.75 109.5 L212.75 100.7812 Q212.75 98.3281 214.0781 98 Q214.7656 97.8125 215.25 97.8125 Q216.3438 97.8125 217.0469 98.6719 Q217.6094 99.3594 217.6094 99.9375 Q217.6094 100.7812 217.2031 101.2656 Q216.7969 101.75 216.0625 101.9844 Q217.1406 102.1406 217.75 102.7812 Q218.3281 103.4062 218.3281 104.6328 Q218.3281 105.8594 217.5078 106.5156 Q216.6875 107.1719 215.1406 107.1719 Q214.1875 107.1719 213.8281 107.0312 L213.8281 109.5 L212.75 109.5 Z" style="fill:black; stroke:none;" /></g><g ID="li-1:1,2" style="fill:white; text-rendering:optimizeSpeed; font-family:'Serif'; stroke:white;"><rect height="9" style="stroke:none;" width="8" x="278" y="96" /><path d="M282.1875 102.0312 L282.1875 97.375 L279.2031 102.0312 L282.1875 102.0312 ZM284.7656 105 L280.7812 105 L280.7812 104.375 L282.1875 104.375 L282.1875 102.6562 L278.375 102.6562 L278.375 102.0156 L282.2031 96.0938 L283.3594 96.0938 L283.3594 102.0312 L285.0312 102.0312 L285.0312 102.6562 L283.3594 102.6562 L283.3594 104.375 L284.7656 104.375 L284.7656 105 Z" style="fill:black; stroke:none;" /><rect height="13" style="stroke:none;" width="7" x="264" y="94" /><path d="M265.8281 106.25 Q266.2969 106.5938 267.1719 106.5938 Q268.0625 106.5938 268.5781 106.0703 Q269.0938 105.5469 269.0938 104.6562 Q269.0938 103.4219 268.5625 102.8906 Q268.0156 102.3594 267 102.3594 L266.4375 102.3594 L266.4375 101.7188 L266.7344 101.7188 Q267.4844 101.7188 268 101.2969 Q268.4219 100.9531 268.4219 100.0156 Q268.4219 99.6094 268.1406 99.1406 Q267.6875 98.375 267.1562 98.3906 Q265.8281 98.4375 265.8281 100.7812 L265.8281 106.25 ZM264.75 109.5 L264.75 100.7812 Q264.75 98.3281 266.0781 98 Q266.7656 97.8125 267.25 97.8125 Q268.3438 97.8125 269.0469 98.6719 Q269.6094 99.3594 269.6094 99.9375 Q269.6094 100.7812 269.2031 101.2656 Q268.7969 101.75 268.0625 101.9844 Q269.1406 102.1406 269.75 102.7812 Q270.3281 103.4062 270.3281 104.6328 Q270.3281 105.8594 269.5078 106.5156 Q268.6875 107.1719 267.1406 107.1719 Q266.1875 107.1719 265.8281 107.0312 L265.8281 109.5 L264.75 109.5 Z" style="fill:black; stroke:none;" /></g></g></svg>