<svg xmlns="http://www.w3.org/2000/svg" style="fill-opacity:1; color-rendering:auto; color-interpolation:auto; text-rendering:auto; stroke:black; stroke-linecap:square; stroke-miterlimit:10; shape-rendering:auto; stroke-opacity:1; fill:black; stroke-dasharray:none; font-weight:normal; stroke-width:1; font-family:'Dialog'; font-style:normal; stroke-linejoin:miter; font-size:12px; stroke-dashoffset:0; image-rendering:auto;"><defs id="genericDefs" /><g><defs id="defs1"><clipPath clipPathUnits="userSpaceOnUse" id="clipPath1"><path d="M52 41 C52 47.0751 47.0751 52 41 52 C34.9249 52 30 47.0751 30 41 C30 34.9249 34.9249 30 41 30 C47.0751 30 52 34.9249 52 41 Z" /></clipPath><clipPath clipPathUnits="userSpaceOnUse" id="clipPath2"><path d="M41 82 L43 89 L51 89 L44 94 L47 101 L41 97 L34 101 L37 94 L30 89 L38 89 L41 82 Z" style="fill-rule:evenodd;" /></clipPath></defs><g style="fill:white; text-rendering:optimizeSpeed; stroke:white;"><rect height="134" style="stroke:none;" width="82" x="0" y="0" /></g><g ID="l-1:1,2" style="text-rendering:optimizeSpeed;"><polygon points=" 41 41 41 93" style="fill:none;" /></g><g ID="r-1:1" style="fill:white; text-rendering:optimizeSpeed; stroke:white;" wurcs_mono_id="1"><circle cx="41" cy="41" r="11" style="clip-path:url(#clipPath1); stroke:none;" /><rect height="22" style="clip-path:url(#clipPath1); fill:rgb(0,144,188); stroke:none;" width="22" x="30" y="30" /><rect height="22" style="clip-path:url(#clipPath1); fill:none; stroke:black;" width="22" x="30" y="30" /><circle cx="41" cy="41" r="11" style="fill:none; stroke:black;" /></g><g ID="r-1:2" style="fill:white; text-rendering:optimizeSpeed; stroke:white;" wurcs_mono_id="2"><polygon points=" 41 82 43 89 51 89 44 94 47 101 41 97 34 101 37 94 30 89 38 89 41 82" style="stroke:none; clip-path:url(#clipPath2);" /><rect height="22" style="clip-path:url(#clipPath2); fill:rgb(244,121,32); stroke:none;" width="22" x="30" y="82" /><rect height="22" style="clip-path:url(#clipPath2); fill:none; stroke:black;" width="22" x="30" y="82" /><polygon points=" 41 82 43 89 51 89 44 94 47 101 41 97 34 101 37 94 30 89 38 89 41 82" style="fill:none; stroke:black;" /></g><g ID="li-1:1,2" style="fill:white; text-rendering:optimizeSpeed; font-family:'Serif'; stroke:white;"><rect height="10" style="stroke:none;" width="7" x="45" y="55" /><path d="M46.1719 56.625 Q46.8594 56.3594 47.4844 56.2266 Q48.1094 56.0938 48.6562 56.0938 Q49.9531 56.0938 50.6719 56.6484 Q51.3906 57.2031 51.3906 58.1875 Q51.3906 58.9688 50.8906 59.5 Q50.3906 60.0312 49.4844 60.2188 Q50.5625 60.375 51.1562 61.0078 Q51.75 61.6406 51.75 62.6406 Q51.75 63.8594 50.9219 64.5156 Q50.0938 65.1719 48.5469 65.1719 Q47.8594 65.1719 47.2109 65.0234 Q46.5625 64.875 45.9219 64.5781 L45.9219 62.875 L46.5781 62.875 Q46.625 63.7188 47.1406 64.1562 Q47.6562 64.5938 48.5781 64.5938 Q49.4688 64.5938 49.9922 64.0703 Q50.5156 63.5469 50.5156 62.6562 Q50.5156 61.625 49.9766 61.0938 Q49.4375 60.5625 48.4062 60.5625 L47.8594 60.5625 L47.8594 59.9531 L48.1406 59.9531 Q49.1719 59.9531 49.6875 59.5312 Q50.2031 59.1094 50.2031 58.25 Q50.2031 57.4844 49.7812 57.0781 Q49.3594 56.6719 48.5625 56.6719 Q47.7656 56.6719 47.3359 57.0469 Q46.9062 57.4219 46.8281 58.1562 L46.1719 58.1562 L46.1719 56.625 Z" style="fill:black; stroke:none;" /><rect height="8" style="stroke:none;" width="8" x="45" y="70" /><path d="M50.1875 76.4688 L49.9531 77.1094 Q49.7656 77.625 49.2031 77.9375 Q48.8438 78.1562 48.2031 78.1406 Q47.0469 78.1406 46.3281 77.2344 Q45.5938 76.3281 45.5938 74.8594 Q45.5938 73.4219 46.3281 72.4844 Q47.0156 71.5938 48.4531 71.6094 Q49.4531 71.6094 49.9531 72 Q50.4062 72.3438 50.5781 73.0938 L50.625 73.3125 L50.8438 72.6719 Q51.0625 72.0469 51.6562 71.75 L52.25 71.75 L52.25 72.0938 Q51.6875 72.2656 51.5 72.8125 L50.8906 74.4844 L51.2969 76.2812 Q51.5 77.2031 51.7344 77.2969 Q52.0469 77.4375 52.7812 77 L52.7812 77.7188 Q51.5938 78.4062 50.75 77.6875 Q50.375 77.3594 50.2656 76.875 L50.1875 76.4688 ZM49.9219 75.3125 L49.5625 73.5938 Q49.2656 72.2188 48.4688 72.2188 Q47.7969 72.2031 47.2812 72.9375 Q46.8594 73.5156 46.8594 74.875 Q46.8594 76.1719 47.2812 76.8281 Q47.75 77.5469 48.5312 77.5 Q49.2031 77.4375 49.6875 76 L49.9219 75.3125 Z" style="fill:black; stroke:none;" /></g></g></svg>