<svg xmlns="http://www.w3.org/2000/svg" style="fill-opacity:1; color-rendering:auto; color-interpolation:auto; text-rendering:auto; stroke:black; stroke-linecap:square; stroke-miterlimit:10; shape-rendering:auto; stroke-opacity:1; fill:black; stroke-dasharray:none; font-weight:normal; stroke-width:1; font-family:'Dialog'; font-style:normal; stroke-linejoin:miter; font-size:12px; stroke-dashoffset:0; image-rendering:auto;"><defs id="genericDefs" /><g><defs id="defs1"><clipPath clipPathUnits="userSpaceOnUse" id="clipPath1"><path d="M238 134 L260 134 L260 156 L238 156 L238 134 Z" /></clipPath><clipPath clipPathUnits="userSpaceOnUse" id="clipPath2"><path d="M208 197 C208 203.0751 203.0751 208 197 208 C190.9249 208 186 203.0751 186 197 C186 190.9249 190.9249 186 197 186 C203.0751 186 208 190.9249 208 197 Z" /></clipPath><clipPath clipPathUnits="userSpaceOnUse" id="clipPath3"><path d="M145 186 L156 197 L145 208 L134 197 Z" style="fill-rule:evenodd;" /></clipPath><clipPath clipPathUnits="userSpaceOnUse" id="clipPath4"><path d="M186 82 L208 82 L208 104 L186 104 L186 82 Z" /></clipPath><clipPath clipPathUnits="userSpaceOnUse" id="clipPath5"><path d="M197 134 L208 156 L186 156 Z" style="fill-rule:evenodd;" /></clipPath><clipPath clipPathUnits="userSpaceOnUse" id="clipPath6"><path d="M156 93 C156 99.0751 151.0751 104 145 104 C138.9249 104 134 99.0751 134 93 C134 86.9249 138.9249 82 145 82 C151.0751 82 156 86.9249 156 93 Z" /></clipPath><clipPath clipPathUnits="userSpaceOnUse" id="clipPath7"><path d="M82 82 L104 82 L104 104 L82 104 L82 82 Z" /></clipPath><clipPath clipPathUnits="userSpaceOnUse" id="clipPath8"><path d="M52 93 C52 99.0751 47.0751 104 41 104 C34.9249 104 30 99.0751 30 93 C30 86.9249 34.9249 82 41 82 C47.0751 82 52 86.9249 52 93 Z" /></clipPath><clipPath clipPathUnits="userSpaceOnUse" id="clipPath9"><path d="M41 134 L52 156 L30 156 Z" style="fill-rule:evenodd;" /></clipPath><clipPath clipPathUnits="userSpaceOnUse" id="clipPath10"><path d="M93 52 L82 30 L104 30 Z" style="fill-rule:evenodd;" /></clipPath></defs><g style="fill:white; text-rendering:optimizeSpeed; stroke:white;"><rect height="238" style="stroke:none;" width="290" x="0" y="0" /></g><g ID="l-1:1,2" style="text-rendering:optimizeSpeed;"><polygon points=" 249 145 197 197" style="fill:none;" /></g><g ID="l-1:1,3" style="text-rendering:optimizeSpeed;"><polygon points=" 249 145 197 93" style="fill:none;" /></g><g ID="r-1:1" style="fill:white; text-rendering:optimizeSpeed; stroke:white;" wurcs_mono_id="1"><rect height="22" style="clip-path:url(#clipPath1); stroke:none;" width="22" x="238" y="134" /><rect height="22" style="clip-path:url(#clipPath1); fill:rgb(255,212,0); stroke:none;" width="22" x="238" y="134" /><rect height="22" style="clip-path:url(#clipPath1); fill:none; stroke:black;" width="22" x="238" y="134" /><rect height="22" style="fill:none; stroke:black;" width="22" x="238" y="134" /></g><g ID="l-1:2,4" style="text-rendering:optimizeSpeed;"><polygon points=" 197 197 145 197" style="fill:none;" /></g><g ID="r-1:2" style="fill:white; text-rendering:optimizeSpeed; stroke:white;" wurcs_mono_id="2"><circle cx="197" cy="197" r="11" style="clip-path:url(#clipPath2); stroke:none;" /><rect height="22" style="clip-path:url(#clipPath2); fill:rgb(255,212,0); stroke:none;" width="22" x="186" y="186" /><rect height="22" style="clip-path:url(#clipPath2); fill:none; stroke:black;" width="22" x="186" y="186" /><circle cx="197" cy="197" r="11" style="fill:none; stroke:black;" /></g><g ID="r-1:4" style="fill:white; text-rendering:optimizeSpeed; stroke:white;" wurcs_mono_id="3"><polygon points=" 145 186 156 197 145 208 134 197" style="stroke:none; clip-path:url(#clipPath3);" /><rect height="22" style="clip-path:url(#clipPath3); fill:rgb(165,67,153); stroke:none;" width="22" x="134" y="186" /><rect height="22" style="clip-path:url(#clipPath3); fill:none; stroke:black;" width="22" x="134" y="186" /><polygon points=" 145 186 156 197 145 208 134 197" style="fill:none; stroke:black;" /></g><g ID="li-1:2,4" style="fill:white; text-rendering:optimizeSpeed; font-family:'Serif'; stroke:white;"><rect height="10" style="stroke:none;" width="7" x="174" y="200" /><path d="M175.1719 201.625 Q175.8594 201.3594 176.4844 201.2266 Q177.1094 201.0938 177.6562 201.0938 Q178.9531 201.0938 179.6719 201.6484 Q180.3906 202.2031 180.3906 203.1875 Q180.3906 203.9688 179.8906 204.5 Q179.3906 205.0312 178.4844 205.2188 Q179.5625 205.375 180.1562 206.0078 Q180.75 206.6406 180.75 207.6406 Q180.75 208.8594 179.9219 209.5156 Q179.0938 210.1719 177.5469 210.1719 Q176.8594 210.1719 176.2109 210.0234 Q175.5625 209.875 174.9219 209.5781 L174.9219 207.875 L175.5781 207.875 Q175.625 208.7188 176.1406 209.1562 Q176.6562 209.5938 177.5781 209.5938 Q178.4688 209.5938 178.9922 209.0703 Q179.5156 208.5469 179.5156 207.6562 Q179.5156 206.625 178.9766 206.0938 Q178.4375 205.5625 177.4062 205.5625 L176.8594 205.5625 L176.8594 204.9531 L177.1406 204.9531 Q178.1719 204.9531 178.6875 204.5312 Q179.2031 204.1094 179.2031 203.25 Q179.2031 202.4844 178.7812 202.0781 Q178.3594 201.6719 177.5625 201.6719 Q176.7656 201.6719 176.3359 202.0469 Q175.9062 202.4219 175.8281 203.1562 L175.1719 203.1562 L175.1719 201.625 Z" style="fill:black; stroke:none;" /><rect height="8" style="stroke:none;" width="8" x="160" y="201" /><path d="M165.1875 207.4688 L164.9531 208.1094 Q164.7656 208.625 164.2031 208.9375 Q163.8438 209.1562 163.2031 209.1406 Q162.0469 209.1406 161.3281 208.2344 Q160.5938 207.3281 160.5938 205.8594 Q160.5938 204.4219 161.3281 203.4844 Q162.0156 202.5938 163.4531 202.6094 Q164.4531 202.6094 164.9531 203 Q165.4062 203.3438 165.5781 204.0938 L165.625 204.3125 L165.8438 203.6719 Q166.0625 203.0469 166.6562 202.75 L167.25 202.75 L167.25 203.0938 Q166.6875 203.2656 166.5 203.8125 L165.8906 205.4844 L166.2969 207.2812 Q166.5 208.2031 166.7344 208.2969 Q167.0469 208.4375 167.7812 208 L167.7812 208.7188 Q166.5938 209.4062 165.75 208.6875 Q165.375 208.3594 165.2656 207.875 L165.1875 207.4688 ZM164.9219 206.3125 L164.5625 204.5938 Q164.2656 203.2188 163.4688 203.2188 Q162.7969 203.2031 162.2812 203.9375 Q161.8594 204.5156 161.8594 205.875 Q161.8594 207.1719 162.2812 207.8281 Q162.75 208.5469 163.5312 208.5 Q164.2031 208.4375 164.6875 207 L164.9219 206.3125 Z" style="fill:black; stroke:none;" /></g><g ID="l-1:3,5" style="text-rendering:optimizeSpeed;"><polygon points=" 197 93 197 145" style="fill:none;" /></g><g ID="l-1:3,6" style="text-rendering:optimizeSpeed;"><polygon points=" 197 93 145 93" style="fill:none;" /></g><g ID="r-1:3" style="fill:white; text-rendering:optimizeSpeed; stroke:white;" wurcs_mono_id="4"><rect height="22" style="clip-path:url(#clipPath4); stroke:none;" width="22" x="186" y="82" /><rect height="22" style="clip-path:url(#clipPath4); fill:rgb(0,144,188); stroke:none;" width="22" x="186" y="82" /><rect height="22" style="clip-path:url(#clipPath4); fill:none; stroke:black;" width="22" x="186" y="82" /><rect height="22" style="fill:none; stroke:black;" width="22" x="186" y="82" /></g><g ID="r-1:5" style="fill:white; text-rendering:optimizeSpeed; stroke:white;" wurcs_mono_id="5"><polygon points=" 197 134 208 156 186 156" style="stroke:none; clip-path:url(#clipPath5);" /><rect height="22" style="clip-path:url(#clipPath5); fill:rgb(237,28,36); stroke:none;" width="22" x="186" y="134" /><rect height="22" style="clip-path:url(#clipPath5); fill:none; stroke:black;" width="22" x="186" y="134" /><polygon points=" 197 134 208 156 186 156" style="fill:none; stroke:black;" /></g><g ID="l-1:6,7" style="text-rendering:optimizeSpeed;"><polygon points=" 145 93 93 93" style="fill:none;" /></g><g ID="r-1:6" style="fill:white; text-rendering:optimizeSpeed; stroke:white;" wurcs_mono_id="6"><circle cx="145" cy="93" r="11" style="clip-path:url(#clipPath6); stroke:none;" /><rect height="22" style="clip-path:url(#clipPath6); fill:rgb(255,212,0); stroke:none;" width="22" x="134" y="82" /><rect height="22" style="clip-path:url(#clipPath6); fill:none; stroke:black;" width="22" x="134" y="82" /><circle cx="145" cy="93" r="11" style="fill:none; stroke:black;" /></g><g ID="l-1:7,8" style="text-rendering:optimizeSpeed;"><polygon points=" 93 93 41 93" style="fill:none;" /></g><g ID="l-1:7,9" style="text-rendering:optimizeSpeed;"><polygon points=" 93 93 93 41" style="fill:none;" /></g><g ID="r-1:7" style="fill:white; text-rendering:optimizeSpeed; stroke:white;" wurcs_mono_id="7"><rect height="22" style="clip-path:url(#clipPath7); stroke:none;" width="22" x="82" y="82" /><rect height="22" style="clip-path:url(#clipPath7); fill:rgb(0,144,188); stroke:none;" width="22" x="82" y="82" /><rect height="22" style="clip-path:url(#clipPath7); fill:none; stroke:black;" width="22" x="82" y="82" /><rect height="22" style="fill:none; stroke:black;" width="22" x="82" y="82" /></g><g ID="l-1:8,10" style="text-rendering:optimizeSpeed;"><polygon points=" 41 93 41 145" style="fill:none;" /></g><g ID="r-1:8" style="fill:white; text-rendering:optimizeSpeed; stroke:white;" wurcs_mono_id="8"><circle cx="41" cy="93" r="11" style="clip-path:url(#clipPath8); stroke:none;" /><rect height="22" style="clip-path:url(#clipPath8); fill:rgb(255,212,0); stroke:none;" width="22" x="30" y="82" /><rect height="22" style="clip-path:url(#clipPath8); fill:none; stroke:black;" width="22" x="30" y="82" /><circle cx="41" cy="93" r="11" style="fill:none; stroke:black;" /></g><g ID="r-1:10" style="fill:white; text-rendering:optimizeSpeed; stroke:white;" wurcs_mono_id="9"><polygon points=" 41 134 52 156 30 156" style="stroke:none; clip-path:url(#clipPath9);" /><rect height="22" style="clip-path:url(#clipPath9); fill:rgb(237,28,36); stroke:none;" width="22" x="30" y="134" /><rect height="22" style="clip-path:url(#clipPath9); fill:none; stroke:black;" width="22" x="30" y="134" /><polygon points=" 41 134 52 156 30 156" style="fill:none; stroke:black;" /></g><g ID="li-1:8,10" style="fill:white; text-rendering:optimizeSpeed; font-family:'Serif'; stroke:white;"><rect height="9" style="stroke:none;" width="7" x="45" y="107" /><path d="M46.5312 109.3438 L45.875 109.3438 L45.875 107.7812 Q46.5 107.4375 47.1406 107.2656 Q47.7812 107.0938 48.3906 107.0938 Q49.75 107.0938 50.5391 107.7578 Q51.3281 108.4219 51.3281 109.5469 Q51.3281 110.8438 49.5469 112.625 Q49.4062 112.7656 49.3281 112.8281 L47.125 115.0312 L50.7656 115.0312 L50.7656 113.9531 L51.4531 113.9531 L51.4531 116 L45.8125 116 L45.8125 115.3594 L48.4688 112.7188 Q49.3438 111.8281 49.7188 111.0938 Q50.0938 110.3594 50.0938 109.5469 Q50.0938 108.6719 49.6328 108.1719 Q49.1719 107.6719 48.375 107.6719 Q47.5312 107.6719 47.0781 108.0859 Q46.625 108.5 46.5312 109.3438 Z" style="fill:black; stroke:none;" /><rect height="8" style="stroke:none;" width="8" x="45" y="122" /><path d="M50.1875 128.4688 L49.9531 129.1094 Q49.7656 129.625 49.2031 129.9375 Q48.8438 130.1562 48.2031 130.1406 Q47.0469 130.1406 46.3281 129.2344 Q45.5938 128.3281 45.5938 126.8594 Q45.5938 125.4219 46.3281 124.4844 Q47.0156 123.5938 48.4531 123.6094 Q49.4531 123.6094 49.9531 124 Q50.4062 124.3438 50.5781 125.0938 L50.625 125.3125 L50.8438 124.6719 Q51.0625 124.0469 51.6562 123.75 L52.25 123.75 L52.25 124.0938 Q51.6875 124.2656 51.5 124.8125 L50.8906 126.4844 L51.2969 128.2812 Q51.5 129.2031 51.7344 129.2969 Q52.0469 129.4375 52.7812 129 L52.7812 129.7188 Q51.5938 130.4062 50.75 129.6875 Q50.375 129.3594 50.2656 128.875 L50.1875 128.4688 ZM49.9219 127.3125 L49.5625 125.5938 Q49.2656 124.2188 48.4688 124.2188 Q47.7969 124.2031 47.2812 124.9375 Q46.8594 125.5156 46.8594 126.875 Q46.8594 128.1719 47.2812 128.8281 Q47.75 129.5469 48.5312 129.5 Q49.2031 129.4375 49.6875 128 L49.9219 127.3125 Z" style="fill:black; stroke:none;" /></g><g ID="r-1:9" style="fill:white; text-rendering:optimizeSpeed; stroke:white;" wurcs_mono_id="10"><polygon points=" 93 52 82 30 104 30" style="stroke:none; clip-path:url(#clipPath10);" /><rect height="22" style="clip-path:url(#clipPath10); fill:rgb(237,28,36); stroke:none;" width="22" x="82" y="30" /><rect height="22" style="clip-path:url(#clipPath10); fill:none; stroke:black;" width="22" x="82" y="30" /><polygon points=" 93 52 82 30 104 30" style="fill:none; stroke:black;" /></g><g ID="li-1:7,8" style="fill:white; text-rendering:optimizeSpeed; font-family:'Serif'; stroke:white;"><rect height="11" style="stroke:none;" width="20" x="64" y="95" /><path d="M65.1719 97.625 Q65.8594 97.3594 66.4844 97.2266 Q67.1094 97.0938 67.6562 97.0938 Q68.9531 97.0938 69.6719 97.6484 Q70.3906 98.2031 70.3906 99.1875 Q70.3906 99.9688 69.8906 100.5 Q69.3906 101.0312 68.4844 101.2188 Q69.5625 101.375 70.1562 102.0078 Q70.75 102.6406 70.75 103.6406 Q70.75 104.8594 69.9219 105.5156 Q69.0938 106.1719 67.5469 106.1719 Q66.8594 106.1719 66.2109 106.0234 Q65.5625 105.875 64.9219 105.5781 L64.9219 103.875 L65.5781 103.875 Q65.625 104.7188 66.1406 105.1562 Q66.6562 105.5938 67.5781 105.5938 Q68.4688 105.5938 68.9922 105.0703 Q69.5156 104.5469 69.5156 103.6562 Q69.5156 102.625 68.9766 102.0938 Q68.4375 101.5625 67.4062 101.5625 L66.8594 101.5625 L66.8594 100.9531 L67.1406 100.9531 Q68.1719 100.9531 68.6875 100.5312 Q69.2031 100.1094 69.2031 99.25 Q69.2031 98.4844 68.7812 98.0781 Q68.3594 97.6719 67.5625 97.6719 Q66.7656 97.6719 66.3359 98.0469 Q65.9062 98.4219 65.8281 99.1562 L65.1719 99.1562 L65.1719 97.625 ZM74.7441 97.25 L75.6816 97.25 L72.5723 107.1094 L71.6348 107.1094 L74.7441 97.25 ZM79.8652 103.0312 L79.8652 98.375 L76.8809 103.0312 L79.8652 103.0312 ZM82.4434 106 L78.459 106 L78.459 105.375 L79.8652 105.375 L79.8652 103.6562 L76.0527 103.6562 L76.0527 103.0156 L79.8809 97.0938 L81.0371 97.0938 L81.0371 103.0312 L82.709 103.0312 L82.709 103.6562 L81.0371 103.6562 L81.0371 105.375 L82.4434 105.375 L82.4434 106 Z" style="fill:black; stroke:none;" /><rect height="13" style="stroke:none;" width="7" x="56" y="94" /><path d="M57.8281 106.25 Q58.2969 106.5938 59.1719 106.5938 Q60.0625 106.5938 60.5781 106.0703 Q61.0938 105.5469 61.0938 104.6562 Q61.0938 103.4219 60.5625 102.8906 Q60.0156 102.3594 59 102.3594 L58.4375 102.3594 L58.4375 101.7188 L58.7344 101.7188 Q59.4844 101.7188 60 101.2969 Q60.4219 100.9531 60.4219 100.0156 Q60.4219 99.6094 60.1406 99.1406 Q59.6875 98.375 59.1562 98.3906 Q57.8281 98.4375 57.8281 100.7812 L57.8281 106.25 ZM56.75 109.5 L56.75 100.7812 Q56.75 98.3281 58.0781 98 Q58.7656 97.8125 59.25 97.8125 Q60.3438 97.8125 61.0469 98.6719 Q61.6094 99.3594 61.6094 99.9375 Q61.6094 100.7812 61.2031 101.2656 Q60.7969 101.75 60.0625 101.9844 Q61.1406 102.1406 61.75 102.7812 Q62.3281 103.4062 62.3281 104.6328 Q62.3281 105.8594 61.5078 106.5156 Q60.6875 107.1719 59.1406 107.1719 Q58.1875 107.1719 57.8281 107.0312 L57.8281 109.5 L56.75 109.5 Z" style="fill:black; stroke:none;" /></g><g ID="li-1:7,9" style="fill:white; text-rendering:optimizeSpeed; font-family:'Serif'; stroke:white;"><rect height="11" style="stroke:none;" width="20" x="75" y="68" /><path d="M76.1719 70.625 Q76.8594 70.3594 77.4844 70.2266 Q78.1094 70.0938 78.6562 70.0938 Q79.9531 70.0938 80.6719 70.6484 Q81.3906 71.2031 81.3906 72.1875 Q81.3906 72.9688 80.8906 73.5 Q80.3906 74.0312 79.4844 74.2188 Q80.5625 74.375 81.1562 75.0078 Q81.75 75.6406 81.75 76.6406 Q81.75 77.8594 80.9219 78.5156 Q80.0938 79.1719 78.5469 79.1719 Q77.8594 79.1719 77.2109 79.0234 Q76.5625 78.875 75.9219 78.5781 L75.9219 76.875 L76.5781 76.875 Q76.625 77.7188 77.1406 78.1562 Q77.6562 78.5938 78.5781 78.5938 Q79.4688 78.5938 79.9922 78.0703 Q80.5156 77.5469 80.5156 76.6562 Q80.5156 75.625 79.9766 75.0938 Q79.4375 74.5625 78.4062 74.5625 L77.8594 74.5625 L77.8594 73.9531 L78.1406 73.9531 Q79.1719 73.9531 79.6875 73.5312 Q80.2031 73.1094 80.2031 72.25 Q80.2031 71.4844 79.7812 71.0781 Q79.3594 70.6719 78.5625 70.6719 Q77.7656 70.6719 77.3359 71.0469 Q76.9062 71.4219 76.8281 72.1562 L76.1719 72.1562 L76.1719 70.625 ZM85.7441 70.25 L86.6816 70.25 L83.5723 80.1094 L82.6348 80.1094 L85.7441 70.25 ZM90.8652 76.0312 L90.8652 71.375 L87.8809 76.0312 L90.8652 76.0312 ZM93.4434 79 L89.459 79 L89.459 78.375 L90.8652 78.375 L90.8652 76.6562 L87.0527 76.6562 L87.0527 76.0156 L90.8809 70.0938 L92.0371 70.0938 L92.0371 76.0312 L93.709 76.0312 L93.709 76.6562 L92.0371 76.6562 L92.0371 78.375 L93.4434 78.375 L93.4434 79 Z" style="fill:black; stroke:none;" /><rect height="8" style="stroke:none;" width="8" x="81" y="56" /><path d="M86.1875 62.4688 L85.9531 63.1094 Q85.7656 63.625 85.2031 63.9375 Q84.8438 64.1562 84.2031 64.1406 Q83.0469 64.1406 82.3281 63.2344 Q81.5938 62.3281 81.5938 60.8594 Q81.5938 59.4219 82.3281 58.4844 Q83.0156 57.5938 84.4531 57.6094 Q85.4531 57.6094 85.9531 58 Q86.4062 58.3438 86.5781 59.0938 L86.625 59.3125 L86.8438 58.6719 Q87.0625 58.0469 87.6562 57.75 L88.25 57.75 L88.25 58.0938 Q87.6875 58.2656 87.5 58.8125 L86.8906 60.4844 L87.2969 62.2812 Q87.5 63.2031 87.7344 63.2969 Q88.0469 63.4375 88.7812 63 L88.7812 63.7188 Q87.5938 64.4062 86.75 63.6875 Q86.375 63.3594 86.2656 62.875 L86.1875 62.4688 ZM85.9219 61.3125 L85.5625 59.5938 Q85.2656 58.2188 84.4688 58.2188 Q83.7969 58.2031 83.2812 58.9375 Q82.8594 59.5156 82.8594 60.875 Q82.8594 62.1719 83.2812 62.8281 Q83.75 63.5469 84.5312 63.5 Q85.2031 63.4375 85.6875 62 L85.9219 61.3125 Z" style="fill:black; stroke:none;" /></g><g ID="li-1:6,7" style="fill:white; text-rendering:optimizeSpeed; font-family:'Serif'; stroke:white;"><rect height="11" style="stroke:none;" width="19" x="116" y="95" /><path d="M117.1719 97.625 Q117.8594 97.3594 118.4844 97.2266 Q119.1094 97.0938 119.6562 97.0938 Q120.9531 97.0938 121.6719 97.6484 Q122.3906 98.2031 122.3906 99.1875 Q122.3906 99.9688 121.8906 100.5 Q121.3906 101.0312 120.4844 101.2188 Q121.5625 101.375 122.1562 102.0078 Q122.75 102.6406 122.75 103.6406 Q122.75 104.8594 121.9219 105.5156 Q121.0938 106.1719 119.5469 106.1719 Q118.8594 106.1719 118.2109 106.0234 Q117.5625 105.875 116.9219 105.5781 L116.9219 103.875 L117.5781 103.875 Q117.625 104.7188 118.1406 105.1562 Q118.6562 105.5938 119.5781 105.5938 Q120.4688 105.5938 120.9922 105.0703 Q121.5156 104.5469 121.5156 103.6562 Q121.5156 102.625 120.9766 102.0938 Q120.4375 101.5625 119.4062 101.5625 L118.8594 101.5625 L118.8594 100.9531 L119.1406 100.9531 Q120.1719 100.9531 120.6875 100.5312 Q121.2031 100.1094 121.2031 99.25 Q121.2031 98.4844 120.7812 98.0781 Q120.3594 97.6719 119.5625 97.6719 Q118.7656 97.6719 118.3359 98.0469 Q117.9062 98.4219 117.8281 99.1562 L117.1719 99.1562 L117.1719 97.625 ZM126.7441 97.25 L127.6816 97.25 L124.5723 107.1094 L123.6348 107.1094 L126.7441 97.25 ZM131.5996 105.5938 Q132.4277 105.5938 132.873 104.9844 Q133.3184 104.375 133.3184 103.2344 Q133.3184 102.1094 132.873 101.5 Q132.4277 100.8906 131.5996 100.8906 Q130.7715 100.8906 130.3262 101.4766 Q129.8809 102.0625 129.8809 103.1719 Q129.8809 104.3281 130.3262 104.9609 Q130.7715 105.5938 131.5996 105.5938 ZM129.6934 101.1875 Q130.0996 100.75 130.5996 100.5312 Q131.0996 100.3125 131.7402 100.3125 Q133.0371 100.3125 133.7949 101.0938 Q134.5527 101.875 134.5527 103.2344 Q134.5527 104.5625 133.7402 105.3672 Q132.9277 106.1719 131.5527 106.1719 Q130.0684 106.1719 129.2715 105.0625 Q128.4746 103.9531 128.4746 101.9062 Q128.4746 99.6094 129.4199 98.3516 Q130.3652 97.0938 132.084 97.0938 Q132.5527 97.0938 133.0605 97.1797 Q133.5684 97.2656 134.0996 97.4375 L134.0996 98.8906 L133.4434 98.8906 Q133.3652 98.2969 132.9824 97.9844 Q132.5996 97.6719 131.959 97.6719 Q130.8184 97.6719 130.2637 98.5312 Q129.709 99.3906 129.6934 101.1875 Z" style="fill:black; stroke:none;" /><rect height="13" style="stroke:none;" width="7" x="108" y="94" /><path d="M109.8281 106.25 Q110.2969 106.5938 111.1719 106.5938 Q112.0625 106.5938 112.5781 106.0703 Q113.0938 105.5469 113.0938 104.6562 Q113.0938 103.4219 112.5625 102.8906 Q112.0156 102.3594 111 102.3594 L110.4375 102.3594 L110.4375 101.7188 L110.7344 101.7188 Q111.4844 101.7188 112 101.2969 Q112.4219 100.9531 112.4219 100.0156 Q112.4219 99.6094 112.1406 99.1406 Q111.6875 98.375 111.1562 98.3906 Q109.8281 98.4375 109.8281 100.7812 L109.8281 106.25 ZM108.75 109.5 L108.75 100.7812 Q108.75 98.3281 110.0781 98 Q110.7656 97.8125 111.25 97.8125 Q112.3438 97.8125 113.0469 98.6719 Q113.6094 99.3594 113.6094 99.9375 Q113.6094 100.7812 113.2031 101.2656 Q112.7969 101.75 112.0625 101.9844 Q113.1406 102.1406 113.75 102.7812 Q114.3281 103.4062 114.3281 104.6328 Q114.3281 105.8594 113.5078 106.5156 Q112.6875 107.1719 111.1406 107.1719 Q110.1875 107.1719 109.8281 107.0312 L109.8281 109.5 L108.75 109.5 Z" style="fill:black; stroke:none;" /></g><g ID="li-1:3,5" style="fill:white; text-rendering:optimizeSpeed; font-family:'Serif'; stroke:white;"><rect height="10" style="stroke:none;" width="7" x="201" y="107" /><path d="M202.1719 108.625 Q202.8594 108.3594 203.4844 108.2266 Q204.1094 108.0938 204.6562 108.0938 Q205.9531 108.0938 206.6719 108.6484 Q207.3906 109.2031 207.3906 110.1875 Q207.3906 110.9688 206.8906 111.5 Q206.3906 112.0312 205.4844 112.2188 Q206.5625 112.375 207.1562 113.0078 Q207.75 113.6406 207.75 114.6406 Q207.75 115.8594 206.9219 116.5156 Q206.0938 117.1719 204.5469 117.1719 Q203.8594 117.1719 203.2109 117.0234 Q202.5625 116.875 201.9219 116.5781 L201.9219 114.875 L202.5781 114.875 Q202.625 115.7188 203.1406 116.1562 Q203.6562 116.5938 204.5781 116.5938 Q205.4688 116.5938 205.9922 116.0703 Q206.5156 115.5469 206.5156 114.6562 Q206.5156 113.625 205.9766 113.0938 Q205.4375 112.5625 204.4062 112.5625 L203.8594 112.5625 L203.8594 111.9531 L204.1406 111.9531 Q205.1719 111.9531 205.6875 111.5312 Q206.2031 111.1094 206.2031 110.25 Q206.2031 109.4844 205.7812 109.0781 Q205.3594 108.6719 204.5625 108.6719 Q203.7656 108.6719 203.3359 109.0469 Q202.9062 109.4219 202.8281 110.1562 L202.1719 110.1562 L202.1719 108.625 Z" style="fill:black; stroke:none;" /><rect height="8" style="stroke:none;" width="8" x="201" y="122" /><path d="M206.1875 128.4688 L205.9531 129.1094 Q205.7656 129.625 205.2031 129.9375 Q204.8438 130.1562 204.2031 130.1406 Q203.0469 130.1406 202.3281 129.2344 Q201.5938 128.3281 201.5938 126.8594 Q201.5938 125.4219 202.3281 124.4844 Q203.0156 123.5938 204.4531 123.6094 Q205.4531 123.6094 205.9531 124 Q206.4062 124.3438 206.5781 125.0938 L206.625 125.3125 L206.8438 124.6719 Q207.0625 124.0469 207.6562 123.75 L208.25 123.75 L208.25 124.0938 Q207.6875 124.2656 207.5 124.8125 L206.8906 126.4844 L207.2969 128.2812 Q207.5 129.2031 207.7344 129.2969 Q208.0469 129.4375 208.7812 129 L208.7812 129.7188 Q207.5938 130.4062 206.75 129.6875 Q206.375 129.3594 206.2656 128.875 L206.1875 128.4688 ZM205.9219 127.3125 L205.5625 125.5938 Q205.2656 124.2188 204.4688 124.2188 Q203.7969 124.2031 203.2812 124.9375 Q202.8594 125.5156 202.8594 126.875 Q202.8594 128.1719 203.2812 128.8281 Q203.75 129.5469 204.5312 129.5 Q205.2031 129.4375 205.6875 128 L205.9219 127.3125 Z" style="fill:black; stroke:none;" /></g><g ID="li-1:3,6" style="fill:white; text-rendering:optimizeSpeed; font-family:'Serif'; stroke:white;"><rect height="9" style="stroke:none;" width="8" x="174" y="96" /><path d="M178.1875 102.0312 L178.1875 97.375 L175.2031 102.0312 L178.1875 102.0312 ZM180.7656 105 L176.7812 105 L176.7812 104.375 L178.1875 104.375 L178.1875 102.6562 L174.375 102.6562 L174.375 102.0156 L178.2031 96.0938 L179.3594 96.0938 L179.3594 102.0312 L181.0312 102.0312 L181.0312 102.6562 L179.3594 102.6562 L179.3594 104.375 L180.7656 104.375 L180.7656 105 Z" style="fill:black; stroke:none;" /><rect height="13" style="stroke:none;" width="7" x="160" y="94" /><path d="M161.8281 106.25 Q162.2969 106.5938 163.1719 106.5938 Q164.0625 106.5938 164.5781 106.0703 Q165.0938 105.5469 165.0938 104.6562 Q165.0938 103.4219 164.5625 102.8906 Q164.0156 102.3594 163 102.3594 L162.4375 102.3594 L162.4375 101.7188 L162.7344 101.7188 Q163.4844 101.7188 164 101.2969 Q164.4219 100.9531 164.4219 100.0156 Q164.4219 99.6094 164.1406 99.1406 Q163.6875 98.375 163.1562 98.3906 Q161.8281 98.4375 161.8281 100.7812 L161.8281 106.25 ZM160.75 109.5 L160.75 100.7812 Q160.75 98.3281 162.0781 98 Q162.7656 97.8125 163.25 97.8125 Q164.3438 97.8125 165.0469 98.6719 Q165.6094 99.3594 165.6094 99.9375 Q165.6094 100.7812 165.2031 101.2656 Q164.7969 101.75 164.0625 101.9844 Q165.1406 102.1406 165.75 102.7812 Q166.3281 103.4062 166.3281 104.6328 Q166.3281 105.8594 165.5078 106.5156 Q164.6875 107.1719 163.1406 107.1719 Q162.1875 107.1719 161.8281 107.0312 L161.8281 109.5 L160.75 109.5 Z" style="fill:black; stroke:none;" /></g><g ID="li-1:1,2" style="fill:white; text-rendering:optimizeSpeed; font-family:'Serif'; stroke:white;"><rect height="10" style="stroke:none;" width="7" x="234" y="162" /><path d="M235.1719 163.625 Q235.8594 163.3594 236.4844 163.2266 Q237.1094 163.0938 237.6562 163.0938 Q238.9531 163.0938 239.6719 163.6484 Q240.3906 164.2031 240.3906 165.1875 Q240.3906 165.9688 239.8906 166.5 Q239.3906 167.0312 238.4844 167.2188 Q239.5625 167.375 240.1562 168.0078 Q240.75 168.6406 240.75 169.6406 Q240.75 170.8594 239.9219 171.5156 Q239.0938 172.1719 237.5469 172.1719 Q236.8594 172.1719 236.2109 172.0234 Q235.5625 171.875 234.9219 171.5781 L234.9219 169.875 L235.5781 169.875 Q235.625 170.7188 236.1406 171.1562 Q236.6562 171.5938 237.5781 171.5938 Q238.4688 171.5938 238.9922 171.0703 Q239.5156 170.5469 239.5156 169.6562 Q239.5156 168.625 238.9766 168.0938 Q238.4375 167.5625 237.4062 167.5625 L236.8594 167.5625 L236.8594 166.9531 L237.1406 166.9531 Q238.1719 166.9531 238.6875 166.5312 Q239.2031 166.1094 239.2031 165.25 Q239.2031 164.4844 238.7812 164.0781 Q238.3594 163.6719 237.5625 163.6719 Q236.7656 163.6719 236.3359 164.0469 Q235.9062 164.4219 235.8281 165.1562 L235.1719 165.1562 L235.1719 163.625 Z" style="fill:black; stroke:none;" /><rect height="13" style="stroke:none;" width="7" x="215" y="179" /><path d="M216.8281 191.25 Q217.2969 191.5938 218.1719 191.5938 Q219.0625 191.5938 219.5781 191.0703 Q220.0938 190.5469 220.0938 189.6562 Q220.0938 188.4219 219.5625 187.8906 Q219.0156 187.3594 218 187.3594 L217.4375 187.3594 L217.4375 186.7188 L217.7344 186.7188 Q218.4844 186.7188 219 186.2969 Q219.4219 185.9531 219.4219 185.0156 Q219.4219 184.6094 219.1406 184.1406 Q218.6875 183.375 218.1562 183.3906 Q216.8281 183.4375 216.8281 185.7812 L216.8281 191.25 ZM215.75 194.5 L215.75 185.7812 Q215.75 183.3281 217.0781 183 Q217.7656 182.8125 218.25 182.8125 Q219.3438 182.8125 220.0469 183.6719 Q220.6094 184.3594 220.6094 184.9375 Q220.6094 185.7812 220.2031 186.2656 Q219.7969 186.75 219.0625 186.9844 Q220.1406 187.1406 220.75 187.7812 Q221.3281 188.4062 221.3281 189.6328 Q221.3281 190.8594 220.5078 191.5156 Q219.6875 192.1719 218.1406 192.1719 Q217.1875 192.1719 216.8281 192.0312 L216.8281 194.5 L215.75 194.5 Z" style="fill:black; stroke:none;" /></g><g ID="li-1:1,3" style="fill:white; text-rendering:optimizeSpeed; font-family:'Serif'; stroke:white;"><rect height="10" style="stroke:none;" width="7" x="223" y="129" /><path d="M226.9219 138.5938 Q227.75 138.5938 228.1953 137.9844 Q228.6406 137.375 228.6406 136.2344 Q228.6406 135.1094 228.1953 134.5 Q227.75 133.8906 226.9219 133.8906 Q226.0938 133.8906 225.6484 134.4766 Q225.2031 135.0625 225.2031 136.1719 Q225.2031 137.3281 225.6484 137.9609 Q226.0938 138.5938 226.9219 138.5938 ZM225.0156 134.1875 Q225.4219 133.75 225.9219 133.5312 Q226.4219 133.3125 227.0625 133.3125 Q228.3594 133.3125 229.1172 134.0938 Q229.875 134.875 229.875 136.2344 Q229.875 137.5625 229.0625 138.3672 Q228.25 139.1719 226.875 139.1719 Q225.3906 139.1719 224.5938 138.0625 Q223.7969 136.9531 223.7969 134.9062 Q223.7969 132.6094 224.7422 131.3516 Q225.6875 130.0938 227.4062 130.0938 Q227.875 130.0938 228.3828 130.1797 Q228.8906 130.2656 229.4219 130.4375 L229.4219 131.8906 L228.7656 131.8906 Q228.6875 131.2969 228.3047 130.9844 Q227.9219 130.6719 227.2812 130.6719 Q226.1406 130.6719 225.5859 131.5312 Q225.0312 132.3906 225.0156 134.1875 Z" style="fill:black; stroke:none;" /><rect height="13" style="stroke:none;" width="7" x="204" y="108" /><path d="M205.8281 120.25 Q206.2969 120.5938 207.1719 120.5938 Q208.0625 120.5938 208.5781 120.0703 Q209.0938 119.5469 209.0938 118.6562 Q209.0938 117.4219 208.5625 116.8906 Q208.0156 116.3594 207 116.3594 L206.4375 116.3594 L206.4375 115.7188 L206.7344 115.7188 Q207.4844 115.7188 208 115.2969 Q208.4219 114.9531 208.4219 114.0156 Q208.4219 113.6094 208.1406 113.1406 Q207.6875 112.375 207.1562 112.3906 Q205.8281 112.4375 205.8281 114.7812 L205.8281 120.25 ZM204.75 123.5 L204.75 114.7812 Q204.75 112.3281 206.0781 112 Q206.7656 111.8125 207.25 111.8125 Q208.3438 111.8125 209.0469 112.6719 Q209.6094 113.3594 209.6094 113.9375 Q209.6094 114.7812 209.2031 115.2656 Q208.7969 115.75 208.0625 115.9844 Q209.1406 116.1406 209.75 116.7812 Q210.3281 117.4062 210.3281 118.6328 Q210.3281 119.8594 209.5078 120.5156 Q208.6875 121.1719 207.1406 121.1719 Q206.1875 121.1719 205.8281 121.0312 L205.8281 123.5 L204.75 123.5 Z" style="fill:black; stroke:none;" /></g></g></svg>