<svg xmlns="http://www.w3.org/2000/svg" style="fill-opacity:1; color-rendering:auto; color-interpolation:auto; text-rendering:auto; stroke:black; stroke-linecap:square; stroke-miterlimit:10; shape-rendering:auto; stroke-opacity:1; fill:black; stroke-dasharray:none; font-weight:normal; stroke-width:1; font-family:'Dialog'; font-style:normal; stroke-linejoin:miter; font-size:12px; stroke-dashoffset:0; image-rendering:auto;"><defs id="genericDefs" /><g><defs id="defs1"><clipPath clipPathUnits="userSpaceOnUse" id="clipPath1"><path d="M52 41 C52 47.0751 47.0751 52 41 52 C34.9249 52 30 47.0751 30 41 C30 34.9249 34.9249 30 41 30 C47.0751 30 52 34.9249 52 41 Z" /></clipPath><clipPath clipPathUnits="userSpaceOnUse" id="clipPath2"><path d="M41 82 L52 104 L30 104 Z" style="fill-rule:evenodd;" /></clipPath></defs><g style="fill:white; text-rendering:optimizeSpeed; stroke:white;"><rect height="134" style="stroke:none;" width="82" x="0" y="0" /></g><g ID="l-1:1,2" style="text-rendering:optimizeSpeed;"><polygon points=" 41 41 41 93" style="fill:none;" /></g><g ID="r-1:1" style="fill:white; text-rendering:optimizeSpeed; stroke:white;" wurcs_mono_id="1"><circle cx="41" cy="41" r="11" style="clip-path:url(#clipPath1); stroke:none;" /><rect height="22" style="clip-path:url(#clipPath1); fill:rgb(0,144,188); stroke:none;" width="22" x="30" y="30" /><rect height="22" style="clip-path:url(#clipPath1); fill:none; stroke:black;" width="22" x="30" y="30" /><circle cx="41" cy="41" r="11" style="fill:none; stroke:black;" /></g><g ID="r-1:2" style="fill:white; text-rendering:optimizeSpeed; stroke:white;" wurcs_mono_id="2"><polygon points=" 41 82 52 104 30 104" style="stroke:none; clip-path:url(#clipPath2);" /><rect height="22" style="clip-path:url(#clipPath2); fill:rgb(237,28,36); stroke:none;" width="22" x="30" y="82" /><rect height="22" style="clip-path:url(#clipPath2); fill:none; stroke:black;" width="22" x="30" y="82" /><polygon points=" 41 82 52 104 30 104" style="fill:none; stroke:black;" /></g><g ID="li-1:1,2" style="fill:white; text-rendering:optimizeSpeed; font-family:'Serif'; stroke:white;"><rect height="10" style="stroke:none;" width="7" x="45" y="55" /><path d="M46.1719 56.625 Q46.8594 56.3594 47.4844 56.2266 Q48.1094 56.0938 48.6562 56.0938 Q49.9531 56.0938 50.6719 56.6484 Q51.3906 57.2031 51.3906 58.1875 Q51.3906 58.9688 50.8906 59.5 Q50.3906 60.0312 49.4844 60.2188 Q50.5625 60.375 51.1562 61.0078 Q51.75 61.6406 51.75 62.6406 Q51.75 63.8594 50.9219 64.5156 Q50.0938 65.1719 48.5469 65.1719 Q47.8594 65.1719 47.2109 65.0234 Q46.5625 64.875 45.9219 64.5781 L45.9219 62.875 L46.5781 62.875 Q46.625 63.7188 47.1406 64.1562 Q47.6562 64.5938 48.5781 64.5938 Q49.4688 64.5938 49.9922 64.0703 Q50.5156 63.5469 50.5156 62.6562 Q50.5156 61.625 49.9766 61.0938 Q49.4375 60.5625 48.4062 60.5625 L47.8594 60.5625 L47.8594 59.9531 L48.1406 59.9531 Q49.1719 59.9531 49.6875 59.5312 Q50.2031 59.1094 50.2031 58.25 Q50.2031 57.4844 49.7812 57.0781 Q49.3594 56.6719 48.5625 56.6719 Q47.7656 56.6719 47.3359 57.0469 Q46.9062 57.4219 46.8281 58.1562 L46.1719 58.1562 L46.1719 56.625 Z" style="fill:black; stroke:none;" /><rect height="13" style="stroke:none;" width="7" x="45" y="67" /><path d="M46.8281 79.25 Q47.2969 79.5938 48.1719 79.5938 Q49.0625 79.5938 49.5781 79.0703 Q50.0938 78.5469 50.0938 77.6562 Q50.0938 76.4219 49.5625 75.8906 Q49.0156 75.3594 48 75.3594 L47.4375 75.3594 L47.4375 74.7188 L47.7344 74.7188 Q48.4844 74.7188 49 74.2969 Q49.4219 73.9531 49.4219 73.0156 Q49.4219 72.6094 49.1406 72.1406 Q48.6875 71.375 48.1562 71.3906 Q46.8281 71.4375 46.8281 73.7812 L46.8281 79.25 ZM45.75 82.5 L45.75 73.7812 Q45.75 71.3281 47.0781 71 Q47.7656 70.8125 48.25 70.8125 Q49.3438 70.8125 50.0469 71.6719 Q50.6094 72.3594 50.6094 72.9375 Q50.6094 73.7812 50.2031 74.2656 Q49.7969 74.75 49.0625 74.9844 Q50.1406 75.1406 50.75 75.7812 Q51.3281 76.4062 51.3281 77.6328 Q51.3281 78.8594 50.5078 79.5156 Q49.6875 80.1719 48.1406 80.1719 Q47.1875 80.1719 46.8281 80.0312 L46.8281 82.5 L45.75 82.5 Z" style="fill:black; stroke:none;" /></g></g></svg>