<svg xmlns="http://www.w3.org/2000/svg" style="fill-opacity:1; color-rendering:auto; color-interpolation:auto; text-rendering:auto; stroke:black; stroke-linecap:square; stroke-miterlimit:10; shape-rendering:auto; stroke-opacity:1; fill:black; stroke-dasharray:none; font-weight:normal; stroke-width:1; font-family:'Dialog'; font-style:normal; stroke-linejoin:miter; font-size:12px; stroke-dashoffset:0; image-rendering:auto;"><defs id="genericDefs" /><g><defs id="defs1"><clipPath clipPathUnits="userSpaceOnUse" id="clipPath1"><path d="M394 160 L416 160 L416 182 L394 182 L394 160 Z" /></clipPath><clipPath clipPathUnits="userSpaceOnUse" id="clipPath2"><path d="M342 160 L364 160 L364 182 L342 182 L342 160 Z" /></clipPath><clipPath clipPathUnits="userSpaceOnUse" id="clipPath3"><path d="M312 171 C312 177.0751 307.0751 182 301 182 C294.9249 182 290 177.0751 290 171 C290 164.9249 294.9249 160 301 160 C307.0751 160 312 164.9249 312 171 Z" /></clipPath><clipPath clipPathUnits="userSpaceOnUse" id="clipPath4"><path d="M260 223 C260 229.0751 255.0751 234 249 234 C242.9249 234 238 229.0751 238 223 C238 216.9249 242.9249 212 249 212 C255.0751 212 260 216.9249 260 223 Z" /></clipPath><clipPath clipPathUnits="userSpaceOnUse" id="clipPath5"><path d="M186 238 L208 238 L208 260 L186 260 L186 238 Z" /></clipPath><clipPath clipPathUnits="userSpaceOnUse" id="clipPath6"><path d="M197 290 L208 312 L186 312 Z" style="fill-rule:evenodd;" /></clipPath><clipPath clipPathUnits="userSpaceOnUse" id="clipPath7"><path d="M156 249 C156 255.0751 151.0751 260 145 260 C138.9249 260 134 255.0751 134 249 C134 242.9249 138.9249 238 145 238 C151.0751 238 156 242.9249 156 249 Z" /></clipPath><clipPath clipPathUnits="userSpaceOnUse" id="clipPath8"><path d="M104 249 C104 255.0751 99.0751 260 93 260 C86.9249 260 82 255.0751 82 249 C82 242.9249 86.9249 238 93 238 C99.0751 238 104 242.9249 104 249 Z" /></clipPath><clipPath clipPathUnits="userSpaceOnUse" id="clipPath9"><path d="M186 186 L208 186 L208 208 L186 208 L186 186 Z" /></clipPath><clipPath clipPathUnits="userSpaceOnUse" id="clipPath10"><path d="M156 197 C156 203.0751 151.0751 208 145 208 C138.9249 208 134 203.0751 134 197 C134 190.9249 138.9249 186 145 186 C151.0751 186 156 190.9249 156 197 Z" /></clipPath><clipPath clipPathUnits="userSpaceOnUse" id="clipPath11"><path d="M93 186 L104 197 L93 208 L82 197 Z" style="fill-rule:evenodd;" /></clipPath><clipPath clipPathUnits="userSpaceOnUse" id="clipPath12"><path d="M238 160 L260 160 L260 182 L238 182 L238 160 Z" /></clipPath><clipPath clipPathUnits="userSpaceOnUse" id="clipPath13"><path d="M260 93 C260 99.0751 255.0751 104 249 104 C242.9249 104 238 99.0751 238 93 C238 86.9249 242.9249 82 249 82 C255.0751 82 260 86.9249 260 93 Z" /></clipPath><clipPath clipPathUnits="userSpaceOnUse" id="clipPath14"><path d="M186 134 L208 134 L208 156 L186 156 L186 134 Z" /></clipPath><clipPath clipPathUnits="userSpaceOnUse" id="clipPath15"><path d="M156 145 C156 151.0751 151.0751 156 145 156 C138.9249 156 134 151.0751 134 145 C134 138.9249 138.9249 134 145 134 C151.0751 134 156 138.9249 156 145 Z" /></clipPath><clipPath clipPathUnits="userSpaceOnUse" id="clipPath16"><path d="M93 134 L104 145 L93 156 L82 145 Z" style="fill-rule:evenodd;" /></clipPath><clipPath clipPathUnits="userSpaceOnUse" id="clipPath17"><path d="M41 134 L52 145 L41 156 L30 145 Z" style="fill-rule:evenodd;" /></clipPath><clipPath clipPathUnits="userSpaceOnUse" id="clipPath18"><path d="M186 30 L208 30 L208 52 L186 52 L186 30 Z" /></clipPath><clipPath clipPathUnits="userSpaceOnUse" id="clipPath19"><path d="M197 82 L208 104 L186 104 Z" style="fill-rule:evenodd;" /></clipPath><clipPath clipPathUnits="userSpaceOnUse" id="clipPath20"><path d="M156 41 C156 47.0751 151.0751 52 145 52 C138.9249 52 134 47.0751 134 41 C134 34.9249 138.9249 30 145 30 C151.0751 30 156 34.9249 156 41 Z" /></clipPath><clipPath clipPathUnits="userSpaceOnUse" id="clipPath21"><path d="M93 30 L104 41 L93 52 L82 41 Z" style="fill-rule:evenodd;" /></clipPath></defs><g style="fill:white; text-rendering:optimizeSpeed; stroke:white;"><rect height="342" style="stroke:none;" width="446" x="0" y="0" /></g><g ID="l-1:1,2" style="text-rendering:optimizeSpeed;"><polygon points=" 405 171 353 171" style="fill:none;" /></g><g ID="r-1:1" style="fill:white; text-rendering:optimizeSpeed; stroke:white;" wurcs_mono_id="1"><rect height="22" style="clip-path:url(#clipPath1); stroke:none;" width="22" x="394" y="160" /><rect height="22" style="clip-path:url(#clipPath1); fill:rgb(0,144,188); stroke:none;" width="22" x="394" y="160" /><rect height="22" style="clip-path:url(#clipPath1); fill:none; stroke:black;" width="22" x="394" y="160" /><rect height="22" style="fill:none; stroke:black;" width="22" x="394" y="160" /></g><g ID="l-1:2,3" style="text-rendering:optimizeSpeed;"><polygon points=" 353 171 301 171" style="fill:none;" /></g><g ID="r-1:2" style="fill:white; text-rendering:optimizeSpeed; stroke:white;" wurcs_mono_id="2"><rect height="22" style="clip-path:url(#clipPath2); stroke:none;" width="22" x="342" y="160" /><rect height="22" style="clip-path:url(#clipPath2); fill:rgb(0,144,188); stroke:none;" width="22" x="342" y="160" /><rect height="22" style="clip-path:url(#clipPath2); fill:none; stroke:black;" width="22" x="342" y="160" /><rect height="22" style="fill:none; stroke:black;" width="22" x="342" y="160" /></g><g ID="l-1:3,4" style="text-rendering:optimizeSpeed;"><polygon points=" 301 171 249 223" style="fill:none;" /></g><g ID="l-1:3,5" style="text-rendering:optimizeSpeed;"><polygon points=" 301 171 249 171" style="fill:none;" /></g><g ID="l-1:3,6" style="text-rendering:optimizeSpeed;"><polygon points=" 301 171 249 93" style="fill:none;" /></g><g ID="r-1:3" style="fill:white; text-rendering:optimizeSpeed; stroke:white;" wurcs_mono_id="3"><circle cx="301" cy="171" r="11" style="clip-path:url(#clipPath3); stroke:none;" /><rect height="22" style="clip-path:url(#clipPath3); fill:rgb(0,166,81); stroke:none;" width="22" x="290" y="160" /><rect height="22" style="clip-path:url(#clipPath3); fill:none; stroke:black;" width="22" x="290" y="160" /><circle cx="301" cy="171" r="11" style="fill:none; stroke:black;" /></g><g ID="l-1:4,7" style="text-rendering:optimizeSpeed;"><polygon points=" 249 223 197 249" style="fill:none;" /></g><g ID="l-1:4,8" style="text-rendering:optimizeSpeed;"><polygon points=" 249 223 197 197" style="fill:none;" /></g><g ID="r-1:4" style="fill:white; text-rendering:optimizeSpeed; stroke:white;" wurcs_mono_id="4"><circle cx="249" cy="223" r="11" style="clip-path:url(#clipPath4); stroke:none;" /><rect height="22" style="clip-path:url(#clipPath4); fill:rgb(0,166,81); stroke:none;" width="22" x="238" y="212" /><rect height="22" style="clip-path:url(#clipPath4); fill:none; stroke:black;" width="22" x="238" y="212" /><circle cx="249" cy="223" r="11" style="fill:none; stroke:black;" /></g><g ID="l-1:7,9" style="text-rendering:optimizeSpeed;"><polygon points=" 197 249 197 301" style="fill:none;" /></g><g ID="l-1:7,10" style="text-rendering:optimizeSpeed;"><polygon points=" 197 249 145 249" style="fill:none;" /></g><g ID="r-1:7" style="fill:white; text-rendering:optimizeSpeed; stroke:white;" wurcs_mono_id="5"><rect height="22" style="clip-path:url(#clipPath5); stroke:none;" width="22" x="186" y="238" /><rect height="22" style="clip-path:url(#clipPath5); fill:rgb(0,144,188); stroke:none;" width="22" x="186" y="238" /><rect height="22" style="clip-path:url(#clipPath5); fill:none; stroke:black;" width="22" x="186" y="238" /><rect height="22" style="fill:none; stroke:black;" width="22" x="186" y="238" /></g><g ID="r-1:9" style="fill:white; text-rendering:optimizeSpeed; stroke:white;" wurcs_mono_id="6"><polygon points=" 197 290 208 312 186 312" style="stroke:none; clip-path:url(#clipPath6);" /><rect height="22" style="clip-path:url(#clipPath6); fill:rgb(237,28,36); stroke:none;" width="22" x="186" y="290" /><rect height="22" style="clip-path:url(#clipPath6); fill:none; stroke:black;" width="22" x="186" y="290" /><polygon points=" 197 290 208 312 186 312" style="fill:none; stroke:black;" /></g><g ID="l-1:10,11" style="text-rendering:optimizeSpeed;"><polygon points=" 145 249 93 249" style="fill:none;" /></g><g ID="r-1:10" style="fill:white; text-rendering:optimizeSpeed; stroke:white;" wurcs_mono_id="7"><circle cx="145" cy="249" r="11" style="clip-path:url(#clipPath7); stroke:none;" /><rect height="22" style="clip-path:url(#clipPath7); fill:rgb(255,212,0); stroke:none;" width="22" x="134" y="238" /><rect height="22" style="clip-path:url(#clipPath7); fill:none; stroke:black;" width="22" x="134" y="238" /><circle cx="145" cy="249" r="11" style="fill:none; stroke:black;" /></g><g ID="r-1:11" style="fill:white; text-rendering:optimizeSpeed; stroke:white;" wurcs_mono_id="8"><circle cx="93" cy="249" r="11" style="clip-path:url(#clipPath8); stroke:none;" /><rect height="22" style="clip-path:url(#clipPath8); fill:rgb(255,212,0); stroke:none;" width="22" x="82" y="238" /><rect height="22" style="clip-path:url(#clipPath8); fill:none; stroke:black;" width="22" x="82" y="238" /><circle cx="93" cy="249" r="11" style="fill:none; stroke:black;" /></g><g ID="li-1:10,11" style="fill:white; text-rendering:optimizeSpeed; font-family:'Serif'; stroke:white;"><rect height="10" style="stroke:none;" width="7" x="122" y="252" /><path d="M123.1719 253.625 Q123.8594 253.3594 124.4844 253.2266 Q125.1094 253.0938 125.6562 253.0938 Q126.9531 253.0938 127.6719 253.6484 Q128.3906 254.2031 128.3906 255.1875 Q128.3906 255.9688 127.8906 256.5 Q127.3906 257.0312 126.4844 257.2188 Q127.5625 257.375 128.1562 258.0078 Q128.75 258.6406 128.75 259.6406 Q128.75 260.8594 127.9219 261.5156 Q127.0938 262.1719 125.5469 262.1719 Q124.8594 262.1719 124.2109 262.0234 Q123.5625 261.875 122.9219 261.5781 L122.9219 259.875 L123.5781 259.875 Q123.625 260.7188 124.1406 261.1562 Q124.6562 261.5938 125.5781 261.5938 Q126.4688 261.5938 126.9922 261.0703 Q127.5156 260.5469 127.5156 259.6562 Q127.5156 258.625 126.9766 258.0938 Q126.4375 257.5625 125.4062 257.5625 L124.8594 257.5625 L124.8594 256.9531 L125.1406 256.9531 Q126.1719 256.9531 126.6875 256.5312 Q127.2031 256.1094 127.2031 255.25 Q127.2031 254.4844 126.7812 254.0781 Q126.3594 253.6719 125.5625 253.6719 Q124.7656 253.6719 124.3359 254.0469 Q123.9062 254.4219 123.8281 255.1562 L123.1719 255.1562 L123.1719 253.625 Z" style="fill:black; stroke:none;" /><rect height="8" style="stroke:none;" width="8" x="108" y="253" /><path d="M113.1875 259.4688 L112.9531 260.1094 Q112.7656 260.625 112.2031 260.9375 Q111.8438 261.1562 111.2031 261.1406 Q110.0469 261.1406 109.3281 260.2344 Q108.5938 259.3281 108.5938 257.8594 Q108.5938 256.4219 109.3281 255.4844 Q110.0156 254.5938 111.4531 254.6094 Q112.4531 254.6094 112.9531 255 Q113.4062 255.3438 113.5781 256.0938 L113.625 256.3125 L113.8438 255.6719 Q114.0625 255.0469 114.6562 254.75 L115.25 254.75 L115.25 255.0938 Q114.6875 255.2656 114.5 255.8125 L113.8906 257.4844 L114.2969 259.2812 Q114.5 260.2031 114.7344 260.2969 Q115.0469 260.4375 115.7812 260 L115.7812 260.7188 Q114.5938 261.4062 113.75 260.6875 Q113.375 260.3594 113.2656 259.875 L113.1875 259.4688 ZM112.9219 258.3125 L112.5625 256.5938 Q112.2656 255.2188 111.4688 255.2188 Q110.7969 255.2031 110.2812 255.9375 Q109.8594 256.5156 109.8594 257.875 Q109.8594 259.1719 110.2812 259.8281 Q110.75 260.5469 111.5312 260.5 Q112.2031 260.4375 112.6875 259 L112.9219 258.3125 Z" style="fill:black; stroke:none;" /></g><g ID="li-1:7,9" style="fill:white; text-rendering:optimizeSpeed; font-family:'Serif'; stroke:white;"><rect height="10" style="stroke:none;" width="7" x="201" y="263" /><path d="M202.1719 264.625 Q202.8594 264.3594 203.4844 264.2266 Q204.1094 264.0938 204.6562 264.0938 Q205.9531 264.0938 206.6719 264.6484 Q207.3906 265.2031 207.3906 266.1875 Q207.3906 266.9688 206.8906 267.5 Q206.3906 268.0312 205.4844 268.2188 Q206.5625 268.375 207.1562 269.0078 Q207.75 269.6406 207.75 270.6406 Q207.75 271.8594 206.9219 272.5156 Q206.0938 273.1719 204.5469 273.1719 Q203.8594 273.1719 203.2109 273.0234 Q202.5625 272.875 201.9219 272.5781 L201.9219 270.875 L202.5781 270.875 Q202.625 271.7188 203.1406 272.1562 Q203.6562 272.5938 204.5781 272.5938 Q205.4688 272.5938 205.9922 272.0703 Q206.5156 271.5469 206.5156 270.6562 Q206.5156 269.625 205.9766 269.0938 Q205.4375 268.5625 204.4062 268.5625 L203.8594 268.5625 L203.8594 267.9531 L204.1406 267.9531 Q205.1719 267.9531 205.6875 267.5312 Q206.2031 267.1094 206.2031 266.25 Q206.2031 265.4844 205.7812 265.0781 Q205.3594 264.6719 204.5625 264.6719 Q203.7656 264.6719 203.3359 265.0469 Q202.9062 265.4219 202.8281 266.1562 L202.1719 266.1562 L202.1719 264.625 Z" style="fill:black; stroke:none;" /><rect height="8" style="stroke:none;" width="8" x="201" y="278" /><path d="M206.1875 284.4688 L205.9531 285.1094 Q205.7656 285.625 205.2031 285.9375 Q204.8438 286.1562 204.2031 286.1406 Q203.0469 286.1406 202.3281 285.2344 Q201.5938 284.3281 201.5938 282.8594 Q201.5938 281.4219 202.3281 280.4844 Q203.0156 279.5938 204.4531 279.6094 Q205.4531 279.6094 205.9531 280 Q206.4062 280.3438 206.5781 281.0938 L206.625 281.3125 L206.8438 280.6719 Q207.0625 280.0469 207.6562 279.75 L208.25 279.75 L208.25 280.0938 Q207.6875 280.2656 207.5 280.8125 L206.8906 282.4844 L207.2969 284.2812 Q207.5 285.2031 207.7344 285.2969 Q208.0469 285.4375 208.7812 285 L208.7812 285.7188 Q207.5938 286.4062 206.75 285.6875 Q206.375 285.3594 206.2656 284.875 L206.1875 284.4688 ZM205.9219 283.3125 L205.5625 281.5938 Q205.2656 280.2188 204.4688 280.2188 Q203.7969 280.2031 203.2812 280.9375 Q202.8594 281.5156 202.8594 282.875 Q202.8594 284.1719 203.2812 284.8281 Q203.75 285.5469 204.5312 285.5 Q205.2031 285.4375 205.6875 284 L205.9219 283.3125 Z" style="fill:black; stroke:none;" /></g><g ID="li-1:7,10" style="fill:white; text-rendering:optimizeSpeed; font-family:'Serif'; stroke:white;"><rect height="9" style="stroke:none;" width="8" x="174" y="252" /><path d="M178.1875 258.0312 L178.1875 253.375 L175.2031 258.0312 L178.1875 258.0312 ZM180.7656 261 L176.7812 261 L176.7812 260.375 L178.1875 260.375 L178.1875 258.6562 L174.375 258.6562 L174.375 258.0156 L178.2031 252.0938 L179.3594 252.0938 L179.3594 258.0312 L181.0312 258.0312 L181.0312 258.6562 L179.3594 258.6562 L179.3594 260.375 L180.7656 260.375 L180.7656 261 Z" style="fill:black; stroke:none;" /><rect height="13" style="stroke:none;" width="7" x="160" y="250" /><path d="M161.8281 262.25 Q162.2969 262.5938 163.1719 262.5938 Q164.0625 262.5938 164.5781 262.0703 Q165.0938 261.5469 165.0938 260.6562 Q165.0938 259.4219 164.5625 258.8906 Q164.0156 258.3594 163 258.3594 L162.4375 258.3594 L162.4375 257.7188 L162.7344 257.7188 Q163.4844 257.7188 164 257.2969 Q164.4219 256.9531 164.4219 256.0156 Q164.4219 255.6094 164.1406 255.1406 Q163.6875 254.375 163.1562 254.3906 Q161.8281 254.4375 161.8281 256.7812 L161.8281 262.25 ZM160.75 265.5 L160.75 256.7812 Q160.75 254.3281 162.0781 254 Q162.7656 253.8125 163.25 253.8125 Q164.3438 253.8125 165.0469 254.6719 Q165.6094 255.3594 165.6094 255.9375 Q165.6094 256.7812 165.2031 257.2656 Q164.7969 257.75 164.0625 257.9844 Q165.1406 258.1406 165.75 258.7812 Q166.3281 259.4062 166.3281 260.6328 Q166.3281 261.8594 165.5078 262.5156 Q164.6875 263.1719 163.1406 263.1719 Q162.1875 263.1719 161.8281 263.0312 L161.8281 265.5 L160.75 265.5 Z" style="fill:black; stroke:none;" /></g><g ID="l-1:8,12" style="text-rendering:optimizeSpeed;"><polygon points=" 197 197 145 197" style="fill:none;" /></g><g ID="r-1:8" style="fill:white; text-rendering:optimizeSpeed; stroke:white;" wurcs_mono_id="9"><rect height="22" style="clip-path:url(#clipPath9); stroke:none;" width="22" x="186" y="186" /><rect height="22" style="clip-path:url(#clipPath9); fill:rgb(0,144,188); stroke:none;" width="22" x="186" y="186" /><rect height="22" style="clip-path:url(#clipPath9); fill:none; stroke:black;" width="22" x="186" y="186" /><rect height="22" style="fill:none; stroke:black;" width="22" x="186" y="186" /></g><g ID="l-1:12,13" style="text-rendering:optimizeSpeed;"><polygon points=" 145 197 93 197" style="fill:none;" /></g><g ID="r-1:12" style="fill:white; text-rendering:optimizeSpeed; stroke:white;" wurcs_mono_id="10"><circle cx="145" cy="197" r="11" style="clip-path:url(#clipPath10); stroke:none;" /><rect height="22" style="clip-path:url(#clipPath10); fill:rgb(255,212,0); stroke:none;" width="22" x="134" y="186" /><rect height="22" style="clip-path:url(#clipPath10); fill:none; stroke:black;" width="22" x="134" y="186" /><circle cx="145" cy="197" r="11" style="fill:none; stroke:black;" /></g><g ID="r-1:13" style="fill:white; text-rendering:optimizeSpeed; stroke:white;" wurcs_mono_id="11"><polygon points=" 93 186 104 197 93 208 82 197" style="stroke:none; clip-path:url(#clipPath11);" /><rect height="22" style="clip-path:url(#clipPath11); fill:rgb(165,67,153); stroke:none;" width="22" x="82" y="186" /><rect height="22" style="clip-path:url(#clipPath11); fill:none; stroke:black;" width="22" x="82" y="186" /><polygon points=" 93 186 104 197 93 208 82 197" style="fill:none; stroke:black;" /></g><g ID="li-1:12,13" style="fill:white; text-rendering:optimizeSpeed; font-family:'Serif'; stroke:white;"><rect height="11" style="stroke:none;" width="19" x="116" y="199" /><path d="M117.1719 201.625 Q117.8594 201.3594 118.4844 201.2266 Q119.1094 201.0938 119.6562 201.0938 Q120.9531 201.0938 121.6719 201.6484 Q122.3906 202.2031 122.3906 203.1875 Q122.3906 203.9688 121.8906 204.5 Q121.3906 205.0312 120.4844 205.2188 Q121.5625 205.375 122.1562 206.0078 Q122.75 206.6406 122.75 207.6406 Q122.75 208.8594 121.9219 209.5156 Q121.0938 210.1719 119.5469 210.1719 Q118.8594 210.1719 118.2109 210.0234 Q117.5625 209.875 116.9219 209.5781 L116.9219 207.875 L117.5781 207.875 Q117.625 208.7188 118.1406 209.1562 Q118.6562 209.5938 119.5781 209.5938 Q120.4688 209.5938 120.9922 209.0703 Q121.5156 208.5469 121.5156 207.6562 Q121.5156 206.625 120.9766 206.0938 Q120.4375 205.5625 119.4062 205.5625 L118.8594 205.5625 L118.8594 204.9531 L119.1406 204.9531 Q120.1719 204.9531 120.6875 204.5312 Q121.2031 204.1094 121.2031 203.25 Q121.2031 202.4844 120.7812 202.0781 Q120.3594 201.6719 119.5625 201.6719 Q118.7656 201.6719 118.3359 202.0469 Q117.9062 202.4219 117.8281 203.1562 L117.1719 203.1562 L117.1719 201.625 ZM126.7441 201.25 L127.6816 201.25 L124.5723 211.1094 L123.6348 211.1094 L126.7441 201.25 ZM131.5996 209.5938 Q132.4277 209.5938 132.873 208.9844 Q133.3184 208.375 133.3184 207.2344 Q133.3184 206.1094 132.873 205.5 Q132.4277 204.8906 131.5996 204.8906 Q130.7715 204.8906 130.3262 205.4766 Q129.8809 206.0625 129.8809 207.1719 Q129.8809 208.3281 130.3262 208.9609 Q130.7715 209.5938 131.5996 209.5938 ZM129.6934 205.1875 Q130.0996 204.75 130.5996 204.5312 Q131.0996 204.3125 131.7402 204.3125 Q133.0371 204.3125 133.7949 205.0938 Q134.5527 205.875 134.5527 207.2344 Q134.5527 208.5625 133.7402 209.3672 Q132.9277 210.1719 131.5527 210.1719 Q130.0684 210.1719 129.2715 209.0625 Q128.4746 207.9531 128.4746 205.9062 Q128.4746 203.6094 129.4199 202.3516 Q130.3652 201.0938 132.084 201.0938 Q132.5527 201.0938 133.0605 201.1797 Q133.5684 201.2656 134.0996 201.4375 L134.0996 202.8906 L133.4434 202.8906 Q133.3652 202.2969 132.9824 201.9844 Q132.5996 201.6719 131.959 201.6719 Q130.8184 201.6719 130.2637 202.5312 Q129.709 203.3906 129.6934 205.1875 Z" style="fill:black; stroke:none;" /><rect height="8" style="stroke:none;" width="8" x="108" y="201" /><path d="M113.1875 207.4688 L112.9531 208.1094 Q112.7656 208.625 112.2031 208.9375 Q111.8438 209.1562 111.2031 209.1406 Q110.0469 209.1406 109.3281 208.2344 Q108.5938 207.3281 108.5938 205.8594 Q108.5938 204.4219 109.3281 203.4844 Q110.0156 202.5938 111.4531 202.6094 Q112.4531 202.6094 112.9531 203 Q113.4062 203.3438 113.5781 204.0938 L113.625 204.3125 L113.8438 203.6719 Q114.0625 203.0469 114.6562 202.75 L115.25 202.75 L115.25 203.0938 Q114.6875 203.2656 114.5 203.8125 L113.8906 205.4844 L114.2969 207.2812 Q114.5 208.2031 114.7344 208.2969 Q115.0469 208.4375 115.7812 208 L115.7812 208.7188 Q114.5938 209.4062 113.75 208.6875 Q113.375 208.3594 113.2656 207.875 L113.1875 207.4688 ZM112.9219 206.3125 L112.5625 204.5938 Q112.2656 203.2188 111.4688 203.2188 Q110.7969 203.2031 110.2812 203.9375 Q109.8594 204.5156 109.8594 205.875 Q109.8594 207.1719 110.2812 207.8281 Q110.75 208.5469 111.5312 208.5 Q112.2031 208.4375 112.6875 207 L112.9219 206.3125 Z" style="fill:black; stroke:none;" /></g><g ID="li-1:8,12" style="fill:white; text-rendering:optimizeSpeed; font-family:'Serif'; stroke:white;"><rect height="9" style="stroke:none;" width="8" x="174" y="200" /><path d="M178.1875 206.0312 L178.1875 201.375 L175.2031 206.0312 L178.1875 206.0312 ZM180.7656 209 L176.7812 209 L176.7812 208.375 L178.1875 208.375 L178.1875 206.6562 L174.375 206.6562 L174.375 206.0156 L178.2031 200.0938 L179.3594 200.0938 L179.3594 206.0312 L181.0312 206.0312 L181.0312 206.6562 L179.3594 206.6562 L179.3594 208.375 L180.7656 208.375 L180.7656 209 Z" style="fill:black; stroke:none;" /><rect height="13" style="stroke:none;" width="7" x="160" y="198" /><path d="M161.8281 210.25 Q162.2969 210.5938 163.1719 210.5938 Q164.0625 210.5938 164.5781 210.0703 Q165.0938 209.5469 165.0938 208.6562 Q165.0938 207.4219 164.5625 206.8906 Q164.0156 206.3594 163 206.3594 L162.4375 206.3594 L162.4375 205.7188 L162.7344 205.7188 Q163.4844 205.7188 164 205.2969 Q164.4219 204.9531 164.4219 204.0156 Q164.4219 203.6094 164.1406 203.1406 Q163.6875 202.375 163.1562 202.3906 Q161.8281 202.4375 161.8281 204.7812 L161.8281 210.25 ZM160.75 213.5 L160.75 204.7812 Q160.75 202.3281 162.0781 202 Q162.7656 201.8125 163.25 201.8125 Q164.3438 201.8125 165.0469 202.6719 Q165.6094 203.3594 165.6094 203.9375 Q165.6094 204.7812 165.2031 205.2656 Q164.7969 205.75 164.0625 205.9844 Q165.1406 206.1406 165.75 206.7812 Q166.3281 207.4062 166.3281 208.6328 Q166.3281 209.8594 165.5078 210.5156 Q164.6875 211.1719 163.1406 211.1719 Q162.1875 211.1719 161.8281 211.0312 L161.8281 213.5 L160.75 213.5 Z" style="fill:black; stroke:none;" /></g><g ID="li-1:4,7" style="fill:white; text-rendering:optimizeSpeed; font-family:'Serif'; stroke:white;"><rect height="9" style="stroke:none;" width="7" x="230" y="234" /><path d="M231.5312 236.3438 L230.875 236.3438 L230.875 234.7812 Q231.5 234.4375 232.1406 234.2656 Q232.7812 234.0938 233.3906 234.0938 Q234.75 234.0938 235.5391 234.7578 Q236.3281 235.4219 236.3281 236.5469 Q236.3281 237.8438 234.5469 239.625 Q234.4062 239.7656 234.3281 239.8281 L232.125 242.0312 L235.7656 242.0312 L235.7656 240.9531 L236.4531 240.9531 L236.4531 243 L230.8125 243 L230.8125 242.3594 L233.4688 239.7188 Q234.3438 238.8281 234.7188 238.0938 Q235.0938 237.3594 235.0938 236.5469 Q235.0938 235.6719 234.6328 235.1719 Q234.1719 234.6719 233.375 234.6719 Q232.5312 234.6719 232.0781 235.0859 Q231.625 235.5 231.5312 236.3438 Z" style="fill:black; stroke:none;" /><rect height="13" style="stroke:none;" width="7" x="215" y="240" /><path d="M216.8281 252.25 Q217.2969 252.5938 218.1719 252.5938 Q219.0625 252.5938 219.5781 252.0703 Q220.0938 251.5469 220.0938 250.6562 Q220.0938 249.4219 219.5625 248.8906 Q219.0156 248.3594 218 248.3594 L217.4375 248.3594 L217.4375 247.7188 L217.7344 247.7188 Q218.4844 247.7188 219 247.2969 Q219.4219 246.9531 219.4219 246.0156 Q219.4219 245.6094 219.1406 245.1406 Q218.6875 244.375 218.1562 244.3906 Q216.8281 244.4375 216.8281 246.7812 L216.8281 252.25 ZM215.75 255.5 L215.75 246.7812 Q215.75 244.3281 217.0781 244 Q217.7656 243.8125 218.25 243.8125 Q219.3438 243.8125 220.0469 244.6719 Q220.6094 245.3594 220.6094 245.9375 Q220.6094 246.7812 220.2031 247.2656 Q219.7969 247.75 219.0625 247.9844 Q220.1406 248.1406 220.75 248.7812 Q221.3281 249.4062 221.3281 250.6328 Q221.3281 251.8594 220.5078 252.5156 Q219.6875 253.1719 218.1406 253.1719 Q217.1875 253.1719 216.8281 253.0312 L216.8281 255.5 L215.75 255.5 Z" style="fill:black; stroke:none;" /></g><g ID="li-1:4,8" style="fill:white; text-rendering:optimizeSpeed; font-family:'Serif'; stroke:white;"><rect height="9" style="stroke:none;" width="8" x="223" y="216" /><path d="M227.1875 222.0312 L227.1875 217.375 L224.2031 222.0312 L227.1875 222.0312 ZM229.7656 225 L225.7812 225 L225.7812 224.375 L227.1875 224.375 L227.1875 222.6562 L223.375 222.6562 L223.375 222.0156 L227.2031 216.0938 L228.3594 216.0938 L228.3594 222.0312 L230.0312 222.0312 L230.0312 222.6562 L228.3594 222.6562 L228.3594 224.375 L229.7656 224.375 L229.7656 225 Z" style="fill:black; stroke:none;" /><rect height="13" style="stroke:none;" width="7" x="208" y="206" /><path d="M209.8281 218.25 Q210.2969 218.5938 211.1719 218.5938 Q212.0625 218.5938 212.5781 218.0703 Q213.0938 217.5469 213.0938 216.6562 Q213.0938 215.4219 212.5625 214.8906 Q212.0156 214.3594 211 214.3594 L210.4375 214.3594 L210.4375 213.7188 L210.7344 213.7188 Q211.4844 213.7188 212 213.2969 Q212.4219 212.9531 212.4219 212.0156 Q212.4219 211.6094 212.1406 211.1406 Q211.6875 210.375 211.1562 210.3906 Q209.8281 210.4375 209.8281 212.7812 L209.8281 218.25 ZM208.75 221.5 L208.75 212.7812 Q208.75 210.3281 210.0781 210 Q210.7656 209.8125 211.25 209.8125 Q212.3438 209.8125 213.0469 210.6719 Q213.6094 211.3594 213.6094 211.9375 Q213.6094 212.7812 213.2031 213.2656 Q212.7969 213.75 212.0625 213.9844 Q213.1406 214.1406 213.75 214.7812 Q214.3281 215.4062 214.3281 216.6328 Q214.3281 217.8594 213.5078 218.5156 Q212.6875 219.1719 211.1406 219.1719 Q210.1875 219.1719 209.8281 219.0312 L209.8281 221.5 L208.75 221.5 Z" style="fill:black; stroke:none;" /></g><g ID="r-1:5" style="fill:white; text-rendering:optimizeSpeed; stroke:white;" wurcs_mono_id="12"><rect height="22" style="clip-path:url(#clipPath12); stroke:none;" width="22" x="238" y="160" /><rect height="22" style="clip-path:url(#clipPath12); fill:rgb(0,144,188); stroke:none;" width="22" x="238" y="160" /><rect height="22" style="clip-path:url(#clipPath12); fill:none; stroke:black;" width="22" x="238" y="160" /><rect height="22" style="fill:none; stroke:black;" width="22" x="238" y="160" /></g><g ID="l-1:6,14" style="text-rendering:optimizeSpeed;"><polygon points=" 249 93 197 145" style="fill:none;" /></g><g ID="l-1:6,15" style="text-rendering:optimizeSpeed;"><polygon points=" 249 93 197 41" style="fill:none;" /></g><g ID="r-1:6" style="fill:white; text-rendering:optimizeSpeed; stroke:white;" wurcs_mono_id="13"><circle cx="249" cy="93" r="11" style="clip-path:url(#clipPath13); stroke:none;" /><rect height="22" style="clip-path:url(#clipPath13); fill:rgb(0,166,81); stroke:none;" width="22" x="238" y="82" /><rect height="22" style="clip-path:url(#clipPath13); fill:none; stroke:black;" width="22" x="238" y="82" /><circle cx="249" cy="93" r="11" style="fill:none; stroke:black;" /></g><g ID="l-1:14,16" style="text-rendering:optimizeSpeed;"><polygon points=" 197 145 145 145" style="fill:none;" /></g><g ID="r-1:14" style="fill:white; text-rendering:optimizeSpeed; stroke:white;" wurcs_mono_id="14"><rect height="22" style="clip-path:url(#clipPath14); stroke:none;" width="22" x="186" y="134" /><rect height="22" style="clip-path:url(#clipPath14); fill:rgb(0,144,188); stroke:none;" width="22" x="186" y="134" /><rect height="22" style="clip-path:url(#clipPath14); fill:none; stroke:black;" width="22" x="186" y="134" /><rect height="22" style="fill:none; stroke:black;" width="22" x="186" y="134" /></g><g ID="l-1:16,17" style="text-rendering:optimizeSpeed;"><polygon points=" 145 145 93 145" style="fill:none;" /></g><g ID="r-1:16" style="fill:white; text-rendering:optimizeSpeed; stroke:white;" wurcs_mono_id="15"><circle cx="145" cy="145" r="11" style="clip-path:url(#clipPath15); stroke:none;" /><rect height="22" style="clip-path:url(#clipPath15); fill:rgb(255,212,0); stroke:none;" width="22" x="134" y="134" /><rect height="22" style="clip-path:url(#clipPath15); fill:none; stroke:black;" width="22" x="134" y="134" /><circle cx="145" cy="145" r="11" style="fill:none; stroke:black;" /></g><g ID="l-1:17,18" style="text-rendering:optimizeSpeed;"><polygon points=" 93 145 41 145" style="fill:none;" /></g><g ID="r-1:17" style="fill:white; text-rendering:optimizeSpeed; stroke:white;" wurcs_mono_id="16"><polygon points=" 93 134 104 145 93 156 82 145" style="stroke:none; clip-path:url(#clipPath16);" /><rect height="22" style="clip-path:url(#clipPath16); fill:rgb(165,67,153); stroke:none;" width="22" x="82" y="134" /><rect height="22" style="clip-path:url(#clipPath16); fill:none; stroke:black;" width="22" x="82" y="134" /><polygon points=" 93 134 104 145 93 156 82 145" style="fill:none; stroke:black;" /></g><g ID="r-1:18" style="fill:white; text-rendering:optimizeSpeed; stroke:white;" wurcs_mono_id="17"><polygon points=" 41 134 52 145 41 156 30 145" style="stroke:none; clip-path:url(#clipPath17);" /><rect height="22" style="clip-path:url(#clipPath17); fill:rgb(165,67,153); stroke:none;" width="22" x="30" y="134" /><rect height="22" style="clip-path:url(#clipPath17); fill:none; stroke:black;" width="22" x="30" y="134" /><polygon points=" 41 134 52 145 41 156 30 145" style="fill:none; stroke:black;" /></g><g ID="li-1:17,18" style="fill:white; text-rendering:optimizeSpeed; font-family:'Serif'; stroke:white;"><rect height="10" style="stroke:none;" width="7" x="70" y="148" /><path d="M75.5938 155.6094 Q75.5938 154.6719 75.125 154.1562 Q74.6562 153.6406 73.8125 153.6406 Q72.9688 153.6406 72.5078 154.1562 Q72.0469 154.6719 72.0469 155.6094 Q72.0469 156.5469 72.5078 157.0703 Q72.9688 157.5938 73.8125 157.5938 Q74.6562 157.5938 75.125 157.0703 Q75.5938 156.5469 75.5938 155.6094 ZM75.3438 151.3594 Q75.3438 150.5625 74.9453 150.1172 Q74.5469 149.6719 73.8125 149.6719 Q73.0938 149.6719 72.6875 150.1172 Q72.2812 150.5625 72.2812 151.3594 Q72.2812 152.1562 72.6875 152.6016 Q73.0938 153.0469 73.8125 153.0469 Q74.5469 153.0469 74.9453 152.6016 Q75.3438 152.1562 75.3438 151.3594 ZM74.7188 153.3438 Q75.7188 153.4688 76.2734 154.0703 Q76.8281 154.6719 76.8281 155.6094 Q76.8281 156.8438 76.0469 157.5078 Q75.2656 158.1719 73.8125 158.1719 Q72.375 158.1719 71.5859 157.5078 Q70.7969 156.8438 70.7969 155.6094 Q70.7969 154.6719 71.3594 154.0703 Q71.9219 153.4688 72.9219 153.3438 Q72.0312 153.1875 71.5625 152.6719 Q71.0938 152.1562 71.0938 151.3594 Q71.0938 150.3125 71.8203 149.7031 Q72.5469 149.0938 73.8125 149.0938 Q75.0938 149.0938 75.8203 149.7031 Q76.5469 150.3125 76.5469 151.3594 Q76.5469 152.1562 76.0703 152.6719 Q75.5938 153.1875 74.7188 153.3438 Z" style="fill:black; stroke:none;" /><rect height="8" style="stroke:none;" width="8" x="56" y="149" /><path d="M61.1875 155.4688 L60.9531 156.1094 Q60.7656 156.625 60.2031 156.9375 Q59.8438 157.1562 59.2031 157.1406 Q58.0469 157.1406 57.3281 156.2344 Q56.5938 155.3281 56.5938 153.8594 Q56.5938 152.4219 57.3281 151.4844 Q58.0156 150.5938 59.4531 150.6094 Q60.4531 150.6094 60.9531 151 Q61.4062 151.3438 61.5781 152.0938 L61.625 152.3125 L61.8438 151.6719 Q62.0625 151.0469 62.6562 150.75 L63.25 150.75 L63.25 151.0938 Q62.6875 151.2656 62.5 151.8125 L61.8906 153.4844 L62.2969 155.2812 Q62.5 156.2031 62.7344 156.2969 Q63.0469 156.4375 63.7812 156 L63.7812 156.7188 Q62.5938 157.4062 61.75 156.6875 Q61.375 156.3594 61.2656 155.875 L61.1875 155.4688 ZM60.9219 154.3125 L60.5625 152.5938 Q60.2656 151.2188 59.4688 151.2188 Q58.7969 151.2031 58.2812 151.9375 Q57.8594 152.5156 57.8594 153.875 Q57.8594 155.1719 58.2812 155.8281 Q58.75 156.5469 59.5312 156.5 Q60.2031 156.4375 60.6875 155 L60.9219 154.3125 Z" style="fill:black; stroke:none;" /></g><g ID="li-1:16,17" style="fill:white; text-rendering:optimizeSpeed; font-family:'Serif'; stroke:white;"><rect height="11" style="stroke:none;" width="19" x="116" y="147" /><path d="M117.1719 149.625 Q117.8594 149.3594 118.4844 149.2266 Q119.1094 149.0938 119.6562 149.0938 Q120.9531 149.0938 121.6719 149.6484 Q122.3906 150.2031 122.3906 151.1875 Q122.3906 151.9688 121.8906 152.5 Q121.3906 153.0312 120.4844 153.2188 Q121.5625 153.375 122.1562 154.0078 Q122.75 154.6406 122.75 155.6406 Q122.75 156.8594 121.9219 157.5156 Q121.0938 158.1719 119.5469 158.1719 Q118.8594 158.1719 118.2109 158.0234 Q117.5625 157.875 116.9219 157.5781 L116.9219 155.875 L117.5781 155.875 Q117.625 156.7188 118.1406 157.1562 Q118.6562 157.5938 119.5781 157.5938 Q120.4688 157.5938 120.9922 157.0703 Q121.5156 156.5469 121.5156 155.6562 Q121.5156 154.625 120.9766 154.0938 Q120.4375 153.5625 119.4062 153.5625 L118.8594 153.5625 L118.8594 152.9531 L119.1406 152.9531 Q120.1719 152.9531 120.6875 152.5312 Q121.2031 152.1094 121.2031 151.25 Q121.2031 150.4844 120.7812 150.0781 Q120.3594 149.6719 119.5625 149.6719 Q118.7656 149.6719 118.3359 150.0469 Q117.9062 150.4219 117.8281 151.1562 L117.1719 151.1562 L117.1719 149.625 ZM126.7441 149.25 L127.6816 149.25 L124.5723 159.1094 L123.6348 159.1094 L126.7441 149.25 ZM131.5996 157.5938 Q132.4277 157.5938 132.873 156.9844 Q133.3184 156.375 133.3184 155.2344 Q133.3184 154.1094 132.873 153.5 Q132.4277 152.8906 131.5996 152.8906 Q130.7715 152.8906 130.3262 153.4766 Q129.8809 154.0625 129.8809 155.1719 Q129.8809 156.3281 130.3262 156.9609 Q130.7715 157.5938 131.5996 157.5938 ZM129.6934 153.1875 Q130.0996 152.75 130.5996 152.5312 Q131.0996 152.3125 131.7402 152.3125 Q133.0371 152.3125 133.7949 153.0938 Q134.5527 153.875 134.5527 155.2344 Q134.5527 156.5625 133.7402 157.3672 Q132.9277 158.1719 131.5527 158.1719 Q130.0684 158.1719 129.2715 157.0625 Q128.4746 155.9531 128.4746 153.9062 Q128.4746 151.6094 129.4199 150.3516 Q130.3652 149.0938 132.084 149.0938 Q132.5527 149.0938 133.0605 149.1797 Q133.5684 149.2656 134.0996 149.4375 L134.0996 150.8906 L133.4434 150.8906 Q133.3652 150.2969 132.9824 149.9844 Q132.5996 149.6719 131.959 149.6719 Q130.8184 149.6719 130.2637 150.5312 Q129.709 151.3906 129.6934 153.1875 Z" style="fill:black; stroke:none;" /><rect height="8" style="stroke:none;" width="8" x="108" y="149" /><path d="M113.1875 155.4688 L112.9531 156.1094 Q112.7656 156.625 112.2031 156.9375 Q111.8438 157.1562 111.2031 157.1406 Q110.0469 157.1406 109.3281 156.2344 Q108.5938 155.3281 108.5938 153.8594 Q108.5938 152.4219 109.3281 151.4844 Q110.0156 150.5938 111.4531 150.6094 Q112.4531 150.6094 112.9531 151 Q113.4062 151.3438 113.5781 152.0938 L113.625 152.3125 L113.8438 151.6719 Q114.0625 151.0469 114.6562 150.75 L115.25 150.75 L115.25 151.0938 Q114.6875 151.2656 114.5 151.8125 L113.8906 153.4844 L114.2969 155.2812 Q114.5 156.2031 114.7344 156.2969 Q115.0469 156.4375 115.7812 156 L115.7812 156.7188 Q114.5938 157.4062 113.75 156.6875 Q113.375 156.3594 113.2656 155.875 L113.1875 155.4688 ZM112.9219 154.3125 L112.5625 152.5938 Q112.2656 151.2188 111.4688 151.2188 Q110.7969 151.2031 110.2812 151.9375 Q109.8594 152.5156 109.8594 153.875 Q109.8594 155.1719 110.2812 155.8281 Q110.75 156.5469 111.5312 156.5 Q112.2031 156.4375 112.6875 155 L112.9219 154.3125 Z" style="fill:black; stroke:none;" /></g><g ID="li-1:14,16" style="fill:white; text-rendering:optimizeSpeed; font-family:'Serif'; stroke:white;"><rect height="9" style="stroke:none;" width="8" x="174" y="148" /><path d="M178.1875 154.0312 L178.1875 149.375 L175.2031 154.0312 L178.1875 154.0312 ZM180.7656 157 L176.7812 157 L176.7812 156.375 L178.1875 156.375 L178.1875 154.6562 L174.375 154.6562 L174.375 154.0156 L178.2031 148.0938 L179.3594 148.0938 L179.3594 154.0312 L181.0312 154.0312 L181.0312 154.6562 L179.3594 154.6562 L179.3594 156.375 L180.7656 156.375 L180.7656 157 Z" style="fill:black; stroke:none;" /><rect height="13" style="stroke:none;" width="7" x="160" y="146" /><path d="M161.8281 158.25 Q162.2969 158.5938 163.1719 158.5938 Q164.0625 158.5938 164.5781 158.0703 Q165.0938 157.5469 165.0938 156.6562 Q165.0938 155.4219 164.5625 154.8906 Q164.0156 154.3594 163 154.3594 L162.4375 154.3594 L162.4375 153.7188 L162.7344 153.7188 Q163.4844 153.7188 164 153.2969 Q164.4219 152.9531 164.4219 152.0156 Q164.4219 151.6094 164.1406 151.1406 Q163.6875 150.375 163.1562 150.3906 Q161.8281 150.4375 161.8281 152.7812 L161.8281 158.25 ZM160.75 161.5 L160.75 152.7812 Q160.75 150.3281 162.0781 150 Q162.7656 149.8125 163.25 149.8125 Q164.3438 149.8125 165.0469 150.6719 Q165.6094 151.3594 165.6094 151.9375 Q165.6094 152.7812 165.2031 153.2656 Q164.7969 153.75 164.0625 153.9844 Q165.1406 154.1406 165.75 154.7812 Q166.3281 155.4062 166.3281 156.6328 Q166.3281 157.8594 165.5078 158.5156 Q164.6875 159.1719 163.1406 159.1719 Q162.1875 159.1719 161.8281 159.0312 L161.8281 161.5 L160.75 161.5 Z" style="fill:black; stroke:none;" /></g><g ID="l-1:15,19" style="text-rendering:optimizeSpeed;"><polygon points=" 197 41 197 93" style="fill:none;" /></g><g ID="l-1:15,20" style="text-rendering:optimizeSpeed;"><polygon points=" 197 41 145 41" style="fill:none;" /></g><g ID="r-1:15" style="fill:white; text-rendering:optimizeSpeed; stroke:white;" wurcs_mono_id="18"><rect height="22" style="clip-path:url(#clipPath18); stroke:none;" width="22" x="186" y="30" /><rect height="22" style="clip-path:url(#clipPath18); fill:rgb(0,144,188); stroke:none;" width="22" x="186" y="30" /><rect height="22" style="clip-path:url(#clipPath18); fill:none; stroke:black;" width="22" x="186" y="30" /><rect height="22" style="fill:none; stroke:black;" width="22" x="186" y="30" /></g><g ID="r-1:19" style="fill:white; text-rendering:optimizeSpeed; stroke:white;" wurcs_mono_id="19"><polygon points=" 197 82 208 104 186 104" style="stroke:none; clip-path:url(#clipPath19);" /><rect height="22" style="clip-path:url(#clipPath19); fill:rgb(237,28,36); stroke:none;" width="22" x="186" y="82" /><rect height="22" style="clip-path:url(#clipPath19); fill:none; stroke:black;" width="22" x="186" y="82" /><polygon points=" 197 82 208 104 186 104" style="fill:none; stroke:black;" /></g><g ID="l-1:20,21" style="text-rendering:optimizeSpeed;"><polygon points=" 145 41 93 41" style="fill:none;" /></g><g ID="r-1:20" style="fill:white; text-rendering:optimizeSpeed; stroke:white;" wurcs_mono_id="20"><circle cx="145" cy="41" r="11" style="clip-path:url(#clipPath20); stroke:none;" /><rect height="22" style="clip-path:url(#clipPath20); fill:rgb(255,212,0); stroke:none;" width="22" x="134" y="30" /><rect height="22" style="clip-path:url(#clipPath20); fill:none; stroke:black;" width="22" x="134" y="30" /><circle cx="145" cy="41" r="11" style="fill:none; stroke:black;" /></g><g ID="r-1:21" style="fill:white; text-rendering:optimizeSpeed; stroke:white;" wurcs_mono_id="21"><polygon points=" 93 30 104 41 93 52 82 41" style="stroke:none; clip-path:url(#clipPath21);" /><rect height="22" style="clip-path:url(#clipPath21); fill:rgb(165,67,153); stroke:none;" width="22" x="82" y="30" /><rect height="22" style="clip-path:url(#clipPath21); fill:none; stroke:black;" width="22" x="82" y="30" /><polygon points=" 93 30 104 41 93 52 82 41" style="fill:none; stroke:black;" /></g><g ID="li-1:20,21" style="fill:white; text-rendering:optimizeSpeed; font-family:'Serif'; stroke:white;"><rect height="11" style="stroke:none;" width="19" x="116" y="43" /><path d="M117.1719 45.625 Q117.8594 45.3594 118.4844 45.2266 Q119.1094 45.0938 119.6562 45.0938 Q120.9531 45.0938 121.6719 45.6484 Q122.3906 46.2031 122.3906 47.1875 Q122.3906 47.9688 121.8906 48.5 Q121.3906 49.0312 120.4844 49.2188 Q121.5625 49.375 122.1562 50.0078 Q122.75 50.6406 122.75 51.6406 Q122.75 52.8594 121.9219 53.5156 Q121.0938 54.1719 119.5469 54.1719 Q118.8594 54.1719 118.2109 54.0234 Q117.5625 53.875 116.9219 53.5781 L116.9219 51.875 L117.5781 51.875 Q117.625 52.7188 118.1406 53.1562 Q118.6562 53.5938 119.5781 53.5938 Q120.4688 53.5938 120.9922 53.0703 Q121.5156 52.5469 121.5156 51.6562 Q121.5156 50.625 120.9766 50.0938 Q120.4375 49.5625 119.4062 49.5625 L118.8594 49.5625 L118.8594 48.9531 L119.1406 48.9531 Q120.1719 48.9531 120.6875 48.5312 Q121.2031 48.1094 121.2031 47.25 Q121.2031 46.4844 120.7812 46.0781 Q120.3594 45.6719 119.5625 45.6719 Q118.7656 45.6719 118.3359 46.0469 Q117.9062 46.4219 117.8281 47.1562 L117.1719 47.1562 L117.1719 45.625 ZM126.7441 45.25 L127.6816 45.25 L124.5723 55.1094 L123.6348 55.1094 L126.7441 45.25 ZM131.5996 53.5938 Q132.4277 53.5938 132.873 52.9844 Q133.3184 52.375 133.3184 51.2344 Q133.3184 50.1094 132.873 49.5 Q132.4277 48.8906 131.5996 48.8906 Q130.7715 48.8906 130.3262 49.4766 Q129.8809 50.0625 129.8809 51.1719 Q129.8809 52.3281 130.3262 52.9609 Q130.7715 53.5938 131.5996 53.5938 ZM129.6934 49.1875 Q130.0996 48.75 130.5996 48.5312 Q131.0996 48.3125 131.7402 48.3125 Q133.0371 48.3125 133.7949 49.0938 Q134.5527 49.875 134.5527 51.2344 Q134.5527 52.5625 133.7402 53.3672 Q132.9277 54.1719 131.5527 54.1719 Q130.0684 54.1719 129.2715 53.0625 Q128.4746 51.9531 128.4746 49.9062 Q128.4746 47.6094 129.4199 46.3516 Q130.3652 45.0938 132.084 45.0938 Q132.5527 45.0938 133.0605 45.1797 Q133.5684 45.2656 134.0996 45.4375 L134.0996 46.8906 L133.4434 46.8906 Q133.3652 46.2969 132.9824 45.9844 Q132.5996 45.6719 131.959 45.6719 Q130.8184 45.6719 130.2637 46.5312 Q129.709 47.3906 129.6934 49.1875 Z" style="fill:black; stroke:none;" /><rect height="8" style="stroke:none;" width="8" x="108" y="45" /><path d="M113.1875 51.4688 L112.9531 52.1094 Q112.7656 52.625 112.2031 52.9375 Q111.8438 53.1562 111.2031 53.1406 Q110.0469 53.1406 109.3281 52.2344 Q108.5938 51.3281 108.5938 49.8594 Q108.5938 48.4219 109.3281 47.4844 Q110.0156 46.5938 111.4531 46.6094 Q112.4531 46.6094 112.9531 47 Q113.4062 47.3438 113.5781 48.0938 L113.625 48.3125 L113.8438 47.6719 Q114.0625 47.0469 114.6562 46.75 L115.25 46.75 L115.25 47.0938 Q114.6875 47.2656 114.5 47.8125 L113.8906 49.4844 L114.2969 51.2812 Q114.5 52.2031 114.7344 52.2969 Q115.0469 52.4375 115.7812 52 L115.7812 52.7188 Q114.5938 53.4062 113.75 52.6875 Q113.375 52.3594 113.2656 51.875 L113.1875 51.4688 ZM112.9219 50.3125 L112.5625 48.5938 Q112.2656 47.2188 111.4688 47.2188 Q110.7969 47.2031 110.2812 47.9375 Q109.8594 48.5156 109.8594 49.875 Q109.8594 51.1719 110.2812 51.8281 Q110.75 52.5469 111.5312 52.5 Q112.2031 52.4375 112.6875 51 L112.9219 50.3125 Z" style="fill:black; stroke:none;" /></g><g ID="li-1:15,19" style="fill:white; text-rendering:optimizeSpeed; font-family:'Serif'; stroke:white;"><rect height="10" style="stroke:none;" width="7" x="201" y="55" /><path d="M202.1719 56.625 Q202.8594 56.3594 203.4844 56.2266 Q204.1094 56.0938 204.6562 56.0938 Q205.9531 56.0938 206.6719 56.6484 Q207.3906 57.2031 207.3906 58.1875 Q207.3906 58.9688 206.8906 59.5 Q206.3906 60.0312 205.4844 60.2188 Q206.5625 60.375 207.1562 61.0078 Q207.75 61.6406 207.75 62.6406 Q207.75 63.8594 206.9219 64.5156 Q206.0938 65.1719 204.5469 65.1719 Q203.8594 65.1719 203.2109 65.0234 Q202.5625 64.875 201.9219 64.5781 L201.9219 62.875 L202.5781 62.875 Q202.625 63.7188 203.1406 64.1562 Q203.6562 64.5938 204.5781 64.5938 Q205.4688 64.5938 205.9922 64.0703 Q206.5156 63.5469 206.5156 62.6562 Q206.5156 61.625 205.9766 61.0938 Q205.4375 60.5625 204.4062 60.5625 L203.8594 60.5625 L203.8594 59.9531 L204.1406 59.9531 Q205.1719 59.9531 205.6875 59.5312 Q206.2031 59.1094 206.2031 58.25 Q206.2031 57.4844 205.7812 57.0781 Q205.3594 56.6719 204.5625 56.6719 Q203.7656 56.6719 203.3359 57.0469 Q202.9062 57.4219 202.8281 58.1562 L202.1719 58.1562 L202.1719 56.625 Z" style="fill:black; stroke:none;" /><rect height="8" style="stroke:none;" width="8" x="201" y="70" /><path d="M206.1875 76.4688 L205.9531 77.1094 Q205.7656 77.625 205.2031 77.9375 Q204.8438 78.1562 204.2031 78.1406 Q203.0469 78.1406 202.3281 77.2344 Q201.5938 76.3281 201.5938 74.8594 Q201.5938 73.4219 202.3281 72.4844 Q203.0156 71.5938 204.4531 71.6094 Q205.4531 71.6094 205.9531 72 Q206.4062 72.3438 206.5781 73.0938 L206.625 73.3125 L206.8438 72.6719 Q207.0625 72.0469 207.6562 71.75 L208.25 71.75 L208.25 72.0938 Q207.6875 72.2656 207.5 72.8125 L206.8906 74.4844 L207.2969 76.2812 Q207.5 77.2031 207.7344 77.2969 Q208.0469 77.4375 208.7812 77 L208.7812 77.7188 Q207.5938 78.4062 206.75 77.6875 Q206.375 77.3594 206.2656 76.875 L206.1875 76.4688 ZM205.9219 75.3125 L205.5625 73.5938 Q205.2656 72.2188 204.4688 72.2188 Q203.7969 72.2031 203.2812 72.9375 Q202.8594 73.5156 202.8594 74.875 Q202.8594 76.1719 203.2812 76.8281 Q203.75 77.5469 204.5312 77.5 Q205.2031 77.4375 205.6875 76 L205.9219 75.3125 Z" style="fill:black; stroke:none;" /></g><g ID="li-1:15,20" style="fill:white; text-rendering:optimizeSpeed; font-family:'Serif'; stroke:white;"><rect height="9" style="stroke:none;" width="8" x="174" y="44" /><path d="M178.1875 50.0312 L178.1875 45.375 L175.2031 50.0312 L178.1875 50.0312 ZM180.7656 53 L176.7812 53 L176.7812 52.375 L178.1875 52.375 L178.1875 50.6562 L174.375 50.6562 L174.375 50.0156 L178.2031 44.0938 L179.3594 44.0938 L179.3594 50.0312 L181.0312 50.0312 L181.0312 50.6562 L179.3594 50.6562 L179.3594 52.375 L180.7656 52.375 L180.7656 53 Z" style="fill:black; stroke:none;" /><rect height="13" style="stroke:none;" width="7" x="160" y="42" /><path d="M161.8281 54.25 Q162.2969 54.5938 163.1719 54.5938 Q164.0625 54.5938 164.5781 54.0703 Q165.0938 53.5469 165.0938 52.6562 Q165.0938 51.4219 164.5625 50.8906 Q164.0156 50.3594 163 50.3594 L162.4375 50.3594 L162.4375 49.7188 L162.7344 49.7188 Q163.4844 49.7188 164 49.2969 Q164.4219 48.9531 164.4219 48.0156 Q164.4219 47.6094 164.1406 47.1406 Q163.6875 46.375 163.1562 46.3906 Q161.8281 46.4375 161.8281 48.7812 L161.8281 54.25 ZM160.75 57.5 L160.75 48.7812 Q160.75 46.3281 162.0781 46 Q162.7656 45.8125 163.25 45.8125 Q164.3438 45.8125 165.0469 46.6719 Q165.6094 47.3594 165.6094 47.9375 Q165.6094 48.7812 165.2031 49.2656 Q164.7969 49.75 164.0625 49.9844 Q165.1406 50.1406 165.75 50.7812 Q166.3281 51.4062 166.3281 52.6328 Q166.3281 53.8594 165.5078 54.5156 Q164.6875 55.1719 163.1406 55.1719 Q162.1875 55.1719 161.8281 55.0312 L161.8281 57.5 L160.75 57.5 Z" style="fill:black; stroke:none;" /></g><g ID="li-1:6,14" style="fill:white; text-rendering:optimizeSpeed; font-family:'Serif'; stroke:white;"><rect height="9" style="stroke:none;" width="7" x="234" y="110" /><path d="M235.5312 112.3438 L234.875 112.3438 L234.875 110.7812 Q235.5 110.4375 236.1406 110.2656 Q236.7812 110.0938 237.3906 110.0938 Q238.75 110.0938 239.5391 110.7578 Q240.3281 111.4219 240.3281 112.5469 Q240.3281 113.8438 238.5469 115.625 Q238.4062 115.7656 238.3281 115.8281 L236.125 118.0312 L239.7656 118.0312 L239.7656 116.9531 L240.4531 116.9531 L240.4531 119 L234.8125 119 L234.8125 118.3594 L237.4688 115.7188 Q238.3438 114.8281 238.7188 114.0938 Q239.0938 113.3594 239.0938 112.5469 Q239.0938 111.6719 238.6328 111.1719 Q238.1719 110.6719 237.375 110.6719 Q236.5312 110.6719 236.0781 111.0859 Q235.625 111.5 235.5312 112.3438 Z" style="fill:black; stroke:none;" /><rect height="13" style="stroke:none;" width="7" x="215" y="127" /><path d="M216.8281 139.25 Q217.2969 139.5938 218.1719 139.5938 Q219.0625 139.5938 219.5781 139.0703 Q220.0938 138.5469 220.0938 137.6562 Q220.0938 136.4219 219.5625 135.8906 Q219.0156 135.3594 218 135.3594 L217.4375 135.3594 L217.4375 134.7188 L217.7344 134.7188 Q218.4844 134.7188 219 134.2969 Q219.4219 133.9531 219.4219 133.0156 Q219.4219 132.6094 219.1406 132.1406 Q218.6875 131.375 218.1562 131.3906 Q216.8281 131.4375 216.8281 133.7812 L216.8281 139.25 ZM215.75 142.5 L215.75 133.7812 Q215.75 131.3281 217.0781 131 Q217.7656 130.8125 218.25 130.8125 Q219.3438 130.8125 220.0469 131.6719 Q220.6094 132.3594 220.6094 132.9375 Q220.6094 133.7812 220.2031 134.2656 Q219.7969 134.75 219.0625 134.9844 Q220.1406 135.1406 220.75 135.7812 Q221.3281 136.4062 221.3281 137.6328 Q221.3281 138.8594 220.5078 139.5156 Q219.6875 140.1719 218.1406 140.1719 Q217.1875 140.1719 216.8281 140.0312 L216.8281 142.5 L215.75 142.5 Z" style="fill:black; stroke:none;" /></g><g ID="li-1:6,15" style="fill:white; text-rendering:optimizeSpeed; font-family:'Serif'; stroke:white;"><rect height="10" style="stroke:none;" width="7" x="223" y="77" /><path d="M226.9219 86.5938 Q227.75 86.5938 228.1953 85.9844 Q228.6406 85.375 228.6406 84.2344 Q228.6406 83.1094 228.1953 82.5 Q227.75 81.8906 226.9219 81.8906 Q226.0938 81.8906 225.6484 82.4766 Q225.2031 83.0625 225.2031 84.1719 Q225.2031 85.3281 225.6484 85.9609 Q226.0938 86.5938 226.9219 86.5938 ZM225.0156 82.1875 Q225.4219 81.75 225.9219 81.5312 Q226.4219 81.3125 227.0625 81.3125 Q228.3594 81.3125 229.1172 82.0938 Q229.875 82.875 229.875 84.2344 Q229.875 85.5625 229.0625 86.3672 Q228.25 87.1719 226.875 87.1719 Q225.3906 87.1719 224.5938 86.0625 Q223.7969 84.9531 223.7969 82.9062 Q223.7969 80.6094 224.7422 79.3516 Q225.6875 78.0938 227.4062 78.0938 Q227.875 78.0938 228.3828 78.1797 Q228.8906 78.2656 229.4219 78.4375 L229.4219 79.8906 L228.7656 79.8906 Q228.6875 79.2969 228.3047 78.9844 Q227.9219 78.6719 227.2812 78.6719 Q226.1406 78.6719 225.5859 79.5312 Q225.0312 80.3906 225.0156 82.1875 Z" style="fill:black; stroke:none;" /><rect height="13" style="stroke:none;" width="7" x="204" y="56" /><path d="M205.8281 68.25 Q206.2969 68.5938 207.1719 68.5938 Q208.0625 68.5938 208.5781 68.0703 Q209.0938 67.5469 209.0938 66.6562 Q209.0938 65.4219 208.5625 64.8906 Q208.0156 64.3594 207 64.3594 L206.4375 64.3594 L206.4375 63.7188 L206.7344 63.7188 Q207.4844 63.7188 208 63.2969 Q208.4219 62.9531 208.4219 62.0156 Q208.4219 61.6094 208.1406 61.1406 Q207.6875 60.375 207.1562 60.3906 Q205.8281 60.4375 205.8281 62.7812 L205.8281 68.25 ZM204.75 71.5 L204.75 62.7812 Q204.75 60.3281 206.0781 60 Q206.7656 59.8125 207.25 59.8125 Q208.3438 59.8125 209.0469 60.6719 Q209.6094 61.3594 209.6094 61.9375 Q209.6094 62.7812 209.2031 63.2656 Q208.7969 63.75 208.0625 63.9844 Q209.1406 64.1406 209.75 64.7812 Q210.3281 65.4062 210.3281 66.6328 Q210.3281 67.8594 209.5078 68.5156 Q208.6875 69.1719 207.1406 69.1719 Q206.1875 69.1719 205.8281 69.0312 L205.8281 71.5 L204.75 71.5 Z" style="fill:black; stroke:none;" /></g><g ID="li-1:3,4" style="fill:white; text-rendering:optimizeSpeed; font-family:'Serif'; stroke:white;"><rect height="10" style="stroke:none;" width="7" x="286" y="188" /><path d="M287.1719 189.625 Q287.8594 189.3594 288.4844 189.2266 Q289.1094 189.0938 289.6562 189.0938 Q290.9531 189.0938 291.6719 189.6484 Q292.3906 190.2031 292.3906 191.1875 Q292.3906 191.9688 291.8906 192.5 Q291.3906 193.0312 290.4844 193.2188 Q291.5625 193.375 292.1562 194.0078 Q292.75 194.6406 292.75 195.6406 Q292.75 196.8594 291.9219 197.5156 Q291.0938 198.1719 289.5469 198.1719 Q288.8594 198.1719 288.2109 198.0234 Q287.5625 197.875 286.9219 197.5781 L286.9219 195.875 L287.5781 195.875 Q287.625 196.7188 288.1406 197.1562 Q288.6562 197.5938 289.5781 197.5938 Q290.4688 197.5938 290.9922 197.0703 Q291.5156 196.5469 291.5156 195.6562 Q291.5156 194.625 290.9766 194.0938 Q290.4375 193.5625 289.4062 193.5625 L288.8594 193.5625 L288.8594 192.9531 L289.1406 192.9531 Q290.1719 192.9531 290.6875 192.5312 Q291.2031 192.1094 291.2031 191.25 Q291.2031 190.4844 290.7812 190.0781 Q290.3594 189.6719 289.5625 189.6719 Q288.7656 189.6719 288.3359 190.0469 Q287.9062 190.4219 287.8281 191.1562 L287.1719 191.1562 L287.1719 189.625 Z" style="fill:black; stroke:none;" /><rect height="8" style="stroke:none;" width="8" x="267" y="208" /><path d="M272.1875 214.4688 L271.9531 215.1094 Q271.7656 215.625 271.2031 215.9375 Q270.8438 216.1562 270.2031 216.1406 Q269.0469 216.1406 268.3281 215.2344 Q267.5938 214.3281 267.5938 212.8594 Q267.5938 211.4219 268.3281 210.4844 Q269.0156 209.5938 270.4531 209.6094 Q271.4531 209.6094 271.9531 210 Q272.4062 210.3438 272.5781 211.0938 L272.625 211.3125 L272.8438 210.6719 Q273.0625 210.0469 273.6562 209.75 L274.25 209.75 L274.25 210.0938 Q273.6875 210.2656 273.5 210.8125 L272.8906 212.4844 L273.2969 214.2812 Q273.5 215.2031 273.7344 215.2969 Q274.0469 215.4375 274.7812 215 L274.7812 215.7188 Q273.5938 216.4062 272.75 215.6875 Q272.375 215.3594 272.2656 214.875 L272.1875 214.4688 ZM271.9219 213.3125 L271.5625 211.5938 Q271.2656 210.2188 270.4688 210.2188 Q269.7969 210.2031 269.2812 210.9375 Q268.8594 211.5156 268.8594 212.875 Q268.8594 214.1719 269.2812 214.8281 Q269.75 215.5469 270.5312 215.5 Q271.2031 215.4375 271.6875 214 L271.9219 213.3125 Z" style="fill:black; stroke:none;" /></g><g ID="li-1:3,5" style="fill:white; text-rendering:optimizeSpeed; font-family:'Serif'; stroke:white;"><rect height="9" style="stroke:none;" width="8" x="278" y="174" /><path d="M282.1875 180.0312 L282.1875 175.375 L279.2031 180.0312 L282.1875 180.0312 ZM284.7656 183 L280.7812 183 L280.7812 182.375 L282.1875 182.375 L282.1875 180.6562 L278.375 180.6562 L278.375 180.0156 L282.2031 174.0938 L283.3594 174.0938 L283.3594 180.0312 L285.0312 180.0312 L285.0312 180.6562 L283.3594 180.6562 L283.3594 182.375 L284.7656 182.375 L284.7656 183 Z" style="fill:black; stroke:none;" /><rect height="13" style="stroke:none;" width="7" x="264" y="172" /><path d="M265.8281 184.25 Q266.2969 184.5938 267.1719 184.5938 Q268.0625 184.5938 268.5781 184.0703 Q269.0938 183.5469 269.0938 182.6562 Q269.0938 181.4219 268.5625 180.8906 Q268.0156 180.3594 267 180.3594 L266.4375 180.3594 L266.4375 179.7188 L266.7344 179.7188 Q267.4844 179.7188 268 179.2969 Q268.4219 178.9531 268.4219 178.0156 Q268.4219 177.6094 268.1406 177.1406 Q267.6875 176.375 267.1562 176.3906 Q265.8281 176.4375 265.8281 178.7812 L265.8281 184.25 ZM264.75 187.5 L264.75 178.7812 Q264.75 176.3281 266.0781 176 Q266.7656 175.8125 267.25 175.8125 Q268.3438 175.8125 269.0469 176.6719 Q269.6094 177.3594 269.6094 177.9375 Q269.6094 178.7812 269.2031 179.2656 Q268.7969 179.75 268.0625 179.9844 Q269.1406 180.1406 269.75 180.7812 Q270.3281 181.4062 270.3281 182.6328 Q270.3281 183.8594 269.5078 184.5156 Q268.6875 185.1719 267.1406 185.1719 Q266.1875 185.1719 265.8281 185.0312 L265.8281 187.5 L264.75 187.5 Z" style="fill:black; stroke:none;" /></g><g ID="li-1:3,6" style="fill:white; text-rendering:optimizeSpeed; font-family:'Serif'; stroke:white;"><rect height="10" style="stroke:none;" width="7" x="279" y="152" /><path d="M282.9219 161.5938 Q283.75 161.5938 284.1953 160.9844 Q284.6406 160.375 284.6406 159.2344 Q284.6406 158.1094 284.1953 157.5 Q283.75 156.8906 282.9219 156.8906 Q282.0938 156.8906 281.6484 157.4766 Q281.2031 158.0625 281.2031 159.1719 Q281.2031 160.3281 281.6484 160.9609 Q282.0938 161.5938 282.9219 161.5938 ZM281.0156 157.1875 Q281.4219 156.75 281.9219 156.5312 Q282.4219 156.3125 283.0625 156.3125 Q284.3594 156.3125 285.1172 157.0938 Q285.875 157.875 285.875 159.2344 Q285.875 160.5625 285.0625 161.3672 Q284.25 162.1719 282.875 162.1719 Q281.3906 162.1719 280.5938 161.0625 Q279.7969 159.9531 279.7969 157.9062 Q279.7969 155.6094 280.7422 154.3516 Q281.6875 153.0938 283.4062 153.0938 Q283.875 153.0938 284.3828 153.1797 Q284.8906 153.2656 285.4219 153.4375 L285.4219 154.8906 L284.7656 154.8906 Q284.6875 154.2969 284.3047 153.9844 Q283.9219 153.6719 283.2812 153.6719 Q282.1406 153.6719 281.5859 154.5312 Q281.0312 155.3906 281.0156 157.1875 Z" style="fill:black; stroke:none;" /><rect height="8" style="stroke:none;" width="8" x="250" y="111" /><path d="M255.1875 117.4688 L254.9531 118.1094 Q254.7656 118.625 254.2031 118.9375 Q253.8438 119.1562 253.2031 119.1406 Q252.0469 119.1406 251.3281 118.2344 Q250.5938 117.3281 250.5938 115.8594 Q250.5938 114.4219 251.3281 113.4844 Q252.0156 112.5938 253.4531 112.6094 Q254.4531 112.6094 254.9531 113 Q255.4062 113.3438 255.5781 114.0938 L255.625 114.3125 L255.8438 113.6719 Q256.0625 113.0469 256.6562 112.75 L257.25 112.75 L257.25 113.0938 Q256.6875 113.2656 256.5 113.8125 L255.8906 115.4844 L256.2969 117.2812 Q256.5 118.2031 256.7344 118.2969 Q257.0469 118.4375 257.7812 118 L257.7812 118.7188 Q256.5938 119.4062 255.75 118.6875 Q255.375 118.3594 255.2656 117.875 L255.1875 117.4688 ZM254.9219 116.3125 L254.5625 114.5938 Q254.2656 113.2188 253.4688 113.2188 Q252.7969 113.2031 252.2812 113.9375 Q251.8594 114.5156 251.8594 115.875 Q251.8594 117.1719 252.2812 117.8281 Q252.75 118.5469 253.5312 118.5 Q254.2031 118.4375 254.6875 117 L254.9219 116.3125 Z" style="fill:black; stroke:none;" /></g><g ID="li-1:2,3" style="fill:white; text-rendering:optimizeSpeed; font-family:'Serif'; stroke:white;"><rect height="9" style="stroke:none;" width="8" x="330" y="174" /><path d="M334.1875 180.0312 L334.1875 175.375 L331.2031 180.0312 L334.1875 180.0312 ZM336.7656 183 L332.7812 183 L332.7812 182.375 L334.1875 182.375 L334.1875 180.6562 L330.375 180.6562 L330.375 180.0156 L334.2031 174.0938 L335.3594 174.0938 L335.3594 180.0312 L337.0312 180.0312 L337.0312 180.6562 L335.3594 180.6562 L335.3594 182.375 L336.7656 182.375 L336.7656 183 Z" style="fill:black; stroke:none;" /><rect height="13" style="stroke:none;" width="7" x="316" y="172" /><path d="M317.8281 184.25 Q318.2969 184.5938 319.1719 184.5938 Q320.0625 184.5938 320.5781 184.0703 Q321.0938 183.5469 321.0938 182.6562 Q321.0938 181.4219 320.5625 180.8906 Q320.0156 180.3594 319 180.3594 L318.4375 180.3594 L318.4375 179.7188 L318.7344 179.7188 Q319.4844 179.7188 320 179.2969 Q320.4219 178.9531 320.4219 178.0156 Q320.4219 177.6094 320.1406 177.1406 Q319.6875 176.375 319.1562 176.3906 Q317.8281 176.4375 317.8281 178.7812 L317.8281 184.25 ZM316.75 187.5 L316.75 178.7812 Q316.75 176.3281 318.0781 176 Q318.7656 175.8125 319.25 175.8125 Q320.3438 175.8125 321.0469 176.6719 Q321.6094 177.3594 321.6094 177.9375 Q321.6094 178.7812 321.2031 179.2656 Q320.7969 179.75 320.0625 179.9844 Q321.1406 180.1406 321.75 180.7812 Q322.3281 181.4062 322.3281 182.6328 Q322.3281 183.8594 321.5078 184.5156 Q320.6875 185.1719 319.1406 185.1719 Q318.1875 185.1719 317.8281 185.0312 L317.8281 187.5 L316.75 187.5 Z" style="fill:black; stroke:none;" /></g><g ID="li-1:1,2" style="fill:white; text-rendering:optimizeSpeed; font-family:'Serif'; stroke:white;"><rect height="9" style="stroke:none;" width="8" x="382" y="174" /><path d="M386.1875 180.0312 L386.1875 175.375 L383.2031 180.0312 L386.1875 180.0312 ZM388.7656 183 L384.7812 183 L384.7812 182.375 L386.1875 182.375 L386.1875 180.6562 L382.375 180.6562 L382.375 180.0156 L386.2031 174.0938 L387.3594 174.0938 L387.3594 180.0312 L389.0312 180.0312 L389.0312 180.6562 L387.3594 180.6562 L387.3594 182.375 L388.7656 182.375 L388.7656 183 Z" style="fill:black; stroke:none;" /><rect height="13" style="stroke:none;" width="7" x="368" y="172" /><path d="M369.8281 184.25 Q370.2969 184.5938 371.1719 184.5938 Q372.0625 184.5938 372.5781 184.0703 Q373.0938 183.5469 373.0938 182.6562 Q373.0938 181.4219 372.5625 180.8906 Q372.0156 180.3594 371 180.3594 L370.4375 180.3594 L370.4375 179.7188 L370.7344 179.7188 Q371.4844 179.7188 372 179.2969 Q372.4219 178.9531 372.4219 178.0156 Q372.4219 177.6094 372.1406 177.1406 Q371.6875 176.375 371.1562 176.3906 Q369.8281 176.4375 369.8281 178.7812 L369.8281 184.25 ZM368.75 187.5 L368.75 178.7812 Q368.75 176.3281 370.0781 176 Q370.7656 175.8125 371.25 175.8125 Q372.3438 175.8125 373.0469 176.6719 Q373.6094 177.3594 373.6094 177.9375 Q373.6094 178.7812 373.2031 179.2656 Q372.7969 179.75 372.0625 179.9844 Q373.1406 180.1406 373.75 180.7812 Q374.3281 181.4062 374.3281 182.6328 Q374.3281 183.8594 373.5078 184.5156 Q372.6875 185.1719 371.1406 185.1719 Q370.1875 185.1719 369.8281 185.0312 L369.8281 187.5 L368.75 187.5 Z" style="fill:black; stroke:none;" /></g></g></svg>