<svg xmlns="http://www.w3.org/2000/svg" style="fill-opacity:1; color-rendering:auto; color-interpolation:auto; text-rendering:auto; stroke:black; stroke-linecap:square; stroke-miterlimit:10; shape-rendering:auto; stroke-opacity:1; fill:black; stroke-dasharray:none; font-weight:normal; stroke-width:1; font-family:'Dialog'; font-style:normal; stroke-linejoin:miter; font-size:12px; stroke-dashoffset:0; image-rendering:auto;"><defs id="genericDefs" /><g><defs id="defs1"><clipPath clipPathUnits="userSpaceOnUse" id="clipPath1"><path d="M342 108 L364 108 L364 130 L342 130 L342 108 Z" /></clipPath><clipPath clipPathUnits="userSpaceOnUse" id="clipPath2"><path d="M290 108 L312 108 L312 130 L290 130 L290 108 Z" /></clipPath><clipPath clipPathUnits="userSpaceOnUse" id="clipPath3"><path d="M260 119 C260 125.0751 255.0751 130 249 130 C242.9249 130 238 125.0751 238 119 C238 112.9249 242.9249 108 249 108 C255.0751 108 260 112.9249 260 119 Z" /></clipPath><clipPath clipPathUnits="userSpaceOnUse" id="clipPath4"><path d="M208 171 C208 177.0751 203.0751 182 197 182 C190.9249 182 186 177.0751 186 171 C186 164.9249 190.9249 160 197 160 C203.0751 160 208 164.9249 208 171 Z" /></clipPath><clipPath clipPathUnits="userSpaceOnUse" id="clipPath5"><path d="M134 186 L156 186 L156 208 L134 208 L134 186 Z" /></clipPath><clipPath clipPathUnits="userSpaceOnUse" id="clipPath6"><path d="M104 197 C104 203.0751 99.0751 208 93 208 C86.9249 208 82 203.0751 82 197 C82 190.9249 86.9249 186 93 186 C99.0751 186 104 190.9249 104 197 Z" /></clipPath><clipPath clipPathUnits="userSpaceOnUse" id="clipPath7"><path d="M41 186 L52 197 L41 208 L30 197 Z" style="fill-rule:evenodd;" /></clipPath><clipPath clipPathUnits="userSpaceOnUse" id="clipPath8"><path d="M134 134 L156 134 L156 156 L134 156 L134 134 Z" /></clipPath><clipPath clipPathUnits="userSpaceOnUse" id="clipPath9"><path d="M104 145 C104 151.0751 99.0751 156 93 156 C86.9249 156 82 151.0751 82 145 C82 138.9249 86.9249 134 93 134 C99.0751 134 104 138.9249 104 145 Z" /></clipPath><clipPath clipPathUnits="userSpaceOnUse" id="clipPath10"><path d="M208 67 C208 73.0751 203.0751 78 197 78 C190.9249 78 186 73.0751 186 67 C186 60.9249 190.9249 56 197 56 C203.0751 56 208 60.9249 208 67 Z" /></clipPath><clipPath clipPathUnits="userSpaceOnUse" id="clipPath11"><path d="M134 82 L156 82 L156 104 L134 104 L134 82 Z" /></clipPath><clipPath clipPathUnits="userSpaceOnUse" id="clipPath12"><path d="M104 93 C104 99.0751 99.0751 104 93 104 C86.9249 104 82 99.0751 82 93 C82 86.9249 86.9249 82 93 82 C99.0751 82 104 86.9249 104 93 Z" /></clipPath><clipPath clipPathUnits="userSpaceOnUse" id="clipPath13"><path d="M52 93 C52 99.0751 47.0751 104 41 104 C34.9249 104 30 99.0751 30 93 C30 86.9249 34.9249 82 41 82 C47.0751 82 52 86.9249 52 93 Z" /></clipPath><clipPath clipPathUnits="userSpaceOnUse" id="clipPath14"><path d="M134 30 L156 30 L156 52 L134 52 L134 30 Z" /></clipPath></defs><g style="fill:white; text-rendering:optimizeSpeed; stroke:white;"><rect height="238" style="stroke:none;" width="394" x="0" y="0" /></g><g ID="l-1:1,2" style="text-rendering:optimizeSpeed;"><polygon points=" 353 119 301 119" style="fill:none;" /></g><g ID="r-1:1" style="fill:white; text-rendering:optimizeSpeed; stroke:white;" wurcs_mono_id="1"><rect height="22" style="clip-path:url(#clipPath1); stroke:none;" width="22" x="342" y="108" /><rect height="22" style="clip-path:url(#clipPath1); fill:rgb(0,144,188); stroke:none;" width="22" x="342" y="108" /><rect height="22" style="clip-path:url(#clipPath1); fill:none; stroke:black;" width="22" x="342" y="108" /><rect height="22" style="fill:none; stroke:black;" width="22" x="342" y="108" /></g><g ID="l-1:2,3" style="text-rendering:optimizeSpeed;"><polygon points=" 301 119 249 119" style="fill:none;" /></g><g ID="r-1:2" style="fill:white; text-rendering:optimizeSpeed; stroke:white;" wurcs_mono_id="2"><rect height="22" style="clip-path:url(#clipPath2); stroke:none;" width="22" x="290" y="108" /><rect height="22" style="clip-path:url(#clipPath2); fill:rgb(0,144,188); stroke:none;" width="22" x="290" y="108" /><rect height="22" style="clip-path:url(#clipPath2); fill:none; stroke:black;" width="22" x="290" y="108" /><rect height="22" style="fill:none; stroke:black;" width="22" x="290" y="108" /></g><g ID="l-1:3,4" style="text-rendering:optimizeSpeed;"><polygon points=" 249 119 197 171" style="fill:none;" /></g><g ID="l-1:3,5" style="text-rendering:optimizeSpeed;"><polygon points=" 249 119 197 67" style="fill:none;" /></g><g ID="r-1:3" style="fill:white; text-rendering:optimizeSpeed; stroke:white;" wurcs_mono_id="3"><circle cx="249" cy="119" r="11" style="clip-path:url(#clipPath3); stroke:none;" /><rect height="22" style="clip-path:url(#clipPath3); fill:rgb(0,166,81); stroke:none;" width="22" x="238" y="108" /><rect height="22" style="clip-path:url(#clipPath3); fill:none; stroke:black;" width="22" x="238" y="108" /><circle cx="249" cy="119" r="11" style="fill:none; stroke:black;" /></g><g ID="l-1:4,6" style="text-rendering:optimizeSpeed;"><polygon points=" 197 171 145 197" style="fill:none;" /></g><g ID="l-1:4,7" style="text-rendering:optimizeSpeed;"><polygon points=" 197 171 145 145" style="fill:none;" /></g><g ID="r-1:4" style="fill:white; text-rendering:optimizeSpeed; stroke:white;" wurcs_mono_id="4"><circle cx="197" cy="171" r="11" style="clip-path:url(#clipPath4); stroke:none;" /><rect height="22" style="clip-path:url(#clipPath4); fill:rgb(0,166,81); stroke:none;" width="22" x="186" y="160" /><rect height="22" style="clip-path:url(#clipPath4); fill:none; stroke:black;" width="22" x="186" y="160" /><circle cx="197" cy="171" r="11" style="fill:none; stroke:black;" /></g><g ID="l-1:6,8" style="text-rendering:optimizeSpeed;"><polygon points=" 145 197 93 197" style="fill:none;" /></g><g ID="r-1:6" style="fill:white; text-rendering:optimizeSpeed; stroke:white;" wurcs_mono_id="5"><rect height="22" style="clip-path:url(#clipPath5); stroke:none;" width="22" x="134" y="186" /><rect height="22" style="clip-path:url(#clipPath5); fill:rgb(0,144,188); stroke:none;" width="22" x="134" y="186" /><rect height="22" style="clip-path:url(#clipPath5); fill:none; stroke:black;" width="22" x="134" y="186" /><rect height="22" style="fill:none; stroke:black;" width="22" x="134" y="186" /></g><g ID="l-1:8,9" style="text-rendering:optimizeSpeed;"><polygon points=" 93 197 41 197" style="fill:none;" /></g><g ID="r-1:8" style="fill:white; text-rendering:optimizeSpeed; stroke:white;" wurcs_mono_id="6"><circle cx="93" cy="197" r="11" style="clip-path:url(#clipPath6); stroke:none;" /><rect height="22" style="clip-path:url(#clipPath6); fill:rgb(255,212,0); stroke:none;" width="22" x="82" y="186" /><rect height="22" style="clip-path:url(#clipPath6); fill:none; stroke:black;" width="22" x="82" y="186" /><circle cx="93" cy="197" r="11" style="fill:none; stroke:black;" /></g><g ID="r-1:9" style="fill:white; text-rendering:optimizeSpeed; stroke:white;" wurcs_mono_id="7"><polygon points=" 41 186 52 197 41 208 30 197" style="stroke:none; clip-path:url(#clipPath7);" /><rect height="22" style="clip-path:url(#clipPath7); fill:rgb(165,67,153); stroke:none;" width="22" x="30" y="186" /><rect height="22" style="clip-path:url(#clipPath7); fill:none; stroke:black;" width="22" x="30" y="186" /><polygon points=" 41 186 52 197 41 208 30 197" style="fill:none; stroke:black;" /></g><g ID="li-1:8,9" style="fill:white; text-rendering:optimizeSpeed; font-family:'Serif'; stroke:white;"><rect height="10" style="stroke:none;" width="6" x="71" y="200" /><path d="M73.1094 209.3906 Q73.1094 209.0625 73.3359 208.8359 Q73.5625 208.6094 73.8906 208.6094 Q74.2188 208.6094 74.4453 208.8359 Q74.6719 209.0625 74.6719 209.3906 Q74.6719 209.7188 74.4453 209.9453 Q74.2188 210.1719 73.8906 210.1719 Q73.5625 210.1719 73.3359 209.9453 Q73.1094 209.7188 73.1094 209.3906 ZM71.8125 201.6406 Q72.4375 201.3594 73 201.2266 Q73.5625 201.0938 74.0469 201.0938 Q75.3438 201.0938 76.1016 201.7188 Q76.8594 202.3438 76.8594 203.4062 Q76.8594 204.5 76.2109 205.1953 Q75.5625 205.8906 74.25 206.1875 L74.25 207.6719 L73.5312 207.6719 L73.5312 205.75 Q74.5625 205.5 75.0938 204.9062 Q75.625 204.3125 75.625 203.4062 Q75.625 202.5938 75.1953 202.1328 Q74.7656 201.6719 74.0312 201.6719 Q73.3594 201.6719 72.9297 202.0547 Q72.5 202.4375 72.3906 203.1562 L71.8125 203.1562 L71.8125 201.6406 Z" style="fill:black; stroke:none;" /><rect height="10" style="stroke:none;" width="6" x="57" y="200" /><path d="M59.1094 209.3906 Q59.1094 209.0625 59.3359 208.8359 Q59.5625 208.6094 59.8906 208.6094 Q60.2188 208.6094 60.4453 208.8359 Q60.6719 209.0625 60.6719 209.3906 Q60.6719 209.7188 60.4453 209.9453 Q60.2188 210.1719 59.8906 210.1719 Q59.5625 210.1719 59.3359 209.9453 Q59.1094 209.7188 59.1094 209.3906 ZM57.8125 201.6406 Q58.4375 201.3594 59 201.2266 Q59.5625 201.0938 60.0469 201.0938 Q61.3438 201.0938 62.1016 201.7188 Q62.8594 202.3438 62.8594 203.4062 Q62.8594 204.5 62.2109 205.1953 Q61.5625 205.8906 60.25 206.1875 L60.25 207.6719 L59.5312 207.6719 L59.5312 205.75 Q60.5625 205.5 61.0938 204.9062 Q61.625 204.3125 61.625 203.4062 Q61.625 202.5938 61.1953 202.1328 Q60.7656 201.6719 60.0312 201.6719 Q59.3594 201.6719 58.9297 202.0547 Q58.5 202.4375 58.3906 203.1562 L57.8125 203.1562 L57.8125 201.6406 Z" style="fill:black; stroke:none;" /></g><g ID="li-1:6,8" style="fill:white; text-rendering:optimizeSpeed; font-family:'Serif'; stroke:white;"><rect height="10" style="stroke:none;" width="6" x="123" y="200" /><path d="M125.1094 209.3906 Q125.1094 209.0625 125.3359 208.8359 Q125.5625 208.6094 125.8906 208.6094 Q126.2188 208.6094 126.4453 208.8359 Q126.6719 209.0625 126.6719 209.3906 Q126.6719 209.7188 126.4453 209.9453 Q126.2188 210.1719 125.8906 210.1719 Q125.5625 210.1719 125.3359 209.9453 Q125.1094 209.7188 125.1094 209.3906 ZM123.8125 201.6406 Q124.4375 201.3594 125 201.2266 Q125.5625 201.0938 126.0469 201.0938 Q127.3438 201.0938 128.1016 201.7188 Q128.8594 202.3438 128.8594 203.4062 Q128.8594 204.5 128.2109 205.1953 Q127.5625 205.8906 126.25 206.1875 L126.25 207.6719 L125.5312 207.6719 L125.5312 205.75 Q126.5625 205.5 127.0938 204.9062 Q127.625 204.3125 127.625 203.4062 Q127.625 202.5938 127.1953 202.1328 Q126.7656 201.6719 126.0312 201.6719 Q125.3594 201.6719 124.9297 202.0547 Q124.5 202.4375 124.3906 203.1562 L123.8125 203.1562 L123.8125 201.6406 Z" style="fill:black; stroke:none;" /><rect height="10" style="stroke:none;" width="6" x="109" y="200" /><path d="M111.1094 209.3906 Q111.1094 209.0625 111.3359 208.8359 Q111.5625 208.6094 111.8906 208.6094 Q112.2188 208.6094 112.4453 208.8359 Q112.6719 209.0625 112.6719 209.3906 Q112.6719 209.7188 112.4453 209.9453 Q112.2188 210.1719 111.8906 210.1719 Q111.5625 210.1719 111.3359 209.9453 Q111.1094 209.7188 111.1094 209.3906 ZM109.8125 201.6406 Q110.4375 201.3594 111 201.2266 Q111.5625 201.0938 112.0469 201.0938 Q113.3438 201.0938 114.1016 201.7188 Q114.8594 202.3438 114.8594 203.4062 Q114.8594 204.5 114.2109 205.1953 Q113.5625 205.8906 112.25 206.1875 L112.25 207.6719 L111.5312 207.6719 L111.5312 205.75 Q112.5625 205.5 113.0938 204.9062 Q113.625 204.3125 113.625 203.4062 Q113.625 202.5938 113.1953 202.1328 Q112.7656 201.6719 112.0312 201.6719 Q111.3594 201.6719 110.9297 202.0547 Q110.5 202.4375 110.3906 203.1562 L109.8125 203.1562 L109.8125 201.6406 Z" style="fill:black; stroke:none;" /></g><g ID="l-1:7,10" style="text-rendering:optimizeSpeed;"><polygon points=" 145 145 93 145" style="fill:none;" /></g><g ID="r-1:7" style="fill:white; text-rendering:optimizeSpeed; stroke:white;" wurcs_mono_id="8"><rect height="22" style="clip-path:url(#clipPath8); stroke:none;" width="22" x="134" y="134" /><rect height="22" style="clip-path:url(#clipPath8); fill:rgb(0,144,188); stroke:none;" width="22" x="134" y="134" /><rect height="22" style="clip-path:url(#clipPath8); fill:none; stroke:black;" width="22" x="134" y="134" /><rect height="22" style="fill:none; stroke:black;" width="22" x="134" y="134" /></g><g ID="r-1:10" style="fill:white; text-rendering:optimizeSpeed; stroke:white;" wurcs_mono_id="9"><circle cx="93" cy="145" r="11" style="clip-path:url(#clipPath9); stroke:none;" /><rect height="22" style="clip-path:url(#clipPath9); fill:rgb(255,212,0); stroke:none;" width="22" x="82" y="134" /><rect height="22" style="clip-path:url(#clipPath9); fill:none; stroke:black;" width="22" x="82" y="134" /><circle cx="93" cy="145" r="11" style="fill:none; stroke:black;" /></g><g ID="li-1:7,10" style="fill:white; text-rendering:optimizeSpeed; font-family:'Serif'; stroke:white;"><rect height="10" style="stroke:none;" width="6" x="123" y="148" /><path d="M125.1094 157.3906 Q125.1094 157.0625 125.3359 156.8359 Q125.5625 156.6094 125.8906 156.6094 Q126.2188 156.6094 126.4453 156.8359 Q126.6719 157.0625 126.6719 157.3906 Q126.6719 157.7188 126.4453 157.9453 Q126.2188 158.1719 125.8906 158.1719 Q125.5625 158.1719 125.3359 157.9453 Q125.1094 157.7188 125.1094 157.3906 ZM123.8125 149.6406 Q124.4375 149.3594 125 149.2266 Q125.5625 149.0938 126.0469 149.0938 Q127.3438 149.0938 128.1016 149.7188 Q128.8594 150.3438 128.8594 151.4062 Q128.8594 152.5 128.2109 153.1953 Q127.5625 153.8906 126.25 154.1875 L126.25 155.6719 L125.5312 155.6719 L125.5312 153.75 Q126.5625 153.5 127.0938 152.9062 Q127.625 152.3125 127.625 151.4062 Q127.625 150.5938 127.1953 150.1328 Q126.7656 149.6719 126.0312 149.6719 Q125.3594 149.6719 124.9297 150.0547 Q124.5 150.4375 124.3906 151.1562 L123.8125 151.1562 L123.8125 149.6406 Z" style="fill:black; stroke:none;" /><rect height="10" style="stroke:none;" width="6" x="109" y="148" /><path d="M111.1094 157.3906 Q111.1094 157.0625 111.3359 156.8359 Q111.5625 156.6094 111.8906 156.6094 Q112.2188 156.6094 112.4453 156.8359 Q112.6719 157.0625 112.6719 157.3906 Q112.6719 157.7188 112.4453 157.9453 Q112.2188 158.1719 111.8906 158.1719 Q111.5625 158.1719 111.3359 157.9453 Q111.1094 157.7188 111.1094 157.3906 ZM109.8125 149.6406 Q110.4375 149.3594 111 149.2266 Q111.5625 149.0938 112.0469 149.0938 Q113.3438 149.0938 114.1016 149.7188 Q114.8594 150.3438 114.8594 151.4062 Q114.8594 152.5 114.2109 153.1953 Q113.5625 153.8906 112.25 154.1875 L112.25 155.6719 L111.5312 155.6719 L111.5312 153.75 Q112.5625 153.5 113.0938 152.9062 Q113.625 152.3125 113.625 151.4062 Q113.625 150.5938 113.1953 150.1328 Q112.7656 149.6719 112.0312 149.6719 Q111.3594 149.6719 110.9297 150.0547 Q110.5 150.4375 110.3906 151.1562 L109.8125 151.1562 L109.8125 149.6406 Z" style="fill:black; stroke:none;" /></g><g ID="li-1:4,6" style="fill:white; text-rendering:optimizeSpeed; font-family:'Serif'; stroke:white;"><rect height="10" style="stroke:none;" width="6" x="179" y="182" /><path d="M181.1094 191.3906 Q181.1094 191.0625 181.3359 190.8359 Q181.5625 190.6094 181.8906 190.6094 Q182.2188 190.6094 182.4453 190.8359 Q182.6719 191.0625 182.6719 191.3906 Q182.6719 191.7188 182.4453 191.9453 Q182.2188 192.1719 181.8906 192.1719 Q181.5625 192.1719 181.3359 191.9453 Q181.1094 191.7188 181.1094 191.3906 ZM179.8125 183.6406 Q180.4375 183.3594 181 183.2266 Q181.5625 183.0938 182.0469 183.0938 Q183.3438 183.0938 184.1016 183.7188 Q184.8594 184.3438 184.8594 185.4062 Q184.8594 186.5 184.2109 187.1953 Q183.5625 187.8906 182.25 188.1875 L182.25 189.6719 L181.5312 189.6719 L181.5312 187.75 Q182.5625 187.5 183.0938 186.9062 Q183.625 186.3125 183.625 185.4062 Q183.625 184.5938 183.1953 184.1328 Q182.7656 183.6719 182.0312 183.6719 Q181.3594 183.6719 180.9297 184.0547 Q180.5 184.4375 180.3906 185.1562 L179.8125 185.1562 L179.8125 183.6406 Z" style="fill:black; stroke:none;" /><rect height="10" style="stroke:none;" width="6" x="163" y="190" /><path d="M165.1094 199.3906 Q165.1094 199.0625 165.3359 198.8359 Q165.5625 198.6094 165.8906 198.6094 Q166.2188 198.6094 166.4453 198.8359 Q166.6719 199.0625 166.6719 199.3906 Q166.6719 199.7188 166.4453 199.9453 Q166.2188 200.1719 165.8906 200.1719 Q165.5625 200.1719 165.3359 199.9453 Q165.1094 199.7188 165.1094 199.3906 ZM163.8125 191.6406 Q164.4375 191.3594 165 191.2266 Q165.5625 191.0938 166.0469 191.0938 Q167.3438 191.0938 168.1016 191.7188 Q168.8594 192.3438 168.8594 193.4062 Q168.8594 194.5 168.2109 195.1953 Q167.5625 195.8906 166.25 196.1875 L166.25 197.6719 L165.5312 197.6719 L165.5312 195.75 Q166.5625 195.5 167.0938 194.9062 Q167.625 194.3125 167.625 193.4062 Q167.625 192.5938 167.1953 192.1328 Q166.7656 191.6719 166.0312 191.6719 Q165.3594 191.6719 164.9297 192.0547 Q164.5 192.4375 164.3906 193.1562 L163.8125 193.1562 L163.8125 191.6406 Z" style="fill:black; stroke:none;" /></g><g ID="li-1:4,7" style="fill:white; text-rendering:optimizeSpeed; font-family:'Serif'; stroke:white;"><rect height="10" style="stroke:none;" width="6" x="172" y="164" /><path d="M174.1094 173.3906 Q174.1094 173.0625 174.3359 172.8359 Q174.5625 172.6094 174.8906 172.6094 Q175.2188 172.6094 175.4453 172.8359 Q175.6719 173.0625 175.6719 173.3906 Q175.6719 173.7188 175.4453 173.9453 Q175.2188 174.1719 174.8906 174.1719 Q174.5625 174.1719 174.3359 173.9453 Q174.1094 173.7188 174.1094 173.3906 ZM172.8125 165.6406 Q173.4375 165.3594 174 165.2266 Q174.5625 165.0938 175.0469 165.0938 Q176.3438 165.0938 177.1016 165.7188 Q177.8594 166.3438 177.8594 167.4062 Q177.8594 168.5 177.2109 169.1953 Q176.5625 169.8906 175.25 170.1875 L175.25 171.6719 L174.5312 171.6719 L174.5312 169.75 Q175.5625 169.5 176.0938 168.9062 Q176.625 168.3125 176.625 167.4062 Q176.625 166.5938 176.1953 166.1328 Q175.7656 165.6719 175.0312 165.6719 Q174.3594 165.6719 173.9297 166.0547 Q173.5 166.4375 173.3906 167.1562 L172.8125 167.1562 L172.8125 165.6406 Z" style="fill:black; stroke:none;" /><rect height="10" style="stroke:none;" width="6" x="156" y="156" /><path d="M158.1094 165.3906 Q158.1094 165.0625 158.3359 164.8359 Q158.5625 164.6094 158.8906 164.6094 Q159.2188 164.6094 159.4453 164.8359 Q159.6719 165.0625 159.6719 165.3906 Q159.6719 165.7188 159.4453 165.9453 Q159.2188 166.1719 158.8906 166.1719 Q158.5625 166.1719 158.3359 165.9453 Q158.1094 165.7188 158.1094 165.3906 ZM156.8125 157.6406 Q157.4375 157.3594 158 157.2266 Q158.5625 157.0938 159.0469 157.0938 Q160.3438 157.0938 161.1016 157.7188 Q161.8594 158.3438 161.8594 159.4062 Q161.8594 160.5 161.2109 161.1953 Q160.5625 161.8906 159.25 162.1875 L159.25 163.6719 L158.5312 163.6719 L158.5312 161.75 Q159.5625 161.5 160.0938 160.9062 Q160.625 160.3125 160.625 159.4062 Q160.625 158.5938 160.1953 158.1328 Q159.7656 157.6719 159.0312 157.6719 Q158.3594 157.6719 157.9297 158.0547 Q157.5 158.4375 157.3906 159.1562 L156.8125 159.1562 L156.8125 157.6406 Z" style="fill:black; stroke:none;" /></g><g ID="l-1:5,11" style="text-rendering:optimizeSpeed;"><polygon points=" 197 67 145 93" style="fill:none;" /></g><g ID="l-1:5,12" style="text-rendering:optimizeSpeed;"><polygon points=" 197 67 145 41" style="fill:none;" /></g><g ID="r-1:5" style="fill:white; text-rendering:optimizeSpeed; stroke:white;" wurcs_mono_id="10"><circle cx="197" cy="67" r="11" style="clip-path:url(#clipPath10); stroke:none;" /><rect height="22" style="clip-path:url(#clipPath10); fill:rgb(0,166,81); stroke:none;" width="22" x="186" y="56" /><rect height="22" style="clip-path:url(#clipPath10); fill:none; stroke:black;" width="22" x="186" y="56" /><circle cx="197" cy="67" r="11" style="fill:none; stroke:black;" /></g><g ID="l-1:11,13" style="text-rendering:optimizeSpeed;"><polygon points=" 145 93 93 93" style="fill:none;" /></g><g ID="r-1:11" style="fill:white; text-rendering:optimizeSpeed; stroke:white;" wurcs_mono_id="11"><rect height="22" style="clip-path:url(#clipPath11); stroke:none;" width="22" x="134" y="82" /><rect height="22" style="clip-path:url(#clipPath11); fill:rgb(0,144,188); stroke:none;" width="22" x="134" y="82" /><rect height="22" style="clip-path:url(#clipPath11); fill:none; stroke:black;" width="22" x="134" y="82" /><rect height="22" style="fill:none; stroke:black;" width="22" x="134" y="82" /></g><g ID="l-1:13,14" style="text-rendering:optimizeSpeed;"><polygon points=" 93 93 41 93" style="fill:none;" /></g><g ID="r-1:13" style="fill:white; text-rendering:optimizeSpeed; stroke:white;" wurcs_mono_id="12"><circle cx="93" cy="93" r="11" style="clip-path:url(#clipPath12); stroke:none;" /><rect height="22" style="clip-path:url(#clipPath12); fill:rgb(255,212,0); stroke:none;" width="22" x="82" y="82" /><rect height="22" style="clip-path:url(#clipPath12); fill:none; stroke:black;" width="22" x="82" y="82" /><circle cx="93" cy="93" r="11" style="fill:none; stroke:black;" /></g><g ID="r-1:14" style="fill:white; text-rendering:optimizeSpeed; stroke:white;" wurcs_mono_id="13"><circle cx="41" cy="93" r="11" style="clip-path:url(#clipPath13); stroke:none;" /><rect height="22" style="clip-path:url(#clipPath13); fill:rgb(255,212,0); stroke:none;" width="22" x="30" y="82" /><rect height="22" style="clip-path:url(#clipPath13); fill:none; stroke:black;" width="22" x="30" y="82" /><circle cx="41" cy="93" r="11" style="fill:none; stroke:black;" /></g><g ID="li-1:13,14" style="fill:white; text-rendering:optimizeSpeed; font-family:'Serif'; stroke:white;"><rect height="10" style="stroke:none;" width="6" x="71" y="96" /><path d="M73.1094 105.3906 Q73.1094 105.0625 73.3359 104.8359 Q73.5625 104.6094 73.8906 104.6094 Q74.2188 104.6094 74.4453 104.8359 Q74.6719 105.0625 74.6719 105.3906 Q74.6719 105.7188 74.4453 105.9453 Q74.2188 106.1719 73.8906 106.1719 Q73.5625 106.1719 73.3359 105.9453 Q73.1094 105.7188 73.1094 105.3906 ZM71.8125 97.6406 Q72.4375 97.3594 73 97.2266 Q73.5625 97.0938 74.0469 97.0938 Q75.3438 97.0938 76.1016 97.7188 Q76.8594 98.3438 76.8594 99.4062 Q76.8594 100.5 76.2109 101.1953 Q75.5625 101.8906 74.25 102.1875 L74.25 103.6719 L73.5312 103.6719 L73.5312 101.75 Q74.5625 101.5 75.0938 100.9062 Q75.625 100.3125 75.625 99.4062 Q75.625 98.5938 75.1953 98.1328 Q74.7656 97.6719 74.0312 97.6719 Q73.3594 97.6719 72.9297 98.0547 Q72.5 98.4375 72.3906 99.1562 L71.8125 99.1562 L71.8125 97.6406 Z" style="fill:black; stroke:none;" /><rect height="10" style="stroke:none;" width="6" x="57" y="96" /><path d="M59.1094 105.3906 Q59.1094 105.0625 59.3359 104.8359 Q59.5625 104.6094 59.8906 104.6094 Q60.2188 104.6094 60.4453 104.8359 Q60.6719 105.0625 60.6719 105.3906 Q60.6719 105.7188 60.4453 105.9453 Q60.2188 106.1719 59.8906 106.1719 Q59.5625 106.1719 59.3359 105.9453 Q59.1094 105.7188 59.1094 105.3906 ZM57.8125 97.6406 Q58.4375 97.3594 59 97.2266 Q59.5625 97.0938 60.0469 97.0938 Q61.3438 97.0938 62.1016 97.7188 Q62.8594 98.3438 62.8594 99.4062 Q62.8594 100.5 62.2109 101.1953 Q61.5625 101.8906 60.25 102.1875 L60.25 103.6719 L59.5312 103.6719 L59.5312 101.75 Q60.5625 101.5 61.0938 100.9062 Q61.625 100.3125 61.625 99.4062 Q61.625 98.5938 61.1953 98.1328 Q60.7656 97.6719 60.0312 97.6719 Q59.3594 97.6719 58.9297 98.0547 Q58.5 98.4375 58.3906 99.1562 L57.8125 99.1562 L57.8125 97.6406 Z" style="fill:black; stroke:none;" /></g><g ID="li-1:11,13" style="fill:white; text-rendering:optimizeSpeed; font-family:'Serif'; stroke:white;"><rect height="10" style="stroke:none;" width="6" x="123" y="96" /><path d="M125.1094 105.3906 Q125.1094 105.0625 125.3359 104.8359 Q125.5625 104.6094 125.8906 104.6094 Q126.2188 104.6094 126.4453 104.8359 Q126.6719 105.0625 126.6719 105.3906 Q126.6719 105.7188 126.4453 105.9453 Q126.2188 106.1719 125.8906 106.1719 Q125.5625 106.1719 125.3359 105.9453 Q125.1094 105.7188 125.1094 105.3906 ZM123.8125 97.6406 Q124.4375 97.3594 125 97.2266 Q125.5625 97.0938 126.0469 97.0938 Q127.3438 97.0938 128.1016 97.7188 Q128.8594 98.3438 128.8594 99.4062 Q128.8594 100.5 128.2109 101.1953 Q127.5625 101.8906 126.25 102.1875 L126.25 103.6719 L125.5312 103.6719 L125.5312 101.75 Q126.5625 101.5 127.0938 100.9062 Q127.625 100.3125 127.625 99.4062 Q127.625 98.5938 127.1953 98.1328 Q126.7656 97.6719 126.0312 97.6719 Q125.3594 97.6719 124.9297 98.0547 Q124.5 98.4375 124.3906 99.1562 L123.8125 99.1562 L123.8125 97.6406 Z" style="fill:black; stroke:none;" /><rect height="10" style="stroke:none;" width="6" x="109" y="96" /><path d="M111.1094 105.3906 Q111.1094 105.0625 111.3359 104.8359 Q111.5625 104.6094 111.8906 104.6094 Q112.2188 104.6094 112.4453 104.8359 Q112.6719 105.0625 112.6719 105.3906 Q112.6719 105.7188 112.4453 105.9453 Q112.2188 106.1719 111.8906 106.1719 Q111.5625 106.1719 111.3359 105.9453 Q111.1094 105.7188 111.1094 105.3906 ZM109.8125 97.6406 Q110.4375 97.3594 111 97.2266 Q111.5625 97.0938 112.0469 97.0938 Q113.3438 97.0938 114.1016 97.7188 Q114.8594 98.3438 114.8594 99.4062 Q114.8594 100.5 114.2109 101.1953 Q113.5625 101.8906 112.25 102.1875 L112.25 103.6719 L111.5312 103.6719 L111.5312 101.75 Q112.5625 101.5 113.0938 100.9062 Q113.625 100.3125 113.625 99.4062 Q113.625 98.5938 113.1953 98.1328 Q112.7656 97.6719 112.0312 97.6719 Q111.3594 97.6719 110.9297 98.0547 Q110.5 98.4375 110.3906 99.1562 L109.8125 99.1562 L109.8125 97.6406 Z" style="fill:black; stroke:none;" /></g><g ID="r-1:12" style="fill:white; text-rendering:optimizeSpeed; stroke:white;" wurcs_mono_id="14"><rect height="22" style="clip-path:url(#clipPath14); stroke:none;" width="22" x="134" y="30" /><rect height="22" style="clip-path:url(#clipPath14); fill:rgb(0,144,188); stroke:none;" width="22" x="134" y="30" /><rect height="22" style="clip-path:url(#clipPath14); fill:none; stroke:black;" width="22" x="134" y="30" /><rect height="22" style="fill:none; stroke:black;" width="22" x="134" y="30" /></g><g ID="li-1:5,11" style="fill:white; text-rendering:optimizeSpeed; font-family:'Serif'; stroke:white;"><rect height="10" style="stroke:none;" width="6" x="179" y="78" /><path d="M181.1094 87.3906 Q181.1094 87.0625 181.3359 86.8359 Q181.5625 86.6094 181.8906 86.6094 Q182.2188 86.6094 182.4453 86.8359 Q182.6719 87.0625 182.6719 87.3906 Q182.6719 87.7188 182.4453 87.9453 Q182.2188 88.1719 181.8906 88.1719 Q181.5625 88.1719 181.3359 87.9453 Q181.1094 87.7188 181.1094 87.3906 ZM179.8125 79.6406 Q180.4375 79.3594 181 79.2266 Q181.5625 79.0938 182.0469 79.0938 Q183.3438 79.0938 184.1016 79.7188 Q184.8594 80.3438 184.8594 81.4062 Q184.8594 82.5 184.2109 83.1953 Q183.5625 83.8906 182.25 84.1875 L182.25 85.6719 L181.5312 85.6719 L181.5312 83.75 Q182.5625 83.5 183.0938 82.9062 Q183.625 82.3125 183.625 81.4062 Q183.625 80.5938 183.1953 80.1328 Q182.7656 79.6719 182.0312 79.6719 Q181.3594 79.6719 180.9297 80.0547 Q180.5 80.4375 180.3906 81.1562 L179.8125 81.1562 L179.8125 79.6406 Z" style="fill:black; stroke:none;" /><rect height="10" style="stroke:none;" width="6" x="163" y="86" /><path d="M165.1094 95.3906 Q165.1094 95.0625 165.3359 94.8359 Q165.5625 94.6094 165.8906 94.6094 Q166.2188 94.6094 166.4453 94.8359 Q166.6719 95.0625 166.6719 95.3906 Q166.6719 95.7188 166.4453 95.9453 Q166.2188 96.1719 165.8906 96.1719 Q165.5625 96.1719 165.3359 95.9453 Q165.1094 95.7188 165.1094 95.3906 ZM163.8125 87.6406 Q164.4375 87.3594 165 87.2266 Q165.5625 87.0938 166.0469 87.0938 Q167.3438 87.0938 168.1016 87.7188 Q168.8594 88.3438 168.8594 89.4062 Q168.8594 90.5 168.2109 91.1953 Q167.5625 91.8906 166.25 92.1875 L166.25 93.6719 L165.5312 93.6719 L165.5312 91.75 Q166.5625 91.5 167.0938 90.9062 Q167.625 90.3125 167.625 89.4062 Q167.625 88.5938 167.1953 88.1328 Q166.7656 87.6719 166.0312 87.6719 Q165.3594 87.6719 164.9297 88.0547 Q164.5 88.4375 164.3906 89.1562 L163.8125 89.1562 L163.8125 87.6406 Z" style="fill:black; stroke:none;" /></g><g ID="li-1:5,12" style="fill:white; text-rendering:optimizeSpeed; font-family:'Serif'; stroke:white;"><rect height="10" style="stroke:none;" width="6" x="172" y="60" /><path d="M174.1094 69.3906 Q174.1094 69.0625 174.3359 68.8359 Q174.5625 68.6094 174.8906 68.6094 Q175.2188 68.6094 175.4453 68.8359 Q175.6719 69.0625 175.6719 69.3906 Q175.6719 69.7188 175.4453 69.9453 Q175.2188 70.1719 174.8906 70.1719 Q174.5625 70.1719 174.3359 69.9453 Q174.1094 69.7188 174.1094 69.3906 ZM172.8125 61.6406 Q173.4375 61.3594 174 61.2266 Q174.5625 61.0938 175.0469 61.0938 Q176.3438 61.0938 177.1016 61.7188 Q177.8594 62.3438 177.8594 63.4062 Q177.8594 64.5 177.2109 65.1953 Q176.5625 65.8906 175.25 66.1875 L175.25 67.6719 L174.5312 67.6719 L174.5312 65.75 Q175.5625 65.5 176.0938 64.9062 Q176.625 64.3125 176.625 63.4062 Q176.625 62.5938 176.1953 62.1328 Q175.7656 61.6719 175.0312 61.6719 Q174.3594 61.6719 173.9297 62.0547 Q173.5 62.4375 173.3906 63.1562 L172.8125 63.1562 L172.8125 61.6406 Z" style="fill:black; stroke:none;" /><rect height="10" style="stroke:none;" width="6" x="156" y="52" /><path d="M158.1094 61.3906 Q158.1094 61.0625 158.3359 60.8359 Q158.5625 60.6094 158.8906 60.6094 Q159.2188 60.6094 159.4453 60.8359 Q159.6719 61.0625 159.6719 61.3906 Q159.6719 61.7188 159.4453 61.9453 Q159.2188 62.1719 158.8906 62.1719 Q158.5625 62.1719 158.3359 61.9453 Q158.1094 61.7188 158.1094 61.3906 ZM156.8125 53.6406 Q157.4375 53.3594 158 53.2266 Q158.5625 53.0938 159.0469 53.0938 Q160.3438 53.0938 161.1016 53.7188 Q161.8594 54.3438 161.8594 55.4062 Q161.8594 56.5 161.2109 57.1953 Q160.5625 57.8906 159.25 58.1875 L159.25 59.6719 L158.5312 59.6719 L158.5312 57.75 Q159.5625 57.5 160.0938 56.9062 Q160.625 56.3125 160.625 55.4062 Q160.625 54.5938 160.1953 54.1328 Q159.7656 53.6719 159.0312 53.6719 Q158.3594 53.6719 157.9297 54.0547 Q157.5 54.4375 157.3906 55.1562 L156.8125 55.1562 L156.8125 53.6406 Z" style="fill:black; stroke:none;" /></g><g ID="li-1:3,4" style="fill:white; text-rendering:optimizeSpeed; font-family:'Serif'; stroke:white;"><rect height="10" style="stroke:none;" width="6" x="235" y="136" /><path d="M237.1094 145.3906 Q237.1094 145.0625 237.3359 144.8359 Q237.5625 144.6094 237.8906 144.6094 Q238.2188 144.6094 238.4453 144.8359 Q238.6719 145.0625 238.6719 145.3906 Q238.6719 145.7188 238.4453 145.9453 Q238.2188 146.1719 237.8906 146.1719 Q237.5625 146.1719 237.3359 145.9453 Q237.1094 145.7188 237.1094 145.3906 ZM235.8125 137.6406 Q236.4375 137.3594 237 137.2266 Q237.5625 137.0938 238.0469 137.0938 Q239.3438 137.0938 240.1016 137.7188 Q240.8594 138.3438 240.8594 139.4062 Q240.8594 140.5 240.2109 141.1953 Q239.5625 141.8906 238.25 142.1875 L238.25 143.6719 L237.5312 143.6719 L237.5312 141.75 Q238.5625 141.5 239.0938 140.9062 Q239.625 140.3125 239.625 139.4062 Q239.625 138.5938 239.1953 138.1328 Q238.7656 137.6719 238.0312 137.6719 Q237.3594 137.6719 236.9297 138.0547 Q236.5 138.4375 236.3906 139.1562 L235.8125 139.1562 L235.8125 137.6406 Z" style="fill:black; stroke:none;" /><rect height="10" style="stroke:none;" width="6" x="216" y="155" /><path d="M218.1094 164.3906 Q218.1094 164.0625 218.3359 163.8359 Q218.5625 163.6094 218.8906 163.6094 Q219.2188 163.6094 219.4453 163.8359 Q219.6719 164.0625 219.6719 164.3906 Q219.6719 164.7188 219.4453 164.9453 Q219.2188 165.1719 218.8906 165.1719 Q218.5625 165.1719 218.3359 164.9453 Q218.1094 164.7188 218.1094 164.3906 ZM216.8125 156.6406 Q217.4375 156.3594 218 156.2266 Q218.5625 156.0938 219.0469 156.0938 Q220.3438 156.0938 221.1016 156.7188 Q221.8594 157.3438 221.8594 158.4062 Q221.8594 159.5 221.2109 160.1953 Q220.5625 160.8906 219.25 161.1875 L219.25 162.6719 L218.5312 162.6719 L218.5312 160.75 Q219.5625 160.5 220.0938 159.9062 Q220.625 159.3125 220.625 158.4062 Q220.625 157.5938 220.1953 157.1328 Q219.7656 156.6719 219.0312 156.6719 Q218.3594 156.6719 217.9297 157.0547 Q217.5 157.4375 217.3906 158.1562 L216.8125 158.1562 L216.8125 156.6406 Z" style="fill:black; stroke:none;" /></g><g ID="li-1:3,5" style="fill:white; text-rendering:optimizeSpeed; font-family:'Serif'; stroke:white;"><rect height="10" style="stroke:none;" width="6" x="223" y="103" /><path d="M225.1094 112.3906 Q225.1094 112.0625 225.3359 111.8359 Q225.5625 111.6094 225.8906 111.6094 Q226.2188 111.6094 226.4453 111.8359 Q226.6719 112.0625 226.6719 112.3906 Q226.6719 112.7188 226.4453 112.9453 Q226.2188 113.1719 225.8906 113.1719 Q225.5625 113.1719 225.3359 112.9453 Q225.1094 112.7188 225.1094 112.3906 ZM223.8125 104.6406 Q224.4375 104.3594 225 104.2266 Q225.5625 104.0938 226.0469 104.0938 Q227.3438 104.0938 228.1016 104.7188 Q228.8594 105.3438 228.8594 106.4062 Q228.8594 107.5 228.2109 108.1953 Q227.5625 108.8906 226.25 109.1875 L226.25 110.6719 L225.5312 110.6719 L225.5312 108.75 Q226.5625 108.5 227.0938 107.9062 Q227.625 107.3125 227.625 106.4062 Q227.625 105.5938 227.1953 105.1328 Q226.7656 104.6719 226.0312 104.6719 Q225.3594 104.6719 224.9297 105.0547 Q224.5 105.4375 224.3906 106.1562 L223.8125 106.1562 L223.8125 104.6406 Z" style="fill:black; stroke:none;" /><rect height="10" style="stroke:none;" width="6" x="205" y="84" /><path d="M207.1094 93.3906 Q207.1094 93.0625 207.3359 92.8359 Q207.5625 92.6094 207.8906 92.6094 Q208.2188 92.6094 208.4453 92.8359 Q208.6719 93.0625 208.6719 93.3906 Q208.6719 93.7188 208.4453 93.9453 Q208.2188 94.1719 207.8906 94.1719 Q207.5625 94.1719 207.3359 93.9453 Q207.1094 93.7188 207.1094 93.3906 ZM205.8125 85.6406 Q206.4375 85.3594 207 85.2266 Q207.5625 85.0938 208.0469 85.0938 Q209.3438 85.0938 210.1016 85.7188 Q210.8594 86.3438 210.8594 87.4062 Q210.8594 88.5 210.2109 89.1953 Q209.5625 89.8906 208.25 90.1875 L208.25 91.6719 L207.5312 91.6719 L207.5312 89.75 Q208.5625 89.5 209.0938 88.9062 Q209.625 88.3125 209.625 87.4062 Q209.625 86.5938 209.1953 86.1328 Q208.7656 85.6719 208.0312 85.6719 Q207.3594 85.6719 206.9297 86.0547 Q206.5 86.4375 206.3906 87.1562 L205.8125 87.1562 L205.8125 85.6406 Z" style="fill:black; stroke:none;" /></g><g ID="li-1:2,3" style="fill:white; text-rendering:optimizeSpeed; font-family:'Serif'; stroke:white;"><rect height="10" style="stroke:none;" width="6" x="279" y="122" /><path d="M281.1094 131.3906 Q281.1094 131.0625 281.3359 130.8359 Q281.5625 130.6094 281.8906 130.6094 Q282.2188 130.6094 282.4453 130.8359 Q282.6719 131.0625 282.6719 131.3906 Q282.6719 131.7188 282.4453 131.9453 Q282.2188 132.1719 281.8906 132.1719 Q281.5625 132.1719 281.3359 131.9453 Q281.1094 131.7188 281.1094 131.3906 ZM279.8125 123.6406 Q280.4375 123.3594 281 123.2266 Q281.5625 123.0938 282.0469 123.0938 Q283.3438 123.0938 284.1016 123.7188 Q284.8594 124.3438 284.8594 125.4062 Q284.8594 126.5 284.2109 127.1953 Q283.5625 127.8906 282.25 128.1875 L282.25 129.6719 L281.5312 129.6719 L281.5312 127.75 Q282.5625 127.5 283.0938 126.9062 Q283.625 126.3125 283.625 125.4062 Q283.625 124.5938 283.1953 124.1328 Q282.7656 123.6719 282.0312 123.6719 Q281.3594 123.6719 280.9297 124.0547 Q280.5 124.4375 280.3906 125.1562 L279.8125 125.1562 L279.8125 123.6406 Z" style="fill:black; stroke:none;" /><rect height="10" style="stroke:none;" width="6" x="265" y="122" /><path d="M267.1094 131.3906 Q267.1094 131.0625 267.3359 130.8359 Q267.5625 130.6094 267.8906 130.6094 Q268.2188 130.6094 268.4453 130.8359 Q268.6719 131.0625 268.6719 131.3906 Q268.6719 131.7188 268.4453 131.9453 Q268.2188 132.1719 267.8906 132.1719 Q267.5625 132.1719 267.3359 131.9453 Q267.1094 131.7188 267.1094 131.3906 ZM265.8125 123.6406 Q266.4375 123.3594 267 123.2266 Q267.5625 123.0938 268.0469 123.0938 Q269.3438 123.0938 270.1016 123.7188 Q270.8594 124.3438 270.8594 125.4062 Q270.8594 126.5 270.2109 127.1953 Q269.5625 127.8906 268.25 128.1875 L268.25 129.6719 L267.5312 129.6719 L267.5312 127.75 Q268.5625 127.5 269.0938 126.9062 Q269.625 126.3125 269.625 125.4062 Q269.625 124.5938 269.1953 124.1328 Q268.7656 123.6719 268.0312 123.6719 Q267.3594 123.6719 266.9297 124.0547 Q266.5 124.4375 266.3906 125.1562 L265.8125 125.1562 L265.8125 123.6406 Z" style="fill:black; stroke:none;" /></g><g ID="li-1:1,2" style="fill:white; text-rendering:optimizeSpeed; font-family:'Serif'; stroke:white;"><rect height="10" style="stroke:none;" width="6" x="331" y="122" /><path d="M333.1094 131.3906 Q333.1094 131.0625 333.3359 130.8359 Q333.5625 130.6094 333.8906 130.6094 Q334.2188 130.6094 334.4453 130.8359 Q334.6719 131.0625 334.6719 131.3906 Q334.6719 131.7188 334.4453 131.9453 Q334.2188 132.1719 333.8906 132.1719 Q333.5625 132.1719 333.3359 131.9453 Q333.1094 131.7188 333.1094 131.3906 ZM331.8125 123.6406 Q332.4375 123.3594 333 123.2266 Q333.5625 123.0938 334.0469 123.0938 Q335.3438 123.0938 336.1016 123.7188 Q336.8594 124.3438 336.8594 125.4062 Q336.8594 126.5 336.2109 127.1953 Q335.5625 127.8906 334.25 128.1875 L334.25 129.6719 L333.5312 129.6719 L333.5312 127.75 Q334.5625 127.5 335.0938 126.9062 Q335.625 126.3125 335.625 125.4062 Q335.625 124.5938 335.1953 124.1328 Q334.7656 123.6719 334.0312 123.6719 Q333.3594 123.6719 332.9297 124.0547 Q332.5 124.4375 332.3906 125.1562 L331.8125 125.1562 L331.8125 123.6406 Z" style="fill:black; stroke:none;" /><rect height="10" style="stroke:none;" width="6" x="317" y="122" /><path d="M319.1094 131.3906 Q319.1094 131.0625 319.3359 130.8359 Q319.5625 130.6094 319.8906 130.6094 Q320.2188 130.6094 320.4453 130.8359 Q320.6719 131.0625 320.6719 131.3906 Q320.6719 131.7188 320.4453 131.9453 Q320.2188 132.1719 319.8906 132.1719 Q319.5625 132.1719 319.3359 131.9453 Q319.1094 131.7188 319.1094 131.3906 ZM317.8125 123.6406 Q318.4375 123.3594 319 123.2266 Q319.5625 123.0938 320.0469 123.0938 Q321.3438 123.0938 322.1016 123.7188 Q322.8594 124.3438 322.8594 125.4062 Q322.8594 126.5 322.2109 127.1953 Q321.5625 127.8906 320.25 128.1875 L320.25 129.6719 L319.5312 129.6719 L319.5312 127.75 Q320.5625 127.5 321.0938 126.9062 Q321.625 126.3125 321.625 125.4062 Q321.625 124.5938 321.1953 124.1328 Q320.7656 123.6719 320.0312 123.6719 Q319.3594 123.6719 318.9297 124.0547 Q318.5 124.4375 318.3906 125.1562 L317.8125 125.1562 L317.8125 123.6406 Z" style="fill:black; stroke:none;" /></g></g></svg>