<svg xmlns="http://www.w3.org/2000/svg" style="fill-opacity:1; color-rendering:auto; color-interpolation:auto; text-rendering:auto; stroke:black; stroke-linecap:square; stroke-miterlimit:10; shape-rendering:auto; stroke-opacity:1; fill:black; stroke-dasharray:none; font-weight:normal; stroke-width:1; font-family:'Dialog'; font-style:normal; stroke-linejoin:miter; font-size:12px; stroke-dashoffset:0; image-rendering:auto;"><defs id="genericDefs" /><g><defs id="defs1"><clipPath clipPathUnits="userSpaceOnUse" id="clipPath1"><path d="M238 82 L260 82 L260 104 L238 104 L238 82 Z" /></clipPath><clipPath clipPathUnits="userSpaceOnUse" id="clipPath2"><path d="M208 145 C208 151.0751 203.0751 156 197 156 C190.9249 156 186 151.0751 186 145 C186 138.9249 190.9249 134 197 134 C203.0751 134 208 138.9249 208 145 Z" /></clipPath><clipPath clipPathUnits="userSpaceOnUse" id="clipPath3"><path d="M134 134 L156 134 L156 156 L134 156 L134 134 Z" /></clipPath><clipPath clipPathUnits="userSpaceOnUse" id="clipPath4"><path d="M104 145 C104 151.0751 99.0751 156 93 156 C86.9249 156 82 151.0751 82 145 C82 138.9249 86.9249 134 93 134 C99.0751 134 104 138.9249 104 145 Z" /></clipPath><clipPath clipPathUnits="userSpaceOnUse" id="clipPath5"><path d="M52 171 C52 177.0751 47.0751 182 41 182 C34.9249 182 30 177.0751 30 171 C30 164.9249 34.9249 160 41 160 C47.0751 160 52 164.9249 52 171 Z" /></clipPath><clipPath clipPathUnits="userSpaceOnUse" id="clipPath6"><path d="M52 119 C52 125.0751 47.0751 130 41 130 C34.9249 130 30 125.0751 30 119 C30 112.9249 34.9249 108 41 108 C47.0751 108 52 112.9249 52 119 Z" /></clipPath><clipPath clipPathUnits="userSpaceOnUse" id="clipPath7"><path d="M197 104 L186 82 L208 82 Z" style="fill-rule:evenodd;" /></clipPath><clipPath clipPathUnits="userSpaceOnUse" id="clipPath8"><path d="M197 30 L208 41 L197 52 L186 41 Z" style="fill-rule:evenodd;" /></clipPath></defs><g style="fill:white; text-rendering:optimizeSpeed; stroke:white;"><rect height="212" style="stroke:none;" width="290" x="0" y="0" /></g><g ID="l-1:1,2" style="text-rendering:optimizeSpeed;"><polygon points=" 249 93 197 145" style="fill:none;" /></g><g ID="l-1:1,3" style="text-rendering:optimizeSpeed;"><polygon points=" 249 93 197 41" style="fill:none;" /></g><g ID="r-1:1" style="fill:white; text-rendering:optimizeSpeed; stroke:white;" wurcs_mono_id="1"><rect height="22" style="clip-path:url(#clipPath1); stroke:none;" width="22" x="238" y="82" /><rect height="22" style="clip-path:url(#clipPath1); fill:rgb(255,212,0); stroke:none;" width="22" x="238" y="82" /><rect height="22" style="clip-path:url(#clipPath1); fill:none; stroke:black;" width="22" x="238" y="82" /><rect height="22" style="fill:none; stroke:black;" width="22" x="238" y="82" /></g><g ID="l-1:2,4" style="text-rendering:optimizeSpeed;"><polygon points=" 197 145 145 145" style="fill:none;" /></g><g ID="l-1:2,5" style="text-rendering:optimizeSpeed;"><polygon points=" 197 145 197 93" style="fill:none;" /></g><g ID="r-1:2" style="fill:white; text-rendering:optimizeSpeed; stroke:white;" wurcs_mono_id="2"><circle cx="197" cy="145" r="11" style="clip-path:url(#clipPath2); stroke:none;" /><rect height="22" style="clip-path:url(#clipPath2); fill:rgb(255,212,0); stroke:none;" width="22" x="186" y="134" /><rect height="22" style="clip-path:url(#clipPath2); fill:none; stroke:black;" width="22" x="186" y="134" /><circle cx="197" cy="145" r="11" style="fill:none; stroke:black;" /></g><g ID="l-1:4,6" style="text-rendering:optimizeSpeed;"><polygon points=" 145 145 93 145" style="fill:none;" /></g><g ID="r-1:4" style="fill:white; text-rendering:optimizeSpeed; stroke:white;" wurcs_mono_id="3"><rect height="22" style="clip-path:url(#clipPath3); stroke:none;" width="22" x="134" y="134" /><rect height="22" style="clip-path:url(#clipPath3); fill:rgb(0,144,188); stroke:none;" width="22" x="134" y="134" /><rect height="22" style="clip-path:url(#clipPath3); fill:none; stroke:black;" width="22" x="134" y="134" /><rect height="22" style="fill:none; stroke:black;" width="22" x="134" y="134" /></g><g ID="l-1:6,7" style="text-rendering:optimizeSpeed;"><polygon points=" 93 145 41 171" style="fill:none;" /></g><g ID="l-1:6,8" style="text-rendering:optimizeSpeed;"><polygon points=" 93 145 41 119" style="fill:none;" /></g><g ID="r-1:6" style="fill:white; text-rendering:optimizeSpeed; stroke:white;" wurcs_mono_id="4"><circle cx="93" cy="145" r="11" style="clip-path:url(#clipPath4); stroke:none;" /><rect height="22" style="clip-path:url(#clipPath4); fill:rgb(0,144,188); stroke:none;" width="22" x="82" y="134" /><rect height="22" style="clip-path:url(#clipPath4); fill:none; stroke:black;" width="22" x="82" y="134" /><circle cx="93" cy="145" r="11" style="fill:none; stroke:black;" /></g><g ID="r-1:7" style="fill:white; text-rendering:optimizeSpeed; stroke:white;" wurcs_mono_id="5"><circle cx="41" cy="171" r="11" style="clip-path:url(#clipPath5); stroke:none;" /><rect height="22" style="clip-path:url(#clipPath5); fill:rgb(0,166,81); stroke:none;" width="22" x="30" y="160" /><rect height="22" style="clip-path:url(#clipPath5); fill:none; stroke:black;" width="22" x="30" y="160" /><circle cx="41" cy="171" r="11" style="fill:none; stroke:black;" /></g><g ID="r-1:8" style="fill:white; text-rendering:optimizeSpeed; stroke:white;" wurcs_mono_id="6"><circle cx="41" cy="119" r="11" style="clip-path:url(#clipPath6); stroke:none;" /><rect height="22" style="clip-path:url(#clipPath6); fill:rgb(0,166,81); stroke:none;" width="22" x="30" y="108" /><rect height="22" style="clip-path:url(#clipPath6); fill:none; stroke:black;" width="22" x="30" y="108" /><circle cx="41" cy="119" r="11" style="fill:none; stroke:black;" /></g><g ID="li-1:6,7" style="fill:white; text-rendering:optimizeSpeed; font-family:'Serif'; stroke:white;"><rect height="10" style="stroke:none;" width="6" x="75" y="156" /><path d="M77.1094 165.3906 Q77.1094 165.0625 77.3359 164.8359 Q77.5625 164.6094 77.8906 164.6094 Q78.2188 164.6094 78.4453 164.8359 Q78.6719 165.0625 78.6719 165.3906 Q78.6719 165.7188 78.4453 165.9453 Q78.2188 166.1719 77.8906 166.1719 Q77.5625 166.1719 77.3359 165.9453 Q77.1094 165.7188 77.1094 165.3906 ZM75.8125 157.6406 Q76.4375 157.3594 77 157.2266 Q77.5625 157.0938 78.0469 157.0938 Q79.3438 157.0938 80.1016 157.7188 Q80.8594 158.3438 80.8594 159.4062 Q80.8594 160.5 80.2109 161.1953 Q79.5625 161.8906 78.25 162.1875 L78.25 163.6719 L77.5312 163.6719 L77.5312 161.75 Q78.5625 161.5 79.0938 160.9062 Q79.625 160.3125 79.625 159.4062 Q79.625 158.5938 79.1953 158.1328 Q78.7656 157.6719 78.0312 157.6719 Q77.3594 157.6719 76.9297 158.0547 Q76.5 158.4375 76.3906 159.1562 L75.8125 159.1562 L75.8125 157.6406 Z" style="fill:black; stroke:none;" /><rect height="10" style="stroke:none;" width="6" x="59" y="164" /><path d="M61.1094 173.3906 Q61.1094 173.0625 61.3359 172.8359 Q61.5625 172.6094 61.8906 172.6094 Q62.2188 172.6094 62.4453 172.8359 Q62.6719 173.0625 62.6719 173.3906 Q62.6719 173.7188 62.4453 173.9453 Q62.2188 174.1719 61.8906 174.1719 Q61.5625 174.1719 61.3359 173.9453 Q61.1094 173.7188 61.1094 173.3906 ZM59.8125 165.6406 Q60.4375 165.3594 61 165.2266 Q61.5625 165.0938 62.0469 165.0938 Q63.3438 165.0938 64.1016 165.7188 Q64.8594 166.3438 64.8594 167.4062 Q64.8594 168.5 64.2109 169.1953 Q63.5625 169.8906 62.25 170.1875 L62.25 171.6719 L61.5312 171.6719 L61.5312 169.75 Q62.5625 169.5 63.0938 168.9062 Q63.625 168.3125 63.625 167.4062 Q63.625 166.5938 63.1953 166.1328 Q62.7656 165.6719 62.0312 165.6719 Q61.3594 165.6719 60.9297 166.0547 Q60.5 166.4375 60.3906 167.1562 L59.8125 167.1562 L59.8125 165.6406 Z" style="fill:black; stroke:none;" /></g><g ID="li-1:6,8" style="fill:white; text-rendering:optimizeSpeed; font-family:'Serif'; stroke:white;"><rect height="10" style="stroke:none;" width="6" x="68" y="138" /><path d="M70.1094 147.3906 Q70.1094 147.0625 70.3359 146.8359 Q70.5625 146.6094 70.8906 146.6094 Q71.2188 146.6094 71.4453 146.8359 Q71.6719 147.0625 71.6719 147.3906 Q71.6719 147.7188 71.4453 147.9453 Q71.2188 148.1719 70.8906 148.1719 Q70.5625 148.1719 70.3359 147.9453 Q70.1094 147.7188 70.1094 147.3906 ZM68.8125 139.6406 Q69.4375 139.3594 70 139.2266 Q70.5625 139.0938 71.0469 139.0938 Q72.3438 139.0938 73.1016 139.7188 Q73.8594 140.3438 73.8594 141.4062 Q73.8594 142.5 73.2109 143.1953 Q72.5625 143.8906 71.25 144.1875 L71.25 145.6719 L70.5312 145.6719 L70.5312 143.75 Q71.5625 143.5 72.0938 142.9062 Q72.625 142.3125 72.625 141.4062 Q72.625 140.5938 72.1953 140.1328 Q71.7656 139.6719 71.0312 139.6719 Q70.3594 139.6719 69.9297 140.0547 Q69.5 140.4375 69.3906 141.1562 L68.8125 141.1562 L68.8125 139.6406 Z" style="fill:black; stroke:none;" /><rect height="10" style="stroke:none;" width="6" x="52" y="130" /><path d="M54.1094 139.3906 Q54.1094 139.0625 54.3359 138.8359 Q54.5625 138.6094 54.8906 138.6094 Q55.2188 138.6094 55.4453 138.8359 Q55.6719 139.0625 55.6719 139.3906 Q55.6719 139.7188 55.4453 139.9453 Q55.2188 140.1719 54.8906 140.1719 Q54.5625 140.1719 54.3359 139.9453 Q54.1094 139.7188 54.1094 139.3906 ZM52.8125 131.6406 Q53.4375 131.3594 54 131.2266 Q54.5625 131.0938 55.0469 131.0938 Q56.3438 131.0938 57.1016 131.7188 Q57.8594 132.3438 57.8594 133.4062 Q57.8594 134.5 57.2109 135.1953 Q56.5625 135.8906 55.25 136.1875 L55.25 137.6719 L54.5312 137.6719 L54.5312 135.75 Q55.5625 135.5 56.0938 134.9062 Q56.625 134.3125 56.625 133.4062 Q56.625 132.5938 56.1953 132.1328 Q55.7656 131.6719 55.0312 131.6719 Q54.3594 131.6719 53.9297 132.0547 Q53.5 132.4375 53.3906 133.1562 L52.8125 133.1562 L52.8125 131.6406 Z" style="fill:black; stroke:none;" /></g><g ID="li-1:4,6" style="fill:white; text-rendering:optimizeSpeed; font-family:'Serif'; stroke:white;"><rect height="10" style="stroke:none;" width="6" x="123" y="148" /><path d="M125.1094 157.3906 Q125.1094 157.0625 125.3359 156.8359 Q125.5625 156.6094 125.8906 156.6094 Q126.2188 156.6094 126.4453 156.8359 Q126.6719 157.0625 126.6719 157.3906 Q126.6719 157.7188 126.4453 157.9453 Q126.2188 158.1719 125.8906 158.1719 Q125.5625 158.1719 125.3359 157.9453 Q125.1094 157.7188 125.1094 157.3906 ZM123.8125 149.6406 Q124.4375 149.3594 125 149.2266 Q125.5625 149.0938 126.0469 149.0938 Q127.3438 149.0938 128.1016 149.7188 Q128.8594 150.3438 128.8594 151.4062 Q128.8594 152.5 128.2109 153.1953 Q127.5625 153.8906 126.25 154.1875 L126.25 155.6719 L125.5312 155.6719 L125.5312 153.75 Q126.5625 153.5 127.0938 152.9062 Q127.625 152.3125 127.625 151.4062 Q127.625 150.5938 127.1953 150.1328 Q126.7656 149.6719 126.0312 149.6719 Q125.3594 149.6719 124.9297 150.0547 Q124.5 150.4375 124.3906 151.1562 L123.8125 151.1562 L123.8125 149.6406 Z" style="fill:black; stroke:none;" /><rect height="10" style="stroke:none;" width="6" x="109" y="148" /><path d="M111.1094 157.3906 Q111.1094 157.0625 111.3359 156.8359 Q111.5625 156.6094 111.8906 156.6094 Q112.2188 156.6094 112.4453 156.8359 Q112.6719 157.0625 112.6719 157.3906 Q112.6719 157.7188 112.4453 157.9453 Q112.2188 158.1719 111.8906 158.1719 Q111.5625 158.1719 111.3359 157.9453 Q111.1094 157.7188 111.1094 157.3906 ZM109.8125 149.6406 Q110.4375 149.3594 111 149.2266 Q111.5625 149.0938 112.0469 149.0938 Q113.3438 149.0938 114.1016 149.7188 Q114.8594 150.3438 114.8594 151.4062 Q114.8594 152.5 114.2109 153.1953 Q113.5625 153.8906 112.25 154.1875 L112.25 155.6719 L111.5312 155.6719 L111.5312 153.75 Q112.5625 153.5 113.0938 152.9062 Q113.625 152.3125 113.625 151.4062 Q113.625 150.5938 113.1953 150.1328 Q112.7656 149.6719 112.0312 149.6719 Q111.3594 149.6719 110.9297 150.0547 Q110.5 150.4375 110.3906 151.1562 L109.8125 151.1562 L109.8125 149.6406 Z" style="fill:black; stroke:none;" /></g><g ID="r-1:5" style="fill:white; text-rendering:optimizeSpeed; stroke:white;" wurcs_mono_id="7"><polygon points=" 197 104 186 82 208 82" style="stroke:none; clip-path:url(#clipPath7);" /><rect height="22" style="clip-path:url(#clipPath7); fill:rgb(237,28,36); stroke:none;" width="22" x="186" y="82" /><rect height="22" style="clip-path:url(#clipPath7); fill:none; stroke:black;" width="22" x="186" y="82" /><polygon points=" 197 104 186 82 208 82" style="fill:none; stroke:black;" /></g><g ID="li-1:2,4" style="fill:white; text-rendering:optimizeSpeed; font-family:'Serif'; stroke:white;"><rect height="10" style="stroke:none;" width="6" x="175" y="148" /><path d="M177.1094 157.3906 Q177.1094 157.0625 177.3359 156.8359 Q177.5625 156.6094 177.8906 156.6094 Q178.2188 156.6094 178.4453 156.8359 Q178.6719 157.0625 178.6719 157.3906 Q178.6719 157.7188 178.4453 157.9453 Q178.2188 158.1719 177.8906 158.1719 Q177.5625 158.1719 177.3359 157.9453 Q177.1094 157.7188 177.1094 157.3906 ZM175.8125 149.6406 Q176.4375 149.3594 177 149.2266 Q177.5625 149.0938 178.0469 149.0938 Q179.3438 149.0938 180.1016 149.7188 Q180.8594 150.3438 180.8594 151.4062 Q180.8594 152.5 180.2109 153.1953 Q179.5625 153.8906 178.25 154.1875 L178.25 155.6719 L177.5312 155.6719 L177.5312 153.75 Q178.5625 153.5 179.0938 152.9062 Q179.625 152.3125 179.625 151.4062 Q179.625 150.5938 179.1953 150.1328 Q178.7656 149.6719 178.0312 149.6719 Q177.3594 149.6719 176.9297 150.0547 Q176.5 150.4375 176.3906 151.1562 L175.8125 151.1562 L175.8125 149.6406 Z" style="fill:black; stroke:none;" /><rect height="10" style="stroke:none;" width="6" x="161" y="148" /><path d="M163.1094 157.3906 Q163.1094 157.0625 163.3359 156.8359 Q163.5625 156.6094 163.8906 156.6094 Q164.2188 156.6094 164.4453 156.8359 Q164.6719 157.0625 164.6719 157.3906 Q164.6719 157.7188 164.4453 157.9453 Q164.2188 158.1719 163.8906 158.1719 Q163.5625 158.1719 163.3359 157.9453 Q163.1094 157.7188 163.1094 157.3906 ZM161.8125 149.6406 Q162.4375 149.3594 163 149.2266 Q163.5625 149.0938 164.0469 149.0938 Q165.3438 149.0938 166.1016 149.7188 Q166.8594 150.3438 166.8594 151.4062 Q166.8594 152.5 166.2109 153.1953 Q165.5625 153.8906 164.25 154.1875 L164.25 155.6719 L163.5312 155.6719 L163.5312 153.75 Q164.5625 153.5 165.0938 152.9062 Q165.625 152.3125 165.625 151.4062 Q165.625 150.5938 165.1953 150.1328 Q164.7656 149.6719 164.0312 149.6719 Q163.3594 149.6719 162.9297 150.0547 Q162.5 150.4375 162.3906 151.1562 L161.8125 151.1562 L161.8125 149.6406 Z" style="fill:black; stroke:none;" /></g><g ID="li-1:2,5" style="fill:white; text-rendering:optimizeSpeed; font-family:'Serif'; stroke:white;"><rect height="10" style="stroke:none;" width="6" x="186" y="121" /><path d="M188.1094 130.3906 Q188.1094 130.0625 188.3359 129.8359 Q188.5625 129.6094 188.8906 129.6094 Q189.2188 129.6094 189.4453 129.8359 Q189.6719 130.0625 189.6719 130.3906 Q189.6719 130.7188 189.4453 130.9453 Q189.2188 131.1719 188.8906 131.1719 Q188.5625 131.1719 188.3359 130.9453 Q188.1094 130.7188 188.1094 130.3906 ZM186.8125 122.6406 Q187.4375 122.3594 188 122.2266 Q188.5625 122.0938 189.0469 122.0938 Q190.3438 122.0938 191.1016 122.7188 Q191.8594 123.3438 191.8594 124.4062 Q191.8594 125.5 191.2109 126.1953 Q190.5625 126.8906 189.25 127.1875 L189.25 128.6719 L188.5312 128.6719 L188.5312 126.75 Q189.5625 126.5 190.0938 125.9062 Q190.625 125.3125 190.625 124.4062 Q190.625 123.5938 190.1953 123.1328 Q189.7656 122.6719 189.0312 122.6719 Q188.3594 122.6719 187.9297 123.0547 Q187.5 123.4375 187.3906 124.1562 L186.8125 124.1562 L186.8125 122.6406 Z" style="fill:black; stroke:none;" /><rect height="10" style="stroke:none;" width="6" x="186" y="107" /><path d="M188.1094 116.3906 Q188.1094 116.0625 188.3359 115.8359 Q188.5625 115.6094 188.8906 115.6094 Q189.2188 115.6094 189.4453 115.8359 Q189.6719 116.0625 189.6719 116.3906 Q189.6719 116.7188 189.4453 116.9453 Q189.2188 117.1719 188.8906 117.1719 Q188.5625 117.1719 188.3359 116.9453 Q188.1094 116.7188 188.1094 116.3906 ZM186.8125 108.6406 Q187.4375 108.3594 188 108.2266 Q188.5625 108.0938 189.0469 108.0938 Q190.3438 108.0938 191.1016 108.7188 Q191.8594 109.3438 191.8594 110.4062 Q191.8594 111.5 191.2109 112.1953 Q190.5625 112.8906 189.25 113.1875 L189.25 114.6719 L188.5312 114.6719 L188.5312 112.75 Q189.5625 112.5 190.0938 111.9062 Q190.625 111.3125 190.625 110.4062 Q190.625 109.5938 190.1953 109.1328 Q189.7656 108.6719 189.0312 108.6719 Q188.3594 108.6719 187.9297 109.0547 Q187.5 109.4375 187.3906 110.1562 L186.8125 110.1562 L186.8125 108.6406 Z" style="fill:black; stroke:none;" /></g><g ID="r-1:3" style="fill:white; text-rendering:optimizeSpeed; stroke:white;" wurcs_mono_id="8"><polygon points=" 197 30 208 41 197 52 186 41" style="stroke:none; clip-path:url(#clipPath8);" /><rect height="22" style="clip-path:url(#clipPath8); fill:rgb(165,67,153); stroke:none;" width="22" x="186" y="30" /><rect height="22" style="clip-path:url(#clipPath8); fill:none; stroke:black;" width="22" x="186" y="30" /><polygon points=" 197 30 208 41 197 52 186 41" style="fill:none; stroke:black;" /></g><g ID="li-1:1,2" style="fill:white; text-rendering:optimizeSpeed; font-family:'Serif'; stroke:white;"><rect height="10" style="stroke:none;" width="6" x="235" y="110" /><path d="M237.1094 119.3906 Q237.1094 119.0625 237.3359 118.8359 Q237.5625 118.6094 237.8906 118.6094 Q238.2188 118.6094 238.4453 118.8359 Q238.6719 119.0625 238.6719 119.3906 Q238.6719 119.7188 238.4453 119.9453 Q238.2188 120.1719 237.8906 120.1719 Q237.5625 120.1719 237.3359 119.9453 Q237.1094 119.7188 237.1094 119.3906 ZM235.8125 111.6406 Q236.4375 111.3594 237 111.2266 Q237.5625 111.0938 238.0469 111.0938 Q239.3438 111.0938 240.1016 111.7188 Q240.8594 112.3438 240.8594 113.4062 Q240.8594 114.5 240.2109 115.1953 Q239.5625 115.8906 238.25 116.1875 L238.25 117.6719 L237.5312 117.6719 L237.5312 115.75 Q238.5625 115.5 239.0938 114.9062 Q239.625 114.3125 239.625 113.4062 Q239.625 112.5938 239.1953 112.1328 Q238.7656 111.6719 238.0312 111.6719 Q237.3594 111.6719 236.9297 112.0547 Q236.5 112.4375 236.3906 113.1562 L235.8125 113.1562 L235.8125 111.6406 Z" style="fill:black; stroke:none;" /><rect height="10" style="stroke:none;" width="6" x="216" y="129" /><path d="M218.1094 138.3906 Q218.1094 138.0625 218.3359 137.8359 Q218.5625 137.6094 218.8906 137.6094 Q219.2188 137.6094 219.4453 137.8359 Q219.6719 138.0625 219.6719 138.3906 Q219.6719 138.7188 219.4453 138.9453 Q219.2188 139.1719 218.8906 139.1719 Q218.5625 139.1719 218.3359 138.9453 Q218.1094 138.7188 218.1094 138.3906 ZM216.8125 130.6406 Q217.4375 130.3594 218 130.2266 Q218.5625 130.0938 219.0469 130.0938 Q220.3438 130.0938 221.1016 130.7188 Q221.8594 131.3438 221.8594 132.4062 Q221.8594 133.5 221.2109 134.1953 Q220.5625 134.8906 219.25 135.1875 L219.25 136.6719 L218.5312 136.6719 L218.5312 134.75 Q219.5625 134.5 220.0938 133.9062 Q220.625 133.3125 220.625 132.4062 Q220.625 131.5938 220.1953 131.1328 Q219.7656 130.6719 219.0312 130.6719 Q218.3594 130.6719 217.9297 131.0547 Q217.5 131.4375 217.3906 132.1562 L216.8125 132.1562 L216.8125 130.6406 Z" style="fill:black; stroke:none;" /></g><g ID="li-1:1,3" style="fill:white; text-rendering:optimizeSpeed; font-family:'Serif'; stroke:white;"><rect height="10" style="stroke:none;" width="6" x="223" y="77" /><path d="M225.1094 86.3906 Q225.1094 86.0625 225.3359 85.8359 Q225.5625 85.6094 225.8906 85.6094 Q226.2188 85.6094 226.4453 85.8359 Q226.6719 86.0625 226.6719 86.3906 Q226.6719 86.7188 226.4453 86.9453 Q226.2188 87.1719 225.8906 87.1719 Q225.5625 87.1719 225.3359 86.9453 Q225.1094 86.7188 225.1094 86.3906 ZM223.8125 78.6406 Q224.4375 78.3594 225 78.2266 Q225.5625 78.0938 226.0469 78.0938 Q227.3438 78.0938 228.1016 78.7188 Q228.8594 79.3438 228.8594 80.4062 Q228.8594 81.5 228.2109 82.1953 Q227.5625 82.8906 226.25 83.1875 L226.25 84.6719 L225.5312 84.6719 L225.5312 82.75 Q226.5625 82.5 227.0938 81.9062 Q227.625 81.3125 227.625 80.4062 Q227.625 79.5938 227.1953 79.1328 Q226.7656 78.6719 226.0312 78.6719 Q225.3594 78.6719 224.9297 79.0547 Q224.5 79.4375 224.3906 80.1562 L223.8125 80.1562 L223.8125 78.6406 Z" style="fill:black; stroke:none;" /><rect height="10" style="stroke:none;" width="6" x="205" y="58" /><path d="M207.1094 67.3906 Q207.1094 67.0625 207.3359 66.8359 Q207.5625 66.6094 207.8906 66.6094 Q208.2188 66.6094 208.4453 66.8359 Q208.6719 67.0625 208.6719 67.3906 Q208.6719 67.7188 208.4453 67.9453 Q208.2188 68.1719 207.8906 68.1719 Q207.5625 68.1719 207.3359 67.9453 Q207.1094 67.7188 207.1094 67.3906 ZM205.8125 59.6406 Q206.4375 59.3594 207 59.2266 Q207.5625 59.0938 208.0469 59.0938 Q209.3438 59.0938 210.1016 59.7188 Q210.8594 60.3438 210.8594 61.4062 Q210.8594 62.5 210.2109 63.1953 Q209.5625 63.8906 208.25 64.1875 L208.25 65.6719 L207.5312 65.6719 L207.5312 63.75 Q208.5625 63.5 209.0938 62.9062 Q209.625 62.3125 209.625 61.4062 Q209.625 60.5938 209.1953 60.1328 Q208.7656 59.6719 208.0312 59.6719 Q207.3594 59.6719 206.9297 60.0547 Q206.5 60.4375 206.3906 61.1562 L205.8125 61.1562 L205.8125 59.6406 Z" style="fill:black; stroke:none;" /></g></g></svg>