<svg xmlns="http://www.w3.org/2000/svg" style="fill-opacity:1; color-rendering:auto; color-interpolation:auto; text-rendering:auto; stroke:black; stroke-linecap:square; stroke-miterlimit:10; shape-rendering:auto; stroke-opacity:1; fill:black; stroke-dasharray:none; font-weight:normal; stroke-width:1; font-family:'Dialog'; font-style:normal; stroke-linejoin:miter; font-size:12px; stroke-dashoffset:0; image-rendering:auto;"><defs id="genericDefs" /><g><defs id="defs1"><clipPath clipPathUnits="userSpaceOnUse" id="clipPath1"><path d="M342 56 L364 56 L364 78 L342 78 L342 56 Z" /></clipPath><clipPath clipPathUnits="userSpaceOnUse" id="clipPath2"><path d="M290 56 L312 56 L312 78 L290 78 L290 56 Z" /></clipPath><clipPath clipPathUnits="userSpaceOnUse" id="clipPath3"><path d="M260 67 C260 73.0751 255.0751 78 249 78 C242.9249 78 238 73.0751 238 67 C238 60.9249 242.9249 56 249 56 C255.0751 56 260 60.9249 260 67 Z" /></clipPath><clipPath clipPathUnits="userSpaceOnUse" id="clipPath4"><path d="M208 93 C208 99.0751 203.0751 104 197 104 C190.9249 104 186 99.0751 186 93 C186 86.9249 190.9249 82 197 82 C203.0751 82 208 86.9249 208 93 Z" /></clipPath><clipPath clipPathUnits="userSpaceOnUse" id="clipPath5"><path d="M134 82 L156 82 L156 104 L134 104 L134 82 Z" /></clipPath><clipPath clipPathUnits="userSpaceOnUse" id="clipPath6"><path d="M104 93 C104 99.0751 99.0751 104 93 104 C86.9249 104 82 99.0751 82 93 C82 86.9249 86.9249 82 93 82 C99.0751 82 104 86.9249 104 93 Z" /></clipPath><clipPath clipPathUnits="userSpaceOnUse" id="clipPath7"><path d="M30 108 L52 108 L52 130 L30 130 L30 108 Z" /></clipPath><clipPath clipPathUnits="userSpaceOnUse" id="clipPath8"><path d="M30 56 L52 56 L52 78 L30 78 L30 56 Z" /></clipPath><clipPath clipPathUnits="userSpaceOnUse" id="clipPath9"><path d="M208 41 C208 47.0751 203.0751 52 197 52 C190.9249 52 186 47.0751 186 41 C186 34.9249 190.9249 30 197 30 C203.0751 30 208 34.9249 208 41 Z" /></clipPath><clipPath clipPathUnits="userSpaceOnUse" id="clipPath10"><path d="M134 30 L156 30 L156 52 L134 52 L134 30 Z" /></clipPath></defs><g style="fill:white; text-rendering:optimizeSpeed; stroke:white;"><rect height="160" style="stroke:none;" width="394" x="0" y="0" /></g><g ID="l-1:1,2" style="text-rendering:optimizeSpeed;"><polygon points=" 353 67 301 67" style="fill:none;" /></g><g ID="r-1:1" style="fill:white; text-rendering:optimizeSpeed; stroke:white;" wurcs_mono_id="1"><rect height="22" style="clip-path:url(#clipPath1); stroke:none;" width="22" x="342" y="56" /><rect height="22" style="clip-path:url(#clipPath1); fill:rgb(0,144,188); stroke:none;" width="22" x="342" y="56" /><rect height="22" style="clip-path:url(#clipPath1); fill:none; stroke:black;" width="22" x="342" y="56" /><rect height="22" style="fill:none; stroke:black;" width="22" x="342" y="56" /></g><g ID="l-1:2,3" style="text-rendering:optimizeSpeed;"><polygon points=" 301 67 249 67" style="fill:none;" /></g><g ID="r-1:2" style="fill:white; text-rendering:optimizeSpeed; stroke:white;" wurcs_mono_id="2"><rect height="22" style="clip-path:url(#clipPath2); stroke:none;" width="22" x="290" y="56" /><rect height="22" style="clip-path:url(#clipPath2); fill:rgb(0,144,188); stroke:none;" width="22" x="290" y="56" /><rect height="22" style="clip-path:url(#clipPath2); fill:none; stroke:black;" width="22" x="290" y="56" /><rect height="22" style="fill:none; stroke:black;" width="22" x="290" y="56" /></g><g ID="l-1:3,4" style="text-rendering:optimizeSpeed;"><polygon points=" 249 67 197 93" style="fill:none;" /></g><g ID="l-1:3,5" style="text-rendering:optimizeSpeed;"><polygon points=" 249 67 197 41" style="fill:none;" /></g><g ID="r-1:3" style="fill:white; text-rendering:optimizeSpeed; stroke:white;" wurcs_mono_id="3"><circle cx="249" cy="67" r="11" style="clip-path:url(#clipPath3); stroke:none;" /><rect height="22" style="clip-path:url(#clipPath3); fill:rgb(0,166,81); stroke:none;" width="22" x="238" y="56" /><rect height="22" style="clip-path:url(#clipPath3); fill:none; stroke:black;" width="22" x="238" y="56" /><circle cx="249" cy="67" r="11" style="fill:none; stroke:black;" /></g><g ID="l-1:4,6" style="text-rendering:optimizeSpeed;"><polygon points=" 197 93 145 93" style="fill:none;" /></g><g ID="r-1:4" style="fill:white; text-rendering:optimizeSpeed; stroke:white;" wurcs_mono_id="4"><circle cx="197" cy="93" r="11" style="clip-path:url(#clipPath4); stroke:none;" /><rect height="22" style="clip-path:url(#clipPath4); fill:rgb(0,166,81); stroke:none;" width="22" x="186" y="82" /><rect height="22" style="clip-path:url(#clipPath4); fill:none; stroke:black;" width="22" x="186" y="82" /><circle cx="197" cy="93" r="11" style="fill:none; stroke:black;" /></g><g ID="l-1:6,7" style="text-rendering:optimizeSpeed;"><polygon points=" 145 93 93 93" style="fill:none;" /></g><g ID="r-1:6" style="fill:white; text-rendering:optimizeSpeed; stroke:white;" wurcs_mono_id="5"><rect height="22" style="clip-path:url(#clipPath5); stroke:none;" width="22" x="134" y="82" /><rect height="22" style="clip-path:url(#clipPath5); fill:rgb(0,144,188); stroke:none;" width="22" x="134" y="82" /><rect height="22" style="clip-path:url(#clipPath5); fill:none; stroke:black;" width="22" x="134" y="82" /><rect height="22" style="fill:none; stroke:black;" width="22" x="134" y="82" /></g><g ID="l-1:7,8" style="text-rendering:optimizeSpeed;"><polygon points=" 93 93 41 119" style="fill:none;" /></g><g ID="l-1:7,9" style="text-rendering:optimizeSpeed;"><polygon points=" 93 93 41 67" style="fill:none;" /></g><g ID="r-1:7" style="fill:white; text-rendering:optimizeSpeed; stroke:white;" wurcs_mono_id="6"><circle cx="93" cy="93" r="11" style="clip-path:url(#clipPath6); stroke:none;" /><rect height="22" style="clip-path:url(#clipPath6); fill:rgb(255,212,0); stroke:none;" width="22" x="82" y="82" /><rect height="22" style="clip-path:url(#clipPath6); fill:none; stroke:black;" width="22" x="82" y="82" /><circle cx="93" cy="93" r="11" style="fill:none; stroke:black;" /></g><g ID="r-1:8" style="fill:white; text-rendering:optimizeSpeed; stroke:white;" wurcs_mono_id="7"><rect height="22" style="clip-path:url(#clipPath7); stroke:none;" width="22" x="30" y="108" /><rect height="22" style="clip-path:url(#clipPath7); fill:rgb(0,144,188); stroke:none;" width="22" x="30" y="108" /><rect height="22" style="clip-path:url(#clipPath7); fill:none; stroke:black;" width="22" x="30" y="108" /><rect height="22" style="fill:none; stroke:black;" width="22" x="30" y="108" /></g><g ID="r-1:9" style="fill:white; text-rendering:optimizeSpeed; stroke:white;" wurcs_mono_id="8"><rect height="22" style="clip-path:url(#clipPath8); stroke:none;" width="22" x="30" y="56" /><rect height="22" style="clip-path:url(#clipPath8); fill:rgb(0,144,188); stroke:none;" width="22" x="30" y="56" /><rect height="22" style="clip-path:url(#clipPath8); fill:none; stroke:black;" width="22" x="30" y="56" /><rect height="22" style="fill:none; stroke:black;" width="22" x="30" y="56" /></g><g ID="li-1:7,8" style="fill:white; text-rendering:optimizeSpeed; font-family:'Serif'; stroke:white;"><rect height="10" style="stroke:none;" width="7" x="74" y="104" /><path d="M75.1719 105.625 Q75.8594 105.3594 76.4844 105.2266 Q77.1094 105.0938 77.6562 105.0938 Q78.9531 105.0938 79.6719 105.6484 Q80.3906 106.2031 80.3906 107.1875 Q80.3906 107.9688 79.8906 108.5 Q79.3906 109.0312 78.4844 109.2188 Q79.5625 109.375 80.1562 110.0078 Q80.75 110.6406 80.75 111.6406 Q80.75 112.8594 79.9219 113.5156 Q79.0938 114.1719 77.5469 114.1719 Q76.8594 114.1719 76.2109 114.0234 Q75.5625 113.875 74.9219 113.5781 L74.9219 111.875 L75.5781 111.875 Q75.625 112.7188 76.1406 113.1562 Q76.6562 113.5938 77.5781 113.5938 Q78.4688 113.5938 78.9922 113.0703 Q79.5156 112.5469 79.5156 111.6562 Q79.5156 110.625 78.9766 110.0938 Q78.4375 109.5625 77.4062 109.5625 L76.8594 109.5625 L76.8594 108.9531 L77.1406 108.9531 Q78.1719 108.9531 78.6875 108.5312 Q79.2031 108.1094 79.2031 107.25 Q79.2031 106.4844 78.7812 106.0781 Q78.3594 105.6719 77.5625 105.6719 Q76.7656 105.6719 76.3359 106.0469 Q75.9062 106.4219 75.8281 107.1562 L75.1719 107.1562 L75.1719 105.625 Z" style="fill:black; stroke:none;" /><rect height="13" style="stroke:none;" width="7" x="59" y="110" /><path d="M60.8281 122.25 Q61.2969 122.5938 62.1719 122.5938 Q63.0625 122.5938 63.5781 122.0703 Q64.0938 121.5469 64.0938 120.6562 Q64.0938 119.4219 63.5625 118.8906 Q63.0156 118.3594 62 118.3594 L61.4375 118.3594 L61.4375 117.7188 L61.7344 117.7188 Q62.4844 117.7188 63 117.2969 Q63.4219 116.9531 63.4219 116.0156 Q63.4219 115.6094 63.1406 115.1406 Q62.6875 114.375 62.1562 114.3906 Q60.8281 114.4375 60.8281 116.7812 L60.8281 122.25 ZM59.75 125.5 L59.75 116.7812 Q59.75 114.3281 61.0781 114 Q61.7656 113.8125 62.25 113.8125 Q63.3438 113.8125 64.0469 114.6719 Q64.6094 115.3594 64.6094 115.9375 Q64.6094 116.7812 64.2031 117.2656 Q63.7969 117.75 63.0625 117.9844 Q64.1406 118.1406 64.75 118.7812 Q65.3281 119.4062 65.3281 120.6328 Q65.3281 121.8594 64.5078 122.5156 Q63.6875 123.1719 62.1406 123.1719 Q61.1875 123.1719 60.8281 123.0312 L60.8281 125.5 L59.75 125.5 Z" style="fill:black; stroke:none;" /></g><g ID="li-1:7,9" style="fill:white; text-rendering:optimizeSpeed; font-family:'Serif'; stroke:white;"><rect height="10" style="stroke:none;" width="7" x="67" y="86" /><path d="M70.9219 95.5938 Q71.75 95.5938 72.1953 94.9844 Q72.6406 94.375 72.6406 93.2344 Q72.6406 92.1094 72.1953 91.5 Q71.75 90.8906 70.9219 90.8906 Q70.0938 90.8906 69.6484 91.4766 Q69.2031 92.0625 69.2031 93.1719 Q69.2031 94.3281 69.6484 94.9609 Q70.0938 95.5938 70.9219 95.5938 ZM69.0156 91.1875 Q69.4219 90.75 69.9219 90.5312 Q70.4219 90.3125 71.0625 90.3125 Q72.3594 90.3125 73.1172 91.0938 Q73.875 91.875 73.875 93.2344 Q73.875 94.5625 73.0625 95.3672 Q72.25 96.1719 70.875 96.1719 Q69.3906 96.1719 68.5938 95.0625 Q67.7969 93.9531 67.7969 91.9062 Q67.7969 89.6094 68.7422 88.3516 Q69.6875 87.0938 71.4062 87.0938 Q71.875 87.0938 72.3828 87.1797 Q72.8906 87.2656 73.4219 87.4375 L73.4219 88.8906 L72.7656 88.8906 Q72.6875 88.2969 72.3047 87.9844 Q71.9219 87.6719 71.2812 87.6719 Q70.1406 87.6719 69.5859 88.5312 Q69.0312 89.3906 69.0156 91.1875 Z" style="fill:black; stroke:none;" /><rect height="13" style="stroke:none;" width="7" x="52" y="76" /><path d="M53.8281 88.25 Q54.2969 88.5938 55.1719 88.5938 Q56.0625 88.5938 56.5781 88.0703 Q57.0938 87.5469 57.0938 86.6562 Q57.0938 85.4219 56.5625 84.8906 Q56.0156 84.3594 55 84.3594 L54.4375 84.3594 L54.4375 83.7188 L54.7344 83.7188 Q55.4844 83.7188 56 83.2969 Q56.4219 82.9531 56.4219 82.0156 Q56.4219 81.6094 56.1406 81.1406 Q55.6875 80.375 55.1562 80.3906 Q53.8281 80.4375 53.8281 82.7812 L53.8281 88.25 ZM52.75 91.5 L52.75 82.7812 Q52.75 80.3281 54.0781 80 Q54.7656 79.8125 55.25 79.8125 Q56.3438 79.8125 57.0469 80.6719 Q57.6094 81.3594 57.6094 81.9375 Q57.6094 82.7812 57.2031 83.2656 Q56.7969 83.75 56.0625 83.9844 Q57.1406 84.1406 57.75 84.7812 Q58.3281 85.4062 58.3281 86.6328 Q58.3281 87.8594 57.5078 88.5156 Q56.6875 89.1719 55.1406 89.1719 Q54.1875 89.1719 53.8281 89.0312 L53.8281 91.5 L52.75 91.5 Z" style="fill:black; stroke:none;" /></g><g ID="li-1:6,7" style="fill:white; text-rendering:optimizeSpeed; font-family:'Serif'; stroke:white;"><rect height="9" style="stroke:none;" width="8" x="122" y="96" /><path d="M126.1875 102.0312 L126.1875 97.375 L123.2031 102.0312 L126.1875 102.0312 ZM128.7656 105 L124.7812 105 L124.7812 104.375 L126.1875 104.375 L126.1875 102.6562 L122.375 102.6562 L122.375 102.0156 L126.2031 96.0938 L127.3594 96.0938 L127.3594 102.0312 L129.0312 102.0312 L129.0312 102.6562 L127.3594 102.6562 L127.3594 104.375 L128.7656 104.375 L128.7656 105 Z" style="fill:black; stroke:none;" /><rect height="13" style="stroke:none;" width="7" x="108" y="94" /><path d="M109.8281 106.25 Q110.2969 106.5938 111.1719 106.5938 Q112.0625 106.5938 112.5781 106.0703 Q113.0938 105.5469 113.0938 104.6562 Q113.0938 103.4219 112.5625 102.8906 Q112.0156 102.3594 111 102.3594 L110.4375 102.3594 L110.4375 101.7188 L110.7344 101.7188 Q111.4844 101.7188 112 101.2969 Q112.4219 100.9531 112.4219 100.0156 Q112.4219 99.6094 112.1406 99.1406 Q111.6875 98.375 111.1562 98.3906 Q109.8281 98.4375 109.8281 100.7812 L109.8281 106.25 ZM108.75 109.5 L108.75 100.7812 Q108.75 98.3281 110.0781 98 Q110.7656 97.8125 111.25 97.8125 Q112.3438 97.8125 113.0469 98.6719 Q113.6094 99.3594 113.6094 99.9375 Q113.6094 100.7812 113.2031 101.2656 Q112.7969 101.75 112.0625 101.9844 Q113.1406 102.1406 113.75 102.7812 Q114.3281 103.4062 114.3281 104.6328 Q114.3281 105.8594 113.5078 106.5156 Q112.6875 107.1719 111.1406 107.1719 Q110.1875 107.1719 109.8281 107.0312 L109.8281 109.5 L108.75 109.5 Z" style="fill:black; stroke:none;" /></g><g ID="li-1:4,6" style="fill:white; text-rendering:optimizeSpeed; font-family:'Serif'; stroke:white;"><rect height="9" style="stroke:none;" width="7" x="174" y="96" /><path d="M175.5312 98.3438 L174.875 98.3438 L174.875 96.7812 Q175.5 96.4375 176.1406 96.2656 Q176.7812 96.0938 177.3906 96.0938 Q178.75 96.0938 179.5391 96.7578 Q180.3281 97.4219 180.3281 98.5469 Q180.3281 99.8438 178.5469 101.625 Q178.4062 101.7656 178.3281 101.8281 L176.125 104.0312 L179.7656 104.0312 L179.7656 102.9531 L180.4531 102.9531 L180.4531 105 L174.8125 105 L174.8125 104.3594 L177.4688 101.7188 Q178.3438 100.8281 178.7188 100.0938 Q179.0938 99.3594 179.0938 98.5469 Q179.0938 97.6719 178.6328 97.1719 Q178.1719 96.6719 177.375 96.6719 Q176.5312 96.6719 176.0781 97.0859 Q175.625 97.5 175.5312 98.3438 Z" style="fill:black; stroke:none;" /><rect height="13" style="stroke:none;" width="7" x="160" y="94" /><path d="M161.8281 106.25 Q162.2969 106.5938 163.1719 106.5938 Q164.0625 106.5938 164.5781 106.0703 Q165.0938 105.5469 165.0938 104.6562 Q165.0938 103.4219 164.5625 102.8906 Q164.0156 102.3594 163 102.3594 L162.4375 102.3594 L162.4375 101.7188 L162.7344 101.7188 Q163.4844 101.7188 164 101.2969 Q164.4219 100.9531 164.4219 100.0156 Q164.4219 99.6094 164.1406 99.1406 Q163.6875 98.375 163.1562 98.3906 Q161.8281 98.4375 161.8281 100.7812 L161.8281 106.25 ZM160.75 109.5 L160.75 100.7812 Q160.75 98.3281 162.0781 98 Q162.7656 97.8125 163.25 97.8125 Q164.3438 97.8125 165.0469 98.6719 Q165.6094 99.3594 165.6094 99.9375 Q165.6094 100.7812 165.2031 101.2656 Q164.7969 101.75 164.0625 101.9844 Q165.1406 102.1406 165.75 102.7812 Q166.3281 103.4062 166.3281 104.6328 Q166.3281 105.8594 165.5078 106.5156 Q164.6875 107.1719 163.1406 107.1719 Q162.1875 107.1719 161.8281 107.0312 L161.8281 109.5 L160.75 109.5 Z" style="fill:black; stroke:none;" /></g><g ID="l-1:5,10" style="text-rendering:optimizeSpeed;"><polygon points=" 197 41 145 41" style="fill:none;" /></g><g ID="r-1:5" style="fill:white; text-rendering:optimizeSpeed; stroke:white;" wurcs_mono_id="9"><circle cx="197" cy="41" r="11" style="clip-path:url(#clipPath9); stroke:none;" /><rect height="22" style="clip-path:url(#clipPath9); fill:rgb(0,166,81); stroke:none;" width="22" x="186" y="30" /><rect height="22" style="clip-path:url(#clipPath9); fill:none; stroke:black;" width="22" x="186" y="30" /><circle cx="197" cy="41" r="11" style="fill:none; stroke:black;" /></g><g ID="r-1:10" style="fill:white; text-rendering:optimizeSpeed; stroke:white;" wurcs_mono_id="10"><rect height="22" style="clip-path:url(#clipPath10); stroke:none;" width="22" x="134" y="30" /><rect height="22" style="clip-path:url(#clipPath10); fill:rgb(0,144,188); stroke:none;" width="22" x="134" y="30" /><rect height="22" style="clip-path:url(#clipPath10); fill:none; stroke:black;" width="22" x="134" y="30" /><rect height="22" style="fill:none; stroke:black;" width="22" x="134" y="30" /></g><g ID="li-1:5,10" style="fill:white; text-rendering:optimizeSpeed; font-family:'Serif'; stroke:white;"><rect height="9" style="stroke:none;" width="7" x="174" y="44" /><path d="M175.5312 46.3438 L174.875 46.3438 L174.875 44.7812 Q175.5 44.4375 176.1406 44.2656 Q176.7812 44.0938 177.3906 44.0938 Q178.75 44.0938 179.5391 44.7578 Q180.3281 45.4219 180.3281 46.5469 Q180.3281 47.8438 178.5469 49.625 Q178.4062 49.7656 178.3281 49.8281 L176.125 52.0312 L179.7656 52.0312 L179.7656 50.9531 L180.4531 50.9531 L180.4531 53 L174.8125 53 L174.8125 52.3594 L177.4688 49.7188 Q178.3438 48.8281 178.7188 48.0938 Q179.0938 47.3594 179.0938 46.5469 Q179.0938 45.6719 178.6328 45.1719 Q178.1719 44.6719 177.375 44.6719 Q176.5312 44.6719 176.0781 45.0859 Q175.625 45.5 175.5312 46.3438 Z" style="fill:black; stroke:none;" /><rect height="13" style="stroke:none;" width="7" x="160" y="42" /><path d="M161.8281 54.25 Q162.2969 54.5938 163.1719 54.5938 Q164.0625 54.5938 164.5781 54.0703 Q165.0938 53.5469 165.0938 52.6562 Q165.0938 51.4219 164.5625 50.8906 Q164.0156 50.3594 163 50.3594 L162.4375 50.3594 L162.4375 49.7188 L162.7344 49.7188 Q163.4844 49.7188 164 49.2969 Q164.4219 48.9531 164.4219 48.0156 Q164.4219 47.6094 164.1406 47.1406 Q163.6875 46.375 163.1562 46.3906 Q161.8281 46.4375 161.8281 48.7812 L161.8281 54.25 ZM160.75 57.5 L160.75 48.7812 Q160.75 46.3281 162.0781 46 Q162.7656 45.8125 163.25 45.8125 Q164.3438 45.8125 165.0469 46.6719 Q165.6094 47.3594 165.6094 47.9375 Q165.6094 48.7812 165.2031 49.2656 Q164.7969 49.75 164.0625 49.9844 Q165.1406 50.1406 165.75 50.7812 Q166.3281 51.4062 166.3281 52.6328 Q166.3281 53.8594 165.5078 54.5156 Q164.6875 55.1719 163.1406 55.1719 Q162.1875 55.1719 161.8281 55.0312 L161.8281 57.5 L160.75 57.5 Z" style="fill:black; stroke:none;" /></g><g ID="li-1:3,4" style="fill:white; text-rendering:optimizeSpeed; font-family:'Serif'; stroke:white;"><rect height="10" style="stroke:none;" width="7" x="230" y="78" /><path d="M231.1719 79.625 Q231.8594 79.3594 232.4844 79.2266 Q233.1094 79.0938 233.6562 79.0938 Q234.9531 79.0938 235.6719 79.6484 Q236.3906 80.2031 236.3906 81.1875 Q236.3906 81.9688 235.8906 82.5 Q235.3906 83.0312 234.4844 83.2188 Q235.5625 83.375 236.1562 84.0078 Q236.75 84.6406 236.75 85.6406 Q236.75 86.8594 235.9219 87.5156 Q235.0938 88.1719 233.5469 88.1719 Q232.8594 88.1719 232.2109 88.0234 Q231.5625 87.875 230.9219 87.5781 L230.9219 85.875 L231.5781 85.875 Q231.625 86.7188 232.1406 87.1562 Q232.6562 87.5938 233.5781 87.5938 Q234.4688 87.5938 234.9922 87.0703 Q235.5156 86.5469 235.5156 85.6562 Q235.5156 84.625 234.9766 84.0938 Q234.4375 83.5625 233.4062 83.5625 L232.8594 83.5625 L232.8594 82.9531 L233.1406 82.9531 Q234.1719 82.9531 234.6875 82.5312 Q235.2031 82.1094 235.2031 81.25 Q235.2031 80.4844 234.7812 80.0781 Q234.3594 79.6719 233.5625 79.6719 Q232.7656 79.6719 232.3359 80.0469 Q231.9062 80.4219 231.8281 81.1562 L231.1719 81.1562 L231.1719 79.625 Z" style="fill:black; stroke:none;" /><rect height="8" style="stroke:none;" width="8" x="214" y="87" /><path d="M219.1875 93.4688 L218.9531 94.1094 Q218.7656 94.625 218.2031 94.9375 Q217.8438 95.1562 217.2031 95.1406 Q216.0469 95.1406 215.3281 94.2344 Q214.5938 93.3281 214.5938 91.8594 Q214.5938 90.4219 215.3281 89.4844 Q216.0156 88.5938 217.4531 88.6094 Q218.4531 88.6094 218.9531 89 Q219.4062 89.3438 219.5781 90.0938 L219.625 90.3125 L219.8438 89.6719 Q220.0625 89.0469 220.6562 88.75 L221.25 88.75 L221.25 89.0938 Q220.6875 89.2656 220.5 89.8125 L219.8906 91.4844 L220.2969 93.2812 Q220.5 94.2031 220.7344 94.2969 Q221.0469 94.4375 221.7812 94 L221.7812 94.7188 Q220.5938 95.4062 219.75 94.6875 Q219.375 94.3594 219.2656 93.875 L219.1875 93.4688 ZM218.9219 92.3125 L218.5625 90.5938 Q218.2656 89.2188 217.4688 89.2188 Q216.7969 89.2031 216.2812 89.9375 Q215.8594 90.5156 215.8594 91.875 Q215.8594 93.1719 216.2812 93.8281 Q216.75 94.5469 217.5312 94.5 Q218.2031 94.4375 218.6875 93 L218.9219 92.3125 Z" style="fill:black; stroke:none;" /></g><g ID="li-1:3,5" style="fill:white; text-rendering:optimizeSpeed; font-family:'Serif'; stroke:white;"><rect height="10" style="stroke:none;" width="7" x="223" y="60" /><path d="M226.9219 69.5938 Q227.75 69.5938 228.1953 68.9844 Q228.6406 68.375 228.6406 67.2344 Q228.6406 66.1094 228.1953 65.5 Q227.75 64.8906 226.9219 64.8906 Q226.0938 64.8906 225.6484 65.4766 Q225.2031 66.0625 225.2031 67.1719 Q225.2031 68.3281 225.6484 68.9609 Q226.0938 69.5938 226.9219 69.5938 ZM225.0156 65.1875 Q225.4219 64.75 225.9219 64.5312 Q226.4219 64.3125 227.0625 64.3125 Q228.3594 64.3125 229.1172 65.0938 Q229.875 65.875 229.875 67.2344 Q229.875 68.5625 229.0625 69.3672 Q228.25 70.1719 226.875 70.1719 Q225.3906 70.1719 224.5938 69.0625 Q223.7969 67.9531 223.7969 65.9062 Q223.7969 63.6094 224.7422 62.3516 Q225.6875 61.0938 227.4062 61.0938 Q227.875 61.0938 228.3828 61.1797 Q228.8906 61.2656 229.4219 61.4375 L229.4219 62.8906 L228.7656 62.8906 Q228.6875 62.2969 228.3047 61.9844 Q227.9219 61.6719 227.2812 61.6719 Q226.1406 61.6719 225.5859 62.5312 Q225.0312 63.3906 225.0156 65.1875 Z" style="fill:black; stroke:none;" /><rect height="8" style="stroke:none;" width="8" x="207" y="53" /><path d="M212.1875 59.4688 L211.9531 60.1094 Q211.7656 60.625 211.2031 60.9375 Q210.8438 61.1562 210.2031 61.1406 Q209.0469 61.1406 208.3281 60.2344 Q207.5938 59.3281 207.5938 57.8594 Q207.5938 56.4219 208.3281 55.4844 Q209.0156 54.5938 210.4531 54.6094 Q211.4531 54.6094 211.9531 55 Q212.4062 55.3438 212.5781 56.0938 L212.625 56.3125 L212.8438 55.6719 Q213.0625 55.0469 213.6562 54.75 L214.25 54.75 L214.25 55.0938 Q213.6875 55.2656 213.5 55.8125 L212.8906 57.4844 L213.2969 59.2812 Q213.5 60.2031 213.7344 60.2969 Q214.0469 60.4375 214.7812 60 L214.7812 60.7188 Q213.5938 61.4062 212.75 60.6875 Q212.375 60.3594 212.2656 59.875 L212.1875 59.4688 ZM211.9219 58.3125 L211.5625 56.5938 Q211.2656 55.2188 210.4688 55.2188 Q209.7969 55.2031 209.2812 55.9375 Q208.8594 56.5156 208.8594 57.875 Q208.8594 59.1719 209.2812 59.8281 Q209.75 60.5469 210.5312 60.5 Q211.2031 60.4375 211.6875 59 L211.9219 58.3125 Z" style="fill:black; stroke:none;" /></g><g ID="li-1:2,3" style="fill:white; text-rendering:optimizeSpeed; font-family:'Serif'; stroke:white;"><rect height="9" style="stroke:none;" width="8" x="278" y="70" /><path d="M282.1875 76.0312 L282.1875 71.375 L279.2031 76.0312 L282.1875 76.0312 ZM284.7656 79 L280.7812 79 L280.7812 78.375 L282.1875 78.375 L282.1875 76.6562 L278.375 76.6562 L278.375 76.0156 L282.2031 70.0938 L283.3594 70.0938 L283.3594 76.0312 L285.0312 76.0312 L285.0312 76.6562 L283.3594 76.6562 L283.3594 78.375 L284.7656 78.375 L284.7656 79 Z" style="fill:black; stroke:none;" /><rect height="13" style="stroke:none;" width="7" x="264" y="68" /><path d="M265.8281 80.25 Q266.2969 80.5938 267.1719 80.5938 Q268.0625 80.5938 268.5781 80.0703 Q269.0938 79.5469 269.0938 78.6562 Q269.0938 77.4219 268.5625 76.8906 Q268.0156 76.3594 267 76.3594 L266.4375 76.3594 L266.4375 75.7188 L266.7344 75.7188 Q267.4844 75.7188 268 75.2969 Q268.4219 74.9531 268.4219 74.0156 Q268.4219 73.6094 268.1406 73.1406 Q267.6875 72.375 267.1562 72.3906 Q265.8281 72.4375 265.8281 74.7812 L265.8281 80.25 ZM264.75 83.5 L264.75 74.7812 Q264.75 72.3281 266.0781 72 Q266.7656 71.8125 267.25 71.8125 Q268.3438 71.8125 269.0469 72.6719 Q269.6094 73.3594 269.6094 73.9375 Q269.6094 74.7812 269.2031 75.2656 Q268.7969 75.75 268.0625 75.9844 Q269.1406 76.1406 269.75 76.7812 Q270.3281 77.4062 270.3281 78.6328 Q270.3281 79.8594 269.5078 80.5156 Q268.6875 81.1719 267.1406 81.1719 Q266.1875 81.1719 265.8281 81.0312 L265.8281 83.5 L264.75 83.5 Z" style="fill:black; stroke:none;" /></g><g ID="li-1:1,2" style="fill:white; text-rendering:optimizeSpeed; font-family:'Serif'; stroke:white;"><rect height="9" style="stroke:none;" width="8" x="330" y="70" /><path d="M334.1875 76.0312 L334.1875 71.375 L331.2031 76.0312 L334.1875 76.0312 ZM336.7656 79 L332.7812 79 L332.7812 78.375 L334.1875 78.375 L334.1875 76.6562 L330.375 76.6562 L330.375 76.0156 L334.2031 70.0938 L335.3594 70.0938 L335.3594 76.0312 L337.0312 76.0312 L337.0312 76.6562 L335.3594 76.6562 L335.3594 78.375 L336.7656 78.375 L336.7656 79 Z" style="fill:black; stroke:none;" /><rect height="13" style="stroke:none;" width="7" x="316" y="68" /><path d="M317.8281 80.25 Q318.2969 80.5938 319.1719 80.5938 Q320.0625 80.5938 320.5781 80.0703 Q321.0938 79.5469 321.0938 78.6562 Q321.0938 77.4219 320.5625 76.8906 Q320.0156 76.3594 319 76.3594 L318.4375 76.3594 L318.4375 75.7188 L318.7344 75.7188 Q319.4844 75.7188 320 75.2969 Q320.4219 74.9531 320.4219 74.0156 Q320.4219 73.6094 320.1406 73.1406 Q319.6875 72.375 319.1562 72.3906 Q317.8281 72.4375 317.8281 74.7812 L317.8281 80.25 ZM316.75 83.5 L316.75 74.7812 Q316.75 72.3281 318.0781 72 Q318.7656 71.8125 319.25 71.8125 Q320.3438 71.8125 321.0469 72.6719 Q321.6094 73.3594 321.6094 73.9375 Q321.6094 74.7812 321.2031 75.2656 Q320.7969 75.75 320.0625 75.9844 Q321.1406 76.1406 321.75 76.7812 Q322.3281 77.4062 322.3281 78.6328 Q322.3281 79.8594 321.5078 80.5156 Q320.6875 81.1719 319.1406 81.1719 Q318.1875 81.1719 317.8281 81.0312 L317.8281 83.5 L316.75 83.5 Z" style="fill:black; stroke:none;" /></g></g></svg>