<svg xmlns="http://www.w3.org/2000/svg" style="fill-opacity:1; color-rendering:auto; color-interpolation:auto; text-rendering:auto; stroke:black; stroke-linecap:square; stroke-miterlimit:10; shape-rendering:auto; stroke-opacity:1; fill:black; stroke-dasharray:none; font-weight:normal; stroke-width:1; font-family:'Dialog'; font-style:normal; stroke-linejoin:miter; font-size:12px; stroke-dashoffset:0; image-rendering:auto;"><defs id="genericDefs" /><g><defs id="defs1"><clipPath clipPathUnits="userSpaceOnUse" id="clipPath1"><path d="M186 82 L208 82 L208 104 L186 104 L186 82 Z" /></clipPath><clipPath clipPathUnits="userSpaceOnUse" id="clipPath2"><path d="M156 145 C156 151.0751 151.0751 156 145 156 C138.9249 156 134 151.0751 134 145 C134 138.9249 138.9249 134 145 134 C151.0751 134 156 138.9249 156 145 Z" /></clipPath><clipPath clipPathUnits="userSpaceOnUse" id="clipPath3"><path d="M82 134 L104 134 L104 156 L82 156 L82 134 Z" /></clipPath><clipPath clipPathUnits="userSpaceOnUse" id="clipPath4"><path d="M52 145 C52 151.0751 47.0751 156 41 156 C34.9249 156 30 151.0751 30 145 C30 138.9249 34.9249 134 41 134 C47.0751 134 52 138.9249 52 145 Z" /></clipPath><clipPath clipPathUnits="userSpaceOnUse" id="clipPath5"><path d="M41 186 L52 208 L30 208 Z" style="fill-rule:evenodd;" /></clipPath><clipPath clipPathUnits="userSpaceOnUse" id="clipPath6"><path d="M134 30 L156 30 L156 52 L134 52 L134 30 Z" /></clipPath><clipPath clipPathUnits="userSpaceOnUse" id="clipPath7"><path d="M104 41 C104 47.0751 99.0751 52 93 52 C86.9249 52 82 47.0751 82 41 C82 34.9249 86.9249 30 93 30 C99.0751 30 104 34.9249 104 41 Z" /></clipPath><clipPath clipPathUnits="userSpaceOnUse" id="clipPath8"><path d="M93 82 L104 104 L82 104 Z" style="fill-rule:evenodd;" /></clipPath></defs><g style="fill:white; text-rendering:optimizeSpeed; stroke:white;"><rect height="238" style="stroke:none;" width="238" x="0" y="0" /></g><g ID="l-1:1,2" style="text-rendering:optimizeSpeed;"><polygon points=" 197 93 145 145" style="fill:none;" /></g><g ID="l-1:1,3" style="text-rendering:optimizeSpeed;"><polygon points=" 197 93 145 41" style="fill:none;" /></g><g ID="r-1:1" style="fill:white; text-rendering:optimizeSpeed; stroke:white;" wurcs_mono_id="1"><rect height="22" style="clip-path:url(#clipPath1); stroke:none;" width="22" x="186" y="82" /><rect height="22" style="clip-path:url(#clipPath1); fill:rgb(255,212,0); stroke:none;" width="22" x="186" y="82" /><rect height="22" style="clip-path:url(#clipPath1); fill:none; stroke:black;" width="22" x="186" y="82" /><rect height="22" style="fill:none; stroke:black;" width="22" x="186" y="82" /></g><g ID="l-1:2,4" style="text-rendering:optimizeSpeed;"><polygon points=" 145 145 93 145" style="fill:none;" /></g><g ID="r-1:2" style="fill:white; text-rendering:optimizeSpeed; stroke:white;" wurcs_mono_id="2"><circle cx="145" cy="145" r="11" style="clip-path:url(#clipPath2); stroke:none;" /><rect height="22" style="clip-path:url(#clipPath2); fill:rgb(255,212,0); stroke:none;" width="22" x="134" y="134" /><rect height="22" style="clip-path:url(#clipPath2); fill:none; stroke:black;" width="22" x="134" y="134" /><circle cx="145" cy="145" r="11" style="fill:none; stroke:black;" /></g><g ID="l-1:4,5" style="text-rendering:optimizeSpeed;"><polygon points=" 93 145 41 145" style="fill:none;" /></g><g ID="r-1:4" style="fill:white; text-rendering:optimizeSpeed; stroke:white;" wurcs_mono_id="3"><rect height="22" style="clip-path:url(#clipPath3); stroke:none;" width="22" x="82" y="134" /><rect height="22" style="clip-path:url(#clipPath3); fill:rgb(0,144,188); stroke:none;" width="22" x="82" y="134" /><rect height="22" style="clip-path:url(#clipPath3); fill:none; stroke:black;" width="22" x="82" y="134" /><rect height="22" style="fill:none; stroke:black;" width="22" x="82" y="134" /></g><g ID="l-1:5,6" style="text-rendering:optimizeSpeed;"><polygon points=" 41 145 41 197" style="fill:none;" /></g><g ID="r-1:5" style="fill:white; text-rendering:optimizeSpeed; stroke:white;" wurcs_mono_id="4"><circle cx="41" cy="145" r="11" style="clip-path:url(#clipPath4); stroke:none;" /><rect height="22" style="clip-path:url(#clipPath4); fill:rgb(255,212,0); stroke:none;" width="22" x="30" y="134" /><rect height="22" style="clip-path:url(#clipPath4); fill:none; stroke:black;" width="22" x="30" y="134" /><circle cx="41" cy="145" r="11" style="fill:none; stroke:black;" /></g><g ID="r-1:6" style="fill:white; text-rendering:optimizeSpeed; stroke:white;" wurcs_mono_id="5"><polygon points=" 41 186 52 208 30 208" style="stroke:none; clip-path:url(#clipPath5);" /><rect height="22" style="clip-path:url(#clipPath5); fill:rgb(237,28,36); stroke:none;" width="22" x="30" y="186" /><rect height="22" style="clip-path:url(#clipPath5); fill:none; stroke:black;" width="22" x="30" y="186" /><polygon points=" 41 186 52 208 30 208" style="fill:none; stroke:black;" /></g><g ID="li-1:5,6" style="fill:white; text-rendering:optimizeSpeed; font-family:'Serif'; stroke:white;"><rect height="9" style="stroke:none;" width="7" x="45" y="159" /><path d="M46.5312 161.3438 L45.875 161.3438 L45.875 159.7812 Q46.5 159.4375 47.1406 159.2656 Q47.7812 159.0938 48.3906 159.0938 Q49.75 159.0938 50.5391 159.7578 Q51.3281 160.4219 51.3281 161.5469 Q51.3281 162.8438 49.5469 164.625 Q49.4062 164.7656 49.3281 164.8281 L47.125 167.0312 L50.7656 167.0312 L50.7656 165.9531 L51.4531 165.9531 L51.4531 168 L45.8125 168 L45.8125 167.3594 L48.4688 164.7188 Q49.3438 163.8281 49.7188 163.0938 Q50.0938 162.3594 50.0938 161.5469 Q50.0938 160.6719 49.6328 160.1719 Q49.1719 159.6719 48.375 159.6719 Q47.5312 159.6719 47.0781 160.0859 Q46.625 160.5 46.5312 161.3438 Z" style="fill:black; stroke:none;" /><rect height="8" style="stroke:none;" width="8" x="45" y="174" /><path d="M50.1875 180.4688 L49.9531 181.1094 Q49.7656 181.625 49.2031 181.9375 Q48.8438 182.1562 48.2031 182.1406 Q47.0469 182.1406 46.3281 181.2344 Q45.5938 180.3281 45.5938 178.8594 Q45.5938 177.4219 46.3281 176.4844 Q47.0156 175.5938 48.4531 175.6094 Q49.4531 175.6094 49.9531 176 Q50.4062 176.3438 50.5781 177.0938 L50.625 177.3125 L50.8438 176.6719 Q51.0625 176.0469 51.6562 175.75 L52.25 175.75 L52.25 176.0938 Q51.6875 176.2656 51.5 176.8125 L50.8906 178.4844 L51.2969 180.2812 Q51.5 181.2031 51.7344 181.2969 Q52.0469 181.4375 52.7812 181 L52.7812 181.7188 Q51.5938 182.4062 50.75 181.6875 Q50.375 181.3594 50.2656 180.875 L50.1875 180.4688 ZM49.9219 179.3125 L49.5625 177.5938 Q49.2656 176.2188 48.4688 176.2188 Q47.7969 176.2031 47.2812 176.9375 Q46.8594 177.5156 46.8594 178.875 Q46.8594 180.1719 47.2812 180.8281 Q47.75 181.5469 48.5312 181.5 Q49.2031 181.4375 49.6875 180 L49.9219 179.3125 Z" style="fill:black; stroke:none;" /></g><g ID="li-1:4,5" style="fill:white; text-rendering:optimizeSpeed; font-family:'Serif'; stroke:white;"><rect height="9" style="stroke:none;" width="8" x="70" y="148" /><path d="M74.1875 154.0312 L74.1875 149.375 L71.2031 154.0312 L74.1875 154.0312 ZM76.7656 157 L72.7812 157 L72.7812 156.375 L74.1875 156.375 L74.1875 154.6562 L70.375 154.6562 L70.375 154.0156 L74.2031 148.0938 L75.3594 148.0938 L75.3594 154.0312 L77.0312 154.0312 L77.0312 154.6562 L75.3594 154.6562 L75.3594 156.375 L76.7656 156.375 L76.7656 157 Z" style="fill:black; stroke:none;" /><rect height="13" style="stroke:none;" width="7" x="56" y="146" /><path d="M57.8281 158.25 Q58.2969 158.5938 59.1719 158.5938 Q60.0625 158.5938 60.5781 158.0703 Q61.0938 157.5469 61.0938 156.6562 Q61.0938 155.4219 60.5625 154.8906 Q60.0156 154.3594 59 154.3594 L58.4375 154.3594 L58.4375 153.7188 L58.7344 153.7188 Q59.4844 153.7188 60 153.2969 Q60.4219 152.9531 60.4219 152.0156 Q60.4219 151.6094 60.1406 151.1406 Q59.6875 150.375 59.1562 150.3906 Q57.8281 150.4375 57.8281 152.7812 L57.8281 158.25 ZM56.75 161.5 L56.75 152.7812 Q56.75 150.3281 58.0781 150 Q58.7656 149.8125 59.25 149.8125 Q60.3438 149.8125 61.0469 150.6719 Q61.6094 151.3594 61.6094 151.9375 Q61.6094 152.7812 61.2031 153.2656 Q60.7969 153.75 60.0625 153.9844 Q61.1406 154.1406 61.75 154.7812 Q62.3281 155.4062 62.3281 156.6328 Q62.3281 157.8594 61.5078 158.5156 Q60.6875 159.1719 59.1406 159.1719 Q58.1875 159.1719 57.8281 159.0312 L57.8281 161.5 L56.75 161.5 Z" style="fill:black; stroke:none;" /></g><g ID="li-1:2,4" style="fill:white; text-rendering:optimizeSpeed; font-family:'Serif'; stroke:white;"><rect height="11" style="stroke:none;" width="19" x="116" y="147" /><path d="M117.1719 149.625 Q117.8594 149.3594 118.4844 149.2266 Q119.1094 149.0938 119.6562 149.0938 Q120.9531 149.0938 121.6719 149.6484 Q122.3906 150.2031 122.3906 151.1875 Q122.3906 151.9688 121.8906 152.5 Q121.3906 153.0312 120.4844 153.2188 Q121.5625 153.375 122.1562 154.0078 Q122.75 154.6406 122.75 155.6406 Q122.75 156.8594 121.9219 157.5156 Q121.0938 158.1719 119.5469 158.1719 Q118.8594 158.1719 118.2109 158.0234 Q117.5625 157.875 116.9219 157.5781 L116.9219 155.875 L117.5781 155.875 Q117.625 156.7188 118.1406 157.1562 Q118.6562 157.5938 119.5781 157.5938 Q120.4688 157.5938 120.9922 157.0703 Q121.5156 156.5469 121.5156 155.6562 Q121.5156 154.625 120.9766 154.0938 Q120.4375 153.5625 119.4062 153.5625 L118.8594 153.5625 L118.8594 152.9531 L119.1406 152.9531 Q120.1719 152.9531 120.6875 152.5312 Q121.2031 152.1094 121.2031 151.25 Q121.2031 150.4844 120.7812 150.0781 Q120.3594 149.6719 119.5625 149.6719 Q118.7656 149.6719 118.3359 150.0469 Q117.9062 150.4219 117.8281 151.1562 L117.1719 151.1562 L117.1719 149.625 ZM126.7441 149.25 L127.6816 149.25 L124.5723 159.1094 L123.6348 159.1094 L126.7441 149.25 ZM131.5996 157.5938 Q132.4277 157.5938 132.873 156.9844 Q133.3184 156.375 133.3184 155.2344 Q133.3184 154.1094 132.873 153.5 Q132.4277 152.8906 131.5996 152.8906 Q130.7715 152.8906 130.3262 153.4766 Q129.8809 154.0625 129.8809 155.1719 Q129.8809 156.3281 130.3262 156.9609 Q130.7715 157.5938 131.5996 157.5938 ZM129.6934 153.1875 Q130.0996 152.75 130.5996 152.5312 Q131.0996 152.3125 131.7402 152.3125 Q133.0371 152.3125 133.7949 153.0938 Q134.5527 153.875 134.5527 155.2344 Q134.5527 156.5625 133.7402 157.3672 Q132.9277 158.1719 131.5527 158.1719 Q130.0684 158.1719 129.2715 157.0625 Q128.4746 155.9531 128.4746 153.9062 Q128.4746 151.6094 129.4199 150.3516 Q130.3652 149.0938 132.084 149.0938 Q132.5527 149.0938 133.0605 149.1797 Q133.5684 149.2656 134.0996 149.4375 L134.0996 150.8906 L133.4434 150.8906 Q133.3652 150.2969 132.9824 149.9844 Q132.5996 149.6719 131.959 149.6719 Q130.8184 149.6719 130.2637 150.5312 Q129.709 151.3906 129.6934 153.1875 Z" style="fill:black; stroke:none;" /><rect height="13" style="stroke:none;" width="7" x="108" y="146" /><path d="M109.8281 158.25 Q110.2969 158.5938 111.1719 158.5938 Q112.0625 158.5938 112.5781 158.0703 Q113.0938 157.5469 113.0938 156.6562 Q113.0938 155.4219 112.5625 154.8906 Q112.0156 154.3594 111 154.3594 L110.4375 154.3594 L110.4375 153.7188 L110.7344 153.7188 Q111.4844 153.7188 112 153.2969 Q112.4219 152.9531 112.4219 152.0156 Q112.4219 151.6094 112.1406 151.1406 Q111.6875 150.375 111.1562 150.3906 Q109.8281 150.4375 109.8281 152.7812 L109.8281 158.25 ZM108.75 161.5 L108.75 152.7812 Q108.75 150.3281 110.0781 150 Q110.7656 149.8125 111.25 149.8125 Q112.3438 149.8125 113.0469 150.6719 Q113.6094 151.3594 113.6094 151.9375 Q113.6094 152.7812 113.2031 153.2656 Q112.7969 153.75 112.0625 153.9844 Q113.1406 154.1406 113.75 154.7812 Q114.3281 155.4062 114.3281 156.6328 Q114.3281 157.8594 113.5078 158.5156 Q112.6875 159.1719 111.1406 159.1719 Q110.1875 159.1719 109.8281 159.0312 L109.8281 161.5 L108.75 161.5 Z" style="fill:black; stroke:none;" /></g><g ID="l-1:3,7" style="text-rendering:optimizeSpeed;"><polygon points=" 145 41 93 41" style="fill:none;" /></g><g ID="r-1:3" style="fill:white; text-rendering:optimizeSpeed; stroke:white;" wurcs_mono_id="6"><rect height="22" style="clip-path:url(#clipPath6); stroke:none;" width="22" x="134" y="30" /><rect height="22" style="clip-path:url(#clipPath6); fill:rgb(0,144,188); stroke:none;" width="22" x="134" y="30" /><rect height="22" style="clip-path:url(#clipPath6); fill:none; stroke:black;" width="22" x="134" y="30" /><rect height="22" style="fill:none; stroke:black;" width="22" x="134" y="30" /></g><g ID="l-1:7,8" style="text-rendering:optimizeSpeed;"><polygon points=" 93 41 93 93" style="fill:none;" /></g><g ID="r-1:7" style="fill:white; text-rendering:optimizeSpeed; stroke:white;" wurcs_mono_id="7"><circle cx="93" cy="41" r="11" style="clip-path:url(#clipPath7); stroke:none;" /><rect height="22" style="clip-path:url(#clipPath7); fill:rgb(255,212,0); stroke:none;" width="22" x="82" y="30" /><rect height="22" style="clip-path:url(#clipPath7); fill:none; stroke:black;" width="22" x="82" y="30" /><circle cx="93" cy="41" r="11" style="fill:none; stroke:black;" /></g><g ID="r-1:8" style="fill:white; text-rendering:optimizeSpeed; stroke:white;" wurcs_mono_id="8"><polygon points=" 93 82 104 104 82 104" style="stroke:none; clip-path:url(#clipPath8);" /><rect height="22" style="clip-path:url(#clipPath8); fill:rgb(237,28,36); stroke:none;" width="22" x="82" y="82" /><rect height="22" style="clip-path:url(#clipPath8); fill:none; stroke:black;" width="22" x="82" y="82" /><polygon points=" 93 82 104 104 82 104" style="fill:none; stroke:black;" /></g><g ID="li-1:7,8" style="fill:white; text-rendering:optimizeSpeed; font-family:'Serif'; stroke:white;"><rect height="9" style="stroke:none;" width="7" x="97" y="55" /><path d="M98.5312 57.3438 L97.875 57.3438 L97.875 55.7812 Q98.5 55.4375 99.1406 55.2656 Q99.7812 55.0938 100.3906 55.0938 Q101.75 55.0938 102.5391 55.7578 Q103.3281 56.4219 103.3281 57.5469 Q103.3281 58.8438 101.5469 60.625 Q101.4062 60.7656 101.3281 60.8281 L99.125 63.0312 L102.7656 63.0312 L102.7656 61.9531 L103.4531 61.9531 L103.4531 64 L97.8125 64 L97.8125 63.3594 L100.4688 60.7188 Q101.3438 59.8281 101.7188 59.0938 Q102.0938 58.3594 102.0938 57.5469 Q102.0938 56.6719 101.6328 56.1719 Q101.1719 55.6719 100.375 55.6719 Q99.5312 55.6719 99.0781 56.0859 Q98.625 56.5 98.5312 57.3438 Z" style="fill:black; stroke:none;" /><rect height="8" style="stroke:none;" width="8" x="97" y="70" /><path d="M102.1875 76.4688 L101.9531 77.1094 Q101.7656 77.625 101.2031 77.9375 Q100.8438 78.1562 100.2031 78.1406 Q99.0469 78.1406 98.3281 77.2344 Q97.5938 76.3281 97.5938 74.8594 Q97.5938 73.4219 98.3281 72.4844 Q99.0156 71.5938 100.4531 71.6094 Q101.4531 71.6094 101.9531 72 Q102.4062 72.3438 102.5781 73.0938 L102.625 73.3125 L102.8438 72.6719 Q103.0625 72.0469 103.6562 71.75 L104.25 71.75 L104.25 72.0938 Q103.6875 72.2656 103.5 72.8125 L102.8906 74.4844 L103.2969 76.2812 Q103.5 77.2031 103.7344 77.2969 Q104.0469 77.4375 104.7812 77 L104.7812 77.7188 Q103.5938 78.4062 102.75 77.6875 Q102.375 77.3594 102.2656 76.875 L102.1875 76.4688 ZM101.9219 75.3125 L101.5625 73.5938 Q101.2656 72.2188 100.4688 72.2188 Q99.7969 72.2031 99.2812 72.9375 Q98.8594 73.5156 98.8594 74.875 Q98.8594 76.1719 99.2812 76.8281 Q99.75 77.5469 100.5312 77.5 Q101.2031 77.4375 101.6875 76 L101.9219 75.3125 Z" style="fill:black; stroke:none;" /></g><g ID="li-1:3,7" style="fill:white; text-rendering:optimizeSpeed; font-family:'Serif'; stroke:white;"><rect height="9" style="stroke:none;" width="8" x="122" y="44" /><path d="M126.1875 50.0312 L126.1875 45.375 L123.2031 50.0312 L126.1875 50.0312 ZM128.7656 53 L124.7812 53 L124.7812 52.375 L126.1875 52.375 L126.1875 50.6562 L122.375 50.6562 L122.375 50.0156 L126.2031 44.0938 L127.3594 44.0938 L127.3594 50.0312 L129.0312 50.0312 L129.0312 50.6562 L127.3594 50.6562 L127.3594 52.375 L128.7656 52.375 L128.7656 53 Z" style="fill:black; stroke:none;" /><rect height="13" style="stroke:none;" width="7" x="108" y="42" /><path d="M109.8281 54.25 Q110.2969 54.5938 111.1719 54.5938 Q112.0625 54.5938 112.5781 54.0703 Q113.0938 53.5469 113.0938 52.6562 Q113.0938 51.4219 112.5625 50.8906 Q112.0156 50.3594 111 50.3594 L110.4375 50.3594 L110.4375 49.7188 L110.7344 49.7188 Q111.4844 49.7188 112 49.2969 Q112.4219 48.9531 112.4219 48.0156 Q112.4219 47.6094 112.1406 47.1406 Q111.6875 46.375 111.1562 46.3906 Q109.8281 46.4375 109.8281 48.7812 L109.8281 54.25 ZM108.75 57.5 L108.75 48.7812 Q108.75 46.3281 110.0781 46 Q110.7656 45.8125 111.25 45.8125 Q112.3438 45.8125 113.0469 46.6719 Q113.6094 47.3594 113.6094 47.9375 Q113.6094 48.7812 113.2031 49.2656 Q112.7969 49.75 112.0625 49.9844 Q113.1406 50.1406 113.75 50.7812 Q114.3281 51.4062 114.3281 52.6328 Q114.3281 53.8594 113.5078 54.5156 Q112.6875 55.1719 111.1406 55.1719 Q110.1875 55.1719 109.8281 55.0312 L109.8281 57.5 L108.75 57.5 Z" style="fill:black; stroke:none;" /></g><g ID="li-1:1,2" style="fill:white; text-rendering:optimizeSpeed; font-family:'Serif'; stroke:white;"><rect height="10" style="stroke:none;" width="7" x="182" y="110" /><path d="M183.1719 111.625 Q183.8594 111.3594 184.4844 111.2266 Q185.1094 111.0938 185.6562 111.0938 Q186.9531 111.0938 187.6719 111.6484 Q188.3906 112.2031 188.3906 113.1875 Q188.3906 113.9688 187.8906 114.5 Q187.3906 115.0312 186.4844 115.2188 Q187.5625 115.375 188.1562 116.0078 Q188.75 116.6406 188.75 117.6406 Q188.75 118.8594 187.9219 119.5156 Q187.0938 120.1719 185.5469 120.1719 Q184.8594 120.1719 184.2109 120.0234 Q183.5625 119.875 182.9219 119.5781 L182.9219 117.875 L183.5781 117.875 Q183.625 118.7188 184.1406 119.1562 Q184.6562 119.5938 185.5781 119.5938 Q186.4688 119.5938 186.9922 119.0703 Q187.5156 118.5469 187.5156 117.6562 Q187.5156 116.625 186.9766 116.0938 Q186.4375 115.5625 185.4062 115.5625 L184.8594 115.5625 L184.8594 114.9531 L185.1406 114.9531 Q186.1719 114.9531 186.6875 114.5312 Q187.2031 114.1094 187.2031 113.25 Q187.2031 112.4844 186.7812 112.0781 Q186.3594 111.6719 185.5625 111.6719 Q184.7656 111.6719 184.3359 112.0469 Q183.9062 112.4219 183.8281 113.1562 L183.1719 113.1562 L183.1719 111.625 Z" style="fill:black; stroke:none;" /><rect height="13" style="stroke:none;" width="7" x="163" y="127" /><path d="M164.8281 139.25 Q165.2969 139.5938 166.1719 139.5938 Q167.0625 139.5938 167.5781 139.0703 Q168.0938 138.5469 168.0938 137.6562 Q168.0938 136.4219 167.5625 135.8906 Q167.0156 135.3594 166 135.3594 L165.4375 135.3594 L165.4375 134.7188 L165.7344 134.7188 Q166.4844 134.7188 167 134.2969 Q167.4219 133.9531 167.4219 133.0156 Q167.4219 132.6094 167.1406 132.1406 Q166.6875 131.375 166.1562 131.3906 Q164.8281 131.4375 164.8281 133.7812 L164.8281 139.25 ZM163.75 142.5 L163.75 133.7812 Q163.75 131.3281 165.0781 131 Q165.7656 130.8125 166.25 130.8125 Q167.3438 130.8125 168.0469 131.6719 Q168.6094 132.3594 168.6094 132.9375 Q168.6094 133.7812 168.2031 134.2656 Q167.7969 134.75 167.0625 134.9844 Q168.1406 135.1406 168.75 135.7812 Q169.3281 136.4062 169.3281 137.6328 Q169.3281 138.8594 168.5078 139.5156 Q167.6875 140.1719 166.1406 140.1719 Q165.1875 140.1719 164.8281 140.0312 L164.8281 142.5 L163.75 142.5 Z" style="fill:black; stroke:none;" /></g><g ID="li-1:1,3" style="fill:white; text-rendering:optimizeSpeed; font-family:'Serif'; stroke:white;"><rect height="10" style="stroke:none;" width="7" x="171" y="77" /><path d="M174.9219 86.5938 Q175.75 86.5938 176.1953 85.9844 Q176.6406 85.375 176.6406 84.2344 Q176.6406 83.1094 176.1953 82.5 Q175.75 81.8906 174.9219 81.8906 Q174.0938 81.8906 173.6484 82.4766 Q173.2031 83.0625 173.2031 84.1719 Q173.2031 85.3281 173.6484 85.9609 Q174.0938 86.5938 174.9219 86.5938 ZM173.0156 82.1875 Q173.4219 81.75 173.9219 81.5312 Q174.4219 81.3125 175.0625 81.3125 Q176.3594 81.3125 177.1172 82.0938 Q177.875 82.875 177.875 84.2344 Q177.875 85.5625 177.0625 86.3672 Q176.25 87.1719 174.875 87.1719 Q173.3906 87.1719 172.5938 86.0625 Q171.7969 84.9531 171.7969 82.9062 Q171.7969 80.6094 172.7422 79.3516 Q173.6875 78.0938 175.4062 78.0938 Q175.875 78.0938 176.3828 78.1797 Q176.8906 78.2656 177.4219 78.4375 L177.4219 79.8906 L176.7656 79.8906 Q176.6875 79.2969 176.3047 78.9844 Q175.9219 78.6719 175.2812 78.6719 Q174.1406 78.6719 173.5859 79.5312 Q173.0312 80.3906 173.0156 82.1875 Z" style="fill:black; stroke:none;" /><rect height="13" style="stroke:none;" width="7" x="152" y="56" /><path d="M153.8281 68.25 Q154.2969 68.5938 155.1719 68.5938 Q156.0625 68.5938 156.5781 68.0703 Q157.0938 67.5469 157.0938 66.6562 Q157.0938 65.4219 156.5625 64.8906 Q156.0156 64.3594 155 64.3594 L154.4375 64.3594 L154.4375 63.7188 L154.7344 63.7188 Q155.4844 63.7188 156 63.2969 Q156.4219 62.9531 156.4219 62.0156 Q156.4219 61.6094 156.1406 61.1406 Q155.6875 60.375 155.1562 60.3906 Q153.8281 60.4375 153.8281 62.7812 L153.8281 68.25 ZM152.75 71.5 L152.75 62.7812 Q152.75 60.3281 154.0781 60 Q154.7656 59.8125 155.25 59.8125 Q156.3438 59.8125 157.0469 60.6719 Q157.6094 61.3594 157.6094 61.9375 Q157.6094 62.7812 157.2031 63.2656 Q156.7969 63.75 156.0625 63.9844 Q157.1406 64.1406 157.75 64.7812 Q158.3281 65.4062 158.3281 66.6328 Q158.3281 67.8594 157.5078 68.5156 Q156.6875 69.1719 155.1406 69.1719 Q154.1875 69.1719 153.8281 69.0312 L153.8281 71.5 L152.75 71.5 Z" style="fill:black; stroke:none;" /></g></g></svg>