<svg xmlns="http://www.w3.org/2000/svg" style="fill-opacity:1; color-rendering:auto; color-interpolation:auto; text-rendering:auto; stroke:black; stroke-linecap:square; stroke-miterlimit:10; shape-rendering:auto; stroke-opacity:1; fill:black; stroke-dasharray:none; font-weight:normal; stroke-width:1; font-family:'Dialog'; font-style:normal; stroke-linejoin:miter; font-size:12px; stroke-dashoffset:0; image-rendering:auto;"><defs id="genericDefs" /><g><defs id="defs1"><clipPath clipPathUnits="userSpaceOnUse" id="clipPath1"><path d="M186 95 L208 95 L208 117 L186 117 L186 95 Z" /></clipPath><clipPath clipPathUnits="userSpaceOnUse" id="clipPath2"><path d="M156 145 C156 151.0751 151.0751 156 145 156 C138.9249 156 134 151.0751 134 145 C134 138.9249 138.9249 134 145 134 C151.0751 134 156 138.9249 156 145 Z" /></clipPath><clipPath clipPathUnits="userSpaceOnUse" id="clipPath3"><path d="M93 134 L104 145 L93 156 L82 145 Z" style="fill-rule:evenodd;" /></clipPath><clipPath clipPathUnits="userSpaceOnUse" id="clipPath4"><path d="M134 56 L156 56 L156 78 L134 78 L134 56 Z" /></clipPath><clipPath clipPathUnits="userSpaceOnUse" id="clipPath5"><path d="M82 82 L104 82 L104 104 L82 104 L82 82 Z" /></clipPath><clipPath clipPathUnits="userSpaceOnUse" id="clipPath6"><path d="M52 93 C52 99.0751 47.0751 104 41 104 C34.9249 104 30 99.0751 30 93 C30 86.9249 34.9249 82 41 82 C47.0751 82 52 86.9249 52 93 Z" /></clipPath><clipPath clipPathUnits="userSpaceOnUse" id="clipPath7"><path d="M82 30 L104 30 L104 52 L82 52 L82 30 Z" /></clipPath><clipPath clipPathUnits="userSpaceOnUse" id="clipPath8"><path d="M52 41 C52 47.0751 47.0751 52 41 52 C34.9249 52 30 47.0751 30 41 C30 34.9249 34.9249 30 41 30 C47.0751 30 52 34.9249 52 41 Z" /></clipPath></defs><g style="fill:white; text-rendering:optimizeSpeed; stroke:white;"><rect height="186" style="stroke:none;" width="238" x="0" y="0" /></g><g ID="l-1:1,2" style="text-rendering:optimizeSpeed;"><polygon points=" 197 106 145 145" style="fill:none;" /></g><g ID="l-1:1,3" style="text-rendering:optimizeSpeed;"><polygon points=" 197 106 145 67" style="fill:none;" /></g><g ID="r-1:1" style="fill:white; text-rendering:optimizeSpeed; stroke:white;" wurcs_mono_id="1"><rect height="22" style="clip-path:url(#clipPath1); stroke:none;" width="22" x="186" y="95" /><rect height="22" style="clip-path:url(#clipPath1); fill:rgb(255,212,0); stroke:none;" width="22" x="186" y="95" /><rect height="22" style="clip-path:url(#clipPath1); fill:none; stroke:black;" width="22" x="186" y="95" /><rect height="22" style="fill:none; stroke:black;" width="22" x="186" y="95" /></g><g ID="l-1:2,4" style="text-rendering:optimizeSpeed;"><polygon points=" 145 145 93 145" style="fill:none;" /></g><g ID="r-1:2" style="fill:white; text-rendering:optimizeSpeed; stroke:white;" wurcs_mono_id="2"><circle cx="145" cy="145" r="11" style="clip-path:url(#clipPath2); stroke:none;" /><rect height="22" style="clip-path:url(#clipPath2); fill:rgb(255,212,0); stroke:none;" width="22" x="134" y="134" /><rect height="22" style="clip-path:url(#clipPath2); fill:none; stroke:black;" width="22" x="134" y="134" /><circle cx="145" cy="145" r="11" style="fill:none; stroke:black;" /></g><g ID="r-1:4" style="fill:white; text-rendering:optimizeSpeed; stroke:white;" wurcs_mono_id="3"><polygon points=" 93 134 104 145 93 156 82 145" style="stroke:none; clip-path:url(#clipPath3);" /><rect height="22" style="clip-path:url(#clipPath3); fill:rgb(165,67,153); stroke:none;" width="22" x="82" y="134" /><rect height="22" style="clip-path:url(#clipPath3); fill:none; stroke:black;" width="22" x="82" y="134" /><polygon points=" 93 134 104 145 93 156 82 145" style="fill:none; stroke:black;" /></g><g ID="li-1:2,4" style="fill:white; text-rendering:optimizeSpeed; font-family:'Serif'; stroke:white;"><rect height="10" style="stroke:none;" width="7" x="122" y="148" /><path d="M123.1719 149.625 Q123.8594 149.3594 124.4844 149.2266 Q125.1094 149.0938 125.6562 149.0938 Q126.9531 149.0938 127.6719 149.6484 Q128.3906 150.2031 128.3906 151.1875 Q128.3906 151.9688 127.8906 152.5 Q127.3906 153.0312 126.4844 153.2188 Q127.5625 153.375 128.1562 154.0078 Q128.75 154.6406 128.75 155.6406 Q128.75 156.8594 127.9219 157.5156 Q127.0938 158.1719 125.5469 158.1719 Q124.8594 158.1719 124.2109 158.0234 Q123.5625 157.875 122.9219 157.5781 L122.9219 155.875 L123.5781 155.875 Q123.625 156.7188 124.1406 157.1562 Q124.6562 157.5938 125.5781 157.5938 Q126.4688 157.5938 126.9922 157.0703 Q127.5156 156.5469 127.5156 155.6562 Q127.5156 154.625 126.9766 154.0938 Q126.4375 153.5625 125.4062 153.5625 L124.8594 153.5625 L124.8594 152.9531 L125.1406 152.9531 Q126.1719 152.9531 126.6875 152.5312 Q127.2031 152.1094 127.2031 151.25 Q127.2031 150.4844 126.7812 150.0781 Q126.3594 149.6719 125.5625 149.6719 Q124.7656 149.6719 124.3359 150.0469 Q123.9062 150.4219 123.8281 151.1562 L123.1719 151.1562 L123.1719 149.625 Z" style="fill:black; stroke:none;" /><rect height="8" style="stroke:none;" width="8" x="108" y="149" /><path d="M113.1875 155.4688 L112.9531 156.1094 Q112.7656 156.625 112.2031 156.9375 Q111.8438 157.1562 111.2031 157.1406 Q110.0469 157.1406 109.3281 156.2344 Q108.5938 155.3281 108.5938 153.8594 Q108.5938 152.4219 109.3281 151.4844 Q110.0156 150.5938 111.4531 150.6094 Q112.4531 150.6094 112.9531 151 Q113.4062 151.3438 113.5781 152.0938 L113.625 152.3125 L113.8438 151.6719 Q114.0625 151.0469 114.6562 150.75 L115.25 150.75 L115.25 151.0938 Q114.6875 151.2656 114.5 151.8125 L113.8906 153.4844 L114.2969 155.2812 Q114.5 156.2031 114.7344 156.2969 Q115.0469 156.4375 115.7812 156 L115.7812 156.7188 Q114.5938 157.4062 113.75 156.6875 Q113.375 156.3594 113.2656 155.875 L113.1875 155.4688 ZM112.9219 154.3125 L112.5625 152.5938 Q112.2656 151.2188 111.4688 151.2188 Q110.7969 151.2031 110.2812 151.9375 Q109.8594 152.5156 109.8594 153.875 Q109.8594 155.1719 110.2812 155.8281 Q110.75 156.5469 111.5312 156.5 Q112.2031 156.4375 112.6875 155 L112.9219 154.3125 Z" style="fill:black; stroke:none;" /></g><g ID="l-1:3,5" style="text-rendering:optimizeSpeed;"><polygon points=" 145 67 93 93" style="fill:none;" /></g><g ID="l-1:3,6" style="text-rendering:optimizeSpeed;"><polygon points=" 145 67 93 41" style="fill:none;" /></g><g ID="r-1:3" style="fill:white; text-rendering:optimizeSpeed; stroke:white;" wurcs_mono_id="4"><rect height="22" style="clip-path:url(#clipPath4); stroke:none;" width="22" x="134" y="56" /><rect height="22" style="clip-path:url(#clipPath4); fill:rgb(0,144,188); stroke:none;" width="22" x="134" y="56" /><rect height="22" style="clip-path:url(#clipPath4); fill:none; stroke:black;" width="22" x="134" y="56" /><rect height="22" style="fill:none; stroke:black;" width="22" x="134" y="56" /></g><g ID="l-1:5,7" style="text-rendering:optimizeSpeed;"><polygon points=" 93 93 41 93" style="fill:none;" /></g><g ID="r-1:5" style="fill:white; text-rendering:optimizeSpeed; stroke:white;" wurcs_mono_id="7"><rect height="22" style="clip-path:url(#clipPath5); stroke:none;" width="22" x="82" y="82" /><rect height="22" style="clip-path:url(#clipPath5); fill:rgb(0,144,188); stroke:none;" width="22" x="82" y="82" /><rect height="22" style="clip-path:url(#clipPath5); fill:none; stroke:black;" width="22" x="82" y="82" /><rect height="22" style="fill:none; stroke:black;" width="22" x="82" y="82" /></g><g ID="r-1:7" style="fill:white; text-rendering:optimizeSpeed; stroke:white;" wurcs_mono_id="8"><circle cx="41" cy="93" r="11" style="clip-path:url(#clipPath6); stroke:none;" /><rect height="22" style="clip-path:url(#clipPath6); fill:rgb(255,212,0); stroke:none;" width="22" x="30" y="82" /><rect height="22" style="clip-path:url(#clipPath6); fill:none; stroke:black;" width="22" x="30" y="82" /><circle cx="41" cy="93" r="11" style="fill:none; stroke:black;" /></g><g ID="li-1:5,7" style="fill:white; text-rendering:optimizeSpeed; font-family:'Serif'; stroke:white;"><rect height="10" style="stroke:none;" width="6" x="71" y="96" /><path d="M73.1094 105.3906 Q73.1094 105.0625 73.3359 104.8359 Q73.5625 104.6094 73.8906 104.6094 Q74.2188 104.6094 74.4453 104.8359 Q74.6719 105.0625 74.6719 105.3906 Q74.6719 105.7188 74.4453 105.9453 Q74.2188 106.1719 73.8906 106.1719 Q73.5625 106.1719 73.3359 105.9453 Q73.1094 105.7188 73.1094 105.3906 ZM71.8125 97.6406 Q72.4375 97.3594 73 97.2266 Q73.5625 97.0938 74.0469 97.0938 Q75.3438 97.0938 76.1016 97.7188 Q76.8594 98.3438 76.8594 99.4062 Q76.8594 100.5 76.2109 101.1953 Q75.5625 101.8906 74.25 102.1875 L74.25 103.6719 L73.5312 103.6719 L73.5312 101.75 Q74.5625 101.5 75.0938 100.9062 Q75.625 100.3125 75.625 99.4062 Q75.625 98.5938 75.1953 98.1328 Q74.7656 97.6719 74.0312 97.6719 Q73.3594 97.6719 72.9297 98.0547 Q72.5 98.4375 72.3906 99.1562 L71.8125 99.1562 L71.8125 97.6406 Z" style="fill:black; stroke:none;" /><rect height="13" style="stroke:none;" width="7" x="56" y="94" /><path d="M57.8281 106.25 Q58.2969 106.5938 59.1719 106.5938 Q60.0625 106.5938 60.5781 106.0703 Q61.0938 105.5469 61.0938 104.6562 Q61.0938 103.4219 60.5625 102.8906 Q60.0156 102.3594 59 102.3594 L58.4375 102.3594 L58.4375 101.7188 L58.7344 101.7188 Q59.4844 101.7188 60 101.2969 Q60.4219 100.9531 60.4219 100.0156 Q60.4219 99.6094 60.1406 99.1406 Q59.6875 98.375 59.1562 98.3906 Q57.8281 98.4375 57.8281 100.7812 L57.8281 106.25 ZM56.75 109.5 L56.75 100.7812 Q56.75 98.3281 58.0781 98 Q58.7656 97.8125 59.25 97.8125 Q60.3438 97.8125 61.0469 98.6719 Q61.6094 99.3594 61.6094 99.9375 Q61.6094 100.7812 61.2031 101.2656 Q60.7969 101.75 60.0625 101.9844 Q61.1406 102.1406 61.75 102.7812 Q62.3281 103.4062 62.3281 104.6328 Q62.3281 105.8594 61.5078 106.5156 Q60.6875 107.1719 59.1406 107.1719 Q58.1875 107.1719 57.8281 107.0312 L57.8281 109.5 L56.75 109.5 Z" style="fill:black; stroke:none;" /></g><g ID="l-1:6,8" style="text-rendering:optimizeSpeed;"><polygon points=" 93 41 41 41" style="fill:none;" /></g><g ID="r-1:6" style="fill:white; text-rendering:optimizeSpeed; stroke:white;" wurcs_mono_id="5"><rect height="22" style="clip-path:url(#clipPath7); stroke:none;" width="22" x="82" y="30" /><rect height="22" style="clip-path:url(#clipPath7); fill:rgb(0,144,188); stroke:none;" width="22" x="82" y="30" /><rect height="22" style="clip-path:url(#clipPath7); fill:none; stroke:black;" width="22" x="82" y="30" /><rect height="22" style="fill:none; stroke:black;" width="22" x="82" y="30" /></g><g ID="r-1:8" style="fill:white; text-rendering:optimizeSpeed; stroke:white;" wurcs_mono_id="6"><circle cx="41" cy="41" r="11" style="clip-path:url(#clipPath8); stroke:none;" /><rect height="22" style="clip-path:url(#clipPath8); fill:rgb(255,212,0); stroke:none;" width="22" x="30" y="30" /><rect height="22" style="clip-path:url(#clipPath8); fill:none; stroke:black;" width="22" x="30" y="30" /><circle cx="41" cy="41" r="11" style="fill:none; stroke:black;" /></g><g ID="li-1:6,8" style="fill:white; text-rendering:optimizeSpeed; font-family:'Serif'; stroke:white;"><rect height="10" style="stroke:none;" width="6" x="71" y="44" /><path d="M73.1094 53.3906 Q73.1094 53.0625 73.3359 52.8359 Q73.5625 52.6094 73.8906 52.6094 Q74.2188 52.6094 74.4453 52.8359 Q74.6719 53.0625 74.6719 53.3906 Q74.6719 53.7188 74.4453 53.9453 Q74.2188 54.1719 73.8906 54.1719 Q73.5625 54.1719 73.3359 53.9453 Q73.1094 53.7188 73.1094 53.3906 ZM71.8125 45.6406 Q72.4375 45.3594 73 45.2266 Q73.5625 45.0938 74.0469 45.0938 Q75.3438 45.0938 76.1016 45.7188 Q76.8594 46.3438 76.8594 47.4062 Q76.8594 48.5 76.2109 49.1953 Q75.5625 49.8906 74.25 50.1875 L74.25 51.6719 L73.5312 51.6719 L73.5312 49.75 Q74.5625 49.5 75.0938 48.9062 Q75.625 48.3125 75.625 47.4062 Q75.625 46.5938 75.1953 46.1328 Q74.7656 45.6719 74.0312 45.6719 Q73.3594 45.6719 72.9297 46.0547 Q72.5 46.4375 72.3906 47.1562 L71.8125 47.1562 L71.8125 45.6406 Z" style="fill:black; stroke:none;" /><rect height="13" style="stroke:none;" width="7" x="56" y="42" /><path d="M57.8281 54.25 Q58.2969 54.5938 59.1719 54.5938 Q60.0625 54.5938 60.5781 54.0703 Q61.0938 53.5469 61.0938 52.6562 Q61.0938 51.4219 60.5625 50.8906 Q60.0156 50.3594 59 50.3594 L58.4375 50.3594 L58.4375 49.7188 L58.7344 49.7188 Q59.4844 49.7188 60 49.2969 Q60.4219 48.9531 60.4219 48.0156 Q60.4219 47.6094 60.1406 47.1406 Q59.6875 46.375 59.1562 46.3906 Q57.8281 46.4375 57.8281 48.7812 L57.8281 54.25 ZM56.75 57.5 L56.75 48.7812 Q56.75 46.3281 58.0781 46 Q58.7656 45.8125 59.25 45.8125 Q60.3438 45.8125 61.0469 46.6719 Q61.6094 47.3594 61.6094 47.9375 Q61.6094 48.7812 61.2031 49.2656 Q60.7969 49.75 60.0625 49.9844 Q61.1406 50.1406 61.75 50.7812 Q62.3281 51.4062 62.3281 52.6328 Q62.3281 53.8594 61.5078 54.5156 Q60.6875 55.1719 59.1406 55.1719 Q58.1875 55.1719 57.8281 55.0312 L57.8281 57.5 L56.75 57.5 Z" style="fill:black; stroke:none;" /></g><g ID="li-1:3,5" style="fill:white; text-rendering:optimizeSpeed; font-family:'Serif'; stroke:white;"><rect height="10" style="stroke:none;" width="6" x="127" y="78" /><path d="M129.1094 87.3906 Q129.1094 87.0625 129.3359 86.8359 Q129.5625 86.6094 129.8906 86.6094 Q130.2188 86.6094 130.4453 86.8359 Q130.6719 87.0625 130.6719 87.3906 Q130.6719 87.7188 130.4453 87.9453 Q130.2188 88.1719 129.8906 88.1719 Q129.5625 88.1719 129.3359 87.9453 Q129.1094 87.7188 129.1094 87.3906 ZM127.8125 79.6406 Q128.4375 79.3594 129 79.2266 Q129.5625 79.0938 130.0469 79.0938 Q131.3438 79.0938 132.1016 79.7188 Q132.8594 80.3438 132.8594 81.4062 Q132.8594 82.5 132.2109 83.1953 Q131.5625 83.8906 130.25 84.1875 L130.25 85.6719 L129.5312 85.6719 L129.5312 83.75 Q130.5625 83.5 131.0938 82.9062 Q131.625 82.3125 131.625 81.4062 Q131.625 80.5938 131.1953 80.1328 Q130.7656 79.6719 130.0312 79.6719 Q129.3594 79.6719 128.9297 80.0547 Q128.5 80.4375 128.3906 81.1562 L127.8125 81.1562 L127.8125 79.6406 Z" style="fill:black; stroke:none;" /><rect height="10" style="stroke:none;" width="6" x="111" y="86" /><path d="M113.1094 95.3906 Q113.1094 95.0625 113.3359 94.8359 Q113.5625 94.6094 113.8906 94.6094 Q114.2188 94.6094 114.4453 94.8359 Q114.6719 95.0625 114.6719 95.3906 Q114.6719 95.7188 114.4453 95.9453 Q114.2188 96.1719 113.8906 96.1719 Q113.5625 96.1719 113.3359 95.9453 Q113.1094 95.7188 113.1094 95.3906 ZM111.8125 87.6406 Q112.4375 87.3594 113 87.2266 Q113.5625 87.0938 114.0469 87.0938 Q115.3438 87.0938 116.1016 87.7188 Q116.8594 88.3438 116.8594 89.4062 Q116.8594 90.5 116.2109 91.1953 Q115.5625 91.8906 114.25 92.1875 L114.25 93.6719 L113.5312 93.6719 L113.5312 91.75 Q114.5625 91.5 115.0938 90.9062 Q115.625 90.3125 115.625 89.4062 Q115.625 88.5938 115.1953 88.1328 Q114.7656 87.6719 114.0312 87.6719 Q113.3594 87.6719 112.9297 88.0547 Q112.5 88.4375 112.3906 89.1562 L111.8125 89.1562 L111.8125 87.6406 Z" style="fill:black; stroke:none;" /></g><g ID="li-1:3,6" style="fill:white; text-rendering:optimizeSpeed; font-family:'Serif'; stroke:white;"><rect height="10" style="stroke:none;" width="6" x="120" y="60" /><path d="M122.1094 69.3906 Q122.1094 69.0625 122.3359 68.8359 Q122.5625 68.6094 122.8906 68.6094 Q123.2188 68.6094 123.4453 68.8359 Q123.6719 69.0625 123.6719 69.3906 Q123.6719 69.7188 123.4453 69.9453 Q123.2188 70.1719 122.8906 70.1719 Q122.5625 70.1719 122.3359 69.9453 Q122.1094 69.7188 122.1094 69.3906 ZM120.8125 61.6406 Q121.4375 61.3594 122 61.2266 Q122.5625 61.0938 123.0469 61.0938 Q124.3438 61.0938 125.1016 61.7188 Q125.8594 62.3438 125.8594 63.4062 Q125.8594 64.5 125.2109 65.1953 Q124.5625 65.8906 123.25 66.1875 L123.25 67.6719 L122.5312 67.6719 L122.5312 65.75 Q123.5625 65.5 124.0938 64.9062 Q124.625 64.3125 124.625 63.4062 Q124.625 62.5938 124.1953 62.1328 Q123.7656 61.6719 123.0312 61.6719 Q122.3594 61.6719 121.9297 62.0547 Q121.5 62.4375 121.3906 63.1562 L120.8125 63.1562 L120.8125 61.6406 Z" style="fill:black; stroke:none;" /><rect height="10" style="stroke:none;" width="6" x="104" y="52" /><path d="M106.1094 61.3906 Q106.1094 61.0625 106.3359 60.8359 Q106.5625 60.6094 106.8906 60.6094 Q107.2188 60.6094 107.4453 60.8359 Q107.6719 61.0625 107.6719 61.3906 Q107.6719 61.7188 107.4453 61.9453 Q107.2188 62.1719 106.8906 62.1719 Q106.5625 62.1719 106.3359 61.9453 Q106.1094 61.7188 106.1094 61.3906 ZM104.8125 53.6406 Q105.4375 53.3594 106 53.2266 Q106.5625 53.0938 107.0469 53.0938 Q108.3438 53.0938 109.1016 53.7188 Q109.8594 54.3438 109.8594 55.4062 Q109.8594 56.5 109.2109 57.1953 Q108.5625 57.8906 107.25 58.1875 L107.25 59.6719 L106.5312 59.6719 L106.5312 57.75 Q107.5625 57.5 108.0938 56.9062 Q108.625 56.3125 108.625 55.4062 Q108.625 54.5938 108.1953 54.1328 Q107.7656 53.6719 107.0312 53.6719 Q106.3594 53.6719 105.9297 54.0547 Q105.5 54.4375 105.3906 55.1562 L104.8125 55.1562 L104.8125 53.6406 Z" style="fill:black; stroke:none;" /></g><g ID="li-1:1,2" style="fill:white; text-rendering:optimizeSpeed; font-family:'Serif'; stroke:white;"><rect height="10" style="stroke:none;" width="7" x="180" y="120" /><path d="M181.1719 121.625 Q181.8594 121.3594 182.4844 121.2266 Q183.1094 121.0938 183.6562 121.0938 Q184.9531 121.0938 185.6719 121.6484 Q186.3906 122.2031 186.3906 123.1875 Q186.3906 123.9688 185.8906 124.5 Q185.3906 125.0312 184.4844 125.2188 Q185.5625 125.375 186.1562 126.0078 Q186.75 126.6406 186.75 127.6406 Q186.75 128.8594 185.9219 129.5156 Q185.0938 130.1719 183.5469 130.1719 Q182.8594 130.1719 182.2109 130.0234 Q181.5625 129.875 180.9219 129.5781 L180.9219 127.875 L181.5781 127.875 Q181.625 128.7188 182.1406 129.1562 Q182.6562 129.5938 183.5781 129.5938 Q184.4688 129.5938 184.9922 129.0703 Q185.5156 128.5469 185.5156 127.6562 Q185.5156 126.625 184.9766 126.0938 Q184.4375 125.5625 183.4062 125.5625 L182.8594 125.5625 L182.8594 124.9531 L183.1406 124.9531 Q184.1719 124.9531 184.6875 124.5312 Q185.2031 124.1094 185.2031 123.25 Q185.2031 122.4844 184.7812 122.0781 Q184.3594 121.6719 183.5625 121.6719 Q182.7656 121.6719 182.3359 122.0469 Q181.9062 122.4219 181.8281 123.1562 L181.1719 123.1562 L181.1719 121.625 Z" style="fill:black; stroke:none;" /><rect height="13" style="stroke:none;" width="7" x="163" y="131" /><path d="M164.8281 143.25 Q165.2969 143.5938 166.1719 143.5938 Q167.0625 143.5938 167.5781 143.0703 Q168.0938 142.5469 168.0938 141.6562 Q168.0938 140.4219 167.5625 139.8906 Q167.0156 139.3594 166 139.3594 L165.4375 139.3594 L165.4375 138.7188 L165.7344 138.7188 Q166.4844 138.7188 167 138.2969 Q167.4219 137.9531 167.4219 137.0156 Q167.4219 136.6094 167.1406 136.1406 Q166.6875 135.375 166.1562 135.3906 Q164.8281 135.4375 164.8281 137.7812 L164.8281 143.25 ZM163.75 146.5 L163.75 137.7812 Q163.75 135.3281 165.0781 135 Q165.7656 134.8125 166.25 134.8125 Q167.3438 134.8125 168.0469 135.6719 Q168.6094 136.3594 168.6094 136.9375 Q168.6094 137.7812 168.2031 138.2656 Q167.7969 138.75 167.0625 138.9844 Q168.1406 139.1406 168.75 139.7812 Q169.3281 140.4062 169.3281 141.6328 Q169.3281 142.8594 168.5078 143.5156 Q167.6875 144.1719 166.1406 144.1719 Q165.1875 144.1719 164.8281 144.0312 L164.8281 146.5 L163.75 146.5 Z" style="fill:black; stroke:none;" /></g><g ID="li-1:1,3" style="fill:white; text-rendering:optimizeSpeed; font-family:'Serif'; stroke:white;"><rect height="10" style="stroke:none;" width="7" x="171" y="94" /><path d="M174.9219 103.5938 Q175.75 103.5938 176.1953 102.9844 Q176.6406 102.375 176.6406 101.2344 Q176.6406 100.1094 176.1953 99.5 Q175.75 98.8906 174.9219 98.8906 Q174.0938 98.8906 173.6484 99.4766 Q173.2031 100.0625 173.2031 101.1719 Q173.2031 102.3281 173.6484 102.9609 Q174.0938 103.5938 174.9219 103.5938 ZM173.0156 99.1875 Q173.4219 98.75 173.9219 98.5312 Q174.4219 98.3125 175.0625 98.3125 Q176.3594 98.3125 177.1172 99.0938 Q177.875 99.875 177.875 101.2344 Q177.875 102.5625 177.0625 103.3672 Q176.25 104.1719 174.875 104.1719 Q173.3906 104.1719 172.5938 103.0625 Q171.7969 101.9531 171.7969 99.9062 Q171.7969 97.6094 172.7422 96.3516 Q173.6875 95.0938 175.4062 95.0938 Q175.875 95.0938 176.3828 95.1797 Q176.8906 95.2656 177.4219 95.4375 L177.4219 96.8906 L176.7656 96.8906 Q176.6875 96.2969 176.3047 95.9844 Q175.9219 95.6719 175.2812 95.6719 Q174.1406 95.6719 173.5859 96.5312 Q173.0312 97.3906 173.0156 99.1875 Z" style="fill:black; stroke:none;" /><rect height="13" style="stroke:none;" width="7" x="154" y="79" /><path d="M155.8281 91.25 Q156.2969 91.5938 157.1719 91.5938 Q158.0625 91.5938 158.5781 91.0703 Q159.0938 90.5469 159.0938 89.6562 Q159.0938 88.4219 158.5625 87.8906 Q158.0156 87.3594 157 87.3594 L156.4375 87.3594 L156.4375 86.7188 L156.7344 86.7188 Q157.4844 86.7188 158 86.2969 Q158.4219 85.9531 158.4219 85.0156 Q158.4219 84.6094 158.1406 84.1406 Q157.6875 83.375 157.1562 83.3906 Q155.8281 83.4375 155.8281 85.7812 L155.8281 91.25 ZM154.75 94.5 L154.75 85.7812 Q154.75 83.3281 156.0781 83 Q156.7656 82.8125 157.25 82.8125 Q158.3438 82.8125 159.0469 83.6719 Q159.6094 84.3594 159.6094 84.9375 Q159.6094 85.7812 159.2031 86.2656 Q158.7969 86.75 158.0625 86.9844 Q159.1406 87.1406 159.75 87.7812 Q160.3281 88.4062 160.3281 89.6328 Q160.3281 90.8594 159.5078 91.5156 Q158.6875 92.1719 157.1406 92.1719 Q156.1875 92.1719 155.8281 92.0312 L155.8281 94.5 L154.75 94.5 Z" style="fill:black; stroke:none;" /></g></g></svg>