<svg xmlns="http://www.w3.org/2000/svg" style="fill-opacity:1; color-rendering:auto; color-interpolation:auto; text-rendering:auto; stroke:black; stroke-linecap:square; stroke-miterlimit:10; shape-rendering:auto; stroke-opacity:1; fill:black; stroke-dasharray:none; font-weight:normal; stroke-width:1; font-family:'Dialog'; font-style:normal; stroke-linejoin:miter; font-size:12px; stroke-dashoffset:0; image-rendering:auto;"><defs id="genericDefs" /><g><defs id="defs1"><clipPath clipPathUnits="userSpaceOnUse" id="clipPath1"><path d="M290 56 L312 56 L312 78 L290 78 L290 56 Z" /></clipPath><clipPath clipPathUnits="userSpaceOnUse" id="clipPath2"><path d="M260 93 C260 99.0751 255.0751 104 249 104 C242.9249 104 238 99.0751 238 93 C238 86.9249 242.9249 82 249 82 C255.0751 82 260 86.9249 260 93 Z" /></clipPath><clipPath clipPathUnits="userSpaceOnUse" id="clipPath3"><path d="M238 30 L260 30 L260 52 L238 52 L238 30 Z" /></clipPath><clipPath clipPathUnits="userSpaceOnUse" id="clipPath4"><path d="M208 41 C208 47.0751 203.0751 52 197 52 C190.9249 52 186 47.0751 186 41 C186 34.9249 190.9249 30 197 30 C203.0751 30 208 34.9249 208 41 Z" /></clipPath><clipPath clipPathUnits="userSpaceOnUse" id="clipPath5"><path d="M134 30 L156 30 L156 52 L134 52 L134 30 Z" /></clipPath><clipPath clipPathUnits="userSpaceOnUse" id="clipPath6"><path d="M104 41 C104 47.0751 99.0751 52 93 52 C86.9249 52 82 47.0751 82 41 C82 34.9249 86.9249 30 93 30 C99.0751 30 104 34.9249 104 41 Z" /></clipPath><clipPath clipPathUnits="userSpaceOnUse" id="clipPath7"><path d="M30 30 L52 30 L52 52 L30 52 L30 30 Z" /></clipPath></defs><g style="fill:white; text-rendering:optimizeSpeed; stroke:white;"><rect height="134" style="stroke:none;" width="342" x="0" y="0" /></g><g ID="l-1:1,2" style="text-rendering:optimizeSpeed;"><polygon points=" 301 67 249 93" style="fill:none;" /></g><g ID="l-1:1,3" style="text-rendering:optimizeSpeed;"><polygon points=" 301 67 249 41" style="fill:none;" /></g><g ID="r-1:1" style="fill:white; text-rendering:optimizeSpeed; stroke:white;" wurcs_mono_id="1"><rect height="22" style="clip-path:url(#clipPath1); stroke:none;" width="22" x="290" y="56" /><rect height="22" style="clip-path:url(#clipPath1); fill:rgb(255,212,0); stroke:none;" width="22" x="290" y="56" /><rect height="22" style="clip-path:url(#clipPath1); fill:none; stroke:black;" width="22" x="290" y="56" /><rect height="22" style="fill:none; stroke:black;" width="22" x="290" y="56" /></g><g style="font-style:italic; text-rendering:optimizeSpeed; font-size:10px; font-family:'SansSerif';"><path d="M302.0938 64.1562 Q301.375 64.1562 300.8359 64.7188 Q300.2969 65.2812 300.0781 66.2656 Q299.875 67.25 300.1719 67.8125 Q300.4688 68.375 301.2031 68.375 Q301.9219 68.375 302.4609 67.8125 Q303 67.25 303.2031 66.2656 Q303.4062 65.2969 303.1094 64.7266 Q302.8125 64.1562 302.0938 64.1562 ZM302.25 63.4062 Q303.4219 63.4062 303.9297 64.1641 Q304.4375 64.9219 304.1562 66.2656 Q303.875 67.6094 303.0391 68.375 Q302.2031 69.1406 301.0312 69.1406 Q299.8594 69.1406 299.3516 68.375 Q298.8438 67.6094 299.125 66.2656 Q299.4062 64.9219 300.2422 64.1641 Q301.0781 63.4062 302.25 63.4062 Z" style="stroke:none;" /></g><g ID="r-1:2" style="fill:white; text-rendering:optimizeSpeed; stroke:white;" wurcs_mono_id="2"><circle cx="249" cy="93" r="11" style="clip-path:url(#clipPath2); stroke:none;" /><rect height="22" style="clip-path:url(#clipPath2); fill:rgb(255,212,0); stroke:none;" width="22" x="238" y="82" /><rect height="22" style="clip-path:url(#clipPath2); fill:none; stroke:black;" width="22" x="238" y="82" /><circle cx="249" cy="93" r="11" style="fill:none; stroke:black;" /></g><g ID="l-1:3,4" style="text-rendering:optimizeSpeed;"><polygon points=" 249 41 197 41" style="fill:none;" /></g><g ID="r-1:3" style="fill:white; text-rendering:optimizeSpeed; stroke:white;" wurcs_mono_id="3"><rect height="22" style="clip-path:url(#clipPath3); stroke:none;" width="22" x="238" y="30" /><rect height="22" style="clip-path:url(#clipPath3); fill:rgb(0,144,188); stroke:none;" width="22" x="238" y="30" /><rect height="22" style="clip-path:url(#clipPath3); fill:none; stroke:black;" width="22" x="238" y="30" /><rect height="22" style="fill:none; stroke:black;" width="22" x="238" y="30" /></g><g ID="l-1:4,5" style="text-rendering:optimizeSpeed;"><polygon points=" 197 41 145 41" style="fill:none;" /></g><g ID="r-1:4" style="fill:white; text-rendering:optimizeSpeed; stroke:white;" wurcs_mono_id="4"><circle cx="197" cy="41" r="11" style="clip-path:url(#clipPath4); stroke:none;" /><rect height="22" style="clip-path:url(#clipPath4); fill:rgb(255,212,0); stroke:none;" width="22" x="186" y="30" /><rect height="22" style="clip-path:url(#clipPath4); fill:none; stroke:black;" width="22" x="186" y="30" /><circle cx="197" cy="41" r="11" style="fill:none; stroke:black;" /></g><g ID="l-1:5,6" style="text-rendering:optimizeSpeed;"><polygon points=" 145 41 93 41" style="fill:none;" /></g><g ID="r-1:5" style="fill:white; text-rendering:optimizeSpeed; stroke:white;" wurcs_mono_id="5"><rect height="22" style="clip-path:url(#clipPath5); stroke:none;" width="22" x="134" y="30" /><rect height="22" style="clip-path:url(#clipPath5); fill:rgb(0,144,188); stroke:none;" width="22" x="134" y="30" /><rect height="22" style="clip-path:url(#clipPath5); fill:none; stroke:black;" width="22" x="134" y="30" /><rect height="22" style="fill:none; stroke:black;" width="22" x="134" y="30" /></g><g ID="l-1:6,7" style="text-rendering:optimizeSpeed;"><polygon points=" 93 41 41 41" style="fill:none;" /></g><g ID="r-1:6" style="fill:white; text-rendering:optimizeSpeed; stroke:white;" wurcs_mono_id="6"><circle cx="93" cy="41" r="11" style="clip-path:url(#clipPath6); stroke:none;" /><rect height="22" style="clip-path:url(#clipPath6); fill:rgb(255,212,0); stroke:none;" width="22" x="82" y="30" /><rect height="22" style="clip-path:url(#clipPath6); fill:none; stroke:black;" width="22" x="82" y="30" /><circle cx="93" cy="41" r="11" style="fill:none; stroke:black;" /></g><g ID="r-1:7" style="fill:white; text-rendering:optimizeSpeed; stroke:white;" wurcs_mono_id="7"><rect height="22" style="clip-path:url(#clipPath7); stroke:none;" width="22" x="30" y="30" /><rect height="22" style="clip-path:url(#clipPath7); fill:rgb(0,144,188); stroke:none;" width="22" x="30" y="30" /><rect height="22" style="clip-path:url(#clipPath7); fill:none; stroke:black;" width="22" x="30" y="30" /><rect height="22" style="fill:none; stroke:black;" width="22" x="30" y="30" /></g><g ID="li-1:6,7" style="fill:white; text-rendering:optimizeSpeed; font-family:'Serif'; stroke:white;"><rect height="9" style="stroke:none;" width="8" x="70" y="44" /><path d="M74.1875 50.0312 L74.1875 45.375 L71.2031 50.0312 L74.1875 50.0312 ZM76.7656 53 L72.7812 53 L72.7812 52.375 L74.1875 52.375 L74.1875 50.6562 L70.375 50.6562 L70.375 50.0156 L74.2031 44.0938 L75.3594 44.0938 L75.3594 50.0312 L77.0312 50.0312 L77.0312 50.6562 L75.3594 50.6562 L75.3594 52.375 L76.7656 52.375 L76.7656 53 Z" style="fill:black; stroke:none;" /><rect height="8" style="stroke:none;" width="8" x="56" y="45" /><path d="M61.1875 51.4688 L60.9531 52.1094 Q60.7656 52.625 60.2031 52.9375 Q59.8438 53.1562 59.2031 53.1406 Q58.0469 53.1406 57.3281 52.2344 Q56.5938 51.3281 56.5938 49.8594 Q56.5938 48.4219 57.3281 47.4844 Q58.0156 46.5938 59.4531 46.6094 Q60.4531 46.6094 60.9531 47 Q61.4062 47.3438 61.5781 48.0938 L61.625 48.3125 L61.8438 47.6719 Q62.0625 47.0469 62.6562 46.75 L63.25 46.75 L63.25 47.0938 Q62.6875 47.2656 62.5 47.8125 L61.8906 49.4844 L62.2969 51.2812 Q62.5 52.2031 62.7344 52.2969 Q63.0469 52.4375 63.7812 52 L63.7812 52.7188 Q62.5938 53.4062 61.75 52.6875 Q61.375 52.3594 61.2656 51.875 L61.1875 51.4688 ZM60.9219 50.3125 L60.5625 48.5938 Q60.2656 47.2188 59.4688 47.2188 Q58.7969 47.2031 58.2812 47.9375 Q57.8594 48.5156 57.8594 49.875 Q57.8594 51.1719 58.2812 51.8281 Q58.75 52.5469 59.5312 52.5 Q60.2031 52.4375 60.6875 51 L60.9219 50.3125 Z" style="fill:black; stroke:none;" /></g><g ID="li-1:5,6" style="fill:white; text-rendering:optimizeSpeed; font-family:'Serif'; stroke:white;"><rect height="10" style="stroke:none;" width="6" x="123" y="44" /><path d="M125.1094 53.3906 Q125.1094 53.0625 125.3359 52.8359 Q125.5625 52.6094 125.8906 52.6094 Q126.2188 52.6094 126.4453 52.8359 Q126.6719 53.0625 126.6719 53.3906 Q126.6719 53.7188 126.4453 53.9453 Q126.2188 54.1719 125.8906 54.1719 Q125.5625 54.1719 125.3359 53.9453 Q125.1094 53.7188 125.1094 53.3906 ZM123.8125 45.6406 Q124.4375 45.3594 125 45.2266 Q125.5625 45.0938 126.0469 45.0938 Q127.3438 45.0938 128.1016 45.7188 Q128.8594 46.3438 128.8594 47.4062 Q128.8594 48.5 128.2109 49.1953 Q127.5625 49.8906 126.25 50.1875 L126.25 51.6719 L125.5312 51.6719 L125.5312 49.75 Q126.5625 49.5 127.0938 48.9062 Q127.625 48.3125 127.625 47.4062 Q127.625 46.5938 127.1953 46.1328 Q126.7656 45.6719 126.0312 45.6719 Q125.3594 45.6719 124.9297 46.0547 Q124.5 46.4375 124.3906 47.1562 L123.8125 47.1562 L123.8125 45.6406 Z" style="fill:black; stroke:none;" /><rect height="10" style="stroke:none;" width="6" x="109" y="44" /><path d="M111.1094 53.3906 Q111.1094 53.0625 111.3359 52.8359 Q111.5625 52.6094 111.8906 52.6094 Q112.2188 52.6094 112.4453 52.8359 Q112.6719 53.0625 112.6719 53.3906 Q112.6719 53.7188 112.4453 53.9453 Q112.2188 54.1719 111.8906 54.1719 Q111.5625 54.1719 111.3359 53.9453 Q111.1094 53.7188 111.1094 53.3906 ZM109.8125 45.6406 Q110.4375 45.3594 111 45.2266 Q111.5625 45.0938 112.0469 45.0938 Q113.3438 45.0938 114.1016 45.7188 Q114.8594 46.3438 114.8594 47.4062 Q114.8594 48.5 114.2109 49.1953 Q113.5625 49.8906 112.25 50.1875 L112.25 51.6719 L111.5312 51.6719 L111.5312 49.75 Q112.5625 49.5 113.0938 48.9062 Q113.625 48.3125 113.625 47.4062 Q113.625 46.5938 113.1953 46.1328 Q112.7656 45.6719 112.0312 45.6719 Q111.3594 45.6719 110.9297 46.0547 Q110.5 46.4375 110.3906 47.1562 L109.8125 47.1562 L109.8125 45.6406 Z" style="fill:black; stroke:none;" /></g><g ID="li-1:4,5" style="fill:white; text-rendering:optimizeSpeed; font-family:'Serif'; stroke:white;"><rect height="10" style="stroke:none;" width="7" x="174" y="44" /><path d="M175.1719 45.625 Q175.8594 45.3594 176.4844 45.2266 Q177.1094 45.0938 177.6562 45.0938 Q178.9531 45.0938 179.6719 45.6484 Q180.3906 46.2031 180.3906 47.1875 Q180.3906 47.9688 179.8906 48.5 Q179.3906 49.0312 178.4844 49.2188 Q179.5625 49.375 180.1562 50.0078 Q180.75 50.6406 180.75 51.6406 Q180.75 52.8594 179.9219 53.5156 Q179.0938 54.1719 177.5469 54.1719 Q176.8594 54.1719 176.2109 54.0234 Q175.5625 53.875 174.9219 53.5781 L174.9219 51.875 L175.5781 51.875 Q175.625 52.7188 176.1406 53.1562 Q176.6562 53.5938 177.5781 53.5938 Q178.4688 53.5938 178.9922 53.0703 Q179.5156 52.5469 179.5156 51.6562 Q179.5156 50.625 178.9766 50.0938 Q178.4375 49.5625 177.4062 49.5625 L176.8594 49.5625 L176.8594 48.9531 L177.1406 48.9531 Q178.1719 48.9531 178.6875 48.5312 Q179.2031 48.1094 179.2031 47.25 Q179.2031 46.4844 178.7812 46.0781 Q178.3594 45.6719 177.5625 45.6719 Q176.7656 45.6719 176.3359 46.0469 Q175.9062 46.4219 175.8281 47.1562 L175.1719 47.1562 L175.1719 45.625 Z" style="fill:black; stroke:none;" /><rect height="13" style="stroke:none;" width="7" x="160" y="42" /><path d="M161.8281 54.25 Q162.2969 54.5938 163.1719 54.5938 Q164.0625 54.5938 164.5781 54.0703 Q165.0938 53.5469 165.0938 52.6562 Q165.0938 51.4219 164.5625 50.8906 Q164.0156 50.3594 163 50.3594 L162.4375 50.3594 L162.4375 49.7188 L162.7344 49.7188 Q163.4844 49.7188 164 49.2969 Q164.4219 48.9531 164.4219 48.0156 Q164.4219 47.6094 164.1406 47.1406 Q163.6875 46.375 163.1562 46.3906 Q161.8281 46.4375 161.8281 48.7812 L161.8281 54.25 ZM160.75 57.5 L160.75 48.7812 Q160.75 46.3281 162.0781 46 Q162.7656 45.8125 163.25 45.8125 Q164.3438 45.8125 165.0469 46.6719 Q165.6094 47.3594 165.6094 47.9375 Q165.6094 48.7812 165.2031 49.2656 Q164.7969 49.75 164.0625 49.9844 Q165.1406 50.1406 165.75 50.7812 Q166.3281 51.4062 166.3281 52.6328 Q166.3281 53.8594 165.5078 54.5156 Q164.6875 55.1719 163.1406 55.1719 Q162.1875 55.1719 161.8281 55.0312 L161.8281 57.5 L160.75 57.5 Z" style="fill:black; stroke:none;" /></g><g ID="li-1:3,4" style="fill:white; text-rendering:optimizeSpeed; font-family:'Serif'; stroke:white;"><rect height="9" style="stroke:none;" width="8" x="226" y="44" /><path d="M230.1875 50.0312 L230.1875 45.375 L227.2031 50.0312 L230.1875 50.0312 ZM232.7656 53 L228.7812 53 L228.7812 52.375 L230.1875 52.375 L230.1875 50.6562 L226.375 50.6562 L226.375 50.0156 L230.2031 44.0938 L231.3594 44.0938 L231.3594 50.0312 L233.0312 50.0312 L233.0312 50.6562 L231.3594 50.6562 L231.3594 52.375 L232.7656 52.375 L232.7656 53 Z" style="fill:black; stroke:none;" /><rect height="13" style="stroke:none;" width="7" x="212" y="42" /><path d="M213.8281 54.25 Q214.2969 54.5938 215.1719 54.5938 Q216.0625 54.5938 216.5781 54.0703 Q217.0938 53.5469 217.0938 52.6562 Q217.0938 51.4219 216.5625 50.8906 Q216.0156 50.3594 215 50.3594 L214.4375 50.3594 L214.4375 49.7188 L214.7344 49.7188 Q215.4844 49.7188 216 49.2969 Q216.4219 48.9531 216.4219 48.0156 Q216.4219 47.6094 216.1406 47.1406 Q215.6875 46.375 215.1562 46.3906 Q213.8281 46.4375 213.8281 48.7812 L213.8281 54.25 ZM212.75 57.5 L212.75 48.7812 Q212.75 46.3281 214.0781 46 Q214.7656 45.8125 215.25 45.8125 Q216.3438 45.8125 217.0469 46.6719 Q217.6094 47.3594 217.6094 47.9375 Q217.6094 48.7812 217.2031 49.2656 Q216.7969 49.75 216.0625 49.9844 Q217.1406 50.1406 217.75 50.7812 Q218.3281 51.4062 218.3281 52.6328 Q218.3281 53.8594 217.5078 54.5156 Q216.6875 55.1719 215.1406 55.1719 Q214.1875 55.1719 213.8281 55.0312 L213.8281 57.5 L212.75 57.5 Z" style="fill:black; stroke:none;" /></g><g ID="li-1:1,2" style="fill:white; text-rendering:optimizeSpeed; font-family:'Serif'; stroke:white;"><rect height="10" style="stroke:none;" width="7" x="282" y="78" /><path d="M283.1719 79.625 Q283.8594 79.3594 284.4844 79.2266 Q285.1094 79.0938 285.6562 79.0938 Q286.9531 79.0938 287.6719 79.6484 Q288.3906 80.2031 288.3906 81.1875 Q288.3906 81.9688 287.8906 82.5 Q287.3906 83.0312 286.4844 83.2188 Q287.5625 83.375 288.1562 84.0078 Q288.75 84.6406 288.75 85.6406 Q288.75 86.8594 287.9219 87.5156 Q287.0938 88.1719 285.5469 88.1719 Q284.8594 88.1719 284.2109 88.0234 Q283.5625 87.875 282.9219 87.5781 L282.9219 85.875 L283.5781 85.875 Q283.625 86.7188 284.1406 87.1562 Q284.6562 87.5938 285.5781 87.5938 Q286.4688 87.5938 286.9922 87.0703 Q287.5156 86.5469 287.5156 85.6562 Q287.5156 84.625 286.9766 84.0938 Q286.4375 83.5625 285.4062 83.5625 L284.8594 83.5625 L284.8594 82.9531 L285.1406 82.9531 Q286.1719 82.9531 286.6875 82.5312 Q287.2031 82.1094 287.2031 81.25 Q287.2031 80.4844 286.7812 80.0781 Q286.3594 79.6719 285.5625 79.6719 Q284.7656 79.6719 284.3359 80.0469 Q283.9062 80.4219 283.8281 81.1562 L283.1719 81.1562 L283.1719 79.625 Z" style="fill:black; stroke:none;" /><rect height="13" style="stroke:none;" width="7" x="267" y="84" /><path d="M268.8281 96.25 Q269.2969 96.5938 270.1719 96.5938 Q271.0625 96.5938 271.5781 96.0703 Q272.0938 95.5469 272.0938 94.6562 Q272.0938 93.4219 271.5625 92.8906 Q271.0156 92.3594 270 92.3594 L269.4375 92.3594 L269.4375 91.7188 L269.7344 91.7188 Q270.4844 91.7188 271 91.2969 Q271.4219 90.9531 271.4219 90.0156 Q271.4219 89.6094 271.1406 89.1406 Q270.6875 88.375 270.1562 88.3906 Q268.8281 88.4375 268.8281 90.7812 L268.8281 96.25 ZM267.75 99.5 L267.75 90.7812 Q267.75 88.3281 269.0781 88 Q269.7656 87.8125 270.25 87.8125 Q271.3438 87.8125 272.0469 88.6719 Q272.6094 89.3594 272.6094 89.9375 Q272.6094 90.7812 272.2031 91.2656 Q271.7969 91.75 271.0625 91.9844 Q272.1406 92.1406 272.75 92.7812 Q273.3281 93.4062 273.3281 94.6328 Q273.3281 95.8594 272.5078 96.5156 Q271.6875 97.1719 270.1406 97.1719 Q269.1875 97.1719 268.8281 97.0312 L268.8281 99.5 L267.75 99.5 Z" style="fill:black; stroke:none;" /></g><g ID="li-1:1,3" style="fill:white; text-rendering:optimizeSpeed; font-family:'Serif'; stroke:white;"><rect height="10" style="stroke:none;" width="7" x="275" y="60" /><path d="M278.9219 69.5938 Q279.75 69.5938 280.1953 68.9844 Q280.6406 68.375 280.6406 67.2344 Q280.6406 66.1094 280.1953 65.5 Q279.75 64.8906 278.9219 64.8906 Q278.0938 64.8906 277.6484 65.4766 Q277.2031 66.0625 277.2031 67.1719 Q277.2031 68.3281 277.6484 68.9609 Q278.0938 69.5938 278.9219 69.5938 ZM277.0156 65.1875 Q277.4219 64.75 277.9219 64.5312 Q278.4219 64.3125 279.0625 64.3125 Q280.3594 64.3125 281.1172 65.0938 Q281.875 65.875 281.875 67.2344 Q281.875 68.5625 281.0625 69.3672 Q280.25 70.1719 278.875 70.1719 Q277.3906 70.1719 276.5938 69.0625 Q275.7969 67.9531 275.7969 65.9062 Q275.7969 63.6094 276.7422 62.3516 Q277.6875 61.0938 279.4062 61.0938 Q279.875 61.0938 280.3828 61.1797 Q280.8906 61.2656 281.4219 61.4375 L281.4219 62.8906 L280.7656 62.8906 Q280.6875 62.2969 280.3047 61.9844 Q279.9219 61.6719 279.2812 61.6719 Q278.1406 61.6719 277.5859 62.5312 Q277.0312 63.3906 277.0156 65.1875 Z" style="fill:black; stroke:none;" /><rect height="13" style="stroke:none;" width="7" x="260" y="50" /><path d="M261.8281 62.25 Q262.2969 62.5938 263.1719 62.5938 Q264.0625 62.5938 264.5781 62.0703 Q265.0938 61.5469 265.0938 60.6562 Q265.0938 59.4219 264.5625 58.8906 Q264.0156 58.3594 263 58.3594 L262.4375 58.3594 L262.4375 57.7188 L262.7344 57.7188 Q263.4844 57.7188 264 57.2969 Q264.4219 56.9531 264.4219 56.0156 Q264.4219 55.6094 264.1406 55.1406 Q263.6875 54.375 263.1562 54.3906 Q261.8281 54.4375 261.8281 56.7812 L261.8281 62.25 ZM260.75 65.5 L260.75 56.7812 Q260.75 54.3281 262.0781 54 Q262.7656 53.8125 263.25 53.8125 Q264.3438 53.8125 265.0469 54.6719 Q265.6094 55.3594 265.6094 55.9375 Q265.6094 56.7812 265.2031 57.2656 Q264.7969 57.75 264.0625 57.9844 Q265.1406 58.1406 265.75 58.7812 Q266.3281 59.4062 266.3281 60.6328 Q266.3281 61.8594 265.5078 62.5156 Q264.6875 63.1719 263.1406 63.1719 Q262.1875 63.1719 261.8281 63.0312 L261.8281 65.5 L260.75 65.5 Z" style="fill:black; stroke:none;" /></g></g></svg>