<svg xmlns="http://www.w3.org/2000/svg" style="fill-opacity:1; color-rendering:auto; color-interpolation:auto; text-rendering:auto; stroke:black; stroke-linecap:square; stroke-miterlimit:10; shape-rendering:auto; stroke-opacity:1; fill:black; stroke-dasharray:none; font-weight:normal; stroke-width:1; font-family:'Dialog'; font-style:normal; stroke-linejoin:miter; font-size:12px; stroke-dashoffset:0; image-rendering:auto;"><defs id="genericDefs" /><g><defs id="defs1"><clipPath clipPathUnits="userSpaceOnUse" id="clipPath1"><path d="M342 82 L364 82 L364 104 L342 104 L342 82 Z" /></clipPath><clipPath clipPathUnits="userSpaceOnUse" id="clipPath2"><path d="M290 82 L312 82 L312 104 L290 104 L290 82 Z" /></clipPath><clipPath clipPathUnits="userSpaceOnUse" id="clipPath3"><path d="M260 93 C260 99.0751 255.0751 104 249 104 C242.9249 104 238 99.0751 238 93 C238 86.9249 242.9249 82 249 82 C255.0751 82 260 86.9249 260 93 Z" /></clipPath><clipPath clipPathUnits="userSpaceOnUse" id="clipPath4"><path d="M208 145 C208 151.0751 203.0751 156 197 156 C190.9249 156 186 151.0751 186 145 C186 138.9249 190.9249 134 197 134 C203.0751 134 208 138.9249 208 145 Z" /></clipPath><clipPath clipPathUnits="userSpaceOnUse" id="clipPath5"><path d="M134 186 L156 186 L156 208 L134 208 L134 186 Z" /></clipPath><clipPath clipPathUnits="userSpaceOnUse" id="clipPath6"><path d="M104 197 C104 203.0751 99.0751 208 93 208 C86.9249 208 82 203.0751 82 197 C82 190.9249 86.9249 186 93 186 C99.0751 186 104 190.9249 104 197 Z" /></clipPath><clipPath clipPathUnits="userSpaceOnUse" id="clipPath7"><path d="M41 186 L52 197 L41 208 L30 197 Z" style="fill-rule:evenodd;" /></clipPath><clipPath clipPathUnits="userSpaceOnUse" id="clipPath8"><path d="M145 156 L134 134 L156 134 Z" style="fill-rule:evenodd;" /></clipPath><clipPath clipPathUnits="userSpaceOnUse" id="clipPath9"><path d="M134 82 L156 82 L156 104 L134 104 L134 82 Z" /></clipPath><clipPath clipPathUnits="userSpaceOnUse" id="clipPath10"><path d="M104 93 C104 99.0751 99.0751 104 93 104 C86.9249 104 82 99.0751 82 93 C82 86.9249 86.9249 82 93 82 C99.0751 82 104 86.9249 104 93 Z" /></clipPath><clipPath clipPathUnits="userSpaceOnUse" id="clipPath11"><path d="M41 82 L52 93 L41 104 L30 93 Z" style="fill-rule:evenodd;" /></clipPath><clipPath clipPathUnits="userSpaceOnUse" id="clipPath12"><path d="M208 41 C208 47.0751 203.0751 52 197 52 C190.9249 52 186 47.0751 186 41 C186 34.9249 190.9249 30 197 30 C203.0751 30 208 34.9249 208 41 Z" /></clipPath><clipPath clipPathUnits="userSpaceOnUse" id="clipPath13"><path d="M134 30 L156 30 L156 52 L134 52 L134 30 Z" /></clipPath><clipPath clipPathUnits="userSpaceOnUse" id="clipPath14"><path d="M104 41 C104 47.0751 99.0751 52 93 52 C86.9249 52 82 47.0751 82 41 C82 34.9249 86.9249 30 93 30 C99.0751 30 104 34.9249 104 41 Z" /></clipPath><clipPath clipPathUnits="userSpaceOnUse" id="clipPath15"><path d="M41 30 L52 41 L41 52 L30 41 Z" style="fill-rule:evenodd;" /></clipPath><clipPath clipPathUnits="userSpaceOnUse" id="clipPath16"><path d="M353 52 L342 30 L364 30 Z" style="fill-rule:evenodd;" /></clipPath></defs><g style="fill:white; text-rendering:optimizeSpeed; stroke:white;"><rect height="238" style="stroke:none;" width="394" x="0" y="0" /></g><g ID="l-1:1,2" style="text-rendering:optimizeSpeed;"><polygon points=" 353 93 301 93" style="fill:none;" /></g><g ID="l-1:1,3" style="text-rendering:optimizeSpeed;"><polygon points=" 353 93 353 41" style="fill:none;" /></g><g ID="r-1:1" style="fill:white; text-rendering:optimizeSpeed; stroke:white;" wurcs_mono_id="1"><rect height="22" style="clip-path:url(#clipPath1); stroke:none;" width="22" x="342" y="82" /><rect height="22" style="clip-path:url(#clipPath1); fill:rgb(0,144,188); stroke:none;" width="22" x="342" y="82" /><rect height="22" style="clip-path:url(#clipPath1); fill:none; stroke:black;" width="22" x="342" y="82" /><rect height="22" style="fill:none; stroke:black;" width="22" x="342" y="82" /></g><g ID="l-1:2,4" style="text-rendering:optimizeSpeed;"><polygon points=" 301 93 249 93" style="fill:none;" /></g><g ID="r-1:2" style="fill:white; text-rendering:optimizeSpeed; stroke:white;" wurcs_mono_id="2"><rect height="22" style="clip-path:url(#clipPath2); stroke:none;" width="22" x="290" y="82" /><rect height="22" style="clip-path:url(#clipPath2); fill:rgb(0,144,188); stroke:none;" width="22" x="290" y="82" /><rect height="22" style="clip-path:url(#clipPath2); fill:none; stroke:black;" width="22" x="290" y="82" /><rect height="22" style="fill:none; stroke:black;" width="22" x="290" y="82" /></g><g ID="l-1:4,5" style="text-rendering:optimizeSpeed;"><polygon points=" 249 93 197 145" style="fill:none;" /></g><g ID="l-1:4,6" style="text-rendering:optimizeSpeed;"><polygon points=" 249 93 197 41" style="fill:none;" /></g><g ID="r-1:4" style="fill:white; text-rendering:optimizeSpeed; stroke:white;" wurcs_mono_id="3"><circle cx="249" cy="93" r="11" style="clip-path:url(#clipPath3); stroke:none;" /><rect height="22" style="clip-path:url(#clipPath3); fill:rgb(0,166,81); stroke:none;" width="22" x="238" y="82" /><rect height="22" style="clip-path:url(#clipPath3); fill:none; stroke:black;" width="22" x="238" y="82" /><circle cx="249" cy="93" r="11" style="fill:none; stroke:black;" /></g><g ID="l-1:5,7" style="text-rendering:optimizeSpeed;"><polygon points=" 197 145 145 197" style="fill:none;" /></g><g ID="l-1:5,8" style="text-rendering:optimizeSpeed;"><polygon points=" 197 145 145 93" style="fill:none;" /></g><g ID="r-1:5" style="fill:white; text-rendering:optimizeSpeed; stroke:white;" wurcs_mono_id="4"><circle cx="197" cy="145" r="11" style="clip-path:url(#clipPath4); stroke:none;" /><rect height="22" style="clip-path:url(#clipPath4); fill:rgb(0,166,81); stroke:none;" width="22" x="186" y="134" /><rect height="22" style="clip-path:url(#clipPath4); fill:none; stroke:black;" width="22" x="186" y="134" /><circle cx="197" cy="145" r="11" style="fill:none; stroke:black;" /></g><g ID="l-1:7,9" style="text-rendering:optimizeSpeed;"><polygon points=" 145 197 93 197" style="fill:none;" /></g><g ID="l-1:7,10" style="text-rendering:optimizeSpeed;"><polygon points=" 145 197 145 145" style="fill:none;" /></g><g ID="r-1:7" style="fill:white; text-rendering:optimizeSpeed; stroke:white;" wurcs_mono_id="5"><rect height="22" style="clip-path:url(#clipPath5); stroke:none;" width="22" x="134" y="186" /><rect height="22" style="clip-path:url(#clipPath5); fill:rgb(0,144,188); stroke:none;" width="22" x="134" y="186" /><rect height="22" style="clip-path:url(#clipPath5); fill:none; stroke:black;" width="22" x="134" y="186" /><rect height="22" style="fill:none; stroke:black;" width="22" x="134" y="186" /></g><g ID="l-1:9,11" style="text-rendering:optimizeSpeed;"><polygon points=" 93 197 41 197" style="fill:none;" /></g><g ID="r-1:9" style="fill:white; text-rendering:optimizeSpeed; stroke:white;" wurcs_mono_id="6"><circle cx="93" cy="197" r="11" style="clip-path:url(#clipPath6); stroke:none;" /><rect height="22" style="clip-path:url(#clipPath6); fill:rgb(255,212,0); stroke:none;" width="22" x="82" y="186" /><rect height="22" style="clip-path:url(#clipPath6); fill:none; stroke:black;" width="22" x="82" y="186" /><circle cx="93" cy="197" r="11" style="fill:none; stroke:black;" /></g><g ID="r-1:11" style="fill:white; text-rendering:optimizeSpeed; stroke:white;" wurcs_mono_id="7"><polygon points=" 41 186 52 197 41 208 30 197" style="stroke:none; clip-path:url(#clipPath7);" /><rect height="22" style="clip-path:url(#clipPath7); fill:rgb(165,67,153); stroke:none;" width="22" x="30" y="186" /><rect height="22" style="clip-path:url(#clipPath7); fill:none; stroke:black;" width="22" x="30" y="186" /><polygon points=" 41 186 52 197 41 208 30 197" style="fill:none; stroke:black;" /></g><g ID="li-1:9,11" style="fill:white; text-rendering:optimizeSpeed; font-family:'Serif'; stroke:white;"><rect height="10" style="stroke:none;" width="6" x="71" y="200" /><path d="M73.1094 209.3906 Q73.1094 209.0625 73.3359 208.8359 Q73.5625 208.6094 73.8906 208.6094 Q74.2188 208.6094 74.4453 208.8359 Q74.6719 209.0625 74.6719 209.3906 Q74.6719 209.7188 74.4453 209.9453 Q74.2188 210.1719 73.8906 210.1719 Q73.5625 210.1719 73.3359 209.9453 Q73.1094 209.7188 73.1094 209.3906 ZM71.8125 201.6406 Q72.4375 201.3594 73 201.2266 Q73.5625 201.0938 74.0469 201.0938 Q75.3438 201.0938 76.1016 201.7188 Q76.8594 202.3438 76.8594 203.4062 Q76.8594 204.5 76.2109 205.1953 Q75.5625 205.8906 74.25 206.1875 L74.25 207.6719 L73.5312 207.6719 L73.5312 205.75 Q74.5625 205.5 75.0938 204.9062 Q75.625 204.3125 75.625 203.4062 Q75.625 202.5938 75.1953 202.1328 Q74.7656 201.6719 74.0312 201.6719 Q73.3594 201.6719 72.9297 202.0547 Q72.5 202.4375 72.3906 203.1562 L71.8125 203.1562 L71.8125 201.6406 Z" style="fill:black; stroke:none;" /><rect height="10" style="stroke:none;" width="6" x="57" y="200" /><path d="M59.1094 209.3906 Q59.1094 209.0625 59.3359 208.8359 Q59.5625 208.6094 59.8906 208.6094 Q60.2188 208.6094 60.4453 208.8359 Q60.6719 209.0625 60.6719 209.3906 Q60.6719 209.7188 60.4453 209.9453 Q60.2188 210.1719 59.8906 210.1719 Q59.5625 210.1719 59.3359 209.9453 Q59.1094 209.7188 59.1094 209.3906 ZM57.8125 201.6406 Q58.4375 201.3594 59 201.2266 Q59.5625 201.0938 60.0469 201.0938 Q61.3438 201.0938 62.1016 201.7188 Q62.8594 202.3438 62.8594 203.4062 Q62.8594 204.5 62.2109 205.1953 Q61.5625 205.8906 60.25 206.1875 L60.25 207.6719 L59.5312 207.6719 L59.5312 205.75 Q60.5625 205.5 61.0938 204.9062 Q61.625 204.3125 61.625 203.4062 Q61.625 202.5938 61.1953 202.1328 Q60.7656 201.6719 60.0312 201.6719 Q59.3594 201.6719 58.9297 202.0547 Q58.5 202.4375 58.3906 203.1562 L57.8125 203.1562 L57.8125 201.6406 Z" style="fill:black; stroke:none;" /></g><g ID="r-1:10" style="fill:white; text-rendering:optimizeSpeed; stroke:white;" wurcs_mono_id="8"><polygon points=" 145 156 134 134 156 134" style="stroke:none; clip-path:url(#clipPath8);" /><rect height="22" style="clip-path:url(#clipPath8); fill:rgb(237,28,36); stroke:none;" width="22" x="134" y="134" /><rect height="22" style="clip-path:url(#clipPath8); fill:none; stroke:black;" width="22" x="134" y="134" /><polygon points=" 145 156 134 134 156 134" style="fill:none; stroke:black;" /></g><g ID="li-1:7,9" style="fill:white; text-rendering:optimizeSpeed; font-family:'Serif'; stroke:white;"><rect height="10" style="stroke:none;" width="6" x="123" y="200" /><path d="M125.1094 209.3906 Q125.1094 209.0625 125.3359 208.8359 Q125.5625 208.6094 125.8906 208.6094 Q126.2188 208.6094 126.4453 208.8359 Q126.6719 209.0625 126.6719 209.3906 Q126.6719 209.7188 126.4453 209.9453 Q126.2188 210.1719 125.8906 210.1719 Q125.5625 210.1719 125.3359 209.9453 Q125.1094 209.7188 125.1094 209.3906 ZM123.8125 201.6406 Q124.4375 201.3594 125 201.2266 Q125.5625 201.0938 126.0469 201.0938 Q127.3438 201.0938 128.1016 201.7188 Q128.8594 202.3438 128.8594 203.4062 Q128.8594 204.5 128.2109 205.1953 Q127.5625 205.8906 126.25 206.1875 L126.25 207.6719 L125.5312 207.6719 L125.5312 205.75 Q126.5625 205.5 127.0938 204.9062 Q127.625 204.3125 127.625 203.4062 Q127.625 202.5938 127.1953 202.1328 Q126.7656 201.6719 126.0312 201.6719 Q125.3594 201.6719 124.9297 202.0547 Q124.5 202.4375 124.3906 203.1562 L123.8125 203.1562 L123.8125 201.6406 Z" style="fill:black; stroke:none;" /><rect height="10" style="stroke:none;" width="6" x="109" y="200" /><path d="M111.1094 209.3906 Q111.1094 209.0625 111.3359 208.8359 Q111.5625 208.6094 111.8906 208.6094 Q112.2188 208.6094 112.4453 208.8359 Q112.6719 209.0625 112.6719 209.3906 Q112.6719 209.7188 112.4453 209.9453 Q112.2188 210.1719 111.8906 210.1719 Q111.5625 210.1719 111.3359 209.9453 Q111.1094 209.7188 111.1094 209.3906 ZM109.8125 201.6406 Q110.4375 201.3594 111 201.2266 Q111.5625 201.0938 112.0469 201.0938 Q113.3438 201.0938 114.1016 201.7188 Q114.8594 202.3438 114.8594 203.4062 Q114.8594 204.5 114.2109 205.1953 Q113.5625 205.8906 112.25 206.1875 L112.25 207.6719 L111.5312 207.6719 L111.5312 205.75 Q112.5625 205.5 113.0938 204.9062 Q113.625 204.3125 113.625 203.4062 Q113.625 202.5938 113.1953 202.1328 Q112.7656 201.6719 112.0312 201.6719 Q111.3594 201.6719 110.9297 202.0547 Q110.5 202.4375 110.3906 203.1562 L109.8125 203.1562 L109.8125 201.6406 Z" style="fill:black; stroke:none;" /></g><g ID="li-1:7,10" style="fill:white; text-rendering:optimizeSpeed; font-family:'Serif'; stroke:white;"><rect height="10" style="stroke:none;" width="6" x="134" y="173" /><path d="M136.1094 182.3906 Q136.1094 182.0625 136.3359 181.8359 Q136.5625 181.6094 136.8906 181.6094 Q137.2188 181.6094 137.4453 181.8359 Q137.6719 182.0625 137.6719 182.3906 Q137.6719 182.7188 137.4453 182.9453 Q137.2188 183.1719 136.8906 183.1719 Q136.5625 183.1719 136.3359 182.9453 Q136.1094 182.7188 136.1094 182.3906 ZM134.8125 174.6406 Q135.4375 174.3594 136 174.2266 Q136.5625 174.0938 137.0469 174.0938 Q138.3438 174.0938 139.1016 174.7188 Q139.8594 175.3438 139.8594 176.4062 Q139.8594 177.5 139.2109 178.1953 Q138.5625 178.8906 137.25 179.1875 L137.25 180.6719 L136.5312 180.6719 L136.5312 178.75 Q137.5625 178.5 138.0938 177.9062 Q138.625 177.3125 138.625 176.4062 Q138.625 175.5938 138.1953 175.1328 Q137.7656 174.6719 137.0312 174.6719 Q136.3594 174.6719 135.9297 175.0547 Q135.5 175.4375 135.3906 176.1562 L134.8125 176.1562 L134.8125 174.6406 Z" style="fill:black; stroke:none;" /><rect height="10" style="stroke:none;" width="6" x="134" y="159" /><path d="M136.1094 168.3906 Q136.1094 168.0625 136.3359 167.8359 Q136.5625 167.6094 136.8906 167.6094 Q137.2188 167.6094 137.4453 167.8359 Q137.6719 168.0625 137.6719 168.3906 Q137.6719 168.7188 137.4453 168.9453 Q137.2188 169.1719 136.8906 169.1719 Q136.5625 169.1719 136.3359 168.9453 Q136.1094 168.7188 136.1094 168.3906 ZM134.8125 160.6406 Q135.4375 160.3594 136 160.2266 Q136.5625 160.0938 137.0469 160.0938 Q138.3438 160.0938 139.1016 160.7188 Q139.8594 161.3438 139.8594 162.4062 Q139.8594 163.5 139.2109 164.1953 Q138.5625 164.8906 137.25 165.1875 L137.25 166.6719 L136.5312 166.6719 L136.5312 164.75 Q137.5625 164.5 138.0938 163.9062 Q138.625 163.3125 138.625 162.4062 Q138.625 161.5938 138.1953 161.1328 Q137.7656 160.6719 137.0312 160.6719 Q136.3594 160.6719 135.9297 161.0547 Q135.5 161.4375 135.3906 162.1562 L134.8125 162.1562 L134.8125 160.6406 Z" style="fill:black; stroke:none;" /></g><g ID="l-1:8,12" style="text-rendering:optimizeSpeed;"><polygon points=" 145 93 93 93" style="fill:none;" /></g><g ID="r-1:8" style="fill:white; text-rendering:optimizeSpeed; stroke:white;" wurcs_mono_id="9"><rect height="22" style="clip-path:url(#clipPath9); stroke:none;" width="22" x="134" y="82" /><rect height="22" style="clip-path:url(#clipPath9); fill:rgb(0,144,188); stroke:none;" width="22" x="134" y="82" /><rect height="22" style="clip-path:url(#clipPath9); fill:none; stroke:black;" width="22" x="134" y="82" /><rect height="22" style="fill:none; stroke:black;" width="22" x="134" y="82" /></g><g ID="l-1:12,13" style="text-rendering:optimizeSpeed;"><polygon points=" 93 93 41 93" style="fill:none;" /></g><g ID="r-1:12" style="fill:white; text-rendering:optimizeSpeed; stroke:white;" wurcs_mono_id="10"><circle cx="93" cy="93" r="11" style="clip-path:url(#clipPath10); stroke:none;" /><rect height="22" style="clip-path:url(#clipPath10); fill:rgb(255,212,0); stroke:none;" width="22" x="82" y="82" /><rect height="22" style="clip-path:url(#clipPath10); fill:none; stroke:black;" width="22" x="82" y="82" /><circle cx="93" cy="93" r="11" style="fill:none; stroke:black;" /></g><g ID="r-1:13" style="fill:white; text-rendering:optimizeSpeed; stroke:white;" wurcs_mono_id="11"><polygon points=" 41 82 52 93 41 104 30 93" style="stroke:none; clip-path:url(#clipPath11);" /><rect height="22" style="clip-path:url(#clipPath11); fill:rgb(165,67,153); stroke:none;" width="22" x="30" y="82" /><rect height="22" style="clip-path:url(#clipPath11); fill:none; stroke:black;" width="22" x="30" y="82" /><polygon points=" 41 82 52 93 41 104 30 93" style="fill:none; stroke:black;" /></g><g ID="li-1:12,13" style="fill:white; text-rendering:optimizeSpeed; font-family:'Serif'; stroke:white;"><rect height="10" style="stroke:none;" width="6" x="71" y="96" /><path d="M73.1094 105.3906 Q73.1094 105.0625 73.3359 104.8359 Q73.5625 104.6094 73.8906 104.6094 Q74.2188 104.6094 74.4453 104.8359 Q74.6719 105.0625 74.6719 105.3906 Q74.6719 105.7188 74.4453 105.9453 Q74.2188 106.1719 73.8906 106.1719 Q73.5625 106.1719 73.3359 105.9453 Q73.1094 105.7188 73.1094 105.3906 ZM71.8125 97.6406 Q72.4375 97.3594 73 97.2266 Q73.5625 97.0938 74.0469 97.0938 Q75.3438 97.0938 76.1016 97.7188 Q76.8594 98.3438 76.8594 99.4062 Q76.8594 100.5 76.2109 101.1953 Q75.5625 101.8906 74.25 102.1875 L74.25 103.6719 L73.5312 103.6719 L73.5312 101.75 Q74.5625 101.5 75.0938 100.9062 Q75.625 100.3125 75.625 99.4062 Q75.625 98.5938 75.1953 98.1328 Q74.7656 97.6719 74.0312 97.6719 Q73.3594 97.6719 72.9297 98.0547 Q72.5 98.4375 72.3906 99.1562 L71.8125 99.1562 L71.8125 97.6406 Z" style="fill:black; stroke:none;" /><rect height="10" style="stroke:none;" width="6" x="57" y="96" /><path d="M59.1094 105.3906 Q59.1094 105.0625 59.3359 104.8359 Q59.5625 104.6094 59.8906 104.6094 Q60.2188 104.6094 60.4453 104.8359 Q60.6719 105.0625 60.6719 105.3906 Q60.6719 105.7188 60.4453 105.9453 Q60.2188 106.1719 59.8906 106.1719 Q59.5625 106.1719 59.3359 105.9453 Q59.1094 105.7188 59.1094 105.3906 ZM57.8125 97.6406 Q58.4375 97.3594 59 97.2266 Q59.5625 97.0938 60.0469 97.0938 Q61.3438 97.0938 62.1016 97.7188 Q62.8594 98.3438 62.8594 99.4062 Q62.8594 100.5 62.2109 101.1953 Q61.5625 101.8906 60.25 102.1875 L60.25 103.6719 L59.5312 103.6719 L59.5312 101.75 Q60.5625 101.5 61.0938 100.9062 Q61.625 100.3125 61.625 99.4062 Q61.625 98.5938 61.1953 98.1328 Q60.7656 97.6719 60.0312 97.6719 Q59.3594 97.6719 58.9297 98.0547 Q58.5 98.4375 58.3906 99.1562 L57.8125 99.1562 L57.8125 97.6406 Z" style="fill:black; stroke:none;" /></g><g ID="li-1:8,12" style="fill:white; text-rendering:optimizeSpeed; font-family:'Serif'; stroke:white;"><rect height="10" style="stroke:none;" width="6" x="123" y="96" /><path d="M125.1094 105.3906 Q125.1094 105.0625 125.3359 104.8359 Q125.5625 104.6094 125.8906 104.6094 Q126.2188 104.6094 126.4453 104.8359 Q126.6719 105.0625 126.6719 105.3906 Q126.6719 105.7188 126.4453 105.9453 Q126.2188 106.1719 125.8906 106.1719 Q125.5625 106.1719 125.3359 105.9453 Q125.1094 105.7188 125.1094 105.3906 ZM123.8125 97.6406 Q124.4375 97.3594 125 97.2266 Q125.5625 97.0938 126.0469 97.0938 Q127.3438 97.0938 128.1016 97.7188 Q128.8594 98.3438 128.8594 99.4062 Q128.8594 100.5 128.2109 101.1953 Q127.5625 101.8906 126.25 102.1875 L126.25 103.6719 L125.5312 103.6719 L125.5312 101.75 Q126.5625 101.5 127.0938 100.9062 Q127.625 100.3125 127.625 99.4062 Q127.625 98.5938 127.1953 98.1328 Q126.7656 97.6719 126.0312 97.6719 Q125.3594 97.6719 124.9297 98.0547 Q124.5 98.4375 124.3906 99.1562 L123.8125 99.1562 L123.8125 97.6406 Z" style="fill:black; stroke:none;" /><rect height="10" style="stroke:none;" width="6" x="109" y="96" /><path d="M111.1094 105.3906 Q111.1094 105.0625 111.3359 104.8359 Q111.5625 104.6094 111.8906 104.6094 Q112.2188 104.6094 112.4453 104.8359 Q112.6719 105.0625 112.6719 105.3906 Q112.6719 105.7188 112.4453 105.9453 Q112.2188 106.1719 111.8906 106.1719 Q111.5625 106.1719 111.3359 105.9453 Q111.1094 105.7188 111.1094 105.3906 ZM109.8125 97.6406 Q110.4375 97.3594 111 97.2266 Q111.5625 97.0938 112.0469 97.0938 Q113.3438 97.0938 114.1016 97.7188 Q114.8594 98.3438 114.8594 99.4062 Q114.8594 100.5 114.2109 101.1953 Q113.5625 101.8906 112.25 102.1875 L112.25 103.6719 L111.5312 103.6719 L111.5312 101.75 Q112.5625 101.5 113.0938 100.9062 Q113.625 100.3125 113.625 99.4062 Q113.625 98.5938 113.1953 98.1328 Q112.7656 97.6719 112.0312 97.6719 Q111.3594 97.6719 110.9297 98.0547 Q110.5 98.4375 110.3906 99.1562 L109.8125 99.1562 L109.8125 97.6406 Z" style="fill:black; stroke:none;" /></g><g ID="li-1:5,7" style="fill:white; text-rendering:optimizeSpeed; font-family:'Serif'; stroke:white;"><rect height="10" style="stroke:none;" width="6" x="183" y="162" /><path d="M185.1094 171.3906 Q185.1094 171.0625 185.3359 170.8359 Q185.5625 170.6094 185.8906 170.6094 Q186.2188 170.6094 186.4453 170.8359 Q186.6719 171.0625 186.6719 171.3906 Q186.6719 171.7188 186.4453 171.9453 Q186.2188 172.1719 185.8906 172.1719 Q185.5625 172.1719 185.3359 171.9453 Q185.1094 171.7188 185.1094 171.3906 ZM183.8125 163.6406 Q184.4375 163.3594 185 163.2266 Q185.5625 163.0938 186.0469 163.0938 Q187.3438 163.0938 188.1016 163.7188 Q188.8594 164.3438 188.8594 165.4062 Q188.8594 166.5 188.2109 167.1953 Q187.5625 167.8906 186.25 168.1875 L186.25 169.6719 L185.5312 169.6719 L185.5312 167.75 Q186.5625 167.5 187.0938 166.9062 Q187.625 166.3125 187.625 165.4062 Q187.625 164.5938 187.1953 164.1328 Q186.7656 163.6719 186.0312 163.6719 Q185.3594 163.6719 184.9297 164.0547 Q184.5 164.4375 184.3906 165.1562 L183.8125 165.1562 L183.8125 163.6406 Z" style="fill:black; stroke:none;" /><rect height="10" style="stroke:none;" width="6" x="164" y="181" /><path d="M166.1094 190.3906 Q166.1094 190.0625 166.3359 189.8359 Q166.5625 189.6094 166.8906 189.6094 Q167.2188 189.6094 167.4453 189.8359 Q167.6719 190.0625 167.6719 190.3906 Q167.6719 190.7188 167.4453 190.9453 Q167.2188 191.1719 166.8906 191.1719 Q166.5625 191.1719 166.3359 190.9453 Q166.1094 190.7188 166.1094 190.3906 ZM164.8125 182.6406 Q165.4375 182.3594 166 182.2266 Q166.5625 182.0938 167.0469 182.0938 Q168.3438 182.0938 169.1016 182.7188 Q169.8594 183.3438 169.8594 184.4062 Q169.8594 185.5 169.2109 186.1953 Q168.5625 186.8906 167.25 187.1875 L167.25 188.6719 L166.5312 188.6719 L166.5312 186.75 Q167.5625 186.5 168.0938 185.9062 Q168.625 185.3125 168.625 184.4062 Q168.625 183.5938 168.1953 183.1328 Q167.7656 182.6719 167.0312 182.6719 Q166.3594 182.6719 165.9297 183.0547 Q165.5 183.4375 165.3906 184.1562 L164.8125 184.1562 L164.8125 182.6406 Z" style="fill:black; stroke:none;" /></g><g ID="li-1:5,8" style="fill:white; text-rendering:optimizeSpeed; font-family:'Serif'; stroke:white;"><rect height="10" style="stroke:none;" width="6" x="171" y="129" /><path d="M173.1094 138.3906 Q173.1094 138.0625 173.3359 137.8359 Q173.5625 137.6094 173.8906 137.6094 Q174.2188 137.6094 174.4453 137.8359 Q174.6719 138.0625 174.6719 138.3906 Q174.6719 138.7188 174.4453 138.9453 Q174.2188 139.1719 173.8906 139.1719 Q173.5625 139.1719 173.3359 138.9453 Q173.1094 138.7188 173.1094 138.3906 ZM171.8125 130.6406 Q172.4375 130.3594 173 130.2266 Q173.5625 130.0938 174.0469 130.0938 Q175.3438 130.0938 176.1016 130.7188 Q176.8594 131.3438 176.8594 132.4062 Q176.8594 133.5 176.2109 134.1953 Q175.5625 134.8906 174.25 135.1875 L174.25 136.6719 L173.5312 136.6719 L173.5312 134.75 Q174.5625 134.5 175.0938 133.9062 Q175.625 133.3125 175.625 132.4062 Q175.625 131.5938 175.1953 131.1328 Q174.7656 130.6719 174.0312 130.6719 Q173.3594 130.6719 172.9297 131.0547 Q172.5 131.4375 172.3906 132.1562 L171.8125 132.1562 L171.8125 130.6406 Z" style="fill:black; stroke:none;" /><rect height="10" style="stroke:none;" width="6" x="153" y="110" /><path d="M155.1094 119.3906 Q155.1094 119.0625 155.3359 118.8359 Q155.5625 118.6094 155.8906 118.6094 Q156.2188 118.6094 156.4453 118.8359 Q156.6719 119.0625 156.6719 119.3906 Q156.6719 119.7188 156.4453 119.9453 Q156.2188 120.1719 155.8906 120.1719 Q155.5625 120.1719 155.3359 119.9453 Q155.1094 119.7188 155.1094 119.3906 ZM153.8125 111.6406 Q154.4375 111.3594 155 111.2266 Q155.5625 111.0938 156.0469 111.0938 Q157.3438 111.0938 158.1016 111.7188 Q158.8594 112.3438 158.8594 113.4062 Q158.8594 114.5 158.2109 115.1953 Q157.5625 115.8906 156.25 116.1875 L156.25 117.6719 L155.5312 117.6719 L155.5312 115.75 Q156.5625 115.5 157.0938 114.9062 Q157.625 114.3125 157.625 113.4062 Q157.625 112.5938 157.1953 112.1328 Q156.7656 111.6719 156.0312 111.6719 Q155.3594 111.6719 154.9297 112.0547 Q154.5 112.4375 154.3906 113.1562 L153.8125 113.1562 L153.8125 111.6406 Z" style="fill:black; stroke:none;" /></g><g ID="l-1:6,14" style="text-rendering:optimizeSpeed;"><polygon points=" 197 41 145 41" style="fill:none;" /></g><g ID="r-1:6" style="fill:white; text-rendering:optimizeSpeed; stroke:white;" wurcs_mono_id="12"><circle cx="197" cy="41" r="11" style="clip-path:url(#clipPath12); stroke:none;" /><rect height="22" style="clip-path:url(#clipPath12); fill:rgb(0,166,81); stroke:none;" width="22" x="186" y="30" /><rect height="22" style="clip-path:url(#clipPath12); fill:none; stroke:black;" width="22" x="186" y="30" /><circle cx="197" cy="41" r="11" style="fill:none; stroke:black;" /></g><g ID="l-1:14,15" style="text-rendering:optimizeSpeed;"><polygon points=" 145 41 93 41" style="fill:none;" /></g><g ID="r-1:14" style="fill:white; text-rendering:optimizeSpeed; stroke:white;" wurcs_mono_id="13"><rect height="22" style="clip-path:url(#clipPath13); stroke:none;" width="22" x="134" y="30" /><rect height="22" style="clip-path:url(#clipPath13); fill:rgb(0,144,188); stroke:none;" width="22" x="134" y="30" /><rect height="22" style="clip-path:url(#clipPath13); fill:none; stroke:black;" width="22" x="134" y="30" /><rect height="22" style="fill:none; stroke:black;" width="22" x="134" y="30" /></g><g ID="l-1:15,16" style="text-rendering:optimizeSpeed;"><polygon points=" 93 41 41 41" style="fill:none;" /></g><g ID="r-1:15" style="fill:white; text-rendering:optimizeSpeed; stroke:white;" wurcs_mono_id="14"><circle cx="93" cy="41" r="11" style="clip-path:url(#clipPath14); stroke:none;" /><rect height="22" style="clip-path:url(#clipPath14); fill:rgb(255,212,0); stroke:none;" width="22" x="82" y="30" /><rect height="22" style="clip-path:url(#clipPath14); fill:none; stroke:black;" width="22" x="82" y="30" /><circle cx="93" cy="41" r="11" style="fill:none; stroke:black;" /></g><g ID="r-1:16" style="fill:white; text-rendering:optimizeSpeed; stroke:white;" wurcs_mono_id="15"><polygon points=" 41 30 52 41 41 52 30 41" style="stroke:none; clip-path:url(#clipPath15);" /><rect height="22" style="clip-path:url(#clipPath15); fill:rgb(165,67,153); stroke:none;" width="22" x="30" y="30" /><rect height="22" style="clip-path:url(#clipPath15); fill:none; stroke:black;" width="22" x="30" y="30" /><polygon points=" 41 30 52 41 41 52 30 41" style="fill:none; stroke:black;" /></g><g ID="li-1:15,16" style="fill:white; text-rendering:optimizeSpeed; font-family:'Serif'; stroke:white;"><rect height="10" style="stroke:none;" width="6" x="71" y="44" /><path d="M73.1094 53.3906 Q73.1094 53.0625 73.3359 52.8359 Q73.5625 52.6094 73.8906 52.6094 Q74.2188 52.6094 74.4453 52.8359 Q74.6719 53.0625 74.6719 53.3906 Q74.6719 53.7188 74.4453 53.9453 Q74.2188 54.1719 73.8906 54.1719 Q73.5625 54.1719 73.3359 53.9453 Q73.1094 53.7188 73.1094 53.3906 ZM71.8125 45.6406 Q72.4375 45.3594 73 45.2266 Q73.5625 45.0938 74.0469 45.0938 Q75.3438 45.0938 76.1016 45.7188 Q76.8594 46.3438 76.8594 47.4062 Q76.8594 48.5 76.2109 49.1953 Q75.5625 49.8906 74.25 50.1875 L74.25 51.6719 L73.5312 51.6719 L73.5312 49.75 Q74.5625 49.5 75.0938 48.9062 Q75.625 48.3125 75.625 47.4062 Q75.625 46.5938 75.1953 46.1328 Q74.7656 45.6719 74.0312 45.6719 Q73.3594 45.6719 72.9297 46.0547 Q72.5 46.4375 72.3906 47.1562 L71.8125 47.1562 L71.8125 45.6406 Z" style="fill:black; stroke:none;" /><rect height="10" style="stroke:none;" width="6" x="57" y="44" /><path d="M59.1094 53.3906 Q59.1094 53.0625 59.3359 52.8359 Q59.5625 52.6094 59.8906 52.6094 Q60.2188 52.6094 60.4453 52.8359 Q60.6719 53.0625 60.6719 53.3906 Q60.6719 53.7188 60.4453 53.9453 Q60.2188 54.1719 59.8906 54.1719 Q59.5625 54.1719 59.3359 53.9453 Q59.1094 53.7188 59.1094 53.3906 ZM57.8125 45.6406 Q58.4375 45.3594 59 45.2266 Q59.5625 45.0938 60.0469 45.0938 Q61.3438 45.0938 62.1016 45.7188 Q62.8594 46.3438 62.8594 47.4062 Q62.8594 48.5 62.2109 49.1953 Q61.5625 49.8906 60.25 50.1875 L60.25 51.6719 L59.5312 51.6719 L59.5312 49.75 Q60.5625 49.5 61.0938 48.9062 Q61.625 48.3125 61.625 47.4062 Q61.625 46.5938 61.1953 46.1328 Q60.7656 45.6719 60.0312 45.6719 Q59.3594 45.6719 58.9297 46.0547 Q58.5 46.4375 58.3906 47.1562 L57.8125 47.1562 L57.8125 45.6406 Z" style="fill:black; stroke:none;" /></g><g ID="li-1:14,15" style="fill:white; text-rendering:optimizeSpeed; font-family:'Serif'; stroke:white;"><rect height="10" style="stroke:none;" width="6" x="123" y="44" /><path d="M125.1094 53.3906 Q125.1094 53.0625 125.3359 52.8359 Q125.5625 52.6094 125.8906 52.6094 Q126.2188 52.6094 126.4453 52.8359 Q126.6719 53.0625 126.6719 53.3906 Q126.6719 53.7188 126.4453 53.9453 Q126.2188 54.1719 125.8906 54.1719 Q125.5625 54.1719 125.3359 53.9453 Q125.1094 53.7188 125.1094 53.3906 ZM123.8125 45.6406 Q124.4375 45.3594 125 45.2266 Q125.5625 45.0938 126.0469 45.0938 Q127.3438 45.0938 128.1016 45.7188 Q128.8594 46.3438 128.8594 47.4062 Q128.8594 48.5 128.2109 49.1953 Q127.5625 49.8906 126.25 50.1875 L126.25 51.6719 L125.5312 51.6719 L125.5312 49.75 Q126.5625 49.5 127.0938 48.9062 Q127.625 48.3125 127.625 47.4062 Q127.625 46.5938 127.1953 46.1328 Q126.7656 45.6719 126.0312 45.6719 Q125.3594 45.6719 124.9297 46.0547 Q124.5 46.4375 124.3906 47.1562 L123.8125 47.1562 L123.8125 45.6406 Z" style="fill:black; stroke:none;" /><rect height="10" style="stroke:none;" width="6" x="109" y="44" /><path d="M111.1094 53.3906 Q111.1094 53.0625 111.3359 52.8359 Q111.5625 52.6094 111.8906 52.6094 Q112.2188 52.6094 112.4453 52.8359 Q112.6719 53.0625 112.6719 53.3906 Q112.6719 53.7188 112.4453 53.9453 Q112.2188 54.1719 111.8906 54.1719 Q111.5625 54.1719 111.3359 53.9453 Q111.1094 53.7188 111.1094 53.3906 ZM109.8125 45.6406 Q110.4375 45.3594 111 45.2266 Q111.5625 45.0938 112.0469 45.0938 Q113.3438 45.0938 114.1016 45.7188 Q114.8594 46.3438 114.8594 47.4062 Q114.8594 48.5 114.2109 49.1953 Q113.5625 49.8906 112.25 50.1875 L112.25 51.6719 L111.5312 51.6719 L111.5312 49.75 Q112.5625 49.5 113.0938 48.9062 Q113.625 48.3125 113.625 47.4062 Q113.625 46.5938 113.1953 46.1328 Q112.7656 45.6719 112.0312 45.6719 Q111.3594 45.6719 110.9297 46.0547 Q110.5 46.4375 110.3906 47.1562 L109.8125 47.1562 L109.8125 45.6406 Z" style="fill:black; stroke:none;" /></g><g ID="li-1:6,14" style="fill:white; text-rendering:optimizeSpeed; font-family:'Serif'; stroke:white;"><rect height="10" style="stroke:none;" width="6" x="175" y="44" /><path d="M177.1094 53.3906 Q177.1094 53.0625 177.3359 52.8359 Q177.5625 52.6094 177.8906 52.6094 Q178.2188 52.6094 178.4453 52.8359 Q178.6719 53.0625 178.6719 53.3906 Q178.6719 53.7188 178.4453 53.9453 Q178.2188 54.1719 177.8906 54.1719 Q177.5625 54.1719 177.3359 53.9453 Q177.1094 53.7188 177.1094 53.3906 ZM175.8125 45.6406 Q176.4375 45.3594 177 45.2266 Q177.5625 45.0938 178.0469 45.0938 Q179.3438 45.0938 180.1016 45.7188 Q180.8594 46.3438 180.8594 47.4062 Q180.8594 48.5 180.2109 49.1953 Q179.5625 49.8906 178.25 50.1875 L178.25 51.6719 L177.5312 51.6719 L177.5312 49.75 Q178.5625 49.5 179.0938 48.9062 Q179.625 48.3125 179.625 47.4062 Q179.625 46.5938 179.1953 46.1328 Q178.7656 45.6719 178.0312 45.6719 Q177.3594 45.6719 176.9297 46.0547 Q176.5 46.4375 176.3906 47.1562 L175.8125 47.1562 L175.8125 45.6406 Z" style="fill:black; stroke:none;" /><rect height="10" style="stroke:none;" width="6" x="161" y="44" /><path d="M163.1094 53.3906 Q163.1094 53.0625 163.3359 52.8359 Q163.5625 52.6094 163.8906 52.6094 Q164.2188 52.6094 164.4453 52.8359 Q164.6719 53.0625 164.6719 53.3906 Q164.6719 53.7188 164.4453 53.9453 Q164.2188 54.1719 163.8906 54.1719 Q163.5625 54.1719 163.3359 53.9453 Q163.1094 53.7188 163.1094 53.3906 ZM161.8125 45.6406 Q162.4375 45.3594 163 45.2266 Q163.5625 45.0938 164.0469 45.0938 Q165.3438 45.0938 166.1016 45.7188 Q166.8594 46.3438 166.8594 47.4062 Q166.8594 48.5 166.2109 49.1953 Q165.5625 49.8906 164.25 50.1875 L164.25 51.6719 L163.5312 51.6719 L163.5312 49.75 Q164.5625 49.5 165.0938 48.9062 Q165.625 48.3125 165.625 47.4062 Q165.625 46.5938 165.1953 46.1328 Q164.7656 45.6719 164.0312 45.6719 Q163.3594 45.6719 162.9297 46.0547 Q162.5 46.4375 162.3906 47.1562 L161.8125 47.1562 L161.8125 45.6406 Z" style="fill:black; stroke:none;" /></g><g ID="li-1:4,5" style="fill:white; text-rendering:optimizeSpeed; font-family:'Serif'; stroke:white;"><rect height="11" style="stroke:none;" width="19" x="228" y="109" /><path d="M229.1719 111.625 Q229.8594 111.3594 230.4844 111.2266 Q231.1094 111.0938 231.6562 111.0938 Q232.9531 111.0938 233.6719 111.6484 Q234.3906 112.2031 234.3906 113.1875 Q234.3906 113.9688 233.8906 114.5 Q233.3906 115.0312 232.4844 115.2188 Q233.5625 115.375 234.1562 116.0078 Q234.75 116.6406 234.75 117.6406 Q234.75 118.8594 233.9219 119.5156 Q233.0938 120.1719 231.5469 120.1719 Q230.8594 120.1719 230.2109 120.0234 Q229.5625 119.875 228.9219 119.5781 L228.9219 117.875 L229.5781 117.875 Q229.625 118.7188 230.1406 119.1562 Q230.6562 119.5938 231.5781 119.5938 Q232.4688 119.5938 232.9922 119.0703 Q233.5156 118.5469 233.5156 117.6562 Q233.5156 116.625 232.9766 116.0938 Q232.4375 115.5625 231.4062 115.5625 L230.8594 115.5625 L230.8594 114.9531 L231.1406 114.9531 Q232.1719 114.9531 232.6875 114.5312 Q233.2031 114.1094 233.2031 113.25 Q233.2031 112.4844 232.7812 112.0781 Q232.3594 111.6719 231.5625 111.6719 Q230.7656 111.6719 230.3359 112.0469 Q229.9062 112.4219 229.8281 113.1562 L229.1719 113.1562 L229.1719 111.625 ZM238.7441 111.25 L239.6816 111.25 L236.5723 121.1094 L235.6348 121.1094 L238.7441 111.25 ZM243.5996 119.5938 Q244.4277 119.5938 244.873 118.9844 Q245.3184 118.375 245.3184 117.2344 Q245.3184 116.1094 244.873 115.5 Q244.4277 114.8906 243.5996 114.8906 Q242.7715 114.8906 242.3262 115.4766 Q241.8809 116.0625 241.8809 117.1719 Q241.8809 118.3281 242.3262 118.9609 Q242.7715 119.5938 243.5996 119.5938 ZM241.6934 115.1875 Q242.0996 114.75 242.5996 114.5312 Q243.0996 114.3125 243.7402 114.3125 Q245.0371 114.3125 245.7949 115.0938 Q246.5527 115.875 246.5527 117.2344 Q246.5527 118.5625 245.7402 119.3672 Q244.9277 120.1719 243.5527 120.1719 Q242.0684 120.1719 241.2715 119.0625 Q240.4746 117.9531 240.4746 115.9062 Q240.4746 113.6094 241.4199 112.3516 Q242.3652 111.0938 244.084 111.0938 Q244.5527 111.0938 245.0605 111.1797 Q245.5684 111.2656 246.0996 111.4375 L246.0996 112.8906 L245.4434 112.8906 Q245.3652 112.2969 244.9824 111.9844 Q244.5996 111.6719 243.959 111.6719 Q242.8184 111.6719 242.2637 112.5312 Q241.709 113.3906 241.6934 115.1875 Z" style="fill:black; stroke:none;" /><rect height="8" style="stroke:none;" width="8" x="215" y="130" /><path d="M220.1875 136.4688 L219.9531 137.1094 Q219.7656 137.625 219.2031 137.9375 Q218.8438 138.1562 218.2031 138.1406 Q217.0469 138.1406 216.3281 137.2344 Q215.5938 136.3281 215.5938 134.8594 Q215.5938 133.4219 216.3281 132.4844 Q217.0156 131.5938 218.4531 131.6094 Q219.4531 131.6094 219.9531 132 Q220.4062 132.3438 220.5781 133.0938 L220.625 133.3125 L220.8438 132.6719 Q221.0625 132.0469 221.6562 131.75 L222.25 131.75 L222.25 132.0938 Q221.6875 132.2656 221.5 132.8125 L220.8906 134.4844 L221.2969 136.2812 Q221.5 137.2031 221.7344 137.2969 Q222.0469 137.4375 222.7812 137 L222.7812 137.7188 Q221.5938 138.4062 220.75 137.6875 Q220.375 137.3594 220.2656 136.875 L220.1875 136.4688 ZM219.9219 135.3125 L219.5625 133.5938 Q219.2656 132.2188 218.4688 132.2188 Q217.7969 132.2031 217.2812 132.9375 Q216.8594 133.5156 216.8594 134.875 Q216.8594 136.1719 217.2812 136.8281 Q217.75 137.5469 218.5312 137.5 Q219.2031 137.4375 219.6875 136 L219.9219 135.3125 Z" style="fill:black; stroke:none;" /></g><g ID="li-1:4,6" style="fill:white; text-rendering:optimizeSpeed; font-family:'Serif'; stroke:white;"><rect height="11" style="stroke:none;" width="19" x="217" y="76" /><path d="M218.1719 78.625 Q218.8594 78.3594 219.4844 78.2266 Q220.1094 78.0938 220.6562 78.0938 Q221.9531 78.0938 222.6719 78.6484 Q223.3906 79.2031 223.3906 80.1875 Q223.3906 80.9688 222.8906 81.5 Q222.3906 82.0312 221.4844 82.2188 Q222.5625 82.375 223.1562 83.0078 Q223.75 83.6406 223.75 84.6406 Q223.75 85.8594 222.9219 86.5156 Q222.0938 87.1719 220.5469 87.1719 Q219.8594 87.1719 219.2109 87.0234 Q218.5625 86.875 217.9219 86.5781 L217.9219 84.875 L218.5781 84.875 Q218.625 85.7188 219.1406 86.1562 Q219.6562 86.5938 220.5781 86.5938 Q221.4688 86.5938 221.9922 86.0703 Q222.5156 85.5469 222.5156 84.6562 Q222.5156 83.625 221.9766 83.0938 Q221.4375 82.5625 220.4062 82.5625 L219.8594 82.5625 L219.8594 81.9531 L220.1406 81.9531 Q221.1719 81.9531 221.6875 81.5312 Q222.2031 81.1094 222.2031 80.25 Q222.2031 79.4844 221.7812 79.0781 Q221.3594 78.6719 220.5625 78.6719 Q219.7656 78.6719 219.3359 79.0469 Q218.9062 79.4219 218.8281 80.1562 L218.1719 80.1562 L218.1719 78.625 ZM227.7441 78.25 L228.6816 78.25 L225.5723 88.1094 L224.6348 88.1094 L227.7441 78.25 ZM232.5996 86.5938 Q233.4277 86.5938 233.873 85.9844 Q234.3184 85.375 234.3184 84.2344 Q234.3184 83.1094 233.873 82.5 Q233.4277 81.8906 232.5996 81.8906 Q231.7715 81.8906 231.3262 82.4766 Q230.8809 83.0625 230.8809 84.1719 Q230.8809 85.3281 231.3262 85.9609 Q231.7715 86.5938 232.5996 86.5938 ZM230.6934 82.1875 Q231.0996 81.75 231.5996 81.5312 Q232.0996 81.3125 232.7402 81.3125 Q234.0371 81.3125 234.7949 82.0938 Q235.5527 82.875 235.5527 84.2344 Q235.5527 85.5625 234.7402 86.3672 Q233.9277 87.1719 232.5527 87.1719 Q231.0684 87.1719 230.2715 86.0625 Q229.4746 84.9531 229.4746 82.9062 Q229.4746 80.6094 230.4199 79.3516 Q231.3652 78.0938 233.084 78.0938 Q233.5527 78.0938 234.0605 78.1797 Q234.5684 78.2656 235.0996 78.4375 L235.0996 79.8906 L234.4434 79.8906 Q234.3652 79.2969 233.9824 78.9844 Q233.5996 78.6719 232.959 78.6719 Q231.8184 78.6719 231.2637 79.5312 Q230.709 80.3906 230.6934 82.1875 Z" style="fill:black; stroke:none;" /><rect height="8" style="stroke:none;" width="8" x="204" y="59" /><path d="M209.1875 65.4688 L208.9531 66.1094 Q208.7656 66.625 208.2031 66.9375 Q207.8438 67.1562 207.2031 67.1406 Q206.0469 67.1406 205.3281 66.2344 Q204.5938 65.3281 204.5938 63.8594 Q204.5938 62.4219 205.3281 61.4844 Q206.0156 60.5938 207.4531 60.6094 Q208.4531 60.6094 208.9531 61 Q209.4062 61.3438 209.5781 62.0938 L209.625 62.3125 L209.8438 61.6719 Q210.0625 61.0469 210.6562 60.75 L211.25 60.75 L211.25 61.0938 Q210.6875 61.2656 210.5 61.8125 L209.8906 63.4844 L210.2969 65.2812 Q210.5 66.2031 210.7344 66.2969 Q211.0469 66.4375 211.7812 66 L211.7812 66.7188 Q210.5938 67.4062 209.75 66.6875 Q209.375 66.3594 209.2656 65.875 L209.1875 65.4688 ZM208.9219 64.3125 L208.5625 62.5938 Q208.2656 61.2188 207.4688 61.2188 Q206.7969 61.2031 206.2812 61.9375 Q205.8594 62.5156 205.8594 63.875 Q205.8594 65.1719 206.2812 65.8281 Q206.75 66.5469 207.5312 66.5 Q208.2031 66.4375 208.6875 65 L208.9219 64.3125 Z" style="fill:black; stroke:none;" /></g><g ID="li-1:2,4" style="fill:white; text-rendering:optimizeSpeed; font-family:'Serif'; stroke:white;"><rect height="9" style="stroke:none;" width="8" x="278" y="96" /><path d="M282.1875 102.0312 L282.1875 97.375 L279.2031 102.0312 L282.1875 102.0312 ZM284.7656 105 L280.7812 105 L280.7812 104.375 L282.1875 104.375 L282.1875 102.6562 L278.375 102.6562 L278.375 102.0156 L282.2031 96.0938 L283.3594 96.0938 L283.3594 102.0312 L285.0312 102.0312 L285.0312 102.6562 L283.3594 102.6562 L283.3594 104.375 L284.7656 104.375 L284.7656 105 Z" style="fill:black; stroke:none;" /><rect height="13" style="stroke:none;" width="7" x="264" y="94" /><path d="M265.8281 106.25 Q266.2969 106.5938 267.1719 106.5938 Q268.0625 106.5938 268.5781 106.0703 Q269.0938 105.5469 269.0938 104.6562 Q269.0938 103.4219 268.5625 102.8906 Q268.0156 102.3594 267 102.3594 L266.4375 102.3594 L266.4375 101.7188 L266.7344 101.7188 Q267.4844 101.7188 268 101.2969 Q268.4219 100.9531 268.4219 100.0156 Q268.4219 99.6094 268.1406 99.1406 Q267.6875 98.375 267.1562 98.3906 Q265.8281 98.4375 265.8281 100.7812 L265.8281 106.25 ZM264.75 109.5 L264.75 100.7812 Q264.75 98.3281 266.0781 98 Q266.7656 97.8125 267.25 97.8125 Q268.3438 97.8125 269.0469 98.6719 Q269.6094 99.3594 269.6094 99.9375 Q269.6094 100.7812 269.2031 101.2656 Q268.7969 101.75 268.0625 101.9844 Q269.1406 102.1406 269.75 102.7812 Q270.3281 103.4062 270.3281 104.6328 Q270.3281 105.8594 269.5078 106.5156 Q268.6875 107.1719 267.1406 107.1719 Q266.1875 107.1719 265.8281 107.0312 L265.8281 109.5 L264.75 109.5 Z" style="fill:black; stroke:none;" /></g><g ID="r-1:3" style="fill:white; text-rendering:optimizeSpeed; stroke:white;" wurcs_mono_id="16"><polygon points=" 353 52 342 30 364 30" style="stroke:none; clip-path:url(#clipPath16);" /><rect height="22" style="clip-path:url(#clipPath16); fill:rgb(237,28,36); stroke:none;" width="22" x="342" y="30" /><rect height="22" style="clip-path:url(#clipPath16); fill:none; stroke:black;" width="22" x="342" y="30" /><polygon points=" 353 52 342 30 364 30" style="fill:none; stroke:black;" /></g><g ID="li-1:1,2" style="fill:white; text-rendering:optimizeSpeed; font-family:'Serif'; stroke:white;"><rect height="9" style="stroke:none;" width="8" x="330" y="96" /><path d="M334.1875 102.0312 L334.1875 97.375 L331.2031 102.0312 L334.1875 102.0312 ZM336.7656 105 L332.7812 105 L332.7812 104.375 L334.1875 104.375 L334.1875 102.6562 L330.375 102.6562 L330.375 102.0156 L334.2031 96.0938 L335.3594 96.0938 L335.3594 102.0312 L337.0312 102.0312 L337.0312 102.6562 L335.3594 102.6562 L335.3594 104.375 L336.7656 104.375 L336.7656 105 Z" style="fill:black; stroke:none;" /><rect height="13" style="stroke:none;" width="7" x="316" y="94" /><path d="M317.8281 106.25 Q318.2969 106.5938 319.1719 106.5938 Q320.0625 106.5938 320.5781 106.0703 Q321.0938 105.5469 321.0938 104.6562 Q321.0938 103.4219 320.5625 102.8906 Q320.0156 102.3594 319 102.3594 L318.4375 102.3594 L318.4375 101.7188 L318.7344 101.7188 Q319.4844 101.7188 320 101.2969 Q320.4219 100.9531 320.4219 100.0156 Q320.4219 99.6094 320.1406 99.1406 Q319.6875 98.375 319.1562 98.3906 Q317.8281 98.4375 317.8281 100.7812 L317.8281 106.25 ZM316.75 109.5 L316.75 100.7812 Q316.75 98.3281 318.0781 98 Q318.7656 97.8125 319.25 97.8125 Q320.3438 97.8125 321.0469 98.6719 Q321.6094 99.3594 321.6094 99.9375 Q321.6094 100.7812 321.2031 101.2656 Q320.7969 101.75 320.0625 101.9844 Q321.1406 102.1406 321.75 102.7812 Q322.3281 103.4062 322.3281 104.6328 Q322.3281 105.8594 321.5078 106.5156 Q320.6875 107.1719 319.1406 107.1719 Q318.1875 107.1719 317.8281 107.0312 L317.8281 109.5 L316.75 109.5 Z" style="fill:black; stroke:none;" /></g><g ID="li-1:1,3" style="fill:white; text-rendering:optimizeSpeed; font-family:'Serif'; stroke:white;"><rect height="10" style="stroke:none;" width="7" x="341" y="69" /><path d="M344.9219 78.5938 Q345.75 78.5938 346.1953 77.9844 Q346.6406 77.375 346.6406 76.2344 Q346.6406 75.1094 346.1953 74.5 Q345.75 73.8906 344.9219 73.8906 Q344.0938 73.8906 343.6484 74.4766 Q343.2031 75.0625 343.2031 76.1719 Q343.2031 77.3281 343.6484 77.9609 Q344.0938 78.5938 344.9219 78.5938 ZM343.0156 74.1875 Q343.4219 73.75 343.9219 73.5312 Q344.4219 73.3125 345.0625 73.3125 Q346.3594 73.3125 347.1172 74.0938 Q347.875 74.875 347.875 76.2344 Q347.875 77.5625 347.0625 78.3672 Q346.25 79.1719 344.875 79.1719 Q343.3906 79.1719 342.5938 78.0625 Q341.7969 76.9531 341.7969 74.9062 Q341.7969 72.6094 342.7422 71.3516 Q343.6875 70.0938 345.4062 70.0938 Q345.875 70.0938 346.3828 70.1797 Q346.8906 70.2656 347.4219 70.4375 L347.4219 71.8906 L346.7656 71.8906 Q346.6875 71.2969 346.3047 70.9844 Q345.9219 70.6719 345.2812 70.6719 Q344.1406 70.6719 343.5859 71.5312 Q343.0312 72.3906 343.0156 74.1875 Z" style="fill:black; stroke:none;" /><rect height="8" style="stroke:none;" width="8" x="341" y="56" /><path d="M346.1875 62.4688 L345.9531 63.1094 Q345.7656 63.625 345.2031 63.9375 Q344.8438 64.1562 344.2031 64.1406 Q343.0469 64.1406 342.3281 63.2344 Q341.5938 62.3281 341.5938 60.8594 Q341.5938 59.4219 342.3281 58.4844 Q343.0156 57.5938 344.4531 57.6094 Q345.4531 57.6094 345.9531 58 Q346.4062 58.3438 346.5781 59.0938 L346.625 59.3125 L346.8438 58.6719 Q347.0625 58.0469 347.6562 57.75 L348.25 57.75 L348.25 58.0938 Q347.6875 58.2656 347.5 58.8125 L346.8906 60.4844 L347.2969 62.2812 Q347.5 63.2031 347.7344 63.2969 Q348.0469 63.4375 348.7812 63 L348.7812 63.7188 Q347.5938 64.4062 346.75 63.6875 Q346.375 63.3594 346.2656 62.875 L346.1875 62.4688 ZM345.9219 61.3125 L345.5625 59.5938 Q345.2656 58.2188 344.4688 58.2188 Q343.7969 58.2031 343.2812 58.9375 Q342.8594 59.5156 342.8594 60.875 Q342.8594 62.1719 343.2812 62.8281 Q343.75 63.5469 344.5312 63.5 Q345.2031 63.4375 345.6875 62 L345.9219 61.3125 Z" style="fill:black; stroke:none;" /></g></g></svg>