<svg xmlns="http://www.w3.org/2000/svg" style="fill-opacity:1; color-rendering:auto; color-interpolation:auto; text-rendering:auto; stroke:black; stroke-linecap:square; stroke-miterlimit:10; shape-rendering:auto; stroke-opacity:1; fill:black; stroke-dasharray:none; font-weight:normal; stroke-width:1; font-family:'Dialog'; font-style:normal; stroke-linejoin:miter; font-size:12px; stroke-dashoffset:0; image-rendering:auto;"><defs id="genericDefs" /><g><defs id="defs1"><clipPath clipPathUnits="userSpaceOnUse" id="clipPath1"><path d="M186 82 L208 82 L208 104 L186 104 L186 82 Z" /></clipPath><clipPath clipPathUnits="userSpaceOnUse" id="clipPath2"><path d="M134 134 L156 134 L156 156 L134 156 L134 134 Z" /></clipPath><clipPath clipPathUnits="userSpaceOnUse" id="clipPath3"><path d="M104 145 C104 151.0751 99.0751 156 93 156 C86.9249 156 82 151.0751 82 145 C82 138.9249 86.9249 134 93 134 C99.0751 134 104 138.9249 104 145 Z" /></clipPath><clipPath clipPathUnits="userSpaceOnUse" id="clipPath4"><path d="M41 134 L52 145 L41 156 L30 145 Z" style="fill-rule:evenodd;" /></clipPath><clipPath clipPathUnits="userSpaceOnUse" id="clipPath5"><path d="M156 41 C156 47.0751 151.0751 52 145 52 C138.9249 52 134 47.0751 134 41 C134 34.9249 138.9249 30 145 30 C151.0751 30 156 34.9249 156 41 Z" /></clipPath><clipPath clipPathUnits="userSpaceOnUse" id="clipPath6"><path d="M145 82 L156 104 L134 104 Z" style="fill-rule:evenodd;" /></clipPath></defs><g style="fill:white; text-rendering:optimizeSpeed; stroke:white;"><rect height="186" style="stroke:none;" width="238" x="0" y="0" /></g><g ID="l-1:1,2" style="text-rendering:optimizeSpeed;"><polygon points=" 197 93 145 145" style="fill:none;" /></g><g ID="l-1:1,3" style="text-rendering:optimizeSpeed;"><polygon points=" 197 93 145 41" style="fill:none;" /></g><g ID="r-1:1" style="fill:white; text-rendering:optimizeSpeed; stroke:white;" wurcs_mono_id="1"><rect height="22" style="clip-path:url(#clipPath1); stroke:none;" width="22" x="186" y="82" /><rect height="22" style="clip-path:url(#clipPath1); fill:rgb(255,212,0); stroke:none;" width="22" x="186" y="82" /><rect height="22" style="clip-path:url(#clipPath1); fill:none; stroke:black;" width="22" x="186" y="82" /><rect height="22" style="fill:none; stroke:black;" width="22" x="186" y="82" /></g><g ID="l-1:2,4" style="text-rendering:optimizeSpeed;"><polygon points=" 145 145 93 145" style="fill:none;" /></g><g ID="r-1:2" style="fill:white; text-rendering:optimizeSpeed; stroke:white;" wurcs_mono_id="2"><rect height="22" style="clip-path:url(#clipPath2); stroke:none;" width="22" x="134" y="134" /><rect height="22" style="clip-path:url(#clipPath2); fill:rgb(0,144,188); stroke:none;" width="22" x="134" y="134" /><rect height="22" style="clip-path:url(#clipPath2); fill:none; stroke:black;" width="22" x="134" y="134" /><rect height="22" style="fill:none; stroke:black;" width="22" x="134" y="134" /></g><g ID="l-1:4,5" style="text-rendering:optimizeSpeed;"><polygon points=" 93 145 41 145" style="fill:none;" /></g><g ID="r-1:4" style="fill:white; text-rendering:optimizeSpeed; stroke:white;" wurcs_mono_id="3"><circle cx="93" cy="145" r="11" style="clip-path:url(#clipPath3); stroke:none;" /><rect height="22" style="clip-path:url(#clipPath3); fill:rgb(255,212,0); stroke:none;" width="22" x="82" y="134" /><rect height="22" style="clip-path:url(#clipPath3); fill:none; stroke:black;" width="22" x="82" y="134" /><circle cx="93" cy="145" r="11" style="fill:none; stroke:black;" /></g><g ID="r-1:5" style="fill:white; text-rendering:optimizeSpeed; stroke:white;" wurcs_mono_id="4"><polygon points=" 41 134 52 145 41 156 30 145" style="stroke:none; clip-path:url(#clipPath4);" /><rect height="22" style="clip-path:url(#clipPath4); fill:rgb(165,67,153); stroke:none;" width="22" x="30" y="134" /><rect height="22" style="clip-path:url(#clipPath4); fill:none; stroke:black;" width="22" x="30" y="134" /><polygon points=" 41 134 52 145 41 156 30 145" style="fill:none; stroke:black;" /></g><g ID="li-1:4,5" style="fill:white; text-rendering:optimizeSpeed; font-family:'Serif'; stroke:white;"><rect height="10" style="stroke:none;" width="7" x="70" y="148" /><path d="M71.1719 149.625 Q71.8594 149.3594 72.4844 149.2266 Q73.1094 149.0938 73.6562 149.0938 Q74.9531 149.0938 75.6719 149.6484 Q76.3906 150.2031 76.3906 151.1875 Q76.3906 151.9688 75.8906 152.5 Q75.3906 153.0312 74.4844 153.2188 Q75.5625 153.375 76.1562 154.0078 Q76.75 154.6406 76.75 155.6406 Q76.75 156.8594 75.9219 157.5156 Q75.0938 158.1719 73.5469 158.1719 Q72.8594 158.1719 72.2109 158.0234 Q71.5625 157.875 70.9219 157.5781 L70.9219 155.875 L71.5781 155.875 Q71.625 156.7188 72.1406 157.1562 Q72.6562 157.5938 73.5781 157.5938 Q74.4688 157.5938 74.9922 157.0703 Q75.5156 156.5469 75.5156 155.6562 Q75.5156 154.625 74.9766 154.0938 Q74.4375 153.5625 73.4062 153.5625 L72.8594 153.5625 L72.8594 152.9531 L73.1406 152.9531 Q74.1719 152.9531 74.6875 152.5312 Q75.2031 152.1094 75.2031 151.25 Q75.2031 150.4844 74.7812 150.0781 Q74.3594 149.6719 73.5625 149.6719 Q72.7656 149.6719 72.3359 150.0469 Q71.9062 150.4219 71.8281 151.1562 L71.1719 151.1562 L71.1719 149.625 Z" style="fill:black; stroke:none;" /><rect height="8" style="stroke:none;" width="8" x="56" y="149" /><path d="M61.1875 155.4688 L60.9531 156.1094 Q60.7656 156.625 60.2031 156.9375 Q59.8438 157.1562 59.2031 157.1406 Q58.0469 157.1406 57.3281 156.2344 Q56.5938 155.3281 56.5938 153.8594 Q56.5938 152.4219 57.3281 151.4844 Q58.0156 150.5938 59.4531 150.6094 Q60.4531 150.6094 60.9531 151 Q61.4062 151.3438 61.5781 152.0938 L61.625 152.3125 L61.8438 151.6719 Q62.0625 151.0469 62.6562 150.75 L63.25 150.75 L63.25 151.0938 Q62.6875 151.2656 62.5 151.8125 L61.8906 153.4844 L62.2969 155.2812 Q62.5 156.2031 62.7344 156.2969 Q63.0469 156.4375 63.7812 156 L63.7812 156.7188 Q62.5938 157.4062 61.75 156.6875 Q61.375 156.3594 61.2656 155.875 L61.1875 155.4688 ZM60.9219 154.3125 L60.5625 152.5938 Q60.2656 151.2188 59.4688 151.2188 Q58.7969 151.2031 58.2812 151.9375 Q57.8594 152.5156 57.8594 153.875 Q57.8594 155.1719 58.2812 155.8281 Q58.75 156.5469 59.5312 156.5 Q60.2031 156.4375 60.6875 155 L60.9219 154.3125 Z" style="fill:black; stroke:none;" /></g><g ID="li-1:2,4" style="fill:white; text-rendering:optimizeSpeed; font-family:'Serif'; stroke:white;"><rect height="9" style="stroke:none;" width="8" x="122" y="148" /><path d="M126.1875 154.0312 L126.1875 149.375 L123.2031 154.0312 L126.1875 154.0312 ZM128.7656 157 L124.7812 157 L124.7812 156.375 L126.1875 156.375 L126.1875 154.6562 L122.375 154.6562 L122.375 154.0156 L126.2031 148.0938 L127.3594 148.0938 L127.3594 154.0312 L129.0312 154.0312 L129.0312 154.6562 L127.3594 154.6562 L127.3594 156.375 L128.7656 156.375 L128.7656 157 Z" style="fill:black; stroke:none;" /><rect height="13" style="stroke:none;" width="7" x="108" y="146" /><path d="M109.8281 158.25 Q110.2969 158.5938 111.1719 158.5938 Q112.0625 158.5938 112.5781 158.0703 Q113.0938 157.5469 113.0938 156.6562 Q113.0938 155.4219 112.5625 154.8906 Q112.0156 154.3594 111 154.3594 L110.4375 154.3594 L110.4375 153.7188 L110.7344 153.7188 Q111.4844 153.7188 112 153.2969 Q112.4219 152.9531 112.4219 152.0156 Q112.4219 151.6094 112.1406 151.1406 Q111.6875 150.375 111.1562 150.3906 Q109.8281 150.4375 109.8281 152.7812 L109.8281 158.25 ZM108.75 161.5 L108.75 152.7812 Q108.75 150.3281 110.0781 150 Q110.7656 149.8125 111.25 149.8125 Q112.3438 149.8125 113.0469 150.6719 Q113.6094 151.3594 113.6094 151.9375 Q113.6094 152.7812 113.2031 153.2656 Q112.7969 153.75 112.0625 153.9844 Q113.1406 154.1406 113.75 154.7812 Q114.3281 155.4062 114.3281 156.6328 Q114.3281 157.8594 113.5078 158.5156 Q112.6875 159.1719 111.1406 159.1719 Q110.1875 159.1719 109.8281 159.0312 L109.8281 161.5 L108.75 161.5 Z" style="fill:black; stroke:none;" /></g><g ID="l-1:3,6" style="text-rendering:optimizeSpeed;"><polygon points=" 145 41 145 93" style="fill:none;" /></g><g ID="r-1:3" style="fill:white; text-rendering:optimizeSpeed; stroke:white;" wurcs_mono_id="5"><circle cx="145" cy="41" r="11" style="clip-path:url(#clipPath5); stroke:none;" /><rect height="22" style="clip-path:url(#clipPath5); fill:rgb(255,212,0); stroke:none;" width="22" x="134" y="30" /><rect height="22" style="clip-path:url(#clipPath5); fill:none; stroke:black;" width="22" x="134" y="30" /><circle cx="145" cy="41" r="11" style="fill:none; stroke:black;" /></g><g ID="r-1:6" style="fill:white; text-rendering:optimizeSpeed; stroke:white;" wurcs_mono_id="6"><polygon points=" 145 82 156 104 134 104" style="stroke:none; clip-path:url(#clipPath6);" /><rect height="22" style="clip-path:url(#clipPath6); fill:rgb(237,28,36); stroke:none;" width="22" x="134" y="82" /><rect height="22" style="clip-path:url(#clipPath6); fill:none; stroke:black;" width="22" x="134" y="82" /><polygon points=" 145 82 156 104 134 104" style="fill:none; stroke:black;" /></g><g ID="li-1:3,6" style="fill:white; text-rendering:optimizeSpeed; font-family:'Serif'; stroke:white;"><rect height="9" style="stroke:none;" width="7" x="149" y="55" /><path d="M150.5312 57.3438 L149.875 57.3438 L149.875 55.7812 Q150.5 55.4375 151.1406 55.2656 Q151.7812 55.0938 152.3906 55.0938 Q153.75 55.0938 154.5391 55.7578 Q155.3281 56.4219 155.3281 57.5469 Q155.3281 58.8438 153.5469 60.625 Q153.4062 60.7656 153.3281 60.8281 L151.125 63.0312 L154.7656 63.0312 L154.7656 61.9531 L155.4531 61.9531 L155.4531 64 L149.8125 64 L149.8125 63.3594 L152.4688 60.7188 Q153.3438 59.8281 153.7188 59.0938 Q154.0938 58.3594 154.0938 57.5469 Q154.0938 56.6719 153.6328 56.1719 Q153.1719 55.6719 152.375 55.6719 Q151.5312 55.6719 151.0781 56.0859 Q150.625 56.5 150.5312 57.3438 Z" style="fill:black; stroke:none;" /><rect height="8" style="stroke:none;" width="8" x="149" y="70" /><path d="M154.1875 76.4688 L153.9531 77.1094 Q153.7656 77.625 153.2031 77.9375 Q152.8438 78.1562 152.2031 78.1406 Q151.0469 78.1406 150.3281 77.2344 Q149.5938 76.3281 149.5938 74.8594 Q149.5938 73.4219 150.3281 72.4844 Q151.0156 71.5938 152.4531 71.6094 Q153.4531 71.6094 153.9531 72 Q154.4062 72.3438 154.5781 73.0938 L154.625 73.3125 L154.8438 72.6719 Q155.0625 72.0469 155.6562 71.75 L156.25 71.75 L156.25 72.0938 Q155.6875 72.2656 155.5 72.8125 L154.8906 74.4844 L155.2969 76.2812 Q155.5 77.2031 155.7344 77.2969 Q156.0469 77.4375 156.7812 77 L156.7812 77.7188 Q155.5938 78.4062 154.75 77.6875 Q154.375 77.3594 154.2656 76.875 L154.1875 76.4688 ZM153.9219 75.3125 L153.5625 73.5938 Q153.2656 72.2188 152.4688 72.2188 Q151.7969 72.2031 151.2812 72.9375 Q150.8594 73.5156 150.8594 74.875 Q150.8594 76.1719 151.2812 76.8281 Q151.75 77.5469 152.5312 77.5 Q153.2031 77.4375 153.6875 76 L153.9219 75.3125 Z" style="fill:black; stroke:none;" /></g><g ID="li-1:1,2" style="fill:white; text-rendering:optimizeSpeed; font-family:'Serif'; stroke:white;"><rect height="10" style="stroke:none;" width="6" x="183" y="110" /><path d="M185.1094 119.3906 Q185.1094 119.0625 185.3359 118.8359 Q185.5625 118.6094 185.8906 118.6094 Q186.2188 118.6094 186.4453 118.8359 Q186.6719 119.0625 186.6719 119.3906 Q186.6719 119.7188 186.4453 119.9453 Q186.2188 120.1719 185.8906 120.1719 Q185.5625 120.1719 185.3359 119.9453 Q185.1094 119.7188 185.1094 119.3906 ZM183.8125 111.6406 Q184.4375 111.3594 185 111.2266 Q185.5625 111.0938 186.0469 111.0938 Q187.3438 111.0938 188.1016 111.7188 Q188.8594 112.3438 188.8594 113.4062 Q188.8594 114.5 188.2109 115.1953 Q187.5625 115.8906 186.25 116.1875 L186.25 117.6719 L185.5312 117.6719 L185.5312 115.75 Q186.5625 115.5 187.0938 114.9062 Q187.625 114.3125 187.625 113.4062 Q187.625 112.5938 187.1953 112.1328 Q186.7656 111.6719 186.0312 111.6719 Q185.3594 111.6719 184.9297 112.0547 Q184.5 112.4375 184.3906 113.1562 L183.8125 113.1562 L183.8125 111.6406 Z" style="fill:black; stroke:none;" /><rect height="10" style="stroke:none;" width="6" x="164" y="129" /><path d="M166.1094 138.3906 Q166.1094 138.0625 166.3359 137.8359 Q166.5625 137.6094 166.8906 137.6094 Q167.2188 137.6094 167.4453 137.8359 Q167.6719 138.0625 167.6719 138.3906 Q167.6719 138.7188 167.4453 138.9453 Q167.2188 139.1719 166.8906 139.1719 Q166.5625 139.1719 166.3359 138.9453 Q166.1094 138.7188 166.1094 138.3906 ZM164.8125 130.6406 Q165.4375 130.3594 166 130.2266 Q166.5625 130.0938 167.0469 130.0938 Q168.3438 130.0938 169.1016 130.7188 Q169.8594 131.3438 169.8594 132.4062 Q169.8594 133.5 169.2109 134.1953 Q168.5625 134.8906 167.25 135.1875 L167.25 136.6719 L166.5312 136.6719 L166.5312 134.75 Q167.5625 134.5 168.0938 133.9062 Q168.625 133.3125 168.625 132.4062 Q168.625 131.5938 168.1953 131.1328 Q167.7656 130.6719 167.0312 130.6719 Q166.3594 130.6719 165.9297 131.0547 Q165.5 131.4375 165.3906 132.1562 L164.8125 132.1562 L164.8125 130.6406 Z" style="fill:black; stroke:none;" /></g><g ID="li-1:1,3" style="fill:white; text-rendering:optimizeSpeed; font-family:'Serif'; stroke:white;"><rect height="10" style="stroke:none;" width="6" x="171" y="77" /><path d="M173.1094 86.3906 Q173.1094 86.0625 173.3359 85.8359 Q173.5625 85.6094 173.8906 85.6094 Q174.2188 85.6094 174.4453 85.8359 Q174.6719 86.0625 174.6719 86.3906 Q174.6719 86.7188 174.4453 86.9453 Q174.2188 87.1719 173.8906 87.1719 Q173.5625 87.1719 173.3359 86.9453 Q173.1094 86.7188 173.1094 86.3906 ZM171.8125 78.6406 Q172.4375 78.3594 173 78.2266 Q173.5625 78.0938 174.0469 78.0938 Q175.3438 78.0938 176.1016 78.7188 Q176.8594 79.3438 176.8594 80.4062 Q176.8594 81.5 176.2109 82.1953 Q175.5625 82.8906 174.25 83.1875 L174.25 84.6719 L173.5312 84.6719 L173.5312 82.75 Q174.5625 82.5 175.0938 81.9062 Q175.625 81.3125 175.625 80.4062 Q175.625 79.5938 175.1953 79.1328 Q174.7656 78.6719 174.0312 78.6719 Q173.3594 78.6719 172.9297 79.0547 Q172.5 79.4375 172.3906 80.1562 L171.8125 80.1562 L171.8125 78.6406 Z" style="fill:black; stroke:none;" /><rect height="13" style="stroke:none;" width="7" x="152" y="56" /><path d="M153.8281 68.25 Q154.2969 68.5938 155.1719 68.5938 Q156.0625 68.5938 156.5781 68.0703 Q157.0938 67.5469 157.0938 66.6562 Q157.0938 65.4219 156.5625 64.8906 Q156.0156 64.3594 155 64.3594 L154.4375 64.3594 L154.4375 63.7188 L154.7344 63.7188 Q155.4844 63.7188 156 63.2969 Q156.4219 62.9531 156.4219 62.0156 Q156.4219 61.6094 156.1406 61.1406 Q155.6875 60.375 155.1562 60.3906 Q153.8281 60.4375 153.8281 62.7812 L153.8281 68.25 ZM152.75 71.5 L152.75 62.7812 Q152.75 60.3281 154.0781 60 Q154.7656 59.8125 155.25 59.8125 Q156.3438 59.8125 157.0469 60.6719 Q157.6094 61.3594 157.6094 61.9375 Q157.6094 62.7812 157.2031 63.2656 Q156.7969 63.75 156.0625 63.9844 Q157.1406 64.1406 157.75 64.7812 Q158.3281 65.4062 158.3281 66.6328 Q158.3281 67.8594 157.5078 68.5156 Q156.6875 69.1719 155.1406 69.1719 Q154.1875 69.1719 153.8281 69.0312 L153.8281 71.5 L152.75 71.5 Z" style="fill:black; stroke:none;" /></g></g></svg>