<svg xmlns="http://www.w3.org/2000/svg" style="fill-opacity:1; color-rendering:auto; color-interpolation:auto; text-rendering:auto; stroke:black; stroke-linecap:square; stroke-miterlimit:10; shape-rendering:auto; stroke-opacity:1; fill:black; stroke-dasharray:none; font-weight:normal; stroke-width:1; font-family:'Dialog'; font-style:normal; stroke-linejoin:miter; font-size:12px; stroke-dashoffset:0; image-rendering:auto;"><defs id="genericDefs" /><g><defs id="defs1"><clipPath clipPathUnits="userSpaceOnUse" id="clipPath1"><path d="M468 80 C468 86.0751 463.0751 91 457 91 C450.9249 91 446 86.0751 446 80 C446 73.9249 450.9249 69 457 69 C463.0751 69 468 73.9249 468 80 Z" /></clipPath><clipPath clipPathUnits="userSpaceOnUse" id="clipPath2"><path d="M416 80 C416 86.0751 411.0751 91 405 91 C398.9249 91 394 86.0751 394 80 C394 73.9249 398.9249 69 405 69 C411.0751 69 416 73.9249 416 80 Z" /></clipPath><clipPath clipPathUnits="userSpaceOnUse" id="clipPath3"><path d="M342 69 L364 69 L364 91 L342 91 L342 69 Z" /></clipPath><clipPath clipPathUnits="userSpaceOnUse" id="clipPath4"><path d="M312 80 C312 86.0751 307.0751 91 301 91 C294.9249 91 290 86.0751 290 80 C290 73.9249 294.9249 69 301 69 C307.0751 69 312 73.9249 312 80 Z" /></clipPath><clipPath clipPathUnits="userSpaceOnUse" id="clipPath5"><path d="M238 108 L260 108 L260 130 L238 130 L238 108 Z" /></clipPath><clipPath clipPathUnits="userSpaceOnUse" id="clipPath6"><path d="M208 119 C208 125.0751 203.0751 130 197 130 C190.9249 130 186 125.0751 186 119 C186 112.9249 190.9249 108 197 108 C203.0751 108 208 112.9249 208 119 Z" /></clipPath><clipPath clipPathUnits="userSpaceOnUse" id="clipPath7"><path d="M134 134 L156 134 L156 156 L134 156 L134 134 Z" /></clipPath><clipPath clipPathUnits="userSpaceOnUse" id="clipPath8"><path d="M104 145 C104 151.0751 99.0751 156 93 156 C86.9249 156 82 151.0751 82 145 C82 138.9249 86.9249 134 93 134 C99.0751 134 104 138.9249 104 145 Z" /></clipPath><clipPath clipPathUnits="userSpaceOnUse" id="clipPath9"><path d="M41 134 L52 145 L41 156 L30 145 Z" style="fill-rule:evenodd;" /></clipPath><clipPath clipPathUnits="userSpaceOnUse" id="clipPath10"><path d="M134 82 L156 82 L156 104 L134 104 L134 82 Z" /></clipPath><clipPath clipPathUnits="userSpaceOnUse" id="clipPath11"><path d="M104 93 C104 99.0751 99.0751 104 93 104 C86.9249 104 82 99.0751 82 93 C82 86.9249 86.9249 82 93 82 C99.0751 82 104 86.9249 104 93 Z" /></clipPath><clipPath clipPathUnits="userSpaceOnUse" id="clipPath12"><path d="M41 82 L52 93 L41 104 L30 93 Z" style="fill-rule:evenodd;" /></clipPath><clipPath clipPathUnits="userSpaceOnUse" id="clipPath13"><path d="M238 30 L260 30 L260 52 L238 52 L238 30 Z" /></clipPath><clipPath clipPathUnits="userSpaceOnUse" id="clipPath14"><path d="M208 41 C208 47.0751 203.0751 52 197 52 C190.9249 52 186 47.0751 186 41 C186 34.9249 190.9249 30 197 30 C203.0751 30 208 34.9249 208 41 Z" /></clipPath><clipPath clipPathUnits="userSpaceOnUse" id="clipPath15"><path d="M145 30 L156 41 L145 52 L134 41 Z" style="fill-rule:evenodd;" /></clipPath></defs><g style="fill:white; text-rendering:optimizeSpeed; stroke:white;"><rect height="186" style="stroke:none;" width="498" x="0" y="0" /></g><g ID="l-1:1,2" style="text-rendering:optimizeSpeed;"><polygon points=" 457 80 405 80" style="fill:none;" /></g><g ID="r-1:1" style="fill:white; text-rendering:optimizeSpeed; stroke:white;" wurcs_mono_id="1"><circle cx="457" cy="80" r="11" style="clip-path:url(#clipPath1); stroke:none;" /><rect height="22" style="clip-path:url(#clipPath1); fill:rgb(0,144,188); stroke:none;" width="22" x="446" y="69" /><rect height="22" style="clip-path:url(#clipPath1); fill:none; stroke:black;" width="22" x="446" y="69" /><circle cx="457" cy="80" r="11" style="fill:none; stroke:black;" /></g><g ID="l-1:2,3" style="text-rendering:optimizeSpeed;"><polygon points=" 405 80 353 80" style="fill:none;" /></g><g ID="r-1:2" style="fill:white; text-rendering:optimizeSpeed; stroke:white;" wurcs_mono_id="2"><circle cx="405" cy="80" r="11" style="clip-path:url(#clipPath2); stroke:none;" /><rect height="22" style="clip-path:url(#clipPath2); fill:rgb(255,212,0); stroke:none;" width="22" x="394" y="69" /><rect height="22" style="clip-path:url(#clipPath2); fill:none; stroke:black;" width="22" x="394" y="69" /><circle cx="405" cy="80" r="11" style="fill:none; stroke:black;" /></g><g ID="l-1:3,4" style="text-rendering:optimizeSpeed;"><polygon points=" 353 80 301 80" style="fill:none;" /></g><g ID="r-1:3" style="fill:white; text-rendering:optimizeSpeed; stroke:white;" wurcs_mono_id="3"><rect height="22" style="clip-path:url(#clipPath3); stroke:none;" width="22" x="342" y="69" /><rect height="22" style="clip-path:url(#clipPath3); fill:rgb(0,144,188); stroke:none;" width="22" x="342" y="69" /><rect height="22" style="clip-path:url(#clipPath3); fill:none; stroke:black;" width="22" x="342" y="69" /><rect height="22" style="fill:none; stroke:black;" width="22" x="342" y="69" /></g><g ID="l-1:4,5" style="text-rendering:optimizeSpeed;"><polygon points=" 301 80 249 119" style="fill:none;" /></g><g ID="l-1:4,6" style="text-rendering:optimizeSpeed;"><polygon points=" 301 80 249 41" style="fill:none;" /></g><g ID="r-1:4" style="fill:white; text-rendering:optimizeSpeed; stroke:white;" wurcs_mono_id="4"><circle cx="301" cy="80" r="11" style="clip-path:url(#clipPath4); stroke:none;" /><rect height="22" style="clip-path:url(#clipPath4); fill:rgb(255,212,0); stroke:none;" width="22" x="290" y="69" /><rect height="22" style="clip-path:url(#clipPath4); fill:none; stroke:black;" width="22" x="290" y="69" /><circle cx="301" cy="80" r="11" style="fill:none; stroke:black;" /></g><g ID="l-1:5,7" style="text-rendering:optimizeSpeed;"><polygon points=" 249 119 197 119" style="fill:none;" /></g><g ID="r-1:5" style="fill:white; text-rendering:optimizeSpeed; stroke:white;" wurcs_mono_id="5"><rect height="22" style="clip-path:url(#clipPath5); stroke:none;" width="22" x="238" y="108" /><rect height="22" style="clip-path:url(#clipPath5); fill:rgb(0,144,188); stroke:none;" width="22" x="238" y="108" /><rect height="22" style="clip-path:url(#clipPath5); fill:none; stroke:black;" width="22" x="238" y="108" /><rect height="22" style="fill:none; stroke:black;" width="22" x="238" y="108" /></g><g ID="l-1:7,8" style="text-rendering:optimizeSpeed;"><polygon points=" 197 119 145 145" style="fill:none;" /></g><g ID="l-1:7,9" style="text-rendering:optimizeSpeed;"><polygon points=" 197 119 145 93" style="fill:none;" /></g><g ID="r-1:7" style="fill:white; text-rendering:optimizeSpeed; stroke:white;" wurcs_mono_id="6"><circle cx="197" cy="119" r="11" style="clip-path:url(#clipPath6); stroke:none;" /><rect height="22" style="clip-path:url(#clipPath6); fill:rgb(255,212,0); stroke:none;" width="22" x="186" y="108" /><rect height="22" style="clip-path:url(#clipPath6); fill:none; stroke:black;" width="22" x="186" y="108" /><circle cx="197" cy="119" r="11" style="fill:none; stroke:black;" /></g><g ID="l-1:8,10" style="text-rendering:optimizeSpeed;"><polygon points=" 145 145 93 145" style="fill:none;" /></g><g ID="r-1:8" style="fill:white; text-rendering:optimizeSpeed; stroke:white;" wurcs_mono_id="7"><rect height="22" style="clip-path:url(#clipPath7); stroke:none;" width="22" x="134" y="134" /><rect height="22" style="clip-path:url(#clipPath7); fill:rgb(0,144,188); stroke:none;" width="22" x="134" y="134" /><rect height="22" style="clip-path:url(#clipPath7); fill:none; stroke:black;" width="22" x="134" y="134" /><rect height="22" style="fill:none; stroke:black;" width="22" x="134" y="134" /></g><g ID="l-1:10,11" style="text-rendering:optimizeSpeed;"><polygon points=" 93 145 41 145" style="fill:none;" /></g><g ID="r-1:10" style="fill:white; text-rendering:optimizeSpeed; stroke:white;" wurcs_mono_id="8"><circle cx="93" cy="145" r="11" style="clip-path:url(#clipPath8); stroke:none;" /><rect height="22" style="clip-path:url(#clipPath8); fill:rgb(255,212,0); stroke:none;" width="22" x="82" y="134" /><rect height="22" style="clip-path:url(#clipPath8); fill:none; stroke:black;" width="22" x="82" y="134" /><circle cx="93" cy="145" r="11" style="fill:none; stroke:black;" /></g><g ID="r-1:11" style="fill:white; text-rendering:optimizeSpeed; stroke:white;" wurcs_mono_id="9"><polygon points=" 41 134 52 145 41 156 30 145" style="stroke:none; clip-path:url(#clipPath9);" /><rect height="22" style="clip-path:url(#clipPath9); fill:rgb(165,67,153); stroke:none;" width="22" x="30" y="134" /><rect height="22" style="clip-path:url(#clipPath9); fill:none; stroke:black;" width="22" x="30" y="134" /><polygon points=" 41 134 52 145 41 156 30 145" style="fill:none; stroke:black;" /></g><g ID="li-1:10,11" style="fill:white; text-rendering:optimizeSpeed; font-family:'Serif'; stroke:white;"><rect height="10" style="stroke:none;" width="7" x="70" y="148" /><path d="M71.1719 149.625 Q71.8594 149.3594 72.4844 149.2266 Q73.1094 149.0938 73.6562 149.0938 Q74.9531 149.0938 75.6719 149.6484 Q76.3906 150.2031 76.3906 151.1875 Q76.3906 151.9688 75.8906 152.5 Q75.3906 153.0312 74.4844 153.2188 Q75.5625 153.375 76.1562 154.0078 Q76.75 154.6406 76.75 155.6406 Q76.75 156.8594 75.9219 157.5156 Q75.0938 158.1719 73.5469 158.1719 Q72.8594 158.1719 72.2109 158.0234 Q71.5625 157.875 70.9219 157.5781 L70.9219 155.875 L71.5781 155.875 Q71.625 156.7188 72.1406 157.1562 Q72.6562 157.5938 73.5781 157.5938 Q74.4688 157.5938 74.9922 157.0703 Q75.5156 156.5469 75.5156 155.6562 Q75.5156 154.625 74.9766 154.0938 Q74.4375 153.5625 73.4062 153.5625 L72.8594 153.5625 L72.8594 152.9531 L73.1406 152.9531 Q74.1719 152.9531 74.6875 152.5312 Q75.2031 152.1094 75.2031 151.25 Q75.2031 150.4844 74.7812 150.0781 Q74.3594 149.6719 73.5625 149.6719 Q72.7656 149.6719 72.3359 150.0469 Q71.9062 150.4219 71.8281 151.1562 L71.1719 151.1562 L71.1719 149.625 Z" style="fill:black; stroke:none;" /><rect height="8" style="stroke:none;" width="8" x="56" y="149" /><path d="M61.1875 155.4688 L60.9531 156.1094 Q60.7656 156.625 60.2031 156.9375 Q59.8438 157.1562 59.2031 157.1406 Q58.0469 157.1406 57.3281 156.2344 Q56.5938 155.3281 56.5938 153.8594 Q56.5938 152.4219 57.3281 151.4844 Q58.0156 150.5938 59.4531 150.6094 Q60.4531 150.6094 60.9531 151 Q61.4062 151.3438 61.5781 152.0938 L61.625 152.3125 L61.8438 151.6719 Q62.0625 151.0469 62.6562 150.75 L63.25 150.75 L63.25 151.0938 Q62.6875 151.2656 62.5 151.8125 L61.8906 153.4844 L62.2969 155.2812 Q62.5 156.2031 62.7344 156.2969 Q63.0469 156.4375 63.7812 156 L63.7812 156.7188 Q62.5938 157.4062 61.75 156.6875 Q61.375 156.3594 61.2656 155.875 L61.1875 155.4688 ZM60.9219 154.3125 L60.5625 152.5938 Q60.2656 151.2188 59.4688 151.2188 Q58.7969 151.2031 58.2812 151.9375 Q57.8594 152.5156 57.8594 153.875 Q57.8594 155.1719 58.2812 155.8281 Q58.75 156.5469 59.5312 156.5 Q60.2031 156.4375 60.6875 155 L60.9219 154.3125 Z" style="fill:black; stroke:none;" /></g><g ID="li-1:8,10" style="fill:white; text-rendering:optimizeSpeed; font-family:'Serif'; stroke:white;"><rect height="9" style="stroke:none;" width="8" x="122" y="148" /><path d="M126.1875 154.0312 L126.1875 149.375 L123.2031 154.0312 L126.1875 154.0312 ZM128.7656 157 L124.7812 157 L124.7812 156.375 L126.1875 156.375 L126.1875 154.6562 L122.375 154.6562 L122.375 154.0156 L126.2031 148.0938 L127.3594 148.0938 L127.3594 154.0312 L129.0312 154.0312 L129.0312 154.6562 L127.3594 154.6562 L127.3594 156.375 L128.7656 156.375 L128.7656 157 Z" style="fill:black; stroke:none;" /><rect height="13" style="stroke:none;" width="7" x="108" y="146" /><path d="M109.8281 158.25 Q110.2969 158.5938 111.1719 158.5938 Q112.0625 158.5938 112.5781 158.0703 Q113.0938 157.5469 113.0938 156.6562 Q113.0938 155.4219 112.5625 154.8906 Q112.0156 154.3594 111 154.3594 L110.4375 154.3594 L110.4375 153.7188 L110.7344 153.7188 Q111.4844 153.7188 112 153.2969 Q112.4219 152.9531 112.4219 152.0156 Q112.4219 151.6094 112.1406 151.1406 Q111.6875 150.375 111.1562 150.3906 Q109.8281 150.4375 109.8281 152.7812 L109.8281 158.25 ZM108.75 161.5 L108.75 152.7812 Q108.75 150.3281 110.0781 150 Q110.7656 149.8125 111.25 149.8125 Q112.3438 149.8125 113.0469 150.6719 Q113.6094 151.3594 113.6094 151.9375 Q113.6094 152.7812 113.2031 153.2656 Q112.7969 153.75 112.0625 153.9844 Q113.1406 154.1406 113.75 154.7812 Q114.3281 155.4062 114.3281 156.6328 Q114.3281 157.8594 113.5078 158.5156 Q112.6875 159.1719 111.1406 159.1719 Q110.1875 159.1719 109.8281 159.0312 L109.8281 161.5 L108.75 161.5 Z" style="fill:black; stroke:none;" /></g><g ID="l-1:9,12" style="text-rendering:optimizeSpeed;"><polygon points=" 145 93 93 93" style="fill:none;" /></g><g ID="r-1:9" style="fill:white; text-rendering:optimizeSpeed; stroke:white;" wurcs_mono_id="10"><rect height="22" style="clip-path:url(#clipPath10); stroke:none;" width="22" x="134" y="82" /><rect height="22" style="clip-path:url(#clipPath10); fill:rgb(0,144,188); stroke:none;" width="22" x="134" y="82" /><rect height="22" style="clip-path:url(#clipPath10); fill:none; stroke:black;" width="22" x="134" y="82" /><rect height="22" style="fill:none; stroke:black;" width="22" x="134" y="82" /></g><g ID="l-1:12,13" style="text-rendering:optimizeSpeed;"><polygon points=" 93 93 41 93" style="fill:none;" /></g><g ID="r-1:12" style="fill:white; text-rendering:optimizeSpeed; stroke:white;" wurcs_mono_id="11"><circle cx="93" cy="93" r="11" style="clip-path:url(#clipPath11); stroke:none;" /><rect height="22" style="clip-path:url(#clipPath11); fill:rgb(255,212,0); stroke:none;" width="22" x="82" y="82" /><rect height="22" style="clip-path:url(#clipPath11); fill:none; stroke:black;" width="22" x="82" y="82" /><circle cx="93" cy="93" r="11" style="fill:none; stroke:black;" /></g><g ID="r-1:13" style="fill:white; text-rendering:optimizeSpeed; stroke:white;" wurcs_mono_id="12"><polygon points=" 41 82 52 93 41 104 30 93" style="stroke:none; clip-path:url(#clipPath12);" /><rect height="22" style="clip-path:url(#clipPath12); fill:rgb(165,67,153); stroke:none;" width="22" x="30" y="82" /><rect height="22" style="clip-path:url(#clipPath12); fill:none; stroke:black;" width="22" x="30" y="82" /><polygon points=" 41 82 52 93 41 104 30 93" style="fill:none; stroke:black;" /></g><g ID="li-1:12,13" style="fill:white; text-rendering:optimizeSpeed; font-family:'Serif'; stroke:white;"><rect height="10" style="stroke:none;" width="7" x="70" y="96" /><path d="M71.1719 97.625 Q71.8594 97.3594 72.4844 97.2266 Q73.1094 97.0938 73.6562 97.0938 Q74.9531 97.0938 75.6719 97.6484 Q76.3906 98.2031 76.3906 99.1875 Q76.3906 99.9688 75.8906 100.5 Q75.3906 101.0312 74.4844 101.2188 Q75.5625 101.375 76.1562 102.0078 Q76.75 102.6406 76.75 103.6406 Q76.75 104.8594 75.9219 105.5156 Q75.0938 106.1719 73.5469 106.1719 Q72.8594 106.1719 72.2109 106.0234 Q71.5625 105.875 70.9219 105.5781 L70.9219 103.875 L71.5781 103.875 Q71.625 104.7188 72.1406 105.1562 Q72.6562 105.5938 73.5781 105.5938 Q74.4688 105.5938 74.9922 105.0703 Q75.5156 104.5469 75.5156 103.6562 Q75.5156 102.625 74.9766 102.0938 Q74.4375 101.5625 73.4062 101.5625 L72.8594 101.5625 L72.8594 100.9531 L73.1406 100.9531 Q74.1719 100.9531 74.6875 100.5312 Q75.2031 100.1094 75.2031 99.25 Q75.2031 98.4844 74.7812 98.0781 Q74.3594 97.6719 73.5625 97.6719 Q72.7656 97.6719 72.3359 98.0469 Q71.9062 98.4219 71.8281 99.1562 L71.1719 99.1562 L71.1719 97.625 Z" style="fill:black; stroke:none;" /><rect height="8" style="stroke:none;" width="8" x="56" y="97" /><path d="M61.1875 103.4688 L60.9531 104.1094 Q60.7656 104.625 60.2031 104.9375 Q59.8438 105.1562 59.2031 105.1406 Q58.0469 105.1406 57.3281 104.2344 Q56.5938 103.3281 56.5938 101.8594 Q56.5938 100.4219 57.3281 99.4844 Q58.0156 98.5938 59.4531 98.6094 Q60.4531 98.6094 60.9531 99 Q61.4062 99.3438 61.5781 100.0938 L61.625 100.3125 L61.8438 99.6719 Q62.0625 99.0469 62.6562 98.75 L63.25 98.75 L63.25 99.0938 Q62.6875 99.2656 62.5 99.8125 L61.8906 101.4844 L62.2969 103.2812 Q62.5 104.2031 62.7344 104.2969 Q63.0469 104.4375 63.7812 104 L63.7812 104.7188 Q62.5938 105.4062 61.75 104.6875 Q61.375 104.3594 61.2656 103.875 L61.1875 103.4688 ZM60.9219 102.3125 L60.5625 100.5938 Q60.2656 99.2188 59.4688 99.2188 Q58.7969 99.2031 58.2812 99.9375 Q57.8594 100.5156 57.8594 101.875 Q57.8594 103.1719 58.2812 103.8281 Q58.75 104.5469 59.5312 104.5 Q60.2031 104.4375 60.6875 103 L60.9219 102.3125 Z" style="fill:black; stroke:none;" /></g><g ID="li-1:9,12" style="fill:white; text-rendering:optimizeSpeed; font-family:'Serif'; stroke:white;"><rect height="9" style="stroke:none;" width="8" x="122" y="96" /><path d="M126.1875 102.0312 L126.1875 97.375 L123.2031 102.0312 L126.1875 102.0312 ZM128.7656 105 L124.7812 105 L124.7812 104.375 L126.1875 104.375 L126.1875 102.6562 L122.375 102.6562 L122.375 102.0156 L126.2031 96.0938 L127.3594 96.0938 L127.3594 102.0312 L129.0312 102.0312 L129.0312 102.6562 L127.3594 102.6562 L127.3594 104.375 L128.7656 104.375 L128.7656 105 Z" style="fill:black; stroke:none;" /><rect height="13" style="stroke:none;" width="7" x="108" y="94" /><path d="M109.8281 106.25 Q110.2969 106.5938 111.1719 106.5938 Q112.0625 106.5938 112.5781 106.0703 Q113.0938 105.5469 113.0938 104.6562 Q113.0938 103.4219 112.5625 102.8906 Q112.0156 102.3594 111 102.3594 L110.4375 102.3594 L110.4375 101.7188 L110.7344 101.7188 Q111.4844 101.7188 112 101.2969 Q112.4219 100.9531 112.4219 100.0156 Q112.4219 99.6094 112.1406 99.1406 Q111.6875 98.375 111.1562 98.3906 Q109.8281 98.4375 109.8281 100.7812 L109.8281 106.25 ZM108.75 109.5 L108.75 100.7812 Q108.75 98.3281 110.0781 98 Q110.7656 97.8125 111.25 97.8125 Q112.3438 97.8125 113.0469 98.6719 Q113.6094 99.3594 113.6094 99.9375 Q113.6094 100.7812 113.2031 101.2656 Q112.7969 101.75 112.0625 101.9844 Q113.1406 102.1406 113.75 102.7812 Q114.3281 103.4062 114.3281 104.6328 Q114.3281 105.8594 113.5078 106.5156 Q112.6875 107.1719 111.1406 107.1719 Q110.1875 107.1719 109.8281 107.0312 L109.8281 109.5 L108.75 109.5 Z" style="fill:black; stroke:none;" /></g><g ID="li-1:7,8" style="fill:white; text-rendering:optimizeSpeed; font-family:'Serif'; stroke:white;"><rect height="10" style="stroke:none;" width="7" x="178" y="130" /><path d="M179.1719 131.625 Q179.8594 131.3594 180.4844 131.2266 Q181.1094 131.0938 181.6562 131.0938 Q182.9531 131.0938 183.6719 131.6484 Q184.3906 132.2031 184.3906 133.1875 Q184.3906 133.9688 183.8906 134.5 Q183.3906 135.0312 182.4844 135.2188 Q183.5625 135.375 184.1562 136.0078 Q184.75 136.6406 184.75 137.6406 Q184.75 138.8594 183.9219 139.5156 Q183.0938 140.1719 181.5469 140.1719 Q180.8594 140.1719 180.2109 140.0234 Q179.5625 139.875 178.9219 139.5781 L178.9219 137.875 L179.5781 137.875 Q179.625 138.7188 180.1406 139.1562 Q180.6562 139.5938 181.5781 139.5938 Q182.4688 139.5938 182.9922 139.0703 Q183.5156 138.5469 183.5156 137.6562 Q183.5156 136.625 182.9766 136.0938 Q182.4375 135.5625 181.4062 135.5625 L180.8594 135.5625 L180.8594 134.9531 L181.1406 134.9531 Q182.1719 134.9531 182.6875 134.5312 Q183.2031 134.1094 183.2031 133.25 Q183.2031 132.4844 182.7812 132.0781 Q182.3594 131.6719 181.5625 131.6719 Q180.7656 131.6719 180.3359 132.0469 Q179.9062 132.4219 179.8281 133.1562 L179.1719 133.1562 L179.1719 131.625 Z" style="fill:black; stroke:none;" /><rect height="13" style="stroke:none;" width="7" x="163" y="136" /><path d="M164.8281 148.25 Q165.2969 148.5938 166.1719 148.5938 Q167.0625 148.5938 167.5781 148.0703 Q168.0938 147.5469 168.0938 146.6562 Q168.0938 145.4219 167.5625 144.8906 Q167.0156 144.3594 166 144.3594 L165.4375 144.3594 L165.4375 143.7188 L165.7344 143.7188 Q166.4844 143.7188 167 143.2969 Q167.4219 142.9531 167.4219 142.0156 Q167.4219 141.6094 167.1406 141.1406 Q166.6875 140.375 166.1562 140.3906 Q164.8281 140.4375 164.8281 142.7812 L164.8281 148.25 ZM163.75 151.5 L163.75 142.7812 Q163.75 140.3281 165.0781 140 Q165.7656 139.8125 166.25 139.8125 Q167.3438 139.8125 168.0469 140.6719 Q168.6094 141.3594 168.6094 141.9375 Q168.6094 142.7812 168.2031 143.2656 Q167.7969 143.75 167.0625 143.9844 Q168.1406 144.1406 168.75 144.7812 Q169.3281 145.4062 169.3281 146.6328 Q169.3281 147.8594 168.5078 148.5156 Q167.6875 149.1719 166.1406 149.1719 Q165.1875 149.1719 164.8281 149.0312 L164.8281 151.5 L163.75 151.5 Z" style="fill:black; stroke:none;" /></g><g ID="li-1:7,9" style="fill:white; text-rendering:optimizeSpeed; font-family:'Serif'; stroke:white;"><rect height="10" style="stroke:none;" width="7" x="171" y="112" /><path d="M174.9219 121.5938 Q175.75 121.5938 176.1953 120.9844 Q176.6406 120.375 176.6406 119.2344 Q176.6406 118.1094 176.1953 117.5 Q175.75 116.8906 174.9219 116.8906 Q174.0938 116.8906 173.6484 117.4766 Q173.2031 118.0625 173.2031 119.1719 Q173.2031 120.3281 173.6484 120.9609 Q174.0938 121.5938 174.9219 121.5938 ZM173.0156 117.1875 Q173.4219 116.75 173.9219 116.5312 Q174.4219 116.3125 175.0625 116.3125 Q176.3594 116.3125 177.1172 117.0938 Q177.875 117.875 177.875 119.2344 Q177.875 120.5625 177.0625 121.3672 Q176.25 122.1719 174.875 122.1719 Q173.3906 122.1719 172.5938 121.0625 Q171.7969 119.9531 171.7969 117.9062 Q171.7969 115.6094 172.7422 114.3516 Q173.6875 113.0938 175.4062 113.0938 Q175.875 113.0938 176.3828 113.1797 Q176.8906 113.2656 177.4219 113.4375 L177.4219 114.8906 L176.7656 114.8906 Q176.6875 114.2969 176.3047 113.9844 Q175.9219 113.6719 175.2812 113.6719 Q174.1406 113.6719 173.5859 114.5312 Q173.0312 115.3906 173.0156 117.1875 Z" style="fill:black; stroke:none;" /><rect height="13" style="stroke:none;" width="7" x="156" y="102" /><path d="M157.8281 114.25 Q158.2969 114.5938 159.1719 114.5938 Q160.0625 114.5938 160.5781 114.0703 Q161.0938 113.5469 161.0938 112.6562 Q161.0938 111.4219 160.5625 110.8906 Q160.0156 110.3594 159 110.3594 L158.4375 110.3594 L158.4375 109.7188 L158.7344 109.7188 Q159.4844 109.7188 160 109.2969 Q160.4219 108.9531 160.4219 108.0156 Q160.4219 107.6094 160.1406 107.1406 Q159.6875 106.375 159.1562 106.3906 Q157.8281 106.4375 157.8281 108.7812 L157.8281 114.25 ZM156.75 117.5 L156.75 108.7812 Q156.75 106.3281 158.0781 106 Q158.7656 105.8125 159.25 105.8125 Q160.3438 105.8125 161.0469 106.6719 Q161.6094 107.3594 161.6094 107.9375 Q161.6094 108.7812 161.2031 109.2656 Q160.7969 109.75 160.0625 109.9844 Q161.1406 110.1406 161.75 110.7812 Q162.3281 111.4062 162.3281 112.6328 Q162.3281 113.8594 161.5078 114.5156 Q160.6875 115.1719 159.1406 115.1719 Q158.1875 115.1719 157.8281 115.0312 L157.8281 117.5 L156.75 117.5 Z" style="fill:black; stroke:none;" /></g><g ID="li-1:5,7" style="fill:white; text-rendering:optimizeSpeed; font-family:'Serif'; stroke:white;"><rect height="9" style="stroke:none;" width="8" x="226" y="122" /><path d="M230.1875 128.0312 L230.1875 123.375 L227.2031 128.0312 L230.1875 128.0312 ZM232.7656 131 L228.7812 131 L228.7812 130.375 L230.1875 130.375 L230.1875 128.6562 L226.375 128.6562 L226.375 128.0156 L230.2031 122.0938 L231.3594 122.0938 L231.3594 128.0312 L233.0312 128.0312 L233.0312 128.6562 L231.3594 128.6562 L231.3594 130.375 L232.7656 130.375 L232.7656 131 Z" style="fill:black; stroke:none;" /><rect height="13" style="stroke:none;" width="7" x="212" y="120" /><path d="M213.8281 132.25 Q214.2969 132.5938 215.1719 132.5938 Q216.0625 132.5938 216.5781 132.0703 Q217.0938 131.5469 217.0938 130.6562 Q217.0938 129.4219 216.5625 128.8906 Q216.0156 128.3594 215 128.3594 L214.4375 128.3594 L214.4375 127.7188 L214.7344 127.7188 Q215.4844 127.7188 216 127.2969 Q216.4219 126.9531 216.4219 126.0156 Q216.4219 125.6094 216.1406 125.1406 Q215.6875 124.375 215.1562 124.3906 Q213.8281 124.4375 213.8281 126.7812 L213.8281 132.25 ZM212.75 135.5 L212.75 126.7812 Q212.75 124.3281 214.0781 124 Q214.7656 123.8125 215.25 123.8125 Q216.3438 123.8125 217.0469 124.6719 Q217.6094 125.3594 217.6094 125.9375 Q217.6094 126.7812 217.2031 127.2656 Q216.7969 127.75 216.0625 127.9844 Q217.1406 128.1406 217.75 128.7812 Q218.3281 129.4062 218.3281 130.6328 Q218.3281 131.8594 217.5078 132.5156 Q216.6875 133.1719 215.1406 133.1719 Q214.1875 133.1719 213.8281 133.0312 L213.8281 135.5 L212.75 135.5 Z" style="fill:black; stroke:none;" /></g><g ID="l-1:6,14" style="text-rendering:optimizeSpeed;"><polygon points=" 249 41 197 41" style="fill:none;" /></g><g ID="r-1:6" style="fill:white; text-rendering:optimizeSpeed; stroke:white;" wurcs_mono_id="13"><rect height="22" style="clip-path:url(#clipPath13); stroke:none;" width="22" x="238" y="30" /><rect height="22" style="clip-path:url(#clipPath13); fill:rgb(0,144,188); stroke:none;" width="22" x="238" y="30" /><rect height="22" style="clip-path:url(#clipPath13); fill:none; stroke:black;" width="22" x="238" y="30" /><rect height="22" style="fill:none; stroke:black;" width="22" x="238" y="30" /></g><g ID="l-1:14,15" style="text-rendering:optimizeSpeed;"><polygon points=" 197 41 145 41" style="fill:none;" /></g><g ID="r-1:14" style="fill:white; text-rendering:optimizeSpeed; stroke:white;" wurcs_mono_id="14"><circle cx="197" cy="41" r="11" style="clip-path:url(#clipPath14); stroke:none;" /><rect height="22" style="clip-path:url(#clipPath14); fill:rgb(255,212,0); stroke:none;" width="22" x="186" y="30" /><rect height="22" style="clip-path:url(#clipPath14); fill:none; stroke:black;" width="22" x="186" y="30" /><circle cx="197" cy="41" r="11" style="fill:none; stroke:black;" /></g><g ID="r-1:15" style="fill:white; text-rendering:optimizeSpeed; stroke:white;" wurcs_mono_id="15"><polygon points=" 145 30 156 41 145 52 134 41" style="stroke:none; clip-path:url(#clipPath15);" /><rect height="22" style="clip-path:url(#clipPath15); fill:rgb(165,67,153); stroke:none;" width="22" x="134" y="30" /><rect height="22" style="clip-path:url(#clipPath15); fill:none; stroke:black;" width="22" x="134" y="30" /><polygon points=" 145 30 156 41 145 52 134 41" style="fill:none; stroke:black;" /></g><g ID="li-1:14,15" style="fill:white; text-rendering:optimizeSpeed; font-family:'Serif'; stroke:white;"><rect height="10" style="stroke:none;" width="7" x="174" y="44" /><path d="M175.1719 45.625 Q175.8594 45.3594 176.4844 45.2266 Q177.1094 45.0938 177.6562 45.0938 Q178.9531 45.0938 179.6719 45.6484 Q180.3906 46.2031 180.3906 47.1875 Q180.3906 47.9688 179.8906 48.5 Q179.3906 49.0312 178.4844 49.2188 Q179.5625 49.375 180.1562 50.0078 Q180.75 50.6406 180.75 51.6406 Q180.75 52.8594 179.9219 53.5156 Q179.0938 54.1719 177.5469 54.1719 Q176.8594 54.1719 176.2109 54.0234 Q175.5625 53.875 174.9219 53.5781 L174.9219 51.875 L175.5781 51.875 Q175.625 52.7188 176.1406 53.1562 Q176.6562 53.5938 177.5781 53.5938 Q178.4688 53.5938 178.9922 53.0703 Q179.5156 52.5469 179.5156 51.6562 Q179.5156 50.625 178.9766 50.0938 Q178.4375 49.5625 177.4062 49.5625 L176.8594 49.5625 L176.8594 48.9531 L177.1406 48.9531 Q178.1719 48.9531 178.6875 48.5312 Q179.2031 48.1094 179.2031 47.25 Q179.2031 46.4844 178.7812 46.0781 Q178.3594 45.6719 177.5625 45.6719 Q176.7656 45.6719 176.3359 46.0469 Q175.9062 46.4219 175.8281 47.1562 L175.1719 47.1562 L175.1719 45.625 Z" style="fill:black; stroke:none;" /><rect height="8" style="stroke:none;" width="8" x="160" y="45" /><path d="M165.1875 51.4688 L164.9531 52.1094 Q164.7656 52.625 164.2031 52.9375 Q163.8438 53.1562 163.2031 53.1406 Q162.0469 53.1406 161.3281 52.2344 Q160.5938 51.3281 160.5938 49.8594 Q160.5938 48.4219 161.3281 47.4844 Q162.0156 46.5938 163.4531 46.6094 Q164.4531 46.6094 164.9531 47 Q165.4062 47.3438 165.5781 48.0938 L165.625 48.3125 L165.8438 47.6719 Q166.0625 47.0469 166.6562 46.75 L167.25 46.75 L167.25 47.0938 Q166.6875 47.2656 166.5 47.8125 L165.8906 49.4844 L166.2969 51.2812 Q166.5 52.2031 166.7344 52.2969 Q167.0469 52.4375 167.7812 52 L167.7812 52.7188 Q166.5938 53.4062 165.75 52.6875 Q165.375 52.3594 165.2656 51.875 L165.1875 51.4688 ZM164.9219 50.3125 L164.5625 48.5938 Q164.2656 47.2188 163.4688 47.2188 Q162.7969 47.2031 162.2812 47.9375 Q161.8594 48.5156 161.8594 49.875 Q161.8594 51.1719 162.2812 51.8281 Q162.75 52.5469 163.5312 52.5 Q164.2031 52.4375 164.6875 51 L164.9219 50.3125 Z" style="fill:black; stroke:none;" /></g><g ID="li-1:6,14" style="fill:white; text-rendering:optimizeSpeed; font-family:'Serif'; stroke:white;"><rect height="9" style="stroke:none;" width="8" x="226" y="44" /><path d="M230.1875 50.0312 L230.1875 45.375 L227.2031 50.0312 L230.1875 50.0312 ZM232.7656 53 L228.7812 53 L228.7812 52.375 L230.1875 52.375 L230.1875 50.6562 L226.375 50.6562 L226.375 50.0156 L230.2031 44.0938 L231.3594 44.0938 L231.3594 50.0312 L233.0312 50.0312 L233.0312 50.6562 L231.3594 50.6562 L231.3594 52.375 L232.7656 52.375 L232.7656 53 Z" style="fill:black; stroke:none;" /><rect height="13" style="stroke:none;" width="7" x="212" y="42" /><path d="M213.8281 54.25 Q214.2969 54.5938 215.1719 54.5938 Q216.0625 54.5938 216.5781 54.0703 Q217.0938 53.5469 217.0938 52.6562 Q217.0938 51.4219 216.5625 50.8906 Q216.0156 50.3594 215 50.3594 L214.4375 50.3594 L214.4375 49.7188 L214.7344 49.7188 Q215.4844 49.7188 216 49.2969 Q216.4219 48.9531 216.4219 48.0156 Q216.4219 47.6094 216.1406 47.1406 Q215.6875 46.375 215.1562 46.3906 Q213.8281 46.4375 213.8281 48.7812 L213.8281 54.25 ZM212.75 57.5 L212.75 48.7812 Q212.75 46.3281 214.0781 46 Q214.7656 45.8125 215.25 45.8125 Q216.3438 45.8125 217.0469 46.6719 Q217.6094 47.3594 217.6094 47.9375 Q217.6094 48.7812 217.2031 49.2656 Q216.7969 49.75 216.0625 49.9844 Q217.1406 50.1406 217.75 50.7812 Q218.3281 51.4062 218.3281 52.6328 Q218.3281 53.8594 217.5078 54.5156 Q216.6875 55.1719 215.1406 55.1719 Q214.1875 55.1719 213.8281 55.0312 L213.8281 57.5 L212.75 57.5 Z" style="fill:black; stroke:none;" /></g><g ID="li-1:4,5" style="fill:white; text-rendering:optimizeSpeed; font-family:'Serif'; stroke:white;"><rect height="10" style="stroke:none;" width="7" x="284" y="94" /><path d="M285.1719 95.625 Q285.8594 95.3594 286.4844 95.2266 Q287.1094 95.0938 287.6562 95.0938 Q288.9531 95.0938 289.6719 95.6484 Q290.3906 96.2031 290.3906 97.1875 Q290.3906 97.9688 289.8906 98.5 Q289.3906 99.0312 288.4844 99.2188 Q289.5625 99.375 290.1562 100.0078 Q290.75 100.6406 290.75 101.6406 Q290.75 102.8594 289.9219 103.5156 Q289.0938 104.1719 287.5469 104.1719 Q286.8594 104.1719 286.2109 104.0234 Q285.5625 103.875 284.9219 103.5781 L284.9219 101.875 L285.5781 101.875 Q285.625 102.7188 286.1406 103.1562 Q286.6562 103.5938 287.5781 103.5938 Q288.4688 103.5938 288.9922 103.0703 Q289.5156 102.5469 289.5156 101.6562 Q289.5156 100.625 288.9766 100.0938 Q288.4375 99.5625 287.4062 99.5625 L286.8594 99.5625 L286.8594 98.9531 L287.1406 98.9531 Q288.1719 98.9531 288.6875 98.5312 Q289.2031 98.1094 289.2031 97.25 Q289.2031 96.4844 288.7812 96.0781 Q288.3594 95.6719 287.5625 95.6719 Q286.7656 95.6719 286.3359 96.0469 Q285.9062 96.4219 285.8281 97.1562 L285.1719 97.1562 L285.1719 95.625 Z" style="fill:black; stroke:none;" /><rect height="13" style="stroke:none;" width="7" x="267" y="105" /><path d="M268.8281 117.25 Q269.2969 117.5938 270.1719 117.5938 Q271.0625 117.5938 271.5781 117.0703 Q272.0938 116.5469 272.0938 115.6562 Q272.0938 114.4219 271.5625 113.8906 Q271.0156 113.3594 270 113.3594 L269.4375 113.3594 L269.4375 112.7188 L269.7344 112.7188 Q270.4844 112.7188 271 112.2969 Q271.4219 111.9531 271.4219 111.0156 Q271.4219 110.6094 271.1406 110.1406 Q270.6875 109.375 270.1562 109.3906 Q268.8281 109.4375 268.8281 111.7812 L268.8281 117.25 ZM267.75 120.5 L267.75 111.7812 Q267.75 109.3281 269.0781 109 Q269.7656 108.8125 270.25 108.8125 Q271.3438 108.8125 272.0469 109.6719 Q272.6094 110.3594 272.6094 110.9375 Q272.6094 111.7812 272.2031 112.2656 Q271.7969 112.75 271.0625 112.9844 Q272.1406 113.1406 272.75 113.7812 Q273.3281 114.4062 273.3281 115.6328 Q273.3281 116.8594 272.5078 117.5156 Q271.6875 118.1719 270.1406 118.1719 Q269.1875 118.1719 268.8281 118.0312 L268.8281 120.5 L267.75 120.5 Z" style="fill:black; stroke:none;" /></g><g ID="li-1:4,6" style="fill:white; text-rendering:optimizeSpeed; font-family:'Serif'; stroke:white;"><rect height="10" style="stroke:none;" width="7" x="275" y="68" /><path d="M278.9219 77.5938 Q279.75 77.5938 280.1953 76.9844 Q280.6406 76.375 280.6406 75.2344 Q280.6406 74.1094 280.1953 73.5 Q279.75 72.8906 278.9219 72.8906 Q278.0938 72.8906 277.6484 73.4766 Q277.2031 74.0625 277.2031 75.1719 Q277.2031 76.3281 277.6484 76.9609 Q278.0938 77.5938 278.9219 77.5938 ZM277.0156 73.1875 Q277.4219 72.75 277.9219 72.5312 Q278.4219 72.3125 279.0625 72.3125 Q280.3594 72.3125 281.1172 73.0938 Q281.875 73.875 281.875 75.2344 Q281.875 76.5625 281.0625 77.3672 Q280.25 78.1719 278.875 78.1719 Q277.3906 78.1719 276.5938 77.0625 Q275.7969 75.9531 275.7969 73.9062 Q275.7969 71.6094 276.7422 70.3516 Q277.6875 69.0938 279.4062 69.0938 Q279.875 69.0938 280.3828 69.1797 Q280.8906 69.2656 281.4219 69.4375 L281.4219 70.8906 L280.7656 70.8906 Q280.6875 70.2969 280.3047 69.9844 Q279.9219 69.6719 279.2812 69.6719 Q278.1406 69.6719 277.5859 70.5312 Q277.0312 71.3906 277.0156 73.1875 Z" style="fill:black; stroke:none;" /><rect height="13" style="stroke:none;" width="7" x="258" y="53" /><path d="M259.8281 65.25 Q260.2969 65.5938 261.1719 65.5938 Q262.0625 65.5938 262.5781 65.0703 Q263.0938 64.5469 263.0938 63.6562 Q263.0938 62.4219 262.5625 61.8906 Q262.0156 61.3594 261 61.3594 L260.4375 61.3594 L260.4375 60.7188 L260.7344 60.7188 Q261.4844 60.7188 262 60.2969 Q262.4219 59.9531 262.4219 59.0156 Q262.4219 58.6094 262.1406 58.1406 Q261.6875 57.375 261.1562 57.3906 Q259.8281 57.4375 259.8281 59.7812 L259.8281 65.25 ZM258.75 68.5 L258.75 59.7812 Q258.75 57.3281 260.0781 57 Q260.7656 56.8125 261.25 56.8125 Q262.3438 56.8125 263.0469 57.6719 Q263.6094 58.3594 263.6094 58.9375 Q263.6094 59.7812 263.2031 60.2656 Q262.7969 60.75 262.0625 60.9844 Q263.1406 61.1406 263.75 61.7812 Q264.3281 62.4062 264.3281 63.6328 Q264.3281 64.8594 263.5078 65.5156 Q262.6875 66.1719 261.1406 66.1719 Q260.1875 66.1719 259.8281 66.0312 L259.8281 68.5 L258.75 68.5 Z" style="fill:black; stroke:none;" /></g><g ID="li-1:3,4" style="fill:white; text-rendering:optimizeSpeed; font-family:'Serif'; stroke:white;"><rect height="9" style="stroke:none;" width="8" x="330" y="83" /><path d="M334.1875 89.0312 L334.1875 84.375 L331.2031 89.0312 L334.1875 89.0312 ZM336.7656 92 L332.7812 92 L332.7812 91.375 L334.1875 91.375 L334.1875 89.6562 L330.375 89.6562 L330.375 89.0156 L334.2031 83.0938 L335.3594 83.0938 L335.3594 89.0312 L337.0312 89.0312 L337.0312 89.6562 L335.3594 89.6562 L335.3594 91.375 L336.7656 91.375 L336.7656 92 Z" style="fill:black; stroke:none;" /><rect height="13" style="stroke:none;" width="7" x="316" y="81" /><path d="M317.8281 93.25 Q318.2969 93.5938 319.1719 93.5938 Q320.0625 93.5938 320.5781 93.0703 Q321.0938 92.5469 321.0938 91.6562 Q321.0938 90.4219 320.5625 89.8906 Q320.0156 89.3594 319 89.3594 L318.4375 89.3594 L318.4375 88.7188 L318.7344 88.7188 Q319.4844 88.7188 320 88.2969 Q320.4219 87.9531 320.4219 87.0156 Q320.4219 86.6094 320.1406 86.1406 Q319.6875 85.375 319.1562 85.3906 Q317.8281 85.4375 317.8281 87.7812 L317.8281 93.25 ZM316.75 96.5 L316.75 87.7812 Q316.75 85.3281 318.0781 85 Q318.7656 84.8125 319.25 84.8125 Q320.3438 84.8125 321.0469 85.6719 Q321.6094 86.3594 321.6094 86.9375 Q321.6094 87.7812 321.2031 88.2656 Q320.7969 88.75 320.0625 88.9844 Q321.1406 89.1406 321.75 89.7812 Q322.3281 90.4062 322.3281 91.6328 Q322.3281 92.8594 321.5078 93.5156 Q320.6875 94.1719 319.1406 94.1719 Q318.1875 94.1719 317.8281 94.0312 L317.8281 96.5 L316.75 96.5 Z" style="fill:black; stroke:none;" /></g><g ID="li-1:2,3" style="fill:white; text-rendering:optimizeSpeed; font-family:'Serif'; stroke:white;"><rect height="10" style="stroke:none;" width="7" x="382" y="83" /><path d="M383.1719 84.625 Q383.8594 84.3594 384.4844 84.2266 Q385.1094 84.0938 385.6562 84.0938 Q386.9531 84.0938 387.6719 84.6484 Q388.3906 85.2031 388.3906 86.1875 Q388.3906 86.9688 387.8906 87.5 Q387.3906 88.0312 386.4844 88.2188 Q387.5625 88.375 388.1562 89.0078 Q388.75 89.6406 388.75 90.6406 Q388.75 91.8594 387.9219 92.5156 Q387.0938 93.1719 385.5469 93.1719 Q384.8594 93.1719 384.2109 93.0234 Q383.5625 92.875 382.9219 92.5781 L382.9219 90.875 L383.5781 90.875 Q383.625 91.7188 384.1406 92.1562 Q384.6562 92.5938 385.5781 92.5938 Q386.4688 92.5938 386.9922 92.0703 Q387.5156 91.5469 387.5156 90.6562 Q387.5156 89.625 386.9766 89.0938 Q386.4375 88.5625 385.4062 88.5625 L384.8594 88.5625 L384.8594 87.9531 L385.1406 87.9531 Q386.1719 87.9531 386.6875 87.5312 Q387.2031 87.1094 387.2031 86.25 Q387.2031 85.4844 386.7812 85.0781 Q386.3594 84.6719 385.5625 84.6719 Q384.7656 84.6719 384.3359 85.0469 Q383.9062 85.4219 383.8281 86.1562 L383.1719 86.1562 L383.1719 84.625 Z" style="fill:black; stroke:none;" /><rect height="13" style="stroke:none;" width="7" x="368" y="81" /><path d="M369.8281 93.25 Q370.2969 93.5938 371.1719 93.5938 Q372.0625 93.5938 372.5781 93.0703 Q373.0938 92.5469 373.0938 91.6562 Q373.0938 90.4219 372.5625 89.8906 Q372.0156 89.3594 371 89.3594 L370.4375 89.3594 L370.4375 88.7188 L370.7344 88.7188 Q371.4844 88.7188 372 88.2969 Q372.4219 87.9531 372.4219 87.0156 Q372.4219 86.6094 372.1406 86.1406 Q371.6875 85.375 371.1562 85.3906 Q369.8281 85.4375 369.8281 87.7812 L369.8281 93.25 ZM368.75 96.5 L368.75 87.7812 Q368.75 85.3281 370.0781 85 Q370.7656 84.8125 371.25 84.8125 Q372.3438 84.8125 373.0469 85.6719 Q373.6094 86.3594 373.6094 86.9375 Q373.6094 87.7812 373.2031 88.2656 Q372.7969 88.75 372.0625 88.9844 Q373.1406 89.1406 373.75 89.7812 Q374.3281 90.4062 374.3281 91.6328 Q374.3281 92.8594 373.5078 93.5156 Q372.6875 94.1719 371.1406 94.1719 Q370.1875 94.1719 369.8281 94.0312 L369.8281 96.5 L368.75 96.5 Z" style="fill:black; stroke:none;" /></g><g ID="li-1:1,2" style="fill:white; text-rendering:optimizeSpeed; font-family:'Serif'; stroke:white;"><rect height="9" style="stroke:none;" width="8" x="434" y="83" /><path d="M438.1875 89.0312 L438.1875 84.375 L435.2031 89.0312 L438.1875 89.0312 ZM440.7656 92 L436.7812 92 L436.7812 91.375 L438.1875 91.375 L438.1875 89.6562 L434.375 89.6562 L434.375 89.0156 L438.2031 83.0938 L439.3594 83.0938 L439.3594 89.0312 L441.0312 89.0312 L441.0312 89.6562 L439.3594 89.6562 L439.3594 91.375 L440.7656 91.375 L440.7656 92 Z" style="fill:black; stroke:none;" /><rect height="13" style="stroke:none;" width="7" x="420" y="81" /><path d="M421.8281 93.25 Q422.2969 93.5938 423.1719 93.5938 Q424.0625 93.5938 424.5781 93.0703 Q425.0938 92.5469 425.0938 91.6562 Q425.0938 90.4219 424.5625 89.8906 Q424.0156 89.3594 423 89.3594 L422.4375 89.3594 L422.4375 88.7188 L422.7344 88.7188 Q423.4844 88.7188 424 88.2969 Q424.4219 87.9531 424.4219 87.0156 Q424.4219 86.6094 424.1406 86.1406 Q423.6875 85.375 423.1562 85.3906 Q421.8281 85.4375 421.8281 87.7812 L421.8281 93.25 ZM420.75 96.5 L420.75 87.7812 Q420.75 85.3281 422.0781 85 Q422.7656 84.8125 423.25 84.8125 Q424.3438 84.8125 425.0469 85.6719 Q425.6094 86.3594 425.6094 86.9375 Q425.6094 87.7812 425.2031 88.2656 Q424.7969 88.75 424.0625 88.9844 Q425.1406 89.1406 425.75 89.7812 Q426.3281 90.4062 426.3281 91.6328 Q426.3281 92.8594 425.5078 93.5156 Q424.6875 94.1719 423.1406 94.1719 Q422.1875 94.1719 421.8281 94.0312 L421.8281 96.5 L420.75 96.5 Z" style="fill:black; stroke:none;" /></g></g></svg>