<svg xmlns="http://www.w3.org/2000/svg" style="fill-opacity:1; color-rendering:auto; color-interpolation:auto; text-rendering:auto; stroke:black; stroke-linecap:square; stroke-miterlimit:10; shape-rendering:auto; stroke-opacity:1; fill:black; stroke-dasharray:none; font-weight:normal; stroke-width:1; font-family:'Dialog'; font-style:normal; stroke-linejoin:miter; font-size:12px; stroke-dashoffset:0; image-rendering:auto;"><defs id="genericDefs" /><g><defs id="defs1"><clipPath clipPathUnits="userSpaceOnUse" id="clipPath1"><path d="M208 93 C208 99.0751 203.0751 104 197 104 C190.9249 104 186 99.0751 186 93 C186 86.9249 190.9249 82 197 82 C203.0751 82 208 86.9249 208 93 Z" /></clipPath><clipPath clipPathUnits="userSpaceOnUse" id="clipPath2"><path d="M156 93 C156 99.0751 151.0751 104 145 104 C138.9249 104 134 99.0751 134 93 C134 86.9249 138.9249 82 145 82 C151.0751 82 156 86.9249 156 93 Z" /></clipPath><clipPath clipPathUnits="userSpaceOnUse" id="clipPath3"><path d="M82 82 L104 82 L104 104 L82 104 L82 82 Z" /></clipPath><clipPath clipPathUnits="userSpaceOnUse" id="clipPath4"><path d="M52 119 C52 125.0751 47.0751 130 41 130 C34.9249 130 30 125.0751 30 119 C30 112.9249 34.9249 108 41 108 C47.0751 108 52 112.9249 52 119 Z" /></clipPath><clipPath clipPathUnits="userSpaceOnUse" id="clipPath5"><path d="M93 52 L82 30 L104 30 Z" style="fill-rule:evenodd;" /></clipPath><clipPath clipPathUnits="userSpaceOnUse" id="clipPath6"><path d="M41 56 L52 67 L41 78 L30 67 Z" style="fill-rule:evenodd;" /></clipPath></defs><g style="fill:white; text-rendering:optimizeSpeed; stroke:white;"><rect height="160" style="stroke:none;" width="238" x="0" y="0" /></g><g ID="l-1:1,2" style="text-rendering:optimizeSpeed;"><polygon points=" 197 93 145 93" style="fill:none;" /></g><g ID="r-1:1" style="fill:white; text-rendering:optimizeSpeed; stroke:white;" wurcs_mono_id="1"><circle cx="197" cy="93" r="11" style="clip-path:url(#clipPath1); stroke:none;" /><rect height="22" style="clip-path:url(#clipPath1); fill:rgb(0,144,188); stroke:none;" width="22" x="186" y="82" /><rect height="22" style="clip-path:url(#clipPath1); fill:none; stroke:black;" width="22" x="186" y="82" /><circle cx="197" cy="93" r="11" style="fill:none; stroke:black;" /></g><g ID="l-1:2,3" style="text-rendering:optimizeSpeed;"><polygon points=" 145 93 93 93" style="fill:none;" /></g><g ID="r-1:2" style="fill:white; text-rendering:optimizeSpeed; stroke:white;" wurcs_mono_id="2"><circle cx="145" cy="93" r="11" style="clip-path:url(#clipPath2); stroke:none;" /><rect height="22" style="clip-path:url(#clipPath2); fill:rgb(255,212,0); stroke:none;" width="22" x="134" y="82" /><rect height="22" style="clip-path:url(#clipPath2); fill:none; stroke:black;" width="22" x="134" y="82" /><circle cx="145" cy="93" r="11" style="fill:none; stroke:black;" /></g><g ID="l-1:3,4" style="text-rendering:optimizeSpeed;"><polygon points=" 93 93 41 119" style="fill:none;" /></g><g ID="l-1:3,5" style="text-rendering:optimizeSpeed;"><polygon points=" 93 93 93 41" style="fill:none;" /></g><g ID="l-1:3,6" style="text-rendering:optimizeSpeed;"><polygon points=" 93 93 41 67" style="fill:none;" /></g><g ID="r-1:3" style="fill:white; text-rendering:optimizeSpeed; stroke:white;" wurcs_mono_id="3"><rect height="22" style="clip-path:url(#clipPath3); stroke:none;" width="22" x="82" y="82" /><rect height="22" style="clip-path:url(#clipPath3); fill:rgb(0,144,188); stroke:none;" width="22" x="82" y="82" /><rect height="22" style="clip-path:url(#clipPath3); fill:none; stroke:black;" width="22" x="82" y="82" /><rect height="22" style="fill:none; stroke:black;" width="22" x="82" y="82" /></g><g ID="r-1:4" style="fill:white; text-rendering:optimizeSpeed; stroke:white;" wurcs_mono_id="4"><circle cx="41" cy="119" r="11" style="clip-path:url(#clipPath4); stroke:none;" /><rect height="22" style="clip-path:url(#clipPath4); fill:rgb(255,212,0); stroke:none;" width="22" x="30" y="108" /><rect height="22" style="clip-path:url(#clipPath4); fill:none; stroke:black;" width="22" x="30" y="108" /><circle cx="41" cy="119" r="11" style="fill:none; stroke:black;" /></g><g ID="r-1:5" style="fill:white; text-rendering:optimizeSpeed; stroke:white;" wurcs_mono_id="5"><polygon points=" 93 52 82 30 104 30" style="stroke:none; clip-path:url(#clipPath5);" /><rect height="22" style="clip-path:url(#clipPath5); fill:rgb(237,28,36); stroke:none;" width="22" x="82" y="30" /><rect height="22" style="clip-path:url(#clipPath5); fill:none; stroke:black;" width="22" x="82" y="30" /><polygon points=" 93 52 82 30 104 30" style="fill:none; stroke:black;" /></g><g ID="r-1:6" style="fill:white; text-rendering:optimizeSpeed; stroke:white;" wurcs_mono_id="6"><polygon points=" 41 56 52 67 41 78 30 67" style="stroke:none; clip-path:url(#clipPath6);" /><rect height="22" style="clip-path:url(#clipPath6); fill:rgb(165,67,153); stroke:none;" width="22" x="30" y="56" /><rect height="22" style="clip-path:url(#clipPath6); fill:none; stroke:black;" width="22" x="30" y="56" /><polygon points=" 41 56 52 67 41 78 30 67" style="fill:none; stroke:black;" /></g><g ID="li-1:3,4" style="fill:white; text-rendering:optimizeSpeed; font-family:'Serif'; stroke:white;"><rect height="10" style="stroke:none;" width="7" x="74" y="104" /><path d="M75.1719 105.625 Q75.8594 105.3594 76.4844 105.2266 Q77.1094 105.0938 77.6562 105.0938 Q78.9531 105.0938 79.6719 105.6484 Q80.3906 106.2031 80.3906 107.1875 Q80.3906 107.9688 79.8906 108.5 Q79.3906 109.0312 78.4844 109.2188 Q79.5625 109.375 80.1562 110.0078 Q80.75 110.6406 80.75 111.6406 Q80.75 112.8594 79.9219 113.5156 Q79.0938 114.1719 77.5469 114.1719 Q76.8594 114.1719 76.2109 114.0234 Q75.5625 113.875 74.9219 113.5781 L74.9219 111.875 L75.5781 111.875 Q75.625 112.7188 76.1406 113.1562 Q76.6562 113.5938 77.5781 113.5938 Q78.4688 113.5938 78.9922 113.0703 Q79.5156 112.5469 79.5156 111.6562 Q79.5156 110.625 78.9766 110.0938 Q78.4375 109.5625 77.4062 109.5625 L76.8594 109.5625 L76.8594 108.9531 L77.1406 108.9531 Q78.1719 108.9531 78.6875 108.5312 Q79.2031 108.1094 79.2031 107.25 Q79.2031 106.4844 78.7812 106.0781 Q78.3594 105.6719 77.5625 105.6719 Q76.7656 105.6719 76.3359 106.0469 Q75.9062 106.4219 75.8281 107.1562 L75.1719 107.1562 L75.1719 105.625 Z" style="fill:black; stroke:none;" /><rect height="13" style="stroke:none;" width="7" x="59" y="110" /><path d="M60.8281 122.25 Q61.2969 122.5938 62.1719 122.5938 Q63.0625 122.5938 63.5781 122.0703 Q64.0938 121.5469 64.0938 120.6562 Q64.0938 119.4219 63.5625 118.8906 Q63.0156 118.3594 62 118.3594 L61.4375 118.3594 L61.4375 117.7188 L61.7344 117.7188 Q62.4844 117.7188 63 117.2969 Q63.4219 116.9531 63.4219 116.0156 Q63.4219 115.6094 63.1406 115.1406 Q62.6875 114.375 62.1562 114.3906 Q60.8281 114.4375 60.8281 116.7812 L60.8281 122.25 ZM59.75 125.5 L59.75 116.7812 Q59.75 114.3281 61.0781 114 Q61.7656 113.8125 62.25 113.8125 Q63.3438 113.8125 64.0469 114.6719 Q64.6094 115.3594 64.6094 115.9375 Q64.6094 116.7812 64.2031 117.2656 Q63.7969 117.75 63.0625 117.9844 Q64.1406 118.1406 64.75 118.7812 Q65.3281 119.4062 65.3281 120.6328 Q65.3281 121.8594 64.5078 122.5156 Q63.6875 123.1719 62.1406 123.1719 Q61.1875 123.1719 60.8281 123.0312 L60.8281 125.5 L59.75 125.5 Z" style="fill:black; stroke:none;" /></g><g ID="li-1:3,5" style="fill:white; text-rendering:optimizeSpeed; font-family:'Serif'; stroke:white;"><rect height="9" style="stroke:none;" width="8" x="81" y="69" /><path d="M85.1875 75.0312 L85.1875 70.375 L82.2031 75.0312 L85.1875 75.0312 ZM87.7656 78 L83.7812 78 L83.7812 77.375 L85.1875 77.375 L85.1875 75.6562 L81.375 75.6562 L81.375 75.0156 L85.2031 69.0938 L86.3594 69.0938 L86.3594 75.0312 L88.0312 75.0312 L88.0312 75.6562 L86.3594 75.6562 L86.3594 77.375 L87.7656 77.375 L87.7656 78 Z" style="fill:black; stroke:none;" /><rect height="8" style="stroke:none;" width="8" x="81" y="56" /><path d="M86.1875 62.4688 L85.9531 63.1094 Q85.7656 63.625 85.2031 63.9375 Q84.8438 64.1562 84.2031 64.1406 Q83.0469 64.1406 82.3281 63.2344 Q81.5938 62.3281 81.5938 60.8594 Q81.5938 59.4219 82.3281 58.4844 Q83.0156 57.5938 84.4531 57.6094 Q85.4531 57.6094 85.9531 58 Q86.4062 58.3438 86.5781 59.0938 L86.625 59.3125 L86.8438 58.6719 Q87.0625 58.0469 87.6562 57.75 L88.25 57.75 L88.25 58.0938 Q87.6875 58.2656 87.5 58.8125 L86.8906 60.4844 L87.2969 62.2812 Q87.5 63.2031 87.7344 63.2969 Q88.0469 63.4375 88.7812 63 L88.7812 63.7188 Q87.5938 64.4062 86.75 63.6875 Q86.375 63.3594 86.2656 62.875 L86.1875 62.4688 ZM85.9219 61.3125 L85.5625 59.5938 Q85.2656 58.2188 84.4688 58.2188 Q83.7969 58.2031 83.2812 58.9375 Q82.8594 59.5156 82.8594 60.875 Q82.8594 62.1719 83.2812 62.8281 Q83.75 63.5469 84.5312 63.5 Q85.2031 63.4375 85.6875 62 L85.9219 61.3125 Z" style="fill:black; stroke:none;" /></g><g ID="li-1:3,6" style="fill:white; text-rendering:optimizeSpeed; font-family:'Serif'; stroke:white;"><rect height="10" style="stroke:none;" width="7" x="67" y="86" /><path d="M70.9219 95.5938 Q71.75 95.5938 72.1953 94.9844 Q72.6406 94.375 72.6406 93.2344 Q72.6406 92.1094 72.1953 91.5 Q71.75 90.8906 70.9219 90.8906 Q70.0938 90.8906 69.6484 91.4766 Q69.2031 92.0625 69.2031 93.1719 Q69.2031 94.3281 69.6484 94.9609 Q70.0938 95.5938 70.9219 95.5938 ZM69.0156 91.1875 Q69.4219 90.75 69.9219 90.5312 Q70.4219 90.3125 71.0625 90.3125 Q72.3594 90.3125 73.1172 91.0938 Q73.875 91.875 73.875 93.2344 Q73.875 94.5625 73.0625 95.3672 Q72.25 96.1719 70.875 96.1719 Q69.3906 96.1719 68.5938 95.0625 Q67.7969 93.9531 67.7969 91.9062 Q67.7969 89.6094 68.7422 88.3516 Q69.6875 87.0938 71.4062 87.0938 Q71.875 87.0938 72.3828 87.1797 Q72.8906 87.2656 73.4219 87.4375 L73.4219 88.8906 L72.7656 88.8906 Q72.6875 88.2969 72.3047 87.9844 Q71.9219 87.6719 71.2812 87.6719 Q70.1406 87.6719 69.5859 88.5312 Q69.0312 89.3906 69.0156 91.1875 Z" style="fill:black; stroke:none;" /><rect height="8" style="stroke:none;" width="8" x="51" y="79" /><path d="M56.1875 85.4688 L55.9531 86.1094 Q55.7656 86.625 55.2031 86.9375 Q54.8438 87.1562 54.2031 87.1406 Q53.0469 87.1406 52.3281 86.2344 Q51.5938 85.3281 51.5938 83.8594 Q51.5938 82.4219 52.3281 81.4844 Q53.0156 80.5938 54.4531 80.6094 Q55.4531 80.6094 55.9531 81 Q56.4062 81.3438 56.5781 82.0938 L56.625 82.3125 L56.8438 81.6719 Q57.0625 81.0469 57.6562 80.75 L58.25 80.75 L58.25 81.0938 Q57.6875 81.2656 57.5 81.8125 L56.8906 83.4844 L57.2969 85.2812 Q57.5 86.2031 57.7344 86.2969 Q58.0469 86.4375 58.7812 86 L58.7812 86.7188 Q57.5938 87.4062 56.75 86.6875 Q56.375 86.3594 56.2656 85.875 L56.1875 85.4688 ZM55.9219 84.3125 L55.5625 82.5938 Q55.2656 81.2188 54.4688 81.2188 Q53.7969 81.2031 53.2812 81.9375 Q52.8594 82.5156 52.8594 83.875 Q52.8594 85.1719 53.2812 85.8281 Q53.75 86.5469 54.5312 86.5 Q55.2031 86.4375 55.6875 85 L55.9219 84.3125 Z" style="fill:black; stroke:none;" /></g><g ID="li-1:2,3" style="fill:white; text-rendering:optimizeSpeed; font-family:'Serif'; stroke:white;"><rect height="10" style="stroke:none;" width="7" x="122" y="96" /><path d="M123.1719 97.625 Q123.8594 97.3594 124.4844 97.2266 Q125.1094 97.0938 125.6562 97.0938 Q126.9531 97.0938 127.6719 97.6484 Q128.3906 98.2031 128.3906 99.1875 Q128.3906 99.9688 127.8906 100.5 Q127.3906 101.0312 126.4844 101.2188 Q127.5625 101.375 128.1562 102.0078 Q128.75 102.6406 128.75 103.6406 Q128.75 104.8594 127.9219 105.5156 Q127.0938 106.1719 125.5469 106.1719 Q124.8594 106.1719 124.2109 106.0234 Q123.5625 105.875 122.9219 105.5781 L122.9219 103.875 L123.5781 103.875 Q123.625 104.7188 124.1406 105.1562 Q124.6562 105.5938 125.5781 105.5938 Q126.4688 105.5938 126.9922 105.0703 Q127.5156 104.5469 127.5156 103.6562 Q127.5156 102.625 126.9766 102.0938 Q126.4375 101.5625 125.4062 101.5625 L124.8594 101.5625 L124.8594 100.9531 L125.1406 100.9531 Q126.1719 100.9531 126.6875 100.5312 Q127.2031 100.1094 127.2031 99.25 Q127.2031 98.4844 126.7812 98.0781 Q126.3594 97.6719 125.5625 97.6719 Q124.7656 97.6719 124.3359 98.0469 Q123.9062 98.4219 123.8281 99.1562 L123.1719 99.1562 L123.1719 97.625 Z" style="fill:black; stroke:none;" /><rect height="13" style="stroke:none;" width="7" x="108" y="94" /><path d="M109.8281 106.25 Q110.2969 106.5938 111.1719 106.5938 Q112.0625 106.5938 112.5781 106.0703 Q113.0938 105.5469 113.0938 104.6562 Q113.0938 103.4219 112.5625 102.8906 Q112.0156 102.3594 111 102.3594 L110.4375 102.3594 L110.4375 101.7188 L110.7344 101.7188 Q111.4844 101.7188 112 101.2969 Q112.4219 100.9531 112.4219 100.0156 Q112.4219 99.6094 112.1406 99.1406 Q111.6875 98.375 111.1562 98.3906 Q109.8281 98.4375 109.8281 100.7812 L109.8281 106.25 ZM108.75 109.5 L108.75 100.7812 Q108.75 98.3281 110.0781 98 Q110.7656 97.8125 111.25 97.8125 Q112.3438 97.8125 113.0469 98.6719 Q113.6094 99.3594 113.6094 99.9375 Q113.6094 100.7812 113.2031 101.2656 Q112.7969 101.75 112.0625 101.9844 Q113.1406 102.1406 113.75 102.7812 Q114.3281 103.4062 114.3281 104.6328 Q114.3281 105.8594 113.5078 106.5156 Q112.6875 107.1719 111.1406 107.1719 Q110.1875 107.1719 109.8281 107.0312 L109.8281 109.5 L108.75 109.5 Z" style="fill:black; stroke:none;" /></g><g ID="li-1:1,2" style="fill:white; text-rendering:optimizeSpeed; font-family:'Serif'; stroke:white;"><rect height="9" style="stroke:none;" width="8" x="174" y="96" /><path d="M178.1875 102.0312 L178.1875 97.375 L175.2031 102.0312 L178.1875 102.0312 ZM180.7656 105 L176.7812 105 L176.7812 104.375 L178.1875 104.375 L178.1875 102.6562 L174.375 102.6562 L174.375 102.0156 L178.2031 96.0938 L179.3594 96.0938 L179.3594 102.0312 L181.0312 102.0312 L181.0312 102.6562 L179.3594 102.6562 L179.3594 104.375 L180.7656 104.375 L180.7656 105 Z" style="fill:black; stroke:none;" /><rect height="13" style="stroke:none;" width="7" x="160" y="94" /><path d="M161.8281 106.25 Q162.2969 106.5938 163.1719 106.5938 Q164.0625 106.5938 164.5781 106.0703 Q165.0938 105.5469 165.0938 104.6562 Q165.0938 103.4219 164.5625 102.8906 Q164.0156 102.3594 163 102.3594 L162.4375 102.3594 L162.4375 101.7188 L162.7344 101.7188 Q163.4844 101.7188 164 101.2969 Q164.4219 100.9531 164.4219 100.0156 Q164.4219 99.6094 164.1406 99.1406 Q163.6875 98.375 163.1562 98.3906 Q161.8281 98.4375 161.8281 100.7812 L161.8281 106.25 ZM160.75 109.5 L160.75 100.7812 Q160.75 98.3281 162.0781 98 Q162.7656 97.8125 163.25 97.8125 Q164.3438 97.8125 165.0469 98.6719 Q165.6094 99.3594 165.6094 99.9375 Q165.6094 100.7812 165.2031 101.2656 Q164.7969 101.75 164.0625 101.9844 Q165.1406 102.1406 165.75 102.7812 Q166.3281 103.4062 166.3281 104.6328 Q166.3281 105.8594 165.5078 106.5156 Q164.6875 107.1719 163.1406 107.1719 Q162.1875 107.1719 161.8281 107.0312 L161.8281 109.5 L160.75 109.5 Z" style="fill:black; stroke:none;" /></g></g></svg>