<svg xmlns="http://www.w3.org/2000/svg" style="fill-opacity:1; color-rendering:auto; color-interpolation:auto; text-rendering:auto; stroke:black; stroke-linecap:square; stroke-miterlimit:10; shape-rendering:auto; stroke-opacity:1; fill:black; stroke-dasharray:none; font-weight:normal; stroke-width:1; font-family:'Dialog'; font-style:normal; stroke-linejoin:miter; font-size:12px; stroke-dashoffset:0; image-rendering:auto;"><defs id="genericDefs" /><g><defs id="defs1"><clipPath clipPathUnits="userSpaceOnUse" id="clipPath1"><path d="M260 93 C260 99.0751 255.0751 104 249 104 C242.9249 104 238 99.0751 238 93 C238 86.9249 242.9249 82 249 82 C255.0751 82 260 86.9249 260 93 Z" /></clipPath><clipPath clipPathUnits="userSpaceOnUse" id="clipPath2"><path d="M208 93 C208 99.0751 203.0751 104 197 104 C190.9249 104 186 99.0751 186 93 C186 86.9249 190.9249 82 197 82 C203.0751 82 208 86.9249 208 93 Z" /></clipPath><clipPath clipPathUnits="userSpaceOnUse" id="clipPath3"><path d="M156 119 C156 125.0751 151.0751 130 145 130 C138.9249 130 134 125.0751 134 119 C134 112.9249 138.9249 108 145 108 C151.0751 108 156 112.9249 156 119 Z" /></clipPath><clipPath clipPathUnits="userSpaceOnUse" id="clipPath4"><path d="M156 67 C156 73.0751 151.0751 78 145 78 C138.9249 78 134 73.0751 134 67 C134 60.9249 138.9249 56 145 56 C151.0751 56 156 60.9249 156 67 Z" /></clipPath><clipPath clipPathUnits="userSpaceOnUse" id="clipPath5"><path d="M104 93 C104 99.0751 99.0751 104 93 104 C86.9249 104 82 99.0751 82 93 C82 86.9249 86.9249 82 93 82 C99.0751 82 104 86.9249 104 93 Z" /></clipPath><clipPath clipPathUnits="userSpaceOnUse" id="clipPath6"><path d="M104 41 C104 47.0751 99.0751 52 93 52 C86.9249 52 82 47.0751 82 41 C82 34.9249 86.9249 30 93 30 C99.0751 30 104 34.9249 104 41 Z" /></clipPath><clipPath clipPathUnits="userSpaceOnUse" id="clipPath7"><path d="M52 41 C52 47.0751 47.0751 52 41 52 C34.9249 52 30 47.0751 30 41 C30 34.9249 34.9249 30 41 30 C47.0751 30 52 34.9249 52 41 Z" /></clipPath></defs><g style="fill:white; text-rendering:optimizeSpeed; stroke:white;"><rect height="160" style="stroke:none;" width="290" x="0" y="0" /></g><g ID="l-1:1,2" style="text-rendering:optimizeSpeed;"><polygon points=" 249 93 197 93" style="fill:none;" /></g><g ID="r-1:1" style="fill:white; text-rendering:optimizeSpeed; stroke:white;" wurcs_mono_id="1"><circle cx="249" cy="93" r="11" style="clip-path:url(#clipPath1); stroke:none;" /><rect height="22" style="clip-path:url(#clipPath1); fill:rgb(0,144,188); stroke:none;" width="22" x="238" y="82" /><rect height="22" style="clip-path:url(#clipPath1); fill:none; stroke:black;" width="22" x="238" y="82" /><circle cx="249" cy="93" r="11" style="fill:none; stroke:black;" /></g><g ID="l-1:2,3" style="text-rendering:optimizeSpeed;"><polygon points=" 197 93 145 119" style="fill:none;" /></g><g ID="l-1:2,4" style="text-rendering:optimizeSpeed;"><polygon points=" 197 93 145 67" style="fill:none;" /></g><g ID="r-1:2" style="fill:white; text-rendering:optimizeSpeed; stroke:white;" wurcs_mono_id="2"><circle cx="197" cy="93" r="11" style="clip-path:url(#clipPath2); stroke:none;" /><rect height="22" style="clip-path:url(#clipPath2); fill:rgb(0,144,188); stroke:none;" width="22" x="186" y="82" /><rect height="22" style="clip-path:url(#clipPath2); fill:none; stroke:black;" width="22" x="186" y="82" /><circle cx="197" cy="93" r="11" style="fill:none; stroke:black;" /></g><g ID="r-1:3" style="fill:white; text-rendering:optimizeSpeed; stroke:white;" wurcs_mono_id="3"><circle cx="145" cy="119" r="11" style="clip-path:url(#clipPath3); stroke:none;" /><rect height="22" style="clip-path:url(#clipPath3); fill:rgb(0,144,188); stroke:none;" width="22" x="134" y="108" /><rect height="22" style="clip-path:url(#clipPath3); fill:none; stroke:black;" width="22" x="134" y="108" /><circle cx="145" cy="119" r="11" style="fill:none; stroke:black;" /></g><g ID="l-1:4,5" style="text-rendering:optimizeSpeed;"><polygon points=" 145 67 93 93" style="fill:none;" /></g><g ID="l-1:4,6" style="text-rendering:optimizeSpeed;"><polygon points=" 145 67 93 41" style="fill:none;" /></g><g ID="r-1:4" style="fill:white; text-rendering:optimizeSpeed; stroke:white;" wurcs_mono_id="4"><circle cx="145" cy="67" r="11" style="clip-path:url(#clipPath4); stroke:none;" /><rect height="22" style="clip-path:url(#clipPath4); fill:rgb(0,144,188); stroke:none;" width="22" x="134" y="56" /><rect height="22" style="clip-path:url(#clipPath4); fill:none; stroke:black;" width="22" x="134" y="56" /><circle cx="145" cy="67" r="11" style="fill:none; stroke:black;" /></g><g ID="r-1:5" style="fill:white; text-rendering:optimizeSpeed; stroke:white;" wurcs_mono_id="5"><circle cx="93" cy="93" r="11" style="clip-path:url(#clipPath5); stroke:none;" /><rect height="22" style="clip-path:url(#clipPath5); fill:rgb(0,144,188); stroke:none;" width="22" x="82" y="82" /><rect height="22" style="clip-path:url(#clipPath5); fill:none; stroke:black;" width="22" x="82" y="82" /><circle cx="93" cy="93" r="11" style="fill:none; stroke:black;" /></g><g ID="l-1:6,7" style="text-rendering:optimizeSpeed;"><polygon points=" 93 41 41 41" style="fill:none;" /></g><g ID="r-1:6" style="fill:white; text-rendering:optimizeSpeed; stroke:white;" wurcs_mono_id="6"><circle cx="93" cy="41" r="11" style="clip-path:url(#clipPath6); stroke:none;" /><rect height="22" style="clip-path:url(#clipPath6); fill:rgb(0,144,188); stroke:none;" width="22" x="82" y="30" /><rect height="22" style="clip-path:url(#clipPath6); fill:none; stroke:black;" width="22" x="82" y="30" /><circle cx="93" cy="41" r="11" style="fill:none; stroke:black;" /></g><g ID="r-1:7" style="fill:white; text-rendering:optimizeSpeed; stroke:white;" wurcs_mono_id="7"><circle cx="41" cy="41" r="11" style="clip-path:url(#clipPath7); stroke:none;" /><rect height="22" style="clip-path:url(#clipPath7); fill:rgb(0,144,188); stroke:none;" width="22" x="30" y="30" /><rect height="22" style="clip-path:url(#clipPath7); fill:none; stroke:black;" width="22" x="30" y="30" /><circle cx="41" cy="41" r="11" style="fill:none; stroke:black;" /></g><g ID="li-1:6,7" style="fill:white; text-rendering:optimizeSpeed; font-family:'Serif'; stroke:white;"><rect height="10" style="stroke:none;" width="7" x="70" y="44" /><path d="M73.9219 53.5938 Q74.75 53.5938 75.1953 52.9844 Q75.6406 52.375 75.6406 51.2344 Q75.6406 50.1094 75.1953 49.5 Q74.75 48.8906 73.9219 48.8906 Q73.0938 48.8906 72.6484 49.4766 Q72.2031 50.0625 72.2031 51.1719 Q72.2031 52.3281 72.6484 52.9609 Q73.0938 53.5938 73.9219 53.5938 ZM72.0156 49.1875 Q72.4219 48.75 72.9219 48.5312 Q73.4219 48.3125 74.0625 48.3125 Q75.3594 48.3125 76.1172 49.0938 Q76.875 49.875 76.875 51.2344 Q76.875 52.5625 76.0625 53.3672 Q75.25 54.1719 73.875 54.1719 Q72.3906 54.1719 71.5938 53.0625 Q70.7969 51.9531 70.7969 49.9062 Q70.7969 47.6094 71.7422 46.3516 Q72.6875 45.0938 74.4062 45.0938 Q74.875 45.0938 75.3828 45.1797 Q75.8906 45.2656 76.4219 45.4375 L76.4219 46.8906 L75.7656 46.8906 Q75.6875 46.2969 75.3047 45.9844 Q74.9219 45.6719 74.2812 45.6719 Q73.1406 45.6719 72.5859 46.5312 Q72.0312 47.3906 72.0156 49.1875 Z" style="fill:black; stroke:none;" /><rect height="13" style="stroke:none;" width="7" x="56" y="42" /><path d="M57.8281 54.25 Q58.2969 54.5938 59.1719 54.5938 Q60.0625 54.5938 60.5781 54.0703 Q61.0938 53.5469 61.0938 52.6562 Q61.0938 51.4219 60.5625 50.8906 Q60.0156 50.3594 59 50.3594 L58.4375 50.3594 L58.4375 49.7188 L58.7344 49.7188 Q59.4844 49.7188 60 49.2969 Q60.4219 48.9531 60.4219 48.0156 Q60.4219 47.6094 60.1406 47.1406 Q59.6875 46.375 59.1562 46.3906 Q57.8281 46.4375 57.8281 48.7812 L57.8281 54.25 ZM56.75 57.5 L56.75 48.7812 Q56.75 46.3281 58.0781 46 Q58.7656 45.8125 59.25 45.8125 Q60.3438 45.8125 61.0469 46.6719 Q61.6094 47.3594 61.6094 47.9375 Q61.6094 48.7812 61.2031 49.2656 Q60.7969 49.75 60.0625 49.9844 Q61.1406 50.1406 61.75 50.7812 Q62.3281 51.4062 62.3281 52.6328 Q62.3281 53.8594 61.5078 54.5156 Q60.6875 55.1719 59.1406 55.1719 Q58.1875 55.1719 57.8281 55.0312 L57.8281 57.5 L56.75 57.5 Z" style="fill:black; stroke:none;" /></g><g ID="li-1:4,5" style="fill:white; text-rendering:optimizeSpeed; font-family:'Serif'; stroke:white;"><rect height="10" style="stroke:none;" width="7" x="126" y="78" /><path d="M127.1719 79.625 Q127.8594 79.3594 128.4844 79.2266 Q129.1094 79.0938 129.6562 79.0938 Q130.9531 79.0938 131.6719 79.6484 Q132.3906 80.2031 132.3906 81.1875 Q132.3906 81.9688 131.8906 82.5 Q131.3906 83.0312 130.4844 83.2188 Q131.5625 83.375 132.1562 84.0078 Q132.75 84.6406 132.75 85.6406 Q132.75 86.8594 131.9219 87.5156 Q131.0938 88.1719 129.5469 88.1719 Q128.8594 88.1719 128.2109 88.0234 Q127.5625 87.875 126.9219 87.5781 L126.9219 85.875 L127.5781 85.875 Q127.625 86.7188 128.1406 87.1562 Q128.6562 87.5938 129.5781 87.5938 Q130.4688 87.5938 130.9922 87.0703 Q131.5156 86.5469 131.5156 85.6562 Q131.5156 84.625 130.9766 84.0938 Q130.4375 83.5625 129.4062 83.5625 L128.8594 83.5625 L128.8594 82.9531 L129.1406 82.9531 Q130.1719 82.9531 130.6875 82.5312 Q131.2031 82.1094 131.2031 81.25 Q131.2031 80.4844 130.7812 80.0781 Q130.3594 79.6719 129.5625 79.6719 Q128.7656 79.6719 128.3359 80.0469 Q127.9062 80.4219 127.8281 81.1562 L127.1719 81.1562 L127.1719 79.625 Z" style="fill:black; stroke:none;" /><rect height="13" style="stroke:none;" width="7" x="111" y="84" /><path d="M112.8281 96.25 Q113.2969 96.5938 114.1719 96.5938 Q115.0625 96.5938 115.5781 96.0703 Q116.0938 95.5469 116.0938 94.6562 Q116.0938 93.4219 115.5625 92.8906 Q115.0156 92.3594 114 92.3594 L113.4375 92.3594 L113.4375 91.7188 L113.7344 91.7188 Q114.4844 91.7188 115 91.2969 Q115.4219 90.9531 115.4219 90.0156 Q115.4219 89.6094 115.1406 89.1406 Q114.6875 88.375 114.1562 88.3906 Q112.8281 88.4375 112.8281 90.7812 L112.8281 96.25 ZM111.75 99.5 L111.75 90.7812 Q111.75 88.3281 113.0781 88 Q113.7656 87.8125 114.25 87.8125 Q115.3438 87.8125 116.0469 88.6719 Q116.6094 89.3594 116.6094 89.9375 Q116.6094 90.7812 116.2031 91.2656 Q115.7969 91.75 115.0625 91.9844 Q116.1406 92.1406 116.75 92.7812 Q117.3281 93.4062 117.3281 94.6328 Q117.3281 95.8594 116.5078 96.5156 Q115.6875 97.1719 114.1406 97.1719 Q113.1875 97.1719 112.8281 97.0312 L112.8281 99.5 L111.75 99.5 Z" style="fill:black; stroke:none;" /></g><g ID="li-1:4,6" style="fill:white; text-rendering:optimizeSpeed; font-family:'Serif'; stroke:white;"><rect height="10" style="stroke:none;" width="7" x="119" y="60" /><path d="M122.9219 69.5938 Q123.75 69.5938 124.1953 68.9844 Q124.6406 68.375 124.6406 67.2344 Q124.6406 66.1094 124.1953 65.5 Q123.75 64.8906 122.9219 64.8906 Q122.0938 64.8906 121.6484 65.4766 Q121.2031 66.0625 121.2031 67.1719 Q121.2031 68.3281 121.6484 68.9609 Q122.0938 69.5938 122.9219 69.5938 ZM121.0156 65.1875 Q121.4219 64.75 121.9219 64.5312 Q122.4219 64.3125 123.0625 64.3125 Q124.3594 64.3125 125.1172 65.0938 Q125.875 65.875 125.875 67.2344 Q125.875 68.5625 125.0625 69.3672 Q124.25 70.1719 122.875 70.1719 Q121.3906 70.1719 120.5938 69.0625 Q119.7969 67.9531 119.7969 65.9062 Q119.7969 63.6094 120.7422 62.3516 Q121.6875 61.0938 123.4062 61.0938 Q123.875 61.0938 124.3828 61.1797 Q124.8906 61.2656 125.4219 61.4375 L125.4219 62.8906 L124.7656 62.8906 Q124.6875 62.2969 124.3047 61.9844 Q123.9219 61.6719 123.2812 61.6719 Q122.1406 61.6719 121.5859 62.5312 Q121.0312 63.3906 121.0156 65.1875 Z" style="fill:black; stroke:none;" /><rect height="13" style="stroke:none;" width="7" x="104" y="50" /><path d="M105.8281 62.25 Q106.2969 62.5938 107.1719 62.5938 Q108.0625 62.5938 108.5781 62.0703 Q109.0938 61.5469 109.0938 60.6562 Q109.0938 59.4219 108.5625 58.8906 Q108.0156 58.3594 107 58.3594 L106.4375 58.3594 L106.4375 57.7188 L106.7344 57.7188 Q107.4844 57.7188 108 57.2969 Q108.4219 56.9531 108.4219 56.0156 Q108.4219 55.6094 108.1406 55.1406 Q107.6875 54.375 107.1562 54.3906 Q105.8281 54.4375 105.8281 56.7812 L105.8281 62.25 ZM104.75 65.5 L104.75 56.7812 Q104.75 54.3281 106.0781 54 Q106.7656 53.8125 107.25 53.8125 Q108.3438 53.8125 109.0469 54.6719 Q109.6094 55.3594 109.6094 55.9375 Q109.6094 56.7812 109.2031 57.2656 Q108.7969 57.75 108.0625 57.9844 Q109.1406 58.1406 109.75 58.7812 Q110.3281 59.4062 110.3281 60.6328 Q110.3281 61.8594 109.5078 62.5156 Q108.6875 63.1719 107.1406 63.1719 Q106.1875 63.1719 105.8281 63.0312 L105.8281 65.5 L104.75 65.5 Z" style="fill:black; stroke:none;" /></g><g ID="li-1:2,3" style="fill:white; text-rendering:optimizeSpeed; font-family:'Serif'; stroke:white;"><rect height="10" style="stroke:none;" width="7" x="178" y="104" /><path d="M179.1719 105.625 Q179.8594 105.3594 180.4844 105.2266 Q181.1094 105.0938 181.6562 105.0938 Q182.9531 105.0938 183.6719 105.6484 Q184.3906 106.2031 184.3906 107.1875 Q184.3906 107.9688 183.8906 108.5 Q183.3906 109.0312 182.4844 109.2188 Q183.5625 109.375 184.1562 110.0078 Q184.75 110.6406 184.75 111.6406 Q184.75 112.8594 183.9219 113.5156 Q183.0938 114.1719 181.5469 114.1719 Q180.8594 114.1719 180.2109 114.0234 Q179.5625 113.875 178.9219 113.5781 L178.9219 111.875 L179.5781 111.875 Q179.625 112.7188 180.1406 113.1562 Q180.6562 113.5938 181.5781 113.5938 Q182.4688 113.5938 182.9922 113.0703 Q183.5156 112.5469 183.5156 111.6562 Q183.5156 110.625 182.9766 110.0938 Q182.4375 109.5625 181.4062 109.5625 L180.8594 109.5625 L180.8594 108.9531 L181.1406 108.9531 Q182.1719 108.9531 182.6875 108.5312 Q183.2031 108.1094 183.2031 107.25 Q183.2031 106.4844 182.7812 106.0781 Q182.3594 105.6719 181.5625 105.6719 Q180.7656 105.6719 180.3359 106.0469 Q179.9062 106.4219 179.8281 107.1562 L179.1719 107.1562 L179.1719 105.625 Z" style="fill:black; stroke:none;" /><rect height="13" style="stroke:none;" width="7" x="163" y="110" /><path d="M164.8281 122.25 Q165.2969 122.5938 166.1719 122.5938 Q167.0625 122.5938 167.5781 122.0703 Q168.0938 121.5469 168.0938 120.6562 Q168.0938 119.4219 167.5625 118.8906 Q167.0156 118.3594 166 118.3594 L165.4375 118.3594 L165.4375 117.7188 L165.7344 117.7188 Q166.4844 117.7188 167 117.2969 Q167.4219 116.9531 167.4219 116.0156 Q167.4219 115.6094 167.1406 115.1406 Q166.6875 114.375 166.1562 114.3906 Q164.8281 114.4375 164.8281 116.7812 L164.8281 122.25 ZM163.75 125.5 L163.75 116.7812 Q163.75 114.3281 165.0781 114 Q165.7656 113.8125 166.25 113.8125 Q167.3438 113.8125 168.0469 114.6719 Q168.6094 115.3594 168.6094 115.9375 Q168.6094 116.7812 168.2031 117.2656 Q167.7969 117.75 167.0625 117.9844 Q168.1406 118.1406 168.75 118.7812 Q169.3281 119.4062 169.3281 120.6328 Q169.3281 121.8594 168.5078 122.5156 Q167.6875 123.1719 166.1406 123.1719 Q165.1875 123.1719 164.8281 123.0312 L164.8281 125.5 L163.75 125.5 Z" style="fill:black; stroke:none;" /></g><g ID="li-1:2,4" style="fill:white; text-rendering:optimizeSpeed; font-family:'Serif'; stroke:white;"><rect height="10" style="stroke:none;" width="7" x="171" y="86" /><path d="M174.9219 95.5938 Q175.75 95.5938 176.1953 94.9844 Q176.6406 94.375 176.6406 93.2344 Q176.6406 92.1094 176.1953 91.5 Q175.75 90.8906 174.9219 90.8906 Q174.0938 90.8906 173.6484 91.4766 Q173.2031 92.0625 173.2031 93.1719 Q173.2031 94.3281 173.6484 94.9609 Q174.0938 95.5938 174.9219 95.5938 ZM173.0156 91.1875 Q173.4219 90.75 173.9219 90.5312 Q174.4219 90.3125 175.0625 90.3125 Q176.3594 90.3125 177.1172 91.0938 Q177.875 91.875 177.875 93.2344 Q177.875 94.5625 177.0625 95.3672 Q176.25 96.1719 174.875 96.1719 Q173.3906 96.1719 172.5938 95.0625 Q171.7969 93.9531 171.7969 91.9062 Q171.7969 89.6094 172.7422 88.3516 Q173.6875 87.0938 175.4062 87.0938 Q175.875 87.0938 176.3828 87.1797 Q176.8906 87.2656 177.4219 87.4375 L177.4219 88.8906 L176.7656 88.8906 Q176.6875 88.2969 176.3047 87.9844 Q175.9219 87.6719 175.2812 87.6719 Q174.1406 87.6719 173.5859 88.5312 Q173.0312 89.3906 173.0156 91.1875 Z" style="fill:black; stroke:none;" /><rect height="13" style="stroke:none;" width="7" x="156" y="76" /><path d="M157.8281 88.25 Q158.2969 88.5938 159.1719 88.5938 Q160.0625 88.5938 160.5781 88.0703 Q161.0938 87.5469 161.0938 86.6562 Q161.0938 85.4219 160.5625 84.8906 Q160.0156 84.3594 159 84.3594 L158.4375 84.3594 L158.4375 83.7188 L158.7344 83.7188 Q159.4844 83.7188 160 83.2969 Q160.4219 82.9531 160.4219 82.0156 Q160.4219 81.6094 160.1406 81.1406 Q159.6875 80.375 159.1562 80.3906 Q157.8281 80.4375 157.8281 82.7812 L157.8281 88.25 ZM156.75 91.5 L156.75 82.7812 Q156.75 80.3281 158.0781 80 Q158.7656 79.8125 159.25 79.8125 Q160.3438 79.8125 161.0469 80.6719 Q161.6094 81.3594 161.6094 81.9375 Q161.6094 82.7812 161.2031 83.2656 Q160.7969 83.75 160.0625 83.9844 Q161.1406 84.1406 161.75 84.7812 Q162.3281 85.4062 162.3281 86.6328 Q162.3281 87.8594 161.5078 88.5156 Q160.6875 89.1719 159.1406 89.1719 Q158.1875 89.1719 157.8281 89.0312 L157.8281 91.5 L156.75 91.5 Z" style="fill:black; stroke:none;" /></g><g ID="li-1:1,2" style="fill:white; text-rendering:optimizeSpeed; font-family:'Serif'; stroke:white;"><rect height="10" style="stroke:none;" width="7" x="226" y="96" /><path d="M229.9219 105.5938 Q230.75 105.5938 231.1953 104.9844 Q231.6406 104.375 231.6406 103.2344 Q231.6406 102.1094 231.1953 101.5 Q230.75 100.8906 229.9219 100.8906 Q229.0938 100.8906 228.6484 101.4766 Q228.2031 102.0625 228.2031 103.1719 Q228.2031 104.3281 228.6484 104.9609 Q229.0938 105.5938 229.9219 105.5938 ZM228.0156 101.1875 Q228.4219 100.75 228.9219 100.5312 Q229.4219 100.3125 230.0625 100.3125 Q231.3594 100.3125 232.1172 101.0938 Q232.875 101.875 232.875 103.2344 Q232.875 104.5625 232.0625 105.3672 Q231.25 106.1719 229.875 106.1719 Q228.3906 106.1719 227.5938 105.0625 Q226.7969 103.9531 226.7969 101.9062 Q226.7969 99.6094 227.7422 98.3516 Q228.6875 97.0938 230.4062 97.0938 Q230.875 97.0938 231.3828 97.1797 Q231.8906 97.2656 232.4219 97.4375 L232.4219 98.8906 L231.7656 98.8906 Q231.6875 98.2969 231.3047 97.9844 Q230.9219 97.6719 230.2812 97.6719 Q229.1406 97.6719 228.5859 98.5312 Q228.0312 99.3906 228.0156 101.1875 Z" style="fill:black; stroke:none;" /><rect height="13" style="stroke:none;" width="7" x="212" y="94" /><path d="M213.8281 106.25 Q214.2969 106.5938 215.1719 106.5938 Q216.0625 106.5938 216.5781 106.0703 Q217.0938 105.5469 217.0938 104.6562 Q217.0938 103.4219 216.5625 102.8906 Q216.0156 102.3594 215 102.3594 L214.4375 102.3594 L214.4375 101.7188 L214.7344 101.7188 Q215.4844 101.7188 216 101.2969 Q216.4219 100.9531 216.4219 100.0156 Q216.4219 99.6094 216.1406 99.1406 Q215.6875 98.375 215.1562 98.3906 Q213.8281 98.4375 213.8281 100.7812 L213.8281 106.25 ZM212.75 109.5 L212.75 100.7812 Q212.75 98.3281 214.0781 98 Q214.7656 97.8125 215.25 97.8125 Q216.3438 97.8125 217.0469 98.6719 Q217.6094 99.3594 217.6094 99.9375 Q217.6094 100.7812 217.2031 101.2656 Q216.7969 101.75 216.0625 101.9844 Q217.1406 102.1406 217.75 102.7812 Q218.3281 103.4062 218.3281 104.6328 Q218.3281 105.8594 217.5078 106.5156 Q216.6875 107.1719 215.1406 107.1719 Q214.1875 107.1719 213.8281 107.0312 L213.8281 109.5 L212.75 109.5 Z" style="fill:black; stroke:none;" /></g></g></svg>