<svg xmlns="http://www.w3.org/2000/svg" style="fill-opacity:1; color-rendering:auto; color-interpolation:auto; text-rendering:auto; stroke:black; stroke-linecap:square; stroke-miterlimit:10; shape-rendering:auto; stroke-opacity:1; fill:black; stroke-dasharray:none; font-weight:normal; stroke-width:1; font-family:'Dialog'; font-style:normal; stroke-linejoin:miter; font-size:12px; stroke-dashoffset:0; image-rendering:auto;"><defs id="genericDefs" /><g><defs id="defs1"><clipPath clipPathUnits="userSpaceOnUse" id="clipPath1"><path d="M290 82 L312 82 L312 104 L290 104 L290 82 Z" /></clipPath><clipPath clipPathUnits="userSpaceOnUse" id="clipPath2"><path d="M238 82 L260 82 L260 104 L238 104 L238 82 Z" /></clipPath><clipPath clipPathUnits="userSpaceOnUse" id="clipPath3"><path d="M208 93 C208 99.0751 203.0751 104 197 104 C190.9249 104 186 99.0751 186 93 C186 86.9249 190.9249 82 197 82 C203.0751 82 208 86.9249 208 93 Z" /></clipPath><clipPath clipPathUnits="userSpaceOnUse" id="clipPath4"><path d="M156 197 C156 203.0751 151.0751 208 145 208 C138.9249 208 134 203.0751 134 197 C134 190.9249 138.9249 186 145 186 C151.0751 186 156 190.9249 156 197 Z" /></clipPath><clipPath clipPathUnits="userSpaceOnUse" id="clipPath5"><path d="M82 186 L104 186 L104 208 L82 208 L82 186 Z" /></clipPath><clipPath clipPathUnits="userSpaceOnUse" id="clipPath6"><path d="M52 197 C52 203.0751 47.0751 208 41 208 C34.9249 208 30 203.0751 30 197 C30 190.9249 34.9249 186 41 186 C47.0751 186 52 190.9249 52 197 Z" /></clipPath><clipPath clipPathUnits="userSpaceOnUse" id="clipPath7"><path d="M41 156 L30 134 L52 134 Z" style="fill-rule:evenodd;" /></clipPath><clipPath clipPathUnits="userSpaceOnUse" id="clipPath8"><path d="M156 93 C156 99.0751 151.0751 104 145 104 C138.9249 104 134 99.0751 134 93 C134 86.9249 138.9249 82 145 82 C151.0751 82 156 86.9249 156 93 Z" /></clipPath><clipPath clipPathUnits="userSpaceOnUse" id="clipPath9"><path d="M82 82 L104 82 L104 104 L82 104 L82 82 Z" /></clipPath><clipPath clipPathUnits="userSpaceOnUse" id="clipPath10"><path d="M52 93 C52 99.0751 47.0751 104 41 104 C34.9249 104 30 99.0751 30 93 C30 86.9249 34.9249 82 41 82 C47.0751 82 52 86.9249 52 93 Z" /></clipPath><clipPath clipPathUnits="userSpaceOnUse" id="clipPath11"><path d="M134 30 L156 30 L156 52 L134 52 L134 30 Z" /></clipPath></defs><g style="fill:white; text-rendering:optimizeSpeed; stroke:white;"><rect height="238" style="stroke:none;" width="342" x="0" y="0" /></g><g ID="l-1:1,2" style="text-rendering:optimizeSpeed;"><polygon points=" 301 93 249 93" style="fill:none;" /></g><g ID="r-1:1" style="fill:white; text-rendering:optimizeSpeed; stroke:white;" wurcs_mono_id="1"><rect height="22" style="clip-path:url(#clipPath1); stroke:none;" width="22" x="290" y="82" /><rect height="22" style="clip-path:url(#clipPath1); fill:rgb(0,144,188); stroke:none;" width="22" x="290" y="82" /><rect height="22" style="clip-path:url(#clipPath1); fill:none; stroke:black;" width="22" x="290" y="82" /><rect height="22" style="fill:none; stroke:black;" width="22" x="290" y="82" /></g><g ID="l-1:2,3" style="text-rendering:optimizeSpeed;"><polygon points=" 249 93 197 93" style="fill:none;" /></g><g ID="r-1:2" style="fill:white; text-rendering:optimizeSpeed; stroke:white;" wurcs_mono_id="2"><rect height="22" style="clip-path:url(#clipPath2); stroke:none;" width="22" x="238" y="82" /><rect height="22" style="clip-path:url(#clipPath2); fill:rgb(0,144,188); stroke:none;" width="22" x="238" y="82" /><rect height="22" style="clip-path:url(#clipPath2); fill:none; stroke:black;" width="22" x="238" y="82" /><rect height="22" style="fill:none; stroke:black;" width="22" x="238" y="82" /></g><g ID="l-1:3,4" style="text-rendering:optimizeSpeed;"><polygon points=" 197 93 145 197" style="fill:none;" /></g><g ID="l-1:3,5" style="text-rendering:optimizeSpeed;"><polygon points=" 197 93 145 93" style="fill:none;" /></g><g ID="l-1:3,6" style="text-rendering:optimizeSpeed;"><polygon points=" 197 93 145 41" style="fill:none;" /></g><g ID="r-1:3" style="fill:white; text-rendering:optimizeSpeed; stroke:white;" wurcs_mono_id="3"><circle cx="197" cy="93" r="11" style="clip-path:url(#clipPath3); stroke:none;" /><rect height="22" style="clip-path:url(#clipPath3); fill:rgb(0,166,81); stroke:none;" width="22" x="186" y="82" /><rect height="22" style="clip-path:url(#clipPath3); fill:none; stroke:black;" width="22" x="186" y="82" /><circle cx="197" cy="93" r="11" style="fill:none; stroke:black;" /></g><g ID="l-1:4,7" style="text-rendering:optimizeSpeed;"><polygon points=" 145 197 93 197" style="fill:none;" /></g><g ID="r-1:4" style="fill:white; text-rendering:optimizeSpeed; stroke:white;" wurcs_mono_id="4"><circle cx="145" cy="197" r="11" style="clip-path:url(#clipPath4); stroke:none;" /><rect height="22" style="clip-path:url(#clipPath4); fill:rgb(0,166,81); stroke:none;" width="22" x="134" y="186" /><rect height="22" style="clip-path:url(#clipPath4); fill:none; stroke:black;" width="22" x="134" y="186" /><circle cx="145" cy="197" r="11" style="fill:none; stroke:black;" /></g><g ID="l-1:7,8" style="text-rendering:optimizeSpeed;"><polygon points=" 93 197 41 197" style="fill:none;" /></g><g ID="r-1:7" style="fill:white; text-rendering:optimizeSpeed; stroke:white;" wurcs_mono_id="5"><rect height="22" style="clip-path:url(#clipPath5); stroke:none;" width="22" x="82" y="186" /><rect height="22" style="clip-path:url(#clipPath5); fill:rgb(0,144,188); stroke:none;" width="22" x="82" y="186" /><rect height="22" style="clip-path:url(#clipPath5); fill:none; stroke:black;" width="22" x="82" y="186" /><rect height="22" style="fill:none; stroke:black;" width="22" x="82" y="186" /></g><g ID="l-1:8,9" style="text-rendering:optimizeSpeed;"><polygon points=" 41 197 41 145" style="fill:none;" /></g><g ID="r-1:8" style="fill:white; text-rendering:optimizeSpeed; stroke:white;" wurcs_mono_id="6"><circle cx="41" cy="197" r="11" style="clip-path:url(#clipPath6); stroke:none;" /><rect height="22" style="clip-path:url(#clipPath6); fill:rgb(255,212,0); stroke:none;" width="22" x="30" y="186" /><rect height="22" style="clip-path:url(#clipPath6); fill:none; stroke:black;" width="22" x="30" y="186" /><circle cx="41" cy="197" r="11" style="fill:none; stroke:black;" /></g><g ID="r-1:9" style="fill:white; text-rendering:optimizeSpeed; stroke:white;" wurcs_mono_id="7"><polygon points=" 41 156 30 134 52 134" style="stroke:none; clip-path:url(#clipPath7);" /><rect height="22" style="clip-path:url(#clipPath7); fill:rgb(237,28,36); stroke:none;" width="22" x="30" y="134" /><rect height="22" style="clip-path:url(#clipPath7); fill:none; stroke:black;" width="22" x="30" y="134" /><polygon points=" 41 156 30 134 52 134" style="fill:none; stroke:black;" /></g><g ID="li-1:8,9" style="fill:white; text-rendering:optimizeSpeed; font-family:'Serif'; stroke:white;"><rect height="10" style="stroke:none;" width="6" x="30" y="173" /><path d="M32.1094 182.3906 Q32.1094 182.0625 32.3359 181.8359 Q32.5625 181.6094 32.8906 181.6094 Q33.2188 181.6094 33.4453 181.8359 Q33.6719 182.0625 33.6719 182.3906 Q33.6719 182.7188 33.4453 182.9453 Q33.2188 183.1719 32.8906 183.1719 Q32.5625 183.1719 32.3359 182.9453 Q32.1094 182.7188 32.1094 182.3906 ZM30.8125 174.6406 Q31.4375 174.3594 32 174.2266 Q32.5625 174.0938 33.0469 174.0938 Q34.3438 174.0938 35.1016 174.7188 Q35.8594 175.3438 35.8594 176.4062 Q35.8594 177.5 35.2109 178.1953 Q34.5625 178.8906 33.25 179.1875 L33.25 180.6719 L32.5312 180.6719 L32.5312 178.75 Q33.5625 178.5 34.0938 177.9062 Q34.625 177.3125 34.625 176.4062 Q34.625 175.5938 34.1953 175.1328 Q33.7656 174.6719 33.0312 174.6719 Q32.3594 174.6719 31.9297 175.0547 Q31.5 175.4375 31.3906 176.1562 L30.8125 176.1562 L30.8125 174.6406 Z" style="fill:black; stroke:none;" /><rect height="10" style="stroke:none;" width="6" x="30" y="159" /><path d="M32.1094 168.3906 Q32.1094 168.0625 32.3359 167.8359 Q32.5625 167.6094 32.8906 167.6094 Q33.2188 167.6094 33.4453 167.8359 Q33.6719 168.0625 33.6719 168.3906 Q33.6719 168.7188 33.4453 168.9453 Q33.2188 169.1719 32.8906 169.1719 Q32.5625 169.1719 32.3359 168.9453 Q32.1094 168.7188 32.1094 168.3906 ZM30.8125 160.6406 Q31.4375 160.3594 32 160.2266 Q32.5625 160.0938 33.0469 160.0938 Q34.3438 160.0938 35.1016 160.7188 Q35.8594 161.3438 35.8594 162.4062 Q35.8594 163.5 35.2109 164.1953 Q34.5625 164.8906 33.25 165.1875 L33.25 166.6719 L32.5312 166.6719 L32.5312 164.75 Q33.5625 164.5 34.0938 163.9062 Q34.625 163.3125 34.625 162.4062 Q34.625 161.5938 34.1953 161.1328 Q33.7656 160.6719 33.0312 160.6719 Q32.3594 160.6719 31.9297 161.0547 Q31.5 161.4375 31.3906 162.1562 L30.8125 162.1562 L30.8125 160.6406 Z" style="fill:black; stroke:none;" /></g><g ID="li-1:7,8" style="fill:white; text-rendering:optimizeSpeed; font-family:'Serif'; stroke:white;"><rect height="10" style="stroke:none;" width="6" x="71" y="200" /><path d="M73.1094 209.3906 Q73.1094 209.0625 73.3359 208.8359 Q73.5625 208.6094 73.8906 208.6094 Q74.2188 208.6094 74.4453 208.8359 Q74.6719 209.0625 74.6719 209.3906 Q74.6719 209.7188 74.4453 209.9453 Q74.2188 210.1719 73.8906 210.1719 Q73.5625 210.1719 73.3359 209.9453 Q73.1094 209.7188 73.1094 209.3906 ZM71.8125 201.6406 Q72.4375 201.3594 73 201.2266 Q73.5625 201.0938 74.0469 201.0938 Q75.3438 201.0938 76.1016 201.7188 Q76.8594 202.3438 76.8594 203.4062 Q76.8594 204.5 76.2109 205.1953 Q75.5625 205.8906 74.25 206.1875 L74.25 207.6719 L73.5312 207.6719 L73.5312 205.75 Q74.5625 205.5 75.0938 204.9062 Q75.625 204.3125 75.625 203.4062 Q75.625 202.5938 75.1953 202.1328 Q74.7656 201.6719 74.0312 201.6719 Q73.3594 201.6719 72.9297 202.0547 Q72.5 202.4375 72.3906 203.1562 L71.8125 203.1562 L71.8125 201.6406 Z" style="fill:black; stroke:none;" /><rect height="10" style="stroke:none;" width="6" x="57" y="200" /><path d="M59.1094 209.3906 Q59.1094 209.0625 59.3359 208.8359 Q59.5625 208.6094 59.8906 208.6094 Q60.2188 208.6094 60.4453 208.8359 Q60.6719 209.0625 60.6719 209.3906 Q60.6719 209.7188 60.4453 209.9453 Q60.2188 210.1719 59.8906 210.1719 Q59.5625 210.1719 59.3359 209.9453 Q59.1094 209.7188 59.1094 209.3906 ZM57.8125 201.6406 Q58.4375 201.3594 59 201.2266 Q59.5625 201.0938 60.0469 201.0938 Q61.3438 201.0938 62.1016 201.7188 Q62.8594 202.3438 62.8594 203.4062 Q62.8594 204.5 62.2109 205.1953 Q61.5625 205.8906 60.25 206.1875 L60.25 207.6719 L59.5312 207.6719 L59.5312 205.75 Q60.5625 205.5 61.0938 204.9062 Q61.625 204.3125 61.625 203.4062 Q61.625 202.5938 61.1953 202.1328 Q60.7656 201.6719 60.0312 201.6719 Q59.3594 201.6719 58.9297 202.0547 Q58.5 202.4375 58.3906 203.1562 L57.8125 203.1562 L57.8125 201.6406 Z" style="fill:black; stroke:none;" /></g><g ID="li-1:4,7" style="fill:white; text-rendering:optimizeSpeed; font-family:'Serif'; stroke:white;"><rect height="10" style="stroke:none;" width="6" x="123" y="200" /><path d="M125.1094 209.3906 Q125.1094 209.0625 125.3359 208.8359 Q125.5625 208.6094 125.8906 208.6094 Q126.2188 208.6094 126.4453 208.8359 Q126.6719 209.0625 126.6719 209.3906 Q126.6719 209.7188 126.4453 209.9453 Q126.2188 210.1719 125.8906 210.1719 Q125.5625 210.1719 125.3359 209.9453 Q125.1094 209.7188 125.1094 209.3906 ZM123.8125 201.6406 Q124.4375 201.3594 125 201.2266 Q125.5625 201.0938 126.0469 201.0938 Q127.3438 201.0938 128.1016 201.7188 Q128.8594 202.3438 128.8594 203.4062 Q128.8594 204.5 128.2109 205.1953 Q127.5625 205.8906 126.25 206.1875 L126.25 207.6719 L125.5312 207.6719 L125.5312 205.75 Q126.5625 205.5 127.0938 204.9062 Q127.625 204.3125 127.625 203.4062 Q127.625 202.5938 127.1953 202.1328 Q126.7656 201.6719 126.0312 201.6719 Q125.3594 201.6719 124.9297 202.0547 Q124.5 202.4375 124.3906 203.1562 L123.8125 203.1562 L123.8125 201.6406 Z" style="fill:black; stroke:none;" /><rect height="10" style="stroke:none;" width="6" x="109" y="200" /><path d="M111.1094 209.3906 Q111.1094 209.0625 111.3359 208.8359 Q111.5625 208.6094 111.8906 208.6094 Q112.2188 208.6094 112.4453 208.8359 Q112.6719 209.0625 112.6719 209.3906 Q112.6719 209.7188 112.4453 209.9453 Q112.2188 210.1719 111.8906 210.1719 Q111.5625 210.1719 111.3359 209.9453 Q111.1094 209.7188 111.1094 209.3906 ZM109.8125 201.6406 Q110.4375 201.3594 111 201.2266 Q111.5625 201.0938 112.0469 201.0938 Q113.3438 201.0938 114.1016 201.7188 Q114.8594 202.3438 114.8594 203.4062 Q114.8594 204.5 114.2109 205.1953 Q113.5625 205.8906 112.25 206.1875 L112.25 207.6719 L111.5312 207.6719 L111.5312 205.75 Q112.5625 205.5 113.0938 204.9062 Q113.625 204.3125 113.625 203.4062 Q113.625 202.5938 113.1953 202.1328 Q112.7656 201.6719 112.0312 201.6719 Q111.3594 201.6719 110.9297 202.0547 Q110.5 202.4375 110.3906 203.1562 L109.8125 203.1562 L109.8125 201.6406 Z" style="fill:black; stroke:none;" /></g><g ID="l-1:5,10" style="text-rendering:optimizeSpeed;"><polygon points=" 145 93 93 93" style="fill:none;" /></g><g ID="r-1:5" style="fill:white; text-rendering:optimizeSpeed; stroke:white;" wurcs_mono_id="8"><circle cx="145" cy="93" r="11" style="clip-path:url(#clipPath8); stroke:none;" /><rect height="22" style="clip-path:url(#clipPath8); fill:rgb(0,166,81); stroke:none;" width="22" x="134" y="82" /><rect height="22" style="clip-path:url(#clipPath8); fill:none; stroke:black;" width="22" x="134" y="82" /><circle cx="145" cy="93" r="11" style="fill:none; stroke:black;" /></g><g ID="l-1:10,11" style="text-rendering:optimizeSpeed;"><polygon points=" 93 93 41 93" style="fill:none;" /></g><g ID="r-1:10" style="fill:white; text-rendering:optimizeSpeed; stroke:white;" wurcs_mono_id="9"><rect height="22" style="clip-path:url(#clipPath9); stroke:none;" width="22" x="82" y="82" /><rect height="22" style="clip-path:url(#clipPath9); fill:rgb(0,144,188); stroke:none;" width="22" x="82" y="82" /><rect height="22" style="clip-path:url(#clipPath9); fill:none; stroke:black;" width="22" x="82" y="82" /><rect height="22" style="fill:none; stroke:black;" width="22" x="82" y="82" /></g><g ID="r-1:11" style="fill:white; text-rendering:optimizeSpeed; stroke:white;" wurcs_mono_id="10"><circle cx="41" cy="93" r="11" style="clip-path:url(#clipPath10); stroke:none;" /><rect height="22" style="clip-path:url(#clipPath10); fill:rgb(255,212,0); stroke:none;" width="22" x="30" y="82" /><rect height="22" style="clip-path:url(#clipPath10); fill:none; stroke:black;" width="22" x="30" y="82" /><circle cx="41" cy="93" r="11" style="fill:none; stroke:black;" /></g><g ID="li-1:10,11" style="fill:white; text-rendering:optimizeSpeed; font-family:'Serif'; stroke:white;"><rect height="10" style="stroke:none;" width="6" x="71" y="96" /><path d="M73.1094 105.3906 Q73.1094 105.0625 73.3359 104.8359 Q73.5625 104.6094 73.8906 104.6094 Q74.2188 104.6094 74.4453 104.8359 Q74.6719 105.0625 74.6719 105.3906 Q74.6719 105.7188 74.4453 105.9453 Q74.2188 106.1719 73.8906 106.1719 Q73.5625 106.1719 73.3359 105.9453 Q73.1094 105.7188 73.1094 105.3906 ZM71.8125 97.6406 Q72.4375 97.3594 73 97.2266 Q73.5625 97.0938 74.0469 97.0938 Q75.3438 97.0938 76.1016 97.7188 Q76.8594 98.3438 76.8594 99.4062 Q76.8594 100.5 76.2109 101.1953 Q75.5625 101.8906 74.25 102.1875 L74.25 103.6719 L73.5312 103.6719 L73.5312 101.75 Q74.5625 101.5 75.0938 100.9062 Q75.625 100.3125 75.625 99.4062 Q75.625 98.5938 75.1953 98.1328 Q74.7656 97.6719 74.0312 97.6719 Q73.3594 97.6719 72.9297 98.0547 Q72.5 98.4375 72.3906 99.1562 L71.8125 99.1562 L71.8125 97.6406 Z" style="fill:black; stroke:none;" /><rect height="10" style="stroke:none;" width="6" x="57" y="96" /><path d="M59.1094 105.3906 Q59.1094 105.0625 59.3359 104.8359 Q59.5625 104.6094 59.8906 104.6094 Q60.2188 104.6094 60.4453 104.8359 Q60.6719 105.0625 60.6719 105.3906 Q60.6719 105.7188 60.4453 105.9453 Q60.2188 106.1719 59.8906 106.1719 Q59.5625 106.1719 59.3359 105.9453 Q59.1094 105.7188 59.1094 105.3906 ZM57.8125 97.6406 Q58.4375 97.3594 59 97.2266 Q59.5625 97.0938 60.0469 97.0938 Q61.3438 97.0938 62.1016 97.7188 Q62.8594 98.3438 62.8594 99.4062 Q62.8594 100.5 62.2109 101.1953 Q61.5625 101.8906 60.25 102.1875 L60.25 103.6719 L59.5312 103.6719 L59.5312 101.75 Q60.5625 101.5 61.0938 100.9062 Q61.625 100.3125 61.625 99.4062 Q61.625 98.5938 61.1953 98.1328 Q60.7656 97.6719 60.0312 97.6719 Q59.3594 97.6719 58.9297 98.0547 Q58.5 98.4375 58.3906 99.1562 L57.8125 99.1562 L57.8125 97.6406 Z" style="fill:black; stroke:none;" /></g><g ID="li-1:5,10" style="fill:white; text-rendering:optimizeSpeed; font-family:'Serif'; stroke:white;"><rect height="10" style="stroke:none;" width="6" x="123" y="96" /><path d="M125.1094 105.3906 Q125.1094 105.0625 125.3359 104.8359 Q125.5625 104.6094 125.8906 104.6094 Q126.2188 104.6094 126.4453 104.8359 Q126.6719 105.0625 126.6719 105.3906 Q126.6719 105.7188 126.4453 105.9453 Q126.2188 106.1719 125.8906 106.1719 Q125.5625 106.1719 125.3359 105.9453 Q125.1094 105.7188 125.1094 105.3906 ZM123.8125 97.6406 Q124.4375 97.3594 125 97.2266 Q125.5625 97.0938 126.0469 97.0938 Q127.3438 97.0938 128.1016 97.7188 Q128.8594 98.3438 128.8594 99.4062 Q128.8594 100.5 128.2109 101.1953 Q127.5625 101.8906 126.25 102.1875 L126.25 103.6719 L125.5312 103.6719 L125.5312 101.75 Q126.5625 101.5 127.0938 100.9062 Q127.625 100.3125 127.625 99.4062 Q127.625 98.5938 127.1953 98.1328 Q126.7656 97.6719 126.0312 97.6719 Q125.3594 97.6719 124.9297 98.0547 Q124.5 98.4375 124.3906 99.1562 L123.8125 99.1562 L123.8125 97.6406 Z" style="fill:black; stroke:none;" /><rect height="10" style="stroke:none;" width="6" x="109" y="96" /><path d="M111.1094 105.3906 Q111.1094 105.0625 111.3359 104.8359 Q111.5625 104.6094 111.8906 104.6094 Q112.2188 104.6094 112.4453 104.8359 Q112.6719 105.0625 112.6719 105.3906 Q112.6719 105.7188 112.4453 105.9453 Q112.2188 106.1719 111.8906 106.1719 Q111.5625 106.1719 111.3359 105.9453 Q111.1094 105.7188 111.1094 105.3906 ZM109.8125 97.6406 Q110.4375 97.3594 111 97.2266 Q111.5625 97.0938 112.0469 97.0938 Q113.3438 97.0938 114.1016 97.7188 Q114.8594 98.3438 114.8594 99.4062 Q114.8594 100.5 114.2109 101.1953 Q113.5625 101.8906 112.25 102.1875 L112.25 103.6719 L111.5312 103.6719 L111.5312 101.75 Q112.5625 101.5 113.0938 100.9062 Q113.625 100.3125 113.625 99.4062 Q113.625 98.5938 113.1953 98.1328 Q112.7656 97.6719 112.0312 97.6719 Q111.3594 97.6719 110.9297 98.0547 Q110.5 98.4375 110.3906 99.1562 L109.8125 99.1562 L109.8125 97.6406 Z" style="fill:black; stroke:none;" /></g><g ID="r-1:6" style="fill:white; text-rendering:optimizeSpeed; stroke:white;" wurcs_mono_id="11"><rect height="22" style="clip-path:url(#clipPath11); stroke:none;" width="22" x="134" y="30" /><rect height="22" style="clip-path:url(#clipPath11); fill:rgb(0,144,188); stroke:none;" width="22" x="134" y="30" /><rect height="22" style="clip-path:url(#clipPath11); fill:none; stroke:black;" width="22" x="134" y="30" /><rect height="22" style="fill:none; stroke:black;" width="22" x="134" y="30" /></g><g ID="li-1:3,4" style="fill:white; text-rendering:optimizeSpeed; font-family:'Serif'; stroke:white;"><rect height="10" style="stroke:none;" width="6" x="192" y="109" /><path d="M194.1094 118.3906 Q194.1094 118.0625 194.3359 117.8359 Q194.5625 117.6094 194.8906 117.6094 Q195.2188 117.6094 195.4453 117.8359 Q195.6719 118.0625 195.6719 118.3906 Q195.6719 118.7188 195.4453 118.9453 Q195.2188 119.1719 194.8906 119.1719 Q194.5625 119.1719 194.3359 118.9453 Q194.1094 118.7188 194.1094 118.3906 ZM192.8125 110.6406 Q193.4375 110.3594 194 110.2266 Q194.5625 110.0938 195.0469 110.0938 Q196.3438 110.0938 197.1016 110.7188 Q197.8594 111.3438 197.8594 112.4062 Q197.8594 113.5 197.2109 114.1953 Q196.5625 114.8906 195.25 115.1875 L195.25 116.6719 L194.5312 116.6719 L194.5312 114.75 Q195.5625 114.5 196.0938 113.9062 Q196.625 113.3125 196.625 112.4062 Q196.625 111.5938 196.1953 111.1328 Q195.7656 110.6719 195.0312 110.6719 Q194.3594 110.6719 193.9297 111.0547 Q193.5 111.4375 193.3906 112.1562 L192.8125 112.1562 L192.8125 110.6406 Z" style="fill:black; stroke:none;" /><rect height="10" style="stroke:none;" width="6" x="158" y="177" /><path d="M160.1094 186.3906 Q160.1094 186.0625 160.3359 185.8359 Q160.5625 185.6094 160.8906 185.6094 Q161.2188 185.6094 161.4453 185.8359 Q161.6719 186.0625 161.6719 186.3906 Q161.6719 186.7188 161.4453 186.9453 Q161.2188 187.1719 160.8906 187.1719 Q160.5625 187.1719 160.3359 186.9453 Q160.1094 186.7188 160.1094 186.3906 ZM158.8125 178.6406 Q159.4375 178.3594 160 178.2266 Q160.5625 178.0938 161.0469 178.0938 Q162.3438 178.0938 163.1016 178.7188 Q163.8594 179.3438 163.8594 180.4062 Q163.8594 181.5 163.2109 182.1953 Q162.5625 182.8906 161.25 183.1875 L161.25 184.6719 L160.5312 184.6719 L160.5312 182.75 Q161.5625 182.5 162.0938 181.9062 Q162.625 181.3125 162.625 180.4062 Q162.625 179.5938 162.1953 179.1328 Q161.7656 178.6719 161.0312 178.6719 Q160.3594 178.6719 159.9297 179.0547 Q159.5 179.4375 159.3906 180.1562 L158.8125 180.1562 L158.8125 178.6406 Z" style="fill:black; stroke:none;" /></g><g ID="li-1:3,5" style="fill:white; text-rendering:optimizeSpeed; font-family:'Serif'; stroke:white;"><rect height="10" style="stroke:none;" width="6" x="175" y="96" /><path d="M177.1094 105.3906 Q177.1094 105.0625 177.3359 104.8359 Q177.5625 104.6094 177.8906 104.6094 Q178.2188 104.6094 178.4453 104.8359 Q178.6719 105.0625 178.6719 105.3906 Q178.6719 105.7188 178.4453 105.9453 Q178.2188 106.1719 177.8906 106.1719 Q177.5625 106.1719 177.3359 105.9453 Q177.1094 105.7188 177.1094 105.3906 ZM175.8125 97.6406 Q176.4375 97.3594 177 97.2266 Q177.5625 97.0938 178.0469 97.0938 Q179.3438 97.0938 180.1016 97.7188 Q180.8594 98.3438 180.8594 99.4062 Q180.8594 100.5 180.2109 101.1953 Q179.5625 101.8906 178.25 102.1875 L178.25 103.6719 L177.5312 103.6719 L177.5312 101.75 Q178.5625 101.5 179.0938 100.9062 Q179.625 100.3125 179.625 99.4062 Q179.625 98.5938 179.1953 98.1328 Q178.7656 97.6719 178.0312 97.6719 Q177.3594 97.6719 176.9297 98.0547 Q176.5 98.4375 176.3906 99.1562 L175.8125 99.1562 L175.8125 97.6406 Z" style="fill:black; stroke:none;" /><rect height="10" style="stroke:none;" width="6" x="161" y="96" /><path d="M163.1094 105.3906 Q163.1094 105.0625 163.3359 104.8359 Q163.5625 104.6094 163.8906 104.6094 Q164.2188 104.6094 164.4453 104.8359 Q164.6719 105.0625 164.6719 105.3906 Q164.6719 105.7188 164.4453 105.9453 Q164.2188 106.1719 163.8906 106.1719 Q163.5625 106.1719 163.3359 105.9453 Q163.1094 105.7188 163.1094 105.3906 ZM161.8125 97.6406 Q162.4375 97.3594 163 97.2266 Q163.5625 97.0938 164.0469 97.0938 Q165.3438 97.0938 166.1016 97.7188 Q166.8594 98.3438 166.8594 99.4062 Q166.8594 100.5 166.2109 101.1953 Q165.5625 101.8906 164.25 102.1875 L164.25 103.6719 L163.5312 103.6719 L163.5312 101.75 Q164.5625 101.5 165.0938 100.9062 Q165.625 100.3125 165.625 99.4062 Q165.625 98.5938 165.1953 98.1328 Q164.7656 97.6719 164.0312 97.6719 Q163.3594 97.6719 162.9297 98.0547 Q162.5 98.4375 162.3906 99.1562 L161.8125 99.1562 L161.8125 97.6406 Z" style="fill:black; stroke:none;" /></g><g ID="li-1:3,6" style="fill:white; text-rendering:optimizeSpeed; font-family:'Serif'; stroke:white;"><rect height="10" style="stroke:none;" width="6" x="171" y="77" /><path d="M173.1094 86.3906 Q173.1094 86.0625 173.3359 85.8359 Q173.5625 85.6094 173.8906 85.6094 Q174.2188 85.6094 174.4453 85.8359 Q174.6719 86.0625 174.6719 86.3906 Q174.6719 86.7188 174.4453 86.9453 Q174.2188 87.1719 173.8906 87.1719 Q173.5625 87.1719 173.3359 86.9453 Q173.1094 86.7188 173.1094 86.3906 ZM171.8125 78.6406 Q172.4375 78.3594 173 78.2266 Q173.5625 78.0938 174.0469 78.0938 Q175.3438 78.0938 176.1016 78.7188 Q176.8594 79.3438 176.8594 80.4062 Q176.8594 81.5 176.2109 82.1953 Q175.5625 82.8906 174.25 83.1875 L174.25 84.6719 L173.5312 84.6719 L173.5312 82.75 Q174.5625 82.5 175.0938 81.9062 Q175.625 81.3125 175.625 80.4062 Q175.625 79.5938 175.1953 79.1328 Q174.7656 78.6719 174.0312 78.6719 Q173.3594 78.6719 172.9297 79.0547 Q172.5 79.4375 172.3906 80.1562 L171.8125 80.1562 L171.8125 78.6406 Z" style="fill:black; stroke:none;" /><rect height="10" style="stroke:none;" width="6" x="153" y="58" /><path d="M155.1094 67.3906 Q155.1094 67.0625 155.3359 66.8359 Q155.5625 66.6094 155.8906 66.6094 Q156.2188 66.6094 156.4453 66.8359 Q156.6719 67.0625 156.6719 67.3906 Q156.6719 67.7188 156.4453 67.9453 Q156.2188 68.1719 155.8906 68.1719 Q155.5625 68.1719 155.3359 67.9453 Q155.1094 67.7188 155.1094 67.3906 ZM153.8125 59.6406 Q154.4375 59.3594 155 59.2266 Q155.5625 59.0938 156.0469 59.0938 Q157.3438 59.0938 158.1016 59.7188 Q158.8594 60.3438 158.8594 61.4062 Q158.8594 62.5 158.2109 63.1953 Q157.5625 63.8906 156.25 64.1875 L156.25 65.6719 L155.5312 65.6719 L155.5312 63.75 Q156.5625 63.5 157.0938 62.9062 Q157.625 62.3125 157.625 61.4062 Q157.625 60.5938 157.1953 60.1328 Q156.7656 59.6719 156.0312 59.6719 Q155.3594 59.6719 154.9297 60.0547 Q154.5 60.4375 154.3906 61.1562 L153.8125 61.1562 L153.8125 59.6406 Z" style="fill:black; stroke:none;" /></g><g ID="li-1:2,3" style="fill:white; text-rendering:optimizeSpeed; font-family:'Serif'; stroke:white;"><rect height="10" style="stroke:none;" width="6" x="227" y="96" /><path d="M229.1094 105.3906 Q229.1094 105.0625 229.3359 104.8359 Q229.5625 104.6094 229.8906 104.6094 Q230.2188 104.6094 230.4453 104.8359 Q230.6719 105.0625 230.6719 105.3906 Q230.6719 105.7188 230.4453 105.9453 Q230.2188 106.1719 229.8906 106.1719 Q229.5625 106.1719 229.3359 105.9453 Q229.1094 105.7188 229.1094 105.3906 ZM227.8125 97.6406 Q228.4375 97.3594 229 97.2266 Q229.5625 97.0938 230.0469 97.0938 Q231.3438 97.0938 232.1016 97.7188 Q232.8594 98.3438 232.8594 99.4062 Q232.8594 100.5 232.2109 101.1953 Q231.5625 101.8906 230.25 102.1875 L230.25 103.6719 L229.5312 103.6719 L229.5312 101.75 Q230.5625 101.5 231.0938 100.9062 Q231.625 100.3125 231.625 99.4062 Q231.625 98.5938 231.1953 98.1328 Q230.7656 97.6719 230.0312 97.6719 Q229.3594 97.6719 228.9297 98.0547 Q228.5 98.4375 228.3906 99.1562 L227.8125 99.1562 L227.8125 97.6406 Z" style="fill:black; stroke:none;" /><rect height="10" style="stroke:none;" width="6" x="213" y="96" /><path d="M215.1094 105.3906 Q215.1094 105.0625 215.3359 104.8359 Q215.5625 104.6094 215.8906 104.6094 Q216.2188 104.6094 216.4453 104.8359 Q216.6719 105.0625 216.6719 105.3906 Q216.6719 105.7188 216.4453 105.9453 Q216.2188 106.1719 215.8906 106.1719 Q215.5625 106.1719 215.3359 105.9453 Q215.1094 105.7188 215.1094 105.3906 ZM213.8125 97.6406 Q214.4375 97.3594 215 97.2266 Q215.5625 97.0938 216.0469 97.0938 Q217.3438 97.0938 218.1016 97.7188 Q218.8594 98.3438 218.8594 99.4062 Q218.8594 100.5 218.2109 101.1953 Q217.5625 101.8906 216.25 102.1875 L216.25 103.6719 L215.5312 103.6719 L215.5312 101.75 Q216.5625 101.5 217.0938 100.9062 Q217.625 100.3125 217.625 99.4062 Q217.625 98.5938 217.1953 98.1328 Q216.7656 97.6719 216.0312 97.6719 Q215.3594 97.6719 214.9297 98.0547 Q214.5 98.4375 214.3906 99.1562 L213.8125 99.1562 L213.8125 97.6406 Z" style="fill:black; stroke:none;" /></g><g ID="li-1:1,2" style="fill:white; text-rendering:optimizeSpeed; font-family:'Serif'; stroke:white;"><rect height="10" style="stroke:none;" width="6" x="279" y="96" /><path d="M281.1094 105.3906 Q281.1094 105.0625 281.3359 104.8359 Q281.5625 104.6094 281.8906 104.6094 Q282.2188 104.6094 282.4453 104.8359 Q282.6719 105.0625 282.6719 105.3906 Q282.6719 105.7188 282.4453 105.9453 Q282.2188 106.1719 281.8906 106.1719 Q281.5625 106.1719 281.3359 105.9453 Q281.1094 105.7188 281.1094 105.3906 ZM279.8125 97.6406 Q280.4375 97.3594 281 97.2266 Q281.5625 97.0938 282.0469 97.0938 Q283.3438 97.0938 284.1016 97.7188 Q284.8594 98.3438 284.8594 99.4062 Q284.8594 100.5 284.2109 101.1953 Q283.5625 101.8906 282.25 102.1875 L282.25 103.6719 L281.5312 103.6719 L281.5312 101.75 Q282.5625 101.5 283.0938 100.9062 Q283.625 100.3125 283.625 99.4062 Q283.625 98.5938 283.1953 98.1328 Q282.7656 97.6719 282.0312 97.6719 Q281.3594 97.6719 280.9297 98.0547 Q280.5 98.4375 280.3906 99.1562 L279.8125 99.1562 L279.8125 97.6406 Z" style="fill:black; stroke:none;" /><rect height="10" style="stroke:none;" width="6" x="265" y="96" /><path d="M267.1094 105.3906 Q267.1094 105.0625 267.3359 104.8359 Q267.5625 104.6094 267.8906 104.6094 Q268.2188 104.6094 268.4453 104.8359 Q268.6719 105.0625 268.6719 105.3906 Q268.6719 105.7188 268.4453 105.9453 Q268.2188 106.1719 267.8906 106.1719 Q267.5625 106.1719 267.3359 105.9453 Q267.1094 105.7188 267.1094 105.3906 ZM265.8125 97.6406 Q266.4375 97.3594 267 97.2266 Q267.5625 97.0938 268.0469 97.0938 Q269.3438 97.0938 270.1016 97.7188 Q270.8594 98.3438 270.8594 99.4062 Q270.8594 100.5 270.2109 101.1953 Q269.5625 101.8906 268.25 102.1875 L268.25 103.6719 L267.5312 103.6719 L267.5312 101.75 Q268.5625 101.5 269.0938 100.9062 Q269.625 100.3125 269.625 99.4062 Q269.625 98.5938 269.1953 98.1328 Q268.7656 97.6719 268.0312 97.6719 Q267.3594 97.6719 266.9297 98.0547 Q266.5 98.4375 266.3906 99.1562 L265.8125 99.1562 L265.8125 97.6406 Z" style="fill:black; stroke:none;" /></g></g></svg>