<svg xmlns="http://www.w3.org/2000/svg" style="fill-opacity:1; color-rendering:auto; color-interpolation:auto; text-rendering:auto; stroke:black; stroke-linecap:square; stroke-miterlimit:10; shape-rendering:auto; stroke-opacity:1; fill:black; stroke-dasharray:none; font-weight:normal; stroke-width:1; font-family:'Dialog'; font-style:normal; stroke-linejoin:miter; font-size:12px; stroke-dashoffset:0; image-rendering:auto;"><defs id="genericDefs" /><g><defs id="defs1"><clipPath clipPathUnits="userSpaceOnUse" id="clipPath1"><path d="M342 82 L364 82 L364 104 L342 104 L342 82 Z" /></clipPath><clipPath clipPathUnits="userSpaceOnUse" id="clipPath2"><path d="M290 82 L312 82 L312 104 L290 104 L290 82 Z" /></clipPath><clipPath clipPathUnits="userSpaceOnUse" id="clipPath3"><path d="M260 93 C260 99.0751 255.0751 104 249 104 C242.9249 104 238 99.0751 238 93 C238 86.9249 242.9249 82 249 82 C255.0751 82 260 86.9249 260 93 Z" /></clipPath><clipPath clipPathUnits="userSpaceOnUse" id="clipPath4"><path d="M208 119 C208 125.0751 203.0751 130 197 130 C190.9249 130 186 125.0751 186 119 C186 112.9249 190.9249 108 197 108 C203.0751 108 208 112.9249 208 119 Z" /></clipPath><clipPath clipPathUnits="userSpaceOnUse" id="clipPath5"><path d="M134 134 L156 134 L156 156 L134 156 L134 134 Z" /></clipPath><clipPath clipPathUnits="userSpaceOnUse" id="clipPath6"><path d="M104 145 C104 151.0751 99.0751 156 93 156 C86.9249 156 82 151.0751 82 145 C82 138.9249 86.9249 134 93 134 C99.0751 134 104 138.9249 104 145 Z" /></clipPath><clipPath clipPathUnits="userSpaceOnUse" id="clipPath7"><path d="M41 134 L52 145 L41 156 L30 145 Z" style="fill-rule:evenodd;" /></clipPath><clipPath clipPathUnits="userSpaceOnUse" id="clipPath8"><path d="M134 82 L156 82 L156 104 L134 104 L134 82 Z" /></clipPath><clipPath clipPathUnits="userSpaceOnUse" id="clipPath9"><path d="M104 93 C104 99.0751 99.0751 104 93 104 C86.9249 104 82 99.0751 82 93 C82 86.9249 86.9249 82 93 82 C99.0751 82 104 86.9249 104 93 Z" /></clipPath><clipPath clipPathUnits="userSpaceOnUse" id="clipPath10"><path d="M41 82 L52 93 L41 104 L30 93 Z" style="fill-rule:evenodd;" /></clipPath><clipPath clipPathUnits="userSpaceOnUse" id="clipPath11"><path d="M208 67 C208 73.0751 203.0751 78 197 78 C190.9249 78 186 73.0751 186 67 C186 60.9249 190.9249 56 197 56 C203.0751 56 208 60.9249 208 67 Z" /></clipPath><clipPath clipPathUnits="userSpaceOnUse" id="clipPath12"><path d="M353 52 L342 30 L364 30 Z" style="fill-rule:evenodd;" /></clipPath></defs><g style="fill:white; text-rendering:optimizeSpeed; stroke:white;"><rect height="186" style="stroke:none;" width="394" x="0" y="0" /></g><g ID="l-1:1,2" style="text-rendering:optimizeSpeed;"><polygon points=" 353 93 301 93" style="fill:none;" /></g><g ID="l-1:1,3" style="text-rendering:optimizeSpeed;"><polygon points=" 353 93 353 41" style="fill:none;" /></g><g ID="r-1:1" style="fill:white; text-rendering:optimizeSpeed; stroke:white;" wurcs_mono_id="1"><rect height="22" style="clip-path:url(#clipPath1); stroke:none;" width="22" x="342" y="82" /><rect height="22" style="clip-path:url(#clipPath1); fill:rgb(0,144,188); stroke:none;" width="22" x="342" y="82" /><rect height="22" style="clip-path:url(#clipPath1); fill:none; stroke:black;" width="22" x="342" y="82" /><rect height="22" style="fill:none; stroke:black;" width="22" x="342" y="82" /></g><g ID="l-1:2,4" style="text-rendering:optimizeSpeed;"><polygon points=" 301 93 249 93" style="fill:none;" /></g><g ID="r-1:2" style="fill:white; text-rendering:optimizeSpeed; stroke:white;" wurcs_mono_id="2"><rect height="22" style="clip-path:url(#clipPath2); stroke:none;" width="22" x="290" y="82" /><rect height="22" style="clip-path:url(#clipPath2); fill:rgb(0,144,188); stroke:none;" width="22" x="290" y="82" /><rect height="22" style="clip-path:url(#clipPath2); fill:none; stroke:black;" width="22" x="290" y="82" /><rect height="22" style="fill:none; stroke:black;" width="22" x="290" y="82" /></g><g ID="l-1:4,5" style="text-rendering:optimizeSpeed;"><polygon points=" 249 93 197 119" style="fill:none;" /></g><g ID="l-1:4,6" style="text-rendering:optimizeSpeed;"><polygon points=" 249 93 197 67" style="fill:none;" /></g><g ID="r-1:4" style="fill:white; text-rendering:optimizeSpeed; stroke:white;" wurcs_mono_id="3"><circle cx="249" cy="93" r="11" style="clip-path:url(#clipPath3); stroke:none;" /><rect height="22" style="clip-path:url(#clipPath3); fill:rgb(0,166,81); stroke:none;" width="22" x="238" y="82" /><rect height="22" style="clip-path:url(#clipPath3); fill:none; stroke:black;" width="22" x="238" y="82" /><circle cx="249" cy="93" r="11" style="fill:none; stroke:black;" /></g><g ID="l-1:5,7" style="text-rendering:optimizeSpeed;"><polygon points=" 197 119 145 145" style="fill:none;" /></g><g ID="l-1:5,8" style="text-rendering:optimizeSpeed;"><polygon points=" 197 119 145 93" style="fill:none;" /></g><g ID="r-1:5" style="fill:white; text-rendering:optimizeSpeed; stroke:white;" wurcs_mono_id="4"><circle cx="197" cy="119" r="11" style="clip-path:url(#clipPath4); stroke:none;" /><rect height="22" style="clip-path:url(#clipPath4); fill:rgb(0,166,81); stroke:none;" width="22" x="186" y="108" /><rect height="22" style="clip-path:url(#clipPath4); fill:none; stroke:black;" width="22" x="186" y="108" /><circle cx="197" cy="119" r="11" style="fill:none; stroke:black;" /></g><g ID="l-1:7,9" style="text-rendering:optimizeSpeed;"><polygon points=" 145 145 93 145" style="fill:none;" /></g><g ID="r-1:7" style="fill:white; text-rendering:optimizeSpeed; stroke:white;" wurcs_mono_id="8"><rect height="22" style="clip-path:url(#clipPath5); stroke:none;" width="22" x="134" y="134" /><rect height="22" style="clip-path:url(#clipPath5); fill:rgb(0,144,188); stroke:none;" width="22" x="134" y="134" /><rect height="22" style="clip-path:url(#clipPath5); fill:none; stroke:black;" width="22" x="134" y="134" /><rect height="22" style="fill:none; stroke:black;" width="22" x="134" y="134" /></g><g ID="l-1:9,10" style="text-rendering:optimizeSpeed;"><polygon points=" 93 145 41 145" style="fill:none;" /></g><g ID="r-1:9" style="fill:white; text-rendering:optimizeSpeed; stroke:white;" wurcs_mono_id="9"><circle cx="93" cy="145" r="11" style="clip-path:url(#clipPath6); stroke:none;" /><rect height="22" style="clip-path:url(#clipPath6); fill:rgb(255,212,0); stroke:none;" width="22" x="82" y="134" /><rect height="22" style="clip-path:url(#clipPath6); fill:none; stroke:black;" width="22" x="82" y="134" /><circle cx="93" cy="145" r="11" style="fill:none; stroke:black;" /></g><g ID="r-1:10" style="fill:white; text-rendering:optimizeSpeed; stroke:white;" wurcs_mono_id="10"><polygon points=" 41 134 52 145 41 156 30 145" style="stroke:none; clip-path:url(#clipPath7);" /><rect height="22" style="clip-path:url(#clipPath7); fill:rgb(165,67,153); stroke:none;" width="22" x="30" y="134" /><rect height="22" style="clip-path:url(#clipPath7); fill:none; stroke:black;" width="22" x="30" y="134" /><polygon points=" 41 134 52 145 41 156 30 145" style="fill:none; stroke:black;" /></g><g ID="li-1:9,10" style="fill:white; text-rendering:optimizeSpeed; font-family:'Serif'; stroke:white;"><rect height="10" style="stroke:none;" width="6" x="71" y="148" /><path d="M73.1094 157.3906 Q73.1094 157.0625 73.3359 156.8359 Q73.5625 156.6094 73.8906 156.6094 Q74.2188 156.6094 74.4453 156.8359 Q74.6719 157.0625 74.6719 157.3906 Q74.6719 157.7188 74.4453 157.9453 Q74.2188 158.1719 73.8906 158.1719 Q73.5625 158.1719 73.3359 157.9453 Q73.1094 157.7188 73.1094 157.3906 ZM71.8125 149.6406 Q72.4375 149.3594 73 149.2266 Q73.5625 149.0938 74.0469 149.0938 Q75.3438 149.0938 76.1016 149.7188 Q76.8594 150.3438 76.8594 151.4062 Q76.8594 152.5 76.2109 153.1953 Q75.5625 153.8906 74.25 154.1875 L74.25 155.6719 L73.5312 155.6719 L73.5312 153.75 Q74.5625 153.5 75.0938 152.9062 Q75.625 152.3125 75.625 151.4062 Q75.625 150.5938 75.1953 150.1328 Q74.7656 149.6719 74.0312 149.6719 Q73.3594 149.6719 72.9297 150.0547 Q72.5 150.4375 72.3906 151.1562 L71.8125 151.1562 L71.8125 149.6406 Z" style="fill:black; stroke:none;" /><rect height="10" style="stroke:none;" width="6" x="57" y="148" /><path d="M59.1094 157.3906 Q59.1094 157.0625 59.3359 156.8359 Q59.5625 156.6094 59.8906 156.6094 Q60.2188 156.6094 60.4453 156.8359 Q60.6719 157.0625 60.6719 157.3906 Q60.6719 157.7188 60.4453 157.9453 Q60.2188 158.1719 59.8906 158.1719 Q59.5625 158.1719 59.3359 157.9453 Q59.1094 157.7188 59.1094 157.3906 ZM57.8125 149.6406 Q58.4375 149.3594 59 149.2266 Q59.5625 149.0938 60.0469 149.0938 Q61.3438 149.0938 62.1016 149.7188 Q62.8594 150.3438 62.8594 151.4062 Q62.8594 152.5 62.2109 153.1953 Q61.5625 153.8906 60.25 154.1875 L60.25 155.6719 L59.5312 155.6719 L59.5312 153.75 Q60.5625 153.5 61.0938 152.9062 Q61.625 152.3125 61.625 151.4062 Q61.625 150.5938 61.1953 150.1328 Q60.7656 149.6719 60.0312 149.6719 Q59.3594 149.6719 58.9297 150.0547 Q58.5 150.4375 58.3906 151.1562 L57.8125 151.1562 L57.8125 149.6406 Z" style="fill:black; stroke:none;" /></g><g ID="li-1:7,9" style="fill:white; text-rendering:optimizeSpeed; font-family:'Serif'; stroke:white;"><rect height="10" style="stroke:none;" width="6" x="123" y="148" /><path d="M125.1094 157.3906 Q125.1094 157.0625 125.3359 156.8359 Q125.5625 156.6094 125.8906 156.6094 Q126.2188 156.6094 126.4453 156.8359 Q126.6719 157.0625 126.6719 157.3906 Q126.6719 157.7188 126.4453 157.9453 Q126.2188 158.1719 125.8906 158.1719 Q125.5625 158.1719 125.3359 157.9453 Q125.1094 157.7188 125.1094 157.3906 ZM123.8125 149.6406 Q124.4375 149.3594 125 149.2266 Q125.5625 149.0938 126.0469 149.0938 Q127.3438 149.0938 128.1016 149.7188 Q128.8594 150.3438 128.8594 151.4062 Q128.8594 152.5 128.2109 153.1953 Q127.5625 153.8906 126.25 154.1875 L126.25 155.6719 L125.5312 155.6719 L125.5312 153.75 Q126.5625 153.5 127.0938 152.9062 Q127.625 152.3125 127.625 151.4062 Q127.625 150.5938 127.1953 150.1328 Q126.7656 149.6719 126.0312 149.6719 Q125.3594 149.6719 124.9297 150.0547 Q124.5 150.4375 124.3906 151.1562 L123.8125 151.1562 L123.8125 149.6406 Z" style="fill:black; stroke:none;" /><rect height="10" style="stroke:none;" width="6" x="109" y="148" /><path d="M111.1094 157.3906 Q111.1094 157.0625 111.3359 156.8359 Q111.5625 156.6094 111.8906 156.6094 Q112.2188 156.6094 112.4453 156.8359 Q112.6719 157.0625 112.6719 157.3906 Q112.6719 157.7188 112.4453 157.9453 Q112.2188 158.1719 111.8906 158.1719 Q111.5625 158.1719 111.3359 157.9453 Q111.1094 157.7188 111.1094 157.3906 ZM109.8125 149.6406 Q110.4375 149.3594 111 149.2266 Q111.5625 149.0938 112.0469 149.0938 Q113.3438 149.0938 114.1016 149.7188 Q114.8594 150.3438 114.8594 151.4062 Q114.8594 152.5 114.2109 153.1953 Q113.5625 153.8906 112.25 154.1875 L112.25 155.6719 L111.5312 155.6719 L111.5312 153.75 Q112.5625 153.5 113.0938 152.9062 Q113.625 152.3125 113.625 151.4062 Q113.625 150.5938 113.1953 150.1328 Q112.7656 149.6719 112.0312 149.6719 Q111.3594 149.6719 110.9297 150.0547 Q110.5 150.4375 110.3906 151.1562 L109.8125 151.1562 L109.8125 149.6406 Z" style="fill:black; stroke:none;" /></g><g ID="l-1:8,11" style="text-rendering:optimizeSpeed;"><polygon points=" 145 93 93 93" style="fill:none;" /></g><g ID="r-1:8" style="fill:white; text-rendering:optimizeSpeed; stroke:white;" wurcs_mono_id="5"><rect height="22" style="clip-path:url(#clipPath8); stroke:none;" width="22" x="134" y="82" /><rect height="22" style="clip-path:url(#clipPath8); fill:rgb(0,144,188); stroke:none;" width="22" x="134" y="82" /><rect height="22" style="clip-path:url(#clipPath8); fill:none; stroke:black;" width="22" x="134" y="82" /><rect height="22" style="fill:none; stroke:black;" width="22" x="134" y="82" /></g><g ID="l-1:11,12" style="text-rendering:optimizeSpeed;"><polygon points=" 93 93 41 93" style="fill:none;" /></g><g ID="r-1:11" style="fill:white; text-rendering:optimizeSpeed; stroke:white;" wurcs_mono_id="6"><circle cx="93" cy="93" r="11" style="clip-path:url(#clipPath9); stroke:none;" /><rect height="22" style="clip-path:url(#clipPath9); fill:rgb(255,212,0); stroke:none;" width="22" x="82" y="82" /><rect height="22" style="clip-path:url(#clipPath9); fill:none; stroke:black;" width="22" x="82" y="82" /><circle cx="93" cy="93" r="11" style="fill:none; stroke:black;" /></g><g ID="r-1:12" style="fill:white; text-rendering:optimizeSpeed; stroke:white;" wurcs_mono_id="7"><polygon points=" 41 82 52 93 41 104 30 93" style="stroke:none; clip-path:url(#clipPath10);" /><rect height="22" style="clip-path:url(#clipPath10); fill:rgb(165,67,153); stroke:none;" width="22" x="30" y="82" /><rect height="22" style="clip-path:url(#clipPath10); fill:none; stroke:black;" width="22" x="30" y="82" /><polygon points=" 41 82 52 93 41 104 30 93" style="fill:none; stroke:black;" /></g><g ID="li-1:11,12" style="fill:white; text-rendering:optimizeSpeed; font-family:'Serif'; stroke:white;"><rect height="10" style="stroke:none;" width="6" x="71" y="96" /><path d="M73.1094 105.3906 Q73.1094 105.0625 73.3359 104.8359 Q73.5625 104.6094 73.8906 104.6094 Q74.2188 104.6094 74.4453 104.8359 Q74.6719 105.0625 74.6719 105.3906 Q74.6719 105.7188 74.4453 105.9453 Q74.2188 106.1719 73.8906 106.1719 Q73.5625 106.1719 73.3359 105.9453 Q73.1094 105.7188 73.1094 105.3906 ZM71.8125 97.6406 Q72.4375 97.3594 73 97.2266 Q73.5625 97.0938 74.0469 97.0938 Q75.3438 97.0938 76.1016 97.7188 Q76.8594 98.3438 76.8594 99.4062 Q76.8594 100.5 76.2109 101.1953 Q75.5625 101.8906 74.25 102.1875 L74.25 103.6719 L73.5312 103.6719 L73.5312 101.75 Q74.5625 101.5 75.0938 100.9062 Q75.625 100.3125 75.625 99.4062 Q75.625 98.5938 75.1953 98.1328 Q74.7656 97.6719 74.0312 97.6719 Q73.3594 97.6719 72.9297 98.0547 Q72.5 98.4375 72.3906 99.1562 L71.8125 99.1562 L71.8125 97.6406 Z" style="fill:black; stroke:none;" /><rect height="10" style="stroke:none;" width="6" x="57" y="96" /><path d="M59.1094 105.3906 Q59.1094 105.0625 59.3359 104.8359 Q59.5625 104.6094 59.8906 104.6094 Q60.2188 104.6094 60.4453 104.8359 Q60.6719 105.0625 60.6719 105.3906 Q60.6719 105.7188 60.4453 105.9453 Q60.2188 106.1719 59.8906 106.1719 Q59.5625 106.1719 59.3359 105.9453 Q59.1094 105.7188 59.1094 105.3906 ZM57.8125 97.6406 Q58.4375 97.3594 59 97.2266 Q59.5625 97.0938 60.0469 97.0938 Q61.3438 97.0938 62.1016 97.7188 Q62.8594 98.3438 62.8594 99.4062 Q62.8594 100.5 62.2109 101.1953 Q61.5625 101.8906 60.25 102.1875 L60.25 103.6719 L59.5312 103.6719 L59.5312 101.75 Q60.5625 101.5 61.0938 100.9062 Q61.625 100.3125 61.625 99.4062 Q61.625 98.5938 61.1953 98.1328 Q60.7656 97.6719 60.0312 97.6719 Q59.3594 97.6719 58.9297 98.0547 Q58.5 98.4375 58.3906 99.1562 L57.8125 99.1562 L57.8125 97.6406 Z" style="fill:black; stroke:none;" /></g><g ID="li-1:8,11" style="fill:white; text-rendering:optimizeSpeed; font-family:'Serif'; stroke:white;"><rect height="10" style="stroke:none;" width="6" x="123" y="96" /><path d="M125.1094 105.3906 Q125.1094 105.0625 125.3359 104.8359 Q125.5625 104.6094 125.8906 104.6094 Q126.2188 104.6094 126.4453 104.8359 Q126.6719 105.0625 126.6719 105.3906 Q126.6719 105.7188 126.4453 105.9453 Q126.2188 106.1719 125.8906 106.1719 Q125.5625 106.1719 125.3359 105.9453 Q125.1094 105.7188 125.1094 105.3906 ZM123.8125 97.6406 Q124.4375 97.3594 125 97.2266 Q125.5625 97.0938 126.0469 97.0938 Q127.3438 97.0938 128.1016 97.7188 Q128.8594 98.3438 128.8594 99.4062 Q128.8594 100.5 128.2109 101.1953 Q127.5625 101.8906 126.25 102.1875 L126.25 103.6719 L125.5312 103.6719 L125.5312 101.75 Q126.5625 101.5 127.0938 100.9062 Q127.625 100.3125 127.625 99.4062 Q127.625 98.5938 127.1953 98.1328 Q126.7656 97.6719 126.0312 97.6719 Q125.3594 97.6719 124.9297 98.0547 Q124.5 98.4375 124.3906 99.1562 L123.8125 99.1562 L123.8125 97.6406 Z" style="fill:black; stroke:none;" /><rect height="10" style="stroke:none;" width="6" x="109" y="96" /><path d="M111.1094 105.3906 Q111.1094 105.0625 111.3359 104.8359 Q111.5625 104.6094 111.8906 104.6094 Q112.2188 104.6094 112.4453 104.8359 Q112.6719 105.0625 112.6719 105.3906 Q112.6719 105.7188 112.4453 105.9453 Q112.2188 106.1719 111.8906 106.1719 Q111.5625 106.1719 111.3359 105.9453 Q111.1094 105.7188 111.1094 105.3906 ZM109.8125 97.6406 Q110.4375 97.3594 111 97.2266 Q111.5625 97.0938 112.0469 97.0938 Q113.3438 97.0938 114.1016 97.7188 Q114.8594 98.3438 114.8594 99.4062 Q114.8594 100.5 114.2109 101.1953 Q113.5625 101.8906 112.25 102.1875 L112.25 103.6719 L111.5312 103.6719 L111.5312 101.75 Q112.5625 101.5 113.0938 100.9062 Q113.625 100.3125 113.625 99.4062 Q113.625 98.5938 113.1953 98.1328 Q112.7656 97.6719 112.0312 97.6719 Q111.3594 97.6719 110.9297 98.0547 Q110.5 98.4375 110.3906 99.1562 L109.8125 99.1562 L109.8125 97.6406 Z" style="fill:black; stroke:none;" /></g><g ID="li-1:5,7" style="fill:white; text-rendering:optimizeSpeed; font-family:'Serif'; stroke:white;"><rect height="10" style="stroke:none;" width="6" x="179" y="130" /><path d="M181.1094 139.3906 Q181.1094 139.0625 181.3359 138.8359 Q181.5625 138.6094 181.8906 138.6094 Q182.2188 138.6094 182.4453 138.8359 Q182.6719 139.0625 182.6719 139.3906 Q182.6719 139.7188 182.4453 139.9453 Q182.2188 140.1719 181.8906 140.1719 Q181.5625 140.1719 181.3359 139.9453 Q181.1094 139.7188 181.1094 139.3906 ZM179.8125 131.6406 Q180.4375 131.3594 181 131.2266 Q181.5625 131.0938 182.0469 131.0938 Q183.3438 131.0938 184.1016 131.7188 Q184.8594 132.3438 184.8594 133.4062 Q184.8594 134.5 184.2109 135.1953 Q183.5625 135.8906 182.25 136.1875 L182.25 137.6719 L181.5312 137.6719 L181.5312 135.75 Q182.5625 135.5 183.0938 134.9062 Q183.625 134.3125 183.625 133.4062 Q183.625 132.5938 183.1953 132.1328 Q182.7656 131.6719 182.0312 131.6719 Q181.3594 131.6719 180.9297 132.0547 Q180.5 132.4375 180.3906 133.1562 L179.8125 133.1562 L179.8125 131.6406 Z" style="fill:black; stroke:none;" /><rect height="10" style="stroke:none;" width="6" x="163" y="138" /><path d="M165.1094 147.3906 Q165.1094 147.0625 165.3359 146.8359 Q165.5625 146.6094 165.8906 146.6094 Q166.2188 146.6094 166.4453 146.8359 Q166.6719 147.0625 166.6719 147.3906 Q166.6719 147.7188 166.4453 147.9453 Q166.2188 148.1719 165.8906 148.1719 Q165.5625 148.1719 165.3359 147.9453 Q165.1094 147.7188 165.1094 147.3906 ZM163.8125 139.6406 Q164.4375 139.3594 165 139.2266 Q165.5625 139.0938 166.0469 139.0938 Q167.3438 139.0938 168.1016 139.7188 Q168.8594 140.3438 168.8594 141.4062 Q168.8594 142.5 168.2109 143.1953 Q167.5625 143.8906 166.25 144.1875 L166.25 145.6719 L165.5312 145.6719 L165.5312 143.75 Q166.5625 143.5 167.0938 142.9062 Q167.625 142.3125 167.625 141.4062 Q167.625 140.5938 167.1953 140.1328 Q166.7656 139.6719 166.0312 139.6719 Q165.3594 139.6719 164.9297 140.0547 Q164.5 140.4375 164.3906 141.1562 L163.8125 141.1562 L163.8125 139.6406 Z" style="fill:black; stroke:none;" /></g><g ID="li-1:5,8" style="fill:white; text-rendering:optimizeSpeed; font-family:'Serif'; stroke:white;"><rect height="10" style="stroke:none;" width="6" x="172" y="112" /><path d="M174.1094 121.3906 Q174.1094 121.0625 174.3359 120.8359 Q174.5625 120.6094 174.8906 120.6094 Q175.2188 120.6094 175.4453 120.8359 Q175.6719 121.0625 175.6719 121.3906 Q175.6719 121.7188 175.4453 121.9453 Q175.2188 122.1719 174.8906 122.1719 Q174.5625 122.1719 174.3359 121.9453 Q174.1094 121.7188 174.1094 121.3906 ZM172.8125 113.6406 Q173.4375 113.3594 174 113.2266 Q174.5625 113.0938 175.0469 113.0938 Q176.3438 113.0938 177.1016 113.7188 Q177.8594 114.3438 177.8594 115.4062 Q177.8594 116.5 177.2109 117.1953 Q176.5625 117.8906 175.25 118.1875 L175.25 119.6719 L174.5312 119.6719 L174.5312 117.75 Q175.5625 117.5 176.0938 116.9062 Q176.625 116.3125 176.625 115.4062 Q176.625 114.5938 176.1953 114.1328 Q175.7656 113.6719 175.0312 113.6719 Q174.3594 113.6719 173.9297 114.0547 Q173.5 114.4375 173.3906 115.1562 L172.8125 115.1562 L172.8125 113.6406 Z" style="fill:black; stroke:none;" /><rect height="10" style="stroke:none;" width="6" x="156" y="104" /><path d="M158.1094 113.3906 Q158.1094 113.0625 158.3359 112.8359 Q158.5625 112.6094 158.8906 112.6094 Q159.2188 112.6094 159.4453 112.8359 Q159.6719 113.0625 159.6719 113.3906 Q159.6719 113.7188 159.4453 113.9453 Q159.2188 114.1719 158.8906 114.1719 Q158.5625 114.1719 158.3359 113.9453 Q158.1094 113.7188 158.1094 113.3906 ZM156.8125 105.6406 Q157.4375 105.3594 158 105.2266 Q158.5625 105.0938 159.0469 105.0938 Q160.3438 105.0938 161.1016 105.7188 Q161.8594 106.3438 161.8594 107.4062 Q161.8594 108.5 161.2109 109.1953 Q160.5625 109.8906 159.25 110.1875 L159.25 111.6719 L158.5312 111.6719 L158.5312 109.75 Q159.5625 109.5 160.0938 108.9062 Q160.625 108.3125 160.625 107.4062 Q160.625 106.5938 160.1953 106.1328 Q159.7656 105.6719 159.0312 105.6719 Q158.3594 105.6719 157.9297 106.0547 Q157.5 106.4375 157.3906 107.1562 L156.8125 107.1562 L156.8125 105.6406 Z" style="fill:black; stroke:none;" /></g><g ID="r-1:6" style="fill:white; text-rendering:optimizeSpeed; stroke:white;" wurcs_mono_id="11"><circle cx="197" cy="67" r="11" style="clip-path:url(#clipPath11); stroke:none;" /><rect height="22" style="clip-path:url(#clipPath11); fill:rgb(0,166,81); stroke:none;" width="22" x="186" y="56" /><rect height="22" style="clip-path:url(#clipPath11); fill:none; stroke:black;" width="22" x="186" y="56" /><circle cx="197" cy="67" r="11" style="fill:none; stroke:black;" /></g><g ID="li-1:4,5" style="fill:white; text-rendering:optimizeSpeed; font-family:'Serif'; stroke:white;"><rect height="11" style="stroke:none;" width="19" x="224" y="103" /><path d="M225.1719 105.625 Q225.8594 105.3594 226.4844 105.2266 Q227.1094 105.0938 227.6562 105.0938 Q228.9531 105.0938 229.6719 105.6484 Q230.3906 106.2031 230.3906 107.1875 Q230.3906 107.9688 229.8906 108.5 Q229.3906 109.0312 228.4844 109.2188 Q229.5625 109.375 230.1562 110.0078 Q230.75 110.6406 230.75 111.6406 Q230.75 112.8594 229.9219 113.5156 Q229.0938 114.1719 227.5469 114.1719 Q226.8594 114.1719 226.2109 114.0234 Q225.5625 113.875 224.9219 113.5781 L224.9219 111.875 L225.5781 111.875 Q225.625 112.7188 226.1406 113.1562 Q226.6562 113.5938 227.5781 113.5938 Q228.4688 113.5938 228.9922 113.0703 Q229.5156 112.5469 229.5156 111.6562 Q229.5156 110.625 228.9766 110.0938 Q228.4375 109.5625 227.4062 109.5625 L226.8594 109.5625 L226.8594 108.9531 L227.1406 108.9531 Q228.1719 108.9531 228.6875 108.5312 Q229.2031 108.1094 229.2031 107.25 Q229.2031 106.4844 228.7812 106.0781 Q228.3594 105.6719 227.5625 105.6719 Q226.7656 105.6719 226.3359 106.0469 Q225.9062 106.4219 225.8281 107.1562 L225.1719 107.1562 L225.1719 105.625 ZM234.7441 105.25 L235.6816 105.25 L232.5723 115.1094 L231.6348 115.1094 L234.7441 105.25 ZM239.5996 113.5938 Q240.4277 113.5938 240.873 112.9844 Q241.3184 112.375 241.3184 111.2344 Q241.3184 110.1094 240.873 109.5 Q240.4277 108.8906 239.5996 108.8906 Q238.7715 108.8906 238.3262 109.4766 Q237.8809 110.0625 237.8809 111.1719 Q237.8809 112.3281 238.3262 112.9609 Q238.7715 113.5938 239.5996 113.5938 ZM237.6934 109.1875 Q238.0996 108.75 238.5996 108.5312 Q239.0996 108.3125 239.7402 108.3125 Q241.0371 108.3125 241.7949 109.0938 Q242.5527 109.875 242.5527 111.2344 Q242.5527 112.5625 241.7402 113.3672 Q240.9277 114.1719 239.5527 114.1719 Q238.0684 114.1719 237.2715 113.0625 Q236.4746 111.9531 236.4746 109.9062 Q236.4746 107.6094 237.4199 106.3516 Q238.3652 105.0938 240.084 105.0938 Q240.5527 105.0938 241.0605 105.1797 Q241.5684 105.2656 242.0996 105.4375 L242.0996 106.8906 L241.4434 106.8906 Q241.3652 106.2969 240.9824 105.9844 Q240.5996 105.6719 239.959 105.6719 Q238.8184 105.6719 238.2637 106.5312 Q237.709 107.3906 237.6934 109.1875 Z" style="fill:black; stroke:none;" /><rect height="8" style="stroke:none;" width="8" x="214" y="113" /><path d="M219.1875 119.4688 L218.9531 120.1094 Q218.7656 120.625 218.2031 120.9375 Q217.8438 121.1562 217.2031 121.1406 Q216.0469 121.1406 215.3281 120.2344 Q214.5938 119.3281 214.5938 117.8594 Q214.5938 116.4219 215.3281 115.4844 Q216.0156 114.5938 217.4531 114.6094 Q218.4531 114.6094 218.9531 115 Q219.4062 115.3438 219.5781 116.0938 L219.625 116.3125 L219.8438 115.6719 Q220.0625 115.0469 220.6562 114.75 L221.25 114.75 L221.25 115.0938 Q220.6875 115.2656 220.5 115.8125 L219.8906 117.4844 L220.2969 119.2812 Q220.5 120.2031 220.7344 120.2969 Q221.0469 120.4375 221.7812 120 L221.7812 120.7188 Q220.5938 121.4062 219.75 120.6875 Q219.375 120.3594 219.2656 119.875 L219.1875 119.4688 ZM218.9219 118.3125 L218.5625 116.5938 Q218.2656 115.2188 217.4688 115.2188 Q216.7969 115.2031 216.2812 115.9375 Q215.8594 116.5156 215.8594 117.875 Q215.8594 119.1719 216.2812 119.8281 Q216.75 120.5469 217.5312 120.5 Q218.2031 120.4375 218.6875 119 L218.9219 118.3125 Z" style="fill:black; stroke:none;" /></g><g ID="li-1:4,6" style="fill:white; text-rendering:optimizeSpeed; font-family:'Serif'; stroke:white;"><rect height="11" style="stroke:none;" width="19" x="217" y="85" /><path d="M218.1719 87.625 Q218.8594 87.3594 219.4844 87.2266 Q220.1094 87.0938 220.6562 87.0938 Q221.9531 87.0938 222.6719 87.6484 Q223.3906 88.2031 223.3906 89.1875 Q223.3906 89.9688 222.8906 90.5 Q222.3906 91.0312 221.4844 91.2188 Q222.5625 91.375 223.1562 92.0078 Q223.75 92.6406 223.75 93.6406 Q223.75 94.8594 222.9219 95.5156 Q222.0938 96.1719 220.5469 96.1719 Q219.8594 96.1719 219.2109 96.0234 Q218.5625 95.875 217.9219 95.5781 L217.9219 93.875 L218.5781 93.875 Q218.625 94.7188 219.1406 95.1562 Q219.6562 95.5938 220.5781 95.5938 Q221.4688 95.5938 221.9922 95.0703 Q222.5156 94.5469 222.5156 93.6562 Q222.5156 92.625 221.9766 92.0938 Q221.4375 91.5625 220.4062 91.5625 L219.8594 91.5625 L219.8594 90.9531 L220.1406 90.9531 Q221.1719 90.9531 221.6875 90.5312 Q222.2031 90.1094 222.2031 89.25 Q222.2031 88.4844 221.7812 88.0781 Q221.3594 87.6719 220.5625 87.6719 Q219.7656 87.6719 219.3359 88.0469 Q218.9062 88.4219 218.8281 89.1562 L218.1719 89.1562 L218.1719 87.625 ZM227.7441 87.25 L228.6816 87.25 L225.5723 97.1094 L224.6348 97.1094 L227.7441 87.25 ZM232.5996 95.5938 Q233.4277 95.5938 233.873 94.9844 Q234.3184 94.375 234.3184 93.2344 Q234.3184 92.1094 233.873 91.5 Q233.4277 90.8906 232.5996 90.8906 Q231.7715 90.8906 231.3262 91.4766 Q230.8809 92.0625 230.8809 93.1719 Q230.8809 94.3281 231.3262 94.9609 Q231.7715 95.5938 232.5996 95.5938 ZM230.6934 91.1875 Q231.0996 90.75 231.5996 90.5312 Q232.0996 90.3125 232.7402 90.3125 Q234.0371 90.3125 234.7949 91.0938 Q235.5527 91.875 235.5527 93.2344 Q235.5527 94.5625 234.7402 95.3672 Q233.9277 96.1719 232.5527 96.1719 Q231.0684 96.1719 230.2715 95.0625 Q229.4746 93.9531 229.4746 91.9062 Q229.4746 89.6094 230.4199 88.3516 Q231.3652 87.0938 233.084 87.0938 Q233.5527 87.0938 234.0605 87.1797 Q234.5684 87.2656 235.0996 87.4375 L235.0996 88.8906 L234.4434 88.8906 Q234.3652 88.2969 233.9824 87.9844 Q233.5996 87.6719 232.959 87.6719 Q231.8184 87.6719 231.2637 88.5312 Q230.709 89.3906 230.6934 91.1875 Z" style="fill:black; stroke:none;" /><rect height="8" style="stroke:none;" width="8" x="207" y="79" /><path d="M212.1875 85.4688 L211.9531 86.1094 Q211.7656 86.625 211.2031 86.9375 Q210.8438 87.1562 210.2031 87.1406 Q209.0469 87.1406 208.3281 86.2344 Q207.5938 85.3281 207.5938 83.8594 Q207.5938 82.4219 208.3281 81.4844 Q209.0156 80.5938 210.4531 80.6094 Q211.4531 80.6094 211.9531 81 Q212.4062 81.3438 212.5781 82.0938 L212.625 82.3125 L212.8438 81.6719 Q213.0625 81.0469 213.6562 80.75 L214.25 80.75 L214.25 81.0938 Q213.6875 81.2656 213.5 81.8125 L212.8906 83.4844 L213.2969 85.2812 Q213.5 86.2031 213.7344 86.2969 Q214.0469 86.4375 214.7812 86 L214.7812 86.7188 Q213.5938 87.4062 212.75 86.6875 Q212.375 86.3594 212.2656 85.875 L212.1875 85.4688 ZM211.9219 84.3125 L211.5625 82.5938 Q211.2656 81.2188 210.4688 81.2188 Q209.7969 81.2031 209.2812 81.9375 Q208.8594 82.5156 208.8594 83.875 Q208.8594 85.1719 209.2812 85.8281 Q209.75 86.5469 210.5312 86.5 Q211.2031 86.4375 211.6875 85 L211.9219 84.3125 Z" style="fill:black; stroke:none;" /></g><g ID="li-1:2,4" style="fill:white; text-rendering:optimizeSpeed; font-family:'Serif'; stroke:white;"><rect height="9" style="stroke:none;" width="8" x="278" y="96" /><path d="M282.1875 102.0312 L282.1875 97.375 L279.2031 102.0312 L282.1875 102.0312 ZM284.7656 105 L280.7812 105 L280.7812 104.375 L282.1875 104.375 L282.1875 102.6562 L278.375 102.6562 L278.375 102.0156 L282.2031 96.0938 L283.3594 96.0938 L283.3594 102.0312 L285.0312 102.0312 L285.0312 102.6562 L283.3594 102.6562 L283.3594 104.375 L284.7656 104.375 L284.7656 105 Z" style="fill:black; stroke:none;" /><rect height="13" style="stroke:none;" width="7" x="264" y="94" /><path d="M265.8281 106.25 Q266.2969 106.5938 267.1719 106.5938 Q268.0625 106.5938 268.5781 106.0703 Q269.0938 105.5469 269.0938 104.6562 Q269.0938 103.4219 268.5625 102.8906 Q268.0156 102.3594 267 102.3594 L266.4375 102.3594 L266.4375 101.7188 L266.7344 101.7188 Q267.4844 101.7188 268 101.2969 Q268.4219 100.9531 268.4219 100.0156 Q268.4219 99.6094 268.1406 99.1406 Q267.6875 98.375 267.1562 98.3906 Q265.8281 98.4375 265.8281 100.7812 L265.8281 106.25 ZM264.75 109.5 L264.75 100.7812 Q264.75 98.3281 266.0781 98 Q266.7656 97.8125 267.25 97.8125 Q268.3438 97.8125 269.0469 98.6719 Q269.6094 99.3594 269.6094 99.9375 Q269.6094 100.7812 269.2031 101.2656 Q268.7969 101.75 268.0625 101.9844 Q269.1406 102.1406 269.75 102.7812 Q270.3281 103.4062 270.3281 104.6328 Q270.3281 105.8594 269.5078 106.5156 Q268.6875 107.1719 267.1406 107.1719 Q266.1875 107.1719 265.8281 107.0312 L265.8281 109.5 L264.75 109.5 Z" style="fill:black; stroke:none;" /></g><g ID="r-1:3" style="fill:white; text-rendering:optimizeSpeed; stroke:white;" wurcs_mono_id="12"><polygon points=" 353 52 342 30 364 30" style="stroke:none; clip-path:url(#clipPath12);" /><rect height="22" style="clip-path:url(#clipPath12); fill:rgb(237,28,36); stroke:none;" width="22" x="342" y="30" /><rect height="22" style="clip-path:url(#clipPath12); fill:none; stroke:black;" width="22" x="342" y="30" /><polygon points=" 353 52 342 30 364 30" style="fill:none; stroke:black;" /></g><g ID="li-1:1,2" style="fill:white; text-rendering:optimizeSpeed; font-family:'Serif'; stroke:white;"><rect height="9" style="stroke:none;" width="8" x="330" y="96" /><path d="M334.1875 102.0312 L334.1875 97.375 L331.2031 102.0312 L334.1875 102.0312 ZM336.7656 105 L332.7812 105 L332.7812 104.375 L334.1875 104.375 L334.1875 102.6562 L330.375 102.6562 L330.375 102.0156 L334.2031 96.0938 L335.3594 96.0938 L335.3594 102.0312 L337.0312 102.0312 L337.0312 102.6562 L335.3594 102.6562 L335.3594 104.375 L336.7656 104.375 L336.7656 105 Z" style="fill:black; stroke:none;" /><rect height="13" style="stroke:none;" width="7" x="316" y="94" /><path d="M317.8281 106.25 Q318.2969 106.5938 319.1719 106.5938 Q320.0625 106.5938 320.5781 106.0703 Q321.0938 105.5469 321.0938 104.6562 Q321.0938 103.4219 320.5625 102.8906 Q320.0156 102.3594 319 102.3594 L318.4375 102.3594 L318.4375 101.7188 L318.7344 101.7188 Q319.4844 101.7188 320 101.2969 Q320.4219 100.9531 320.4219 100.0156 Q320.4219 99.6094 320.1406 99.1406 Q319.6875 98.375 319.1562 98.3906 Q317.8281 98.4375 317.8281 100.7812 L317.8281 106.25 ZM316.75 109.5 L316.75 100.7812 Q316.75 98.3281 318.0781 98 Q318.7656 97.8125 319.25 97.8125 Q320.3438 97.8125 321.0469 98.6719 Q321.6094 99.3594 321.6094 99.9375 Q321.6094 100.7812 321.2031 101.2656 Q320.7969 101.75 320.0625 101.9844 Q321.1406 102.1406 321.75 102.7812 Q322.3281 103.4062 322.3281 104.6328 Q322.3281 105.8594 321.5078 106.5156 Q320.6875 107.1719 319.1406 107.1719 Q318.1875 107.1719 317.8281 107.0312 L317.8281 109.5 L316.75 109.5 Z" style="fill:black; stroke:none;" /></g><g ID="li-1:1,3" style="fill:white; text-rendering:optimizeSpeed; font-family:'Serif'; stroke:white;"><rect height="10" style="stroke:none;" width="7" x="341" y="69" /><path d="M344.9219 78.5938 Q345.75 78.5938 346.1953 77.9844 Q346.6406 77.375 346.6406 76.2344 Q346.6406 75.1094 346.1953 74.5 Q345.75 73.8906 344.9219 73.8906 Q344.0938 73.8906 343.6484 74.4766 Q343.2031 75.0625 343.2031 76.1719 Q343.2031 77.3281 343.6484 77.9609 Q344.0938 78.5938 344.9219 78.5938 ZM343.0156 74.1875 Q343.4219 73.75 343.9219 73.5312 Q344.4219 73.3125 345.0625 73.3125 Q346.3594 73.3125 347.1172 74.0938 Q347.875 74.875 347.875 76.2344 Q347.875 77.5625 347.0625 78.3672 Q346.25 79.1719 344.875 79.1719 Q343.3906 79.1719 342.5938 78.0625 Q341.7969 76.9531 341.7969 74.9062 Q341.7969 72.6094 342.7422 71.3516 Q343.6875 70.0938 345.4062 70.0938 Q345.875 70.0938 346.3828 70.1797 Q346.8906 70.2656 347.4219 70.4375 L347.4219 71.8906 L346.7656 71.8906 Q346.6875 71.2969 346.3047 70.9844 Q345.9219 70.6719 345.2812 70.6719 Q344.1406 70.6719 343.5859 71.5312 Q343.0312 72.3906 343.0156 74.1875 Z" style="fill:black; stroke:none;" /><rect height="8" style="stroke:none;" width="8" x="341" y="56" /><path d="M346.1875 62.4688 L345.9531 63.1094 Q345.7656 63.625 345.2031 63.9375 Q344.8438 64.1562 344.2031 64.1406 Q343.0469 64.1406 342.3281 63.2344 Q341.5938 62.3281 341.5938 60.8594 Q341.5938 59.4219 342.3281 58.4844 Q343.0156 57.5938 344.4531 57.6094 Q345.4531 57.6094 345.9531 58 Q346.4062 58.3438 346.5781 59.0938 L346.625 59.3125 L346.8438 58.6719 Q347.0625 58.0469 347.6562 57.75 L348.25 57.75 L348.25 58.0938 Q347.6875 58.2656 347.5 58.8125 L346.8906 60.4844 L347.2969 62.2812 Q347.5 63.2031 347.7344 63.2969 Q348.0469 63.4375 348.7812 63 L348.7812 63.7188 Q347.5938 64.4062 346.75 63.6875 Q346.375 63.3594 346.2656 62.875 L346.1875 62.4688 ZM345.9219 61.3125 L345.5625 59.5938 Q345.2656 58.2188 344.4688 58.2188 Q343.7969 58.2031 343.2812 58.9375 Q342.8594 59.5156 342.8594 60.875 Q342.8594 62.1719 343.2812 62.8281 Q343.75 63.5469 344.5312 63.5 Q345.2031 63.4375 345.6875 62 L345.9219 61.3125 Z" style="fill:black; stroke:none;" /></g></g></svg>