<svg xmlns="http://www.w3.org/2000/svg" style="fill-opacity:1; color-rendering:auto; color-interpolation:auto; text-rendering:auto; stroke:black; stroke-linecap:square; stroke-miterlimit:10; shape-rendering:auto; stroke-opacity:1; fill:black; stroke-dasharray:none; font-weight:normal; stroke-width:1; font-family:'Dialog'; font-style:normal; stroke-linejoin:miter; font-size:12px; stroke-dashoffset:0; image-rendering:auto;"><defs id="genericDefs" /><g><defs id="defs1"><clipPath clipPathUnits="userSpaceOnUse" id="clipPath1"><path d="M238 56 L260 56 L260 78 L238 78 L238 56 Z" /></clipPath><clipPath clipPathUnits="userSpaceOnUse" id="clipPath2"><path d="M208 67 C208 73.0751 203.0751 78 197 78 C190.9249 78 186 73.0751 186 67 C186 60.9249 190.9249 56 197 56 C203.0751 56 208 60.9249 208 67 Z" /></clipPath><clipPath clipPathUnits="userSpaceOnUse" id="clipPath3"><path d="M156 67 C156 73.0751 151.0751 78 145 78 C138.9249 78 134 73.0751 134 67 C134 60.9249 138.9249 56 145 56 C151.0751 56 156 60.9249 156 67 Z" /></clipPath><clipPath clipPathUnits="userSpaceOnUse" id="clipPath4"><path d="M82 82 L104 82 L104 104 L82 104 L82 82 Z" /></clipPath><clipPath clipPathUnits="userSpaceOnUse" id="clipPath5"><path d="M52 93 C52 99.0751 47.0751 104 41 104 C34.9249 104 30 99.0751 30 93 C30 86.9249 34.9249 82 41 82 C47.0751 82 52 86.9249 52 93 Z" /></clipPath><clipPath clipPathUnits="userSpaceOnUse" id="clipPath6"><path d="M82 30 L104 30 L104 52 L82 52 L82 30 Z" /></clipPath><clipPath clipPathUnits="userSpaceOnUse" id="clipPath7"><path d="M52 41 C52 47.0751 47.0751 52 41 52 C34.9249 52 30 47.0751 30 41 C30 34.9249 34.9249 30 41 30 C47.0751 30 52 34.9249 52 41 Z" /></clipPath></defs><g style="fill:white; text-rendering:optimizeSpeed; stroke:white;"><rect height="134" style="stroke:none;" width="290" x="0" y="0" /></g><g ID="l-1:1,2" style="text-rendering:optimizeSpeed;"><polygon points=" 249 67 197 67" style="fill:none;" /></g><g ID="r-1:1" style="fill:white; text-rendering:optimizeSpeed; stroke:white;" wurcs_mono_id="1"><rect height="22" style="clip-path:url(#clipPath1); stroke:none;" width="22" x="238" y="56" /><rect height="22" style="clip-path:url(#clipPath1); fill:rgb(0,144,188); stroke:none;" width="22" x="238" y="56" /><rect height="22" style="clip-path:url(#clipPath1); fill:none; stroke:black;" width="22" x="238" y="56" /><rect height="22" style="fill:none; stroke:black;" width="22" x="238" y="56" /></g><g ID="l-1:2,3" style="text-rendering:optimizeSpeed;"><polygon points=" 197 67 145 67" style="fill:none;" /></g><g ID="r-1:2" style="fill:white; text-rendering:optimizeSpeed; stroke:white;" wurcs_mono_id="2"><circle cx="197" cy="67" r="11" style="clip-path:url(#clipPath2); stroke:none;" /><rect height="22" style="clip-path:url(#clipPath2); fill:rgb(0,166,81); stroke:none;" width="22" x="186" y="56" /><rect height="22" style="clip-path:url(#clipPath2); fill:none; stroke:black;" width="22" x="186" y="56" /><circle cx="197" cy="67" r="11" style="fill:none; stroke:black;" /></g><g ID="l-1:3,4" style="text-rendering:optimizeSpeed;"><polygon points=" 145 67 93 93" style="fill:none;" /></g><g ID="l-1:3,5" style="text-rendering:optimizeSpeed;"><polygon points=" 145 67 93 41" style="fill:none;" /></g><g ID="r-1:3" style="fill:white; text-rendering:optimizeSpeed; stroke:white;" wurcs_mono_id="3"><circle cx="145" cy="67" r="11" style="clip-path:url(#clipPath3); stroke:none;" /><rect height="22" style="clip-path:url(#clipPath3); fill:rgb(0,166,81); stroke:none;" width="22" x="134" y="56" /><rect height="22" style="clip-path:url(#clipPath3); fill:none; stroke:black;" width="22" x="134" y="56" /><circle cx="145" cy="67" r="11" style="fill:none; stroke:black;" /></g><g ID="l-1:4,6" style="text-rendering:optimizeSpeed;"><polygon points=" 93 93 41 93" style="fill:none;" /></g><g ID="r-1:4" style="fill:white; text-rendering:optimizeSpeed; stroke:white;" wurcs_mono_id="4"><rect height="22" style="clip-path:url(#clipPath4); stroke:none;" width="22" x="82" y="82" /><rect height="22" style="clip-path:url(#clipPath4); fill:rgb(0,144,188); stroke:none;" width="22" x="82" y="82" /><rect height="22" style="clip-path:url(#clipPath4); fill:none; stroke:black;" width="22" x="82" y="82" /><rect height="22" style="fill:none; stroke:black;" width="22" x="82" y="82" /></g><g ID="r-1:6" style="fill:white; text-rendering:optimizeSpeed; stroke:white;" wurcs_mono_id="5"><circle cx="41" cy="93" r="11" style="clip-path:url(#clipPath5); stroke:none;" /><rect height="22" style="clip-path:url(#clipPath5); fill:rgb(255,212,0); stroke:none;" width="22" x="30" y="82" /><rect height="22" style="clip-path:url(#clipPath5); fill:none; stroke:black;" width="22" x="30" y="82" /><circle cx="41" cy="93" r="11" style="fill:none; stroke:black;" /></g><g ID="li-1:4,6" style="fill:white; text-rendering:optimizeSpeed; font-family:'Serif'; stroke:white;"><rect height="9" style="stroke:none;" width="8" x="70" y="96" /><path d="M74.1875 102.0312 L74.1875 97.375 L71.2031 102.0312 L74.1875 102.0312 ZM76.7656 105 L72.7812 105 L72.7812 104.375 L74.1875 104.375 L74.1875 102.6562 L70.375 102.6562 L70.375 102.0156 L74.2031 96.0938 L75.3594 96.0938 L75.3594 102.0312 L77.0312 102.0312 L77.0312 102.6562 L75.3594 102.6562 L75.3594 104.375 L76.7656 104.375 L76.7656 105 Z" style="fill:black; stroke:none;" /><rect height="13" style="stroke:none;" width="7" x="56" y="94" /><path d="M57.8281 106.25 Q58.2969 106.5938 59.1719 106.5938 Q60.0625 106.5938 60.5781 106.0703 Q61.0938 105.5469 61.0938 104.6562 Q61.0938 103.4219 60.5625 102.8906 Q60.0156 102.3594 59 102.3594 L58.4375 102.3594 L58.4375 101.7188 L58.7344 101.7188 Q59.4844 101.7188 60 101.2969 Q60.4219 100.9531 60.4219 100.0156 Q60.4219 99.6094 60.1406 99.1406 Q59.6875 98.375 59.1562 98.3906 Q57.8281 98.4375 57.8281 100.7812 L57.8281 106.25 ZM56.75 109.5 L56.75 100.7812 Q56.75 98.3281 58.0781 98 Q58.7656 97.8125 59.25 97.8125 Q60.3438 97.8125 61.0469 98.6719 Q61.6094 99.3594 61.6094 99.9375 Q61.6094 100.7812 61.2031 101.2656 Q60.7969 101.75 60.0625 101.9844 Q61.1406 102.1406 61.75 102.7812 Q62.3281 103.4062 62.3281 104.6328 Q62.3281 105.8594 61.5078 106.5156 Q60.6875 107.1719 59.1406 107.1719 Q58.1875 107.1719 57.8281 107.0312 L57.8281 109.5 L56.75 109.5 Z" style="fill:black; stroke:none;" /></g><g ID="l-1:5,7" style="text-rendering:optimizeSpeed;"><polygon points=" 93 41 41 41" style="fill:none;" /></g><g ID="r-1:5" style="fill:white; text-rendering:optimizeSpeed; stroke:white;" wurcs_mono_id="6"><rect height="22" style="clip-path:url(#clipPath6); stroke:none;" width="22" x="82" y="30" /><rect height="22" style="clip-path:url(#clipPath6); fill:rgb(0,144,188); stroke:none;" width="22" x="82" y="30" /><rect height="22" style="clip-path:url(#clipPath6); fill:none; stroke:black;" width="22" x="82" y="30" /><rect height="22" style="fill:none; stroke:black;" width="22" x="82" y="30" /></g><g ID="r-1:7" style="fill:white; text-rendering:optimizeSpeed; stroke:white;" wurcs_mono_id="7"><circle cx="41" cy="41" r="11" style="clip-path:url(#clipPath7); stroke:none;" /><rect height="22" style="clip-path:url(#clipPath7); fill:rgb(255,212,0); stroke:none;" width="22" x="30" y="30" /><rect height="22" style="clip-path:url(#clipPath7); fill:none; stroke:black;" width="22" x="30" y="30" /><circle cx="41" cy="41" r="11" style="fill:none; stroke:black;" /></g><g ID="li-1:5,7" style="fill:white; text-rendering:optimizeSpeed; font-family:'Serif'; stroke:white;"><rect height="9" style="stroke:none;" width="8" x="70" y="44" /><path d="M74.1875 50.0312 L74.1875 45.375 L71.2031 50.0312 L74.1875 50.0312 ZM76.7656 53 L72.7812 53 L72.7812 52.375 L74.1875 52.375 L74.1875 50.6562 L70.375 50.6562 L70.375 50.0156 L74.2031 44.0938 L75.3594 44.0938 L75.3594 50.0312 L77.0312 50.0312 L77.0312 50.6562 L75.3594 50.6562 L75.3594 52.375 L76.7656 52.375 L76.7656 53 Z" style="fill:black; stroke:none;" /><rect height="13" style="stroke:none;" width="7" x="56" y="42" /><path d="M57.8281 54.25 Q58.2969 54.5938 59.1719 54.5938 Q60.0625 54.5938 60.5781 54.0703 Q61.0938 53.5469 61.0938 52.6562 Q61.0938 51.4219 60.5625 50.8906 Q60.0156 50.3594 59 50.3594 L58.4375 50.3594 L58.4375 49.7188 L58.7344 49.7188 Q59.4844 49.7188 60 49.2969 Q60.4219 48.9531 60.4219 48.0156 Q60.4219 47.6094 60.1406 47.1406 Q59.6875 46.375 59.1562 46.3906 Q57.8281 46.4375 57.8281 48.7812 L57.8281 54.25 ZM56.75 57.5 L56.75 48.7812 Q56.75 46.3281 58.0781 46 Q58.7656 45.8125 59.25 45.8125 Q60.3438 45.8125 61.0469 46.6719 Q61.6094 47.3594 61.6094 47.9375 Q61.6094 48.7812 61.2031 49.2656 Q60.7969 49.75 60.0625 49.9844 Q61.1406 50.1406 61.75 50.7812 Q62.3281 51.4062 62.3281 52.6328 Q62.3281 53.8594 61.5078 54.5156 Q60.6875 55.1719 59.1406 55.1719 Q58.1875 55.1719 57.8281 55.0312 L57.8281 57.5 L56.75 57.5 Z" style="fill:black; stroke:none;" /></g><g ID="li-1:3,4" style="fill:white; text-rendering:optimizeSpeed; font-family:'Serif'; stroke:white;"><rect height="9" style="stroke:none;" width="7" x="126" y="78" /><path d="M127.5312 80.3438 L126.875 80.3438 L126.875 78.7812 Q127.5 78.4375 128.1406 78.2656 Q128.7812 78.0938 129.3906 78.0938 Q130.75 78.0938 131.5391 78.7578 Q132.3281 79.4219 132.3281 80.5469 Q132.3281 81.8438 130.5469 83.625 Q130.4062 83.7656 130.3281 83.8281 L128.125 86.0312 L131.7656 86.0312 L131.7656 84.9531 L132.4531 84.9531 L132.4531 87 L126.8125 87 L126.8125 86.3594 L129.4688 83.7188 Q130.3438 82.8281 130.7188 82.0938 Q131.0938 81.3594 131.0938 80.5469 Q131.0938 79.6719 130.6328 79.1719 Q130.1719 78.6719 129.375 78.6719 Q128.5312 78.6719 128.0781 79.0859 Q127.625 79.5 127.5312 80.3438 Z" style="fill:black; stroke:none;" /><rect height="13" style="stroke:none;" width="7" x="111" y="84" /><path d="M112.8281 96.25 Q113.2969 96.5938 114.1719 96.5938 Q115.0625 96.5938 115.5781 96.0703 Q116.0938 95.5469 116.0938 94.6562 Q116.0938 93.4219 115.5625 92.8906 Q115.0156 92.3594 114 92.3594 L113.4375 92.3594 L113.4375 91.7188 L113.7344 91.7188 Q114.4844 91.7188 115 91.2969 Q115.4219 90.9531 115.4219 90.0156 Q115.4219 89.6094 115.1406 89.1406 Q114.6875 88.375 114.1562 88.3906 Q112.8281 88.4375 112.8281 90.7812 L112.8281 96.25 ZM111.75 99.5 L111.75 90.7812 Q111.75 88.3281 113.0781 88 Q113.7656 87.8125 114.25 87.8125 Q115.3438 87.8125 116.0469 88.6719 Q116.6094 89.3594 116.6094 89.9375 Q116.6094 90.7812 116.2031 91.2656 Q115.7969 91.75 115.0625 91.9844 Q116.1406 92.1406 116.75 92.7812 Q117.3281 93.4062 117.3281 94.6328 Q117.3281 95.8594 116.5078 96.5156 Q115.6875 97.1719 114.1406 97.1719 Q113.1875 97.1719 112.8281 97.0312 L112.8281 99.5 L111.75 99.5 Z" style="fill:black; stroke:none;" /></g><g ID="li-1:3,5" style="fill:white; text-rendering:optimizeSpeed; font-family:'Serif'; stroke:white;"><rect height="9" style="stroke:none;" width="8" x="119" y="60" /><path d="M123.1875 66.0312 L123.1875 61.375 L120.2031 66.0312 L123.1875 66.0312 ZM125.7656 69 L121.7812 69 L121.7812 68.375 L123.1875 68.375 L123.1875 66.6562 L119.375 66.6562 L119.375 66.0156 L123.2031 60.0938 L124.3594 60.0938 L124.3594 66.0312 L126.0312 66.0312 L126.0312 66.6562 L124.3594 66.6562 L124.3594 68.375 L125.7656 68.375 L125.7656 69 Z" style="fill:black; stroke:none;" /><rect height="13" style="stroke:none;" width="7" x="104" y="50" /><path d="M105.8281 62.25 Q106.2969 62.5938 107.1719 62.5938 Q108.0625 62.5938 108.5781 62.0703 Q109.0938 61.5469 109.0938 60.6562 Q109.0938 59.4219 108.5625 58.8906 Q108.0156 58.3594 107 58.3594 L106.4375 58.3594 L106.4375 57.7188 L106.7344 57.7188 Q107.4844 57.7188 108 57.2969 Q108.4219 56.9531 108.4219 56.0156 Q108.4219 55.6094 108.1406 55.1406 Q107.6875 54.375 107.1562 54.3906 Q105.8281 54.4375 105.8281 56.7812 L105.8281 62.25 ZM104.75 65.5 L104.75 56.7812 Q104.75 54.3281 106.0781 54 Q106.7656 53.8125 107.25 53.8125 Q108.3438 53.8125 109.0469 54.6719 Q109.6094 55.3594 109.6094 55.9375 Q109.6094 56.7812 109.2031 57.2656 Q108.7969 57.75 108.0625 57.9844 Q109.1406 58.1406 109.75 58.7812 Q110.3281 59.4062 110.3281 60.6328 Q110.3281 61.8594 109.5078 62.5156 Q108.6875 63.1719 107.1406 63.1719 Q106.1875 63.1719 105.8281 63.0312 L105.8281 65.5 L104.75 65.5 Z" style="fill:black; stroke:none;" /></g><g ID="li-1:2,3" style="fill:white; text-rendering:optimizeSpeed; font-family:'Serif'; stroke:white;"><rect height="10" style="stroke:none;" width="7" x="174" y="70" /><path d="M175.1719 71.625 Q175.8594 71.3594 176.4844 71.2266 Q177.1094 71.0938 177.6562 71.0938 Q178.9531 71.0938 179.6719 71.6484 Q180.3906 72.2031 180.3906 73.1875 Q180.3906 73.9688 179.8906 74.5 Q179.3906 75.0312 178.4844 75.2188 Q179.5625 75.375 180.1562 76.0078 Q180.75 76.6406 180.75 77.6406 Q180.75 78.8594 179.9219 79.5156 Q179.0938 80.1719 177.5469 80.1719 Q176.8594 80.1719 176.2109 80.0234 Q175.5625 79.875 174.9219 79.5781 L174.9219 77.875 L175.5781 77.875 Q175.625 78.7188 176.1406 79.1562 Q176.6562 79.5938 177.5781 79.5938 Q178.4688 79.5938 178.9922 79.0703 Q179.5156 78.5469 179.5156 77.6562 Q179.5156 76.625 178.9766 76.0938 Q178.4375 75.5625 177.4062 75.5625 L176.8594 75.5625 L176.8594 74.9531 L177.1406 74.9531 Q178.1719 74.9531 178.6875 74.5312 Q179.2031 74.1094 179.2031 73.25 Q179.2031 72.4844 178.7812 72.0781 Q178.3594 71.6719 177.5625 71.6719 Q176.7656 71.6719 176.3359 72.0469 Q175.9062 72.4219 175.8281 73.1562 L175.1719 73.1562 L175.1719 71.625 Z" style="fill:black; stroke:none;" /><rect height="8" style="stroke:none;" width="8" x="160" y="71" /><path d="M165.1875 77.4688 L164.9531 78.1094 Q164.7656 78.625 164.2031 78.9375 Q163.8438 79.1562 163.2031 79.1406 Q162.0469 79.1406 161.3281 78.2344 Q160.5938 77.3281 160.5938 75.8594 Q160.5938 74.4219 161.3281 73.4844 Q162.0156 72.5938 163.4531 72.6094 Q164.4531 72.6094 164.9531 73 Q165.4062 73.3438 165.5781 74.0938 L165.625 74.3125 L165.8438 73.6719 Q166.0625 73.0469 166.6562 72.75 L167.25 72.75 L167.25 73.0938 Q166.6875 73.2656 166.5 73.8125 L165.8906 75.4844 L166.2969 77.2812 Q166.5 78.2031 166.7344 78.2969 Q167.0469 78.4375 167.7812 78 L167.7812 78.7188 Q166.5938 79.4062 165.75 78.6875 Q165.375 78.3594 165.2656 77.875 L165.1875 77.4688 ZM164.9219 76.3125 L164.5625 74.5938 Q164.2656 73.2188 163.4688 73.2188 Q162.7969 73.2031 162.2812 73.9375 Q161.8594 74.5156 161.8594 75.875 Q161.8594 77.1719 162.2812 77.8281 Q162.75 78.5469 163.5312 78.5 Q164.2031 78.4375 164.6875 77 L164.9219 76.3125 Z" style="fill:black; stroke:none;" /></g><g ID="li-1:1,2" style="fill:white; text-rendering:optimizeSpeed; font-family:'Serif'; stroke:white;"><rect height="9" style="stroke:none;" width="8" x="226" y="70" /><path d="M230.1875 76.0312 L230.1875 71.375 L227.2031 76.0312 L230.1875 76.0312 ZM232.7656 79 L228.7812 79 L228.7812 78.375 L230.1875 78.375 L230.1875 76.6562 L226.375 76.6562 L226.375 76.0156 L230.2031 70.0938 L231.3594 70.0938 L231.3594 76.0312 L233.0312 76.0312 L233.0312 76.6562 L231.3594 76.6562 L231.3594 78.375 L232.7656 78.375 L232.7656 79 Z" style="fill:black; stroke:none;" /><rect height="13" style="stroke:none;" width="7" x="212" y="68" /><path d="M213.8281 80.25 Q214.2969 80.5938 215.1719 80.5938 Q216.0625 80.5938 216.5781 80.0703 Q217.0938 79.5469 217.0938 78.6562 Q217.0938 77.4219 216.5625 76.8906 Q216.0156 76.3594 215 76.3594 L214.4375 76.3594 L214.4375 75.7188 L214.7344 75.7188 Q215.4844 75.7188 216 75.2969 Q216.4219 74.9531 216.4219 74.0156 Q216.4219 73.6094 216.1406 73.1406 Q215.6875 72.375 215.1562 72.3906 Q213.8281 72.4375 213.8281 74.7812 L213.8281 80.25 ZM212.75 83.5 L212.75 74.7812 Q212.75 72.3281 214.0781 72 Q214.7656 71.8125 215.25 71.8125 Q216.3438 71.8125 217.0469 72.6719 Q217.6094 73.3594 217.6094 73.9375 Q217.6094 74.7812 217.2031 75.2656 Q216.7969 75.75 216.0625 75.9844 Q217.1406 76.1406 217.75 76.7812 Q218.3281 77.4062 218.3281 78.6328 Q218.3281 79.8594 217.5078 80.5156 Q216.6875 81.1719 215.1406 81.1719 Q214.1875 81.1719 213.8281 81.0312 L213.8281 83.5 L212.75 83.5 Z" style="fill:black; stroke:none;" /></g></g></svg>