<svg xmlns="http://www.w3.org/2000/svg" style="fill-opacity:1; color-rendering:auto; color-interpolation:auto; text-rendering:auto; stroke:black; stroke-linecap:square; stroke-miterlimit:10; shape-rendering:auto; stroke-opacity:1; fill:black; stroke-dasharray:none; font-weight:normal; stroke-width:1; font-family:'Dialog'; font-style:normal; stroke-linejoin:miter; font-size:12px; stroke-dashoffset:0; image-rendering:auto;"><defs id="genericDefs" /><g><defs id="defs1"><clipPath clipPathUnits="userSpaceOnUse" id="clipPath1"><path d="M208 132 C208 138.0751 203.0751 143 197 143 C190.9249 143 186 138.0751 186 132 C186 125.9249 190.9249 121 197 121 C203.0751 121 208 125.9249 208 132 Z" /></clipPath><clipPath clipPathUnits="userSpaceOnUse" id="clipPath2"><path d="M156 132 C156 138.0751 151.0751 143 145 143 C138.9249 143 134 138.0751 134 132 C134 125.9249 138.9249 121 145 121 C151.0751 121 156 125.9249 156 132 Z" /></clipPath><clipPath clipPathUnits="userSpaceOnUse" id="clipPath3"><path d="M82 186 L104 186 L104 208 L82 208 L82 186 Z" /></clipPath><clipPath clipPathUnits="userSpaceOnUse" id="clipPath4"><path d="M52 197 C52 203.0751 47.0751 208 41 208 C34.9249 208 30 203.0751 30 197 C30 190.9249 34.9249 186 41 186 C47.0751 186 52 190.9249 52 197 Z" /></clipPath><clipPath clipPathUnits="userSpaceOnUse" id="clipPath5"><path d="M41 238 L52 260 L30 260 Z" style="fill-rule:evenodd;" /></clipPath><clipPath clipPathUnits="userSpaceOnUse" id="clipPath6"><path d="M82 56 L104 56 L104 78 L82 78 L82 56 Z" /></clipPath><clipPath clipPathUnits="userSpaceOnUse" id="clipPath7"><path d="M52 93 C52 99.0751 47.0751 104 41 104 C34.9249 104 30 99.0751 30 93 C30 86.9249 34.9249 82 41 82 C47.0751 82 52 86.9249 52 93 Z" /></clipPath><clipPath clipPathUnits="userSpaceOnUse" id="clipPath8"><path d="M41 134 L52 156 L30 156 Z" style="fill-rule:evenodd;" /></clipPath><clipPath clipPathUnits="userSpaceOnUse" id="clipPath9"><path d="M41 30 L52 41 L41 52 L30 41 Z" style="fill-rule:evenodd;" /></clipPath></defs><g style="fill:white; text-rendering:optimizeSpeed; stroke:white;"><rect height="290" style="stroke:none;" width="238" x="0" y="0" /></g><g ID="l-1:1,2" style="text-rendering:optimizeSpeed;"><polygon points=" 197 132 145 132" style="fill:none;" /></g><g ID="r-1:1" style="fill:white; text-rendering:optimizeSpeed; stroke:white;" wurcs_mono_id="1"><circle cx="197" cy="132" r="11" style="clip-path:url(#clipPath1); stroke:none;" /><rect height="22" style="clip-path:url(#clipPath1); fill:rgb(0,144,188); stroke:none;" width="22" x="186" y="121" /><rect height="22" style="clip-path:url(#clipPath1); fill:none; stroke:black;" width="22" x="186" y="121" /><circle cx="197" cy="132" r="11" style="fill:none; stroke:black;" /></g><g ID="l-1:2,3" style="text-rendering:optimizeSpeed;"><polygon points=" 145 132 93 197" style="fill:none;" /></g><g ID="l-1:2,4" style="text-rendering:optimizeSpeed;"><polygon points=" 145 132 93 67" style="fill:none;" /></g><g ID="r-1:2" style="fill:white; text-rendering:optimizeSpeed; stroke:white;" wurcs_mono_id="2"><circle cx="145" cy="132" r="11" style="clip-path:url(#clipPath2); stroke:none;" /><rect height="22" style="clip-path:url(#clipPath2); fill:rgb(255,212,0); stroke:none;" width="22" x="134" y="121" /><rect height="22" style="clip-path:url(#clipPath2); fill:none; stroke:black;" width="22" x="134" y="121" /><circle cx="145" cy="132" r="11" style="fill:none; stroke:black;" /></g><g ID="l-1:3,5" style="text-rendering:optimizeSpeed;"><polygon points=" 93 197 41 197" style="fill:none;" /></g><g ID="r-1:3" style="fill:white; text-rendering:optimizeSpeed; stroke:white;" wurcs_mono_id="3"><rect height="22" style="clip-path:url(#clipPath3); stroke:none;" width="22" x="82" y="186" /><rect height="22" style="clip-path:url(#clipPath3); fill:rgb(0,144,188); stroke:none;" width="22" x="82" y="186" /><rect height="22" style="clip-path:url(#clipPath3); fill:none; stroke:black;" width="22" x="82" y="186" /><rect height="22" style="fill:none; stroke:black;" width="22" x="82" y="186" /></g><g ID="l-1:5,6" style="text-rendering:optimizeSpeed;"><polygon points=" 41 197 41 249" style="fill:none;" /></g><g ID="r-1:5" style="fill:white; text-rendering:optimizeSpeed; stroke:white;" wurcs_mono_id="4"><circle cx="41" cy="197" r="11" style="clip-path:url(#clipPath4); stroke:none;" /><rect height="22" style="clip-path:url(#clipPath4); fill:rgb(255,212,0); stroke:none;" width="22" x="30" y="186" /><rect height="22" style="clip-path:url(#clipPath4); fill:none; stroke:black;" width="22" x="30" y="186" /><circle cx="41" cy="197" r="11" style="fill:none; stroke:black;" /></g><g ID="r-1:6" style="fill:white; text-rendering:optimizeSpeed; stroke:white;" wurcs_mono_id="5"><polygon points=" 41 238 52 260 30 260" style="stroke:none; clip-path:url(#clipPath5);" /><rect height="22" style="clip-path:url(#clipPath5); fill:rgb(237,28,36); stroke:none;" width="22" x="30" y="238" /><rect height="22" style="clip-path:url(#clipPath5); fill:none; stroke:black;" width="22" x="30" y="238" /><polygon points=" 41 238 52 260 30 260" style="fill:none; stroke:black;" /></g><g ID="li-1:5,6" style="fill:white; text-rendering:optimizeSpeed; font-family:'Serif'; stroke:white;"><rect height="9" style="stroke:none;" width="7" x="45" y="211" /><path d="M46.5312 213.3438 L45.875 213.3438 L45.875 211.7812 Q46.5 211.4375 47.1406 211.2656 Q47.7812 211.0938 48.3906 211.0938 Q49.75 211.0938 50.5391 211.7578 Q51.3281 212.4219 51.3281 213.5469 Q51.3281 214.8438 49.5469 216.625 Q49.4062 216.7656 49.3281 216.8281 L47.125 219.0312 L50.7656 219.0312 L50.7656 217.9531 L51.4531 217.9531 L51.4531 220 L45.8125 220 L45.8125 219.3594 L48.4688 216.7188 Q49.3438 215.8281 49.7188 215.0938 Q50.0938 214.3594 50.0938 213.5469 Q50.0938 212.6719 49.6328 212.1719 Q49.1719 211.6719 48.375 211.6719 Q47.5312 211.6719 47.0781 212.0859 Q46.625 212.5 46.5312 213.3438 Z" style="fill:black; stroke:none;" /><rect height="8" style="stroke:none;" width="8" x="45" y="226" /><path d="M50.1875 232.4688 L49.9531 233.1094 Q49.7656 233.625 49.2031 233.9375 Q48.8438 234.1562 48.2031 234.1406 Q47.0469 234.1406 46.3281 233.2344 Q45.5938 232.3281 45.5938 230.8594 Q45.5938 229.4219 46.3281 228.4844 Q47.0156 227.5938 48.4531 227.6094 Q49.4531 227.6094 49.9531 228 Q50.4062 228.3438 50.5781 229.0938 L50.625 229.3125 L50.8438 228.6719 Q51.0625 228.0469 51.6562 227.75 L52.25 227.75 L52.25 228.0938 Q51.6875 228.2656 51.5 228.8125 L50.8906 230.4844 L51.2969 232.2812 Q51.5 233.2031 51.7344 233.2969 Q52.0469 233.4375 52.7812 233 L52.7812 233.7188 Q51.5938 234.4062 50.75 233.6875 Q50.375 233.3594 50.2656 232.875 L50.1875 232.4688 ZM49.9219 231.3125 L49.5625 229.5938 Q49.2656 228.2188 48.4688 228.2188 Q47.7969 228.2031 47.2812 228.9375 Q46.8594 229.5156 46.8594 230.875 Q46.8594 232.1719 47.2812 232.8281 Q47.75 233.5469 48.5312 233.5 Q49.2031 233.4375 49.6875 232 L49.9219 231.3125 Z" style="fill:black; stroke:none;" /></g><g ID="li-1:3,5" style="fill:white; text-rendering:optimizeSpeed; font-family:'Serif'; stroke:white;"><rect height="9" style="stroke:none;" width="8" x="70" y="200" /><path d="M74.1875 206.0312 L74.1875 201.375 L71.2031 206.0312 L74.1875 206.0312 ZM76.7656 209 L72.7812 209 L72.7812 208.375 L74.1875 208.375 L74.1875 206.6562 L70.375 206.6562 L70.375 206.0156 L74.2031 200.0938 L75.3594 200.0938 L75.3594 206.0312 L77.0312 206.0312 L77.0312 206.6562 L75.3594 206.6562 L75.3594 208.375 L76.7656 208.375 L76.7656 209 Z" style="fill:black; stroke:none;" /><rect height="13" style="stroke:none;" width="7" x="56" y="198" /><path d="M57.8281 210.25 Q58.2969 210.5938 59.1719 210.5938 Q60.0625 210.5938 60.5781 210.0703 Q61.0938 209.5469 61.0938 208.6562 Q61.0938 207.4219 60.5625 206.8906 Q60.0156 206.3594 59 206.3594 L58.4375 206.3594 L58.4375 205.7188 L58.7344 205.7188 Q59.4844 205.7188 60 205.2969 Q60.4219 204.9531 60.4219 204.0156 Q60.4219 203.6094 60.1406 203.1406 Q59.6875 202.375 59.1562 202.3906 Q57.8281 202.4375 57.8281 204.7812 L57.8281 210.25 ZM56.75 213.5 L56.75 204.7812 Q56.75 202.3281 58.0781 202 Q58.7656 201.8125 59.25 201.8125 Q60.3438 201.8125 61.0469 202.6719 Q61.6094 203.3594 61.6094 203.9375 Q61.6094 204.7812 61.2031 205.2656 Q60.7969 205.75 60.0625 205.9844 Q61.1406 206.1406 61.75 206.7812 Q62.3281 207.4062 62.3281 208.6328 Q62.3281 209.8594 61.5078 210.5156 Q60.6875 211.1719 59.1406 211.1719 Q58.1875 211.1719 57.8281 211.0312 L57.8281 213.5 L56.75 213.5 Z" style="fill:black; stroke:none;" /></g><g ID="l-1:4,7" style="text-rendering:optimizeSpeed;"><polygon points=" 93 67 41 93" style="fill:none;" /></g><g ID="l-1:4,8" style="text-rendering:optimizeSpeed;"><polygon points=" 93 67 41 41" style="fill:none;" /></g><g ID="r-1:4" style="fill:white; text-rendering:optimizeSpeed; stroke:white;" wurcs_mono_id="6"><rect height="22" style="clip-path:url(#clipPath6); stroke:none;" width="22" x="82" y="56" /><rect height="22" style="clip-path:url(#clipPath6); fill:rgb(0,144,188); stroke:none;" width="22" x="82" y="56" /><rect height="22" style="clip-path:url(#clipPath6); fill:none; stroke:black;" width="22" x="82" y="56" /><rect height="22" style="fill:none; stroke:black;" width="22" x="82" y="56" /></g><g ID="l-1:7,9" style="text-rendering:optimizeSpeed;"><polygon points=" 41 93 41 145" style="fill:none;" /></g><g ID="r-1:7" style="fill:white; text-rendering:optimizeSpeed; stroke:white;" wurcs_mono_id="7"><circle cx="41" cy="93" r="11" style="clip-path:url(#clipPath7); stroke:none;" /><rect height="22" style="clip-path:url(#clipPath7); fill:rgb(255,212,0); stroke:none;" width="22" x="30" y="82" /><rect height="22" style="clip-path:url(#clipPath7); fill:none; stroke:black;" width="22" x="30" y="82" /><circle cx="41" cy="93" r="11" style="fill:none; stroke:black;" /></g><g ID="r-1:9" style="fill:white; text-rendering:optimizeSpeed; stroke:white;" wurcs_mono_id="8"><polygon points=" 41 134 52 156 30 156" style="stroke:none; clip-path:url(#clipPath8);" /><rect height="22" style="clip-path:url(#clipPath8); fill:rgb(237,28,36); stroke:none;" width="22" x="30" y="134" /><rect height="22" style="clip-path:url(#clipPath8); fill:none; stroke:black;" width="22" x="30" y="134" /><polygon points=" 41 134 52 156 30 156" style="fill:none; stroke:black;" /></g><g ID="li-1:7,9" style="fill:white; text-rendering:optimizeSpeed; font-family:'Serif'; stroke:white;"><rect height="9" style="stroke:none;" width="7" x="45" y="107" /><path d="M46.5312 109.3438 L45.875 109.3438 L45.875 107.7812 Q46.5 107.4375 47.1406 107.2656 Q47.7812 107.0938 48.3906 107.0938 Q49.75 107.0938 50.5391 107.7578 Q51.3281 108.4219 51.3281 109.5469 Q51.3281 110.8438 49.5469 112.625 Q49.4062 112.7656 49.3281 112.8281 L47.125 115.0312 L50.7656 115.0312 L50.7656 113.9531 L51.4531 113.9531 L51.4531 116 L45.8125 116 L45.8125 115.3594 L48.4688 112.7188 Q49.3438 111.8281 49.7188 111.0938 Q50.0938 110.3594 50.0938 109.5469 Q50.0938 108.6719 49.6328 108.1719 Q49.1719 107.6719 48.375 107.6719 Q47.5312 107.6719 47.0781 108.0859 Q46.625 108.5 46.5312 109.3438 Z" style="fill:black; stroke:none;" /><rect height="8" style="stroke:none;" width="8" x="45" y="122" /><path d="M50.1875 128.4688 L49.9531 129.1094 Q49.7656 129.625 49.2031 129.9375 Q48.8438 130.1562 48.2031 130.1406 Q47.0469 130.1406 46.3281 129.2344 Q45.5938 128.3281 45.5938 126.8594 Q45.5938 125.4219 46.3281 124.4844 Q47.0156 123.5938 48.4531 123.6094 Q49.4531 123.6094 49.9531 124 Q50.4062 124.3438 50.5781 125.0938 L50.625 125.3125 L50.8438 124.6719 Q51.0625 124.0469 51.6562 123.75 L52.25 123.75 L52.25 124.0938 Q51.6875 124.2656 51.5 124.8125 L50.8906 126.4844 L51.2969 128.2812 Q51.5 129.2031 51.7344 129.2969 Q52.0469 129.4375 52.7812 129 L52.7812 129.7188 Q51.5938 130.4062 50.75 129.6875 Q50.375 129.3594 50.2656 128.875 L50.1875 128.4688 ZM49.9219 127.3125 L49.5625 125.5938 Q49.2656 124.2188 48.4688 124.2188 Q47.7969 124.2031 47.2812 124.9375 Q46.8594 125.5156 46.8594 126.875 Q46.8594 128.1719 47.2812 128.8281 Q47.75 129.5469 48.5312 129.5 Q49.2031 129.4375 49.6875 128 L49.9219 127.3125 Z" style="fill:black; stroke:none;" /></g><g ID="r-1:8" style="fill:white; text-rendering:optimizeSpeed; stroke:white;" wurcs_mono_id="9"><polygon points=" 41 30 52 41 41 52 30 41" style="stroke:none; clip-path:url(#clipPath9);" /><rect height="22" style="clip-path:url(#clipPath9); fill:rgb(165,67,153); stroke:none;" width="22" x="30" y="30" /><rect height="22" style="clip-path:url(#clipPath9); fill:none; stroke:black;" width="22" x="30" y="30" /><polygon points=" 41 30 52 41 41 52 30 41" style="fill:none; stroke:black;" /></g><g ID="li-1:4,7" style="fill:white; text-rendering:optimizeSpeed; font-family:'Serif'; stroke:white;"><rect height="9" style="stroke:none;" width="8" x="74" y="78" /><path d="M78.1875 84.0312 L78.1875 79.375 L75.2031 84.0312 L78.1875 84.0312 ZM80.7656 87 L76.7812 87 L76.7812 86.375 L78.1875 86.375 L78.1875 84.6562 L74.375 84.6562 L74.375 84.0156 L78.2031 78.0938 L79.3594 78.0938 L79.3594 84.0312 L81.0312 84.0312 L81.0312 84.6562 L79.3594 84.6562 L79.3594 86.375 L80.7656 86.375 L80.7656 87 Z" style="fill:black; stroke:none;" /><rect height="13" style="stroke:none;" width="7" x="59" y="84" /><path d="M60.8281 96.25 Q61.2969 96.5938 62.1719 96.5938 Q63.0625 96.5938 63.5781 96.0703 Q64.0938 95.5469 64.0938 94.6562 Q64.0938 93.4219 63.5625 92.8906 Q63.0156 92.3594 62 92.3594 L61.4375 92.3594 L61.4375 91.7188 L61.7344 91.7188 Q62.4844 91.7188 63 91.2969 Q63.4219 90.9531 63.4219 90.0156 Q63.4219 89.6094 63.1406 89.1406 Q62.6875 88.375 62.1562 88.3906 Q60.8281 88.4375 60.8281 90.7812 L60.8281 96.25 ZM59.75 99.5 L59.75 90.7812 Q59.75 88.3281 61.0781 88 Q61.7656 87.8125 62.25 87.8125 Q63.3438 87.8125 64.0469 88.6719 Q64.6094 89.3594 64.6094 89.9375 Q64.6094 90.7812 64.2031 91.2656 Q63.7969 91.75 63.0625 91.9844 Q64.1406 92.1406 64.75 92.7812 Q65.3281 93.4062 65.3281 94.6328 Q65.3281 95.8594 64.5078 96.5156 Q63.6875 97.1719 62.1406 97.1719 Q61.1875 97.1719 60.8281 97.0312 L60.8281 99.5 L59.75 99.5 Z" style="fill:black; stroke:none;" /></g><g ID="li-1:4,8" style="fill:white; text-rendering:optimizeSpeed; font-family:'Serif'; stroke:white;"><rect height="10" style="stroke:none;" width="7" x="67" y="60" /><path d="M70.9219 69.5938 Q71.75 69.5938 72.1953 68.9844 Q72.6406 68.375 72.6406 67.2344 Q72.6406 66.1094 72.1953 65.5 Q71.75 64.8906 70.9219 64.8906 Q70.0938 64.8906 69.6484 65.4766 Q69.2031 66.0625 69.2031 67.1719 Q69.2031 68.3281 69.6484 68.9609 Q70.0938 69.5938 70.9219 69.5938 ZM69.0156 65.1875 Q69.4219 64.75 69.9219 64.5312 Q70.4219 64.3125 71.0625 64.3125 Q72.3594 64.3125 73.1172 65.0938 Q73.875 65.875 73.875 67.2344 Q73.875 68.5625 73.0625 69.3672 Q72.25 70.1719 70.875 70.1719 Q69.3906 70.1719 68.5938 69.0625 Q67.7969 67.9531 67.7969 65.9062 Q67.7969 63.6094 68.7422 62.3516 Q69.6875 61.0938 71.4062 61.0938 Q71.875 61.0938 72.3828 61.1797 Q72.8906 61.2656 73.4219 61.4375 L73.4219 62.8906 L72.7656 62.8906 Q72.6875 62.2969 72.3047 61.9844 Q71.9219 61.6719 71.2812 61.6719 Q70.1406 61.6719 69.5859 62.5312 Q69.0312 63.3906 69.0156 65.1875 Z" style="fill:black; stroke:none;" /><rect height="8" style="stroke:none;" width="8" x="51" y="53" /><path d="M56.1875 59.4688 L55.9531 60.1094 Q55.7656 60.625 55.2031 60.9375 Q54.8438 61.1562 54.2031 61.1406 Q53.0469 61.1406 52.3281 60.2344 Q51.5938 59.3281 51.5938 57.8594 Q51.5938 56.4219 52.3281 55.4844 Q53.0156 54.5938 54.4531 54.6094 Q55.4531 54.6094 55.9531 55 Q56.4062 55.3438 56.5781 56.0938 L56.625 56.3125 L56.8438 55.6719 Q57.0625 55.0469 57.6562 54.75 L58.25 54.75 L58.25 55.0938 Q57.6875 55.2656 57.5 55.8125 L56.8906 57.4844 L57.2969 59.2812 Q57.5 60.2031 57.7344 60.2969 Q58.0469 60.4375 58.7812 60 L58.7812 60.7188 Q57.5938 61.4062 56.75 60.6875 Q56.375 60.3594 56.2656 59.875 L56.1875 59.4688 ZM55.9219 58.3125 L55.5625 56.5938 Q55.2656 55.2188 54.4688 55.2188 Q53.7969 55.2031 53.2812 55.9375 Q52.8594 56.5156 52.8594 57.875 Q52.8594 59.1719 53.2812 59.8281 Q53.75 60.5469 54.5312 60.5 Q55.2031 60.4375 55.6875 59 L55.9219 58.3125 Z" style="fill:black; stroke:none;" /></g><g ID="li-1:2,3" style="fill:white; text-rendering:optimizeSpeed; font-family:'Serif'; stroke:white;"><rect height="10" style="stroke:none;" width="7" x="133" y="149" /><path d="M134.1719 150.625 Q134.8594 150.3594 135.4844 150.2266 Q136.1094 150.0938 136.6562 150.0938 Q137.9531 150.0938 138.6719 150.6484 Q139.3906 151.2031 139.3906 152.1875 Q139.3906 152.9688 138.8906 153.5 Q138.3906 154.0312 137.4844 154.2188 Q138.5625 154.375 139.1562 155.0078 Q139.75 155.6406 139.75 156.6406 Q139.75 157.8594 138.9219 158.5156 Q138.0938 159.1719 136.5469 159.1719 Q135.8594 159.1719 135.2109 159.0234 Q134.5625 158.875 133.9219 158.5781 L133.9219 156.875 L134.5781 156.875 Q134.625 157.7188 135.1406 158.1562 Q135.6562 158.5938 136.5781 158.5938 Q137.4688 158.5938 137.9922 158.0703 Q138.5156 157.5469 138.5156 156.6562 Q138.5156 155.625 137.9766 155.0938 Q137.4375 154.5625 136.4062 154.5625 L135.8594 154.5625 L135.8594 153.9531 L136.1406 153.9531 Q137.1719 153.9531 137.6875 153.5312 Q138.2031 153.1094 138.2031 152.25 Q138.2031 151.4844 137.7812 151.0781 Q137.3594 150.6719 136.5625 150.6719 Q135.7656 150.6719 135.3359 151.0469 Q134.9062 151.4219 134.8281 152.1562 L134.1719 152.1562 L134.1719 150.625 Z" style="fill:black; stroke:none;" /><rect height="13" style="stroke:none;" width="7" x="109" y="178" /><path d="M110.8281 190.25 Q111.2969 190.5938 112.1719 190.5938 Q113.0625 190.5938 113.5781 190.0703 Q114.0938 189.5469 114.0938 188.6562 Q114.0938 187.4219 113.5625 186.8906 Q113.0156 186.3594 112 186.3594 L111.4375 186.3594 L111.4375 185.7188 L111.7344 185.7188 Q112.4844 185.7188 113 185.2969 Q113.4219 184.9531 113.4219 184.0156 Q113.4219 183.6094 113.1406 183.1406 Q112.6875 182.375 112.1562 182.3906 Q110.8281 182.4375 110.8281 184.7812 L110.8281 190.25 ZM109.75 193.5 L109.75 184.7812 Q109.75 182.3281 111.0781 182 Q111.7656 181.8125 112.25 181.8125 Q113.3438 181.8125 114.0469 182.6719 Q114.6094 183.3594 114.6094 183.9375 Q114.6094 184.7812 114.2031 185.2656 Q113.7969 185.75 113.0625 185.9844 Q114.1406 186.1406 114.75 186.7812 Q115.3281 187.4062 115.3281 188.6328 Q115.3281 189.8594 114.5078 190.5156 Q113.6875 191.1719 112.1406 191.1719 Q111.1875 191.1719 110.8281 191.0312 L110.8281 193.5 L109.75 193.5 Z" style="fill:black; stroke:none;" /></g><g ID="li-1:2,4" style="fill:white; text-rendering:optimizeSpeed; font-family:'Serif'; stroke:white;"><rect height="10" style="stroke:none;" width="7" x="121" y="114" /><path d="M124.9219 123.5938 Q125.75 123.5938 126.1953 122.9844 Q126.6406 122.375 126.6406 121.2344 Q126.6406 120.1094 126.1953 119.5 Q125.75 118.8906 124.9219 118.8906 Q124.0938 118.8906 123.6484 119.4766 Q123.2031 120.0625 123.2031 121.1719 Q123.2031 122.3281 123.6484 122.9609 Q124.0938 123.5938 124.9219 123.5938 ZM123.0156 119.1875 Q123.4219 118.75 123.9219 118.5312 Q124.4219 118.3125 125.0625 118.3125 Q126.3594 118.3125 127.1172 119.0938 Q127.875 119.875 127.875 121.2344 Q127.875 122.5625 127.0625 123.3672 Q126.25 124.1719 124.875 124.1719 Q123.3906 124.1719 122.5938 123.0625 Q121.7969 121.9531 121.7969 119.9062 Q121.7969 117.6094 122.7422 116.3516 Q123.6875 115.0938 125.4062 115.0938 Q125.875 115.0938 126.3828 115.1797 Q126.8906 115.2656 127.4219 115.4375 L127.4219 116.8906 L126.7656 116.8906 Q126.6875 116.2969 126.3047 115.9844 Q125.9219 115.6719 125.2812 115.6719 Q124.1406 115.6719 123.5859 116.5312 Q123.0312 117.3906 123.0156 119.1875 Z" style="fill:black; stroke:none;" /><rect height="13" style="stroke:none;" width="7" x="97" y="82" /><path d="M98.8281 94.25 Q99.2969 94.5938 100.1719 94.5938 Q101.0625 94.5938 101.5781 94.0703 Q102.0938 93.5469 102.0938 92.6562 Q102.0938 91.4219 101.5625 90.8906 Q101.0156 90.3594 100 90.3594 L99.4375 90.3594 L99.4375 89.7188 L99.7344 89.7188 Q100.4844 89.7188 101 89.2969 Q101.4219 88.9531 101.4219 88.0156 Q101.4219 87.6094 101.1406 87.1406 Q100.6875 86.375 100.1562 86.3906 Q98.8281 86.4375 98.8281 88.7812 L98.8281 94.25 ZM97.75 97.5 L97.75 88.7812 Q97.75 86.3281 99.0781 86 Q99.7656 85.8125 100.25 85.8125 Q101.3438 85.8125 102.0469 86.6719 Q102.6094 87.3594 102.6094 87.9375 Q102.6094 88.7812 102.2031 89.2656 Q101.7969 89.75 101.0625 89.9844 Q102.1406 90.1406 102.75 90.7812 Q103.3281 91.4062 103.3281 92.6328 Q103.3281 93.8594 102.5078 94.5156 Q101.6875 95.1719 100.1406 95.1719 Q99.1875 95.1719 98.8281 95.0312 L98.8281 97.5 L97.75 97.5 Z" style="fill:black; stroke:none;" /></g><g ID="li-1:1,2" style="fill:white; text-rendering:optimizeSpeed; font-family:'Serif'; stroke:white;"><rect height="9" style="stroke:none;" width="8" x="174" y="135" /><path d="M178.1875 141.0312 L178.1875 136.375 L175.2031 141.0312 L178.1875 141.0312 ZM180.7656 144 L176.7812 144 L176.7812 143.375 L178.1875 143.375 L178.1875 141.6562 L174.375 141.6562 L174.375 141.0156 L178.2031 135.0938 L179.3594 135.0938 L179.3594 141.0312 L181.0312 141.0312 L181.0312 141.6562 L179.3594 141.6562 L179.3594 143.375 L180.7656 143.375 L180.7656 144 Z" style="fill:black; stroke:none;" /><rect height="13" style="stroke:none;" width="7" x="160" y="133" /><path d="M161.8281 145.25 Q162.2969 145.5938 163.1719 145.5938 Q164.0625 145.5938 164.5781 145.0703 Q165.0938 144.5469 165.0938 143.6562 Q165.0938 142.4219 164.5625 141.8906 Q164.0156 141.3594 163 141.3594 L162.4375 141.3594 L162.4375 140.7188 L162.7344 140.7188 Q163.4844 140.7188 164 140.2969 Q164.4219 139.9531 164.4219 139.0156 Q164.4219 138.6094 164.1406 138.1406 Q163.6875 137.375 163.1562 137.3906 Q161.8281 137.4375 161.8281 139.7812 L161.8281 145.25 ZM160.75 148.5 L160.75 139.7812 Q160.75 137.3281 162.0781 137 Q162.7656 136.8125 163.25 136.8125 Q164.3438 136.8125 165.0469 137.6719 Q165.6094 138.3594 165.6094 138.9375 Q165.6094 139.7812 165.2031 140.2656 Q164.7969 140.75 164.0625 140.9844 Q165.1406 141.1406 165.75 141.7812 Q166.3281 142.4062 166.3281 143.6328 Q166.3281 144.8594 165.5078 145.5156 Q164.6875 146.1719 163.1406 146.1719 Q162.1875 146.1719 161.8281 146.0312 L161.8281 148.5 L160.75 148.5 Z" style="fill:black; stroke:none;" /></g></g></svg>