<svg xmlns="http://www.w3.org/2000/svg" style="fill-opacity:1; color-rendering:auto; color-interpolation:auto; text-rendering:auto; stroke:black; stroke-linecap:square; stroke-miterlimit:10; shape-rendering:auto; stroke-opacity:1; fill:black; stroke-dasharray:none; font-weight:normal; stroke-width:1; font-family:'Dialog'; font-style:normal; stroke-linejoin:miter; font-size:12px; stroke-dashoffset:0; image-rendering:auto;"><defs id="genericDefs" /><g><defs id="defs1"><clipPath clipPathUnits="userSpaceOnUse" id="clipPath1"><path d="M104 93 C104 99.0751 99.0751 104 93 104 C86.9249 104 82 99.0751 82 93 C82 86.9249 86.9249 82 93 82 C99.0751 82 104 86.9249 104 93 Z" /></clipPath><clipPath clipPathUnits="userSpaceOnUse" id="clipPath2"><path d="M52 93 C52 99.0751 47.0751 104 41 104 C34.9249 104 30 99.0751 30 93 C30 86.9249 34.9249 82 41 82 C47.0751 82 52 86.9249 52 93 Z" /></clipPath><clipPath clipPathUnits="userSpaceOnUse" id="clipPath3"><path d="M41 52 L30 30 L52 30 Z" style="fill-rule:evenodd;" /></clipPath></defs><g style="fill:white; text-rendering:optimizeSpeed; stroke:white;"><rect height="134" style="stroke:none;" width="134" x="0" y="0" /></g><g ID="l-1:1,2" style="text-rendering:optimizeSpeed;"><polygon points=" 93 93 41 93" style="fill:none;" /></g><g ID="r-1:1" style="fill:white; text-rendering:optimizeSpeed; stroke:white;" wurcs_mono_id="1"><circle cx="93" cy="93" r="11" style="clip-path:url(#clipPath1); stroke:none;" /><rect height="22" style="clip-path:url(#clipPath1); fill:rgb(0,144,188); stroke:none;" width="22" x="82" y="82" /><rect height="22" style="clip-path:url(#clipPath1); fill:none; stroke:black;" width="22" x="82" y="82" /><circle cx="93" cy="93" r="11" style="fill:none; stroke:black;" /></g><g ID="l-1:2,3" style="text-rendering:optimizeSpeed;"><polygon points=" 41 93 41 41" style="fill:none;" /></g><g ID="r-1:2" style="fill:white; text-rendering:optimizeSpeed; stroke:white;" wurcs_mono_id="2"><circle cx="41" cy="93" r="11" style="clip-path:url(#clipPath2); stroke:none;" /><rect height="22" style="clip-path:url(#clipPath2); fill:rgb(255,212,0); stroke:none;" width="22" x="30" y="82" /><rect height="22" style="clip-path:url(#clipPath2); fill:none; stroke:black;" width="22" x="30" y="82" /><circle cx="41" cy="93" r="11" style="fill:none; stroke:black;" /></g><g ID="r-1:3" style="fill:white; text-rendering:optimizeSpeed; stroke:white;" wurcs_mono_id="3"><polygon points=" 41 52 30 30 52 30" style="stroke:none; clip-path:url(#clipPath3);" /><rect height="22" style="clip-path:url(#clipPath3); fill:rgb(237,28,36); stroke:none;" width="22" x="30" y="30" /><rect height="22" style="clip-path:url(#clipPath3); fill:none; stroke:black;" width="22" x="30" y="30" /><polygon points=" 41 52 30 30 52 30" style="fill:none; stroke:black;" /></g><g ID="li-1:2,3" style="fill:white; text-rendering:optimizeSpeed; font-family:'Serif'; stroke:white;"><rect height="10" style="stroke:none;" width="6" x="30" y="69" /><path d="M32.1094 78.3906 Q32.1094 78.0625 32.3359 77.8359 Q32.5625 77.6094 32.8906 77.6094 Q33.2188 77.6094 33.4453 77.8359 Q33.6719 78.0625 33.6719 78.3906 Q33.6719 78.7188 33.4453 78.9453 Q33.2188 79.1719 32.8906 79.1719 Q32.5625 79.1719 32.3359 78.9453 Q32.1094 78.7188 32.1094 78.3906 ZM30.8125 70.6406 Q31.4375 70.3594 32 70.2266 Q32.5625 70.0938 33.0469 70.0938 Q34.3438 70.0938 35.1016 70.7188 Q35.8594 71.3438 35.8594 72.4062 Q35.8594 73.5 35.2109 74.1953 Q34.5625 74.8906 33.25 75.1875 L33.25 76.6719 L32.5312 76.6719 L32.5312 74.75 Q33.5625 74.5 34.0938 73.9062 Q34.625 73.3125 34.625 72.4062 Q34.625 71.5938 34.1953 71.1328 Q33.7656 70.6719 33.0312 70.6719 Q32.3594 70.6719 31.9297 71.0547 Q31.5 71.4375 31.3906 72.1562 L30.8125 72.1562 L30.8125 70.6406 Z" style="fill:black; stroke:none;" /><rect height="10" style="stroke:none;" width="6" x="30" y="55" /><path d="M32.1094 64.3906 Q32.1094 64.0625 32.3359 63.8359 Q32.5625 63.6094 32.8906 63.6094 Q33.2188 63.6094 33.4453 63.8359 Q33.6719 64.0625 33.6719 64.3906 Q33.6719 64.7188 33.4453 64.9453 Q33.2188 65.1719 32.8906 65.1719 Q32.5625 65.1719 32.3359 64.9453 Q32.1094 64.7188 32.1094 64.3906 ZM30.8125 56.6406 Q31.4375 56.3594 32 56.2266 Q32.5625 56.0938 33.0469 56.0938 Q34.3438 56.0938 35.1016 56.7188 Q35.8594 57.3438 35.8594 58.4062 Q35.8594 59.5 35.2109 60.1953 Q34.5625 60.8906 33.25 61.1875 L33.25 62.6719 L32.5312 62.6719 L32.5312 60.75 Q33.5625 60.5 34.0938 59.9062 Q34.625 59.3125 34.625 58.4062 Q34.625 57.5938 34.1953 57.1328 Q33.7656 56.6719 33.0312 56.6719 Q32.3594 56.6719 31.9297 57.0547 Q31.5 57.4375 31.3906 58.1562 L30.8125 58.1562 L30.8125 56.6406 Z" style="fill:black; stroke:none;" /></g><g ID="li-1:1,2" style="fill:white; text-rendering:optimizeSpeed; font-family:'Serif'; stroke:white;"><rect height="9" style="stroke:none;" width="8" x="70" y="96" /><path d="M74.1875 102.0312 L74.1875 97.375 L71.2031 102.0312 L74.1875 102.0312 ZM76.7656 105 L72.7812 105 L72.7812 104.375 L74.1875 104.375 L74.1875 102.6562 L70.375 102.6562 L70.375 102.0156 L74.2031 96.0938 L75.3594 96.0938 L75.3594 102.0312 L77.0312 102.0312 L77.0312 102.6562 L75.3594 102.6562 L75.3594 104.375 L76.7656 104.375 L76.7656 105 Z" style="fill:black; stroke:none;" /><rect height="13" style="stroke:none;" width="7" x="56" y="94" /><path d="M57.8281 106.25 Q58.2969 106.5938 59.1719 106.5938 Q60.0625 106.5938 60.5781 106.0703 Q61.0938 105.5469 61.0938 104.6562 Q61.0938 103.4219 60.5625 102.8906 Q60.0156 102.3594 59 102.3594 L58.4375 102.3594 L58.4375 101.7188 L58.7344 101.7188 Q59.4844 101.7188 60 101.2969 Q60.4219 100.9531 60.4219 100.0156 Q60.4219 99.6094 60.1406 99.1406 Q59.6875 98.375 59.1562 98.3906 Q57.8281 98.4375 57.8281 100.7812 L57.8281 106.25 ZM56.75 109.5 L56.75 100.7812 Q56.75 98.3281 58.0781 98 Q58.7656 97.8125 59.25 97.8125 Q60.3438 97.8125 61.0469 98.6719 Q61.6094 99.3594 61.6094 99.9375 Q61.6094 100.7812 61.2031 101.2656 Q60.7969 101.75 60.0625 101.9844 Q61.1406 102.1406 61.75 102.7812 Q62.3281 103.4062 62.3281 104.6328 Q62.3281 105.8594 61.5078 106.5156 Q60.6875 107.1719 59.1406 107.1719 Q58.1875 107.1719 57.8281 107.0312 L57.8281 109.5 L56.75 109.5 Z" style="fill:black; stroke:none;" /></g></g></svg>