<svg xmlns="http://www.w3.org/2000/svg" style="fill-opacity:1; color-rendering:auto; color-interpolation:auto; text-rendering:auto; stroke:black; stroke-linecap:square; stroke-miterlimit:10; shape-rendering:auto; stroke-opacity:1; fill:black; stroke-dasharray:none; font-weight:normal; stroke-width:1; font-family:'Dialog'; font-style:normal; stroke-linejoin:miter; font-size:12px; stroke-dashoffset:0; image-rendering:auto;"><defs id="genericDefs" /><g><defs id="defs1"><clipPath clipPathUnits="userSpaceOnUse" id="clipPath1"><path d="M52 93 C52 99.0751 47.0751 104 41 104 C34.9249 104 30 99.0751 30 93 C30 86.9249 34.9249 82 41 82 C47.0751 82 52 86.9249 52 93 Z" /></clipPath><clipPath clipPathUnits="userSpaceOnUse" id="clipPath2"><path d="M41 30 L43 37 L51 37 L44 42 L47 49 L41 45 L34 49 L37 42 L30 37 L38 37 L41 30 Z" style="fill-rule:evenodd;" /></clipPath></defs><g style="fill:white; text-rendering:optimizeSpeed; stroke:white;"><rect height="134" style="stroke:none;" width="82" x="0" y="0" /></g><g ID="l-1:1,2" style="text-rendering:optimizeSpeed;"><polygon points=" 41 93 41 41" style="fill:none;" /></g><g ID="r-1:1" style="fill:white; text-rendering:optimizeSpeed; stroke:white;" wurcs_mono_id="1"><circle cx="41" cy="93" r="11" style="clip-path:url(#clipPath1); stroke:none;" /><rect height="22" style="clip-path:url(#clipPath1); fill:rgb(0,144,188); stroke:none;" width="22" x="30" y="82" /><rect height="22" style="clip-path:url(#clipPath1); fill:none; stroke:black;" width="22" x="30" y="82" /><circle cx="41" cy="93" r="11" style="fill:none; stroke:black;" /></g><g ID="r-1:2" style="fill:white; text-rendering:optimizeSpeed; stroke:white;" wurcs_mono_id="2"><polygon points=" 41 30 43 37 51 37 44 42 47 49 41 45 34 49 37 42 30 37 38 37 41 30" style="stroke:none; clip-path:url(#clipPath2);" /><rect height="22" style="clip-path:url(#clipPath2); fill:rgb(244,121,32); stroke:none;" width="22" x="30" y="30" /><rect height="22" style="clip-path:url(#clipPath2); fill:none; stroke:black;" width="22" x="30" y="30" /><polygon points=" 41 30 43 37 51 37 44 42 47 49 41 45 34 49 37 42 30 37 38 37 41 30" style="fill:none; stroke:black;" /></g><g ID="li-1:1,2" style="fill:white; text-rendering:optimizeSpeed; font-family:'Serif'; stroke:white;"><rect height="10" style="stroke:none;" width="6" x="30" y="69" /><path d="M32.1094 78.3906 Q32.1094 78.0625 32.3359 77.8359 Q32.5625 77.6094 32.8906 77.6094 Q33.2188 77.6094 33.4453 77.8359 Q33.6719 78.0625 33.6719 78.3906 Q33.6719 78.7188 33.4453 78.9453 Q33.2188 79.1719 32.8906 79.1719 Q32.5625 79.1719 32.3359 78.9453 Q32.1094 78.7188 32.1094 78.3906 ZM30.8125 70.6406 Q31.4375 70.3594 32 70.2266 Q32.5625 70.0938 33.0469 70.0938 Q34.3438 70.0938 35.1016 70.7188 Q35.8594 71.3438 35.8594 72.4062 Q35.8594 73.5 35.2109 74.1953 Q34.5625 74.8906 33.25 75.1875 L33.25 76.6719 L32.5312 76.6719 L32.5312 74.75 Q33.5625 74.5 34.0938 73.9062 Q34.625 73.3125 34.625 72.4062 Q34.625 71.5938 34.1953 71.1328 Q33.7656 70.6719 33.0312 70.6719 Q32.3594 70.6719 31.9297 71.0547 Q31.5 71.4375 31.3906 72.1562 L30.8125 72.1562 L30.8125 70.6406 Z" style="fill:black; stroke:none;" /><rect height="8" style="stroke:none;" width="8" x="29" y="56" /><path d="M34.1875 62.4688 L33.9531 63.1094 Q33.7656 63.625 33.2031 63.9375 Q32.8438 64.1562 32.2031 64.1406 Q31.0469 64.1406 30.3281 63.2344 Q29.5938 62.3281 29.5938 60.8594 Q29.5938 59.4219 30.3281 58.4844 Q31.0156 57.5938 32.4531 57.6094 Q33.4531 57.6094 33.9531 58 Q34.4062 58.3438 34.5781 59.0938 L34.625 59.3125 L34.8438 58.6719 Q35.0625 58.0469 35.6562 57.75 L36.25 57.75 L36.25 58.0938 Q35.6875 58.2656 35.5 58.8125 L34.8906 60.4844 L35.2969 62.2812 Q35.5 63.2031 35.7344 63.2969 Q36.0469 63.4375 36.7812 63 L36.7812 63.7188 Q35.5938 64.4062 34.75 63.6875 Q34.375 63.3594 34.2656 62.875 L34.1875 62.4688 ZM33.9219 61.3125 L33.5625 59.5938 Q33.2656 58.2188 32.4688 58.2188 Q31.7969 58.2031 31.2812 58.9375 Q30.8594 59.5156 30.8594 60.875 Q30.8594 62.1719 31.2812 62.8281 Q31.75 63.5469 32.5312 63.5 Q33.2031 63.4375 33.6875 62 L33.9219 61.3125 Z" style="fill:black; stroke:none;" /></g></g></svg>