<svg xmlns="http://www.w3.org/2000/svg" style="fill-opacity:1; color-rendering:auto; color-interpolation:auto; text-rendering:auto; stroke:black; stroke-linecap:square; stroke-miterlimit:10; shape-rendering:auto; stroke-opacity:1; fill:black; stroke-dasharray:none; font-weight:normal; stroke-width:1; font-family:'Dialog'; font-style:normal; stroke-linejoin:miter; font-size:12px; stroke-dashoffset:0; image-rendering:auto;"><defs id="genericDefs" /><g><defs id="defs1"><clipPath clipPathUnits="userSpaceOnUse" id="clipPath1"><path d="M498 56 L520 56 L520 78 L498 78 L498 56 Z" /></clipPath><clipPath clipPathUnits="userSpaceOnUse" id="clipPath2"><path d="M446 82 L468 82 L468 104 L446 104 L446 82 Z" /></clipPath><clipPath clipPathUnits="userSpaceOnUse" id="clipPath3"><path d="M416 93 C416 99.0751 411.0751 104 405 104 C398.9249 104 394 99.0751 394 93 C394 86.9249 398.9249 82 405 82 C411.0751 82 416 86.9249 416 93 Z" /></clipPath><clipPath clipPathUnits="userSpaceOnUse" id="clipPath4"><path d="M342 82 L364 82 L364 104 L342 104 L342 82 Z" /></clipPath><clipPath clipPathUnits="userSpaceOnUse" id="clipPath5"><path d="M312 93 C312 99.0751 307.0751 104 301 104 C294.9249 104 290 99.0751 290 93 C290 86.9249 294.9249 82 301 82 C307.0751 82 312 86.9249 312 93 Z" /></clipPath><clipPath clipPathUnits="userSpaceOnUse" id="clipPath6"><path d="M238 82 L260 82 L260 104 L238 104 L238 82 Z" /></clipPath><clipPath clipPathUnits="userSpaceOnUse" id="clipPath7"><path d="M208 93 C208 99.0751 203.0751 104 197 104 C190.9249 104 186 99.0751 186 93 C186 86.9249 190.9249 82 197 82 C203.0751 82 208 86.9249 208 93 Z" /></clipPath><clipPath clipPathUnits="userSpaceOnUse" id="clipPath8"><path d="M134 82 L156 82 L156 104 L134 104 L134 82 Z" /></clipPath><clipPath clipPathUnits="userSpaceOnUse" id="clipPath9"><path d="M104 93 C104 99.0751 99.0751 104 93 104 C86.9249 104 82 99.0751 82 93 C82 86.9249 86.9249 82 93 82 C99.0751 82 104 86.9249 104 93 Z" /></clipPath><clipPath clipPathUnits="userSpaceOnUse" id="clipPath10"><path d="M41 82 L52 93 L41 104 L30 93 Z" style="fill-rule:evenodd;" /></clipPath><clipPath clipPathUnits="userSpaceOnUse" id="clipPath11"><path d="M468 41 C468 47.0751 463.0751 52 457 52 C450.9249 52 446 47.0751 446 41 C446 34.9249 450.9249 30 457 30 C463.0751 30 468 34.9249 468 41 Z" /></clipPath><clipPath clipPathUnits="userSpaceOnUse" id="clipPath12"><path d="M405 30 L416 41 L405 52 L394 41 Z" style="fill-rule:evenodd;" /></clipPath></defs><g style="fill:white; text-rendering:optimizeSpeed; stroke:white;"><rect height="134" style="stroke:none;" width="550" x="0" y="0" /></g><g ID="l-1:1,2" style="text-rendering:optimizeSpeed;"><polygon points=" 509 67 457 93" style="fill:none;" /></g><g ID="l-1:1,3" style="text-rendering:optimizeSpeed;"><polygon points=" 509 67 457 41" style="fill:none;" /></g><g ID="r-1:1" style="fill:white; text-rendering:optimizeSpeed; stroke:white;" wurcs_mono_id="1"><rect height="22" style="clip-path:url(#clipPath1); stroke:none;" width="22" x="498" y="56" /><rect height="22" style="clip-path:url(#clipPath1); fill:rgb(255,212,0); stroke:none;" width="22" x="498" y="56" /><rect height="22" style="clip-path:url(#clipPath1); fill:none; stroke:black;" width="22" x="498" y="56" /><rect height="22" style="fill:none; stroke:black;" width="22" x="498" y="56" /></g><g ID="l-1:2,4" style="text-rendering:optimizeSpeed;"><polygon points=" 457 93 405 93" style="fill:none;" /></g><g ID="r-1:2" style="fill:white; text-rendering:optimizeSpeed; stroke:white;" wurcs_mono_id="2"><rect height="22" style="clip-path:url(#clipPath2); stroke:none;" width="22" x="446" y="82" /><rect height="22" style="clip-path:url(#clipPath2); fill:rgb(0,144,188); stroke:none;" width="22" x="446" y="82" /><rect height="22" style="clip-path:url(#clipPath2); fill:none; stroke:black;" width="22" x="446" y="82" /><rect height="22" style="fill:none; stroke:black;" width="22" x="446" y="82" /></g><g ID="l-1:4,5" style="text-rendering:optimizeSpeed;"><polygon points=" 405 93 353 93" style="fill:none;" /></g><g ID="r-1:4" style="fill:white; text-rendering:optimizeSpeed; stroke:white;" wurcs_mono_id="3"><circle cx="405" cy="93" r="11" style="clip-path:url(#clipPath3); stroke:none;" /><rect height="22" style="clip-path:url(#clipPath3); fill:rgb(255,212,0); stroke:none;" width="22" x="394" y="82" /><rect height="22" style="clip-path:url(#clipPath3); fill:none; stroke:black;" width="22" x="394" y="82" /><circle cx="405" cy="93" r="11" style="fill:none; stroke:black;" /></g><g ID="l-1:5,6" style="text-rendering:optimizeSpeed;"><polygon points=" 353 93 301 93" style="fill:none;" /></g><g ID="r-1:5" style="fill:white; text-rendering:optimizeSpeed; stroke:white;" wurcs_mono_id="4"><rect height="22" style="clip-path:url(#clipPath4); stroke:none;" width="22" x="342" y="82" /><rect height="22" style="clip-path:url(#clipPath4); fill:rgb(0,144,188); stroke:none;" width="22" x="342" y="82" /><rect height="22" style="clip-path:url(#clipPath4); fill:none; stroke:black;" width="22" x="342" y="82" /><rect height="22" style="fill:none; stroke:black;" width="22" x="342" y="82" /></g><g ID="l-1:6,7" style="text-rendering:optimizeSpeed;"><polygon points=" 301 93 249 93" style="fill:none;" /></g><g ID="r-1:6" style="fill:white; text-rendering:optimizeSpeed; stroke:white;" wurcs_mono_id="5"><circle cx="301" cy="93" r="11" style="clip-path:url(#clipPath5); stroke:none;" /><rect height="22" style="clip-path:url(#clipPath5); fill:rgb(255,212,0); stroke:none;" width="22" x="290" y="82" /><rect height="22" style="clip-path:url(#clipPath5); fill:none; stroke:black;" width="22" x="290" y="82" /><circle cx="301" cy="93" r="11" style="fill:none; stroke:black;" /></g><g ID="l-1:7,8" style="text-rendering:optimizeSpeed;"><polygon points=" 249 93 197 93" style="fill:none;" /></g><g ID="r-1:7" style="fill:white; text-rendering:optimizeSpeed; stroke:white;" wurcs_mono_id="6"><rect height="22" style="clip-path:url(#clipPath6); stroke:none;" width="22" x="238" y="82" /><rect height="22" style="clip-path:url(#clipPath6); fill:rgb(0,144,188); stroke:none;" width="22" x="238" y="82" /><rect height="22" style="clip-path:url(#clipPath6); fill:none; stroke:black;" width="22" x="238" y="82" /><rect height="22" style="fill:none; stroke:black;" width="22" x="238" y="82" /></g><g ID="l-1:8,9" style="text-rendering:optimizeSpeed;"><polygon points=" 197 93 145 93" style="fill:none;" /></g><g ID="r-1:8" style="fill:white; text-rendering:optimizeSpeed; stroke:white;" wurcs_mono_id="7"><circle cx="197" cy="93" r="11" style="clip-path:url(#clipPath7); stroke:none;" /><rect height="22" style="clip-path:url(#clipPath7); fill:rgb(255,212,0); stroke:none;" width="22" x="186" y="82" /><rect height="22" style="clip-path:url(#clipPath7); fill:none; stroke:black;" width="22" x="186" y="82" /><circle cx="197" cy="93" r="11" style="fill:none; stroke:black;" /></g><g ID="l-1:9,10" style="text-rendering:optimizeSpeed;"><polygon points=" 145 93 93 93" style="fill:none;" /></g><g ID="r-1:9" style="fill:white; text-rendering:optimizeSpeed; stroke:white;" wurcs_mono_id="8"><rect height="22" style="clip-path:url(#clipPath8); stroke:none;" width="22" x="134" y="82" /><rect height="22" style="clip-path:url(#clipPath8); fill:rgb(0,144,188); stroke:none;" width="22" x="134" y="82" /><rect height="22" style="clip-path:url(#clipPath8); fill:none; stroke:black;" width="22" x="134" y="82" /><rect height="22" style="fill:none; stroke:black;" width="22" x="134" y="82" /></g><g ID="l-1:10,11" style="text-rendering:optimizeSpeed;"><polygon points=" 93 93 41 93" style="fill:none;" /></g><g ID="r-1:10" style="fill:white; text-rendering:optimizeSpeed; stroke:white;" wurcs_mono_id="9"><circle cx="93" cy="93" r="11" style="clip-path:url(#clipPath9); stroke:none;" /><rect height="22" style="clip-path:url(#clipPath9); fill:rgb(255,212,0); stroke:none;" width="22" x="82" y="82" /><rect height="22" style="clip-path:url(#clipPath9); fill:none; stroke:black;" width="22" x="82" y="82" /><circle cx="93" cy="93" r="11" style="fill:none; stroke:black;" /></g><g ID="r-1:11" style="fill:white; text-rendering:optimizeSpeed; stroke:white;" wurcs_mono_id="10"><polygon points=" 41 82 52 93 41 104 30 93" style="stroke:none; clip-path:url(#clipPath10);" /><rect height="22" style="clip-path:url(#clipPath10); fill:rgb(165,67,153); stroke:none;" width="22" x="30" y="82" /><rect height="22" style="clip-path:url(#clipPath10); fill:none; stroke:black;" width="22" x="30" y="82" /><polygon points=" 41 82 52 93 41 104 30 93" style="fill:none; stroke:black;" /></g><g ID="li-1:10,11" style="fill:white; text-rendering:optimizeSpeed; font-family:'Serif'; stroke:white;"><rect height="10" style="stroke:none;" width="6" x="71" y="96" /><path d="M73.1094 105.3906 Q73.1094 105.0625 73.3359 104.8359 Q73.5625 104.6094 73.8906 104.6094 Q74.2188 104.6094 74.4453 104.8359 Q74.6719 105.0625 74.6719 105.3906 Q74.6719 105.7188 74.4453 105.9453 Q74.2188 106.1719 73.8906 106.1719 Q73.5625 106.1719 73.3359 105.9453 Q73.1094 105.7188 73.1094 105.3906 ZM71.8125 97.6406 Q72.4375 97.3594 73 97.2266 Q73.5625 97.0938 74.0469 97.0938 Q75.3438 97.0938 76.1016 97.7188 Q76.8594 98.3438 76.8594 99.4062 Q76.8594 100.5 76.2109 101.1953 Q75.5625 101.8906 74.25 102.1875 L74.25 103.6719 L73.5312 103.6719 L73.5312 101.75 Q74.5625 101.5 75.0938 100.9062 Q75.625 100.3125 75.625 99.4062 Q75.625 98.5938 75.1953 98.1328 Q74.7656 97.6719 74.0312 97.6719 Q73.3594 97.6719 72.9297 98.0547 Q72.5 98.4375 72.3906 99.1562 L71.8125 99.1562 L71.8125 97.6406 Z" style="fill:black; stroke:none;" /><rect height="10" style="stroke:none;" width="6" x="57" y="96" /><path d="M59.1094 105.3906 Q59.1094 105.0625 59.3359 104.8359 Q59.5625 104.6094 59.8906 104.6094 Q60.2188 104.6094 60.4453 104.8359 Q60.6719 105.0625 60.6719 105.3906 Q60.6719 105.7188 60.4453 105.9453 Q60.2188 106.1719 59.8906 106.1719 Q59.5625 106.1719 59.3359 105.9453 Q59.1094 105.7188 59.1094 105.3906 ZM57.8125 97.6406 Q58.4375 97.3594 59 97.2266 Q59.5625 97.0938 60.0469 97.0938 Q61.3438 97.0938 62.1016 97.7188 Q62.8594 98.3438 62.8594 99.4062 Q62.8594 100.5 62.2109 101.1953 Q61.5625 101.8906 60.25 102.1875 L60.25 103.6719 L59.5312 103.6719 L59.5312 101.75 Q60.5625 101.5 61.0938 100.9062 Q61.625 100.3125 61.625 99.4062 Q61.625 98.5938 61.1953 98.1328 Q60.7656 97.6719 60.0312 97.6719 Q59.3594 97.6719 58.9297 98.0547 Q58.5 98.4375 58.3906 99.1562 L57.8125 99.1562 L57.8125 97.6406 Z" style="fill:black; stroke:none;" /></g><g ID="li-1:9,10" style="fill:white; text-rendering:optimizeSpeed; font-family:'Serif'; stroke:white;"><rect height="10" style="stroke:none;" width="6" x="123" y="96" /><path d="M125.1094 105.3906 Q125.1094 105.0625 125.3359 104.8359 Q125.5625 104.6094 125.8906 104.6094 Q126.2188 104.6094 126.4453 104.8359 Q126.6719 105.0625 126.6719 105.3906 Q126.6719 105.7188 126.4453 105.9453 Q126.2188 106.1719 125.8906 106.1719 Q125.5625 106.1719 125.3359 105.9453 Q125.1094 105.7188 125.1094 105.3906 ZM123.8125 97.6406 Q124.4375 97.3594 125 97.2266 Q125.5625 97.0938 126.0469 97.0938 Q127.3438 97.0938 128.1016 97.7188 Q128.8594 98.3438 128.8594 99.4062 Q128.8594 100.5 128.2109 101.1953 Q127.5625 101.8906 126.25 102.1875 L126.25 103.6719 L125.5312 103.6719 L125.5312 101.75 Q126.5625 101.5 127.0938 100.9062 Q127.625 100.3125 127.625 99.4062 Q127.625 98.5938 127.1953 98.1328 Q126.7656 97.6719 126.0312 97.6719 Q125.3594 97.6719 124.9297 98.0547 Q124.5 98.4375 124.3906 99.1562 L123.8125 99.1562 L123.8125 97.6406 Z" style="fill:black; stroke:none;" /><rect height="10" style="stroke:none;" width="6" x="109" y="96" /><path d="M111.1094 105.3906 Q111.1094 105.0625 111.3359 104.8359 Q111.5625 104.6094 111.8906 104.6094 Q112.2188 104.6094 112.4453 104.8359 Q112.6719 105.0625 112.6719 105.3906 Q112.6719 105.7188 112.4453 105.9453 Q112.2188 106.1719 111.8906 106.1719 Q111.5625 106.1719 111.3359 105.9453 Q111.1094 105.7188 111.1094 105.3906 ZM109.8125 97.6406 Q110.4375 97.3594 111 97.2266 Q111.5625 97.0938 112.0469 97.0938 Q113.3438 97.0938 114.1016 97.7188 Q114.8594 98.3438 114.8594 99.4062 Q114.8594 100.5 114.2109 101.1953 Q113.5625 101.8906 112.25 102.1875 L112.25 103.6719 L111.5312 103.6719 L111.5312 101.75 Q112.5625 101.5 113.0938 100.9062 Q113.625 100.3125 113.625 99.4062 Q113.625 98.5938 113.1953 98.1328 Q112.7656 97.6719 112.0312 97.6719 Q111.3594 97.6719 110.9297 98.0547 Q110.5 98.4375 110.3906 99.1562 L109.8125 99.1562 L109.8125 97.6406 Z" style="fill:black; stroke:none;" /></g><g ID="li-1:8,9" style="fill:white; text-rendering:optimizeSpeed; font-family:'Serif'; stroke:white;"><rect height="10" style="stroke:none;" width="6" x="175" y="96" /><path d="M177.1094 105.3906 Q177.1094 105.0625 177.3359 104.8359 Q177.5625 104.6094 177.8906 104.6094 Q178.2188 104.6094 178.4453 104.8359 Q178.6719 105.0625 178.6719 105.3906 Q178.6719 105.7188 178.4453 105.9453 Q178.2188 106.1719 177.8906 106.1719 Q177.5625 106.1719 177.3359 105.9453 Q177.1094 105.7188 177.1094 105.3906 ZM175.8125 97.6406 Q176.4375 97.3594 177 97.2266 Q177.5625 97.0938 178.0469 97.0938 Q179.3438 97.0938 180.1016 97.7188 Q180.8594 98.3438 180.8594 99.4062 Q180.8594 100.5 180.2109 101.1953 Q179.5625 101.8906 178.25 102.1875 L178.25 103.6719 L177.5312 103.6719 L177.5312 101.75 Q178.5625 101.5 179.0938 100.9062 Q179.625 100.3125 179.625 99.4062 Q179.625 98.5938 179.1953 98.1328 Q178.7656 97.6719 178.0312 97.6719 Q177.3594 97.6719 176.9297 98.0547 Q176.5 98.4375 176.3906 99.1562 L175.8125 99.1562 L175.8125 97.6406 Z" style="fill:black; stroke:none;" /><rect height="10" style="stroke:none;" width="6" x="161" y="96" /><path d="M163.1094 105.3906 Q163.1094 105.0625 163.3359 104.8359 Q163.5625 104.6094 163.8906 104.6094 Q164.2188 104.6094 164.4453 104.8359 Q164.6719 105.0625 164.6719 105.3906 Q164.6719 105.7188 164.4453 105.9453 Q164.2188 106.1719 163.8906 106.1719 Q163.5625 106.1719 163.3359 105.9453 Q163.1094 105.7188 163.1094 105.3906 ZM161.8125 97.6406 Q162.4375 97.3594 163 97.2266 Q163.5625 97.0938 164.0469 97.0938 Q165.3438 97.0938 166.1016 97.7188 Q166.8594 98.3438 166.8594 99.4062 Q166.8594 100.5 166.2109 101.1953 Q165.5625 101.8906 164.25 102.1875 L164.25 103.6719 L163.5312 103.6719 L163.5312 101.75 Q164.5625 101.5 165.0938 100.9062 Q165.625 100.3125 165.625 99.4062 Q165.625 98.5938 165.1953 98.1328 Q164.7656 97.6719 164.0312 97.6719 Q163.3594 97.6719 162.9297 98.0547 Q162.5 98.4375 162.3906 99.1562 L161.8125 99.1562 L161.8125 97.6406 Z" style="fill:black; stroke:none;" /></g><g ID="li-1:7,8" style="fill:white; text-rendering:optimizeSpeed; font-family:'Serif'; stroke:white;"><rect height="10" style="stroke:none;" width="6" x="227" y="96" /><path d="M229.1094 105.3906 Q229.1094 105.0625 229.3359 104.8359 Q229.5625 104.6094 229.8906 104.6094 Q230.2188 104.6094 230.4453 104.8359 Q230.6719 105.0625 230.6719 105.3906 Q230.6719 105.7188 230.4453 105.9453 Q230.2188 106.1719 229.8906 106.1719 Q229.5625 106.1719 229.3359 105.9453 Q229.1094 105.7188 229.1094 105.3906 ZM227.8125 97.6406 Q228.4375 97.3594 229 97.2266 Q229.5625 97.0938 230.0469 97.0938 Q231.3438 97.0938 232.1016 97.7188 Q232.8594 98.3438 232.8594 99.4062 Q232.8594 100.5 232.2109 101.1953 Q231.5625 101.8906 230.25 102.1875 L230.25 103.6719 L229.5312 103.6719 L229.5312 101.75 Q230.5625 101.5 231.0938 100.9062 Q231.625 100.3125 231.625 99.4062 Q231.625 98.5938 231.1953 98.1328 Q230.7656 97.6719 230.0312 97.6719 Q229.3594 97.6719 228.9297 98.0547 Q228.5 98.4375 228.3906 99.1562 L227.8125 99.1562 L227.8125 97.6406 Z" style="fill:black; stroke:none;" /><rect height="10" style="stroke:none;" width="6" x="213" y="96" /><path d="M215.1094 105.3906 Q215.1094 105.0625 215.3359 104.8359 Q215.5625 104.6094 215.8906 104.6094 Q216.2188 104.6094 216.4453 104.8359 Q216.6719 105.0625 216.6719 105.3906 Q216.6719 105.7188 216.4453 105.9453 Q216.2188 106.1719 215.8906 106.1719 Q215.5625 106.1719 215.3359 105.9453 Q215.1094 105.7188 215.1094 105.3906 ZM213.8125 97.6406 Q214.4375 97.3594 215 97.2266 Q215.5625 97.0938 216.0469 97.0938 Q217.3438 97.0938 218.1016 97.7188 Q218.8594 98.3438 218.8594 99.4062 Q218.8594 100.5 218.2109 101.1953 Q217.5625 101.8906 216.25 102.1875 L216.25 103.6719 L215.5312 103.6719 L215.5312 101.75 Q216.5625 101.5 217.0938 100.9062 Q217.625 100.3125 217.625 99.4062 Q217.625 98.5938 217.1953 98.1328 Q216.7656 97.6719 216.0312 97.6719 Q215.3594 97.6719 214.9297 98.0547 Q214.5 98.4375 214.3906 99.1562 L213.8125 99.1562 L213.8125 97.6406 Z" style="fill:black; stroke:none;" /></g><g ID="li-1:6,7" style="fill:white; text-rendering:optimizeSpeed; font-family:'Serif'; stroke:white;"><rect height="10" style="stroke:none;" width="6" x="279" y="96" /><path d="M281.1094 105.3906 Q281.1094 105.0625 281.3359 104.8359 Q281.5625 104.6094 281.8906 104.6094 Q282.2188 104.6094 282.4453 104.8359 Q282.6719 105.0625 282.6719 105.3906 Q282.6719 105.7188 282.4453 105.9453 Q282.2188 106.1719 281.8906 106.1719 Q281.5625 106.1719 281.3359 105.9453 Q281.1094 105.7188 281.1094 105.3906 ZM279.8125 97.6406 Q280.4375 97.3594 281 97.2266 Q281.5625 97.0938 282.0469 97.0938 Q283.3438 97.0938 284.1016 97.7188 Q284.8594 98.3438 284.8594 99.4062 Q284.8594 100.5 284.2109 101.1953 Q283.5625 101.8906 282.25 102.1875 L282.25 103.6719 L281.5312 103.6719 L281.5312 101.75 Q282.5625 101.5 283.0938 100.9062 Q283.625 100.3125 283.625 99.4062 Q283.625 98.5938 283.1953 98.1328 Q282.7656 97.6719 282.0312 97.6719 Q281.3594 97.6719 280.9297 98.0547 Q280.5 98.4375 280.3906 99.1562 L279.8125 99.1562 L279.8125 97.6406 Z" style="fill:black; stroke:none;" /><rect height="10" style="stroke:none;" width="6" x="265" y="96" /><path d="M267.1094 105.3906 Q267.1094 105.0625 267.3359 104.8359 Q267.5625 104.6094 267.8906 104.6094 Q268.2188 104.6094 268.4453 104.8359 Q268.6719 105.0625 268.6719 105.3906 Q268.6719 105.7188 268.4453 105.9453 Q268.2188 106.1719 267.8906 106.1719 Q267.5625 106.1719 267.3359 105.9453 Q267.1094 105.7188 267.1094 105.3906 ZM265.8125 97.6406 Q266.4375 97.3594 267 97.2266 Q267.5625 97.0938 268.0469 97.0938 Q269.3438 97.0938 270.1016 97.7188 Q270.8594 98.3438 270.8594 99.4062 Q270.8594 100.5 270.2109 101.1953 Q269.5625 101.8906 268.25 102.1875 L268.25 103.6719 L267.5312 103.6719 L267.5312 101.75 Q268.5625 101.5 269.0938 100.9062 Q269.625 100.3125 269.625 99.4062 Q269.625 98.5938 269.1953 98.1328 Q268.7656 97.6719 268.0312 97.6719 Q267.3594 97.6719 266.9297 98.0547 Q266.5 98.4375 266.3906 99.1562 L265.8125 99.1562 L265.8125 97.6406 Z" style="fill:black; stroke:none;" /></g><g ID="li-1:5,6" style="fill:white; text-rendering:optimizeSpeed; font-family:'Serif'; stroke:white;"><rect height="10" style="stroke:none;" width="6" x="331" y="96" /><path d="M333.1094 105.3906 Q333.1094 105.0625 333.3359 104.8359 Q333.5625 104.6094 333.8906 104.6094 Q334.2188 104.6094 334.4453 104.8359 Q334.6719 105.0625 334.6719 105.3906 Q334.6719 105.7188 334.4453 105.9453 Q334.2188 106.1719 333.8906 106.1719 Q333.5625 106.1719 333.3359 105.9453 Q333.1094 105.7188 333.1094 105.3906 ZM331.8125 97.6406 Q332.4375 97.3594 333 97.2266 Q333.5625 97.0938 334.0469 97.0938 Q335.3438 97.0938 336.1016 97.7188 Q336.8594 98.3438 336.8594 99.4062 Q336.8594 100.5 336.2109 101.1953 Q335.5625 101.8906 334.25 102.1875 L334.25 103.6719 L333.5312 103.6719 L333.5312 101.75 Q334.5625 101.5 335.0938 100.9062 Q335.625 100.3125 335.625 99.4062 Q335.625 98.5938 335.1953 98.1328 Q334.7656 97.6719 334.0312 97.6719 Q333.3594 97.6719 332.9297 98.0547 Q332.5 98.4375 332.3906 99.1562 L331.8125 99.1562 L331.8125 97.6406 Z" style="fill:black; stroke:none;" /><rect height="10" style="stroke:none;" width="6" x="317" y="96" /><path d="M319.1094 105.3906 Q319.1094 105.0625 319.3359 104.8359 Q319.5625 104.6094 319.8906 104.6094 Q320.2188 104.6094 320.4453 104.8359 Q320.6719 105.0625 320.6719 105.3906 Q320.6719 105.7188 320.4453 105.9453 Q320.2188 106.1719 319.8906 106.1719 Q319.5625 106.1719 319.3359 105.9453 Q319.1094 105.7188 319.1094 105.3906 ZM317.8125 97.6406 Q318.4375 97.3594 319 97.2266 Q319.5625 97.0938 320.0469 97.0938 Q321.3438 97.0938 322.1016 97.7188 Q322.8594 98.3438 322.8594 99.4062 Q322.8594 100.5 322.2109 101.1953 Q321.5625 101.8906 320.25 102.1875 L320.25 103.6719 L319.5312 103.6719 L319.5312 101.75 Q320.5625 101.5 321.0938 100.9062 Q321.625 100.3125 321.625 99.4062 Q321.625 98.5938 321.1953 98.1328 Q320.7656 97.6719 320.0312 97.6719 Q319.3594 97.6719 318.9297 98.0547 Q318.5 98.4375 318.3906 99.1562 L317.8125 99.1562 L317.8125 97.6406 Z" style="fill:black; stroke:none;" /></g><g ID="li-1:4,5" style="fill:white; text-rendering:optimizeSpeed; font-family:'Serif'; stroke:white;"><rect height="10" style="stroke:none;" width="6" x="383" y="96" /><path d="M385.1094 105.3906 Q385.1094 105.0625 385.3359 104.8359 Q385.5625 104.6094 385.8906 104.6094 Q386.2188 104.6094 386.4453 104.8359 Q386.6719 105.0625 386.6719 105.3906 Q386.6719 105.7188 386.4453 105.9453 Q386.2188 106.1719 385.8906 106.1719 Q385.5625 106.1719 385.3359 105.9453 Q385.1094 105.7188 385.1094 105.3906 ZM383.8125 97.6406 Q384.4375 97.3594 385 97.2266 Q385.5625 97.0938 386.0469 97.0938 Q387.3438 97.0938 388.1016 97.7188 Q388.8594 98.3438 388.8594 99.4062 Q388.8594 100.5 388.2109 101.1953 Q387.5625 101.8906 386.25 102.1875 L386.25 103.6719 L385.5312 103.6719 L385.5312 101.75 Q386.5625 101.5 387.0938 100.9062 Q387.625 100.3125 387.625 99.4062 Q387.625 98.5938 387.1953 98.1328 Q386.7656 97.6719 386.0312 97.6719 Q385.3594 97.6719 384.9297 98.0547 Q384.5 98.4375 384.3906 99.1562 L383.8125 99.1562 L383.8125 97.6406 Z" style="fill:black; stroke:none;" /><rect height="10" style="stroke:none;" width="6" x="369" y="96" /><path d="M371.1094 105.3906 Q371.1094 105.0625 371.3359 104.8359 Q371.5625 104.6094 371.8906 104.6094 Q372.2188 104.6094 372.4453 104.8359 Q372.6719 105.0625 372.6719 105.3906 Q372.6719 105.7188 372.4453 105.9453 Q372.2188 106.1719 371.8906 106.1719 Q371.5625 106.1719 371.3359 105.9453 Q371.1094 105.7188 371.1094 105.3906 ZM369.8125 97.6406 Q370.4375 97.3594 371 97.2266 Q371.5625 97.0938 372.0469 97.0938 Q373.3438 97.0938 374.1016 97.7188 Q374.8594 98.3438 374.8594 99.4062 Q374.8594 100.5 374.2109 101.1953 Q373.5625 101.8906 372.25 102.1875 L372.25 103.6719 L371.5312 103.6719 L371.5312 101.75 Q372.5625 101.5 373.0938 100.9062 Q373.625 100.3125 373.625 99.4062 Q373.625 98.5938 373.1953 98.1328 Q372.7656 97.6719 372.0312 97.6719 Q371.3594 97.6719 370.9297 98.0547 Q370.5 98.4375 370.3906 99.1562 L369.8125 99.1562 L369.8125 97.6406 Z" style="fill:black; stroke:none;" /></g><g ID="li-1:2,4" style="fill:white; text-rendering:optimizeSpeed; font-family:'Serif'; stroke:white;"><rect height="10" style="stroke:none;" width="6" x="435" y="96" /><path d="M437.1094 105.3906 Q437.1094 105.0625 437.3359 104.8359 Q437.5625 104.6094 437.8906 104.6094 Q438.2188 104.6094 438.4453 104.8359 Q438.6719 105.0625 438.6719 105.3906 Q438.6719 105.7188 438.4453 105.9453 Q438.2188 106.1719 437.8906 106.1719 Q437.5625 106.1719 437.3359 105.9453 Q437.1094 105.7188 437.1094 105.3906 ZM435.8125 97.6406 Q436.4375 97.3594 437 97.2266 Q437.5625 97.0938 438.0469 97.0938 Q439.3438 97.0938 440.1016 97.7188 Q440.8594 98.3438 440.8594 99.4062 Q440.8594 100.5 440.2109 101.1953 Q439.5625 101.8906 438.25 102.1875 L438.25 103.6719 L437.5312 103.6719 L437.5312 101.75 Q438.5625 101.5 439.0938 100.9062 Q439.625 100.3125 439.625 99.4062 Q439.625 98.5938 439.1953 98.1328 Q438.7656 97.6719 438.0312 97.6719 Q437.3594 97.6719 436.9297 98.0547 Q436.5 98.4375 436.3906 99.1562 L435.8125 99.1562 L435.8125 97.6406 Z" style="fill:black; stroke:none;" /><rect height="10" style="stroke:none;" width="6" x="421" y="96" /><path d="M423.1094 105.3906 Q423.1094 105.0625 423.3359 104.8359 Q423.5625 104.6094 423.8906 104.6094 Q424.2188 104.6094 424.4453 104.8359 Q424.6719 105.0625 424.6719 105.3906 Q424.6719 105.7188 424.4453 105.9453 Q424.2188 106.1719 423.8906 106.1719 Q423.5625 106.1719 423.3359 105.9453 Q423.1094 105.7188 423.1094 105.3906 ZM421.8125 97.6406 Q422.4375 97.3594 423 97.2266 Q423.5625 97.0938 424.0469 97.0938 Q425.3438 97.0938 426.1016 97.7188 Q426.8594 98.3438 426.8594 99.4062 Q426.8594 100.5 426.2109 101.1953 Q425.5625 101.8906 424.25 102.1875 L424.25 103.6719 L423.5312 103.6719 L423.5312 101.75 Q424.5625 101.5 425.0938 100.9062 Q425.625 100.3125 425.625 99.4062 Q425.625 98.5938 425.1953 98.1328 Q424.7656 97.6719 424.0312 97.6719 Q423.3594 97.6719 422.9297 98.0547 Q422.5 98.4375 422.3906 99.1562 L421.8125 99.1562 L421.8125 97.6406 Z" style="fill:black; stroke:none;" /></g><g ID="l-1:3,12" style="text-rendering:optimizeSpeed;"><polygon points=" 457 41 405 41" style="fill:none;" /></g><g ID="r-1:3" style="fill:white; text-rendering:optimizeSpeed; stroke:white;" wurcs_mono_id="11"><circle cx="457" cy="41" r="11" style="clip-path:url(#clipPath11); stroke:none;" /><rect height="22" style="clip-path:url(#clipPath11); fill:rgb(255,212,0); stroke:none;" width="22" x="446" y="30" /><rect height="22" style="clip-path:url(#clipPath11); fill:none; stroke:black;" width="22" x="446" y="30" /><circle cx="457" cy="41" r="11" style="fill:none; stroke:black;" /></g><g ID="r-1:12" style="fill:white; text-rendering:optimizeSpeed; stroke:white;" wurcs_mono_id="12"><polygon points=" 405 30 416 41 405 52 394 41" style="stroke:none; clip-path:url(#clipPath12);" /><rect height="22" style="clip-path:url(#clipPath12); fill:rgb(165,67,153); stroke:none;" width="22" x="394" y="30" /><rect height="22" style="clip-path:url(#clipPath12); fill:none; stroke:black;" width="22" x="394" y="30" /><polygon points=" 405 30 416 41 405 52 394 41" style="fill:none; stroke:black;" /></g><g ID="li-1:3,12" style="fill:white; text-rendering:optimizeSpeed; font-family:'Serif'; stroke:white;"><rect height="10" style="stroke:none;" width="6" x="435" y="44" /><path d="M437.1094 53.3906 Q437.1094 53.0625 437.3359 52.8359 Q437.5625 52.6094 437.8906 52.6094 Q438.2188 52.6094 438.4453 52.8359 Q438.6719 53.0625 438.6719 53.3906 Q438.6719 53.7188 438.4453 53.9453 Q438.2188 54.1719 437.8906 54.1719 Q437.5625 54.1719 437.3359 53.9453 Q437.1094 53.7188 437.1094 53.3906 ZM435.8125 45.6406 Q436.4375 45.3594 437 45.2266 Q437.5625 45.0938 438.0469 45.0938 Q439.3438 45.0938 440.1016 45.7188 Q440.8594 46.3438 440.8594 47.4062 Q440.8594 48.5 440.2109 49.1953 Q439.5625 49.8906 438.25 50.1875 L438.25 51.6719 L437.5312 51.6719 L437.5312 49.75 Q438.5625 49.5 439.0938 48.9062 Q439.625 48.3125 439.625 47.4062 Q439.625 46.5938 439.1953 46.1328 Q438.7656 45.6719 438.0312 45.6719 Q437.3594 45.6719 436.9297 46.0547 Q436.5 46.4375 436.3906 47.1562 L435.8125 47.1562 L435.8125 45.6406 Z" style="fill:black; stroke:none;" /><rect height="10" style="stroke:none;" width="6" x="421" y="44" /><path d="M423.1094 53.3906 Q423.1094 53.0625 423.3359 52.8359 Q423.5625 52.6094 423.8906 52.6094 Q424.2188 52.6094 424.4453 52.8359 Q424.6719 53.0625 424.6719 53.3906 Q424.6719 53.7188 424.4453 53.9453 Q424.2188 54.1719 423.8906 54.1719 Q423.5625 54.1719 423.3359 53.9453 Q423.1094 53.7188 423.1094 53.3906 ZM421.8125 45.6406 Q422.4375 45.3594 423 45.2266 Q423.5625 45.0938 424.0469 45.0938 Q425.3438 45.0938 426.1016 45.7188 Q426.8594 46.3438 426.8594 47.4062 Q426.8594 48.5 426.2109 49.1953 Q425.5625 49.8906 424.25 50.1875 L424.25 51.6719 L423.5312 51.6719 L423.5312 49.75 Q424.5625 49.5 425.0938 48.9062 Q425.625 48.3125 425.625 47.4062 Q425.625 46.5938 425.1953 46.1328 Q424.7656 45.6719 424.0312 45.6719 Q423.3594 45.6719 422.9297 46.0547 Q422.5 46.4375 422.3906 47.1562 L421.8125 47.1562 L421.8125 45.6406 Z" style="fill:black; stroke:none;" /></g><g ID="li-1:1,2" style="fill:white; text-rendering:optimizeSpeed; font-family:'Serif'; stroke:white;"><rect height="10" style="stroke:none;" width="6" x="491" y="78" /><path d="M493.1094 87.3906 Q493.1094 87.0625 493.3359 86.8359 Q493.5625 86.6094 493.8906 86.6094 Q494.2188 86.6094 494.4453 86.8359 Q494.6719 87.0625 494.6719 87.3906 Q494.6719 87.7188 494.4453 87.9453 Q494.2188 88.1719 493.8906 88.1719 Q493.5625 88.1719 493.3359 87.9453 Q493.1094 87.7188 493.1094 87.3906 ZM491.8125 79.6406 Q492.4375 79.3594 493 79.2266 Q493.5625 79.0938 494.0469 79.0938 Q495.3438 79.0938 496.1016 79.7188 Q496.8594 80.3438 496.8594 81.4062 Q496.8594 82.5 496.2109 83.1953 Q495.5625 83.8906 494.25 84.1875 L494.25 85.6719 L493.5312 85.6719 L493.5312 83.75 Q494.5625 83.5 495.0938 82.9062 Q495.625 82.3125 495.625 81.4062 Q495.625 80.5938 495.1953 80.1328 Q494.7656 79.6719 494.0312 79.6719 Q493.3594 79.6719 492.9297 80.0547 Q492.5 80.4375 492.3906 81.1562 L491.8125 81.1562 L491.8125 79.6406 Z" style="fill:black; stroke:none;" /><rect height="10" style="stroke:none;" width="6" x="475" y="86" /><path d="M477.1094 95.3906 Q477.1094 95.0625 477.3359 94.8359 Q477.5625 94.6094 477.8906 94.6094 Q478.2188 94.6094 478.4453 94.8359 Q478.6719 95.0625 478.6719 95.3906 Q478.6719 95.7188 478.4453 95.9453 Q478.2188 96.1719 477.8906 96.1719 Q477.5625 96.1719 477.3359 95.9453 Q477.1094 95.7188 477.1094 95.3906 ZM475.8125 87.6406 Q476.4375 87.3594 477 87.2266 Q477.5625 87.0938 478.0469 87.0938 Q479.3438 87.0938 480.1016 87.7188 Q480.8594 88.3438 480.8594 89.4062 Q480.8594 90.5 480.2109 91.1953 Q479.5625 91.8906 478.25 92.1875 L478.25 93.6719 L477.5312 93.6719 L477.5312 91.75 Q478.5625 91.5 479.0938 90.9062 Q479.625 90.3125 479.625 89.4062 Q479.625 88.5938 479.1953 88.1328 Q478.7656 87.6719 478.0312 87.6719 Q477.3594 87.6719 476.9297 88.0547 Q476.5 88.4375 476.3906 89.1562 L475.8125 89.1562 L475.8125 87.6406 Z" style="fill:black; stroke:none;" /></g><g ID="li-1:1,3" style="fill:white; text-rendering:optimizeSpeed; font-family:'Serif'; stroke:white;"><rect height="10" style="stroke:none;" width="6" x="484" y="60" /><path d="M486.1094 69.3906 Q486.1094 69.0625 486.3359 68.8359 Q486.5625 68.6094 486.8906 68.6094 Q487.2188 68.6094 487.4453 68.8359 Q487.6719 69.0625 487.6719 69.3906 Q487.6719 69.7188 487.4453 69.9453 Q487.2188 70.1719 486.8906 70.1719 Q486.5625 70.1719 486.3359 69.9453 Q486.1094 69.7188 486.1094 69.3906 ZM484.8125 61.6406 Q485.4375 61.3594 486 61.2266 Q486.5625 61.0938 487.0469 61.0938 Q488.3438 61.0938 489.1016 61.7188 Q489.8594 62.3438 489.8594 63.4062 Q489.8594 64.5 489.2109 65.1953 Q488.5625 65.8906 487.25 66.1875 L487.25 67.6719 L486.5312 67.6719 L486.5312 65.75 Q487.5625 65.5 488.0938 64.9062 Q488.625 64.3125 488.625 63.4062 Q488.625 62.5938 488.1953 62.1328 Q487.7656 61.6719 487.0312 61.6719 Q486.3594 61.6719 485.9297 62.0547 Q485.5 62.4375 485.3906 63.1562 L484.8125 63.1562 L484.8125 61.6406 Z" style="fill:black; stroke:none;" /><rect height="10" style="stroke:none;" width="6" x="468" y="52" /><path d="M470.1094 61.3906 Q470.1094 61.0625 470.3359 60.8359 Q470.5625 60.6094 470.8906 60.6094 Q471.2188 60.6094 471.4453 60.8359 Q471.6719 61.0625 471.6719 61.3906 Q471.6719 61.7188 471.4453 61.9453 Q471.2188 62.1719 470.8906 62.1719 Q470.5625 62.1719 470.3359 61.9453 Q470.1094 61.7188 470.1094 61.3906 ZM468.8125 53.6406 Q469.4375 53.3594 470 53.2266 Q470.5625 53.0938 471.0469 53.0938 Q472.3438 53.0938 473.1016 53.7188 Q473.8594 54.3438 473.8594 55.4062 Q473.8594 56.5 473.2109 57.1953 Q472.5625 57.8906 471.25 58.1875 L471.25 59.6719 L470.5312 59.6719 L470.5312 57.75 Q471.5625 57.5 472.0938 56.9062 Q472.625 56.3125 472.625 55.4062 Q472.625 54.5938 472.1953 54.1328 Q471.7656 53.6719 471.0312 53.6719 Q470.3594 53.6719 469.9297 54.0547 Q469.5 54.4375 469.3906 55.1562 L468.8125 55.1562 L468.8125 53.6406 Z" style="fill:black; stroke:none;" /></g></g></svg>