<svg xmlns="http://www.w3.org/2000/svg" style="fill-opacity:1; color-rendering:auto; color-interpolation:auto; text-rendering:auto; stroke:black; stroke-linecap:square; stroke-miterlimit:10; shape-rendering:auto; stroke-opacity:1; fill:black; stroke-dasharray:none; font-weight:normal; stroke-width:1; font-family:'Dialog'; font-style:normal; stroke-linejoin:miter; font-size:12px; stroke-dashoffset:0; image-rendering:auto;"><defs id="genericDefs" /><g><defs id="defs1"><clipPath clipPathUnits="userSpaceOnUse" id="clipPath1"><path d="M186 108 L208 108 L208 130 L186 130 L186 108 Z" /></clipPath><clipPath clipPathUnits="userSpaceOnUse" id="clipPath2"><path d="M134 134 L156 134 L156 156 L134 156 L134 134 Z" /></clipPath><clipPath clipPathUnits="userSpaceOnUse" id="clipPath3"><path d="M104 171 C104 177.0751 99.0751 182 93 182 C86.9249 182 82 177.0751 82 171 C82 164.9249 86.9249 160 93 160 C99.0751 160 104 164.9249 104 171 Z" /></clipPath><clipPath clipPathUnits="userSpaceOnUse" id="clipPath4"><path d="M41 160 L52 171 L41 182 L30 171 Z" style="fill-rule:evenodd;" /></clipPath><clipPath clipPathUnits="userSpaceOnUse" id="clipPath5"><path d="M93 108 L104 119 L93 130 L82 119 Z" style="fill-rule:evenodd;" /></clipPath><clipPath clipPathUnits="userSpaceOnUse" id="clipPath6"><path d="M156 93 C156 99.0751 151.0751 104 145 104 C138.9249 104 134 99.0751 134 93 C134 86.9249 138.9249 82 145 82 C151.0751 82 156 86.9249 156 93 Z" /></clipPath><clipPath clipPathUnits="userSpaceOnUse" id="clipPath7"><path d="M145 52 L134 30 L156 30 Z" style="fill-rule:evenodd;" /></clipPath></defs><g style="fill:white; text-rendering:optimizeSpeed; stroke:white;"><rect height="212" style="stroke:none;" width="238" x="0" y="0" /></g><g ID="l-1:1,2" style="text-rendering:optimizeSpeed;"><polygon points=" 197 119 145 145" style="fill:none;" /></g><g ID="l-1:1,3" style="text-rendering:optimizeSpeed;"><polygon points=" 197 119 145 93" style="fill:none;" /></g><g ID="r-1:1" style="fill:white; text-rendering:optimizeSpeed; stroke:white;" wurcs_mono_id="1"><rect height="22" style="clip-path:url(#clipPath1); stroke:none;" width="22" x="186" y="108" /><rect height="22" style="clip-path:url(#clipPath1); fill:rgb(255,212,0); stroke:none;" width="22" x="186" y="108" /><rect height="22" style="clip-path:url(#clipPath1); fill:none; stroke:black;" width="22" x="186" y="108" /><rect height="22" style="fill:none; stroke:black;" width="22" x="186" y="108" /></g><g style="font-style:italic; text-rendering:optimizeSpeed; font-size:10px; font-family:'SansSerif';"><path d="M198.0938 116.1562 Q197.375 116.1562 196.8359 116.7188 Q196.2969 117.2812 196.0781 118.2656 Q195.875 119.25 196.1719 119.8125 Q196.4688 120.375 197.2031 120.375 Q197.9219 120.375 198.4609 119.8125 Q199 119.25 199.2031 118.2656 Q199.4062 117.2969 199.1094 116.7266 Q198.8125 116.1562 198.0938 116.1562 ZM198.25 115.4062 Q199.4219 115.4062 199.9297 116.1641 Q200.4375 116.9219 200.1562 118.2656 Q199.875 119.6094 199.0391 120.375 Q198.2031 121.1406 197.0312 121.1406 Q195.8594 121.1406 195.3516 120.375 Q194.8438 119.6094 195.125 118.2656 Q195.4062 116.9219 196.2422 116.1641 Q197.0781 115.4062 198.25 115.4062 Z" style="stroke:none;" /></g><g ID="l-1:2,4" style="text-rendering:optimizeSpeed;"><polygon points=" 145 145 93 171" style="fill:none;" /></g><g ID="l-1:2,5" style="text-rendering:optimizeSpeed;"><polygon points=" 145 145 93 119" style="fill:none;" /></g><g ID="r-1:2" style="fill:white; text-rendering:optimizeSpeed; stroke:white;" wurcs_mono_id="2"><rect height="22" style="clip-path:url(#clipPath2); stroke:none;" width="22" x="134" y="134" /><rect height="22" style="clip-path:url(#clipPath2); fill:rgb(0,144,188); stroke:none;" width="22" x="134" y="134" /><rect height="22" style="clip-path:url(#clipPath2); fill:none; stroke:black;" width="22" x="134" y="134" /><rect height="22" style="fill:none; stroke:black;" width="22" x="134" y="134" /></g><g ID="l-1:4,6" style="text-rendering:optimizeSpeed;"><polygon points=" 93 171 41 171" style="fill:none;" /></g><g ID="r-1:4" style="fill:white; text-rendering:optimizeSpeed; stroke:white;" wurcs_mono_id="3"><circle cx="93" cy="171" r="11" style="clip-path:url(#clipPath3); stroke:none;" /><rect height="22" style="clip-path:url(#clipPath3); fill:rgb(255,212,0); stroke:none;" width="22" x="82" y="160" /><rect height="22" style="clip-path:url(#clipPath3); fill:none; stroke:black;" width="22" x="82" y="160" /><circle cx="93" cy="171" r="11" style="fill:none; stroke:black;" /></g><g ID="r-1:6" style="fill:white; text-rendering:optimizeSpeed; stroke:white;" wurcs_mono_id="4"><polygon points=" 41 160 52 171 41 182 30 171" style="stroke:none; clip-path:url(#clipPath4);" /><rect height="22" style="clip-path:url(#clipPath4); fill:rgb(165,67,153); stroke:none;" width="22" x="30" y="160" /><rect height="22" style="clip-path:url(#clipPath4); fill:none; stroke:black;" width="22" x="30" y="160" /><polygon points=" 41 160 52 171 41 182 30 171" style="fill:none; stroke:black;" /></g><g ID="li-1:4,6" style="fill:white; text-rendering:optimizeSpeed; font-family:'Serif'; stroke:white;"><rect height="10" style="stroke:none;" width="6" x="71" y="174" /><path d="M73.1094 183.3906 Q73.1094 183.0625 73.3359 182.8359 Q73.5625 182.6094 73.8906 182.6094 Q74.2188 182.6094 74.4453 182.8359 Q74.6719 183.0625 74.6719 183.3906 Q74.6719 183.7188 74.4453 183.9453 Q74.2188 184.1719 73.8906 184.1719 Q73.5625 184.1719 73.3359 183.9453 Q73.1094 183.7188 73.1094 183.3906 ZM71.8125 175.6406 Q72.4375 175.3594 73 175.2266 Q73.5625 175.0938 74.0469 175.0938 Q75.3438 175.0938 76.1016 175.7188 Q76.8594 176.3438 76.8594 177.4062 Q76.8594 178.5 76.2109 179.1953 Q75.5625 179.8906 74.25 180.1875 L74.25 181.6719 L73.5312 181.6719 L73.5312 179.75 Q74.5625 179.5 75.0938 178.9062 Q75.625 178.3125 75.625 177.4062 Q75.625 176.5938 75.1953 176.1328 Q74.7656 175.6719 74.0312 175.6719 Q73.3594 175.6719 72.9297 176.0547 Q72.5 176.4375 72.3906 177.1562 L71.8125 177.1562 L71.8125 175.6406 Z" style="fill:black; stroke:none;" /><rect height="10" style="stroke:none;" width="6" x="57" y="174" /><path d="M59.1094 183.3906 Q59.1094 183.0625 59.3359 182.8359 Q59.5625 182.6094 59.8906 182.6094 Q60.2188 182.6094 60.4453 182.8359 Q60.6719 183.0625 60.6719 183.3906 Q60.6719 183.7188 60.4453 183.9453 Q60.2188 184.1719 59.8906 184.1719 Q59.5625 184.1719 59.3359 183.9453 Q59.1094 183.7188 59.1094 183.3906 ZM57.8125 175.6406 Q58.4375 175.3594 59 175.2266 Q59.5625 175.0938 60.0469 175.0938 Q61.3438 175.0938 62.1016 175.7188 Q62.8594 176.3438 62.8594 177.4062 Q62.8594 178.5 62.2109 179.1953 Q61.5625 179.8906 60.25 180.1875 L60.25 181.6719 L59.5312 181.6719 L59.5312 179.75 Q60.5625 179.5 61.0938 178.9062 Q61.625 178.3125 61.625 177.4062 Q61.625 176.5938 61.1953 176.1328 Q60.7656 175.6719 60.0312 175.6719 Q59.3594 175.6719 58.9297 176.0547 Q58.5 176.4375 58.3906 177.1562 L57.8125 177.1562 L57.8125 175.6406 Z" style="fill:black; stroke:none;" /></g><g ID="r-1:5" style="fill:white; text-rendering:optimizeSpeed; stroke:white;" wurcs_mono_id="5"><polygon points=" 93 108 104 119 93 130 82 119" style="stroke:none; clip-path:url(#clipPath5);" /><rect height="22" style="clip-path:url(#clipPath5); fill:rgb(165,67,153); stroke:none;" width="22" x="82" y="108" /><rect height="22" style="clip-path:url(#clipPath5); fill:none; stroke:black;" width="22" x="82" y="108" /><polygon points=" 93 108 104 119 93 130 82 119" style="fill:none; stroke:black;" /></g><g ID="li-1:2,4" style="fill:white; text-rendering:optimizeSpeed; font-family:'Serif'; stroke:white;"><rect height="10" style="stroke:none;" width="6" x="127" y="156" /><path d="M129.1094 165.3906 Q129.1094 165.0625 129.3359 164.8359 Q129.5625 164.6094 129.8906 164.6094 Q130.2188 164.6094 130.4453 164.8359 Q130.6719 165.0625 130.6719 165.3906 Q130.6719 165.7188 130.4453 165.9453 Q130.2188 166.1719 129.8906 166.1719 Q129.5625 166.1719 129.3359 165.9453 Q129.1094 165.7188 129.1094 165.3906 ZM127.8125 157.6406 Q128.4375 157.3594 129 157.2266 Q129.5625 157.0938 130.0469 157.0938 Q131.3438 157.0938 132.1016 157.7188 Q132.8594 158.3438 132.8594 159.4062 Q132.8594 160.5 132.2109 161.1953 Q131.5625 161.8906 130.25 162.1875 L130.25 163.6719 L129.5312 163.6719 L129.5312 161.75 Q130.5625 161.5 131.0938 160.9062 Q131.625 160.3125 131.625 159.4062 Q131.625 158.5938 131.1953 158.1328 Q130.7656 157.6719 130.0312 157.6719 Q129.3594 157.6719 128.9297 158.0547 Q128.5 158.4375 128.3906 159.1562 L127.8125 159.1562 L127.8125 157.6406 Z" style="fill:black; stroke:none;" /><rect height="10" style="stroke:none;" width="6" x="111" y="164" /><path d="M113.1094 173.3906 Q113.1094 173.0625 113.3359 172.8359 Q113.5625 172.6094 113.8906 172.6094 Q114.2188 172.6094 114.4453 172.8359 Q114.6719 173.0625 114.6719 173.3906 Q114.6719 173.7188 114.4453 173.9453 Q114.2188 174.1719 113.8906 174.1719 Q113.5625 174.1719 113.3359 173.9453 Q113.1094 173.7188 113.1094 173.3906 ZM111.8125 165.6406 Q112.4375 165.3594 113 165.2266 Q113.5625 165.0938 114.0469 165.0938 Q115.3438 165.0938 116.1016 165.7188 Q116.8594 166.3438 116.8594 167.4062 Q116.8594 168.5 116.2109 169.1953 Q115.5625 169.8906 114.25 170.1875 L114.25 171.6719 L113.5312 171.6719 L113.5312 169.75 Q114.5625 169.5 115.0938 168.9062 Q115.625 168.3125 115.625 167.4062 Q115.625 166.5938 115.1953 166.1328 Q114.7656 165.6719 114.0312 165.6719 Q113.3594 165.6719 112.9297 166.0547 Q112.5 166.4375 112.3906 167.1562 L111.8125 167.1562 L111.8125 165.6406 Z" style="fill:black; stroke:none;" /></g><g ID="li-1:2,5" style="fill:white; text-rendering:optimizeSpeed; font-family:'Serif'; stroke:white;"><rect height="10" style="stroke:none;" width="6" x="120" y="138" /><path d="M122.1094 147.3906 Q122.1094 147.0625 122.3359 146.8359 Q122.5625 146.6094 122.8906 146.6094 Q123.2188 146.6094 123.4453 146.8359 Q123.6719 147.0625 123.6719 147.3906 Q123.6719 147.7188 123.4453 147.9453 Q123.2188 148.1719 122.8906 148.1719 Q122.5625 148.1719 122.3359 147.9453 Q122.1094 147.7188 122.1094 147.3906 ZM120.8125 139.6406 Q121.4375 139.3594 122 139.2266 Q122.5625 139.0938 123.0469 139.0938 Q124.3438 139.0938 125.1016 139.7188 Q125.8594 140.3438 125.8594 141.4062 Q125.8594 142.5 125.2109 143.1953 Q124.5625 143.8906 123.25 144.1875 L123.25 145.6719 L122.5312 145.6719 L122.5312 143.75 Q123.5625 143.5 124.0938 142.9062 Q124.625 142.3125 124.625 141.4062 Q124.625 140.5938 124.1953 140.1328 Q123.7656 139.6719 123.0312 139.6719 Q122.3594 139.6719 121.9297 140.0547 Q121.5 140.4375 121.3906 141.1562 L120.8125 141.1562 L120.8125 139.6406 Z" style="fill:black; stroke:none;" /><rect height="10" style="stroke:none;" width="6" x="104" y="130" /><path d="M106.1094 139.3906 Q106.1094 139.0625 106.3359 138.8359 Q106.5625 138.6094 106.8906 138.6094 Q107.2188 138.6094 107.4453 138.8359 Q107.6719 139.0625 107.6719 139.3906 Q107.6719 139.7188 107.4453 139.9453 Q107.2188 140.1719 106.8906 140.1719 Q106.5625 140.1719 106.3359 139.9453 Q106.1094 139.7188 106.1094 139.3906 ZM104.8125 131.6406 Q105.4375 131.3594 106 131.2266 Q106.5625 131.0938 107.0469 131.0938 Q108.3438 131.0938 109.1016 131.7188 Q109.8594 132.3438 109.8594 133.4062 Q109.8594 134.5 109.2109 135.1953 Q108.5625 135.8906 107.25 136.1875 L107.25 137.6719 L106.5312 137.6719 L106.5312 135.75 Q107.5625 135.5 108.0938 134.9062 Q108.625 134.3125 108.625 133.4062 Q108.625 132.5938 108.1953 132.1328 Q107.7656 131.6719 107.0312 131.6719 Q106.3594 131.6719 105.9297 132.0547 Q105.5 132.4375 105.3906 133.1562 L104.8125 133.1562 L104.8125 131.6406 Z" style="fill:black; stroke:none;" /></g><g ID="l-1:3,7" style="text-rendering:optimizeSpeed;"><polygon points=" 145 93 145 41" style="fill:none;" /></g><g ID="r-1:3" style="fill:white; text-rendering:optimizeSpeed; stroke:white;" wurcs_mono_id="6"><circle cx="145" cy="93" r="11" style="clip-path:url(#clipPath6); stroke:none;" /><rect height="22" style="clip-path:url(#clipPath6); fill:rgb(255,212,0); stroke:none;" width="22" x="134" y="82" /><rect height="22" style="clip-path:url(#clipPath6); fill:none; stroke:black;" width="22" x="134" y="82" /><circle cx="145" cy="93" r="11" style="fill:none; stroke:black;" /></g><g ID="r-1:7" style="fill:white; text-rendering:optimizeSpeed; stroke:white;" wurcs_mono_id="7"><polygon points=" 145 52 134 30 156 30" style="stroke:none; clip-path:url(#clipPath7);" /><rect height="22" style="clip-path:url(#clipPath7); fill:rgb(237,28,36); stroke:none;" width="22" x="134" y="30" /><rect height="22" style="clip-path:url(#clipPath7); fill:none; stroke:black;" width="22" x="134" y="30" /><polygon points=" 145 52 134 30 156 30" style="fill:none; stroke:black;" /></g><g ID="li-1:3,7" style="fill:white; text-rendering:optimizeSpeed; font-family:'Serif'; stroke:white;"><rect height="10" style="stroke:none;" width="6" x="134" y="69" /><path d="M136.1094 78.3906 Q136.1094 78.0625 136.3359 77.8359 Q136.5625 77.6094 136.8906 77.6094 Q137.2188 77.6094 137.4453 77.8359 Q137.6719 78.0625 137.6719 78.3906 Q137.6719 78.7188 137.4453 78.9453 Q137.2188 79.1719 136.8906 79.1719 Q136.5625 79.1719 136.3359 78.9453 Q136.1094 78.7188 136.1094 78.3906 ZM134.8125 70.6406 Q135.4375 70.3594 136 70.2266 Q136.5625 70.0938 137.0469 70.0938 Q138.3438 70.0938 139.1016 70.7188 Q139.8594 71.3438 139.8594 72.4062 Q139.8594 73.5 139.2109 74.1953 Q138.5625 74.8906 137.25 75.1875 L137.25 76.6719 L136.5312 76.6719 L136.5312 74.75 Q137.5625 74.5 138.0938 73.9062 Q138.625 73.3125 138.625 72.4062 Q138.625 71.5938 138.1953 71.1328 Q137.7656 70.6719 137.0312 70.6719 Q136.3594 70.6719 135.9297 71.0547 Q135.5 71.4375 135.3906 72.1562 L134.8125 72.1562 L134.8125 70.6406 Z" style="fill:black; stroke:none;" /><rect height="10" style="stroke:none;" width="6" x="134" y="55" /><path d="M136.1094 64.3906 Q136.1094 64.0625 136.3359 63.8359 Q136.5625 63.6094 136.8906 63.6094 Q137.2188 63.6094 137.4453 63.8359 Q137.6719 64.0625 137.6719 64.3906 Q137.6719 64.7188 137.4453 64.9453 Q137.2188 65.1719 136.8906 65.1719 Q136.5625 65.1719 136.3359 64.9453 Q136.1094 64.7188 136.1094 64.3906 ZM134.8125 56.6406 Q135.4375 56.3594 136 56.2266 Q136.5625 56.0938 137.0469 56.0938 Q138.3438 56.0938 139.1016 56.7188 Q139.8594 57.3438 139.8594 58.4062 Q139.8594 59.5 139.2109 60.1953 Q138.5625 60.8906 137.25 61.1875 L137.25 62.6719 L136.5312 62.6719 L136.5312 60.75 Q137.5625 60.5 138.0938 59.9062 Q138.625 59.3125 138.625 58.4062 Q138.625 57.5938 138.1953 57.1328 Q137.7656 56.6719 137.0312 56.6719 Q136.3594 56.6719 135.9297 57.0547 Q135.5 57.4375 135.3906 58.1562 L134.8125 58.1562 L134.8125 56.6406 Z" style="fill:black; stroke:none;" /></g><g ID="li-1:1,2" style="fill:white; text-rendering:optimizeSpeed; font-family:'Serif'; stroke:white;"><rect height="10" style="stroke:none;" width="6" x="179" y="130" /><path d="M181.1094 139.3906 Q181.1094 139.0625 181.3359 138.8359 Q181.5625 138.6094 181.8906 138.6094 Q182.2188 138.6094 182.4453 138.8359 Q182.6719 139.0625 182.6719 139.3906 Q182.6719 139.7188 182.4453 139.9453 Q182.2188 140.1719 181.8906 140.1719 Q181.5625 140.1719 181.3359 139.9453 Q181.1094 139.7188 181.1094 139.3906 ZM179.8125 131.6406 Q180.4375 131.3594 181 131.2266 Q181.5625 131.0938 182.0469 131.0938 Q183.3438 131.0938 184.1016 131.7188 Q184.8594 132.3438 184.8594 133.4062 Q184.8594 134.5 184.2109 135.1953 Q183.5625 135.8906 182.25 136.1875 L182.25 137.6719 L181.5312 137.6719 L181.5312 135.75 Q182.5625 135.5 183.0938 134.9062 Q183.625 134.3125 183.625 133.4062 Q183.625 132.5938 183.1953 132.1328 Q182.7656 131.6719 182.0312 131.6719 Q181.3594 131.6719 180.9297 132.0547 Q180.5 132.4375 180.3906 133.1562 L179.8125 133.1562 L179.8125 131.6406 Z" style="fill:black; stroke:none;" /><rect height="10" style="stroke:none;" width="6" x="163" y="138" /><path d="M165.1094 147.3906 Q165.1094 147.0625 165.3359 146.8359 Q165.5625 146.6094 165.8906 146.6094 Q166.2188 146.6094 166.4453 146.8359 Q166.6719 147.0625 166.6719 147.3906 Q166.6719 147.7188 166.4453 147.9453 Q166.2188 148.1719 165.8906 148.1719 Q165.5625 148.1719 165.3359 147.9453 Q165.1094 147.7188 165.1094 147.3906 ZM163.8125 139.6406 Q164.4375 139.3594 165 139.2266 Q165.5625 139.0938 166.0469 139.0938 Q167.3438 139.0938 168.1016 139.7188 Q168.8594 140.3438 168.8594 141.4062 Q168.8594 142.5 168.2109 143.1953 Q167.5625 143.8906 166.25 144.1875 L166.25 145.6719 L165.5312 145.6719 L165.5312 143.75 Q166.5625 143.5 167.0938 142.9062 Q167.625 142.3125 167.625 141.4062 Q167.625 140.5938 167.1953 140.1328 Q166.7656 139.6719 166.0312 139.6719 Q165.3594 139.6719 164.9297 140.0547 Q164.5 140.4375 164.3906 141.1562 L163.8125 141.1562 L163.8125 139.6406 Z" style="fill:black; stroke:none;" /></g><g ID="li-1:1,3" style="fill:white; text-rendering:optimizeSpeed; font-family:'Serif'; stroke:white;"><rect height="10" style="stroke:none;" width="6" x="172" y="112" /><path d="M174.1094 121.3906 Q174.1094 121.0625 174.3359 120.8359 Q174.5625 120.6094 174.8906 120.6094 Q175.2188 120.6094 175.4453 120.8359 Q175.6719 121.0625 175.6719 121.3906 Q175.6719 121.7188 175.4453 121.9453 Q175.2188 122.1719 174.8906 122.1719 Q174.5625 122.1719 174.3359 121.9453 Q174.1094 121.7188 174.1094 121.3906 ZM172.8125 113.6406 Q173.4375 113.3594 174 113.2266 Q174.5625 113.0938 175.0469 113.0938 Q176.3438 113.0938 177.1016 113.7188 Q177.8594 114.3438 177.8594 115.4062 Q177.8594 116.5 177.2109 117.1953 Q176.5625 117.8906 175.25 118.1875 L175.25 119.6719 L174.5312 119.6719 L174.5312 117.75 Q175.5625 117.5 176.0938 116.9062 Q176.625 116.3125 176.625 115.4062 Q176.625 114.5938 176.1953 114.1328 Q175.7656 113.6719 175.0312 113.6719 Q174.3594 113.6719 173.9297 114.0547 Q173.5 114.4375 173.3906 115.1562 L172.8125 115.1562 L172.8125 113.6406 Z" style="fill:black; stroke:none;" /><rect height="10" style="stroke:none;" width="6" x="156" y="104" /><path d="M158.1094 113.3906 Q158.1094 113.0625 158.3359 112.8359 Q158.5625 112.6094 158.8906 112.6094 Q159.2188 112.6094 159.4453 112.8359 Q159.6719 113.0625 159.6719 113.3906 Q159.6719 113.7188 159.4453 113.9453 Q159.2188 114.1719 158.8906 114.1719 Q158.5625 114.1719 158.3359 113.9453 Q158.1094 113.7188 158.1094 113.3906 ZM156.8125 105.6406 Q157.4375 105.3594 158 105.2266 Q158.5625 105.0938 159.0469 105.0938 Q160.3438 105.0938 161.1016 105.7188 Q161.8594 106.3438 161.8594 107.4062 Q161.8594 108.5 161.2109 109.1953 Q160.5625 109.8906 159.25 110.1875 L159.25 111.6719 L158.5312 111.6719 L158.5312 109.75 Q159.5625 109.5 160.0938 108.9062 Q160.625 108.3125 160.625 107.4062 Q160.625 106.5938 160.1953 106.1328 Q159.7656 105.6719 159.0312 105.6719 Q158.3594 105.6719 157.9297 106.0547 Q157.5 106.4375 157.3906 107.1562 L156.8125 107.1562 L156.8125 105.6406 Z" style="fill:black; stroke:none;" /></g></g></svg>