<svg xmlns="http://www.w3.org/2000/svg" style="fill-opacity:1; color-rendering:auto; color-interpolation:auto; text-rendering:auto; stroke:black; stroke-linecap:square; stroke-miterlimit:10; shape-rendering:auto; stroke-opacity:1; fill:black; stroke-dasharray:none; font-weight:normal; stroke-width:1; font-family:'Dialog'; font-style:normal; stroke-linejoin:miter; font-size:12px; stroke-dashoffset:0; image-rendering:auto;"><defs id="genericDefs" /><g><defs id="defs1"><clipPath clipPathUnits="userSpaceOnUse" id="clipPath1"><path d="M498 30 L520 30 L520 52 L498 52 L498 30 Z" /></clipPath><clipPath clipPathUnits="userSpaceOnUse" id="clipPath2"><path d="M468 41 C468 47.0751 463.0751 52 457 52 C450.9249 52 446 47.0751 446 41 C446 34.9249 450.9249 30 457 30 C463.0751 30 468 34.9249 468 41 Z" /></clipPath><clipPath clipPathUnits="userSpaceOnUse" id="clipPath3"><path d="M416 41 C416 47.0751 411.0751 52 405 52 C398.9249 52 394 47.0751 394 41 C394 34.9249 398.9249 30 405 30 C411.0751 30 416 34.9249 416 41 Z" /></clipPath><clipPath clipPathUnits="userSpaceOnUse" id="clipPath4"><path d="M364 41 C364 47.0751 359.0751 52 353 52 C346.9249 52 342 47.0751 342 41 C342 34.9249 346.9249 30 353 30 C359.0751 30 364 34.9249 364 41 Z" /></clipPath><clipPath clipPathUnits="userSpaceOnUse" id="clipPath5"><path d="M312 41 C312 47.0751 307.0751 52 301 52 C294.9249 52 290 47.0751 290 41 C290 34.9249 294.9249 30 301 30 C307.0751 30 312 34.9249 312 41 Z" /></clipPath><clipPath clipPathUnits="userSpaceOnUse" id="clipPath6"><path d="M260 41 C260 47.0751 255.0751 52 249 52 C242.9249 52 238 47.0751 238 41 C238 34.9249 242.9249 30 249 30 C255.0751 30 260 34.9249 260 41 Z" /></clipPath><clipPath clipPathUnits="userSpaceOnUse" id="clipPath7"><path d="M208 41 C208 47.0751 203.0751 52 197 52 C190.9249 52 186 47.0751 186 41 C186 34.9249 190.9249 30 197 30 C203.0751 30 208 34.9249 208 41 Z" /></clipPath><clipPath clipPathUnits="userSpaceOnUse" id="clipPath8"><path d="M156 41 C156 47.0751 151.0751 52 145 52 C138.9249 52 134 47.0751 134 41 C134 34.9249 138.9249 30 145 30 C151.0751 30 156 34.9249 156 41 Z" /></clipPath><clipPath clipPathUnits="userSpaceOnUse" id="clipPath9"><path d="M104 41 C104 47.0751 99.0751 52 93 52 C86.9249 52 82 47.0751 82 41 C82 34.9249 86.9249 30 93 30 C99.0751 30 104 34.9249 104 41 Z" /></clipPath><clipPath clipPathUnits="userSpaceOnUse" id="clipPath10"><path d="M52 41 C52 47.0751 47.0751 52 41 52 C34.9249 52 30 47.0751 30 41 C30 34.9249 34.9249 30 41 30 C47.0751 30 52 34.9249 52 41 Z" /></clipPath></defs><g style="fill:white; text-rendering:optimizeSpeed; stroke:white;"><rect height="82" style="stroke:none;" width="550" x="0" y="0" /></g><g ID="l-1:1,2" style="text-rendering:optimizeSpeed;"><polygon points=" 509 41 457 41" style="fill:none;" /></g><g ID="r-1:1" style="fill:white; text-rendering:optimizeSpeed; stroke:white;" wurcs_mono_id="1"><rect height="22" style="clip-path:url(#clipPath1); stroke:none;" width="22" x="498" y="30" /><rect height="22" style="clip-path:url(#clipPath1); fill:rgb(0,144,188); stroke:none;" width="22" x="498" y="30" /><rect height="22" style="clip-path:url(#clipPath1); fill:none; stroke:black;" width="22" x="498" y="30" /><rect height="22" style="fill:none; stroke:black;" width="22" x="498" y="30" /></g><g ID="l-1:2,3" style="text-rendering:optimizeSpeed;"><polygon points=" 457 41 405 41" style="fill:none;" /></g><g ID="r-1:2" style="fill:white; text-rendering:optimizeSpeed; stroke:white;" wurcs_mono_id="2"><circle cx="457" cy="41" r="11" style="clip-path:url(#clipPath2); stroke:none;" /><rect height="22" style="clip-path:url(#clipPath2); fill:rgb(0,166,81); stroke:none;" width="22" x="446" y="30" /><rect height="22" style="clip-path:url(#clipPath2); fill:none; stroke:black;" width="22" x="446" y="30" /><circle cx="457" cy="41" r="11" style="fill:none; stroke:black;" /></g><g ID="l-1:3,4" style="text-rendering:optimizeSpeed;"><polygon points=" 405 41 353 41" style="fill:none;" /></g><g ID="r-1:3" style="fill:white; text-rendering:optimizeSpeed; stroke:white;" wurcs_mono_id="3"><circle cx="405" cy="41" r="11" style="clip-path:url(#clipPath3); stroke:none;" /><rect height="22" style="clip-path:url(#clipPath3); fill:rgb(0,166,81); stroke:none;" width="22" x="394" y="30" /><rect height="22" style="clip-path:url(#clipPath3); fill:none; stroke:black;" width="22" x="394" y="30" /><circle cx="405" cy="41" r="11" style="fill:none; stroke:black;" /></g><g ID="l-1:4,5" style="text-rendering:optimizeSpeed;"><polygon points=" 353 41 301 41" style="fill:none;" /></g><g ID="r-1:4" style="fill:white; text-rendering:optimizeSpeed; stroke:white;" wurcs_mono_id="4"><circle cx="353" cy="41" r="11" style="clip-path:url(#clipPath4); stroke:none;" /><rect height="22" style="clip-path:url(#clipPath4); fill:rgb(0,166,81); stroke:none;" width="22" x="342" y="30" /><rect height="22" style="clip-path:url(#clipPath4); fill:none; stroke:black;" width="22" x="342" y="30" /><circle cx="353" cy="41" r="11" style="fill:none; stroke:black;" /></g><g ID="l-1:5,6" style="text-rendering:optimizeSpeed;"><polygon points=" 301 41 249 41" style="fill:none;" /></g><g ID="r-1:5" style="fill:white; text-rendering:optimizeSpeed; stroke:white;" wurcs_mono_id="5"><circle cx="301" cy="41" r="11" style="clip-path:url(#clipPath5); stroke:none;" /><rect height="22" style="clip-path:url(#clipPath5); fill:rgb(0,166,81); stroke:none;" width="22" x="290" y="30" /><rect height="22" style="clip-path:url(#clipPath5); fill:none; stroke:black;" width="22" x="290" y="30" /><circle cx="301" cy="41" r="11" style="fill:none; stroke:black;" /></g><g ID="l-1:6,7" style="text-rendering:optimizeSpeed;"><polygon points=" 249 41 197 41" style="fill:none;" /></g><g ID="r-1:6" style="fill:white; text-rendering:optimizeSpeed; stroke:white;" wurcs_mono_id="6"><circle cx="249" cy="41" r="11" style="clip-path:url(#clipPath6); stroke:none;" /><rect height="22" style="clip-path:url(#clipPath6); fill:rgb(0,166,81); stroke:none;" width="22" x="238" y="30" /><rect height="22" style="clip-path:url(#clipPath6); fill:none; stroke:black;" width="22" x="238" y="30" /><circle cx="249" cy="41" r="11" style="fill:none; stroke:black;" /></g><g ID="l-1:7,8" style="text-rendering:optimizeSpeed;"><polygon points=" 197 41 145 41" style="fill:none;" /></g><g ID="r-1:7" style="fill:white; text-rendering:optimizeSpeed; stroke:white;" wurcs_mono_id="7"><circle cx="197" cy="41" r="11" style="clip-path:url(#clipPath7); stroke:none;" /><rect height="22" style="clip-path:url(#clipPath7); fill:rgb(0,166,81); stroke:none;" width="22" x="186" y="30" /><rect height="22" style="clip-path:url(#clipPath7); fill:none; stroke:black;" width="22" x="186" y="30" /><circle cx="197" cy="41" r="11" style="fill:none; stroke:black;" /></g><g ID="l-1:8,9" style="text-rendering:optimizeSpeed;"><polygon points=" 145 41 93 41" style="fill:none;" /></g><g ID="r-1:8" style="fill:white; text-rendering:optimizeSpeed; stroke:white;" wurcs_mono_id="8"><circle cx="145" cy="41" r="11" style="clip-path:url(#clipPath8); stroke:none;" /><rect height="22" style="clip-path:url(#clipPath8); fill:rgb(0,166,81); stroke:none;" width="22" x="134" y="30" /><rect height="22" style="clip-path:url(#clipPath8); fill:none; stroke:black;" width="22" x="134" y="30" /><circle cx="145" cy="41" r="11" style="fill:none; stroke:black;" /></g><g ID="l-1:9,10" style="text-rendering:optimizeSpeed;"><polygon points=" 93 41 41 41" style="fill:none;" /></g><g ID="r-1:9" style="fill:white; text-rendering:optimizeSpeed; stroke:white;" wurcs_mono_id="9"><circle cx="93" cy="41" r="11" style="clip-path:url(#clipPath9); stroke:none;" /><rect height="22" style="clip-path:url(#clipPath9); fill:rgb(0,166,81); stroke:none;" width="22" x="82" y="30" /><rect height="22" style="clip-path:url(#clipPath9); fill:none; stroke:black;" width="22" x="82" y="30" /><circle cx="93" cy="41" r="11" style="fill:none; stroke:black;" /></g><g ID="r-1:10" style="fill:white; text-rendering:optimizeSpeed; stroke:white;" wurcs_mono_id="10"><circle cx="41" cy="41" r="11" style="clip-path:url(#clipPath10); stroke:none;" /><rect height="22" style="clip-path:url(#clipPath10); fill:rgb(0,166,81); stroke:none;" width="22" x="30" y="30" /><rect height="22" style="clip-path:url(#clipPath10); fill:none; stroke:black;" width="22" x="30" y="30" /><circle cx="41" cy="41" r="11" style="fill:none; stroke:black;" /></g><g ID="li-1:9,10" style="fill:white; text-rendering:optimizeSpeed; font-family:'Serif'; stroke:white;"><rect height="9" style="stroke:none;" width="7" x="70" y="44" /><path d="M71.5312 46.3438 L70.875 46.3438 L70.875 44.7812 Q71.5 44.4375 72.1406 44.2656 Q72.7812 44.0938 73.3906 44.0938 Q74.75 44.0938 75.5391 44.7578 Q76.3281 45.4219 76.3281 46.5469 Q76.3281 47.8438 74.5469 49.625 Q74.4062 49.7656 74.3281 49.8281 L72.125 52.0312 L75.7656 52.0312 L75.7656 50.9531 L76.4531 50.9531 L76.4531 53 L70.8125 53 L70.8125 52.3594 L73.4688 49.7188 Q74.3438 48.8281 74.7188 48.0938 Q75.0938 47.3594 75.0938 46.5469 Q75.0938 45.6719 74.6328 45.1719 Q74.1719 44.6719 73.375 44.6719 Q72.5312 44.6719 72.0781 45.0859 Q71.625 45.5 71.5312 46.3438 Z" style="fill:black; stroke:none;" /><rect height="8" style="stroke:none;" width="8" x="56" y="45" /><path d="M61.1875 51.4688 L60.9531 52.1094 Q60.7656 52.625 60.2031 52.9375 Q59.8438 53.1562 59.2031 53.1406 Q58.0469 53.1406 57.3281 52.2344 Q56.5938 51.3281 56.5938 49.8594 Q56.5938 48.4219 57.3281 47.4844 Q58.0156 46.5938 59.4531 46.6094 Q60.4531 46.6094 60.9531 47 Q61.4062 47.3438 61.5781 48.0938 L61.625 48.3125 L61.8438 47.6719 Q62.0625 47.0469 62.6562 46.75 L63.25 46.75 L63.25 47.0938 Q62.6875 47.2656 62.5 47.8125 L61.8906 49.4844 L62.2969 51.2812 Q62.5 52.2031 62.7344 52.2969 Q63.0469 52.4375 63.7812 52 L63.7812 52.7188 Q62.5938 53.4062 61.75 52.6875 Q61.375 52.3594 61.2656 51.875 L61.1875 51.4688 ZM60.9219 50.3125 L60.5625 48.5938 Q60.2656 47.2188 59.4688 47.2188 Q58.7969 47.2031 58.2812 47.9375 Q57.8594 48.5156 57.8594 49.875 Q57.8594 51.1719 58.2812 51.8281 Q58.75 52.5469 59.5312 52.5 Q60.2031 52.4375 60.6875 51 L60.9219 50.3125 Z" style="fill:black; stroke:none;" /></g><g ID="li-1:8,9" style="fill:white; text-rendering:optimizeSpeed; font-family:'Serif'; stroke:white;"><rect height="9" style="stroke:none;" width="7" x="122" y="44" /><path d="M123.5312 46.3438 L122.875 46.3438 L122.875 44.7812 Q123.5 44.4375 124.1406 44.2656 Q124.7812 44.0938 125.3906 44.0938 Q126.75 44.0938 127.5391 44.7578 Q128.3281 45.4219 128.3281 46.5469 Q128.3281 47.8438 126.5469 49.625 Q126.4062 49.7656 126.3281 49.8281 L124.125 52.0312 L127.7656 52.0312 L127.7656 50.9531 L128.4531 50.9531 L128.4531 53 L122.8125 53 L122.8125 52.3594 L125.4688 49.7188 Q126.3438 48.8281 126.7188 48.0938 Q127.0938 47.3594 127.0938 46.5469 Q127.0938 45.6719 126.6328 45.1719 Q126.1719 44.6719 125.375 44.6719 Q124.5312 44.6719 124.0781 45.0859 Q123.625 45.5 123.5312 46.3438 Z" style="fill:black; stroke:none;" /><rect height="8" style="stroke:none;" width="8" x="108" y="45" /><path d="M113.1875 51.4688 L112.9531 52.1094 Q112.7656 52.625 112.2031 52.9375 Q111.8438 53.1562 111.2031 53.1406 Q110.0469 53.1406 109.3281 52.2344 Q108.5938 51.3281 108.5938 49.8594 Q108.5938 48.4219 109.3281 47.4844 Q110.0156 46.5938 111.4531 46.6094 Q112.4531 46.6094 112.9531 47 Q113.4062 47.3438 113.5781 48.0938 L113.625 48.3125 L113.8438 47.6719 Q114.0625 47.0469 114.6562 46.75 L115.25 46.75 L115.25 47.0938 Q114.6875 47.2656 114.5 47.8125 L113.8906 49.4844 L114.2969 51.2812 Q114.5 52.2031 114.7344 52.2969 Q115.0469 52.4375 115.7812 52 L115.7812 52.7188 Q114.5938 53.4062 113.75 52.6875 Q113.375 52.3594 113.2656 51.875 L113.1875 51.4688 ZM112.9219 50.3125 L112.5625 48.5938 Q112.2656 47.2188 111.4688 47.2188 Q110.7969 47.2031 110.2812 47.9375 Q109.8594 48.5156 109.8594 49.875 Q109.8594 51.1719 110.2812 51.8281 Q110.75 52.5469 111.5312 52.5 Q112.2031 52.4375 112.6875 51 L112.9219 50.3125 Z" style="fill:black; stroke:none;" /></g><g ID="li-1:7,8" style="fill:white; text-rendering:optimizeSpeed; font-family:'Serif'; stroke:white;"><rect height="10" style="stroke:none;" width="7" x="174" y="44" /><path d="M175.1719 45.625 Q175.8594 45.3594 176.4844 45.2266 Q177.1094 45.0938 177.6562 45.0938 Q178.9531 45.0938 179.6719 45.6484 Q180.3906 46.2031 180.3906 47.1875 Q180.3906 47.9688 179.8906 48.5 Q179.3906 49.0312 178.4844 49.2188 Q179.5625 49.375 180.1562 50.0078 Q180.75 50.6406 180.75 51.6406 Q180.75 52.8594 179.9219 53.5156 Q179.0938 54.1719 177.5469 54.1719 Q176.8594 54.1719 176.2109 54.0234 Q175.5625 53.875 174.9219 53.5781 L174.9219 51.875 L175.5781 51.875 Q175.625 52.7188 176.1406 53.1562 Q176.6562 53.5938 177.5781 53.5938 Q178.4688 53.5938 178.9922 53.0703 Q179.5156 52.5469 179.5156 51.6562 Q179.5156 50.625 178.9766 50.0938 Q178.4375 49.5625 177.4062 49.5625 L176.8594 49.5625 L176.8594 48.9531 L177.1406 48.9531 Q178.1719 48.9531 178.6875 48.5312 Q179.2031 48.1094 179.2031 47.25 Q179.2031 46.4844 178.7812 46.0781 Q178.3594 45.6719 177.5625 45.6719 Q176.7656 45.6719 176.3359 46.0469 Q175.9062 46.4219 175.8281 47.1562 L175.1719 47.1562 L175.1719 45.625 Z" style="fill:black; stroke:none;" /><rect height="8" style="stroke:none;" width="8" x="160" y="45" /><path d="M165.1875 51.4688 L164.9531 52.1094 Q164.7656 52.625 164.2031 52.9375 Q163.8438 53.1562 163.2031 53.1406 Q162.0469 53.1406 161.3281 52.2344 Q160.5938 51.3281 160.5938 49.8594 Q160.5938 48.4219 161.3281 47.4844 Q162.0156 46.5938 163.4531 46.6094 Q164.4531 46.6094 164.9531 47 Q165.4062 47.3438 165.5781 48.0938 L165.625 48.3125 L165.8438 47.6719 Q166.0625 47.0469 166.6562 46.75 L167.25 46.75 L167.25 47.0938 Q166.6875 47.2656 166.5 47.8125 L165.8906 49.4844 L166.2969 51.2812 Q166.5 52.2031 166.7344 52.2969 Q167.0469 52.4375 167.7812 52 L167.7812 52.7188 Q166.5938 53.4062 165.75 52.6875 Q165.375 52.3594 165.2656 51.875 L165.1875 51.4688 ZM164.9219 50.3125 L164.5625 48.5938 Q164.2656 47.2188 163.4688 47.2188 Q162.7969 47.2031 162.2812 47.9375 Q161.8594 48.5156 161.8594 49.875 Q161.8594 51.1719 162.2812 51.8281 Q162.75 52.5469 163.5312 52.5 Q164.2031 52.4375 164.6875 51 L164.9219 50.3125 Z" style="fill:black; stroke:none;" /></g><g ID="li-1:6,7" style="fill:white; text-rendering:optimizeSpeed; font-family:'Serif'; stroke:white;"><rect height="10" style="stroke:none;" width="7" x="226" y="44" /><path d="M227.1719 45.625 Q227.8594 45.3594 228.4844 45.2266 Q229.1094 45.0938 229.6562 45.0938 Q230.9531 45.0938 231.6719 45.6484 Q232.3906 46.2031 232.3906 47.1875 Q232.3906 47.9688 231.8906 48.5 Q231.3906 49.0312 230.4844 49.2188 Q231.5625 49.375 232.1562 50.0078 Q232.75 50.6406 232.75 51.6406 Q232.75 52.8594 231.9219 53.5156 Q231.0938 54.1719 229.5469 54.1719 Q228.8594 54.1719 228.2109 54.0234 Q227.5625 53.875 226.9219 53.5781 L226.9219 51.875 L227.5781 51.875 Q227.625 52.7188 228.1406 53.1562 Q228.6562 53.5938 229.5781 53.5938 Q230.4688 53.5938 230.9922 53.0703 Q231.5156 52.5469 231.5156 51.6562 Q231.5156 50.625 230.9766 50.0938 Q230.4375 49.5625 229.4062 49.5625 L228.8594 49.5625 L228.8594 48.9531 L229.1406 48.9531 Q230.1719 48.9531 230.6875 48.5312 Q231.2031 48.1094 231.2031 47.25 Q231.2031 46.4844 230.7812 46.0781 Q230.3594 45.6719 229.5625 45.6719 Q228.7656 45.6719 228.3359 46.0469 Q227.9062 46.4219 227.8281 47.1562 L227.1719 47.1562 L227.1719 45.625 Z" style="fill:black; stroke:none;" /><rect height="8" style="stroke:none;" width="8" x="212" y="45" /><path d="M217.1875 51.4688 L216.9531 52.1094 Q216.7656 52.625 216.2031 52.9375 Q215.8438 53.1562 215.2031 53.1406 Q214.0469 53.1406 213.3281 52.2344 Q212.5938 51.3281 212.5938 49.8594 Q212.5938 48.4219 213.3281 47.4844 Q214.0156 46.5938 215.4531 46.6094 Q216.4531 46.6094 216.9531 47 Q217.4062 47.3438 217.5781 48.0938 L217.625 48.3125 L217.8438 47.6719 Q218.0625 47.0469 218.6562 46.75 L219.25 46.75 L219.25 47.0938 Q218.6875 47.2656 218.5 47.8125 L217.8906 49.4844 L218.2969 51.2812 Q218.5 52.2031 218.7344 52.2969 Q219.0469 52.4375 219.7812 52 L219.7812 52.7188 Q218.5938 53.4062 217.75 52.6875 Q217.375 52.3594 217.2656 51.875 L217.1875 51.4688 ZM216.9219 50.3125 L216.5625 48.5938 Q216.2656 47.2188 215.4688 47.2188 Q214.7969 47.2031 214.2812 47.9375 Q213.8594 48.5156 213.8594 49.875 Q213.8594 51.1719 214.2812 51.8281 Q214.75 52.5469 215.5312 52.5 Q216.2031 52.4375 216.6875 51 L216.9219 50.3125 Z" style="fill:black; stroke:none;" /></g><g ID="li-1:5,6" style="fill:white; text-rendering:optimizeSpeed; font-family:'Serif'; stroke:white;"><rect height="9" style="stroke:none;" width="7" x="278" y="44" /><path d="M279.5312 46.3438 L278.875 46.3438 L278.875 44.7812 Q279.5 44.4375 280.1406 44.2656 Q280.7812 44.0938 281.3906 44.0938 Q282.75 44.0938 283.5391 44.7578 Q284.3281 45.4219 284.3281 46.5469 Q284.3281 47.8438 282.5469 49.625 Q282.4062 49.7656 282.3281 49.8281 L280.125 52.0312 L283.7656 52.0312 L283.7656 50.9531 L284.4531 50.9531 L284.4531 53 L278.8125 53 L278.8125 52.3594 L281.4688 49.7188 Q282.3438 48.8281 282.7188 48.0938 Q283.0938 47.3594 283.0938 46.5469 Q283.0938 45.6719 282.6328 45.1719 Q282.1719 44.6719 281.375 44.6719 Q280.5312 44.6719 280.0781 45.0859 Q279.625 45.5 279.5312 46.3438 Z" style="fill:black; stroke:none;" /><rect height="8" style="stroke:none;" width="8" x="264" y="45" /><path d="M269.1875 51.4688 L268.9531 52.1094 Q268.7656 52.625 268.2031 52.9375 Q267.8438 53.1562 267.2031 53.1406 Q266.0469 53.1406 265.3281 52.2344 Q264.5938 51.3281 264.5938 49.8594 Q264.5938 48.4219 265.3281 47.4844 Q266.0156 46.5938 267.4531 46.6094 Q268.4531 46.6094 268.9531 47 Q269.4062 47.3438 269.5781 48.0938 L269.625 48.3125 L269.8438 47.6719 Q270.0625 47.0469 270.6562 46.75 L271.25 46.75 L271.25 47.0938 Q270.6875 47.2656 270.5 47.8125 L269.8906 49.4844 L270.2969 51.2812 Q270.5 52.2031 270.7344 52.2969 Q271.0469 52.4375 271.7812 52 L271.7812 52.7188 Q270.5938 53.4062 269.75 52.6875 Q269.375 52.3594 269.2656 51.875 L269.1875 51.4688 ZM268.9219 50.3125 L268.5625 48.5938 Q268.2656 47.2188 267.4688 47.2188 Q266.7969 47.2031 266.2812 47.9375 Q265.8594 48.5156 265.8594 49.875 Q265.8594 51.1719 266.2812 51.8281 Q266.75 52.5469 267.5312 52.5 Q268.2031 52.4375 268.6875 51 L268.9219 50.3125 Z" style="fill:black; stroke:none;" /></g><g ID="li-1:4,5" style="fill:white; text-rendering:optimizeSpeed; font-family:'Serif'; stroke:white;"><rect height="9" style="stroke:none;" width="7" x="330" y="44" /><path d="M331.5312 46.3438 L330.875 46.3438 L330.875 44.7812 Q331.5 44.4375 332.1406 44.2656 Q332.7812 44.0938 333.3906 44.0938 Q334.75 44.0938 335.5391 44.7578 Q336.3281 45.4219 336.3281 46.5469 Q336.3281 47.8438 334.5469 49.625 Q334.4062 49.7656 334.3281 49.8281 L332.125 52.0312 L335.7656 52.0312 L335.7656 50.9531 L336.4531 50.9531 L336.4531 53 L330.8125 53 L330.8125 52.3594 L333.4688 49.7188 Q334.3438 48.8281 334.7188 48.0938 Q335.0938 47.3594 335.0938 46.5469 Q335.0938 45.6719 334.6328 45.1719 Q334.1719 44.6719 333.375 44.6719 Q332.5312 44.6719 332.0781 45.0859 Q331.625 45.5 331.5312 46.3438 Z" style="fill:black; stroke:none;" /><rect height="8" style="stroke:none;" width="8" x="316" y="45" /><path d="M321.1875 51.4688 L320.9531 52.1094 Q320.7656 52.625 320.2031 52.9375 Q319.8438 53.1562 319.2031 53.1406 Q318.0469 53.1406 317.3281 52.2344 Q316.5938 51.3281 316.5938 49.8594 Q316.5938 48.4219 317.3281 47.4844 Q318.0156 46.5938 319.4531 46.6094 Q320.4531 46.6094 320.9531 47 Q321.4062 47.3438 321.5781 48.0938 L321.625 48.3125 L321.8438 47.6719 Q322.0625 47.0469 322.6562 46.75 L323.25 46.75 L323.25 47.0938 Q322.6875 47.2656 322.5 47.8125 L321.8906 49.4844 L322.2969 51.2812 Q322.5 52.2031 322.7344 52.2969 Q323.0469 52.4375 323.7812 52 L323.7812 52.7188 Q322.5938 53.4062 321.75 52.6875 Q321.375 52.3594 321.2656 51.875 L321.1875 51.4688 ZM320.9219 50.3125 L320.5625 48.5938 Q320.2656 47.2188 319.4688 47.2188 Q318.7969 47.2031 318.2812 47.9375 Q317.8594 48.5156 317.8594 49.875 Q317.8594 51.1719 318.2812 51.8281 Q318.75 52.5469 319.5312 52.5 Q320.2031 52.4375 320.6875 51 L320.9219 50.3125 Z" style="fill:black; stroke:none;" /></g><g ID="li-1:3,4" style="fill:white; text-rendering:optimizeSpeed; font-family:'Serif'; stroke:white;"><rect height="10" style="stroke:none;" width="7" x="382" y="44" /><path d="M383.1719 45.625 Q383.8594 45.3594 384.4844 45.2266 Q385.1094 45.0938 385.6562 45.0938 Q386.9531 45.0938 387.6719 45.6484 Q388.3906 46.2031 388.3906 47.1875 Q388.3906 47.9688 387.8906 48.5 Q387.3906 49.0312 386.4844 49.2188 Q387.5625 49.375 388.1562 50.0078 Q388.75 50.6406 388.75 51.6406 Q388.75 52.8594 387.9219 53.5156 Q387.0938 54.1719 385.5469 54.1719 Q384.8594 54.1719 384.2109 54.0234 Q383.5625 53.875 382.9219 53.5781 L382.9219 51.875 L383.5781 51.875 Q383.625 52.7188 384.1406 53.1562 Q384.6562 53.5938 385.5781 53.5938 Q386.4688 53.5938 386.9922 53.0703 Q387.5156 52.5469 387.5156 51.6562 Q387.5156 50.625 386.9766 50.0938 Q386.4375 49.5625 385.4062 49.5625 L384.8594 49.5625 L384.8594 48.9531 L385.1406 48.9531 Q386.1719 48.9531 386.6875 48.5312 Q387.2031 48.1094 387.2031 47.25 Q387.2031 46.4844 386.7812 46.0781 Q386.3594 45.6719 385.5625 45.6719 Q384.7656 45.6719 384.3359 46.0469 Q383.9062 46.4219 383.8281 47.1562 L383.1719 47.1562 L383.1719 45.625 Z" style="fill:black; stroke:none;" /><rect height="8" style="stroke:none;" width="8" x="368" y="45" /><path d="M373.1875 51.4688 L372.9531 52.1094 Q372.7656 52.625 372.2031 52.9375 Q371.8438 53.1562 371.2031 53.1406 Q370.0469 53.1406 369.3281 52.2344 Q368.5938 51.3281 368.5938 49.8594 Q368.5938 48.4219 369.3281 47.4844 Q370.0156 46.5938 371.4531 46.6094 Q372.4531 46.6094 372.9531 47 Q373.4062 47.3438 373.5781 48.0938 L373.625 48.3125 L373.8438 47.6719 Q374.0625 47.0469 374.6562 46.75 L375.25 46.75 L375.25 47.0938 Q374.6875 47.2656 374.5 47.8125 L373.8906 49.4844 L374.2969 51.2812 Q374.5 52.2031 374.7344 52.2969 Q375.0469 52.4375 375.7812 52 L375.7812 52.7188 Q374.5938 53.4062 373.75 52.6875 Q373.375 52.3594 373.2656 51.875 L373.1875 51.4688 ZM372.9219 50.3125 L372.5625 48.5938 Q372.2656 47.2188 371.4688 47.2188 Q370.7969 47.2031 370.2812 47.9375 Q369.8594 48.5156 369.8594 49.875 Q369.8594 51.1719 370.2812 51.8281 Q370.75 52.5469 371.5312 52.5 Q372.2031 52.4375 372.6875 51 L372.9219 50.3125 Z" style="fill:black; stroke:none;" /></g><g ID="li-1:2,3" style="fill:white; text-rendering:optimizeSpeed; font-family:'Serif'; stroke:white;"><rect height="10" style="stroke:none;" width="7" x="434" y="44" /><path d="M435.1719 45.625 Q435.8594 45.3594 436.4844 45.2266 Q437.1094 45.0938 437.6562 45.0938 Q438.9531 45.0938 439.6719 45.6484 Q440.3906 46.2031 440.3906 47.1875 Q440.3906 47.9688 439.8906 48.5 Q439.3906 49.0312 438.4844 49.2188 Q439.5625 49.375 440.1562 50.0078 Q440.75 50.6406 440.75 51.6406 Q440.75 52.8594 439.9219 53.5156 Q439.0938 54.1719 437.5469 54.1719 Q436.8594 54.1719 436.2109 54.0234 Q435.5625 53.875 434.9219 53.5781 L434.9219 51.875 L435.5781 51.875 Q435.625 52.7188 436.1406 53.1562 Q436.6562 53.5938 437.5781 53.5938 Q438.4688 53.5938 438.9922 53.0703 Q439.5156 52.5469 439.5156 51.6562 Q439.5156 50.625 438.9766 50.0938 Q438.4375 49.5625 437.4062 49.5625 L436.8594 49.5625 L436.8594 48.9531 L437.1406 48.9531 Q438.1719 48.9531 438.6875 48.5312 Q439.2031 48.1094 439.2031 47.25 Q439.2031 46.4844 438.7812 46.0781 Q438.3594 45.6719 437.5625 45.6719 Q436.7656 45.6719 436.3359 46.0469 Q435.9062 46.4219 435.8281 47.1562 L435.1719 47.1562 L435.1719 45.625 Z" style="fill:black; stroke:none;" /><rect height="8" style="stroke:none;" width="8" x="420" y="45" /><path d="M425.1875 51.4688 L424.9531 52.1094 Q424.7656 52.625 424.2031 52.9375 Q423.8438 53.1562 423.2031 53.1406 Q422.0469 53.1406 421.3281 52.2344 Q420.5938 51.3281 420.5938 49.8594 Q420.5938 48.4219 421.3281 47.4844 Q422.0156 46.5938 423.4531 46.6094 Q424.4531 46.6094 424.9531 47 Q425.4062 47.3438 425.5781 48.0938 L425.625 48.3125 L425.8438 47.6719 Q426.0625 47.0469 426.6562 46.75 L427.25 46.75 L427.25 47.0938 Q426.6875 47.2656 426.5 47.8125 L425.8906 49.4844 L426.2969 51.2812 Q426.5 52.2031 426.7344 52.2969 Q427.0469 52.4375 427.7812 52 L427.7812 52.7188 Q426.5938 53.4062 425.75 52.6875 Q425.375 52.3594 425.2656 51.875 L425.1875 51.4688 ZM424.9219 50.3125 L424.5625 48.5938 Q424.2656 47.2188 423.4688 47.2188 Q422.7969 47.2031 422.2812 47.9375 Q421.8594 48.5156 421.8594 49.875 Q421.8594 51.1719 422.2812 51.8281 Q422.75 52.5469 423.5312 52.5 Q424.2031 52.4375 424.6875 51 L424.9219 50.3125 Z" style="fill:black; stroke:none;" /></g><g ID="li-1:1,2" style="fill:white; text-rendering:optimizeSpeed; font-family:'Serif'; stroke:white;"><rect height="10" style="stroke:none;" width="7" x="486" y="44" /><path d="M487.1719 45.625 Q487.8594 45.3594 488.4844 45.2266 Q489.1094 45.0938 489.6562 45.0938 Q490.9531 45.0938 491.6719 45.6484 Q492.3906 46.2031 492.3906 47.1875 Q492.3906 47.9688 491.8906 48.5 Q491.3906 49.0312 490.4844 49.2188 Q491.5625 49.375 492.1562 50.0078 Q492.75 50.6406 492.75 51.6406 Q492.75 52.8594 491.9219 53.5156 Q491.0938 54.1719 489.5469 54.1719 Q488.8594 54.1719 488.2109 54.0234 Q487.5625 53.875 486.9219 53.5781 L486.9219 51.875 L487.5781 51.875 Q487.625 52.7188 488.1406 53.1562 Q488.6562 53.5938 489.5781 53.5938 Q490.4688 53.5938 490.9922 53.0703 Q491.5156 52.5469 491.5156 51.6562 Q491.5156 50.625 490.9766 50.0938 Q490.4375 49.5625 489.4062 49.5625 L488.8594 49.5625 L488.8594 48.9531 L489.1406 48.9531 Q490.1719 48.9531 490.6875 48.5312 Q491.2031 48.1094 491.2031 47.25 Q491.2031 46.4844 490.7812 46.0781 Q490.3594 45.6719 489.5625 45.6719 Q488.7656 45.6719 488.3359 46.0469 Q487.9062 46.4219 487.8281 47.1562 L487.1719 47.1562 L487.1719 45.625 Z" style="fill:black; stroke:none;" /><rect height="8" style="stroke:none;" width="8" x="472" y="45" /><path d="M477.1875 51.4688 L476.9531 52.1094 Q476.7656 52.625 476.2031 52.9375 Q475.8438 53.1562 475.2031 53.1406 Q474.0469 53.1406 473.3281 52.2344 Q472.5938 51.3281 472.5938 49.8594 Q472.5938 48.4219 473.3281 47.4844 Q474.0156 46.5938 475.4531 46.6094 Q476.4531 46.6094 476.9531 47 Q477.4062 47.3438 477.5781 48.0938 L477.625 48.3125 L477.8438 47.6719 Q478.0625 47.0469 478.6562 46.75 L479.25 46.75 L479.25 47.0938 Q478.6875 47.2656 478.5 47.8125 L477.8906 49.4844 L478.2969 51.2812 Q478.5 52.2031 478.7344 52.2969 Q479.0469 52.4375 479.7812 52 L479.7812 52.7188 Q478.5938 53.4062 477.75 52.6875 Q477.375 52.3594 477.2656 51.875 L477.1875 51.4688 ZM476.9219 50.3125 L476.5625 48.5938 Q476.2656 47.2188 475.4688 47.2188 Q474.7969 47.2031 474.2812 47.9375 Q473.8594 48.5156 473.8594 49.875 Q473.8594 51.1719 474.2812 51.8281 Q474.75 52.5469 475.5312 52.5 Q476.2031 52.4375 476.6875 51 L476.9219 50.3125 Z" style="fill:black; stroke:none;" /></g></g></svg>