<svg xmlns="http://www.w3.org/2000/svg" style="fill-opacity:1; color-rendering:auto; color-interpolation:auto; text-rendering:auto; stroke:black; stroke-linecap:square; stroke-miterlimit:10; shape-rendering:auto; stroke-opacity:1; fill:black; stroke-dasharray:none; font-weight:normal; stroke-width:1; font-family:'Dialog'; font-style:normal; stroke-linejoin:miter; font-size:12px; stroke-dashoffset:0; image-rendering:auto;"><defs id="genericDefs" /><g><defs id="defs1"><clipPath clipPathUnits="userSpaceOnUse" id="clipPath1"><path d="M290 160 L312 160 L312 182 L290 182 L290 160 Z" /></clipPath><clipPath clipPathUnits="userSpaceOnUse" id="clipPath2"><path d="M238 160 L260 160 L260 182 L238 182 L238 160 Z" /></clipPath><clipPath clipPathUnits="userSpaceOnUse" id="clipPath3"><path d="M208 171 C208 177.0751 203.0751 182 197 182 C190.9249 182 186 177.0751 186 171 C186 164.9249 190.9249 160 197 160 C203.0751 160 208 164.9249 208 171 Z" /></clipPath><clipPath clipPathUnits="userSpaceOnUse" id="clipPath4"><path d="M156 249 C156 255.0751 151.0751 260 145 260 C138.9249 260 134 255.0751 134 249 C134 242.9249 138.9249 238 145 238 C151.0751 238 156 242.9249 156 249 Z" /></clipPath><clipPath clipPathUnits="userSpaceOnUse" id="clipPath5"><path d="M82 290 L104 290 L104 312 L82 312 L82 290 Z" /></clipPath><clipPath clipPathUnits="userSpaceOnUse" id="clipPath6"><path d="M52 301 C52 307.0751 47.0751 312 41 312 C34.9249 312 30 307.0751 30 301 C30 294.9249 34.9249 290 41 290 C47.0751 290 52 294.9249 52 301 Z" /></clipPath><clipPath clipPathUnits="userSpaceOnUse" id="clipPath7"><path d="M82 186 L104 186 L104 208 L82 208 L82 186 Z" /></clipPath><clipPath clipPathUnits="userSpaceOnUse" id="clipPath8"><path d="M52 197 C52 203.0751 47.0751 208 41 208 C34.9249 208 30 203.0751 30 197 C30 190.9249 34.9249 186 41 186 C47.0751 186 52 190.9249 52 197 Z" /></clipPath><clipPath clipPathUnits="userSpaceOnUse" id="clipPath9"><path d="M41 238 L52 260 L30 260 Z" style="fill-rule:evenodd;" /></clipPath><clipPath clipPathUnits="userSpaceOnUse" id="clipPath10"><path d="M156 93 C156 99.0751 151.0751 104 145 104 C138.9249 104 134 99.0751 134 93 C134 86.9249 138.9249 82 145 82 C151.0751 82 156 86.9249 156 93 Z" /></clipPath><clipPath clipPathUnits="userSpaceOnUse" id="clipPath11"><path d="M82 134 L104 134 L104 156 L82 156 L82 134 Z" /></clipPath><clipPath clipPathUnits="userSpaceOnUse" id="clipPath12"><path d="M52 145 C52 151.0751 47.0751 156 41 156 C34.9249 156 30 151.0751 30 145 C30 138.9249 34.9249 134 41 134 C47.0751 134 52 138.9249 52 145 Z" /></clipPath><clipPath clipPathUnits="userSpaceOnUse" id="clipPath13"><path d="M82 30 L104 30 L104 52 L82 52 L82 30 Z" /></clipPath><clipPath clipPathUnits="userSpaceOnUse" id="clipPath14"><path d="M52 41 C52 47.0751 47.0751 52 41 52 C34.9249 52 30 47.0751 30 41 C30 34.9249 34.9249 30 41 30 C47.0751 30 52 34.9249 52 41 Z" /></clipPath><clipPath clipPathUnits="userSpaceOnUse" id="clipPath15"><path d="M41 82 L52 104 L30 104 Z" style="fill-rule:evenodd;" /></clipPath></defs><g style="fill:white; text-rendering:optimizeSpeed; stroke:white;"><rect height="342" style="stroke:none;" width="342" x="0" y="0" /></g><g ID="l-1:1,2" style="text-rendering:optimizeSpeed;"><polygon points=" 301 171 249 171" style="fill:none;" /></g><g ID="r-1:1" style="fill:white; text-rendering:optimizeSpeed; stroke:white;" wurcs_mono_id="1"><rect height="22" style="clip-path:url(#clipPath1); stroke:none;" width="22" x="290" y="160" /><rect height="22" style="clip-path:url(#clipPath1); fill:rgb(0,144,188); stroke:none;" width="22" x="290" y="160" /><rect height="22" style="clip-path:url(#clipPath1); fill:none; stroke:black;" width="22" x="290" y="160" /><rect height="22" style="fill:none; stroke:black;" width="22" x="290" y="160" /></g><g ID="l-1:2,3" style="text-rendering:optimizeSpeed;"><polygon points=" 249 171 197 171" style="fill:none;" /></g><g ID="r-1:2" style="fill:white; text-rendering:optimizeSpeed; stroke:white;" wurcs_mono_id="2"><rect height="22" style="clip-path:url(#clipPath2); stroke:none;" width="22" x="238" y="160" /><rect height="22" style="clip-path:url(#clipPath2); fill:rgb(0,144,188); stroke:none;" width="22" x="238" y="160" /><rect height="22" style="clip-path:url(#clipPath2); fill:none; stroke:black;" width="22" x="238" y="160" /><rect height="22" style="fill:none; stroke:black;" width="22" x="238" y="160" /></g><g ID="l-1:3,4" style="text-rendering:optimizeSpeed;"><polygon points=" 197 171 145 249" style="fill:none;" /></g><g ID="l-1:3,5" style="text-rendering:optimizeSpeed;"><polygon points=" 197 171 145 93" style="fill:none;" /></g><g ID="r-1:3" style="fill:white; text-rendering:optimizeSpeed; stroke:white;" wurcs_mono_id="3"><circle cx="197" cy="171" r="11" style="clip-path:url(#clipPath3); stroke:none;" /><rect height="22" style="clip-path:url(#clipPath3); fill:rgb(0,166,81); stroke:none;" width="22" x="186" y="160" /><rect height="22" style="clip-path:url(#clipPath3); fill:none; stroke:black;" width="22" x="186" y="160" /><circle cx="197" cy="171" r="11" style="fill:none; stroke:black;" /></g><g ID="l-1:4,6" style="text-rendering:optimizeSpeed;"><polygon points=" 145 249 93 301" style="fill:none;" /></g><g ID="l-1:4,7" style="text-rendering:optimizeSpeed;"><polygon points=" 145 249 93 197" style="fill:none;" /></g><g ID="r-1:4" style="fill:white; text-rendering:optimizeSpeed; stroke:white;" wurcs_mono_id="4"><circle cx="145" cy="249" r="11" style="clip-path:url(#clipPath4); stroke:none;" /><rect height="22" style="clip-path:url(#clipPath4); fill:rgb(0,166,81); stroke:none;" width="22" x="134" y="238" /><rect height="22" style="clip-path:url(#clipPath4); fill:none; stroke:black;" width="22" x="134" y="238" /><circle cx="145" cy="249" r="11" style="fill:none; stroke:black;" /></g><g ID="l-1:6,8" style="text-rendering:optimizeSpeed;"><polygon points=" 93 301 41 301" style="fill:none;" /></g><g ID="r-1:6" style="fill:white; text-rendering:optimizeSpeed; stroke:white;" wurcs_mono_id="5"><rect height="22" style="clip-path:url(#clipPath5); stroke:none;" width="22" x="82" y="290" /><rect height="22" style="clip-path:url(#clipPath5); fill:rgb(0,144,188); stroke:none;" width="22" x="82" y="290" /><rect height="22" style="clip-path:url(#clipPath5); fill:none; stroke:black;" width="22" x="82" y="290" /><rect height="22" style="fill:none; stroke:black;" width="22" x="82" y="290" /></g><g ID="r-1:8" style="fill:white; text-rendering:optimizeSpeed; stroke:white;" wurcs_mono_id="6"><circle cx="41" cy="301" r="11" style="clip-path:url(#clipPath6); stroke:none;" /><rect height="22" style="clip-path:url(#clipPath6); fill:rgb(255,212,0); stroke:none;" width="22" x="30" y="290" /><rect height="22" style="clip-path:url(#clipPath6); fill:none; stroke:black;" width="22" x="30" y="290" /><circle cx="41" cy="301" r="11" style="fill:none; stroke:black;" /></g><g ID="li-1:6,8" style="fill:white; text-rendering:optimizeSpeed; font-family:'Serif'; stroke:white;"><rect height="9" style="stroke:none;" width="8" x="70" y="304" /><path d="M74.1875 310.0312 L74.1875 305.375 L71.2031 310.0312 L74.1875 310.0312 ZM76.7656 313 L72.7812 313 L72.7812 312.375 L74.1875 312.375 L74.1875 310.6562 L70.375 310.6562 L70.375 310.0156 L74.2031 304.0938 L75.3594 304.0938 L75.3594 310.0312 L77.0312 310.0312 L77.0312 310.6562 L75.3594 310.6562 L75.3594 312.375 L76.7656 312.375 L76.7656 313 Z" style="fill:black; stroke:none;" /><rect height="13" style="stroke:none;" width="7" x="56" y="302" /><path d="M57.8281 314.25 Q58.2969 314.5938 59.1719 314.5938 Q60.0625 314.5938 60.5781 314.0703 Q61.0938 313.5469 61.0938 312.6562 Q61.0938 311.4219 60.5625 310.8906 Q60.0156 310.3594 59 310.3594 L58.4375 310.3594 L58.4375 309.7188 L58.7344 309.7188 Q59.4844 309.7188 60 309.2969 Q60.4219 308.9531 60.4219 308.0156 Q60.4219 307.6094 60.1406 307.1406 Q59.6875 306.375 59.1562 306.3906 Q57.8281 306.4375 57.8281 308.7812 L57.8281 314.25 ZM56.75 317.5 L56.75 308.7812 Q56.75 306.3281 58.0781 306 Q58.7656 305.8125 59.25 305.8125 Q60.3438 305.8125 61.0469 306.6719 Q61.6094 307.3594 61.6094 307.9375 Q61.6094 308.7812 61.2031 309.2656 Q60.7969 309.75 60.0625 309.9844 Q61.1406 310.1406 61.75 310.7812 Q62.3281 311.4062 62.3281 312.6328 Q62.3281 313.8594 61.5078 314.5156 Q60.6875 315.1719 59.1406 315.1719 Q58.1875 315.1719 57.8281 315.0312 L57.8281 317.5 L56.75 317.5 Z" style="fill:black; stroke:none;" /></g><g ID="l-1:7,9" style="text-rendering:optimizeSpeed;"><polygon points=" 93 197 41 197" style="fill:none;" /></g><g ID="r-1:7" style="fill:white; text-rendering:optimizeSpeed; stroke:white;" wurcs_mono_id="7"><rect height="22" style="clip-path:url(#clipPath7); stroke:none;" width="22" x="82" y="186" /><rect height="22" style="clip-path:url(#clipPath7); fill:rgb(0,144,188); stroke:none;" width="22" x="82" y="186" /><rect height="22" style="clip-path:url(#clipPath7); fill:none; stroke:black;" width="22" x="82" y="186" /><rect height="22" style="fill:none; stroke:black;" width="22" x="82" y="186" /></g><g ID="l-1:9,10" style="text-rendering:optimizeSpeed;"><polygon points=" 41 197 41 249" style="fill:none;" /></g><g ID="r-1:9" style="fill:white; text-rendering:optimizeSpeed; stroke:white;" wurcs_mono_id="8"><circle cx="41" cy="197" r="11" style="clip-path:url(#clipPath8); stroke:none;" /><rect height="22" style="clip-path:url(#clipPath8); fill:rgb(255,212,0); stroke:none;" width="22" x="30" y="186" /><rect height="22" style="clip-path:url(#clipPath8); fill:none; stroke:black;" width="22" x="30" y="186" /><circle cx="41" cy="197" r="11" style="fill:none; stroke:black;" /></g><g ID="r-1:10" style="fill:white; text-rendering:optimizeSpeed; stroke:white;" wurcs_mono_id="9"><polygon points=" 41 238 52 260 30 260" style="stroke:none; clip-path:url(#clipPath9);" /><rect height="22" style="clip-path:url(#clipPath9); fill:rgb(237,28,36); stroke:none;" width="22" x="30" y="238" /><rect height="22" style="clip-path:url(#clipPath9); fill:none; stroke:black;" width="22" x="30" y="238" /><polygon points=" 41 238 52 260 30 260" style="fill:none; stroke:black;" /></g><g ID="li-1:9,10" style="fill:white; text-rendering:optimizeSpeed; font-family:'Serif'; stroke:white;"><rect height="9" style="stroke:none;" width="7" x="45" y="211" /><path d="M46.5312 213.3438 L45.875 213.3438 L45.875 211.7812 Q46.5 211.4375 47.1406 211.2656 Q47.7812 211.0938 48.3906 211.0938 Q49.75 211.0938 50.5391 211.7578 Q51.3281 212.4219 51.3281 213.5469 Q51.3281 214.8438 49.5469 216.625 Q49.4062 216.7656 49.3281 216.8281 L47.125 219.0312 L50.7656 219.0312 L50.7656 217.9531 L51.4531 217.9531 L51.4531 220 L45.8125 220 L45.8125 219.3594 L48.4688 216.7188 Q49.3438 215.8281 49.7188 215.0938 Q50.0938 214.3594 50.0938 213.5469 Q50.0938 212.6719 49.6328 212.1719 Q49.1719 211.6719 48.375 211.6719 Q47.5312 211.6719 47.0781 212.0859 Q46.625 212.5 46.5312 213.3438 Z" style="fill:black; stroke:none;" /><rect height="8" style="stroke:none;" width="8" x="45" y="226" /><path d="M50.1875 232.4688 L49.9531 233.1094 Q49.7656 233.625 49.2031 233.9375 Q48.8438 234.1562 48.2031 234.1406 Q47.0469 234.1406 46.3281 233.2344 Q45.5938 232.3281 45.5938 230.8594 Q45.5938 229.4219 46.3281 228.4844 Q47.0156 227.5938 48.4531 227.6094 Q49.4531 227.6094 49.9531 228 Q50.4062 228.3438 50.5781 229.0938 L50.625 229.3125 L50.8438 228.6719 Q51.0625 228.0469 51.6562 227.75 L52.25 227.75 L52.25 228.0938 Q51.6875 228.2656 51.5 228.8125 L50.8906 230.4844 L51.2969 232.2812 Q51.5 233.2031 51.7344 233.2969 Q52.0469 233.4375 52.7812 233 L52.7812 233.7188 Q51.5938 234.4062 50.75 233.6875 Q50.375 233.3594 50.2656 232.875 L50.1875 232.4688 ZM49.9219 231.3125 L49.5625 229.5938 Q49.2656 228.2188 48.4688 228.2188 Q47.7969 228.2031 47.2812 228.9375 Q46.8594 229.5156 46.8594 230.875 Q46.8594 232.1719 47.2812 232.8281 Q47.75 233.5469 48.5312 233.5 Q49.2031 233.4375 49.6875 232 L49.9219 231.3125 Z" style="fill:black; stroke:none;" /></g><g ID="li-1:7,9" style="fill:white; text-rendering:optimizeSpeed; font-family:'Serif'; stroke:white;"><rect height="9" style="stroke:none;" width="8" x="70" y="200" /><path d="M74.1875 206.0312 L74.1875 201.375 L71.2031 206.0312 L74.1875 206.0312 ZM76.7656 209 L72.7812 209 L72.7812 208.375 L74.1875 208.375 L74.1875 206.6562 L70.375 206.6562 L70.375 206.0156 L74.2031 200.0938 L75.3594 200.0938 L75.3594 206.0312 L77.0312 206.0312 L77.0312 206.6562 L75.3594 206.6562 L75.3594 208.375 L76.7656 208.375 L76.7656 209 Z" style="fill:black; stroke:none;" /><rect height="13" style="stroke:none;" width="7" x="56" y="198" /><path d="M57.8281 210.25 Q58.2969 210.5938 59.1719 210.5938 Q60.0625 210.5938 60.5781 210.0703 Q61.0938 209.5469 61.0938 208.6562 Q61.0938 207.4219 60.5625 206.8906 Q60.0156 206.3594 59 206.3594 L58.4375 206.3594 L58.4375 205.7188 L58.7344 205.7188 Q59.4844 205.7188 60 205.2969 Q60.4219 204.9531 60.4219 204.0156 Q60.4219 203.6094 60.1406 203.1406 Q59.6875 202.375 59.1562 202.3906 Q57.8281 202.4375 57.8281 204.7812 L57.8281 210.25 ZM56.75 213.5 L56.75 204.7812 Q56.75 202.3281 58.0781 202 Q58.7656 201.8125 59.25 201.8125 Q60.3438 201.8125 61.0469 202.6719 Q61.6094 203.3594 61.6094 203.9375 Q61.6094 204.7812 61.2031 205.2656 Q60.7969 205.75 60.0625 205.9844 Q61.1406 206.1406 61.75 206.7812 Q62.3281 207.4062 62.3281 208.6328 Q62.3281 209.8594 61.5078 210.5156 Q60.6875 211.1719 59.1406 211.1719 Q58.1875 211.1719 57.8281 211.0312 L57.8281 213.5 L56.75 213.5 Z" style="fill:black; stroke:none;" /></g><g ID="li-1:4,6" style="fill:white; text-rendering:optimizeSpeed; font-family:'Serif'; stroke:white;"><rect height="9" style="stroke:none;" width="7" x="130" y="266" /><path d="M131.5312 268.3438 L130.875 268.3438 L130.875 266.7812 Q131.5 266.4375 132.1406 266.2656 Q132.7812 266.0938 133.3906 266.0938 Q134.75 266.0938 135.5391 266.7578 Q136.3281 267.4219 136.3281 268.5469 Q136.3281 269.8438 134.5469 271.625 Q134.4062 271.7656 134.3281 271.8281 L132.125 274.0312 L135.7656 274.0312 L135.7656 272.9531 L136.4531 272.9531 L136.4531 275 L130.8125 275 L130.8125 274.3594 L133.4688 271.7188 Q134.3438 270.8281 134.7188 270.0938 Q135.0938 269.3594 135.0938 268.5469 Q135.0938 267.6719 134.6328 267.1719 Q134.1719 266.6719 133.375 266.6719 Q132.5312 266.6719 132.0781 267.0859 Q131.625 267.5 131.5312 268.3438 Z" style="fill:black; stroke:none;" /><rect height="13" style="stroke:none;" width="7" x="111" y="283" /><path d="M112.8281 295.25 Q113.2969 295.5938 114.1719 295.5938 Q115.0625 295.5938 115.5781 295.0703 Q116.0938 294.5469 116.0938 293.6562 Q116.0938 292.4219 115.5625 291.8906 Q115.0156 291.3594 114 291.3594 L113.4375 291.3594 L113.4375 290.7188 L113.7344 290.7188 Q114.4844 290.7188 115 290.2969 Q115.4219 289.9531 115.4219 289.0156 Q115.4219 288.6094 115.1406 288.1406 Q114.6875 287.375 114.1562 287.3906 Q112.8281 287.4375 112.8281 289.7812 L112.8281 295.25 ZM111.75 298.5 L111.75 289.7812 Q111.75 287.3281 113.0781 287 Q113.7656 286.8125 114.25 286.8125 Q115.3438 286.8125 116.0469 287.6719 Q116.6094 288.3594 116.6094 288.9375 Q116.6094 289.7812 116.2031 290.2656 Q115.7969 290.75 115.0625 290.9844 Q116.1406 291.1406 116.75 291.7812 Q117.3281 292.4062 117.3281 293.6328 Q117.3281 294.8594 116.5078 295.5156 Q115.6875 296.1719 114.1406 296.1719 Q113.1875 296.1719 112.8281 296.0312 L112.8281 298.5 L111.75 298.5 Z" style="fill:black; stroke:none;" /></g><g ID="li-1:4,7" style="fill:white; text-rendering:optimizeSpeed; font-family:'Serif'; stroke:white;"><rect height="9" style="stroke:none;" width="8" x="118" y="233" /><path d="M122.1875 239.0312 L122.1875 234.375 L119.2031 239.0312 L122.1875 239.0312 ZM124.7656 242 L120.7812 242 L120.7812 241.375 L122.1875 241.375 L122.1875 239.6562 L118.375 239.6562 L118.375 239.0156 L122.2031 233.0938 L123.3594 233.0938 L123.3594 239.0312 L125.0312 239.0312 L125.0312 239.6562 L123.3594 239.6562 L123.3594 241.375 L124.7656 241.375 L124.7656 242 Z" style="fill:black; stroke:none;" /><rect height="13" style="stroke:none;" width="7" x="100" y="212" /><path d="M101.8281 224.25 Q102.2969 224.5938 103.1719 224.5938 Q104.0625 224.5938 104.5781 224.0703 Q105.0938 223.5469 105.0938 222.6562 Q105.0938 221.4219 104.5625 220.8906 Q104.0156 220.3594 103 220.3594 L102.4375 220.3594 L102.4375 219.7188 L102.7344 219.7188 Q103.4844 219.7188 104 219.2969 Q104.4219 218.9531 104.4219 218.0156 Q104.4219 217.6094 104.1406 217.1406 Q103.6875 216.375 103.1562 216.3906 Q101.8281 216.4375 101.8281 218.7812 L101.8281 224.25 ZM100.75 227.5 L100.75 218.7812 Q100.75 216.3281 102.0781 216 Q102.7656 215.8125 103.25 215.8125 Q104.3438 215.8125 105.0469 216.6719 Q105.6094 217.3594 105.6094 217.9375 Q105.6094 218.7812 105.2031 219.2656 Q104.7969 219.75 104.0625 219.9844 Q105.1406 220.1406 105.75 220.7812 Q106.3281 221.4062 106.3281 222.6328 Q106.3281 223.8594 105.5078 224.5156 Q104.6875 225.1719 103.1406 225.1719 Q102.1875 225.1719 101.8281 225.0312 L101.8281 227.5 L100.75 227.5 Z" style="fill:black; stroke:none;" /></g><g ID="l-1:5,11" style="text-rendering:optimizeSpeed;"><polygon points=" 145 93 93 145" style="fill:none;" /></g><g ID="l-1:5,12" style="text-rendering:optimizeSpeed;"><polygon points=" 145 93 93 41" style="fill:none;" /></g><g ID="r-1:5" style="fill:white; text-rendering:optimizeSpeed; stroke:white;" wurcs_mono_id="10"><circle cx="145" cy="93" r="11" style="clip-path:url(#clipPath10); stroke:none;" /><rect height="22" style="clip-path:url(#clipPath10); fill:rgb(0,166,81); stroke:none;" width="22" x="134" y="82" /><rect height="22" style="clip-path:url(#clipPath10); fill:none; stroke:black;" width="22" x="134" y="82" /><circle cx="145" cy="93" r="11" style="fill:none; stroke:black;" /></g><g ID="l-1:11,13" style="text-rendering:optimizeSpeed;"><polygon points=" 93 145 41 145" style="fill:none;" /></g><g ID="r-1:11" style="fill:white; text-rendering:optimizeSpeed; stroke:white;" wurcs_mono_id="11"><rect height="22" style="clip-path:url(#clipPath11); stroke:none;" width="22" x="82" y="134" /><rect height="22" style="clip-path:url(#clipPath11); fill:rgb(0,144,188); stroke:none;" width="22" x="82" y="134" /><rect height="22" style="clip-path:url(#clipPath11); fill:none; stroke:black;" width="22" x="82" y="134" /><rect height="22" style="fill:none; stroke:black;" width="22" x="82" y="134" /></g><g ID="r-1:13" style="fill:white; text-rendering:optimizeSpeed; stroke:white;" wurcs_mono_id="12"><circle cx="41" cy="145" r="11" style="clip-path:url(#clipPath12); stroke:none;" /><rect height="22" style="clip-path:url(#clipPath12); fill:rgb(255,212,0); stroke:none;" width="22" x="30" y="134" /><rect height="22" style="clip-path:url(#clipPath12); fill:none; stroke:black;" width="22" x="30" y="134" /><circle cx="41" cy="145" r="11" style="fill:none; stroke:black;" /></g><g ID="li-1:11,13" style="fill:white; text-rendering:optimizeSpeed; font-family:'Serif'; stroke:white;"><rect height="9" style="stroke:none;" width="8" x="70" y="148" /><path d="M74.1875 154.0312 L74.1875 149.375 L71.2031 154.0312 L74.1875 154.0312 ZM76.7656 157 L72.7812 157 L72.7812 156.375 L74.1875 156.375 L74.1875 154.6562 L70.375 154.6562 L70.375 154.0156 L74.2031 148.0938 L75.3594 148.0938 L75.3594 154.0312 L77.0312 154.0312 L77.0312 154.6562 L75.3594 154.6562 L75.3594 156.375 L76.7656 156.375 L76.7656 157 Z" style="fill:black; stroke:none;" /><rect height="13" style="stroke:none;" width="7" x="56" y="146" /><path d="M57.8281 158.25 Q58.2969 158.5938 59.1719 158.5938 Q60.0625 158.5938 60.5781 158.0703 Q61.0938 157.5469 61.0938 156.6562 Q61.0938 155.4219 60.5625 154.8906 Q60.0156 154.3594 59 154.3594 L58.4375 154.3594 L58.4375 153.7188 L58.7344 153.7188 Q59.4844 153.7188 60 153.2969 Q60.4219 152.9531 60.4219 152.0156 Q60.4219 151.6094 60.1406 151.1406 Q59.6875 150.375 59.1562 150.3906 Q57.8281 150.4375 57.8281 152.7812 L57.8281 158.25 ZM56.75 161.5 L56.75 152.7812 Q56.75 150.3281 58.0781 150 Q58.7656 149.8125 59.25 149.8125 Q60.3438 149.8125 61.0469 150.6719 Q61.6094 151.3594 61.6094 151.9375 Q61.6094 152.7812 61.2031 153.2656 Q60.7969 153.75 60.0625 153.9844 Q61.1406 154.1406 61.75 154.7812 Q62.3281 155.4062 62.3281 156.6328 Q62.3281 157.8594 61.5078 158.5156 Q60.6875 159.1719 59.1406 159.1719 Q58.1875 159.1719 57.8281 159.0312 L57.8281 161.5 L56.75 161.5 Z" style="fill:black; stroke:none;" /></g><g ID="l-1:12,14" style="text-rendering:optimizeSpeed;"><polygon points=" 93 41 41 41" style="fill:none;" /></g><g ID="r-1:12" style="fill:white; text-rendering:optimizeSpeed; stroke:white;" wurcs_mono_id="13"><rect height="22" style="clip-path:url(#clipPath13); stroke:none;" width="22" x="82" y="30" /><rect height="22" style="clip-path:url(#clipPath13); fill:rgb(0,144,188); stroke:none;" width="22" x="82" y="30" /><rect height="22" style="clip-path:url(#clipPath13); fill:none; stroke:black;" width="22" x="82" y="30" /><rect height="22" style="fill:none; stroke:black;" width="22" x="82" y="30" /></g><g ID="l-1:14,15" style="text-rendering:optimizeSpeed;"><polygon points=" 41 41 41 93" style="fill:none;" /></g><g ID="r-1:14" style="fill:white; text-rendering:optimizeSpeed; stroke:white;" wurcs_mono_id="14"><circle cx="41" cy="41" r="11" style="clip-path:url(#clipPath14); stroke:none;" /><rect height="22" style="clip-path:url(#clipPath14); fill:rgb(255,212,0); stroke:none;" width="22" x="30" y="30" /><rect height="22" style="clip-path:url(#clipPath14); fill:none; stroke:black;" width="22" x="30" y="30" /><circle cx="41" cy="41" r="11" style="fill:none; stroke:black;" /></g><g ID="r-1:15" style="fill:white; text-rendering:optimizeSpeed; stroke:white;" wurcs_mono_id="15"><polygon points=" 41 82 52 104 30 104" style="stroke:none; clip-path:url(#clipPath15);" /><rect height="22" style="clip-path:url(#clipPath15); fill:rgb(237,28,36); stroke:none;" width="22" x="30" y="82" /><rect height="22" style="clip-path:url(#clipPath15); fill:none; stroke:black;" width="22" x="30" y="82" /><polygon points=" 41 82 52 104 30 104" style="fill:none; stroke:black;" /></g><g ID="li-1:14,15" style="fill:white; text-rendering:optimizeSpeed; font-family:'Serif'; stroke:white;"><rect height="9" style="stroke:none;" width="7" x="45" y="55" /><path d="M46.5312 57.3438 L45.875 57.3438 L45.875 55.7812 Q46.5 55.4375 47.1406 55.2656 Q47.7812 55.0938 48.3906 55.0938 Q49.75 55.0938 50.5391 55.7578 Q51.3281 56.4219 51.3281 57.5469 Q51.3281 58.8438 49.5469 60.625 Q49.4062 60.7656 49.3281 60.8281 L47.125 63.0312 L50.7656 63.0312 L50.7656 61.9531 L51.4531 61.9531 L51.4531 64 L45.8125 64 L45.8125 63.3594 L48.4688 60.7188 Q49.3438 59.8281 49.7188 59.0938 Q50.0938 58.3594 50.0938 57.5469 Q50.0938 56.6719 49.6328 56.1719 Q49.1719 55.6719 48.375 55.6719 Q47.5312 55.6719 47.0781 56.0859 Q46.625 56.5 46.5312 57.3438 Z" style="fill:black; stroke:none;" /><rect height="8" style="stroke:none;" width="8" x="45" y="70" /><path d="M50.1875 76.4688 L49.9531 77.1094 Q49.7656 77.625 49.2031 77.9375 Q48.8438 78.1562 48.2031 78.1406 Q47.0469 78.1406 46.3281 77.2344 Q45.5938 76.3281 45.5938 74.8594 Q45.5938 73.4219 46.3281 72.4844 Q47.0156 71.5938 48.4531 71.6094 Q49.4531 71.6094 49.9531 72 Q50.4062 72.3438 50.5781 73.0938 L50.625 73.3125 L50.8438 72.6719 Q51.0625 72.0469 51.6562 71.75 L52.25 71.75 L52.25 72.0938 Q51.6875 72.2656 51.5 72.8125 L50.8906 74.4844 L51.2969 76.2812 Q51.5 77.2031 51.7344 77.2969 Q52.0469 77.4375 52.7812 77 L52.7812 77.7188 Q51.5938 78.4062 50.75 77.6875 Q50.375 77.3594 50.2656 76.875 L50.1875 76.4688 ZM49.9219 75.3125 L49.5625 73.5938 Q49.2656 72.2188 48.4688 72.2188 Q47.7969 72.2031 47.2812 72.9375 Q46.8594 73.5156 46.8594 74.875 Q46.8594 76.1719 47.2812 76.8281 Q47.75 77.5469 48.5312 77.5 Q49.2031 77.4375 49.6875 76 L49.9219 75.3125 Z" style="fill:black; stroke:none;" /></g><g ID="li-1:12,14" style="fill:white; text-rendering:optimizeSpeed; font-family:'Serif'; stroke:white;"><rect height="9" style="stroke:none;" width="8" x="70" y="44" /><path d="M74.1875 50.0312 L74.1875 45.375 L71.2031 50.0312 L74.1875 50.0312 ZM76.7656 53 L72.7812 53 L72.7812 52.375 L74.1875 52.375 L74.1875 50.6562 L70.375 50.6562 L70.375 50.0156 L74.2031 44.0938 L75.3594 44.0938 L75.3594 50.0312 L77.0312 50.0312 L77.0312 50.6562 L75.3594 50.6562 L75.3594 52.375 L76.7656 52.375 L76.7656 53 Z" style="fill:black; stroke:none;" /><rect height="13" style="stroke:none;" width="7" x="56" y="42" /><path d="M57.8281 54.25 Q58.2969 54.5938 59.1719 54.5938 Q60.0625 54.5938 60.5781 54.0703 Q61.0938 53.5469 61.0938 52.6562 Q61.0938 51.4219 60.5625 50.8906 Q60.0156 50.3594 59 50.3594 L58.4375 50.3594 L58.4375 49.7188 L58.7344 49.7188 Q59.4844 49.7188 60 49.2969 Q60.4219 48.9531 60.4219 48.0156 Q60.4219 47.6094 60.1406 47.1406 Q59.6875 46.375 59.1562 46.3906 Q57.8281 46.4375 57.8281 48.7812 L57.8281 54.25 ZM56.75 57.5 L56.75 48.7812 Q56.75 46.3281 58.0781 46 Q58.7656 45.8125 59.25 45.8125 Q60.3438 45.8125 61.0469 46.6719 Q61.6094 47.3594 61.6094 47.9375 Q61.6094 48.7812 61.2031 49.2656 Q60.7969 49.75 60.0625 49.9844 Q61.1406 50.1406 61.75 50.7812 Q62.3281 51.4062 62.3281 52.6328 Q62.3281 53.8594 61.5078 54.5156 Q60.6875 55.1719 59.1406 55.1719 Q58.1875 55.1719 57.8281 55.0312 L57.8281 57.5 L56.75 57.5 Z" style="fill:black; stroke:none;" /></g><g ID="li-1:5,11" style="fill:white; text-rendering:optimizeSpeed; font-family:'Serif'; stroke:white;"><rect height="9" style="stroke:none;" width="7" x="130" y="110" /><path d="M131.5312 112.3438 L130.875 112.3438 L130.875 110.7812 Q131.5 110.4375 132.1406 110.2656 Q132.7812 110.0938 133.3906 110.0938 Q134.75 110.0938 135.5391 110.7578 Q136.3281 111.4219 136.3281 112.5469 Q136.3281 113.8438 134.5469 115.625 Q134.4062 115.7656 134.3281 115.8281 L132.125 118.0312 L135.7656 118.0312 L135.7656 116.9531 L136.4531 116.9531 L136.4531 119 L130.8125 119 L130.8125 118.3594 L133.4688 115.7188 Q134.3438 114.8281 134.7188 114.0938 Q135.0938 113.3594 135.0938 112.5469 Q135.0938 111.6719 134.6328 111.1719 Q134.1719 110.6719 133.375 110.6719 Q132.5312 110.6719 132.0781 111.0859 Q131.625 111.5 131.5312 112.3438 Z" style="fill:black; stroke:none;" /><rect height="13" style="stroke:none;" width="7" x="111" y="127" /><path d="M112.8281 139.25 Q113.2969 139.5938 114.1719 139.5938 Q115.0625 139.5938 115.5781 139.0703 Q116.0938 138.5469 116.0938 137.6562 Q116.0938 136.4219 115.5625 135.8906 Q115.0156 135.3594 114 135.3594 L113.4375 135.3594 L113.4375 134.7188 L113.7344 134.7188 Q114.4844 134.7188 115 134.2969 Q115.4219 133.9531 115.4219 133.0156 Q115.4219 132.6094 115.1406 132.1406 Q114.6875 131.375 114.1562 131.3906 Q112.8281 131.4375 112.8281 133.7812 L112.8281 139.25 ZM111.75 142.5 L111.75 133.7812 Q111.75 131.3281 113.0781 131 Q113.7656 130.8125 114.25 130.8125 Q115.3438 130.8125 116.0469 131.6719 Q116.6094 132.3594 116.6094 132.9375 Q116.6094 133.7812 116.2031 134.2656 Q115.7969 134.75 115.0625 134.9844 Q116.1406 135.1406 116.75 135.7812 Q117.3281 136.4062 117.3281 137.6328 Q117.3281 138.8594 116.5078 139.5156 Q115.6875 140.1719 114.1406 140.1719 Q113.1875 140.1719 112.8281 140.0312 L112.8281 142.5 L111.75 142.5 Z" style="fill:black; stroke:none;" /></g><g ID="li-1:5,12" style="fill:white; text-rendering:optimizeSpeed; font-family:'Serif'; stroke:white;"><rect height="10" style="stroke:none;" width="7" x="119" y="77" /><path d="M122.9219 86.5938 Q123.75 86.5938 124.1953 85.9844 Q124.6406 85.375 124.6406 84.2344 Q124.6406 83.1094 124.1953 82.5 Q123.75 81.8906 122.9219 81.8906 Q122.0938 81.8906 121.6484 82.4766 Q121.2031 83.0625 121.2031 84.1719 Q121.2031 85.3281 121.6484 85.9609 Q122.0938 86.5938 122.9219 86.5938 ZM121.0156 82.1875 Q121.4219 81.75 121.9219 81.5312 Q122.4219 81.3125 123.0625 81.3125 Q124.3594 81.3125 125.1172 82.0938 Q125.875 82.875 125.875 84.2344 Q125.875 85.5625 125.0625 86.3672 Q124.25 87.1719 122.875 87.1719 Q121.3906 87.1719 120.5938 86.0625 Q119.7969 84.9531 119.7969 82.9062 Q119.7969 80.6094 120.7422 79.3516 Q121.6875 78.0938 123.4062 78.0938 Q123.875 78.0938 124.3828 78.1797 Q124.8906 78.2656 125.4219 78.4375 L125.4219 79.8906 L124.7656 79.8906 Q124.6875 79.2969 124.3047 78.9844 Q123.9219 78.6719 123.2812 78.6719 Q122.1406 78.6719 121.5859 79.5312 Q121.0312 80.3906 121.0156 82.1875 Z" style="fill:black; stroke:none;" /><rect height="13" style="stroke:none;" width="7" x="100" y="56" /><path d="M101.8281 68.25 Q102.2969 68.5938 103.1719 68.5938 Q104.0625 68.5938 104.5781 68.0703 Q105.0938 67.5469 105.0938 66.6562 Q105.0938 65.4219 104.5625 64.8906 Q104.0156 64.3594 103 64.3594 L102.4375 64.3594 L102.4375 63.7188 L102.7344 63.7188 Q103.4844 63.7188 104 63.2969 Q104.4219 62.9531 104.4219 62.0156 Q104.4219 61.6094 104.1406 61.1406 Q103.6875 60.375 103.1562 60.3906 Q101.8281 60.4375 101.8281 62.7812 L101.8281 68.25 ZM100.75 71.5 L100.75 62.7812 Q100.75 60.3281 102.0781 60 Q102.7656 59.8125 103.25 59.8125 Q104.3438 59.8125 105.0469 60.6719 Q105.6094 61.3594 105.6094 61.9375 Q105.6094 62.7812 105.2031 63.2656 Q104.7969 63.75 104.0625 63.9844 Q105.1406 64.1406 105.75 64.7812 Q106.3281 65.4062 106.3281 66.6328 Q106.3281 67.8594 105.5078 68.5156 Q104.6875 69.1719 103.1406 69.1719 Q102.1875 69.1719 101.8281 69.0312 L101.8281 71.5 L100.75 71.5 Z" style="fill:black; stroke:none;" /></g><g ID="li-1:3,4" style="fill:white; text-rendering:optimizeSpeed; font-family:'Serif'; stroke:white;"><rect height="10" style="stroke:none;" width="7" x="188" y="188" /><path d="M189.1719 189.625 Q189.8594 189.3594 190.4844 189.2266 Q191.1094 189.0938 191.6562 189.0938 Q192.9531 189.0938 193.6719 189.6484 Q194.3906 190.2031 194.3906 191.1875 Q194.3906 191.9688 193.8906 192.5 Q193.3906 193.0312 192.4844 193.2188 Q193.5625 193.375 194.1562 194.0078 Q194.75 194.6406 194.75 195.6406 Q194.75 196.8594 193.9219 197.5156 Q193.0938 198.1719 191.5469 198.1719 Q190.8594 198.1719 190.2109 198.0234 Q189.5625 197.875 188.9219 197.5781 L188.9219 195.875 L189.5781 195.875 Q189.625 196.7188 190.1406 197.1562 Q190.6562 197.5938 191.5781 197.5938 Q192.4688 197.5938 192.9922 197.0703 Q193.5156 196.5469 193.5156 195.6562 Q193.5156 194.625 192.9766 194.0938 Q192.4375 193.5625 191.4062 193.5625 L190.8594 193.5625 L190.8594 192.9531 L191.1406 192.9531 Q192.1719 192.9531 192.6875 192.5312 Q193.2031 192.1094 193.2031 191.25 Q193.2031 190.4844 192.7812 190.0781 Q192.3594 189.6719 191.5625 189.6719 Q190.7656 189.6719 190.3359 190.0469 Q189.9062 190.4219 189.8281 191.1562 L189.1719 191.1562 L189.1719 189.625 Z" style="fill:black; stroke:none;" /><rect height="8" style="stroke:none;" width="8" x="159" y="231" /><path d="M164.1875 237.4688 L163.9531 238.1094 Q163.7656 238.625 163.2031 238.9375 Q162.8438 239.1562 162.2031 239.1406 Q161.0469 239.1406 160.3281 238.2344 Q159.5938 237.3281 159.5938 235.8594 Q159.5938 234.4219 160.3281 233.4844 Q161.0156 232.5938 162.4531 232.6094 Q163.4531 232.6094 163.9531 233 Q164.4062 233.3438 164.5781 234.0938 L164.625 234.3125 L164.8438 233.6719 Q165.0625 233.0469 165.6562 232.75 L166.25 232.75 L166.25 233.0938 Q165.6875 233.2656 165.5 233.8125 L164.8906 235.4844 L165.2969 237.2812 Q165.5 238.2031 165.7344 238.2969 Q166.0469 238.4375 166.7812 238 L166.7812 238.7188 Q165.5938 239.4062 164.75 238.6875 Q164.375 238.3594 164.2656 237.875 L164.1875 237.4688 ZM163.9219 236.3125 L163.5625 234.5938 Q163.2656 233.2188 162.4688 233.2188 Q161.7969 233.2031 161.2812 233.9375 Q160.8594 234.5156 160.8594 235.875 Q160.8594 237.1719 161.2812 237.8281 Q161.75 238.5469 162.5312 238.5 Q163.2031 238.4375 163.6875 237 L163.9219 236.3125 Z" style="fill:black; stroke:none;" /></g><g ID="li-1:3,5" style="fill:white; text-rendering:optimizeSpeed; font-family:'Serif'; stroke:white;"><rect height="10" style="stroke:none;" width="7" x="175" y="152" /><path d="M178.9219 161.5938 Q179.75 161.5938 180.1953 160.9844 Q180.6406 160.375 180.6406 159.2344 Q180.6406 158.1094 180.1953 157.5 Q179.75 156.8906 178.9219 156.8906 Q178.0938 156.8906 177.6484 157.4766 Q177.2031 158.0625 177.2031 159.1719 Q177.2031 160.3281 177.6484 160.9609 Q178.0938 161.5938 178.9219 161.5938 ZM177.0156 157.1875 Q177.4219 156.75 177.9219 156.5312 Q178.4219 156.3125 179.0625 156.3125 Q180.3594 156.3125 181.1172 157.0938 Q181.875 157.875 181.875 159.2344 Q181.875 160.5625 181.0625 161.3672 Q180.25 162.1719 178.875 162.1719 Q177.3906 162.1719 176.5938 161.0625 Q175.7969 159.9531 175.7969 157.9062 Q175.7969 155.6094 176.7422 154.3516 Q177.6875 153.0938 179.4062 153.0938 Q179.875 153.0938 180.3828 153.1797 Q180.8906 153.2656 181.4219 153.4375 L181.4219 154.8906 L180.7656 154.8906 Q180.6875 154.2969 180.3047 153.9844 Q179.9219 153.6719 179.2812 153.6719 Q178.1406 153.6719 177.5859 154.5312 Q177.0312 155.3906 177.0156 157.1875 Z" style="fill:black; stroke:none;" /><rect height="8" style="stroke:none;" width="8" x="146" y="111" /><path d="M151.1875 117.4688 L150.9531 118.1094 Q150.7656 118.625 150.2031 118.9375 Q149.8438 119.1562 149.2031 119.1406 Q148.0469 119.1406 147.3281 118.2344 Q146.5938 117.3281 146.5938 115.8594 Q146.5938 114.4219 147.3281 113.4844 Q148.0156 112.5938 149.4531 112.6094 Q150.4531 112.6094 150.9531 113 Q151.4062 113.3438 151.5781 114.0938 L151.625 114.3125 L151.8438 113.6719 Q152.0625 113.0469 152.6562 112.75 L153.25 112.75 L153.25 113.0938 Q152.6875 113.2656 152.5 113.8125 L151.8906 115.4844 L152.2969 117.2812 Q152.5 118.2031 152.7344 118.2969 Q153.0469 118.4375 153.7812 118 L153.7812 118.7188 Q152.5938 119.4062 151.75 118.6875 Q151.375 118.3594 151.2656 117.875 L151.1875 117.4688 ZM150.9219 116.3125 L150.5625 114.5938 Q150.2656 113.2188 149.4688 113.2188 Q148.7969 113.2031 148.2812 113.9375 Q147.8594 114.5156 147.8594 115.875 Q147.8594 117.1719 148.2812 117.8281 Q148.75 118.5469 149.5312 118.5 Q150.2031 118.4375 150.6875 117 L150.9219 116.3125 Z" style="fill:black; stroke:none;" /></g><g ID="li-1:2,3" style="fill:white; text-rendering:optimizeSpeed; font-family:'Serif'; stroke:white;"><rect height="9" style="stroke:none;" width="8" x="226" y="174" /><path d="M230.1875 180.0312 L230.1875 175.375 L227.2031 180.0312 L230.1875 180.0312 ZM232.7656 183 L228.7812 183 L228.7812 182.375 L230.1875 182.375 L230.1875 180.6562 L226.375 180.6562 L226.375 180.0156 L230.2031 174.0938 L231.3594 174.0938 L231.3594 180.0312 L233.0312 180.0312 L233.0312 180.6562 L231.3594 180.6562 L231.3594 182.375 L232.7656 182.375 L232.7656 183 Z" style="fill:black; stroke:none;" /><rect height="13" style="stroke:none;" width="7" x="212" y="172" /><path d="M213.8281 184.25 Q214.2969 184.5938 215.1719 184.5938 Q216.0625 184.5938 216.5781 184.0703 Q217.0938 183.5469 217.0938 182.6562 Q217.0938 181.4219 216.5625 180.8906 Q216.0156 180.3594 215 180.3594 L214.4375 180.3594 L214.4375 179.7188 L214.7344 179.7188 Q215.4844 179.7188 216 179.2969 Q216.4219 178.9531 216.4219 178.0156 Q216.4219 177.6094 216.1406 177.1406 Q215.6875 176.375 215.1562 176.3906 Q213.8281 176.4375 213.8281 178.7812 L213.8281 184.25 ZM212.75 187.5 L212.75 178.7812 Q212.75 176.3281 214.0781 176 Q214.7656 175.8125 215.25 175.8125 Q216.3438 175.8125 217.0469 176.6719 Q217.6094 177.3594 217.6094 177.9375 Q217.6094 178.7812 217.2031 179.2656 Q216.7969 179.75 216.0625 179.9844 Q217.1406 180.1406 217.75 180.7812 Q218.3281 181.4062 218.3281 182.6328 Q218.3281 183.8594 217.5078 184.5156 Q216.6875 185.1719 215.1406 185.1719 Q214.1875 185.1719 213.8281 185.0312 L213.8281 187.5 L212.75 187.5 Z" style="fill:black; stroke:none;" /></g><g ID="li-1:1,2" style="fill:white; text-rendering:optimizeSpeed; font-family:'Serif'; stroke:white;"><rect height="9" style="stroke:none;" width="8" x="278" y="174" /><path d="M282.1875 180.0312 L282.1875 175.375 L279.2031 180.0312 L282.1875 180.0312 ZM284.7656 183 L280.7812 183 L280.7812 182.375 L282.1875 182.375 L282.1875 180.6562 L278.375 180.6562 L278.375 180.0156 L282.2031 174.0938 L283.3594 174.0938 L283.3594 180.0312 L285.0312 180.0312 L285.0312 180.6562 L283.3594 180.6562 L283.3594 182.375 L284.7656 182.375 L284.7656 183 Z" style="fill:black; stroke:none;" /><rect height="13" style="stroke:none;" width="7" x="264" y="172" /><path d="M265.8281 184.25 Q266.2969 184.5938 267.1719 184.5938 Q268.0625 184.5938 268.5781 184.0703 Q269.0938 183.5469 269.0938 182.6562 Q269.0938 181.4219 268.5625 180.8906 Q268.0156 180.3594 267 180.3594 L266.4375 180.3594 L266.4375 179.7188 L266.7344 179.7188 Q267.4844 179.7188 268 179.2969 Q268.4219 178.9531 268.4219 178.0156 Q268.4219 177.6094 268.1406 177.1406 Q267.6875 176.375 267.1562 176.3906 Q265.8281 176.4375 265.8281 178.7812 L265.8281 184.25 ZM264.75 187.5 L264.75 178.7812 Q264.75 176.3281 266.0781 176 Q266.7656 175.8125 267.25 175.8125 Q268.3438 175.8125 269.0469 176.6719 Q269.6094 177.3594 269.6094 177.9375 Q269.6094 178.7812 269.2031 179.2656 Q268.7969 179.75 268.0625 179.9844 Q269.1406 180.1406 269.75 180.7812 Q270.3281 181.4062 270.3281 182.6328 Q270.3281 183.8594 269.5078 184.5156 Q268.6875 185.1719 267.1406 185.1719 Q266.1875 185.1719 265.8281 185.0312 L265.8281 187.5 L264.75 187.5 Z" style="fill:black; stroke:none;" /></g></g></svg>