<svg xmlns="http://www.w3.org/2000/svg" style="fill-opacity:1; color-rendering:auto; color-interpolation:auto; text-rendering:auto; stroke:black; stroke-linecap:square; stroke-miterlimit:10; shape-rendering:auto; stroke-opacity:1; fill:black; stroke-dasharray:none; font-weight:normal; stroke-width:1; font-family:'Dialog'; font-style:normal; stroke-linejoin:miter; font-size:12px; stroke-dashoffset:0; image-rendering:auto;"><defs id="genericDefs" /><g><defs id="defs1"><clipPath clipPathUnits="userSpaceOnUse" id="clipPath1"><path d="M446 82 L468 82 L468 104 L446 104 L446 82 Z" /></clipPath><clipPath clipPathUnits="userSpaceOnUse" id="clipPath2"><path d="M394 82 L416 82 L416 104 L394 104 L394 82 Z" /></clipPath><clipPath clipPathUnits="userSpaceOnUse" id="clipPath3"><path d="M364 93 C364 99.0751 359.0751 104 353 104 C346.9249 104 342 99.0751 342 93 C342 86.9249 346.9249 82 353 82 C359.0751 82 364 86.9249 364 93 Z" /></clipPath><clipPath clipPathUnits="userSpaceOnUse" id="clipPath4"><path d="M312 119 C312 125.0751 307.0751 130 301 130 C294.9249 130 290 125.0751 290 119 C290 112.9249 294.9249 108 301 108 C307.0751 108 312 112.9249 312 119 Z" /></clipPath><clipPath clipPathUnits="userSpaceOnUse" id="clipPath5"><path d="M238 108 L260 108 L260 130 L238 130 L238 108 Z" /></clipPath><clipPath clipPathUnits="userSpaceOnUse" id="clipPath6"><path d="M208 119 C208 125.0751 203.0751 130 197 130 C190.9249 130 186 125.0751 186 119 C186 112.9249 190.9249 108 197 108 C203.0751 108 208 112.9249 208 119 Z" /></clipPath><clipPath clipPathUnits="userSpaceOnUse" id="clipPath7"><path d="M134 108 L156 108 L156 130 L134 130 L134 108 Z" /></clipPath><clipPath clipPathUnits="userSpaceOnUse" id="clipPath8"><path d="M145 160 L156 182 L134 182 Z" style="fill-rule:evenodd;" /></clipPath><clipPath clipPathUnits="userSpaceOnUse" id="clipPath9"><path d="M104 119 C104 125.0751 99.0751 130 93 130 C86.9249 130 82 125.0751 82 119 C82 112.9249 86.9249 108 93 108 C99.0751 108 104 112.9249 104 119 Z" /></clipPath><clipPath clipPathUnits="userSpaceOnUse" id="clipPath10"><path d="M41 108 L52 119 L41 130 L30 119 Z" style="fill-rule:evenodd;" /></clipPath><clipPath clipPathUnits="userSpaceOnUse" id="clipPath11"><path d="M312 67 C312 73.0751 307.0751 78 301 78 C294.9249 78 290 73.0751 290 67 C290 60.9249 294.9249 56 301 56 C307.0751 56 312 60.9249 312 67 Z" /></clipPath><clipPath clipPathUnits="userSpaceOnUse" id="clipPath12"><path d="M238 56 L260 56 L260 78 L238 78 L238 56 Z" /></clipPath><clipPath clipPathUnits="userSpaceOnUse" id="clipPath13"><path d="M208 67 C208 73.0751 203.0751 78 197 78 C190.9249 78 186 73.0751 186 67 C186 60.9249 190.9249 56 197 56 C203.0751 56 208 60.9249 208 67 Z" /></clipPath><clipPath clipPathUnits="userSpaceOnUse" id="clipPath14"><path d="M145 56 L156 67 L145 78 L134 67 Z" style="fill-rule:evenodd;" /></clipPath><clipPath clipPathUnits="userSpaceOnUse" id="clipPath15"><path d="M457 52 L446 30 L468 30 Z" style="fill-rule:evenodd;" /></clipPath></defs><g style="fill:white; text-rendering:optimizeSpeed; stroke:white;"><rect height="212" style="stroke:none;" width="498" x="0" y="0" /></g><g ID="l-1:1,2" style="text-rendering:optimizeSpeed;"><polygon points=" 457 93 405 93" style="fill:none;" /></g><g ID="l-1:1,3" style="text-rendering:optimizeSpeed;"><polygon points=" 457 93 457 41" style="fill:none;" /></g><g ID="r-1:1" style="fill:white; text-rendering:optimizeSpeed; stroke:white;" wurcs_mono_id="1"><rect height="22" style="clip-path:url(#clipPath1); stroke:none;" width="22" x="446" y="82" /><rect height="22" style="clip-path:url(#clipPath1); fill:rgb(0,144,188); stroke:none;" width="22" x="446" y="82" /><rect height="22" style="clip-path:url(#clipPath1); fill:none; stroke:black;" width="22" x="446" y="82" /><rect height="22" style="fill:none; stroke:black;" width="22" x="446" y="82" /></g><g ID="l-1:2,4" style="text-rendering:optimizeSpeed;"><polygon points=" 405 93 353 93" style="fill:none;" /></g><g ID="r-1:2" style="fill:white; text-rendering:optimizeSpeed; stroke:white;" wurcs_mono_id="2"><rect height="22" style="clip-path:url(#clipPath2); stroke:none;" width="22" x="394" y="82" /><rect height="22" style="clip-path:url(#clipPath2); fill:rgb(0,144,188); stroke:none;" width="22" x="394" y="82" /><rect height="22" style="clip-path:url(#clipPath2); fill:none; stroke:black;" width="22" x="394" y="82" /><rect height="22" style="fill:none; stroke:black;" width="22" x="394" y="82" /></g><g ID="l-1:4,5" style="text-rendering:optimizeSpeed;"><polygon points=" 353 93 301 119" style="fill:none;" /></g><g ID="l-1:4,6" style="text-rendering:optimizeSpeed;"><polygon points=" 353 93 301 67" style="fill:none;" /></g><g ID="r-1:4" style="fill:white; text-rendering:optimizeSpeed; stroke:white;" wurcs_mono_id="3"><circle cx="353" cy="93" r="11" style="clip-path:url(#clipPath3); stroke:none;" /><rect height="22" style="clip-path:url(#clipPath3); fill:rgb(0,166,81); stroke:none;" width="22" x="342" y="82" /><rect height="22" style="clip-path:url(#clipPath3); fill:none; stroke:black;" width="22" x="342" y="82" /><circle cx="353" cy="93" r="11" style="fill:none; stroke:black;" /></g><g ID="l-1:5,7" style="text-rendering:optimizeSpeed;"><polygon points=" 301 119 249 119" style="fill:none;" /></g><g ID="r-1:5" style="fill:white; text-rendering:optimizeSpeed; stroke:white;" wurcs_mono_id="4"><circle cx="301" cy="119" r="11" style="clip-path:url(#clipPath4); stroke:none;" /><rect height="22" style="clip-path:url(#clipPath4); fill:rgb(0,166,81); stroke:none;" width="22" x="290" y="108" /><rect height="22" style="clip-path:url(#clipPath4); fill:none; stroke:black;" width="22" x="290" y="108" /><circle cx="301" cy="119" r="11" style="fill:none; stroke:black;" /></g><g ID="l-1:7,8" style="text-rendering:optimizeSpeed;"><polygon points=" 249 119 197 119" style="fill:none;" /></g><g ID="r-1:7" style="fill:white; text-rendering:optimizeSpeed; stroke:white;" wurcs_mono_id="5"><rect height="22" style="clip-path:url(#clipPath5); stroke:none;" width="22" x="238" y="108" /><rect height="22" style="clip-path:url(#clipPath5); fill:rgb(0,144,188); stroke:none;" width="22" x="238" y="108" /><rect height="22" style="clip-path:url(#clipPath5); fill:none; stroke:black;" width="22" x="238" y="108" /><rect height="22" style="fill:none; stroke:black;" width="22" x="238" y="108" /></g><g ID="l-1:8,9" style="text-rendering:optimizeSpeed;"><polygon points=" 197 119 145 119" style="fill:none;" /></g><g ID="r-1:8" style="fill:white; text-rendering:optimizeSpeed; stroke:white;" wurcs_mono_id="6"><circle cx="197" cy="119" r="11" style="clip-path:url(#clipPath6); stroke:none;" /><rect height="22" style="clip-path:url(#clipPath6); fill:rgb(255,212,0); stroke:none;" width="22" x="186" y="108" /><rect height="22" style="clip-path:url(#clipPath6); fill:none; stroke:black;" width="22" x="186" y="108" /><circle cx="197" cy="119" r="11" style="fill:none; stroke:black;" /></g><g ID="l-1:9,10" style="text-rendering:optimizeSpeed;"><polygon points=" 145 119 145 171" style="fill:none;" /></g><g ID="l-1:9,11" style="text-rendering:optimizeSpeed;"><polygon points=" 145 119 93 119" style="fill:none;" /></g><g ID="r-1:9" style="fill:white; text-rendering:optimizeSpeed; stroke:white;" wurcs_mono_id="7"><rect height="22" style="clip-path:url(#clipPath7); stroke:none;" width="22" x="134" y="108" /><rect height="22" style="clip-path:url(#clipPath7); fill:rgb(0,144,188); stroke:none;" width="22" x="134" y="108" /><rect height="22" style="clip-path:url(#clipPath7); fill:none; stroke:black;" width="22" x="134" y="108" /><rect height="22" style="fill:none; stroke:black;" width="22" x="134" y="108" /></g><g ID="r-1:10" style="fill:white; text-rendering:optimizeSpeed; stroke:white;" wurcs_mono_id="8"><polygon points=" 145 160 156 182 134 182" style="stroke:none; clip-path:url(#clipPath8);" /><rect height="22" style="clip-path:url(#clipPath8); fill:rgb(237,28,36); stroke:none;" width="22" x="134" y="160" /><rect height="22" style="clip-path:url(#clipPath8); fill:none; stroke:black;" width="22" x="134" y="160" /><polygon points=" 145 160 156 182 134 182" style="fill:none; stroke:black;" /></g><g ID="l-1:11,12" style="text-rendering:optimizeSpeed;"><polygon points=" 93 119 41 119" style="fill:none;" /></g><g ID="r-1:11" style="fill:white; text-rendering:optimizeSpeed; stroke:white;" wurcs_mono_id="9"><circle cx="93" cy="119" r="11" style="clip-path:url(#clipPath9); stroke:none;" /><rect height="22" style="clip-path:url(#clipPath9); fill:rgb(255,212,0); stroke:none;" width="22" x="82" y="108" /><rect height="22" style="clip-path:url(#clipPath9); fill:none; stroke:black;" width="22" x="82" y="108" /><circle cx="93" cy="119" r="11" style="fill:none; stroke:black;" /></g><g ID="r-1:12" style="fill:white; text-rendering:optimizeSpeed; stroke:white;" wurcs_mono_id="10"><polygon points=" 41 108 52 119 41 130 30 119" style="stroke:none; clip-path:url(#clipPath10);" /><rect height="22" style="clip-path:url(#clipPath10); fill:rgb(165,67,153); stroke:none;" width="22" x="30" y="108" /><rect height="22" style="clip-path:url(#clipPath10); fill:none; stroke:black;" width="22" x="30" y="108" /><polygon points=" 41 108 52 119 41 130 30 119" style="fill:none; stroke:black;" /></g><g ID="li-1:11,12" style="fill:white; text-rendering:optimizeSpeed; font-family:'Serif'; stroke:white;"><rect height="10" style="stroke:none;" width="7" x="70" y="122" /><path d="M71.1719 123.625 Q71.8594 123.3594 72.4844 123.2266 Q73.1094 123.0938 73.6562 123.0938 Q74.9531 123.0938 75.6719 123.6484 Q76.3906 124.2031 76.3906 125.1875 Q76.3906 125.9688 75.8906 126.5 Q75.3906 127.0312 74.4844 127.2188 Q75.5625 127.375 76.1562 128.0078 Q76.75 128.6406 76.75 129.6406 Q76.75 130.8594 75.9219 131.5156 Q75.0938 132.1719 73.5469 132.1719 Q72.8594 132.1719 72.2109 132.0234 Q71.5625 131.875 70.9219 131.5781 L70.9219 129.875 L71.5781 129.875 Q71.625 130.7188 72.1406 131.1562 Q72.6562 131.5938 73.5781 131.5938 Q74.4688 131.5938 74.9922 131.0703 Q75.5156 130.5469 75.5156 129.6562 Q75.5156 128.625 74.9766 128.0938 Q74.4375 127.5625 73.4062 127.5625 L72.8594 127.5625 L72.8594 126.9531 L73.1406 126.9531 Q74.1719 126.9531 74.6875 126.5312 Q75.2031 126.1094 75.2031 125.25 Q75.2031 124.4844 74.7812 124.0781 Q74.3594 123.6719 73.5625 123.6719 Q72.7656 123.6719 72.3359 124.0469 Q71.9062 124.4219 71.8281 125.1562 L71.1719 125.1562 L71.1719 123.625 Z" style="fill:black; stroke:none;" /><rect height="8" style="stroke:none;" width="8" x="56" y="123" /><path d="M61.1875 129.4688 L60.9531 130.1094 Q60.7656 130.625 60.2031 130.9375 Q59.8438 131.1562 59.2031 131.1406 Q58.0469 131.1406 57.3281 130.2344 Q56.5938 129.3281 56.5938 127.8594 Q56.5938 126.4219 57.3281 125.4844 Q58.0156 124.5938 59.4531 124.6094 Q60.4531 124.6094 60.9531 125 Q61.4062 125.3438 61.5781 126.0938 L61.625 126.3125 L61.8438 125.6719 Q62.0625 125.0469 62.6562 124.75 L63.25 124.75 L63.25 125.0938 Q62.6875 125.2656 62.5 125.8125 L61.8906 127.4844 L62.2969 129.2812 Q62.5 130.2031 62.7344 130.2969 Q63.0469 130.4375 63.7812 130 L63.7812 130.7188 Q62.5938 131.4062 61.75 130.6875 Q61.375 130.3594 61.2656 129.875 L61.1875 129.4688 ZM60.9219 128.3125 L60.5625 126.5938 Q60.2656 125.2188 59.4688 125.2188 Q58.7969 125.2031 58.2812 125.9375 Q57.8594 126.5156 57.8594 127.875 Q57.8594 129.1719 58.2812 129.8281 Q58.75 130.5469 59.5312 130.5 Q60.2031 130.4375 60.6875 129 L60.9219 128.3125 Z" style="fill:black; stroke:none;" /></g><g ID="li-1:9,10" style="fill:white; text-rendering:optimizeSpeed; font-family:'Serif'; stroke:white;"><rect height="10" style="stroke:none;" width="7" x="149" y="133" /><path d="M150.1719 134.625 Q150.8594 134.3594 151.4844 134.2266 Q152.1094 134.0938 152.6562 134.0938 Q153.9531 134.0938 154.6719 134.6484 Q155.3906 135.2031 155.3906 136.1875 Q155.3906 136.9688 154.8906 137.5 Q154.3906 138.0312 153.4844 138.2188 Q154.5625 138.375 155.1562 139.0078 Q155.75 139.6406 155.75 140.6406 Q155.75 141.8594 154.9219 142.5156 Q154.0938 143.1719 152.5469 143.1719 Q151.8594 143.1719 151.2109 143.0234 Q150.5625 142.875 149.9219 142.5781 L149.9219 140.875 L150.5781 140.875 Q150.625 141.7188 151.1406 142.1562 Q151.6562 142.5938 152.5781 142.5938 Q153.4688 142.5938 153.9922 142.0703 Q154.5156 141.5469 154.5156 140.6562 Q154.5156 139.625 153.9766 139.0938 Q153.4375 138.5625 152.4062 138.5625 L151.8594 138.5625 L151.8594 137.9531 L152.1406 137.9531 Q153.1719 137.9531 153.6875 137.5312 Q154.2031 137.1094 154.2031 136.25 Q154.2031 135.4844 153.7812 135.0781 Q153.3594 134.6719 152.5625 134.6719 Q151.7656 134.6719 151.3359 135.0469 Q150.9062 135.4219 150.8281 136.1562 L150.1719 136.1562 L150.1719 134.625 Z" style="fill:black; stroke:none;" /><rect height="8" style="stroke:none;" width="8" x="149" y="148" /><path d="M154.1875 154.4688 L153.9531 155.1094 Q153.7656 155.625 153.2031 155.9375 Q152.8438 156.1562 152.2031 156.1406 Q151.0469 156.1406 150.3281 155.2344 Q149.5938 154.3281 149.5938 152.8594 Q149.5938 151.4219 150.3281 150.4844 Q151.0156 149.5938 152.4531 149.6094 Q153.4531 149.6094 153.9531 150 Q154.4062 150.3438 154.5781 151.0938 L154.625 151.3125 L154.8438 150.6719 Q155.0625 150.0469 155.6562 149.75 L156.25 149.75 L156.25 150.0938 Q155.6875 150.2656 155.5 150.8125 L154.8906 152.4844 L155.2969 154.2812 Q155.5 155.2031 155.7344 155.2969 Q156.0469 155.4375 156.7812 155 L156.7812 155.7188 Q155.5938 156.4062 154.75 155.6875 Q154.375 155.3594 154.2656 154.875 L154.1875 154.4688 ZM153.9219 153.3125 L153.5625 151.5938 Q153.2656 150.2188 152.4688 150.2188 Q151.7969 150.2031 151.2812 150.9375 Q150.8594 151.5156 150.8594 152.875 Q150.8594 154.1719 151.2812 154.8281 Q151.75 155.5469 152.5312 155.5 Q153.2031 155.4375 153.6875 154 L153.9219 153.3125 Z" style="fill:black; stroke:none;" /></g><g ID="li-1:9,11" style="fill:white; text-rendering:optimizeSpeed; font-family:'Serif'; stroke:white;"><rect height="9" style="stroke:none;" width="8" x="122" y="122" /><path d="M126.1875 128.0312 L126.1875 123.375 L123.2031 128.0312 L126.1875 128.0312 ZM128.7656 131 L124.7812 131 L124.7812 130.375 L126.1875 130.375 L126.1875 128.6562 L122.375 128.6562 L122.375 128.0156 L126.2031 122.0938 L127.3594 122.0938 L127.3594 128.0312 L129.0312 128.0312 L129.0312 128.6562 L127.3594 128.6562 L127.3594 130.375 L128.7656 130.375 L128.7656 131 Z" style="fill:black; stroke:none;" /><rect height="13" style="stroke:none;" width="7" x="108" y="120" /><path d="M109.8281 132.25 Q110.2969 132.5938 111.1719 132.5938 Q112.0625 132.5938 112.5781 132.0703 Q113.0938 131.5469 113.0938 130.6562 Q113.0938 129.4219 112.5625 128.8906 Q112.0156 128.3594 111 128.3594 L110.4375 128.3594 L110.4375 127.7188 L110.7344 127.7188 Q111.4844 127.7188 112 127.2969 Q112.4219 126.9531 112.4219 126.0156 Q112.4219 125.6094 112.1406 125.1406 Q111.6875 124.375 111.1562 124.3906 Q109.8281 124.4375 109.8281 126.7812 L109.8281 132.25 ZM108.75 135.5 L108.75 126.7812 Q108.75 124.3281 110.0781 124 Q110.7656 123.8125 111.25 123.8125 Q112.3438 123.8125 113.0469 124.6719 Q113.6094 125.3594 113.6094 125.9375 Q113.6094 126.7812 113.2031 127.2656 Q112.7969 127.75 112.0625 127.9844 Q113.1406 128.1406 113.75 128.7812 Q114.3281 129.4062 114.3281 130.6328 Q114.3281 131.8594 113.5078 132.5156 Q112.6875 133.1719 111.1406 133.1719 Q110.1875 133.1719 109.8281 133.0312 L109.8281 135.5 L108.75 135.5 Z" style="fill:black; stroke:none;" /></g><g ID="li-1:8,9" style="fill:white; text-rendering:optimizeSpeed; font-family:'Serif'; stroke:white;"><rect height="10" style="stroke:none;" width="6" x="175" y="122" /><path d="M177.1094 131.3906 Q177.1094 131.0625 177.3359 130.8359 Q177.5625 130.6094 177.8906 130.6094 Q178.2188 130.6094 178.4453 130.8359 Q178.6719 131.0625 178.6719 131.3906 Q178.6719 131.7188 178.4453 131.9453 Q178.2188 132.1719 177.8906 132.1719 Q177.5625 132.1719 177.3359 131.9453 Q177.1094 131.7188 177.1094 131.3906 ZM175.8125 123.6406 Q176.4375 123.3594 177 123.2266 Q177.5625 123.0938 178.0469 123.0938 Q179.3438 123.0938 180.1016 123.7188 Q180.8594 124.3438 180.8594 125.4062 Q180.8594 126.5 180.2109 127.1953 Q179.5625 127.8906 178.25 128.1875 L178.25 129.6719 L177.5312 129.6719 L177.5312 127.75 Q178.5625 127.5 179.0938 126.9062 Q179.625 126.3125 179.625 125.4062 Q179.625 124.5938 179.1953 124.1328 Q178.7656 123.6719 178.0312 123.6719 Q177.3594 123.6719 176.9297 124.0547 Q176.5 124.4375 176.3906 125.1562 L175.8125 125.1562 L175.8125 123.6406 Z" style="fill:black; stroke:none;" /><rect height="10" style="stroke:none;" width="6" x="161" y="122" /><path d="M163.1094 131.3906 Q163.1094 131.0625 163.3359 130.8359 Q163.5625 130.6094 163.8906 130.6094 Q164.2188 130.6094 164.4453 130.8359 Q164.6719 131.0625 164.6719 131.3906 Q164.6719 131.7188 164.4453 131.9453 Q164.2188 132.1719 163.8906 132.1719 Q163.5625 132.1719 163.3359 131.9453 Q163.1094 131.7188 163.1094 131.3906 ZM161.8125 123.6406 Q162.4375 123.3594 163 123.2266 Q163.5625 123.0938 164.0469 123.0938 Q165.3438 123.0938 166.1016 123.7188 Q166.8594 124.3438 166.8594 125.4062 Q166.8594 126.5 166.2109 127.1953 Q165.5625 127.8906 164.25 128.1875 L164.25 129.6719 L163.5312 129.6719 L163.5312 127.75 Q164.5625 127.5 165.0938 126.9062 Q165.625 126.3125 165.625 125.4062 Q165.625 124.5938 165.1953 124.1328 Q164.7656 123.6719 164.0312 123.6719 Q163.3594 123.6719 162.9297 124.0547 Q162.5 124.4375 162.3906 125.1562 L161.8125 125.1562 L161.8125 123.6406 Z" style="fill:black; stroke:none;" /></g><g ID="li-1:7,8" style="fill:white; text-rendering:optimizeSpeed; font-family:'Serif'; stroke:white;"><rect height="10" style="stroke:none;" width="6" x="227" y="122" /><path d="M229.1094 131.3906 Q229.1094 131.0625 229.3359 130.8359 Q229.5625 130.6094 229.8906 130.6094 Q230.2188 130.6094 230.4453 130.8359 Q230.6719 131.0625 230.6719 131.3906 Q230.6719 131.7188 230.4453 131.9453 Q230.2188 132.1719 229.8906 132.1719 Q229.5625 132.1719 229.3359 131.9453 Q229.1094 131.7188 229.1094 131.3906 ZM227.8125 123.6406 Q228.4375 123.3594 229 123.2266 Q229.5625 123.0938 230.0469 123.0938 Q231.3438 123.0938 232.1016 123.7188 Q232.8594 124.3438 232.8594 125.4062 Q232.8594 126.5 232.2109 127.1953 Q231.5625 127.8906 230.25 128.1875 L230.25 129.6719 L229.5312 129.6719 L229.5312 127.75 Q230.5625 127.5 231.0938 126.9062 Q231.625 126.3125 231.625 125.4062 Q231.625 124.5938 231.1953 124.1328 Q230.7656 123.6719 230.0312 123.6719 Q229.3594 123.6719 228.9297 124.0547 Q228.5 124.4375 228.3906 125.1562 L227.8125 125.1562 L227.8125 123.6406 Z" style="fill:black; stroke:none;" /><rect height="10" style="stroke:none;" width="6" x="213" y="122" /><path d="M215.1094 131.3906 Q215.1094 131.0625 215.3359 130.8359 Q215.5625 130.6094 215.8906 130.6094 Q216.2188 130.6094 216.4453 130.8359 Q216.6719 131.0625 216.6719 131.3906 Q216.6719 131.7188 216.4453 131.9453 Q216.2188 132.1719 215.8906 132.1719 Q215.5625 132.1719 215.3359 131.9453 Q215.1094 131.7188 215.1094 131.3906 ZM213.8125 123.6406 Q214.4375 123.3594 215 123.2266 Q215.5625 123.0938 216.0469 123.0938 Q217.3438 123.0938 218.1016 123.7188 Q218.8594 124.3438 218.8594 125.4062 Q218.8594 126.5 218.2109 127.1953 Q217.5625 127.8906 216.25 128.1875 L216.25 129.6719 L215.5312 129.6719 L215.5312 127.75 Q216.5625 127.5 217.0938 126.9062 Q217.625 126.3125 217.625 125.4062 Q217.625 124.5938 217.1953 124.1328 Q216.7656 123.6719 216.0312 123.6719 Q215.3594 123.6719 214.9297 124.0547 Q214.5 124.4375 214.3906 125.1562 L213.8125 125.1562 L213.8125 123.6406 Z" style="fill:black; stroke:none;" /></g><g ID="li-1:5,7" style="fill:white; text-rendering:optimizeSpeed; font-family:'Serif'; stroke:white;"><rect height="10" style="stroke:none;" width="6" x="279" y="122" /><path d="M281.1094 131.3906 Q281.1094 131.0625 281.3359 130.8359 Q281.5625 130.6094 281.8906 130.6094 Q282.2188 130.6094 282.4453 130.8359 Q282.6719 131.0625 282.6719 131.3906 Q282.6719 131.7188 282.4453 131.9453 Q282.2188 132.1719 281.8906 132.1719 Q281.5625 132.1719 281.3359 131.9453 Q281.1094 131.7188 281.1094 131.3906 ZM279.8125 123.6406 Q280.4375 123.3594 281 123.2266 Q281.5625 123.0938 282.0469 123.0938 Q283.3438 123.0938 284.1016 123.7188 Q284.8594 124.3438 284.8594 125.4062 Q284.8594 126.5 284.2109 127.1953 Q283.5625 127.8906 282.25 128.1875 L282.25 129.6719 L281.5312 129.6719 L281.5312 127.75 Q282.5625 127.5 283.0938 126.9062 Q283.625 126.3125 283.625 125.4062 Q283.625 124.5938 283.1953 124.1328 Q282.7656 123.6719 282.0312 123.6719 Q281.3594 123.6719 280.9297 124.0547 Q280.5 124.4375 280.3906 125.1562 L279.8125 125.1562 L279.8125 123.6406 Z" style="fill:black; stroke:none;" /><rect height="10" style="stroke:none;" width="6" x="265" y="122" /><path d="M267.1094 131.3906 Q267.1094 131.0625 267.3359 130.8359 Q267.5625 130.6094 267.8906 130.6094 Q268.2188 130.6094 268.4453 130.8359 Q268.6719 131.0625 268.6719 131.3906 Q268.6719 131.7188 268.4453 131.9453 Q268.2188 132.1719 267.8906 132.1719 Q267.5625 132.1719 267.3359 131.9453 Q267.1094 131.7188 267.1094 131.3906 ZM265.8125 123.6406 Q266.4375 123.3594 267 123.2266 Q267.5625 123.0938 268.0469 123.0938 Q269.3438 123.0938 270.1016 123.7188 Q270.8594 124.3438 270.8594 125.4062 Q270.8594 126.5 270.2109 127.1953 Q269.5625 127.8906 268.25 128.1875 L268.25 129.6719 L267.5312 129.6719 L267.5312 127.75 Q268.5625 127.5 269.0938 126.9062 Q269.625 126.3125 269.625 125.4062 Q269.625 124.5938 269.1953 124.1328 Q268.7656 123.6719 268.0312 123.6719 Q267.3594 123.6719 266.9297 124.0547 Q266.5 124.4375 266.3906 125.1562 L265.8125 125.1562 L265.8125 123.6406 Z" style="fill:black; stroke:none;" /></g><g ID="l-1:6,13" style="text-rendering:optimizeSpeed;"><polygon points=" 301 67 249 67" style="fill:none;" /></g><g ID="r-1:6" style="fill:white; text-rendering:optimizeSpeed; stroke:white;" wurcs_mono_id="11"><circle cx="301" cy="67" r="11" style="clip-path:url(#clipPath11); stroke:none;" /><rect height="22" style="clip-path:url(#clipPath11); fill:rgb(0,166,81); stroke:none;" width="22" x="290" y="56" /><rect height="22" style="clip-path:url(#clipPath11); fill:none; stroke:black;" width="22" x="290" y="56" /><circle cx="301" cy="67" r="11" style="fill:none; stroke:black;" /></g><g ID="l-1:13,14" style="text-rendering:optimizeSpeed;"><polygon points=" 249 67 197 67" style="fill:none;" /></g><g ID="r-1:13" style="fill:white; text-rendering:optimizeSpeed; stroke:white;" wurcs_mono_id="12"><rect height="22" style="clip-path:url(#clipPath12); stroke:none;" width="22" x="238" y="56" /><rect height="22" style="clip-path:url(#clipPath12); fill:rgb(0,144,188); stroke:none;" width="22" x="238" y="56" /><rect height="22" style="clip-path:url(#clipPath12); fill:none; stroke:black;" width="22" x="238" y="56" /><rect height="22" style="fill:none; stroke:black;" width="22" x="238" y="56" /></g><g ID="l-1:14,15" style="text-rendering:optimizeSpeed;"><polygon points=" 197 67 145 67" style="fill:none;" /></g><g ID="r-1:14" style="fill:white; text-rendering:optimizeSpeed; stroke:white;" wurcs_mono_id="13"><circle cx="197" cy="67" r="11" style="clip-path:url(#clipPath13); stroke:none;" /><rect height="22" style="clip-path:url(#clipPath13); fill:rgb(255,212,0); stroke:none;" width="22" x="186" y="56" /><rect height="22" style="clip-path:url(#clipPath13); fill:none; stroke:black;" width="22" x="186" y="56" /><circle cx="197" cy="67" r="11" style="fill:none; stroke:black;" /></g><g ID="r-1:15" style="fill:white; text-rendering:optimizeSpeed; stroke:white;" wurcs_mono_id="14"><polygon points=" 145 56 156 67 145 78 134 67" style="stroke:none; clip-path:url(#clipPath14);" /><rect height="22" style="clip-path:url(#clipPath14); fill:rgb(165,67,153); stroke:none;" width="22" x="134" y="56" /><rect height="22" style="clip-path:url(#clipPath14); fill:none; stroke:black;" width="22" x="134" y="56" /><polygon points=" 145 56 156 67 145 78 134 67" style="fill:none; stroke:black;" /></g><g ID="li-1:14,15" style="fill:white; text-rendering:optimizeSpeed; font-family:'Serif'; stroke:white;"><rect height="10" style="stroke:none;" width="7" x="174" y="70" /><path d="M175.1719 71.625 Q175.8594 71.3594 176.4844 71.2266 Q177.1094 71.0938 177.6562 71.0938 Q178.9531 71.0938 179.6719 71.6484 Q180.3906 72.2031 180.3906 73.1875 Q180.3906 73.9688 179.8906 74.5 Q179.3906 75.0312 178.4844 75.2188 Q179.5625 75.375 180.1562 76.0078 Q180.75 76.6406 180.75 77.6406 Q180.75 78.8594 179.9219 79.5156 Q179.0938 80.1719 177.5469 80.1719 Q176.8594 80.1719 176.2109 80.0234 Q175.5625 79.875 174.9219 79.5781 L174.9219 77.875 L175.5781 77.875 Q175.625 78.7188 176.1406 79.1562 Q176.6562 79.5938 177.5781 79.5938 Q178.4688 79.5938 178.9922 79.0703 Q179.5156 78.5469 179.5156 77.6562 Q179.5156 76.625 178.9766 76.0938 Q178.4375 75.5625 177.4062 75.5625 L176.8594 75.5625 L176.8594 74.9531 L177.1406 74.9531 Q178.1719 74.9531 178.6875 74.5312 Q179.2031 74.1094 179.2031 73.25 Q179.2031 72.4844 178.7812 72.0781 Q178.3594 71.6719 177.5625 71.6719 Q176.7656 71.6719 176.3359 72.0469 Q175.9062 72.4219 175.8281 73.1562 L175.1719 73.1562 L175.1719 71.625 Z" style="fill:black; stroke:none;" /><rect height="8" style="stroke:none;" width="8" x="160" y="71" /><path d="M165.1875 77.4688 L164.9531 78.1094 Q164.7656 78.625 164.2031 78.9375 Q163.8438 79.1562 163.2031 79.1406 Q162.0469 79.1406 161.3281 78.2344 Q160.5938 77.3281 160.5938 75.8594 Q160.5938 74.4219 161.3281 73.4844 Q162.0156 72.5938 163.4531 72.6094 Q164.4531 72.6094 164.9531 73 Q165.4062 73.3438 165.5781 74.0938 L165.625 74.3125 L165.8438 73.6719 Q166.0625 73.0469 166.6562 72.75 L167.25 72.75 L167.25 73.0938 Q166.6875 73.2656 166.5 73.8125 L165.8906 75.4844 L166.2969 77.2812 Q166.5 78.2031 166.7344 78.2969 Q167.0469 78.4375 167.7812 78 L167.7812 78.7188 Q166.5938 79.4062 165.75 78.6875 Q165.375 78.3594 165.2656 77.875 L165.1875 77.4688 ZM164.9219 76.3125 L164.5625 74.5938 Q164.2656 73.2188 163.4688 73.2188 Q162.7969 73.2031 162.2812 73.9375 Q161.8594 74.5156 161.8594 75.875 Q161.8594 77.1719 162.2812 77.8281 Q162.75 78.5469 163.5312 78.5 Q164.2031 78.4375 164.6875 77 L164.9219 76.3125 Z" style="fill:black; stroke:none;" /></g><g ID="li-1:13,14" style="fill:white; text-rendering:optimizeSpeed; font-family:'Serif'; stroke:white;"><rect height="10" style="stroke:none;" width="6" x="227" y="70" /><path d="M229.1094 79.3906 Q229.1094 79.0625 229.3359 78.8359 Q229.5625 78.6094 229.8906 78.6094 Q230.2188 78.6094 230.4453 78.8359 Q230.6719 79.0625 230.6719 79.3906 Q230.6719 79.7188 230.4453 79.9453 Q230.2188 80.1719 229.8906 80.1719 Q229.5625 80.1719 229.3359 79.9453 Q229.1094 79.7188 229.1094 79.3906 ZM227.8125 71.6406 Q228.4375 71.3594 229 71.2266 Q229.5625 71.0938 230.0469 71.0938 Q231.3438 71.0938 232.1016 71.7188 Q232.8594 72.3438 232.8594 73.4062 Q232.8594 74.5 232.2109 75.1953 Q231.5625 75.8906 230.25 76.1875 L230.25 77.6719 L229.5312 77.6719 L229.5312 75.75 Q230.5625 75.5 231.0938 74.9062 Q231.625 74.3125 231.625 73.4062 Q231.625 72.5938 231.1953 72.1328 Q230.7656 71.6719 230.0312 71.6719 Q229.3594 71.6719 228.9297 72.0547 Q228.5 72.4375 228.3906 73.1562 L227.8125 73.1562 L227.8125 71.6406 Z" style="fill:black; stroke:none;" /><rect height="10" style="stroke:none;" width="6" x="213" y="70" /><path d="M215.1094 79.3906 Q215.1094 79.0625 215.3359 78.8359 Q215.5625 78.6094 215.8906 78.6094 Q216.2188 78.6094 216.4453 78.8359 Q216.6719 79.0625 216.6719 79.3906 Q216.6719 79.7188 216.4453 79.9453 Q216.2188 80.1719 215.8906 80.1719 Q215.5625 80.1719 215.3359 79.9453 Q215.1094 79.7188 215.1094 79.3906 ZM213.8125 71.6406 Q214.4375 71.3594 215 71.2266 Q215.5625 71.0938 216.0469 71.0938 Q217.3438 71.0938 218.1016 71.7188 Q218.8594 72.3438 218.8594 73.4062 Q218.8594 74.5 218.2109 75.1953 Q217.5625 75.8906 216.25 76.1875 L216.25 77.6719 L215.5312 77.6719 L215.5312 75.75 Q216.5625 75.5 217.0938 74.9062 Q217.625 74.3125 217.625 73.4062 Q217.625 72.5938 217.1953 72.1328 Q216.7656 71.6719 216.0312 71.6719 Q215.3594 71.6719 214.9297 72.0547 Q214.5 72.4375 214.3906 73.1562 L213.8125 73.1562 L213.8125 71.6406 Z" style="fill:black; stroke:none;" /></g><g ID="li-1:6,13" style="fill:white; text-rendering:optimizeSpeed; font-family:'Serif'; stroke:white;"><rect height="10" style="stroke:none;" width="6" x="279" y="70" /><path d="M281.1094 79.3906 Q281.1094 79.0625 281.3359 78.8359 Q281.5625 78.6094 281.8906 78.6094 Q282.2188 78.6094 282.4453 78.8359 Q282.6719 79.0625 282.6719 79.3906 Q282.6719 79.7188 282.4453 79.9453 Q282.2188 80.1719 281.8906 80.1719 Q281.5625 80.1719 281.3359 79.9453 Q281.1094 79.7188 281.1094 79.3906 ZM279.8125 71.6406 Q280.4375 71.3594 281 71.2266 Q281.5625 71.0938 282.0469 71.0938 Q283.3438 71.0938 284.1016 71.7188 Q284.8594 72.3438 284.8594 73.4062 Q284.8594 74.5 284.2109 75.1953 Q283.5625 75.8906 282.25 76.1875 L282.25 77.6719 L281.5312 77.6719 L281.5312 75.75 Q282.5625 75.5 283.0938 74.9062 Q283.625 74.3125 283.625 73.4062 Q283.625 72.5938 283.1953 72.1328 Q282.7656 71.6719 282.0312 71.6719 Q281.3594 71.6719 280.9297 72.0547 Q280.5 72.4375 280.3906 73.1562 L279.8125 73.1562 L279.8125 71.6406 Z" style="fill:black; stroke:none;" /><rect height="10" style="stroke:none;" width="6" x="265" y="70" /><path d="M267.1094 79.3906 Q267.1094 79.0625 267.3359 78.8359 Q267.5625 78.6094 267.8906 78.6094 Q268.2188 78.6094 268.4453 78.8359 Q268.6719 79.0625 268.6719 79.3906 Q268.6719 79.7188 268.4453 79.9453 Q268.2188 80.1719 267.8906 80.1719 Q267.5625 80.1719 267.3359 79.9453 Q267.1094 79.7188 267.1094 79.3906 ZM265.8125 71.6406 Q266.4375 71.3594 267 71.2266 Q267.5625 71.0938 268.0469 71.0938 Q269.3438 71.0938 270.1016 71.7188 Q270.8594 72.3438 270.8594 73.4062 Q270.8594 74.5 270.2109 75.1953 Q269.5625 75.8906 268.25 76.1875 L268.25 77.6719 L267.5312 77.6719 L267.5312 75.75 Q268.5625 75.5 269.0938 74.9062 Q269.625 74.3125 269.625 73.4062 Q269.625 72.5938 269.1953 72.1328 Q268.7656 71.6719 268.0312 71.6719 Q267.3594 71.6719 266.9297 72.0547 Q266.5 72.4375 266.3906 73.1562 L265.8125 73.1562 L265.8125 71.6406 Z" style="fill:black; stroke:none;" /></g><g ID="li-1:4,5" style="fill:white; text-rendering:optimizeSpeed; font-family:'Serif'; stroke:white;"><rect height="11" style="stroke:none;" width="19" x="328" y="103" /><path d="M329.1719 105.625 Q329.8594 105.3594 330.4844 105.2266 Q331.1094 105.0938 331.6562 105.0938 Q332.9531 105.0938 333.6719 105.6484 Q334.3906 106.2031 334.3906 107.1875 Q334.3906 107.9688 333.8906 108.5 Q333.3906 109.0312 332.4844 109.2188 Q333.5625 109.375 334.1562 110.0078 Q334.75 110.6406 334.75 111.6406 Q334.75 112.8594 333.9219 113.5156 Q333.0938 114.1719 331.5469 114.1719 Q330.8594 114.1719 330.2109 114.0234 Q329.5625 113.875 328.9219 113.5781 L328.9219 111.875 L329.5781 111.875 Q329.625 112.7188 330.1406 113.1562 Q330.6562 113.5938 331.5781 113.5938 Q332.4688 113.5938 332.9922 113.0703 Q333.5156 112.5469 333.5156 111.6562 Q333.5156 110.625 332.9766 110.0938 Q332.4375 109.5625 331.4062 109.5625 L330.8594 109.5625 L330.8594 108.9531 L331.1406 108.9531 Q332.1719 108.9531 332.6875 108.5312 Q333.2031 108.1094 333.2031 107.25 Q333.2031 106.4844 332.7812 106.0781 Q332.3594 105.6719 331.5625 105.6719 Q330.7656 105.6719 330.3359 106.0469 Q329.9062 106.4219 329.8281 107.1562 L329.1719 107.1562 L329.1719 105.625 ZM338.7441 105.25 L339.6816 105.25 L336.5723 115.1094 L335.6348 115.1094 L338.7441 105.25 ZM343.5996 113.5938 Q344.4277 113.5938 344.873 112.9844 Q345.3184 112.375 345.3184 111.2344 Q345.3184 110.1094 344.873 109.5 Q344.4277 108.8906 343.5996 108.8906 Q342.7715 108.8906 342.3262 109.4766 Q341.8809 110.0625 341.8809 111.1719 Q341.8809 112.3281 342.3262 112.9609 Q342.7715 113.5938 343.5996 113.5938 ZM341.6934 109.1875 Q342.0996 108.75 342.5996 108.5312 Q343.0996 108.3125 343.7402 108.3125 Q345.0371 108.3125 345.7949 109.0938 Q346.5527 109.875 346.5527 111.2344 Q346.5527 112.5625 345.7402 113.3672 Q344.9277 114.1719 343.5527 114.1719 Q342.0684 114.1719 341.2715 113.0625 Q340.4746 111.9531 340.4746 109.9062 Q340.4746 107.6094 341.4199 106.3516 Q342.3652 105.0938 344.084 105.0938 Q344.5527 105.0938 345.0605 105.1797 Q345.5684 105.2656 346.0996 105.4375 L346.0996 106.8906 L345.4434 106.8906 Q345.3652 106.2969 344.9824 105.9844 Q344.5996 105.6719 343.959 105.6719 Q342.8184 105.6719 342.2637 106.5312 Q341.709 107.3906 341.6934 109.1875 Z" style="fill:black; stroke:none;" /><rect height="8" style="stroke:none;" width="8" x="318" y="113" /><path d="M323.1875 119.4688 L322.9531 120.1094 Q322.7656 120.625 322.2031 120.9375 Q321.8438 121.1562 321.2031 121.1406 Q320.0469 121.1406 319.3281 120.2344 Q318.5938 119.3281 318.5938 117.8594 Q318.5938 116.4219 319.3281 115.4844 Q320.0156 114.5938 321.4531 114.6094 Q322.4531 114.6094 322.9531 115 Q323.4062 115.3438 323.5781 116.0938 L323.625 116.3125 L323.8438 115.6719 Q324.0625 115.0469 324.6562 114.75 L325.25 114.75 L325.25 115.0938 Q324.6875 115.2656 324.5 115.8125 L323.8906 117.4844 L324.2969 119.2812 Q324.5 120.2031 324.7344 120.2969 Q325.0469 120.4375 325.7812 120 L325.7812 120.7188 Q324.5938 121.4062 323.75 120.6875 Q323.375 120.3594 323.2656 119.875 L323.1875 119.4688 ZM322.9219 118.3125 L322.5625 116.5938 Q322.2656 115.2188 321.4688 115.2188 Q320.7969 115.2031 320.2812 115.9375 Q319.8594 116.5156 319.8594 117.875 Q319.8594 119.1719 320.2812 119.8281 Q320.75 120.5469 321.5312 120.5 Q322.2031 120.4375 322.6875 119 L322.9219 118.3125 Z" style="fill:black; stroke:none;" /></g><g ID="li-1:4,6" style="fill:white; text-rendering:optimizeSpeed; font-family:'Serif'; stroke:white;"><rect height="11" style="stroke:none;" width="19" x="321" y="85" /><path d="M322.1719 87.625 Q322.8594 87.3594 323.4844 87.2266 Q324.1094 87.0938 324.6562 87.0938 Q325.9531 87.0938 326.6719 87.6484 Q327.3906 88.2031 327.3906 89.1875 Q327.3906 89.9688 326.8906 90.5 Q326.3906 91.0312 325.4844 91.2188 Q326.5625 91.375 327.1562 92.0078 Q327.75 92.6406 327.75 93.6406 Q327.75 94.8594 326.9219 95.5156 Q326.0938 96.1719 324.5469 96.1719 Q323.8594 96.1719 323.2109 96.0234 Q322.5625 95.875 321.9219 95.5781 L321.9219 93.875 L322.5781 93.875 Q322.625 94.7188 323.1406 95.1562 Q323.6562 95.5938 324.5781 95.5938 Q325.4688 95.5938 325.9922 95.0703 Q326.5156 94.5469 326.5156 93.6562 Q326.5156 92.625 325.9766 92.0938 Q325.4375 91.5625 324.4062 91.5625 L323.8594 91.5625 L323.8594 90.9531 L324.1406 90.9531 Q325.1719 90.9531 325.6875 90.5312 Q326.2031 90.1094 326.2031 89.25 Q326.2031 88.4844 325.7812 88.0781 Q325.3594 87.6719 324.5625 87.6719 Q323.7656 87.6719 323.3359 88.0469 Q322.9062 88.4219 322.8281 89.1562 L322.1719 89.1562 L322.1719 87.625 ZM331.7441 87.25 L332.6816 87.25 L329.5723 97.1094 L328.6348 97.1094 L331.7441 87.25 ZM336.5996 95.5938 Q337.4277 95.5938 337.873 94.9844 Q338.3184 94.375 338.3184 93.2344 Q338.3184 92.1094 337.873 91.5 Q337.4277 90.8906 336.5996 90.8906 Q335.7715 90.8906 335.3262 91.4766 Q334.8809 92.0625 334.8809 93.1719 Q334.8809 94.3281 335.3262 94.9609 Q335.7715 95.5938 336.5996 95.5938 ZM334.6934 91.1875 Q335.0996 90.75 335.5996 90.5312 Q336.0996 90.3125 336.7402 90.3125 Q338.0371 90.3125 338.7949 91.0938 Q339.5527 91.875 339.5527 93.2344 Q339.5527 94.5625 338.7402 95.3672 Q337.9277 96.1719 336.5527 96.1719 Q335.0684 96.1719 334.2715 95.0625 Q333.4746 93.9531 333.4746 91.9062 Q333.4746 89.6094 334.4199 88.3516 Q335.3652 87.0938 337.084 87.0938 Q337.5527 87.0938 338.0605 87.1797 Q338.5684 87.2656 339.0996 87.4375 L339.0996 88.8906 L338.4434 88.8906 Q338.3652 88.2969 337.9824 87.9844 Q337.5996 87.6719 336.959 87.6719 Q335.8184 87.6719 335.2637 88.5312 Q334.709 89.3906 334.6934 91.1875 Z" style="fill:black; stroke:none;" /><rect height="8" style="stroke:none;" width="8" x="311" y="79" /><path d="M316.1875 85.4688 L315.9531 86.1094 Q315.7656 86.625 315.2031 86.9375 Q314.8438 87.1562 314.2031 87.1406 Q313.0469 87.1406 312.3281 86.2344 Q311.5938 85.3281 311.5938 83.8594 Q311.5938 82.4219 312.3281 81.4844 Q313.0156 80.5938 314.4531 80.6094 Q315.4531 80.6094 315.9531 81 Q316.4062 81.3438 316.5781 82.0938 L316.625 82.3125 L316.8438 81.6719 Q317.0625 81.0469 317.6562 80.75 L318.25 80.75 L318.25 81.0938 Q317.6875 81.2656 317.5 81.8125 L316.8906 83.4844 L317.2969 85.2812 Q317.5 86.2031 317.7344 86.2969 Q318.0469 86.4375 318.7812 86 L318.7812 86.7188 Q317.5938 87.4062 316.75 86.6875 Q316.375 86.3594 316.2656 85.875 L316.1875 85.4688 ZM315.9219 84.3125 L315.5625 82.5938 Q315.2656 81.2188 314.4688 81.2188 Q313.7969 81.2031 313.2812 81.9375 Q312.8594 82.5156 312.8594 83.875 Q312.8594 85.1719 313.2812 85.8281 Q313.75 86.5469 314.5312 86.5 Q315.2031 86.4375 315.6875 85 L315.9219 84.3125 Z" style="fill:black; stroke:none;" /></g><g ID="li-1:2,4" style="fill:white; text-rendering:optimizeSpeed; font-family:'Serif'; stroke:white;"><rect height="9" style="stroke:none;" width="8" x="382" y="96" /><path d="M386.1875 102.0312 L386.1875 97.375 L383.2031 102.0312 L386.1875 102.0312 ZM388.7656 105 L384.7812 105 L384.7812 104.375 L386.1875 104.375 L386.1875 102.6562 L382.375 102.6562 L382.375 102.0156 L386.2031 96.0938 L387.3594 96.0938 L387.3594 102.0312 L389.0312 102.0312 L389.0312 102.6562 L387.3594 102.6562 L387.3594 104.375 L388.7656 104.375 L388.7656 105 Z" style="fill:black; stroke:none;" /><rect height="13" style="stroke:none;" width="7" x="368" y="94" /><path d="M369.8281 106.25 Q370.2969 106.5938 371.1719 106.5938 Q372.0625 106.5938 372.5781 106.0703 Q373.0938 105.5469 373.0938 104.6562 Q373.0938 103.4219 372.5625 102.8906 Q372.0156 102.3594 371 102.3594 L370.4375 102.3594 L370.4375 101.7188 L370.7344 101.7188 Q371.4844 101.7188 372 101.2969 Q372.4219 100.9531 372.4219 100.0156 Q372.4219 99.6094 372.1406 99.1406 Q371.6875 98.375 371.1562 98.3906 Q369.8281 98.4375 369.8281 100.7812 L369.8281 106.25 ZM368.75 109.5 L368.75 100.7812 Q368.75 98.3281 370.0781 98 Q370.7656 97.8125 371.25 97.8125 Q372.3438 97.8125 373.0469 98.6719 Q373.6094 99.3594 373.6094 99.9375 Q373.6094 100.7812 373.2031 101.2656 Q372.7969 101.75 372.0625 101.9844 Q373.1406 102.1406 373.75 102.7812 Q374.3281 103.4062 374.3281 104.6328 Q374.3281 105.8594 373.5078 106.5156 Q372.6875 107.1719 371.1406 107.1719 Q370.1875 107.1719 369.8281 107.0312 L369.8281 109.5 L368.75 109.5 Z" style="fill:black; stroke:none;" /></g><g ID="r-1:3" style="fill:white; text-rendering:optimizeSpeed; stroke:white;" wurcs_mono_id="15"><polygon points=" 457 52 446 30 468 30" style="stroke:none; clip-path:url(#clipPath15);" /><rect height="22" style="clip-path:url(#clipPath15); fill:rgb(237,28,36); stroke:none;" width="22" x="446" y="30" /><rect height="22" style="clip-path:url(#clipPath15); fill:none; stroke:black;" width="22" x="446" y="30" /><polygon points=" 457 52 446 30 468 30" style="fill:none; stroke:black;" /></g><g ID="li-1:1,2" style="fill:white; text-rendering:optimizeSpeed; font-family:'Serif'; stroke:white;"><rect height="9" style="stroke:none;" width="8" x="434" y="96" /><path d="M438.1875 102.0312 L438.1875 97.375 L435.2031 102.0312 L438.1875 102.0312 ZM440.7656 105 L436.7812 105 L436.7812 104.375 L438.1875 104.375 L438.1875 102.6562 L434.375 102.6562 L434.375 102.0156 L438.2031 96.0938 L439.3594 96.0938 L439.3594 102.0312 L441.0312 102.0312 L441.0312 102.6562 L439.3594 102.6562 L439.3594 104.375 L440.7656 104.375 L440.7656 105 Z" style="fill:black; stroke:none;" /><rect height="13" style="stroke:none;" width="7" x="420" y="94" /><path d="M421.8281 106.25 Q422.2969 106.5938 423.1719 106.5938 Q424.0625 106.5938 424.5781 106.0703 Q425.0938 105.5469 425.0938 104.6562 Q425.0938 103.4219 424.5625 102.8906 Q424.0156 102.3594 423 102.3594 L422.4375 102.3594 L422.4375 101.7188 L422.7344 101.7188 Q423.4844 101.7188 424 101.2969 Q424.4219 100.9531 424.4219 100.0156 Q424.4219 99.6094 424.1406 99.1406 Q423.6875 98.375 423.1562 98.3906 Q421.8281 98.4375 421.8281 100.7812 L421.8281 106.25 ZM420.75 109.5 L420.75 100.7812 Q420.75 98.3281 422.0781 98 Q422.7656 97.8125 423.25 97.8125 Q424.3438 97.8125 425.0469 98.6719 Q425.6094 99.3594 425.6094 99.9375 Q425.6094 100.7812 425.2031 101.2656 Q424.7969 101.75 424.0625 101.9844 Q425.1406 102.1406 425.75 102.7812 Q426.3281 103.4062 426.3281 104.6328 Q426.3281 105.8594 425.5078 106.5156 Q424.6875 107.1719 423.1406 107.1719 Q422.1875 107.1719 421.8281 107.0312 L421.8281 109.5 L420.75 109.5 Z" style="fill:black; stroke:none;" /></g><g ID="li-1:1,3" style="fill:white; text-rendering:optimizeSpeed; font-family:'Serif'; stroke:white;"><rect height="10" style="stroke:none;" width="7" x="445" y="69" /><path d="M448.9219 78.5938 Q449.75 78.5938 450.1953 77.9844 Q450.6406 77.375 450.6406 76.2344 Q450.6406 75.1094 450.1953 74.5 Q449.75 73.8906 448.9219 73.8906 Q448.0938 73.8906 447.6484 74.4766 Q447.2031 75.0625 447.2031 76.1719 Q447.2031 77.3281 447.6484 77.9609 Q448.0938 78.5938 448.9219 78.5938 ZM447.0156 74.1875 Q447.4219 73.75 447.9219 73.5312 Q448.4219 73.3125 449.0625 73.3125 Q450.3594 73.3125 451.1172 74.0938 Q451.875 74.875 451.875 76.2344 Q451.875 77.5625 451.0625 78.3672 Q450.25 79.1719 448.875 79.1719 Q447.3906 79.1719 446.5938 78.0625 Q445.7969 76.9531 445.7969 74.9062 Q445.7969 72.6094 446.7422 71.3516 Q447.6875 70.0938 449.4062 70.0938 Q449.875 70.0938 450.3828 70.1797 Q450.8906 70.2656 451.4219 70.4375 L451.4219 71.8906 L450.7656 71.8906 Q450.6875 71.2969 450.3047 70.9844 Q449.9219 70.6719 449.2812 70.6719 Q448.1406 70.6719 447.5859 71.5312 Q447.0312 72.3906 447.0156 74.1875 Z" style="fill:black; stroke:none;" /><rect height="8" style="stroke:none;" width="8" x="445" y="56" /><path d="M450.1875 62.4688 L449.9531 63.1094 Q449.7656 63.625 449.2031 63.9375 Q448.8438 64.1562 448.2031 64.1406 Q447.0469 64.1406 446.3281 63.2344 Q445.5938 62.3281 445.5938 60.8594 Q445.5938 59.4219 446.3281 58.4844 Q447.0156 57.5938 448.4531 57.6094 Q449.4531 57.6094 449.9531 58 Q450.4062 58.3438 450.5781 59.0938 L450.625 59.3125 L450.8438 58.6719 Q451.0625 58.0469 451.6562 57.75 L452.25 57.75 L452.25 58.0938 Q451.6875 58.2656 451.5 58.8125 L450.8906 60.4844 L451.2969 62.2812 Q451.5 63.2031 451.7344 63.2969 Q452.0469 63.4375 452.7812 63 L452.7812 63.7188 Q451.5938 64.4062 450.75 63.6875 Q450.375 63.3594 450.2656 62.875 L450.1875 62.4688 ZM449.9219 61.3125 L449.5625 59.5938 Q449.2656 58.2188 448.4688 58.2188 Q447.7969 58.2031 447.2812 58.9375 Q446.8594 59.5156 446.8594 60.875 Q446.8594 62.1719 447.2812 62.8281 Q447.75 63.5469 448.5312 63.5 Q449.2031 63.4375 449.6875 62 L449.9219 61.3125 Z" style="fill:black; stroke:none;" /></g></g></svg>