<svg xmlns="http://www.w3.org/2000/svg" style="fill-opacity:1; color-rendering:auto; color-interpolation:auto; text-rendering:auto; stroke:black; stroke-linecap:square; stroke-miterlimit:10; shape-rendering:auto; stroke-opacity:1; fill:black; stroke-dasharray:none; font-weight:normal; stroke-width:1; font-family:'Dialog'; font-style:normal; stroke-linejoin:miter; font-size:12px; stroke-dashoffset:0; image-rendering:auto;"><defs id="genericDefs" /><g><defs id="defs1"><clipPath clipPathUnits="userSpaceOnUse" id="clipPath1"><path d="M936 93 C936 99.0751 931.0751 104 925 104 C918.9249 104 914 99.0751 914 93 C914 86.9249 918.9249 82 925 82 C931.0751 82 936 86.9249 936 93 Z" /></clipPath><clipPath clipPathUnits="userSpaceOnUse" id="clipPath2"><path d="M884 93 C884 99.0751 879.0751 104 873 104 C866.9249 104 862 99.0751 862 93 C862 86.9249 866.9249 82 873 82 C879.0751 82 884 86.9249 884 93 Z" /></clipPath><clipPath clipPathUnits="userSpaceOnUse" id="clipPath3"><path d="M810 82 L832 82 L832 104 L810 104 L810 82 Z" /></clipPath><clipPath clipPathUnits="userSpaceOnUse" id="clipPath4"><path d="M780 93 C780 99.0751 775.0751 104 769 104 C762.9249 104 758 99.0751 758 93 C758 86.9249 762.9249 82 769 82 C775.0751 82 780 86.9249 780 93 Z" /></clipPath><clipPath clipPathUnits="userSpaceOnUse" id="clipPath5"><path d="M706 82 L728 82 L728 104 L706 104 L706 82 Z" /></clipPath><clipPath clipPathUnits="userSpaceOnUse" id="clipPath6"><path d="M676 93 C676 99.0751 671.0751 104 665 104 C658.9249 104 654 99.0751 654 93 C654 86.9249 658.9249 82 665 82 C671.0751 82 676 86.9249 676 93 Z" /></clipPath><clipPath clipPathUnits="userSpaceOnUse" id="clipPath7"><path d="M602 82 L624 82 L624 104 L602 104 L602 82 Z" /></clipPath><clipPath clipPathUnits="userSpaceOnUse" id="clipPath8"><path d="M572 93 C572 99.0751 567.0751 104 561 104 C554.9249 104 550 99.0751 550 93 C550 86.9249 554.9249 82 561 82 C567.0751 82 572 86.9249 572 93 Z" /></clipPath><clipPath clipPathUnits="userSpaceOnUse" id="clipPath9"><path d="M498 82 L520 82 L520 104 L498 104 L498 82 Z" /></clipPath><clipPath clipPathUnits="userSpaceOnUse" id="clipPath10"><path d="M468 93 C468 99.0751 463.0751 104 457 104 C450.9249 104 446 99.0751 446 93 C446 86.9249 450.9249 82 457 82 C463.0751 82 468 86.9249 468 93 Z" /></clipPath><clipPath clipPathUnits="userSpaceOnUse" id="clipPath11"><path d="M394 82 L416 82 L416 104 L394 104 L394 82 Z" /></clipPath><clipPath clipPathUnits="userSpaceOnUse" id="clipPath12"><path d="M364 93 C364 99.0751 359.0751 104 353 104 C346.9249 104 342 99.0751 342 93 C342 86.9249 346.9249 82 353 82 C359.0751 82 364 86.9249 364 93 Z" /></clipPath><clipPath clipPathUnits="userSpaceOnUse" id="clipPath13"><path d="M290 82 L312 82 L312 104 L290 104 L290 82 Z" /></clipPath><clipPath clipPathUnits="userSpaceOnUse" id="clipPath14"><path d="M260 93 C260 99.0751 255.0751 104 249 104 C242.9249 104 238 99.0751 238 93 C238 86.9249 242.9249 82 249 82 C255.0751 82 260 86.9249 260 93 Z" /></clipPath><clipPath clipPathUnits="userSpaceOnUse" id="clipPath15"><path d="M186 82 L208 82 L208 104 L186 104 L186 82 Z" /></clipPath><clipPath clipPathUnits="userSpaceOnUse" id="clipPath16"><path d="M156 93 C156 99.0751 151.0751 104 145 104 C138.9249 104 134 99.0751 134 93 C134 86.9249 138.9249 82 145 82 C151.0751 82 156 86.9249 156 93 Z" /></clipPath><clipPath clipPathUnits="userSpaceOnUse" id="clipPath17"><path d="M82 134 L104 134 L104 156 L82 156 L82 134 Z" /></clipPath><clipPath clipPathUnits="userSpaceOnUse" id="clipPath18"><path d="M52 145 C52 151.0751 47.0751 156 41 156 C34.9249 156 30 151.0751 30 145 C30 138.9249 34.9249 134 41 134 C47.0751 134 52 138.9249 52 145 Z" /></clipPath><clipPath clipPathUnits="userSpaceOnUse" id="clipPath19"><path d="M41 186 L52 208 L30 208 Z" style="fill-rule:evenodd;" /></clipPath><clipPath clipPathUnits="userSpaceOnUse" id="clipPath20"><path d="M82 30 L104 30 L104 52 L82 52 L82 30 Z" /></clipPath><clipPath clipPathUnits="userSpaceOnUse" id="clipPath21"><path d="M52 41 C52 47.0751 47.0751 52 41 52 C34.9249 52 30 47.0751 30 41 C30 34.9249 34.9249 30 41 30 C47.0751 30 52 34.9249 52 41 Z" /></clipPath><clipPath clipPathUnits="userSpaceOnUse" id="clipPath22"><path d="M41 82 L52 104 L30 104 Z" style="fill-rule:evenodd;" /></clipPath></defs><g style="fill:white; text-rendering:optimizeSpeed; stroke:white;"><rect height="238" style="stroke:none;" width="966" x="0" y="0" /></g><g ID="l-1:1,2" style="text-rendering:optimizeSpeed;"><polygon points=" 925 93 873 93" style="fill:none;" /></g><g ID="r-1:1" style="fill:white; text-rendering:optimizeSpeed; stroke:white;" wurcs_mono_id="1"><circle cx="925" cy="93" r="11" style="clip-path:url(#clipPath1); stroke:none;" /><rect height="22" style="clip-path:url(#clipPath1); fill:rgb(0,144,188); stroke:none;" width="22" x="914" y="82" /><rect height="22" style="clip-path:url(#clipPath1); fill:none; stroke:black;" width="22" x="914" y="82" /><circle cx="925" cy="93" r="11" style="fill:none; stroke:black;" /></g><g ID="l-1:2,3" style="text-rendering:optimizeSpeed;"><polygon points=" 873 93 821 93" style="fill:none;" /></g><g ID="r-1:2" style="fill:white; text-rendering:optimizeSpeed; stroke:white;" wurcs_mono_id="2"><circle cx="873" cy="93" r="11" style="clip-path:url(#clipPath2); stroke:none;" /><rect height="22" style="clip-path:url(#clipPath2); fill:rgb(255,212,0); stroke:none;" width="22" x="862" y="82" /><rect height="22" style="clip-path:url(#clipPath2); fill:none; stroke:black;" width="22" x="862" y="82" /><circle cx="873" cy="93" r="11" style="fill:none; stroke:black;" /></g><g ID="l-1:3,4" style="text-rendering:optimizeSpeed;"><polygon points=" 821 93 769 93" style="fill:none;" /></g><g ID="r-1:3" style="fill:white; text-rendering:optimizeSpeed; stroke:white;" wurcs_mono_id="3"><rect height="22" style="clip-path:url(#clipPath3); stroke:none;" width="22" x="810" y="82" /><rect height="22" style="clip-path:url(#clipPath3); fill:rgb(0,144,188); stroke:none;" width="22" x="810" y="82" /><rect height="22" style="clip-path:url(#clipPath3); fill:none; stroke:black;" width="22" x="810" y="82" /><rect height="22" style="fill:none; stroke:black;" width="22" x="810" y="82" /></g><g ID="l-1:4,5" style="text-rendering:optimizeSpeed;"><polygon points=" 769 93 717 93" style="fill:none;" /></g><g ID="r-1:4" style="fill:white; text-rendering:optimizeSpeed; stroke:white;" wurcs_mono_id="4"><circle cx="769" cy="93" r="11" style="clip-path:url(#clipPath4); stroke:none;" /><rect height="22" style="clip-path:url(#clipPath4); fill:rgb(255,212,0); stroke:none;" width="22" x="758" y="82" /><rect height="22" style="clip-path:url(#clipPath4); fill:none; stroke:black;" width="22" x="758" y="82" /><circle cx="769" cy="93" r="11" style="fill:none; stroke:black;" /></g><g ID="l-1:5,6" style="text-rendering:optimizeSpeed;"><polygon points=" 717 93 665 93" style="fill:none;" /></g><g ID="r-1:5" style="fill:white; text-rendering:optimizeSpeed; stroke:white;" wurcs_mono_id="5"><rect height="22" style="clip-path:url(#clipPath5); stroke:none;" width="22" x="706" y="82" /><rect height="22" style="clip-path:url(#clipPath5); fill:rgb(0,144,188); stroke:none;" width="22" x="706" y="82" /><rect height="22" style="clip-path:url(#clipPath5); fill:none; stroke:black;" width="22" x="706" y="82" /><rect height="22" style="fill:none; stroke:black;" width="22" x="706" y="82" /></g><g ID="l-1:6,7" style="text-rendering:optimizeSpeed;"><polygon points=" 665 93 613 93" style="fill:none;" /></g><g ID="r-1:6" style="fill:white; text-rendering:optimizeSpeed; stroke:white;" wurcs_mono_id="6"><circle cx="665" cy="93" r="11" style="clip-path:url(#clipPath6); stroke:none;" /><rect height="22" style="clip-path:url(#clipPath6); fill:rgb(255,212,0); stroke:none;" width="22" x="654" y="82" /><rect height="22" style="clip-path:url(#clipPath6); fill:none; stroke:black;" width="22" x="654" y="82" /><circle cx="665" cy="93" r="11" style="fill:none; stroke:black;" /></g><g ID="l-1:7,8" style="text-rendering:optimizeSpeed;"><polygon points=" 613 93 561 93" style="fill:none;" /></g><g ID="r-1:7" style="fill:white; text-rendering:optimizeSpeed; stroke:white;" wurcs_mono_id="7"><rect height="22" style="clip-path:url(#clipPath7); stroke:none;" width="22" x="602" y="82" /><rect height="22" style="clip-path:url(#clipPath7); fill:rgb(0,144,188); stroke:none;" width="22" x="602" y="82" /><rect height="22" style="clip-path:url(#clipPath7); fill:none; stroke:black;" width="22" x="602" y="82" /><rect height="22" style="fill:none; stroke:black;" width="22" x="602" y="82" /></g><g ID="l-1:8,9" style="text-rendering:optimizeSpeed;"><polygon points=" 561 93 509 93" style="fill:none;" /></g><g ID="r-1:8" style="fill:white; text-rendering:optimizeSpeed; stroke:white;" wurcs_mono_id="8"><circle cx="561" cy="93" r="11" style="clip-path:url(#clipPath8); stroke:none;" /><rect height="22" style="clip-path:url(#clipPath8); fill:rgb(255,212,0); stroke:none;" width="22" x="550" y="82" /><rect height="22" style="clip-path:url(#clipPath8); fill:none; stroke:black;" width="22" x="550" y="82" /><circle cx="561" cy="93" r="11" style="fill:none; stroke:black;" /></g><g ID="l-1:9,10" style="text-rendering:optimizeSpeed;"><polygon points=" 509 93 457 93" style="fill:none;" /></g><g ID="r-1:9" style="fill:white; text-rendering:optimizeSpeed; stroke:white;" wurcs_mono_id="9"><rect height="22" style="clip-path:url(#clipPath9); stroke:none;" width="22" x="498" y="82" /><rect height="22" style="clip-path:url(#clipPath9); fill:rgb(0,144,188); stroke:none;" width="22" x="498" y="82" /><rect height="22" style="clip-path:url(#clipPath9); fill:none; stroke:black;" width="22" x="498" y="82" /><rect height="22" style="fill:none; stroke:black;" width="22" x="498" y="82" /></g><g ID="l-1:10,11" style="text-rendering:optimizeSpeed;"><polygon points=" 457 93 405 93" style="fill:none;" /></g><g ID="r-1:10" style="fill:white; text-rendering:optimizeSpeed; stroke:white;" wurcs_mono_id="10"><circle cx="457" cy="93" r="11" style="clip-path:url(#clipPath10); stroke:none;" /><rect height="22" style="clip-path:url(#clipPath10); fill:rgb(255,212,0); stroke:none;" width="22" x="446" y="82" /><rect height="22" style="clip-path:url(#clipPath10); fill:none; stroke:black;" width="22" x="446" y="82" /><circle cx="457" cy="93" r="11" style="fill:none; stroke:black;" /></g><g ID="l-1:11,12" style="text-rendering:optimizeSpeed;"><polygon points=" 405 93 353 93" style="fill:none;" /></g><g ID="r-1:11" style="fill:white; text-rendering:optimizeSpeed; stroke:white;" wurcs_mono_id="11"><rect height="22" style="clip-path:url(#clipPath11); stroke:none;" width="22" x="394" y="82" /><rect height="22" style="clip-path:url(#clipPath11); fill:rgb(0,144,188); stroke:none;" width="22" x="394" y="82" /><rect height="22" style="clip-path:url(#clipPath11); fill:none; stroke:black;" width="22" x="394" y="82" /><rect height="22" style="fill:none; stroke:black;" width="22" x="394" y="82" /></g><g ID="l-1:12,13" style="text-rendering:optimizeSpeed;"><polygon points=" 353 93 301 93" style="fill:none;" /></g><g ID="r-1:12" style="fill:white; text-rendering:optimizeSpeed; stroke:white;" wurcs_mono_id="12"><circle cx="353" cy="93" r="11" style="clip-path:url(#clipPath12); stroke:none;" /><rect height="22" style="clip-path:url(#clipPath12); fill:rgb(255,212,0); stroke:none;" width="22" x="342" y="82" /><rect height="22" style="clip-path:url(#clipPath12); fill:none; stroke:black;" width="22" x="342" y="82" /><circle cx="353" cy="93" r="11" style="fill:none; stroke:black;" /></g><g ID="l-1:13,14" style="text-rendering:optimizeSpeed;"><polygon points=" 301 93 249 93" style="fill:none;" /></g><g ID="r-1:13" style="fill:white; text-rendering:optimizeSpeed; stroke:white;" wurcs_mono_id="13"><rect height="22" style="clip-path:url(#clipPath13); stroke:none;" width="22" x="290" y="82" /><rect height="22" style="clip-path:url(#clipPath13); fill:rgb(0,144,188); stroke:none;" width="22" x="290" y="82" /><rect height="22" style="clip-path:url(#clipPath13); fill:none; stroke:black;" width="22" x="290" y="82" /><rect height="22" style="fill:none; stroke:black;" width="22" x="290" y="82" /></g><g ID="l-1:14,15" style="text-rendering:optimizeSpeed;"><polygon points=" 249 93 197 93" style="fill:none;" /></g><g ID="r-1:14" style="fill:white; text-rendering:optimizeSpeed; stroke:white;" wurcs_mono_id="14"><circle cx="249" cy="93" r="11" style="clip-path:url(#clipPath14); stroke:none;" /><rect height="22" style="clip-path:url(#clipPath14); fill:rgb(255,212,0); stroke:none;" width="22" x="238" y="82" /><rect height="22" style="clip-path:url(#clipPath14); fill:none; stroke:black;" width="22" x="238" y="82" /><circle cx="249" cy="93" r="11" style="fill:none; stroke:black;" /></g><g ID="l-1:15,16" style="text-rendering:optimizeSpeed;"><polygon points=" 197 93 145 93" style="fill:none;" /></g><g ID="r-1:15" style="fill:white; text-rendering:optimizeSpeed; stroke:white;" wurcs_mono_id="15"><rect height="22" style="clip-path:url(#clipPath15); stroke:none;" width="22" x="186" y="82" /><rect height="22" style="clip-path:url(#clipPath15); fill:rgb(0,144,188); stroke:none;" width="22" x="186" y="82" /><rect height="22" style="clip-path:url(#clipPath15); fill:none; stroke:black;" width="22" x="186" y="82" /><rect height="22" style="fill:none; stroke:black;" width="22" x="186" y="82" /></g><g ID="l-1:16,17" style="text-rendering:optimizeSpeed;"><polygon points=" 145 93 93 145" style="fill:none;" /></g><g ID="l-1:16,18" style="text-rendering:optimizeSpeed;"><polygon points=" 145 93 93 41" style="fill:none;" /></g><g ID="r-1:16" style="fill:white; text-rendering:optimizeSpeed; stroke:white;" wurcs_mono_id="16"><circle cx="145" cy="93" r="11" style="clip-path:url(#clipPath16); stroke:none;" /><rect height="22" style="clip-path:url(#clipPath16); fill:rgb(255,212,0); stroke:none;" width="22" x="134" y="82" /><rect height="22" style="clip-path:url(#clipPath16); fill:none; stroke:black;" width="22" x="134" y="82" /><circle cx="145" cy="93" r="11" style="fill:none; stroke:black;" /></g><g ID="l-1:17,19" style="text-rendering:optimizeSpeed;"><polygon points=" 93 145 41 145" style="fill:none;" /></g><g ID="r-1:17" style="fill:white; text-rendering:optimizeSpeed; stroke:white;" wurcs_mono_id="17"><rect height="22" style="clip-path:url(#clipPath17); stroke:none;" width="22" x="82" y="134" /><rect height="22" style="clip-path:url(#clipPath17); fill:rgb(0,144,188); stroke:none;" width="22" x="82" y="134" /><rect height="22" style="clip-path:url(#clipPath17); fill:none; stroke:black;" width="22" x="82" y="134" /><rect height="22" style="fill:none; stroke:black;" width="22" x="82" y="134" /></g><g ID="l-1:19,20" style="text-rendering:optimizeSpeed;"><polygon points=" 41 145 41 197" style="fill:none;" /></g><g ID="r-1:19" style="fill:white; text-rendering:optimizeSpeed; stroke:white;" wurcs_mono_id="18"><circle cx="41" cy="145" r="11" style="clip-path:url(#clipPath18); stroke:none;" /><rect height="22" style="clip-path:url(#clipPath18); fill:rgb(255,212,0); stroke:none;" width="22" x="30" y="134" /><rect height="22" style="clip-path:url(#clipPath18); fill:none; stroke:black;" width="22" x="30" y="134" /><circle cx="41" cy="145" r="11" style="fill:none; stroke:black;" /></g><g ID="r-1:20" style="fill:white; text-rendering:optimizeSpeed; stroke:white;" wurcs_mono_id="19"><polygon points=" 41 186 52 208 30 208" style="stroke:none; clip-path:url(#clipPath19);" /><rect height="22" style="clip-path:url(#clipPath19); fill:rgb(237,28,36); stroke:none;" width="22" x="30" y="186" /><rect height="22" style="clip-path:url(#clipPath19); fill:none; stroke:black;" width="22" x="30" y="186" /><polygon points=" 41 186 52 208 30 208" style="fill:none; stroke:black;" /></g><g ID="li-1:19,20" style="fill:white; text-rendering:optimizeSpeed; font-family:'Serif'; stroke:white;"><rect height="9" style="stroke:none;" width="7" x="45" y="159" /><path d="M46.5312 161.3438 L45.875 161.3438 L45.875 159.7812 Q46.5 159.4375 47.1406 159.2656 Q47.7812 159.0938 48.3906 159.0938 Q49.75 159.0938 50.5391 159.7578 Q51.3281 160.4219 51.3281 161.5469 Q51.3281 162.8438 49.5469 164.625 Q49.4062 164.7656 49.3281 164.8281 L47.125 167.0312 L50.7656 167.0312 L50.7656 165.9531 L51.4531 165.9531 L51.4531 168 L45.8125 168 L45.8125 167.3594 L48.4688 164.7188 Q49.3438 163.8281 49.7188 163.0938 Q50.0938 162.3594 50.0938 161.5469 Q50.0938 160.6719 49.6328 160.1719 Q49.1719 159.6719 48.375 159.6719 Q47.5312 159.6719 47.0781 160.0859 Q46.625 160.5 46.5312 161.3438 Z" style="fill:black; stroke:none;" /><rect height="8" style="stroke:none;" width="8" x="45" y="174" /><path d="M50.1875 180.4688 L49.9531 181.1094 Q49.7656 181.625 49.2031 181.9375 Q48.8438 182.1562 48.2031 182.1406 Q47.0469 182.1406 46.3281 181.2344 Q45.5938 180.3281 45.5938 178.8594 Q45.5938 177.4219 46.3281 176.4844 Q47.0156 175.5938 48.4531 175.6094 Q49.4531 175.6094 49.9531 176 Q50.4062 176.3438 50.5781 177.0938 L50.625 177.3125 L50.8438 176.6719 Q51.0625 176.0469 51.6562 175.75 L52.25 175.75 L52.25 176.0938 Q51.6875 176.2656 51.5 176.8125 L50.8906 178.4844 L51.2969 180.2812 Q51.5 181.2031 51.7344 181.2969 Q52.0469 181.4375 52.7812 181 L52.7812 181.7188 Q51.5938 182.4062 50.75 181.6875 Q50.375 181.3594 50.2656 180.875 L50.1875 180.4688 ZM49.9219 179.3125 L49.5625 177.5938 Q49.2656 176.2188 48.4688 176.2188 Q47.7969 176.2031 47.2812 176.9375 Q46.8594 177.5156 46.8594 178.875 Q46.8594 180.1719 47.2812 180.8281 Q47.75 181.5469 48.5312 181.5 Q49.2031 181.4375 49.6875 180 L49.9219 179.3125 Z" style="fill:black; stroke:none;" /></g><g ID="li-1:17,19" style="fill:white; text-rendering:optimizeSpeed; font-family:'Serif'; stroke:white;"><rect height="9" style="stroke:none;" width="8" x="70" y="148" /><path d="M74.1875 154.0312 L74.1875 149.375 L71.2031 154.0312 L74.1875 154.0312 ZM76.7656 157 L72.7812 157 L72.7812 156.375 L74.1875 156.375 L74.1875 154.6562 L70.375 154.6562 L70.375 154.0156 L74.2031 148.0938 L75.3594 148.0938 L75.3594 154.0312 L77.0312 154.0312 L77.0312 154.6562 L75.3594 154.6562 L75.3594 156.375 L76.7656 156.375 L76.7656 157 Z" style="fill:black; stroke:none;" /><rect height="13" style="stroke:none;" width="7" x="56" y="146" /><path d="M57.8281 158.25 Q58.2969 158.5938 59.1719 158.5938 Q60.0625 158.5938 60.5781 158.0703 Q61.0938 157.5469 61.0938 156.6562 Q61.0938 155.4219 60.5625 154.8906 Q60.0156 154.3594 59 154.3594 L58.4375 154.3594 L58.4375 153.7188 L58.7344 153.7188 Q59.4844 153.7188 60 153.2969 Q60.4219 152.9531 60.4219 152.0156 Q60.4219 151.6094 60.1406 151.1406 Q59.6875 150.375 59.1562 150.3906 Q57.8281 150.4375 57.8281 152.7812 L57.8281 158.25 ZM56.75 161.5 L56.75 152.7812 Q56.75 150.3281 58.0781 150 Q58.7656 149.8125 59.25 149.8125 Q60.3438 149.8125 61.0469 150.6719 Q61.6094 151.3594 61.6094 151.9375 Q61.6094 152.7812 61.2031 153.2656 Q60.7969 153.75 60.0625 153.9844 Q61.1406 154.1406 61.75 154.7812 Q62.3281 155.4062 62.3281 156.6328 Q62.3281 157.8594 61.5078 158.5156 Q60.6875 159.1719 59.1406 159.1719 Q58.1875 159.1719 57.8281 159.0312 L57.8281 161.5 L56.75 161.5 Z" style="fill:black; stroke:none;" /></g><g ID="l-1:18,21" style="text-rendering:optimizeSpeed;"><polygon points=" 93 41 41 41" style="fill:none;" /></g><g ID="r-1:18" style="fill:white; text-rendering:optimizeSpeed; stroke:white;" wurcs_mono_id="20"><rect height="22" style="clip-path:url(#clipPath20); stroke:none;" width="22" x="82" y="30" /><rect height="22" style="clip-path:url(#clipPath20); fill:rgb(0,144,188); stroke:none;" width="22" x="82" y="30" /><rect height="22" style="clip-path:url(#clipPath20); fill:none; stroke:black;" width="22" x="82" y="30" /><rect height="22" style="fill:none; stroke:black;" width="22" x="82" y="30" /></g><g ID="l-1:21,22" style="text-rendering:optimizeSpeed;"><polygon points=" 41 41 41 93" style="fill:none;" /></g><g ID="r-1:21" style="fill:white; text-rendering:optimizeSpeed; stroke:white;" wurcs_mono_id="21"><circle cx="41" cy="41" r="11" style="clip-path:url(#clipPath21); stroke:none;" /><rect height="22" style="clip-path:url(#clipPath21); fill:rgb(255,212,0); stroke:none;" width="22" x="30" y="30" /><rect height="22" style="clip-path:url(#clipPath21); fill:none; stroke:black;" width="22" x="30" y="30" /><circle cx="41" cy="41" r="11" style="fill:none; stroke:black;" /></g><g ID="r-1:22" style="fill:white; text-rendering:optimizeSpeed; stroke:white;" wurcs_mono_id="22"><polygon points=" 41 82 52 104 30 104" style="stroke:none; clip-path:url(#clipPath22);" /><rect height="22" style="clip-path:url(#clipPath22); fill:rgb(237,28,36); stroke:none;" width="22" x="30" y="82" /><rect height="22" style="clip-path:url(#clipPath22); fill:none; stroke:black;" width="22" x="30" y="82" /><polygon points=" 41 82 52 104 30 104" style="fill:none; stroke:black;" /></g><g ID="li-1:21,22" style="fill:white; text-rendering:optimizeSpeed; font-family:'Serif'; stroke:white;"><rect height="9" style="stroke:none;" width="7" x="45" y="55" /><path d="M46.5312 57.3438 L45.875 57.3438 L45.875 55.7812 Q46.5 55.4375 47.1406 55.2656 Q47.7812 55.0938 48.3906 55.0938 Q49.75 55.0938 50.5391 55.7578 Q51.3281 56.4219 51.3281 57.5469 Q51.3281 58.8438 49.5469 60.625 Q49.4062 60.7656 49.3281 60.8281 L47.125 63.0312 L50.7656 63.0312 L50.7656 61.9531 L51.4531 61.9531 L51.4531 64 L45.8125 64 L45.8125 63.3594 L48.4688 60.7188 Q49.3438 59.8281 49.7188 59.0938 Q50.0938 58.3594 50.0938 57.5469 Q50.0938 56.6719 49.6328 56.1719 Q49.1719 55.6719 48.375 55.6719 Q47.5312 55.6719 47.0781 56.0859 Q46.625 56.5 46.5312 57.3438 Z" style="fill:black; stroke:none;" /><rect height="8" style="stroke:none;" width="8" x="45" y="70" /><path d="M50.1875 76.4688 L49.9531 77.1094 Q49.7656 77.625 49.2031 77.9375 Q48.8438 78.1562 48.2031 78.1406 Q47.0469 78.1406 46.3281 77.2344 Q45.5938 76.3281 45.5938 74.8594 Q45.5938 73.4219 46.3281 72.4844 Q47.0156 71.5938 48.4531 71.6094 Q49.4531 71.6094 49.9531 72 Q50.4062 72.3438 50.5781 73.0938 L50.625 73.3125 L50.8438 72.6719 Q51.0625 72.0469 51.6562 71.75 L52.25 71.75 L52.25 72.0938 Q51.6875 72.2656 51.5 72.8125 L50.8906 74.4844 L51.2969 76.2812 Q51.5 77.2031 51.7344 77.2969 Q52.0469 77.4375 52.7812 77 L52.7812 77.7188 Q51.5938 78.4062 50.75 77.6875 Q50.375 77.3594 50.2656 76.875 L50.1875 76.4688 ZM49.9219 75.3125 L49.5625 73.5938 Q49.2656 72.2188 48.4688 72.2188 Q47.7969 72.2031 47.2812 72.9375 Q46.8594 73.5156 46.8594 74.875 Q46.8594 76.1719 47.2812 76.8281 Q47.75 77.5469 48.5312 77.5 Q49.2031 77.4375 49.6875 76 L49.9219 75.3125 Z" style="fill:black; stroke:none;" /></g><g ID="li-1:18,21" style="fill:white; text-rendering:optimizeSpeed; font-family:'Serif'; stroke:white;"><rect height="9" style="stroke:none;" width="8" x="70" y="44" /><path d="M74.1875 50.0312 L74.1875 45.375 L71.2031 50.0312 L74.1875 50.0312 ZM76.7656 53 L72.7812 53 L72.7812 52.375 L74.1875 52.375 L74.1875 50.6562 L70.375 50.6562 L70.375 50.0156 L74.2031 44.0938 L75.3594 44.0938 L75.3594 50.0312 L77.0312 50.0312 L77.0312 50.6562 L75.3594 50.6562 L75.3594 52.375 L76.7656 52.375 L76.7656 53 Z" style="fill:black; stroke:none;" /><rect height="13" style="stroke:none;" width="7" x="56" y="42" /><path d="M57.8281 54.25 Q58.2969 54.5938 59.1719 54.5938 Q60.0625 54.5938 60.5781 54.0703 Q61.0938 53.5469 61.0938 52.6562 Q61.0938 51.4219 60.5625 50.8906 Q60.0156 50.3594 59 50.3594 L58.4375 50.3594 L58.4375 49.7188 L58.7344 49.7188 Q59.4844 49.7188 60 49.2969 Q60.4219 48.9531 60.4219 48.0156 Q60.4219 47.6094 60.1406 47.1406 Q59.6875 46.375 59.1562 46.3906 Q57.8281 46.4375 57.8281 48.7812 L57.8281 54.25 ZM56.75 57.5 L56.75 48.7812 Q56.75 46.3281 58.0781 46 Q58.7656 45.8125 59.25 45.8125 Q60.3438 45.8125 61.0469 46.6719 Q61.6094 47.3594 61.6094 47.9375 Q61.6094 48.7812 61.2031 49.2656 Q60.7969 49.75 60.0625 49.9844 Q61.1406 50.1406 61.75 50.7812 Q62.3281 51.4062 62.3281 52.6328 Q62.3281 53.8594 61.5078 54.5156 Q60.6875 55.1719 59.1406 55.1719 Q58.1875 55.1719 57.8281 55.0312 L57.8281 57.5 L56.75 57.5 Z" style="fill:black; stroke:none;" /></g><g ID="li-1:16,17" style="fill:white; text-rendering:optimizeSpeed; font-family:'Serif'; stroke:white;"><rect height="10" style="stroke:none;" width="7" x="130" y="110" /><path d="M131.1719 111.625 Q131.8594 111.3594 132.4844 111.2266 Q133.1094 111.0938 133.6562 111.0938 Q134.9531 111.0938 135.6719 111.6484 Q136.3906 112.2031 136.3906 113.1875 Q136.3906 113.9688 135.8906 114.5 Q135.3906 115.0312 134.4844 115.2188 Q135.5625 115.375 136.1562 116.0078 Q136.75 116.6406 136.75 117.6406 Q136.75 118.8594 135.9219 119.5156 Q135.0938 120.1719 133.5469 120.1719 Q132.8594 120.1719 132.2109 120.0234 Q131.5625 119.875 130.9219 119.5781 L130.9219 117.875 L131.5781 117.875 Q131.625 118.7188 132.1406 119.1562 Q132.6562 119.5938 133.5781 119.5938 Q134.4688 119.5938 134.9922 119.0703 Q135.5156 118.5469 135.5156 117.6562 Q135.5156 116.625 134.9766 116.0938 Q134.4375 115.5625 133.4062 115.5625 L132.8594 115.5625 L132.8594 114.9531 L133.1406 114.9531 Q134.1719 114.9531 134.6875 114.5312 Q135.2031 114.1094 135.2031 113.25 Q135.2031 112.4844 134.7812 112.0781 Q134.3594 111.6719 133.5625 111.6719 Q132.7656 111.6719 132.3359 112.0469 Q131.9062 112.4219 131.8281 113.1562 L131.1719 113.1562 L131.1719 111.625 Z" style="fill:black; stroke:none;" /><rect height="13" style="stroke:none;" width="7" x="111" y="127" /><path d="M112.8281 139.25 Q113.2969 139.5938 114.1719 139.5938 Q115.0625 139.5938 115.5781 139.0703 Q116.0938 138.5469 116.0938 137.6562 Q116.0938 136.4219 115.5625 135.8906 Q115.0156 135.3594 114 135.3594 L113.4375 135.3594 L113.4375 134.7188 L113.7344 134.7188 Q114.4844 134.7188 115 134.2969 Q115.4219 133.9531 115.4219 133.0156 Q115.4219 132.6094 115.1406 132.1406 Q114.6875 131.375 114.1562 131.3906 Q112.8281 131.4375 112.8281 133.7812 L112.8281 139.25 ZM111.75 142.5 L111.75 133.7812 Q111.75 131.3281 113.0781 131 Q113.7656 130.8125 114.25 130.8125 Q115.3438 130.8125 116.0469 131.6719 Q116.6094 132.3594 116.6094 132.9375 Q116.6094 133.7812 116.2031 134.2656 Q115.7969 134.75 115.0625 134.9844 Q116.1406 135.1406 116.75 135.7812 Q117.3281 136.4062 117.3281 137.6328 Q117.3281 138.8594 116.5078 139.5156 Q115.6875 140.1719 114.1406 140.1719 Q113.1875 140.1719 112.8281 140.0312 L112.8281 142.5 L111.75 142.5 Z" style="fill:black; stroke:none;" /></g><g ID="li-1:16,18" style="fill:white; text-rendering:optimizeSpeed; font-family:'Serif'; stroke:white;"><rect height="10" style="stroke:none;" width="7" x="119" y="77" /><path d="M122.9219 86.5938 Q123.75 86.5938 124.1953 85.9844 Q124.6406 85.375 124.6406 84.2344 Q124.6406 83.1094 124.1953 82.5 Q123.75 81.8906 122.9219 81.8906 Q122.0938 81.8906 121.6484 82.4766 Q121.2031 83.0625 121.2031 84.1719 Q121.2031 85.3281 121.6484 85.9609 Q122.0938 86.5938 122.9219 86.5938 ZM121.0156 82.1875 Q121.4219 81.75 121.9219 81.5312 Q122.4219 81.3125 123.0625 81.3125 Q124.3594 81.3125 125.1172 82.0938 Q125.875 82.875 125.875 84.2344 Q125.875 85.5625 125.0625 86.3672 Q124.25 87.1719 122.875 87.1719 Q121.3906 87.1719 120.5938 86.0625 Q119.7969 84.9531 119.7969 82.9062 Q119.7969 80.6094 120.7422 79.3516 Q121.6875 78.0938 123.4062 78.0938 Q123.875 78.0938 124.3828 78.1797 Q124.8906 78.2656 125.4219 78.4375 L125.4219 79.8906 L124.7656 79.8906 Q124.6875 79.2969 124.3047 78.9844 Q123.9219 78.6719 123.2812 78.6719 Q122.1406 78.6719 121.5859 79.5312 Q121.0312 80.3906 121.0156 82.1875 Z" style="fill:black; stroke:none;" /><rect height="13" style="stroke:none;" width="7" x="100" y="56" /><path d="M101.8281 68.25 Q102.2969 68.5938 103.1719 68.5938 Q104.0625 68.5938 104.5781 68.0703 Q105.0938 67.5469 105.0938 66.6562 Q105.0938 65.4219 104.5625 64.8906 Q104.0156 64.3594 103 64.3594 L102.4375 64.3594 L102.4375 63.7188 L102.7344 63.7188 Q103.4844 63.7188 104 63.2969 Q104.4219 62.9531 104.4219 62.0156 Q104.4219 61.6094 104.1406 61.1406 Q103.6875 60.375 103.1562 60.3906 Q101.8281 60.4375 101.8281 62.7812 L101.8281 68.25 ZM100.75 71.5 L100.75 62.7812 Q100.75 60.3281 102.0781 60 Q102.7656 59.8125 103.25 59.8125 Q104.3438 59.8125 105.0469 60.6719 Q105.6094 61.3594 105.6094 61.9375 Q105.6094 62.7812 105.2031 63.2656 Q104.7969 63.75 104.0625 63.9844 Q105.1406 64.1406 105.75 64.7812 Q106.3281 65.4062 106.3281 66.6328 Q106.3281 67.8594 105.5078 68.5156 Q104.6875 69.1719 103.1406 69.1719 Q102.1875 69.1719 101.8281 69.0312 L101.8281 71.5 L100.75 71.5 Z" style="fill:black; stroke:none;" /></g><g ID="li-1:15,16" style="fill:white; text-rendering:optimizeSpeed; font-family:'Serif'; stroke:white;"><rect height="9" style="stroke:none;" width="8" x="174" y="96" /><path d="M178.1875 102.0312 L178.1875 97.375 L175.2031 102.0312 L178.1875 102.0312 ZM180.7656 105 L176.7812 105 L176.7812 104.375 L178.1875 104.375 L178.1875 102.6562 L174.375 102.6562 L174.375 102.0156 L178.2031 96.0938 L179.3594 96.0938 L179.3594 102.0312 L181.0312 102.0312 L181.0312 102.6562 L179.3594 102.6562 L179.3594 104.375 L180.7656 104.375 L180.7656 105 Z" style="fill:black; stroke:none;" /><rect height="13" style="stroke:none;" width="7" x="160" y="94" /><path d="M161.8281 106.25 Q162.2969 106.5938 163.1719 106.5938 Q164.0625 106.5938 164.5781 106.0703 Q165.0938 105.5469 165.0938 104.6562 Q165.0938 103.4219 164.5625 102.8906 Q164.0156 102.3594 163 102.3594 L162.4375 102.3594 L162.4375 101.7188 L162.7344 101.7188 Q163.4844 101.7188 164 101.2969 Q164.4219 100.9531 164.4219 100.0156 Q164.4219 99.6094 164.1406 99.1406 Q163.6875 98.375 163.1562 98.3906 Q161.8281 98.4375 161.8281 100.7812 L161.8281 106.25 ZM160.75 109.5 L160.75 100.7812 Q160.75 98.3281 162.0781 98 Q162.7656 97.8125 163.25 97.8125 Q164.3438 97.8125 165.0469 98.6719 Q165.6094 99.3594 165.6094 99.9375 Q165.6094 100.7812 165.2031 101.2656 Q164.7969 101.75 164.0625 101.9844 Q165.1406 102.1406 165.75 102.7812 Q166.3281 103.4062 166.3281 104.6328 Q166.3281 105.8594 165.5078 106.5156 Q164.6875 107.1719 163.1406 107.1719 Q162.1875 107.1719 161.8281 107.0312 L161.8281 109.5 L160.75 109.5 Z" style="fill:black; stroke:none;" /></g><g ID="li-1:14,15" style="fill:white; text-rendering:optimizeSpeed; font-family:'Serif'; stroke:white;"><rect height="10" style="stroke:none;" width="7" x="226" y="96" /><path d="M227.1719 97.625 Q227.8594 97.3594 228.4844 97.2266 Q229.1094 97.0938 229.6562 97.0938 Q230.9531 97.0938 231.6719 97.6484 Q232.3906 98.2031 232.3906 99.1875 Q232.3906 99.9688 231.8906 100.5 Q231.3906 101.0312 230.4844 101.2188 Q231.5625 101.375 232.1562 102.0078 Q232.75 102.6406 232.75 103.6406 Q232.75 104.8594 231.9219 105.5156 Q231.0938 106.1719 229.5469 106.1719 Q228.8594 106.1719 228.2109 106.0234 Q227.5625 105.875 226.9219 105.5781 L226.9219 103.875 L227.5781 103.875 Q227.625 104.7188 228.1406 105.1562 Q228.6562 105.5938 229.5781 105.5938 Q230.4688 105.5938 230.9922 105.0703 Q231.5156 104.5469 231.5156 103.6562 Q231.5156 102.625 230.9766 102.0938 Q230.4375 101.5625 229.4062 101.5625 L228.8594 101.5625 L228.8594 100.9531 L229.1406 100.9531 Q230.1719 100.9531 230.6875 100.5312 Q231.2031 100.1094 231.2031 99.25 Q231.2031 98.4844 230.7812 98.0781 Q230.3594 97.6719 229.5625 97.6719 Q228.7656 97.6719 228.3359 98.0469 Q227.9062 98.4219 227.8281 99.1562 L227.1719 99.1562 L227.1719 97.625 Z" style="fill:black; stroke:none;" /><rect height="13" style="stroke:none;" width="7" x="212" y="94" /><path d="M213.8281 106.25 Q214.2969 106.5938 215.1719 106.5938 Q216.0625 106.5938 216.5781 106.0703 Q217.0938 105.5469 217.0938 104.6562 Q217.0938 103.4219 216.5625 102.8906 Q216.0156 102.3594 215 102.3594 L214.4375 102.3594 L214.4375 101.7188 L214.7344 101.7188 Q215.4844 101.7188 216 101.2969 Q216.4219 100.9531 216.4219 100.0156 Q216.4219 99.6094 216.1406 99.1406 Q215.6875 98.375 215.1562 98.3906 Q213.8281 98.4375 213.8281 100.7812 L213.8281 106.25 ZM212.75 109.5 L212.75 100.7812 Q212.75 98.3281 214.0781 98 Q214.7656 97.8125 215.25 97.8125 Q216.3438 97.8125 217.0469 98.6719 Q217.6094 99.3594 217.6094 99.9375 Q217.6094 100.7812 217.2031 101.2656 Q216.7969 101.75 216.0625 101.9844 Q217.1406 102.1406 217.75 102.7812 Q218.3281 103.4062 218.3281 104.6328 Q218.3281 105.8594 217.5078 106.5156 Q216.6875 107.1719 215.1406 107.1719 Q214.1875 107.1719 213.8281 107.0312 L213.8281 109.5 L212.75 109.5 Z" style="fill:black; stroke:none;" /></g><g ID="li-1:13,14" style="fill:white; text-rendering:optimizeSpeed; font-family:'Serif'; stroke:white;"><rect height="9" style="stroke:none;" width="8" x="278" y="96" /><path d="M282.1875 102.0312 L282.1875 97.375 L279.2031 102.0312 L282.1875 102.0312 ZM284.7656 105 L280.7812 105 L280.7812 104.375 L282.1875 104.375 L282.1875 102.6562 L278.375 102.6562 L278.375 102.0156 L282.2031 96.0938 L283.3594 96.0938 L283.3594 102.0312 L285.0312 102.0312 L285.0312 102.6562 L283.3594 102.6562 L283.3594 104.375 L284.7656 104.375 L284.7656 105 Z" style="fill:black; stroke:none;" /><rect height="13" style="stroke:none;" width="7" x="264" y="94" /><path d="M265.8281 106.25 Q266.2969 106.5938 267.1719 106.5938 Q268.0625 106.5938 268.5781 106.0703 Q269.0938 105.5469 269.0938 104.6562 Q269.0938 103.4219 268.5625 102.8906 Q268.0156 102.3594 267 102.3594 L266.4375 102.3594 L266.4375 101.7188 L266.7344 101.7188 Q267.4844 101.7188 268 101.2969 Q268.4219 100.9531 268.4219 100.0156 Q268.4219 99.6094 268.1406 99.1406 Q267.6875 98.375 267.1562 98.3906 Q265.8281 98.4375 265.8281 100.7812 L265.8281 106.25 ZM264.75 109.5 L264.75 100.7812 Q264.75 98.3281 266.0781 98 Q266.7656 97.8125 267.25 97.8125 Q268.3438 97.8125 269.0469 98.6719 Q269.6094 99.3594 269.6094 99.9375 Q269.6094 100.7812 269.2031 101.2656 Q268.7969 101.75 268.0625 101.9844 Q269.1406 102.1406 269.75 102.7812 Q270.3281 103.4062 270.3281 104.6328 Q270.3281 105.8594 269.5078 106.5156 Q268.6875 107.1719 267.1406 107.1719 Q266.1875 107.1719 265.8281 107.0312 L265.8281 109.5 L264.75 109.5 Z" style="fill:black; stroke:none;" /></g><g ID="li-1:12,13" style="fill:white; text-rendering:optimizeSpeed; font-family:'Serif'; stroke:white;"><rect height="10" style="stroke:none;" width="7" x="330" y="96" /><path d="M331.1719 97.625 Q331.8594 97.3594 332.4844 97.2266 Q333.1094 97.0938 333.6562 97.0938 Q334.9531 97.0938 335.6719 97.6484 Q336.3906 98.2031 336.3906 99.1875 Q336.3906 99.9688 335.8906 100.5 Q335.3906 101.0312 334.4844 101.2188 Q335.5625 101.375 336.1562 102.0078 Q336.75 102.6406 336.75 103.6406 Q336.75 104.8594 335.9219 105.5156 Q335.0938 106.1719 333.5469 106.1719 Q332.8594 106.1719 332.2109 106.0234 Q331.5625 105.875 330.9219 105.5781 L330.9219 103.875 L331.5781 103.875 Q331.625 104.7188 332.1406 105.1562 Q332.6562 105.5938 333.5781 105.5938 Q334.4688 105.5938 334.9922 105.0703 Q335.5156 104.5469 335.5156 103.6562 Q335.5156 102.625 334.9766 102.0938 Q334.4375 101.5625 333.4062 101.5625 L332.8594 101.5625 L332.8594 100.9531 L333.1406 100.9531 Q334.1719 100.9531 334.6875 100.5312 Q335.2031 100.1094 335.2031 99.25 Q335.2031 98.4844 334.7812 98.0781 Q334.3594 97.6719 333.5625 97.6719 Q332.7656 97.6719 332.3359 98.0469 Q331.9062 98.4219 331.8281 99.1562 L331.1719 99.1562 L331.1719 97.625 Z" style="fill:black; stroke:none;" /><rect height="13" style="stroke:none;" width="7" x="316" y="94" /><path d="M317.8281 106.25 Q318.2969 106.5938 319.1719 106.5938 Q320.0625 106.5938 320.5781 106.0703 Q321.0938 105.5469 321.0938 104.6562 Q321.0938 103.4219 320.5625 102.8906 Q320.0156 102.3594 319 102.3594 L318.4375 102.3594 L318.4375 101.7188 L318.7344 101.7188 Q319.4844 101.7188 320 101.2969 Q320.4219 100.9531 320.4219 100.0156 Q320.4219 99.6094 320.1406 99.1406 Q319.6875 98.375 319.1562 98.3906 Q317.8281 98.4375 317.8281 100.7812 L317.8281 106.25 ZM316.75 109.5 L316.75 100.7812 Q316.75 98.3281 318.0781 98 Q318.7656 97.8125 319.25 97.8125 Q320.3438 97.8125 321.0469 98.6719 Q321.6094 99.3594 321.6094 99.9375 Q321.6094 100.7812 321.2031 101.2656 Q320.7969 101.75 320.0625 101.9844 Q321.1406 102.1406 321.75 102.7812 Q322.3281 103.4062 322.3281 104.6328 Q322.3281 105.8594 321.5078 106.5156 Q320.6875 107.1719 319.1406 107.1719 Q318.1875 107.1719 317.8281 107.0312 L317.8281 109.5 L316.75 109.5 Z" style="fill:black; stroke:none;" /></g><g ID="li-1:11,12" style="fill:white; text-rendering:optimizeSpeed; font-family:'Serif'; stroke:white;"><rect height="9" style="stroke:none;" width="8" x="382" y="96" /><path d="M386.1875 102.0312 L386.1875 97.375 L383.2031 102.0312 L386.1875 102.0312 ZM388.7656 105 L384.7812 105 L384.7812 104.375 L386.1875 104.375 L386.1875 102.6562 L382.375 102.6562 L382.375 102.0156 L386.2031 96.0938 L387.3594 96.0938 L387.3594 102.0312 L389.0312 102.0312 L389.0312 102.6562 L387.3594 102.6562 L387.3594 104.375 L388.7656 104.375 L388.7656 105 Z" style="fill:black; stroke:none;" /><rect height="13" style="stroke:none;" width="7" x="368" y="94" /><path d="M369.8281 106.25 Q370.2969 106.5938 371.1719 106.5938 Q372.0625 106.5938 372.5781 106.0703 Q373.0938 105.5469 373.0938 104.6562 Q373.0938 103.4219 372.5625 102.8906 Q372.0156 102.3594 371 102.3594 L370.4375 102.3594 L370.4375 101.7188 L370.7344 101.7188 Q371.4844 101.7188 372 101.2969 Q372.4219 100.9531 372.4219 100.0156 Q372.4219 99.6094 372.1406 99.1406 Q371.6875 98.375 371.1562 98.3906 Q369.8281 98.4375 369.8281 100.7812 L369.8281 106.25 ZM368.75 109.5 L368.75 100.7812 Q368.75 98.3281 370.0781 98 Q370.7656 97.8125 371.25 97.8125 Q372.3438 97.8125 373.0469 98.6719 Q373.6094 99.3594 373.6094 99.9375 Q373.6094 100.7812 373.2031 101.2656 Q372.7969 101.75 372.0625 101.9844 Q373.1406 102.1406 373.75 102.7812 Q374.3281 103.4062 374.3281 104.6328 Q374.3281 105.8594 373.5078 106.5156 Q372.6875 107.1719 371.1406 107.1719 Q370.1875 107.1719 369.8281 107.0312 L369.8281 109.5 L368.75 109.5 Z" style="fill:black; stroke:none;" /></g><g ID="li-1:10,11" style="fill:white; text-rendering:optimizeSpeed; font-family:'Serif'; stroke:white;"><rect height="10" style="stroke:none;" width="7" x="434" y="96" /><path d="M435.1719 97.625 Q435.8594 97.3594 436.4844 97.2266 Q437.1094 97.0938 437.6562 97.0938 Q438.9531 97.0938 439.6719 97.6484 Q440.3906 98.2031 440.3906 99.1875 Q440.3906 99.9688 439.8906 100.5 Q439.3906 101.0312 438.4844 101.2188 Q439.5625 101.375 440.1562 102.0078 Q440.75 102.6406 440.75 103.6406 Q440.75 104.8594 439.9219 105.5156 Q439.0938 106.1719 437.5469 106.1719 Q436.8594 106.1719 436.2109 106.0234 Q435.5625 105.875 434.9219 105.5781 L434.9219 103.875 L435.5781 103.875 Q435.625 104.7188 436.1406 105.1562 Q436.6562 105.5938 437.5781 105.5938 Q438.4688 105.5938 438.9922 105.0703 Q439.5156 104.5469 439.5156 103.6562 Q439.5156 102.625 438.9766 102.0938 Q438.4375 101.5625 437.4062 101.5625 L436.8594 101.5625 L436.8594 100.9531 L437.1406 100.9531 Q438.1719 100.9531 438.6875 100.5312 Q439.2031 100.1094 439.2031 99.25 Q439.2031 98.4844 438.7812 98.0781 Q438.3594 97.6719 437.5625 97.6719 Q436.7656 97.6719 436.3359 98.0469 Q435.9062 98.4219 435.8281 99.1562 L435.1719 99.1562 L435.1719 97.625 Z" style="fill:black; stroke:none;" /><rect height="13" style="stroke:none;" width="7" x="420" y="94" /><path d="M421.8281 106.25 Q422.2969 106.5938 423.1719 106.5938 Q424.0625 106.5938 424.5781 106.0703 Q425.0938 105.5469 425.0938 104.6562 Q425.0938 103.4219 424.5625 102.8906 Q424.0156 102.3594 423 102.3594 L422.4375 102.3594 L422.4375 101.7188 L422.7344 101.7188 Q423.4844 101.7188 424 101.2969 Q424.4219 100.9531 424.4219 100.0156 Q424.4219 99.6094 424.1406 99.1406 Q423.6875 98.375 423.1562 98.3906 Q421.8281 98.4375 421.8281 100.7812 L421.8281 106.25 ZM420.75 109.5 L420.75 100.7812 Q420.75 98.3281 422.0781 98 Q422.7656 97.8125 423.25 97.8125 Q424.3438 97.8125 425.0469 98.6719 Q425.6094 99.3594 425.6094 99.9375 Q425.6094 100.7812 425.2031 101.2656 Q424.7969 101.75 424.0625 101.9844 Q425.1406 102.1406 425.75 102.7812 Q426.3281 103.4062 426.3281 104.6328 Q426.3281 105.8594 425.5078 106.5156 Q424.6875 107.1719 423.1406 107.1719 Q422.1875 107.1719 421.8281 107.0312 L421.8281 109.5 L420.75 109.5 Z" style="fill:black; stroke:none;" /></g><g ID="li-1:9,10" style="fill:white; text-rendering:optimizeSpeed; font-family:'Serif'; stroke:white;"><rect height="9" style="stroke:none;" width="8" x="486" y="96" /><path d="M490.1875 102.0312 L490.1875 97.375 L487.2031 102.0312 L490.1875 102.0312 ZM492.7656 105 L488.7812 105 L488.7812 104.375 L490.1875 104.375 L490.1875 102.6562 L486.375 102.6562 L486.375 102.0156 L490.2031 96.0938 L491.3594 96.0938 L491.3594 102.0312 L493.0312 102.0312 L493.0312 102.6562 L491.3594 102.6562 L491.3594 104.375 L492.7656 104.375 L492.7656 105 Z" style="fill:black; stroke:none;" /><rect height="13" style="stroke:none;" width="7" x="472" y="94" /><path d="M473.8281 106.25 Q474.2969 106.5938 475.1719 106.5938 Q476.0625 106.5938 476.5781 106.0703 Q477.0938 105.5469 477.0938 104.6562 Q477.0938 103.4219 476.5625 102.8906 Q476.0156 102.3594 475 102.3594 L474.4375 102.3594 L474.4375 101.7188 L474.7344 101.7188 Q475.4844 101.7188 476 101.2969 Q476.4219 100.9531 476.4219 100.0156 Q476.4219 99.6094 476.1406 99.1406 Q475.6875 98.375 475.1562 98.3906 Q473.8281 98.4375 473.8281 100.7812 L473.8281 106.25 ZM472.75 109.5 L472.75 100.7812 Q472.75 98.3281 474.0781 98 Q474.7656 97.8125 475.25 97.8125 Q476.3438 97.8125 477.0469 98.6719 Q477.6094 99.3594 477.6094 99.9375 Q477.6094 100.7812 477.2031 101.2656 Q476.7969 101.75 476.0625 101.9844 Q477.1406 102.1406 477.75 102.7812 Q478.3281 103.4062 478.3281 104.6328 Q478.3281 105.8594 477.5078 106.5156 Q476.6875 107.1719 475.1406 107.1719 Q474.1875 107.1719 473.8281 107.0312 L473.8281 109.5 L472.75 109.5 Z" style="fill:black; stroke:none;" /></g><g ID="li-1:8,9" style="fill:white; text-rendering:optimizeSpeed; font-family:'Serif'; stroke:white;"><rect height="10" style="stroke:none;" width="7" x="538" y="96" /><path d="M539.1719 97.625 Q539.8594 97.3594 540.4844 97.2266 Q541.1094 97.0938 541.6562 97.0938 Q542.9531 97.0938 543.6719 97.6484 Q544.3906 98.2031 544.3906 99.1875 Q544.3906 99.9688 543.8906 100.5 Q543.3906 101.0312 542.4844 101.2188 Q543.5625 101.375 544.1562 102.0078 Q544.75 102.6406 544.75 103.6406 Q544.75 104.8594 543.9219 105.5156 Q543.0938 106.1719 541.5469 106.1719 Q540.8594 106.1719 540.2109 106.0234 Q539.5625 105.875 538.9219 105.5781 L538.9219 103.875 L539.5781 103.875 Q539.625 104.7188 540.1406 105.1562 Q540.6562 105.5938 541.5781 105.5938 Q542.4688 105.5938 542.9922 105.0703 Q543.5156 104.5469 543.5156 103.6562 Q543.5156 102.625 542.9766 102.0938 Q542.4375 101.5625 541.4062 101.5625 L540.8594 101.5625 L540.8594 100.9531 L541.1406 100.9531 Q542.1719 100.9531 542.6875 100.5312 Q543.2031 100.1094 543.2031 99.25 Q543.2031 98.4844 542.7812 98.0781 Q542.3594 97.6719 541.5625 97.6719 Q540.7656 97.6719 540.3359 98.0469 Q539.9062 98.4219 539.8281 99.1562 L539.1719 99.1562 L539.1719 97.625 Z" style="fill:black; stroke:none;" /><rect height="13" style="stroke:none;" width="7" x="524" y="94" /><path d="M525.8281 106.25 Q526.2969 106.5938 527.1719 106.5938 Q528.0625 106.5938 528.5781 106.0703 Q529.0938 105.5469 529.0938 104.6562 Q529.0938 103.4219 528.5625 102.8906 Q528.0156 102.3594 527 102.3594 L526.4375 102.3594 L526.4375 101.7188 L526.7344 101.7188 Q527.4844 101.7188 528 101.2969 Q528.4219 100.9531 528.4219 100.0156 Q528.4219 99.6094 528.1406 99.1406 Q527.6875 98.375 527.1562 98.3906 Q525.8281 98.4375 525.8281 100.7812 L525.8281 106.25 ZM524.75 109.5 L524.75 100.7812 Q524.75 98.3281 526.0781 98 Q526.7656 97.8125 527.25 97.8125 Q528.3438 97.8125 529.0469 98.6719 Q529.6094 99.3594 529.6094 99.9375 Q529.6094 100.7812 529.2031 101.2656 Q528.7969 101.75 528.0625 101.9844 Q529.1406 102.1406 529.75 102.7812 Q530.3281 103.4062 530.3281 104.6328 Q530.3281 105.8594 529.5078 106.5156 Q528.6875 107.1719 527.1406 107.1719 Q526.1875 107.1719 525.8281 107.0312 L525.8281 109.5 L524.75 109.5 Z" style="fill:black; stroke:none;" /></g><g ID="li-1:7,8" style="fill:white; text-rendering:optimizeSpeed; font-family:'Serif'; stroke:white;"><rect height="9" style="stroke:none;" width="8" x="590" y="96" /><path d="M594.1875 102.0312 L594.1875 97.375 L591.2031 102.0312 L594.1875 102.0312 ZM596.7656 105 L592.7812 105 L592.7812 104.375 L594.1875 104.375 L594.1875 102.6562 L590.375 102.6562 L590.375 102.0156 L594.2031 96.0938 L595.3594 96.0938 L595.3594 102.0312 L597.0312 102.0312 L597.0312 102.6562 L595.3594 102.6562 L595.3594 104.375 L596.7656 104.375 L596.7656 105 Z" style="fill:black; stroke:none;" /><rect height="13" style="stroke:none;" width="7" x="576" y="94" /><path d="M577.8281 106.25 Q578.2969 106.5938 579.1719 106.5938 Q580.0625 106.5938 580.5781 106.0703 Q581.0938 105.5469 581.0938 104.6562 Q581.0938 103.4219 580.5625 102.8906 Q580.0156 102.3594 579 102.3594 L578.4375 102.3594 L578.4375 101.7188 L578.7344 101.7188 Q579.4844 101.7188 580 101.2969 Q580.4219 100.9531 580.4219 100.0156 Q580.4219 99.6094 580.1406 99.1406 Q579.6875 98.375 579.1562 98.3906 Q577.8281 98.4375 577.8281 100.7812 L577.8281 106.25 ZM576.75 109.5 L576.75 100.7812 Q576.75 98.3281 578.0781 98 Q578.7656 97.8125 579.25 97.8125 Q580.3438 97.8125 581.0469 98.6719 Q581.6094 99.3594 581.6094 99.9375 Q581.6094 100.7812 581.2031 101.2656 Q580.7969 101.75 580.0625 101.9844 Q581.1406 102.1406 581.75 102.7812 Q582.3281 103.4062 582.3281 104.6328 Q582.3281 105.8594 581.5078 106.5156 Q580.6875 107.1719 579.1406 107.1719 Q578.1875 107.1719 577.8281 107.0312 L577.8281 109.5 L576.75 109.5 Z" style="fill:black; stroke:none;" /></g><g ID="li-1:6,7" style="fill:white; text-rendering:optimizeSpeed; font-family:'Serif'; stroke:white;"><rect height="10" style="stroke:none;" width="7" x="642" y="96" /><path d="M643.1719 97.625 Q643.8594 97.3594 644.4844 97.2266 Q645.1094 97.0938 645.6562 97.0938 Q646.9531 97.0938 647.6719 97.6484 Q648.3906 98.2031 648.3906 99.1875 Q648.3906 99.9688 647.8906 100.5 Q647.3906 101.0312 646.4844 101.2188 Q647.5625 101.375 648.1562 102.0078 Q648.75 102.6406 648.75 103.6406 Q648.75 104.8594 647.9219 105.5156 Q647.0938 106.1719 645.5469 106.1719 Q644.8594 106.1719 644.2109 106.0234 Q643.5625 105.875 642.9219 105.5781 L642.9219 103.875 L643.5781 103.875 Q643.625 104.7188 644.1406 105.1562 Q644.6562 105.5938 645.5781 105.5938 Q646.4688 105.5938 646.9922 105.0703 Q647.5156 104.5469 647.5156 103.6562 Q647.5156 102.625 646.9766 102.0938 Q646.4375 101.5625 645.4062 101.5625 L644.8594 101.5625 L644.8594 100.9531 L645.1406 100.9531 Q646.1719 100.9531 646.6875 100.5312 Q647.2031 100.1094 647.2031 99.25 Q647.2031 98.4844 646.7812 98.0781 Q646.3594 97.6719 645.5625 97.6719 Q644.7656 97.6719 644.3359 98.0469 Q643.9062 98.4219 643.8281 99.1562 L643.1719 99.1562 L643.1719 97.625 Z" style="fill:black; stroke:none;" /><rect height="13" style="stroke:none;" width="7" x="628" y="94" /><path d="M629.8281 106.25 Q630.2969 106.5938 631.1719 106.5938 Q632.0625 106.5938 632.5781 106.0703 Q633.0938 105.5469 633.0938 104.6562 Q633.0938 103.4219 632.5625 102.8906 Q632.0156 102.3594 631 102.3594 L630.4375 102.3594 L630.4375 101.7188 L630.7344 101.7188 Q631.4844 101.7188 632 101.2969 Q632.4219 100.9531 632.4219 100.0156 Q632.4219 99.6094 632.1406 99.1406 Q631.6875 98.375 631.1562 98.3906 Q629.8281 98.4375 629.8281 100.7812 L629.8281 106.25 ZM628.75 109.5 L628.75 100.7812 Q628.75 98.3281 630.0781 98 Q630.7656 97.8125 631.25 97.8125 Q632.3438 97.8125 633.0469 98.6719 Q633.6094 99.3594 633.6094 99.9375 Q633.6094 100.7812 633.2031 101.2656 Q632.7969 101.75 632.0625 101.9844 Q633.1406 102.1406 633.75 102.7812 Q634.3281 103.4062 634.3281 104.6328 Q634.3281 105.8594 633.5078 106.5156 Q632.6875 107.1719 631.1406 107.1719 Q630.1875 107.1719 629.8281 107.0312 L629.8281 109.5 L628.75 109.5 Z" style="fill:black; stroke:none;" /></g><g ID="li-1:5,6" style="fill:white; text-rendering:optimizeSpeed; font-family:'Serif'; stroke:white;"><rect height="9" style="stroke:none;" width="8" x="694" y="96" /><path d="M698.1875 102.0312 L698.1875 97.375 L695.2031 102.0312 L698.1875 102.0312 ZM700.7656 105 L696.7812 105 L696.7812 104.375 L698.1875 104.375 L698.1875 102.6562 L694.375 102.6562 L694.375 102.0156 L698.2031 96.0938 L699.3594 96.0938 L699.3594 102.0312 L701.0312 102.0312 L701.0312 102.6562 L699.3594 102.6562 L699.3594 104.375 L700.7656 104.375 L700.7656 105 Z" style="fill:black; stroke:none;" /><rect height="13" style="stroke:none;" width="7" x="680" y="94" /><path d="M681.8281 106.25 Q682.2969 106.5938 683.1719 106.5938 Q684.0625 106.5938 684.5781 106.0703 Q685.0938 105.5469 685.0938 104.6562 Q685.0938 103.4219 684.5625 102.8906 Q684.0156 102.3594 683 102.3594 L682.4375 102.3594 L682.4375 101.7188 L682.7344 101.7188 Q683.4844 101.7188 684 101.2969 Q684.4219 100.9531 684.4219 100.0156 Q684.4219 99.6094 684.1406 99.1406 Q683.6875 98.375 683.1562 98.3906 Q681.8281 98.4375 681.8281 100.7812 L681.8281 106.25 ZM680.75 109.5 L680.75 100.7812 Q680.75 98.3281 682.0781 98 Q682.7656 97.8125 683.25 97.8125 Q684.3438 97.8125 685.0469 98.6719 Q685.6094 99.3594 685.6094 99.9375 Q685.6094 100.7812 685.2031 101.2656 Q684.7969 101.75 684.0625 101.9844 Q685.1406 102.1406 685.75 102.7812 Q686.3281 103.4062 686.3281 104.6328 Q686.3281 105.8594 685.5078 106.5156 Q684.6875 107.1719 683.1406 107.1719 Q682.1875 107.1719 681.8281 107.0312 L681.8281 109.5 L680.75 109.5 Z" style="fill:black; stroke:none;" /></g><g ID="li-1:4,5" style="fill:white; text-rendering:optimizeSpeed; font-family:'Serif'; stroke:white;"><rect height="10" style="stroke:none;" width="7" x="746" y="96" /><path d="M747.1719 97.625 Q747.8594 97.3594 748.4844 97.2266 Q749.1094 97.0938 749.6562 97.0938 Q750.9531 97.0938 751.6719 97.6484 Q752.3906 98.2031 752.3906 99.1875 Q752.3906 99.9688 751.8906 100.5 Q751.3906 101.0312 750.4844 101.2188 Q751.5625 101.375 752.1562 102.0078 Q752.75 102.6406 752.75 103.6406 Q752.75 104.8594 751.9219 105.5156 Q751.0938 106.1719 749.5469 106.1719 Q748.8594 106.1719 748.2109 106.0234 Q747.5625 105.875 746.9219 105.5781 L746.9219 103.875 L747.5781 103.875 Q747.625 104.7188 748.1406 105.1562 Q748.6562 105.5938 749.5781 105.5938 Q750.4688 105.5938 750.9922 105.0703 Q751.5156 104.5469 751.5156 103.6562 Q751.5156 102.625 750.9766 102.0938 Q750.4375 101.5625 749.4062 101.5625 L748.8594 101.5625 L748.8594 100.9531 L749.1406 100.9531 Q750.1719 100.9531 750.6875 100.5312 Q751.2031 100.1094 751.2031 99.25 Q751.2031 98.4844 750.7812 98.0781 Q750.3594 97.6719 749.5625 97.6719 Q748.7656 97.6719 748.3359 98.0469 Q747.9062 98.4219 747.8281 99.1562 L747.1719 99.1562 L747.1719 97.625 Z" style="fill:black; stroke:none;" /><rect height="13" style="stroke:none;" width="7" x="732" y="94" /><path d="M733.8281 106.25 Q734.2969 106.5938 735.1719 106.5938 Q736.0625 106.5938 736.5781 106.0703 Q737.0938 105.5469 737.0938 104.6562 Q737.0938 103.4219 736.5625 102.8906 Q736.0156 102.3594 735 102.3594 L734.4375 102.3594 L734.4375 101.7188 L734.7344 101.7188 Q735.4844 101.7188 736 101.2969 Q736.4219 100.9531 736.4219 100.0156 Q736.4219 99.6094 736.1406 99.1406 Q735.6875 98.375 735.1562 98.3906 Q733.8281 98.4375 733.8281 100.7812 L733.8281 106.25 ZM732.75 109.5 L732.75 100.7812 Q732.75 98.3281 734.0781 98 Q734.7656 97.8125 735.25 97.8125 Q736.3438 97.8125 737.0469 98.6719 Q737.6094 99.3594 737.6094 99.9375 Q737.6094 100.7812 737.2031 101.2656 Q736.7969 101.75 736.0625 101.9844 Q737.1406 102.1406 737.75 102.7812 Q738.3281 103.4062 738.3281 104.6328 Q738.3281 105.8594 737.5078 106.5156 Q736.6875 107.1719 735.1406 107.1719 Q734.1875 107.1719 733.8281 107.0312 L733.8281 109.5 L732.75 109.5 Z" style="fill:black; stroke:none;" /></g><g ID="li-1:3,4" style="fill:white; text-rendering:optimizeSpeed; font-family:'Serif'; stroke:white;"><rect height="9" style="stroke:none;" width="8" x="798" y="96" /><path d="M802.1875 102.0312 L802.1875 97.375 L799.2031 102.0312 L802.1875 102.0312 ZM804.7656 105 L800.7812 105 L800.7812 104.375 L802.1875 104.375 L802.1875 102.6562 L798.375 102.6562 L798.375 102.0156 L802.2031 96.0938 L803.3594 96.0938 L803.3594 102.0312 L805.0312 102.0312 L805.0312 102.6562 L803.3594 102.6562 L803.3594 104.375 L804.7656 104.375 L804.7656 105 Z" style="fill:black; stroke:none;" /><rect height="13" style="stroke:none;" width="7" x="784" y="94" /><path d="M785.8281 106.25 Q786.2969 106.5938 787.1719 106.5938 Q788.0625 106.5938 788.5781 106.0703 Q789.0938 105.5469 789.0938 104.6562 Q789.0938 103.4219 788.5625 102.8906 Q788.0156 102.3594 787 102.3594 L786.4375 102.3594 L786.4375 101.7188 L786.7344 101.7188 Q787.4844 101.7188 788 101.2969 Q788.4219 100.9531 788.4219 100.0156 Q788.4219 99.6094 788.1406 99.1406 Q787.6875 98.375 787.1562 98.3906 Q785.8281 98.4375 785.8281 100.7812 L785.8281 106.25 ZM784.75 109.5 L784.75 100.7812 Q784.75 98.3281 786.0781 98 Q786.7656 97.8125 787.25 97.8125 Q788.3438 97.8125 789.0469 98.6719 Q789.6094 99.3594 789.6094 99.9375 Q789.6094 100.7812 789.2031 101.2656 Q788.7969 101.75 788.0625 101.9844 Q789.1406 102.1406 789.75 102.7812 Q790.3281 103.4062 790.3281 104.6328 Q790.3281 105.8594 789.5078 106.5156 Q788.6875 107.1719 787.1406 107.1719 Q786.1875 107.1719 785.8281 107.0312 L785.8281 109.5 L784.75 109.5 Z" style="fill:black; stroke:none;" /></g><g ID="li-1:2,3" style="fill:white; text-rendering:optimizeSpeed; font-family:'Serif'; stroke:white;"><rect height="10" style="stroke:none;" width="7" x="850" y="96" /><path d="M851.1719 97.625 Q851.8594 97.3594 852.4844 97.2266 Q853.1094 97.0938 853.6562 97.0938 Q854.9531 97.0938 855.6719 97.6484 Q856.3906 98.2031 856.3906 99.1875 Q856.3906 99.9688 855.8906 100.5 Q855.3906 101.0312 854.4844 101.2188 Q855.5625 101.375 856.1562 102.0078 Q856.75 102.6406 856.75 103.6406 Q856.75 104.8594 855.9219 105.5156 Q855.0938 106.1719 853.5469 106.1719 Q852.8594 106.1719 852.2109 106.0234 Q851.5625 105.875 850.9219 105.5781 L850.9219 103.875 L851.5781 103.875 Q851.625 104.7188 852.1406 105.1562 Q852.6562 105.5938 853.5781 105.5938 Q854.4688 105.5938 854.9922 105.0703 Q855.5156 104.5469 855.5156 103.6562 Q855.5156 102.625 854.9766 102.0938 Q854.4375 101.5625 853.4062 101.5625 L852.8594 101.5625 L852.8594 100.9531 L853.1406 100.9531 Q854.1719 100.9531 854.6875 100.5312 Q855.2031 100.1094 855.2031 99.25 Q855.2031 98.4844 854.7812 98.0781 Q854.3594 97.6719 853.5625 97.6719 Q852.7656 97.6719 852.3359 98.0469 Q851.9062 98.4219 851.8281 99.1562 L851.1719 99.1562 L851.1719 97.625 Z" style="fill:black; stroke:none;" /><rect height="13" style="stroke:none;" width="7" x="836" y="94" /><path d="M837.8281 106.25 Q838.2969 106.5938 839.1719 106.5938 Q840.0625 106.5938 840.5781 106.0703 Q841.0938 105.5469 841.0938 104.6562 Q841.0938 103.4219 840.5625 102.8906 Q840.0156 102.3594 839 102.3594 L838.4375 102.3594 L838.4375 101.7188 L838.7344 101.7188 Q839.4844 101.7188 840 101.2969 Q840.4219 100.9531 840.4219 100.0156 Q840.4219 99.6094 840.1406 99.1406 Q839.6875 98.375 839.1562 98.3906 Q837.8281 98.4375 837.8281 100.7812 L837.8281 106.25 ZM836.75 109.5 L836.75 100.7812 Q836.75 98.3281 838.0781 98 Q838.7656 97.8125 839.25 97.8125 Q840.3438 97.8125 841.0469 98.6719 Q841.6094 99.3594 841.6094 99.9375 Q841.6094 100.7812 841.2031 101.2656 Q840.7969 101.75 840.0625 101.9844 Q841.1406 102.1406 841.75 102.7812 Q842.3281 103.4062 842.3281 104.6328 Q842.3281 105.8594 841.5078 106.5156 Q840.6875 107.1719 839.1406 107.1719 Q838.1875 107.1719 837.8281 107.0312 L837.8281 109.5 L836.75 109.5 Z" style="fill:black; stroke:none;" /></g><g ID="li-1:1,2" style="fill:white; text-rendering:optimizeSpeed; font-family:'Serif'; stroke:white;"><rect height="9" style="stroke:none;" width="8" x="902" y="96" /><path d="M906.1875 102.0312 L906.1875 97.375 L903.2031 102.0312 L906.1875 102.0312 ZM908.7656 105 L904.7812 105 L904.7812 104.375 L906.1875 104.375 L906.1875 102.6562 L902.375 102.6562 L902.375 102.0156 L906.2031 96.0938 L907.3594 96.0938 L907.3594 102.0312 L909.0312 102.0312 L909.0312 102.6562 L907.3594 102.6562 L907.3594 104.375 L908.7656 104.375 L908.7656 105 Z" style="fill:black; stroke:none;" /><rect height="13" style="stroke:none;" width="7" x="888" y="94" /><path d="M889.8281 106.25 Q890.2969 106.5938 891.1719 106.5938 Q892.0625 106.5938 892.5781 106.0703 Q893.0938 105.5469 893.0938 104.6562 Q893.0938 103.4219 892.5625 102.8906 Q892.0156 102.3594 891 102.3594 L890.4375 102.3594 L890.4375 101.7188 L890.7344 101.7188 Q891.4844 101.7188 892 101.2969 Q892.4219 100.9531 892.4219 100.0156 Q892.4219 99.6094 892.1406 99.1406 Q891.6875 98.375 891.1562 98.3906 Q889.8281 98.4375 889.8281 100.7812 L889.8281 106.25 ZM888.75 109.5 L888.75 100.7812 Q888.75 98.3281 890.0781 98 Q890.7656 97.8125 891.25 97.8125 Q892.3438 97.8125 893.0469 98.6719 Q893.6094 99.3594 893.6094 99.9375 Q893.6094 100.7812 893.2031 101.2656 Q892.7969 101.75 892.0625 101.9844 Q893.1406 102.1406 893.75 102.7812 Q894.3281 103.4062 894.3281 104.6328 Q894.3281 105.8594 893.5078 106.5156 Q892.6875 107.1719 891.1406 107.1719 Q890.1875 107.1719 889.8281 107.0312 L889.8281 109.5 L888.75 109.5 Z" style="fill:black; stroke:none;" /></g></g></svg>