<svg xmlns="http://www.w3.org/2000/svg" style="fill-opacity:1; color-rendering:auto; color-interpolation:auto; text-rendering:auto; stroke:black; stroke-linecap:square; stroke-miterlimit:10; shape-rendering:auto; stroke-opacity:1; fill:black; stroke-dasharray:none; font-weight:normal; stroke-width:1; font-family:'Dialog'; font-style:normal; stroke-linejoin:miter; font-size:12px; stroke-dashoffset:0; image-rendering:auto;"><defs id="genericDefs" /><g><defs id="defs1"><clipPath clipPathUnits="userSpaceOnUse" id="clipPath1"><path d="M342 69 L364 69 L364 91 L342 91 L342 69 Z" /></clipPath><clipPath clipPathUnits="userSpaceOnUse" id="clipPath2"><path d="M290 69 L312 69 L312 91 L290 91 L290 69 Z" /></clipPath><clipPath clipPathUnits="userSpaceOnUse" id="clipPath3"><path d="M260 80 C260 86.0751 255.0751 91 249 91 C242.9249 91 238 86.0751 238 80 C238 73.9249 242.9249 69 249 69 C255.0751 69 260 73.9249 260 80 Z" /></clipPath><clipPath clipPathUnits="userSpaceOnUse" id="clipPath4"><path d="M208 119 C208 125.0751 203.0751 130 197 130 C190.9249 130 186 125.0751 186 119 C186 112.9249 190.9249 108 197 108 C203.0751 108 208 112.9249 208 119 Z" /></clipPath><clipPath clipPathUnits="userSpaceOnUse" id="clipPath5"><path d="M156 145 C156 151.0751 151.0751 156 145 156 C138.9249 156 134 151.0751 134 145 C134 138.9249 138.9249 134 145 134 C151.0751 134 156 138.9249 156 145 Z" /></clipPath><clipPath clipPathUnits="userSpaceOnUse" id="clipPath6"><path d="M104 145 C104 151.0751 99.0751 156 93 156 C86.9249 156 82 151.0751 82 145 C82 138.9249 86.9249 134 93 134 C99.0751 134 104 138.9249 104 145 Z" /></clipPath><clipPath clipPathUnits="userSpaceOnUse" id="clipPath7"><path d="M156 93 C156 99.0751 151.0751 104 145 104 C138.9249 104 134 99.0751 134 93 C134 86.9249 138.9249 82 145 82 C151.0751 82 156 86.9249 156 93 Z" /></clipPath><clipPath clipPathUnits="userSpaceOnUse" id="clipPath8"><path d="M104 93 C104 99.0751 99.0751 104 93 104 C86.9249 104 82 99.0751 82 93 C82 86.9249 86.9249 82 93 82 C99.0751 82 104 86.9249 104 93 Z" /></clipPath><clipPath clipPathUnits="userSpaceOnUse" id="clipPath9"><path d="M208 41 C208 47.0751 203.0751 52 197 52 C190.9249 52 186 47.0751 186 41 C186 34.9249 190.9249 30 197 30 C203.0751 30 208 34.9249 208 41 Z" /></clipPath><clipPath clipPathUnits="userSpaceOnUse" id="clipPath10"><path d="M156 41 C156 47.0751 151.0751 52 145 52 C138.9249 52 134 47.0751 134 41 C134 34.9249 138.9249 30 145 30 C151.0751 30 156 34.9249 156 41 Z" /></clipPath><clipPath clipPathUnits="userSpaceOnUse" id="clipPath11"><path d="M104 41 C104 47.0751 99.0751 52 93 52 C86.9249 52 82 47.0751 82 41 C82 34.9249 86.9249 30 93 30 C99.0751 30 104 34.9249 104 41 Z" /></clipPath><clipPath clipPathUnits="userSpaceOnUse" id="clipPath12"><path d="M52 41 C52 47.0751 47.0751 52 41 52 C34.9249 52 30 47.0751 30 41 C30 34.9249 34.9249 30 41 30 C47.0751 30 52 34.9249 52 41 Z" /></clipPath></defs><g style="fill:white; text-rendering:optimizeSpeed; stroke:white;"><rect height="186" style="stroke:none;" width="394" x="0" y="0" /></g><g ID="l-1:1,2" style="text-rendering:optimizeSpeed;"><polygon points=" 353 80 301 80" style="fill:none;" /></g><g ID="r-1:1" style="fill:white; text-rendering:optimizeSpeed; stroke:white;" wurcs_mono_id="1"><rect height="22" style="clip-path:url(#clipPath1); stroke:none;" width="22" x="342" y="69" /><rect height="22" style="clip-path:url(#clipPath1); fill:rgb(0,144,188); stroke:none;" width="22" x="342" y="69" /><rect height="22" style="clip-path:url(#clipPath1); fill:none; stroke:black;" width="22" x="342" y="69" /><rect height="22" style="fill:none; stroke:black;" width="22" x="342" y="69" /></g><g ID="l-1:2,3" style="text-rendering:optimizeSpeed;"><polygon points=" 301 80 249 80" style="fill:none;" /></g><g ID="r-1:2" style="fill:white; text-rendering:optimizeSpeed; stroke:white;" wurcs_mono_id="2"><rect height="22" style="clip-path:url(#clipPath2); stroke:none;" width="22" x="290" y="69" /><rect height="22" style="clip-path:url(#clipPath2); fill:rgb(0,144,188); stroke:none;" width="22" x="290" y="69" /><rect height="22" style="clip-path:url(#clipPath2); fill:none; stroke:black;" width="22" x="290" y="69" /><rect height="22" style="fill:none; stroke:black;" width="22" x="290" y="69" /></g><g ID="l-1:3,4" style="text-rendering:optimizeSpeed;"><polygon points=" 249 80 197 119" style="fill:none;" /></g><g ID="l-1:3,5" style="text-rendering:optimizeSpeed;"><polygon points=" 249 80 197 41" style="fill:none;" /></g><g ID="r-1:3" style="fill:white; text-rendering:optimizeSpeed; stroke:white;" wurcs_mono_id="3"><circle cx="249" cy="80" r="11" style="clip-path:url(#clipPath3); stroke:none;" /><rect height="22" style="clip-path:url(#clipPath3); fill:rgb(0,166,81); stroke:none;" width="22" x="238" y="69" /><rect height="22" style="clip-path:url(#clipPath3); fill:none; stroke:black;" width="22" x="238" y="69" /><circle cx="249" cy="80" r="11" style="fill:none; stroke:black;" /></g><g ID="l-1:4,6" style="text-rendering:optimizeSpeed;"><polygon points=" 197 119 145 145" style="fill:none;" /></g><g ID="l-1:4,7" style="text-rendering:optimizeSpeed;"><polygon points=" 197 119 145 93" style="fill:none;" /></g><g ID="r-1:4" style="fill:white; text-rendering:optimizeSpeed; stroke:white;" wurcs_mono_id="4"><circle cx="197" cy="119" r="11" style="clip-path:url(#clipPath4); stroke:none;" /><rect height="22" style="clip-path:url(#clipPath4); fill:rgb(0,166,81); stroke:none;" width="22" x="186" y="108" /><rect height="22" style="clip-path:url(#clipPath4); fill:none; stroke:black;" width="22" x="186" y="108" /><circle cx="197" cy="119" r="11" style="fill:none; stroke:black;" /></g><g ID="l-1:6,8" style="text-rendering:optimizeSpeed;"><polygon points=" 145 145 93 145" style="fill:none;" /></g><g ID="r-1:6" style="fill:white; text-rendering:optimizeSpeed; stroke:white;" wurcs_mono_id="7"><circle cx="145" cy="145" r="11" style="clip-path:url(#clipPath5); stroke:none;" /><rect height="22" style="clip-path:url(#clipPath5); fill:rgb(0,166,81); stroke:none;" width="22" x="134" y="134" /><rect height="22" style="clip-path:url(#clipPath5); fill:none; stroke:black;" width="22" x="134" y="134" /><circle cx="145" cy="145" r="11" style="fill:none; stroke:black;" /></g><g ID="r-1:8" style="fill:white; text-rendering:optimizeSpeed; stroke:white;" wurcs_mono_id="8"><circle cx="93" cy="145" r="11" style="clip-path:url(#clipPath6); stroke:none;" /><rect height="22" style="clip-path:url(#clipPath6); fill:rgb(0,166,81); stroke:none;" width="22" x="82" y="134" /><rect height="22" style="clip-path:url(#clipPath6); fill:none; stroke:black;" width="22" x="82" y="134" /><circle cx="93" cy="145" r="11" style="fill:none; stroke:black;" /></g><g ID="li-1:6,8" style="fill:white; text-rendering:optimizeSpeed; font-family:'Serif'; stroke:white;"><rect height="10" style="stroke:none;" width="6" x="123" y="148" /><path d="M125.1094 157.3906 Q125.1094 157.0625 125.3359 156.8359 Q125.5625 156.6094 125.8906 156.6094 Q126.2188 156.6094 126.4453 156.8359 Q126.6719 157.0625 126.6719 157.3906 Q126.6719 157.7188 126.4453 157.9453 Q126.2188 158.1719 125.8906 158.1719 Q125.5625 158.1719 125.3359 157.9453 Q125.1094 157.7188 125.1094 157.3906 ZM123.8125 149.6406 Q124.4375 149.3594 125 149.2266 Q125.5625 149.0938 126.0469 149.0938 Q127.3438 149.0938 128.1016 149.7188 Q128.8594 150.3438 128.8594 151.4062 Q128.8594 152.5 128.2109 153.1953 Q127.5625 153.8906 126.25 154.1875 L126.25 155.6719 L125.5312 155.6719 L125.5312 153.75 Q126.5625 153.5 127.0938 152.9062 Q127.625 152.3125 127.625 151.4062 Q127.625 150.5938 127.1953 150.1328 Q126.7656 149.6719 126.0312 149.6719 Q125.3594 149.6719 124.9297 150.0547 Q124.5 150.4375 124.3906 151.1562 L123.8125 151.1562 L123.8125 149.6406 Z" style="fill:black; stroke:none;" /><rect height="10" style="stroke:none;" width="6" x="109" y="148" /><path d="M111.1094 157.3906 Q111.1094 157.0625 111.3359 156.8359 Q111.5625 156.6094 111.8906 156.6094 Q112.2188 156.6094 112.4453 156.8359 Q112.6719 157.0625 112.6719 157.3906 Q112.6719 157.7188 112.4453 157.9453 Q112.2188 158.1719 111.8906 158.1719 Q111.5625 158.1719 111.3359 157.9453 Q111.1094 157.7188 111.1094 157.3906 ZM109.8125 149.6406 Q110.4375 149.3594 111 149.2266 Q111.5625 149.0938 112.0469 149.0938 Q113.3438 149.0938 114.1016 149.7188 Q114.8594 150.3438 114.8594 151.4062 Q114.8594 152.5 114.2109 153.1953 Q113.5625 153.8906 112.25 154.1875 L112.25 155.6719 L111.5312 155.6719 L111.5312 153.75 Q112.5625 153.5 113.0938 152.9062 Q113.625 152.3125 113.625 151.4062 Q113.625 150.5938 113.1953 150.1328 Q112.7656 149.6719 112.0312 149.6719 Q111.3594 149.6719 110.9297 150.0547 Q110.5 150.4375 110.3906 151.1562 L109.8125 151.1562 L109.8125 149.6406 Z" style="fill:black; stroke:none;" /></g><g ID="l-1:7,9" style="text-rendering:optimizeSpeed;"><polygon points=" 145 93 93 93" style="fill:none;" /></g><g ID="r-1:7" style="fill:white; text-rendering:optimizeSpeed; stroke:white;" wurcs_mono_id="5"><circle cx="145" cy="93" r="11" style="clip-path:url(#clipPath7); stroke:none;" /><rect height="22" style="clip-path:url(#clipPath7); fill:rgb(0,166,81); stroke:none;" width="22" x="134" y="82" /><rect height="22" style="clip-path:url(#clipPath7); fill:none; stroke:black;" width="22" x="134" y="82" /><circle cx="145" cy="93" r="11" style="fill:none; stroke:black;" /></g><g ID="r-1:9" style="fill:white; text-rendering:optimizeSpeed; stroke:white;" wurcs_mono_id="6"><circle cx="93" cy="93" r="11" style="clip-path:url(#clipPath8); stroke:none;" /><rect height="22" style="clip-path:url(#clipPath8); fill:rgb(0,166,81); stroke:none;" width="22" x="82" y="82" /><rect height="22" style="clip-path:url(#clipPath8); fill:none; stroke:black;" width="22" x="82" y="82" /><circle cx="93" cy="93" r="11" style="fill:none; stroke:black;" /></g><g ID="li-1:7,9" style="fill:white; text-rendering:optimizeSpeed; font-family:'Serif'; stroke:white;"><rect height="10" style="stroke:none;" width="6" x="123" y="96" /><path d="M125.1094 105.3906 Q125.1094 105.0625 125.3359 104.8359 Q125.5625 104.6094 125.8906 104.6094 Q126.2188 104.6094 126.4453 104.8359 Q126.6719 105.0625 126.6719 105.3906 Q126.6719 105.7188 126.4453 105.9453 Q126.2188 106.1719 125.8906 106.1719 Q125.5625 106.1719 125.3359 105.9453 Q125.1094 105.7188 125.1094 105.3906 ZM123.8125 97.6406 Q124.4375 97.3594 125 97.2266 Q125.5625 97.0938 126.0469 97.0938 Q127.3438 97.0938 128.1016 97.7188 Q128.8594 98.3438 128.8594 99.4062 Q128.8594 100.5 128.2109 101.1953 Q127.5625 101.8906 126.25 102.1875 L126.25 103.6719 L125.5312 103.6719 L125.5312 101.75 Q126.5625 101.5 127.0938 100.9062 Q127.625 100.3125 127.625 99.4062 Q127.625 98.5938 127.1953 98.1328 Q126.7656 97.6719 126.0312 97.6719 Q125.3594 97.6719 124.9297 98.0547 Q124.5 98.4375 124.3906 99.1562 L123.8125 99.1562 L123.8125 97.6406 Z" style="fill:black; stroke:none;" /><rect height="10" style="stroke:none;" width="6" x="109" y="96" /><path d="M111.1094 105.3906 Q111.1094 105.0625 111.3359 104.8359 Q111.5625 104.6094 111.8906 104.6094 Q112.2188 104.6094 112.4453 104.8359 Q112.6719 105.0625 112.6719 105.3906 Q112.6719 105.7188 112.4453 105.9453 Q112.2188 106.1719 111.8906 106.1719 Q111.5625 106.1719 111.3359 105.9453 Q111.1094 105.7188 111.1094 105.3906 ZM109.8125 97.6406 Q110.4375 97.3594 111 97.2266 Q111.5625 97.0938 112.0469 97.0938 Q113.3438 97.0938 114.1016 97.7188 Q114.8594 98.3438 114.8594 99.4062 Q114.8594 100.5 114.2109 101.1953 Q113.5625 101.8906 112.25 102.1875 L112.25 103.6719 L111.5312 103.6719 L111.5312 101.75 Q112.5625 101.5 113.0938 100.9062 Q113.625 100.3125 113.625 99.4062 Q113.625 98.5938 113.1953 98.1328 Q112.7656 97.6719 112.0312 97.6719 Q111.3594 97.6719 110.9297 98.0547 Q110.5 98.4375 110.3906 99.1562 L109.8125 99.1562 L109.8125 97.6406 Z" style="fill:black; stroke:none;" /></g><g ID="li-1:4,6" style="fill:white; text-rendering:optimizeSpeed; font-family:'Serif'; stroke:white;"><rect height="10" style="stroke:none;" width="6" x="179" y="130" /><path d="M181.1094 139.3906 Q181.1094 139.0625 181.3359 138.8359 Q181.5625 138.6094 181.8906 138.6094 Q182.2188 138.6094 182.4453 138.8359 Q182.6719 139.0625 182.6719 139.3906 Q182.6719 139.7188 182.4453 139.9453 Q182.2188 140.1719 181.8906 140.1719 Q181.5625 140.1719 181.3359 139.9453 Q181.1094 139.7188 181.1094 139.3906 ZM179.8125 131.6406 Q180.4375 131.3594 181 131.2266 Q181.5625 131.0938 182.0469 131.0938 Q183.3438 131.0938 184.1016 131.7188 Q184.8594 132.3438 184.8594 133.4062 Q184.8594 134.5 184.2109 135.1953 Q183.5625 135.8906 182.25 136.1875 L182.25 137.6719 L181.5312 137.6719 L181.5312 135.75 Q182.5625 135.5 183.0938 134.9062 Q183.625 134.3125 183.625 133.4062 Q183.625 132.5938 183.1953 132.1328 Q182.7656 131.6719 182.0312 131.6719 Q181.3594 131.6719 180.9297 132.0547 Q180.5 132.4375 180.3906 133.1562 L179.8125 133.1562 L179.8125 131.6406 Z" style="fill:black; stroke:none;" /><rect height="10" style="stroke:none;" width="6" x="163" y="138" /><path d="M165.1094 147.3906 Q165.1094 147.0625 165.3359 146.8359 Q165.5625 146.6094 165.8906 146.6094 Q166.2188 146.6094 166.4453 146.8359 Q166.6719 147.0625 166.6719 147.3906 Q166.6719 147.7188 166.4453 147.9453 Q166.2188 148.1719 165.8906 148.1719 Q165.5625 148.1719 165.3359 147.9453 Q165.1094 147.7188 165.1094 147.3906 ZM163.8125 139.6406 Q164.4375 139.3594 165 139.2266 Q165.5625 139.0938 166.0469 139.0938 Q167.3438 139.0938 168.1016 139.7188 Q168.8594 140.3438 168.8594 141.4062 Q168.8594 142.5 168.2109 143.1953 Q167.5625 143.8906 166.25 144.1875 L166.25 145.6719 L165.5312 145.6719 L165.5312 143.75 Q166.5625 143.5 167.0938 142.9062 Q167.625 142.3125 167.625 141.4062 Q167.625 140.5938 167.1953 140.1328 Q166.7656 139.6719 166.0312 139.6719 Q165.3594 139.6719 164.9297 140.0547 Q164.5 140.4375 164.3906 141.1562 L163.8125 141.1562 L163.8125 139.6406 Z" style="fill:black; stroke:none;" /></g><g ID="li-1:4,7" style="fill:white; text-rendering:optimizeSpeed; font-family:'Serif'; stroke:white;"><rect height="10" style="stroke:none;" width="6" x="172" y="112" /><path d="M174.1094 121.3906 Q174.1094 121.0625 174.3359 120.8359 Q174.5625 120.6094 174.8906 120.6094 Q175.2188 120.6094 175.4453 120.8359 Q175.6719 121.0625 175.6719 121.3906 Q175.6719 121.7188 175.4453 121.9453 Q175.2188 122.1719 174.8906 122.1719 Q174.5625 122.1719 174.3359 121.9453 Q174.1094 121.7188 174.1094 121.3906 ZM172.8125 113.6406 Q173.4375 113.3594 174 113.2266 Q174.5625 113.0938 175.0469 113.0938 Q176.3438 113.0938 177.1016 113.7188 Q177.8594 114.3438 177.8594 115.4062 Q177.8594 116.5 177.2109 117.1953 Q176.5625 117.8906 175.25 118.1875 L175.25 119.6719 L174.5312 119.6719 L174.5312 117.75 Q175.5625 117.5 176.0938 116.9062 Q176.625 116.3125 176.625 115.4062 Q176.625 114.5938 176.1953 114.1328 Q175.7656 113.6719 175.0312 113.6719 Q174.3594 113.6719 173.9297 114.0547 Q173.5 114.4375 173.3906 115.1562 L172.8125 115.1562 L172.8125 113.6406 Z" style="fill:black; stroke:none;" /><rect height="10" style="stroke:none;" width="6" x="156" y="104" /><path d="M158.1094 113.3906 Q158.1094 113.0625 158.3359 112.8359 Q158.5625 112.6094 158.8906 112.6094 Q159.2188 112.6094 159.4453 112.8359 Q159.6719 113.0625 159.6719 113.3906 Q159.6719 113.7188 159.4453 113.9453 Q159.2188 114.1719 158.8906 114.1719 Q158.5625 114.1719 158.3359 113.9453 Q158.1094 113.7188 158.1094 113.3906 ZM156.8125 105.6406 Q157.4375 105.3594 158 105.2266 Q158.5625 105.0938 159.0469 105.0938 Q160.3438 105.0938 161.1016 105.7188 Q161.8594 106.3438 161.8594 107.4062 Q161.8594 108.5 161.2109 109.1953 Q160.5625 109.8906 159.25 110.1875 L159.25 111.6719 L158.5312 111.6719 L158.5312 109.75 Q159.5625 109.5 160.0938 108.9062 Q160.625 108.3125 160.625 107.4062 Q160.625 106.5938 160.1953 106.1328 Q159.7656 105.6719 159.0312 105.6719 Q158.3594 105.6719 157.9297 106.0547 Q157.5 106.4375 157.3906 107.1562 L156.8125 107.1562 L156.8125 105.6406 Z" style="fill:black; stroke:none;" /></g><g ID="l-1:5,10" style="text-rendering:optimizeSpeed;"><polygon points=" 197 41 145 41" style="fill:none;" /></g><g ID="r-1:5" style="fill:white; text-rendering:optimizeSpeed; stroke:white;" wurcs_mono_id="9"><circle cx="197" cy="41" r="11" style="clip-path:url(#clipPath9); stroke:none;" /><rect height="22" style="clip-path:url(#clipPath9); fill:rgb(0,166,81); stroke:none;" width="22" x="186" y="30" /><rect height="22" style="clip-path:url(#clipPath9); fill:none; stroke:black;" width="22" x="186" y="30" /><circle cx="197" cy="41" r="11" style="fill:none; stroke:black;" /></g><g ID="l-1:10,11" style="text-rendering:optimizeSpeed;"><polygon points=" 145 41 93 41" style="fill:none;" /></g><g ID="r-1:10" style="fill:white; text-rendering:optimizeSpeed; stroke:white;" wurcs_mono_id="10"><circle cx="145" cy="41" r="11" style="clip-path:url(#clipPath10); stroke:none;" /><rect height="22" style="clip-path:url(#clipPath10); fill:rgb(0,166,81); stroke:none;" width="22" x="134" y="30" /><rect height="22" style="clip-path:url(#clipPath10); fill:none; stroke:black;" width="22" x="134" y="30" /><circle cx="145" cy="41" r="11" style="fill:none; stroke:black;" /></g><g ID="l-1:11,12" style="text-rendering:optimizeSpeed;"><polygon points=" 93 41 41 41" style="fill:none;" /></g><g ID="r-1:11" style="fill:white; text-rendering:optimizeSpeed; stroke:white;" wurcs_mono_id="11"><circle cx="93" cy="41" r="11" style="clip-path:url(#clipPath11); stroke:none;" /><rect height="22" style="clip-path:url(#clipPath11); fill:rgb(0,166,81); stroke:none;" width="22" x="82" y="30" /><rect height="22" style="clip-path:url(#clipPath11); fill:none; stroke:black;" width="22" x="82" y="30" /><circle cx="93" cy="41" r="11" style="fill:none; stroke:black;" /></g><g ID="r-1:12" style="fill:white; text-rendering:optimizeSpeed; stroke:white;" wurcs_mono_id="12"><circle cx="41" cy="41" r="11" style="clip-path:url(#clipPath12); stroke:none;" /><rect height="22" style="clip-path:url(#clipPath12); fill:rgb(0,144,188); stroke:none;" width="22" x="30" y="30" /><rect height="22" style="clip-path:url(#clipPath12); fill:none; stroke:black;" width="22" x="30" y="30" /><circle cx="41" cy="41" r="11" style="fill:none; stroke:black;" /></g><g ID="li-1:11,12" style="fill:white; text-rendering:optimizeSpeed; font-family:'Serif'; stroke:white;"><rect height="10" style="stroke:none;" width="6" x="71" y="44" /><path d="M73.1094 53.3906 Q73.1094 53.0625 73.3359 52.8359 Q73.5625 52.6094 73.8906 52.6094 Q74.2188 52.6094 74.4453 52.8359 Q74.6719 53.0625 74.6719 53.3906 Q74.6719 53.7188 74.4453 53.9453 Q74.2188 54.1719 73.8906 54.1719 Q73.5625 54.1719 73.3359 53.9453 Q73.1094 53.7188 73.1094 53.3906 ZM71.8125 45.6406 Q72.4375 45.3594 73 45.2266 Q73.5625 45.0938 74.0469 45.0938 Q75.3438 45.0938 76.1016 45.7188 Q76.8594 46.3438 76.8594 47.4062 Q76.8594 48.5 76.2109 49.1953 Q75.5625 49.8906 74.25 50.1875 L74.25 51.6719 L73.5312 51.6719 L73.5312 49.75 Q74.5625 49.5 75.0938 48.9062 Q75.625 48.3125 75.625 47.4062 Q75.625 46.5938 75.1953 46.1328 Q74.7656 45.6719 74.0312 45.6719 Q73.3594 45.6719 72.9297 46.0547 Q72.5 46.4375 72.3906 47.1562 L71.8125 47.1562 L71.8125 45.6406 Z" style="fill:black; stroke:none;" /><rect height="10" style="stroke:none;" width="6" x="57" y="44" /><path d="M59.1094 53.3906 Q59.1094 53.0625 59.3359 52.8359 Q59.5625 52.6094 59.8906 52.6094 Q60.2188 52.6094 60.4453 52.8359 Q60.6719 53.0625 60.6719 53.3906 Q60.6719 53.7188 60.4453 53.9453 Q60.2188 54.1719 59.8906 54.1719 Q59.5625 54.1719 59.3359 53.9453 Q59.1094 53.7188 59.1094 53.3906 ZM57.8125 45.6406 Q58.4375 45.3594 59 45.2266 Q59.5625 45.0938 60.0469 45.0938 Q61.3438 45.0938 62.1016 45.7188 Q62.8594 46.3438 62.8594 47.4062 Q62.8594 48.5 62.2109 49.1953 Q61.5625 49.8906 60.25 50.1875 L60.25 51.6719 L59.5312 51.6719 L59.5312 49.75 Q60.5625 49.5 61.0938 48.9062 Q61.625 48.3125 61.625 47.4062 Q61.625 46.5938 61.1953 46.1328 Q60.7656 45.6719 60.0312 45.6719 Q59.3594 45.6719 58.9297 46.0547 Q58.5 46.4375 58.3906 47.1562 L57.8125 47.1562 L57.8125 45.6406 Z" style="fill:black; stroke:none;" /></g><g ID="li-1:10,11" style="fill:white; text-rendering:optimizeSpeed; font-family:'Serif'; stroke:white;"><rect height="10" style="stroke:none;" width="6" x="123" y="44" /><path d="M125.1094 53.3906 Q125.1094 53.0625 125.3359 52.8359 Q125.5625 52.6094 125.8906 52.6094 Q126.2188 52.6094 126.4453 52.8359 Q126.6719 53.0625 126.6719 53.3906 Q126.6719 53.7188 126.4453 53.9453 Q126.2188 54.1719 125.8906 54.1719 Q125.5625 54.1719 125.3359 53.9453 Q125.1094 53.7188 125.1094 53.3906 ZM123.8125 45.6406 Q124.4375 45.3594 125 45.2266 Q125.5625 45.0938 126.0469 45.0938 Q127.3438 45.0938 128.1016 45.7188 Q128.8594 46.3438 128.8594 47.4062 Q128.8594 48.5 128.2109 49.1953 Q127.5625 49.8906 126.25 50.1875 L126.25 51.6719 L125.5312 51.6719 L125.5312 49.75 Q126.5625 49.5 127.0938 48.9062 Q127.625 48.3125 127.625 47.4062 Q127.625 46.5938 127.1953 46.1328 Q126.7656 45.6719 126.0312 45.6719 Q125.3594 45.6719 124.9297 46.0547 Q124.5 46.4375 124.3906 47.1562 L123.8125 47.1562 L123.8125 45.6406 Z" style="fill:black; stroke:none;" /><rect height="10" style="stroke:none;" width="6" x="109" y="44" /><path d="M111.1094 53.3906 Q111.1094 53.0625 111.3359 52.8359 Q111.5625 52.6094 111.8906 52.6094 Q112.2188 52.6094 112.4453 52.8359 Q112.6719 53.0625 112.6719 53.3906 Q112.6719 53.7188 112.4453 53.9453 Q112.2188 54.1719 111.8906 54.1719 Q111.5625 54.1719 111.3359 53.9453 Q111.1094 53.7188 111.1094 53.3906 ZM109.8125 45.6406 Q110.4375 45.3594 111 45.2266 Q111.5625 45.0938 112.0469 45.0938 Q113.3438 45.0938 114.1016 45.7188 Q114.8594 46.3438 114.8594 47.4062 Q114.8594 48.5 114.2109 49.1953 Q113.5625 49.8906 112.25 50.1875 L112.25 51.6719 L111.5312 51.6719 L111.5312 49.75 Q112.5625 49.5 113.0938 48.9062 Q113.625 48.3125 113.625 47.4062 Q113.625 46.5938 113.1953 46.1328 Q112.7656 45.6719 112.0312 45.6719 Q111.3594 45.6719 110.9297 46.0547 Q110.5 46.4375 110.3906 47.1562 L109.8125 47.1562 L109.8125 45.6406 Z" style="fill:black; stroke:none;" /></g><g ID="li-1:5,10" style="fill:white; text-rendering:optimizeSpeed; font-family:'Serif'; stroke:white;"><rect height="10" style="stroke:none;" width="6" x="175" y="44" /><path d="M177.1094 53.3906 Q177.1094 53.0625 177.3359 52.8359 Q177.5625 52.6094 177.8906 52.6094 Q178.2188 52.6094 178.4453 52.8359 Q178.6719 53.0625 178.6719 53.3906 Q178.6719 53.7188 178.4453 53.9453 Q178.2188 54.1719 177.8906 54.1719 Q177.5625 54.1719 177.3359 53.9453 Q177.1094 53.7188 177.1094 53.3906 ZM175.8125 45.6406 Q176.4375 45.3594 177 45.2266 Q177.5625 45.0938 178.0469 45.0938 Q179.3438 45.0938 180.1016 45.7188 Q180.8594 46.3438 180.8594 47.4062 Q180.8594 48.5 180.2109 49.1953 Q179.5625 49.8906 178.25 50.1875 L178.25 51.6719 L177.5312 51.6719 L177.5312 49.75 Q178.5625 49.5 179.0938 48.9062 Q179.625 48.3125 179.625 47.4062 Q179.625 46.5938 179.1953 46.1328 Q178.7656 45.6719 178.0312 45.6719 Q177.3594 45.6719 176.9297 46.0547 Q176.5 46.4375 176.3906 47.1562 L175.8125 47.1562 L175.8125 45.6406 Z" style="fill:black; stroke:none;" /><rect height="10" style="stroke:none;" width="6" x="161" y="44" /><path d="M163.1094 53.3906 Q163.1094 53.0625 163.3359 52.8359 Q163.5625 52.6094 163.8906 52.6094 Q164.2188 52.6094 164.4453 52.8359 Q164.6719 53.0625 164.6719 53.3906 Q164.6719 53.7188 164.4453 53.9453 Q164.2188 54.1719 163.8906 54.1719 Q163.5625 54.1719 163.3359 53.9453 Q163.1094 53.7188 163.1094 53.3906 ZM161.8125 45.6406 Q162.4375 45.3594 163 45.2266 Q163.5625 45.0938 164.0469 45.0938 Q165.3438 45.0938 166.1016 45.7188 Q166.8594 46.3438 166.8594 47.4062 Q166.8594 48.5 166.2109 49.1953 Q165.5625 49.8906 164.25 50.1875 L164.25 51.6719 L163.5312 51.6719 L163.5312 49.75 Q164.5625 49.5 165.0938 48.9062 Q165.625 48.3125 165.625 47.4062 Q165.625 46.5938 165.1953 46.1328 Q164.7656 45.6719 164.0312 45.6719 Q163.3594 45.6719 162.9297 46.0547 Q162.5 46.4375 162.3906 47.1562 L161.8125 47.1562 L161.8125 45.6406 Z" style="fill:black; stroke:none;" /></g><g ID="li-1:3,4" style="fill:white; text-rendering:optimizeSpeed; font-family:'Serif'; stroke:white;"><rect height="11" style="stroke:none;" width="19" x="226" y="93" /><path d="M227.1719 95.625 Q227.8594 95.3594 228.4844 95.2266 Q229.1094 95.0938 229.6562 95.0938 Q230.9531 95.0938 231.6719 95.6484 Q232.3906 96.2031 232.3906 97.1875 Q232.3906 97.9688 231.8906 98.5 Q231.3906 99.0312 230.4844 99.2188 Q231.5625 99.375 232.1562 100.0078 Q232.75 100.6406 232.75 101.6406 Q232.75 102.8594 231.9219 103.5156 Q231.0938 104.1719 229.5469 104.1719 Q228.8594 104.1719 228.2109 104.0234 Q227.5625 103.875 226.9219 103.5781 L226.9219 101.875 L227.5781 101.875 Q227.625 102.7188 228.1406 103.1562 Q228.6562 103.5938 229.5781 103.5938 Q230.4688 103.5938 230.9922 103.0703 Q231.5156 102.5469 231.5156 101.6562 Q231.5156 100.625 230.9766 100.0938 Q230.4375 99.5625 229.4062 99.5625 L228.8594 99.5625 L228.8594 98.9531 L229.1406 98.9531 Q230.1719 98.9531 230.6875 98.5312 Q231.2031 98.1094 231.2031 97.25 Q231.2031 96.4844 230.7812 96.0781 Q230.3594 95.6719 229.5625 95.6719 Q228.7656 95.6719 228.3359 96.0469 Q227.9062 96.4219 227.8281 97.1562 L227.1719 97.1562 L227.1719 95.625 ZM236.7441 95.25 L237.6816 95.25 L234.5723 105.1094 L233.6348 105.1094 L236.7441 95.25 ZM241.5996 103.5938 Q242.4277 103.5938 242.873 102.9844 Q243.3184 102.375 243.3184 101.2344 Q243.3184 100.1094 242.873 99.5 Q242.4277 98.8906 241.5996 98.8906 Q240.7715 98.8906 240.3262 99.4766 Q239.8809 100.0625 239.8809 101.1719 Q239.8809 102.3281 240.3262 102.9609 Q240.7715 103.5938 241.5996 103.5938 ZM239.6934 99.1875 Q240.0996 98.75 240.5996 98.5312 Q241.0996 98.3125 241.7402 98.3125 Q243.0371 98.3125 243.7949 99.0938 Q244.5527 99.875 244.5527 101.2344 Q244.5527 102.5625 243.7402 103.3672 Q242.9277 104.1719 241.5527 104.1719 Q240.0684 104.1719 239.2715 103.0625 Q238.4746 101.9531 238.4746 99.9062 Q238.4746 97.6094 239.4199 96.3516 Q240.3652 95.0938 242.084 95.0938 Q242.5527 95.0938 243.0605 95.1797 Q243.5684 95.2656 244.0996 95.4375 L244.0996 96.8906 L243.4434 96.8906 Q243.3652 96.2969 242.9824 95.9844 Q242.5996 95.6719 241.959 95.6719 Q240.8184 95.6719 240.2637 96.5312 Q239.709 97.3906 239.6934 99.1875 Z" style="fill:black; stroke:none;" /><rect height="8" style="stroke:none;" width="8" x="215" y="108" /><path d="M220.1875 114.4688 L219.9531 115.1094 Q219.7656 115.625 219.2031 115.9375 Q218.8438 116.1562 218.2031 116.1406 Q217.0469 116.1406 216.3281 115.2344 Q215.5938 114.3281 215.5938 112.8594 Q215.5938 111.4219 216.3281 110.4844 Q217.0156 109.5938 218.4531 109.6094 Q219.4531 109.6094 219.9531 110 Q220.4062 110.3438 220.5781 111.0938 L220.625 111.3125 L220.8438 110.6719 Q221.0625 110.0469 221.6562 109.75 L222.25 109.75 L222.25 110.0938 Q221.6875 110.2656 221.5 110.8125 L220.8906 112.4844 L221.2969 114.2812 Q221.5 115.2031 221.7344 115.2969 Q222.0469 115.4375 222.7812 115 L222.7812 115.7188 Q221.5938 116.4062 220.75 115.6875 Q220.375 115.3594 220.2656 114.875 L220.1875 114.4688 ZM219.9219 113.3125 L219.5625 111.5938 Q219.2656 110.2188 218.4688 110.2188 Q217.7969 110.2031 217.2812 110.9375 Q216.8594 111.5156 216.8594 112.875 Q216.8594 114.1719 217.2812 114.8281 Q217.75 115.5469 218.5312 115.5 Q219.2031 115.4375 219.6875 114 L219.9219 113.3125 Z" style="fill:black; stroke:none;" /></g><g ID="li-1:3,5" style="fill:white; text-rendering:optimizeSpeed; font-family:'Serif'; stroke:white;"><rect height="11" style="stroke:none;" width="19" x="217" y="67" /><path d="M218.1719 69.625 Q218.8594 69.3594 219.4844 69.2266 Q220.1094 69.0938 220.6562 69.0938 Q221.9531 69.0938 222.6719 69.6484 Q223.3906 70.2031 223.3906 71.1875 Q223.3906 71.9688 222.8906 72.5 Q222.3906 73.0312 221.4844 73.2188 Q222.5625 73.375 223.1562 74.0078 Q223.75 74.6406 223.75 75.6406 Q223.75 76.8594 222.9219 77.5156 Q222.0938 78.1719 220.5469 78.1719 Q219.8594 78.1719 219.2109 78.0234 Q218.5625 77.875 217.9219 77.5781 L217.9219 75.875 L218.5781 75.875 Q218.625 76.7188 219.1406 77.1562 Q219.6562 77.5938 220.5781 77.5938 Q221.4688 77.5938 221.9922 77.0703 Q222.5156 76.5469 222.5156 75.6562 Q222.5156 74.625 221.9766 74.0938 Q221.4375 73.5625 220.4062 73.5625 L219.8594 73.5625 L219.8594 72.9531 L220.1406 72.9531 Q221.1719 72.9531 221.6875 72.5312 Q222.2031 72.1094 222.2031 71.25 Q222.2031 70.4844 221.7812 70.0781 Q221.3594 69.6719 220.5625 69.6719 Q219.7656 69.6719 219.3359 70.0469 Q218.9062 70.4219 218.8281 71.1562 L218.1719 71.1562 L218.1719 69.625 ZM227.7441 69.25 L228.6816 69.25 L225.5723 79.1094 L224.6348 79.1094 L227.7441 69.25 ZM232.5996 77.5938 Q233.4277 77.5938 233.873 76.9844 Q234.3184 76.375 234.3184 75.2344 Q234.3184 74.1094 233.873 73.5 Q233.4277 72.8906 232.5996 72.8906 Q231.7715 72.8906 231.3262 73.4766 Q230.8809 74.0625 230.8809 75.1719 Q230.8809 76.3281 231.3262 76.9609 Q231.7715 77.5938 232.5996 77.5938 ZM230.6934 73.1875 Q231.0996 72.75 231.5996 72.5312 Q232.0996 72.3125 232.7402 72.3125 Q234.0371 72.3125 234.7949 73.0938 Q235.5527 73.875 235.5527 75.2344 Q235.5527 76.5625 234.7402 77.3672 Q233.9277 78.1719 232.5527 78.1719 Q231.0684 78.1719 230.2715 77.0625 Q229.4746 75.9531 229.4746 73.9062 Q229.4746 71.6094 230.4199 70.3516 Q231.3652 69.0938 233.084 69.0938 Q233.5527 69.0938 234.0605 69.1797 Q234.5684 69.2656 235.0996 69.4375 L235.0996 70.8906 L234.4434 70.8906 Q234.3652 70.2969 233.9824 69.9844 Q233.5996 69.6719 232.959 69.6719 Q231.8184 69.6719 231.2637 70.5312 Q230.709 71.3906 230.6934 73.1875 Z" style="fill:black; stroke:none;" /><rect height="8" style="stroke:none;" width="8" x="205" y="56" /><path d="M210.1875 62.4688 L209.9531 63.1094 Q209.7656 63.625 209.2031 63.9375 Q208.8438 64.1562 208.2031 64.1406 Q207.0469 64.1406 206.3281 63.2344 Q205.5938 62.3281 205.5938 60.8594 Q205.5938 59.4219 206.3281 58.4844 Q207.0156 57.5938 208.4531 57.6094 Q209.4531 57.6094 209.9531 58 Q210.4062 58.3438 210.5781 59.0938 L210.625 59.3125 L210.8438 58.6719 Q211.0625 58.0469 211.6562 57.75 L212.25 57.75 L212.25 58.0938 Q211.6875 58.2656 211.5 58.8125 L210.8906 60.4844 L211.2969 62.2812 Q211.5 63.2031 211.7344 63.2969 Q212.0469 63.4375 212.7812 63 L212.7812 63.7188 Q211.5938 64.4062 210.75 63.6875 Q210.375 63.3594 210.2656 62.875 L210.1875 62.4688 ZM209.9219 61.3125 L209.5625 59.5938 Q209.2656 58.2188 208.4688 58.2188 Q207.7969 58.2031 207.2812 58.9375 Q206.8594 59.5156 206.8594 60.875 Q206.8594 62.1719 207.2812 62.8281 Q207.75 63.5469 208.5312 63.5 Q209.2031 63.4375 209.6875 62 L209.9219 61.3125 Z" style="fill:black; stroke:none;" /></g><g ID="li-1:2,3" style="fill:white; text-rendering:optimizeSpeed; font-family:'Serif'; stroke:white;"><rect height="9" style="stroke:none;" width="8" x="278" y="83" /><path d="M282.1875 89.0312 L282.1875 84.375 L279.2031 89.0312 L282.1875 89.0312 ZM284.7656 92 L280.7812 92 L280.7812 91.375 L282.1875 91.375 L282.1875 89.6562 L278.375 89.6562 L278.375 89.0156 L282.2031 83.0938 L283.3594 83.0938 L283.3594 89.0312 L285.0312 89.0312 L285.0312 89.6562 L283.3594 89.6562 L283.3594 91.375 L284.7656 91.375 L284.7656 92 Z" style="fill:black; stroke:none;" /><rect height="13" style="stroke:none;" width="7" x="264" y="81" /><path d="M265.8281 93.25 Q266.2969 93.5938 267.1719 93.5938 Q268.0625 93.5938 268.5781 93.0703 Q269.0938 92.5469 269.0938 91.6562 Q269.0938 90.4219 268.5625 89.8906 Q268.0156 89.3594 267 89.3594 L266.4375 89.3594 L266.4375 88.7188 L266.7344 88.7188 Q267.4844 88.7188 268 88.2969 Q268.4219 87.9531 268.4219 87.0156 Q268.4219 86.6094 268.1406 86.1406 Q267.6875 85.375 267.1562 85.3906 Q265.8281 85.4375 265.8281 87.7812 L265.8281 93.25 ZM264.75 96.5 L264.75 87.7812 Q264.75 85.3281 266.0781 85 Q266.7656 84.8125 267.25 84.8125 Q268.3438 84.8125 269.0469 85.6719 Q269.6094 86.3594 269.6094 86.9375 Q269.6094 87.7812 269.2031 88.2656 Q268.7969 88.75 268.0625 88.9844 Q269.1406 89.1406 269.75 89.7812 Q270.3281 90.4062 270.3281 91.6328 Q270.3281 92.8594 269.5078 93.5156 Q268.6875 94.1719 267.1406 94.1719 Q266.1875 94.1719 265.8281 94.0312 L265.8281 96.5 L264.75 96.5 Z" style="fill:black; stroke:none;" /></g><g ID="li-1:1,2" style="fill:white; text-rendering:optimizeSpeed; font-family:'Serif'; stroke:white;"><rect height="9" style="stroke:none;" width="8" x="330" y="83" /><path d="M334.1875 89.0312 L334.1875 84.375 L331.2031 89.0312 L334.1875 89.0312 ZM336.7656 92 L332.7812 92 L332.7812 91.375 L334.1875 91.375 L334.1875 89.6562 L330.375 89.6562 L330.375 89.0156 L334.2031 83.0938 L335.3594 83.0938 L335.3594 89.0312 L337.0312 89.0312 L337.0312 89.6562 L335.3594 89.6562 L335.3594 91.375 L336.7656 91.375 L336.7656 92 Z" style="fill:black; stroke:none;" /><rect height="13" style="stroke:none;" width="7" x="316" y="81" /><path d="M317.8281 93.25 Q318.2969 93.5938 319.1719 93.5938 Q320.0625 93.5938 320.5781 93.0703 Q321.0938 92.5469 321.0938 91.6562 Q321.0938 90.4219 320.5625 89.8906 Q320.0156 89.3594 319 89.3594 L318.4375 89.3594 L318.4375 88.7188 L318.7344 88.7188 Q319.4844 88.7188 320 88.2969 Q320.4219 87.9531 320.4219 87.0156 Q320.4219 86.6094 320.1406 86.1406 Q319.6875 85.375 319.1562 85.3906 Q317.8281 85.4375 317.8281 87.7812 L317.8281 93.25 ZM316.75 96.5 L316.75 87.7812 Q316.75 85.3281 318.0781 85 Q318.7656 84.8125 319.25 84.8125 Q320.3438 84.8125 321.0469 85.6719 Q321.6094 86.3594 321.6094 86.9375 Q321.6094 87.7812 321.2031 88.2656 Q320.7969 88.75 320.0625 88.9844 Q321.1406 89.1406 321.75 89.7812 Q322.3281 90.4062 322.3281 91.6328 Q322.3281 92.8594 321.5078 93.5156 Q320.6875 94.1719 319.1406 94.1719 Q318.1875 94.1719 317.8281 94.0312 L317.8281 96.5 L316.75 96.5 Z" style="fill:black; stroke:none;" /></g></g></svg>