<svg xmlns="http://www.w3.org/2000/svg" style="fill-opacity:1; color-rendering:auto; color-interpolation:auto; text-rendering:auto; stroke:black; stroke-linecap:square; stroke-miterlimit:10; shape-rendering:auto; stroke-opacity:1; fill:black; stroke-dasharray:none; font-weight:normal; stroke-width:1; font-family:'Dialog'; font-style:normal; stroke-linejoin:miter; font-size:12px; stroke-dashoffset:0; image-rendering:auto;"><defs id="genericDefs" /><g><defs id="defs1"><clipPath clipPathUnits="userSpaceOnUse" id="clipPath1"><path d="M260 41 C260 47.0751 255.0751 52 249 52 C242.9249 52 238 47.0751 238 41 C238 34.9249 242.9249 30 249 30 C255.0751 30 260 34.9249 260 41 Z" /></clipPath><clipPath clipPathUnits="userSpaceOnUse" id="clipPath2"><path d="M208 41 C208 47.0751 203.0751 52 197 52 C190.9249 52 186 47.0751 186 41 C186 34.9249 190.9249 30 197 30 C203.0751 30 208 34.9249 208 41 Z" /></clipPath><clipPath clipPathUnits="userSpaceOnUse" id="clipPath3"><path d="M156 41 C156 47.0751 151.0751 52 145 52 C138.9249 52 134 47.0751 134 41 C134 34.9249 138.9249 30 145 30 C151.0751 30 156 34.9249 156 41 Z" /></clipPath><clipPath clipPathUnits="userSpaceOnUse" id="clipPath4"><path d="M93 30 L104 41 L93 52 L82 41 Z" style="fill-rule:evenodd;" /></clipPath><clipPath clipPathUnits="userSpaceOnUse" id="clipPath5"><path d="M41 30 L52 41 L41 52 L30 41 Z" style="fill-rule:evenodd;" /></clipPath></defs><g style="fill:white; text-rendering:optimizeSpeed; stroke:white;"><rect height="82" style="stroke:none;" width="290" x="0" y="0" /></g><g ID="l-1:1,2" style="text-rendering:optimizeSpeed;"><polygon points=" 249 41 197 41" style="fill:none;" /></g><g ID="r-1:1" style="fill:white; text-rendering:optimizeSpeed; stroke:white;" wurcs_mono_id="1"><circle cx="249" cy="41" r="11" style="clip-path:url(#clipPath1); stroke:none;" /><rect height="22" style="clip-path:url(#clipPath1); fill:rgb(255,212,0); stroke:none;" width="22" x="238" y="30" /><rect height="22" style="clip-path:url(#clipPath1); fill:none; stroke:black;" width="22" x="238" y="30" /><circle cx="249" cy="41" r="11" style="fill:none; stroke:black;" /></g><g ID="l-1:2,3" style="text-rendering:optimizeSpeed;"><polygon points=" 197 41 145 41" style="fill:none;" /></g><g ID="r-1:2" style="fill:white; text-rendering:optimizeSpeed; stroke:white;" wurcs_mono_id="2"><circle cx="197" cy="41" r="11" style="clip-path:url(#clipPath2); stroke:none;" /><rect height="22" style="clip-path:url(#clipPath2); fill:rgb(255,212,0); stroke:none;" width="22" x="186" y="30" /><rect height="22" style="clip-path:url(#clipPath2); fill:none; stroke:black;" width="22" x="186" y="30" /><circle cx="197" cy="41" r="11" style="fill:none; stroke:black;" /></g><g ID="l-1:3,4" style="text-rendering:optimizeSpeed;"><polygon points=" 145 41 93 41" style="fill:none;" /></g><g ID="r-1:3" style="fill:white; text-rendering:optimizeSpeed; stroke:white;" wurcs_mono_id="3"><circle cx="145" cy="41" r="11" style="clip-path:url(#clipPath3); stroke:none;" /><rect height="22" style="clip-path:url(#clipPath3); fill:rgb(255,212,0); stroke:none;" width="22" x="134" y="30" /><rect height="22" style="clip-path:url(#clipPath3); fill:none; stroke:black;" width="22" x="134" y="30" /><circle cx="145" cy="41" r="11" style="fill:none; stroke:black;" /></g><g ID="l-1:4,5" style="text-rendering:optimizeSpeed;"><polygon points=" 93 41 41 41" style="fill:none;" /></g><g ID="r-1:4" style="fill:white; text-rendering:optimizeSpeed; stroke:white;" wurcs_mono_id="4"><polygon points=" 93 30 104 41 93 52 82 41" style="stroke:none; clip-path:url(#clipPath4);" /><rect height="22" style="clip-path:url(#clipPath4); fill:rgb(165,67,153); stroke:none;" width="22" x="82" y="30" /><rect height="22" style="clip-path:url(#clipPath4); fill:none; stroke:black;" width="22" x="82" y="30" /><polygon points=" 93 30 104 41 93 52 82 41" style="fill:none; stroke:black;" /></g><g ID="r-1:5" style="fill:white; text-rendering:optimizeSpeed; stroke:white;" wurcs_mono_id="5"><polygon points=" 41 30 52 41 41 52 30 41" style="stroke:none; clip-path:url(#clipPath5);" /><rect height="22" style="clip-path:url(#clipPath5); fill:rgb(165,67,153); stroke:none;" width="22" x="30" y="30" /><rect height="22" style="clip-path:url(#clipPath5); fill:none; stroke:black;" width="22" x="30" y="30" /><polygon points=" 41 30 52 41 41 52 30 41" style="fill:none; stroke:black;" /></g><g ID="li-1:4,5" style="fill:white; text-rendering:optimizeSpeed; font-family:'Serif'; stroke:white;"><rect height="10" style="stroke:none;" width="6" x="71" y="44" /><path d="M73.1094 53.3906 Q73.1094 53.0625 73.3359 52.8359 Q73.5625 52.6094 73.8906 52.6094 Q74.2188 52.6094 74.4453 52.8359 Q74.6719 53.0625 74.6719 53.3906 Q74.6719 53.7188 74.4453 53.9453 Q74.2188 54.1719 73.8906 54.1719 Q73.5625 54.1719 73.3359 53.9453 Q73.1094 53.7188 73.1094 53.3906 ZM71.8125 45.6406 Q72.4375 45.3594 73 45.2266 Q73.5625 45.0938 74.0469 45.0938 Q75.3438 45.0938 76.1016 45.7188 Q76.8594 46.3438 76.8594 47.4062 Q76.8594 48.5 76.2109 49.1953 Q75.5625 49.8906 74.25 50.1875 L74.25 51.6719 L73.5312 51.6719 L73.5312 49.75 Q74.5625 49.5 75.0938 48.9062 Q75.625 48.3125 75.625 47.4062 Q75.625 46.5938 75.1953 46.1328 Q74.7656 45.6719 74.0312 45.6719 Q73.3594 45.6719 72.9297 46.0547 Q72.5 46.4375 72.3906 47.1562 L71.8125 47.1562 L71.8125 45.6406 Z" style="fill:black; stroke:none;" /><rect height="8" style="stroke:none;" width="8" x="56" y="45" /><path d="M61.1875 51.4688 L60.9531 52.1094 Q60.7656 52.625 60.2031 52.9375 Q59.8438 53.1562 59.2031 53.1406 Q58.0469 53.1406 57.3281 52.2344 Q56.5938 51.3281 56.5938 49.8594 Q56.5938 48.4219 57.3281 47.4844 Q58.0156 46.5938 59.4531 46.6094 Q60.4531 46.6094 60.9531 47 Q61.4062 47.3438 61.5781 48.0938 L61.625 48.3125 L61.8438 47.6719 Q62.0625 47.0469 62.6562 46.75 L63.25 46.75 L63.25 47.0938 Q62.6875 47.2656 62.5 47.8125 L61.8906 49.4844 L62.2969 51.2812 Q62.5 52.2031 62.7344 52.2969 Q63.0469 52.4375 63.7812 52 L63.7812 52.7188 Q62.5938 53.4062 61.75 52.6875 Q61.375 52.3594 61.2656 51.875 L61.1875 51.4688 ZM60.9219 50.3125 L60.5625 48.5938 Q60.2656 47.2188 59.4688 47.2188 Q58.7969 47.2031 58.2812 47.9375 Q57.8594 48.5156 57.8594 49.875 Q57.8594 51.1719 58.2812 51.8281 Q58.75 52.5469 59.5312 52.5 Q60.2031 52.4375 60.6875 51 L60.9219 50.3125 Z" style="fill:black; stroke:none;" /></g><g ID="li-1:3,4" style="fill:white; text-rendering:optimizeSpeed; font-family:'Serif'; stroke:white;"><rect height="10" style="stroke:none;" width="7" x="122" y="44" /><path d="M123.1719 45.625 Q123.8594 45.3594 124.4844 45.2266 Q125.1094 45.0938 125.6562 45.0938 Q126.9531 45.0938 127.6719 45.6484 Q128.3906 46.2031 128.3906 47.1875 Q128.3906 47.9688 127.8906 48.5 Q127.3906 49.0312 126.4844 49.2188 Q127.5625 49.375 128.1562 50.0078 Q128.75 50.6406 128.75 51.6406 Q128.75 52.8594 127.9219 53.5156 Q127.0938 54.1719 125.5469 54.1719 Q124.8594 54.1719 124.2109 54.0234 Q123.5625 53.875 122.9219 53.5781 L122.9219 51.875 L123.5781 51.875 Q123.625 52.7188 124.1406 53.1562 Q124.6562 53.5938 125.5781 53.5938 Q126.4688 53.5938 126.9922 53.0703 Q127.5156 52.5469 127.5156 51.6562 Q127.5156 50.625 126.9766 50.0938 Q126.4375 49.5625 125.4062 49.5625 L124.8594 49.5625 L124.8594 48.9531 L125.1406 48.9531 Q126.1719 48.9531 126.6875 48.5312 Q127.2031 48.1094 127.2031 47.25 Q127.2031 46.4844 126.7812 46.0781 Q126.3594 45.6719 125.5625 45.6719 Q124.7656 45.6719 124.3359 46.0469 Q123.9062 46.4219 123.8281 47.1562 L123.1719 47.1562 L123.1719 45.625 Z" style="fill:black; stroke:none;" /><rect height="8" style="stroke:none;" width="8" x="108" y="45" /><path d="M113.1875 51.4688 L112.9531 52.1094 Q112.7656 52.625 112.2031 52.9375 Q111.8438 53.1562 111.2031 53.1406 Q110.0469 53.1406 109.3281 52.2344 Q108.5938 51.3281 108.5938 49.8594 Q108.5938 48.4219 109.3281 47.4844 Q110.0156 46.5938 111.4531 46.6094 Q112.4531 46.6094 112.9531 47 Q113.4062 47.3438 113.5781 48.0938 L113.625 48.3125 L113.8438 47.6719 Q114.0625 47.0469 114.6562 46.75 L115.25 46.75 L115.25 47.0938 Q114.6875 47.2656 114.5 47.8125 L113.8906 49.4844 L114.2969 51.2812 Q114.5 52.2031 114.7344 52.2969 Q115.0469 52.4375 115.7812 52 L115.7812 52.7188 Q114.5938 53.4062 113.75 52.6875 Q113.375 52.3594 113.2656 51.875 L113.1875 51.4688 ZM112.9219 50.3125 L112.5625 48.5938 Q112.2656 47.2188 111.4688 47.2188 Q110.7969 47.2031 110.2812 47.9375 Q109.8594 48.5156 109.8594 49.875 Q109.8594 51.1719 110.2812 51.8281 Q110.75 52.5469 111.5312 52.5 Q112.2031 52.4375 112.6875 51 L112.9219 50.3125 Z" style="fill:black; stroke:none;" /></g><g ID="li-1:2,3" style="fill:white; text-rendering:optimizeSpeed; font-family:'Serif'; stroke:white;"><rect height="10" style="stroke:none;" width="7" x="174" y="44" /><path d="M175.1719 45.625 Q175.8594 45.3594 176.4844 45.2266 Q177.1094 45.0938 177.6562 45.0938 Q178.9531 45.0938 179.6719 45.6484 Q180.3906 46.2031 180.3906 47.1875 Q180.3906 47.9688 179.8906 48.5 Q179.3906 49.0312 178.4844 49.2188 Q179.5625 49.375 180.1562 50.0078 Q180.75 50.6406 180.75 51.6406 Q180.75 52.8594 179.9219 53.5156 Q179.0938 54.1719 177.5469 54.1719 Q176.8594 54.1719 176.2109 54.0234 Q175.5625 53.875 174.9219 53.5781 L174.9219 51.875 L175.5781 51.875 Q175.625 52.7188 176.1406 53.1562 Q176.6562 53.5938 177.5781 53.5938 Q178.4688 53.5938 178.9922 53.0703 Q179.5156 52.5469 179.5156 51.6562 Q179.5156 50.625 178.9766 50.0938 Q178.4375 49.5625 177.4062 49.5625 L176.8594 49.5625 L176.8594 48.9531 L177.1406 48.9531 Q178.1719 48.9531 178.6875 48.5312 Q179.2031 48.1094 179.2031 47.25 Q179.2031 46.4844 178.7812 46.0781 Q178.3594 45.6719 177.5625 45.6719 Q176.7656 45.6719 176.3359 46.0469 Q175.9062 46.4219 175.8281 47.1562 L175.1719 47.1562 L175.1719 45.625 Z" style="fill:black; stroke:none;" /><rect height="10" style="stroke:none;" width="6" x="161" y="44" /><path d="M163.1094 53.3906 Q163.1094 53.0625 163.3359 52.8359 Q163.5625 52.6094 163.8906 52.6094 Q164.2188 52.6094 164.4453 52.8359 Q164.6719 53.0625 164.6719 53.3906 Q164.6719 53.7188 164.4453 53.9453 Q164.2188 54.1719 163.8906 54.1719 Q163.5625 54.1719 163.3359 53.9453 Q163.1094 53.7188 163.1094 53.3906 ZM161.8125 45.6406 Q162.4375 45.3594 163 45.2266 Q163.5625 45.0938 164.0469 45.0938 Q165.3438 45.0938 166.1016 45.7188 Q166.8594 46.3438 166.8594 47.4062 Q166.8594 48.5 166.2109 49.1953 Q165.5625 49.8906 164.25 50.1875 L164.25 51.6719 L163.5312 51.6719 L163.5312 49.75 Q164.5625 49.5 165.0938 48.9062 Q165.625 48.3125 165.625 47.4062 Q165.625 46.5938 165.1953 46.1328 Q164.7656 45.6719 164.0312 45.6719 Q163.3594 45.6719 162.9297 46.0547 Q162.5 46.4375 162.3906 47.1562 L161.8125 47.1562 L161.8125 45.6406 Z" style="fill:black; stroke:none;" /></g><g ID="li-1:1,2" style="fill:white; text-rendering:optimizeSpeed; font-family:'Serif'; stroke:white;"><rect height="10" style="stroke:none;" width="7" x="226" y="44" /><path d="M227.1719 45.625 Q227.8594 45.3594 228.4844 45.2266 Q229.1094 45.0938 229.6562 45.0938 Q230.9531 45.0938 231.6719 45.6484 Q232.3906 46.2031 232.3906 47.1875 Q232.3906 47.9688 231.8906 48.5 Q231.3906 49.0312 230.4844 49.2188 Q231.5625 49.375 232.1562 50.0078 Q232.75 50.6406 232.75 51.6406 Q232.75 52.8594 231.9219 53.5156 Q231.0938 54.1719 229.5469 54.1719 Q228.8594 54.1719 228.2109 54.0234 Q227.5625 53.875 226.9219 53.5781 L226.9219 51.875 L227.5781 51.875 Q227.625 52.7188 228.1406 53.1562 Q228.6562 53.5938 229.5781 53.5938 Q230.4688 53.5938 230.9922 53.0703 Q231.5156 52.5469 231.5156 51.6562 Q231.5156 50.625 230.9766 50.0938 Q230.4375 49.5625 229.4062 49.5625 L228.8594 49.5625 L228.8594 48.9531 L229.1406 48.9531 Q230.1719 48.9531 230.6875 48.5312 Q231.2031 48.1094 231.2031 47.25 Q231.2031 46.4844 230.7812 46.0781 Q230.3594 45.6719 229.5625 45.6719 Q228.7656 45.6719 228.3359 46.0469 Q227.9062 46.4219 227.8281 47.1562 L227.1719 47.1562 L227.1719 45.625 Z" style="fill:black; stroke:none;" /><rect height="10" style="stroke:none;" width="6" x="213" y="44" /><path d="M215.1094 53.3906 Q215.1094 53.0625 215.3359 52.8359 Q215.5625 52.6094 215.8906 52.6094 Q216.2188 52.6094 216.4453 52.8359 Q216.6719 53.0625 216.6719 53.3906 Q216.6719 53.7188 216.4453 53.9453 Q216.2188 54.1719 215.8906 54.1719 Q215.5625 54.1719 215.3359 53.9453 Q215.1094 53.7188 215.1094 53.3906 ZM213.8125 45.6406 Q214.4375 45.3594 215 45.2266 Q215.5625 45.0938 216.0469 45.0938 Q217.3438 45.0938 218.1016 45.7188 Q218.8594 46.3438 218.8594 47.4062 Q218.8594 48.5 218.2109 49.1953 Q217.5625 49.8906 216.25 50.1875 L216.25 51.6719 L215.5312 51.6719 L215.5312 49.75 Q216.5625 49.5 217.0938 48.9062 Q217.625 48.3125 217.625 47.4062 Q217.625 46.5938 217.1953 46.1328 Q216.7656 45.6719 216.0312 45.6719 Q215.3594 45.6719 214.9297 46.0547 Q214.5 46.4375 214.3906 47.1562 L213.8125 47.1562 L213.8125 45.6406 Z" style="fill:black; stroke:none;" /></g></g></svg>