<svg xmlns="http://www.w3.org/2000/svg" style="fill-opacity:1; color-rendering:auto; color-interpolation:auto; text-rendering:auto; stroke:black; stroke-linecap:square; stroke-miterlimit:10; shape-rendering:auto; stroke-opacity:1; fill:black; stroke-dasharray:none; font-weight:normal; stroke-width:1; font-family:'Dialog'; font-style:normal; stroke-linejoin:miter; font-size:12px; stroke-dashoffset:0; image-rendering:auto;"><defs id="genericDefs" /><g><defs id="defs1"><clipPath clipPathUnits="userSpaceOnUse" id="clipPath1"><path d="M312 41 C312 47.0751 307.0751 52 301 52 C294.9249 52 290 47.0751 290 41 C290 34.9249 294.9249 30 301 30 C307.0751 30 312 34.9249 312 41 Z" /></clipPath><clipPath clipPathUnits="userSpaceOnUse" id="clipPath2"><path d="M260 41 C260 47.0751 255.0751 52 249 52 C242.9249 52 238 47.0751 238 41 C238 34.9249 242.9249 30 249 30 C255.0751 30 260 34.9249 260 41 Z" /></clipPath><clipPath clipPathUnits="userSpaceOnUse" id="clipPath3"><path d="M208 41 C208 47.0751 203.0751 52 197 52 C190.9249 52 186 47.0751 186 41 C186 34.9249 190.9249 30 197 30 C203.0751 30 208 34.9249 208 41 Z" /></clipPath><clipPath clipPathUnits="userSpaceOnUse" id="clipPath4"><path d="M156 41 C156 47.0751 151.0751 52 145 52 C138.9249 52 134 47.0751 134 41 C134 34.9249 138.9249 30 145 30 C151.0751 30 156 34.9249 156 41 Z" /></clipPath><clipPath clipPathUnits="userSpaceOnUse" id="clipPath5"><path d="M104 41 C104 47.0751 99.0751 52 93 52 C86.9249 52 82 47.0751 82 41 C82 34.9249 86.9249 30 93 30 C99.0751 30 104 34.9249 104 41 Z" /></clipPath><clipPath clipPathUnits="userSpaceOnUse" id="clipPath6"><path d="M52 41 C52 47.0751 47.0751 52 41 52 C34.9249 52 30 47.0751 30 41 C30 34.9249 34.9249 30 41 30 C47.0751 30 52 34.9249 52 41 Z" /></clipPath></defs><g style="fill:white; text-rendering:optimizeSpeed; stroke:white;"><rect height="82" style="stroke:none;" width="342" x="0" y="0" /></g><g ID="l-1:1,2" style="text-rendering:optimizeSpeed;"><polygon points=" 301 41 249 41" style="fill:none;" /></g><g ID="r-1:1" style="fill:white; text-rendering:optimizeSpeed; stroke:white;" wurcs_mono_id="1"><circle cx="301" cy="41" r="11" style="clip-path:url(#clipPath1); stroke:none;" /><rect height="22" style="clip-path:url(#clipPath1); fill:rgb(0,144,188); stroke:none;" width="22" x="290" y="30" /><rect height="22" style="clip-path:url(#clipPath1); fill:none; stroke:black;" width="22" x="290" y="30" /><circle cx="301" cy="41" r="11" style="fill:none; stroke:black;" /></g><g ID="l-1:2,3" style="text-rendering:optimizeSpeed;"><polygon points=" 249 41 197 41" style="fill:none;" /></g><g ID="r-1:2" style="fill:white; text-rendering:optimizeSpeed; stroke:white;" wurcs_mono_id="2"><circle cx="249" cy="41" r="11" style="clip-path:url(#clipPath2); stroke:none;" /><rect height="22" style="clip-path:url(#clipPath2); fill:rgb(0,144,188); stroke:none;" width="22" x="238" y="30" /><rect height="22" style="clip-path:url(#clipPath2); fill:none; stroke:black;" width="22" x="238" y="30" /><circle cx="249" cy="41" r="11" style="fill:none; stroke:black;" /></g><g ID="l-1:3,4" style="text-rendering:optimizeSpeed;"><polygon points=" 197 41 145 41" style="fill:none;" /></g><g ID="r-1:3" style="fill:white; text-rendering:optimizeSpeed; stroke:white;" wurcs_mono_id="3"><circle cx="197" cy="41" r="11" style="clip-path:url(#clipPath3); stroke:none;" /><rect height="22" style="clip-path:url(#clipPath3); fill:rgb(0,144,188); stroke:none;" width="22" x="186" y="30" /><rect height="22" style="clip-path:url(#clipPath3); fill:none; stroke:black;" width="22" x="186" y="30" /><circle cx="197" cy="41" r="11" style="fill:none; stroke:black;" /></g><g ID="l-1:4,5" style="text-rendering:optimizeSpeed;"><polygon points=" 145 41 93 41" style="fill:none;" /></g><g ID="r-1:4" style="fill:white; text-rendering:optimizeSpeed; stroke:white;" wurcs_mono_id="4"><circle cx="145" cy="41" r="11" style="clip-path:url(#clipPath4); stroke:none;" /><rect height="22" style="clip-path:url(#clipPath4); fill:rgb(0,144,188); stroke:none;" width="22" x="134" y="30" /><rect height="22" style="clip-path:url(#clipPath4); fill:none; stroke:black;" width="22" x="134" y="30" /><circle cx="145" cy="41" r="11" style="fill:none; stroke:black;" /></g><g ID="l-1:5,6" style="text-rendering:optimizeSpeed;"><polygon points=" 93 41 41 41" style="fill:none;" /></g><g ID="r-1:5" style="fill:white; text-rendering:optimizeSpeed; stroke:white;" wurcs_mono_id="5"><circle cx="93" cy="41" r="11" style="clip-path:url(#clipPath5); stroke:none;" /><rect height="22" style="clip-path:url(#clipPath5); fill:rgb(0,144,188); stroke:none;" width="22" x="82" y="30" /><rect height="22" style="clip-path:url(#clipPath5); fill:none; stroke:black;" width="22" x="82" y="30" /><circle cx="93" cy="41" r="11" style="fill:none; stroke:black;" /></g><g ID="r-1:6" style="fill:white; text-rendering:optimizeSpeed; stroke:white;" wurcs_mono_id="6"><circle cx="41" cy="41" r="11" style="clip-path:url(#clipPath6); stroke:none;" /><rect height="22" style="clip-path:url(#clipPath6); fill:rgb(0,144,188); stroke:none;" width="22" x="30" y="30" /><rect height="22" style="clip-path:url(#clipPath6); fill:none; stroke:black;" width="22" x="30" y="30" /><circle cx="41" cy="41" r="11" style="fill:none; stroke:black;" /></g><g ID="li-1:5,6" style="fill:white; text-rendering:optimizeSpeed; font-family:'Serif'; stroke:white;"><rect height="9" style="stroke:none;" width="8" x="70" y="44" /><path d="M74.1875 50.0312 L74.1875 45.375 L71.2031 50.0312 L74.1875 50.0312 ZM76.7656 53 L72.7812 53 L72.7812 52.375 L74.1875 52.375 L74.1875 50.6562 L70.375 50.6562 L70.375 50.0156 L74.2031 44.0938 L75.3594 44.0938 L75.3594 50.0312 L77.0312 50.0312 L77.0312 50.6562 L75.3594 50.6562 L75.3594 52.375 L76.7656 52.375 L76.7656 53 Z" style="fill:black; stroke:none;" /><rect height="8" style="stroke:none;" width="8" x="56" y="45" /><path d="M61.1875 51.4688 L60.9531 52.1094 Q60.7656 52.625 60.2031 52.9375 Q59.8438 53.1562 59.2031 53.1406 Q58.0469 53.1406 57.3281 52.2344 Q56.5938 51.3281 56.5938 49.8594 Q56.5938 48.4219 57.3281 47.4844 Q58.0156 46.5938 59.4531 46.6094 Q60.4531 46.6094 60.9531 47 Q61.4062 47.3438 61.5781 48.0938 L61.625 48.3125 L61.8438 47.6719 Q62.0625 47.0469 62.6562 46.75 L63.25 46.75 L63.25 47.0938 Q62.6875 47.2656 62.5 47.8125 L61.8906 49.4844 L62.2969 51.2812 Q62.5 52.2031 62.7344 52.2969 Q63.0469 52.4375 63.7812 52 L63.7812 52.7188 Q62.5938 53.4062 61.75 52.6875 Q61.375 52.3594 61.2656 51.875 L61.1875 51.4688 ZM60.9219 50.3125 L60.5625 48.5938 Q60.2656 47.2188 59.4688 47.2188 Q58.7969 47.2031 58.2812 47.9375 Q57.8594 48.5156 57.8594 49.875 Q57.8594 51.1719 58.2812 51.8281 Q58.75 52.5469 59.5312 52.5 Q60.2031 52.4375 60.6875 51 L60.9219 50.3125 Z" style="fill:black; stroke:none;" /></g><g ID="li-1:4,5" style="fill:white; text-rendering:optimizeSpeed; font-family:'Serif'; stroke:white;"><rect height="9" style="stroke:none;" width="8" x="122" y="44" /><path d="M126.1875 50.0312 L126.1875 45.375 L123.2031 50.0312 L126.1875 50.0312 ZM128.7656 53 L124.7812 53 L124.7812 52.375 L126.1875 52.375 L126.1875 50.6562 L122.375 50.6562 L122.375 50.0156 L126.2031 44.0938 L127.3594 44.0938 L127.3594 50.0312 L129.0312 50.0312 L129.0312 50.6562 L127.3594 50.6562 L127.3594 52.375 L128.7656 52.375 L128.7656 53 Z" style="fill:black; stroke:none;" /><rect height="13" style="stroke:none;" width="7" x="108" y="42" /><path d="M109.8281 54.25 Q110.2969 54.5938 111.1719 54.5938 Q112.0625 54.5938 112.5781 54.0703 Q113.0938 53.5469 113.0938 52.6562 Q113.0938 51.4219 112.5625 50.8906 Q112.0156 50.3594 111 50.3594 L110.4375 50.3594 L110.4375 49.7188 L110.7344 49.7188 Q111.4844 49.7188 112 49.2969 Q112.4219 48.9531 112.4219 48.0156 Q112.4219 47.6094 112.1406 47.1406 Q111.6875 46.375 111.1562 46.3906 Q109.8281 46.4375 109.8281 48.7812 L109.8281 54.25 ZM108.75 57.5 L108.75 48.7812 Q108.75 46.3281 110.0781 46 Q110.7656 45.8125 111.25 45.8125 Q112.3438 45.8125 113.0469 46.6719 Q113.6094 47.3594 113.6094 47.9375 Q113.6094 48.7812 113.2031 49.2656 Q112.7969 49.75 112.0625 49.9844 Q113.1406 50.1406 113.75 50.7812 Q114.3281 51.4062 114.3281 52.6328 Q114.3281 53.8594 113.5078 54.5156 Q112.6875 55.1719 111.1406 55.1719 Q110.1875 55.1719 109.8281 55.0312 L109.8281 57.5 L108.75 57.5 Z" style="fill:black; stroke:none;" /></g><g ID="li-1:3,4" style="fill:white; text-rendering:optimizeSpeed; font-family:'Serif'; stroke:white;"><rect height="9" style="stroke:none;" width="8" x="174" y="44" /><path d="M178.1875 50.0312 L178.1875 45.375 L175.2031 50.0312 L178.1875 50.0312 ZM180.7656 53 L176.7812 53 L176.7812 52.375 L178.1875 52.375 L178.1875 50.6562 L174.375 50.6562 L174.375 50.0156 L178.2031 44.0938 L179.3594 44.0938 L179.3594 50.0312 L181.0312 50.0312 L181.0312 50.6562 L179.3594 50.6562 L179.3594 52.375 L180.7656 52.375 L180.7656 53 Z" style="fill:black; stroke:none;" /><rect height="8" style="stroke:none;" width="8" x="160" y="45" /><path d="M165.1875 51.4688 L164.9531 52.1094 Q164.7656 52.625 164.2031 52.9375 Q163.8438 53.1562 163.2031 53.1406 Q162.0469 53.1406 161.3281 52.2344 Q160.5938 51.3281 160.5938 49.8594 Q160.5938 48.4219 161.3281 47.4844 Q162.0156 46.5938 163.4531 46.6094 Q164.4531 46.6094 164.9531 47 Q165.4062 47.3438 165.5781 48.0938 L165.625 48.3125 L165.8438 47.6719 Q166.0625 47.0469 166.6562 46.75 L167.25 46.75 L167.25 47.0938 Q166.6875 47.2656 166.5 47.8125 L165.8906 49.4844 L166.2969 51.2812 Q166.5 52.2031 166.7344 52.2969 Q167.0469 52.4375 167.7812 52 L167.7812 52.7188 Q166.5938 53.4062 165.75 52.6875 Q165.375 52.3594 165.2656 51.875 L165.1875 51.4688 ZM164.9219 50.3125 L164.5625 48.5938 Q164.2656 47.2188 163.4688 47.2188 Q162.7969 47.2031 162.2812 47.9375 Q161.8594 48.5156 161.8594 49.875 Q161.8594 51.1719 162.2812 51.8281 Q162.75 52.5469 163.5312 52.5 Q164.2031 52.4375 164.6875 51 L164.9219 50.3125 Z" style="fill:black; stroke:none;" /></g><g ID="li-1:2,3" style="fill:white; text-rendering:optimizeSpeed; font-family:'Serif'; stroke:white;"><rect height="9" style="stroke:none;" width="8" x="226" y="44" /><path d="M230.1875 50.0312 L230.1875 45.375 L227.2031 50.0312 L230.1875 50.0312 ZM232.7656 53 L228.7812 53 L228.7812 52.375 L230.1875 52.375 L230.1875 50.6562 L226.375 50.6562 L226.375 50.0156 L230.2031 44.0938 L231.3594 44.0938 L231.3594 50.0312 L233.0312 50.0312 L233.0312 50.6562 L231.3594 50.6562 L231.3594 52.375 L232.7656 52.375 L232.7656 53 Z" style="fill:black; stroke:none;" /><rect height="8" style="stroke:none;" width="8" x="212" y="45" /><path d="M217.1875 51.4688 L216.9531 52.1094 Q216.7656 52.625 216.2031 52.9375 Q215.8438 53.1562 215.2031 53.1406 Q214.0469 53.1406 213.3281 52.2344 Q212.5938 51.3281 212.5938 49.8594 Q212.5938 48.4219 213.3281 47.4844 Q214.0156 46.5938 215.4531 46.6094 Q216.4531 46.6094 216.9531 47 Q217.4062 47.3438 217.5781 48.0938 L217.625 48.3125 L217.8438 47.6719 Q218.0625 47.0469 218.6562 46.75 L219.25 46.75 L219.25 47.0938 Q218.6875 47.2656 218.5 47.8125 L217.8906 49.4844 L218.2969 51.2812 Q218.5 52.2031 218.7344 52.2969 Q219.0469 52.4375 219.7812 52 L219.7812 52.7188 Q218.5938 53.4062 217.75 52.6875 Q217.375 52.3594 217.2656 51.875 L217.1875 51.4688 ZM216.9219 50.3125 L216.5625 48.5938 Q216.2656 47.2188 215.4688 47.2188 Q214.7969 47.2031 214.2812 47.9375 Q213.8594 48.5156 213.8594 49.875 Q213.8594 51.1719 214.2812 51.8281 Q214.75 52.5469 215.5312 52.5 Q216.2031 52.4375 216.6875 51 L216.9219 50.3125 Z" style="fill:black; stroke:none;" /></g><g ID="li-1:1,2" style="fill:white; text-rendering:optimizeSpeed; font-family:'Serif'; stroke:white;"><rect height="9" style="stroke:none;" width="8" x="278" y="44" /><path d="M282.1875 50.0312 L282.1875 45.375 L279.2031 50.0312 L282.1875 50.0312 ZM284.7656 53 L280.7812 53 L280.7812 52.375 L282.1875 52.375 L282.1875 50.6562 L278.375 50.6562 L278.375 50.0156 L282.2031 44.0938 L283.3594 44.0938 L283.3594 50.0312 L285.0312 50.0312 L285.0312 50.6562 L283.3594 50.6562 L283.3594 52.375 L284.7656 52.375 L284.7656 53 Z" style="fill:black; stroke:none;" /><rect height="8" style="stroke:none;" width="8" x="264" y="45" /><path d="M269.1875 51.4688 L268.9531 52.1094 Q268.7656 52.625 268.2031 52.9375 Q267.8438 53.1562 267.2031 53.1406 Q266.0469 53.1406 265.3281 52.2344 Q264.5938 51.3281 264.5938 49.8594 Q264.5938 48.4219 265.3281 47.4844 Q266.0156 46.5938 267.4531 46.6094 Q268.4531 46.6094 268.9531 47 Q269.4062 47.3438 269.5781 48.0938 L269.625 48.3125 L269.8438 47.6719 Q270.0625 47.0469 270.6562 46.75 L271.25 46.75 L271.25 47.0938 Q270.6875 47.2656 270.5 47.8125 L269.8906 49.4844 L270.2969 51.2812 Q270.5 52.2031 270.7344 52.2969 Q271.0469 52.4375 271.7812 52 L271.7812 52.7188 Q270.5938 53.4062 269.75 52.6875 Q269.375 52.3594 269.2656 51.875 L269.1875 51.4688 ZM268.9219 50.3125 L268.5625 48.5938 Q268.2656 47.2188 267.4688 47.2188 Q266.7969 47.2031 266.2812 47.9375 Q265.8594 48.5156 265.8594 49.875 Q265.8594 51.1719 266.2812 51.8281 Q266.75 52.5469 267.5312 52.5 Q268.2031 52.4375 268.6875 51 L268.9219 50.3125 Z" style="fill:black; stroke:none;" /></g></g></svg>