<svg xmlns="http://www.w3.org/2000/svg" style="fill-opacity:1; color-rendering:auto; color-interpolation:auto; text-rendering:auto; stroke:black; stroke-linecap:square; stroke-miterlimit:10; shape-rendering:auto; stroke-opacity:1; fill:black; stroke-dasharray:none; font-weight:normal; stroke-width:1; font-family:'Dialog'; font-style:normal; stroke-linejoin:miter; font-size:12px; stroke-dashoffset:0; image-rendering:auto;"><defs id="genericDefs" /><g><defs id="defs1"><clipPath clipPathUnits="userSpaceOnUse" id="clipPath1"><path d="M208 67 C208 73.0751 203.0751 78 197 78 C190.9249 78 186 73.0751 186 67 C186 60.9249 190.9249 56 197 56 C203.0751 56 208 60.9249 208 67 Z" /></clipPath><clipPath clipPathUnits="userSpaceOnUse" id="clipPath2"><path d="M134 56 L156 56 L156 78 L134 78 L134 56 Z" /></clipPath><clipPath clipPathUnits="userSpaceOnUse" id="clipPath3"><path d="M104 93 C104 99.0751 99.0751 104 93 104 C86.9249 104 82 99.0751 82 93 C82 86.9249 86.9249 82 93 82 C99.0751 82 104 86.9249 104 93 Z" /></clipPath><clipPath clipPathUnits="userSpaceOnUse" id="clipPath4"><path d="M30 82 L52 82 L52 104 L30 104 L30 82 Z" /></clipPath><clipPath clipPathUnits="userSpaceOnUse" id="clipPath5"><path d="M104 41 C104 47.0751 99.0751 52 93 52 C86.9249 52 82 47.0751 82 41 C82 34.9249 86.9249 30 93 30 C99.0751 30 104 34.9249 104 41 Z" /></clipPath></defs><g style="fill:white; text-rendering:optimizeSpeed; stroke:white;"><rect height="134" style="stroke:none;" width="238" x="0" y="0" /></g><g ID="l-1:1,2" style="text-rendering:optimizeSpeed;"><polygon points=" 197 67 145 67" style="fill:none;" /></g><g ID="r-1:1" style="fill:white; text-rendering:optimizeSpeed; stroke:white;" wurcs_mono_id="1"><circle cx="197" cy="67" r="11" style="clip-path:url(#clipPath1); stroke:none;" /><rect height="22" style="clip-path:url(#clipPath1); fill:rgb(255,212,0); stroke:none;" width="22" x="186" y="56" /><rect height="22" style="clip-path:url(#clipPath1); fill:none; stroke:black;" width="22" x="186" y="56" /><circle cx="197" cy="67" r="11" style="fill:none; stroke:black;" /></g><g style="font-style:italic; text-rendering:optimizeSpeed; font-size:10px; font-family:'SansSerif';"><path d="M198.0938 64.1562 Q197.375 64.1562 196.8359 64.7188 Q196.2969 65.2812 196.0781 66.2656 Q195.875 67.25 196.1719 67.8125 Q196.4688 68.375 197.2031 68.375 Q197.9219 68.375 198.4609 67.8125 Q199 67.25 199.2031 66.2656 Q199.4062 65.2969 199.1094 64.7266 Q198.8125 64.1562 198.0938 64.1562 ZM198.25 63.4062 Q199.4219 63.4062 199.9297 64.1641 Q200.4375 64.9219 200.1562 66.2656 Q199.875 67.6094 199.0391 68.375 Q198.2031 69.1406 197.0312 69.1406 Q195.8594 69.1406 195.3516 68.375 Q194.8438 67.6094 195.125 66.2656 Q195.4062 64.9219 196.2422 64.1641 Q197.0781 63.4062 198.25 63.4062 Z" style="stroke:none;" /></g><g ID="l-1:2,3" style="text-rendering:optimizeSpeed;"><polygon points=" 145 67 93 93" style="fill:none;" /></g><g ID="l-1:2,4" style="text-rendering:optimizeSpeed;"><polygon points=" 145 67 93 41" style="fill:none;" /></g><g ID="r-1:2" style="fill:white; text-rendering:optimizeSpeed; stroke:white;" wurcs_mono_id="2"><rect height="22" style="clip-path:url(#clipPath2); stroke:none;" width="22" x="134" y="56" /><rect height="22" style="clip-path:url(#clipPath2); fill:rgb(0,144,188); stroke:none;" width="22" x="134" y="56" /><rect height="22" style="clip-path:url(#clipPath2); fill:none; stroke:black;" width="22" x="134" y="56" /><rect height="22" style="fill:none; stroke:black;" width="22" x="134" y="56" /></g><g ID="l-1:3,5" style="text-rendering:optimizeSpeed;"><polygon points=" 93 93 41 93" style="fill:none;" /></g><g ID="r-1:3" style="fill:white; text-rendering:optimizeSpeed; stroke:white;" wurcs_mono_id="3"><circle cx="93" cy="93" r="11" style="clip-path:url(#clipPath3); stroke:none;" /><rect height="22" style="clip-path:url(#clipPath3); fill:rgb(255,212,0); stroke:none;" width="22" x="82" y="82" /><rect height="22" style="clip-path:url(#clipPath3); fill:none; stroke:black;" width="22" x="82" y="82" /><circle cx="93" cy="93" r="11" style="fill:none; stroke:black;" /></g><g ID="r-1:5" style="fill:white; text-rendering:optimizeSpeed; stroke:white;" wurcs_mono_id="4"><rect height="22" style="clip-path:url(#clipPath4); stroke:none;" width="22" x="30" y="82" /><rect height="22" style="clip-path:url(#clipPath4); fill:rgb(0,144,188); stroke:none;" width="22" x="30" y="82" /><rect height="22" style="clip-path:url(#clipPath4); fill:none; stroke:black;" width="22" x="30" y="82" /><rect height="22" style="fill:none; stroke:black;" width="22" x="30" y="82" /></g><g ID="li-1:3,5" style="fill:white; text-rendering:optimizeSpeed; font-family:'Serif'; stroke:white;"><rect height="10" style="stroke:none;" width="7" x="70" y="96" /><path d="M71.1719 97.625 Q71.8594 97.3594 72.4844 97.2266 Q73.1094 97.0938 73.6562 97.0938 Q74.9531 97.0938 75.6719 97.6484 Q76.3906 98.2031 76.3906 99.1875 Q76.3906 99.9688 75.8906 100.5 Q75.3906 101.0312 74.4844 101.2188 Q75.5625 101.375 76.1562 102.0078 Q76.75 102.6406 76.75 103.6406 Q76.75 104.8594 75.9219 105.5156 Q75.0938 106.1719 73.5469 106.1719 Q72.8594 106.1719 72.2109 106.0234 Q71.5625 105.875 70.9219 105.5781 L70.9219 103.875 L71.5781 103.875 Q71.625 104.7188 72.1406 105.1562 Q72.6562 105.5938 73.5781 105.5938 Q74.4688 105.5938 74.9922 105.0703 Q75.5156 104.5469 75.5156 103.6562 Q75.5156 102.625 74.9766 102.0938 Q74.4375 101.5625 73.4062 101.5625 L72.8594 101.5625 L72.8594 100.9531 L73.1406 100.9531 Q74.1719 100.9531 74.6875 100.5312 Q75.2031 100.1094 75.2031 99.25 Q75.2031 98.4844 74.7812 98.0781 Q74.3594 97.6719 73.5625 97.6719 Q72.7656 97.6719 72.3359 98.0469 Q71.9062 98.4219 71.8281 99.1562 L71.1719 99.1562 L71.1719 97.625 Z" style="fill:black; stroke:none;" /><rect height="13" style="stroke:none;" width="7" x="56" y="94" /><path d="M57.8281 106.25 Q58.2969 106.5938 59.1719 106.5938 Q60.0625 106.5938 60.5781 106.0703 Q61.0938 105.5469 61.0938 104.6562 Q61.0938 103.4219 60.5625 102.8906 Q60.0156 102.3594 59 102.3594 L58.4375 102.3594 L58.4375 101.7188 L58.7344 101.7188 Q59.4844 101.7188 60 101.2969 Q60.4219 100.9531 60.4219 100.0156 Q60.4219 99.6094 60.1406 99.1406 Q59.6875 98.375 59.1562 98.3906 Q57.8281 98.4375 57.8281 100.7812 L57.8281 106.25 ZM56.75 109.5 L56.75 100.7812 Q56.75 98.3281 58.0781 98 Q58.7656 97.8125 59.25 97.8125 Q60.3438 97.8125 61.0469 98.6719 Q61.6094 99.3594 61.6094 99.9375 Q61.6094 100.7812 61.2031 101.2656 Q60.7969 101.75 60.0625 101.9844 Q61.1406 102.1406 61.75 102.7812 Q62.3281 103.4062 62.3281 104.6328 Q62.3281 105.8594 61.5078 106.5156 Q60.6875 107.1719 59.1406 107.1719 Q58.1875 107.1719 57.8281 107.0312 L57.8281 109.5 L56.75 109.5 Z" style="fill:black; stroke:none;" /></g><g ID="r-1:4" style="fill:white; text-rendering:optimizeSpeed; stroke:white;" wurcs_mono_id="5"><circle cx="93" cy="41" r="11" style="clip-path:url(#clipPath5); stroke:none;" /><rect height="22" style="clip-path:url(#clipPath5); fill:rgb(255,212,0); stroke:none;" width="22" x="82" y="30" /><rect height="22" style="clip-path:url(#clipPath5); fill:none; stroke:black;" width="22" x="82" y="30" /><circle cx="93" cy="41" r="11" style="fill:none; stroke:black;" /></g><g ID="li-1:2,3" style="fill:white; text-rendering:optimizeSpeed; font-family:'Serif'; stroke:white;"><rect height="9" style="stroke:none;" width="8" x="126" y="78" /><path d="M130.1875 84.0312 L130.1875 79.375 L127.2031 84.0312 L130.1875 84.0312 ZM132.7656 87 L128.7812 87 L128.7812 86.375 L130.1875 86.375 L130.1875 84.6562 L126.375 84.6562 L126.375 84.0156 L130.2031 78.0938 L131.3594 78.0938 L131.3594 84.0312 L133.0312 84.0312 L133.0312 84.6562 L131.3594 84.6562 L131.3594 86.375 L132.7656 86.375 L132.7656 87 Z" style="fill:black; stroke:none;" /><rect height="13" style="stroke:none;" width="7" x="111" y="84" /><path d="M112.8281 96.25 Q113.2969 96.5938 114.1719 96.5938 Q115.0625 96.5938 115.5781 96.0703 Q116.0938 95.5469 116.0938 94.6562 Q116.0938 93.4219 115.5625 92.8906 Q115.0156 92.3594 114 92.3594 L113.4375 92.3594 L113.4375 91.7188 L113.7344 91.7188 Q114.4844 91.7188 115 91.2969 Q115.4219 90.9531 115.4219 90.0156 Q115.4219 89.6094 115.1406 89.1406 Q114.6875 88.375 114.1562 88.3906 Q112.8281 88.4375 112.8281 90.7812 L112.8281 96.25 ZM111.75 99.5 L111.75 90.7812 Q111.75 88.3281 113.0781 88 Q113.7656 87.8125 114.25 87.8125 Q115.3438 87.8125 116.0469 88.6719 Q116.6094 89.3594 116.6094 89.9375 Q116.6094 90.7812 116.2031 91.2656 Q115.7969 91.75 115.0625 91.9844 Q116.1406 92.1406 116.75 92.7812 Q117.3281 93.4062 117.3281 94.6328 Q117.3281 95.8594 116.5078 96.5156 Q115.6875 97.1719 114.1406 97.1719 Q113.1875 97.1719 112.8281 97.0312 L112.8281 99.5 L111.75 99.5 Z" style="fill:black; stroke:none;" /></g><g ID="li-1:2,4" style="fill:white; text-rendering:optimizeSpeed; font-family:'Serif'; stroke:white;"><rect height="10" style="stroke:none;" width="7" x="119" y="60" /><path d="M122.9219 69.5938 Q123.75 69.5938 124.1953 68.9844 Q124.6406 68.375 124.6406 67.2344 Q124.6406 66.1094 124.1953 65.5 Q123.75 64.8906 122.9219 64.8906 Q122.0938 64.8906 121.6484 65.4766 Q121.2031 66.0625 121.2031 67.1719 Q121.2031 68.3281 121.6484 68.9609 Q122.0938 69.5938 122.9219 69.5938 ZM121.0156 65.1875 Q121.4219 64.75 121.9219 64.5312 Q122.4219 64.3125 123.0625 64.3125 Q124.3594 64.3125 125.1172 65.0938 Q125.875 65.875 125.875 67.2344 Q125.875 68.5625 125.0625 69.3672 Q124.25 70.1719 122.875 70.1719 Q121.3906 70.1719 120.5938 69.0625 Q119.7969 67.9531 119.7969 65.9062 Q119.7969 63.6094 120.7422 62.3516 Q121.6875 61.0938 123.4062 61.0938 Q123.875 61.0938 124.3828 61.1797 Q124.8906 61.2656 125.4219 61.4375 L125.4219 62.8906 L124.7656 62.8906 Q124.6875 62.2969 124.3047 61.9844 Q123.9219 61.6719 123.2812 61.6719 Q122.1406 61.6719 121.5859 62.5312 Q121.0312 63.3906 121.0156 65.1875 Z" style="fill:black; stroke:none;" /><rect height="8" style="stroke:none;" width="8" x="103" y="53" /><path d="M108.1875 59.4688 L107.9531 60.1094 Q107.7656 60.625 107.2031 60.9375 Q106.8438 61.1562 106.2031 61.1406 Q105.0469 61.1406 104.3281 60.2344 Q103.5938 59.3281 103.5938 57.8594 Q103.5938 56.4219 104.3281 55.4844 Q105.0156 54.5938 106.4531 54.6094 Q107.4531 54.6094 107.9531 55 Q108.4062 55.3438 108.5781 56.0938 L108.625 56.3125 L108.8438 55.6719 Q109.0625 55.0469 109.6562 54.75 L110.25 54.75 L110.25 55.0938 Q109.6875 55.2656 109.5 55.8125 L108.8906 57.4844 L109.2969 59.2812 Q109.5 60.2031 109.7344 60.2969 Q110.0469 60.4375 110.7812 60 L110.7812 60.7188 Q109.5938 61.4062 108.75 60.6875 Q108.375 60.3594 108.2656 59.875 L108.1875 59.4688 ZM107.9219 58.3125 L107.5625 56.5938 Q107.2656 55.2188 106.4688 55.2188 Q105.7969 55.2031 105.2812 55.9375 Q104.8594 56.5156 104.8594 57.875 Q104.8594 59.1719 105.2812 59.8281 Q105.75 60.5469 106.5312 60.5 Q107.2031 60.4375 107.6875 59 L107.9219 58.3125 Z" style="fill:black; stroke:none;" /></g><g ID="li-1:1,2" style="fill:white; text-rendering:optimizeSpeed; font-family:'Serif'; stroke:white;"><rect height="10" style="stroke:none;" width="7" x="174" y="70" /><path d="M175.1719 71.625 Q175.8594 71.3594 176.4844 71.2266 Q177.1094 71.0938 177.6562 71.0938 Q178.9531 71.0938 179.6719 71.6484 Q180.3906 72.2031 180.3906 73.1875 Q180.3906 73.9688 179.8906 74.5 Q179.3906 75.0312 178.4844 75.2188 Q179.5625 75.375 180.1562 76.0078 Q180.75 76.6406 180.75 77.6406 Q180.75 78.8594 179.9219 79.5156 Q179.0938 80.1719 177.5469 80.1719 Q176.8594 80.1719 176.2109 80.0234 Q175.5625 79.875 174.9219 79.5781 L174.9219 77.875 L175.5781 77.875 Q175.625 78.7188 176.1406 79.1562 Q176.6562 79.5938 177.5781 79.5938 Q178.4688 79.5938 178.9922 79.0703 Q179.5156 78.5469 179.5156 77.6562 Q179.5156 76.625 178.9766 76.0938 Q178.4375 75.5625 177.4062 75.5625 L176.8594 75.5625 L176.8594 74.9531 L177.1406 74.9531 Q178.1719 74.9531 178.6875 74.5312 Q179.2031 74.1094 179.2031 73.25 Q179.2031 72.4844 178.7812 72.0781 Q178.3594 71.6719 177.5625 71.6719 Q176.7656 71.6719 176.3359 72.0469 Q175.9062 72.4219 175.8281 73.1562 L175.1719 73.1562 L175.1719 71.625 Z" style="fill:black; stroke:none;" /><rect height="13" style="stroke:none;" width="7" x="160" y="68" /><path d="M161.8281 80.25 Q162.2969 80.5938 163.1719 80.5938 Q164.0625 80.5938 164.5781 80.0703 Q165.0938 79.5469 165.0938 78.6562 Q165.0938 77.4219 164.5625 76.8906 Q164.0156 76.3594 163 76.3594 L162.4375 76.3594 L162.4375 75.7188 L162.7344 75.7188 Q163.4844 75.7188 164 75.2969 Q164.4219 74.9531 164.4219 74.0156 Q164.4219 73.6094 164.1406 73.1406 Q163.6875 72.375 163.1562 72.3906 Q161.8281 72.4375 161.8281 74.7812 L161.8281 80.25 ZM160.75 83.5 L160.75 74.7812 Q160.75 72.3281 162.0781 72 Q162.7656 71.8125 163.25 71.8125 Q164.3438 71.8125 165.0469 72.6719 Q165.6094 73.3594 165.6094 73.9375 Q165.6094 74.7812 165.2031 75.2656 Q164.7969 75.75 164.0625 75.9844 Q165.1406 76.1406 165.75 76.7812 Q166.3281 77.4062 166.3281 78.6328 Q166.3281 79.8594 165.5078 80.5156 Q164.6875 81.1719 163.1406 81.1719 Q162.1875 81.1719 161.8281 81.0312 L161.8281 83.5 L160.75 83.5 Z" style="fill:black; stroke:none;" /></g></g></svg>