<svg xmlns="http://www.w3.org/2000/svg" style="fill-opacity:1; color-rendering:auto; color-interpolation:auto; text-rendering:auto; stroke:black; stroke-linecap:square; stroke-miterlimit:10; shape-rendering:auto; stroke-opacity:1; fill:black; stroke-dasharray:none; font-weight:normal; stroke-width:1; font-family:'Dialog'; font-style:normal; stroke-linejoin:miter; font-size:12px; stroke-dashoffset:0; image-rendering:auto;"><defs id="genericDefs" /><g><defs id="defs1"><clipPath clipPathUnits="userSpaceOnUse" id="clipPath1"><path d="M572 86 C572 92.0751 567.0751 97 561 97 C554.9249 97 550 92.0751 550 86 C550 79.9249 554.9249 75 561 75 C567.0751 75 572 79.9249 572 86 Z" /></clipPath><clipPath clipPathUnits="userSpaceOnUse" id="clipPath2"><path d="M520 86 C520 92.0751 515.0751 97 509 97 C502.9249 97 498 92.0751 498 86 C498 79.9249 502.9249 75 509 75 C515.0751 75 520 79.9249 520 86 Z" /></clipPath><clipPath clipPathUnits="userSpaceOnUse" id="clipPath3"><path d="M446 75 L468 75 L468 97 L446 97 L446 75 Z" /></clipPath><clipPath clipPathUnits="userSpaceOnUse" id="clipPath4"><path d="M416 86 C416 92.0751 411.0751 97 405 97 C398.9249 97 394 92.0751 394 86 C394 79.9249 398.9249 75 405 75 C411.0751 75 416 79.9249 416 86 Z" /></clipPath><clipPath clipPathUnits="userSpaceOnUse" id="clipPath5"><path d="M342 121 L364 121 L364 143 L342 143 L342 121 Z" /></clipPath><clipPath clipPathUnits="userSpaceOnUse" id="clipPath6"><path d="M312 132 C312 138.0751 307.0751 143 301 143 C294.9249 143 290 138.0751 290 132 C290 125.9249 294.9249 121 301 121 C307.0751 121 312 125.9249 312 132 Z" /></clipPath><clipPath clipPathUnits="userSpaceOnUse" id="clipPath7"><path d="M238 160 L260 160 L260 182 L238 182 L238 160 Z" /></clipPath><clipPath clipPathUnits="userSpaceOnUse" id="clipPath8"><path d="M208 171 C208 177.0751 203.0751 182 197 182 C190.9249 182 186 177.0751 186 171 C186 164.9249 190.9249 160 197 160 C203.0751 160 208 164.9249 208 171 Z" /></clipPath><clipPath clipPathUnits="userSpaceOnUse" id="clipPath9"><path d="M134 186 L156 186 L156 208 L134 208 L134 186 Z" /></clipPath><clipPath clipPathUnits="userSpaceOnUse" id="clipPath10"><path d="M104 197 C104 203.0751 99.0751 208 93 208 C86.9249 208 82 203.0751 82 197 C82 190.9249 86.9249 186 93 186 C99.0751 186 104 190.9249 104 197 Z" /></clipPath><clipPath clipPathUnits="userSpaceOnUse" id="clipPath11"><path d="M41 186 L52 197 L41 208 L30 197 Z" style="fill-rule:evenodd;" /></clipPath><clipPath clipPathUnits="userSpaceOnUse" id="clipPath12"><path d="M134 134 L156 134 L156 156 L134 156 L134 134 Z" /></clipPath><clipPath clipPathUnits="userSpaceOnUse" id="clipPath13"><path d="M104 145 C104 151.0751 99.0751 156 93 156 C86.9249 156 82 151.0751 82 145 C82 138.9249 86.9249 134 93 134 C99.0751 134 104 138.9249 104 145 Z" /></clipPath><clipPath clipPathUnits="userSpaceOnUse" id="clipPath14"><path d="M41 134 L52 145 L41 156 L30 145 Z" style="fill-rule:evenodd;" /></clipPath><clipPath clipPathUnits="userSpaceOnUse" id="clipPath15"><path d="M238 82 L260 82 L260 104 L238 104 L238 82 Z" /></clipPath><clipPath clipPathUnits="userSpaceOnUse" id="clipPath16"><path d="M208 93 C208 99.0751 203.0751 104 197 104 C190.9249 104 186 99.0751 186 93 C186 86.9249 190.9249 82 197 82 C203.0751 82 208 86.9249 208 93 Z" /></clipPath><clipPath clipPathUnits="userSpaceOnUse" id="clipPath17"><path d="M145 82 L156 93 L145 104 L134 93 Z" style="fill-rule:evenodd;" /></clipPath><clipPath clipPathUnits="userSpaceOnUse" id="clipPath18"><path d="M342 30 L364 30 L364 52 L342 52 L342 30 Z" /></clipPath><clipPath clipPathUnits="userSpaceOnUse" id="clipPath19"><path d="M312 41 C312 47.0751 307.0751 52 301 52 C294.9249 52 290 47.0751 290 41 C290 34.9249 294.9249 30 301 30 C307.0751 30 312 34.9249 312 41 Z" /></clipPath><clipPath clipPathUnits="userSpaceOnUse" id="clipPath20"><path d="M249 30 L260 41 L249 52 L238 41 Z" style="fill-rule:evenodd;" /></clipPath></defs><g style="fill:white; text-rendering:optimizeSpeed; stroke:white;"><rect height="238" style="stroke:none;" width="602" x="0" y="0" /></g><g ID="l-1:1,2" style="text-rendering:optimizeSpeed;"><polygon points=" 561 86 509 86" style="fill:none;" /></g><g ID="r-1:1" style="fill:white; text-rendering:optimizeSpeed; stroke:white;" wurcs_mono_id="1"><circle cx="561" cy="86" r="11" style="clip-path:url(#clipPath1); stroke:none;" /><rect height="22" style="clip-path:url(#clipPath1); fill:rgb(0,144,188); stroke:none;" width="22" x="550" y="75" /><rect height="22" style="clip-path:url(#clipPath1); fill:none; stroke:black;" width="22" x="550" y="75" /><circle cx="561" cy="86" r="11" style="fill:none; stroke:black;" /></g><g ID="l-1:2,3" style="text-rendering:optimizeSpeed;"><polygon points=" 509 86 457 86" style="fill:none;" /></g><g ID="r-1:2" style="fill:white; text-rendering:optimizeSpeed; stroke:white;" wurcs_mono_id="2"><circle cx="509" cy="86" r="11" style="clip-path:url(#clipPath2); stroke:none;" /><rect height="22" style="clip-path:url(#clipPath2); fill:rgb(255,212,0); stroke:none;" width="22" x="498" y="75" /><rect height="22" style="clip-path:url(#clipPath2); fill:none; stroke:black;" width="22" x="498" y="75" /><circle cx="509" cy="86" r="11" style="fill:none; stroke:black;" /></g><g ID="l-1:3,4" style="text-rendering:optimizeSpeed;"><polygon points=" 457 86 405 86" style="fill:none;" /></g><g ID="r-1:3" style="fill:white; text-rendering:optimizeSpeed; stroke:white;" wurcs_mono_id="3"><rect height="22" style="clip-path:url(#clipPath3); stroke:none;" width="22" x="446" y="75" /><rect height="22" style="clip-path:url(#clipPath3); fill:rgb(0,144,188); stroke:none;" width="22" x="446" y="75" /><rect height="22" style="clip-path:url(#clipPath3); fill:none; stroke:black;" width="22" x="446" y="75" /><rect height="22" style="fill:none; stroke:black;" width="22" x="446" y="75" /></g><g ID="l-1:4,5" style="text-rendering:optimizeSpeed;"><polygon points=" 405 86 353 132" style="fill:none;" /></g><g ID="l-1:4,6" style="text-rendering:optimizeSpeed;"><polygon points=" 405 86 353 41" style="fill:none;" /></g><g ID="r-1:4" style="fill:white; text-rendering:optimizeSpeed; stroke:white;" wurcs_mono_id="4"><circle cx="405" cy="86" r="11" style="clip-path:url(#clipPath4); stroke:none;" /><rect height="22" style="clip-path:url(#clipPath4); fill:rgb(255,212,0); stroke:none;" width="22" x="394" y="75" /><rect height="22" style="clip-path:url(#clipPath4); fill:none; stroke:black;" width="22" x="394" y="75" /><circle cx="405" cy="86" r="11" style="fill:none; stroke:black;" /></g><g ID="l-1:5,7" style="text-rendering:optimizeSpeed;"><polygon points=" 353 132 301 132" style="fill:none;" /></g><g ID="r-1:5" style="fill:white; text-rendering:optimizeSpeed; stroke:white;" wurcs_mono_id="5"><rect height="22" style="clip-path:url(#clipPath5); stroke:none;" width="22" x="342" y="121" /><rect height="22" style="clip-path:url(#clipPath5); fill:rgb(0,144,188); stroke:none;" width="22" x="342" y="121" /><rect height="22" style="clip-path:url(#clipPath5); fill:none; stroke:black;" width="22" x="342" y="121" /><rect height="22" style="fill:none; stroke:black;" width="22" x="342" y="121" /></g><g ID="l-1:7,8" style="text-rendering:optimizeSpeed;"><polygon points=" 301 132 249 171" style="fill:none;" /></g><g ID="l-1:7,9" style="text-rendering:optimizeSpeed;"><polygon points=" 301 132 249 93" style="fill:none;" /></g><g ID="r-1:7" style="fill:white; text-rendering:optimizeSpeed; stroke:white;" wurcs_mono_id="6"><circle cx="301" cy="132" r="11" style="clip-path:url(#clipPath6); stroke:none;" /><rect height="22" style="clip-path:url(#clipPath6); fill:rgb(255,212,0); stroke:none;" width="22" x="290" y="121" /><rect height="22" style="clip-path:url(#clipPath6); fill:none; stroke:black;" width="22" x="290" y="121" /><circle cx="301" cy="132" r="11" style="fill:none; stroke:black;" /></g><g ID="l-1:8,10" style="text-rendering:optimizeSpeed;"><polygon points=" 249 171 197 171" style="fill:none;" /></g><g ID="r-1:8" style="fill:white; text-rendering:optimizeSpeed; stroke:white;" wurcs_mono_id="7"><rect height="22" style="clip-path:url(#clipPath7); stroke:none;" width="22" x="238" y="160" /><rect height="22" style="clip-path:url(#clipPath7); fill:rgb(0,144,188); stroke:none;" width="22" x="238" y="160" /><rect height="22" style="clip-path:url(#clipPath7); fill:none; stroke:black;" width="22" x="238" y="160" /><rect height="22" style="fill:none; stroke:black;" width="22" x="238" y="160" /></g><g ID="l-1:10,11" style="text-rendering:optimizeSpeed;"><polygon points=" 197 171 145 197" style="fill:none;" /></g><g ID="l-1:10,12" style="text-rendering:optimizeSpeed;"><polygon points=" 197 171 145 145" style="fill:none;" /></g><g ID="r-1:10" style="fill:white; text-rendering:optimizeSpeed; stroke:white;" wurcs_mono_id="8"><circle cx="197" cy="171" r="11" style="clip-path:url(#clipPath8); stroke:none;" /><rect height="22" style="clip-path:url(#clipPath8); fill:rgb(255,212,0); stroke:none;" width="22" x="186" y="160" /><rect height="22" style="clip-path:url(#clipPath8); fill:none; stroke:black;" width="22" x="186" y="160" /><circle cx="197" cy="171" r="11" style="fill:none; stroke:black;" /></g><g ID="l-1:11,13" style="text-rendering:optimizeSpeed;"><polygon points=" 145 197 93 197" style="fill:none;" /></g><g ID="r-1:11" style="fill:white; text-rendering:optimizeSpeed; stroke:white;" wurcs_mono_id="9"><rect height="22" style="clip-path:url(#clipPath9); stroke:none;" width="22" x="134" y="186" /><rect height="22" style="clip-path:url(#clipPath9); fill:rgb(0,144,188); stroke:none;" width="22" x="134" y="186" /><rect height="22" style="clip-path:url(#clipPath9); fill:none; stroke:black;" width="22" x="134" y="186" /><rect height="22" style="fill:none; stroke:black;" width="22" x="134" y="186" /></g><g ID="l-1:13,14" style="text-rendering:optimizeSpeed;"><polygon points=" 93 197 41 197" style="fill:none;" /></g><g ID="r-1:13" style="fill:white; text-rendering:optimizeSpeed; stroke:white;" wurcs_mono_id="10"><circle cx="93" cy="197" r="11" style="clip-path:url(#clipPath10); stroke:none;" /><rect height="22" style="clip-path:url(#clipPath10); fill:rgb(255,212,0); stroke:none;" width="22" x="82" y="186" /><rect height="22" style="clip-path:url(#clipPath10); fill:none; stroke:black;" width="22" x="82" y="186" /><circle cx="93" cy="197" r="11" style="fill:none; stroke:black;" /></g><g ID="r-1:14" style="fill:white; text-rendering:optimizeSpeed; stroke:white;" wurcs_mono_id="11"><polygon points=" 41 186 52 197 41 208 30 197" style="stroke:none; clip-path:url(#clipPath11);" /><rect height="22" style="clip-path:url(#clipPath11); fill:rgb(165,67,153); stroke:none;" width="22" x="30" y="186" /><rect height="22" style="clip-path:url(#clipPath11); fill:none; stroke:black;" width="22" x="30" y="186" /><polygon points=" 41 186 52 197 41 208 30 197" style="fill:none; stroke:black;" /></g><g ID="li-1:13,14" style="fill:white; text-rendering:optimizeSpeed; font-family:'Serif'; stroke:white;"><rect height="10" style="stroke:none;" width="7" x="70" y="200" /><path d="M71.1719 201.625 Q71.8594 201.3594 72.4844 201.2266 Q73.1094 201.0938 73.6562 201.0938 Q74.9531 201.0938 75.6719 201.6484 Q76.3906 202.2031 76.3906 203.1875 Q76.3906 203.9688 75.8906 204.5 Q75.3906 205.0312 74.4844 205.2188 Q75.5625 205.375 76.1562 206.0078 Q76.75 206.6406 76.75 207.6406 Q76.75 208.8594 75.9219 209.5156 Q75.0938 210.1719 73.5469 210.1719 Q72.8594 210.1719 72.2109 210.0234 Q71.5625 209.875 70.9219 209.5781 L70.9219 207.875 L71.5781 207.875 Q71.625 208.7188 72.1406 209.1562 Q72.6562 209.5938 73.5781 209.5938 Q74.4688 209.5938 74.9922 209.0703 Q75.5156 208.5469 75.5156 207.6562 Q75.5156 206.625 74.9766 206.0938 Q74.4375 205.5625 73.4062 205.5625 L72.8594 205.5625 L72.8594 204.9531 L73.1406 204.9531 Q74.1719 204.9531 74.6875 204.5312 Q75.2031 204.1094 75.2031 203.25 Q75.2031 202.4844 74.7812 202.0781 Q74.3594 201.6719 73.5625 201.6719 Q72.7656 201.6719 72.3359 202.0469 Q71.9062 202.4219 71.8281 203.1562 L71.1719 203.1562 L71.1719 201.625 Z" style="fill:black; stroke:none;" /><rect height="8" style="stroke:none;" width="8" x="56" y="201" /><path d="M61.1875 207.4688 L60.9531 208.1094 Q60.7656 208.625 60.2031 208.9375 Q59.8438 209.1562 59.2031 209.1406 Q58.0469 209.1406 57.3281 208.2344 Q56.5938 207.3281 56.5938 205.8594 Q56.5938 204.4219 57.3281 203.4844 Q58.0156 202.5938 59.4531 202.6094 Q60.4531 202.6094 60.9531 203 Q61.4062 203.3438 61.5781 204.0938 L61.625 204.3125 L61.8438 203.6719 Q62.0625 203.0469 62.6562 202.75 L63.25 202.75 L63.25 203.0938 Q62.6875 203.2656 62.5 203.8125 L61.8906 205.4844 L62.2969 207.2812 Q62.5 208.2031 62.7344 208.2969 Q63.0469 208.4375 63.7812 208 L63.7812 208.7188 Q62.5938 209.4062 61.75 208.6875 Q61.375 208.3594 61.2656 207.875 L61.1875 207.4688 ZM60.9219 206.3125 L60.5625 204.5938 Q60.2656 203.2188 59.4688 203.2188 Q58.7969 203.2031 58.2812 203.9375 Q57.8594 204.5156 57.8594 205.875 Q57.8594 207.1719 58.2812 207.8281 Q58.75 208.5469 59.5312 208.5 Q60.2031 208.4375 60.6875 207 L60.9219 206.3125 Z" style="fill:black; stroke:none;" /></g><g ID="li-1:11,13" style="fill:white; text-rendering:optimizeSpeed; font-family:'Serif'; stroke:white;"><rect height="9" style="stroke:none;" width="8" x="122" y="200" /><path d="M126.1875 206.0312 L126.1875 201.375 L123.2031 206.0312 L126.1875 206.0312 ZM128.7656 209 L124.7812 209 L124.7812 208.375 L126.1875 208.375 L126.1875 206.6562 L122.375 206.6562 L122.375 206.0156 L126.2031 200.0938 L127.3594 200.0938 L127.3594 206.0312 L129.0312 206.0312 L129.0312 206.6562 L127.3594 206.6562 L127.3594 208.375 L128.7656 208.375 L128.7656 209 Z" style="fill:black; stroke:none;" /><rect height="13" style="stroke:none;" width="7" x="108" y="198" /><path d="M109.8281 210.25 Q110.2969 210.5938 111.1719 210.5938 Q112.0625 210.5938 112.5781 210.0703 Q113.0938 209.5469 113.0938 208.6562 Q113.0938 207.4219 112.5625 206.8906 Q112.0156 206.3594 111 206.3594 L110.4375 206.3594 L110.4375 205.7188 L110.7344 205.7188 Q111.4844 205.7188 112 205.2969 Q112.4219 204.9531 112.4219 204.0156 Q112.4219 203.6094 112.1406 203.1406 Q111.6875 202.375 111.1562 202.3906 Q109.8281 202.4375 109.8281 204.7812 L109.8281 210.25 ZM108.75 213.5 L108.75 204.7812 Q108.75 202.3281 110.0781 202 Q110.7656 201.8125 111.25 201.8125 Q112.3438 201.8125 113.0469 202.6719 Q113.6094 203.3594 113.6094 203.9375 Q113.6094 204.7812 113.2031 205.2656 Q112.7969 205.75 112.0625 205.9844 Q113.1406 206.1406 113.75 206.7812 Q114.3281 207.4062 114.3281 208.6328 Q114.3281 209.8594 113.5078 210.5156 Q112.6875 211.1719 111.1406 211.1719 Q110.1875 211.1719 109.8281 211.0312 L109.8281 213.5 L108.75 213.5 Z" style="fill:black; stroke:none;" /></g><g ID="l-1:12,15" style="text-rendering:optimizeSpeed;"><polygon points=" 145 145 93 145" style="fill:none;" /></g><g ID="r-1:12" style="fill:white; text-rendering:optimizeSpeed; stroke:white;" wurcs_mono_id="12"><rect height="22" style="clip-path:url(#clipPath12); stroke:none;" width="22" x="134" y="134" /><rect height="22" style="clip-path:url(#clipPath12); fill:rgb(0,144,188); stroke:none;" width="22" x="134" y="134" /><rect height="22" style="clip-path:url(#clipPath12); fill:none; stroke:black;" width="22" x="134" y="134" /><rect height="22" style="fill:none; stroke:black;" width="22" x="134" y="134" /></g><g ID="l-1:15,16" style="text-rendering:optimizeSpeed;"><polygon points=" 93 145 41 145" style="fill:none;" /></g><g ID="r-1:15" style="fill:white; text-rendering:optimizeSpeed; stroke:white;" wurcs_mono_id="13"><circle cx="93" cy="145" r="11" style="clip-path:url(#clipPath13); stroke:none;" /><rect height="22" style="clip-path:url(#clipPath13); fill:rgb(255,212,0); stroke:none;" width="22" x="82" y="134" /><rect height="22" style="clip-path:url(#clipPath13); fill:none; stroke:black;" width="22" x="82" y="134" /><circle cx="93" cy="145" r="11" style="fill:none; stroke:black;" /></g><g ID="r-1:16" style="fill:white; text-rendering:optimizeSpeed; stroke:white;" wurcs_mono_id="14"><polygon points=" 41 134 52 145 41 156 30 145" style="stroke:none; clip-path:url(#clipPath14);" /><rect height="22" style="clip-path:url(#clipPath14); fill:rgb(165,67,153); stroke:none;" width="22" x="30" y="134" /><rect height="22" style="clip-path:url(#clipPath14); fill:none; stroke:black;" width="22" x="30" y="134" /><polygon points=" 41 134 52 145 41 156 30 145" style="fill:none; stroke:black;" /></g><g ID="li-1:15,16" style="fill:white; text-rendering:optimizeSpeed; font-family:'Serif'; stroke:white;"><rect height="10" style="stroke:none;" width="7" x="70" y="148" /><path d="M71.1719 149.625 Q71.8594 149.3594 72.4844 149.2266 Q73.1094 149.0938 73.6562 149.0938 Q74.9531 149.0938 75.6719 149.6484 Q76.3906 150.2031 76.3906 151.1875 Q76.3906 151.9688 75.8906 152.5 Q75.3906 153.0312 74.4844 153.2188 Q75.5625 153.375 76.1562 154.0078 Q76.75 154.6406 76.75 155.6406 Q76.75 156.8594 75.9219 157.5156 Q75.0938 158.1719 73.5469 158.1719 Q72.8594 158.1719 72.2109 158.0234 Q71.5625 157.875 70.9219 157.5781 L70.9219 155.875 L71.5781 155.875 Q71.625 156.7188 72.1406 157.1562 Q72.6562 157.5938 73.5781 157.5938 Q74.4688 157.5938 74.9922 157.0703 Q75.5156 156.5469 75.5156 155.6562 Q75.5156 154.625 74.9766 154.0938 Q74.4375 153.5625 73.4062 153.5625 L72.8594 153.5625 L72.8594 152.9531 L73.1406 152.9531 Q74.1719 152.9531 74.6875 152.5312 Q75.2031 152.1094 75.2031 151.25 Q75.2031 150.4844 74.7812 150.0781 Q74.3594 149.6719 73.5625 149.6719 Q72.7656 149.6719 72.3359 150.0469 Q71.9062 150.4219 71.8281 151.1562 L71.1719 151.1562 L71.1719 149.625 Z" style="fill:black; stroke:none;" /><rect height="8" style="stroke:none;" width="8" x="56" y="149" /><path d="M61.1875 155.4688 L60.9531 156.1094 Q60.7656 156.625 60.2031 156.9375 Q59.8438 157.1562 59.2031 157.1406 Q58.0469 157.1406 57.3281 156.2344 Q56.5938 155.3281 56.5938 153.8594 Q56.5938 152.4219 57.3281 151.4844 Q58.0156 150.5938 59.4531 150.6094 Q60.4531 150.6094 60.9531 151 Q61.4062 151.3438 61.5781 152.0938 L61.625 152.3125 L61.8438 151.6719 Q62.0625 151.0469 62.6562 150.75 L63.25 150.75 L63.25 151.0938 Q62.6875 151.2656 62.5 151.8125 L61.8906 153.4844 L62.2969 155.2812 Q62.5 156.2031 62.7344 156.2969 Q63.0469 156.4375 63.7812 156 L63.7812 156.7188 Q62.5938 157.4062 61.75 156.6875 Q61.375 156.3594 61.2656 155.875 L61.1875 155.4688 ZM60.9219 154.3125 L60.5625 152.5938 Q60.2656 151.2188 59.4688 151.2188 Q58.7969 151.2031 58.2812 151.9375 Q57.8594 152.5156 57.8594 153.875 Q57.8594 155.1719 58.2812 155.8281 Q58.75 156.5469 59.5312 156.5 Q60.2031 156.4375 60.6875 155 L60.9219 154.3125 Z" style="fill:black; stroke:none;" /></g><g ID="li-1:12,15" style="fill:white; text-rendering:optimizeSpeed; font-family:'Serif'; stroke:white;"><rect height="9" style="stroke:none;" width="8" x="122" y="148" /><path d="M126.1875 154.0312 L126.1875 149.375 L123.2031 154.0312 L126.1875 154.0312 ZM128.7656 157 L124.7812 157 L124.7812 156.375 L126.1875 156.375 L126.1875 154.6562 L122.375 154.6562 L122.375 154.0156 L126.2031 148.0938 L127.3594 148.0938 L127.3594 154.0312 L129.0312 154.0312 L129.0312 154.6562 L127.3594 154.6562 L127.3594 156.375 L128.7656 156.375 L128.7656 157 Z" style="fill:black; stroke:none;" /><rect height="13" style="stroke:none;" width="7" x="108" y="146" /><path d="M109.8281 158.25 Q110.2969 158.5938 111.1719 158.5938 Q112.0625 158.5938 112.5781 158.0703 Q113.0938 157.5469 113.0938 156.6562 Q113.0938 155.4219 112.5625 154.8906 Q112.0156 154.3594 111 154.3594 L110.4375 154.3594 L110.4375 153.7188 L110.7344 153.7188 Q111.4844 153.7188 112 153.2969 Q112.4219 152.9531 112.4219 152.0156 Q112.4219 151.6094 112.1406 151.1406 Q111.6875 150.375 111.1562 150.3906 Q109.8281 150.4375 109.8281 152.7812 L109.8281 158.25 ZM108.75 161.5 L108.75 152.7812 Q108.75 150.3281 110.0781 150 Q110.7656 149.8125 111.25 149.8125 Q112.3438 149.8125 113.0469 150.6719 Q113.6094 151.3594 113.6094 151.9375 Q113.6094 152.7812 113.2031 153.2656 Q112.7969 153.75 112.0625 153.9844 Q113.1406 154.1406 113.75 154.7812 Q114.3281 155.4062 114.3281 156.6328 Q114.3281 157.8594 113.5078 158.5156 Q112.6875 159.1719 111.1406 159.1719 Q110.1875 159.1719 109.8281 159.0312 L109.8281 161.5 L108.75 161.5 Z" style="fill:black; stroke:none;" /></g><g ID="li-1:10,11" style="fill:white; text-rendering:optimizeSpeed; font-family:'Serif'; stroke:white;"><rect height="10" style="stroke:none;" width="7" x="178" y="182" /><path d="M179.1719 183.625 Q179.8594 183.3594 180.4844 183.2266 Q181.1094 183.0938 181.6562 183.0938 Q182.9531 183.0938 183.6719 183.6484 Q184.3906 184.2031 184.3906 185.1875 Q184.3906 185.9688 183.8906 186.5 Q183.3906 187.0312 182.4844 187.2188 Q183.5625 187.375 184.1562 188.0078 Q184.75 188.6406 184.75 189.6406 Q184.75 190.8594 183.9219 191.5156 Q183.0938 192.1719 181.5469 192.1719 Q180.8594 192.1719 180.2109 192.0234 Q179.5625 191.875 178.9219 191.5781 L178.9219 189.875 L179.5781 189.875 Q179.625 190.7188 180.1406 191.1562 Q180.6562 191.5938 181.5781 191.5938 Q182.4688 191.5938 182.9922 191.0703 Q183.5156 190.5469 183.5156 189.6562 Q183.5156 188.625 182.9766 188.0938 Q182.4375 187.5625 181.4062 187.5625 L180.8594 187.5625 L180.8594 186.9531 L181.1406 186.9531 Q182.1719 186.9531 182.6875 186.5312 Q183.2031 186.1094 183.2031 185.25 Q183.2031 184.4844 182.7812 184.0781 Q182.3594 183.6719 181.5625 183.6719 Q180.7656 183.6719 180.3359 184.0469 Q179.9062 184.4219 179.8281 185.1562 L179.1719 185.1562 L179.1719 183.625 Z" style="fill:black; stroke:none;" /><rect height="13" style="stroke:none;" width="7" x="163" y="188" /><path d="M164.8281 200.25 Q165.2969 200.5938 166.1719 200.5938 Q167.0625 200.5938 167.5781 200.0703 Q168.0938 199.5469 168.0938 198.6562 Q168.0938 197.4219 167.5625 196.8906 Q167.0156 196.3594 166 196.3594 L165.4375 196.3594 L165.4375 195.7188 L165.7344 195.7188 Q166.4844 195.7188 167 195.2969 Q167.4219 194.9531 167.4219 194.0156 Q167.4219 193.6094 167.1406 193.1406 Q166.6875 192.375 166.1562 192.3906 Q164.8281 192.4375 164.8281 194.7812 L164.8281 200.25 ZM163.75 203.5 L163.75 194.7812 Q163.75 192.3281 165.0781 192 Q165.7656 191.8125 166.25 191.8125 Q167.3438 191.8125 168.0469 192.6719 Q168.6094 193.3594 168.6094 193.9375 Q168.6094 194.7812 168.2031 195.2656 Q167.7969 195.75 167.0625 195.9844 Q168.1406 196.1406 168.75 196.7812 Q169.3281 197.4062 169.3281 198.6328 Q169.3281 199.8594 168.5078 200.5156 Q167.6875 201.1719 166.1406 201.1719 Q165.1875 201.1719 164.8281 201.0312 L164.8281 203.5 L163.75 203.5 Z" style="fill:black; stroke:none;" /></g><g ID="li-1:10,12" style="fill:white; text-rendering:optimizeSpeed; font-family:'Serif'; stroke:white;"><rect height="10" style="stroke:none;" width="7" x="171" y="164" /><path d="M174.9219 173.5938 Q175.75 173.5938 176.1953 172.9844 Q176.6406 172.375 176.6406 171.2344 Q176.6406 170.1094 176.1953 169.5 Q175.75 168.8906 174.9219 168.8906 Q174.0938 168.8906 173.6484 169.4766 Q173.2031 170.0625 173.2031 171.1719 Q173.2031 172.3281 173.6484 172.9609 Q174.0938 173.5938 174.9219 173.5938 ZM173.0156 169.1875 Q173.4219 168.75 173.9219 168.5312 Q174.4219 168.3125 175.0625 168.3125 Q176.3594 168.3125 177.1172 169.0938 Q177.875 169.875 177.875 171.2344 Q177.875 172.5625 177.0625 173.3672 Q176.25 174.1719 174.875 174.1719 Q173.3906 174.1719 172.5938 173.0625 Q171.7969 171.9531 171.7969 169.9062 Q171.7969 167.6094 172.7422 166.3516 Q173.6875 165.0938 175.4062 165.0938 Q175.875 165.0938 176.3828 165.1797 Q176.8906 165.2656 177.4219 165.4375 L177.4219 166.8906 L176.7656 166.8906 Q176.6875 166.2969 176.3047 165.9844 Q175.9219 165.6719 175.2812 165.6719 Q174.1406 165.6719 173.5859 166.5312 Q173.0312 167.3906 173.0156 169.1875 Z" style="fill:black; stroke:none;" /><rect height="13" style="stroke:none;" width="7" x="156" y="154" /><path d="M157.8281 166.25 Q158.2969 166.5938 159.1719 166.5938 Q160.0625 166.5938 160.5781 166.0703 Q161.0938 165.5469 161.0938 164.6562 Q161.0938 163.4219 160.5625 162.8906 Q160.0156 162.3594 159 162.3594 L158.4375 162.3594 L158.4375 161.7188 L158.7344 161.7188 Q159.4844 161.7188 160 161.2969 Q160.4219 160.9531 160.4219 160.0156 Q160.4219 159.6094 160.1406 159.1406 Q159.6875 158.375 159.1562 158.3906 Q157.8281 158.4375 157.8281 160.7812 L157.8281 166.25 ZM156.75 169.5 L156.75 160.7812 Q156.75 158.3281 158.0781 158 Q158.7656 157.8125 159.25 157.8125 Q160.3438 157.8125 161.0469 158.6719 Q161.6094 159.3594 161.6094 159.9375 Q161.6094 160.7812 161.2031 161.2656 Q160.7969 161.75 160.0625 161.9844 Q161.1406 162.1406 161.75 162.7812 Q162.3281 163.4062 162.3281 164.6328 Q162.3281 165.8594 161.5078 166.5156 Q160.6875 167.1719 159.1406 167.1719 Q158.1875 167.1719 157.8281 167.0312 L157.8281 169.5 L156.75 169.5 Z" style="fill:black; stroke:none;" /></g><g ID="li-1:8,10" style="fill:white; text-rendering:optimizeSpeed; font-family:'Serif'; stroke:white;"><rect height="9" style="stroke:none;" width="8" x="226" y="174" /><path d="M230.1875 180.0312 L230.1875 175.375 L227.2031 180.0312 L230.1875 180.0312 ZM232.7656 183 L228.7812 183 L228.7812 182.375 L230.1875 182.375 L230.1875 180.6562 L226.375 180.6562 L226.375 180.0156 L230.2031 174.0938 L231.3594 174.0938 L231.3594 180.0312 L233.0312 180.0312 L233.0312 180.6562 L231.3594 180.6562 L231.3594 182.375 L232.7656 182.375 L232.7656 183 Z" style="fill:black; stroke:none;" /><rect height="13" style="stroke:none;" width="7" x="212" y="172" /><path d="M213.8281 184.25 Q214.2969 184.5938 215.1719 184.5938 Q216.0625 184.5938 216.5781 184.0703 Q217.0938 183.5469 217.0938 182.6562 Q217.0938 181.4219 216.5625 180.8906 Q216.0156 180.3594 215 180.3594 L214.4375 180.3594 L214.4375 179.7188 L214.7344 179.7188 Q215.4844 179.7188 216 179.2969 Q216.4219 178.9531 216.4219 178.0156 Q216.4219 177.6094 216.1406 177.1406 Q215.6875 176.375 215.1562 176.3906 Q213.8281 176.4375 213.8281 178.7812 L213.8281 184.25 ZM212.75 187.5 L212.75 178.7812 Q212.75 176.3281 214.0781 176 Q214.7656 175.8125 215.25 175.8125 Q216.3438 175.8125 217.0469 176.6719 Q217.6094 177.3594 217.6094 177.9375 Q217.6094 178.7812 217.2031 179.2656 Q216.7969 179.75 216.0625 179.9844 Q217.1406 180.1406 217.75 180.7812 Q218.3281 181.4062 218.3281 182.6328 Q218.3281 183.8594 217.5078 184.5156 Q216.6875 185.1719 215.1406 185.1719 Q214.1875 185.1719 213.8281 185.0312 L213.8281 187.5 L212.75 187.5 Z" style="fill:black; stroke:none;" /></g><g ID="l-1:9,17" style="text-rendering:optimizeSpeed;"><polygon points=" 249 93 197 93" style="fill:none;" /></g><g ID="r-1:9" style="fill:white; text-rendering:optimizeSpeed; stroke:white;" wurcs_mono_id="15"><rect height="22" style="clip-path:url(#clipPath15); stroke:none;" width="22" x="238" y="82" /><rect height="22" style="clip-path:url(#clipPath15); fill:rgb(0,144,188); stroke:none;" width="22" x="238" y="82" /><rect height="22" style="clip-path:url(#clipPath15); fill:none; stroke:black;" width="22" x="238" y="82" /><rect height="22" style="fill:none; stroke:black;" width="22" x="238" y="82" /></g><g ID="l-1:17,18" style="text-rendering:optimizeSpeed;"><polygon points=" 197 93 145 93" style="fill:none;" /></g><g ID="r-1:17" style="fill:white; text-rendering:optimizeSpeed; stroke:white;" wurcs_mono_id="16"><circle cx="197" cy="93" r="11" style="clip-path:url(#clipPath16); stroke:none;" /><rect height="22" style="clip-path:url(#clipPath16); fill:rgb(255,212,0); stroke:none;" width="22" x="186" y="82" /><rect height="22" style="clip-path:url(#clipPath16); fill:none; stroke:black;" width="22" x="186" y="82" /><circle cx="197" cy="93" r="11" style="fill:none; stroke:black;" /></g><g ID="r-1:18" style="fill:white; text-rendering:optimizeSpeed; stroke:white;" wurcs_mono_id="17"><polygon points=" 145 82 156 93 145 104 134 93" style="stroke:none; clip-path:url(#clipPath17);" /><rect height="22" style="clip-path:url(#clipPath17); fill:rgb(165,67,153); stroke:none;" width="22" x="134" y="82" /><rect height="22" style="clip-path:url(#clipPath17); fill:none; stroke:black;" width="22" x="134" y="82" /><polygon points=" 145 82 156 93 145 104 134 93" style="fill:none; stroke:black;" /></g><g ID="li-1:17,18" style="fill:white; text-rendering:optimizeSpeed; font-family:'Serif'; stroke:white;"><rect height="10" style="stroke:none;" width="7" x="174" y="96" /><path d="M175.1719 97.625 Q175.8594 97.3594 176.4844 97.2266 Q177.1094 97.0938 177.6562 97.0938 Q178.9531 97.0938 179.6719 97.6484 Q180.3906 98.2031 180.3906 99.1875 Q180.3906 99.9688 179.8906 100.5 Q179.3906 101.0312 178.4844 101.2188 Q179.5625 101.375 180.1562 102.0078 Q180.75 102.6406 180.75 103.6406 Q180.75 104.8594 179.9219 105.5156 Q179.0938 106.1719 177.5469 106.1719 Q176.8594 106.1719 176.2109 106.0234 Q175.5625 105.875 174.9219 105.5781 L174.9219 103.875 L175.5781 103.875 Q175.625 104.7188 176.1406 105.1562 Q176.6562 105.5938 177.5781 105.5938 Q178.4688 105.5938 178.9922 105.0703 Q179.5156 104.5469 179.5156 103.6562 Q179.5156 102.625 178.9766 102.0938 Q178.4375 101.5625 177.4062 101.5625 L176.8594 101.5625 L176.8594 100.9531 L177.1406 100.9531 Q178.1719 100.9531 178.6875 100.5312 Q179.2031 100.1094 179.2031 99.25 Q179.2031 98.4844 178.7812 98.0781 Q178.3594 97.6719 177.5625 97.6719 Q176.7656 97.6719 176.3359 98.0469 Q175.9062 98.4219 175.8281 99.1562 L175.1719 99.1562 L175.1719 97.625 Z" style="fill:black; stroke:none;" /><rect height="8" style="stroke:none;" width="8" x="160" y="97" /><path d="M165.1875 103.4688 L164.9531 104.1094 Q164.7656 104.625 164.2031 104.9375 Q163.8438 105.1562 163.2031 105.1406 Q162.0469 105.1406 161.3281 104.2344 Q160.5938 103.3281 160.5938 101.8594 Q160.5938 100.4219 161.3281 99.4844 Q162.0156 98.5938 163.4531 98.6094 Q164.4531 98.6094 164.9531 99 Q165.4062 99.3438 165.5781 100.0938 L165.625 100.3125 L165.8438 99.6719 Q166.0625 99.0469 166.6562 98.75 L167.25 98.75 L167.25 99.0938 Q166.6875 99.2656 166.5 99.8125 L165.8906 101.4844 L166.2969 103.2812 Q166.5 104.2031 166.7344 104.2969 Q167.0469 104.4375 167.7812 104 L167.7812 104.7188 Q166.5938 105.4062 165.75 104.6875 Q165.375 104.3594 165.2656 103.875 L165.1875 103.4688 ZM164.9219 102.3125 L164.5625 100.5938 Q164.2656 99.2188 163.4688 99.2188 Q162.7969 99.2031 162.2812 99.9375 Q161.8594 100.5156 161.8594 101.875 Q161.8594 103.1719 162.2812 103.8281 Q162.75 104.5469 163.5312 104.5 Q164.2031 104.4375 164.6875 103 L164.9219 102.3125 Z" style="fill:black; stroke:none;" /></g><g ID="li-1:9,17" style="fill:white; text-rendering:optimizeSpeed; font-family:'Serif'; stroke:white;"><rect height="9" style="stroke:none;" width="8" x="226" y="96" /><path d="M230.1875 102.0312 L230.1875 97.375 L227.2031 102.0312 L230.1875 102.0312 ZM232.7656 105 L228.7812 105 L228.7812 104.375 L230.1875 104.375 L230.1875 102.6562 L226.375 102.6562 L226.375 102.0156 L230.2031 96.0938 L231.3594 96.0938 L231.3594 102.0312 L233.0312 102.0312 L233.0312 102.6562 L231.3594 102.6562 L231.3594 104.375 L232.7656 104.375 L232.7656 105 Z" style="fill:black; stroke:none;" /><rect height="13" style="stroke:none;" width="7" x="212" y="94" /><path d="M213.8281 106.25 Q214.2969 106.5938 215.1719 106.5938 Q216.0625 106.5938 216.5781 106.0703 Q217.0938 105.5469 217.0938 104.6562 Q217.0938 103.4219 216.5625 102.8906 Q216.0156 102.3594 215 102.3594 L214.4375 102.3594 L214.4375 101.7188 L214.7344 101.7188 Q215.4844 101.7188 216 101.2969 Q216.4219 100.9531 216.4219 100.0156 Q216.4219 99.6094 216.1406 99.1406 Q215.6875 98.375 215.1562 98.3906 Q213.8281 98.4375 213.8281 100.7812 L213.8281 106.25 ZM212.75 109.5 L212.75 100.7812 Q212.75 98.3281 214.0781 98 Q214.7656 97.8125 215.25 97.8125 Q216.3438 97.8125 217.0469 98.6719 Q217.6094 99.3594 217.6094 99.9375 Q217.6094 100.7812 217.2031 101.2656 Q216.7969 101.75 216.0625 101.9844 Q217.1406 102.1406 217.75 102.7812 Q218.3281 103.4062 218.3281 104.6328 Q218.3281 105.8594 217.5078 106.5156 Q216.6875 107.1719 215.1406 107.1719 Q214.1875 107.1719 213.8281 107.0312 L213.8281 109.5 L212.75 109.5 Z" style="fill:black; stroke:none;" /></g><g ID="li-1:7,8" style="fill:white; text-rendering:optimizeSpeed; font-family:'Serif'; stroke:white;"><rect height="11" style="stroke:none;" width="19" x="278" y="145" /><path d="M279.1719 147.625 Q279.8594 147.3594 280.4844 147.2266 Q281.1094 147.0938 281.6562 147.0938 Q282.9531 147.0938 283.6719 147.6484 Q284.3906 148.2031 284.3906 149.1875 Q284.3906 149.9688 283.8906 150.5 Q283.3906 151.0312 282.4844 151.2188 Q283.5625 151.375 284.1562 152.0078 Q284.75 152.6406 284.75 153.6406 Q284.75 154.8594 283.9219 155.5156 Q283.0938 156.1719 281.5469 156.1719 Q280.8594 156.1719 280.2109 156.0234 Q279.5625 155.875 278.9219 155.5781 L278.9219 153.875 L279.5781 153.875 Q279.625 154.7188 280.1406 155.1562 Q280.6562 155.5938 281.5781 155.5938 Q282.4688 155.5938 282.9922 155.0703 Q283.5156 154.5469 283.5156 153.6562 Q283.5156 152.625 282.9766 152.0938 Q282.4375 151.5625 281.4062 151.5625 L280.8594 151.5625 L280.8594 150.9531 L281.1406 150.9531 Q282.1719 150.9531 282.6875 150.5312 Q283.2031 150.1094 283.2031 149.25 Q283.2031 148.4844 282.7812 148.0781 Q282.3594 147.6719 281.5625 147.6719 Q280.7656 147.6719 280.3359 148.0469 Q279.9062 148.4219 279.8281 149.1562 L279.1719 149.1562 L279.1719 147.625 ZM288.7441 147.25 L289.6816 147.25 L286.5723 157.1094 L285.6348 157.1094 L288.7441 147.25 ZM293.5996 155.5938 Q294.4277 155.5938 294.873 154.9844 Q295.3184 154.375 295.3184 153.2344 Q295.3184 152.1094 294.873 151.5 Q294.4277 150.8906 293.5996 150.8906 Q292.7715 150.8906 292.3262 151.4766 Q291.8809 152.0625 291.8809 153.1719 Q291.8809 154.3281 292.3262 154.9609 Q292.7715 155.5938 293.5996 155.5938 ZM291.6934 151.1875 Q292.0996 150.75 292.5996 150.5312 Q293.0996 150.3125 293.7402 150.3125 Q295.0371 150.3125 295.7949 151.0938 Q296.5527 151.875 296.5527 153.2344 Q296.5527 154.5625 295.7402 155.3672 Q294.9277 156.1719 293.5527 156.1719 Q292.0684 156.1719 291.2715 155.0625 Q290.4746 153.9531 290.4746 151.9062 Q290.4746 149.6094 291.4199 148.3516 Q292.3652 147.0938 294.084 147.0938 Q294.5527 147.0938 295.0605 147.1797 Q295.5684 147.2656 296.0996 147.4375 L296.0996 148.8906 L295.4434 148.8906 Q295.3652 148.2969 294.9824 147.9844 Q294.5996 147.6719 293.959 147.6719 Q292.8184 147.6719 292.2637 148.5312 Q291.709 149.3906 291.6934 151.1875 Z" style="fill:black; stroke:none;" /><rect height="13" style="stroke:none;" width="7" x="267" y="157" /><path d="M268.8281 169.25 Q269.2969 169.5938 270.1719 169.5938 Q271.0625 169.5938 271.5781 169.0703 Q272.0938 168.5469 272.0938 167.6562 Q272.0938 166.4219 271.5625 165.8906 Q271.0156 165.3594 270 165.3594 L269.4375 165.3594 L269.4375 164.7188 L269.7344 164.7188 Q270.4844 164.7188 271 164.2969 Q271.4219 163.9531 271.4219 163.0156 Q271.4219 162.6094 271.1406 162.1406 Q270.6875 161.375 270.1562 161.3906 Q268.8281 161.4375 268.8281 163.7812 L268.8281 169.25 ZM267.75 172.5 L267.75 163.7812 Q267.75 161.3281 269.0781 161 Q269.7656 160.8125 270.25 160.8125 Q271.3438 160.8125 272.0469 161.6719 Q272.6094 162.3594 272.6094 162.9375 Q272.6094 163.7812 272.2031 164.2656 Q271.7969 164.75 271.0625 164.9844 Q272.1406 165.1406 272.75 165.7812 Q273.3281 166.4062 273.3281 167.6328 Q273.3281 168.8594 272.5078 169.5156 Q271.6875 170.1719 270.1406 170.1719 Q269.1875 170.1719 268.8281 170.0312 L268.8281 172.5 L267.75 172.5 Z" style="fill:black; stroke:none;" /></g><g ID="li-1:7,9" style="fill:white; text-rendering:optimizeSpeed; font-family:'Serif'; stroke:white;"><rect height="11" style="stroke:none;" width="19" x="269" y="119" /><path d="M270.1719 121.625 Q270.8594 121.3594 271.4844 121.2266 Q272.1094 121.0938 272.6562 121.0938 Q273.9531 121.0938 274.6719 121.6484 Q275.3906 122.2031 275.3906 123.1875 Q275.3906 123.9688 274.8906 124.5 Q274.3906 125.0312 273.4844 125.2188 Q274.5625 125.375 275.1562 126.0078 Q275.75 126.6406 275.75 127.6406 Q275.75 128.8594 274.9219 129.5156 Q274.0938 130.1719 272.5469 130.1719 Q271.8594 130.1719 271.2109 130.0234 Q270.5625 129.875 269.9219 129.5781 L269.9219 127.875 L270.5781 127.875 Q270.625 128.7188 271.1406 129.1562 Q271.6562 129.5938 272.5781 129.5938 Q273.4688 129.5938 273.9922 129.0703 Q274.5156 128.5469 274.5156 127.6562 Q274.5156 126.625 273.9766 126.0938 Q273.4375 125.5625 272.4062 125.5625 L271.8594 125.5625 L271.8594 124.9531 L272.1406 124.9531 Q273.1719 124.9531 273.6875 124.5312 Q274.2031 124.1094 274.2031 123.25 Q274.2031 122.4844 273.7812 122.0781 Q273.3594 121.6719 272.5625 121.6719 Q271.7656 121.6719 271.3359 122.0469 Q270.9062 122.4219 270.8281 123.1562 L270.1719 123.1562 L270.1719 121.625 ZM279.7441 121.25 L280.6816 121.25 L277.5723 131.1094 L276.6348 131.1094 L279.7441 121.25 ZM284.5996 129.5938 Q285.4277 129.5938 285.873 128.9844 Q286.3184 128.375 286.3184 127.2344 Q286.3184 126.1094 285.873 125.5 Q285.4277 124.8906 284.5996 124.8906 Q283.7715 124.8906 283.3262 125.4766 Q282.8809 126.0625 282.8809 127.1719 Q282.8809 128.3281 283.3262 128.9609 Q283.7715 129.5938 284.5996 129.5938 ZM282.6934 125.1875 Q283.0996 124.75 283.5996 124.5312 Q284.0996 124.3125 284.7402 124.3125 Q286.0371 124.3125 286.7949 125.0938 Q287.5527 125.875 287.5527 127.2344 Q287.5527 128.5625 286.7402 129.3672 Q285.9277 130.1719 284.5527 130.1719 Q283.0684 130.1719 282.2715 129.0625 Q281.4746 127.9531 281.4746 125.9062 Q281.4746 123.6094 282.4199 122.3516 Q283.3652 121.0938 285.084 121.0938 Q285.5527 121.0938 286.0605 121.1797 Q286.5684 121.2656 287.0996 121.4375 L287.0996 122.8906 L286.4434 122.8906 Q286.3652 122.2969 285.9824 121.9844 Q285.5996 121.6719 284.959 121.6719 Q283.8184 121.6719 283.2637 122.5312 Q282.709 123.3906 282.6934 125.1875 Z" style="fill:black; stroke:none;" /><rect height="13" style="stroke:none;" width="7" x="258" y="105" /><path d="M259.8281 117.25 Q260.2969 117.5938 261.1719 117.5938 Q262.0625 117.5938 262.5781 117.0703 Q263.0938 116.5469 263.0938 115.6562 Q263.0938 114.4219 262.5625 113.8906 Q262.0156 113.3594 261 113.3594 L260.4375 113.3594 L260.4375 112.7188 L260.7344 112.7188 Q261.4844 112.7188 262 112.2969 Q262.4219 111.9531 262.4219 111.0156 Q262.4219 110.6094 262.1406 110.1406 Q261.6875 109.375 261.1562 109.3906 Q259.8281 109.4375 259.8281 111.7812 L259.8281 117.25 ZM258.75 120.5 L258.75 111.7812 Q258.75 109.3281 260.0781 109 Q260.7656 108.8125 261.25 108.8125 Q262.3438 108.8125 263.0469 109.6719 Q263.6094 110.3594 263.6094 110.9375 Q263.6094 111.7812 263.2031 112.2656 Q262.7969 112.75 262.0625 112.9844 Q263.1406 113.1406 263.75 113.7812 Q264.3281 114.4062 264.3281 115.6328 Q264.3281 116.8594 263.5078 117.5156 Q262.6875 118.1719 261.1406 118.1719 Q260.1875 118.1719 259.8281 118.0312 L259.8281 120.5 L258.75 120.5 Z" style="fill:black; stroke:none;" /></g><g ID="li-1:5,7" style="fill:white; text-rendering:optimizeSpeed; font-family:'Serif'; stroke:white;"><rect height="9" style="stroke:none;" width="8" x="330" y="135" /><path d="M334.1875 141.0312 L334.1875 136.375 L331.2031 141.0312 L334.1875 141.0312 ZM336.7656 144 L332.7812 144 L332.7812 143.375 L334.1875 143.375 L334.1875 141.6562 L330.375 141.6562 L330.375 141.0156 L334.2031 135.0938 L335.3594 135.0938 L335.3594 141.0312 L337.0312 141.0312 L337.0312 141.6562 L335.3594 141.6562 L335.3594 143.375 L336.7656 143.375 L336.7656 144 Z" style="fill:black; stroke:none;" /><rect height="13" style="stroke:none;" width="7" x="316" y="133" /><path d="M317.8281 145.25 Q318.2969 145.5938 319.1719 145.5938 Q320.0625 145.5938 320.5781 145.0703 Q321.0938 144.5469 321.0938 143.6562 Q321.0938 142.4219 320.5625 141.8906 Q320.0156 141.3594 319 141.3594 L318.4375 141.3594 L318.4375 140.7188 L318.7344 140.7188 Q319.4844 140.7188 320 140.2969 Q320.4219 139.9531 320.4219 139.0156 Q320.4219 138.6094 320.1406 138.1406 Q319.6875 137.375 319.1562 137.3906 Q317.8281 137.4375 317.8281 139.7812 L317.8281 145.25 ZM316.75 148.5 L316.75 139.7812 Q316.75 137.3281 318.0781 137 Q318.7656 136.8125 319.25 136.8125 Q320.3438 136.8125 321.0469 137.6719 Q321.6094 138.3594 321.6094 138.9375 Q321.6094 139.7812 321.2031 140.2656 Q320.7969 140.75 320.0625 140.9844 Q321.1406 141.1406 321.75 141.7812 Q322.3281 142.4062 322.3281 143.6328 Q322.3281 144.8594 321.5078 145.5156 Q320.6875 146.1719 319.1406 146.1719 Q318.1875 146.1719 317.8281 146.0312 L317.8281 148.5 L316.75 148.5 Z" style="fill:black; stroke:none;" /></g><g ID="l-1:6,19" style="text-rendering:optimizeSpeed;"><polygon points=" 353 41 301 41" style="fill:none;" /></g><g ID="r-1:6" style="fill:white; text-rendering:optimizeSpeed; stroke:white;" wurcs_mono_id="18"><rect height="22" style="clip-path:url(#clipPath18); stroke:none;" width="22" x="342" y="30" /><rect height="22" style="clip-path:url(#clipPath18); fill:rgb(0,144,188); stroke:none;" width="22" x="342" y="30" /><rect height="22" style="clip-path:url(#clipPath18); fill:none; stroke:black;" width="22" x="342" y="30" /><rect height="22" style="fill:none; stroke:black;" width="22" x="342" y="30" /></g><g ID="l-1:19,20" style="text-rendering:optimizeSpeed;"><polygon points=" 301 41 249 41" style="fill:none;" /></g><g ID="r-1:19" style="fill:white; text-rendering:optimizeSpeed; stroke:white;" wurcs_mono_id="19"><circle cx="301" cy="41" r="11" style="clip-path:url(#clipPath19); stroke:none;" /><rect height="22" style="clip-path:url(#clipPath19); fill:rgb(255,212,0); stroke:none;" width="22" x="290" y="30" /><rect height="22" style="clip-path:url(#clipPath19); fill:none; stroke:black;" width="22" x="290" y="30" /><circle cx="301" cy="41" r="11" style="fill:none; stroke:black;" /></g><g ID="r-1:20" style="fill:white; text-rendering:optimizeSpeed; stroke:white;" wurcs_mono_id="20"><polygon points=" 249 30 260 41 249 52 238 41" style="stroke:none; clip-path:url(#clipPath20);" /><rect height="22" style="clip-path:url(#clipPath20); fill:rgb(165,67,153); stroke:none;" width="22" x="238" y="30" /><rect height="22" style="clip-path:url(#clipPath20); fill:none; stroke:black;" width="22" x="238" y="30" /><polygon points=" 249 30 260 41 249 52 238 41" style="fill:none; stroke:black;" /></g><g ID="li-1:19,20" style="fill:white; text-rendering:optimizeSpeed; font-family:'Serif'; stroke:white;"><rect height="10" style="stroke:none;" width="7" x="278" y="44" /><path d="M279.1719 45.625 Q279.8594 45.3594 280.4844 45.2266 Q281.1094 45.0938 281.6562 45.0938 Q282.9531 45.0938 283.6719 45.6484 Q284.3906 46.2031 284.3906 47.1875 Q284.3906 47.9688 283.8906 48.5 Q283.3906 49.0312 282.4844 49.2188 Q283.5625 49.375 284.1562 50.0078 Q284.75 50.6406 284.75 51.6406 Q284.75 52.8594 283.9219 53.5156 Q283.0938 54.1719 281.5469 54.1719 Q280.8594 54.1719 280.2109 54.0234 Q279.5625 53.875 278.9219 53.5781 L278.9219 51.875 L279.5781 51.875 Q279.625 52.7188 280.1406 53.1562 Q280.6562 53.5938 281.5781 53.5938 Q282.4688 53.5938 282.9922 53.0703 Q283.5156 52.5469 283.5156 51.6562 Q283.5156 50.625 282.9766 50.0938 Q282.4375 49.5625 281.4062 49.5625 L280.8594 49.5625 L280.8594 48.9531 L281.1406 48.9531 Q282.1719 48.9531 282.6875 48.5312 Q283.2031 48.1094 283.2031 47.25 Q283.2031 46.4844 282.7812 46.0781 Q282.3594 45.6719 281.5625 45.6719 Q280.7656 45.6719 280.3359 46.0469 Q279.9062 46.4219 279.8281 47.1562 L279.1719 47.1562 L279.1719 45.625 Z" style="fill:black; stroke:none;" /><rect height="8" style="stroke:none;" width="8" x="264" y="45" /><path d="M269.1875 51.4688 L268.9531 52.1094 Q268.7656 52.625 268.2031 52.9375 Q267.8438 53.1562 267.2031 53.1406 Q266.0469 53.1406 265.3281 52.2344 Q264.5938 51.3281 264.5938 49.8594 Q264.5938 48.4219 265.3281 47.4844 Q266.0156 46.5938 267.4531 46.6094 Q268.4531 46.6094 268.9531 47 Q269.4062 47.3438 269.5781 48.0938 L269.625 48.3125 L269.8438 47.6719 Q270.0625 47.0469 270.6562 46.75 L271.25 46.75 L271.25 47.0938 Q270.6875 47.2656 270.5 47.8125 L269.8906 49.4844 L270.2969 51.2812 Q270.5 52.2031 270.7344 52.2969 Q271.0469 52.4375 271.7812 52 L271.7812 52.7188 Q270.5938 53.4062 269.75 52.6875 Q269.375 52.3594 269.2656 51.875 L269.1875 51.4688 ZM268.9219 50.3125 L268.5625 48.5938 Q268.2656 47.2188 267.4688 47.2188 Q266.7969 47.2031 266.2812 47.9375 Q265.8594 48.5156 265.8594 49.875 Q265.8594 51.1719 266.2812 51.8281 Q266.75 52.5469 267.5312 52.5 Q268.2031 52.4375 268.6875 51 L268.9219 50.3125 Z" style="fill:black; stroke:none;" /></g><g ID="li-1:6,19" style="fill:white; text-rendering:optimizeSpeed; font-family:'Serif'; stroke:white;"><rect height="9" style="stroke:none;" width="8" x="330" y="44" /><path d="M334.1875 50.0312 L334.1875 45.375 L331.2031 50.0312 L334.1875 50.0312 ZM336.7656 53 L332.7812 53 L332.7812 52.375 L334.1875 52.375 L334.1875 50.6562 L330.375 50.6562 L330.375 50.0156 L334.2031 44.0938 L335.3594 44.0938 L335.3594 50.0312 L337.0312 50.0312 L337.0312 50.6562 L335.3594 50.6562 L335.3594 52.375 L336.7656 52.375 L336.7656 53 Z" style="fill:black; stroke:none;" /><rect height="13" style="stroke:none;" width="7" x="316" y="42" /><path d="M317.8281 54.25 Q318.2969 54.5938 319.1719 54.5938 Q320.0625 54.5938 320.5781 54.0703 Q321.0938 53.5469 321.0938 52.6562 Q321.0938 51.4219 320.5625 50.8906 Q320.0156 50.3594 319 50.3594 L318.4375 50.3594 L318.4375 49.7188 L318.7344 49.7188 Q319.4844 49.7188 320 49.2969 Q320.4219 48.9531 320.4219 48.0156 Q320.4219 47.6094 320.1406 47.1406 Q319.6875 46.375 319.1562 46.3906 Q317.8281 46.4375 317.8281 48.7812 L317.8281 54.25 ZM316.75 57.5 L316.75 48.7812 Q316.75 46.3281 318.0781 46 Q318.7656 45.8125 319.25 45.8125 Q320.3438 45.8125 321.0469 46.6719 Q321.6094 47.3594 321.6094 47.9375 Q321.6094 48.7812 321.2031 49.2656 Q320.7969 49.75 320.0625 49.9844 Q321.1406 50.1406 321.75 50.7812 Q322.3281 51.4062 322.3281 52.6328 Q322.3281 53.8594 321.5078 54.5156 Q320.6875 55.1719 319.1406 55.1719 Q318.1875 55.1719 317.8281 55.0312 L317.8281 57.5 L316.75 57.5 Z" style="fill:black; stroke:none;" /></g><g ID="li-1:4,5" style="fill:white; text-rendering:optimizeSpeed; font-family:'Serif'; stroke:white;"><rect height="11" style="stroke:none;" width="19" x="383" y="101" /><path d="M384.1719 103.625 Q384.8594 103.3594 385.4844 103.2266 Q386.1094 103.0938 386.6562 103.0938 Q387.9531 103.0938 388.6719 103.6484 Q389.3906 104.2031 389.3906 105.1875 Q389.3906 105.9688 388.8906 106.5 Q388.3906 107.0312 387.4844 107.2188 Q388.5625 107.375 389.1562 108.0078 Q389.75 108.6406 389.75 109.6406 Q389.75 110.8594 388.9219 111.5156 Q388.0938 112.1719 386.5469 112.1719 Q385.8594 112.1719 385.2109 112.0234 Q384.5625 111.875 383.9219 111.5781 L383.9219 109.875 L384.5781 109.875 Q384.625 110.7188 385.1406 111.1562 Q385.6562 111.5938 386.5781 111.5938 Q387.4688 111.5938 387.9922 111.0703 Q388.5156 110.5469 388.5156 109.6562 Q388.5156 108.625 387.9766 108.0938 Q387.4375 107.5625 386.4062 107.5625 L385.8594 107.5625 L385.8594 106.9531 L386.1406 106.9531 Q387.1719 106.9531 387.6875 106.5312 Q388.2031 106.1094 388.2031 105.25 Q388.2031 104.4844 387.7812 104.0781 Q387.3594 103.6719 386.5625 103.6719 Q385.7656 103.6719 385.3359 104.0469 Q384.9062 104.4219 384.8281 105.1562 L384.1719 105.1562 L384.1719 103.625 ZM393.7441 103.25 L394.6816 103.25 L391.5723 113.1094 L390.6348 113.1094 L393.7441 103.25 ZM398.5996 111.5938 Q399.4277 111.5938 399.873 110.9844 Q400.3184 110.375 400.3184 109.2344 Q400.3184 108.1094 399.873 107.5 Q399.4277 106.8906 398.5996 106.8906 Q397.7715 106.8906 397.3262 107.4766 Q396.8809 108.0625 396.8809 109.1719 Q396.8809 110.3281 397.3262 110.9609 Q397.7715 111.5938 398.5996 111.5938 ZM396.6934 107.1875 Q397.0996 106.75 397.5996 106.5312 Q398.0996 106.3125 398.7402 106.3125 Q400.0371 106.3125 400.7949 107.0938 Q401.5527 107.875 401.5527 109.2344 Q401.5527 110.5625 400.7402 111.3672 Q399.9277 112.1719 398.5527 112.1719 Q397.0684 112.1719 396.2715 111.0625 Q395.4746 109.9531 395.4746 107.9062 Q395.4746 105.6094 396.4199 104.3516 Q397.3652 103.0938 399.084 103.0938 Q399.5527 103.0938 400.0605 103.1797 Q400.5684 103.2656 401.0996 103.4375 L401.0996 104.8906 L400.4434 104.8906 Q400.3652 104.2969 399.9824 103.9844 Q399.5996 103.6719 398.959 103.6719 Q397.8184 103.6719 397.2637 104.5312 Q396.709 105.3906 396.6934 107.1875 Z" style="fill:black; stroke:none;" /><rect height="13" style="stroke:none;" width="7" x="371" y="116" /><path d="M372.8281 128.25 Q373.2969 128.5938 374.1719 128.5938 Q375.0625 128.5938 375.5781 128.0703 Q376.0938 127.5469 376.0938 126.6562 Q376.0938 125.4219 375.5625 124.8906 Q375.0156 124.3594 374 124.3594 L373.4375 124.3594 L373.4375 123.7188 L373.7344 123.7188 Q374.4844 123.7188 375 123.2969 Q375.4219 122.9531 375.4219 122.0156 Q375.4219 121.6094 375.1406 121.1406 Q374.6875 120.375 374.1562 120.3906 Q372.8281 120.4375 372.8281 122.7812 L372.8281 128.25 ZM371.75 131.5 L371.75 122.7812 Q371.75 120.3281 373.0781 120 Q373.7656 119.8125 374.25 119.8125 Q375.3438 119.8125 376.0469 120.6719 Q376.6094 121.3594 376.6094 121.9375 Q376.6094 122.7812 376.2031 123.2656 Q375.7969 123.75 375.0625 123.9844 Q376.1406 124.1406 376.75 124.7812 Q377.3281 125.4062 377.3281 126.6328 Q377.3281 127.8594 376.5078 128.5156 Q375.6875 129.1719 374.1406 129.1719 Q373.1875 129.1719 372.8281 129.0312 L372.8281 131.5 L371.75 131.5 Z" style="fill:black; stroke:none;" /></g><g ID="li-1:4,6" style="fill:white; text-rendering:optimizeSpeed; font-family:'Serif'; stroke:white;"><rect height="11" style="stroke:none;" width="19" x="373" y="71" /><path d="M374.1719 73.625 Q374.8594 73.3594 375.4844 73.2266 Q376.1094 73.0938 376.6562 73.0938 Q377.9531 73.0938 378.6719 73.6484 Q379.3906 74.2031 379.3906 75.1875 Q379.3906 75.9688 378.8906 76.5 Q378.3906 77.0312 377.4844 77.2188 Q378.5625 77.375 379.1562 78.0078 Q379.75 78.6406 379.75 79.6406 Q379.75 80.8594 378.9219 81.5156 Q378.0938 82.1719 376.5469 82.1719 Q375.8594 82.1719 375.2109 82.0234 Q374.5625 81.875 373.9219 81.5781 L373.9219 79.875 L374.5781 79.875 Q374.625 80.7188 375.1406 81.1562 Q375.6562 81.5938 376.5781 81.5938 Q377.4688 81.5938 377.9922 81.0703 Q378.5156 80.5469 378.5156 79.6562 Q378.5156 78.625 377.9766 78.0938 Q377.4375 77.5625 376.4062 77.5625 L375.8594 77.5625 L375.8594 76.9531 L376.1406 76.9531 Q377.1719 76.9531 377.6875 76.5312 Q378.2031 76.1094 378.2031 75.25 Q378.2031 74.4844 377.7812 74.0781 Q377.3594 73.6719 376.5625 73.6719 Q375.7656 73.6719 375.3359 74.0469 Q374.9062 74.4219 374.8281 75.1562 L374.1719 75.1562 L374.1719 73.625 ZM383.7441 73.25 L384.6816 73.25 L381.5723 83.1094 L380.6348 83.1094 L383.7441 73.25 ZM388.5996 81.5938 Q389.4277 81.5938 389.873 80.9844 Q390.3184 80.375 390.3184 79.2344 Q390.3184 78.1094 389.873 77.5 Q389.4277 76.8906 388.5996 76.8906 Q387.7715 76.8906 387.3262 77.4766 Q386.8809 78.0625 386.8809 79.1719 Q386.8809 80.3281 387.3262 80.9609 Q387.7715 81.5938 388.5996 81.5938 ZM386.6934 77.1875 Q387.0996 76.75 387.5996 76.5312 Q388.0996 76.3125 388.7402 76.3125 Q390.0371 76.3125 390.7949 77.0938 Q391.5527 77.875 391.5527 79.2344 Q391.5527 80.5625 390.7402 81.3672 Q389.9277 82.1719 388.5527 82.1719 Q387.0684 82.1719 386.2715 81.0625 Q385.4746 79.9531 385.4746 77.9062 Q385.4746 75.6094 386.4199 74.3516 Q387.3652 73.0938 389.084 73.0938 Q389.5527 73.0938 390.0605 73.1797 Q390.5684 73.2656 391.0996 73.4375 L391.0996 74.8906 L390.4434 74.8906 Q390.3652 74.2969 389.9824 73.9844 Q389.5996 73.6719 388.959 73.6719 Q387.8184 73.6719 387.2637 74.5312 Q386.709 75.3906 386.6934 77.1875 Z" style="fill:black; stroke:none;" /><rect height="13" style="stroke:none;" width="7" x="361" y="55" /><path d="M362.8281 67.25 Q363.2969 67.5938 364.1719 67.5938 Q365.0625 67.5938 365.5781 67.0703 Q366.0938 66.5469 366.0938 65.6562 Q366.0938 64.4219 365.5625 63.8906 Q365.0156 63.3594 364 63.3594 L363.4375 63.3594 L363.4375 62.7188 L363.7344 62.7188 Q364.4844 62.7188 365 62.2969 Q365.4219 61.9531 365.4219 61.0156 Q365.4219 60.6094 365.1406 60.1406 Q364.6875 59.375 364.1562 59.3906 Q362.8281 59.4375 362.8281 61.7812 L362.8281 67.25 ZM361.75 70.5 L361.75 61.7812 Q361.75 59.3281 363.0781 59 Q363.7656 58.8125 364.25 58.8125 Q365.3438 58.8125 366.0469 59.6719 Q366.6094 60.3594 366.6094 60.9375 Q366.6094 61.7812 366.2031 62.2656 Q365.7969 62.75 365.0625 62.9844 Q366.1406 63.1406 366.75 63.7812 Q367.3281 64.4062 367.3281 65.6328 Q367.3281 66.8594 366.5078 67.5156 Q365.6875 68.1719 364.1406 68.1719 Q363.1875 68.1719 362.8281 68.0312 L362.8281 70.5 L361.75 70.5 Z" style="fill:black; stroke:none;" /></g><g ID="li-1:3,4" style="fill:white; text-rendering:optimizeSpeed; font-family:'Serif'; stroke:white;"><rect height="9" style="stroke:none;" width="8" x="434" y="89" /><path d="M438.1875 95.0312 L438.1875 90.375 L435.2031 95.0312 L438.1875 95.0312 ZM440.7656 98 L436.7812 98 L436.7812 97.375 L438.1875 97.375 L438.1875 95.6562 L434.375 95.6562 L434.375 95.0156 L438.2031 89.0938 L439.3594 89.0938 L439.3594 95.0312 L441.0312 95.0312 L441.0312 95.6562 L439.3594 95.6562 L439.3594 97.375 L440.7656 97.375 L440.7656 98 Z" style="fill:black; stroke:none;" /><rect height="13" style="stroke:none;" width="7" x="420" y="87" /><path d="M421.8281 99.25 Q422.2969 99.5938 423.1719 99.5938 Q424.0625 99.5938 424.5781 99.0703 Q425.0938 98.5469 425.0938 97.6562 Q425.0938 96.4219 424.5625 95.8906 Q424.0156 95.3594 423 95.3594 L422.4375 95.3594 L422.4375 94.7188 L422.7344 94.7188 Q423.4844 94.7188 424 94.2969 Q424.4219 93.9531 424.4219 93.0156 Q424.4219 92.6094 424.1406 92.1406 Q423.6875 91.375 423.1562 91.3906 Q421.8281 91.4375 421.8281 93.7812 L421.8281 99.25 ZM420.75 102.5 L420.75 93.7812 Q420.75 91.3281 422.0781 91 Q422.7656 90.8125 423.25 90.8125 Q424.3438 90.8125 425.0469 91.6719 Q425.6094 92.3594 425.6094 92.9375 Q425.6094 93.7812 425.2031 94.2656 Q424.7969 94.75 424.0625 94.9844 Q425.1406 95.1406 425.75 95.7812 Q426.3281 96.4062 426.3281 97.6328 Q426.3281 98.8594 425.5078 99.5156 Q424.6875 100.1719 423.1406 100.1719 Q422.1875 100.1719 421.8281 100.0312 L421.8281 102.5 L420.75 102.5 Z" style="fill:black; stroke:none;" /></g><g ID="li-1:2,3" style="fill:white; text-rendering:optimizeSpeed; font-family:'Serif'; stroke:white;"><rect height="10" style="stroke:none;" width="7" x="486" y="89" /><path d="M487.1719 90.625 Q487.8594 90.3594 488.4844 90.2266 Q489.1094 90.0938 489.6562 90.0938 Q490.9531 90.0938 491.6719 90.6484 Q492.3906 91.2031 492.3906 92.1875 Q492.3906 92.9688 491.8906 93.5 Q491.3906 94.0312 490.4844 94.2188 Q491.5625 94.375 492.1562 95.0078 Q492.75 95.6406 492.75 96.6406 Q492.75 97.8594 491.9219 98.5156 Q491.0938 99.1719 489.5469 99.1719 Q488.8594 99.1719 488.2109 99.0234 Q487.5625 98.875 486.9219 98.5781 L486.9219 96.875 L487.5781 96.875 Q487.625 97.7188 488.1406 98.1562 Q488.6562 98.5938 489.5781 98.5938 Q490.4688 98.5938 490.9922 98.0703 Q491.5156 97.5469 491.5156 96.6562 Q491.5156 95.625 490.9766 95.0938 Q490.4375 94.5625 489.4062 94.5625 L488.8594 94.5625 L488.8594 93.9531 L489.1406 93.9531 Q490.1719 93.9531 490.6875 93.5312 Q491.2031 93.1094 491.2031 92.25 Q491.2031 91.4844 490.7812 91.0781 Q490.3594 90.6719 489.5625 90.6719 Q488.7656 90.6719 488.3359 91.0469 Q487.9062 91.4219 487.8281 92.1562 L487.1719 92.1562 L487.1719 90.625 Z" style="fill:black; stroke:none;" /><rect height="13" style="stroke:none;" width="7" x="472" y="87" /><path d="M473.8281 99.25 Q474.2969 99.5938 475.1719 99.5938 Q476.0625 99.5938 476.5781 99.0703 Q477.0938 98.5469 477.0938 97.6562 Q477.0938 96.4219 476.5625 95.8906 Q476.0156 95.3594 475 95.3594 L474.4375 95.3594 L474.4375 94.7188 L474.7344 94.7188 Q475.4844 94.7188 476 94.2969 Q476.4219 93.9531 476.4219 93.0156 Q476.4219 92.6094 476.1406 92.1406 Q475.6875 91.375 475.1562 91.3906 Q473.8281 91.4375 473.8281 93.7812 L473.8281 99.25 ZM472.75 102.5 L472.75 93.7812 Q472.75 91.3281 474.0781 91 Q474.7656 90.8125 475.25 90.8125 Q476.3438 90.8125 477.0469 91.6719 Q477.6094 92.3594 477.6094 92.9375 Q477.6094 93.7812 477.2031 94.2656 Q476.7969 94.75 476.0625 94.9844 Q477.1406 95.1406 477.75 95.7812 Q478.3281 96.4062 478.3281 97.6328 Q478.3281 98.8594 477.5078 99.5156 Q476.6875 100.1719 475.1406 100.1719 Q474.1875 100.1719 473.8281 100.0312 L473.8281 102.5 L472.75 102.5 Z" style="fill:black; stroke:none;" /></g><g ID="li-1:1,2" style="fill:white; text-rendering:optimizeSpeed; font-family:'Serif'; stroke:white;"><rect height="9" style="stroke:none;" width="8" x="538" y="89" /><path d="M542.1875 95.0312 L542.1875 90.375 L539.2031 95.0312 L542.1875 95.0312 ZM544.7656 98 L540.7812 98 L540.7812 97.375 L542.1875 97.375 L542.1875 95.6562 L538.375 95.6562 L538.375 95.0156 L542.2031 89.0938 L543.3594 89.0938 L543.3594 95.0312 L545.0312 95.0312 L545.0312 95.6562 L543.3594 95.6562 L543.3594 97.375 L544.7656 97.375 L544.7656 98 Z" style="fill:black; stroke:none;" /><rect height="13" style="stroke:none;" width="7" x="524" y="87" /><path d="M525.8281 99.25 Q526.2969 99.5938 527.1719 99.5938 Q528.0625 99.5938 528.5781 99.0703 Q529.0938 98.5469 529.0938 97.6562 Q529.0938 96.4219 528.5625 95.8906 Q528.0156 95.3594 527 95.3594 L526.4375 95.3594 L526.4375 94.7188 L526.7344 94.7188 Q527.4844 94.7188 528 94.2969 Q528.4219 93.9531 528.4219 93.0156 Q528.4219 92.6094 528.1406 92.1406 Q527.6875 91.375 527.1562 91.3906 Q525.8281 91.4375 525.8281 93.7812 L525.8281 99.25 ZM524.75 102.5 L524.75 93.7812 Q524.75 91.3281 526.0781 91 Q526.7656 90.8125 527.25 90.8125 Q528.3438 90.8125 529.0469 91.6719 Q529.6094 92.3594 529.6094 92.9375 Q529.6094 93.7812 529.2031 94.2656 Q528.7969 94.75 528.0625 94.9844 Q529.1406 95.1406 529.75 95.7812 Q530.3281 96.4062 530.3281 97.6328 Q530.3281 98.8594 529.5078 99.5156 Q528.6875 100.1719 527.1406 100.1719 Q526.1875 100.1719 525.8281 100.0312 L525.8281 102.5 L524.75 102.5 Z" style="fill:black; stroke:none;" /></g></g></svg>