<svg xmlns="http://www.w3.org/2000/svg" style="fill-opacity:1; color-rendering:auto; color-interpolation:auto; text-rendering:auto; stroke:black; stroke-linecap:square; stroke-miterlimit:10; shape-rendering:auto; stroke-opacity:1; fill:black; stroke-dasharray:none; font-weight:normal; stroke-width:1; font-family:'Dialog'; font-style:normal; stroke-linejoin:miter; font-size:12px; stroke-dashoffset:0; image-rendering:auto;"><defs id="genericDefs" /><g><defs id="defs1"><clipPath clipPathUnits="userSpaceOnUse" id="clipPath1"><path d="M186 134 L208 134 L208 156 L186 156 L186 134 Z" /></clipPath><clipPath clipPathUnits="userSpaceOnUse" id="clipPath2"><path d="M156 197 C156 203.0751 151.0751 208 145 208 C138.9249 208 134 203.0751 134 197 C134 190.9249 138.9249 186 145 186 C151.0751 186 156 190.9249 156 197 Z" /></clipPath><clipPath clipPathUnits="userSpaceOnUse" id="clipPath3"><path d="M82 186 L104 186 L104 208 L82 208 L82 186 Z" /></clipPath><clipPath clipPathUnits="userSpaceOnUse" id="clipPath4"><path d="M52 197 C52 203.0751 47.0751 208 41 208 C34.9249 208 30 203.0751 30 197 C30 190.9249 34.9249 186 41 186 C47.0751 186 52 190.9249 52 197 Z" /></clipPath><clipPath clipPathUnits="userSpaceOnUse" id="clipPath5"><path d="M145 156 L134 134 L156 134 Z" style="fill-rule:evenodd;" /></clipPath><clipPath clipPathUnits="userSpaceOnUse" id="clipPath6"><path d="M134 82 L156 82 L156 104 L134 104 L134 82 Z" /></clipPath><clipPath clipPathUnits="userSpaceOnUse" id="clipPath7"><path d="M104 93 C104 99.0751 99.0751 104 93 104 C86.9249 104 82 99.0751 82 93 C82 86.9249 86.9249 82 93 82 C99.0751 82 104 86.9249 104 93 Z" /></clipPath><clipPath clipPathUnits="userSpaceOnUse" id="clipPath8"><path d="M93 52 L82 30 L104 30 Z" style="fill-rule:evenodd;" /></clipPath></defs><g style="fill:white; text-rendering:optimizeSpeed; stroke:white;"><rect height="238" style="stroke:none;" width="238" x="0" y="0" /></g><g ID="l-1:1,2" style="text-rendering:optimizeSpeed;"><polygon points=" 197 145 145 197" style="fill:none;" /></g><g ID="l-1:1,3" style="text-rendering:optimizeSpeed;"><polygon points=" 197 145 145 93" style="fill:none;" /></g><g ID="r-1:1" style="fill:white; text-rendering:optimizeSpeed; stroke:white;" wurcs_mono_id="1"><rect height="22" style="clip-path:url(#clipPath1); stroke:none;" width="22" x="186" y="134" /><rect height="22" style="clip-path:url(#clipPath1); fill:rgb(255,212,0); stroke:none;" width="22" x="186" y="134" /><rect height="22" style="clip-path:url(#clipPath1); fill:none; stroke:black;" width="22" x="186" y="134" /><rect height="22" style="fill:none; stroke:black;" width="22" x="186" y="134" /></g><g style="font-style:italic; text-rendering:optimizeSpeed; font-size:10px; font-family:'SansSerif';"><path d="M198.0938 142.1562 Q197.375 142.1562 196.8359 142.7188 Q196.2969 143.2812 196.0781 144.2656 Q195.875 145.25 196.1719 145.8125 Q196.4688 146.375 197.2031 146.375 Q197.9219 146.375 198.4609 145.8125 Q199 145.25 199.2031 144.2656 Q199.4062 143.2969 199.1094 142.7266 Q198.8125 142.1562 198.0938 142.1562 ZM198.25 141.4062 Q199.4219 141.4062 199.9297 142.1641 Q200.4375 142.9219 200.1562 144.2656 Q199.875 145.6094 199.0391 146.375 Q198.2031 147.1406 197.0312 147.1406 Q195.8594 147.1406 195.3516 146.375 Q194.8438 145.6094 195.125 144.2656 Q195.4062 142.9219 196.2422 142.1641 Q197.0781 141.4062 198.25 141.4062 Z" style="stroke:none;" /></g><g ID="l-1:2,4" style="text-rendering:optimizeSpeed;"><polygon points=" 145 197 93 197" style="fill:none;" /></g><g ID="l-1:2,5" style="text-rendering:optimizeSpeed;"><polygon points=" 145 197 145 145" style="fill:none;" /></g><g ID="r-1:2" style="fill:white; text-rendering:optimizeSpeed; stroke:white;" wurcs_mono_id="2"><circle cx="145" cy="197" r="11" style="clip-path:url(#clipPath2); stroke:none;" /><rect height="22" style="clip-path:url(#clipPath2); fill:rgb(255,212,0); stroke:none;" width="22" x="134" y="186" /><rect height="22" style="clip-path:url(#clipPath2); fill:none; stroke:black;" width="22" x="134" y="186" /><circle cx="145" cy="197" r="11" style="fill:none; stroke:black;" /></g><g ID="l-1:4,6" style="text-rendering:optimizeSpeed;"><polygon points=" 93 197 41 197" style="fill:none;" /></g><g ID="r-1:4" style="fill:white; text-rendering:optimizeSpeed; stroke:white;" wurcs_mono_id="3"><rect height="22" style="clip-path:url(#clipPath3); stroke:none;" width="22" x="82" y="186" /><rect height="22" style="clip-path:url(#clipPath3); fill:rgb(0,144,188); stroke:none;" width="22" x="82" y="186" /><rect height="22" style="clip-path:url(#clipPath3); fill:none; stroke:black;" width="22" x="82" y="186" /><rect height="22" style="fill:none; stroke:black;" width="22" x="82" y="186" /></g><g ID="r-1:6" style="fill:white; text-rendering:optimizeSpeed; stroke:white;" wurcs_mono_id="4"><circle cx="41" cy="197" r="11" style="clip-path:url(#clipPath4); stroke:none;" /><rect height="22" style="clip-path:url(#clipPath4); fill:rgb(255,212,0); stroke:none;" width="22" x="30" y="186" /><rect height="22" style="clip-path:url(#clipPath4); fill:none; stroke:black;" width="22" x="30" y="186" /><circle cx="41" cy="197" r="11" style="fill:none; stroke:black;" /></g><g ID="li-1:4,6" style="fill:white; text-rendering:optimizeSpeed; font-family:'Serif'; stroke:white;"><rect height="10" style="stroke:none;" width="6" x="71" y="200" /><path d="M73.1094 209.3906 Q73.1094 209.0625 73.3359 208.8359 Q73.5625 208.6094 73.8906 208.6094 Q74.2188 208.6094 74.4453 208.8359 Q74.6719 209.0625 74.6719 209.3906 Q74.6719 209.7188 74.4453 209.9453 Q74.2188 210.1719 73.8906 210.1719 Q73.5625 210.1719 73.3359 209.9453 Q73.1094 209.7188 73.1094 209.3906 ZM71.8125 201.6406 Q72.4375 201.3594 73 201.2266 Q73.5625 201.0938 74.0469 201.0938 Q75.3438 201.0938 76.1016 201.7188 Q76.8594 202.3438 76.8594 203.4062 Q76.8594 204.5 76.2109 205.1953 Q75.5625 205.8906 74.25 206.1875 L74.25 207.6719 L73.5312 207.6719 L73.5312 205.75 Q74.5625 205.5 75.0938 204.9062 Q75.625 204.3125 75.625 203.4062 Q75.625 202.5938 75.1953 202.1328 Q74.7656 201.6719 74.0312 201.6719 Q73.3594 201.6719 72.9297 202.0547 Q72.5 202.4375 72.3906 203.1562 L71.8125 203.1562 L71.8125 201.6406 Z" style="fill:black; stroke:none;" /><rect height="10" style="stroke:none;" width="6" x="57" y="200" /><path d="M59.1094 209.3906 Q59.1094 209.0625 59.3359 208.8359 Q59.5625 208.6094 59.8906 208.6094 Q60.2188 208.6094 60.4453 208.8359 Q60.6719 209.0625 60.6719 209.3906 Q60.6719 209.7188 60.4453 209.9453 Q60.2188 210.1719 59.8906 210.1719 Q59.5625 210.1719 59.3359 209.9453 Q59.1094 209.7188 59.1094 209.3906 ZM57.8125 201.6406 Q58.4375 201.3594 59 201.2266 Q59.5625 201.0938 60.0469 201.0938 Q61.3438 201.0938 62.1016 201.7188 Q62.8594 202.3438 62.8594 203.4062 Q62.8594 204.5 62.2109 205.1953 Q61.5625 205.8906 60.25 206.1875 L60.25 207.6719 L59.5312 207.6719 L59.5312 205.75 Q60.5625 205.5 61.0938 204.9062 Q61.625 204.3125 61.625 203.4062 Q61.625 202.5938 61.1953 202.1328 Q60.7656 201.6719 60.0312 201.6719 Q59.3594 201.6719 58.9297 202.0547 Q58.5 202.4375 58.3906 203.1562 L57.8125 203.1562 L57.8125 201.6406 Z" style="fill:black; stroke:none;" /></g><g ID="r-1:5" style="fill:white; text-rendering:optimizeSpeed; stroke:white;" wurcs_mono_id="5"><polygon points=" 145 156 134 134 156 134" style="stroke:none; clip-path:url(#clipPath5);" /><rect height="22" style="clip-path:url(#clipPath5); fill:rgb(237,28,36); stroke:none;" width="22" x="134" y="134" /><rect height="22" style="clip-path:url(#clipPath5); fill:none; stroke:black;" width="22" x="134" y="134" /><polygon points=" 145 156 134 134 156 134" style="fill:none; stroke:black;" /></g><g ID="li-1:2,4" style="fill:white; text-rendering:optimizeSpeed; font-family:'Serif'; stroke:white;"><rect height="10" style="stroke:none;" width="6" x="123" y="200" /><path d="M125.1094 209.3906 Q125.1094 209.0625 125.3359 208.8359 Q125.5625 208.6094 125.8906 208.6094 Q126.2188 208.6094 126.4453 208.8359 Q126.6719 209.0625 126.6719 209.3906 Q126.6719 209.7188 126.4453 209.9453 Q126.2188 210.1719 125.8906 210.1719 Q125.5625 210.1719 125.3359 209.9453 Q125.1094 209.7188 125.1094 209.3906 ZM123.8125 201.6406 Q124.4375 201.3594 125 201.2266 Q125.5625 201.0938 126.0469 201.0938 Q127.3438 201.0938 128.1016 201.7188 Q128.8594 202.3438 128.8594 203.4062 Q128.8594 204.5 128.2109 205.1953 Q127.5625 205.8906 126.25 206.1875 L126.25 207.6719 L125.5312 207.6719 L125.5312 205.75 Q126.5625 205.5 127.0938 204.9062 Q127.625 204.3125 127.625 203.4062 Q127.625 202.5938 127.1953 202.1328 Q126.7656 201.6719 126.0312 201.6719 Q125.3594 201.6719 124.9297 202.0547 Q124.5 202.4375 124.3906 203.1562 L123.8125 203.1562 L123.8125 201.6406 Z" style="fill:black; stroke:none;" /><rect height="10" style="stroke:none;" width="6" x="109" y="200" /><path d="M111.1094 209.3906 Q111.1094 209.0625 111.3359 208.8359 Q111.5625 208.6094 111.8906 208.6094 Q112.2188 208.6094 112.4453 208.8359 Q112.6719 209.0625 112.6719 209.3906 Q112.6719 209.7188 112.4453 209.9453 Q112.2188 210.1719 111.8906 210.1719 Q111.5625 210.1719 111.3359 209.9453 Q111.1094 209.7188 111.1094 209.3906 ZM109.8125 201.6406 Q110.4375 201.3594 111 201.2266 Q111.5625 201.0938 112.0469 201.0938 Q113.3438 201.0938 114.1016 201.7188 Q114.8594 202.3438 114.8594 203.4062 Q114.8594 204.5 114.2109 205.1953 Q113.5625 205.8906 112.25 206.1875 L112.25 207.6719 L111.5312 207.6719 L111.5312 205.75 Q112.5625 205.5 113.0938 204.9062 Q113.625 204.3125 113.625 203.4062 Q113.625 202.5938 113.1953 202.1328 Q112.7656 201.6719 112.0312 201.6719 Q111.3594 201.6719 110.9297 202.0547 Q110.5 202.4375 110.3906 203.1562 L109.8125 203.1562 L109.8125 201.6406 Z" style="fill:black; stroke:none;" /></g><g ID="li-1:2,5" style="fill:white; text-rendering:optimizeSpeed; font-family:'Serif'; stroke:white;"><rect height="10" style="stroke:none;" width="6" x="134" y="173" /><path d="M136.1094 182.3906 Q136.1094 182.0625 136.3359 181.8359 Q136.5625 181.6094 136.8906 181.6094 Q137.2188 181.6094 137.4453 181.8359 Q137.6719 182.0625 137.6719 182.3906 Q137.6719 182.7188 137.4453 182.9453 Q137.2188 183.1719 136.8906 183.1719 Q136.5625 183.1719 136.3359 182.9453 Q136.1094 182.7188 136.1094 182.3906 ZM134.8125 174.6406 Q135.4375 174.3594 136 174.2266 Q136.5625 174.0938 137.0469 174.0938 Q138.3438 174.0938 139.1016 174.7188 Q139.8594 175.3438 139.8594 176.4062 Q139.8594 177.5 139.2109 178.1953 Q138.5625 178.8906 137.25 179.1875 L137.25 180.6719 L136.5312 180.6719 L136.5312 178.75 Q137.5625 178.5 138.0938 177.9062 Q138.625 177.3125 138.625 176.4062 Q138.625 175.5938 138.1953 175.1328 Q137.7656 174.6719 137.0312 174.6719 Q136.3594 174.6719 135.9297 175.0547 Q135.5 175.4375 135.3906 176.1562 L134.8125 176.1562 L134.8125 174.6406 Z" style="fill:black; stroke:none;" /><rect height="10" style="stroke:none;" width="6" x="134" y="159" /><path d="M136.1094 168.3906 Q136.1094 168.0625 136.3359 167.8359 Q136.5625 167.6094 136.8906 167.6094 Q137.2188 167.6094 137.4453 167.8359 Q137.6719 168.0625 137.6719 168.3906 Q137.6719 168.7188 137.4453 168.9453 Q137.2188 169.1719 136.8906 169.1719 Q136.5625 169.1719 136.3359 168.9453 Q136.1094 168.7188 136.1094 168.3906 ZM134.8125 160.6406 Q135.4375 160.3594 136 160.2266 Q136.5625 160.0938 137.0469 160.0938 Q138.3438 160.0938 139.1016 160.7188 Q139.8594 161.3438 139.8594 162.4062 Q139.8594 163.5 139.2109 164.1953 Q138.5625 164.8906 137.25 165.1875 L137.25 166.6719 L136.5312 166.6719 L136.5312 164.75 Q137.5625 164.5 138.0938 163.9062 Q138.625 163.3125 138.625 162.4062 Q138.625 161.5938 138.1953 161.1328 Q137.7656 160.6719 137.0312 160.6719 Q136.3594 160.6719 135.9297 161.0547 Q135.5 161.4375 135.3906 162.1562 L134.8125 162.1562 L134.8125 160.6406 Z" style="fill:black; stroke:none;" /></g><g ID="l-1:3,7" style="text-rendering:optimizeSpeed;"><polygon points=" 145 93 93 93" style="fill:none;" /></g><g ID="r-1:3" style="fill:white; text-rendering:optimizeSpeed; stroke:white;" wurcs_mono_id="6"><rect height="22" style="clip-path:url(#clipPath6); stroke:none;" width="22" x="134" y="82" /><rect height="22" style="clip-path:url(#clipPath6); fill:rgb(0,144,188); stroke:none;" width="22" x="134" y="82" /><rect height="22" style="clip-path:url(#clipPath6); fill:none; stroke:black;" width="22" x="134" y="82" /><rect height="22" style="fill:none; stroke:black;" width="22" x="134" y="82" /></g><g ID="l-1:7,8" style="text-rendering:optimizeSpeed;"><polygon points=" 93 93 93 41" style="fill:none;" /></g><g ID="r-1:7" style="fill:white; text-rendering:optimizeSpeed; stroke:white;" wurcs_mono_id="7"><circle cx="93" cy="93" r="11" style="clip-path:url(#clipPath7); stroke:none;" /><rect height="22" style="clip-path:url(#clipPath7); fill:rgb(255,212,0); stroke:none;" width="22" x="82" y="82" /><rect height="22" style="clip-path:url(#clipPath7); fill:none; stroke:black;" width="22" x="82" y="82" /><circle cx="93" cy="93" r="11" style="fill:none; stroke:black;" /></g><g ID="r-1:8" style="fill:white; text-rendering:optimizeSpeed; stroke:white;" wurcs_mono_id="8"><polygon points=" 93 52 82 30 104 30" style="stroke:none; clip-path:url(#clipPath8);" /><rect height="22" style="clip-path:url(#clipPath8); fill:rgb(237,28,36); stroke:none;" width="22" x="82" y="30" /><rect height="22" style="clip-path:url(#clipPath8); fill:none; stroke:black;" width="22" x="82" y="30" /><polygon points=" 93 52 82 30 104 30" style="fill:none; stroke:black;" /></g><g ID="li-1:7,8" style="fill:white; text-rendering:optimizeSpeed; font-family:'Serif'; stroke:white;"><rect height="10" style="stroke:none;" width="6" x="82" y="69" /><path d="M84.1094 78.3906 Q84.1094 78.0625 84.3359 77.8359 Q84.5625 77.6094 84.8906 77.6094 Q85.2188 77.6094 85.4453 77.8359 Q85.6719 78.0625 85.6719 78.3906 Q85.6719 78.7188 85.4453 78.9453 Q85.2188 79.1719 84.8906 79.1719 Q84.5625 79.1719 84.3359 78.9453 Q84.1094 78.7188 84.1094 78.3906 ZM82.8125 70.6406 Q83.4375 70.3594 84 70.2266 Q84.5625 70.0938 85.0469 70.0938 Q86.3438 70.0938 87.1016 70.7188 Q87.8594 71.3438 87.8594 72.4062 Q87.8594 73.5 87.2109 74.1953 Q86.5625 74.8906 85.25 75.1875 L85.25 76.6719 L84.5312 76.6719 L84.5312 74.75 Q85.5625 74.5 86.0938 73.9062 Q86.625 73.3125 86.625 72.4062 Q86.625 71.5938 86.1953 71.1328 Q85.7656 70.6719 85.0312 70.6719 Q84.3594 70.6719 83.9297 71.0547 Q83.5 71.4375 83.3906 72.1562 L82.8125 72.1562 L82.8125 70.6406 Z" style="fill:black; stroke:none;" /><rect height="10" style="stroke:none;" width="6" x="82" y="55" /><path d="M84.1094 64.3906 Q84.1094 64.0625 84.3359 63.8359 Q84.5625 63.6094 84.8906 63.6094 Q85.2188 63.6094 85.4453 63.8359 Q85.6719 64.0625 85.6719 64.3906 Q85.6719 64.7188 85.4453 64.9453 Q85.2188 65.1719 84.8906 65.1719 Q84.5625 65.1719 84.3359 64.9453 Q84.1094 64.7188 84.1094 64.3906 ZM82.8125 56.6406 Q83.4375 56.3594 84 56.2266 Q84.5625 56.0938 85.0469 56.0938 Q86.3438 56.0938 87.1016 56.7188 Q87.8594 57.3438 87.8594 58.4062 Q87.8594 59.5 87.2109 60.1953 Q86.5625 60.8906 85.25 61.1875 L85.25 62.6719 L84.5312 62.6719 L84.5312 60.75 Q85.5625 60.5 86.0938 59.9062 Q86.625 59.3125 86.625 58.4062 Q86.625 57.5938 86.1953 57.1328 Q85.7656 56.6719 85.0312 56.6719 Q84.3594 56.6719 83.9297 57.0547 Q83.5 57.4375 83.3906 58.1562 L82.8125 58.1562 L82.8125 56.6406 Z" style="fill:black; stroke:none;" /></g><g ID="li-1:3,7" style="fill:white; text-rendering:optimizeSpeed; font-family:'Serif'; stroke:white;"><rect height="10" style="stroke:none;" width="6" x="123" y="96" /><path d="M125.1094 105.3906 Q125.1094 105.0625 125.3359 104.8359 Q125.5625 104.6094 125.8906 104.6094 Q126.2188 104.6094 126.4453 104.8359 Q126.6719 105.0625 126.6719 105.3906 Q126.6719 105.7188 126.4453 105.9453 Q126.2188 106.1719 125.8906 106.1719 Q125.5625 106.1719 125.3359 105.9453 Q125.1094 105.7188 125.1094 105.3906 ZM123.8125 97.6406 Q124.4375 97.3594 125 97.2266 Q125.5625 97.0938 126.0469 97.0938 Q127.3438 97.0938 128.1016 97.7188 Q128.8594 98.3438 128.8594 99.4062 Q128.8594 100.5 128.2109 101.1953 Q127.5625 101.8906 126.25 102.1875 L126.25 103.6719 L125.5312 103.6719 L125.5312 101.75 Q126.5625 101.5 127.0938 100.9062 Q127.625 100.3125 127.625 99.4062 Q127.625 98.5938 127.1953 98.1328 Q126.7656 97.6719 126.0312 97.6719 Q125.3594 97.6719 124.9297 98.0547 Q124.5 98.4375 124.3906 99.1562 L123.8125 99.1562 L123.8125 97.6406 Z" style="fill:black; stroke:none;" /><rect height="10" style="stroke:none;" width="6" x="109" y="96" /><path d="M111.1094 105.3906 Q111.1094 105.0625 111.3359 104.8359 Q111.5625 104.6094 111.8906 104.6094 Q112.2188 104.6094 112.4453 104.8359 Q112.6719 105.0625 112.6719 105.3906 Q112.6719 105.7188 112.4453 105.9453 Q112.2188 106.1719 111.8906 106.1719 Q111.5625 106.1719 111.3359 105.9453 Q111.1094 105.7188 111.1094 105.3906 ZM109.8125 97.6406 Q110.4375 97.3594 111 97.2266 Q111.5625 97.0938 112.0469 97.0938 Q113.3438 97.0938 114.1016 97.7188 Q114.8594 98.3438 114.8594 99.4062 Q114.8594 100.5 114.2109 101.1953 Q113.5625 101.8906 112.25 102.1875 L112.25 103.6719 L111.5312 103.6719 L111.5312 101.75 Q112.5625 101.5 113.0938 100.9062 Q113.625 100.3125 113.625 99.4062 Q113.625 98.5938 113.1953 98.1328 Q112.7656 97.6719 112.0312 97.6719 Q111.3594 97.6719 110.9297 98.0547 Q110.5 98.4375 110.3906 99.1562 L109.8125 99.1562 L109.8125 97.6406 Z" style="fill:black; stroke:none;" /></g><g ID="li-1:1,2" style="fill:white; text-rendering:optimizeSpeed; font-family:'Serif'; stroke:white;"><rect height="10" style="stroke:none;" width="6" x="183" y="162" /><path d="M185.1094 171.3906 Q185.1094 171.0625 185.3359 170.8359 Q185.5625 170.6094 185.8906 170.6094 Q186.2188 170.6094 186.4453 170.8359 Q186.6719 171.0625 186.6719 171.3906 Q186.6719 171.7188 186.4453 171.9453 Q186.2188 172.1719 185.8906 172.1719 Q185.5625 172.1719 185.3359 171.9453 Q185.1094 171.7188 185.1094 171.3906 ZM183.8125 163.6406 Q184.4375 163.3594 185 163.2266 Q185.5625 163.0938 186.0469 163.0938 Q187.3438 163.0938 188.1016 163.7188 Q188.8594 164.3438 188.8594 165.4062 Q188.8594 166.5 188.2109 167.1953 Q187.5625 167.8906 186.25 168.1875 L186.25 169.6719 L185.5312 169.6719 L185.5312 167.75 Q186.5625 167.5 187.0938 166.9062 Q187.625 166.3125 187.625 165.4062 Q187.625 164.5938 187.1953 164.1328 Q186.7656 163.6719 186.0312 163.6719 Q185.3594 163.6719 184.9297 164.0547 Q184.5 164.4375 184.3906 165.1562 L183.8125 165.1562 L183.8125 163.6406 Z" style="fill:black; stroke:none;" /><rect height="10" style="stroke:none;" width="6" x="164" y="181" /><path d="M166.1094 190.3906 Q166.1094 190.0625 166.3359 189.8359 Q166.5625 189.6094 166.8906 189.6094 Q167.2188 189.6094 167.4453 189.8359 Q167.6719 190.0625 167.6719 190.3906 Q167.6719 190.7188 167.4453 190.9453 Q167.2188 191.1719 166.8906 191.1719 Q166.5625 191.1719 166.3359 190.9453 Q166.1094 190.7188 166.1094 190.3906 ZM164.8125 182.6406 Q165.4375 182.3594 166 182.2266 Q166.5625 182.0938 167.0469 182.0938 Q168.3438 182.0938 169.1016 182.7188 Q169.8594 183.3438 169.8594 184.4062 Q169.8594 185.5 169.2109 186.1953 Q168.5625 186.8906 167.25 187.1875 L167.25 188.6719 L166.5312 188.6719 L166.5312 186.75 Q167.5625 186.5 168.0938 185.9062 Q168.625 185.3125 168.625 184.4062 Q168.625 183.5938 168.1953 183.1328 Q167.7656 182.6719 167.0312 182.6719 Q166.3594 182.6719 165.9297 183.0547 Q165.5 183.4375 165.3906 184.1562 L164.8125 184.1562 L164.8125 182.6406 Z" style="fill:black; stroke:none;" /></g><g ID="li-1:1,3" style="fill:white; text-rendering:optimizeSpeed; font-family:'Serif'; stroke:white;"><rect height="10" style="stroke:none;" width="6" x="171" y="129" /><path d="M173.1094 138.3906 Q173.1094 138.0625 173.3359 137.8359 Q173.5625 137.6094 173.8906 137.6094 Q174.2188 137.6094 174.4453 137.8359 Q174.6719 138.0625 174.6719 138.3906 Q174.6719 138.7188 174.4453 138.9453 Q174.2188 139.1719 173.8906 139.1719 Q173.5625 139.1719 173.3359 138.9453 Q173.1094 138.7188 173.1094 138.3906 ZM171.8125 130.6406 Q172.4375 130.3594 173 130.2266 Q173.5625 130.0938 174.0469 130.0938 Q175.3438 130.0938 176.1016 130.7188 Q176.8594 131.3438 176.8594 132.4062 Q176.8594 133.5 176.2109 134.1953 Q175.5625 134.8906 174.25 135.1875 L174.25 136.6719 L173.5312 136.6719 L173.5312 134.75 Q174.5625 134.5 175.0938 133.9062 Q175.625 133.3125 175.625 132.4062 Q175.625 131.5938 175.1953 131.1328 Q174.7656 130.6719 174.0312 130.6719 Q173.3594 130.6719 172.9297 131.0547 Q172.5 131.4375 172.3906 132.1562 L171.8125 132.1562 L171.8125 130.6406 Z" style="fill:black; stroke:none;" /><rect height="10" style="stroke:none;" width="6" x="153" y="110" /><path d="M155.1094 119.3906 Q155.1094 119.0625 155.3359 118.8359 Q155.5625 118.6094 155.8906 118.6094 Q156.2188 118.6094 156.4453 118.8359 Q156.6719 119.0625 156.6719 119.3906 Q156.6719 119.7188 156.4453 119.9453 Q156.2188 120.1719 155.8906 120.1719 Q155.5625 120.1719 155.3359 119.9453 Q155.1094 119.7188 155.1094 119.3906 ZM153.8125 111.6406 Q154.4375 111.3594 155 111.2266 Q155.5625 111.0938 156.0469 111.0938 Q157.3438 111.0938 158.1016 111.7188 Q158.8594 112.3438 158.8594 113.4062 Q158.8594 114.5 158.2109 115.1953 Q157.5625 115.8906 156.25 116.1875 L156.25 117.6719 L155.5312 117.6719 L155.5312 115.75 Q156.5625 115.5 157.0938 114.9062 Q157.625 114.3125 157.625 113.4062 Q157.625 112.5938 157.1953 112.1328 Q156.7656 111.6719 156.0312 111.6719 Q155.3594 111.6719 154.9297 112.0547 Q154.5 112.4375 154.3906 113.1562 L153.8125 113.1562 L153.8125 111.6406 Z" style="fill:black; stroke:none;" /></g></g></svg>