<svg xmlns="http://www.w3.org/2000/svg" style="fill-opacity:1; color-rendering:auto; color-interpolation:auto; text-rendering:auto; stroke:black; stroke-linecap:square; stroke-miterlimit:10; shape-rendering:auto; stroke-opacity:1; fill:black; stroke-dasharray:none; font-weight:normal; stroke-width:1; font-family:'Dialog'; font-style:normal; stroke-linejoin:miter; font-size:12px; stroke-dashoffset:0; image-rendering:auto;"><defs id="genericDefs" /><g><defs id="defs1"><clipPath clipPathUnits="userSpaceOnUse" id="clipPath1"><path d="M238 56 L260 56 L260 78 L238 78 L238 56 Z" /></clipPath><clipPath clipPathUnits="userSpaceOnUse" id="clipPath2"><path d="M208 93 C208 99.0751 203.0751 104 197 104 C190.9249 104 186 99.0751 186 93 C186 86.9249 190.9249 82 197 82 C203.0751 82 208 86.9249 208 93 Z" /></clipPath><clipPath clipPathUnits="userSpaceOnUse" id="clipPath3"><path d="M134 82 L156 82 L156 104 L134 104 L134 82 Z" /></clipPath><clipPath clipPathUnits="userSpaceOnUse" id="clipPath4"><path d="M104 93 C104 99.0751 99.0751 104 93 104 C86.9249 104 82 99.0751 82 93 C82 86.9249 86.9249 82 93 82 C99.0751 82 104 86.9249 104 93 Z" /></clipPath><clipPath clipPathUnits="userSpaceOnUse" id="clipPath5"><path d="M30 82 L52 82 L52 104 L30 104 L30 82 Z" /></clipPath><clipPath clipPathUnits="userSpaceOnUse" id="clipPath6"><path d="M186 30 L208 30 L208 52 L186 52 L186 30 Z" /></clipPath><clipPath clipPathUnits="userSpaceOnUse" id="clipPath7"><path d="M156 41 C156 47.0751 151.0751 52 145 52 C138.9249 52 134 47.0751 134 41 C134 34.9249 138.9249 30 145 30 C151.0751 30 156 34.9249 156 41 Z" /></clipPath><clipPath clipPathUnits="userSpaceOnUse" id="clipPath8"><path d="M82 30 L104 30 L104 52 L82 52 L82 30 Z" /></clipPath></defs><g style="fill:white; text-rendering:optimizeSpeed; stroke:white;"><rect height="134" style="stroke:none;" width="290" x="0" y="0" /></g><g ID="l-1:1,2" style="text-rendering:optimizeSpeed;"><polygon points=" 249 67 197 93" style="fill:none;" /></g><g ID="l-1:1,3" style="text-rendering:optimizeSpeed;"><polygon points=" 249 67 197 41" style="fill:none;" /></g><g ID="r-1:1" style="fill:white; text-rendering:optimizeSpeed; stroke:white;" wurcs_mono_id="1"><rect height="22" style="clip-path:url(#clipPath1); stroke:none;" width="22" x="238" y="56" /><rect height="22" style="clip-path:url(#clipPath1); fill:rgb(255,212,0); stroke:none;" width="22" x="238" y="56" /><rect height="22" style="clip-path:url(#clipPath1); fill:none; stroke:black;" width="22" x="238" y="56" /><rect height="22" style="fill:none; stroke:black;" width="22" x="238" y="56" /></g><g style="font-style:italic; text-rendering:optimizeSpeed; font-size:10px; font-family:'SansSerif';"><path d="M250.0938 64.1562 Q249.375 64.1562 248.8359 64.7188 Q248.2969 65.2812 248.0781 66.2656 Q247.875 67.25 248.1719 67.8125 Q248.4688 68.375 249.2031 68.375 Q249.9219 68.375 250.4609 67.8125 Q251 67.25 251.2031 66.2656 Q251.4062 65.2969 251.1094 64.7266 Q250.8125 64.1562 250.0938 64.1562 ZM250.25 63.4062 Q251.4219 63.4062 251.9297 64.1641 Q252.4375 64.9219 252.1562 66.2656 Q251.875 67.6094 251.0391 68.375 Q250.2031 69.1406 249.0312 69.1406 Q247.8594 69.1406 247.3516 68.375 Q246.8438 67.6094 247.125 66.2656 Q247.4062 64.9219 248.2422 64.1641 Q249.0781 63.4062 250.25 63.4062 Z" style="stroke:none;" /></g><g ID="l-1:2,4" style="text-rendering:optimizeSpeed;"><polygon points=" 197 93 145 93" style="fill:none;" /></g><g ID="r-1:2" style="fill:white; text-rendering:optimizeSpeed; stroke:white;" wurcs_mono_id="2"><circle cx="197" cy="93" r="11" style="clip-path:url(#clipPath2); stroke:none;" /><rect height="22" style="clip-path:url(#clipPath2); fill:rgb(255,212,0); stroke:none;" width="22" x="186" y="82" /><rect height="22" style="clip-path:url(#clipPath2); fill:none; stroke:black;" width="22" x="186" y="82" /><circle cx="197" cy="93" r="11" style="fill:none; stroke:black;" /></g><g ID="l-1:4,5" style="text-rendering:optimizeSpeed;"><polygon points=" 145 93 93 93" style="fill:none;" /></g><g ID="r-1:4" style="fill:white; text-rendering:optimizeSpeed; stroke:white;" wurcs_mono_id="3"><rect height="22" style="clip-path:url(#clipPath3); stroke:none;" width="22" x="134" y="82" /><rect height="22" style="clip-path:url(#clipPath3); fill:rgb(0,144,188); stroke:none;" width="22" x="134" y="82" /><rect height="22" style="clip-path:url(#clipPath3); fill:none; stroke:black;" width="22" x="134" y="82" /><rect height="22" style="fill:none; stroke:black;" width="22" x="134" y="82" /></g><g ID="l-1:5,6" style="text-rendering:optimizeSpeed;"><polygon points=" 93 93 41 93" style="fill:none;" /></g><g ID="r-1:5" style="fill:white; text-rendering:optimizeSpeed; stroke:white;" wurcs_mono_id="4"><circle cx="93" cy="93" r="11" style="clip-path:url(#clipPath4); stroke:none;" /><rect height="22" style="clip-path:url(#clipPath4); fill:rgb(255,212,0); stroke:none;" width="22" x="82" y="82" /><rect height="22" style="clip-path:url(#clipPath4); fill:none; stroke:black;" width="22" x="82" y="82" /><circle cx="93" cy="93" r="11" style="fill:none; stroke:black;" /></g><g ID="r-1:6" style="fill:white; text-rendering:optimizeSpeed; stroke:white;" wurcs_mono_id="5"><rect height="22" style="clip-path:url(#clipPath5); stroke:none;" width="22" x="30" y="82" /><rect height="22" style="clip-path:url(#clipPath5); fill:rgb(0,144,188); stroke:none;" width="22" x="30" y="82" /><rect height="22" style="clip-path:url(#clipPath5); fill:none; stroke:black;" width="22" x="30" y="82" /><rect height="22" style="fill:none; stroke:black;" width="22" x="30" y="82" /></g><g ID="li-1:5,6" style="fill:white; text-rendering:optimizeSpeed; font-family:'Serif'; stroke:white;"><rect height="9" style="stroke:none;" width="8" x="70" y="96" /><path d="M74.1875 102.0312 L74.1875 97.375 L71.2031 102.0312 L74.1875 102.0312 ZM76.7656 105 L72.7812 105 L72.7812 104.375 L74.1875 104.375 L74.1875 102.6562 L70.375 102.6562 L70.375 102.0156 L74.2031 96.0938 L75.3594 96.0938 L75.3594 102.0312 L77.0312 102.0312 L77.0312 102.6562 L75.3594 102.6562 L75.3594 104.375 L76.7656 104.375 L76.7656 105 Z" style="fill:black; stroke:none;" /><rect height="8" style="stroke:none;" width="8" x="56" y="97" /><path d="M61.1875 103.4688 L60.9531 104.1094 Q60.7656 104.625 60.2031 104.9375 Q59.8438 105.1562 59.2031 105.1406 Q58.0469 105.1406 57.3281 104.2344 Q56.5938 103.3281 56.5938 101.8594 Q56.5938 100.4219 57.3281 99.4844 Q58.0156 98.5938 59.4531 98.6094 Q60.4531 98.6094 60.9531 99 Q61.4062 99.3438 61.5781 100.0938 L61.625 100.3125 L61.8438 99.6719 Q62.0625 99.0469 62.6562 98.75 L63.25 98.75 L63.25 99.0938 Q62.6875 99.2656 62.5 99.8125 L61.8906 101.4844 L62.2969 103.2812 Q62.5 104.2031 62.7344 104.2969 Q63.0469 104.4375 63.7812 104 L63.7812 104.7188 Q62.5938 105.4062 61.75 104.6875 Q61.375 104.3594 61.2656 103.875 L61.1875 103.4688 ZM60.9219 102.3125 L60.5625 100.5938 Q60.2656 99.2188 59.4688 99.2188 Q58.7969 99.2031 58.2812 99.9375 Q57.8594 100.5156 57.8594 101.875 Q57.8594 103.1719 58.2812 103.8281 Q58.75 104.5469 59.5312 104.5 Q60.2031 104.4375 60.6875 103 L60.9219 102.3125 Z" style="fill:black; stroke:none;" /></g><g ID="li-1:4,5" style="fill:white; text-rendering:optimizeSpeed; font-family:'Serif'; stroke:white;"><rect height="10" style="stroke:none;" width="6" x="123" y="96" /><path d="M125.1094 105.3906 Q125.1094 105.0625 125.3359 104.8359 Q125.5625 104.6094 125.8906 104.6094 Q126.2188 104.6094 126.4453 104.8359 Q126.6719 105.0625 126.6719 105.3906 Q126.6719 105.7188 126.4453 105.9453 Q126.2188 106.1719 125.8906 106.1719 Q125.5625 106.1719 125.3359 105.9453 Q125.1094 105.7188 125.1094 105.3906 ZM123.8125 97.6406 Q124.4375 97.3594 125 97.2266 Q125.5625 97.0938 126.0469 97.0938 Q127.3438 97.0938 128.1016 97.7188 Q128.8594 98.3438 128.8594 99.4062 Q128.8594 100.5 128.2109 101.1953 Q127.5625 101.8906 126.25 102.1875 L126.25 103.6719 L125.5312 103.6719 L125.5312 101.75 Q126.5625 101.5 127.0938 100.9062 Q127.625 100.3125 127.625 99.4062 Q127.625 98.5938 127.1953 98.1328 Q126.7656 97.6719 126.0312 97.6719 Q125.3594 97.6719 124.9297 98.0547 Q124.5 98.4375 124.3906 99.1562 L123.8125 99.1562 L123.8125 97.6406 Z" style="fill:black; stroke:none;" /><rect height="10" style="stroke:none;" width="6" x="109" y="96" /><path d="M111.1094 105.3906 Q111.1094 105.0625 111.3359 104.8359 Q111.5625 104.6094 111.8906 104.6094 Q112.2188 104.6094 112.4453 104.8359 Q112.6719 105.0625 112.6719 105.3906 Q112.6719 105.7188 112.4453 105.9453 Q112.2188 106.1719 111.8906 106.1719 Q111.5625 106.1719 111.3359 105.9453 Q111.1094 105.7188 111.1094 105.3906 ZM109.8125 97.6406 Q110.4375 97.3594 111 97.2266 Q111.5625 97.0938 112.0469 97.0938 Q113.3438 97.0938 114.1016 97.7188 Q114.8594 98.3438 114.8594 99.4062 Q114.8594 100.5 114.2109 101.1953 Q113.5625 101.8906 112.25 102.1875 L112.25 103.6719 L111.5312 103.6719 L111.5312 101.75 Q112.5625 101.5 113.0938 100.9062 Q113.625 100.3125 113.625 99.4062 Q113.625 98.5938 113.1953 98.1328 Q112.7656 97.6719 112.0312 97.6719 Q111.3594 97.6719 110.9297 98.0547 Q110.5 98.4375 110.3906 99.1562 L109.8125 99.1562 L109.8125 97.6406 Z" style="fill:black; stroke:none;" /></g><g ID="li-1:2,4" style="fill:white; text-rendering:optimizeSpeed; font-family:'Serif'; stroke:white;"><rect height="10" style="stroke:none;" width="7" x="174" y="96" /><path d="M175.1719 97.625 Q175.8594 97.3594 176.4844 97.2266 Q177.1094 97.0938 177.6562 97.0938 Q178.9531 97.0938 179.6719 97.6484 Q180.3906 98.2031 180.3906 99.1875 Q180.3906 99.9688 179.8906 100.5 Q179.3906 101.0312 178.4844 101.2188 Q179.5625 101.375 180.1562 102.0078 Q180.75 102.6406 180.75 103.6406 Q180.75 104.8594 179.9219 105.5156 Q179.0938 106.1719 177.5469 106.1719 Q176.8594 106.1719 176.2109 106.0234 Q175.5625 105.875 174.9219 105.5781 L174.9219 103.875 L175.5781 103.875 Q175.625 104.7188 176.1406 105.1562 Q176.6562 105.5938 177.5781 105.5938 Q178.4688 105.5938 178.9922 105.0703 Q179.5156 104.5469 179.5156 103.6562 Q179.5156 102.625 178.9766 102.0938 Q178.4375 101.5625 177.4062 101.5625 L176.8594 101.5625 L176.8594 100.9531 L177.1406 100.9531 Q178.1719 100.9531 178.6875 100.5312 Q179.2031 100.1094 179.2031 99.25 Q179.2031 98.4844 178.7812 98.0781 Q178.3594 97.6719 177.5625 97.6719 Q176.7656 97.6719 176.3359 98.0469 Q175.9062 98.4219 175.8281 99.1562 L175.1719 99.1562 L175.1719 97.625 Z" style="fill:black; stroke:none;" /><rect height="13" style="stroke:none;" width="7" x="160" y="94" /><path d="M161.8281 106.25 Q162.2969 106.5938 163.1719 106.5938 Q164.0625 106.5938 164.5781 106.0703 Q165.0938 105.5469 165.0938 104.6562 Q165.0938 103.4219 164.5625 102.8906 Q164.0156 102.3594 163 102.3594 L162.4375 102.3594 L162.4375 101.7188 L162.7344 101.7188 Q163.4844 101.7188 164 101.2969 Q164.4219 100.9531 164.4219 100.0156 Q164.4219 99.6094 164.1406 99.1406 Q163.6875 98.375 163.1562 98.3906 Q161.8281 98.4375 161.8281 100.7812 L161.8281 106.25 ZM160.75 109.5 L160.75 100.7812 Q160.75 98.3281 162.0781 98 Q162.7656 97.8125 163.25 97.8125 Q164.3438 97.8125 165.0469 98.6719 Q165.6094 99.3594 165.6094 99.9375 Q165.6094 100.7812 165.2031 101.2656 Q164.7969 101.75 164.0625 101.9844 Q165.1406 102.1406 165.75 102.7812 Q166.3281 103.4062 166.3281 104.6328 Q166.3281 105.8594 165.5078 106.5156 Q164.6875 107.1719 163.1406 107.1719 Q162.1875 107.1719 161.8281 107.0312 L161.8281 109.5 L160.75 109.5 Z" style="fill:black; stroke:none;" /></g><g ID="l-1:3,7" style="text-rendering:optimizeSpeed;"><polygon points=" 197 41 145 41" style="fill:none;" /></g><g ID="r-1:3" style="fill:white; text-rendering:optimizeSpeed; stroke:white;" wurcs_mono_id="6"><rect height="22" style="clip-path:url(#clipPath6); stroke:none;" width="22" x="186" y="30" /><rect height="22" style="clip-path:url(#clipPath6); fill:rgb(0,144,188); stroke:none;" width="22" x="186" y="30" /><rect height="22" style="clip-path:url(#clipPath6); fill:none; stroke:black;" width="22" x="186" y="30" /><rect height="22" style="fill:none; stroke:black;" width="22" x="186" y="30" /></g><g ID="l-1:7,8" style="text-rendering:optimizeSpeed;"><polygon points=" 145 41 93 41" style="fill:none;" /></g><g ID="r-1:7" style="fill:white; text-rendering:optimizeSpeed; stroke:white;" wurcs_mono_id="7"><circle cx="145" cy="41" r="11" style="clip-path:url(#clipPath7); stroke:none;" /><rect height="22" style="clip-path:url(#clipPath7); fill:rgb(255,212,0); stroke:none;" width="22" x="134" y="30" /><rect height="22" style="clip-path:url(#clipPath7); fill:none; stroke:black;" width="22" x="134" y="30" /><circle cx="145" cy="41" r="11" style="fill:none; stroke:black;" /></g><g ID="r-1:8" style="fill:white; text-rendering:optimizeSpeed; stroke:white;" wurcs_mono_id="8"><rect height="22" style="clip-path:url(#clipPath8); stroke:none;" width="22" x="82" y="30" /><rect height="22" style="clip-path:url(#clipPath8); fill:rgb(0,144,188); stroke:none;" width="22" x="82" y="30" /><rect height="22" style="clip-path:url(#clipPath8); fill:none; stroke:black;" width="22" x="82" y="30" /><rect height="22" style="fill:none; stroke:black;" width="22" x="82" y="30" /></g><g ID="li-1:7,8" style="fill:white; text-rendering:optimizeSpeed; font-family:'Serif'; stroke:white;"><rect height="9" style="stroke:none;" width="8" x="122" y="44" /><path d="M126.1875 50.0312 L126.1875 45.375 L123.2031 50.0312 L126.1875 50.0312 ZM128.7656 53 L124.7812 53 L124.7812 52.375 L126.1875 52.375 L126.1875 50.6562 L122.375 50.6562 L122.375 50.0156 L126.2031 44.0938 L127.3594 44.0938 L127.3594 50.0312 L129.0312 50.0312 L129.0312 50.6562 L127.3594 50.6562 L127.3594 52.375 L128.7656 52.375 L128.7656 53 Z" style="fill:black; stroke:none;" /><rect height="8" style="stroke:none;" width="8" x="108" y="45" /><path d="M113.1875 51.4688 L112.9531 52.1094 Q112.7656 52.625 112.2031 52.9375 Q111.8438 53.1562 111.2031 53.1406 Q110.0469 53.1406 109.3281 52.2344 Q108.5938 51.3281 108.5938 49.8594 Q108.5938 48.4219 109.3281 47.4844 Q110.0156 46.5938 111.4531 46.6094 Q112.4531 46.6094 112.9531 47 Q113.4062 47.3438 113.5781 48.0938 L113.625 48.3125 L113.8438 47.6719 Q114.0625 47.0469 114.6562 46.75 L115.25 46.75 L115.25 47.0938 Q114.6875 47.2656 114.5 47.8125 L113.8906 49.4844 L114.2969 51.2812 Q114.5 52.2031 114.7344 52.2969 Q115.0469 52.4375 115.7812 52 L115.7812 52.7188 Q114.5938 53.4062 113.75 52.6875 Q113.375 52.3594 113.2656 51.875 L113.1875 51.4688 ZM112.9219 50.3125 L112.5625 48.5938 Q112.2656 47.2188 111.4688 47.2188 Q110.7969 47.2031 110.2812 47.9375 Q109.8594 48.5156 109.8594 49.875 Q109.8594 51.1719 110.2812 51.8281 Q110.75 52.5469 111.5312 52.5 Q112.2031 52.4375 112.6875 51 L112.9219 50.3125 Z" style="fill:black; stroke:none;" /></g><g ID="li-1:3,7" style="fill:white; text-rendering:optimizeSpeed; font-family:'Serif'; stroke:white;"><rect height="10" style="stroke:none;" width="6" x="175" y="44" /><path d="M177.1094 53.3906 Q177.1094 53.0625 177.3359 52.8359 Q177.5625 52.6094 177.8906 52.6094 Q178.2188 52.6094 178.4453 52.8359 Q178.6719 53.0625 178.6719 53.3906 Q178.6719 53.7188 178.4453 53.9453 Q178.2188 54.1719 177.8906 54.1719 Q177.5625 54.1719 177.3359 53.9453 Q177.1094 53.7188 177.1094 53.3906 ZM175.8125 45.6406 Q176.4375 45.3594 177 45.2266 Q177.5625 45.0938 178.0469 45.0938 Q179.3438 45.0938 180.1016 45.7188 Q180.8594 46.3438 180.8594 47.4062 Q180.8594 48.5 180.2109 49.1953 Q179.5625 49.8906 178.25 50.1875 L178.25 51.6719 L177.5312 51.6719 L177.5312 49.75 Q178.5625 49.5 179.0938 48.9062 Q179.625 48.3125 179.625 47.4062 Q179.625 46.5938 179.1953 46.1328 Q178.7656 45.6719 178.0312 45.6719 Q177.3594 45.6719 176.9297 46.0547 Q176.5 46.4375 176.3906 47.1562 L175.8125 47.1562 L175.8125 45.6406 Z" style="fill:black; stroke:none;" /><rect height="10" style="stroke:none;" width="6" x="161" y="44" /><path d="M163.1094 53.3906 Q163.1094 53.0625 163.3359 52.8359 Q163.5625 52.6094 163.8906 52.6094 Q164.2188 52.6094 164.4453 52.8359 Q164.6719 53.0625 164.6719 53.3906 Q164.6719 53.7188 164.4453 53.9453 Q164.2188 54.1719 163.8906 54.1719 Q163.5625 54.1719 163.3359 53.9453 Q163.1094 53.7188 163.1094 53.3906 ZM161.8125 45.6406 Q162.4375 45.3594 163 45.2266 Q163.5625 45.0938 164.0469 45.0938 Q165.3438 45.0938 166.1016 45.7188 Q166.8594 46.3438 166.8594 47.4062 Q166.8594 48.5 166.2109 49.1953 Q165.5625 49.8906 164.25 50.1875 L164.25 51.6719 L163.5312 51.6719 L163.5312 49.75 Q164.5625 49.5 165.0938 48.9062 Q165.625 48.3125 165.625 47.4062 Q165.625 46.5938 165.1953 46.1328 Q164.7656 45.6719 164.0312 45.6719 Q163.3594 45.6719 162.9297 46.0547 Q162.5 46.4375 162.3906 47.1562 L161.8125 47.1562 L161.8125 45.6406 Z" style="fill:black; stroke:none;" /></g><g ID="li-1:1,2" style="fill:white; text-rendering:optimizeSpeed; font-family:'Serif'; stroke:white;"><rect height="10" style="stroke:none;" width="7" x="230" y="78" /><path d="M231.1719 79.625 Q231.8594 79.3594 232.4844 79.2266 Q233.1094 79.0938 233.6562 79.0938 Q234.9531 79.0938 235.6719 79.6484 Q236.3906 80.2031 236.3906 81.1875 Q236.3906 81.9688 235.8906 82.5 Q235.3906 83.0312 234.4844 83.2188 Q235.5625 83.375 236.1562 84.0078 Q236.75 84.6406 236.75 85.6406 Q236.75 86.8594 235.9219 87.5156 Q235.0938 88.1719 233.5469 88.1719 Q232.8594 88.1719 232.2109 88.0234 Q231.5625 87.875 230.9219 87.5781 L230.9219 85.875 L231.5781 85.875 Q231.625 86.7188 232.1406 87.1562 Q232.6562 87.5938 233.5781 87.5938 Q234.4688 87.5938 234.9922 87.0703 Q235.5156 86.5469 235.5156 85.6562 Q235.5156 84.625 234.9766 84.0938 Q234.4375 83.5625 233.4062 83.5625 L232.8594 83.5625 L232.8594 82.9531 L233.1406 82.9531 Q234.1719 82.9531 234.6875 82.5312 Q235.2031 82.1094 235.2031 81.25 Q235.2031 80.4844 234.7812 80.0781 Q234.3594 79.6719 233.5625 79.6719 Q232.7656 79.6719 232.3359 80.0469 Q231.9062 80.4219 231.8281 81.1562 L231.1719 81.1562 L231.1719 79.625 Z" style="fill:black; stroke:none;" /><rect height="13" style="stroke:none;" width="7" x="215" y="84" /><path d="M216.8281 96.25 Q217.2969 96.5938 218.1719 96.5938 Q219.0625 96.5938 219.5781 96.0703 Q220.0938 95.5469 220.0938 94.6562 Q220.0938 93.4219 219.5625 92.8906 Q219.0156 92.3594 218 92.3594 L217.4375 92.3594 L217.4375 91.7188 L217.7344 91.7188 Q218.4844 91.7188 219 91.2969 Q219.4219 90.9531 219.4219 90.0156 Q219.4219 89.6094 219.1406 89.1406 Q218.6875 88.375 218.1562 88.3906 Q216.8281 88.4375 216.8281 90.7812 L216.8281 96.25 ZM215.75 99.5 L215.75 90.7812 Q215.75 88.3281 217.0781 88 Q217.7656 87.8125 218.25 87.8125 Q219.3438 87.8125 220.0469 88.6719 Q220.6094 89.3594 220.6094 89.9375 Q220.6094 90.7812 220.2031 91.2656 Q219.7969 91.75 219.0625 91.9844 Q220.1406 92.1406 220.75 92.7812 Q221.3281 93.4062 221.3281 94.6328 Q221.3281 95.8594 220.5078 96.5156 Q219.6875 97.1719 218.1406 97.1719 Q217.1875 97.1719 216.8281 97.0312 L216.8281 99.5 L215.75 99.5 Z" style="fill:black; stroke:none;" /></g><g ID="li-1:1,3" style="fill:white; text-rendering:optimizeSpeed; font-family:'Serif'; stroke:white;"><rect height="10" style="stroke:none;" width="7" x="223" y="60" /><path d="M226.9219 69.5938 Q227.75 69.5938 228.1953 68.9844 Q228.6406 68.375 228.6406 67.2344 Q228.6406 66.1094 228.1953 65.5 Q227.75 64.8906 226.9219 64.8906 Q226.0938 64.8906 225.6484 65.4766 Q225.2031 66.0625 225.2031 67.1719 Q225.2031 68.3281 225.6484 68.9609 Q226.0938 69.5938 226.9219 69.5938 ZM225.0156 65.1875 Q225.4219 64.75 225.9219 64.5312 Q226.4219 64.3125 227.0625 64.3125 Q228.3594 64.3125 229.1172 65.0938 Q229.875 65.875 229.875 67.2344 Q229.875 68.5625 229.0625 69.3672 Q228.25 70.1719 226.875 70.1719 Q225.3906 70.1719 224.5938 69.0625 Q223.7969 67.9531 223.7969 65.9062 Q223.7969 63.6094 224.7422 62.3516 Q225.6875 61.0938 227.4062 61.0938 Q227.875 61.0938 228.3828 61.1797 Q228.8906 61.2656 229.4219 61.4375 L229.4219 62.8906 L228.7656 62.8906 Q228.6875 62.2969 228.3047 61.9844 Q227.9219 61.6719 227.2812 61.6719 Q226.1406 61.6719 225.5859 62.5312 Q225.0312 63.3906 225.0156 65.1875 Z" style="fill:black; stroke:none;" /><rect height="13" style="stroke:none;" width="7" x="208" y="50" /><path d="M209.8281 62.25 Q210.2969 62.5938 211.1719 62.5938 Q212.0625 62.5938 212.5781 62.0703 Q213.0938 61.5469 213.0938 60.6562 Q213.0938 59.4219 212.5625 58.8906 Q212.0156 58.3594 211 58.3594 L210.4375 58.3594 L210.4375 57.7188 L210.7344 57.7188 Q211.4844 57.7188 212 57.2969 Q212.4219 56.9531 212.4219 56.0156 Q212.4219 55.6094 212.1406 55.1406 Q211.6875 54.375 211.1562 54.3906 Q209.8281 54.4375 209.8281 56.7812 L209.8281 62.25 ZM208.75 65.5 L208.75 56.7812 Q208.75 54.3281 210.0781 54 Q210.7656 53.8125 211.25 53.8125 Q212.3438 53.8125 213.0469 54.6719 Q213.6094 55.3594 213.6094 55.9375 Q213.6094 56.7812 213.2031 57.2656 Q212.7969 57.75 212.0625 57.9844 Q213.1406 58.1406 213.75 58.7812 Q214.3281 59.4062 214.3281 60.6328 Q214.3281 61.8594 213.5078 62.5156 Q212.6875 63.1719 211.1406 63.1719 Q210.1875 63.1719 209.8281 63.0312 L209.8281 65.5 L208.75 65.5 Z" style="fill:black; stroke:none;" /></g></g></svg>