<svg xmlns="http://www.w3.org/2000/svg" style="fill-opacity:1; color-rendering:auto; color-interpolation:auto; text-rendering:auto; stroke:black; stroke-linecap:square; stroke-miterlimit:10; shape-rendering:auto; stroke-opacity:1; fill:black; stroke-dasharray:none; font-weight:normal; stroke-width:1; font-family:'Dialog'; font-style:normal; stroke-linejoin:miter; font-size:12px; stroke-dashoffset:0; image-rendering:auto;"><defs id="genericDefs" /><g><defs id="defs1"><clipPath clipPathUnits="userSpaceOnUse" id="clipPath1"><path d="M290 56 L312 56 L312 78 L290 78 L290 56 Z" /></clipPath><clipPath clipPathUnits="userSpaceOnUse" id="clipPath2"><path d="M238 82 L260 82 L260 104 L238 104 L238 82 Z" /></clipPath><clipPath clipPathUnits="userSpaceOnUse" id="clipPath3"><path d="M208 93 C208 99.0751 203.0751 104 197 104 C190.9249 104 186 99.0751 186 93 C186 86.9249 190.9249 82 197 82 C203.0751 82 208 86.9249 208 93 Z" /></clipPath><clipPath clipPathUnits="userSpaceOnUse" id="clipPath4"><path d="M134 108 L156 108 L156 130 L134 130 L134 108 Z" /></clipPath><clipPath clipPathUnits="userSpaceOnUse" id="clipPath5"><path d="M104 119 C104 125.0751 99.0751 130 93 130 C86.9249 130 82 125.0751 82 119 C82 112.9249 86.9249 108 93 108 C99.0751 108 104 112.9249 104 119 Z" /></clipPath><clipPath clipPathUnits="userSpaceOnUse" id="clipPath6"><path d="M30 134 L52 134 L52 156 L30 156 L30 134 Z" /></clipPath><clipPath clipPathUnits="userSpaceOnUse" id="clipPath7"><path d="M41 82 L52 93 L41 104 L30 93 Z" style="fill-rule:evenodd;" /></clipPath><clipPath clipPathUnits="userSpaceOnUse" id="clipPath8"><path d="M145 56 L156 67 L145 78 L134 67 Z" style="fill-rule:evenodd;" /></clipPath><clipPath clipPathUnits="userSpaceOnUse" id="clipPath9"><path d="M249 30 L260 41 L249 52 L238 41 Z" style="fill-rule:evenodd;" /></clipPath></defs><g style="fill:white; text-rendering:optimizeSpeed; stroke:white;"><rect height="186" style="stroke:none;" width="342" x="0" y="0" /></g><g ID="l-1:1,2" style="text-rendering:optimizeSpeed;"><polygon points=" 301 67 249 93" style="fill:none;" /></g><g ID="l-1:1,3" style="text-rendering:optimizeSpeed;"><polygon points=" 301 67 249 41" style="fill:none;" /></g><g ID="r-1:1" style="fill:white; text-rendering:optimizeSpeed; stroke:white;" wurcs_mono_id="1"><rect height="22" style="clip-path:url(#clipPath1); stroke:none;" width="22" x="290" y="56" /><rect height="22" style="clip-path:url(#clipPath1); fill:rgb(255,212,0); stroke:none;" width="22" x="290" y="56" /><rect height="22" style="clip-path:url(#clipPath1); fill:none; stroke:black;" width="22" x="290" y="56" /><rect height="22" style="fill:none; stroke:black;" width="22" x="290" y="56" /></g><g ID="l-1:2,4" style="text-rendering:optimizeSpeed;"><polygon points=" 249 93 197 93" style="fill:none;" /></g><g ID="r-1:2" style="fill:white; text-rendering:optimizeSpeed; stroke:white;" wurcs_mono_id="2"><rect height="22" style="clip-path:url(#clipPath2); stroke:none;" width="22" x="238" y="82" /><rect height="22" style="clip-path:url(#clipPath2); fill:rgb(0,144,188); stroke:none;" width="22" x="238" y="82" /><rect height="22" style="clip-path:url(#clipPath2); fill:none; stroke:black;" width="22" x="238" y="82" /><rect height="22" style="fill:none; stroke:black;" width="22" x="238" y="82" /></g><g ID="l-1:4,5" style="text-rendering:optimizeSpeed;"><polygon points=" 197 93 145 119" style="fill:none;" /></g><g ID="l-1:4,6" style="text-rendering:optimizeSpeed;"><polygon points=" 197 93 145 67" style="fill:none;" /></g><g ID="r-1:4" style="fill:white; text-rendering:optimizeSpeed; stroke:white;" wurcs_mono_id="3"><circle cx="197" cy="93" r="11" style="clip-path:url(#clipPath3); stroke:none;" /><rect height="22" style="clip-path:url(#clipPath3); fill:rgb(255,212,0); stroke:none;" width="22" x="186" y="82" /><rect height="22" style="clip-path:url(#clipPath3); fill:none; stroke:black;" width="22" x="186" y="82" /><circle cx="197" cy="93" r="11" style="fill:none; stroke:black;" /></g><g ID="l-1:5,7" style="text-rendering:optimizeSpeed;"><polygon points=" 145 119 93 119" style="fill:none;" /></g><g ID="r-1:5" style="fill:white; text-rendering:optimizeSpeed; stroke:white;" wurcs_mono_id="4"><rect height="22" style="clip-path:url(#clipPath4); stroke:none;" width="22" x="134" y="108" /><rect height="22" style="clip-path:url(#clipPath4); fill:rgb(0,144,188); stroke:none;" width="22" x="134" y="108" /><rect height="22" style="clip-path:url(#clipPath4); fill:none; stroke:black;" width="22" x="134" y="108" /><rect height="22" style="fill:none; stroke:black;" width="22" x="134" y="108" /></g><g ID="l-1:7,8" style="text-rendering:optimizeSpeed;"><polygon points=" 93 119 41 145" style="fill:none;" /></g><g ID="l-1:7,9" style="text-rendering:optimizeSpeed;"><polygon points=" 93 119 41 93" style="fill:none;" /></g><g ID="r-1:7" style="fill:white; text-rendering:optimizeSpeed; stroke:white;" wurcs_mono_id="5"><circle cx="93" cy="119" r="11" style="clip-path:url(#clipPath5); stroke:none;" /><rect height="22" style="clip-path:url(#clipPath5); fill:rgb(255,212,0); stroke:none;" width="22" x="82" y="108" /><rect height="22" style="clip-path:url(#clipPath5); fill:none; stroke:black;" width="22" x="82" y="108" /><circle cx="93" cy="119" r="11" style="fill:none; stroke:black;" /></g><g ID="r-1:8" style="fill:white; text-rendering:optimizeSpeed; stroke:white;" wurcs_mono_id="6"><rect height="22" style="clip-path:url(#clipPath6); stroke:none;" width="22" x="30" y="134" /><rect height="22" style="clip-path:url(#clipPath6); fill:rgb(0,144,188); stroke:none;" width="22" x="30" y="134" /><rect height="22" style="clip-path:url(#clipPath6); fill:none; stroke:black;" width="22" x="30" y="134" /><rect height="22" style="fill:none; stroke:black;" width="22" x="30" y="134" /></g><g ID="r-1:9" style="fill:white; text-rendering:optimizeSpeed; stroke:white;" wurcs_mono_id="7"><polygon points=" 41 82 52 93 41 104 30 93" style="stroke:none; clip-path:url(#clipPath7);" /><rect height="22" style="clip-path:url(#clipPath7); fill:rgb(165,67,153); stroke:none;" width="22" x="30" y="82" /><rect height="22" style="clip-path:url(#clipPath7); fill:none; stroke:black;" width="22" x="30" y="82" /><polygon points=" 41 82 52 93 41 104 30 93" style="fill:none; stroke:black;" /></g><g ID="li-1:7,8" style="fill:white; text-rendering:optimizeSpeed; font-family:'Serif'; stroke:white;"><rect height="10" style="stroke:none;" width="6" x="75" y="130" /><path d="M77.1094 139.3906 Q77.1094 139.0625 77.3359 138.8359 Q77.5625 138.6094 77.8906 138.6094 Q78.2188 138.6094 78.4453 138.8359 Q78.6719 139.0625 78.6719 139.3906 Q78.6719 139.7188 78.4453 139.9453 Q78.2188 140.1719 77.8906 140.1719 Q77.5625 140.1719 77.3359 139.9453 Q77.1094 139.7188 77.1094 139.3906 ZM75.8125 131.6406 Q76.4375 131.3594 77 131.2266 Q77.5625 131.0938 78.0469 131.0938 Q79.3438 131.0938 80.1016 131.7188 Q80.8594 132.3438 80.8594 133.4062 Q80.8594 134.5 80.2109 135.1953 Q79.5625 135.8906 78.25 136.1875 L78.25 137.6719 L77.5312 137.6719 L77.5312 135.75 Q78.5625 135.5 79.0938 134.9062 Q79.625 134.3125 79.625 133.4062 Q79.625 132.5938 79.1953 132.1328 Q78.7656 131.6719 78.0312 131.6719 Q77.3594 131.6719 76.9297 132.0547 Q76.5 132.4375 76.3906 133.1562 L75.8125 133.1562 L75.8125 131.6406 Z" style="fill:black; stroke:none;" /><rect height="10" style="stroke:none;" width="6" x="59" y="138" /><path d="M61.1094 147.3906 Q61.1094 147.0625 61.3359 146.8359 Q61.5625 146.6094 61.8906 146.6094 Q62.2188 146.6094 62.4453 146.8359 Q62.6719 147.0625 62.6719 147.3906 Q62.6719 147.7188 62.4453 147.9453 Q62.2188 148.1719 61.8906 148.1719 Q61.5625 148.1719 61.3359 147.9453 Q61.1094 147.7188 61.1094 147.3906 ZM59.8125 139.6406 Q60.4375 139.3594 61 139.2266 Q61.5625 139.0938 62.0469 139.0938 Q63.3438 139.0938 64.1016 139.7188 Q64.8594 140.3438 64.8594 141.4062 Q64.8594 142.5 64.2109 143.1953 Q63.5625 143.8906 62.25 144.1875 L62.25 145.6719 L61.5312 145.6719 L61.5312 143.75 Q62.5625 143.5 63.0938 142.9062 Q63.625 142.3125 63.625 141.4062 Q63.625 140.5938 63.1953 140.1328 Q62.7656 139.6719 62.0312 139.6719 Q61.3594 139.6719 60.9297 140.0547 Q60.5 140.4375 60.3906 141.1562 L59.8125 141.1562 L59.8125 139.6406 Z" style="fill:black; stroke:none;" /></g><g ID="li-1:7,9" style="fill:white; text-rendering:optimizeSpeed; font-family:'Serif'; stroke:white;"><rect height="10" style="stroke:none;" width="6" x="68" y="112" /><path d="M70.1094 121.3906 Q70.1094 121.0625 70.3359 120.8359 Q70.5625 120.6094 70.8906 120.6094 Q71.2188 120.6094 71.4453 120.8359 Q71.6719 121.0625 71.6719 121.3906 Q71.6719 121.7188 71.4453 121.9453 Q71.2188 122.1719 70.8906 122.1719 Q70.5625 122.1719 70.3359 121.9453 Q70.1094 121.7188 70.1094 121.3906 ZM68.8125 113.6406 Q69.4375 113.3594 70 113.2266 Q70.5625 113.0938 71.0469 113.0938 Q72.3438 113.0938 73.1016 113.7188 Q73.8594 114.3438 73.8594 115.4062 Q73.8594 116.5 73.2109 117.1953 Q72.5625 117.8906 71.25 118.1875 L71.25 119.6719 L70.5312 119.6719 L70.5312 117.75 Q71.5625 117.5 72.0938 116.9062 Q72.625 116.3125 72.625 115.4062 Q72.625 114.5938 72.1953 114.1328 Q71.7656 113.6719 71.0312 113.6719 Q70.3594 113.6719 69.9297 114.0547 Q69.5 114.4375 69.3906 115.1562 L68.8125 115.1562 L68.8125 113.6406 Z" style="fill:black; stroke:none;" /><rect height="10" style="stroke:none;" width="6" x="52" y="104" /><path d="M54.1094 113.3906 Q54.1094 113.0625 54.3359 112.8359 Q54.5625 112.6094 54.8906 112.6094 Q55.2188 112.6094 55.4453 112.8359 Q55.6719 113.0625 55.6719 113.3906 Q55.6719 113.7188 55.4453 113.9453 Q55.2188 114.1719 54.8906 114.1719 Q54.5625 114.1719 54.3359 113.9453 Q54.1094 113.7188 54.1094 113.3906 ZM52.8125 105.6406 Q53.4375 105.3594 54 105.2266 Q54.5625 105.0938 55.0469 105.0938 Q56.3438 105.0938 57.1016 105.7188 Q57.8594 106.3438 57.8594 107.4062 Q57.8594 108.5 57.2109 109.1953 Q56.5625 109.8906 55.25 110.1875 L55.25 111.6719 L54.5312 111.6719 L54.5312 109.75 Q55.5625 109.5 56.0938 108.9062 Q56.625 108.3125 56.625 107.4062 Q56.625 106.5938 56.1953 106.1328 Q55.7656 105.6719 55.0312 105.6719 Q54.3594 105.6719 53.9297 106.0547 Q53.5 106.4375 53.3906 107.1562 L52.8125 107.1562 L52.8125 105.6406 Z" style="fill:black; stroke:none;" /></g><g ID="li-1:5,7" style="fill:white; text-rendering:optimizeSpeed; font-family:'Serif'; stroke:white;"><rect height="10" style="stroke:none;" width="6" x="123" y="122" /><path d="M125.1094 131.3906 Q125.1094 131.0625 125.3359 130.8359 Q125.5625 130.6094 125.8906 130.6094 Q126.2188 130.6094 126.4453 130.8359 Q126.6719 131.0625 126.6719 131.3906 Q126.6719 131.7188 126.4453 131.9453 Q126.2188 132.1719 125.8906 132.1719 Q125.5625 132.1719 125.3359 131.9453 Q125.1094 131.7188 125.1094 131.3906 ZM123.8125 123.6406 Q124.4375 123.3594 125 123.2266 Q125.5625 123.0938 126.0469 123.0938 Q127.3438 123.0938 128.1016 123.7188 Q128.8594 124.3438 128.8594 125.4062 Q128.8594 126.5 128.2109 127.1953 Q127.5625 127.8906 126.25 128.1875 L126.25 129.6719 L125.5312 129.6719 L125.5312 127.75 Q126.5625 127.5 127.0938 126.9062 Q127.625 126.3125 127.625 125.4062 Q127.625 124.5938 127.1953 124.1328 Q126.7656 123.6719 126.0312 123.6719 Q125.3594 123.6719 124.9297 124.0547 Q124.5 124.4375 124.3906 125.1562 L123.8125 125.1562 L123.8125 123.6406 Z" style="fill:black; stroke:none;" /><rect height="10" style="stroke:none;" width="6" x="109" y="122" /><path d="M111.1094 131.3906 Q111.1094 131.0625 111.3359 130.8359 Q111.5625 130.6094 111.8906 130.6094 Q112.2188 130.6094 112.4453 130.8359 Q112.6719 131.0625 112.6719 131.3906 Q112.6719 131.7188 112.4453 131.9453 Q112.2188 132.1719 111.8906 132.1719 Q111.5625 132.1719 111.3359 131.9453 Q111.1094 131.7188 111.1094 131.3906 ZM109.8125 123.6406 Q110.4375 123.3594 111 123.2266 Q111.5625 123.0938 112.0469 123.0938 Q113.3438 123.0938 114.1016 123.7188 Q114.8594 124.3438 114.8594 125.4062 Q114.8594 126.5 114.2109 127.1953 Q113.5625 127.8906 112.25 128.1875 L112.25 129.6719 L111.5312 129.6719 L111.5312 127.75 Q112.5625 127.5 113.0938 126.9062 Q113.625 126.3125 113.625 125.4062 Q113.625 124.5938 113.1953 124.1328 Q112.7656 123.6719 112.0312 123.6719 Q111.3594 123.6719 110.9297 124.0547 Q110.5 124.4375 110.3906 125.1562 L109.8125 125.1562 L109.8125 123.6406 Z" style="fill:black; stroke:none;" /></g><g ID="r-1:6" style="fill:white; text-rendering:optimizeSpeed; stroke:white;" wurcs_mono_id="8"><polygon points=" 145 56 156 67 145 78 134 67" style="stroke:none; clip-path:url(#clipPath8);" /><rect height="22" style="clip-path:url(#clipPath8); fill:rgb(165,67,153); stroke:none;" width="22" x="134" y="56" /><rect height="22" style="clip-path:url(#clipPath8); fill:none; stroke:black;" width="22" x="134" y="56" /><polygon points=" 145 56 156 67 145 78 134 67" style="fill:none; stroke:black;" /></g><g ID="li-1:4,5" style="fill:white; text-rendering:optimizeSpeed; font-family:'Serif'; stroke:white;"><rect height="10" style="stroke:none;" width="6" x="179" y="104" /><path d="M181.1094 113.3906 Q181.1094 113.0625 181.3359 112.8359 Q181.5625 112.6094 181.8906 112.6094 Q182.2188 112.6094 182.4453 112.8359 Q182.6719 113.0625 182.6719 113.3906 Q182.6719 113.7188 182.4453 113.9453 Q182.2188 114.1719 181.8906 114.1719 Q181.5625 114.1719 181.3359 113.9453 Q181.1094 113.7188 181.1094 113.3906 ZM179.8125 105.6406 Q180.4375 105.3594 181 105.2266 Q181.5625 105.0938 182.0469 105.0938 Q183.3438 105.0938 184.1016 105.7188 Q184.8594 106.3438 184.8594 107.4062 Q184.8594 108.5 184.2109 109.1953 Q183.5625 109.8906 182.25 110.1875 L182.25 111.6719 L181.5312 111.6719 L181.5312 109.75 Q182.5625 109.5 183.0938 108.9062 Q183.625 108.3125 183.625 107.4062 Q183.625 106.5938 183.1953 106.1328 Q182.7656 105.6719 182.0312 105.6719 Q181.3594 105.6719 180.9297 106.0547 Q180.5 106.4375 180.3906 107.1562 L179.8125 107.1562 L179.8125 105.6406 Z" style="fill:black; stroke:none;" /><rect height="10" style="stroke:none;" width="6" x="163" y="112" /><path d="M165.1094 121.3906 Q165.1094 121.0625 165.3359 120.8359 Q165.5625 120.6094 165.8906 120.6094 Q166.2188 120.6094 166.4453 120.8359 Q166.6719 121.0625 166.6719 121.3906 Q166.6719 121.7188 166.4453 121.9453 Q166.2188 122.1719 165.8906 122.1719 Q165.5625 122.1719 165.3359 121.9453 Q165.1094 121.7188 165.1094 121.3906 ZM163.8125 113.6406 Q164.4375 113.3594 165 113.2266 Q165.5625 113.0938 166.0469 113.0938 Q167.3438 113.0938 168.1016 113.7188 Q168.8594 114.3438 168.8594 115.4062 Q168.8594 116.5 168.2109 117.1953 Q167.5625 117.8906 166.25 118.1875 L166.25 119.6719 L165.5312 119.6719 L165.5312 117.75 Q166.5625 117.5 167.0938 116.9062 Q167.625 116.3125 167.625 115.4062 Q167.625 114.5938 167.1953 114.1328 Q166.7656 113.6719 166.0312 113.6719 Q165.3594 113.6719 164.9297 114.0547 Q164.5 114.4375 164.3906 115.1562 L163.8125 115.1562 L163.8125 113.6406 Z" style="fill:black; stroke:none;" /></g><g ID="li-1:4,6" style="fill:white; text-rendering:optimizeSpeed; font-family:'Serif'; stroke:white;"><rect height="10" style="stroke:none;" width="6" x="172" y="86" /><path d="M174.1094 95.3906 Q174.1094 95.0625 174.3359 94.8359 Q174.5625 94.6094 174.8906 94.6094 Q175.2188 94.6094 175.4453 94.8359 Q175.6719 95.0625 175.6719 95.3906 Q175.6719 95.7188 175.4453 95.9453 Q175.2188 96.1719 174.8906 96.1719 Q174.5625 96.1719 174.3359 95.9453 Q174.1094 95.7188 174.1094 95.3906 ZM172.8125 87.6406 Q173.4375 87.3594 174 87.2266 Q174.5625 87.0938 175.0469 87.0938 Q176.3438 87.0938 177.1016 87.7188 Q177.8594 88.3438 177.8594 89.4062 Q177.8594 90.5 177.2109 91.1953 Q176.5625 91.8906 175.25 92.1875 L175.25 93.6719 L174.5312 93.6719 L174.5312 91.75 Q175.5625 91.5 176.0938 90.9062 Q176.625 90.3125 176.625 89.4062 Q176.625 88.5938 176.1953 88.1328 Q175.7656 87.6719 175.0312 87.6719 Q174.3594 87.6719 173.9297 88.0547 Q173.5 88.4375 173.3906 89.1562 L172.8125 89.1562 L172.8125 87.6406 Z" style="fill:black; stroke:none;" /><rect height="10" style="stroke:none;" width="6" x="156" y="78" /><path d="M158.1094 87.3906 Q158.1094 87.0625 158.3359 86.8359 Q158.5625 86.6094 158.8906 86.6094 Q159.2188 86.6094 159.4453 86.8359 Q159.6719 87.0625 159.6719 87.3906 Q159.6719 87.7188 159.4453 87.9453 Q159.2188 88.1719 158.8906 88.1719 Q158.5625 88.1719 158.3359 87.9453 Q158.1094 87.7188 158.1094 87.3906 ZM156.8125 79.6406 Q157.4375 79.3594 158 79.2266 Q158.5625 79.0938 159.0469 79.0938 Q160.3438 79.0938 161.1016 79.7188 Q161.8594 80.3438 161.8594 81.4062 Q161.8594 82.5 161.2109 83.1953 Q160.5625 83.8906 159.25 84.1875 L159.25 85.6719 L158.5312 85.6719 L158.5312 83.75 Q159.5625 83.5 160.0938 82.9062 Q160.625 82.3125 160.625 81.4062 Q160.625 80.5938 160.1953 80.1328 Q159.7656 79.6719 159.0312 79.6719 Q158.3594 79.6719 157.9297 80.0547 Q157.5 80.4375 157.3906 81.1562 L156.8125 81.1562 L156.8125 79.6406 Z" style="fill:black; stroke:none;" /></g><g ID="li-1:2,4" style="fill:white; text-rendering:optimizeSpeed; font-family:'Serif'; stroke:white;"><rect height="10" style="stroke:none;" width="6" x="227" y="96" /><path d="M229.1094 105.3906 Q229.1094 105.0625 229.3359 104.8359 Q229.5625 104.6094 229.8906 104.6094 Q230.2188 104.6094 230.4453 104.8359 Q230.6719 105.0625 230.6719 105.3906 Q230.6719 105.7188 230.4453 105.9453 Q230.2188 106.1719 229.8906 106.1719 Q229.5625 106.1719 229.3359 105.9453 Q229.1094 105.7188 229.1094 105.3906 ZM227.8125 97.6406 Q228.4375 97.3594 229 97.2266 Q229.5625 97.0938 230.0469 97.0938 Q231.3438 97.0938 232.1016 97.7188 Q232.8594 98.3438 232.8594 99.4062 Q232.8594 100.5 232.2109 101.1953 Q231.5625 101.8906 230.25 102.1875 L230.25 103.6719 L229.5312 103.6719 L229.5312 101.75 Q230.5625 101.5 231.0938 100.9062 Q231.625 100.3125 231.625 99.4062 Q231.625 98.5938 231.1953 98.1328 Q230.7656 97.6719 230.0312 97.6719 Q229.3594 97.6719 228.9297 98.0547 Q228.5 98.4375 228.3906 99.1562 L227.8125 99.1562 L227.8125 97.6406 Z" style="fill:black; stroke:none;" /><rect height="10" style="stroke:none;" width="6" x="213" y="96" /><path d="M215.1094 105.3906 Q215.1094 105.0625 215.3359 104.8359 Q215.5625 104.6094 215.8906 104.6094 Q216.2188 104.6094 216.4453 104.8359 Q216.6719 105.0625 216.6719 105.3906 Q216.6719 105.7188 216.4453 105.9453 Q216.2188 106.1719 215.8906 106.1719 Q215.5625 106.1719 215.3359 105.9453 Q215.1094 105.7188 215.1094 105.3906 ZM213.8125 97.6406 Q214.4375 97.3594 215 97.2266 Q215.5625 97.0938 216.0469 97.0938 Q217.3438 97.0938 218.1016 97.7188 Q218.8594 98.3438 218.8594 99.4062 Q218.8594 100.5 218.2109 101.1953 Q217.5625 101.8906 216.25 102.1875 L216.25 103.6719 L215.5312 103.6719 L215.5312 101.75 Q216.5625 101.5 217.0938 100.9062 Q217.625 100.3125 217.625 99.4062 Q217.625 98.5938 217.1953 98.1328 Q216.7656 97.6719 216.0312 97.6719 Q215.3594 97.6719 214.9297 98.0547 Q214.5 98.4375 214.3906 99.1562 L213.8125 99.1562 L213.8125 97.6406 Z" style="fill:black; stroke:none;" /></g><g ID="r-1:3" style="fill:white; text-rendering:optimizeSpeed; stroke:white;" wurcs_mono_id="9"><polygon points=" 249 30 260 41 249 52 238 41" style="stroke:none; clip-path:url(#clipPath9);" /><rect height="22" style="clip-path:url(#clipPath9); fill:rgb(165,67,153); stroke:none;" width="22" x="238" y="30" /><rect height="22" style="clip-path:url(#clipPath9); fill:none; stroke:black;" width="22" x="238" y="30" /><polygon points=" 249 30 260 41 249 52 238 41" style="fill:none; stroke:black;" /></g><g ID="li-1:1,2" style="fill:white; text-rendering:optimizeSpeed; font-family:'Serif'; stroke:white;"><rect height="10" style="stroke:none;" width="6" x="283" y="78" /><path d="M285.1094 87.3906 Q285.1094 87.0625 285.3359 86.8359 Q285.5625 86.6094 285.8906 86.6094 Q286.2188 86.6094 286.4453 86.8359 Q286.6719 87.0625 286.6719 87.3906 Q286.6719 87.7188 286.4453 87.9453 Q286.2188 88.1719 285.8906 88.1719 Q285.5625 88.1719 285.3359 87.9453 Q285.1094 87.7188 285.1094 87.3906 ZM283.8125 79.6406 Q284.4375 79.3594 285 79.2266 Q285.5625 79.0938 286.0469 79.0938 Q287.3438 79.0938 288.1016 79.7188 Q288.8594 80.3438 288.8594 81.4062 Q288.8594 82.5 288.2109 83.1953 Q287.5625 83.8906 286.25 84.1875 L286.25 85.6719 L285.5312 85.6719 L285.5312 83.75 Q286.5625 83.5 287.0938 82.9062 Q287.625 82.3125 287.625 81.4062 Q287.625 80.5938 287.1953 80.1328 Q286.7656 79.6719 286.0312 79.6719 Q285.3594 79.6719 284.9297 80.0547 Q284.5 80.4375 284.3906 81.1562 L283.8125 81.1562 L283.8125 79.6406 Z" style="fill:black; stroke:none;" /><rect height="10" style="stroke:none;" width="6" x="267" y="86" /><path d="M269.1094 95.3906 Q269.1094 95.0625 269.3359 94.8359 Q269.5625 94.6094 269.8906 94.6094 Q270.2188 94.6094 270.4453 94.8359 Q270.6719 95.0625 270.6719 95.3906 Q270.6719 95.7188 270.4453 95.9453 Q270.2188 96.1719 269.8906 96.1719 Q269.5625 96.1719 269.3359 95.9453 Q269.1094 95.7188 269.1094 95.3906 ZM267.8125 87.6406 Q268.4375 87.3594 269 87.2266 Q269.5625 87.0938 270.0469 87.0938 Q271.3438 87.0938 272.1016 87.7188 Q272.8594 88.3438 272.8594 89.4062 Q272.8594 90.5 272.2109 91.1953 Q271.5625 91.8906 270.25 92.1875 L270.25 93.6719 L269.5312 93.6719 L269.5312 91.75 Q270.5625 91.5 271.0938 90.9062 Q271.625 90.3125 271.625 89.4062 Q271.625 88.5938 271.1953 88.1328 Q270.7656 87.6719 270.0312 87.6719 Q269.3594 87.6719 268.9297 88.0547 Q268.5 88.4375 268.3906 89.1562 L267.8125 89.1562 L267.8125 87.6406 Z" style="fill:black; stroke:none;" /></g><g ID="li-1:1,3" style="fill:white; text-rendering:optimizeSpeed; font-family:'Serif'; stroke:white;"><rect height="10" style="stroke:none;" width="6" x="276" y="60" /><path d="M278.1094 69.3906 Q278.1094 69.0625 278.3359 68.8359 Q278.5625 68.6094 278.8906 68.6094 Q279.2188 68.6094 279.4453 68.8359 Q279.6719 69.0625 279.6719 69.3906 Q279.6719 69.7188 279.4453 69.9453 Q279.2188 70.1719 278.8906 70.1719 Q278.5625 70.1719 278.3359 69.9453 Q278.1094 69.7188 278.1094 69.3906 ZM276.8125 61.6406 Q277.4375 61.3594 278 61.2266 Q278.5625 61.0938 279.0469 61.0938 Q280.3438 61.0938 281.1016 61.7188 Q281.8594 62.3438 281.8594 63.4062 Q281.8594 64.5 281.2109 65.1953 Q280.5625 65.8906 279.25 66.1875 L279.25 67.6719 L278.5312 67.6719 L278.5312 65.75 Q279.5625 65.5 280.0938 64.9062 Q280.625 64.3125 280.625 63.4062 Q280.625 62.5938 280.1953 62.1328 Q279.7656 61.6719 279.0312 61.6719 Q278.3594 61.6719 277.9297 62.0547 Q277.5 62.4375 277.3906 63.1562 L276.8125 63.1562 L276.8125 61.6406 Z" style="fill:black; stroke:none;" /><rect height="10" style="stroke:none;" width="6" x="260" y="52" /><path d="M262.1094 61.3906 Q262.1094 61.0625 262.3359 60.8359 Q262.5625 60.6094 262.8906 60.6094 Q263.2188 60.6094 263.4453 60.8359 Q263.6719 61.0625 263.6719 61.3906 Q263.6719 61.7188 263.4453 61.9453 Q263.2188 62.1719 262.8906 62.1719 Q262.5625 62.1719 262.3359 61.9453 Q262.1094 61.7188 262.1094 61.3906 ZM260.8125 53.6406 Q261.4375 53.3594 262 53.2266 Q262.5625 53.0938 263.0469 53.0938 Q264.3438 53.0938 265.1016 53.7188 Q265.8594 54.3438 265.8594 55.4062 Q265.8594 56.5 265.2109 57.1953 Q264.5625 57.8906 263.25 58.1875 L263.25 59.6719 L262.5312 59.6719 L262.5312 57.75 Q263.5625 57.5 264.0938 56.9062 Q264.625 56.3125 264.625 55.4062 Q264.625 54.5938 264.1953 54.1328 Q263.7656 53.6719 263.0312 53.6719 Q262.3594 53.6719 261.9297 54.0547 Q261.5 54.4375 261.3906 55.1562 L260.8125 55.1562 L260.8125 53.6406 Z" style="fill:black; stroke:none;" /></g></g></svg>