<svg xmlns="http://www.w3.org/2000/svg" style="fill-opacity:1; color-rendering:auto; color-interpolation:auto; text-rendering:auto; stroke:black; stroke-linecap:square; stroke-miterlimit:10; shape-rendering:auto; stroke-opacity:1; fill:black; stroke-dasharray:none; font-weight:normal; stroke-width:1; font-family:'Dialog'; font-style:normal; stroke-linejoin:miter; font-size:12px; stroke-dashoffset:0; image-rendering:auto;"><defs id="genericDefs" /><g><defs id="defs1"><clipPath clipPathUnits="userSpaceOnUse" id="clipPath1"><path d="M238 56 L260 56 L260 78 L238 78 L238 56 Z" /></clipPath><clipPath clipPathUnits="userSpaceOnUse" id="clipPath2"><path d="M186 82 L208 82 L208 104 L186 104 L186 82 Z" /></clipPath><clipPath clipPathUnits="userSpaceOnUse" id="clipPath3"><path d="M156 93 C156 99.0751 151.0751 104 145 104 C138.9249 104 134 99.0751 134 93 C134 86.9249 138.9249 82 145 82 C151.0751 82 156 86.9249 156 93 Z" /></clipPath><clipPath clipPathUnits="userSpaceOnUse" id="clipPath4"><path d="M82 108 L104 108 L104 130 L82 130 L82 108 Z" /></clipPath><clipPath clipPathUnits="userSpaceOnUse" id="clipPath5"><path d="M52 119 C52 125.0751 47.0751 130 41 130 C34.9249 130 30 125.0751 30 119 C30 112.9249 34.9249 108 41 108 C47.0751 108 52 112.9249 52 119 Z" /></clipPath><clipPath clipPathUnits="userSpaceOnUse" id="clipPath6"><path d="M82 56 L104 56 L104 78 L82 78 L82 56 Z" /></clipPath><clipPath clipPathUnits="userSpaceOnUse" id="clipPath7"><path d="M52 67 C52 73.0751 47.0751 78 41 78 C34.9249 78 30 73.0751 30 67 C30 60.9249 34.9249 56 41 56 C47.0751 56 52 60.9249 52 67 Z" /></clipPath><clipPath clipPathUnits="userSpaceOnUse" id="clipPath8"><path d="M208 41 C208 47.0751 203.0751 52 197 52 C190.9249 52 186 47.0751 186 41 C186 34.9249 190.9249 30 197 30 C203.0751 30 208 34.9249 208 41 Z" /></clipPath><clipPath clipPathUnits="userSpaceOnUse" id="clipPath9"><path d="M145 30 L156 41 L145 52 L134 41 Z" style="fill-rule:evenodd;" /></clipPath></defs><g style="fill:white; text-rendering:optimizeSpeed; stroke:white;"><rect height="160" style="stroke:none;" width="290" x="0" y="0" /></g><g ID="l-1:1,2" style="text-rendering:optimizeSpeed;"><polygon points=" 249 67 197 93" style="fill:none;" /></g><g ID="l-1:1,3" style="text-rendering:optimizeSpeed;"><polygon points=" 249 67 197 41" style="fill:none;" /></g><g ID="r-1:1" style="fill:white; text-rendering:optimizeSpeed; stroke:white;" wurcs_mono_id="1"><rect height="22" style="clip-path:url(#clipPath1); stroke:none;" width="22" x="238" y="56" /><rect height="22" style="clip-path:url(#clipPath1); fill:rgb(255,212,0); stroke:none;" width="22" x="238" y="56" /><rect height="22" style="clip-path:url(#clipPath1); fill:none; stroke:black;" width="22" x="238" y="56" /><rect height="22" style="fill:none; stroke:black;" width="22" x="238" y="56" /></g><g ID="l-1:2,4" style="text-rendering:optimizeSpeed;"><polygon points=" 197 93 145 93" style="fill:none;" /></g><g ID="r-1:2" style="fill:white; text-rendering:optimizeSpeed; stroke:white;" wurcs_mono_id="2"><rect height="22" style="clip-path:url(#clipPath2); stroke:none;" width="22" x="186" y="82" /><rect height="22" style="clip-path:url(#clipPath2); fill:rgb(0,144,188); stroke:none;" width="22" x="186" y="82" /><rect height="22" style="clip-path:url(#clipPath2); fill:none; stroke:black;" width="22" x="186" y="82" /><rect height="22" style="fill:none; stroke:black;" width="22" x="186" y="82" /></g><g ID="l-1:4,5" style="text-rendering:optimizeSpeed;"><polygon points=" 145 93 93 119" style="fill:none;" /></g><g ID="l-1:4,6" style="text-rendering:optimizeSpeed;"><polygon points=" 145 93 93 67" style="fill:none;" /></g><g ID="r-1:4" style="fill:white; text-rendering:optimizeSpeed; stroke:white;" wurcs_mono_id="3"><circle cx="145" cy="93" r="11" style="clip-path:url(#clipPath3); stroke:none;" /><rect height="22" style="clip-path:url(#clipPath3); fill:rgb(255,212,0); stroke:none;" width="22" x="134" y="82" /><rect height="22" style="clip-path:url(#clipPath3); fill:none; stroke:black;" width="22" x="134" y="82" /><circle cx="145" cy="93" r="11" style="fill:none; stroke:black;" /></g><g ID="l-1:5,7" style="text-rendering:optimizeSpeed;"><polygon points=" 93 119 41 119" style="fill:none;" /></g><g ID="r-1:5" style="fill:white; text-rendering:optimizeSpeed; stroke:white;" wurcs_mono_id="4"><rect height="22" style="clip-path:url(#clipPath4); stroke:none;" width="22" x="82" y="108" /><rect height="22" style="clip-path:url(#clipPath4); fill:rgb(0,144,188); stroke:none;" width="22" x="82" y="108" /><rect height="22" style="clip-path:url(#clipPath4); fill:none; stroke:black;" width="22" x="82" y="108" /><rect height="22" style="fill:none; stroke:black;" width="22" x="82" y="108" /></g><g ID="r-1:7" style="fill:white; text-rendering:optimizeSpeed; stroke:white;" wurcs_mono_id="5"><circle cx="41" cy="119" r="11" style="clip-path:url(#clipPath5); stroke:none;" /><rect height="22" style="clip-path:url(#clipPath5); fill:rgb(255,212,0); stroke:none;" width="22" x="30" y="108" /><rect height="22" style="clip-path:url(#clipPath5); fill:none; stroke:black;" width="22" x="30" y="108" /><circle cx="41" cy="119" r="11" style="fill:none; stroke:black;" /></g><g ID="li-1:5,7" style="fill:white; text-rendering:optimizeSpeed; font-family:'Serif'; stroke:white;"><rect height="10" style="stroke:none;" width="6" x="71" y="122" /><path d="M73.1094 131.3906 Q73.1094 131.0625 73.3359 130.8359 Q73.5625 130.6094 73.8906 130.6094 Q74.2188 130.6094 74.4453 130.8359 Q74.6719 131.0625 74.6719 131.3906 Q74.6719 131.7188 74.4453 131.9453 Q74.2188 132.1719 73.8906 132.1719 Q73.5625 132.1719 73.3359 131.9453 Q73.1094 131.7188 73.1094 131.3906 ZM71.8125 123.6406 Q72.4375 123.3594 73 123.2266 Q73.5625 123.0938 74.0469 123.0938 Q75.3438 123.0938 76.1016 123.7188 Q76.8594 124.3438 76.8594 125.4062 Q76.8594 126.5 76.2109 127.1953 Q75.5625 127.8906 74.25 128.1875 L74.25 129.6719 L73.5312 129.6719 L73.5312 127.75 Q74.5625 127.5 75.0938 126.9062 Q75.625 126.3125 75.625 125.4062 Q75.625 124.5938 75.1953 124.1328 Q74.7656 123.6719 74.0312 123.6719 Q73.3594 123.6719 72.9297 124.0547 Q72.5 124.4375 72.3906 125.1562 L71.8125 125.1562 L71.8125 123.6406 Z" style="fill:black; stroke:none;" /><rect height="10" style="stroke:none;" width="6" x="57" y="122" /><path d="M59.1094 131.3906 Q59.1094 131.0625 59.3359 130.8359 Q59.5625 130.6094 59.8906 130.6094 Q60.2188 130.6094 60.4453 130.8359 Q60.6719 131.0625 60.6719 131.3906 Q60.6719 131.7188 60.4453 131.9453 Q60.2188 132.1719 59.8906 132.1719 Q59.5625 132.1719 59.3359 131.9453 Q59.1094 131.7188 59.1094 131.3906 ZM57.8125 123.6406 Q58.4375 123.3594 59 123.2266 Q59.5625 123.0938 60.0469 123.0938 Q61.3438 123.0938 62.1016 123.7188 Q62.8594 124.3438 62.8594 125.4062 Q62.8594 126.5 62.2109 127.1953 Q61.5625 127.8906 60.25 128.1875 L60.25 129.6719 L59.5312 129.6719 L59.5312 127.75 Q60.5625 127.5 61.0938 126.9062 Q61.625 126.3125 61.625 125.4062 Q61.625 124.5938 61.1953 124.1328 Q60.7656 123.6719 60.0312 123.6719 Q59.3594 123.6719 58.9297 124.0547 Q58.5 124.4375 58.3906 125.1562 L57.8125 125.1562 L57.8125 123.6406 Z" style="fill:black; stroke:none;" /></g><g ID="l-1:6,8" style="text-rendering:optimizeSpeed;"><polygon points=" 93 67 41 67" style="fill:none;" /></g><g ID="r-1:6" style="fill:white; text-rendering:optimizeSpeed; stroke:white;" wurcs_mono_id="6"><rect height="22" style="clip-path:url(#clipPath6); stroke:none;" width="22" x="82" y="56" /><rect height="22" style="clip-path:url(#clipPath6); fill:rgb(0,144,188); stroke:none;" width="22" x="82" y="56" /><rect height="22" style="clip-path:url(#clipPath6); fill:none; stroke:black;" width="22" x="82" y="56" /><rect height="22" style="fill:none; stroke:black;" width="22" x="82" y="56" /></g><g ID="r-1:8" style="fill:white; text-rendering:optimizeSpeed; stroke:white;" wurcs_mono_id="7"><circle cx="41" cy="67" r="11" style="clip-path:url(#clipPath7); stroke:none;" /><rect height="22" style="clip-path:url(#clipPath7); fill:rgb(255,212,0); stroke:none;" width="22" x="30" y="56" /><rect height="22" style="clip-path:url(#clipPath7); fill:none; stroke:black;" width="22" x="30" y="56" /><circle cx="41" cy="67" r="11" style="fill:none; stroke:black;" /></g><g ID="li-1:6,8" style="fill:white; text-rendering:optimizeSpeed; font-family:'Serif'; stroke:white;"><rect height="10" style="stroke:none;" width="6" x="71" y="70" /><path d="M73.1094 79.3906 Q73.1094 79.0625 73.3359 78.8359 Q73.5625 78.6094 73.8906 78.6094 Q74.2188 78.6094 74.4453 78.8359 Q74.6719 79.0625 74.6719 79.3906 Q74.6719 79.7188 74.4453 79.9453 Q74.2188 80.1719 73.8906 80.1719 Q73.5625 80.1719 73.3359 79.9453 Q73.1094 79.7188 73.1094 79.3906 ZM71.8125 71.6406 Q72.4375 71.3594 73 71.2266 Q73.5625 71.0938 74.0469 71.0938 Q75.3438 71.0938 76.1016 71.7188 Q76.8594 72.3438 76.8594 73.4062 Q76.8594 74.5 76.2109 75.1953 Q75.5625 75.8906 74.25 76.1875 L74.25 77.6719 L73.5312 77.6719 L73.5312 75.75 Q74.5625 75.5 75.0938 74.9062 Q75.625 74.3125 75.625 73.4062 Q75.625 72.5938 75.1953 72.1328 Q74.7656 71.6719 74.0312 71.6719 Q73.3594 71.6719 72.9297 72.0547 Q72.5 72.4375 72.3906 73.1562 L71.8125 73.1562 L71.8125 71.6406 Z" style="fill:black; stroke:none;" /><rect height="10" style="stroke:none;" width="6" x="57" y="70" /><path d="M59.1094 79.3906 Q59.1094 79.0625 59.3359 78.8359 Q59.5625 78.6094 59.8906 78.6094 Q60.2188 78.6094 60.4453 78.8359 Q60.6719 79.0625 60.6719 79.3906 Q60.6719 79.7188 60.4453 79.9453 Q60.2188 80.1719 59.8906 80.1719 Q59.5625 80.1719 59.3359 79.9453 Q59.1094 79.7188 59.1094 79.3906 ZM57.8125 71.6406 Q58.4375 71.3594 59 71.2266 Q59.5625 71.0938 60.0469 71.0938 Q61.3438 71.0938 62.1016 71.7188 Q62.8594 72.3438 62.8594 73.4062 Q62.8594 74.5 62.2109 75.1953 Q61.5625 75.8906 60.25 76.1875 L60.25 77.6719 L59.5312 77.6719 L59.5312 75.75 Q60.5625 75.5 61.0938 74.9062 Q61.625 74.3125 61.625 73.4062 Q61.625 72.5938 61.1953 72.1328 Q60.7656 71.6719 60.0312 71.6719 Q59.3594 71.6719 58.9297 72.0547 Q58.5 72.4375 58.3906 73.1562 L57.8125 73.1562 L57.8125 71.6406 Z" style="fill:black; stroke:none;" /></g><g ID="li-1:4,5" style="fill:white; text-rendering:optimizeSpeed; font-family:'Serif'; stroke:white;"><rect height="10" style="stroke:none;" width="6" x="127" y="104" /><path d="M129.1094 113.3906 Q129.1094 113.0625 129.3359 112.8359 Q129.5625 112.6094 129.8906 112.6094 Q130.2188 112.6094 130.4453 112.8359 Q130.6719 113.0625 130.6719 113.3906 Q130.6719 113.7188 130.4453 113.9453 Q130.2188 114.1719 129.8906 114.1719 Q129.5625 114.1719 129.3359 113.9453 Q129.1094 113.7188 129.1094 113.3906 ZM127.8125 105.6406 Q128.4375 105.3594 129 105.2266 Q129.5625 105.0938 130.0469 105.0938 Q131.3438 105.0938 132.1016 105.7188 Q132.8594 106.3438 132.8594 107.4062 Q132.8594 108.5 132.2109 109.1953 Q131.5625 109.8906 130.25 110.1875 L130.25 111.6719 L129.5312 111.6719 L129.5312 109.75 Q130.5625 109.5 131.0938 108.9062 Q131.625 108.3125 131.625 107.4062 Q131.625 106.5938 131.1953 106.1328 Q130.7656 105.6719 130.0312 105.6719 Q129.3594 105.6719 128.9297 106.0547 Q128.5 106.4375 128.3906 107.1562 L127.8125 107.1562 L127.8125 105.6406 Z" style="fill:black; stroke:none;" /><rect height="10" style="stroke:none;" width="6" x="111" y="112" /><path d="M113.1094 121.3906 Q113.1094 121.0625 113.3359 120.8359 Q113.5625 120.6094 113.8906 120.6094 Q114.2188 120.6094 114.4453 120.8359 Q114.6719 121.0625 114.6719 121.3906 Q114.6719 121.7188 114.4453 121.9453 Q114.2188 122.1719 113.8906 122.1719 Q113.5625 122.1719 113.3359 121.9453 Q113.1094 121.7188 113.1094 121.3906 ZM111.8125 113.6406 Q112.4375 113.3594 113 113.2266 Q113.5625 113.0938 114.0469 113.0938 Q115.3438 113.0938 116.1016 113.7188 Q116.8594 114.3438 116.8594 115.4062 Q116.8594 116.5 116.2109 117.1953 Q115.5625 117.8906 114.25 118.1875 L114.25 119.6719 L113.5312 119.6719 L113.5312 117.75 Q114.5625 117.5 115.0938 116.9062 Q115.625 116.3125 115.625 115.4062 Q115.625 114.5938 115.1953 114.1328 Q114.7656 113.6719 114.0312 113.6719 Q113.3594 113.6719 112.9297 114.0547 Q112.5 114.4375 112.3906 115.1562 L111.8125 115.1562 L111.8125 113.6406 Z" style="fill:black; stroke:none;" /></g><g ID="li-1:4,6" style="fill:white; text-rendering:optimizeSpeed; font-family:'Serif'; stroke:white;"><rect height="10" style="stroke:none;" width="6" x="120" y="86" /><path d="M122.1094 95.3906 Q122.1094 95.0625 122.3359 94.8359 Q122.5625 94.6094 122.8906 94.6094 Q123.2188 94.6094 123.4453 94.8359 Q123.6719 95.0625 123.6719 95.3906 Q123.6719 95.7188 123.4453 95.9453 Q123.2188 96.1719 122.8906 96.1719 Q122.5625 96.1719 122.3359 95.9453 Q122.1094 95.7188 122.1094 95.3906 ZM120.8125 87.6406 Q121.4375 87.3594 122 87.2266 Q122.5625 87.0938 123.0469 87.0938 Q124.3438 87.0938 125.1016 87.7188 Q125.8594 88.3438 125.8594 89.4062 Q125.8594 90.5 125.2109 91.1953 Q124.5625 91.8906 123.25 92.1875 L123.25 93.6719 L122.5312 93.6719 L122.5312 91.75 Q123.5625 91.5 124.0938 90.9062 Q124.625 90.3125 124.625 89.4062 Q124.625 88.5938 124.1953 88.1328 Q123.7656 87.6719 123.0312 87.6719 Q122.3594 87.6719 121.9297 88.0547 Q121.5 88.4375 121.3906 89.1562 L120.8125 89.1562 L120.8125 87.6406 Z" style="fill:black; stroke:none;" /><rect height="10" style="stroke:none;" width="6" x="104" y="78" /><path d="M106.1094 87.3906 Q106.1094 87.0625 106.3359 86.8359 Q106.5625 86.6094 106.8906 86.6094 Q107.2188 86.6094 107.4453 86.8359 Q107.6719 87.0625 107.6719 87.3906 Q107.6719 87.7188 107.4453 87.9453 Q107.2188 88.1719 106.8906 88.1719 Q106.5625 88.1719 106.3359 87.9453 Q106.1094 87.7188 106.1094 87.3906 ZM104.8125 79.6406 Q105.4375 79.3594 106 79.2266 Q106.5625 79.0938 107.0469 79.0938 Q108.3438 79.0938 109.1016 79.7188 Q109.8594 80.3438 109.8594 81.4062 Q109.8594 82.5 109.2109 83.1953 Q108.5625 83.8906 107.25 84.1875 L107.25 85.6719 L106.5312 85.6719 L106.5312 83.75 Q107.5625 83.5 108.0938 82.9062 Q108.625 82.3125 108.625 81.4062 Q108.625 80.5938 108.1953 80.1328 Q107.7656 79.6719 107.0312 79.6719 Q106.3594 79.6719 105.9297 80.0547 Q105.5 80.4375 105.3906 81.1562 L104.8125 81.1562 L104.8125 79.6406 Z" style="fill:black; stroke:none;" /></g><g ID="li-1:2,4" style="fill:white; text-rendering:optimizeSpeed; font-family:'Serif'; stroke:white;"><rect height="10" style="stroke:none;" width="6" x="175" y="96" /><path d="M177.1094 105.3906 Q177.1094 105.0625 177.3359 104.8359 Q177.5625 104.6094 177.8906 104.6094 Q178.2188 104.6094 178.4453 104.8359 Q178.6719 105.0625 178.6719 105.3906 Q178.6719 105.7188 178.4453 105.9453 Q178.2188 106.1719 177.8906 106.1719 Q177.5625 106.1719 177.3359 105.9453 Q177.1094 105.7188 177.1094 105.3906 ZM175.8125 97.6406 Q176.4375 97.3594 177 97.2266 Q177.5625 97.0938 178.0469 97.0938 Q179.3438 97.0938 180.1016 97.7188 Q180.8594 98.3438 180.8594 99.4062 Q180.8594 100.5 180.2109 101.1953 Q179.5625 101.8906 178.25 102.1875 L178.25 103.6719 L177.5312 103.6719 L177.5312 101.75 Q178.5625 101.5 179.0938 100.9062 Q179.625 100.3125 179.625 99.4062 Q179.625 98.5938 179.1953 98.1328 Q178.7656 97.6719 178.0312 97.6719 Q177.3594 97.6719 176.9297 98.0547 Q176.5 98.4375 176.3906 99.1562 L175.8125 99.1562 L175.8125 97.6406 Z" style="fill:black; stroke:none;" /><rect height="10" style="stroke:none;" width="6" x="161" y="96" /><path d="M163.1094 105.3906 Q163.1094 105.0625 163.3359 104.8359 Q163.5625 104.6094 163.8906 104.6094 Q164.2188 104.6094 164.4453 104.8359 Q164.6719 105.0625 164.6719 105.3906 Q164.6719 105.7188 164.4453 105.9453 Q164.2188 106.1719 163.8906 106.1719 Q163.5625 106.1719 163.3359 105.9453 Q163.1094 105.7188 163.1094 105.3906 ZM161.8125 97.6406 Q162.4375 97.3594 163 97.2266 Q163.5625 97.0938 164.0469 97.0938 Q165.3438 97.0938 166.1016 97.7188 Q166.8594 98.3438 166.8594 99.4062 Q166.8594 100.5 166.2109 101.1953 Q165.5625 101.8906 164.25 102.1875 L164.25 103.6719 L163.5312 103.6719 L163.5312 101.75 Q164.5625 101.5 165.0938 100.9062 Q165.625 100.3125 165.625 99.4062 Q165.625 98.5938 165.1953 98.1328 Q164.7656 97.6719 164.0312 97.6719 Q163.3594 97.6719 162.9297 98.0547 Q162.5 98.4375 162.3906 99.1562 L161.8125 99.1562 L161.8125 97.6406 Z" style="fill:black; stroke:none;" /></g><g ID="l-1:3,9" style="text-rendering:optimizeSpeed;"><polygon points=" 197 41 145 41" style="fill:none;" /></g><g ID="r-1:3" style="fill:white; text-rendering:optimizeSpeed; stroke:white;" wurcs_mono_id="8"><circle cx="197" cy="41" r="11" style="clip-path:url(#clipPath8); stroke:none;" /><rect height="22" style="clip-path:url(#clipPath8); fill:rgb(255,212,0); stroke:none;" width="22" x="186" y="30" /><rect height="22" style="clip-path:url(#clipPath8); fill:none; stroke:black;" width="22" x="186" y="30" /><circle cx="197" cy="41" r="11" style="fill:none; stroke:black;" /></g><g ID="r-1:9" style="fill:white; text-rendering:optimizeSpeed; stroke:white;" wurcs_mono_id="9"><polygon points=" 145 30 156 41 145 52 134 41" style="stroke:none; clip-path:url(#clipPath9);" /><rect height="22" style="clip-path:url(#clipPath9); fill:rgb(165,67,153); stroke:none;" width="22" x="134" y="30" /><rect height="22" style="clip-path:url(#clipPath9); fill:none; stroke:black;" width="22" x="134" y="30" /><polygon points=" 145 30 156 41 145 52 134 41" style="fill:none; stroke:black;" /></g><g ID="li-1:3,9" style="fill:white; text-rendering:optimizeSpeed; font-family:'Serif'; stroke:white;"><rect height="10" style="stroke:none;" width="6" x="175" y="44" /><path d="M177.1094 53.3906 Q177.1094 53.0625 177.3359 52.8359 Q177.5625 52.6094 177.8906 52.6094 Q178.2188 52.6094 178.4453 52.8359 Q178.6719 53.0625 178.6719 53.3906 Q178.6719 53.7188 178.4453 53.9453 Q178.2188 54.1719 177.8906 54.1719 Q177.5625 54.1719 177.3359 53.9453 Q177.1094 53.7188 177.1094 53.3906 ZM175.8125 45.6406 Q176.4375 45.3594 177 45.2266 Q177.5625 45.0938 178.0469 45.0938 Q179.3438 45.0938 180.1016 45.7188 Q180.8594 46.3438 180.8594 47.4062 Q180.8594 48.5 180.2109 49.1953 Q179.5625 49.8906 178.25 50.1875 L178.25 51.6719 L177.5312 51.6719 L177.5312 49.75 Q178.5625 49.5 179.0938 48.9062 Q179.625 48.3125 179.625 47.4062 Q179.625 46.5938 179.1953 46.1328 Q178.7656 45.6719 178.0312 45.6719 Q177.3594 45.6719 176.9297 46.0547 Q176.5 46.4375 176.3906 47.1562 L175.8125 47.1562 L175.8125 45.6406 Z" style="fill:black; stroke:none;" /><rect height="10" style="stroke:none;" width="6" x="161" y="44" /><path d="M163.1094 53.3906 Q163.1094 53.0625 163.3359 52.8359 Q163.5625 52.6094 163.8906 52.6094 Q164.2188 52.6094 164.4453 52.8359 Q164.6719 53.0625 164.6719 53.3906 Q164.6719 53.7188 164.4453 53.9453 Q164.2188 54.1719 163.8906 54.1719 Q163.5625 54.1719 163.3359 53.9453 Q163.1094 53.7188 163.1094 53.3906 ZM161.8125 45.6406 Q162.4375 45.3594 163 45.2266 Q163.5625 45.0938 164.0469 45.0938 Q165.3438 45.0938 166.1016 45.7188 Q166.8594 46.3438 166.8594 47.4062 Q166.8594 48.5 166.2109 49.1953 Q165.5625 49.8906 164.25 50.1875 L164.25 51.6719 L163.5312 51.6719 L163.5312 49.75 Q164.5625 49.5 165.0938 48.9062 Q165.625 48.3125 165.625 47.4062 Q165.625 46.5938 165.1953 46.1328 Q164.7656 45.6719 164.0312 45.6719 Q163.3594 45.6719 162.9297 46.0547 Q162.5 46.4375 162.3906 47.1562 L161.8125 47.1562 L161.8125 45.6406 Z" style="fill:black; stroke:none;" /></g><g ID="li-1:1,2" style="fill:white; text-rendering:optimizeSpeed; font-family:'Serif'; stroke:white;"><rect height="10" style="stroke:none;" width="6" x="231" y="78" /><path d="M233.1094 87.3906 Q233.1094 87.0625 233.3359 86.8359 Q233.5625 86.6094 233.8906 86.6094 Q234.2188 86.6094 234.4453 86.8359 Q234.6719 87.0625 234.6719 87.3906 Q234.6719 87.7188 234.4453 87.9453 Q234.2188 88.1719 233.8906 88.1719 Q233.5625 88.1719 233.3359 87.9453 Q233.1094 87.7188 233.1094 87.3906 ZM231.8125 79.6406 Q232.4375 79.3594 233 79.2266 Q233.5625 79.0938 234.0469 79.0938 Q235.3438 79.0938 236.1016 79.7188 Q236.8594 80.3438 236.8594 81.4062 Q236.8594 82.5 236.2109 83.1953 Q235.5625 83.8906 234.25 84.1875 L234.25 85.6719 L233.5312 85.6719 L233.5312 83.75 Q234.5625 83.5 235.0938 82.9062 Q235.625 82.3125 235.625 81.4062 Q235.625 80.5938 235.1953 80.1328 Q234.7656 79.6719 234.0312 79.6719 Q233.3594 79.6719 232.9297 80.0547 Q232.5 80.4375 232.3906 81.1562 L231.8125 81.1562 L231.8125 79.6406 Z" style="fill:black; stroke:none;" /><rect height="10" style="stroke:none;" width="6" x="215" y="86" /><path d="M217.1094 95.3906 Q217.1094 95.0625 217.3359 94.8359 Q217.5625 94.6094 217.8906 94.6094 Q218.2188 94.6094 218.4453 94.8359 Q218.6719 95.0625 218.6719 95.3906 Q218.6719 95.7188 218.4453 95.9453 Q218.2188 96.1719 217.8906 96.1719 Q217.5625 96.1719 217.3359 95.9453 Q217.1094 95.7188 217.1094 95.3906 ZM215.8125 87.6406 Q216.4375 87.3594 217 87.2266 Q217.5625 87.0938 218.0469 87.0938 Q219.3438 87.0938 220.1016 87.7188 Q220.8594 88.3438 220.8594 89.4062 Q220.8594 90.5 220.2109 91.1953 Q219.5625 91.8906 218.25 92.1875 L218.25 93.6719 L217.5312 93.6719 L217.5312 91.75 Q218.5625 91.5 219.0938 90.9062 Q219.625 90.3125 219.625 89.4062 Q219.625 88.5938 219.1953 88.1328 Q218.7656 87.6719 218.0312 87.6719 Q217.3594 87.6719 216.9297 88.0547 Q216.5 88.4375 216.3906 89.1562 L215.8125 89.1562 L215.8125 87.6406 Z" style="fill:black; stroke:none;" /></g><g ID="li-1:1,3" style="fill:white; text-rendering:optimizeSpeed; font-family:'Serif'; stroke:white;"><rect height="10" style="stroke:none;" width="6" x="224" y="60" /><path d="M226.1094 69.3906 Q226.1094 69.0625 226.3359 68.8359 Q226.5625 68.6094 226.8906 68.6094 Q227.2188 68.6094 227.4453 68.8359 Q227.6719 69.0625 227.6719 69.3906 Q227.6719 69.7188 227.4453 69.9453 Q227.2188 70.1719 226.8906 70.1719 Q226.5625 70.1719 226.3359 69.9453 Q226.1094 69.7188 226.1094 69.3906 ZM224.8125 61.6406 Q225.4375 61.3594 226 61.2266 Q226.5625 61.0938 227.0469 61.0938 Q228.3438 61.0938 229.1016 61.7188 Q229.8594 62.3438 229.8594 63.4062 Q229.8594 64.5 229.2109 65.1953 Q228.5625 65.8906 227.25 66.1875 L227.25 67.6719 L226.5312 67.6719 L226.5312 65.75 Q227.5625 65.5 228.0938 64.9062 Q228.625 64.3125 228.625 63.4062 Q228.625 62.5938 228.1953 62.1328 Q227.7656 61.6719 227.0312 61.6719 Q226.3594 61.6719 225.9297 62.0547 Q225.5 62.4375 225.3906 63.1562 L224.8125 63.1562 L224.8125 61.6406 Z" style="fill:black; stroke:none;" /><rect height="10" style="stroke:none;" width="6" x="208" y="52" /><path d="M210.1094 61.3906 Q210.1094 61.0625 210.3359 60.8359 Q210.5625 60.6094 210.8906 60.6094 Q211.2188 60.6094 211.4453 60.8359 Q211.6719 61.0625 211.6719 61.3906 Q211.6719 61.7188 211.4453 61.9453 Q211.2188 62.1719 210.8906 62.1719 Q210.5625 62.1719 210.3359 61.9453 Q210.1094 61.7188 210.1094 61.3906 ZM208.8125 53.6406 Q209.4375 53.3594 210 53.2266 Q210.5625 53.0938 211.0469 53.0938 Q212.3438 53.0938 213.1016 53.7188 Q213.8594 54.3438 213.8594 55.4062 Q213.8594 56.5 213.2109 57.1953 Q212.5625 57.8906 211.25 58.1875 L211.25 59.6719 L210.5312 59.6719 L210.5312 57.75 Q211.5625 57.5 212.0938 56.9062 Q212.625 56.3125 212.625 55.4062 Q212.625 54.5938 212.1953 54.1328 Q211.7656 53.6719 211.0312 53.6719 Q210.3594 53.6719 209.9297 54.0547 Q209.5 54.4375 209.3906 55.1562 L208.8125 55.1562 L208.8125 53.6406 Z" style="fill:black; stroke:none;" /></g></g></svg>