<svg xmlns="http://www.w3.org/2000/svg" style="fill-opacity:1; color-rendering:auto; color-interpolation:auto; text-rendering:auto; stroke:black; stroke-linecap:square; stroke-miterlimit:10; shape-rendering:auto; stroke-opacity:1; fill:black; stroke-dasharray:none; font-weight:normal; stroke-width:1; font-family:'Dialog'; font-style:normal; stroke-linejoin:miter; font-size:12px; stroke-dashoffset:0; image-rendering:auto;"><defs id="genericDefs" /><g><defs id="defs1"><clipPath clipPathUnits="userSpaceOnUse" id="clipPath1"><path d="M238 108 L260 108 L260 130 L238 130 L238 108 Z" /></clipPath><clipPath clipPathUnits="userSpaceOnUse" id="clipPath2"><path d="M186 108 L208 108 L208 130 L186 130 L186 108 Z" /></clipPath><clipPath clipPathUnits="userSpaceOnUse" id="clipPath3"><path d="M156 119 C156 125.0751 151.0751 130 145 130 C138.9249 130 134 125.0751 134 119 C134 112.9249 138.9249 108 145 108 C151.0751 108 156 112.9249 156 119 Z" /></clipPath><clipPath clipPathUnits="userSpaceOnUse" id="clipPath4"><path d="M104 145 C104 151.0751 99.0751 156 93 156 C86.9249 156 82 151.0751 82 145 C82 138.9249 86.9249 134 93 134 C99.0751 134 104 138.9249 104 145 Z" /></clipPath><clipPath clipPathUnits="userSpaceOnUse" id="clipPath5"><path d="M30 134 L52 134 L52 156 L30 156 L30 134 Z" /></clipPath><clipPath clipPathUnits="userSpaceOnUse" id="clipPath6"><path d="M104 93 C104 99.0751 99.0751 104 93 104 C86.9249 104 82 99.0751 82 93 C82 86.9249 86.9249 82 93 82 C99.0751 82 104 86.9249 104 93 Z" /></clipPath><clipPath clipPathUnits="userSpaceOnUse" id="clipPath7"><path d="M30 82 L52 82 L52 104 L30 104 L30 82 Z" /></clipPath><clipPath clipPathUnits="userSpaceOnUse" id="clipPath8"><path d="M41 52 L30 30 L52 30 Z" style="fill-rule:evenodd;" /></clipPath></defs><g style="fill:white; text-rendering:optimizeSpeed; stroke:white;"><rect height="186" style="stroke:none;" width="290" x="0" y="0" /></g><g ID="l-1:1,2" style="text-rendering:optimizeSpeed;"><polygon points=" 249 119 197 119" style="fill:none;" /></g><g ID="r-1:1" style="fill:white; text-rendering:optimizeSpeed; stroke:white;" wurcs_mono_id="1"><rect height="22" style="clip-path:url(#clipPath1); stroke:none;" width="22" x="238" y="108" /><rect height="22" style="clip-path:url(#clipPath1); fill:rgb(0,144,188); stroke:none;" width="22" x="238" y="108" /><rect height="22" style="clip-path:url(#clipPath1); fill:none; stroke:black;" width="22" x="238" y="108" /><rect height="22" style="fill:none; stroke:black;" width="22" x="238" y="108" /></g><g ID="l-1:2,3" style="text-rendering:optimizeSpeed;"><polygon points=" 197 119 145 119" style="fill:none;" /></g><g ID="r-1:2" style="fill:white; text-rendering:optimizeSpeed; stroke:white;" wurcs_mono_id="2"><rect height="22" style="clip-path:url(#clipPath2); stroke:none;" width="22" x="186" y="108" /><rect height="22" style="clip-path:url(#clipPath2); fill:rgb(0,144,188); stroke:none;" width="22" x="186" y="108" /><rect height="22" style="clip-path:url(#clipPath2); fill:none; stroke:black;" width="22" x="186" y="108" /><rect height="22" style="fill:none; stroke:black;" width="22" x="186" y="108" /></g><g ID="l-1:3,4" style="text-rendering:optimizeSpeed;"><polygon points=" 145 119 93 145" style="fill:none;" /></g><g ID="l-1:3,5" style="text-rendering:optimizeSpeed;"><polygon points=" 145 119 93 93" style="fill:none;" /></g><g ID="r-1:3" style="fill:white; text-rendering:optimizeSpeed; stroke:white;" wurcs_mono_id="3"><circle cx="145" cy="119" r="11" style="clip-path:url(#clipPath3); stroke:none;" /><rect height="22" style="clip-path:url(#clipPath3); fill:rgb(0,166,81); stroke:none;" width="22" x="134" y="108" /><rect height="22" style="clip-path:url(#clipPath3); fill:none; stroke:black;" width="22" x="134" y="108" /><circle cx="145" cy="119" r="11" style="fill:none; stroke:black;" /></g><g ID="l-1:4,6" style="text-rendering:optimizeSpeed;"><polygon points=" 93 145 41 145" style="fill:none;" /></g><g ID="r-1:4" style="fill:white; text-rendering:optimizeSpeed; stroke:white;" wurcs_mono_id="4"><circle cx="93" cy="145" r="11" style="clip-path:url(#clipPath4); stroke:none;" /><rect height="22" style="clip-path:url(#clipPath4); fill:rgb(0,166,81); stroke:none;" width="22" x="82" y="134" /><rect height="22" style="clip-path:url(#clipPath4); fill:none; stroke:black;" width="22" x="82" y="134" /><circle cx="93" cy="145" r="11" style="fill:none; stroke:black;" /></g><g ID="r-1:6" style="fill:white; text-rendering:optimizeSpeed; stroke:white;" wurcs_mono_id="5"><rect height="22" style="clip-path:url(#clipPath5); stroke:none;" width="22" x="30" y="134" /><rect height="22" style="clip-path:url(#clipPath5); fill:rgb(0,144,188); stroke:none;" width="22" x="30" y="134" /><rect height="22" style="clip-path:url(#clipPath5); fill:none; stroke:black;" width="22" x="30" y="134" /><rect height="22" style="fill:none; stroke:black;" width="22" x="30" y="134" /></g><g ID="li-1:4,6" style="fill:white; text-rendering:optimizeSpeed; font-family:'Serif'; stroke:white;"><rect height="9" style="stroke:none;" width="7" x="70" y="148" /><path d="M71.5312 150.3438 L70.875 150.3438 L70.875 148.7812 Q71.5 148.4375 72.1406 148.2656 Q72.7812 148.0938 73.3906 148.0938 Q74.75 148.0938 75.5391 148.7578 Q76.3281 149.4219 76.3281 150.5469 Q76.3281 151.8438 74.5469 153.625 Q74.4062 153.7656 74.3281 153.8281 L72.125 156.0312 L75.7656 156.0312 L75.7656 154.9531 L76.4531 154.9531 L76.4531 157 L70.8125 157 L70.8125 156.3594 L73.4688 153.7188 Q74.3438 152.8281 74.7188 152.0938 Q75.0938 151.3594 75.0938 150.5469 Q75.0938 149.6719 74.6328 149.1719 Q74.1719 148.6719 73.375 148.6719 Q72.5312 148.6719 72.0781 149.0859 Q71.625 149.5 71.5312 150.3438 Z" style="fill:black; stroke:none;" /><rect height="13" style="stroke:none;" width="7" x="56" y="146" /><path d="M57.8281 158.25 Q58.2969 158.5938 59.1719 158.5938 Q60.0625 158.5938 60.5781 158.0703 Q61.0938 157.5469 61.0938 156.6562 Q61.0938 155.4219 60.5625 154.8906 Q60.0156 154.3594 59 154.3594 L58.4375 154.3594 L58.4375 153.7188 L58.7344 153.7188 Q59.4844 153.7188 60 153.2969 Q60.4219 152.9531 60.4219 152.0156 Q60.4219 151.6094 60.1406 151.1406 Q59.6875 150.375 59.1562 150.3906 Q57.8281 150.4375 57.8281 152.7812 L57.8281 158.25 ZM56.75 161.5 L56.75 152.7812 Q56.75 150.3281 58.0781 150 Q58.7656 149.8125 59.25 149.8125 Q60.3438 149.8125 61.0469 150.6719 Q61.6094 151.3594 61.6094 151.9375 Q61.6094 152.7812 61.2031 153.2656 Q60.7969 153.75 60.0625 153.9844 Q61.1406 154.1406 61.75 154.7812 Q62.3281 155.4062 62.3281 156.6328 Q62.3281 157.8594 61.5078 158.5156 Q60.6875 159.1719 59.1406 159.1719 Q58.1875 159.1719 57.8281 159.0312 L57.8281 161.5 L56.75 161.5 Z" style="fill:black; stroke:none;" /></g><g ID="l-1:5,7" style="text-rendering:optimizeSpeed;"><polygon points=" 93 93 41 93" style="fill:none;" /></g><g ID="r-1:5" style="fill:white; text-rendering:optimizeSpeed; stroke:white;" wurcs_mono_id="6"><circle cx="93" cy="93" r="11" style="clip-path:url(#clipPath6); stroke:none;" /><rect height="22" style="clip-path:url(#clipPath6); fill:rgb(0,166,81); stroke:none;" width="22" x="82" y="82" /><rect height="22" style="clip-path:url(#clipPath6); fill:none; stroke:black;" width="22" x="82" y="82" /><circle cx="93" cy="93" r="11" style="fill:none; stroke:black;" /></g><g ID="l-1:7,8" style="text-rendering:optimizeSpeed;"><polygon points=" 41 93 41 41" style="fill:none;" /></g><g ID="r-1:7" style="fill:white; text-rendering:optimizeSpeed; stroke:white;" wurcs_mono_id="7"><rect height="22" style="clip-path:url(#clipPath7); stroke:none;" width="22" x="30" y="82" /><rect height="22" style="clip-path:url(#clipPath7); fill:rgb(0,144,188); stroke:none;" width="22" x="30" y="82" /><rect height="22" style="clip-path:url(#clipPath7); fill:none; stroke:black;" width="22" x="30" y="82" /><rect height="22" style="fill:none; stroke:black;" width="22" x="30" y="82" /></g><g ID="r-1:8" style="fill:white; text-rendering:optimizeSpeed; stroke:white;" wurcs_mono_id="8"><polygon points=" 41 52 30 30 52 30" style="stroke:none; clip-path:url(#clipPath8);" /><rect height="22" style="clip-path:url(#clipPath8); fill:rgb(237,28,36); stroke:none;" width="22" x="30" y="30" /><rect height="22" style="clip-path:url(#clipPath8); fill:none; stroke:black;" width="22" x="30" y="30" /><polygon points=" 41 52 30 30 52 30" style="fill:none; stroke:black;" /></g><g ID="li-1:7,8" style="fill:white; text-rendering:optimizeSpeed; font-family:'Serif'; stroke:white;"><rect height="10" style="stroke:none;" width="7" x="29" y="69" /><path d="M32.9219 78.5938 Q33.75 78.5938 34.1953 77.9844 Q34.6406 77.375 34.6406 76.2344 Q34.6406 75.1094 34.1953 74.5 Q33.75 73.8906 32.9219 73.8906 Q32.0938 73.8906 31.6484 74.4766 Q31.2031 75.0625 31.2031 76.1719 Q31.2031 77.3281 31.6484 77.9609 Q32.0938 78.5938 32.9219 78.5938 ZM31.0156 74.1875 Q31.4219 73.75 31.9219 73.5312 Q32.4219 73.3125 33.0625 73.3125 Q34.3594 73.3125 35.1172 74.0938 Q35.875 74.875 35.875 76.2344 Q35.875 77.5625 35.0625 78.3672 Q34.25 79.1719 32.875 79.1719 Q31.3906 79.1719 30.5938 78.0625 Q29.7969 76.9531 29.7969 74.9062 Q29.7969 72.6094 30.7422 71.3516 Q31.6875 70.0938 33.4062 70.0938 Q33.875 70.0938 34.3828 70.1797 Q34.8906 70.2656 35.4219 70.4375 L35.4219 71.8906 L34.7656 71.8906 Q34.6875 71.2969 34.3047 70.9844 Q33.9219 70.6719 33.2812 70.6719 Q32.1406 70.6719 31.5859 71.5312 Q31.0312 72.3906 31.0156 74.1875 Z" style="fill:black; stroke:none;" /><rect height="8" style="stroke:none;" width="8" x="29" y="56" /><path d="M34.1875 62.4688 L33.9531 63.1094 Q33.7656 63.625 33.2031 63.9375 Q32.8438 64.1562 32.2031 64.1406 Q31.0469 64.1406 30.3281 63.2344 Q29.5938 62.3281 29.5938 60.8594 Q29.5938 59.4219 30.3281 58.4844 Q31.0156 57.5938 32.4531 57.6094 Q33.4531 57.6094 33.9531 58 Q34.4062 58.3438 34.5781 59.0938 L34.625 59.3125 L34.8438 58.6719 Q35.0625 58.0469 35.6562 57.75 L36.25 57.75 L36.25 58.0938 Q35.6875 58.2656 35.5 58.8125 L34.8906 60.4844 L35.2969 62.2812 Q35.5 63.2031 35.7344 63.2969 Q36.0469 63.4375 36.7812 63 L36.7812 63.7188 Q35.5938 64.4062 34.75 63.6875 Q34.375 63.3594 34.2656 62.875 L34.1875 62.4688 ZM33.9219 61.3125 L33.5625 59.5938 Q33.2656 58.2188 32.4688 58.2188 Q31.7969 58.2031 31.2812 58.9375 Q30.8594 59.5156 30.8594 60.875 Q30.8594 62.1719 31.2812 62.8281 Q31.75 63.5469 32.5312 63.5 Q33.2031 63.4375 33.6875 62 L33.9219 61.3125 Z" style="fill:black; stroke:none;" /></g><g ID="li-1:5,7" style="fill:white; text-rendering:optimizeSpeed; font-family:'Serif'; stroke:white;"><rect height="9" style="stroke:none;" width="7" x="70" y="96" /><path d="M71.5312 98.3438 L70.875 98.3438 L70.875 96.7812 Q71.5 96.4375 72.1406 96.2656 Q72.7812 96.0938 73.3906 96.0938 Q74.75 96.0938 75.5391 96.7578 Q76.3281 97.4219 76.3281 98.5469 Q76.3281 99.8438 74.5469 101.625 Q74.4062 101.7656 74.3281 101.8281 L72.125 104.0312 L75.7656 104.0312 L75.7656 102.9531 L76.4531 102.9531 L76.4531 105 L70.8125 105 L70.8125 104.3594 L73.4688 101.7188 Q74.3438 100.8281 74.7188 100.0938 Q75.0938 99.3594 75.0938 98.5469 Q75.0938 97.6719 74.6328 97.1719 Q74.1719 96.6719 73.375 96.6719 Q72.5312 96.6719 72.0781 97.0859 Q71.625 97.5 71.5312 98.3438 Z" style="fill:black; stroke:none;" /><rect height="13" style="stroke:none;" width="7" x="56" y="94" /><path d="M57.8281 106.25 Q58.2969 106.5938 59.1719 106.5938 Q60.0625 106.5938 60.5781 106.0703 Q61.0938 105.5469 61.0938 104.6562 Q61.0938 103.4219 60.5625 102.8906 Q60.0156 102.3594 59 102.3594 L58.4375 102.3594 L58.4375 101.7188 L58.7344 101.7188 Q59.4844 101.7188 60 101.2969 Q60.4219 100.9531 60.4219 100.0156 Q60.4219 99.6094 60.1406 99.1406 Q59.6875 98.375 59.1562 98.3906 Q57.8281 98.4375 57.8281 100.7812 L57.8281 106.25 ZM56.75 109.5 L56.75 100.7812 Q56.75 98.3281 58.0781 98 Q58.7656 97.8125 59.25 97.8125 Q60.3438 97.8125 61.0469 98.6719 Q61.6094 99.3594 61.6094 99.9375 Q61.6094 100.7812 61.2031 101.2656 Q60.7969 101.75 60.0625 101.9844 Q61.1406 102.1406 61.75 102.7812 Q62.3281 103.4062 62.3281 104.6328 Q62.3281 105.8594 61.5078 106.5156 Q60.6875 107.1719 59.1406 107.1719 Q58.1875 107.1719 57.8281 107.0312 L57.8281 109.5 L56.75 109.5 Z" style="fill:black; stroke:none;" /></g><g ID="li-1:3,4" style="fill:white; text-rendering:optimizeSpeed; font-family:'Serif'; stroke:white;"><rect height="10" style="stroke:none;" width="7" x="126" y="130" /><path d="M127.1719 131.625 Q127.8594 131.3594 128.4844 131.2266 Q129.1094 131.0938 129.6562 131.0938 Q130.9531 131.0938 131.6719 131.6484 Q132.3906 132.2031 132.3906 133.1875 Q132.3906 133.9688 131.8906 134.5 Q131.3906 135.0312 130.4844 135.2188 Q131.5625 135.375 132.1562 136.0078 Q132.75 136.6406 132.75 137.6406 Q132.75 138.8594 131.9219 139.5156 Q131.0938 140.1719 129.5469 140.1719 Q128.8594 140.1719 128.2109 140.0234 Q127.5625 139.875 126.9219 139.5781 L126.9219 137.875 L127.5781 137.875 Q127.625 138.7188 128.1406 139.1562 Q128.6562 139.5938 129.5781 139.5938 Q130.4688 139.5938 130.9922 139.0703 Q131.5156 138.5469 131.5156 137.6562 Q131.5156 136.625 130.9766 136.0938 Q130.4375 135.5625 129.4062 135.5625 L128.8594 135.5625 L128.8594 134.9531 L129.1406 134.9531 Q130.1719 134.9531 130.6875 134.5312 Q131.2031 134.1094 131.2031 133.25 Q131.2031 132.4844 130.7812 132.0781 Q130.3594 131.6719 129.5625 131.6719 Q128.7656 131.6719 128.3359 132.0469 Q127.9062 132.4219 127.8281 133.1562 L127.1719 133.1562 L127.1719 131.625 Z" style="fill:black; stroke:none;" /><rect height="8" style="stroke:none;" width="8" x="110" y="139" /><path d="M115.1875 145.4688 L114.9531 146.1094 Q114.7656 146.625 114.2031 146.9375 Q113.8438 147.1562 113.2031 147.1406 Q112.0469 147.1406 111.3281 146.2344 Q110.5938 145.3281 110.5938 143.8594 Q110.5938 142.4219 111.3281 141.4844 Q112.0156 140.5938 113.4531 140.6094 Q114.4531 140.6094 114.9531 141 Q115.4062 141.3438 115.5781 142.0938 L115.625 142.3125 L115.8438 141.6719 Q116.0625 141.0469 116.6562 140.75 L117.25 140.75 L117.25 141.0938 Q116.6875 141.2656 116.5 141.8125 L115.8906 143.4844 L116.2969 145.2812 Q116.5 146.2031 116.7344 146.2969 Q117.0469 146.4375 117.7812 146 L117.7812 146.7188 Q116.5938 147.4062 115.75 146.6875 Q115.375 146.3594 115.2656 145.875 L115.1875 145.4688 ZM114.9219 144.3125 L114.5625 142.5938 Q114.2656 141.2188 113.4688 141.2188 Q112.7969 141.2031 112.2812 141.9375 Q111.8594 142.5156 111.8594 143.875 Q111.8594 145.1719 112.2812 145.8281 Q112.75 146.5469 113.5312 146.5 Q114.2031 146.4375 114.6875 145 L114.9219 144.3125 Z" style="fill:black; stroke:none;" /></g><g ID="li-1:3,5" style="fill:white; text-rendering:optimizeSpeed; font-family:'Serif'; stroke:white;"><rect height="10" style="stroke:none;" width="7" x="119" y="112" /><path d="M122.9219 121.5938 Q123.75 121.5938 124.1953 120.9844 Q124.6406 120.375 124.6406 119.2344 Q124.6406 118.1094 124.1953 117.5 Q123.75 116.8906 122.9219 116.8906 Q122.0938 116.8906 121.6484 117.4766 Q121.2031 118.0625 121.2031 119.1719 Q121.2031 120.3281 121.6484 120.9609 Q122.0938 121.5938 122.9219 121.5938 ZM121.0156 117.1875 Q121.4219 116.75 121.9219 116.5312 Q122.4219 116.3125 123.0625 116.3125 Q124.3594 116.3125 125.1172 117.0938 Q125.875 117.875 125.875 119.2344 Q125.875 120.5625 125.0625 121.3672 Q124.25 122.1719 122.875 122.1719 Q121.3906 122.1719 120.5938 121.0625 Q119.7969 119.9531 119.7969 117.9062 Q119.7969 115.6094 120.7422 114.3516 Q121.6875 113.0938 123.4062 113.0938 Q123.875 113.0938 124.3828 113.1797 Q124.8906 113.2656 125.4219 113.4375 L125.4219 114.8906 L124.7656 114.8906 Q124.6875 114.2969 124.3047 113.9844 Q123.9219 113.6719 123.2812 113.6719 Q122.1406 113.6719 121.5859 114.5312 Q121.0312 115.3906 121.0156 117.1875 Z" style="fill:black; stroke:none;" /><rect height="8" style="stroke:none;" width="8" x="103" y="105" /><path d="M108.1875 111.4688 L107.9531 112.1094 Q107.7656 112.625 107.2031 112.9375 Q106.8438 113.1562 106.2031 113.1406 Q105.0469 113.1406 104.3281 112.2344 Q103.5938 111.3281 103.5938 109.8594 Q103.5938 108.4219 104.3281 107.4844 Q105.0156 106.5938 106.4531 106.6094 Q107.4531 106.6094 107.9531 107 Q108.4062 107.3438 108.5781 108.0938 L108.625 108.3125 L108.8438 107.6719 Q109.0625 107.0469 109.6562 106.75 L110.25 106.75 L110.25 107.0938 Q109.6875 107.2656 109.5 107.8125 L108.8906 109.4844 L109.2969 111.2812 Q109.5 112.2031 109.7344 112.2969 Q110.0469 112.4375 110.7812 112 L110.7812 112.7188 Q109.5938 113.4062 108.75 112.6875 Q108.375 112.3594 108.2656 111.875 L108.1875 111.4688 ZM107.9219 110.3125 L107.5625 108.5938 Q107.2656 107.2188 106.4688 107.2188 Q105.7969 107.2031 105.2812 107.9375 Q104.8594 108.5156 104.8594 109.875 Q104.8594 111.1719 105.2812 111.8281 Q105.75 112.5469 106.5312 112.5 Q107.2031 112.4375 107.6875 111 L107.9219 110.3125 Z" style="fill:black; stroke:none;" /></g><g ID="li-1:2,3" style="fill:white; text-rendering:optimizeSpeed; font-family:'Serif'; stroke:white;"><rect height="9" style="stroke:none;" width="8" x="174" y="122" /><path d="M178.1875 128.0312 L178.1875 123.375 L175.2031 128.0312 L178.1875 128.0312 ZM180.7656 131 L176.7812 131 L176.7812 130.375 L178.1875 130.375 L178.1875 128.6562 L174.375 128.6562 L174.375 128.0156 L178.2031 122.0938 L179.3594 122.0938 L179.3594 128.0312 L181.0312 128.0312 L181.0312 128.6562 L179.3594 128.6562 L179.3594 130.375 L180.7656 130.375 L180.7656 131 Z" style="fill:black; stroke:none;" /><rect height="13" style="stroke:none;" width="7" x="160" y="120" /><path d="M161.8281 132.25 Q162.2969 132.5938 163.1719 132.5938 Q164.0625 132.5938 164.5781 132.0703 Q165.0938 131.5469 165.0938 130.6562 Q165.0938 129.4219 164.5625 128.8906 Q164.0156 128.3594 163 128.3594 L162.4375 128.3594 L162.4375 127.7188 L162.7344 127.7188 Q163.4844 127.7188 164 127.2969 Q164.4219 126.9531 164.4219 126.0156 Q164.4219 125.6094 164.1406 125.1406 Q163.6875 124.375 163.1562 124.3906 Q161.8281 124.4375 161.8281 126.7812 L161.8281 132.25 ZM160.75 135.5 L160.75 126.7812 Q160.75 124.3281 162.0781 124 Q162.7656 123.8125 163.25 123.8125 Q164.3438 123.8125 165.0469 124.6719 Q165.6094 125.3594 165.6094 125.9375 Q165.6094 126.7812 165.2031 127.2656 Q164.7969 127.75 164.0625 127.9844 Q165.1406 128.1406 165.75 128.7812 Q166.3281 129.4062 166.3281 130.6328 Q166.3281 131.8594 165.5078 132.5156 Q164.6875 133.1719 163.1406 133.1719 Q162.1875 133.1719 161.8281 133.0312 L161.8281 135.5 L160.75 135.5 Z" style="fill:black; stroke:none;" /></g><g ID="li-1:1,2" style="fill:white; text-rendering:optimizeSpeed; font-family:'Serif'; stroke:white;"><rect height="9" style="stroke:none;" width="8" x="226" y="122" /><path d="M230.1875 128.0312 L230.1875 123.375 L227.2031 128.0312 L230.1875 128.0312 ZM232.7656 131 L228.7812 131 L228.7812 130.375 L230.1875 130.375 L230.1875 128.6562 L226.375 128.6562 L226.375 128.0156 L230.2031 122.0938 L231.3594 122.0938 L231.3594 128.0312 L233.0312 128.0312 L233.0312 128.6562 L231.3594 128.6562 L231.3594 130.375 L232.7656 130.375 L232.7656 131 Z" style="fill:black; stroke:none;" /><rect height="13" style="stroke:none;" width="7" x="212" y="120" /><path d="M213.8281 132.25 Q214.2969 132.5938 215.1719 132.5938 Q216.0625 132.5938 216.5781 132.0703 Q217.0938 131.5469 217.0938 130.6562 Q217.0938 129.4219 216.5625 128.8906 Q216.0156 128.3594 215 128.3594 L214.4375 128.3594 L214.4375 127.7188 L214.7344 127.7188 Q215.4844 127.7188 216 127.2969 Q216.4219 126.9531 216.4219 126.0156 Q216.4219 125.6094 216.1406 125.1406 Q215.6875 124.375 215.1562 124.3906 Q213.8281 124.4375 213.8281 126.7812 L213.8281 132.25 ZM212.75 135.5 L212.75 126.7812 Q212.75 124.3281 214.0781 124 Q214.7656 123.8125 215.25 123.8125 Q216.3438 123.8125 217.0469 124.6719 Q217.6094 125.3594 217.6094 125.9375 Q217.6094 126.7812 217.2031 127.2656 Q216.7969 127.75 216.0625 127.9844 Q217.1406 128.1406 217.75 128.7812 Q218.3281 129.4062 218.3281 130.6328 Q218.3281 131.8594 217.5078 132.5156 Q216.6875 133.1719 215.1406 133.1719 Q214.1875 133.1719 213.8281 133.0312 L213.8281 135.5 L212.75 135.5 Z" style="fill:black; stroke:none;" /></g></g></svg>