<svg xmlns="http://www.w3.org/2000/svg" style="fill-opacity:1; color-rendering:auto; color-interpolation:auto; text-rendering:auto; stroke:black; stroke-linecap:square; stroke-miterlimit:10; shape-rendering:auto; stroke-opacity:1; fill:black; stroke-dasharray:none; font-weight:normal; stroke-width:1; font-family:'Dialog'; font-style:normal; stroke-linejoin:miter; font-size:12px; stroke-dashoffset:0; image-rendering:auto;"><defs id="genericDefs" /><g><defs id="defs1"><clipPath clipPathUnits="userSpaceOnUse" id="clipPath1"><path d="M290 134 L312 134 L312 156 L290 156 L290 134 Z" /></clipPath><clipPath clipPathUnits="userSpaceOnUse" id="clipPath2"><path d="M238 134 L260 134 L260 156 L238 156 L238 134 Z" /></clipPath><clipPath clipPathUnits="userSpaceOnUse" id="clipPath3"><path d="M208 145 C208 151.0751 203.0751 156 197 156 C190.9249 156 186 151.0751 186 145 C186 138.9249 190.9249 134 197 134 C203.0751 134 208 138.9249 208 145 Z" /></clipPath><clipPath clipPathUnits="userSpaceOnUse" id="clipPath4"><path d="M156 197 C156 203.0751 151.0751 208 145 208 C138.9249 208 134 203.0751 134 197 C134 190.9249 138.9249 186 145 186 C151.0751 186 156 190.9249 156 197 Z" /></clipPath><clipPath clipPathUnits="userSpaceOnUse" id="clipPath5"><path d="M82 186 L104 186 L104 208 L82 208 L82 186 Z" /></clipPath><clipPath clipPathUnits="userSpaceOnUse" id="clipPath6"><path d="M52 197 C52 203.0751 47.0751 208 41 208 C34.9249 208 30 203.0751 30 197 C30 190.9249 34.9249 186 41 186 C47.0751 186 52 190.9249 52 197 Z" /></clipPath><clipPath clipPathUnits="userSpaceOnUse" id="clipPath7"><path d="M134 134 L156 134 L156 156 L134 156 L134 134 Z" /></clipPath><clipPath clipPathUnits="userSpaceOnUse" id="clipPath8"><path d="M82 134 L104 134 L104 156 L82 156 L82 134 Z" /></clipPath><clipPath clipPathUnits="userSpaceOnUse" id="clipPath9"><path d="M93 104 L82 82 L104 82 Z" style="fill-rule:evenodd;" /></clipPath><clipPath clipPathUnits="userSpaceOnUse" id="clipPath10"><path d="M156 41 C156 47.0751 151.0751 52 145 52 C138.9249 52 134 47.0751 134 41 C134 34.9249 138.9249 30 145 30 C151.0751 30 156 34.9249 156 41 Z" /></clipPath><clipPath clipPathUnits="userSpaceOnUse" id="clipPath11"><path d="M82 30 L104 30 L104 52 L82 52 L82 30 Z" /></clipPath><clipPath clipPathUnits="userSpaceOnUse" id="clipPath12"><path d="M52 41 C52 47.0751 47.0751 52 41 52 C34.9249 52 30 47.0751 30 41 C30 34.9249 34.9249 30 41 30 C47.0751 30 52 34.9249 52 41 Z" /></clipPath></defs><g style="fill:white; text-rendering:optimizeSpeed; stroke:white;"><rect height="238" style="stroke:none;" width="342" x="0" y="0" /></g><g ID="l-1:1,2" style="text-rendering:optimizeSpeed;"><polygon points=" 301 145 249 145" style="fill:none;" /></g><g ID="r-1:1" style="fill:white; text-rendering:optimizeSpeed; stroke:white;" wurcs_mono_id="1"><rect height="22" style="clip-path:url(#clipPath1); stroke:none;" width="22" x="290" y="134" /><rect height="22" style="clip-path:url(#clipPath1); fill:rgb(0,144,188); stroke:none;" width="22" x="290" y="134" /><rect height="22" style="clip-path:url(#clipPath1); fill:none; stroke:black;" width="22" x="290" y="134" /><rect height="22" style="fill:none; stroke:black;" width="22" x="290" y="134" /></g><g ID="l-1:2,3" style="text-rendering:optimizeSpeed;"><polygon points=" 249 145 197 145" style="fill:none;" /></g><g ID="r-1:2" style="fill:white; text-rendering:optimizeSpeed; stroke:white;" wurcs_mono_id="2"><rect height="22" style="clip-path:url(#clipPath2); stroke:none;" width="22" x="238" y="134" /><rect height="22" style="clip-path:url(#clipPath2); fill:rgb(0,144,188); stroke:none;" width="22" x="238" y="134" /><rect height="22" style="clip-path:url(#clipPath2); fill:none; stroke:black;" width="22" x="238" y="134" /><rect height="22" style="fill:none; stroke:black;" width="22" x="238" y="134" /></g><g ID="l-1:3,4" style="text-rendering:optimizeSpeed;"><polygon points=" 197 145 145 197" style="fill:none;" /></g><g ID="l-1:3,5" style="text-rendering:optimizeSpeed;"><polygon points=" 197 145 145 145" style="fill:none;" /></g><g ID="l-1:3,6" style="text-rendering:optimizeSpeed;"><polygon points=" 197 145 145 41" style="fill:none;" /></g><g ID="r-1:3" style="fill:white; text-rendering:optimizeSpeed; stroke:white;" wurcs_mono_id="3"><circle cx="197" cy="145" r="11" style="clip-path:url(#clipPath3); stroke:none;" /><rect height="22" style="clip-path:url(#clipPath3); fill:rgb(0,166,81); stroke:none;" width="22" x="186" y="134" /><rect height="22" style="clip-path:url(#clipPath3); fill:none; stroke:black;" width="22" x="186" y="134" /><circle cx="197" cy="145" r="11" style="fill:none; stroke:black;" /></g><g ID="l-1:4,7" style="text-rendering:optimizeSpeed;"><polygon points=" 145 197 93 197" style="fill:none;" /></g><g ID="r-1:4" style="fill:white; text-rendering:optimizeSpeed; stroke:white;" wurcs_mono_id="4"><circle cx="145" cy="197" r="11" style="clip-path:url(#clipPath4); stroke:none;" /><rect height="22" style="clip-path:url(#clipPath4); fill:rgb(0,166,81); stroke:none;" width="22" x="134" y="186" /><rect height="22" style="clip-path:url(#clipPath4); fill:none; stroke:black;" width="22" x="134" y="186" /><circle cx="145" cy="197" r="11" style="fill:none; stroke:black;" /></g><g ID="l-1:7,8" style="text-rendering:optimizeSpeed;"><polygon points=" 93 197 41 197" style="fill:none;" /></g><g ID="r-1:7" style="fill:white; text-rendering:optimizeSpeed; stroke:white;" wurcs_mono_id="5"><rect height="22" style="clip-path:url(#clipPath5); stroke:none;" width="22" x="82" y="186" /><rect height="22" style="clip-path:url(#clipPath5); fill:rgb(0,144,188); stroke:none;" width="22" x="82" y="186" /><rect height="22" style="clip-path:url(#clipPath5); fill:none; stroke:black;" width="22" x="82" y="186" /><rect height="22" style="fill:none; stroke:black;" width="22" x="82" y="186" /></g><g ID="r-1:8" style="fill:white; text-rendering:optimizeSpeed; stroke:white;" wurcs_mono_id="6"><circle cx="41" cy="197" r="11" style="clip-path:url(#clipPath6); stroke:none;" /><rect height="22" style="clip-path:url(#clipPath6); fill:rgb(255,212,0); stroke:none;" width="22" x="30" y="186" /><rect height="22" style="clip-path:url(#clipPath6); fill:none; stroke:black;" width="22" x="30" y="186" /><circle cx="41" cy="197" r="11" style="fill:none; stroke:black;" /></g><g ID="li-1:7,8" style="fill:white; text-rendering:optimizeSpeed; font-family:'Serif'; stroke:white;"><rect height="9" style="stroke:none;" width="8" x="70" y="200" /><path d="M74.1875 206.0312 L74.1875 201.375 L71.2031 206.0312 L74.1875 206.0312 ZM76.7656 209 L72.7812 209 L72.7812 208.375 L74.1875 208.375 L74.1875 206.6562 L70.375 206.6562 L70.375 206.0156 L74.2031 200.0938 L75.3594 200.0938 L75.3594 206.0312 L77.0312 206.0312 L77.0312 206.6562 L75.3594 206.6562 L75.3594 208.375 L76.7656 208.375 L76.7656 209 Z" style="fill:black; stroke:none;" /><rect height="13" style="stroke:none;" width="7" x="56" y="198" /><path d="M57.8281 210.25 Q58.2969 210.5938 59.1719 210.5938 Q60.0625 210.5938 60.5781 210.0703 Q61.0938 209.5469 61.0938 208.6562 Q61.0938 207.4219 60.5625 206.8906 Q60.0156 206.3594 59 206.3594 L58.4375 206.3594 L58.4375 205.7188 L58.7344 205.7188 Q59.4844 205.7188 60 205.2969 Q60.4219 204.9531 60.4219 204.0156 Q60.4219 203.6094 60.1406 203.1406 Q59.6875 202.375 59.1562 202.3906 Q57.8281 202.4375 57.8281 204.7812 L57.8281 210.25 ZM56.75 213.5 L56.75 204.7812 Q56.75 202.3281 58.0781 202 Q58.7656 201.8125 59.25 201.8125 Q60.3438 201.8125 61.0469 202.6719 Q61.6094 203.3594 61.6094 203.9375 Q61.6094 204.7812 61.2031 205.2656 Q60.7969 205.75 60.0625 205.9844 Q61.1406 206.1406 61.75 206.7812 Q62.3281 207.4062 62.3281 208.6328 Q62.3281 209.8594 61.5078 210.5156 Q60.6875 211.1719 59.1406 211.1719 Q58.1875 211.1719 57.8281 211.0312 L57.8281 213.5 L56.75 213.5 Z" style="fill:black; stroke:none;" /></g><g ID="li-1:4,7" style="fill:white; text-rendering:optimizeSpeed; font-family:'Serif'; stroke:white;"><rect height="9" style="stroke:none;" width="7" x="122" y="200" /><path d="M123.5312 202.3438 L122.875 202.3438 L122.875 200.7812 Q123.5 200.4375 124.1406 200.2656 Q124.7812 200.0938 125.3906 200.0938 Q126.75 200.0938 127.5391 200.7578 Q128.3281 201.4219 128.3281 202.5469 Q128.3281 203.8438 126.5469 205.625 Q126.4062 205.7656 126.3281 205.8281 L124.125 208.0312 L127.7656 208.0312 L127.7656 206.9531 L128.4531 206.9531 L128.4531 209 L122.8125 209 L122.8125 208.3594 L125.4688 205.7188 Q126.3438 204.8281 126.7188 204.0938 Q127.0938 203.3594 127.0938 202.5469 Q127.0938 201.6719 126.6328 201.1719 Q126.1719 200.6719 125.375 200.6719 Q124.5312 200.6719 124.0781 201.0859 Q123.625 201.5 123.5312 202.3438 Z" style="fill:black; stroke:none;" /><rect height="13" style="stroke:none;" width="7" x="108" y="198" /><path d="M109.8281 210.25 Q110.2969 210.5938 111.1719 210.5938 Q112.0625 210.5938 112.5781 210.0703 Q113.0938 209.5469 113.0938 208.6562 Q113.0938 207.4219 112.5625 206.8906 Q112.0156 206.3594 111 206.3594 L110.4375 206.3594 L110.4375 205.7188 L110.7344 205.7188 Q111.4844 205.7188 112 205.2969 Q112.4219 204.9531 112.4219 204.0156 Q112.4219 203.6094 112.1406 203.1406 Q111.6875 202.375 111.1562 202.3906 Q109.8281 202.4375 109.8281 204.7812 L109.8281 210.25 ZM108.75 213.5 L108.75 204.7812 Q108.75 202.3281 110.0781 202 Q110.7656 201.8125 111.25 201.8125 Q112.3438 201.8125 113.0469 202.6719 Q113.6094 203.3594 113.6094 203.9375 Q113.6094 204.7812 113.2031 205.2656 Q112.7969 205.75 112.0625 205.9844 Q113.1406 206.1406 113.75 206.7812 Q114.3281 207.4062 114.3281 208.6328 Q114.3281 209.8594 113.5078 210.5156 Q112.6875 211.1719 111.1406 211.1719 Q110.1875 211.1719 109.8281 211.0312 L109.8281 213.5 L108.75 213.5 Z" style="fill:black; stroke:none;" /></g><g ID="l-1:5,9" style="text-rendering:optimizeSpeed;"><polygon points=" 145 145 93 145" style="fill:none;" /></g><g ID="r-1:5" style="fill:white; text-rendering:optimizeSpeed; stroke:white;" wurcs_mono_id="7"><rect height="22" style="clip-path:url(#clipPath7); stroke:none;" width="22" x="134" y="134" /><rect height="22" style="clip-path:url(#clipPath7); fill:rgb(0,144,188); stroke:none;" width="22" x="134" y="134" /><rect height="22" style="clip-path:url(#clipPath7); fill:none; stroke:black;" width="22" x="134" y="134" /><rect height="22" style="fill:none; stroke:black;" width="22" x="134" y="134" /></g><g ID="l-1:9,10" style="text-rendering:optimizeSpeed;"><polygon points=" 93 145 93 93" style="fill:none;" /></g><g ID="r-1:9" style="fill:white; text-rendering:optimizeSpeed; stroke:white;" wurcs_mono_id="8"><rect height="22" style="clip-path:url(#clipPath8); stroke:none;" width="22" x="82" y="134" /><rect height="22" style="clip-path:url(#clipPath8); fill:rgb(0,144,188); stroke:none;" width="22" x="82" y="134" /><rect height="22" style="clip-path:url(#clipPath8); fill:none; stroke:black;" width="22" x="82" y="134" /><rect height="22" style="fill:none; stroke:black;" width="22" x="82" y="134" /></g><g ID="r-1:10" style="fill:white; text-rendering:optimizeSpeed; stroke:white;" wurcs_mono_id="9"><polygon points=" 93 104 82 82 104 82" style="stroke:none; clip-path:url(#clipPath9);" /><rect height="22" style="clip-path:url(#clipPath9); fill:rgb(237,28,36); stroke:none;" width="22" x="82" y="82" /><rect height="22" style="clip-path:url(#clipPath9); fill:none; stroke:black;" width="22" x="82" y="82" /><polygon points=" 93 104 82 82 104 82" style="fill:none; stroke:black;" /></g><g ID="li-1:9,10" style="fill:white; text-rendering:optimizeSpeed; font-family:'Serif'; stroke:white;"><rect height="10" style="stroke:none;" width="7" x="81" y="121" /><path d="M84.9219 130.5938 Q85.75 130.5938 86.1953 129.9844 Q86.6406 129.375 86.6406 128.2344 Q86.6406 127.1094 86.1953 126.5 Q85.75 125.8906 84.9219 125.8906 Q84.0938 125.8906 83.6484 126.4766 Q83.2031 127.0625 83.2031 128.1719 Q83.2031 129.3281 83.6484 129.9609 Q84.0938 130.5938 84.9219 130.5938 ZM83.0156 126.1875 Q83.4219 125.75 83.9219 125.5312 Q84.4219 125.3125 85.0625 125.3125 Q86.3594 125.3125 87.1172 126.0938 Q87.875 126.875 87.875 128.2344 Q87.875 129.5625 87.0625 130.3672 Q86.25 131.1719 84.875 131.1719 Q83.3906 131.1719 82.5938 130.0625 Q81.7969 128.9531 81.7969 126.9062 Q81.7969 124.6094 82.7422 123.3516 Q83.6875 122.0938 85.4062 122.0938 Q85.875 122.0938 86.3828 122.1797 Q86.8906 122.2656 87.4219 122.4375 L87.4219 123.8906 L86.7656 123.8906 Q86.6875 123.2969 86.3047 122.9844 Q85.9219 122.6719 85.2812 122.6719 Q84.1406 122.6719 83.5859 123.5312 Q83.0312 124.3906 83.0156 126.1875 Z" style="fill:black; stroke:none;" /><rect height="8" style="stroke:none;" width="8" x="81" y="108" /><path d="M86.1875 114.4688 L85.9531 115.1094 Q85.7656 115.625 85.2031 115.9375 Q84.8438 116.1562 84.2031 116.1406 Q83.0469 116.1406 82.3281 115.2344 Q81.5938 114.3281 81.5938 112.8594 Q81.5938 111.4219 82.3281 110.4844 Q83.0156 109.5938 84.4531 109.6094 Q85.4531 109.6094 85.9531 110 Q86.4062 110.3438 86.5781 111.0938 L86.625 111.3125 L86.8438 110.6719 Q87.0625 110.0469 87.6562 109.75 L88.25 109.75 L88.25 110.0938 Q87.6875 110.2656 87.5 110.8125 L86.8906 112.4844 L87.2969 114.2812 Q87.5 115.2031 87.7344 115.2969 Q88.0469 115.4375 88.7812 115 L88.7812 115.7188 Q87.5938 116.4062 86.75 115.6875 Q86.375 115.3594 86.2656 114.875 L86.1875 114.4688 ZM85.9219 113.3125 L85.5625 111.5938 Q85.2656 110.2188 84.4688 110.2188 Q83.7969 110.2031 83.2812 110.9375 Q82.8594 111.5156 82.8594 112.875 Q82.8594 114.1719 83.2812 114.8281 Q83.75 115.5469 84.5312 115.5 Q85.2031 115.4375 85.6875 114 L85.9219 113.3125 Z" style="fill:black; stroke:none;" /></g><g ID="li-1:5,9" style="fill:white; text-rendering:optimizeSpeed; font-family:'Serif'; stroke:white;"><rect height="9" style="stroke:none;" width="8" x="122" y="148" /><path d="M126.1875 154.0312 L126.1875 149.375 L123.2031 154.0312 L126.1875 154.0312 ZM128.7656 157 L124.7812 157 L124.7812 156.375 L126.1875 156.375 L126.1875 154.6562 L122.375 154.6562 L122.375 154.0156 L126.2031 148.0938 L127.3594 148.0938 L127.3594 154.0312 L129.0312 154.0312 L129.0312 154.6562 L127.3594 154.6562 L127.3594 156.375 L128.7656 156.375 L128.7656 157 Z" style="fill:black; stroke:none;" /><rect height="13" style="stroke:none;" width="7" x="108" y="146" /><path d="M109.8281 158.25 Q110.2969 158.5938 111.1719 158.5938 Q112.0625 158.5938 112.5781 158.0703 Q113.0938 157.5469 113.0938 156.6562 Q113.0938 155.4219 112.5625 154.8906 Q112.0156 154.3594 111 154.3594 L110.4375 154.3594 L110.4375 153.7188 L110.7344 153.7188 Q111.4844 153.7188 112 153.2969 Q112.4219 152.9531 112.4219 152.0156 Q112.4219 151.6094 112.1406 151.1406 Q111.6875 150.375 111.1562 150.3906 Q109.8281 150.4375 109.8281 152.7812 L109.8281 158.25 ZM108.75 161.5 L108.75 152.7812 Q108.75 150.3281 110.0781 150 Q110.7656 149.8125 111.25 149.8125 Q112.3438 149.8125 113.0469 150.6719 Q113.6094 151.3594 113.6094 151.9375 Q113.6094 152.7812 113.2031 153.2656 Q112.7969 153.75 112.0625 153.9844 Q113.1406 154.1406 113.75 154.7812 Q114.3281 155.4062 114.3281 156.6328 Q114.3281 157.8594 113.5078 158.5156 Q112.6875 159.1719 111.1406 159.1719 Q110.1875 159.1719 109.8281 159.0312 L109.8281 161.5 L108.75 161.5 Z" style="fill:black; stroke:none;" /></g><g ID="l-1:6,11" style="text-rendering:optimizeSpeed;"><polygon points=" 145 41 93 41" style="fill:none;" /></g><g ID="r-1:6" style="fill:white; text-rendering:optimizeSpeed; stroke:white;" wurcs_mono_id="10"><circle cx="145" cy="41" r="11" style="clip-path:url(#clipPath10); stroke:none;" /><rect height="22" style="clip-path:url(#clipPath10); fill:rgb(0,166,81); stroke:none;" width="22" x="134" y="30" /><rect height="22" style="clip-path:url(#clipPath10); fill:none; stroke:black;" width="22" x="134" y="30" /><circle cx="145" cy="41" r="11" style="fill:none; stroke:black;" /></g><g ID="l-1:11,12" style="text-rendering:optimizeSpeed;"><polygon points=" 93 41 41 41" style="fill:none;" /></g><g ID="r-1:11" style="fill:white; text-rendering:optimizeSpeed; stroke:white;" wurcs_mono_id="11"><rect height="22" style="clip-path:url(#clipPath11); stroke:none;" width="22" x="82" y="30" /><rect height="22" style="clip-path:url(#clipPath11); fill:rgb(0,144,188); stroke:none;" width="22" x="82" y="30" /><rect height="22" style="clip-path:url(#clipPath11); fill:none; stroke:black;" width="22" x="82" y="30" /><rect height="22" style="fill:none; stroke:black;" width="22" x="82" y="30" /></g><g ID="r-1:12" style="fill:white; text-rendering:optimizeSpeed; stroke:white;" wurcs_mono_id="12"><circle cx="41" cy="41" r="11" style="clip-path:url(#clipPath12); stroke:none;" /><rect height="22" style="clip-path:url(#clipPath12); fill:rgb(255,212,0); stroke:none;" width="22" x="30" y="30" /><rect height="22" style="clip-path:url(#clipPath12); fill:none; stroke:black;" width="22" x="30" y="30" /><circle cx="41" cy="41" r="11" style="fill:none; stroke:black;" /></g><g ID="li-1:11,12" style="fill:white; text-rendering:optimizeSpeed; font-family:'Serif'; stroke:white;"><rect height="9" style="stroke:none;" width="8" x="70" y="44" /><path d="M74.1875 50.0312 L74.1875 45.375 L71.2031 50.0312 L74.1875 50.0312 ZM76.7656 53 L72.7812 53 L72.7812 52.375 L74.1875 52.375 L74.1875 50.6562 L70.375 50.6562 L70.375 50.0156 L74.2031 44.0938 L75.3594 44.0938 L75.3594 50.0312 L77.0312 50.0312 L77.0312 50.6562 L75.3594 50.6562 L75.3594 52.375 L76.7656 52.375 L76.7656 53 Z" style="fill:black; stroke:none;" /><rect height="13" style="stroke:none;" width="7" x="56" y="42" /><path d="M57.8281 54.25 Q58.2969 54.5938 59.1719 54.5938 Q60.0625 54.5938 60.5781 54.0703 Q61.0938 53.5469 61.0938 52.6562 Q61.0938 51.4219 60.5625 50.8906 Q60.0156 50.3594 59 50.3594 L58.4375 50.3594 L58.4375 49.7188 L58.7344 49.7188 Q59.4844 49.7188 60 49.2969 Q60.4219 48.9531 60.4219 48.0156 Q60.4219 47.6094 60.1406 47.1406 Q59.6875 46.375 59.1562 46.3906 Q57.8281 46.4375 57.8281 48.7812 L57.8281 54.25 ZM56.75 57.5 L56.75 48.7812 Q56.75 46.3281 58.0781 46 Q58.7656 45.8125 59.25 45.8125 Q60.3438 45.8125 61.0469 46.6719 Q61.6094 47.3594 61.6094 47.9375 Q61.6094 48.7812 61.2031 49.2656 Q60.7969 49.75 60.0625 49.9844 Q61.1406 50.1406 61.75 50.7812 Q62.3281 51.4062 62.3281 52.6328 Q62.3281 53.8594 61.5078 54.5156 Q60.6875 55.1719 59.1406 55.1719 Q58.1875 55.1719 57.8281 55.0312 L57.8281 57.5 L56.75 57.5 Z" style="fill:black; stroke:none;" /></g><g ID="li-1:6,11" style="fill:white; text-rendering:optimizeSpeed; font-family:'Serif'; stroke:white;"><rect height="9" style="stroke:none;" width="7" x="122" y="44" /><path d="M123.5312 46.3438 L122.875 46.3438 L122.875 44.7812 Q123.5 44.4375 124.1406 44.2656 Q124.7812 44.0938 125.3906 44.0938 Q126.75 44.0938 127.5391 44.7578 Q128.3281 45.4219 128.3281 46.5469 Q128.3281 47.8438 126.5469 49.625 Q126.4062 49.7656 126.3281 49.8281 L124.125 52.0312 L127.7656 52.0312 L127.7656 50.9531 L128.4531 50.9531 L128.4531 53 L122.8125 53 L122.8125 52.3594 L125.4688 49.7188 Q126.3438 48.8281 126.7188 48.0938 Q127.0938 47.3594 127.0938 46.5469 Q127.0938 45.6719 126.6328 45.1719 Q126.1719 44.6719 125.375 44.6719 Q124.5312 44.6719 124.0781 45.0859 Q123.625 45.5 123.5312 46.3438 Z" style="fill:black; stroke:none;" /><rect height="13" style="stroke:none;" width="7" x="108" y="42" /><path d="M109.8281 54.25 Q110.2969 54.5938 111.1719 54.5938 Q112.0625 54.5938 112.5781 54.0703 Q113.0938 53.5469 113.0938 52.6562 Q113.0938 51.4219 112.5625 50.8906 Q112.0156 50.3594 111 50.3594 L110.4375 50.3594 L110.4375 49.7188 L110.7344 49.7188 Q111.4844 49.7188 112 49.2969 Q112.4219 48.9531 112.4219 48.0156 Q112.4219 47.6094 112.1406 47.1406 Q111.6875 46.375 111.1562 46.3906 Q109.8281 46.4375 109.8281 48.7812 L109.8281 54.25 ZM108.75 57.5 L108.75 48.7812 Q108.75 46.3281 110.0781 46 Q110.7656 45.8125 111.25 45.8125 Q112.3438 45.8125 113.0469 46.6719 Q113.6094 47.3594 113.6094 47.9375 Q113.6094 48.7812 113.2031 49.2656 Q112.7969 49.75 112.0625 49.9844 Q113.1406 50.1406 113.75 50.7812 Q114.3281 51.4062 114.3281 52.6328 Q114.3281 53.8594 113.5078 54.5156 Q112.6875 55.1719 111.1406 55.1719 Q110.1875 55.1719 109.8281 55.0312 L109.8281 57.5 L108.75 57.5 Z" style="fill:black; stroke:none;" /></g><g ID="li-1:3,4" style="fill:white; text-rendering:optimizeSpeed; font-family:'Serif'; stroke:white;"><rect height="10" style="stroke:none;" width="7" x="182" y="162" /><path d="M183.1719 163.625 Q183.8594 163.3594 184.4844 163.2266 Q185.1094 163.0938 185.6562 163.0938 Q186.9531 163.0938 187.6719 163.6484 Q188.3906 164.2031 188.3906 165.1875 Q188.3906 165.9688 187.8906 166.5 Q187.3906 167.0312 186.4844 167.2188 Q187.5625 167.375 188.1562 168.0078 Q188.75 168.6406 188.75 169.6406 Q188.75 170.8594 187.9219 171.5156 Q187.0938 172.1719 185.5469 172.1719 Q184.8594 172.1719 184.2109 172.0234 Q183.5625 171.875 182.9219 171.5781 L182.9219 169.875 L183.5781 169.875 Q183.625 170.7188 184.1406 171.1562 Q184.6562 171.5938 185.5781 171.5938 Q186.4688 171.5938 186.9922 171.0703 Q187.5156 170.5469 187.5156 169.6562 Q187.5156 168.625 186.9766 168.0938 Q186.4375 167.5625 185.4062 167.5625 L184.8594 167.5625 L184.8594 166.9531 L185.1406 166.9531 Q186.1719 166.9531 186.6875 166.5312 Q187.2031 166.1094 187.2031 165.25 Q187.2031 164.4844 186.7812 164.0781 Q186.3594 163.6719 185.5625 163.6719 Q184.7656 163.6719 184.3359 164.0469 Q183.9062 164.4219 183.8281 165.1562 L183.1719 165.1562 L183.1719 163.625 Z" style="fill:black; stroke:none;" /><rect height="8" style="stroke:none;" width="8" x="163" y="182" /><path d="M168.1875 188.4688 L167.9531 189.1094 Q167.7656 189.625 167.2031 189.9375 Q166.8438 190.1562 166.2031 190.1406 Q165.0469 190.1406 164.3281 189.2344 Q163.5938 188.3281 163.5938 186.8594 Q163.5938 185.4219 164.3281 184.4844 Q165.0156 183.5938 166.4531 183.6094 Q167.4531 183.6094 167.9531 184 Q168.4062 184.3438 168.5781 185.0938 L168.625 185.3125 L168.8438 184.6719 Q169.0625 184.0469 169.6562 183.75 L170.25 183.75 L170.25 184.0938 Q169.6875 184.2656 169.5 184.8125 L168.8906 186.4844 L169.2969 188.2812 Q169.5 189.2031 169.7344 189.2969 Q170.0469 189.4375 170.7812 189 L170.7812 189.7188 Q169.5938 190.4062 168.75 189.6875 Q168.375 189.3594 168.2656 188.875 L168.1875 188.4688 ZM167.9219 187.3125 L167.5625 185.5938 Q167.2656 184.2188 166.4688 184.2188 Q165.7969 184.2031 165.2812 184.9375 Q164.8594 185.5156 164.8594 186.875 Q164.8594 188.1719 165.2812 188.8281 Q165.75 189.5469 166.5312 189.5 Q167.2031 189.4375 167.6875 188 L167.9219 187.3125 Z" style="fill:black; stroke:none;" /></g><g ID="li-1:3,5" style="fill:white; text-rendering:optimizeSpeed; font-family:'Serif'; stroke:white;"><rect height="9" style="stroke:none;" width="8" x="174" y="148" /><path d="M178.1875 154.0312 L178.1875 149.375 L175.2031 154.0312 L178.1875 154.0312 ZM180.7656 157 L176.7812 157 L176.7812 156.375 L178.1875 156.375 L178.1875 154.6562 L174.375 154.6562 L174.375 154.0156 L178.2031 148.0938 L179.3594 148.0938 L179.3594 154.0312 L181.0312 154.0312 L181.0312 154.6562 L179.3594 154.6562 L179.3594 156.375 L180.7656 156.375 L180.7656 157 Z" style="fill:black; stroke:none;" /><rect height="13" style="stroke:none;" width="7" x="160" y="146" /><path d="M161.8281 158.25 Q162.2969 158.5938 163.1719 158.5938 Q164.0625 158.5938 164.5781 158.0703 Q165.0938 157.5469 165.0938 156.6562 Q165.0938 155.4219 164.5625 154.8906 Q164.0156 154.3594 163 154.3594 L162.4375 154.3594 L162.4375 153.7188 L162.7344 153.7188 Q163.4844 153.7188 164 153.2969 Q164.4219 152.9531 164.4219 152.0156 Q164.4219 151.6094 164.1406 151.1406 Q163.6875 150.375 163.1562 150.3906 Q161.8281 150.4375 161.8281 152.7812 L161.8281 158.25 ZM160.75 161.5 L160.75 152.7812 Q160.75 150.3281 162.0781 150 Q162.7656 149.8125 163.25 149.8125 Q164.3438 149.8125 165.0469 150.6719 Q165.6094 151.3594 165.6094 151.9375 Q165.6094 152.7812 165.2031 153.2656 Q164.7969 153.75 164.0625 153.9844 Q165.1406 154.1406 165.75 154.7812 Q166.3281 155.4062 166.3281 156.6328 Q166.3281 157.8594 165.5078 158.5156 Q164.6875 159.1719 163.1406 159.1719 Q162.1875 159.1719 161.8281 159.0312 L161.8281 161.5 L160.75 161.5 Z" style="fill:black; stroke:none;" /></g><g ID="li-1:3,6" style="fill:white; text-rendering:optimizeSpeed; font-family:'Serif'; stroke:white;"><rect height="10" style="stroke:none;" width="7" x="177" y="125" /><path d="M180.9219 134.5938 Q181.75 134.5938 182.1953 133.9844 Q182.6406 133.375 182.6406 132.2344 Q182.6406 131.1094 182.1953 130.5 Q181.75 129.8906 180.9219 129.8906 Q180.0938 129.8906 179.6484 130.4766 Q179.2031 131.0625 179.2031 132.1719 Q179.2031 133.3281 179.6484 133.9609 Q180.0938 134.5938 180.9219 134.5938 ZM179.0156 130.1875 Q179.4219 129.75 179.9219 129.5312 Q180.4219 129.3125 181.0625 129.3125 Q182.3594 129.3125 183.1172 130.0938 Q183.875 130.875 183.875 132.2344 Q183.875 133.5625 183.0625 134.3672 Q182.25 135.1719 180.875 135.1719 Q179.3906 135.1719 178.5938 134.0625 Q177.7969 132.9531 177.7969 130.9062 Q177.7969 128.6094 178.7422 127.3516 Q179.6875 126.0938 181.4062 126.0938 Q181.875 126.0938 182.3828 126.1797 Q182.8906 126.2656 183.4219 126.4375 L183.4219 127.8906 L182.7656 127.8906 Q182.6875 127.2969 182.3047 126.9844 Q181.9219 126.6719 181.2812 126.6719 Q180.1406 126.6719 179.5859 127.5312 Q179.0312 128.3906 179.0156 130.1875 Z" style="fill:black; stroke:none;" /><rect height="8" style="stroke:none;" width="8" x="142" y="58" /><path d="M147.1875 64.4688 L146.9531 65.1094 Q146.7656 65.625 146.2031 65.9375 Q145.8438 66.1562 145.2031 66.1406 Q144.0469 66.1406 143.3281 65.2344 Q142.5938 64.3281 142.5938 62.8594 Q142.5938 61.4219 143.3281 60.4844 Q144.0156 59.5938 145.4531 59.6094 Q146.4531 59.6094 146.9531 60 Q147.4062 60.3438 147.5781 61.0938 L147.625 61.3125 L147.8438 60.6719 Q148.0625 60.0469 148.6562 59.75 L149.25 59.75 L149.25 60.0938 Q148.6875 60.2656 148.5 60.8125 L147.8906 62.4844 L148.2969 64.2812 Q148.5 65.2031 148.7344 65.2969 Q149.0469 65.4375 149.7812 65 L149.7812 65.7188 Q148.5938 66.4062 147.75 65.6875 Q147.375 65.3594 147.2656 64.875 L147.1875 64.4688 ZM146.9219 63.3125 L146.5625 61.5938 Q146.2656 60.2188 145.4688 60.2188 Q144.7969 60.2031 144.2812 60.9375 Q143.8594 61.5156 143.8594 62.875 Q143.8594 64.1719 144.2812 64.8281 Q144.75 65.5469 145.5312 65.5 Q146.2031 65.4375 146.6875 64 L146.9219 63.3125 Z" style="fill:black; stroke:none;" /></g><g ID="li-1:2,3" style="fill:white; text-rendering:optimizeSpeed; font-family:'Serif'; stroke:white;"><rect height="9" style="stroke:none;" width="8" x="226" y="148" /><path d="M230.1875 154.0312 L230.1875 149.375 L227.2031 154.0312 L230.1875 154.0312 ZM232.7656 157 L228.7812 157 L228.7812 156.375 L230.1875 156.375 L230.1875 154.6562 L226.375 154.6562 L226.375 154.0156 L230.2031 148.0938 L231.3594 148.0938 L231.3594 154.0312 L233.0312 154.0312 L233.0312 154.6562 L231.3594 154.6562 L231.3594 156.375 L232.7656 156.375 L232.7656 157 Z" style="fill:black; stroke:none;" /><rect height="13" style="stroke:none;" width="7" x="212" y="146" /><path d="M213.8281 158.25 Q214.2969 158.5938 215.1719 158.5938 Q216.0625 158.5938 216.5781 158.0703 Q217.0938 157.5469 217.0938 156.6562 Q217.0938 155.4219 216.5625 154.8906 Q216.0156 154.3594 215 154.3594 L214.4375 154.3594 L214.4375 153.7188 L214.7344 153.7188 Q215.4844 153.7188 216 153.2969 Q216.4219 152.9531 216.4219 152.0156 Q216.4219 151.6094 216.1406 151.1406 Q215.6875 150.375 215.1562 150.3906 Q213.8281 150.4375 213.8281 152.7812 L213.8281 158.25 ZM212.75 161.5 L212.75 152.7812 Q212.75 150.3281 214.0781 150 Q214.7656 149.8125 215.25 149.8125 Q216.3438 149.8125 217.0469 150.6719 Q217.6094 151.3594 217.6094 151.9375 Q217.6094 152.7812 217.2031 153.2656 Q216.7969 153.75 216.0625 153.9844 Q217.1406 154.1406 217.75 154.7812 Q218.3281 155.4062 218.3281 156.6328 Q218.3281 157.8594 217.5078 158.5156 Q216.6875 159.1719 215.1406 159.1719 Q214.1875 159.1719 213.8281 159.0312 L213.8281 161.5 L212.75 161.5 Z" style="fill:black; stroke:none;" /></g><g ID="li-1:1,2" style="fill:white; text-rendering:optimizeSpeed; font-family:'Serif'; stroke:white;"><rect height="9" style="stroke:none;" width="8" x="278" y="148" /><path d="M282.1875 154.0312 L282.1875 149.375 L279.2031 154.0312 L282.1875 154.0312 ZM284.7656 157 L280.7812 157 L280.7812 156.375 L282.1875 156.375 L282.1875 154.6562 L278.375 154.6562 L278.375 154.0156 L282.2031 148.0938 L283.3594 148.0938 L283.3594 154.0312 L285.0312 154.0312 L285.0312 154.6562 L283.3594 154.6562 L283.3594 156.375 L284.7656 156.375 L284.7656 157 Z" style="fill:black; stroke:none;" /><rect height="13" style="stroke:none;" width="7" x="264" y="146" /><path d="M265.8281 158.25 Q266.2969 158.5938 267.1719 158.5938 Q268.0625 158.5938 268.5781 158.0703 Q269.0938 157.5469 269.0938 156.6562 Q269.0938 155.4219 268.5625 154.8906 Q268.0156 154.3594 267 154.3594 L266.4375 154.3594 L266.4375 153.7188 L266.7344 153.7188 Q267.4844 153.7188 268 153.2969 Q268.4219 152.9531 268.4219 152.0156 Q268.4219 151.6094 268.1406 151.1406 Q267.6875 150.375 267.1562 150.3906 Q265.8281 150.4375 265.8281 152.7812 L265.8281 158.25 ZM264.75 161.5 L264.75 152.7812 Q264.75 150.3281 266.0781 150 Q266.7656 149.8125 267.25 149.8125 Q268.3438 149.8125 269.0469 150.6719 Q269.6094 151.3594 269.6094 151.9375 Q269.6094 152.7812 269.2031 153.2656 Q268.7969 153.75 268.0625 153.9844 Q269.1406 154.1406 269.75 154.7812 Q270.3281 155.4062 270.3281 156.6328 Q270.3281 157.8594 269.5078 158.5156 Q268.6875 159.1719 267.1406 159.1719 Q266.1875 159.1719 265.8281 159.0312 L265.8281 161.5 L264.75 161.5 Z" style="fill:black; stroke:none;" /></g></g></svg>