<svg xmlns="http://www.w3.org/2000/svg" style="fill-opacity:1; color-rendering:auto; color-interpolation:auto; text-rendering:auto; stroke:black; stroke-linecap:square; stroke-miterlimit:10; shape-rendering:auto; stroke-opacity:1; fill:black; stroke-dasharray:none; font-weight:normal; stroke-width:1; font-family:'Dialog'; font-style:normal; stroke-linejoin:miter; font-size:12px; stroke-dashoffset:0; image-rendering:auto;"><defs id="genericDefs" /><g><defs id="defs1"><clipPath clipPathUnits="userSpaceOnUse" id="clipPath1"><path d="M342 160 L364 160 L364 182 L342 182 L342 160 Z" /></clipPath><clipPath clipPathUnits="userSpaceOnUse" id="clipPath2"><path d="M290 160 L312 160 L312 182 L290 182 L290 160 Z" /></clipPath><clipPath clipPathUnits="userSpaceOnUse" id="clipPath3"><path d="M260 171 C260 177.0751 255.0751 182 249 182 C242.9249 182 238 177.0751 238 171 C238 164.9249 242.9249 160 249 160 C255.0751 160 260 164.9249 260 171 Z" /></clipPath><clipPath clipPathUnits="userSpaceOnUse" id="clipPath4"><path d="M208 249 C208 255.0751 203.0751 260 197 260 C190.9249 260 186 255.0751 186 249 C186 242.9249 190.9249 238 197 238 C203.0751 238 208 242.9249 208 249 Z" /></clipPath><clipPath clipPathUnits="userSpaceOnUse" id="clipPath5"><path d="M134 290 L156 290 L156 312 L134 312 L134 290 Z" /></clipPath><clipPath clipPathUnits="userSpaceOnUse" id="clipPath6"><path d="M145 342 L156 364 L134 364 Z" style="fill-rule:evenodd;" /></clipPath><clipPath clipPathUnits="userSpaceOnUse" id="clipPath7"><path d="M104 301 C104 307.0751 99.0751 312 93 312 C86.9249 312 82 307.0751 82 301 C82 294.9249 86.9249 290 93 290 C99.0751 290 104 294.9249 104 301 Z" /></clipPath><clipPath clipPathUnits="userSpaceOnUse" id="clipPath8"><path d="M134 186 L156 186 L156 208 L134 208 L134 186 Z" /></clipPath><clipPath clipPathUnits="userSpaceOnUse" id="clipPath9"><path d="M145 238 L156 260 L134 260 Z" style="fill-rule:evenodd;" /></clipPath><clipPath clipPathUnits="userSpaceOnUse" id="clipPath10"><path d="M104 197 C104 203.0751 99.0751 208 93 208 C86.9249 208 82 203.0751 82 197 C82 190.9249 86.9249 186 93 186 C99.0751 186 104 190.9249 104 197 Z" /></clipPath><clipPath clipPathUnits="userSpaceOnUse" id="clipPath11"><path d="M208 93 C208 99.0751 203.0751 104 197 104 C190.9249 104 186 99.0751 186 93 C186 86.9249 190.9249 82 197 82 C203.0751 82 208 86.9249 208 93 Z" /></clipPath><clipPath clipPathUnits="userSpaceOnUse" id="clipPath12"><path d="M134 134 L156 134 L156 156 L134 156 L134 134 Z" /></clipPath><clipPath clipPathUnits="userSpaceOnUse" id="clipPath13"><path d="M104 145 C104 151.0751 99.0751 156 93 156 C86.9249 156 82 151.0751 82 145 C82 138.9249 86.9249 134 93 134 C99.0751 134 104 138.9249 104 145 Z" /></clipPath><clipPath clipPathUnits="userSpaceOnUse" id="clipPath14"><path d="M41 134 L52 145 L41 156 L30 145 Z" style="fill-rule:evenodd;" /></clipPath><clipPath clipPathUnits="userSpaceOnUse" id="clipPath15"><path d="M134 30 L156 30 L156 52 L134 52 L134 30 Z" /></clipPath><clipPath clipPathUnits="userSpaceOnUse" id="clipPath16"><path d="M145 82 L156 104 L134 104 Z" style="fill-rule:evenodd;" /></clipPath><clipPath clipPathUnits="userSpaceOnUse" id="clipPath17"><path d="M104 41 C104 47.0751 99.0751 52 93 52 C86.9249 52 82 47.0751 82 41 C82 34.9249 86.9249 30 93 30 C99.0751 30 104 34.9249 104 41 Z" /></clipPath><clipPath clipPathUnits="userSpaceOnUse" id="clipPath18"><path d="M353 130 L342 108 L364 108 Z" style="fill-rule:evenodd;" /></clipPath></defs><g style="fill:white; text-rendering:optimizeSpeed; stroke:white;"><rect height="394" style="stroke:none;" width="394" x="0" y="0" /></g><g ID="l-1:1,2" style="text-rendering:optimizeSpeed;"><polygon points=" 353 171 301 171" style="fill:none;" /></g><g ID="l-1:1,3" style="text-rendering:optimizeSpeed;"><polygon points=" 353 171 353 119" style="fill:none;" /></g><g ID="r-1:1" style="fill:white; text-rendering:optimizeSpeed; stroke:white;" wurcs_mono_id="1"><rect height="22" style="clip-path:url(#clipPath1); stroke:none;" width="22" x="342" y="160" /><rect height="22" style="clip-path:url(#clipPath1); fill:rgb(0,144,188); stroke:none;" width="22" x="342" y="160" /><rect height="22" style="clip-path:url(#clipPath1); fill:none; stroke:black;" width="22" x="342" y="160" /><rect height="22" style="fill:none; stroke:black;" width="22" x="342" y="160" /></g><g ID="l-1:2,4" style="text-rendering:optimizeSpeed;"><polygon points=" 301 171 249 171" style="fill:none;" /></g><g ID="r-1:2" style="fill:white; text-rendering:optimizeSpeed; stroke:white;" wurcs_mono_id="2"><rect height="22" style="clip-path:url(#clipPath2); stroke:none;" width="22" x="290" y="160" /><rect height="22" style="clip-path:url(#clipPath2); fill:rgb(0,144,188); stroke:none;" width="22" x="290" y="160" /><rect height="22" style="clip-path:url(#clipPath2); fill:none; stroke:black;" width="22" x="290" y="160" /><rect height="22" style="fill:none; stroke:black;" width="22" x="290" y="160" /></g><g ID="l-1:4,5" style="text-rendering:optimizeSpeed;"><polygon points=" 249 171 197 249" style="fill:none;" /></g><g ID="l-1:4,6" style="text-rendering:optimizeSpeed;"><polygon points=" 249 171 197 93" style="fill:none;" /></g><g ID="r-1:4" style="fill:white; text-rendering:optimizeSpeed; stroke:white;" wurcs_mono_id="3"><circle cx="249" cy="171" r="11" style="clip-path:url(#clipPath3); stroke:none;" /><rect height="22" style="clip-path:url(#clipPath3); fill:rgb(0,166,81); stroke:none;" width="22" x="238" y="160" /><rect height="22" style="clip-path:url(#clipPath3); fill:none; stroke:black;" width="22" x="238" y="160" /><circle cx="249" cy="171" r="11" style="fill:none; stroke:black;" /></g><g ID="l-1:5,7" style="text-rendering:optimizeSpeed;"><polygon points=" 197 249 145 301" style="fill:none;" /></g><g ID="l-1:5,8" style="text-rendering:optimizeSpeed;"><polygon points=" 197 249 145 197" style="fill:none;" /></g><g ID="r-1:5" style="fill:white; text-rendering:optimizeSpeed; stroke:white;" wurcs_mono_id="4"><circle cx="197" cy="249" r="11" style="clip-path:url(#clipPath4); stroke:none;" /><rect height="22" style="clip-path:url(#clipPath4); fill:rgb(0,166,81); stroke:none;" width="22" x="186" y="238" /><rect height="22" style="clip-path:url(#clipPath4); fill:none; stroke:black;" width="22" x="186" y="238" /><circle cx="197" cy="249" r="11" style="fill:none; stroke:black;" /></g><g ID="l-1:7,9" style="text-rendering:optimizeSpeed;"><polygon points=" 145 301 145 353" style="fill:none;" /></g><g ID="l-1:7,10" style="text-rendering:optimizeSpeed;"><polygon points=" 145 301 93 301" style="fill:none;" /></g><g ID="r-1:7" style="fill:white; text-rendering:optimizeSpeed; stroke:white;" wurcs_mono_id="5"><rect height="22" style="clip-path:url(#clipPath5); stroke:none;" width="22" x="134" y="290" /><rect height="22" style="clip-path:url(#clipPath5); fill:rgb(0,144,188); stroke:none;" width="22" x="134" y="290" /><rect height="22" style="clip-path:url(#clipPath5); fill:none; stroke:black;" width="22" x="134" y="290" /><rect height="22" style="fill:none; stroke:black;" width="22" x="134" y="290" /></g><g ID="r-1:9" style="fill:white; text-rendering:optimizeSpeed; stroke:white;" wurcs_mono_id="6"><polygon points=" 145 342 156 364 134 364" style="stroke:none; clip-path:url(#clipPath6);" /><rect height="22" style="clip-path:url(#clipPath6); fill:rgb(237,28,36); stroke:none;" width="22" x="134" y="342" /><rect height="22" style="clip-path:url(#clipPath6); fill:none; stroke:black;" width="22" x="134" y="342" /><polygon points=" 145 342 156 364 134 364" style="fill:none; stroke:black;" /></g><g ID="r-1:10" style="fill:white; text-rendering:optimizeSpeed; stroke:white;" wurcs_mono_id="7"><circle cx="93" cy="301" r="11" style="clip-path:url(#clipPath7); stroke:none;" /><rect height="22" style="clip-path:url(#clipPath7); fill:rgb(255,212,0); stroke:none;" width="22" x="82" y="290" /><rect height="22" style="clip-path:url(#clipPath7); fill:none; stroke:black;" width="22" x="82" y="290" /><circle cx="93" cy="301" r="11" style="fill:none; stroke:black;" /></g><g ID="li-1:7,9" style="fill:white; text-rendering:optimizeSpeed; font-family:'Serif'; stroke:white;"><rect height="10" style="stroke:none;" width="7" x="149" y="315" /><path d="M150.1719 316.625 Q150.8594 316.3594 151.4844 316.2266 Q152.1094 316.0938 152.6562 316.0938 Q153.9531 316.0938 154.6719 316.6484 Q155.3906 317.2031 155.3906 318.1875 Q155.3906 318.9688 154.8906 319.5 Q154.3906 320.0312 153.4844 320.2188 Q154.5625 320.375 155.1562 321.0078 Q155.75 321.6406 155.75 322.6406 Q155.75 323.8594 154.9219 324.5156 Q154.0938 325.1719 152.5469 325.1719 Q151.8594 325.1719 151.2109 325.0234 Q150.5625 324.875 149.9219 324.5781 L149.9219 322.875 L150.5781 322.875 Q150.625 323.7188 151.1406 324.1562 Q151.6562 324.5938 152.5781 324.5938 Q153.4688 324.5938 153.9922 324.0703 Q154.5156 323.5469 154.5156 322.6562 Q154.5156 321.625 153.9766 321.0938 Q153.4375 320.5625 152.4062 320.5625 L151.8594 320.5625 L151.8594 319.9531 L152.1406 319.9531 Q153.1719 319.9531 153.6875 319.5312 Q154.2031 319.1094 154.2031 318.25 Q154.2031 317.4844 153.7812 317.0781 Q153.3594 316.6719 152.5625 316.6719 Q151.7656 316.6719 151.3359 317.0469 Q150.9062 317.4219 150.8281 318.1562 L150.1719 318.1562 L150.1719 316.625 Z" style="fill:black; stroke:none;" /><rect height="8" style="stroke:none;" width="8" x="149" y="330" /><path d="M154.1875 336.4688 L153.9531 337.1094 Q153.7656 337.625 153.2031 337.9375 Q152.8438 338.1562 152.2031 338.1406 Q151.0469 338.1406 150.3281 337.2344 Q149.5938 336.3281 149.5938 334.8594 Q149.5938 333.4219 150.3281 332.4844 Q151.0156 331.5938 152.4531 331.6094 Q153.4531 331.6094 153.9531 332 Q154.4062 332.3438 154.5781 333.0938 L154.625 333.3125 L154.8438 332.6719 Q155.0625 332.0469 155.6562 331.75 L156.25 331.75 L156.25 332.0938 Q155.6875 332.2656 155.5 332.8125 L154.8906 334.4844 L155.2969 336.2812 Q155.5 337.2031 155.7344 337.2969 Q156.0469 337.4375 156.7812 337 L156.7812 337.7188 Q155.5938 338.4062 154.75 337.6875 Q154.375 337.3594 154.2656 336.875 L154.1875 336.4688 ZM153.9219 335.3125 L153.5625 333.5938 Q153.2656 332.2188 152.4688 332.2188 Q151.7969 332.2031 151.2812 332.9375 Q150.8594 333.5156 150.8594 334.875 Q150.8594 336.1719 151.2812 336.8281 Q151.75 337.5469 152.5312 337.5 Q153.2031 337.4375 153.6875 336 L153.9219 335.3125 Z" style="fill:black; stroke:none;" /></g><g ID="li-1:7,10" style="fill:white; text-rendering:optimizeSpeed; font-family:'Serif'; stroke:white;"><rect height="9" style="stroke:none;" width="8" x="122" y="304" /><path d="M126.1875 310.0312 L126.1875 305.375 L123.2031 310.0312 L126.1875 310.0312 ZM128.7656 313 L124.7812 313 L124.7812 312.375 L126.1875 312.375 L126.1875 310.6562 L122.375 310.6562 L122.375 310.0156 L126.2031 304.0938 L127.3594 304.0938 L127.3594 310.0312 L129.0312 310.0312 L129.0312 310.6562 L127.3594 310.6562 L127.3594 312.375 L128.7656 312.375 L128.7656 313 Z" style="fill:black; stroke:none;" /><rect height="13" style="stroke:none;" width="7" x="108" y="302" /><path d="M109.8281 314.25 Q110.2969 314.5938 111.1719 314.5938 Q112.0625 314.5938 112.5781 314.0703 Q113.0938 313.5469 113.0938 312.6562 Q113.0938 311.4219 112.5625 310.8906 Q112.0156 310.3594 111 310.3594 L110.4375 310.3594 L110.4375 309.7188 L110.7344 309.7188 Q111.4844 309.7188 112 309.2969 Q112.4219 308.9531 112.4219 308.0156 Q112.4219 307.6094 112.1406 307.1406 Q111.6875 306.375 111.1562 306.3906 Q109.8281 306.4375 109.8281 308.7812 L109.8281 314.25 ZM108.75 317.5 L108.75 308.7812 Q108.75 306.3281 110.0781 306 Q110.7656 305.8125 111.25 305.8125 Q112.3438 305.8125 113.0469 306.6719 Q113.6094 307.3594 113.6094 307.9375 Q113.6094 308.7812 113.2031 309.2656 Q112.7969 309.75 112.0625 309.9844 Q113.1406 310.1406 113.75 310.7812 Q114.3281 311.4062 114.3281 312.6328 Q114.3281 313.8594 113.5078 314.5156 Q112.6875 315.1719 111.1406 315.1719 Q110.1875 315.1719 109.8281 315.0312 L109.8281 317.5 L108.75 317.5 Z" style="fill:black; stroke:none;" /></g><g ID="l-1:8,11" style="text-rendering:optimizeSpeed;"><polygon points=" 145 197 145 249" style="fill:none;" /></g><g ID="l-1:8,12" style="text-rendering:optimizeSpeed;"><polygon points=" 145 197 93 197" style="fill:none;" /></g><g ID="r-1:8" style="fill:white; text-rendering:optimizeSpeed; stroke:white;" wurcs_mono_id="8"><rect height="22" style="clip-path:url(#clipPath8); stroke:none;" width="22" x="134" y="186" /><rect height="22" style="clip-path:url(#clipPath8); fill:rgb(0,144,188); stroke:none;" width="22" x="134" y="186" /><rect height="22" style="clip-path:url(#clipPath8); fill:none; stroke:black;" width="22" x="134" y="186" /><rect height="22" style="fill:none; stroke:black;" width="22" x="134" y="186" /></g><g ID="r-1:11" style="fill:white; text-rendering:optimizeSpeed; stroke:white;" wurcs_mono_id="9"><polygon points=" 145 238 156 260 134 260" style="stroke:none; clip-path:url(#clipPath9);" /><rect height="22" style="clip-path:url(#clipPath9); fill:rgb(237,28,36); stroke:none;" width="22" x="134" y="238" /><rect height="22" style="clip-path:url(#clipPath9); fill:none; stroke:black;" width="22" x="134" y="238" /><polygon points=" 145 238 156 260 134 260" style="fill:none; stroke:black;" /></g><g ID="r-1:12" style="fill:white; text-rendering:optimizeSpeed; stroke:white;" wurcs_mono_id="10"><circle cx="93" cy="197" r="11" style="clip-path:url(#clipPath10); stroke:none;" /><rect height="22" style="clip-path:url(#clipPath10); fill:rgb(255,212,0); stroke:none;" width="22" x="82" y="186" /><rect height="22" style="clip-path:url(#clipPath10); fill:none; stroke:black;" width="22" x="82" y="186" /><circle cx="93" cy="197" r="11" style="fill:none; stroke:black;" /></g><g ID="li-1:8,11" style="fill:white; text-rendering:optimizeSpeed; font-family:'Serif'; stroke:white;"><rect height="10" style="stroke:none;" width="7" x="149" y="211" /><path d="M150.1719 212.625 Q150.8594 212.3594 151.4844 212.2266 Q152.1094 212.0938 152.6562 212.0938 Q153.9531 212.0938 154.6719 212.6484 Q155.3906 213.2031 155.3906 214.1875 Q155.3906 214.9688 154.8906 215.5 Q154.3906 216.0312 153.4844 216.2188 Q154.5625 216.375 155.1562 217.0078 Q155.75 217.6406 155.75 218.6406 Q155.75 219.8594 154.9219 220.5156 Q154.0938 221.1719 152.5469 221.1719 Q151.8594 221.1719 151.2109 221.0234 Q150.5625 220.875 149.9219 220.5781 L149.9219 218.875 L150.5781 218.875 Q150.625 219.7188 151.1406 220.1562 Q151.6562 220.5938 152.5781 220.5938 Q153.4688 220.5938 153.9922 220.0703 Q154.5156 219.5469 154.5156 218.6562 Q154.5156 217.625 153.9766 217.0938 Q153.4375 216.5625 152.4062 216.5625 L151.8594 216.5625 L151.8594 215.9531 L152.1406 215.9531 Q153.1719 215.9531 153.6875 215.5312 Q154.2031 215.1094 154.2031 214.25 Q154.2031 213.4844 153.7812 213.0781 Q153.3594 212.6719 152.5625 212.6719 Q151.7656 212.6719 151.3359 213.0469 Q150.9062 213.4219 150.8281 214.1562 L150.1719 214.1562 L150.1719 212.625 Z" style="fill:black; stroke:none;" /><rect height="8" style="stroke:none;" width="8" x="149" y="226" /><path d="M154.1875 232.4688 L153.9531 233.1094 Q153.7656 233.625 153.2031 233.9375 Q152.8438 234.1562 152.2031 234.1406 Q151.0469 234.1406 150.3281 233.2344 Q149.5938 232.3281 149.5938 230.8594 Q149.5938 229.4219 150.3281 228.4844 Q151.0156 227.5938 152.4531 227.6094 Q153.4531 227.6094 153.9531 228 Q154.4062 228.3438 154.5781 229.0938 L154.625 229.3125 L154.8438 228.6719 Q155.0625 228.0469 155.6562 227.75 L156.25 227.75 L156.25 228.0938 Q155.6875 228.2656 155.5 228.8125 L154.8906 230.4844 L155.2969 232.2812 Q155.5 233.2031 155.7344 233.2969 Q156.0469 233.4375 156.7812 233 L156.7812 233.7188 Q155.5938 234.4062 154.75 233.6875 Q154.375 233.3594 154.2656 232.875 L154.1875 232.4688 ZM153.9219 231.3125 L153.5625 229.5938 Q153.2656 228.2188 152.4688 228.2188 Q151.7969 228.2031 151.2812 228.9375 Q150.8594 229.5156 150.8594 230.875 Q150.8594 232.1719 151.2812 232.8281 Q151.75 233.5469 152.5312 233.5 Q153.2031 233.4375 153.6875 232 L153.9219 231.3125 Z" style="fill:black; stroke:none;" /></g><g ID="li-1:8,12" style="fill:white; text-rendering:optimizeSpeed; font-family:'Serif'; stroke:white;"><rect height="9" style="stroke:none;" width="8" x="122" y="200" /><path d="M126.1875 206.0312 L126.1875 201.375 L123.2031 206.0312 L126.1875 206.0312 ZM128.7656 209 L124.7812 209 L124.7812 208.375 L126.1875 208.375 L126.1875 206.6562 L122.375 206.6562 L122.375 206.0156 L126.2031 200.0938 L127.3594 200.0938 L127.3594 206.0312 L129.0312 206.0312 L129.0312 206.6562 L127.3594 206.6562 L127.3594 208.375 L128.7656 208.375 L128.7656 209 Z" style="fill:black; stroke:none;" /><rect height="13" style="stroke:none;" width="7" x="108" y="198" /><path d="M109.8281 210.25 Q110.2969 210.5938 111.1719 210.5938 Q112.0625 210.5938 112.5781 210.0703 Q113.0938 209.5469 113.0938 208.6562 Q113.0938 207.4219 112.5625 206.8906 Q112.0156 206.3594 111 206.3594 L110.4375 206.3594 L110.4375 205.7188 L110.7344 205.7188 Q111.4844 205.7188 112 205.2969 Q112.4219 204.9531 112.4219 204.0156 Q112.4219 203.6094 112.1406 203.1406 Q111.6875 202.375 111.1562 202.3906 Q109.8281 202.4375 109.8281 204.7812 L109.8281 210.25 ZM108.75 213.5 L108.75 204.7812 Q108.75 202.3281 110.0781 202 Q110.7656 201.8125 111.25 201.8125 Q112.3438 201.8125 113.0469 202.6719 Q113.6094 203.3594 113.6094 203.9375 Q113.6094 204.7812 113.2031 205.2656 Q112.7969 205.75 112.0625 205.9844 Q113.1406 206.1406 113.75 206.7812 Q114.3281 207.4062 114.3281 208.6328 Q114.3281 209.8594 113.5078 210.5156 Q112.6875 211.1719 111.1406 211.1719 Q110.1875 211.1719 109.8281 211.0312 L109.8281 213.5 L108.75 213.5 Z" style="fill:black; stroke:none;" /></g><g ID="li-1:5,7" style="fill:white; text-rendering:optimizeSpeed; font-family:'Serif'; stroke:white;"><rect height="9" style="stroke:none;" width="7" x="182" y="266" /><path d="M183.5312 268.3438 L182.875 268.3438 L182.875 266.7812 Q183.5 266.4375 184.1406 266.2656 Q184.7812 266.0938 185.3906 266.0938 Q186.75 266.0938 187.5391 266.7578 Q188.3281 267.4219 188.3281 268.5469 Q188.3281 269.8438 186.5469 271.625 Q186.4062 271.7656 186.3281 271.8281 L184.125 274.0312 L187.7656 274.0312 L187.7656 272.9531 L188.4531 272.9531 L188.4531 275 L182.8125 275 L182.8125 274.3594 L185.4688 271.7188 Q186.3438 270.8281 186.7188 270.0938 Q187.0938 269.3594 187.0938 268.5469 Q187.0938 267.6719 186.6328 267.1719 Q186.1719 266.6719 185.375 266.6719 Q184.5312 266.6719 184.0781 267.0859 Q183.625 267.5 183.5312 268.3438 Z" style="fill:black; stroke:none;" /><rect height="13" style="stroke:none;" width="7" x="163" y="283" /><path d="M164.8281 295.25 Q165.2969 295.5938 166.1719 295.5938 Q167.0625 295.5938 167.5781 295.0703 Q168.0938 294.5469 168.0938 293.6562 Q168.0938 292.4219 167.5625 291.8906 Q167.0156 291.3594 166 291.3594 L165.4375 291.3594 L165.4375 290.7188 L165.7344 290.7188 Q166.4844 290.7188 167 290.2969 Q167.4219 289.9531 167.4219 289.0156 Q167.4219 288.6094 167.1406 288.1406 Q166.6875 287.375 166.1562 287.3906 Q164.8281 287.4375 164.8281 289.7812 L164.8281 295.25 ZM163.75 298.5 L163.75 289.7812 Q163.75 287.3281 165.0781 287 Q165.7656 286.8125 166.25 286.8125 Q167.3438 286.8125 168.0469 287.6719 Q168.6094 288.3594 168.6094 288.9375 Q168.6094 289.7812 168.2031 290.2656 Q167.7969 290.75 167.0625 290.9844 Q168.1406 291.1406 168.75 291.7812 Q169.3281 292.4062 169.3281 293.6328 Q169.3281 294.8594 168.5078 295.5156 Q167.6875 296.1719 166.1406 296.1719 Q165.1875 296.1719 164.8281 296.0312 L164.8281 298.5 L163.75 298.5 Z" style="fill:black; stroke:none;" /></g><g ID="li-1:5,8" style="fill:white; text-rendering:optimizeSpeed; font-family:'Serif'; stroke:white;"><rect height="9" style="stroke:none;" width="8" x="170" y="233" /><path d="M174.1875 239.0312 L174.1875 234.375 L171.2031 239.0312 L174.1875 239.0312 ZM176.7656 242 L172.7812 242 L172.7812 241.375 L174.1875 241.375 L174.1875 239.6562 L170.375 239.6562 L170.375 239.0156 L174.2031 233.0938 L175.3594 233.0938 L175.3594 239.0312 L177.0312 239.0312 L177.0312 239.6562 L175.3594 239.6562 L175.3594 241.375 L176.7656 241.375 L176.7656 242 Z" style="fill:black; stroke:none;" /><rect height="13" style="stroke:none;" width="7" x="152" y="212" /><path d="M153.8281 224.25 Q154.2969 224.5938 155.1719 224.5938 Q156.0625 224.5938 156.5781 224.0703 Q157.0938 223.5469 157.0938 222.6562 Q157.0938 221.4219 156.5625 220.8906 Q156.0156 220.3594 155 220.3594 L154.4375 220.3594 L154.4375 219.7188 L154.7344 219.7188 Q155.4844 219.7188 156 219.2969 Q156.4219 218.9531 156.4219 218.0156 Q156.4219 217.6094 156.1406 217.1406 Q155.6875 216.375 155.1562 216.3906 Q153.8281 216.4375 153.8281 218.7812 L153.8281 224.25 ZM152.75 227.5 L152.75 218.7812 Q152.75 216.3281 154.0781 216 Q154.7656 215.8125 155.25 215.8125 Q156.3438 215.8125 157.0469 216.6719 Q157.6094 217.3594 157.6094 217.9375 Q157.6094 218.7812 157.2031 219.2656 Q156.7969 219.75 156.0625 219.9844 Q157.1406 220.1406 157.75 220.7812 Q158.3281 221.4062 158.3281 222.6328 Q158.3281 223.8594 157.5078 224.5156 Q156.6875 225.1719 155.1406 225.1719 Q154.1875 225.1719 153.8281 225.0312 L153.8281 227.5 L152.75 227.5 Z" style="fill:black; stroke:none;" /></g><g ID="l-1:6,13" style="text-rendering:optimizeSpeed;"><polygon points=" 197 93 145 145" style="fill:none;" /></g><g ID="l-1:6,14" style="text-rendering:optimizeSpeed;"><polygon points=" 197 93 145 41" style="fill:none;" /></g><g ID="r-1:6" style="fill:white; text-rendering:optimizeSpeed; stroke:white;" wurcs_mono_id="11"><circle cx="197" cy="93" r="11" style="clip-path:url(#clipPath11); stroke:none;" /><rect height="22" style="clip-path:url(#clipPath11); fill:rgb(0,166,81); stroke:none;" width="22" x="186" y="82" /><rect height="22" style="clip-path:url(#clipPath11); fill:none; stroke:black;" width="22" x="186" y="82" /><circle cx="197" cy="93" r="11" style="fill:none; stroke:black;" /></g><g ID="l-1:13,15" style="text-rendering:optimizeSpeed;"><polygon points=" 145 145 93 145" style="fill:none;" /></g><g ID="r-1:13" style="fill:white; text-rendering:optimizeSpeed; stroke:white;" wurcs_mono_id="12"><rect height="22" style="clip-path:url(#clipPath12); stroke:none;" width="22" x="134" y="134" /><rect height="22" style="clip-path:url(#clipPath12); fill:rgb(0,144,188); stroke:none;" width="22" x="134" y="134" /><rect height="22" style="clip-path:url(#clipPath12); fill:none; stroke:black;" width="22" x="134" y="134" /><rect height="22" style="fill:none; stroke:black;" width="22" x="134" y="134" /></g><g ID="l-1:15,16" style="text-rendering:optimizeSpeed;"><polygon points=" 93 145 41 145" style="fill:none;" /></g><g ID="r-1:15" style="fill:white; text-rendering:optimizeSpeed; stroke:white;" wurcs_mono_id="13"><circle cx="93" cy="145" r="11" style="clip-path:url(#clipPath13); stroke:none;" /><rect height="22" style="clip-path:url(#clipPath13); fill:rgb(255,212,0); stroke:none;" width="22" x="82" y="134" /><rect height="22" style="clip-path:url(#clipPath13); fill:none; stroke:black;" width="22" x="82" y="134" /><circle cx="93" cy="145" r="11" style="fill:none; stroke:black;" /></g><g ID="r-1:16" style="fill:white; text-rendering:optimizeSpeed; stroke:white;" wurcs_mono_id="14"><polygon points=" 41 134 52 145 41 156 30 145" style="stroke:none; clip-path:url(#clipPath14);" /><rect height="22" style="clip-path:url(#clipPath14); fill:rgb(165,67,153); stroke:none;" width="22" x="30" y="134" /><rect height="22" style="clip-path:url(#clipPath14); fill:none; stroke:black;" width="22" x="30" y="134" /><polygon points=" 41 134 52 145 41 156 30 145" style="fill:none; stroke:black;" /></g><g ID="li-1:15,16" style="fill:white; text-rendering:optimizeSpeed; font-family:'Serif'; stroke:white;"><rect height="11" style="stroke:none;" width="19" x="64" y="147" /><path d="M65.1719 149.625 Q65.8594 149.3594 66.4844 149.2266 Q67.1094 149.0938 67.6562 149.0938 Q68.9531 149.0938 69.6719 149.6484 Q70.3906 150.2031 70.3906 151.1875 Q70.3906 151.9688 69.8906 152.5 Q69.3906 153.0312 68.4844 153.2188 Q69.5625 153.375 70.1562 154.0078 Q70.75 154.6406 70.75 155.6406 Q70.75 156.8594 69.9219 157.5156 Q69.0938 158.1719 67.5469 158.1719 Q66.8594 158.1719 66.2109 158.0234 Q65.5625 157.875 64.9219 157.5781 L64.9219 155.875 L65.5781 155.875 Q65.625 156.7188 66.1406 157.1562 Q66.6562 157.5938 67.5781 157.5938 Q68.4688 157.5938 68.9922 157.0703 Q69.5156 156.5469 69.5156 155.6562 Q69.5156 154.625 68.9766 154.0938 Q68.4375 153.5625 67.4062 153.5625 L66.8594 153.5625 L66.8594 152.9531 L67.1406 152.9531 Q68.1719 152.9531 68.6875 152.5312 Q69.2031 152.1094 69.2031 151.25 Q69.2031 150.4844 68.7812 150.0781 Q68.3594 149.6719 67.5625 149.6719 Q66.7656 149.6719 66.3359 150.0469 Q65.9062 150.4219 65.8281 151.1562 L65.1719 151.1562 L65.1719 149.625 ZM74.7441 149.25 L75.6816 149.25 L72.5723 159.1094 L71.6348 159.1094 L74.7441 149.25 ZM79.5996 157.5938 Q80.4277 157.5938 80.873 156.9844 Q81.3184 156.375 81.3184 155.2344 Q81.3184 154.1094 80.873 153.5 Q80.4277 152.8906 79.5996 152.8906 Q78.7715 152.8906 78.3262 153.4766 Q77.8809 154.0625 77.8809 155.1719 Q77.8809 156.3281 78.3262 156.9609 Q78.7715 157.5938 79.5996 157.5938 ZM77.6934 153.1875 Q78.0996 152.75 78.5996 152.5312 Q79.0996 152.3125 79.7402 152.3125 Q81.0371 152.3125 81.7949 153.0938 Q82.5527 153.875 82.5527 155.2344 Q82.5527 156.5625 81.7402 157.3672 Q80.9277 158.1719 79.5527 158.1719 Q78.0684 158.1719 77.2715 157.0625 Q76.4746 155.9531 76.4746 153.9062 Q76.4746 151.6094 77.4199 150.3516 Q78.3652 149.0938 80.084 149.0938 Q80.5527 149.0938 81.0605 149.1797 Q81.5684 149.2656 82.0996 149.4375 L82.0996 150.8906 L81.4434 150.8906 Q81.3652 150.2969 80.9824 149.9844 Q80.5996 149.6719 79.959 149.6719 Q78.8184 149.6719 78.2637 150.5312 Q77.709 151.3906 77.6934 153.1875 Z" style="fill:black; stroke:none;" /><rect height="8" style="stroke:none;" width="8" x="56" y="149" /><path d="M61.1875 155.4688 L60.9531 156.1094 Q60.7656 156.625 60.2031 156.9375 Q59.8438 157.1562 59.2031 157.1406 Q58.0469 157.1406 57.3281 156.2344 Q56.5938 155.3281 56.5938 153.8594 Q56.5938 152.4219 57.3281 151.4844 Q58.0156 150.5938 59.4531 150.6094 Q60.4531 150.6094 60.9531 151 Q61.4062 151.3438 61.5781 152.0938 L61.625 152.3125 L61.8438 151.6719 Q62.0625 151.0469 62.6562 150.75 L63.25 150.75 L63.25 151.0938 Q62.6875 151.2656 62.5 151.8125 L61.8906 153.4844 L62.2969 155.2812 Q62.5 156.2031 62.7344 156.2969 Q63.0469 156.4375 63.7812 156 L63.7812 156.7188 Q62.5938 157.4062 61.75 156.6875 Q61.375 156.3594 61.2656 155.875 L61.1875 155.4688 ZM60.9219 154.3125 L60.5625 152.5938 Q60.2656 151.2188 59.4688 151.2188 Q58.7969 151.2031 58.2812 151.9375 Q57.8594 152.5156 57.8594 153.875 Q57.8594 155.1719 58.2812 155.8281 Q58.75 156.5469 59.5312 156.5 Q60.2031 156.4375 60.6875 155 L60.9219 154.3125 Z" style="fill:black; stroke:none;" /></g><g ID="li-1:13,15" style="fill:white; text-rendering:optimizeSpeed; font-family:'Serif'; stroke:white;"><rect height="9" style="stroke:none;" width="8" x="122" y="148" /><path d="M126.1875 154.0312 L126.1875 149.375 L123.2031 154.0312 L126.1875 154.0312 ZM128.7656 157 L124.7812 157 L124.7812 156.375 L126.1875 156.375 L126.1875 154.6562 L122.375 154.6562 L122.375 154.0156 L126.2031 148.0938 L127.3594 148.0938 L127.3594 154.0312 L129.0312 154.0312 L129.0312 154.6562 L127.3594 154.6562 L127.3594 156.375 L128.7656 156.375 L128.7656 157 Z" style="fill:black; stroke:none;" /><rect height="13" style="stroke:none;" width="7" x="108" y="146" /><path d="M109.8281 158.25 Q110.2969 158.5938 111.1719 158.5938 Q112.0625 158.5938 112.5781 158.0703 Q113.0938 157.5469 113.0938 156.6562 Q113.0938 155.4219 112.5625 154.8906 Q112.0156 154.3594 111 154.3594 L110.4375 154.3594 L110.4375 153.7188 L110.7344 153.7188 Q111.4844 153.7188 112 153.2969 Q112.4219 152.9531 112.4219 152.0156 Q112.4219 151.6094 112.1406 151.1406 Q111.6875 150.375 111.1562 150.3906 Q109.8281 150.4375 109.8281 152.7812 L109.8281 158.25 ZM108.75 161.5 L108.75 152.7812 Q108.75 150.3281 110.0781 150 Q110.7656 149.8125 111.25 149.8125 Q112.3438 149.8125 113.0469 150.6719 Q113.6094 151.3594 113.6094 151.9375 Q113.6094 152.7812 113.2031 153.2656 Q112.7969 153.75 112.0625 153.9844 Q113.1406 154.1406 113.75 154.7812 Q114.3281 155.4062 114.3281 156.6328 Q114.3281 157.8594 113.5078 158.5156 Q112.6875 159.1719 111.1406 159.1719 Q110.1875 159.1719 109.8281 159.0312 L109.8281 161.5 L108.75 161.5 Z" style="fill:black; stroke:none;" /></g><g ID="l-1:14,17" style="text-rendering:optimizeSpeed;"><polygon points=" 145 41 145 93" style="fill:none;" /></g><g ID="l-1:14,18" style="text-rendering:optimizeSpeed;"><polygon points=" 145 41 93 41" style="fill:none;" /></g><g ID="r-1:14" style="fill:white; text-rendering:optimizeSpeed; stroke:white;" wurcs_mono_id="15"><rect height="22" style="clip-path:url(#clipPath15); stroke:none;" width="22" x="134" y="30" /><rect height="22" style="clip-path:url(#clipPath15); fill:rgb(0,144,188); stroke:none;" width="22" x="134" y="30" /><rect height="22" style="clip-path:url(#clipPath15); fill:none; stroke:black;" width="22" x="134" y="30" /><rect height="22" style="fill:none; stroke:black;" width="22" x="134" y="30" /></g><g ID="r-1:17" style="fill:white; text-rendering:optimizeSpeed; stroke:white;" wurcs_mono_id="16"><polygon points=" 145 82 156 104 134 104" style="stroke:none; clip-path:url(#clipPath16);" /><rect height="22" style="clip-path:url(#clipPath16); fill:rgb(237,28,36); stroke:none;" width="22" x="134" y="82" /><rect height="22" style="clip-path:url(#clipPath16); fill:none; stroke:black;" width="22" x="134" y="82" /><polygon points=" 145 82 156 104 134 104" style="fill:none; stroke:black;" /></g><g ID="r-1:18" style="fill:white; text-rendering:optimizeSpeed; stroke:white;" wurcs_mono_id="17"><circle cx="93" cy="41" r="11" style="clip-path:url(#clipPath17); stroke:none;" /><rect height="22" style="clip-path:url(#clipPath17); fill:rgb(255,212,0); stroke:none;" width="22" x="82" y="30" /><rect height="22" style="clip-path:url(#clipPath17); fill:none; stroke:black;" width="22" x="82" y="30" /><circle cx="93" cy="41" r="11" style="fill:none; stroke:black;" /></g><g ID="li-1:14,17" style="fill:white; text-rendering:optimizeSpeed; font-family:'Serif'; stroke:white;"><rect height="10" style="stroke:none;" width="7" x="149" y="55" /><path d="M150.1719 56.625 Q150.8594 56.3594 151.4844 56.2266 Q152.1094 56.0938 152.6562 56.0938 Q153.9531 56.0938 154.6719 56.6484 Q155.3906 57.2031 155.3906 58.1875 Q155.3906 58.9688 154.8906 59.5 Q154.3906 60.0312 153.4844 60.2188 Q154.5625 60.375 155.1562 61.0078 Q155.75 61.6406 155.75 62.6406 Q155.75 63.8594 154.9219 64.5156 Q154.0938 65.1719 152.5469 65.1719 Q151.8594 65.1719 151.2109 65.0234 Q150.5625 64.875 149.9219 64.5781 L149.9219 62.875 L150.5781 62.875 Q150.625 63.7188 151.1406 64.1562 Q151.6562 64.5938 152.5781 64.5938 Q153.4688 64.5938 153.9922 64.0703 Q154.5156 63.5469 154.5156 62.6562 Q154.5156 61.625 153.9766 61.0938 Q153.4375 60.5625 152.4062 60.5625 L151.8594 60.5625 L151.8594 59.9531 L152.1406 59.9531 Q153.1719 59.9531 153.6875 59.5312 Q154.2031 59.1094 154.2031 58.25 Q154.2031 57.4844 153.7812 57.0781 Q153.3594 56.6719 152.5625 56.6719 Q151.7656 56.6719 151.3359 57.0469 Q150.9062 57.4219 150.8281 58.1562 L150.1719 58.1562 L150.1719 56.625 Z" style="fill:black; stroke:none;" /><rect height="8" style="stroke:none;" width="8" x="149" y="70" /><path d="M154.1875 76.4688 L153.9531 77.1094 Q153.7656 77.625 153.2031 77.9375 Q152.8438 78.1562 152.2031 78.1406 Q151.0469 78.1406 150.3281 77.2344 Q149.5938 76.3281 149.5938 74.8594 Q149.5938 73.4219 150.3281 72.4844 Q151.0156 71.5938 152.4531 71.6094 Q153.4531 71.6094 153.9531 72 Q154.4062 72.3438 154.5781 73.0938 L154.625 73.3125 L154.8438 72.6719 Q155.0625 72.0469 155.6562 71.75 L156.25 71.75 L156.25 72.0938 Q155.6875 72.2656 155.5 72.8125 L154.8906 74.4844 L155.2969 76.2812 Q155.5 77.2031 155.7344 77.2969 Q156.0469 77.4375 156.7812 77 L156.7812 77.7188 Q155.5938 78.4062 154.75 77.6875 Q154.375 77.3594 154.2656 76.875 L154.1875 76.4688 ZM153.9219 75.3125 L153.5625 73.5938 Q153.2656 72.2188 152.4688 72.2188 Q151.7969 72.2031 151.2812 72.9375 Q150.8594 73.5156 150.8594 74.875 Q150.8594 76.1719 151.2812 76.8281 Q151.75 77.5469 152.5312 77.5 Q153.2031 77.4375 153.6875 76 L153.9219 75.3125 Z" style="fill:black; stroke:none;" /></g><g ID="li-1:14,18" style="fill:white; text-rendering:optimizeSpeed; font-family:'Serif'; stroke:white;"><rect height="9" style="stroke:none;" width="8" x="122" y="44" /><path d="M126.1875 50.0312 L126.1875 45.375 L123.2031 50.0312 L126.1875 50.0312 ZM128.7656 53 L124.7812 53 L124.7812 52.375 L126.1875 52.375 L126.1875 50.6562 L122.375 50.6562 L122.375 50.0156 L126.2031 44.0938 L127.3594 44.0938 L127.3594 50.0312 L129.0312 50.0312 L129.0312 50.6562 L127.3594 50.6562 L127.3594 52.375 L128.7656 52.375 L128.7656 53 Z" style="fill:black; stroke:none;" /><rect height="13" style="stroke:none;" width="7" x="108" y="42" /><path d="M109.8281 54.25 Q110.2969 54.5938 111.1719 54.5938 Q112.0625 54.5938 112.5781 54.0703 Q113.0938 53.5469 113.0938 52.6562 Q113.0938 51.4219 112.5625 50.8906 Q112.0156 50.3594 111 50.3594 L110.4375 50.3594 L110.4375 49.7188 L110.7344 49.7188 Q111.4844 49.7188 112 49.2969 Q112.4219 48.9531 112.4219 48.0156 Q112.4219 47.6094 112.1406 47.1406 Q111.6875 46.375 111.1562 46.3906 Q109.8281 46.4375 109.8281 48.7812 L109.8281 54.25 ZM108.75 57.5 L108.75 48.7812 Q108.75 46.3281 110.0781 46 Q110.7656 45.8125 111.25 45.8125 Q112.3438 45.8125 113.0469 46.6719 Q113.6094 47.3594 113.6094 47.9375 Q113.6094 48.7812 113.2031 49.2656 Q112.7969 49.75 112.0625 49.9844 Q113.1406 50.1406 113.75 50.7812 Q114.3281 51.4062 114.3281 52.6328 Q114.3281 53.8594 113.5078 54.5156 Q112.6875 55.1719 111.1406 55.1719 Q110.1875 55.1719 109.8281 55.0312 L109.8281 57.5 L108.75 57.5 Z" style="fill:black; stroke:none;" /></g><g ID="li-1:6,13" style="fill:white; text-rendering:optimizeSpeed; font-family:'Serif'; stroke:white;"><rect height="9" style="stroke:none;" width="7" x="182" y="110" /><path d="M183.5312 112.3438 L182.875 112.3438 L182.875 110.7812 Q183.5 110.4375 184.1406 110.2656 Q184.7812 110.0938 185.3906 110.0938 Q186.75 110.0938 187.5391 110.7578 Q188.3281 111.4219 188.3281 112.5469 Q188.3281 113.8438 186.5469 115.625 Q186.4062 115.7656 186.3281 115.8281 L184.125 118.0312 L187.7656 118.0312 L187.7656 116.9531 L188.4531 116.9531 L188.4531 119 L182.8125 119 L182.8125 118.3594 L185.4688 115.7188 Q186.3438 114.8281 186.7188 114.0938 Q187.0938 113.3594 187.0938 112.5469 Q187.0938 111.6719 186.6328 111.1719 Q186.1719 110.6719 185.375 110.6719 Q184.5312 110.6719 184.0781 111.0859 Q183.625 111.5 183.5312 112.3438 Z" style="fill:black; stroke:none;" /><rect height="13" style="stroke:none;" width="7" x="163" y="127" /><path d="M164.8281 139.25 Q165.2969 139.5938 166.1719 139.5938 Q167.0625 139.5938 167.5781 139.0703 Q168.0938 138.5469 168.0938 137.6562 Q168.0938 136.4219 167.5625 135.8906 Q167.0156 135.3594 166 135.3594 L165.4375 135.3594 L165.4375 134.7188 L165.7344 134.7188 Q166.4844 134.7188 167 134.2969 Q167.4219 133.9531 167.4219 133.0156 Q167.4219 132.6094 167.1406 132.1406 Q166.6875 131.375 166.1562 131.3906 Q164.8281 131.4375 164.8281 133.7812 L164.8281 139.25 ZM163.75 142.5 L163.75 133.7812 Q163.75 131.3281 165.0781 131 Q165.7656 130.8125 166.25 130.8125 Q167.3438 130.8125 168.0469 131.6719 Q168.6094 132.3594 168.6094 132.9375 Q168.6094 133.7812 168.2031 134.2656 Q167.7969 134.75 167.0625 134.9844 Q168.1406 135.1406 168.75 135.7812 Q169.3281 136.4062 169.3281 137.6328 Q169.3281 138.8594 168.5078 139.5156 Q167.6875 140.1719 166.1406 140.1719 Q165.1875 140.1719 164.8281 140.0312 L164.8281 142.5 L163.75 142.5 Z" style="fill:black; stroke:none;" /></g><g ID="li-1:6,14" style="fill:white; text-rendering:optimizeSpeed; font-family:'Serif'; stroke:white;"><rect height="10" style="stroke:none;" width="7" x="171" y="77" /><path d="M174.9219 86.5938 Q175.75 86.5938 176.1953 85.9844 Q176.6406 85.375 176.6406 84.2344 Q176.6406 83.1094 176.1953 82.5 Q175.75 81.8906 174.9219 81.8906 Q174.0938 81.8906 173.6484 82.4766 Q173.2031 83.0625 173.2031 84.1719 Q173.2031 85.3281 173.6484 85.9609 Q174.0938 86.5938 174.9219 86.5938 ZM173.0156 82.1875 Q173.4219 81.75 173.9219 81.5312 Q174.4219 81.3125 175.0625 81.3125 Q176.3594 81.3125 177.1172 82.0938 Q177.875 82.875 177.875 84.2344 Q177.875 85.5625 177.0625 86.3672 Q176.25 87.1719 174.875 87.1719 Q173.3906 87.1719 172.5938 86.0625 Q171.7969 84.9531 171.7969 82.9062 Q171.7969 80.6094 172.7422 79.3516 Q173.6875 78.0938 175.4062 78.0938 Q175.875 78.0938 176.3828 78.1797 Q176.8906 78.2656 177.4219 78.4375 L177.4219 79.8906 L176.7656 79.8906 Q176.6875 79.2969 176.3047 78.9844 Q175.9219 78.6719 175.2812 78.6719 Q174.1406 78.6719 173.5859 79.5312 Q173.0312 80.3906 173.0156 82.1875 Z" style="fill:black; stroke:none;" /><rect height="13" style="stroke:none;" width="7" x="152" y="56" /><path d="M153.8281 68.25 Q154.2969 68.5938 155.1719 68.5938 Q156.0625 68.5938 156.5781 68.0703 Q157.0938 67.5469 157.0938 66.6562 Q157.0938 65.4219 156.5625 64.8906 Q156.0156 64.3594 155 64.3594 L154.4375 64.3594 L154.4375 63.7188 L154.7344 63.7188 Q155.4844 63.7188 156 63.2969 Q156.4219 62.9531 156.4219 62.0156 Q156.4219 61.6094 156.1406 61.1406 Q155.6875 60.375 155.1562 60.3906 Q153.8281 60.4375 153.8281 62.7812 L153.8281 68.25 ZM152.75 71.5 L152.75 62.7812 Q152.75 60.3281 154.0781 60 Q154.7656 59.8125 155.25 59.8125 Q156.3438 59.8125 157.0469 60.6719 Q157.6094 61.3594 157.6094 61.9375 Q157.6094 62.7812 157.2031 63.2656 Q156.7969 63.75 156.0625 63.9844 Q157.1406 64.1406 157.75 64.7812 Q158.3281 65.4062 158.3281 66.6328 Q158.3281 67.8594 157.5078 68.5156 Q156.6875 69.1719 155.1406 69.1719 Q154.1875 69.1719 153.8281 69.0312 L153.8281 71.5 L152.75 71.5 Z" style="fill:black; stroke:none;" /></g><g ID="li-1:4,5" style="fill:white; text-rendering:optimizeSpeed; font-family:'Serif'; stroke:white;"><rect height="10" style="stroke:none;" width="7" x="240" y="188" /><path d="M241.1719 189.625 Q241.8594 189.3594 242.4844 189.2266 Q243.1094 189.0938 243.6562 189.0938 Q244.9531 189.0938 245.6719 189.6484 Q246.3906 190.2031 246.3906 191.1875 Q246.3906 191.9688 245.8906 192.5 Q245.3906 193.0312 244.4844 193.2188 Q245.5625 193.375 246.1562 194.0078 Q246.75 194.6406 246.75 195.6406 Q246.75 196.8594 245.9219 197.5156 Q245.0938 198.1719 243.5469 198.1719 Q242.8594 198.1719 242.2109 198.0234 Q241.5625 197.875 240.9219 197.5781 L240.9219 195.875 L241.5781 195.875 Q241.625 196.7188 242.1406 197.1562 Q242.6562 197.5938 243.5781 197.5938 Q244.4688 197.5938 244.9922 197.0703 Q245.5156 196.5469 245.5156 195.6562 Q245.5156 194.625 244.9766 194.0938 Q244.4375 193.5625 243.4062 193.5625 L242.8594 193.5625 L242.8594 192.9531 L243.1406 192.9531 Q244.1719 192.9531 244.6875 192.5312 Q245.2031 192.1094 245.2031 191.25 Q245.2031 190.4844 244.7812 190.0781 Q244.3594 189.6719 243.5625 189.6719 Q242.7656 189.6719 242.3359 190.0469 Q241.9062 190.4219 241.8281 191.1562 L241.1719 191.1562 L241.1719 189.625 Z" style="fill:black; stroke:none;" /><rect height="8" style="stroke:none;" width="8" x="211" y="231" /><path d="M216.1875 237.4688 L215.9531 238.1094 Q215.7656 238.625 215.2031 238.9375 Q214.8438 239.1562 214.2031 239.1406 Q213.0469 239.1406 212.3281 238.2344 Q211.5938 237.3281 211.5938 235.8594 Q211.5938 234.4219 212.3281 233.4844 Q213.0156 232.5938 214.4531 232.6094 Q215.4531 232.6094 215.9531 233 Q216.4062 233.3438 216.5781 234.0938 L216.625 234.3125 L216.8438 233.6719 Q217.0625 233.0469 217.6562 232.75 L218.25 232.75 L218.25 233.0938 Q217.6875 233.2656 217.5 233.8125 L216.8906 235.4844 L217.2969 237.2812 Q217.5 238.2031 217.7344 238.2969 Q218.0469 238.4375 218.7812 238 L218.7812 238.7188 Q217.5938 239.4062 216.75 238.6875 Q216.375 238.3594 216.2656 237.875 L216.1875 237.4688 ZM215.9219 236.3125 L215.5625 234.5938 Q215.2656 233.2188 214.4688 233.2188 Q213.7969 233.2031 213.2812 233.9375 Q212.8594 234.5156 212.8594 235.875 Q212.8594 237.1719 213.2812 237.8281 Q213.75 238.5469 214.5312 238.5 Q215.2031 238.4375 215.6875 237 L215.9219 236.3125 Z" style="fill:black; stroke:none;" /></g><g ID="li-1:4,6" style="fill:white; text-rendering:optimizeSpeed; font-family:'Serif'; stroke:white;"><rect height="10" style="stroke:none;" width="7" x="227" y="152" /><path d="M230.9219 161.5938 Q231.75 161.5938 232.1953 160.9844 Q232.6406 160.375 232.6406 159.2344 Q232.6406 158.1094 232.1953 157.5 Q231.75 156.8906 230.9219 156.8906 Q230.0938 156.8906 229.6484 157.4766 Q229.2031 158.0625 229.2031 159.1719 Q229.2031 160.3281 229.6484 160.9609 Q230.0938 161.5938 230.9219 161.5938 ZM229.0156 157.1875 Q229.4219 156.75 229.9219 156.5312 Q230.4219 156.3125 231.0625 156.3125 Q232.3594 156.3125 233.1172 157.0938 Q233.875 157.875 233.875 159.2344 Q233.875 160.5625 233.0625 161.3672 Q232.25 162.1719 230.875 162.1719 Q229.3906 162.1719 228.5938 161.0625 Q227.7969 159.9531 227.7969 157.9062 Q227.7969 155.6094 228.7422 154.3516 Q229.6875 153.0938 231.4062 153.0938 Q231.875 153.0938 232.3828 153.1797 Q232.8906 153.2656 233.4219 153.4375 L233.4219 154.8906 L232.7656 154.8906 Q232.6875 154.2969 232.3047 153.9844 Q231.9219 153.6719 231.2812 153.6719 Q230.1406 153.6719 229.5859 154.5312 Q229.0312 155.3906 229.0156 157.1875 Z" style="fill:black; stroke:none;" /><rect height="8" style="stroke:none;" width="8" x="198" y="111" /><path d="M203.1875 117.4688 L202.9531 118.1094 Q202.7656 118.625 202.2031 118.9375 Q201.8438 119.1562 201.2031 119.1406 Q200.0469 119.1406 199.3281 118.2344 Q198.5938 117.3281 198.5938 115.8594 Q198.5938 114.4219 199.3281 113.4844 Q200.0156 112.5938 201.4531 112.6094 Q202.4531 112.6094 202.9531 113 Q203.4062 113.3438 203.5781 114.0938 L203.625 114.3125 L203.8438 113.6719 Q204.0625 113.0469 204.6562 112.75 L205.25 112.75 L205.25 113.0938 Q204.6875 113.2656 204.5 113.8125 L203.8906 115.4844 L204.2969 117.2812 Q204.5 118.2031 204.7344 118.2969 Q205.0469 118.4375 205.7812 118 L205.7812 118.7188 Q204.5938 119.4062 203.75 118.6875 Q203.375 118.3594 203.2656 117.875 L203.1875 117.4688 ZM202.9219 116.3125 L202.5625 114.5938 Q202.2656 113.2188 201.4688 113.2188 Q200.7969 113.2031 200.2812 113.9375 Q199.8594 114.5156 199.8594 115.875 Q199.8594 117.1719 200.2812 117.8281 Q200.75 118.5469 201.5312 118.5 Q202.2031 118.4375 202.6875 117 L202.9219 116.3125 Z" style="fill:black; stroke:none;" /></g><g ID="li-1:2,4" style="fill:white; text-rendering:optimizeSpeed; font-family:'Serif'; stroke:white;"><rect height="9" style="stroke:none;" width="8" x="278" y="174" /><path d="M282.1875 180.0312 L282.1875 175.375 L279.2031 180.0312 L282.1875 180.0312 ZM284.7656 183 L280.7812 183 L280.7812 182.375 L282.1875 182.375 L282.1875 180.6562 L278.375 180.6562 L278.375 180.0156 L282.2031 174.0938 L283.3594 174.0938 L283.3594 180.0312 L285.0312 180.0312 L285.0312 180.6562 L283.3594 180.6562 L283.3594 182.375 L284.7656 182.375 L284.7656 183 Z" style="fill:black; stroke:none;" /><rect height="13" style="stroke:none;" width="7" x="264" y="172" /><path d="M265.8281 184.25 Q266.2969 184.5938 267.1719 184.5938 Q268.0625 184.5938 268.5781 184.0703 Q269.0938 183.5469 269.0938 182.6562 Q269.0938 181.4219 268.5625 180.8906 Q268.0156 180.3594 267 180.3594 L266.4375 180.3594 L266.4375 179.7188 L266.7344 179.7188 Q267.4844 179.7188 268 179.2969 Q268.4219 178.9531 268.4219 178.0156 Q268.4219 177.6094 268.1406 177.1406 Q267.6875 176.375 267.1562 176.3906 Q265.8281 176.4375 265.8281 178.7812 L265.8281 184.25 ZM264.75 187.5 L264.75 178.7812 Q264.75 176.3281 266.0781 176 Q266.7656 175.8125 267.25 175.8125 Q268.3438 175.8125 269.0469 176.6719 Q269.6094 177.3594 269.6094 177.9375 Q269.6094 178.7812 269.2031 179.2656 Q268.7969 179.75 268.0625 179.9844 Q269.1406 180.1406 269.75 180.7812 Q270.3281 181.4062 270.3281 182.6328 Q270.3281 183.8594 269.5078 184.5156 Q268.6875 185.1719 267.1406 185.1719 Q266.1875 185.1719 265.8281 185.0312 L265.8281 187.5 L264.75 187.5 Z" style="fill:black; stroke:none;" /></g><g ID="r-1:3" style="fill:white; text-rendering:optimizeSpeed; stroke:white;" wurcs_mono_id="18"><polygon points=" 353 130 342 108 364 108" style="stroke:none; clip-path:url(#clipPath18);" /><rect height="22" style="clip-path:url(#clipPath18); fill:rgb(237,28,36); stroke:none;" width="22" x="342" y="108" /><rect height="22" style="clip-path:url(#clipPath18); fill:none; stroke:black;" width="22" x="342" y="108" /><polygon points=" 353 130 342 108 364 108" style="fill:none; stroke:black;" /></g><g ID="li-1:1,2" style="fill:white; text-rendering:optimizeSpeed; font-family:'Serif'; stroke:white;"><rect height="9" style="stroke:none;" width="8" x="330" y="174" /><path d="M334.1875 180.0312 L334.1875 175.375 L331.2031 180.0312 L334.1875 180.0312 ZM336.7656 183 L332.7812 183 L332.7812 182.375 L334.1875 182.375 L334.1875 180.6562 L330.375 180.6562 L330.375 180.0156 L334.2031 174.0938 L335.3594 174.0938 L335.3594 180.0312 L337.0312 180.0312 L337.0312 180.6562 L335.3594 180.6562 L335.3594 182.375 L336.7656 182.375 L336.7656 183 Z" style="fill:black; stroke:none;" /><rect height="13" style="stroke:none;" width="7" x="316" y="172" /><path d="M317.8281 184.25 Q318.2969 184.5938 319.1719 184.5938 Q320.0625 184.5938 320.5781 184.0703 Q321.0938 183.5469 321.0938 182.6562 Q321.0938 181.4219 320.5625 180.8906 Q320.0156 180.3594 319 180.3594 L318.4375 180.3594 L318.4375 179.7188 L318.7344 179.7188 Q319.4844 179.7188 320 179.2969 Q320.4219 178.9531 320.4219 178.0156 Q320.4219 177.6094 320.1406 177.1406 Q319.6875 176.375 319.1562 176.3906 Q317.8281 176.4375 317.8281 178.7812 L317.8281 184.25 ZM316.75 187.5 L316.75 178.7812 Q316.75 176.3281 318.0781 176 Q318.7656 175.8125 319.25 175.8125 Q320.3438 175.8125 321.0469 176.6719 Q321.6094 177.3594 321.6094 177.9375 Q321.6094 178.7812 321.2031 179.2656 Q320.7969 179.75 320.0625 179.9844 Q321.1406 180.1406 321.75 180.7812 Q322.3281 181.4062 322.3281 182.6328 Q322.3281 183.8594 321.5078 184.5156 Q320.6875 185.1719 319.1406 185.1719 Q318.1875 185.1719 317.8281 185.0312 L317.8281 187.5 L316.75 187.5 Z" style="fill:black; stroke:none;" /></g><g ID="li-1:1,3" style="fill:white; text-rendering:optimizeSpeed; font-family:'Serif'; stroke:white;"><rect height="10" style="stroke:none;" width="7" x="341" y="147" /><path d="M344.9219 156.5938 Q345.75 156.5938 346.1953 155.9844 Q346.6406 155.375 346.6406 154.2344 Q346.6406 153.1094 346.1953 152.5 Q345.75 151.8906 344.9219 151.8906 Q344.0938 151.8906 343.6484 152.4766 Q343.2031 153.0625 343.2031 154.1719 Q343.2031 155.3281 343.6484 155.9609 Q344.0938 156.5938 344.9219 156.5938 ZM343.0156 152.1875 Q343.4219 151.75 343.9219 151.5312 Q344.4219 151.3125 345.0625 151.3125 Q346.3594 151.3125 347.1172 152.0938 Q347.875 152.875 347.875 154.2344 Q347.875 155.5625 347.0625 156.3672 Q346.25 157.1719 344.875 157.1719 Q343.3906 157.1719 342.5938 156.0625 Q341.7969 154.9531 341.7969 152.9062 Q341.7969 150.6094 342.7422 149.3516 Q343.6875 148.0938 345.4062 148.0938 Q345.875 148.0938 346.3828 148.1797 Q346.8906 148.2656 347.4219 148.4375 L347.4219 149.8906 L346.7656 149.8906 Q346.6875 149.2969 346.3047 148.9844 Q345.9219 148.6719 345.2812 148.6719 Q344.1406 148.6719 343.5859 149.5312 Q343.0312 150.3906 343.0156 152.1875 Z" style="fill:black; stroke:none;" /><rect height="8" style="stroke:none;" width="8" x="341" y="134" /><path d="M346.1875 140.4688 L345.9531 141.1094 Q345.7656 141.625 345.2031 141.9375 Q344.8438 142.1562 344.2031 142.1406 Q343.0469 142.1406 342.3281 141.2344 Q341.5938 140.3281 341.5938 138.8594 Q341.5938 137.4219 342.3281 136.4844 Q343.0156 135.5938 344.4531 135.6094 Q345.4531 135.6094 345.9531 136 Q346.4062 136.3438 346.5781 137.0938 L346.625 137.3125 L346.8438 136.6719 Q347.0625 136.0469 347.6562 135.75 L348.25 135.75 L348.25 136.0938 Q347.6875 136.2656 347.5 136.8125 L346.8906 138.4844 L347.2969 140.2812 Q347.5 141.2031 347.7344 141.2969 Q348.0469 141.4375 348.7812 141 L348.7812 141.7188 Q347.5938 142.4062 346.75 141.6875 Q346.375 141.3594 346.2656 140.875 L346.1875 140.4688 ZM345.9219 139.3125 L345.5625 137.5938 Q345.2656 136.2188 344.4688 136.2188 Q343.7969 136.2031 343.2812 136.9375 Q342.8594 137.5156 342.8594 138.875 Q342.8594 140.1719 343.2812 140.8281 Q343.75 141.5469 344.5312 141.5 Q345.2031 141.4375 345.6875 140 L345.9219 139.3125 Z" style="fill:black; stroke:none;" /></g></g></svg>