<svg xmlns="http://www.w3.org/2000/svg" style="fill-opacity:1; color-rendering:auto; color-interpolation:auto; text-rendering:auto; stroke:black; stroke-linecap:square; stroke-miterlimit:10; shape-rendering:auto; stroke-opacity:1; fill:black; stroke-dasharray:none; font-weight:normal; stroke-width:1; font-family:'Dialog'; font-style:normal; stroke-linejoin:miter; font-size:12px; stroke-dashoffset:0; image-rendering:auto;"><defs id="genericDefs" /><g><defs id="defs1"><clipPath clipPathUnits="userSpaceOnUse" id="clipPath1"><path d="M156 41 C156 47.0751 151.0751 52 145 52 C138.9249 52 134 47.0751 134 41 C134 34.9249 138.9249 30 145 30 C151.0751 30 156 34.9249 156 41 Z" /></clipPath><clipPath clipPathUnits="userSpaceOnUse" id="clipPath2"><path d="M82 30 L104 30 L104 52 L82 52 L82 30 Z" /></clipPath><clipPath clipPathUnits="userSpaceOnUse" id="clipPath3"><path d="M52 41 C52 47.0751 47.0751 52 41 52 C34.9249 52 30 47.0751 30 41 C30 34.9249 34.9249 30 41 30 C47.0751 30 52 34.9249 52 41 Z" /></clipPath></defs><g style="fill:white; text-rendering:optimizeSpeed; stroke:white;"><rect height="82" style="stroke:none;" width="186" x="0" y="0" /></g><g ID="l-1:1,2" style="text-rendering:optimizeSpeed;"><polygon points=" 145 41 93 41" style="fill:none;" /></g><g ID="r-1:1" style="fill:white; text-rendering:optimizeSpeed; stroke:white;" wurcs_mono_id="1"><circle cx="145" cy="41" r="11" style="clip-path:url(#clipPath1); stroke:none;" /><rect height="22" style="clip-path:url(#clipPath1); fill:rgb(0,166,81); stroke:none;" width="22" x="134" y="30" /><rect height="22" style="clip-path:url(#clipPath1); fill:none; stroke:black;" width="22" x="134" y="30" /><circle cx="145" cy="41" r="11" style="fill:none; stroke:black;" /></g><g ID="l-1:2,3" style="text-rendering:optimizeSpeed;"><polygon points=" 93 41 41 41" style="fill:none;" /></g><g ID="r-1:2" style="fill:white; text-rendering:optimizeSpeed; stroke:white;" wurcs_mono_id="2"><rect height="22" style="clip-path:url(#clipPath2); stroke:none;" width="22" x="82" y="30" /><rect height="22" style="clip-path:url(#clipPath2); fill:rgb(0,144,188); stroke:none;" width="22" x="82" y="30" /><rect height="22" style="clip-path:url(#clipPath2); fill:none; stroke:black;" width="22" x="82" y="30" /><rect height="22" style="fill:none; stroke:black;" width="22" x="82" y="30" /></g><g ID="r-1:3" style="fill:white; text-rendering:optimizeSpeed; stroke:white;" wurcs_mono_id="3"><circle cx="41" cy="41" r="11" style="clip-path:url(#clipPath3); stroke:none;" /><rect height="22" style="clip-path:url(#clipPath3); fill:rgb(255,212,0); stroke:none;" width="22" x="30" y="30" /><rect height="22" style="clip-path:url(#clipPath3); fill:none; stroke:black;" width="22" x="30" y="30" /><circle cx="41" cy="41" r="11" style="fill:none; stroke:black;" /></g><g ID="li-1:2,3" style="fill:white; text-rendering:optimizeSpeed; font-family:'Serif'; stroke:white;"><rect height="10" style="stroke:none;" width="7" x="70" y="44" /><path d="M71.1719 45.625 Q71.8594 45.3594 72.4844 45.2266 Q73.1094 45.0938 73.6562 45.0938 Q74.9531 45.0938 75.6719 45.6484 Q76.3906 46.2031 76.3906 47.1875 Q76.3906 47.9688 75.8906 48.5 Q75.3906 49.0312 74.4844 49.2188 Q75.5625 49.375 76.1562 50.0078 Q76.75 50.6406 76.75 51.6406 Q76.75 52.8594 75.9219 53.5156 Q75.0938 54.1719 73.5469 54.1719 Q72.8594 54.1719 72.2109 54.0234 Q71.5625 53.875 70.9219 53.5781 L70.9219 51.875 L71.5781 51.875 Q71.625 52.7188 72.1406 53.1562 Q72.6562 53.5938 73.5781 53.5938 Q74.4688 53.5938 74.9922 53.0703 Q75.5156 52.5469 75.5156 51.6562 Q75.5156 50.625 74.9766 50.0938 Q74.4375 49.5625 73.4062 49.5625 L72.8594 49.5625 L72.8594 48.9531 L73.1406 48.9531 Q74.1719 48.9531 74.6875 48.5312 Q75.2031 48.1094 75.2031 47.25 Q75.2031 46.4844 74.7812 46.0781 Q74.3594 45.6719 73.5625 45.6719 Q72.7656 45.6719 72.3359 46.0469 Q71.9062 46.4219 71.8281 47.1562 L71.1719 47.1562 L71.1719 45.625 Z" style="fill:black; stroke:none;" /><rect height="13" style="stroke:none;" width="7" x="56" y="42" /><path d="M57.8281 54.25 Q58.2969 54.5938 59.1719 54.5938 Q60.0625 54.5938 60.5781 54.0703 Q61.0938 53.5469 61.0938 52.6562 Q61.0938 51.4219 60.5625 50.8906 Q60.0156 50.3594 59 50.3594 L58.4375 50.3594 L58.4375 49.7188 L58.7344 49.7188 Q59.4844 49.7188 60 49.2969 Q60.4219 48.9531 60.4219 48.0156 Q60.4219 47.6094 60.1406 47.1406 Q59.6875 46.375 59.1562 46.3906 Q57.8281 46.4375 57.8281 48.7812 L57.8281 54.25 ZM56.75 57.5 L56.75 48.7812 Q56.75 46.3281 58.0781 46 Q58.7656 45.8125 59.25 45.8125 Q60.3438 45.8125 61.0469 46.6719 Q61.6094 47.3594 61.6094 47.9375 Q61.6094 48.7812 61.2031 49.2656 Q60.7969 49.75 60.0625 49.9844 Q61.1406 50.1406 61.75 50.7812 Q62.3281 51.4062 62.3281 52.6328 Q62.3281 53.8594 61.5078 54.5156 Q60.6875 55.1719 59.1406 55.1719 Q58.1875 55.1719 57.8281 55.0312 L57.8281 57.5 L56.75 57.5 Z" style="fill:black; stroke:none;" /></g><g ID="li-1:1,2" style="fill:white; text-rendering:optimizeSpeed; font-family:'Serif'; stroke:white;"><rect height="11" style="stroke:none;" width="20" x="116" y="43" /><path d="M117.5312 47.3438 L116.875 47.3438 L116.875 45.7812 Q117.5 45.4375 118.1406 45.2656 Q118.7812 45.0938 119.3906 45.0938 Q120.75 45.0938 121.5391 45.7578 Q122.3281 46.4219 122.3281 47.5469 Q122.3281 48.8438 120.5469 50.625 Q120.4062 50.7656 120.3281 50.8281 L118.125 53.0312 L121.7656 53.0312 L121.7656 51.9531 L122.4531 51.9531 L122.4531 54 L116.8125 54 L116.8125 53.3594 L119.4688 50.7188 Q120.3438 49.8281 120.7188 49.0938 Q121.0938 48.3594 121.0938 47.5469 Q121.0938 46.6719 120.6328 46.1719 Q120.1719 45.6719 119.375 45.6719 Q118.5312 45.6719 118.0781 46.0859 Q117.625 46.5 117.5312 47.3438 ZM126.7441 45.25 L127.6816 45.25 L124.5723 55.1094 L123.6348 55.1094 L126.7441 45.25 ZM131.8652 51.0312 L131.8652 46.375 L128.8809 51.0312 L131.8652 51.0312 ZM134.4434 54 L130.459 54 L130.459 53.375 L131.8652 53.375 L131.8652 51.6562 L128.0527 51.6562 L128.0527 51.0156 L131.8809 45.0938 L133.0371 45.0938 L133.0371 51.0312 L134.709 51.0312 L134.709 51.6562 L133.0371 51.6562 L133.0371 53.375 L134.4434 53.375 L134.4434 54 Z" style="fill:black; stroke:none;" /><rect height="13" style="stroke:none;" width="7" x="108" y="42" /><path d="M109.8281 54.25 Q110.2969 54.5938 111.1719 54.5938 Q112.0625 54.5938 112.5781 54.0703 Q113.0938 53.5469 113.0938 52.6562 Q113.0938 51.4219 112.5625 50.8906 Q112.0156 50.3594 111 50.3594 L110.4375 50.3594 L110.4375 49.7188 L110.7344 49.7188 Q111.4844 49.7188 112 49.2969 Q112.4219 48.9531 112.4219 48.0156 Q112.4219 47.6094 112.1406 47.1406 Q111.6875 46.375 111.1562 46.3906 Q109.8281 46.4375 109.8281 48.7812 L109.8281 54.25 ZM108.75 57.5 L108.75 48.7812 Q108.75 46.3281 110.0781 46 Q110.7656 45.8125 111.25 45.8125 Q112.3438 45.8125 113.0469 46.6719 Q113.6094 47.3594 113.6094 47.9375 Q113.6094 48.7812 113.2031 49.2656 Q112.7969 49.75 112.0625 49.9844 Q113.1406 50.1406 113.75 50.7812 Q114.3281 51.4062 114.3281 52.6328 Q114.3281 53.8594 113.5078 54.5156 Q112.6875 55.1719 111.1406 55.1719 Q110.1875 55.1719 109.8281 55.0312 L109.8281 57.5 L108.75 57.5 Z" style="fill:black; stroke:none;" /></g></g></svg>