<svg xmlns="http://www.w3.org/2000/svg" style="fill-opacity:1; color-rendering:auto; color-interpolation:auto; text-rendering:auto; stroke:black; stroke-linecap:square; stroke-miterlimit:10; shape-rendering:auto; stroke-opacity:1; fill:black; stroke-dasharray:none; font-weight:normal; stroke-width:1; font-family:'Dialog'; font-style:normal; stroke-linejoin:miter; font-size:12px; stroke-dashoffset:0; image-rendering:auto;"><defs id="genericDefs" /><g><defs id="defs1"><clipPath clipPathUnits="userSpaceOnUse" id="clipPath1"><path d="M342 95 L364 95 L364 117 L342 117 L342 95 Z" /></clipPath><clipPath clipPathUnits="userSpaceOnUse" id="clipPath2"><path d="M290 95 L312 95 L312 117 L290 117 L290 95 Z" /></clipPath><clipPath clipPathUnits="userSpaceOnUse" id="clipPath3"><path d="M260 106 C260 112.0751 255.0751 117 249 117 C242.9249 117 238 112.0751 238 106 C238 99.9249 242.9249 95 249 95 C255.0751 95 260 99.9249 260 106 Z" /></clipPath><clipPath clipPathUnits="userSpaceOnUse" id="clipPath4"><path d="M208 145 C208 151.0751 203.0751 156 197 156 C190.9249 156 186 151.0751 186 145 C186 138.9249 190.9249 134 197 134 C203.0751 134 208 138.9249 208 145 Z" /></clipPath><clipPath clipPathUnits="userSpaceOnUse" id="clipPath5"><path d="M134 134 L156 134 L156 156 L134 156 L134 134 Z" /></clipPath><clipPath clipPathUnits="userSpaceOnUse" id="clipPath6"><path d="M104 145 C104 151.0751 99.0751 156 93 156 C86.9249 156 82 151.0751 82 145 C82 138.9249 86.9249 134 93 134 C99.0751 134 104 138.9249 104 145 Z" /></clipPath><clipPath clipPathUnits="userSpaceOnUse" id="clipPath7"><path d="M41 134 L52 145 L41 156 L30 145 Z" style="fill-rule:evenodd;" /></clipPath><clipPath clipPathUnits="userSpaceOnUse" id="clipPath8"><path d="M208 67 C208 73.0751 203.0751 78 197 78 C190.9249 78 186 73.0751 186 67 C186 60.9249 190.9249 56 197 56 C203.0751 56 208 60.9249 208 67 Z" /></clipPath><clipPath clipPathUnits="userSpaceOnUse" id="clipPath9"><path d="M156 93 C156 99.0751 151.0751 104 145 104 C138.9249 104 134 99.0751 134 93 C134 86.9249 138.9249 82 145 82 C151.0751 82 156 86.9249 156 93 Z" /></clipPath><clipPath clipPathUnits="userSpaceOnUse" id="clipPath10"><path d="M156 41 C156 47.0751 151.0751 52 145 52 C138.9249 52 134 47.0751 134 41 C134 34.9249 138.9249 30 145 30 C151.0751 30 156 34.9249 156 41 Z" /></clipPath></defs><g style="fill:white; text-rendering:optimizeSpeed; stroke:white;"><rect height="186" style="stroke:none;" width="394" x="0" y="0" /></g><g ID="l-1:1,2" style="text-rendering:optimizeSpeed;"><polygon points=" 353 106 301 106" style="fill:none;" /></g><g ID="r-1:1" style="fill:white; text-rendering:optimizeSpeed; stroke:white;" wurcs_mono_id="1"><rect height="22" style="clip-path:url(#clipPath1); stroke:none;" width="22" x="342" y="95" /><rect height="22" style="clip-path:url(#clipPath1); fill:rgb(0,144,188); stroke:none;" width="22" x="342" y="95" /><rect height="22" style="clip-path:url(#clipPath1); fill:none; stroke:black;" width="22" x="342" y="95" /><rect height="22" style="fill:none; stroke:black;" width="22" x="342" y="95" /></g><g ID="l-1:2,3" style="text-rendering:optimizeSpeed;"><polygon points=" 301 106 249 106" style="fill:none;" /></g><g ID="r-1:2" style="fill:white; text-rendering:optimizeSpeed; stroke:white;" wurcs_mono_id="2"><rect height="22" style="clip-path:url(#clipPath2); stroke:none;" width="22" x="290" y="95" /><rect height="22" style="clip-path:url(#clipPath2); fill:rgb(0,144,188); stroke:none;" width="22" x="290" y="95" /><rect height="22" style="clip-path:url(#clipPath2); fill:none; stroke:black;" width="22" x="290" y="95" /><rect height="22" style="fill:none; stroke:black;" width="22" x="290" y="95" /></g><g ID="l-1:3,4" style="text-rendering:optimizeSpeed;"><polygon points=" 249 106 197 145" style="fill:none;" /></g><g ID="l-1:3,5" style="text-rendering:optimizeSpeed;"><polygon points=" 249 106 197 67" style="fill:none;" /></g><g ID="r-1:3" style="fill:white; text-rendering:optimizeSpeed; stroke:white;" wurcs_mono_id="3"><circle cx="249" cy="106" r="11" style="clip-path:url(#clipPath3); stroke:none;" /><rect height="22" style="clip-path:url(#clipPath3); fill:rgb(0,166,81); stroke:none;" width="22" x="238" y="95" /><rect height="22" style="clip-path:url(#clipPath3); fill:none; stroke:black;" width="22" x="238" y="95" /><circle cx="249" cy="106" r="11" style="fill:none; stroke:black;" /></g><g ID="l-1:4,6" style="text-rendering:optimizeSpeed;"><polygon points=" 197 145 145 145" style="fill:none;" /></g><g ID="r-1:4" style="fill:white; text-rendering:optimizeSpeed; stroke:white;" wurcs_mono_id="4"><circle cx="197" cy="145" r="11" style="clip-path:url(#clipPath4); stroke:none;" /><rect height="22" style="clip-path:url(#clipPath4); fill:rgb(0,166,81); stroke:none;" width="22" x="186" y="134" /><rect height="22" style="clip-path:url(#clipPath4); fill:none; stroke:black;" width="22" x="186" y="134" /><circle cx="197" cy="145" r="11" style="fill:none; stroke:black;" /></g><g ID="l-1:6,7" style="text-rendering:optimizeSpeed;"><polygon points=" 145 145 93 145" style="fill:none;" /></g><g ID="r-1:6" style="fill:white; text-rendering:optimizeSpeed; stroke:white;" wurcs_mono_id="5"><rect height="22" style="clip-path:url(#clipPath5); stroke:none;" width="22" x="134" y="134" /><rect height="22" style="clip-path:url(#clipPath5); fill:rgb(0,144,188); stroke:none;" width="22" x="134" y="134" /><rect height="22" style="clip-path:url(#clipPath5); fill:none; stroke:black;" width="22" x="134" y="134" /><rect height="22" style="fill:none; stroke:black;" width="22" x="134" y="134" /></g><g ID="l-1:7,8" style="text-rendering:optimizeSpeed;"><polygon points=" 93 145 41 145" style="fill:none;" /></g><g ID="r-1:7" style="fill:white; text-rendering:optimizeSpeed; stroke:white;" wurcs_mono_id="6"><circle cx="93" cy="145" r="11" style="clip-path:url(#clipPath6); stroke:none;" /><rect height="22" style="clip-path:url(#clipPath6); fill:rgb(255,212,0); stroke:none;" width="22" x="82" y="134" /><rect height="22" style="clip-path:url(#clipPath6); fill:none; stroke:black;" width="22" x="82" y="134" /><circle cx="93" cy="145" r="11" style="fill:none; stroke:black;" /></g><g ID="r-1:8" style="fill:white; text-rendering:optimizeSpeed; stroke:white;" wurcs_mono_id="7"><polygon points=" 41 134 52 145 41 156 30 145" style="stroke:none; clip-path:url(#clipPath7);" /><rect height="22" style="clip-path:url(#clipPath7); fill:rgb(165,67,153); stroke:none;" width="22" x="30" y="134" /><rect height="22" style="clip-path:url(#clipPath7); fill:none; stroke:black;" width="22" x="30" y="134" /><polygon points=" 41 134 52 145 41 156 30 145" style="fill:none; stroke:black;" /></g><g ID="li-1:7,8" style="fill:white; text-rendering:optimizeSpeed; font-family:'Serif'; stroke:white;"><rect height="10" style="stroke:none;" width="6" x="71" y="148" /><path d="M73.1094 157.3906 Q73.1094 157.0625 73.3359 156.8359 Q73.5625 156.6094 73.8906 156.6094 Q74.2188 156.6094 74.4453 156.8359 Q74.6719 157.0625 74.6719 157.3906 Q74.6719 157.7188 74.4453 157.9453 Q74.2188 158.1719 73.8906 158.1719 Q73.5625 158.1719 73.3359 157.9453 Q73.1094 157.7188 73.1094 157.3906 ZM71.8125 149.6406 Q72.4375 149.3594 73 149.2266 Q73.5625 149.0938 74.0469 149.0938 Q75.3438 149.0938 76.1016 149.7188 Q76.8594 150.3438 76.8594 151.4062 Q76.8594 152.5 76.2109 153.1953 Q75.5625 153.8906 74.25 154.1875 L74.25 155.6719 L73.5312 155.6719 L73.5312 153.75 Q74.5625 153.5 75.0938 152.9062 Q75.625 152.3125 75.625 151.4062 Q75.625 150.5938 75.1953 150.1328 Q74.7656 149.6719 74.0312 149.6719 Q73.3594 149.6719 72.9297 150.0547 Q72.5 150.4375 72.3906 151.1562 L71.8125 151.1562 L71.8125 149.6406 Z" style="fill:black; stroke:none;" /><rect height="10" style="stroke:none;" width="6" x="57" y="148" /><path d="M59.1094 157.3906 Q59.1094 157.0625 59.3359 156.8359 Q59.5625 156.6094 59.8906 156.6094 Q60.2188 156.6094 60.4453 156.8359 Q60.6719 157.0625 60.6719 157.3906 Q60.6719 157.7188 60.4453 157.9453 Q60.2188 158.1719 59.8906 158.1719 Q59.5625 158.1719 59.3359 157.9453 Q59.1094 157.7188 59.1094 157.3906 ZM57.8125 149.6406 Q58.4375 149.3594 59 149.2266 Q59.5625 149.0938 60.0469 149.0938 Q61.3438 149.0938 62.1016 149.7188 Q62.8594 150.3438 62.8594 151.4062 Q62.8594 152.5 62.2109 153.1953 Q61.5625 153.8906 60.25 154.1875 L60.25 155.6719 L59.5312 155.6719 L59.5312 153.75 Q60.5625 153.5 61.0938 152.9062 Q61.625 152.3125 61.625 151.4062 Q61.625 150.5938 61.1953 150.1328 Q60.7656 149.6719 60.0312 149.6719 Q59.3594 149.6719 58.9297 150.0547 Q58.5 150.4375 58.3906 151.1562 L57.8125 151.1562 L57.8125 149.6406 Z" style="fill:black; stroke:none;" /></g><g ID="li-1:6,7" style="fill:white; text-rendering:optimizeSpeed; font-family:'Serif'; stroke:white;"><rect height="10" style="stroke:none;" width="6" x="123" y="148" /><path d="M125.1094 157.3906 Q125.1094 157.0625 125.3359 156.8359 Q125.5625 156.6094 125.8906 156.6094 Q126.2188 156.6094 126.4453 156.8359 Q126.6719 157.0625 126.6719 157.3906 Q126.6719 157.7188 126.4453 157.9453 Q126.2188 158.1719 125.8906 158.1719 Q125.5625 158.1719 125.3359 157.9453 Q125.1094 157.7188 125.1094 157.3906 ZM123.8125 149.6406 Q124.4375 149.3594 125 149.2266 Q125.5625 149.0938 126.0469 149.0938 Q127.3438 149.0938 128.1016 149.7188 Q128.8594 150.3438 128.8594 151.4062 Q128.8594 152.5 128.2109 153.1953 Q127.5625 153.8906 126.25 154.1875 L126.25 155.6719 L125.5312 155.6719 L125.5312 153.75 Q126.5625 153.5 127.0938 152.9062 Q127.625 152.3125 127.625 151.4062 Q127.625 150.5938 127.1953 150.1328 Q126.7656 149.6719 126.0312 149.6719 Q125.3594 149.6719 124.9297 150.0547 Q124.5 150.4375 124.3906 151.1562 L123.8125 151.1562 L123.8125 149.6406 Z" style="fill:black; stroke:none;" /><rect height="10" style="stroke:none;" width="6" x="109" y="148" /><path d="M111.1094 157.3906 Q111.1094 157.0625 111.3359 156.8359 Q111.5625 156.6094 111.8906 156.6094 Q112.2188 156.6094 112.4453 156.8359 Q112.6719 157.0625 112.6719 157.3906 Q112.6719 157.7188 112.4453 157.9453 Q112.2188 158.1719 111.8906 158.1719 Q111.5625 158.1719 111.3359 157.9453 Q111.1094 157.7188 111.1094 157.3906 ZM109.8125 149.6406 Q110.4375 149.3594 111 149.2266 Q111.5625 149.0938 112.0469 149.0938 Q113.3438 149.0938 114.1016 149.7188 Q114.8594 150.3438 114.8594 151.4062 Q114.8594 152.5 114.2109 153.1953 Q113.5625 153.8906 112.25 154.1875 L112.25 155.6719 L111.5312 155.6719 L111.5312 153.75 Q112.5625 153.5 113.0938 152.9062 Q113.625 152.3125 113.625 151.4062 Q113.625 150.5938 113.1953 150.1328 Q112.7656 149.6719 112.0312 149.6719 Q111.3594 149.6719 110.9297 150.0547 Q110.5 150.4375 110.3906 151.1562 L109.8125 151.1562 L109.8125 149.6406 Z" style="fill:black; stroke:none;" /></g><g ID="li-1:4,6" style="fill:white; text-rendering:optimizeSpeed; font-family:'Serif'; stroke:white;"><rect height="10" style="stroke:none;" width="6" x="175" y="148" /><path d="M177.1094 157.3906 Q177.1094 157.0625 177.3359 156.8359 Q177.5625 156.6094 177.8906 156.6094 Q178.2188 156.6094 178.4453 156.8359 Q178.6719 157.0625 178.6719 157.3906 Q178.6719 157.7188 178.4453 157.9453 Q178.2188 158.1719 177.8906 158.1719 Q177.5625 158.1719 177.3359 157.9453 Q177.1094 157.7188 177.1094 157.3906 ZM175.8125 149.6406 Q176.4375 149.3594 177 149.2266 Q177.5625 149.0938 178.0469 149.0938 Q179.3438 149.0938 180.1016 149.7188 Q180.8594 150.3438 180.8594 151.4062 Q180.8594 152.5 180.2109 153.1953 Q179.5625 153.8906 178.25 154.1875 L178.25 155.6719 L177.5312 155.6719 L177.5312 153.75 Q178.5625 153.5 179.0938 152.9062 Q179.625 152.3125 179.625 151.4062 Q179.625 150.5938 179.1953 150.1328 Q178.7656 149.6719 178.0312 149.6719 Q177.3594 149.6719 176.9297 150.0547 Q176.5 150.4375 176.3906 151.1562 L175.8125 151.1562 L175.8125 149.6406 Z" style="fill:black; stroke:none;" /><rect height="10" style="stroke:none;" width="6" x="161" y="148" /><path d="M163.1094 157.3906 Q163.1094 157.0625 163.3359 156.8359 Q163.5625 156.6094 163.8906 156.6094 Q164.2188 156.6094 164.4453 156.8359 Q164.6719 157.0625 164.6719 157.3906 Q164.6719 157.7188 164.4453 157.9453 Q164.2188 158.1719 163.8906 158.1719 Q163.5625 158.1719 163.3359 157.9453 Q163.1094 157.7188 163.1094 157.3906 ZM161.8125 149.6406 Q162.4375 149.3594 163 149.2266 Q163.5625 149.0938 164.0469 149.0938 Q165.3438 149.0938 166.1016 149.7188 Q166.8594 150.3438 166.8594 151.4062 Q166.8594 152.5 166.2109 153.1953 Q165.5625 153.8906 164.25 154.1875 L164.25 155.6719 L163.5312 155.6719 L163.5312 153.75 Q164.5625 153.5 165.0938 152.9062 Q165.625 152.3125 165.625 151.4062 Q165.625 150.5938 165.1953 150.1328 Q164.7656 149.6719 164.0312 149.6719 Q163.3594 149.6719 162.9297 150.0547 Q162.5 150.4375 162.3906 151.1562 L161.8125 151.1562 L161.8125 149.6406 Z" style="fill:black; stroke:none;" /></g><g ID="l-1:5,9" style="text-rendering:optimizeSpeed;"><polygon points=" 197 67 145 93" style="fill:none;" /></g><g ID="l-1:5,10" style="text-rendering:optimizeSpeed;"><polygon points=" 197 67 145 41" style="fill:none;" /></g><g ID="r-1:5" style="fill:white; text-rendering:optimizeSpeed; stroke:white;" wurcs_mono_id="8"><circle cx="197" cy="67" r="11" style="clip-path:url(#clipPath8); stroke:none;" /><rect height="22" style="clip-path:url(#clipPath8); fill:rgb(0,166,81); stroke:none;" width="22" x="186" y="56" /><rect height="22" style="clip-path:url(#clipPath8); fill:none; stroke:black;" width="22" x="186" y="56" /><circle cx="197" cy="67" r="11" style="fill:none; stroke:black;" /></g><g ID="r-1:9" style="fill:white; text-rendering:optimizeSpeed; stroke:white;" wurcs_mono_id="9"><circle cx="145" cy="93" r="11" style="clip-path:url(#clipPath9); stroke:none;" /><rect height="22" style="clip-path:url(#clipPath9); fill:rgb(0,166,81); stroke:none;" width="22" x="134" y="82" /><rect height="22" style="clip-path:url(#clipPath9); fill:none; stroke:black;" width="22" x="134" y="82" /><circle cx="145" cy="93" r="11" style="fill:none; stroke:black;" /></g><g ID="r-1:10" style="fill:white; text-rendering:optimizeSpeed; stroke:white;" wurcs_mono_id="10"><circle cx="145" cy="41" r="11" style="clip-path:url(#clipPath10); stroke:none;" /><rect height="22" style="clip-path:url(#clipPath10); fill:rgb(0,166,81); stroke:none;" width="22" x="134" y="30" /><rect height="22" style="clip-path:url(#clipPath10); fill:none; stroke:black;" width="22" x="134" y="30" /><circle cx="145" cy="41" r="11" style="fill:none; stroke:black;" /></g><g ID="li-1:5,9" style="fill:white; text-rendering:optimizeSpeed; font-family:'Serif'; stroke:white;"><rect height="10" style="stroke:none;" width="6" x="179" y="78" /><path d="M181.1094 87.3906 Q181.1094 87.0625 181.3359 86.8359 Q181.5625 86.6094 181.8906 86.6094 Q182.2188 86.6094 182.4453 86.8359 Q182.6719 87.0625 182.6719 87.3906 Q182.6719 87.7188 182.4453 87.9453 Q182.2188 88.1719 181.8906 88.1719 Q181.5625 88.1719 181.3359 87.9453 Q181.1094 87.7188 181.1094 87.3906 ZM179.8125 79.6406 Q180.4375 79.3594 181 79.2266 Q181.5625 79.0938 182.0469 79.0938 Q183.3438 79.0938 184.1016 79.7188 Q184.8594 80.3438 184.8594 81.4062 Q184.8594 82.5 184.2109 83.1953 Q183.5625 83.8906 182.25 84.1875 L182.25 85.6719 L181.5312 85.6719 L181.5312 83.75 Q182.5625 83.5 183.0938 82.9062 Q183.625 82.3125 183.625 81.4062 Q183.625 80.5938 183.1953 80.1328 Q182.7656 79.6719 182.0312 79.6719 Q181.3594 79.6719 180.9297 80.0547 Q180.5 80.4375 180.3906 81.1562 L179.8125 81.1562 L179.8125 79.6406 Z" style="fill:black; stroke:none;" /><rect height="10" style="stroke:none;" width="6" x="163" y="86" /><path d="M165.1094 95.3906 Q165.1094 95.0625 165.3359 94.8359 Q165.5625 94.6094 165.8906 94.6094 Q166.2188 94.6094 166.4453 94.8359 Q166.6719 95.0625 166.6719 95.3906 Q166.6719 95.7188 166.4453 95.9453 Q166.2188 96.1719 165.8906 96.1719 Q165.5625 96.1719 165.3359 95.9453 Q165.1094 95.7188 165.1094 95.3906 ZM163.8125 87.6406 Q164.4375 87.3594 165 87.2266 Q165.5625 87.0938 166.0469 87.0938 Q167.3438 87.0938 168.1016 87.7188 Q168.8594 88.3438 168.8594 89.4062 Q168.8594 90.5 168.2109 91.1953 Q167.5625 91.8906 166.25 92.1875 L166.25 93.6719 L165.5312 93.6719 L165.5312 91.75 Q166.5625 91.5 167.0938 90.9062 Q167.625 90.3125 167.625 89.4062 Q167.625 88.5938 167.1953 88.1328 Q166.7656 87.6719 166.0312 87.6719 Q165.3594 87.6719 164.9297 88.0547 Q164.5 88.4375 164.3906 89.1562 L163.8125 89.1562 L163.8125 87.6406 Z" style="fill:black; stroke:none;" /></g><g ID="li-1:5,10" style="fill:white; text-rendering:optimizeSpeed; font-family:'Serif'; stroke:white;"><rect height="10" style="stroke:none;" width="6" x="172" y="60" /><path d="M174.1094 69.3906 Q174.1094 69.0625 174.3359 68.8359 Q174.5625 68.6094 174.8906 68.6094 Q175.2188 68.6094 175.4453 68.8359 Q175.6719 69.0625 175.6719 69.3906 Q175.6719 69.7188 175.4453 69.9453 Q175.2188 70.1719 174.8906 70.1719 Q174.5625 70.1719 174.3359 69.9453 Q174.1094 69.7188 174.1094 69.3906 ZM172.8125 61.6406 Q173.4375 61.3594 174 61.2266 Q174.5625 61.0938 175.0469 61.0938 Q176.3438 61.0938 177.1016 61.7188 Q177.8594 62.3438 177.8594 63.4062 Q177.8594 64.5 177.2109 65.1953 Q176.5625 65.8906 175.25 66.1875 L175.25 67.6719 L174.5312 67.6719 L174.5312 65.75 Q175.5625 65.5 176.0938 64.9062 Q176.625 64.3125 176.625 63.4062 Q176.625 62.5938 176.1953 62.1328 Q175.7656 61.6719 175.0312 61.6719 Q174.3594 61.6719 173.9297 62.0547 Q173.5 62.4375 173.3906 63.1562 L172.8125 63.1562 L172.8125 61.6406 Z" style="fill:black; stroke:none;" /><rect height="10" style="stroke:none;" width="6" x="156" y="52" /><path d="M158.1094 61.3906 Q158.1094 61.0625 158.3359 60.8359 Q158.5625 60.6094 158.8906 60.6094 Q159.2188 60.6094 159.4453 60.8359 Q159.6719 61.0625 159.6719 61.3906 Q159.6719 61.7188 159.4453 61.9453 Q159.2188 62.1719 158.8906 62.1719 Q158.5625 62.1719 158.3359 61.9453 Q158.1094 61.7188 158.1094 61.3906 ZM156.8125 53.6406 Q157.4375 53.3594 158 53.2266 Q158.5625 53.0938 159.0469 53.0938 Q160.3438 53.0938 161.1016 53.7188 Q161.8594 54.3438 161.8594 55.4062 Q161.8594 56.5 161.2109 57.1953 Q160.5625 57.8906 159.25 58.1875 L159.25 59.6719 L158.5312 59.6719 L158.5312 57.75 Q159.5625 57.5 160.0938 56.9062 Q160.625 56.3125 160.625 55.4062 Q160.625 54.5938 160.1953 54.1328 Q159.7656 53.6719 159.0312 53.6719 Q158.3594 53.6719 157.9297 54.0547 Q157.5 54.4375 157.3906 55.1562 L156.8125 55.1562 L156.8125 53.6406 Z" style="fill:black; stroke:none;" /></g><g ID="li-1:3,4" style="fill:white; text-rendering:optimizeSpeed; font-family:'Serif'; stroke:white;"><rect height="10" style="stroke:none;" width="6" x="233" y="120" /><path d="M235.1094 129.3906 Q235.1094 129.0625 235.3359 128.8359 Q235.5625 128.6094 235.8906 128.6094 Q236.2188 128.6094 236.4453 128.8359 Q236.6719 129.0625 236.6719 129.3906 Q236.6719 129.7188 236.4453 129.9453 Q236.2188 130.1719 235.8906 130.1719 Q235.5625 130.1719 235.3359 129.9453 Q235.1094 129.7188 235.1094 129.3906 ZM233.8125 121.6406 Q234.4375 121.3594 235 121.2266 Q235.5625 121.0938 236.0469 121.0938 Q237.3438 121.0938 238.1016 121.7188 Q238.8594 122.3438 238.8594 123.4062 Q238.8594 124.5 238.2109 125.1953 Q237.5625 125.8906 236.25 126.1875 L236.25 127.6719 L235.5312 127.6719 L235.5312 125.75 Q236.5625 125.5 237.0938 124.9062 Q237.625 124.3125 237.625 123.4062 Q237.625 122.5938 237.1953 122.1328 Q236.7656 121.6719 236.0312 121.6719 Q235.3594 121.6719 234.9297 122.0547 Q234.5 122.4375 234.3906 123.1562 L233.8125 123.1562 L233.8125 121.6406 Z" style="fill:black; stroke:none;" /><rect height="8" style="stroke:none;" width="8" x="215" y="134" /><path d="M220.1875 140.4688 L219.9531 141.1094 Q219.7656 141.625 219.2031 141.9375 Q218.8438 142.1562 218.2031 142.1406 Q217.0469 142.1406 216.3281 141.2344 Q215.5938 140.3281 215.5938 138.8594 Q215.5938 137.4219 216.3281 136.4844 Q217.0156 135.5938 218.4531 135.6094 Q219.4531 135.6094 219.9531 136 Q220.4062 136.3438 220.5781 137.0938 L220.625 137.3125 L220.8438 136.6719 Q221.0625 136.0469 221.6562 135.75 L222.25 135.75 L222.25 136.0938 Q221.6875 136.2656 221.5 136.8125 L220.8906 138.4844 L221.2969 140.2812 Q221.5 141.2031 221.7344 141.2969 Q222.0469 141.4375 222.7812 141 L222.7812 141.7188 Q221.5938 142.4062 220.75 141.6875 Q220.375 141.3594 220.2656 140.875 L220.1875 140.4688 ZM219.9219 139.3125 L219.5625 137.5938 Q219.2656 136.2188 218.4688 136.2188 Q217.7969 136.2031 217.2812 136.9375 Q216.8594 137.5156 216.8594 138.875 Q216.8594 140.1719 217.2812 140.8281 Q217.75 141.5469 218.5312 141.5 Q219.2031 141.4375 219.6875 140 L219.9219 139.3125 Z" style="fill:black; stroke:none;" /></g><g ID="li-1:3,5" style="fill:white; text-rendering:optimizeSpeed; font-family:'Serif'; stroke:white;"><rect height="10" style="stroke:none;" width="6" x="223" y="94" /><path d="M225.1094 103.3906 Q225.1094 103.0625 225.3359 102.8359 Q225.5625 102.6094 225.8906 102.6094 Q226.2188 102.6094 226.4453 102.8359 Q226.6719 103.0625 226.6719 103.3906 Q226.6719 103.7188 226.4453 103.9453 Q226.2188 104.1719 225.8906 104.1719 Q225.5625 104.1719 225.3359 103.9453 Q225.1094 103.7188 225.1094 103.3906 ZM223.8125 95.6406 Q224.4375 95.3594 225 95.2266 Q225.5625 95.0938 226.0469 95.0938 Q227.3438 95.0938 228.1016 95.7188 Q228.8594 96.3438 228.8594 97.4062 Q228.8594 98.5 228.2109 99.1953 Q227.5625 99.8906 226.25 100.1875 L226.25 101.6719 L225.5312 101.6719 L225.5312 99.75 Q226.5625 99.5 227.0938 98.9062 Q227.625 98.3125 227.625 97.4062 Q227.625 96.5938 227.1953 96.1328 Q226.7656 95.6719 226.0312 95.6719 Q225.3594 95.6719 224.9297 96.0547 Q224.5 96.4375 224.3906 97.1562 L223.8125 97.1562 L223.8125 95.6406 Z" style="fill:black; stroke:none;" /><rect height="8" style="stroke:none;" width="8" x="205" y="82" /><path d="M210.1875 88.4688 L209.9531 89.1094 Q209.7656 89.625 209.2031 89.9375 Q208.8438 90.1562 208.2031 90.1406 Q207.0469 90.1406 206.3281 89.2344 Q205.5938 88.3281 205.5938 86.8594 Q205.5938 85.4219 206.3281 84.4844 Q207.0156 83.5938 208.4531 83.6094 Q209.4531 83.6094 209.9531 84 Q210.4062 84.3438 210.5781 85.0938 L210.625 85.3125 L210.8438 84.6719 Q211.0625 84.0469 211.6562 83.75 L212.25 83.75 L212.25 84.0938 Q211.6875 84.2656 211.5 84.8125 L210.8906 86.4844 L211.2969 88.2812 Q211.5 89.2031 211.7344 89.2969 Q212.0469 89.4375 212.7812 89 L212.7812 89.7188 Q211.5938 90.4062 210.75 89.6875 Q210.375 89.3594 210.2656 88.875 L210.1875 88.4688 ZM209.9219 87.3125 L209.5625 85.5938 Q209.2656 84.2188 208.4688 84.2188 Q207.7969 84.2031 207.2812 84.9375 Q206.8594 85.5156 206.8594 86.875 Q206.8594 88.1719 207.2812 88.8281 Q207.75 89.5469 208.5312 89.5 Q209.2031 89.4375 209.6875 88 L209.9219 87.3125 Z" style="fill:black; stroke:none;" /></g><g ID="li-1:2,3" style="fill:white; text-rendering:optimizeSpeed; font-family:'Serif'; stroke:white;"><rect height="9" style="stroke:none;" width="8" x="278" y="109" /><path d="M282.1875 115.0312 L282.1875 110.375 L279.2031 115.0312 L282.1875 115.0312 ZM284.7656 118 L280.7812 118 L280.7812 117.375 L282.1875 117.375 L282.1875 115.6562 L278.375 115.6562 L278.375 115.0156 L282.2031 109.0938 L283.3594 109.0938 L283.3594 115.0312 L285.0312 115.0312 L285.0312 115.6562 L283.3594 115.6562 L283.3594 117.375 L284.7656 117.375 L284.7656 118 Z" style="fill:black; stroke:none;" /><rect height="13" style="stroke:none;" width="7" x="264" y="107" /><path d="M265.8281 119.25 Q266.2969 119.5938 267.1719 119.5938 Q268.0625 119.5938 268.5781 119.0703 Q269.0938 118.5469 269.0938 117.6562 Q269.0938 116.4219 268.5625 115.8906 Q268.0156 115.3594 267 115.3594 L266.4375 115.3594 L266.4375 114.7188 L266.7344 114.7188 Q267.4844 114.7188 268 114.2969 Q268.4219 113.9531 268.4219 113.0156 Q268.4219 112.6094 268.1406 112.1406 Q267.6875 111.375 267.1562 111.3906 Q265.8281 111.4375 265.8281 113.7812 L265.8281 119.25 ZM264.75 122.5 L264.75 113.7812 Q264.75 111.3281 266.0781 111 Q266.7656 110.8125 267.25 110.8125 Q268.3438 110.8125 269.0469 111.6719 Q269.6094 112.3594 269.6094 112.9375 Q269.6094 113.7812 269.2031 114.2656 Q268.7969 114.75 268.0625 114.9844 Q269.1406 115.1406 269.75 115.7812 Q270.3281 116.4062 270.3281 117.6328 Q270.3281 118.8594 269.5078 119.5156 Q268.6875 120.1719 267.1406 120.1719 Q266.1875 120.1719 265.8281 120.0312 L265.8281 122.5 L264.75 122.5 Z" style="fill:black; stroke:none;" /></g><g ID="li-1:1,2" style="fill:white; text-rendering:optimizeSpeed; font-family:'Serif'; stroke:white;"><rect height="9" style="stroke:none;" width="8" x="330" y="109" /><path d="M334.1875 115.0312 L334.1875 110.375 L331.2031 115.0312 L334.1875 115.0312 ZM336.7656 118 L332.7812 118 L332.7812 117.375 L334.1875 117.375 L334.1875 115.6562 L330.375 115.6562 L330.375 115.0156 L334.2031 109.0938 L335.3594 109.0938 L335.3594 115.0312 L337.0312 115.0312 L337.0312 115.6562 L335.3594 115.6562 L335.3594 117.375 L336.7656 117.375 L336.7656 118 Z" style="fill:black; stroke:none;" /><rect height="13" style="stroke:none;" width="7" x="316" y="107" /><path d="M317.8281 119.25 Q318.2969 119.5938 319.1719 119.5938 Q320.0625 119.5938 320.5781 119.0703 Q321.0938 118.5469 321.0938 117.6562 Q321.0938 116.4219 320.5625 115.8906 Q320.0156 115.3594 319 115.3594 L318.4375 115.3594 L318.4375 114.7188 L318.7344 114.7188 Q319.4844 114.7188 320 114.2969 Q320.4219 113.9531 320.4219 113.0156 Q320.4219 112.6094 320.1406 112.1406 Q319.6875 111.375 319.1562 111.3906 Q317.8281 111.4375 317.8281 113.7812 L317.8281 119.25 ZM316.75 122.5 L316.75 113.7812 Q316.75 111.3281 318.0781 111 Q318.7656 110.8125 319.25 110.8125 Q320.3438 110.8125 321.0469 111.6719 Q321.6094 112.3594 321.6094 112.9375 Q321.6094 113.7812 321.2031 114.2656 Q320.7969 114.75 320.0625 114.9844 Q321.1406 115.1406 321.75 115.7812 Q322.3281 116.4062 322.3281 117.6328 Q322.3281 118.8594 321.5078 119.5156 Q320.6875 120.1719 319.1406 120.1719 Q318.1875 120.1719 317.8281 120.0312 L317.8281 122.5 L316.75 122.5 Z" style="fill:black; stroke:none;" /></g></g></svg>