<svg xmlns="http://www.w3.org/2000/svg" style="fill-opacity:1; color-rendering:auto; color-interpolation:auto; text-rendering:auto; stroke:black; stroke-linecap:square; stroke-miterlimit:10; shape-rendering:auto; stroke-opacity:1; fill:black; stroke-dasharray:none; font-weight:normal; stroke-width:1; font-family:'Dialog'; font-style:normal; stroke-linejoin:miter; font-size:12px; stroke-dashoffset:0; image-rendering:auto;"><defs id="genericDefs" /><g><defs id="defs1"><clipPath clipPathUnits="userSpaceOnUse" id="clipPath1"><path d="M364 67 C364 73.0751 359.0751 78 353 78 C346.9249 78 342 73.0751 342 67 C342 60.9249 346.9249 56 353 56 C359.0751 56 364 60.9249 364 67 Z" /></clipPath><clipPath clipPathUnits="userSpaceOnUse" id="clipPath2"><path d="M312 93 C312 99.0751 307.0751 104 301 104 C294.9249 104 290 99.0751 290 93 C290 86.9249 294.9249 82 301 82 C307.0751 82 312 86.9249 312 93 Z" /></clipPath><clipPath clipPathUnits="userSpaceOnUse" id="clipPath3"><path d="M260 93 C260 99.0751 255.0751 104 249 104 C242.9249 104 238 99.0751 238 93 C238 86.9249 242.9249 82 249 82 C255.0751 82 260 86.9249 260 93 Z" /></clipPath><clipPath clipPathUnits="userSpaceOnUse" id="clipPath4"><path d="M208 93 C208 99.0751 203.0751 104 197 104 C190.9249 104 186 99.0751 186 93 C186 86.9249 190.9249 82 197 82 C203.0751 82 208 86.9249 208 93 Z" /></clipPath><clipPath clipPathUnits="userSpaceOnUse" id="clipPath5"><path d="M156 93 C156 99.0751 151.0751 104 145 104 C138.9249 104 134 99.0751 134 93 C134 86.9249 138.9249 82 145 82 C151.0751 82 156 86.9249 156 93 Z" /></clipPath><clipPath clipPathUnits="userSpaceOnUse" id="clipPath6"><path d="M104 93 C104 99.0751 99.0751 104 93 104 C86.9249 104 82 99.0751 82 93 C82 86.9249 86.9249 82 93 82 C99.0751 82 104 86.9249 104 93 Z" /></clipPath><clipPath clipPathUnits="userSpaceOnUse" id="clipPath7"><path d="M52 93 C52 99.0751 47.0751 104 41 104 C34.9249 104 30 99.0751 30 93 C30 86.9249 34.9249 82 41 82 C47.0751 82 52 86.9249 52 93 Z" /></clipPath><clipPath clipPathUnits="userSpaceOnUse" id="clipPath8"><path d="M312 41 C312 47.0751 307.0751 52 301 52 C294.9249 52 290 47.0751 290 41 C290 34.9249 294.9249 30 301 30 C307.0751 30 312 34.9249 312 41 Z" /></clipPath></defs><g style="fill:white; text-rendering:optimizeSpeed; stroke:white;"><rect height="134" style="stroke:none;" width="394" x="0" y="0" /></g><g ID="l-1:1,2" style="text-rendering:optimizeSpeed;"><polygon points=" 353 67 301 93" style="fill:none;" /></g><g ID="l-1:1,3" style="text-rendering:optimizeSpeed;"><polygon points=" 353 67 301 41" style="fill:none;" /></g><g ID="r-1:1" style="fill:white; text-rendering:optimizeSpeed; stroke:white;" wurcs_mono_id="1"><circle cx="353" cy="67" r="11" style="clip-path:url(#clipPath1); stroke:none;" /><rect height="22" style="clip-path:url(#clipPath1); fill:rgb(0,144,188); stroke:none;" width="22" x="342" y="56" /><rect height="22" style="clip-path:url(#clipPath1); fill:none; stroke:black;" width="22" x="342" y="56" /><circle cx="353" cy="67" r="11" style="fill:none; stroke:black;" /></g><g ID="l-1:2,4" style="text-rendering:optimizeSpeed;"><polygon points=" 301 93 249 93" style="fill:none;" /></g><g ID="r-1:2" style="fill:white; text-rendering:optimizeSpeed; stroke:white;" wurcs_mono_id="2"><circle cx="301" cy="93" r="11" style="clip-path:url(#clipPath2); stroke:none;" /><rect height="22" style="clip-path:url(#clipPath2); fill:rgb(0,144,188); stroke:none;" width="22" x="290" y="82" /><rect height="22" style="clip-path:url(#clipPath2); fill:none; stroke:black;" width="22" x="290" y="82" /><circle cx="301" cy="93" r="11" style="fill:none; stroke:black;" /></g><g ID="l-1:4,5" style="text-rendering:optimizeSpeed;"><polygon points=" 249 93 197 93" style="fill:none;" /></g><g ID="r-1:4" style="fill:white; text-rendering:optimizeSpeed; stroke:white;" wurcs_mono_id="3"><circle cx="249" cy="93" r="11" style="clip-path:url(#clipPath3); stroke:none;" /><rect height="22" style="clip-path:url(#clipPath3); fill:rgb(0,144,188); stroke:none;" width="22" x="238" y="82" /><rect height="22" style="clip-path:url(#clipPath3); fill:none; stroke:black;" width="22" x="238" y="82" /><circle cx="249" cy="93" r="11" style="fill:none; stroke:black;" /></g><g ID="l-1:5,6" style="text-rendering:optimizeSpeed;"><polygon points=" 197 93 145 93" style="fill:none;" /></g><g ID="r-1:5" style="fill:white; text-rendering:optimizeSpeed; stroke:white;" wurcs_mono_id="4"><circle cx="197" cy="93" r="11" style="clip-path:url(#clipPath4); stroke:none;" /><rect height="22" style="clip-path:url(#clipPath4); fill:rgb(0,144,188); stroke:none;" width="22" x="186" y="82" /><rect height="22" style="clip-path:url(#clipPath4); fill:none; stroke:black;" width="22" x="186" y="82" /><circle cx="197" cy="93" r="11" style="fill:none; stroke:black;" /></g><g ID="l-1:6,7" style="text-rendering:optimizeSpeed;"><polygon points=" 145 93 93 93" style="fill:none;" /></g><g ID="r-1:6" style="fill:white; text-rendering:optimizeSpeed; stroke:white;" wurcs_mono_id="5"><circle cx="145" cy="93" r="11" style="clip-path:url(#clipPath5); stroke:none;" /><rect height="22" style="clip-path:url(#clipPath5); fill:rgb(0,144,188); stroke:none;" width="22" x="134" y="82" /><rect height="22" style="clip-path:url(#clipPath5); fill:none; stroke:black;" width="22" x="134" y="82" /><circle cx="145" cy="93" r="11" style="fill:none; stroke:black;" /></g><g ID="l-1:7,8" style="text-rendering:optimizeSpeed;"><polygon points=" 93 93 41 93" style="fill:none;" /></g><g ID="r-1:7" style="fill:white; text-rendering:optimizeSpeed; stroke:white;" wurcs_mono_id="6"><circle cx="93" cy="93" r="11" style="clip-path:url(#clipPath6); stroke:none;" /><rect height="22" style="clip-path:url(#clipPath6); fill:rgb(0,144,188); stroke:none;" width="22" x="82" y="82" /><rect height="22" style="clip-path:url(#clipPath6); fill:none; stroke:black;" width="22" x="82" y="82" /><circle cx="93" cy="93" r="11" style="fill:none; stroke:black;" /></g><g ID="r-1:8" style="fill:white; text-rendering:optimizeSpeed; stroke:white;" wurcs_mono_id="7"><circle cx="41" cy="93" r="11" style="clip-path:url(#clipPath7); stroke:none;" /><rect height="22" style="clip-path:url(#clipPath7); fill:rgb(0,144,188); stroke:none;" width="22" x="30" y="82" /><rect height="22" style="clip-path:url(#clipPath7); fill:none; stroke:black;" width="22" x="30" y="82" /><circle cx="41" cy="93" r="11" style="fill:none; stroke:black;" /></g><g ID="li-1:7,8" style="fill:white; text-rendering:optimizeSpeed; font-family:'Serif'; stroke:white;"><rect height="9" style="stroke:none;" width="8" x="70" y="96" /><path d="M74.1875 102.0312 L74.1875 97.375 L71.2031 102.0312 L74.1875 102.0312 ZM76.7656 105 L72.7812 105 L72.7812 104.375 L74.1875 104.375 L74.1875 102.6562 L70.375 102.6562 L70.375 102.0156 L74.2031 96.0938 L75.3594 96.0938 L75.3594 102.0312 L77.0312 102.0312 L77.0312 102.6562 L75.3594 102.6562 L75.3594 104.375 L76.7656 104.375 L76.7656 105 Z" style="fill:black; stroke:none;" /><rect height="8" style="stroke:none;" width="8" x="56" y="97" /><path d="M61.1875 103.4688 L60.9531 104.1094 Q60.7656 104.625 60.2031 104.9375 Q59.8438 105.1562 59.2031 105.1406 Q58.0469 105.1406 57.3281 104.2344 Q56.5938 103.3281 56.5938 101.8594 Q56.5938 100.4219 57.3281 99.4844 Q58.0156 98.5938 59.4531 98.6094 Q60.4531 98.6094 60.9531 99 Q61.4062 99.3438 61.5781 100.0938 L61.625 100.3125 L61.8438 99.6719 Q62.0625 99.0469 62.6562 98.75 L63.25 98.75 L63.25 99.0938 Q62.6875 99.2656 62.5 99.8125 L61.8906 101.4844 L62.2969 103.2812 Q62.5 104.2031 62.7344 104.2969 Q63.0469 104.4375 63.7812 104 L63.7812 104.7188 Q62.5938 105.4062 61.75 104.6875 Q61.375 104.3594 61.2656 103.875 L61.1875 103.4688 ZM60.9219 102.3125 L60.5625 100.5938 Q60.2656 99.2188 59.4688 99.2188 Q58.7969 99.2031 58.2812 99.9375 Q57.8594 100.5156 57.8594 101.875 Q57.8594 103.1719 58.2812 103.8281 Q58.75 104.5469 59.5312 104.5 Q60.2031 104.4375 60.6875 103 L60.9219 102.3125 Z" style="fill:black; stroke:none;" /></g><g ID="li-1:6,7" style="fill:white; text-rendering:optimizeSpeed; font-family:'Serif'; stroke:white;"><rect height="9" style="stroke:none;" width="8" x="122" y="96" /><path d="M126.1875 102.0312 L126.1875 97.375 L123.2031 102.0312 L126.1875 102.0312 ZM128.7656 105 L124.7812 105 L124.7812 104.375 L126.1875 104.375 L126.1875 102.6562 L122.375 102.6562 L122.375 102.0156 L126.2031 96.0938 L127.3594 96.0938 L127.3594 102.0312 L129.0312 102.0312 L129.0312 102.6562 L127.3594 102.6562 L127.3594 104.375 L128.7656 104.375 L128.7656 105 Z" style="fill:black; stroke:none;" /><rect height="8" style="stroke:none;" width="8" x="108" y="97" /><path d="M113.1875 103.4688 L112.9531 104.1094 Q112.7656 104.625 112.2031 104.9375 Q111.8438 105.1562 111.2031 105.1406 Q110.0469 105.1406 109.3281 104.2344 Q108.5938 103.3281 108.5938 101.8594 Q108.5938 100.4219 109.3281 99.4844 Q110.0156 98.5938 111.4531 98.6094 Q112.4531 98.6094 112.9531 99 Q113.4062 99.3438 113.5781 100.0938 L113.625 100.3125 L113.8438 99.6719 Q114.0625 99.0469 114.6562 98.75 L115.25 98.75 L115.25 99.0938 Q114.6875 99.2656 114.5 99.8125 L113.8906 101.4844 L114.2969 103.2812 Q114.5 104.2031 114.7344 104.2969 Q115.0469 104.4375 115.7812 104 L115.7812 104.7188 Q114.5938 105.4062 113.75 104.6875 Q113.375 104.3594 113.2656 103.875 L113.1875 103.4688 ZM112.9219 102.3125 L112.5625 100.5938 Q112.2656 99.2188 111.4688 99.2188 Q110.7969 99.2031 110.2812 99.9375 Q109.8594 100.5156 109.8594 101.875 Q109.8594 103.1719 110.2812 103.8281 Q110.75 104.5469 111.5312 104.5 Q112.2031 104.4375 112.6875 103 L112.9219 102.3125 Z" style="fill:black; stroke:none;" /></g><g ID="li-1:5,6" style="fill:white; text-rendering:optimizeSpeed; font-family:'Serif'; stroke:white;"><rect height="9" style="stroke:none;" width="8" x="174" y="96" /><path d="M178.1875 102.0312 L178.1875 97.375 L175.2031 102.0312 L178.1875 102.0312 ZM180.7656 105 L176.7812 105 L176.7812 104.375 L178.1875 104.375 L178.1875 102.6562 L174.375 102.6562 L174.375 102.0156 L178.2031 96.0938 L179.3594 96.0938 L179.3594 102.0312 L181.0312 102.0312 L181.0312 102.6562 L179.3594 102.6562 L179.3594 104.375 L180.7656 104.375 L180.7656 105 Z" style="fill:black; stroke:none;" /><rect height="8" style="stroke:none;" width="8" x="160" y="97" /><path d="M165.1875 103.4688 L164.9531 104.1094 Q164.7656 104.625 164.2031 104.9375 Q163.8438 105.1562 163.2031 105.1406 Q162.0469 105.1406 161.3281 104.2344 Q160.5938 103.3281 160.5938 101.8594 Q160.5938 100.4219 161.3281 99.4844 Q162.0156 98.5938 163.4531 98.6094 Q164.4531 98.6094 164.9531 99 Q165.4062 99.3438 165.5781 100.0938 L165.625 100.3125 L165.8438 99.6719 Q166.0625 99.0469 166.6562 98.75 L167.25 98.75 L167.25 99.0938 Q166.6875 99.2656 166.5 99.8125 L165.8906 101.4844 L166.2969 103.2812 Q166.5 104.2031 166.7344 104.2969 Q167.0469 104.4375 167.7812 104 L167.7812 104.7188 Q166.5938 105.4062 165.75 104.6875 Q165.375 104.3594 165.2656 103.875 L165.1875 103.4688 ZM164.9219 102.3125 L164.5625 100.5938 Q164.2656 99.2188 163.4688 99.2188 Q162.7969 99.2031 162.2812 99.9375 Q161.8594 100.5156 161.8594 101.875 Q161.8594 103.1719 162.2812 103.8281 Q162.75 104.5469 163.5312 104.5 Q164.2031 104.4375 164.6875 103 L164.9219 102.3125 Z" style="fill:black; stroke:none;" /></g><g ID="li-1:4,5" style="fill:white; text-rendering:optimizeSpeed; font-family:'Serif'; stroke:white;"><rect height="9" style="stroke:none;" width="8" x="226" y="96" /><path d="M230.1875 102.0312 L230.1875 97.375 L227.2031 102.0312 L230.1875 102.0312 ZM232.7656 105 L228.7812 105 L228.7812 104.375 L230.1875 104.375 L230.1875 102.6562 L226.375 102.6562 L226.375 102.0156 L230.2031 96.0938 L231.3594 96.0938 L231.3594 102.0312 L233.0312 102.0312 L233.0312 102.6562 L231.3594 102.6562 L231.3594 104.375 L232.7656 104.375 L232.7656 105 Z" style="fill:black; stroke:none;" /><rect height="8" style="stroke:none;" width="8" x="212" y="97" /><path d="M217.1875 103.4688 L216.9531 104.1094 Q216.7656 104.625 216.2031 104.9375 Q215.8438 105.1562 215.2031 105.1406 Q214.0469 105.1406 213.3281 104.2344 Q212.5938 103.3281 212.5938 101.8594 Q212.5938 100.4219 213.3281 99.4844 Q214.0156 98.5938 215.4531 98.6094 Q216.4531 98.6094 216.9531 99 Q217.4062 99.3438 217.5781 100.0938 L217.625 100.3125 L217.8438 99.6719 Q218.0625 99.0469 218.6562 98.75 L219.25 98.75 L219.25 99.0938 Q218.6875 99.2656 218.5 99.8125 L217.8906 101.4844 L218.2969 103.2812 Q218.5 104.2031 218.7344 104.2969 Q219.0469 104.4375 219.7812 104 L219.7812 104.7188 Q218.5938 105.4062 217.75 104.6875 Q217.375 104.3594 217.2656 103.875 L217.1875 103.4688 ZM216.9219 102.3125 L216.5625 100.5938 Q216.2656 99.2188 215.4688 99.2188 Q214.7969 99.2031 214.2812 99.9375 Q213.8594 100.5156 213.8594 101.875 Q213.8594 103.1719 214.2812 103.8281 Q214.75 104.5469 215.5312 104.5 Q216.2031 104.4375 216.6875 103 L216.9219 102.3125 Z" style="fill:black; stroke:none;" /></g><g ID="li-1:2,4" style="fill:white; text-rendering:optimizeSpeed; font-family:'Serif'; stroke:white;"><rect height="9" style="stroke:none;" width="8" x="278" y="96" /><path d="M282.1875 102.0312 L282.1875 97.375 L279.2031 102.0312 L282.1875 102.0312 ZM284.7656 105 L280.7812 105 L280.7812 104.375 L282.1875 104.375 L282.1875 102.6562 L278.375 102.6562 L278.375 102.0156 L282.2031 96.0938 L283.3594 96.0938 L283.3594 102.0312 L285.0312 102.0312 L285.0312 102.6562 L283.3594 102.6562 L283.3594 104.375 L284.7656 104.375 L284.7656 105 Z" style="fill:black; stroke:none;" /><rect height="8" style="stroke:none;" width="8" x="264" y="97" /><path d="M269.1875 103.4688 L268.9531 104.1094 Q268.7656 104.625 268.2031 104.9375 Q267.8438 105.1562 267.2031 105.1406 Q266.0469 105.1406 265.3281 104.2344 Q264.5938 103.3281 264.5938 101.8594 Q264.5938 100.4219 265.3281 99.4844 Q266.0156 98.5938 267.4531 98.6094 Q268.4531 98.6094 268.9531 99 Q269.4062 99.3438 269.5781 100.0938 L269.625 100.3125 L269.8438 99.6719 Q270.0625 99.0469 270.6562 98.75 L271.25 98.75 L271.25 99.0938 Q270.6875 99.2656 270.5 99.8125 L269.8906 101.4844 L270.2969 103.2812 Q270.5 104.2031 270.7344 104.2969 Q271.0469 104.4375 271.7812 104 L271.7812 104.7188 Q270.5938 105.4062 269.75 104.6875 Q269.375 104.3594 269.2656 103.875 L269.1875 103.4688 ZM268.9219 102.3125 L268.5625 100.5938 Q268.2656 99.2188 267.4688 99.2188 Q266.7969 99.2031 266.2812 99.9375 Q265.8594 100.5156 265.8594 101.875 Q265.8594 103.1719 266.2812 103.8281 Q266.75 104.5469 267.5312 104.5 Q268.2031 104.4375 268.6875 103 L268.9219 102.3125 Z" style="fill:black; stroke:none;" /></g><g ID="r-1:3" style="fill:white; text-rendering:optimizeSpeed; stroke:white;" wurcs_mono_id="8"><circle cx="301" cy="41" r="11" style="clip-path:url(#clipPath8); stroke:none;" /><rect height="22" style="clip-path:url(#clipPath8); fill:rgb(0,144,188); stroke:none;" width="22" x="290" y="30" /><rect height="22" style="clip-path:url(#clipPath8); fill:none; stroke:black;" width="22" x="290" y="30" /><circle cx="301" cy="41" r="11" style="fill:none; stroke:black;" /></g><g ID="li-1:1,2" style="fill:white; text-rendering:optimizeSpeed; font-family:'Serif'; stroke:white;"><rect height="9" style="stroke:none;" width="8" x="334" y="78" /><path d="M338.1875 84.0312 L338.1875 79.375 L335.2031 84.0312 L338.1875 84.0312 ZM340.7656 87 L336.7812 87 L336.7812 86.375 L338.1875 86.375 L338.1875 84.6562 L334.375 84.6562 L334.375 84.0156 L338.2031 78.0938 L339.3594 78.0938 L339.3594 84.0312 L341.0312 84.0312 L341.0312 84.6562 L339.3594 84.6562 L339.3594 86.375 L340.7656 86.375 L340.7656 87 Z" style="fill:black; stroke:none;" /><rect height="8" style="stroke:none;" width="8" x="318" y="87" /><path d="M323.1875 93.4688 L322.9531 94.1094 Q322.7656 94.625 322.2031 94.9375 Q321.8438 95.1562 321.2031 95.1406 Q320.0469 95.1406 319.3281 94.2344 Q318.5938 93.3281 318.5938 91.8594 Q318.5938 90.4219 319.3281 89.4844 Q320.0156 88.5938 321.4531 88.6094 Q322.4531 88.6094 322.9531 89 Q323.4062 89.3438 323.5781 90.0938 L323.625 90.3125 L323.8438 89.6719 Q324.0625 89.0469 324.6562 88.75 L325.25 88.75 L325.25 89.0938 Q324.6875 89.2656 324.5 89.8125 L323.8906 91.4844 L324.2969 93.2812 Q324.5 94.2031 324.7344 94.2969 Q325.0469 94.4375 325.7812 94 L325.7812 94.7188 Q324.5938 95.4062 323.75 94.6875 Q323.375 94.3594 323.2656 93.875 L323.1875 93.4688 ZM322.9219 92.3125 L322.5625 90.5938 Q322.2656 89.2188 321.4688 89.2188 Q320.7969 89.2031 320.2812 89.9375 Q319.8594 90.5156 319.8594 91.875 Q319.8594 93.1719 320.2812 93.8281 Q320.75 94.5469 321.5312 94.5 Q322.2031 94.4375 322.6875 93 L322.9219 92.3125 Z" style="fill:black; stroke:none;" /></g><g ID="li-1:1,3" style="fill:white; text-rendering:optimizeSpeed; font-family:'Serif'; stroke:white;"><rect height="10" style="stroke:none;" width="7" x="327" y="60" /><path d="M330.9219 69.5938 Q331.75 69.5938 332.1953 68.9844 Q332.6406 68.375 332.6406 67.2344 Q332.6406 66.1094 332.1953 65.5 Q331.75 64.8906 330.9219 64.8906 Q330.0938 64.8906 329.6484 65.4766 Q329.2031 66.0625 329.2031 67.1719 Q329.2031 68.3281 329.6484 68.9609 Q330.0938 69.5938 330.9219 69.5938 ZM329.0156 65.1875 Q329.4219 64.75 329.9219 64.5312 Q330.4219 64.3125 331.0625 64.3125 Q332.3594 64.3125 333.1172 65.0938 Q333.875 65.875 333.875 67.2344 Q333.875 68.5625 333.0625 69.3672 Q332.25 70.1719 330.875 70.1719 Q329.3906 70.1719 328.5938 69.0625 Q327.7969 67.9531 327.7969 65.9062 Q327.7969 63.6094 328.7422 62.3516 Q329.6875 61.0938 331.4062 61.0938 Q331.875 61.0938 332.3828 61.1797 Q332.8906 61.2656 333.4219 61.4375 L333.4219 62.8906 L332.7656 62.8906 Q332.6875 62.2969 332.3047 61.9844 Q331.9219 61.6719 331.2812 61.6719 Q330.1406 61.6719 329.5859 62.5312 Q329.0312 63.3906 329.0156 65.1875 Z" style="fill:black; stroke:none;" /><rect height="8" style="stroke:none;" width="8" x="311" y="53" /><path d="M316.1875 59.4688 L315.9531 60.1094 Q315.7656 60.625 315.2031 60.9375 Q314.8438 61.1562 314.2031 61.1406 Q313.0469 61.1406 312.3281 60.2344 Q311.5938 59.3281 311.5938 57.8594 Q311.5938 56.4219 312.3281 55.4844 Q313.0156 54.5938 314.4531 54.6094 Q315.4531 54.6094 315.9531 55 Q316.4062 55.3438 316.5781 56.0938 L316.625 56.3125 L316.8438 55.6719 Q317.0625 55.0469 317.6562 54.75 L318.25 54.75 L318.25 55.0938 Q317.6875 55.2656 317.5 55.8125 L316.8906 57.4844 L317.2969 59.2812 Q317.5 60.2031 317.7344 60.2969 Q318.0469 60.4375 318.7812 60 L318.7812 60.7188 Q317.5938 61.4062 316.75 60.6875 Q316.375 60.3594 316.2656 59.875 L316.1875 59.4688 ZM315.9219 58.3125 L315.5625 56.5938 Q315.2656 55.2188 314.4688 55.2188 Q313.7969 55.2031 313.2812 55.9375 Q312.8594 56.5156 312.8594 57.875 Q312.8594 59.1719 313.2812 59.8281 Q313.75 60.5469 314.5312 60.5 Q315.2031 60.4375 315.6875 59 L315.9219 58.3125 Z" style="fill:black; stroke:none;" /></g></g></svg>