<svg xmlns="http://www.w3.org/2000/svg" style="fill-opacity:1; color-rendering:auto; color-interpolation:auto; text-rendering:auto; stroke:black; stroke-linecap:square; stroke-miterlimit:10; shape-rendering:auto; stroke-opacity:1; fill:black; stroke-dasharray:none; font-weight:normal; stroke-width:1; font-family:'Dialog'; font-style:normal; stroke-linejoin:miter; font-size:12px; stroke-dashoffset:0; image-rendering:auto;"><defs id="genericDefs" /><g><defs id="defs1"><clipPath clipPathUnits="userSpaceOnUse" id="clipPath1"><path d="M312 119 C312 125.0751 307.0751 130 301 130 C294.9249 130 290 125.0751 290 119 C290 112.9249 294.9249 108 301 108 C307.0751 108 312 112.9249 312 119 Z" /></clipPath><clipPath clipPathUnits="userSpaceOnUse" id="clipPath2"><path d="M260 119 C260 125.0751 255.0751 130 249 130 C242.9249 130 238 125.0751 238 119 C238 112.9249 242.9249 108 249 108 C255.0751 108 260 112.9249 260 119 Z" /></clipPath><clipPath clipPathUnits="userSpaceOnUse" id="clipPath3"><path d="M186 134 L208 134 L208 156 L186 156 L186 134 Z" /></clipPath><clipPath clipPathUnits="userSpaceOnUse" id="clipPath4"><path d="M156 145 C156 151.0751 151.0751 156 145 156 C138.9249 156 134 151.0751 134 145 C134 138.9249 138.9249 134 145 134 C151.0751 134 156 138.9249 156 145 Z" /></clipPath><clipPath clipPathUnits="userSpaceOnUse" id="clipPath5"><path d="M186 82 L208 82 L208 104 L186 104 L186 82 Z" /></clipPath><clipPath clipPathUnits="userSpaceOnUse" id="clipPath6"><path d="M156 93 C156 99.0751 151.0751 104 145 104 C138.9249 104 134 99.0751 134 93 C134 86.9249 138.9249 82 145 82 C151.0751 82 156 86.9249 156 93 Z" /></clipPath><clipPath clipPathUnits="userSpaceOnUse" id="clipPath7"><path d="M82 134 L104 134 L104 156 L82 156 L82 134 Z" /></clipPath><clipPath clipPathUnits="userSpaceOnUse" id="clipPath8"><path d="M52 145 C52 151.0751 47.0751 156 41 156 C34.9249 156 30 151.0751 30 145 C30 138.9249 34.9249 134 41 134 C47.0751 134 52 138.9249 52 145 Z" /></clipPath><clipPath clipPathUnits="userSpaceOnUse" id="clipPath9"><path d="M82 30 L104 30 L104 52 L82 52 L82 30 Z" /></clipPath><clipPath clipPathUnits="userSpaceOnUse" id="clipPath10"><path d="M93 82 L104 104 L82 104 Z" style="fill-rule:evenodd;" /></clipPath><clipPath clipPathUnits="userSpaceOnUse" id="clipPath11"><path d="M52 41 C52 47.0751 47.0751 52 41 52 C34.9249 52 30 47.0751 30 41 C30 34.9249 34.9249 30 41 30 C47.0751 30 52 34.9249 52 41 Z" /></clipPath></defs><g style="fill:white; text-rendering:optimizeSpeed; stroke:white;"><rect height="186" style="stroke:none;" width="342" x="0" y="0" /></g><g ID="l-1:1,2" style="text-rendering:optimizeSpeed;"><polygon points=" 301 119 249 119" style="fill:none;" /></g><g ID="r-1:1" style="fill:white; text-rendering:optimizeSpeed; stroke:white;" wurcs_mono_id="1"><circle cx="301" cy="119" r="11" style="clip-path:url(#clipPath1); stroke:none;" /><rect height="22" style="clip-path:url(#clipPath1); fill:rgb(0,144,188); stroke:none;" width="22" x="290" y="108" /><rect height="22" style="clip-path:url(#clipPath1); fill:none; stroke:black;" width="22" x="290" y="108" /><circle cx="301" cy="119" r="11" style="fill:none; stroke:black;" /></g><g ID="l-1:2,3" style="text-rendering:optimizeSpeed;"><polygon points=" 249 119 197 145" style="fill:none;" /></g><g ID="l-1:2,4" style="text-rendering:optimizeSpeed;"><polygon points=" 249 119 197 93" style="fill:none;" /></g><g ID="r-1:2" style="fill:white; text-rendering:optimizeSpeed; stroke:white;" wurcs_mono_id="2"><circle cx="249" cy="119" r="11" style="clip-path:url(#clipPath2); stroke:none;" /><rect height="22" style="clip-path:url(#clipPath2); fill:rgb(255,212,0); stroke:none;" width="22" x="238" y="108" /><rect height="22" style="clip-path:url(#clipPath2); fill:none; stroke:black;" width="22" x="238" y="108" /><circle cx="249" cy="119" r="11" style="fill:none; stroke:black;" /></g><g ID="l-1:3,5" style="text-rendering:optimizeSpeed;"><polygon points=" 197 145 145 145" style="fill:none;" /></g><g ID="r-1:3" style="fill:white; text-rendering:optimizeSpeed; stroke:white;" wurcs_mono_id="3"><rect height="22" style="clip-path:url(#clipPath3); stroke:none;" width="22" x="186" y="134" /><rect height="22" style="clip-path:url(#clipPath3); fill:rgb(0,144,188); stroke:none;" width="22" x="186" y="134" /><rect height="22" style="clip-path:url(#clipPath3); fill:none; stroke:black;" width="22" x="186" y="134" /><rect height="22" style="fill:none; stroke:black;" width="22" x="186" y="134" /></g><g ID="r-1:5" style="fill:white; text-rendering:optimizeSpeed; stroke:white;" wurcs_mono_id="4"><circle cx="145" cy="145" r="11" style="clip-path:url(#clipPath4); stroke:none;" /><rect height="22" style="clip-path:url(#clipPath4); fill:rgb(255,212,0); stroke:none;" width="22" x="134" y="134" /><rect height="22" style="clip-path:url(#clipPath4); fill:none; stroke:black;" width="22" x="134" y="134" /><circle cx="145" cy="145" r="11" style="fill:none; stroke:black;" /></g><g ID="li-1:3,5" style="fill:white; text-rendering:optimizeSpeed; font-family:'Serif'; stroke:white;"><rect height="10" style="stroke:none;" width="7" x="174" y="148" /><path d="M175.1719 149.625 Q175.8594 149.3594 176.4844 149.2266 Q177.1094 149.0938 177.6562 149.0938 Q178.9531 149.0938 179.6719 149.6484 Q180.3906 150.2031 180.3906 151.1875 Q180.3906 151.9688 179.8906 152.5 Q179.3906 153.0312 178.4844 153.2188 Q179.5625 153.375 180.1562 154.0078 Q180.75 154.6406 180.75 155.6406 Q180.75 156.8594 179.9219 157.5156 Q179.0938 158.1719 177.5469 158.1719 Q176.8594 158.1719 176.2109 158.0234 Q175.5625 157.875 174.9219 157.5781 L174.9219 155.875 L175.5781 155.875 Q175.625 156.7188 176.1406 157.1562 Q176.6562 157.5938 177.5781 157.5938 Q178.4688 157.5938 178.9922 157.0703 Q179.5156 156.5469 179.5156 155.6562 Q179.5156 154.625 178.9766 154.0938 Q178.4375 153.5625 177.4062 153.5625 L176.8594 153.5625 L176.8594 152.9531 L177.1406 152.9531 Q178.1719 152.9531 178.6875 152.5312 Q179.2031 152.1094 179.2031 151.25 Q179.2031 150.4844 178.7812 150.0781 Q178.3594 149.6719 177.5625 149.6719 Q176.7656 149.6719 176.3359 150.0469 Q175.9062 150.4219 175.8281 151.1562 L175.1719 151.1562 L175.1719 149.625 Z" style="fill:black; stroke:none;" /><rect height="13" style="stroke:none;" width="7" x="160" y="146" /><path d="M161.8281 158.25 Q162.2969 158.5938 163.1719 158.5938 Q164.0625 158.5938 164.5781 158.0703 Q165.0938 157.5469 165.0938 156.6562 Q165.0938 155.4219 164.5625 154.8906 Q164.0156 154.3594 163 154.3594 L162.4375 154.3594 L162.4375 153.7188 L162.7344 153.7188 Q163.4844 153.7188 164 153.2969 Q164.4219 152.9531 164.4219 152.0156 Q164.4219 151.6094 164.1406 151.1406 Q163.6875 150.375 163.1562 150.3906 Q161.8281 150.4375 161.8281 152.7812 L161.8281 158.25 ZM160.75 161.5 L160.75 152.7812 Q160.75 150.3281 162.0781 150 Q162.7656 149.8125 163.25 149.8125 Q164.3438 149.8125 165.0469 150.6719 Q165.6094 151.3594 165.6094 151.9375 Q165.6094 152.7812 165.2031 153.2656 Q164.7969 153.75 164.0625 153.9844 Q165.1406 154.1406 165.75 154.7812 Q166.3281 155.4062 166.3281 156.6328 Q166.3281 157.8594 165.5078 158.5156 Q164.6875 159.1719 163.1406 159.1719 Q162.1875 159.1719 161.8281 159.0312 L161.8281 161.5 L160.75 161.5 Z" style="fill:black; stroke:none;" /></g><g ID="l-1:4,6" style="text-rendering:optimizeSpeed;"><polygon points=" 197 93 145 93" style="fill:none;" /></g><g ID="r-1:4" style="fill:white; text-rendering:optimizeSpeed; stroke:white;" wurcs_mono_id="5"><rect height="22" style="clip-path:url(#clipPath5); stroke:none;" width="22" x="186" y="82" /><rect height="22" style="clip-path:url(#clipPath5); fill:rgb(0,144,188); stroke:none;" width="22" x="186" y="82" /><rect height="22" style="clip-path:url(#clipPath5); fill:none; stroke:black;" width="22" x="186" y="82" /><rect height="22" style="fill:none; stroke:black;" width="22" x="186" y="82" /></g><g ID="l-1:6,7" style="text-rendering:optimizeSpeed;"><polygon points=" 145 93 93 145" style="fill:none;" /></g><g ID="l-1:6,8" style="text-rendering:optimizeSpeed;"><polygon points=" 145 93 93 41" style="fill:none;" /></g><g ID="r-1:6" style="fill:white; text-rendering:optimizeSpeed; stroke:white;" wurcs_mono_id="6"><circle cx="145" cy="93" r="11" style="clip-path:url(#clipPath6); stroke:none;" /><rect height="22" style="clip-path:url(#clipPath6); fill:rgb(255,212,0); stroke:none;" width="22" x="134" y="82" /><rect height="22" style="clip-path:url(#clipPath6); fill:none; stroke:black;" width="22" x="134" y="82" /><circle cx="145" cy="93" r="11" style="fill:none; stroke:black;" /></g><g ID="l-1:7,9" style="text-rendering:optimizeSpeed;"><polygon points=" 93 145 41 145" style="fill:none;" /></g><g ID="r-1:7" style="fill:white; text-rendering:optimizeSpeed; stroke:white;" wurcs_mono_id="7"><rect height="22" style="clip-path:url(#clipPath7); stroke:none;" width="22" x="82" y="134" /><rect height="22" style="clip-path:url(#clipPath7); fill:rgb(0,144,188); stroke:none;" width="22" x="82" y="134" /><rect height="22" style="clip-path:url(#clipPath7); fill:none; stroke:black;" width="22" x="82" y="134" /><rect height="22" style="fill:none; stroke:black;" width="22" x="82" y="134" /></g><g ID="r-1:9" style="fill:white; text-rendering:optimizeSpeed; stroke:white;" wurcs_mono_id="8"><circle cx="41" cy="145" r="11" style="clip-path:url(#clipPath8); stroke:none;" /><rect height="22" style="clip-path:url(#clipPath8); fill:rgb(255,212,0); stroke:none;" width="22" x="30" y="134" /><rect height="22" style="clip-path:url(#clipPath8); fill:none; stroke:black;" width="22" x="30" y="134" /><circle cx="41" cy="145" r="11" style="fill:none; stroke:black;" /></g><g ID="li-1:7,9" style="fill:white; text-rendering:optimizeSpeed; font-family:'Serif'; stroke:white;"><rect height="10" style="stroke:none;" width="7" x="70" y="148" /><path d="M71.1719 149.625 Q71.8594 149.3594 72.4844 149.2266 Q73.1094 149.0938 73.6562 149.0938 Q74.9531 149.0938 75.6719 149.6484 Q76.3906 150.2031 76.3906 151.1875 Q76.3906 151.9688 75.8906 152.5 Q75.3906 153.0312 74.4844 153.2188 Q75.5625 153.375 76.1562 154.0078 Q76.75 154.6406 76.75 155.6406 Q76.75 156.8594 75.9219 157.5156 Q75.0938 158.1719 73.5469 158.1719 Q72.8594 158.1719 72.2109 158.0234 Q71.5625 157.875 70.9219 157.5781 L70.9219 155.875 L71.5781 155.875 Q71.625 156.7188 72.1406 157.1562 Q72.6562 157.5938 73.5781 157.5938 Q74.4688 157.5938 74.9922 157.0703 Q75.5156 156.5469 75.5156 155.6562 Q75.5156 154.625 74.9766 154.0938 Q74.4375 153.5625 73.4062 153.5625 L72.8594 153.5625 L72.8594 152.9531 L73.1406 152.9531 Q74.1719 152.9531 74.6875 152.5312 Q75.2031 152.1094 75.2031 151.25 Q75.2031 150.4844 74.7812 150.0781 Q74.3594 149.6719 73.5625 149.6719 Q72.7656 149.6719 72.3359 150.0469 Q71.9062 150.4219 71.8281 151.1562 L71.1719 151.1562 L71.1719 149.625 Z" style="fill:black; stroke:none;" /><rect height="13" style="stroke:none;" width="7" x="56" y="146" /><path d="M57.8281 158.25 Q58.2969 158.5938 59.1719 158.5938 Q60.0625 158.5938 60.5781 158.0703 Q61.0938 157.5469 61.0938 156.6562 Q61.0938 155.4219 60.5625 154.8906 Q60.0156 154.3594 59 154.3594 L58.4375 154.3594 L58.4375 153.7188 L58.7344 153.7188 Q59.4844 153.7188 60 153.2969 Q60.4219 152.9531 60.4219 152.0156 Q60.4219 151.6094 60.1406 151.1406 Q59.6875 150.375 59.1562 150.3906 Q57.8281 150.4375 57.8281 152.7812 L57.8281 158.25 ZM56.75 161.5 L56.75 152.7812 Q56.75 150.3281 58.0781 150 Q58.7656 149.8125 59.25 149.8125 Q60.3438 149.8125 61.0469 150.6719 Q61.6094 151.3594 61.6094 151.9375 Q61.6094 152.7812 61.2031 153.2656 Q60.7969 153.75 60.0625 153.9844 Q61.1406 154.1406 61.75 154.7812 Q62.3281 155.4062 62.3281 156.6328 Q62.3281 157.8594 61.5078 158.5156 Q60.6875 159.1719 59.1406 159.1719 Q58.1875 159.1719 57.8281 159.0312 L57.8281 161.5 L56.75 161.5 Z" style="fill:black; stroke:none;" /></g><g ID="l-1:8,10" style="text-rendering:optimizeSpeed;"><polygon points=" 93 41 93 93" style="fill:none;" /></g><g ID="l-1:8,11" style="text-rendering:optimizeSpeed;"><polygon points=" 93 41 41 41" style="fill:none;" /></g><g ID="r-1:8" style="fill:white; text-rendering:optimizeSpeed; stroke:white;" wurcs_mono_id="9"><rect height="22" style="clip-path:url(#clipPath9); stroke:none;" width="22" x="82" y="30" /><rect height="22" style="clip-path:url(#clipPath9); fill:rgb(0,144,188); stroke:none;" width="22" x="82" y="30" /><rect height="22" style="clip-path:url(#clipPath9); fill:none; stroke:black;" width="22" x="82" y="30" /><rect height="22" style="fill:none; stroke:black;" width="22" x="82" y="30" /></g><g ID="r-1:10" style="fill:white; text-rendering:optimizeSpeed; stroke:white;" wurcs_mono_id="10"><polygon points=" 93 82 104 104 82 104" style="stroke:none; clip-path:url(#clipPath10);" /><rect height="22" style="clip-path:url(#clipPath10); fill:rgb(237,28,36); stroke:none;" width="22" x="82" y="82" /><rect height="22" style="clip-path:url(#clipPath10); fill:none; stroke:black;" width="22" x="82" y="82" /><polygon points=" 93 82 104 104 82 104" style="fill:none; stroke:black;" /></g><g ID="r-1:11" style="fill:white; text-rendering:optimizeSpeed; stroke:white;" wurcs_mono_id="11"><circle cx="41" cy="41" r="11" style="clip-path:url(#clipPath11); stroke:none;" /><rect height="22" style="clip-path:url(#clipPath11); fill:rgb(255,212,0); stroke:none;" width="22" x="30" y="30" /><rect height="22" style="clip-path:url(#clipPath11); fill:none; stroke:black;" width="22" x="30" y="30" /><circle cx="41" cy="41" r="11" style="fill:none; stroke:black;" /></g><g ID="li-1:8,10" style="fill:white; text-rendering:optimizeSpeed; font-family:'Serif'; stroke:white;"><rect height="10" style="stroke:none;" width="7" x="97" y="55" /><path d="M98.1719 56.625 Q98.8594 56.3594 99.4844 56.2266 Q100.1094 56.0938 100.6562 56.0938 Q101.9531 56.0938 102.6719 56.6484 Q103.3906 57.2031 103.3906 58.1875 Q103.3906 58.9688 102.8906 59.5 Q102.3906 60.0312 101.4844 60.2188 Q102.5625 60.375 103.1562 61.0078 Q103.75 61.6406 103.75 62.6406 Q103.75 63.8594 102.9219 64.5156 Q102.0938 65.1719 100.5469 65.1719 Q99.8594 65.1719 99.2109 65.0234 Q98.5625 64.875 97.9219 64.5781 L97.9219 62.875 L98.5781 62.875 Q98.625 63.7188 99.1406 64.1562 Q99.6562 64.5938 100.5781 64.5938 Q101.4688 64.5938 101.9922 64.0703 Q102.5156 63.5469 102.5156 62.6562 Q102.5156 61.625 101.9766 61.0938 Q101.4375 60.5625 100.4062 60.5625 L99.8594 60.5625 L99.8594 59.9531 L100.1406 59.9531 Q101.1719 59.9531 101.6875 59.5312 Q102.2031 59.1094 102.2031 58.25 Q102.2031 57.4844 101.7812 57.0781 Q101.3594 56.6719 100.5625 56.6719 Q99.7656 56.6719 99.3359 57.0469 Q98.9062 57.4219 98.8281 58.1562 L98.1719 58.1562 L98.1719 56.625 Z" style="fill:black; stroke:none;" /><rect height="8" style="stroke:none;" width="8" x="97" y="70" /><path d="M102.1875 76.4688 L101.9531 77.1094 Q101.7656 77.625 101.2031 77.9375 Q100.8438 78.1562 100.2031 78.1406 Q99.0469 78.1406 98.3281 77.2344 Q97.5938 76.3281 97.5938 74.8594 Q97.5938 73.4219 98.3281 72.4844 Q99.0156 71.5938 100.4531 71.6094 Q101.4531 71.6094 101.9531 72 Q102.4062 72.3438 102.5781 73.0938 L102.625 73.3125 L102.8438 72.6719 Q103.0625 72.0469 103.6562 71.75 L104.25 71.75 L104.25 72.0938 Q103.6875 72.2656 103.5 72.8125 L102.8906 74.4844 L103.2969 76.2812 Q103.5 77.2031 103.7344 77.2969 Q104.0469 77.4375 104.7812 77 L104.7812 77.7188 Q103.5938 78.4062 102.75 77.6875 Q102.375 77.3594 102.2656 76.875 L102.1875 76.4688 ZM101.9219 75.3125 L101.5625 73.5938 Q101.2656 72.2188 100.4688 72.2188 Q99.7969 72.2031 99.2812 72.9375 Q98.8594 73.5156 98.8594 74.875 Q98.8594 76.1719 99.2812 76.8281 Q99.75 77.5469 100.5312 77.5 Q101.2031 77.4375 101.6875 76 L101.9219 75.3125 Z" style="fill:black; stroke:none;" /></g><g ID="li-1:8,11" style="fill:white; text-rendering:optimizeSpeed; font-family:'Serif'; stroke:white;"><rect height="9" style="stroke:none;" width="8" x="70" y="44" /><path d="M74.1875 50.0312 L74.1875 45.375 L71.2031 50.0312 L74.1875 50.0312 ZM76.7656 53 L72.7812 53 L72.7812 52.375 L74.1875 52.375 L74.1875 50.6562 L70.375 50.6562 L70.375 50.0156 L74.2031 44.0938 L75.3594 44.0938 L75.3594 50.0312 L77.0312 50.0312 L77.0312 50.6562 L75.3594 50.6562 L75.3594 52.375 L76.7656 52.375 L76.7656 53 Z" style="fill:black; stroke:none;" /><rect height="13" style="stroke:none;" width="7" x="56" y="42" /><path d="M57.8281 54.25 Q58.2969 54.5938 59.1719 54.5938 Q60.0625 54.5938 60.5781 54.0703 Q61.0938 53.5469 61.0938 52.6562 Q61.0938 51.4219 60.5625 50.8906 Q60.0156 50.3594 59 50.3594 L58.4375 50.3594 L58.4375 49.7188 L58.7344 49.7188 Q59.4844 49.7188 60 49.2969 Q60.4219 48.9531 60.4219 48.0156 Q60.4219 47.6094 60.1406 47.1406 Q59.6875 46.375 59.1562 46.3906 Q57.8281 46.4375 57.8281 48.7812 L57.8281 54.25 ZM56.75 57.5 L56.75 48.7812 Q56.75 46.3281 58.0781 46 Q58.7656 45.8125 59.25 45.8125 Q60.3438 45.8125 61.0469 46.6719 Q61.6094 47.3594 61.6094 47.9375 Q61.6094 48.7812 61.2031 49.2656 Q60.7969 49.75 60.0625 49.9844 Q61.1406 50.1406 61.75 50.7812 Q62.3281 51.4062 62.3281 52.6328 Q62.3281 53.8594 61.5078 54.5156 Q60.6875 55.1719 59.1406 55.1719 Q58.1875 55.1719 57.8281 55.0312 L57.8281 57.5 L56.75 57.5 Z" style="fill:black; stroke:none;" /></g><g ID="li-1:6,7" style="fill:white; text-rendering:optimizeSpeed; font-family:'Serif'; stroke:white;"><rect height="10" style="stroke:none;" width="7" x="130" y="110" /><path d="M131.1719 111.625 Q131.8594 111.3594 132.4844 111.2266 Q133.1094 111.0938 133.6562 111.0938 Q134.9531 111.0938 135.6719 111.6484 Q136.3906 112.2031 136.3906 113.1875 Q136.3906 113.9688 135.8906 114.5 Q135.3906 115.0312 134.4844 115.2188 Q135.5625 115.375 136.1562 116.0078 Q136.75 116.6406 136.75 117.6406 Q136.75 118.8594 135.9219 119.5156 Q135.0938 120.1719 133.5469 120.1719 Q132.8594 120.1719 132.2109 120.0234 Q131.5625 119.875 130.9219 119.5781 L130.9219 117.875 L131.5781 117.875 Q131.625 118.7188 132.1406 119.1562 Q132.6562 119.5938 133.5781 119.5938 Q134.4688 119.5938 134.9922 119.0703 Q135.5156 118.5469 135.5156 117.6562 Q135.5156 116.625 134.9766 116.0938 Q134.4375 115.5625 133.4062 115.5625 L132.8594 115.5625 L132.8594 114.9531 L133.1406 114.9531 Q134.1719 114.9531 134.6875 114.5312 Q135.2031 114.1094 135.2031 113.25 Q135.2031 112.4844 134.7812 112.0781 Q134.3594 111.6719 133.5625 111.6719 Q132.7656 111.6719 132.3359 112.0469 Q131.9062 112.4219 131.8281 113.1562 L131.1719 113.1562 L131.1719 111.625 Z" style="fill:black; stroke:none;" /><rect height="13" style="stroke:none;" width="7" x="111" y="127" /><path d="M112.8281 139.25 Q113.2969 139.5938 114.1719 139.5938 Q115.0625 139.5938 115.5781 139.0703 Q116.0938 138.5469 116.0938 137.6562 Q116.0938 136.4219 115.5625 135.8906 Q115.0156 135.3594 114 135.3594 L113.4375 135.3594 L113.4375 134.7188 L113.7344 134.7188 Q114.4844 134.7188 115 134.2969 Q115.4219 133.9531 115.4219 133.0156 Q115.4219 132.6094 115.1406 132.1406 Q114.6875 131.375 114.1562 131.3906 Q112.8281 131.4375 112.8281 133.7812 L112.8281 139.25 ZM111.75 142.5 L111.75 133.7812 Q111.75 131.3281 113.0781 131 Q113.7656 130.8125 114.25 130.8125 Q115.3438 130.8125 116.0469 131.6719 Q116.6094 132.3594 116.6094 132.9375 Q116.6094 133.7812 116.2031 134.2656 Q115.7969 134.75 115.0625 134.9844 Q116.1406 135.1406 116.75 135.7812 Q117.3281 136.4062 117.3281 137.6328 Q117.3281 138.8594 116.5078 139.5156 Q115.6875 140.1719 114.1406 140.1719 Q113.1875 140.1719 112.8281 140.0312 L112.8281 142.5 L111.75 142.5 Z" style="fill:black; stroke:none;" /></g><g ID="li-1:6,8" style="fill:white; text-rendering:optimizeSpeed; font-family:'Serif'; stroke:white;"><rect height="10" style="stroke:none;" width="7" x="119" y="77" /><path d="M122.9219 86.5938 Q123.75 86.5938 124.1953 85.9844 Q124.6406 85.375 124.6406 84.2344 Q124.6406 83.1094 124.1953 82.5 Q123.75 81.8906 122.9219 81.8906 Q122.0938 81.8906 121.6484 82.4766 Q121.2031 83.0625 121.2031 84.1719 Q121.2031 85.3281 121.6484 85.9609 Q122.0938 86.5938 122.9219 86.5938 ZM121.0156 82.1875 Q121.4219 81.75 121.9219 81.5312 Q122.4219 81.3125 123.0625 81.3125 Q124.3594 81.3125 125.1172 82.0938 Q125.875 82.875 125.875 84.2344 Q125.875 85.5625 125.0625 86.3672 Q124.25 87.1719 122.875 87.1719 Q121.3906 87.1719 120.5938 86.0625 Q119.7969 84.9531 119.7969 82.9062 Q119.7969 80.6094 120.7422 79.3516 Q121.6875 78.0938 123.4062 78.0938 Q123.875 78.0938 124.3828 78.1797 Q124.8906 78.2656 125.4219 78.4375 L125.4219 79.8906 L124.7656 79.8906 Q124.6875 79.2969 124.3047 78.9844 Q123.9219 78.6719 123.2812 78.6719 Q122.1406 78.6719 121.5859 79.5312 Q121.0312 80.3906 121.0156 82.1875 Z" style="fill:black; stroke:none;" /><rect height="13" style="stroke:none;" width="7" x="100" y="56" /><path d="M101.8281 68.25 Q102.2969 68.5938 103.1719 68.5938 Q104.0625 68.5938 104.5781 68.0703 Q105.0938 67.5469 105.0938 66.6562 Q105.0938 65.4219 104.5625 64.8906 Q104.0156 64.3594 103 64.3594 L102.4375 64.3594 L102.4375 63.7188 L102.7344 63.7188 Q103.4844 63.7188 104 63.2969 Q104.4219 62.9531 104.4219 62.0156 Q104.4219 61.6094 104.1406 61.1406 Q103.6875 60.375 103.1562 60.3906 Q101.8281 60.4375 101.8281 62.7812 L101.8281 68.25 ZM100.75 71.5 L100.75 62.7812 Q100.75 60.3281 102.0781 60 Q102.7656 59.8125 103.25 59.8125 Q104.3438 59.8125 105.0469 60.6719 Q105.6094 61.3594 105.6094 61.9375 Q105.6094 62.7812 105.2031 63.2656 Q104.7969 63.75 104.0625 63.9844 Q105.1406 64.1406 105.75 64.7812 Q106.3281 65.4062 106.3281 66.6328 Q106.3281 67.8594 105.5078 68.5156 Q104.6875 69.1719 103.1406 69.1719 Q102.1875 69.1719 101.8281 69.0312 L101.8281 71.5 L100.75 71.5 Z" style="fill:black; stroke:none;" /></g><g ID="li-1:4,6" style="fill:white; text-rendering:optimizeSpeed; font-family:'Serif'; stroke:white;"><rect height="9" style="stroke:none;" width="8" x="174" y="96" /><path d="M178.1875 102.0312 L178.1875 97.375 L175.2031 102.0312 L178.1875 102.0312 ZM180.7656 105 L176.7812 105 L176.7812 104.375 L178.1875 104.375 L178.1875 102.6562 L174.375 102.6562 L174.375 102.0156 L178.2031 96.0938 L179.3594 96.0938 L179.3594 102.0312 L181.0312 102.0312 L181.0312 102.6562 L179.3594 102.6562 L179.3594 104.375 L180.7656 104.375 L180.7656 105 Z" style="fill:black; stroke:none;" /><rect height="13" style="stroke:none;" width="7" x="160" y="94" /><path d="M161.8281 106.25 Q162.2969 106.5938 163.1719 106.5938 Q164.0625 106.5938 164.5781 106.0703 Q165.0938 105.5469 165.0938 104.6562 Q165.0938 103.4219 164.5625 102.8906 Q164.0156 102.3594 163 102.3594 L162.4375 102.3594 L162.4375 101.7188 L162.7344 101.7188 Q163.4844 101.7188 164 101.2969 Q164.4219 100.9531 164.4219 100.0156 Q164.4219 99.6094 164.1406 99.1406 Q163.6875 98.375 163.1562 98.3906 Q161.8281 98.4375 161.8281 100.7812 L161.8281 106.25 ZM160.75 109.5 L160.75 100.7812 Q160.75 98.3281 162.0781 98 Q162.7656 97.8125 163.25 97.8125 Q164.3438 97.8125 165.0469 98.6719 Q165.6094 99.3594 165.6094 99.9375 Q165.6094 100.7812 165.2031 101.2656 Q164.7969 101.75 164.0625 101.9844 Q165.1406 102.1406 165.75 102.7812 Q166.3281 103.4062 166.3281 104.6328 Q166.3281 105.8594 165.5078 106.5156 Q164.6875 107.1719 163.1406 107.1719 Q162.1875 107.1719 161.8281 107.0312 L161.8281 109.5 L160.75 109.5 Z" style="fill:black; stroke:none;" /></g><g ID="li-1:2,3" style="fill:white; text-rendering:optimizeSpeed; font-family:'Serif'; stroke:white;"><rect height="10" style="stroke:none;" width="7" x="230" y="130" /><path d="M231.1719 131.625 Q231.8594 131.3594 232.4844 131.2266 Q233.1094 131.0938 233.6562 131.0938 Q234.9531 131.0938 235.6719 131.6484 Q236.3906 132.2031 236.3906 133.1875 Q236.3906 133.9688 235.8906 134.5 Q235.3906 135.0312 234.4844 135.2188 Q235.5625 135.375 236.1562 136.0078 Q236.75 136.6406 236.75 137.6406 Q236.75 138.8594 235.9219 139.5156 Q235.0938 140.1719 233.5469 140.1719 Q232.8594 140.1719 232.2109 140.0234 Q231.5625 139.875 230.9219 139.5781 L230.9219 137.875 L231.5781 137.875 Q231.625 138.7188 232.1406 139.1562 Q232.6562 139.5938 233.5781 139.5938 Q234.4688 139.5938 234.9922 139.0703 Q235.5156 138.5469 235.5156 137.6562 Q235.5156 136.625 234.9766 136.0938 Q234.4375 135.5625 233.4062 135.5625 L232.8594 135.5625 L232.8594 134.9531 L233.1406 134.9531 Q234.1719 134.9531 234.6875 134.5312 Q235.2031 134.1094 235.2031 133.25 Q235.2031 132.4844 234.7812 132.0781 Q234.3594 131.6719 233.5625 131.6719 Q232.7656 131.6719 232.3359 132.0469 Q231.9062 132.4219 231.8281 133.1562 L231.1719 133.1562 L231.1719 131.625 Z" style="fill:black; stroke:none;" /><rect height="13" style="stroke:none;" width="7" x="215" y="136" /><path d="M216.8281 148.25 Q217.2969 148.5938 218.1719 148.5938 Q219.0625 148.5938 219.5781 148.0703 Q220.0938 147.5469 220.0938 146.6562 Q220.0938 145.4219 219.5625 144.8906 Q219.0156 144.3594 218 144.3594 L217.4375 144.3594 L217.4375 143.7188 L217.7344 143.7188 Q218.4844 143.7188 219 143.2969 Q219.4219 142.9531 219.4219 142.0156 Q219.4219 141.6094 219.1406 141.1406 Q218.6875 140.375 218.1562 140.3906 Q216.8281 140.4375 216.8281 142.7812 L216.8281 148.25 ZM215.75 151.5 L215.75 142.7812 Q215.75 140.3281 217.0781 140 Q217.7656 139.8125 218.25 139.8125 Q219.3438 139.8125 220.0469 140.6719 Q220.6094 141.3594 220.6094 141.9375 Q220.6094 142.7812 220.2031 143.2656 Q219.7969 143.75 219.0625 143.9844 Q220.1406 144.1406 220.75 144.7812 Q221.3281 145.4062 221.3281 146.6328 Q221.3281 147.8594 220.5078 148.5156 Q219.6875 149.1719 218.1406 149.1719 Q217.1875 149.1719 216.8281 149.0312 L216.8281 151.5 L215.75 151.5 Z" style="fill:black; stroke:none;" /></g><g ID="li-1:2,4" style="fill:white; text-rendering:optimizeSpeed; font-family:'Serif'; stroke:white;"><rect height="10" style="stroke:none;" width="7" x="223" y="112" /><path d="M226.9219 121.5938 Q227.75 121.5938 228.1953 120.9844 Q228.6406 120.375 228.6406 119.2344 Q228.6406 118.1094 228.1953 117.5 Q227.75 116.8906 226.9219 116.8906 Q226.0938 116.8906 225.6484 117.4766 Q225.2031 118.0625 225.2031 119.1719 Q225.2031 120.3281 225.6484 120.9609 Q226.0938 121.5938 226.9219 121.5938 ZM225.0156 117.1875 Q225.4219 116.75 225.9219 116.5312 Q226.4219 116.3125 227.0625 116.3125 Q228.3594 116.3125 229.1172 117.0938 Q229.875 117.875 229.875 119.2344 Q229.875 120.5625 229.0625 121.3672 Q228.25 122.1719 226.875 122.1719 Q225.3906 122.1719 224.5938 121.0625 Q223.7969 119.9531 223.7969 117.9062 Q223.7969 115.6094 224.7422 114.3516 Q225.6875 113.0938 227.4062 113.0938 Q227.875 113.0938 228.3828 113.1797 Q228.8906 113.2656 229.4219 113.4375 L229.4219 114.8906 L228.7656 114.8906 Q228.6875 114.2969 228.3047 113.9844 Q227.9219 113.6719 227.2812 113.6719 Q226.1406 113.6719 225.5859 114.5312 Q225.0312 115.3906 225.0156 117.1875 Z" style="fill:black; stroke:none;" /><rect height="13" style="stroke:none;" width="7" x="208" y="102" /><path d="M209.8281 114.25 Q210.2969 114.5938 211.1719 114.5938 Q212.0625 114.5938 212.5781 114.0703 Q213.0938 113.5469 213.0938 112.6562 Q213.0938 111.4219 212.5625 110.8906 Q212.0156 110.3594 211 110.3594 L210.4375 110.3594 L210.4375 109.7188 L210.7344 109.7188 Q211.4844 109.7188 212 109.2969 Q212.4219 108.9531 212.4219 108.0156 Q212.4219 107.6094 212.1406 107.1406 Q211.6875 106.375 211.1562 106.3906 Q209.8281 106.4375 209.8281 108.7812 L209.8281 114.25 ZM208.75 117.5 L208.75 108.7812 Q208.75 106.3281 210.0781 106 Q210.7656 105.8125 211.25 105.8125 Q212.3438 105.8125 213.0469 106.6719 Q213.6094 107.3594 213.6094 107.9375 Q213.6094 108.7812 213.2031 109.2656 Q212.7969 109.75 212.0625 109.9844 Q213.1406 110.1406 213.75 110.7812 Q214.3281 111.4062 214.3281 112.6328 Q214.3281 113.8594 213.5078 114.5156 Q212.6875 115.1719 211.1406 115.1719 Q210.1875 115.1719 209.8281 115.0312 L209.8281 117.5 L208.75 117.5 Z" style="fill:black; stroke:none;" /></g><g ID="li-1:1,2" style="fill:white; text-rendering:optimizeSpeed; font-family:'Serif'; stroke:white;"><rect height="9" style="stroke:none;" width="8" x="278" y="122" /><path d="M282.1875 128.0312 L282.1875 123.375 L279.2031 128.0312 L282.1875 128.0312 ZM284.7656 131 L280.7812 131 L280.7812 130.375 L282.1875 130.375 L282.1875 128.6562 L278.375 128.6562 L278.375 128.0156 L282.2031 122.0938 L283.3594 122.0938 L283.3594 128.0312 L285.0312 128.0312 L285.0312 128.6562 L283.3594 128.6562 L283.3594 130.375 L284.7656 130.375 L284.7656 131 Z" style="fill:black; stroke:none;" /><rect height="13" style="stroke:none;" width="7" x="264" y="120" /><path d="M265.8281 132.25 Q266.2969 132.5938 267.1719 132.5938 Q268.0625 132.5938 268.5781 132.0703 Q269.0938 131.5469 269.0938 130.6562 Q269.0938 129.4219 268.5625 128.8906 Q268.0156 128.3594 267 128.3594 L266.4375 128.3594 L266.4375 127.7188 L266.7344 127.7188 Q267.4844 127.7188 268 127.2969 Q268.4219 126.9531 268.4219 126.0156 Q268.4219 125.6094 268.1406 125.1406 Q267.6875 124.375 267.1562 124.3906 Q265.8281 124.4375 265.8281 126.7812 L265.8281 132.25 ZM264.75 135.5 L264.75 126.7812 Q264.75 124.3281 266.0781 124 Q266.7656 123.8125 267.25 123.8125 Q268.3438 123.8125 269.0469 124.6719 Q269.6094 125.3594 269.6094 125.9375 Q269.6094 126.7812 269.2031 127.2656 Q268.7969 127.75 268.0625 127.9844 Q269.1406 128.1406 269.75 128.7812 Q270.3281 129.4062 270.3281 130.6328 Q270.3281 131.8594 269.5078 132.5156 Q268.6875 133.1719 267.1406 133.1719 Q266.1875 133.1719 265.8281 133.0312 L265.8281 135.5 L264.75 135.5 Z" style="fill:black; stroke:none;" /></g></g></svg>