<svg xmlns="http://www.w3.org/2000/svg" style="fill-opacity:1; color-rendering:auto; color-interpolation:auto; text-rendering:auto; stroke:black; stroke-linecap:square; stroke-miterlimit:10; shape-rendering:auto; stroke-opacity:1; fill:black; stroke-dasharray:none; font-weight:normal; stroke-width:1; font-family:'Dialog'; font-style:normal; stroke-linejoin:miter; font-size:12px; stroke-dashoffset:0; image-rendering:auto;"><defs id="genericDefs" /><g><defs id="defs1"><clipPath clipPathUnits="userSpaceOnUse" id="clipPath1"><path d="M238 82 L260 82 L260 104 L238 104 L238 82 Z" /></clipPath><clipPath clipPathUnits="userSpaceOnUse" id="clipPath2"><path d="M186 82 L208 82 L208 104 L186 104 L186 82 Z" /></clipPath><clipPath clipPathUnits="userSpaceOnUse" id="clipPath3"><path d="M156 93 C156 99.0751 151.0751 104 145 104 C138.9249 104 134 99.0751 134 93 C134 86.9249 138.9249 82 145 82 C151.0751 82 156 86.9249 156 93 Z" /></clipPath><clipPath clipPathUnits="userSpaceOnUse" id="clipPath4"><path d="M104 223 C104 229.0751 99.0751 234 93 234 C86.9249 234 82 229.0751 82 223 C82 216.9249 86.9249 212 93 212 C99.0751 212 104 216.9249 104 223 Z" /></clipPath><clipPath clipPathUnits="userSpaceOnUse" id="clipPath5"><path d="M30 264 L52 264 L52 286 L30 286 L30 264 Z" /></clipPath><clipPath clipPathUnits="userSpaceOnUse" id="clipPath6"><path d="M30 212 L52 212 L52 234 L30 234 L30 212 Z" /></clipPath><clipPath clipPathUnits="userSpaceOnUse" id="clipPath7"><path d="M30 160 L52 160 L52 182 L30 182 L30 160 Z" /></clipPath><clipPath clipPathUnits="userSpaceOnUse" id="clipPath8"><path d="M104 93 C104 99.0751 99.0751 104 93 104 C86.9249 104 82 99.0751 82 93 C82 86.9249 86.9249 82 93 82 C99.0751 82 104 86.9249 104 93 Z" /></clipPath><clipPath clipPathUnits="userSpaceOnUse" id="clipPath9"><path d="M30 108 L52 108 L52 130 L30 130 L30 108 Z" /></clipPath><clipPath clipPathUnits="userSpaceOnUse" id="clipPath10"><path d="M30 56 L52 56 L52 78 L30 78 L30 56 Z" /></clipPath><clipPath clipPathUnits="userSpaceOnUse" id="clipPath11"><path d="M82 30 L104 30 L104 52 L82 52 L82 30 Z" /></clipPath></defs><g style="fill:white; text-rendering:optimizeSpeed; stroke:white;"><rect height="316" style="stroke:none;" width="290" x="0" y="0" /></g><g ID="l-1:1,2" style="text-rendering:optimizeSpeed;"><polygon points=" 249 93 197 93" style="fill:none;" /></g><g ID="r-1:1" style="fill:white; text-rendering:optimizeSpeed; stroke:white;" wurcs_mono_id="1"><rect height="22" style="clip-path:url(#clipPath1); stroke:none;" width="22" x="238" y="82" /><rect height="22" style="clip-path:url(#clipPath1); fill:rgb(0,144,188); stroke:none;" width="22" x="238" y="82" /><rect height="22" style="clip-path:url(#clipPath1); fill:none; stroke:black;" width="22" x="238" y="82" /><rect height="22" style="fill:none; stroke:black;" width="22" x="238" y="82" /></g><g ID="l-1:2,3" style="text-rendering:optimizeSpeed;"><polygon points=" 197 93 145 93" style="fill:none;" /></g><g ID="r-1:2" style="fill:white; text-rendering:optimizeSpeed; stroke:white;" wurcs_mono_id="2"><rect height="22" style="clip-path:url(#clipPath2); stroke:none;" width="22" x="186" y="82" /><rect height="22" style="clip-path:url(#clipPath2); fill:rgb(0,144,188); stroke:none;" width="22" x="186" y="82" /><rect height="22" style="clip-path:url(#clipPath2); fill:none; stroke:black;" width="22" x="186" y="82" /><rect height="22" style="fill:none; stroke:black;" width="22" x="186" y="82" /></g><g ID="l-1:3,4" style="text-rendering:optimizeSpeed;"><polygon points=" 145 93 93 223" style="fill:none;" /></g><g ID="l-1:3,5" style="text-rendering:optimizeSpeed;"><polygon points=" 145 93 93 93" style="fill:none;" /></g><g ID="l-1:3,6" style="text-rendering:optimizeSpeed;"><polygon points=" 145 93 93 41" style="fill:none;" /></g><g ID="r-1:3" style="fill:white; text-rendering:optimizeSpeed; stroke:white;" wurcs_mono_id="3"><circle cx="145" cy="93" r="11" style="clip-path:url(#clipPath3); stroke:none;" /><rect height="22" style="clip-path:url(#clipPath3); fill:rgb(0,166,81); stroke:none;" width="22" x="134" y="82" /><rect height="22" style="clip-path:url(#clipPath3); fill:none; stroke:black;" width="22" x="134" y="82" /><circle cx="145" cy="93" r="11" style="fill:none; stroke:black;" /></g><g ID="l-1:4,7" style="text-rendering:optimizeSpeed;"><polygon points=" 93 223 41 275" style="fill:none;" /></g><g ID="l-1:4,8" style="text-rendering:optimizeSpeed;"><polygon points=" 93 223 41 223" style="fill:none;" /></g><g ID="l-1:4,9" style="text-rendering:optimizeSpeed;"><polygon points=" 93 223 41 171" style="fill:none;" /></g><g ID="r-1:4" style="fill:white; text-rendering:optimizeSpeed; stroke:white;" wurcs_mono_id="4"><circle cx="93" cy="223" r="11" style="clip-path:url(#clipPath4); stroke:none;" /><rect height="22" style="clip-path:url(#clipPath4); fill:rgb(0,166,81); stroke:none;" width="22" x="82" y="212" /><rect height="22" style="clip-path:url(#clipPath4); fill:none; stroke:black;" width="22" x="82" y="212" /><circle cx="93" cy="223" r="11" style="fill:none; stroke:black;" /></g><g ID="r-1:7" style="fill:white; text-rendering:optimizeSpeed; stroke:white;" wurcs_mono_id="5"><rect height="22" style="clip-path:url(#clipPath5); stroke:none;" width="22" x="30" y="264" /><rect height="22" style="clip-path:url(#clipPath5); fill:rgb(0,144,188); stroke:none;" width="22" x="30" y="264" /><rect height="22" style="clip-path:url(#clipPath5); fill:none; stroke:black;" width="22" x="30" y="264" /><rect height="22" style="fill:none; stroke:black;" width="22" x="30" y="264" /></g><g ID="r-1:8" style="fill:white; text-rendering:optimizeSpeed; stroke:white;" wurcs_mono_id="6"><rect height="22" style="clip-path:url(#clipPath6); stroke:none;" width="22" x="30" y="212" /><rect height="22" style="clip-path:url(#clipPath6); fill:rgb(0,144,188); stroke:none;" width="22" x="30" y="212" /><rect height="22" style="clip-path:url(#clipPath6); fill:none; stroke:black;" width="22" x="30" y="212" /><rect height="22" style="fill:none; stroke:black;" width="22" x="30" y="212" /></g><g ID="r-1:9" style="fill:white; text-rendering:optimizeSpeed; stroke:white;" wurcs_mono_id="7"><rect height="22" style="clip-path:url(#clipPath7); stroke:none;" width="22" x="30" y="160" /><rect height="22" style="clip-path:url(#clipPath7); fill:rgb(0,144,188); stroke:none;" width="22" x="30" y="160" /><rect height="22" style="clip-path:url(#clipPath7); fill:none; stroke:black;" width="22" x="30" y="160" /><rect height="22" style="fill:none; stroke:black;" width="22" x="30" y="160" /></g><g ID="li-1:4,7" style="fill:white; text-rendering:optimizeSpeed; font-family:'Serif'; stroke:white;"><rect height="9" style="stroke:none;" width="7" x="78" y="240" /><path d="M79.5312 242.3438 L78.875 242.3438 L78.875 240.7812 Q79.5 240.4375 80.1406 240.2656 Q80.7812 240.0938 81.3906 240.0938 Q82.75 240.0938 83.5391 240.7578 Q84.3281 241.4219 84.3281 242.5469 Q84.3281 243.8438 82.5469 245.625 Q82.4062 245.7656 82.3281 245.8281 L80.125 248.0312 L83.7656 248.0312 L83.7656 246.9531 L84.4531 246.9531 L84.4531 249 L78.8125 249 L78.8125 248.3594 L81.4688 245.7188 Q82.3438 244.8281 82.7188 244.0938 Q83.0938 243.3594 83.0938 242.5469 Q83.0938 241.6719 82.6328 241.1719 Q82.1719 240.6719 81.375 240.6719 Q80.5312 240.6719 80.0781 241.0859 Q79.625 241.5 79.5312 242.3438 Z" style="fill:black; stroke:none;" /><rect height="13" style="stroke:none;" width="7" x="59" y="257" /><path d="M60.8281 269.25 Q61.2969 269.5938 62.1719 269.5938 Q63.0625 269.5938 63.5781 269.0703 Q64.0938 268.5469 64.0938 267.6562 Q64.0938 266.4219 63.5625 265.8906 Q63.0156 265.3594 62 265.3594 L61.4375 265.3594 L61.4375 264.7188 L61.7344 264.7188 Q62.4844 264.7188 63 264.2969 Q63.4219 263.9531 63.4219 263.0156 Q63.4219 262.6094 63.1406 262.1406 Q62.6875 261.375 62.1562 261.3906 Q60.8281 261.4375 60.8281 263.7812 L60.8281 269.25 ZM59.75 272.5 L59.75 263.7812 Q59.75 261.3281 61.0781 261 Q61.7656 260.8125 62.25 260.8125 Q63.3438 260.8125 64.0469 261.6719 Q64.6094 262.3594 64.6094 262.9375 Q64.6094 263.7812 64.2031 264.2656 Q63.7969 264.75 63.0625 264.9844 Q64.1406 265.1406 64.75 265.7812 Q65.3281 266.4062 65.3281 267.6328 Q65.3281 268.8594 64.5078 269.5156 Q63.6875 270.1719 62.1406 270.1719 Q61.1875 270.1719 60.8281 270.0312 L60.8281 272.5 L59.75 272.5 Z" style="fill:black; stroke:none;" /></g><g ID="li-1:4,8" style="fill:white; text-rendering:optimizeSpeed; font-family:'Serif'; stroke:white;"><rect height="9" style="stroke:none;" width="8" x="70" y="226" /><path d="M74.1875 232.0312 L74.1875 227.375 L71.2031 232.0312 L74.1875 232.0312 ZM76.7656 235 L72.7812 235 L72.7812 234.375 L74.1875 234.375 L74.1875 232.6562 L70.375 232.6562 L70.375 232.0156 L74.2031 226.0938 L75.3594 226.0938 L75.3594 232.0312 L77.0312 232.0312 L77.0312 232.6562 L75.3594 232.6562 L75.3594 234.375 L76.7656 234.375 L76.7656 235 Z" style="fill:black; stroke:none;" /><rect height="13" style="stroke:none;" width="7" x="56" y="224" /><path d="M57.8281 236.25 Q58.2969 236.5938 59.1719 236.5938 Q60.0625 236.5938 60.5781 236.0703 Q61.0938 235.5469 61.0938 234.6562 Q61.0938 233.4219 60.5625 232.8906 Q60.0156 232.3594 59 232.3594 L58.4375 232.3594 L58.4375 231.7188 L58.7344 231.7188 Q59.4844 231.7188 60 231.2969 Q60.4219 230.9531 60.4219 230.0156 Q60.4219 229.6094 60.1406 229.1406 Q59.6875 228.375 59.1562 228.3906 Q57.8281 228.4375 57.8281 230.7812 L57.8281 236.25 ZM56.75 239.5 L56.75 230.7812 Q56.75 228.3281 58.0781 228 Q58.7656 227.8125 59.25 227.8125 Q60.3438 227.8125 61.0469 228.6719 Q61.6094 229.3594 61.6094 229.9375 Q61.6094 230.7812 61.2031 231.2656 Q60.7969 231.75 60.0625 231.9844 Q61.1406 232.1406 61.75 232.7812 Q62.3281 233.4062 62.3281 234.6328 Q62.3281 235.8594 61.5078 236.5156 Q60.6875 237.1719 59.1406 237.1719 Q58.1875 237.1719 57.8281 237.0312 L57.8281 239.5 L56.75 239.5 Z" style="fill:black; stroke:none;" /></g><g ID="li-1:4,9" style="fill:white; text-rendering:optimizeSpeed; font-family:'Serif'; stroke:white;"><rect height="10" style="stroke:none;" width="7" x="67" y="207" /><path d="M70.9219 216.5938 Q71.75 216.5938 72.1953 215.9844 Q72.6406 215.375 72.6406 214.2344 Q72.6406 213.1094 72.1953 212.5 Q71.75 211.8906 70.9219 211.8906 Q70.0938 211.8906 69.6484 212.4766 Q69.2031 213.0625 69.2031 214.1719 Q69.2031 215.3281 69.6484 215.9609 Q70.0938 216.5938 70.9219 216.5938 ZM69.0156 212.1875 Q69.4219 211.75 69.9219 211.5312 Q70.4219 211.3125 71.0625 211.3125 Q72.3594 211.3125 73.1172 212.0938 Q73.875 212.875 73.875 214.2344 Q73.875 215.5625 73.0625 216.3672 Q72.25 217.1719 70.875 217.1719 Q69.3906 217.1719 68.5938 216.0625 Q67.7969 214.9531 67.7969 212.9062 Q67.7969 210.6094 68.7422 209.3516 Q69.6875 208.0938 71.4062 208.0938 Q71.875 208.0938 72.3828 208.1797 Q72.8906 208.2656 73.4219 208.4375 L73.4219 209.8906 L72.7656 209.8906 Q72.6875 209.2969 72.3047 208.9844 Q71.9219 208.6719 71.2812 208.6719 Q70.1406 208.6719 69.5859 209.5312 Q69.0312 210.3906 69.0156 212.1875 Z" style="fill:black; stroke:none;" /><rect height="13" style="stroke:none;" width="7" x="48" y="186" /><path d="M49.8281 198.25 Q50.2969 198.5938 51.1719 198.5938 Q52.0625 198.5938 52.5781 198.0703 Q53.0938 197.5469 53.0938 196.6562 Q53.0938 195.4219 52.5625 194.8906 Q52.0156 194.3594 51 194.3594 L50.4375 194.3594 L50.4375 193.7188 L50.7344 193.7188 Q51.4844 193.7188 52 193.2969 Q52.4219 192.9531 52.4219 192.0156 Q52.4219 191.6094 52.1406 191.1406 Q51.6875 190.375 51.1562 190.3906 Q49.8281 190.4375 49.8281 192.7812 L49.8281 198.25 ZM48.75 201.5 L48.75 192.7812 Q48.75 190.3281 50.0781 190 Q50.7656 189.8125 51.25 189.8125 Q52.3438 189.8125 53.0469 190.6719 Q53.6094 191.3594 53.6094 191.9375 Q53.6094 192.7812 53.2031 193.2656 Q52.7969 193.75 52.0625 193.9844 Q53.1406 194.1406 53.75 194.7812 Q54.3281 195.4062 54.3281 196.6328 Q54.3281 197.8594 53.5078 198.5156 Q52.6875 199.1719 51.1406 199.1719 Q50.1875 199.1719 49.8281 199.0312 L49.8281 201.5 L48.75 201.5 Z" style="fill:black; stroke:none;" /></g><g ID="l-1:5,10" style="text-rendering:optimizeSpeed;"><polygon points=" 93 93 41 119" style="fill:none;" /></g><g ID="l-1:5,11" style="text-rendering:optimizeSpeed;"><polygon points=" 93 93 41 67" style="fill:none;" /></g><g ID="r-1:5" style="fill:white; text-rendering:optimizeSpeed; stroke:white;" wurcs_mono_id="8"><circle cx="93" cy="93" r="11" style="clip-path:url(#clipPath8); stroke:none;" /><rect height="22" style="clip-path:url(#clipPath8); fill:rgb(0,166,81); stroke:none;" width="22" x="82" y="82" /><rect height="22" style="clip-path:url(#clipPath8); fill:none; stroke:black;" width="22" x="82" y="82" /><circle cx="93" cy="93" r="11" style="fill:none; stroke:black;" /></g><g ID="r-1:10" style="fill:white; text-rendering:optimizeSpeed; stroke:white;" wurcs_mono_id="9"><rect height="22" style="clip-path:url(#clipPath9); stroke:none;" width="22" x="30" y="108" /><rect height="22" style="clip-path:url(#clipPath9); fill:rgb(0,144,188); stroke:none;" width="22" x="30" y="108" /><rect height="22" style="clip-path:url(#clipPath9); fill:none; stroke:black;" width="22" x="30" y="108" /><rect height="22" style="fill:none; stroke:black;" width="22" x="30" y="108" /></g><g ID="r-1:11" style="fill:white; text-rendering:optimizeSpeed; stroke:white;" wurcs_mono_id="10"><rect height="22" style="clip-path:url(#clipPath10); stroke:none;" width="22" x="30" y="56" /><rect height="22" style="clip-path:url(#clipPath10); fill:rgb(0,144,188); stroke:none;" width="22" x="30" y="56" /><rect height="22" style="clip-path:url(#clipPath10); fill:none; stroke:black;" width="22" x="30" y="56" /><rect height="22" style="fill:none; stroke:black;" width="22" x="30" y="56" /></g><g ID="li-1:5,10" style="fill:white; text-rendering:optimizeSpeed; font-family:'Serif'; stroke:white;"><rect height="9" style="stroke:none;" width="7" x="74" y="104" /><path d="M75.5312 106.3438 L74.875 106.3438 L74.875 104.7812 Q75.5 104.4375 76.1406 104.2656 Q76.7812 104.0938 77.3906 104.0938 Q78.75 104.0938 79.5391 104.7578 Q80.3281 105.4219 80.3281 106.5469 Q80.3281 107.8438 78.5469 109.625 Q78.4062 109.7656 78.3281 109.8281 L76.125 112.0312 L79.7656 112.0312 L79.7656 110.9531 L80.4531 110.9531 L80.4531 113 L74.8125 113 L74.8125 112.3594 L77.4688 109.7188 Q78.3438 108.8281 78.7188 108.0938 Q79.0938 107.3594 79.0938 106.5469 Q79.0938 105.6719 78.6328 105.1719 Q78.1719 104.6719 77.375 104.6719 Q76.5312 104.6719 76.0781 105.0859 Q75.625 105.5 75.5312 106.3438 Z" style="fill:black; stroke:none;" /><rect height="13" style="stroke:none;" width="7" x="59" y="110" /><path d="M60.8281 122.25 Q61.2969 122.5938 62.1719 122.5938 Q63.0625 122.5938 63.5781 122.0703 Q64.0938 121.5469 64.0938 120.6562 Q64.0938 119.4219 63.5625 118.8906 Q63.0156 118.3594 62 118.3594 L61.4375 118.3594 L61.4375 117.7188 L61.7344 117.7188 Q62.4844 117.7188 63 117.2969 Q63.4219 116.9531 63.4219 116.0156 Q63.4219 115.6094 63.1406 115.1406 Q62.6875 114.375 62.1562 114.3906 Q60.8281 114.4375 60.8281 116.7812 L60.8281 122.25 ZM59.75 125.5 L59.75 116.7812 Q59.75 114.3281 61.0781 114 Q61.7656 113.8125 62.25 113.8125 Q63.3438 113.8125 64.0469 114.6719 Q64.6094 115.3594 64.6094 115.9375 Q64.6094 116.7812 64.2031 117.2656 Q63.7969 117.75 63.0625 117.9844 Q64.1406 118.1406 64.75 118.7812 Q65.3281 119.4062 65.3281 120.6328 Q65.3281 121.8594 64.5078 122.5156 Q63.6875 123.1719 62.1406 123.1719 Q61.1875 123.1719 60.8281 123.0312 L60.8281 125.5 L59.75 125.5 Z" style="fill:black; stroke:none;" /></g><g ID="li-1:5,11" style="fill:white; text-rendering:optimizeSpeed; font-family:'Serif'; stroke:white;"><rect height="9" style="stroke:none;" width="8" x="67" y="86" /><path d="M71.1875 92.0312 L71.1875 87.375 L68.2031 92.0312 L71.1875 92.0312 ZM73.7656 95 L69.7812 95 L69.7812 94.375 L71.1875 94.375 L71.1875 92.6562 L67.375 92.6562 L67.375 92.0156 L71.2031 86.0938 L72.3594 86.0938 L72.3594 92.0312 L74.0312 92.0312 L74.0312 92.6562 L72.3594 92.6562 L72.3594 94.375 L73.7656 94.375 L73.7656 95 Z" style="fill:black; stroke:none;" /><rect height="13" style="stroke:none;" width="7" x="52" y="76" /><path d="M53.8281 88.25 Q54.2969 88.5938 55.1719 88.5938 Q56.0625 88.5938 56.5781 88.0703 Q57.0938 87.5469 57.0938 86.6562 Q57.0938 85.4219 56.5625 84.8906 Q56.0156 84.3594 55 84.3594 L54.4375 84.3594 L54.4375 83.7188 L54.7344 83.7188 Q55.4844 83.7188 56 83.2969 Q56.4219 82.9531 56.4219 82.0156 Q56.4219 81.6094 56.1406 81.1406 Q55.6875 80.375 55.1562 80.3906 Q53.8281 80.4375 53.8281 82.7812 L53.8281 88.25 ZM52.75 91.5 L52.75 82.7812 Q52.75 80.3281 54.0781 80 Q54.7656 79.8125 55.25 79.8125 Q56.3438 79.8125 57.0469 80.6719 Q57.6094 81.3594 57.6094 81.9375 Q57.6094 82.7812 57.2031 83.2656 Q56.7969 83.75 56.0625 83.9844 Q57.1406 84.1406 57.75 84.7812 Q58.3281 85.4062 58.3281 86.6328 Q58.3281 87.8594 57.5078 88.5156 Q56.6875 89.1719 55.1406 89.1719 Q54.1875 89.1719 53.8281 89.0312 L53.8281 91.5 L52.75 91.5 Z" style="fill:black; stroke:none;" /></g><g ID="r-1:6" style="fill:white; text-rendering:optimizeSpeed; stroke:white;" wurcs_mono_id="11"><rect height="22" style="clip-path:url(#clipPath11); stroke:none;" width="22" x="82" y="30" /><rect height="22" style="clip-path:url(#clipPath11); fill:rgb(0,144,188); stroke:none;" width="22" x="82" y="30" /><rect height="22" style="clip-path:url(#clipPath11); fill:none; stroke:black;" width="22" x="82" y="30" /><rect height="22" style="fill:none; stroke:black;" width="22" x="82" y="30" /></g><g ID="li-1:3,4" style="fill:white; text-rendering:optimizeSpeed; font-family:'Serif'; stroke:white;"><rect height="11" style="stroke:none;" width="19" x="135" y="108" /><path d="M136.1719 110.625 Q136.8594 110.3594 137.4844 110.2266 Q138.1094 110.0938 138.6562 110.0938 Q139.9531 110.0938 140.6719 110.6484 Q141.3906 111.2031 141.3906 112.1875 Q141.3906 112.9688 140.8906 113.5 Q140.3906 114.0312 139.4844 114.2188 Q140.5625 114.375 141.1562 115.0078 Q141.75 115.6406 141.75 116.6406 Q141.75 117.8594 140.9219 118.5156 Q140.0938 119.1719 138.5469 119.1719 Q137.8594 119.1719 137.2109 119.0234 Q136.5625 118.875 135.9219 118.5781 L135.9219 116.875 L136.5781 116.875 Q136.625 117.7188 137.1406 118.1562 Q137.6562 118.5938 138.5781 118.5938 Q139.4688 118.5938 139.9922 118.0703 Q140.5156 117.5469 140.5156 116.6562 Q140.5156 115.625 139.9766 115.0938 Q139.4375 114.5625 138.4062 114.5625 L137.8594 114.5625 L137.8594 113.9531 L138.1406 113.9531 Q139.1719 113.9531 139.6875 113.5312 Q140.2031 113.1094 140.2031 112.25 Q140.2031 111.4844 139.7812 111.0781 Q139.3594 110.6719 138.5625 110.6719 Q137.7656 110.6719 137.3359 111.0469 Q136.9062 111.4219 136.8281 112.1562 L136.1719 112.1562 L136.1719 110.625 ZM145.7441 110.25 L146.6816 110.25 L143.5723 120.1094 L142.6348 120.1094 L145.7441 110.25 ZM150.5996 118.5938 Q151.4277 118.5938 151.873 117.9844 Q152.3184 117.375 152.3184 116.2344 Q152.3184 115.1094 151.873 114.5 Q151.4277 113.8906 150.5996 113.8906 Q149.7715 113.8906 149.3262 114.4766 Q148.8809 115.0625 148.8809 116.1719 Q148.8809 117.3281 149.3262 117.9609 Q149.7715 118.5938 150.5996 118.5938 ZM148.6934 114.1875 Q149.0996 113.75 149.5996 113.5312 Q150.0996 113.3125 150.7402 113.3125 Q152.0371 113.3125 152.7949 114.0938 Q153.5527 114.875 153.5527 116.2344 Q153.5527 117.5625 152.7402 118.3672 Q151.9277 119.1719 150.5527 119.1719 Q149.0684 119.1719 148.2715 118.0625 Q147.4746 116.9531 147.4746 114.9062 Q147.4746 112.6094 148.4199 111.3516 Q149.3652 110.0938 151.084 110.0938 Q151.5527 110.0938 152.0605 110.1797 Q152.5684 110.2656 153.0996 110.4375 L153.0996 111.8906 L152.4434 111.8906 Q152.3652 111.2969 151.9824 110.9844 Q151.5996 110.6719 150.959 110.6719 Q149.8184 110.6719 149.2637 111.5312 Q148.709 112.3906 148.6934 114.1875 Z" style="fill:black; stroke:none;" /><rect height="8" style="stroke:none;" width="8" x="103" y="203" /><path d="M108.1875 209.4688 L107.9531 210.1094 Q107.7656 210.625 107.2031 210.9375 Q106.8438 211.1562 106.2031 211.1406 Q105.0469 211.1406 104.3281 210.2344 Q103.5938 209.3281 103.5938 207.8594 Q103.5938 206.4219 104.3281 205.4844 Q105.0156 204.5938 106.4531 204.6094 Q107.4531 204.6094 107.9531 205 Q108.4062 205.3438 108.5781 206.0938 L108.625 206.3125 L108.8438 205.6719 Q109.0625 205.0469 109.6562 204.75 L110.25 204.75 L110.25 205.0938 Q109.6875 205.2656 109.5 205.8125 L108.8906 207.4844 L109.2969 209.2812 Q109.5 210.2031 109.7344 210.2969 Q110.0469 210.4375 110.7812 210 L110.7812 210.7188 Q109.5938 211.4062 108.75 210.6875 Q108.375 210.3594 108.2656 209.875 L108.1875 209.4688 ZM107.9219 208.3125 L107.5625 206.5938 Q107.2656 205.2188 106.4688 205.2188 Q105.7969 205.2031 105.2812 205.9375 Q104.8594 206.5156 104.8594 207.875 Q104.8594 209.1719 105.2812 209.8281 Q105.75 210.5469 106.5312 210.5 Q107.2031 210.4375 107.6875 209 L107.9219 208.3125 Z" style="fill:black; stroke:none;" /></g><g ID="li-1:3,5" style="fill:white; text-rendering:optimizeSpeed; font-family:'Serif'; stroke:white;"><rect height="11" style="stroke:none;" width="19" x="116" y="95" /><path d="M117.1719 97.625 Q117.8594 97.3594 118.4844 97.2266 Q119.1094 97.0938 119.6562 97.0938 Q120.9531 97.0938 121.6719 97.6484 Q122.3906 98.2031 122.3906 99.1875 Q122.3906 99.9688 121.8906 100.5 Q121.3906 101.0312 120.4844 101.2188 Q121.5625 101.375 122.1562 102.0078 Q122.75 102.6406 122.75 103.6406 Q122.75 104.8594 121.9219 105.5156 Q121.0938 106.1719 119.5469 106.1719 Q118.8594 106.1719 118.2109 106.0234 Q117.5625 105.875 116.9219 105.5781 L116.9219 103.875 L117.5781 103.875 Q117.625 104.7188 118.1406 105.1562 Q118.6562 105.5938 119.5781 105.5938 Q120.4688 105.5938 120.9922 105.0703 Q121.5156 104.5469 121.5156 103.6562 Q121.5156 102.625 120.9766 102.0938 Q120.4375 101.5625 119.4062 101.5625 L118.8594 101.5625 L118.8594 100.9531 L119.1406 100.9531 Q120.1719 100.9531 120.6875 100.5312 Q121.2031 100.1094 121.2031 99.25 Q121.2031 98.4844 120.7812 98.0781 Q120.3594 97.6719 119.5625 97.6719 Q118.7656 97.6719 118.3359 98.0469 Q117.9062 98.4219 117.8281 99.1562 L117.1719 99.1562 L117.1719 97.625 ZM126.7441 97.25 L127.6816 97.25 L124.5723 107.1094 L123.6348 107.1094 L126.7441 97.25 ZM131.5996 105.5938 Q132.4277 105.5938 132.873 104.9844 Q133.3184 104.375 133.3184 103.2344 Q133.3184 102.1094 132.873 101.5 Q132.4277 100.8906 131.5996 100.8906 Q130.7715 100.8906 130.3262 101.4766 Q129.8809 102.0625 129.8809 103.1719 Q129.8809 104.3281 130.3262 104.9609 Q130.7715 105.5938 131.5996 105.5938 ZM129.6934 101.1875 Q130.0996 100.75 130.5996 100.5312 Q131.0996 100.3125 131.7402 100.3125 Q133.0371 100.3125 133.7949 101.0938 Q134.5527 101.875 134.5527 103.2344 Q134.5527 104.5625 133.7402 105.3672 Q132.9277 106.1719 131.5527 106.1719 Q130.0684 106.1719 129.2715 105.0625 Q128.4746 103.9531 128.4746 101.9062 Q128.4746 99.6094 129.4199 98.3516 Q130.3652 97.0938 132.084 97.0938 Q132.5527 97.0938 133.0605 97.1797 Q133.5684 97.2656 134.0996 97.4375 L134.0996 98.8906 L133.4434 98.8906 Q133.3652 98.2969 132.9824 97.9844 Q132.5996 97.6719 131.959 97.6719 Q130.8184 97.6719 130.2637 98.5312 Q129.709 99.3906 129.6934 101.1875 Z" style="fill:black; stroke:none;" /><rect height="8" style="stroke:none;" width="8" x="108" y="97" /><path d="M113.1875 103.4688 L112.9531 104.1094 Q112.7656 104.625 112.2031 104.9375 Q111.8438 105.1562 111.2031 105.1406 Q110.0469 105.1406 109.3281 104.2344 Q108.5938 103.3281 108.5938 101.8594 Q108.5938 100.4219 109.3281 99.4844 Q110.0156 98.5938 111.4531 98.6094 Q112.4531 98.6094 112.9531 99 Q113.4062 99.3438 113.5781 100.0938 L113.625 100.3125 L113.8438 99.6719 Q114.0625 99.0469 114.6562 98.75 L115.25 98.75 L115.25 99.0938 Q114.6875 99.2656 114.5 99.8125 L113.8906 101.4844 L114.2969 103.2812 Q114.5 104.2031 114.7344 104.2969 Q115.0469 104.4375 115.7812 104 L115.7812 104.7188 Q114.5938 105.4062 113.75 104.6875 Q113.375 104.3594 113.2656 103.875 L113.1875 103.4688 ZM112.9219 102.3125 L112.5625 100.5938 Q112.2656 99.2188 111.4688 99.2188 Q110.7969 99.2031 110.2812 99.9375 Q109.8594 100.5156 109.8594 101.875 Q109.8594 103.1719 110.2812 103.8281 Q110.75 104.5469 111.5312 104.5 Q112.2031 104.4375 112.6875 103 L112.9219 102.3125 Z" style="fill:black; stroke:none;" /></g><g ID="li-1:3,6" style="fill:white; text-rendering:optimizeSpeed; font-family:'Serif'; stroke:white;"><rect height="9" style="stroke:none;" width="8" x="118" y="77" /><path d="M122.1875 83.0312 L122.1875 78.375 L119.2031 83.0312 L122.1875 83.0312 ZM124.7656 86 L120.7812 86 L120.7812 85.375 L122.1875 85.375 L122.1875 83.6562 L118.375 83.6562 L118.375 83.0156 L122.2031 77.0938 L123.3594 77.0938 L123.3594 83.0312 L125.0312 83.0312 L125.0312 83.6562 L123.3594 83.6562 L123.3594 85.375 L124.7656 85.375 L124.7656 86 Z" style="fill:black; stroke:none;" /><rect height="13" style="stroke:none;" width="7" x="100" y="56" /><path d="M101.8281 68.25 Q102.2969 68.5938 103.1719 68.5938 Q104.0625 68.5938 104.5781 68.0703 Q105.0938 67.5469 105.0938 66.6562 Q105.0938 65.4219 104.5625 64.8906 Q104.0156 64.3594 103 64.3594 L102.4375 64.3594 L102.4375 63.7188 L102.7344 63.7188 Q103.4844 63.7188 104 63.2969 Q104.4219 62.9531 104.4219 62.0156 Q104.4219 61.6094 104.1406 61.1406 Q103.6875 60.375 103.1562 60.3906 Q101.8281 60.4375 101.8281 62.7812 L101.8281 68.25 ZM100.75 71.5 L100.75 62.7812 Q100.75 60.3281 102.0781 60 Q102.7656 59.8125 103.25 59.8125 Q104.3438 59.8125 105.0469 60.6719 Q105.6094 61.3594 105.6094 61.9375 Q105.6094 62.7812 105.2031 63.2656 Q104.7969 63.75 104.0625 63.9844 Q105.1406 64.1406 105.75 64.7812 Q106.3281 65.4062 106.3281 66.6328 Q106.3281 67.8594 105.5078 68.5156 Q104.6875 69.1719 103.1406 69.1719 Q102.1875 69.1719 101.8281 69.0312 L101.8281 71.5 L100.75 71.5 Z" style="fill:black; stroke:none;" /></g><g ID="li-1:2,3" style="fill:white; text-rendering:optimizeSpeed; font-family:'Serif'; stroke:white;"><rect height="9" style="stroke:none;" width="8" x="174" y="96" /><path d="M178.1875 102.0312 L178.1875 97.375 L175.2031 102.0312 L178.1875 102.0312 ZM180.7656 105 L176.7812 105 L176.7812 104.375 L178.1875 104.375 L178.1875 102.6562 L174.375 102.6562 L174.375 102.0156 L178.2031 96.0938 L179.3594 96.0938 L179.3594 102.0312 L181.0312 102.0312 L181.0312 102.6562 L179.3594 102.6562 L179.3594 104.375 L180.7656 104.375 L180.7656 105 Z" style="fill:black; stroke:none;" /><rect height="13" style="stroke:none;" width="7" x="160" y="94" /><path d="M161.8281 106.25 Q162.2969 106.5938 163.1719 106.5938 Q164.0625 106.5938 164.5781 106.0703 Q165.0938 105.5469 165.0938 104.6562 Q165.0938 103.4219 164.5625 102.8906 Q164.0156 102.3594 163 102.3594 L162.4375 102.3594 L162.4375 101.7188 L162.7344 101.7188 Q163.4844 101.7188 164 101.2969 Q164.4219 100.9531 164.4219 100.0156 Q164.4219 99.6094 164.1406 99.1406 Q163.6875 98.375 163.1562 98.3906 Q161.8281 98.4375 161.8281 100.7812 L161.8281 106.25 ZM160.75 109.5 L160.75 100.7812 Q160.75 98.3281 162.0781 98 Q162.7656 97.8125 163.25 97.8125 Q164.3438 97.8125 165.0469 98.6719 Q165.6094 99.3594 165.6094 99.9375 Q165.6094 100.7812 165.2031 101.2656 Q164.7969 101.75 164.0625 101.9844 Q165.1406 102.1406 165.75 102.7812 Q166.3281 103.4062 166.3281 104.6328 Q166.3281 105.8594 165.5078 106.5156 Q164.6875 107.1719 163.1406 107.1719 Q162.1875 107.1719 161.8281 107.0312 L161.8281 109.5 L160.75 109.5 Z" style="fill:black; stroke:none;" /></g><g ID="li-1:1,2" style="fill:white; text-rendering:optimizeSpeed; font-family:'Serif'; stroke:white;"><rect height="9" style="stroke:none;" width="8" x="226" y="96" /><path d="M230.1875 102.0312 L230.1875 97.375 L227.2031 102.0312 L230.1875 102.0312 ZM232.7656 105 L228.7812 105 L228.7812 104.375 L230.1875 104.375 L230.1875 102.6562 L226.375 102.6562 L226.375 102.0156 L230.2031 96.0938 L231.3594 96.0938 L231.3594 102.0312 L233.0312 102.0312 L233.0312 102.6562 L231.3594 102.6562 L231.3594 104.375 L232.7656 104.375 L232.7656 105 Z" style="fill:black; stroke:none;" /><rect height="13" style="stroke:none;" width="7" x="212" y="94" /><path d="M213.8281 106.25 Q214.2969 106.5938 215.1719 106.5938 Q216.0625 106.5938 216.5781 106.0703 Q217.0938 105.5469 217.0938 104.6562 Q217.0938 103.4219 216.5625 102.8906 Q216.0156 102.3594 215 102.3594 L214.4375 102.3594 L214.4375 101.7188 L214.7344 101.7188 Q215.4844 101.7188 216 101.2969 Q216.4219 100.9531 216.4219 100.0156 Q216.4219 99.6094 216.1406 99.1406 Q215.6875 98.375 215.1562 98.3906 Q213.8281 98.4375 213.8281 100.7812 L213.8281 106.25 ZM212.75 109.5 L212.75 100.7812 Q212.75 98.3281 214.0781 98 Q214.7656 97.8125 215.25 97.8125 Q216.3438 97.8125 217.0469 98.6719 Q217.6094 99.3594 217.6094 99.9375 Q217.6094 100.7812 217.2031 101.2656 Q216.7969 101.75 216.0625 101.9844 Q217.1406 102.1406 217.75 102.7812 Q218.3281 103.4062 218.3281 104.6328 Q218.3281 105.8594 217.5078 106.5156 Q216.6875 107.1719 215.1406 107.1719 Q214.1875 107.1719 213.8281 107.0312 L213.8281 109.5 L212.75 109.5 Z" style="fill:black; stroke:none;" /></g></g></svg>