<svg xmlns="http://www.w3.org/2000/svg" style="fill-opacity:1; color-rendering:auto; color-interpolation:auto; text-rendering:auto; stroke:black; stroke-linecap:square; stroke-miterlimit:10; shape-rendering:auto; stroke-opacity:1; fill:black; stroke-dasharray:none; font-weight:normal; stroke-width:1; font-family:'Dialog'; font-style:normal; stroke-linejoin:miter; font-size:12px; stroke-dashoffset:0; image-rendering:auto;"><defs id="genericDefs" /><g><defs id="defs1"><clipPath clipPathUnits="userSpaceOnUse" id="clipPath1"><path d="M134 121 L156 121 L156 143 L134 143 L134 121 Z" /></clipPath><clipPath clipPathUnits="userSpaceOnUse" id="clipPath2"><path d="M104 171 C104 177.0751 99.0751 182 93 182 C86.9249 182 82 177.0751 82 171 C82 164.9249 86.9249 160 93 160 C99.0751 160 104 164.9249 104 171 Z" /></clipPath><clipPath clipPathUnits="userSpaceOnUse" id="clipPath3"><path d="M41 186 L52 197 L41 208 L30 197 Z" style="fill-rule:evenodd;" /></clipPath><clipPath clipPathUnits="userSpaceOnUse" id="clipPath4"><path d="M52 145 C52 151.0751 47.0751 156 41 156 C34.9249 156 30 151.0751 30 145 C30 138.9249 34.9249 134 41 134 C47.0751 134 52 138.9249 52 145 Z" /></clipPath><clipPath clipPathUnits="userSpaceOnUse" id="clipPath5"><path d="M82 82 L104 82 L104 104 L82 104 L82 82 Z" /></clipPath><clipPath clipPathUnits="userSpaceOnUse" id="clipPath6"><path d="M30 82 L52 82 L52 104 L30 104 L30 82 Z" /></clipPath><clipPath clipPathUnits="userSpaceOnUse" id="clipPath7"><path d="M93 52 L82 30 L104 30 Z" style="fill-rule:evenodd;" /></clipPath></defs><g style="fill:white; text-rendering:optimizeSpeed; stroke:white;"><rect height="238" style="stroke:none;" width="186" x="0" y="0" /></g><g ID="l-1:1,2" style="text-rendering:optimizeSpeed;"><polygon points=" 145 132 93 171" style="fill:none;" /></g><g ID="l-1:1,3" style="text-rendering:optimizeSpeed;"><polygon points=" 145 132 93 93" style="fill:none;" /></g><g ID="r-1:1" style="fill:white; text-rendering:optimizeSpeed; stroke:white;" wurcs_mono_id="1"><rect height="22" style="clip-path:url(#clipPath1); stroke:none;" width="22" x="134" y="121" /><rect height="22" style="clip-path:url(#clipPath1); fill:rgb(255,212,0); stroke:none;" width="22" x="134" y="121" /><rect height="22" style="clip-path:url(#clipPath1); fill:none; stroke:black;" width="22" x="134" y="121" /><rect height="22" style="fill:none; stroke:black;" width="22" x="134" y="121" /></g><g ID="l-1:2,4" style="text-rendering:optimizeSpeed;"><polygon points=" 93 171 41 197" style="fill:none;" /></g><g ID="l-1:2,5" style="text-rendering:optimizeSpeed;"><polygon points=" 93 171 41 145" style="fill:none;" /></g><g ID="r-1:2" style="fill:white; text-rendering:optimizeSpeed; stroke:white;" wurcs_mono_id="2"><circle cx="93" cy="171" r="11" style="clip-path:url(#clipPath2); stroke:none;" /><rect height="22" style="clip-path:url(#clipPath2); fill:rgb(255,212,0); stroke:none;" width="22" x="82" y="160" /><rect height="22" style="clip-path:url(#clipPath2); fill:none; stroke:black;" width="22" x="82" y="160" /><circle cx="93" cy="171" r="11" style="fill:none; stroke:black;" /></g><g ID="r-1:4" style="fill:white; text-rendering:optimizeSpeed; stroke:white;" wurcs_mono_id="3"><polygon points=" 41 186 52 197 41 208 30 197" style="stroke:none; clip-path:url(#clipPath3);" /><rect height="22" style="clip-path:url(#clipPath3); fill:rgb(165,67,153); stroke:none;" width="22" x="30" y="186" /><rect height="22" style="clip-path:url(#clipPath3); fill:none; stroke:black;" width="22" x="30" y="186" /><polygon points=" 41 186 52 197 41 208 30 197" style="fill:none; stroke:black;" /></g><g ID="r-1:5" style="fill:white; text-rendering:optimizeSpeed; stroke:white;" wurcs_mono_id="4"><circle cx="41" cy="145" r="11" style="clip-path:url(#clipPath4); stroke:none;" /><rect height="22" style="clip-path:url(#clipPath4); fill:rgb(255,212,0); stroke:none;" width="22" x="30" y="134" /><rect height="22" style="clip-path:url(#clipPath4); fill:none; stroke:black;" width="22" x="30" y="134" /><circle cx="41" cy="145" r="11" style="fill:none; stroke:black;" /></g><g ID="li-1:2,4" style="fill:white; text-rendering:optimizeSpeed; font-family:'Serif'; stroke:white;"><rect height="10" style="stroke:none;" width="7" x="74" y="182" /><path d="M75.1719 183.625 Q75.8594 183.3594 76.4844 183.2266 Q77.1094 183.0938 77.6562 183.0938 Q78.9531 183.0938 79.6719 183.6484 Q80.3906 184.2031 80.3906 185.1875 Q80.3906 185.9688 79.8906 186.5 Q79.3906 187.0312 78.4844 187.2188 Q79.5625 187.375 80.1562 188.0078 Q80.75 188.6406 80.75 189.6406 Q80.75 190.8594 79.9219 191.5156 Q79.0938 192.1719 77.5469 192.1719 Q76.8594 192.1719 76.2109 192.0234 Q75.5625 191.875 74.9219 191.5781 L74.9219 189.875 L75.5781 189.875 Q75.625 190.7188 76.1406 191.1562 Q76.6562 191.5938 77.5781 191.5938 Q78.4688 191.5938 78.9922 191.0703 Q79.5156 190.5469 79.5156 189.6562 Q79.5156 188.625 78.9766 188.0938 Q78.4375 187.5625 77.4062 187.5625 L76.8594 187.5625 L76.8594 186.9531 L77.1406 186.9531 Q78.1719 186.9531 78.6875 186.5312 Q79.2031 186.1094 79.2031 185.25 Q79.2031 184.4844 78.7812 184.0781 Q78.3594 183.6719 77.5625 183.6719 Q76.7656 183.6719 76.3359 184.0469 Q75.9062 184.4219 75.8281 185.1562 L75.1719 185.1562 L75.1719 183.625 Z" style="fill:black; stroke:none;" /><rect height="8" style="stroke:none;" width="8" x="58" y="191" /><path d="M63.1875 197.4688 L62.9531 198.1094 Q62.7656 198.625 62.2031 198.9375 Q61.8438 199.1562 61.2031 199.1406 Q60.0469 199.1406 59.3281 198.2344 Q58.5938 197.3281 58.5938 195.8594 Q58.5938 194.4219 59.3281 193.4844 Q60.0156 192.5938 61.4531 192.6094 Q62.4531 192.6094 62.9531 193 Q63.4062 193.3438 63.5781 194.0938 L63.625 194.3125 L63.8438 193.6719 Q64.0625 193.0469 64.6562 192.75 L65.25 192.75 L65.25 193.0938 Q64.6875 193.2656 64.5 193.8125 L63.8906 195.4844 L64.2969 197.2812 Q64.5 198.2031 64.7344 198.2969 Q65.0469 198.4375 65.7812 198 L65.7812 198.7188 Q64.5938 199.4062 63.75 198.6875 Q63.375 198.3594 63.2656 197.875 L63.1875 197.4688 ZM62.9219 196.3125 L62.5625 194.5938 Q62.2656 193.2188 61.4688 193.2188 Q60.7969 193.2031 60.2812 193.9375 Q59.8594 194.5156 59.8594 195.875 Q59.8594 197.1719 60.2812 197.8281 Q60.75 198.5469 61.5312 198.5 Q62.2031 198.4375 62.6875 197 L62.9219 196.3125 Z" style="fill:black; stroke:none;" /></g><g ID="li-1:2,5" style="fill:white; text-rendering:optimizeSpeed; font-family:'Serif'; stroke:white;"><rect height="9" style="stroke:none;" width="8" x="67" y="164" /><path d="M71.1875 170.0312 L71.1875 165.375 L68.2031 170.0312 L71.1875 170.0312 ZM73.7656 173 L69.7812 173 L69.7812 172.375 L71.1875 172.375 L71.1875 170.6562 L67.375 170.6562 L67.375 170.0156 L71.2031 164.0938 L72.3594 164.0938 L72.3594 170.0312 L74.0312 170.0312 L74.0312 170.6562 L72.3594 170.6562 L72.3594 172.375 L73.7656 172.375 L73.7656 173 Z" style="fill:black; stroke:none;" /><rect height="13" style="stroke:none;" width="7" x="52" y="154" /><path d="M53.8281 166.25 Q54.2969 166.5938 55.1719 166.5938 Q56.0625 166.5938 56.5781 166.0703 Q57.0938 165.5469 57.0938 164.6562 Q57.0938 163.4219 56.5625 162.8906 Q56.0156 162.3594 55 162.3594 L54.4375 162.3594 L54.4375 161.7188 L54.7344 161.7188 Q55.4844 161.7188 56 161.2969 Q56.4219 160.9531 56.4219 160.0156 Q56.4219 159.6094 56.1406 159.1406 Q55.6875 158.375 55.1562 158.3906 Q53.8281 158.4375 53.8281 160.7812 L53.8281 166.25 ZM52.75 169.5 L52.75 160.7812 Q52.75 158.3281 54.0781 158 Q54.7656 157.8125 55.25 157.8125 Q56.3438 157.8125 57.0469 158.6719 Q57.6094 159.3594 57.6094 159.9375 Q57.6094 160.7812 57.2031 161.2656 Q56.7969 161.75 56.0625 161.9844 Q57.1406 162.1406 57.75 162.7812 Q58.3281 163.4062 58.3281 164.6328 Q58.3281 165.8594 57.5078 166.5156 Q56.6875 167.1719 55.1406 167.1719 Q54.1875 167.1719 53.8281 167.0312 L53.8281 169.5 L52.75 169.5 Z" style="fill:black; stroke:none;" /></g><g ID="l-1:3,6" style="text-rendering:optimizeSpeed;"><polygon points=" 93 93 41 93" style="fill:none;" /></g><g ID="l-1:3,7" style="text-rendering:optimizeSpeed;"><polygon points=" 93 93 93 41" style="fill:none;" /></g><g ID="r-1:3" style="fill:white; text-rendering:optimizeSpeed; stroke:white;" wurcs_mono_id="5"><rect height="22" style="clip-path:url(#clipPath5); stroke:none;" width="22" x="82" y="82" /><rect height="22" style="clip-path:url(#clipPath5); fill:rgb(0,144,188); stroke:none;" width="22" x="82" y="82" /><rect height="22" style="clip-path:url(#clipPath5); fill:none; stroke:black;" width="22" x="82" y="82" /><rect height="22" style="fill:none; stroke:black;" width="22" x="82" y="82" /></g><g ID="r-1:6" style="fill:white; text-rendering:optimizeSpeed; stroke:white;" wurcs_mono_id="6"><rect height="22" style="clip-path:url(#clipPath6); stroke:none;" width="22" x="30" y="82" /><rect height="22" style="clip-path:url(#clipPath6); fill:rgb(0,144,188); stroke:none;" width="22" x="30" y="82" /><rect height="22" style="clip-path:url(#clipPath6); fill:none; stroke:black;" width="22" x="30" y="82" /><rect height="22" style="fill:none; stroke:black;" width="22" x="30" y="82" /></g><g ID="r-1:7" style="fill:white; text-rendering:optimizeSpeed; stroke:white;" wurcs_mono_id="7"><polygon points=" 93 52 82 30 104 30" style="stroke:none; clip-path:url(#clipPath7);" /><rect height="22" style="clip-path:url(#clipPath7); fill:rgb(237,28,36); stroke:none;" width="22" x="82" y="30" /><rect height="22" style="clip-path:url(#clipPath7); fill:none; stroke:black;" width="22" x="82" y="30" /><polygon points=" 93 52 82 30 104 30" style="fill:none; stroke:black;" /></g><g ID="li-1:3,6" style="fill:white; text-rendering:optimizeSpeed; font-family:'Serif'; stroke:white;"><rect height="10" style="stroke:none;" width="7" x="70" y="96" /><path d="M71.1719 97.625 Q71.8594 97.3594 72.4844 97.2266 Q73.1094 97.0938 73.6562 97.0938 Q74.9531 97.0938 75.6719 97.6484 Q76.3906 98.2031 76.3906 99.1875 Q76.3906 99.9688 75.8906 100.5 Q75.3906 101.0312 74.4844 101.2188 Q75.5625 101.375 76.1562 102.0078 Q76.75 102.6406 76.75 103.6406 Q76.75 104.8594 75.9219 105.5156 Q75.0938 106.1719 73.5469 106.1719 Q72.8594 106.1719 72.2109 106.0234 Q71.5625 105.875 70.9219 105.5781 L70.9219 103.875 L71.5781 103.875 Q71.625 104.7188 72.1406 105.1562 Q72.6562 105.5938 73.5781 105.5938 Q74.4688 105.5938 74.9922 105.0703 Q75.5156 104.5469 75.5156 103.6562 Q75.5156 102.625 74.9766 102.0938 Q74.4375 101.5625 73.4062 101.5625 L72.8594 101.5625 L72.8594 100.9531 L73.1406 100.9531 Q74.1719 100.9531 74.6875 100.5312 Q75.2031 100.1094 75.2031 99.25 Q75.2031 98.4844 74.7812 98.0781 Q74.3594 97.6719 73.5625 97.6719 Q72.7656 97.6719 72.3359 98.0469 Q71.9062 98.4219 71.8281 99.1562 L71.1719 99.1562 L71.1719 97.625 Z" style="fill:black; stroke:none;" /><rect height="13" style="stroke:none;" width="7" x="56" y="94" /><path d="M57.8281 106.25 Q58.2969 106.5938 59.1719 106.5938 Q60.0625 106.5938 60.5781 106.0703 Q61.0938 105.5469 61.0938 104.6562 Q61.0938 103.4219 60.5625 102.8906 Q60.0156 102.3594 59 102.3594 L58.4375 102.3594 L58.4375 101.7188 L58.7344 101.7188 Q59.4844 101.7188 60 101.2969 Q60.4219 100.9531 60.4219 100.0156 Q60.4219 99.6094 60.1406 99.1406 Q59.6875 98.375 59.1562 98.3906 Q57.8281 98.4375 57.8281 100.7812 L57.8281 106.25 ZM56.75 109.5 L56.75 100.7812 Q56.75 98.3281 58.0781 98 Q58.7656 97.8125 59.25 97.8125 Q60.3438 97.8125 61.0469 98.6719 Q61.6094 99.3594 61.6094 99.9375 Q61.6094 100.7812 61.2031 101.2656 Q60.7969 101.75 60.0625 101.9844 Q61.1406 102.1406 61.75 102.7812 Q62.3281 103.4062 62.3281 104.6328 Q62.3281 105.8594 61.5078 106.5156 Q60.6875 107.1719 59.1406 107.1719 Q58.1875 107.1719 57.8281 107.0312 L57.8281 109.5 L56.75 109.5 Z" style="fill:black; stroke:none;" /></g><g ID="li-1:3,7" style="fill:white; text-rendering:optimizeSpeed; font-family:'Serif'; stroke:white;"><rect height="9" style="stroke:none;" width="8" x="81" y="69" /><path d="M85.1875 75.0312 L85.1875 70.375 L82.2031 75.0312 L85.1875 75.0312 ZM87.7656 78 L83.7812 78 L83.7812 77.375 L85.1875 77.375 L85.1875 75.6562 L81.375 75.6562 L81.375 75.0156 L85.2031 69.0938 L86.3594 69.0938 L86.3594 75.0312 L88.0312 75.0312 L88.0312 75.6562 L86.3594 75.6562 L86.3594 77.375 L87.7656 77.375 L87.7656 78 Z" style="fill:black; stroke:none;" /><rect height="8" style="stroke:none;" width="8" x="81" y="56" /><path d="M86.1875 62.4688 L85.9531 63.1094 Q85.7656 63.625 85.2031 63.9375 Q84.8438 64.1562 84.2031 64.1406 Q83.0469 64.1406 82.3281 63.2344 Q81.5938 62.3281 81.5938 60.8594 Q81.5938 59.4219 82.3281 58.4844 Q83.0156 57.5938 84.4531 57.6094 Q85.4531 57.6094 85.9531 58 Q86.4062 58.3438 86.5781 59.0938 L86.625 59.3125 L86.8438 58.6719 Q87.0625 58.0469 87.6562 57.75 L88.25 57.75 L88.25 58.0938 Q87.6875 58.2656 87.5 58.8125 L86.8906 60.4844 L87.2969 62.2812 Q87.5 63.2031 87.7344 63.2969 Q88.0469 63.4375 88.7812 63 L88.7812 63.7188 Q87.5938 64.4062 86.75 63.6875 Q86.375 63.3594 86.2656 62.875 L86.1875 62.4688 ZM85.9219 61.3125 L85.5625 59.5938 Q85.2656 58.2188 84.4688 58.2188 Q83.7969 58.2031 83.2812 58.9375 Q82.8594 59.5156 82.8594 60.875 Q82.8594 62.1719 83.2812 62.8281 Q83.75 63.5469 84.5312 63.5 Q85.2031 63.4375 85.6875 62 L85.9219 61.3125 Z" style="fill:black; stroke:none;" /></g><g ID="li-1:1,2" style="fill:white; text-rendering:optimizeSpeed; font-family:'Serif'; stroke:white;"><rect height="10" style="stroke:none;" width="7" x="128" y="146" /><path d="M129.1719 147.625 Q129.8594 147.3594 130.4844 147.2266 Q131.1094 147.0938 131.6562 147.0938 Q132.9531 147.0938 133.6719 147.6484 Q134.3906 148.2031 134.3906 149.1875 Q134.3906 149.9688 133.8906 150.5 Q133.3906 151.0312 132.4844 151.2188 Q133.5625 151.375 134.1562 152.0078 Q134.75 152.6406 134.75 153.6406 Q134.75 154.8594 133.9219 155.5156 Q133.0938 156.1719 131.5469 156.1719 Q130.8594 156.1719 130.2109 156.0234 Q129.5625 155.875 128.9219 155.5781 L128.9219 153.875 L129.5781 153.875 Q129.625 154.7188 130.1406 155.1562 Q130.6562 155.5938 131.5781 155.5938 Q132.4688 155.5938 132.9922 155.0703 Q133.5156 154.5469 133.5156 153.6562 Q133.5156 152.625 132.9766 152.0938 Q132.4375 151.5625 131.4062 151.5625 L130.8594 151.5625 L130.8594 150.9531 L131.1406 150.9531 Q132.1719 150.9531 132.6875 150.5312 Q133.2031 150.1094 133.2031 149.25 Q133.2031 148.4844 132.7812 148.0781 Q132.3594 147.6719 131.5625 147.6719 Q130.7656 147.6719 130.3359 148.0469 Q129.9062 148.4219 129.8281 149.1562 L129.1719 149.1562 L129.1719 147.625 Z" style="fill:black; stroke:none;" /><rect height="13" style="stroke:none;" width="7" x="111" y="157" /><path d="M112.8281 169.25 Q113.2969 169.5938 114.1719 169.5938 Q115.0625 169.5938 115.5781 169.0703 Q116.0938 168.5469 116.0938 167.6562 Q116.0938 166.4219 115.5625 165.8906 Q115.0156 165.3594 114 165.3594 L113.4375 165.3594 L113.4375 164.7188 L113.7344 164.7188 Q114.4844 164.7188 115 164.2969 Q115.4219 163.9531 115.4219 163.0156 Q115.4219 162.6094 115.1406 162.1406 Q114.6875 161.375 114.1562 161.3906 Q112.8281 161.4375 112.8281 163.7812 L112.8281 169.25 ZM111.75 172.5 L111.75 163.7812 Q111.75 161.3281 113.0781 161 Q113.7656 160.8125 114.25 160.8125 Q115.3438 160.8125 116.0469 161.6719 Q116.6094 162.3594 116.6094 162.9375 Q116.6094 163.7812 116.2031 164.2656 Q115.7969 164.75 115.0625 164.9844 Q116.1406 165.1406 116.75 165.7812 Q117.3281 166.4062 117.3281 167.6328 Q117.3281 168.8594 116.5078 169.5156 Q115.6875 170.1719 114.1406 170.1719 Q113.1875 170.1719 112.8281 170.0312 L112.8281 172.5 L111.75 172.5 Z" style="fill:black; stroke:none;" /></g><g ID="li-1:1,3" style="fill:white; text-rendering:optimizeSpeed; font-family:'Serif'; stroke:white;"><rect height="10" style="stroke:none;" width="7" x="119" y="120" /><path d="M122.9219 129.5938 Q123.75 129.5938 124.1953 128.9844 Q124.6406 128.375 124.6406 127.2344 Q124.6406 126.1094 124.1953 125.5 Q123.75 124.8906 122.9219 124.8906 Q122.0938 124.8906 121.6484 125.4766 Q121.2031 126.0625 121.2031 127.1719 Q121.2031 128.3281 121.6484 128.9609 Q122.0938 129.5938 122.9219 129.5938 ZM121.0156 125.1875 Q121.4219 124.75 121.9219 124.5312 Q122.4219 124.3125 123.0625 124.3125 Q124.3594 124.3125 125.1172 125.0938 Q125.875 125.875 125.875 127.2344 Q125.875 128.5625 125.0625 129.3672 Q124.25 130.1719 122.875 130.1719 Q121.3906 130.1719 120.5938 129.0625 Q119.7969 127.9531 119.7969 125.9062 Q119.7969 123.6094 120.7422 122.3516 Q121.6875 121.0938 123.4062 121.0938 Q123.875 121.0938 124.3828 121.1797 Q124.8906 121.2656 125.4219 121.4375 L125.4219 122.8906 L124.7656 122.8906 Q124.6875 122.2969 124.3047 121.9844 Q123.9219 121.6719 123.2812 121.6719 Q122.1406 121.6719 121.5859 122.5312 Q121.0312 123.3906 121.0156 125.1875 Z" style="fill:black; stroke:none;" /><rect height="13" style="stroke:none;" width="7" x="102" y="105" /><path d="M103.8281 117.25 Q104.2969 117.5938 105.1719 117.5938 Q106.0625 117.5938 106.5781 117.0703 Q107.0938 116.5469 107.0938 115.6562 Q107.0938 114.4219 106.5625 113.8906 Q106.0156 113.3594 105 113.3594 L104.4375 113.3594 L104.4375 112.7188 L104.7344 112.7188 Q105.4844 112.7188 106 112.2969 Q106.4219 111.9531 106.4219 111.0156 Q106.4219 110.6094 106.1406 110.1406 Q105.6875 109.375 105.1562 109.3906 Q103.8281 109.4375 103.8281 111.7812 L103.8281 117.25 ZM102.75 120.5 L102.75 111.7812 Q102.75 109.3281 104.0781 109 Q104.7656 108.8125 105.25 108.8125 Q106.3438 108.8125 107.0469 109.6719 Q107.6094 110.3594 107.6094 110.9375 Q107.6094 111.7812 107.2031 112.2656 Q106.7969 112.75 106.0625 112.9844 Q107.1406 113.1406 107.75 113.7812 Q108.3281 114.4062 108.3281 115.6328 Q108.3281 116.8594 107.5078 117.5156 Q106.6875 118.1719 105.1406 118.1719 Q104.1875 118.1719 103.8281 118.0312 L103.8281 120.5 L102.75 120.5 Z" style="fill:black; stroke:none;" /></g></g></svg>