<svg xmlns="http://www.w3.org/2000/svg" style="fill-opacity:1; color-rendering:auto; color-interpolation:auto; text-rendering:auto; stroke:black; stroke-linecap:square; stroke-miterlimit:10; shape-rendering:auto; stroke-opacity:1; fill:black; stroke-dasharray:none; font-weight:normal; stroke-width:1; font-family:'Dialog'; font-style:normal; stroke-linejoin:miter; font-size:12px; stroke-dashoffset:0; image-rendering:auto;"><defs id="genericDefs" /><g><defs id="defs1"><clipPath clipPathUnits="userSpaceOnUse" id="clipPath1"><path d="M238 95 L260 95 L260 117 L238 117 L238 95 Z" /></clipPath><clipPath clipPathUnits="userSpaceOnUse" id="clipPath2"><path d="M186 95 L208 95 L208 117 L186 117 L186 95 Z" /></clipPath><clipPath clipPathUnits="userSpaceOnUse" id="clipPath3"><path d="M156 106 C156 112.0751 151.0751 117 145 117 C138.9249 117 134 112.0751 134 106 C134 99.9249 138.9249 95 145 95 C151.0751 95 156 99.9249 156 106 Z" /></clipPath><clipPath clipPathUnits="userSpaceOnUse" id="clipPath4"><path d="M104 145 C104 151.0751 99.0751 156 93 156 C86.9249 156 82 151.0751 82 145 C82 138.9249 86.9249 134 93 134 C99.0751 134 104 138.9249 104 145 Z" /></clipPath><clipPath clipPathUnits="userSpaceOnUse" id="clipPath5"><path d="M52 145 C52 151.0751 47.0751 156 41 156 C34.9249 156 30 151.0751 30 145 C30 138.9249 34.9249 134 41 134 C47.0751 134 52 138.9249 52 145 Z" /></clipPath><clipPath clipPathUnits="userSpaceOnUse" id="clipPath6"><path d="M104 67 C104 73.0751 99.0751 78 93 78 C86.9249 78 82 73.0751 82 67 C82 60.9249 86.9249 56 93 56 C99.0751 56 104 60.9249 104 67 Z" /></clipPath><clipPath clipPathUnits="userSpaceOnUse" id="clipPath7"><path d="M52 93 C52 99.0751 47.0751 104 41 104 C34.9249 104 30 99.0751 30 93 C30 86.9249 34.9249 82 41 82 C47.0751 82 52 86.9249 52 93 Z" /></clipPath><clipPath clipPathUnits="userSpaceOnUse" id="clipPath8"><path d="M52 41 C52 47.0751 47.0751 52 41 52 C34.9249 52 30 47.0751 30 41 C30 34.9249 34.9249 30 41 30 C47.0751 30 52 34.9249 52 41 Z" /></clipPath></defs><g style="fill:white; text-rendering:optimizeSpeed; stroke:white;"><rect height="186" style="stroke:none;" width="290" x="0" y="0" /></g><g ID="l-1:1,2" style="text-rendering:optimizeSpeed;"><polygon points=" 249 106 197 106" style="fill:none;" /></g><g ID="r-1:1" style="fill:white; text-rendering:optimizeSpeed; stroke:white;" wurcs_mono_id="1"><rect height="22" style="clip-path:url(#clipPath1); stroke:none;" width="22" x="238" y="95" /><rect height="22" style="clip-path:url(#clipPath1); fill:rgb(0,144,188); stroke:none;" width="22" x="238" y="95" /><rect height="22" style="clip-path:url(#clipPath1); fill:none; stroke:black;" width="22" x="238" y="95" /><rect height="22" style="fill:none; stroke:black;" width="22" x="238" y="95" /></g><g ID="l-1:2,3" style="text-rendering:optimizeSpeed;"><polygon points=" 197 106 145 106" style="fill:none;" /></g><g ID="r-1:2" style="fill:white; text-rendering:optimizeSpeed; stroke:white;" wurcs_mono_id="2"><rect height="22" style="clip-path:url(#clipPath2); stroke:none;" width="22" x="186" y="95" /><rect height="22" style="clip-path:url(#clipPath2); fill:rgb(0,144,188); stroke:none;" width="22" x="186" y="95" /><rect height="22" style="clip-path:url(#clipPath2); fill:none; stroke:black;" width="22" x="186" y="95" /><rect height="22" style="fill:none; stroke:black;" width="22" x="186" y="95" /></g><g ID="l-1:3,4" style="text-rendering:optimizeSpeed;"><polygon points=" 145 106 93 145" style="fill:none;" /></g><g ID="l-1:3,5" style="text-rendering:optimizeSpeed;"><polygon points=" 145 106 93 67" style="fill:none;" /></g><g ID="r-1:3" style="fill:white; text-rendering:optimizeSpeed; stroke:white;" wurcs_mono_id="3"><circle cx="145" cy="106" r="11" style="clip-path:url(#clipPath3); stroke:none;" /><rect height="22" style="clip-path:url(#clipPath3); fill:rgb(0,166,81); stroke:none;" width="22" x="134" y="95" /><rect height="22" style="clip-path:url(#clipPath3); fill:none; stroke:black;" width="22" x="134" y="95" /><circle cx="145" cy="106" r="11" style="fill:none; stroke:black;" /></g><g ID="l-1:4,6" style="text-rendering:optimizeSpeed;"><polygon points=" 93 145 41 145" style="fill:none;" /></g><g ID="r-1:4" style="fill:white; text-rendering:optimizeSpeed; stroke:white;" wurcs_mono_id="4"><circle cx="93" cy="145" r="11" style="clip-path:url(#clipPath4); stroke:none;" /><rect height="22" style="clip-path:url(#clipPath4); fill:rgb(0,166,81); stroke:none;" width="22" x="82" y="134" /><rect height="22" style="clip-path:url(#clipPath4); fill:none; stroke:black;" width="22" x="82" y="134" /><circle cx="93" cy="145" r="11" style="fill:none; stroke:black;" /></g><g ID="r-1:6" style="fill:white; text-rendering:optimizeSpeed; stroke:white;" wurcs_mono_id="5"><circle cx="41" cy="145" r="11" style="clip-path:url(#clipPath5); stroke:none;" /><rect height="22" style="clip-path:url(#clipPath5); fill:rgb(0,166,81); stroke:none;" width="22" x="30" y="134" /><rect height="22" style="clip-path:url(#clipPath5); fill:none; stroke:black;" width="22" x="30" y="134" /><circle cx="41" cy="145" r="11" style="fill:none; stroke:black;" /></g><g ID="li-1:4,6" style="fill:white; text-rendering:optimizeSpeed; font-family:'Serif'; stroke:white;"><rect height="10" style="stroke:none;" width="6" x="71" y="148" /><path d="M73.1094 157.3906 Q73.1094 157.0625 73.3359 156.8359 Q73.5625 156.6094 73.8906 156.6094 Q74.2188 156.6094 74.4453 156.8359 Q74.6719 157.0625 74.6719 157.3906 Q74.6719 157.7188 74.4453 157.9453 Q74.2188 158.1719 73.8906 158.1719 Q73.5625 158.1719 73.3359 157.9453 Q73.1094 157.7188 73.1094 157.3906 ZM71.8125 149.6406 Q72.4375 149.3594 73 149.2266 Q73.5625 149.0938 74.0469 149.0938 Q75.3438 149.0938 76.1016 149.7188 Q76.8594 150.3438 76.8594 151.4062 Q76.8594 152.5 76.2109 153.1953 Q75.5625 153.8906 74.25 154.1875 L74.25 155.6719 L73.5312 155.6719 L73.5312 153.75 Q74.5625 153.5 75.0938 152.9062 Q75.625 152.3125 75.625 151.4062 Q75.625 150.5938 75.1953 150.1328 Q74.7656 149.6719 74.0312 149.6719 Q73.3594 149.6719 72.9297 150.0547 Q72.5 150.4375 72.3906 151.1562 L71.8125 151.1562 L71.8125 149.6406 Z" style="fill:black; stroke:none;" /><rect height="10" style="stroke:none;" width="6" x="57" y="148" /><path d="M59.1094 157.3906 Q59.1094 157.0625 59.3359 156.8359 Q59.5625 156.6094 59.8906 156.6094 Q60.2188 156.6094 60.4453 156.8359 Q60.6719 157.0625 60.6719 157.3906 Q60.6719 157.7188 60.4453 157.9453 Q60.2188 158.1719 59.8906 158.1719 Q59.5625 158.1719 59.3359 157.9453 Q59.1094 157.7188 59.1094 157.3906 ZM57.8125 149.6406 Q58.4375 149.3594 59 149.2266 Q59.5625 149.0938 60.0469 149.0938 Q61.3438 149.0938 62.1016 149.7188 Q62.8594 150.3438 62.8594 151.4062 Q62.8594 152.5 62.2109 153.1953 Q61.5625 153.8906 60.25 154.1875 L60.25 155.6719 L59.5312 155.6719 L59.5312 153.75 Q60.5625 153.5 61.0938 152.9062 Q61.625 152.3125 61.625 151.4062 Q61.625 150.5938 61.1953 150.1328 Q60.7656 149.6719 60.0312 149.6719 Q59.3594 149.6719 58.9297 150.0547 Q58.5 150.4375 58.3906 151.1562 L57.8125 151.1562 L57.8125 149.6406 Z" style="fill:black; stroke:none;" /></g><g ID="l-1:5,7" style="text-rendering:optimizeSpeed;"><polygon points=" 93 67 41 93" style="fill:none;" /></g><g ID="l-1:5,8" style="text-rendering:optimizeSpeed;"><polygon points=" 93 67 41 41" style="fill:none;" /></g><g ID="r-1:5" style="fill:white; text-rendering:optimizeSpeed; stroke:white;" wurcs_mono_id="6"><circle cx="93" cy="67" r="11" style="clip-path:url(#clipPath6); stroke:none;" /><rect height="22" style="clip-path:url(#clipPath6); fill:rgb(0,166,81); stroke:none;" width="22" x="82" y="56" /><rect height="22" style="clip-path:url(#clipPath6); fill:none; stroke:black;" width="22" x="82" y="56" /><circle cx="93" cy="67" r="11" style="fill:none; stroke:black;" /></g><g ID="r-1:7" style="fill:white; text-rendering:optimizeSpeed; stroke:white;" wurcs_mono_id="8"><circle cx="41" cy="93" r="11" style="clip-path:url(#clipPath7); stroke:none;" /><rect height="22" style="clip-path:url(#clipPath7); fill:rgb(0,166,81); stroke:none;" width="22" x="30" y="82" /><rect height="22" style="clip-path:url(#clipPath7); fill:none; stroke:black;" width="22" x="30" y="82" /><circle cx="41" cy="93" r="11" style="fill:none; stroke:black;" /></g><g ID="r-1:8" style="fill:white; text-rendering:optimizeSpeed; stroke:white;" wurcs_mono_id="7"><circle cx="41" cy="41" r="11" style="clip-path:url(#clipPath8); stroke:none;" /><rect height="22" style="clip-path:url(#clipPath8); fill:rgb(0,166,81); stroke:none;" width="22" x="30" y="30" /><rect height="22" style="clip-path:url(#clipPath8); fill:none; stroke:black;" width="22" x="30" y="30" /><circle cx="41" cy="41" r="11" style="fill:none; stroke:black;" /></g><g ID="li-1:5,7" style="fill:white; text-rendering:optimizeSpeed; font-family:'Serif'; stroke:white;"><rect height="10" style="stroke:none;" width="6" x="75" y="78" /><path d="M77.1094 87.3906 Q77.1094 87.0625 77.3359 86.8359 Q77.5625 86.6094 77.8906 86.6094 Q78.2188 86.6094 78.4453 86.8359 Q78.6719 87.0625 78.6719 87.3906 Q78.6719 87.7188 78.4453 87.9453 Q78.2188 88.1719 77.8906 88.1719 Q77.5625 88.1719 77.3359 87.9453 Q77.1094 87.7188 77.1094 87.3906 ZM75.8125 79.6406 Q76.4375 79.3594 77 79.2266 Q77.5625 79.0938 78.0469 79.0938 Q79.3438 79.0938 80.1016 79.7188 Q80.8594 80.3438 80.8594 81.4062 Q80.8594 82.5 80.2109 83.1953 Q79.5625 83.8906 78.25 84.1875 L78.25 85.6719 L77.5312 85.6719 L77.5312 83.75 Q78.5625 83.5 79.0938 82.9062 Q79.625 82.3125 79.625 81.4062 Q79.625 80.5938 79.1953 80.1328 Q78.7656 79.6719 78.0312 79.6719 Q77.3594 79.6719 76.9297 80.0547 Q76.5 80.4375 76.3906 81.1562 L75.8125 81.1562 L75.8125 79.6406 Z" style="fill:black; stroke:none;" /><rect height="10" style="stroke:none;" width="6" x="59" y="86" /><path d="M61.1094 95.3906 Q61.1094 95.0625 61.3359 94.8359 Q61.5625 94.6094 61.8906 94.6094 Q62.2188 94.6094 62.4453 94.8359 Q62.6719 95.0625 62.6719 95.3906 Q62.6719 95.7188 62.4453 95.9453 Q62.2188 96.1719 61.8906 96.1719 Q61.5625 96.1719 61.3359 95.9453 Q61.1094 95.7188 61.1094 95.3906 ZM59.8125 87.6406 Q60.4375 87.3594 61 87.2266 Q61.5625 87.0938 62.0469 87.0938 Q63.3438 87.0938 64.1016 87.7188 Q64.8594 88.3438 64.8594 89.4062 Q64.8594 90.5 64.2109 91.1953 Q63.5625 91.8906 62.25 92.1875 L62.25 93.6719 L61.5312 93.6719 L61.5312 91.75 Q62.5625 91.5 63.0938 90.9062 Q63.625 90.3125 63.625 89.4062 Q63.625 88.5938 63.1953 88.1328 Q62.7656 87.6719 62.0312 87.6719 Q61.3594 87.6719 60.9297 88.0547 Q60.5 88.4375 60.3906 89.1562 L59.8125 89.1562 L59.8125 87.6406 Z" style="fill:black; stroke:none;" /></g><g ID="li-1:5,8" style="fill:white; text-rendering:optimizeSpeed; font-family:'Serif'; stroke:white;"><rect height="10" style="stroke:none;" width="6" x="68" y="60" /><path d="M70.1094 69.3906 Q70.1094 69.0625 70.3359 68.8359 Q70.5625 68.6094 70.8906 68.6094 Q71.2188 68.6094 71.4453 68.8359 Q71.6719 69.0625 71.6719 69.3906 Q71.6719 69.7188 71.4453 69.9453 Q71.2188 70.1719 70.8906 70.1719 Q70.5625 70.1719 70.3359 69.9453 Q70.1094 69.7188 70.1094 69.3906 ZM68.8125 61.6406 Q69.4375 61.3594 70 61.2266 Q70.5625 61.0938 71.0469 61.0938 Q72.3438 61.0938 73.1016 61.7188 Q73.8594 62.3438 73.8594 63.4062 Q73.8594 64.5 73.2109 65.1953 Q72.5625 65.8906 71.25 66.1875 L71.25 67.6719 L70.5312 67.6719 L70.5312 65.75 Q71.5625 65.5 72.0938 64.9062 Q72.625 64.3125 72.625 63.4062 Q72.625 62.5938 72.1953 62.1328 Q71.7656 61.6719 71.0312 61.6719 Q70.3594 61.6719 69.9297 62.0547 Q69.5 62.4375 69.3906 63.1562 L68.8125 63.1562 L68.8125 61.6406 Z" style="fill:black; stroke:none;" /><rect height="10" style="stroke:none;" width="6" x="52" y="52" /><path d="M54.1094 61.3906 Q54.1094 61.0625 54.3359 60.8359 Q54.5625 60.6094 54.8906 60.6094 Q55.2188 60.6094 55.4453 60.8359 Q55.6719 61.0625 55.6719 61.3906 Q55.6719 61.7188 55.4453 61.9453 Q55.2188 62.1719 54.8906 62.1719 Q54.5625 62.1719 54.3359 61.9453 Q54.1094 61.7188 54.1094 61.3906 ZM52.8125 53.6406 Q53.4375 53.3594 54 53.2266 Q54.5625 53.0938 55.0469 53.0938 Q56.3438 53.0938 57.1016 53.7188 Q57.8594 54.3438 57.8594 55.4062 Q57.8594 56.5 57.2109 57.1953 Q56.5625 57.8906 55.25 58.1875 L55.25 59.6719 L54.5312 59.6719 L54.5312 57.75 Q55.5625 57.5 56.0938 56.9062 Q56.625 56.3125 56.625 55.4062 Q56.625 54.5938 56.1953 54.1328 Q55.7656 53.6719 55.0312 53.6719 Q54.3594 53.6719 53.9297 54.0547 Q53.5 54.4375 53.3906 55.1562 L52.8125 55.1562 L52.8125 53.6406 Z" style="fill:black; stroke:none;" /></g><g ID="li-1:3,4" style="fill:white; text-rendering:optimizeSpeed; font-family:'Serif'; stroke:white;"><rect height="10" style="stroke:none;" width="7" x="128" y="120" /><path d="M129.1719 121.625 Q129.8594 121.3594 130.4844 121.2266 Q131.1094 121.0938 131.6562 121.0938 Q132.9531 121.0938 133.6719 121.6484 Q134.3906 122.2031 134.3906 123.1875 Q134.3906 123.9688 133.8906 124.5 Q133.3906 125.0312 132.4844 125.2188 Q133.5625 125.375 134.1562 126.0078 Q134.75 126.6406 134.75 127.6406 Q134.75 128.8594 133.9219 129.5156 Q133.0938 130.1719 131.5469 130.1719 Q130.8594 130.1719 130.2109 130.0234 Q129.5625 129.875 128.9219 129.5781 L128.9219 127.875 L129.5781 127.875 Q129.625 128.7188 130.1406 129.1562 Q130.6562 129.5938 131.5781 129.5938 Q132.4688 129.5938 132.9922 129.0703 Q133.5156 128.5469 133.5156 127.6562 Q133.5156 126.625 132.9766 126.0938 Q132.4375 125.5625 131.4062 125.5625 L130.8594 125.5625 L130.8594 124.9531 L131.1406 124.9531 Q132.1719 124.9531 132.6875 124.5312 Q133.2031 124.1094 133.2031 123.25 Q133.2031 122.4844 132.7812 122.0781 Q132.3594 121.6719 131.5625 121.6719 Q130.7656 121.6719 130.3359 122.0469 Q129.9062 122.4219 129.8281 123.1562 L129.1719 123.1562 L129.1719 121.625 Z" style="fill:black; stroke:none;" /><rect height="8" style="stroke:none;" width="8" x="111" y="134" /><path d="M116.1875 140.4688 L115.9531 141.1094 Q115.7656 141.625 115.2031 141.9375 Q114.8438 142.1562 114.2031 142.1406 Q113.0469 142.1406 112.3281 141.2344 Q111.5938 140.3281 111.5938 138.8594 Q111.5938 137.4219 112.3281 136.4844 Q113.0156 135.5938 114.4531 135.6094 Q115.4531 135.6094 115.9531 136 Q116.4062 136.3438 116.5781 137.0938 L116.625 137.3125 L116.8438 136.6719 Q117.0625 136.0469 117.6562 135.75 L118.25 135.75 L118.25 136.0938 Q117.6875 136.2656 117.5 136.8125 L116.8906 138.4844 L117.2969 140.2812 Q117.5 141.2031 117.7344 141.2969 Q118.0469 141.4375 118.7812 141 L118.7812 141.7188 Q117.5938 142.4062 116.75 141.6875 Q116.375 141.3594 116.2656 140.875 L116.1875 140.4688 ZM115.9219 139.3125 L115.5625 137.5938 Q115.2656 136.2188 114.4688 136.2188 Q113.7969 136.2031 113.2812 136.9375 Q112.8594 137.5156 112.8594 138.875 Q112.8594 140.1719 113.2812 140.8281 Q113.75 141.5469 114.5312 141.5 Q115.2031 141.4375 115.6875 140 L115.9219 139.3125 Z" style="fill:black; stroke:none;" /></g><g ID="li-1:3,5" style="fill:white; text-rendering:optimizeSpeed; font-family:'Serif'; stroke:white;"><rect height="10" style="stroke:none;" width="7" x="119" y="94" /><path d="M122.9219 103.5938 Q123.75 103.5938 124.1953 102.9844 Q124.6406 102.375 124.6406 101.2344 Q124.6406 100.1094 124.1953 99.5 Q123.75 98.8906 122.9219 98.8906 Q122.0938 98.8906 121.6484 99.4766 Q121.2031 100.0625 121.2031 101.1719 Q121.2031 102.3281 121.6484 102.9609 Q122.0938 103.5938 122.9219 103.5938 ZM121.0156 99.1875 Q121.4219 98.75 121.9219 98.5312 Q122.4219 98.3125 123.0625 98.3125 Q124.3594 98.3125 125.1172 99.0938 Q125.875 99.875 125.875 101.2344 Q125.875 102.5625 125.0625 103.3672 Q124.25 104.1719 122.875 104.1719 Q121.3906 104.1719 120.5938 103.0625 Q119.7969 101.9531 119.7969 99.9062 Q119.7969 97.6094 120.7422 96.3516 Q121.6875 95.0938 123.4062 95.0938 Q123.875 95.0938 124.3828 95.1797 Q124.8906 95.2656 125.4219 95.4375 L125.4219 96.8906 L124.7656 96.8906 Q124.6875 96.2969 124.3047 95.9844 Q123.9219 95.6719 123.2812 95.6719 Q122.1406 95.6719 121.5859 96.5312 Q121.0312 97.3906 121.0156 99.1875 Z" style="fill:black; stroke:none;" /><rect height="8" style="stroke:none;" width="8" x="101" y="82" /><path d="M106.1875 88.4688 L105.9531 89.1094 Q105.7656 89.625 105.2031 89.9375 Q104.8438 90.1562 104.2031 90.1406 Q103.0469 90.1406 102.3281 89.2344 Q101.5938 88.3281 101.5938 86.8594 Q101.5938 85.4219 102.3281 84.4844 Q103.0156 83.5938 104.4531 83.6094 Q105.4531 83.6094 105.9531 84 Q106.4062 84.3438 106.5781 85.0938 L106.625 85.3125 L106.8438 84.6719 Q107.0625 84.0469 107.6562 83.75 L108.25 83.75 L108.25 84.0938 Q107.6875 84.2656 107.5 84.8125 L106.8906 86.4844 L107.2969 88.2812 Q107.5 89.2031 107.7344 89.2969 Q108.0469 89.4375 108.7812 89 L108.7812 89.7188 Q107.5938 90.4062 106.75 89.6875 Q106.375 89.3594 106.2656 88.875 L106.1875 88.4688 ZM105.9219 87.3125 L105.5625 85.5938 Q105.2656 84.2188 104.4688 84.2188 Q103.7969 84.2031 103.2812 84.9375 Q102.8594 85.5156 102.8594 86.875 Q102.8594 88.1719 103.2812 88.8281 Q103.75 89.5469 104.5312 89.5 Q105.2031 89.4375 105.6875 88 L105.9219 87.3125 Z" style="fill:black; stroke:none;" /></g><g ID="li-1:2,3" style="fill:white; text-rendering:optimizeSpeed; font-family:'Serif'; stroke:white;"><rect height="9" style="stroke:none;" width="8" x="174" y="109" /><path d="M178.1875 115.0312 L178.1875 110.375 L175.2031 115.0312 L178.1875 115.0312 ZM180.7656 118 L176.7812 118 L176.7812 117.375 L178.1875 117.375 L178.1875 115.6562 L174.375 115.6562 L174.375 115.0156 L178.2031 109.0938 L179.3594 109.0938 L179.3594 115.0312 L181.0312 115.0312 L181.0312 115.6562 L179.3594 115.6562 L179.3594 117.375 L180.7656 117.375 L180.7656 118 Z" style="fill:black; stroke:none;" /><rect height="13" style="stroke:none;" width="7" x="160" y="107" /><path d="M161.8281 119.25 Q162.2969 119.5938 163.1719 119.5938 Q164.0625 119.5938 164.5781 119.0703 Q165.0938 118.5469 165.0938 117.6562 Q165.0938 116.4219 164.5625 115.8906 Q164.0156 115.3594 163 115.3594 L162.4375 115.3594 L162.4375 114.7188 L162.7344 114.7188 Q163.4844 114.7188 164 114.2969 Q164.4219 113.9531 164.4219 113.0156 Q164.4219 112.6094 164.1406 112.1406 Q163.6875 111.375 163.1562 111.3906 Q161.8281 111.4375 161.8281 113.7812 L161.8281 119.25 ZM160.75 122.5 L160.75 113.7812 Q160.75 111.3281 162.0781 111 Q162.7656 110.8125 163.25 110.8125 Q164.3438 110.8125 165.0469 111.6719 Q165.6094 112.3594 165.6094 112.9375 Q165.6094 113.7812 165.2031 114.2656 Q164.7969 114.75 164.0625 114.9844 Q165.1406 115.1406 165.75 115.7812 Q166.3281 116.4062 166.3281 117.6328 Q166.3281 118.8594 165.5078 119.5156 Q164.6875 120.1719 163.1406 120.1719 Q162.1875 120.1719 161.8281 120.0312 L161.8281 122.5 L160.75 122.5 Z" style="fill:black; stroke:none;" /></g><g ID="li-1:1,2" style="fill:white; text-rendering:optimizeSpeed; font-family:'Serif'; stroke:white;"><rect height="9" style="stroke:none;" width="8" x="226" y="109" /><path d="M230.1875 115.0312 L230.1875 110.375 L227.2031 115.0312 L230.1875 115.0312 ZM232.7656 118 L228.7812 118 L228.7812 117.375 L230.1875 117.375 L230.1875 115.6562 L226.375 115.6562 L226.375 115.0156 L230.2031 109.0938 L231.3594 109.0938 L231.3594 115.0312 L233.0312 115.0312 L233.0312 115.6562 L231.3594 115.6562 L231.3594 117.375 L232.7656 117.375 L232.7656 118 Z" style="fill:black; stroke:none;" /><rect height="13" style="stroke:none;" width="7" x="212" y="107" /><path d="M213.8281 119.25 Q214.2969 119.5938 215.1719 119.5938 Q216.0625 119.5938 216.5781 119.0703 Q217.0938 118.5469 217.0938 117.6562 Q217.0938 116.4219 216.5625 115.8906 Q216.0156 115.3594 215 115.3594 L214.4375 115.3594 L214.4375 114.7188 L214.7344 114.7188 Q215.4844 114.7188 216 114.2969 Q216.4219 113.9531 216.4219 113.0156 Q216.4219 112.6094 216.1406 112.1406 Q215.6875 111.375 215.1562 111.3906 Q213.8281 111.4375 213.8281 113.7812 L213.8281 119.25 ZM212.75 122.5 L212.75 113.7812 Q212.75 111.3281 214.0781 111 Q214.7656 110.8125 215.25 110.8125 Q216.3438 110.8125 217.0469 111.6719 Q217.6094 112.3594 217.6094 112.9375 Q217.6094 113.7812 217.2031 114.2656 Q216.7969 114.75 216.0625 114.9844 Q217.1406 115.1406 217.75 115.7812 Q218.3281 116.4062 218.3281 117.6328 Q218.3281 118.8594 217.5078 119.5156 Q216.6875 120.1719 215.1406 120.1719 Q214.1875 120.1719 213.8281 120.0312 L213.8281 122.5 L212.75 122.5 Z" style="fill:black; stroke:none;" /></g></g></svg>