<svg xmlns="http://www.w3.org/2000/svg" style="fill-opacity:1; color-rendering:auto; color-interpolation:auto; text-rendering:auto; stroke:black; stroke-linecap:square; stroke-miterlimit:10; shape-rendering:auto; stroke-opacity:1; fill:black; stroke-dasharray:none; font-weight:normal; stroke-width:1; font-family:'Dialog'; font-style:normal; stroke-linejoin:miter; font-size:12px; stroke-dashoffset:0; image-rendering:auto;"><defs id="genericDefs" /><g><defs id="defs1"><clipPath clipPathUnits="userSpaceOnUse" id="clipPath1"><path d="M342 82 L364 82 L364 104 L342 104 L342 82 Z" /></clipPath><clipPath clipPathUnits="userSpaceOnUse" id="clipPath2"><path d="M290 82 L312 82 L312 104 L290 104 L290 82 Z" /></clipPath><clipPath clipPathUnits="userSpaceOnUse" id="clipPath3"><path d="M260 93 C260 99.0751 255.0751 104 249 104 C242.9249 104 238 99.0751 238 93 C238 86.9249 242.9249 82 249 82 C255.0751 82 260 86.9249 260 93 Z" /></clipPath><clipPath clipPathUnits="userSpaceOnUse" id="clipPath4"><path d="M208 132 C208 138.0751 203.0751 143 197 143 C190.9249 143 186 138.0751 186 132 C186 125.9249 190.9249 121 197 121 C203.0751 121 208 125.9249 208 132 Z" /></clipPath><clipPath clipPathUnits="userSpaceOnUse" id="clipPath5"><path d="M134 121 L156 121 L156 143 L134 143 L134 121 Z" /></clipPath><clipPath clipPathUnits="userSpaceOnUse" id="clipPath6"><path d="M104 132 C104 138.0751 99.0751 143 93 143 C86.9249 143 82 138.0751 82 132 C82 125.9249 86.9249 121 93 121 C99.0751 121 104 125.9249 104 132 Z" /></clipPath><clipPath clipPathUnits="userSpaceOnUse" id="clipPath7"><path d="M41 147 L52 158 L41 169 L30 158 Z" style="fill-rule:evenodd;" /></clipPath><clipPath clipPathUnits="userSpaceOnUse" id="clipPath8"><path d="M52 106 C52 112.0751 47.0751 117 41 117 C34.9249 117 30 112.0751 30 106 C30 99.9249 34.9249 95 41 95 C47.0751 95 52 99.9249 52 106 Z" /></clipPath><clipPath clipPathUnits="userSpaceOnUse" id="clipPath9"><path d="M208 54 C208 60.0751 203.0751 65 197 65 C190.9249 65 186 60.0751 186 54 C186 47.9249 190.9249 43 197 43 C203.0751 43 208 47.9249 208 54 Z" /></clipPath><clipPath clipPathUnits="userSpaceOnUse" id="clipPath10"><path d="M134 43 L156 43 L156 65 L134 65 L134 43 Z" /></clipPath><clipPath clipPathUnits="userSpaceOnUse" id="clipPath11"><path d="M104 54 C104 60.0751 99.0751 65 93 65 C86.9249 65 82 60.0751 82 54 C82 47.9249 86.9249 43 93 43 C99.0751 43 104 47.9249 104 54 Z" /></clipPath><clipPath clipPathUnits="userSpaceOnUse" id="clipPath12"><path d="M41 43 L52 54 L41 65 L30 54 Z" style="fill-rule:evenodd;" /></clipPath><clipPath clipPathUnits="userSpaceOnUse" id="clipPath13"><path d="M353 52 L342 30 L364 30 Z" style="fill-rule:evenodd;" /></clipPath></defs><g style="fill:white; text-rendering:optimizeSpeed; stroke:white;"><rect height="199" style="stroke:none;" width="394" x="0" y="0" /></g><g ID="l-1:1,2" style="text-rendering:optimizeSpeed;"><polygon points=" 353 93 301 93" style="fill:none;" /></g><g ID="l-1:1,3" style="text-rendering:optimizeSpeed;"><polygon points=" 353 93 353 41" style="fill:none;" /></g><g ID="r-1:1" style="fill:white; text-rendering:optimizeSpeed; stroke:white;" wurcs_mono_id="1"><rect height="22" style="clip-path:url(#clipPath1); stroke:none;" width="22" x="342" y="82" /><rect height="22" style="clip-path:url(#clipPath1); fill:rgb(0,144,188); stroke:none;" width="22" x="342" y="82" /><rect height="22" style="clip-path:url(#clipPath1); fill:none; stroke:black;" width="22" x="342" y="82" /><rect height="22" style="fill:none; stroke:black;" width="22" x="342" y="82" /></g><g ID="l-1:2,4" style="text-rendering:optimizeSpeed;"><polygon points=" 301 93 249 93" style="fill:none;" /></g><g ID="r-1:2" style="fill:white; text-rendering:optimizeSpeed; stroke:white;" wurcs_mono_id="2"><rect height="22" style="clip-path:url(#clipPath2); stroke:none;" width="22" x="290" y="82" /><rect height="22" style="clip-path:url(#clipPath2); fill:rgb(0,144,188); stroke:none;" width="22" x="290" y="82" /><rect height="22" style="clip-path:url(#clipPath2); fill:none; stroke:black;" width="22" x="290" y="82" /><rect height="22" style="fill:none; stroke:black;" width="22" x="290" y="82" /></g><g ID="l-1:4,5" style="text-rendering:optimizeSpeed;"><polygon points=" 249 93 197 132" style="fill:none;" /></g><g ID="l-1:4,6" style="text-rendering:optimizeSpeed;"><polygon points=" 249 93 197 54" style="fill:none;" /></g><g ID="r-1:4" style="fill:white; text-rendering:optimizeSpeed; stroke:white;" wurcs_mono_id="3"><circle cx="249" cy="93" r="11" style="clip-path:url(#clipPath3); stroke:none;" /><rect height="22" style="clip-path:url(#clipPath3); fill:rgb(0,166,81); stroke:none;" width="22" x="238" y="82" /><rect height="22" style="clip-path:url(#clipPath3); fill:none; stroke:black;" width="22" x="238" y="82" /><circle cx="249" cy="93" r="11" style="fill:none; stroke:black;" /></g><g ID="l-1:5,7" style="text-rendering:optimizeSpeed;"><polygon points=" 197 132 145 132" style="fill:none;" /></g><g ID="r-1:5" style="fill:white; text-rendering:optimizeSpeed; stroke:white;" wurcs_mono_id="4"><circle cx="197" cy="132" r="11" style="clip-path:url(#clipPath4); stroke:none;" /><rect height="22" style="clip-path:url(#clipPath4); fill:rgb(0,166,81); stroke:none;" width="22" x="186" y="121" /><rect height="22" style="clip-path:url(#clipPath4); fill:none; stroke:black;" width="22" x="186" y="121" /><circle cx="197" cy="132" r="11" style="fill:none; stroke:black;" /></g><g ID="l-1:7,8" style="text-rendering:optimizeSpeed;"><polygon points=" 145 132 93 132" style="fill:none;" /></g><g ID="r-1:7" style="fill:white; text-rendering:optimizeSpeed; stroke:white;" wurcs_mono_id="5"><rect height="22" style="clip-path:url(#clipPath5); stroke:none;" width="22" x="134" y="121" /><rect height="22" style="clip-path:url(#clipPath5); fill:rgb(0,144,188); stroke:none;" width="22" x="134" y="121" /><rect height="22" style="clip-path:url(#clipPath5); fill:none; stroke:black;" width="22" x="134" y="121" /><rect height="22" style="fill:none; stroke:black;" width="22" x="134" y="121" /></g><g ID="l-1:8,9" style="text-rendering:optimizeSpeed;"><polygon points=" 93 132 41 158" style="fill:none;" /></g><g ID="l-1:8,10" style="text-rendering:optimizeSpeed;"><polygon points=" 93 132 41 106" style="fill:none;" /></g><g ID="r-1:8" style="fill:white; text-rendering:optimizeSpeed; stroke:white;" wurcs_mono_id="6"><circle cx="93" cy="132" r="11" style="clip-path:url(#clipPath6); stroke:none;" /><rect height="22" style="clip-path:url(#clipPath6); fill:rgb(255,212,0); stroke:none;" width="22" x="82" y="121" /><rect height="22" style="clip-path:url(#clipPath6); fill:none; stroke:black;" width="22" x="82" y="121" /><circle cx="93" cy="132" r="11" style="fill:none; stroke:black;" /></g><g ID="r-1:9" style="fill:white; text-rendering:optimizeSpeed; stroke:white;" wurcs_mono_id="7"><polygon points=" 41 147 52 158 41 169 30 158" style="stroke:none; clip-path:url(#clipPath7);" /><rect height="22" style="clip-path:url(#clipPath7); fill:rgb(165,67,153); stroke:none;" width="22" x="30" y="147" /><rect height="22" style="clip-path:url(#clipPath7); fill:none; stroke:black;" width="22" x="30" y="147" /><polygon points=" 41 147 52 158 41 169 30 158" style="fill:none; stroke:black;" /></g><g ID="r-1:10" style="fill:white; text-rendering:optimizeSpeed; stroke:white;" wurcs_mono_id="8"><circle cx="41" cy="106" r="11" style="clip-path:url(#clipPath8); stroke:none;" /><rect height="22" style="clip-path:url(#clipPath8); fill:rgb(255,212,0); stroke:none;" width="22" x="30" y="95" /><rect height="22" style="clip-path:url(#clipPath8); fill:none; stroke:black;" width="22" x="30" y="95" /><circle cx="41" cy="106" r="11" style="fill:none; stroke:black;" /></g><g ID="li-1:8,9" style="fill:white; text-rendering:optimizeSpeed; font-family:'Serif'; stroke:white;"><rect height="10" style="stroke:none;" width="7" x="74" y="143" /><path d="M75.1719 144.625 Q75.8594 144.3594 76.4844 144.2266 Q77.1094 144.0938 77.6562 144.0938 Q78.9531 144.0938 79.6719 144.6484 Q80.3906 145.2031 80.3906 146.1875 Q80.3906 146.9688 79.8906 147.5 Q79.3906 148.0312 78.4844 148.2188 Q79.5625 148.375 80.1562 149.0078 Q80.75 149.6406 80.75 150.6406 Q80.75 151.8594 79.9219 152.5156 Q79.0938 153.1719 77.5469 153.1719 Q76.8594 153.1719 76.2109 153.0234 Q75.5625 152.875 74.9219 152.5781 L74.9219 150.875 L75.5781 150.875 Q75.625 151.7188 76.1406 152.1562 Q76.6562 152.5938 77.5781 152.5938 Q78.4688 152.5938 78.9922 152.0703 Q79.5156 151.5469 79.5156 150.6562 Q79.5156 149.625 78.9766 149.0938 Q78.4375 148.5625 77.4062 148.5625 L76.8594 148.5625 L76.8594 147.9531 L77.1406 147.9531 Q78.1719 147.9531 78.6875 147.5312 Q79.2031 147.1094 79.2031 146.25 Q79.2031 145.4844 78.7812 145.0781 Q78.3594 144.6719 77.5625 144.6719 Q76.7656 144.6719 76.3359 145.0469 Q75.9062 145.4219 75.8281 146.1562 L75.1719 146.1562 L75.1719 144.625 Z" style="fill:black; stroke:none;" /><rect height="8" style="stroke:none;" width="8" x="58" y="152" /><path d="M63.1875 158.4688 L62.9531 159.1094 Q62.7656 159.625 62.2031 159.9375 Q61.8438 160.1562 61.2031 160.1406 Q60.0469 160.1406 59.3281 159.2344 Q58.5938 158.3281 58.5938 156.8594 Q58.5938 155.4219 59.3281 154.4844 Q60.0156 153.5938 61.4531 153.6094 Q62.4531 153.6094 62.9531 154 Q63.4062 154.3438 63.5781 155.0938 L63.625 155.3125 L63.8438 154.6719 Q64.0625 154.0469 64.6562 153.75 L65.25 153.75 L65.25 154.0938 Q64.6875 154.2656 64.5 154.8125 L63.8906 156.4844 L64.2969 158.2812 Q64.5 159.2031 64.7344 159.2969 Q65.0469 159.4375 65.7812 159 L65.7812 159.7188 Q64.5938 160.4062 63.75 159.6875 Q63.375 159.3594 63.2656 158.875 L63.1875 158.4688 ZM62.9219 157.3125 L62.5625 155.5938 Q62.2656 154.2188 61.4688 154.2188 Q60.7969 154.2031 60.2812 154.9375 Q59.8594 155.5156 59.8594 156.875 Q59.8594 158.1719 60.2812 158.8281 Q60.75 159.5469 61.5312 159.5 Q62.2031 159.4375 62.6875 158 L62.9219 157.3125 Z" style="fill:black; stroke:none;" /></g><g ID="li-1:8,10" style="fill:white; text-rendering:optimizeSpeed; font-family:'Serif'; stroke:white;"><rect height="9" style="stroke:none;" width="8" x="67" y="125" /><path d="M71.1875 131.0312 L71.1875 126.375 L68.2031 131.0312 L71.1875 131.0312 ZM73.7656 134 L69.7812 134 L69.7812 133.375 L71.1875 133.375 L71.1875 131.6562 L67.375 131.6562 L67.375 131.0156 L71.2031 125.0938 L72.3594 125.0938 L72.3594 131.0312 L74.0312 131.0312 L74.0312 131.6562 L72.3594 131.6562 L72.3594 133.375 L73.7656 133.375 L73.7656 134 Z" style="fill:black; stroke:none;" /><rect height="13" style="stroke:none;" width="7" x="52" y="115" /><path d="M53.8281 127.25 Q54.2969 127.5938 55.1719 127.5938 Q56.0625 127.5938 56.5781 127.0703 Q57.0938 126.5469 57.0938 125.6562 Q57.0938 124.4219 56.5625 123.8906 Q56.0156 123.3594 55 123.3594 L54.4375 123.3594 L54.4375 122.7188 L54.7344 122.7188 Q55.4844 122.7188 56 122.2969 Q56.4219 121.9531 56.4219 121.0156 Q56.4219 120.6094 56.1406 120.1406 Q55.6875 119.375 55.1562 119.3906 Q53.8281 119.4375 53.8281 121.7812 L53.8281 127.25 ZM52.75 130.5 L52.75 121.7812 Q52.75 119.3281 54.0781 119 Q54.7656 118.8125 55.25 118.8125 Q56.3438 118.8125 57.0469 119.6719 Q57.6094 120.3594 57.6094 120.9375 Q57.6094 121.7812 57.2031 122.2656 Q56.7969 122.75 56.0625 122.9844 Q57.1406 123.1406 57.75 123.7812 Q58.3281 124.4062 58.3281 125.6328 Q58.3281 126.8594 57.5078 127.5156 Q56.6875 128.1719 55.1406 128.1719 Q54.1875 128.1719 53.8281 128.0312 L53.8281 130.5 L52.75 130.5 Z" style="fill:black; stroke:none;" /></g><g ID="li-1:7,8" style="fill:white; text-rendering:optimizeSpeed; font-family:'Serif'; stroke:white;"><rect height="9" style="stroke:none;" width="8" x="122" y="135" /><path d="M126.1875 141.0312 L126.1875 136.375 L123.2031 141.0312 L126.1875 141.0312 ZM128.7656 144 L124.7812 144 L124.7812 143.375 L126.1875 143.375 L126.1875 141.6562 L122.375 141.6562 L122.375 141.0156 L126.2031 135.0938 L127.3594 135.0938 L127.3594 141.0312 L129.0312 141.0312 L129.0312 141.6562 L127.3594 141.6562 L127.3594 143.375 L128.7656 143.375 L128.7656 144 Z" style="fill:black; stroke:none;" /><rect height="13" style="stroke:none;" width="7" x="108" y="133" /><path d="M109.8281 145.25 Q110.2969 145.5938 111.1719 145.5938 Q112.0625 145.5938 112.5781 145.0703 Q113.0938 144.5469 113.0938 143.6562 Q113.0938 142.4219 112.5625 141.8906 Q112.0156 141.3594 111 141.3594 L110.4375 141.3594 L110.4375 140.7188 L110.7344 140.7188 Q111.4844 140.7188 112 140.2969 Q112.4219 139.9531 112.4219 139.0156 Q112.4219 138.6094 112.1406 138.1406 Q111.6875 137.375 111.1562 137.3906 Q109.8281 137.4375 109.8281 139.7812 L109.8281 145.25 ZM108.75 148.5 L108.75 139.7812 Q108.75 137.3281 110.0781 137 Q110.7656 136.8125 111.25 136.8125 Q112.3438 136.8125 113.0469 137.6719 Q113.6094 138.3594 113.6094 138.9375 Q113.6094 139.7812 113.2031 140.2656 Q112.7969 140.75 112.0625 140.9844 Q113.1406 141.1406 113.75 141.7812 Q114.3281 142.4062 114.3281 143.6328 Q114.3281 144.8594 113.5078 145.5156 Q112.6875 146.1719 111.1406 146.1719 Q110.1875 146.1719 109.8281 146.0312 L109.8281 148.5 L108.75 148.5 Z" style="fill:black; stroke:none;" /></g><g ID="li-1:5,7" style="fill:white; text-rendering:optimizeSpeed; font-family:'Serif'; stroke:white;"><rect height="9" style="stroke:none;" width="7" x="174" y="135" /><path d="M175.5312 137.3438 L174.875 137.3438 L174.875 135.7812 Q175.5 135.4375 176.1406 135.2656 Q176.7812 135.0938 177.3906 135.0938 Q178.75 135.0938 179.5391 135.7578 Q180.3281 136.4219 180.3281 137.5469 Q180.3281 138.8438 178.5469 140.625 Q178.4062 140.7656 178.3281 140.8281 L176.125 143.0312 L179.7656 143.0312 L179.7656 141.9531 L180.4531 141.9531 L180.4531 144 L174.8125 144 L174.8125 143.3594 L177.4688 140.7188 Q178.3438 139.8281 178.7188 139.0938 Q179.0938 138.3594 179.0938 137.5469 Q179.0938 136.6719 178.6328 136.1719 Q178.1719 135.6719 177.375 135.6719 Q176.5312 135.6719 176.0781 136.0859 Q175.625 136.5 175.5312 137.3438 Z" style="fill:black; stroke:none;" /><rect height="13" style="stroke:none;" width="7" x="160" y="133" /><path d="M161.8281 145.25 Q162.2969 145.5938 163.1719 145.5938 Q164.0625 145.5938 164.5781 145.0703 Q165.0938 144.5469 165.0938 143.6562 Q165.0938 142.4219 164.5625 141.8906 Q164.0156 141.3594 163 141.3594 L162.4375 141.3594 L162.4375 140.7188 L162.7344 140.7188 Q163.4844 140.7188 164 140.2969 Q164.4219 139.9531 164.4219 139.0156 Q164.4219 138.6094 164.1406 138.1406 Q163.6875 137.375 163.1562 137.3906 Q161.8281 137.4375 161.8281 139.7812 L161.8281 145.25 ZM160.75 148.5 L160.75 139.7812 Q160.75 137.3281 162.0781 137 Q162.7656 136.8125 163.25 136.8125 Q164.3438 136.8125 165.0469 137.6719 Q165.6094 138.3594 165.6094 138.9375 Q165.6094 139.7812 165.2031 140.2656 Q164.7969 140.75 164.0625 140.9844 Q165.1406 141.1406 165.75 141.7812 Q166.3281 142.4062 166.3281 143.6328 Q166.3281 144.8594 165.5078 145.5156 Q164.6875 146.1719 163.1406 146.1719 Q162.1875 146.1719 161.8281 146.0312 L161.8281 148.5 L160.75 148.5 Z" style="fill:black; stroke:none;" /></g><g ID="l-1:6,11" style="text-rendering:optimizeSpeed;"><polygon points=" 197 54 145 54" style="fill:none;" /></g><g ID="r-1:6" style="fill:white; text-rendering:optimizeSpeed; stroke:white;" wurcs_mono_id="9"><circle cx="197" cy="54" r="11" style="clip-path:url(#clipPath9); stroke:none;" /><rect height="22" style="clip-path:url(#clipPath9); fill:rgb(0,166,81); stroke:none;" width="22" x="186" y="43" /><rect height="22" style="clip-path:url(#clipPath9); fill:none; stroke:black;" width="22" x="186" y="43" /><circle cx="197" cy="54" r="11" style="fill:none; stroke:black;" /></g><g ID="l-1:11,12" style="text-rendering:optimizeSpeed;"><polygon points=" 145 54 93 54" style="fill:none;" /></g><g ID="r-1:11" style="fill:white; text-rendering:optimizeSpeed; stroke:white;" wurcs_mono_id="10"><rect height="22" style="clip-path:url(#clipPath10); stroke:none;" width="22" x="134" y="43" /><rect height="22" style="clip-path:url(#clipPath10); fill:rgb(0,144,188); stroke:none;" width="22" x="134" y="43" /><rect height="22" style="clip-path:url(#clipPath10); fill:none; stroke:black;" width="22" x="134" y="43" /><rect height="22" style="fill:none; stroke:black;" width="22" x="134" y="43" /></g><g ID="l-1:12,13" style="text-rendering:optimizeSpeed;"><polygon points=" 93 54 41 54" style="fill:none;" /></g><g ID="r-1:12" style="fill:white; text-rendering:optimizeSpeed; stroke:white;" wurcs_mono_id="11"><circle cx="93" cy="54" r="11" style="clip-path:url(#clipPath11); stroke:none;" /><rect height="22" style="clip-path:url(#clipPath11); fill:rgb(255,212,0); stroke:none;" width="22" x="82" y="43" /><rect height="22" style="clip-path:url(#clipPath11); fill:none; stroke:black;" width="22" x="82" y="43" /><circle cx="93" cy="54" r="11" style="fill:none; stroke:black;" /></g><g ID="r-1:13" style="fill:white; text-rendering:optimizeSpeed; stroke:white;" wurcs_mono_id="12"><polygon points=" 41 43 52 54 41 65 30 54" style="stroke:none; clip-path:url(#clipPath12);" /><rect height="22" style="clip-path:url(#clipPath12); fill:rgb(165,67,153); stroke:none;" width="22" x="30" y="43" /><rect height="22" style="clip-path:url(#clipPath12); fill:none; stroke:black;" width="22" x="30" y="43" /><polygon points=" 41 43 52 54 41 65 30 54" style="fill:none; stroke:black;" /></g><g ID="li-1:12,13" style="fill:white; text-rendering:optimizeSpeed; font-family:'Serif'; stroke:white;"><rect height="10" style="stroke:none;" width="7" x="70" y="57" /><path d="M71.1719 58.625 Q71.8594 58.3594 72.4844 58.2266 Q73.1094 58.0938 73.6562 58.0938 Q74.9531 58.0938 75.6719 58.6484 Q76.3906 59.2031 76.3906 60.1875 Q76.3906 60.9688 75.8906 61.5 Q75.3906 62.0312 74.4844 62.2188 Q75.5625 62.375 76.1562 63.0078 Q76.75 63.6406 76.75 64.6406 Q76.75 65.8594 75.9219 66.5156 Q75.0938 67.1719 73.5469 67.1719 Q72.8594 67.1719 72.2109 67.0234 Q71.5625 66.875 70.9219 66.5781 L70.9219 64.875 L71.5781 64.875 Q71.625 65.7188 72.1406 66.1562 Q72.6562 66.5938 73.5781 66.5938 Q74.4688 66.5938 74.9922 66.0703 Q75.5156 65.5469 75.5156 64.6562 Q75.5156 63.625 74.9766 63.0938 Q74.4375 62.5625 73.4062 62.5625 L72.8594 62.5625 L72.8594 61.9531 L73.1406 61.9531 Q74.1719 61.9531 74.6875 61.5312 Q75.2031 61.1094 75.2031 60.25 Q75.2031 59.4844 74.7812 59.0781 Q74.3594 58.6719 73.5625 58.6719 Q72.7656 58.6719 72.3359 59.0469 Q71.9062 59.4219 71.8281 60.1562 L71.1719 60.1562 L71.1719 58.625 Z" style="fill:black; stroke:none;" /><rect height="8" style="stroke:none;" width="8" x="56" y="58" /><path d="M61.1875 64.4688 L60.9531 65.1094 Q60.7656 65.625 60.2031 65.9375 Q59.8438 66.1562 59.2031 66.1406 Q58.0469 66.1406 57.3281 65.2344 Q56.5938 64.3281 56.5938 62.8594 Q56.5938 61.4219 57.3281 60.4844 Q58.0156 59.5938 59.4531 59.6094 Q60.4531 59.6094 60.9531 60 Q61.4062 60.3438 61.5781 61.0938 L61.625 61.3125 L61.8438 60.6719 Q62.0625 60.0469 62.6562 59.75 L63.25 59.75 L63.25 60.0938 Q62.6875 60.2656 62.5 60.8125 L61.8906 62.4844 L62.2969 64.2812 Q62.5 65.2031 62.7344 65.2969 Q63.0469 65.4375 63.7812 65 L63.7812 65.7188 Q62.5938 66.4062 61.75 65.6875 Q61.375 65.3594 61.2656 64.875 L61.1875 64.4688 ZM60.9219 63.3125 L60.5625 61.5938 Q60.2656 60.2188 59.4688 60.2188 Q58.7969 60.2031 58.2812 60.9375 Q57.8594 61.5156 57.8594 62.875 Q57.8594 64.1719 58.2812 64.8281 Q58.75 65.5469 59.5312 65.5 Q60.2031 65.4375 60.6875 64 L60.9219 63.3125 Z" style="fill:black; stroke:none;" /></g><g ID="li-1:11,12" style="fill:white; text-rendering:optimizeSpeed; font-family:'Serif'; stroke:white;"><rect height="9" style="stroke:none;" width="8" x="122" y="57" /><path d="M126.1875 63.0312 L126.1875 58.375 L123.2031 63.0312 L126.1875 63.0312 ZM128.7656 66 L124.7812 66 L124.7812 65.375 L126.1875 65.375 L126.1875 63.6562 L122.375 63.6562 L122.375 63.0156 L126.2031 57.0938 L127.3594 57.0938 L127.3594 63.0312 L129.0312 63.0312 L129.0312 63.6562 L127.3594 63.6562 L127.3594 65.375 L128.7656 65.375 L128.7656 66 Z" style="fill:black; stroke:none;" /><rect height="13" style="stroke:none;" width="7" x="108" y="55" /><path d="M109.8281 67.25 Q110.2969 67.5938 111.1719 67.5938 Q112.0625 67.5938 112.5781 67.0703 Q113.0938 66.5469 113.0938 65.6562 Q113.0938 64.4219 112.5625 63.8906 Q112.0156 63.3594 111 63.3594 L110.4375 63.3594 L110.4375 62.7188 L110.7344 62.7188 Q111.4844 62.7188 112 62.2969 Q112.4219 61.9531 112.4219 61.0156 Q112.4219 60.6094 112.1406 60.1406 Q111.6875 59.375 111.1562 59.3906 Q109.8281 59.4375 109.8281 61.7812 L109.8281 67.25 ZM108.75 70.5 L108.75 61.7812 Q108.75 59.3281 110.0781 59 Q110.7656 58.8125 111.25 58.8125 Q112.3438 58.8125 113.0469 59.6719 Q113.6094 60.3594 113.6094 60.9375 Q113.6094 61.7812 113.2031 62.2656 Q112.7969 62.75 112.0625 62.9844 Q113.1406 63.1406 113.75 63.7812 Q114.3281 64.4062 114.3281 65.6328 Q114.3281 66.8594 113.5078 67.5156 Q112.6875 68.1719 111.1406 68.1719 Q110.1875 68.1719 109.8281 68.0312 L109.8281 70.5 L108.75 70.5 Z" style="fill:black; stroke:none;" /></g><g ID="li-1:6,11" style="fill:white; text-rendering:optimizeSpeed; font-family:'Serif'; stroke:white;"><rect height="9" style="stroke:none;" width="7" x="174" y="57" /><path d="M175.5312 59.3438 L174.875 59.3438 L174.875 57.7812 Q175.5 57.4375 176.1406 57.2656 Q176.7812 57.0938 177.3906 57.0938 Q178.75 57.0938 179.5391 57.7578 Q180.3281 58.4219 180.3281 59.5469 Q180.3281 60.8438 178.5469 62.625 Q178.4062 62.7656 178.3281 62.8281 L176.125 65.0312 L179.7656 65.0312 L179.7656 63.9531 L180.4531 63.9531 L180.4531 66 L174.8125 66 L174.8125 65.3594 L177.4688 62.7188 Q178.3438 61.8281 178.7188 61.0938 Q179.0938 60.3594 179.0938 59.5469 Q179.0938 58.6719 178.6328 58.1719 Q178.1719 57.6719 177.375 57.6719 Q176.5312 57.6719 176.0781 58.0859 Q175.625 58.5 175.5312 59.3438 Z" style="fill:black; stroke:none;" /><rect height="13" style="stroke:none;" width="7" x="160" y="55" /><path d="M161.8281 67.25 Q162.2969 67.5938 163.1719 67.5938 Q164.0625 67.5938 164.5781 67.0703 Q165.0938 66.5469 165.0938 65.6562 Q165.0938 64.4219 164.5625 63.8906 Q164.0156 63.3594 163 63.3594 L162.4375 63.3594 L162.4375 62.7188 L162.7344 62.7188 Q163.4844 62.7188 164 62.2969 Q164.4219 61.9531 164.4219 61.0156 Q164.4219 60.6094 164.1406 60.1406 Q163.6875 59.375 163.1562 59.3906 Q161.8281 59.4375 161.8281 61.7812 L161.8281 67.25 ZM160.75 70.5 L160.75 61.7812 Q160.75 59.3281 162.0781 59 Q162.7656 58.8125 163.25 58.8125 Q164.3438 58.8125 165.0469 59.6719 Q165.6094 60.3594 165.6094 60.9375 Q165.6094 61.7812 165.2031 62.2656 Q164.7969 62.75 164.0625 62.9844 Q165.1406 63.1406 165.75 63.7812 Q166.3281 64.4062 166.3281 65.6328 Q166.3281 66.8594 165.5078 67.5156 Q164.6875 68.1719 163.1406 68.1719 Q162.1875 68.1719 161.8281 68.0312 L161.8281 70.5 L160.75 70.5 Z" style="fill:black; stroke:none;" /></g><g ID="li-1:4,5" style="fill:white; text-rendering:optimizeSpeed; font-family:'Serif'; stroke:white;"><rect height="10" style="stroke:none;" width="6" x="233" y="107" /><path d="M235.1094 116.3906 Q235.1094 116.0625 235.3359 115.8359 Q235.5625 115.6094 235.8906 115.6094 Q236.2188 115.6094 236.4453 115.8359 Q236.6719 116.0625 236.6719 116.3906 Q236.6719 116.7188 236.4453 116.9453 Q236.2188 117.1719 235.8906 117.1719 Q235.5625 117.1719 235.3359 116.9453 Q235.1094 116.7188 235.1094 116.3906 ZM233.8125 108.6406 Q234.4375 108.3594 235 108.2266 Q235.5625 108.0938 236.0469 108.0938 Q237.3438 108.0938 238.1016 108.7188 Q238.8594 109.3438 238.8594 110.4062 Q238.8594 111.5 238.2109 112.1953 Q237.5625 112.8906 236.25 113.1875 L236.25 114.6719 L235.5312 114.6719 L235.5312 112.75 Q236.5625 112.5 237.0938 111.9062 Q237.625 111.3125 237.625 110.4062 Q237.625 109.5938 237.1953 109.1328 Q236.7656 108.6719 236.0312 108.6719 Q235.3594 108.6719 234.9297 109.0547 Q234.5 109.4375 234.3906 110.1562 L233.8125 110.1562 L233.8125 108.6406 Z" style="fill:black; stroke:none;" /><rect height="8" style="stroke:none;" width="8" x="215" y="121" /><path d="M220.1875 127.4688 L219.9531 128.1094 Q219.7656 128.625 219.2031 128.9375 Q218.8438 129.1562 218.2031 129.1406 Q217.0469 129.1406 216.3281 128.2344 Q215.5938 127.3281 215.5938 125.8594 Q215.5938 124.4219 216.3281 123.4844 Q217.0156 122.5938 218.4531 122.6094 Q219.4531 122.6094 219.9531 123 Q220.4062 123.3438 220.5781 124.0938 L220.625 124.3125 L220.8438 123.6719 Q221.0625 123.0469 221.6562 122.75 L222.25 122.75 L222.25 123.0938 Q221.6875 123.2656 221.5 123.8125 L220.8906 125.4844 L221.2969 127.2812 Q221.5 128.2031 221.7344 128.2969 Q222.0469 128.4375 222.7812 128 L222.7812 128.7188 Q221.5938 129.4062 220.75 128.6875 Q220.375 128.3594 220.2656 127.875 L220.1875 127.4688 ZM219.9219 126.3125 L219.5625 124.5938 Q219.2656 123.2188 218.4688 123.2188 Q217.7969 123.2031 217.2812 123.9375 Q216.8594 124.5156 216.8594 125.875 Q216.8594 127.1719 217.2812 127.8281 Q217.75 128.5469 218.5312 128.5 Q219.2031 128.4375 219.6875 127 L219.9219 126.3125 Z" style="fill:black; stroke:none;" /></g><g ID="li-1:4,6" style="fill:white; text-rendering:optimizeSpeed; font-family:'Serif'; stroke:white;"><rect height="10" style="stroke:none;" width="6" x="223" y="81" /><path d="M225.1094 90.3906 Q225.1094 90.0625 225.3359 89.8359 Q225.5625 89.6094 225.8906 89.6094 Q226.2188 89.6094 226.4453 89.8359 Q226.6719 90.0625 226.6719 90.3906 Q226.6719 90.7188 226.4453 90.9453 Q226.2188 91.1719 225.8906 91.1719 Q225.5625 91.1719 225.3359 90.9453 Q225.1094 90.7188 225.1094 90.3906 ZM223.8125 82.6406 Q224.4375 82.3594 225 82.2266 Q225.5625 82.0938 226.0469 82.0938 Q227.3438 82.0938 228.1016 82.7188 Q228.8594 83.3438 228.8594 84.4062 Q228.8594 85.5 228.2109 86.1953 Q227.5625 86.8906 226.25 87.1875 L226.25 88.6719 L225.5312 88.6719 L225.5312 86.75 Q226.5625 86.5 227.0938 85.9062 Q227.625 85.3125 227.625 84.4062 Q227.625 83.5938 227.1953 83.1328 Q226.7656 82.6719 226.0312 82.6719 Q225.3594 82.6719 224.9297 83.0547 Q224.5 83.4375 224.3906 84.1562 L223.8125 84.1562 L223.8125 82.6406 Z" style="fill:black; stroke:none;" /><rect height="8" style="stroke:none;" width="8" x="205" y="69" /><path d="M210.1875 75.4688 L209.9531 76.1094 Q209.7656 76.625 209.2031 76.9375 Q208.8438 77.1562 208.2031 77.1406 Q207.0469 77.1406 206.3281 76.2344 Q205.5938 75.3281 205.5938 73.8594 Q205.5938 72.4219 206.3281 71.4844 Q207.0156 70.5938 208.4531 70.6094 Q209.4531 70.6094 209.9531 71 Q210.4062 71.3438 210.5781 72.0938 L210.625 72.3125 L210.8438 71.6719 Q211.0625 71.0469 211.6562 70.75 L212.25 70.75 L212.25 71.0938 Q211.6875 71.2656 211.5 71.8125 L210.8906 73.4844 L211.2969 75.2812 Q211.5 76.2031 211.7344 76.2969 Q212.0469 76.4375 212.7812 76 L212.7812 76.7188 Q211.5938 77.4062 210.75 76.6875 Q210.375 76.3594 210.2656 75.875 L210.1875 75.4688 ZM209.9219 74.3125 L209.5625 72.5938 Q209.2656 71.2188 208.4688 71.2188 Q207.7969 71.2031 207.2812 71.9375 Q206.8594 72.5156 206.8594 73.875 Q206.8594 75.1719 207.2812 75.8281 Q207.75 76.5469 208.5312 76.5 Q209.2031 76.4375 209.6875 75 L209.9219 74.3125 Z" style="fill:black; stroke:none;" /></g><g ID="li-1:2,4" style="fill:white; text-rendering:optimizeSpeed; font-family:'Serif'; stroke:white;"><rect height="9" style="stroke:none;" width="8" x="278" y="96" /><path d="M282.1875 102.0312 L282.1875 97.375 L279.2031 102.0312 L282.1875 102.0312 ZM284.7656 105 L280.7812 105 L280.7812 104.375 L282.1875 104.375 L282.1875 102.6562 L278.375 102.6562 L278.375 102.0156 L282.2031 96.0938 L283.3594 96.0938 L283.3594 102.0312 L285.0312 102.0312 L285.0312 102.6562 L283.3594 102.6562 L283.3594 104.375 L284.7656 104.375 L284.7656 105 Z" style="fill:black; stroke:none;" /><rect height="13" style="stroke:none;" width="7" x="264" y="94" /><path d="M265.8281 106.25 Q266.2969 106.5938 267.1719 106.5938 Q268.0625 106.5938 268.5781 106.0703 Q269.0938 105.5469 269.0938 104.6562 Q269.0938 103.4219 268.5625 102.8906 Q268.0156 102.3594 267 102.3594 L266.4375 102.3594 L266.4375 101.7188 L266.7344 101.7188 Q267.4844 101.7188 268 101.2969 Q268.4219 100.9531 268.4219 100.0156 Q268.4219 99.6094 268.1406 99.1406 Q267.6875 98.375 267.1562 98.3906 Q265.8281 98.4375 265.8281 100.7812 L265.8281 106.25 ZM264.75 109.5 L264.75 100.7812 Q264.75 98.3281 266.0781 98 Q266.7656 97.8125 267.25 97.8125 Q268.3438 97.8125 269.0469 98.6719 Q269.6094 99.3594 269.6094 99.9375 Q269.6094 100.7812 269.2031 101.2656 Q268.7969 101.75 268.0625 101.9844 Q269.1406 102.1406 269.75 102.7812 Q270.3281 103.4062 270.3281 104.6328 Q270.3281 105.8594 269.5078 106.5156 Q268.6875 107.1719 267.1406 107.1719 Q266.1875 107.1719 265.8281 107.0312 L265.8281 109.5 L264.75 109.5 Z" style="fill:black; stroke:none;" /></g><g ID="r-1:3" style="fill:white; text-rendering:optimizeSpeed; stroke:white;" wurcs_mono_id="13"><polygon points=" 353 52 342 30 364 30" style="stroke:none; clip-path:url(#clipPath13);" /><rect height="22" style="clip-path:url(#clipPath13); fill:rgb(237,28,36); stroke:none;" width="22" x="342" y="30" /><rect height="22" style="clip-path:url(#clipPath13); fill:none; stroke:black;" width="22" x="342" y="30" /><polygon points=" 353 52 342 30 364 30" style="fill:none; stroke:black;" /></g><g ID="li-1:1,2" style="fill:white; text-rendering:optimizeSpeed; font-family:'Serif'; stroke:white;"><rect height="9" style="stroke:none;" width="8" x="330" y="96" /><path d="M334.1875 102.0312 L334.1875 97.375 L331.2031 102.0312 L334.1875 102.0312 ZM336.7656 105 L332.7812 105 L332.7812 104.375 L334.1875 104.375 L334.1875 102.6562 L330.375 102.6562 L330.375 102.0156 L334.2031 96.0938 L335.3594 96.0938 L335.3594 102.0312 L337.0312 102.0312 L337.0312 102.6562 L335.3594 102.6562 L335.3594 104.375 L336.7656 104.375 L336.7656 105 Z" style="fill:black; stroke:none;" /><rect height="13" style="stroke:none;" width="7" x="316" y="94" /><path d="M317.8281 106.25 Q318.2969 106.5938 319.1719 106.5938 Q320.0625 106.5938 320.5781 106.0703 Q321.0938 105.5469 321.0938 104.6562 Q321.0938 103.4219 320.5625 102.8906 Q320.0156 102.3594 319 102.3594 L318.4375 102.3594 L318.4375 101.7188 L318.7344 101.7188 Q319.4844 101.7188 320 101.2969 Q320.4219 100.9531 320.4219 100.0156 Q320.4219 99.6094 320.1406 99.1406 Q319.6875 98.375 319.1562 98.3906 Q317.8281 98.4375 317.8281 100.7812 L317.8281 106.25 ZM316.75 109.5 L316.75 100.7812 Q316.75 98.3281 318.0781 98 Q318.7656 97.8125 319.25 97.8125 Q320.3438 97.8125 321.0469 98.6719 Q321.6094 99.3594 321.6094 99.9375 Q321.6094 100.7812 321.2031 101.2656 Q320.7969 101.75 320.0625 101.9844 Q321.1406 102.1406 321.75 102.7812 Q322.3281 103.4062 322.3281 104.6328 Q322.3281 105.8594 321.5078 106.5156 Q320.6875 107.1719 319.1406 107.1719 Q318.1875 107.1719 317.8281 107.0312 L317.8281 109.5 L316.75 109.5 Z" style="fill:black; stroke:none;" /></g><g ID="li-1:1,3" style="fill:white; text-rendering:optimizeSpeed; font-family:'Serif'; stroke:white;"><rect height="10" style="stroke:none;" width="7" x="341" y="69" /><path d="M344.9219 78.5938 Q345.75 78.5938 346.1953 77.9844 Q346.6406 77.375 346.6406 76.2344 Q346.6406 75.1094 346.1953 74.5 Q345.75 73.8906 344.9219 73.8906 Q344.0938 73.8906 343.6484 74.4766 Q343.2031 75.0625 343.2031 76.1719 Q343.2031 77.3281 343.6484 77.9609 Q344.0938 78.5938 344.9219 78.5938 ZM343.0156 74.1875 Q343.4219 73.75 343.9219 73.5312 Q344.4219 73.3125 345.0625 73.3125 Q346.3594 73.3125 347.1172 74.0938 Q347.875 74.875 347.875 76.2344 Q347.875 77.5625 347.0625 78.3672 Q346.25 79.1719 344.875 79.1719 Q343.3906 79.1719 342.5938 78.0625 Q341.7969 76.9531 341.7969 74.9062 Q341.7969 72.6094 342.7422 71.3516 Q343.6875 70.0938 345.4062 70.0938 Q345.875 70.0938 346.3828 70.1797 Q346.8906 70.2656 347.4219 70.4375 L347.4219 71.8906 L346.7656 71.8906 Q346.6875 71.2969 346.3047 70.9844 Q345.9219 70.6719 345.2812 70.6719 Q344.1406 70.6719 343.5859 71.5312 Q343.0312 72.3906 343.0156 74.1875 Z" style="fill:black; stroke:none;" /><rect height="8" style="stroke:none;" width="8" x="341" y="56" /><path d="M346.1875 62.4688 L345.9531 63.1094 Q345.7656 63.625 345.2031 63.9375 Q344.8438 64.1562 344.2031 64.1406 Q343.0469 64.1406 342.3281 63.2344 Q341.5938 62.3281 341.5938 60.8594 Q341.5938 59.4219 342.3281 58.4844 Q343.0156 57.5938 344.4531 57.6094 Q345.4531 57.6094 345.9531 58 Q346.4062 58.3438 346.5781 59.0938 L346.625 59.3125 L346.8438 58.6719 Q347.0625 58.0469 347.6562 57.75 L348.25 57.75 L348.25 58.0938 Q347.6875 58.2656 347.5 58.8125 L346.8906 60.4844 L347.2969 62.2812 Q347.5 63.2031 347.7344 63.2969 Q348.0469 63.4375 348.7812 63 L348.7812 63.7188 Q347.5938 64.4062 346.75 63.6875 Q346.375 63.3594 346.2656 62.875 L346.1875 62.4688 ZM345.9219 61.3125 L345.5625 59.5938 Q345.2656 58.2188 344.4688 58.2188 Q343.7969 58.2031 343.2812 58.9375 Q342.8594 59.5156 342.8594 60.875 Q342.8594 62.1719 343.2812 62.8281 Q343.75 63.5469 344.5312 63.5 Q345.2031 63.4375 345.6875 62 L345.9219 61.3125 Z" style="fill:black; stroke:none;" /></g></g></svg>