<svg xmlns="http://www.w3.org/2000/svg" style="fill-opacity:1; color-rendering:auto; color-interpolation:auto; text-rendering:auto; stroke:black; stroke-linecap:square; stroke-miterlimit:10; shape-rendering:auto; stroke-opacity:1; fill:black; stroke-dasharray:none; font-weight:normal; stroke-width:1; font-family:'Dialog'; font-style:normal; stroke-linejoin:miter; font-size:12px; stroke-dashoffset:0; image-rendering:auto;"><defs id="genericDefs" /><g><defs id="defs1"><clipPath clipPathUnits="userSpaceOnUse" id="clipPath1"><path d="M156 41 C156 47.0751 151.0751 52 145 52 C138.9249 52 134 47.0751 134 41 C134 34.9249 138.9249 30 145 30 C151.0751 30 156 34.9249 156 41 Z" /></clipPath><clipPath clipPathUnits="userSpaceOnUse" id="clipPath2"><path d="M145 82 L156 104 L134 104 Z" style="fill-rule:evenodd;" /></clipPath><clipPath clipPathUnits="userSpaceOnUse" id="clipPath3"><path d="M82 30 L104 30 L104 52 L82 52 L82 30 Z" /></clipPath><clipPath clipPathUnits="userSpaceOnUse" id="clipPath4"><path d="M30 30 L52 30 L52 52 L30 52 L30 30 Z" /></clipPath></defs><g style="fill:white; text-rendering:optimizeSpeed; stroke:white;"><rect height="134" style="stroke:none;" width="186" x="0" y="0" /></g><g ID="l-1:1,2" style="text-rendering:optimizeSpeed;"><polygon points=" 145 41 145 93" style="fill:none;" /></g><g ID="l-1:1,3" style="text-rendering:optimizeSpeed;"><polygon points=" 145 41 93 41" style="fill:none;" /></g><g ID="r-1:1" style="fill:white; text-rendering:optimizeSpeed; stroke:white;" wurcs_mono_id="1"><circle cx="145" cy="41" r="11" style="clip-path:url(#clipPath1); stroke:none;" /><rect height="22" style="clip-path:url(#clipPath1); fill:rgb(255,212,0); stroke:none;" width="22" x="134" y="30" /><rect height="22" style="clip-path:url(#clipPath1); fill:none; stroke:black;" width="22" x="134" y="30" /><circle cx="145" cy="41" r="11" style="fill:none; stroke:black;" /></g><g ID="r-1:2" style="fill:white; text-rendering:optimizeSpeed; stroke:white;" wurcs_mono_id="2"><polygon points=" 145 82 156 104 134 104" style="stroke:none; clip-path:url(#clipPath2);" /><rect height="22" style="clip-path:url(#clipPath2); fill:rgb(237,28,36); stroke:none;" width="22" x="134" y="82" /><rect height="22" style="clip-path:url(#clipPath2); fill:none; stroke:black;" width="22" x="134" y="82" /><polygon points=" 145 82 156 104 134 104" style="fill:none; stroke:black;" /></g><g ID="l-1:3,4" style="text-rendering:optimizeSpeed;"><polygon points=" 93 41 41 41" style="fill:none;" /></g><g ID="r-1:3" style="fill:white; text-rendering:optimizeSpeed; stroke:white;" wurcs_mono_id="3"><rect height="22" style="clip-path:url(#clipPath3); stroke:none;" width="22" x="82" y="30" /><rect height="22" style="clip-path:url(#clipPath3); fill:rgb(255,212,0); stroke:none;" width="22" x="82" y="30" /><rect height="22" style="clip-path:url(#clipPath3); fill:none; stroke:black;" width="22" x="82" y="30" /><rect height="22" style="fill:none; stroke:black;" width="22" x="82" y="30" /></g><g ID="r-1:4" style="fill:white; text-rendering:optimizeSpeed; stroke:white;" wurcs_mono_id="4"><rect height="22" style="clip-path:url(#clipPath4); stroke:none;" width="22" x="30" y="30" /><rect height="22" style="clip-path:url(#clipPath4); fill:rgb(0,144,188); stroke:none;" width="22" x="30" y="30" /><rect height="22" style="clip-path:url(#clipPath4); fill:none; stroke:black;" width="22" x="30" y="30" /><rect height="22" style="fill:none; stroke:black;" width="22" x="30" y="30" /></g><g ID="li-1:3,4" style="fill:white; text-rendering:optimizeSpeed; font-family:'Serif'; stroke:white;"><rect height="10" style="stroke:none;" width="7" x="70" y="44" /><path d="M71.1719 45.625 Q71.8594 45.3594 72.4844 45.2266 Q73.1094 45.0938 73.6562 45.0938 Q74.9531 45.0938 75.6719 45.6484 Q76.3906 46.2031 76.3906 47.1875 Q76.3906 47.9688 75.8906 48.5 Q75.3906 49.0312 74.4844 49.2188 Q75.5625 49.375 76.1562 50.0078 Q76.75 50.6406 76.75 51.6406 Q76.75 52.8594 75.9219 53.5156 Q75.0938 54.1719 73.5469 54.1719 Q72.8594 54.1719 72.2109 54.0234 Q71.5625 53.875 70.9219 53.5781 L70.9219 51.875 L71.5781 51.875 Q71.625 52.7188 72.1406 53.1562 Q72.6562 53.5938 73.5781 53.5938 Q74.4688 53.5938 74.9922 53.0703 Q75.5156 52.5469 75.5156 51.6562 Q75.5156 50.625 74.9766 50.0938 Q74.4375 49.5625 73.4062 49.5625 L72.8594 49.5625 L72.8594 48.9531 L73.1406 48.9531 Q74.1719 48.9531 74.6875 48.5312 Q75.2031 48.1094 75.2031 47.25 Q75.2031 46.4844 74.7812 46.0781 Q74.3594 45.6719 73.5625 45.6719 Q72.7656 45.6719 72.3359 46.0469 Q71.9062 46.4219 71.8281 47.1562 L71.1719 47.1562 L71.1719 45.625 Z" style="fill:black; stroke:none;" /><rect height="8" style="stroke:none;" width="8" x="56" y="45" /><path d="M61.1875 51.4688 L60.9531 52.1094 Q60.7656 52.625 60.2031 52.9375 Q59.8438 53.1562 59.2031 53.1406 Q58.0469 53.1406 57.3281 52.2344 Q56.5938 51.3281 56.5938 49.8594 Q56.5938 48.4219 57.3281 47.4844 Q58.0156 46.5938 59.4531 46.6094 Q60.4531 46.6094 60.9531 47 Q61.4062 47.3438 61.5781 48.0938 L61.625 48.3125 L61.8438 47.6719 Q62.0625 47.0469 62.6562 46.75 L63.25 46.75 L63.25 47.0938 Q62.6875 47.2656 62.5 47.8125 L61.8906 49.4844 L62.2969 51.2812 Q62.5 52.2031 62.7344 52.2969 Q63.0469 52.4375 63.7812 52 L63.7812 52.7188 Q62.5938 53.4062 61.75 52.6875 Q61.375 52.3594 61.2656 51.875 L61.1875 51.4688 ZM60.9219 50.3125 L60.5625 48.5938 Q60.2656 47.2188 59.4688 47.2188 Q58.7969 47.2031 58.2812 47.9375 Q57.8594 48.5156 57.8594 49.875 Q57.8594 51.1719 58.2812 51.8281 Q58.75 52.5469 59.5312 52.5 Q60.2031 52.4375 60.6875 51 L60.9219 50.3125 Z" style="fill:black; stroke:none;" /></g><g ID="li-1:1,2" style="fill:white; text-rendering:optimizeSpeed; font-family:'Serif'; stroke:white;"><rect height="9" style="stroke:none;" width="7" x="149" y="55" /><path d="M150.5312 57.3438 L149.875 57.3438 L149.875 55.7812 Q150.5 55.4375 151.1406 55.2656 Q151.7812 55.0938 152.3906 55.0938 Q153.75 55.0938 154.5391 55.7578 Q155.3281 56.4219 155.3281 57.5469 Q155.3281 58.8438 153.5469 60.625 Q153.4062 60.7656 153.3281 60.8281 L151.125 63.0312 L154.7656 63.0312 L154.7656 61.9531 L155.4531 61.9531 L155.4531 64 L149.8125 64 L149.8125 63.3594 L152.4688 60.7188 Q153.3438 59.8281 153.7188 59.0938 Q154.0938 58.3594 154.0938 57.5469 Q154.0938 56.6719 153.6328 56.1719 Q153.1719 55.6719 152.375 55.6719 Q151.5312 55.6719 151.0781 56.0859 Q150.625 56.5 150.5312 57.3438 Z" style="fill:black; stroke:none;" /><rect height="8" style="stroke:none;" width="8" x="149" y="70" /><path d="M154.1875 76.4688 L153.9531 77.1094 Q153.7656 77.625 153.2031 77.9375 Q152.8438 78.1562 152.2031 78.1406 Q151.0469 78.1406 150.3281 77.2344 Q149.5938 76.3281 149.5938 74.8594 Q149.5938 73.4219 150.3281 72.4844 Q151.0156 71.5938 152.4531 71.6094 Q153.4531 71.6094 153.9531 72 Q154.4062 72.3438 154.5781 73.0938 L154.625 73.3125 L154.8438 72.6719 Q155.0625 72.0469 155.6562 71.75 L156.25 71.75 L156.25 72.0938 Q155.6875 72.2656 155.5 72.8125 L154.8906 74.4844 L155.2969 76.2812 Q155.5 77.2031 155.7344 77.2969 Q156.0469 77.4375 156.7812 77 L156.7812 77.7188 Q155.5938 78.4062 154.75 77.6875 Q154.375 77.3594 154.2656 76.875 L154.1875 76.4688 ZM153.9219 75.3125 L153.5625 73.5938 Q153.2656 72.2188 152.4688 72.2188 Q151.7969 72.2031 151.2812 72.9375 Q150.8594 73.5156 150.8594 74.875 Q150.8594 76.1719 151.2812 76.8281 Q151.75 77.5469 152.5312 77.5 Q153.2031 77.4375 153.6875 76 L153.9219 75.3125 Z" style="fill:black; stroke:none;" /></g><g ID="li-1:1,3" style="fill:white; text-rendering:optimizeSpeed; font-family:'Serif'; stroke:white;"><rect height="10" style="stroke:none;" width="7" x="122" y="44" /><path d="M123.1719 45.625 Q123.8594 45.3594 124.4844 45.2266 Q125.1094 45.0938 125.6562 45.0938 Q126.9531 45.0938 127.6719 45.6484 Q128.3906 46.2031 128.3906 47.1875 Q128.3906 47.9688 127.8906 48.5 Q127.3906 49.0312 126.4844 49.2188 Q127.5625 49.375 128.1562 50.0078 Q128.75 50.6406 128.75 51.6406 Q128.75 52.8594 127.9219 53.5156 Q127.0938 54.1719 125.5469 54.1719 Q124.8594 54.1719 124.2109 54.0234 Q123.5625 53.875 122.9219 53.5781 L122.9219 51.875 L123.5781 51.875 Q123.625 52.7188 124.1406 53.1562 Q124.6562 53.5938 125.5781 53.5938 Q126.4688 53.5938 126.9922 53.0703 Q127.5156 52.5469 127.5156 51.6562 Q127.5156 50.625 126.9766 50.0938 Q126.4375 49.5625 125.4062 49.5625 L124.8594 49.5625 L124.8594 48.9531 L125.1406 48.9531 Q126.1719 48.9531 126.6875 48.5312 Q127.2031 48.1094 127.2031 47.25 Q127.2031 46.4844 126.7812 46.0781 Q126.3594 45.6719 125.5625 45.6719 Q124.7656 45.6719 124.3359 46.0469 Q123.9062 46.4219 123.8281 47.1562 L123.1719 47.1562 L123.1719 45.625 Z" style="fill:black; stroke:none;" /><rect height="8" style="stroke:none;" width="8" x="108" y="45" /><path d="M113.1875 51.4688 L112.9531 52.1094 Q112.7656 52.625 112.2031 52.9375 Q111.8438 53.1562 111.2031 53.1406 Q110.0469 53.1406 109.3281 52.2344 Q108.5938 51.3281 108.5938 49.8594 Q108.5938 48.4219 109.3281 47.4844 Q110.0156 46.5938 111.4531 46.6094 Q112.4531 46.6094 112.9531 47 Q113.4062 47.3438 113.5781 48.0938 L113.625 48.3125 L113.8438 47.6719 Q114.0625 47.0469 114.6562 46.75 L115.25 46.75 L115.25 47.0938 Q114.6875 47.2656 114.5 47.8125 L113.8906 49.4844 L114.2969 51.2812 Q114.5 52.2031 114.7344 52.2969 Q115.0469 52.4375 115.7812 52 L115.7812 52.7188 Q114.5938 53.4062 113.75 52.6875 Q113.375 52.3594 113.2656 51.875 L113.1875 51.4688 ZM112.9219 50.3125 L112.5625 48.5938 Q112.2656 47.2188 111.4688 47.2188 Q110.7969 47.2031 110.2812 47.9375 Q109.8594 48.5156 109.8594 49.875 Q109.8594 51.1719 110.2812 51.8281 Q110.75 52.5469 111.5312 52.5 Q112.2031 52.4375 112.6875 51 L112.9219 50.3125 Z" style="fill:black; stroke:none;" /></g></g></svg>