<svg xmlns="http://www.w3.org/2000/svg" style="fill-opacity:1; color-rendering:auto; color-interpolation:auto; text-rendering:auto; stroke:black; stroke-linecap:square; stroke-miterlimit:10; shape-rendering:auto; stroke-opacity:1; fill:black; stroke-dasharray:none; font-weight:normal; stroke-width:1; font-family:'Dialog'; font-style:normal; stroke-linejoin:miter; font-size:12px; stroke-dashoffset:0; image-rendering:auto;"><defs id="genericDefs" /><g><defs id="defs1"><clipPath clipPathUnits="userSpaceOnUse" id="clipPath1"><path d="M134 82 L156 82 L156 104 L134 104 L134 82 Z" /></clipPath><clipPath clipPathUnits="userSpaceOnUse" id="clipPath2"><path d="M104 93 C104 99.0751 99.0751 104 93 104 C86.9249 104 82 99.0751 82 93 C82 86.9249 86.9249 82 93 82 C99.0751 82 104 86.9249 104 93 Z" /></clipPath><clipPath clipPathUnits="userSpaceOnUse" id="clipPath3"><path d="M52 145 C52 151.0751 47.0751 156 41 156 C34.9249 156 30 151.0751 30 145 C30 138.9249 34.9249 134 41 134 C47.0751 134 52 138.9249 52 145 Z" /></clipPath><clipPath clipPathUnits="userSpaceOnUse" id="clipPath4"><path d="M30 30 L52 30 L52 52 L30 52 L30 30 Z" /></clipPath><clipPath clipPathUnits="userSpaceOnUse" id="clipPath5"><path d="M41 82 L52 104 L30 104 Z" style="fill-rule:evenodd;" /></clipPath></defs><g style="fill:white; text-rendering:optimizeSpeed; stroke:white;"><rect height="186" style="stroke:none;" width="186" x="0" y="0" /></g><g ID="l-1:1,2" style="text-rendering:optimizeSpeed;"><polygon points=" 145 93 93 93" style="fill:none;" /></g><g ID="r-1:1" style="fill:white; text-rendering:optimizeSpeed; stroke:white;" wurcs_mono_id="1"><rect height="22" style="clip-path:url(#clipPath1); stroke:none;" width="22" x="134" y="82" /><rect height="22" style="clip-path:url(#clipPath1); fill:rgb(255,212,0); stroke:none;" width="22" x="134" y="82" /><rect height="22" style="clip-path:url(#clipPath1); fill:none; stroke:black;" width="22" x="134" y="82" /><rect height="22" style="fill:none; stroke:black;" width="22" x="134" y="82" /></g><g style="font-style:italic; text-rendering:optimizeSpeed; font-size:10px; font-family:'SansSerif';"><path d="M146.0938 90.1562 Q145.375 90.1562 144.8359 90.7188 Q144.2969 91.2812 144.0781 92.2656 Q143.875 93.25 144.1719 93.8125 Q144.4688 94.375 145.2031 94.375 Q145.9219 94.375 146.4609 93.8125 Q147 93.25 147.2031 92.2656 Q147.4062 91.2969 147.1094 90.7266 Q146.8125 90.1562 146.0938 90.1562 ZM146.25 89.4062 Q147.4219 89.4062 147.9297 90.1641 Q148.4375 90.9219 148.1562 92.2656 Q147.875 93.6094 147.0391 94.375 Q146.2031 95.1406 145.0312 95.1406 Q143.8594 95.1406 143.3516 94.375 Q142.8438 93.6094 143.125 92.2656 Q143.4062 90.9219 144.2422 90.1641 Q145.0781 89.4062 146.25 89.4062 Z" style="stroke:none;" /></g><g ID="l-1:2,3" style="text-rendering:optimizeSpeed;"><polygon points=" 93 93 41 145" style="fill:none;" /></g><g ID="l-1:2,4" style="text-rendering:optimizeSpeed;"><polygon points=" 93 93 41 41" style="fill:none;" /></g><g ID="r-1:2" style="fill:white; text-rendering:optimizeSpeed; stroke:white;" wurcs_mono_id="2"><circle cx="93" cy="93" r="11" style="clip-path:url(#clipPath2); stroke:none;" /><rect height="22" style="clip-path:url(#clipPath2); fill:rgb(255,212,0); stroke:none;" width="22" x="82" y="82" /><rect height="22" style="clip-path:url(#clipPath2); fill:none; stroke:black;" width="22" x="82" y="82" /><circle cx="93" cy="93" r="11" style="fill:none; stroke:black;" /></g><g ID="r-1:3" style="fill:white; text-rendering:optimizeSpeed; stroke:white;" wurcs_mono_id="3"><circle cx="41" cy="145" r="11" style="clip-path:url(#clipPath3); stroke:none;" /><rect height="22" style="clip-path:url(#clipPath3); fill:rgb(255,212,0); stroke:none;" width="22" x="30" y="134" /><rect height="22" style="clip-path:url(#clipPath3); fill:none; stroke:black;" width="22" x="30" y="134" /><circle cx="41" cy="145" r="11" style="fill:none; stroke:black;" /></g><g ID="l-1:4,5" style="text-rendering:optimizeSpeed;"><polygon points=" 41 41 41 93" style="fill:none;" /></g><g ID="r-1:4" style="fill:white; text-rendering:optimizeSpeed; stroke:white;" wurcs_mono_id="4"><rect height="22" style="clip-path:url(#clipPath4); stroke:none;" width="22" x="30" y="30" /><rect height="22" style="clip-path:url(#clipPath4); fill:rgb(0,144,188); stroke:none;" width="22" x="30" y="30" /><rect height="22" style="clip-path:url(#clipPath4); fill:none; stroke:black;" width="22" x="30" y="30" /><rect height="22" style="fill:none; stroke:black;" width="22" x="30" y="30" /></g><g ID="r-1:5" style="fill:white; text-rendering:optimizeSpeed; stroke:white;" wurcs_mono_id="5"><polygon points=" 41 82 52 104 30 104" style="stroke:none; clip-path:url(#clipPath5);" /><rect height="22" style="clip-path:url(#clipPath5); fill:rgb(237,28,36); stroke:none;" width="22" x="30" y="82" /><rect height="22" style="clip-path:url(#clipPath5); fill:none; stroke:black;" width="22" x="30" y="82" /><polygon points=" 41 82 52 104 30 104" style="fill:none; stroke:black;" /></g><g ID="li-1:4,5" style="fill:white; text-rendering:optimizeSpeed; font-family:'Serif'; stroke:white;"><rect height="10" style="stroke:none;" width="7" x="45" y="55" /><path d="M46.1719 56.625 Q46.8594 56.3594 47.4844 56.2266 Q48.1094 56.0938 48.6562 56.0938 Q49.9531 56.0938 50.6719 56.6484 Q51.3906 57.2031 51.3906 58.1875 Q51.3906 58.9688 50.8906 59.5 Q50.3906 60.0312 49.4844 60.2188 Q50.5625 60.375 51.1562 61.0078 Q51.75 61.6406 51.75 62.6406 Q51.75 63.8594 50.9219 64.5156 Q50.0938 65.1719 48.5469 65.1719 Q47.8594 65.1719 47.2109 65.0234 Q46.5625 64.875 45.9219 64.5781 L45.9219 62.875 L46.5781 62.875 Q46.625 63.7188 47.1406 64.1562 Q47.6562 64.5938 48.5781 64.5938 Q49.4688 64.5938 49.9922 64.0703 Q50.5156 63.5469 50.5156 62.6562 Q50.5156 61.625 49.9766 61.0938 Q49.4375 60.5625 48.4062 60.5625 L47.8594 60.5625 L47.8594 59.9531 L48.1406 59.9531 Q49.1719 59.9531 49.6875 59.5312 Q50.2031 59.1094 50.2031 58.25 Q50.2031 57.4844 49.7812 57.0781 Q49.3594 56.6719 48.5625 56.6719 Q47.7656 56.6719 47.3359 57.0469 Q46.9062 57.4219 46.8281 58.1562 L46.1719 58.1562 L46.1719 56.625 Z" style="fill:black; stroke:none;" /><rect height="8" style="stroke:none;" width="8" x="45" y="70" /><path d="M50.1875 76.4688 L49.9531 77.1094 Q49.7656 77.625 49.2031 77.9375 Q48.8438 78.1562 48.2031 78.1406 Q47.0469 78.1406 46.3281 77.2344 Q45.5938 76.3281 45.5938 74.8594 Q45.5938 73.4219 46.3281 72.4844 Q47.0156 71.5938 48.4531 71.6094 Q49.4531 71.6094 49.9531 72 Q50.4062 72.3438 50.5781 73.0938 L50.625 73.3125 L50.8438 72.6719 Q51.0625 72.0469 51.6562 71.75 L52.25 71.75 L52.25 72.0938 Q51.6875 72.2656 51.5 72.8125 L50.8906 74.4844 L51.2969 76.2812 Q51.5 77.2031 51.7344 77.2969 Q52.0469 77.4375 52.7812 77 L52.7812 77.7188 Q51.5938 78.4062 50.75 77.6875 Q50.375 77.3594 50.2656 76.875 L50.1875 76.4688 ZM49.9219 75.3125 L49.5625 73.5938 Q49.2656 72.2188 48.4688 72.2188 Q47.7969 72.2031 47.2812 72.9375 Q46.8594 73.5156 46.8594 74.875 Q46.8594 76.1719 47.2812 76.8281 Q47.75 77.5469 48.5312 77.5 Q49.2031 77.4375 49.6875 76 L49.9219 75.3125 Z" style="fill:black; stroke:none;" /></g><g ID="li-1:2,3" style="fill:white; text-rendering:optimizeSpeed; font-family:'Serif'; stroke:white;"><rect height="10" style="stroke:none;" width="7" x="78" y="110" /><path d="M79.1719 111.625 Q79.8594 111.3594 80.4844 111.2266 Q81.1094 111.0938 81.6562 111.0938 Q82.9531 111.0938 83.6719 111.6484 Q84.3906 112.2031 84.3906 113.1875 Q84.3906 113.9688 83.8906 114.5 Q83.3906 115.0312 82.4844 115.2188 Q83.5625 115.375 84.1562 116.0078 Q84.75 116.6406 84.75 117.6406 Q84.75 118.8594 83.9219 119.5156 Q83.0938 120.1719 81.5469 120.1719 Q80.8594 120.1719 80.2109 120.0234 Q79.5625 119.875 78.9219 119.5781 L78.9219 117.875 L79.5781 117.875 Q79.625 118.7188 80.1406 119.1562 Q80.6562 119.5938 81.5781 119.5938 Q82.4688 119.5938 82.9922 119.0703 Q83.5156 118.5469 83.5156 117.6562 Q83.5156 116.625 82.9766 116.0938 Q82.4375 115.5625 81.4062 115.5625 L80.8594 115.5625 L80.8594 114.9531 L81.1406 114.9531 Q82.1719 114.9531 82.6875 114.5312 Q83.2031 114.1094 83.2031 113.25 Q83.2031 112.4844 82.7812 112.0781 Q82.3594 111.6719 81.5625 111.6719 Q80.7656 111.6719 80.3359 112.0469 Q79.9062 112.4219 79.8281 113.1562 L79.1719 113.1562 L79.1719 111.625 Z" style="fill:black; stroke:none;" /><rect height="13" style="stroke:none;" width="7" x="59" y="127" /><path d="M60.8281 139.25 Q61.2969 139.5938 62.1719 139.5938 Q63.0625 139.5938 63.5781 139.0703 Q64.0938 138.5469 64.0938 137.6562 Q64.0938 136.4219 63.5625 135.8906 Q63.0156 135.3594 62 135.3594 L61.4375 135.3594 L61.4375 134.7188 L61.7344 134.7188 Q62.4844 134.7188 63 134.2969 Q63.4219 133.9531 63.4219 133.0156 Q63.4219 132.6094 63.1406 132.1406 Q62.6875 131.375 62.1562 131.3906 Q60.8281 131.4375 60.8281 133.7812 L60.8281 139.25 ZM59.75 142.5 L59.75 133.7812 Q59.75 131.3281 61.0781 131 Q61.7656 130.8125 62.25 130.8125 Q63.3438 130.8125 64.0469 131.6719 Q64.6094 132.3594 64.6094 132.9375 Q64.6094 133.7812 64.2031 134.2656 Q63.7969 134.75 63.0625 134.9844 Q64.1406 135.1406 64.75 135.7812 Q65.3281 136.4062 65.3281 137.6328 Q65.3281 138.8594 64.5078 139.5156 Q63.6875 140.1719 62.1406 140.1719 Q61.1875 140.1719 60.8281 140.0312 L60.8281 142.5 L59.75 142.5 Z" style="fill:black; stroke:none;" /></g><g ID="li-1:2,4" style="fill:white; text-rendering:optimizeSpeed; font-family:'Serif'; stroke:white;"><rect height="10" style="stroke:none;" width="7" x="67" y="77" /><path d="M70.9219 86.5938 Q71.75 86.5938 72.1953 85.9844 Q72.6406 85.375 72.6406 84.2344 Q72.6406 83.1094 72.1953 82.5 Q71.75 81.8906 70.9219 81.8906 Q70.0938 81.8906 69.6484 82.4766 Q69.2031 83.0625 69.2031 84.1719 Q69.2031 85.3281 69.6484 85.9609 Q70.0938 86.5938 70.9219 86.5938 ZM69.0156 82.1875 Q69.4219 81.75 69.9219 81.5312 Q70.4219 81.3125 71.0625 81.3125 Q72.3594 81.3125 73.1172 82.0938 Q73.875 82.875 73.875 84.2344 Q73.875 85.5625 73.0625 86.3672 Q72.25 87.1719 70.875 87.1719 Q69.3906 87.1719 68.5938 86.0625 Q67.7969 84.9531 67.7969 82.9062 Q67.7969 80.6094 68.7422 79.3516 Q69.6875 78.0938 71.4062 78.0938 Q71.875 78.0938 72.3828 78.1797 Q72.8906 78.2656 73.4219 78.4375 L73.4219 79.8906 L72.7656 79.8906 Q72.6875 79.2969 72.3047 78.9844 Q71.9219 78.6719 71.2812 78.6719 Q70.1406 78.6719 69.5859 79.5312 Q69.0312 80.3906 69.0156 82.1875 Z" style="fill:black; stroke:none;" /><rect height="13" style="stroke:none;" width="7" x="48" y="56" /><path d="M49.8281 68.25 Q50.2969 68.5938 51.1719 68.5938 Q52.0625 68.5938 52.5781 68.0703 Q53.0938 67.5469 53.0938 66.6562 Q53.0938 65.4219 52.5625 64.8906 Q52.0156 64.3594 51 64.3594 L50.4375 64.3594 L50.4375 63.7188 L50.7344 63.7188 Q51.4844 63.7188 52 63.2969 Q52.4219 62.9531 52.4219 62.0156 Q52.4219 61.6094 52.1406 61.1406 Q51.6875 60.375 51.1562 60.3906 Q49.8281 60.4375 49.8281 62.7812 L49.8281 68.25 ZM48.75 71.5 L48.75 62.7812 Q48.75 60.3281 50.0781 60 Q50.7656 59.8125 51.25 59.8125 Q52.3438 59.8125 53.0469 60.6719 Q53.6094 61.3594 53.6094 61.9375 Q53.6094 62.7812 53.2031 63.2656 Q52.7969 63.75 52.0625 63.9844 Q53.1406 64.1406 53.75 64.7812 Q54.3281 65.4062 54.3281 66.6328 Q54.3281 67.8594 53.5078 68.5156 Q52.6875 69.1719 51.1406 69.1719 Q50.1875 69.1719 49.8281 69.0312 L49.8281 71.5 L48.75 71.5 Z" style="fill:black; stroke:none;" /></g><g ID="li-1:1,2" style="fill:white; text-rendering:optimizeSpeed; font-family:'Serif'; stroke:white;"><rect height="10" style="stroke:none;" width="7" x="122" y="96" /><path d="M123.1719 97.625 Q123.8594 97.3594 124.4844 97.2266 Q125.1094 97.0938 125.6562 97.0938 Q126.9531 97.0938 127.6719 97.6484 Q128.3906 98.2031 128.3906 99.1875 Q128.3906 99.9688 127.8906 100.5 Q127.3906 101.0312 126.4844 101.2188 Q127.5625 101.375 128.1562 102.0078 Q128.75 102.6406 128.75 103.6406 Q128.75 104.8594 127.9219 105.5156 Q127.0938 106.1719 125.5469 106.1719 Q124.8594 106.1719 124.2109 106.0234 Q123.5625 105.875 122.9219 105.5781 L122.9219 103.875 L123.5781 103.875 Q123.625 104.7188 124.1406 105.1562 Q124.6562 105.5938 125.5781 105.5938 Q126.4688 105.5938 126.9922 105.0703 Q127.5156 104.5469 127.5156 103.6562 Q127.5156 102.625 126.9766 102.0938 Q126.4375 101.5625 125.4062 101.5625 L124.8594 101.5625 L124.8594 100.9531 L125.1406 100.9531 Q126.1719 100.9531 126.6875 100.5312 Q127.2031 100.1094 127.2031 99.25 Q127.2031 98.4844 126.7812 98.0781 Q126.3594 97.6719 125.5625 97.6719 Q124.7656 97.6719 124.3359 98.0469 Q123.9062 98.4219 123.8281 99.1562 L123.1719 99.1562 L123.1719 97.625 Z" style="fill:black; stroke:none;" /><rect height="13" style="stroke:none;" width="7" x="108" y="94" /><path d="M109.8281 106.25 Q110.2969 106.5938 111.1719 106.5938 Q112.0625 106.5938 112.5781 106.0703 Q113.0938 105.5469 113.0938 104.6562 Q113.0938 103.4219 112.5625 102.8906 Q112.0156 102.3594 111 102.3594 L110.4375 102.3594 L110.4375 101.7188 L110.7344 101.7188 Q111.4844 101.7188 112 101.2969 Q112.4219 100.9531 112.4219 100.0156 Q112.4219 99.6094 112.1406 99.1406 Q111.6875 98.375 111.1562 98.3906 Q109.8281 98.4375 109.8281 100.7812 L109.8281 106.25 ZM108.75 109.5 L108.75 100.7812 Q108.75 98.3281 110.0781 98 Q110.7656 97.8125 111.25 97.8125 Q112.3438 97.8125 113.0469 98.6719 Q113.6094 99.3594 113.6094 99.9375 Q113.6094 100.7812 113.2031 101.2656 Q112.7969 101.75 112.0625 101.9844 Q113.1406 102.1406 113.75 102.7812 Q114.3281 103.4062 114.3281 104.6328 Q114.3281 105.8594 113.5078 106.5156 Q112.6875 107.1719 111.1406 107.1719 Q110.1875 107.1719 109.8281 107.0312 L109.8281 109.5 L108.75 109.5 Z" style="fill:black; stroke:none;" /></g></g></svg>