<svg xmlns="http://www.w3.org/2000/svg" style="fill-opacity:1; color-rendering:auto; color-interpolation:auto; text-rendering:auto; stroke:black; stroke-linecap:square; stroke-miterlimit:10; shape-rendering:auto; stroke-opacity:1; fill:black; stroke-dasharray:none; font-weight:normal; stroke-width:1; font-family:'Dialog'; font-style:normal; stroke-linejoin:miter; font-size:12px; stroke-dashoffset:0; image-rendering:auto;"><defs id="genericDefs" /><g><defs id="defs1"><clipPath clipPathUnits="userSpaceOnUse" id="clipPath1"><path d="M186 56 L208 56 L208 78 L186 78 L186 56 Z" /></clipPath><clipPath clipPathUnits="userSpaceOnUse" id="clipPath2"><path d="M156 93 C156 99.0751 151.0751 104 145 104 C138.9249 104 134 99.0751 134 93 C134 86.9249 138.9249 82 145 82 C151.0751 82 156 86.9249 156 93 Z" /></clipPath><clipPath clipPathUnits="userSpaceOnUse" id="clipPath3"><path d="M93 82 L104 93 L93 104 L82 93 Z" style="fill-rule:evenodd;" /></clipPath><clipPath clipPathUnits="userSpaceOnUse" id="clipPath4"><path d="M41 82 L52 93 L41 104 L30 93 Z" style="fill-rule:evenodd;" /></clipPath><clipPath clipPathUnits="userSpaceOnUse" id="clipPath5"><path d="M145 30 L156 41 L145 52 L134 41 Z" style="fill-rule:evenodd;" /></clipPath></defs><g style="fill:white; text-rendering:optimizeSpeed; stroke:white;"><rect height="134" style="stroke:none;" width="238" x="0" y="0" /></g><g ID="l-1:1,2" style="text-rendering:optimizeSpeed;"><polygon points=" 197 67 145 93" style="fill:none;" /></g><g ID="l-1:1,3" style="text-rendering:optimizeSpeed;"><polygon points=" 197 67 145 41" style="fill:none;" /></g><g ID="r-1:1" style="fill:white; text-rendering:optimizeSpeed; stroke:white;" wurcs_mono_id="1"><rect height="22" style="clip-path:url(#clipPath1); stroke:none;" width="22" x="186" y="56" /><rect height="22" style="clip-path:url(#clipPath1); fill:rgb(255,212,0); stroke:none;" width="22" x="186" y="56" /><rect height="22" style="clip-path:url(#clipPath1); fill:none; stroke:black;" width="22" x="186" y="56" /><rect height="22" style="fill:none; stroke:black;" width="22" x="186" y="56" /></g><g ID="l-1:2,4" style="text-rendering:optimizeSpeed;"><polygon points=" 145 93 93 93" style="fill:none;" /></g><g ID="r-1:2" style="fill:white; text-rendering:optimizeSpeed; stroke:white;" wurcs_mono_id="2"><circle cx="145" cy="93" r="11" style="clip-path:url(#clipPath2); stroke:none;" /><rect height="22" style="clip-path:url(#clipPath2); fill:rgb(255,212,0); stroke:none;" width="22" x="134" y="82" /><rect height="22" style="clip-path:url(#clipPath2); fill:none; stroke:black;" width="22" x="134" y="82" /><circle cx="145" cy="93" r="11" style="fill:none; stroke:black;" /></g><g ID="l-1:4,5" style="text-rendering:optimizeSpeed;"><polygon points=" 93 93 41 93" style="fill:none;" /></g><g ID="r-1:4" style="fill:white; text-rendering:optimizeSpeed; stroke:white;" wurcs_mono_id="3"><polygon points=" 93 82 104 93 93 104 82 93" style="stroke:none; clip-path:url(#clipPath3);" /><rect height="22" style="clip-path:url(#clipPath3); fill:rgb(165,67,153); stroke:none;" width="22" x="82" y="82" /><rect height="22" style="clip-path:url(#clipPath3); fill:none; stroke:black;" width="22" x="82" y="82" /><polygon points=" 93 82 104 93 93 104 82 93" style="fill:none; stroke:black;" /></g><g ID="r-1:5" style="fill:white; text-rendering:optimizeSpeed; stroke:white;" wurcs_mono_id="4"><polygon points=" 41 82 52 93 41 104 30 93" style="stroke:none; clip-path:url(#clipPath4);" /><rect height="22" style="clip-path:url(#clipPath4); fill:rgb(165,67,153); stroke:none;" width="22" x="30" y="82" /><rect height="22" style="clip-path:url(#clipPath4); fill:none; stroke:black;" width="22" x="30" y="82" /><polygon points=" 41 82 52 93 41 104 30 93" style="fill:none; stroke:black;" /></g><g ID="li-1:4,5" style="fill:white; text-rendering:optimizeSpeed; font-family:'Serif'; stroke:white;"><rect height="10" style="stroke:none;" width="7" x="70" y="96" /><path d="M75.5938 103.6094 Q75.5938 102.6719 75.125 102.1562 Q74.6562 101.6406 73.8125 101.6406 Q72.9688 101.6406 72.5078 102.1562 Q72.0469 102.6719 72.0469 103.6094 Q72.0469 104.5469 72.5078 105.0703 Q72.9688 105.5938 73.8125 105.5938 Q74.6562 105.5938 75.125 105.0703 Q75.5938 104.5469 75.5938 103.6094 ZM75.3438 99.3594 Q75.3438 98.5625 74.9453 98.1172 Q74.5469 97.6719 73.8125 97.6719 Q73.0938 97.6719 72.6875 98.1172 Q72.2812 98.5625 72.2812 99.3594 Q72.2812 100.1562 72.6875 100.6016 Q73.0938 101.0469 73.8125 101.0469 Q74.5469 101.0469 74.9453 100.6016 Q75.3438 100.1562 75.3438 99.3594 ZM74.7188 101.3438 Q75.7188 101.4688 76.2734 102.0703 Q76.8281 102.6719 76.8281 103.6094 Q76.8281 104.8438 76.0469 105.5078 Q75.2656 106.1719 73.8125 106.1719 Q72.375 106.1719 71.5859 105.5078 Q70.7969 104.8438 70.7969 103.6094 Q70.7969 102.6719 71.3594 102.0703 Q71.9219 101.4688 72.9219 101.3438 Q72.0312 101.1875 71.5625 100.6719 Q71.0938 100.1562 71.0938 99.3594 Q71.0938 98.3125 71.8203 97.7031 Q72.5469 97.0938 73.8125 97.0938 Q75.0938 97.0938 75.8203 97.7031 Q76.5469 98.3125 76.5469 99.3594 Q76.5469 100.1562 76.0703 100.6719 Q75.5938 101.1875 74.7188 101.3438 Z" style="fill:black; stroke:none;" /><rect height="8" style="stroke:none;" width="8" x="56" y="97" /><path d="M61.1875 103.4688 L60.9531 104.1094 Q60.7656 104.625 60.2031 104.9375 Q59.8438 105.1562 59.2031 105.1406 Q58.0469 105.1406 57.3281 104.2344 Q56.5938 103.3281 56.5938 101.8594 Q56.5938 100.4219 57.3281 99.4844 Q58.0156 98.5938 59.4531 98.6094 Q60.4531 98.6094 60.9531 99 Q61.4062 99.3438 61.5781 100.0938 L61.625 100.3125 L61.8438 99.6719 Q62.0625 99.0469 62.6562 98.75 L63.25 98.75 L63.25 99.0938 Q62.6875 99.2656 62.5 99.8125 L61.8906 101.4844 L62.2969 103.2812 Q62.5 104.2031 62.7344 104.2969 Q63.0469 104.4375 63.7812 104 L63.7812 104.7188 Q62.5938 105.4062 61.75 104.6875 Q61.375 104.3594 61.2656 103.875 L61.1875 103.4688 ZM60.9219 102.3125 L60.5625 100.5938 Q60.2656 99.2188 59.4688 99.2188 Q58.7969 99.2031 58.2812 99.9375 Q57.8594 100.5156 57.8594 101.875 Q57.8594 103.1719 58.2812 103.8281 Q58.75 104.5469 59.5312 104.5 Q60.2031 104.4375 60.6875 103 L60.9219 102.3125 Z" style="fill:black; stroke:none;" /></g><g ID="li-1:2,4" style="fill:white; text-rendering:optimizeSpeed; font-family:'Serif'; stroke:white;"><rect height="10" style="stroke:none;" width="7" x="122" y="96" /><path d="M123.1719 97.625 Q123.8594 97.3594 124.4844 97.2266 Q125.1094 97.0938 125.6562 97.0938 Q126.9531 97.0938 127.6719 97.6484 Q128.3906 98.2031 128.3906 99.1875 Q128.3906 99.9688 127.8906 100.5 Q127.3906 101.0312 126.4844 101.2188 Q127.5625 101.375 128.1562 102.0078 Q128.75 102.6406 128.75 103.6406 Q128.75 104.8594 127.9219 105.5156 Q127.0938 106.1719 125.5469 106.1719 Q124.8594 106.1719 124.2109 106.0234 Q123.5625 105.875 122.9219 105.5781 L122.9219 103.875 L123.5781 103.875 Q123.625 104.7188 124.1406 105.1562 Q124.6562 105.5938 125.5781 105.5938 Q126.4688 105.5938 126.9922 105.0703 Q127.5156 104.5469 127.5156 103.6562 Q127.5156 102.625 126.9766 102.0938 Q126.4375 101.5625 125.4062 101.5625 L124.8594 101.5625 L124.8594 100.9531 L125.1406 100.9531 Q126.1719 100.9531 126.6875 100.5312 Q127.2031 100.1094 127.2031 99.25 Q127.2031 98.4844 126.7812 98.0781 Q126.3594 97.6719 125.5625 97.6719 Q124.7656 97.6719 124.3359 98.0469 Q123.9062 98.4219 123.8281 99.1562 L123.1719 99.1562 L123.1719 97.625 Z" style="fill:black; stroke:none;" /><rect height="8" style="stroke:none;" width="8" x="108" y="97" /><path d="M113.1875 103.4688 L112.9531 104.1094 Q112.7656 104.625 112.2031 104.9375 Q111.8438 105.1562 111.2031 105.1406 Q110.0469 105.1406 109.3281 104.2344 Q108.5938 103.3281 108.5938 101.8594 Q108.5938 100.4219 109.3281 99.4844 Q110.0156 98.5938 111.4531 98.6094 Q112.4531 98.6094 112.9531 99 Q113.4062 99.3438 113.5781 100.0938 L113.625 100.3125 L113.8438 99.6719 Q114.0625 99.0469 114.6562 98.75 L115.25 98.75 L115.25 99.0938 Q114.6875 99.2656 114.5 99.8125 L113.8906 101.4844 L114.2969 103.2812 Q114.5 104.2031 114.7344 104.2969 Q115.0469 104.4375 115.7812 104 L115.7812 104.7188 Q114.5938 105.4062 113.75 104.6875 Q113.375 104.3594 113.2656 103.875 L113.1875 103.4688 ZM112.9219 102.3125 L112.5625 100.5938 Q112.2656 99.2188 111.4688 99.2188 Q110.7969 99.2031 110.2812 99.9375 Q109.8594 100.5156 109.8594 101.875 Q109.8594 103.1719 110.2812 103.8281 Q110.75 104.5469 111.5312 104.5 Q112.2031 104.4375 112.6875 103 L112.9219 102.3125 Z" style="fill:black; stroke:none;" /></g><g ID="r-1:3" style="fill:white; text-rendering:optimizeSpeed; stroke:white;" wurcs_mono_id="5"><polygon points=" 145 30 156 41 145 52 134 41" style="stroke:none; clip-path:url(#clipPath5);" /><rect height="22" style="clip-path:url(#clipPath5); fill:rgb(165,67,153); stroke:none;" width="22" x="134" y="30" /><rect height="22" style="clip-path:url(#clipPath5); fill:none; stroke:black;" width="22" x="134" y="30" /><polygon points=" 145 30 156 41 145 52 134 41" style="fill:none; stroke:black;" /></g><g ID="li-1:1,2" style="fill:white; text-rendering:optimizeSpeed; font-family:'Serif'; stroke:white;"><rect height="10" style="stroke:none;" width="7" x="178" y="78" /><path d="M179.1719 79.625 Q179.8594 79.3594 180.4844 79.2266 Q181.1094 79.0938 181.6562 79.0938 Q182.9531 79.0938 183.6719 79.6484 Q184.3906 80.2031 184.3906 81.1875 Q184.3906 81.9688 183.8906 82.5 Q183.3906 83.0312 182.4844 83.2188 Q183.5625 83.375 184.1562 84.0078 Q184.75 84.6406 184.75 85.6406 Q184.75 86.8594 183.9219 87.5156 Q183.0938 88.1719 181.5469 88.1719 Q180.8594 88.1719 180.2109 88.0234 Q179.5625 87.875 178.9219 87.5781 L178.9219 85.875 L179.5781 85.875 Q179.625 86.7188 180.1406 87.1562 Q180.6562 87.5938 181.5781 87.5938 Q182.4688 87.5938 182.9922 87.0703 Q183.5156 86.5469 183.5156 85.6562 Q183.5156 84.625 182.9766 84.0938 Q182.4375 83.5625 181.4062 83.5625 L180.8594 83.5625 L180.8594 82.9531 L181.1406 82.9531 Q182.1719 82.9531 182.6875 82.5312 Q183.2031 82.1094 183.2031 81.25 Q183.2031 80.4844 182.7812 80.0781 Q182.3594 79.6719 181.5625 79.6719 Q180.7656 79.6719 180.3359 80.0469 Q179.9062 80.4219 179.8281 81.1562 L179.1719 81.1562 L179.1719 79.625 Z" style="fill:black; stroke:none;" /><rect height="13" style="stroke:none;" width="7" x="163" y="84" /><path d="M164.8281 96.25 Q165.2969 96.5938 166.1719 96.5938 Q167.0625 96.5938 167.5781 96.0703 Q168.0938 95.5469 168.0938 94.6562 Q168.0938 93.4219 167.5625 92.8906 Q167.0156 92.3594 166 92.3594 L165.4375 92.3594 L165.4375 91.7188 L165.7344 91.7188 Q166.4844 91.7188 167 91.2969 Q167.4219 90.9531 167.4219 90.0156 Q167.4219 89.6094 167.1406 89.1406 Q166.6875 88.375 166.1562 88.3906 Q164.8281 88.4375 164.8281 90.7812 L164.8281 96.25 ZM163.75 99.5 L163.75 90.7812 Q163.75 88.3281 165.0781 88 Q165.7656 87.8125 166.25 87.8125 Q167.3438 87.8125 168.0469 88.6719 Q168.6094 89.3594 168.6094 89.9375 Q168.6094 90.7812 168.2031 91.2656 Q167.7969 91.75 167.0625 91.9844 Q168.1406 92.1406 168.75 92.7812 Q169.3281 93.4062 169.3281 94.6328 Q169.3281 95.8594 168.5078 96.5156 Q167.6875 97.1719 166.1406 97.1719 Q165.1875 97.1719 164.8281 97.0312 L164.8281 99.5 L163.75 99.5 Z" style="fill:black; stroke:none;" /></g><g ID="li-1:1,3" style="fill:white; text-rendering:optimizeSpeed; font-family:'Serif'; stroke:white;"><rect height="10" style="stroke:none;" width="7" x="171" y="60" /><path d="M174.9219 69.5938 Q175.75 69.5938 176.1953 68.9844 Q176.6406 68.375 176.6406 67.2344 Q176.6406 66.1094 176.1953 65.5 Q175.75 64.8906 174.9219 64.8906 Q174.0938 64.8906 173.6484 65.4766 Q173.2031 66.0625 173.2031 67.1719 Q173.2031 68.3281 173.6484 68.9609 Q174.0938 69.5938 174.9219 69.5938 ZM173.0156 65.1875 Q173.4219 64.75 173.9219 64.5312 Q174.4219 64.3125 175.0625 64.3125 Q176.3594 64.3125 177.1172 65.0938 Q177.875 65.875 177.875 67.2344 Q177.875 68.5625 177.0625 69.3672 Q176.25 70.1719 174.875 70.1719 Q173.3906 70.1719 172.5938 69.0625 Q171.7969 67.9531 171.7969 65.9062 Q171.7969 63.6094 172.7422 62.3516 Q173.6875 61.0938 175.4062 61.0938 Q175.875 61.0938 176.3828 61.1797 Q176.8906 61.2656 177.4219 61.4375 L177.4219 62.8906 L176.7656 62.8906 Q176.6875 62.2969 176.3047 61.9844 Q175.9219 61.6719 175.2812 61.6719 Q174.1406 61.6719 173.5859 62.5312 Q173.0312 63.3906 173.0156 65.1875 Z" style="fill:black; stroke:none;" /><rect height="8" style="stroke:none;" width="8" x="155" y="53" /><path d="M160.1875 59.4688 L159.9531 60.1094 Q159.7656 60.625 159.2031 60.9375 Q158.8438 61.1562 158.2031 61.1406 Q157.0469 61.1406 156.3281 60.2344 Q155.5938 59.3281 155.5938 57.8594 Q155.5938 56.4219 156.3281 55.4844 Q157.0156 54.5938 158.4531 54.6094 Q159.4531 54.6094 159.9531 55 Q160.4062 55.3438 160.5781 56.0938 L160.625 56.3125 L160.8438 55.6719 Q161.0625 55.0469 161.6562 54.75 L162.25 54.75 L162.25 55.0938 Q161.6875 55.2656 161.5 55.8125 L160.8906 57.4844 L161.2969 59.2812 Q161.5 60.2031 161.7344 60.2969 Q162.0469 60.4375 162.7812 60 L162.7812 60.7188 Q161.5938 61.4062 160.75 60.6875 Q160.375 60.3594 160.2656 59.875 L160.1875 59.4688 ZM159.9219 58.3125 L159.5625 56.5938 Q159.2656 55.2188 158.4688 55.2188 Q157.7969 55.2031 157.2812 55.9375 Q156.8594 56.5156 156.8594 57.875 Q156.8594 59.1719 157.2812 59.8281 Q157.75 60.5469 158.5312 60.5 Q159.2031 60.4375 159.6875 59 L159.9219 58.3125 Z" style="fill:black; stroke:none;" /></g></g></svg>