<svg xmlns="http://www.w3.org/2000/svg" style="fill-opacity:1; color-rendering:auto; color-interpolation:auto; text-rendering:auto; stroke:black; stroke-linecap:square; stroke-miterlimit:10; shape-rendering:auto; stroke-opacity:1; fill:black; stroke-dasharray:none; font-weight:normal; stroke-width:1; font-family:'Dialog'; font-style:normal; stroke-linejoin:miter; font-size:12px; stroke-dashoffset:0; image-rendering:auto;"><defs id="genericDefs" /><g><defs id="defs1"><clipPath clipPathUnits="userSpaceOnUse" id="clipPath1"><path d="M394 160 L416 160 L416 182 L394 182 L394 160 Z" /></clipPath><clipPath clipPathUnits="userSpaceOnUse" id="clipPath2"><path d="M342 160 L364 160 L364 182 L342 182 L342 160 Z" /></clipPath><clipPath clipPathUnits="userSpaceOnUse" id="clipPath3"><path d="M312 171 C312 177.0751 307.0751 182 301 182 C294.9249 182 290 177.0751 290 171 C290 164.9249 294.9249 160 301 160 C307.0751 160 312 164.9249 312 171 Z" /></clipPath><clipPath clipPathUnits="userSpaceOnUse" id="clipPath4"><path d="M260 223 C260 229.0751 255.0751 234 249 234 C242.9249 234 238 229.0751 238 223 C238 216.9249 242.9249 212 249 212 C255.0751 212 260 216.9249 260 223 Z" /></clipPath><clipPath clipPathUnits="userSpaceOnUse" id="clipPath5"><path d="M186 238 L208 238 L208 260 L186 260 L186 238 Z" /></clipPath><clipPath clipPathUnits="userSpaceOnUse" id="clipPath6"><path d="M145 238 L156 249 L145 260 L134 249 Z" style="fill-rule:evenodd;" /></clipPath><clipPath clipPathUnits="userSpaceOnUse" id="clipPath7"><path d="M104 249 C104 255.0751 99.0751 260 93 260 C86.9249 260 82 255.0751 82 249 C82 242.9249 86.9249 238 93 238 C99.0751 238 104 242.9249 104 249 Z" /></clipPath><clipPath clipPathUnits="userSpaceOnUse" id="clipPath8"><path d="M41 238 L52 249 L41 260 L30 249 Z" style="fill-rule:evenodd;" /></clipPath><clipPath clipPathUnits="userSpaceOnUse" id="clipPath9"><path d="M186 186 L208 186 L208 208 L186 208 L186 186 Z" /></clipPath><clipPath clipPathUnits="userSpaceOnUse" id="clipPath10"><path d="M156 197 C156 203.0751 151.0751 208 145 208 C138.9249 208 134 203.0751 134 197 C134 190.9249 138.9249 186 145 186 C151.0751 186 156 190.9249 156 197 Z" /></clipPath><clipPath clipPathUnits="userSpaceOnUse" id="clipPath11"><path d="M93 186 L104 197 L93 208 L82 197 Z" style="fill-rule:evenodd;" /></clipPath><clipPath clipPathUnits="userSpaceOnUse" id="clipPath12"><path d="M260 119 C260 125.0751 255.0751 130 249 130 C242.9249 130 238 125.0751 238 119 C238 112.9249 242.9249 108 249 108 C255.0751 108 260 112.9249 260 119 Z" /></clipPath><clipPath clipPathUnits="userSpaceOnUse" id="clipPath13"><path d="M186 134 L208 134 L208 156 L186 156 L186 134 Z" /></clipPath><clipPath clipPathUnits="userSpaceOnUse" id="clipPath14"><path d="M156 145 C156 151.0751 151.0751 156 145 156 C138.9249 156 134 151.0751 134 145 C134 138.9249 138.9249 134 145 134 C151.0751 134 156 138.9249 156 145 Z" /></clipPath><clipPath clipPathUnits="userSpaceOnUse" id="clipPath15"><path d="M93 134 L104 145 L93 156 L82 145 Z" style="fill-rule:evenodd;" /></clipPath><clipPath clipPathUnits="userSpaceOnUse" id="clipPath16"><path d="M186 82 L208 82 L208 104 L186 104 L186 82 Z" /></clipPath><clipPath clipPathUnits="userSpaceOnUse" id="clipPath17"><path d="M197 52 L186 30 L208 30 Z" style="fill-rule:evenodd;" /></clipPath><clipPath clipPathUnits="userSpaceOnUse" id="clipPath18"><path d="M156 93 C156 99.0751 151.0751 104 145 104 C138.9249 104 134 99.0751 134 93 C134 86.9249 138.9249 82 145 82 C151.0751 82 156 86.9249 156 93 Z" /></clipPath><clipPath clipPathUnits="userSpaceOnUse" id="clipPath19"><path d="M405 130 L394 108 L416 108 Z" style="fill-rule:evenodd;" /></clipPath></defs><g style="fill:white; text-rendering:optimizeSpeed; stroke:white;"><rect height="290" style="stroke:none;" width="446" x="0" y="0" /></g><g ID="l-1:1,2" style="text-rendering:optimizeSpeed;"><polygon points=" 405 171 353 171" style="fill:none;" /></g><g ID="l-1:1,3" style="text-rendering:optimizeSpeed;"><polygon points=" 405 171 405 119" style="fill:none;" /></g><g ID="r-1:1" style="fill:white; text-rendering:optimizeSpeed; stroke:white;" wurcs_mono_id="1"><rect height="22" style="clip-path:url(#clipPath1); stroke:none;" width="22" x="394" y="160" /><rect height="22" style="clip-path:url(#clipPath1); fill:rgb(0,144,188); stroke:none;" width="22" x="394" y="160" /><rect height="22" style="clip-path:url(#clipPath1); fill:none; stroke:black;" width="22" x="394" y="160" /><rect height="22" style="fill:none; stroke:black;" width="22" x="394" y="160" /></g><g ID="l-1:2,4" style="text-rendering:optimizeSpeed;"><polygon points=" 353 171 301 171" style="fill:none;" /></g><g ID="r-1:2" style="fill:white; text-rendering:optimizeSpeed; stroke:white;" wurcs_mono_id="2"><rect height="22" style="clip-path:url(#clipPath2); stroke:none;" width="22" x="342" y="160" /><rect height="22" style="clip-path:url(#clipPath2); fill:rgb(0,144,188); stroke:none;" width="22" x="342" y="160" /><rect height="22" style="clip-path:url(#clipPath2); fill:none; stroke:black;" width="22" x="342" y="160" /><rect height="22" style="fill:none; stroke:black;" width="22" x="342" y="160" /></g><g ID="l-1:4,5" style="text-rendering:optimizeSpeed;"><polygon points=" 301 171 249 223" style="fill:none;" /></g><g ID="l-1:4,6" style="text-rendering:optimizeSpeed;"><polygon points=" 301 171 249 119" style="fill:none;" /></g><g ID="r-1:4" style="fill:white; text-rendering:optimizeSpeed; stroke:white;" wurcs_mono_id="3"><circle cx="301" cy="171" r="11" style="clip-path:url(#clipPath3); stroke:none;" /><rect height="22" style="clip-path:url(#clipPath3); fill:rgb(0,166,81); stroke:none;" width="22" x="290" y="160" /><rect height="22" style="clip-path:url(#clipPath3); fill:none; stroke:black;" width="22" x="290" y="160" /><circle cx="301" cy="171" r="11" style="fill:none; stroke:black;" /></g><g ID="l-1:5,7" style="text-rendering:optimizeSpeed;"><polygon points=" 249 223 197 249" style="fill:none;" /></g><g ID="l-1:5,8" style="text-rendering:optimizeSpeed;"><polygon points=" 249 223 197 197" style="fill:none;" /></g><g ID="r-1:5" style="fill:white; text-rendering:optimizeSpeed; stroke:white;" wurcs_mono_id="4"><circle cx="249" cy="223" r="11" style="clip-path:url(#clipPath4); stroke:none;" /><rect height="22" style="clip-path:url(#clipPath4); fill:rgb(0,166,81); stroke:none;" width="22" x="238" y="212" /><rect height="22" style="clip-path:url(#clipPath4); fill:none; stroke:black;" width="22" x="238" y="212" /><circle cx="249" cy="223" r="11" style="fill:none; stroke:black;" /></g><g ID="l-1:7,9" style="text-rendering:optimizeSpeed;"><polygon points=" 197 249 145 249" style="fill:none;" /></g><g ID="r-1:7" style="fill:white; text-rendering:optimizeSpeed; stroke:white;" wurcs_mono_id="5"><rect height="22" style="clip-path:url(#clipPath5); stroke:none;" width="22" x="186" y="238" /><rect height="22" style="clip-path:url(#clipPath5); fill:rgb(0,144,188); stroke:none;" width="22" x="186" y="238" /><rect height="22" style="clip-path:url(#clipPath5); fill:none; stroke:black;" width="22" x="186" y="238" /><rect height="22" style="fill:none; stroke:black;" width="22" x="186" y="238" /></g><g ID="l-1:9,10" style="text-rendering:optimizeSpeed;"><polygon points=" 145 249 93 249" style="fill:none;" /></g><g ID="r-1:9" style="fill:white; text-rendering:optimizeSpeed; stroke:white;" wurcs_mono_id="6"><polygon points=" 145 238 156 249 145 260 134 249" style="stroke:none; clip-path:url(#clipPath6);" /><rect height="22" style="clip-path:url(#clipPath6); fill:rgb(165,67,153); stroke:none;" width="22" x="134" y="238" /><rect height="22" style="clip-path:url(#clipPath6); fill:none; stroke:black;" width="22" x="134" y="238" /><polygon points=" 145 238 156 249 145 260 134 249" style="fill:none; stroke:black;" /></g><g ID="l-1:10,11" style="text-rendering:optimizeSpeed;"><polygon points=" 93 249 41 249" style="fill:none;" /></g><g ID="r-1:10" style="fill:white; text-rendering:optimizeSpeed; stroke:white;" wurcs_mono_id="7"><circle cx="93" cy="249" r="11" style="clip-path:url(#clipPath7); stroke:none;" /><rect height="22" style="clip-path:url(#clipPath7); fill:rgb(255,212,0); stroke:none;" width="22" x="82" y="238" /><rect height="22" style="clip-path:url(#clipPath7); fill:none; stroke:black;" width="22" x="82" y="238" /><circle cx="93" cy="249" r="11" style="fill:none; stroke:black;" /></g><g ID="r-1:11" style="fill:white; text-rendering:optimizeSpeed; stroke:white;" wurcs_mono_id="8"><polygon points=" 41 238 52 249 41 260 30 249" style="stroke:none; clip-path:url(#clipPath8);" /><rect height="22" style="clip-path:url(#clipPath8); fill:rgb(165,67,153); stroke:none;" width="22" x="30" y="238" /><rect height="22" style="clip-path:url(#clipPath8); fill:none; stroke:black;" width="22" x="30" y="238" /><polygon points=" 41 238 52 249 41 260 30 249" style="fill:none; stroke:black;" /></g><g ID="li-1:10,11" style="fill:white; text-rendering:optimizeSpeed; font-family:'Serif'; stroke:white;"><rect height="10" style="stroke:none;" width="6" x="71" y="252" /><path d="M73.1094 261.3906 Q73.1094 261.0625 73.3359 260.8359 Q73.5625 260.6094 73.8906 260.6094 Q74.2188 260.6094 74.4453 260.8359 Q74.6719 261.0625 74.6719 261.3906 Q74.6719 261.7188 74.4453 261.9453 Q74.2188 262.1719 73.8906 262.1719 Q73.5625 262.1719 73.3359 261.9453 Q73.1094 261.7188 73.1094 261.3906 ZM71.8125 253.6406 Q72.4375 253.3594 73 253.2266 Q73.5625 253.0938 74.0469 253.0938 Q75.3438 253.0938 76.1016 253.7188 Q76.8594 254.3438 76.8594 255.4062 Q76.8594 256.5 76.2109 257.1953 Q75.5625 257.8906 74.25 258.1875 L74.25 259.6719 L73.5312 259.6719 L73.5312 257.75 Q74.5625 257.5 75.0938 256.9062 Q75.625 256.3125 75.625 255.4062 Q75.625 254.5938 75.1953 254.1328 Q74.7656 253.6719 74.0312 253.6719 Q73.3594 253.6719 72.9297 254.0547 Q72.5 254.4375 72.3906 255.1562 L71.8125 255.1562 L71.8125 253.6406 Z" style="fill:black; stroke:none;" /><rect height="10" style="stroke:none;" width="6" x="57" y="252" /><path d="M59.1094 261.3906 Q59.1094 261.0625 59.3359 260.8359 Q59.5625 260.6094 59.8906 260.6094 Q60.2188 260.6094 60.4453 260.8359 Q60.6719 261.0625 60.6719 261.3906 Q60.6719 261.7188 60.4453 261.9453 Q60.2188 262.1719 59.8906 262.1719 Q59.5625 262.1719 59.3359 261.9453 Q59.1094 261.7188 59.1094 261.3906 ZM57.8125 253.6406 Q58.4375 253.3594 59 253.2266 Q59.5625 253.0938 60.0469 253.0938 Q61.3438 253.0938 62.1016 253.7188 Q62.8594 254.3438 62.8594 255.4062 Q62.8594 256.5 62.2109 257.1953 Q61.5625 257.8906 60.25 258.1875 L60.25 259.6719 L59.5312 259.6719 L59.5312 257.75 Q60.5625 257.5 61.0938 256.9062 Q61.625 256.3125 61.625 255.4062 Q61.625 254.5938 61.1953 254.1328 Q60.7656 253.6719 60.0312 253.6719 Q59.3594 253.6719 58.9297 254.0547 Q58.5 254.4375 58.3906 255.1562 L57.8125 255.1562 L57.8125 253.6406 Z" style="fill:black; stroke:none;" /></g><g ID="li-1:9,10" style="fill:white; text-rendering:optimizeSpeed; font-family:'Serif'; stroke:white;"><rect height="10" style="stroke:none;" width="6" x="123" y="252" /><path d="M125.1094 261.3906 Q125.1094 261.0625 125.3359 260.8359 Q125.5625 260.6094 125.8906 260.6094 Q126.2188 260.6094 126.4453 260.8359 Q126.6719 261.0625 126.6719 261.3906 Q126.6719 261.7188 126.4453 261.9453 Q126.2188 262.1719 125.8906 262.1719 Q125.5625 262.1719 125.3359 261.9453 Q125.1094 261.7188 125.1094 261.3906 ZM123.8125 253.6406 Q124.4375 253.3594 125 253.2266 Q125.5625 253.0938 126.0469 253.0938 Q127.3438 253.0938 128.1016 253.7188 Q128.8594 254.3438 128.8594 255.4062 Q128.8594 256.5 128.2109 257.1953 Q127.5625 257.8906 126.25 258.1875 L126.25 259.6719 L125.5312 259.6719 L125.5312 257.75 Q126.5625 257.5 127.0938 256.9062 Q127.625 256.3125 127.625 255.4062 Q127.625 254.5938 127.1953 254.1328 Q126.7656 253.6719 126.0312 253.6719 Q125.3594 253.6719 124.9297 254.0547 Q124.5 254.4375 124.3906 255.1562 L123.8125 255.1562 L123.8125 253.6406 Z" style="fill:black; stroke:none;" /><rect height="10" style="stroke:none;" width="6" x="109" y="252" /><path d="M111.1094 261.3906 Q111.1094 261.0625 111.3359 260.8359 Q111.5625 260.6094 111.8906 260.6094 Q112.2188 260.6094 112.4453 260.8359 Q112.6719 261.0625 112.6719 261.3906 Q112.6719 261.7188 112.4453 261.9453 Q112.2188 262.1719 111.8906 262.1719 Q111.5625 262.1719 111.3359 261.9453 Q111.1094 261.7188 111.1094 261.3906 ZM109.8125 253.6406 Q110.4375 253.3594 111 253.2266 Q111.5625 253.0938 112.0469 253.0938 Q113.3438 253.0938 114.1016 253.7188 Q114.8594 254.3438 114.8594 255.4062 Q114.8594 256.5 114.2109 257.1953 Q113.5625 257.8906 112.25 258.1875 L112.25 259.6719 L111.5312 259.6719 L111.5312 257.75 Q112.5625 257.5 113.0938 256.9062 Q113.625 256.3125 113.625 255.4062 Q113.625 254.5938 113.1953 254.1328 Q112.7656 253.6719 112.0312 253.6719 Q111.3594 253.6719 110.9297 254.0547 Q110.5 254.4375 110.3906 255.1562 L109.8125 255.1562 L109.8125 253.6406 Z" style="fill:black; stroke:none;" /></g><g ID="li-1:7,9" style="fill:white; text-rendering:optimizeSpeed; font-family:'Serif'; stroke:white;"><rect height="10" style="stroke:none;" width="6" x="175" y="252" /><path d="M177.1094 261.3906 Q177.1094 261.0625 177.3359 260.8359 Q177.5625 260.6094 177.8906 260.6094 Q178.2188 260.6094 178.4453 260.8359 Q178.6719 261.0625 178.6719 261.3906 Q178.6719 261.7188 178.4453 261.9453 Q178.2188 262.1719 177.8906 262.1719 Q177.5625 262.1719 177.3359 261.9453 Q177.1094 261.7188 177.1094 261.3906 ZM175.8125 253.6406 Q176.4375 253.3594 177 253.2266 Q177.5625 253.0938 178.0469 253.0938 Q179.3438 253.0938 180.1016 253.7188 Q180.8594 254.3438 180.8594 255.4062 Q180.8594 256.5 180.2109 257.1953 Q179.5625 257.8906 178.25 258.1875 L178.25 259.6719 L177.5312 259.6719 L177.5312 257.75 Q178.5625 257.5 179.0938 256.9062 Q179.625 256.3125 179.625 255.4062 Q179.625 254.5938 179.1953 254.1328 Q178.7656 253.6719 178.0312 253.6719 Q177.3594 253.6719 176.9297 254.0547 Q176.5 254.4375 176.3906 255.1562 L175.8125 255.1562 L175.8125 253.6406 Z" style="fill:black; stroke:none;" /><rect height="10" style="stroke:none;" width="6" x="161" y="252" /><path d="M163.1094 261.3906 Q163.1094 261.0625 163.3359 260.8359 Q163.5625 260.6094 163.8906 260.6094 Q164.2188 260.6094 164.4453 260.8359 Q164.6719 261.0625 164.6719 261.3906 Q164.6719 261.7188 164.4453 261.9453 Q164.2188 262.1719 163.8906 262.1719 Q163.5625 262.1719 163.3359 261.9453 Q163.1094 261.7188 163.1094 261.3906 ZM161.8125 253.6406 Q162.4375 253.3594 163 253.2266 Q163.5625 253.0938 164.0469 253.0938 Q165.3438 253.0938 166.1016 253.7188 Q166.8594 254.3438 166.8594 255.4062 Q166.8594 256.5 166.2109 257.1953 Q165.5625 257.8906 164.25 258.1875 L164.25 259.6719 L163.5312 259.6719 L163.5312 257.75 Q164.5625 257.5 165.0938 256.9062 Q165.625 256.3125 165.625 255.4062 Q165.625 254.5938 165.1953 254.1328 Q164.7656 253.6719 164.0312 253.6719 Q163.3594 253.6719 162.9297 254.0547 Q162.5 254.4375 162.3906 255.1562 L161.8125 255.1562 L161.8125 253.6406 Z" style="fill:black; stroke:none;" /></g><g ID="l-1:8,12" style="text-rendering:optimizeSpeed;"><polygon points=" 197 197 145 197" style="fill:none;" /></g><g ID="r-1:8" style="fill:white; text-rendering:optimizeSpeed; stroke:white;" wurcs_mono_id="9"><rect height="22" style="clip-path:url(#clipPath9); stroke:none;" width="22" x="186" y="186" /><rect height="22" style="clip-path:url(#clipPath9); fill:rgb(0,144,188); stroke:none;" width="22" x="186" y="186" /><rect height="22" style="clip-path:url(#clipPath9); fill:none; stroke:black;" width="22" x="186" y="186" /><rect height="22" style="fill:none; stroke:black;" width="22" x="186" y="186" /></g><g ID="l-1:12,13" style="text-rendering:optimizeSpeed;"><polygon points=" 145 197 93 197" style="fill:none;" /></g><g ID="r-1:12" style="fill:white; text-rendering:optimizeSpeed; stroke:white;" wurcs_mono_id="10"><circle cx="145" cy="197" r="11" style="clip-path:url(#clipPath10); stroke:none;" /><rect height="22" style="clip-path:url(#clipPath10); fill:rgb(255,212,0); stroke:none;" width="22" x="134" y="186" /><rect height="22" style="clip-path:url(#clipPath10); fill:none; stroke:black;" width="22" x="134" y="186" /><circle cx="145" cy="197" r="11" style="fill:none; stroke:black;" /></g><g ID="r-1:13" style="fill:white; text-rendering:optimizeSpeed; stroke:white;" wurcs_mono_id="11"><polygon points=" 93 186 104 197 93 208 82 197" style="stroke:none; clip-path:url(#clipPath11);" /><rect height="22" style="clip-path:url(#clipPath11); fill:rgb(165,67,153); stroke:none;" width="22" x="82" y="186" /><rect height="22" style="clip-path:url(#clipPath11); fill:none; stroke:black;" width="22" x="82" y="186" /><polygon points=" 93 186 104 197 93 208 82 197" style="fill:none; stroke:black;" /></g><g ID="li-1:12,13" style="fill:white; text-rendering:optimizeSpeed; font-family:'Serif'; stroke:white;"><rect height="10" style="stroke:none;" width="6" x="123" y="200" /><path d="M125.1094 209.3906 Q125.1094 209.0625 125.3359 208.8359 Q125.5625 208.6094 125.8906 208.6094 Q126.2188 208.6094 126.4453 208.8359 Q126.6719 209.0625 126.6719 209.3906 Q126.6719 209.7188 126.4453 209.9453 Q126.2188 210.1719 125.8906 210.1719 Q125.5625 210.1719 125.3359 209.9453 Q125.1094 209.7188 125.1094 209.3906 ZM123.8125 201.6406 Q124.4375 201.3594 125 201.2266 Q125.5625 201.0938 126.0469 201.0938 Q127.3438 201.0938 128.1016 201.7188 Q128.8594 202.3438 128.8594 203.4062 Q128.8594 204.5 128.2109 205.1953 Q127.5625 205.8906 126.25 206.1875 L126.25 207.6719 L125.5312 207.6719 L125.5312 205.75 Q126.5625 205.5 127.0938 204.9062 Q127.625 204.3125 127.625 203.4062 Q127.625 202.5938 127.1953 202.1328 Q126.7656 201.6719 126.0312 201.6719 Q125.3594 201.6719 124.9297 202.0547 Q124.5 202.4375 124.3906 203.1562 L123.8125 203.1562 L123.8125 201.6406 Z" style="fill:black; stroke:none;" /><rect height="10" style="stroke:none;" width="6" x="109" y="200" /><path d="M111.1094 209.3906 Q111.1094 209.0625 111.3359 208.8359 Q111.5625 208.6094 111.8906 208.6094 Q112.2188 208.6094 112.4453 208.8359 Q112.6719 209.0625 112.6719 209.3906 Q112.6719 209.7188 112.4453 209.9453 Q112.2188 210.1719 111.8906 210.1719 Q111.5625 210.1719 111.3359 209.9453 Q111.1094 209.7188 111.1094 209.3906 ZM109.8125 201.6406 Q110.4375 201.3594 111 201.2266 Q111.5625 201.0938 112.0469 201.0938 Q113.3438 201.0938 114.1016 201.7188 Q114.8594 202.3438 114.8594 203.4062 Q114.8594 204.5 114.2109 205.1953 Q113.5625 205.8906 112.25 206.1875 L112.25 207.6719 L111.5312 207.6719 L111.5312 205.75 Q112.5625 205.5 113.0938 204.9062 Q113.625 204.3125 113.625 203.4062 Q113.625 202.5938 113.1953 202.1328 Q112.7656 201.6719 112.0312 201.6719 Q111.3594 201.6719 110.9297 202.0547 Q110.5 202.4375 110.3906 203.1562 L109.8125 203.1562 L109.8125 201.6406 Z" style="fill:black; stroke:none;" /></g><g ID="li-1:8,12" style="fill:white; text-rendering:optimizeSpeed; font-family:'Serif'; stroke:white;"><rect height="10" style="stroke:none;" width="6" x="175" y="200" /><path d="M177.1094 209.3906 Q177.1094 209.0625 177.3359 208.8359 Q177.5625 208.6094 177.8906 208.6094 Q178.2188 208.6094 178.4453 208.8359 Q178.6719 209.0625 178.6719 209.3906 Q178.6719 209.7188 178.4453 209.9453 Q178.2188 210.1719 177.8906 210.1719 Q177.5625 210.1719 177.3359 209.9453 Q177.1094 209.7188 177.1094 209.3906 ZM175.8125 201.6406 Q176.4375 201.3594 177 201.2266 Q177.5625 201.0938 178.0469 201.0938 Q179.3438 201.0938 180.1016 201.7188 Q180.8594 202.3438 180.8594 203.4062 Q180.8594 204.5 180.2109 205.1953 Q179.5625 205.8906 178.25 206.1875 L178.25 207.6719 L177.5312 207.6719 L177.5312 205.75 Q178.5625 205.5 179.0938 204.9062 Q179.625 204.3125 179.625 203.4062 Q179.625 202.5938 179.1953 202.1328 Q178.7656 201.6719 178.0312 201.6719 Q177.3594 201.6719 176.9297 202.0547 Q176.5 202.4375 176.3906 203.1562 L175.8125 203.1562 L175.8125 201.6406 Z" style="fill:black; stroke:none;" /><rect height="10" style="stroke:none;" width="6" x="161" y="200" /><path d="M163.1094 209.3906 Q163.1094 209.0625 163.3359 208.8359 Q163.5625 208.6094 163.8906 208.6094 Q164.2188 208.6094 164.4453 208.8359 Q164.6719 209.0625 164.6719 209.3906 Q164.6719 209.7188 164.4453 209.9453 Q164.2188 210.1719 163.8906 210.1719 Q163.5625 210.1719 163.3359 209.9453 Q163.1094 209.7188 163.1094 209.3906 ZM161.8125 201.6406 Q162.4375 201.3594 163 201.2266 Q163.5625 201.0938 164.0469 201.0938 Q165.3438 201.0938 166.1016 201.7188 Q166.8594 202.3438 166.8594 203.4062 Q166.8594 204.5 166.2109 205.1953 Q165.5625 205.8906 164.25 206.1875 L164.25 207.6719 L163.5312 207.6719 L163.5312 205.75 Q164.5625 205.5 165.0938 204.9062 Q165.625 204.3125 165.625 203.4062 Q165.625 202.5938 165.1953 202.1328 Q164.7656 201.6719 164.0312 201.6719 Q163.3594 201.6719 162.9297 202.0547 Q162.5 202.4375 162.3906 203.1562 L161.8125 203.1562 L161.8125 201.6406 Z" style="fill:black; stroke:none;" /></g><g ID="li-1:5,7" style="fill:white; text-rendering:optimizeSpeed; font-family:'Serif'; stroke:white;"><rect height="10" style="stroke:none;" width="6" x="231" y="234" /><path d="M233.1094 243.3906 Q233.1094 243.0625 233.3359 242.8359 Q233.5625 242.6094 233.8906 242.6094 Q234.2188 242.6094 234.4453 242.8359 Q234.6719 243.0625 234.6719 243.3906 Q234.6719 243.7188 234.4453 243.9453 Q234.2188 244.1719 233.8906 244.1719 Q233.5625 244.1719 233.3359 243.9453 Q233.1094 243.7188 233.1094 243.3906 ZM231.8125 235.6406 Q232.4375 235.3594 233 235.2266 Q233.5625 235.0938 234.0469 235.0938 Q235.3438 235.0938 236.1016 235.7188 Q236.8594 236.3438 236.8594 237.4062 Q236.8594 238.5 236.2109 239.1953 Q235.5625 239.8906 234.25 240.1875 L234.25 241.6719 L233.5312 241.6719 L233.5312 239.75 Q234.5625 239.5 235.0938 238.9062 Q235.625 238.3125 235.625 237.4062 Q235.625 236.5938 235.1953 236.1328 Q234.7656 235.6719 234.0312 235.6719 Q233.3594 235.6719 232.9297 236.0547 Q232.5 236.4375 232.3906 237.1562 L231.8125 237.1562 L231.8125 235.6406 Z" style="fill:black; stroke:none;" /><rect height="10" style="stroke:none;" width="6" x="215" y="242" /><path d="M217.1094 251.3906 Q217.1094 251.0625 217.3359 250.8359 Q217.5625 250.6094 217.8906 250.6094 Q218.2188 250.6094 218.4453 250.8359 Q218.6719 251.0625 218.6719 251.3906 Q218.6719 251.7188 218.4453 251.9453 Q218.2188 252.1719 217.8906 252.1719 Q217.5625 252.1719 217.3359 251.9453 Q217.1094 251.7188 217.1094 251.3906 ZM215.8125 243.6406 Q216.4375 243.3594 217 243.2266 Q217.5625 243.0938 218.0469 243.0938 Q219.3438 243.0938 220.1016 243.7188 Q220.8594 244.3438 220.8594 245.4062 Q220.8594 246.5 220.2109 247.1953 Q219.5625 247.8906 218.25 248.1875 L218.25 249.6719 L217.5312 249.6719 L217.5312 247.75 Q218.5625 247.5 219.0938 246.9062 Q219.625 246.3125 219.625 245.4062 Q219.625 244.5938 219.1953 244.1328 Q218.7656 243.6719 218.0312 243.6719 Q217.3594 243.6719 216.9297 244.0547 Q216.5 244.4375 216.3906 245.1562 L215.8125 245.1562 L215.8125 243.6406 Z" style="fill:black; stroke:none;" /></g><g ID="li-1:5,8" style="fill:white; text-rendering:optimizeSpeed; font-family:'Serif'; stroke:white;"><rect height="10" style="stroke:none;" width="6" x="224" y="216" /><path d="M226.1094 225.3906 Q226.1094 225.0625 226.3359 224.8359 Q226.5625 224.6094 226.8906 224.6094 Q227.2188 224.6094 227.4453 224.8359 Q227.6719 225.0625 227.6719 225.3906 Q227.6719 225.7188 227.4453 225.9453 Q227.2188 226.1719 226.8906 226.1719 Q226.5625 226.1719 226.3359 225.9453 Q226.1094 225.7188 226.1094 225.3906 ZM224.8125 217.6406 Q225.4375 217.3594 226 217.2266 Q226.5625 217.0938 227.0469 217.0938 Q228.3438 217.0938 229.1016 217.7188 Q229.8594 218.3438 229.8594 219.4062 Q229.8594 220.5 229.2109 221.1953 Q228.5625 221.8906 227.25 222.1875 L227.25 223.6719 L226.5312 223.6719 L226.5312 221.75 Q227.5625 221.5 228.0938 220.9062 Q228.625 220.3125 228.625 219.4062 Q228.625 218.5938 228.1953 218.1328 Q227.7656 217.6719 227.0312 217.6719 Q226.3594 217.6719 225.9297 218.0547 Q225.5 218.4375 225.3906 219.1562 L224.8125 219.1562 L224.8125 217.6406 Z" style="fill:black; stroke:none;" /><rect height="10" style="stroke:none;" width="6" x="208" y="208" /><path d="M210.1094 217.3906 Q210.1094 217.0625 210.3359 216.8359 Q210.5625 216.6094 210.8906 216.6094 Q211.2188 216.6094 211.4453 216.8359 Q211.6719 217.0625 211.6719 217.3906 Q211.6719 217.7188 211.4453 217.9453 Q211.2188 218.1719 210.8906 218.1719 Q210.5625 218.1719 210.3359 217.9453 Q210.1094 217.7188 210.1094 217.3906 ZM208.8125 209.6406 Q209.4375 209.3594 210 209.2266 Q210.5625 209.0938 211.0469 209.0938 Q212.3438 209.0938 213.1016 209.7188 Q213.8594 210.3438 213.8594 211.4062 Q213.8594 212.5 213.2109 213.1953 Q212.5625 213.8906 211.25 214.1875 L211.25 215.6719 L210.5312 215.6719 L210.5312 213.75 Q211.5625 213.5 212.0938 212.9062 Q212.625 212.3125 212.625 211.4062 Q212.625 210.5938 212.1953 210.1328 Q211.7656 209.6719 211.0312 209.6719 Q210.3594 209.6719 209.9297 210.0547 Q209.5 210.4375 209.3906 211.1562 L208.8125 211.1562 L208.8125 209.6406 Z" style="fill:black; stroke:none;" /></g><g ID="l-1:6,14" style="text-rendering:optimizeSpeed;"><polygon points=" 249 119 197 145" style="fill:none;" /></g><g ID="l-1:6,15" style="text-rendering:optimizeSpeed;"><polygon points=" 249 119 197 93" style="fill:none;" /></g><g ID="r-1:6" style="fill:white; text-rendering:optimizeSpeed; stroke:white;" wurcs_mono_id="12"><circle cx="249" cy="119" r="11" style="clip-path:url(#clipPath12); stroke:none;" /><rect height="22" style="clip-path:url(#clipPath12); fill:rgb(0,166,81); stroke:none;" width="22" x="238" y="108" /><rect height="22" style="clip-path:url(#clipPath12); fill:none; stroke:black;" width="22" x="238" y="108" /><circle cx="249" cy="119" r="11" style="fill:none; stroke:black;" /></g><g ID="l-1:14,16" style="text-rendering:optimizeSpeed;"><polygon points=" 197 145 145 145" style="fill:none;" /></g><g ID="r-1:14" style="fill:white; text-rendering:optimizeSpeed; stroke:white;" wurcs_mono_id="13"><rect height="22" style="clip-path:url(#clipPath13); stroke:none;" width="22" x="186" y="134" /><rect height="22" style="clip-path:url(#clipPath13); fill:rgb(0,144,188); stroke:none;" width="22" x="186" y="134" /><rect height="22" style="clip-path:url(#clipPath13); fill:none; stroke:black;" width="22" x="186" y="134" /><rect height="22" style="fill:none; stroke:black;" width="22" x="186" y="134" /></g><g ID="l-1:16,17" style="text-rendering:optimizeSpeed;"><polygon points=" 145 145 93 145" style="fill:none;" /></g><g ID="r-1:16" style="fill:white; text-rendering:optimizeSpeed; stroke:white;" wurcs_mono_id="14"><circle cx="145" cy="145" r="11" style="clip-path:url(#clipPath14); stroke:none;" /><rect height="22" style="clip-path:url(#clipPath14); fill:rgb(255,212,0); stroke:none;" width="22" x="134" y="134" /><rect height="22" style="clip-path:url(#clipPath14); fill:none; stroke:black;" width="22" x="134" y="134" /><circle cx="145" cy="145" r="11" style="fill:none; stroke:black;" /></g><g ID="r-1:17" style="fill:white; text-rendering:optimizeSpeed; stroke:white;" wurcs_mono_id="15"><polygon points=" 93 134 104 145 93 156 82 145" style="stroke:none; clip-path:url(#clipPath15);" /><rect height="22" style="clip-path:url(#clipPath15); fill:rgb(165,67,153); stroke:none;" width="22" x="82" y="134" /><rect height="22" style="clip-path:url(#clipPath15); fill:none; stroke:black;" width="22" x="82" y="134" /><polygon points=" 93 134 104 145 93 156 82 145" style="fill:none; stroke:black;" /></g><g ID="li-1:16,17" style="fill:white; text-rendering:optimizeSpeed; font-family:'Serif'; stroke:white;"><rect height="10" style="stroke:none;" width="6" x="123" y="148" /><path d="M125.1094 157.3906 Q125.1094 157.0625 125.3359 156.8359 Q125.5625 156.6094 125.8906 156.6094 Q126.2188 156.6094 126.4453 156.8359 Q126.6719 157.0625 126.6719 157.3906 Q126.6719 157.7188 126.4453 157.9453 Q126.2188 158.1719 125.8906 158.1719 Q125.5625 158.1719 125.3359 157.9453 Q125.1094 157.7188 125.1094 157.3906 ZM123.8125 149.6406 Q124.4375 149.3594 125 149.2266 Q125.5625 149.0938 126.0469 149.0938 Q127.3438 149.0938 128.1016 149.7188 Q128.8594 150.3438 128.8594 151.4062 Q128.8594 152.5 128.2109 153.1953 Q127.5625 153.8906 126.25 154.1875 L126.25 155.6719 L125.5312 155.6719 L125.5312 153.75 Q126.5625 153.5 127.0938 152.9062 Q127.625 152.3125 127.625 151.4062 Q127.625 150.5938 127.1953 150.1328 Q126.7656 149.6719 126.0312 149.6719 Q125.3594 149.6719 124.9297 150.0547 Q124.5 150.4375 124.3906 151.1562 L123.8125 151.1562 L123.8125 149.6406 Z" style="fill:black; stroke:none;" /><rect height="10" style="stroke:none;" width="6" x="109" y="148" /><path d="M111.1094 157.3906 Q111.1094 157.0625 111.3359 156.8359 Q111.5625 156.6094 111.8906 156.6094 Q112.2188 156.6094 112.4453 156.8359 Q112.6719 157.0625 112.6719 157.3906 Q112.6719 157.7188 112.4453 157.9453 Q112.2188 158.1719 111.8906 158.1719 Q111.5625 158.1719 111.3359 157.9453 Q111.1094 157.7188 111.1094 157.3906 ZM109.8125 149.6406 Q110.4375 149.3594 111 149.2266 Q111.5625 149.0938 112.0469 149.0938 Q113.3438 149.0938 114.1016 149.7188 Q114.8594 150.3438 114.8594 151.4062 Q114.8594 152.5 114.2109 153.1953 Q113.5625 153.8906 112.25 154.1875 L112.25 155.6719 L111.5312 155.6719 L111.5312 153.75 Q112.5625 153.5 113.0938 152.9062 Q113.625 152.3125 113.625 151.4062 Q113.625 150.5938 113.1953 150.1328 Q112.7656 149.6719 112.0312 149.6719 Q111.3594 149.6719 110.9297 150.0547 Q110.5 150.4375 110.3906 151.1562 L109.8125 151.1562 L109.8125 149.6406 Z" style="fill:black; stroke:none;" /></g><g ID="li-1:14,16" style="fill:white; text-rendering:optimizeSpeed; font-family:'Serif'; stroke:white;"><rect height="10" style="stroke:none;" width="6" x="175" y="148" /><path d="M177.1094 157.3906 Q177.1094 157.0625 177.3359 156.8359 Q177.5625 156.6094 177.8906 156.6094 Q178.2188 156.6094 178.4453 156.8359 Q178.6719 157.0625 178.6719 157.3906 Q178.6719 157.7188 178.4453 157.9453 Q178.2188 158.1719 177.8906 158.1719 Q177.5625 158.1719 177.3359 157.9453 Q177.1094 157.7188 177.1094 157.3906 ZM175.8125 149.6406 Q176.4375 149.3594 177 149.2266 Q177.5625 149.0938 178.0469 149.0938 Q179.3438 149.0938 180.1016 149.7188 Q180.8594 150.3438 180.8594 151.4062 Q180.8594 152.5 180.2109 153.1953 Q179.5625 153.8906 178.25 154.1875 L178.25 155.6719 L177.5312 155.6719 L177.5312 153.75 Q178.5625 153.5 179.0938 152.9062 Q179.625 152.3125 179.625 151.4062 Q179.625 150.5938 179.1953 150.1328 Q178.7656 149.6719 178.0312 149.6719 Q177.3594 149.6719 176.9297 150.0547 Q176.5 150.4375 176.3906 151.1562 L175.8125 151.1562 L175.8125 149.6406 Z" style="fill:black; stroke:none;" /><rect height="10" style="stroke:none;" width="6" x="161" y="148" /><path d="M163.1094 157.3906 Q163.1094 157.0625 163.3359 156.8359 Q163.5625 156.6094 163.8906 156.6094 Q164.2188 156.6094 164.4453 156.8359 Q164.6719 157.0625 164.6719 157.3906 Q164.6719 157.7188 164.4453 157.9453 Q164.2188 158.1719 163.8906 158.1719 Q163.5625 158.1719 163.3359 157.9453 Q163.1094 157.7188 163.1094 157.3906 ZM161.8125 149.6406 Q162.4375 149.3594 163 149.2266 Q163.5625 149.0938 164.0469 149.0938 Q165.3438 149.0938 166.1016 149.7188 Q166.8594 150.3438 166.8594 151.4062 Q166.8594 152.5 166.2109 153.1953 Q165.5625 153.8906 164.25 154.1875 L164.25 155.6719 L163.5312 155.6719 L163.5312 153.75 Q164.5625 153.5 165.0938 152.9062 Q165.625 152.3125 165.625 151.4062 Q165.625 150.5938 165.1953 150.1328 Q164.7656 149.6719 164.0312 149.6719 Q163.3594 149.6719 162.9297 150.0547 Q162.5 150.4375 162.3906 151.1562 L161.8125 151.1562 L161.8125 149.6406 Z" style="fill:black; stroke:none;" /></g><g ID="l-1:15,18" style="text-rendering:optimizeSpeed;"><polygon points=" 197 93 197 41" style="fill:none;" /></g><g ID="l-1:15,19" style="text-rendering:optimizeSpeed;"><polygon points=" 197 93 145 93" style="fill:none;" /></g><g ID="r-1:15" style="fill:white; text-rendering:optimizeSpeed; stroke:white;" wurcs_mono_id="16"><rect height="22" style="clip-path:url(#clipPath16); stroke:none;" width="22" x="186" y="82" /><rect height="22" style="clip-path:url(#clipPath16); fill:rgb(0,144,188); stroke:none;" width="22" x="186" y="82" /><rect height="22" style="clip-path:url(#clipPath16); fill:none; stroke:black;" width="22" x="186" y="82" /><rect height="22" style="fill:none; stroke:black;" width="22" x="186" y="82" /></g><g ID="r-1:18" style="fill:white; text-rendering:optimizeSpeed; stroke:white;" wurcs_mono_id="17"><polygon points=" 197 52 186 30 208 30" style="stroke:none; clip-path:url(#clipPath17);" /><rect height="22" style="clip-path:url(#clipPath17); fill:rgb(237,28,36); stroke:none;" width="22" x="186" y="30" /><rect height="22" style="clip-path:url(#clipPath17); fill:none; stroke:black;" width="22" x="186" y="30" /><polygon points=" 197 52 186 30 208 30" style="fill:none; stroke:black;" /></g><g ID="r-1:19" style="fill:white; text-rendering:optimizeSpeed; stroke:white;" wurcs_mono_id="18"><circle cx="145" cy="93" r="11" style="clip-path:url(#clipPath18); stroke:none;" /><rect height="22" style="clip-path:url(#clipPath18); fill:rgb(255,212,0); stroke:none;" width="22" x="134" y="82" /><rect height="22" style="clip-path:url(#clipPath18); fill:none; stroke:black;" width="22" x="134" y="82" /><circle cx="145" cy="93" r="11" style="fill:none; stroke:black;" /></g><g ID="li-1:15,18" style="fill:white; text-rendering:optimizeSpeed; font-family:'Serif'; stroke:white;"><rect height="10" style="stroke:none;" width="6" x="186" y="69" /><path d="M188.1094 78.3906 Q188.1094 78.0625 188.3359 77.8359 Q188.5625 77.6094 188.8906 77.6094 Q189.2188 77.6094 189.4453 77.8359 Q189.6719 78.0625 189.6719 78.3906 Q189.6719 78.7188 189.4453 78.9453 Q189.2188 79.1719 188.8906 79.1719 Q188.5625 79.1719 188.3359 78.9453 Q188.1094 78.7188 188.1094 78.3906 ZM186.8125 70.6406 Q187.4375 70.3594 188 70.2266 Q188.5625 70.0938 189.0469 70.0938 Q190.3438 70.0938 191.1016 70.7188 Q191.8594 71.3438 191.8594 72.4062 Q191.8594 73.5 191.2109 74.1953 Q190.5625 74.8906 189.25 75.1875 L189.25 76.6719 L188.5312 76.6719 L188.5312 74.75 Q189.5625 74.5 190.0938 73.9062 Q190.625 73.3125 190.625 72.4062 Q190.625 71.5938 190.1953 71.1328 Q189.7656 70.6719 189.0312 70.6719 Q188.3594 70.6719 187.9297 71.0547 Q187.5 71.4375 187.3906 72.1562 L186.8125 72.1562 L186.8125 70.6406 Z" style="fill:black; stroke:none;" /><rect height="10" style="stroke:none;" width="6" x="186" y="55" /><path d="M188.1094 64.3906 Q188.1094 64.0625 188.3359 63.8359 Q188.5625 63.6094 188.8906 63.6094 Q189.2188 63.6094 189.4453 63.8359 Q189.6719 64.0625 189.6719 64.3906 Q189.6719 64.7188 189.4453 64.9453 Q189.2188 65.1719 188.8906 65.1719 Q188.5625 65.1719 188.3359 64.9453 Q188.1094 64.7188 188.1094 64.3906 ZM186.8125 56.6406 Q187.4375 56.3594 188 56.2266 Q188.5625 56.0938 189.0469 56.0938 Q190.3438 56.0938 191.1016 56.7188 Q191.8594 57.3438 191.8594 58.4062 Q191.8594 59.5 191.2109 60.1953 Q190.5625 60.8906 189.25 61.1875 L189.25 62.6719 L188.5312 62.6719 L188.5312 60.75 Q189.5625 60.5 190.0938 59.9062 Q190.625 59.3125 190.625 58.4062 Q190.625 57.5938 190.1953 57.1328 Q189.7656 56.6719 189.0312 56.6719 Q188.3594 56.6719 187.9297 57.0547 Q187.5 57.4375 187.3906 58.1562 L186.8125 58.1562 L186.8125 56.6406 Z" style="fill:black; stroke:none;" /></g><g ID="li-1:15,19" style="fill:white; text-rendering:optimizeSpeed; font-family:'Serif'; stroke:white;"><rect height="10" style="stroke:none;" width="6" x="175" y="96" /><path d="M177.1094 105.3906 Q177.1094 105.0625 177.3359 104.8359 Q177.5625 104.6094 177.8906 104.6094 Q178.2188 104.6094 178.4453 104.8359 Q178.6719 105.0625 178.6719 105.3906 Q178.6719 105.7188 178.4453 105.9453 Q178.2188 106.1719 177.8906 106.1719 Q177.5625 106.1719 177.3359 105.9453 Q177.1094 105.7188 177.1094 105.3906 ZM175.8125 97.6406 Q176.4375 97.3594 177 97.2266 Q177.5625 97.0938 178.0469 97.0938 Q179.3438 97.0938 180.1016 97.7188 Q180.8594 98.3438 180.8594 99.4062 Q180.8594 100.5 180.2109 101.1953 Q179.5625 101.8906 178.25 102.1875 L178.25 103.6719 L177.5312 103.6719 L177.5312 101.75 Q178.5625 101.5 179.0938 100.9062 Q179.625 100.3125 179.625 99.4062 Q179.625 98.5938 179.1953 98.1328 Q178.7656 97.6719 178.0312 97.6719 Q177.3594 97.6719 176.9297 98.0547 Q176.5 98.4375 176.3906 99.1562 L175.8125 99.1562 L175.8125 97.6406 Z" style="fill:black; stroke:none;" /><rect height="10" style="stroke:none;" width="6" x="161" y="96" /><path d="M163.1094 105.3906 Q163.1094 105.0625 163.3359 104.8359 Q163.5625 104.6094 163.8906 104.6094 Q164.2188 104.6094 164.4453 104.8359 Q164.6719 105.0625 164.6719 105.3906 Q164.6719 105.7188 164.4453 105.9453 Q164.2188 106.1719 163.8906 106.1719 Q163.5625 106.1719 163.3359 105.9453 Q163.1094 105.7188 163.1094 105.3906 ZM161.8125 97.6406 Q162.4375 97.3594 163 97.2266 Q163.5625 97.0938 164.0469 97.0938 Q165.3438 97.0938 166.1016 97.7188 Q166.8594 98.3438 166.8594 99.4062 Q166.8594 100.5 166.2109 101.1953 Q165.5625 101.8906 164.25 102.1875 L164.25 103.6719 L163.5312 103.6719 L163.5312 101.75 Q164.5625 101.5 165.0938 100.9062 Q165.625 100.3125 165.625 99.4062 Q165.625 98.5938 165.1953 98.1328 Q164.7656 97.6719 164.0312 97.6719 Q163.3594 97.6719 162.9297 98.0547 Q162.5 98.4375 162.3906 99.1562 L161.8125 99.1562 L161.8125 97.6406 Z" style="fill:black; stroke:none;" /></g><g ID="li-1:6,14" style="fill:white; text-rendering:optimizeSpeed; font-family:'Serif'; stroke:white;"><rect height="10" style="stroke:none;" width="6" x="231" y="130" /><path d="M233.1094 139.3906 Q233.1094 139.0625 233.3359 138.8359 Q233.5625 138.6094 233.8906 138.6094 Q234.2188 138.6094 234.4453 138.8359 Q234.6719 139.0625 234.6719 139.3906 Q234.6719 139.7188 234.4453 139.9453 Q234.2188 140.1719 233.8906 140.1719 Q233.5625 140.1719 233.3359 139.9453 Q233.1094 139.7188 233.1094 139.3906 ZM231.8125 131.6406 Q232.4375 131.3594 233 131.2266 Q233.5625 131.0938 234.0469 131.0938 Q235.3438 131.0938 236.1016 131.7188 Q236.8594 132.3438 236.8594 133.4062 Q236.8594 134.5 236.2109 135.1953 Q235.5625 135.8906 234.25 136.1875 L234.25 137.6719 L233.5312 137.6719 L233.5312 135.75 Q234.5625 135.5 235.0938 134.9062 Q235.625 134.3125 235.625 133.4062 Q235.625 132.5938 235.1953 132.1328 Q234.7656 131.6719 234.0312 131.6719 Q233.3594 131.6719 232.9297 132.0547 Q232.5 132.4375 232.3906 133.1562 L231.8125 133.1562 L231.8125 131.6406 Z" style="fill:black; stroke:none;" /><rect height="10" style="stroke:none;" width="6" x="215" y="138" /><path d="M217.1094 147.3906 Q217.1094 147.0625 217.3359 146.8359 Q217.5625 146.6094 217.8906 146.6094 Q218.2188 146.6094 218.4453 146.8359 Q218.6719 147.0625 218.6719 147.3906 Q218.6719 147.7188 218.4453 147.9453 Q218.2188 148.1719 217.8906 148.1719 Q217.5625 148.1719 217.3359 147.9453 Q217.1094 147.7188 217.1094 147.3906 ZM215.8125 139.6406 Q216.4375 139.3594 217 139.2266 Q217.5625 139.0938 218.0469 139.0938 Q219.3438 139.0938 220.1016 139.7188 Q220.8594 140.3438 220.8594 141.4062 Q220.8594 142.5 220.2109 143.1953 Q219.5625 143.8906 218.25 144.1875 L218.25 145.6719 L217.5312 145.6719 L217.5312 143.75 Q218.5625 143.5 219.0938 142.9062 Q219.625 142.3125 219.625 141.4062 Q219.625 140.5938 219.1953 140.1328 Q218.7656 139.6719 218.0312 139.6719 Q217.3594 139.6719 216.9297 140.0547 Q216.5 140.4375 216.3906 141.1562 L215.8125 141.1562 L215.8125 139.6406 Z" style="fill:black; stroke:none;" /></g><g ID="li-1:6,15" style="fill:white; text-rendering:optimizeSpeed; font-family:'Serif'; stroke:white;"><rect height="10" style="stroke:none;" width="6" x="224" y="112" /><path d="M226.1094 121.3906 Q226.1094 121.0625 226.3359 120.8359 Q226.5625 120.6094 226.8906 120.6094 Q227.2188 120.6094 227.4453 120.8359 Q227.6719 121.0625 227.6719 121.3906 Q227.6719 121.7188 227.4453 121.9453 Q227.2188 122.1719 226.8906 122.1719 Q226.5625 122.1719 226.3359 121.9453 Q226.1094 121.7188 226.1094 121.3906 ZM224.8125 113.6406 Q225.4375 113.3594 226 113.2266 Q226.5625 113.0938 227.0469 113.0938 Q228.3438 113.0938 229.1016 113.7188 Q229.8594 114.3438 229.8594 115.4062 Q229.8594 116.5 229.2109 117.1953 Q228.5625 117.8906 227.25 118.1875 L227.25 119.6719 L226.5312 119.6719 L226.5312 117.75 Q227.5625 117.5 228.0938 116.9062 Q228.625 116.3125 228.625 115.4062 Q228.625 114.5938 228.1953 114.1328 Q227.7656 113.6719 227.0312 113.6719 Q226.3594 113.6719 225.9297 114.0547 Q225.5 114.4375 225.3906 115.1562 L224.8125 115.1562 L224.8125 113.6406 Z" style="fill:black; stroke:none;" /><rect height="10" style="stroke:none;" width="6" x="208" y="104" /><path d="M210.1094 113.3906 Q210.1094 113.0625 210.3359 112.8359 Q210.5625 112.6094 210.8906 112.6094 Q211.2188 112.6094 211.4453 112.8359 Q211.6719 113.0625 211.6719 113.3906 Q211.6719 113.7188 211.4453 113.9453 Q211.2188 114.1719 210.8906 114.1719 Q210.5625 114.1719 210.3359 113.9453 Q210.1094 113.7188 210.1094 113.3906 ZM208.8125 105.6406 Q209.4375 105.3594 210 105.2266 Q210.5625 105.0938 211.0469 105.0938 Q212.3438 105.0938 213.1016 105.7188 Q213.8594 106.3438 213.8594 107.4062 Q213.8594 108.5 213.2109 109.1953 Q212.5625 109.8906 211.25 110.1875 L211.25 111.6719 L210.5312 111.6719 L210.5312 109.75 Q211.5625 109.5 212.0938 108.9062 Q212.625 108.3125 212.625 107.4062 Q212.625 106.5938 212.1953 106.1328 Q211.7656 105.6719 211.0312 105.6719 Q210.3594 105.6719 209.9297 106.0547 Q209.5 106.4375 209.3906 107.1562 L208.8125 107.1562 L208.8125 105.6406 Z" style="fill:black; stroke:none;" /></g><g ID="li-1:4,5" style="fill:white; text-rendering:optimizeSpeed; font-family:'Serif'; stroke:white;"><rect height="10" style="stroke:none;" width="6" x="287" y="188" /><path d="M289.1094 197.3906 Q289.1094 197.0625 289.3359 196.8359 Q289.5625 196.6094 289.8906 196.6094 Q290.2188 196.6094 290.4453 196.8359 Q290.6719 197.0625 290.6719 197.3906 Q290.6719 197.7188 290.4453 197.9453 Q290.2188 198.1719 289.8906 198.1719 Q289.5625 198.1719 289.3359 197.9453 Q289.1094 197.7188 289.1094 197.3906 ZM287.8125 189.6406 Q288.4375 189.3594 289 189.2266 Q289.5625 189.0938 290.0469 189.0938 Q291.3438 189.0938 292.1016 189.7188 Q292.8594 190.3438 292.8594 191.4062 Q292.8594 192.5 292.2109 193.1953 Q291.5625 193.8906 290.25 194.1875 L290.25 195.6719 L289.5312 195.6719 L289.5312 193.75 Q290.5625 193.5 291.0938 192.9062 Q291.625 192.3125 291.625 191.4062 Q291.625 190.5938 291.1953 190.1328 Q290.7656 189.6719 290.0312 189.6719 Q289.3594 189.6719 288.9297 190.0547 Q288.5 190.4375 288.3906 191.1562 L287.8125 191.1562 L287.8125 189.6406 Z" style="fill:black; stroke:none;" /><rect height="10" style="stroke:none;" width="6" x="268" y="207" /><path d="M270.1094 216.3906 Q270.1094 216.0625 270.3359 215.8359 Q270.5625 215.6094 270.8906 215.6094 Q271.2188 215.6094 271.4453 215.8359 Q271.6719 216.0625 271.6719 216.3906 Q271.6719 216.7188 271.4453 216.9453 Q271.2188 217.1719 270.8906 217.1719 Q270.5625 217.1719 270.3359 216.9453 Q270.1094 216.7188 270.1094 216.3906 ZM268.8125 208.6406 Q269.4375 208.3594 270 208.2266 Q270.5625 208.0938 271.0469 208.0938 Q272.3438 208.0938 273.1016 208.7188 Q273.8594 209.3438 273.8594 210.4062 Q273.8594 211.5 273.2109 212.1953 Q272.5625 212.8906 271.25 213.1875 L271.25 214.6719 L270.5312 214.6719 L270.5312 212.75 Q271.5625 212.5 272.0938 211.9062 Q272.625 211.3125 272.625 210.4062 Q272.625 209.5938 272.1953 209.1328 Q271.7656 208.6719 271.0312 208.6719 Q270.3594 208.6719 269.9297 209.0547 Q269.5 209.4375 269.3906 210.1562 L268.8125 210.1562 L268.8125 208.6406 Z" style="fill:black; stroke:none;" /></g><g ID="li-1:4,6" style="fill:white; text-rendering:optimizeSpeed; font-family:'Serif'; stroke:white;"><rect height="10" style="stroke:none;" width="6" x="275" y="155" /><path d="M277.1094 164.3906 Q277.1094 164.0625 277.3359 163.8359 Q277.5625 163.6094 277.8906 163.6094 Q278.2188 163.6094 278.4453 163.8359 Q278.6719 164.0625 278.6719 164.3906 Q278.6719 164.7188 278.4453 164.9453 Q278.2188 165.1719 277.8906 165.1719 Q277.5625 165.1719 277.3359 164.9453 Q277.1094 164.7188 277.1094 164.3906 ZM275.8125 156.6406 Q276.4375 156.3594 277 156.2266 Q277.5625 156.0938 278.0469 156.0938 Q279.3438 156.0938 280.1016 156.7188 Q280.8594 157.3438 280.8594 158.4062 Q280.8594 159.5 280.2109 160.1953 Q279.5625 160.8906 278.25 161.1875 L278.25 162.6719 L277.5312 162.6719 L277.5312 160.75 Q278.5625 160.5 279.0938 159.9062 Q279.625 159.3125 279.625 158.4062 Q279.625 157.5938 279.1953 157.1328 Q278.7656 156.6719 278.0312 156.6719 Q277.3594 156.6719 276.9297 157.0547 Q276.5 157.4375 276.3906 158.1562 L275.8125 158.1562 L275.8125 156.6406 Z" style="fill:black; stroke:none;" /><rect height="10" style="stroke:none;" width="6" x="257" y="136" /><path d="M259.1094 145.3906 Q259.1094 145.0625 259.3359 144.8359 Q259.5625 144.6094 259.8906 144.6094 Q260.2188 144.6094 260.4453 144.8359 Q260.6719 145.0625 260.6719 145.3906 Q260.6719 145.7188 260.4453 145.9453 Q260.2188 146.1719 259.8906 146.1719 Q259.5625 146.1719 259.3359 145.9453 Q259.1094 145.7188 259.1094 145.3906 ZM257.8125 137.6406 Q258.4375 137.3594 259 137.2266 Q259.5625 137.0938 260.0469 137.0938 Q261.3438 137.0938 262.1016 137.7188 Q262.8594 138.3438 262.8594 139.4062 Q262.8594 140.5 262.2109 141.1953 Q261.5625 141.8906 260.25 142.1875 L260.25 143.6719 L259.5312 143.6719 L259.5312 141.75 Q260.5625 141.5 261.0938 140.9062 Q261.625 140.3125 261.625 139.4062 Q261.625 138.5938 261.1953 138.1328 Q260.7656 137.6719 260.0312 137.6719 Q259.3594 137.6719 258.9297 138.0547 Q258.5 138.4375 258.3906 139.1562 L257.8125 139.1562 L257.8125 137.6406 Z" style="fill:black; stroke:none;" /></g><g ID="li-1:2,4" style="fill:white; text-rendering:optimizeSpeed; font-family:'Serif'; stroke:white;"><rect height="10" style="stroke:none;" width="6" x="331" y="174" /><path d="M333.1094 183.3906 Q333.1094 183.0625 333.3359 182.8359 Q333.5625 182.6094 333.8906 182.6094 Q334.2188 182.6094 334.4453 182.8359 Q334.6719 183.0625 334.6719 183.3906 Q334.6719 183.7188 334.4453 183.9453 Q334.2188 184.1719 333.8906 184.1719 Q333.5625 184.1719 333.3359 183.9453 Q333.1094 183.7188 333.1094 183.3906 ZM331.8125 175.6406 Q332.4375 175.3594 333 175.2266 Q333.5625 175.0938 334.0469 175.0938 Q335.3438 175.0938 336.1016 175.7188 Q336.8594 176.3438 336.8594 177.4062 Q336.8594 178.5 336.2109 179.1953 Q335.5625 179.8906 334.25 180.1875 L334.25 181.6719 L333.5312 181.6719 L333.5312 179.75 Q334.5625 179.5 335.0938 178.9062 Q335.625 178.3125 335.625 177.4062 Q335.625 176.5938 335.1953 176.1328 Q334.7656 175.6719 334.0312 175.6719 Q333.3594 175.6719 332.9297 176.0547 Q332.5 176.4375 332.3906 177.1562 L331.8125 177.1562 L331.8125 175.6406 Z" style="fill:black; stroke:none;" /><rect height="10" style="stroke:none;" width="6" x="317" y="174" /><path d="M319.1094 183.3906 Q319.1094 183.0625 319.3359 182.8359 Q319.5625 182.6094 319.8906 182.6094 Q320.2188 182.6094 320.4453 182.8359 Q320.6719 183.0625 320.6719 183.3906 Q320.6719 183.7188 320.4453 183.9453 Q320.2188 184.1719 319.8906 184.1719 Q319.5625 184.1719 319.3359 183.9453 Q319.1094 183.7188 319.1094 183.3906 ZM317.8125 175.6406 Q318.4375 175.3594 319 175.2266 Q319.5625 175.0938 320.0469 175.0938 Q321.3438 175.0938 322.1016 175.7188 Q322.8594 176.3438 322.8594 177.4062 Q322.8594 178.5 322.2109 179.1953 Q321.5625 179.8906 320.25 180.1875 L320.25 181.6719 L319.5312 181.6719 L319.5312 179.75 Q320.5625 179.5 321.0938 178.9062 Q321.625 178.3125 321.625 177.4062 Q321.625 176.5938 321.1953 176.1328 Q320.7656 175.6719 320.0312 175.6719 Q319.3594 175.6719 318.9297 176.0547 Q318.5 176.4375 318.3906 177.1562 L317.8125 177.1562 L317.8125 175.6406 Z" style="fill:black; stroke:none;" /></g><g ID="r-1:3" style="fill:white; text-rendering:optimizeSpeed; stroke:white;" wurcs_mono_id="19"><polygon points=" 405 130 394 108 416 108" style="stroke:none; clip-path:url(#clipPath19);" /><rect height="22" style="clip-path:url(#clipPath19); fill:rgb(237,28,36); stroke:none;" width="22" x="394" y="108" /><rect height="22" style="clip-path:url(#clipPath19); fill:none; stroke:black;" width="22" x="394" y="108" /><polygon points=" 405 130 394 108 416 108" style="fill:none; stroke:black;" /></g><g ID="li-1:1,2" style="fill:white; text-rendering:optimizeSpeed; font-family:'Serif'; stroke:white;"><rect height="10" style="stroke:none;" width="6" x="383" y="174" /><path d="M385.1094 183.3906 Q385.1094 183.0625 385.3359 182.8359 Q385.5625 182.6094 385.8906 182.6094 Q386.2188 182.6094 386.4453 182.8359 Q386.6719 183.0625 386.6719 183.3906 Q386.6719 183.7188 386.4453 183.9453 Q386.2188 184.1719 385.8906 184.1719 Q385.5625 184.1719 385.3359 183.9453 Q385.1094 183.7188 385.1094 183.3906 ZM383.8125 175.6406 Q384.4375 175.3594 385 175.2266 Q385.5625 175.0938 386.0469 175.0938 Q387.3438 175.0938 388.1016 175.7188 Q388.8594 176.3438 388.8594 177.4062 Q388.8594 178.5 388.2109 179.1953 Q387.5625 179.8906 386.25 180.1875 L386.25 181.6719 L385.5312 181.6719 L385.5312 179.75 Q386.5625 179.5 387.0938 178.9062 Q387.625 178.3125 387.625 177.4062 Q387.625 176.5938 387.1953 176.1328 Q386.7656 175.6719 386.0312 175.6719 Q385.3594 175.6719 384.9297 176.0547 Q384.5 176.4375 384.3906 177.1562 L383.8125 177.1562 L383.8125 175.6406 Z" style="fill:black; stroke:none;" /><rect height="10" style="stroke:none;" width="6" x="369" y="174" /><path d="M371.1094 183.3906 Q371.1094 183.0625 371.3359 182.8359 Q371.5625 182.6094 371.8906 182.6094 Q372.2188 182.6094 372.4453 182.8359 Q372.6719 183.0625 372.6719 183.3906 Q372.6719 183.7188 372.4453 183.9453 Q372.2188 184.1719 371.8906 184.1719 Q371.5625 184.1719 371.3359 183.9453 Q371.1094 183.7188 371.1094 183.3906 ZM369.8125 175.6406 Q370.4375 175.3594 371 175.2266 Q371.5625 175.0938 372.0469 175.0938 Q373.3438 175.0938 374.1016 175.7188 Q374.8594 176.3438 374.8594 177.4062 Q374.8594 178.5 374.2109 179.1953 Q373.5625 179.8906 372.25 180.1875 L372.25 181.6719 L371.5312 181.6719 L371.5312 179.75 Q372.5625 179.5 373.0938 178.9062 Q373.625 178.3125 373.625 177.4062 Q373.625 176.5938 373.1953 176.1328 Q372.7656 175.6719 372.0312 175.6719 Q371.3594 175.6719 370.9297 176.0547 Q370.5 176.4375 370.3906 177.1562 L369.8125 177.1562 L369.8125 175.6406 Z" style="fill:black; stroke:none;" /></g><g ID="li-1:1,3" style="fill:white; text-rendering:optimizeSpeed; font-family:'Serif'; stroke:white;"><rect height="10" style="stroke:none;" width="6" x="394" y="147" /><path d="M396.1094 156.3906 Q396.1094 156.0625 396.3359 155.8359 Q396.5625 155.6094 396.8906 155.6094 Q397.2188 155.6094 397.4453 155.8359 Q397.6719 156.0625 397.6719 156.3906 Q397.6719 156.7188 397.4453 156.9453 Q397.2188 157.1719 396.8906 157.1719 Q396.5625 157.1719 396.3359 156.9453 Q396.1094 156.7188 396.1094 156.3906 ZM394.8125 148.6406 Q395.4375 148.3594 396 148.2266 Q396.5625 148.0938 397.0469 148.0938 Q398.3438 148.0938 399.1016 148.7188 Q399.8594 149.3438 399.8594 150.4062 Q399.8594 151.5 399.2109 152.1953 Q398.5625 152.8906 397.25 153.1875 L397.25 154.6719 L396.5312 154.6719 L396.5312 152.75 Q397.5625 152.5 398.0938 151.9062 Q398.625 151.3125 398.625 150.4062 Q398.625 149.5938 398.1953 149.1328 Q397.7656 148.6719 397.0312 148.6719 Q396.3594 148.6719 395.9297 149.0547 Q395.5 149.4375 395.3906 150.1562 L394.8125 150.1562 L394.8125 148.6406 Z" style="fill:black; stroke:none;" /><rect height="10" style="stroke:none;" width="6" x="394" y="133" /><path d="M396.1094 142.3906 Q396.1094 142.0625 396.3359 141.8359 Q396.5625 141.6094 396.8906 141.6094 Q397.2188 141.6094 397.4453 141.8359 Q397.6719 142.0625 397.6719 142.3906 Q397.6719 142.7188 397.4453 142.9453 Q397.2188 143.1719 396.8906 143.1719 Q396.5625 143.1719 396.3359 142.9453 Q396.1094 142.7188 396.1094 142.3906 ZM394.8125 134.6406 Q395.4375 134.3594 396 134.2266 Q396.5625 134.0938 397.0469 134.0938 Q398.3438 134.0938 399.1016 134.7188 Q399.8594 135.3438 399.8594 136.4062 Q399.8594 137.5 399.2109 138.1953 Q398.5625 138.8906 397.25 139.1875 L397.25 140.6719 L396.5312 140.6719 L396.5312 138.75 Q397.5625 138.5 398.0938 137.9062 Q398.625 137.3125 398.625 136.4062 Q398.625 135.5938 398.1953 135.1328 Q397.7656 134.6719 397.0312 134.6719 Q396.3594 134.6719 395.9297 135.0547 Q395.5 135.4375 395.3906 136.1562 L394.8125 136.1562 L394.8125 134.6406 Z" style="fill:black; stroke:none;" /></g></g></svg>