<svg xmlns="http://www.w3.org/2000/svg" style="fill-opacity:1; color-rendering:auto; color-interpolation:auto; text-rendering:auto; stroke:black; stroke-linecap:square; stroke-miterlimit:10; shape-rendering:auto; stroke-opacity:1; fill:black; stroke-dasharray:none; font-weight:normal; stroke-width:1; font-family:'Dialog'; font-style:normal; stroke-linejoin:miter; font-size:12px; stroke-dashoffset:0; image-rendering:auto;"><defs id="genericDefs" /><g><defs id="defs1"><clipPath clipPathUnits="userSpaceOnUse" id="clipPath1"><path d="M186 121 L208 121 L208 143 L186 143 L186 121 Z" /></clipPath><clipPath clipPathUnits="userSpaceOnUse" id="clipPath2"><path d="M156 171 C156 177.0751 151.0751 182 145 182 C138.9249 182 134 177.0751 134 171 C134 164.9249 138.9249 160 145 160 C151.0751 160 156 164.9249 156 171 Z" /></clipPath><clipPath clipPathUnits="userSpaceOnUse" id="clipPath3"><path d="M82 186 L104 186 L104 208 L82 208 L82 186 Z" /></clipPath><clipPath clipPathUnits="userSpaceOnUse" id="clipPath4"><path d="M52 197 C52 203.0751 47.0751 208 41 208 C34.9249 208 30 203.0751 30 197 C30 190.9249 34.9249 186 41 186 C47.0751 186 52 190.9249 52 197 Z" /></clipPath><clipPath clipPathUnits="userSpaceOnUse" id="clipPath5"><path d="M82 134 L104 134 L104 156 L82 156 L82 134 Z" /></clipPath><clipPath clipPathUnits="userSpaceOnUse" id="clipPath6"><path d="M52 145 C52 151.0751 47.0751 156 41 156 C34.9249 156 30 151.0751 30 145 C30 138.9249 34.9249 134 41 134 C47.0751 134 52 138.9249 52 145 Z" /></clipPath><clipPath clipPathUnits="userSpaceOnUse" id="clipPath7"><path d="M134 82 L156 82 L156 104 L134 104 L134 82 Z" /></clipPath><clipPath clipPathUnits="userSpaceOnUse" id="clipPath8"><path d="M145 52 L134 30 L156 30 Z" style="fill-rule:evenodd;" /></clipPath><clipPath clipPathUnits="userSpaceOnUse" id="clipPath9"><path d="M104 93 C104 99.0751 99.0751 104 93 104 C86.9249 104 82 99.0751 82 93 C82 86.9249 86.9249 82 93 82 C99.0751 82 104 86.9249 104 93 Z" /></clipPath></defs><g style="fill:white; text-rendering:optimizeSpeed; stroke:white;"><rect height="238" style="stroke:none;" width="238" x="0" y="0" /></g><g ID="l-1:1,2" style="text-rendering:optimizeSpeed;"><polygon points=" 197 132 145 171" style="fill:none;" /></g><g ID="l-1:1,3" style="text-rendering:optimizeSpeed;"><polygon points=" 197 132 145 93" style="fill:none;" /></g><g ID="r-1:1" style="fill:white; text-rendering:optimizeSpeed; stroke:white;" wurcs_mono_id="1"><rect height="22" style="clip-path:url(#clipPath1); stroke:none;" width="22" x="186" y="121" /><rect height="22" style="clip-path:url(#clipPath1); fill:rgb(255,212,0); stroke:none;" width="22" x="186" y="121" /><rect height="22" style="clip-path:url(#clipPath1); fill:none; stroke:black;" width="22" x="186" y="121" /><rect height="22" style="fill:none; stroke:black;" width="22" x="186" y="121" /></g><g style="font-style:italic; text-rendering:optimizeSpeed; font-size:10px; font-family:'SansSerif';"><path d="M198.0938 129.1562 Q197.375 129.1562 196.8359 129.7188 Q196.2969 130.2812 196.0781 131.2656 Q195.875 132.25 196.1719 132.8125 Q196.4688 133.375 197.2031 133.375 Q197.9219 133.375 198.4609 132.8125 Q199 132.25 199.2031 131.2656 Q199.4062 130.2969 199.1094 129.7266 Q198.8125 129.1562 198.0938 129.1562 ZM198.25 128.4062 Q199.4219 128.4062 199.9297 129.1641 Q200.4375 129.9219 200.1562 131.2656 Q199.875 132.6094 199.0391 133.375 Q198.2031 134.1406 197.0312 134.1406 Q195.8594 134.1406 195.3516 133.375 Q194.8438 132.6094 195.125 131.2656 Q195.4062 129.9219 196.2422 129.1641 Q197.0781 128.4062 198.25 128.4062 Z" style="stroke:none;" /></g><g ID="l-1:2,4" style="text-rendering:optimizeSpeed;"><polygon points=" 145 171 93 197" style="fill:none;" /></g><g ID="l-1:2,5" style="text-rendering:optimizeSpeed;"><polygon points=" 145 171 93 145" style="fill:none;" /></g><g ID="r-1:2" style="fill:white; text-rendering:optimizeSpeed; stroke:white;" wurcs_mono_id="2"><circle cx="145" cy="171" r="11" style="clip-path:url(#clipPath2); stroke:none;" /><rect height="22" style="clip-path:url(#clipPath2); fill:rgb(255,212,0); stroke:none;" width="22" x="134" y="160" /><rect height="22" style="clip-path:url(#clipPath2); fill:none; stroke:black;" width="22" x="134" y="160" /><circle cx="145" cy="171" r="11" style="fill:none; stroke:black;" /></g><g ID="l-1:4,6" style="text-rendering:optimizeSpeed;"><polygon points=" 93 197 41 197" style="fill:none;" /></g><g ID="r-1:4" style="fill:white; text-rendering:optimizeSpeed; stroke:white;" wurcs_mono_id="5"><rect height="22" style="clip-path:url(#clipPath3); stroke:none;" width="22" x="82" y="186" /><rect height="22" style="clip-path:url(#clipPath3); fill:rgb(0,144,188); stroke:none;" width="22" x="82" y="186" /><rect height="22" style="clip-path:url(#clipPath3); fill:none; stroke:black;" width="22" x="82" y="186" /><rect height="22" style="fill:none; stroke:black;" width="22" x="82" y="186" /></g><g ID="r-1:6" style="fill:white; text-rendering:optimizeSpeed; stroke:white;" wurcs_mono_id="6"><circle cx="41" cy="197" r="11" style="clip-path:url(#clipPath4); stroke:none;" /><rect height="22" style="clip-path:url(#clipPath4); fill:rgb(255,212,0); stroke:none;" width="22" x="30" y="186" /><rect height="22" style="clip-path:url(#clipPath4); fill:none; stroke:black;" width="22" x="30" y="186" /><circle cx="41" cy="197" r="11" style="fill:none; stroke:black;" /></g><g ID="li-1:4,6" style="fill:white; text-rendering:optimizeSpeed; font-family:'Serif'; stroke:white;"><rect height="10" style="stroke:none;" width="6" x="71" y="200" /><path d="M73.1094 209.3906 Q73.1094 209.0625 73.3359 208.8359 Q73.5625 208.6094 73.8906 208.6094 Q74.2188 208.6094 74.4453 208.8359 Q74.6719 209.0625 74.6719 209.3906 Q74.6719 209.7188 74.4453 209.9453 Q74.2188 210.1719 73.8906 210.1719 Q73.5625 210.1719 73.3359 209.9453 Q73.1094 209.7188 73.1094 209.3906 ZM71.8125 201.6406 Q72.4375 201.3594 73 201.2266 Q73.5625 201.0938 74.0469 201.0938 Q75.3438 201.0938 76.1016 201.7188 Q76.8594 202.3438 76.8594 203.4062 Q76.8594 204.5 76.2109 205.1953 Q75.5625 205.8906 74.25 206.1875 L74.25 207.6719 L73.5312 207.6719 L73.5312 205.75 Q74.5625 205.5 75.0938 204.9062 Q75.625 204.3125 75.625 203.4062 Q75.625 202.5938 75.1953 202.1328 Q74.7656 201.6719 74.0312 201.6719 Q73.3594 201.6719 72.9297 202.0547 Q72.5 202.4375 72.3906 203.1562 L71.8125 203.1562 L71.8125 201.6406 Z" style="fill:black; stroke:none;" /><rect height="10" style="stroke:none;" width="6" x="57" y="200" /><path d="M59.1094 209.3906 Q59.1094 209.0625 59.3359 208.8359 Q59.5625 208.6094 59.8906 208.6094 Q60.2188 208.6094 60.4453 208.8359 Q60.6719 209.0625 60.6719 209.3906 Q60.6719 209.7188 60.4453 209.9453 Q60.2188 210.1719 59.8906 210.1719 Q59.5625 210.1719 59.3359 209.9453 Q59.1094 209.7188 59.1094 209.3906 ZM57.8125 201.6406 Q58.4375 201.3594 59 201.2266 Q59.5625 201.0938 60.0469 201.0938 Q61.3438 201.0938 62.1016 201.7188 Q62.8594 202.3438 62.8594 203.4062 Q62.8594 204.5 62.2109 205.1953 Q61.5625 205.8906 60.25 206.1875 L60.25 207.6719 L59.5312 207.6719 L59.5312 205.75 Q60.5625 205.5 61.0938 204.9062 Q61.625 204.3125 61.625 203.4062 Q61.625 202.5938 61.1953 202.1328 Q60.7656 201.6719 60.0312 201.6719 Q59.3594 201.6719 58.9297 202.0547 Q58.5 202.4375 58.3906 203.1562 L57.8125 203.1562 L57.8125 201.6406 Z" style="fill:black; stroke:none;" /></g><g ID="l-1:5,7" style="text-rendering:optimizeSpeed;"><polygon points=" 93 145 41 145" style="fill:none;" /></g><g ID="r-1:5" style="fill:white; text-rendering:optimizeSpeed; stroke:white;" wurcs_mono_id="3"><rect height="22" style="clip-path:url(#clipPath5); stroke:none;" width="22" x="82" y="134" /><rect height="22" style="clip-path:url(#clipPath5); fill:rgb(0,144,188); stroke:none;" width="22" x="82" y="134" /><rect height="22" style="clip-path:url(#clipPath5); fill:none; stroke:black;" width="22" x="82" y="134" /><rect height="22" style="fill:none; stroke:black;" width="22" x="82" y="134" /></g><g ID="r-1:7" style="fill:white; text-rendering:optimizeSpeed; stroke:white;" wurcs_mono_id="4"><circle cx="41" cy="145" r="11" style="clip-path:url(#clipPath6); stroke:none;" /><rect height="22" style="clip-path:url(#clipPath6); fill:rgb(255,212,0); stroke:none;" width="22" x="30" y="134" /><rect height="22" style="clip-path:url(#clipPath6); fill:none; stroke:black;" width="22" x="30" y="134" /><circle cx="41" cy="145" r="11" style="fill:none; stroke:black;" /></g><g ID="li-1:5,7" style="fill:white; text-rendering:optimizeSpeed; font-family:'Serif'; stroke:white;"><rect height="10" style="stroke:none;" width="6" x="71" y="148" /><path d="M73.1094 157.3906 Q73.1094 157.0625 73.3359 156.8359 Q73.5625 156.6094 73.8906 156.6094 Q74.2188 156.6094 74.4453 156.8359 Q74.6719 157.0625 74.6719 157.3906 Q74.6719 157.7188 74.4453 157.9453 Q74.2188 158.1719 73.8906 158.1719 Q73.5625 158.1719 73.3359 157.9453 Q73.1094 157.7188 73.1094 157.3906 ZM71.8125 149.6406 Q72.4375 149.3594 73 149.2266 Q73.5625 149.0938 74.0469 149.0938 Q75.3438 149.0938 76.1016 149.7188 Q76.8594 150.3438 76.8594 151.4062 Q76.8594 152.5 76.2109 153.1953 Q75.5625 153.8906 74.25 154.1875 L74.25 155.6719 L73.5312 155.6719 L73.5312 153.75 Q74.5625 153.5 75.0938 152.9062 Q75.625 152.3125 75.625 151.4062 Q75.625 150.5938 75.1953 150.1328 Q74.7656 149.6719 74.0312 149.6719 Q73.3594 149.6719 72.9297 150.0547 Q72.5 150.4375 72.3906 151.1562 L71.8125 151.1562 L71.8125 149.6406 Z" style="fill:black; stroke:none;" /><rect height="10" style="stroke:none;" width="6" x="57" y="148" /><path d="M59.1094 157.3906 Q59.1094 157.0625 59.3359 156.8359 Q59.5625 156.6094 59.8906 156.6094 Q60.2188 156.6094 60.4453 156.8359 Q60.6719 157.0625 60.6719 157.3906 Q60.6719 157.7188 60.4453 157.9453 Q60.2188 158.1719 59.8906 158.1719 Q59.5625 158.1719 59.3359 157.9453 Q59.1094 157.7188 59.1094 157.3906 ZM57.8125 149.6406 Q58.4375 149.3594 59 149.2266 Q59.5625 149.0938 60.0469 149.0938 Q61.3438 149.0938 62.1016 149.7188 Q62.8594 150.3438 62.8594 151.4062 Q62.8594 152.5 62.2109 153.1953 Q61.5625 153.8906 60.25 154.1875 L60.25 155.6719 L59.5312 155.6719 L59.5312 153.75 Q60.5625 153.5 61.0938 152.9062 Q61.625 152.3125 61.625 151.4062 Q61.625 150.5938 61.1953 150.1328 Q60.7656 149.6719 60.0312 149.6719 Q59.3594 149.6719 58.9297 150.0547 Q58.5 150.4375 58.3906 151.1562 L57.8125 151.1562 L57.8125 149.6406 Z" style="fill:black; stroke:none;" /></g><g ID="li-1:2,4" style="fill:white; text-rendering:optimizeSpeed; font-family:'Serif'; stroke:white;"><rect height="10" style="stroke:none;" width="6" x="127" y="182" /><path d="M129.1094 191.3906 Q129.1094 191.0625 129.3359 190.8359 Q129.5625 190.6094 129.8906 190.6094 Q130.2188 190.6094 130.4453 190.8359 Q130.6719 191.0625 130.6719 191.3906 Q130.6719 191.7188 130.4453 191.9453 Q130.2188 192.1719 129.8906 192.1719 Q129.5625 192.1719 129.3359 191.9453 Q129.1094 191.7188 129.1094 191.3906 ZM127.8125 183.6406 Q128.4375 183.3594 129 183.2266 Q129.5625 183.0938 130.0469 183.0938 Q131.3438 183.0938 132.1016 183.7188 Q132.8594 184.3438 132.8594 185.4062 Q132.8594 186.5 132.2109 187.1953 Q131.5625 187.8906 130.25 188.1875 L130.25 189.6719 L129.5312 189.6719 L129.5312 187.75 Q130.5625 187.5 131.0938 186.9062 Q131.625 186.3125 131.625 185.4062 Q131.625 184.5938 131.1953 184.1328 Q130.7656 183.6719 130.0312 183.6719 Q129.3594 183.6719 128.9297 184.0547 Q128.5 184.4375 128.3906 185.1562 L127.8125 185.1562 L127.8125 183.6406 Z" style="fill:black; stroke:none;" /><rect height="10" style="stroke:none;" width="6" x="111" y="190" /><path d="M113.1094 199.3906 Q113.1094 199.0625 113.3359 198.8359 Q113.5625 198.6094 113.8906 198.6094 Q114.2188 198.6094 114.4453 198.8359 Q114.6719 199.0625 114.6719 199.3906 Q114.6719 199.7188 114.4453 199.9453 Q114.2188 200.1719 113.8906 200.1719 Q113.5625 200.1719 113.3359 199.9453 Q113.1094 199.7188 113.1094 199.3906 ZM111.8125 191.6406 Q112.4375 191.3594 113 191.2266 Q113.5625 191.0938 114.0469 191.0938 Q115.3438 191.0938 116.1016 191.7188 Q116.8594 192.3438 116.8594 193.4062 Q116.8594 194.5 116.2109 195.1953 Q115.5625 195.8906 114.25 196.1875 L114.25 197.6719 L113.5312 197.6719 L113.5312 195.75 Q114.5625 195.5 115.0938 194.9062 Q115.625 194.3125 115.625 193.4062 Q115.625 192.5938 115.1953 192.1328 Q114.7656 191.6719 114.0312 191.6719 Q113.3594 191.6719 112.9297 192.0547 Q112.5 192.4375 112.3906 193.1562 L111.8125 193.1562 L111.8125 191.6406 Z" style="fill:black; stroke:none;" /></g><g ID="li-1:2,5" style="fill:white; text-rendering:optimizeSpeed; font-family:'Serif'; stroke:white;"><rect height="10" style="stroke:none;" width="6" x="120" y="164" /><path d="M122.1094 173.3906 Q122.1094 173.0625 122.3359 172.8359 Q122.5625 172.6094 122.8906 172.6094 Q123.2188 172.6094 123.4453 172.8359 Q123.6719 173.0625 123.6719 173.3906 Q123.6719 173.7188 123.4453 173.9453 Q123.2188 174.1719 122.8906 174.1719 Q122.5625 174.1719 122.3359 173.9453 Q122.1094 173.7188 122.1094 173.3906 ZM120.8125 165.6406 Q121.4375 165.3594 122 165.2266 Q122.5625 165.0938 123.0469 165.0938 Q124.3438 165.0938 125.1016 165.7188 Q125.8594 166.3438 125.8594 167.4062 Q125.8594 168.5 125.2109 169.1953 Q124.5625 169.8906 123.25 170.1875 L123.25 171.6719 L122.5312 171.6719 L122.5312 169.75 Q123.5625 169.5 124.0938 168.9062 Q124.625 168.3125 124.625 167.4062 Q124.625 166.5938 124.1953 166.1328 Q123.7656 165.6719 123.0312 165.6719 Q122.3594 165.6719 121.9297 166.0547 Q121.5 166.4375 121.3906 167.1562 L120.8125 167.1562 L120.8125 165.6406 Z" style="fill:black; stroke:none;" /><rect height="10" style="stroke:none;" width="6" x="104" y="156" /><path d="M106.1094 165.3906 Q106.1094 165.0625 106.3359 164.8359 Q106.5625 164.6094 106.8906 164.6094 Q107.2188 164.6094 107.4453 164.8359 Q107.6719 165.0625 107.6719 165.3906 Q107.6719 165.7188 107.4453 165.9453 Q107.2188 166.1719 106.8906 166.1719 Q106.5625 166.1719 106.3359 165.9453 Q106.1094 165.7188 106.1094 165.3906 ZM104.8125 157.6406 Q105.4375 157.3594 106 157.2266 Q106.5625 157.0938 107.0469 157.0938 Q108.3438 157.0938 109.1016 157.7188 Q109.8594 158.3438 109.8594 159.4062 Q109.8594 160.5 109.2109 161.1953 Q108.5625 161.8906 107.25 162.1875 L107.25 163.6719 L106.5312 163.6719 L106.5312 161.75 Q107.5625 161.5 108.0938 160.9062 Q108.625 160.3125 108.625 159.4062 Q108.625 158.5938 108.1953 158.1328 Q107.7656 157.6719 107.0312 157.6719 Q106.3594 157.6719 105.9297 158.0547 Q105.5 158.4375 105.3906 159.1562 L104.8125 159.1562 L104.8125 157.6406 Z" style="fill:black; stroke:none;" /></g><g ID="l-1:3,8" style="text-rendering:optimizeSpeed;"><polygon points=" 145 93 145 41" style="fill:none;" /></g><g ID="l-1:3,9" style="text-rendering:optimizeSpeed;"><polygon points=" 145 93 93 93" style="fill:none;" /></g><g ID="r-1:3" style="fill:white; text-rendering:optimizeSpeed; stroke:white;" wurcs_mono_id="7"><rect height="22" style="clip-path:url(#clipPath7); stroke:none;" width="22" x="134" y="82" /><rect height="22" style="clip-path:url(#clipPath7); fill:rgb(0,144,188); stroke:none;" width="22" x="134" y="82" /><rect height="22" style="clip-path:url(#clipPath7); fill:none; stroke:black;" width="22" x="134" y="82" /><rect height="22" style="fill:none; stroke:black;" width="22" x="134" y="82" /></g><g ID="r-1:8" style="fill:white; text-rendering:optimizeSpeed; stroke:white;" wurcs_mono_id="8"><polygon points=" 145 52 134 30 156 30" style="stroke:none; clip-path:url(#clipPath8);" /><rect height="22" style="clip-path:url(#clipPath8); fill:rgb(237,28,36); stroke:none;" width="22" x="134" y="30" /><rect height="22" style="clip-path:url(#clipPath8); fill:none; stroke:black;" width="22" x="134" y="30" /><polygon points=" 145 52 134 30 156 30" style="fill:none; stroke:black;" /></g><g ID="r-1:9" style="fill:white; text-rendering:optimizeSpeed; stroke:white;" wurcs_mono_id="9"><circle cx="93" cy="93" r="11" style="clip-path:url(#clipPath9); stroke:none;" /><rect height="22" style="clip-path:url(#clipPath9); fill:rgb(255,212,0); stroke:none;" width="22" x="82" y="82" /><rect height="22" style="clip-path:url(#clipPath9); fill:none; stroke:black;" width="22" x="82" y="82" /><circle cx="93" cy="93" r="11" style="fill:none; stroke:black;" /></g><g ID="li-1:3,8" style="fill:white; text-rendering:optimizeSpeed; font-family:'Serif'; stroke:white;"><rect height="10" style="stroke:none;" width="6" x="134" y="69" /><path d="M136.1094 78.3906 Q136.1094 78.0625 136.3359 77.8359 Q136.5625 77.6094 136.8906 77.6094 Q137.2188 77.6094 137.4453 77.8359 Q137.6719 78.0625 137.6719 78.3906 Q137.6719 78.7188 137.4453 78.9453 Q137.2188 79.1719 136.8906 79.1719 Q136.5625 79.1719 136.3359 78.9453 Q136.1094 78.7188 136.1094 78.3906 ZM134.8125 70.6406 Q135.4375 70.3594 136 70.2266 Q136.5625 70.0938 137.0469 70.0938 Q138.3438 70.0938 139.1016 70.7188 Q139.8594 71.3438 139.8594 72.4062 Q139.8594 73.5 139.2109 74.1953 Q138.5625 74.8906 137.25 75.1875 L137.25 76.6719 L136.5312 76.6719 L136.5312 74.75 Q137.5625 74.5 138.0938 73.9062 Q138.625 73.3125 138.625 72.4062 Q138.625 71.5938 138.1953 71.1328 Q137.7656 70.6719 137.0312 70.6719 Q136.3594 70.6719 135.9297 71.0547 Q135.5 71.4375 135.3906 72.1562 L134.8125 72.1562 L134.8125 70.6406 Z" style="fill:black; stroke:none;" /><rect height="10" style="stroke:none;" width="6" x="134" y="55" /><path d="M136.1094 64.3906 Q136.1094 64.0625 136.3359 63.8359 Q136.5625 63.6094 136.8906 63.6094 Q137.2188 63.6094 137.4453 63.8359 Q137.6719 64.0625 137.6719 64.3906 Q137.6719 64.7188 137.4453 64.9453 Q137.2188 65.1719 136.8906 65.1719 Q136.5625 65.1719 136.3359 64.9453 Q136.1094 64.7188 136.1094 64.3906 ZM134.8125 56.6406 Q135.4375 56.3594 136 56.2266 Q136.5625 56.0938 137.0469 56.0938 Q138.3438 56.0938 139.1016 56.7188 Q139.8594 57.3438 139.8594 58.4062 Q139.8594 59.5 139.2109 60.1953 Q138.5625 60.8906 137.25 61.1875 L137.25 62.6719 L136.5312 62.6719 L136.5312 60.75 Q137.5625 60.5 138.0938 59.9062 Q138.625 59.3125 138.625 58.4062 Q138.625 57.5938 138.1953 57.1328 Q137.7656 56.6719 137.0312 56.6719 Q136.3594 56.6719 135.9297 57.0547 Q135.5 57.4375 135.3906 58.1562 L134.8125 58.1562 L134.8125 56.6406 Z" style="fill:black; stroke:none;" /></g><g ID="li-1:3,9" style="fill:white; text-rendering:optimizeSpeed; font-family:'Serif'; stroke:white;"><rect height="10" style="stroke:none;" width="6" x="123" y="96" /><path d="M125.1094 105.3906 Q125.1094 105.0625 125.3359 104.8359 Q125.5625 104.6094 125.8906 104.6094 Q126.2188 104.6094 126.4453 104.8359 Q126.6719 105.0625 126.6719 105.3906 Q126.6719 105.7188 126.4453 105.9453 Q126.2188 106.1719 125.8906 106.1719 Q125.5625 106.1719 125.3359 105.9453 Q125.1094 105.7188 125.1094 105.3906 ZM123.8125 97.6406 Q124.4375 97.3594 125 97.2266 Q125.5625 97.0938 126.0469 97.0938 Q127.3438 97.0938 128.1016 97.7188 Q128.8594 98.3438 128.8594 99.4062 Q128.8594 100.5 128.2109 101.1953 Q127.5625 101.8906 126.25 102.1875 L126.25 103.6719 L125.5312 103.6719 L125.5312 101.75 Q126.5625 101.5 127.0938 100.9062 Q127.625 100.3125 127.625 99.4062 Q127.625 98.5938 127.1953 98.1328 Q126.7656 97.6719 126.0312 97.6719 Q125.3594 97.6719 124.9297 98.0547 Q124.5 98.4375 124.3906 99.1562 L123.8125 99.1562 L123.8125 97.6406 Z" style="fill:black; stroke:none;" /><rect height="10" style="stroke:none;" width="6" x="109" y="96" /><path d="M111.1094 105.3906 Q111.1094 105.0625 111.3359 104.8359 Q111.5625 104.6094 111.8906 104.6094 Q112.2188 104.6094 112.4453 104.8359 Q112.6719 105.0625 112.6719 105.3906 Q112.6719 105.7188 112.4453 105.9453 Q112.2188 106.1719 111.8906 106.1719 Q111.5625 106.1719 111.3359 105.9453 Q111.1094 105.7188 111.1094 105.3906 ZM109.8125 97.6406 Q110.4375 97.3594 111 97.2266 Q111.5625 97.0938 112.0469 97.0938 Q113.3438 97.0938 114.1016 97.7188 Q114.8594 98.3438 114.8594 99.4062 Q114.8594 100.5 114.2109 101.1953 Q113.5625 101.8906 112.25 102.1875 L112.25 103.6719 L111.5312 103.6719 L111.5312 101.75 Q112.5625 101.5 113.0938 100.9062 Q113.625 100.3125 113.625 99.4062 Q113.625 98.5938 113.1953 98.1328 Q112.7656 97.6719 112.0312 97.6719 Q111.3594 97.6719 110.9297 98.0547 Q110.5 98.4375 110.3906 99.1562 L109.8125 99.1562 L109.8125 97.6406 Z" style="fill:black; stroke:none;" /></g><g ID="li-1:1,2" style="fill:white; text-rendering:optimizeSpeed; font-family:'Serif'; stroke:white;"><rect height="10" style="stroke:none;" width="6" x="181" y="146" /><path d="M183.1094 155.3906 Q183.1094 155.0625 183.3359 154.8359 Q183.5625 154.6094 183.8906 154.6094 Q184.2188 154.6094 184.4453 154.8359 Q184.6719 155.0625 184.6719 155.3906 Q184.6719 155.7188 184.4453 155.9453 Q184.2188 156.1719 183.8906 156.1719 Q183.5625 156.1719 183.3359 155.9453 Q183.1094 155.7188 183.1094 155.3906 ZM181.8125 147.6406 Q182.4375 147.3594 183 147.2266 Q183.5625 147.0938 184.0469 147.0938 Q185.3438 147.0938 186.1016 147.7188 Q186.8594 148.3438 186.8594 149.4062 Q186.8594 150.5 186.2109 151.1953 Q185.5625 151.8906 184.25 152.1875 L184.25 153.6719 L183.5312 153.6719 L183.5312 151.75 Q184.5625 151.5 185.0938 150.9062 Q185.625 150.3125 185.625 149.4062 Q185.625 148.5938 185.1953 148.1328 Q184.7656 147.6719 184.0312 147.6719 Q183.3594 147.6719 182.9297 148.0547 Q182.5 148.4375 182.3906 149.1562 L181.8125 149.1562 L181.8125 147.6406 Z" style="fill:black; stroke:none;" /><rect height="10" style="stroke:none;" width="6" x="164" y="159" /><path d="M166.1094 168.3906 Q166.1094 168.0625 166.3359 167.8359 Q166.5625 167.6094 166.8906 167.6094 Q167.2188 167.6094 167.4453 167.8359 Q167.6719 168.0625 167.6719 168.3906 Q167.6719 168.7188 167.4453 168.9453 Q167.2188 169.1719 166.8906 169.1719 Q166.5625 169.1719 166.3359 168.9453 Q166.1094 168.7188 166.1094 168.3906 ZM164.8125 160.6406 Q165.4375 160.3594 166 160.2266 Q166.5625 160.0938 167.0469 160.0938 Q168.3438 160.0938 169.1016 160.7188 Q169.8594 161.3438 169.8594 162.4062 Q169.8594 163.5 169.2109 164.1953 Q168.5625 164.8906 167.25 165.1875 L167.25 166.6719 L166.5312 166.6719 L166.5312 164.75 Q167.5625 164.5 168.0938 163.9062 Q168.625 163.3125 168.625 162.4062 Q168.625 161.5938 168.1953 161.1328 Q167.7656 160.6719 167.0312 160.6719 Q166.3594 160.6719 165.9297 161.0547 Q165.5 161.4375 165.3906 162.1562 L164.8125 162.1562 L164.8125 160.6406 Z" style="fill:black; stroke:none;" /></g><g ID="li-1:1,3" style="fill:white; text-rendering:optimizeSpeed; font-family:'Serif'; stroke:white;"><rect height="10" style="stroke:none;" width="6" x="171" y="120" /><path d="M173.1094 129.3906 Q173.1094 129.0625 173.3359 128.8359 Q173.5625 128.6094 173.8906 128.6094 Q174.2188 128.6094 174.4453 128.8359 Q174.6719 129.0625 174.6719 129.3906 Q174.6719 129.7188 174.4453 129.9453 Q174.2188 130.1719 173.8906 130.1719 Q173.5625 130.1719 173.3359 129.9453 Q173.1094 129.7188 173.1094 129.3906 ZM171.8125 121.6406 Q172.4375 121.3594 173 121.2266 Q173.5625 121.0938 174.0469 121.0938 Q175.3438 121.0938 176.1016 121.7188 Q176.8594 122.3438 176.8594 123.4062 Q176.8594 124.5 176.2109 125.1953 Q175.5625 125.8906 174.25 126.1875 L174.25 127.6719 L173.5312 127.6719 L173.5312 125.75 Q174.5625 125.5 175.0938 124.9062 Q175.625 124.3125 175.625 123.4062 Q175.625 122.5938 175.1953 122.1328 Q174.7656 121.6719 174.0312 121.6719 Q173.3594 121.6719 172.9297 122.0547 Q172.5 122.4375 172.3906 123.1562 L171.8125 123.1562 L171.8125 121.6406 Z" style="fill:black; stroke:none;" /><rect height="10" style="stroke:none;" width="6" x="154" y="107" /><path d="M156.1094 116.3906 Q156.1094 116.0625 156.3359 115.8359 Q156.5625 115.6094 156.8906 115.6094 Q157.2188 115.6094 157.4453 115.8359 Q157.6719 116.0625 157.6719 116.3906 Q157.6719 116.7188 157.4453 116.9453 Q157.2188 117.1719 156.8906 117.1719 Q156.5625 117.1719 156.3359 116.9453 Q156.1094 116.7188 156.1094 116.3906 ZM154.8125 108.6406 Q155.4375 108.3594 156 108.2266 Q156.5625 108.0938 157.0469 108.0938 Q158.3438 108.0938 159.1016 108.7188 Q159.8594 109.3438 159.8594 110.4062 Q159.8594 111.5 159.2109 112.1953 Q158.5625 112.8906 157.25 113.1875 L157.25 114.6719 L156.5312 114.6719 L156.5312 112.75 Q157.5625 112.5 158.0938 111.9062 Q158.625 111.3125 158.625 110.4062 Q158.625 109.5938 158.1953 109.1328 Q157.7656 108.6719 157.0312 108.6719 Q156.3594 108.6719 155.9297 109.0547 Q155.5 109.4375 155.3906 110.1562 L154.8125 110.1562 L154.8125 108.6406 Z" style="fill:black; stroke:none;" /></g></g></svg>